<svg xmlns="http://www.w3.org/2000/svg" viewBox="0 0 1024 1024">
   <circle cx="512" cy="512" r="512" style="fill:#006852"/>
   <path d="M310.094 340.832C239.328 382.968 194.45 445.821 194.45 516.107c0 65.84 39.456 125.202 102.697 167.061 5.054-3.609 10.594-7.083 16.516-10.422-47.534-40.953-76.605-96.062-76.605-156.639 0-65.742 34.214-124.98 89.04-166.808-5.63-2.695-10.974-5.51-16.005-8.467zm405.344.129a206.992 206.992 0 0 1-15.971 8.437c54.721 41.86 88.832 101.044 88.832 166.711 0 60.517-28.982 115.545-76.434 156.58a178.772 178.772 0 0 1 16.592 10.332c63.062-41.836 102.457-101.162 102.457-166.912 0-70.196-44.83-133.064-115.476-175.148zm147.107 52.232c-5.75 0-11.14 2.187-16.928 6.8v12.937c5.788-7.375 11.043-9.666 16.201-9.666 7.038 0 12.286 5.577 12.286 13.46 0 5.983-1.7 9.591-5.008 15.356-6.095 10.37-17.078 23.412-24.977 32.98v.711h45.43v-9.748h-27.416c16.007-19.039 22.287-28.793 22.287-40.427 0-13.297-8.915-22.403-21.875-22.403zm-410.473.334c-41.612 0-68.894 23.643-68.894 60.598 0 62.253 98.22 67.576 98.22 114.496 0 12.66-11.671 28.645-36.947 28.645-22.363 0-43.334-11.65-59.955-32.957v41.275c18.972 14.33 38.976 20.97 63.615 20.97 36.559 0 63.557-25.957 63.557-61.572 0-72.248-98.205-71.559-98.205-115.214 0-15.962 14.974-26.93 35.975-26.93 15.303 0 33.914 5.314 53.283 23.59v-36.924c-15.985-10.631-33.354-15.977-50.649-15.977zm204.069 0c-72.256 0-124.506 50.61-124.506 119.856 0 47.594 37.269 113.172 122.484 113.172 35.682 0 59.94-8.296 82.258-19.938v-35.629c-25.605 16.644-53.561 25.649-79.211 25.649-54.632 0-91.937-35.277-91.937-86.27 0-49.885 38.67-86.887 90.584-86.887 26.286 0 50.295 7.354 78.236 23.66v-34.972c-30.936-12.99-54.594-18.64-77.908-18.64Zm-347.334 2.977v227.055h32.597V396.504Z" style="fill:#fff"/>
</svg>
