<?xml version="1.0" encoding="utf-8"?>
<!-- Generator: Adobe Illustrator 21.0.0, SVG Export Plug-In . SVG Version: 6.00 Build 0)  -->
<svg version="1.1" xmlns="http://www.w3.org/2000/svg" xmlns:xlink="http://www.w3.org/1999/xlink" x="0px" y="0px"
	 viewBox="0 0 1024 1024" style="enable-background:new 0 0 1024 1024;" xml:space="preserve">
<style type="text/css">
	.st0{fill:#1A8CFF;}
	.st1{fill:#FFFFFF;}
</style>
<g id="Guides">
</g>
<g id="Icon">
	<circle class="st0" cx="512" cy="512" r="512"/>
	<path class="st1" d="M480,612.4v-106c0-1.6,0.6-3,1.7-4.1l10.2-10.2c2.3-2.3,2.3-5.9,0-8.2l-10.2-10.2c-1.1-1.1-1.7-2.6-1.7-4.1
		v-58c0-6.4,5.2-11.6,11.6-11.6h40.7c6.4,0,11.6,5.2,11.6,11.6v106c0,1.6-0.6,3-1.7,4.1l-10.2,10.2c-2.3,2.3-2.3,6,0,8.2l10.2,10.2
		c1.1,1.1,1.7,2.6,1.7,4.1v58c0,6.4-5.2,11.6-11.6,11.6h-40.7C485.2,624,480,618.8,480,612.4 M360,512c0,84,68.1,152,152,152
		c83.9,0,152-68,152-152c0-83.9-68.1-152-152-152C428.1,360,360,428.1,360,512 M308,512c0-112.7,91.3-204,204-204
		c112.7,0,204,91.3,204,204s-91.3,204-204,204C399.3,716,308,624.7,308,512 M256,512c0,141.4,114.6,256,256,256
		c141.4,0,256-114.6,256-256S653.4,256,512,256C370.6,256,256,370.6,256,512"/>
</g>
</svg>
