<?xml version="1.0" encoding="UTF-8" standalone="no"?>
<svg
   xmlns:dc="http://purl.org/dc/elements/1.1/"
   xmlns:cc="http://creativecommons.org/ns#"
   xmlns:rdf="http://www.w3.org/1999/02/22-rdf-syntax-ns#"
   xmlns:svg="http://www.w3.org/2000/svg"
   xmlns="http://www.w3.org/2000/svg"
   viewBox="0 0 1365.3333 1365.3333"
   height="1365.3333"
   width="1365.3333"
   xml:space="preserve"
   id="svg2"
   version="1.1"><metadata
     id="metadata8"><rdf:RDF><cc:Work
         rdf:about=""><dc:format>image/svg+xml</dc:format><dc:type
           rdf:resource="http://purl.org/dc/dcmitype/StillImage" /></cc:Work></rdf:RDF></metadata><defs
     id="defs6"><clipPath
       id="clipPath18"
       clipPathUnits="userSpaceOnUse"><path
         id="path16"
         d="M 0,1024 H 1024 V 0 H 0 Z" /></clipPath></defs><g
     transform="matrix(1.3333333,0,0,-1.3333333,0,1365.3333)"
     id="g10"><g
       id="g12"><g
         clip-path="url(#clipPath18)"
         id="g14"><g
           transform="translate(1024,512)"
           id="g20"><path
             id="path22"
             style="fill:#4671c1;fill-opacity:1;fill-rule:nonzero;stroke:none"
             d="m 0,0 c 0,-282.77 -229.23,-512 -512,-512 -282.77,0 -512,229.23 -512,512 0,282.77 229.23,512 512,512 C -229.23,512 0,282.77 0,0" /></g><g
           transform="translate(256,512)"
           id="g24"><path
             id="path26"
             style="fill:#ffffff;fill-opacity:1;fill-rule:nonzero;stroke:none"
             d="M 0,0 C 0,-141.383 114.609,-255.992 256.008,-255.992 397.391,-255.992 512,-141.383 512,0 512,141.383 397.391,255.992 256.008,255.992 114.609,255.992 0,141.383 0,0 m 52.003,0 c 0,112.662 91.327,203.989 204.005,203.989 112.662,0 203.989,-91.327 203.989,-203.989 0,-112.662 -91.327,-203.989 -203.989,-203.989 C 143.33,-203.989 52.003,-112.662 52.003,0 m 52.003,0 c 0,-83.958 68.06,-151.986 152.002,-151.986 83.926,0 151.986,68.028 151.986,151.986 0,83.941 -68.06,151.986 -151.986,151.986 C 172.066,151.986 104.006,83.941 104.006,0 M 224.005,-100.369 V 5.583 c 0,1.561 0.611,3.041 1.689,4.119 l 10.202,10.201 c 2.268,2.253 2.268,5.937 0,8.206 l -10.202,10.185 c -1.078,1.094 -1.689,2.575 -1.689,4.119 v 57.957 c 0,6.42 5.197,11.632 11.633,11.632 h 40.724 c 6.436,0 11.633,-5.212 11.633,-11.632 V -5.583 c 0,-1.561 -0.611,-3.041 -1.689,-4.119 L 276.12,-19.903 c -2.284,-2.253 -2.284,-5.953 0,-8.206 l 10.186,-10.185 c 1.078,-1.095 1.689,-2.574 1.689,-4.119 v -57.956 c 0,-6.42 -5.197,-11.634 -11.633,-11.634 h -40.724 c -6.436,0 -11.633,5.214 -11.633,11.634" /></g></g></g></g></svg>