<svg xmlns="http://www.w3.org/2000/svg" viewBox="0 0 1024 1024">
   <circle cx="512" cy="512" r="512" style="fill:#3bbbbc"/>
   <path d="M511.34 402.56c108.07 0 196.38 88.3 196.38 196.38C707.72 705.7 619.41 794 511.34 794s-195.06-88.3-195.06-195.06c0-108.07 86.99-196.38 195.06-196.38ZM363.73 294.49c0-34.27 26.36-72.49 77.76-72.49h145c47.45 0 72.49 40.86 72.49 71.17v46.13l-46.16-1.3v-42.19c0-15.82-13.18-27.68-26.36-27.68H436.22c-14.5 0-26.36 11.86-26.36 25 1.32 14.5 0 109.39 0 109.39a225.17 225.17 0 0 0-22.41 14.5C376.91 425 365 435.51 365 435.51s-1.27-105.44-1.27-141.02Zm-2.64 304.45c0 81.71 67.22 148.93 150.25 148.93s150.25-67.22 150.25-148.93a150.25 150.25 0 1 0-300.5 0Zm150.25-117.3c64.58 0 117.3 52.72 117.3 117.3 0 63.26-52.72 116-117.3 116-63.26 0-116-52.72-116-116 .02-64.58 52.74-117.3 116-117.3Zm-39.54 90.94c0 13.18 6.59 26.36 17.13 32.95v58h46.13v-58c9.23-6.59 17.13-19.77 17.13-32.95 0-22.41-18.45-39.54-40.86-39.54a39.65 39.65 0 0 0-39.53 39.54Z" style="fill:#fff"/>
</svg>
