<svg xmlns="http://www.w3.org/2000/svg" viewBox="0 0 1024 1024">
   <circle cx="512" cy="512" r="512" style="fill:#5cc4a6"/>
   <path d="m833.87 550.07-8.25 13.551c7.93 7.106 19.73 10.574 32.99 10.574 21.83 0 36.384-11.237 36.384-28.089 0-15.701-11.8-22.641-26.685-26.604l-7.277-2.15c-7.598-1.982-13.094-4.462-13.094-9.748 0-5.123 5.497-8.097 13.426-8.097 7.764 0 15.196 1.817 22.152 5.783l9.213-14.706c-8.571-5.95-19.73-8.758-32.824-8.758-20.702 0-34.283 11.732-34.283 29.412 0 14.046 10.03 19.827 24.739 23.794l7.277 1.984c8.736 2.316 14.885 5.286 14.885 10.739 0 5.452-5.507 8.924-13.591 8.924-8.571 0-16.81-1.652-25.06-6.61zm-18.156-33.542v56.015h-21.179l-.488-12.723c-5.82 9.254-15.846 14.375-26.52 14.375-18.113 0-30.24-11.073-30.24-27.593 0-17.186 14.878-28.423 37.192-28.423 5.985 0 12.615.66 19.244 1.981v-1.65c0-11.897-7.76-19.003-21.02-19.003-8.248 0-14.878 2.478-20.377 7.106l-9.54-13.221c9.38-7.767 20.378-11.566 35.577-11.566 22.316 0 37.35 13.715 37.35 34.7zm-21.99 18.838c-5.659-1.157-11.478-1.817-16.494-1.817-10.349 0-16.98 4.953-16.98 12.558 0 7.268 4.69 12.06 13.585 12.06 10.187 0 19.728-8.26 19.889-22.8zm-65.528 37.177v-56.015c0-20.82-14.23-34.701-35.416-34.701-11.644 0-21.83 4.628-28.138 13.383-5.659-8.427-14.878-13.383-26.359-13.383-10.672 0-19.891 4.131-26.033 12.226l-.323-10.573h-21.186v89.063h21.992v-52.382c0-11.564 7.117-19.168 17.789-19.168 10.836 0 17.95 7.605 17.95 19.168v52.382h21.992v-52.382c0-11.564 7.118-19.168 17.788-19.168 10.837 0 17.951 7.605 17.951 19.168v52.382zm-152.58-56.015v56.015h-21.992v-52.382c0-11.564-7.114-19.168-17.951-19.168-10.67 0-17.788 7.605-17.788 19.168v52.382h-21.992v-52.382c0-11.564-7.114-19.168-17.948-19.168-10.674 0-17.791 7.605-17.791 19.168v52.382h-21.992V483.48h21.186l.323 10.573c6.144-8.095 15.361-12.226 26.035-12.226 11.48 0 20.698 4.956 26.359 13.383 6.306-8.755 16.492-13.383 28.136-13.383 21.186 0 35.415 13.882 35.415 34.701zm-193.11-34.701c-27.975 0-46.734 18.505-46.734 46.101 0 27.761 18.758 46.268 46.734 46.268 27.815 0 46.573-18.507 46.573-46.268 0-27.595-18.759-46.101-46.573-46.101zm0 19.166c14.232 0 23.772 10.743 23.772 26.935 0 16.197-9.54 26.934-23.772 26.934-14.389 0-23.932-10.737-23.932-26.934 0-16.192 9.543-26.935 23.932-26.935zm-171.36 34.842c0 23.466-17.464 39.164-45.601 39.164-14.715 0-28.784-4.462-36.547-12.229l8.57-17.019c5.822 6.281 15.04 9.914 25.39 9.914 15.202 0 24.58-7.93 24.58-19.662 0-11.735-9.056-19.171-22.801-19.171-6.146 0-11.482 1.323-16.334 3.968l-6.145-11.73 32.99-38.668h-40.752V451.07h70.505v14.54l-30.886 33.546c22.315.494 37.03 15.199 37.03 36.68zm8.188-24.371c0-37.509 25.389-62.458 63.39-62.458 19.568 0 35.416 6.607 47.22 19.66l-14.392 14.872c-6.792-8.923-18.272-15.203-32.504-15.203-24.095 0-40.105 17.351-40.105 43.294 0 26.272 16.333 43.622 40.428 43.622 16.17 0 27.329-7.436 34.93-19.331l15.363 14.046c-11.482 16.027-28.947 24.62-50.78 24.62-38 0-63.55-25.28-63.55-63.123z" style="fill:#ffffff"/>
</svg>
