<svg xmlns="http://www.w3.org/2000/svg" viewBox="0 0 1024 1024">
  <circle cx="512" cy="512" r="512" style="fill:#00a59a"/>
  <path d="M264.94 536.49h23.353a.307.307 0 0 0 .291-.21l7.901-23.762a.307.307 0 0 0 .003-.01l6.849-23.57a.307.307 0 0 0-.023-.23l-.997-1.871a.307.307 0 0 0-.271-.163h-28.641a.307.307 0 0 0-.302.258L269 512.509a.307.307 0 0 1-.002.008l-4.357 23.612a.307.307 0 0 0 .3.362zm-52.585 0h23.254a.307.307 0 0 0 .291-.209l7.955-23.764a.307.307 0 0 0 .003-.01l6.895-23.57a.307.307 0 0 0-.025-.23l-1.003-1.87a.307.307 0 0 0-.27-.163h-28.84a.307.307 0 0 0-.3.257l-4.135 25.58v.003l-4.127 23.616a.307.307 0 0 0 .302.36zm-51.198 0h23.351a.307.307 0 0 0 .291-.21l7.901-23.762a.307.307 0 0 0 .005-.01l6.849-23.57a.307.307 0 0 0-.025-.23l-.996-1.871a.307.307 0 0 0-.27-.163h-28.641a.307.307 0 0 0-.302.258l-4.106 25.577a.307.307 0 0 1 0 .008l-4.36 23.612a.307.307 0 0 0 .303.362zm175.41-128.69v208.4h-207.57V407.8zm87.066 123.6c0 15.829-12.037 26.418-31.431 26.418-10.144 0-19.842-3.01-25.192-8.249l5.908-11.482c4.012 4.238 10.366 6.688 17.5 6.688 10.478 0 16.942-5.35 16.942-13.262 0-7.916-6.242-12.93-15.716-12.93-4.237 0-7.915.892-11.26 2.675l-4.235-7.912 22.739-26.085h-28.09v-13.043h48.598v9.808l-21.29 22.63c15.384.333 25.526 10.251 25.526 24.743m5.645-16.432c0-25.303 17.502-42.133 43.696-42.133 13.488 0 24.411 4.459 32.547 13.262l-9.92 10.033c-4.682-6.02-12.595-10.256-22.405-10.256-16.608 0-27.644 11.705-27.644 29.205 0 17.723 11.26 29.426 27.866 29.426 11.147 0 18.837-5.015 24.078-13.04l10.588 9.476c-7.913 10.81-19.952 16.608-35 16.608-26.195 0-43.805-17.053-43.805-42.581m128.86 11.107c0-10.923-6.578-18.17-16.386-18.17-9.92 0-16.498 7.247-16.498 18.17 0 10.926 6.578 18.169 16.498 18.169 9.81 0 16.386-7.243 16.386-18.17zm-48.599 0c0-18.615 12.93-31.098 32.213-31.098 19.172 0 32.103 12.484 32.103 31.098 0 18.727-12.93 31.21-32.103 31.21-19.283 0-32.213-12.484-32.213-31.21zm165.32-7.691v37.786H659.7v-35.335c0-7.801-4.905-12.93-12.373-12.93-7.356 0-12.26 5.129-12.26 12.93v35.333h-15.16v-35.333c0-7.801-4.905-12.93-12.372-12.93-7.358 0-12.263 5.129-12.263 12.93v35.333h-15.159V496.09h14.602l.224 7.131c4.235-5.46 10.588-8.247 17.945-8.247 7.913 0 14.267 3.342 18.169 9.027 4.347-5.906 11.369-9.027 19.395-9.027 14.602 0 24.411 9.365 24.411 23.408m105.17 0v37.786H764.87v-35.335c0-7.801-4.905-12.93-12.373-12.93-7.356 0-12.261 5.129-12.261 12.93v35.333h-15.159v-35.333c0-7.801-4.905-12.93-12.373-12.93-7.355 0-12.261 5.129-12.261 12.93v35.333h-15.159v-60.077h14.602l.224 7.13c4.233-5.459 10.588-8.246 17.945-8.246 7.913 0 14.267 3.342 18.169 9.027 4.347-5.906 11.369-9.027 19.395-9.027 14.602 0 24.41 9.365 24.41 23.408m45.17 12.707c-3.9-.78-7.91-1.227-11.368-1.227-7.133 0-11.705 3.342-11.705 8.473 0 4.903 3.233 8.135 9.365 8.135 7.022 0 13.598-5.573 13.709-15.381zm15.16-12.707v37.786h-14.6l-.337-8.583c-4.01 6.243-10.92 9.697-18.279 9.697-12.484 0-20.844-7.47-20.844-18.613 0-11.593 10.256-19.173 25.636-19.173 4.126 0 8.697.445 13.266 1.337v-1.113c0-8.026-5.349-12.818-14.489-12.818-5.686 0-10.256 1.671-14.044 4.792l-6.577-8.918c6.465-5.239 14.046-7.802 24.522-7.802 15.383 0 25.748 9.253 25.748 23.408zm6.827 31.769 5.684-9.141c5.687 3.344 11.369 4.458 17.28 4.458 5.572 0 9.362-2.343 9.362-6.02 0-3.68-4.236-5.682-10.256-7.244l-5.017-1.338c-10.142-2.676-17.053-6.576-17.053-16.05 0-11.93 9.362-19.84 23.63-19.84 9.028 0 16.72 1.893 22.626 5.906l-6.35 9.92c-4.795-2.674-9.92-3.9-15.271-3.9-5.463 0-9.253 2.006-9.253 5.46 0 3.567 3.79 5.24 9.027 6.578l5.017 1.449c10.257 2.674 18.391 7.355 18.391 17.946 0 11.367-10.03 18.948-25.079 18.948-9.14 0-17.276-2.34-22.738-7.133" style="fill:#ffffff"/>
</svg>
