<svg xmlns="http://www.w3.org/2000/svg" viewBox="0 0 1024 1024">
   <circle cx="512" cy="512" r="512" style="fill:#5cc4a6"/>
   <path d="M441.22 600.78h83.416a.99.99 0 0 0 .94-.673l28.49-84.768a.537.537 0 0 0 .011-.036l24.687-84.053a.985.985 0 0 0-.078-.744l-3.64-6.761a.991.991 0 0 0-.874-.52h-103.35a.99.99 0 0 0-.977.829l-14.807 91.26-.002.013-14.79 84.297a.987.987 0 0 0 .975 1.156zm-183.22 0h83.771a.99.99 0 0 0 .94-.675l28.298-84.766a.537.537 0 0 0 .011-.037l24.521-84.055a.984.984 0 0 0-.077-.739l-3.616-6.76a.99.99 0 0 0-.874-.523h-102.64a.99.99 0 0 0-.978.83L272.65 515.31l-.004.023-15.62 84.282a.987.987 0 0 0 .975 1.165zm371.38 0h83.77a.993.993 0 0 0 .942-.675l28.3-84.766c0-.012.004-.025.008-.037l24.521-84.055a.976.976 0 0 0-.079-.739l-3.616-6.76a.988.988 0 0 0-.872-.523h-102.64c-.488 0-.901.351-.975.83l-14.707 91.255c-.005.007-.005.015-.005.023l-15.621 84.282a.99.99 0 0 0 .975 1.165z" style="fill:#ffffff"/>
</svg>
