<svg xmlns="http://www.w3.org/2000/svg" viewBox="0 0 1024 1024">
   <circle cx="512" cy="512" r="512" style="fill:#00a59a"/>
   <path d="M294.52 293.38v437.74h436V293.38Zm85.33 165.68H440a.64.64 0 0 1 .57.34l2.09 3.93a.64.64 0 0 1 .05.48l-14.38 49.51-16.59 49.91a.64.64 0 0 1-.61.44h-49a.64.64 0 0 1-.63-.76l9.16-49.6 8.62-53.73a.64.64 0 0 1 .63-.54Zm107.11 0h60.58a.64.64 0 0 1 .57.34l2.11 3.93a.64.64 0 0 1 .05.48l-14.48 49.51-16.71 49.92a.64.64 0 0 1-.61.44H469.6a.64.64 0 0 1-.63-.75l8.67-49.61 8.69-53.73a.64.64 0 0 1 .63-.54Zm110.88 0H658a.64.64 0 0 1 .57.34l2.09 3.93a.64.64 0 0 1 0 .48l-14.39 49.51-16.6 49.91a.64.64 0 0 1-.61.44h-49a.64.64 0 0 1-.63-.76l9.15-49.6 8.62-53.72a.64.64 0 0 1 .63-.54Z" style="fill:#fff"/>
</svg>
