<svg xmlns="http://www.w3.org/2000/svg" viewBox="0 0 1024 1024">
  <circle cx="512" cy="512" r="512" style="fill:#00a59a"/>
  <path d="M257 255.72v513.06h511.03V255.72zm100.01 194.19h70.514a.755.755 0 0 1 .664.4l2.453 4.606a.755.755 0 0 1 .06.566l-16.86 58.03a.755.755 0 0 1-.012.025l-19.45 58.502a.755.755 0 0 1-.718.515h-57.49a.755.755 0 0 1-.744-.89l10.732-58.131a.755.755 0 0 0 0-.006.755.755 0 0 1 0-.002.755.755 0 0 0 0-.006.755.755 0 0 1 0-.002.755.755 0 0 1 0-.002l10.107-62.971a.755.755 0 0 1 .744-.635zm125.54 0h71.004a.755.755 0 0 1 .664.4l2.469 4.606a.755.755 0 0 1 .06.566l-16.977 58.03a.755.755 0 0 1-.008.025l-19.582 58.506a.755.755 0 0 1-.716.511h-57.252a.755.755 0 0 1-.744-.882l10.162-58.143v-.008l10.18-62.977a.755.755 0 0 1 .74-.635zm129.96 0h70.512a.755.755 0 0 1 .668.4l2.455 4.606a.755.755 0 0 1 .057.566l-16.863 58.03a.755.755 0 0 1-.008.025l-19.451 58.502a.755.755 0 0 1-.717.515h-57.488a.755.755 0 0 1-.74-.89l10.727-58.131a.755.755 0 0 0 .004-.018l10.102-62.97a.755.755 0 0 1 .744-.636z" style="fill:#ffffff"/>
</svg>
