<svg xmlns="http://www.w3.org/2000/svg" viewBox="0 0 1024 1024">
   <circle cx="512" cy="512" r="512" style="fill:#74c947"/>
   <path d="M721.14 498.66H302.89C266 495.82 267.21 316.2 481.21 300.78c2-.94 2.48-1.16 3.66-5a88.88 88.88 0 0 0 3.32-20.85 59.44 59.44 0 0 0-3.29-22.1 55.13 55.13 0 0 0-9.83-16.83 51.26 51.26 0 0 1 19.43 3.93 72.89 72.89 0 0 1 23.75 16.2 121.69 121.69 0 0 1 18.91 24.64 159.46 159.46 0 0 1 7.48 14.23c1.1 2.43 2.16 4.95 3.17 7.59 208.88 18.04 209.91 193.2 173.33 196.07ZM312.36 517.6s-34.18 209.77 169.48 244.68c9.19 7.83 24.44 25.8 30 25.72 5.56.08 20.8-17.89 30-25.72C744.36 723.4 711.28 517.6 711.28 517.6Z" style="fill:#fff"/>
</svg>
