<?xml version="1.0" encoding="utf-8"?>
<!-- Generator: Adobe Illustrator 21.0.0, SVG Export Plug-In . SVG Version: 6.00 Build 0)  -->
<svg version="1.1" xmlns="http://www.w3.org/2000/svg" xmlns:xlink="http://www.w3.org/1999/xlink" x="0px" y="0px"
	 viewBox="0 0 1024 1024" style="enable-background:new 0 0 1024 1024;" xml:space="preserve">
<style type="text/css">
	.st0{fill:#FFFFFF;}
</style>
<g id="Min_Guides__x28_DO_NOT_REMOVE_x29_">
</g>
<g id="Max_Guides__x28_DO_NOT_REMOVE_x29_">
</g>
<g id="Icon">
	<circle id="Background" cx="512" cy="512" r="512"/>
	<path class="st0" d="M409.2,473.6h26.3v100.5h-26.3V473.6z M794.6,531.3v42.5l-26.5-0.1V470.5l47.7,41.1v-38h26.3v104.2
		L794.6,531.3 M276.7,523.6c0-28.5,23.1-51.7,51.7-51.7c12.9,0,24.6,4.7,33.7,12.5l-17.1,19.4c-4.5-3.8-10.3-6-16.6-6
		c-14.3,0-25.8,11.6-25.8,25.8c0,14.3,11.6,25.8,25.8,25.8c6.4,0,12.3-2.4,16.8-6.3l17,19.4c-9,7.9-20.9,12.7-33.9,12.7
		C299.8,575.2,276.7,552.1,276.7,523.6 M485.7,597.1l-49.8-132.4h-41.7v109.8h-27.3V464.7h-60.4l14-26.4h134.7l30.4,79.3l30.4-79.3
		h130.5l14.4,26.4H535.5L485.7,597.1 M569.9,573.7v-22.2H588c2.9,0,8.5-0.2,9.9-4.9c2.9-9.7-26.9-25.5-26.9-49.6
		c0-18.3,13.2-23.8,22.2-23.8h27.4V495h-16.9c0,0-4.9,0-6.2,2c-7.4,10.5,27.2,25.9,27.2,54.2c0,14.8-12.7,22.6-25.3,22.6H569.9
		 M535.9,473.2h26.4v100.5h-26.4V473.2z M629,473.2h26.4v100.5H629V473.2z M256.7,574.1l-7-18.7H217l-7,18.7h-28l51.4-147.2
		l51.4,147.2H256.7 M225,528.5h15.6l-7.8-25.7L225,528.5 M660.2,523.6c0-28.5,23.2-51.7,51.8-51.7c28.5,0,51.7,23.2,51.7,51.7
		c0,28.6-23.2,51.8-51.7,51.8C683.4,575.3,660.2,552.1,660.2,523.6 M686.3,523.6c0,14.2,11.5,25.7,25.7,25.7
		c14.2,0,25.7-11.5,25.7-25.7c0-14.2-11.5-25.7-25.7-25.7C697.8,497.9,686.3,509.4,686.3,523.6"/>
</g>
</svg>
