<svg xmlns="http://www.w3.org/2000/svg" viewBox="0 0 1024 1024">
   <circle cx="512" cy="512" r="512" style="fill:#00af7e"/>
   <path d="M654.24 492.27h87l7.91-21h-103L638 450.09h119.12l7.9-21H630l-8-20.95h151l7.9-21h-167l-45.55-118.51H455.59L410.13 387H243.2l7.91 21h253l7.85-20.92v-.13l39.53 105.22 19.77 52.61H452.69l19.77-52.61 7.91-21H274.82l7.9 21h87l-20.21 52.61H243.2l7.91 21h328.07l7.87 20.95H259l7.91 21H595l7.94 21.14H274.82l7.9 21h26.38l-40.42 105.5h104.93l39.55-105.27h197.65l39.53 105.22h104.89L714.82 650.1h26.45l7.91-21h-42.43l-8.11-21.14h58.48l7.9-21h-74.47l-8-20.95h90.38l7.9-21H674.44ZM496.21 429H259l7.91 21H488.3Z" style="fill:#fff"/>
</svg>
