<?xml version="1.0" encoding="utf-8"?>
<!-- Generator: Adobe Illustrator 21.0.0, SVG Export Plug-In . SVG Version: 6.00 Build 0)  -->
<svg version="1.1" xmlns="http://www.w3.org/2000/svg" xmlns:xlink="http://www.w3.org/1999/xlink" x="0px" y="0px"
	 viewBox="0 0 1024 1024" style="enable-background:new 0 0 1024 1024;" xml:space="preserve">
<style type="text/css">
	.st0{fill:#2266CC;}
	.st1{fill:#FFFFFF;}
</style>
<g id="Min_Guides__x28_DO_NOT_REMOVE_x29_">
</g>
<g id="Max_Guides__x28_DO_NOT_REMOVE_x29_">
</g>
<g id="Icon">
	<circle id="Background" class="st0" cx="512" cy="512" r="512"/>
	<path class="st1" d="M506.5,319.8c39-12.5,85.5-3.1,114.1,27c13.5,13.3,23.3,30.8,26.1,49.6c1.3,7.7-0.1,15.4-2.2,22.8
		c5.6-1.5,11.2-3.8,17.1-3.9c11.3-0.6,22.6,3.9,31,11.4c10.7,8.3,16.3,23.1,12.4,36.2c-1.4,5.9-4.7,11.1-7.4,16.5
		c28.7,0.9,58.2,9.7,79.5,29.7c8.8,9.5,16.9,20.1,20.9,32.6c3.6,12,4.1,24.7,3.1,37.1c-2.7,18.4-8.9,37.1-21.6,51.1
		c-7.9,8.5-18,15.3-29.2,18.4c-11.1,2.9-22.6,4-34.1,3.8c-33.9,1-67.9-11.9-92.9-34.7c-2.7,5.4-8.1,14.3-18,21.9
		c-14.8,11.4-30.4,12.7-38.4,13.3c-7.2,0.5-31.6,2.2-50.3-14.2c-4.4-3.9-7.4-7.8-9.4-10.7c-2.5,5.2-4.2,10.9-7.8,15.5
		c-7.5,9.9-18.9,16.8-31.2,19c-16,2.8-33.2,1.8-47.5-6.5c-8.8-5.3-16.4-12.7-21.4-21.7c-9.7-15-13.3-33.5-11.5-51.1
		c2-21.4,10.5-42.6,25.7-58.1c12.8-13.8,30.5-22.2,48.6-26.7c32.8-7.7,67.3-2.9,98.7,8.1c-1.8-3.1-4.6-5.5-7.3-7.7
		c-14.7-12.3-32.9-19.6-51.6-23.5c-18.2-3.4-37-4.4-55.1-0.1c-19.2,4.5-37.9,12.7-52.9,25.7c-16.9,13.6-29.3,33.1-33.5,54.5
		c-2.7,12.9-4.4,26.1-4.1,39.3c1,14.5,1.9,29.1,5.8,43.1c-15.8,5.6-32.8,7.2-49.5,6.4c-12,0-23.7-3.4-34.9-7.7
		c-19-7.8-33.7-23.6-43.1-41.5c-13.7-25.1-16.9-57.1-3.6-83c8.6-19.3,25.3-34.5,44.8-42.3c14.8-6,31.7-5.6,46.8-0.4
		c-3.6-17.4-0.1-36.6,10.7-50.9c7.3-10.6,17.9-18.9,29.9-23.5c13.9-5.9,30-4.4,43.9,1c5.3,1.9,9.8,5.5,15,7.5
		c8.9-19.7,20.7-38.5,36.5-53.4C471.7,336,488.3,325.5,506.5,319.8"/>
</g>
</svg>
