<svg xmlns="http://www.w3.org/2000/svg" viewBox="0 0 1024 1024" style="enable-background:new 0 0 1024 1024" xml:space="preserve">
   <circle cx="512" cy="512" r="512" style="fill:#5468ff"/>
   <path d="M327.2 261.2h369.6c36.4 0 66.1 29.5 66.1 66.1v369.6c0 36.4-29.5 66-66.1 66H327.2c-36.4 0-66.1-29.5-66.1-66V327.1c.1-36.4 29.6-65.9 66.1-65.9" style="fill:#5468ff;stroke:#fff;stroke-width:10;stroke-miterlimit:10"/>
   <path d="M564.3 373.2V356c0-12-9.8-21.8-21.8-21.8h-50.8c-12 0-21.8 9.7-21.8 21.8v17.7c0 2 1.8 3.3 3.8 2.9 14.4-4.1 29.2-6.2 44.2-6.2 14.5 0 28.8 2 42.7 5.8 1.9.3 3.7-1.1 3.7-3m-139.2 22.5-8.7-8.7c-8.5-8.5-22.3-8.5-30.8 0l-10.4 10.3c-8.5 8.4-8.5 22.2-.1 30.7l.1.1 8.5 8.5c1.4 1.4 3.4 1 4.6-.3 5-6.9 10.6-13.4 16.6-19.5 6.1-6.1 12.7-11.7 19.6-16.7 1.7-.9 1.8-3 .6-4.4m92.7 54.6v74.4c0 2.1 2.3 3.7 4.3 2.6l66.2-34.2c1.5-.8 2-2.6 1.2-4.1-13.7-24.1-39.2-40.5-68.6-41.6-1.6 0-3.1 1.2-3.1 2.9m0 179.3c-55.2 0-100-44.8-100-99.8s44.8-99.8 100-99.8 100 44.7 100 99.8-44.7 99.8-100 99.8m0-241.7c-78.3 0-141.9 63.5-141.9 141.8 0 78.4 63.5 141.7 141.9 141.7s141.9-63.5 141.9-141.8c0-78.4-63.4-141.7-141.9-141.7" style="fill:#fff"/>
</svg>
