<svg xmlns="http://www.w3.org/2000/svg" viewBox="0 0 1024 1024">
   <circle cx="512" cy="512" r="512" style="fill:#5468ff"/>
   <path d="M696.78 767.83H327.22a71.12 71.12 0 0 1-71.05-71V327.05a71 71 0 0 1 71.05-70.89h369.56a71.13 71.13 0 0 1 71.05 71.05V696.8a71.12 71.12 0 0 1-71.05 71.03ZM327.22 266.17a61 61 0 0 0-61.05 60.89V696.8a61.11 61.11 0 0 0 61.05 61h369.56a61.11 61.11 0 0 0 61.05-61V327.22a61.12 61.12 0 0 0-61.05-61.05Zm237.06 107V356a21.78 21.78 0 0 0-21.78-21.8h-50.78a21.78 21.78 0 0 0-21.78 21.8v17.66a3 3 0 0 0 3.8 2.88 158.72 158.72 0 0 1 44.19-6.23 161.17 161.17 0 0 1 42.69 5.69 2.94 2.94 0 0 0 3.66-2.88m-139.15 22.55-8.68-8.67a21.76 21.76 0 0 0-30.78 0l-10.37 10.34a21.68 21.68 0 0 0-.1 30.66l.09.09 8.53 8.53a3.09 3.09 0 0 0 4.58-.31 166.7 166.7 0 0 1 16.6-19.48 157.52 157.52 0 0 1 19.65-16.72 2.91 2.91 0 0 0 .46-4.43m92.66 54.62v74.4a2.92 2.92 0 0 0 4.26 2.59l66.16-34.24a3 3 0 0 0 1.21-4.1 82.3 82.3 0 0 0-68.58-41.55 3 3 0 0 0-3.05 2.88m0 179.26a99.82 99.82 0 1 1 100-99.83 100 100 0 0 1-100 99.83m0-241.64A141.84 141.84 0 0 0 375.9 529.72c0 78.36 63.54 141.68 141.89 141.68a141.74 141.74 0 1 0 0-283.48" style="fill:#fff"/>
</svg>
