<?xml version="1.0" encoding="utf-8"?>
<!-- Generator: Adobe Illustrator 21.0.0, SVG Export Plug-In . SVG Version: 6.00 Build 0)  -->
<svg version="1.1" xmlns="http://www.w3.org/2000/svg" xmlns:xlink="http://www.w3.org/1999/xlink" x="0px" y="0px"
	 viewBox="0 0 1024 1024" style="enable-background:new 0 0 1024 1024;" xml:space="preserve">
<style type="text/css">
	.st0{fill:#5468FF;}
	.st1{fill:#5468FF;stroke:#FFFFFF;stroke-width:10;stroke-miterlimit:10;}
	.st2{fill:#FFFFFF;}
</style>
<g id="Guides">
</g>
<g id="Icon">
	<circle class="st0" cx="512" cy="512" r="512"/>
	<g>
		<path class="st1" d="M327.2,261.2h369.6c36.4,0,66.1,29.5,66.1,66.1v369.6c0,36.4-29.5,66-66.1,66H327.2
			c-36.4,0-66.1-29.5-66.1-66V327.1C261.2,290.7,290.7,261.2,327.2,261.2"/>
		<path class="st2" d="M564.3,373.2V356c0-12-9.8-21.8-21.8-21.8h-50.8c-12,0-21.8,9.7-21.8,21.8v17.7c0,2,1.8,3.3,3.8,2.9
			c14.4-4.1,29.2-6.2,44.2-6.2c14.5,0,28.8,2,42.7,5.8C562.5,376.5,564.3,375.1,564.3,373.2 M425.1,395.7l-8.7-8.7
			c-8.5-8.5-22.3-8.5-30.8,0c0,0,0,0,0,0l-10.4,10.3c-8.5,8.4-8.5,22.2-0.1,30.7c0,0,0.1,0.1,0.1,0.1l8.5,8.5c1.4,1.4,3.4,1,4.6-0.3
			c5-6.9,10.6-13.4,16.6-19.5c6.1-6.1,12.7-11.7,19.6-16.7C426.2,399.2,426.3,397.1,425.1,395.7 M517.8,450.3v74.4
			c0,2.1,2.3,3.7,4.3,2.6l66.2-34.2c1.5-0.8,2-2.6,1.2-4.1c-13.7-24.1-39.2-40.5-68.6-41.6C519.3,447.4,517.8,448.6,517.8,450.3
			 M517.8,629.6c-55.2,0-100-44.8-100-99.8s44.8-99.8,100-99.8c55.2,0,100,44.7,100,99.8S573.1,629.6,517.8,629.6 M517.8,387.9
			c-78.3,0-141.9,63.5-141.9,141.8c0,78.4,63.5,141.7,141.9,141.7s141.9-63.5,141.9-141.8C659.7,451.2,596.3,387.9,517.8,387.9"/>
	</g>
</g>
</svg>
