<svg xmlns="http://www.w3.org/2000/svg" viewBox="0 0 1024 1024">
   <circle cx="512" cy="512" r="512" style="fill:#ed6b1e"/>
   <path d="M426.81 492h170.8v38.34h-170.8Zm256-139.71H569.93L597.19 391l82.64 25.13a35 35 0 0 1 24.71 34.08v123.55a35.67 35.67 0 0 1-24.71 34.08L597.61 633l-27.69 38.76h112.89A85.17 85.17 0 0 0 768 586.54V437.46c.43-46.85-37.91-85.19-85.19-85.19m-341.61 0h112.87L426.81 391l-82.21 25.16a35 35 0 0 0-24.71 34.08v123.52a35.67 35.67 0 0 0 24.71 34.08L426.81 633l27.26 38.76H341.19A85.44 85.44 0 0 1 256 586.54V437.46a85.44 85.44 0 0 1 85.19-85.19" style="fill:#fff"/>
</svg>
