<svg xmlns="http://www.w3.org/2000/svg" viewBox="0 0 1024 1024">
   <circle cx="512" cy="512" r="512" style="fill:#f90"/>
   <path d="M256.9 640.5c1.5-2.5 4-2.6 7.4-.5 77.6 45 162.1 67.6 253.3 67.6 60.9 0 121-11.4 180.3-34l6.7-3c2.9-1.3 5-2.1 6.3-2.8 4.8-1.9 8.3-1 11.2 2.8 2.6 3.7 1.9 7.2-2.6 10.2-5.5 4.1-12.8 8.8-21.5 14-26.5 15.9-56.3 28.1-89.3 36.8-32.7 8.7-65 13-96.4 13-48.3 0-94.1-8.5-137.3-25.3-43.1-16.9-81.5-40.8-115.9-71.5-2.1-1.6-3.2-3.2-3.2-4.7 0-1 .4-1.9 1.1-2.8l-.1.2zm140.2-132.7c0-21.4 5.3-39.8 15.9-55 10.6-15.2 25-26.7 43.5-34.5 17-7.1 37.5-12.3 62.1-15.4 8.3-1 22-2.2 41-3.7v-7.9c0-19.8-2.2-33.3-6.4-40-6.4-9.2-16.6-13.9-30.7-13.9h-3.9c-10.2 1-19.1 4.2-26.6 9.8-7.5 5.8-12.3 13.4-14.4 23.4-1.3 6.4-4.4 9.9-9.3 10.9l-53.8-6.7c-5.3-1.3-7.9-3.8-7.9-8.3 0-1 .1-1.9.5-3.2 5.3-27.5 18.2-48 38.8-61.5 20.8-13.1 44.8-20.8 72.4-22.4h11.5c35.2 0 63.1 9.3 83 27.5 2.9 3.2 5.8 6.4 8.6 10.2 2.6 3.5 4.8 6.7 6 9.6 1.6 2.9 3.2 7 4.2 12.2 1.3 5.4 2.2 9 2.9 10.9.6 2.2 1.3 6.4 1.6 13.1.2 6.7.4 10.5.4 11.8v112.7c0 8 1.3 15.4 3.5 22.1 2.2 6.7 4.5 11.5 6.7 14.4l10.9 14.4c1.9 2.9 2.9 5.5 2.9 7.7 0 2.6-1.3 4.8-3.8 6.7-25.6 22.4-39.7 34.6-41.9 36.5-3.5 2.9-8 3.2-13.4 1-4.2-3.5-8-7.1-11.2-10.6l-6.6-7.4c-1.3-1.6-3.5-4.5-6.8-9l-6.4-9.3c-17.3 18.9-34.2 30.7-51.2 35.5-10.5 3.2-23.3 4.8-39.1 4.8-23.7 0-43.5-7.3-58.9-22.1-15.4-14.7-23-35.5-23-62.7l-1.1-1.6zm80-9.4c0 12.1 3 21.8 9.1 29.1 6.1 7.3 14.4 10.9 24.7 10.9 1 0 2.3-.1 4.2-.4 1.9-.3 2.9-.5 3.5-.5 13.1-3.4 23-11.8 30.4-25.1 3.5-6 6.1-12.4 7.7-19.4 1.9-6.8 2.6-12.6 2.9-17.1.3-4.2.3-11.5.3-21.4V443c-17.9 0-31.7 1.3-41 3.8-27.2 7.7-41 25-41 51.9l-.7-.4v.1zm195.6 150c.6-1.3 1.6-2.3 2.8-3.6 7.7-5.2 15.2-8.8 22.4-10.7 11.7-2.8 23.3-4.7 34.4-5.1 3-.3 6 0 8.8.6 13.9 1.3 22.4 3.6 25 7 1.3 1.9 1.9 4.9 1.9 8.3v3.2c0 10.9-3 23.7-8.9 38.4s-14.2 26.6-24.7 35.9c-1.6 1.3-3 1.9-4.2 1.9-.6 0-1.3 0-1.9-.3-1.9-.9-2.3-2.6-1.4-5.1 11.5-26.9 17.2-45.7 17.2-56.3 0-3.2-.6-5.8-1.9-7.3-3.1-3.5-11.7-5.5-26.1-5.5-5.2 0-11.4.3-18.6 1-7.7 1-14.9 1.9-21.3 2.9-1.9 0-3.2-.3-3.8-.9-.6-.6-.8-1-.4-1.6 0-.4.1-.6.4-1.3v-1.3l.3-.2z" style="fill:#fff"/>
</svg>
