<?xml version="1.0" encoding="UTF-8" standalone="no"?>
<svg
   xmlns:dc="http://purl.org/dc/elements/1.1/"
   xmlns:cc="http://creativecommons.org/ns#"
   xmlns:rdf="http://www.w3.org/1999/02/22-rdf-syntax-ns#"
   xmlns:svg="http://www.w3.org/2000/svg"
   xmlns="http://www.w3.org/2000/svg"
   viewBox="0 0 1365.3333 1365.3333"
   height="1365.3333"
   width="1365.3333"
   xml:space="preserve"
   id="svg2"
   version="1.1"><metadata
     id="metadata8"><rdf:RDF><cc:Work
         rdf:about=""><dc:format>image/svg+xml</dc:format><dc:type
           rdf:resource="http://purl.org/dc/dcmitype/StillImage" /></cc:Work></rdf:RDF></metadata><defs
     id="defs6"><clipPath
       id="clipPath18"
       clipPathUnits="userSpaceOnUse"><path
         id="path16"
         d="M 0,1024 H 1024 V 0 H 0 Z" /></clipPath></defs><g
     transform="matrix(1.3333333,0,0,-1.3333333,0,1365.3333)"
     id="g10"><g
       id="g12"><g
         clip-path="url(#clipPath18)"
         id="g14"><g
           transform="translate(1024,512)"
           id="g20"><path
             id="path22"
             style="fill:#f78d11;fill-opacity:1;fill-rule:nonzero;stroke:none"
             d="m 0,0 c 0,-282.77 -229.23,-512 -512,-512 -282.77,0 -512,229.23 -512,512 0,282.77 229.23,512 512,512 C -229.23,512 0,282.77 0,0" /></g><g
           transform="translate(672.6855,375.6123)"
           id="g24"><path
             id="path26"
             style="fill:#ffffff;fill-opacity:1;fill-rule:nonzero;stroke:none"
             d="m 0,0 c 0.641,1.28 1.601,2.348 2.817,3.628 7.726,5.186 15.239,8.751 22.41,10.672 11.738,2.838 23.262,4.737 34.403,5.122 2.988,0.256 5.976,0 8.751,-0.641 13.872,-1.28 22.409,-3.585 25.013,-7.043 1.344,-1.921 1.92,-4.866 1.92,-8.323 V 0.214 c 0,-10.885 -2.988,-23.691 -8.857,-38.416 -5.933,-14.727 -14.171,-26.636 -24.671,-35.856 -1.558,-1.28 -2.988,-1.921 -4.205,-1.921 -0.64,0 -1.28,0 -1.921,0.257 -1.92,0.939 -2.283,2.561 -1.365,5.122 11.524,26.891 17.201,45.737 17.201,56.343 0,3.202 -0.64,5.763 -1.856,7.342 -3.095,3.543 -11.739,5.485 -26.123,5.485 -5.186,0 -11.375,-0.341 -18.568,-0.981 -7.747,-0.961 -14.939,-1.921 -21.343,-2.882 -1.919,0 -3.158,0.299 -3.84,0.939 -0.641,0.641 -0.769,1.003 -0.427,1.644 0,0.362 0.128,0.64 0.427,1.345 v 1.28 z m -195.538,149.972 c 0,-12.079 2.989,-21.769 9.071,-29.111 6.083,-7.257 14.406,-10.927 24.65,-10.927 0.961,0 2.262,0.149 4.162,0.427 1.921,0.341 2.86,0.491 3.543,0.491 13.104,3.415 23.05,11.802 30.391,25.141 3.522,5.976 6.082,12.379 7.683,19.421 1.921,6.83 2.561,12.592 2.882,17.074 0.32,4.162 0.32,11.525 0.32,21.449 v 11.525 c -17.928,0 -31.672,-1.281 -40.977,-3.842 -27.211,-7.683 -40.978,-24.97 -40.978,-51.861 l -0.747,0.427 z m -80.097,-9.348 c 0,21.449 5.272,39.761 15.858,54.999 10.564,15.153 24.97,26.678 43.538,34.468 16.988,7.149 37.477,12.271 62.148,15.366 8.323,0.982 22.047,2.198 40.978,3.714 v 7.896 c 0,19.849 -2.241,33.251 -6.404,40.017 -6.445,9.177 -16.646,13.873 -30.732,13.873 h -3.885 c -10.244,-0.982 -19.122,-4.184 -26.592,-9.818 -7.47,-5.763 -12.272,-13.446 -14.406,-23.391 -1.281,-6.403 -4.396,-9.924 -9.284,-10.885 l -53.782,6.723 c -5.293,1.281 -7.94,3.842 -7.94,8.324 0,0.982 0.15,1.921 0.47,3.201 5.272,27.532 18.248,48.02 38.843,61.466 20.83,13.147 44.819,20.808 72.35,22.409 h 11.525 c 35.215,0 63.109,-9.262 82.978,-27.531 2.881,-3.202 5.763,-6.403 8.644,-10.245 2.561,-3.521 4.781,-6.701 6.04,-9.604 1.6,-2.859 3.201,-7.043 4.162,-12.165 1.28,-5.421 2.24,-8.963 2.881,-10.884 0.641,-2.22 1.323,-6.403 1.622,-13.126 0.213,-6.68 0.427,-10.522 0.427,-11.802 V 160.942 c 0,-8.025 1.28,-15.366 3.521,-22.11 2.241,-6.681 4.482,-11.525 6.723,-14.386 l 10.885,-14.383 c 1.921,-2.904 2.902,-5.464 2.902,-7.684 0,-2.562 -1.28,-4.823 -3.842,-6.701 -25.61,-22.409 -39.696,-34.575 -41.894,-36.495 -3.522,-2.882 -8.003,-3.203 -13.446,-0.961 -4.162,3.543 -8.004,7.086 -11.226,10.586 l -6.616,7.405 c -1.281,1.58 -3.542,4.482 -6.765,8.964 l -6.403,9.284 c -17.288,-18.909 -34.211,-30.732 -51.221,-35.535 -10.544,-3.201 -23.328,-4.845 -39.057,-4.845 -23.69,0 -43.538,7.32 -58.905,22.068 -15.366,14.726 -23.049,35.536 -23.049,62.747 l -1.067,1.622 z M -415.747,7.918 c 1.537,2.476 3.992,2.646 7.428,0.47 77.6,-45.033 162.072,-67.57 253.332,-67.57 60.868,0 120.967,11.375 180.278,34.041 l 6.723,2.988 c 2.945,1.281 4.994,2.134 6.253,2.774 4.823,1.879 8.323,0.983 11.205,-2.774 2.56,-3.713 1.921,-7.171 -2.562,-10.244 -5.464,-4.055 -12.806,-8.75 -21.47,-13.958 -26.549,-15.857 -56.343,-28.086 -89.317,-36.836 -32.654,-8.665 -64.987,-13.02 -96.382,-13.02 -48.34,0 -94.119,8.452 -137.337,25.334 -43.111,16.945 -81.527,40.764 -115.888,71.496 -2.135,1.579 -3.202,3.201 -3.202,4.695 0,1.003 0.427,1.921 1.067,2.775 z" /></g></g></g></g></svg>