<?xml version="1.0" encoding="utf-8"?>
<!-- Generator: Adobe Illustrator 21.0.0, SVG Export Plug-In . SVG Version: 6.00 Build 0)  -->
<svg version="1.1" xmlns="http://www.w3.org/2000/svg" xmlns:xlink="http://www.w3.org/1999/xlink" x="0px" y="0px"
	 viewBox="0 0 1024 1024" style="enable-background:new 0 0 1024 1024;" xml:space="preserve">
<style type="text/css">
	.st0{fill:#3AE7E1;}
	.st1{fill:#FFFFFF;}
</style>
<g id="Guides">
</g>
<g id="Icon">
	<circle class="st0" cx="512" cy="512" r="512"/>
	<g id="XMLID_1_" transform="matrix(.15571 0 0 .15571 -8.0487 -6.2909)">
		<g id="XMLID_29_">
			<path id="XMLID_41_" class="st1" d="M1863.6,3231.3c-33.8,5.1-69.7-7.3-92.5-36.7c-33-42.6-25.7-103.5,16.9-137.2l271.6-212.1
				c42.6-33,103.5-25.7,137.2,16.9c33,42.6,25.7,103.5-16.9,137.2l-271.6,212.1C1895.1,3222.5,1879.7,3229.1,1863.6,3231.3z"/>
		</g>
		<g id="XMLID_30_">
			<path id="XMLID_40_" class="st1" d="M1600.1,3438.3c-33.8,5.1-69.7-7.3-92.5-36c-33-42.6-25.7-103.5,16.9-137.2l25.7-19.8
				c42.6-33,103.5-25.7,137.2,16.9c33,42.6,25.7,103.5-16.9,137.2l-25.7,19.8C1631.6,3429.5,1616.2,3436.1,1600.1,3438.3z"/>
		</g>
		<g id="XMLID_31_">
			<path id="XMLID_39_" class="st1" d="M1564.8,3995.4c-33.8,5.1-69.7-7.3-92.5-36.7c-33-42.6-25.7-103.5,16.9-137.2l596-465.3
				c42.6-33,104.2-25.7,137.2,16.9c33,42.6,25.7,103.5-16.9,137.2l-596,466.1C1595.7,3986.5,1580.3,3993.2,1564.8,3995.4z"/>
		</g>
		<g id="XMLID_34_">
			<path id="XMLID_38_" class="st1" d="M2414,3334.8c-33.8,5.1-69.7-7.3-92.5-36.7c-33-42.6-25.7-103.5,16.9-137.2l94.7-74.1
				c42.6-33,103.5-25.7,137.2,16.9c33,42.6,25.7,103.5-16.9,137.2l-94.7,74.1C2444.8,3325.3,2429.4,3331.9,2414,3334.8z"/>
		</g>
		<g id="XMLID_32_">
			<path id="XMLID_37_" class="st1" d="M2361.9,3903.6c-33.8,5.1-69.7-7.3-92.5-36.7c-33-42.6-25.7-103.5,16.9-137.2l488.8-381.7
				c42.6-33,104.2-25.7,137.2,16.9c33,42.6,25.7,103.5-16.9,137.2l-488.8,381.7C2393.5,3894.8,2378.1,3901.4,2361.9,3903.6z"/>
		</g>
		<path id="XMLID_36_" class="st1" d="M2094.7,4115.7c-33.8,5.1-69.7-7.3-92.5-36.7c-33-42.6-25.7-104.2,16.9-137.2l34.5-27.2
			c42.6-33,104.2-25.7,137.2,16.9c33,42.6,25.7,104.2-16.9,137.2l-34.5,27.2C2125.6,4106.9,2110.2,4113.5,2094.7,4115.7z"/>
		<path id="XMLID_44_" class="st1" d="M4558.6,2210.4H2292.2c-84.4,0-162.9,52.1-187.9,132.8c-11.7,37.4-11,75.6,0,110.1
			c11,35.2,33,67.5,63.9,91.7c0,0,868.3,674.5,1081.1,821.3c76.3,49.2,150.5,32.3,194.5-1.5l1101.7-857.2v1481.8
			c0,144.6-117.4,262-262,262H2201.2c-53.6,0-96.9,43.3-96.9,96.9c0,54.3,44,98.3,98.3,98.3h2080c252.5,0,457.2-204.8,457.2-457.2
			V2391.7C4740.6,2291.9,4659.2,2210.4,4558.6,2210.4z M2990.9,3018.5l0.7-5.1l2.9,4.4L2990.9,3018.5z M3345.4,3194.6l-1009.2-789
			h2022L3345.4,3194.6z"/>
	</g>
</g>
</svg>
