<svg xmlns="http://www.w3.org/2000/svg" viewBox="0 0 1024 1024">
   <style>
      .st1{fill:#fff}
   </style>
   <g id="Icon">
      <circle cx="512" cy="512" r="512" style="fill:#3ae7e1"/>
      <g id="XMLID_1_" transform="translate(-8.049 -6.29) scale(.15571)">
         <g id="XMLID_29_">
            <path id="XMLID_41_" class="st1" d="M1863.6 3231.3c-33.8 5.1-69.7-7.3-92.5-36.7-33-42.6-25.7-103.5 16.9-137.2l271.6-212.1c42.6-33 103.5-25.7 137.2 16.9 33 42.6 25.7 103.5-16.9 137.2l-271.6 212.1c-13.2 11-28.6 17.6-44.7 19.8z"/>
         </g>
         <g id="XMLID_30_">
            <path id="XMLID_40_" class="st1" d="M1600.1 3438.3c-33.8 5.1-69.7-7.3-92.5-36-33-42.6-25.7-103.5 16.9-137.2l25.7-19.8c42.6-33 103.5-25.7 137.2 16.9 33 42.6 25.7 103.5-16.9 137.2l-25.7 19.8c-13.2 10.3-28.6 16.9-44.7 19.1z"/>
         </g>
         <g id="XMLID_31_">
            <path id="XMLID_39_" class="st1" d="M1564.8 3995.4c-33.8 5.1-69.7-7.3-92.5-36.7-33-42.6-25.7-103.5 16.9-137.2l596-465.3c42.6-33 104.2-25.7 137.2 16.9 33 42.6 25.7 103.5-16.9 137.2l-596 466.1c-13.8 10.1-29.2 16.8-44.7 19z"/>
         </g>
         <g id="XMLID_34_">
            <path id="XMLID_38_" class="st1" d="M2414 3334.8c-33.8 5.1-69.7-7.3-92.5-36.7-33-42.6-25.7-103.5 16.9-137.2l94.7-74.1c42.6-33 103.5-25.7 137.2 16.9 33 42.6 25.7 103.5-16.9 137.2l-94.7 74.1c-13.9 10.3-29.3 16.9-44.7 19.8z"/>
         </g>
         <g id="XMLID_32_">
            <path id="XMLID_37_" class="st1" d="M2361.9 3903.6c-33.8 5.1-69.7-7.3-92.5-36.7-33-42.6-25.7-103.5 16.9-137.2l488.8-381.7c42.6-33 104.2-25.7 137.2 16.9 33 42.6 25.7 103.5-16.9 137.2l-488.8 381.7c-13.1 11-28.5 17.6-44.7 19.8z"/>
         </g>
         <path id="XMLID_36_" class="st1" d="M2094.7 4115.7c-33.8 5.1-69.7-7.3-92.5-36.7-33-42.6-25.7-104.2 16.9-137.2l34.5-27.2c42.6-33 104.2-25.7 137.2 16.9 33 42.6 25.7 104.2-16.9 137.2l-34.5 27.2c-13.8 11-29.2 17.6-44.7 19.8z"/>
         <path id="XMLID_44_" class="st1" d="M4558.6 2210.4H2292.2c-84.4 0-162.9 52.1-187.9 132.8-11.7 37.4-11 75.6 0 110.1 11 35.2 33 67.5 63.9 91.7 0 0 868.3 674.5 1081.1 821.3 76.3 49.2 150.5 32.3 194.5-1.5l1101.7-857.2v1481.8c0 144.6-117.4 262-262 262H2201.2c-53.6 0-96.9 43.3-96.9 96.9 0 54.3 44 98.3 98.3 98.3h2080c252.5 0 457.2-204.8 457.2-457.2V2391.7c.8-99.8-80.6-181.3-181.2-181.3zm-1567.7 808.1.7-5.1 2.9 4.4-3.6.7zm354.5 176.1-1009.2-789h2022l-1012.8 789z"/>
      </g>
   </g>
</svg>
