<?xml version="1.0" encoding="utf-8"?>
<!-- Generator: Adobe Illustrator 21.0.0, SVG Export Plug-In . SVG Version: 6.00 Build 0)  -->
<svg version="1.1" xmlns="http://www.w3.org/2000/svg" xmlns:xlink="http://www.w3.org/1999/xlink" x="0px" y="0px"
	 viewBox="0 0 1024 1024" style="enable-background:new 0 0 1024 1024;" xml:space="preserve">
<style type="text/css">
	.st0{fill:#DD3303;}
	.st1{fill:#FFFFFF;}
</style>
<g id="Min_Guides__x28_DO_NOT_REMOVE_x29_">
</g>
<g id="Max_Guides__x28_DO_NOT_REMOVE_x29_">
</g>
<g id="Icon">
	<circle id="Background" class="st0" cx="512" cy="512" r="512"/>
	<path class="st1" d="M310.7,551.2c0,8.1,0,20.5-15,20.5c-9.1,0-12.9-5-15-13.3c-8.1,9.6-17.8,14.6-29.8,14.6
		c-29.4,0-51.8-25-51.8-60.3c0-34.4,23.1-60.8,51.8-60.8c11.5,0,22.9,4.6,29.8,14.4c0.9-7.6,7.4-13.1,15-13.1c15,0,15,12.4,15,20.5
		C310.7,473.7,310.7,551.2,310.7,551.2z M255.2,544.2c16.3,0,24.2-16.6,24.2-31.6c0-15-7.6-32-24.2-32c-17.2,0-24.8,17-24.8,32
		C230.4,527.7,238.2,544.2,255.2,544.2z M319.6,470.6c0-10.5,6.5-17.4,15.7-17.4c8.7,0,13.7,4.8,15.7,13.1
		c5.9-9.6,18.1-14.4,29.8-14.4c33.7,0,50.5,31.6,50.5,62c0,29.6-20,59-51.6,59c-9.8,0-20.5-3.7-28.8-10.9v38.3
		c0,10.5-6.5,17.4-15.7,17.4c-9.1,0-15.7-7-15.7-17.4L319.6,470.6L319.6,470.6z M375.5,544.2c16.3,0,24.4-17,24.4-31.6
		c0-14.8-8.1-32-24.4-32c-16.8,0-24.6,15.7-24.6,30.9C350.9,526.8,358.3,544.2,375.5,544.2z M471.9,423.4c0,9.8-7.8,18.1-17.6,18.1
		c-9.4,0-17.6-8.5-17.6-18.1c0-8.9,8.3-17.2,17.6-17.2C463.7,406.2,471.9,414.2,471.9,423.4z M438.7,470.6
		c0-10.5,6.5-17.4,15.7-17.4c9.1,0,15.7,7,15.7,17.4v83.6c0,10.5-6.5,17.4-15.7,17.4c-9.1,0-15.7-7-15.7-17.4V470.6z M589.1,561.2
		c0,37.7-24.6,56.6-60.3,56.6c-12.9,0-49.4-6.3-49.4-23.5c0-5.9,6.5-13.7,12.6-13.7c10,0,21.1,9.8,39.2,9.8
		c15.2,0,26.6-8.9,26.6-24.8v-7.4h-0.5c-6.5,9.6-17.2,14.8-31.6,14.8c-32.9,0-48.3-29-48.3-60.1c0-31.6,20-61,51.6-61
		c10.7,0,22.9,4.8,28.8,14.4c2-8.3,7-13.1,15.7-13.1c9.1,0,15.7,7,15.7,17.4L589.1,561.2L589.1,561.2z M533.1,480.6
		c-16.3,0-24.4,17-24.4,31.6c0,16.8,8.1,32,24.4,32c16.8,0,24.6-15.7,24.6-30.9C557.8,498.1,550.3,480.6,533.1,480.6z M626.8,522.9
		c2.2,15.5,15,22.7,29.6,22.7c16.1,0,27.2-12.6,35.5-12.6c6.8,0,12.9,6.8,12.9,13.5c0,13.5-27.9,26.6-51.2,26.6
		c-35.3,0-58.8-25.7-58.8-60.3c0-31.8,23.1-60.8,56.2-60.8c34,0,56.4,30.9,56.4,57.1c0,9.4-4.1,13.9-13.7,13.9L626.8,522.9
		L626.8,522.9z M676,502c-1.7-13.7-10.5-23.9-25-23.9c-13.9,0-23.3,10.7-24.8,23.9H676z M744.4,523.3c2.2,15.5,15,22.7,29.6,22.7
		c16.1,0,27.2-12.6,35.5-12.6c6.8,0,12.9,6.8,12.9,13.5c0,13.5-27.9,26.6-51.2,26.6c-35.3,0-58.8-25.7-58.8-60.3
		c0-31.8,23.1-60.8,56.2-60.8c34,0,56.4,30.9,56.4,57.1c0,9.4-4.1,13.9-13.7,13.9L744.4,523.3L744.4,523.3z M793.6,502.4
		c-1.7-13.7-10.5-23.9-25-23.9c-13.9,0-23.3,10.7-24.8,23.9H793.6z"/>
</g>
</svg>
