<svg xmlns="http://www.w3.org/2000/svg" viewBox="0 0 1024 1024" style="enable-background:new 0 0 1024 1024" xml:space="preserve">
   <circle cx="512" cy="512" r="512" style="fill:#dd3303"/>
   <path d="M310.7 551.2c0 8.1 0 20.5-15 20.5-9.1 0-12.9-5-15-13.3-8.1 9.6-17.8 14.6-29.8 14.6-29.4 0-51.8-25-51.8-60.3 0-34.4 23.1-60.8 51.8-60.8 11.5 0 22.9 4.6 29.8 14.4.9-7.6 7.4-13.1 15-13.1 15 0 15 12.4 15 20.5v77.5zm-55.5-7c16.3 0 24.2-16.6 24.2-31.6s-7.6-32-24.2-32c-17.2 0-24.8 17-24.8 32 0 15.1 7.8 31.6 24.8 31.6zm64.4-73.6c0-10.5 6.5-17.4 15.7-17.4 8.7 0 13.7 4.8 15.7 13.1 5.9-9.6 18.1-14.4 29.8-14.4 33.7 0 50.5 31.6 50.5 62 0 29.6-20 59-51.6 59-9.8 0-20.5-3.7-28.8-10.9v38.3c0 10.5-6.5 17.4-15.7 17.4-9.1 0-15.7-7-15.7-17.4l.1-129.7zm55.9 73.6c16.3 0 24.4-17 24.4-31.6 0-14.8-8.1-32-24.4-32-16.8 0-24.6 15.7-24.6 30.9 0 15.3 7.4 32.7 24.6 32.7zm96.4-120.8c0 9.8-7.8 18.1-17.6 18.1-9.4 0-17.6-8.5-17.6-18.1 0-8.9 8.3-17.2 17.6-17.2 9.4 0 17.6 8 17.6 17.2zm-33.2 47.2c0-10.5 6.5-17.4 15.7-17.4 9.1 0 15.7 7 15.7 17.4v83.6c0 10.5-6.5 17.4-15.7 17.4-9.1 0-15.7-7-15.7-17.4v-83.6zm150.4 90.6c0 37.7-24.6 56.6-60.3 56.6-12.9 0-49.4-6.3-49.4-23.5 0-5.9 6.5-13.7 12.6-13.7 10 0 21.1 9.8 39.2 9.8 15.2 0 26.6-8.9 26.6-24.8v-7.4h-.5c-6.5 9.6-17.2 14.8-31.6 14.8-32.9 0-48.3-29-48.3-60.1 0-31.6 20-61 51.6-61 10.7 0 22.9 4.8 28.8 14.4 2-8.3 7-13.1 15.7-13.1 9.1 0 15.7 7 15.7 17.4l-.1 90.6zm-56-80.6c-16.3 0-24.4 17-24.4 31.6 0 16.8 8.1 32 24.4 32 16.8 0 24.6-15.7 24.6-30.9.1-15.2-7.4-32.7-24.6-32.7zm93.7 42.3c2.2 15.5 15 22.7 29.6 22.7 16.1 0 27.2-12.6 35.5-12.6 6.8 0 12.9 6.8 12.9 13.5 0 13.5-27.9 26.6-51.2 26.6-35.3 0-58.8-25.7-58.8-60.3 0-31.8 23.1-60.8 56.2-60.8 34 0 56.4 30.9 56.4 57.1 0 9.4-4.1 13.9-13.7 13.9l-66.9-.1zM676 502c-1.7-13.7-10.5-23.9-25-23.9-13.9 0-23.3 10.7-24.8 23.9H676zm68.4 21.3c2.2 15.5 15 22.7 29.6 22.7 16.1 0 27.2-12.6 35.5-12.6 6.8 0 12.9 6.8 12.9 13.5 0 13.5-27.9 26.6-51.2 26.6-35.3 0-58.8-25.7-58.8-60.3 0-31.8 23.1-60.8 56.2-60.8 34 0 56.4 30.9 56.4 57.1 0 9.4-4.1 13.9-13.7 13.9l-66.9-.1zm49.2-20.9c-1.7-13.7-10.5-23.9-25-23.9-13.9 0-23.3 10.7-24.8 23.9h49.8z" style="fill:#fff"/>
</svg>
