<?xml version="1.0" encoding="utf-8"?>
<!-- Generator: Adobe Illustrator 21.0.0, SVG Export Plug-In . SVG Version: 6.00 Build 0)  -->
<svg version="1.1" xmlns="http://www.w3.org/2000/svg" xmlns:xlink="http://www.w3.org/1999/xlink" x="0px" y="0px"
	 viewBox="0 0 1024 1024" style="enable-background:new 0 0 1024 1024;" xml:space="preserve">
<style type="text/css">
	.st0{fill:#00AED3;}
	.st1{fill:#FFFFFF;}
</style>
<g id="Guides">
</g>
<g id="Icon">
	<circle class="st0" cx="512" cy="512" r="512"/>
	<g id="APM_Logo_2018_White">
		<path class="st1" d="M594,501.8c-21.8,4.3-53.7,9.5-73,12.8c-68.2,10.4-124.6,23.2-124.6,78.7c0,48.8,56.3,74.8,104.5,74.8
			c41.9,0,129-24.7,129-119.2v-65.1h-1.6C619.1,493.5,607.1,499.9,594,501.8z"/>
		<path class="st1" d="M511.5,256C370.1,256.3,255.7,371.1,256,512.5c0.3,141.4,115.1,255.8,256.5,255.5
			C653.7,767.7,768,653.2,768,512c0.1-141.3-114.5-255.9-255.8-256C512,256,511.7,256,511.5,256z M664.3,609.1
			c-15.5,43.1-49.4,77-92.4,92.6c-25,9.1-51.7,12.9-78.3,11.1c-58.9-1.5-141.7-38.9-141.7-105.2c0-33.1,9.5-96.5,140.1-111.8
			c94.4-11.1,113.2-11,126.7-22.2c10.3-9.3,16-22.8,15.4-36.7c1.3-18.8-4.2-37.3-15.4-52.4c-18.5-22.9-51.3-30-89.6-30
			c-81.8,0-104.5,39.8-113.2,81.3c-1.3,10.7-11,18.3-21.8,17.1c-11.6,0.6-21.7-8-23.1-19.6c2.5-24.8,16.1-120.8,164.4-120.8
			c41.1,0,136.4,13.3,136.4,126.4C671.7,490.6,676.5,576.2,664.3,609.1z"/>
	</g>
</g>
</svg>
