<?xml version="1.0" encoding="utf-8"?>
<!-- Generator: Adobe Illustrator 21.0.0, SVG Export Plug-In . SVG Version: 6.00 Build 0)  -->
<svg version="1.1" xmlns="http://www.w3.org/2000/svg" xmlns:xlink="http://www.w3.org/1999/xlink" x="0px" y="0px"
	 viewBox="0 0 1024 1024" style="enable-background:new 0 0 1024 1024;" xml:space="preserve">
<style type="text/css">
	.st0{fill:#00AED3;}
	.st1{fill:#FFFFFF;}
</style>
<g id="Guides">
</g>
<g id="Icon">
	<circle class="st0" cx="512" cy="512" r="512"/>
	<g id="APM_Logo_2018_White">
		<path class="st1" d="M251.4,509.1c-6,1.2-14.7,2.6-20,3.5c-18.7,2.9-34.2,6.4-34.2,21.6c0,13.4,15.4,20.5,28.6,20.5
			c11.5,0,35.4-6.8,35.4-32.7v-17.8h-0.4C258.3,506.8,255,508.6,251.4,509.1z"/>
		<path class="st1" d="M228.8,441.7c-38.7,0.1-70.1,31.5-70,70.3c0.1,38.7,31.5,70.1,70.3,70c38.7-0.1,70-31.5,70-70.2
			c0-38.7-31.4-70.1-70.1-70.2C228.9,441.7,228.9,441.7,228.8,441.7z M270.7,538.5c-4.2,11.8-13.5,21.1-25.3,25.4
			c-6.9,2.5-14.2,3.5-21.5,3c-16.1-0.4-38.8-10.7-38.8-28.8c0-9.1,2.6-26.5,38.4-30.6c25.9-3,31-3,34.7-6.1c2.8-2.6,4.4-6.2,4.2-10
			c0.3-5.1-1.2-10.2-4.2-14.4c-5.1-6.3-14.1-8.2-24.5-8.2c-22.4,0-28.6,10.9-31,22.3c-0.4,2.9-3,5-6,4.7c-3.2,0.2-6-2.2-6.3-5.4
			c0.7-6.8,4.4-33.1,45.1-33.1c11.3,0,37.4,3.6,37.4,34.7C272.7,506,274,529.5,270.7,538.5z"/>
		<path class="st1" d="M308,468c0-3.7,3-6.6,6.6-6.6l0,0h4.3c4.4,0,6.6,2.2,6.6,5.6v11.9h0.4c0,0,8.7-19.4,34.2-19.4
			c27.3,0,44.6,21.7,44.6,53.3c0,32.4-19.5,53.3-46.1,53.3c-23.1,0-31.6-18.2-31.6-18.8h-0.4c0,0.8,0.7,9.6,0.7,9.6V597
			c0.5,3.2-1.7,6.2-4.9,6.6c-0.5,0.1-1,0.1-1.6,0h-6.4c-3.7,0-6.6-3-6.6-6.6v0V468z M355.7,549.1c16.1,0,29.4-13,29.4-36.2
			c0-22.1-11.9-36.4-28.8-36.4c-15.3,0-29.4,10.6-29.4,36.6C327,531.2,337.1,549.1,355.7,549.1z"/>
		<path class="st1" d="M415.2,468c0-3.7,3-6.6,6.6-6.6l0,0h4.3c4.4,0,6.6,2.2,6.6,5.6v6.5l-0.2,5.4h0.4c0,0,8.6-19.4,34.1-19.4
			c27.3,0,44.6,21.7,44.6,53.3c0,32.4-19.5,53.3-46.1,53.3c-23.1,0-31.6-18.2-31.6-18.8h-0.4c0,0.8,1,9.6,1,9.6V597
			c0.5,3.2-1.7,6.2-4.9,6.6c-0.5,0.1-1,0.1-1.6,0h-6.4c-3.7,0-6.6-3-6.6-6.6v0L415.2,468z M462.7,549.1c16.1,0,29.4-13,29.4-36.2
			c0-22.1-11.9-36.4-28.6-36.4c-15.3,0-29.4,10.6-29.4,36.6C434,531.2,444,549.1,462.7,549.1z"/>
		<path class="st1" d="M526.3,478.9h-7c-3.7,0-6.6-3-6.6-6.6l0,0v-2.4c0-3.7,3-6.6,6.6-6.6h7v-4.9c0-32.8,27.5-38,38.5-38h-0.4
			c3.3-0.5,6.4,1.8,6.8,5.2c0.1,0.5,0.1,1,0,1.5v3.8c0,4.4-2.6,6.2-7.3,6.6c-7.8,0.4-20,2.2-20,21.1v4.7h18.7c3.7,0,6.6,3,6.6,6.6
			v2.3c0,3.7-3,6.6-6.6,6.6l0,0h-16.7V558c0,3.6-2.9,6.6-6.5,6.7h-6.2c-3.3,0.5-6.3-1.8-6.8-5c-0.1-0.6-0.1-1.1,0-1.7V478.9z"/>
		<path class="st1" d="M619.6,459.4c30.4,0,54.9,22.3,54.9,53.1S649.9,566,619.6,566s-54.7-22.5-54.7-53.5S589.2,459.4,619.6,459.4z
			 M619.6,549.1c19.3,0,35-15.3,35-36.4s-15.6-36.2-35-36.2s-35,15.1-35,36.2S600.5,549.1,619.6,549.1L619.6,549.1z"/>
		<path class="st1" d="M684.3,429c0-3.7,3-6.6,6.6-6.6c0,0,0,0,0,0h6.6c3.2-0.3,6,2.1,6.3,5.2c0,0.5,0,0.9,0,1.4v105.2
			c0,11.5,4.7,13,8.7,13.5c2.9,0.1,5.1,2.6,5,5.4c0,0.1,0,0.3,0,0.4v4.9c0,4.2-1.8,6.8-6.7,6.8c-10.6,0-26.5-3-26.5-28.6V429z"/>
		<path class="st1" d="M727.2,467.9c-0.4-3.3,1.9-6.2,5.2-6.6c0.5-0.1,1-0.1,1.5,0h6.2c3.7,0,6.6,3,6.6,6.6c0,0,0,0,0,0v88.1
			c0,3.7-3,6.6-6.6,6.6l0,0h-6.2c-3.3,0.4-6.2-1.9-6.6-5.1c-0.1-0.5-0.1-1,0-1.5V467.9z"/>
		<path class="st1" d="M810.3,459.4c30.4,0,54.9,22.3,54.9,53.1S840.7,566,810.3,566s-54.7-22.5-54.7-53.5S780,459.4,810.3,459.4z
			 M810.3,549.1c19.3,0,35-15.3,35-36.4s-15.6-36.2-35-36.2s-35,15.1-35,36.2S791.2,549.1,810.3,549.1L810.3,549.1z"/>
	</g>
</g>
</svg>
