<svg xmlns="http://www.w3.org/2000/svg" viewBox="0 0 1024 1024" style="enable-background:new 0 0 1024 1024" xml:space="preserve">
   <style>
      .st1{fill:#fff}
   </style>
   <g id="Icon">
      <circle cx="512" cy="512" r="512" style="fill:#00aed3"/>
      <g id="APM_Logo_2018_White">
         <path class="st1" d="M594 501.8c-21.8 4.3-53.7 9.5-73 12.8-68.2 10.4-124.6 23.2-124.6 78.7 0 48.8 56.3 74.8 104.5 74.8 41.9 0 129-24.7 129-119.2v-65.1h-1.6c-9.2 9.7-21.2 16.1-34.3 18z"/>
         <path class="st1" d="M511.5 256c-141.4.3-255.8 115.1-255.5 256.5.3 141.4 115.1 255.8 256.5 255.5C653.7 767.7 768 653.2 768 512c.1-141.3-114.5-255.9-255.8-256h-.7zm152.8 353.1c-15.5 43.1-49.4 77-92.4 92.6-25 9.1-51.7 12.9-78.3 11.1-58.9-1.5-141.7-38.9-141.7-105.2 0-33.1 9.5-96.5 140.1-111.8 94.4-11.1 113.2-11 126.7-22.2 10.3-9.3 16-22.8 15.4-36.7 1.3-18.8-4.2-37.3-15.4-52.4-18.5-22.9-51.3-30-89.6-30-81.8 0-104.5 39.8-113.2 81.3-1.3 10.7-11 18.3-21.8 17.1-11.6.6-21.7-8-23.1-19.6 2.5-24.8 16.1-120.8 164.4-120.8 41.1 0 136.4 13.3 136.4 126.4-.1 51.7 4.7 137.3-7.5 170.2z"/>
      </g>
   </g>
</svg>
