<?xml version="1.0" encoding="UTF-8" standalone="no"?>
<svg
   xmlns:dc="http://purl.org/dc/elements/1.1/"
   xmlns:cc="http://creativecommons.org/ns#"
   xmlns:rdf="http://www.w3.org/1999/02/22-rdf-syntax-ns#"
   xmlns:svg="http://www.w3.org/2000/svg"
   xmlns="http://www.w3.org/2000/svg"
   viewBox="0 0 1365.3333 1365.3333"
   height="1365.3333"
   width="1365.3333"
   xml:space="preserve"
   id="svg2"
   version="1.1"><metadata
     id="metadata8"><rdf:RDF><cc:Work
         rdf:about=""><dc:format>image/svg+xml</dc:format><dc:type
           rdf:resource="http://purl.org/dc/dcmitype/StillImage" /></cc:Work></rdf:RDF></metadata><defs
     id="defs6"><clipPath
       id="clipPath18"
       clipPathUnits="userSpaceOnUse"><path
         id="path16"
         d="M 0,1024 H 1024 V 0 H 0 Z" /></clipPath></defs><g
     transform="matrix(1.3333333,0,0,-1.3333333,0,1365.3333)"
     id="g10"><g
       id="g12"><g
         clip-path="url(#clipPath18)"
         id="g14"><g
           transform="translate(1024,512)"
           id="g20"><path
             id="path22"
             style="fill:#959595;fill-opacity:1;fill-rule:nonzero;stroke:none"
             d="m 0,0 c 0,-282.77 -229.23,-512 -512,-512 -282.77,0 -512,229.23 -512,512 0,282.77 229.23,512 512,512 C -229.23,512 0,282.77 0,0" /></g><g
           transform="translate(553.3408,695.4551)"
           id="g24"><path
             id="path26"
             style="fill:#ffffff;fill-opacity:1;fill-rule:nonzero;stroke:none"
             d="m 0,0 c -14.498,-7.249 -28.271,-10.319 -42.066,-9.296 -2.132,13.774 0,27.931 5.756,43.431 5.118,13.219 11.941,25.158 21.322,35.819 9.807,11.087 21.534,20.255 34.753,26.864 14.072,7.249 27.504,11.087 40.297,11.727 1.705,-14.498 0,-28.783 -5.331,-44.134 C 49.87,50.765 42.621,38.186 33.41,26.886 24.136,15.799 12.622,6.631 -0.404,0.021 Z m -146.133,-393.583 c -10.085,6.737 -19.04,14.988 -26.523,24.519 -8.166,9.871 -15.735,20.254 -22.686,31.001 -16.331,23.878 -29.103,49.997 -37.951,77.522 -10.66,32.023 -15.841,62.684 -15.841,92.682 0,33.474 7.249,62.683 21.363,87.202 10.447,19.189 26.012,35.244 44.774,46.523 18.123,11.3 39.23,17.483 60.552,17.909 7.462,0 15.564,-1.066 24.092,-3.198 6.183,-1.706 13.645,-4.477 22.813,-7.889 11.727,-4.477 18.123,-7.249 20.255,-7.889 6.823,-2.558 12.579,-3.624 17.057,-3.624 3.412,0 8.315,1.066 13.752,2.772 3.091,1.066 8.955,2.985 17.27,6.609 8.229,2.985 14.754,5.544 19.935,7.463 7.889,2.345 15.522,4.477 22.387,5.543 8.315,1.279 16.567,1.706 24.476,1.066 15.138,-1.066 28.997,-4.264 41.363,-8.955 21.747,-8.741 39.294,-22.387 52.385,-41.789 -5.543,-3.411 -10.66,-7.377 -15.457,-11.726 -10.384,-9.168 -19.19,-20.042 -26.225,-32.088 -9.168,-16.417 -13.858,-34.966 -13.73,-53.729 0.319,-23.09 6.182,-43.388 17.909,-60.978 8.251,-12.793 19.274,-23.751 32.706,-32.749 6.609,-4.477 12.409,-7.568 17.91,-9.594 -2.558,-7.996 -5.373,-15.778 -8.636,-23.453 -7.398,-17.206 -16.203,-33.687 -26.65,-49.252 -9.211,-13.431 -16.46,-23.453 -21.961,-30.062 -8.571,-10.233 -16.844,-17.909 -25.158,-23.389 -9.169,-6.076 -19.936,-9.296 -30.958,-9.296 -7.463,-0.32 -14.925,0.64 -22.046,2.708 -6.184,2.026 -12.281,4.307 -18.251,6.887 -6.247,2.857 -12.707,5.287 -19.296,7.249 -8.101,2.132 -16.417,3.155 -24.817,3.134 -8.529,0 -16.844,-1.066 -24.732,-3.092 -6.61,-1.876 -13.006,-4.179 -19.338,-6.929 -8.955,-3.731 -14.818,-6.183 -18.23,-7.249 -6.908,-2.047 -13.986,-3.284 -21.107,-3.731 -11.087,0 -21.406,3.198 -31.683,9.595 z" /></g></g></g></g></svg>