<?xml version="1.0" encoding="utf-8"?>
<!-- Generator: Adobe Illustrator 21.0.0, SVG Export Plug-In . SVG Version: 6.00 Build 0)  -->
<svg version="1.1" xmlns="http://www.w3.org/2000/svg" xmlns:xlink="http://www.w3.org/1999/xlink" x="0px" y="0px"
	 viewBox="0 0 1024 1024" style="enable-background:new 0 0 1024 1024;" xml:space="preserve">
<style type="text/css">
	.st0{display:none;}
	.st1{fill:#999999;}
	.st2{fill:#FFFFFF;}
</style>
<g id="Guides" class="st0">
</g>
<g id="Icon">
	<circle class="st1" cx="512" cy="512" r="512"/>
	<path class="st2" d="M407.2,722.1c-10.1-6.7-19-15-26.5-24.5c-8.2-9.9-15.7-20.3-22.7-31c-16.3-23.9-29.1-50-38-77.5
		c-10.7-32-15.8-62.7-15.8-92.7c0-33.5,7.2-62.7,21.4-87.2c10.4-19.2,26-35.2,44.8-46.5c18.1-11.3,39.2-17.5,60.6-17.9
		c7.5,0,15.6,1.1,24.1,3.2c6.2,1.7,13.6,4.5,22.8,7.9c11.7,4.5,18.1,7.2,20.3,7.9c6.8,2.6,12.6,3.6,17.1,3.6c3.4,0,8.3-1.1,13.8-2.8
		c3.1-1.1,9-3,17.3-6.6c8.2-3,14.8-5.5,19.9-7.5c7.9-2.3,15.5-4.5,22.4-5.5c8.3-1.3,16.6-1.7,24.5-1.1c15.1,1.1,29,4.3,41.4,9
		c21.7,8.7,39.3,22.4,52.4,41.8c-5.5,3.4-10.7,7.4-15.5,11.7c-10.4,9.2-19.2,20-26.2,32.1c-9.2,16.4-13.9,35-13.7,53.7
		c0.3,23.1,6.2,43.4,17.9,61c8.3,12.8,19.3,23.8,32.7,32.7c6.6,4.5,12.4,7.6,17.9,9.6c-2.6,8-5.4,15.8-8.6,23.5
		c-7.4,17.2-16.2,33.7-26.7,49.3c-9.2,13.4-16.5,23.5-22,30.1c-8.6,10.2-16.8,17.9-25.2,23.4c-9.2,6.1-19.9,9.3-31,9.3
		c-7.5,0.3-14.9-0.6-22-2.7c-6.2-2-12.3-4.3-18.3-6.9c-6.2-2.9-12.7-5.3-19.3-7.2c-8.1-2.1-16.4-3.2-24.8-3.1
		c-8.5,0-16.8,1.1-24.7,3.1c-6.6,1.9-13,4.2-19.3,6.9c-9,3.7-14.8,6.2-18.2,7.2c-6.9,2-14,3.3-21.1,3.7c-11.1,0-21.4-3.2-31.7-9.6
		L407.2,722.1z M553.3,328.5c-14.5,7.2-28.3,10.3-42.1,9.3c-2.1-13.8,0-27.9,5.8-43.4c5.1-13.2,11.9-25.2,21.3-35.8
		c9.8-11.1,21.5-20.3,34.8-26.9c14.1-7.2,27.5-11.1,40.3-11.7c1.7,14.5,0,28.8-5.3,44.1c-4.9,13.6-12.1,26.2-21.3,37.5
		c-9.3,11.1-20.8,20.3-33.8,26.9L553.3,328.5z"/>
</g>
</svg>
