<?xml version="1.0" encoding="utf-8"?>
<!-- Generator: Adobe Illustrator 21.0.0, SVG Export Plug-In . SVG Version: 6.00 Build 0)  -->
<svg version="1.1" xmlns="http://www.w3.org/2000/svg" xmlns:xlink="http://www.w3.org/1999/xlink" x="0px" y="0px"
	 viewBox="0 0 1024 1024" style="enable-background:new 0 0 1024 1024;" xml:space="preserve">
<style type="text/css">
	.st0{fill:#FE0000;}
	.st1{fill:#FFFFFF;}
</style>
<g id="Guides">
</g>
<g id="Icon">
	<circle class="st0" cx="512" cy="512" r="512"/>
	<g>
		<title>ArenaNet</title>
		<path id="arena" class="st1" d="M200.1,508.4v-35.9c21.2-8.9,42.9-16.8,65-24v13.9c17.4-5.6,35-10.7,53-15.2v-13.5
			c18.8-4.6,37.9-8.6,57.2-11.9v13.4c17.5-3,35.1-5.5,53-7.3v-13.2c18.9-1.9,37.9-3.2,57.2-3.8V424c8.8-0.3,17.6-0.5,26.5-0.5
			c8.9,0,17.7,0.2,26.5,0.5v-13.1c19.3,0.6,38.3,1.9,57.2,3.8v13.2c17.9,1.9,35.5,4.3,53,7.3v-13.3c19.3,3.3,38.4,7.2,57.2,11.9
			v13.6c17.9,4.5,35.5,9.6,53,15.2v-13.9c22.1,7.1,43.8,15.1,65,24v35.8C625,421.8,399.1,421.8,200.1,508.4L200.1,508.4z M512,460.5
			C404.5,460.3,298.2,483,200.1,527v56.2h65v-32.4c0.3-14.6,12.5-26.2,27.1-25.9c14.1,0.3,25.5,11.7,25.9,25.9v32.4h57.2v-44.9
			c0-14.6,11.9-26.5,26.5-26.5c14.6,0,26.5,11.9,26.5,26.5v45h57.2v-51.8c0-14.6,11.8-26.5,26.5-26.5c14.6,0,26.5,11.8,26.5,26.5
			c0,0,0,0,0,0v51.8h57.2v-45c0.3-14.6,12.5-26.2,27.1-25.9c14.1,0.3,25.5,11.7,25.9,25.9v44.9h57.2v-32.4
			c0-14.6,11.8-26.5,26.5-26.5s26.5,11.8,26.5,26.5c0,0,0,0,0,0v32.4h65V527C725.7,483,619.5,460.3,512,460.5L512,460.5z"/>
	</g>
</g>
</svg>
