<svg xmlns="http://www.w3.org/2000/svg" viewBox="0 0 1024 1024">
   <circle cx="512" cy="512" r="512" style="fill:#fe0000"/>
   <path d="M200.1 508.4v-35.9c21.2-8.9 42.9-16.8 65-24v13.9c17.4-5.6 35-10.7 53-15.2v-13.5c18.8-4.6 37.9-8.6 57.2-11.9v13.4c17.5-3 35.1-5.5 53-7.3v-13.2c18.9-1.9 37.9-3.2 57.2-3.8V424c8.8-.3 17.6-.5 26.5-.5 8.9 0 17.7.2 26.5.5v-13.1c19.3.6 38.3 1.9 57.2 3.8v13.2c17.9 1.9 35.5 4.3 53 7.3v-13.3c19.3 3.3 38.4 7.2 57.2 11.9v13.6c17.9 4.5 35.5 9.6 53 15.2v-13.9c22.1 7.1 43.8 15.1 65 24v35.8c-198.9-86.7-424.8-86.7-623.8-.1zM512 460.5c-107.5-.2-213.8 22.5-311.9 66.5v56.2h65v-32.4c.3-14.6 12.5-26.2 27.1-25.9 14.1.3 25.5 11.7 25.9 25.9v32.4h57.2v-44.9c0-14.6 11.9-26.5 26.5-26.5s26.5 11.9 26.5 26.5v45h57.2v-51.8c0-14.6 11.8-26.5 26.5-26.5 14.6 0 26.5 11.8 26.5 26.5v51.8h57.2v-45c.3-14.6 12.5-26.2 27.1-25.9 14.1.3 25.5 11.7 25.9 25.9v44.9h57.2v-32.4c0-14.6 11.8-26.5 26.5-26.5s26.5 11.8 26.5 26.5v32.4h65V527c-98.2-44-204.4-66.7-311.9-66.5z" style="fill:#fff"/>
</svg>
