<svg xmlns="http://www.w3.org/2000/svg" viewBox="0 0 1024 1024">
   <circle cx="512" cy="512" r="512" style="fill:#fe0000"/>
   <path d="M200.15 508.44v-35.86q31.84-13.29 65-24v13.88q26.09-8.46 53-15.25v-13.48q28.19-6.93 57.22-11.87v13.36q26.19-4.54 53-7.34v-13.22q28.31-2.9 57.21-3.85V424q13.16-.47 26.47-.47t26.52.47v-13.19q28.88.93 57.22 3.85v13.22q26.78 2.82 53 7.34v-13.35q29 4.92 57.22 11.88v13.57q26.85 6.72 53 15.25v-13.9q33.15 10.6 65 24v35.8a780.81 780.81 0 0 0-623.66 0ZM512 460.52A758.69 758.69 0 0 0 200.15 527v56.15h65v-32.39a26.48 26.48 0 0 1 53 0v32.42h57.22v-44.95a26.48 26.48 0 0 1 53 0v45h57.22v-51.86a26.47 26.47 0 0 1 52.94 0v51.85h57.22v-45a26.48 26.48 0 0 1 53 0v44.95h57.22v-32.41a26.47 26.47 0 0 1 52.94 0v32.44h65V527A758.61 758.61 0 0 0 512 460.45Z" style="fill:#fff"/>
</svg>
