<?xml version="1.0" encoding="utf-8"?>
<!-- Generator: Adobe Illustrator 21.0.0, SVG Export Plug-In . SVG Version: 6.00 Build 0)  -->
<svg version="1.1" xmlns="http://www.w3.org/2000/svg" xmlns:xlink="http://www.w3.org/1999/xlink" x="0px" y="0px"
	 viewBox="0 0 1024 1024" style="enable-background:new 0 0 1024 1024;" xml:space="preserve">
<style type="text/css">
	.st0{fill:#0052A4;}
	.st1{fill:#FFFFFF;}
</style>
<g id="Min_Guides__x28_DO_NOT_REMOVE_x29_">
</g>
<g id="Max_Guides__x28_DO_NOT_REMOVE_x29_">
</g>
<g id="Icon">
	<circle id="Background" class="st0" cx="512" cy="512" r="512"/>
	<path class="st1" d="M240.3,511.7h-16.9c-3,0-6,1.1-8.9,3.1c-2.9,2.1-4.5,4.6-5,7.5l-1.4,8.7c-0.6,3.9,0.6,7.5,3.7,10.6
		c3,3.2,6.6,4.8,10.6,4.8h11.9L240.3,511.7L240.3,511.7z M272.5,492.9l-11.9,71.4H208c-8.1,0-15-2.8-20.6-8.5
		c-5.6-5.6-8.5-12.5-8.5-20.6c0-1.2,0.1-2.6,0.4-4.3l2.2-13.4c4.3-15.4,13.8-23,28.4-23h33.7c0.7-4.4-0.4-8.4-3.4-12.1
		c-3-3.7-6.7-5.5-11.2-5.5h-32.2l2.8-16.9h44.1c7.8,0,14.6,2.8,20.3,8.5c5.7,5.6,8.6,12.4,8.6,20.2
		C272.7,490.6,272.6,492,272.5,492.9 M382.4,459.8l-3,16.9h-45.8c-8,0-12.7,3.9-14.1,11.8l35.8,21.8c9.4,5.7,14.1,13.9,14.1,24.6
		c0,9.4-3.5,17-10.4,22.6c-5.6,4.5-11.9,6.8-18.7,6.8h-62.3l2.8-17.8h45.8c8.2,0,13.1-4.2,14.6-12.6l-36.3-20.2
		c-9.3-5.2-13.9-13.2-13.9-23.9c0-8.6,2.7-15.7,8.1-21.3c5.4-5.6,12.4-8.5,20.9-8.5H382.4L382.4,459.8z M486.6,459.8l-13.7,80.8
		c-1.2,6.5-4.6,12.1-10.2,16.7c-5.6,4.6-11.8,7-18.4,7H416c-8.1,0-15-2.8-20.5-8.2c-5.6-5.5-8.3-12.3-8.3-20.4c0-1.6,0.2-3.3,0.4-5
		l11.7-70.8h29L417,529.5c-0.2,0.9-0.3,1.7-0.3,2.6c0,4.2,1.4,7.6,4.3,10.3c2.9,2.7,6.4,4,10.6,4c7.8,0,12.4-4,13.7-12.1l12-74.5
		H486.6L486.6,459.8z M586.4,459.8l-3,16.9H542c-8,0-12.7,3.9-14.1,11.8l35.8,21.8c9.4,5.7,14.1,13.9,14.1,24.6
		c0,9.4-3.5,17-10.4,22.6c-5.6,4.5-11.9,6.8-18.7,6.8h-62.3l2.8-17.8H535c8.2,0,13.1-4.2,14.5-12.6l-36.3-20.2
		c-9.3-5.2-13.9-13.2-13.9-23.9c0-8.6,2.7-15.7,8.2-21.3c5.4-5.6,12.4-8.5,20.9-8.5H586.4L586.4,459.8z M665.9,459.8l-3,16.9h-29.3
		l-8.6,52.7c0,0.9-0.1,1.7-0.1,2.6c0,3.9,1.4,7.3,4.4,10.1c2.9,2.8,6.3,4.2,10.2,4.2h11.7l-2.8,17.8h-23.7c-8.1,0-15-2.8-20.5-8.5
		c-5.6-5.6-8.4-12.5-8.4-20.6c0-1.8,0.2-3.5,0.4-5.2l14.8-87.7h28.6l-2.9,17.6H665.9L665.9,459.8z M756.4,468.1
		c-5.7-5.5-12.5-8.3-20.5-8.3h-28.2c-6.8,0-13,2.1-18.5,6.2c-5.5,4.2-8.8,9.6-10,16.3l-7.8,47.5c-0.3,1.7-0.4,3.5-0.4,5.2
		c0,8.1,2.8,15,8.4,20.6c5.6,5.6,12.4,8.5,20.5,8.5h27.8c6.9,0,13.2-2.4,18.8-7.2c5.6-4.8,8.9-10.6,10.1-17.4l8-46.2
		c0.3-1.6,0.5-3.3,0.5-5.2C765,480.3,762.1,473.6,756.4,468.1z M744.1,493.3l-6.9,40.6c-1.4,8.4-6.3,12.6-14.4,12.6
		c-4.1,0-7.5-1.3-10.3-3.9c-2.8-2.6-3.8-5.8-3.8-9.9c0-0.9,0.3-3,0.3-3l6.7-40.6c1.3-8,5.8-12,13.4-12c4.5,0,10.3,0.7,13.5,3.8
		C745.7,484.1,744.8,488.8,744.1,493.3z M845.1,459.8l-2.9,16.9h-17c-8.3,0-13.1,4.1-14.4,12.3L799,564.3h-28.8l13.2-81.4
		c1-6.7,4.3-12.3,9.9-16.6c5.6-4.3,11.8-6.5,18.6-6.5H845.1L845.1,459.8z"/>
</g>
</svg>
