<?xml version="1.0" encoding="utf-8"?>
<!-- Generator: Adobe Illustrator 21.0.0, SVG Export Plug-In . SVG Version: 6.00 Build 0)  -->
<svg version="1.1" xmlns="http://www.w3.org/2000/svg" xmlns:xlink="http://www.w3.org/1999/xlink" x="0px" y="0px"
	 viewBox="0 0 1024 1024" style="enable-background:new 0 0 1024 1024;" xml:space="preserve">
<style type="text/css">
	.st0{fill:#0052CC;}
	.st1{fill:#FFFFFF;}
</style>
<g id="Min_Guides__x28_DO_NOT_REMOVE_x29_">
</g>
<g id="Max_Guides__x28_DO_NOT_REMOVE_x29_">
</g>
<g id="Icon">
	<circle id="Background" class="st0" cx="512" cy="512" r="512"/>
	<g id="Logo">
		<path class="st1" d="M413.7,462.6c-4.6-6-13.2-7.2-19.3-2.6c-1.8,1.3-3.2,3.1-4.1,5.1L272,701.9c-3.5,7-0.7,15.5,6.3,19
			c2,1,4.1,1.5,6.3,1.5h164.9c5.4,0.1,10.4-2.9,12.7-7.8C497.7,641,476.2,529.3,413.7,462.6z"/>
		<path class="st1" d="M500.6,247.2c-60,92.4-67,209.5-18.2,308.3l79.5,159c2.4,4.8,7.3,7.8,12.7,7.8h164.9
			c7.8,0,14.2-6.3,14.2-14.2c0-2.2-0.5-4.4-1.5-6.3c0,0-221.8-443.7-227.4-454.8c-3.2-6.6-11.2-9.4-17.9-6.2
			C504.1,242.3,501.9,244.5,500.6,247.2z"/>
	</g>
</g>
</svg>
