<svg xmlns="http://www.w3.org/2000/svg" viewBox="0 0 1024 1024">
   <circle cx="512" cy="512" r="512" style="fill:#3f51b5"/>
   <path d="M580.39 364.94c39 17.63 70.72 51.28 84.67 91.89 3.23 8.2 4.68 17 8.14 25.13 3.68 7.89 13.75 11.15 21.59 7.67 8.09-2.7 12.43-12 10.46-20C699 439.38 684.88 411 665.59 387c-17.78-22-40.61-39.76-65.8-52.62-5.9-2.87-12.4-5.9-19.12-4.43-9.37 1.72-15.68 12.24-13 21.34 1.44 6.49 6.72 11.3 12.72 13.65ZM687.91 601c2.89-6.8 7.82-13.52 6.69-21.28-1.06-8.15-8.79-14.46-16.88-14.53a17.48 17.48 0 0 0-16.64 10.49c-10.88 23.72-26.92 45.2-47.36 61.5-19.43 15.65-42.71 26.17-67 31.66-28.6 6.58-58.89 4.29-86.51-5.43-45.13-15.2-83.45-51.26-99-96.54-9.81-28.82-12.74-60.33-6.1-90.17 9.59-42.73 36.51-81.76 74.56-103.92 7.48-4.45 17.74-8.6 18.55-18.6 1.58-12.4-12.19-24.08-24-18.23-44.94 21.36-80.25 61.39-97 108.14-8.44 23.71-11.64 49.1-10.84 74.19a199.46 199.46 0 0 0 43.67 117.6c28.44 34.84 69.24 59.65 113.47 68.12 39.46 7.41 81.31 3.5 118.07-13 40.99-18.06 76.57-49.51 96.32-90Zm-54.67-142.14a130.42 130.42 0 1 0 7.92 81.75 131.33 131.33 0 0 0-7.92-81.75ZM537.66 592.8c-14.79 8.71-34.57 8.61-49.19-.46-7.19-4.51-13.47-13.08-10.93-21.94 6.23-26.62 13-53.14 19.62-79.65-6.85-4-12.84-9.79-16-17.18-5.76-12.49-3-28.19 6.45-38.12a35.34 35.34 0 0 1 61.21 23c.63 13.34-7.43 26-19 32.27 6.64 26.59 13.28 53.17 19.57 79.82 2.45 9.15-4.24 17.83-11.73 22.26Zm231.43-132.58c-2.51-13.9-6.78-27.4-11.67-40.61-2.6-8-11.12-14.24-19.67-12.41-7.32.93-12.63 7.33-14.78 14-2.43 7.26 3.19 13.6 4.91 20.33 11.37 35.28 14.35 73.47 7.38 109.95-9.94 53.66-40 103.4-83.33 136.72-32.29 25.58-72.11 40.72-112.85 45.58-6.1.74-12.85 1-17.67 5.38-6.88 5.49-8.06 16.42-2.62 23.3 3.5 4.51 9.45 5.68 14.73 6.67h10.68c11.48-1.45 22.81-4 34.15-6.29a262.92 262.92 0 0 0 191.07-201.66c6.78-33.24 5.49-67.68-.33-100.96ZM501.28 286c-4 2.16-8.6 2.37-13 3-32 3.93-63.69 13.28-91.39 30.09a223.8 223.8 0 0 0-92.19 103.36c-18.56 39.92-22.85 85.6-15.47 128.78a226.52 226.52 0 0 0 56.06 114.13c3.88 4.4 8.74 8.66 9.62 14.81 1.5 11.12-9.83 22.38-21 19.68-7.1-1.69-11.53-8-16.5-12.85a261.31 261.31 0 0 1-58.09-106.26c-2.14-8.92-4.95-17.76-5.78-26.93l.06.86c-4.61-21.66-3.49-50.27-3.49-50.27 1.29-11.23 1.64-22.59 3.66-33.74 6.59-43 25.39-83.72 52.11-118 26.36-34.29 61.78-61.31 101.43-78.45 16.38-7.18 33.51-13.11 51.14-16.26s15.71-3.51 30-3.09c1.54 0 3.78.12 5.43.21.58 0 1.24 0 1.95.11h.17a20.92 20.92 0 0 1 6.74 1.69h.09a7.36 7.36 0 0 1 3.29 2.24 9 9 0 0 1 1 1.09v.08c5.93 7.99 2.95 21.11-5.84 25.72Z" style="fill:#fff"/>
</svg>
