<?xml version="1.0" encoding="utf-8"?>
<!-- Generator: Adobe Illustrator 21.0.0, SVG Export Plug-In . SVG Version: 6.00 Build 0)  -->
<svg version="1.1" xmlns="http://www.w3.org/2000/svg" xmlns:xlink="http://www.w3.org/1999/xlink" x="0px" y="0px"
	 viewBox="0 0 1024 1024" style="enable-background:new 0 0 1024 1024;" xml:space="preserve">
<style type="text/css">
	.st0{fill:#FC0A16;}
	.st1{fill:#FFFFFF;}
</style>
<g id="Guides">
</g>
<g id="Icon">
	<circle class="st0" cx="512" cy="512" r="512"/>
	<path class="st1" d="M767,458.2c-0.2-0.9-0.4-1.7-0.6-2.6c0,0,0,0,0,0l0,0c-0.9-3.7-1.9-7.5-3.4-11c-8.7-19.8-22.7-33.7-44.4-38.4
		c-12-2.6-23.5,0.7-34.5,5.5c-22.8,9.9-44.6,21.9-66.9,32.9c-17.4,8.5-34.7,17.3-52,26.1c-0.4,0.2-0.8,0.4-1.2,0.5l-15.8-11.2
		c0-2.1,0.6-4.9,1.5-9.2c5.3-23.9,10.7-47.7,16-71.6c3.9-17.7,8.3-35.3,11.4-53.1c3.4-19.4-4.6-34.9-19-47.2
		c-16.6-14.3-36.3-17.2-57.4-14.6c-6.2,0.8-12.1,2-17.9,4c-17.4,6.1-29.3,23.6-30.9,41.8c-1.5,16.8,2.4,32.6,4.8,48.8
		c3.8,25,7.9,49.9,12,74.9c1.2,7.4,2.6,14.8,3.9,22.2c0.3,1.5,0.4,2.8,0.4,4.2L458.7,473c-1.8-0.5-4.1-1.8-7.6-3.9
		c-35.5-20.5-70.9-40.9-106.5-61.2c-39.5-22.5-79.8,6.4-86.8,42.9c-2.6,13.3-2.2,26.6,3.2,39.4c6.7,16,19.6,25,35.2,30.9
		c14.2,5.4,29.3,6.7,44.1,8.9c31.9,4.9,63.8,9.7,95.8,14.5c0.2,0,0.5,0.1,0.7,0.1l7,17.8c-1.3,2-4.4,3.7-6.4,5.5
		c-11,10-22.4,19.6-33.3,29.7c-20.3,18.9-41.8,36.4-61.5,56.1c-8.3,8.3-12.9,18.7-15,30.3c-2.4,13.4,0.5,25.8,7.3,36.9
		c13.4,21.7,33.1,33.7,58.9,34.5c17.9,0.6,31.5-7.9,42.6-21.1c7.1-8.4,12.6-17.9,17.6-27.7c16.6-32.7,33.5-65.3,50-98.1
		c0.5-0.9,1-1.7,1.6-2.3l17.9-0.9c0.6,1.1,1.1,2.5,1.6,3.7c11.7,26.3,23.3,52.6,35,78.9c5,11.3,10.2,22.5,14.9,33.9
		c7.9,19.1,20.6,32.9,40.9,38.7c0,0,9.8,2.7,19.7,0c5.8-1.7,11.9-2.4,17.5-5c22-10.2,37-26.4,41.7-50.6c3.2-16.6-3.4-30.8-13.2-43.9
		c-10.3-13.8-23.7-24.6-35.7-36.8c-16.6-16.9-33.4-33.5-50.2-50.1c-4.3-4.2-8.7-8.3-13.1-12.3c-0.4-0.4-0.7-0.7-1-1.1l4.9-16.9
		c0,0,0,0,0,0l31.5-3.9l0,0c10.4-0.8,20.8-1.7,31.2-3c25.5-3.2,51.4-3.6,76.7-8.3c20.9-3.9,36.8-16.1,40.4-39.4
		c0.1-0.5,0.2-1,0.3-1.5l0,0C766.4,488,769.3,469.7,767,458.2z"/>
</g>
</svg>
