<?xml version="1.0" encoding="utf-8"?>
<!-- Generator: Adobe Illustrator 21.0.0, SVG Export Plug-In . SVG Version: 6.00 Build 0)  -->
<svg version="1.1" xmlns="http://www.w3.org/2000/svg" xmlns:xlink="http://www.w3.org/1999/xlink" x="0px" y="0px"
	 viewBox="0 0 1024 1024" style="enable-background:new 0 0 1024 1024;" xml:space="preserve">
<style type="text/css">
	.st0{fill:#356EB9;}
	.st1{fill:#FFFFFF;}
</style>
<g id="Min_Guides__x28_DO_NOT_REMOVE_x29_">
</g>
<g id="Max_Guides__x28_DO_NOT_REMOVE_x29_">
</g>
<g id="Icon">
	<circle id="Background" class="st0" cx="512" cy="512" r="512"/>
	<g>
		<path class="st1" d="M414.2,252.3c47.8,0.2,95.6-0.2,143.4,0.1c10.5-0.3,21.3,5.5,24.1,16.2C648.9,427.5,716,586.4,783,745.3
			c-46.7,0.1-93.4,0.3-140.1-0.1c-17.2-42.1-35.3-83.8-52.8-125.7c-46.6,29.5-93.8,58.1-140.5,87.7c-23.8,14.6-47.7,30.4-75.1,37.1
			c-13.6,3.1-31.3,1.4-38.7-12.2c-22.5-41-44.8-82.1-66.7-123.4c7.6,6.5,17,10.6,27.2,10.4c97.9-0.1,195.7,0.2,293.6-0.1
			c-47-111.4-94.1-222.8-141-334.2c-3.6-8.4-6.9-17.6-14.3-23.4C428.7,256.3,421.2,254.5,414.2,252.3z"/>
		<path class="st1" d="M388,291.5c3.9-10.1,8.6-23.5,21.1-25c11.2-1.8,19.8,7.3,23.7,16.8c16.9,38.6,32.5,77.9,49.4,116.5
			c-28.8,68.3-57.7,136.5-86.6,204.7c-30.3-0.1-60.6,0-90.9,0c-10.3-0.2-21.9-2.5-28.3-11.3c-7.7-9.6-5.1-23.1-0.8-33.6
			C313,470.2,350.5,380.9,388,291.5z"/>
	</g>
</g>
</svg>
