<svg xmlns="http://www.w3.org/2000/svg" viewBox="0 0 1024 1024">
   <circle cx="512" cy="512" r="512" style="fill:#232f3e"/>
   <path d="M400.28 479.1a51.22 51.22 0 0 0 1.88 15.15 91.35 91.35 0 0 0 5.46 12.29 7.3 7.3 0 0 1 1.19 3.9c0 1.71-1 3.41-3.24 5.12l-10.73 7.15a8.17 8.17 0 0 1-4.44 1.54 7.76 7.76 0 0 1-5.1-2.39 52.69 52.69 0 0 1-6.12-8q-2.86-4.91-5.29-10-19.9 23.49-50.07 23.49c-14.29 0-25.71-4.07-34-12.25s-12.59-19.07-12.59-32.7c0-14.46 5.1-26.24 15.49-35.07S316.85 434 334.38 434a134.25 134.25 0 0 1 18 1.37c6.31.85 12.8 2.22 19.58 3.75v-12.46c0-12.95-2.71-22-8-27.24s-14.63-7.83-27.73-7.83a77.3 77.3 0 0 0-18.41 2.2 135.41 135.41 0 0 0-18.39 5.8 48.79 48.79 0 0 1-6 2.22 10.41 10.41 0 0 1-2.71.49c-2.39 0-3.58-1.71-3.58-5.27v-8.34c0-2.73.34-4.78 1.19-6a12.74 12.74 0 0 1 4.78-3.56 97.64 97.64 0 0 1 21.44-7.68 103.25 103.25 0 0 1 26.58-3.22c20.27 0 35.07 4.61 44.61 13.8 9.37 9.17 14.12 23.15 14.12 41.88v55.19ZM331.16 505a55.16 55.16 0 0 0 17.54-3.07A38 38 0 0 0 364.87 491a27.09 27.09 0 0 0 5.8-10.92 62 62 0 0 0 1.71-14.81v-7.15a142.08 142.08 0 0 0-15.68-2.9 128.43 128.43 0 0 0-16-1c-11.41 0-19.75 2.22-25.39 6.83S307 472.13 307 480.64c0 8 2 14 6.29 18 4.07 4.36 10.02 6.36 17.87 6.36Zm136.75 18.39c-3.07 0-5.12-.51-6.49-1.71-1.37-1-2.56-3.41-3.58-6.63l-40-131.65a29.82 29.82 0 0 1-1.54-6.83c0-2.73 1.37-4.27 4.07-4.27h16.7c3.22 0 5.44.53 6.61 1.71 1.39 1 2.41 3.41 3.41 6.66l28.63 112.73 26.58-112.73c.85-3.41 1.88-5.63 3.22-6.66a11.71 11.71 0 0 1 6.83-1.71H526c3.24 0 5.46.53 6.83 1.71s2.56 3.41 3.22 6.66l26.9 114.09 29.46-114.09c1-3.41 2.22-5.63 3.41-6.66a11.09 11.09 0 0 1 6.63-1.71h15.85c2.71 0 4.27 1.39 4.27 4.27a17.22 17.22 0 0 1-.36 2.73 24.26 24.26 0 0 1-1.19 4.27L580 515.2c-1 3.41-2.22 5.61-3.58 6.63a10.88 10.88 0 0 1-6.46 1.71h-14.71c-3.22 0-5.44-.51-6.83-1.71s-2.54-3.41-3.2-6.83l-26.41-109.82-26.24 109.65c-.85 3.41-1.86 5.63-3.2 6.83s-3.78 1.71-6.83 1.71ZM686.7 528a113.53 113.53 0 0 1-26.22-3.05c-8.51-2-15.15-4.27-19.58-6.83-2.73-1.51-4.59-3.22-5.27-4.76a12 12 0 0 1-1-4.78v-8.68c0-3.56 1.37-5.27 3.9-5.27a9.66 9.66 0 0 1 3.07.51c1 .34 2.56 1 4.27 1.71a92 92 0 0 0 18.73 6 101.91 101.91 0 0 0 20.27 2c10.71 0 19.07-1.88 24.85-5.63a18.35 18.35 0 0 0 8.83-16.22 16.58 16.58 0 0 0-4.55-11.9c-3.07-3.22-8.87-6.12-17.22-8.85l-24.68-7.68c-12.44-3.9-21.63-9.69-27.24-17.34a40.58 40.58 0 0 1-8.53-24.7 38.1 38.1 0 0 1 4.61-18.9 43.67 43.67 0 0 1 12.27-14 53.5 53.5 0 0 1 17.71-8.85 74.19 74.19 0 0 1 21.46-2.9 85.57 85.57 0 0 1 11.41.68c3.9.51 7.47 1.19 11.05 1.88 3.41.85 6.66 1.71 9.71 2.71a37.25 37.25 0 0 1 7.17 3.07 14.72 14.72 0 0 1 5.12 4.27 9.17 9.17 0 0 1 1.51 5.61v8c0 3.58-1.37 5.46-3.93 5.46a17.71 17.71 0 0 1-6.46-2 77.91 77.91 0 0 0-32.68-6.63c-9.71 0-17.39 1.51-22.66 4.76s-8 8.17-8 15.15a16 16 0 0 0 5.12 12.1c3.39 3.24 9.69 6.49 18.71 9.39l24.19 7.64c12.25 3.93 21.12 9.39 26.39 16.36a38.55 38.55 0 0 1 7.83 23.83 44 44 0 0 1-4.42 19.75 46 46 0 0 1-12.44 15 55 55 0 0 1-18.9 9.54 81.55 81.55 0 0 1-24.4 3.55Zm32.19 82.77c-56 41.39-137.43 63.34-207.4 63.34-98.09 0-186.45-36.27-253.23-96.56-5.27-4.76-.51-11.24 5.8-7.49 72.19 41.88 161.26 67.26 253.38 67.26 62.17 0 130.43-12.95 193.28-39.51 9.37-4.28 17.37 6.11 8.18 12.94Zm23.34-26.58c-7.17-9.17-47.36-4.42-65.58-2.2-5.44.68-6.29-4.1-1.34-7.68 32-22.46 84.63-16 90.75-8.51 6.12 7.68-1.71 60.29-31.68 85.48-4.59 3.93-9 1.88-7-3.22 6.85-16.87 22-54.85 14.85-63.89Z" style="fill:#fff"/>
</svg>
