<svg xmlns="http://www.w3.org/2000/svg" viewBox="0 0 1024 1024" style="enable-background:new 0 0 1024 1024" xml:space="preserve">
   <style>
      .st1{fill:#fff}
   </style>
   <g id="Icon">
      <circle cx="512" cy="512" r="512" style="fill:#283640"/>
      <path class="st1" d="M737 628.7c-23.8-10.6-51.7.2-62.3 23.9-.4.9-.7 1.8-1 2.8H315.9l199.1-345 148.8 256.2 28.3-16.4L514.9 245 259 688.2h414.7c4.3 11.5 12.9 21.3 25 26.7 6.2 2.8 12.7 4.1 19.1 4.1 18.1 0 35.3-10.4 43.1-28 10.6-23.7-.1-51.7-23.9-62.3zm1.4 52.3c-5.1 11.4-18.5 16.5-29.7 11.5-11.4-5.1-16.5-18.5-11.5-29.7 3.8-8.4 12-13.4 20.6-13.4 3.1 0 6.2.6 9.1 1.9 11.5 5 16.6 18.4 11.5 29.7z"/>
      <path class="st1" d="M507.5 623.7h-24.1v-14.6c-6.5 11.8-19.9 17.7-34.1 17.7-32.5 0-51.5-25.3-51.5-53.9 0-31.9 23.1-53.7 51.5-53.7 18.5 0 29.7 9.8 34.1 17.9v-14.8h24.1v101.4zm-85.6-50.2c0 12.5 9 30.8 30.8 30.8 13.5 0 22.3-7 26.9-16.3 2.4-4.5 3.5-9.2 3.8-14.2.2-4.8-.7-9.8-2.8-14.2-4.3-9.6-13.6-17.9-28.3-17.9-19.6 0-30.6 15.8-30.6 31.6l.2.2zm135.6-3.1-34.1-47.9h29.1l19.8 31.1 19.8-31.1h28.8L587 570.4l37.8 53.4h-29.7l-22.7-34.9-22.9 34.9h-29.3l37.3-53.4z"/>
   </g>
</svg>
