<svg xmlns="http://www.w3.org/2000/svg" viewBox="0 0 1024 1024">
   <circle cx="512" cy="512" r="512" style="fill:#283640"/>
   <path d="M737 628.72a47.26 47.26 0 0 0-62.29 23.88 26.48 26.48 0 0 0-1 2.8H315.87L515 310.44 663.8 566.6l28.35-16.45L514.9 245 259 688.21h414.69a47 47 0 0 0 25 26.68 46.26 46.26 0 0 0 19.09 4.11A47.19 47.19 0 0 0 737 628.72Zm1.4 52.32a22.54 22.54 0 1 1-20.56-31.67 22.09 22.09 0 0 1 9.1 1.92A22.43 22.43 0 0 1 738.43 681Zm-231-57.3h-24.08v-14.62c-6.47 11.81-19.95 17.67-34.12 17.67-32.46 0-51.53-25.28-51.53-53.89 0-31.93 23.1-53.72 51.53-53.72 18.46 0 29.75 9.8 34.12 17.93v-14.78h24.15Zm-85.5-50.23c0 12.51 9 30.8 30.8 30.8 13.47 0 22.31-7 26.95-16.27a35 35 0 0 0 3.85-14.17 30.47 30.47 0 0 0-2.8-14.17c-4.29-9.62-13.65-17.93-28.26-17.93-19.6 0-30.62 15.84-30.62 31.58v.17Zm135.6-3.15-34.12-47.94h29.13l19.77 31.15 19.77-31.15h28.78l-33.93 47.94 37.79 53.37h-29.74l-22.66-34.91-22.92 34.91h-29.31Z" style="fill:#fff"/>
</svg>
