<?xml version="1.0" encoding="utf-8"?>
<!-- Generator: Adobe Illustrator 21.0.0, SVG Export Plug-In . SVG Version: 6.00 Build 0)  -->
<svg version="1.1" xmlns="http://www.w3.org/2000/svg" xmlns:xlink="http://www.w3.org/1999/xlink" x="0px" y="0px"
	 viewBox="0 0 1024 1024" style="enable-background:new 0 0 1024 1024;" xml:space="preserve">
<style type="text/css">
	.st0{fill:#283640;}
	.st1{fill:#FFFFFF;}
</style>
<g id="Guides">
</g>
<g id="Icon">
	<circle class="st0" cx="512" cy="512" r="512"/>
	<g>
		<path class="st1" d="M737,628.7c-23.8-10.6-51.7,0.2-62.3,23.9c-0.4,0.9-0.7,1.8-1,2.8H315.9l199.1-345l148.8,256.2l28.3-16.4
			L514.9,245L259,688.2h414.7c4.3,11.5,12.9,21.3,25,26.7c6.2,2.8,12.7,4.1,19.1,4.1c18.1,0,35.3-10.4,43.1-28
			C771.5,667.3,760.8,639.3,737,628.7L737,628.7z M738.4,681c-5.1,11.4-18.5,16.5-29.7,11.5c-11.4-5.1-16.5-18.5-11.5-29.7
			c3.8-8.4,12-13.4,20.6-13.4c3.1,0,6.2,0.6,9.1,1.9C738.4,656.3,743.5,669.7,738.4,681z"/>
		<path class="st1" d="M507.5,623.7h-24.1v-14.6c-6.5,11.8-19.9,17.7-34.1,17.7c-32.5,0-51.5-25.3-51.5-53.9
			c0-31.9,23.1-53.7,51.5-53.7c18.5,0,29.7,9.8,34.1,17.9v-14.8h24.1V623.7z M421.9,573.5c0,12.5,9,30.8,30.8,30.8
			c13.5,0,22.3-7,26.9-16.3c2.4-4.5,3.5-9.2,3.8-14.2c0.2-4.8-0.7-9.8-2.8-14.2c-4.3-9.6-13.6-17.9-28.3-17.9
			c-19.6,0-30.6,15.8-30.6,31.6L421.9,573.5L421.9,573.5z M557.5,570.4l-34.1-47.9h29.1l19.8,31.1l19.8-31.1h28.8l-33.9,47.9
			l37.8,53.4h-29.7l-22.7-34.9l-22.9,34.9h-29.3L557.5,570.4z"/>
	</g>
</g>
</svg>
