<svg xmlns="http://www.w3.org/2000/svg" viewBox="0 0 1024 1024" style="enable-background:new 0 0 1024 1024" xml:space="preserve">
   <style>
      .st1{fill:#fff}
   </style>
   <g id="Icon">
      <circle cx="512" cy="512" r="512" style="fill:#d2202f"/>
      <path class="st1" d="M450.8 205.5s85.3 74.8 73.9 141c-5.2 29.9-44.4 78.3-23.2 124.5 22.8 49.9 34.7 146.1-68.1 121.3C332 568 339.8 443.6 415.2 378.2s50.5-139.4 35.6-172.7z"/>
      <path class="st1" d="M528.6 430c-5.7 50.5 50.2 100.8 5.7 169.2C504 646.5 551 713.1 611.7 701c66.3-13.2 83-55.2 81.2-103.9-2.3-61.9-27-79.1-81.7-125.6-59.4-50.2-13.7-145.4-13.7-145.4s-62.3 48.3-68.9 103.9z"/>
      <path class="st1" d="M350.5 651.3c11.9 33.3 30.2 86.7 102.9 113.8 61.2 22.9 146.8 27 196.2-36.3 11.3-14.2-3.6-8.7-18.5-3-38.4 12.1-80.3 4-111.5-21.4-42-35-25.6-74.2-46.7-74.7-69.4-1.5-105.7-28.6-124.4-51.7-4.3-5.4-10.9 37.4 2 73.3z"/>
   </g>
</svg>
