<?xml version="1.0" encoding="utf-8"?>
<!-- Generator: Adobe Illustrator 21.0.0, SVG Export Plug-In . SVG Version: 6.00 Build 0)  -->
<svg version="1.1" xmlns="http://www.w3.org/2000/svg" xmlns:xlink="http://www.w3.org/1999/xlink" x="0px" y="0px"
	 viewBox="0 0 1024 1024" style="enable-background:new 0 0 1024 1024;" xml:space="preserve">
<style type="text/css">
	.st0{fill:#D2202F;}
	.st1{fill:#FFFFFF;}
</style>
<g id="Guides">
</g>
<g id="Icon">
	<circle class="st0" cx="512" cy="512" r="512"/>
	<g>
		<title>Untitled-1</title>
		<path class="st1" d="M450.8,205.5c0,0,85.3,74.8,73.9,141c-5.2,29.9-44.4,78.3-23.2,124.5c22.8,49.9,34.7,146.1-68.1,121.3
			c-101.4-24.3-93.6-148.7-18.2-214.1S465.7,238.8,450.8,205.5z"/>
		<path class="st1" d="M528.6,430c-5.7,50.5,50.2,100.8,5.7,169.2C504,646.5,551,713.1,611.7,701c66.3-13.2,83-55.2,81.2-103.9
			c-2.3-61.9-27-79.1-81.7-125.6c-59.4-50.2-13.7-145.4-13.7-145.4S535.2,374.4,528.6,430z"/>
		<path class="st1" d="M350.5,651.3c11.9,33.3,30.2,86.7,102.9,113.8c61.2,22.9,146.8,27,196.2-36.3c11.3-14.2-3.6-8.7-18.5-3
			c-38.4,12.1-80.3,4-111.5-21.4c-42-35-25.6-74.2-46.7-74.7c-69.4-1.5-105.7-28.6-124.4-51.7C344.2,572.6,337.6,615.4,350.5,651.3z
			"/>
	</g>
</g>
</svg>
