<svg xmlns="http://www.w3.org/2000/svg" viewBox="0 0 1024 1024">
   <circle cx="512" cy="512" r="512" style="fill:#00a275"/>
   <path d="m741.66 396.3-48.93 28.48c1.46 5.11 2.92 11 2.92 16.8v141.67a58 58 0 0 1-29.21 50.39l-124.13 70.83A77.69 77.69 0 0 1 524 711v56.23a71.91 71.91 0 0 0 24.83-8.76l160.66-92C732.17 653.35 746 630 746 603.69V420.4a70.1 70.1 0 0 0-4.34-24.1zM359 391.19l123.41-70.83c18.26-10.22 40.89-10.22 58.42 0L665 391.19c6.57 3.65 11.68 8.76 16.07 13.87L730 376.58a65.25 65.25 0 0 0-21.18-19l-160.66-92c-22.64-13.14-50.39-12.41-72.29 0l-160.66 92a71 71 0 0 0-21.91 19.72l48.93 28.48c5.1-5.78 10.21-10.94 16.77-14.59zm123.42 313.28L359 633.63a58 58 0 0 1-29.21-50.39V441.58a57 57 0 0 1 2.21-16.07L282.34 397a63.25 63.25 0 0 0-4.34 23.4v184a73 73 0 0 0 36.51 62.8l160.66 92A71.91 71.91 0 0 0 500 768v-56.23a178.38 178.38 0 0 1-17.58-7.3zm54.23-10.59a66.23 66.23 0 0 1-13.34 5V562.07c.73-21.91 6.57-40.16 34.32-59.88L682 430.94a43.3 43.3 0 0 1 1.68 10.63v141.68c0 16.4-9.06 32.07-23.07 39.92zm134-282.43L546 483.2c-16.07 10.22-27 20.45-34.32 32.13-7.3-11.68-18.26-21.91-34.32-32.13l-124.51-71.31c3.93-4.35 7.61-7.78 12-10.21h.14l123.35-70.8a48.44 48.44 0 0 1 23.57-6.11 45.42 45.42 0 0 1 22.89 6L659 401.61h.12a45.7 45.7 0 0 1 11.57 9.83zM341.8 441.58a46.18 46.18 0 0 1 1-9.86l122.82 70.47c27.75 19.72 33.59 38 34.32 59.88v136.87c-4.07-1.56-8-3.15-11.86-5.06L365 623.23h-.11c-14-7.85-23.07-23.52-23.07-39.92z" style="fill:#fff"/>
</svg>
