<svg xmlns="http://www.w3.org/2000/svg" viewBox="0 0 1024 1024">
   <circle cx="512" cy="512" r="512" style="fill:#00a275"/>
   <path d="m753.07 390.56-51.36 29.89c1.53 5.37 3.07 11.5 3.07 17.63v148.7c0 21.46-11.5 42.16-30.66 52.89L543.81 714a81.55 81.55 0 0 1-19.16 6.9v59a75.48 75.48 0 0 0 26.06-9.2l168.63-96.58c23.76-13.8 38.33-38.33 38.33-65.92V415.85a73.59 73.59 0 0 0-4.6-25.29zm-401.65-5.37L481 310.84c19.16-10.73 42.92-10.73 61.32 0l130.31 74.35c6.9 3.83 12.26 9.2 16.86 14.56l51.36-29.89a68.49 68.49 0 0 0-22.23-19.93l-168.68-96.58c-23.76-13.8-52.89-13-75.88 0l-168.63 96.58a74.49 74.49 0 0 0-23 20.7l51.36 29.89c5.36-6.13 10.73-11.52 17.63-15.33zM481 714l-129.58-74.33c-19.16-10.73-30.66-31.43-30.66-52.89v-148.7a59.78 59.78 0 0 1 2.3-16.86l-52.12-29.89a66.39 66.39 0 0 0-4.6 24.53V609a76.62 76.62 0 0 0 38.33 65.92L473.3 771.5a75.48 75.48 0 0 0 26.06 9.2v-59A187.23 187.23 0 0 1 481 714zm56.92-11.12a69.52 69.52 0 0 1-14 5.25V564.55c.77-23 6.9-42.16 36-62.85l130.52-74.78a45.45 45.45 0 0 1 1.76 11.16v148.7c0 17.21-9.51 33.66-24.22 41.9zm140.7-296.46-130.98 75.35c-16.86 10.73-28.36 21.46-36 33.73-7.67-12.26-19.16-23-36-33.73L345 406.92c4.13-4.56 8-8.16 12.58-10.72h.16l129.42-74.4a50.84 50.84 0 0 1 24.74-6.41 47.67 47.67 0 0 1 24 6.33h.1l130.31 74.35h.12a48 48 0 0 1 12.14 10.38zm-345.27 31.66a48.47 48.47 0 0 1 1.05-10.35l128.92 74c29.13 20.7 35.26 39.86 36 62.85v143.65c-4.27-1.63-8.39-3.3-12.45-5.31l-129.18-74.17h-.12c-14.71-8.24-24.22-24.69-24.22-41.9z" style="fill:#fff"/>
</svg>
