<?xml version="1.0" encoding="utf-8"?>
<!-- Generator: Adobe Illustrator 21.0.0, SVG Export Plug-In . SVG Version: 6.00 Build 0)  -->
<svg version="1.1" xmlns="http://www.w3.org/2000/svg" xmlns:xlink="http://www.w3.org/1999/xlink" x="0px" y="0px"
	 viewBox="0 0 1024 1024" style="enable-background:new 0 0 1024 1024;" xml:space="preserve">
<style type="text/css">
	.st0{fill:#FFE000;}
	.st1{fill:#FFFFFF;}
</style>
<g id="Min_Guides__x28_DO_NOT_REMOVE_x29_">
</g>
<g id="Max_Guides__x28_DO_NOT_REMOVE_x29_">
</g>
<g id="Icon">
	<circle id="Background" class="st0" cx="512" cy="512" r="512"/>
	<path class="st1" d="M767.7,621c-8.3-129.1-81.9-331.9-241.6-331.9c-122.2,0-212.4,80.5-268,238.8c-5.6,11.1,1.4,25,13.9,29.2
		c12.5,5.6,26.4-1.4,30.5-13.9c47.3-133.9,119.8-203,215.9-206.6c2,0.6,4.1,1.1,6.3,1.1c118,0,183.3,161.1,194.4,280.5
		c-40.3,59.7-138.9,69.4-194.4,69.4c-63.9,1.4-126.4-23.6-172.2-69.4c18.1-45.8,44.4-88.9,56.9-90.3c5.6,0,19.4,15.3,26.4,22.2
		c15.3,16.7,30.5,33.3,52.8,33.3c11.1,0,40.3,0,95.8-120.8c5.6-12.5,1.4-26.4-11.1-31.9c-12.5-5.6-26.4-1.4-31.9,11.1
		c-18,40.3-41.7,79.1-54.2,91.6c-5.6-4.2-12.5-11.1-16.7-16.7c-15.3-16.7-34.7-37.5-61.1-37.5c-51.4,1.4-91.6,94.4-106.9,134.7
		c-2.8,8.3-1.4,18.1,5.6,23.6c54.2,61.1,131.9,95.8,212.4,95.8c1.4,0,4.2,0,5.6,1.4c116.6,0,201.3-36.1,238.8-100
		c0.1-0.4,0.2-0.8,0.3-1.2C767.2,629.8,768.2,625.4,767.7,621z"/>
</g>
</svg>
