<?xml version="1.0" encoding="utf-8"?>
<!-- Generator: Adobe Illustrator 21.0.0, SVG Export Plug-In . SVG Version: 6.00 Build 0)  -->
<svg version="1.1" xmlns="http://www.w3.org/2000/svg" xmlns:xlink="http://www.w3.org/1999/xlink" x="0px" y="0px"
	 viewBox="0 0 1024 1024" style="enable-background:new 0 0 1024 1024;" xml:space="preserve">
<style type="text/css">
	.st0{fill:#0046BE;}
	.st1{fill:#FFFFFF;}
</style>
<g id="Min_Guides__x28_DO_NOT_REMOVE_x29_">
</g>
<g id="Max_Guides__x28_DO_NOT_REMOVE_x29_">
</g>
<g id="Icon">
	<circle id="Background" class="st0" cx="512" cy="512" r="512"/>
	<path id="Logo" transform="translate(-137.5,-22.390163)" inkscape:groupmode="layer" inkscape:label="Layer 1" class="st1" d="
		M393.5,379.2v149.3h78.2c30.8,0,59.2-10.8,59.2-42.5c0-21.4-15.4-31.2-32.4-36.4c10.4-4.2,22.1-12.9,22.1-31.2
		c0-23.4-23.2-39.3-54.5-39.3L393.5,379.2L393.5,379.2z M441.4,414H459c7.2,0,12.6,5.6,12.6,11.3c0,5.3-5.7,11-12.6,11h-17.6V414
		L441.4,414z M441.4,467.2h23.2c8.1,0,14.9,6.2,14.9,13.2c0,7.5-6.4,13.7-16.3,13.7h-21.8V467.2L441.4,467.2z M432.2,544.8v149.3
		h78.2c30.8,0,59.2-10.8,59.2-42.5c0-21.4-15.4-31.2-32.4-36.4c10.4-4.2,22.1-12.9,22.1-31.2c0-23.4-23.2-39.3-54.5-39.3H432.2
		L432.2,544.8z M480.1,579.6h17.6c7.2,0,12.6,5.6,12.6,11.3c0,5.3-5.7,11-12.6,11h-17.6V579.6L480.1,579.6z M480.1,632.8h23.2
		c8.1,0,14.9,6.2,14.9,13.2c0,7.5-6.4,13.7-16.3,13.7h-21.8V632.8L480.1,632.8z M534.6,528.5V379.2h120.4v36.1h-72.7v19.6h59v33.8
		h-59v23.9h72.7v35.9H534.6z M720.3,532.8c33.9,0,61-19.3,61-50.7c0-50.6-65.8-42.8-65.8-58.5c0-6.1,6.4-9.3,13-9.3
		c11.3,0,19.5,7.4,19.5,7.4l28.3-27C765,384,747.1,374.9,723,374.9c-36.2,0-59.8,21.5-59.8,47.4c0,51.2,64.8,43.8,64.8,59.9
		c0,5.6-5.4,11.3-15.2,11.3c-11.2,0-20-6.7-26.9-12.5l-28.5,27.1C668.9,519.3,687.3,532.8,720.3,532.8z M818.2,528.5V415.1h-39.4
		v-35.9h126.8v35.9h-39.4v113.4H818.2z M571.3,544.7H619v89.4c0,9.1,9,17.5,18.5,17.5c8.9,0,17.9-7.6,17.9-17.9v-89H703V633
		c0,35.1-29.1,63-66.7,63c-37.9,0-65-30.4-65-64.9L571.3,544.7z M761.8,694v-53.4l-56.1-96H754l31.8,51.4l31.9-51.4h48.4l-56.3,96.5
		V694H761.8z M866.1,626.4l-28.2,28.2v38l28.2,28.2h119.2v-94.4H866.1z M855.1,679.9c-3.5,0-6.3-2.8-6.3-6.3s2.8-6.3,6.3-6.3
		s6.3,2.8,6.3,6.3S858.6,679.9,855.1,679.9z"/>
</g>
</svg>
