<svg xmlns="http://www.w3.org/2000/svg" viewBox="0 0 1024 1024" style="enable-background:new 0 0 1024 1024" xml:space="preserve">
   <circle cx="512" cy="512" r="512" style="fill:#0046be"/>
   <path d="M360.9 427.2C371.3 423 383 414.3 383 396c0-23.4-23.2-39.3-54.5-39.3H256V506h78.2c30.8 0 59.2-10.8 59.2-42.5 0-21.4-15.5-31.2-32.5-36.3zm-57-35.6h17.6c7.2 0 12.6 5.6 12.6 11.3 0 5.3-5.7 11-12.6 11h-17.6v-22.3zm21.8 80.1h-21.8v-26.9h23.2c8.1 0 14.9 6.2 14.9 13.2.1 7.5-6.3 13.7-16.3 13.7zm74 121.1c10.4-4.2 22.1-12.9 22.1-31.2 0-23.4-23.2-39.3-54.5-39.3h-72.5v149.3H373c30.8 0 59.2-10.8 59.2-42.5-.1-21.4-15.5-31.2-32.5-36.3zm-57.1-35.6h17.6c7.2 0 12.6 5.6 12.6 11.3 0 5.3-5.7 11-12.6 11h-17.6v-22.3zm21.9 80.1h-21.8v-26.9h23.2c8.1 0 14.9 6.2 14.9 13.2 0 7.5-6.4 13.7-16.3 13.7zm32.6-131.2V356.8h120.4v36.1h-72.7v19.6h59v33.8h-59v23.9h72.7v35.9H397.1zm185.7 4.3c33.9 0 61-19.3 61-50.7 0-50.6-65.8-42.8-65.8-58.5 0-6.1 6.4-9.3 13-9.3 11.3 0 19.5 7.4 19.5 7.4l28.3-27c-11.3-10.8-29.2-19.8-53.3-19.8-36.2 0-59.8 21.5-59.8 47.4 0 51.2 64.8 43.8 64.8 59.9 0 5.6-5.4 11.3-15.2 11.3-11.2 0-20-6.7-26.9-12.5l-28.5 27.1c11.5 11.2 29.9 24.7 62.9 24.7zm97.9-4.3V392.7h-39.4v-35.9H768v35.9h-39.4v113.4h-47.9zm-246.9 16.2h47.8v89.4c0 9.1 9 17.5 18.5 17.5 8.9 0 17.9-7.6 17.9-17.9v-89h47.6v88.4c0 35.1-29.1 63-66.7 63-37.9 0-65-30.4-65-64.9l-.1-86.5zm190.5 149.3v-53.4l-56.1-96h48.3l31.8 51.4 31.9-51.4h48.4l-56.3 96.5v52.8h-48zM728.6 604l-28.2 28.2v38l28.2 28.2h119.2V604H728.6zm-11 53.5c-3.5 0-6.3-2.8-6.3-6.3s2.8-6.3 6.3-6.3 6.3 2.8 6.3 6.3-2.8 6.3-6.3 6.3z" style="fill:#fff"/>
</svg>
