<?xml version="1.0" encoding="utf-8"?>
<!-- Generator: Adobe Illustrator 21.0.0, SVG Export Plug-In . SVG Version: 6.00 Build 0)  -->
<svg version="1.1" xmlns="http://www.w3.org/2000/svg" xmlns:xlink="http://www.w3.org/1999/xlink" x="0px" y="0px"
	 viewBox="0 0 1024 1024" style="enable-background:new 0 0 1024 1024;" xml:space="preserve">
<style type="text/css">
	.st0{fill:#0046BE;}
	.st1{fill:#FFFFFF;}
</style>
<g id="Min_Guides__x28_DO_NOT_REMOVE_x29_">
</g>
<g id="Max_Guides__x28_DO_NOT_REMOVE_x29_">
</g>
<g id="Icon">
	<circle id="Background" class="st0" cx="512" cy="512" r="512"/>
	<path class="st1" d="M360.9,427.2c10.4-4.2,22.1-12.9,22.1-31.2c0-23.4-23.2-39.3-54.5-39.3H256v149.3h78.2
		c30.8,0,59.2-10.8,59.2-42.5C393.4,442.1,377.9,432.3,360.9,427.2z M303.9,391.6h17.6c7.2,0,12.6,5.6,12.6,11.3
		c0,5.3-5.7,11-12.6,11h-17.6V391.6z M325.7,471.7h-21.8v-26.9h23.2c8.1,0,14.9,6.2,14.9,13.2C342.1,465.5,335.7,471.7,325.7,471.7z
		 M399.7,592.8c10.4-4.2,22.1-12.9,22.1-31.2c0-23.4-23.2-39.3-54.5-39.3h-72.5v149.3h78.2c30.8,0,59.2-10.8,59.2-42.5
		C432.1,607.7,416.7,597.9,399.7,592.8z M342.6,557.2h17.6c7.2,0,12.6,5.6,12.6,11.3c0,5.3-5.7,11-12.6,11h-17.6V557.2z
		 M364.5,637.3h-21.8v-26.9h23.2c8.1,0,14.9,6.2,14.9,13.2C380.8,631.1,374.4,637.3,364.5,637.3z M397.1,506.1V356.8h120.4v36.1
		h-72.7v19.6h59v33.8h-59v23.9h72.7v35.9H397.1z M582.8,510.4c33.9,0,61-19.3,61-50.7c0-50.6-65.8-42.8-65.8-58.5
		c0-6.1,6.4-9.3,13-9.3c11.3,0,19.5,7.4,19.5,7.4l28.3-27c-11.3-10.8-29.2-19.8-53.3-19.8c-36.2,0-59.8,21.5-59.8,47.4
		c0,51.2,64.8,43.8,64.8,59.9c0,5.6-5.4,11.3-15.2,11.3c-11.2,0-20-6.7-26.9-12.5l-28.5,27.1C531.4,496.9,549.8,510.4,582.8,510.4z
		 M680.7,506.1V392.7h-39.4v-35.9H768v35.9h-39.4v113.4H680.7z M433.8,522.3h47.8v89.4c0,9.1,9,17.5,18.5,17.5
		c8.9,0,17.9-7.6,17.9-17.9v-89h47.6v88.4c0,35.1-29.1,63-66.7,63c-37.9,0-65-30.4-65-64.9L433.8,522.3z M624.3,671.6v-53.4
		l-56.1-96h48.3l31.8,51.4l31.9-51.4h48.4l-56.3,96.5v52.8H624.3z M728.6,604l-28.2,28.2v38l28.2,28.2h119.2V604H728.6z
		 M717.6,657.5c-3.5,0-6.3-2.8-6.3-6.3s2.8-6.3,6.3-6.3s6.3,2.8,6.3,6.3S721.1,657.5,717.6,657.5z"/>
</g>
</svg>
