<svg xmlns="http://www.w3.org/2000/svg" viewBox="0 0 1024 1024" style="enable-background:new 0 0 1024 1024" xml:space="preserve">
   <circle cx="512" cy="512" r="512" style="fill:#191919"/>
   <path d="M163.5 504.4h43.8V459h-43.8v45.4zm234.1.2v-17.1h12.6v-23h28.4v23h15.2v17.8h-15.2v26.4c0 7 1.6 10 8.7 10 2.2 0 4.3-.1 6.5-.4v21.9c-5.7 0-12.2.9-18.2.9-12 0-25.4-1.9-25.4-22.6v-36.1h-12.3c3.4 7.1 5.1 16 5.1 26.5h-54.5c.7 8.6 5.6 14.7 14.5 14.7 4.6 0 9.6-1.7 11.9-5.4h26.5c-5.7 16.3-21.4 23.9-38.3 23.9-23.8 0-41.7-14.3-41.7-39.5 0-22 15.8-39.9 39.3-39.9 18.7-.1 30.6 6.6 36.9 18.9zm-218.7-16.2V475h12.9v13.4h-12.9zm45.7 74.7v-104h56c27 0 32.7 15.4 32.7 26.1 0 10.5-5 16.2-12.6 20.4 9.2 3.2 17.8 10.6 17.8 25.9 0 20.8-17.8 31.6-35.8 31.6h-58.1zm31.5-79.2v15.7h16.6c6.6 0 10.7-1.9 10.7-8.6 0-5.3-4.3-7.1-10.7-7.1h-16.6zm0 35.1v19.4h18.5c6.6 0 12.3-1.9 12.3-9.9 0-6.1-3.6-9.5-11-9.5h-19.8zm92.6-2.2h27.1c0-7-5.2-12.7-12.5-12.7-8.5 0-13.3 4.5-14.6 12.7zm109.8 46.3v-104h28.4v36.5h.3c4.9-5.8 11.2-10 23.2-10 13.3 0 25.5 8.3 25.5 25.6V563h-28.4v-39.6c0-8.7-1-14.9-9.3-14.9-4.9 0-11.3 2.5-11.3 14.6V563h-28.4zm162.6-31.3h-54.5c.7 8.6 5.6 14.7 14.5 14.7 4.6 0 9.6-3.1 11.9-6.8h26.5c-5.7 16.3-21.4 25.3-38.3 25.3-23.8 0-41.7-14.3-41.7-39.5 0-22 15.8-39.9 39.3-39.9 29.6 0 42.3 16.8 42.3 46.2zm-54.3-15h27.1c0-7-5.1-12.7-12.5-12.7-8.4 0-13.3 4.5-14.6 12.7zm125.8-7.3h-25.8c-.2-2.5-1.4-4.4-3.3-5.7-1.7-1.5-4-2.2-6.3-2.2-4 0-8.6.9-8.6 5.8 0 2.2 1.7 3.2 3.3 3.9 4.7 2 15.5 2.6 24.9 5.8 9.5 3.1 17.8 8.7 17.8 21.1 0 21-19.8 26.6-37.9 26.6-17.5 0-36.7-5.8-37.1-25.3h27.1c.1 2.6 1.3 3.4 3.4 5.3 1.4 1.3 4.2 2.2 7.6 2.2 3.7 0 9.6-1.5 9.6-5.8 0-4.4-2.4-5.7-15.6-8-21.6-3.8-30.4-10.8-30.4-23.7 0-19.1 20.2-24 35.1-24 16.1.1 35.5 4.6 36.2 24zm83.6-50.4v104h-27.4v-8.3h-.3c-3.6 4.8-7.9 10.2-21.8 10.2-21.1 0-31.2-21.1-31.2-40.1 0-17.8 6.7-39.3 31.7-39.3 8.4 0 16.1 3.8 20.4 10.2h.3v-36.7h28.3zm80.9 56.1v31c0 5.7.3 12.1 3.4 16.9h-29c-.7-2-1.2-5.1-1-7.1h-.3c-6 7-14.8 9-23.9 9-14.3 0-26.2-7-26.2-22.9 0-23.9 27.5-23 42-25.8 3.9-.7 7.7-1.9 7.7-6.7 0-5.1-4.7-7-9.3-7-8.7 0-10.5 4.5-10.6 7.7h-26.4c.9-21.3 20.6-24.7 38.3-24.7 35.5 0 35.3 15 35.3 29.6zm-108.2 10c0-8.9-2.3-18.6-12.5-18.6s-12.5 9.8-12.5 18.6c0 9 2.3 18.8 12.5 18.8s12.5-9.8 12.5-18.8zm80.9 10.9v-7c-3.4 1.8-7.3 2.8-11.2 3.6-6.3 1.4-9.6 3.1-9.6 8.2 0 3.5 3.7 7 8.9 7 6.5 0 11.5-3.9 11.9-11.8zm-666.3-31.7h43.8V459h-43.8v45.4zm234.1.2v-17.1h12.6v-23h28.4v23h15.2v17.8h-15.2v26.4c0 7 1.6 10 8.7 10 2.2 0 4.3-.1 6.5-.4v21.9c-5.7 0-12.2.9-18.2.9-12 0-25.4-1.9-25.4-22.6v-36.1h-12.3c3.4 7.1 5.1 16 5.1 26.5h-54.5c.7 8.6 5.6 14.7 14.5 14.7 4.6 0 9.6-1.7 11.9-5.4h26.5c-5.7 16.3-21.4 23.9-38.3 23.9-23.8 0-41.7-14.3-41.7-39.5 0-22 15.8-39.9 39.3-39.9 18.7-.1 30.6 6.6 36.9 18.9zm-218.7-16.2V475h12.9v13.4h-12.9zm45.7 74.7v-104h56c27 0 32.7 15.4 32.7 26.1 0 10.5-5 16.2-12.6 20.4 9.2 3.2 17.8 10.6 17.8 25.9 0 20.8-17.8 31.6-35.8 31.6h-58.1zm31.5-79.2v15.7h16.6c6.6 0 10.7-1.9 10.7-8.6 0-5.3-4.3-7.1-10.7-7.1h-16.6zm0 35.1v19.4h18.5c6.6 0 12.3-1.9 12.3-9.9 0-6.1-3.6-9.5-11-9.5h-19.8zm92.6-2.2h27.1c0-7-5.2-12.7-12.5-12.7-8.5 0-13.3 4.5-14.6 12.7zm109.8 46.3v-104h28.4v36.5h.3c4.9-5.8 11.2-10 23.2-10 13.3 0 25.5 8.3 25.5 25.6V563h-28.4v-39.6c0-8.7-1-14.9-9.3-14.9-4.9 0-11.3 2.5-11.3 14.6V563h-28.4zm162.6-31.3h-54.5c.7 8.6 5.6 14.7 14.5 14.7 4.6 0 9.6-3.1 11.9-6.8h26.5c-5.7 16.3-21.4 25.3-38.3 25.3-23.8 0-41.7-14.3-41.7-39.5 0-22 15.8-39.9 39.3-39.9 29.6 0 42.3 16.8 42.3 46.2zm-54.3-15h27.1c0-7-5.1-12.7-12.5-12.7-8.4 0-13.3 4.5-14.6 12.7zm125.8-7.3h-25.8c-.2-2.5-1.4-4.4-3.3-5.7-1.7-1.5-4-2.2-6.3-2.2-4 0-8.6.9-8.6 5.8 0 2.2 1.7 3.2 3.3 3.9 4.7 2 15.5 2.6 24.9 5.8 9.5 3.1 17.8 8.7 17.8 21.1 0 21-19.8 26.6-37.9 26.6-17.5 0-36.7-5.8-37.1-25.3h27.1c.1 2.6 1.3 3.4 3.4 5.3 1.4 1.3 4.2 2.2 7.6 2.2 3.7 0 9.6-1.5 9.6-5.8 0-4.4-2.4-5.7-15.6-8-21.6-3.8-30.4-10.8-30.4-23.7 0-19.1 20.2-24 35.1-24 16.1.1 35.5 4.6 36.2 24zm83.6-50.4v104h-27.4v-8.3h-.3c-3.6 4.8-7.9 10.2-21.8 10.2-21.1 0-31.2-21.1-31.2-40.1 0-17.8 6.7-39.3 31.7-39.3 8.4 0 16.1 3.8 20.4 10.2h.3v-36.7h28.3zm80.9 56.1v31c0 5.7.3 12.1 3.4 16.9h-29c-.7-2-1.2-5.1-1-7.1h-.3c-6 7-14.8 9-23.9 9-14.3 0-26.2-7-26.2-22.9 0-23.9 27.5-23 42-25.8 3.9-.7 7.7-1.9 7.7-6.7 0-5.1-4.7-7-9.3-7-8.7 0-10.5 4.5-10.6 7.7h-26.4c.9-21.3 20.6-24.7 38.3-24.7 35.5 0 35.3 15 35.3 29.6zm-108.2 10c0-8.9-2.3-18.6-12.5-18.6s-12.5 9.8-12.5 18.6c0 9 2.3 18.8 12.5 18.8s12.5-9.8 12.5-18.8zm80.9 10.9v-7c-3.4 1.8-7.3 2.8-11.2 3.6-6.3 1.4-9.6 3.1-9.6 8.2 0 3.5 3.7 7 8.9 7 6.5 0 11.5-3.9 11.9-11.8z" style="fill:#fff"/>
</svg>
