<svg xmlns="http://www.w3.org/2000/svg" viewBox="0 0 1024 1024" style="enable-background:new 0 0 1024 1024" xml:space="preserve">
   <circle cx="512" cy="512" r="512" style="fill:#f50"/>
   <path d="m700 438.9-45.4-45.4c-.4-.4-.9-.5-1.3-.2-.5.2-.7.6-.7 1.1v318.8c0 .5.3.9.7 1.1.2.1.3.1.5.1.3 0 .6-.2.9-.4l45.4-45.4c1.7-1.7 3.1-5.1 3.1-7.5V446.5c-.1-2.4-1.6-6-3.2-7.6m-242.6-72.3c-1.3 0-2.5-1.1-2.5-2.5V230.2c0-.5-.3-.9-.7-1.1-.5-.2-1-.1-1.3.2l-45.4 45.4c-1.7 1.7-3.2 5.2-3.2 7.5V416c0 .7.6 1.3 1.3 1.3h160.7c1.3 0 2.5 1.1 2.5 2.5v24c0 3.5-2.8 6.3-6.3 6.3H405.6c-.3 0-.6.2-.9.4-.2.2-.4.5-.4.9V622c0 19.6 16 35.6 35.6 35.6h122.5c3.5 0 6.3 2.8 6.3 6.3v24c0 1.3-1.1 2.5-2.5 2.5H439.9c-37.7 0-68.4-30.7-68.4-68.4V313.6c0-.5-.3-.9-.7-1.1-.5-.2-1-.1-1.3.2L324 358.2c-1.7 1.7-3.1 5.2-3.1 7.5v271.1c0 57.5 46.7 104.3 104.2 104.3h193.2c.7 0 1.3-.6 1.3-1.3l.2-371.8c0-.7-.7-1.3-1.3-1.3l-161.1-.1zM568.8 507v93.6c0 3.5-2.8 6.3-6.3 6.3H457.7c-1.3 0-2.5-1.1-2.5-2.5V507c0-3.5 2.8-6.3 6.3-6.3h100.9c3.6-.1 6.4 2.8 6.4 6.3" style="fill:#fff"/>
</svg>
