<?xml version="1.0" encoding="utf-8"?>
<!-- Generator: Adobe Illustrator 21.0.0, SVG Export Plug-In . SVG Version: 6.00 Build 0)  -->
<svg version="1.1" xmlns="http://www.w3.org/2000/svg" xmlns:xlink="http://www.w3.org/1999/xlink" x="0px" y="0px"
	 viewBox="0 0 1024 1024" style="enable-background:new 0 0 1024 1024;" xml:space="preserve">
<style type="text/css">
	.st0{fill:#FF5500;}
	.st1{fill:#FFFFFF;}
</style>
<g id="Min_Guides__x28_DO_NOT_REMOVE_x29_">
</g>
<g id="Max_Guides__x28_DO_NOT_REMOVE_x29_">
</g>
<g id="Icon">
	<circle id="Background" class="st0" cx="512" cy="512" r="512"/>
	<path class="st1" d="M700,438.9l-45.4-45.4c-0.4-0.4-0.9-0.5-1.3-0.2c-0.5,0.2-0.7,0.6-0.7,1.1v318.8c0,0.5,0.3,0.9,0.7,1.1
		c0.2,0.1,0.3,0.1,0.5,0.1c0.3,0,0.6-0.2,0.9-0.4l45.4-45.4c1.7-1.7,3.1-5.1,3.1-7.5V446.5C703.1,444.1,701.6,440.5,700,438.9
		 M457.4,366.6c-1.3,0-2.5-1.1-2.5-2.5V230.2c0-0.5-0.3-0.9-0.7-1.1c-0.5-0.2-1-0.1-1.3,0.2l-45.4,45.4c-1.7,1.7-3.2,5.2-3.2,7.5
		V416c0,0.7,0.6,1.3,1.3,1.3h160.7c1.3,0,2.5,1.1,2.5,2.5v24c0,3.5-2.8,6.3-6.3,6.3H405.6c-0.3,0-0.6,0.2-0.9,0.4
		c-0.2,0.2-0.4,0.5-0.4,0.9V622c0,19.6,16,35.6,35.6,35.6h122.5c3.5,0,6.3,2.8,6.3,6.3v24c0,1.3-1.1,2.5-2.5,2.5H439.9
		c-37.7,0-68.4-30.7-68.4-68.4V313.6c0-0.5-0.3-0.9-0.7-1.1c-0.5-0.2-1-0.1-1.3,0.2L324,358.2c-1.7,1.7-3.1,5.2-3.1,7.5v271.1
		c0,57.5,46.7,104.3,104.2,104.3h193.2c0.7,0,1.3-0.6,1.3-1.3l0.2-371.8c0-0.7-0.7-1.3-1.3-1.3L457.4,366.6L457.4,366.6z M568.8,507
		v93.6c0,3.5-2.8,6.3-6.3,6.3H457.7c-1.3,0-2.5-1.1-2.5-2.5V507c0-3.5,2.8-6.3,6.3-6.3h100.9C566,500.6,568.8,503.5,568.8,507"/>
</g>
</svg>
