<?xml version="1.0" encoding="utf-8"?>
<!-- Generator: Adobe Illustrator 21.0.0, SVG Export Plug-In . SVG Version: 6.00 Build 0)  -->
<svg version="1.1" xmlns="http://www.w3.org/2000/svg" xmlns:xlink="http://www.w3.org/1999/xlink" x="0px" y="0px"
	 viewBox="0 0 1024 1024" style="enable-background:new 0 0 1024 1024;" xml:space="preserve">
<style type="text/css">
	.st0{fill:#F3BA2F;}
	.st1{fill:#FFFFFF;}
</style>
<g id="Guides">
</g>
<g id="Icon">
	<circle class="st0" cx="512" cy="512" r="512"/>
	<g>
		<polygon class="st1" points="404.9,468 512,360.9 619.1,468.1 681.4,405.8 512,236.3 342.6,405.7 		"/>
		
			<rect x="254.6" y="467.9" transform="matrix(0.7071 -0.7071 0.7071 0.7071 -274.5652 361.1246)" class="st1" width="88.1" height="88.1"/>
		<polygon class="st1" points="404.9,556 512,663.1 619.1,555.9 681.5,618.2 681.4,618.2 512,787.7 342.6,618.3 342.5,618.2 		"/>
		
			<rect x="681.3" y="468" transform="matrix(0.7071 -0.7071 0.7071 0.7071 -149.5987 662.8792)" class="st1" width="88.1" height="88.1"/>
		<polygon class="st1" points="575.2,512 575.2,512 512,448.7 465.3,495.5 465.3,495.5 459.9,500.8 448.8,511.9 448.8,511.9 
			448.7,512 448.8,512.1 512,575.3 575.2,512 575.2,512 		"/>
	</g>
</g>
</svg>
