<svg xmlns="http://www.w3.org/2000/svg" viewBox="0 0 1024 1024">
   <circle cx="512" cy="512" r="512" style="fill:#7ec2b1"/>
   <path d="M529.24 521.86v95.6L612 569.65v-95.52Zm-100-77.59L512 492l82.77-47.73L512 396.46ZM412 569.65l82.76 47.81v-95.6L412 474.13Zm314.63-48.33-14.47-10.22 14.45-10.21a98.08 98.08 0 0 0-7.88-165.1l-1.27-.78a98.24 98.24 0 0 0-88.85-4.72l-15.71 7-1.85-17.12a98.49 98.49 0 0 0-48.64-74.69l-.43-.19a97.38 97.38 0 0 0-49-13.14 98.54 98.54 0 0 0-50.87 14.15l-2.48 1.51a98.88 98.88 0 0 0-46.54 72.55l-2 16.92-15.51-6.9a98.09 98.09 0 0 0-89 4.62l-1.55.87a98.42 98.42 0 0 0-49 84.21v3.28a98.4 98.4 0 0 0 41.44 79.28l14.4 10.21-14.4 10.21A98.47 98.47 0 0 0 256 602.4v1.53a98.32 98.32 0 0 0 49.11 84.19l1.41.88a98.65 98.65 0 0 0 88.95 4.67l15.71-7 1.8 17.12a98.52 98.52 0 0 0 48.39 74.55l.63.34a98.12 98.12 0 0 0 99.94-1.12l2.43-1.47a98.66 98.66 0 0 0 46.54-72.55l2-16.92 15.56 7a97.79 97.79 0 0 0 40 8.46 98.78 98.78 0 0 0 49.16-13.18l1.37-.82a98.29 98.29 0 0 0 49-84.91v-1.8a98.45 98.45 0 0 0-41.39-80.05Zm-13.93 81.85a42.93 42.93 0 0 1-21.4 37l-1.46.88a43.19 43.19 0 0 1-42.84 0L607.17 618l-50.87 29.47v44.84a43 43 0 0 1-20.57 36.57l-2.48 1.51a42.9 42.9 0 0 1-43.57.48l-.53-.34a43 43 0 0 1-21.45-37v-46L416.83 618 377 641.1a43 43 0 0 1-42.75 0l-1.51-.93a42.74 42.74 0 0 1-.44-73.86l41.53-24.57-.34-58.6-40.75-23.54a42.79 42.79 0 0 1-21.45-37v-1.75a42.94 42.94 0 0 1 21.45-37.06l1.46-.92a43.07 43.07 0 0 1 42.8 0l39.82 23.05 50.87-29.37V331.7a43.22 43.22 0 0 1 20.63-36.57l2.48-1.5a42.7 42.7 0 0 1 43.53-.49l.54.29a42.85 42.85 0 0 1 21.44 37.11v46l50.87 29.37L647 382.86a43.16 43.16 0 0 1 42.84 0l1.46.92a42.8 42.8 0 0 1 .44 73.87l-41.58 24.56.34 58.6 40.8 23.54a42.81 42.81 0 0 1 21.4 37Z" style="fill:#fff"/>
</svg>
