<svg xmlns="http://www.w3.org/2000/svg" viewBox="0 0 1024 1024">
   <circle cx="512" cy="512" r="512" style="fill:#9b2ad6"/>
   <path d="M568.52 527.07c0 34.8-23.27 55.86-54.31 55.86s-54.53-21.06-54.53-55.86c0-35 23.5-56.08 54.53-56.08s54.31 21.06 54.31 56.08ZM778 512c0 146.91-119.09 266-266 266S246 658.91 246 512s119.09-266 266-266 266 119.09 266 266Zm-159.16 15.07h-.44c0-63.62-46.55-104-106.4-104-26.6 0-48.32 7.76-64.28 24.38v-98h-53.87v278.48h51.2v-23.27c15.52 17.51 38.58 26.34 67.39 26.34 59.85 0 106.4-40.53 106.4-103.93Zm70.71 71.6c0-17.73-13.74-29.26-31.48-29.26-17.29 0-31 11.53-31 29.26 0 17.29 13.74 29.92 31.25 29.92 17.27.01 31.24-12.18 31.24-29.92Z" style="fill:#fff"/>
</svg>
