<svg xmlns="http://www.w3.org/2000/svg" viewBox="0 0 1024 1024">
   <circle cx="512" cy="512" r="512" style="fill:#3d6189"/>
   <path d="M423.14 291.26a124.83 124.83 0 0 1 108.08 62.63H315.06a124.82 124.82 0 0 1 108.08-62.63Zm123 62.63h170.47A131.19 131.19 0 0 0 473.94 288a138.8 138.8 0 0 1 72.15 65.86Zm-33.3 339.2c83.82 0 152-68.2 152-152s-68.2-152-152-152-152 68.19-152 152 68.19 152 152 152Zm247.58-326.15A19.6 19.6 0 0 1 780 386.51v312a19.6 19.6 0 0 1-19.58 19.58H263.58A19.6 19.6 0 0 1 244 698.48v-312a19.6 19.6 0 0 1 19.58-19.58ZM587.93 595.15a39.83 39.83 0 0 0 4.43-18.73q0-17.49-13.93-27.8t-43.29-14.41q24.4-2.59 36.76-11.5t12.36-23.59q0-20.29-18.08-29c-8-3.86-20-6.4-35.75-7.69v-29.72c0-5.44-4.12-9.85-9.21-9.85s-9.21 4.41-9.21 9.85v28.85c-2.63-.05-5.27-.1-8.06-.1h-10.37v-28.75c0-5.44-4.12-9.85-9.21-9.85s-9.21 4.41-9.21 9.85v28.75h-41.92V473l6.58.43Q448 474 451 477.6t3 18.19v90.68q0 14.47-3 18.08t-11.06 4.16l-6.69.54v11.44h41.91v28.75c0 5.44 4.12 9.85 9.21 9.85s9.21-4.41 9.21-9.85v-28.76H512v28.75c0 5.44 4.12 9.85 9.21 9.85s9.21-4.41 9.21-9.85v-29.12a166.22 166.22 0 0 0 22.58-2.16q13.44-2.54 22-8.47a41 41 0 0 0 13-14.52ZM512.79 402.1c76.63 0 139 62.34 139 139s-62.34 139-139 139-139-62.34-139-139 62.34-139 139-139Zm25.38 146.26q11.12 8.1 11.12 26.77 0 17.16-8.85 26.18t-25.69 9q-12.2 0-16.46-3.72T494 586.46v-46q1.19 0 3.62-.11t3.72-.11q25.69 0 36.81 8.1Zm-34-19.43q-4 0-6.15-.05t-4-.16v-32.93q0-15.87 4.21-19.32t17.05-3.47q12.85 0 20.35 7.34t7.5 20.08q0 15.44-8.85 22t-30.12 6.53Z" style="fill:#fff"/>
</svg>
