<svg xmlns="http://www.w3.org/2000/svg" viewBox="0 0 1024 1024">
   <circle cx="512" cy="512" r="512" style="fill:#0ac18e"/>
   <path d="M437.36 437.36H300.5V311.29a10.78 10.78 0 0 1 10.5-10.77h126.36Zm141 0V300.52H445.65v136.84Zm145.15 0V311.29A10.78 10.78 0 0 0 713 300.52H586.64v136.84Zm-286.14 8.29H300.5v132.7h136.86Zm8.29 132.69h132.69V445.65h-132.7Zm141-132.69v132.7H723.5v-132.7Zm-286.14 141v126.07a10.77 10.77 0 0 0 10.41 10.76h126.43V586.64Zm145.15 0v136.83h132.68V586.64Zm141 136.84h126.42a10.77 10.77 0 0 0 10.41-10.76V586.64H586.64Z" style="fill:#fff"/>
</svg>
