<?xml version="1.0" encoding="utf-8"?>
<!-- Generator: Adobe Illustrator 21.0.0, SVG Export Plug-In . SVG Version: 6.00 Build 0)  -->
<svg version="1.1" xmlns="http://www.w3.org/2000/svg" xmlns:xlink="http://www.w3.org/1999/xlink" x="0px" y="0px"
	 viewBox="0 0 1024 1024" style="enable-background:new 0 0 1024 1024;" xml:space="preserve">
<style type="text/css">
	.st0{fill:#FF0000;}
	.st1{fill:#FFFFFF;}
</style>
<g id="Guides">
</g>
<g id="Icon">
	<circle class="st0" cx="512" cy="512" r="512"/>
	<path class="st1" d="M608.3,499.9v-1.3c46.5-14,78.2-47.7,78.2-98.6c0-82.1-70-113.3-138-113.3H383.9v0h-65.5v6.7l23.1,19.6
		c27.7,22.6,31.4,27,31.4,47.4v376.8h162.4c85.2,0,170.5-30.6,170.5-128.6C705.7,550.9,664.9,506.3,608.3,499.9z M453,355.5h66.1
		c44.7,0,58.6,6.2,72.2,19c10.3,9.8,15,23.2,15.1,38.9c0,14.5-5,27.6-15.6,37.7c-13.2,12.7-31.4,18.9-64.6,18.9H453V355.5z
		 M526.8,668.6H453V538.7h77c64.9,0,95.5,16.5,95.5,63.6C625.5,661.6,568.1,668.6,526.8,668.6z"/>
</g>
</svg>
