<svg xmlns="http://www.w3.org/2000/svg" viewBox="0 0 1024 1024">
   <circle cx="512" cy="512" r="512" style="fill:#f0bd42"/>
   <path d="M431.47 489.13v94q5 27.91 20.58 43.24C467.79 641.93 487.29 652 512 652c26 0 45.64-9.57 61.79-28q14.24-16.27 18.73-40.86v-94ZM512 733.48c-50.73 0-102.35-27.52-127.84-65.23q-24.3-35.95-27.3-77.33V486.78h-11.73q-65.29 0-100.94-40.91T206 357v-14.48h75.08V357q1.07 15.15 15.29 33.69t48.77 22.11h11.72v-70.28H430v70.28h159.8v-70.28h73.72v70.28H680q33.24-6 46.18-22.11T742.74 357v-14.48H818V357q-4.47 49-40.32 88.88T680 486.78h-16.49v104.14a158.33 158.33 0 0 1-26.41 77.33c-28.1 42.27-70.71 65.23-125.1 65.23Z" style="fill:#fff"/>
</svg>
