<?xml version="1.0" encoding="utf-8"?>
<!-- Generator: Adobe Illustrator 21.0.0, SVG Export Plug-In . SVG Version: 6.00 Build 0)  -->
<svg version="1.1" xmlns="http://www.w3.org/2000/svg" xmlns:xlink="http://www.w3.org/1999/xlink" x="0px" y="0px"
	 viewBox="0 0 1024 1024" style="enable-background:new 0 0 1024 1024;" xml:space="preserve">
<style type="text/css">
	.st0{fill:#009FE8;}
	.st1{fill:#FFFFFF;}
</style>
<g id="Guides">
</g>
<g id="Icon">
	<circle class="st0" cx="512" cy="512" r="512"/>
	<g>
		<path class="st1" d="M553.1,467c0.3-29.8-44.5-25.7-58.5-25.7v50.3C508.6,492,552.7,495.4,553.1,467z"/>
		<path class="st1" d="M494.2,517v55.4c16.8,0,69.8,3.8,70.2-27.4C564.7,512.5,511,517,494.2,517z"/>
		<path class="st1" d="M711.9,301.7c-39.7-1.7-133.8-9.9-199.9-45.2c-66.1,35.3-160.2,43.5-199.9,45.2c-10.6,0.7-18.8,9.6-18.8,20.2
			v98.2c0,273.1,218.7,347.4,218.7,347.4s218.7-74.3,218.7-347.4v-98.2C730.7,311.3,722.5,302.4,711.9,301.7z M614,550.2
			c-4.1,39.7-33.5,50.3-76,52.4v41.8h-25.3v-41.1c-6.5,0-13.3,0-20.2-0.3v41.4h-25v-41.8c-5.8-0.3-45.9,0-45.9,0l0.3-30.5h28.4
			V438.9h-32.2v-26.4c0,0,45.2-0.3,50.7-0.3l-0.3-41.4h25.3v40.7c6.8,0,14,0,20.5,0v-40.4h25.3v41.8c32.5,3.1,57.8,13.3,60.6,43.1
			c2.1,21.9-7.2,34.9-21.9,41.8C602.4,503.6,617.1,518.3,614,550.2z"/>
	</g>
</g>
</svg>
