<svg xmlns="http://www.w3.org/2000/svg" viewBox="0 0 1024 1024">
   <circle cx="512" cy="512" r="512" style="fill:#07aba6"/>
   <path d="M688.76 498.84c-.87-.72-1.75-1.42-2.64-2.11q23.88-34.53 23.93-84.09 0-73.49-50.49-115.07Q609.1 256 520.7 256H373.87v20.5H518c50.1 0 95.46 10.33 123.15 34.24 19.54 16.89 35.73 39.59 43.58 66.94-7.92-24.86-23.81-39.91-37.6-50.39-20.94-15.89-45-28.69-113.06-28.69H420.83v20s50.67-.66 110.72 0c58 .6 79.33 7.15 98.85 21.6 25 18.47 40.49 41.27 40.49 73.17 0 24.61-10.08 43.46-27 59.48q-3-1.16-6-2.23l1.87-1c18.38-10.12 30.64-30.94 30.64-57.67 0-29.86-16.67-47.76-33.43-58.24-15.71-9.85-29.5-16.49-94.53-16.49h-81.4v13.16h79.15c57.61 0 79.45 10.24 86.06 14.3 12.95 7.93 30 20.85 30 47.16 0 16.82-9.94 37.94-24.63 46.23a80.18 80.18 0 0 1-15.08 6.35q-30.1-7.13-66.69-7.13h-98.22v15.11H284.75v13.16h266.88c22 0 37.94-1 50.35-3a206.14 206.14 0 0 1 22.57 5.44c-10.88 6.53-23.5 10.32-35.56 12.54-7.81-.46-16.35-.71-25.73-.71H409.32v20s24.12-.17 55.72-.25v4.28s38.84.54 62.84 0c21.41-.48 39.43-1.27 55.25-3.38 16.23.78 28.88 2.25 39.27 4.5-14.67 7.28-32.13 12.58-51 16.06H467.95v5.2H345.7v20.52h166.71q50.29 0 88.67-11.82c34.41 2.72 49.17 9.55 54.4 12.66 12.92 7.66 30 20.1 30 45.51 0 16.25-9.94 36.62-24.66 44.61-13.4 7.3-37.88 13.82-81 13.82H313.95v12.71H580.8c52 0 69.87-5.56 88.19-15.32S699.6 639 699.6 613.17c0-28.81-16.64-46.08-33.4-56.2-9.35-5.66-18-10.21-37.13-13a168.5 168.5 0 0 0 18.26-10.28 93.5 93.5 0 0 1 12.24 7.75c25 18.5 40.52 41.27 40.52 73.17 0 30.76-15.74 52.54-40.85 71-25.68 18.89-64.94 19.13-81 19.49-6 .12-84.08 0-84.08 0v20s38.84.54 62.87 0c55.06-1.26 87.77-4.54 118.2-27.12 28.54-21.21 43.64-49.17 43.64-84.59 0-1.36 0-2.71-.06-4 .09 2 .15 4.09.15 6.16 0 42.41-18.14 73.86-46.95 97.65s-80.2 34.27-131.63 34.27H374.89V768H541.6q93 0 145.32-40.4t52.33-113.66q0-73.55-50.49-115.1Zm1-86.66c0-1.38 0-2.73-.06-4.07.09 2 .15 4.09.15 6.17 0 27.9-7.85 51-21.41 70.38-1.76-1-3.56-2-5.38-3 17.53-18.85 26.69-41.9 26.69-69.48Zm-43.67 84.56.29-.22q4.37 2.11 8.43 4.49-4.88 5-10.33 9.6a132.7 132.7 0 0 0-13.71-4.2 117 117 0 0 0 15.3-9.67Zm30.25 31.81c-3.68-2.78-7.45-5.47-11.54-8q3.84-3.37 7.35-6.94c18.73 16.72 34.17 38.86 41.77 65.39-7.92-24.89-23.81-40-37.6-50.45Zm-90.34-137H394.15v-10.72H586Zm-205.76-51.28h50.58v9.22h-50.58Zm109.82 84v-10.7h92.28v10.72Zm-29.2 0H345v-10.7h115.86ZM317.79 747.8h30.55v19.4h-30.55Zm268.75-151.36H442.27v-11.18h144.27Zm-84.77 39.08v-9.62h83.93v9.61Zm-84.14-50.25v11.17h-42.74v-11.18Zm52.78 138.5H348.25v-13.4h122.16Zm-122.16-98.65h129.82v11.18H348.25Z" style="fill:#fff"/>
</svg>
