<?xml version="1.0" encoding="utf-8"?>
<!-- Generator: Adobe Illustrator 21.0.0, SVG Export Plug-In . SVG Version: 6.00 Build 0)  -->
<svg version="1.1" xmlns="http://www.w3.org/2000/svg" xmlns:xlink="http://www.w3.org/1999/xlink" x="0px" y="0px"
	 viewBox="0 0 1024 1024" style="enable-background:new 0 0 1024 1024;" xml:space="preserve">
<style type="text/css">
	.st0{fill:#282828;}
	.st1{fill:#FFFFFF;}
</style>
<g id="Guides">
</g>
<g id="Icon">
	<circle class="st0" cx="512" cy="512" r="512"/>
	<path class="st1" d="M424.4,468.9c24,0,40,16.2,40,41.4c0,25.2-16,41.4-40,41.4c-10,0-18.7-3.9-23.7-9.4v42.4L383,595.1V469.9h17.7
		v8.4C405.9,473.3,413.8,468.9,424.4,468.9L424.4,468.9z M210.2,429v49.2c5-5.5,13.7-9.4,23.7-9.4c24,0,40,16.2,40,41.4
		c0,25.2-16,41.4-40,41.4c-10.6,0-18.5-4.4-23.7-9.4v8.4h-17.7V439.2L210.2,429z M346.9,428.9v41H365V487h-18.1v28.5
		c0,9.9,8.2,18.1,18.1,18.1v18.1c-19.8,0-36.1-16.2-36.1-36.2v-76.3L346.9,428.9L346.9,428.9z M514.7,468.9c10.6,0,19.7,5,23.1,9.4
		v-8.4h18.1v80.9h-18.1v-8.4c-3.4,4.4-12.3,9.4-23.1,9.4c-23.1,0-40.5-17.1-40.5-41.4C474.2,486,491.7,468.9,514.7,468.9z
		 M737.7,429v121.7h-17.7v-8.4c-5.2,5-13.1,9.4-23.7,9.4c-24,0-40-16.2-40-41.4c0-25.2,16-41.4,40-41.4c10,0,18.7,3.9,23.7,9.4
		v-39.1L737.7,429L737.7,429z M790.5,468.9c10.6,0,19.7,5,23.1,9.4v-8.4h18.1v80.9h-18.1v-8.4c-3.4,4.4-12.3,9.4-23.1,9.4
		c-23.1,0-40.5-17.1-40.5-41.4C750,486,767.4,468.9,790.5,468.9z M306.7,469.9v80.9H289v-80.9H306.7z M614.4,468.9
		c20,0,31,11.8,31,33.3v48.5h-17.7v-44.6c0-14.2-6-20.4-17.6-20.4c-11.6,0-17.7,8.4-17.7,20.4v44.6h-17.7v-80.9h17.7v9.2
		C596,474.2,603.3,468.9,614.4,468.9L614.4,468.9z M233.1,486c-14,0-23.2,10.3-23.2,24.3c0,13.9,9.2,24.3,23.2,24.3
		c14,0,23.4-10.3,23.4-24.3C256.4,496.4,247.1,486,233.1,486z M423.6,486c-14,0-23.2,10.3-23.2,24.3c0,13.9,9.2,24.3,23.2,24.3
		c14,0,23.4-10.3,23.4-24.3C447,496.4,437.6,486,423.6,486z M515.4,486c-13.4,0-23.7,11-23.7,24.3c0,13.3,10.3,24.3,23.7,24.3
		c13.1,0,23.1-11,23.1-24.3C538.4,497,528.4,486,515.4,486L515.4,486z M697,486c-14,0-23.4,10.3-23.4,24.3
		c0,13.9,9.4,24.3,23.4,24.3s23.2-10.3,23.2-24.3C720.2,496.4,711,486,697,486z M791.1,486c-13.4,0-23.7,11-23.7,24.3
		c0,13.3,10.3,24.3,23.7,24.3c13.1,0,23.1-11,23.1-24.3C814.2,497,804.2,486,791.1,486L791.1,486z M297.9,436.6
		c6.6,0,11.9,5.3,11.9,12.1c0,6.8-5.3,12.1-11.9,12.1c-6.6,0-11.9-5.3-11.9-12.1C285.9,441.9,291.3,436.6,297.9,436.6z"/>
</g>
</svg>
