<svg xmlns="http://www.w3.org/2000/svg" viewBox="0 0 1024 1024">
   <circle cx="512" cy="512" r="512" style="fill:#1a3b8b"/>
   <path d="M826 442.45h-32.63L774.56 522 772 532.87c-1.84.55-3.69.92-5.53 1.29a48.5 48.5 0 0 1-10.51.92 25.25 25.25 0 0 1-10-1.84 10.07 10.07 0 0 1-5.16-5.16 17.15 17.15 0 0 1-1.11-7.73 47.5 47.5 0 0 1 1.66-9.58l10-41.25 6.45-27.44h-33.2l-15.12 63.53a118.75 118.75 0 0 0-3.13 21.73 39.61 39.61 0 0 0 3.13 18.42c2.4 5.34 6.45 9.39 12.17 12.52s13.64 4.6 24 4.6a89.6 89.6 0 0 0 18.59-1.88c.19 0 .55-.18.74-.18a29 29 0 0 1-9 16c-4.79 4.05-11.8 6.26-21 6.26a66 66 0 0 1-10.98-.68l-6.45 26.89A113.32 113.32 0 0 0 732 610a91 91 0 0 0 26-3.31 56.55 56.55 0 0 0 19.18-10.31 62.32 62.32 0 0 0 13.46-17.13 101.55 101.55 0 0 0 8.67-24.68l22.49-94.47 4.2-17.65m-159.51 27c-15.29 0-18.05 0-24.31 3.14a35.63 35.63 0 0 0-11.24 9.79 50.23 50.23 0 0 0-7.55 13.86 49.73 49.73 0 0 0-2.76 16.44c0 7 1.11 12.56 3.5 16.81 2.39 4.07 6.63 6.1 12.89 6.1a20.28 20.28 0 0 0 9-2 32 32 0 0 0 8.66-6.65c.37-3.7.74-7.39 1.47-11.46s1.47-7.76 2.21-11.09l8.1-34.92m22.84 40.65a77.31 77.31 0 0 0-1.84 25.13c.74 8.5 4.05 21.25 7.18 27.71h-31.5c-3.87-6.47-3.68-9.61-4.42-11.64a59.87 59.87 0 0 1-13.63 8.31 40.53 40.53 0 0 1-16.76 3.33c-7.18 0-13.63-1.29-18.6-3.88a33.21 33.21 0 0 1-12.71-10.35 39.85 39.85 0 0 1-7.18-15.15 79 79 0 0 1 3.16-47.16A77.19 77.19 0 0 1 607.92 463c6.26-6.65 21.73-21.43 46.78-21.43h50.47l-15.84 68.55m-191 25.1c2.4.74 5.71.74 9.21.74a36.6 36.6 0 0 0 15.66-3.13 39 39 0 0 0 12.16-8.85 47 47 0 0 0 7.64-13.7 54 54 0 0 0 2.76-17.7c0-6.27-1.29-11.8-4.05-16-2.76-4.42-7.55-6.82-14.55-6.82h-12.9zm80-45.16a80.71 80.71 0 0 1-5.34 29.49 69.56 69.56 0 0 1-14.74 23 66.18 66.18 0 0 1-22.48 15.11 72.76 72.76 0 0 1-28.37 5.53 106.7 106.7 0 0 1-15.11-1.29l-9.95 39.82h-32.7l38-159.08h43.48c8.29 0 15.29 1.29 21.19 3.87a39.42 39.42 0 0 1 23.21 25.62 52.82 52.82 0 0 1 2.72 17.87zM429.8 535a25.19 25.19 0 0 1-9.95-1.84 10.08 10.08 0 0 1-5.15-5.16 17.23 17.23 0 0 1-1.11-7.75 47.73 47.73 0 0 1 1.66-9.6l9.95-41.34h37l6.82-27.5h-37.19l8.66-34.69-34.82 5.17-22.11 93.19a119.22 119.22 0 0 0-3.13 21.78 39.8 39.8 0 0 0 3.13 18.45c2.4 5.35 6.45 9.41 12.16 12.55s13.63 4.61 24 4.61a89.28 89.28 0 0 0 18.61-1.84c.55-.19 1.29-.37 1.84-.55l6.82-28.24a52.18 52.18 0 0 1-6.82 1.66 47.77 47.77 0 0 1-10.37 1.1m-83.17-93-28.91 120.91h32.8l28.72-120.83h-32.61m36.5-13.86 5-21.06h-32.7l-5 21.06h32.7m-137 107.59a26.39 26.39 0 0 0 14.39-3.87 37.85 37.85 0 0 0 11.81-10 47.12 47.12 0 0 0 7.75-14 49.43 49.43 0 0 0 2.77-16.41c0-7-1.11-12.35-3.5-16.41s-7.2-5.72-13.47-5.72a31.74 31.74 0 0 0-7.38.92 21.53 21.53 0 0 0-8.85 4.61l-14.2 60.1a67.69 67.69 0 0 0 10.7.78zm28.59-93.66A40.39 40.39 0 0 1 293 446a34.18 34.18 0 0 1 12.73 10.14 43.58 43.58 0 0 1 7.38 14.93 65.56 65.56 0 0 1 2.4 18.44 71.25 71.25 0 0 1-5.72 28.58c-3.87 8.85-8.85 17-15.31 23.41a68.35 68.35 0 0 1-22.88 15.7 69.85 69.85 0 0 1-28.41 5.72c-1.29 0-3.69 0-7-.18a86.36 86.36 0 0 1-11.25-.92c-4.24-.74-8.86-1.47-13.47-2.58a64.76 64.76 0 0 1-13.47-4.81l38-159.11 33.94-5.32-13.47 56.42a40.2 40.2 0 0 1 8.67-2.95 33.46 33.46 0 0 1 9.59-1.29z" style="fill:#fff"/>
</svg>
