<svg xmlns="http://www.w3.org/2000/svg" viewBox="0 0 1024 1024" style="enable-background:new 0 0 1024 1024" xml:space="preserve">
   <style>
      .st1{fill:#fff}
   </style>
   <g id="Icon">
      <circle cx="512" cy="512" r="512" style="fill:#159e49"/>
      <g transform="translate(792 406)">
         <g id="line">
            <path id="Fill-10" class="st1" d="M-616.8 181.9h583.1v-15.3h-583.1z"/>
            <path id="Fill-11" class="st1" d="M6.8 181.9h50v-15.3h-50z"/>
         </g>
         <path class="st1" d="M-503.2 143.5h20.9V64.9h-20.9v78.6zm-2-101.3c0-3.6 1.1-6.5 3.6-9 2.2-2.2 5.4-3.4 9-3.4 3.8 0 6.7 1.1 9 3.4 2.2 2.2 3.6 5.2 3.6 9 0 3.6-1.1 6.5-3.6 9-2.2 2.2-5.4 3.4-9 3.4s-6.5-1.1-9-3.4-3.6-5.4-3.6-9zm70.9 22.5h21.3v15.7h-21.3v37.7c0 3.4.9 6.1 2.9 8.1s4.5 3.1 7.9 3.1c2.9 0 6.3-.4 9.9-1.3l2.7 15.5c-6.1 1.6-11.9 2.5-17.5 2.5-3.8 0-7.4-.7-10.6-1.8-3.1-1.1-5.8-2.9-8.3-5.2-2.2-2.2-4-4.9-5.4-8.1-1.3-3.1-1.8-6.5-1.8-10.3V80.8h-14.4V65.1h14.4V42h20v22.7h.2zm33.7 21.8c0-3.4.7-6.7 2.2-9.7 1.6-2.9 3.6-5.4 6.1-7.6 2.7-2 5.8-3.8 9.4-4.9 3.6-1.1 7.9-1.8 12.1-1.8 4.5 0 9.2.4 13.9 1.3 4.7.9 9.7 2.2 14.6 4l-4.5 14.8c-3.8-1.6-7.6-2.7-11.5-3.6-3.8-.9-7.4-1.3-10.8-1.3-3.6 0-6.5.7-8.8 2.2-2.2 1.6-3.1 3.6-3.1 6.3 0 2.5 1.1 4.3 3.1 5.4 2 1.1 4.5 2.2 7.6 3.1 3.1.9 6.3 1.8 9.9 2.5 3.6.9 7 2.2 9.9 4 3.1 1.8 5.6 4.3 7.6 7.2 2 3.1 3.1 7.2 3.1 12.1 0 3.6-.7 6.7-2.2 9.9-1.6 2.9-3.6 5.6-6.3 7.9-2.7 2.2-5.8 3.8-9.9 5.2-3.8 1.1-8.1 1.8-12.6 1.8-9.7 0-20-2-30.8-6.3l4.3-14.6c9.2 3.8 17.5 5.6 24.9 5.6 3.8 0 7-.9 9.2-2.5 2.2-1.6 3.4-3.8 3.4-6.7 0-2.5-1.1-4.3-3.1-5.6-2-1.3-4.5-2.5-7.6-3.4s-6.3-1.8-9.9-2.7c-3.6-.9-6.7-2.2-9.9-4-3.1-1.8-5.6-4-7.6-7-1.8-2.7-2.7-6.7-2.7-11.6m103.1-21.8h21.3v15.7h-21.3v37.7c0 3.4.9 6.1 2.9 8.1s4.5 3.1 7.9 3.1c2.9 0 6.3-.4 9.9-1.3l2.7 15.5c-6.1 1.6-11.9 2.5-17.5 2.5-3.8 0-7.4-.7-10.6-1.8s-5.8-2.9-8.3-5.2c-2.5-2.2-4-4.9-5.4-8.1-1.3-3.1-1.8-6.5-1.8-10.3V80.8h-14.4V65.1h14.4V42h20v22.7h.2zm54.3 54.8c0 3.1 1.3 5.8 3.8 8.1 2.7 2.2 5.8 3.4 9.7 3.4 5.4 0 9.7-1.8 13-5.2s4.9-7.9 4.9-13.2v-4.7c-3.8-1.1-8.1-1.6-12.8-1.6-5.8 0-10.3 1.1-13.7 3.6-3.1 2.2-4.9 5.5-4.9 9.6m-19.5 1.1c0-8.3 3.1-14.8 9.4-19.3 6.3-4.5 15-6.7 26.5-6.7 2.5 0 4.9.2 7.4.4s5.2.7 7.6 1.1v-4.3c0-4-1.3-7.4-4.3-9.9-2.9-2.5-6.7-3.8-11.7-3.8-7.9 0-16.4 1.8-25.6 5.6l-5.2-14.4c11.2-4.5 22.2-6.5 33-6.5 4.9 0 9.2.7 13.2 2.2 4 1.3 7.4 3.4 10.3 6.1 2.9 2.5 5.2 5.6 6.7 9.2 1.6 3.6 2.5 7.6 2.5 11.9v32.1c0 1.8.4 3.1 1.3 4 .9 1.1 2.2 1.6 4 1.6.9 0 1.6 0 2.5-.2.7 0 1.3-.2 1.6-.2l1.3 15c-1.8.2-3.4.7-5.2.9-1.8.2-3.6.2-5.6.2-4 0-7.4-.9-10.3-2.9-2.9-1.8-4.9-4.5-6.3-7.9-3.4 3.4-7.4 6.1-11.7 7.9-4.5 1.8-9 2.7-13.9 2.7-4 0-7.9-.7-11.2-1.8-3.4-1.1-6.3-2.9-8.8-5.2-2.5-2.2-4.3-4.7-5.6-7.9-1.2-2.9-1.9-6.3-1.9-9.9m92.5-56.1h16.2l2.5 10.8c3.1-4 6.7-7.2 11.2-9.4 4.5-2.2 9.2-3.4 14.4-3.4 5.8 0 10.8 1.3 15.3 3.8 4.3 2.5 7.6 6.1 9.9 10.6 3.6-4.7 7.9-8.3 12.6-10.8 4.7-2.5 9.9-3.6 15.7-3.6 4.3 0 8.1.7 11.7 2 3.6 1.3 6.7 3.4 9.2 6.1 2.7 2.5 4.7 5.6 6.1 9.2 1.3 3.6 2.2 7.4 2.2 11.7v52.1h-20.4V94.8c0-4.5-1.3-8.1-4.3-11-2.9-2.7-6.5-4.3-11-4.3-5.2 0-9.4 1.8-12.8 5.4s-4.9 8.1-4.9 13.9v44.7H-117V94.8c0-4.5-1.3-8.1-4-11-2.7-2.7-6.3-4.3-10.8-4.3-5.4 0-9.7 1.8-13 5.4S-150 93-150 98.8v44.7h-20.4v-79h.2zm204.6 39.3c0-3.6-.4-7-1.6-10.1-.9-3.1-2.5-5.8-4.3-7.9-1.8-2.2-3.8-3.8-6.3-5.2-2.5-1.3-5.2-1.8-8.1-1.8-5.4 0-9.7 1.8-13.2 5.6-3.4 3.6-5.2 8.3-5.2 14.1v10.6c0 2.9.4 5.6 1.3 7.9.9 2.5 2.2 4.5 3.8 6.3s3.6 3.1 5.8 4c2.2.9 4.7 1.3 7.4 1.3 2.9 0 5.6-.7 8.1-1.8s4.5-2.9 6.3-5.2c1.8-2.2 3.1-4.9 4.3-7.9 1.2-2.8 1.7-6.4 1.7-9.9zM-24 64.5h16.2l2.5 10.1c2.9-3.8 6.3-6.7 10.6-9 4.3-2 9-3.1 14.1-3.1s9.9 1.1 14.4 3.1c4.3 2 8.1 4.9 11.2 8.5 3.1 3.6 5.6 7.9 7.4 13 1.8 4.9 2.7 10.6 2.7 16.6 0 6.1-.9 11.7-2.7 16.6-1.8 4.9-4.3 9.4-7.4 13-3.1 3.6-7 6.5-11.2 8.5-4.3 2-9.2 3.1-14.4 3.1-4.7 0-9.2-.9-13-2.7-4-1.8-7.4-4.5-10.1-8.1v47.8H-24V64.5zm-524.1 58.8c-3.1 3.1-7.4 4.5-12.8 4.5h-25.2V95.2h25.2c5.2 0 9.4 1.6 12.8 4.5 3.1 2.9 4.7 7 4.7 11.7.2 4.9-1.4 9-4.7 11.9zm-38-72.1h23.1c4.7 0 8.5 1.3 11.7 4.3 3.1 2.7 4.5 6.5 4.5 11s-1.6 8.1-4.5 10.8c-3.1 2.7-7 4-11.7 4h-23.1V51.2zm58.6 46c-3.4-4.7-7.9-8.1-13.5-10.1 4.5-2 7.9-4.9 10.6-9s4-8.8 4-14.1c0-4.3-.9-8.1-2.5-11.5-1.6-3.6-4-6.5-7-9-2.9-2.5-6.5-4.5-10.6-5.8-4-1.3-8.5-2-13.5-2h-57v14.4c8.8 0 15.7 7.2 15.7 15.9s-7 15.9-15.7 15.9v13c8.8 0 15.7 7.2 15.7 15.9v2.5c0 8.8-7 15.9-15.7 15.9v14.4h59.5c5.2 0 9.7-.7 13.9-2.2 4.3-1.3 7.9-3.4 11-6.1 3.1-2.7 5.6-5.8 7.2-9.4 1.8-3.6 2.7-7.6 2.7-12.1.2-6.5-1.4-11.8-4.8-16.6z" id="text"/>
      </g>
   </g>
</svg>
