<?xml version="1.0" encoding="utf-8"?>
<!-- Generator: Adobe Illustrator 21.0.0, SVG Export Plug-In . SVG Version: 6.00 Build 0)  -->
<svg version="1.1" xmlns="http://www.w3.org/2000/svg" xmlns:xlink="http://www.w3.org/1999/xlink" x="0px" y="0px"
	 viewBox="0 0 1024 1024" style="enable-background:new 0 0 1024 1024;" xml:space="preserve">
<style type="text/css">
	.st0{fill:#159E49;}
	.st1{fill:#FFFFFF;}
</style>
<g id="Guides">
</g>
<g id="Icon">
	<circle class="st0" cx="512" cy="512" r="512"/>
	<g>
		<g id="line" transform="translate(792.000000, 406.000000)">
			<polygon id="Fill-10" class="st1" points="-616.8,181.9 -33.7,181.9 -33.7,166.6 -616.8,166.6 			"/>
			<polygon id="Fill-11" class="st1" points="6.8,181.9 56.8,181.9 56.8,166.6 6.8,166.6 			"/>
		</g>
		<g id="text" transform="translate(792.000000, 406.000000)">
			<path class="st1" d="M-503.2,143.5h20.9V64.9h-20.9V143.5z M-505.2,42.2c0-3.6,1.1-6.5,3.6-9c2.2-2.2,5.4-3.4,9-3.4
				c3.8,0,6.7,1.1,9,3.4c2.2,2.2,3.6,5.2,3.6,9c0,3.6-1.1,6.5-3.6,9c-2.2,2.2-5.4,3.4-9,3.4s-6.5-1.1-9-3.4S-505.2,45.8-505.2,42.2z
				"/>
			<path class="st1" d="M-434.3,64.7h21.3v15.7h-21.3v37.7c0,3.4,0.9,6.1,2.9,8.1c2,2,4.5,3.1,7.9,3.1c2.9,0,6.3-0.4,9.9-1.3
				l2.7,15.5c-6.1,1.6-11.9,2.5-17.5,2.5c-3.8,0-7.4-0.7-10.6-1.8c-3.1-1.1-5.8-2.9-8.3-5.2c-2.2-2.2-4-4.9-5.4-8.1
				c-1.3-3.1-1.8-6.5-1.8-10.3V80.8h-14.4V65.1h14.4V42h20v22.7H-434.3z"/>
			<path class="st1" d="M-400.6,86.5c0-3.4,0.7-6.7,2.2-9.7c1.6-2.9,3.6-5.4,6.1-7.6c2.7-2,5.8-3.8,9.4-4.9
				c3.6-1.1,7.9-1.8,12.1-1.8c4.5,0,9.2,0.4,13.9,1.3c4.7,0.9,9.7,2.2,14.6,4l-4.5,14.8c-3.8-1.6-7.6-2.7-11.5-3.6
				c-3.8-0.9-7.4-1.3-10.8-1.3c-3.6,0-6.5,0.7-8.8,2.2c-2.2,1.6-3.1,3.6-3.1,6.3c0,2.5,1.1,4.3,3.1,5.4c2,1.1,4.5,2.2,7.6,3.1
				c3.1,0.9,6.3,1.8,9.9,2.5c3.6,0.9,7,2.2,9.9,4c3.1,1.8,5.6,4.3,7.6,7.2c2,3.1,3.1,7.2,3.1,12.1c0,3.6-0.7,6.7-2.2,9.9
				c-1.6,2.9-3.6,5.6-6.3,7.9c-2.7,2.2-5.8,3.8-9.9,5.2c-3.8,1.1-8.1,1.8-12.6,1.8c-9.7,0-20-2-30.8-6.3l4.3-14.6
				c9.2,3.8,17.5,5.6,24.9,5.6c3.8,0,7-0.9,9.2-2.5c2.2-1.6,3.4-3.8,3.4-6.7c0-2.5-1.1-4.3-3.1-5.6c-2-1.3-4.5-2.5-7.6-3.4
				s-6.3-1.8-9.9-2.7c-3.6-0.9-6.7-2.2-9.9-4c-3.1-1.8-5.6-4-7.6-7C-399.7,95.4-400.6,91.4-400.6,86.5"/>
			<path class="st1" d="M-297.5,64.7h21.3v15.7h-21.3v37.7c0,3.4,0.9,6.1,2.9,8.1c2,2,4.5,3.1,7.9,3.1c2.9,0,6.3-0.4,9.9-1.3
				l2.7,15.5c-6.1,1.6-11.9,2.5-17.5,2.5c-3.8,0-7.4-0.7-10.6-1.8s-5.8-2.9-8.3-5.2c-2.5-2.2-4-4.9-5.4-8.1
				c-1.3-3.1-1.8-6.5-1.8-10.3V80.8h-14.4V65.1h14.4V42h20v22.7H-297.5z"/>
			<path class="st1" d="M-243.2,119.5c0,3.1,1.3,5.8,3.8,8.1c2.7,2.2,5.8,3.4,9.7,3.4c5.4,0,9.7-1.8,13-5.2s4.9-7.9,4.9-13.2v-4.7
				c-3.8-1.1-8.1-1.6-12.8-1.6c-5.8,0-10.3,1.1-13.7,3.6C-241.4,112.1-243.2,115.4-243.2,119.5 M-262.7,120.6
				c0-8.3,3.1-14.8,9.4-19.3c6.3-4.5,15-6.7,26.5-6.7c2.5,0,4.9,0.2,7.4,0.4c2.5,0.2,5.2,0.7,7.6,1.1v-4.3c0-4-1.3-7.4-4.3-9.9
				c-2.9-2.5-6.7-3.8-11.7-3.8c-7.9,0-16.4,1.8-25.6,5.6l-5.2-14.4c11.2-4.5,22.2-6.5,33-6.5c4.9,0,9.2,0.7,13.2,2.2
				c4,1.3,7.4,3.4,10.3,6.1c2.9,2.5,5.2,5.6,6.7,9.2c1.6,3.6,2.5,7.6,2.5,11.9v32.1c0,1.8,0.4,3.1,1.3,4c0.9,1.1,2.2,1.6,4,1.6
				c0.9,0,1.6,0,2.5-0.2c0.7,0,1.3-0.2,1.6-0.2l1.3,15c-1.8,0.2-3.4,0.7-5.2,0.9c-1.8,0.2-3.6,0.2-5.6,0.2c-4,0-7.4-0.9-10.3-2.9
				c-2.9-1.8-4.9-4.5-6.3-7.9c-3.4,3.4-7.4,6.1-11.7,7.9c-4.5,1.8-9,2.7-13.9,2.7c-4,0-7.9-0.7-11.2-1.8c-3.4-1.1-6.3-2.9-8.8-5.2
				c-2.5-2.2-4.3-4.7-5.6-7.9C-262,127.6-262.7,124.2-262.7,120.6"/>
			<path class="st1" d="M-170.2,64.5h16.2l2.5,10.8c3.1-4,6.7-7.2,11.2-9.4c4.5-2.2,9.2-3.4,14.4-3.4c5.8,0,10.8,1.3,15.3,3.8
				c4.3,2.5,7.6,6.1,9.9,10.6c3.6-4.7,7.9-8.3,12.6-10.8c4.7-2.5,9.9-3.6,15.7-3.6c4.3,0,8.1,0.7,11.7,2c3.6,1.3,6.7,3.4,9.2,6.1
				c2.7,2.5,4.7,5.6,6.1,9.2c1.3,3.6,2.2,7.4,2.2,11.7v52.1h-20.4V94.8c0-4.5-1.3-8.1-4.3-11c-2.9-2.7-6.5-4.3-11-4.3
				c-5.2,0-9.4,1.8-12.8,5.4s-4.9,8.1-4.9,13.9v44.7h-20.4V94.8c0-4.5-1.3-8.1-4-11c-2.7-2.7-6.3-4.3-10.8-4.3
				c-5.4,0-9.7,1.8-13,5.4S-150,93-150,98.8v44.7h-20.4v-79H-170.2z"/>
			<path class="st1" d="M34.4,103.8c0-3.6-0.4-7-1.6-10.1c-0.9-3.1-2.5-5.8-4.3-7.9c-1.8-2.2-3.8-3.8-6.3-5.2
				c-2.5-1.3-5.2-1.8-8.1-1.8c-5.4,0-9.7,1.8-13.2,5.6c-3.4,3.6-5.2,8.3-5.2,14.1v10.6c0,2.9,0.4,5.6,1.3,7.9
				c0.9,2.5,2.2,4.5,3.8,6.3s3.6,3.1,5.8,4c2.2,0.9,4.7,1.3,7.4,1.3c2.9,0,5.6-0.7,8.1-1.8s4.5-2.9,6.3-5.2c1.8-2.2,3.1-4.9,4.3-7.9
				C33.9,110.9,34.4,107.3,34.4,103.8z M-24,64.5h16.2l2.5,10.1c2.9-3.8,6.3-6.7,10.6-9c4.3-2,9-3.1,14.1-3.1s9.9,1.1,14.4,3.1
				c4.3,2,8.1,4.9,11.2,8.5c3.1,3.6,5.6,7.9,7.4,13c1.8,4.9,2.7,10.6,2.7,16.6c0,6.1-0.9,11.7-2.7,16.6c-1.8,4.9-4.3,9.4-7.4,13
				c-3.1,3.6-7,6.5-11.2,8.5c-4.3,2-9.2,3.1-14.4,3.1c-4.7,0-9.2-0.9-13-2.7c-4-1.8-7.4-4.5-10.1-8.1v47.8H-24V64.5z"/>
			<path class="st1" d="M-548.1,123.3c-3.1,3.1-7.4,4.5-12.8,4.5h-25.2V95.2h25.2c5.2,0,9.4,1.6,12.8,4.5c3.1,2.9,4.7,7,4.7,11.7
				C-543.2,116.3-544.8,120.4-548.1,123.3z M-586.1,51.2h23.1c4.7,0,8.5,1.3,11.7,4.3c3.1,2.7,4.5,6.5,4.5,11s-1.6,8.1-4.5,10.8
				c-3.1,2.7-7,4-11.7,4h-23.1V51.2z M-527.5,97.2c-3.4-4.7-7.9-8.1-13.5-10.1c4.5-2,7.9-4.9,10.6-9s4-8.8,4-14.1
				c0-4.3-0.9-8.1-2.5-11.5c-1.6-3.6-4-6.5-7-9c-2.9-2.5-6.5-4.5-10.6-5.8c-4-1.3-8.5-2-13.5-2h-57v14.4l0,0
				c8.8,0,15.7,7.2,15.7,15.9s-7,15.9-15.7,15.9v13l0,0c8.8,0,15.7,7.2,15.7,15.9v2.5c0,8.8-7,15.9-15.7,15.9l0,0v14.4h59.5
				c5.2,0,9.7-0.7,13.9-2.2c4.3-1.3,7.9-3.4,11-6.1c3.1-2.7,5.6-5.8,7.2-9.4c1.8-3.6,2.7-7.6,2.7-12.1
				C-522.5,107.3-524.1,102-527.5,97.2z"/>
		</g>
	</g>
</g>
</svg>
