<?xml version="1.0" encoding="UTF-8" standalone="no"?>
<svg
   xmlns:dc="http://purl.org/dc/elements/1.1/"
   xmlns:cc="http://creativecommons.org/ns#"
   xmlns:rdf="http://www.w3.org/1999/02/22-rdf-syntax-ns#"
   xmlns:svg="http://www.w3.org/2000/svg"
   xmlns="http://www.w3.org/2000/svg"
   viewBox="0 0 1365.3333 1365.3333"
   height="1365.3333"
   width="1365.3333"
   xml:space="preserve"
   id="svg2"
   version="1.1"><metadata
     id="metadata8"><rdf:RDF><cc:Work
         rdf:about=""><dc:format>image/svg+xml</dc:format><dc:type
           rdf:resource="http://purl.org/dc/dcmitype/StillImage" /></cc:Work></rdf:RDF></metadata><defs
     id="defs6"><clipPath
       id="clipPath18"
       clipPathUnits="userSpaceOnUse"><path
         id="path16"
         d="M 0,1024 H 1024 V 0 H 0 Z" /></clipPath></defs><g
     transform="matrix(1.3333333,0,0,-1.3333333,0,1365.3333)"
     id="g10"><g
       id="g12"><g
         clip-path="url(#clipPath18)"
         id="g14"><g
           transform="translate(1024,512)"
           id="g20"><path
             id="path22"
             style="fill:#4b8cc2;fill-opacity:1;fill-rule:nonzero;stroke:none"
             d="m 0,0 c 0,-282.77 -229.23,-512 -512,-512 -282.77,0 -512,229.23 -512,512 0,282.77 229.23,512 512,512 C -229.23,512 0,282.77 0,0" /></g><g
           transform="translate(725.1758,720.4946)"
           id="g24"><path
             id="path26"
             style="fill:#ffffff;fill-opacity:1;fill-rule:nonzero;stroke:none"
             d="m 0,0 v -255.813 c 0,-19.095 -3.715,-38.025 -11.155,-56.792 -7.439,-18.765 -16.657,-35.42 -27.647,-49.964 -10.991,-14.541 -24.091,-28.698 -39.305,-42.47 -15.206,-13.765 -29.259,-25.202 -42.135,-34.309 -12.88,-9.103 -26.314,-17.704 -40.305,-25.813 -13.986,-8.106 -23.926,-13.599 -29.807,-16.485 -5.888,-2.886 -10.605,-5.109 -14.16,-6.665 -2.663,-1.33 -5.552,-1.998 -8.657,-1.998 -3.109,0 -5.995,0.668 -8.662,1.998 -3.554,1.556 -8.272,3.779 -14.158,6.665 -5.882,2.885 -15.821,8.379 -29.812,16.485 -13.989,8.109 -27.424,16.711 -40.302,25.813 -12.879,9.107 -26.929,20.543 -42.136,34.309 -15.212,13.772 -28.313,27.929 -39.307,42.47 -10.991,14.544 -20.207,31.199 -27.645,49.964 -7.44,18.767 -11.159,37.697 -11.159,56.792 V 0 c 0,5.774 2.111,10.771 6.328,14.989 4.222,4.219 9.218,6.331 14.989,6.331 h 383.722 c 5.772,0 10.77,-2.112 14.989,-6.331 C -2.105,10.771 0,5.774 0,0 m -63.953,-255.813 v 213.177 h -149.218 v -378.722 c 26.421,13.988 50.07,29.2 70.946,45.632 52.182,40.861 78.272,80.831 78.272,119.913" /></g></g></g></g></svg>