<svg xmlns="http://www.w3.org/2000/svg" viewBox="0 0 1024 1024">
   <circle cx="512" cy="512" r="512" style="fill:#175ddc"/>
   <path d="M661.2 559.3V346.1H512v378.7c26.4-14 50.1-29.2 70.9-45.6 52.2-40.8 78.3-80.8 78.3-119.9zm64-255.8v255.8c0 19.1-3.7 38-11.2 56.8-7.4 18.8-16.7 35.4-27.6 50-11 14.5-24.1 28.7-39.3 42.5-15.2 13.8-29.3 25.2-42.1 34.3-12.9 9.1-26.3 17.7-40.3 25.8-14 8.1-23.9 13.6-29.8 16.5-5.9 2.9-10.6 5.1-14.2 6.7-2.7 1.3-5.6 2-8.7 2-3.1 0-6-.7-8.7-2-3.6-1.6-8.3-3.8-14.2-6.7-5.9-2.9-15.8-8.4-29.8-16.5S431.9 752 419 742.9c-12.9-9.1-26.9-20.5-42.1-34.3-15.2-13.8-28.3-27.9-39.3-42.5-11-14.5-20.2-31.2-27.6-50-7.4-18.8-11.2-37.7-11.2-56.8V303.5c0-5.8 2.1-10.8 6.3-15 4.2-4.2 9.2-6.3 15-6.3h383.7c5.8 0 10.8 2.1 15 6.3 4.3 4.2 6.4 9.2 6.4 15z" style="fill:#fff"/>
</svg>
