<?xml version="1.0" encoding="utf-8"?>
<!-- Generator: Adobe Illustrator 21.0.0, SVG Export Plug-In . SVG Version: 6.00 Build 0)  -->
<svg version="1.1" xmlns="http://www.w3.org/2000/svg" xmlns:xlink="http://www.w3.org/1999/xlink" x="0px" y="0px"
	 viewBox="0 0 1024 1024" style="enable-background:new 0 0 1024 1024;" xml:space="preserve">
<style type="text/css">
	.st0{fill:#175DDC;}
	.st1{fill:#FFFFFF;}
</style>
<g id="Guides">
</g>
<g id="Icon">
	<circle class="st0" cx="512" cy="512" r="512"/>
	<path id="Shield_1_" class="st1" d="M661.2,559.3V346.1H512v378.7c26.4-14,50.1-29.2,70.9-45.6
		C635.1,638.4,661.2,598.4,661.2,559.3z M725.2,303.5v255.8c0,19.1-3.7,38-11.2,56.8c-7.4,18.8-16.7,35.4-27.6,50
		c-11,14.5-24.1,28.7-39.3,42.5c-15.2,13.8-29.3,25.2-42.1,34.3c-12.9,9.1-26.3,17.7-40.3,25.8c-14,8.1-23.9,13.6-29.8,16.5
		c-5.9,2.9-10.6,5.1-14.2,6.7c-2.7,1.3-5.6,2-8.7,2c-3.1,0-6-0.7-8.7-2c-3.6-1.6-8.3-3.8-14.2-6.7c-5.9-2.9-15.8-8.4-29.8-16.5
		c-14-8.1-27.4-16.7-40.3-25.8c-12.9-9.1-26.9-20.5-42.1-34.3c-15.2-13.8-28.3-27.9-39.3-42.5c-11-14.5-20.2-31.2-27.6-50
		c-7.4-18.8-11.2-37.7-11.2-56.8V303.5c0-5.8,2.1-10.8,6.3-15c4.2-4.2,9.2-6.3,15-6.3h383.7c5.8,0,10.8,2.1,15,6.3
		C723.1,292.7,725.2,297.7,725.2,303.5z"/>
</g>
</svg>
