<?xml version="1.0" encoding="utf-8"?>
<!-- Generator: Adobe Illustrator 21.0.0, SVG Export Plug-In . SVG Version: 6.00 Build 0)  -->
<svg version="1.1" xmlns="http://www.w3.org/2000/svg" xmlns:xlink="http://www.w3.org/1999/xlink" x="0px" y="0px"
	 viewBox="0 0 1024 1024" style="enable-background:new 0 0 1024 1024;" xml:space="preserve">
<style type="text/css">
	.st0{fill:#202020;}
	.st1{fill:#FFFFFF;}
</style>
<g id="Guides">
</g>
<g id="Icon">
	<circle class="st0" cx="512" cy="512" r="512"/>
	<g>
		<path class="st1" d="M149.5,517.7c-0.1,3.1-0.2,5.7-0.4,7.9c-0.1,1.3-0.4,2.5-0.7,3.5c-0.2,0.7-0.4,1.3-0.5,1.9
			c-0.1,0.7-0.8,1.4-1.4,2c-0.6,0.6-1.1,1.2-1.3,1.8l0,1.1h7.7c1.4,0,3,0.1,4.8,0.2c1.8,0.1,3.7,0.3,5.6,0.4
			c1.9,0.1,3.8,0.3,5.6,0.4c1.9,0.1,3.5,0.2,4.9,0.2c12.8,0,22.6-2.6,29-7.8c6.5-5.2,9.8-13.1,9.8-23.4c0-3.7-0.7-7.1-1.9-10.1
			c-1.3-3-3.1-5.7-5.5-8c-2.4-2.3-5.2-4.2-8.5-5.7c-2.6-1.2-5.4-2.1-8.4-2.7c1.8-0.7,3.5-1.5,5.1-2.4c2.3-1.4,4.3-3.1,5.9-5.1
			c1.6-2,2.9-4.4,3.8-7.1c0.9-2.7,1.3-5.8,1.3-9.1c0-4-0.7-7.7-2.2-10.9c-1.5-3.2-3.5-5.9-6.1-8.1c-2.6-2.2-5.7-3.9-9.3-5
			c-3.6-1.1-7.5-1.7-11.6-1.7c-4.4,0-8.1,0.2-11,0.5c-2.8,0.3-5,0.5-6.6,0.5h-3.3c-1.1,0-2,0-2.9-0.1c-1,0-4.5,0-5.4-0.1l-0.7,0v0.7
			l0,0.5c0.2,0.6,0.6,1.1,1.2,1.8c0.6,0.7,1.3,1.5,1.4,2.2c0.1,0.6,0.3,1.3,0.6,2c0.3,1,0.7,2.1,0.8,3.3c0.2,2.2,0.3,4.9,0.4,7.9
			c0.1,3,0.1,6.6,0.1,10.7V477l-12.2,5.1c-0.5,0.5-0.5,1.3,0,1.8l12.2,4.6V507C149.6,511.1,149.6,514.7,149.5,517.7 M168.9,436.4
			c1.3-0.1,2.8-0.2,4.5-0.2c2.6,0,4.9,0.5,7,1.4c2,0.9,3.7,2.3,5.1,4c1.4,1.7,2.4,3.9,3.2,6.3c0.7,2.5,1.1,5.3,1.1,8.4
			c0,3.7-0.5,6.9-1.5,9.7c-1,2.7-2.4,5-4.1,6.8c-1.7,1.8-3.9,3.2-6.3,4.1c-2.5,0.9-5.3,1.4-8.3,1.4c-1.2,0-2.2,0-3.2,0
			c-0.8,0-1.8-0.1-2.8-0.2v-40.5c0.6-0.2,1.4-0.4,2.2-0.5C166.5,436.7,167.6,436.6,168.9,436.4 M175.5,484.6c3.7,0,6.9,0.5,9.6,1.6
			c2.7,1,5,2.5,6.8,4.4c1.8,1.9,3.1,4.2,4.1,6.8c0.9,2.6,1.4,5.6,1.4,8.8c0,8.1-1.9,14.2-5.8,18.1c-3.8,3.9-10,5.8-18.4,5.8
			c-1,0-2.4-0.1-4.1-0.3c-1.6-0.2-3.2-0.4-4.7-0.6c-0.3-2.3-0.5-5.1-0.7-8.4c-0.2-3.6-0.3-8.3-0.3-13.9v-21.4
			c1.1-0.2,2.5-0.4,4.3-0.6C169.8,484.8,172.4,484.6,175.5,484.6"/>
		<path class="st1" d="M220.8,511.7c-0.1,2.5-0.2,4.7-0.3,6.5c-0.2,1.8-0.3,3.3-0.5,4.5c-0.2,1.2-0.4,2.2-0.6,3.1l0,1h25.1
			c0.4,0,1,0,1.8,0l6.4,0.1c1.2,0,2.4,0.1,3.5,0.1c1.1,0,2.1,0.1,3,0.1c0.9,0,1.6,0.1,2,0.1l0.6,0l1.9-11.2l-1,0.3
			c-2.6,0.7-5.6,1.4-8.8,2c-2.8,0.5-6.1,1-9.7,1.4c-3.5,0.4-7.4,0.6-11.6,0.6v-56.5c0-3.3,0-6.3,0.1-8.9c0.1-2.6,0.2-4.7,0.3-6.6
			c0.1-1.8,0.3-3.4,0.5-4.6c0.2-1.2,0.4-2.2,0.6-3.1l0-1h-14.8v0.6l0,0.4c0.2,0.8,0.4,1.8,0.6,3.1c0.2,1.2,0.4,2.8,0.5,4.6
			c0.1,1.8,0.3,4,0.3,6.5c0.1,2.6,0.1,5.5,0.1,8.9v39C220.9,506.2,220.8,509.2,220.8,511.7"/>
		<path class="st1" d="M277.7,525.8l-0.1-0.1c0,0-0.1-0.1-0.2-0.5c-0.1-0.3-0.1-0.7-0.1-1.1c0-1.7,0.3-3.4,0.9-5.1
			c0.6-1.8,1.2-3.4,1.8-4.8l6.4-15.4c2.1-0.1,4.5-0.1,7.1-0.1h20c3.3,0,6,0,8,0.1l6.7,15.9c0.9,2.2,1.5,4,1.8,5.5
			c0.3,1.4,0.5,2.8,0.5,4c0,0.3,0,0.6,0,1c0,0.4-0.1,0.7-0.1,0.7l0,1.1H347v-1.1l-0.1-0.2c-0.1-0.1-0.4-0.6-1-1.6
			c-0.5-0.9-1.1-1.9-1.8-3.2c-0.7-1.3-1.4-2.7-2.2-4.3c-0.8-1.6-1.5-3.3-2.2-5L308.8,438h-5.4l-32.6,76.5c-1.2,2.9-2.3,5.3-3.3,7.2
			c-1,1.9-1.8,3.2-2.5,3.9l-0.2,0.2v1.1h12.8L277.7,525.8z M289.1,492.2l14.7-36l15,35.7c-1.4,0-2.9,0-4.6,0.1l-13.1,0.1
			c-2.3,0-4.5,0-6.7,0H289.1z"/>
		<path class="st1" d="M411.1,525.1l0.3-0.1l4.7-12.9l-1.5-1l-0.4,0.5c-1.4,1.7-2.9,3.2-4.5,4.5c-1.7,1.3-3.5,2.4-5.3,3.3
			c-1.9,0.9-3.8,1.6-5.9,2.1c-1.2,0.3-2.4,0.5-3.6,0.6v-76.4c2.5,0.4,4.8,1.1,7,2c3.9,1.7,7.3,4,10.1,6.8l0.3,0.3l1.4-0.7l-4-11.9
			l-0.3-0.1c-6.1-2.4-12.8-3.6-19.9-3.6c-4.6,0-8.9,0.6-12.9,1.7c-3.9,1.1-7.6,2.8-10.9,4.8c-3.3,2.1-6.2,4.5-8.8,7.3
			c-2.6,2.8-4.7,5.9-6.5,9.3c-1.7,3.3-3.1,6.9-4,10.6c-0.9,3.7-1.4,7.5-1.4,11.3c0,6.8,1.2,13,3.4,18.5c2.3,5.5,5.5,10.4,9.6,14.3
			c4.1,4,9,7,14.7,9.2c5.7,2.2,12,3.3,18.9,3.3c3.4,0,6.8-0.3,10.2-1C405.2,527.2,408.3,526.3,411.1,525.1 M377.3,518.8
			c-4.2-2.2-7.8-5.2-10.7-8.9c-2.8-3.8-5-8.3-6.4-13.5c-1.5-5.2-2.2-10.9-2.2-16.9c0-5.4,0.8-10.4,2.3-14.6
			c1.5-4.3,3.6-7.9,6.3-10.8c2.7-2.9,6-5.2,9.7-6.7c1-0.4,2.1-0.8,3.2-1.1v73.5C378.7,519.5,378,519.2,377.3,518.8 M389.6,522
			c-1.7-0.1-3.4-0.3-5-0.6v-76.1c1.4-0.2,2.7-0.3,4.2-0.3c0.3,0,0.5,0,0.8,0V522z"/>
		<path class="st1" d="M492.1,523.9c-0.7-0.5-1.4-1-2.1-1.7c-0.8-0.7-1.7-1.6-2.7-2.6c-1-1.1-2.3-2.4-3.7-3.9l-34.7-40.3l28.7-25.4
			c2.5-2.2,5-4.2,7.2-5.7c2.2-1.5,4.4-2.6,6.6-3.1l0.5-0.1v-1.4h-17.2v0.6c0,2.1-1.8,4.7-5.3,7.8l-32,27.6v-12
			c0-3.3,0.1-6.3,0.1-8.9c0.1-2.5,0.2-4.7,0.3-6.6c0.1-1.8,0.3-3.4,0.5-4.6c0.2-1.2,0.4-2.2,0.6-3l0-1H424v0.6l0,0.4
			c0.2,0.8,0.4,1.8,0.6,3c0.2,1.2,0.4,2.8,0.5,4.6c0.1,1.8,0.3,4.1,0.3,6.6c0.1,2.5,0.1,5.5,0.1,8.9v39c0,3.4,0,6.3-0.1,8.9
			c-0.1,2.5-0.2,4.7-0.3,6.5c-0.2,1.8-0.3,3.3-0.5,4.6c-0.2,1.2-0.4,2.2-0.6,3.1l0,1h14.8V526l0-0.4c-0.2-0.8-0.4-1.9-0.6-3.1
			c-0.2-1.2-0.4-2.7-0.5-4.6c-0.1-1.8-0.3-4-0.3-6.5c-0.1-2.5-0.1-5.5-0.1-8.9v-22.8l34.4,39.9c0.5,0.6,1,1.1,1.6,1.8
			c0.5,0.6,1,1.2,1.5,1.8c0.5,0.6,0.9,1.1,1.2,1.7c0.3,0.5,0.6,1,0.7,1.3l0.2,0.4h17.6v-1.2l-0.3-0.2
			C493.4,524.8,492.7,524.4,492.1,523.9"/>
		<path class="st1" d="M569.5,517.2c2.9-2.4,5.5-5.4,7.6-8.9c2.1-3.4,3.8-7.4,4.9-11.9c1.2-4.5,1.7-9.5,1.7-15.1
			c0-7.8-1.1-14.4-3.3-19.8c-2.2-5.4-5.3-9.8-9-13.1c-3.8-3.3-8.2-5.7-13.3-7.2c-5-1.4-10.3-2.2-15.8-2.2c-2,0-4.2,0-6.6,0.1
			c-1.9,0.1-3.8,0.1-5.6,0.2l-1.1,0c-2.2,0.1-4.1,0.2-5.8,0.2c-1.7,0.1-2.9,0.1-3.6,0.1c-0.4,0-1,0-1.6,0c-0.7,0-1.3-0.1-2-0.1
			c-0.8,0-1.6-0.1-2.4-0.1l-0.7,0v0.7l0,0.4c0.2,0.8,0.4,1.9,0.6,3.1c0.2,1.3,0.4,2.8,0.5,4.7c0.1,1.8,0.3,4.1,0.3,6.6
			c0.1,2.6,0.1,5.6,0.1,8.9v39c0,3.4,0,6.4-0.1,8.9c-0.1,2.5-0.2,4.7-0.3,6.5c-0.1,1.8-0.3,3.3-0.5,4.5c-0.2,1.2-0.4,2.2-0.6,3.1
			l0,1h0.6c1,0,2.5,0.1,4.4,0.1l6.1,0.3c2.2,0.1,4.3,0.2,6.4,0.3c2.2,0.1,4,0.1,5.5,0.1c4.2,0,8.4-0.4,12.4-1.1
			c4-0.7,7.8-1.9,11.3-3.5C563.3,521.7,566.6,519.7,569.5,517.2 M536.6,521.3c-0.6,0-1.4,0-2.4-0.1c-0.9,0-1.9-0.1-2.9-0.2
			c-1-0.1-1.9-0.1-2.8-0.2c-0.6-0.1-1.1-0.1-1.6-0.2c-0.1-2.4-0.3-5.3-0.4-8.6c-0.1-3.7-0.2-7.5-0.3-11.5c-0.1-4-0.1-7.9-0.1-11.7
			c0-3.8-0.1-7-0.1-9.7c0-1.3,0-2.7,0-4.4l0.1-10.7c0-1.9,0.1-3.7,0.1-5.5l0.2-12.4c0.6,0,1.3-0.1,2.2-0.2c1.1-0.1,2.3-0.2,3.5-0.2
			l3.8-0.2c1.3-0.1,2.4-0.1,3.4-0.1c5.1,0,9.6,0.8,13.5,2.5c3.9,1.6,7.2,4.1,9.8,7.3c2.6,3.2,4.7,7.2,6,11.8
			c1.4,4.7,2.1,10.1,2.1,16.1c0,5.4-0.5,10.2-1.5,14.2c-1,4-2.3,7.4-4,10.2c-1.7,2.8-3.6,5.1-5.8,6.9c-2.2,1.8-4.6,3.2-7.1,4.2
			c-2.5,1-5.2,1.7-7.9,2.1C542,521.1,539.3,521.3,536.6,521.3"/>
		<path class="st1" d="M627.8,518.4c-2.8,0.5-6,1-9.7,1.4c-3.5,0.4-7.4,0.6-11.6,0.6v-29.4l16.6-7.1c0.5-0.5,0.5-1.3,0-1.8
			l-16.7-7.1v-28.3l3.5-0.2c1.2-0.1,2.4-0.1,3.6-0.2c1.3-0.1,2.3-0.1,3.2-0.1c2.6,0,5,0.1,7,0.3c2.1,0.2,3.8,0.4,5.2,0.7
			c1.6,0.3,3.1,0.6,4.3,0.9l0.6,0.2l3.3-9.6l-1.1,0.2c-0.9,0.2-2.8,0.4-5.5,0.5c-2.7,0.1-6.1,0.2-9.9,0.3c-3.9,0.1-8.2,0.1-12.8,0.1
			c-4.7,0-9.3,0.1-14.1,0.1h-0.6v0.6l0,0.4c0.2,0.8,0.4,1.8,0.6,3.1c0.2,1.2,0.4,2.8,0.5,4.6c0.1,1.8,0.3,4.1,0.3,6.5
			c0.1,2.5,0.1,5.5,0.1,8.9v15l-7.8,3.3c-0.5,0.5-0.5,1.3,0,1.8l7.8,3.2v15.7c0,3.4,0,6.4-0.1,8.9c-0.1,2.5-0.2,4.7-0.3,6.5
			c-0.2,1.8-0.3,3.3-0.5,4.5c-0.2,1.2-0.4,2.2-0.6,3.1l0,1h25.1c0.4,0,1,0,1.8,0l6.4,0.1c1.2,0,2.4,0.1,3.5,0.1c1.1,0,2.1,0.1,3,0.1
			c0.9,0,1.6,0.1,2,0.1l0.6,0l1.9-11.2l-1,0.3C633.9,517.2,631,517.8,627.8,518.4"/>
		<path class="st1" d="M672.9,518.9c-1,1-2.3,1.8-3.7,2.4c-1.5,0.6-3.1,0.9-4.9,0.9c-2,0-3.9-0.4-5.6-1.1c-1.7-0.7-3.2-1.7-4.5-3
			c-1.3-1.2-2.4-2.7-3.4-4.3c-0.9-1.6-1.6-3.4-2-5.2l-0.1-0.5h-2.5l-1.4,14.2l0.3,0.2c0.9,0.6,2,1.3,3.3,2c1.3,0.7,2.8,1.4,4.5,2
			c1.7,0.6,3.5,1.2,5.5,1.6c2,0.4,4.1,0.7,6.3,0.7c3.9,0,7.3-0.7,10.2-2c2.9-1.3,5.2-3.1,7.1-5.2c1.8-2.1,3.2-4.6,4-7.3
			c0.9-2.7,1.3-5.3,1.3-8c0-3.6-0.8-6.9-2.4-10c-1.5-3-3.5-6-5.8-8.8c-2.3-2.8-4.8-5.4-7.5-8c-2.6-2.5-5.1-5.1-7.4-7.6
			c-2.3-2.5-4.2-5.1-5.7-7.6c-1.5-2.5-2.2-5.2-2.2-7.9c0-1.7,0.2-3.3,0.7-4.7c0.5-1.4,1.1-2.6,2-3.6c0.9-1,2-1.8,3.4-2.3
			c1.4-0.6,2.9-0.9,4.7-0.9c2,0,3.7,0.3,5.2,1s2.7,1.5,3.7,2.4c1,0.9,1.8,2,2.5,3.1c0.6,1.1,1.1,2.1,1.4,3l0.1,0.4h2.3l0.4-12.2
			l-2.7-1.3c-0.9-0.4-2-0.9-3.4-1.3c-1.3-0.4-2.8-0.8-4.3-1.2c-1.6-0.3-3.4-0.5-5.3-0.5c-2.6,0-5.2,0.5-7.7,1.5
			c-2.5,1-4.7,2.4-6.7,4.3c-2,1.8-3.5,4.1-4.7,6.7c-1.2,2.6-1.8,5.6-1.8,8.8c0,3.1,0.4,5.9,1.3,8.4c0.9,2.5,2.1,4.9,3.5,7.1
			c1.4,2.2,3.1,4.3,4.9,6.2c1.8,1.9,3.7,3.8,5.5,5.6c1.9,1.8,3.7,3.6,5.5,5.4c1.8,1.8,3.4,3.6,4.7,5.5c1.4,1.9,2.5,3.9,3.4,5.9
			c0.8,2.1,1.2,4.3,1.2,6.7c0,1.7-0.3,3.3-0.8,4.7C674.7,516.6,673.9,517.9,672.9,518.9"/>
		<path class="st1" d="M753.1,511.2c-0.1,2.6-0.2,4.8-0.3,6.5c-0.1,1.8-0.3,3.3-0.5,4.5c-0.2,1.2-0.4,2.2-0.6,3.1l0,1h14.8v-0.6
			l0-0.4c-0.2-0.8-0.4-1.9-0.6-3.1c-0.2-1.2-0.4-2.8-0.5-4.5c-0.1-1.9-0.2-4.1-0.3-6.5c-0.1-2.5-0.1-5.4-0.1-8.9v-12.7
			c0.9,0.1,1.7,0.2,2.6,0.3c2,0.1,4.1,0.2,6,0c0.7-0.1,1.5-0.1,2.2-0.2l19.8,29.5c0.8,1.2,1.5,2.5,2.1,3.7c0.6,1.2,0.9,2.2,1,2.8
			l0.1,0.5h17.5V525l-0.4-0.2c-0.7-0.3-1.4-0.6-2.1-1.1c-0.7-0.5-1.4-1.1-2.2-1.8c-0.7-0.8-1.6-1.7-2.4-2.7
			c-0.8-1.1-1.8-2.4-2.7-3.8L787,486.5c2-1,3.8-2.2,5.4-3.6c1.8-1.6,3.4-3.4,4.7-5.4c1.3-2,2.3-4.3,3-6.8c0.7-2.5,1.1-5.2,1.1-8.2
			c0-3.7-0.7-7.1-2-10.1c-1.3-3-3.1-5.5-5.4-7.5c-2.3-2-5.1-3.6-8.2-4.7c-3.1-1.1-6.6-1.6-10.2-1.6c-3.9,0-7.2,0.2-9.7,0.6
			c-2.5,0.4-4.4,0.6-5.9,0.6c-0.9,0-1.8,0-2.7,0c-0.9,0-1.6-0.1-2.3-0.1l-3.1-0.3v0.7l0,0.4c0.2,0.8,0.4,1.8,0.6,3.1
			c0.2,1.2,0.4,2.8,0.5,4.6c0.1,1.7,0.2,3.9,0.3,6.5c0.1,2.5,0.1,5.4,0.1,8.9v39C753.3,505.8,753.2,508.7,753.1,511.2 M773.9,443.9
			c2.5,0,4.6,0.5,6.5,1.3c1.8,0.9,3.3,2.1,4.5,3.8c1.2,1.6,2.1,3.6,2.8,6c0.6,2.4,0.9,5.1,0.9,8c0,3.6-0.4,6.8-1.3,9.4
			c-0.9,2.6-2.1,4.9-3.7,6.6c-1.6,1.7-3.5,3.1-5.7,3.9c-3.1,1.2-6.6,1.5-10.5,1.2c-0.8-0.1-1.7-0.2-2.5-0.4V445
			c0.7-0.3,1.7-0.5,3-0.7C769.3,444,771.4,443.9,773.9,443.9"/>
		<path class="st1" d="M431.9,558.7c-1.8-1.8-3.9-3.2-6.4-4.2c-2.4-1-5.2-1.5-8-1.5c-1.9,0-3.8,0.3-5.4,0.8
			c-1.7,0.5-3.2,1.3-4.6,2.2c-1.4,0.9-2.6,2.1-3.7,3.3c-1.1,1.3-2,2.7-2.7,4.2c-0.7,1.5-1.3,3.1-1.7,4.8c-0.4,1.7-0.6,3.4-0.6,5.1
			c0,3,0.5,5.9,1.5,8.4c1,2.5,2.4,4.7,4.2,6.5c1.8,1.8,3.9,3.2,6.4,4.2c2.4,1,5.1,1.5,8,1.5c1.9,0,3.7-0.3,5.4-0.8
			c1.7-0.5,3.2-1.3,4.6-2.2c1.4-0.9,2.6-2,3.7-3.3c1.1-1.3,2-2.7,2.7-4.2c0.7-1.5,1.3-3.1,1.7-4.8c0.4-1.7,0.6-3.4,0.6-5.1
			c0-3-0.5-5.8-1.5-8.4C435.1,562.7,433.7,560.5,431.9,558.7 M431,575.2c0,2.4-0.3,4.5-0.9,6.4c-0.6,1.9-1.4,3.5-2.5,4.7
			c-1.1,1.3-2.3,2.2-3.8,2.9c-1.5,0.7-3.1,1-4.9,1c-2.2,0-4.2-0.5-5.8-1.4c-1.7-0.9-3.1-2.2-4.2-3.9c-1.1-1.7-2-3.7-2.6-5.9
			c-0.6-2.3-0.9-4.8-0.9-7.5c0-2.4,0.3-4.6,0.9-6.4c0.6-1.8,1.4-3.4,2.5-4.7c1-1.3,2.3-2.2,3.8-2.9c1.4-0.7,3.1-1,4.9-1
			c2.2,0,4.2,0.4,5.8,1.4c1.7,0.9,3.1,2.2,4.2,3.8c1.1,1.6,2,3.6,2.6,5.9C430.7,570,431,572.5,431,575.2"/>
		<path class="st1" d="M478,553.7v0.6l0,0.2c0.1,0.4,0.2,0.8,0.3,1.3c0.1,0.5,0.2,1.2,0.2,2c0.1,0.8,0.1,1.8,0.1,2.9
			c0,1.1,0.1,2.4,0.1,3.9v17.1l-25.1-28.2h-1.9l-0.6,0.1v0.6l0,0.2c0.1,0.4,0.2,0.8,0.3,1.3c0.1,0.5,0.2,1.2,0.2,2
			c0.1,0.8,0.1,1.8,0.1,2.9c0,1.1,0.1,2.4,0.1,3.9v17.4c0,1.5,0,2.8-0.1,3.9c0,1.1-0.1,2.1-0.1,2.9c-0.1,0.8-0.1,1.5-0.2,2
			c-0.1,0.5-0.2,1-0.3,1.3l0,0.9h5.1l0.6-0.1v-0.6l0-0.2c-0.1-0.4-0.2-0.8-0.3-1.3c-0.1-0.5-0.2-1.2-0.2-2c-0.1-0.8-0.1-1.8-0.2-2.9
			c0-1.1,0-2.4,0-3.9v-16.6l24.9,28l0.2,0.2h1.8v-29c0-1.5,0-2.8,0.1-3.9c0-1.1,0.1-2.1,0.1-2.9c0.1-0.8,0.1-1.5,0.2-2
			c0.1-0.5,0.2-1,0.3-1.3l0-0.9h-5.1L478,553.7z"/>
		<path class="st1" d="M514.5,588.6c-1.2,0.2-2.7,0.4-4.3,0.6c-1.5,0.1-3.1,0.2-4.8,0.3v-24.8c0-1.5,0-2.8,0.1-3.9
			c0-1.1,0.1-2.1,0.1-2.9c0.1-0.8,0.1-1.5,0.2-2c0.1-0.5,0.2-1,0.3-1.3l0-0.9h-6.7l-0.6,0.1v0.6l0,0.2c0.1,0.4,0.2,0.8,0.3,1.3
			c0.1,0.5,0.2,1.2,0.2,2c0.1,0.8,0.1,1.8,0.1,2.9c0,1.1,0.1,2.4,0.1,3.9v17.4c0,1.5,0,2.8-0.1,3.9c0,1.1-0.1,2.1-0.1,2.9
			c-0.1,0.8-0.1,1.5-0.2,2c-0.1,0.5-0.2,1-0.3,1.3l0,0.9h11.5c0.2,0,0.4,0,0.8,0l2.9,0.1c0.5,0,1.1,0,1.6,0l1.4,0.1
			c0.4,0,0.7,0,0.9,0.1l0.6,0.1l1-5.9l-1,0.3C517.3,588.1,516,588.4,514.5,588.6"/>
		<path class="st1" d="M538.8,560.8c0-1.1,0.1-2.1,0.1-2.9c0.1-0.8,0.1-1.5,0.2-2c0.1-0.5,0.2-1,0.3-1.3l0-0.9h-6.7l-0.6,0.1v0.6
			l0,0.2c0.1,0.4,0.2,0.8,0.3,1.3c0.1,0.5,0.1,1.2,0.2,2c0.1,0.8,0.1,1.8,0.1,2.9c0,1.1,0.1,2.4,0.1,3.9v17.4c0,1.5,0,2.8-0.1,3.9
			c0,1.1-0.1,2.1-0.1,2.9c-0.1,0.8-0.1,1.5-0.2,2c-0.1,0.5-0.2,1-0.3,1.3l0,0.9h6.7l0.6-0.1v-0.6l0-0.2c-0.1-0.4-0.2-0.8-0.3-1.3
			c-0.1-0.5-0.2-1.2-0.2-2c0-0.8-0.1-1.8-0.1-2.9c0-1.1-0.1-2.4-0.1-3.9v-17.4C538.7,563.2,538.7,561.9,538.8,560.8"/>
		<path class="st1" d="M581.6,553.7v0.6l0,0.2c0.1,0.4,0.2,0.8,0.3,1.3c0.1,0.5,0.2,1.2,0.2,2c0.1,0.8,0.1,1.8,0.2,2.9
			c0,1.1,0.1,2.4,0.1,3.9v17.1l-24.9-28l-0.2-0.2h-1.9l-0.6,0.1v0.6l0,0.2c0.1,0.4,0.2,0.8,0.3,1.3c0.1,0.5,0.2,1.2,0.2,2
			c0.1,0.8,0.1,1.8,0.2,2.9c0,1.1,0,2.4,0,3.9v17.4c0,1.5,0,2.8,0,3.9c0,1.1-0.1,2.1-0.2,2.9c-0.1,0.8-0.1,1.5-0.2,2
			c-0.1,0.5-0.2,1-0.3,1.3l0,0.9h5.1l0.6-0.1v-0.6l0-0.2c-0.1-0.4-0.2-0.8-0.3-1.3c-0.1-0.5-0.2-1.2-0.2-2c-0.1-0.8-0.1-1.8-0.2-2.9
			c0-1.1,0-2.4,0-3.9v-16.6l24.9,28l0.2,0.2h1.8v-29c0-1.5,0-2.8,0-3.9c0-1.1,0.1-2.1,0.2-2.9c0.1-0.8,0.1-1.5,0.2-2
			c0.1-0.5,0.2-1,0.3-1.3l0-0.9h-5.1L581.6,553.7z"/>
		<path class="st1" d="M618.1,588.6c-1.2,0.2-2.7,0.4-4.3,0.6c-1.5,0.1-3.1,0.2-4.8,0.3v-15.5c0.9,0,1.9,0.1,2.8,0.1
			c1.2,0.1,2.4,0.2,3.4,0.3c1.2,0.2,2.4,0.3,3.6,0.5l0.6,0.1l1.1-5.4l-0.9,0.1c-0.8,0.1-1.8,0.3-3,0.4c-1,0.1-2.2,0.2-3.5,0.3
			c-1.2,0.1-2.5,0.1-4,0.1v-13.3l1.2-0.1c0.5,0,1.1-0.1,1.6-0.1c0.6,0,1,0,1.4,0c1.2,0,2.2,0.1,3.1,0.2c0.9,0.1,1.7,0.2,2.3,0.3
			c0.7,0.1,1.4,0.3,1.9,0.4l0.6,0.2l1.8-5.2l-1.1,0.2c-0.3,0.1-0.9,0.1-2.4,0.2c-1.2,0.1-2.7,0.1-4.4,0.1c-1.7,0-3.6,0.1-5.7,0.1
			c-2.1,0-4.2,0-6.3,0l-0.6,0.1v0.6l0,0.2c0.1,0.4,0.2,0.8,0.3,1.3c0.1,0.5,0.2,1.2,0.2,2c0.1,0.8,0.1,1.8,0.1,2.9
			c0,1.1,0,2.4,0,3.9v17.4c0,1.5,0,2.8,0,3.9c0,1.1-0.1,2.1-0.1,2.9c-0.1,0.8-0.1,1.5-0.2,2c-0.1,0.5-0.2,1-0.3,1.3l0,0.9H614
			c0.2,0,0.4,0,0.8,0l2.9,0.1c0.5,0,1.1,0,1.6,0l1.3,0.1c0.4,0,0.7,0,0.9,0.1l0.6,0.1l1-5.9l-1,0.3
			C620.8,588.1,619.5,588.4,618.1,588.6"/>
		<path class="st1" d="M877.4,430.3l-0.6,0.1c-0.5,0.1-1.2,0.1-2.2,0.1c-1,0.1-2.1,0.1-3.3,0.2c-1.2,0-2.5,0.1-3.9,0.1l-7.1,0.2
			c-0.9,0-1.6,0-2,0h-36c-0.4,0-1.1,0-2,0l-7.1-0.2c-1.4,0-2.7-0.1-3.9-0.1c-1.2-0.1-2.4-0.1-3.4-0.2c-1,0-1.7-0.1-2.2-0.1l-0.6-0.1
			l-2,15.7l1-0.3c2.6-0.9,5.6-1.8,8.9-2.6c2.9-0.6,6.4-1.2,10.3-1.8c3.8-0.5,8-0.8,12.7-0.8v36.8l-11.6,4.9c-0.5,0.5-0.5,1.3,0,1.8
			l11.6,4.8v24.7c0,4.4,0,8.3-0.1,11.6c0,1.5-0.1,2.8-0.1,4.1l0,0.3l14.9,14.9l-0.4-2c-0.2-0.8-0.3-1.7-0.5-2.8
			c-0.2-1.6-0.4-3.7-0.6-6c-0.2-2.5-0.3-5.4-0.4-8.6c-0.1-3.3-0.2-7.2-0.2-11.6v-24.6l11.7-5c0.5-0.5,0.5-1.3,0-1.8l-11.7-5v-36.5
			c4.6,0,8.9,0.3,12.7,0.8c3.9,0.5,7.4,1.1,10.3,1.8c3.3,0.8,6.3,1.6,9,2.6l1,0.3L877.4,430.3z"/>
		<rect x="642.6" y="575.6" class="st1" width="257.8" height="2.5"/>
		<rect x="123.7" y="575.6" class="st1" width="257.8" height="2.5"/>
		<path class="st1" d="M696.9,487.5v15.3c0,3.4,0,6.4-0.1,8.9c-0.1,2.4-0.2,4.6-0.3,6.5c-0.1,1.8-0.3,3.3-0.5,4.5
			c-0.2,1.3-0.4,2.3-0.6,3.1l0,1h25.1c0.4,0,1,0,1.8,0l6.4,0.1c1.2,0,2.4,0.1,3.5,0.1c1.1,0,2.1,0.1,3,0.1c0.9,0,1.6,0.1,2,0.1
			l0.6,0l1.9-11.2l-1,0.3c-2.7,0.7-5.6,1.4-8.8,2c-2.8,0.5-6,1-9.7,1.4c-3.5,0.4-7.4,0.6-11.6,0.6v-29.8l15.8-6.7
			c0.5-0.5,0.5-1.3,0-1.8l-15.8-6.7v-28.7l3.5-0.2c1.2-0.1,2.4-0.1,3.6-0.2c1.3-0.1,2.3-0.1,3.2-0.1c2.6,0,5,0.1,7,0.3
			c2.1,0.2,3.8,0.4,5.2,0.7c1.6,0.3,3.1,0.6,4.3,0.9l0.6,0.2l3.3-9.6l-1.1,0.2c-0.9,0.2-2.8,0.4-5.5,0.5c-2.7,0.1-6.1,0.2-9.9,0.3
			c-3.9,0.1-8.2,0.1-12.8,0.1c-4.7,0-9.4,0.1-14.1,0.1h-0.6v0.6l0,0.4c0.2,0.8,0.4,1.7,0.6,3.1c0.2,1.2,0.4,2.8,0.5,4.6
			c0.2,1.9,0.3,4.1,0.3,6.5c0.1,2.5,0.1,5.5,0.1,8.9v14.6l-8.7,3.6c-0.5,0.5-0.5,1.3,0,1.8L696.9,487.5z"/>
	</g>
</g>
</svg>
