<svg xmlns="http://www.w3.org/2000/svg" viewBox="0 0 1024 1024">
   <circle cx="512" cy="512" r="512" style="fill:#202020"/>
   <path d="M425.8 660c-1.9-1.9-4.2-3.5-6.9-4.5-2.6-1.1-5.5-1.6-8.6-1.6-2.1 0-4 .3-5.8.9-1.8.6-3.5 1.4-4.9 2.4-1.5 1-2.8 2.2-4 3.6-1.1 1.4-2.1 2.9-2.9 4.5-.8 1.6-1.4 3.4-1.8 5.2-.4 1.8-.6 3.6-.6 5.5 0 3.3.5 6.3 1.6 9s2.6 5.1 4.5 7c1.9 1.9 4.2 3.4 6.9 4.5 2.6 1.1 5.5 1.6 8.6 1.6 2.1 0 4-.3 5.8-.8 1.8-.6 3.5-1.4 4.9-2.4 1.5-1 2.8-2.2 4-3.6 1.1-1.4 2.1-2.9 2.9-4.5.8-1.6 1.4-3.3 1.8-5.2.4-1.8.6-3.7.6-5.5 0-3.3-.5-6.3-1.6-9-1.1-2.8-2.6-5.1-4.5-7.1m-1 17.8c0 2.6-.3 4.9-1 6.9s-1.6 3.7-2.7 5.1c-1.1 1.4-2.5 2.4-4.1 3.1-1.6.7-3.3 1.1-5.2 1.1-2.4 0-4.5-.5-6.3-1.5-1.8-1-3.3-2.4-4.5-4.2-1.2-1.8-2.1-3.9-2.8-6.4-.6-2.5-.9-5.2-.9-8 0-2.6.3-4.9 1-6.9.6-2 1.5-3.7 2.7-5 1.1-1.4 2.5-2.4 4.1-3.1 1.6-.7 3.3-1.1 5.2-1.1 2.4 0 4.5.5 6.3 1.5 1.8 1 3.3 2.4 4.5 4.1 1.2 1.8 2.1 3.9 2.8 6.3.6 2.5.9 5.2.9 8.1m50.6-23.1v.9c.1.4.2.9.3 1.4.1.6.2 1.3.3 2.2.1.9.1 1.9.2 3.1 0 1.2.1 2.6.1 4.2v18.4l-27-30.4h-2.1l-.7.1v.9c.1.4.2.9.3 1.4.1.6.2 1.3.3 2.2.1.9.1 1.9.2 3.1 0 1.2.1 2.6.1 4.2v18.7c0 1.6 0 3-.1 4.3 0 1.2-.1 2.2-.2 3.1-.1.9-.2 1.6-.3 2.1-.1.6-.2 1-.3 1.4v1h5.5l.7-.1v-.9c-.1-.4-.2-.8-.3-1.4-.1-.6-.2-1.3-.2-2.2-.1-.9-.1-1.9-.2-3.1v-22.1l26.8 30.1.2.2h1.9v-31.2c0-1.6 0-3 .1-4.2 0-1.2.1-2.2.2-3.1.1-.9.2-1.6.2-2.2.1-.6.2-1 .3-1.4v-1h-5.5l-.8.3zm39.3 37.6c-1.3.2-2.9.5-4.6.7-1.6.2-3.3.3-5.1.3v-26.7c0-1.6 0-3 .1-4.2 0-1.2.1-2.2.2-3.1.1-.9.1-1.6.2-2.2.1-.6.2-1 .3-1.4v-1h-7.2l-.7.1v.9c.1.4.2.9.3 1.4.1.6.2 1.3.3 2.2.1.9.1 1.9.2 3.1 0 1.2.1 2.6.1 4.2v18.7c0 1.6 0 3-.1 4.2 0 1.2-.1 2.2-.2 3.1-.1.9-.2 1.6-.3 2.1-.1.6-.2 1-.3 1.4v1h13.3l3.1.1h1.7l1.5.1c.4 0 .7 0 .9.1l.6.1 1.1-6.3-1 .3c-1.4.2-2.8.5-4.4.8m26.1-30.1c.1-1.2.1-2.2.2-3.1.1-.9.2-1.6.3-2.2.1-.6.2-1 .3-1.4v-1h-7.2l-.7.1v.9c.1.4.2.9.3 1.4.1.6.2 1.3.2 2.2.1.9.1 1.9.2 3.1 0 1.2.1 2.6.1 4.2v18.7c0 1.6 0 3-.1 4.2 0 1.2-.1 2.2-.2 3.1-.1.9-.2 1.6-.2 2.2-.1.6-.2 1-.3 1.4v1h7.2l.7-.1v-.9c-.1-.4-.2-.9-.3-1.4-.1-.6-.2-1.3-.3-2.1-.1-.9-.1-1.9-.2-3.1 0-1.2-.1-2.6-.1-4.2v-18.7c.1-1.6.1-3 .1-4.3m46.1-7.5v.9c.1.4.2.9.3 1.4.1.6.2 1.3.2 2.2.1.9.1 1.9.2 3.1 0 1.2.1 2.6.1 4.2v18.4l-26.8-30.1-.2-.2h-2.1l-.7.1v.9c.1.4.2.9.3 1.4.1.6.2 1.3.3 2.2.1.9.1 1.9.2 3.1 0 1.2.1 2.6.1 4.2v18.7c0 1.6 0 3-.1 4.3-.1 1.2-.1 2.2-.2 3.1-.1.9-.2 1.6-.3 2.1-.1.6-.2 1-.3 1.4v1h5.5l.7-.1v-.9c-.1-.4-.2-.8-.3-1.4-.1-.6-.2-1.3-.2-2.2-.1-.9-.1-1.9-.2-3.1v-22.1l26.8 30.1.2.2h1.9v-35.4c.1-1.2.1-2.2.2-3.1.1-.9.1-1.6.2-2.2.1-.6.2-1 .3-1.4v-1h-5.5l-.6.2zm39.3 37.6c-1.3.2-2.9.5-4.6.7-1.6.2-3.3.3-5.1.3v-16.6c1 0 2 .1 3.1.1 1.3.1 2.5.2 3.6.4 1.3.2 2.6.3 3.8.5l.6.1 1.2-5.8-1 .2c-.9.2-2 .3-3.2.4-1 .1-2.3.2-3.8.3-1.3.1-2.7.1-4.3.2v-14.3l1.3-.1c.6 0 1.1-.1 1.7-.1.6 0 1.1-.1 1.5-.1 1.3 0 2.4.1 3.3.2 1 .1 1.8.2 2.5.3.8.1 1.5.3 2 .5l.6.2 1.9-5.5-1.2.2c-.3.1-1 .2-2.6.2-1.3.1-2.9.1-4.8.1s-3.9.1-6.2.1h-6.7l-.7.1v.9c.1.4.2.9.3 1.4.1.6.2 1.3.3 2.2.1.9.1 1.9.2 3.1 0 1.2.1 2.6.1 4.2v18.7c0 1.6 0 3-.1 4.2 0 1.2-.1 2.2-.2 3.1-.1.9-.2 1.6-.3 2.1-.1.6-.2 1-.3 1.4v1h13.3l3.1.1h1.7l1.4.1c.4 0 .7 0 .9.1l.6.1 1.1-6.3-1 .3c-1 .1-2.4.4-4 .7m-397.2-14h142.4v2.7H229zm423.6 0H795v2.7H652.6zm-309.9-72.4c4-3.4 7.5-7.4 10.4-12.1 2.9-4.7 5.1-10.2 6.7-16.3 1.6-6.1 2.4-13.1 2.4-20.7 0-10.7-1.5-19.8-4.6-27.2-3-7.4-7.2-13.4-12.4-18s-11.3-7.9-18.2-9.9c-6.8-2-14.1-3-21.6-3-2.8 0-5.8.1-9 .2-2.6.1-5.2.2-7.7.3l-1.5.1c-3 .1-5.6.2-7.9.3-2.3.1-3.9.2-4.9.2h-2.2c-.9 0-1.8-.1-2.7-.1-1-.1-2.2-.1-3.4-.2h-.9v1.5c.3 1.1.6 2.5.9 4.3.3 1.7.5 3.9.7 6.4.2 2.5.4 5.6.5 9.1.1 3.5.2 7.6.2 12.2v53.4c0 4.6-.1 8.7-.2 12.1-.1 3.4-.3 6.4-.5 9-.2 2.5-.5 4.6-.7 6.2-.3 1.7-.6 3.1-.9 4.2v1.4h.9c1.4 0 3.4.1 6 .2l8.3.5c2.9.2 5.9.3 8.8.5 3 .1 5.5.2 7.5.2 5.8 0 11.5-.5 17-1.5s10.7-2.6 15.5-4.7c5-2.5 9.5-5.3 13.5-8.6m-45 5.6c-.9 0-2 0-3.2-.1-1.3-.1-2.6-.1-3.9-.2-1.3-.1-2.6-.2-3.8-.3-.8-.1-1.6-.2-2.2-.3-.2-3.2-.4-7.2-.5-11.8-.1-5-.3-10.3-.3-15.7-.1-5.5-.1-10.8-.2-16 0-5.2-.1-9.6-.1-13.3v-6l.2-14.7c0-2.6.1-5.1.1-7.5l.3-17c.8-.1 1.8-.1 3-.2 1.5-.1 3.1-.2 4.8-.3l5.2-.2c1.7-.1 3.3-.1 4.7-.1 6.9 0 13.1 1.1 18.5 3.4 5.3 2.2 9.8 5.6 13.4 10 3.6 4.4 6.4 9.8 8.2 16.2 1.9 6.4 2.8 13.9 2.8 22.1 0 7.4-.7 14-2 19.4-1.3 5.5-3.2 10.2-5.4 14-2.3 3.8-5 7-8 9.4-3 2.4-6.3 4.4-9.8 5.7-3.5 1.4-7.1 2.3-10.8 2.9-3.7.3-7.4.6-11 .6m124.9-4.1c-3.8.7-8.3 1.3-13.4 1.9-4.8.5-10.1.8-15.9.8v-40.4l22.8-9.7c.7-.7.7-1.8 0-2.5l-22.8-9.7V509l4.9-.3c1.6-.1 3.3-.2 5-.3 1.7-.1 3.2-.1 4.4-.1 3.6 0 6.8.2 9.7.4 2.9.3 5.2.6 7.1.9 2.3.4 4.2.8 5.9 1.3l.8.2 4.6-13.1-1.5.3c-1.3.3-3.8.5-7.5.6-3.8.2-8.3.3-13.6.4-5.3.1-11.2.2-17.6.2-6.4.1-12.8.1-19.3.1h-.9v1.5c.3 1.1.6 2.5.9 4.2.3 1.7.5 3.8.7 6.3.2 2.5.3 5.6.4 9 .1 3.4.2 7.5.2 12.1v20.5l-10.7 4.5c-.7.7-.7 1.8 0 2.5l10.7 4.4v21.5c0 4.7-.1 8.8-.2 12.1-.1 3.4-.2 6.4-.4 9-.2 2.5-.5 4.6-.7 6.2-.3 1.7-.6 3.1-.9 4.2v1.4h34.4c.5 0 1.4 0 2.5.1l8.8.1c1.7 0 3.3.1 4.8.1 1.5.1 2.9.1 4.1.2 1.2.1 2.2.1 2.8.2l.8.1 2.6-15.4-1.3.4c-3.8 1-7.8 1.9-12.2 2.6m61.8.7c-1.4 1.4-3.1 2.5-5.1 3.3-2 .8-4.3 1.2-6.8 1.2-2.8 0-5.3-.5-7.6-1.5s-4.4-2.4-6.2-4.1c-1.8-1.7-3.4-3.7-4.6-5.9-1.2-2.2-2.2-4.6-2.7-7.1l-.1-.7h-3.4l-1.9 19.4.4.3c1.2.8 2.7 1.8 4.5 2.8 1.8 1 3.9 1.9 6.2 2.8 2.3.9 4.8 1.6 7.5 2.2 2.7.6 5.6.9 8.6.9 5.4 0 10.1-.9 14-2.8 3.9-1.8 7.2-4.2 9.7-7.1 2.5-2.9 4.4-6.3 5.5-9.9 1.2-3.6 1.8-7.3 1.8-11 0-4.9-1.1-9.5-3.2-13.7-2.1-4.1-4.8-8.2-8-12-3.2-3.8-6.6-7.5-10.3-11-3.6-3.5-7-7-10.2-10.4-3.1-3.4-5.7-7-7.8-10.5-2-3.4-3-7.1-3-10.8 0-2.4.3-4.5 1-6.4.6-1.9 1.6-3.6 2.8-5 1.2-1.4 2.8-2.5 4.6-3.2 1.9-.8 4-1.2 6.4-1.2 2.7 0 5.1.4 7.1 1.3s3.7 2 5.1 3.3c1.4 1.3 2.5 2.7 3.4 4.3s1.5 2.9 1.9 4.1l.2.6h3.2l.6-16.7-3.7-1.7c-1.3-.6-2.8-1.2-4.6-1.8-1.8-.6-3.8-1.1-6-1.6-2.2-.4-4.7-.7-7.3-.7-3.6 0-7.2.7-10.6 2-3.4 1.3-6.5 3.3-9.2 5.8-2.7 2.5-4.9 5.6-6.5 9.2-1.6 3.6-2.4 7.6-2.4 12.1 0 4.2.6 8.1 1.8 11.6 1.2 3.5 2.8 6.8 4.8 9.8 1.9 3 4.2 5.9 6.7 8.5 2.4 2.6 5 5.2 7.6 7.7 2.6 2.5 5.1 5 7.6 7.4 2.4 2.4 4.6 5 6.5 7.5 1.9 2.6 3.4 5.3 4.6 8.1 1.1 2.8 1.7 5.9 1.7 9.2 0 2.3-.4 4.5-1.1 6.5-1 1.8-2.1 3.5-3.5 4.9m110-10.5c-.1 3.6-.3 6.5-.5 8.9-.2 2.5-.4 4.6-.7 6.2-.3 1.7-.6 3.1-.9 4.2v1.4h20.3v-1.4c-.3-1.1-.6-2.6-.9-4.2-.3-1.7-.5-3.8-.7-6.2-.2-2.6-.3-5.6-.5-9-.1-3.4-.2-7.4-.2-12.1V568c1.2.2 2.4.3 3.5.4 2.8.2 5.6.2 8.2 0 1-.1 2-.2 3.1-.2l27.2 40.5c1.1 1.7 2.1 3.4 2.9 5 .8 1.6 1.3 3 1.4 3.9l.1.8h24v-1.8l-.6-.2c-1-.4-1.9-.9-2.8-1.5-.9-.6-1.9-1.5-2.9-2.5s-2.1-2.3-3.3-3.7c-1.1-1.5-2.4-3.2-3.7-5.2l-26.7-39.6c2.7-1.4 5.2-3 7.4-5 2.5-2.2 4.6-4.7 6.4-7.5 1.8-2.8 3.1-5.9 4.1-9.4 1-3.4 1.5-7.2 1.5-11.2 0-5.1-.9-9.8-2.7-13.9-1.8-4-4.3-7.5-7.5-10.3-3.2-2.8-7-5-11.3-6.4-4.3-1.4-9-2.2-14-2.2-5.3 0-9.8.3-13.3.8-3.4.5-6.1.8-8.1.8h-3.7c-1.2 0-2.3-.1-3.2-.2l-4.2-.4v1.6c.3 1.1.6 2.5.9 4.2.3 1.7.5 3.8.7 6.3.2 2.4.3 5.3.5 9 .1 3.4.2 7.4.2 12.2v53.4c.2 4.5.1 8.5 0 11.9m28.5-92.3c3.4 0 6.3.6 8.9 1.8 2.5 1.2 4.6 2.9 6.2 5.2 1.7 2.2 2.9 5 3.8 8.2.9 3.3 1.3 6.9 1.3 10.9 0 4.9-.6 9.3-1.8 12.9-1.2 3.6-2.9 6.7-5.1 9.1-2.1 2.4-4.8 4.2-7.8 5.4-4.2 1.6-9 2.1-14.4 1.6-1.2-.1-2.3-.3-3.5-.5v-53c1-.3 2.4-.7 4.1-1 2-.4 4.8-.6 8.3-.6m141.8-18.6-.8.1c-.7.1-1.7.1-3.1.2-1.4.1-2.9.2-4.6.2-1.7.1-3.5.1-5.3.2l-9.8.2h-54.9l-9.8-.2c-1.9 0-3.6-.1-5.3-.2-1.7-.1-3.2-.2-4.6-.2-1.4-.1-2.4-.1-3.1-.2l-.8-.1-2.8 21.5 1.3-.5c3.6-1.3 7.7-2.5 12.2-3.5 4-.9 8.7-1.7 14.1-2.4 5.2-.7 11-1.1 17.4-1.1v50.4l-15.9 6.7c-.7.7-.7 1.8 0 2.5l15.9 6.5v33.8c0 6-.1 11.3-.2 16 0 2-.1 3.9-.2 5.6v.4L725 643l-.5-2.8c-.2-1.1-.4-2.4-.6-3.8-.3-2.2-.6-5-.8-8.2-.2-3.4-.4-7.4-.5-11.7-.1-4.6-.2-9.9-.2-15.9v-33.7l16-6.8c.7-.7.7-1.8 0-2.5l-16-6.8v-50.1c6.4 0 12.2.4 17.4 1.1 5.4.7 10.1 1.5 14.1 2.4 4.5 1.1 8.7 2.2 12.3 3.5l1.3.5-2.8-21.5zm-247.4 78.5v21c0 4.7 0 8.8-.1 12.1-.1 3.3-.3 6.3-.5 9-.2 2.4-.4 4.5-.7 6.2-.3 1.8-.6 3.1-.9 4.2v1.4h34.4c.5 0 1.4 0 2.5.1l8.8.1c1.7 0 3.3.1 4.8.1 1.5.1 2.9.1 4.1.2 1.2.1 2.1.1 2.8.2l.8.1 2.6-15.4-1.3.4c-3.6 1-7.7 1.9-12.1 2.7-3.8.7-8.3 1.3-13.3 1.9-4.8.5-10.1.8-15.9.8v-40.9l21.6-9.2c.7-.7.7-1.8 0-2.5l-21.6-9.2V509l4.9-.3c1.6-.1 3.3-.2 5-.3 1.7-.1 3.2-.1 4.4-.1 3.6 0 6.8.1 9.6.4 2.9.3 5.2.6 7.1.9 2.2.4 4.2.8 5.9 1.3l.8.2 4.6-13.1-1.5.3c-1.3.3-3.8.5-7.5.6-3.7.2-8.3.3-13.6.4-5.3.1-11.2.2-17.6.2-6.4.1-12.8.1-19.3.1H515v1.5c.3 1.1.6 2.4.9 4.2.3 1.7.5 3.8.7 6.3.2 2.6.4 5.6.5 9 .1 3.4.1 7.5.1 12.2v20l-11.9 5c-.7.7-.7 1.8 0 2.5l12 4.9zm-236-119c-.1 4.2-.3 7.8-.6 10.8-.1 1.8-.6 3.4-1 4.8-.3.9-.5 1.8-.7 2.6-.1.9-1.1 1.9-2 2.8-.8.9-1.5 1.6-1.8 2.4v1.5h10.6c1.9 0 4.1.1 6.5.2 2.5.2 5.1.3 7.7.5 2.6.2 5.2.4 7.7.5 2.6.2 4.8.2 6.7.2 17.5 0 30.9-3.6 39.8-10.6 8.9-7.1 13.4-17.9 13.4-32.1 0-5.1-.9-9.7-2.7-13.9-1.8-4.1-4.3-7.8-7.6-10.9-3.2-3.1-7.1-5.7-11.6-7.7-3.5-1.6-7.4-2.9-11.5-3.8 2.5-.9 4.9-2 7-3.3 3.1-1.9 5.8-4.2 8.1-6.9 2.2-2.7 4-6 5.2-9.7 1.2-3.7 1.8-7.9 1.8-12.5 0-5.5-1-10.5-3.1-14.9-2-4.4-4.9-8.1-8.4-11-3.6-3-7.8-5.3-12.7-6.9-4.9-1.6-10.2-2.4-15.9-2.4-6.1 0-11.2.2-15 .7-3.8.5-6.9.7-9.1.7h-4.6c-1.5 0-2.8 0-4-.1-1.4 0-6.2 0-7.4-.1h-.9v1.5c.2.8.9 1.6 1.7 2.5.8 1 1.8 2 1.9 3 .1.9.5 1.8.8 2.7.4 1.3.9 2.8 1.1 4.6.3 3 .4 6.7.6 10.9.1 4.1.2 9 .2 14.7v23.4l-16.8 7c-.7.7-.7 1.8 0 2.5l16.8 6.3v25.3c-.1 5.7-.1 10.6-.2 14.7m26.5-111.4c1.8-.2 3.8-.3 6.2-.3 3.6 0 6.8.6 9.5 1.9 2.7 1.3 5.1 3.1 7 5.4 1.9 2.4 3.4 5.3 4.3 8.7 1 3.4 1.5 7.3 1.5 11.5 0 5-.7 9.5-2 13.3-1.3 3.7-3.2 6.9-5.6 9.4-2.4 2.5-5.3 4.3-8.7 5.6-3.4 1.2-7.2 1.9-11.4 1.9h-4.4c-1.1 0-2.5-.1-3.9-.3v-55.5c.8-.3 1.9-.5 3-.8 1.3-.4 2.8-.6 4.5-.8m9.1 66c5 0 9.5.7 13.2 2.2 3.7 1.4 6.9 3.5 9.3 6.1 2.4 2.6 4.3 5.8 5.6 9.4 1.2 3.6 1.9 7.7 1.9 12.1 0 11.2-2.7 19.5-7.9 24.8-5.2 5.3-13.7 8-25.2 8-1.4 0-3.3-.1-5.7-.4-2.2-.2-4.3-.5-6.5-.8-.4-3.1-.7-7-1-11.6-.2-5-.4-11.4-.4-19.1v-29.3c1.5-.3 3.5-.6 5.9-.8 3.1-.4 6.6-.6 10.8-.6m62.1 37.1c-.1 3.5-.3 6.5-.5 9s-.5 4.6-.7 6.2c-.3 1.7-.6 3.1-.9 4.2v1.4h34.4c.5 0 1.4 0 2.5.1l8.8.1c1.7 0 3.3.1 4.8.1 1.5.1 2.9.1 4.1.2 1.2.1 2.1.1 2.8.2l.8.1 2.6-15.4-1.3.4c-3.6 1-7.7 1.9-12.1 2.7-3.8.7-8.3 1.3-13.4 1.9-4.8.5-10.1.8-15.9.8v-77.4c0-4.6.1-8.7.2-12.1.1-3.5.3-6.5.5-9s.4-4.6.7-6.3c.3-1.7.6-3.1.9-4.2v-1.4H377v1.5c.3 1.1.6 2.5.9 4.2.3 1.7.5 3.8.7 6.3.2 2.5.4 5.5.5 9 .1 3.5.1 7.6.1 12.1V426c-.1 4.4-.1 8.5-.2 11.9m78 19.4-.1-.2s-.1-.1-.2-.7c-.1-.4-.1-.9-.1-1.6 0-2.4.4-4.7 1.3-7 .9-2.4 1.7-4.6 2.5-6.6l8.7-21.1c2.9-.1 6.1-.1 9.7-.1h27.4c4.5 0 8.2 0 11 .1l9.2 21.8c1.2 3 2 5.5 2.5 7.5.4 2 .6 3.8.6 5.5 0 .4 0 .9-.1 1.4-.1.6-.1.9-.2 1v1.5h23v-1.5l-.2-.2c-.2-.2-.5-.8-1.4-2.2-.7-1.2-1.5-2.6-2.5-4.4-.9-1.7-1.9-3.7-3-5.9-1-2.2-2.1-4.5-3-6.8L499.8 337h-7.4l-44.7 104.8c-1.6 4-3.2 7.3-4.5 9.9-1.4 2.6-2.5 4.4-3.4 5.4l-.2.2v1.5H457v-1.5zm15.6-46.2 20.1-49.3 20.5 49c-1.9 0-4 .1-6.3.1l-18 .2h-16.3zm167.2 45.2.3-.1 6.4-17.7-2-1.4-.5.6c-1.9 2.3-4 4.4-6.2 6.1-2.3 1.8-4.7 3.3-7.3 4.6-2.5 1.2-5.3 2.2-8.1 2.8-1.6.4-3.3.6-4.9.8V347.2c3.4.6 6.6 1.5 9.6 2.7 5.4 2.3 10.1 5.4 13.9 9.3l.4.4 1.9-.9-5.5-16.3-.4-.2c-8.3-3.2-17.5-4.9-27.3-4.9-6.3 0-12.2.8-17.6 2.4-5.4 1.6-10.4 3.8-14.9 6.6s-8.5 6.2-12.1 10c-3.5 3.8-6.5 8.1-8.9 12.7-2.4 4.6-4.2 9.5-5.5 14.5-1.3 5.1-1.9 10.3-1.9 15.5 0 9.3 1.6 17.8 4.7 25.4 3.1 7.6 7.5 14.2 13.2 19.6 5.6 5.4 12.4 9.7 20.2 12.6 7.8 3 16.5 4.5 25.8 4.5 4.6 0 9.3-.4 13.9-1.3 4.7-.7 9-1.9 12.8-3.5m-46.3-8.6c-5.8-3-10.7-7.1-14.6-12.3-3.9-5.2-6.9-11.4-8.8-18.5-2-7.1-3-14.9-3-23.2 0-7.5 1.1-14.2 3.1-20.1 2.1-5.8 5-10.8 8.7-14.8 3.7-4 8.2-7.1 13.3-9.2 1.4-.6 2.8-1.1 4.3-1.5V449c-1-.4-2-.8-3-1.3m16.9 4.3c-2.3-.1-4.6-.4-6.8-.9V346.9c1.9-.2 3.7-.4 5.7-.4h1.1V452zm140.4 2.7c-.9-.6-1.9-1.4-2.9-2.3-1.1-1-2.3-2.2-3.7-3.6-1.4-1.4-3.1-3.3-5.1-5.4l-47.6-55.3 39.4-34.9c3.5-3.1 6.8-5.7 9.9-7.9 3-2.1 6.1-3.5 9-4.3l.7-.2v-1.9H727v.9c0 2.9-2.5 6.5-7.3 10.7l-43.9 37.9V372c0-4.6.1-8.6.2-12.2.1-3.4.3-6.4.5-9 .2-2.5.4-4.6.7-6.3.3-1.6.6-3 .9-4.2v-1.4h-20.3v1.5c.3 1.1.6 2.5.9 4.2.3 1.7.5 3.8.7 6.3.2 2.5.4 5.6.5 9 .1 3.5.1 7.6.1 12.2v53.4c0 4.6-.1 8.7-.1 12.2-.1 3.4-.3 6.4-.5 8.9s-.5 4.6-.7 6.3c-.3 1.7-.6 3.1-.9 4.2v1.4h20.3v-1.4c-.3-1.1-.6-2.5-.9-4.2-.3-1.7-.5-3.8-.7-6.2-.2-2.5-.4-5.5-.5-8.9-.1-3.5-.2-7.6-.2-12.2v-31.3l47.1 54.7c.7.8 1.4 1.6 2.1 2.5.7.9 1.4 1.7 2 2.5.6.8 1.2 1.6 1.7 2.3.5.7.8 1.3 1 1.8l.2.5H754v-1.7l-.4-.3c-1-.7-1.9-1.3-2.8-1.9" style="fill:#fff"/>
</svg>
