<svg xmlns="http://www.w3.org/2000/svg" viewBox="0 0 1024 1024">
   <circle cx="512" cy="512" r="512" style="fill:#202020"/>
   <path d="M425.79 660a20.53 20.53 0 0 0-6.87-4.54 22.64 22.64 0 0 0-8.64-1.62 19.83 19.83 0 0 0-5.85.85 19 19 0 0 0-4.95 2.37 19.49 19.49 0 0 0-4 3.59 22.4 22.4 0 0 0-2.92 4.52 24.65 24.65 0 0 0-1.8 5.18 25 25 0 0 0-.61 5.53 24.18 24.18 0 0 0 1.62 9 20.89 20.89 0 0 0 4.52 7 20.29 20.29 0 0 0 6.88 4.51 23 23 0 0 0 8.63 1.58 19.72 19.72 0 0 0 5.83-.85 19 19 0 0 0 4.94-2.36 19.58 19.58 0 0 0 4-3.58 21.91 21.91 0 0 0 2.92-4.48 22.69 22.69 0 0 0 1.81-5.15 25.1 25.1 0 0 0 .61-5.52 24.25 24.25 0 0 0-1.62-9 21 21 0 0 0-4.52-7m-1 17.75a22.94 22.94 0 0 1-1 6.92 15.49 15.49 0 0 1-2.7 5.11 11.54 11.54 0 0 1-4.06 3.13 12.44 12.44 0 0 1-5.23 1.09 12.75 12.75 0 0 1-6.3-1.5 13.17 13.17 0 0 1-4.53-4.17 19.82 19.82 0 0 1-2.75-6.38 32.94 32.94 0 0 1-.93-8 22.57 22.57 0 0 1 1-6.92 15 15 0 0 1 2.69-5 11.4 11.4 0 0 1 4.08-3.12 12.65 12.65 0 0 1 5.22-1.06 12.8 12.8 0 0 1 6.29 1.47 13.19 13.19 0 0 1 4.51 4.13 19.93 19.93 0 0 1 2.76 6.33 32.55 32.55 0 0 1 1 8m51.31-23.22h5.53v1a14.22 14.22 0 0 0-.28 1.41c-.09.59-.17 1.31-.24 2.19s-.13 1.92-.16 3.12-.06 2.62-.06 4.24v31.19h-1.94l-.21-.23-26.8-30.11v22.09c0 1.25.1 2.24.17 3.11s.15 1.58.23 2.16a12.31 12.31 0 0 0 .29 1.41v.83l-.68.11h-5.52v-1c.1-.39.21-.86.3-1.43s.19-1.28.26-2.15.12-1.91.16-3.11.06-2.63.06-4.25v-18.7c0-1.61 0-3-.06-4.24s-.09-2.25-.16-3.12-.16-1.6-.26-2.17a14.53 14.53 0 0 0-.3-1.43v-.86l.68-.11h2.05l27 30.36v-18.42c0-1.61 0-3-.07-4.24s-.09-2.25-.15-3.12-.17-1.6-.26-2.17a14.21 14.21 0 0 0-.31-1.43v-.86Zm38.62 37.71a39.22 39.22 0 0 0 4.21-.93l1-.29-1.08 6.33-.62-.06c-.22 0-.53 0-.94-.06l-1.45-.06h-1.67l-3.07-.06h-13.29v-1c.11-.39.21-.86.3-1.43s.17-1.29.25-2.15.12-1.91.16-3.11.06-2.63.06-4.25v-18.7c0-1.61 0-3-.06-4.23s-.09-2.25-.16-3.12-.16-1.6-.25-2.17-.2-1-.3-1.43v-.86l.68-.11h7.2v1c-.1.39-.2.86-.29 1.43a21.49 21.49 0 0 0-.25 2.16c-.06.89-.11 1.93-.15 3.13s-.07 2.62-.07 4.23v26.64c1.85 0 3.57-.12 5.14-.28 1.77-.19 3.32-.41 4.65-.66m26.11-30c0 1.22-.07 2.62-.07 4.24v18.7c0 1.62 0 3 .07 4.25s.11 2.24.16 3.12.16 1.56.25 2.14a12.65 12.65 0 0 0 .29 1.43v.86l-.68.11h-7.18v-1a13.49 13.49 0 0 0 .29-1.41c.09-.58.16-1.3.24-2.16s.13-1.91.16-3.11.06-2.63.06-4.25v-18.7c0-1.61 0-3-.06-4.24s-.1-2.25-.16-3.12-.15-1.6-.24-2.19a13.93 13.93 0 0 0-.29-1.41v-.86l.68-.12h7.18v1a12.31 12.31 0 0 0-.29 1.42c-.1.57-.18 1.3-.25 2.16s-.11 1.93-.16 3.13m46.8-7.69h5.52v1c-.1.38-.2.86-.28 1.41s-.17 1.31-.24 2.19-.12 1.92-.17 3.12 0 2.62 0 4.24v31.19h-1.94l-.2-.23-26.8-30.11v22.09c0 1.25.1 2.24.17 3.11s.15 1.58.24 2.16a11.42 11.42 0 0 0 .29 1.41v.86l-.68.11H558v-1a13.32 13.32 0 0 0 .3-1.43c.1-.57.18-1.28.25-2.15s.12-1.91.17-3.11.05-2.63.05-4.25v-18.7c0-1.61 0-3-.05-4.24s-.1-2.24-.17-3.11-.16-1.6-.25-2.17a13.06 13.06 0 0 0-.3-1.43v-.86l.67-.11h2.06l.2.23 26.8 30.13v-18.43c0-1.61 0-3-.06-4.24s-.09-2.25-.17-3.12-.15-1.6-.25-2.17a13.2 13.2 0 0 0-.3-1.43v-.86Zm38.61 37.71a40 40 0 0 0 4.22-.93l1-.29-1.07 6.33-.62-.06c-.21 0-.52 0-.95-.06l-1.44-.06h-1.68l-3.08-.06h-13.29v-1c.1-.39.2-.86.3-1.43s.19-1.28.26-2.15.12-1.91.16-3.11.05-2.63.05-4.25v-18.7q0-2.41-.05-4.23c0-1.21-.08-2.25-.16-3.12a20.86 20.86 0 0 0-.26-2.17c-.09-.57-.19-1-.29-1.43v-.86l.68-.11h6.74c2.23 0 4.29 0 6.15-.08s3.44-.07 4.77-.12a17.6 17.6 0 0 0 2.58-.22l1.17-.23-1.94 5.55-.61-.17a16.51 16.51 0 0 0-2-.46c-.68-.11-1.5-.22-2.48-.31a29.53 29.53 0 0 0-3.33-.17c-.43 0-.93 0-1.53.05l-1.74.1-1.34.09v14.34c1.61 0 3-.08 4.33-.16 1.49-.11 2.76-.2 3.81-.3 1.22-.11 2.3-.25 3.21-.4l1-.16-1.16 5.76-.64-.09c-1.25-.18-2.52-.33-3.83-.49-1.11-.14-2.32-.25-3.64-.37-1.06-.07-2.08-.14-3.07-.14v16.6c1.85 0 3.58-.12 5.14-.28 1.76-.19 3.33-.41 4.64-.66M229 678.27h142.44V681H229Zm423.56 0H795V681H652.56Zm-309.85-72.38a49.14 49.14 0 0 0 10.38-12.15 59.85 59.85 0 0 0 6.73-16.31 82.84 82.84 0 0 0 2.39-20.72c0-10.67-1.51-19.79-4.56-27.15a45.71 45.71 0 0 0-30.57-27.82 77.57 77.57 0 0 0-21.65-3c-2.8 0-5.82.06-9 .15l-7.66.28-1.53.06c-3 .11-5.58.21-7.89.33s-3.92.17-4.88.17h-2.21c-.94 0-1.83-.08-2.7-.13-1-.06-2.16-.11-3.35-.16h-.9v1.46q.45 1.69.87 4.25c.28 1.72.53 3.87.73 6.38s.36 5.57.46 9.05.16 7.63.16 12.24v53.4c0 4.62-.06 8.72-.16 12.15s-.26 6.45-.46 9-.45 4.58-.73 6.24-.57 3.06-.87 4.19v1.41h.87c1.41 0 3.44.08 6 .2l8.34.46 8.81.45c3 .13 5.5.2 7.53.2a96.41 96.41 0 0 0 17-1.49 67.73 67.73 0 0 0 15.51-4.74 57 57 0 0 0 13.31-8.29m-45 5.57c-.88 0-2 0-3.23-.08s-2.59-.13-3.94-.21-2.59-.19-3.8-.32l-2.17-.26c-.19-3.24-.36-7.21-.5-11.83-.14-5-.27-10.28-.34-15.75s-.14-10.79-.2-16-.07-9.62-.07-13.28v-6l.15-14.73c0-2.56.07-5.08.11-7.54l.31-17 3-.23c1.5-.14 3.13-.24 4.84-.33l5.24-.24c1.74-.07 3.31-.11 4.7-.11a46.67 46.67 0 0 1 18.47 3.34 34.7 34.7 0 0 1 13.4 10 45.09 45.09 0 0 1 8.25 16.21 78.85 78.85 0 0 1 2.84 22.12 83.56 83.56 0 0 1-2 19.44 50.39 50.39 0 0 1-5.44 14 34.57 34.57 0 0 1-8 9.4 38.75 38.75 0 0 1-9.79 5.74 45.86 45.86 0 0 1-10.8 2.86 81.56 81.56 0 0 1-11 .77m124.9-4a121.49 121.49 0 0 0 12.11-2.67l1.32-.38-2.62 15.41-.79-.06c-.61-.05-1.53-.11-2.76-.17l-4.14-.15c-1.51-.06-3.11-.11-4.79-.14l-8.78-.15c-1.14 0-2-.05-2.5-.05h-34.41v-1.41c.29-1.1.59-2.52.87-4.19s.52-3.78.73-6.24.34-5.51.44-9 .17-7.49.17-12.15v-21.54l-10.68-4.38a1.78 1.78 0 0 1 0-2.53l10.65-4.48v-20.5c0-4.65-.05-8.74-.17-12.15s-.24-6.44-.44-9-.46-4.61-.73-6.29-.58-3.08-.87-4.18v-1.43h.87q9.69 0 19.27-.08c6.37-.05 12.24-.11 17.55-.2s9.87-.2 13.63-.36a59 59 0 0 0 7.54-.64l1.49-.31-4.57 13.14-.79-.22a54.51 54.51 0 0 0-5.88-1.3c-1.9-.32-4.24-.63-7.12-.93a94.29 94.29 0 0 0-9.65-.45c-1.21 0-2.7 0-4.42.11s-3.38.17-5 .29l-4.86.27v38.78l22.82 9.68a1.8 1.8 0 0 1 0 2.53l-22.82 9.73v40.36a157.94 157.94 0 0 0 15.86-.8c5.09-.55 9.58-1.18 13.36-1.88m61.84.69a14.72 14.72 0 0 0 3.26-5.07 18.3 18.3 0 0 0 1.13-6.5 24.65 24.65 0 0 0-1.7-9.23 38.27 38.27 0 0 0-4.6-8.14 69.11 69.11 0 0 0-6.51-7.53c-2.45-2.46-5-4.93-7.55-7.42s-5.15-5.07-7.6-7.69a61.13 61.13 0 0 1-6.68-8.53 45.18 45.18 0 0 1-4.79-9.78 35 35 0 0 1-1.83-11.55 28.66 28.66 0 0 1 28.64-29.09 37.86 37.86 0 0 1 7.31.67 47.74 47.74 0 0 1 6 1.59c1.82.63 3.33 1.24 4.63 1.83l3.7 1.73-.6 16.74H494l-.2-.59a22.59 22.59 0 0 0-1.9-4.1 18 18 0 0 0-8.53-7.6 17.35 17.35 0 0 0-7.06-1.33 16.55 16.55 0 0 0-6.41 1.17 12.66 12.66 0 0 0-4.61 3.21 14 14 0 0 0-2.81 5 20.23 20.23 0 0 0-1 6.45 21.15 21.15 0 0 0 3 10.84 64.26 64.26 0 0 0 7.77 10.48c3.15 3.48 6.59 7 10.2 10.45a137 137 0 0 1 10.3 11 64.42 64.42 0 0 1 8 12 30 30 0 0 1 3.25 13.7 35.53 35.53 0 0 1-1.79 11 29.2 29.2 0 0 1-5.55 9.94 28.28 28.28 0 0 1-9.69 7.15 33.26 33.26 0 0 1-14 2.76 40.74 40.74 0 0 1-8.6-.89 54.42 54.42 0 0 1-7.5-2.16 50.38 50.38 0 0 1-6.16-2.8 48.6 48.6 0 0 1-4.47-2.78l-.4-.28 1.92-19.41h3.41l.15.68a26.21 26.21 0 0 0 2.71 7.11 24.67 24.67 0 0 0 4.61 5.94 21.33 21.33 0 0 0 6.24 4.09 18.69 18.69 0 0 0 7.65 1.54 18.13 18.13 0 0 0 6.77-1.21 15.25 15.25 0 0 0 5.11-3.34m110-10.54c-.15 3.63-.29 6.54-.47 8.93s-.41 4.59-.69 6.22-.57 3.08-.87 4.2v1.41h20.34v-1.41c-.31-1.15-.61-2.57-.88-4.2s-.5-3.78-.68-6.22c-.19-2.6-.34-5.61-.47-9s-.19-7.38-.19-12.15V568c1.17.18 2.36.33 3.52.41a57.17 57.17 0 0 0 8.16 0c1-.07 2-.15 3.07-.24l27.18 40.49a46.3 46.3 0 0 1 2.94 5 15.07 15.07 0 0 1 1.44 3.88l.09.75h24v-1.79l-.56-.22a12.72 12.72 0 0 1-2.83-1.5 20.86 20.86 0 0 1-2.95-2.53 44.8 44.8 0 0 1-3.27-3.73c-1.15-1.46-2.4-3.22-3.73-5.2l-26.66-39.61a37.4 37.4 0 0 0 7.44-5 34.16 34.16 0 0 0 6.41-7.45 35.63 35.63 0 0 0 4.13-9.37 40.85 40.85 0 0 0 1.47-11.18 34.25 34.25 0 0 0-2.68-13.86 29.07 29.07 0 0 0-7.45-10.33 32.65 32.65 0 0 0-11.27-6.41 43.79 43.79 0 0 0-14-2.19 91.48 91.48 0 0 0-13.3.8 58.14 58.14 0 0 1-8.05.77h-3.74c-1.21 0-2.25-.1-3.22-.2l-4.21-.43v1.57c.31 1.11.59 2.53.87 4.21s.52 3.78.69 6.27.32 5.31.47 9c.12 3.44.2 7.4.2 12.16v53.39c0 4.79-.08 8.78-.2 12.18m28.51-92.27a20.08 20.08 0 0 1 8.86 1.84 16.93 16.93 0 0 1 6.23 5.15 23.47 23.47 0 0 1 3.78 8.18 43 43 0 0 1 1.29 10.94 41.54 41.54 0 0 1-1.81 12.89 25.45 25.45 0 0 1-5.06 9.08 20.22 20.22 0 0 1-7.84 5.4 32.07 32.07 0 0 1-14.42 1.58 31.31 31.31 0 0 1-3.48-.54v-53a30 30 0 0 1 4.1-1 49.9 49.9 0 0 1 8.37-.56m144.56 2.84-1.33-.46a119.29 119.29 0 0 0-12.34-3.53c-4-.86-8.69-1.67-14.07-2.41a137 137 0 0 0-17.41-1.12v50.07l16 6.79a1.8 1.8 0 0 1 0 2.53l-16 6.8v33.75c0 6 .08 11.38.22 15.94.14 4.38.31 8.34.52 11.74.2 3.2.46 6 .78 8.21.2 1.44.41 2.68.63 3.8L725 643l-20.46-20.48v-.38c.08-1.78.15-3.63.19-5.64.11-4.61.18-10 .18-16v-33.8L689 560.27a1.77 1.77 0 0 1 0-2.53l15.89-6.68v-50.4a137 137 0 0 0-17.4 1.12c-5.38.74-10.13 1.54-14.09 2.41a114.78 114.78 0 0 0-12.23 3.52l-1.34.47 2.8-21.51.83.08c.68.07 1.7.14 3.06.2s2.92.17 4.61.24 3.47.11 5.33.15l9.75.22h54.87l9.76-.22q2.79-.06 5.34-.15c1.69-.07 3.23-.16 4.59-.24s2.4-.13 3.08-.2l.84-.08Zm-262.09 52.1a1.79 1.79 0 0 1 0-2.53l11.87-5v-20c0-4.65 0-8.74-.14-12.15s-.26-6.33-.47-9c-.19-2.48-.44-4.6-.72-6.29s-.59-3.11-.88-4.18v-1.43h.87q9.69 0 19.28-.08t17.57-.2c5.28-.08 9.87-.2 13.61-.36a58.89 58.89 0 0 0 7.54-.64l1.49-.31-4.56 13.12-.92-.22a56 56 0 0 0-5.87-1.3c-1.92-.32-4.24-.63-7.14-.93a92.33 92.33 0 0 0-9.64-.45c-1.23 0-2.71 0-4.44.11s-3.37.17-5 .29l-4.86.27v39.3l21.61 9.16a1.78 1.78 0 0 1 0 2.53l-21.6 9.21v40.89a158.47 158.47 0 0 0 15.89-.8c5.08-.55 9.57-1.18 13.35-1.88a120.41 120.41 0 0 0 12.1-2.67l1.33-.38-2.61 15.41-.8-.06c-.61-.05-1.53-.11-2.76-.17l-4.14-.15c-1.53-.06-3.12-.11-4.79-.14l-8.76-.15c-1.16 0-2-.05-2.51-.05H515v-1.41c.28-1.05.57-2.42.88-4.19s.53-3.8.72-6.24c.21-2.62.37-5.63.47-9s.14-7.49.14-12.15v-21ZM281.26 446.2c-.13 4.18-.31 7.83-.57 10.82a23.64 23.64 0 0 1-1 4.79 24.43 24.43 0 0 0-.68 2.64 6.67 6.67 0 0 1-2 2.8 6.63 6.63 0 0 0-1.76 2.42v1.49h10.55c1.89 0 4.09.08 6.54.24s5.07.34 7.69.55l7.7.54c2.63.17 4.8.25 6.65.25 17.54 0 30.92-3.59 39.78-10.65s13.44-17.91 13.44-32.07a35.34 35.34 0 0 0-2.66-13.88 32.86 32.86 0 0 0-7.56-10.95 41.83 41.83 0 0 0-11.6-7.75 54.84 54.84 0 0 0-11.51-3.76 41.59 41.59 0 0 0 7-3.34 29.48 29.48 0 0 0 13.26-16.64 39.81 39.81 0 0 0 1.84-12.51 35 35 0 0 0-3.06-14.9 31.56 31.56 0 0 0-8.43-11 37.93 37.93 0 0 0-12.68-6.87 52.08 52.08 0 0 0-15.93-2.42 132.12 132.12 0 0 0-15 .69 80.52 80.52 0 0 1-9.1.69h-4.58c-1.46 0-2.78 0-4-.1-1.41 0-6.17 0-7.38-.1h-.91v1.54a7.54 7.54 0 0 0 1.66 2.46 7.81 7.81 0 0 1 1.91 3 18.25 18.25 0 0 0 .76 2.69 18.79 18.79 0 0 1 1.09 4.56c.26 3 .43 6.69.57 10.88s.18 9 .18 14.69v23.4l-16.76 7a1.78 1.78 0 0 0 0 2.53l16.78 6.31v25.26c0 5.66-.06 10.6-.18 14.7m26.57-111.42a58.44 58.44 0 0 1 6.18-.29 22.74 22.74 0 0 1 9.54 1.9 19.2 19.2 0 0 1 7 5.44 24.72 24.72 0 0 1 4.33 8.69 41.76 41.76 0 0 1 1.4 11.48 39.71 39.71 0 0 1-2 13.26 26 26 0 0 1-5.61 9.36 23 23 0 0 1-8.68 5.59 33.3 33.3 0 0 1-11.39 1.87h-4.42c-1.15 0-2.45-.11-3.87-.26v-55.61a22 22 0 0 1 3-.75c1.24-.27 2.76-.48 4.51-.68m9.1 66.05a37 37 0 0 1 13.18 2.17 24.57 24.57 0 0 1 9.31 6.08 26 26 0 0 1 5.57 9.36 37.17 37.17 0 0 1 1.88 12.06c0 11.16-2.66 19.51-7.91 24.83s-13.72 8-25.17 8a55.56 55.56 0 0 1-5.67-.38c-2.16-.25-4.33-.51-6.48-.81-.4-3.1-.71-7-1-11.57-.25-5-.38-11.39-.38-19.11v-29.28c1.49-.27 3.48-.57 5.92-.85a98.31 98.31 0 0 1 10.67-.49m62.11 37.1c.09-3.48.15-7.58.15-12.15v-53.4c0-4.55-.06-8.65-.15-12.15s-.27-6.48-.46-9-.46-4.63-.74-6.29-.57-3.07-.87-4.19v-1.42h20.35v1.42c-.31 1.14-.61 2.53-.88 4.19s-.5 3.78-.68 6.27-.34 5.46-.47 9-.19 7.58-.19 12.15v77.38a158.54 158.54 0 0 0 15.88-.8c5.06-.55 9.55-1.18 13.35-1.88a121.43 121.43 0 0 0 12.08-2.68l1.33-.37-2.7 15.43-.79-.06c-.62 0-1.54-.11-2.76-.16l-4.14-.15c-1.53-.06-3.13-.11-4.81-.14l-8.76-.15c-1.15 0-2-.05-2.51-.05h-34.34v-1.41c.3-1.12.59-2.54.87-4.19s.52-3.75.74-6.23.35-5.49.46-9m78 19.34-.11-.2a2.07 2.07 0 0 1-.22-.68 8.78 8.78 0 0 1-.12-1.56 20.29 20.29 0 0 1 1.26-7c.88-2.41 1.71-4.61 2.47-6.63l8.76-21.1c2.88-.1 6.13-.14 9.68-.14h27.41c4.49 0 8.18 0 11 .14l9.17 21.8a47.94 47.94 0 0 1 2.47 7.52 26.59 26.59 0 0 1 .63 5.45c0 .4 0 .86-.06 1.38a4.39 4.39 0 0 1-.19 1v1.48h23v-1.48l-.19-.25c-.15-.2-.54-.76-1.42-2.2q-1.07-1.77-2.46-4.4c-.92-1.73-1.9-3.71-3-5.91s-2.07-4.46-3-6.8l-42.4-100.75h-7.36L447.6 441.71c-1.64 4-3.18 7.29-4.53 9.88a29.21 29.21 0 0 1-3.38 5.38l-.21.23v1.53H457Zm15.56-46.14 20.14-49.28 20.49 49c-1.94 0-4 .06-6.32.09l-18 .17h-9.23Zm167.28 45.17.34-.15 6.39-17.71-2-1.42-.5.62a38.09 38.09 0 0 1-6.24 6.15 40.36 40.36 0 0 1-7.32 4.59 36.77 36.77 0 0 1-8.07 2.83 34.14 34.14 0 0 1-4.92.77V347.23a41.78 41.78 0 0 1 9.63 2.74 43.47 43.47 0 0 1 13.89 9.27l.43.43 1.92-.93-5.51-16.27-.38-.16a75.15 75.15 0 0 0-27.31-4.88 63.11 63.11 0 0 0-17.62 2.36 59.22 59.22 0 0 0-14.92 6.61 58.51 58.51 0 0 0-12.06 10 59.62 59.62 0 0 0-8.88 12.7 64.12 64.12 0 0 0-5.45 14.54 64.92 64.92 0 0 0-1.89 15.55 66.38 66.38 0 0 0 4.67 25.42 57.12 57.12 0 0 0 13.17 19.61 58.6 58.6 0 0 0 20.2 12.61 72.47 72.47 0 0 0 25.84 4.46 75.26 75.26 0 0 0 13.93-1.3 61.28 61.28 0 0 0 12.65-3.7m-46.28-8.58a41.84 41.84 0 0 1-14.6-12.25 55.31 55.31 0 0 1-8.83-18.54 86.27 86.27 0 0 1-3-23.18 60.21 60.21 0 0 1 3.13-20.05 42.45 42.45 0 0 1 8.67-14.8 37.25 37.25 0 0 1 13.31-9.18 41.41 41.41 0 0 1 4.32-1.46V449a32.5 32.5 0 0 1-3-1.29m16.88 4.29a46.78 46.78 0 0 1-6.79-.86V346.88a50.26 50.26 0 0 1 5.71-.35h1.09Zm140.44 2.67c.89.61 1.81 1.22 2.79 1.81l.41.26v1.69h-24.19l-.21-.53a12.57 12.57 0 0 0-1-1.76 23.88 23.88 0 0 0-1.66-2.3q-.95-1.24-2-2.53c-.76-.89-1.48-1.69-2.13-2.46l-47.13-54.67v31.29c0 4.58.07 8.67.2 12.15s.28 6.43.46 8.95.41 4.58.69 6.25.57 3 .87 4.18v1.41h-20.35v-1.42c.29-1.12.6-2.53.87-4.18s.52-3.78.73-6.26.36-5.49.47-8.94.14-7.55.14-12.15v-53.4c0-4.6-.05-8.67-.14-12.15s-.26-6.45-.47-9-.46-4.63-.73-6.29-.57-3-.87-4.17v-1.42h20.35v1.42c-.3 1.14-.61 2.55-.87 4.17s-.52 3.77-.69 6.28-.35 5.57-.46 9-.2 7.58-.2 12.15v16.4l43.87-37.89c4.84-4.18 7.29-7.76 7.29-10.67v-.86h23.55v1.86l-.66.17a28.42 28.42 0 0 0-9 4.26 108.39 108.39 0 0 0-9.88 7.86l-39.39 34.87 47.61 55.29c2 2.15 3.71 4 5.13 5.41s2.64 2.61 3.73 3.58a33.58 33.58 0 0 0 2.9 2.31" style="fill:#fff"/>
</svg>
