<svg xmlns="http://www.w3.org/2000/svg" viewBox="0 0 1024 1024">
   <circle cx="512" cy="512" r="512" style="fill:#0075b2"/>
   <path d="M374.07 421.08h52.12A29.93 29.93 0 0 0 456 391.22v-52.15a29.91 29.91 0 0 0-29.85-29.83h-52.08a29.89 29.89 0 0 0-29.87 29.83v52.16a29.91 29.91 0 0 0 29.87 29.85Zm275.86 0a30 30 0 0 0 29.86-29.86v-52.15a29.94 29.94 0 0 0-29.86-29.83h-52.14a30 30 0 0 0-29.89 29.83v52.16a30 30 0 0 0 29.89 29.86ZM761.8 491h-52.14a30 30 0 0 0-29.87 29.91v52.16a29.92 29.92 0 0 1-29.86 29.79H374.06a29.87 29.87 0 0 1-29.87-29.79v-52.15a30 30 0 0 0-29.9-29.92h-52.13a30 30 0 0 0-29.84 29.91v52.16a29.9 29.9 0 0 0 29.84 29.79h52.14a30 30 0 0 1 29.9 29.82v52.2a29.9 29.9 0 0 0 29.87 29.87h275.86a30 30 0 0 0 29.86-29.87v-52.2a30 30 0 0 1 29.87-29.82h52.14a29.93 29.93 0 0 0 29.88-29.79v-52.15A30 30 0 0 0 761.8 491Z" style="fill:#fff"/>
</svg>
