<?xml version="1.0" encoding="utf-8"?>
<!-- Generator: Adobe Illustrator 21.0.0, SVG Export Plug-In . SVG Version: 6.00 Build 0)  -->
<svg version="1.1" xmlns="http://www.w3.org/2000/svg" xmlns:xlink="http://www.w3.org/1999/xlink" x="0px" y="0px"
	 viewBox="0 0 1024 1024" style="enable-background:new 0 0 1024 1024;" xml:space="preserve">
<style type="text/css">
	.st0{fill:#0566B0;}
	.st1{fill:#FFFFFF;}
</style>
<g id="Guides">
</g>
<g id="Icon">
	<circle class="st0" cx="512" cy="512" r="512"/>
	<g id="Logo" transform="translate(-318.227,-361.55121)" inkscape:groupmode="layer" inkscape:label="Layer 1">
		<path class="st1" d="M682.5,965.8c0,0,1.3,5.7,4.5,3.5c3.2-2.1,4.5-5.3,7.6-5.3c3.2,0,16.4-2.5,19.6,0c3.2,2.5,3.5,0.4,5.1,0.4
			s6.3,0.8,6.3,0.8c4.1-0.4,3.2-6.9,0.3-8.8c-4.2-3.3-10-5.5-14.2-8.8c-0.4-3.2-0.8-6.4-1.3-9.6c1.2-1.7,2.3-3.3,3.5-5
			c0-5.3,0-10.7,0-16c-0.6-1.4-1.3-2.8-1.9-4.3c-0.2-4-0.4-8.1-0.6-12.1c-0.5-0.7-1.1-1.4-1.6-2.1c0-1.5,0-3.1,0-4.6
			c1.1-1.5,3.2-3.1,4.3-4.6c0.3-3-1.1-5.1-0.8-8c-0.7-3.8-0.8-8.5-1.6-12.3c0-4.6,0-9.3,0-13.9c3.1-0.9,3.8-2.3,4-3.7
			c0.3-1.8-0.6-3.9-1.5-8.1c-0.4-22.2-0.6-45.3-1.1-67.4c1.7-2.7,3.7-4,3.8-6c0-1.5-1.6-2.8-3.7-4.5c0-1.5,0-3.1,0-4.6
			c0,0,3.5-7.1,6.4-7.1c2.9,0,4.8-2.1,4.8-4.3c2.6-5.2-2.9-5.7-2.9-5.7c-6.1-0.1-12.9,0.2-18.8,0.1c-5.2-0.1-9.5-0.7-14.6-0.8
			c-2.2,0.1-4.5,0.2-6.7,0.4c-5.5,1.7-4.3,4.6-2.2,6.3c2.5,1.6,4.7,3.4,7.6,3.5c3.6,0.1,6.4,1.2,7.6,4.8c0.3,14.2,0.6,28.5,1,42.7
			c0.1,10.5,0.4,21,0.5,31.5c0.1,10.5,0,21,0.1,31.5c0.2,12.3,0.4,24.7,0.6,37c0,0-0.6,4.6-1.6,5.7c-1,1.1-0.6,10.3-0.6,10.3
			c3.5,3.1,2.8,2.6,0.3,6.8c-0.2,9.1-0.4,18.3-0.6,27.4c-0.8,1.7-1.7,3.3-2.5,5C691.6,955.8,682.5,961.1,682.5,965.8L682.5,965.8z"
			/>
		<path class="st1" d="M628.9,925.8c0.1-6.7-0.2-13.7-0.2-20.7c0-6.6,0.1-13.1-0.4-19.3c-0.4-2.9-5-3-5.5-5.8
			c-1.5-8.9,2.4-18.3,0.6-27.2c-0.7-3.4-6.5-3.8-7.5-7.1c-1.1-3.8,2.6-7.7,0.6-11c-2.1-3.5-12.3-0.6-11.4-4.5c1-3.8,5-7,7.3-10.3
			c3.9-5.8,7.6-11.4,10.7-17.3c2.2-4.3,3.7-8.8,3.8-13.9c0.1-6-1.3-14.8-1.9-22.6c-0.5-6.4-3.6-10.1-7.9-14.7
			c-2.7-2.9-7.8-2.5-11.3-4.2c-2.5-1.2-3.5-6.1-6.3-6.4c-17.4-1.7-35.4,0-52.9,0.8c-2.2,0.1-3.6,1.4-5.9,1.8
			c-4.1,0.7-11.1-1.2-14.9,0.6c-2.3,1.1-4,6.4-2.9,8.7c2.8,6.1,8.8,8.9,13.5,13.5c0.8,0.7,3.4-0.5,3.9,0.5c0.8,1.7,0.6,4,0,5.8
			c-0.5,1.4-3,1.7-3.1,3.2c0.4,17.1-0.2,34.3-0.5,51.4c-0.1,7,2,3,3.5,6.5c0.9,2.2,0.7,4.9,0,7.1c-1.8,6-2.3,6-2.1,12.6
			c0.1,4.5-0.4,12.4,1.4,14.4c1.2,2.1,0.1,4.8,0.1,6.5c0,4.4-0.5,4.6-1.9,7.1c0,5.2-1.3,46.1,0,58.4c2.1,8,1.5,31.7-0.6,49.6
			c-2.2,4.2-1.1,9.5-2.9,11.7c-1.1,1.3-2.9,2.4-4.6,3.2c-1.2,0.6-3.9,0.5-4.9,1.3c-1.7,1.3-0.8,3.6,3.9,4.6l0,0
			c7.9,1.6,20.5-0.4,27,0.2c6.4,0.6,2.2,1.8,7.8-2.7c0.9-0.9,2.8-0.8,3.8,0c1.7,1.4,1,3.2,3.1,3.4c2.7,0.4,2.9-1.8,5.5-2.7
			c2.8-1,7.5,0.3,9.7-1.7c1.8-0.2,5.4-5,11.2-9.3c3.9-2.9,10.1-6.4,15.1-8c3-3.6,2.5-12.1,4.3-17.9c2.2-6.7,7.7-11.5,9.2-18.4
			c1.5-6.5-0.8-14,0-20.7C625.4,929.8,628.7,928.3,628.9,925.8z M574.2,772.2c-0.1-3,2.4-2.9,5.3-3.4c2.9,0.2,8.5-0.2,9.1,1.3
			c0.6,1.5,0.5,3.7,5.6,3.2c5.1-0.6,3.6,2.9,1.5,5c-2.1,2.1-0.9,3.6,0.4,5.1c1.3,1.5,1.1,5.3-0.2,6.7c-1.2,1.3,0.2,6.1,0.9,11
			c0.7,4.9-1.3,5.3-1.3,5.3s-2,0.6-5.8,1.1c-2.3,0.3-5,4.8-6.9,8.4c-1.4,2.8-2,3.9-3,4.3c-1,0.4-2.4,0.1-5.6,0v0
			c0,0-0.4-27.4-0.4-28.9C573.8,789.9,574.3,775.2,574.2,772.2z M597.7,921.8c1.2,4.3,1.1,7.1,0,11.4c-1.3,5.1-2.5,10.2-3.8,15.3
			c-0.1,3.9-0.5,7.7-0.8,11.6c-0.4,5.9-1.2,6-5.3,10.2c-3.7,3.8-8.5,7.1-12.1,10.5c-4,1.5-7,1.7-11,3.2c0,0,0,0,0,0h0c0,0,0,0,0,0
			c1.5-2.8,2.9-5.6,4.4-8.4c-0.4-9.3-0.8-18.6-1.3-27.8c1.3-1.7,2.5-3.5,3.8-5.2c0-9.3,0-18.7,0-28.1c0-4.3-0.6-8.5-0.6-12.8
			c-4.4-3.6-2.3-3.6,1.3-7.8c0-4.1,1-7.4,1-11.5c-0.4-3.5-0.8-6.9-1.3-10.4c0.6-1.7,1.3-3.5,1.9-5.2c0-5.2,0.6-9.4,0.6-14.6
			c0-4.9,0.1-6.5,1-6.2c0.9,0.3,2.5,2.6,5.5,5.4c2.3,2.2,4.6,4.4,6.8,6.6c4.2,4,8.3,4.4,6.6,11.1c-1.6,6.2,3,7.9,1.6,14.1
			c-1.1,4.7-2.5,7.6-2.2,10.5c0.2,1.7,1,3.5,2.9,5.7c1.8,2,2.3,1.9,1.3,4.4c-1.6,3.8-3,6.1-3.2,8.4
			C594.7,915.2,596.3,916.6,597.7,921.8z"/>
		<path class="st1" d="M736.3,954c-0.2,1.3-3.2,1.3-3,2.6c0.3,1.8,0.4,4.6,2.3,4.9c5.3,0.7,12.5-1.4,17.8-0.4
			c2.1,0.4,2.2,3.9,4.1,4.8c1.6,0,4,0,5.9,0c1.5-0.8,1.1-3.6,2.6-4.5c1.8-1.1,4.3-1.5,6.3-0.7c1.1,0.4-0.4,3.2,0.7,3.3
			c9.3-0.4,17.5,0.7,26.3,0c1.7-0.3,0-2.8,1.4-3.8c1.6-1.2,5.7,0.9,5.9-1.1c1.4-10.3-0.8-21.8,0.2-32.2c0.3-3.3,3.5-5.3,4.2-8.5
			c0.2-1.1,1.5-1.1,1.6-2.2c0.4-3.7,0.3-8.2-0.6-11.9c-1.2-1.3-5.1-1.7-6.3-1.2c-1.4,1-0.1,4.7-1.1,6.2c-0.5,0.7-2.1-0.7-2.6,0
			c-0.5,0.7,0.1,1.9,0.3,2.8c0.1,0.6,0.1,1-0.3,1.3c-2.4,1.2-6-1.7-8.2,0c-2.1,1.6,0.3,4.8-1.5,6.8c-2.9,3.2-9.1,5.1-12,8.3
			c-3.4,3.8-3.1,7.8-7.1,11.1c-3.1,2.6-8.3,2.9-12,4.4c-4.3,1.8-6.4,5-10.9,6.3c-1.4,0.4-3-2-2.6-3.3c3.4-10.9,7.7-21.9,11.4-32.7
			c2.3-6.9,3.4-11.3,5.9-18.2c2.6-7.1,6-15.9,10.3-22.2c0.8-1.2,3.6-0.4,4.1-1.9c1.1-3.5-1-7.6,0-11.1c0.7-2.7,3.5-5.2,5.8-6.7
			c1.6-1,4.1,0.4,4.7-1.3c1.6-4,0.1-8.3,1.1-12.5c0.7-2.8,2.6-4.6,3.9-7.2c1.6-3.5,1.5-6.6,3.3-10c1.5-2.8,4.6-6.7,5.5-9.7
			c1.2-4.2,0.2-6.2,0.6-10.5c0.1-1.2,1.8-1.8,1.9-3c0.6-14,1.3-28,0.5-42c-0.1-1.1-2.6-1.1-2.6-2.2c0.1-4.3,0.6-8,0.4-11.9
			c0-0.8,0.2-1.4-0.5-1.4c-11.6-0.5-23.1-0.2-34.7-0.1c-9.5,0.1-19.1-0.7-28.6,0c-1.4,0.1-2.7,0.3-3.7,1.4c-0.9,1-1.4,3.2-1.4,4.5
			c0.3,6.2-0.1,13,0,20.4c0,1.4,2.7,0.6,3.2,1.9c1.3,3.6,1.4,7.7,1.1,11.5c-0.1,1.2-1.6,2.9-1.6,4.1c0.6,4.3,1.2,7.3,1.9,11.5
			c0.5,1.6,1.8,2.8,2.2,4.5c0.5,1.9-1.3,5.8,0.7,5.9c0.7,0,2.9,0.4,4.1,0c1.5-0.5-0.6-3.3,0-4.8c0.4-1.1,2.4-1.1,2.6-2.2
			c1-6.1-0.7-13.3,0.2-19.4c0.3-1.9,1.4-3.8,3-4.8c1.4-0.8,3.8,1.3,4.8,0c1.4-1.8,0-3.8,0.9-5.9c1.2-3,3.2-5.7,5.6-7.8
			c2.2-1.9,4.4-4.3,7.3-4.6c6.5-0.7,14.3-0.1,23.1-0.4c0.8,0,1.1,1.2,1.1,2.1c0.3,4.1,1.1,9.6,0,12.3c-1.5,3.8-5,8.1-8.5,12.1
			c-2.4,2.7-4.8,5.1-6.7,7.9c-2.2,3.3,1.1,7.8,0,11.6c-1.2,3.9-4.3,8-6.8,11.2c-2,2.6-5,4-6.9,6.7c-2.4,3.4-3.7,6.8-5.2,10.6
			c-1.2,3.2-2,6.6-2.6,10c-0.4,2.7,0.8,5.7-0.4,8.2c-0.9,1.8-2.9,1.5-4.2,3c-1.8,2.1-2.9,4.8-3.7,7.4c-1,3.1-1.1,5-2.7,7.8
			c-1.8,3.2-5.4,6.3-7,9.6c-1.8,3.6-2,8-2.9,11.9c-0.9,3.8-1.6,7.3-2.3,11.1c-1,4.6-2,9.4-1.9,14.1c0,1.4,1.6,2.4,2.2,3.7
			c0.6,1.1,1.9,2.2,1.5,3.3c-0.5,1.6-3.5,1.7-3.7,3.3c-0.2,1.7,0.2,3.3,1.4,4.5c1.1,1,3.3,0.6,4.1,1.9c0.8,1.4,0.7,3.4,0,4.8
			c-0.6,1.2-2.6,0.9-2.8,2.2C735.9,944.8,737.2,948.6,736.3,954L736.3,954z"/>
		<path class="st1" d="M1137.1,843.5c1.1-9.4,1-18.7,0-28.1c-0.3-2.5-2.8-5.1-3.1-7.5c-1-8,0.5-16.3-0.9-24.3c-0.5-3-2.8-5.3-3.8-8
			c-1.3-3.6-1.5-7.6-3.6-10.9c-1.4-2.3-4.6-3.9-6.6-5.8c-6.6-6.6-5.1-3.8-13.4-5.5c-1.7-0.3-2.8-2.3-4.4-2.8
			c-3-0.9-7.7-2.2-10.3-2.9c-2.3-0.6-3.7,1.1-6,0.5c-1-0.2-9.4-2.7-9.9-2.9c-2.7-1.3-3.6-3.5-6.2-5c-1.9-1.1-9-4.8-10.7-5.3
			c-2.2-0.7-3.6,0.4-5.8-0.4c-0.9-0.3-2.7-2-3.7-2.1c-2.8-0.4-6.1-0.7-9-0.6c-2.3,0.1-4.4,0.2-3.1,2.1c2.1,3,3.9,4.7,6.7,6.7
			c2.1,1.6,4.7,4.4,7.1,6.2c2.6,2,4.9,2.9,5.8,6c1.3,4.2,0.6,9.2,0.2,14.1c-0.1,0.7-1.5,2.3-1.5,3c-0.1,5.9,0.4,8.3,0.6,14.2
			c0.1,1.3-2.6,1.3-2.7,2.6c-0.6,7.7-0.1,14.7,0,22.4c0.1,7.3-0.2,15.3,0,22.5c0,1.2,1.1,2.1,1.1,3.3c0,3.3,0.4,5.7,0.4,8.5
			c0,3.2-0.3,6.8,0,10.5c0.1,1.3,1.1,1.5,1.3,2.7c0.4,6.6-0.3,13.5,0.3,20.2c0.1,1,2.5,2.1,2.6,3.1c0.8,4.9-0.5,10.5,0.8,15.3
			c0.8,2.7,2.8,5.5,4.3,8.3c1.9,3.4,3.7,5.9,3.9,9.2c0.5,6.7-1.1,8.3-1.3,14.8c-0.3,7.8-2.7,16-2.4,24.2c0.1,3,2.7,6.7,4.2,9.3
			c0.8,1.5,1,4.6,2.1,6.7c1,1.9,3,1.7,2.4,3.2c-0.5,1.2-1.7,2.4-3.1,3c-2.7,1.2-6.2,1.4-6.4,2.9c-0.6,2.4,1.1,3.7,2.2,6.2
			c0.8,1.9,1.5,5,1,7.9c-0.3,2-1.6,4.1-1.8,5.3c-0.7,3.3-2.3,5-4,6.7c-1.2,1.2-2.9,1.6-2.2,3.8l0,0c0.5,1.7,2,0.9,3.9,0.9
			c3.2,0.1,6.6-0.7,9.6-1.2c1.5-0.3,1-1.3,2.3-1.9c1.9-0.8,4.3-0.9,6.2,0c1.2,0.6,0.9,0.9,1.9,1.8c0.7,0.6,2.1,0.6,2.9,0
			c1.4-1,0.4-1,1.9-1.8c2.5-1.3,5.5-1,8.2-1.6c4.3-1.1,8.3-1.6,12-4c3.8-2.5,7.9-6.8,9.5-11c2.5-6.5,2.9-14.9,3.3-20.6
			c0.2-1.1,1.8-2.3,1.9-3.4c0.6-6.3-0.2-12.7,0.7-18.9c0.3-2.3,2.2-3.5,2.5-5.8c0.8-6.5,0.2-12.4-0.1-19c-0.4-9.3-0.6-16.6-0.3-25.9
			c0.9-4.9,0.4-11.1,2.3-15.6c0.7-1.7,3-2.3,3.9-3.9c1.3-2.2,2.8-4.9,2.9-7.4c0.4-5.3-1.2-10.8-0.4-16.1
			C1134,847.9,1136.7,846.7,1137.1,843.5z M1112.7,849.6c-1.7,3.1-2.4,5.4-2.6,8c-0.8,7.3-2.9,6.2-5,11.7c-0.6,1.5-0.4,3.4-0.5,6.9
			c-0.2,12.7-0.4,25.4-0.6,38.1c-0.1,8.1-1.6,12-4.9,19.5c-1.9,3.6-2.9,5.9-2.9,10c0,4.8-1,7-2.9,11.4c-1.2,2.7-2.3,5.3-3.5,8
			c-1.4,3.2-2.7,4.3-3.6,3.9c-0.9-0.4-1.5-2.4-1.5-5.5c0.1-15.5,0.2-31,0.2-46.5c0.2-16.5,0.4-32.9,0.5-49.4
			c-0.2-3.5-0.1-4.3-2.4-6.9c-0.2-5.3-1.2-7.7-2.9-12.8c-2.1-4-1.9-6.9-1.9-11.5c-0.1-11.4-0.3-22.9-0.4-34.4c-0.1-7,1.5-4.6,8.1-5
			l0,0c4.1-0.2,4.9-0.4,8.6,1.5c3.8,2,4.6,3.4,6.9,7.1c1.2,1.2,2.4,2.3,3.6,3.5c4.9,4.7,7.2,11.4,9.2,17.6
			C1114.6,831.6,1116,843.5,1112.7,849.6z"/>
		<path class="st1" d="M815.9,992.1c-1.3-6.2-0.4-11.2,0-15.9c0.2-1.1,2.4-0.1,3-1c0.9-1.4,1.7-3.3,1.1-4.9c-0.4-0.9-1,0.4-1.5-0.5
			c-0.7-1.2-0.5-3.1,0.4-4.2c1.3-1.6,3.8-1.2,4.6-3c1.2-2.5-0.8-5.7,0-8.3c0.3-0.8,2.4,0.9,2.6,0c1-4-0.2-8.4,0.4-12.5
			c0.2-1.1,1.1-1.6,1.2-2.6c0.5-4.5,0.8-9.1,0-13.6c-0.5-2.8-2.7-4.8-3.1-7.6c-1.4-10.1-1.8-21.2-0.5-31.3c1-7.9,6-20,9-27.4
			c1.8-4.6,2.7-3.2,4.4-7.9c0.5-1.4,0.9-3.1,0.4-4.5c-0.6-1.8-2.7-3.2-2.4-5c0.4-2.3,3.2-2.2,3.9-4.4c1-3-1-6.5,0-9.5
			c1.2-3.5,5.4-5.5,6.4-9.1c1-3.4-0.1-8.8,0.9-12.2c1.9-6.7,4.2-11.1,7.4-17.3c1.9-3.7,5.3-6.7,6.8-10.6c1.4-3.7,1.3-8.6,1.9-11.7
			c-2.4-3-7.8,1.2-11.3-0.1c-1.8-0.7-1.8-3.6-3.6-4.3c-3.8-0.3-7.5-0.3-10.2,1.7c-3.7,2.7-3.7,6-5.1,10.3c-2.1,6.5-0.5,13.8-3.2,20
			c-1.1,2.5-5.4,3.2-7.4,4.9c-1.1,0.9-1.6,1.9-3,1.9c-1.4,0-2.7-0.5-3-1.9c-0.7-2.8,0.1-5.8,0-8.7c-0.1-2.3-1.3-4.6-0.8-6.8
			c0.3-1.2,2.9-0.7,3-1.9c1.1-13-0.4-25.9-0.2-38.3c0.1-4.4,1.2-3.7,5.5-3.8c7.2-0.1,18.7,0,27-0.1c14.6-0.1,29.2-0.6,43.7-0.2
			c2.2,0.2,5,1,5.1,3.1c0.3,4.4-2.6,8.6-4.7,12.5c-1.1,2.1-3.5,3.4-4.3,5.6c-1.3,3.7,0.1,8.1-1.3,11.7c-0.9,2.2-5.3,2.7-6.1,4.9
			c-1.2,3.2,0.9,7-0.4,10.2c-0.6,1.6-4,0.7-4.5,2.3c-1.9,5.4-0.8,11.5-2.3,17c-0.8,3.1-3.1,5.2-3.6,8.3c-1.1,8.5,0.7,17.2,0,25.7
			c-0.2,1.9-2.1,3.1-2.7,4.9c-1.2,4.2-2,8.7-3.5,12.9c-0.6,1.8-2.9,2.7-3.4,4.5c-0.7,2.7,1.1,5.8,0,8.3c-1.3,3.2-6.1,4.5-6.8,7.9
			c-2,9.6,1.2,19.8-0.3,29.5c-0.7,4.4-4.5,7.8-5.3,12.1c-1,5.6,0.7,12.2-0.7,17.7c-1.3,5.3-5.2,9.9-7.1,15c-0.5,5-6.5,9.6-3.2,13.4
			c4,0.5,10.5,1.3,15.1-0.8c2.1-1-0.3-5.4,1.5-6.8c5.6-4.3,12.1-5.9,18.5-9.1c3.6-1.8,8.2-3.6,11.4-6.1c1.6-1.3,1.8-4.2,3.8-4.9
			c1.2-0.4,1.4,2.4,2.6,2.6c4.2,0.7,7.9-1.1,12,0c1.7,0.4,1.6,2.7,2,4.3c0.4,1.5,1.1,3.1,0.2,4.4c-0.5,0.8-2.3-0.1-2.7,0.8
			c-0.7,1.7-0.4,3.8,0,5.7c0.3,1.4,1.7,2.3,1.8,3.8c0.6,7.7,0.9,15.4,0,23.1c-0.2,1.6-1.1,3.3-2.7,3.5c-10.9-0.5-21,0.3-31.9,0.3
			c-1.1-0.1-0.5-2.1-1.5-2.5c-2.8-1.2-7.9-1.4-10.9-0.7c-3.5,0.8-3.8,3.7-7.3,4.4c-6.3,1.3-13.6,0-19.9,1c-2.2,0.3-4,2.2-6.2,2.8
			C822.3,994,817.5,994.8,815.9,992.1L815.9,992.1z"/>
		<path class="st1" d="M647.4,1009.8c-4.7,1.7-10.2,0-15.2,0.1c-1.5,0-4,1.2-5.5,0.8c-1.6-0.5-4.2-3.7-3.2-5
			c3.9-5.3,11.7-5.9,15.3-11.4c2.1-3.2,0.1-7.6,1-11.3c0.3-1.2,2.3-1,2.9-2.1c0.5-0.8,0.6-2.2,0-2.9c-1.4-1.7-2.3,1.8-2.9-3.2
			c-0.5-4.5-0.6-9.1-0.2-13.5c0.3-2.9,2.3-2.3,2.7-3.8c0.7-2.8-0.8-4.9,0-7.7c0.3-1.3,2.7-0.9,3.3-2.1c0.6-1.1,0.7-2.7,0-3.7
			c-1.4-2.1-5.2-2.1-5.7-4.6c-0.8-4.6-0.4-9.6-0.3-14.1c0.1-4.9-0.2-9.8,0.2-14.7c0.1-0.9,2.2-0.9,2.5-1.7c0.6-1.7,0.2-3.6,0-5.4
			c-0.2-1.4,0.3-4.3,0.1-5.8c-0.2-2.2-1.1-3-0.1-5c0.7-1.4,3-0.5,3.3-2.1c1.1-8.1-1.3-16.3-0.4-24.4c0.1-1.4,2.3-1.2,2.7-2.5
			c0.6-2.1,0.8-4.6-0.2-6.6c-0.4-0.9-2.6-1-2.6-2c-0.9-11.8,0.7-23-0.3-34.9c-0.1-1.1-2.8,0.4-2.9-4.4c-0.1-5-0.5-9.7-0.5-13.4
			c0.1-2.8,6.2-2.9,6.1-5.8c-0.1-4.3,0.6-9.2-0.4-13.7c-0.3-1.4-2.2-1.2-2.8-2.5c-0.6-1.2,0-2.5,0.5-3.8c0.6-1.5,2.4-2.5,2.8-4.1
			c0.8-2.9,0.7-6.2,0-9.1c-0.2-1-1.9-1.9-2.4-2.8c-0.9-1.6-0.5-3.1-1.6-4.5c-0.8-1-3.1-0.4-4.1-1.2c-2.5-2.1-3.9-4.5-6-6.4
			c-2-1.8-4.6-3.2-6.1-5.9c-1-1.7,0.2-4.7,1.7-5.9c1.2-0.9,3.1-0.7,4.4,0c1.1,0.6,1.1,2.9,2.3,3.1c5.3,0.7,10.6-1.6,15.9-0.4
			c2.3,0.5,2.4,3.4,4.6,4.4c1.4,0.7,4-0.6,5.3,0.3c1.9,1.3,3.5,4,5,5.6c1.9,2,3.6,2.9,4.6,5.6c1.2,3.5,0.7,7.1,0.6,10.8
			c0,3.2,0.5,6.5,0.2,9.8c-0.1,1.1-2.2,0.6-2.5,1.7c-0.5,1.9-0.1,4,0.8,5.7c0.7,1.2,2.6,0.6,3.1,1.9c1.1,3.1,1.2,7,0.4,10.2
			c-0.3,1.2-2.6,0.4-2.7,1.7c-0.9,15.6-1.2,31.3,0.4,46.8c0.3,2.6,4.4,3.6,4.7,6.2c1.6,14.7,0.1,29.6-0.5,44.3
			c-0.1,2.1-1.1,4.7-2,6.3c-1,1.8-0.4,3.5-0.3,5.4c0,2.5-0.3,5.2,0.1,7.7c0.2,1.4,3.2,2.8,3.1,4.3c-0.3,4,0.3,5.9,0.5,9.9
			c0.1,1.9-3.4,3.1-4.5,4.7c-0.8,1.1-1.3,3.3-0.6,4.5c0.6,1.1,1.7,0.6,2.1,1.8c0.5,1.8,0.5,3.3-0.4,4.9c-0.6,1-2.7,0.9-2.9,2.1
			c-0.6,3.3,1.3,6.7,0.8,9.9c-0.1,1-2.3,0.7-2.5,1.7c-0.7,4.9,0.8,10,0,14.9c-0.3,1.9-3.2,2.7-3.3,4.6c-0.1,1,2.4,0.3,2.9,1.2
			c0.8,1.5-1.2,4.5,0.4,5c5.3,1.6,11.9,1.2,17.2-0.3c3-0.8,4.3-5,7.4-5.3c3.8-0.4,6.5,2.1,10.2,2.8c4.9,0.9,10.2,1,15-0.3
			c2.8-0.8,4.5-3.8,7.4-4.2c12.6-1.7,24.3-0.7,37-0.7c12-0.1,27.4-0.7,36.3,0.3c5.1,0.2-0.4,18.2,1.4,27.7c0.4,2.1,2.2,3.2,3.2,5.1
			c1.7,3.1,2.4,4.6-2,4.6c-8.3,0-16.6,0.6-25.6,0.2c-1.8-0.1-1.7-3.5-3.3-4.1c-1.8-0.7-3.9,0.9-5.8,0.4c-2.8-0.7-6-3.4-8.9-3.7
			c-7.7-0.9-15.4,1-23.1-0.1c-1.7-0.2-2-3.6-3.7-3.7c-17.9-1.3-35.1,0.6-53-0.4c-3.8-0.2-4.2-1.5-6.6-2.3c-3.4-1-9.6-1.4-12.9,0.1
			C653.7,1002.3,653.7,1007.6,647.4,1009.8L647.4,1009.8z"/>
		<path class="st1" d="M961.1,904.1c-0.1-7.4-0.4-14.7-0.7-22.1c-0.1-2-1.6-5.9-2-8.6c-0.6-4.4-1.1-8.7-1.2-13.4
			c-0.1-5.1,0.8-9.8-0.1-14.8c-0.5-3.1-3.8-6.2-4.5-9.2c-0.6-2.6,1.5-5.3,0.8-7.8c-0.4-1.4-2.1-1.1-2.6-2.5
			c-1.2-3.2-2.5-6.3-3.2-9.7c-1-4.6-1.3-9.6-2.6-14.1c-1.4-5.1-3.9-10-5.6-15.1c-1.4-4.1-2.1-8.3-3-12.4c-0.7-3.1,0.5-7.3-0.6-10.2
			c-2.2-5.6-6.3-8.9-8.6-14.5c-1.3-3.2-0.3-7-1.4-10.3c-0.6-1.6-2.7-2.9-4.5-2.8c-2.4,0.1-4.7,1-5.8,3.2c-1.4,3,1,6.9-0.4,9.9
			c-1.7,3.7-6.1,3.6-7.8,7.3c-1.2,2.6,0.8,7-0.1,9.8c-1.3,3.6-3.6,6.5-5.4,9.9c-1.2,2.3-1.7,5.3-3,7.6c-1,1.8-2.6,3.2-2.9,5.2
			c-0.4,2.3,1.3,4.2,0.6,6.5c-0.5,1.7-1.5,2.4-2.5,3.5c-1.8,1.7-3.2,4.9-4,7.7c-1.4,5.3-0.2,11.8-1.5,17.1c-0.6,2.3-4.2,2.7-4.9,4.9
			c-1.1,3.3,0.9,7,0,10.3c-0.9,3.1-4.5,5.5-5.3,8.7c-1.4,5-1.3,11.1-0.4,16.2c0.3,1.7,3.4,0.8,3.7,2.5c0.3,1.4-3.3,0.7-3.7,2.1
			c-1.1,3.4,0.6,7.3-0.4,10.7c-0.8,2.7-2.5,2-3,4.8c-0.4,2,0.5,5.8,0.6,7.9c0.2,4-0.7,7-0.8,11c0,1.7,1.3,4.4,0.4,5.9
			c-1.6,2.5-5.8,2.4-7.4,4.9c-1.5,2.3,0.5,6.6-0.8,9.1c-1.8,3.3-6.7,3.1-7,6.9c-0.3,3.7,0,9.7,3.7,9.8l0,0c3.3,0.1,6.3-1.8,9.2-3.3
			c4.4-2.2,8.7-4.4,13.5-5.4c4.4-0.9,9.1,0.7,13.7,0.5c1.5-0.1,3,0,4.3-0.8c2.2-1.2,2.8-2.1,3.4-4.7c1-3.8-5.7-4.8-7.3-8.4
			c-1.6-3.3,0.6-7.2,0.2-10.9c-0.1-1.3-1.6-2.2-1.6-3.5c0-1.3,1.3-3.4,2.5-2.9c7.7,3.8,17.8,8.4,24,13.6c3,2.4,4,4.2,4,8.1
			c0,2.6-0.7,5.8-1.8,8.4c-1.5,3.6-3,8.8-5.4,12c-3.5,4.6-6.9,8.4-7.3,14.1c-0.4,5.9,8.3,8,11.1,13.3c1.5,2.9,0,8.7,0.9,11.8
			c1.7,6.6,4.5,10.6,5.5,17.3c0.9,5.7-0.7,9.7,0.1,15.4c0.2,1.4,3.5,0.7,4.7,0.2c1.8-0.8,2.2-0.5,2.7-2.4c1-3.3-0.3-6.9,0.4-10.3
			c0.3-1.3,2.1-2,2.5-3.3c0.7-2.5-0.5-5.3,0.2-7.8c0.6-2.3,2.2-5.8,3.3-8c1.5-3.3,2.9-5.3,3.1-8.8c0.2-4.1-1.1-7.4,0-10.7
			c0.5-1.5,3.4-2.6,4-4c1.1-2.3,1.1-4.9,1.6-7.4c1.1-4.7,2.5-7.1,4.2-11.6c0.4-1.2,1.9-1.8,2-3.1
			C961.2,926.5,961.2,914.9,961.1,904.1z M933.6,890.7c-0.1,1.6-4.4,1.8-5.6,0.8c-2.3-1.8-3.8-3.9-6.9-4.6c-1.3-0.3-1.2-2.3-2.4-2.7
			c-2.7-0.9-6.1-1.1-8.9-1.1c-1.8,0-4.5,0.6-6.3,0.4c-0.3,0,0-0.7,0-1.1v0c0-3.6-0.1-7.2-0.1-10.8c0-3.1,0.1-6.3,0.3-9.5
			c0.2-2.1,2.1-3.7,2.3-5.7c0.4-3.4-1.7-7.5-0.7-10.8c0.4-1.3,3.8,0,4.5-1.1c0.3-0.4,0.8-2.5,1.6-4.3c0.5-1.1,1.6-2.1,1.6-2.5
			c0-0.6,0-4.9,0.4-8.7c0.3-2.2,0.6-4,0.9-4c0.3,0,0.7,1.8,1.8,3.3c1.3,1.7,1.8,3.4,2.9,5.3c0.7,1.1,1.4,2.3,2.6,2.8
			c1.4,0.6,3.2-0.2,4.6,0.4c1.1,0.4,1.3,2.1,2.3,2.8c0.7,0.5,2.1-0.4,2.3,0.4c0.7,3.7,0.1,8.7,0.7,12.5c0.1,0.9,2.1,0.5,2.2,1.4
			c0.3,6.5,0.5,13.1,0.4,19.6C934,879.2,933.9,884.9,933.6,890.7z"/>
		<path class="st1" d="M1053.9,946.5c-0.1-2.7-0.1-5.7-1.9-7.7c-1.3-1.5-5.3,0-5.8-1.9c-0.7-2.7,3.2-4.9,3.2-7.7
			c-1.1-7.5-2-14.2-2.2-21.6c-0.1-8.7-2-4.3-4.9-7.8c-1.7-2.1-2.3-3.9-2.6-6.6c-0.8-7.9,0.3-16.6-0.9-24.4c-0.5-3.5-2.2-7-4.5-9.6
			c-0.8-1-2.4,0.5-3-0.7c-1-1.9,2-3.2,0.9-5.1c-2.6-4.3-8.1-7.5-12.3-10.3c-1.2-0.8-3.4,1.1-4.5,0c-1.1-1.1-1-4.3,0-5.4
			c7.4-1.1,11.2-4.6,14.8-8.7c4.9-5.7,7.3-12,9.8-19c1.1-3.3-0.3-7.1,0.1-10.5c0.7-6.3,4-12.1,2.9-18.4c-1.6-9.1-6.1-17.3-11.3-25.1
			c-2.9-4.3-7.4-8.1-12-10.3c-3.9-1.8-7.1-0.3-11.3-1.5c-4.8-1.4-8.6-4.1-13.5-5.1c-3.8-0.8-7.8,0.8-11.6-0.1
			c-2.4-0.5-2.7-3.2-5.1-3.6c-1.7-0.3-3.3,2.1-5,2.3c-11.5,1-21-1.3-32.4,0.3c-1.7,0.2-1.2,2.1,0.2,3.1c2.1,1.5,5.3,0.7,7.7,1.8
			c4.2,1.8,7.5,4.3,10.7,7.7c2.6,2.8,3.7,5.9,6,10.3c1,1.8,3.8-1.6,5.8-1.9c2.5-0.4,4.3-0.4,5.9,1.6c1.4,1.8-1.5,4.2-3.2,5.7
			c-3.4,3.1-5.8,4.8-8.8,6.9c-2.1,1.4-5.8,2.7-7.3,5.5c-3.4,6.2,0.6,13.2,2,20.1c0.5,2.5,1,5,1.6,7.5c1.9,8.2,1.2,15,2.4,23.3
			c0.4,2.7,2.3,5,2.6,7.7c0.4,3.2-0.2,5.6,0.3,8.7c0.2,1.4,1.3,2.8,1.7,4.1c1.6,5.9,3,13.3,3.2,19.3c0.7,19.9-0.5,39.4,0.5,59.3
			c0.1,1.8,2.8,2.5,3.2,4.3c0.6,2.8-1.3,5.9-2.2,8.6c-3.8,10.9-8.3,19-10.6,28.3h0c-1,3.9,2,5.6,5.6,7.9c3.6,2.3,7.7,5.4,11.6,8.6
			c6.6,5.4,11.1,15.3,15.4,25.1c2.2-2.4,0.7-13.3,1.9-19.9c0.3-1.4,1.8-2.4,1.9-3.9c0.5-5.1,0.6-10.3,0-15.4
			c-0.2-1.9-2.1-3.3-2.6-5.1c-0.4-1.4-0.3-3,0-4.5c0.4-1.8,1.8-3.3,1.9-5.1c0.5-5.3,0.8-10.8,0-16.1c-0.3-2-3.4-3.1-3.2-5.1
			c0.1-1.7,3.7-1.5,3.9-3.2c0.4-4.8-1.3-9.4-1.9-14.1c-1.3-10.7-2.1-21.4-3.2-32.1c-0.4-3.9-1.9-7.7-1.3-11.6
			c2-5.2,3.8-10.6,5.8-14.8c0.9-1.2,2.2,1.2,3.1,2.4c3.1,4,7.3,8.9,8.2,13.9c1.1,6.1-2.2,11.5-1.5,17.7c0.2,1.8,3,1.5,3.6,3.2
			c3.1,8.1,5.6,16.5,7.1,25.1c1.7,9.7,2.3,19.7,2.6,29.5c0.1,4.3-0.1,8.7-1.3,12.8c-1.8,5.9-5.4,10.6-7.2,16.3
			c-1.9,6-2.5,7.7,3.8,7.7c2.5,0,5.4,0.1,7.3,1.1c5.2,2.6,7.3,8.5,12.2,11.6c1.1,0.7,2.4,1.6,3.9,2.4c6.9,3.9,7.7,1.2,9.1-4.9
			c1.9-8,2.4-15.3,3.6-23.2c0.6-4,0.5-8.1,0.7-12.2C1053.8,958.1,1054.2,952.3,1053.9,946.5z M1014.2,813.5
			c-0.4,2.8-2.4,4.9-3.6,7.3c-0.8,1.6-0.5,5.4-2.6,7.5c-3,3.2-7.2,6.3-10.2,6.3c-6.3,0-6.6-0.8-7-5.4c-0.3-3.6,0.5-11.9,0.5-16.2
			c0-5.3-0.4-11.3-0.4-16.8c0-5.1,0.4-9.6,0.3-14.7c0-3.9-0.4-8-0.4-11.8l0,0c0-4.6-0.1-5.1,5.3-3.9c2.9,0.7,4.8,2.3,7.3,5.9
			c1.3,2,4.5,4.6,7.2,7.5c3.9,4.2,7.2,9,7.2,12.2c0,2.2-0.9,12.4-1.8,13.3C1013.4,807.1,1014.7,810,1014.2,813.5z"/>
	</g>
</g>
</svg>
