<?xml version="1.0" encoding="utf-8"?>
<!-- Generator: Adobe Illustrator 21.0.0, SVG Export Plug-In . SVG Version: 6.00 Build 0)  -->
<svg version="1.1" xmlns="http://www.w3.org/2000/svg" xmlns:xlink="http://www.w3.org/1999/xlink" x="0px" y="0px"
	 viewBox="0 0 1024 1024" style="enable-background:new 0 0 1024 1024;" xml:space="preserve">
<style type="text/css">
	.st0{fill:#0566B0;}
	.st1{fill:#FFFFFF;}
</style>
<g id="Min_Guides__x28_DO_NOT_REMOVE_x29_">
</g>
<g id="Max_Guides__x28_DO_NOT_REMOVE_x29_">
</g>
<g id="Icon">
	<circle id="Background" class="st0" cx="512" cy="512" r="512"/>
	<path class="st1" d="M364.2,604.2c0-4.6,9.2-10,9.2-10c0.8-1.7,1.7-3.3,2.5-5c0.2-9.1,0.4-18.3,0.6-27.4c2.5-4.1,3.2-3.7-0.3-6.8
		c0,0-0.3-9.3,0.6-10.3c1-1.1,1.6-5.7,1.6-5.7c-0.2-12.3-0.4-24.7-0.6-37c-0.1-10.5,0-21-0.1-31.5c-0.1-10.5-0.4-21-0.5-31.5
		c-0.3-14.2-0.6-28.5-1-42.7c-1.2-3.6-4.1-4.7-7.6-4.8c-2.9-0.1-5.1-1.9-7.6-3.5c-2.1-1.7-3.2-4.6,2.2-6.3c2.2-0.1,4.5-0.2,6.7-0.4
		c5.1,0.1,9.4,0.7,14.6,0.8c5.9,0.1,12.8-0.2,18.8-0.1c0,0,5.5,0.5,2.9,5.7c0,2.1-1.9,4.3-4.8,4.3c-2.9,0-6.4,7.1-6.4,7.1
		c0,1.5,0,3.1,0,4.6c2.1,1.7,3.7,3,3.7,4.5c0,2-2.1,3.3-3.8,6c0.4,22.2,0.6,45.3,1.1,67.4c0.9,4.2,1.8,6.3,1.5,8.1
		c-0.2,1.4-1,2.7-4,3.7c0,4.6,0,9.3,0,13.9c0.7,3.8,0.8,8.5,1.6,12.3c-0.3,3,1.1,5.1,0.8,8c-1.1,1.5-3.2,3.1-4.3,4.6
		c0,1.5,0,3.1,0,4.6c0.5,0.7,1.1,1.4,1.6,2.1c0.2,4,0.4,8.1,0.6,12.1c0.6,1.4,1.3,2.8,1.9,4.3c0,5.3,0,10.7,0,16
		c-1.2,1.7-2.3,3.3-3.5,5c0.4,3.2,0.8,6.4,1.3,9.6c4.2,3.3,10,5.5,14.2,8.8c2.9,1.9,3.8,8.4-0.3,8.8c0,0-4.7-0.8-6.3-0.8
		c-1.6,0-1.9,2.1-5.1-0.4c-3.2-2.5-16.4,0-19.6,0c-3.2,0-4.5,3.2-7.6,5.3C365.5,609.9,364.2,604.2,364.2,604.2L364.2,604.2z
		 M306.9,570.7c-0.8,6.6,1.5,14.2,0,20.7c-1.5,6.9-7.1,11.7-9.2,18.4c-1.9,5.8-1.3,14.2-4.3,17.9c-5,1.6-11.2,5.1-15.1,8
		c-5.7,4.3-9.4,9.1-11.2,9.3c-2.2,2-7,0.7-9.7,1.7c-2.6,1-2.8,3.1-5.5,2.7c-2.1-0.3-1.5-2-3.1-3.4c-1-0.8-2.8-0.9-3.8,0
		c-5.6,4.5-1.4,3.3-7.8,2.7c-6.5-0.6-19.1,1.4-27-0.2l0,0c-4.7-1-5.6-3.3-3.9-4.6c1-0.8,3.7-0.8,4.9-1.3c1.8-0.8,3.6-1.9,4.6-3.2
		c1.8-2.3,0.7-7.5,2.9-11.7c2.1-17.9,2.7-41.7,0.6-49.6c-1.3-12.3,0-53.2,0-58.4c1.4-2.5,1.9-2.7,1.9-7.1c0-1.7,1.2-4.4-0.1-6.5
		c-1.8-2-1.2-9.9-1.4-14.4c-0.2-6.6,0.3-6.6,2.1-12.6c0.7-2.3,0.9-5,0-7.1c-1.5-3.5-3.7,0.5-3.5-6.5c0.4-17.1,1-34.3,0.5-51.4
		c0.1-1.5,2.6-1.8,3.1-3.2c0.6-1.8,0.8-4.1,0-5.8c-0.5-1-3.1,0.3-3.9-0.5c-4.8-4.6-10.8-7.4-13.5-13.5c-1.1-2.4,0.7-7.6,2.9-8.7
		c3.8-1.9,10.8,0.1,14.9-0.6c2.2-0.4,3.6-1.7,5.9-1.8c17.5-0.8,35.5-2.5,52.9-0.8c2.8,0.3,3.7,5.2,6.3,6.4c3.5,1.7,8.6,1.3,11.3,4.2
		c4.3,4.6,7.4,8.4,7.9,14.7c0.7,7.8,2,16.6,1.9,22.6c-0.1,5-1.6,9.5-3.8,13.9c-3.1,5.9-6.7,11.4-10.7,17.3
		c-2.3,3.4-6.3,6.5-7.3,10.3c-1,4,9.3,1.1,11.4,4.5c2,3.3-1.7,7.3-0.6,11c1,3.4,6.8,3.7,7.5,7.1c1.8,8.9-2.1,18.3-0.6,27.2
		c0.5,2.9,5,3,5.5,5.8c0.5,6.2,0.3,12.8,0.4,19.3c0.1,7,0.3,14,0.2,20.7C310.5,566.7,307.2,568.2,306.9,570.7z M255.7,429.9
		c0,1.5,0.4,28.9,0.4,28.9v0c3.2,0.1,4.6,0.4,5.6,0c1-0.4,1.5-1.5,3-4.3c1.9-3.6,4.6-8.1,6.9-8.4c3.8-0.6,5.8-1.1,5.8-1.1
		s2-0.4,1.3-5.3c-0.7-4.9-2.1-9.7-0.9-11c1.2-1.3,1.5-5.1,0.2-6.7c-1.3-1.5-2.6-3-0.4-5.1c2.1-2.1,3.6-5.6-1.5-5
		c-5.1,0.6-5.1-1.6-5.6-3.2c-0.6-1.5-6.2-1.2-9.1-1.3c-2.9,0.6-5.4,0.4-5.3,3.4C256.1,413.7,255.6,428.4,255.7,429.9z M276.7,550.7
		c0.2-2.3,1.5-4.6,3.2-8.4c1-2.5,0.5-2.4-1.3-4.4c-1.9-2.2-2.7-3.9-2.9-5.7c-0.3-2.9,1.1-5.8,2.2-10.5c1.4-6.2-3.2-7.9-1.6-14.1
		c1.7-6.6-2.4-7-6.6-11.1c-2.3-2.2-4.6-4.4-6.8-6.6c-3-2.9-4.6-5.1-5.5-5.4c-0.9-0.3-1,1.3-1,6.2c0,5.2-0.6,9.4-0.6,14.6
		c-0.6,1.7-1.3,3.5-1.9,5.2c0.4,3.5,0.8,6.9,1.3,10.4c0,4.1-1,7.4-1,11.5c-3.5,4.2-5.6,4.1-1.3,7.8c0,4.2,0.6,8.5,0.6,12.8
		c0,9.4,0,18.7,0,28.1c-1.3,1.7-2.5,3.5-3.8,5.2c0.4,9.3,0.8,18.6,1.3,27.8c-1.5,2.8-2.9,5.6-4.4,8.4c0,0,0,0,0,0l0,0c0,0,0,0,0,0
		c4-1.5,7-1.7,11-3.2c3.6-3.4,8.4-6.7,12.1-10.5c4.1-4.2,4.9-4.4,5.3-10.2c0.3-3.9,0.6-7.7,0.8-11.6c1.3-5.1,2.5-10.2,3.8-15.3
		c1.1-4.3,1.2-7.1,0-11.4C278.1,555,276.5,553.7,276.7,550.7z M246.5,622.5C246.5,622.5,246.5,622.5,246.5,622.5
		C246.5,622.5,246.5,622.5,246.5,622.5L246.5,622.5z M418.1,592.4c-0.2,1.3-3.2,1.3-3,2.6c0.3,1.8,0.4,4.6,2.3,4.9
		c5.3,0.7,12.5-1.4,17.8-0.4c2.1,0.4,2.2,3.9,4.1,4.8c1.6,0,4,0,5.9,0c1.5-0.8,1.1-3.6,2.6-4.5c1.8-1.1,4.3-1.5,6.3-0.7
		c1.1,0.4-0.4,3.2,0.7,3.3c9.3-0.4,17.5,0.7,26.3,0c1.7-0.3,0-2.8,1.4-3.8c1.6-1.2,5.7,0.9,5.9-1.1c1.4-10.3-0.8-21.8,0.2-32.2
		c0.3-3.3,3.5-5.3,4.2-8.5c0.2-1.1,1.5-1.1,1.6-2.2c0.4-3.7,0.3-8.2-0.6-11.9c-1.2-1.3-5.1-1.7-6.3-1.2c-1.4,1-0.1,4.7-1.1,6.2
		c-0.5,0.7-2.1-0.7-2.6,0c-0.5,0.7,0.1,1.9,0.3,2.8c0.1,0.6,0.1,1-0.3,1.3c-2.4,1.2-6-1.7-8.2,0c-2.1,1.6,0.3,4.8-1.5,6.8
		c-2.9,3.2-9.1,5.1-12,8.3c-3.4,3.8-3.1,7.8-7.1,11.1c-3.1,2.6-8.3,2.9-12,4.4c-4.3,1.8-6.4,5-10.9,6.3c-1.4,0.4-3-2-2.6-3.3
		c3.4-10.9,7.7-21.9,11.4-32.7c2.3-6.9,3.4-11.3,5.9-18.2c2.6-7.1,6-15.9,10.3-22.2c0.8-1.2,3.6-0.4,4.1-1.9c1.1-3.5-1-7.6,0-11.1
		c0.7-2.7,3.5-5.2,5.8-6.7c1.6-1,4.1,0.4,4.7-1.3c1.6-4,0.1-8.3,1.1-12.5c0.7-2.8,2.6-4.6,3.9-7.2c1.6-3.5,1.5-6.6,3.3-10
		c1.5-2.8,4.6-6.7,5.5-9.7c1.2-4.2,0.2-6.2,0.6-10.5c0.1-1.2,1.8-1.8,1.9-3c0.6-14,1.3-28,0.5-42c-0.1-1.1-2.6-1.1-2.6-2.2
		c0.1-4.3,0.6-8,0.4-11.9c0-0.8,0.2-1.4-0.5-1.4c-11.6-0.5-23.1-0.2-34.7-0.1c-9.5,0.1-19.1-0.7-28.6,0c-1.4,0.1-2.7,0.3-3.7,1.4
		c-0.9,1-1.4,3.2-1.4,4.5c0.3,6.2-0.1,13,0,20.4c0,1.4,2.7,0.6,3.2,1.9c1.3,3.6,1.4,7.7,1.1,11.5c-0.1,1.2-1.6,2.9-1.6,4.1
		c0.6,4.3,1.2,7.3,1.9,11.5c0.5,1.6,1.8,2.8,2.2,4.5c0.5,1.9-1.3,5.8,0.7,5.9c0.7,0,2.9,0.4,4.1,0c1.5-0.5-0.6-3.3,0-4.8
		c0.4-1.1,2.4-1.1,2.6-2.2c1-6.1-0.7-13.3,0.2-19.4c0.3-1.9,1.4-3.8,3-4.8c1.4-0.8,3.8,1.3,4.8,0c1.4-1.8,0-3.8,0.9-5.9
		c1.2-3,3.2-5.7,5.6-7.8c2.2-1.9,4.4-4.3,7.3-4.6c6.5-0.7,14.3-0.1,23.1-0.4c0.8,0,1.1,1.2,1.1,2.1c0.3,4.1,1.1,9.6,0,12.3
		c-1.5,3.8-5,8.1-8.5,12.1c-2.4,2.7-4.8,5.1-6.7,7.9c-2.2,3.3,1.1,7.8,0,11.6c-1.2,3.9-4.3,8-6.8,11.2c-2,2.6-5,4-6.9,6.7
		c-2.4,3.4-3.7,6.8-5.2,10.6c-1.2,3.2-2,6.6-2.6,10c-0.4,2.7,0.8,5.7-0.4,8.2c-0.9,1.8-2.9,1.5-4.2,3c-1.8,2.1-2.9,4.8-3.7,7.4
		c-1,3.1-1.1,5-2.7,7.8c-1.8,3.2-5.4,6.3-7,9.6c-1.8,3.6-2,8-2.9,11.9c-0.9,3.8-1.6,7.3-2.3,11.1c-1,4.6-2,9.4-1.9,14.1
		c0,1.4,1.6,2.4,2.2,3.7c0.6,1.1,1.9,2.2,1.5,3.3c-0.5,1.6-3.5,1.7-3.7,3.3c-0.2,1.7,0.2,3.3,1.4,4.5c1.1,1,3.3,0.6,4.1,1.9
		c0.8,1.4,0.7,3.4,0,4.8c-0.6,1.2-2.6,0.9-2.8,2.2C417.7,583.3,419,587.1,418.1,592.4L418.1,592.4z M815.3,489.5
		c-0.8,5.3,0.8,10.7,0.4,16.1c-0.2,2.6-1.6,5.2-2.9,7.4c-1,1.6-3.2,2.2-3.9,3.9c-1.9,4.5-1.4,10.7-2.3,15.6
		c-0.3,9.3-0.1,16.6,0.3,25.9c0.3,6.6,1,12.5,0.1,19c-0.3,2.3-2.2,3.5-2.5,5.8c-0.9,6.2-0.1,12.7-0.7,18.9c-0.1,1.1-1.7,2.3-1.9,3.4
		c-0.4,5.7-0.8,14.1-3.3,20.6c-1.6,4.3-5.7,8.6-9.5,11c-3.7,2.4-7.7,2.9-12,4c-2.7,0.7-5.8,0.4-8.2,1.6c-1.5,0.8-0.5,0.8-1.9,1.8
		c-0.8,0.6-2.1,0.6-2.9,0c-1-0.9-0.7-1.2-1.9-1.8c-1.9-0.9-4.3-0.8-6.2,0c-1.4,0.6-0.9,1.7-2.3,1.9c-2.9,0.6-6.4,1.3-9.6,1.2
		c-1.9,0-3.4,0.8-3.9-0.9l0,0c-0.7-2.2,1-2.6,2.2-3.8c1.7-1.7,3.3-3.3,4-6.7c0.3-1.3,1.5-3.3,1.8-5.3c0.4-2.9-0.2-6-1-7.9
		c-1.1-2.5-2.8-3.8-2.2-6.2c0.2-1.5,3.7-1.7,6.4-2.9c1.4-0.6,2.6-1.9,3.1-3c0.6-1.5-1.4-1.3-2.4-3.2c-1.1-2.1-1.2-5.2-2.1-6.7
		c-1.4-2.7-4.1-6.3-4.2-9.3c-0.3-8.1,2.1-16.3,2.4-24.2c0.3-6.6,1.8-8.1,1.3-14.8c-0.2-3.3-2-5.8-3.9-9.2c-1.5-2.8-3.6-5.6-4.3-8.3
		c-1.4-4.8,0-10.4-0.8-15.3c-0.2-1-2.6-2.1-2.6-3.1c-0.6-6.7,0.1-13.6-0.3-20.2c-0.2-1.2-1.2-1.5-1.3-2.7c-0.4-3.7,0-7.3,0-10.5
		c0-2.8-0.4-5.3-0.4-8.5c0-1.2-1-2.1-1.1-3.3c-0.2-7.2,0.1-15.2,0-22.5c-0.1-7.7-0.6-14.7,0-22.4c0.1-1.3,2.7-1.3,2.7-2.6
		c-0.2-5.9-0.8-8.2-0.6-14.2c0-0.7,1.4-2.3,1.5-3c0.4-4.9,1-9.9-0.2-14.1c-0.9-3.1-3.2-4-5.8-6c-2.3-1.7-4.9-4.6-7.1-6.2
		c-2.8-2-4.6-3.7-6.7-6.7c-1.3-1.8,0.8-2,3.1-2.1c3-0.1,6.2,0.2,9,0.6c1,0.1,2.8,1.8,3.7,2.1c2.2,0.8,3.6-0.3,5.8,0.4
		c1.7,0.5,8.8,4.2,10.7,5.3c2.6,1.5,3.5,3.7,6.2,5c0.5,0.2,8.9,2.6,9.9,2.9c2.3,0.6,3.7-1.1,6-0.5c2.6,0.7,7.4,2,10.3,2.9
		c1.7,0.5,2.7,2.5,4.4,2.8c8.3,1.7,6.8-1.1,13.4,5.5c1.9,1.9,5.1,3.5,6.6,5.8c2,3.3,2.3,7.3,3.6,10.9c1,2.8,3.3,5.1,3.8,8
		c1.4,8-0.1,16.3,0.9,24.3c0.3,2.5,2.8,5,3.1,7.5c1,9.4,1.2,18.7,0,28.1C818.5,485.1,815.8,486.4,815.3,489.5z M796,463.3
		c-2-6.2-4.3-12.9-9.2-17.6c-1.2-1.2-2.4-2.3-3.6-3.5c-2.3-3.7-3.1-5-6.9-7.1c-3.7-2-4.5-1.8-8.6-1.5c-6.6,0.3-8.2-2.1-8.1,5
		c0.1,11.4,0.3,22.9,0.4,34.4c0.1,4.6-0.2,7.5,1.9,11.5c1.7,5.1,2.7,7.5,2.9,12.8c2.3,2.6,2.2,3.4,2.4,6.9
		c-0.2,16.5-0.4,32.9-0.5,49.4c-0.1,15.5-0.2,31-0.2,46.5c0,3.1,0.6,5.1,1.5,5.5c0.9,0.4,2.2-0.7,3.6-3.9c1.2-2.7,2.3-5.3,3.5-8
		c1.9-4.4,2.9-6.6,2.9-11.4c0-4.1,1-6.4,2.9-10c3.3-7.5,4.8-11.4,4.9-19.5c0.2-12.7,0.4-25.4,0.6-38.1c0.1-3.6-0.1-5.4,0.5-6.9
		c2.1-5.5,4.2-4.4,5-11.7c0.3-2.6,1-5,2.6-8C797.8,481.9,796.4,470,796,463.3z M497.7,630.5c1.6,2.7,6.4,1.9,9.5,1.2
		c2.2-0.5,3.9-2.5,6.2-2.8c6.4-1,13.6,0.3,19.9-1c3.5-0.7,3.8-3.6,7.3-4.4c3-0.7,8.1-0.5,10.9,0.7c1,0.4,0.4,2.4,1.5,2.5
		c10.9,0,21-0.8,31.9-0.3c1.6-0.2,2.5-1.8,2.7-3.5c0.9-7.6,0.6-15.4,0-23.1c-0.1-1.5-1.4-2.4-1.8-3.8c-0.4-1.8-0.7-3.9,0-5.7
		c0.4-0.8,2.2,0,2.7-0.8c0.8-1.3,0.2-2.9-0.2-4.4c-0.4-1.7-0.4-3.9-2-4.3c-4.1-1.1-7.8,0.7-12,0c-1.2-0.2-1.5-3.1-2.6-2.6
		c-2,0.7-2.1,3.7-3.8,4.9c-3.2,2.5-7.8,4.2-11.4,6.1c-6.3,3.2-12.8,4.8-18.5,9.1c-1.8,1.4,0.6,5.8-1.5,6.8
		c-4.6,2.1-11.2,1.3-15.1,0.8c-3.3-3.8,2.7-8.4,3.2-13.4c1.9-5.1,5.8-9.7,7.1-15c1.4-5.5-0.4-12.1,0.7-17.7
		c0.8-4.3,4.6-7.8,5.3-12.1c1.5-9.7-1.7-19.9,0.3-29.5c0.7-3.4,5.5-4.7,6.8-7.9c1.1-2.6-0.7-5.6,0-8.3c0.5-1.8,2.8-2.8,3.4-4.5
		c1.4-4.1,2.2-8.7,3.5-12.9c0.5-1.8,2.5-3.1,2.7-4.9c0.7-8.5-1.1-17.2,0-25.7c0.4-3.1,2.7-5.3,3.6-8.3c1.5-5.5,0.4-11.6,2.3-17
		c0.6-1.6,3.9-0.7,4.5-2.3c1.2-3.2-0.8-7,0.4-10.2c0.8-2.3,5.3-2.7,6.1-4.9c1.4-3.7,0-8,1.3-11.7c0.8-2.2,3.2-3.5,4.3-5.6
		c2-3.9,5-8.1,4.7-12.5c-0.2-2.2-3-3-5.1-3.1c-14.5-0.4-29.2,0.1-43.7,0.2c-8.3,0-19.8,0-27,0.1c-4.3,0-5.4-0.6-5.5,3.8
		c-0.2,12.4,1.4,25.3,0.2,38.3c-0.1,1.2-2.7,0.7-3,1.9c-0.6,2.2,0.6,4.5,0.8,6.8c0.1,2.9-0.7,5.9,0,8.7c0.4,1.4,1.6,1.9,3,1.9
		c1.4,0,1.9-1,3-1.9c2.1-1.7,6.4-2.4,7.4-4.9c2.7-6.3,1-13.6,3.2-20c1.4-4.3,1.5-7.6,5.1-10.3c2.7-2,6.4-2,10.2-1.7
		c1.8,0.7,1.8,3.7,3.6,4.3c3.6,1.3,9-2.8,11.3,0.1c-0.6,3.1-0.5,8-1.9,11.7c-1.5,3.8-4.8,6.9-6.8,10.6c-3.3,6.2-5.5,10.5-7.4,17.3
		c-1,3.4,0.1,8.8-0.9,12.2c-1,3.6-5.2,5.6-6.4,9.1c-1,3,1,6.5,0,9.5c-0.8,2.2-3.6,2.1-3.9,4.4c-0.3,1.9,1.8,3.2,2.4,5
		c0.5,1.4,0.1,3.1-0.4,4.5c-1.7,4.7-2.6,3.2-4.4,7.9c-2.9,7.4-8,19.5-9,27.4c-1.3,10.1-0.9,21.2,0.5,31.3c0.4,2.8,2.6,4.8,3.1,7.6
		c0.8,4.5,0.5,9.1,0,13.6c-0.1,1.1-1.1,1.6-1.2,2.6c-0.6,4.1,0.6,8.4-0.4,12.5c-0.2,0.9-2.4-0.8-2.6,0c-0.8,2.6,1.2,5.8,0,8.3
		c-0.9,1.8-3.4,1.4-4.6,3c-0.9,1.1-1.1,3-0.4,4.2c0.5,0.9,1.2-0.4,1.5,0.5c0.6,1.6-0.2,3.5-1.1,4.9c-0.6,0.9-2.9-0.1-3,1
		C497.3,619.3,496.4,624.3,497.7,630.5L497.7,630.5z M329.2,648.3c6.3-2.2,6.3-7.6,12.3-10.4c3.2-1.5,9.4-1.1,12.9-0.1
		c2.4,0.7,2.8,2,6.6,2.3c17.9,1,35.1-0.9,53,0.4c1.8,0.1,2,3.5,3.7,3.7c7.7,1.1,15.4-0.9,23.1,0.1c2.9,0.3,6.1,3,8.9,3.7
		c1.9,0.5,4-1.2,5.8-0.4c1.6,0.7,1.6,4.1,3.3,4.1c9,0.4,17.3-0.3,25.6-0.2c4.4,0,3.7-1.5,2-4.6c-1.1-1.9-2.8-3.1-3.2-5.1
		c-1.8-9.5,3.7-27.5-1.4-27.7c-8.9-1-24.3-0.4-36.3-0.3c-12.7,0.1-24.4-1-37,0.7c-2.9,0.4-4.6,3.4-7.4,4.2c-4.8,1.3-10.1,1.1-15,0.3
		c-3.7-0.7-6.5-3.1-10.2-2.8c-3.1,0.3-4.4,4.5-7.4,5.3c-5.3,1.4-11.9,1.8-17.2,0.3c-1.6-0.5,0.4-3.5-0.4-5c-0.5-0.9-3-0.2-2.9-1.2
		c0.1-1.9,3-2.7,3.3-4.6c0.8-4.9-0.7-10,0-14.9c0.1-1,2.3-0.7,2.5-1.7c0.5-3.3-1.4-6.7-0.8-9.9c0.2-1.2,2.3-1,2.9-2.1
		c0.9-1.6,0.9-3.1,0.4-4.9c-0.3-1.3-1.4-0.7-2.1-1.8c-0.6-1.2-0.2-3.4,0.6-4.5c1.1-1.6,4.6-2.8,4.5-4.7c-0.2-4-0.8-5.9-0.5-9.9
		c0.1-1.5-2.8-2.8-3.1-4.3c-0.4-2.5-0.1-5.2-0.1-7.7c0-1.9-0.6-3.7,0.3-5.4c0.9-1.6,1.9-4.2,2-6.3c0.6-14.8,2-29.6,0.5-44.3
		c-0.3-2.6-4.5-3.6-4.7-6.2c-1.6-15.5-1.3-31.2-0.4-46.8c0.1-1.2,2.4-0.5,2.7-1.7c0.8-3.2,0.7-7.1-0.4-10.2
		c-0.5-1.3-2.4-0.7-3.1-1.9c-1-1.7-1.3-3.8-0.8-5.7c0.3-1.1,2.4-0.6,2.5-1.7c0.3-3.3-0.2-6.6-0.2-9.8c0.1-3.7,0.6-7.3-0.6-10.8
		c-1-2.8-2.7-3.7-4.6-5.6c-1.5-1.5-3.1-4.3-5-5.6c-1.3-0.9-3.9,0.4-5.3-0.3c-2.1-1-2.3-3.9-4.6-4.4c-5.3-1.2-10.6,1.2-15.9,0.4
		c-1.2-0.2-1.2-2.5-2.3-3.1c-1.3-0.7-3.2-0.9-4.4,0c-1.6,1.2-2.7,4.2-1.7,5.9c1.5,2.7,4.2,4,6.1,5.9c2.1,1.9,3.5,4.3,6,6.4
		c1,0.8,3.3,0.2,4.1,1.2c1.1,1.4,0.8,2.9,1.6,4.5c0.5,0.9,2.1,1.8,2.4,2.8c0.7,3,0.8,6.2,0,9.1c-0.4,1.6-2.2,2.6-2.8,4.1
		c-0.5,1.3-1.1,2.5-0.5,3.8c0.6,1.3,2.5,1.1,2.8,2.5c1,4.4,0.3,9.3,0.4,13.7c0.1,2.8-6.1,2.9-6.1,5.8c-0.1,3.7,0.4,8.4,0.5,13.4
		c0.1,4.8,2.8,3.3,2.9,4.4c0.9,11.8-0.7,23,0.3,34.9c0.1,1,2.2,1.1,2.6,2c1,2,0.8,4.5,0.2,6.6c-0.4,1.3-2.5,1.1-2.7,2.5
		c-0.9,8.1,1.5,16.4,0.4,24.4c-0.2,1.5-2.5,0.7-3.3,2.1c-1,2-0.1,2.8,0.1,5c0.1,1.4-0.3,4.4-0.1,5.8c0.2,1.8,0.6,3.7,0,5.4
		c-0.3,0.9-2.4,0.8-2.5,1.7c-0.4,5-0.1,9.9-0.2,14.7c-0.1,4.6-0.5,9.5,0.3,14.1c0.4,2.5,4.3,2.5,5.7,4.6c0.7,1,0.6,2.7,0,3.7
		c-0.6,1.1-3,0.8-3.3,2.1c-0.8,2.8,0.8,4.9,0,7.7c-0.4,1.5-2.5,0.9-2.7,3.8c-0.4,4.5-0.3,9,0.2,13.5c0.6,5,1.5,1.5,2.9,3.2
		c0.6,0.7,0.5,2.1,0,2.9c-0.6,1-2.6,0.9-2.9,2.1c-0.9,3.8,1.1,8.1-1,11.3c-3.6,5.5-11.4,6.2-15.3,11.4c-1,1.3,1.5,4.6,3.2,5
		c1.5,0.4,4-0.8,5.5-0.8C319,648.3,324.5,649.9,329.2,648.3L329.2,648.3z M642.4,575.8c-0.1,1.3-1.6,1.9-2,3.1
		c-1.7,4.5-3.1,7-4.2,11.6c-0.6,2.5-0.6,5.1-1.6,7.4c-0.6,1.4-3.5,2.6-4,4c-1.1,3.3,0.2,6.6,0,10.7c-0.2,3.5-1.7,5.5-3.1,8.8
		c-1,2.2-2.6,5.7-3.3,8c-0.7,2.5,0.5,5.3-0.2,7.8c-0.4,1.3-2.2,1.9-2.5,3.3c-0.7,3.4,0.6,7-0.4,10.3c-0.6,1.9-1,1.6-2.7,2.4
		c-1.3,0.6-4.5,1.2-4.7-0.2c-0.8-5.7,0.8-9.7-0.1-15.4c-1.1-6.7-3.9-10.7-5.5-17.3c-0.8-3.2,0.6-8.9-0.9-11.8
		c-2.7-5.3-11.4-7.4-11.1-13.3c0.4-5.7,3.8-9.4,7.3-14.1c2.4-3.2,3.9-8.4,5.4-12c1.1-2.7,1.7-5.8,1.8-8.4c0.1-3.9-1-5.6-4-8.1
		c-6.2-5.1-16.3-9.8-24-13.6c-1.1-0.6-2.5,1.6-2.5,2.9c0,1.3,1.5,2.2,1.6,3.5c0.4,3.7-1.8,7.5-0.2,10.9c1.7,3.5,8.3,4.6,7.3,8.4
		c-0.7,2.5-1.3,3.4-3.4,4.7c-1.3,0.8-2.8,0.7-4.3,0.8c-4.6,0.2-9.3-1.4-13.7-0.5c-4.8,1-9.1,3.2-13.5,5.4c-2.9,1.5-5.9,3.4-9.2,3.3
		l0,0c-3.7-0.1-4-6.1-3.7-9.8c0.3-3.8,5.2-3.6,7-6.9c1.3-2.4-0.6-6.7,0.8-9.1c1.6-2.5,5.8-2.4,7.4-4.9c0.9-1.4-0.4-4.2-0.4-5.9
		c0.1-4,1-7,0.8-11c-0.1-2.1-1-5.8-0.6-7.9c0.5-2.8,2.2-2.1,3-4.8c1-3.4-0.7-7.3,0.4-10.7c0.4-1.3,4-0.7,3.7-2.1
		c-0.3-1.7-3.4-0.8-3.7-2.5c-0.9-5.1-1-11.2,0.4-16.2c0.9-3.1,4.4-5.6,5.3-8.7c0.9-3.3-1.1-7,0-10.3c0.7-2.2,4.4-2.7,4.9-4.9
		c1.3-5.3,0.1-11.8,1.5-17.1c0.7-2.8,2.2-5.9,4-7.7c1.1-1,2-1.8,2.5-3.5c0.7-2.3-1-4.2-0.6-6.5c0.3-2.1,1.9-3.4,2.9-5.2
		c1.3-2.3,1.8-5.3,3-7.6c1.8-3.4,4.2-6.3,5.4-9.9c0.9-2.7-1.1-7.1,0.1-9.8c1.7-3.7,6.2-3.6,7.8-7.3c1.4-3-1-6.9,0.4-9.9
		c1-2.2,3.4-3.1,5.8-3.2c1.8-0.1,3.9,1.1,4.5,2.8c1.2,3.2,0.1,7.1,1.4,10.3c2.3,5.6,6.4,8.9,8.6,14.5c1.2,2.9-0.1,7.1,0.6,10.2
		c1,4.2,1.7,8.4,3,12.4c1.7,5.1,4.2,10,5.6,15.1c1.3,4.6,1.6,9.5,2.6,14.1c0.7,3.4,2,6.5,3.2,9.7c0.5,1.4,2.2,1,2.6,2.5
		c0.7,2.5-1.4,5.3-0.8,7.8c0.7,3,4,6.1,4.5,9.2c0.9,5,0,9.8,0.1,14.8c0.1,4.6,0.6,8.9,1.2,13.4c0.4,2.7,1.9,6.6,2,8.6
		c0.3,7.4,0.6,14.7,0.7,22.1C643,553.4,643,565,642.4,575.8z M615.8,511.8c0-6.5-0.1-13.1-0.4-19.6c0-0.9-2-0.5-2.2-1.4
		c-0.6-3.8,0-8.7-0.7-12.5c-0.2-0.8-1.6,0-2.3-0.4c-1-0.7-1.2-2.4-2.3-2.8c-1.4-0.6-3.2,0.2-4.6-0.4c-1.1-0.4-1.9-1.7-2.6-2.8
		c-1.2-1.8-1.6-3.5-2.9-5.3c-1.2-1.5-1.5-3.3-1.8-3.3c-0.3,0-0.7,1.9-0.9,4c-0.5,3.7-0.4,8.1-0.4,8.7c0,0.4-1.1,1.4-1.6,2.5
		c-0.9,1.8-1.4,4-1.6,4.3c-0.8,1.1-4.1-0.2-4.5,1.1c-1,3.3,1.1,7.4,0.7,10.8c-0.2,2.1-2.1,3.6-2.3,5.7c-0.2,3.2-0.3,6.3-0.3,9.5
		c0,3.6,0.1,7.1,0.1,10.8v0c0,0.4-0.3,1.1,0,1.1c1.8,0.2,4.5-0.4,6.3-0.4c2.8,0,6.2,0.2,8.9,1.1c1.2,0.4,1.2,2.4,2.4,2.7
		c3.1,0.7,4.6,2.8,6.9,4.6c1.2,0.9,5.6,0.8,5.6-0.8C615.6,523.4,615.8,517.6,615.8,511.8z M735.3,602.3c-0.2,4.1,0,8.2-0.7,12.2
		c-1.2,7.9-1.7,15.2-3.6,23.2c-1.4,6.1-2.2,8.8-9.1,4.9c-1.5-0.8-2.8-1.7-3.9-2.4c-4.9-3-7-9-12.2-11.6c-1.9-1-4.8-1.1-7.3-1.1
		c-6.3,0-5.7-1.8-3.8-7.7c1.8-5.7,5.5-10.4,7.2-16.3c1.2-4.1,1.4-8.5,1.3-12.8c-0.3-9.9-0.9-19.8-2.6-29.5c-1.5-8.5-4-16.9-7.1-25.1
		c-0.6-1.7-3.4-1.4-3.6-3.2c-0.7-6.2,2.6-11.6,1.5-17.7c-0.9-5-5.1-9.9-8.2-13.9c-1-1.2-2.2-3.6-3.1-2.4c-1.9,4.2-3.8,9.6-5.8,14.8
		c-0.7,3.8,0.9,7.7,1.3,11.6c1.1,10.7,1.9,21.4,3.2,32.1c0.6,4.7,2.2,9.4,1.9,14.1c-0.1,1.7-3.7,1.5-3.9,3.2c-0.2,2,2.9,3.1,3.2,5.1
		c0.8,5.3,0.5,10.7,0,16.1c-0.2,1.8-1.6,3.3-1.9,5.1c-0.3,1.5-0.4,3,0,4.5c0.5,1.8,2.3,3.2,2.6,5.1c0.6,5.1,0.5,10.3,0,15.4
		c-0.1,1.4-1.7,2.4-1.9,3.9c-1.2,6.6,0.3,17.6-1.9,19.9c-4.3-9.7-8.8-19.6-15.4-25.1c-3.9-3.2-8.1-6.2-11.6-8.6
		c-3.6-2.3-6.6-3.9-5.6-7.9h0c2.3-9.3,6.8-17.4,10.6-28.3c0.9-2.7,2.8-5.8,2.2-8.6c-0.4-1.8-3.1-2.5-3.2-4.3
		c-1-19.9,0.2-39.4-0.5-59.3c-0.2-6.1-1.6-13.5-3.2-19.3c-0.4-1.3-1.5-2.8-1.7-4.1c-0.5-3.2,0.1-5.5-0.3-8.7c-0.3-2.7-2.2-5-2.6-7.7
		c-1.1-8.3-0.5-15.1-2.4-23.3c-0.6-2.5-1.1-5-1.6-7.5c-1.3-6.9-5.4-14-2-20.1c1.5-2.8,5.2-4.1,7.3-5.5c3-2.1,5.4-3.7,8.8-6.9
		c1.7-1.6,4.7-3.9,3.2-5.7c-1.6-2-3.4-1.9-5.9-1.6c-2,0.3-4.8,3.7-5.8,1.9c-2.4-4.3-3.4-7.5-6-10.3c-3.1-3.4-6.4-5.9-10.7-7.7
		c-2.4-1-5.6-0.3-7.7-1.8c-1.4-1-1.9-2.9-0.2-3.1c11.5-1.5,20.9,0.7,32.4-0.3c1.7-0.1,3.4-2.5,5-2.3c2.4,0.4,2.8,3,5.1,3.6
		c3.8,0.9,7.8-0.7,11.6,0.1c4.9,1,8.7,3.7,13.5,5.1c4.1,1.2,7.4-0.3,11.3,1.5c4.7,2.2,9.1,6,12,10.3c5.2,7.7,9.7,15.9,11.3,25.1
		c1.1,6.3-2.2,12.1-2.9,18.4c-0.4,3.4,1.1,7.2-0.1,10.5c-2.5,7.1-4.9,13.4-9.8,19c-3.6,4.2-7.4,7.7-14.8,8.7c-1,1.1-1.1,4.3,0,5.4
		c1.1,1.1,3.3-0.8,4.5,0c4.2,2.8,9.6,6,12.3,10.3c1.1,1.8-1.8,3.1-0.9,5.1c0.6,1.1,2.1-0.3,3,0.7c2.3,2.7,4,6.1,4.5,9.6
		c1.2,7.8,0.1,16.6,0.9,24.4c0.3,2.7,0.8,4.5,2.6,6.6c2.9,3.4,4.8-1,4.9,7.8c0.1,7.4,1.1,14.1,2.2,21.6c-0.1,2.8-3.9,5-3.2,7.7
		c0.5,2,4.5,0.4,5.8,1.9c1.8,2,1.8,5,1.9,7.7C736,590.8,735.6,596.5,735.3,602.3z M697.6,443.2c0.9-0.9,1.8-11.1,1.8-13.3
		c0-3.2-3.4-7.9-7.2-12.2c-2.6-2.9-5.8-5.5-7.2-7.5c-2.5-3.6-4.3-5.2-7.3-5.9c-5.4-1.2-5.3-0.7-5.3,3.9c0,3.8,0.4,7.8,0.4,11.8
		c0,5.1-0.4,9.6-0.3,14.7c0,5.4,0.4,11.4,0.4,16.8c0,4.3-0.8,12.6-0.5,16.2c0.4,4.6,0.7,5.4,7,5.4c3.1,0,7.2-3.1,10.2-6.3
		c2.1-2.2,1.8-5.9,2.6-7.5c1.2-2.4,3.2-4.6,3.6-7.3C696.5,448.4,695.2,445.5,697.6,443.2z"/>
</g>
</svg>
