<?xml version="1.0" encoding="utf-8"?>
<!-- Generator: Adobe Illustrator 21.0.0, SVG Export Plug-In . SVG Version: 6.00 Build 0)  -->
<svg version="1.1" xmlns="http://www.w3.org/2000/svg" xmlns:xlink="http://www.w3.org/1999/xlink" x="0px" y="0px"
	 viewBox="0 0 1024 1024" style="enable-background:new 0 0 1024 1024;" xml:space="preserve">
<style type="text/css">
	.st0{fill:#004BEF;}
	.st1{fill:#FFFFFF;}
</style>
<g id="Min_Guides__x28_DO_NOT_REMOVE_x29_">
</g>
<g id="Max_Guides__x28_DO_NOT_REMOVE_x29_">
</g>
<g id="Icon">
	<circle id="Background" class="st0" cx="512" cy="512" r="512"/>
	<path class="st1" d="M736.9,436.9c41.5,41.5,41.5,108.7,0,149.7L587.1,736.9c-41.5,41.5-108.7,41.5-149.8,0L287.1,587.1
		c-41.5-41.5-41.5-108.7,0-149.8l149.7-150.2c19.9-19.9,46.9-31.1,75.1-31.1s55.2,11.2,75.1,31.1L736.9,436.9L736.9,436.9z
		 M624.7,549.5c10-9.9,15.6-23.5,15.6-37.5s-5.6-27.6-15.6-37.5l-75.1-75.1c-9.9-10-23.5-15.6-37.5-15.6c-14.1,0-27.6,5.6-37.5,15.6
		l-75.1,75.1c-10,9.9-15.6,23.5-15.6,37.5s5.6,27.6,15.6,37.5l75.1,75.1c9.9,10,23.5,15.6,37.5,15.6s27.6-5.6,37.5-15.6L624.7,549.5
		L624.7,549.5z"/>
</g>
</svg>
