<svg xmlns="http://www.w3.org/2000/svg" viewBox="0 0 1024 1024">
   <circle cx="512" cy="512" r="512" style="fill:#3d89f5"/>
   <path d="m299.86 444.79-23.35 23.35A66.07 66.07 0 0 0 261.34 490a66.82 66.82 0 0 0-5.34 26.17A66.11 66.11 0 0 0 276.51 564l188.13 190.16A59.38 59.38 0 0 0 480 765.33V535Zm424.28 0 23.35 23.35a66.1 66.1 0 0 1 0 95.73L559.36 754A59.38 59.38 0 0 1 544 765.16V535Zm-45.2-47.7L561.2 279a64.62 64.62 0 0 0-22-15 66.08 66.08 0 0 0-52 0 70.73 70.73 0 0 0-22 15L347.23 397.09l165.44 82.55Z" style="fill:#fff"/>
</svg>
