<?xml version="1.0" encoding="utf-8"?>
<!-- Generator: Adobe Illustrator 21.0.0, SVG Export Plug-In . SVG Version: 6.00 Build 0)  -->
<svg version="1.1" xmlns="http://www.w3.org/2000/svg" xmlns:xlink="http://www.w3.org/1999/xlink" x="0px" y="0px"
	 viewBox="0 0 1024 1024" style="enable-background:new 0 0 1024 1024;" xml:space="preserve">
<style type="text/css">
	.st0{fill:#263238;}
	.st1{fill:#FFFFFF;}
</style>
<g id="Min_Guides__x28_DO_NOT_REMOVE_x29_">
</g>
<g id="Max_Guides__x28_DO_NOT_REMOVE_x29_">
</g>
<g id="Icon">
	<circle id="Background" class="st0" cx="512" cy="512" r="512"/>
	<path class="st1" d="M768,554.7V640c0,23.6-19.1,42.7-42.7,42.7H298.7c-23.6,0-42.7-19.1-42.7-42.7v-85.3
		c0-23.6,19.1-42.7,42.7-42.7h426.7C748.9,512,768,531.1,768,554.7z M725.3,483.6c9.4,0,18.7,1.9,27.4,5.5l-85.8-128.7
		c-7.9-11.9-21.2-19-35.5-19H392.6c-14.3,0-27.6,7.1-35.5,19L271.3,489c8.7-3.6,18-5.5,27.4-5.5H725.3z M682.7,568.9
		c-15.7,0-28.4,12.7-28.4,28.4c0,15.7,12.7,28.4,28.4,28.4c15.7,0,28.4-12.7,28.4-28.4C711.1,581.6,698.4,568.9,682.7,568.9z
		 M597.3,568.9c-15.7,0-28.4,12.7-28.4,28.4c0,15.7,12.7,28.4,28.4,28.4c15.7,0,28.4-12.7,28.4-28.4
		C625.8,581.6,613,568.9,597.3,568.9z"/>
</g>
</svg>
