<svg xmlns="http://www.w3.org/2000/svg" viewBox="0 0 1024 1024">
   <circle cx="512" cy="512" r="512" style="fill:#0061d5"/>
   <path d="M520.29 416.51a95.48 95.48 0 0 0-84.38 50.75 95.56 95.56 0 0 0-141.73-31.64v-80.48a19.09 19.09 0 0 0-38.18 0v158.47a95.52 95.52 0 0 0 179.88 43.21 95.53 95.53 0 1 0 84.38-140.31m-168.75 152.8A57.28 57.28 0 1 1 408.79 512a57.31 57.31 0 0 1-57.28 57.3m168.78 0a57.28 57.28 0 1 1 57.29-57.3 57.3 57.3 0 0 1-57.29 57.3M764 575.58c6.58 8.44 4.69 20.16-4.38 26.43s-21.83 4.67-28.86-3.51l-44.66-54.74-44.66 54.74c-7 8.18-19.78 9.78-28.84 3.51s-10.95-18-4.34-26.43l51.89-63.69-51.89-63.81c-6.61-8.42-4.71-20.17 4.34-26.42s21.88-4.68 28.84 3.48l44.68 54.81 44.72-54.81a22 22 0 0 1 28.86-3.48c9.07 6.24 11 18 4.39 26.42l-52 63.81L764 575.58" style="fill:#fff"/>
</svg>
