<?xml version="1.0" encoding="UTF-8" standalone="no"?>
<svg
   xmlns:dc="http://purl.org/dc/elements/1.1/"
   xmlns:cc="http://creativecommons.org/ns#"
   xmlns:rdf="http://www.w3.org/1999/02/22-rdf-syntax-ns#"
   xmlns:svg="http://www.w3.org/2000/svg"
   xmlns="http://www.w3.org/2000/svg"
   viewBox="0 0 1365.3333 1365.3333"
   height="1365.3333"
   width="1365.3333"
   xml:space="preserve"
   id="svg2"
   version="1.1"><metadata
     id="metadata8"><rdf:RDF><cc:Work
         rdf:about=""><dc:format>image/svg+xml</dc:format><dc:type
           rdf:resource="http://purl.org/dc/dcmitype/StillImage" /></cc:Work></rdf:RDF></metadata><defs
     id="defs6"><clipPath
       id="clipPath18"
       clipPathUnits="userSpaceOnUse"><path
         id="path16"
         d="M 0,1024 H 1024 V 0 H 0 Z" /></clipPath></defs><g
     transform="matrix(1.3333333,0,0,-1.3333333,0,1365.3333)"
     id="g10"><g
       id="g12"><g
         clip-path="url(#clipPath18)"
         id="g14"><g
           transform="translate(1024,512)"
           id="g20"><path
             id="path22"
             style="fill:#2a9157;fill-opacity:1;fill-rule:nonzero;stroke:none"
             d="m 0,0 c 0,-282.77 -229.23,-512 -512,-512 -282.77,0 -512,229.23 -512,512 0,282.77 229.23,512 512,512 C -229.23,512 0,282.77 0,0" /></g><g
           transform="translate(714.4326,341.3047)"
           id="g24"><path
             id="path26"
             style="fill:#ffffff;fill-opacity:1;fill-rule:nonzero;stroke:none"
             d="m 0,0 26.979,-26.979 -7.099,-6.532 c -32.234,-29.109 -67.164,-50.976 -105.22,-65.744 -30.812,-11.928 -77.388,-21.3 -105.361,-21.3 h -10.224 v 38.055 38.197 l 18.886,1.562 c 32.943,2.982 59.78,10.366 88.321,24.424 20.164,9.797 38.34,21.725 53.959,35.357 6.248,5.537 11.644,9.939 12.07,10.081 C -27.263,27.121 -14.768,14.91 0,0 m -43.593,43.735 11.786,-11.927 -7.526,-6.817 c -31.665,-28.541 -70.288,-48.278 -111.893,-57.224 -15.051,-3.266 -44.586,-6.674 -47.711,-5.396 -1.562,0.568 -1.988,4.26 -1.988,16.898 v 16.187 l 12.496,0.994 c 47.001,3.834 92.44,22.72 123.111,51.118 4.686,4.261 8.803,7.811 9.229,7.953 0.427,0 6.107,-5.396 12.496,-11.786 M -86.76,86.901 -60.064,60.206 -66.738,53.959 C -98.262,24.707 -147.392,4.26 -189.564,2.698 L -200.215,2.272 V 40.611 78.95 l 9.941,0.852 c 12.495,1.136 25.275,4.402 37.628,9.656 10.792,4.401 27.263,14.909 32.517,20.589 1.988,1.988 4.118,3.692 4.97,3.692 0.852,0 13.632,-12.07 28.399,-26.838 m -195.386,21.016 c 17.891,-15.762 46.148,-26.837 72.702,-28.683 l 4.969,-0.284 0.427,-16.613 0.425,-16.756 h -6.957 c -18.318,0 -47.285,8.094 -66.738,18.459 -11.786,6.391 -27.264,17.324 -32.802,23.288 l -3.549,3.834 11.217,11.217 c 6.248,6.248 11.786,11.36 12.496,11.36 0.71,0 4.26,-2.555 7.81,-5.822 m 150.515,23.855 13.206,-13.347 -6.389,-5.254 C -144.41,97.126 -173.52,85.481 -194.108,85.34 h -6.817 v 18.317 18.318 l 8.237,0.994 c 15.334,1.845 36.209,10.933 43.592,19.17 1.42,1.561 2.982,2.84 3.408,2.84 0.568,0 6.816,-5.964 14.057,-13.207 m -120.412,7.668 c 11.786,-9.372 32.091,-17.04 45.155,-17.181 3.123,0 3.123,-0.284 3.123,-18.602 V 84.914 l -10.223,0.852 c -14.342,1.135 -25.276,4.259 -40.185,11.502 -13.348,6.389 -30.529,18.317 -30.529,21.157 0,1.42 23.855,26.554 25.275,26.554 0.142,0 3.55,-2.557 7.384,-5.539 M 0.143,190.843 C -2.84,153.924 -16.472,116.011 -37.061,87.328 -46.007,74.832 -55.378,64.04 -57.225,64.04 c -0.567,0 -13.063,12.07 -27.831,26.838 l -26.979,26.979 4.97,5.396 c 15.761,17.466 27.263,43.593 29.109,66.17 0.426,5.68 0.994,11.076 1.42,12.07 0.284,1.278 9.372,1.704 39.049,1.704 H 1.136 Z m -83.637,0.994 c -1.562,-20.732 -13.064,-47.853 -27.263,-64.608 l -4.828,-5.68 -12.922,12.779 c -6.957,6.958 -12.779,13.206 -12.779,13.775 0,0.567 2.556,4.401 5.68,8.519 7.099,9.372 12.496,22.719 14.626,36.209 l 1.704,10.366 h 18.317 18.317 z m -201.208,8.236 c 0.142,-13.064 8.946,-35.783 17.891,-46.291 l 4.686,-5.538 -13.49,-13.348 -13.489,-13.347 -4.828,5.68 c -15.336,18.034 -27.547,48.846 -27.689,69.294 v 6.674 h 18.459 c 18.176,0 18.46,0 18.46,-3.124 m 176.501,78.808 c 14.91,-19.454 24.991,-45.723 25.134,-64.609 v -6.815 h -18.035 -18.174 l -2.273,11.927 c -2.697,14.058 -7.241,24.282 -15.335,34.931 l -5.822,7.81 12.353,12.354 c 6.817,6.958 13.207,12.496 14.201,12.496 0.851,0 4.543,-3.692 7.951,-8.094 m -158.61,-23.43 c -7.668,-8.946 -13.489,-21.867 -16.188,-35.783 l -2.272,-12.211 h -18.459 -18.317 l 0.852,10.791 c 1.846,20.164 12.07,44.445 26.695,63.046 l 5.822,7.384 13.632,-13.489 13.489,-13.49 z m 92.866,65.603 c 6.674,-1.704 17.181,-5.396 23.429,-8.52 10.791,-5.112 30.53,-18.744 30.53,-21.016 0,-0.568 -5.823,-6.815 -12.781,-13.773 -9.513,-9.514 -13.347,-12.354 -14.625,-11.36 -16.045,12.07 -26.979,17.039 -43.592,19.88 l -9.231,1.42 -0.426,18.175 -0.425,18.034 h 7.525 c 4.118,0 12.922,-1.279 19.596,-2.84 m -29.82,-15.478 V 287.4 l -7.667,-0.994 c -15.762,-1.845 -29.677,-7.951 -45.865,-20.021 -1.278,-0.994 -5.112,1.846 -14.626,11.36 -6.957,6.958 -12.779,13.205 -12.779,13.773 0,2.272 19.453,15.478 30.529,21.016 13.206,6.531 30.529,11.075 42.315,11.217 l 8.093,0.143 z m 155.771,30.813 C -19.596,302.026 -3.55,262.835 0.143,219.242 l 0.993,-11.785 h -39.333 -39.191 v 7.525 c 0,21.584 -11.927,49.983 -30.813,73.128 l -3.834,4.686 26.979,26.979 c 14.768,14.768 27.264,26.838 27.69,26.838 0.426,0 4.685,-4.686 9.372,-10.224 m -124.957,25.133 c 27.263,-5.111 55.946,-19.169 76.393,-37.345 l 5.397,-4.827 -11.928,-11.928 -11.786,-11.786 -4.401,3.408 c -9.657,7.952 -21.584,15.477 -31.382,20.021 -11.075,5.112 -30.813,10.508 -38.906,10.508 -11.502,0.142 -11.361,-0.142 -11.361,17.892 v 16.187 h 8.378 c 4.544,0 13.49,-0.994 19.596,-2.13 m -123.963,-73.837 c -18.317,-23.146 -28.115,-45.724 -29.961,-69.153 l -0.852,-11.075 h -58.929 -58.786 l 0.852,12.495 c 4.402,55.805 25.559,106.214 61.342,146.256 l 8.094,9.088 41.179,-41.179 41.179,-41.321 z m -94.285,78.097 c -35.641,-42.456 -54.527,-89.173 -59.071,-145.83 l -0.994,-12.495 h -16.756 c -19.595,0 -17.749,-2.698 -15.477,21.867 5.822,61.484 28.257,113.739 69.436,162.018 l 10.508,12.353 12.07,-12.07 11.927,-11.927 z" /></g></g></g></g></svg>