<?xml version="1.0" encoding="utf-8"?>
<!-- Generator: Adobe Illustrator 21.0.0, SVG Export Plug-In . SVG Version: 6.00 Build 0)  -->
<svg version="1.1" xmlns="http://www.w3.org/2000/svg" xmlns:xlink="http://www.w3.org/1999/xlink" x="0px" y="0px"
	 viewBox="0 0 1024 1024" style="enable-background:new 0 0 1024 1024;" xml:space="preserve">
<style type="text/css">
	.st0{fill:#008E5A;}
	.st1{fill:#FFFFFF;}
</style>
<g id="Guides">
</g>
<g id="Icon">
	<circle class="st0" cx="512" cy="512" r="512"/>
	<path class="st1" d="M323.2,316.9c-35.6,42.5-54.5,89.2-59.1,145.8l-1,12.5h-16.8c-19.6,0-17.7,2.7-15.5-21.9
		c5.8-61.5,28.3-113.7,69.4-162l10.5-12.4l12.1,12.1l11.9,11.9L323.2,316.9z M417.5,395c-18.3,23.1-28.1,45.7-30,69.2l-0.9,11.1
		h-58.9H269l0.9-12.5c4.4-55.8,25.6-106.2,61.3-146.3l8.1-9.1l41.2,41.2l41.2,41.3L417.5,395z M541.5,321.2
		c27.3,5.1,55.9,19.2,76.4,37.3l5.4,4.8l-11.9,11.9l-11.8,11.8l-4.4-3.4c-9.7-8-21.6-15.5-31.4-20c-11.1-5.1-30.8-10.5-38.9-10.5
		c-11.5-0.1-11.4,0.1-11.4-17.9V319h8.4C526.4,319,535.4,320,541.5,321.2z M666.4,346.3c28.4,34.4,44.4,73.6,48.1,117.1l1,11.8
		h-39.3H637v-7.5c0-21.6-11.9-50-30.8-73.1l-3.8-4.7l27-27c14.8-14.8,27.3-26.8,27.7-26.8C657.5,336.1,661.8,340.8,666.4,346.3z
		 M510.7,377.1v18.2l-7.7,1c-15.8,1.8-29.7,8-45.9,20c-1.3,1-5.1-1.8-14.6-11.4c-7-7-12.8-13.2-12.8-13.8c0-2.3,19.5-15.5,30.5-21
		c13.2-6.5,30.5-11.1,42.3-11.2l8.1-0.1V377.1z M540.5,361.6c6.7,1.7,17.2,5.4,23.4,8.5c10.8,5.1,30.5,18.7,30.5,21
		c0,0.6-5.8,6.8-12.8,13.8c-9.5,9.5-13.3,12.4-14.6,11.4c-16-12.1-27-17-43.6-19.9l-9.2-1.4l-0.4-18.2l-0.4-18h7.5
		C525,358.8,533.8,360.1,540.5,361.6z M447.6,427.2c-7.7,8.9-13.5,21.9-16.2,35.8l-2.3,12.2h-18.5h-18.3l0.9-10.8
		c1.8-20.2,12.1-44.4,26.7-63l5.8-7.4l13.6,13.5l13.5,13.5L447.6,427.2z M606.2,403.8c14.9,19.5,25,45.7,25.1,64.6v6.8h-18h-18.2
		l-2.3-11.9c-2.7-14.1-7.2-24.3-15.3-34.9l-5.8-7.8l12.4-12.4c6.8-7,13.2-12.5,14.2-12.5C599.1,395.7,602.8,399.4,606.2,403.8z
		 M429.7,482.6c0.1,13.1,8.9,35.8,17.9,46.3l4.7,5.5l-13.5,13.3l-13.5,13.3l-4.8-5.7c-15.3-18-27.5-48.8-27.7-69.3v-6.7h18.5
		C429.4,479.5,429.7,479.5,429.7,482.6z M630.9,490.9c-1.6,20.7-13.1,47.9-27.3,64.6l-4.8,5.7l-12.9-12.8c-7-7-12.8-13.2-12.8-13.8
		c0-0.6,2.6-4.4,5.7-8.5c7.1-9.4,12.5-22.7,14.6-36.2l1.7-10.4h18.3h18.3L630.9,490.9z M714.6,491.9c-3,36.9-16.6,74.8-37.2,103.5
		c-8.9,12.5-18.3,23.3-20.2,23.3c-0.6,0-13.1-12.1-27.8-26.8l-27-27l5-5.4c15.8-17.5,27.3-43.6,29.1-66.2c0.4-5.7,1-11.1,1.4-12.1
		c0.3-1.3,9.4-1.7,39-1.7h38.6L714.6,491.9z M462.4,543.3c11.8,9.4,32.1,17,45.2,17.2c3.1,0,3.1,0.3,3.1,18.6v18.7l-10.2-0.9
		c-14.3-1.1-25.3-4.3-40.2-11.5c-13.3-6.4-30.5-18.3-30.5-21.2c0-1.4,23.9-26.6,25.3-26.6C455.1,537.7,458.6,540.3,462.4,543.3z
		 M582.8,550.9l13.2,13.3l-6.4,5.3c-19.6,16-48.7,27.7-69.3,27.8h-6.8V579v-18.3l8.2-1c15.3-1.8,36.2-10.9,43.6-19.2
		c1.4-1.6,3-2.8,3.4-2.8C569.3,537.7,575.6,543.7,582.8,550.9z M432.3,574.8c17.9,15.8,46.1,26.8,72.7,28.7l5,0.3l0.4,16.6l0.4,16.8
		h-7c-18.3,0-47.3-8.1-66.7-18.5c-11.8-6.4-27.3-17.3-32.8-23.3l-3.5-3.8l11.2-11.2c6.2-6.2,11.8-11.4,12.5-11.4
		S428.7,571.5,432.3,574.8z M627.7,595.8l26.7,26.7l-6.7,6.2C616.2,658,567,678.4,524.9,680l-10.6,0.4v-38.3v-38.3l9.9-0.9
		c12.5-1.1,25.3-4.4,37.6-9.7c10.8-4.4,27.3-14.9,32.5-20.6c2-2,4.1-3.7,5-3.7S612.9,581,627.7,595.8z M670.8,639l11.8,11.9
		l-7.5,6.8c-31.7,28.5-70.3,48.3-111.9,57.2c-15.1,3.3-44.6,6.7-47.7,5.4c-1.6-0.6-2-4.3-2-16.9v-16.2l12.5-1
		c47-3.8,92.4-22.7,123.1-51.1c4.7-4.3,8.8-7.8,9.2-8C658.8,627.2,664.5,632.6,670.8,639z M714.4,682.7l27,27l-7.1,6.5
		c-32.2,29.1-67.2,51-105.2,65.7c-30.8,11.9-77.4,21.3-105.4,21.3h-10.2v-38.1V727l18.9-1.6c32.9-3,59.8-10.4,88.3-24.4
		c20.2-9.8,38.3-21.7,54-35.4c6.2-5.5,11.6-9.9,12.1-10.1C687.2,655.6,699.7,667.8,714.4,682.7z"/>
</g>
</svg>
