<?xml version="1.0" encoding="utf-8"?>
<!-- Generator: Adobe Illustrator 21.0.0, SVG Export Plug-In . SVG Version: 6.00 Build 0)  -->
<svg version="1.1" xmlns="http://www.w3.org/2000/svg" xmlns:xlink="http://www.w3.org/1999/xlink" x="0px" y="0px"
	 viewBox="0 0 1024 1024" style="enable-background:new 0 0 1024 1024;" xml:space="preserve">
<style type="text/css">
	.st0{fill:#FB542B;}
	.st1{fill:#FFFFFF;}
</style>
<g id="Guides">
</g>
<g id="Icon">
	<circle class="st0" cx="512" cy="512" r="512"/>
	<path class="st1" d="M586.5,266.2c3,0,5.9,1.3,7.8,3.6l38.4,44.3c0.5-0.1,1-0.2,1.5-0.3c9.2-1.6,18.8-2.2,27.9-1.2
		c11.7,1.4,21.7,5.5,29.1,13c7.8,7.9,15.5,16,22.8,23.8c2.6,2.7,4.9,5.2,7,7.5c0.7,0.8,1.4,1.5,1.9,2.1c3.4,3.8,4.2,8.2,2.7,12
		l-9.9,24.8l13.2,38.4c0.7,2,0.8,4.2,0.2,6.2c-0.1,0.4-0.1,0.4-0.5,2.1c-0.6,2.4-0.6,2.4-1.5,5.9c-1.6,6.3-3.5,13.4-5.4,21
		c-5.6,21.8-11.3,43.6-16.5,63.9c-13,50.2-21.5,83.3-23.5,91.6c-11.2,44.9-20,60.5-48.6,81c-25.1,18-77.4,54-87.4,60.4
		c-1,0.6-2,1.3-3.4,2.3c-0.5,0.4-3.2,2.2-4,2.7c-4.9,3.4-8.4,5.5-12.1,7.3c-4.8,2.2-9.3,3.5-14,3.5c-4.6,0-9.2-1.3-14-3.5
		c-3.8-1.8-7.2-3.9-12.1-7.3c-0.8-0.5-3.4-2.4-4-2.7c-1.4-1-2.5-1.7-3.4-2.3c-10.1-6.4-62.4-42.5-87.4-60.4
		c-28.6-20.5-37.5-36.1-48.6-81c-2.1-8.2-10.6-41.3-23.5-91.2c-5.4-20.7-11-42.5-16.6-64.3c-2-7.6-3.8-14.7-5.5-21
		c-0.9-3.5-0.9-3.5-1.5-5.9c-0.4-1.7-0.4-1.7-0.5-2.1c-0.5-2.1-0.4-4.2,0.2-6.2l13.2-38.4l-9.9-24.8c-1.5-3.8-0.7-8.2,2-11.2
		c1.2-1.3,1.9-2,2.6-2.8c2.1-2.2,4.4-4.7,7-7.5c7.3-7.8,15-15.9,22.8-23.8c7.4-7.6,17.4-11.6,29.1-13c9.1-1.1,18.7-0.5,27.9,1.2
		c0.5,0.1,1,0.2,1.5,0.3l38.4-44.3c2-2.3,4.8-3.6,7.8-3.6H586.5z M581.8,287.4H442.2l-39.3,45.5c-2.6,3.1-6.8,4.3-10.6,3.2
		c-0.2-0.1-0.7-0.2-1.5-0.4c-1.3-0.3-2.9-0.6-4.6-0.9c-7.4-1.3-15-1.8-21.9-1c-7.4,0.9-13.1,3.2-16.8,7
		c-7.6,7.8-15.3,15.7-22.5,23.4c-1.7,1.8-3.3,3.5-4.8,5.1l8.9,22.2c1,2.4,1,5.1,0.2,7.5l-13.4,39.1c0.4,1.4,0.5,1.9,1.3,4.8
		c1.6,6.3,3.5,13.4,5.4,21c5.6,21.8,11.3,43.6,16.5,63.9c13,50.4,21.5,83.4,23.6,91.7c10,40.4,16.4,51.6,40.4,68.8
		c24.8,17.8,76.8,53.6,86.5,59.8c1.2,0.8,2.5,1.6,4.1,2.7c0.6,0.4,3.2,2.2,3.9,2.7c4,2.8,6.7,4.4,9.3,5.6c2.2,1.1,4,1.5,5.1,1.5
		c1.2,0,2.9-0.5,5.1-1.5c2.5-1.2,5.2-2.9,9.2-5.6c0.7-0.5,3.4-2.3,4-2.7c1.6-1.1,2.9-2,4.1-2.7c9.7-6.2,61.7-42,86.5-59.8
		c24-17.2,30.4-28.4,40.4-68.8c2.1-8.3,10.6-41.4,23.5-91.4c5.4-20.7,11-42.5,16.6-64.3c2-7.6,3.8-14.7,5.4-21
		c0.8-2.9,0.9-3.4,1.3-4.8L694.7,399c-0.8-2.4-0.8-5.1,0.2-7.5l8.9-22.2c-1.5-1.6-3.1-3.3-4.8-5.1c-7.2-7.7-14.9-15.6-22.5-23.4
		c-3.7-3.8-9.4-6.1-16.8-7c-6.8-0.8-14.5-0.3-21.9,1c-1.7,0.3-3.2,0.6-4.6,0.9c-0.8,0.2-1.3,0.3-1.5,0.4c-3.9,1.1-8-0.2-10.6-3.2
		L581.8,287.4z M512,584.7c2.8,0,21,6.5,35.6,14.2c14.6,7.7,25.2,13.1,28.5,15.3c3.4,2.1,1.3,6.2-1.8,8.4
		c-3.1,2.2-44.5,34.9-48.5,38.5c-4,3.6-9.9,9.6-13.9,9.6c-4,0-9.9-6-13.9-9.6c-4-3.6-45.4-36.2-48.5-38.5c-3.1-2.2-5.1-6.3-1.8-8.4
		c3.4-2.2,14-7.6,28.5-15.3C491,591.2,509.2,584.7,512,584.7 M512.1,352.2c0.7,0,8.8,0.2,20.6,4.2c12.4,4.2,25.9,9.5,32.1,9.5
		s52.3-9,52.3-9s54.6,67.2,54.6,81.6c0,14.4-6.9,18.2-13.8,25.6c-6.9,7.5-37.1,40.1-40.9,44.3c-3.9,4.2-11.9,10.5-7.2,22
		c4.7,11.4,11.7,26,4,40.7c-7.8,14.8-21.1,24.6-29.7,23c-8.5-1.6-28.6-12.3-36-17.2c-7.4-4.9-30.8-24.5-30.8-32
		c0-7.5,24.2-21,28.6-24.1c4.5-3.1,24.8-14.9,25.2-19.6c0.4-4.7,0.3-6-5.8-17.5c-6-11.5-16.8-26.9-15-37.1
		c1.8-10.2,19.3-15.5,31.7-20.3c12.4-4.8,36.4-13.8,39.4-15.2c3-1.4,2.2-2.7-6.8-3.6c-9.1-0.9-34.8-4.4-46.4-1.1
		c-11.6,3.3-31.4,8.3-33.1,11c-1.6,2.7-3,2.7-1.4,11.9c1.7,9.2,10.1,53.2,11,61c0.8,7.8,2.4,13-5.8,14.9c-8.3,1.9-22.2,5.3-27,5.3
		c-4.8,0-18.7-3.4-27-5.3c-8.3-1.9-6.7-7.1-5.8-14.9c0.8-7.8,9.3-51.9,11-61c1.6-9.2,0.2-9.3-1.4-11.9c-1.6-2.7-21.4-7.7-33.1-11
		c-11.6-3.3-37.4,0.2-46.4,1.1c-9.1,0.9-9.8,2.2-6.8,3.6c3,1.4,27,10.5,39.4,15.2c12.5,4.8,29.9,10.1,31.7,20.3s-9,25.6-15,37.1
		c-6,11.5-6.2,12.9-5.8,17.5s20.8,16.5,25.2,19.6c4.5,3.1,28.6,16.6,28.6,24.1c0,7.5-23.4,27.2-30.8,32c-7.4,4.9-27.4,15.6-36,17.2
		c-8.5,1.6-21.9-8.2-29.7-23c-7.8-14.8-0.8-29.3,4-40.7s-3.3-17.8-7.2-22c-3.9-4.2-34-36.8-40.9-44.3c-6.9-7.5-13.8-11.3-13.8-25.6
		c0-14.4,54.6-81.6,54.6-81.6s46.1,9,52.3,9c6.2,0,19.7-5.3,32.1-9.5C503.7,352.2,512,352.2,512.1,352.2L512.1,352.2z"/>
</g>
</svg>
