<?xml version="1.0" encoding="utf-8"?>
<!-- Generator: Adobe Illustrator 21.0.0, SVG Export Plug-In . SVG Version: 6.00 Build 0)  -->
<svg version="1.1" xmlns="http://www.w3.org/2000/svg" xmlns:xlink="http://www.w3.org/1999/xlink" x="0px" y="0px"
	 viewBox="0 0 1024 1024" style="enable-background:new 0 0 1024 1024;" xml:space="preserve">
<style type="text/css">
	.st0{fill:#FB542B;}
	.st1{fill:#FFFFFF;}
</style>
<g id="Guides">
</g>
<g id="Icon">
	<circle class="st0" cx="512" cy="512" r="512"/>
	<path class="st1" d="M711.5,392.7l11.8-29.5c0,0-15-16.4-33.2-35c-18.2-18.6-56.8-7.6-56.8-7.6l-44-50.8H512h-77.2l-44,50.8
		c0,0-38.6-10.9-56.8,7.6c-18.2,18.6-33.2,35-33.2,35l11.8,29.5l-15,43.7c0,0,44.2,170.4,49.3,191.2c10.2,41,17.2,56.8,46.1,77.6
		c29,20.8,81.5,56.8,90.1,62.3c8.6,5.5,19.3,14.8,29,14.8s20.4-9.3,29-14.8c8.6-5.5,61.1-41.5,90.1-62.3
		c29-20.8,35.9-36.6,46.1-77.6c5.2-20.8,49.3-191.2,49.3-191.2L711.5,392.7z M576.6,628c-3.2,2.3-46,36.1-50.2,39.8
		c-4.2,3.7-10.3,9.9-14.4,9.9s-10.3-6.2-14.4-9.9c-4.2-3.7-47-37.5-50.2-39.8c-3.2-2.3-5.3-6.5-1.8-8.7c3.5-2.2,14.5-7.9,29.6-15.8
		c15.1-8,34-14.7,36.9-14.7c2.9,0,21.8,6.8,36.9,14.7c15.1,8,26.1,13.6,29.6,15.8C582,621.5,579.8,625.7,576.6,628z M663.1,463.9
		c-7.2,7.7-38.4,41.5-42.4,45.9c-4,4.4-12.4,10.9-7.5,22.8c4.9,11.8,12.2,26.9,4.1,42.2c-8.1,15.3-21.9,25.5-30.7,23.8
		c-8.9-1.7-29.6-12.8-37.3-17.8c-7.6-5.1-31.9-25.4-31.9-33.2c0-7.8,25-21.8,29.7-24.9c4.6-3.2,25.7-15.5,26.2-20.3
		c0.4-4.8,0.3-6.2-6-18.2c-6.2-11.9-17.4-27.8-15.6-38.4c1.9-10.6,19.9-16.1,32.9-21.1c12.9-5,37.8-14.3,40.9-15.8
		c3.1-1.5,2.3-2.8-7.1-3.7c-9.4-0.9-36.1-4.5-48.1-1.1c-12,3.4-32.6,8.6-34.2,11.4c-1.7,2.8-3.1,2.8-1.4,12.4
		c1.7,9.5,10.5,55.1,11.4,63.2c0.9,8.1,2.5,13.5-6.1,15.5c-8.6,2-23,5.5-28,5.5c-5,0-19.4-3.5-28-5.5c-8.6-2-6.9-7.4-6-15.5
		c0.9-8.1,9.7-53.7,11.4-63.2c1.7-9.5,0.2-9.6-1.4-12.4c-1.7-2.8-22.2-8-34.2-11.4c-12-3.4-38.7,0.2-48.1,1.1
		c-9.4,0.9-10.2,2.3-7.1,3.7c3.1,1.5,27.9,10.8,40.9,15.8c12.9,5,31,10.5,32.9,21.1c1.9,10.6-9.4,26.5-15.6,38.4
		c-6.2,11.9-6.4,13.3-6,18.2c0.4,4.8,21.5,17.1,26.2,20.3c4.6,3.2,29.7,17.2,29.7,24.9c0,7.8-24.2,28.1-31.9,33.2
		c-7.6,5.1-28.4,16.1-37.3,17.8c-8.8,1.7-22.7-8.5-30.7-23.8c-8.1-15.3-0.8-30.4,4.1-42.2c4.9-11.8-3.4-18.4-7.4-22.8
		c-4-4.3-35.3-38.1-42.4-45.9c-7.2-7.7-14.3-11.7-14.3-26.6c0-14.9,56.6-84.5,56.6-84.5s47.7,9.3,54.2,9.3c6.4,0,20.4-5.5,33.2-9.8
		c11.6-4,19.8-4.4,21.2-4.4h0.5c1.4,0,9.6,0.4,21.2,4.4c12.9,4.4,26.8,9.8,33.2,9.8c6.4,0,54.2-9.3,54.2-9.3s56.6,69.7,56.6,84.5
		C677.4,452.2,670.3,456.2,663.1,463.9z"/>
</g>
</svg>
