<svg xmlns="http://www.w3.org/2000/svg" viewBox="0 0 1024 1024">
   <circle cx="512" cy="512" r="512" style="fill:#00317a"/>
   <path d="M306.79 302.43c-37 0-61.52 41.12-46.13 72.45l100.57 204.8V302.43Zm107.06 0v265.08c3 97.92 85.7 176 183 174h.61c97-2.27 173.39-83.37 170.44-181.08a178.85 178.85 0 0 0-55.46-124.52 176.64 176.64 0 0 0-126.33-49.51h-.64a172.63 172.63 0 0 0-89.72 27.51V302.43Zm183 169.1a90.65 90.65 0 0 1 56.7 23.15 91.73 91.73 0 0 1 30.71 62.89c3.29 50.15-34.42 93.19-84.17 96.12h-.31a90.63 90.63 0 0 1-65.71-23.09 91.91 91.91 0 0 1-30.73-62.92 90.08 90.08 0 0 1 22.28-65.89 88.71 88.71 0 0 1 61.88-30.21h.34q4.53-.26 9-.07Z" style="fill:#fff"/>
</svg>
