<?xml version="1.0" encoding="utf-8"?>
<!-- Generator: Adobe Illustrator 21.0.0, SVG Export Plug-In . SVG Version: 6.00 Build 0)  -->
<svg version="1.1" xmlns="http://www.w3.org/2000/svg" xmlns:xlink="http://www.w3.org/1999/xlink" x="0px" y="0px"
	 viewBox="0 0 1024 1024" style="enable-background:new 0 0 1024 1024;" xml:space="preserve">
<style type="text/css">
	.st0{fill:#142051;}
	.st1{fill:#FFFFFF;}
</style>
<g id="Min_Guides__x28_DO_NOT_REMOVE_x29_">
</g>
<g id="Max_Guides__x28_DO_NOT_REMOVE_x29_">
</g>
<g id="Icon">
	<circle id="Background" class="st0" cx="512" cy="512" r="512"/>
	<path id="Bugzilla_logo__x28_monochrome_version_by_krisu_x29_" class="st1" d="M538.9,761.6c0,2.2,0,4.3,0,6.3H347.3
		c0-2.1,0.1-4.2,0.2-6.3h0c1.2-21,7-39.7,17.3-55.8c13-20.3,33.5-37,61-49.7c7.7,5.3,16.6,9.1,26,11c4,0.8,8.1,1.3,12.1,1.3
		c11,0,21-3.1,29.3-9c19.1,14.6,31.8,31.9,38.7,52.7C537.7,729.1,538.8,745.7,538.9,761.6L538.9,761.6z M491.7,646.3
		c-7.1,7.1-16.5,10.9-27.1,10.9c-15.8,0-32.1-8.5-40-16.8l-1.3-1.4l0-2c0-2.8-0.1-5.6-0.1-8.4c-110.8,5.5-120.7,116.8-121.5,139.3
		h39.4c0.6-44.7,20.3-90.4,85.7-119.1c7,5.4,16.2,10,26.6,12.1c3.5,0.7,7.1,1.1,10.8,1.1c10,0,20.6-3,29.2-10.6
		c50.1,35.9,52.1,81.8,52.1,116.4h7c0.4-20.9-2.4-94.3-59.2-125.4l0.3,2.1L491.7,646.3z M643.3,434.7c0-0.3,0-0.6,0-0.9
		c-7.9-36.9-33.7-79.1-43.3-80c-10.6,0.7-17.2,5.5-23.4,11.4c0,0,0,0,0,0c0.7,0.8,1.4,1.6,2,2.4c0.7,0.9,1.4,1.7,2.1,2.6
		c1.7,2.1,3.3,4.4,4.9,6.8c0.8,1.2,1.6,2.4,2.4,3.7c1.6,2.5,3.2,5.2,4.7,8c0.8,1.4,1.5,2.8,2.3,4.3c1.5,2.9,3,6,4.4,9.2
		c1.4,3.2,2.9,6.5,4.2,10c1.4,3.5,2.7,7.1,4,10.8c1.3,3.7,2.5,7.6,3.7,11.6c1.2,4,2.3,8.2,3.4,12.4c-1.5-4.1-3-8.2-4.6-12
		c-1.5-3.9-3.1-7.6-4.7-11.2c-1.6-3.6-3.2-7-4.8-10.4c-1.6-3.3-3.2-6.5-4.9-9.5c-1.6-3-3.3-6-4.9-8.8c-1.6-2.8-3.3-5.5-4.9-8
		c-1.6-2.5-3.3-4.9-4.9-7.2c-1.6-2.3-3.2-4.5-4.8-6.5s-3.2-4-4.8-5.8s-3.2-3.5-4.8-5c-1.6-1.6-3.2-3-4.8-4.3
		c-1.6-1.3-3.3-2.5-4.9-3.6c-1.6-1.1-3.3-2.1-4.9-2.9c-1.7-0.9-3.3-1.6-5-2.3s-3.3-1.2-5-1.6c-1.7-0.4-3.4-0.8-5.1-1
		c-1.7-0.2-3.4-0.4-5.2-0.4c-1.7,0-3.5,0-5.2,0.1c-1.8,0.1-3.5,0.4-5.3,0.7c-1.8,0.3-3.6,0.8-5.4,1.3s-3.6,1.1-5.5,1.9
		c-1.8,0.7-3.7,1.5-5.6,2.4c-1.9,0.9-3.7,1.9-5.6,3c-1.9,1.1-3.8,2.2-5.7,3.5c-1.9,1.3-3.8,2.6-5.8,4.1c-2,1.5-3.9,3-5.9,4.6
		c-2,1.6-4,3.3-6.1,5.1c-2,1.8-4.1,3.6-6.2,5.5c-2.1,1.9-4.2,3.9-6.3,5.9c-2.1,2-4.2,4.1-6.4,6.2c-2.1,2.1-4.3,4.2-6.5,6.4
		c-2.2,2.2-4.4,4.4-6.6,6.6c0.6-0.9,1.3-1.8,1.9-2.7c0.1-0.1,0.2-0.3,0.3-0.4c0.6-0.9,1.3-1.8,2-2.7c0.1-0.1,0.1-0.2,0.2-0.3
		c0.1-0.1,0.2-0.2,0.2-0.3c0.7-0.9,1.4-1.8,2.1-2.8c0.1-0.2,0.3-0.4,0.4-0.5c0.7-0.9,1.4-1.8,2.1-2.7c0.1-0.1,0.2-0.2,0.2-0.3
		c0,0,0.1-0.1,0.1-0.1c0.7-0.9,1.5-1.8,2.3-2.8c0.2-0.3,0.4-0.5,0.7-0.8c0.8-0.9,1.5-1.8,2.3-2.7c0.1-0.1,0.2-0.3,0.4-0.4
		c0.1-0.2,0.3-0.3,0.4-0.5c0.8-0.9,1.6-1.8,2.4-2.7c0.2-0.3,0.5-0.5,0.7-0.8c0.7-0.8,1.4-1.5,2.1-2.3c0.2-0.2,0.3-0.4,0.5-0.6
		c0.1-0.1,0.2-0.2,0.3-0.3c0.8-0.8,1.6-1.6,2.3-2.5c0.3-0.3,0.6-0.6,0.9-0.9c0.1-0.1,0.2-0.2,0.3-0.3c-62.4,8.7-73.2,63.6-67.8,83.7
		c18,63.8,26.4,107.1,27,179.9c10.9,11.5,41.2,24.5,59.9,5.8c-4.4-33.1,15.7-48.2,49.9-51.6c-19.2-11.9-41.1-12.3-63.8-10.4
		c-4.7,0.4-1.7-4.5,1-4.5c24.9-2.5,49-1.3,70.8,12.6l-0.5,0.8l-0.7,0.9c8.8-0.5,18.3-0.3,28.5,0.4c65.1,4.8,149.2-10.6,149.2-72.5
		C718.4,487.9,689.6,463.4,643.3,434.7z M503.8,476.9c-4.8-4.8-32.4-90.7,14.9-104.2c30.3-8.6,66.7,58,66.7,85.8
		C585.4,486.3,528.7,499.6,503.8,476.9z M533.8,378.6c-11.6-2.2-23.3,9.4-26.3,25.9c-2.9,16.5,4.1,31.6,15.7,33.8
		s23.3-9.4,26.3-25.9C552.4,395.9,545.3,380.7,533.8,378.6z M529.5,427.4c-1.8,0.6-4.1-0.1-5.2-1.6c-1.1-1.5-0.4-3.3,1.4-3.9
		c1.8-0.6,4.1,0.1,5.2,1.6C531.9,425,531.3,426.8,529.5,427.4z M532.5,401.1C532.5,401.1,532.5,401.1,532.5,401.1
		c-2.6,5.4-7.3,8.5-10.5,7c-3.2-1.5-3.7-7.2-1.1-12.5c0,0,0,0,0,0c2.6-5.4,7.3-8.5,10.5-6.9C534.6,390.1,535.1,395.7,532.5,401.1z
		 M647.2,255.7c-1.3,0-2.6,0.3-3.7,0.9c-13.8-11-34.3-12-58.7-2.4c-23.1,9-48.6,27.2-68.3,48.6c-18.2,19.7-29.2,39.6-31,55.7
		c1.8-1.4,3.5-2.6,5.2-3.7c0.3-0.2,0.6-0.4,0.9-0.6c7.5-32.6,51.8-78.1,95.2-95.1c16.2-6.3,37.7-10.7,53,1.2
		c-0.6,1.1-0.9,2.4-0.9,3.7c0,4.6,3.7,8.3,8.3,8.3c4.6,0,8.3-3.7,8.3-8.3C655.5,259.4,651.8,255.7,647.2,255.7z M486,165.5
		c-6-11.8-13.5-20.1-21.9-24.2c0-0.2,0-0.5,0-0.7c0-4.6-3.7-8.3-8.3-8.3c-4.6,0-8.3,3.7-8.3,8.3c0,4.6,3.7,8.3,8.3,8.3
		c2.4,0,4.6-1.1,6.2-2.7c7.3,3.6,13.9,11,19.3,21.8c18.8,37.1,23.9,115.7-8.5,201.8c1.8-1.7,3.6-3.4,5.4-5.1c1-0.9,2-1.8,3-2.6
		C510.3,278.1,504.6,202.2,486,165.5z"/>
</g>
</svg>
