<svg xmlns="http://www.w3.org/2000/svg" viewBox="0 0 1024 1024">
   <circle cx="512" cy="512" r="512" style="fill:#2d87c3"/>
   <path d="M509.39 256.67 282.71 381.55a5.41 5.41 0 0 0 .07 9.52l121.15 64.42a5.41 5.41 0 0 0 5.24-.09l100.14-57.53a5.41 5.41 0 0 1 5.4 0L614.8 455.4a5.42 5.42 0 0 0 5.24.09l121.21-64.44a5.41 5.41 0 0 0 .07-9.52L514.61 256.67a5.41 5.41 0 0 0-5.22 0ZM403.71 488.49 281.9 423.73a5.41 5.41 0 0 0-8 4.78v216.84a5.41 5.41 0 0 0 2.8 4.74l212.87 117.23a5.41 5.41 0 0 0 8-4.74V633.45a5.42 5.42 0 0 0-2.72-4.69l-85.55-49.19a5.41 5.41 0 0 1-2.72-4.69v-81.61a5.41 5.41 0 0 0-2.87-4.78Zm216.59 0 121.8-64.76a5.41 5.41 0 0 1 8 4.78v216.84a5.41 5.41 0 0 1-2.8 4.74L534.43 767.32a5.41 5.41 0 0 1-8-4.74V633.45a5.41 5.41 0 0 1 2.72-4.69l85.58-49.18a5.41 5.41 0 0 0 2.72-4.69v-81.62a5.41 5.41 0 0 1 2.84-4.78Z" style="fill:#fff"/>
</svg>
