<?xml version="1.0" encoding="UTF-8" standalone="no"?><svg xmlns="http://www.w3.org/2000/svg" xmlns:xlink="http://www.w3.org/1999/xlink" viewBox="1684 38.71 1024 1024" width="1024pt" height="1024pt"><circle vector-effect="non-scaling-stroke" cx="2196" cy="550.71" r="512" fill="rgb(3,25,47)"/><clipPath id="_clipPath_6XDoRoc5bGvC1mXYs8xr8frciYT8Zd8w"><circle vector-effect="non-scaling-stroke" cx="2196" cy="550.71" r="512" fill="rgb(3,25,47)"/></clipPath><g clip-path="url(#_clipPath_6XDoRoc5bGvC1mXYs8xr8frciYT8Zd8w)"><g><g><linearGradient id="_lgradient_0" x1="-0.339398263565855" y1="0.5004095004095004" x2="1.5369057233409495" y2="0.5004095004095004" gradientTransform="matrix(140.431,0,0,163.81,2214.389,264.21)" gradientUnits="userSpaceOnUse"><stop offset="0%" stop-opacity="1" style="stop-color:rgb(251,170,25)"/><stop offset="100%" stop-opacity="1" style="stop-color:rgb(239,62,35)"/></linearGradient><path d=" M 2222.404 356.11 L 2354.82 428.02 L 2232.466 264.21 C 2212.69 290.75 2208.839 325.919 2222.404 356.11 Z " fill-rule="evenodd" fill="url(#_lgradient_0)"/><linearGradient id="_lgradient_1" x1="0.32890864550153465" y1="0.9666664870696948" x2="0.6711308085417738" y2="0.03111109330384587" gradientTransform="matrix(60.372,0,0,60.372,2132.381,622.821)" gradientUnits="userSpaceOnUse"><stop offset="0%" stop-opacity="1" style="stop-color:rgb(247,141,30)"/><stop offset="100%" stop-opacity="1" style="stop-color:rgb(243,113,33)"/></linearGradient><path d=" M 2162.568 622.821 C 2179.204 622.822 2192.704 636.283 2192.753 652.919 C 2192.802 669.555 2179.381 683.095 2162.745 683.193 C 2146.11 683.291 2132.53 669.911 2132.382 653.276 C 2132.31 645.224 2135.459 637.476 2141.128 631.757 C 2146.797 626.038 2154.516 622.821 2162.568 622.821 L 2162.568 622.821 Z " fill-rule="evenodd" fill="url(#_lgradient_1)"/><linearGradient id="_lgradient_2" x1="-0.01143230772800527" y1="0.75177304964539" x2="0.6305154741489448" y2="0.0636844326314423" gradientTransform="matrix(457.673,0,0,548.583,1993.66,288.225)" gradientUnits="userSpaceOnUse"><stop offset="0%" stop-opacity="1" style="stop-color:rgb(254,190,45)"/><stop offset="100%" stop-opacity="1" style="stop-color:rgb(240,78,35)"/></linearGradient><path d=" M 2070.4 288.225 L 2441.22 489.466 C 2447.407 492.475 2451.333 498.752 2451.333 505.632 C 2451.333 512.512 2447.407 518.789 2441.22 521.798 C 2413.174 538.675 2382.46 550.652 2350.393 557.217 L 2273.251 715.526 C 2273.251 715.526 2248.833 771.069 2181.619 749.737 C 2209.793 721.564 2243.87 696.073 2243.87 652.739 C 2243.87 607.764 2207.41 571.304 2162.434 571.304 C 2117.458 571.304 2080.999 607.764 2080.999 652.739 C 2080.999 709.355 2136.809 733.236 2167.8 772.545 C 2181.758 792.303 2179.909 819.15 2163.373 836.808 C 2124.869 798.706 2050.41 734.443 2019.821 692.317 C 2003.098 671.078 1993.896 644.889 1993.66 617.857 C 1996.67 558.933 2036.249 508.198 2092.671 490.941 C 2109.563 486.021 2127.146 483.891 2144.725 484.636 C 2169.236 486.493 2193.045 493.681 2214.488 505.699 C 2247.358 525.018 2263.323 519.92 2285.996 500.869 C 2299.412 489.868 2314.036 454.047 2291.362 445.729 C 2283.949 443.311 2276.372 441.428 2268.689 440.095 C 2226.563 431.911 2152.909 424.129 2125.808 408.701 C 2082.743 384.955 2053.764 335.986 2070.4 288.225 Z " fill-rule="evenodd" fill="url(#_lgradient_2)"/><linearGradient id="_lgradient_3" x1="0.8809443853210316" y1="0.032135292292998385" x2="0.30676341367940385" y2="0.9159576640495223" gradientTransform="matrix(252.043,0,0,348.894,1993.257,488.316)" gradientUnits="userSpaceOnUse"><stop offset="0%" stop-opacity="1" style="stop-color:rgb(234,68,37)"/><stop offset="100%" stop-opacity="1" style="stop-color:rgb(253,187,39)"/></linearGradient><path d=" M 2243.199 657.971 M 2243.199 653.142 C 2260.371 562.852 2168.74 476.72 2098.439 489.6 L 2103.135 488.527 Q 2097.5 489.734 2092.268 491.344 C 2035.847 508.601 1996.267 559.335 1993.257 618.26 C 1993.685 645.371 2003.125 671.567 2020.09 692.719 C 2050.678 734.845 2125.137 799.108 2163.641 837.21 C 2180.177 819.553 2182.027 792.705 2168.069 772.947 C 2136.407 733.772 2080.596 709.757 2080.596 653.276 C 2080.596 608.3 2117.056 571.84 2162.032 571.84 C 2207.007 571.84 2243.467 608.3 2243.467 653.276 L 2243.199 653.142 Z " fill-rule="evenodd" fill="url(#_lgradient_3)"/><linearGradient id="_lgradient_4" x1="-0.40127177826977806" y1="0.49989319837524765" x2="1.4470811859306638" y2="0.49989319837524765" gradientTransform="matrix(303.401,0,0,235.636,2065.632,288.225)" gradientUnits="userSpaceOnUse"><stop offset="0%" stop-opacity="1" style="stop-color:rgb(244,121,32)"/><stop offset="100%" stop-opacity="1" style="stop-color:rgb(233,56,37)"/></linearGradient><path d=" M 2070.4 288.225 L 2352.137 441.704 L 2352.137 441.704 L 2360.187 446.132 C 2366.895 451.364 2373.603 461.829 2364.882 481.148 C 2351.466 509.992 2297.802 537.898 2235.954 516.029 C 2255.273 521.664 2268.421 515.225 2285.325 501.003 C 2298.741 490.002 2313.365 454.181 2290.692 445.863 C 2283.279 443.445 2275.701 441.562 2268.018 440.229 C 2225.892 432.045 2152.238 424.264 2125.137 408.835 C 2082.743 384.955 2053.764 335.986 2070.4 288.225 Z " fill-rule="evenodd" fill="url(#_lgradient_4)"/><linearGradient id="_lgradient_5" x1="-1.4322727272727274" y1="0.49916666666666676" x2="2.4336363636363636" y2="0.49916666666666676" gradientTransform="matrix(295.153,0,0,160.993,2070.4,288.225)" gradientUnits="userSpaceOnUse"><stop offset="0%" stop-opacity="1" style="stop-color:rgb(253,202,11)"/><stop offset="100%" stop-opacity="1" style="stop-color:rgb(245,132,31)"/></linearGradient><path d=" M 2070.4 288.225 C 2099.513 395.553 2276.739 404.408 2365.553 449.217 L 2070.4 288.225 Z " fill-rule="evenodd" fill="url(#_lgradient_5)"/><linearGradient id="_lgradient_6" x1="0.14491153915384103" y1="-0.2501268391679331" x2="0.633754676799044" y2="1.4550243087538117" gradientTransform="matrix(142.576,0,0,264.431,2034.579,572.779)" gradientUnits="userSpaceOnUse"><stop offset="0%" stop-opacity="1" style="stop-color:rgb(231,60,37)"/><stop offset="100%" stop-opacity="1" style="stop-color:rgb(250,162,27)"/></linearGradient><path d=" M 2167.398 772.947 C 2136.407 733.772 2080.596 709.757 2080.596 653.276 C 2080.755 612.311 2111.318 577.841 2151.97 572.779 C 2087.228 573 2034.8 625.429 2034.579 690.17 C 2034.564 698.103 2035.374 706.016 2036.994 713.782 C 2062.619 742.761 2099.647 776.972 2130.906 805.951 C 2143.115 817.354 2154.384 828.087 2163.641 837.21 C 2171.345 828.285 2176.039 817.159 2177.058 805.414 L 2177.058 805.414 C 2177.791 793.788 2174.367 782.281 2167.398 772.947 Z " fill-rule="evenodd" fill="url(#_lgradient_6)"/><linearGradient id="_lgradient_7" x1="-5.629938638467657" y1="0.49997981587546914" x2="5.6290468376378655" y2="0.49997981587546914" gradientTransform="matrix(150.438,0,0,177.89,2098.439,484.911)" gradientUnits="userSpaceOnUse"><stop offset="0%" stop-opacity="1" style="stop-color:rgb(253,186,18)"/><stop offset="100%" stop-opacity="1" style="stop-color:rgb(247,146,30)"/></linearGradient><path d=" M 2242.796 662.801 C 2243.22 659.598 2243.444 656.372 2243.467 653.142 C 2260.371 562.852 2168.74 476.72 2098.439 489.6 C 2113.45 485.972 2128.891 484.437 2144.322 485.038 C 2236.491 488.795 2262.25 587.269 2242.796 662.801 Z " fill-rule="evenodd" fill="url(#_lgradient_7)"/><linearGradient id="_lgradient_8" x1="0" y1="0.5" x2="0.9845277117775955" y2="0.6752289494974276" gradientTransform="matrix(60.641,0,0,60.775,1940.667,463.304)" gradientUnits="userSpaceOnUse"><stop offset="100%" stop-opacity="1" style="stop-color:rgb(254,190,45)"/><stop offset="100%" stop-opacity="1" style="stop-color:rgb(251,166,43)"/></linearGradient><path d=" M 1970.987 463.304 L 1970.987 463.304 C 1987.754 463.378 2001.307 476.992 2001.307 493.759 L 2001.307 524.079 L 1970.987 524.079 C 1954.241 524.079 1940.667 510.504 1940.667 493.759 L 1940.667 493.759 C 1940.666 476.992 1954.22 463.378 1970.987 463.304 L 1970.987 463.304 Z " fill-rule="evenodd" fill="url(#_lgradient_8)"/></g></g></g></svg>
