<svg xmlns="http://www.w3.org/2000/svg" viewBox="0 0 1024 1024">
   <circle cx="512" cy="512" r="512" style="fill:#f37121"/>
   <path d="M536.44 332.06 659 398.62 545.75 247a84.44 84.44 0 0 0-9.31 85.06Zm-55.39 246.87a27.94 27.94 0 1 1-.24 0Zm-85.31-309.7L739 455.5a16.64 16.64 0 0 1 0 29.93 266.85 266.85 0 0 1-84.07 32.78L583.5 664.74s-22.6 51.41-84.82 31.67c26.08-26.08 57.62-49.67 57.62-89.78a75.38 75.38 0 0 0-150.75 0c0 52.4 51.66 74.51 80.34 110.89A47.19 47.19 0 0 1 481.8 777c-35.64-35.27-104.56-94.75-132.87-133.74a113 113 0 0 1-24.21-68.92 129.77 129.77 0 0 1 91.64-117.47 149.65 149.65 0 0 1 48.18-5.87 156.21 156.21 0 0 1 64.57 19.5c30.42 17.88 45.2 13.16 66.19-4.47 12.42-10.18 26-43.34 5-51a150.81 150.81 0 0 0-21-5.21c-39-7.58-107.17-14.78-132.25-29.06-39.86-22-66.68-67.31-51.29-111.51Zm-92 162.05a28.19 28.19 0 0 1 28.06 28.19v28.06h-28.08a28.13 28.13 0 0 1 0-56.25Z" style="fill:#fff"/>
</svg>
