<svg xmlns="http://www.w3.org/2000/svg" viewBox="1684 38.71 1024 1024" width="1024pt" height="1024pt">
  <circle vector-effect="non-scaling-stroke" cx="2196" cy="550.71" r="512" fill="#F37121"/>
  <path d="m2222.404 356.11 132.416 71.91-122.354-163.81a91.228 91.228 0 0 0-10.062 91.9Zm-59.836 266.711c16.637.001 30.136 13.462 30.185 30.098.049 16.636-13.371 30.176-30.007 30.274-16.636.098-30.216-13.282-30.364-29.917a30.189 30.189 0 0 1 30.186-30.455ZM2070.4 288.225l370.82 201.241a17.976 17.976 0 0 1 0 32.332 288.301 288.301 0 0 1-90.827 35.419l-77.142 158.309s-24.418 55.543-91.632 34.211c28.174-28.173 62.251-53.664 62.251-96.998 0-44.975-36.46-81.435-81.436-81.435-44.976 0-81.435 36.46-81.435 81.435 0 56.616 55.81 80.497 86.802 119.806 13.958 19.758 12.108 46.605-4.428 64.262-38.504-38.101-112.963-102.364-143.552-144.49a122.087 122.087 0 0 1-26.161-74.46c3.01-58.924 42.589-109.659 99.01-126.916a161.678 161.678 0 0 1 52.055-6.305 168.766 168.766 0 0 1 69.763 21.063c32.87 19.319 48.835 14.221 71.508-4.83 13.416-11.001 28.04-46.822 5.366-55.14a162.93 162.93 0 0 0-22.673-5.634c-42.126-8.184-115.78-15.966-142.881-31.394-43.065-23.746-72.044-72.715-55.408-120.476Zm-99.413 175.079c16.767.074 30.32 13.688 30.32 30.455v30.32h-30.32c-16.746 0-30.32-13.575-30.32-30.32-.001-16.767 13.553-30.381 30.32-30.455Z" fill-rule="evenodd" fill="#FFF"/>
</svg>
