<?xml version="1.0" encoding="utf-8"?>
<!-- Generator: Adobe Illustrator 21.0.0, SVG Export Plug-In . SVG Version: 6.00 Build 0)  -->
<svg version="1.1" xmlns="http://www.w3.org/2000/svg" xmlns:xlink="http://www.w3.org/1999/xlink" x="0px" y="0px"
	 viewBox="0 0 1024 1024" style="enable-background:new 0 0 1024 1024;" xml:space="preserve">
<style type="text/css">
	.st0{fill:#FFB11A;}
	.st1{fill:#FFFFFF;}
</style>
<g id="Min_Guides__x28_DO_NOT_REMOVE_x29_">
</g>
<g id="Max_Guides__x28_DO_NOT_REMOVE_x29_">
</g>
<g id="Icon">
	<circle id="Background" class="st0" cx="512" cy="512" r="512"/>
	<path class="st1" d="M584.7,462.5h-1.2c-10.1,0.1-20,2.9-28.7,8.1v-67.4h-27.4v118.5c0,32.4,25.6,59.2,57.4,59.2
		c31.8,0,57.4-26.8,57.4-59.2C642,488.7,617.1,462.5,584.7,462.5z M583.4,551c-15.8-0.3-28.7-13.5-28.7-29.3
		c0-16.2,12.5-29.9,28.7-29.9c16.2,0,28.7,13.7,28.7,29.9C612.1,537.9,599.6,551,583.4,551z M314,462.5c-10.3,0-20.5,2.8-29.3,8.1
		v-67.4H256v118.5c0,32.4,26.2,59.2,58,59.2c31.2,0,57.4-26.8,57.4-59.2C371.4,488.7,345.8,462.5,314,462.5z M314,551
		c-16.1,0-29.3-13.2-29.3-29.3c0-16.2,13.1-29.9,29.3-29.9c15.6,0,28.7,13.7,28.7,29.9C342.7,537.9,329.6,551,314,551z M676.3,447.5
		c3.7,0,7.5-1.2,10-4.4c3.1-2.5,4.4-6.2,4.4-10.6c0-3.7-1.2-7.5-4.4-10c-2.5-3.1-6.2-4.4-10-4.4c-3.7,0-7.5,1.2-10,4.4
		c-3.1,2.5-4.4,6.2-4.4,10C662,441.3,668.2,447.5,676.3,447.5 M506.1,581.6c0,32.4-26.2,59.2-57.4,59.2v-29.9
		c16.2,0,28.7-13.1,28.7-29.3v-8.1c-17.7,10.5-39.7,10.5-57.4,0c-17.8-10.9-28.7-30.3-28.7-51.1v-59.2H420v59.2
		c0,13.1,8.7,24.9,21.2,28.7c2.2,0.5,4.5,0.8,6.9,0.8c16.1,0,29.3-13.2,29.3-29.3c0-0.1,0-0.1,0-0.2v-59.2h28.7V581.6z M753.7,402.6
		v59.2H768v29.9h-14.3v88.6h-28.1v-88.6h-14.3v-29.9h14.3v-59.2H753.7z M659.5,460.6h28.7v118.5h-28.7V460.6z"/>
</g>
</svg>
