<svg xmlns="http://www.w3.org/2000/svg" viewBox="0 0 1024 1024">
   <circle cx="512" cy="512" r="512" style="fill:#5b10ff"/>
   <path d="M512 256c141.15 0 256 114.85 256 256S653.15 768 512 768a255.16 255.16 0 0 1-182.25-76.46c-9.3-9.46-5.87-21.41 6.62-25.78l28.06-9.82c8.32-2.91 20.26-.27 27.1 5.3A190.79 190.79 0 0 0 512 704c105.87 0 192-86.11 192-192s-86.12-192-192-192a190.74 190.74 0 0 0-120.46 42.78c-6.85 5.55-18.77 8.21-27.1 5.28l-28-9.81c-12.51-4.37-15.94-16.34-6.64-25.78A255 255 0 0 1 512 256ZM308.8 412.59l197.77 69.21a32 32 0 0 1 0 60.41l-197.77 69.2a32 32 0 0 1-41.2-21 271.41 271.41 0 0 1 0-156.89 32 32 0 0 1 41.22-21Z" style="fill:#fff"/>
</svg>
