<svg xmlns="http://www.w3.org/2000/svg" viewBox="0 0 1024 1024">
   <circle cx="512" cy="512" r="512" style="fill:#0396fd"/>
   <path d="M471.11 250h84.09a10.2 10.2 0 0 1 5.87 5.14q20 34.73 40.07 69.43a8.86 8.86 0 0 1-.26 9.29c-13.53 23.35-26.95 46.78-40.53 70.12-1.82 3.44-6 4.43-9.56 4.21q-39.45-.28-78.9-.25a8.41 8.41 0 0 1-7.84-4.6q-20.05-34.77-40.16-69.57a8.44 8.44 0 0 1-.14-9.31q20.19-35 40.42-70a8.43 8.43 0 0 1 6.94-4.46zM464 620.7q-20.1 34.74-40.15 69.53a8.47 8.47 0 0 0-.15 9.28c13.18 22.91 26.47 45.78 39.64 68.7 1.44 3.09 4.23 5.68 7.8 5.78h84.16a10.17 10.17 0 0 0 5.32-4.45q20.28-35 40.47-70.06a8.91 8.91 0 0 0-.24-9.38c-13.52-23.32-26.92-46.71-40.47-70-1.8-3.47-5.93-4.51-9.54-4.28-26.28.17-52.56.3-78.86.24a8.42 8.42 0 0 0-7.98 4.64zm-22.34-207.27L401.58 344c-1.39-2.71-4.14-5.13-7.34-5h-23.67c-19.44.1-38.87 0-58.31.05a8.28 8.28 0 0 0-7.58 4.57l-40.52 70.22a8.35 8.35 0 0 0 .31 8.87q20.2 35 40.43 70a8.3 8.3 0 0 0 7.45 4.26c19.13.11 38.26-.12 57.37.12 7.49.35 15 0 22.48.15 3.37.13 7.05-1.06 8.75-4.18q20.46-35.26 40.79-70.59a8.45 8.45 0 0 0-.08-9.04zM441 605.77q-20 34.82-40.12 69.55a8.76 8.76 0 0 1-7.79 5c-7.53.13-15.08 0-22.61 0-19.69-.48-39.41 0-59.11-.24a8.24 8.24 0 0 1-7.14-4.29q-20.25-35-40.43-70a8.47 8.47 0 0 1 0-9.28q20-34.71 40.1-69.43a8.34 8.34 0 0 1 7.47-4.87c15.84-.09 31.67 0 47.51 0h11.58c6.59.06 13.18 0 19.76 0h3.99c3 0 5.29 2.27 6.65 4.7 13.31 23.15 26.72 46.25 40 69.4a8.6 8.6 0 0 1 .14 9.46zm-131.34-20.6c-5.23 2.52-6.24 10.49-1.6 14.08 4.68 4.28 13.36 1 13.78-5.38 1.08-6.41-6.46-11.87-12.2-8.7zm25.52-30.81c-6.07 2-7.27 11.15-2 14.65 4.51 3.62 12.09 1 13.19-4.74 2.02-6.27-5.2-12.62-11.21-9.91zm266-39.13q-20.2 35-40.45 70.05c-1.39 2.35-3.83 4.43-6.67 4.47h-23.73c-19.45-.1-38.89 0-58.34-.06a8.34 8.34 0 0 1-7.69-4.34q-20.31-35.11-40.57-70.25a8.38 8.38 0 0 1 .16-9.07L464 436.46a8.27 8.27 0 0 1 7-4.66c19.42-.16 38.86.11 58.28-.13 7.5-.38 15-.05 22.54-.17 3.35-.16 7 1.19 8.6 4.29q20.31 35 40.49 70.06a8.91 8.91 0 0 1 .2 9.38zm-56.18-.87c-7.23 2.19-6.74 13.34 0 15.72 5.38 2.27 11.51-2.29 11.59-7.93.28-5.82-6.33-10.15-11.59-7.79zm-7.31-18.91c5.2 4.09 13.56-.36 13.24-6.92.27-5.62-6-9.91-11.16-7.9-6.51 1.68-7.67 11.37-2.11 14.82zm222.61-72.82q-20.16 35-40.4 70a9.13 9.13 0 0 1-8.31 4.68c-7.86-.1-15.74.25-23.59-.18-19.12-.19-38.25 0-57.36-.11a8.26 8.26 0 0 1-7.27-4.46q-20.23-35-40.45-70.06a8.43 8.43 0 0 1 .18-9.19q20-34.69 40.07-69.39a8.3 8.3 0 0 1 7.38-4.78c19.75-.08 39.5 0 59.26 0 7.56-.1 15.13 0 22.69-.05 3.23-.29 6.16 2 7.57 4.75q20 34.66 40 69.36a8.52 8.52 0 0 1 .2 9.43zm-66.82-50.42c-6.3.53-9.77 9-5.37 13.68 3.56 4.91 12 3.73 14.21-1.84 2.82-5.69-2.57-13-8.87-11.84z" style="fill:#fff"/>
</svg>
