<svg xmlns="http://www.w3.org/2000/svg" viewBox="0 0 1024 1024" style="enable-background:new 0 0 1024 1024" xml:space="preserve">
   <circle cx="512" cy="512" r="512" style="fill:#6e436c"/>
   <path d="M715.8 332.4v306.2c0 4.3-2.5 8.3-6.4 10.2L464 766.5c-1.6.8-3.2 1.1-4.9 1.1-2.1 0-4.2-.6-6-1.7-3.3-2.1-5.3-5.8-5.3-9.6V639.7l-132.6-55.5c-4.2-1.8-7-5.9-7-10.5V267.6c0-3.9 2-7.5 5.3-9.5 3.3-2.1 7.5-2.4 10.9-.7l255 122.3 120.1-57.6c3.5-1.6 7.6-1.4 10.9.7s5.4 5.7 5.4 9.6zm-268 282.9v-56.4l-73.5-29.6c-5.8-2.4-8.7-9-6.3-14.7 2.4-5.8 9-8.7 14.7-6.3l65.1 26.2v-46.2l-73.5-29.6c-5.8-2.4-8.7-9-6.3-14.7 2.4-5.8 9-8.7 14.7-6.3l65.1 26.2v-13.5c0-4.3 2.5-8.3 6.4-10.2l16.8-8.1-97.3-44.2c-5.8-2.6-8.2-9.3-5.7-15 2.6-5.8 9.3-8.2 15-5.7l114.4 52.1 55.8-26.8-222.3-106.8v280.6l116.9 49zm245.3 16.1v-281L470.4 457.3v281.1l222.7-107zM507.8 511.8c1.9 4.1 5.9 6.4 10.2 6.4 1.6 0 3.3-.4 4.9-1.1l127.7-61.7c5.7-2.7 8-9.4 5.3-15.1-2.7-5.7-9.4-8-15.1-5.3L513 496.7c-5.6 2.7-8 9.4-5.2 15.1zm0 70.7c1.9 4.1 5.9 6.4 10.2 6.4 1.6 0 3.3-.4 4.9-1.1L650.5 526c5.7-2.7 8-9.4 5.3-15.1-2.7-5.7-9.4-8-15.1-5.3L513 567.4c-5.6 2.7-8 9.4-5.2 15.1zm0 70.6c1.9 4.1 5.9 6.4 10.2 6.4 1.6 0 3.3-.4 4.9-1.1l127.7-61.7c5.7-2.7 8-9.4 5.3-15.1-2.7-5.7-9.4-8-15.1-5.3L513 638c-5.6 2.8-8 9.5-5.2 15.1z" style="fill:#fff"/>
</svg>
