<?xml version="1.0" encoding="utf-8"?>
<!-- Generator: Adobe Illustrator 21.0.0, SVG Export Plug-In . SVG Version: 6.00 Build 0)  -->
<svg version="1.1" xmlns="http://www.w3.org/2000/svg" xmlns:xlink="http://www.w3.org/1999/xlink" x="0px" y="0px"
	 viewBox="0 0 1024 1024" style="enable-background:new 0 0 1024 1024;" xml:space="preserve">
<style type="text/css">
	.st0{fill:#6E436C;}
	.st1{fill:#FFFFFF;}
</style>
<g id="Min_Guides__x28_DO_NOT_REMOVE_x29_">
</g>
<g id="Max_Guides__x28_DO_NOT_REMOVE_x29_">
</g>
<g id="Icon">
	<circle id="Background" class="st0" cx="512" cy="512" r="512"/>
	<path class="st1" d="M715.8,332.4v306.2c0,4.3-2.5,8.3-6.4,10.2L464,766.5c-1.6,0.8-3.2,1.1-4.9,1.1c-2.1,0-4.2-0.6-6-1.7
		c-3.3-2.1-5.3-5.8-5.3-9.6V639.7l-132.6-55.5c-4.2-1.8-7-5.9-7-10.5V267.6c0-3.9,2-7.5,5.3-9.5c3.3-2.1,7.5-2.4,10.9-0.7l255,122.3
		l120.1-57.6c3.5-1.6,7.6-1.4,10.9,0.7S715.8,328.5,715.8,332.4z M447.8,615.3v-56.4l-73.5-29.6c-5.8-2.4-8.7-9-6.3-14.7
		c2.4-5.8,9-8.7,14.7-6.3l65.1,26.2v-46.2l-73.5-29.6c-5.8-2.4-8.7-9-6.3-14.7c2.4-5.8,9-8.7,14.7-6.3l65.1,26.2v-13.5
		c0-4.3,2.5-8.3,6.4-10.2l16.8-8.1l-97.3-44.2c-5.8-2.6-8.2-9.3-5.7-15c2.6-5.8,9.3-8.2,15-5.7l114.4,52.1l55.8-26.8L330.9,285.7
		v280.6L447.8,615.3z M693.1,631.4V350.4L470.4,457.3v22.9v70.7v187.5L693.1,631.4L693.1,631.4z M507.8,511.8
		c1.9,4.1,5.9,6.4,10.2,6.4c1.6,0,3.3-0.4,4.9-1.1l127.7-61.7c5.7-2.7,8-9.4,5.3-15.1c-2.7-5.7-9.4-8-15.1-5.3L513,496.7
		C507.4,499.4,505,506.1,507.8,511.8L507.8,511.8z M507.8,582.5c1.9,4.1,5.9,6.4,10.2,6.4c1.6,0,3.3-0.4,4.9-1.1L650.5,526
		c5.7-2.7,8-9.4,5.3-15.1c-2.7-5.7-9.4-8-15.1-5.3L513,567.4C507.4,570.1,505,576.8,507.8,582.5L507.8,582.5z M507.8,653.1
		c1.9,4.1,5.9,6.4,10.2,6.4c1.6,0,3.3-0.4,4.9-1.1l127.7-61.7c5.7-2.7,8-9.4,5.3-15.1c-2.7-5.7-9.4-8-15.1-5.3L513,638
		C507.4,640.8,505,647.5,507.8,653.1L507.8,653.1z"/>
</g>
</svg>
