<svg viewBox="0 0 1024 1024" xmlns="http://www.w3.org/2000/svg">
   <circle cx="512" cy="512" r="512" style="fill:#1b98ed"/>
   <path d="M367.488 397.537 132.002 568.08s316.061 131.362 744.096 0l-.805-.135c-22.408 0-48.91 1.14-79.973 0h-4.965c-6.709-.268-21.132-1.275-21.132-1.275l-9.93-.871c-13.284-1.14-27.239-2.885-41.932-5.367l-10.867-1.88c-2.08-.402-26.3-5.635-29.387-6.306-3.086-.67-6.17-1.476-9.324-2.281-5.635-1.409-11.339-3.018-17.176-4.695l-8.05-2.416c-5.435-1.544-10.935-3.354-16.57-5.233l-10.065-3.422c-4.898-1.677-9.795-3.488-14.826-5.367-66.554-25.092-144.244-65.748-233.608-131.295zm344.239 38.576-110.631 80.508c5.031 1.879 9.928 3.69 14.826 5.367l10.064 3.422c5.636 1.879 11.136 3.691 16.57 5.235l8.051 2.414c5.837 1.677 11.54 3.288 17.176 4.697 3.153.805 5.769 1.409 9.324 2.281 3.556.872 19.39 4.36 23.147 5.098l5.904.873 10.87 1.877c14.692 2.482 28.513 4.226 41.931 5.367l9.928.873c.2 0 14.425 1.275 21.134 1.275h4.965c31.063 1.208 57.563 0 79.971 0h17.041L711.727 436.113z" style="fill:#fff"/>
</svg>
