<svg xmlns="http://www.w3.org/2000/svg" viewBox="0 0 1024 1024">
   <circle cx="512" cy="512" r="512" style="fill:#00c244"/>
   <path d="M738 345.65a99.25 99.25 0 0 0-59.53-59.53c-25.49-8-48.7-8-95.89-8H441c-46.92 0-70.41 0-95.46 7.79A99.25 99.25 0 0 0 286 345.43c-8 25.33-8 48.76-8 95.68v141.57c0 47.19 0 70.41 7.79 95.68a99.25 99.25 0 0 0 59.53 59.53c25.33 8 48.76 8 95.68 8h141.78c47 0 70.41 0 95.68-8A99.25 99.25 0 0 0 738 678.35c8-25.33 8-48.76 8-95.68V441.32c0-46.97 0-70.4-8-95.67Zm-120.3 90.43-18.09 18.12a9.58 9.58 0 0 1-13.15.27 97.41 97.41 0 0 0-62.77-23.05c-18.94 0-37.88 6.28-37.88 23.7s20.29 23.22 43.78 32c41.07 13.85 74.9 30.85 74.9 71.11 0 43.73-33.93 73.6-89.45 77l-5 23.43a9.47 9.47 0 0 1-9.31 7.47h-34.95a9.63 9.63 0 0 1-9.2-11.58l5.42-24.68a128.31 128.31 0 0 1-56-30.68l-.24-.24a9.36 9.36 0 0 1 .24-13.24l19.37-18.94a9.42 9.42 0 0 1 13.2 0 93.4 93.4 0 0 0 66 25.81c25.27 0 42.43-10.72 42.43-27.71s-17.21-21.48-49.68-33.55C463 519.09 430.5 501.61 430.5 461c0-47 39.29-70 85.61-72.25l4.89-23.89a9.47 9.47 0 0 1 9.25-7.41H565a9.42 9.42 0 0 1 9.25 11.31l-5.41 26.68a143.29 143.29 0 0 1 48.33 27.06q.28.24.53.5a9.25 9.25 0 0 1-.01 13.07Z" style="fill:#fff"/>
</svg>
