<svg xmlns="http://www.w3.org/2000/svg" viewBox="0 0 1024 1024">
   <circle cx="512" cy="512" r="512" style="fill:#d438b1"/>
   <path d="M640 443.14a12.8 12.8 0 1 1-12.8 12.8 12.8 12.8 0 0 1 12.8-12.8zM512 256c-141.31 0-256 114.69-256 256s114.69 256 256 256 256-114.69 256-256-114.69-256-256-256zm116.22 363a159.7 159.7 0 0 1-117.76 52.48h-.26a159.54 159.54 0 0 1-118.78-53.25c-30.72-34.3-44.8-78.34-39.94-124.16 7.94-73.22 66.82-132.35 140-140.8a152.41 152.41 0 0 1 18.69-1 158.11 158.11 0 0 1 97.28 33.28 6.8 6.8 0 0 1 2.82 5.63 7.41 7.41 0 0 1-2.56 5.89l-16.9 15.1a10.24 10.24 0 0 1-6.66 2.56 8.72 8.72 0 0 1-5.63-1.79 120.33 120.33 0 0 0-187.9 112.9c6.14 55 50.69 99.58 106 105.73a125.1 125.1 0 0 0 13.82.77c32.26 0 62.46-12.8 85.5-35.84a10.27 10.27 0 0 1 7.17-3.07 10.08 10.08 0 0 1 5.38 1.54l18.69 12.29a7.57 7.57 0 0 1 3.33 5.38 8.92 8.92 0 0 1-2.29 6.36zM640 494.59a38.66 38.66 0 1 1 38.66-38.66A38.79 38.79 0 0 1 640 494.59z" style="fill:#fff"/>
</svg>
