<?xml version="1.0" encoding="utf-8"?>
<!-- Generator: Adobe Illustrator 21.0.0, SVG Export Plug-In . SVG Version: 6.00 Build 0)  -->
<svg version="1.1" xmlns="http://www.w3.org/2000/svg" xmlns:xlink="http://www.w3.org/1999/xlink" x="0px" y="0px"
	 viewBox="0 0 1024 1024" style="enable-background:new 0 0 1024 1024;" xml:space="preserve">
<style type="text/css">
	.st0{fill:#F76C1D;}
	.st1{fill:#FFFFFF;}
</style>
<g id="Min_Guides__x28_DO_NOT_REMOVE_x29_">
</g>
<g id="Max_Guides__x28_DO_NOT_REMOVE_x29_">
</g>
<g id="Icon">
	<circle id="Background" class="st0" cx="512" cy="512" r="512"/>
	<path class="st1" d="M640,443.1c7.1,0,12.8,5.7,12.8,12.8s-5.7,12.8-12.8,12.8c-7.1,0-12.8-5.7-12.8-12.8S632.9,443.1,640,443.1z
		 M512,256c-141.3,0-256,114.7-256,256s114.7,256,256,256s256-114.7,256-256S653.3,256,512,256z M628.2,619
		c-30.2,33.3-73.2,52.5-117.8,52.5h-0.3c-45.3,0-88.6-19.5-118.8-53.2c-30.7-34.3-44.8-78.3-39.9-124.2
		c7.9-73.2,66.8-132.4,140-140.8c6.1-0.8,12.5-1,18.7-1c35.3,0,69.1,11.5,97.3,33.3c1.8,1.3,2.8,3.3,2.8,5.6c0,2.3-0.8,4.4-2.6,5.9
		l-16.9,15.1c-1.8,1.5-4.1,2.6-6.7,2.6c-2,0-4.1-0.5-5.6-1.8c-20.2-14.1-44-21.5-68.4-21.5c-34.3,0-67.1,14.8-89.9,40.4
		c-23,25.9-33.8,59.4-29.7,94c6.1,55,50.7,99.6,106,105.7c4.6,0.5,9.2,0.8,13.8,0.8c32.3,0,62.5-12.8,85.5-35.8
		c1.8-1.8,4.4-3.1,7.2-3.1c1.8,0,3.8,0.5,5.4,1.5l18.7,12.3c1.8,1.3,3.1,3.1,3.3,5.4C630.5,615.2,629.8,617.5,628.2,619z M640,494.6
		c-21.2,0-38.7-17.4-38.7-38.7c0-21.2,17.4-38.7,38.7-38.7s38.7,17.4,38.7,38.7C678.7,477.2,661.2,494.6,640,494.6z"/>
</g>
</svg>
