<svg xmlns="http://www.w3.org/2000/svg" viewBox="0 0 1024 1024">
   <style>
      .st1{fill:#fff}
   </style>
   <g id="Icon">
      <circle cx="512" cy="512" r="512" style="fill:#00bfb4"/>
      <path class="st1" d="M478.6 272.2c-63.8 0-124.1 25.1-169.5 70.1-45 45.4-69.8 105.8-69.8 169.9s24.8 124.1 70.1 169.5c45 45 105.4 70.1 169.5 70.1 1.5 0 3-.4 4.5-.4h235.2v-60h-240c-47.6 0-93-18.8-126.8-52.5-33.8-33.8-52.5-79.1-52.5-127.1s18.8-93.4 52.5-127.1S431 332.2 479 332.2h239.6v-60h-240z"/>
      <path class="st1" d="M479 377.2c-1.9 0-3.4 0-4.9.4-72.4 2.6-130.1 61.8-130.1 134.6 0 74.3 60.8 134.6 135 134.6h74.6l60.4-60H479c-41.3 0-75-33.8-75-74.6 0-41.3 33.4-74.6 74.6-74.6 1.5 0 3-.4 4.5-.4h131.6l-59.6-60H479zm195.4 60h44.3v-60H614.8zm-61.1 209.6h105.4v-60h-45.1z"/>
      <path class="st1" d="M449 511.8c0 16.5 13.5 30 30 30h180l30.4-30-29.6-30H479c-16.9 0-30 13.5-30 30z"/>
   </g>
</svg>
