<?xml version="1.0" encoding="utf-8"?>
<!-- Generator: Adobe Illustrator 21.0.0, SVG Export Plug-In . SVG Version: 6.00 Build 0)  -->
<svg version="1.1" xmlns="http://www.w3.org/2000/svg" xmlns:xlink="http://www.w3.org/1999/xlink" x="0px" y="0px"
	 viewBox="0 0 1024 1024" style="enable-background:new 0 0 1024 1024;" xml:space="preserve">
<style type="text/css">
	.st0{fill:#00BFB4;}
	.st1{fill:#FFFFFF;}
</style>
<g id="Guides">
</g>
<g id="Icon">
	<circle class="st0" cx="512" cy="512" r="512"/>
	<g>
		<path class="st1" d="M478.6,272.2L478.6,272.2c-63.8,0-124.1,25.1-169.5,70.1c-45,45.4-69.8,105.8-69.8,169.9
			s24.8,124.1,70.1,169.5c45,45,105.4,70.1,169.5,70.1c1.5,0,3-0.4,4.5-0.4h235.2v-60h-240l0,0c-47.6,0-93-18.8-126.8-52.5
			c-33.8-33.8-52.5-79.1-52.5-127.1s18.8-93.4,52.5-127.1S431,332.2,479,332.2c1.5,0,3,0,4.1,0h235.5v-60
			C718.7,272.2,478.6,272.2,478.6,272.2z"/>
		<path class="st1" d="M479,377.2c-1.9,0-3.4,0-4.9,0.4C401.7,380.2,344,439.4,344,512.2c0,74.3,60.8,134.6,135,134.6h74.6l60.4-60
			H479c-41.3,0-75-33.8-75-74.6c0-41.3,33.4-74.6,74.6-74.6c1.5,0,3-0.4,4.5-0.4h131.6l-59.6-60C555.1,377.2,479,377.2,479,377.2z"
			/>
		<polygon class="st1" points="674.4,437.2 718.7,437.2 718.7,377.2 614.8,377.2 		"/>
		<polygon class="st1" points="613.3,646.8 718.7,646.8 718.7,586.8 673.6,586.8 		"/>
		<path class="st1" d="M449,511.8c0,16.5,13.5,30,30,30h180l30.4-30l-29.6-30H479C462.1,481.8,449,495.3,449,511.8z"/>
	</g>
</g>
</svg>
