<svg xmlns="http://www.w3.org/2000/svg" viewBox="0 0 1024 1024">
   <circle cx="512" cy="512" r="512" style="fill:#10d078"/>
   <path d="M735 268.22c-1.93 0-44.81 1.93-98.11 14.68-72.23 17-126.31 45.19-159.53 83.44-7.34 8.5-14.29 16.61-20.47 24.34-13.13 3.48-49.44 13.52-66.05 16.61a37.68 37.68 0 0 0-23.56 15.45c-12 17.38-32.83 52.92-33.61 54.46l-23.95 40.95 43.65-18.93c18.93-8.5 45.58-14.29 53.31-9.66.39.39.77.39 1.16 2.7 0 12.36 3.09 24.34 8.89 36.31a46.38 46.38 0 0 0-17.77 39v53.31h53.31c15.07.77 29.36-6.18 39-17.77a88.13 88.13 0 0 0 36.3 8.89c1.93.39 2.32.77 2.32 1.16 4.64 7.73-1.16 34.38-9.66 53.31l-18.93 43.26 40.95-23.95c1.55-.77 37.08-21.63 54.47-33.61a36.7 36.7 0 0 0 15.45-23.56c3.48-16.61 13.13-52.92 16.61-66.05 7.73-6.18 15.84-13.13 24.34-20.47 89.62-79.19 97.73-250.69 98.11-258l.77-16.61Zm-321 191.2c-10-3.09-21.63-2.7-32.83-.77 4.25-7 8.5-13.52 12-18.54.77-1.55 2.32-2.32 4.25-2.7 7.73-1.55 19.7-4.64 31.67-7.34A141.55 141.55 0 0 0 414 459.42Zm52.53 124A15.62 15.62 0 0 1 453 589.6h-5l32.06-50.22-50.22 32.45v-5.41A15.19 15.19 0 0 1 436 552.9l61.42-48.67a25.26 25.26 0 0 1 11.2-5.41l16.25-3.82-3.87 16.19c-1.16 4.25-2.7 8.11-5.41 11.2Zm115.11 39a7.34 7.34 0 0 1-2.7 4.25c-5 3.48-11.59 7.73-18.54 12 1.93-11.2 2.32-22.79-.77-32.83a159.8 159.8 0 0 0 29.37-14.7c-2.71 11.59-5.8 23.18-7.35 31.29Zm51-103.52c-53.31 47.13-82.66 61-103.91 61.8H528a49.72 49.72 0 0 1-17.38-3.09l28.58-36.31a65.43 65.43 0 0 0 11.59-23.18l15.45-64.9-64.9 15.45a56.36 56.36 0 0 0-23.18 11.2l-36.31 28.58a49.72 49.72 0 0 1-3.09-17.38v-.77c.39-20.86 14.68-50.6 61.8-103.91 56.78-64.51 174.21-81.89 218.25-86.14-4.28 44.45-21.66 161.88-86.17 218.66Zm-182.5 159.77c18.15-8.89 35.92-20.09 50.6-35.54-4.25 10-10.82 18.93-17.77 27.43s-15.45 15.84-24.34 22.4a204.56 204.56 0 0 1-59.87 29 232 232 0 0 1-32.45 7.34 241.66 241.66 0 0 1-33.22 3.09 372.64 372.64 0 0 1-65.67-3.86l-27.42-3.9 17.77-20.86a222.46 222.46 0 0 0 27.43-39c7.73-13.91 14.29-29.36 20.47-44.81a350.57 350.57 0 0 1 23.18-46.74c4.64-7.34 9.66-14.68 14.68-21.63a160.24 160.24 0 0 1 16.61-19.7q-10.43 23.76-18.54 47.51a425.08 425.08 0 0 0-14.29 47.9 307.63 307.63 0 0 1-17 50.22c-3.86 8.11-8.11 15.84-12.75 23.56 12 1.16 23.56 1.54 35.15 1.54 20.09-.39 40.17-1.54 59.87-5.41s39.01-9.66 57.56-18.54Zm171.3-226.58a55.69 55.69 0 0 0 38.63-15.84 54.32 54.32 0 0 0 0-76.87 53.7 53.7 0 0 0-38.63-15.84 55.33 55.33 0 0 0-38.63 15.84 54.27 54.27 0 0 0 38.63 92.71Zm-17-71.08a23.09 23.09 0 0 1 16.61-7 22.47 22.47 0 0 1 16.61 7 23.49 23.49 0 1 1-33.22 33.22c-8.88-8.88-8.88-23.95 0-33.23Z" style="fill:#fff"/>
</svg>
