<?xml version="1.0" encoding="utf-8"?>
<!-- Generator: Adobe Illustrator 21.0.0, SVG Export Plug-In . SVG Version: 6.00 Build 0)  -->
<svg version="1.1" xmlns="http://www.w3.org/2000/svg" xmlns:xlink="http://www.w3.org/1999/xlink" x="0px" y="0px"
	 viewBox="0 0 1024 1024" style="enable-background:new 0 0 1024 1024;" xml:space="preserve">
<style type="text/css">
	.st0{fill:#10D078;}
	.st1{fill:#FFFFFF;}
</style>
<g id="Guides">
</g>
<g id="Icon">
	<circle class="st0" cx="512" cy="512" r="512"/>
	<g>
		<path class="st1" d="M735,268.2c-1.9,0-44.8,1.9-98.1,14.7c-72.2,17-126.3,45.2-159.5,83.4c-7.3,8.5-14.3,16.6-20.5,24.3
			c-13.1,3.5-49.4,13.5-66.1,16.6c-9.7,1.9-17.8,7.3-23.6,15.5c-12,17.4-32.8,52.9-33.6,54.5l-23.9,40.9l43.6-18.9
			c18.9-8.5,45.6-14.3,53.3-9.7c0.4,0.4,0.8,0.4,1.2,2.7c0,12.4,3.1,24.3,8.9,36.3c-12,9.3-18.5,23.9-17.8,39v53.3h53.3
			c15.1,0.8,29.4-6.2,39-17.8c12,5.8,23.9,8.5,36.3,8.9c1.9,0.4,2.3,0.8,2.3,1.2c4.6,7.7-1.2,34.4-9.7,53.3l-18.9,43.3l40.9-23.9
			c1.5-0.8,37.1-21.6,54.5-33.6c8.1-5.4,13.5-13.9,15.5-23.6c3.5-16.6,13.1-52.9,16.6-66.1c7.7-6.2,15.8-13.1,24.3-20.5
			c89.6-79.2,97.7-250.7,98.1-258l0.8-16.6L735,268.2z M414,459.4c-10-3.1-21.6-2.7-32.8-0.8c4.2-7,8.5-13.5,12-18.5
			c0.8-1.5,2.3-2.3,4.2-2.7c7.7-1.5,19.7-4.6,31.7-7.3C422.1,440.5,417.5,450.2,414,459.4z M466.5,583.4c-3.1,4.2-8.5,6.6-13.5,6.2
			h-5l32.1-50.2l-50.2,32.4v-5.4c-0.4-5.4,1.9-10.4,6.2-13.5l61.4-48.7c3.1-2.7,7.3-4.6,11.2-5.4l16.2-3.9l-3.9,16.2
			c-1.2,4.2-2.7,8.1-5.4,11.2L466.5,583.4z M581.7,622.4c-0.4,1.5-1.2,3.1-2.7,4.2c-5,3.5-11.6,7.7-18.5,12
			c1.9-11.2,2.3-22.8-0.8-32.8c9.3-3.5,18.9-8.1,29.4-14.7C586.3,602.7,583.2,614.3,581.7,622.4z M632.6,518.9
			c-53.3,47.1-82.7,61-103.9,61.8c-0.4,0-0.4,0-0.8,0c-6.6,0-12-1.2-17.4-3.1l28.6-36.3c5.4-7,9.3-14.7,11.6-23.2l15.5-64.9
			l-64.9,15.5c-8.5,1.9-16.6,5.8-23.2,11.2l-36.3,28.6c-1.9-5.4-3.1-10.8-3.1-17.4c0-0.4,0-0.4,0-0.8c0.4-20.9,14.7-50.6,61.8-103.9
			c56.8-64.5,174.2-81.9,218.2-86.1C714.5,344.7,697.1,462.1,632.6,518.9z"/>
		<path class="st1" d="M392.6,697.2c-19.7,3.9-39.8,5-59.9,5.4c-11.6,0-23.2-0.4-35.2-1.5c4.6-7.7,8.9-15.5,12.7-23.6
			c7.3-16.6,12.7-33.2,17-50.2c3.9-16.2,8.5-32.1,14.3-47.9c5.4-15.8,11.6-31.7,18.5-47.5c-6.2,6.2-11.6,12.7-16.6,19.7
			c-5,7-10,14.3-14.7,21.6c-8.9,14.7-16.6,30.9-23.2,46.7c-6.2,15.5-12.7,30.9-20.5,44.8c-7.7,13.9-16.6,26.7-27.4,39L240,724.6
			l27.4,3.9c21.6,3.1,43.6,4.6,65.7,3.9c11.2-0.4,22-1.2,33.2-3.1c10.8-1.5,22-4.2,32.4-7.3c21.2-6.2,41.7-16.2,59.9-29
			c8.9-6.6,17.4-13.9,24.3-22.4c7-8.5,13.5-17.4,17.8-27.4c-14.7,15.5-32.4,26.7-50.6,35.5C431.6,687.6,412.3,693.3,392.6,697.2z"/>
		<path class="st1" d="M621.4,452.1c13.9,0,27.8-5.4,38.6-15.8c21.2-21.2,21.2-55.6,0-76.9c-10.4-10.4-23.9-15.8-38.6-15.8
			c-14.7,0-28.2,5.8-38.6,15.8c-21.2,21.2-21.2,55.6,0,76.9C593.2,446.7,607.1,452.1,621.4,452.1z M604.4,381c4.6-4.6,10.4-7,16.6-7
			c6.2,0,12.4,2.3,16.6,7c9.3,9.3,9.3,23.9,0,33.2c-9.3,9.3-23.9,9.3-33.2,0C595.6,405.3,595.6,390.3,604.4,381z"/>
	</g>
</g>
</svg>
