<svg xmlns="http://www.w3.org/2000/svg" viewBox="0 0 1024 1024" style="enable-background:new 0 0 1024 1024" xml:space="preserve">
   <style>
      .st1{fill:#fff}
   </style>
   <g id="Icon">
      <circle cx="512" cy="512" r="512" style="fill:#10d078"/>
      <path class="st1" d="M735 268.2c-1.9 0-44.8 1.9-98.1 14.7-72.2 17-126.3 45.2-159.5 83.4-7.3 8.5-14.3 16.6-20.5 24.3-13.1 3.5-49.4 13.5-66.1 16.6-9.7 1.9-17.8 7.3-23.6 15.5-12 17.4-32.8 52.9-33.6 54.5l-23.9 40.9 43.6-18.9c18.9-8.5 45.6-14.3 53.3-9.7.4.4.8.4 1.2 2.7 0 12.4 3.1 24.3 8.9 36.3-12 9.3-18.5 23.9-17.8 39v53.3h53.3c15.1.8 29.4-6.2 39-17.8 12 5.8 23.9 8.5 36.3 8.9 1.9.4 2.3.8 2.3 1.2 4.6 7.7-1.2 34.4-9.7 53.3l-18.9 43.3 40.9-23.9c1.5-.8 37.1-21.6 54.5-33.6 8.1-5.4 13.5-13.9 15.5-23.6 3.5-16.6 13.1-52.9 16.6-66.1 7.7-6.2 15.8-13.1 24.3-20.5 89.6-79.2 97.7-250.7 98.1-258l.8-16.6-16.9.8zM414 459.4c-10-3.1-21.6-2.7-32.8-.8 4.2-7 8.5-13.5 12-18.5.8-1.5 2.3-2.3 4.2-2.7 7.7-1.5 19.7-4.6 31.7-7.3-7 10.4-11.6 20.1-15.1 29.3zm52.5 124c-3.1 4.2-8.5 6.6-13.5 6.2h-5l32.1-50.2-50.2 32.4v-5.4c-.4-5.4 1.9-10.4 6.2-13.5l61.4-48.7c3.1-2.7 7.3-4.6 11.2-5.4l16.2-3.9-3.9 16.2c-1.2 4.2-2.7 8.1-5.4 11.2l-49.1 61.1zm115.2 39c-.4 1.5-1.2 3.1-2.7 4.2-5 3.5-11.6 7.7-18.5 12 1.9-11.2 2.3-22.8-.8-32.8 9.3-3.5 18.9-8.1 29.4-14.7-2.8 11.6-5.9 23.2-7.4 31.3zm50.9-103.5c-53.3 47.1-82.7 61-103.9 61.8h-.8c-6.6 0-12-1.2-17.4-3.1l28.6-36.3c5.4-7 9.3-14.7 11.6-23.2l15.5-64.9-64.9 15.5c-8.5 1.9-16.6 5.8-23.2 11.2l-36.3 28.6c-1.9-5.4-3.1-10.8-3.1-17.4v-.8c.4-20.9 14.7-50.6 61.8-103.9 56.8-64.5 174.2-81.9 218.2-86.1-4.2 44.4-21.6 161.8-86.1 218.6z"/>
      <path class="st1" d="M392.6 697.2c-19.7 3.9-39.8 5-59.9 5.4-11.6 0-23.2-.4-35.2-1.5 4.6-7.7 8.9-15.5 12.7-23.6 7.3-16.6 12.7-33.2 17-50.2 3.9-16.2 8.5-32.1 14.3-47.9 5.4-15.8 11.6-31.7 18.5-47.5-6.2 6.2-11.6 12.7-16.6 19.7-5 7-10 14.3-14.7 21.6-8.9 14.7-16.6 30.9-23.2 46.7-6.2 15.5-12.7 30.9-20.5 44.8-7.7 13.9-16.6 26.7-27.4 39L240 724.6l27.4 3.9c21.6 3.1 43.6 4.6 65.7 3.9 11.2-.4 22-1.2 33.2-3.1 10.8-1.5 22-4.2 32.4-7.3 21.2-6.2 41.7-16.2 59.9-29 8.9-6.6 17.4-13.9 24.3-22.4 7-8.5 13.5-17.4 17.8-27.4-14.7 15.5-32.4 26.7-50.6 35.5-18.5 8.9-37.8 14.6-57.5 18.5zm228.8-245.1c13.9 0 27.8-5.4 38.6-15.8 21.2-21.2 21.2-55.6 0-76.9-10.4-10.4-23.9-15.8-38.6-15.8-14.7 0-28.2 5.8-38.6 15.8-21.2 21.2-21.2 55.6 0 76.9 10.4 10.4 24.3 15.8 38.6 15.8zm-17-71.1c4.6-4.6 10.4-7 16.6-7 6.2 0 12.4 2.3 16.6 7 9.3 9.3 9.3 23.9 0 33.2-9.3 9.3-23.9 9.3-33.2 0-8.8-8.9-8.8-23.9 0-33.2z"/>
   </g>
</svg>
