<svg xmlns="http://www.w3.org/2000/svg" viewBox="0 0 1024 1024">
   <circle cx="512" cy="512" r="512" style="fill:#f37321"/>
   <path d="M658.27 562.07c-8 49.49-58.4 97.49-94.54 97.49-46.51 0-64.33-33.13-64.33-76.26 0-34.15 11.4-74.24 28.22-108.89 132.64-10.37 197.46-75.16 197.46-128.16 0-38.59-34.65-71.25-103-71.25-92.06 0-159.37 76.22-189.55 167.78-81.75-19.31-143-71.42-146.09-154.5-61.35 29.71-87.59 58.9-87.59 85.13 0 50.48 96.07 89.57 225.26 100a369.25 369.25 0 0 0-9.41 80.16C414.76 656.94 464.25 749 578.07 749c84.14 0 138.07-82.05 138.1-133.93.01-33.12-20.3-53-57.9-53ZM611.6 394.29c11.4 0 19.31 6.92 19.31 15.34 0 14.84-23.19 35.64-89.44 40.58 20.27-32.67 46.01-55.92 70.13-55.92Z" style="fill:#fff"/>
</svg>
