<?xml version="1.0" encoding="utf-8"?>
<!-- Generator: Adobe Illustrator 21.0.0, SVG Export Plug-In . SVG Version: 6.00 Build 0)  -->
<svg version="1.1" xmlns="http://www.w3.org/2000/svg" xmlns:xlink="http://www.w3.org/1999/xlink" x="0px" y="0px"
	 viewBox="0 0 1024 1024" style="enable-background:new 0 0 1024 1024;" xml:space="preserve">
<style type="text/css">
	.st0{fill:#00BCEB;}
	.st1{fill:#FFFFFF;}
</style>
<g id="Min_Guides__x28_DO_NOT_REMOVE_x29_">
</g>
<g id="Max_Guides__x28_DO_NOT_REMOVE_x29_">
</g>
<g id="Icon">
	<circle id="Background" class="st0" cx="512" cy="512" r="512"/>
	<path class="st1" d="M382.4,651.4h26.2V547.7h-26.2V651.4z M267.4,599.5c0,33.4,25.8,53.7,55.2,53.7c11.7,0,20.6-2.7,23.9-3.7
		v-27.8c-1.2,0.6-9.7,5.5-22,5.5c-17.5,0-28.7-12.3-28.7-27.7c0-15.8,11.7-27.7,28.7-27.7c12.5,0,20.9,5,22,5.6v-27.8
		c-2.5-0.7-11.6-3.7-23.9-3.7C290.8,545.9,267.4,568.6,267.4,599.5 M540.5,599.5c0,33.4,25.8,53.7,55.2,53.7
		c11.6,0,20.6-2.7,23.8-3.7v-27.8c-1.1,0.6-9.7,5.5-22,5.5c-17.4,0-28.7-12.3-28.7-27.7c0-15.8,11.7-27.7,28.7-27.7
		c12.5,0,20.9,5,22,5.6v-27.8c-2.5-0.7-11.6-3.7-23.8-3.7C563.8,545.9,540.5,568.6,540.5,599.5 M674.8,599.5
		c0-15,11.5-27.3,27.1-27.3c15.5,0,27.1,12.2,27.1,27.3c0,15.1-11.6,27.3-27.1,27.3C686.3,626.9,674.8,614.6,674.8,599.5
		 M647.1,599.5c0,29.7,22.9,53.7,54.7,53.7c31.9,0,54.8-24,54.8-53.7c0-29.6-22.9-53.6-54.8-53.6C670,545.9,647.1,569.9,647.1,599.5
		 M443.7,578.3c0,17.2,12.2,25.7,26.7,30.3c1.6,0.5,4,1.3,5.6,1.8c6.5,2,11.6,5.1,11.6,10.3c0,5.9-6,9.7-19,9.7
		c-11.4,0-22.4-3.3-24.7-3.9v23.9c1.3,0.3,14.3,2.8,28.2,2.8c20,0,42.9-8.7,42.9-34.8c0-12.6-7.7-24.3-24.7-29.6l-7.2-2.3
		c-4.3-1.4-12-3.6-12-9.9c0-5,5.7-8.5,16.2-8.5c9,0,20.1,3,20.4,3.2v-22.2c-0.8-0.2-12.8-3.3-25.5-3.3
		C458.2,545.9,443.7,558.9,443.7,578.3 M213.7,436.3v27.2c0,7.2,5.9,13,13,13c7.2,0,13-5.8,13-13v-27.2c0-7.1-5.8-13-13-13
		C219.5,423.4,213.7,429.2,213.7,436.3 M499.1,436.3v27.2c0,7.2,5.8,13,13,13c7.1,0,12.9-5.8,12.9-13v-27.2c0-7.1-5.8-13-12.9-13
		C504.9,423.4,499.1,429.2,499.1,436.3 M784.4,436.3v27.2c0,7.2,5.8,13,12.9,13c7.1,0,12.9-5.8,12.9-13v-27.2c0-7.1-5.8-13-12.9-13
		C790.2,423.4,784.4,429.2,784.4,436.3 M285,400.6v62.9c0,7.2,5.8,13,13,13c7.2,0,13-5.8,13-13v-62.9c0-7.1-5.8-13-13-13
		C290.8,387.6,285,393.5,285,400.6 M427.7,400.6v62.9c0,7.2,5.8,13,13,13c7.2,0,13-5.8,13-13v-62.9c0-7.1-5.8-13-13-13
		C433.6,387.6,427.7,393.5,427.7,400.6 M570.4,400.6v62.9c0,7.2,5.8,13,13,13c7.1,0,13-5.8,13-13v-62.9c0-7.1-5.8-13-13-13
		C576.2,387.6,570.4,393.5,570.4,400.6 M713,400.6v62.9c0,7.2,5.8,13,12.9,13c7.3,0,13.1-5.8,13.1-13v-62.9c0-7.1-5.8-13-13.1-13
		C718.8,387.6,713,393.5,713,400.6 M356.4,351.7v137.7c0,7.2,5.8,13,13,13c7.1,0,13-5.8,13-13V351.7c0-7.2-5.8-13-13-13
		C362.2,338.8,356.4,344.6,356.4,351.7 M641.8,351.7v137.7c0,7.2,5.8,13,12.9,13c7.2,0,12.9-5.8,12.9-13V351.7c0-7.2-5.8-13-12.9-13
		C647.6,338.8,641.8,344.6,641.8,351.7"/>
</g>
</svg>
