<svg xmlns="http://www.w3.org/2000/svg" viewBox="0 0 1024 1024">
   <circle cx="512" cy="512" r="512" style="fill:#03a9f4"/>
   <path d="M647.82 273.49c-29.29-17.25-241.66-17.55-271-.37S241 477.2 241 511.63s105.89 221.63 135.18 238.88 241.66 17.55 271 .37S783 546.8 783 512.38 677.11 290.74 647.82 273.49Zm-53.14 175.93c0 19.11-15.23 34.6-34 34.6h-55a33.54 33.54 0 0 1-7.66-.89v57.75a33.54 33.54 0 0 1 7.66-.89h55c18.79 0 34 15.49 34 34.6v55.89c0 19.11-15.23 34.6-34 34.6h-55c-18.79 0-34-15.49-34-34.6v-56.83a33.54 33.54 0 0 1-7.66.89h-55c-18.79 0-34-15.49-34-34.6v-55.88c0-19.11 15.23-34.6 34-34.6h55a33.54 33.54 0 0 1 7.66.89v-56.82c0-19.11 15.23-34.6 34-34.6h55c18.79 0 34 15.49 34 34.6Z" style="fill:#fff"/>
</svg>
