<?xml version="1.0" encoding="UTF-8" standalone="no"?>
<svg
   xmlns:dc="http://purl.org/dc/elements/1.1/"
   xmlns:cc="http://creativecommons.org/ns#"
   xmlns:rdf="http://www.w3.org/1999/02/22-rdf-syntax-ns#"
   xmlns:svg="http://www.w3.org/2000/svg"
   xmlns="http://www.w3.org/2000/svg"
   viewBox="0 0 1365.3333 1365.3333"
   height="1365.3333"
   width="1365.3333"
   xml:space="preserve"
   id="svg2"
   version="1.1"><metadata
     id="metadata8"><rdf:RDF><cc:Work
         rdf:about=""><dc:format>image/svg+xml</dc:format><dc:type
           rdf:resource="http://purl.org/dc/dcmitype/StillImage" /></cc:Work></rdf:RDF></metadata><defs
     id="defs6"><clipPath
       id="clipPath18"
       clipPathUnits="userSpaceOnUse"><path
         id="path16"
         d="M 0,1024 H 1024 V 0 H 0 Z" /></clipPath></defs><g
     transform="matrix(1.3333333,0,0,-1.3333333,0,1365.3333)"
     id="g10"><g
       id="g12"><g
         clip-path="url(#clipPath18)"
         id="g14"><g
           transform="translate(1024,512)"
           id="g20"><path
             id="path22"
             style="fill:#f26f16;fill-opacity:1;fill-rule:nonzero;stroke:none"
             d="m 0,0 c 0,-282.77 -229.23,-512 -512,-512 -282.77,0 -512,229.23 -512,512 0,282.77 229.23,512 512,512 C -229.23,512 0,282.77 0,0" /></g><g
           transform="translate(666.999,550.332)"
           id="g24"><path
             id="path26"
             style="fill:#ffffff;fill-opacity:1;fill-rule:nonzero;stroke:none"
             d="m 0,0 c -1.645,0 -3.437,0 -5.083,-0.239 -1.208,0 -2.249,-0.885 -2.71,-2.082 l -7.206,-25.054 c -3.147,-10.812 -1.958,-20.708 3.292,-28.083 4.812,-6.75 12.917,-10.624 22.666,-11.083 l 39.333,-2.417 c 1.187,0 2.25,-0.561 2.835,-1.499 0.603,-0.918 0.749,-2.292 0.456,-3.333 -0.604,-1.792 -2.414,-3.168 -4.352,-3.313 L 8.25,-79.498 c -22.208,-1.041 -46.042,-18.917 -54.458,-40.832 l -2.999,-7.649 c -0.604,-1.521 0.459,-3.02 2.103,-3.02 H 93.647 c 1.645,0 3.145,1.043 3.606,2.687 2.393,8.709 3.748,17.857 3.748,27.314 C 101.001,-45.479 55.668,-0.155 0,-0.155 m -58.812,-118.531 c 3.147,10.812 1.938,20.708 -3.312,28.062 -4.792,6.75 -12.897,10.645 -22.646,11.104 l -184.73,2.396 c -1.146,-0.018 -2.221,0.558 -2.843,1.521 -0.604,0.896 -0.749,2.104 -0.448,3.313 0.593,1.792 2.395,3.166 4.343,3.332 l 186.366,2.396 C -60,-65.519 -36,-47.644 -27.603,-25.738 l 10.646,27.76 c 0.458,1.197 0.625,2.407 0.313,3.584 -12,54.322 -60.48,94.834 -118.398,94.834 -53.416,0 -98.739,-34.511 -114.935,-82.377 -10.511,7.804 -23.866,12 -38.272,10.645 -25.656,-2.538 -46.219,-23.104 -48.77,-48.759 -0.604,-6.613 -0.148,-13.073 1.354,-19.072 -41.877,-1.19 -75.334,-35.418 -75.334,-77.585 0,-3.73 0.303,-7.499 0.751,-11.249 0.301,-1.771 1.8,-3.147 3.603,-3.147 h 340.937 c 1.938,0 3.75,1.376 4.335,3.313 l 2.56,9.105 z" /></g></g></g></g></svg>