<svg xmlns="http://www.w3.org/2000/svg" viewBox="0 0 1024 1024">
   <circle cx="512" cy="512" r="512" style="fill:#f38020"/>
   <path d="M620 602.07c3.53-12.14 2.18-23.26-3.72-31.51-5.38-7.58-14.48-12-25.43-12.47l-207.44-2.69a3.74 3.74 0 0 1-3.19-1.71 4.65 4.65 0 0 1-.5-3.72 5.75 5.75 0 0 1 4.88-3.74l209.3-2.69c24.8-1.17 51.75-21.25 61.18-45.85l12-31.18a6.49 6.49 0 0 0 .35-4 136.28 136.28 0 0 0-262-14 61.28 61.28 0 0 0-97.75 42.8 64.27 64.27 0 0 0 1.52 21.42 87.06 87.06 0 0 0-84.6 87.13 106.88 106.88 0 0 0 .84 12.63 4.18 4.18 0 0 0 4 3.53h382.84a5.22 5.22 0 0 0 4.87-3.72l2.85-10.23zm66-133.29a40.69 40.69 0 0 0-5.71.27 3.41 3.41 0 0 0-3 2.34l-8.09 28.14c-3.53 12.14-2.2 23.26 3.7 31.54 5.4 7.58 14.51 11.93 25.46 12.45l44.17 2.71a3.7 3.7 0 0 1 3.18 1.68 4.87 4.87 0 0 1 .51 3.74 5.73 5.73 0 0 1-4.89 3.72l-46 2.69c-24.94 1.17-51.71 21.24-61.16 45.86l-3.37 8.59a2.44 2.44 0 0 0 2.36 3.39h158.08a4.16 4.16 0 0 0 4-3 115.55 115.55 0 0 0 4.21-30.67C799.5 519.86 748.59 469 686.07 469" style="fill:#fff"/>
</svg>
