<svg xmlns="http://www.w3.org/2000/svg" viewBox="0 0 1024 1024">
   <circle cx="512" cy="512" r="512" style="fill:#72b5e9"/>
   <path d="M511.39 445.88c41.33 35.9 92.2 61.25 146.84 68.19.2 66.12-12.09 135.89-52.65 189.84a172.47 172.47 0 0 1-89.69 61.29c-9 1.83-17.48-3.53-25.76-6.25-41.46-16.18-74.23-50-93.3-89.73-23.16-48.15-32-102.38-30.83-155.52 54-6.61 105.31-31.28 145.39-67.82zM571.75 548c-28.56 27.26-55.86 55.82-84 83.48-12.53-12-23.85-25.47-37.36-36.39-12-7.22-28.48 8.4-19.23 20 14.56 16.31 30.54 31.32 46 46.73 5.44 6.73 16.14 6.37 21.5-.32 31.15-31.11 62.75-61.9 93.38-93.58 11.19-11.99-8.49-31.26-20.29-19.92zm195.8-32.65c-2.64-44.3-38.62-84.09-82.79-90.13-8.68-.36-17.89-5.48-17-15.5-1.7-60.81-42.59-117.68-99-139.95-41-16.92-89.12-14.68-128.59 5.48-41.87 20.91-73.17 61.51-82.84 107.35-.69 8.88-9.37 12.13-16.79 13.79-40.69 10.3-73.38 45.51-81.9 86.44-7.91 34.93 2.31 73.26 26 100 16.83 19.92 40.69 32.53 65.88 38.33-7.83-34.72-12.53-70.3-11.8-106-.08-14.08 11.64-26.89 25.6-28.27 48.39-6.53 94-28.92 130.13-61.62 8.64-9.25 24.62-10 33.71-1C564 456.75 608.91 479.71 657 486.48c14.85.73 27.91 13.22 28.23 28.31a419.69 419.69 0 0 1-12.53 107.33c54.09-1.41 100.37-52.6 94.85-106.8z" style="fill:#fff"/>
</svg>
