<svg xmlns="http://www.w3.org/2000/svg" viewBox="0 0 1024 1024">
   <circle cx="512" cy="512" r="512" style="fill:#3448c5"/>
   <path d="M509.08 292.75a195.78 195.78 0 0 0-173.6 103.15 147.62 147.62 0 0 0-35.64 279.44l3.73 1.72h.21v-42a110.22 110.22 0 0 1 45.92-203.54l10.3-1.05 4.52-9.45a158.7 158.7 0 0 1 144.52-90.84A161.56 161.56 0 0 1 665 453.65l3.45 14.18 14.59.24a91.63 91.63 0 0 1 89.7 91.21c0 34.88-20.11 63.34-54.23 77.8v39.85l2.45-.83c55-18 89.22-62.75 89.22-116.81a129.34 129.34 0 0 0-112.4-127.61 199.54 199.54 0 0 0-188.71-138.93ZM388.76 468a1.59 1.59 0 0 0-1.15.5l-55 54.92a1.66 1.66 0 0 0 1.17 2.79h14a1.62 1.62 0 0 1 1.62 1.62v126a29.43 29.43 0 0 0 29.43 29.43h64.76a1.62 1.62 0 0 0 1.17-2.79l-8.21-8.21a29.43 29.43 0 0 1-8.62-20.7V527.84a1.62 1.62 0 0 1 1.62-1.62h14a1.62 1.62 0 0 0 1.17-2.79l-54.8-54.93a1.59 1.59 0 0 0-1.16-.5Zm121.44 31.63a1.59 1.59 0 0 0-1.16.5l-54.82 54.92a1.66 1.66 0 0 0 1.17 2.79h13.76a1.62 1.62 0 0 1 1.62 1.62v94.32a29.43 29.43 0 0 0 29.43 29.43h64.89a1.62 1.62 0 0 0 1.17-2.79l-8.21-8.21a29.43 29.43 0 0 1-8.62-20.7V559.4a1.62 1.62 0 0 1 1.59-1.66h14.08a1.62 1.62 0 0 0 1.17-2.79l-54.92-54.82a1.59 1.59 0 0 0-1.16-.5Zm121.44 31.66a1.66 1.66 0 0 0-1.16.47l-54.92 55a1.62 1.62 0 0 0 1.14 2.79h14a1.62 1.62 0 0 1 1.62 1.62v62.68a29.46 29.46 0 0 0 29.46 29.43h64.89a1.62 1.62 0 0 0 1.14-2.79l-8.21-8.21a29.43 29.43 0 0 1-8.8-20.7v-60.51a1.62 1.62 0 0 1 1.62-1.62h14.07a1.62 1.62 0 0 0 1.17-2.72l-54.92-55a1.66 1.66 0 0 0-1.16-.47Z" style="fill:#fff"/>
</svg>
