<?xml version="1.0" encoding="utf-8"?>
<!-- Generator: Adobe Illustrator 21.0.0, SVG Export Plug-In . SVG Version: 6.00 Build 0)  -->
<svg version="1.1" xmlns="http://www.w3.org/2000/svg" xmlns:xlink="http://www.w3.org/1999/xlink" x="0px" y="0px"
	 viewBox="0 0 1024 1024" style="enable-background:new 0 0 1024 1024;" xml:space="preserve">
<style type="text/css">
	.st0{display:none;}
	.st1{fill:#F38020;}
	.st2{fill:#FFFFFF;}
</style>
<g id="Guides" class="st0">
</g>
<g id="Icon">
	<circle class="st1" cx="512" cy="512" r="512"/>
	<path class="st2" d="M608.2,592.4c3.1-10.8,1.9-20.7-3.3-28.1c-4.8-6.7-12.9-10.6-22.6-11.1l-184.7-2.4c-1.1,0-2.2-0.6-2.8-1.5
		c-0.6-0.9-0.7-2.1-0.4-3.3c0.6-1.8,2.4-3.2,4.3-3.3l186.4-2.4c22.1-1,46.1-18.9,54.5-40.8l10.6-27.8c0.5-1.2,0.6-2.4,0.3-3.6
		c-12-54.3-60.5-94.8-118.4-94.8c-53.4,0-98.7,34.5-114.9,82.4c-10.5-7.8-23.9-12-38.3-10.6c-25.7,2.5-46.2,23.1-48.8,48.8
		c-0.6,6.6-0.1,13.1,1.4,19.1c-41.9,1.2-75.3,35.4-75.3,77.6c0,3.7,0.3,7.5,0.8,11.2c0.3,1.8,1.8,3.1,3.6,3.1h340.9
		c1.9,0,3.8-1.4,4.3-3.3L608.2,592.4L608.2,592.4z M667,473.7c-1.6,0-3.4,0-5.1,0.2c-1.2,0-2.2,0.9-2.7,2.1L652,501
		c-3.1,10.8-2,20.7,3.3,28.1c4.8,6.7,12.9,10.6,22.7,11.1l39.3,2.4c1.2,0,2.3,0.6,2.8,1.5c0.6,0.9,0.7,2.3,0.5,3.3
		c-0.6,1.8-2.4,3.2-4.4,3.3l-41,2.4c-22.2,1-46,18.9-54.5,40.8l-3,7.6c-0.6,1.5,0.5,3,2.1,3h140.8c1.6,0,3.1-1,3.6-2.7
		c2.4-8.7,3.7-17.9,3.7-27.3c0-55.5-45.3-100.8-101-100.8"/>
</g>
</svg>
