<svg xmlns="http://www.w3.org/2000/svg" viewBox="0 0 1024 1024" style="enable-background:new 0 0 1024 1024" xml:space="preserve">
   <circle cx="512" cy="512" r="512" style="fill:#280"/>
   <path transform="matrix(.07359 0 0 -.07359 255.589 771.572)" d="M1459.9 6992.9c-34-5-179-31-210-37-109-23-296-95-407-157-147-82-236-150-379-294-170-171-294-370-372-595-67-195-87-322-86-555 1-265 44-453 159-690 203-419 565-724 1016-855 212-62 229-63 1174-64 473-1 869 0 880 2 20 3 20 8 19 875 0 480-4 897-8 927-14 107-47 255-78 344-163 482-552 867-1037 1026-96 31-99 32-191 49-30 6-68 13-85 17-33 6-356 12-395 7zm3807-9c-1-1-36-4-77-8-41-3-84-8-95-10s-40-7-65-12c-25-4-47-8-50-9-309-80-546-206-752-400-287-273-469-639-504-1020-6-71-12-1727-6-1755 3-14 96-16 885-15 865 2 884 2 1010 24 533 93 973 429 1203 916 37 80 96 248 109 316 61 301 49 582-36 849-78 243-222 476-408 658-300 295-688 456-1121 466-50 1-92 1-93 0zm-3740-3700c-1-1-31-4-67-7-291-27-576-139-820-323-339-255-574-661-628-1082-13-108-5-433 13-484 2-7 6-24 9-38 32-182 128-409 246-582 253-374 673-635 1115-694 22-3 51-7 65-10 32-5 288-6 315 0 11 2 47 7 80 10 77 9 229 47 325 81 126 45 370 177 426 230 6 5 30 26 54 45 257 206 483 566 545 865 3 17 13 64 22 105 14 65 17 198 20 981l4 906-861-1c-473 0-862-1-863-2zm1265-466c7-23 1-1211-6-1272-13-99-35-197-58-254-6-15-14-36-18-47-42-113-134-257-226-355-225-239-509-368-824-375-261-6-475 56-690 200-405 270-594 758-479 1235 22 89 31 112 81 220 128 277 397 510 696 604 80 25 97 29 192 46 25 4 334 8 686 9 509 1 643-1 646-11zm926 458c-7-22-1-1674 6-1751 61-667 538-1234 1187-1409 52-14 108-28 124-30 63-11 103-17 141-21 50-6 291-7 324-1 14 3 45 7 70 10 217 28 456 117 648 240 328 210 571 533 681 903 16 54 31 116 35 138 3 22 8 51 11 65 24 113 24 389 0 511-3 13-8 38-11 54-23 128-78 286-151 425-230 447-658 760-1159 851-116 21-145 22-1011 24-635 1-893-1-895-9z" style="fill:#fff"/>
</svg>
