<?xml version="1.0" encoding="utf-8"?>
<!-- Generator: Adobe Illustrator 21.0.0, SVG Export Plug-In . SVG Version: 6.00 Build 0)  -->
<svg version="1.1" xmlns="http://www.w3.org/2000/svg" xmlns:xlink="http://www.w3.org/1999/xlink" x="0px" y="0px"
	 viewBox="0 0 1024 1024" style="enable-background:new 0 0 1024 1024;" xml:space="preserve">
<style type="text/css">
	.st0{fill:#228800;}
	.st1{fill:#FFFFFF;}
</style>
<g id="Min_Guides__x28_DO_NOT_REMOVE_x29_">
</g>
<g id="Max_Guides__x28_DO_NOT_REMOVE_x29_">
</g>
<g id="Icon">
	<circle id="Background" class="st0" cx="512" cy="512" r="512"/>
	<path transform="matrix(.07359 0 0 -.07359 255.589 771.572)" class="st1" d="M1459.9,6992.9c-34-5-179-31-210-37
		c-109-23-296-95-407-157c-147-82-236-150-379-294c-170-171-294-370-372-595c-67-195-87-322-86-555c1-265,44-453,159-690
		c203-419,565-724,1016-855c212-62,229-63,1174-64c473-1,869,0,880,2c20,3,20,8,19,875c0,480-4,897-8,927c-14,107-47,255-78,344
		c-163,482-552,867-1037,1026c-96,31-99,32-191,49c-30,6-68,13-85,17C1821.9,6991.9,1498.9,6997.9,1459.9,6992.9z M5266.9,6983.9
		c-1-1-36-4-77-8c-41-3-84-8-95-10s-40-7-65-12c-25-4-47-8-50-9c-309-80-546-206-752-400c-287-273-469-639-504-1020
		c-6-71-12-1727-6-1755c3-14,96-16,885-15c865,2,884,2,1010,24c533,93,973,429,1203,916c37,80,96,248,109,316c61,301,49,582-36,849
		c-78,243-222,476-408,658c-300,295-688,456-1121,466C5309.9,6984.9,5267.9,6984.9,5266.9,6983.9z M1526.9,3283.9c-1-1-31-4-67-7
		c-291-27-576-139-820-323c-339-255-574-661-628-1082c-13-108-5-433,13-484c2-7,6-24,9-38c32-182,128-409,246-582
		c253-374,673-635,1115-694c22-3,51-7,65-10c32-5,288-6,315,0c11,2,47,7,80,10c77,9,229,47,325,81c126,45,370,177,426,230
		c6,5,30,26,54,45c257,206,483,566,545,865c3,17,13,64,22,105c14,65,17,198,20,981l4,906l-861-1
		C1916.9,3285.9,1527.9,3284.9,1526.9,3283.9z M2791.9,2817.9c7-23,1-1211-6-1272c-13-99-35-197-58-254c-6-15-14-36-18-47
		c-42-113-134-257-226-355c-225-239-509-368-824-375c-261-6-475,56-690,200c-405,270-594,758-479,1235c22,89,31,112,81,220
		c128,277,397,510,696,604c80,25,97,29,192,46c25,4,334,8,686,9C2654.9,2829.9,2788.9,2827.9,2791.9,2817.9z M3717.9,3275.9
		c-7-22-1-1674,6-1751c61-667,538-1234,1187-1409c52-14,108-28,124-30c63-11,103-17,141-21c50-6,291-7,324-1c14,3,45,7,70,10
		c217,28,456,117,648,240c328,210,571,533,681,903c16,54,31,116,35,138c3,22,8,51,11,65c24,113,24,389,0,511c-3,13-8,38-11,54
		c-23,128-78,286-151,425c-230,447-658,760-1159,851c-116,21-145,22-1011,24C3977.9,3285.9,3719.9,3283.9,3717.9,3275.9z"/>
</g>
</svg>
