<?xml version="1.0" encoding="utf-8"?>
<!-- Generator: Adobe Illustrator 21.0.0, SVG Export Plug-In . SVG Version: 6.00 Build 0)  -->
<svg version="1.1" xmlns="http://www.w3.org/2000/svg" xmlns:xlink="http://www.w3.org/1999/xlink" x="0px" y="0px"
	 viewBox="0 0 1024 1024" style="enable-background:new 0 0 1024 1024;" xml:space="preserve">
<style type="text/css">
	.st0{fill:#6515DD;}
	.st1{fill:#FFFFFF;}
</style>
<g id="Guides">
</g>
<g id="Icon">
	<circle class="st0" cx="512" cy="512" r="512"/>
	<g>
		<g id="Logo_1_">
			<g>
				<g>
					<g>
						<path class="st1" d="M293.1,637c-20.4,0-37.1,16.7-37.1,37.1s16.7,37.1,37.1,37.1c20.4,0,37.1-16.7,37.1-37.1
							C330.3,653.8,313.8,637,293.1,637z"/>
					</g>
					<path class="st1" d="M750.5,312.7l-233.9,74.7v-73.8l-252.2,80.5v213.8l217.6-69.5v73.4l286-91.2l-77.5-75.7L750.5,312.7z
						 M481.9,501.8l-182.7,58.3V419.5l182.7-58.3V501.8z M703.2,504.8l-186.6,59.5V423.9L688.5,369L649,452.2L703.2,504.8z"/>
				</g>
			</g>
		</g>
	</g>
</g>
</svg>
