<svg xmlns="http://www.w3.org/2000/svg" viewBox="0 0 1024 1024" style="enable-background:new 0 0 1024 1024" xml:space="preserve">
   <circle cx="512" cy="512" r="512" style="fill:#6515dd"/>
   <path d="M293.1 637c-20.4 0-37.1 16.7-37.1 37.1s16.7 37.1 37.1 37.1c20.4 0 37.1-16.7 37.1-37.1.1-20.3-16.4-37.1-37.1-37.1zm457.4-324.3-233.9 74.7v-73.8l-252.2 80.5v213.8L482 538.4v73.4l286-91.2-77.5-75.7 60-132.2zM481.9 501.8l-182.7 58.3V419.5l182.7-58.3v140.6zm221.3 3-186.6 59.5V423.9L688.5 369 649 452.2l54.2 52.6z" style="fill:#fff"/>
</svg>
