<?xml version="1.0" encoding="utf-8"?>
<!-- Generator: Adobe Illustrator 21.0.0, SVG Export Plug-In . SVG Version: 6.00 Build 0)  -->
<svg version="1.1" xmlns="http://www.w3.org/2000/svg" xmlns:xlink="http://www.w3.org/1999/xlink" x="0px" y="0px"
	 viewBox="0 0 1024 1024" style="enable-background:new 0 0 1024 1024;" xml:space="preserve">
<style type="text/css">
	.st0{fill:#5E00EE;}
	.st1{fill:#FFFFFF;}
</style>
<g id="Min_Guides__x28_DO_NOT_REMOVE_x29_">
</g>
<g id="Max_Guides__x28_DO_NOT_REMOVE_x29_">
</g>
<g id="Icon">
	<circle id="Background" class="st0" cx="512" cy="512" r="512"/>
	<path class="st1" d="M506.9,511.8c0.1,32.4-22.9,60.2-54.7,66.2c-31.8,6-63.4-11.5-75.1-41.6l25.6-25.7v1.1
		c0,17.6,12.4,32.8,29.7,36.2c17.3,3.4,34.6-5.8,41.3-22.1c6.7-16.3,1.1-35.1-13.6-44.9c-14.7-9.8-34.2-7.9-46.6,4.6l-73.7,73.7
		c-19.2,19.3-48.2,25-73.3,14.6c-25.1-10.4-41.5-34.9-41.5-62.2s16.4-51.7,41.5-62.2s54.1-4.6,73.3,14.6c3.8,3.8,5.3,9.4,3.8,14.6
		c-1.4,5.2-5.5,9.3-10.8,10.6c-5.2,1.4-10.8-0.2-14.6-4c-14.5-14.4-37.9-14.4-52.3,0.1c-14.4,14.4-14.4,37.9,0,52.3
		c14.4,14.4,37.8,14.5,52.3,0.1l73.8-73.4c19.2-19.3,48.1-25,73.3-14.6c25.1,10.4,41.5,34.9,41.5,62.1V511.8z M799,511.8
		c0,32.3-23,60.1-54.8,66.1s-63.3-11.4-75.1-41.5l25.6-25.7v1.1c0,17.6,12.4,32.8,29.7,36.2c17.3,3.4,34.6-5.8,41.3-22.1
		c6.7-16.3,1.1-35.1-13.6-44.9s-34.2-7.9-46.6,4.6L632.1,559c-19.2,19.5-48.2,25.4-73.4,15c-25.3-10.4-41.7-35-41.7-62.3v-94.4
		c-0.4-5.6,2.4-11,7.3-13.9s10.9-2.9,15.7,0s7.6,8.3,7.3,13.9v38.3c18.6-12.3,42.1-14.5,62.7-6c20.6,8.5,35.6,26.7,40.2,48.6l34-34
		c19.2-19.2,48.2-25,73.3-14.6C782.6,460.1,799,484.6,799,511.8z M621.3,511.8c0-20.4-16.6-37-37-37s-37,16.6-37,37
		c0,20.4,16.6,37,37,37c9.8,0,19.2-3.9,26.2-10.8C617.4,531.1,621.3,521.7,621.3,511.8z"/>
</g>
</svg>
