<svg xmlns="http://www.w3.org/2000/svg" viewBox="0 0 1024 1024">
   <circle cx="512" cy="512" r="512" style="fill:#2185d0"/>
   <path d="m290.2 629.4-2.8 3.6c-19.4-36-30.5-77.2-30.5-121 0-140.9 114.2-255.1 255.1-255.1S767.1 371.1 767.1 512c0 44-11.2 85.5-30.8 121.6l-2.8-3.6-1-1.4-207.3-268-6.6-8.6c-.8-1-1.9-1.9-3.2-2.4-1.1-.5-2.4-.7-3.7-.7-2.8 0-5.4 1.2-6.9 3.2l-6.6 8.6-205 265.1-3 3.6zm5 15.2-.1.1c37 58.9 96.7 102.1 166.9 117.4 16.2 3.2 32.9 4.9 50 4.9 36.1 0 70.4-7.5 101.4-21L511.7 364.8 295.2 644.6z" style="fill:#fff"/>
</svg>
