<?xml version="1.0" encoding="utf-8"?>
<!-- Generator: Adobe Illustrator 21.0.0, SVG Export Plug-In . SVG Version: 6.00 Build 0)  -->
<svg version="1.1" xmlns="http://www.w3.org/2000/svg" xmlns:xlink="http://www.w3.org/1999/xlink" x="0px" y="0px"
	 viewBox="0 0 1024 1024" style="enable-background:new 0 0 1024 1024;" xml:space="preserve">
<style type="text/css">
	.st0{fill:#004466;}
	.st1{fill:#FFFFFF;}
</style>
<g id="Min_Guides__x28_DO_NOT_REMOVE_x29_">
</g>
<g id="Max_Guides__x28_DO_NOT_REMOVE_x29_">
</g>
<g id="Icon">
	<circle id="Background" class="st0" cx="512" cy="512" r="512"/>
	<path class="st1" d="M451.8,269.4c-4.3,2.2-7,6.6-7,11.4v36.4c42.4-7.2,85.6-7.2,128,0v-36.4c0-4.8-2.7-9.2-7-11.4
		c-17.7-8.8-37.2-13.4-57-13.4C489.2,256,469.7,260.5,451.8,269.4 M739,624.1C697.4,709.3,609.9,768,508.8,768
		c-107.9,0-200.3-66.8-237.9-161.4c19.2-17,41.7-30.6,77.9-30.6c48,0,72,24,96,48c24,24,48,48,96,48c40,0,68-12,96-24
		c28-12,56-24,96-24C734.9,624,736.9,624,739,624.1 M508.8,448c-32,48,0,192,0,192S540.8,496,508.8,448 M280.3,627.7
		c10.8-2.3,22.8-3.7,36.4-3.7c40,0,68,12,96,24c3.5,1.5,7,3,10.6,4.5c-15.3-51.2-38.8-116.3-70.5-166.2c-2.3-3.6-1.5-8.3,2-10.8
		C418.7,431,508.8,416,508.8,416s90.1,15,153.9,59.6c3.5,2.4,4.3,7.2,2,10.8c-26.5,41.8-47.3,94.1-62.3,140.1l2.4-2.4
		c24-24,48-48,96-48c21.6,0,38.3,4.9,52.4,12.4C720.7,692.5,623.5,768,508.8,768C409,768,322.6,711,280.3,627.7 M385.3,366.3
		c-2.7,1-4.6,3.7-4.6,6.6v50.9c23.2-11.2,46.3-19.4,65.6-25.3c16.2-4.9,30.2-8.4,40.3-10.7c7.6-1.7,12.9-2.7,15.4-3.1l6.7-1.1l5.7,1
		l1,0.2c0.8,0.1,1.9,0.4,3.4,0.6c2.9,0.6,6.9,1.4,12,2.5c10.1,2.2,24.2,5.7,40.3,10.7c19.4,5.9,42.5,14.2,65.6,25.3v-50.9
		c0-2.9-1.8-5.6-4.6-6.6C552.6,336.4,464.9,336.4,385.3,366.3"/>
</g>
</svg>
