<?xml version="1.0" encoding="utf-8"?>
<!-- Generator: Adobe Illustrator 21.0.0, SVG Export Plug-In . SVG Version: 6.00 Build 0)  -->
<svg version="1.1" xmlns="http://www.w3.org/2000/svg" xmlns:xlink="http://www.w3.org/1999/xlink" x="0px" y="0px"
	 viewBox="0 0 1024 1024" style="enable-background:new 0 0 1024 1024;" xml:space="preserve">
<style type="text/css">
	.st0{display:none;}
	.st1{display:inline;}
	.st2{fill:#2185D0;}
	.st3{fill:#FFFFFF;}
</style>
<g id="Min_Guides__x28_DO_NOT_REMOVE_x29_" class="st0">
	<g class="st1">
	</g>
</g>
<g id="Max_Guides__x28_DO_NOT_REMOVE_x29_" class="st0">
</g>
<g id="Icon">
	<circle class="st2" cx="512" cy="512" r="512"/>
	<path id="Codeberg_logo_x2C__mochrome_version_by_krisu" class="st3" d="M290.2,629.4l-2.8,3.6c-19.4-36-30.5-77.2-30.5-121
		c0-140.9,114.2-255.1,255.1-255.1S767.1,371.1,767.1,512c0,44-11.2,85.5-30.8,121.6l-2.8-3.6c0,0,0,0,0,0l-1-1.4l-207.3-268
		l-6.6-8.6c-0.8-1-1.9-1.9-3.2-2.4c-1.1-0.5-2.4-0.7-3.7-0.7c-2.8,0-5.4,1.2-6.9,3.2l-6.6,8.6l-205,265.1L290.2,629.4
		C290.2,629.4,290.2,629.4,290.2,629.4z M295.2,644.6l-0.1,0.1l0,0l0,0c37,58.9,96.7,102.1,166.9,117.4c16.2,3.2,32.9,4.9,50,4.9
		c36.1,0,70.4-7.5,101.4-21L511.7,364.8L295.2,644.6z"/>
</g>
</svg>
