<?xml version="1.0" encoding="utf-8"?>
<!-- Generator: Adobe Illustrator 21.0.0, SVG Export Plug-In . SVG Version: 6.00 Build 0)  -->
<svg version="1.1" xmlns="http://www.w3.org/2000/svg" xmlns:xlink="http://www.w3.org/1999/xlink" x="0px" y="0px"
	 viewBox="0 0 1024 1024" style="enable-background:new 0 0 1024 1024;" xml:space="preserve">
<style type="text/css">
	.st0{fill:#202D40;}
	.st1{fill:#FFFFFF;}
</style>
<g id="Guides">
</g>
<g id="Icon">
	<circle class="st0" cx="512" cy="512" r="512"/>
	<g>
		<g>
			<path class="st1" d="M374.2,544.4c-6.3,0-11.5,6.2-11.5,13.8c0,7.6,5.1,13.8,11.5,13.8c6.3,0,11.5-6.2,11.5-13.8
				C385.7,550.6,380.5,544.4,374.2,544.4 M646.9,544.4c-6.3,0-11.5,6.2-11.5,13.8c0,7.6,5.1,13.8,11.5,13.8
				c6.3,0,11.5-6.2,11.5-13.8C658.3,550.6,653.2,544.4,646.9,544.4"/>
			<path class="st1" d="M781.2,556.6c-10.4,3.6-20.6,0.4-22.9-7.3c-2.3-7.7,4.2-16.8,14.6-20.5c10.4-3.6,20.6-0.4,22.9,7.3
				S791.6,553,781.2,556.6 M515.8,711.8c-108.2-0.2-195.9-50.1-195.9-121.6c0-1.5,0.1-3,0.1-4.5c0-0.5,0.1-1,0.1-1.5
				c0.1-1,0.2-2,0.3-3c0.1-1.3,0.3-2.7,0.5-4c0-0.1,0-0.3,0.1-0.4c2.2-14,7.8-35.5,16.2-47.8c20.2-28.7,56.3-47.7,97.5-47.7
				c31.7,0,60.4,11.3,81.2,29.6c20.8-18.3,49.4-29.6,81.2-29.6c41.2,0,77.3,19.1,97.5,47.7c8.4,12.4,14,33.8,16.2,47.8
				c0,0.1,0,0.3,0.1,0.4c0.2,1.3,0.4,2.7,0.5,4c0.1,1,0.2,2,0.3,3c0,0.5,0.1,1,0.1,1.5c0.1,1.5,0.1,3,0.1,4.5
				C711.8,661.7,624.1,711.6,515.8,711.8 M265.7,549.3c-2.3,7.7-12.6,10.9-22.9,7.3c-10.4-3.6-16.9-12.8-14.6-20.5
				c2.3-7.7,12.6-10.9,22.9-7.3C261.5,532.5,268,541.6,265.7,549.3 M780.2,473.2c-16.8,0-31.6,10.6-39.8,26.4
				c-28.1-60.2-86.5-115.9-158.7-138.8c-38.9-15.4-66.3-44.8-69.7-79.3c-3.4,34.4-30.7,63.9-69.7,79.3
				c-72.2,22.9-130.6,78.7-158.6,138.8c-8.3-15.8-23-26.4-39.8-26.4c-25.9,0-46.8,24.9-46.8,55.6s21,55.6,46.8,55.6
				c7.9,0,15.3-2.3,21.8-6.4c2.2,99.6,111.6,164.3,246.4,164.5c134.8-0.2,244.2-64.9,246.4-164.5c6.5,4.1,13.9,6.4,21.8,6.4
				c25.9,0,46.8-24.9,46.8-55.6S806,473.2,780.2,473.2"/>
		</g>
	</g>
</g>
</svg>
