<svg xmlns="http://www.w3.org/2000/svg" viewBox="0 0 1024 1024">
   <circle cx="512" cy="512" r="512" style="fill:#48baeb"/>
   <path d="M769.54 405.21h11.78v54.36h29.78v11.76c-9.94.05-19.87 0-29.81 0v81.62h-11.76v-81.58h-29.79v-11.78h29.79q.01-27.19.01-54.38Zm55 0c3.93 0 7.86-.07 11.78.06v75.29a36 36 0 0 1 6.21-7.17 32.26 32.26 0 0 1 17.44-7.74 44.24 44.24 0 0 1 14.07.45 28.15 28.15 0 0 1 10.36 4.25 25.06 25.06 0 0 1 7.44 8 29.65 29.65 0 0 1 3.58 10.22c.36 1.92.39 3.87.6 5.81V553h-12v-48.44c0-2.71.08-5.44-.18-8.14a28.85 28.85 0 0 0-3.13-11.51 15.94 15.94 0 0 0-6.51-6.47 25.41 25.41 0 0 0-12.33-2.52 29.17 29.17 0 0 0-12.74 2.73 19 19 0 0 0-7.1 6.09 30.27 30.27 0 0 0-4.67 11.89 59.47 59.47 0 0 0-1 12.31v44.11h-11.81q-.02-73.94-.01-147.87ZM162.81 467a47 47 0 0 1 30.61 3 45.09 45.09 0 0 1 16.12 12.57c-3 2.65-6 5.35-9 8a34.4 34.4 0 0 0-16.92-12.46 32.57 32.57 0 0 0-15.35-1 31.33 31.33 0 0 0-15.33 6.89 34.78 34.78 0 0 0-11.27 18 38.17 38.17 0 0 0-.1 16.69 33.87 33.87 0 0 0 9 17.24 35.34 35.34 0 0 0 10.36 7.39 31.88 31.88 0 0 0 24.65.6 32.72 32.72 0 0 0 16.67-13.8c3.09 2.34 6.2 4.66 9.28 7A46.19 46.19 0 0 1 195 551.87a45.22 45.22 0 0 1-26.48 5 47.73 47.73 0 0 1-22.63-9.3 43.78 43.78 0 0 1-16.66-25.91 48.19 48.19 0 0 1-1.06-14A45.47 45.47 0 0 1 162.81 467Zm285.07.91a35.44 35.44 0 0 1 15.2-1.81 32.31 32.31 0 0 1 11.48 3 26.17 26.17 0 0 1 8.4 6.38 28 28 0 0 1 4.7 7.78c-3.59 2-7.22 4-10.8 6a26.27 26.27 0 0 0-1.95-4.12 16.32 16.32 0 0 0-8.16-6.8 22.21 22.21 0 0 0-8.49-1.37 14.13 14.13 0 0 0-10.43 4.42 11.94 11.94 0 0 0-2.3 12.33 12.47 12.47 0 0 0 5.45 6 65.26 65.26 0 0 0 11.64 5.1 84.3 84.3 0 0 1 12.65 5.18 30 30 0 0 1 7.79 5.57 21.09 21.09 0 0 1 5.1 12.11 28.93 28.93 0 0 1-1.55 14.14c-2.45 6.09-7.75 10.72-13.76 13.13a39.9 39.9 0 0 1-15.62 2.6c-7.54 0-15.28-2.21-21.09-7.15a28 28 0 0 1-8.14-11.64c3.72-2.14 7.47-4.24 11.18-6.41a24 24 0 0 0 6.1 9.13 20.46 20.46 0 0 0 11.5 4.91 23.31 23.31 0 0 0 11.09-1.18 13.15 13.15 0 0 0 7.5-7.36 12.49 12.49 0 0 0-4.45-14.93 40.5 40.5 0 0 0-10.44-6c-7-2.8-14.15-5.47-20.19-10.05a19.86 19.86 0 0 1-7.24-9.86 24.58 24.58 0 0 1 0-13.53c1.95-7.21 7.89-12.96 14.83-15.55Zm97.37 5.09a46.8 46.8 0 0 1 45.22-2.08 45.75 45.75 0 0 1 15 12c-3 2.68-6 5.39-9 8.05a34.79 34.79 0 0 0-14.33-11.5c-7.72-3.31-16.68-3.05-24.49-.19a32 32 0 0 0-15.72 13.1 33 33 0 0 0-4.9 13 38.91 38.91 0 0 0 .33 12.88 36.22 36.22 0 0 0 4 11.16 35 35 0 0 0 15.41 14.18 31.79 31.79 0 0 0 24.7.7 32.64 32.64 0 0 0 16.73-13.83c3.13 2.3 6.2 4.67 9.3 7a46.38 46.38 0 0 1-28.55 19 44.53 44.53 0 0 1-12.1.88c-3.86-.23-7.63-1.18-11.43-1.8l-.13-.34a7.34 7.34 0 0 0 1.54.3c-.64-.27-1.32-.43-2-.71-.1.26.27.33.24.59a35.43 35.43 0 0 1-4.33-1.54c1.19.29 2.33.75 3.5 1.11l.45-.26a22.45 22.45 0 0 1-3.91-1.51A47 47 0 0 1 533 539.2a46.51 46.51 0 0 1-3.87-48.81A45.87 45.87 0 0 1 545.25 473Zm-284.57-6.61a46 46 0 0 1 42.52 21.16 44.15 44.15 0 0 1 6.48 17.82 45.91 45.91 0 0 1-1.1 17.71 43.82 43.82 0 0 1-7.43 15.21 47.55 47.55 0 0 1-21.74 15.95 45.24 45.24 0 0 1-22.18 2.06c-11.16-1.77-21.36-8.1-28.5-16.78a43.36 43.36 0 0 1-9.32-22.64 48 48 0 0 1 .83-15.7 44.41 44.41 0 0 1 10.23-19.82 44.86 44.86 0 0 1 19.12-12.71 44.19 44.19 0 0 1 11.09-2.26m-.43 11a30.76 30.76 0 0 0-18.18 8.86 33.73 33.73 0 0 0-7 9.71 34.84 34.84 0 0 0-3.19 12.3 39.44 39.44 0 0 0 1.12 13.36 32.7 32.7 0 0 0 5 10.46 33.17 33.17 0 0 0 15.86 12.14 34.2 34.2 0 0 0 18.11.91 31.3 31.3 0 0 0 15.36-8.59 33.5 33.5 0 0 0 8.92-15.32 39.43 39.43 0 0 0-.05-19.58 33.54 33.54 0 0 0-21.33-22.9 34.44 34.44 0 0 0-14.62-1.32ZM372.74 469a36.36 36.36 0 0 1 14.06-2.82 38.51 38.51 0 0 1 13.44 2 25.21 25.21 0 0 1 15.5 15.34 36.11 36.11 0 0 1 2 11c.12 5.07 0 10.14.06 15.21v44.12h-12v-53.7a33.07 33.07 0 0 0-2.83-13.5 16.21 16.21 0 0 0-6-6.77c-3.66-2.31-8.08-3.07-12.35-3.13a30.16 30.16 0 0 0-13.62 2.77 19.34 19.34 0 0 0-7.43 6.57 33 33 0 0 0-4.7 13.68 80.33 80.33 0 0 0-.64 12.7v41.41h-11.79V469.3h11.2v12.93a33.86 33.86 0 0 1 15.1-13.23Zm282.94-2.19a46 46 0 0 1 45.12 24 44.79 44.79 0 0 1 5 25.42 43.87 43.87 0 0 1-9.14 23 47.74 47.74 0 0 1-18.19 14.16 45.22 45.22 0 0 1-27.91 2.81 47.39 47.39 0 0 1-24.37-14.51 42.59 42.59 0 0 1-9-15.62 47.59 47.59 0 0 1-1.86-19.61 44.66 44.66 0 0 1 7.09-19.57 45.31 45.31 0 0 1 23.76-18.09 44.66 44.66 0 0 1 9.5-2m1.68 10.84a31.25 31.25 0 0 0-9.48 2.3 33.81 33.81 0 0 0-19.65 25 38.81 38.81 0 0 0 1.57 19.7 34 34 0 0 0 9 13.28 30.64 30.64 0 0 0 14.25 7.54 34.49 34.49 0 0 0 16.19-.35 30.42 30.42 0 0 0 10.8-5.44A34.25 34.25 0 0 0 691.76 523a38.92 38.92 0 0 0 1.32-16.18 33.76 33.76 0 0 0-4.18-12.75 34.22 34.22 0 0 0-14.35-13.54 33.12 33.12 0 0 0-17.18-2.9Zm-336.45-8.35h12.19v84.59h-12.17q-.06-42.3-.02-84.59Zm182.23 67.46a9.15 9.15 0 0 1 5.46.4 8.48 8.48 0 0 1 4.31 4.15 9 9 0 0 1 .14 7 8.48 8.48 0 0 1-2.78 3.53 8.47 8.47 0 0 1-11.16-12.65 8.11 8.11 0 0 1 4.04-2.43Zm217.53 0a9.06 9.06 0 0 1 5.88.53 8.34 8.34 0 0 1 4.62 6.18 9.21 9.21 0 0 1-.62 5 8.28 8.28 0 0 1-6 4.71 8.82 8.82 0 0 1-6.05-1 8.47 8.47 0 0 1-3.28-3.6 9.14 9.14 0 0 1-.64-5.35 8.28 8.28 0 0 1 6.1-6.45ZM326 437.71a8.49 8.49 0 0 1 5.13.89 8.26 8.26 0 0 1 4.21 5.55 8.41 8.41 0 0 1-.89 5.69 8 8 0 0 1-5.77 3.94 9.12 9.12 0 0 1-5-.6 7.89 7.89 0 0 1-4.44-5.19 8.48 8.48 0 0 1 .65-6 8.28 8.28 0 0 1 6.11-4.28Z" style="fill:#fff"/>
</svg>
