<svg xmlns="http://www.w3.org/2000/svg" viewBox="0 0 1024 1024">
   <circle cx="512" cy="512" r="512" style="fill:#1f2374"/>
   <path d="M662.2 461.6c.3 4 3 7 4.6 10.4 2.2 4.6 4.9 9 7.4 13.4 2.6 4.7 5.2 9.4 7.9 14.1 3.2 5.7 6.5 11.5 9 17.6 1.1 2.6 2.2 5.2 3.2 7.9 1.9 5.3.6 8.9-3 13.4-.1.2-.4.2-.5.4-3 4.5-7.7 5.3-12.6 6.2-4.3.8-8.5 1.9-11.7 5.4-3.2 3.6-3.6 6.5-.9 10.5s5.3 8 8 12c.6.9 1 1.8 1.4 2.8 1.9 4.7-.3 10.6-4.6 13.2-2.2 1.3-4.3 2.9-6.4 4.4-1.7 1.3-1.6 1.8-.3 3.6 2.9 4.2 5.4 8.5 5.5 13.8.1 3.5-1.2 5.8-4.2 7.8-4.4 2.9-9.4 4.1-14 6.2-6.1 2.8-8.6 7.4-4.5 13.6 4 6.1 5.6 12.6 4.2 19.6-.6 3.3-1.7 6.7-3.6 9.7-2.6 4.2-5.4 8.2-9.3 11.4-2.3 1.9-4.7 3.4-7.7 4.1-2.9.6-5.6 2.1-8.5 2.6-7.4 1.3-14.6 3.4-22.2 3.9-5.5.4-10.9 1.6-16.3 2.2-3.3.4-6.6.3-9.8.7-12.1 1.5-24.3 1-36.5 1.4-3.9.1-7.6 1.5-11.3 2.6-3.6 1.1-6.3 3.3-9.4 5.1-1.2.7-2.3 1.9-3 3.2-1.5 2.5-2.6 5.2-4 7.8-1.7 3.3-3.5 6.6-5.2 9.9-1.8 3.5-3.5 7-5.2 10.5-3.8 7.6-7.7 15.2-11.6 22.8-2.4 4.7-4.7 9.5-7 14.2-3.4 6.8-6.8 13.6-10.2 20.3-.5.9-1 1.7-2.1 2.5l-.6-51c-.2-17.1-.5-34.1-.7-51.7 1.8-.1 3.2-.3 4.7-.3 3.7 0 7.4.1 11.1 0 4.2 0 4.3-.1 4.4-4.2v-32.3c2.1-1.6 4.3-1.2 6.3-1.2 15.1-.1 30.1 0 45.2.1 2.7 0 5.5.3 7.5.4 2.3 3 4 5.8 6.2 7.9 5.2 5.1 13.7 7.1 20.7 3.2 3.9-2.2 6.9-5 9.1-8.9 3-5.5 1.5-14.3-2.6-19.2-2.6-3.1-5.5-5-9-6.4-3.5-1.4-6.8-1.1-10.4-.1-4.3 1.2-7.4 3.9-10.2 7-1.1 1.3-1.8 3-2.5 4.7-.6 1.5-1.9 2.1-3.2 2.2-2.3.2-4.6.2-6.9.2H470c-3.6 0-3.9-.3-3.9-3.7-.1-5.7-.1-11.5-.1-17.2 0-5.1 0-5.2 5.1-5.2 7.4 0 14.9.1 22.3.1 1.3 0 2.7-.2 4.3-.4v-37.9c0-2.7-.1-2.8-2.9-2.8-8.4 0-16.8 0-25.2-.1h-4v-21.4c1.7-.1 3.3-.3 5-.3h48.1c15.1 0 30.2.1 45.2 0 8.1 0 16.1-.2 24.2-.3 2.3-.1 3.7.5 5 2.8 1.5 2.7 3.5 5.5 6.1 7.1 4.4 2.9 9.5 4.5 14.8 2.8 3.3-1 6.4-2.4 9.1-4.8 5.7-5.2 7.9-17.4 2-23.9-1.8-2-3.2-4.4-5.7-5.7-5.4-2.8-10.8-3.4-16.7-1.2-4.2 1.6-6.8 4.8-9.4 8-.9 1.1-1.1 2.9-1.7 4.4-2.3.6-80.3.9-84.5.2-.1-1.5-.3-3-.3-4.6V499c-.1-2.9-.5-3.3-3.4-3.3h-38.1c-.1-1.4-.2-2.6-.2-3.7 0-5.4 0-10.8-.1-16.2-.1-5.1-.3-10.2-.5-15.2v-3.4c1.4-.1 2.6-.2 3.7-.2h96.5c2.4 0 4.2.3 5.2 2.9 1.1 2.9 3.6 4.9 5.8 7 1 1 2.5 1.4 3.8 2 7 2.9 13.3 1.7 19.2-3.2 4.9-4 7-9 7.2-15.1.1-3-1.2-5.6-2.6-8-3.5-5.7-5.1-7-11.8-9.5-2.9-1.1-6-1.1-9 0-.8.3-1.6.5-2.4.7-1.7.6-3.4 1.2-4.6 2.6-.5.6-1.3.9-2 1.4-.3.2-.8.4-1 .7-1.5 2.7-3 5.4-4.6 8.3h-74.3c-.1-1.5-.3-2.6-.3-3.7v-18.5c0-3.6-.6-4.1-4.2-4.2H465c-.9-4.1-1.1-32.4-.2-35.3 1.1-.1 2.4-.2 3.6-.2h49.3c3-.1 3.5-.6 3.5-3.6v-22.7c.9-.2 1.6-.4 2.3-.4h19.1c1.6 0 2.4.6 3.3 1.9 1.6 2.3 2.6 5 5 6.9 5.5 4.4 11.6 6.4 18.4 4.1 3.7-1.3 7.4-3.4 9.4-7.3.2-.5.6-.9.9-1.3 3.7-5.1 3.7-10.6 1.6-16.3-1.3-3.5-3.6-6.3-6.5-8.3-2.9-1.9-6.1-3.7-9.8-3.9-3.5-.2-6.8.5-10 2.2-5.1 2.8-8.1 7-10.2 12.4H509c-.1-15.7-.2-31.2 0-47 2.2-.1 3.9-.3 5.7-.3h36.9c.7 0 1.5.1 2.2 0 2-.2 2.3-.6 2.4-2.6.1-1.1 0-2.1 0-3.2v-48.4c1.6-.1 2.9-.2 4.2-.3 9.8 0 19.5.2 29.3-.1 3.1-.1 5.7 1 8 2.5 3.6 2.3 6.9 5 10 7.9 3.8 3.6 7.5 7.2 10.8 11.3 3.1 3.8 6.2 7.5 9 11.5 2.7 4 5.3 8 6.1 12.9.5 3.4 1.5 6.7 2.5 10 .3 1 1.1 1.8 1.8 2.6 1.2 1.3 2.5 2.5 3.8 3.7 2.9 2.6 4.9 5.9 7.2 9 2.6 3.6 4.9 7.4 6.8 11.4 2.2 4.5 3.8 9.2 5.6 13.9 1.4 3.8 2.7 7.6 4 11.5.2.5.3 1 .3 1.5.3 4.6.8 9.3.8 13.9.2 16.3.2 32.7.2 49 0 2.7.1 5.4-1.9 7.7-.9 1.1-.9 3-1.1 4.5-.4 3.2-.2 6.7-1.3 9.7-1.4 3.9-.7 7.7-.9 11.5l.8 8.9zM403.4 678v-49.3c2.3-.6 44.8-.9 49.8-.3.7 2.1.9 45 .2 49.5-.9.1-1.9.3-2.9.3-14.6 0-29.3.1-43.9.1-.9-.1-1.9-.2-3.2-.3zm-10.6-263.1v-44.4c.4-.1.8-.3 1-.2 2.7 1.4 5.6.9 8.4.9H434c1.1 0 2.3.1 3.6.2v43.4c-2.5.8-41.5 1-44.8.1zm146.5-125.7H500c-.8-2.5-1.1-35-.4-39.5 2.2-.7 34.3-1 39.7-.3.1 13.2 0 26.3 0 39.8zm-47.9 24.5v37c-2.4.7-33.3.9-37.6.2v-37.2h37.6zM432 494.4h-33.9c-.8-2.3-1-31-.3-34.8 2.4-.6 31-.7 34.2-.1.8 2.8.8 31.9 0 34.9zm4.4 31.6v30c-2.1.8-26.6 1-30.7.3-.7-2.3-.9-26.5-.2-30.3 2.4-.6 27.4-.7 30.9 0zm8.5 180.6V735c-1.3.1-2.4.2-3.6.2h-17.8c-2.4 0-4.8.3-7.1.4-1-2.3-1.3-24.7-.5-28.9 2.2-.6 24.9-.8 29-.1zM341.1 610v-27.5h27.6c.8 2.6.9 24.5.2 27.5h-27.8zm116.7-97.1h25.4c.8 2.3.9 22.9.2 26.4H458c-.4-8.8-.2-17.5-.2-26.4zm-128.4-65.5h22.4v22.5c-.7.2-1.4.4-2.1.4h-18.1c-2.2 0-2.6-.2-2.6-2.3-.1-6.3-.1-12.5-.1-18.8 0-.5.3-1.1.5-1.8zm31.1 60.2v22.1h-22.7c-.1-1-.3-1.7-.3-2.4v-17.2c0-2.5.2-2.9 2.6-2.9 6.2-.1 12.3 0 18.5 0 .6-.1 1.2.2 1.9.4zm75.9 68.6v21.1c-2.4.9-18.2 1-21.6.1v-21.3h21.6z" style="fill:#fff"/>
</svg>
