<svg xmlns="http://www.w3.org/2000/svg" viewBox="0 0 1024 1024">
   <circle cx="512" cy="512" r="512" style="fill:#1f2374"/>
   <path d="M662.2 461.57c.27 4 3 7 4.62 10.37 2.2 4.6 4.91 9 7.4 13.41q3.94 7 7.88 14.1a151.05 151.05 0 0 1 9 17.61c1.05 2.63 2.22 5.22 3.16 7.88 1.87 5.29.65 8.94-3 13.42-.13.16-.39.22-.5.38-3 4.52-7.72 5.31-12.56 6.22-4.28.8-8.54 1.85-11.72 5.38s-3.62 6.47-.9 10.54 5.34 8 8 12a16 16 0 0 1 1.43 2.82c1.85 4.66-.31 10.58-4.63 13.2a74 74 0 0 0-6.36 4.44c-1.67 1.27-1.57 1.76-.28 3.63 2.88 4.18 5.43 8.48 5.51 13.82.05 3.46-1.21 5.75-4.24 7.79-4.37 2.93-9.36 4.11-14 6.22-6.1 2.77-8.61 7.39-4.51 13.64 4 6.07 5.6 12.61 4.24 19.62a28.94 28.94 0 0 1-3.55 9.74c-2.59 4.23-5.41 8.22-9.27 11.38a18.2 18.2 0 0 1-7.69 4.05c-2.87.62-5.58 2.07-8.46 2.57-7.4 1.29-14.63 3.43-22.19 3.95-5.47.37-10.89 1.55-16.35 2.22-3.26.39-6.57.33-9.83.73-12.13 1.45-24.33 1-36.5 1.41-3.88.14-7.6 1.47-11.35 2.6-3.55 1.07-6.28 3.32-9.36 5.06a8.78 8.78 0 0 0-3 3.17c-1.47 2.52-2.65 5.21-4 7.8-1.72 3.32-3.54 6.59-5.24 9.91s-3.45 7-5.21 10.48c-3.84 7.62-7.73 15.22-11.56 22.84-2.37 4.71-4.66 9.45-7 14.16q-5.18 10.21-10.34 20.37a6.3 6.3 0 0 1-2.1 2.5l-.58-51c-.22-17.06-.48-34.13-.73-51.73 1.76-.12 3.22-.29 4.67-.3 3.71 0 7.43.05 11.15 0 4.22 0 4.35-.13 4.35-4.23v-32.3c2.05-1.62 4.3-1.23 6.33-1.24 15.07-.07 30.15 0 45.22.06 2.73 0 5.46.27 7.49.38 2.33 3 4 5.77 6.19 7.92 5.21 5.05 13.71 7.1 20.7 3.22a22.3 22.3 0 0 0 9.07-8.91c3-5.5 1.51-14.32-2.56-19.17a21.61 21.61 0 0 0-9-6.42c-3.46-1.35-6.77-1.11-10.41-.09-4.35 1.22-7.39 3.88-10.18 7a15.93 15.93 0 0 0-2.47 4.69 3.51 3.51 0 0 1-3.21 2.2c-2.29.23-4.6.17-6.91.17h-66.89c-3.58 0-3.9-.28-3.95-3.72-.08-5.73-.14-11.47-.15-17.2 0-5.14 0-5.17 5.08-5.16 7.43 0 14.86.06 22.29.05 1.35 0 2.69-.23 4.3-.38V579c0-2.7-.07-2.83-2.86-2.85-8.39 0-16.77 0-25.16-.06h-4v-21.41c1.67-.1 3.33-.28 5-.28h48.09c15.08 0 30.15.05 45.23 0 8.07 0 16.14-.16 24.2-.34a4.79 4.79 0 0 1 5 2.8 20.49 20.49 0 0 0 6.06 7.14c4.38 2.89 9.49 4.48 14.82 2.81A23.34 23.34 0 0 0 623 562c5.75-5.24 7.93-17.4 2-23.93-1.82-2-3.19-4.36-5.7-5.66-5.39-2.8-10.82-3.43-16.67-1.21-4.2 1.59-6.77 4.83-9.41 8-.95 1.14-1.15 2.9-1.71 4.44-2.28.64-80.33.87-84.48.16-.09-1.47-.26-3-.27-4.57V499.1c-.14-2.88-.54-3.29-3.45-3.29h-38.09c-.08-1.45-.19-2.58-.19-3.71 0-5.41 0-10.83-.07-16.24-.09-5.08-.33-10.15-.5-15.23v-3.4c1.42-.07 2.56-.16 3.7-.17h96.51c2.41 0 4.21.27 5.19 2.94 1.06 2.92 3.61 4.87 5.78 7a11.58 11.58 0 0 0 3.78 2c7 2.85 13.3 1.66 19.18-3.19a19.22 19.22 0 0 0 7.22-15.13c.1-3-1.17-5.62-2.61-8-3.52-5.73-5.14-7-11.81-9.48a12.9 12.9 0 0 0-9 0c-.79.29-1.62.45-2.41.72a9.73 9.73 0 0 0-4.62 2.61 9.82 9.82 0 0 1-2 1.4c-.34.23-.81.4-1 .72-1.54 2.69-3 5.4-4.63 8.25h-74.33c-.11-1.48-.26-2.59-.27-3.71v-18.47c0-3.58-.6-4.15-4.25-4.15h-24.1c-.94-4.11-1.14-32.39-.2-35.31 1.11-.05 2.35-.16 3.59-.16h49.37c3-.12 3.52-.63 3.53-3.57v-22.74a13.62 13.62 0 0 1 2.28-.42h19.11a3.58 3.58 0 0 1 3.3 1.88c1.63 2.3 2.64 5 5 6.88 5.5 4.43 11.63 6.44 18.35 4.08 3.72-1.31 7.41-3.41 9.44-7.28a11 11 0 0 1 .89-1.28c3.7-5.13 3.72-10.57 1.6-16.31a17.19 17.19 0 0 0-6.47-8.29c-2.86-1.94-6.1-3.72-9.79-3.92a18.14 18.14 0 0 0-10 2.22c-5.12 2.78-8.11 7-10.17 12.43H509c-.09-15.68-.16-31.2 0-47 2.17-.11 3.95-.27 5.72-.27h36.95c.74 0 1.49.06 2.23 0 2-.2 2.34-.57 2.45-2.56.06-1.06 0-2.12 0-3.19V247.4c1.57-.1 2.9-.25 4.24-.25 9.77 0 19.54.16 29.3-.07a14 14 0 0 1 8 2.52 68.08 68.08 0 0 1 10 7.9 116.29 116.29 0 0 1 10.78 11.31c3.07 3.8 6.24 7.5 9 11.54s5.31 8 6.09 12.92a82.77 82.77 0 0 0 2.46 10 7 7 0 0 0 1.78 2.53c1.22 1.31 2.52 2.53 3.85 3.74 2.89 2.63 4.93 5.89 7.17 9a80.16 80.16 0 0 1 6.81 11.46c2.18 4.49 3.83 9.24 5.6 13.92 1.43 3.79 2.7 7.65 4 11.48a5.86 5.86 0 0 1 .33 1.53c.3 4.65.77 9.29.82 13.94.16 16.35.2 32.69.21 49 0 2.69.05 5.37-1.95 7.75-.9 1.07-.92 3-1.14 4.52-.45 3.24-.17 6.72-1.27 9.7-1.43 3.89-.72 7.7-.87 11.54ZM403.42 678v-49.3c2.27-.64 44.76-.88 49.84-.3.68 2.12.9 45 .19 49.48a26.56 26.56 0 0 1-2.93.32q-22 .06-43.94.05c-.93-.04-1.86-.19-3.16-.25Zm-10.66-263.11v-44.36c.42-.09.8-.31 1-.2 2.69 1.37 5.57.9 8.39.91h31.83c1.14 0 2.28.1 3.63.16v43.4c-2.47.84-41.54.96-44.85.09Zm146.55-125.74H500c-.82-2.54-1.07-35-.36-39.46 2.18-.71 34.3-1 39.7-.25.03 13.12-.02 26.29-.03 39.71Zm-48 24.54v37c-2.4.73-33.32.92-37.59.23v-37.23ZM432 494.43h-33.9c-.79-2.33-1-31-.27-34.79 2.41-.63 31-.74 34.16-.13.8 2.8.85 31.93.01 34.92Zm4.41 31.57v30c-2.15.79-26.65 1-30.7.33-.75-2.32-.94-26.47-.24-30.3 2.46-.65 27.42-.73 30.94-.03Zm8.51 180.64V735c-1.31.09-2.43.24-3.56.24h-17.81c-2.41 0-4.83.27-7.15.41-1-2.32-1.26-24.65-.5-28.91 2.22-.68 24.88-.85 29.02-.12ZM341.06 610v-27.49h27.63c.76 2.64.92 24.48.15 27.51Zm116.75-97.17h25.39c.78 2.29.93 22.93.16 26.45h-25.43c-.31-8.74-.14-17.48-.12-26.43ZM329.4 447.39h22.45v22.47a11.65 11.65 0 0 1-2.14.42h-18.13c-2.24 0-2.57-.25-2.6-2.26-.1-6.25-.09-12.51-.08-18.76a7.76 7.76 0 0 1 .5-1.87Zm31.12 60.23v22.07h-22.69a24.06 24.06 0 0 1-.27-2.42v-17.19c0-2.54.24-2.9 2.62-2.93 6.15-.08 12.31 0 18.46 0a8.73 8.73 0 0 1 1.88.47Zm75.89 68.57v21.12c-2.38.95-18.16 1-21.6.13V576.2Z" style="fill:#fff"/>
</svg>
