<?xml version="1.0" encoding="utf-8"?>
<!-- Generator: Adobe Illustrator 21.0.0, SVG Export Plug-In . SVG Version: 6.00 Build 0)  -->
<svg version="1.1" xmlns="http://www.w3.org/2000/svg" xmlns:xlink="http://www.w3.org/1999/xlink" x="0px" y="0px"
	 viewBox="0 0 1024 1024" style="enable-background:new 0 0 1024 1024;" xml:space="preserve">
<style type="text/css">
	.st0{fill:#1F2374;}
	.st1{fill:#FFFFFF;}
</style>
<g id="Guides">
</g>
<g id="Icon">
	<circle class="st0" cx="512" cy="512" r="512"/>
	<path id="Logomark" class="st1" d="M662.2,461.6c0.3,4,3,7,4.6,10.4c2.2,4.6,4.9,9,7.4,13.4c2.6,4.7,5.2,9.4,7.9,14.1
		c3.2,5.7,6.5,11.5,9,17.6c1.1,2.6,2.2,5.2,3.2,7.9c1.9,5.3,0.6,8.9-3,13.4c-0.1,0.2-0.4,0.2-0.5,0.4c-3,4.5-7.7,5.3-12.6,6.2
		c-4.3,0.8-8.5,1.9-11.7,5.4c-3.2,3.6-3.6,6.5-0.9,10.5c2.7,4,5.3,8,8,12c0.6,0.9,1,1.8,1.4,2.8c1.9,4.7-0.3,10.6-4.6,13.2
		c-2.2,1.3-4.3,2.9-6.4,4.4c-1.7,1.3-1.6,1.8-0.3,3.6c2.9,4.2,5.4,8.5,5.5,13.8c0.1,3.5-1.2,5.8-4.2,7.8c-4.4,2.9-9.4,4.1-14,6.2
		c-6.1,2.8-8.6,7.4-4.5,13.6c4,6.1,5.6,12.6,4.2,19.6c-0.6,3.3-1.7,6.7-3.6,9.7c-2.6,4.2-5.4,8.2-9.3,11.4c-2.3,1.9-4.7,3.4-7.7,4.1
		c-2.9,0.6-5.6,2.1-8.5,2.6c-7.4,1.3-14.6,3.4-22.2,3.9c-5.5,0.4-10.9,1.6-16.3,2.2c-3.3,0.4-6.6,0.3-9.8,0.7
		c-12.1,1.5-24.3,1-36.5,1.4c-3.9,0.1-7.6,1.5-11.3,2.6c-3.6,1.1-6.3,3.3-9.4,5.1c-1.2,0.7-2.3,1.9-3,3.2c-1.5,2.5-2.6,5.2-4,7.8
		c-1.7,3.3-3.5,6.6-5.2,9.9c-1.8,3.5-3.5,7-5.2,10.5c-3.8,7.6-7.7,15.2-11.6,22.8c-2.4,4.7-4.7,9.5-7,14.2
		c-3.4,6.8-6.8,13.6-10.2,20.3c-0.5,0.9-1,1.7-2.1,2.5c-0.2-17-0.4-34-0.6-51c-0.2-17.1-0.5-34.1-0.7-51.7c1.8-0.1,3.2-0.3,4.7-0.3
		c3.7,0,7.4,0.1,11.1,0c4.2,0,4.3-0.1,4.4-4.2c0-9.3,0-18.7,0-28v-4.3c2.1-1.6,4.3-1.2,6.3-1.2c15.1-0.1,30.1,0,45.2,0.1
		c2.7,0,5.5,0.3,7.5,0.4c2.3,3,4,5.8,6.2,7.9c5.2,5.1,13.7,7.1,20.7,3.2c3.9-2.2,6.9-5,9.1-8.9c3-5.5,1.5-14.3-2.6-19.2
		c-2.6-3.1-5.5-5-9-6.4c-3.5-1.4-6.8-1.1-10.4-0.1c-4.3,1.2-7.4,3.9-10.2,7c-1.1,1.3-1.8,3-2.5,4.7c-0.6,1.5-1.9,2.1-3.2,2.2
		c-2.3,0.2-4.6,0.2-6.9,0.2c-22.3,0-44.6,0-66.9,0c-3.6,0-3.9-0.3-3.9-3.7c-0.1-5.7-0.1-11.5-0.1-17.2c0-5.1,0-5.2,5.1-5.2
		c7.4,0,14.9,0.1,22.3,0.1c1.3,0,2.7-0.2,4.3-0.4v-3.8c0-11.4,0-22.7,0-34.1c0-2.7-0.1-2.8-2.9-2.8c-8.4,0-16.8,0-25.2-0.1
		c-1.3,0-2.5,0-4,0v-21.4c1.7-0.1,3.3-0.3,5-0.3c16,0,32.1,0,48.1,0c15.1,0,30.2,0.1,45.2,0c8.1,0,16.1-0.2,24.2-0.3
		c2.3-0.1,3.7,0.5,5,2.8c1.5,2.7,3.5,5.5,6.1,7.1c4.4,2.9,9.5,4.5,14.8,2.8c3.3-1,6.4-2.4,9.1-4.8c5.7-5.2,7.9-17.4,2-23.9
		c-1.8-2-3.2-4.4-5.7-5.7c-5.4-2.8-10.8-3.4-16.7-1.2c-4.2,1.6-6.8,4.8-9.4,8c-0.9,1.1-1.1,2.9-1.7,4.4c-2.3,0.6-80.3,0.9-84.5,0.2
		c-0.1-1.5-0.3-3-0.3-4.6c0-12.7,0-25.5,0-38.2c0-0.6,0-1.3,0-1.9c-0.1-2.9-0.5-3.3-3.4-3.3c-11.3,0-22.5,0-33.8,0h-4.3
		c-0.1-1.4-0.2-2.6-0.2-3.7c0-5.4,0-10.8-0.1-16.2c-0.1-5.1-0.3-10.2-0.5-15.2c0-1,0-2.1,0-3.4c1.4-0.1,2.6-0.2,3.7-0.2
		c32.2,0,64.3,0,96.5,0c2.4,0,4.2,0.3,5.2,2.9c1.1,2.9,3.6,4.9,5.8,7c1,1,2.5,1.4,3.8,2c7,2.9,13.3,1.7,19.2-3.2c4.9-4,7-9,7.2-15.1
		c0.1-3-1.2-5.6-2.6-8c-3.5-5.7-5.1-7-11.8-9.5c-2.9-1.1-6-1.1-9,0c-0.8,0.3-1.6,0.5-2.4,0.7c-1.7,0.6-3.4,1.2-4.6,2.6
		c-0.5,0.6-1.3,0.9-2,1.4c-0.3,0.2-0.8,0.4-1,0.7c-1.5,2.7-3,5.4-4.6,8.3h-74.3c-0.1-1.5-0.3-2.6-0.3-3.7c0-6.2,0-12.3,0-18.5
		c0-3.6-0.6-4.1-4.2-4.2c-7,0-14,0-21,0h-3.1c-0.9-4.1-1.1-32.4-0.2-35.3c1.1-0.1,2.4-0.2,3.6-0.2c15.7,0,31.4,0,47.1,0
		c0.7,0,1.5,0,2.2,0c3-0.1,3.5-0.6,3.5-3.6c0-6.4,0-12.7,0-19.1v-3.6c0.9-0.2,1.6-0.4,2.3-0.4c6.4,0,12.7,0,19.1,0
		c1.6,0,2.4,0.6,3.3,1.9c1.6,2.3,2.6,5,5,6.9c5.5,4.4,11.6,6.4,18.4,4.1c3.7-1.3,7.4-3.4,9.4-7.3c0.2-0.5,0.6-0.9,0.9-1.3
		c3.7-5.1,3.7-10.6,1.6-16.3c-1.3-3.5-3.6-6.3-6.5-8.3c-2.9-1.9-6.1-3.7-9.8-3.9c-3.5-0.2-6.8,0.5-10,2.2c-5.1,2.8-8.1,7-10.2,12.4
		H509c-0.1-15.7-0.2-31.2,0-47c2.2-0.1,3.9-0.3,5.7-0.3c12.3,0,24.6,0,36.9,0c0.7,0,1.5,0.1,2.2,0c2-0.2,2.3-0.6,2.4-2.6
		c0.1-1.1,0-2.1,0-3.2c0-14.8,0-29.5,0-44.3v-4.1c1.6-0.1,2.9-0.2,4.2-0.3c9.8,0,19.5,0.2,29.3-0.1c3.1-0.1,5.7,1,8,2.5
		c3.6,2.3,6.9,5,10,7.9c3.8,3.6,7.5,7.2,10.8,11.3c3.1,3.8,6.2,7.5,9,11.5c2.7,4,5.3,8,6.1,12.9c0.5,3.4,1.5,6.7,2.5,10
		c0.3,1,1.1,1.8,1.8,2.6c1.2,1.3,2.5,2.5,3.8,3.7c2.9,2.6,4.9,5.9,7.2,9c2.6,3.6,4.9,7.4,6.8,11.4c2.2,4.5,3.8,9.2,5.6,13.9
		c1.4,3.8,2.7,7.6,4,11.5c0.2,0.5,0.3,1,0.3,1.5c0.3,4.6,0.8,9.3,0.8,13.9c0.2,16.3,0.2,32.7,0.2,49c0,2.7,0.1,5.4-1.9,7.7
		c-0.9,1.1-0.9,3-1.1,4.5c-0.4,3.2-0.2,6.7-1.3,9.7c-1.4,3.9-0.7,7.7-0.9,11.5L662.2,461.6z M403.4,678v-49.3
		c2.3-0.6,44.8-0.9,49.8-0.3c0.7,2.1,0.9,45,0.2,49.5c-0.9,0.1-1.9,0.3-2.9,0.3c-14.6,0-29.3,0.1-43.9,0.1
		C405.7,678.2,404.7,678.1,403.4,678z M392.8,414.9v-44.4c0.4-0.1,0.8-0.3,1-0.2c2.7,1.4,5.6,0.9,8.4,0.9c10.6,0,21.2,0,31.8,0
		c1.1,0,2.3,0.1,3.6,0.2v43.4C435.1,415.6,396.1,415.8,392.8,414.9z M539.3,289.2H500c-0.8-2.5-1.1-35-0.4-39.5
		c2.2-0.7,34.3-1,39.7-0.3C539.4,262.6,539.3,275.7,539.3,289.2z M491.4,313.7v37c-2.4,0.7-33.3,0.9-37.6,0.2v-37.2H491.4z
		 M432,494.4h-33.9c-0.8-2.3-1-31-0.3-34.8c2.4-0.6,31-0.7,34.2-0.1C432.8,462.3,432.8,491.4,432,494.4z M436.4,526v30
		c-2.1,0.8-26.6,1-30.7,0.3c-0.7-2.3-0.9-26.5-0.2-30.3C407.9,525.4,432.9,525.3,436.4,526z M444.9,706.6V735
		c-1.3,0.1-2.4,0.2-3.6,0.2c-5.9,0-11.9,0-17.8,0c-2.4,0-4.8,0.3-7.1,0.4c-1-2.3-1.3-24.7-0.5-28.9
		C418.1,706.1,440.8,705.9,444.9,706.6z M341.1,610v-27.5c9.3,0,18.5,0,27.6,0c0.8,2.6,0.9,24.5,0.2,27.5H341.1z M457.8,512.9h25.4
		c0.8,2.3,0.9,22.9,0.2,26.4h-25.4C457.6,530.5,457.8,521.8,457.8,512.9z M329.4,447.4h22.4v22.5c-0.7,0.2-1.4,0.4-2.1,0.4
		c-6,0-12.1,0-18.1,0c-2.2,0-2.6-0.2-2.6-2.3c-0.1-6.3-0.1-12.5-0.1-18.8C328.9,448.7,329.2,448.1,329.4,447.4z M360.5,507.6v22.1
		h-22.7c-0.1-1-0.3-1.7-0.3-2.4c0-5.7,0-11.5,0-17.2c0-2.5,0.2-2.9,2.6-2.9c6.2-0.1,12.3,0,18.5,0
		C359.2,507.1,359.8,507.4,360.5,507.6z M436.4,576.2v21.1c-2.4,0.9-18.2,1-21.6,0.1v-21.3H436.4z"/>
</g>
</svg>
