<?xml version="1.0" encoding="utf-8"?>
<!-- Generator: Adobe Illustrator 21.0.0, SVG Export Plug-In . SVG Version: 6.00 Build 0)  -->
<svg version="1.1" xmlns="http://www.w3.org/2000/svg" xmlns:xlink="http://www.w3.org/1999/xlink" x="0px" y="0px"
	 viewBox="0 0 1024 1024" style="enable-background:new 0 0 1024 1024;" xml:space="preserve">
<style type="text/css">
	.st0{fill:#01ABEF;}
	.st1{fill:#FFFFFF;}
</style>
<g id="Min_Guides__x28_DO_NOT_REMOVE_x29_">
</g>
<g id="Max_Guides__x28_DO_NOT_REMOVE_x29_">
</g>
<g id="Icon">
	<circle id="Background" class="st0" cx="512" cy="512" r="512"/>
	<path class="st1" d="M716.1,503.3c8.2,0,16.4,0,24.7,0c1.8,0,2.2,0.5,2.2,2.2c-0.1,12.2-0.1,24.5,0,36.7c0,2.1-0.6,3.8-1.9,5.5
		C730.6,561.8,716.7,570,699,572c-28,3.1-55.2-14.6-62.8-41.6c-10.8-38.5,14.9-68.7,43.3-74.9c21-4.6,39,1.5,54.6,15.8
		c2.9,2.7,5.5,5.6,8,8.7c0.7,0.8,0.7,1.3-0.3,2.1c-5,3.4-9.8,6.6-14.5,10.2c-1.1,0.8-1.6,0.4-2.3-0.5c-6.2-7.8-14-13.5-23.8-15.9
		c-23.8-5.7-42.8,12.2-46.1,30c-4.8,24.8,14.3,43,31,45.5c13.6,2.1,25.4-1.2,35.2-11.4c0.8-0.9,1.3-1.9,1.3-3.2
		c-0.1-3.6-0.1-7.4,0-11c0-1.5-0.3-2-1.9-1.9c-9.7,0.1-19.5,0-29.2,0.1c-1.8,0-2.2-0.5-2.2-2.2c0.1-5.5,0.1-11,0-16.5
		c0-1.5,0.4-1.9,1.9-1.9C699.4,503.4,707.8,503.3,716.1,503.3L716.1,503.3z M493.1,496.4v2.5c0,22.8,0,45.7,0,68.5
		c0,2.1-0.6,2.4-2.5,2.4c-5.4-0.1-10.7-0.1-16.1,0c-1.5,0-2-0.3-2-1.9c0-36.4,0-73,0-109.4c0-1.6,0.4-1.9,2-1.9c5,0.1,10.1,0.1,15,0
		c1.3,0,2.1,0.4,2.9,1.5c16.5,23.5,33.2,46.7,49.8,70.2c0.4,0.6,0.8,1.1,1.3,1.9c0.5-1,0.3-1.8,0.3-2.4c0-22.8,0-45.7,0-68.5
		c0-2.2,0.6-2.6,2.6-2.5c5.4,0.1,10.7,0.1,16.1,0c1.5,0,2,0.3,2,1.9c0,36.4,0,73,0,109.4c0,1.6-0.5,1.9-2,1.9c-5-0.1-10-0.1-14.8,0
		c-1.5,0-2.4-0.4-3.2-1.7c-16.6-23.6-33.2-46.9-49.8-70.3C494.3,497.6,494,496.8,493.1,496.4L493.1,496.4z M279.9,512.8
		c0.1-33.1,26.3-58.8,59.5-59.2c31.9-0.2,59.2,27.2,59.1,59.6c-0.1,31.6-27,59.3-59.8,59.1C306.8,572.2,279.2,545.6,279.9,512.8
		L279.9,512.8z M377.6,513.2c0-21.4-17.1-38.5-38.4-38.5c-21.1,0-38.7,17.4-38.7,38.4c0,21.1,17.5,38.7,38.7,38.7
		C360.2,551.8,377.6,534.5,377.6,513.2L377.6,513.2z M226.6,572.2c-29,0-53.1-19.4-58.5-47.4c-7.3-37.8,19.8-65.4,47.1-70.1
		c18.5-3.2,34.7,1.7,49.1,13.4c1.9,1.6,3.6,3.2,5.5,4.9c0.7,0.6,0.8,1,0.1,1.9c-4.5,4.2-8.8,8.3-13.1,12.6c-1.2,1.1-1.8,0.3-2.4-0.3
		c-5.2-4.9-11.1-8.7-18-10.8c-24.4-7.1-44.6,11.1-48.2,29.7c-4.6,24.6,14.3,42.6,31,45.3c11.2,1.9,21.1-1,30.1-7.7
		c1.9-1.5,3.6-3,5.5-4.6c0.8-0.7,1.3-0.8,2,0c4.4,4.4,8.7,8.6,13.2,12.8c0.8,0.7,0.6,1.1-0.1,1.9c-9.7,9.7-21,16.3-34.8,18.2
		l-1.2,0.1C231.1,572.1,228.6,572.4,226.6,572.2L226.6,572.2z M857.2,456.8c-6.1,8.6-11.9,16.9-17.9,25.2
		c-7.8,11.1-15.6,22.1-23.5,33.1c-0.7,1-1,2.2-1,3.4c0,16.4,0,32.8,0,49.2c0,1.7-0.4,2.2-2.2,2.2c-5.4-0.1-10.7-0.1-16.1,0
		c-2,0-2.6-0.3-2.6-2.5c0.1-16.3,0-32.6,0.1-48.8c0-1.3-0.3-2.4-1-3.4c-13.3-18.7-26.5-37.4-39.6-56.2c-0.4-0.7-1-1.2-1.3-2.4h1.9
		c7.2,0,14.3,0,21.6,0c1.3,0,2.1,0.4,2.9,1.5c8.1,11.7,16.4,23.4,24.6,35.1c1.3,2,1.3,2,2.8-0.1c8.2-11.7,16.5-23.2,24.7-35.1
		c0.7-1,1.5-1.5,2.9-1.5c7.3,0.1,14.5,0,21.8,0C855.7,456.8,856.2,456.8,857.2,456.8L857.2,456.8z M421.5,513c0-18,0-36,0-54
		c0-1.9,0.6-2.4,2.4-2.3c5.5,0.1,10.8,0.1,16.4,0c1.3,0,1.9,0.2,1.9,1.8c0,36.6,0,73.2,0,109.7c0,1.3-0.5,1.7-1.8,1.7
		c-5.6,0-11.2-0.1-16.9,0c-1.6,0-1.9-0.5-1.9-2C421.6,549.6,421.5,531.3,421.5,513L421.5,513z M592.5,513.4c0-18.1,0-36.2,0-54.3
		c0-1.8,0.5-2.2,2.2-2.1c5.6,0.1,11.2,0.1,16.7,0c1.3,0,1.8,0.3,1.8,1.8c0,36.6,0,73.3,0,109.7c0,1.3-0.5,1.7-1.8,1.7
		c-5.6,0-11.3-0.1-16.9,0c-1.6,0-1.9-0.4-1.9-1.9C592.6,550.1,592.5,531.7,592.5,513.4z M602.3,383.7c-2.4,0-4.6,0-7,0
		c-3.6,0.1-5.6,2.2-5.7,5.8c0,4.2,0,8.3,0,12.5c0,3.6,2.2,5.7,5.7,5.7c4.5,0,9,0,13.5,0c2.9,0,4.5,1.5,4.5,4.4c0,4.2,0,8.3,0,12.5
		c0,2.9-1.6,4.5-4.5,4.5c-4,0-8.1,0-12.2,0c-2.9,0-4.5-1.7-4.5-4.6c0-4,0-8.1,0-12.2c0-3.6-2.1-5.7-5.7-5.7c-4.4,0-8.6,0-12.9,0
		c-3.6,0-5.1-1.5-5.1-5v-11.6c0-3.1,1.6-4.8,4.8-4.8c4,0,8.1,0,12.2,0c5,0,6.6-1.7,6.6-6.7v-11.1c0-3.2,1.6-4.8,4.8-4.8
		c3.9,0,7.9,0,11.8,0c2.9,0,4.5,1.6,4.6,4.5c0,4,0,8.1,0,12.2c0,2.9-1.6,4.5-4.6,4.5C606.6,383.7,604.5,383.7,602.3,383.7
		L602.3,383.7z"/>
</g>
</svg>
