<svg xmlns="http://www.w3.org/2000/svg" viewBox="0 0 1024 1024">
   <circle cx="512" cy="512" r="512" style="fill:#008afb"/>
   <path d="M252.63 545.31A34.41 34.41 0 1 1 287 510.9a34.42 34.42 0 0 1-34.37 34.41zm0-53.73a19.31 19.31 0 1 0 19.31 19.31 19.36 19.36 0 0 0-19.31-19.31zm59.2-13.9H297v67.88h14.85zm29.76 67.88h-15v-67.88h15v10.19c3.9-7.86 13.21-11.64 20.76-11.64 16.42 0 25.86 10.63 25.86 29.76v39.51h-15v-37.81c0-10.76-5.54-16.86-14.22-16.86-8.87 0-17.43 4.78-17.43 18.18zm32.15-100.16h95.44v14.41h-41.45v85.75H412v-85.75h-38.32V445.4zm94.18 100.16H453v-67.88h15v12.27c4.66-8.49 9.69-12.27 18.62-13.72a18.8 18.8 0 0 1 12.08 2.64l-2.45 13.84a21.26 21.26 0 0 0-10-2.33c-12.77 0-18.18 12.77-18.18 30.83l-.06 24.35zm88.33-9.75c-4.53 7.42-14.41 11.2-22.84 11.2-18.31 0-34.48-13.78-34.48-35.48s16.11-35.3 34.48-35.3c8.12 0 18.18 3.33 22.84 11v-9.56h14.85v67.88h-14.84zm-21.08-3.33c11.07 0 21-7.68 21-21.08s-10.76-20.64-21-20.64c-11.32 0-20.76 8.12-20.76 20.64s9.44 21.08 20.76 21.08zm82.54-56.25c10.76 0 20.51 4.22 26.86 11.77L633 497.31a20.13 20.13 0 0 0-15.29-6.54c-11.32 0-21.39 8-21.39 20.64s10 21.2 21.39 21.2a20.23 20.23 0 0 0 15.29-6.67l11.77 9.19c-6.47 7.54-16.16 11.87-27.1 11.87-19.5 0-36.18-14.09-36.18-35.61s16.73-35.16 36.24-35.16zM669.26 514v31.5h-14.85V440.75h14.85V500l21.52-22.4h20.07l-28.95 29.52 35.48 38.38H698.2zm67.38-36.3h-14.85v67.88h14.85zm29.76 67.88h-15v-67.9h15v10.19c3.9-7.86 13.21-11.64 20.76-11.64 16.42 0 25.86 10.63 25.86 29.76v39.51H798v-37.81c0-10.76-5.54-16.86-14.22-16.86-8.87 0-17.43 4.78-17.43 18.18zm129.29-35.18a32.68 32.68 0 0 0-7.86-21.14L896 478.5l-12.33-8.18-7.49 9.88a38.1 38.1 0 0 0-16.86-3.9c-20.07 0-36.36 15.35-36.36 34.16s16.29 34.16 36.36 34.16c12.71 0 21.52 6.42 21.52 12.14s-8.87 12.14-21.52 12.14-21.52-6.42-21.52-12.14H823c0 15.1 16 27 36.36 27s36.36-11.83 36.36-27c0-8.3-4.84-15.6-12.52-20.51a33.57 33.57 0 0 0 12.49-25.85zm-57.88 0c0-10.63 9.69-19.31 21.52-19.31s21.52 8.68 21.52 19.31-9.69 19.31-21.52 19.31S837.8 521 837.8 510.4zm-658.6 37.12a51.26 51.26 0 1 1 36.3-87.52l-11.14 11.14a35.55 35.55 0 1 0 0 50.27l11.14 11.14a51 51 0 0 1-36.3 14.97zM304.6 440.25a9.75 9.75 0 1 1-9.75 9.75 9.75 9.75 0 0 1 9.75-9.75zm424 0a9.75 9.75 0 1 1-9.7 9.75 9.75 9.75 0 0 1 9.75-9.75z" style="fill:#fff"/>
</svg>
