<svg xmlns="http://www.w3.org/2000/svg" viewBox="0 0 1024 1024">
   <circle cx="512" cy="512" r="512" style="fill:#f94a29"/>
   <path d="m267.5 540.28 17.94 15.38a58.2 58.2 0 0 1-12.3 12.6 75.94 75.94 0 0 1-19.35 11 65.14 65.14 0 0 1-24.19 4.4 69.76 69.76 0 0 1-35.87-9.2 65.22 65.22 0 0 1-24.39-25 72.32 72.32 0 0 1-8.84-36 74.87 74.87 0 0 1 5-27.6 70.12 70.12 0 0 1 14.5-22.77 66.31 66.31 0 0 1 22-15.38 70.61 70.61 0 0 1 28.41-5.6 65.31 65.31 0 0 1 33.45 7.8 69.75 69.75 0 0 1 21.56 19.39l-18.13 16a56 56 0 0 0-15.12-15 38.93 38.93 0 0 0-21.77-5.6 39.32 39.32 0 0 0-23 6.59 43.67 43.67 0 0 0-14.91 17.8 55.43 55.43 0 0 0-5.25 24 52.25 52.25 0 0 0 5.24 23.39 42.29 42.29 0 0 0 14.52 16.8 38.71 38.71 0 0 0 22 6.2 44.85 44.85 0 0 0 19.15-3.4 39.52 39.52 0 0 0 11.69-8l7.66-7.8m25-7.6a50.48 50.48 0 0 1 6.45-25.2 49.58 49.58 0 0 1 18.14-18.39 56.24 56.24 0 0 1 53.61 0 49.57 49.57 0 0 1 18.14 18.39 52.45 52.45 0 0 1 0 50.39 52.33 52.33 0 0 1-89.88.2 50.48 50.48 0 0 1-6.45-25.19Zm51.19 30.2a24.11 24.11 0 0 0 15.12-4.6 28.62 28.62 0 0 0 9.07-11.6 35.36 35.36 0 0 0 3-13.8 34.56 34.56 0 0 0-3-13.8 28.82 28.82 0 0 0-9.07-11.6 27.14 27.14 0 0 0-30.23 0 28.63 28.63 0 0 0-8.87 11.4 34.56 34.56 0 0 0-3 13.8 35.16 35.16 0 0 0 3 14 28.42 28.42 0 0 0 9.07 11.6 24.11 24.11 0 0 0 15.12 4.6m56.21-117.58h24v25.2h-24Zm0 40h24v95h-24Zm33.45 95v-94.81h23l.6 10.8a51.11 51.11 0 0 1 10.68-8.4 33.66 33.66 0 0 1 18.14-4.4 34.59 34.59 0 0 1 27.21 10.6 41.33 41.33 0 0 1 9.47 28.6v57.59h-24.2v-57.4a18.91 18.91 0 0 0-5-14 17.4 17.4 0 0 0-12.9-5 21.24 21.24 0 0 0-16.52 7.2 25.68 25.68 0 0 0-6.45 17.8v51.39Zm385.35-72.39 42.34-62.62h-40.1l-22 35-22.6-35h-44.31l2 2.8-1.41-.59a90.11 90.11 0 0 0-32.83-5.78 71.79 71.79 0 0 0-36.88 9.4 66.31 66.31 0 0 0-20.36 18.39 57.4 57.4 0 0 0-22.17-16.8 92.53 92.53 0 0 0-37.48-7.22h-52.2v134.79h52a91.1 91.1 0 0 0 37.48-7.4 59.22 59.22 0 0 0 22.17-16.6 65.14 65.14 0 0 0 20.76 18.39 73.2 73.2 0 0 0 36.68 9 78.3 78.3 0 0 0 35.07-7.6l-2.82 4.2h39.5l26.41-41.42 27.21 41.42h45.13Zm-209.8 30.77a36.79 36.79 0 0 1-27.43 10H567v-72h14.7a36.3 36.3 0 0 1 28.22 10 37.2 37.2 0 0 1 9.07 26 35.4 35.4 0 0 1-9.87 26Zm144.48 9.83-17.13-16a54.88 54.88 0 0 1-14.51 13 38.55 38.55 0 0 1-19.35 4.2 36.3 36.3 0 0 1-18.94-4.8 32.49 32.49 0 0 1-12.52-13.4 41.92 41.92 0 0 1-4.44-19.39 41.15 41.15 0 0 1 4.23-19 33.1 33.1 0 0 1 12.3-13.4 36.5 36.5 0 0 1 19.55-5 35.28 35.28 0 0 1 18.14 4.6 45.62 45.62 0 0 1 13.71 12.42L752.58 474l26.2 37.39Z" style="fill:#fff"/>
</svg>
