<svg xmlns="http://www.w3.org/2000/svg" viewBox="0 0 1024 1024">
   <circle cx="512" cy="512" r="512" style="fill:#0182ff"/>
   <path d="M623.89 232a28.11 28.11 0 0 0-10.3 1.81l-226.27 98.86-.89.38a61.06 61.06 0 0 0-35 42.38 61 61 0 0 0 31.38 40.65L413.7 430l240.92-105.11v-62.84A30.7 30.7 0 0 0 623.89 232Zm30.79 119.24-209.54 91.49 93.36 40.72h.18v.18l31.09 13.58 68.46-29.94.62-.33a30.59 30.59 0 0 0 15.83-26.78Zm-305.36 38.33v149.28L654 671.87v-89.66a30.26 30.26 0 0 0-17.52-26.92l-98.5-43v-.18h-.18L413.12 457.7l-30.91-13.92-.81-.43a61 61 0 0 1-32.08-53.79Zm0 176.7V638a60.7 60.7 0 0 0 37.41 53.49l224.65 98.14a32.62 32.62 0 0 0 11.93 2.37A30.7 30.7 0 0 0 654 761.27v-62Z" style="fill:#fff"/>
</svg>
