<svg id="Mark_white" xmlns="http://www.w3.org/2000/svg" viewBox="0 0 150 150"><defs><style>.cls-1{fill:#fff;}.cls-2{fill:#ffd75f;}.cls-3{fill:#4fb5e1;}.cls-4{fill:#f05751;}.cls-5{fill:#0681b6;}.cls-6{fill:#cd4739;}.cls-7{fill:#ffda00;}.cls-8{fill:#67b3ff;}.cls-9{fill:#eb5a68;}.cls-10{fill:#47a1ff;}.cls-11{fill:#d5465f;}</style></defs><circle class="cls-1" cx="75" cy="75" r="75"/><path class="cls-2" d="M60.18,92.14h0a24.44,24.44,0,0,1,0-34.64h0A9.63,9.63,0,0,0,46.55,43.86a43.72,43.72,0,0,0,0,61.9A9.63,9.63,0,0,0,60.18,92.14Z"/><path class="cls-3" d="M60.18,57.48h0a24.52,24.52,0,0,1,34.69,0h0a9.63,9.63,0,1,0,13.63-13.62,43.85,43.85,0,0,0-62,0A9.63,9.63,0,1,0,60.18,57.48Z"/><path class="cls-4" d="M94.89,92.14h0a24.52,24.52,0,0,1-34.69,0h0a9.63,9.63,0,1,0-13.63,13.62,43.85,43.85,0,0,0,62,0A9.63,9.63,0,0,0,94.89,92.14Z"/><path class="cls-5" d="M60.18,57.48a9.63,9.63,0,1,1,0-13.62A9.64,9.64,0,0,1,60.18,57.48Z"/><path class="cls-6" d="M60.18,105.76a9.63,9.63,0,1,1,0-13.62A9.64,9.64,0,0,1,60.18,105.76Z"/><path class="cls-7" d="M60,91.81a24.49,24.49,0,0,1,.13-34.58A9.61,9.61,0,1,0,46.6,43.61a43.66,43.66,0,0,0-.19,61.76A9.61,9.61,0,1,0,60,91.81Z"/><path class="cls-8" d="M60.16,57.23a24.48,24.48,0,0,1,34.58.12,9.61,9.61,0,1,0,13.62-13.56,43.53,43.53,0,0,0-61.7-.24,9.61,9.61,0,0,0,13.5,13.68Z"/><path class="cls-9" d="M94.68,91.94A24.41,24.41,0,0,1,77.36,99,24.12,24.12,0,0,1,60.1,91.81a9.61,9.61,0,1,0-13.63,13.56,43.6,43.6,0,0,0,61.77.25A9.63,9.63,0,0,0,94.68,91.94Z"/><path class="cls-10" d="M60.16,57.23a9.61,9.61,0,1,1,.06-13.56A9.64,9.64,0,0,1,60.16,57.23Z"/><path class="cls-11" d="M60,105.37A9.61,9.61,0,1,1,60,91.81,9.63,9.63,0,0,1,60,105.37Z"/></svg>