<?xml version="1.0" encoding="utf-8"?>
<!-- Generator: Adobe Illustrator 21.0.0, SVG Export Plug-In . SVG Version: 6.00 Build 0)  -->
<svg version="1.1" xmlns="http://www.w3.org/2000/svg" xmlns:xlink="http://www.w3.org/1999/xlink" x="0px" y="0px"
	 viewBox="0 0 1024 1024" style="enable-background:new 0 0 1024 1024;" xml:space="preserve">
<style type="text/css">
	.st0{fill:#089EDA;}
	.st1{fill:#FFFFFF;}
	.st2{fill-rule:evenodd;clip-rule:evenodd;fill:#FFFFFF;}
</style>
<g id="Min_Guides__x28_DO_NOT_REMOVE_x29_">
</g>
<g id="Max_Guides__x28_DO_NOT_REMOVE_x29_">
</g>
<g id="Icon">
	<circle id="Background" class="st0" cx="512" cy="512" r="512"/>
	<g>
		<path class="st1" d="M685.5,298.2c-0.1,0-0.1,0-0.2,0c0,0,0,0,0,0c-225.6,37.4-362.3,89.6-410,156.6
			c-13.2,18.5-19.6,38.2-19.2,59.1v6.7c-0.5,18.5,5.9,36.3,19.2,53.6c42.5,55.4,155.6,104.4,339.3,147.2c0.1,0,0.2,0,0.3,0.1
			c0.1,0,0.2,0,0.3,0.1l-0.9-0.9C454.6,569.5,478.4,428.7,685.5,298.2L685.5,298.2L685.5,298.2z M613.3,328.5
			c-73,58.3-113.1,119.7-119.3,182.9c-5.8,58.7,17.4,119.1,69,179.9C416.4,653,324.2,610.3,288.7,563.9
			c-10.9-14.2-16.1-28.3-15.7-42.9l0-0.4v-6.7l0-0.4c-0.4-17.3,4.9-33.3,16-48.9c21.8-30.6,65.7-58.7,130.5-83.4
			C470.8,361.6,535.8,343.9,613.3,328.5"/>
		<path class="st2" d="M685.5,298.2c26-5.2,53.5-10.2,82.5-15c-258.2,141.1-283.7,293.4-76.4,456.9l0.7,0.7
			c-27-7-52.7-13.4-77.1-19.3l-0.9-0.9C454.6,569.5,478.4,428.7,685.5,298.2L685.5,298.2z"/>
	</g>
</g>
</svg>
