<svg id="Layer_1" data-name="Layer 1" xmlns="http://www.w3.org/2000/svg" viewBox="0 0 150 150"><defs><style>.cls-1{fill:#0033a3;}.cls-2{fill:#ffda00;}.cls-3{fill:#67b3ff;}.cls-4{fill:#eb5a68;}.cls-5{fill:#47a1ff;}.cls-6{fill:#d5465f;}</style></defs><circle class="cls-1" cx="75" cy="75" r="75"/><path class="cls-2" d="M61.2,92.29a24.59,24.59,0,0,1-7.14-17.44,24.3,24.3,0,0,1,7.26-17.37A9.68,9.68,0,0,0,47.67,43.76a44,44,0,0,0-.19,62.18A9.68,9.68,0,1,0,61.2,92.29Z"/><path class="cls-3" d="M61.32,57.48a24.57,24.57,0,0,1,17.44-7.14A24.32,24.32,0,0,1,96.13,57.6,9.67,9.67,0,1,0,109.84,44a43.82,43.82,0,0,0-62.11-.25A9.68,9.68,0,0,0,61.32,57.48Z"/><path class="cls-4" d="M96.07,92.41a24.59,24.59,0,0,1-17.44,7.14,24.34,24.34,0,0,1-17.37-7.26,9.67,9.67,0,1,0-13.71,13.65,43.88,43.88,0,0,0,62.17.24A9.69,9.69,0,0,0,96.07,92.41Z"/><path class="cls-5" d="M61.32,57.48a9.68,9.68,0,1,1,.06-13.65A9.71,9.71,0,0,1,61.32,57.48Z"/><path class="cls-6" d="M61.13,105.94a9.68,9.68,0,1,1,.07-13.65A9.7,9.7,0,0,1,61.13,105.94Z"/></svg>