<svg xmlns="http://www.w3.org/2000/svg" viewBox="0 0 1024 1024">
   <circle cx="512" cy="512" r="512" style="fill:#00aaeb"/>
   <path d="M735.49 457.36a148.51 148.51 0 0 0-105.21-43.66A148.62 148.62 0 0 0 525 457.36L491.07 491l31.75 31.75 33.74-33.79a104.09 104.09 0 0 1 177.65 73.62 104.14 104.14 0 0 1-104 104.14 103.63 103.63 0 0 1-60.38-19.48l-1 1s-23 23.36-30.67 31.29a148.26 148.26 0 0 0 92 32.11A149 149 0 0 0 779 562.63a148.26 148.26 0 0 0-43.51-105.27zm-246 179A103.68 103.68 0 0 1 415.92 667a104.14 104.14 0 0 1-104-104.24v-.26a104 104 0 0 1 104-103.88A103.58 103.58 0 0 1 476 477.91l.87-.92 31.24-31.24a148.67 148.67 0 0 0-92-32.05A149 149 0 0 0 267 562.52a148.87 148.87 0 0 0 148.82 148.87 148.62 148.62 0 0 0 105.26-43.3c2.1-2 33.28-33.74 33.28-33.74l-31.74-31.75zm-79.6-242.54a103.58 103.58 0 0 1 98.82-71.88 103.52 103.52 0 0 1 73.57 30.67 102.25 102.25 0 0 1 25.56 42.89 162.83 162.83 0 0 1 18.66-1.43h7.05a177.34 177.34 0 0 1 20.81 1.64A148.26 148.26 0 0 0 508.81 277a148.26 148.26 0 0 0-146.72 125.61 168.09 168.09 0 0 1 47.8-8.79z" style="fill:#fff"/>
</svg>
