<svg xmlns="http://www.w3.org/2000/svg" viewBox="0 0 1024 1024">
   <circle cx="512" cy="512" r="512" style="fill:#0056d2"/>
   <path d="M128 511.92c0-29.79 24.35-53.72 54.8-53.72a55.18 55.18 0 0 1 46.32 24.6L206.29 496a28.55 28.55 0 0 0-23.49-12.18c-15.66 0-28.49 13.05-28.49 28.06S167.14 540 182.8 540a28.23 28.23 0 0 0 24.14-13.3l22.6 13.48a55.14 55.14 0 0 1-46.76 25.45c-30.43.01-54.78-24.37-54.78-53.71Zm106.2 0c0-29.58 24.35-53.5 54.8-53.5 30.66 0 55 23.93 55 53.5 0 29.36-24.36 53.72-55 53.72-30.44 0-54.8-24.38-54.8-53.72Zm83.51 0c0-14.79-12.83-27.84-28.71-27.84-15.66 0-28.49 13.05-28.49 27.84 0 15 12.83 28.06 28.49 28.06 15.91.02 28.71-13.05 28.71-28.06Zm469.12.87c0-32.4 26.31-54.37 50.24-54.37 16.31 0 25.66 5 32 14.57l2.51-12.63H896v103.32h-24.46L868.38 553c-7.17 7.83-16.1 12.63-31.31 12.63-23.49.01-50.24-20.63-50.24-52.84Zm83.51-.22a28.59 28.59 0 1 0-57.17.22c0 14.35 12.83 27.18 28.49 27.18 15.85.03 28.68-12.82 28.68-27.39Zm-113.57-40.23v-12H730v103.34h26.75V508c0-16.75 8.27-25.44 22.6-25.44 1 0 1.85.07 2.74.15l5-24.94c-13.96.09-24.09 4.87-30.32 14.57Zm-268.77 0v-12l-26.75.06.23 103.29 26.75-.06-.14-55.63c0-16.74 8.21-25.46 22.56-25.49a26 26 0 0 1 2.74.15l4.93-25c-13.97.17-24.08 4.97-30.32 14.69Zm-134.71 51.32v-63.28H380v60c0 13.26 7.39 21.09 20.22 21.09 14.35 0 22.6-8.7 22.6-25.45v-55.64h26.75v103.3h-26.69v-12c-6.3 9.79-16.53 14.57-30.66 14.57-23.92.04-38.93-17.36-38.93-42.59ZM613.73 512c.06-28.93 20.76-53.68 53.6-53.62 30.45.06 51.93 24.45 51.86 53.19a53.23 53.23 0 0 1-.66 8.48l-78.72-.15c3 12.4 13.22 21.33 28.67 21.37 9.35 0 19.36-3.44 25.46-11.26l18.24 14.63c-9.38 13.25-25.93 21-43.53 21-31.09-.05-54.97-23.37-54.92-53.64Zm78.53-10.73c-1.5-10.44-12.36-18.51-25.19-18.53a27.35 27.35 0 0 0-26.35 18.44Zm-173.78 39.89 23.77-12.45c3.93 8.52 11.79 13.54 22.92 13.54 10.26 0 14.19-3.27 14.19-7.86 0-16.62-56.32-6.55-56.32-44.54 0-21 18.34-32.08 41-32.08 17.25 0 32.52 7.64 40.82 21.83l-23.56 12.47c-3.49-7-10-10.92-18.34-10.92-8.07 0-12 2.84-12 7.64 0 16.16 56.32 5.9 56.32 44.54 0 20.08-16.37 32.3-42.78 32.3-22.5-.02-38.17-7.44-46.02-24.47ZM128 511.92c0-29.79 24.35-53.72 54.8-53.72a55.18 55.18 0 0 1 46.32 24.6L206.29 496a28.55 28.55 0 0 0-23.49-12.18c-15.66 0-28.49 13.05-28.49 28.06S167.14 540 182.8 540a28.23 28.23 0 0 0 24.14-13.3l22.6 13.48a55.14 55.14 0 0 1-46.76 25.45c-30.43.01-54.78-24.37-54.78-53.71Z" style="fill:#fff"/>
</svg>
