<?xml version="1.0" encoding="utf-8"?>
<!-- Generator: Adobe Illustrator 21.0.0, SVG Export Plug-In . SVG Version: 6.00 Build 0)  -->
<svg version="1.1" xmlns="http://www.w3.org/2000/svg" xmlns:xlink="http://www.w3.org/1999/xlink" x="0px" y="0px"
	 viewBox="0 0 1024 1024" style="enable-background:new 0 0 1024 1024;" xml:space="preserve">
<style type="text/css">
	.st0{display:none;}
	.st1{fill:#297EF2;}
	.st2{fill:#FFFFFF;}
</style>
<g id="Guides" class="st0">
</g>
<g id="Icon">
	<circle class="st1" cx="512" cy="512" r="512"/>
	<path id="Logo" class="st2" d="M632.4,688H391.6C316.8,688,256,626.8,256,551.6c0-35.9,13.7-69.8,38.7-95.4
		c21.8-22.4,50.1-36.4,80.8-40c3.6-30.8,17.5-59.3,39.8-81.3c25.5-25.1,59.2-38.9,94.8-38.9c35.6,0,69.3,13.8,94.8,38.9
		c22.2,21.9,36.1,50.2,39.8,80.9c69.1,6.2,123.4,64.8,123.4,135.9C768,626.8,707.2,688,632.4,688L632.4,688z M632.9,662.5h1
		c59.8,0,108.5-49.2,108.5-109.8c0-60.5-48.7-109.8-108.5-109.8h-1.1c-7.8,0-14.2-6.3-14.4-14.2c-1.3-59.1-50-107.2-108.4-107.2
		s-107.1,48.1-108.4,107.2c-0.2,7.8-6.4,14-14.1,14.2c-58.4,1.4-105.9,50.6-105.9,109.7c0,60.5,48.7,109.8,108.5,109.8h0.9l0.3,0
		c0.3,0,0.6,0,0.9,0L632.9,662.5L632.9,662.5z M579.6,543.4L579.6,543.4c2.3,1.5,3,4.7,1.5,7c-1,1.5-2.6,2.3-4.2,2.3
		c-0.9,0-1.9-0.3-2.7-0.8c-2.3-1.5-4.1-3.2-5.7-4.9c-17,15.4-38.4,23.1-59.9,23.1c-21.4,0-42.8-7.7-59.8-23
		c-1.5,1.8-3.4,3.4-5.6,4.8c-0.9,0.6-1.8,0.8-2.7,0.8c-1.7,0-3.3-0.8-4.2-2.3c-1.5-2.3-0.9-5.5,1.5-7c8.6-5.6,9-16,9-16.4
		c0.1-2.8,2.4-5,5.2-4.9c2.8,0.1,5,2.4,4.9,5.1c0,0.4-0.2,5.3-2.5,11.1c30.5,28.9,78.3,28.8,108.8-0.2c-2.3-5.7-2.4-10.5-2.5-10.9
		c-0.1-2.8,2.2-5.1,4.9-5.1c2.8,0,5.1,2.2,5.1,5C570.6,527.5,571,537.8,579.6,543.4z"/>
</g>
</svg>
