<svg xmlns="http://www.w3.org/2000/svg" viewBox="0 0 1024 1024">
   <circle cx="512" cy="512" r="512" style="fill:#297ef2"/>
   <path d="M632.4 688H391.6C316.8 688 256 626.8 256 551.6c0-35.9 13.7-69.8 38.7-95.4 21.8-22.4 50.1-36.4 80.8-40 3.6-30.8 17.5-59.3 39.8-81.3 25.5-25.1 59.2-38.9 94.8-38.9 35.6 0 69.3 13.8 94.8 38.9 22.2 21.9 36.1 50.2 39.8 80.9 69.1 6.2 123.4 64.8 123.4 135.9C768 626.8 707.2 688 632.4 688zm.5-25.5h1c59.8 0 108.5-49.2 108.5-109.8 0-60.5-48.7-109.8-108.5-109.8h-1.1c-7.8 0-14.2-6.3-14.4-14.2-1.3-59.1-50-107.2-108.4-107.2s-107.1 48.1-108.4 107.2c-.2 7.8-6.4 14-14.1 14.2-58.4 1.4-105.9 50.6-105.9 109.7 0 60.5 48.7 109.8 108.5 109.8h2.1l240.7.1zm-53.3-119.1c2.3 1.5 3 4.7 1.5 7-1 1.5-2.6 2.3-4.2 2.3-.9 0-1.9-.3-2.7-.8-2.3-1.5-4.1-3.2-5.7-4.9-17 15.4-38.4 23.1-59.9 23.1-21.4 0-42.8-7.7-59.8-23-1.5 1.8-3.4 3.4-5.6 4.8-.9.6-1.8.8-2.7.8-1.7 0-3.3-.8-4.2-2.3-1.5-2.3-.9-5.5 1.5-7 8.6-5.6 9-16 9-16.4.1-2.8 2.4-5 5.2-4.9 2.8.1 5 2.4 4.9 5.1 0 .4-.2 5.3-2.5 11.1 30.5 28.9 78.3 28.8 108.8-.2-2.3-5.7-2.4-10.5-2.5-10.9-.1-2.8 2.2-5.1 4.9-5.1 2.8 0 5.1 2.2 5.1 5-.1.4.3 10.7 8.9 16.3z" style="fill:#fff"/>
</svg>
