<svg xmlns="http://www.w3.org/2000/svg" viewBox="0 0 1024 1024">
   <circle cx="512" cy="512" r="512" style="fill:#ff6c2c"/>
   <path d="M202.33 470.35h46.37l-7.17 27.49a17.36 17.36 0 0 1-6.15 9.23 16.63 16.63 0 0 1-10.46 3.49h-21.56a20.88 20.88 0 0 0-13 4.31 22.57 22.57 0 0 0-7.9 11.69 21.82 21.82 0 0 0-.31 10.46 22.64 22.64 0 0 0 4 8.72 20.71 20.71 0 0 0 7.39 6.05 21.71 21.71 0 0 0 9.85 2.26h13.11a7.39 7.39 0 0 1 6.05 3 7.11 7.11 0 0 1 1.37 6.67l-8.21 30.36h-14.36a58 58 0 0 1-27.18-6.46 61.4 61.4 0 0 1-20.66-17.13 60.46 60.46 0 0 1-11.18-24.28 59.85 59.85 0 0 1 .72-28l.82-3.08a60.65 60.65 0 0 1 21.64-32.31 61.49 61.49 0 0 1 17.1-9.13 59.5 59.5 0 0 1 19.72-3.34Zm23.39 123.71 40.42-151.41a17.36 17.36 0 0 1 6.15-9.23 16.63 16.63 0 0 1 10.46-3.49h42.89a58 58 0 0 1 27.18 6.46 61 61 0 0 1 31.9 41.44 57.31 57.31 0 0 1-.82 28l-.82 3.08a61.47 61.47 0 0 1-8.21 18.16 59.94 59.94 0 0 1-50.06 26.77h-37.12l7.39-27.7a17.36 17.36 0 0 1 6.15-9 16.63 16.63 0 0 1 10.46-3.49h11.9a21.58 21.58 0 0 0 20.93-16.21 20.1 20.1 0 0 0 .27-10.09 22.64 22.64 0 0 0-4-8.72 21.72 21.72 0 0 0-7.39-6.15 20.93 20.93 0 0 0-9.81-2.36h-23l-30 111.41a17.36 17.36 0 0 1-6.15 9 16.33 16.33 0 0 1-10.26 3.49Zm255.85-80.84.62-2.26a3 3 0 0 0-.51-2.74 3.13 3.13 0 0 0-2.56-1.13h-66.69a16.41 16.41 0 0 1-7.8-1.85 17.06 17.06 0 0 1-5.74-4.79 16.82 16.82 0 0 1-3.08-6.84 17.44 17.44 0 0 1 .21-8l4.1-15.59h90.27a32.41 32.41 0 0 1 15.39 3.69 35.51 35.51 0 0 1 11.63 9.64 34.43 34.43 0 0 1 6.36 13.68 34.05 34.05 0 0 1-.31 15.9l-16.21 60.32A27.78 27.78 0 0 1 480.17 594l-66.68-.21a35.28 35.28 0 0 1-28.35-14 37.2 37.2 0 0 1-6.57-14.36 33.84 33.84 0 0 1 .41-16.52l.82-3.08a32.54 32.54 0 0 1 4.82-10.67 36.93 36.93 0 0 1 7.9-8.41 35.6 35.6 0 0 1 10.05-5.44 35 35 0 0 1 11.69-1.95h56l-4.1 15.39a17.43 17.43 0 0 1-6.15 9 16.36 16.36 0 0 1-10.26 3.49h-25a4.34 4.34 0 0 0-4.51 3.49 4.19 4.19 0 0 0 .82 4 4.55 4.55 0 0 0 3.69 1.74h40.42a6.34 6.34 0 0 0 3.9-1.23 5.31 5.31 0 0 0 2.05-3.28l.41-1.64ZM601 470.35a58.4 58.4 0 0 1 27.36 6.46 61.43 61.43 0 0 1 20.64 17.1 60.45 60.45 0 0 1 11.17 24.41 58.66 58.66 0 0 1-.92 28.11L649 585a11.3 11.3 0 0 1-4.41 6.57A12.46 12.46 0 0 1 637 594h-22.07a7.52 7.52 0 0 1-7.39-9.64l12.31-46.57a20.1 20.1 0 0 0 .31-10.05 22.73 22.73 0 0 0-4-8.72 21.88 21.88 0 0 0-7.39-6.15 21 21 0 0 0-9.85-2.36h-23L556 585a11.22 11.22 0 0 1-4.41 6.57 12.75 12.75 0 0 1-7.69 2.46H522a7.37 7.37 0 0 1-6-3 7.13 7.13 0 0 1-1.37-6.67l30.36-114.07Zm120.84 39.08a10.49 10.49 0 0 0-3.49 5l-9.23 34.88a6.15 6.15 0 0 0 5.95 7.8H800l-6.55 24.41a17.36 17.36 0 0 1-6.15 9 16.33 16.33 0 0 1-10.3 3.55h-77.35a33.12 33.12 0 0 1-15.39-3.59 33.84 33.84 0 0 1-11.63-9.64 35.21 35.21 0 0 1-6.36-13.75 31.46 31.46 0 0 1 .51-15.73l12.52-46.57a46.63 46.63 0 0 1 29.61-31.9 45.07 45.07 0 0 1 15.09-2.57h54.78a32.38 32.38 0 0 1 15.38 3.68 35.45 35.45 0 0 1 11.63 9.64A33.27 33.27 0 0 1 812 497.4a34.33 34.33 0 0 1-.41 15.8l-3.69 14a26.71 26.71 0 0 1-9.9 14.89 27.41 27.41 0 0 1-16.91 5.61h-62l4.1-15.18a16.26 16.26 0 0 1 5.95-9 16.63 16.63 0 0 1 10.53-3.52h25a4.35 4.35 0 0 0 4.51-3.49l.82-3.08a4.73 4.73 0 0 0-4.51-5.95h-38.13a8.69 8.69 0 0 0-5.55 1.96Zm78 84.63L841 439.17a11.67 11.67 0 0 1 4.39-6.67 12.41 12.41 0 0 1 7.71-2.56h22a7.6 7.6 0 0 1 6.26 3 7.13 7.13 0 0 1 1.37 6.67l-30.81 114.24a51 51 0 0 1-7.28 16.41 53.79 53.79 0 0 1-11.9 12.62 55.84 55.84 0 0 1-15.28 8.21 52.56 52.56 0 0 1-17.69 2.98Z" style="fill:#fff"/>
</svg>
