<?xml version="1.0" encoding="utf-8"?>
<!-- Generator: Adobe Illustrator 21.0.0, SVG Export Plug-In . SVG Version: 6.00 Build 0)  -->
<svg version="1.1" xmlns="http://www.w3.org/2000/svg" xmlns:xlink="http://www.w3.org/1999/xlink" x="0px" y="0px"
	 viewBox="0 0 1024 1024" style="enable-background:new 0 0 1024 1024;" xml:space="preserve">
<style type="text/css">
	.st0{fill:#F36C21;}
	.st1{fill:#FFFFFF;}
</style>
<g id="Min_Guides__x28_DO_NOT_REMOVE_x29_">
</g>
<g id="Max_Guides__x28_DO_NOT_REMOVE_x29_">
</g>
<g id="Icon">
	<circle id="Background" class="st0" cx="512" cy="512" r="512"/>
	<path class="st1" d="M671.2,371.6h3c3.7,0.3,7.4,2.1,9.7,5c3.4,4.2,4.3,9.8,4.6,15.1c0.8,16.1-2.7,32.1-7.3,47.5
		c-5.9,20.4-14.2,40-21,60.1c-1.2,3.5-2.4,7.1-3.3,10.7c-1.5,6-1.3,12.3-1.5,18.5c-0.2,5.8,0.2,11.6,1.3,17.3
		c0.6,3.1,1.9,6.4,4.3,8.6c2.2,2,5.4,2.9,8.3,2c3.9-1.2,7-4.2,9.8-7.1c3.9-4.3,7.6-8.7,10.3-13.8c3.8-6.8,6-14.3,7.1-22
		c1.5-11.6,2.7-23.4,6.9-34.4c1.6-4.2,3.6-8.5,7.4-11.1c5.1-3.6,12.8-2.1,16.7,2.7c1.9,2.4,2.4,5.5,2.4,8.4c-0.2,3.9-1,7.8-2.3,11.5
		c-4.5,13.2-7.1,27.1-6.6,41.1c0.1,3.2,0.4,6.6,2.1,9.5c1.4,2.4,3.8,4.3,6.6,4.3c3.2,0,6-1.9,8-4.2c3.1-3.5,5.6-7.5,7.6-11.7
		c4-8.5,5.9-17.8,7.6-27c1.4-7.8,2.8-15.6,5-23.2c1.2-3.9,2.7-7.8,5.6-10.8c1.9-2.1,4.8-2.9,7.5-2.9c2.8,0.1,5.4,1.7,7.3,3.8
		c2.6,2.9,3.1,6.9,2.8,10.6c-2.8,22.1-5.9,44.2-8.4,66.3c-1.8,13.8-3.4,27.6-4.6,41.4c-0.1,1.5,1.7,2.4,2.7,1.4
		c7.2-6.9,14.3-14.1,19.7-22.5c2.5-3.8,4.3-7.9,6.7-11.7c1-1.7,2.2-3.4,4.1-4c2.9-1.4,6.6-1,9.1,1c1.9,1.4,2.9,3.7,3.2,6v2.7
		c-0.6,4.6-3.3,8.5-5.3,12.5c-5.5,11-13.1,21-22.6,28.9c-6.8,5.8-14.8,10.2-23.2,13.2c-0.5,0.2-1.3,0.3-1.4,1
		c-3.1,12.7-10,24.4-19.3,33.5c-10.3,10.2-23.6,17.2-37.7,20.5c-7.7,1.7-15.8,2.4-23.6,1c-8-1.5-15.8-5.2-21.5-11
		c-5.2-5.2-8.7-12.1-9.3-19.5c-0.6-6.7,1.1-13.5,4.3-19.4c3.7-6.7,9.3-12.3,15.9-16.2c6.3-3.8,13.5-5.6,20.6-6.5
		c8.1-0.9,16.4-0.9,24.6-0.2c5.1,0.4,10.2,0.9,15.3,1.3c2.8,0.2,5.9,1.2,8.6-0.2c1.9-0.9,2.5-3.2,2.8-5.1c1.2-9,3-18.1,1.9-27.3
		c-0.2-1.2-0.5-3-2-3.1c-1.8,0.8-2.7,2.7-3.7,4.3c-3.1,6-8.9,10.6-15.6,11.9c-6.7,1.3-14-2.1-17.1-8.1c-1.5-2.5-2.2-5.5-4.4-7.6
		c-1.5-1.4-3.7-1.4-5.5-0.6c-3.2,1.4-5.3,4.3-7.9,6.5c-6.8,6.1-15.4,10.7-24.7,11.2c-10.8,0.7-21.9-5.4-26.4-15.4
		c-0.6-1.4-1.1-3.4-2.9-3.6c-2-0.3-3.5,1.3-4.6,2.7c-5.3,6.7-10.3,13.9-17.3,18.9c-4.5,3.2-9.9,5.4-15.5,5.3
		c-5.9-0.1-11.8-3.3-14.6-8.5c-1.3-2.3-1.8-5.2-3.9-7c-1.6-1.4-4.1-1.2-5.8-0.1c-2.6,1.5-4.1,4.2-6.2,6.3
		c-5.8,5.8-14.2,8.7-22.3,7.9c-9.8-1-18.7-7.8-22.3-17c-0.5-1.3-1.2-2.8-2.6-3.2c-1.1-0.4-2,0.4-2.7,1.1c-5.4,5-10.8,10.1-17.3,13.6
		c-6.6,3.5-13.9,5.8-21.4,5.6c-7.9,0.1-15.8-2.3-22.2-6.8c-5.4-3.7-9.7-8.9-12.2-15c-0.7-1.6-1.6-3.4-3.4-3.8c-1.6-0.4-3,0.8-3.9,2
		c-2.7,3.8-6.2,7.1-10.1,9.6c-6,3.9-13,6.6-20.3,6.6c-5.6,0-11.2-2.1-15.2-6c-4.3-4.2-6.6-10.1-7.5-16c-1.1-7.7,0.5-15.5,2.7-22.8
		c1.4-4.8,3.2-9.4,4.3-14.3c0.6-2.5,0.8-5.2-0.3-7.5c-0.9-1.8-2.8-2.9-4.6-3.7c-2-0.8-4.1,0.3-5.5,1.6c-1.4,1.3-2.1,3-2.9,4.7
		c-4.9,11.8-11.5,22.9-19.6,32.8c-7.8,9.6-17.1,17.9-27.1,25.2c-11.4,8.1-24.5,14-38.4,15.9c-10.1,1.4-20.6,0.6-30.4-2.3
		c-5.8-1.7-11.5-4.1-16.5-7.6c-8.6-6-15.5-14.3-20.4-23.5c-3.8-7.1-6.7-14.7-8.8-22.5c-2.9-11.1-3.9-22.5-4.4-33.9v-7.8
		c0.2-8.4,1-16.8,2.7-25c3-14.9,8.4-29.2,15.7-42.5c5.8-10.4,12.7-20.2,21.4-28.3c9.5-8.9,21-15.8,33.7-18.6
		c12.1-2.7,25.1-2,36.4,3.2c3.4,1.5,6.4,3.7,10,4.8c2.5,0.8,5.4,0.5,7.5-1.1c3.2-2.5,4.7-6.5,7.4-9.5c3.4-3.7,8.9-5.2,13.7-3.8
		c4.5,1.3,8,5.2,9.1,9.7c0.7,3,0.3,6.1-0.6,9c-1.4,4.1-3.7,7.8-5.9,11.5c-7.3,12.6-12.8,26.2-16.3,40.3c-1.1,4.3-2,8.8-3.7,12.9
		c-1.6,3.9-4.1,7.6-7.7,10c-3.1,2.1-7.2,3.1-10.9,2c-3.4-1-6-3.8-7.4-7c-1.6-3.4-2.1-7.3-1.6-11.1c1-8.9,5.9-17,6.1-26.1
		c0.2-5.1-1.5-10.4-5.5-13.7c-5.6-4.8-13.5-6.1-20.6-5.1c-8.4,1.1-16.3,5.1-22.5,10.8c-6.7,6.2-11.7,14-15.7,22.1
		c-11.6,23.2-16.7,49.8-13.7,75.6c1,8.4,3,16.8,7,24.4c2.5,4.8,5.8,9.1,9.9,12.5c5.3,4.4,11.7,7.4,18.5,8.7c9.7,1.9,19.9,0.6,29-2.9
		c12.2-4.7,22.8-13.1,31.2-23c4.5-5.1,8.4-10.7,12.2-16.4c3.8-5.3,7.8-10.9,9.3-17.4c1-4.3,0.1-8.7-0.9-12.9
		c-0.7-5.8,1.5-11.7,5.3-16c2.4-2.5,5.4-4.8,8.9-5.5c3.3-0.6,7,0,9.8,2.1c3.1,2.2,4.7,6.4,3.6,10.1c-0.7,2.4-1.5,4.9-0.8,7.4
		c0.7,2.1,2.8,3.4,4.9,3.5c4.8,0.4,9.8-0.5,14.4,1.1c5.4,2.1,10.2,6.4,12,12.1c1.2,3.8,1.6,8.1,0.4,11.9c-2.1,7.4-4.7,14.7-6.1,22.3
		c-0.4,2.5-0.8,5.1-0.1,7.6c0.4,1.8,2,3.4,3.9,3.5c3.3,0.3,6.3-1.5,8.6-3.7c4.7-4.7,7.8-10.7,10-16.9c2.7-7.5,4.1-15.4,6.1-23.1
		c2.1-7.9,5.3-15.6,10.3-22.1c7.4-9.8,19.4-16.1,31.8-15.8c6.9,0.1,13.7,2.8,18.6,7.8c4.1,4.2,6.3,9.9,7.2,15.7
		c1.5,9.8-0.3,20.1-4.8,29c-6.2,12.2-18.9,20.9-32.6,22c-2,0.2-4.3,0.1-5.8,1.6c-1.3,1.3-1.2,3.3-1,5c0.5,4.6,2,9.3,5.1,12.9
		c3.6,3.7,9,6.3,14.3,5.1c6.1-1.3,11.3-5.2,15.6-9.4c4.1-4.1,7.7-8.7,11-13.5c4.6-6.6,7.4-14.2,10.2-21.6c2.7-7.3,5.2-14.7,9.7-21.1
		c3.6-5.4,8.3-10.1,13.9-13.5c6.2-3.9,13.6-5.9,21-5.5c2.3,0.1,4.9,0.2,6.8-1.2c1.7-1.3,2.3-3.6,2.3-5.7c0-3.8,0.4-7.5,0.7-11.3
		c0.5-5.9,1-11.8,1.8-17.6c1.7-14.6,4.7-29,8.6-43.1c2-7.1,4.6-14.3,9.1-20.3c1.9-2.7,4.2-5.3,7.2-6.9c2.9-1.7,6.6-1.6,9.7-0.7
		c4,1.2,6.6,5,8.2,8.6c2.9,7.1,2.1,15,1.5,22.5c-0.8,11.8-3.6,23.4-6,35c-2.1,10.2-3.8,20.5-5.7,30.7c-2.6,14-5.1,28.1-7.7,42.1
		c-2.2,11.5-4.7,23.2-3.3,35c0.4,3.1,0.8,6.5,2.9,8.9c1.5,1.7,4,2.1,6,1.4c2.7-0.9,4.6-3.3,6-5.7c3.3-5.6,6.2-11.5,9.1-17.4
		c4.2-8.2,8.4-16.7,9.8-25.9c2.2-14,3.7-28.2,5.7-42.3c1.6-10.5,3.4-21,5.1-31.4c2.1-13.1,4.5-26.1,8.2-38.8
		c1.8-6,4.2-11.9,8.4-16.6C661.7,374.8,666.2,372.1,671.2,371.6z M478,487.8c-2,0.6-3.6,2.2-4.9,3.8c-2.9,3.7-5.1,7.9-6.6,12.4
		c-1.6,4.8-3.1,9.8-2.5,14.8c0.1,1.5,1.6,2.6,3,2.6c2.7,0.1,5.1-1.4,7.2-3c4.7-3.3,7.7-8.4,9.8-13.6c1.3-3.3,2.2-6.9,1.9-10.5
		c-0.2-2.4-1.4-4.9-3.5-6.1C481.1,487.4,479.4,487.3,478,487.8z M563.7,499c-5.6,1-10.6,4.3-14.2,8.7c-3.9,4.7-6.6,10.4-8,16.4
		c-2.1,8.5-2.3,17.5,0,26c0.7,2.6,1.9,5.2,3.9,7.1c1.3,1.3,3.1,2,4.9,2.1c4.7,0.7,9.1-1.9,12.7-4.6c4.5-3.3,7.4-8.2,9.2-13.4
		c1.1-3.2,0.4-6.6,0.1-9.9c-0.5-6.7-0.5-13.4-0.1-20.1c0.1-2.3,0.8-4.5,0.8-6.8c0-1.8-0.7-3.8-2.4-4.8
		C568.5,498.4,566,498.6,563.7,499z M697.4,618.6c-4.8,0.3-9.6,1.3-14.1,3.2c-4.9,2-9.1,5.7-11.2,10.5c-1.4,3-2,6.6-0.5,9.6
		c1.5,3.1,4.3,5.4,7.4,6.8c4.3,1.9,9.1,2.2,13.6,1.7c14.2-1.6,27.7-8.9,36.7-20c1.8-2.2,3.2-4.7,4.7-7.1c0.4-0.8,1-2.1,0.1-2.8
		c-1.1-0.8-2.5-0.5-3.7-0.5c-5.1-0.3-10.2-0.8-15.3-1C709.2,618.7,703.3,618.2,697.4,618.6z"/>
</g>
</svg>
