<svg xmlns="http://www.w3.org/2000/svg" viewBox="0 0 1024 1024">
   <circle cx="512" cy="512" r="512" style="fill:#009bde"/>
   <path d="M471.14 405.4v90.25h81.66V352.23h-55v-90.16h27.3v63.49h27.67v-90.18h-81.63v143.34h54v90.78h-27.3v-64.1zM512 768c-141.16 0-256-114.84-256-256a255.3 255.3 0 0 1 158.21-236.56l3.24-1.34v72.59l-1.17.68A191.28 191.28 0 0 0 321.45 512c0 105.07 85.48 190.54 190.55 190.54S702.55 617.06 702.55 512c0-66.79-35.77-129.55-93.35-163.79l-1.15-.68v-72.86l3.25 1.33A255.57 255.57 0 0 1 768 512c0 141.15-114.84 256-256 256z" style="fill:#fff"/>
</svg>
