<?xml version="1.0" encoding="utf-8"?>
<!-- Generator: Adobe Illustrator 21.0.0, SVG Export Plug-In . SVG Version: 6.00 Build 0)  -->
<svg version="1.1" xmlns="http://www.w3.org/2000/svg" xmlns:xlink="http://www.w3.org/1999/xlink" x="0px" y="0px"
	 viewBox="0 0 1024 1024" style="enable-background:new 0 0 1024 1024;" xml:space="preserve">
<style type="text/css">
	.st0{fill:#2E3340;}
	.st1{fill:#FFFFFF;}
</style>
<g id="Guides">
</g>
<g id="Icon">
	<circle class="st0" cx="512" cy="512" r="512"/>
	<g id="Crowdin_Symbol">
		<path class="st1" d="M755.3,456.5c1.1,0,2-1,2-2.1c0-1-0.7-1.8-1.7-1.9c-15.8-3.1-40.9-5.8-68.4-5.8
			c-61.6,0-135.5,13.2-145.3,64.1c-0.4,1.9-1.1,11.6-1.3,13.4c5.6,0.9,9.8,1.6,13,2.1c-0.4,2.5-0.6,5.1-0.6,7.7
			c-0.1,4.7,0,9.1,0.2,13.3c-4-0.5-8-1.1-12.1-1.7c5,52.7,33.9,67.7,64.2,68.4h2.1c19.1,0,38.6-5.5,52.8-10.7
			c1.1-0.4,1.6-1.5,1.3-2.6c-0.3-0.9-1.3-1.5-2.2-1.4c-27.9,3.8-71.4-1-61.7-71C605.6,470.3,716.2,458.8,755.3,456.5z M548.7,517.9
			c0.2-2.4,0.5-5,0.6-5.7c7.9-40.8,75.9-56.7,112.3-56.7c-34.5,8.1-70.8,23.8-78.6,53.3c-0.7,2.8-1.9,7.9-2.9,12.3
			c-6.7-0.7-10.2-0.9-13.1-1.1C560.9,519.7,554.8,519,548.7,517.9z M607.4,606.4c-32.8,0-51.7-17-57.6-51.9
			c9.6,1.3,19.4,2.4,29.3,2.7c4.1,28.7,17.7,42.6,32.1,49.1C609.9,606.4,608.7,606.4,607.4,606.4L607.4,606.4z"/>
		<path class="st1" d="M428.3,497.4c-0.5,2.9-1.7,17.5-2,20.3c8.5,1.2,14.4,2,19.5,2.6c-0.4,3.4-0.7,6.8-0.8,10.2
			c-0.1,7.9,0,15.2,0.5,22.1c-6-0.8-12.2-1.7-18.5-2.6c7.7,81.7,53.4,103.8,100.3,103.8c7.7,0,15.4-0.6,23-1.6
			c26.6-2.8,52.4-12,69.3-19.2c1-0.5,1.5-1.7,1-2.7c-0.4-0.8-1.3-1.3-2.2-1.2c-39.8,7.8-122.1,10.4-105.9-107.1
			c12.7-91.7,195.6-105.3,246.4-107.3c1.1,0,2-1,2-2.1c0-0.9-0.7-1.8-1.6-2c-23.1-5.4-64.8-10.3-111.1-10.3
			C555,400.3,443.2,420.4,428.3,497.4z M527.4,646.2c-52.7,0-83.5-29.3-91.7-87.3c17.4,2.6,34.9,4.3,52.4,4.9
			c6.6,54.4,35,74.6,63.7,80.5C543.7,645.5,535.6,646.2,527.4,646.2z M494.5,495.4c-1.3,5.1-3.6,14.6-5.1,21.9
			c-12.7-1.4-20.6-2.2-27.1-2.8c-9.4-0.9-15.3-1.5-27.7-3.2c0.4-4.7,1-11,1.2-12.4c15.9-82.1,154-91,212.6-91c4.5,0,8.9,0,13.3,0.1
			C590.2,414.7,510.1,435.8,494.5,495.4z"/>
		<path class="st1" d="M294.1,453.5v0.2V453.5z"/>
		<path class="st1" d="M293.9,454.5c0,0.1,0,0.3-0.1,0.4c0,0.1,0,0.2-0.1,0.3c0.1-0.5,0.2-1,0.3-1.4
			C294.1,454,294,454.2,293.9,454.5z"/>
		<path class="st1" d="M291.4,467.9c0.3-1.7,0.6-3.4,0.9-5.1C292,464.5,291.7,466.3,291.4,467.9z"/>
		<path class="st1" d="M292.6,461.5c0.3-1.6,0.6-3.2,0.9-4.5C293.2,458.4,292.9,459.9,292.6,461.5z"/>
		<path class="st1" d="M788.7,368.8c-42.1-16.2-145.3-37.9-247.7-37.9c-114.4,0-227.8,27.1-253.9,119.3c-1.2,4.3-4.8,26.1-5.7,30.4
			c12.4,3.2,21.2,5.4,28.1,7c-0.8,4.3-1.6,8.6-2.1,13.1c-1.4,12.6-2.1,24.3-2.4,35.5c-8.9-2.1-17.9-4.3-27.1-6.7
			c0,138,78.7,171.6,155.4,171.6c10.9,0,21.8-0.7,32.7-1.9c34.4-3.8,67.9-13.4,88.9-20.4c1.1-0.4,1.6-1.5,1.3-2.6
			c-0.3-0.9-1.2-1.5-2.2-1.4c-55.3,6.8-188.5,5.4-146.8-177.5c32.2-141.3,317.9-129,380.7-124.6c1.1,0.1,2.1-0.8,2.2-1.9
			C790.1,369.9,789.5,369.1,788.7,368.8z M292.3,462.8c-0.3,1.7-0.6,3.4-0.9,5.1C291.7,466.3,292,464.5,292.3,462.8L292.3,462.8z
			 M293.4,457c-0.3,1.3-0.6,2.9-0.9,4.5C292.9,459.9,293.2,458.4,293.4,457L293.4,457z M404.2,659c17.2,17.4,40.2,28,68.5,31.7
			c-13,1.8-26.2,2.7-39.4,2.8c-95.1,0-144.7-51.9-147.6-154.3c25.7,6.4,54.5,12.9,82.9,16.3C369.4,601.1,381.3,635.9,404.2,659z
			 M639.2,352.4c-140.5,0-227.6,36.5-252,105.6c-2.8,7.8-8.1,24.3-11.4,35.4c-7.7-1.6-14-2.9-19.2-4c-8.4-1.7-14.3-2.8-19.5-3.8
			c-12.6-2.4-19.9-3-46.9-10.6c0.1-0.3,0.2-0.7,0.2-1.1c1-5.5,2.4-13.9,3.4-18.5c0-0.2,0.1-0.4,0.1-0.5c0-0.2,0-0.3,0.1-0.4
			c0.1-0.4,0.2-0.8,0.2-1.1c0.1-0.3,0.1-0.5,0.2-0.7v-0.2C321,358.3,443.1,338.7,541,338.7l0,0c59.1,0,117.8,7.2,164.5,16.2
			C685.1,353.5,662.6,352.4,639.2,352.4z"/>
		<path class="st1" d="M294.4,452.4c0,0,0,0.1,0,0.2c0,0.1-0.1,0.4-0.2,0.7c0,0.1,0,0.1,0,0.2C294.2,453.1,294.3,452.7,294.4,452.4z
			"/>
	</g>
</g>
</svg>
