<?xml version="1.0" encoding="utf-8"?>
<!-- Generator: Adobe Illustrator 21.0.0, SVG Export Plug-In . SVG Version: 6.00 Build 0)  -->
<svg version="1.1" xmlns="http://www.w3.org/2000/svg" xmlns:xlink="http://www.w3.org/1999/xlink" x="0px" y="0px"
	 viewBox="0 0 1024 1024" style="enable-background:new 0 0 1024 1024;" xml:space="preserve">
<style type="text/css">
	.st0{fill:#002967;}
	.st1{fill:#FFFFFF;}
</style>
<g id="Min_Guides__x28_DO_NOT_REMOVE_x29_">
</g>
<g id="Max_Guides__x28_DO_NOT_REMOVE_x29_">
</g>
<g id="Icon">
	<circle id="Background" class="st0" cx="512" cy="512" r="512"/>
	<path class="st1" d="M714.2,628.8L512,745.5L309.8,628.8V395.3L512,278.5l202.2,116.8V628.8z M512,256L290.3,384v256L512,768
		l221.7-128V384L512,256z M598.9,366.5H424.7l-20.2,88.8h215.4L598.9,366.5z M455.6,577.6v-59L404,485.8l-58.4,43.4l79.6,138.4H457
		l37.6-35V615L455.6,577.6z M568.6,468.7H455.8l19,49.6L469,574h43l43.4-0.2l-5.4-55.4L568.6,468.7z M620.2,485.4l-51,33.2v59
		l-39,37.4v17.6l37.6,34.6h31.4l79.2-138L620.2,485.4z"/>
</g>
</svg>
