<svg xmlns="http://www.w3.org/2000/svg" viewBox="0 0 1024 1024">
   <circle cx="512" cy="512" r="512" style="fill:#002967"/>
   <path d="M732.4 639.26 512 766.5 291.64 639.26V384.79L512 257.5l220.4 127.29ZM512 233 270.39 372.51v279L512 791l241.61-139.51v-279Zm94.68 120.46H416.85l-22 96.8h234.74Zm-156.18 230v-64.31l-56.21-35.75-63.65 47.31 86.76 150.87h34.66l41-38.16v-19.18Zm123.18-118.6H450.75l20.71 54.07-6.31 60.61H512l47.31-.22-5.89-60.39ZM629.93 483l-55.58 36.19v64.32l-42.51 40.77v19.17l41 37.72H607l86.32-150.43Z" style="fill:#fff"/>
</svg>
