<svg viewBox="0 0 1024 1024" xmlns="http://www.w3.org/2000/svg">
   <circle cx="512" cy="512" r="512" style="fill:#9a2857"/>
   <path style="fill:#fff" d="M711.048 301.261c-2.99.97-5.063 1.55-7.07 2.325a32219.69 32219.69 0 0 0-176.57 66.758 24.855 24.855 0 0 1-18.616.367 325643.728 325643.728 0 0 0-183.14-64.604c-3.972-1.4-8.052-2.52-12.7-4.071V721.62c3.055-1.034 5.063-1.637 7.005-2.412 61.65-25.066 123.345-49.918 184.798-75.372a30.412 30.412 0 0 1 26.362.322c59.49 26.38 119.241 52.158 179.931 78.58zm-29.286 42.703v333.423c-54.95-23.387-109.224-47.247-163.52-71.064-185.192 62.167-196.76 80.532 0 0l-.503-201.437c16.258-5.943 32.54-11.8 48.754-17.852 38.125-14.105 76.206-28.426 115.27-43.07zm-30.837 155.287c-5.434.065-11.893 6.785-11.61 12.082.693 6.218 5.868 11.013 12.2 11.305 6.307-.557 11.22-5.643 11.48-11.887-.68-6.207-5.76-11.047-12.07-11.5z"/>
</svg>
