<svg version="1.1" x="0" y="0" viewBox="0 0 1024 1024" id="svg20" xmlns="http://www.w3.org/2000/svg">
   <defs id="defs24">
      <style id="style13628">
         .cls-2{fill:#4d5054}.cls-3{fill:#4c4f52}.cls-4{fill:#fdfdfd}.cls-5{fill:#9a2857}.cls-6{fill:#4d4c51}.st1,.st2,.st3{fill:none;stroke:#1ded7e;stroke-width:2;stroke-miterlimit:10;stroke-dasharray:2}.st3{stroke:#1d8ced}
      </style>
   </defs>
   <circle id="Background" cx="512" cy="512" r="512" style="display:inline;fill:#9a2857;fill-opacity:1"/>
   <path id="path13634" style="fill:#fff;stroke-width:3.05204" d="M790.254 213.328c-4.181 1.374-7.08 2.196-9.889 3.295a44697.479 44697.479 0 0 0-246.94 94.613 34.335 34.335 0 0 1-26.034.52c-85.295-30.52-170.67-61.04-256.127-91.56-5.555-1.985-11.261-3.573-17.762-5.77v594.66c4.273-1.465 7.08-2.32 9.797-3.418 86.22-35.526 172.502-70.747 258.447-106.822a42.027 42.027 0 0 1 36.867.457c83.199 37.387 166.764 73.92 251.64 111.369V213.328zm-40.957 60.522v472.546c-76.85-33.145-152.755-66.96-228.69-100.716a102384.207 102384.207 0 0 1-140.271 58.355c-34.58 14.345-69.191 28.596-105.053 43.399L520.607 645.68l-.703-285.489c22.738-8.423 45.507-16.724 68.184-25.3 53.319-19.991 106.577-40.288 161.209-61.041zM706.17 493.932c-7.6.091-16.633 9.615-16.236 17.123a18.007 18.007 0 0 0 17.06 16.021 17.64 17.64 0 0 0 16.055-16.846 18.312 18.312 0 0 0-16.88-16.298z"/>
</svg>
