<svg xmlns="http://www.w3.org/2000/svg" viewBox="0 0 1024 1024">
   <circle cx="512" cy="512" r="512" style="fill:#4a4a4a"/>
   <path d="M506.08 419.31a29.9 29.9 0 0 0-30 30v125.42a29.9 29.9 0 0 0 30 30h358.46a29.9 29.9 0 0 0 30-30V449.27a29.9 29.9 0 0 0-30-30Zm101.09 20.35q4.56 0 6.88 1.79a5.27 5.27 0 0 1 2.32 4.26 5 5 0 0 1-1.57 3.74 5.72 5.72 0 0 1-4.11 1.5 57.26 57.26 0 0 1-9.87-1.57 29.42 29.42 0 0 0-5.61-.75q-4.94 0-8.9 6.13t-6.36 16.45l-3.74 15.93H596l-1.2 5.31h-20l-11.8 47.7q-5.46 21.76-17.5 33t-26 11.22q-4.71 0-7.1-1.87a5.37 5.37 0 0 1-2.47-4.49 4.61 4.61 0 0 1 1.72-3.74 7.4 7.4 0 0 1 4.78-1.35 41.9 41.9 0 0 1 4.64.37 78.49 78.49 0 0 0 10 .67q7.4 0 10.77-3.52t6.73-17l15.18-61h-17.9l1.35-5.31h17.87q4.41-18.69 10.09-27.82A41.66 41.66 0 0 1 590 445q9.12-5.31 17.2-5.31Zm54.51.15a7.36 7.36 0 0 1 5 1.57 4.54 4.54 0 0 1 1.87 3.67 5 5 0 0 1-1.79 4 8 8 0 0 1-5.23 1.5 38.11 38.11 0 0 1-6.36-.75 40.7 40.7 0 0 0-6.66-.6 7.24 7.24 0 0 0-4.64 1.27q-2.17 1.79-4 7.55t-5.68 22.73L626.83 512q-5.53 23.55-5.53 24.6 0 2.39 1.72 2.39t4.79-1.94a74.85 74.85 0 0 0 12.41-9.95l2.54 2.69a74.32 74.32 0 0 1-13.83 12q-7.93 5.38-13.09 5.38a4.75 4.75 0 0 1-3.81-1.79 7.06 7.06 0 0 1-1.49-4.78q0-6 4.63-24.82l8.07-32.78q4.41-17.8 7.4-23.85a34.83 34.83 0 0 1 31-19.37Zm-499.77 21.64q-14.26 0-23.41 9.42t-9 24.23v33.52q0 15 9 24.37t23.41 9.42q32.54 0 32.54-38.08h-19v1.25q0 10.25-3.32 14.4t-10.25 4.15a13.83 13.83 0 0 1-9.56-3.46q-3.88-3.6-3.88-11.49v-34.63q0-7.76 3.88-11.22a13.52 13.52 0 0 1 9.56-3.6q13.57 0 13.57 17.31v1.38h19q0-17.31-8.31-27.14t-24.24-9.83Zm80.31 0q-14.4 0-23.13 7.76t-8.58 20.91a27.76 27.76 0 0 0 3.32 14 23.14 23.14 0 0 0 8.45 8.45 108.64 108.64 0 0 0 10.94 5.12q6 2.22 10.94 3.74a20 20 0 0 1 8.45 4.43 9 9 0 0 1 3.46 7.2q0 5.82-3.88 8.86t-10 2.91q-6.51 0-10.39-3.88t-3.74-12.19h-18.8q0 15.51 9 24.65t24 9.14q15 0 23.82-7.89t9-21.74q0-9.69-4.71-15.79a26.07 26.07 0 0 0-11.5-8.86q-6.6-2.61-13.43-4.57a40.31 40.31 0 0 1-11.44-5.13 9.76 9.76 0 0 1-4.71-8.45q0-11.22 12.6-11.22 13.16 0 13.16 15.23h18.75q0-15-8.72-23.82t-22.85-8.86Zm81.83 0q-14.26 0-23.27 9.42t-9 24.37v33.38q0 15 9 24.37t23.27 9.28q14.4 0 23.41-9.28t9.14-24.37v-17.73h-32.4v16.76h13.43v1.66q0 7.62-3.88 11.22a14 14 0 0 1-9.69 3.46q-6.23 0-9.83-3.6t-3.46-11.08v-32.13q0-9.42 3.46-13.43t10.11-4q13.3 0 13.29 14.68h19q-.28-14.54-9.42-23.68t-23.13-9.28Zm83.22 0q-14.26 0-23.41 9.56t-9 24.37v33.24q0 14.82 9 24.24t23.41 9.42q14.4 0 23.41-9.42t9.14-24.23v-33.25q0-15-9.14-24.37t-23.41-9.56Zm443.36 4.75-5.38 20.94h15.48l-1.2 5.31h-15.48l-6.58 25q-3.07 11.29-3.07 15.7a4.25 4.25 0 0 0 .82 2.92 3.24 3.24 0 0 0 2.39.9q2.32 0 7.1-2.77a93.12 93.12 0 0 0 12-8.3l2.84 3.44q-16.38 12.34-21.91 15.11t-8.9 2.77a5.4 5.4 0 0 1-4.41-2q-1.57-2-1.57-6.58 0-5.38 2.84-16.45l7.7-29.76h-12.13l1.35-5.31h12l4.19-16.37 11.89-4.56Zm-443.36 13.53a13.39 13.39 0 0 1 9.69 3.6q3.88 3.6 3.88 11.35v34.62q0 7.76-4 11.22a14.88 14.88 0 0 1-19.25-.14q-3.74-3.6-3.74-11.22v-34.61q0-7.76 3.88-11.22a13.52 13.52 0 0 1 9.56-3.6ZM794 480l-5.61 18.92q-3.36 11.29-6.35 26a69 69 0 0 0-1.65 10.32q0 2.32 1.87 2.32A9 9 0 0 0 786 536a49.07 49.07 0 0 0 8.9-6.88l2.39 2.92q-8.52 7.78-10.92 9.42a40.89 40.89 0 0 1-9.12 4.86 16 16 0 0 1-5.53 1 4.17 4.17 0 0 1-2.92-.9 3.38 3.38 0 0 1-1-2.62 11.17 11.17 0 0 1 .6-3.07l3-10.17a63.44 63.44 0 0 1-15.33 13.23q-5.46 3.44-10 3.44a7.85 7.85 0 0 1-6.66-3.07q-3.14-4.11-3.14-10.77 0-7.93 4.19-17.65a66 66 0 0 1 11.37-17.65 48.16 48.16 0 0 1 15-11.66q6.06-2.84 15.55-2.84a40.33 40.33 0 0 1 4.86.3L789 481l4.94-1Zm-95.56 2.32a15.22 15.22 0 0 1 12.19 5.83q4.86 5.83 4.86 16.22 0 16.6-11.66 29.83t-24.67 13.16q-8 0-12.93-5.23t-4.86-14.28a50.86 50.86 0 0 1 9-29q11.29-16.52 28.11-16.52Zm-6.44 5.57q-6.36 0-12.34 9.12t-5.91 25q0 9.72 3.66 15.33a8.22 8.22 0 0 0 7.18 4.11q6.28 0 11.44-7.77 6.58-10.09 6.58-25 0-11.22-3.06-16t-7.55-4.79Zm80.9 3.74a19.08 19.08 0 0 0-11.74 3.74q-5 3.66-9.35 13.31a46.71 46.71 0 0 0-4.26 19.14q0 5.08 1.72 7.33a5.39 5.39 0 0 0 4.49 2.24q5.16 0 11.07-5.53t8.67-16.08l6.21-23.33a35.21 35.21 0 0 0-6.81-.82Z" style="fill:#fff"/>
</svg>
