<svg xmlns="http://www.w3.org/2000/svg" viewBox="0 0 1024 1024">
   <circle cx="512" cy="512" r="512" style="fill:#4a4a4a"/>
   <path d="M161.45 461.39c-9.522 0-17.334 3.143-23.436 9.43-6.009 6.286-9.012 14.374-9.012 24.266v33.559c0 9.984 3.003 18.118 9.012 24.404 6.009 6.286 13.821 9.43 23.436 9.43 21.724 0 32.586-12.712 32.586-38.134H175.04v1.248c0 6.841-1.11 11.647-3.328 14.42-2.219 2.774-5.64 4.16-10.262 4.16-3.79 0-6.98-1.155-9.569-3.466-2.588-2.404-3.882-6.239-3.882-11.508V494.53c0-5.177 1.294-8.92 3.882-11.23 2.589-2.404 5.779-3.606 9.569-3.606 9.06 0 13.59 5.777 13.59 17.332v1.387h18.996c0-11.556-2.772-20.614-8.319-27.178-5.546-6.564-13.636-9.846-24.268-9.846zm80.416 0c-9.614 0-17.334 2.589-23.158 7.766-5.732 5.084-8.596 12.063-8.596 20.938 0 5.454 1.11 10.123 3.328 14.006 2.311 3.79 5.13 6.61 8.457 8.459 3.42 1.848 7.073 3.559 10.955 5.13 3.975 1.48 7.627 2.728 10.955 3.745 3.42.924 6.24 2.403 8.46 4.437 2.31 1.941 3.466 4.345 3.466 7.211 0 3.883-1.294 6.84-3.883 8.873-2.496 1.941-5.824 2.912-9.984 2.912-4.345 0-7.812-1.294-10.4-3.883-2.496-2.68-3.744-6.747-3.744-12.2h-18.857c0 10.353 3.003 18.58 9.012 24.681 6.101 6.102 14.099 9.153 23.99 9.153 9.984 0 17.935-2.635 23.852-7.905 6.008-5.361 9.011-12.618 9.011-21.77 0-6.47-1.57-11.74-4.713-15.809-3.143-4.16-6.98-7.118-11.51-8.875a144.095 144.095 0 0 0-13.45-4.576c-4.438-1.294-8.229-3.004-11.372-5.13-3.143-2.127-4.714-4.947-4.714-8.46 0-7.488 4.206-11.23 12.619-11.23 8.782 0 13.174 5.083 13.174 15.252h18.719c0-9.984-2.91-17.933-8.735-23.85s-13.452-8.875-22.88-8.875zm81.941 0c-9.522 0-17.288 3.143-23.297 9.43-6.009 6.286-9.012 14.42-9.012 24.404v33.42c0 9.984 3.003 18.118 9.012 24.404 6.009 6.193 13.775 9.29 23.297 9.29 9.614 0 17.427-3.096 23.436-9.29 6.101-6.287 9.15-14.42 9.15-24.404v-17.75h-32.447v16.779h13.451v1.664c0 5.084-1.294 8.827-3.882 11.23-2.589 2.31-5.825 3.467-9.707 3.467-4.16 0-7.443-1.202-9.846-3.606-2.311-2.496-3.467-6.192-3.467-11.092v-32.172c0-6.286 1.156-10.768 3.467-13.449s5.686-4.021 10.123-4.021c8.875 0 13.312 4.898 13.312 14.697h18.996c-.185-9.707-3.326-17.61-9.428-23.711-6.009-6.194-13.729-9.291-23.158-9.291zm83.328 0c-9.522 0-17.334 3.19-23.436 9.568-6.009 6.287-9.012 14.42-9.012 24.404v33.281c0 9.892 3.003 17.98 9.012 24.266 6.101 6.287 13.914 9.43 23.436 9.43 9.614 0 17.427-3.143 23.436-9.43 6.101-6.286 9.15-14.374 9.15-24.266v-33.28c0-9.985-3.049-18.119-9.15-24.405-6.009-6.378-13.821-9.568-23.436-9.568zm0 18.305c3.975 0 7.211 1.202 9.707 3.606 2.588 2.403 3.883 6.192 3.883 11.369v34.667c0 5.177-1.34 8.92-4.022 11.23-2.588 2.312-5.778 3.467-9.568 3.467-3.883 0-7.119-1.202-9.707-3.605-2.496-2.404-3.744-6.146-3.744-11.23V494.53c0-5.177 1.294-8.92 3.883-11.23 2.588-2.404 5.778-3.606 9.568-3.606z" style="fill:#ffffff"/>
   <path d="M506.07 419.19c-16.62 0-30 13.38-30 30v125.62c0 16.62 13.38 30 30 30H865c16.62 0 30-13.38 30-30V449.19c0-16.62-13.38-30-30-30zm101.22 20.373c3.045 0 5.34.599 6.887 1.797 1.547 1.198 2.322 2.62 2.322 4.267 0 1.498-.524 2.744-1.572 3.743-1.049.998-2.422 1.498-4.12 1.498-1.746 0-5.04-.524-9.882-1.573-2.396-.499-4.268-.748-5.615-.748-3.295 0-6.263 2.046-8.909 6.14-2.645 4.042-4.768 9.532-6.365 16.47l-3.742 15.947h19.766l-1.2 5.316h-19.99l-11.827 47.766c-3.644 14.525-9.484 25.531-17.52 33.018-7.986 7.487-16.671 11.23-26.055 11.23-3.145 0-5.516-.623-7.113-1.87-1.648-1.199-2.471-2.696-2.471-4.493 0-1.547.574-2.796 1.723-3.744 1.098-.898 2.694-1.348 4.79-1.348 1.049 0 2.597.126 4.643.375 3.494.45 6.837.674 10.031.674 4.942 0 8.535-1.173 10.781-3.52 2.246-2.295 4.492-7.96 6.738-16.993l15.2-61.094h-17.896l1.348-5.317h17.895c2.945-12.478 6.314-21.762 10.107-27.852 3.793-6.09 8.735-10.88 14.824-14.375 6.09-3.544 11.83-5.314 17.221-5.314zm54.582.148c2.146 0 3.818.525 5.016 1.573 1.247.998 1.87 2.222 1.87 3.67 0 1.597-.598 2.918-1.796 3.966-1.198.999-2.944 1.498-5.24 1.498-1.498 0-3.619-.248-6.364-.748-2.396-.399-4.617-.6-6.664-.6s-3.594.426-4.642 1.274c-1.448 1.198-2.77 3.717-3.967 7.56-1.148 3.844-3.046 11.432-5.692 22.763l-7.412 31.369c-3.693 15.723-5.539 23.934-5.539 24.633 0 1.597.573 2.394 1.72 2.394 1.099 0 2.697-.647 4.794-1.945 4.143-2.596 8.285-5.916 12.428-9.959l2.545 2.695c-3.893 4.393-8.51 8.411-13.85 12.055-5.291 3.594-9.66 5.39-13.104 5.39-1.548 0-2.82-.598-3.819-1.796-.998-1.148-1.496-2.745-1.496-4.791 0-3.993 1.546-12.279 4.64-24.857l8.087-32.867c2.945-11.879 5.415-19.84 7.412-23.883 3.094-6.14 7.463-10.907 13.104-14.301 5.69-3.394 11.68-5.092 17.969-5.092zm189.2 26.43-5.39 20.963h15.497l-1.199 5.317h-15.498l-6.588 25.08c-2.046 7.537-3.07 12.778-3.07 15.723 0 1.347.275 2.32.824 2.92.6.599 1.398.898 2.397.898 1.547 0 3.917-.923 7.111-2.77a93.243 93.243 0 0 0 11.98-8.31l2.844 3.443c-10.931 8.236-18.242 13.278-21.936 15.125s-6.664 2.77-8.91 2.77c-1.847 0-3.32-.674-4.418-2.022-1.049-1.347-1.573-3.543-1.573-6.587 0-3.594.95-9.086 2.846-16.473l7.71-29.797h-12.128l1.348-5.317h12.055l4.193-16.396zm-56.754 13.775-5.615 18.943c-2.246 7.537-4.367 16.22-6.364 26.053-1.098 5.341-1.648 8.785-1.648 10.332 0 1.548.625 2.323 1.873 2.323.799 0 2.071-.524 3.818-1.573 3.095-1.846 6.064-4.143 8.909-6.888l2.396 2.92c-5.69 5.19-9.334 8.335-10.932 9.433-3.194 2.196-6.238 3.82-9.133 4.867-1.896.7-3.744 1.047-5.54 1.047-1.298 0-2.272-.3-2.92-.898-.65-.6-.973-1.471-.973-2.62 0-.748.198-1.772.597-3.07l2.997-10.182c-4.293 5.141-9.41 9.559-15.35 13.252-3.644 2.296-6.987 3.444-10.031 3.444-2.895 0-5.117-1.024-6.665-3.07-2.096-2.746-3.144-6.34-3.144-10.781 0-5.291 1.398-11.18 4.193-17.668a66.058 66.058 0 0 1 11.38-17.67c4.741-5.291 9.733-9.184 14.974-11.68 4.043-1.897 9.234-2.844 15.572-2.844 1.598 0 3.22.099 4.868.299l1.796-2.92zm-95.686 2.323c4.891 0 8.959 1.946 12.203 5.84s4.867 9.308 4.867 16.246c0 11.08-3.893 21.038-11.68 29.873-7.786 8.784-16.022 13.176-24.707 13.176-5.34 0-9.657-1.747-12.95-5.24-3.245-3.495-4.868-8.262-4.868-14.302 0-10.482 2.995-20.164 8.984-29.049 7.537-11.03 16.92-16.545 28.15-16.545zm-6.363 5.615c-4.243 0-8.36 3.043-12.354 9.133-3.943 6.04-5.914 14.4-5.914 25.082 0 6.488 1.222 11.604 3.668 15.348 1.796 2.745 4.192 4.117 7.187 4.117 4.193 0 8.011-2.594 11.455-7.785 4.392-6.739 6.588-15.1 6.588-25.082 0-7.487-1.022-12.827-3.068-16.021-1.997-3.195-4.518-4.791-7.563-4.791zm81.01 3.742c-4.493 0-8.41 1.249-11.754 3.744-3.345 2.446-6.465 6.888-9.36 13.326-2.845 6.39-4.267 12.777-4.267 19.166 0 3.394.574 5.84 1.722 7.338 1.148 1.498 2.646 2.246 4.492 2.246 3.444 0 7.137-1.847 11.08-5.54 3.944-3.744 6.84-9.109 8.686-16.097l6.215-23.359c-2.695-.549-4.968-.824-6.815-.824z" style="fill:#ffffff"/>
</svg>