<?xml version="1.0" encoding="utf-8"?>
<!-- Generator: Adobe Illustrator 21.0.0, SVG Export Plug-In . SVG Version: 6.00 Build 0)  -->
<svg version="1.1" xmlns="http://www.w3.org/2000/svg" xmlns:xlink="http://www.w3.org/1999/xlink" x="0px" y="0px"
	 viewBox="0 0 1024 1024" style="enable-background:new 0 0 1024 1024;" xml:space="preserve">
<style type="text/css">
	.st0{fill:#E74C3C;}
	.st1{fill:#FFFFFF;}
</style>
<g id="Min_Guides__x28_DO_NOT_REMOVE_x29_">
</g>
<g id="Max_Guides__x28_DO_NOT_REMOVE_x29_">
</g>
<g id="Icon">
	<circle id="Background" class="st0" cx="512" cy="512" r="512"/>
	<path class="st1" d="M432.5,499l17.7-14.8L321.3,375.9l-0.6-0.4l-0.7-0.4l-0.7-0.3l-0.8-0.2h-0.8l-0.8,0.1l-0.8,0.2l-0.7,0.3
		l-0.7,0.4l-0.7,0.5l-0.6,0.6l-0.4,0.7l-0.4,0.7l-0.2,0.8l-0.2,0.8v1.5l1.1,8.1l1.3,8.1l0.6,3.2l0.9,4.9l1.6,8l1.6,8l1.9,7.9l1.9,8
		l2.1,7.9l2.2,7.9l2.4,7.8l2.4,7.8l2.7,7.7l2.7,7.7l2.8,7.6l3,7.6l3.1,7.5l3.3,7.4l3.3,7.5l3.5,7.4l3.6,7.3l3.8,7.3l4.9,9
		C368.8,552.5,432.5,499,432.5,499z M621.8,604.7l9.3-13.1l-74.9-63l-17.7-14.8l-11.9,10l-1.8,1.4l-1.5,0.9l-1.5,0.8l-1.5,0.7
		l-1.6,0.6l-1.6,0.5l-1.7,0.3l-1.7,0.2l-1.7,0.1l-2.3-0.1l-1.7-0.3l-1.6-0.3l-1.7-0.5l-1.6-0.6l-1.5-0.7l-1.5-0.9l-1.4-1l-1.4-1
		l-11.9-10l-17.7,14.8l-74.9,63l4.7,6.7l4.7,6.6l4.9,6.5l5,6.5l5.1,6.3l5.2,6.3l5.3,6.2l5.4,6.1l5.5,6l5.6,5.9l5.7,5.8l5.8,5.7
		l5.9,5.7l6,5.5l6.1,5.4l6.2,5.3l6.2,5.2l6.4,5.1l6.4,5l12.9,9.5h0l6.6-4.8l6.5-5l6.4-5l6.4-5.1l6.2-5.3l6.2-5.3l6.1-5.4l6-5.6
		l5.9-5.6l5.9-5.7l5.7-5.9l5.6-5.9l5.5-6l5.4-6.1l5.3-6.3l5.2-6.2l5.1-6.4l5-6.4C616.9,611.3,621.8,604.7,621.8,604.7z M512,476.8
		l147.7-124.1l-7-2.6l-7.1-2.5l-7.1-2.4l-7.1-2.2l-7.2-2.1l-7.2-1.9l-7.3-1.9l-7.3-1.7l-7.3-1.5l-7.3-1.4l-7.4-1.3l-7.4-1.2l-7.5-1
		L558,328l-7.4-0.7l-7.4-0.6l-7.5-0.5l-7.5-0.4l-7.5-0.2l-8.6-0.1l-7.5,0l-7.5,0.2l-7.5,0.3l-7.5,0.5l-7.5,0.6l-7.4,0.7l-7.4,0.8
		l-7.4,1l-7.4,1.1l-7.4,1.3l-7.4,1.4l-7.3,1.6l-7.3,1.7l-7.3,1.8l-7.2,2l-7.2,2l-7.2,2.2l-7.1,2.3l-7.1,2.4l-8.1,3L512,476.8
		L512,476.8z M712,380.2l-0.1-0.9l-0.2-0.7l-0.3-0.8l-0.4-0.7l-0.5-0.7l-0.6-0.6l-0.7-0.4l-0.7-0.4l-0.8-0.3l-0.8-0.2h-0.8l-0.8,0.1
		l-0.8,0.2l-0.7,0.3l-1.2,0.8L573.8,484.2l17.7,14.8l63.7,53.5l3.9-7.1l3.8-7.3l3.7-7.2l3.6-7.4l3.4-7.4l3.3-7.5l3.2-7.6l3-7.6
		l3-7.6l2.7-7.7l2.6-7.7l2.5-7.8l2.4-7.8l2.2-7.8l2.2-7.9l2-7.9l1.8-7.9l1.7-8l1.6-8l1.2-6.9l0.2-1.1l1.3-8.1L712,381
		C712,381,712,380.2,712,380.2z M757.5,379.3v2.6l-0.2,2.6l-0.3,2.5l-2,13.9l-1.5,8.5l-1.5,8.4l-1.7,8.4l-1.9,8.4l-1.9,8.3l-2.1,8.3
		l-2.3,8.3l-2.4,8.2l-2.5,8.2l-2.6,8.1l-2.8,8.1l-2.8,8.1l-3.1,8l-3.1,7.9l-3.3,7.9L716,532l-3.5,7.8l-3.6,7.7l-3.8,7.7l-3.9,7.6
		l-4,7.5l-4.2,7.5l-4.2,7.5l-4.4,7.3l-4.5,7.3l-4.6,7.2l-4.7,7.2l-4.9,7l-5,7l-5.1,6.9l-5.2,6.8l-5.3,6.8l-5.4,6.6l-5.5,6.5
		l-5.6,6.5l-5.7,6.4l-5.8,6.3l-5.9,6.2l-6,6.2l-6.1,5.9l-6.2,5.9l-6.3,5.9l-6.4,5.7l-6.5,5.6l-6.6,5.4l-6.7,5.4l-6.7,5.3l-6.8,5.2
		l-6.9,5.1l-7,4.9l-7,4.9l-7.2,4.7L512,768l-11.8-7.7l-7.1-4.8l-7.1-4.9l-6.9-5.1l-6.8-5.1l-6.7-5.3l-6.7-5.3l-6.6-5.5l-6.5-5.6
		l-6.4-5.6l-6.3-5.8l-6.2-5.9l-6.1-6l-6.1-6.1l-5.9-6.2l-5.9-6.2l-5.7-6.3l-5.6-6.5l-5.5-6.5l-5.4-6.6l-5.3-6.7l-5.2-6.8l-5.1-6.9
		l-4.9-6.9l-4.9-7.1l-4.8-7.1l-4.7-7.2l-4.5-7.3l-4.4-7.3l-4.3-7.4l-4.2-7.5l-4.1-7.5l-3.9-7.6l-3.8-7.7l-3.8-7.7l-3.5-7.8l-3.5-7.8
		l-3.3-7.9l-3.2-7.9l-3-8l-3-8l-2.8-8.1l-2.7-8.1l-2.5-8.2l-2.4-8.2l-2.3-8.2l-2.2-8.3l-2-8.3l-1.9-8.3l-1.7-8.4l-1.6-8.4l-1.5-8.4
		l-1.4-8.5l-1.2-8.5l-0.4-4.9l-0.1-2.6l0.1-2.6l0.2-2.6l0.3-2.6l0.5-2.5l0.6-2.6l0.7-2.4l0-0.1l0.9-2.4l1-2.4l1.1-2.4l1.2-2.3
		l1.4-2.2l1.4-2.1l1.6-2.1l1.7-2l1.8-1.9l1.9-1.8l1.9-1.7l2-1.6l2.1-1.5l2.2-1.4l2.3-1.3l13.7-7.1l7.1-3.5l7.1-3.3l7.2-3.2l7.2-3.1
		l7.3-2.9l7.3-2.8l7.4-2.7l7.4-2.6l7.5-2.4l7.5-2.3l7.6-2.2l7.6-2l7.6-1.9l7.7-1.8l7.7-1.6l7.7-1.5l7.7-1.4l7.8-1.2l7.8-1.1l7.8-1
		l7.8-0.9l7.8-0.7l7.8-0.6l7.9-0.5l7.9-0.3l7.8-0.2l7.9,0l15.5,0.3l7.8,0.3l7.9,0.5l7.8,0.6l7.8,0.8l7.8,0.8l7.8,1l7.8,1.1l7.8,1.3
		l7.7,1.4l7.7,1.6l7.7,1.6l7.6,1.8l7.7,1.9l7.5,2l7.5,2.2l7.6,2.3l7.4,2.4l7.4,2.5l7.4,2.7l7.4,2.8l7.3,3l7.3,3.1l7.1,3.1l7.1,3.4
		l7,3.4l7.1,3.5l6.9,3.7l4.2,2.5l2.1,1.5l2,1.6l1.9,1.7l1.9,1.8l1.8,1.8l1.7,2l1.5,2l1.5,2.2l1.4,2.2l1.2,2.3l1.1,2.3l1,2.4l0.9,2.5
		l0.1,0.4v0l0.6,2l0.6,2.5l0.5,2.5l0.4,2.6l0.2,2.6C757.3,376.8,757.5,379.3,757.5,379.3z"/>
</g>
</svg>
