<svg xmlns="http://www.w3.org/2000/svg" viewBox="0 0 1024 1024">
   <circle cx="512" cy="512" r="512" style="fill:#e74c3c"/>
   <path d="m432.5 499 17.7-14.8-128.9-108.3-.6-.4-.7-.4-.7-.3-.8-.2h-.8l-.8.1-.8.2-.7.3-.7.4-.7.5-.6.6-.4.7-.4.7-.2.8-.2.8v1.5l1.1 8.1 1.3 8.1.6 3.2.9 4.9 1.6 8 1.6 8 1.9 7.9 1.9 8 2.1 7.9 2.2 7.9 2.4 7.8 2.4 7.8 2.7 7.7 2.7 7.7 2.8 7.6 3 7.6 3.1 7.5 3.3 7.4 3.3 7.5 3.5 7.4 3.6 7.3 3.8 7.3 4.9 9c-.1-.3 63.6-53.8 63.6-53.8zm189.3 105.7 9.3-13.1-74.9-63-17.7-14.8-11.9 10-1.8 1.4-1.5.9-1.5.8-1.5.7-1.6.6-1.6.5-1.7.3-1.7.2-1.7.1-2.3-.1-1.7-.3-1.6-.3-1.7-.5-1.6-.6-1.5-.7-1.5-.9-1.4-1-1.4-1-11.9-10-17.7 14.8-74.9 63 4.7 6.7 4.7 6.6 4.9 6.5 5 6.5 5.1 6.3 5.2 6.3 5.3 6.2 5.4 6.1 5.5 6 5.6 5.9 5.7 5.8 5.8 5.7 5.9 5.7 6 5.5 6.1 5.4 6.2 5.3 6.2 5.2 6.4 5.1 6.4 5 12.9 9.5 6.6-4.8 6.5-5 6.4-5 6.4-5.1 6.2-5.3 6.2-5.3 6.1-5.4 6-5.6 5.9-5.6 5.9-5.7 5.7-5.9 5.6-5.9 5.5-6 5.4-6.1 5.3-6.3 5.2-6.2 5.1-6.4 5-6.4c.1.3 5-6.3 5-6.3zM512 476.8l147.7-124.1-7-2.6-7.1-2.5-7.1-2.4-7.1-2.2-7.2-2.1-7.2-1.9-7.3-1.9-7.3-1.7-7.3-1.5-7.3-1.4-7.4-1.3-7.4-1.2-7.5-1-7.5-1-7.4-.7-7.4-.6-7.5-.5-7.5-.4-7.5-.2-8.6-.1h-7.5l-7.5.2-7.5.3-7.5.5-7.5.6-7.4.7-7.4.8-7.4 1-7.4 1.1-7.4 1.3-7.4 1.4-7.3 1.6-7.3 1.7-7.3 1.8-7.2 2-7.2 2-7.2 2.2-7.1 2.3-7.1 2.4-8.1 3L512 476.8zm200-96.6-.1-.9-.2-.7-.3-.8-.4-.7-.5-.7-.6-.6-.7-.4-.7-.4-.8-.3-.8-.2h-.8l-.8.1-.8.2-.7.3-1.2.8-128.8 108.3 17.7 14.8 63.7 53.5 3.9-7.1 3.8-7.3 3.7-7.2 3.6-7.4 3.4-7.4 3.3-7.5 3.2-7.6 3-7.6 3-7.6 2.7-7.7 2.6-7.7 2.5-7.8 2.4-7.8 2.2-7.8 2.2-7.9 2-7.9 1.8-7.9 1.7-8 1.6-8 1.2-6.9.2-1.1 1.3-8.1L712 381v-.8zm45.5-.9v2.6l-.2 2.6-.3 2.5-2 13.9-1.5 8.5-1.5 8.4-1.7 8.4-1.9 8.4-1.9 8.3-2.1 8.3-2.3 8.3-2.4 8.2-2.5 8.2-2.6 8.1-2.8 8.1-2.8 8.1-3.1 8-3.1 7.9-3.3 7.9-3.5 8-3.5 7.8-3.6 7.7-3.8 7.7-3.9 7.6-4 7.5-4.2 7.5-4.2 7.5-4.4 7.3-4.5 7.3-4.6 7.2-4.7 7.2-4.9 7-5 7-5.1 6.9-5.2 6.8-5.3 6.8-5.4 6.6-5.5 6.5-5.6 6.5-5.7 6.4-5.8 6.3-5.9 6.2-6 6.2-6.1 5.9-6.2 5.9-6.3 5.9-6.4 5.7-6.5 5.6-6.6 5.4-6.7 5.4-6.7 5.3-6.8 5.2-6.9 5.1-7 4.9-7 4.9-7.2 4.7-6.8 4.6-11.8-7.7-7.1-4.8-7.1-4.9-6.9-5.1-6.8-5.1-6.7-5.3-6.7-5.3-6.6-5.5-6.5-5.6-6.4-5.6-6.3-5.8-6.2-5.9-6.1-6-6.1-6.1-5.9-6.2-5.9-6.2-5.7-6.3-5.6-6.5-5.5-6.5-5.4-6.6-5.3-6.7-5.2-6.8-5.1-6.9-4.9-6.9-4.9-7.1-4.8-7.1-4.7-7.2-4.5-7.3-4.4-7.3-4.3-7.4-4.2-7.5-4.1-7.5-3.9-7.6-3.8-7.7-3.8-7.7-3.5-7.8-3.5-7.8-3.3-7.9-3.2-7.9-3-8-3-8-2.8-8.1-2.7-8.1-2.5-8.2-2.4-8.2-2.3-8.2-2.2-8.3-2-8.3-1.9-8.3-1.7-8.4-1.6-8.4-1.5-8.4-1.4-8.5-1.2-8.5-.4-4.9-.1-2.6.1-2.6.2-2.6.3-2.6.5-2.5.6-2.6.7-2.4v-.1l.9-2.4 1-2.4 1.1-2.4 1.2-2.3 1.4-2.2 1.4-2.1 1.6-2.1 1.7-2 1.8-1.9 1.9-1.8 1.9-1.7 2-1.6 2.1-1.5 2.2-1.4 2.3-1.3 13.7-7.1 7.1-3.5 7.1-3.3 7.2-3.2 7.2-3.1 7.3-2.9 7.3-2.8 7.4-2.7 7.4-2.6 7.5-2.4 7.5-2.3 7.6-2.2 7.6-2 7.6-1.9 7.7-1.8 7.7-1.6 7.7-1.5 7.7-1.4 7.8-1.2 7.8-1.1 7.8-1 7.8-.9 7.8-.7 7.8-.6 7.9-.5 7.9-.3 7.8-.2h7.9l15.5.3 7.8.3 7.9.5 7.8.6 7.8.8 7.8.8 7.8 1 7.8 1.1 7.8 1.3 7.7 1.4 7.7 1.6 7.7 1.6 7.6 1.8 7.7 1.9 7.5 2 7.5 2.2 7.6 2.3 7.4 2.4 7.4 2.5 7.4 2.7 7.4 2.8 7.3 3 7.3 3.1 7.1 3.1 7.1 3.4 7 3.4 7.1 3.5 6.9 3.7 4.2 2.5 2.1 1.5 2 1.6 1.9 1.7 1.9 1.8 1.8 1.8 1.7 2 1.5 2 1.5 2.2 1.4 2.2 1.2 2.3 1.1 2.3 1 2.4.9 2.5.1.4.6 2 .6 2.5.5 2.5.4 2.6.2 2.6c.2.1.4 2.6.4 2.6z" style="fill:#fff"/>
</svg>
