<svg xmlns="http://www.w3.org/2000/svg" viewBox="0 0 1024 1024">
   <circle cx="512" cy="512" r="512" style="fill:#174ddd"/>
   <path d="M229.69 314.87a3.2 3.2 0 0 0-2.51 1.24c-2.47 2.89 1.24 4.94 2.89 7a314.92 314.92 0 0 0 88.21 66.77 442.9 442.9 0 0 0 148.39 46.17 978.5 978.5 0 0 1 101.4 22.26 390.14 390.14 0 0 1 100 44.93A163 163 0 0 1 718.31 548a281.32 281.32 0 0 1 29.47 61.83 412.18 412.18 0 0 1 12.78 44.52c.82 3.09 1 8.24 5.15 7.63s2.68-4.95 2.68-8.86v-12a290.39 290.39 0 0 0-13.19-117.48 286.68 286.68 0 0 0-77.29-118.09 238.45 238.45 0 0 0-199.29-68.63l-9.28 1.65c-1.86.21-3.71.41-3.91 2.68a3.79 3.79 0 0 0 3.91 3.91h4.33a415.69 415.69 0 0 1 141.38 56.68A105.52 105.52 0 0 1 650.5 436a12 12 0 0 1-7-2.47 356.54 356.54 0 0 0-122.42-43.03c-49.26-8.24-98.51-14.22-147.35-24.52a364 364 0 0 1-138.29-48.64c-1.7-.85-3.79-2.48-5.73-2.48Zm65.36 111.25a1.76 1.76 0 0 0-1.51 1.28c-1.24 2.89 1.65 4.53 3.5 6.18a391.58 391.58 0 0 0 84.29 58.74A567 567 0 0 0 513 535.6a413.22 413.22 0 0 1 141.38 58.12 181.57 181.57 0 0 1 82.44 129.84c1 8.24 2.89 16.49 2.89 24.73.21 1.65 0 3.71 2.68 3.71s2.68-1.85 2.68-3.71a172.91 172.91 0 0 0 3.3-26.79 226.71 226.71 0 0 0-14-80.38A240.1 240.1 0 0 0 592 501.59a389.93 389.93 0 0 0-99.75-24.11 687.94 687.94 0 0 1-192.94-50.08c-1.27 0-2.94-1.36-4.26-1.28Zm70 83.51a20.61 20.61 0 0 0 8.45 10.1 757.81 757.81 0 0 0 188 114 323.36 323.36 0 0 1 82.44 44.72 171.47 171.47 0 0 1 59.56 100.79c.41 2.47.62 6.8 3.71 6.8s3.09-4.53 3.09-7a132.72 132.72 0 0 0-17.11-90.06 243.61 243.61 0 0 0-138.91-103A1277.75 1277.75 0 0 1 411 532.72c-15-7.21-29.68-14.84-46-23.08Z" style="fill:#fff"/>
</svg>
