<svg xmlns="http://www.w3.org/2000/svg" viewBox="0 0 1024 1024">
   <circle cx="512" cy="512" r="512" style="fill:#10353e"/>
   <path d="m544.7 458.9 53.8 19.8c8.7 3.1 19.3-1 19.3-7.5V334.9c0-3.1-2.6-6-6.8-7.5l-53.8-19.8c-8.7-3.1-19.3 1-19.3 7.5v136.4c0 3.1 2.6 5.9 6.8 7.4m0 244.8 53.8 19.8c8.7 3.1 19.3-1 19.3-7.5V579.7c0-3.1-2.6-6-6.8-7.5l-53.8-19.8c-8.7-3.1-19.3 1-19.3 7.5v136.4c0 3.1 2.6 6 6.8 7.4M445 413.3l53.8 19.8c8.7 3.1 19.3-1 19.3-7.5V277.3c0-3.1-2.6-6-6.8-7.5L457.5 250c-8.7-3.1-19.3 1-19.3 7.5v148.4c0 3.1 2.6 5.9 6.8 7.4m0 326.9 53.8 19.8c8.7 3.1 19.3-1 19.3-7.5v-148c0-3.1-2.6-6-6.8-7.5l-53.8-19.8c-8.7-3.1-19.3 1-19.3 7.5v148c0 3.1 2.6 6 6.8 7.5m-26.6-457.4c0-3.1-2.6-6-6.8-7.5l-53.8-19.8c-8.7-3.1-19.3 1-19.3 7.5v464.1c0 3.1 2.6 6 6.8 7.5l53.8 19.8c8.7 3.1 19.3-1 19.3-7.5V282.8zM710.7 406l-53.8-19.8c-8.7-3.1-19.3 1-19.3 7.5v224c0 3.1 2.6 6 6.8 7.5l53.8 19.8c8.7 3.1 19.3-1 19.3-7.5v-224c0-3.1-2.6-6-6.8-7.5" style="fill:#fff"/>
</svg>
