<svg xmlns="http://www.w3.org/2000/svg" viewBox="0 0 1024 1024">
   <circle cx="512" cy="512" r="512" style="fill:#10353e"/>
   <path d="M544.7 458.93c-4.2-1.49-6.83-4.35-6.83-7.47V315.1c0-6.44 10.59-10.54 19.28-7.47L611 327.39c4.2 1.49 6.82 4.35 6.82 7.46v136.38c0 6.44-10.58 10.54-19.28 7.47l-53.84-19.77m0 244.81 53.83 19.76c8.7 3.07 19.28-1 19.28-7.47V579.66c0-3.12-2.62-6-6.82-7.46l-53.83-19.76c-8.7-3.07-19.28 1-19.28 7.47v136.36c0 3.11 2.63 6 6.83 7.47M445 413.33l53.83 19.76c8.7 3.07 19.28-1 19.28-7.46V277.26c0-3.11-2.62-6-6.82-7.47L457.47 250c-8.7-3.07-19.28 1-19.28 7.46v148.4c0 3.12 2.62 6 6.82 7.47m0 326.87 53.83 19.8c8.7 3.07 19.28-1 19.28-7.47v-148c0-3.12-2.62-6-6.82-7.47l-53.83-19.76c-8.7-3.07-19.28 1-19.28 7.47v148c0 3.11 2.62 6 6.82 7.47m-26.58-457.42c0-3.12-2.62-6-6.83-7.47l-53.83-19.75c-8.7-3.07-19.28 1-19.28 7.47v464.1c0 3.12 2.62 6 6.83 7.47l53.83 19.76c8.7 3.07 19.28-1 19.28-7.47ZM710.68 406l-53.83-19.76c-8.7-3.07-19.28 1-19.28 7.47v224c0 3.12 2.62 6 6.82 7.46l53.83 19.76c8.69 3.07 19.28-1 19.28-7.47v-224c0-3.11-2.63-6-6.83-7.47" style="fill:#fff"/>
</svg>
