<?xml version="1.0" encoding="utf-8"?>
<!-- Generator: Adobe Illustrator 21.0.0, SVG Export Plug-In . SVG Version: 6.00 Build 0)  -->
<svg version="1.1" xmlns="http://www.w3.org/2000/svg" xmlns:xlink="http://www.w3.org/1999/xlink" x="0px" y="0px"
	 viewBox="0 0 1024 1024" style="enable-background:new 0 0 1024 1024;" xml:space="preserve">
<style type="text/css">
	.st0{fill:#10353E;}
	.st1{fill:#FFFFFF;}
</style>
<g id="Guides">
</g>
<g id="Icon">
	<circle class="st0" cx="512" cy="512" r="512"/>
	<g>
		<path class="st1" d="M544.7,458.9l53.8,19.8c8.7,3.1,19.3-1,19.3-7.5V334.9c0-3.1-2.6-6-6.8-7.5l-53.8-19.8
			c-8.7-3.1-19.3,1-19.3,7.5v136.4C537.9,454.6,540.5,457.4,544.7,458.9"/>
		<path class="st1" d="M544.7,703.7l53.8,19.8c8.7,3.1,19.3-1,19.3-7.5V579.7c0-3.1-2.6-6-6.8-7.5l-53.8-19.8
			c-8.7-3.1-19.3,1-19.3,7.5v136.4C537.9,699.4,540.5,702.3,544.7,703.7"/>
		<path class="st1" d="M445,413.3l53.8,19.8c8.7,3.1,19.3-1,19.3-7.5V277.3c0-3.1-2.6-6-6.8-7.5L457.5,250c-8.7-3.1-19.3,1-19.3,7.5
			v148.4C438.2,409,440.8,411.8,445,413.3"/>
		<path class="st1" d="M445,740.2l53.8,19.8c8.7,3.1,19.3-1,19.3-7.5v-148c0-3.1-2.6-6-6.8-7.5l-53.8-19.8c-8.7-3.1-19.3,1-19.3,7.5
			v148C438.2,735.8,440.8,738.7,445,740.2"/>
		<path class="st1" d="M418.4,282.8c0-3.1-2.6-6-6.8-7.5l-53.8-19.8c-8.7-3.1-19.3,1-19.3,7.5v464.1c0,3.1,2.6,6,6.8,7.5l53.8,19.8
			c8.7,3.1,19.3-1,19.3-7.5V282.8z"/>
		<path class="st1" d="M710.7,406l-53.8-19.8c-8.7-3.1-19.3,1-19.3,7.5v224c0,3.1,2.6,6,6.8,7.5l53.8,19.8c8.7,3.1,19.3-1,19.3-7.5
			v-16.2V413.5C717.5,410.4,714.9,407.5,710.7,406"/>
	</g>
</g>
</svg>
