<svg xmlns="http://www.w3.org/2000/svg" viewBox="0 0 1024 1024">
   <circle cx="512" cy="512" r="512" style="fill:#fdb813"/>
   <path d="m822.68 325.23-242.64.042c-3.558 0-6.4 3.67-6.4 8.21v68.03c0 4.421 2.842 8.053 6.4 8.053h105.48l-227.44 227.44c-1.423 1.502-2.333 3.556-2.333 5.723 0 2.178.91 4.2 2.333 5.735l48.242 48.175c2.797 2.834 8.53 2.834 11.413 0l227.05-227.09v222.54c0 3.566 3.671 6.401 8.223 6.401h68.143c4.429 0 8.06-2.835 8.06-6.4v-360.12a5.01 5.01 0 0 0-1.34-3.424c-1.424-2.186-3.2-3.319-5.181-3.319zm-621.41.037c-1.814 0-3.636 1.1-5.016 3.186-.951 1.201-1.46 2.354-1.46 3.577v360.1c0 3.54 3.673 6.443 8.094 6.443h68.152c4.54 0 8.098-2.902 8.098-6.443V469.58l134.83 134.77c2.507 2.513 7.116 1.926 10.319-1.277l48.117-48.117c3.126-3.12 3.679-7.697 1.16-10.219l-135.04-135.1h180.99c3.555 0 6.472-3.657 6.472-8.097v-68.152c0-4.47-2.917-8.127-6.472-8.127z" style="fill:#fff"/>
</svg>
