<?xml version="1.0" encoding="utf-8"?>
<!-- Generator: Adobe Illustrator 21.0.0, SVG Export Plug-In . SVG Version: 6.00 Build 0)  -->
<svg version="1.1" xmlns="http://www.w3.org/2000/svg" xmlns:xlink="http://www.w3.org/1999/xlink" x="0px" y="0px"
	 viewBox="0 0 1024 1024" style="enable-background:new 0 0 1024 1024;" xml:space="preserve">
<style type="text/css">
	.st0{fill:#009FDF;}
	.st1{fill:#FFFFFF;}
</style>
<g id="Min_Guides__x28_DO_NOT_REMOVE_x29_">
</g>
<g id="Max_Guides__x28_DO_NOT_REMOVE_x29_">
</g>
<g id="Icon">
	<circle id="Background" class="st0" cx="512" cy="512" r="512"/>
	<g>
		<path class="st1" d="M361.6,482.3v59.4h9.6c17.1,0,32.6-3.7,32.6-29.7c0-25.9-15.5-29.6-32.6-29.6H361.6L361.6,482.3z
			 M428.4,511.9c0,37.6-25.4,49.3-57.6,49.3h-32.5v-98.5h32.5C403,462.7,428.4,474.4,428.4,511.9L428.4,511.9z"/>
		<polygon class="st1" points="515.8,462.7 515.8,483.1 463.5,483.1 463.5,500.3 512.9,500.3 512.9,520.8 463.5,520.8 463.5,540.7 
			515.8,540.7 515.8,561.2 440.3,561.2 440.3,462.7 515.8,462.7 		"/>
		<path class="st1" d="M599.2,493.5c-2-6.8-9-13.3-21.6-13.3c-14.3,0-25.4,10.6-25.4,31.4c0,20.8,10.3,32.2,25.8,32.2
			c10.7,0,21.9-4.1,21.9-16.6v-1.9h-23.8v-19h47v54.9h-17.8l-0.7-10.9c-6.4,8.6-16,12.6-30.2,12.6c-29.1,0-46.9-19.8-46.9-51.3
			c0-31.1,20.4-50.5,50.3-50.5c21.9,0,39.5,11,44.1,32.5H599.2L599.2,493.5z"/>
		<polygon class="st1" points="640,561.2 640,462.7 663.2,462.7 663.2,561.2 640,561.2 		"/>
		<path class="st1" d="M703.3,504.5h15.3c11,0,19.4-1.9,19.4-11.1c0-9.1-8.4-11.1-19.4-11.1h-15.3V504.5L703.3,504.5z M703.3,524.1
			v37.1h-23.2v-98.5H718c25.5,0,44.7,6,44.7,30.4c0,14.5-8,22.8-19.3,27.2l24.3,40.9h-27.3l-21.3-37.1H703.3L703.3,524.1z"/>
		<path class="st1" d="M848.5,512c0-20.9-12.1-31.8-26.5-31.8c-14.4,0-26.5,10.9-26.5,31.8c0,20.9,12.1,31.8,26.5,31.8
			C836.4,543.8,848.5,532.9,848.5,512L848.5,512z M770.9,512c0-30.7,20.8-50.9,51.1-50.9c30.2,0,51.1,20.2,51.1,50.9
			c0,30.7-20.9,50.9-51.1,50.9C791.7,562.9,770.9,542.7,770.9,512L770.9,512z"/>
		<polygon class="st1" points="315.2,502.4 315.2,462.7 150.9,462.7 150.9,502.4 315.2,502.4 		"/>
		<polygon class="st1" points="150.9,521.4 150.9,561.2 315.2,561.2 315.2,521.4 150.9,521.4 		"/>
	</g>
</g>
</svg>
