<svg xmlns="http://www.w3.org/2000/svg" viewBox="0 0 1024 1024">
   <circle cx="512" cy="512" r="512" style="fill:#00c4b2"/>
   <path d="M512 232.365a280.544 280.544 0 0 0-164.793 54.717c17.736 35.229 26.462 77.717 17.415 97.831-18.332-.8-43.956-25.584-62.432-56.462a279.637 279.637 0 0 0-35.805 50.485c19.718-1.144 44.115 8.493 67.989 29.687 28.317 25.138 49.35 60.707 45.305 81.944-21.083 6.12-59.236-10.807-87.565-35.933-20.872-18.514-32.8-38.323-36.04-55.95A279.172 279.172 0 0 0 231.819 512c.104 110.755 65.693 211.012 167.251 255.653 16.118-31.628 16.125-149.1 9.052-176.068-12.189-46.47-30.761-56.745-61.797-74.106 21.077-7.402 54.1 5.834 54.1 5.834s10.396-28.45 38.051-39.206c-23.507 54.083 7.692 123.855 7.692 123.855s41.57-48.764 39.112-87.483c18.861 15.735 14.4 38.26 14.4 38.26s16.38-8.626 40.799-1.598c-39.947 16.286-80.16 61.964-77.426 131.95 3.352 85.807 18.805 98.326 20.115 100.486A280.72 280.72 0 0 0 512 791.635c154.74 0 280.182-125.197 280.182-279.635-.026-82.52-36.57-160.814-99.848-213.926-4.457 8.091-12.279 16.326-25.766 25.014-22.558 14.532-63.126 12.632-63.126 12.632s10.974-29.108 30.846-46.955c8.166-7.333 16.482-11.943 24.357-14.909a280.442 280.442 0 0 0-62.756-28.644c1.935 16.49-2.285 35.787-17.783 59.007-25.447 38.124-67.512 46.762-67.512 46.762s-11.366-27.62 13.99-73.22c9.501-17.085 22.883-31.725 36.575-41.05A280.713 280.713 0 0 0 512 232.365zm-69.52 36.698c19.672 11.088 31.84 39.369 29.485 79.38-2.356 40.033-18.704 82.54-39.81 95.59-19.695-11.03-31.155-52.164-28.811-92.193 2.348-40.093 17.993-69.77 39.137-82.777zm141.196 97.632s10.082 41.246-27.356 83.44c-37.11 41.826-91.314 47.498-91.314 47.498s2.47-53.167 35.734-92.709c36.504-43.39 82.936-38.229 82.936-38.229zm155.808 7.171s-2.223 30.666-48.962 51.221c-38.498 16.931-85.05 4.779-85.05 4.779s22.644-41.295 59.557-55.63c40.79-15.84 74.455-.37 74.455-.37zm-58.448 112.74s-6.752 33.009-64.652 50.817c-51.575 15.863-93.056-7.655-93.056-7.655s14.127-39.821 73.411-53.716c52.82-12.38 84.297 10.555 84.297 10.555z" style="fill:#fff"/>
</svg>
