<svg xmlns="http://www.w3.org/2000/svg" viewBox="0 0 1024 1024">
   <circle cx="512" cy="512" r="512" style="fill:#19288a"/>
   <path d="M512.76 258.27a253.57 253.57 0 0 0-149.27 48.26l147.87 147.53L662 305.15a262.41 262.41 0 0 0-149.24-46.88zm0 507.46a253.56 253.56 0 0 1-149.27-48.26l147.87-147.53L662 718.85a262.42 262.42 0 0 1-149.24 46.88zM304.83 364.45A246.73 246.73 0 0 0 256 512c0 55.15 18.14 106.17 47.43 147.53L452.7 512zM768 512a246.73 246.73 0 0 0-48.83-147.53L571.3 512l149.27 147.52C749.86 618.15 768 567.14 768 512z" style="fill:#fff"/>
</svg>
