<svg xmlns="http://www.w3.org/2000/svg" viewBox="0 0 1024 1024">
   <circle cx="512" cy="512" r="512" style="fill:#00ff5a"/>
   <path d="M193.78 563.6h-26.52V457.17h26.46V563.6Zm220.5-26.6h-84.37c1.83 18 11.4 30 30.09 30 12.74 0 22.19-5.73 27.31-16.64l25.66 7.8c-9.08 21.46-29.44 33.22-51.45 33.22-36 0-59.5-25.24-59.5-60.23 0-39.81 25.12-62.85 58-62.85 38.04-.04 57.06 29.1 54.26 68.7Zm-26.4-19.63c-2-16.89-9.57-26.34-26.82-26.34s-27.37 8.53-30.54 26.34ZM745.79 537h-84.37c1.83 18 11.4 29.93 30.05 29.93 12.74 0 22.19-5.73 27.31-16.64l25.66 7.8c-9.08 21.49-29.44 33.25-51.44 33.25-36 0-59.5-25.24-59.5-60.23 0-39.81 25.12-62.85 58-62.85 38.07 0 57.09 29.14 54.29 68.74Zm-26.4-19.63c-2-16.89-9.57-26.34-26.82-26.34S665.2 499.59 662 517.4Zm-293.47 70.74h26V432.66h-26Zm44.93 0h26V471.49h-26v116.62Zm0-128.2h26v-27.25h-26v27.25ZM577 468.26c-15.3 0-28.1 5.91-38.1 19v-15.77h-23.18V588h26.34v-59.81c0-19.93 7.38-35.54 27.31-35.54 21.58 0 27.19 17.92 27.19 39.32V588h26.34v-65c-.01-28.34-11.35-54.74-45.9-54.74Zm279.69 48.28v71.57h-22.8v-15.73c-10.55 13.9-23.53 19-41 19-25.12 0-39.08-15.85-39.08-35.17 0-17.92 9.14-29 26.58-34.87 15.18-4.82 34.38-7 50.72-9.45-1.1-14.69-9.21-19.63-23.84-19.63-9.33 0-21.89 3.84-25.48 16.28l-23.77-7.44a44.29 44.29 0 0 1 16.46-23.71q12.16-9 32.74-9c36.82 0 47.31 20.42 48.71 34.32a107.24 107.24 0 0 1 .81 13.83Zm-25.79 16.58c-8.6 1.34-17.31 2.74-26.64 4.57-11.52 2.32-24.81 6.28-24.81 18 0 7.86 5.73 14.81 18.78 14.81 19.2 0 31.7-12.86 32.43-30.72.17-2.45.29-6.66.29-6.66Zm0-.43Zm0 .24ZM224.57 432.66h-30.79v24.51s13.78-.06 23.1 0c7.5.06 11.83 0 17.13 1.16 22.8 4.33 31.46 28.71 31.46 52.06s-8.66 47.67-31.46 52.06c-5.24 1.16-9.63 1.16-17.13 1.16-9.39.06-23.1 0-23.1 0v24.51h30.79c50.41 0 68.4-41.33 68.4-77.73s-18.05-77.73-68.4-77.73Z" style="fill:#fff"/>
</svg>
