<svg xmlns="http://www.w3.org/2000/svg" viewBox="0 0 1024 1024">
   <circle cx="512" cy="512" r="512" style="fill:#ec0016"/>
   <path d="M716.8 332.8H307.2A51.44 51.44 0 0 0 256 384v256a51.7 51.7 0 0 0 51.46 51.2H716.8a51.7 51.7 0 0 0 51.2-51.56V384a51.44 51.44 0 0 0-51.2-51.2Zm13.82 306.84v.52a14.2 14.2 0 0 1-13.83 14.13H307.46a14.2 14.2 0 0 1-14.09-14.13V383.28a14.2 14.2 0 0 1 14.1-14.13H716.8a14.2 14.2 0 0 1 13.84 14.13v.72ZM412.57 629.3h-86.12V394.7h86.12c60.67 0 94.21 38 94.21 116.22.1 67.9-22.68 117.82-94.21 118.38Zm242.79-122.73a57.78 57.78 0 0 0 41-54.63c0-4.86-1-57.14-67-57.14h-97.9v234.5h82.94c22 0 90.42 0 90.42-65.95 0-16.48-6.76-47.51-49.46-56.78Zm-45 84.68h-23.1V531h24.63c29.24 0 36.4 17 36.4 30.16 0 30.11-28.77 30.11-37.94 30.11ZM450 515.79c0-47.26-5.12-84.17-55.81-84.17h-11.42v159.64h20c29.85 0 47.21-23.86 47.21-75.47ZM587.26 431H605c25.24 0 35.28 8.81 35.28 28.26 0 15.36-11.06 28.36-30.72 28.36h-22.3Z" style="fill:#fff"/>
</svg>
