<?xml version="1.0" encoding="utf-8"?>
<!-- Generator: Adobe Illustrator 21.0.0, SVG Export Plug-In . SVG Version: 6.00 Build 0)  -->
<svg version="1.1" xmlns="http://www.w3.org/2000/svg" xmlns:xlink="http://www.w3.org/1999/xlink" x="0px" y="0px"
	 viewBox="0 0 1024 1024" style="enable-background:new 0 0 1024 1024;" xml:space="preserve">
<style type="text/css">
	.st0{fill:#6436FF;}
	.st1{fill:#FFFFFF;}
</style>
<g id="Min_Guides__x28_DO_NOT_REMOVE_x29_">
</g>
<g id="Max_Guides__x28_DO_NOT_REMOVE_x29_">
</g>
<g id="Icon">
	<circle id="Background" class="st0" cx="512" cy="512" r="512"/>
	<path class="st1" d="M761.3,495.9L580.1,314.7c-8.9-8.9-23.3-8.9-32.2,0L441.7,420.9L411,390.2c-8.9-8.9-23.3-8.9-32.2,0
		L262.7,506.3c-8.9,8.9-8.9,23.3,0,32.2l116.2,116.2c8.9,8.9,23.3,8.9,32.2,0l20.3-20.3l-85.5-85.4c-8.9-8.9-8.9-23.3,0-32.2
		l4.7-4.7l197.3,197.3c8.9,8.9,23.3,8.9,32.2,0l181.2-181.2C770.2,519.2,770.2,504.8,761.3,495.9z"/>
</g>
</svg>
