<svg xmlns="http://www.w3.org/2000/svg" viewBox="0 0 1024 1024">
   <circle cx="512" cy="512" r="512" style="fill:#222"/>
   <path d="M581.6 724.1c-14.4-20-36.8-51.3-49.8-69.5-13.3-18.6-24.1-33.1-24.7-33.1-.6 0-21.5 28.1-49.5 66.5-26.7 36.6-48.7 66.5-49 66.5-.8 0-96.1-67.2-96.4-67.9-.1-.3 21.4-32 47.9-70.3s48.1-70.3 48.1-71c0-1.2-8.6-4.2-75.8-26.6-41.7-13.9-76.3-25.4-76.8-25.6-.7-.3 3.3-13.6 16.9-56.5 9.8-30.9 18-56.4 18.3-56.8.3-.3 36.5 11.3 80.6 25.8 44 14.5 80.4 26.3 80.9 26.3s1-.7 1.1-1.5c.2-.8.6-38.3.8-83.3s.8-82.2 1.1-82.7c.4-.7 12.8-.8 58.2-.8 31.7 0 58 .2 58.4.5.5.3 1.4 25.1 2.8 80.7 2.4 91.3 2.4 92.5 3.9 92.5.6 0 35.5-11.7 77.6-26 42.1-14.3 76.7-25.7 77-25.4.9 1 35.4 113.4 35 113.8-.2.2-35.4 12.3-78.1 26.7-58.8 19.9-77.7 26.6-77.9 27.4-.1.6 20.1 30.8 45.8 68.4 25.3 37 45.9 67.6 45.8 67.9-.3.8-94.9 70.5-95.7 70.5-.2-.1-12.2-16.5-26.5-36.5z" style="fill:#fff"/>
</svg>
