<?xml version="1.0" encoding="utf-8"?>
<!-- Generator: Adobe Illustrator 21.0.0, SVG Export Plug-In . SVG Version: 6.00 Build 0)  -->
<svg version="1.1" xmlns="http://www.w3.org/2000/svg" xmlns:xlink="http://www.w3.org/1999/xlink" x="0px" y="0px"
	 viewBox="0 0 1024 1024" style="enable-background:new 0 0 1024 1024;" xml:space="preserve">
<style type="text/css">
	.st0{fill:#0080FF;}
	.st1{fill:#FFFFFF;}
</style>
<g id="Guides">
</g>
<g id="Icon">
	<circle class="st0" cx="512" cy="512" r="512"/>
	<g>
		<title>DigitalOcean icon</title>
		<path class="st1" d="M273.8,669.2L273.8,669.2l-0.1-63.7h63.7v63.7h76v-98.8h98.8v98.5c105.1-0.1,186.2-104.1,146.1-214.6
			c-14.9-40.9-47.6-73.6-88.5-88.4c-110.7-40.2-214.7,41.2-214.7,146.3H256c0-167.5,161.8-298,337.4-243.2
			c76.8,24,137.7,84.9,161.6,161.6C809.9,606.2,679.4,768,511.9,768v-98.8h-98.6v75.9h-75.9v-75.9H273.8L273.8,669.2L273.8,669.2z"
			/>
	</g>
</g>
</svg>
