<svg viewBox="0 0 1024 1024" xmlns="http://www.w3.org/2000/svg">
   <circle cx="512" cy="512" r="512" style="fill:#4aacc5"/>
   <path style="fill:#fff" d="M628.051 377.998c-11.093-.044-24.786.015-41.91.14-75.101.552-73.57.392-93.075 9.72-30.914 14.785-55.784 45.977-63.125 79.172-1.85 8.368-2.182 14.487-2.202 40.7l-.024 30.851 5.943-.01c3.27 0 18.17.045 33.115.107 14.944.062 28.024.064 29.065.01 1.702-.095.95-2.82 1.33-27.503.266-15.493-.916-41.483 27.081-56.153 2.272-.964 21.496-1.343 70.041-1.379l66.911-.049c39.164 32.993 20.29 127.783-49.27 117.245l-4.83 12.033c-8.95 22.296-17.022 33.075-39.512 52.753-7.011 6.135-7.7 7.094-6.3 8.781 1.44 1.735 5.932 1.847 53.724 1.328 39.96-.434 53.806-.95 59.23-2.211 22.632-5.258 50.291-26.972 67.348-52.872 6.364-9.663 13.308-25.5 16.375-37.343 2.4-9.268 2.876-14.197 3.407-35.292.802-31.848-1.054-45.328-8.831-64.144-9.136-21.203-24.864-41.781-44.62-56.955-7.903-6.063-18.894-11.935-27.738-14.818-8.965-2.923-18.854-3.977-52.133-4.11zm-203.702.79-38.225.454c-35.303.42-38.761.639-45.224 2.855-9.731 3.337-18.953 8.16-27.142 14.195-10.367 7.767-20.647 16.637-27.783 27.545-11.17 13.923-18.569 32.482-21.866 52.2-2.808 16.792-1.852 70.329 1.483 83.09 5.902 22.583 29.054 55.022 48.907 68.526 10.683 7.267 28.051 14.734 38.493 16.55 1.557.27 35.618.562 75.691.647 80.624.17 78.609.324 95.04-7.26 7.867-3.63 18.436-10.396 25.655-16.42 6.144-5.129 19.253-19.394 23.732-25.827 6.407-9.2 13.604-25.106 16.975-37.515 2.812-10.352 2.922-11.934 2.922-42.173v-31.416h-69.06l-.14 12.17c-.076 6.694-.037 16.755.086 22.36.123 5.604-.349 12.71-1.048 15.792-2.197 9.67-8.396 21.177-14.466 26.855-10.284 9.62-4.207 8.973-80.957 8.617-77.766-.362-70.92.548-82.406-10.947-9.184-9.19-11.114-15.576-12.02-39.752-.876-23.376.44-32.188 6.579-44.053 5.216-10.08 9.294-14.58 17.03-18.79l5.673-3.088 30.737-.15 30.736-.149.299-37.16z"/>
</svg>
