<svg version="1.1" x="0" y="0" viewBox="0 0 1024 1024" id="svg20" xmlns="http://www.w3.org/2000/svg">
   <style type="text/css" id="style2">
      .st1,.st2,.st3{fill:none;stroke:#1ded7e;stroke-width:2;stroke-miterlimit:10;stroke-dasharray:2}.st3{stroke:#1d8ced}
   </style>
   <g id="Icon" style="display:inline;fill:#4aacc5;fill-opacity:1">
      <circle id="Background" cx="512" cy="512" r="512" style="fill:#4aacc5;fill-opacity:1"/>
   </g>
   <path id="path1501" style="display:inline;fill:#fff;stroke:#fff;stroke-width:1.57521;stroke-opacity:1" d="M671.742 324.684c-15.434-.062-34.486.02-58.31.195-104.493.767-102.362.544-129.5 13.523-43.011 20.57-77.615 63.97-87.828 110.155-2.575 11.643-3.036 20.157-3.065 56.629l-.033 42.923 8.27-.01c4.548-.004 25.28.063 46.074.149 20.792.086 38.99.089 40.44.008 2.367-.132 1.32-3.924 1.85-38.266.37-21.556-1.275-57.717 37.678-78.129 3.162-1.34 29.908-1.867 97.452-1.918l93.095-.068c54.49 45.904 28.231 177.79-68.55 163.127l-6.721 16.742c-12.452 31.022-23.684 46.019-54.975 73.399-9.755 8.535-10.712 9.87-8.765 12.216 2.004 2.415 8.253 2.57 74.748 1.848 55.599-.604 74.862-1.322 82.41-3.076 31.488-7.316 69.971-37.528 93.703-73.563 8.854-13.444 18.516-35.48 22.783-51.957 3.34-12.896 4.001-19.753 4.74-49.103 1.116-44.312-1.466-63.067-12.287-89.246-12.71-29.5-34.594-58.132-62.082-79.244-10.995-8.436-26.287-16.606-38.592-20.618-12.473-4.067-26.232-5.533-72.535-5.716zm-283.42 1.097-53.183.633c-49.12.585-53.93.889-62.922 3.973-13.54 4.643-26.37 11.353-37.764 19.75-14.424 10.806-28.727 23.147-38.656 38.324-15.54 19.371-25.835 45.194-30.422 72.627-3.907 23.364-2.578 97.852 2.063 115.607 8.211 31.42 40.424 76.555 68.046 95.344 14.863 10.11 39.03 20.5 53.557 23.025 2.166.377 49.557.783 105.313.9 112.175.238 109.37.452 132.232-10.099 10.946-5.052 25.651-14.464 35.695-22.847 8.549-7.135 26.787-26.983 33.02-35.934 8.913-12.8 18.927-34.931 23.617-52.195 3.913-14.404 4.065-16.605 4.066-58.678l.002-43.711h-96.088l-.193 16.934c-.106 9.313-.052 23.312.12 31.109.17 7.797-.486 17.685-1.46 21.973-3.056 13.453-11.68 29.465-20.127 37.365-14.308 13.383-5.853 12.484-112.638 11.988-108.2-.503-98.673.763-114.655-15.23-12.778-12.788-15.464-21.672-16.724-55.309-1.219-32.524.611-44.784 9.154-61.293 7.257-14.024 12.931-20.285 23.693-26.142l7.895-4.297 42.766-.21 42.763-.206.416-51.702.414-51.699z"/>
</svg>
