<svg viewBox="0 0 1024 1024" xmlns="http://www.w3.org/2000/svg">
   <circle cx="512" cy="512" r="512" style="fill:#68b0f4"/>
   <path fill="#fff" d="M664.22 566.714a37.006 37.006 0 0 1-6.09-1.964 13.977 13.977 0 0 1-4.31-2.937c1.173-10.41 0-19.437.974-29.639 3.927-39.649 28.856-27.084 51.23-33.558 13.93-3.927 27.867-11.974 31.404-28.465a287.958 287.958 0 0 0-51.032-46.905c-60.642-43.177-139.932-60.45-211.965-48.477a108.84 108.84 0 0 0 47.639 44.159s-19.517 0-36.248-12.493c-4.91 1.956-14.728 5.827-19.437 8.174 38.267 36.703 98.128 40.822 141.113 7.855-.2.39-3.928 6.082-8.438 29.83-10.01 50.633-38.866 46.713-74.58 33.957-74.188-26.892-115.01-1.963-152.104-52.995a34.245 34.245 0 0 0-17.474 29.83c0 12.756 7.073 23.548 17.274 29.44 5.572-7.392 8.07-9.492 17.785-9.492-15.03 8.526-16.803 15.965-23.277 36.576-7.854 24.929-4.518 50.449-41.22 57.114-19.43.982-19.039 14.129-26.103 33.766-8.829 25.495-20.603 35.705-43.568 59.844 9.419 11.383 19.237 12.756 29.24 8.637 20.61-8.637 36.51-35.33 51.422-52.604 16.683-19.23 56.723-10.984 86.944-29.83 20.81-12.757 31.012-30.023 17.274-59.27a57.904 57.904 0 0 1 14.92 35.33c34.93-4.518 81.644 38.076 124.23 45.14a76.072 76.072 0 0 1-10.401-17.465c-4.91-11.782-6.474-22.574-5.492-31.993 3.92 23.356 27.475 53.386 65.352 56.132 9.619.782 20.22-.4 31.211-3.728 13.147-3.927 25.312-9.028 39.832-6.282 10.8 1.964 20.81 7.456 27.093 16.683 9.419 13.73 30.021 16.683 39.25-.2-20.803-54.36-78.117-57.896-102.447-64.178z"/>
</svg>
