<svg version="1.1" x="0" y="0" viewBox="0 0 1024 1024" id="svg898" xmlns="http://www.w3.org/2000/svg">
   <g id="Icon">
      <circle id="Background" cx="512" cy="512" r="512" style="fill:#2ecfa8"/>
   </g>
   <path fill="#fff" fill-rule="evenodd" d="M725.253 568.643a51.583 51.583 0 0 1-8.49-2.737 19.483 19.483 0 0 1-6.008-4.095c1.636-14.509 0-27.093 1.357-41.313 5.475-55.266 40.223-37.753 71.411-46.776 19.416-5.475 38.843-16.69 43.772-39.678a401.382 401.382 0 0 0-71.132-65.38c-84.53-60.184-195.05-84.262-295.457-67.572a151.712 151.712 0 0 0 66.404 61.552s-27.205 0-50.526-17.413c-6.843 2.726-20.529 8.123-27.093 11.394 53.34 51.16 136.78 56.901 196.696 10.949-.278.545-5.474 8.478-11.76 41.58-13.953 70.576-54.176 65.113-103.957 47.332-103.41-37.485-160.312-2.737-212.018-73.87a47.733 47.733 0 0 0-24.356 41.58c0 17.781 9.858 32.824 24.078 41.036 7.766-10.303 11.25-13.23 24.79-13.23-20.951 11.884-23.421 22.254-32.445 50.983-10.949 34.748-6.298 70.32-57.458 79.61-27.082 1.37-26.537 19.695-36.384 47.066-12.306 35.539-28.718 49.77-60.73 83.417 13.13 15.866 26.816 17.78 40.758 12.039 28.729-12.04 50.893-49.247 71.677-73.325 23.255-26.804 79.066-15.31 121.192-41.58 29.007-17.78 43.227-41.847 24.078-82.615a80.713 80.713 0 0 1 20.795 49.246c48.69-6.297 113.804 53.074 173.164 62.921a106.037 106.037 0 0 1-14.498-24.345c-6.843-16.423-9.024-31.466-7.655-44.595 5.463 32.556 38.298 74.415 91.094 78.242 13.407 1.09 28.183-.556 43.505-5.196 18.325-5.474 35.282-12.584 55.522-8.757 15.054 2.737 29.007 10.393 37.764 23.255 13.129 19.138 41.847 23.255 54.71-.278-28.997-75.773-108.886-80.702-142.8-89.458z" id="path1040" style="display:inline;stroke-width:11.1266"/>
</svg>
