<svg xmlns="http://www.w3.org/2000/svg" viewBox="0 0 1024 1024">
   <circle cx="512" cy="512" r="512" style="fill:#68b0f4"/>
   <path d="M676.54 550a40 40 0 0 1-6.58-2.12 15.1 15.1 0 0 1-4.66-3.17c1.27-11.25 0-21 1.05-32 4.24-42.84 31.18-29.26 55.35-36.26 15.05-4.24 30.11-12.94 33.93-30.76A311.14 311.14 0 0 0 700.5 395c-65.52-46.65-151.2-65.32-229-52.38a117.6 117.6 0 0 0 51.47 47.71s-21.09 0-39.17-13.5c-5.31 2.11-15.91 6.3-21 8.83a117.18 117.18 0 0 0 152.47 8.49c-.22.42-4.24 6.57-9.12 32.23-10.82 54.71-42 50.47-80.58 36.69-80.18-29.07-124.29-2.15-164.37-57.29a36.7 36.7 0 0 0-.22 64c6-8 8.72-10.26 19.22-10.26-16.2 9.26-18.2 17.3-25.2 39.57-8.49 26.94-4.88 54.51-44.54 61.71-21 1.06-20.57 15.27-28.2 36.48-9.54 27.55-22.26 38.58-47.08 64.66 10.18 12.3 20.79 13.78 31.59 9.33 22.27-9.33 39.45-38.17 55.56-56.84 18-20.78 61.29-11.87 93.94-32.23 22.49-13.78 33.51-32.44 18.66-64a62.57 62.57 0 0 1 16.12 38.17c37.74-4.88 88.22 41.14 134.23 48.77a82.19 82.19 0 0 1-11.24-18.87c-5.31-12.73-7-24.39-5.93-34.57 4.24 25.24 29.69 57.68 70.61 60.65a91.44 91.44 0 0 0 33.72-4c14.21-4.24 27.35-9.75 43-6.79 11.67 2.12 22.49 8.06 29.27 18 10.18 14.84 32.44 18 42.41-.22-22.48-58.74-84.41-62.56-110.69-69.34Z" style="fill:#fff"/>
</svg>
