<?xml version="1.0" encoding="utf-8"?>
<!-- Generator: Adobe Illustrator 21.0.0, SVG Export Plug-In . SVG Version: 6.00 Build 0)  -->
<svg version="1.1" xmlns="http://www.w3.org/2000/svg" xmlns:xlink="http://www.w3.org/1999/xlink" x="0px" y="0px"
	 viewBox="0 0 1024 1024" style="enable-background:new 0 0 1024 1024;" xml:space="preserve">
<style type="text/css">
	.st0{fill:#231F20;}
	.st1{fill:#FFFFFF;}
</style>
<g id="Guides">
</g>
<g id="Icon">
	<circle class="st0" cx="512" cy="512" r="512"/>
	<g>
		<path class="st1" d="M496.8,634.3c4.7,0,9.4-0.2,14.2-0.7c74.2-7.8,128.1-74.3,120.2-148.5c-2.6-24.4-11.5-46.7-25-65.2
			c-18.6-13.5-40.8-22.6-65.3-25.1c-4.8-0.5-9.6-0.8-14.3-0.8c0,0,0,0,0,0c-68.3,0-126.9,51.6-134.2,121
			c-2.4,23.2,1.1,45.6,9.5,65.8l-32.5,75.6l0.9-0.2l84.4-28.6C468,632,482.2,634.3,496.8,634.3z"/>
		<path class="st1" d="M514.2,256c-138.9,0-255.9,112.6-255.9,251.5c0,4.5,0.1,260.5,0.1,260.5l255.8-0.3
			c138.9,0,251.5-117,251.5-255.9C765.7,372.9,653.1,256,514.2,256z M688,543.7c-9,85.6-85.7,147.8-171.3,138.8
			c-22.7-2.4-43.7-9.6-62.2-20.3l-102.4,12.1l-0.6,0.2l0.5-0.2l-0.5,0.1l0,0.1l0-0.1l-0.1,0l18.5-93.2
			c-14.2-20.7-23.7-45.2-26.5-71.9c-9-85.6,53.1-162.3,138.7-171.3c50.2-5.3,97.2,13.9,129.4,47.8c-26.3-20.2-59.2-32.3-95-32.3
			c-86.1,0-155.9,69.8-155.9,155.9c0,26.9,6.8,52.2,18.8,74.3l-28.2,90.8l0.1,0l26.4-71.6l6.7-15.7c-0.4-0.9-0.7-1.8-1-2.7l-2-5.7
			c-7.3-21.7-9.9-45-7.5-67.9c8.6-81.6,76.9-143.2,158.8-143.2c5.6,0,11.3,0.3,16.9,0.9c17.5,1.8,34.2,6.4,49.7,13.5
			c0,0,9.2,4.6,21.6,14.6c0,0,0,0,0,0c0.1,0.1,0.3,0.2,0.6,0.5c0.6,0.5,1.3,1,1.9,1.6c1.3,1.1,2.7,2.3,3.3,2.8c0,0,0,0,0,0
			c1.7,1.9,3.5,4.3,3.6,4.4c0,0,0,0,0,0c4.8,6,9.7,13.1,13.7,20.9c7.1,15.5,11.6,32.1,13.4,49.5c4.5,42.5-7.9,84.1-34.8,117.3
			c-26.9,33.2-65.1,53.9-107.5,58.4c-5.6,0.6-11.2,0.9-16.8,0.9c-16.5,0-32.9-2.6-48.7-7.6l-24.8,8.4l-71.5,20.2l99.1-22.4
			c19.5,8.8,41.2,13.7,64,13.7c86.1,0,155.9-69.8,155.9-155.9c0-35.7-12-68.5-32.2-94.8C674.2,446.7,693.3,493.7,688,543.7z"/>
	</g>
</g>
</svg>
