<?xml version="1.0" encoding="UTF-8" standalone="no"?>
<svg
   xmlns:dc="http://purl.org/dc/elements/1.1/"
   xmlns:cc="http://creativecommons.org/ns#"
   xmlns:rdf="http://www.w3.org/1999/02/22-rdf-syntax-ns#"
   xmlns:svg="http://www.w3.org/2000/svg"
   xmlns="http://www.w3.org/2000/svg"
   viewBox="0 0 1365.3333 1365.3333"
   height="1365.3333"
   width="1365.3333"
   xml:space="preserve"
   id="svg2"
   version="1.1"><metadata
     id="metadata8"><rdf:RDF><cc:Work
         rdf:about=""><dc:format>image/svg+xml</dc:format><dc:type
           rdf:resource="http://purl.org/dc/dcmitype/StillImage" /></cc:Work></rdf:RDF></metadata><defs
     id="defs6"><clipPath
       id="clipPath18"
       clipPathUnits="userSpaceOnUse"><path
         id="path16"
         d="M 0,1024 H 1024 V 0 H 0 Z" /></clipPath></defs><g
     transform="matrix(1.3333333,0,0,-1.3333333,0,1365.3333)"
     id="g10"><g
       id="g12"><g
         clip-path="url(#clipPath18)"
         id="g14"><g
           transform="translate(1024,512)"
           id="g20"><path
             id="path22"
             style="fill:#7782c9;fill-opacity:1;fill-rule:nonzero;stroke:none"
             d="m 0,0 c 0,-282.77 -229.23,-512 -512,-512 -282.77,0 -512,229.23 -512,512 0,282.77 229.23,512 512,512 C -229.23,512 0,282.77 0,0" /></g><g
           transform="translate(460.9229,529.832)"
           id="g24"><path
             id="path26"
             style="fill:#ffffff;fill-opacity:1;fill-rule:nonzero;stroke:none"
             d="m 0,0 c 15.747,0 28.48,-13.498 28.48,-30.032 0,-16.647 -12.823,-30.145 -28.57,-30.145 -15.747,0 -28.57,13.498 -28.57,30.01 0,16.647 12.823,30.1 28.57,30.1 z m 102.199,0 c 15.815,0 28.57,-13.498 28.57,-30.032 0,-16.647 -12.823,-30.145 -28.57,-30.145 -15.747,0 -28.57,13.498 -28.57,30.01 0.045,16.647 12.891,30.1 28.57,30.1 z M 98.42,99.275 h -0.675 l -4.544,-4.5 c 46.634,-13.497 69.197,-34.576 69.197,-34.576 -30.054,15.028 -57.139,22.541 -84.224,25.578 -19.572,3.037 -39.143,1.44 -55.678,0 h -4.499 c -10.573,0 -33.069,-4.499 -63.214,-16.534 -10.505,-4.567 -16.534,-7.559 -16.534,-7.559 0,0 22.541,22.541 72.212,34.576 l -3.037,3.037 c 0,0 -37.613,1.44 -78.218,-28.569 0,0 -40.606,-70.728 -40.606,-157.922 0,0 22.496,-39.143 84.203,-40.627 0,0 8.998,11.99 18.109,22.541 -34.644,10.527 -48.141,31.584 -48.141,31.584 0,0 3.014,-1.486 7.536,-4.499 h 1.349 c 0.675,0 0.99,-0.338 1.35,-0.675 v -0.136 c 0.36,-0.359 0.675,-0.675 1.35,-0.675 7.423,-3.059 14.847,-6.073 20.921,-8.998 10.483,-4.544 23.958,-9.065 40.493,-12.057 20.921,-3.037 44.902,-4.499 72.211,0 13.498,3.037 26.996,6.006 40.494,12.035 8.773,4.499 19.571,8.998 31.426,16.579 0,0 -13.498,-21.056 -49.603,-31.584 7.424,-10.483 17.884,-22.496 17.884,-22.496 61.729,1.349 85.71,40.493 87.059,38.828 0,87.06 -40.83,157.921 -40.83,157.921 -36.781,27.31 -71.199,28.346 -77.273,28.346 l 1.259,0.449 z m 137.63,127.844 c 31.63,0 57.139,-25.577 58.647,-55.677 v -484.225 l -60.221,51.133 -33.07,30.099 -36.083,31.449 15.073,-49.603 h -315.799 c -31.539,0 -57.139,23.959 -57.139,55.7 v 365.334 c 0,30.1 25.645,55.723 57.251,55.723 h 371.184 z" /></g></g></g></g></svg>