<?xml version="1.0" encoding="utf-8"?>
<!-- Generator: Adobe Illustrator 21.0.0, SVG Export Plug-In . SVG Version: 6.00 Build 0)  -->
<svg version="1.1" xmlns="http://www.w3.org/2000/svg" xmlns:xlink="http://www.w3.org/1999/xlink" x="0px" y="0px"
	 viewBox="0 0 1024 1024" style="enable-background:new 0 0 1024 1024;" xml:space="preserve">
<style type="text/css">
	.st0{fill:#7289DA;}
	.st1{fill:#FFFFFF;}
</style>
<g id="Guides">
</g>
<g id="Icon">
	<circle class="st0" cx="512" cy="512" r="512"/>
	<path class="st1" d="M697,267c31.6,0,57.1,25.6,58.6,55.7V807l-60.2-51.1l-33.1-30.1l-36.1-31.4l15.1,49.6H325.5
		c-31.5,0-57.1-24-57.1-55.7V322.8c0-30.1,25.6-55.7,57.3-55.7h371.2L697,267z M559.3,394.9h-0.7l-4.5,4.5
		c46.6,13.5,69.2,34.6,69.2,34.6c-30.1-15-57.1-22.5-84.2-25.6c-19.6-3-39.1-1.4-55.7,0h-4.5c-10.6,0-33.1,4.5-63.2,16.5
		c-10.5,4.6-16.5,7.6-16.5,7.6s22.5-22.5,72.2-34.6l-3-3c0,0-37.6-1.4-78.2,28.6c0,0-40.6,70.7-40.6,157.9c0,0,22.5,39.1,84.2,40.6
		c0,0,9-12,18.1-22.5c-34.6-10.5-48.1-31.6-48.1-31.6s3,1.5,7.5,4.5h1.3c0.7,0,1,0.3,1.3,0.7v0.1c0.4,0.4,0.7,0.7,1.3,0.7
		c7.4,3.1,14.8,6.1,20.9,9c10.5,4.5,24,9.1,40.5,12.1c20.9,3,44.9,4.5,72.2,0c13.5-3,27-6,40.5-12c8.8-4.5,19.6-9,31.4-16.6
		c0,0-13.5,21.1-49.6,31.6c7.4,10.5,17.9,22.5,17.9,22.5c61.7-1.3,85.7-40.5,87.1-38.8c0-87.1-40.8-157.9-40.8-157.9
		c-36.8-27.3-71.2-28.3-77.3-28.3L559.3,394.9L559.3,394.9z M563.1,494.2c15.8,0,28.6,13.5,28.6,30c0,16.6-12.8,30.1-28.6,30.1
		s-28.6-13.5-28.6-30C534.6,507.7,547.4,494.2,563.1,494.2L563.1,494.2z M460.9,494.2c15.7,0,28.5,13.5,28.5,30
		c0,16.6-12.8,30.1-28.6,30.1c-15.7,0-28.6-13.5-28.6-30C432.3,507.7,445.1,494.2,460.9,494.2L460.9,494.2z"/>
</g>
</svg>
