<svg xmlns="http://www.w3.org/2000/svg" viewBox="0 0 1024 1024" style="enable-background:new 0 0 1024 1024" xml:space="preserve">
   <circle cx="512" cy="512" r="512" style="fill:#50162d"/>
   <path d="M665.9 391.2c1.5 2.1 1.5 4.1 0 6.2-1.5.5-2.7.5-3.7 0l-3.7-5.4-8.9-2.3c-1.5-1.5-1.5-3.6 0-6.2 1.5-2.1 3.5-2.8 5.9-2.3 4.5 2.6 7.9 5.9 10.4 10zM774.4 496c.5 1.5.7 2.8.7 3.8l-3.7 5.4v-8.5c1.1-.4 2.1-.7 3-.7zm-130-114.8 3.7 6.2c-2 3.6-4 5.9-5.9 6.9l-2.2 3.1c-1-2.6-1.7-5.1-2.2-7.7-.5 0-1-.3-1.5-.8l-3 3.1-13.4-3.1c-2-2.6-1.5-5.4 1.5-8.5 3-3.1 6.4-3.9 10.4-2.3l12.6 3.1zm-27.5 16.2-3.7-2.3 3-1.5.7 3.8zm-59.5-39.3-4.4 5.4-4.5-5.4-3.7-.8 11.9-2.3.7 3.1zm231.9 115.5c2 1.5 2.2 5.4.7 11.6l-4.4 13.1-3.7 4.6-.7-9.2c0-2.1-.2-3.9-.7-5.4 0-1.5-.3-3.1-.8-4.6l-9.7 4.6c.5 1 .7 2.3.7 3.9.5 1.5 1 2.6 1.5 3.1l-10.4.8.7 3.1 2.2 2.3-3.7 8.5c-.5 4.6-1.7 7.2-3.7 7.7l-3-4.6-8.9 2.3c-2-2-2.9-3.8-2.9-5.4l-2.2-3.1 3.7-4.6c-1-2.1-2-3.1-3-3.1l-3.7 1.5-3.7 9.2c-3.5 0-5.7.5-6.7 1.5l4.4 6.2 15.6 8.5.7 5.4c2 .5 3.5 1.3 4.5 2.3 1.5 1 2.5 1.8 3 2.3-.5 1-1 2.3-1.5 3.9-.5 1-1.5 2-3 3.1l-6.7 4.6.7 6.2c-4 1.5-7.4 4.1-10.4 7.7l-2.2 8.5c-5.4 0-8.9.5-10.4 1.5l.7 11.6-2.2-.8c-2-3.1-4-3.9-5.9-2.3l3 10c-1.5 0-2.7.3-3.7.8l-1.5 1.5 3 5.4c.5 2.1.7 3.6.7 4.6-3 2.6-5.9 4.1-8.9 4.6-2.5.5-4.4 2.3-5.9 5.4l.7 9.2c-1.5 3.6-2.7 5.9-3.7 6.9-4.9 0-8.7.5-11.1 1.5l-4.5 8.5-3.7-1.5c-2-.5-3.5-.5-4.5 0l-3 6.2c-4.5 0-7.7 1-9.7 3.1l-5.9 5.4 1.5-6.9c1.5-4.1.7-6.4-2.2-6.9l-3 2.3-.7 3.9-7.4 4.6-.7 8.5h-14.1l-3 5.4c-1 3.1-3.5 5.4-7.4 6.9-4 1.5-10.9 2.3-20.8 2.3s-16.1.5-18.6 1.5c-2.5 0-4.7 1.3-6.7 3.9-1.5 2.6-3.2 4.4-5.2 5.4l-11.9 3.8-3.7 6.9-5.2 3.9c-2.5 1.5-6.4 2.3-11.9 2.3l-7.4 3.9L516 708l-8.2-.7c-3-1.5-6.4-2.3-10.4-2.3H484l-4.5-3.1-8.9 1.5-4.4 6.2-6.7-4.6-5.2-5.4-11.9-.8-4.5-3.9 6.7-8.5 8.9-12.3v-8.5l10.4-11.6v-13.1c0-4.1.7-7.7 2.2-10.8l8.2 2.3c2-2.1 3-3.6 3-4.6-3-2.6-5.7-5.9-8.2-10l-7.4-10.8-8.9-11.6-5.9-10.8-6.7-10.8-5.2-13.1-11.1-12.3-40.9-60.1-7.4-13.1-7.4-14.6-5.9-3.8c-4.5-5.6-8.2-11.8-11.2-18.5l-2.2-9.3-6.7-3.1-23 4.6c-5.5 0-11.4 1-17.8 3.1l-15.6 6.2-18.6 2.3-10.4 3.9c-4.5 1-7.9.5-10.4-1.5l-5.2-6.2-8.2 3.1-6.7-2.3c0-5.1-.5-8.2-1.5-9.3l-6.7-9.2c-3-2.1-5.2-3.4-6.7-3.9l.7-3.8h7.4c-.5-1.5-.7-3.3-.7-5.4v-3.9l7.4 3.1c2.5-1.5 4-2.8 4.5-3.9l3-6.1 5.9.8 4.4-13.1-.7-6.9 3.7 2.3 3.7 3.9c2.5-1 4-2.1 4.5-3.1l6.7-8.5 6.7.8-2.2-5.4-4.4-5.4-6.7-2.3c3-4.6 9.4-8 19.3-10l23.8-2.3 8.2-5.4 19.3-3.9 29.7-1.5 10.4-2.3c4-1.5 8-1.8 11.9-.8l11.9-.8c7.9-2 13.6-2.6 17.1-1.5l9.7.8 13.4.8 20.1 3.9 17.8 1.5 12.6-5.4c3 0 6.2 2.1 9.7 6.2l7.4 5.4h15.6l5.2 6.2-.7 3.9 4.4 12.3 3-1.5 6.7-7.7 7.4 11.6-8.9-3.1c-3.5 0-5.4 2.6-5.9 7.7l7.4 1.5 3 3.9 4.4-1.5c2.5-1 5-.5 7.4 1.5 3 1.5 4.9 3.3 5.9 5.4l4.4 6.2h9.7c0-1.5.2-2.6.7-3.1.5-1 1-1.8 1.5-2.3l1.5 7.7h3l2.2-2.3 2.2 3.9 2.2-6.2c6.4 0 10.2-.5 11.1-1.5 0-1.5-.5-2.8-1.5-3.8l-3-3.9c0-2.6 2-3.6 5.9-3.1l10.4 3.1 7.4-.8 4.4 3.9 1.5 3.1c-4.5-1-7.4-.8-8.9.8-1 1-1.2 2.8-.7 5.4l5.2 4.6c0 3.6 1.7 7.5 5.2 11.6l3-3.1.7-6.2 3 3.8h12.6c2.5 0 4.5 2.8 5.9 8.5l2.2 7.7 3 2.3 3.7-3.9 11.9 3.9 2.2-3.9 3.7-1.5c2-1.5 3.2-2.8 3.7-3.9v-3.8L671 404l10.4 3.1c2-2 3.2-3.6 3.7-4.6-1-2.6-2-3.9-3-3.9l-7.4-1.5v-3.9l2.2-5.4 2.2-4.6c2.5 1.5 4 2.8 4.5 3.9l3.7 5.4 5.2-.7 5.2-.8 18.6 16.2 5.2-.8 5.2 6.9 4.5 2.3c-1.5 2-1.5 4.4 0 6.9l5.2-2.3h5.2l4.5 7.7 4.4 7.7c4 0 6.9.5 8.9 1.5l2.9 13.9 8.2 4.6 6.7 2.3c0 2.6-.5 4.6-1.5 6.2l1.5 7.7 2.2 4.6-.7 5.4 3-1.5c2-2.6 3.5-4.1 4.5-4.6l3.1-2.1zM602 359.7c1.5 1.5 1.5 3.8 0 6.9-.5 1-2 1.8-4.5 2.3-1.5-1.5-1.5-3.9 0-6.9.5-1.1 2-1.8 4.5-2.3zm152.4 143.2c1.5 1.5 1.5 3.6 0 6.2l-3.7 1.5-.7-5.4c0-1.5.2-2.6.7-3.1 1-.4 2.2-.2 3.7.8zm-31.2-37.7c1 1 1.5 3.6 1.5 7.7-2 1-4 1.3-5.9.8-2.5-1.5-3-3.8-1.5-6.9.9-2.6 2.9-3.2 5.9-1.6zM512.8 362.7l-4.5 8.5 2.2-6.1 2.3-2.4zm102.6 297.4-3-4.6 3-2.3c2.5.5 3.5 2.3 3 5.4l-3 1.5zm124.1-114.8c-3-2-5-4.1-5.9-6.1l4.4 3.1 1.5 3zM442.2 682.4l3.7-3.8 3.7-2.3-7.4 6.1zm319.6-199.5-2.2 4.6-.7 2.3-.7-5.4 3.6-1.5zm3.7 37.8-1.5 6.9 1.5-6.9zm-52.8-84.8 2.2 3.1-3 .8-3-2.3 3.8-1.6zM579.7 617l-3 2.3 3-2.3zm-15.6-259.7-.7 3.9.7-3.9zm158.3 85.5-1.5 3.9 1.5-3.9zm-3 125.6 1.5 2.3-2.2 1.5.7-3.8zM576.7 361.9l-1.5 2.3 1.5-2.3zm40.1 281.2-1.5 3.1 1.5-3.1zM449.6 478.3l-3 3.1 3-3.1zm-4.4 221.1-.7 3.9.7-3.9zm225.2-301.3 1.5 2.3-3.7-1.5 2.2-.8zM549.2 607.7l-.7 3.1.7-3.1zm171.7-156.4-.7 3.1.7-3.1zm-5.2 36.2-1.5 2.3 1.5-2.3zm9.7 95.5-2.2 1.5 2.2-1.5zM251.9 390.5l-.7 3.8.7-3.8zm498 128.6-3 1.5 3-1.5zm-9.7-5.4-4.4.8 4.4-.8zM583.4 678.6l-.7 2.3.7-2.3zm150.2-148.7V526v3.9zm36.4-51.6c-.5 1-.7 2.1-.7 3.1-.1-1.6.2-2.6.7-3.1zM247.4 375.8l-.7 3.1.7-3.1zm422.9 67-3 .8 3-.8zm-11.8-46.2-1.5 2.3 1.5-2.3zm-183.6-43.9-2.2.8 2.2-.8zm74.3 30.8-.7 3.1.7-3.1zm-10.3-.7-1.5 1.5 1.5-1.5zm-96 311.2-.7 3.1.7-3.1zm268.3-192.6-1.5-1.5 1.5 1.5zM528.4 378.1l-1.5-1.5 1.5 1.5zM767 476c0-4.1-.7-7.5-2.2-10-1-2.6-2.7-4.9-5.2-6.9l-.7 10 5.2 2.3c.5 1.5.5 2.8 0 3.8l2.9.8zm-58-18.5-1.5-1.5 1.5 1.5zm29.7 34.6-3.7-.8-4.4-6.9 1.5-6.2-6.7 4.6 3.7 4.6.7 2.3-8.9 3.8 5.9.8c1 1 2 1.8 3 2.3 1.5.5 2.5.8 3 .8l5.9-5.3zm-14.8-13.8-3-2.3-5.2-1.5-2.2-3.9-3 3.1-2.2 5.4 5.9 2.3c3 0 5.2.8 6.7 2.3l3-5.4zm-130.1-84-3-1.5-4.4-2.3c-2 0-3 .5-3 1.5l.7 4.6 5.2 3.1 4.5-5.4zM683 558.4l1.5-9.3c0-8.2-3-16.9-8.9-26.2-4.9-9.2-11.4-16.7-19.3-22.3-6.4-6.2-15.4-11.6-26.7-16.2l-29.7-13.1-11.2-6.9-16.4-6.2-17.1-5.4-27.5-6.2-8.9-1.5c-4.4 0-7.9.5-10.4 1.5-2 .5-2.7 2.3-2.2 5.4l8.9 17.7c4.5 8.2 8.7 13.9 12.6 16.9l6.7 4.6v4.6l7.4 9.2.7 6.2c2 1.5 3.5 2.3 4.5 2.3 2.5 1.5 5.7 5.4 9.7 11.6l8.2 10 12.6 18.5 11.2 20 5.2 15.4-1.5 10 3 4.6-3 4.6c-1.5 1.5-1.5 3.1 0 4.6l5.2-1.5 8.9-3.9c2.5 0 6.7-1.5 12.6-4.6l16.4-7.7 23-9.2c9.4-4.1 16.1-8.2 20.1-12.3l3-7.7c-.1-3.4.4-6 1.4-7.5z" style="fill:#fff"/>
</svg>
