<?xml version="1.0" encoding="UTF-8" standalone="no"?>
<svg
   xmlns:dc="http://purl.org/dc/elements/1.1/"
   xmlns:cc="http://creativecommons.org/ns#"
   xmlns:rdf="http://www.w3.org/1999/02/22-rdf-syntax-ns#"
   xmlns:svg="http://www.w3.org/2000/svg"
   xmlns="http://www.w3.org/2000/svg"
   viewBox="0 0 1365.3333 1365.3333"
   height="1365.3333"
   width="1365.3333"
   xml:space="preserve"
   id="svg2"
   version="1.1"><metadata
     id="metadata8"><rdf:RDF><cc:Work
         rdf:about=""><dc:format>image/svg+xml</dc:format><dc:type
           rdf:resource="http://purl.org/dc/dcmitype/StillImage" /></cc:Work></rdf:RDF></metadata><defs
     id="defs6"><clipPath
       id="clipPath18"
       clipPathUnits="userSpaceOnUse"><path
         id="path16"
         d="M 0,1024 H 1024 V 0 H 0 Z" /></clipPath></defs><g
     transform="matrix(1.3333333,0,0,-1.3333333,0,1365.3333)"
     id="g10"><g
       id="g12"><g
         clip-path="url(#clipPath18)"
         id="g14"><g
           transform="translate(1024,512)"
           id="g20"><path
             id="path22"
             style="fill:#491628;fill-opacity:1;fill-rule:nonzero;stroke:none"
             d="m 0,0 c 0,-282.77 -229.23,-512 -512,-512 -282.77,0 -512,229.23 -512,512 0,282.77 229.23,512 512,512 C -229.23,512 0,282.77 0,0" /></g><g
           transform="translate(683.0117,465.5996)"
           id="g24"><path
             id="path26"
             style="fill:#ffffff;fill-opacity:1;fill-rule:nonzero;stroke:none"
             d="m 0,0 1.498,9.256 c 0,8.217 -2.98,16.949 -8.941,26.197 -4.947,9.248 -11.391,16.692 -19.334,22.331 -6.445,6.171 -15.355,11.568 -26.73,16.192 l -29.725,13.074 -11.165,6.936 -16.362,6.163 -17.086,5.39 -27.503,6.162 -8.941,1.547 c -4.447,0 -7.911,-0.516 -10.392,-1.547 -1.982,-0.499 -2.723,-2.296 -2.224,-5.389 l 8.918,-17.715 c 4.463,-8.217 8.676,-13.864 12.639,-16.941 l 6.695,-4.616 V 62.4 l 7.42,-9.232 0.724,-6.163 c 1.998,-1.547 3.488,-2.319 4.471,-2.319 2.481,-1.532 5.704,-5.382 9.667,-11.553 l 8.193,-10.005 12.615,-18.488 11.166,-20.035 5.196,-15.394 -1.475,-10.029 2.973,-4.617 -2.973,-4.616 c -1.498,-1.547 -1.498,-3.093 0,-4.639 l 5.197,1.546 8.917,3.867 c 2.481,0 6.694,1.53 12.639,4.591 l 16.361,7.734 23.032,9.232 c 9.409,4.109 16.095,8.217 20.059,12.325 l 2.973,7.709 c 0,3.593 0.499,6.164 1.498,7.71 z m -89.201,164.096 -2.973,1.547 -4.447,2.295 c -1.982,0 -2.973,-0.507 -2.973,-1.522 l 0.726,-4.64 5.22,-3.069 z m 130.068,-83.957 -2.972,2.296 -5.221,1.546 -2.223,3.867 -2.972,-3.094 -2.224,-5.389 5.945,-2.32 c 2.965,0 5.196,-0.765 6.695,-2.295 z m 14.839,-13.872 -3.698,0.773 -4.446,6.936 1.473,6.163 -6.694,-4.64 3.722,-4.592 0.725,-2.344 -8.893,-3.843 5.945,-0.774 c 0.982,-1.03 1.973,-1.796 2.973,-2.296 1.481,-0.515 2.472,-0.773 2.971,-0.773 l 5.945,5.39 z m -29.727,34.655 -1.449,1.547 z M 83.981,82.435 c 0,4.108 -0.749,7.451 -2.248,10.029 -0.982,2.562 -2.714,4.866 -5.195,6.912 L 75.813,89.371 81.009,87.05 c 0.483,-1.53 0.483,-2.811 0,-3.842 z m -238.603,97.829 -1.499,1.547 z M 28.203,57.011 l -1.45,1.546 z m -268.329,-192.59 -0.726,-3.069 z m 95.968,311.227 -1.498,-1.547 1.473,1.547 z m 10.392,-0.773 -0.75,-3.07 0.726,3.07 z m -74.338,30.813 -2.224,-0.773 z m 183.55,-43.912 -1.474,-2.296 z m 11.89,-46.208 -2.973,-0.774 z m -422.952,67.016 -0.725,-3.069 z M 86.979,80.139 c -0.5,-1.032 -0.75,-2.063 -0.75,-3.094 0,1.547 0.242,2.578 0.725,3.094 z M 50.558,28.518 v 3.866 z m -150.175,-148.678 -0.726,-2.32 z M 57.229,44.686 52.781,43.912 Z m 9.667,-5.39 -2.973,-1.547 z m -498.017,128.642 -0.749,-3.842 0.725,3.866 z M 42.365,-24.627 40.142,-26.174 Z m -9.667,95.509 -1.474,-2.319 z m 5.22,36.203 -0.749,-3.069 0.726,3.069 z m -171.708,-156.362 -0.749,-3.094 0.725,3.069 z m 121.175,209.53 1.45,-2.32 -3.698,1.547 2.223,0.773 z m -225.239,-301.221 -0.75,-3.867 0.725,3.867 z m 4.446,221.107 -2.972,-3.094 z M -66.17,-84.73 -67.62,-87.8 Z m -40.118,281.186 -1.498,-2.32 z M 36.42,-10.006 l 1.499,-2.296 -2.248,-1.546 0.749,3.867 z m 2.973,125.574 -1.475,-3.867 z m -158.321,85.504 -0.724,-3.867 z m 15.588,-259.63 -2.973,-2.32 z m 133.041,181.038 2.248,-3.094 -2.972,-0.773 -2.973,2.32 z M 82.483,37.725 81.009,30.813 Z m -3.721,37.749 -2.224,-4.591 -0.725,-2.344 -0.75,5.413 z m -319.589,-199.5 3.697,3.841 3.722,2.321 z M 56.527,13.099 c -2.98,2.046 -4.963,4.091 -5.945,6.138 l 4.447,-3.069 1.498,-3.094 z m -124.147,-114.795 -2.973,4.616 2.973,2.32 c 2.481,-0.515 3.472,-2.312 2.973,-5.389 z m -102.566,297.354 -4.471,-8.458 2.223,6.138 z M 40.166,93.189 c 0.982,-1.015 1.475,-3.577 1.475,-7.685 -1.983,-1.031 -3.964,-1.289 -5.946,-0.774 -2.465,1.531 -2.957,3.843 -1.474,6.937 0.983,2.577 2.965,3.085 5.945,1.522 M 71.391,55.464 c 1.481,-1.547 1.481,-3.601 0,-6.163 l -3.723,-1.547 -0.725,5.39 c 0,1.53 0.242,2.553 0.725,3.069 0.999,0.516 2.24,0.258 3.723,-0.774 z M -80.984,198.728 c 1.482,-1.531 1.482,-3.835 0,-6.912 -0.5,-1.031 -1.991,-1.805 -4.472,-2.32 -1.482,1.546 -1.482,3.858 0,6.936 0.483,1.031 1.974,1.796 4.472,2.296 M 106.288,84.754 c 1.982,-1.546 2.232,-5.397 0.749,-11.551 L 102.59,60.104 98.868,55.488 98.119,64.72 c 0,2.062 -0.241,3.859 -0.724,5.389 0,1.547 -0.258,3.085 -0.774,4.616 l -9.667,-4.592 c 0.499,-1.047 0.749,-2.336 0.749,-3.866 0.499,-1.547 0.999,-2.578 1.498,-3.094 L 78.81,62.4 l 0.724,-3.069 2.224,-2.32 -3.697,-8.459 c -0.5,-4.624 -1.741,-7.201 -3.722,-7.734 l -2.973,4.64 -8.942,-2.295 c -1.966,2.046 -2.948,3.842 -2.948,5.389 l -2.247,3.069 3.721,4.616 c -0.983,2.062 -1.973,3.094 -2.972,3.094 l -3.722,-1.547 -3.698,-9.232 c -3.48,0 -5.711,-0.515 -6.695,-1.547 l 4.448,-6.162 15.612,-8.459 0.749,-5.413 c 1.981,-0.516 3.472,-1.282 4.471,-2.296 1.482,-1.031 2.472,-1.805 2.972,-2.321 -0.5,-1.031 -0.999,-2.32 -1.498,-3.866 -0.483,-1.015 -1.474,-2.038 -2.972,-3.069 L 60.95,10.803 61.699,4.64 C 57.735,3.094 54.271,0.523 51.307,-3.069 l -2.247,-8.459 c -5.446,0 -8.911,-0.516 -10.392,-1.546 l 0.725,-11.576 -2.224,0.772 c -1.981,3.094 -3.963,3.867 -5.945,2.32 l 2.972,-10.004 c -1.481,0 -2.722,-0.258 -3.721,-0.774 l -1.474,-1.547 2.973,-5.389 c 0.483,-2.062 0.724,-3.609 0.724,-4.64 -2.965,-2.562 -5.937,-4.093 -8.918,-4.592 -2.465,-0.531 -4.446,-2.336 -5.945,-5.413 l 0.75,-9.232 c -1.482,-3.61 -2.724,-5.921 -3.722,-6.936 -4.946,0 -8.66,-0.516 -11.141,-1.547 l -4.471,-8.459 -3.698,1.523 c -1.997,0.515 -3.488,0.515 -4.471,0 l -2.973,-6.162 c -4.463,0 -7.684,-1.024 -9.667,-3.07 l -5.945,-5.414 1.499,6.937 c 1.483,4.108 0.733,6.42 -2.248,6.935 l -2.973,-2.296 -0.724,-3.866 -7.444,-4.616 -0.725,-8.458 h -14.138 l -2.973,-5.414 c -0.999,-3.077 -3.479,-5.39 -7.443,-6.936 -3.963,-1.531 -10.899,-2.296 -20.807,-2.296 -9.91,0 -16.104,-0.515 -18.585,-1.547 -2.482,0 -4.713,-1.289 -6.695,-3.867 -1.482,-2.561 -3.214,-4.358 -5.196,-5.388 l -11.89,-3.843 -3.721,-6.937 -5.197,-3.866 c -2.481,-1.531 -6.444,-2.296 -11.89,-2.296 l -7.444,-3.867 -11.141,-4.592 -8.193,0.749 c -2.964,1.547 -6.428,2.321 -10.391,2.321 h -13.389 l -4.471,3.093 -8.918,-1.547 -4.447,-6.163 -6.694,4.617 -5.196,5.389 -11.89,0.774 -4.471,3.866 6.694,8.459 8.918,12.325 v 8.459 l 10.392,11.575 v 13.1 c 0,4.108 0.749,7.701 2.247,10.778 l 8.169,-2.32 c 1.982,2.062 2.972,3.609 2.973,4.64 -2.965,2.562 -5.688,5.897 -8.169,10.005 l -7.444,10.779 -8.918,11.551 -5.944,10.803 -6.695,10.779 -5.196,13.099 -11.141,12.325 -40.891,60.08 -7.444,13.099 -7.419,14.645 -5.945,3.843 c -4.463,5.639 -8.185,11.802 -11.165,18.488 l -2.224,9.256 -6.694,3.069 -23.032,-4.616 c -5.461,0 -11.406,-1.031 -17.835,-3.093 l -15.612,-6.163 -18.609,-2.296 -10.392,-3.866 c -4.463,-1.032 -7.927,-0.516 -10.392,1.546 l -5.22,6.163 -8.169,-3.094 -6.694,2.321 c 0,5.139 -0.491,8.224 -1.474,9.256 l -6.694,9.231 c -2.981,2.063 -5.212,3.352 -6.695,3.867 l 0.725,3.843 h 7.444 c -0.484,1.531 -0.725,3.327 -0.725,5.389 v 3.867 l 7.419,-3.093 c 2.482,1.53 3.972,2.819 4.471,3.866 l 2.973,6.139 5.945,-0.774 4.447,13.099 -0.726,6.936 3.723,-2.296 3.697,-3.866 c 2.481,1.031 3.972,2.062 4.471,3.093 l 6.694,8.458 6.67,-0.773 -2.223,5.389 -4.447,5.414 -6.694,2.296 c 2.964,4.624 9.409,7.967 19.334,10.029 l 23.78,2.296 8.169,5.389 19.334,3.867 29.726,1.547 10.391,2.296 c 3.98,1.547 7.952,1.804 11.915,0.773 l 11.89,0.774 c 7.927,2.046 13.623,2.561 17.087,1.546 l 9.667,-0.773 13.388,-0.773 20.059,-3.867 17.836,-1.523 12.639,5.39 c 2.981,0 6.203,-2.055 9.667,-6.163 l 7.443,-5.39 h 15.613 l 5.195,-6.162 -0.724,-3.867 4.446,-12.325 2.973,1.546 6.694,7.71 7.42,-11.552 -8.918,3.069 c -3.464,0 -5.446,-2.562 -5.945,-7.685 l 7.443,-1.547 2.973,-3.867 4.447,1.547 c 2.48,1.031 4.962,0.516 7.443,-1.547 2.964,-1.53 4.947,-3.326 5.946,-5.389 l 4.446,-6.163 h 9.667 c 0,1.547 0.242,2.578 0.725,3.094 0.515,1.031 1.015,1.796 1.499,2.296 l 1.498,-7.685 h 2.972 l 2.224,2.295 2.247,-3.866 2.224,6.186 c 6.444,0 10.158,0.516 11.141,1.547 0,1.531 -0.492,2.812 -1.474,3.843 l -2.973,3.867 c 0,2.561 1.981,3.585 5.945,3.069 l 10.392,-3.094 7.444,0.774 4.446,-3.867 1.498,-3.069 c -4.462,1.031 -7.443,0.773 -8.941,-0.774 -0.967,-1.014 -1.208,-2.811 -0.726,-5.389 l 5.197,-4.592 c 0,-3.609 1.74,-7.468 5.22,-11.576 l 2.972,3.069 0.726,6.163 2.997,-3.842 h 12.615 c 2.481,0 4.463,-2.82 5.944,-8.459 l 2.248,-7.734 2.973,-2.296 3.722,3.867 11.89,-3.867 2.223,3.867 3.722,1.523 c 1.982,1.546 3.222,2.836 3.722,3.867 v 3.842 l -1.499,3.867 10.393,-3.093 c 1.997,2.046 3.238,3.584 3.722,4.616 -0.984,2.577 -1.974,3.866 -2.973,3.866 l -7.42,1.523 v 3.867 l 2.224,5.389 2.223,4.616 c 2.481,-1.531 3.972,-2.82 4.471,-3.867 l 3.722,-5.365 5.196,0.749 5.195,0.773 18.61,-16.167 5.196,0.773 5.195,-6.936 4.471,-2.32 c -1.498,-2.046 -1.498,-4.351 0,-6.912 l 5.196,2.296 h 5.197 l 4.47,-7.71 4.448,-7.685 c 3.962,0 6.943,-0.515 8.941,-1.547 l 2.948,-13.872 8.194,-4.615 6.669,-2.321 c 0,-2.577 -0.491,-4.631 -1.474,-6.162 l 1.474,-7.71 2.248,-4.592 -0.749,-5.413 2.972,1.547 c 1.982,2.578 3.472,4.116 4.471,4.616 l 2.973,1.546 z m -231.91,115.544 -4.446,-5.389 -4.471,5.389 -3.723,0.774 11.891,2.32 z m 59.476,-39.296 -3.722,2.321 2.972,1.546 0.726,-3.867 z m 27.502,16.192 3.698,-6.162 c -1.982,-3.593 -3.963,-5.905 -5.946,-6.936 l -2.222,-3.069 c -0.984,2.561 -1.725,5.123 -2.224,7.685 -0.499,0 -0.999,0.258 -1.498,0.773 l -2.973,-3.069 -13.365,3.069 c -1.981,2.578 -1.49,5.397 1.475,8.459 2.98,3.093 6.444,3.867 10.391,2.32 z M 91.425,62.4 c 0.499,-1.531 0.749,-2.812 0.749,-3.843 l -3.722,-5.389 v 8.458 c 0.999,0.516 1.99,0.774 2.973,0.774 M -17.086,167.189 c 1.482,-2.062 1.482,-4.116 0,-6.162 -1.499,-0.516 -2.739,-0.516 -3.722,0 l -3.722,5.389 -8.917,2.296 c -1.483,1.546 -1.483,3.601 0,6.163 1.482,2.062 3.464,2.835 5.945,2.319 4.463,-2.577 7.927,-5.921 10.392,-10.029 z" /></g></g></g></g></svg>