<?xml version="1.0" encoding="utf-8"?>
<!-- Generator: Adobe Illustrator 21.0.0, SVG Export Plug-In . SVG Version: 6.00 Build 0)  -->
<svg version="1.1" xmlns="http://www.w3.org/2000/svg" xmlns:xlink="http://www.w3.org/1999/xlink" x="0px" y="0px"
	 viewBox="0 0 1024 1024" style="enable-background:new 0 0 1024 1024;" xml:space="preserve">
<style type="text/css">
	.st0{fill:#50162D;}
	.st1{fill:#FFFFFF;}
</style>
<g id="Guides">
</g>
<g id="Icon">
	<circle class="st0" cx="512" cy="512" r="512"/>
	<g>
		<path class="st1" d="M665.9,391.2c1.5,2.1,1.5,4.1,0,6.2c-1.5,0.5-2.7,0.5-3.7,0l-3.7-5.4l-8.9-2.3c-1.5-1.5-1.5-3.6,0-6.2
			c1.5-2.1,3.5-2.8,5.9-2.3C660,383.8,663.4,387.1,665.9,391.2L665.9,391.2z M774.4,496c0.5,1.5,0.7,2.8,0.7,3.8l-3.7,5.4v-8.5
			C772.5,496.3,773.5,496,774.4,496z M644.4,381.2l3.7,6.2c-2,3.6-4,5.9-5.9,6.9l-2.2,3.1c-1-2.6-1.7-5.1-2.2-7.7
			c-0.5,0-1-0.3-1.5-0.8l-3,3.1l-13.4-3.1c-2-2.6-1.5-5.4,1.5-8.5c3-3.1,6.4-3.9,10.4-2.3L644.4,381.2z M616.9,397.4l-3.7-2.3l3-1.5
			L616.9,397.4L616.9,397.4z M557.4,358.1l-4.4,5.4l-4.5-5.4l-3.7-0.8l11.9-2.3L557.4,358.1z M789.3,473.6c2,1.5,2.2,5.4,0.7,11.6
			l-4.4,13.1l-3.7,4.6l-0.7-9.2c0-2.1-0.2-3.9-0.7-5.4c0-1.5-0.3-3.1-0.8-4.6l-9.7,4.6c0.5,1,0.7,2.3,0.7,3.9c0.5,1.5,1,2.6,1.5,3.1
			l-10.4,0.8l0.7,3.1l2.2,2.3l-3.7,8.5c-0.5,4.6-1.7,7.2-3.7,7.7l-3-4.6l-8.9,2.3c-2-2-2.9-3.8-2.9-5.4l-2.2-3.1l3.7-4.6
			c-1-2.1-2-3.1-3-3.1l-3.7,1.5l-3.7,9.2c-3.5,0-5.7,0.5-6.7,1.5l4.4,6.2l15.6,8.5l0.7,5.4c2,0.5,3.5,1.3,4.5,2.3
			c1.5,1,2.5,1.8,3,2.3c-0.5,1-1,2.3-1.5,3.9c-0.5,1-1.5,2-3,3.1l-6.7,4.6l0.7,6.2c-4,1.5-7.4,4.1-10.4,7.7l-2.2,8.5
			c-5.4,0-8.9,0.5-10.4,1.5l0.7,11.6l-2.2-0.8c-2-3.1-4-3.9-5.9-2.3l3,10c-1.5,0-2.7,0.3-3.7,0.8l-1.5,1.5l3,5.4
			c0.5,2.1,0.7,3.6,0.7,4.6c-3,2.6-5.9,4.1-8.9,4.6c-2.5,0.5-4.4,2.3-5.9,5.4l0.7,9.2c-1.5,3.6-2.7,5.9-3.7,6.9
			c-4.9,0-8.7,0.5-11.1,1.5l-4.5,8.5l-3.7-1.5c-2-0.5-3.5-0.5-4.5,0l-3,6.2c-4.5,0-7.7,1-9.7,3.1l-5.9,5.4l1.5-6.9
			c1.5-4.1,0.7-6.4-2.2-6.9l-3,2.3l-0.7,3.9l-7.4,4.6l-0.7,8.5h-14.1l-3,5.4c-1,3.1-3.5,5.4-7.4,6.9c-4,1.5-10.9,2.3-20.8,2.3
			c-9.9,0-16.1,0.5-18.6,1.5c-2.5,0-4.7,1.3-6.7,3.9c-1.5,2.6-3.2,4.4-5.2,5.4l-11.9,3.8l-3.7,6.9l-5.2,3.9
			c-2.5,1.5-6.4,2.3-11.9,2.3l-7.4,3.9l-11.1,4.6l-8.2-0.7c-3-1.5-6.4-2.3-10.4-2.3h-13.4l-4.5-3.1l-8.9,1.5l-4.4,6.2l-6.7-4.6
			l-5.2-5.4l-11.9-0.8l-4.5-3.9l6.7-8.5l8.9-12.3v-8.5l10.4-11.6v-13.1c0-4.1,0.7-7.7,2.2-10.8l8.2,2.3c2-2.1,3-3.6,3-4.6
			c-3-2.6-5.7-5.9-8.2-10l-7.4-10.8l-8.9-11.6l-5.9-10.8l-6.7-10.8l-5.2-13.1l-11.1-12.3l-40.9-60.1l-7.4-13.1l-7.4-14.6l-5.9-3.8
			c-4.5-5.6-8.2-11.8-11.2-18.5l-2.2-9.3l-6.7-3.1l-23,4.6c-5.5,0-11.4,1-17.8,3.1l-15.6,6.2l-18.6,2.3l-10.4,3.9
			c-4.5,1-7.9,0.5-10.4-1.5l-5.2-6.2l-8.2,3.1l-6.7-2.3c0-5.1-0.5-8.2-1.5-9.3l-6.7-9.2c-3-2.1-5.2-3.4-6.7-3.9l0.7-3.8h7.4
			c-0.5-1.5-0.7-3.3-0.7-5.4v-3.9l7.4,3.1c2.5-1.5,4-2.8,4.5-3.9l3-6.1l5.9,0.8l4.4-13.1l-0.7-6.9l3.7,2.3l3.7,3.9
			c2.5-1,4-2.1,4.5-3.1l6.7-8.5l6.7,0.8l-2.2-5.4l-4.4-5.4l-6.7-2.3c3-4.6,9.4-8,19.3-10l23.8-2.3l8.2-5.4l19.3-3.9l29.7-1.5
			l10.4-2.3c4-1.5,8-1.8,11.9-0.8l11.9-0.8c7.9-2,13.6-2.6,17.1-1.5l9.7,0.8l13.4,0.8l20.1,3.9l17.8,1.5l12.6-5.4
			c3,0,6.2,2.1,9.7,6.2l7.4,5.4h15.6l5.2,6.2l-0.7,3.9l4.4,12.3l3-1.5l6.7-7.7l7.4,11.6l-8.9-3.1c-3.5,0-5.4,2.6-5.9,7.7l7.4,1.5
			l3,3.9l4.4-1.5c2.5-1,5-0.5,7.4,1.5c3,1.5,4.9,3.3,5.9,5.4l4.4,6.2h9.7c0-1.5,0.2-2.6,0.7-3.1c0.5-1,1-1.8,1.5-2.3l1.5,7.7h3
			l2.2-2.3l2.2,3.9l2.2-6.2c6.4,0,10.2-0.5,11.1-1.5c0-1.5-0.5-2.8-1.5-3.8l-3-3.9c0-2.6,2-3.6,5.9-3.1l10.4,3.1l7.4-0.8l4.4,3.9
			l1.5,3.1c-4.5-1-7.4-0.8-8.9,0.8c-1,1-1.2,2.8-0.7,5.4l5.2,4.6c0,3.6,1.7,7.5,5.2,11.6l3-3.1l0.7-6.2l3,3.8h12.6
			c2.5,0,4.5,2.8,5.9,8.5l2.2,7.7l3,2.3l3.7-3.9l11.9,3.9l2.2-3.9l3.7-1.5c2-1.5,3.2-2.8,3.7-3.9v-3.8l-1.5-3.9l10.4,3.1
			c2-2,3.2-3.6,3.7-4.6c-1-2.6-2-3.9-3-3.9l-7.4-1.5v-3.9l2.2-5.4l2.2-4.6c2.5,1.5,4,2.8,4.5,3.9l3.7,5.4l5.2-0.7l5.2-0.8l18.6,16.2
			l5.2-0.8l5.2,6.9l4.5,2.3c-1.5,2-1.5,4.4,0,6.9l5.2-2.3h5.2l4.5,7.7l4.4,7.7c4,0,6.9,0.5,8.9,1.5l2.9,13.9l8.2,4.6l6.7,2.3
			c0,2.6-0.5,4.6-1.5,6.2l1.5,7.7l2.2,4.6l-0.7,5.4l3-1.5c2-2.6,3.5-4.1,4.5-4.6L789.3,473.6L789.3,473.6z M602,359.7
			c1.5,1.5,1.5,3.8,0,6.9c-0.5,1-2,1.8-4.5,2.3c-1.5-1.5-1.5-3.9,0-6.9C598,360.9,599.5,360.2,602,359.7z M754.4,502.9
			c1.5,1.5,1.5,3.6,0,6.2l-3.7,1.5l-0.7-5.4c0-1.5,0.2-2.6,0.7-3.1C751.7,501.7,752.9,501.9,754.4,502.9L754.4,502.9z M723.2,465.2
			c1,1,1.5,3.6,1.5,7.7c-2,1-4,1.3-5.9,0.8c-2.5-1.5-3-3.8-1.5-6.9C718.2,464.2,720.2,463.6,723.2,465.2z M512.8,362.7l-4.5,8.5
			l2.2-6.1L512.8,362.7z M615.4,660.1l-3-4.6l3-2.3c2.5,0.5,3.5,2.3,3,5.4L615.4,660.1z M739.5,545.3c-3-2-5-4.1-5.9-6.1l4.4,3.1
			L739.5,545.3L739.5,545.3z M442.2,682.4l3.7-3.8l3.7-2.3L442.2,682.4z M761.8,482.9l-2.2,4.6l-0.7,2.3l-0.7-5.4L761.8,482.9z
			 M765.5,520.7l-1.5,6.9L765.5,520.7z M712.7,435.9l2.2,3.1l-3,0.8l-3-2.3L712.7,435.9z M579.7,617l-3,2.3L579.7,617z M564.1,357.3
			l-0.7,3.9L564.1,357.3z M722.4,442.8l-1.5,3.9L722.4,442.8z M719.4,568.4l1.5,2.3l-2.2,1.5L719.4,568.4L719.4,568.4z M576.7,361.9
			l-1.5,2.3L576.7,361.9z M616.8,643.1l-1.5,3.1L616.8,643.1z M449.6,478.3l-3,3.1L449.6,478.3z M445.2,699.4l-0.7,3.9L445.2,699.4
			L445.2,699.4z M670.4,398.1l1.5,2.3l-3.7-1.5L670.4,398.1L670.4,398.1z M549.2,607.7l-0.7,3.1L549.2,607.7L549.2,607.7z
			 M720.9,451.3l-0.7,3.1L720.9,451.3L720.9,451.3z M715.7,487.5l-1.5,2.3L715.7,487.5z M725.4,583l-2.2,1.5L725.4,583z
			 M251.9,390.5l-0.7,3.8L251.9,390.5L251.9,390.5z M749.9,519.1l-3,1.5L749.9,519.1z M740.2,513.7l-4.4,0.8L740.2,513.7z
			 M583.4,678.6l-0.7,2.3L583.4,678.6z M733.6,529.9V526V529.9z M770,478.3c-0.5,1-0.7,2.1-0.7,3.1
			C769.2,479.8,769.5,478.8,770,478.3L770,478.3z M247.4,375.8l-0.7,3.1L247.4,375.8z M670.3,442.8l-3,0.8L670.3,442.8z
			 M658.5,396.6l-1.5,2.3L658.5,396.6z M474.9,352.7l-2.2,0.8L474.9,352.7z M549.2,383.5l-0.7,3.1L549.2,383.5L549.2,383.5z
			 M538.9,382.8l-1.5,1.5L538.9,382.8L538.9,382.8z M442.9,694l-0.7,3.1L442.9,694z M711.2,501.4l-1.5-1.5L711.2,501.4z
			 M528.4,378.1l-1.5-1.5L528.4,378.1z M767,476c0-4.1-0.7-7.5-2.2-10c-1-2.6-2.7-4.9-5.2-6.9l-0.7,10l5.2,2.3
			c0.5,1.5,0.5,2.8,0,3.8L767,476z M709,457.5l-1.5-1.5L709,457.5z M738.7,492.1l-3.7-0.8l-4.4-6.9l1.5-6.2l-6.7,4.6l3.7,4.6
			l0.7,2.3l-8.9,3.8l5.9,0.8c1,1,2,1.8,3,2.3c1.5,0.5,2.5,0.8,3,0.8L738.7,492.1L738.7,492.1z M723.9,478.3l-3-2.3l-5.2-1.5
			l-2.2-3.9l-3,3.1l-2.2,5.4l5.9,2.3c3,0,5.2,0.8,6.7,2.3L723.9,478.3z M593.8,394.3l-3-1.5l-4.4-2.3c-2,0-3,0.5-3,1.5l0.7,4.6
			l5.2,3.1L593.8,394.3z M683,558.4l1.5-9.3c0-8.2-3-16.9-8.9-26.2c-4.9-9.2-11.4-16.7-19.3-22.3c-6.4-6.2-15.4-11.6-26.7-16.2
			l-29.7-13.1l-11.2-6.9l-16.4-6.2l-17.1-5.4l-27.5-6.2l-8.9-1.5c-4.4,0-7.9,0.5-10.4,1.5c-2,0.5-2.7,2.3-2.2,5.4l8.9,17.7
			c4.5,8.2,8.7,13.9,12.6,16.9l6.7,4.6v4.6l7.4,9.2l0.7,6.2c2,1.5,3.5,2.3,4.5,2.3c2.5,1.5,5.7,5.4,9.7,11.6l8.2,10l12.6,18.5
			l11.2,20l5.2,15.4l-1.5,10l3,4.6l-3,4.6c-1.5,1.5-1.5,3.1,0,4.6l5.2-1.5l8.9-3.9c2.5,0,6.7-1.5,12.6-4.6l16.4-7.7l23-9.2
			c9.4-4.1,16.1-8.2,20.1-12.3l3-7.7C681.5,562.5,682,559.9,683,558.4L683,558.4z"/>
	</g>
</g>
</svg>
