<svg xmlns="http://www.w3.org/2000/svg" viewBox="0 0 1024 1024">
   <circle cx="512" cy="512" r="512" style="fill:#50142b"/>
   <path d="M345.65 307.67h7c51.14 1.2 101.68 10.51 151.34 22.21C541.27 341.39 579 352.45 613.93 370c30.06 15.3 57.77 34.64 86.31 52.47 7.83 4.63 14.22 11.16 21.07 17 13.63 12.35 26.48 25.73 36.86 41 6.85 9.87 8.63 22.15 9.82 33.85v8.45c-.64 22.79-10.72 44.26-24.67 61.92-17.25 21.89-39.86 38.89-63.57 53.21-36 21.51-75.28 37-115.11 49.89-29.64 9.62-59.83 17.47-90.25 24.21-17 4.07-34.5 5.82-51.8 8.31h-4.42c-6.15-.09-12.84-1.32-17.22-6-5.18-5.44-6.91-13.09-8.27-20.25-1.17-6.3 3.46-11.59 7.51-15.77 11.25-11 25.18-19.73 33.24-33.66 6.26-10.37 6.68-23.6 2-34.67Q396.68 514 357.94 418c-4.25-9.62-14.83-14.27-24.57-16.18-16.37-2.89-33.09-2.09-49.64-2.27-13.06-.12-25.87 5.13-38.92 3.18-7.41-1.49-9.64-9.79-9.71-16.35v-3.53c.43-10.41 6.36-19.58 13-27.19 11.57-13.12 26.28-23.07 41.67-31.17 17.41-8.92 36.29-15.44 55.88-16.82zm163.54 141.05c11.6 37.07 25.18 73.49 37.39 110.37 4.8 12.53 11.1 24.53 14.56 37.55 3.06 11.07 2.41 23.17-2.79 33.51 21.44-4.6 43.42-7.63 63.83-16.08 11.24-4.57 21.51-12.12 28.12-22.4 5-10 8.12-21.51 6.55-32.78-1.43-10.63-7.43-20.2-15.33-27.27C620.4 512.48 599 493.33 575 477.81c-20.16-13.14-42.36-23.38-65.81-29.09z" style="fill:#fff"/>
</svg>
