<?xml version="1.0" encoding="utf-8"?>
<!-- Generator: Adobe Illustrator 21.0.0, SVG Export Plug-In . SVG Version: 6.00 Build 0)  -->
<svg version="1.1" xmlns="http://www.w3.org/2000/svg" xmlns:xlink="http://www.w3.org/1999/xlink" x="0px" y="0px"
	 viewBox="0 0 1024 1024" style="enable-background:new 0 0 1024 1024;" xml:space="preserve">
<style type="text/css">
	.st0{fill:#0091E2;}
	.st1{fill:#FFFFFF;}
</style>
<g id="Guides">
</g>
<g id="Icon">
	<circle class="st0" cx="512" cy="512" r="512"/>
	<path class="st1" d="M827.3,461.5c-1.6-1.3-16.1-12.2-46.7-12.2c-8.1,0-16.2,0.6-24.2,2.1c-5.9-40.7-39.5-60.5-41-61.4l-8.2-4.8
		l-5.4,7.8c-6.8,10.5-11.7,22-14.6,34.2c-5.5,23.2-2.2,45,9.6,63.6c-14.2,7.9-37.1,9.9-41.7,10H277c-9.9,0-17.9,8-17.9,17.9
		c-0.4,33.1,5.2,66,16.5,97.1c13,34.2,32.4,59.3,57.6,74.7c28.2,17.3,74.1,27.2,126.2,27.2c23.5,0.1,47-2.1,70.1-6.4
		c32.1-5.9,63-17.1,91.4-33.2c23.4-13.6,44.5-30.8,62.4-51.1c29.9-33.9,47.8-71.7,61.1-105.2h5.3c32.8,0,53-13.1,64.1-24.1
		c7.4-7,13.2-15.5,16.9-25l2.3-6.9L827.3,461.5z M312,489.9h50.7c2.4,0,4.4-2,4.4-4.4v-45.1c0-2.4-2-4.4-4.4-4.5H312
		c-2.4,0-4.4,2-4.4,4.4v45.2C307.6,488,309.6,489.9,312,489.9 M381.9,489.9h50.7c2.4,0,4.4-2,4.4-4.4v-45.1c0-2.4-2-4.4-4.4-4.5
		h-50.7c-2.5,0-4.5,2-4.5,4.5v45.1C377.4,488,379.4,489.9,381.9,489.9 M452.7,490h50.7c2.4,0,4.4-2,4.4-4.4v-45.1
		c0-2.4-2-4.4-4.4-4.5h-50.7c-2.4,0-4.4,2-4.4,4.4v45.2C448.3,488,450.3,489.9,452.7,490 M522.8,490h50.7c2.4,0,4.4-2,4.5-4.4v-45.1
		c0-2.5-2-4.5-4.5-4.5h-50.7c-2.4,0-4.4,2-4.4,4.4v45.2C518.4,488,520.3,490,522.8,490 M381.8,425h50.7c2.4,0,4.4-2,4.4-4.5v-45.1
		c0-2.4-2-4.4-4.4-4.4h-50.7c-2.5,0-4.4,2-4.5,4.4v45.1C377.4,423,379.4,425,381.8,425 M452.7,425h50.7c2.4,0,4.4-2,4.4-4.5v-45.1
		c0-2.4-2-4.4-4.4-4.4h-50.7c-2.4,0-4.4,2-4.4,4.4v45.1C448.3,423,450.3,425,452.7,425 M522.8,425h50.7c2.5,0,4.4-2,4.5-4.5v-45.1
		c0-2.5-2-4.4-4.5-4.4h-50.7c-2.4,0-4.4,2-4.4,4.4v45.1C518.4,423,520.3,425,522.8,425 M522.8,360.1h50.7c2.5,0,4.5-2,4.5-4.5v-45.2
		c0-2.4-2-4.4-4.5-4.4h-50.7c-2.4,0-4.4,2-4.4,4.4v45.2C518.4,358.1,520.3,360.1,522.8,360.1 M593.4,490h50.7c2.4,0,4.4-2,4.4-4.4
		v-45.1c0-2.5-2-4.4-4.4-4.5h-50.7c-2.4,0-4.4,2-4.4,4.4v45.2C589,488,591,490,593.4,490"/>
</g>
</svg>
