<?xml version="1.0" encoding="utf-8"?>
<!-- Generator: Adobe Illustrator 21.0.0, SVG Export Plug-In . SVG Version: 6.00 Build 0)  -->
<svg version="1.1" xmlns="http://www.w3.org/2000/svg" xmlns:xlink="http://www.w3.org/1999/xlink" x="0px" y="0px"
	 viewBox="0 0 1024 1024" style="enable-background:new 0 0 1024 1024;" xml:space="preserve">
<style type="text/css">
	.st0{fill:#FFFFFF;}
</style>
<g id="Min_Guides__x28_DO_NOT_REMOVE_x29_">
</g>
<g id="Max_Guides__x28_DO_NOT_REMOVE_x29_">
</g>
<g id="Icon">
	<circle id="Background" cx="512" cy="512" r="512"/>
	<path class="st0" d="M171,438.1h50.7c32.3,0,52.8,25.9,52.8,61.5c0,19.4-6.5,36.7-19.4,47.4c-8.6,7.5-20.5,11.9-35.6,11.9H171
		V438.1z M217.9,537.9c23.2,0,31.8-14,31.8-37.7c0-23.7-10.2-40.4-31.3-40.4h-23.2v78.7h22.6V537.9z M278.3,515.8
		c0-25.9,18.3-45.8,45.3-45.8s45.3,19.9,45.3,45.8c0,25.9-18.3,45.8-45.3,45.8C296.6,561.6,278.3,541.1,278.3,515.8z M345.1,515.8
		c0-16.7-8.1-28.6-22.1-28.6c-14,0-22.1,11.3-22.1,28.6c0,17.3,7.5,28,22.1,28C337.6,543.8,345.1,532.5,345.1,515.8z M373.2,515.8
		c0-25.9,16.7-45.8,43.1-45.8c22.6,0,36.1,12.9,39.4,31.8H433c-1.6-7.5-7.5-13.5-15.6-13.5c-14,0-21,10.8-21,27.5
		c0,16.2,6.5,27.5,20.5,27.5c9.2,0,15.6-4.9,17.3-14.6h22.6c-1.6,18.3-15.6,32.9-38.8,32.9C390.4,561.1,373.2,541.1,373.2,515.8z
		 M517.1,558.9v-10.2h-0.5c-5.9,8.1-12.4,12.4-24.8,12.4c-19.4,0-30.2-12.4-30.2-31.3v-57.7h22.6V526c0,10.2,4.3,15.6,14.6,15.6
		c10.8,0,17.3-8.1,17.3-19.4v-50.1h23.2v86.3h-22.1L517.1,558.9z M650.8,438.7H674v21.6h-23.2V438.7z M650.8,472.1H674v86.3h-23.2
		C650.8,558.4,650.8,472.1,650.8,472.1z M683.2,561.1h22.6c1.6,5.4,7,9.7,17.3,9.7c12.9,0,19.4-6.5,19.4-17.8v-9.7h-0.5
		c-4.9,5.9-11.9,10.2-22.6,10.2c-19.4,0-38.3-15.1-38.3-41.5c0-25.9,15.6-42.1,37.2-42.1c10.8,0,18.9,4.3,23.7,11.3h0.5v-9.2h22.1
		v79.8c0,12.4-3.8,20.5-10.2,26.4c-7,7-18.3,9.7-31.3,9.7C700.4,588,685.9,578.3,683.2,561.1z M744.1,511.5c0-12.4-7-23.2-20.5-23.2
		c-11.9,0-19.4,9.2-19.4,23.7s7.5,23.2,19.4,23.2C738.2,535.2,744.1,524.4,744.1,511.5z M797.5,484c6.5-9.2,14.6-14,25.9-14
		c17.8,0,29.7,13.5,29.7,32.3v56.6h-23.2v-52.8c0-9.2-5.4-15.6-15.1-15.6c-10.2,0-17.8,8.1-17.8,19.9v49.1h-22.1v-86.3h22.6
		C797.5,473.2,797.5,484,797.5,484z M598.5,486.1c-17.8-3.8-25.9-7-25.9-16.7c0-8.6,8.6-14,21.6-14c11.9,0,21,5.4,23.2,16.7h23.7
		c-2.7-23.2-19.9-36.1-46.9-36.1c-27,0-46.4,12.4-46.4,36.1c0,25.3,19.9,30.7,41.5,35.6c18.3,4.3,29.7,6.5,29.7,18.3
		c0,11.3-10.8,15.6-23.2,15.6c-17.3,0-25.3-5.9-27-20.5h-23.7c1.1,25.3,19.4,39.9,52.3,39.9c27,0,46.9-13.5,46.9-38.3
		C643.8,497.4,623.3,491.5,598.5,486.1L598.5,486.1z"/>
</g>
</svg>
