<svg xmlns="http://www.w3.org/2000/svg" viewBox="0 0 1024 1024">
   <circle cx="512" cy="512" r="512"/>
   <path d="M171 438.1h50.7c32.3 0 52.8 25.9 52.8 61.5 0 19.4-6.5 36.7-19.4 47.4-8.6 7.5-20.5 11.9-35.6 11.9H171V438.1zm46.9 99.8c23.2 0 31.8-14 31.8-37.7 0-23.7-10.2-40.4-31.3-40.4h-23.2v78.7h22.6v-.6zm60.4-22.1c0-25.9 18.3-45.8 45.3-45.8s45.3 19.9 45.3 45.8-18.3 45.8-45.3 45.8c-27 0-45.3-20.5-45.3-45.8zm66.8 0c0-16.7-8.1-28.6-22.1-28.6-14 0-22.1 11.3-22.1 28.6s7.5 28 22.1 28c14.6 0 22.1-11.3 22.1-28zm28.1 0c0-25.9 16.7-45.8 43.1-45.8 22.6 0 36.1 12.9 39.4 31.8H433c-1.6-7.5-7.5-13.5-15.6-13.5-14 0-21 10.8-21 27.5 0 16.2 6.5 27.5 20.5 27.5 9.2 0 15.6-4.9 17.3-14.6h22.6c-1.6 18.3-15.6 32.9-38.8 32.9-27.6-.5-44.8-20.5-44.8-45.8zm143.9 43.1v-10.2h-.5c-5.9 8.1-12.4 12.4-24.8 12.4-19.4 0-30.2-12.4-30.2-31.3v-57.7h22.6V526c0 10.2 4.3 15.6 14.6 15.6 10.8 0 17.3-8.1 17.3-19.4v-50.1h23.2v86.3h-22.1l-.1.5zm133.7-120.2H674v21.6h-23.2v-21.6zm0 33.4H674v86.3h-23.2v-86.3zm32.4 89h22.6c1.6 5.4 7 9.7 17.3 9.7 12.9 0 19.4-6.5 19.4-17.8v-9.7h-.5c-4.9 5.9-11.9 10.2-22.6 10.2-19.4 0-38.3-15.1-38.3-41.5 0-25.9 15.6-42.1 37.2-42.1 10.8 0 18.9 4.3 23.7 11.3h.5V472h22.1v79.8c0 12.4-3.8 20.5-10.2 26.4-7 7-18.3 9.7-31.3 9.7-22.7.1-37.2-9.6-39.9-26.8zm60.9-49.6c0-12.4-7-23.2-20.5-23.2-11.9 0-19.4 9.2-19.4 23.7s7.5 23.2 19.4 23.2c14.6 0 20.5-10.8 20.5-23.7zm53.4-27.5c6.5-9.2 14.6-14 25.9-14 17.8 0 29.7 13.5 29.7 32.3v56.6h-23.2v-52.8c0-9.2-5.4-15.6-15.1-15.6-10.2 0-17.8 8.1-17.8 19.9v49.1h-22.1v-86.3h22.6V484zm-199 2.1c-17.8-3.8-25.9-7-25.9-16.7 0-8.6 8.6-14 21.6-14 11.9 0 21 5.4 23.2 16.7h23.7c-2.7-23.2-19.9-36.1-46.9-36.1s-46.4 12.4-46.4 36.1c0 25.3 19.9 30.7 41.5 35.6 18.3 4.3 29.7 6.5 29.7 18.3 0 11.3-10.8 15.6-23.2 15.6-17.3 0-25.3-5.9-27-20.5h-23.7c1.1 25.3 19.4 39.9 52.3 39.9 27 0 46.9-13.5 46.9-38.3-.5-25.3-21-31.2-45.8-36.6z" style="fill:#fff"/>
</svg>
