<svg xmlns="http://www.w3.org/2000/svg" viewBox="0 0 1024 1024" style="enable-background:new 0 0 1024 1024" xml:space="preserve">
   <style>
      .st1{fill:#fff}
   </style>
   <g id="Icon">
      <circle cx="512" cy="512" r="512" style="fill:#2e2ea3"/>
      <g id="Logo">
         <path id="Fill-1" class="st1" d="M528.9 533.8c-28.1 0-55.8-6.8-80.8-19.7 21.5-15.5 47-24.5 73.4-26-3.6-5.1-5.2-11.3-4.6-17.6.7-11.9 4.9-23.4 11.9-33.1 7.1 9.7 11.2 21.2 11.9 33.1.8 6.2-.8 12.5-4.6 17.6 26.5 1.5 52 10.5 73.6 26-24.9 12.9-52.7 19.7-80.8 19.7zM707 479.3c.7-3.7 1-7.5 1.1-11.3-.1-35.3-28.8-63.9-64.1-63.8-4.8 0-9.5.5-14.2 1.5-32.2-78.7-122.1-116.5-200.9-84.3-57.6 23.5-95.4 79.5-95.8 141.7v2.7c44 11.9 83.8 55.1 106.9 71.3 53.9 37.7 125.6 37.7 179.5 0 34.2-23.2 58-29.9 80-29 31.7 1.4 56.8 27.2 57.4 58.9.4 31.4-24.7 57.3-56.2 57.7-18.7.3-36.9-6.4-50.8-18.9-.6-.4-.8-1.3-.4-1.9.4-.6 1.3-.8 1.9-.4 18.6 12.7 42.2 15.6 63.4 7.9 14.2-6.8 23.4-21 23.7-36.8 1.4-20.4-14-38-34.3-39.4-11.1-1.4-22.3 2.2-30.5 9.8-13.7 13-24.7 28.5-32.2 45.8-13.6 27.8-36.3 58.3-64 69.9h122.1c50.4-4.6 87.5-49.2 82.9-99.6-3.8-41.4-34.9-75-75.8-82l.3.2z"/>
         <path id="Fill-3" class="st1" d="M433 625.2c-15.3-18.8-27.8-35.7-61.1-85.9s-82.3-53.1-99.8-37.9c-40.3 39.1-41.3 103.5-2.2 143.8 18.9 19.5 44.9 30.6 72.1 30.9h143.8c-20.8-8.9-37.7-31.9-52.8-50.7"/>
         <g id="Group-7">
            <defs>
               <filter id="Adobe_OpacityMaskFilter" filterUnits="userSpaceOnUse" x="265.2" y="327.6" width="49.2" height="51.6">
                  <feColorMatrix values="1 0 0 0 0 0 1 0 0 0 0 0 1 0 0 0 0 0 1 0"/>
               </filter>
            </defs>
            <mask maskUnits="userSpaceOnUse" x="265.2" y="327.6" width="49.2" height="51.6" id="mask_2_">
               <g id="mask-2_2_" style="filter:url(#Adobe_OpacityMaskFilter)">
                  <path id="path-1_2_" class="st1" d="M241.9 327.6h72.5v99.7h-72.5v-99.7z"/>
               </g>
            </mask>
            <g style="mask:url(#mask_2_)">
               <path id="Fill-4" class="st1" d="M289.8 379.2c13.9-.3 24.9-11.9 24.6-25.8.3-13.9-10.7-25.5-24.6-25.8-13.9.3-24.9 11.9-24.6 25.8-.3 13.9 10.7 25.4 24.6 25.8"/>
            </g>
            <defs>
               <filter id="Adobe_OpacityMaskFilter_1_" filterUnits="userSpaceOnUse" x="241.5" y="386" width="39.1" height="41.2">
                  <feColorMatrix values="1 0 0 0 0 0 1 0 0 0 0 0 1 0 0 0 0 0 1 0"/>
               </filter>
            </defs>
            <mask maskUnits="userSpaceOnUse" x="241.5" y="386" width="39.1" height="41.2" id="mask-2-2_2_">
               <g id="mask-2-3_2_" style="filter:url(#Adobe_OpacityMaskFilter_1_)">
                  <path id="path-1-2_2_" class="st1" d="M241.9 327.6h72.5v99.7h-72.5v-99.7z"/>
               </g>
            </mask>
            <g style="mask:url(#mask-2-2_2_)">
               <path id="Fill-6" class="st1" d="M261.1 427.2c11-.2 19.8-9.4 19.5-20.4.4-11-8.2-20.3-19.2-20.8h-.3c-11 .2-19.8 9.4-19.6 20.4v.3c-.2 11.1 8.5 20.3 19.6 20.5"/>
            </g>
         </g>
         <path id="Fill-8" class="st1" d="M272.1 447.1c0 8.4 6.8 15.3 15.3 15.3s15.3-6.8 15.3-15.3c0-8.4-6.8-15.3-15.3-15.3s-15.3 6.9-15.3 15.3"/>
      </g>
   </g>
</svg>
