<?xml version="1.0" encoding="utf-8"?>
<!-- Generator: Adobe Illustrator 21.0.0, SVG Export Plug-In . SVG Version: 6.00 Build 0)  -->
<svg version="1.1" xmlns="http://www.w3.org/2000/svg" xmlns:xlink="http://www.w3.org/1999/xlink" x="0px" y="0px"
	 viewBox="0 0 1024 1024" style="enable-background:new 0 0 1024 1024;" xml:space="preserve">
<style type="text/css">
	.st0{fill:#0073EC;}
	.st1{fill:#FFFFFF;}
</style>
<g id="Guides">
</g>
<g id="Icon">
	<circle class="st0" cx="512" cy="512" r="512"/>
	<g>
		<g>
			<g>
				<g>
					<g id="mark_1_">
						<path class="st1" d="M755.4,640.6c-41.2,22.7-89.1,35.3-139.5,34.5c-148.8-3.4-267.3-123.6-264.8-269.8
							c0.8-49.6,16-95.8,41.2-134.5c-79.9,44.6-134.5,127.8-136.2,224.4c-3.4,146.3,116,266.5,264.8,269.8
							C619.2,766.7,706.6,717.1,755.4,640.6"/>
						<path class="st1" d="M536.8,259c-40.3,0-78.2,10.1-111.8,28.6c-21,34.5-32.8,74-34.5,114.3C388,528.8,491.4,633.9,620,636.4
							l0,0c38.7,0,82.4-9.2,116-27.7C756.2,574.2,768,533.8,768,491C768.8,363.2,664.6,259,536.8,259z"/>
					</g>
				</g>
			</g>
		</g>
	</g>
</g>
</svg>
