<svg xmlns="http://www.w3.org/2000/svg" viewBox="0 0 1024 1024" style="enable-background:new 0 0 1024 1024" xml:space="preserve">
   <style>
      .st1{fill:#fff}
   </style>
   <g id="Icon">
      <circle cx="512" cy="512" r="512" style="fill:#0073ec"/>
      <g id="mark_1_">
         <path class="st1" d="M755.4 640.6c-41.2 22.7-89.1 35.3-139.5 34.5-148.8-3.4-267.3-123.6-264.8-269.8.8-49.6 16-95.8 41.2-134.5-79.9 44.6-134.5 127.8-136.2 224.4-3.4 146.3 116 266.5 264.8 269.8 98.3 1.7 185.7-47.9 234.5-124.4"/>
         <path class="st1" d="M536.8 259c-40.3 0-78.2 10.1-111.8 28.6-21 34.5-32.8 74-34.5 114.3-2.5 126.9 100.9 232 229.5 234.5 38.7 0 82.4-9.2 116-27.7 20.2-34.5 32-74.9 32-117.7.8-127.8-103.4-232-231.2-232z"/>
      </g>
   </g>
</svg>
