<?xml version="1.0" encoding="utf-8"?>
<!-- Generator: Adobe Illustrator 21.0.0, SVG Export Plug-In . SVG Version: 6.00 Build 0)  -->
<svg version="1.1" xmlns="http://www.w3.org/2000/svg" xmlns:xlink="http://www.w3.org/1999/xlink" x="0px" y="0px"
	 viewBox="0 0 1024 1024" style="enable-background:new 0 0 1024 1024;" xml:space="preserve">
<style type="text/css">
	.st0{fill:#0077C0;}
	.st1{fill:#FFFFFF;}
</style>
<g id="Guides">
</g>
<g id="Icon">
	<circle class="st0" cx="512" cy="512" r="512"/>
	<path class="st1" d="M623.6,333c-26.2-16.3-50.8-22.7-75.6-39c-15.3-10.4-36.5-35-54.3-56.3c-3.4,34.1-13.8,47.9-25.7,57.8
		c-25.1,19.7-40.9,25.7-62.7,37.5c-18.3,9.3-117.5,68.6-117.5,196S395,750.3,514,750.3S736.2,663.9,736.2,533S639.4,342.9,623.6,333
		z M626.4,703.8c-2.5,2.5-25.1,18.3-51.9,20.7c-26.7,2.4-62.7,3.9-84.4-15.8c-3.4-3.4-2.5-8.4,0-10.4c2.5-2,4.5-3.4,7.4-3.4
		c2.9,0,2.5,0,4,1c9.9,7.9,24.7,14.4,56.3,14.4c31.6,0,53.8-9,63.7-16.3c4.5-3.4,6.5-0.5,6.9,1.4
		C628.9,697.3,629.8,700.3,626.4,703.8z M540,658.9c5.4-4.9,14.4-12.8,22.7-16.3c8.4-3.5,12.8-3,20.7-3c7.9,0,16.3,0.5,22.3,4.5
		s9.3,12.8,11.3,17.8c2,4.9,0,7.9-3.9,9.9c-3.4,2-3.9,1-7.4-5.4s-6.5-12.8-23.7-12.8c-17.2,0-22.7,5.9-31.1,12.8
		c-8.4,6.9-11.3,9.3-14.4,5.4C533.5,667.8,534.6,663.8,540,658.9z M671,662.8c-17.8-1.4-53.3-56.7-76-57.8
		c-28.6-1-90.8,59.8-139.7,59.8c-29.6,0-38.5-4.5-48.4-10.9c-15-10.3-22.4-26.1-21.9-47.9c0.5-38.5,36.5-74.5,82-75
		c57.8-0.5,97.8,57.3,126.9,56.7c24.7-0.5,72.1-48.8,95.3-48.8c24.7,0,31.6,25.7,31.6,40.9c0,15.3-4.9,42.9-16.8,60.2
		C692.2,657.4,684.8,663.7,671,662.8z"/>
</g>
</svg>
