<svg xmlns="http://www.w3.org/2000/svg" viewBox="0 0 1024 1024">
   <circle cx="512" cy="512" r="512" style="fill:#009cde"/>
   <path d="M594.19 354.17C557.46 317.46 522.42 282.47 512 243c-10.43 39.47-45.48 74.46-82.2 111.17-55.08 55-117.53 117.43-117.53 211-.05 110.31 89.33 199.78 199.64 199.83s199.78-89.33 199.83-199.64v-.18c0-93.56-62.45-156-117.54-211m-197 257.54c-12.25-.42-57.45-78.32 26.4-161.27l55.49 60.61a4.74 4.74 0 0 1-.37 7.08C465.44 531.71 409 588.3 402 607.87c-1.45 4-3.56 3.89-4.83 3.84M512 714.39a68.69 68.69 0 0 1-68.69-68.69 71.58 71.58 0 0 1 17.12-45.37c12.38-15.15 51.57-57.75 51.57-57.75s38.58 43.23 51.47 57.6a67.18 67.18 0 0 1 17.23 45.52 68.69 68.69 0 0 1-68.7 68.69M643.48 603c-1.48 3.24-4.84 8.64-9.37 8.81-8.08.29-8.94-3.85-14.92-12.68-13.11-19.4-127.54-139-148.94-162.12-18.83-20.34-2.65-34.68 4.85-42.2 9.41-9.43 36.89-36.89 36.89-36.89S593.92 435.64 628 488.76s22.42 99.07 15.48 114.24" style="fill:#fff"/>
</svg>
