<svg xmlns="http://www.w3.org/2000/svg" viewBox="0 0 1024 1024">
   <circle cx="512" cy="512" r="512" style="fill:#007cff"/>
   <path d="m680.3 339-32.2 188.3-44.3-35.8L437 676.1l-21.5-44.4L310 738.9l117.6-191.8 17.9 34.1 94.7-141.1-42.1-34L680.3 339l-.3-.3c-2.1-1.7-4.3-3.5-6.5-5.1-.7-.5-1.3-1-2-1.5-2-1.5-3.9-2.9-5.9-4.3-.9-.6-1.7-1.2-2.6-1.8l-4.5-3c-1.3-.8-2.6-1.7-3.9-2.5l-4.5-2.7c-1-.6-1.9-1.1-2.9-1.7-2-1.2-4.1-2.3-6.2-3.4-.9-.5-1.8-.9-2.7-1.4-2.3-1.2-4.5-2.3-6.8-3.4-.6-.3-1.3-.6-1.9-.9-2.6-1.2-5.2-2.3-7.8-3.4-.1-.1-.3-.1-.4-.2-27.3-11.3-57.3-17.6-88.7-17.6H309.8V739h222.7C659.3 739 763 637 763 512.4c0-69.4-32.2-131.8-82.7-173.4z" style="fill:#fff"/>
</svg>
