<?xml version="1.0" encoding="utf-8"?>
<!-- Generator: Adobe Illustrator 21.0.0, SVG Export Plug-In . SVG Version: 6.00 Build 0)  -->
<svg version="1.1" xmlns="http://www.w3.org/2000/svg" xmlns:xlink="http://www.w3.org/1999/xlink" x="0px" y="0px"
	 viewBox="0 0 1024 1024" style="enable-background:new 0 0 1024 1024;" xml:space="preserve">
<style type="text/css">
	.st0{fill:#007CFF;}
	.st1{fill:#FFFFFF;}
</style>
<g id="Min_Guides__x28_DO_NOT_REMOVE_x29_">
</g>
<g id="Max_Guides__x28_DO_NOT_REMOVE_x29_">
</g>
<g id="Icon">
	<circle id="Background" class="st0" cx="512" cy="512" r="512"/>
	<path class="st1" d="M680.3,339l-32.2,188.3l-44.3-35.8L437,676.1l-21.5-44.4L310,738.9l117.6-191.8l17.9,34.1l94.7-141.1l-42.1-34
		L680.3,339C680.3,339,680.3,339,680.3,339c-0.1-0.1-0.2-0.2-0.3-0.3c-2.1-1.7-4.3-3.5-6.5-5.1c-0.7-0.5-1.3-1-2-1.5
		c-2-1.5-3.9-2.9-5.9-4.3c-0.9-0.6-1.7-1.2-2.6-1.8c-1.5-1-3-2-4.5-3c-1.3-0.8-2.6-1.7-3.9-2.5c-1.5-0.9-3-1.8-4.5-2.7
		c-1-0.6-1.9-1.1-2.9-1.7c-2-1.2-4.1-2.3-6.2-3.4c-0.9-0.5-1.8-0.9-2.7-1.4c-2.3-1.2-4.5-2.3-6.8-3.4c-0.6-0.3-1.3-0.6-1.9-0.9
		c-2.6-1.2-5.2-2.3-7.8-3.4c-0.1-0.1-0.3-0.1-0.4-0.2c-27.3-11.3-57.3-17.6-88.7-17.6H532H309.8v453.2h222.7
		c126.8,0,230.5-102,230.5-226.6C763,443,730.8,380.6,680.3,339z"/>
</g>
</svg>
