<svg xmlns="http://www.w3.org/2000/svg" viewBox="0 0 1024 1024">
  <circle cx="512" cy="512" r="512" style="fill:#07c"/>
  <path d="M561.131 256.02a142.294 142.294 0 0 0-43.632 7.624c-28.261 9.663-52.635 27.962-69.555 52.222L427.05 422.103l24.26 50.91 124.275 55.784 125.43-107.993a134.047 134.047 0 0 0 2.676-27.061c-.006-29.415-9.59-58.055-27.348-81.73-17.755-23.675-42.75-41.142-71.334-49.845a142.4 142.4 0 0 0-43.878-6.148zm-175.638 46.087c-14.536-.087-28.706 4.46-40.395 12.954-11.69 8.495-20.27 20.486-24.447 34.173a65.062 65.062 0 0 0 1.27 41.752l85.163 19.76 18.644-95.203c-11.583-8.634-25.699-13.349-40.235-13.436zm-70.966 108.804c-18.686 6.199-34.943 17.964-46.508 33.666-11.566 15.702-17.86 34.56-18.019 53.945-.013 18.736 5.775 37.027 16.594 52.45 10.82 15.425 26.156 27.248 43.974 33.894l119.486-106.174-21.951-46.075Zm398.93 27.645L590.936 544.013l24.853 46.76 93.679 21.51c18.696-6.182 34.964-17.945 46.533-33.654 11.57-15.705 17.861-34.568 18-53.958-.017-18.696-5.816-36.942-16.626-52.323-10.814-15.38-26.132-27.166-43.916-33.792zM444.973 493.75l-122.29 108.64a137.656 137.656 0 0 0-2.74 27.479c0 29.538 9.633 58.3 27.483 82.06 17.85 23.761 42.972 41.269 71.689 49.959a142.817 142.817 0 0 0 87.864-1.68c28.352-9.777 52.768-28.229 69.665-52.653l20.694-106.009-27.625-51.917Zm172.04 119.052-18.515 94.753c11.566 8.59 25.645 13.273 40.138 13.347 14.494.075 28.625-4.46 40.28-12.928 11.659-8.47 20.213-20.42 24.395-34.065a64.972 64.972 0 0 0-1.205-41.638z" style="fill:#fff"/>
</svg>
