<?xml version="1.0" encoding="utf-8"?>
<!-- Generator: Adobe Illustrator 21.0.0, SVG Export Plug-In . SVG Version: 6.00 Build 0)  -->
<svg version="1.1" xmlns="http://www.w3.org/2000/svg" xmlns:xlink="http://www.w3.org/1999/xlink" x="0px" y="0px"
	 viewBox="0 0 1024 1024" style="enable-background:new 0 0 1024 1024;" xml:space="preserve">
<style type="text/css">
	.st0{fill:#EF6C45;}
	.st1{fill:#FFFFFF;}
</style>
<g id="Min_Guides__x28_DO_NOT_REMOVE_x29_">
</g>
<g id="Max_Guides__x28_DO_NOT_REMOVE_x29_">
</g>
<g id="Icon">
	<circle id="Background" class="st0" cx="512" cy="512" r="512"/>
	<path class="st1" d="M752.3,452.5c-16.2-0.5-31.5,7.5-40.3,21.1c-7.1-13.2-21-21.4-36-21.1c-12.2-0.2-23.9,4.3-32.8,12.6l-0.7-8
		c-0.1-0.8-0.8-1.4-1.6-1.4h-24.2c-0.9,0-1.6,0.7-1.6,1.6c0,0,0,0,0,0v109.6c0,0.9,0.7,1.6,1.6,1.6l0,0h24.9c0.9,0,1.6-0.7,1.6-1.6
		c0,0,0,0,0,0v-51.7c0.7-22.8,11.3-35.2,25.7-35.2c16.2,0,23.4,13.2,23.4,30.6v56.4c0,0.9,0.7,1.6,1.6,1.6l0,0h24.9
		c0.9,0,1.6-0.7,1.6-1.6c0,0,0,0,0,0v-49.4c0-22.7,10.5-37.6,24.9-37.6c15.7,0,22.7,13.2,22.7,30.6v56.4c0,0.9,0.7,1.6,1.6,1.6l0,0
		h24.1c0.9,0,1.6-0.7,1.6-1.6c0,0,0,0,0,0v-56.4C795.3,474.3,778.2,452.5,752.3,452.5z M540.5,452.5c-31.8,0-57.7,26.7-57.7,59.5
		s25.8,59.5,57.7,59.5s57.7-26.7,57.7-59.5S572.3,452.5,540.5,452.5z M540.5,544.5c-16.2,0-29.6-14.5-29.6-32.5
		c0-18,13.5-32.5,29.6-32.5s29.6,14.5,29.6,32.5C570.1,530,556.6,544.5,540.5,544.5z M420.4,452.5c-12.8-0.2-25.1,4.7-34.2,13.6
		l-0.7-8.9c-0.1-0.8-0.7-1.5-1.6-1.4h-24.3c-0.9,0-1.6,0.7-1.6,1.6c0,0,0,0,0,0v109.6c0,0.9,0.7,1.6,1.6,1.6c0,0,0,0,0,0h24.9
		c0.9,0,1.6-0.7,1.6-1.6c0,0,0,0,0,0v-51.6c0.7-22.9,12.8-35.3,27.2-35.3c16.2,0,24.2,13.2,24.2,30.6v56.4c0,0.9,0.7,1.6,1.6,1.6
		c0,0,0,0,0,0H464c0.9,0,1.6-0.7,1.6-1.6c0,0,0,0,0,0v-56.4C465.6,474.3,447.2,452.5,420.4,452.5z M317.6,533.3
		c-0.6-0.5-1.5-0.5-2.1,0.1c-7.2,7.3-17,11.4-27.2,11.4c-6.4,0.2-12.6-1.7-17.9-5.3l69.5-50.8c0.5-0.5,0.7-1.2,0.4-1.9
		c-4.8-10.5-20.7-34.4-52.1-34.4c-32.9,0-59.5,26.7-59.5,59.5c0,32.9,26.6,59.5,59.5,59.5c18.5,0,37.2-8.2,48-20.7
		c0.6-0.6,0.5-1.6-0.1-2.2c0,0,0,0-0.1-0.1L317.6,533.3z M288.2,479.1c6.3-0.2,12.5,1.7,17.6,5.6l-49.2,35.9
		C251,500.3,267.8,479.1,288.2,479.1L288.2,479.1z"/>
</g>
</svg>
