<?xml version="1.0" encoding="UTF-8" standalone="no"?>
<svg
   xmlns:dc="http://purl.org/dc/elements/1.1/"
   xmlns:cc="http://creativecommons.org/ns#"
   xmlns:rdf="http://www.w3.org/1999/02/22-rdf-syntax-ns#"
   xmlns:svg="http://www.w3.org/2000/svg"
   xmlns="http://www.w3.org/2000/svg"
   viewBox="0 0 1365.3333 1365.3333"
   height="1365.3333"
   width="1365.3333"
   xml:space="preserve"
   id="svg2"
   version="1.1"><metadata
     id="metadata8"><rdf:RDF><cc:Work
         rdf:about=""><dc:format>image/svg+xml</dc:format><dc:type
           rdf:resource="http://purl.org/dc/dcmitype/StillImage" /></cc:Work></rdf:RDF></metadata><defs
     id="defs6"><clipPath
       id="clipPath18"
       clipPathUnits="userSpaceOnUse"><path
         id="path16"
         d="M 0,1024 H 1024 V 0 H 0 Z" /></clipPath></defs><g
     transform="matrix(1.3333333,0,0,-1.3333333,0,1365.3333)"
     id="g10"><g
       id="g12"><g
         clip-path="url(#clipPath18)"
         id="g14"><g
           transform="translate(1024,512)"
           id="g20"><path
             id="path22"
             style="fill:#2c2b2b;fill-opacity:1;fill-rule:nonzero;stroke:none"
             d="m 0,0 c 0,-282.77 -229.23,-512 -512,-512 -282.77,0 -512,229.23 -512,512 0,282.77 229.23,512 512,512 C -229.23,512 0,282.77 0,0" /></g><g
           transform="translate(426.8984,306.1562)"
           id="g24"><path
             id="path26"
             style="fill:#ffffff;fill-opacity:1;fill-rule:nonzero;stroke:none"
             d="M 0,0 H 170.972 L 83.704,-28.805 Z m 24.537,111.442 -0.32,-0.81 -0.256,-0.641 -0.32,-0.81 -0.32,-0.789 -0.235,-0.726 -0.32,-0.726 -0.341,-0.81 -0.321,-0.812 -0.234,-0.639 -0.32,-0.811 -0.32,-0.64 -0.256,-0.811 -0.32,-0.811 -0.321,-0.64 -0.234,-0.811 -0.32,-0.64 -0.32,-0.811 -0.341,-0.81 -0.214,-0.641 -0.342,-0.811 -0.319,-0.81 -0.235,-0.641 -0.341,-0.81 h 13.719 l -0.32,0.81 -0.256,0.726 -0.32,0.811 -0.32,0.725 -0.235,0.726 -0.32,0.725 -0.32,0.811 -0.256,0.725 -0.32,0.726 -0.32,0.725 -0.235,0.726 -0.32,0.811 -0.256,0.725 -0.32,0.726 -0.32,0.725 -0.235,0.726 -0.32,0.789 -0.32,0.81 -0.256,0.641 -0.32,0.811 -0.32,0.81 -0.235,0.726 z m 113.469,18.222 h 46.92 v -13.442 h -31.365 v -9.537 h 28.207 V 94.031 H 153.582 V 83.79 h 31.771 V 70.326 h -47.261 v 58.868 z m -74.039,0 h 16.536 l 0.47,-0.641 0.426,-0.724 0.47,-0.641 0.405,-0.725 0.406,-0.64 0.405,-0.726 0.384,-0.64 0.491,-0.746 0.405,-0.641 0.406,-0.64 0.405,-0.725 0.406,-0.64 0.555,-0.725 0.319,-0.641 0.427,-0.747 0.47,-0.64 0.491,-0.639 0.319,-0.726 0.47,-0.641 0.427,-0.725 0.298,-0.64 0.577,-0.747 0.405,-0.64 0.405,-0.725 0.405,-0.641 0.385,-0.639 0.49,-0.726 0.406,-0.64 0.405,-0.747 0.405,-0.64 0.406,-0.725 0.469,-0.641 0.427,-0.725 0.384,-0.64 0.491,0.64 0.32,0.81 0.491,0.556 0.469,0.811 0.427,0.554 0.299,0.811 0.576,0.576 0.405,0.789 0.321,0.576 0.49,0.641 0.47,0.81 0.426,0.555 0.384,0.811 0.405,0.576 0.492,0.79 0.383,0.576 0.427,0.811 0.384,0.554 0.427,0.641 0.469,0.81 0.406,0.577 0.405,0.789 0.47,0.576 0.426,0.81 0.384,0.555 0.491,0.641 0.406,0.81 0.468,0.576 0.427,0.789 0.385,0.577 0.427,0.811 0.468,0.555 0.407,0.81 0.405,0.555 h 16.685 V 70.155 h -15.662 v 34.993 l -0.383,-0.554 -0.491,-0.812 -0.406,-0.554 -0.49,-0.64 -0.405,-0.811 -0.47,-0.576 -0.427,-0.64 -0.47,-0.811 -0.405,-0.555 -0.405,-0.64 -0.555,-0.64 -0.405,-0.832 -0.491,-0.555 -0.406,-0.64 -0.383,-0.811 -0.491,-0.555 -0.406,-0.64 -0.49,-0.811 -0.405,-0.576 -0.47,-0.64 -0.427,-0.81 -0.384,-0.556 -0.491,-0.639 -0.405,-0.811 -0.469,-0.576 -0.491,-0.641 -0.405,-0.639 -0.406,-0.811 -0.491,-0.576 -0.469,-0.641 -0.32,-0.81 -0.576,-0.555 -0.405,-0.641 -0.47,-0.81 -0.427,-0.576 h -0.299 l -0.49,0.725 -0.405,0.641 -0.491,0.746 -0.406,0.641 -0.469,0.725 -0.427,0.64 -0.469,0.725 -0.406,0.64 -0.469,0.726 -0.427,0.64 -0.554,0.746 -0.321,0.641 -0.491,0.726 -0.469,0.639 -0.426,0.726 -0.47,0.64 -0.405,0.811 -0.47,0.64 -0.427,0.725 -0.469,0.641 -0.405,0.746 -0.491,0.641 -0.384,0.725 -0.491,0.64 -0.405,0.725 -0.491,0.641 -0.405,0.726 -0.47,0.639 -0.427,0.747 -0.469,0.64 -0.405,0.726 -0.555,0.639 -0.32,0.726 -0.491,0.64 V 70.07 H 64.053 v 58.89 z m -46.77,0.405 h 15.085 l 0.321,-0.725 0.319,-0.726 0.321,-0.725 0.234,-0.811 0.32,-0.726 0.32,-0.725 0.341,-0.725 0.321,-0.725 0.235,-0.726 0.405,-0.79 0.32,-0.725 0.32,-0.747 0.17,-0.725 0.321,-0.726 0.405,-0.725 0.32,-0.789 0.32,-0.726 0.235,-0.726 0.32,-0.725 0.427,-0.726 0.213,-0.725 0.341,-0.811 0.235,-0.81 0.32,-0.64 0.427,-0.812 0.299,-0.639 0.32,-0.811 0.256,-0.811 0.235,-0.64 0.405,-0.811 0.32,-0.64 0.32,-0.811 0.235,-0.64 0.341,-0.811 0.406,-0.81 0.32,-0.726 0.234,-0.726 0.235,-0.725 0.32,-0.726 0.427,-0.724 0.298,-0.79 0.342,-0.748 0.213,-0.724 0.341,-0.726 0.321,-0.725 0.32,-0.726 0.32,-0.79 0.256,-0.725 0.32,-0.725 0.405,-0.726 0.32,-0.725 0.321,-0.726 0.17,-0.81 0.32,-0.726 0.405,-0.726 0.321,-0.725 0.234,-0.726 0.32,-0.724 0.32,-0.812 0.427,-0.81 0.213,-0.641 0.342,-0.811 0.235,-0.639 0.32,-0.812 0.405,-0.81 0.32,-0.64 0.235,-0.812 0.341,-0.639 0.235,-0.811 0.405,-0.64 0.321,-0.811 0.234,-0.81 0.32,-0.641 0.342,-0.811 0.383,-0.639 0.342,-0.812 0.214,-0.789 0.255,-0.64 0.32,-0.811 0.427,-0.64 H 40.583 l -0.427,0.704 -0.214,0.726 -0.341,0.725 -0.32,0.811 -0.235,0.726 -0.32,0.724 -0.32,0.726 -0.256,0.726 -0.32,0.725 -0.32,0.726 -0.235,0.725 -0.32,0.811 -0.32,0.725 -0.256,0.726 -0.32,0.726 h -23.15 l -0.321,-0.812 -0.234,-0.64 -0.32,-0.81 -0.406,-0.79 -0.17,-0.64 -0.32,-0.832 -0.321,-0.64 -0.234,-0.811 -0.32,-0.641 -0.32,-0.81 L 9.687,73.868 9.367,73.057 9.046,72.268 8.727,71.627 8.492,70.816 H -8.044 l 0.32,0.79 0.32,0.726 0.32,0.725 0.256,0.811 0.213,0.726 0.427,0.724 0.32,0.726 0.32,0.726 0.235,0.725 0.32,0.811 0.427,0.725 0.298,0.726 0.256,0.725 0.235,0.726 0.32,0.726 0.427,0.81 0.299,0.726 0.319,0.725 0.257,0.725 0.32,0.726 0.32,0.725 0.32,0.812 0.32,0.81 0.256,0.64 0.32,0.811 0.405,0.64 0.32,0.811 0.235,0.79 0.235,0.639 0.32,0.811 0.427,0.64 0.298,0.811 0.342,0.641 0.213,0.81 0.341,0.811 0.406,0.64 0.235,0.811 0.319,0.639 0.257,0.812 0.32,0.811 0.405,0.639 0.32,0.812 0.235,0.639 0.32,0.811 0.256,0.641 0.405,0.81 0.32,0.811 0.321,0.725 0.234,0.726 0.32,0.725 0.427,0.726 0.299,0.726 0.17,0.81 0.321,0.726 0.319,0.725 0.406,0.726 0.32,0.724 0.235,0.726 0.341,0.812 0.32,0.789 0.32,0.639 0.32,0.812 0.235,0.639 0.32,0.811 0.32,0.812 0.427,0.639 0.299,0.811 0.256,0.64 0.234,0.811 0.32,0.641 0.427,0.81 0.299,0.811 0.256,0.64 0.32,0.811 0.32,0.639 0.405,0.812 0.235,0.811 0.235,0.639 0.341,0.811 z m 197.088,0.577 h 4.417 l 0.982,-0.171 h 1.6 l 0.811,-0.235 h 0.96 l 0.81,-0.256 0.726,-0.149 0.81,-0.171 0.812,-0.149 0.725,-0.171 0.811,-0.235 0.789,-0.255 0.641,-0.15 0.81,-0.32 0.811,-0.256 0.64,-0.32 0.811,-0.321 0.811,-0.319 0.725,-0.427 0.576,-0.299 0.789,-0.426 0.726,-0.385 0.641,-0.405 0.746,-0.491 0.64,-0.383 0.64,-0.492 0.641,-0.491 0.639,-0.469 -0.469,-0.64 -0.405,-0.661 -0.491,-0.64 -0.47,-0.641 -0.49,-0.725 -0.405,-0.64 -0.491,-0.64 -0.469,-0.662 -0.427,-0.639 -0.47,-0.641 -0.491,-0.64 -0.469,-0.662 -0.426,-0.725 -0.47,-0.64 -0.555,-0.641 -0.427,-0.639 -0.469,-0.661 -0.64,0.49 -0.726,0.405 -0.639,0.385 -0.641,0.49 -0.747,0.321 -0.64,0.426 -0.81,0.299 -0.555,0.32 -0.811,0.341 -0.64,0.321 -0.641,0.234 -0.725,0.32 -0.811,0.235 -0.81,0.255 -0.811,0.236 -0.875,0.171 -0.81,0.148 -0.812,0.171 -0.81,0.086 -0.79,0.085 -0.725,0.064 h -1.792 l -0.875,-0.149 -0.812,-0.171 -0.81,-0.149 -0.64,-0.342 -0.554,-0.319 -0.726,-0.641 -0.491,-0.726 -0.32,-0.725 v -2.005 l 0.406,-0.897 0.319,-0.491 0.555,-0.555 0.811,-0.426 0.64,-0.384 0.81,-0.32 0.812,-0.32 1.045,-0.32 0.64,-0.171 0.64,-0.234 0.811,-0.171 0.64,-0.235 0.811,-0.17 0.896,-0.235 0.875,-0.235 0.896,-0.256 0.896,-0.149 0.789,-0.256 0.897,-0.235 0.81,-0.171 0.79,-0.235 0.811,-0.234 0.811,-0.256 0.811,-0.235 0.725,-0.235 0.811,-0.256 0.789,-0.32 0.811,-0.405 0.811,-0.321 0.811,-0.405 0.81,-0.405 0.641,-0.405 0.64,-0.384 0.725,-0.491 0.576,-0.427 0.726,-0.555 0.555,-0.555 0.639,-0.639 0.577,-0.576 0.405,-0.641 0.555,-0.811 0.405,-0.554 0.32,-0.811 0.405,-0.555 0.236,-0.811 0.256,-0.64 0.149,-0.81 0.171,-0.812 0.148,-0.81 0.086,-0.811 0.085,-0.79 v -2.026 l -0.085,-0.875 -0.086,-0.811 -0.063,-0.896 -0.171,-0.811 -0.234,-0.79 -0.171,-0.81 -0.235,-0.811 -0.32,-0.726 -0.32,-0.639 -0.341,-0.726 -0.385,-0.64 -0.49,-0.64 -0.427,-0.641 -0.384,-0.661 -0.554,-0.576 -0.492,-0.555 -0.576,-0.491 -0.639,-0.555 -0.555,-0.49 -0.641,-0.491 -0.639,-0.384 -0.662,-0.491 -0.811,-0.405 -0.64,-0.32 -0.811,-0.426 -0.811,-0.299 -0.789,-0.321 -0.811,-0.255 -0.811,-0.236 -0.64,-0.234 -0.811,-0.171 -0.811,-0.17 -0.639,-0.149 -0.812,-0.171 h -0.81 l -0.789,-0.15 h -0.812 l -0.81,-0.171 h -5.975 l -0.789,0.086 -0.811,0.085 -0.896,0.064 -0.811,0.171 -0.79,0.086 -0.81,0.149 -0.811,0.17 -0.896,0.235 -0.789,0.17 -0.811,0.236 -0.811,0.17 -0.811,0.235 -0.789,0.256 -0.812,0.32 -0.725,0.234 -0.811,0.235 -0.81,0.342 -0.641,0.32 -0.81,0.32 -0.64,0.405 -0.812,0.32 -0.724,0.405 -0.555,0.406 -0.811,0.406 -0.577,0.383 -0.725,0.427 -0.64,0.47 -0.639,0.49 -0.641,0.47 -0.64,0.49 -0.576,0.491 -0.641,0.555 0.47,0.64 0.576,0.576 0.491,0.64 0.554,0.64 0.491,0.576 0.47,0.641 0.575,0.64 0.492,0.576 0.554,0.64 0.492,0.555 0.554,0.64 0.49,0.64 0.47,0.576 0.576,0.64 0.491,0.641 0.554,0.575 0.576,0.641 0.555,-0.47 0.812,-0.49 0.554,-0.492 0.811,-0.468 0.64,-0.427 0.725,-0.47 0.641,-0.405 0.746,-0.32 0.64,-0.406 0.726,-0.32 0.811,-0.32 0.64,-0.32 0.811,-0.235 0.639,-0.341 0.812,-0.214 0.789,-0.256 0.811,-0.255 0.81,-0.15 0.812,-0.171 0.81,-0.149 h 0.875 l 0.811,-0.256 h 4.438 l 0.811,0.171 0.789,0.171 0.64,0.149 0.64,0.235 0.576,0.341 0.726,0.469 0.427,0.576 0.383,0.641 0.236,0.81 v 1.857 l -0.321,0.789 -0.469,0.641 -0.491,0.49 -0.725,0.491 -0.576,0.32 -0.789,0.32 -0.812,0.32 -0.96,0.427 -0.576,0.149 -0.64,0.171 -0.811,0.213 -0.64,0.171 -0.81,0.256 -0.812,0.149 -0.874,0.256 -0.811,0.149 -0.896,0.256 -0.79,0.15 -0.811,0.256 -0.81,0.149 -0.812,0.257 -0.81,0.213 -0.789,0.171 -0.726,0.255 -0.725,0.235 -0.726,0.256 -0.811,0.32 -0.896,0.32 -0.811,0.321 -0.789,0.319 -0.811,0.405 -0.811,0.406 -0.554,0.406 -0.811,0.405 -0.576,0.469 -0.726,0.427 -0.469,0.469 -0.577,0.555 -0.639,0.576 -0.491,0.555 -0.469,0.576 -0.427,0.555 -0.385,0.64 -0.426,0.725 -0.298,0.576 -0.257,0.641 -0.235,0.725 -0.234,0.64 -0.171,0.81 -0.149,0.726 v 0.812 l -0.171,0.81 v 3.456 l 0.086,0.812 0.085,0.81 0.149,0.64 0.171,0.811 0.234,0.64 0.171,0.811 0.321,0.64 0.319,0.811 0.32,0.64 0.406,0.811 0.405,0.64 0.555,0.64 0.426,0.64 0.641,0.64 0.555,0.577 0.49,0.639 0.725,0.576 0.47,0.406 0.726,0.491 0.639,0.469 0.641,0.426 0.811,0.385 0.639,0.32 0.833,0.405 0.64,0.32 0.81,0.256 0.79,0.32 0.811,0.235 0.576,0.171 0.789,0.149 0.641,0.171 0.81,0.149 0.811,0.171 0.811,0.085 0.811,0.085 0.811,0.065 z m -255.806,0.149 h 4.438 l 0.981,-0.149 h 1.6 l 0.811,-0.256 h 0.811 l 0.811,-0.236 0.789,-0.17 0.725,-0.149 0.726,-0.171 0.725,-0.149 0.811,-0.256 0.64,-0.15 0.64,-0.255 0.811,-0.236 0.64,-0.319 0.833,-0.32 0.725,-0.321 0.64,-0.427 0.811,-0.298 0.554,-0.427 0.812,-0.384 0.64,-0.427 0.725,-0.383 0.64,-0.492 0.64,-0.405 0.64,-0.47 0.662,-0.49 0.64,-0.555 0.64,-0.491 -0.47,-0.639 -0.576,-0.577 -0.469,-0.64 -0.576,-0.64 -0.47,-0.576 -0.49,-0.555 -0.576,-0.639 -0.47,-0.641 -0.49,-0.576 -0.555,-0.64 -0.491,-0.64 -0.576,-0.64 -0.47,-0.576 -0.49,-0.641 -0.555,-0.64 -0.491,-0.661 -0.554,-0.555 -0.491,-0.64 -0.64,0.47 -0.64,0.554 -0.641,0.427 -0.746,0.469 -0.555,0.406 -0.725,0.405 -0.641,0.406 -0.747,0.405 -0.639,0.32 -0.64,0.32 -0.641,0.235 -0.725,0.256 -0.811,0.213 -0.64,0.171 -0.811,0.171 -0.811,0.17 -0.81,0.064 h -0.875 l -0.982,0.171 h -1.6 l -0.811,-0.085 h -0.811 l -0.811,-0.235 -0.725,-0.17 -0.725,-0.236 -0.79,-0.234 -0.64,-0.32 -0.811,-0.341 -0.576,-0.385 -0.64,-0.427 -0.64,-0.384 -0.576,-0.49 -0.555,-0.491 -0.576,-0.47 -0.469,-0.575 -0.64,-0.556 -0.427,-0.639 -0.384,-0.576 -0.491,-0.64 -0.32,-0.726 -0.427,-0.64 -0.384,-0.726 -0.234,-0.725 -0.342,-0.725 -0.214,-0.812 -0.106,-0.81 -0.235,-0.726 -0.17,-0.895 v -0.79 l -0.15,-0.811 v -1.92 l 0.086,-0.833 0.064,-0.724 0.085,-0.79 0.171,-0.811 0.234,-0.641 0.085,-0.81 0.235,-0.64 0.257,-0.64 0.319,-0.832 0.406,-0.79 0.32,-0.64 0.405,-0.64 0.47,-0.662 0.49,-0.64 0.406,-0.576 0.64,-0.554 0.491,-0.577 0.555,-0.469 0.64,-0.491 0.64,-0.491 0.661,-0.405 0.64,-0.384 0.726,-0.342 0.81,-0.319 0.64,-0.32 0.811,-0.235 0.811,-0.256 0.811,-0.15 0.79,-0.17 0.81,-0.086 0.982,-0.063 h 2.646 l 0.981,0.149 h 0.789 l 0.811,0.256 0.811,0.149 0.811,0.256 0.725,0.15 0.726,0.32 0.64,0.319 0.81,0.342 0.491,0.32 0.64,0.406 v 7.403 h -11.777 v 11.949 h 26.606 V 78.775 l -0.554,-0.468 -0.64,-0.492 -0.577,-0.405 -0.64,-0.491 -0.64,-0.384 -0.639,-0.49 -0.641,-0.406 -0.661,-0.406 -0.811,-0.405 -0.725,-0.405 -0.64,-0.405 -0.812,-0.321 -0.64,-0.405 -0.81,-0.319 -0.811,-0.321 -0.811,-0.32 -0.725,-0.32 -0.726,-0.235 -0.725,-0.256 -0.79,-0.234 -0.725,-0.235 -0.811,-0.256 -0.725,-0.15 -0.811,-0.17 -0.811,-0.17 -0.811,-0.15 -0.79,-0.086 -0.81,-0.085 -0.811,-0.086 -0.96,-0.063 -0.811,-0.086 -0.896,-0.085 h -4.182 l -0.896,0.171 h -0.811 l -0.789,0.149 h -0.811 l -0.811,0.256 -0.811,0.15 -0.81,0.171 -0.79,0.149 -0.64,0.256 -0.811,0.149 -0.811,0.256 -0.725,0.32 -0.726,0.235 -0.81,0.32 -0.726,0.319 -0.811,0.321 -0.64,0.342 -0.811,0.383 -0.554,0.427 -0.811,0.384 -0.576,0.427 -0.64,0.384 -0.64,0.491 -0.641,0.491 -0.725,0.469 -0.491,0.491 -0.64,0.49 -0.576,0.555 -0.555,0.491 -0.576,0.555 -0.469,0.576 -0.576,0.554 -0.47,0.64 -0.49,0.576 -0.406,0.641 -0.491,0.64 -0.405,0.64 -0.384,0.64 -0.427,0.747 -0.384,0.64 -0.32,0.725 -0.32,0.726 -0.341,0.725 -0.32,0.726 -0.235,0.64 -0.32,0.725 -0.171,0.726 -0.235,0.725 -0.17,0.811 -0.235,0.725 -0.171,0.811 -0.064,0.726 -0.17,0.811 -0.086,0.725 -0.064,0.811 -0.085,0.789 -0.086,0.811 v 4.438 l 0.171,0.811 v 0.875 l 0.214,0.81 v 0.812 l 0.256,0.81 0.256,0.79 0.149,0.81 0.235,0.726 0.256,0.811 0.234,0.725 0.321,0.811 0.32,0.726 0.341,0.725 0.32,0.725 0.32,0.726 0.405,0.725 0.406,0.641 0.384,0.64 0.427,0.639 0.384,0.641 0.491,0.661 0.49,0.641 0.47,0.639 0.576,0.576 0.469,0.555 0.491,0.576 0.64,0.555 0.491,0.576 0.64,0.491 0.576,0.555 0.64,0.49 0.64,0.47 0.64,0.427 0.64,0.469 0.641,0.406 0.661,0.405 0.725,0.405 0.811,0.406 0.64,0.383 0.811,0.342 0.726,0.32 0.81,0.406 0.64,0.213 0.811,0.255 0.726,0.321 0.725,0.171 0.726,0.234 0.811,0.171 0.725,0.234 0.789,0.171 h 0.811 l 0.811,0.236 h 0.811 l 0.81,0.17 h 0.79 z m 82.253,216.654 v -72.332 h 12.354 c 7.489,0 11.116,3.627 11.116,11.522 v 49.288 c 0,7.894 -3.627,11.522 -11.116,11.522 z m 66.784,26.457 h 29.829 V 177.544 h -29.829 z m -96.613,0 h 46.855 c 24.261,0 36.273,-12.097 36.273,-36.528 v -52.169 c 0,-24.43 -12.012,-36.464 -36.273,-36.464 H 40.817 V 177.544 H 10.903 Z m -81.443,0 H -4.097 V 346.659 H -40.711 V 291.098 H -5.462 V 263.915 H -40.711 V 204.727 H -3.606 V 177.544 H -70.54 Z m 260.054,1.622 h 14.508 c 24.196,0 35.974,-11.778 35.974,-36.209 v -40.091 h -29.274 v 38.47 c 0,7.83 -3.627,11.458 -11.201,11.458 h -4.994 c -7.83,0 -11.458,-3.628 -11.458,-11.458 V 213.667 c 0,-7.809 3.628,-11.437 11.458,-11.437 h 5.548 c 7.511,0 11.138,3.628 11.138,11.437 v 44.38 h 29.359 v -45.746 c 0,-24.43 -12.034,-36.443 -36.294,-36.443 h -14.764 c -24.346,0 -36.274,12.098 -36.274,36.443 v 126.762 c 0,24.367 11.928,36.465 36.274,36.465 m -284.975,66.357 c -29.274,0 -40.071,-10.796 -40.071,-40.07 V 48.371 c 0,-3.308 0.15,-6.38 0.406,-9.196 0.725,-6.445 0.789,-12.654 6.764,-19.673 0.554,-0.811 6.614,-5.249 6.614,-5.249 3.222,-1.621 5.483,-2.731 9.175,-4.268 L 65.248,-64.522 c 9.196,-4.204 13.079,-5.889 19.757,-5.655 h 0.086 c 6.763,-0.234 10.647,1.451 19.844,5.655 L 282.733,9.985 c 3.713,1.537 5.89,2.647 9.197,4.268 0,0 6.059,4.523 6.614,5.249 5.975,7.019 6.039,13.228 6.764,19.673 0.256,2.816 0.426,5.888 0.426,9.175 v 353.486 c -0.02,29.253 -10.838,40.049 -40.112,40.049 z" /></g></g></g></g></svg>