<?xml version="1.0" encoding="utf-8"?>
<!-- Generator: Adobe Illustrator 21.0.0, SVG Export Plug-In . SVG Version: 6.00 Build 0)  -->
<svg version="1.1" xmlns="http://www.w3.org/2000/svg" xmlns:xlink="http://www.w3.org/1999/xlink" x="0px" y="0px"
	 viewBox="0 0 1024 1024" style="enable-background:new 0 0 1024 1024;" xml:space="preserve">
<style type="text/css">
	.st0{fill:#313131;}
	.st1{fill:#FFFFFF;}
</style>
<g id="Guides">
</g>
<g id="Icon">
	<circle class="st0" cx="512" cy="512" r="512"/>
	<g>
		<title>Epic Games icon</title>
		<path class="st1" d="M331.4,276c-29.3,0-40.1,10.8-40.1,40.1v353.4c0,3.3,0.1,6.4,0.4,9.2c0.7,6.4,0.8,12.7,6.8,19.7
			c0.6,0.8,6.6,5.2,6.6,5.2c3.2,1.6,5.5,2.7,9.2,4.3l177.8,74.5c9.2,4.2,13.1,5.9,19.8,5.7h0.1c6.8,0.2,10.6-1.5,19.8-5.7
			l177.8-74.5c3.7-1.5,5.9-2.6,9.2-4.3c0,0,6.1-4.5,6.6-5.2c6-7,6-13.2,6.8-19.7c0.3-2.8,0.4-5.9,0.4-9.2V316
			c0-29.3-10.8-40-40.1-40H331.4z M616.4,342.3h14.5c24.2,0,36,11.8,36,36.2v40.1h-29.3v-38.5c0-7.8-3.6-11.5-11.2-11.5h-5
			c-7.8,0-11.5,3.6-11.5,11.5v124c0,7.8,3.6,11.4,11.5,11.4h5.5c7.5,0,11.1-3.6,11.1-11.4v-44.4h29.4v45.7c0,24.4-12,36.4-36.3,36.4
			h-14.8c-24.3,0-36.3-12.1-36.3-36.4V378.8C580.1,354.4,592.1,342.3,616.4,342.3z M356.4,343.9h66.4v27.2h-36.6v55.6h35.2v27.2
			h-35.2v59.2h37.1v27.2h-66.9L356.4,343.9z M437.8,343.9h46.9c24.3,0,36.3,12.1,36.3,36.5v52.2c0,24.4-12,36.5-36.3,36.5h-16.9
			v71.2h-29.9L437.8,343.9z M534.4,343.9h29.8v196.4h-29.8V343.9z M467.6,370.4v72.3H480c7.5,0,11.1-3.6,11.1-11.5v-49.3
			c0-7.9-3.6-11.5-11.1-11.5H467.6z M385.4,587h4.4l1,0.1h1.6l0.8,0.3h0.8l0.8,0.2l0.8,0.2l0.7,0.1l0.7,0.2l0.7,0.1l0.8,0.3l0.6,0.1
			l0.6,0.3l0.8,0.2l0.6,0.3l0.8,0.3l0.7,0.3l0.6,0.4l0.8,0.3l0.6,0.4l0.8,0.4l0.6,0.4l0.7,0.4l0.6,0.5l0.6,0.4l0.6,0.5l0.7,0.5
			l0.6,0.6l0.6,0.5l-0.5,0.6l-0.6,0.6l-0.5,0.6l-0.6,0.6l-0.5,0.6l-0.5,0.6l-0.6,0.6l-0.5,0.6l-0.5,0.6l-0.6,0.6l-0.5,0.6l-0.6,0.6
			l-0.5,0.6l-0.5,0.6l-0.6,0.6l-0.5,0.7l-0.6,0.6l-0.5,0.6l-0.6-0.5l-0.6-0.6l-0.6-0.4l-0.7-0.5l-0.6-0.4l-0.7-0.4l-0.6-0.4
			l-0.7-0.4l-0.6-0.3l-0.6-0.3l-0.6-0.2l-0.7-0.3l-0.8-0.2l-0.6-0.2l-0.8-0.2l-0.8-0.2l-0.8-0.1h-0.9l-1-0.2h-1.6l-0.8,0.1h-0.8
			l-0.8,0.2l-0.7,0.2l-0.7,0.2l-0.8,0.2l-0.6,0.3l-0.8,0.3l-0.6,0.4l-0.6,0.4l-0.6,0.4l-0.6,0.5l-0.6,0.5l-0.6,0.5l-0.5,0.6
			l-0.6,0.6l-0.4,0.6l-0.4,0.6l-0.5,0.6l-0.3,0.7l-0.4,0.6l-0.4,0.7l-0.2,0.7l-0.3,0.7l-0.2,0.8l-0.1,0.8l-0.2,0.7l-0.2,0.9v0.8
			l-0.1,0.8v1.9l0.1,0.8l0.1,0.7l0.1,0.8l0.2,0.8l0.2,0.6l0.1,0.8l0.2,0.6l0.3,0.6l0.3,0.8l0.4,0.8l0.3,0.6l0.4,0.6l0.5,0.7l0.5,0.6
			l0.4,0.6l0.6,0.6l0.5,0.6l0.6,0.5l0.6,0.5l0.6,0.5l0.7,0.4l0.6,0.4l0.7,0.3l0.8,0.3l0.6,0.3l0.8,0.2l0.8,0.3l0.8,0.1l0.8,0.2
			l0.8,0.1l1,0.1h2.6l1-0.1h0.8l0.8-0.3l0.8-0.1l0.8-0.3l0.7-0.1l0.7-0.3l0.6-0.3l0.8-0.3l0.5-0.3l0.6-0.4v-7.4h-11.8v-11.9h26.6
			v26.6l-0.6,0.5l-0.6,0.5l-0.6,0.4l-0.6,0.5l-0.6,0.4l-0.6,0.5l-0.6,0.4l-0.7,0.4l-0.8,0.4l-0.7,0.4l-0.6,0.4l-0.8,0.3l-0.6,0.4
			l-0.8,0.3l-0.8,0.3l-0.8,0.3l-0.7,0.3l-0.7,0.2l-0.7,0.3l-0.8,0.2l-0.7,0.2l-0.8,0.3l-0.7,0.1l-0.8,0.2l-0.8,0.2l-0.8,0.1
			l-0.8,0.1l-0.8,0.1l-0.8,0.1l-1,0.1l-0.8,0.1l-0.9,0.1h-4.2L384,648h-0.8l-0.8-0.1h-0.8l-0.8-0.3l-0.8-0.1l-0.8-0.2l-0.8-0.1
			l-0.6-0.3l-0.8-0.1l-0.8-0.3l-0.7-0.3l-0.7-0.2l-0.8-0.3l-0.7-0.3l-0.8-0.3l-0.6-0.3l-0.8-0.4l-0.6-0.4l-0.8-0.4l-0.6-0.4
			l-0.6-0.4l-0.6-0.5l-0.6-0.5l-0.7-0.5l-0.5-0.5l-0.6-0.5l-0.6-0.6l-0.6-0.5l-0.6-0.6L363,638l-0.6-0.6l-0.5-0.6l-0.5-0.6l-0.4-0.6
			l-0.5-0.6l-0.4-0.6l-0.4-0.6l-0.4-0.7l-0.4-0.6l-0.3-0.7l-0.3-0.7l-0.3-0.7l-0.3-0.7l-0.2-0.6l-0.3-0.7l-0.2-0.7l-0.2-0.7
			l-0.2-0.8l-0.2-0.7l-0.2-0.8l-0.1-0.7l-0.2-0.8l-0.1-0.7l-0.1-0.8l-0.1-0.8l-0.1-0.8v-4.4l0.2-0.8v-0.9l0.2-0.8v-0.8l0.3-0.8
			l0.3-0.8l0.1-0.8l0.2-0.7l0.3-0.8l0.2-0.7l0.3-0.8l0.3-0.7l0.3-0.7l0.3-0.7l0.3-0.7l0.4-0.7l0.4-0.6l0.4-0.6l0.4-0.6l0.4-0.6
			l0.5-0.7l0.5-0.6l0.5-0.6l0.6-0.6l0.5-0.6l0.5-0.6l0.6-0.6l0.5-0.6l0.6-0.5l0.6-0.6l0.6-0.5l0.6-0.5l0.6-0.4l0.6-0.5l0.6-0.4
			l0.7-0.4l0.7-0.4l0.8-0.4l0.6-0.4l0.8-0.3l0.7-0.3l0.8-0.4l0.6-0.2l0.8-0.3l0.7-0.3l0.7-0.2l0.7-0.2l0.8-0.2l0.7-0.2l0.8-0.2h0.8
			l0.8-0.2h0.8l0.8-0.2h0.8L385.4,587z M641.2,587.2h4.4l1,0.2h1.6l0.8,0.2h1l0.8,0.3l0.7,0.1l0.8,0.2l0.8,0.1l0.7,0.2l0.8,0.2
			l0.8,0.3l0.6,0.1l0.8,0.3l0.8,0.3l0.6,0.3l0.8,0.3l0.8,0.3l0.7,0.4l0.6,0.3l0.8,0.4l0.7,0.4l0.6,0.4l0.7,0.5l0.6,0.4l0.6,0.5
			l0.6,0.5l0.6,0.5l-0.5,0.6l-0.4,0.7l-0.5,0.6l-0.5,0.6l-0.5,0.7l-0.4,0.6l-0.5,0.6l-0.5,0.7l-0.4,0.6l-0.5,0.6l-0.5,0.6l-0.5,0.7
			l-0.4,0.7l-0.5,0.6l-0.6,0.6l-0.4,0.6l-0.5,0.7l-0.6-0.5l-0.7-0.4l-0.6-0.4l-0.6-0.5l-0.7-0.3l-0.6-0.4l-0.8-0.3l-0.6-0.3
			l-0.8-0.3l-0.6-0.3l-0.6-0.2l-0.7-0.3l-0.8-0.2l-0.8-0.3l-0.8-0.2l-0.9-0.2l-0.8-0.1l-0.8-0.2l-0.8-0.1l-0.8-0.1l-0.7-0.1h-1.8
			l-0.9,0.1l-0.8,0.2l-0.8,0.1l-0.6,0.3l-0.6,0.3l-0.7,0.6l-0.5,0.7l-0.3,0.7v2l0.4,0.9l0.3,0.5l0.6,0.6l0.8,0.4l0.6,0.4l0.8,0.3
			l0.8,0.3l1,0.3l0.6,0.2l0.6,0.2l0.8,0.2l0.6,0.2l0.8,0.2l0.9,0.2l0.9,0.2l0.9,0.3l0.9,0.1l0.8,0.3l0.9,0.2l0.8,0.2l0.8,0.2
			l0.8,0.2l0.8,0.3l0.8,0.2l0.7,0.2l0.8,0.3l0.8,0.3l0.8,0.4l0.8,0.3l0.8,0.4l0.8,0.4l0.6,0.4l0.6,0.4l0.7,0.5l0.6,0.4l0.7,0.6
			l0.6,0.6l0.6,0.6l0.6,0.6l0.4,0.6l0.6,0.8l0.4,0.6l0.3,0.8l0.4,0.6l0.2,0.8l0.3,0.6l0.1,0.8l0.2,0.8l0.1,0.8l0.1,0.8l0.1,0.8v2
			l-0.1,0.9l-0.1,0.8l-0.1,0.9l-0.2,0.8l-0.2,0.8l-0.2,0.8l-0.2,0.8l-0.3,0.7l-0.3,0.6l-0.3,0.7l-0.4,0.6l-0.5,0.6l-0.4,0.6
			l-0.4,0.7l-0.6,0.6l-0.5,0.6l-0.6,0.5l-0.6,0.6l-0.6,0.5l-0.6,0.5l-0.6,0.4l-0.7,0.5l-0.8,0.4l-0.6,0.3l-0.8,0.4l-0.8,0.3
			l-0.8,0.3l-0.8,0.3l-0.8,0.2l-0.6,0.2l-0.8,0.2l-0.8,0.2l-0.6,0.1l-0.8,0.2H650l-0.8,0.1h-0.8l-0.8,0.2h-6l-0.8-0.1l-0.8-0.1
			l-0.9-0.1l-0.8-0.2l-0.8-0.1l-0.8-0.1l-0.8-0.2l-0.9-0.2l-0.8-0.2l-0.8-0.2l-0.8-0.2l-0.8-0.2l-0.8-0.3l-0.8-0.3l-0.7-0.2
			l-0.8-0.2l-0.8-0.3l-0.6-0.3l-0.8-0.3l-0.6-0.4l-0.8-0.3l-0.7-0.4l-0.6-0.4l-0.8-0.4l-0.6-0.4l-0.7-0.4l-0.6-0.5l-0.6-0.5
			l-0.6-0.5l-0.6-0.5l-0.6-0.5l-0.6-0.6l0.5-0.6l0.6-0.6l0.5-0.6l0.6-0.6l0.5-0.6l0.5-0.6l0.6-0.6l0.5-0.6l0.6-0.6l0.5-0.6l0.6-0.6
			l0.5-0.6l0.5-0.6l0.6-0.6l0.5-0.6l0.6-0.6l0.6-0.6l0.6,0.5l0.8,0.5l0.6,0.5l0.8,0.5l0.6,0.4l0.7,0.5l0.6,0.4l0.7,0.3l0.6,0.4
			l0.7,0.3l0.8,0.3l0.6,0.3l0.8,0.2l0.6,0.3l0.8,0.2l0.8,0.3l0.8,0.3l0.8,0.1l0.8,0.2l0.8,0.1h0.9l0.8,0.3h4.4l0.8-0.2l0.8-0.2
			l0.6-0.1l0.6-0.2l0.6-0.3l0.7-0.5l0.4-0.6l0.4-0.6l0.2-0.8v-1.9l-0.3-0.8l-0.5-0.6l-0.5-0.5l-0.7-0.5l-0.6-0.3l-0.8-0.3l-0.8-0.3
			l-1-0.4l-0.6-0.1l-0.6-0.2l-0.8-0.2l-0.6-0.2l-0.8-0.3l-0.8-0.1l-0.9-0.3l-0.8-0.1l-0.9-0.3l-0.8-0.1l-0.8-0.3l-0.8-0.1l-0.8-0.3
			l-0.8-0.2l-0.8-0.2l-0.7-0.3l-0.7-0.2l-0.7-0.3l-0.8-0.3l-0.9-0.3l-0.8-0.3l-0.8-0.3l-0.8-0.4l-0.8-0.4l-0.6-0.4l-0.8-0.4
			l-0.6-0.5l-0.7-0.4l-0.5-0.5l-0.6-0.6l-0.6-0.6l-0.5-0.6l-0.5-0.6l-0.4-0.6l-0.4-0.6l-0.4-0.7l-0.3-0.6l-0.3-0.6l-0.2-0.7
			l-0.2-0.6l-0.2-0.8l-0.1-0.7v-0.8l-0.2-0.8v-3.5l0.1-0.8l0.1-0.8l0.1-0.6l0.2-0.8l0.2-0.6l0.2-0.8l0.3-0.6l0.3-0.8l0.3-0.6
			l0.4-0.8l0.4-0.6l0.6-0.6l0.4-0.6l0.6-0.6l0.6-0.6l0.5-0.6l0.7-0.6l0.5-0.4l0.7-0.5l0.6-0.5l0.6-0.4l0.8-0.4l0.6-0.3l0.8-0.4
			l0.6-0.3l0.8-0.3l0.8-0.3l0.8-0.2l0.6-0.2l0.8-0.1l0.6-0.2l0.8-0.1l0.8-0.2l0.8-0.1l0.8-0.1l0.8-0.1L641.2,587.2z M444.1,587.8
			h15.1l0.3,0.7l0.3,0.7l0.3,0.7l0.2,0.8l0.3,0.7l0.3,0.7l0.3,0.7l0.3,0.7l0.2,0.7l0.4,0.8l0.3,0.7l0.3,0.7l0.2,0.7l0.3,0.7l0.4,0.7
			l0.3,0.8l0.3,0.7l0.2,0.7l0.3,0.7l0.4,0.7l0.2,0.7l0.3,0.8l0.2,0.8l0.3,0.6l0.4,0.8l0.3,0.6l0.3,0.8l0.3,0.8l0.2,0.6l0.4,0.8
			l0.3,0.6l0.3,0.8l0.2,0.6l0.3,0.8l0.4,0.8l0.3,0.7l0.2,0.7l0.2,0.7l0.3,0.7l0.4,0.7l0.3,0.8l0.3,0.7l0.2,0.7l0.3,0.7l0.3,0.7
			l0.3,0.7l0.3,0.8l0.3,0.7l0.3,0.7l0.4,0.7l0.3,0.7l0.3,0.7l0.2,0.8l0.3,0.7l0.4,0.7l0.3,0.7l0.2,0.7l0.3,0.7l0.3,0.8l0.4,0.8
			l0.2,0.6l0.3,0.8l0.2,0.6l0.3,0.8l0.4,0.8l0.3,0.6l0.2,0.8l0.3,0.6l0.2,0.8l0.4,0.6l0.3,0.8l0.2,0.8l0.3,0.6l0.3,0.8l0.4,0.6
			l0.3,0.8l0.2,0.8l0.3,0.6l0.3,0.8l0.4,0.6h-16.7l-0.4-0.7l-0.2-0.7l-0.3-0.7l-0.3-0.8l-0.2-0.7l-0.3-0.7l-0.3-0.7l-0.3-0.7
			l-0.3-0.7l-0.3-0.7l-0.2-0.7l-0.3-0.8l-0.3-0.7l-0.3-0.7l-0.3-0.7h-23.2l-0.3,0.8l-0.2,0.6l-0.3,0.8l-0.4,0.8l-0.2,0.6l-0.3,0.8
			l-0.3,0.6l-0.2,0.8l-0.3,0.6l-0.3,0.8l-0.3,0.6l-0.3,0.8l-0.3,0.8l-0.3,0.6l-0.2,0.8h-16.5l0.3-0.8l0.3-0.7l0.3-0.7l0.3-0.8
			l0.2-0.7l0.4-0.7l0.3-0.7l0.3-0.7l0.2-0.7l0.3-0.8l0.4-0.7l0.3-0.7l0.3-0.7l0.2-0.7l0.3-0.7l0.4-0.8l0.3-0.7l0.3-0.7l0.3-0.7
			l0.3-0.7l0.3-0.7l0.3-0.8l0.3-0.8l0.3-0.6l0.3-0.8l0.4-0.6l0.3-0.8l0.2-0.8l0.2-0.6l0.3-0.8l0.4-0.6l0.3-0.8l0.3-0.6l0.2-0.8
			l0.3-0.8l0.4-0.6l0.2-0.8l0.3-0.6l0.3-0.8l0.3-0.8l0.4-0.6l0.3-0.8l0.2-0.6l0.3-0.8l0.3-0.6l0.4-0.8l0.3-0.8l0.3-0.7l0.2-0.7
			l0.3-0.7l0.4-0.7l0.3-0.7l0.2-0.8l0.3-0.7l0.3-0.7l0.4-0.7l0.3-0.7l0.2-0.7l0.3-0.8l0.3-0.8l0.3-0.6l0.3-0.8l0.2-0.6l0.3-0.8
			l0.3-0.8l0.4-0.6l0.3-0.8l0.3-0.6l0.2-0.8l0.3-0.6l0.4-0.8l0.3-0.8l0.3-0.6l0.3-0.8l0.3-0.6l0.4-0.8l0.2-0.8l0.2-0.6l0.3-0.8
			L444.1,587.8z M490.9,588.2h16.5l0.5,0.6l0.4,0.7l0.5,0.6l0.4,0.7l0.4,0.6l0.4,0.7l0.4,0.6l0.5,0.7l0.4,0.6l0.4,0.6l0.4,0.7
			l0.4,0.6l0.6,0.7l0.3,0.6l0.4,0.7l0.5,0.6l0.5,0.6l0.3,0.7l0.5,0.6l0.4,0.7l0.3,0.6l0.6,0.7l0.4,0.6l0.4,0.7l0.4,0.6l0.4,0.6
			l0.5,0.7l0.4,0.6l0.4,0.7l0.4,0.6l0.4,0.7l0.5,0.6l0.4,0.7l0.4,0.6l0.5-0.6l0.3-0.8l0.5-0.6l0.5-0.8l0.4-0.6l0.3-0.8l0.6-0.6
			l0.4-0.8l0.3-0.6l0.5-0.6l0.5-0.8l0.4-0.6l0.4-0.8l0.4-0.6l0.5-0.8l0.4-0.6l0.4-0.8l0.4-0.6l0.4-0.6l0.5-0.8l0.4-0.6l0.4-0.8
			l0.5-0.6l0.4-0.8l0.4-0.6l0.5-0.6l0.4-0.8l0.5-0.6l0.4-0.8l0.4-0.6l0.4-0.8l0.5-0.6l0.4-0.8l0.4-0.6H553v59.5h-15.7v-35l-0.4,0.6
			l-0.5,0.8l-0.4,0.6l-0.5,0.6l-0.4,0.8l-0.5,0.6l-0.4,0.6l-0.5,0.8l-0.4,0.6l-0.4,0.6l-0.6,0.6l-0.4,0.8l-0.5,0.6l-0.4,0.6
			l-0.4,0.8l-0.5,0.6l-0.4,0.6l-0.5,0.8l-0.4,0.6l-0.5,0.6l-0.4,0.8l-0.4,0.6l-0.5,0.6l-0.4,0.8l-0.5,0.6l-0.5,0.6l-0.4,0.6
			l-0.4,0.8l-0.5,0.6l-0.5,0.6l-0.3,0.8l-0.6,0.6l-0.4,0.6l-0.5,0.8l-0.4,0.6h-0.3l-0.5-0.7l-0.4-0.6l-0.5-0.7l-0.4-0.6l-0.5-0.7
			l-0.4-0.6l-0.5-0.7l-0.4-0.6l-0.5-0.7l-0.4-0.6l-0.6-0.7l-0.3-0.6l-0.5-0.7l-0.5-0.6l-0.4-0.7l-0.5-0.6l-0.4-0.8l-0.5-0.6
			l-0.4-0.7l-0.5-0.6l-0.4-0.7l-0.5-0.6l-0.4-0.7l-0.5-0.6l-0.4-0.7l-0.5-0.6l-0.4-0.7l-0.5-0.6l-0.4-0.7l-0.5-0.6l-0.4-0.7
			l-0.6-0.6l-0.3-0.7l-0.5-0.6v35.1H491v-58.9L490.9,588.2z M564.9,588.2h46.9v13.4h-31.4v9.5h28.2v12.7h-28.2v10.2h31.8v13.5H565
			v-58.9L564.9,588.2z M451.4,606.4l-0.3,0.8l-0.3,0.6l-0.3,0.8l-0.3,0.8l-0.2,0.7l-0.3,0.7l-0.3,0.8l-0.3,0.8l-0.2,0.6l-0.3,0.8
			l-0.3,0.6l-0.3,0.8l-0.3,0.8l-0.3,0.6l-0.2,0.8l-0.3,0.6l-0.3,0.8L446,620l-0.2,0.6l-0.3,0.8l-0.3,0.8l-0.2,0.6l-0.3,0.8h13.7
			l-0.3-0.8l-0.3-0.7l-0.3-0.8l-0.3-0.7l-0.2-0.7l-0.3-0.7l-0.3-0.8l-0.3-0.7l-0.3-0.7l-0.3-0.7l-0.2-0.7l-0.3-0.8l-0.3-0.7
			l-0.3-0.7l-0.3-0.7l-0.2-0.7l-0.3-0.8l-0.3-0.8l-0.3-0.6l-0.3-0.8l-0.3-0.8l-0.2-0.7L451.4,606.4z M426.9,717.8h171l-87.3,28.8
			L426.9,717.8z"/>
	</g>
</g>
</svg>
