<?xml version="1.0" encoding="utf-8"?>
<!-- Generator: Adobe Illustrator 21.0.0, SVG Export Plug-In . SVG Version: 6.00 Build 0)  -->
<svg version="1.1" xmlns="http://www.w3.org/2000/svg" xmlns:xlink="http://www.w3.org/1999/xlink" x="0px" y="0px"
	 viewBox="0 0 1024 1024" style="enable-background:new 0 0 1024 1024;" xml:space="preserve">
<style type="text/css">
	.st0{fill:#F27224;}
	.st1{fill:#FFFFFF;}
</style>
<g id="Guides">
</g>
<g id="Icon">
	<circle class="st0" cx="512" cy="512" r="512"/>
	<path class="st1" d="M272.4,487.8v-81.8c0-3,0.3-4.8,5.5-4.8h69.3c12.1,0,18.8,10.3,23.6,29.7l3.9,15.4h11.8
		c2.1-43.9,3.9-63,3.9-63s-29.7,3.3-47.2,3.3h-88.7l-47.6-1.5v12.7l16.1,3c11.2,2.1,13.9,4.5,14.8,14.8c0,0,0.9,30.3,0.9,80.3
		c0,50-0.9,80-0.9,80c0,9.1-3.6,12.4-14.8,14.5l-16.1,3v12.7l47.6-1.5h79.3c17.9,0,59.4,1.5,59.4,1.5c0.9-10.9,7-60.3,7.9-65.7
		h-11.2l-11.8,27c-9.4,21.2-23,22.7-38.2,22.7h-45.1c-15.1,0-22.4-6.1-22.4-19.1v-69.1c0,0,33,0,44.5,0.9c8.5,0.6,13.6,3,16.4,14.8
		l3.6,15.7h13l-0.9-39.7l1.8-40h-13l-4.2,17.6c-2.7,11.5-4.5,13.6-16.4,14.8c-13.3,1.5-44.8,1.2-44.8,1.2L272.4,487.8L272.4,487.8
		L272.4,487.8L272.4,487.8z M452,414.5c-4.2,18.8-8.5,33.3-23.3,43c-9.1,6.1-18.2,8.2-21.8,8.5v11.5h27v93c0,26,17.3,38.8,40.3,38.8
		c17.9,0,36.3-7.6,42.7-23.3l-6.4-8.2c-3,5.2-12.7,12.7-24.8,12.7c-13.3,0-20.6-9.1-20.6-32.1v-82.1l44.8,3.3l2.4-20.6l-47.2,1.8
		v-46L452,414.5L452,414.5z M547.7,557.6l-11.5,0.3c0.6,6.7,0.9,15.1,0.9,23c0,8.2-0.3,15.7-0.9,19.4c0,0,23,8.5,46.3,8.5
		c31.5,0,56.6-15.1,56.6-44.8c0-50.9-76.3-43.3-76.3-77.5c0-14.2,12.7-19.7,26.6-19.7c10.9,0,20,3.9,21.8,9.7l7.6,22.7l11.2-0.6
		c0.9-12.1,1.5-26,3.3-37.3c-9.7-4.2-30-6.7-42.7-6.7c-29.7,0-53.6,13-53.6,42.1c0,50.6,74.5,40.3,74.5,77.5
		c0,13.3-8.2,22.7-26.6,22.7c-17,0-25.4-8.8-28.8-17.6L547.7,557.6L547.7,557.6z M730.2,592.5c-17.5,49-39,61.7-58.3,61.7
		c-8.2,0-12.1-3.6-13.3-9.4l-4.5-23.6l-12.7,0.6c-2.4,13.9-4.8,29.3-8.2,42c7.6,5.7,20.2,8.8,30.2,8.8c20.9,0,52.6-2.7,81.6-71.6
		l48.7-114.9c3.9-9.4,5.4-10.3,16.9-14.8l6.3-2.4v-10.6l-28.7,1.5l-30.8-1.5v10.6l7.9,2.4c7.9,2.4,11.5,5.4,11.5,10.9
		c0,2.7-0.9,5.4-2.4,9.7c-4.5,11.5-32.6,79.8-40.2,94.3l7.5-2.7c-13.3-32.9-33.5-88-36.6-97.3c-0.6-1.8-0.9-3.3-0.9-4.8
		c0-4.8,3.3-8.8,10.6-10.3l10-2.1v-10.6l-41.4,1.5l-32.9-1.5v10.6l5.4,1.8c7.6,2.4,9.4,4.5,13.9,15.1c25.1,57.4,36.9,88.9,52.9,130
		L730.2,592.5L730.2,592.5z"/>
</g>
</svg>
