<svg xmlns="http://www.w3.org/2000/svg" viewBox="0 0 1024 1024" style="enable-background:new 0 0 1024 1024" xml:space="preserve">
   <circle cx="512" cy="512" r="512" style="fill:#f27224"/>
   <path d="M272.4 487.8V406c0-3 .3-4.8 5.5-4.8h69.3c12.1 0 18.8 10.3 23.6 29.7l3.9 15.4h11.8c2.1-43.9 3.9-63 3.9-63s-29.7 3.3-47.2 3.3h-88.7l-47.6-1.5v12.7l16.1 3c11.2 2.1 13.9 4.5 14.8 14.8 0 0 .9 30.3.9 80.3s-.9 80-.9 80c0 9.1-3.6 12.4-14.8 14.5l-16.1 3v12.7l47.6-1.5h79.3c17.9 0 59.4 1.5 59.4 1.5.9-10.9 7-60.3 7.9-65.7h-11.2l-11.8 27c-9.4 21.2-23 22.7-38.2 22.7h-45.1c-15.1 0-22.4-6.1-22.4-19.1v-69.1s33 0 44.5.9c8.5.6 13.6 3 16.4 14.8l3.6 15.7h13l-.9-39.7 1.8-40h-13l-4.2 17.6c-2.7 11.5-4.5 13.6-16.4 14.8-13.3 1.5-44.8 1.2-44.8 1.2v.6zM452 414.5c-4.2 18.8-8.5 33.3-23.3 43-9.1 6.1-18.2 8.2-21.8 8.5v11.5h27v93c0 26 17.3 38.8 40.3 38.8 17.9 0 36.3-7.6 42.7-23.3l-6.4-8.2c-3 5.2-12.7 12.7-24.8 12.7-13.3 0-20.6-9.1-20.6-32.1v-82.1l44.8 3.3 2.4-20.6-47.2 1.8v-46l-13.1-.3zm95.7 143.1-11.5.3c.6 6.7.9 15.1.9 23 0 8.2-.3 15.7-.9 19.4 0 0 23 8.5 46.3 8.5 31.5 0 56.6-15.1 56.6-44.8 0-50.9-76.3-43.3-76.3-77.5 0-14.2 12.7-19.7 26.6-19.7 10.9 0 20 3.9 21.8 9.7l7.6 22.7 11.2-.6c.9-12.1 1.5-26 3.3-37.3-9.7-4.2-30-6.7-42.7-6.7-29.7 0-53.6 13-53.6 42.1 0 50.6 74.5 40.3 74.5 77.5 0 13.3-8.2 22.7-26.6 22.7-17 0-25.4-8.8-28.8-17.6l-8.4-21.7zm182.5 34.9c-17.5 49-39 61.7-58.3 61.7-8.2 0-12.1-3.6-13.3-9.4l-4.5-23.6-12.7.6c-2.4 13.9-4.8 29.3-8.2 42 7.6 5.7 20.2 8.8 30.2 8.8 20.9 0 52.6-2.7 81.6-71.6l48.7-114.9c3.9-9.4 5.4-10.3 16.9-14.8l6.3-2.4v-10.6l-28.7 1.5-30.8-1.5v10.6l7.9 2.4c7.9 2.4 11.5 5.4 11.5 10.9 0 2.7-.9 5.4-2.4 9.7-4.5 11.5-32.6 79.8-40.2 94.3l7.5-2.7c-13.3-32.9-33.5-88-36.6-97.3-.6-1.8-.9-3.3-.9-4.8 0-4.8 3.3-8.8 10.6-10.3l10-2.1v-10.6l-41.4 1.5-32.9-1.5V469l5.4 1.8c7.6 2.4 9.4 4.5 13.9 15.1 25.1 57.4 36.9 88.9 52.9 130l7.5-23.4z" style="fill:#fff"/>
</svg>
