<svg xmlns="http://www.w3.org/2000/svg" viewBox="0 0 1024 1024">
   <circle cx="512" cy="511.25" r="512" style="fill:#3ec1e6"/>
   <path d="M242 490.43h-11.28v-11.15q0-12.46.95-15.57t4.95-3q4.29.1 5.24 7.82.09.95.1 10.76v11.14zm19.52-49.14q-10.76-7.52-26.67-7.43-13.56.14-23.65 6.14c-.6.36-1.14.75-1.7 1.14l-.08.05c-.54.37-1 .79-1.56 1.19-5.86 4.58-10.05 10.91-12.52 19.11q-3 10.1-3 27.33v44.29a129.79 129.79 0 0 0 1.55 21.2q2.22 13.29 7.6 21 11 15.81 36.09 15.61 22.29-.1 33.14-14.94a48.36 48.36 0 0 0 8.47-19q1.44-7.05 1.43-20.86V524.9h-36.57v20q0 11.33-1.52 15.33a5.59 5.59 0 0 1-5.82 3.9q-4.75-.1-5.81-6.38-.19-1.24-.19-9.91v-32.75h49.81V495q0-18.85-2.95-29.62-4.3-15.8-16.1-24.09zm77.67 97.33q0-6.85.38 8.86a42.59 42.59 0 0 1-.86 11.24c-1 3.69-2.83 5.49-5.43 5.43-3.44-.06-5.44-3.22-6-9.38.12.3.19-4.69.19-15V436.62H289V538.9q0 20.29.67 26.1a43.07 43.07 0 0 0 3.42 12.86Q299 591.19 315.82 591q15.34-.19 23.33-15.33l-.67 12.57h39.15V436.62h-38.48v102zm122.14-97.42c.48-.35 1-.67 1.48-1l.72-.48c.33-.21.69-.39 1-.59l.09-.16c-27.26-15.32-40.16 10.66-40.16 10.66v-13H386v151.61h38.48v-76.16c0-37 21.62-37 21.62-37a75.82 75.82 0 0 1 1.75-11c2.54-10.22 6-17.4 13.46-22.86zm267.48-2.09a23.79 23.79 0 0 0-15.86-5.24q-16.18.09-24.19 16.67l.67-13.9h-39.18v151.6h38.48V485.76q0-17.22 1.09-21.18a4.74 4.74 0 0 1 5.1-3.86q5 .1 5.78 9.3-.19-1-.18 13.18v105H739V482q0-19.71-1.81-28.37a24.41 24.41 0 0 0-8.43-14.48zm75.74 59.71q-12.76-7.53-16.76-11.53t-5-7.72c-.44-1.65-.64-4.79-.57-9.43q.09-10.28 6.47-10.28c2.73 0 4.38 1 5 2.86q1 2.47 1 13.24v8.19h34.1v-8.76a98.8 98.8 0 0 0-.77-15 30.83 30.83 0 0 0-6-13.52q-10.76-14-34.85-13.81-13.05.1-22.29 4.66a28.49 28.49 0 0 0-14.86 17q-2.66 7.91-2.67 23.13 0 16.2 5.24 25.14 4.94 8.29 19.14 17.72Q791.84 534 794.09 537t2.14 13.48q-.1 8.29-1.62 10.48-1.72 2.48-5.72 2.39c-3.37-.06-5.43-2.7-6.19-7.91q-.19-1.42-.19-11.62v-9.62h-34.1v7.34q0 19.05 3.91 28.28 8.57 20.39 39.43 20.39 13.23 0 22.56-5.15a30.69 30.69 0 0 0 14.77-18.28q2.76-8.57 2.67-24.1-.1-17.25-6.1-26.39-5.34-8.1-21.14-17.42zm-202.79 40.65q0 15.72-2 19.05t-10.62 3.33V460.43q6.48 0 9 1.43a6.06 6.06 0 0 1 3 4.19q.67 3 .67 13.52v59.91zm32-94.1q-7.24-8.28-26-10.47-7-.86-28.76-.85h-30v154.19h50.56q15.05 0 21.53-1.52 15.14-3.52 18.76-16.57 2-7.24 2-27.71v-54q0-18.66-.37-22.47-1.43-13.33-7.71-20.58zm-131.82 103a86.55 86.55 0 0 1-.29 9.53q-1.05 6.38-5.33 6.29t-5.34-7a97 97 0 0 1-.29-10.19v-68.57q0-9.32.2-10.48.95-7.33 5.53-7.24t5.42 7.24c.06.32.1 3.82.1 10.48v69.91zm15.32-109.81a49.26 49.26 0 0 0-22.18-4.66c-8.79 0-16.17 1.83-22.19 5.27-.35.2-.7.38-1 .59l-.71.48c-.5.32-1 .63-1.48 1q-11.15 8.2-15 23.53a74.74 74.74 0 0 0-1.76 11c0 .3 0 .63-.07.94-.42 4.76-.64 10.23-.64 16.48V532q0 33 9 45.43 10 13.71 35.43 13.52a52.93 52.93 0 0 0 10.67-1q15.81-3 24-15 6.3-9.24 8.1-23.15.94-7.15 1-24.76v-37.18q0-15.62-1.91-23.81-4.48-19.43-21.24-27.53z" style="fill:#fff"/>
</svg>
