<?xml version="1.0" encoding="utf-8"?>
<!-- Generator: Adobe Illustrator 21.0.0, SVG Export Plug-In . SVG Version: 6.00 Build 0)  -->
<svg version="1.1" xmlns="http://www.w3.org/2000/svg" xmlns:xlink="http://www.w3.org/1999/xlink" x="0px" y="0px"
	 viewBox="0 0 1024 1024" style="enable-background:new 0 0 1024 1024;" xml:space="preserve">
<style type="text/css">
	.st0{display:none;}
	.st1{fill:#00A82D;}
	.st2{fill:#FFFFFF;}
</style>
<g id="Guides" class="st0">
</g>
<g id="Icon">
	<circle class="st1" cx="512" cy="512" r="512"/>
	<g>
		<title>Evernote icon</title>
		<path class="st2" d="M431.4,390c0,5.1-0.4,13.6-5.5,19.1c-5.5,5.1-13.9,5.5-18.9,5.5h-53.9c-15.6,0-24.9,0-31.1,0.9
			c-3.4,0.4-7.6,2.1-9.7,3c-0.9,0.4-0.9,0-0.4-0.4L434.8,292c0.4-0.4,0.9-0.4,0.4,0.4c-0.9,2.1-2.5,6.4-2.9,9.7
			c-0.9,6.4-0.9,15.7-0.9,31.4V390L431.4,390z M545.5,771.2c-14.3-9.3-21.9-21.7-24.8-29.3c-3-7.4-4.6-15.3-4.6-23.4
			c0-35.3,28.7-64,64-64.1c10.5,0,18.9,8.5,18.9,19.1c0,6.9-3.7,13.2-9.7,16.6c-2.1,1.3-5.1,2.1-7.2,2.6c-2.1,0.4-10.1,1.3-13.9,4.7
			c-4.2,3.4-7.6,8.9-7.6,14.9c0,6.4,2.5,12.3,6.7,16.6c7.6,7.6,17.7,11.9,28.6,11.9c28.7-0.1,51.9-23.5,51.8-52.2c0,0,0,0,0,0
			c0-25.9-17.3-48.8-40-59c-3.4-1.7-8.8-3-13.9-4.3c-4.2-0.9-8.4-1.6-12.6-2.1c-17.7-2.1-61.9-16.1-64.9-55.6c0,0-13,59.4-39.1,75.5
			c-2.5,1.3-5.9,2.6-9.7,3.4c-3.8,0.9-8,1.3-9.3,1.3c-42.5,2.5-87.6-11.1-118.7-43.3c0,0-21.1-17.4-32-66.2
			c-2.5-11.9-7.6-33.1-10.5-53.1c-1.3-7.2-1.7-12.7-2.1-17.8c0-20.8,12.6-34.8,28.6-36.9h85.9c14.7,0,23.2-3.8,28.6-8.9
			c7.2-6.8,8.9-16.6,8.9-28v-87v-2.5c2.1-15.7,16-28.9,36.6-28.9h10.1c4.2,0,9.3,0.4,13.9,0.9c3.4,0.4,6.3,1.3,11.4,2.6
			c25.7,6.4,31.1,32.7,31.1,32.7s48.4,8.5,72.9,12.7c23.1,4.2,80.4,8.1,91.3,66.2c25.7,138.4,10.1,272.5,8.9,272.5
			c-18.1,130.8-125.9,124.4-125.9,124.4C578.8,787.3,560.7,781.8,545.5,771.2z M642.3,493.2c-13.9-1.3-25.7,4.3-29.9,14.9
			c-0.9,2.1-1.7,4.7-1.3,5.9c0.4,1.3,1.3,1.7,2.1,2.1c5.1,2.6,13.5,3.8,25.7,5.1c12.2,1.3,20.6,2.1,26.1,1.3c0.9,0,1.7-0.4,2.5-1.7
			c0.9-1.3,0.4-3.8,0.4-6C666.8,503.4,656.2,494.9,642.3,493.2z"/>
	</g>
</g>
</svg>
