<?xml version="1.0" encoding="UTF-8" standalone="no"?>
<svg
   xmlns:dc="http://purl.org/dc/elements/1.1/"
   xmlns:cc="http://creativecommons.org/ns#"
   xmlns:rdf="http://www.w3.org/1999/02/22-rdf-syntax-ns#"
   xmlns:svg="http://www.w3.org/2000/svg"
   xmlns="http://www.w3.org/2000/svg"
   viewBox="0 0 1365.3333 1365.3333"
   height="1365.3333"
   width="1365.3333"
   xml:space="preserve"
   id="svg2"
   version="1.1"><metadata
     id="metadata8"><rdf:RDF><cc:Work
         rdf:about=""><dc:format>image/svg+xml</dc:format><dc:type
           rdf:resource="http://purl.org/dc/dcmitype/StillImage" /></cc:Work></rdf:RDF></metadata><defs
     id="defs6"><clipPath
       id="clipPath18"
       clipPathUnits="userSpaceOnUse"><path
         id="path16"
         d="M 0,1024 H 1024 V 0 H 0 Z" /></clipPath></defs><g
     transform="matrix(1.3333333,0,0,-1.3333333,0,1365.3333)"
     id="g10"><g
       id="g12"><g
         clip-path="url(#clipPath18)"
         id="g14"><g
           transform="translate(1024,512)"
           id="g20"><path
             id="path22"
             style="fill:#30ad41;fill-opacity:1;fill-rule:nonzero;stroke:none"
             d="m 0,0 c 0,-282.77 -229.23,-512 -512,-512 -282.77,0 -512,229.23 -512,512 0,282.77 229.23,512 512,512 C -229.23,512 0,282.77 0,0" /></g><g
           transform="translate(642.3447,530.8062)"
           id="g24"><path
             id="path26"
             style="fill:#ffffff;fill-opacity:1;fill-rule:nonzero;stroke:none"
             d="m 0,0 c -13.908,1.28 -25.685,-4.267 -29.908,-14.869 -0.854,-2.133 -1.686,-4.672 -1.259,-5.931 0.427,-1.28 1.28,-1.706 2.112,-2.133 5.056,-2.56 13.461,-3.818 25.685,-5.099 12.202,-1.28 20.629,-2.134 26.09,-1.28 0.853,0 1.707,0.427 2.539,1.707 0.853,1.28 0.427,3.84 0.427,5.952 C 24.405,-10.197 13.889,-1.707 0,0 m -96.852,-278.054 c -14.293,9.344 -21.887,21.652 -24.831,29.29 -3.029,7.417 -4.6,15.347 -4.63,23.359 0.036,35.345 28.655,64.002 64,64.084 10.517,0 18.944,-8.49 18.944,-19.093 0.046,-6.875 -3.669,-13.226 -9.686,-16.554 -2.112,-1.28 -5.055,-2.133 -7.168,-2.56 -2.09,-0.427 -10.09,-1.28 -13.866,-4.65 -4.224,-3.413 -7.595,-8.917 -7.595,-14.869 0,-6.358 2.518,-12.31 6.742,-16.555 7.573,-7.637 17.684,-11.883 28.629,-11.883 28.7,0.107 51.88,23.458 51.775,52.159 v 0.043 c 0,25.899 -17.259,48.831 -40,59.007 -3.37,1.707 -8.831,2.987 -13.888,4.267 -4.181,0.861 -8.394,1.565 -12.629,2.112 -17.684,2.134 -61.886,16.128 -64.852,55.594 0,0 -13.034,-59.412 -39.146,-75.54 -2.517,-1.281 -5.888,-2.56 -9.685,-3.413 -3.776,-0.854 -7.979,-1.281 -9.259,-1.281 -42.517,-2.538 -87.572,11.051 -118.718,43.307 0,0 -21.056,17.407 -31.999,66.217 -2.518,11.904 -7.574,33.13 -10.518,53.077 -1.28,7.21 -1.706,12.736 -2.112,17.834 0,20.8 12.63,34.794 28.629,36.906 h 85.887 c 14.72,0 23.167,3.84 28.629,8.939 7.168,6.784 8.853,16.554 8.853,28.01 v 87.039 2.517 c 2.069,15.722 16,28.885 36.608,28.885 h 10.112 c 4.202,0 9.258,-0.427 13.887,-0.854 3.371,-0.426 6.315,-1.279 11.371,-2.559 25.684,-6.358 31.146,-32.682 31.146,-32.682 0,0 48.426,-8.491 72.852,-12.736 23.146,-4.246 80.426,-8.064 91.349,-66.218 25.684,-138.388 10.111,-272.529 8.852,-272.529 -18.111,-130.75 -125.886,-124.371 -125.886,-124.371 -18.491,-0.375 -36.626,5.122 -51.797,15.701 M -210.94,103.145 c 0,-5.099 -0.427,-13.589 -5.462,-19.093 -5.482,-5.12 -13.909,-5.525 -18.943,-5.525 h -53.887 c -15.574,0 -24.853,0 -31.147,-0.854 -3.392,-0.426 -7.594,-2.133 -9.706,-2.986 -0.853,-0.406 -0.853,0 -0.427,0.426 l 122.942,126.1 c 0.427,0.427 0.854,0.427 0.427,-0.427 -0.854,-2.112 -2.517,-6.357 -2.944,-9.749 -0.853,-6.357 -0.853,-15.701 -0.853,-31.402 v -56.469 z" /></g></g></g></g></svg>