<svg xmlns="http://www.w3.org/2000/svg" viewBox="0 0 1024 1024" style="enable-background:new 0 0 1024 1024" xml:space="preserve">
   <circle cx="512" cy="512" r="512" style="fill:#00a82d"/>
   <path d="M431.4 390c0 5.1-.4 13.6-5.5 19.1-5.5 5.1-13.9 5.5-18.9 5.5h-53.9c-15.6 0-24.9 0-31.1.9-3.4.4-7.6 2.1-9.7 3-.9.4-.9 0-.4-.4L434.8 292c.4-.4.9-.4.4.4-.9 2.1-2.5 6.4-2.9 9.7-.9 6.4-.9 15.7-.9 31.4V390zm114.1 381.2c-14.3-9.3-21.9-21.7-24.8-29.3-3-7.4-4.6-15.3-4.6-23.4 0-35.3 28.7-64 64-64.1 10.5 0 18.9 8.5 18.9 19.1 0 6.9-3.7 13.2-9.7 16.6-2.1 1.3-5.1 2.1-7.2 2.6-2.1.4-10.1 1.3-13.9 4.7-4.2 3.4-7.6 8.9-7.6 14.9 0 6.4 2.5 12.3 6.7 16.6 7.6 7.6 17.7 11.9 28.6 11.9 28.7-.1 51.9-23.5 51.8-52.2 0-25.9-17.3-48.8-40-59-3.4-1.7-8.8-3-13.9-4.3-4.2-.9-8.4-1.6-12.6-2.1-17.7-2.1-61.9-16.1-64.9-55.6 0 0-13 59.4-39.1 75.5-2.5 1.3-5.9 2.6-9.7 3.4-3.8.9-8 1.3-9.3 1.3-42.5 2.5-87.6-11.1-118.7-43.3 0 0-21.1-17.4-32-66.2-2.5-11.9-7.6-33.1-10.5-53.1-1.3-7.2-1.7-12.7-2.1-17.8 0-20.8 12.6-34.8 28.6-36.9h85.9c14.7 0 23.2-3.8 28.6-8.9 7.2-6.8 8.9-16.6 8.9-28v-89.5c2.1-15.7 16-28.9 36.6-28.9h10.1c4.2 0 9.3.4 13.9.9 3.4.4 6.3 1.3 11.4 2.6 25.7 6.4 31.1 32.7 31.1 32.7s48.4 8.5 72.9 12.7c23.1 4.2 80.4 8.1 91.3 66.2 25.7 138.4 10.1 272.5 8.9 272.5C705 793.6 597.2 787.2 597.2 787.2c-18.4.1-36.5-5.4-51.7-16zm96.8-278c-13.9-1.3-25.7 4.3-29.9 14.9-.9 2.1-1.7 4.7-1.3 5.9.4 1.3 1.3 1.7 2.1 2.1 5.1 2.6 13.5 3.8 25.7 5.1 12.2 1.3 20.6 2.1 26.1 1.3.9 0 1.7-.4 2.5-1.7.9-1.3.4-3.8.4-6-1.1-11.4-11.7-19.9-25.6-21.6z" style="fill:#fff"/>
</svg>
