<svg xmlns="http://www.w3.org/2000/svg" viewBox="0 0 1024 1024">
   <circle cx="512" cy="512" r="512" style="fill:#00a82d"/>
   <path d="M431.4 390c0 5.1-.43 13.59-5.46 19.09-5.48 5.12-13.91 5.53-18.94 5.53h-53.89c-15.57 0-24.85 0-31.15.85a43.7 43.7 0 0 0-9.71 3c-.85.41-.85 0-.43-.43L434.77 292c.43-.43.85-.43.43.43a44.27 44.27 0 0 0-2.94 9.75c-.85 6.36-.85 15.7-.85 31.4V390Zm114.09 381.2c-14.29-9.3-21.88-21.6-24.83-29.2a62.38 62.38 0 0 1-4.66-23.4 64.15 64.15 0 0 1 64-64.08 19.06 19.06 0 0 1 9.26 35.65 24.16 24.16 0 0 1-7.17 2.56c-2.09.43-10.09 1.28-13.87 4.65-4.22 3.41-7.59 8.92-7.59 14.87a23.5 23.5 0 0 0 6.74 16.55A39.94 39.94 0 0 0 596 740.68a52 52 0 0 0 51.78-52.16c0-25.9-17.26-48.83-40-59-3.37-1.71-8.83-3-13.89-4.27q-6.27-1.29-12.63-2.11C563.6 621 519.4 607 516.44 567.5c0 0-13 59.41-39.15 75.54a42.36 42.36 0 0 1-9.69 3.41 55.44 55.44 0 0 1-9.26 1.28c-42.52 2.54-87.57-11.05-118.72-43.31 0 0-21.06-17.41-32-66.22-2.52-11.9-7.57-33.13-10.52-53.08a172 172 0 0 1-2.1-17.82c0-20.8 12.63-34.79 28.63-36.91h85.89c14.72 0 23.17-3.84 28.63-8.94 7.17-6.78 8.85-16.55 8.85-28v-89.57c2.07-15.72 16-28.88 36.61-28.88h10.11c4.2 0 9.26.43 13.89.85a96.67 96.67 0 0 1 11.39 2.56c25.68 6.36 31.15 32.68 31.15 32.68s48.43 8.49 72.85 12.74c23.15 4.25 80.43 8.06 91.35 66.22 25.68 138.39 10.11 272.53 8.85 272.53-18.14 130.75-125.91 124.37-125.91 124.37a87.47 87.47 0 0 1-51.8-15.7Zm96.85-278.05c-13.91-1.28-25.68 4.27-29.91 14.87-.85 2.13-1.69 4.67-1.26 5.93a3.53 3.53 0 0 0 2.11 2.13c5.06 2.56 13.46 3.82 25.68 5.1s20.63 2.13 26.09 1.28a3 3 0 0 0 2.54-1.71c.85-1.28.43-3.84.43-6-1.27-11.36-11.79-19.85-25.67-21.56Z" style="fill:#fff"/>
</svg>
