<svg xmlns="http://www.w3.org/2000/svg" viewBox="0 0 1024 1024">
   <circle cx="512" cy="512" r="512" style="fill:#e1141d"/>
   <path d="M242.34 472h-98.92v29.59H256V472zm-1.19 51.09h-97.73v29.59H256v-29.6zM639 549h-44.36c-7.4 0-11.79-3.93-11.79-11.1s4.39-11.09 11.79-11.09H639zm-20.55-102.66h-59.2v29.59h57.35c17.54 0 22.28 6.74 22.42 22.19h-45.77c-27 0-41.84 13.87-41.84 39.76 0 25.66 14.79 39.76 41.84 39.76h77.67V497c0-34.22-12.95-50.63-52.47-50.63zM784.75 548h-37.21c-20.12 0-27.54-9.66-27.54-36s7.4-36.06 27.51-36.06h42.55v-29.6H744.3c-40.91 0-56.63 20.34-56.63 65.65s15.72 65.65 56.63 65.65h46.23V548h-5.77zm-405 0h-35c-16.72 0-24.48-5.92-26.63-20.8h69.84v-29.48H318c2-15.42 9.72-21.73 26.75-21.73h52.71v-29.65h-55.98c-40.92 0-56.63 20.34-56.63 65.65s15.71 65.65 56.63 65.65h56.4V548zm495.06 0h-25.68c-6.24 0-9.94-4.39-9.94-12.25v-59.83h38.61v-29.58h-38.61v-25H807.3v116.77c0 27.05 12.71 39.53 39.07 39.53h34.22V548zm-331.32 23.63L496.8 510l43.69-57.66 4.55-6h-37.47l-3.15 4.16-26.35 34.78-26.36-34.78-3.15-4.16h-38.85l48.93 64.58-50.55 66.72h37.46l3.15-4.16 28.66-37.83L506 573.47l3.15 4.16H548z" style="fill:#fff"/>
</svg>
