<svg xmlns="http://www.w3.org/2000/svg" viewBox="0 0 1024 1024">
   <circle cx="512" cy="512" r="512" style="fill:#19ba19"/>
   <path d="M761.68 443.16c7.41-7.41 7.41-19.41 0-26.82L606.89 261.55c-7.41-7.41-19.41-7.41-26.82 0l-55.43 55.43c-7.41 7.41-19.41 7.41-26.82 0l-54.92-55.17c-7.41-7.41-19.41-7.41-26.82 0L261.55 416.6c-7.41 7.41-7.41 19.41 0 26.82l55.43 55.43c7.41 7.41 7.41 19.41 0 26.82l-55.43 54.92c-7.41 7.41-7.41 19.41 0 26.82L416.34 762.2c7.41 7.41 19.41 7.41 26.82 0l55.43-55.43c7.41-7.41 19.41-7.41 26.82 0l55.43 55.43c7.41 7.41 19.41 7.41 26.82 0l154.79-154.79c7.41-7.41 7.41-19.41 0-26.82l-55.43-55.43c-7.41-7.41-7.41-19.41 0-26.82l54.66-55.17Zm-111.62 99.1c0 59.51-48.53 108.04-108.04 108.04h-60.79c-59.51 0-108.04-48.53-108.04-108.04v-60.79c0-59.51 48.53-108.04 108.04-108.04h60.79c59.51 0 108.04 48.53 108.04 108.04v60.79Z" style="fill:#fff"/>
</svg>
