<svg xmlns="http://www.w3.org/2000/svg" viewBox="0 0 1024 1024">
   <circle cx="512" cy="512" r="512" style="fill:#002fff"/>
   <path d="M768.16 437.11c-47.27 0-77.76 28.82-77.76 74.86s30.74 74.86 77.76 74.86S845.92 558 845.92 512s-30.49-74.89-77.76-74.89Zm0 117.29c-28.31 0-43.74-14.85-43.74-42.37s15.8-42.37 43.74-42.37S811.9 484.51 811.9 512s-15.43 42.4-43.74 42.4Zm-468.28-16.63c-13 12.66-25.82 17.34-43.19 17.34-22.9 0-39.79-10.95-43.19-28.88h117.12a112.42 112.42 0 0 0 .91-14.26c.3-46-29.28-74.86-76.61-74.86s-76.85 30.06-76.85 76.16 33.84 73.62 78.19 73.62c27.82 0 49.57-8.52 67.31-29.06Zm-44.53-68.94c23.21 0 36.82 10.77 41.37 29.47h-83.6c4.63-18.7 19.09-29.47 42.23-29.47ZM468 439.77h-41.14l-30.8 43.38-31.66-43.38h-42.71L373.45 510 320 584.23h40.89l34-46.4 33.23 46.4h42.71l-53-75.22Zm189.67-2.49a21.2 21.2 0 0 0-19.2 11L596.9 524.4v-67.11c0-11.78-9-20-20.59-20-8.75 0-15.25 4.14-18.9 11l-41.19 73.91v-82.43h-34.75v144.4h33.47l48.3-85.28v66c0 11.89 8.57 21.72 20.11 21.72a22.42 22.42 0 0 0 19.5-11.3c11-19.29 41.55-76.87 41.55-76.87v85.81h33.47V459c-.05-11.83-8.55-21.71-20.16-21.71Z" style="fill:#fff"/>
</svg>
