<svg xmlns="http://www.w3.org/2000/svg" viewBox="0 0 1024 1024">
   <circle cx="512" cy="512" r="512" style="fill:#002"/>
   <path d="M498.62 441c4.18-6.17 8.77-7 12.49-7s9.91.79 14.1 7c33 45.33 87.48 135.63 127.67 202.25 26.2 43.44 46.33 76.8 50.46 81 15.51 15.94 36.77 6 49.12-12.07C764.62 694.46 768 682 768 668.62c0-9.08-176.21-336.8-194-364.07-17.06-26.24-22.62-32.87-51.83-32.87h-21.82c-29.12 0-33.33 6.63-50.39 32.87-17.75 27.27-194 355-194 364.07 0 13.34 3.38 25.84 15.54 43.64 12.35 18.08 33.61 28 49.12 12.07 4.13-4.25 24.26-37.61 50.46-81 40.23-66.67 94.53-156.97 127.54-202.33Z" style="fill:#fff"/>
</svg>
