<?xml version="1.0" encoding="utf-8"?>
<!-- Generator: Adobe Illustrator 21.0.0, SVG Export Plug-In . SVG Version: 6.00 Build 0)  -->
<svg version="1.1" xmlns="http://www.w3.org/2000/svg" xmlns:xlink="http://www.w3.org/1999/xlink" x="0px" y="0px"
	 viewBox="0 0 1024 1024" style="enable-background:new 0 0 1024 1024;" xml:space="preserve">
<style type="text/css">
	.st0{fill:#DA3940;}
	.st1{fill:#FFFFFF;}
</style>
<g id="Min_Guides__x28_DO_NOT_REMOVE_x29_">
</g>
<g id="Max_Guides__x28_DO_NOT_REMOVE_x29_">
</g>
<g id="Icon">
	<circle id="Background" class="st0" cx="512" cy="512" r="512"/>
	<path class="st1" d="M389.1,717.9c-57.5,0-94.2-32.3-94.2-77.2c0-14.8,4.4-32.8,21.4-69.5H256l55.3-118.3h385
		c8.8,0,14.8-6.6,14.8-14.2c0-7.7-6-14.2-14.8-14.2H384.7l27.4-58.6c17-36.1,53.7-59.7,93.6-59.7h130.9c75.6,0,131.4,52,131.4,119.9
		c0,80.5-73.9,145.1-159.3,145.1h-253c-7.7,15.9,1.1,28.5,19.7,28.5h201.5c33.4,0,59.1,23.5,59.1,53.7c0,34.5-33.4,64.6-71.2,64.6
		H389.1L389.1,717.9z"/>
</g>
</svg>
