<?xml version="1.0" encoding="utf-8"?>
<!-- Generator: Adobe Illustrator 21.0.0, SVG Export Plug-In . SVG Version: 6.00 Build 0)  -->
<svg version="1.1" xmlns="http://www.w3.org/2000/svg" xmlns:xlink="http://www.w3.org/1999/xlink" x="0px" y="0px"
	 viewBox="0 0 1024 1024" style="enable-background:new 0 0 1024 1024;" xml:space="preserve">
<style type="text/css">
	.st0{fill:#4172B8;}
	.st1{fill:#FFFFFF;}
</style>
<g id="Guides">
</g>
<g id="Icon">
	<circle class="st0" cx="512" cy="512" r="512"/>
	<g>
		<title>Facebook icon</title>
		<path class="st1" d="M768,513.6c0-141.4-114.6-256-256-256c-141.4,0-256,114.6-256,256c0,127.8,93.6,233.7,216,252.9V587.6h-65
			v-74h65v-56.4c0-64.2,38.2-99.6,96.7-99.6c28,0,57.3,5,57.3,5v63h-32.3c-31.8,0-41.7,19.7-41.7,40v48h71l-11.4,74H552v178.9
			C674.4,747.2,768,641.3,768,513.6z"/>
	</g>
</g>
</svg>
