<?xml version="1.0" encoding="utf-8"?>
<!-- Generator: Adobe Illustrator 21.0.0, SVG Export Plug-In . SVG Version: 6.00 Build 0)  -->
<svg version="1.1" xmlns="http://www.w3.org/2000/svg" xmlns:xlink="http://www.w3.org/1999/xlink" x="0px" y="0px"
	 viewBox="0 0 1024 1024" style="enable-background:new 0 0 1024 1024;" xml:space="preserve">
<style type="text/css">
	.st0{fill:#FF9800;}
	.st1{fill:#FFFFFF;}
</style>
<g id="Guides">
</g>
<g id="Icon">
	<circle class="st0" cx="512" cy="512" r="512"/>
	<path class="st1" d="M259.8,468.5h364.4c1.5,0,2.9-0.9,3.5-2.2l33.1-71.7c0.9-1.9,0.1-4.2-1.9-5.1c-0.5-0.2-1.1-0.4-1.6-0.4
		l-369.8,0C331,309.8,415.2,256,512,256c141.3,0,255.8,114.6,255.8,256S653.3,768,512,768S256.2,653.4,256.2,512
		C256.2,497.2,257.4,482.6,259.8,468.5z M417.3,675.8c0,2.8,2.3,5.1,5.1,5.1h6.6l80.4-101.1h63.3c1.5,0,2.9-0.9,3.5-2.2l33.1-71.6
		c0.2-0.5,0.4-1.1,0.4-1.6c0-2.1-1.7-3.8-3.8-3.8H417.3L417.3,675.8L417.3,675.8z"/>
</g>
</svg>
