<svg xmlns="http://www.w3.org/2000/svg" viewBox="0 0 1024 1024">
   <circle cx="512" cy="512" r="512" style="fill:#1493ff"/>
   <path d="M514.32 787.15a2.66 2.66 0 0 1-3.67-1 463.59 463.59 0 0 1-51.1-149.67 1.5 1.5 0 0 1 2.57-1.26A423.73 423.73 0 0 0 512 680.06a421.32 421.32 0 0 0 162.21-280.92A420.41 420.41 0 0 0 512 366.81q-6.54 0-13 .2a1.51 1.51 0 0 1-1.41-2.14 466.88 466.88 0 0 1 51.51-85.07 4.39 4.39 0 0 1 3.85-1.72 511.31 511.31 0 0 1 212.94 65.66 4.23 4.23 0 0 1 2.11 3.67c0 186.34-102.57 351.26-253.68 439.73Zm-90.62-198.7a421.94 421.94 0 0 1-27.81-45 269.11 269.11 0 0 1 26-10.72 4.28 4.28 0 0 0 2.86-3.76 496.09 496.09 0 0 1 15-92.56 1.45 1.45 0 0 0-1.69-1.79 358.61 358.61 0 0 0-76 24.88 419.05 419.05 0 0 1-12.31-60.39A418.75 418.75 0 0 1 460.18 370a4 4 0 0 0 3.15-2.37c13.45-31.49 29.38-59.65 49.36-88.93a1.39 1.39 0 0 0-1.14-2.17c-94.81.44-178.42 24.75-253.29 67.17a4.5 4.5 0 0 0-2.26 3.91c0 160.55 80 312.19 202.36 405.22a1.47 1.47 0 0 0 2.24-1.73 494.56 494.56 0 0 1-36.21-160.65 3.74 3.74 0 0 0-.69-2Z" style="fill:#fff"/>
</svg>
