<svg xmlns="http://www.w3.org/2000/svg" viewBox="0 0 1024 1024">
   <circle cx="512" cy="512" r="512" style="fill:#2799f6"/>
   <path d="M776.49 343.24c-23.64-34.46-63.63-55.86-105-59.24H651c-30.63 3.46-60.82 15.06-83.6 36.21-68.55 66.84-135.64 135.19-204.27 202q-23.86-23.5-47.52-47.15c-16.76-16.68-25.67-41.41-20.75-64.89 6.71-34.87 42.63-61.07 78-55.21 34.09 3.62 52.4 36.33 77 56L499.19 364c-30.72-39.22-72.17-77.05-124.61-80h-12.86c-33.56 1.42-67.66 12-92.84 34.95-29.13 25.43-42.88 64-47.11 101.51v11.92a133.3 133.3 0 0 0 38 86.13c67.94 68.92 136.58 137.14 205.17 205.37 12.9 12.69 24.82 26.77 40.56 36.13h11.72c17.33-6 28-21.84 41.05-33.68 50.49-51.51 103.18-100.85 152.44-153.5L562.86 424.44c16.68-16.72 33.2-33.65 50.16-50 13.79-13.67 33-21.56 52.56-20 39.67.53 72.5 41.09 65.22 80.07-4.27 33.85-36.13 52.23-56 76.6l50 47.61C741.37 545 757 528.26 771.12 512c39.5-46.51 41.5-119.7 5.37-168.76ZM582.31 564c6.63 42.23-33.65 83.77-76.16 78-41.5-1.46-71.81-46.87-61.43-86.09 6-25.83 28.23-46.78 54.39-51.22a62.13 62.13 0 0 1 14.31-1.5c33.39.38 65.43 26.81 68.89 60.81Zm-29.18-11a44.82 44.82 0 1 1-28.21-23.81 19.15 19.15 0 0 0-1.93 8.2A19.08 19.08 0 0 0 553.13 553Z" style="fill:#fff"/>
</svg>
