<svg xmlns="http://www.w3.org/2000/svg" viewBox="0 0 1024 1024">
   <circle cx="512" cy="512" r="512" style="fill:#189c74"/>
   <path d="M793.88 537.5c-1.12 21.59-4.47 42.07-9.68 59.19-13.77 9.68-26.43 21.59-39.46 33.5-23.08 21.22-46.91 42.44-68.87 64.77-12.29 4.1-24.94 7.45-37.6 10.42 47.28-49.14 86.37-106.1 130.67-157.84-11.91 2.61-18.61 13.77-26.8 21.59-49.51 46.16-102.75 90.09-144.44 143.7a335.74 335.74 0 0 1-36.85 2.61h-8.93c75.57-57.33 131.78-134.39 194-205.12-37.23 27.18-73 60.31-108.33 93.07s-73.71 63.29-98.28 105.72c-7.07-8.19-7.82-22.71-12.66-33.13C592.11 628 642 563.93 696 504c-16.38 8.19-30.9 20.85-45.79 33.13-44.67 36.48-92.32 72.59-127.32 117.27-5.58-8.19-4.47-22.71-8.93-32 54.72-30.15 90.46-79.67 131.41-123.59-19 7.82-35.74 22.71-53.61 35.74-29 20.85-61.42 38.72-80.41 67.38-3.35-10.05-4.47-21.59-6.33-33.13 35-11.91 52.12-41.32 74.08-66.26-26.06 9.31-55.84 25.69-78.92 42.07-1.86-14.89-4.09-29.78-7.82-43.18 54.35-6.33 146.3-19 212.94-15.26 48.38 2.56 74.44 20.83 88.58 51.33ZM237.71 407.58a53.72 53.72 0 0 0-2.23 10.42l-.74 3c-17.88 52.1 8.56 227.06 44.26 247.91 43.18 25.31 124.34 46.91 176.83 46.91h56.21c-29.41-60.68-36.48-146.67-51.37-212.94-106.81 5.58-202.86-10.42-222.96-95.3ZM795 503.25c-.74-30.53-4.84-60.31-12.66-82.64l-.74-3c0-1.49-4.84-39.83-43.56-62.54-43.18-25.31-124.34-46.91-176.83-46.91H455.86a242.87 242.87 0 0 0-31.64 2.23c35 38.72 49.51 98.28 63.29 157.84 99.76-8.16 256.12-35.34 307.49 35.02Zm-339.51-30.9c-.37-11.54-3-20.85-5.21-30.53-7.45 1.86-14.52 15.26-25.69 17.87 4.84-16.75 8.56-34.62 20.47-44.67a70.83 70.83 0 0 1-5.21-19c-7.82 18.61-23.08 30.9-36.85 45.79-8.93 9.68-17.12 20.47-26.8 24.2 16.75-31.27 28.29-67.75 58.45-85.25-4.47-7.82-6-19-11.54-25.69-7.82 22-25.69 38.34-40.95 54.72-14.89 16.38-30.53 33.5-47.28 44.67 26.43-39.09 45.79-85.25 83-113.54-5.58-5.58-6.7-15.64-14.15-19-8.93 26.43-31.27 44.3-48.4 63.66-17.5 19.36-33.13 41.69-53.61 54.72 29-42.44 51.75-90.83 89.34-124.71q-12.28 2.23-24.57 5.58c-10.42 14.52-23.83 27.18-35.74 39.83-17.84 19.77-35.75 41-56.18 54.77 19.73-27.18 36.11-57.33 55.84-84.13-10.05 3.35-19.36 7.07-27.92 10.8-13.77 14.89-27.92 29.78-43.18 40.21 6.33-8.19 11.91-17.87 17.5-27.18a87.63 87.63 0 0 0-34.62 37.6c16 82.63 117.63 86.36 213.3 79.28ZM738 668.54c39.09-23.08 43.56-62.17 43.56-62.54l.37-1.49c-18.24 23.08-36.11 46.91-54.72 70a100.3 100.3 0 0 0 10.79-5.97Z" style="fill:#fff"/>
</svg>
