<svg xmlns="http://www.w3.org/2000/svg" viewBox="0 0 1024 1024">
   <circle cx="512" cy="512" r="512" style="fill:#ff282d"/>
   <path d="M633.9 408.1v176.2h52.9v-26.9h-17.5V381.2h-35.4v26.9zM174.5 557.4h18v-85h-18V449l18-3v-23.7c0-28.7 6.2-41.1 42.8-41.1 7.9 0 17.2 1.2 25.4 2.6l-4.9 28.8c-5.5-.9-8.3-1-11.8-1-12.9 0-16.1 1.3-16.1 13.9V446h26.7v26.3h-26.7v85h17.8v26.9h-71.2v-26.8zm441.4-8.5c-5.5 1.2-10.4 1-13.9 1.1-14.6.4-13.3-4.4-13.3-18.2v-59.4h27.7V446h-27.7v-64.8h-35.4v157.9c0 31 7.6 45.1 41 45.1 7.9 0 18.7-2 26.9-3.8l-5.3-31.5zM509 472.3v-4.7c-10.7-2-21.4-2-27.1-2-16.5 0-18.5 8.7-18.5 13.5 0 6.7 2.3 10.3 20.1 14.2 26.1 5.9 52.3 12 52.3 44.4 0 30.7-15.8 46.6-49.1 46.6-22.3 0-43.8-4.8-60.3-9v-26.5h26.8v4.7c11.5 2.2 23.6 2 30 2 17.6 0 20.4-9.5 20.4-14.5 0-7-5-10.3-21.5-13.7-31.1-5.3-55.7-15.9-55.7-47.5 0-29.9 20-41.6 53.2-41.6 22.5 0 39.7 3.5 56.1 7.7v26.3H509zm-163 23.3-2.7-2.7-13.7 11.9c-.7-.2-1.4-.4-2.2-.4-3.7 0-6.7 3.1-6.7 6.9 0 3.8 3 6.9 6.7 6.9s6.7-3.1 6.7-6.9c0-.7-.1-1.4-.3-2.1l12.2-13.6zm54.3 53.3V438.6h-35.4v10.3c-7.3-4.4-15.4-7.5-24.1-9.1h.2v-12.2h4.3v-9h-35.7v9h4.3v12.2h.2c-33.9 6.2-59.6 35.9-59.6 71.6 0 40.2 32.6 72.9 72.8 72.9 13.7 0 26.6-3.8 37.5-10.4l6.4 10.4h37.4v-35.4h-8.3zm-70.8-.1v-4.2h-4.2v4.2c-19-1.1-34.2-16.4-35.2-35.4h4.2v-4.2h-4.2c1.1-18.9 16.3-34.1 35.2-35.2v4.2h4.2V474c18.6 1 33.7 15.6 35.3 34.1v1.2h-4.3v4.2h4.3v1.2c-1.6 18.4-16.6 33.1-35.3 34.1zM776.4 446h73.1v26.3H832l-44.8 110.3c-12.8 31-33.9 60.1-66.1 60.1-7.9 0-18.4-.9-25.7-2.6l3.2-32.2c4.7.9 10.8 1.5 14 1.5 14.9 0 31.7-9.2 37-25.3l-45.4-111.8h-17.5V446h73.1v26.3h-17.5l25.7 63.3 25.7-63.3h-17.4l.1-26.3z" style="fill:#fff"/>
</svg>
