<?xml version="1.0" encoding="utf-8"?>
<!-- Generator: Adobe Illustrator 21.0.0, SVG Export Plug-In . SVG Version: 6.00 Build 0)  -->
<svg version="1.1" xmlns="http://www.w3.org/2000/svg" xmlns:xlink="http://www.w3.org/1999/xlink" x="0px" y="0px"
	 viewBox="0 0 1024 1024" style="enable-background:new 0 0 1024 1024;" xml:space="preserve">
<style type="text/css">
	.st0{fill:#0067B9;}
	.st1{fill:#FFFFFF;}
</style>
<g id="Guides">
</g>
<g id="Icon">
	<circle class="st0" cx="512" cy="512" r="512"/>
	<g>
		<path class="st1" d="M680.8,400.8c21.1,31.9,33.4,70.1,33.4,111.2c0,111.7-90.5,202.2-202.2,202.2c-69.8,0-131.3-35.3-167.6-89.1
			l-44.8,29.9c46,68.2,124,113.1,212.4,113.1c141.4,0,256-114.6,256-256c0-52.1-15.6-100.6-42.4-141.1L680.8,400.8L680.8,400.8z"/>
		<path class="st1" d="M309.8,512c0-111.7,90.5-202.2,202.2-202.2c70.6,0,132.7,36.2,168.8,91l44.8-29.9
			C679.8,301.7,601.2,256,512,256c-141.4,0-256,114.6-256,256c0,52.9,16.1,102.1,43.6,142.9l44.8-29.9
			C322.6,592.8,309.8,553.9,309.8,512L309.8,512z"/>
		<path class="st1" d="M390.3,593.1h234.8c4.7,0,8.6-3.8,8.6-8.6V430.9L390.3,593.1"/>
		<path class="st1" d="M390.3,593.1L390.3,593.1c1-0.6,1.3-0.9,1.3-0.9C391.6,592.3,391,592.7,390.3,593.1V430.9L512,512
			L390.3,593.1"/>
	</g>
</g>
</svg>
