<svg xmlns="http://www.w3.org/2000/svg" viewBox="0 0 1024 1024">
   <circle cx="512" cy="512" r="512" style="fill:#0067b9"/>
   <path d="M743.55 359.1C693.88 284 608.74 234.5 512 234.5c-153.26 0-277.5 124.24-277.5 277.5A277.44 277.44 0 0 0 512 789.5c153.26 0 277.5-124.24 277.5-277.5a276.13 276.13 0 0 0-45.95-152.9zM512 731.17A219.12 219.12 0 0 1 292.83 512c0-121 98.17-219.17 219.17-219.17A219.22 219.22 0 0 1 731.17 512c0 121-98.17 219.17-219.17 219.17zM512 512l-131.92-87.95v175.9h254.56a9.27 9.27 0 0 0 9.28-9.28V424.05zm-130.54 87-.74.49z" style="fill:#fff"/>
</svg>
