<svg xmlns="http://www.w3.org/2000/svg" viewBox="0 0 1024 1024">
   <style>
      .st1{fill:#fff}
   </style>
   <g id="Icon">
      <circle cx="512" cy="512" r="512" style="fill:#0067b9"/>
      <path class="st1" d="M680.8 400.8c21.1 31.9 33.4 70.1 33.4 111.2 0 111.7-90.5 202.2-202.2 202.2-69.8 0-131.3-35.3-167.6-89.1L299.6 655c46 68.2 124 113.1 212.4 113.1 141.4 0 256-114.6 256-256 0-52.1-15.6-100.6-42.4-141.1l-44.8 29.8zM309.8 512c0-111.7 90.5-202.2 202.2-202.2 70.6 0 132.7 36.2 168.8 91l44.8-29.9C679.8 301.7 601.2 256 512 256c-141.4 0-256 114.6-256 256 0 52.9 16.1 102.1 43.6 142.9l44.8-29.9c-21.8-32.2-34.6-71.1-34.6-113z"/>
      <path class="st1" d="M390.3 593.1h234.8c4.7 0 8.6-3.8 8.6-8.6V430.9L390.3 593.1"/>
      <path class="st1" d="M390.3 593.1c1-.6 1.3-.9 1.3-.9 0 .1-.6.5-1.3.9V430.9L512 512l-121.7 81.1"/>
   </g>
</svg>
