<?xml version="1.0" encoding="utf-8"?>
<!-- Generator: Adobe Illustrator 21.0.0, SVG Export Plug-In . SVG Version: 6.00 Build 0)  -->
<svg version="1.1" xmlns="http://www.w3.org/2000/svg" xmlns:xlink="http://www.w3.org/1999/xlink" x="0px" y="0px"
	 viewBox="0 0 1024 1024" style="enable-background:new 0 0 1024 1024;" xml:space="preserve">
<style type="text/css">
	.st0{fill:#FF282D;}
	.st1{fill:#FFFFFF;}
</style>
<g id="Min_Guides__x28_DO_NOT_REMOVE_x29_">
</g>
<g id="Max_Guides__x28_DO_NOT_REMOVE_x29_">
</g>
<g id="Icon">
	<circle id="Background" class="st0" cx="512" cy="512" r="512"/>
	<path class="st1" d="M633.9,408.1v176.2h52.9v-26.9h-17.5V381.2l-35.4,0L633.9,408.1z M174.5,557.4h18v-85h-18V449l18-3v-23.7
		c0-28.7,6.2-41.1,42.8-41.1c7.9,0,17.2,1.2,25.4,2.6l-4.9,28.8c-5.5-0.9-8.3-1-11.8-1c-12.9,0-16.1,1.3-16.1,13.9V446h26.7v26.3
		h-26.7v85h17.8v26.9l-71.2,0L174.5,557.4L174.5,557.4z M615.9,548.9c-5.5,1.2-10.4,1-13.9,1.1c-14.6,0.4-13.3-4.4-13.3-18.2v-59.4
		h27.7V446h-27.7v-64.8h-35.4v157.9c0,31,7.6,45.1,41,45.1c7.9,0,18.7-2,26.9-3.8L615.9,548.9z M509,472.3v-4.7
		c-10.7-2-21.4-2-27.1-2c-16.5,0-18.5,8.7-18.5,13.5c0,6.7,2.3,10.3,20.1,14.2c26.1,5.9,52.3,12,52.3,44.4
		c0,30.7-15.8,46.6-49.1,46.6c-22.3,0-43.8-4.8-60.3-9v-26.5h26.8l0,4.7c11.5,2.2,23.6,2,30,2c17.6,0,20.4-9.5,20.4-14.5
		c0-7-5-10.3-21.5-13.7c-31.1-5.3-55.7-15.9-55.7-47.5c0-29.9,20-41.6,53.2-41.6c22.5,0,39.7,3.5,56.1,7.7v26.3H509z M346,495.6
		l-2.7-2.7l-13.7,11.9c-0.7-0.2-1.4-0.4-2.2-0.4c-3.7,0-6.7,3.1-6.7,6.9c0,3.8,3,6.9,6.7,6.9c3.7,0,6.7-3.1,6.7-6.9
		c0-0.7-0.1-1.4-0.3-2.1L346,495.6z M400.3,548.9l0-110.3h-35.4v10.3c-7.3-4.4-15.4-7.5-24.1-9.1h0.2v-12.2h4.3v-9h-35.7v9h4.3v12.2
		h0.2c-33.9,6.2-59.6,35.9-59.6,71.6c0,40.2,32.6,72.9,72.8,72.9c13.7,0,26.6-3.8,37.5-10.4l6.4,10.4h37.4v-35.4L400.3,548.9
		L400.3,548.9z M329.5,548.8v-4.2h-4.2v4.2c-19-1.1-34.2-16.4-35.2-35.4h4.2v-4.2h-4.2c1.1-18.9,16.3-34.1,35.2-35.2v4.2h4.2v-4.2
		c18.6,1,33.7,15.6,35.3,34.1v1.2h-4.3v4.2h4.3l0,1.2C363.2,533.1,348.2,547.8,329.5,548.8L329.5,548.8z M776.4,446h73.1v26.3H832
		l-44.8,110.3c-12.8,31-33.9,60.1-66.1,60.1c-7.9,0-18.4-0.9-25.7-2.6l3.2-32.2c4.7,0.9,10.8,1.5,14,1.5c14.9,0,31.7-9.2,37-25.3
		l-45.4-111.8h-17.5V446h73.1v26.3h-17.5l25.7,63.3l25.7-63.3h-17.4L776.4,446L776.4,446z"/>
</g>
</svg>
