<svg xmlns="http://www.w3.org/2000/svg" viewBox="0 0 1024 1024">
   <circle cx="512" cy="512" r="512" style="fill:#9187ff"/>
   <path d="M558.62 256c-36.31.16-78.78 10-129.45 28.4-170.71 62.15-206.9 139.74-144.79 310.45s139.73 206.89 310.45 144.76S801.74 599.88 739.6 429.16c-43.69-120-95-173.55-181-173.17Zm59.1 140.16h26.73a5.33 5.33 0 0 1 5.16 6.72l-59.26 220.48a5.34 5.34 0 0 1-5.15 4h-26.75a5.33 5.33 0 0 1-5.16-6.72l3.6-13.4 2.63-9.75 53-197.38a5.33 5.33 0 0 1 5.14-3.94ZM421.79 413.4h10.75a5.33 5.33 0 0 1 5.33 5.33v18a5.33 5.33 0 0 1-5.33 5.33h-9.13a36.76 36.76 0 0 0-5.51.24 4.7 4.7 0 0 0-2.56 1 4.19 4.19 0 0 0-1 1.66 18.91 18.91 0 0 0-.92 6.72v13.67h19.16a5.33 5.33 0 0 1 5.33 5.33v18a5.34 5.34 0 0 1-5.33 5.33h-19.21v108.71a5.34 5.34 0 0 1-5.34 5.34H387a5.33 5.33 0 0 1-5.33-5.34V448.48a36.74 36.74 0 0 1 3.6-16.64 29.76 29.76 0 0 1 9.73-11.16c7.9-5.48 17.62-7.27 26.82-7.31Zm82.14 50c16.37 0 30.27 4.65 40.17 13.27s15.47 21.21 15.42 35.59v35.91l-16.11 59.92h-10.24a5.33 5.33 0 0 1-5.33-5.34v-4a39.13 39.13 0 0 1-4.76 3.56c-7.14 4.55-16.85 7.51-29.65 7.51a62.65 62.65 0 0 1-28.52-6.18 40.49 40.49 0 0 1-18.84-19.35 46.81 46.81 0 0 1-4-19.54 40.72 40.72 0 0 1 5.23-21.12 36.78 36.78 0 0 1 13.78-13.18c11.09-6.25 24.75-8.45 38.14-10.24 7.3-1 13.14-1.61 17.64-2.2a42 42 0 0 0 9.2-1.88 3.16 3.16 0 0 0 1.39-.86l.24-.48a6.77 6.77 0 0 0 .16-1.84v-.73a17.24 17.24 0 0 0-5.85-13.6c-3.8-3.31-9.77-5.55-18.07-5.57s-14.64 2.26-19 5.59a17.51 17.51 0 0 0-7.21 12.54 5.33 5.33 0 0 1-5.31 4.86h-22.25a5.33 5.33 0 0 1-5.33-5.57 45.64 45.64 0 0 1 17.6-34c10.47-8.34 24.85-13.12 41.49-13.12Zm23.92 80.71c-1.92.48-4 1-6.31 1.45-6.47 1.28-14.29 2.41-21.87 3.48a61 61 0 0 0-14.76 3.65c-4.18 1.75-7.1 4-8.68 6.57a12.12 12.12 0 0 0-1.71 6.54v.2a12.93 12.93 0 0 0 1.32 5.87 11.81 11.81 0 0 0 3.76 4.22c3.41 2.45 9.13 4.14 16.85 4.14 11.95 0 19.52-3.5 24.32-8.32s7-11.56 7.08-19.11v-8.65Zm0 0" style="fill:#fff"/>
</svg>
