<svg xmlns="http://www.w3.org/2000/svg" viewBox="0 0 1024 1024" style="enable-background:new 0 0 1024 1024" xml:space="preserve">
   <circle cx="512" cy="512" r="512" style="fill:#f24e1e"/>
   <path d="M512 512c0-47.1 38.2-85.3 85.3-85.3s85.3 38.2 85.3 85.3-38.2 85.3-85.3 85.3S512 559.1 512 512zM341.3 682.7c0-47.1 38.2-85.3 85.3-85.3H512v85.3c0 47.1-38.2 85.3-85.3 85.3s-85.4-38.2-85.4-85.3zM512 256v170.7h85.3c47.1 0 85.3-38.2 85.3-85.3S644.5 256 597.3 256H512zm-170.7 85.3c0 47.1 38.2 85.3 85.3 85.3H512V256h-85.3c-47.2 0-85.4 38.2-85.4 85.3zm0 170.7c0 47.1 38.2 85.3 85.3 85.3H512V426.7h-85.3c-47.2 0-85.4 38.2-85.4 85.3z" style="fill:#fff"/>
</svg>
