<?xml version="1.0" encoding="utf-8"?>
<!-- Generator: Adobe Illustrator 21.0.0, SVG Export Plug-In . SVG Version: 6.00 Build 0)  -->
<svg version="1.1" xmlns="http://www.w3.org/2000/svg" xmlns:xlink="http://www.w3.org/1999/xlink" x="0px" y="0px"
	 viewBox="0 0 1024 1024" style="enable-background:new 0 0 1024 1024;" xml:space="preserve">
<style type="text/css">
	.st0{fill:#F24E1E;}
	.st1{fill:#FFFFFF;}
</style>
<g id="Guides">
</g>
<g id="Icon">
	<circle class="st0" cx="512" cy="512" r="512"/>
	<path class="st1" d="M512,512c0-47.1,38.2-85.3,85.3-85.3s85.3,38.2,85.3,85.3s-38.2,85.3-85.3,85.3S512,559.1,512,512z
		 M341.3,682.7c0-47.1,38.2-85.3,85.3-85.3H512v85.3c0,47.1-38.2,85.3-85.3,85.3S341.3,729.8,341.3,682.7z M512,256v170.7h85.3
		c47.1,0,85.3-38.2,85.3-85.3S644.5,256,597.3,256H512z M341.3,341.3c0,47.1,38.2,85.3,85.3,85.3H512V256h-85.3
		C379.5,256,341.3,294.2,341.3,341.3z M341.3,512c0,47.1,38.2,85.3,85.3,85.3H512V426.7h-85.3C379.5,426.7,341.3,464.9,341.3,512z"
		/>
</g>
</svg>
