<svg xmlns="http://www.w3.org/2000/svg" viewBox="0 0 1024 1024">
   <circle cx="512" cy="512" r="512" style="fill:#a32135"/>
   <path d="M327.74 361.92v155.63a6.54 6.54 0 0 0 6.54 6.54h155.63a6.56 6.56 0 0 0 6.42-7.83 6.57 6.57 0 0 0-1.79-3.34L338.89 357.3a6.68 6.68 0 0 0-3.34-1.76 6.45 6.45 0 0 0-3.77.38 6.38 6.38 0 0 0-2.92 2.4 6.55 6.55 0 0 0-1.12 3.6Zm61 8.12 122 121.91a6.57 6.57 0 0 0 3.35 1.79 6.59 6.59 0 0 0 6.72-2.77 6.59 6.59 0 0 0 1.11-3.64V243.47a6.56 6.56 0 0 0-7.83-6.42 6.66 6.66 0 0 0-3.35 1.79l-122 121.86a6.51 6.51 0 0 0-1.45 2.14 6.56 6.56 0 0 0 0 5 6.71 6.71 0 0 0 1.43 2.16Zm164.16-23.63v140.91a6.42 6.42 0 0 0 1.11 3.63 6.51 6.51 0 0 0 10.06 1L705 351a6.66 6.66 0 0 0 1.79-3.35A6.59 6.59 0 0 0 704 341a6.59 6.59 0 0 0-3.64-1.11H559.44a6.54 6.54 0 0 0-6.54 6.56Zm31.91 177.68h176.65a6.56 6.56 0 0 0 6.42-7.83 6.57 6.57 0 0 0-1.79-3.34l-88.33-88.32a6.27 6.27 0 0 0-2.13-1.42 6.49 6.49 0 0 0-5 0 6.34 6.34 0 0 0-2.12 1.42l-88.33 88.33a6.54 6.54 0 0 0-1.41 7.14 6.52 6.52 0 0 0 6.06 4Zm-4.64 37.32 99.94 99.95a6.63 6.63 0 0 0 3.35 1.8 6.56 6.56 0 0 0 7.84-6.44v-99.86a6.51 6.51 0 0 0-4-6.05 6.33 6.33 0 0 0-2.51-.5h-99.98a6.55 6.55 0 0 0-6 4 6.6 6.6 0 0 0 1.35 7.09Zm70.63 107.75-86.74-86.74a6.57 6.57 0 0 0-3.37-1.8 6.49 6.49 0 0 0-3.78.38 6.65 6.65 0 0 0-2.92 2.41 6.45 6.45 0 0 0-1.11 3.63v173.49a6.49 6.49 0 0 0 4 6 6.49 6.49 0 0 0 3.78.38 6.56 6.56 0 0 0 3.35-1.79l86.74-86.74a6.56 6.56 0 0 0 0-9.25Zm-129 52.28V587.08a6.56 6.56 0 0 0-7.83-6.42 6.57 6.57 0 0 0-3.34 1.79L376.25 716.82a6.63 6.63 0 0 0-1.8 3.35 6.56 6.56 0 0 0 6.44 7.84h134.35a6.67 6.67 0 0 0 2.52-.5 6.34 6.34 0 0 0 2.12-1.42 6.45 6.45 0 0 0 1.42-2.09 6.54 6.54 0 0 0 .49-2.51ZM489.91 550.3H262.48a6.51 6.51 0 0 0-3.59 1.12 6.47 6.47 0 0 0-2.77 6.64 6.62 6.62 0 0 0 1.73 3.34l113.71 113.73a6.65 6.65 0 0 0 4.64 1.93 6.67 6.67 0 0 0 2.52-.5 6.34 6.34 0 0 0 2.12-1.42l113.7-113.72a6.62 6.62 0 0 0 1.73-3.34 6.41 6.41 0 0 0-.38-3.73 6.59 6.59 0 0 0-2.4-2.91 6.44 6.44 0 0 0-3.58-1.14Z" style="fill:#fff"/>
</svg>
