<svg xmlns="http://www.w3.org/2000/svg" viewBox="0 0 1024 1024" style="enable-background:new 0 0 1024 1024" xml:space="preserve">
   <style>
      .st1{fill:#fff}.st2,.st3{opacity:.67;fill:#fff;enable-background:new}.st3{opacity:.53}
   </style>
   <g id="Icon">
      <circle cx="512" cy="512" r="512" style="fill:#e25821"/>
      <path class="st1" d="M310.7 379.1z"/>
      <path class="st2" d="M310.7 379.1z"/>
      <path class="st1" d="M310.7 379.1zm0 0zm0 0zm405.7-22.3c-19.7-25.9-43.8-47.2-71-63.4-1.2-.7-2.8-.5-4 .5-1.5 1.5-1.1 3.8.5 5 50.3 32.6 89 85.1 98.1 155.2 18.6 142.4-80.9 261.3-220.8 261.7-153.8.5-247.4-135.5-222.9-257.6 1.2-6.1.6-12 2.6-17.8 1.1-21.4 9.3-55.1 26.9-89.5-17.7 9.2-40.2 38.1-51.4 64.9-16.1 38.6-21.7 84.8-16.6 128.8.4 3.3.7 6.6 1.1 9.9 20.7 121.1 126.2 213.2 253.1 213 141.4-.2 256.6-116.3 255.8-257.8-.2-57.4-19.4-110.3-51.4-152.9z"/>
      <path class="st2" d="M716.4 356.8c-19.7-25.9-43.8-47.2-71-63.4-1.2-.7-2.8-.5-4 .5-1.5 1.5-1.1 3.8.5 5 50.3 32.6 89 85.1 98.1 155.2 18.6 142.4-80.9 261.3-220.8 261.7-153.8.5-247.4-135.5-222.9-257.6 1.2-6.1.6-12 2.6-17.8 1.1-21.4 9.3-55.1 26.9-89.5-17.7 9.2-40.2 38.1-51.4 64.9-16.1 38.6-21.7 84.8-16.6 128.8.4 3.3.7 6.6 1.1 9.9 20.7 121.1 126.2 213.2 253.1 213 141.4-.2 256.6-116.3 255.8-257.8-.2-57.4-19.4-110.3-51.4-152.9z"/>
      <path class="st1" d="M716.4 356.8c-19.7-25.9-43.8-47.2-71-63.4-1.2-.7-2.8-.5-4 .5-1.5 1.5-1.1 3.8.5 5 50.3 32.6 89 85.1 98.1 155.2 18.6 142.4-80.9 261.3-220.8 261.7-153.8.5-247.4-135.5-222.9-257.6 1.2-6.1.6-12 2.6-17.8 1.1-21.4 9.3-55.1 26.9-89.5-17.7 9.2-40.2 38.1-51.4 64.9-16.1 38.6-21.7 84.8-16.6 128.8.4 3.3.7 6.6 1.1 9.9 20.7 121.1 126.2 213.2 253.1 213 141.4-.2 256.6-116.3 255.8-257.8-.2-57.4-19.4-110.3-51.4-152.9z"/>
      <path class="st1" d="M716.4 356.8c-19.7-25.9-43.8-47.2-71-63.4-1.2-.7-2.8-.5-4 .5-1.5 1.5-1.1 3.8.5 5 50.3 32.6 89 85.1 98.1 155.2 18.6 142.4-80.9 261.3-220.8 261.7-153.8.5-247.4-135.5-222.9-257.6 1.2-6.1.6-12 2.6-17.8 1.1-21.4 9.3-55.1 26.9-89.5-17.7 9.2-40.2 38.1-51.4 64.9-16.1 38.6-21.7 84.8-16.6 128.8.4 3.3.7 6.6 1.1 9.9 20.7 121.1 126.2 213.2 253.1 213 141.4-.2 256.6-116.3 255.8-257.8-.2-57.4-19.4-110.3-51.4-152.9z"/>
      <path class="st1" d="M716.4 356.8c-19.7-25.9-43.8-47.2-71-63.4-1.2-.7-2.8-.5-4 .5-1.5 1.5-1.1 3.8.5 5 50.3 32.6 89 85.1 98.1 155.2 18.6 142.4-80.9 261.3-220.8 261.7-153.8.5-247.4-135.5-222.9-257.6 1.2-6.1.6-12 2.6-17.8 1.1-21.4 9.3-55.1 26.9-89.5-17.7 9.2-40.2 38.1-51.4 64.9-16.1 38.6-21.7 84.8-16.6 128.8.4 3.3.7 6.6 1.1 9.9 20.7 121.1 126.2 213.2 253.1 213 141.4-.2 256.6-116.3 255.8-257.8-.2-57.4-19.4-110.3-51.4-152.9z"/>
      <path class="st1" d="M746.3 447c-8.3-74.5-50.2-125.4-103.6-155.2-8.9-5-20.2-2.8-26.6 5.1l-.1.1c60.9 37.5 99.3 104 101.3 173.4 2.4 84.3-66.9 151.6-146.6 155.4-58 2.8-112.6-25.1-139.3-81.2-5.9-12.5-10.3-25.1-12.5-40.5-12.6-85.2 44.7-157.9 97.3-176-28.4-24.8-99.6-23-152.4 15.9-38.1 28-62.9 70.6-71.1 121.4-6.2 38.8-.4 79 15 114.9 15.6 36.7 41 69 73.1 92.7 34.7 25.9 76.5 40.9 119.6 44.1 6.3.5 12.8.7 19.1.7 169.1.2 242.7-128.1 226.8-270.8z"/>
      <path class="st1" d="M746.3 447c-8.3-74.5-50.2-125.4-103.6-155.2-8.9-5-20.2-2.8-26.6 5.1l-.1.1c60.9 37.5 99.3 104 101.3 173.4 2.4 84.3-66.9 151.6-146.6 155.4-58 2.8-112.6-25.1-139.3-81.2-5.9-12.5-10.3-25.1-12.5-40.5-12.6-85.2 44.7-157.9 97.3-176-28.4-24.8-99.6-23-152.4 15.9-38.1 28-62.9 70.6-71.1 121.4-6.2 38.8-.4 79 15 114.9 15.6 36.7 41 69 73.1 92.7 34.7 25.9 76.5 40.9 119.6 44.1 6.3.5 12.8.7 19.1.7 169.1.2 242.7-128.1 226.8-270.8z"/>
      <path class="st3" d="M746.3 447c-8.3-74.5-50.2-125.4-103.6-155.2-8.9-5-20.2-2.8-26.6 5.1l-.1.1c60.9 37.5 99.3 104 101.3 173.4 2.4 84.3-66.9 151.6-146.6 155.4-58 2.8-112.6-25.1-139.3-81.2-5.9-12.5-10.3-25.1-12.5-40.5-12.6-85.2 44.7-157.9 97.3-176-28.4-24.8-99.6-23-152.4 15.9-38.1 28-62.9 70.6-71.1 121.4-6.2 38.8-.4 79 15 114.9 15.6 36.7 41 69 73.1 92.7 34.7 25.9 76.5 40.9 119.6 44.1 6.3.5 12.8.7 19.1.7 169.1.2 242.7-128.1 226.8-270.8z"/>
      <path class="st3" d="M746.3 447c-8.3-74.5-50.2-125.4-103.6-155.2-8.9-5-20.2-2.8-26.6 5.1l-.1.1c60.9 37.5 99.3 104 101.3 173.4 2.4 84.3-66.9 151.6-146.6 155.4-58 2.8-112.6-25.1-139.3-81.2-5.9-12.5-10.3-25.1-12.5-40.5-12.6-85.2 44.7-157.9 97.3-176-28.4-24.8-99.6-23-152.4 15.9-38.1 28-62.9 70.6-71.1 121.4-6.2 38.8-.4 79 15 114.9 15.6 36.7 41 69 73.1 92.7 34.7 25.9 76.5 40.9 119.6 44.1 6.3.5 12.8.7 19.1.7 169.1.2 242.7-128.1 226.8-270.8z"/>
      <path class="st1" d="M616.3 296.6c-.1.1-.1.2-.2.4-7.3 9-5.8 22.2 3.1 29.6 38.4 31.5 64.1 76.2 64.1 127.8 0 71.3-55.2 125.7-119.9 121.8-96.1-5.8-120.2-104-70.3-146.5-13.5-2.8-38.8 2.7-56.5 29.1-15.9 23.7-15 60.1-5.2 85.9 26.7 56 81.4 84.7 139.3 81.2 109.5-6.7 156.3-97 159.2-161.2 3.2-69.7-12.5-131.5-87.1-173.1-8.9-5-20.1-2.9-26.5 5z"/>
      <path class="st1" d="M716.4 356.8c-6.8-9-14.4-17.5-22.3-25.4-6.3-6.7-13.1-12.9-20.3-18.7 4.1 3.6 8 7.4 11.9 11.4 13.9 15 24.9 32.7 31.2 52 13.4 40.4 12.5 91-13 130.6-30.5 47.3-80 70.7-133.5 69.6-2.4 0-4.6 0-6.9-.1-96.1-5.8-120.2-104-70.3-146.5-13.5-2.8-38.8 2.7-56.5 29.1-15.9 23.7-15 60.1-5.2 85.9-5.9-12.5-10.3-25.1-12.5-40.5-12.6-85.2 44.7-157.9 97.3-176-28.4-24.8-99.6-23-152.4 15.9-30.8 22.7-52.9 54.9-64.5 93.2 1.7-21.5 9.9-53.6 26.6-86.6-17.7 9.2-40.2 38.1-51.4 64.9-16.1 38.6-21.7 84.8-16.6 128.8.4 3.3.7 6.6 1.1 9.9 20.6 120.9 125.9 213 252.6 213C653.2 767.3 768 652.5 768 511c-.1-57.8-19.3-111.2-51.6-154.2z"/>
      <path class="st1" d="M716.9 376.1c-6.4-19.3-17.3-37-31.2-52-29.7-31.9-73.4-52.4-115.5-61.7-35.4-7.8-72.6-7.7-106-.6-36.4 7.7-68.4 23.4-88.5 43 69.8-40.9 164-33.3 228.3 12.5 10.8 7.7 20.8 16.5 29.8 26.1 42.8 46.2 60.3 123.3 24.3 178.8-18.1 28.1-57 54.4-93.2 54.1 55.6 3 107.5-20.6 138.9-69.5 25.6-39.7 26.4-90.3 13.1-130.7z"/>
      <path class="st1" d="M716.9 376.1c-6.4-19.3-17.3-37-31.2-52-29.7-31.9-73.4-52.4-115.5-61.7-35.4-7.8-72.6-7.7-106-.6-36.4 7.7-68.4 23.4-88.5 43 69.8-40.9 164-33.3 228.3 12.5 10.8 7.7 20.8 16.5 29.8 26.1 42.8 46.2 60.3 123.3 24.3 178.8-18.1 28.1-57 54.4-93.2 54.1 55.6 3 107.5-20.6 138.9-69.5 25.6-39.7 26.4-90.3 13.1-130.7z"/>
   </g>
</svg>
