<svg xmlns="http://www.w3.org/2000/svg" viewBox="0 0 1024 1024">
   <circle cx="512" cy="512" r="512" style="fill:#e25821"/>
   <path d="M768.1 497c-.12-1.61-.25-3.23-.25-4.84V492l-.37-4.84V487a254.68 254.68 0 0 0-7.57-42.58c0-.12 0-.12-.12-.25l-1.12-4.1c-.12-.25-.12-.5-.25-.62-.37-1.24-.74-2.61-1.12-3.85-.12-.25-.12-.62-.25-.87-.37-1.24-.74-2.48-1.12-3.6-.12-.37-.25-.62-.37-1-.37-1.24-.74-2.36-1.24-3.6l-.37-1.12c-.37-1.12-.87-2.36-1.24-3.48a8.56 8.56 0 0 0-.37-1c-.5-1.12-.87-2.36-1.37-3.48-.12-.25-.25-.62-.37-.87-.5-1.24-1-2.36-1.49-3.6 0-.12-.12-.25-.12-.37-1.61-4-3.35-7.95-5.21-11.79l-.37-.74c-.5-1-.87-1.86-1.37-2.73-.25-.5-.5-1.12-.74-1.61-.37-.87-.87-1.61-1.24-2.48-.37-.62-.62-1.24-1-1.86s-.87-1.49-1.24-2.36c-.37-.62-.74-1.37-1.12-2s-.87-1.49-1.24-2.23a18.69 18.69 0 0 0-1.24-2.11c-.37-.74-.87-1.37-1.24-2.11s-.87-1.37-1.24-2.11-.87-1.37-1.24-2-.87-1.49-1.37-2.23a16.17 16.17 0 0 0-1.24-1.86l-1.49-2.23a16.17 16.17 0 0 0-1.24-1.86c-.5-.74-1.12-1.61-1.61-2.36-.37-.5-.74-1.12-1.12-1.61l-1.86-2.61c-.37-.5-.62-.87-1-1.37-1-1.37-1.86-2.61-2.86-3.85a257.46 257.46 0 0 0-24.34-27.5 192.1 192.1 0 0 0-19-17.26c-4.1-3.6-8.44-7-12.91-10.18A168.11 168.11 0 0 0 635 285.92c-2.48-1.37-5-2.61-7.45-3.85a262.67 262.67 0 0 0-57.36-20.24c-2-.37-4-.87-5.84-1.24h-.12c-1-.12-1.86-.37-2.86-.5A244.53 244.53 0 0 0 522 256h-10.89a242.74 242.74 0 0 0-47.05 5.21c-34.76 7.32-65.43 22-85.79 40.35-1.12 1-2 1.74-2.48 2.23l-.5.5h.12l-.12.12.12-.12a.12.12 0 0 0 .12-.12l-.12.12a.43.43 0 0 1 .25-.12c15.15-9.06 36.13-16.51 51.15-20.24 2-.5 4.1-1 6.08-1.49.37-.12.87-.12 1.24-.25 1.74-.37 3.48-.74 5.34-1.12.25 0 .62-.12.87-.12 66.42-12.17 137.19 7.7 186.48 54.75a177.43 177.43 0 0 1 27.81 33.89c31.41 50.9 28.43 115 4 152.71C623 577.18 543.39 596.05 494.1 548a87.1 87.1 0 0 1-26.44-61.08 76.61 76.61 0 0 1 6.46-32c1.74-4 13.53-26.57 18.87-25.45-13.53-2.86-38.86 2.73-56.61 29.18-15.89 23.71-15 60.21-5.21 86.16a137.44 137.44 0 0 1-12.54-40.6C406 418.76 463.44 345.89 516.2 327.76c-28.43-24.83-99.82-23.09-152.83 15.89-30.91 22.72-53 55-64.68 93.49 1.74-21.6 9.93-53.88 26.69-86.78-17.75 9.19-40.35 38.24-51.52 65.06-16.14 38.74-21.73 85-16.64 129.12.37 3.35.74 6.58 1.12 9.93C278.95 675.63 384.6 768 511.61 768c141.9 0 257-115.09 257-257-.13-4.71-.26-9.43-.51-14z" style="fill:#fff"/>
</svg>
