<?xml version="1.0" encoding="utf-8"?>
<!-- Generator: Adobe Illustrator 21.0.0, SVG Export Plug-In . SVG Version: 6.00 Build 0)  -->
<svg version="1.1" xmlns="http://www.w3.org/2000/svg" xmlns:xlink="http://www.w3.org/1999/xlink" x="0px" y="0px"
	 viewBox="0 0 1024 1024" style="enable-background:new 0 0 1024 1024;" xml:space="preserve">
<style type="text/css">
	.st0{fill:#E25821;}
	.st1{fill:#FFFFFF;}
	.st2{opacity:0.67;fill:#FFFFFF;enable-background:new    ;}
	.st3{opacity:0.53;fill:#FFFFFF;enable-background:new    ;}
</style>
<g id="Guides">
</g>
<g id="Icon">
	<circle class="st0" cx="512" cy="512" r="512"/>
	<g>
		<g>
			<path class="st1" d="M310.7,379.1L310.7,379.1L310.7,379.1z"/>
			<path class="st2" d="M310.7,379.1L310.7,379.1L310.7,379.1z"/>
			<path class="st1" d="M310.7,379.1L310.7,379.1L310.7,379.1z"/>
		</g>
		<g>
			<path class="st1" d="M310.7,379.1L310.7,379.1L310.7,379.1z"/>
			<path class="st1" d="M310.7,379.1L310.7,379.1L310.7,379.1z"/>
		</g>
		<g>
			<path class="st1" d="M716.4,356.8c-19.7-25.9-43.8-47.2-71-63.4c-1.2-0.7-2.8-0.5-4,0.5l0,0c-1.5,1.5-1.1,3.8,0.5,5
				c50.3,32.6,89,85.1,98.1,155.2c18.6,142.4-80.9,261.3-220.8,261.7c-153.8,0.5-247.4-135.5-222.9-257.6c1.2-6.1,0.6-12,2.6-17.8
				c1.1-21.4,9.3-55.1,26.9-89.5c-17.7,9.2-40.2,38.1-51.4,64.9c-16.1,38.6-21.7,84.8-16.6,128.8c0.4,3.3,0.7,6.6,1.1,9.9
				c20.7,121.1,126.2,213.2,253.1,213c141.4-0.2,256.6-116.3,255.8-257.8C767.6,452.3,748.4,399.4,716.4,356.8z"/>
			<path class="st2" d="M716.4,356.8c-19.7-25.9-43.8-47.2-71-63.4c-1.2-0.7-2.8-0.5-4,0.5l0,0c-1.5,1.5-1.1,3.8,0.5,5
				c50.3,32.6,89,85.1,98.1,155.2c18.6,142.4-80.9,261.3-220.8,261.7c-153.8,0.5-247.4-135.5-222.9-257.6c1.2-6.1,0.6-12,2.6-17.8
				c1.1-21.4,9.3-55.1,26.9-89.5c-17.7,9.2-40.2,38.1-51.4,64.9c-16.1,38.6-21.7,84.8-16.6,128.8c0.4,3.3,0.7,6.6,1.1,9.9
				c20.7,121.1,126.2,213.2,253.1,213c141.4-0.2,256.6-116.3,255.8-257.8C767.6,452.3,748.4,399.4,716.4,356.8z"/>
			<path class="st1" d="M716.4,356.8c-19.7-25.9-43.8-47.2-71-63.4c-1.2-0.7-2.8-0.5-4,0.5l0,0c-1.5,1.5-1.1,3.8,0.5,5
				c50.3,32.6,89,85.1,98.1,155.2c18.6,142.4-80.9,261.3-220.8,261.7c-153.8,0.5-247.4-135.5-222.9-257.6c1.2-6.1,0.6-12,2.6-17.8
				c1.1-21.4,9.3-55.1,26.9-89.5c-17.7,9.2-40.2,38.1-51.4,64.9c-16.1,38.6-21.7,84.8-16.6,128.8c0.4,3.3,0.7,6.6,1.1,9.9
				c20.7,121.1,126.2,213.2,253.1,213c141.4-0.2,256.6-116.3,255.8-257.8C767.6,452.3,748.4,399.4,716.4,356.8z"/>
		</g>
		<g>
			<path class="st1" d="M716.4,356.8c-19.7-25.9-43.8-47.2-71-63.4c-1.2-0.7-2.8-0.5-4,0.5l0,0c-1.5,1.5-1.1,3.8,0.5,5
				c50.3,32.6,89,85.1,98.1,155.2c18.6,142.4-80.9,261.3-220.8,261.7c-153.8,0.5-247.4-135.5-222.9-257.6c1.2-6.1,0.6-12,2.6-17.8
				c1.1-21.4,9.3-55.1,26.9-89.5c-17.7,9.2-40.2,38.1-51.4,64.9c-16.1,38.6-21.7,84.8-16.6,128.8c0.4,3.3,0.7,6.6,1.1,9.9
				c20.7,121.1,126.2,213.2,253.1,213c141.4-0.2,256.6-116.3,255.8-257.8C767.6,452.3,748.4,399.4,716.4,356.8z"/>
			<path class="st1" d="M716.4,356.8c-19.7-25.9-43.8-47.2-71-63.4c-1.2-0.7-2.8-0.5-4,0.5l0,0c-1.5,1.5-1.1,3.8,0.5,5
				c50.3,32.6,89,85.1,98.1,155.2c18.6,142.4-80.9,261.3-220.8,261.7c-153.8,0.5-247.4-135.5-222.9-257.6c1.2-6.1,0.6-12,2.6-17.8
				c1.1-21.4,9.3-55.1,26.9-89.5c-17.7,9.2-40.2,38.1-51.4,64.9c-16.1,38.6-21.7,84.8-16.6,128.8c0.4,3.3,0.7,6.6,1.1,9.9
				c20.7,121.1,126.2,213.2,253.1,213c141.4-0.2,256.6-116.3,255.8-257.8C767.6,452.3,748.4,399.4,716.4,356.8z"/>
		</g>
		<g>
			<path class="st1" d="M746.3,447c-8.3-74.5-50.2-125.4-103.6-155.2c-8.9-5-20.2-2.8-26.6,5.1l-0.1,0.1
				c60.9,37.5,99.3,104,101.3,173.4c2.4,84.3-66.9,151.6-146.6,155.4c-58,2.8-112.6-25.1-139.3-81.2c-5.9-12.5-10.3-25.1-12.5-40.5
				c-12.6-85.2,44.7-157.9,97.3-176c-28.4-24.8-99.6-23-152.4,15.9c-38.1,28-62.9,70.6-71.1,121.4c-6.2,38.8-0.4,79,15,114.9
				c15.6,36.7,41,69,73.1,92.7c34.7,25.9,76.5,40.9,119.6,44.1c6.3,0.5,12.8,0.7,19.1,0.7C688.6,718,762.2,589.7,746.3,447z"/>
			<path class="st1" d="M746.3,447c-8.3-74.5-50.2-125.4-103.6-155.2c-8.9-5-20.2-2.8-26.6,5.1l-0.1,0.1
				c60.9,37.5,99.3,104,101.3,173.4c2.4,84.3-66.9,151.6-146.6,155.4c-58,2.8-112.6-25.1-139.3-81.2c-5.9-12.5-10.3-25.1-12.5-40.5
				c-12.6-85.2,44.7-157.9,97.3-176c-28.4-24.8-99.6-23-152.4,15.9c-38.1,28-62.9,70.6-71.1,121.4c-6.2,38.8-0.4,79,15,114.9
				c15.6,36.7,41,69,73.1,92.7c34.7,25.9,76.5,40.9,119.6,44.1c6.3,0.5,12.8,0.7,19.1,0.7C688.6,718,762.2,589.7,746.3,447z"/>
		</g>
		<g>
			<path class="st3" d="M746.3,447c-8.3-74.5-50.2-125.4-103.6-155.2c-8.9-5-20.2-2.8-26.6,5.1l-0.1,0.1
				c60.9,37.5,99.3,104,101.3,173.4c2.4,84.3-66.9,151.6-146.6,155.4c-58,2.8-112.6-25.1-139.3-81.2c-5.9-12.5-10.3-25.1-12.5-40.5
				c-12.6-85.2,44.7-157.9,97.3-176c-28.4-24.8-99.6-23-152.4,15.9c-38.1,28-62.9,70.6-71.1,121.4c-6.2,38.8-0.4,79,15,114.9
				c15.6,36.7,41,69,73.1,92.7c34.7,25.9,76.5,40.9,119.6,44.1c6.3,0.5,12.8,0.7,19.1,0.7C688.6,718,762.2,589.7,746.3,447z"/>
			<path class="st3" d="M746.3,447c-8.3-74.5-50.2-125.4-103.6-155.2c-8.9-5-20.2-2.8-26.6,5.1l-0.1,0.1
				c60.9,37.5,99.3,104,101.3,173.4c2.4,84.3-66.9,151.6-146.6,155.4c-58,2.8-112.6-25.1-139.3-81.2c-5.9-12.5-10.3-25.1-12.5-40.5
				c-12.6-85.2,44.7-157.9,97.3-176c-28.4-24.8-99.6-23-152.4,15.9c-38.1,28-62.9,70.6-71.1,121.4c-6.2,38.8-0.4,79,15,114.9
				c15.6,36.7,41,69,73.1,92.7c34.7,25.9,76.5,40.9,119.6,44.1c6.3,0.5,12.8,0.7,19.1,0.7C688.6,718,762.2,589.7,746.3,447z"/>
		</g>
		<g>
			<path class="st1" d="M616.3,296.6c-0.1,0.1-0.1,0.2-0.2,0.4c-7.3,9-5.8,22.2,3.1,29.6c38.4,31.5,64.1,76.2,64.1,127.8
				c0,71.3-55.2,125.7-119.9,121.8c-96.1-5.8-120.2-104-70.3-146.5c-13.5-2.8-38.8,2.7-56.5,29.1c-15.9,23.7-15,60.1-5.2,85.9
				c26.7,56,81.4,84.7,139.3,81.2c109.5-6.7,156.3-97,159.2-161.2c3.2-69.7-12.5-131.5-87.1-173.1
				C633.9,286.6,622.7,288.7,616.3,296.6z"/>
		</g>
		<g>
			<path class="st1" d="M716.4,356.8c-6.8-9-14.4-17.5-22.3-25.4c-6.3-6.7-13.1-12.9-20.3-18.7c4.1,3.6,8,7.4,11.9,11.4
				c13.9,15,24.9,32.7,31.2,52c13.4,40.4,12.5,91-13,130.6c-30.5,47.3-80,70.7-133.5,69.6c-2.4,0-4.6,0-6.9-0.1
				c-96.1-5.8-120.2-104-70.3-146.5c-13.5-2.8-38.8,2.7-56.5,29.1c-15.9,23.7-15,60.1-5.2,85.9c-5.9-12.5-10.3-25.1-12.5-40.5
				c-12.6-85.2,44.7-157.9,97.3-176c-28.4-24.8-99.6-23-152.4,15.9c-30.8,22.7-52.9,54.9-64.5,93.2c1.7-21.5,9.9-53.6,26.6-86.6
				c-17.7,9.2-40.2,38.1-51.4,64.9c-16.1,38.6-21.7,84.8-16.6,128.8c0.4,3.3,0.7,6.6,1.1,9.9c20.6,120.9,125.9,213,252.6,213
				c141.5,0,256.3-114.8,256.3-256.3C767.9,453.2,748.7,399.8,716.4,356.8z"/>
		</g>
		<g>
			<g>
				<path class="st1" d="M716.9,376.1c-6.4-19.3-17.3-37-31.2-52c-29.7-31.9-73.4-52.4-115.5-61.7c-35.4-7.8-72.6-7.7-106-0.6
					c-36.4,7.7-68.4,23.4-88.5,43c69.8-40.9,164-33.3,228.3,12.5c10.8,7.7,20.8,16.5,29.8,26.1c42.8,46.2,60.3,123.3,24.3,178.8
					c-18.1,28.1-57,54.4-93.2,54.1c55.6,3,107.5-20.6,138.9-69.5C729.4,467.1,730.2,416.5,716.9,376.1z"/>
			</g>
		</g>
		<g>
			<g>
				<path class="st1" d="M716.9,376.1c-6.4-19.3-17.3-37-31.2-52c-29.7-31.9-73.4-52.4-115.5-61.7c-35.4-7.8-72.6-7.7-106-0.6
					c-36.4,7.7-68.4,23.4-88.5,43c69.8-40.9,164-33.3,228.3,12.5c10.8,7.7,20.8,16.5,29.8,26.1c42.8,46.2,60.3,123.3,24.3,178.8
					c-18.1,28.1-57,54.4-93.2,54.1c55.6,3,107.5-20.6,138.9-69.5C729.4,467.1,730.2,416.5,716.9,376.1z"/>
			</g>
		</g>
	</g>
</g>
</svg>
