<?xml version="1.0" encoding="UTF-8" standalone="no"?>
<svg
   xmlns:dc="http://purl.org/dc/elements/1.1/"
   xmlns:cc="http://creativecommons.org/ns#"
   xmlns:rdf="http://www.w3.org/1999/02/22-rdf-syntax-ns#"
   xmlns:svg="http://www.w3.org/2000/svg"
   xmlns="http://www.w3.org/2000/svg"
   viewBox="0 0 1365.3333 1365.3333"
   height="1365.3333"
   width="1365.3333"
   xml:space="preserve"
   id="svg2"
   version="1.1"><metadata
     id="metadata8"><rdf:RDF><cc:Work
         rdf:about=""><dc:format>image/svg+xml</dc:format><dc:type
           rdf:resource="http://purl.org/dc/dcmitype/StillImage" /></cc:Work></rdf:RDF></metadata><defs
     id="defs6"><clipPath
       id="clipPath18"
       clipPathUnits="userSpaceOnUse"><path
         id="path16"
         d="M 0,1024 H 1024 V 0 H 0 Z" /></clipPath></defs><g
     transform="matrix(1.3333333,0,0,-1.3333333,0,1365.3333)"
     id="g10"><g
       id="g12"><g
         clip-path="url(#clipPath18)"
         id="g14"><g
           transform="translate(1024,512)"
           id="g20"><path
             id="path22"
             style="fill:#f68612;fill-opacity:1;fill-rule:nonzero;stroke:none"
             d="m 0,0 c 0,-282.77 -229.23,-512 -512,-512 -282.77,0 -512,229.23 -512,512 0,282.77 229.23,512 512,512 C -229.23,512 0,282.77 0,0" /></g><g
           transform="translate(764.0586,534.5327)"
           id="g24"><path
             id="path26"
             style="fill:#ffffff;fill-opacity:1;fill-rule:nonzero;stroke:none"
             d="m 0,0 c -0.662,4.639 -1.546,7.511 -1.546,7.511 0,0 -1.767,-2.209 -4.86,-6.185 -0.884,11.266 -2.871,22.532 -5.964,33.357 -3.977,13.696 -9.058,26.951 -15.464,39.543 -3.977,8.395 -8.616,16.568 -14.139,24.079 -2.872,4.419 -5.301,7.732 -5.743,8.395 -9.5,15.464 -20.103,24.742 -32.695,42.415 -7.953,13.475 -13.476,28.497 -16.126,43.961 -3.535,-9.278 -6.186,-18.998 -7.953,-28.718 -12.592,12.812 -23.859,22.091 -30.486,28.276 -33.136,30.928 -29.16,46.833 -29.16,46.833 0,0 -61.855,-68.924 -35.125,-140.72 9.279,-24.3 25.184,-45.728 46.17,-61.413 25.847,-21.208 53.682,-37.997 68.262,-81.074 -11.708,22.754 -29.603,41.531 -51.473,54.565 6.628,-15.685 9.942,-32.253 9.721,-49.263 0,-64.506 -52.356,-116.862 -117.083,-116.862 -8.615,0 -17.452,0.883 -25.847,2.872 -10.161,1.988 -19.882,5.302 -28.939,9.941 -13.696,8.174 -25.626,18.998 -34.904,32.031 v 0.222 c 1.105,-0.442 1.768,-0.663 1.988,-0.663 4.861,-1.768 9.72,-3.093 14.802,-3.977 19.881,-4.197 40.426,-1.766 58.762,6.849 18.556,10.383 29.823,17.894 38.88,15.022 9.058,-2.872 15.905,5.744 9.72,14.8 -11.045,14.36 -29.16,21.208 -46.833,18.116 -18.556,-2.652 -35.567,-15.685 -59.646,-3.093 -1.767,0.884 -3.092,1.767 -4.639,2.65 -1.546,1.106 5.302,-1.325 3.534,-0.22 -5.301,2.651 -10.382,5.523 -15.242,9.057 -0.221,0.221 3.755,-1.104 3.314,-0.884 -6.186,4.198 -11.709,9.72 -15.906,16.127 -4.197,7.732 -4.639,17.231 -1.105,25.405 2.43,4.197 5.744,7.29 9.941,9.278 3.093,-1.546 5.081,-2.651 5.081,-2.651 0,0 -1.546,2.651 -2.209,3.977 0.221,0.22 0.442,0 0.884,0.22 2.651,-1.104 8.615,-4.197 11.929,-6.185 2.209,-1.105 3.976,-2.872 5.523,-4.86 0,0 1.104,0.442 0.221,2.871 -1.105,2.873 -3.093,5.302 -5.744,6.849 h 0.442 c 2.43,-1.326 4.639,-2.651 6.848,-4.418 1.988,4.86 3.093,9.72 2.872,14.8 0.221,2.872 -0.221,5.744 -1.105,8.174 -0.883,1.768 0.442,2.43 1.988,0.663 -0.22,1.326 -0.662,2.651 -1.325,3.976 0,0 0.883,1.326 1.325,1.547 1.105,1.104 2.21,2.209 3.535,2.872 7.732,4.86 15.685,9.057 24.079,12.37 6.849,2.873 12.371,5.303 13.476,5.965 1.767,1.105 3.314,2.209 4.86,3.535 5.744,4.86 9.499,11.487 10.825,18.777 0.22,1.105 0.22,1.989 0.22,2.872 v 1.767 c -0.883,3.756 -7.29,6.407 -40.647,9.72 -11.709,1.768 -21.208,10.604 -23.858,22.312 v -0.22 c -0.442,-1.105 -0.884,-2.431 -1.326,-3.756 0.442,1.325 0.884,2.43 1.326,3.756 v 0.22 c 6.406,16.569 17.893,30.928 32.694,40.648 0.884,0.663 -3.314,-0.221 -2.43,0.442 2.651,1.325 5.523,2.65 8.616,3.755 1.546,0.442 -6.407,3.535 -13.476,2.872 -4.197,-0.221 -8.394,-1.326 -12.371,-2.872 1.767,1.326 6.628,3.093 5.523,3.093 -9.057,-1.547 -17.673,-4.86 -25.405,-9.499 0,0.883 0.221,1.546 0.442,2.209 -6.185,-2.651 -11.708,-6.848 -15.685,-12.15 v 2.872 c -2.871,-2.21 -5.302,-4.639 -7.731,-7.29 h -0.221 c -18.336,7.069 -38.218,8.836 -57.658,4.86 l -0.221,0.22 h 0.221 c -3.976,3.093 -7.511,7.07 -10.162,11.488 l -0.221,-0.221 -0.442,0.442 c -1.325,1.767 -2.43,3.976 -3.755,6.406 -1.105,1.547 -1.988,3.535 -3.093,5.523 0,0 0,0.221 -0.221,0.221 -0.221,0 -0.663,-1.988 -0.883,-1.325 -3.314,8.836 -5.082,18.335 -4.64,27.613 h -0.22 c -5.523,-3.755 -9.721,-9.057 -11.709,-15.464 -1.104,-2.208 -1.767,-3.313 -2.43,-4.639 v 0.663 l 0.663,3.314 c -0.221,-0.221 -0.221,-0.442 -0.442,-0.663 -1.546,-1.767 -2.872,-3.756 -3.976,-5.965 -1.105,-1.988 -1.989,-4.197 -2.651,-6.406 v 1.105 c 0,0.883 0.221,2.209 0,1.767 l -0.221,-0.663 c -7.069,-15.684 -11.708,-32.474 -13.255,-49.705 -0.442,-3.093 -0.442,-5.964 -0.442,-8.836 v -0.442 c -5.08,-5.523 -9.499,-11.488 -13.475,-17.894 -12.813,-21.649 -22.312,-45.066 -28.277,-69.587 4.198,9.279 9.279,18.336 15.243,26.731 -11.487,-28.94 -17.231,-59.426 -17.231,-90.353 1.988,9.057 4.419,17.894 7.29,26.73 -1.767,-36.45 5.302,-72.9 20.545,-106.258 20.544,-45.949 54.565,-84.608 97.863,-110.676 17.452,-11.929 36.672,-21.207 56.774,-27.393 2.651,-0.884 5.523,-1.988 8.174,-2.872 -0.884,0.442 -1.546,0.884 -2.43,1.105 23.858,-7.069 48.821,-10.825 73.785,-10.825 88.584,0 117.745,33.8 120.617,37.114 4.197,3.976 7.952,8.615 10.383,14.137 1.766,0.663 3.313,1.326 5.081,2.209 l 1.104,0.443 c 1.325,0.663 1.987,0.883 1.987,0.883 13.476,6.407 26.069,14.138 37.556,23.416 17.231,12.372 29.381,30.487 34.683,51.031 3.313,7.511 3.313,15.684 0.663,23.417 1.325,2.209 2.429,4.197 2.65,4.638 18.998,30.487 29.823,65.39 31.369,101.399 v 0.221 2.872 C 1.988,-15.243 1.326,-7.511 0,0" /></g></g></g></g></svg>