<svg xmlns="http://www.w3.org/2000/svg" viewBox="0 0 1024 1024" style="enable-background:new 0 0 1024 1024" xml:space="preserve">
   <circle cx="512" cy="512" r="512" style="fill:#00aeef"/>
   <path d="M646.7 683.3c-38.6 32.6-87 50.5-137.9 50.5-57.2 0-110.7-22.3-151.2-62.6C317.1 630.7 295 577 295 520c0-51.2 17.9-99.6 50.5-137.9L326 357.2c-38.6 43.3-62.1 100.5-62.1 163.1 0 135.4 109.6 244.9 244.9 244.9 62.6 0 119.8-23.5 163.1-62.1l-25.2-19.8zM441.5 316.9c21.4-7 44-10.7 67.2-10.7 57.2 0 110.7 22.3 151.2 62.6 40.5 40.5 62.6 94.2 62.6 151.2 0 23.3-3.7 45.8-10.7 67.2l24.2 24.2c11.4-28.1 17.7-59.1 17.7-91.4 0-135.4-109.6-244.9-244.9-244.9-32.3 0-63.3 6.3-91.4 17.7l24.1 24.1zm28.9 73.8L337.3 253.2l-20.7 32.3c-1.9 3-1.6 7 .7 9.8l115.4 148.2 37.7-52.8zm-43.3 181.6-53.5-40.2-9.8 16.5c-1.2 1.9-.9 4.2.7 5.8l45.1 48.9 17.5-31zm96.1-127-12.3-12.8 3.3-13c1.4-5.8 1.9-10.5 1.4-13.3-1.9-8.4-5.8-14.7-5.8-14.7L392.9 516.7s7.9 7.7 19.3-1.2c5.1-3.9 25.4-20.5 47-38.4l19.8 25.4 44.2-57.2zm113.9 112.2 3.3-13c1.2-4.4 1.9-8.1 1.4-10.7-1.4-8.4-4.7-14.7-4.7-14.7L512 635.8s7.7 7.9 19.5 0c5.8-3.9 30.5-21.2 55.1-38.8l147 114.5c2.8 2.3 6.7 2.6 9.8.7l32.3-20.7-138.6-134zm-180 45.3c18.8-14.4 45.1-34.7 68.6-52.8l26.5 20.7 43.5-52.8-14.4-14 4.7-16.5c2.3-8.4 3.3-14.9 2.6-18.8-2.3-12.1-7.7-20.9-7.7-20.9L408.7 619.8s5.4 4.4 16.5 0l48.6 44.9c1.6 1.4 3.9 1.6 5.8.7l16.5-9.8-39-52.8z" style="fill:#fff"/>
</svg>
