<?xml version="1.0" encoding="utf-8"?>
<!-- Generator: Adobe Illustrator 21.0.0, SVG Export Plug-In . SVG Version: 6.00 Build 0)  -->
<svg version="1.1" xmlns="http://www.w3.org/2000/svg" xmlns:xlink="http://www.w3.org/1999/xlink" x="0px" y="0px"
	 viewBox="0 0 1024 1024" style="enable-background:new 0 0 1024 1024;" xml:space="preserve">
<style type="text/css">
	.st0{display:none;}
	.st1{fill:#00AEEF;}
	.st2{fill:#FFFFFF;}
</style>
<g id="Guides" class="st0">
</g>
<g id="Icon">
	<circle class="st1" cx="512" cy="512" r="512"/>
	<path class="st2" d="M646.7,683.3c-38.6,32.6-87,50.5-137.9,50.5c-57.2,0-110.7-22.3-151.2-62.6C317.1,630.7,295,577,295,520
		c0-51.2,17.9-99.6,50.5-137.9l-19.5-24.9c-38.6,43.3-62.1,100.5-62.1,163.1c0,135.4,109.6,244.9,244.9,244.9
		c62.6,0,119.8-23.5,163.1-62.1L646.7,683.3z M441.5,316.9c21.4-7,44-10.7,67.2-10.7c57.2,0,110.7,22.3,151.2,62.6
		c40.5,40.5,62.6,94.2,62.6,151.2c0,23.3-3.7,45.8-10.7,67.2l24.2,24.2c11.4-28.1,17.7-59.1,17.7-91.4
		c0-135.4-109.6-244.9-244.9-244.9c-32.3,0-63.3,6.3-91.4,17.7L441.5,316.9z M470.4,390.7L337.3,253.2l-20.7,32.3
		c-1.9,3-1.6,7,0.7,9.8l115.4,148.2L470.4,390.7z M427.1,572.3l-53.5-40.2l-9.8,16.5c-1.2,1.9-0.9,4.2,0.7,5.8l45.1,48.9
		L427.1,572.3z M523.2,445.3l-12.3-12.8l3.3-13c1.4-5.8,1.9-10.5,1.4-13.3c-1.9-8.4-5.8-14.7-5.8-14.7L392.9,516.7
		c0,0,7.9,7.7,19.3-1.2c5.1-3.9,25.4-20.5,47-38.4l19.8,25.4L523.2,445.3z M637.1,557.5l3.3-13c1.2-4.4,1.9-8.1,1.4-10.7
		c-1.4-8.4-4.7-14.7-4.7-14.7L512,635.8c0,0,7.7,7.9,19.5,0c5.8-3.9,30.5-21.2,55.1-38.8l147,114.5c2.8,2.3,6.7,2.6,9.8,0.7
		l32.3-20.7L637.1,557.5z M457.1,602.8c18.8-14.4,45.1-34.7,68.6-52.8l26.5,20.7l43.5-52.8l-14.4-14l4.7-16.5
		c2.3-8.4,3.3-14.9,2.6-18.8c-2.3-12.1-7.7-20.9-7.7-20.9L408.7,619.8c0,0,5.4,4.4,16.5,0l48.6,44.9c1.6,1.4,3.9,1.6,5.8,0.7
		l16.5-9.8L457.1,602.8z"/>
</g>
</svg>
