<svg xmlns="http://www.w3.org/2000/svg" viewBox="0 0 1024 1024">
   <circle cx="512" cy="512" r="512" style="fill:#24165b"/>
   <path d="m508.16 256-.284.028a40.76 40.76 0 0 0-18.157 6.395c-8.395 5.395-14.803 13.456-19.532 22.205a87.548 87.548 0 0 0-2.234 4.453 109.69 109.69 0 0 0-4.906 12.776 122.95 122.95 0 0 0-2.48 9.174 150.79 150.79 0 0 0-2.22 11.77 183.628 183.628 0 0 0-1.582 15.136 220.184 220.184 0 0 0-.39 9.664 126.35 126.35 0 0 0 .212 11.11c.61 8.663 2.092 17.242 4.028 25.7a299.4 299.4 0 0 0 9.196 31.45 486.08 486.08 0 0 0 15.257 38.2 684.05 684.05 0 0 0 22.483 45.568l.61 1.127zm31.458.645 3.055 2.233c9.096 7.154 15.825 16.973 20.64 27.466a110.92 110.92 0 0 1 5.196 13.754c3.765 12.38 5.721 25.247 6.494 38.158a217.7 217.7 0 0 1 .355 9.629 122.91 122.91 0 0 1-.603 15.746c-.638 6.274-1.672 12.513-2.984 18.682-1.532 7.196-3.397 14.314-5.502 21.36a386.27 386.27 0 0 1-9.58 27.85 538.51 538.51 0 0 1-10.271 24.765 680.84 680.84 0 0 1-21.143 43.256 663.94 663.94 0 0 0 32.119-35.598 475.23 475.23 0 0 0 26.77-34.94c6.763-9.805 13.08-19.943 18.568-30.543a176.28 176.28 0 0 0 6.77-14.634 122.69 122.69 0 0 0 4.27-12.243 79.619 79.619 0 0 0 2.962-15.555c.185-2.354.2-4.722.142-7.076-.05-2.538-.177-5.07-.39-7.6a102.36 102.36 0 0 0-6.295-28.232 87.79 87.79 0 0 0-9.047-17.427 86.97 86.97 0 0 0-23.348-23.29c-6.749-4.58-14.087-8.253-21.716-11.067zm-215.28 48.183c-61.131 0-110.76 49.63-110.76 110.76v241.65c0 34.502 15.809 65.34 40.579 85.665 9.585 1.056 24.374 4.411 46.725-13.77l111.07-97.705c4.485-3.653 10.978-3.653 15.463 0l79.952 65.737 28.388-23.34c4.485-3.653 10.977-3.653 15.463 0l87.379 71.839c10.542 7.98 24.189 17.41 55.651 22.336h5.412c61.131 0 110.76-49.631 110.76-110.76V415.59c0-61.131-49.63-110.76-110.76-110.76h-68.72l1.302 3.247.994 2.928 2.892 10.543a5.03 5.03 0 0 1 .127.567l2.255 14.251.454 4.948.361 6.367.035 1.319-.135 7.11-.12 1.887-.382 3.07-1.986 11.357-.475 2.078-4.573 14.266a4.614 4.614 0 0 1-.15.403l-4.245 10.28-.156.34-5.552 11.082-9.692 16.888-5.148 7.87-6.181 9.238-4.353 5.97-8.629 11.535-5.87 7.388-8.685 10.572-6.083 7.11-9.352 10.53-6.02 6.607-17.404 18.17-4.049 4 2.389 2.035a106.07 106.07 0 0 1 9.507 9.962 82.408 82.408 0 0 1 2.574 3.296 63.088 63.088 0 0 1 2.546 3.694 55.462 55.462 0 0 1 2.325 4.013 46.045 46.045 0 0 1 2.07 4.495c1.39 3.516 2.333 7.238 2.68 10.996l.156 2.857a41.099 41.099 0 0 1-2.942 15.98 39.537 39.537 0 0 1-12.43 16.535 41.266 41.266 0 0 1-6.167 3.984 44.139 44.139 0 0 1-16.137 4.792h-.035a46.759 46.759 0 0 1-10.202-.092 45.072 45.072 0 0 1-9.367-2.133 42.38 42.38 0 0 1-8.287-3.914 40.278 40.278 0 0 1-8.324-6.778 39.544 39.544 0 0 1-7.897-12.38 41.131 41.131 0 0 1-2.929-14.194l.05-3.453a39.786 39.786 0 0 1 2.566-11.677 46.409 46.409 0 0 1 1.9-4.296 60.34 60.34 0 0 1 4.736-7.735 75.405 75.405 0 0 1 3.658-4.679 108.59 108.59 0 0 1 8.523-8.898l1.106-1 1.772-1.482-8.84-8.777-5.347-5.544-13.514-14.527-3.36-3.687-16.384-19.156-4.637-5.75-14.35-18.676-1.595-2.148-11.025-16.243-3.027-4.893-7.898-13.563-2.418-4.437-6.834-14.435-1.29-3.32-3.93-11.045-1.509-5.218-1.163-4.82-.978-5.233-.773-5.814-.311-3.714-.135-6.34.028-1.332.184-3.793 1.368-13.825.426-2.425 3.112-13.804.723-2.311 2.311-6.736.12-.283zm187.31 243.08c-.702.205-.71.204-1.32.608l-.879.795a76.824 76.824 0 0 0-3.58 3.545 62.938 62.938 0 0 0-5.019 5.97 32.969 32.969 0 0 0-1.375 2.049 26.471 26.471 0 0 0-1.128 2.013 17.419 17.419 0 0 0-1.325 3.538 10.292 10.292 0 0 0-.248 1.68l.064 2.098a15.039 15.039 0 0 0 .212 1.377 12.281 12.281 0 0 0 4.07 6.984l1.786 1.304a15.108 15.108 0 0 0 2.985 1.396 17.074 17.074 0 0 0 3.141.766l2.29.205 2.714-.085a16.973 16.973 0 0 0 7.225-2.375 12.537 12.537 0 0 0 5.942-9.762l.021-2.198c-.106-1.17-.432-2.318-.865-3.403a18.864 18.864 0 0 0-.844-1.844 29.241 29.241 0 0 0-1.162-2.006 46.106 46.106 0 0 0-3.14-4.268 67.868 67.868 0 0 0-2.758-3.128 81.665 81.665 0 0 0-4.177-4.132l-.58-.519c-.206-.134-.398-.296-.617-.403l-.702-.205zm151.96 58.277c14.343.138 26.104 11.896 26.246 26.24-.149 14.34-11.906 26.095-26.246 26.24-14.34-.145-26.095-11.901-26.24-26.24.137-14.343 11.898-26.102 26.24-26.24zm-119.67 92.424-75.886 63.85a24.308 24.308 0 0 1-15.462 5.545h183.79a24.666 24.666 0 0 1-15.552-5.544z" style="fill:#fff"/>
</svg>
