<svg viewBox="0 0 1024 1024" xml:space="preserve" xmlns="http://www.w3.org/2000/svg">
   <circle cx="512" cy="512" r="512" fill="#0073e6"/>
   <path d="M434.325 709.692V394.506h84.685v315.747h-84.685zm332.572-243.4h-77.395v129.552c0 12.899.561 21.311 1.122 26.92.56 5.047 2.804 9.534 6.73 13.46 3.926 3.925 10.095 5.608 18.507 5.608l48.232-1.122 3.925 67.3c-28.04 6.169-49.913 9.534-64.495 9.534-38.136 0-63.934-8.413-77.394-25.798-14.021-16.825-20.751-48.232-20.751-94.22v-291.07h84.685v87.49h77.395v72.346zm-459.88 24.116c-14.582 0-26.92-5.047-36.454-15.142-9.534-10.095-14.581-22.433-14.581-37.015s5.047-26.92 14.02-37.015c9.534-10.095 21.873-14.581 36.454-14.581 14.582 0 26.92 5.047 36.454 15.142 9.534 10.095 14.02 22.433 14.02 37.576 0 15.142-4.486 26.92-14.02 37.014-8.973 8.974-20.75 14.021-35.893 14.021z" fill="#fff"/>
</svg>
