<svg xmlns="http://www.w3.org/2000/svg" viewBox="0 0 1024 1024">
   <circle cx="512" cy="512" r="512" style="fill:#725794"/>
   <path d="M307.7 256.01c-5.07-.23-7.604 4.147-3.917 7.604 166.59 78.803 141.94 153.69 163.6 239.64 5.53 23.041 44.24 203.69 247.7 221.2 8.064.69 10.369-8.295 2.304-10.37-166.13-44.24-206.23-334.8-90.095-345.4 16.13-1.382 20.967 5.3 33.18 9.217a103.69 103.69 0 0 0 15.404 3.247c4.232 3.321 6.936 11.076 6.717 16.338-16.13-2.074-22.581-7.373-37.328-15.207 0 .23 10.37 11.983 20.048 19.356 18.434 13.825 34.563 30.416 44.932 46.084 5.069 7.604 6.219 8.523 6.68 5.528 1.382-9.217-2.303-41.704-17.28-63.133-2.1-2.729-2.468-5.616-2.693-7.857a103.69 103.69 0 0 0 .849.022c10.83-20.046-8.525-42.859-24.884-59.91 17.742-11.291 74.654-23.733 81.336-26.728 4.147-1.843 2.073-8.295-1.613-9.216-26.037 1.843-87.79 6.911-115.67 17.28-48.618-29.263-112.21-6.452-144.47 43.779-32.95-47.697-79.495-62.213-184.8-91.476zm273.28 45.163c24.885 0 24.195 10.368-8.064 21.198-38.71 12.673-70.97 44.011-80.187 73.735-3.687-5.3 14.516-85.716 88.25-94.933zm-258.79 247.93a13.666 13.666 0 0 0-13.681 13.681v13.681h-20.523c-11.33 0-20.523 9.19-20.523 20.52v20.523h191.54v-20.523c0-11.33-9.193-20.52-20.523-20.52h-20.52v-13.681a13.666 13.666 0 0 0-13.681-13.681 13.666 13.666 0 0 0-13.681 13.681v13.681h-54.724v-13.681a13.666 13.666 0 0 0-13.681-13.681zm400.55 31.593a22.472 22.472 0 0 0-22.473 22.471 22.472 22.472 0 0 0 22.473 22.473 22.472 22.472 0 0 0 22.471-22.473 22.472 22.472 0 0 0-22.471-22.471zm-455.27 50.493v116.29c0 11.33 9.193 20.52 20.523 20.52h150.49c11.33 0 20.523-9.19 20.523-20.52v-116.29zm441.26 15.583a18.15 18.15 0 0 0-18.151 18.148 18.15 18.15 0 0 0 18.151 18.151 18.15 18.15 0 0 0 18.151-18.151 18.15 18.15 0 0 0-18.151-18.148zm-407.06 11.779h13.681c3.762 0 6.842 3.077 6.842 6.84v13.68c0 3.763-3.08 6.842-6.842 6.842H301.67c-3.762 0-6.842-3.08-6.842-6.842v-13.68c0-3.763 3.08-6.84 6.842-6.84zm54.724 0h13.681c3.762 0 6.842 3.077 6.842 6.84v13.68c0 3.763-3.08 6.842-6.842 6.842h-13.681c-3.762 0-6.84-3.08-6.84-6.842v-13.68c0-3.763 3.078-6.84 6.84-6.84zm54.724 0h13.681c3.762 0 6.842 3.077 6.842 6.84v13.68c0 3.763-3.08 6.842-6.842 6.842h-13.681c-3.762 0-6.84-3.08-6.84-6.842v-13.68c0-3.763 3.078-6.84 6.84-6.84zm-109.45 54.724h13.681c3.762 0 6.842 3.08 6.842 6.842v13.68c0 3.763-3.08 6.84-6.842 6.84h-13.681c-3.762 0-6.842-3.077-6.842-6.84v-13.68c0-3.763 3.08-6.842 6.842-6.842zm54.724 0h13.681c3.762 0 6.842 3.08 6.842 6.842v13.68c0 3.763-3.08 6.84-6.842 6.84h-13.681c-3.762 0-6.84-3.077-6.84-6.84v-13.68c0-3.763 3.078-6.842 6.84-6.842zm54.724 0h13.681c3.762 0 6.842 3.08 6.842 6.842v13.68c0 3.763-3.08 6.84-6.842 6.84h-13.681c-3.762 0-6.84-3.077-6.84-6.84v-13.68c0-3.763 3.078-6.842 6.84-6.842z" style="fill:#fff"/>
</svg>
