<?xml version="1.0" encoding="utf-8"?>
<!-- Generator: Adobe Illustrator 21.0.0, SVG Export Plug-In . SVG Version: 6.00 Build 0)  -->
<svg version="1.1" xmlns="http://www.w3.org/2000/svg" xmlns:xlink="http://www.w3.org/1999/xlink" x="0px" y="0px"
	 viewBox="0 0 1024 1024" style="enable-background:new 0 0 1024 1024;" xml:space="preserve">
<style type="text/css">
	.st0{fill:#E2000B;}
	.st1{fill:#FFFFFF;}
</style>
<g id="Min_Guides__x28_DO_NOT_REMOVE_x29_">
</g>
<g id="Max_Guides__x28_DO_NOT_REMOVE_x29_">
</g>
<g id="Icon">
	<circle id="Background" class="st0" cx="512" cy="512" r="512"/>
	<path class="st1" d="M506,417.5v155.2h-45.8l-0.3-127l19.8-4.7l-5.8-23.4H506z M320.8,451.2c19-0.8,46.6-2.1,64,0
		c22.1,2.6,51.1,8.4,53.5,39.5c1.1,14.8-4,27.4-24.8,44l40.6,47.4c-10.8,11.1-23.2,21.9-36.1,32.4l-48.2-80.1
		c10.5-8.2,23.2-20,23.2-34c0-13.4-12.6-19.8-17.1-19.8h-9.7v130.7h-45.3V451.2z M559.5,610.8V488.1l-44.3,1.1v-40.6h134.9v40.6
		l-44-1.1v122.8H559.5z M654.6,449.9v-40.3c15.5,0,59.8-0.8,120.9,2.6l-64.5,119.9c14,0.3,33.7,0.8,60.6-1.1v40.3c0,0-120.9,0-123,0
		h-2.9l63.7-122.8C694.6,448.8,677.5,448.8,654.6,449.9z M303.4,435.1v14.5h-47.9V486l44-0.3v37.4H256v63h-47.2V412.7l94.6-1.8
		V435.1z M794.5,515.2l30.6,1.1l12.1-78.8l-37.9-3.2L794.5,515.2z M829,545.5l-23.9,19.4l-19.4-23.9l23.9-19.4L829,545.5z"/>
</g>
</svg>
