<?xml version="1.0" encoding="utf-8"?>
<!-- Generator: Adobe Illustrator 21.0.0, SVG Export Plug-In . SVG Version: 6.00 Build 0)  -->
<svg version="1.1" xmlns="http://www.w3.org/2000/svg" xmlns:xlink="http://www.w3.org/1999/xlink" x="0px" y="0px"
	 viewBox="0 0 1024 1024" style="enable-background:new 0 0 1024 1024;" xml:space="preserve">
<style type="text/css">
	.st0{fill:#F4633A;}
	.st1{fill:#FFFFFF;}
</style>
<g id="Min_Guides__x28_DO_NOT_REMOVE_x29_">
</g>
<g id="Max_Guides__x28_DO_NOT_REMOVE_x29_">
</g>
<g id="Icon">
	<circle id="Background" class="st0" cx="512" cy="512" r="512"/>
	<path class="st1" d="M567.1,523.7h-41.3v-68.8h41.3V523.7z M567.1,620h-41.3v-68.8h41.3V620z M498.3,523.7h-41.3v-68.8h41.3V523.7z
		 M498.3,620h-41.3v-68.8h41.3V620z M594.6,441.2c0-7.6-6.2-13.8-13.8-13.8H443.3c-7.6,0-13.8,6.2-13.8,13.8v222.4
		c26.5-1.5,54.2-2.3,82.5-2.3c28.3,0,56,0.8,82.5,2.5V441.2z M649.6,551.2h41.3V620h-41.3V551.2z M649.6,454.9h41.3v68.8h-41.3
		V454.9z M649.6,358.6h41.3v68.8h-41.3V358.6z M718.4,551.2h41.3V620h-41.3V551.2z M718.4,454.9h41.3v68.8h-41.3V454.9z
		 M718.4,358.6h41.3v68.8h-41.3V358.6z M622.1,344.9v320.7c64.1,5.1,120.9,14.7,164.9,27.2v-348c0-7.6-6.2-13.8-13.8-13.8H635.8
		C628.3,331.1,622.1,337.3,622.1,344.9 M374.5,620h-41.3v-68.8h41.3V620z M305.8,620h-41.3v-68.8h41.3V620z M250.8,523.7
		c-7.6,0-13.8,6.2-13.8,13.8v155.3c44-12.5,100.8-22.1,165-27.2v-128c0-7.6-6.2-13.8-13.8-13.8H250.8z"/>
</g>
</svg>
