<svg xmlns="http://www.w3.org/2000/svg" viewBox="0 0 1024 1024">
   <circle cx="512" cy="512" r="512" style="fill:#deb407"/>
   <path d="M567.73 625.15c-18.58-18.1-33.22-33.33-41.29-41.89 15.4-13.23 36.53-33.62 59.3-56.47a1019.39 1019.39 0 0 0 122.75 98.35zm-55.68 0h-28C496.18 613 506 603 512 596.56c6 6.44 15.81 16.47 27.9 28.59zm-55.79 0H315.51a1019.1 1019.1 0 0 0 122.74-98.35c22.77 22.84 43.9 43.24 59.29 56.47-8.05 8.54-22.69 23.73-41.27 41.88zM327 382.34h134.66C473 398.07 486 415 500.85 432.83a909.61 909.61 0 0 1-62.17 66.71C396 456.17 350.11 407.18 327 382.34zm92.15-106.9h185.71c-8.11 16.62-24.8 47.77-52.66 87.45h-80.4c-27.85-39.67-44.54-70.82-52.66-87.44zm66.71 106.9h52.3c-8 10.67-16.67 21.84-26.15 33.39a895.14 895.14 0 0 1-26.16-33.39zm85.8 131c-23.32 23.41-44.74 44-59.65 56.67-14.92-12.62-36.33-33.26-59.65-56.67 19.79-19.25 39.94-40.47 59.65-63.63 19.7 23.17 39.86 44.38 59.64 63.64zm125.34-131c-23.12 24.84-69 73.83-111.69 117.2a909.35 909.35 0 0 1-62.16-66.71C538 415 551 398.07 562.34 382.34zm49.54 244.11c-.91-.53-69-40.45-147.13-113.46 58.74-59.71 122.91-129.32 127-133.79a9.72 9.72 0 0 0-7.17-16.3H576c37.45-55.12 52.25-91.46 53.08-93.56A9.72 9.72 0 0 0 620 256H404a9.73 9.73 0 0 0-9 13.34c.84 2.1 15.63 38.44 53.09 93.56H304.72a9.72 9.72 0 0 0-7.17 16.3c4.13 4.48 68.29 74.09 127 133.79-78.09 73-146.22 112.94-147.13 113.46a9.72 9.72 0 0 0 4.87 18.13h153.62c-40.67 38-93 82.12-138.34 105a9.72 9.72 0 0 0 8.78 17.42c53.76-27.11 115.06-80.93 158-122.37h95.3c42.94 41.37 104.24 95.21 158 122.37a9.72 9.72 0 0 0 8.78-17.35c-45.37-22.9-97.67-67-138.34-105h153.58a9.72 9.72 0 0 0 4.88-18.13z" style="fill:#fff"/>
</svg>
