<svg xmlns="http://www.w3.org/2000/svg" viewBox="0 0 1024 1024">
   <circle cx="512" cy="512" r="512" style="fill:#f05f00"/>
   <path d="M559.32 492.24h.46a16.9 16.9 0 0 0 16.43-17.36 17.17 17.17 0 0 0-17.3-16.47H419.54a40.62 40.62 0 0 1 40.62-40.61h101.71a57.55 57.55 0 0 1 0 115.09H476.4a17.58 17.58 0 0 0-17.58 17.58v16.29h131l-21.55 40.62h-152V546.4a54.15 54.15 0 0 1 54.15-54.15ZM274.7 566.61a54.06 54.06 0 0 1 0-108.13l109.75-.08v-40.63l-112.34.08a94.69 94.69 0 0 0 0 189.38l112.34.09V492.24H262.59v40.62h79.35v33.84Zm461.57 29.19a11.53 11.53 0 0 1-11.52 11.53h-6.55a11.53 11.53 0 1 1 0-23.05h6.54a11.52 11.52 0 0 1 11.53 11.52Zm-11.76 6.71a6.71 6.71 0 0 0 0-13.42h-6.07a6.71 6.71 0 0 0 0 13.42h6.07Zm-45.72-6.71a11.53 11.53 0 0 1 11.53-11.52h13.17v4.82h-12.94a6.71 6.71 0 0 0 0 13.41h12.93v4.82h-13.17a11.53 11.53 0 0 1-11.53-11.52Zm89.36-11.53 8.54 23h-5.41l-6.3-17.7-5.61 15.43h-5.19l-5.61-15.43-6.3 17.7h-5.42l8.54-23h6.36l5 13.81 5-13.81Zm-98.45 19.9a3.15 3.15 0 1 0 3.15-3.15 3.15 3.15 0 0 0-3.16 3.16Zm88.8-164.55a46.88 46.88 0 0 0-13-15.78 36.32 36.32 0 0 0-22.11-7.17 34.59 34.59 0 0 0-21.53 7.17 46.85 46.85 0 0 0-13 15.78c-35.51 67.63-88.66 167.71-88.66 167.71h48.52l74.7-143.13 35.11 67.26h-54.12l19.06 36.39h54l20.6 39.47h48.51S794 507.26 758.5 439.62Z" style="fill:#fff"/>
</svg>
