<?xml version="1.0" encoding="utf-8"?>
<!-- Generator: Adobe Illustrator 21.0.0, SVG Export Plug-In . SVG Version: 6.00 Build 0)  -->
<svg version="1.1" xmlns="http://www.w3.org/2000/svg" xmlns:xlink="http://www.w3.org/1999/xlink" x="0px" y="0px"
	 viewBox="0 0 1024 1024" style="enable-background:new 0 0 1024 1024;" xml:space="preserve">
<style type="text/css">
	.st0{fill:#F05F00;}
	.st1{fill:#FFFFFF;}
</style>
<g id="Guides">
</g>
<g id="Icon">
	<circle class="st0" cx="512" cy="512" r="512"/>
	<g>
		<path class="st1" d="M470.5,492.2c-29.9,0-54.2,24.2-54.2,54.2c0,0,0,0,0,0v60.9h152l21.6-40.6h-131v-16.3
			c0-9.7,7.9-17.6,17.6-17.6l0,0h85.5c31.8,0,57.5-25.8,57.5-57.5c0-31.8-25.8-57.5-57.5-57.5l-101.7,0c-22.4,0-40.6,18.2-40.6,40.6
			h139.4c9.3-0.1,16.9,7.2,17.3,16.5c0.3,9.3-7.1,17.1-16.4,17.4c-0.2,0-0.3,0-0.5,0H470.5z"/>
		<path class="st1" d="M274.7,566.6c-29.9,0-54.1-24.2-54.1-54.1c0-29.9,24.2-54.1,54.1-54.1l109.8-0.1v-40.6l-112.3,0.1
			c-52.3,0-94.7,42.4-94.7,94.7c0,52.3,42.4,94.7,94.7,94.7l112.3,0.1V492.2H262.6v40.6h79.4v33.8L274.7,566.6z"/>
		<g>
			<path class="st1" d="M724.7,584.3h-6.5c-6.4,0-11.5,5.2-11.5,11.5c0,6.4,5.2,11.5,11.5,11.5c0,0,0,0,0,0h6.5
				c6.4,0,11.5-5.2,11.5-11.5C736.3,589.4,731.1,584.3,724.7,584.3z M724.5,602.5h-6.1c-3.7,0-6.7-3-6.7-6.7c0-3.7,3-6.7,6.7-6.7
				h6.1c3.7,0,6.7,3,6.7,6.7C731.2,599.5,728.2,602.5,724.5,602.5L724.5,602.5z M678.8,595.8c0,6.4,5.2,11.5,11.5,11.5h13.2v-4.8
				h-12.9c-3.7-0.1-6.6-3.2-6.5-6.9c0.1-3.5,2.9-6.4,6.5-6.5h12.9v-4.8h-13.2C683.9,584.3,678.8,589.4,678.8,595.8L678.8,595.8z
				 M761.8,584.3l-5,13.8l-5-13.8h-6.4l-8.5,23h5.4l6.3-17.7l5.6,15.4h5.2l5.6-15.4l6.3,17.7h5.4l-8.5-23H761.8z"/>
			<circle class="st1" cx="672.8" cy="604.2" r="3.2"/>
			<path class="st1" d="M758.5,439.6c-3.1-6.2-7.6-11.5-13-15.8c-6.4-4.7-14.2-7.3-22.1-7.2c-7.8-0.1-15.4,2.4-21.5,7.2
				c-5.5,4.2-9.9,9.6-13,15.8c-35.5,67.6-88.7,167.7-88.7,167.7h48.5l74.7-143.1l35.1,67.3h-54.1l19.1,36.4h54l20.6,39.5h48.5
				C846.6,607.3,794,507.3,758.5,439.6L758.5,439.6z"/>
		</g>
	</g>
</g>
</svg>
