<svg xmlns="http://www.w3.org/2000/svg" viewBox="0 0 1024 1024">
   <style>
      .st1{fill:#fff}
   </style>
   <g id="Icon">
      <circle cx="512" cy="512" r="512" style="fill:#f05f00"/>
      <path class="st1" d="M470.5 492.2c-29.9 0-54.2 24.2-54.2 54.2v60.9h152l21.6-40.6h-131v-16.3c0-9.7 7.9-17.6 17.6-17.6H562c31.8 0 57.5-25.8 57.5-57.5 0-31.8-25.8-57.5-57.5-57.5H460.3c-22.4 0-40.6 18.2-40.6 40.6h139.4c9.3-.1 16.9 7.2 17.3 16.5.3 9.3-7.1 17.1-16.4 17.4h-89.5zm-195.8 74.4c-29.9 0-54.1-24.2-54.1-54.1 0-29.9 24.2-54.1 54.1-54.1l109.8-.1v-40.6l-112.3.1c-52.3 0-94.7 42.4-94.7 94.7 0 52.3 42.4 94.7 94.7 94.7l112.3.1V492.2H262.6v40.6H342v33.8h-67.3zm450 17.7h-6.5c-6.4 0-11.5 5.2-11.5 11.5 0 6.4 5.2 11.5 11.5 11.5h6.5c6.4 0 11.5-5.2 11.5-11.5.1-6.4-5.1-11.5-11.5-11.5zm-.2 18.2h-6.1a6.7 6.7 0 0 1 0-13.4h6.1a6.7 6.7 0 0 1 0 13.4zm-45.7-6.7c0 6.4 5.2 11.5 11.5 11.5h13.2v-4.8h-12.9c-3.7-.1-6.6-3.2-6.5-6.9.1-3.5 2.9-6.4 6.5-6.5h12.9v-4.8h-13.2c-6.4 0-11.5 5.1-11.5 11.5zm83-11.5-5 13.8-5-13.8h-6.4l-8.5 23h5.4l6.3-17.7 5.6 15.4h5.2l5.6-15.4 6.3 17.7h5.4l-8.5-23h-6.4z"/>
      <circle class="st1" cx="672.8" cy="604.2" r="3.2"/>
      <path class="st1" d="M758.5 439.6c-3.1-6.2-7.6-11.5-13-15.8-6.4-4.7-14.2-7.3-22.1-7.2-7.8-.1-15.4 2.4-21.5 7.2-5.5 4.2-9.9 9.6-13 15.8-35.5 67.6-88.7 167.7-88.7 167.7h48.5l74.7-143.1 35.1 67.3h-54.1l19.1 36.4h54l20.6 39.5h48.5c0-.1-52.6-100.1-88.1-167.8z"/>
   </g>
</svg>
