<svg xmlns="http://www.w3.org/2000/svg" viewBox="0 0 1024 1024">
   <circle cx="512" cy="512" r="512" style="fill:#f9b80b"/>
   <path d="M559.14 227h98.93v65.95h33c.06 11-.1 22 .07 33h32.91c.05 11-.1 22 .07 33h32.91v233.2c-11 .06-22-.1-33 .07v65.88c-11 .05-22-.1-33 .07v32.91c-11 .05-22-.1-33 .07v32.91h-62.81c-1.06 0-2.1 0-3.15.08v32.91H358.91c-.06-11 .1-22-.07-33h-65.88c-.06-11 .1-22-.07-33h-32.91c-.06-11 .1-22-.07-33H227v-98.93h172c9.43-.05 18.85.1 28.28-.07v-32.91h96.52c.78 0 1.58 0 2.37-.07v-32.91c11-.06 22 .1 33-.07v-98.86c11-.06 22 .1 33-.07V292.94h-33q-.04-32.94-.03-65.94Zm33 33v32.91c11 .17 22 0 33 .07v-33Zm33 66v68.31h-33v98.93h-33v33h-33v33h-98.92v33H260v65.95h33v33h66v33h233.11v-33h65.95v-33h33v-65.95h33v-233.2H691v-33h-66Z" style="fill:#fff"/>
</svg>
