<?xml version="1.0" encoding="utf-8"?>
<!-- Generator: Adobe Illustrator 21.0.0, SVG Export Plug-In . SVG Version: 6.00 Build 0)  -->
<svg version="1.1" xmlns="http://www.w3.org/2000/svg" xmlns:xlink="http://www.w3.org/1999/xlink" x="0px" y="0px"
	 viewBox="0 0 1024 1024" style="enable-background:new 0 0 1024 1024;" xml:space="preserve">
<style type="text/css">
	.st0{fill:#11AAAA;}
	.st1{fill:#FFFFFF;}
</style>
<g id="Guides">
</g>
<g id="Icon">
	<circle class="st0" cx="512" cy="512" r="512"/>
	<path id="Icon_1_" class="st1" d="M657.2,374.4c-14.4-10.2-34.3-6.8-44.5,7.6c-12.5,17.7-26.3,30.8-42.1,39.8
		c-1.5,0.8-2.9,1.6-4.4,2.4c-1.4,0.7-2.8,1.4-4.2,2c-14.7,6.8-31.1,10.4-50,11c-18.9-0.6-35.3-4.1-50-11
		c-19.4-9-35.9-23.5-50.7-44.3c-10.2-14.4-30.1-17.8-44.5-7.6c-14.4,10.2-17.8,30.1-7.6,44.5c21,29.7,46.6,51.7,75.9,65.3
		c5.8,2.7,11.6,5,17.7,7.1c-24.9,18-51.9,43.2-64.8,77.8c-13.4,35.9-13.2,74.8,0.5,109.4c13.1,33.3,37.5,60.3,68.5,76.2
		c34.6,17.7,78.6,17.7,117.8,0.1c41.1-18.5,67.9-52.3,71.7-90.6c4-40.2-15.3-76.1-49.2-91.3c-35.1-15.8-74.7-4.5-100.8,28.6
		c-10.9,13.8-8.6,33.9,5.3,44.8c13.8,10.9,33.9,8.6,44.8-5.3c7.8-9.8,16.7-13.5,24.6-10c6.7,3,13.3,11.6,11.8,26.8
		c-1.5,15-14.7,29.8-34.4,38.7c-21.3,9.6-45.3,10.1-62.5,1.3c-17.2-8.8-30.8-24-38.2-42.8c-5.6-14.1-10.1-36.6,0-63.7
		c7.6-20.3,26.6-39.4,60-60.2c14.2-8.8,29.4-17,44.1-25c16.9-9.2,33-17.9,47.1-27.2c25.1-13.7,47.2-33.9,65.7-60.2
		C675,404.5,671.6,384.6,657.2,374.4L657.2,374.4z M494.9,314.4c4.1-4.1,9.5-6.3,15.3-6.3c5.8,0,11.2,2.3,15.3,6.3
		c4.1,4.1,6.3,9.5,6.3,15.3c0,5.8-2.3,11.2-6.3,15.3c-4.1,4.1-9.5,6.3-15.3,6.3c-5.8,0-11.2-2.3-15.3-6.3c-4.1-4.1-6.3-9.5-6.3-15.3
		C488.6,323.9,490.8,318.4,494.9,314.4z M510.2,403.3c19.7,0,38.2-7.7,52.1-21.6c13.9-13.9,21.6-32.4,21.6-52.1
		c0-19.7-7.7-38.2-21.6-52.1c-13.9-13.9-32.4-21.6-52.1-21.6c-19.7,0-38.2,7.7-52.1,21.6c-13.9,13.9-21.6,32.4-21.6,52.1
		c0,19.7,7.7,38.2,21.6,52.1C472.1,395.6,490.6,403.3,510.2,403.3z"/>
</g>
</svg>
