<?xml version="1.0" encoding="utf-8"?>
<!-- Generator: Adobe Illustrator 21.0.0, SVG Export Plug-In . SVG Version: 6.00 Build 0)  -->
<svg version="1.1" xmlns="http://www.w3.org/2000/svg" xmlns:xlink="http://www.w3.org/1999/xlink" x="0px" y="0px"
	 viewBox="0 0 1024 1024" style="enable-background:new 0 0 1024 1024;" xml:space="preserve">
<style type="text/css">
	.st0{fill:#663399;}
	.st1{fill:#FFFFFF;}
</style>
<g id="Min_Guides__x28_DO_NOT_REMOVE_x29_">
</g>
<g id="Max_Guides__x28_DO_NOT_REMOVE_x29_">
</g>
<g id="Icon">
	<circle id="Background" class="st0" cx="512" cy="512" r="512"/>
	<path class="st1" d="M512,256c-140.8,0-256,115.2-256,256s115.2,256,256,256s256-115.2,256-256S652.8,256,512,256z M369.4,654.6
		c-38.4-38.4-58.5-89.6-58.5-139l199.3,197.5C459,711.3,407.8,693,369.4,654.6z M555.9,707.7L316.3,468.1
		c20.1-89.6,100.6-157.3,195.7-157.3c67.7,0,126.2,32.9,162.7,82.3l-27.4,23.8c-31.1-42.1-80.5-69.5-135.3-69.5
		c-71.3,0-131.7,45.7-155.4,109.7l210.3,210.3c53-18.3,93.3-64,106.1-118.9h-87.8V512h128C713.1,607.1,645.5,687.5,555.9,707.7z"/>
</g>
</svg>
