<?xml version="1.0" encoding="utf-8"?>
<!-- Generator: Adobe Illustrator 21.0.0, SVG Export Plug-In . SVG Version: 6.00 Build 0)  -->
<svg version="1.1" xmlns="http://www.w3.org/2000/svg" xmlns:xlink="http://www.w3.org/1999/xlink" x="0px" y="0px"
	 viewBox="0 0 1024 1024" style="enable-background:new 0 0 1024 1024;" xml:space="preserve">
<style type="text/css">
	.st0{fill:#609926;}
	.st1{fill:#FFFFFF;}
</style>
<g id="Guides">
</g>
<g id="Icon">
	<circle class="st0" cx="512" cy="512" r="512"/>
	<g>
		<path class="st1" d="M762.2,350.3c-100.9,5.3-160.7,8-212,8.5v114.1l-16-7.9l-0.1-106.1c-58.9,0-110.7-3.1-209.1-8.6
			c-12.3-0.1-29.5-2.4-47.9-2.5c-47.1-0.1-110.2,33.5-106.7,118C175.8,597.6,296,609.9,344,610.9c5.3,24.7,61.8,110.1,103.6,114.6
			H631C740.9,717.3,823.3,351.7,762.2,350.3z M216.2,467.6c-4.7-36.6,11.8-74.8,73.2-73.2C296.1,462,307,501.5,329,561.9
			C272.8,554.5,225,536.2,216.2,467.6z M631.8,551.1l-51.3,105.6c-6.5,13.4-22.7,19-36.2,12.5l-105.6-51.3
			c-13.4-6.5-19-22.7-12.5-36.2l51.3-105.6c6.5-13.4,22.7-19,36.2-12.5l105.6,51.3C632.7,521.5,638.3,537.7,631.8,551.1z"/>
		<path class="st1" d="M555,609.9c0.1-0.2,0.2-0.3,0.2-0.5c17.2-35.2,24.3-49.8,19.8-62.4c-3.9-11.1-15.5-16.6-36.7-26.6
			c-0.8-0.4-1.7-0.8-2.5-1.2c0.2-2.3-0.1-4.7-1-7c-0.8-2.3-2.1-4.3-3.7-6l13.6-27.8l-11.9-5.8L519.1,501c-2,0-4.1,0.3-6.2,1
			c-8.9,3.2-13.5,13-10.3,21.9c0.7,1.9,1.7,3.5,2.8,5l-23.6,48.4c-1.9,0-3.8,0.3-5.7,1c-8.9,3.2-13.5,13-10.3,21.9
			c3.2,8.9,13,13.5,21.9,10.3c8.9-3.2,13.5-13,10.3-21.9c-0.9-2.5-2.3-4.6-4-6.3l23-47.2c2.5,0.2,5,0,7.5-0.9
			c2.1-0.8,3.9-1.9,5.5-3.3c0.9,0.4,1.9,0.9,2.7,1.3c17.4,8.2,27.9,13.2,30,19.1c2.6,7.5-5.1,23.4-19.3,52.3
			c-0.1,0.2-0.2,0.5-0.4,0.7c-2.2-0.1-4.4,0.2-6.5,1c-8.9,3.2-13.5,13-10.3,21.9c3.2,8.9,13,13.5,21.9,10.3
			c8.9-3.2,13.5-13,10.3-21.9C557.8,613.6,556.5,611.6,555,609.9z"/>
	</g>
</g>
</svg>
