<?xml version="1.0" encoding="UTF-8" standalone="no"?>
<svg
   xmlns:dc="http://purl.org/dc/elements/1.1/"
   xmlns:cc="http://creativecommons.org/ns#"
   xmlns:rdf="http://www.w3.org/1999/02/22-rdf-syntax-ns#"
   xmlns:svg="http://www.w3.org/2000/svg"
   xmlns="http://www.w3.org/2000/svg"
   viewBox="0 0 1365.3333 1365.3333"
   height="1365.3333"
   width="1365.3333"
   xml:space="preserve"
   id="svg2"
   version="1.1"><metadata
     id="metadata8"><rdf:RDF><cc:Work
         rdf:about=""><dc:format>image/svg+xml</dc:format><dc:type
           rdf:resource="http://purl.org/dc/dcmitype/StillImage" /></cc:Work></rdf:RDF></metadata><defs
     id="defs6"><clipPath
       id="clipPath18"
       clipPathUnits="userSpaceOnUse"><path
         id="path16"
         d="M 0,1024 H 1024 V 0 H 0 Z" /></clipPath></defs><g
     transform="matrix(1.3333333,0,0,-1.3333333,0,1365.3333)"
     id="g10"><g
       id="g12"><g
         clip-path="url(#clipPath18)"
         id="g14"><g
           transform="translate(1024,512)"
           id="g20"><path
             id="path22"
             style="fill:#1a1817;fill-opacity:1;fill-rule:nonzero;stroke:none"
             d="m 0,0 c 0,-282.77 -229.23,-512 -512,-512 -282.77,0 -512,229.23 -512,512 0,282.77 229.23,512 512,512 C -229.23,512 0,282.77 0,0" /></g><g
           transform="translate(511.8701,761.7881)"
           id="g24"><path
             id="path26"
             style="fill:#ffffff;fill-opacity:1;fill-rule:nonzero;stroke:none"
             d="m 0,0 c -141.512,0 -256.13,-114.682 -256.13,-256.13 0,-113.188 73.381,-209.173 175.129,-243.004 12.806,-2.411 17.502,5.507 17.502,12.316 0,6.084 -0.213,22.198 -0.32,43.543 -71.247,-15.454 -86.273,34.363 -86.273,34.363 -11.654,29.562 -28.495,37.459 -28.495,37.459 -23.201,15.881 1.793,15.56 1.793,15.56 25.72,-1.793 39.231,-26.381 39.231,-26.381 22.838,-39.166 59.956,-27.854 74.598,-21.301 2.305,16.562 8.9,27.853 16.221,34.257 -56.882,6.403 -116.667,28.43 -116.667,126.57 0,27.961 9.925,50.8 26.36,68.729 -2.882,6.467 -11.526,32.507 2.241,67.789 0,0 21.451,6.873 70.436,-26.253 20.49,5.698 42.261,8.516 64.032,8.644 21.772,-0.128 43.542,-2.946 64.032,-8.644 48.665,33.126 70.117,26.253 70.117,26.253 13.766,-35.282 5.122,-61.322 2.561,-67.789 16.328,-17.929 26.253,-40.768 26.253,-68.729 0,-98.396 -59.87,-120.061 -116.859,-126.356 8.965,-7.685 17.289,-23.394 17.289,-47.385 0,-34.279 -0.321,-61.813 -0.321,-70.137 0,-6.724 4.483,-14.728 17.609,-12.166 102.473,33.596 175.791,129.645 175.791,242.662 C 256.13,-114.682 141.447,0 0,0" /></g></g></g></g></svg>