<svg xmlns="http://www.w3.org/2000/svg" viewBox="0 0 1024 1024">
   <circle cx="512" cy="512" r="512" style="fill:#2c49cb"/>
   <path d="M346.21 512.57c0 131.09.41 238.47.83 238.47s41.9-23.16 72.23-40.39c2.62-1.52 7.58-4.27 11-6.2s12.54-7 20.4-11.58 14.75-8 15.44-8a2 2 0 0 0 1.65-1.1c.28-.55 5.38-3.86 11.44-7s22.19-12.41 35.84-20.12 37.22-21.09 52.38-29.64 29.77-16.82 32.39-18.33c11.17-6.34 70-39.56 75.12-42.32 3-1.65 12.41-6.89 20.68-11.72s18.33-10.2 22.05-12.41c26.6-14.75 50.31-28.53 50.31-29.36 0-.55-7.31-5-16.13-9.92-18.61-10.34-23.85-13.23-47.28-26.47-9.51-5.38-20.68-11.72-24.81-13.92s-8.13-4.55-9-5.1-4.82-2.89-9-5.24-16.54-9.24-27.57-15.44-22.61-13-25.78-14.75c-9.51-5.1-17-9.37-27.29-15.16-5.24-3-12.68-7.17-16.54-9.24s-15.3-8.68-25.78-14.75S519.47 372 518.65 372a2 2 0 0 1-1.79-1.1c-.14-.55-2.62-2.07-5.24-3.58-5.79-3-27.43-15.3-68.92-38.73-40.25-22.88-38-21.64-46.87-26.47-4.14-2.34-11.3-6.34-15.85-9s-9.24-5.1-10.34-5.65-4.27-2.34-6.89-3.86-7.44-4.41-10.61-6.2l-5.93-3.41z" style="fill:#fff"/>
</svg>
