<svg xmlns="http://www.w3.org/2000/svg" viewBox="0 0 1024 1024">
   <circle cx="512" cy="512" r="512" style="fill:#005187"/>
   <path d="M491.64 741.26C369.52 733 291.12 614.18 301.79 496.33L270 491.72c-.4 3.27-.8 6.78-1.18 10.49-13.21 127 76.28 244.5 206.71 263.25 123.06 17.7 239.18-58.65 262.43-174-27.71 100-127.25 157.92-246.28 149.84M619.56 267C712.65 312.92 758 422.67 721.84 527.78 682 643.55 558.38 710.16 444.58 677.67l-10.48 30.4c3.17 1 6.52 2 10.1 3 122.32 36.74 256.22-34.46 299-159.13 40.41-117.53-14.66-240.59-123.69-285M487 671.47c-81.2-10-143.51-79.75-144-167.35-.52-96.51 74.13-178.21 167.2-183.64l-.12-25.34c-2.6 0-5.37.18-8.31.34-100.55 4.51-181.58 92.37-181 196.22.56 97.93 73.55 175.11 166.22 179.77M567.81 286c89.32 36.56 136.11 136.85 105.39 224.88l23.44 9.6c1-2.43 1.91-5 2.87-7.77 34.42-94.57-15.56-203.13-111.66-242.45-90.66-37.1-190 .64-229.82 84.41 40.32-71.13 128.73-101.84 209.78-68.67M377.58 445.29c-.85 1.9-1.72 4-2.63 6.09-31.27 74 4.19 162.5 79.16 197.76 70.72 33.22 151.38 7.15 186.53-58-35 55.08-106.73 76-170 46.22C401 604.62 367.81 522.8 395.86 453.91l-18.28-8.62m184.3-87.75c35.83 9.89 64 35.54 78.24 68.74h-97.3l-29.7-94-30.41 94H382.42l81.74 60.86-31.78 96.41 80.73-59.37 80.7 59.37-31.43-96.41 78.56-59a129.21 129.21 0 0 1 8.09 67.6C638.91 566.49 575.32 618.16 506.57 612l-2.68 18.55c1.91.22 3.94.44 6.11.64 74.11 7.68 143.06-47.79 153.94-123.91 10.3-71.75-34.74-136.28-102.06-149.74" style="fill:#fff"/>
</svg>
