<svg xmlns="http://www.w3.org/2000/svg" viewBox="0 0 1024 1024">
   <circle cx="512" cy="512" r="512" style="fill:#004788"/>
   <path d="m736.57 506.55 50.05-83.34h-51.08l-26.62 42.26-28.64-42.26h-56l59 83.24-59 93.9h56L712.2 547l37.8 53.36h50Zm-185.08-83.34L513.5 518l-36-94.79h-45.4L401.95 600.6h45.87l14.84-102.21h.47l40.65 102.21h18.36l42.58-102.21h.56L578.2 600.6h46.11l-26.86-177.39Zm-233.82 78.46v36.06h37.56c-2 20.24-17.28 30.61-37.09 30.61-30.14 0-46.43-27.75-46.43-55.17s15.63-55.64 45.73-55.64c18.5 0 31.74 11.17 38.08 27.94L399 467.26c-15.17-32.87-43.24-49.16-79.49-49.16-56.76 0-95.5 37.56-95.5 94.79 0 55.45 38.5 93 93.9 93 29.44 0 55.4-10.52 72.59-34.56 15.45-21.79 17.56-43.95 18-69.68Z" style="fill:#fff"/>
</svg>
