<?xml version="1.0" encoding="utf-8"?>
<!-- Generator: Adobe Illustrator 21.0.0, SVG Export Plug-In . SVG Version: 6.00 Build 0)  -->
<svg version="1.1" xmlns="http://www.w3.org/2000/svg" xmlns:xlink="http://www.w3.org/1999/xlink" x="0px" y="0px"
	 viewBox="0 0 1024 1024" style="enable-background:new 0 0 1024 1024;" xml:space="preserve">
<style type="text/css">
	.st0{fill:#004788;}
	.st1{fill:#FFFFFF;}
</style>
<g id="Guides">
</g>
<g id="Icon">
	<circle class="st0" cx="512" cy="512" r="512"/>
	<g>
		<path id="path3685_1_" class="st1" d="M736.6,506.6l50.1-83.3h-51.1l-26.6,42.3l-28.6-42.3h-56l59,83.2l-59,93.9h56l31.9-53.4
			l37.8,53.4h50L736.6,506.6z M551.5,423.2l-38,94.8l-36-94.8h-45.4l-30.1,177.4h45.9l14.8-102.2h0.5l40.7,102.2h18.4l42.6-102.2
			h0.6l12.9,102.2h46.1l-26.9-177.4H551.5z M317.7,501.7v36.1h37.6c-2,20.2-17.3,30.6-37.1,30.6c-30.1,0-46.4-27.7-46.4-55.2
			s15.6-55.6,45.7-55.6c18.5,0,31.7,11.2,38.1,27.9l43.5-18.2c-15.2-32.9-43.2-49.2-79.5-49.2c-56.8,0-95.5,37.6-95.5,94.8
			c0,55.4,38.5,93,93.9,93c29.4,0,55.4-10.5,72.6-34.6c15.4-21.8,17.6-43.9,18-69.7H317.7z"/>
	</g>
</g>
</svg>
