<?xml version="1.0" encoding="UTF-8" standalone="no"?>
<svg
   xmlns:dc="http://purl.org/dc/elements/1.1/"
   xmlns:cc="http://creativecommons.org/ns#"
   xmlns:rdf="http://www.w3.org/1999/02/22-rdf-syntax-ns#"
   xmlns:svg="http://www.w3.org/2000/svg"
   xmlns="http://www.w3.org/2000/svg"
   viewBox="0 0 1365.3333 1365.3333"
   height="1365.3333"
   width="1365.3333"
   xml:space="preserve"
   id="svg2"
   version="1.1"><metadata
     id="metadata8"><rdf:RDF><cc:Work
         rdf:about=""><dc:format>image/svg+xml</dc:format><dc:type
           rdf:resource="http://purl.org/dc/dcmitype/StillImage" /></cc:Work></rdf:RDF></metadata><defs
     id="defs6"><clipPath
       id="clipPath18"
       clipPathUnits="userSpaceOnUse"><path
         id="path16"
         d="M 0,1024 H 1024 V 0 H 0 Z" /></clipPath></defs><g
     transform="matrix(1.3333333,0,0,-1.3333333,0,1365.3333)"
     id="g10"><g
       id="g12"><g
         clip-path="url(#clipPath18)"
         id="g14"><g
           transform="translate(1024,512)"
           id="g20"><path
             id="path22"
             style="fill:#2a449d;fill-opacity:1;fill-rule:nonzero;stroke:none"
             d="m 0,0 c 0,-282.77 -229.23,-512 -512,-512 -282.77,0 -512,229.23 -512,512 0,282.77 229.23,512 512,512 C -229.23,512 0,282.77 0,0" /></g><g
           transform="translate(317.668,522.3291)"
           id="g24"><path
             id="path26"
             style="fill:#ffffff;fill-opacity:1;fill-rule:nonzero;stroke:none"
             d="M 0,0 V -36.059 H 37.561 C 35.589,-56.295 20.283,-66.671 0.47,-66.671 c -30.143,0 -46.435,27.748 -46.435,55.168 0,27.42 15.634,55.638 45.73,55.638 18.499,0 31.739,-11.175 38.078,-27.937 L 81.32,34.416 C 66.155,67.282 38.078,83.574 1.831,83.574 c -56.764,0 -95.499,-37.561 -95.499,-94.795 0,-55.45 38.5,-93.01 93.903,-93.01 29.438,0 55.403,10.516 72.587,34.555 C 88.269,-47.891 90.381,-25.729 90.851,0 Z M 233.818,78.456 195.834,-16.339 159.823,78.456 H 114.421 L 84.278,-98.927 h 45.871 L 144.986,3.287 h 0.47 l 40.66,-102.214 h 18.358 L 247.059,3.287 h 0.563 L 260.533,-98.927 H 306.64 L 279.783,78.456 Z M 418.9,-4.883 468.951,78.456 H 417.868 L 391.246,36.2 362.605,78.456 H 306.64 L 365.658,-4.789 306.64,-98.691 h 55.965 l 31.928,53.383 37.843,-53.383 h 49.956 z" /></g></g></g></g></svg>