<?xml version="1.0" encoding="utf-8"?>
<!-- Generator: Adobe Illustrator 21.0.0, SVG Export Plug-In . SVG Version: 6.00 Build 0)  -->
<svg version="1.1" xmlns="http://www.w3.org/2000/svg" xmlns:xlink="http://www.w3.org/1999/xlink" x="0px" y="0px"
	 viewBox="0 0 1024 1024" style="enable-background:new 0 0 1024 1024;" xml:space="preserve">
<style type="text/css">
	.st0{fill:#1BDBDB;}
	.st1{fill:#FFFFFF;}
</style>
<g id="Guides">
</g>
<g id="Icon">
	<circle class="st0" cx="512" cy="512" r="512"/>
	<path class="st1" d="M697.6,315.9c-53.2-33.2-123.3-25.3-185.6,13.9c-62.4-39.3-132.4-47.2-185.6-13.9
		c-84.1,52.5-94.3,187.8-22.8,302.2c52.7,84.3,135.1,133.7,208.4,132.8c73.3,0.9,155.7-48.5,208.4-132.8
		C791.9,503.7,781.7,368.4,697.6,315.9 M342.2,594c-15-24.1-26.1-49.5-33-75.5c-6.5-24.5-8.9-48.5-7.1-71.2
		c3.2-42.3,20.4-75.2,48.4-92.7c28-17.5,65.2-18.6,104.5-2.9c5.9,2.4,11.8,5.1,17.6,8.1c-21,19-40.3,41.9-56.7,68.1
		c-43.4,69.5-56.6,146.7-41.5,208.4C362.6,623.5,351.8,609.3,342.2,594 M714.8,518.4c-6.9,26.1-17.9,51.5-33,75.5
		c-9.6,15.4-20.4,29.5-32.3,42.3c13.5-55.2,4.4-122.9-28.9-186.3c-2.3-4.5-7.7-5.9-12-3.3l-103.5,64.7c-4,2.5-5.2,7.7-2.7,11.7
		l15.2,24.3c2.5,4,7.7,5.2,11.7,2.7l67.1-41.9c2.2,6.4,4.3,12.9,6,19.5c6.5,24.5,8.9,48.5,7.1,71.2c-3.2,42.3-20.4,75.2-48.4,92.7
		c-14,8.8-30.3,13.4-48,13.9c-0.4,0-0.8,0-1.2,0c-0.3,0-0.7,0-1,0c-17.7-0.5-34-5.1-48-13.9c-28-17.5-45.2-50.4-48.4-92.7
		c-1.7-22.7,0.7-46.7,7.1-71.2c6.8-26.1,17.9-51.5,33-75.5c15-24.1,33-45.2,53.4-62.8c19.2-16.6,39.7-29.2,60.9-37.6
		c39.4-15.7,76.5-14.6,104.5,2.9c28,17.5,45.2,50.4,48.4,92.7C723.6,469.9,721.2,493.9,714.8,518.4"/>
</g>
</svg>
