<?xml version="1.0" encoding="utf-8"?>
<!-- Generator: Adobe Illustrator 21.0.0, SVG Export Plug-In . SVG Version: 6.00 Build 0)  -->
<svg version="1.1" xmlns="http://www.w3.org/2000/svg" xmlns:xlink="http://www.w3.org/1999/xlink" x="0px" y="0px"
	 viewBox="0 0 1024 1024" style="enable-background:new 0 0 1024 1024;" xml:space="preserve">
<style type="text/css">
	.st0{fill:#4285F4;}
	.st1{fill:#FFFFFF;}
</style>
<g id="Guides">
</g>
<g id="Icon">
	<circle class="st0" cx="512" cy="512" r="512"/>
	<path class="st1" d="M517.1,475.4v87.8h145.2c-5.9,37.7-43.9,110.4-145.2,110.4c-87.4,0-158.7-72.3-158.7-161.6
		s71.4-161.6,158.7-161.6c49.7,0,83,21.1,102.1,39.4l69.4-66.9C644,281.3,586.2,256,517.1,256c-141.5,0-256,114.5-256,256
		s114.5,256,256,256c147.8,0,245.8-103.9,245.8-250.2c0-16.8-1.8-29.7-4-42.4H517.1z"/>
</g>
</svg>
