<?xml version="1.0" encoding="UTF-8" standalone="no"?>
<svg
   xmlns:dc="http://purl.org/dc/elements/1.1/"
   xmlns:cc="http://creativecommons.org/ns#"
   xmlns:rdf="http://www.w3.org/1999/02/22-rdf-syntax-ns#"
   xmlns:svg="http://www.w3.org/2000/svg"
   xmlns="http://www.w3.org/2000/svg"
   viewBox="0 0 1365.3333 1365.3333"
   height="1365.3333"
   width="1365.3333"
   xml:space="preserve"
   id="svg2"
   version="1.1"><metadata
     id="metadata8"><rdf:RDF><cc:Work
         rdf:about=""><dc:format>image/svg+xml</dc:format><dc:type
           rdf:resource="http://purl.org/dc/dcmitype/StillImage" /></cc:Work></rdf:RDF></metadata><defs
     id="defs6"><clipPath
       id="clipPath18"
       clipPathUnits="userSpaceOnUse"><path
         id="path16"
         d="M 0,1024 H 1024 V 0 H 0 Z" /></clipPath></defs><g
     transform="matrix(1.3333333,0,0,-1.3333333,0,1365.3333)"
     id="g10"><g
       id="g12"><g
         clip-path="url(#clipPath18)"
         id="g14"><g
           transform="translate(1024,512)"
           id="g20"><path
             id="path22"
             style="fill:#5778c5;fill-opacity:1;fill-rule:nonzero;stroke:none"
             d="m 0,0 c 0,-282.77 -229.23,-512 -512,-512 -282.77,0 -512,229.23 -512,512 0,282.77 229.23,512 512,512 C -229.23,512 0,282.77 0,0" /></g><g
           transform="translate(517.1201,548.5864)"
           id="g24"><path
             id="path26"
             style="fill:#ffffff;fill-opacity:1;fill-rule:nonzero;stroke:none"
             d="M 0,0 V -87.787 H 145.194 C 139.328,-125.44 101.333,-198.166 0,-198.166 c -87.36,0 -158.699,72.299 -158.699,161.58 0,89.279 71.36,161.578 158.699,161.578 49.706,0 83.008,-21.098 102.08,-39.445 l 69.419,66.944 C 126.912,194.112 69.099,219.414 0,219.414 c -141.547,0 -256,-114.454 -256,-256 0,-141.547 114.453,-256 256,-256 147.755,0 245.76,103.872 245.76,250.154 0,16.811 -1.814,29.654 -4.032,42.432 z" /></g></g></g></g></svg>