<svg xmlns="http://www.w3.org/2000/svg" viewBox="0 0 1024 1024">
   <circle cx="512" cy="512" r="512" style="fill:#1d70b8"/>
   <path d="M349.18 414.95c13.89 6 30.56-.79 36.12-14.69a27.6 27.6 0 0 0-15.48-36.51 28 28 0 0 0-36.12 15.48c-5.56 13.89 1.19 29.77 15.48 35.72Zm-63.5 36.91c14.29 6 31-.79 36.51-14.69 6-14.29-.79-31-15.48-36.12a27.43 27.43 0 0 0-36.12 15.08 27.8 27.8 0 0 0 15.09 35.73Zm-18.26 70.25a27.6 27.6 0 1 0 20.64-51.2c-13.89-6-30.16 1.19-36.12 15.08a28.09 28.09 0 0 0 15.48 36.12Zm152-84.94A27.6 27.6 0 1 0 440.07 386c-14.29-6-30.16 1.19-36.12 15.08-5.16 14.26 1.59 30.54 15.48 36.09ZM675 414.95c-14.29 6-31-.79-36.12-14.69-6-14.29.79-31 15.08-36.51a27.68 27.68 0 1 1 21 51.2Zm63.11 36.91c-14.29 6-30.56-.79-36.12-14.69-6-14.29.79-31 14.69-36.12a27.87 27.87 0 0 1 36.51 15.08c5.98 13.87-1.19 29.77-15.05 35.73Zm18.65 70.25c-14.29 6-31-.79-36.51-15.08a27.17 27.17 0 0 1 15.48-36.12c14.29-6 30.56 1.19 36.51 15.08a28.81 28.81 0 0 1-15.45 36.12Zm-152.38-84.94c-14.29 6-31-.79-36.51-15.08s.79-30.56 15.48-36.12c14.29-6 30.56 1.19 36.51 15.08 5.56 14.29-1.19 30.57-15.48 36.12Zm-77.79-71.84L561.92 384v-52l-35.32 11.11a15.16 15.16 0 0 0-3.57-3.57l14.29-44.45h-50.8l13.89 44.45a30.31 30.31 0 0 0-3.57 3.57L461.9 332v52l34.93-18.65a30.31 30.31 0 0 0 3.57 3.57L480.55 430v.4A39.84 39.84 0 0 0 479 440a32.84 32.84 0 0 0 27.78 32.15h.79c1.19 0 2.78.4 4 .4a12.24 12.24 0 0 0 4-.4h.79c15.88-2.38 28.18-16.27 28.18-32.15a25.3 25.3 0 0 0-1.59-9.53V430l-20.24-61.12c1.5-.77 2.69-2.36 3.88-3.55ZM511.91 663.4c67.08 0 130.18 4.37 186.94 12.7 15.88-67.08 35.32-106 55.57-133l-38.1-13.49c4 19.45 4.37 28.58 0 40.48-6-5.56-11.91-17.07-16.67-34.53L681 596.72c11.11-7.94 19.84-12.7 29.77-13.1-17.46 37.31-39.69 47.23-54 44.45-17.07-3.18-25-18.26-22.23-31.35 4-18.65 22.62-23.42 31.75-2 17.07-34.53-11.91-45.25-30.16-34.93 28.18-28.58 31.35-53.58 8.33-83.75-31.75 24.21-32.15 48.82-17.86 82.55-18.65-21.43-48-9.92-37.71 24.61 13.49-20.64 31.35-7.94 28.58 12.3-2.38 17.07-25.4 31-53.58 28.58-40.88-3.57-43.26-31.75-44.45-54.77 9.92-2 28.18 7.14 43.66 29l5.16-65.09c-16.27 17.46-31.75 21-48.82 21.43 5.56-17.46 31.75-46 31.75-46h-81s25.4 28.58 31.35 46c-16.67-.4-31.75-4-48.82-21.43l5.56 65.09c15.48-21.83 33.74-30.56 43.26-29-1.19 23-3.57 50.8-44.06 54.77-28.48 2.41-51.15-11.48-53.48-28.55-2.78-19.84 15.08-32.94 28.18-12.3 10.72-34.53-18.26-46-37.31-24.61 14.69-33.74 14.29-58.34-18.26-82.55-23 30.16-19.84 55.17 8.73 83.75-18.65-10.32-47.23.4-30.56 34.93 9.13-21.83 28.18-16.67 32.15 2 2.78 13.1-5.16 28.18-22.62 31.35-13.89 2.78-35.72-7.14-53.58-44.45 9.92.4 18.65 5.16 29.77 13.1l-18.71-61.15c-4.76 17.46-10.72 28.58-17.07 34.53-4.37-11.91-3.57-21 0-40.48L267 543.14c19.84 27.39 39.29 66.28 55.57 133 58.76-8.37 122.26-12.74 189.34-12.74Z" style="fill:#fff"/>
</svg>
