<svg xmlns="http://www.w3.org/2000/svg" viewBox="0 0 1024 1024">
   <circle cx="512" cy="512" r="512" style="fill:#03c197"/>
   <path d="M512 802.08a290.08 290.08 0 1 1 205.12-85 288.17 288.17 0 0 1-205.12 85zm0-570.15c-154.43 0-280.08 125.64-280.08 280.08S357.57 792.08 512 792.08 792.08 666.43 792.08 512 666.43 231.92 512 231.92zm36.62 341c1.67 9.23 10.34 15.56 19.71 15.56h29.51l17.11-2.4c-27.37 40.2-74.9 58.69-126.86 50.53-42.3-6.64-78.64-35.29-94-75.31-34.81-90.82 31.46-177.54 117.81-177.54 45 0 84.49 26.35 107.1 58.22 6.52 9.19 17.93 11.84 26.6 5.82a18.9 18.9 0 0 0 5.68-25.09 165.22 165.22 0 0 0-150.81-76c-82.36 5.53-149 73-153.75 155.48-5.5 96 70.57 174.36 165.17 174.36a163.68 163.68 0 0 0 124.5-56.71l-3.59 20.1v18.17c0 9.37 6.31 18.06 15.53 19.72A19.11 19.11 0 0 0 671 659V550.21H567.38a19.11 19.11 0 0 0-18.76 22.67z" style="fill:#fff"/>
</svg>
