<svg xmlns="http://www.w3.org/2000/svg" viewBox="0 0 1024 1024">
   <circle cx="512" cy="512" r="512" style="fill:#2d535a"/>
   <path d="M420 440.78V273a256.08 256.08 0 0 1 254.55 41.14Zm-15.15 75.91-140.41-69.83a254.49 254.49 0 0 0-6.3 97.93l146.68 73ZM420 558.76l321.73-160a256.85 256.85 0 0 0-54.87-73.77L420 457.71ZM723.17 657A254.74 254.74 0 0 0 768 520.55L420 693.66V751a256.18 256.18 0 0 0 303.19-94ZM420 676.74l348-173.12q-.32-10-1.38-19.71-.76-6.92-1.89-13.73t-2.6-13.48A255 255 0 0 0 748 412.51L420 575.69ZM261.19 563.23A256.47 256.47 0 0 0 404.82 744.6V634.68Zm143.63-283.81a256.73 256.73 0 0 0-136 152.68l136 67.67Z" style="fill:#fff"/>
</svg>
