<svg xmlns="http://www.w3.org/2000/svg" viewBox="0 0 1024 1024">
   <style>
      .st1{fill:#fff}
   </style>
   <g id="Icon">
      <circle id="Background" cx="512" cy="512" r="512" style="fill:#72bf44"/>
      <path class="st1" d="M750.4 490.1c-15.3-30.8-39.8-56.5-68.4-75.3-41.5-27.2-91.5-40.2-140.9-39.3-21.1 0-42.3-.3-63.4.2.1 28.4 0 56.8 0 85.1h68.4v-17c29.4-.1 59.1 7.7 84 23.5 18.7 11.9 34.8 28.7 44 49 7.6 16.5 10.1 35.2 7.2 53.1-4.3 26.6-20.7 50.2-42 66.2-26.4 20.2-59.9 29.7-92.8 30.1h-68.8c.1 28.4 0 56.7 0 85.1 26.3 0 52.6.1 78.8-.1 45.6-1.9 91.1-15.7 128.9-41.5 28.2-19.2 52-45.3 66.5-76.3 9.6-20.1 15-42.2 15.9-64.4.9-27.1-5.2-54.3-17.4-78.4z"/>
      <path class="st1" d="M509.8 648.3h36.4v-19c-.1-50.5 0-101 0-151.4h-68.4v85.4c-9.3 0-18.6-1-27.7-2.4-32-5.5-63.1-20.5-84.3-45.4-13.5-15.7-22.6-35.5-24-56.2-1.9-22.9 5.6-46.1 19.5-64.3 16.9-22.7 42.1-38.3 69-46.4 16.7-5.3 34.3-7.1 51.8-7.1h64.2v-68.1c-26.3 0-52.5-.1-78.8 0-22.5.9-44.9 4.7-66.4 11.4-37.6 11.7-72.6 32.6-99.2 61.8-13 14.4-23.9 30.7-31.7 48.4-11.7 26.3-16.6 55.8-13.1 84.4 2.5 21.7 9.5 42.7 20.1 61.7 23 41.2 61.9 72.1 105.4 89.4 8 3.3 16.2 6.1 24.6 8.4 16.7 4.7 33.8 7.7 51.1 9.1 3.4.2 6.9.3 10.3.4h41.2z"/>
   </g>
</svg>
