<?xml version="1.0" encoding="utf-8"?>
<!-- Generator: Adobe Illustrator 21.0.0, SVG Export Plug-In . SVG Version: 6.00 Build 0)  -->
<svg version="1.1" xmlns="http://www.w3.org/2000/svg" xmlns:xlink="http://www.w3.org/1999/xlink" x="0px" y="0px"
	 viewBox="0 0 1024 1024" style="enable-background:new 0 0 1024 1024;" xml:space="preserve">
<style type="text/css">
	.st0{fill:#72BF44;}
	.st1{fill:#FFFFFF;}
</style>
<g id="Min_Guides__x28_DO_NOT_REMOVE_x29_">
</g>
<g id="Max_Guides__x28_DO_NOT_REMOVE_x29_">
</g>
<g id="Icon">
	<circle id="Background" class="st0" cx="512" cy="512" r="512"/>
	<g>
		<path class="st1" d="M750.4,490.1c-15.3-30.8-39.8-56.5-68.4-75.3c-41.5-27.2-91.5-40.2-140.9-39.3c-21.1,0-42.3-0.3-63.4,0.2
			c0.1,28.4,0,56.8,0,85.1c22.8,0,45.6,0,68.4,0c0-5.7,0-11.3,0-17c29.4-0.1,59.1,7.7,84,23.5c18.7,11.9,34.8,28.7,44,49
			c7.6,16.5,10.1,35.2,7.2,53.1c-4.3,26.6-20.7,50.2-42,66.2c-26.4,20.2-59.9,29.7-92.8,30.1c-22.9,0-45.9,0-68.8,0
			c0.1,28.4,0,56.7,0,85.1c26.3,0,52.6,0.1,78.8-0.1c45.6-1.9,91.1-15.7,128.9-41.5c28.2-19.2,52-45.3,66.5-76.3
			c9.6-20.1,15-42.2,15.9-64.4C768.7,541.4,762.6,514.2,750.4,490.1z"/>
		<path class="st1" d="M509.8,648.3h20.6h5.3h9.8h0.7h0v-0.1v-14.1v-4.8h0c-0.1-50.5,0-101,0-151.4c-22.8,0-45.6,0-68.4,0
			c0,28.5,0,56.9,0,85.4c-9.3,0-18.6-1-27.7-2.4c-32-5.5-63.1-20.5-84.3-45.4c-13.5-15.7-22.6-35.5-24-56.2
			c-1.9-22.9,5.6-46.1,19.5-64.3c16.9-22.7,42.1-38.3,69-46.4c16.7-5.3,34.3-7.1,51.8-7.1c21.4,0,42.8,0,64.2,0
			c0-22.7,0-45.4,0-68.1c-26.3,0-52.5-0.1-78.8,0c-22.5,0.9-44.9,4.7-66.4,11.4c-37.6,11.7-72.6,32.6-99.2,61.8
			c-13,14.4-23.9,30.7-31.7,48.4c-11.7,26.3-16.6,55.8-13.1,84.4c2.5,21.7,9.5,42.7,20.1,61.7c23,41.2,61.9,72.1,105.4,89.4
			c8,3.3,16.2,6.1,24.6,8.4c16.7,4.7,33.8,7.7,51.1,9.1c3.4,0.2,6.9,0.3,10.3,0.4h39.3H509.8z"/>
	</g>
</g>
</svg>
