<svg xmlns="http://www.w3.org/2000/svg" viewBox="0 0 1024 1024">
   <circle cx="512" cy="512" r="512" style="fill:#2cb0af"/>
   <path d="M744 293.27h-70.82c-32.68 0-59.21 28-59.21 62.41v62.19h71.38c32.37 0 58.65-27.7 58.65-61.82Zm-296.07 0h70.82c32.68 0 59.21 28 59.21 62.41v62.19h-71.38c-32.37 0-58.65-27.7-58.65-61.82ZM280 451.38h70.82c32.68 0 59.21 28 59.21 62.41V576h-71.38c-32.37 0-58.65-27.7-58.65-61.82Zm0 154.75h70.82c32.68 0 59.21 28 59.21 62.41v62.19h-71.38c-32.37 0-58.65-27.7-58.65-61.82Zm167.93-154.75h70.82c32.68 0 59.21 28 59.21 62.41V576h-71.38c-32.37 0-58.65-27.7-58.65-61.82Zm296.07 0h-70.82c-32.68 0-59.21 28-59.21 62.41V576h71.38c32.37 0 58.65-27.7 58.65-61.82ZM447.93 606.14h70.82c32.68 0 59.21 28 59.21 62.41v62.19h-71.38c-32.37 0-58.65-27.7-58.65-61.82Zm296.07 0h-70.82c-32.68 0-59.21 28-59.21 62.41v62.19h71.38c32.37 0 58.65-27.7 58.65-61.82Z" style="fill:#fff"/>
</svg>
