<svg xmlns="http://www.w3.org/2000/svg" viewBox="0 0 1024 1024">
   <circle cx="512" cy="512" r="512" style="fill:#00a2e5"/>
   <path d="M736.87 612.69V411.31A51.79 51.79 0 1 0 672 336.9H352a51.79 51.79 0 1 0-64.11 74.76v201.47A51.79 51.79 0 1 0 352.54 689h320.61a51.81 51.81 0 1 0 63.72-76.33zM664.59 656H361.1a51.79 51.79 0 0 0-40.1-46.31V413.88a51.46 51.46 0 0 0 14.37-6.22l129 118.07a51.81 51.81 0 1 0 102.3-2.06l124.84-114.29a51.46 51.46 0 0 0 14.16 5.17v194.9A51.81 51.81 0 0 0 664.59 656zM669 385.16 550.12 494a51.62 51.62 0 0 0-70.26 1.17L356.27 382a51.39 51.39 0 0 0 3-12.08h305.5a51.38 51.38 0 0 0 4.23 15.24z" style="fill:#fff"/>
</svg>
