<?xml version="1.0" encoding="utf-8"?>
<!-- Generator: Adobe Illustrator 21.0.0, SVG Export Plug-In . SVG Version: 6.00 Build 0)  -->
<svg version="1.1" xmlns="http://www.w3.org/2000/svg" xmlns:xlink="http://www.w3.org/1999/xlink" x="0px" y="0px"
	 viewBox="0 0 1024 1024" style="enable-background:new 0 0 1024 1024;" xml:space="preserve">
<style type="text/css">
	.st0{fill:#6AA509;}
	.st1{fill:#FFFFFF;}
</style>
<g id="Guides">
</g>
<g id="Icon">
	<circle class="st0" cx="512" cy="512" r="512"/>
	<g>
		<path class="st1" d="M256,256h512v512H256V256z M344.7,558.6h-22.9v-32h-27.4v88.7h27.4v-32h22.9v32H373v-88.7h-28.3V558.6z
			 M457.1,597c2.7-5.5,3.7-11.9,3.7-17.4v-13.7h-19.2v12.8l-21-22.9c-1.8-2.7-3.7-4.6-3.7-7.3c0-3.7,2.7-5.5,6.4-5.5
			c3.7,0,6.4,2.7,6.4,6.4v4.6h21v-5.5c0-13.7-11.9-22.9-28.3-22.9c-17.4,0-29.3,9.1-29.3,22.9c0,3.7,0.9,10.1,7.3,15.5
			c-8.2,3.7-16.5,11.9-16.5,24.7c0,17.4,13.7,29.3,38.4,29.3c8.2,0,16.5-2.7,21.9-6.4l3.7,4.6h24.7L457.1,597z M423.3,598.9
			c-6.4,0-14.6-3.7-14.6-11.9c0-4.6,2.7-8.2,6.4-10.1c0,0,14.6,16.5,17.4,19.2C430.6,597.9,427,598.9,423.3,598.9z M508.3,592.5h8.2
			l13.7,22.9h32L544.9,587c9.1-5.5,15.5-15.5,15.5-28.3c0-19.2-11.9-32.9-34.7-32.9h-44.8v88.7h27.4
			C508.3,614.4,508.3,592.5,508.3,592.5z M508.3,548.6h13.7c6.4,0,10.1,4.6,10.1,11c0,6.4-3.7,11-10.1,11h-13.7V548.6z M354.7,683
			c7.3-3.7,11.9-11,11.9-20.1c0-13.7-10.1-22.9-26.5-22.9h-45.7v88.7H341c20.1,0,31.1-10.1,31.1-25.6
			C372.1,693,365.7,685.7,354.7,683z M320.9,661h12.8c3.7,0,6.4,2.7,6.4,6.4c0,4.6-2.7,7.3-6.4,7.3h-12.8
			C320.9,674.7,320.9,661,320.9,661z M339.2,708.6h-18.3v-14.6h18.3c4.6,0,7.3,3.7,7.3,7.3S343.8,708.6,339.2,708.6z M411.4,640H384
			v88.7h63.1v-22.9h-35.7V640z M497.4,638.2c-27.4,0-42.1,16.5-42.1,40.2v11c0,23.8,14.6,40.2,42.1,40.2c27.4,0,42.1-16.5,42.1-40.2
			v-11C539.4,654.6,524.8,638.2,497.4,638.2z M512,692.1c0,10.1-5.5,15.5-14.6,15.5s-14.6-5.5-14.6-15.5v-14.6
			c0-10.1,5.5-15.5,14.6-15.5s14.6,5.5,14.6,15.5V692.1z M590.6,661.9c10.1,0,13.7,6.4,13.7,12.8h26.5
			c-0.9-20.1-14.6-36.6-39.3-36.6c-28.3,0-42.1,16.5-42.1,40.2v11.9c0,23.8,13.7,40.2,42.1,40.2c24.7,0,39.3-16.5,39.3-36.6h-26.5
			c-0.9,6.4-3.7,12.8-13.7,12.8c-9.1,0-13.7-6.4-13.7-15.5v-13.7C576.9,667.4,581.5,661.9,590.6,661.9z M725,640h-31.1l-18.3,31.1
			h-1.8V640h-27.4v88.7h27.4v-36.6h1.8l18.3,36.6h32.9l-25.6-48.5C701.3,680.2,725,640,725,640z M737.8,642.7h-2.7v6.4h1.8v-1.8
			l0.9,1.8h2.7l-0.9-1.8c0-0.9,0.9-1.8,0.9-2.7C740.6,642.7,739.7,642.7,737.8,642.7z M737.8,645.5l-0.9-0.9L737.8,645.5
			C737.8,644.6,737.8,644.6,737.8,645.5z M736.9,638.2c-4.6,0-7.3,3.7-7.3,7.3c0,3.7,2.7,7.3,7.3,7.3s7.3-3.7,7.3-7.3
			C745.1,641.8,741.5,638.2,736.9,638.2z M736.9,651c-3.7,0-5.5-2.7-5.5-5.5c0-3.7,1.8-5.5,5.5-5.5c3.7,0,5.5,2.7,5.5,5.5
			C743.3,649.1,740.6,651,736.9,651z"/>
		<rect x="728" y="634.8" class="st1" width="18.5" height="20"/>
	</g>
</g>
</svg>
