<svg xmlns="http://www.w3.org/2000/svg" viewBox="0 0 1024 1024" style="enable-background:new 0 0 1024 1024" xml:space="preserve">
   <style>
      .st1{fill:#fff}
   </style>
   <g id="Icon">
      <circle cx="512" cy="512" r="512" style="fill:#6aa509"/>
      <path class="st1" d="M256 256h512v512H256V256zm88.7 302.6h-22.9v-32h-27.4v88.7h27.4v-32h22.9v32H373v-88.7h-28.3v32zM457.1 597c2.7-5.5 3.7-11.9 3.7-17.4v-13.7h-19.2v12.8l-21-22.9c-1.8-2.7-3.7-4.6-3.7-7.3 0-3.7 2.7-5.5 6.4-5.5s6.4 2.7 6.4 6.4v4.6h21v-5.5c0-13.7-11.9-22.9-28.3-22.9-17.4 0-29.3 9.1-29.3 22.9 0 3.7.9 10.1 7.3 15.5-8.2 3.7-16.5 11.9-16.5 24.7 0 17.4 13.7 29.3 38.4 29.3 8.2 0 16.5-2.7 21.9-6.4l3.7 4.6h24.7L457.1 597zm-33.8 1.9c-6.4 0-14.6-3.7-14.6-11.9 0-4.6 2.7-8.2 6.4-10.1 0 0 14.6 16.5 17.4 19.2-1.9 1.8-5.5 2.8-9.2 2.8zm85-6.4h8.2l13.7 22.9h32L544.9 587c9.1-5.5 15.5-15.5 15.5-28.3 0-19.2-11.9-32.9-34.7-32.9h-44.8v88.7h27.4v-22zm0-43.9H522c6.4 0 10.1 4.6 10.1 11s-3.7 11-10.1 11h-13.7v-22zM354.7 683c7.3-3.7 11.9-11 11.9-20.1 0-13.7-10.1-22.9-26.5-22.9h-45.7v88.7H341c20.1 0 31.1-10.1 31.1-25.6 0-10.1-6.4-17.4-17.4-20.1zm-33.8-22h12.8c3.7 0 6.4 2.7 6.4 6.4 0 4.6-2.7 7.3-6.4 7.3h-12.8V661zm18.3 47.6h-18.3V694h18.3c4.6 0 7.3 3.7 7.3 7.3s-2.7 7.3-7.3 7.3zm72.2-68.6H384v88.7h63.1v-22.9h-35.7V640zm86-1.8c-27.4 0-42.1 16.5-42.1 40.2v11c0 23.8 14.6 40.2 42.1 40.2 27.4 0 42.1-16.5 42.1-40.2v-11c-.1-23.8-14.7-40.2-42.1-40.2zm14.6 53.9c0 10.1-5.5 15.5-14.6 15.5s-14.6-5.5-14.6-15.5v-14.6c0-10.1 5.5-15.5 14.6-15.5s14.6 5.5 14.6 15.5v14.6zm78.6-30.2c10.1 0 13.7 6.4 13.7 12.8h26.5c-.9-20.1-14.6-36.6-39.3-36.6-28.3 0-42.1 16.5-42.1 40.2v11.9c0 23.8 13.7 40.2 42.1 40.2 24.7 0 39.3-16.5 39.3-36.6h-26.5c-.9 6.4-3.7 12.8-13.7 12.8-9.1 0-13.7-6.4-13.7-15.5v-13.7c0-10 4.6-15.5 13.7-15.5zM725 640h-31.1l-18.3 31.1h-1.8V640h-27.4v88.7h27.4v-36.6h1.8l18.3 36.6h32.9l-25.6-48.5c.1 0 23.8-40.2 23.8-40.2zm12.8 2.7h-2.7v6.4h1.8v-1.8l.9 1.8h2.7l-.9-1.8c0-.9.9-1.8.9-2.7.1-1.9-.8-1.9-2.7-1.9zm0 2.8-.9-.9.9.9c0-.9 0-.9 0 0zm-.9-7.3c-4.6 0-7.3 3.7-7.3 7.3 0 3.7 2.7 7.3 7.3 7.3s7.3-3.7 7.3-7.3c.9-3.7-2.7-7.3-7.3-7.3zm0 12.8c-3.7 0-5.5-2.7-5.5-5.5 0-3.7 1.8-5.5 5.5-5.5s5.5 2.7 5.5 5.5c.9 3.6-1.8 5.5-5.5 5.5z"/>
      <path class="st1" d="M728 634.8h18.5v20H728z"/>
   </g>
</svg>
