<?xml version="1.0" encoding="utf-8"?>
<!-- Generator: Adobe Illustrator 21.0.0, SVG Export Plug-In . SVG Version: 6.00 Build 0)  -->
<svg version="1.1" xmlns="http://www.w3.org/2000/svg" xmlns:xlink="http://www.w3.org/1999/xlink" x="0px" y="0px"
	 viewBox="0 0 1024 1024" style="enable-background:new 0 0 1024 1024;" xml:space="preserve">
<style type="text/css">
	.st0{fill:#8AC53E;}
	.st1{fill:#FFFFFF;}
</style>
<g id="Min_Guides__x28_DO_NOT_REMOVE_x29_">
</g>
<g id="Max_Guides__x28_DO_NOT_REMOVE_x29_">
</g>
<g id="Icon">
	<circle id="Background" class="st0" cx="512" cy="512" r="512"/>
	<path id="Hack_The_Box_logo_vector_recreation_by_krisu" class="st1" d="M512,256l-243.5,88.1v13.4l0,0v310h0.2l-0.3,0.7v9.4
		L512.8,768l242.7-90.3v-9.5l-0.1-0.3h0.1V359.1v-3.8v-9.6L512,256z M512,276.5l206,75.9l-205.3,75.8L306.1,351L512,276.5z
		 M287.8,364.7l216.4,80.8h-1.2v298.3l-215.3-79.6V364.7z M512.7,747.5l-0.8-0.3h1.6L512.7,747.5z M736.2,664.3l-213.9,79.6V445.6
		h-1.1l215-79.4V664.3z"/>
</g>
</svg>
