<?xml version="1.0" encoding="utf-8"?>
<!-- Generator: Adobe Illustrator 21.0.0, SVG Export Plug-In . SVG Version: 6.00 Build 0)  -->
<svg version="1.1" xmlns="http://www.w3.org/2000/svg" xmlns:xlink="http://www.w3.org/1999/xlink" x="0px" y="0px"
	 viewBox="0 0 1024 1024" style="enable-background:new 0 0 1024 1024;" xml:space="preserve">
<style type="text/css">
	.st0{fill:#05F91C;}
	.st1{fill:#FFFFFF;}
</style>
<g id="Min_Guides__x28_DO_NOT_REMOVE_x29_">
</g>
<g id="Max_Guides__x28_DO_NOT_REMOVE_x29_">
</g>
<g id="Icon">
	<circle id="Background" class="st0" cx="512" cy="512" r="512"/>
	<path id="HackNotice_logo__x28_vector_by_krisu_x29_" class="st1" d="M716.2,267v38.9v412.8V757h-38.9h-68.7H581l-66.6-161.9h43.7
		l50.6,123.6h68.7V305.9h-57.4v177.3h-0.1h-40H442h-39.4v-40v-96.3l39.4,96.3h137.9V305.9V267h40h57.4H716.2z M346.6,757h57.4h40
		v-38.9V580.8H582l39.4,96.3v-96.3v-40H582H444.1h-40h-0.1v177.3h-57.4V305.3h68.7l50.6,123.6h43.7L443,267h-27.7h-68.7h-38.9v38.3
		v412.8V757H346.6z"/>
</g>
</svg>
