<svg xmlns="http://www.w3.org/2000/svg" viewBox="0 0 1024 1024">
   <circle cx="512" cy="512" r="512" style="fill:#ec1075"/>
   <path d="M195.23 427a4.82 4.82 0 0 1 2.62 4.19V548c0 1.48-.91 2.84-2.71 4.08a10.71 10.71 0 0 1-6.26 1.88 10.19 10.19 0 0 1-6.25-1.88c-1.7-1.25-2.55-2.6-2.55-4.08V431.13a4.86 4.86 0 0 1 2.46-4.18 11.43 11.43 0 0 1 6.34-1.61 12 12 0 0 1 6.35 1.61m14.64 61.35c-1.07 1-1.52 2.51-1.33 4.58a10 10 0 0 0 2.81 5.85 11 11 0 0 0 5.73 3.51c2.12.48 3.74.22 4.8-.77l9.41-5.87V548c0 1.48.82 2.83 2.47 4.08a9.78 9.78 0 0 0 6.16 1.88 11 11 0 0 0 6.42-1.88c1.81-1.25 2.71-2.6 2.71-4.08v-70.45a4.76 4.76 0 0 0-2.62-4.16 12.09 12.09 0 0 0-6.51-1.61 10.89 10.89 0 0 0-6.26 1.61l-23.78 14.91m58.68 60.11q6.27 5.76 16 5.75 14.06 0 25.27-13.16v5.9a5.15 5.15 0 0 0 2.35 4.16 9.21 9.21 0 0 0 5.68 1.76 10.21 10.21 0 0 0 6.11-1.76 5.11 5.11 0 0 0 2.44-4.16v-42.31q0-14-8.3-23.36t-25.53-9.36a46.17 46.17 0 0 0-17.15 3.2q-8.14 3.21-8.13 7.59a11.25 11.25 0 0 0 1.75 6.15 5.3 5.3 0 0 0 4.61 2.79 42.12 42.12 0 0 0 5.95-2.79 27.37 27.37 0 0 1 12.64-2.81q8.38 0 12.47 5.52a21.38 21.38 0 0 1 4.09 13.12v3.12h-7.36q-19.08 0-29.13 5.32t-10 18.79c-.04 7.22 2.06 12.74 6.24 16.54Zm15.23-26.63a18.08 18.08 0 0 1 8.54-3.54 90.86 90.86 0 0 1 12.3-.67h4.18v6.23c0 4.06-1.92 7.86-5.77 11.47s-7.89 5.4-12.13 5.4a11.16 11.16 0 0 1-7.87-2.79c-2-1.86-3-4.57-3-8.17a9.43 9.43 0 0 1 3.75-7.93Zm57.84-1.18q0 15.16 8.71 24.36t26.11 9.2q11 0 18.74-4.06t7.7-8.76a9.2 9.2 0 0 0-2.08-5.72 6.58 6.58 0 0 0-5.43-2.71c-.69 0-2.72.91-6.12 2.71a24.22 24.22 0 0 1-11.46 2.71q-18.59 0-18.59-17.75v-15.1q0-17.75 18.42-17.75a25.14 25.14 0 0 1 11.29 2.53c3.41 1.68 5.39 2.53 5.95 2.53a6.08 6.08 0 0 0 4.94-2.87 9.74 9.74 0 0 0 2.09-5.74c0-3.14-2.46-6-7.37-8.51s-11-3.79-18.25-3.79q-17.25 0-25.94 9.28t-8.71 24.27v15.17m74.16 26.3c0 1.47.81 2.81 2.43 4.06a9.73 9.73 0 0 0 6.11 1.85 10.81 10.81 0 0 0 6.35-1.85c1.79-1.25 2.68-2.59 2.68-4.06v-21.07l12.23-11.12 24.61 36.58a5.59 5.59 0 0 0 4.68 2.52c2.12 0 4.3-1 6.53-3s3.36-4 3.36-6a5.52 5.52 0 0 0-1-3l-26.3-38.1 21.6-19.39a5.06 5.06 0 0 0 1.5-3.71 7.85 7.85 0 0 0-2.84-5.74 8.4 8.4 0 0 0-5.73-2.67 5 5 0 0 0-3.68 1.53l-35 32.37v-75a4.7 4.7 0 0 0-2.59-4.12 12 12 0 0 0-6.44-1.61 10.71 10.71 0 0 0-6.19 1.61 4.79 4.79 0 0 0-2.34 4.12v115.8m86.38-2q10.88 9.28 28 9.28c7.81 0 14.41-1.42 19.75-4.24s8-5.65 8-8.43a8.81 8.81 0 0 0-2-5.24 5.89 5.89 0 0 0-4.86-2.7q-1.32 0-7.45 3.22a27.37 27.37 0 0 1-13 3.22q-9.72 0-15.75-5a16.69 16.69 0 0 1-6-13.51v-3.91h35.32a41.31 41.31 0 0 0 5.69-.34 16 16 0 0 0 4.69-1.65 7.73 7.73 0 0 0 3.68-4.46 24.44 24.44 0 0 0 1.18-8.34 28.41 28.41 0 0 0-9.8-22.14 34.07 34.07 0 0 0-23.52-8.77 34.5 34.5 0 0 0-24.61 9.69q-10.21 9.71-10.21 23v16q.04 15.02 10.93 24.3Zm6.69-43.93a14.25 14.25 0 0 1 5-11.19 17.68 17.68 0 0 1 12.05-4.4A16.75 16.75 0 0 1 538 490a15 15 0 0 1 4.85 11.27c0 2-.4 3.33-1.25 4s-2.48 1-4.93 1h-27.8Zm64.79 45.95c0 1.47.81 2.81 2.43 4.06a9.75 9.75 0 0 0 6.13 1.85 10.82 10.82 0 0 0 6.34-1.85c1.79-1.23 2.68-2.58 2.68-4v-34.54q0-10.92 6.12-17.82c4.07-4.6 8.8-6.9 14.13-6.9h5.38a5.94 5.94 0 0 0 4.67-2.39 8.43 8.43 0 0 0 2-5.61 8.13 8.13 0 0 0-2-5.54 6 6 0 0 0-4.67-2.3h-5.38a21 21 0 0 0-12.62 4.18 26.54 26.54 0 0 0-8.63 10.13v-7.5a4.89 4.89 0 0 0-2.34-4.18 9.69 9.69 0 0 0-5.67-1.62 10.8 10.8 0 0 0-6.13 1.61 4.76 4.76 0 0 0-2.43 4.12v68.28m64.37-2.6q9.54 9.69 22.1 9.68 12.72 0 22.35-9.68t9.62-22.35v-18.37a29.9 29.9 0 0 0-9.54-22.25 31.12 31.12 0 0 0-22.42-9.33 32 32 0 0 0-31.64 31.54v18.37q0 12.67 9.53 22.39Zm1.35-40.66a21.07 21.07 0 0 1 6.1-14.77 19.38 19.38 0 0 1 14.66-6.54 19.88 19.88 0 0 1 14.81 6.54 20.76 20.76 0 0 1 6.28 14.77v18.26a21.58 21.58 0 0 1-6.2 15.17 19.67 19.67 0 0 1-14.9 6.62 19.23 19.23 0 0 1-14.66-6.62 21.72 21.72 0 0 1-6.1-15.18Zm66.07 44.78a4 4 0 0 0 1.5 3 5.54 5.54 0 0 0 3.85 1.35 5.93 5.93 0 0 0 3.85-1.35 3.9 3.9 0 0 0 1.69-3v-44.73q0-9.58 6-15.48a19.35 19.35 0 0 1 13.89-5.89 19.63 19.63 0 0 1 14.8 6.56 21 21 0 0 1 6.2 14.81v44.74a3.62 3.62 0 0 0 1.68 3.18 6.2 6.2 0 0 0 3.67 1.2 6.53 6.53 0 0 0 3.86-1.2 3.67 3.67 0 0 0 1.68-3.2v-44.83a31 31 0 0 0-8.88-22.25q-8.92-9.33-20.98-9.33a24.81 24.81 0 0 0-13.72 3.77 24.24 24.24 0 0 0-8.71 9.23v-7.86a3.6 3.6 0 0 0-1.5-2.91 5.48 5.48 0 0 0-3.52-1.21 6.35 6.35 0 0 0-3.85 1.11 3.46 3.46 0 0 0-1.5 2.94v71.32m85.26-3.28c6.68 5.92 15.34 8.85 25.94 8.85 7.14 0 13.12-1.27 17.91-3.78s7.21-5 7.21-7.35a5.57 5.57 0 0 0-1.44-3.45 4.11 4.11 0 0 0-3.26-1.77 6.78 6.78 0 0 0-3.6 1.69 28.66 28.66 0 0 1-6.52 3.37 26.65 26.65 0 0 1-10 1.7q-11.22 0-18.35-6t-7.11-15.94v-6.23h37.84a34.8 34.8 0 0 0 5.53-.34 16.32 16.32 0 0 0 4.42-1.52 7.13 7.13 0 0 0 3.53-4 21.92 21.92 0 0 0 1.09-7.57 29 29 0 0 0-9.29-22 32.22 32.22 0 0 0-44.63.42 29.61 29.61 0 0 0-9.36 21.85v18.87q.03 14.37 10.08 23.22Zm.83-43.37a19.54 19.54 0 0 1 6.11-14.41 20.3 20.3 0 0 1 14.82-6 19.54 19.54 0 0 1 15 6.36 20.89 20.89 0 0 1 5.95 14.74c0 2.34-.56 3.89-1.67 4.61s-3.34 1.09-6.7 1.09h-33.52Z" style="fill:#fff;fill-rule:evenodd"/>
</svg>
