<?xml version="1.0" encoding="utf-8"?>
<!-- Generator: Adobe Illustrator 21.0.0, SVG Export Plug-In . SVG Version: 6.00 Build 0)  -->
<svg version="1.1" xmlns="http://www.w3.org/2000/svg" xmlns:xlink="http://www.w3.org/1999/xlink" x="0px" y="0px"
	 viewBox="0 0 1024 1024" style="enable-background:new 0 0 1024 1024;" xml:space="preserve">
<style type="text/css">
	.st0{fill:#9FEF00;}
	.st1{fill:#FFFFFF;}
</style>
<g id="Min_Guides__x28_DO_NOT_REMOVE_x29_">
</g>
<g id="Max_Guides__x28_DO_NOT_REMOVE_x29_">
</g>
<g id="Icon">
	<circle id="Background" class="st0" cx="512" cy="512" r="512"/>
	<path class="st1" d="M506.5,256.6c2.9-0.8,5.9-0.7,8.9-0.4c3.8,0.4,7,2.8,10.3,4.6c66.5,38.4,133,76.9,199.6,115.3
		c6.4,3.2,11.1,10,10.7,17.4c0,79.3,0,158.5,0,237.7c0.2,6.7-4,12.9-9.7,16c-67.9,39.2-135.8,78.5-203.7,117.7
		c-6.1,4-14.5,4.1-20.7,0.3c-66.7-38.5-133.3-77-200-115.6c-3.3-2-6.9-3.6-9.4-6.6c-3.1-3.4-4.7-8-4.5-12.6c0-79.3,0-158.5,0-237.8
		c-0.2-6.6,4-12.8,9.6-15.9c67.1-38.7,134.1-77.5,201.1-116.2C501.3,259.1,503.7,257.4,506.5,256.6z M510.4,304.1
		c-1.5,0.2-2.8,1-4.1,1.7c-46.2,26.7-92.4,53.3-138.5,80.1c-5.5,3.1-5.5,12.1,0.2,15.1c46.3,26.9,92.7,53.6,139.1,80.4
		c2.9,1.9,6.9,1.9,9.8,0c46.4-26.8,92.8-53.5,139.1-80.4c5.6-3,5.7-12,0.1-15.1c-46.3-26.8-92.7-53.6-139.1-80.4
		C515.1,304.2,512.7,303.7,510.4,304.1z M336.5,442.4c-3.5,1.3-5.8,5.1-5.6,8.8c0,53.3,0,106.6,0,159.9c-0.1,3.6,2.1,6.9,5.2,8.5
		c46.2,26.7,92.3,53.4,138.5,80c5.7,3.5,13.6-1.4,13.2-8c0-53.3,0-106.7,0-160c0.1-3.3-1.6-6.5-4.4-8.2
		c-46.2-26.7-92.4-53.4-138.6-80.1C342.4,441.8,339.2,441.1,336.5,442.4z M681.3,442.3c-4.1,1.9-7.8,4.4-11.8,6.6
		c-42.8,24.7-85.6,49.5-128.4,74.2c-3.2,1.6-5.1,5-5,8.6c0,53.3,0,106.6,0,159.9c-0.4,6.6,7.5,11.5,13.2,8.1
		c46.2-26.7,92.4-53.4,138.5-80c3.1-1.5,5.4-4.9,5.2-8.4c0-53.6,0-107.2,0-160.8C693.1,444.7,686.6,440.1,681.3,442.3z"/>
</g>
</svg>
