<svg xmlns="http://www.w3.org/2000/svg" viewBox="0 0 1024 1024">
   <circle cx="512" cy="512" r="512" style="fill:#430098"/>
   <path d="M695.72 256H328.3a45.88 45.88 0 0 0-46.09 46.09V722a45.89 45.89 0 0 0 46.09 46.07h367.42A45.89 45.89 0 0 0 741.79 722V302.09A45.85 45.85 0 0 0 695.72 256Zm20.48 466a20.25 20.25 0 0 1-20.48 20.48H328.3A20.23 20.23 0 0 1 307.82 722V302.09a20.24 20.24 0 0 1 20.48-20.5h367.42a20.25 20.25 0 0 1 20.48 20.5Zm-318.77-30.75L455 640.06l-57.61-51.21Zm207.4-207.37c-10.22-10.24-29.42-23-61.43-23-34.59 0-70.43 9-96 17.92V332.81h-51.23v221.48L432 537.65s58.89-26.88 110.1-26.88c25.6 0 32 14.08 32 26.88v153.62h51.21V537.65c1.28-3.82 1.28-32.03-20.48-53.77ZM537 416h51.21c23-26.88 34.57-53.79 38.41-83.21H575.4c-5.14 29.45-17.94 56.35-38.4 83.21Z" style="fill:#fff"/>
</svg>
