<?xml version="1.0" encoding="utf-8"?>
<!-- Generator: Adobe Illustrator 21.0.0, SVG Export Plug-In . SVG Version: 6.00 Build 0)  -->
<svg version="1.1" xmlns="http://www.w3.org/2000/svg" xmlns:xlink="http://www.w3.org/1999/xlink" x="0px" y="0px"
	 viewBox="0 0 1024 1024" style="enable-background:new 0 0 1024 1024;" xml:space="preserve">
<style type="text/css">
	.st0{fill:#430098;}
	.st1{fill:#FFFFFF;}
</style>
<g id="Guides">
</g>
<g id="Icon">
	<circle class="st0" cx="512" cy="512" r="512"/>
	<g>
		<title>Heroku icon</title>
		<path class="st1" d="M695.7,256H328.3c-25.6,0-46.1,20.5-46.1,46.1V722c0,25.6,20.5,46.1,46.1,46.1h367.4
			c25.6,0,46.1-20.5,46.1-46.1V302.1C741.8,276.5,721.3,256,695.7,256z M716.2,722c0,11.5-9,20.5-20.5,20.5H328.3
			c-11.5,0-20.5-9-20.5-20.5V302.1c0-11.5,9-20.5,20.5-20.5h367.4c11.5,0,20.5,9,20.5,20.5L716.2,722z M397.4,691.2l57.6-51.2
			l-57.6-51.2V691.2z M604.8,483.9c-10.2-10.2-29.4-23-61.4-23c-34.6,0-70.4,9-96,17.9V332.8h-51.2v221.5l35.8-16.6
			c0,0,58.9-26.9,110.1-26.9c25.6,0,32,14.1,32,26.9v153.6h51.2V537.6C626.6,533.8,626.6,505.6,604.8,483.9z M537,416h51.2
			c23-26.9,34.6-53.8,38.4-83.2h-51.2C570.3,362.2,557.5,389.1,537,416z"/>
	</g>
</g>
</svg>
