<svg xmlns="http://www.w3.org/2000/svg" viewBox="0 0 1024 1024"><defs><style>.cls-1{fill:#b7236a;}.cls-2{fill:#fff;isolation:isolate;}</style></defs><g id="Icon"><circle id="Background" class="cls-1" cx="512" cy="512" r="512"/><path class="cls-2" d="M463.42,684.12c-79,19.48-102.79-46.52-102.79-46.52-5.44-23.83,12.76-124.65-14.06-143.91-20-15.24-44.2,4.74-49.71,9.73,0,0-19.89,25.62-30.36,47.61-16.36,33.07-29.91,56.32-40.73,72.64-5.14-35-6.4-87.08-2.55-155.95,9.43-157.23-83.69-159.1-89.52-159.06h-.29c6.49,119-5.41,278.08-5.41,278.08,0,50.86,1.08,88.73,41.12,112.53,37.21,22.21,64.83,8.72,82-7.69a62.32,62.32,0,0,0,12.08-12.87c4.33-4.33,32.53-60.72,32.53-60.76.41,6.43,1.08,13,2.1,19.65,8.65,55.18,49.77,71.41,49.77,71.41a76.35,76.35,0,0,0,14.12,4.49c3.49.75,12.56,1.7,13.67,1.75s11.84-.17,15.78-.66c2-.25,3.89-.55,5.73-.89s17.76-4.85,19.83-5.67c4.13-1.63,8.78-3.78,9.33-4,13.07-5.28,30.17-14.26,38.39-18.83A1.06,1.06,0,0,0,463.42,684.12ZM245.49,696.31c1.65-1.29,3.22-2.63,4.72-4l.29-.22A65.21,65.21,0,0,1,245.49,696.31Zm245.84-72.72H500c-9.74,23.81-27.06,48.69-62.76,48.69-30.3,0-51.94-17.31-51.94-60.59,0-30.29,11.9-74.66,56.27-74.66,33.54,0,34.62,24.89,34.62,30.3,0,31.38-26,47.61-51.94,49.77,0,23.81,6.5,32.46,26,32.46C471.85,650.64,481.59,638.74,491.33,623.59ZM445.88,551.1c-11.9,0-20.55,24.89-21.64,53,17.32-1.08,31.38-17.31,31.38-36.79C455.62,556.51,450.21,551.1,445.88,551.1ZM553,530.54c17.32,68.17,22.73,79,22.73,105,0,28.13-24.89,36.78-44.37,36.78-31.37,0-46.52-21.64-46.52-38.95,0-9.74,4.32-16.23,9.74-19.47,9.73-26,17.31-51.94,20.55-77.91Zm-46.52,106c-2.17,0-6.49-1.08-7.58-3.25,2.17,11.9,8.66,18.4,20.56,18.4,9.74,0,18.4-4.33,18.4-18.4,0-18.39-3.25-27.05-14.07-67.08-3.25,16.23-8.66,32.46-14.07,48.69,4.33,2.16,7.58,5.41,7.58,10.82C516.22,631.17,513,636.58,506.48,636.58ZM653.63,433.16v57.35h21.64v14.06H653.63v108.2c0,20.56,4.33,24.89,18.39,24.89q8.12,0,9.74-3.25V642c0,19.47-13,30.29-31.38,30.29-36.78,0-49.77-22.72-49.77-56.26V504.57h-11.9V490.51h11.9V440.73Zm61.67,48.69a21.7,21.7,0,0,1,21.64,21.64c0,11.9-9.73,20.56-21.64,20.56a20.54,20.54,0,0,1-20.55-20.56C694.75,491.59,703.4,481.85,715.3,481.85Zm19.48,56.26v89.81c0,15.15,3.25,18.4,14.07,18.4s17.31-9.74,18.39-23.81h10.82c-5.41,43.28-30.3,48.69-45.44,48.69-27,0-36.79-16.23-36.79-41.11V537h38.95Zm141.74,0v89.81c0,15.15,3.25,18.4,14.07,18.4a9.69,9.69,0,0,0,5.41-1.09c-3.25,19.48-7.57,27-22.72,27-17.31,0-26-9.73-29.22-23.8-5.41,11.9-15.14,23.8-34.62,23.8-22.72,0-46.53-15.14-46.53-61.67,0-32.46,14.07-73.58,50.86-73.58,8.65,0,20.56,1.08,24.88,14.07v-13Zm-74.65,70.34c0,37.87,13,37.87,19.47,37.87,7.58,0,17.31-7.58,17.31-22.73V564.08c-1.08-3.24-4.32-9.73-13-9.73C808.36,553.26,801.87,585.72,801.87,608.45Z"/></g></svg>