<?xml version="1.0" encoding="utf-8"?>
<!-- Generator: Adobe Illustrator 21.0.0, SVG Export Plug-In . SVG Version: 6.00 Build 0)  -->
<svg version="1.1" xmlns="http://www.w3.org/2000/svg" xmlns:xlink="http://www.w3.org/1999/xlink" x="0px" y="0px"
	 viewBox="0 0 1024 1024" style="enable-background:new 0 0 1024 1024;" xml:space="preserve">
<style type="text/css">
	.st0{fill:#D50C2D;}
	.st1{fill:#FFFFFF;}
</style>
<g id="Guides">
</g>
<g id="Icon">
	<circle class="st0" cx="512" cy="512" r="512"/>
	<g id="HETZNER">
		<path class="st1" d="M822.2,523.2c6.1-1.1,11.9-3.6,16.9-7.4l0,0c4.5-4.8,6.8-11.2,6.3-17.8c0-5.3-1.5-10.6-4.2-15.1
			c-4.1-7-11.5-11.5-19.7-11.9h-4.1l-9.5-0.3h-43c-2.6,0-3.7,1.1-3.7,3.7v75.3c0,2.6,1.1,3.7,3.7,3.7h11.2c2.6,0,3.7-1.1,3.7-3.7
			v-24.9h13.7c3,0.2,5.9,1.4,8.1,3.4l21.7,21.8c2,2,4.6,3.2,7.4,3.4h16.6c2.6,0,3.2-1.5,1.4-3.4L822.2,523.2z M819.4,507.1h-39.6
			v-19h39.6c4,0.5,7,3.9,7,8v2.9C826.4,503.2,823.4,506.6,819.4,507.1L819.4,507.1z"/>
		<path class="st1" d="M743.8,535.8h-61.5v-15.5h49.1c2.6,0,3.7-1.1,3.7-3.7v-9c0-2.6-1.1-3.7-3.7-3.7h-49.1v-15.5h61.6
			c2.6,0,3.7-1.1,3.7-3.7v-10.3c0-2.6-1.1-3.7-3.7-3.7h-76.8c-2.6,0-3.7,1.1-3.7,3.7v75.4c0,2.6,1.1,3.7,3.7,3.7h76.8
			c2.6,0,3.7-1.1,3.7-3.7v-10.2C747.6,536.9,746.3,535.8,743.8,535.8z"/>
		<path class="st1" d="M649.8,497.8c0.1-5.3-1.4-10.4-4.2-14.9c-4.1-7.2-11.7-11.8-20-12.3h-56.4c-2.6,0-3.7,1.1-3.7,3.7v75.3
			c0,2.6,1.1,3.7,3.7,3.7h12.1c2.6,0,3.7-1,3.7-3.7v-61.4h32.7c7,0,13.7,4.6,13.7,11.6v49.9c0,2.6,1.1,3.7,3.7,3.7h11
			c2.6,0,3.7-1.1,3.7-3.7L649.8,497.8z"/>
		<path class="st1" d="M548.3,535.3h-53.1l53.2-46.7c2.2-1.7,3.5-4.1,3.7-6.9v-7.4c0-2.6-1.1-3.7-3.7-3.7h-77
			c-2.6,0-3.7,1.1-3.7,3.7v10.3c0,2.6,1.1,3.7,3.7,3.7h49.3l-49.5,46.4c-2.1,1.7-3.5,4.1-3.7,6.9v8.1c0,2.6,1.1,3.7,3.7,3.7h76.9
			c2.6,0,3.7-1.1,3.7-3.7V539C552,536.4,550.9,535.3,548.3,535.3z"/>
		<path class="st1" d="M450.4,470.6h-76.8c-2.6,0-3.7,1-3.7,3.7v10.3c0,2.6,1,3.7,3.7,3.7h29v61.4c0,2.6,1.1,3.7,3.7,3.7h12.3
			c2.6,0,3.7-1.1,3.7-3.7v-61.4h28.2c2.6,0,3.7-1.1,3.7-3.7v-10.2C454.1,471.8,453,470.6,450.4,470.6z"/>
		<path class="st1" d="M352.6,535.8h-61.4v-15.5h49.1c2.6,0,3.7-1.1,3.7-3.7v-9c0-2.6-1-3.7-3.7-3.7h-49.1v-15.5h61.4
			c2.6,0,3.7-1.1,3.7-3.7v-10.3c0-2.6-1.1-3.7-3.7-3.7H276c-2.6,0-3.7,1.1-3.7,3.7v75.4c0,2.6,1.1,3.7,3.7,3.7h76.6
			c2.6,0,3.7-1.1,3.7-3.7v-10.2C356.3,536.9,355.2,535.8,352.6,535.8z"/>
		<path class="st1" d="M254.8,470.6h-11.6c-2.6,0-3.7,1.1-3.7,3.7v29.3h-46.1v-29.3c0-2.6-1.1-3.7-3.7-3.7H178
			c-2.6,0-3.7,1.1-3.7,3.7v75.4c0,2.6,1.1,3.7,3.7,3.7h11.7c2.6,0,3.7-1,3.7-3.7v-29.8h46.2v29.8c0,2.6,1.1,3.7,3.7,3.7h11.6
			c2.6,0,3.7-1.1,3.7-3.7v-75.4C258.5,471.8,257.4,470.6,254.8,470.6z"/>
	</g>
</g>
</svg>
