<svg xmlns="http://www.w3.org/2000/svg" viewBox="0 0 1024 1024">
   <circle cx="512" cy="512" r="512" style="fill:#002856"/>
   <path d="M218.55 471.44h24.61v81.13h-24.07v-30.76h-41.84v30.76H153v-81.13h24.25v32.1h41.3Zm319.37 18.27h-36l-5.55 5.55v33.49l5.55 5.55h30.48l5.55-5.55v-39Zm24.32-18.28v65.84L547 552.57h-59.62l-15.29-15.29v-50.55l15.29-15.29h74.86Zm218.6 0v18.28h32.77v62.85h24.61v-62.85H871v-18.27Zm-102.91 81.14h90.15V534.3h-65.9v-12.49h65.9v-18.27h-65.9v-13.83h65.9v-18.27h-90.15Zm-28.06-81.13H575v81.13h24.25v-62.86h36l5.54 5.55v57.31h24.32v-65.84Zm-178.3-.34 14.34-14.34h-46.26l-14.34 14.34-17.77 17.77-17.43-17.43h-14.93l24.89 24.89 7.46 7.46 7.46-7.46 24.89-24.89h16.41l-33.1 33.1-7.44 7.46 7.46 7.46 33.1 33.1h14.93L456.64 538l-26-26 26-26Zm-125.51 63.26v-.07h-65.9v-12.48h65.9v-18.28h-65.9v-13.82h65.9v-.06l-3.61-3.65-14.6-14.59h-71.94v81.13h71.95L342.45 538Zm68.94-6.69-7.46-7.46-7.46 7.46-24.9 24.9h-16.43l3.28-3.28 29.82-29.82 7.46-7.46-7.46-7.46L362 474.72l-3.28-3.28h-14.89L358.42 486l3.62 3.62L384.39 512 362 534.36l-3.58 3.64-14.59 14.59-.34.33-14.34 14.34h46.26l14.34-14.34 17.77-17.77L425 552.57h14.93Z" style="fill:#fff"/>
</svg>
