<svg xmlns="http://www.w3.org/2000/svg" viewBox="0 0 1024 1024">
   <style>
      .st1{fill:#fff}
   </style>
   <g id="Icon">
      <circle id="Background" cx="512" cy="512" r="512" style="fill:#6c139c"/>
      <path class="st1" d="M826.5 414.4h-34.6c-5.5.2-10.3 3.7-12.3 8.7l-7.9 22.6-6.3 17.5-8.8 25.4c-.9 3-2.2 6-3.7 8.7-1.6-2.8-2.9-5.7-3.8-8.8l-8.4-25.2c-1.6-4.9-4.4-12.7-6.1-17.6l-7.9-22.6c-2.1-5.1-6.9-8.5-12.4-8.7H581c-5.1 0-9.3 4.2-9.3 9.3v52.9c0 5.2-4.2 9.3-9.3 9.3h-38.7c-5.1 0-9.3-4.2-9.3-9.3v-52.9c0-5-3.9-9.1-8.9-9.3h-32.2c-5.1 0-9.3 4.1-9.3 9.3v24.4c17.1 21.8 17.1 61.6 0 120.8v28.2c0 5.1 4.2 9.3 9.3 9.3h32.2c5.1 0 9.3-4.2 9.3-9.3v-57.7c0-5 3.9-9.1 9-9.3h38.7c5.1 0 9.3 4.1 9.3 9.2v57.8c0 5.1 4.2 9.3 9.3 9.3h108.7c5.1 0 9.3-4.2 9.3-9.3v-23.9c0-5.1-4.2-9.3-9.3-9.3H632c-5.1 0-9.3-4.2-9.3-9.3v-15.7c0-5.1 4.1-9.3 9.3-9.3h34.8c5.1 0 9.3-4.2 9.3-9.3v-23.9c0-5.1-4.2-9.3-9.3-9.3H632c-5.1 0-9.3-4.2-9.3-9.3v-11.5c0-5.1 4.1-9.3 9.2-9.3h47.2c5.6.3 10.6 3.5 13.1 8.5l30.6 66.4c2.4 5.6 3.7 11.6 3.9 17.8v47.6c0 5.1 4.2 9.3 9.3 9.3h32.2c5.1 0 9.3-4.1 9.3-9.2v-47.7c.2-6.1 1.5-12.1 3.8-17.8l50.4-109c1.6-2.6.9-6-1.7-7.6-.9-.8-2.2-1.1-3.5-.9z"/>
      <path class="st1" d="M419.1 447.1c-12.3 3.3-23.5 10-32.4 19.2-10.3-36.1-32.4-90.8-54.1-99.8-4.6-2.2-10-1.9-14.5.6-13.5 7.9-22.3 33.2-14.6 81.1-29.7-54.4-40.1-54.3-44.9-54.4-4.7.1-8.9 2.9-10.7 7.3-3.2 7.1-9.7 29.5 6 77.5-18.9-25.9-24.7-29.2-31.4-28.9-4.4.3-8.2 2.9-10.1 6.8-5.7 10.7-5 37.6 12.6 77.6-6-5.3-13.7-8.5-21.7-9-4.4.3-8.3 2.8-10.4 6.7-7.1 13.1 7.9 50 26.4 75 15 20.5 45.1 52 88.8 52 6.1 0 12.2-.6 18.2-1.7 4.3-.8 7.2-5 6.3-9.4-.8-4.3-5-7.2-9.4-6.3-36.3 7.1-63.6-12.9-80.2-30.8-24.7-26.8-35.6-59-36.2-68.8 5.2 2.1 20.1 10.9 49.2 48.2 2.6 3.6 7.5 4.4 11.1 1.8 3.6-2.6 4.4-7.5 1.8-11.1-40.9-62-44.9-99.5-43.5-112.2 12 12.3 42 57.2 64.7 91.1 2.3 3.6 7.1 4.7 10.8 2.4 3.7-2.2 5-6.9 2.9-10.7-47.1-86.4-45.5-125.7-42.7-138.9 7.1 7.1 25.8 32.1 65.4 117.8 1.8 3.9 6.3 5.7 10.3 4 4-1.6 6-6.1 4.5-10.1-38.3-104-21.7-139.2-15.3-143.2 8.2 0 31.4 39.8 45.9 91.8.9 3.2 1.7 6.4 2.5 9.4-2 3.6-3.6 7.4-4.7 11.3-7.9 28.8-15.7 94.3-.5 112.3 3.1 3.8 7.8 5.9 12.7 5.4 6.2-.7 11.7-4.1 15.1-9.3 14.1-20.5 5.8-72-5.4-117 7.7-10.8 18.7-18.8 31.4-22.5 5.5-1.7 11.6-.3 15.7 3.8 6.4 7.2 17.7 34.3-16.4 129.6-1.5 4.2.7 8.7 4.9 10.2s8.7-.7 10.2-4.9c27.2-76 31.4-124.9 13.3-145.5-8.2-8.6-20.4-11.8-31.6-8.4zM383.7 593c-.6 1.1-1.5 1.9-2.7 2.3-5.9-7-5.9-48.4.5-82.3 12.3 58.6 5.2 75.8 2.2 80z"/>
   </g>
</svg>
