<?xml version="1.0" encoding="utf-8"?>
<!-- Generator: Adobe Illustrator 21.0.0, SVG Export Plug-In . SVG Version: 6.00 Build 0)  -->
<svg version="1.1" xmlns="http://www.w3.org/2000/svg" xmlns:xlink="http://www.w3.org/1999/xlink" x="0px" y="0px"
	 viewBox="0 0 1024 1024" style="enable-background:new 0 0 1024 1024;" xml:space="preserve">
<style type="text/css">
	.st0{fill:#6C139C;}
	.st1{fill:#FFFFFF;}
</style>
<g id="Min_Guides__x28_DO_NOT_REMOVE_x29_">
</g>
<g id="Max_Guides__x28_DO_NOT_REMOVE_x29_">
</g>
<g id="Icon">
	<circle id="Background" class="st0" cx="512" cy="512" r="512"/>
	<g>
		<path class="st1" d="M826.5,414.4h-34.6c-5.5,0.2-10.3,3.7-12.3,8.7l-7.9,22.6l-6.3,17.5l-8.8,25.4c-0.9,3-2.2,6-3.7,8.7
			c-1.6-2.8-2.9-5.7-3.8-8.8l-8.4-25.2c-1.6-4.9-4.4-12.7-6.1-17.6l-7.9-22.6c-2.1-5.1-6.9-8.5-12.4-8.7H581c-5.1,0-9.3,4.2-9.3,9.3
			l0,0v52.9c0,5.2-4.2,9.3-9.3,9.3h-38.7c-5.1,0-9.3-4.2-9.3-9.3v-52.9c0-5-3.9-9.1-8.9-9.3h-32.2c-5.1,0-9.3,4.1-9.3,9.3v24.4
			c17.1,21.8,17.1,61.6,0,120.8v28.2c0,5.1,4.2,9.3,9.3,9.3h32.2c5.1,0,9.3-4.2,9.3-9.3l0,0v-57.7c0-5,3.9-9.1,9-9.3h38.7
			c5.1,0,9.3,4.1,9.3,9.2c0,0,0,0.1,0,0.1v57.7c0,5.1,4.2,9.3,9.3,9.3l0,0h108.7c5.1,0,9.3-4.2,9.3-9.3l0,0v-23.9
			c0-5.1-4.2-9.3-9.3-9.3l0,0H632c-5.1,0-9.3-4.2-9.3-9.3v-15.7c0-5.1,4.1-9.3,9.3-9.3h34.8c5.1,0,9.3-4.2,9.3-9.3l0,0v-23.9
			c0-5.1-4.2-9.3-9.3-9.3l0,0H632c-5.1,0-9.3-4.2-9.3-9.3v-11.5c0-5.1,4.1-9.3,9.2-9.3c0,0,0.1,0,0.1,0h47.1
			c5.6,0.3,10.6,3.5,13.1,8.5l30.6,66.4c2.4,5.6,3.7,11.6,3.9,17.8v47.6c0,5.1,4.2,9.3,9.3,9.3l0,0h32.2c5.1,0,9.3-4.1,9.3-9.2
			c0,0,0-0.1,0-0.1v-47.6c0.2-6.1,1.5-12.1,3.8-17.8l50.4-109c1.6-2.6,0.9-6-1.7-7.6C829.1,414.5,827.8,414.2,826.5,414.4
			L826.5,414.4z"/>
		<path class="st1" d="M419.1,447.1c-12.3,3.3-23.5,10-32.4,19.2c-10.3-36.1-32.4-90.8-54.1-99.8c-4.6-2.2-10-1.9-14.5,0.6
			c-13.5,7.9-22.3,33.2-14.6,81.1c-29.7-54.4-40.1-54.3-44.9-54.4c-4.7,0.1-8.9,2.9-10.7,7.3c-3.2,7.1-9.7,29.5,6,77.5
			c-18.9-25.9-24.7-29.2-31.4-28.9c-4.4,0.3-8.2,2.9-10.1,6.8c-5.7,10.7-5,37.6,12.6,77.6c-6-5.3-13.7-8.5-21.7-9
			c-4.4,0.3-8.3,2.8-10.4,6.7c-7.1,13.1,7.9,50,26.4,75c15,20.5,45.1,52,88.8,52c6.1,0,12.2-0.6,18.2-1.7c4.3-0.8,7.2-5,6.3-9.4
			c-0.8-4.3-5-7.2-9.4-6.3c-36.3,7.1-63.6-12.9-80.2-30.8c-24.7-26.8-35.6-59-36.2-68.8c5.2,2.1,20.1,10.9,49.2,48.2
			c2.6,3.6,7.5,4.4,11.1,1.8c3.6-2.6,4.4-7.5,1.8-11.1c-40.9-62-44.9-99.5-43.5-112.2c12,12.3,42,57.2,64.7,91.1
			c2.3,3.6,7.1,4.7,10.8,2.4c3.7-2.2,5-6.9,2.9-10.7c-47.1-86.4-45.5-125.7-42.7-138.9c7.1,7.1,25.8,32.1,65.4,117.8
			c1.8,3.9,6.3,5.7,10.3,4c4-1.6,6-6.1,4.5-10.1C303,420.1,319.6,384.9,326,380.9c8.2,0,31.4,39.8,45.9,91.8
			c0.9,3.2,1.7,6.4,2.5,9.4c-2,3.6-3.6,7.4-4.7,11.3c-7.9,28.8-15.7,94.3-0.5,112.3c3.1,3.8,7.8,5.9,12.7,5.4
			c6.2-0.7,11.7-4.1,15.1-9.3c14.1-20.5,5.8-72-5.4-117c7.7-10.8,18.7-18.8,31.4-22.5c5.5-1.7,11.6-0.3,15.7,3.8
			c6.4,7.2,17.7,34.3-16.4,129.6c-1.5,4.2,0.7,8.7,4.9,10.2c4.2,1.5,8.7-0.7,10.2-4.9c27.2-76,31.4-124.9,13.3-145.5
			C442.5,446.9,430.3,443.7,419.1,447.1z M383.7,593c-0.6,1.1-1.5,1.9-2.7,2.3c-5.9-7-5.9-48.4,0.5-82.3
			C393.8,571.6,386.7,588.8,383.7,593z"/>
	</g>
</g>
</svg>
