<?xml version="1.0" encoding="utf-8"?>
<!-- Generator: Adobe Illustrator 21.0.0, SVG Export Plug-In . SVG Version: 6.00 Build 0)  -->
<svg version="1.1" xmlns="http://www.w3.org/2000/svg" xmlns:xlink="http://www.w3.org/1999/xlink" x="0px" y="0px"
	 viewBox="0 0 1024 1024" style="enable-background:new 0 0 1024 1024;" xml:space="preserve">
<style type="text/css">
	.st0{fill:#42ACDB;}
	.st1{fill:#FFFFFF;}
</style>
<g id="Min_Guides__x28_DO_NOT_REMOVE_x29_">
</g>
<g id="Max_Guides__x28_DO_NOT_REMOVE_x29_">
</g>
<g id="Icon">
	<circle id="Background" class="st0" cx="512" cy="512" r="512"/>
	<path class="st1" d="M292.9,571.2v-45.9H256v45.9h-28.9v-119H256v45.7h36.9v-45.7h28.9v119H292.9z M353,466.7
		c0.5-7.8,7.1-13.8,15-13.6c7.5-0.6,14.1,5,14.7,12.5c0.6,7.5-5,14.1-12.5,14.7c-0.7,0.1-1.5,0.1-2.2,0
		C360.1,480.6,353.5,474.5,353,466.7z M355.1,493.1l12.9,7l13.3-6.9v78.1h-26.4v-78.1L355.1,493.1z M442.6,571.2h-26.4v-59.3h-10.6
		v-25.7H416v-28.5h26.4v28.5h10.4v25.6h-10.2C442.6,511.8,442.6,571.2,442.6,571.2z M527.3,452.2c35.2,0,40.9,21.4,40.9,32.3
		c0.5,10.5-5.2,20.3-14.6,25c11.3,3.7,18.7,14.5,18.1,26.4c0,18.7-10.6,35.2-45.3,35.2H480v-119H527.3z M508.9,497.8h21.6
		c4.8,0.9,9.4-2.3,10.2-7.1c0.1-0.6,0.2-1.2,0.1-1.7c0.1-4.9-3.8-8.9-8.7-8.9c-0.6,0-1.2,0-1.7,0.1h-21.6v18.3V497.8z M508.9,543.9
		h23.6c5.9,0.9,11.4-3.1,12.3-8.9c0.9-5.9-3.1-11.4-8.9-12.3c-1.1-0.2-2.2-0.2-3.4,0h-23.6V543.9z M646.1,571.2h-28.9v-91.7h-30.5
		v-27.2h89.5v27.2h-30.1V571.2z M796.8,470.8l-18.7,17.6c-7.2-6.5-16.7-10.1-26.4-9.9c-17.3-0.1-31.4,13.8-31.6,31.1
		c0,0.7,0,1.4,0.1,2.1c-1.2,17.2,11.8,32,29,33.2c0.9,0.1,1.8,0.1,2.6,0.1c9.7,0.3,19.2-3.2,26.4-9.7l18.7,17.6
		c-11.6,12.5-27.9,19.6-44.9,19.7c-33.5,0-60.7-27.2-60.6-60.7c0-33.5,27.2-60.6,60.6-60.6C769,451.4,785.2,458.4,796.8,470.8z"/>
</g>
</svg>
