<svg xmlns="http://www.w3.org/2000/svg" viewBox="0 0 1024 1024">
   <circle cx="512" cy="512" r="512" style="fill:#ff5400"/>
   <path d="m364.76 318-52.86 31c-22.11 12.52-39.9 44.08-39.9 69.66v187.22c0 25.58 17.8 56.6 39.91 69.66l52.86 31Zm347.34 30.45-52.86-31v387.5l52.86-31c22.11-12.55 39.9-44.12 39.9-69.7V418.12c0-25.58-17.79-56.6-39.9-69.67Zm-247 415.8 7 4.35c22.11 12.52 57.71 12.52 79.28 0l7-4.35V562.89s-13.48-23.4-46.92-23.4-46.92 23.4-46.92 23.4v201.37Zm86.84-508.87c-22.11-12.52-57.71-12.52-79.28 0l-7 4.35v198.12s13.48 23.4 46.92 23.4 46.92-23.4 46.92-23.4V259.2Z" style="fill:#fff"/>
</svg>
