<svg xmlns="http://www.w3.org/2000/svg" viewBox="0 0 1024 1024">
   <circle cx="512" cy="512" r="512" style="fill:#009390"/>
   <path d="M663.66 537.59c-4.21-.56-10-1.29-13.8-1.8 3.87-8.38 6.21-13.21 6.21-13.21.23-1.6 4.57-9.15 6.32-15.38 1.58-5.08 2.48-14.44 2.48-16 0-16.15-5.65-30.78-15.12-41.4A50.21 50.21 0 0 0 612 432.65c-3.07 0-6.73.16-15.12 1.8-8.59 2.12-12.67 3.32-20.27 5.32-12.84 4-18.08 6-36.45 14.83a5.78 5.78 0 0 0-3 3.74 7.08 7.08 0 0 0-.29 2.2l-.75 68.31h-11.47v-74.61a15.36 15.36 0 0 1 .75-4.67c.8-2.53 2.69-5 5.86-7.07 2.48-1.62 5-3.07 7.48-4.44a10.26 10.26 0 1 1 15.94-8.52c0 .52-.13 1-.16 1.54a5.78 5.78 0 0 1 .64-.23c2.27-.78 4.77-1.55 7.22-2.29a10.24 10.24 0 1 1 15.27-8.88 10.6 10.6 0 0 1-1.26 4.8c5-1.37 8.49-2.3 8.49-2.3.47-.11.95-.21 1.49-.33a10.22 10.22 0 1 1 14.37-3.14s.15 0 .2-.07a69.3 69.3 0 0 1 11.2-.72 10.14 10.14 0 0 1-2-6 10.23 10.23 0 1 1 16.8 7.79 59.45 59.45 0 0 1 11.09 3.87 9.71 9.71 0 0 1-.51-3 10.26 10.26 0 1 1 12.23 10 67.56 67.56 0 0 1 8.72 7.86v-.33a10.24 10.24 0 1 1 10.24 10.24 9.39 9.39 0 0 1-2.83-.46 75.39 75.39 0 0 1 5.14 9.28 10.36 10.36 0 1 1 5.23 15.45 87.08 87.08 0 0 1 1.42 8.62 10.42 10.42 0 0 1 3.92-.78 10.25 10.25 0 0 1 0 20.5 9.89 9.89 0 0 1-4.39-1c-.16 1.09-.34 2.25-.47 3.4-.33 1.18-.59 2.24-.87 3.22a10.23 10.23 0 0 1-1.28 20.42 9.92 9.92 0 0 1-5.73-1.76c-1.39 3.28-3.2 7.51-5.19 12.36m-151.71-8a9.83 9.83 0 0 1 0-19.66h.1a9.83 9.83 0 0 1 0 19.66zm.1-23.84A9.38 9.38 0 0 0 512 487h-.1a9.38 9.38 0 0 0 0 18.76zm-.07-23a9 9 0 0 1 0-17.91h.02a9 9 0 0 1 0 17.91zm0-42a8.43 8.43 0 0 0 0-16.87h.02a8.43 8.43 0 0 0 0 16.87zm0 20.41a8.53 8.53 0 0 1 0-17.07h.02a8.53 8.53 0 0 1 0 17.07zm29.67-135.38a2 2 0 0 0-1.89-1.4 2.06 2.06 0 0 0-2 1.42c-1.93 7.53-5.8 14.62-20.56 15.87.65-6.45 2.35-11.32 5.26-14.78 2.76-3 6.58-5 12.15-6.17a2.1 2.1 0 0 0 1.22-.54 1.91 1.91 0 0 0 .42-1.37 1.82 1.82 0 0 0-.57-1.36 1.9 1.9 0 0 0-1.22-.42h-44.91a1.9 1.9 0 0 0-1.22.42 1.82 1.82 0 0 0-.57 1.36 1.91 1.91 0 0 0 .42 1.37 2.14 2.14 0 0 0 1.22.54c5.57 1.19 9.41 3.18 12.15 6.17 2.91 3.46 4.61 8.33 5.26 14.78-14.76-1.26-18.63-8.35-20.56-15.87a2.06 2.06 0 0 0-2-1.42 2 2 0 0 0-1.89 1.4V367a1.87 1.87 0 0 0 2.11 1.75 1.92 1.92 0 0 0 2-1.21v-.2c3.49-8.56 10.88-14.09 20.41-15.51-.57 6.74-2.32 11.79-5.39 15.37-2.78 3-6.43 4.92-12.1 6.12h-.16a2.2 2.2 0 0 0-1.06.54 1.93 1.93 0 0 0-.42 1.44 1.74 1.74 0 0 0 .57 1.29 2.49 2.49 0 0 0 1.34.46h44.66a2.49 2.49 0 0 0 1.34-.46 1.74 1.74 0 0 0 .57-1.29 1.93 1.93 0 0 0-.42-1.44 2.2 2.2 0 0 0-1.06-.54h-.16c-5.67-1.21-9.34-3.12-12.1-6.12-3.07-3.58-4.82-8.62-5.39-15.37 9.54 1.42 16.92 7 20.41 15.51v.2a1.91 1.91 0 0 0 2 1.21 1.87 1.87 0 0 0 2.19-1.75v-41.09zM512 422.46a21.74 21.74 0 1 0 0-43.46 21.74 21.74 0 1 0 0 43.47zM355.17 525.18a10 10 0 0 1-5.73 1.76 10.23 10.23 0 0 1-1.32-20.38c-.28-1-.54-2.06-.87-3.22-.13-1.16-.31-2.3-.47-3.4a10.12 10.12 0 0 1-4.39 1 10.25 10.25 0 1 1 3.92-19.71 86.29 86.29 0 0 1 1.42-8.62 10.21 10.21 0 1 1 5.23-15.45 75.39 75.39 0 0 1 5.14-9.28 9.93 9.93 0 0 1-2.83.44 10.25 10.25 0 1 1 10.24-10.22v.31a67.56 67.56 0 0 1 8.72-7.86 10.24 10.24 0 1 1 12.25-10 9.54 9.54 0 0 1-.52 3 62.19 62.19 0 0 1 11.04-3.87 10.24 10.24 0 1 1 14.86-1.83 67.5 67.5 0 0 1 11.2.73s.15 0 .2.07a10.25 10.25 0 1 1 14.37 3.14c.54.1 1 .21 1.49.33 0 0 3.51.93 8.49 2.3a10.6 10.6 0 0 1-1.26-4.8 10.26 10.26 0 1 1 20.51 0 10.14 10.14 0 0 1-5.23 8.87c2.43.75 4.92 1.52 7.2 2.3a3.66 3.66 0 0 1 .64.23c0-.49-.16-1-.16-1.54a10.27 10.27 0 1 1 15.95 8.52c2.48 1.37 5 2.83 7.5 4.44 3.17 2.11 5.08 4.54 5.86 7.05a15.49 15.49 0 0 1 .75 4.69v74.62h-11.45l-.77-68.33a7 7 0 0 0-.29-2.19 5.74 5.74 0 0 0-3-3.74c-18.37-8.83-23.61-10.86-36.45-14.84-7.59-2-11.68-3.18-20.28-5.31-8.38-1.63-12-1.8-15.11-1.8a50.27 50.27 0 0 0-37.79 17.16c-9.44 10.61-15.11 25.23-15.11 41.4 0 1.54.9 10.91 2.48 16 1.75 6.24 6.09 13.78 6.32 15.37 0 0 2.34 4.85 6.21 13.23-3.77.51-9.6 1.22-13.8 1.8-2-4.85-3.81-9.08-5.19-12.36m317.66 20.57a6.88 6.88 0 0 0-4.7-2.71c-.7-.13-20.18-2.69-22.47-3a1.75 1.75 0 0 0-1.75 1.62 1.86 1.86 0 0 0 1.16 2.24l-.15-.07c10.39 4.82 16.51 14.63 16.66 26.36-16.12-3.33-20.15-11.59-21.16-23 0-.49-.46-1.37-1.8-1.49a1.88 1.88 0 0 0-2 1v.1l-6.16 49.37v.07a1.87 1.87 0 0 0 1.54 1.78 1.9 1.9 0 0 0 2.22-1.09 28.91 28.91 0 0 1 26.11-17 32.88 32.88 0 0 1-23 23.61c-8.41-.88-16.85-1.7-25.41-2.43-8.17-2.45-14.16-6.83-16.35-17a15.22 15.22 0 0 1 .87-4c2.07-5.59 6.11-9.28 10.61-7.64 4.7 1.76 5.19 7.07 3.14 12.66a14.82 14.82 0 0 1-3.67 5.63 14.92 14.92 0 0 0 12.69-6.7c5.72-8.13 5-20.67-3.89-25.84-5.81-3.4-13.91.56-20.05 8.21 1.86-12.07 9.19-22.72 10-32 1.16-13.11-3.89-27.7-11.09-31.71-7.48 2.74-14.31 16.28-15 29.36-.42 9.32 5.9 21.62 6.22 33.92-5-8.77-12.75-14-19.06-11.37-9.55 3.9-12 16.22-7.38 25.05a15.06 15.06 0 0 0 11.68 8.36 14.26 14.26 0 0 1-2.86-6.09c-1.26-5.83-.11-11 4.82-12.07 4.67-1 8.18 3.12 9.46 8.95a14.6 14.6 0 0 1 .21 5.36c-3.71 8.77-10.4 11.82-18.75 13.88-8.48-.38-17-.67-25.62-.87l-.91-.18c-12.08-1.94-18.24-9.67-19.47-24.15 10.63 1.6 18.89 7.82 22.77 17.34a2.2 2.2 0 0 0 2.24 1.45c1.65 0 2.24-1.08 2.24-1.81v-45.59a2.09 2.09 0 0 0-2.07-1.47 2.19 2.19 0 0 0-2.07 1.37v.07c-2.12 8.41-6.48 16.35-23.08 17.7 1.36-16.13 8.74-21.1 19.5-23.43a1.78 1.78 0 0 0 1.24-.59 1.89 1.89 0 0 0 .52-1.32v-.13a2.11 2.11 0 0 0-.69-1.4 1.85 1.85 0 0 0-1.21-.47H487.1a1.88 1.88 0 0 0-1.21.47 2.11 2.11 0 0 0-.7 1.4v.13a1.89 1.89 0 0 0 .54 1.32 1.78 1.78 0 0 0 1.24.59c10.76 2.34 18.14 7.3 19.52 23.43-16.61-1.36-21-9.29-23.08-17.7l-.07-.07a2.19 2.19 0 0 0-2.07-1.37 2.06 2.06 0 0 0-2.06 1.47v45.66a2 2 0 0 0 2.2 1.81 2.21 2.21 0 0 0 2.25-1.45c3.87-9.52 12.15-15.74 22.75-17.34-1.21 14.49-7.37 22.21-19.45 24.15l-.91.18c-8.57.2-17.15.49-25.62.87-8.34-2.06-15-5.11-18.73-13.88a13.92 13.92 0 0 1 .21-5.36c1.27-5.83 4.77-10 9.44-8.95 4.95 1.08 6.08 6.24 4.83 12.07a14.47 14.47 0 0 1-2.87 6.09 15.11 15.11 0 0 0 11.69-8.35c4.56-8.83 2.16-21.15-7.38-25.05-6.32-2.63-14 2.6-19.07 11.37.34-12.3 6.66-24.59 6.22-33.92-.64-13.08-7.48-26.62-15-29.36-7.2 4-12.25 18.6-11.09 31.71.83 9.31 8.17 20 10 32-6.12-7.66-14.22-11.61-20-8.21-8.93 5.16-9.6 17.7-3.87 25.84a14.9 14.9 0 0 0 12.67 6.7 15 15 0 0 1-3.66-5.63c-2.07-5.59-1.58-10.89 3.12-12.66 4.52-1.63 8.54 2.06 10.6 7.64a14.62 14.62 0 0 1 .88 4c-2.19 10.17-8.18 14.55-16.35 17-8.56.73-17 1.55-25.41 2.43a32.83 32.83 0 0 1-23-23.61 28.94 28.94 0 0 1 26.11 17 2 2 0 0 0 3.76-.69v-.07l-6.16-49.37v-.1a1.87 1.87 0 0 0-2-1c-1.34.11-1.8 1-1.8 1.49-1 11.42-5 19.68-21.16 23 .16-11.73 6.27-21.54 16.66-26.36l-.15.07a1.86 1.86 0 0 0 1.16-2.24 1.74 1.74 0 0 0-1.75-1.62c-2.29.31-21.77 2.87-22.45 3a6.88 6.88 0 0 0-4.72 2.71 7.64 7.64 0 0 0-1 5.94c.57 3.32 7.35 51 8 55.33 0 .38.57 4.83.75 6.16s2 2.78 2 2.78 10 6.73 11.73 8.08.72 3.54.72 3.54l-8.83 12.92a8.38 8.38 0 0 0-1.08 1.73 4.77 4.77 0 0 0-.29 1.67 4.69 4.69 0 0 0 1.91 3.82h294a4.73 4.73 0 0 0 1.91-3.82 4.44 4.44 0 0 0-.31-1.67 7.6 7.6 0 0 0-1.08-1.73l-8.83-12.92s-1-2.25.73-3.54 11.64-8.13 11.64-8.13 1.76-1.39 2-2.78.7-5.78.75-6.16c.64-4.38 7.41-52 8-55.33a7.64 7.64 0 0 0-1-5.94m-219.4 81.8L421 629.3a6 6 0 0 1-6.3-5.65l-.28-4.62a6 6 0 0 1 5.72-6.25l32.44-1.78a6 6 0 0 1 6.32 5.7l.26 4.57a6 6 0 0 1-5.68 6.3m71.61-8.2L513.53 631a2.24 2.24 0 0 1-1.5.67 2.31 2.31 0 0 1-1.52-.67l-11.56-11.56a2.28 2.28 0 0 1 0-3.33l11.56-11.56a2.29 2.29 0 0 1 1.52-.65 2.22 2.22 0 0 1 1.5.65l11.56 11.56a2.28 2.28 0 0 1 0 3.33m84.2 4.26a6 6 0 0 1-6.29 5.6l-32.47-1.71a6 6 0 0 1-5.68-6.3l.26-4.57a6 6 0 0 1 6.34-5.7l32.42 1.76a6 6 0 0 1 5.72 6.25zM512 234.49C665 234.49 789.5 359 789.5 512S665 789.51 512 789.51 234.5 665 234.5 512 359 234.49 512 234.49M512 757c135.09 0 245-109.92 245-245S647.08 267 512 267 267 376.9 267 512s109.9 245 245 245" style="fill:#fff"/>
</svg>
