<?xml version="1.0" encoding="utf-8"?>
<!-- Generator: Adobe Illustrator 21.0.0, SVG Export Plug-In . SVG Version: 6.00 Build 0)  -->
<svg version="1.1" xmlns="http://www.w3.org/2000/svg" xmlns:xlink="http://www.w3.org/1999/xlink" x="0px" y="0px"
	 viewBox="0 0 1024 1024" style="enable-background:new 0 0 1024 1024;" xml:space="preserve">
<style type="text/css">
	.st0{fill:#009390;}
	.st1{fill:#FFFFFF;}
</style>
<g id="Min_Guides__x28_DO_NOT_REMOVE_x29_">
</g>
<g id="Max_Guides__x28_DO_NOT_REMOVE_x29_">
</g>
<g id="Icon">
	<circle id="Background" class="st0" cx="512" cy="512" r="512"/>
	<path transform="matrix(2.3628 0 0 -2.3628 -69.647 2206.2)" class="st1" d="M305.4,707c-1.6,0.2-3.9,0.5-5.4,0.7
		c1.5,3.3,2.4,5.2,2.4,5.2c0.1,0.6,1.8,3.6,2.5,6c0.6,2,1,5.6,1,6.2c0,6.3-2.2,12-5.9,16.2c-3.7,4.1-8.9,6.7-14.8,6.7
		c-1.2,0-2.6-0.1-5.9-0.7c-3.4-0.8-5-1.3-7.9-2.1c-5-1.6-7.1-2.3-14.2-5.8c-0.7-0.3-1-1-1.2-1.5c-0.1-0.5-0.1-0.9-0.1-0.9l-0.3-26.7
		h-4.5v29.1c0,0,0,0.8,0.3,1.8c0.3,1,1.1,1.9,2.3,2.8c1,0.6,2,1.2,2.9,1.7c-1.1,0.7-1.8,1.9-1.8,3.3c0,2.2,1.8,4,4,4
		c2.2,0,4-1.8,4-4c0-0.2-0.1-0.4-0.1-0.6c0.1,0,0.2,0.1,0.2,0.1c0.9,0.3,1.9,0.6,2.8,0.9c-1.2,0.7-2.1,2-2.1,3.5c0,2.2,1.8,4,4,4
		c2.2,0,4-1.8,4-4c0-0.7-0.2-1.3-0.5-1.9c1.9,0.5,3.3,0.9,3.3,0.9c0.2,0,0.4,0.1,0.6,0.1c-1.1,0.7-1.8,1.9-1.8,3.3c0,2.2,1.8,4,4,4
		c2.2,0,4-1.8,4-4c0-0.8-0.2-1.5-0.6-2.1c0,0,0.1,0,0.1,0c1.4,0.2,3,0.3,4.4,0.3c-0.5,0.7-0.8,1.5-0.8,2.3c0,2.2,1.8,4,4,4
		c2.2,0,4-1.8,4-4c0-1.2-0.6-2.3-1.4-3c1.5-0.4,2.9-0.9,4.3-1.5c-0.1,0.4-0.2,0.8-0.2,1.2c0,2.2,1.8,4,4,4c2.2,0,4-1.8,4-4
		c0-2-1.4-3.6-3.2-3.9c1.2-0.9,2.4-2,3.4-3.1v0.1c0,2.2,1.8,4,4,4c2.2,0,4-1.8,4-4c0-2.2-1.8-4-4-4c-0.4,0-0.7,0.1-1.1,0.2
		c0.7-1.2,1.4-2.4,2-3.6c0.7,1.1,1.9,1.7,3.3,1.7c2.2,0,4-1.8,4-4c0-2.2-1.8-4-4-4c-0.5,0-0.9,0.1-1.3,0.2c0.2-1.1,0.4-2.2,0.6-3.4
		c0.5,0.2,1,0.3,1.5,0.3c2.2,0,4-1.8,4-4c0-2.2-1.8-4-4-4c-0.6,0-1.2,0.2-1.7,0.4c-0.1-0.4-0.1-0.9-0.2-1.3
		c-0.1-0.5-0.2-0.9-0.3-1.3c2-0.3,3.5-1.9,3.5-4c0-2.2-1.8-4-4-4c-0.8,0-1.6,0.2-2.2,0.7C306.9,710.6,306.2,708.9,305.4,707
		 M246.1,710.2c-2.1,0-3.8,1.7-3.8,3.8c0,2.1,1.7,3.8,3.8,3.8h0h0c2.1,0,3.8-1.7,3.8-3.8C250,711.9,248.3,710.2,246.1,710.2
		C246.2,710.2,246.1,710.2,246.1,710.2z M246.2,719.5c2,0,3.7,1.6,3.7,3.7c0,2-1.6,3.7-3.7,3.7h0h0c-2,0-3.7-1.6-3.7-3.7
		C242.5,721.1,244.1,719.5,246.2,719.5C246.1,719.5,246.2,719.5,246.2,719.5z M246.2,728.5c-2,0-3.5,1.6-3.5,3.5
		c0,1.9,1.5,3.5,3.5,3.5h0c1.9,0,3.5-1.6,3.5-3.5C249.7,730,248.1,728.5,246.2,728.5C246.2,728.5,246.2,728.5,246.2,728.5z
		 M246.2,744.9c1.8,0,3.3,1.5,3.3,3.3c0,1.8-1.5,3.3-3.3,3.3h0c-1.8,0-3.3-1.5-3.3-3.3C242.9,746.3,244.3,744.9,246.2,744.9
		C246.2,744.9,246.2,744.9,246.2,744.9z M246.2,736.9c-1.8,0-3.3,1.5-3.3,3.3c0,1.8,1.5,3.3,3.3,3.3h0c1.8,0,3.3-1.5,3.3-3.3
		C249.5,738.4,248,736.9,246.2,736.9C246.2,736.9,246.2,736.9,246.2,736.9z M257.7,789.8c-0.1,0.3-0.3,0.5-0.7,0.5
		c-0.5,0-0.7-0.3-0.8-0.6c-0.8-2.9-2.3-5.7-8-6.2c0.3,2.5,0.9,4.4,2.1,5.8c1.1,1.2,2.6,1.9,4.7,2.4c0.1,0,0.3,0.1,0.5,0.2
		c0.1,0.1,0.2,0.3,0.2,0.5c0,0.3-0.1,0.4-0.2,0.5c-0.2,0.1-0.4,0.2-0.5,0.2h-8.8h-0.9h-7.9c-0.1,0-0.3,0-0.5-0.2
		c-0.1-0.1-0.2-0.3-0.2-0.5c0-0.3,0.1-0.4,0.2-0.5c0.1-0.2,0.4-0.2,0.5-0.2c2.2-0.5,3.7-1.2,4.7-2.4c1.1-1.4,1.8-3.3,2.1-5.8
		c-5.8,0.5-7.3,3.3-8,6.2c-0.1,0.2-0.3,0.6-0.8,0.6c-0.4,0-0.7-0.3-0.7-0.5l0-0.1v-16c0-0.3,0.2-0.7,0.8-0.7c0.6,0,0.7,0.3,0.8,0.5
		l0,0.1c1.4,3.3,4.2,5.5,8,6.1c-0.2-2.6-0.9-4.6-2.1-6c-1.1-1.2-2.5-1.9-4.7-2.4l-0.1,0c-0.1,0-0.3-0.1-0.4-0.2
		c-0.1-0.1-0.2-0.3-0.2-0.6c0-0.2,0.1-0.4,0.2-0.5c0.2-0.1,0.4-0.2,0.5-0.2h7.8h0.9h8.7c0.2,0,0.4,0,0.5,0.2
		c0.1,0.1,0.2,0.3,0.2,0.5c0,0.3-0.1,0.5-0.2,0.6c-0.1,0.1-0.3,0.2-0.4,0.2l-0.1,0c-2.2,0.5-3.6,1.2-4.7,2.4c-1.2,1.4-1.9,3.4-2.1,6
		c3.7-0.6,6.6-2.7,8-6.1l0-0.1c0.1-0.1,0.2-0.5,0.8-0.5c0.6,0,0.8,0.4,0.8,0.7L257.7,789.8C257.8,789.7,257.7,789.8,257.7,789.8z
		 M246.2,752c4.7,0,8.5,3.8,8.5,8.5s-3.8,8.5-8.5,8.5h0c-4.7,0-8.5-3.8-8.5-8.5S241.5,752,246.2,752C246.2,752,246.2,752,246.2,752z
		 M184.9,711.9c-0.6-0.4-1.4-0.7-2.2-0.7c-2.2,0-4,1.8-4,4c0,2.1,1.5,3.7,3.5,4c-0.1,0.4-0.2,0.8-0.3,1.3c-0.1,0.5-0.1,0.9-0.2,1.3
		c-0.5-0.2-1.1-0.4-1.7-0.4c-2.2,0-4,1.8-4,4c0,2.2,1.8,4,4,4c0.5,0,1.1-0.1,1.5-0.3c0.1,1.1,0.3,2.3,0.6,3.4
		c-0.4-0.1-0.8-0.2-1.3-0.2c-2.2,0-4,1.8-4,4c0,2.2,1.8,4,4,4c1.4,0,2.6-0.7,3.3-1.7c0.6,1.3,1.3,2.5,2,3.6
		c-0.4-0.1-0.7-0.2-1.1-0.2c-2.2,0-4,1.8-4,4c0,2.2,1.8,4,4,4c2.2,0,4-1.8,4-4v-0.1c1,1.1,2.2,2.1,3.4,3.1c-1.8,0.4-3.2,2-3.2,3.9
		c0,2.2,1.8,4,4,4c2.2,0,4-1.8,4-4c0-0.4-0.1-0.8-0.2-1.2c1.4,0.6,2.8,1.1,4.3,1.5c-0.9,0.7-1.4,1.8-1.4,3c0,2.2,1.8,4,4,4
		c2.2,0,4-1.8,4-4c0-0.9-0.3-1.7-0.8-2.3c1.4,0,3,0,4.4-0.3c0,0,0.1,0,0.1,0c-0.4,0.6-0.6,1.3-0.6,2.1c0,2.2,1.8,4,4,4
		c2.2,0,4-1.8,4-4c0-1.4-0.7-2.6-1.8-3.3c0.2,0,0.4-0.1,0.6-0.1c0,0,1.4-0.4,3.3-0.9c-0.3,0.6-0.5,1.2-0.5,1.9c0,2.2,1.8,4,4,4
		c2.2,0,4-1.8,4-4c0-1.5-0.8-2.8-2-3.5c1-0.3,1.9-0.6,2.8-0.9c0.1,0,0.2-0.1,0.2-0.1c0,0.2-0.1,0.4-0.1,0.6c0,2.2,1.8,4,4,4
		c2.2,0,4-1.8,4-4c0-1.4-0.7-2.6-1.8-3.3c1-0.5,2-1.1,2.9-1.7c1.2-0.8,2-1.8,2.3-2.8c0.3-1,0.3-1.8,0.3-1.8v-29.1h-4.5l-0.3,26.7
		c0,0,0,0.4-0.1,0.9c-0.1,0.5-0.4,1.1-1.2,1.5c-7.2,3.5-9.2,4.2-14.2,5.8c-3,0.8-4.6,1.2-7.9,2.1c-3.3,0.6-4.7,0.7-5.9,0.7
		c-5.9,0-11-2.6-14.8-6.7c-3.7-4.1-5.9-9.9-5.9-16.2c0-0.6,0.4-4.3,1-6.2c0.7-2.4,2.4-5.4,2.5-6c0,0,0.9-1.9,2.4-5.2
		c-1.5-0.2-3.8-0.5-5.4-0.7C186.2,708.9,185.4,710.6,184.9,711.9 M309,703.8c-0.4,0.6-1,0.9-1.8,1.1c-0.3,0.1-7.9,1.1-8.8,1.2
		c-0.3,0-0.6-0.2-0.7-0.6c-0.1-0.5,0.2-0.8,0.5-0.9l-0.1,0c4.1-1.9,6.4-5.7,6.5-10.3c-6.3,1.3-7.9,4.5-8.3,9c0,0.2-0.2,0.5-0.7,0.6
		c-0.5,0-0.7-0.2-0.8-0.4l0,0l-2.4-19.3v0c0-0.3,0.2-0.6,0.6-0.7c0.4-0.1,0.8,0.1,0.9,0.4c1.9,4.1,5.7,6.5,10.2,6.6
		c-1.2-4.5-4.6-8-9-9.2l0,0c-3.3,0.3-6.6,0.7-9.9,1c-3.2,1-5.5,2.7-6.4,6.6c0,0.5,0.1,1,0.3,1.5c0.8,2.2,2.4,3.6,4.1,3
		c1.8-0.7,2-2.8,1.2-4.9c-0.3-0.9-0.9-1.7-1.4-2.2c1.9,0,3.6,0.7,5,2.6c2.2,3.2,2,8.1-1.5,10.1c-2.3,1.3-5.4-0.2-7.8-3.2
		c0.7,4.7,3.6,8.9,3.9,12.5c0.5,5.1-1.5,10.8-4.3,12.4c-2.9-1.1-5.6-6.4-5.8-11.5c-0.2-3.6,2.3-8.4,2.4-13.2c-2,3.4-5,5.5-7.4,4.4
		c-3.7-1.5-4.7-6.3-2.9-9.8c1.1-2.1,2.7-3,4.6-3.3c-0.5,0.6-0.9,1.4-1.1,2.4c-0.5,2.3,0,4.3,1.9,4.7c1.8,0.4,3.2-1.2,3.7-3.5
		c0.2-0.7,0.2-1.4,0.1-2.1v0c-1.4-3.4-4.1-4.6-7.3-5.4c-3.3,0.1-6.7,0.3-10,0.3l-0.4,0.1c-4.7,0.8-7.1,3.8-7.6,9.4
		c4.2-0.6,7.4-3.1,8.9-6.8c0.1-0.2,0.3-0.6,0.9-0.6c0.6,0,0.9,0.4,0.9,0.7v17.8v0.1c-0.1,0.3-0.4,0.6-0.8,0.6
		c-0.5,0-0.7-0.3-0.8-0.5v0l0,0c-0.8-3.3-2.5-6.4-9-6.9c0.5,6.3,3.4,8.2,7.6,9.2c0.1,0,0.3,0.1,0.5,0.2c0.1,0.1,0.2,0.3,0.2,0.5v0.1
		c0,0.3-0.2,0.5-0.3,0.5c-0.2,0.1-0.4,0.2-0.5,0.2h-9.2h-1.1h-9.2c-0.1,0-0.3,0-0.5-0.2c-0.1-0.1-0.2-0.3-0.3-0.5v-0.1
		c0-0.3,0.1-0.4,0.2-0.5c0.2-0.2,0.4-0.2,0.5-0.2c4.2-0.9,7.1-2.9,7.6-9.2c-6.5,0.5-8.2,3.6-9,6.9l0,0v0c-0.1,0.2-0.3,0.5-0.8,0.5
		c-0.5,0-0.7-0.3-0.8-0.6v-0.1v-17.8c0-0.3,0.2-0.7,0.9-0.7c0.6,0,0.8,0.3,0.9,0.6c1.5,3.7,4.7,6.1,8.9,6.8
		c-0.5-5.7-2.9-8.7-7.6-9.4l-0.4-0.1c-3.3-0.1-6.7-0.2-10-0.3c-3.3,0.8-5.9,2-7.3,5.4v0c-0.1,0.7-0.1,1.4,0.1,2.1
		c0.5,2.3,1.9,3.9,3.7,3.5c1.9-0.4,2.4-2.4,1.9-4.7c-0.2-0.9-0.6-1.8-1.1-2.4c1.9,0.3,3.5,1.2,4.6,3.3c1.8,3.5,0.8,8.3-2.9,9.8
		c-2.5,1-5.5-1-7.5-4.4c0.1,4.8,2.6,9.6,2.4,13.2c-0.2,5.1-2.9,10.4-5.8,11.5c-2.8-1.6-4.8-7.3-4.3-12.4c0.3-3.6,3.2-7.8,3.9-12.5
		c-2.4,3-5.6,4.5-7.8,3.2c-3.5-2-3.8-6.9-1.5-10.1c1.3-1.9,3-2.6,5-2.6c-0.6,0.5-1.1,1.3-1.4,2.2c-0.8,2.2-0.6,4.3,1.2,4.9
		c1.8,0.6,3.3-0.8,4.1-3c0.2-0.5,0.3-1,0.3-1.5c-0.9-4-3.2-5.7-6.4-6.6c-3.3-0.3-6.6-0.6-9.9-1l0,0c-4.4,1.2-7.8,4.7-9,9.2
		c4.5-0.1,8.3-2.5,10.2-6.6c0.1-0.3,0.4-0.5,0.9-0.4c0.4,0.1,0.6,0.4,0.6,0.7v0l-2.4,19.3l0,0c-0.1,0.2-0.3,0.4-0.8,0.4
		c-0.5,0-0.7-0.4-0.7-0.6c-0.4-4.5-2-7.7-8.3-9c0.1,4.6,2.4,8.4,6.5,10.3l-0.1,0c0.2,0.1,0.6,0.4,0.5,0.9c-0.1,0.5-0.4,0.7-0.7,0.6
		c-0.9-0.1-8.5-1.1-8.8-1.2c-0.8-0.1-1.4-0.5-1.8-1.1c-0.4-0.6-0.6-1.4-0.4-2.3c0.2-1.3,2.9-19.9,3.1-21.6c0-0.1,0.2-1.9,0.3-2.4
		c0.1-0.5,0.8-1.1,0.8-1.1s3.9-2.6,4.6-3.2c0.7-0.5,0.3-1.4,0.3-1.4l-3.5-5c-0.3-0.3-0.4-0.7-0.4-0.7c-0.1-0.2-0.1-0.4-0.1-0.7
		c0-0.6,0.3-1.1,0.7-1.5l56.9,0h1.4l56.6,0c0.5,0.3,0.7,0.9,0.7,1.5c0,0.2,0,0.4-0.1,0.7c0,0-0.1,0.3-0.4,0.7l-3.5,5
		c0,0-0.4,0.9,0.3,1.4c0.7,0.5,4.6,3.2,4.6,3.2s0.7,0.5,0.8,1.1c0.1,0.5,0.3,2.3,0.3,2.4c0.2,1.7,2.9,20.3,3.1,21.6
		C309.5,702.5,309.4,703.2,309,703.8 M223.3,671.9l-12.7-0.7c-1.3-0.1-2.4,0.9-2.5,2.2l-0.1,1.8c-0.1,1.3,0.9,2.4,2.2,2.4l12.7,0.7
		c1.3,0.1,2.4-0.9,2.5-2.2l0.1-1.8C225.6,673,224.6,671.9,223.3,671.9 M251.3,675.1l-4.5-4.5c-0.2-0.2-0.4-0.2-0.6-0.3h0
		c-0.2,0-0.4,0.1-0.6,0.3l-4.5,4.5c-0.4,0.4-0.4,0.9,0,1.3l4.5,4.5c0.2,0.2,0.4,0.2,0.6,0.3h0c0.2,0,0.4-0.1,0.6-0.3l4.5-4.5
		C251.7,676,251.7,675.5,251.3,675.1 M284.2,673.4c-0.1-1.3-1.2-2.3-2.5-2.2l-12.7,0.7c-1.3,0.1-2.3,1.2-2.2,2.5l0.1,1.8
		c0.1,1.3,1.2,2.3,2.5,2.2l12.7-0.7c1.3-0.1,2.3-1.2,2.2-2.4C284.3,675.2,284.2,673.4,284.2,673.4z M246.2,825.4
		c59.8,0,108.4-48.6,108.4-108.4c0-59.8-48.6-108.4-108.4-108.4S137.8,657.3,137.8,717C137.8,776.8,186.4,825.4,246.2,825.4
		 M246.2,621.3c52.8,0,95.7,42.9,95.7,95.7c0,52.8-42.9,95.7-95.7,95.7s-95.7-42.9-95.7-95.7C150.5,664.3,193.4,621.3,246.2,621.3"
		/>
</g>
</svg>
