<?xml version="1.0" encoding="utf-8"?>
<!-- Generator: Adobe Illustrator 21.0.0, SVG Export Plug-In . SVG Version: 6.00 Build 0)  -->
<svg version="1.1" xmlns="http://www.w3.org/2000/svg" xmlns:xlink="http://www.w3.org/1999/xlink" x="0px" y="0px"
	 viewBox="0 0 1024 1024" style="enable-background:new 0 0 1024 1024;" xml:space="preserve">
<style type="text/css">
	.st0{fill:#41BDF5;}
	.st1{fill:#FFFFFF;}
</style>
<g id="Max_Guides__x28_DO_NOT_REMOVE_x29__1_">
</g>
<g id="Max_Guides__x28_DO_NOT_REMOVE_x29_">
</g>
<g id="Icon">
	<circle id="Background" class="st0" cx="512" cy="512" r="512"/>
	<path id="Logo" class="st1" d="M502.4,719l-0.4-0.4L502.4,719H315.2c-5.8,0-10.4-4.7-10.4-10.4V529.6H258
		c-6.9,0-12.5-5.6-12.5-12.5c0-3.3,1.3-6.5,3.6-8.8l251.7-254.7c6.1-6.2,16-6.2,22.2-0.1c0,0,0.1,0.1,0.1,0.1l131.5,132.3v-24.5
		c0-5.8,4.7-10.4,10.4-10.4h43.7c5.8,0,10.4,4.7,10.4,10.4v89.9l55.9,57c4.8,4.9,4.8,12.9-0.2,17.7c-2.3,2.3-5.5,3.6-8.8,3.6h-46.9
		v178.9c0,5.8-4.7,10.4-10.4,10.4H521.4l0,0l0.2-0.2l-0.2,0.2l39-38.9h36c2.8,7.8,10.2,13.4,19,13.4c11.1,0,20.2-9,20.2-20.1
		c0-11.1-9-20.1-20.2-20.1c-8.8,0-16.3,5.6-19,13.4h-41.6l-36.2,36.2v-44.1l43.1-43.1h69.7c2.8,7.8,10.2,13.4,19,13.4
		c11.1,0,20.2-9,20.2-20.1c0-11.1-9-20.1-20.2-20.1c-8.8,0-16.3,5.6-19,13.4h-56.2l40.3-40.2v-33.6l29-28.9c2.6,1.3,5.6,2,8.7,2
		c11.1,0,20.2-9,20.2-20.1c0-11.1-9-20.1-20.2-20.1c-11.1,0-20.2,9-20.2,20.1c0,3.1,0.7,6.1,2,8.7l-19.5,19.4v-61.5
		c7.8-2.8,13.5-10.2,13.5-19c0-11.1-9-20.1-20.2-20.1c-11.1,0-20.2,9-20.2,20.1c0,8.8,5.6,16.2,13.5,19v61.5L582.6,490
		c1.3-2.6,2-5.6,2-8.7c0-11.1-9-20.1-20.2-20.1s-20.2,9-20.2,20.1c0,11.1,9,20.1,20.2,20.1c3.1,0,6.1-0.7,8.7-2l29,28.9v28
		l-36.3,36.3v-26.6c7.8-2.8,13.5-10.2,13.5-19c0-11.1-9-20.1-20.2-20.1c-11.1,0-20.2,9-20.2,20.1c0,8.8,5.6,16.2,13.5,19v40
		l-33.6,33.6V442.4l27.6-27.6c2.6,1.3,5.6,2,8.7,2c11.1,0,20.2-9,20.2-20.1c0-11.1-9-20.1-20.2-20.1c-11.1,0-20.2,9-20.2,20.1
		c0,3.1,0.7,6.1,2,8.7l-24.8,24.8l-24.8-24.8c1.3-2.6,2-5.6,2-8.7c0-11.1-9-20.1-20.2-20.1c-11.1,0-20.2,9-20.2,20.1
		c0,11.1,9,20.1,20.2,20.1c3.1,0,6.1-0.7,8.7-2l27.6,27.6v140.8l-48.4-48.3v-38.6c7.8-2.8,13.5-10.2,13.5-19
		c0-11.1-9-20.1-20.2-20.1c-11.1,0-20.2,9-20.2,20.1c0,8.8,5.6,16.2,13.5,19v25.2l-37.7-37.6v-37.3c7.8-2.8,13.5-10.2,13.5-19
		c0-11.1-9-20.1-20.2-20.1c-11.1,0-20.2,9-20.2,20.1c0,8.8,5.6,16.2,13.5,19v42.9l41.6,41.5h-23.9c-2.8-7.8-10.2-13.4-19-13.4
		c-11.1,0-20.2,9-20.2,20.1s9,20.1,20.2,20.1c8.8,0,16.3-5.6,19-13.4h37.4l57.9,57.8v100.5l-30.9-30.9v-38.7
		c7.8-2.8,13.5-10.2,13.5-19c0-11.1-9-20.1-20.2-20.1c-11.1,0-20.2,9-20.2,20.1c0,8.8,5.6,16.2,13.5,19v25.2l-45-44.9
		c1.3-2.6,2-5.6,2-8.7c0-11.1-9-20.1-20.2-20.1c-11.1,0-20.2,9-20.2,20.1c0,11.1,9,20.1,20.2,20.1c3.1,0,6.1-0.7,8.7-2l45,44.9
		h-23.9c-2.8-7.8-10.2-13.4-19-13.4c-11.1,0-20.2,9-20.2,20.1c0,11.1,9,20.1,20.2,20.1c8.8,0,16.3-5.6,19-13.4h37.4L502.4,719
		 M398.9,419.5c-4.5,0-8.1,3.6-8.1,8.1c0,4.4,3.6,8.1,8.1,8.1c4.5,0,8.1-3.6,8.1-8.1C407,423.1,403.4,419.5,398.9,419.5z M450,469.2
		c-4.5,0-8.1,3.6-8.1,8.1c0,4.4,3.6,8.1,8.1,8.1c4.5,0,8.1-3.6,8.1-8.1C458.1,472.8,454.5,469.2,450,469.2z M468.9,388.6
		c-4.5,0-8.1,3.6-8.1,8.1c0,4.5,3.6,8.1,8.1,8.1c4.5,0,8.1-3.6,8.1-8.1S473.3,388.6,468.9,388.6z M653.2,489.3
		c4.5,0,8.1-3.6,8.1-8.1s-3.6-8.1-8.1-8.1c-4.5,0-8.1,3.6-8.1,8.1C645.1,485.7,648.7,489.3,653.2,489.3z M555,404.7
		c4.5,0,8.1-3.6,8.1-8.1s-3.6-8.1-8.1-8.1c-4.5,0-8.1,3.6-8.1,8.1C546.9,401.1,550.5,404.7,555,404.7z M564.4,473.2
		c-4.5,0-8.1,3.6-8.1,8.1c0,4.5,3.6,8.1,8.1,8.1s8.1-3.6,8.1-8.1S568.8,473.2,564.4,473.2z M390.8,529.6c-4.5,0-8.1,3.6-8.1,8.1
		c0,4.4,3.6,8.1,8.1,8.1c4.5,0,8.1-3.6,8.1-8.1S395.3,529.6,390.8,529.6z M650.5,616.9c4.5,0,8.1-3.6,8.1-8.1s-3.6-8.1-8.1-8.1
		c-4.5,0-8.1,3.6-8.1,8.1C642.4,613.3,646,616.9,650.5,616.9z M608.8,420.9c-4.5,0-8.1,3.6-8.1,8.1c0,4.4,3.6,8.1,8.1,8.1
		c4.5,0,8.1-3.6,8.1-8.1C616.8,424.5,613.2,420.9,608.8,420.9z M559,539c-4.5,0-8.1,3.6-8.1,8.1s3.6,8.1,8.1,8.1
		c4.5,0,8.1-3.6,8.1-8.1S563.5,539,559,539z M397.6,596.8c-4.5,0-8.1,3.6-8.1,8.1c0,4.4,3.6,8.1,8.1,8.1c4.5,0,8.1-3.6,8.1-8.1
		C405.6,600.4,402,596.8,397.6,596.8z M408.3,666.6c-4.5,0-8.1,3.6-8.1,8.1c0,4.4,3.6,8.1,8.1,8.1c4.5,0,8.1-3.6,8.1-8.1
		C416.4,670.2,412.8,666.6,408.3,666.6z M615.5,681.4c4.5,0,8.1-3.6,8.1-8.1c0-4.4-3.6-8.1-8.1-8.1c-4.5,0-8.1,3.6-8.1,8.1
		C607.4,677.8,611,681.4,615.5,681.4z M467.5,606.2c-4.5,0-8.1,3.6-8.1,8.1c0,4.4,3.6,8.1,8.1,8.1c4.5,0,8.1-3.6,8.1-8.1
		C475.6,609.8,472,606.2,467.5,606.2z"/>
</g>
</svg>
