<?xml version="1.0" encoding="utf-8"?>
<!-- Generator: Adobe Illustrator 21.0.0, SVG Export Plug-In . SVG Version: 6.00 Build 0)  -->
<svg version="1.1" xmlns="http://www.w3.org/2000/svg" xmlns:xlink="http://www.w3.org/1999/xlink" x="0px" y="0px"
	 viewBox="0 0 1024 1024" style="enable-background:new 0 0 1024 1024;" xml:space="preserve">
<style type="text/css">
	.st0{fill:#41BDF5;}
	.st1{fill:#FFFFFF;}
</style>
<g id="Guides">
</g>
<g id="Icon">
	<circle class="st0" cx="512" cy="512" r="512"/>
	<g>
		<path id="Logo" class="st1" d="M302.4,711.1v-181h-47.3c-7,0-12.7-5.7-12.7-12.7c0-3.3,1.3-6.5,3.7-8.9L500.7,251l0,0
			c6.1-6.2,16.2-6.3,22.4-0.1c0,0,0.1,0.1,0.1,0.1l132.9,133.8v-24.8l0,0c0-5.8,4.7-10.6,10.6-10.6h44.2l0,0
			c5.8,0,10.6,4.7,10.6,10.6V451l56.5,57.6c4.9,5,4.8,13-0.2,17.9c-2.4,2.3-5.6,3.6-8.9,3.6h-47.5v180.9c0,5.8-4.7,10.6-10.6,10.6
			H312.9C307.1,721.7,302.4,716.9,302.4,711.1L302.4,711.1z M583.4,490c1.3-2.7,2-5.6,2-8.8c0-11.3-9.1-20.4-20.4-20.4
			s-20.4,9.1-20.4,20.4c0,11.3,9.1,20.4,20.4,20.4c3.2,0,6.1-0.7,8.8-2l29.3,29.2v28.3l-36.7,36.7V567c7.9-2.8,13.6-10.3,13.6-19.2
			c0-11.2-9.1-20.4-20.4-20.4c-11.3,0-20.4,9.1-20.4,20.4c0,8.9,5.7,16.4,13.6,19.2v40.4l-34,34V442l27.9-27.9c2.7,1.3,5.6,2,8.8,2
			c11.3,0,20.4-9.1,20.4-20.4c0-11.2-9.1-20.4-20.4-20.4c-11.3,0-20.4,9.1-20.4,20.4c0,3.1,0.7,6.1,2,8.8l-25.1,25.1l-25.1-25.1
			c1.3-2.7,2-5.6,2-8.8c0-11.2-9.1-20.4-20.4-20.4c-11.3,0-20.4,9.1-20.4,20.4c0,11.3,9.1,20.4,20.4,20.4c3.2,0,6.1-0.7,8.8-2
			l27.9,27.9v142.4l-49-48.9v-39.1c7.9-2.8,13.6-10.3,13.6-19.2c0-11.3-9.1-20.4-20.4-20.4c-11.3,0-20.4,9.1-20.4,20.4
			c0,8.9,5.7,16.4,13.6,19.2v25.5l-38.1-38v-37.7c7.9-2.8,13.6-10.3,13.6-19.2c0-11.3-9.1-20.4-20.4-20.4
			c-11.3,0-20.4,9.1-20.4,20.4c0,8.9,5.7,16.4,13.6,19.2v43.4l42.1,42h-24.2c-2.8-7.9-10.4-13.6-19.2-13.6
			c-11.3,0-20.4,9.1-20.4,20.4c0,11.3,9.1,20.4,20.4,20.4c8.9,0,16.4-5.7,19.2-13.6h37.8l58.6,58.5v101.7L473.8,674v-39.1
			c7.9-2.8,13.6-10.3,13.6-19.2c0-11.3-9.1-20.4-20.4-20.4c-11.3,0-20.4,9.1-20.4,20.4c0,8.9,5.7,16.4,13.6,19.2v25.5L414.7,615
			c1.3-2.7,2-5.6,2-8.8c0-11.2-9.1-20.4-20.4-20.4c-11.3,0-20.4,9.1-20.4,20.4c0,11.2,9.1,20.4,20.4,20.4c3.1,0,6.1-0.7,8.8-2
			l45.5,45.4h-24.2c-2.8-7.9-10.4-13.6-19.2-13.6c-11.3,0-20.4,9.1-20.4,20.4c0,11.2,9.1,20.4,20.4,20.4c8.9,0,16.4-5.7,19.2-13.6
			h37.8l38.1,38h19.2l39.5-39.4h36.4c2.8,7.9,10.4,13.6,19.2,13.6c11.3,0,20.4-9.1,20.4-20.4c0-11.3-9.1-20.4-20.4-20.4
			c-8.9,0-16.4,5.7-19.2,13.6h-42.1l-36.6,36.6v-44.6l43.6-43.6h70.5c2.8,7.9,10.4,13.6,19.2,13.6c11.3,0,20.4-9.1,20.4-20.4
			c0-11.3-9.1-20.4-20.4-20.4c-8.9,0-16.4,5.7-19.2,13.6H576l40.7-40.6v-34l29.3-29.2c2.7,1.3,5.6,2,8.8,2
			c11.3,0,20.4-9.1,20.4-20.4s-9.1-20.4-20.4-20.4c-11.3,0-20.4,9.1-20.4,20.4c0,3.1,0.7,6.1,2,8.8l-19.7,19.6v-62.2
			c7.9-2.8,13.6-10.3,13.6-19.2c0-11.3-9.1-20.4-20.4-20.4c-11.3,0-20.4,9.1-20.4,20.4c0,8.9,5.7,16.4,13.6,19.2v62.2L583.4,490z
			 M407.1,685c-4.5,0-8.2-3.6-8.2-8.1c0-4.5,3.7-8.1,8.2-8.1c4.5,0,8.2,3.6,8.2,8.1C415.3,681.3,411.7,685,407.1,685z M467,623.9
			c-4.5,0-8.2-3.6-8.2-8.1c0-4.5,3.7-8.2,8.2-8.2s8.2,3.6,8.2,8.2C475.2,620.2,471.5,623.9,467,623.9z M396.3,614.4
			c-4.5,0-8.2-3.6-8.2-8.1c0-4.5,3.7-8.1,8.2-8.1c4.5,0,8.2,3.7,8.2,8.1C404.4,610.7,400.8,614.4,396.3,614.4z M389.5,546.5
			c-4.5,0-8.2-3.6-8.2-8.1s3.7-8.1,8.2-8.1c4.5,0,8.2,3.6,8.2,8.1S394,546.5,389.5,546.5z M559.5,556c-4.5,0-8.2-3.6-8.2-8.1
			s3.7-8.1,8.2-8.1c4.5,0,8.2,3.6,8.2,8.1S564,556,559.5,556z M652,618.4c-4.5,0-8.2-3.6-8.2-8.1c0-4.5,3.7-8.1,8.2-8.1
			c4.5,0,8.2,3.6,8.2,8.1C660.2,614.8,656.6,618.4,652,618.4z M616.7,683.6c-4.5,0-8.2-3.6-8.2-8.1c0-4.5,3.7-8.1,8.2-8.1
			c4.5,0,8.2,3.6,8.2,8.1C624.8,680,621.2,683.6,616.7,683.6z M654.8,489.4c-4.5,0-8.2-3.6-8.2-8.1c0-4.5,3.7-8.1,8.2-8.1
			c4.5,0,8.2,3.6,8.2,8.1C662.9,485.8,659.3,489.4,654.8,489.4z M609.9,436.4c-4.5,0-8.2-3.6-8.2-8.1c0-4.5,3.7-8.2,8.2-8.2
			c4.5,0,8.2,3.6,8.2,8.2C618,432.8,614.4,436.4,609.9,436.4z M555.4,403.8c-4.5,0-8.2-3.6-8.2-8.1c0-4.5,3.7-8.1,8.2-8.1
			c4.5,0,8.2,3.6,8.2,8.1C563.6,400.2,560,403.8,555.4,403.8z M468.4,403.8c-4.5,0-8.2-3.6-8.2-8.1c0-4.5,3.7-8.1,8.2-8.1
			c4.5,0,8.2,3.6,8.2,8.1C476.5,400.2,472.9,403.8,468.4,403.8z M397.6,435.1c-4.5,0-8.2-3.6-8.2-8.1c0-4.5,3.7-8.1,8.2-8.1
			c4.5,0,8.2,3.6,8.2,8.1C405.8,431.4,402.1,435.1,397.6,435.1z M449.3,485.3c-4.5,0-8.2-3.6-8.2-8.1c0-4.5,3.7-8.1,8.2-8.1
			c4.5,0,8.2,3.6,8.2,8.1C457.5,481.7,453.8,485.3,449.3,485.3z M565,489.4c-4.5,0-8.2-3.6-8.2-8.1c0-4.5,3.7-8.1,8.2-8.1
			s8.2,3.6,8.2,8.1C573.1,485.8,569.5,489.4,565,489.4z"/>
		<polygon id="Lazy_solution_I_know" class="st0" points="502.2,721.5 502.4,721.8 521.4,721.8 521.6,721.5 		"/>
	</g>
</g>
</svg>
