<?xml version="1.0" encoding="utf-8"?>
<!-- Generator: Adobe Illustrator 21.0.0, SVG Export Plug-In . SVG Version: 6.00 Build 0)  -->
<svg version="1.1" xmlns="http://www.w3.org/2000/svg" xmlns:xlink="http://www.w3.org/1999/xlink" x="0px" y="0px"
	 viewBox="0 0 1024 1024" style="enable-background:new 0 0 1024 1024;" xml:space="preserve">
<style type="text/css">
	.st0{fill:#0098D0;}
	.st1{fill:#FFFFFF;}
</style>
<g id="Min_Guides__x28_DO_NOT_REMOVE_x29_">
</g>
<g id="Max_Guides__x28_DO_NOT_REMOVE_x29_">
</g>
<g id="Icon">
	<circle id="Background" class="st0" cx="512" cy="512" r="512"/>
	<path class="st1" d="M450.2,435c7.5-40.2,19.6-82.4,19.6-82.4c18.1-64.8,69.9-78.4,69.9-78.4c50.3-17.1,79.9,17.1,79.9,17.1v0.5
		c2.5,3,3.5,6,3.5,6c1.5,1.5,2,4,2,6.5c0,7-4,12.6-9.6,15.6h-0.5c-39.7,18.1-67.9,49.8-67.9,49.8
		c-70.4,77.9-104.6,216.7-104.6,216.7S408.5,730,317.5,705.4c0,0-57.3-14.1-72.4-97.5c-3.5-22.1,2.5-27.1,2.5-27.1
		c9.6-7.5,20.6,6,20.6,6c28.2,34.2,64.8,31.2,64.8,31.2c4.5,0,55.3-0.5,96-106.6C429.1,511.9,442.7,478.7,450.2,435z M707.6,532
		c-73.4-12.1-173.9,192.5-173.9,192.5c-6.5,12.1-13.6,9.6-13.6,9.6c-8-1.5-4.5-13.6-4.5-13.6s54.8-232.7,167.9-251.8
		c0,0,64.3-10.1,69.4,61.3c0,0,0,21.6-20.6,12.6C732.2,543.1,719.1,534,707.6,532z M768.4,394.8c-51.8-69.4-126.7-44.2-126.7-44.2
		C489.9,398.3,445.2,729,445.2,729s-2.5,17.1,8.5,17.6c0,0,10.1,1.5,16.6-15.6c0,0,63.3-294.1,210.6-303.6c0,0,37.7-3,72.4,13.1
		c0,0,11.1,6.5,20.1-2c0,0,12.1-11.1,3.5-28.7c0,0-3-5.5-8-14.6L768.4,394.8z"/>
</g>
</svg>
