<svg xmlns="http://www.w3.org/2000/svg" viewBox="0 0 1024 1024">
   <circle cx="512" cy="512" r="512" style="fill:#2197ff"/>
   <path d="M450.2 435c7.54-40.21 19.6-82.44 19.6-82.44 18.1-64.85 69.87-78.42 69.87-78.42 50.27-17.09 79.93 17.09 79.93 17.09v.5a20.82 20.82 0 0 1 3.52 6c1.51 1.51 2 4 2 6.53a17.61 17.61 0 0 1-9.55 15.58h-.5c-39.71 18.1-67.86 49.77-67.86 49.77-70.38 77.92-104.56 216.66-104.56 216.66S408.47 730 317.49 705.42c0 0-57.31-14.08-72.39-97.52-3.52-22.12 2.51-27.14 2.51-27.14 9.55-7.54 20.61 6 20.61 6 28.15 34.18 64.85 31.17 64.85 31.17 4.52 0 55.3-.5 96-106.57.01.52 13.59-32.65 21.13-76.36zm257.37 97c-73.39-12.06-173.93 192.53-173.93 192.53-6.53 12.06-13.57 9.55-13.57 9.55-8-1.51-4.52-13.57-4.52-13.57s54.79-232.74 167.9-251.84c0 0 64.34-10.05 69.37 61.33 0 0 0 21.62-20.61 12.57-.01.48-13.08-8.57-24.64-10.57zm60.82-137.23c-51.78-69.37-126.68-44.24-126.68-44.24C489.91 398.28 445.17 729 445.17 729s-2.51 17.09 8.55 17.59c0 0 10.05 1.51 16.59-15.58 0 0 63.34-294.07 210.62-303.62 0 0 37.7-3 72.39 13.07 0 0 11.06 6.53 20.11-2 0 0 12.06-11.06 3.52-28.65 0 0-3-5.53-8-14.58z" style="fill:#fff"/>
</svg>
