<svg xmlns="http://www.w3.org/2000/svg" viewBox="0 0 1024 1024">
   <circle cx="512" cy="512" r="512" style="fill:#00ffce"/>
   <path d="M497.27 260.53c5.06-2.86 9.93-6 15.18-8.51q128.5 74.55 257.26 148.71c.43 74.11.32 148.27.06 222.39Q640.87 697.22 512.35 772 383.09 697.51 254 622.68c.24-74-.42-148.1.34-222.1a137.13 137.13 0 0 0 12.72-7q115.1-66.51 230.17-133.05m12.42 54.23q-98.42 56.8-196.77 113.77c-2.54 1.64-5.78 2.64-7.28 5.44 50.7 28.76 101 58.22 151.54 87.29l3.78 1.18c15.11-19 31.25-37.1 46.18-56.19-29.51-17.12-59-34.29-88.68-51.11 3.69-3.95 8.88-5.94 13.28-9 14.43-8.58 28.46-17.81 43.13-26 81 47.14 162.57 93.3 243.63 140.33q.53-43.79 0-87.58c-67.19-39.41-134.89-78-202.22-117.27-2-1.09-4.51-2.58-6.64-.94m48.21 181.45c-15.24 19-31.17 37.49-46.58 56.38 27.9 15.78 55.48 32.15 83.41 47.9 0 .56 0 1.69.05 2.26-16.44 10.61-32.9 21.18-49.23 32-1.86 1.05-4 3.26-6.26 1.92-78-44.76-155.61-90.37-233.82-134.75-.51 29 0 58.05-.26 87.08 68 39.92 136.51 79 204.69 118.68 3.08 2.17 6-1.33 8.76-2.5q99.35-57.56 198.8-115c-.11-.71-.32-2.16-.42-2.89Q640 542.93 563 498.4a34.77 34.77 0 0 0-5.15-2.18" style="fill:#fff"/>
</svg>
