<?xml version="1.0" encoding="utf-8"?>
<!-- Generator: Adobe Illustrator 21.0.0, SVG Export Plug-In . SVG Version: 6.00 Build 0)  -->
<svg version="1.1" xmlns="http://www.w3.org/2000/svg" xmlns:xlink="http://www.w3.org/1999/xlink" x="0px" y="0px"
	 viewBox="0 0 1024 1024" style="enable-background:new 0 0 1024 1024;" xml:space="preserve">
<style type="text/css">
	.st0{fill:#CC2929;}
	.st1{fill:#FFFFFF;}
</style>
<g id="Guides">
</g>
<g id="Icon">
	<circle class="st0" cx="512" cy="512" r="512"/>
	<path class="st1" d="M344.3,767.9c2.6-9.9,4.9-19.2,7.3-28.5c14.8-57.9,28.2-116,38.8-174.9c5.2-28.8,9.5-57.8,13.5-86.9
		c3-21.9,4.6-44,4.2-66.2c-0.2-11.9-0.7-23.8-4.1-35.3c-1.5-5.1-3.7-10.1-6.4-14.6c-3.5-5.8-9.2-8.1-16-7.9
		c-18.8,0.6-34.8,7.7-48.5,20.5c-15.5,14.5-25.6,32.6-33.1,52.2c-3.5,9.3-6.1,18.9-9,28.4c-0.4,1.4-0.6,2.6-2.5,2.6
		c-10.5-0.1-21.1-0.1-31.7-0.1c-0.3,0-0.5-0.2-0.8-0.2c0-4.1-0.4-8.2,0.1-12.2c7.4-60.9,33.5-112.4,78.2-154.1
		c16.7-15.7,36.6-26.5,59.2-31.4c33.2-7.2,59.6,5.5,75.4,35.8c8,15.4,12.3,31.9,15.1,48.9c4.5,27.5,4.7,55.2,3.7,82.9
		c-0.3,9-0.9,17.9-1.3,26.9c0,1.2,0,2.3,0,3.8c1.2,0.1,2.2,0.2,3.3,0.2c19.3,0,38.6,0,58,0.1c2.6,0,3.4-1,3.8-3.4
		c12.3-66.4,29.2-131.6,51-195.5c0.5-1.6,1.1-2.6,3.1-2.6c23.9,0.1,47.8,0.1,71.7,0.1c0.4,0,0.7,0.1,1.5,0.2l-4.1,16.1
		c-16.1,62.6-30.6,125.6-42.4,189.1c-6.1,33-11.4,66.1-14.7,99.5c-1.8,18.7-3,37.4-2.4,56.1c0.3,11.3,1.2,22.7,4.7,33.5
		c1.4,4.3,3.4,8.5,5.8,12.4c3.6,5.5,9.1,7.8,15.8,7.6c24.7-0.7,43.6-12.6,58.6-31.4c15.1-18.8,24.2-40.5,30.6-63.6
		c0.6-2.1,1.3-4.3,1.6-6.5c0.3-1.7,1.2-2.2,2.8-2.2c10,0,19.9,0.1,29.9,0c2.2,0,2.6,0.9,2.5,2.8c-0.3,17.2-3.3,33.8-8.3,50.1
		c-12.6,41.1-33.2,77.5-63.8,107.9c-17.3,17.3-37.6,30-61.4,36.4c-14.4,3.9-28.9,4.5-43.2-0.6c-16.2-5.8-27.2-17.4-35.4-32.1
		c-8.6-15.5-13.1-32.3-16-49.5c-5.1-30-5.1-60.2-3.7-90.5c0.9-19,2.7-37.9,4.1-56.9c0.3-4.1,0.3-4.1-3.7-4.1c-18.2,0-36.5,0-54.7,0
		c-2.2,0-3.3,0.5-3.6,2.9c-5.8,38.7-13.6,77-22.9,114.9c-9.7,39.3-20.8,78.2-33.9,116.5c-0.9,2.7-2.2,3.4-5,3.4
		c-22.7-0.1-45.4-0.1-68.2-0.1L344.3,767.9L344.3,767.9z"/>
</g>
</svg>
