<?xml version="1.0" encoding="UTF-8" standalone="no"?>
<svg
   xmlns:dc="http://purl.org/dc/elements/1.1/"
   xmlns:cc="http://creativecommons.org/ns#"
   xmlns:rdf="http://www.w3.org/1999/02/22-rdf-syntax-ns#"
   xmlns:svg="http://www.w3.org/2000/svg"
   xmlns="http://www.w3.org/2000/svg"
   viewBox="0 0 1365.3333 1365.3333"
   height="1365.3333"
   width="1365.3333"
   xml:space="preserve"
   id="svg2"
   version="1.1"><metadata
     id="metadata8"><rdf:RDF><cc:Work
         rdf:about=""><dc:format>image/svg+xml</dc:format><dc:type
           rdf:resource="http://purl.org/dc/dcmitype/StillImage" /></cc:Work></rdf:RDF></metadata><defs
     id="defs6"><clipPath
       id="clipPath18"
       clipPathUnits="userSpaceOnUse"><path
         id="path16"
         d="M 0,1024 H 1024 V 0 H 0 Z" /></clipPath></defs><g
     transform="matrix(1.3333333,0,0,-1.3333333,0,1365.3333)"
     id="g10"><g
       id="g12"><g
         clip-path="url(#clipPath18)"
         id="g14"><g
           transform="translate(1024,512)"
           id="g20"><path
             id="path22"
             style="fill:#ce2228;fill-opacity:1;fill-rule:nonzero;stroke:none"
             d="m 0,0 c 0,-282.77 -229.23,-512 -512,-512 -282.77,0 -512,229.23 -512,512 0,282.77 229.23,512 512,512 C -229.23,512 0,282.77 0,0" /></g><g
           transform="translate(344.2925,256.1064)"
           id="g24"><path
             id="path26"
             style="fill:#ffffff;fill-opacity:1;fill-rule:nonzero;stroke:none"
             d="m 0,0 c 2.56,9.877 4.906,19.198 7.317,28.542 14.761,57.872 28.2,116.044 38.823,174.854 5.227,28.798 9.514,57.809 13.503,86.905 3.029,21.929 4.629,44.029 4.224,66.235 -0.214,11.881 -0.725,23.806 -4.117,35.303 -1.493,5.12 -3.712,10.09 -6.399,14.634 -3.52,5.823 -9.173,8.063 -15.999,7.85 -18.836,-0.554 -34.835,-7.743 -48.466,-20.478 -15.508,-14.506 -25.64,-32.574 -33.128,-52.156 -3.541,-9.279 -6.058,-18.921 -9.001,-28.371 -0.427,-1.408 -0.555,-2.624 -2.453,-2.602 -10.538,0.128 -21.097,0.106 -31.657,0.128 -0.277,0 -0.512,0.17 -0.768,0.213 0,4.117 -0.426,8.213 0.064,12.202 7.381,60.859 33.491,112.353 78.244,154.141 16.746,15.658 36.584,26.516 59.238,31.443 33.171,7.21 59.643,-5.503 75.386,-35.837 8,-15.359 12.33,-31.912 15.146,-48.913 4.479,-27.454 4.65,-55.163 3.732,-82.873 -0.298,-8.959 -0.853,-17.919 -1.322,-26.878 -0.043,-1.152 0,-2.304 0,-3.754 1.216,-0.065 2.24,-0.171 3.285,-0.171 19.305,0 38.61,0.042 57.958,-0.106 2.645,0 3.413,1.002 3.84,3.413 12.265,66.404 29.16,131.615 50.982,195.525 0.512,1.578 1.067,2.645 3.136,2.645 23.891,-0.086 47.782,-0.086 71.717,-0.086 0.362,0 0.746,-0.085 1.493,-0.17 l -4.117,-16.063 c -16.127,-62.63 -30.632,-125.557 -42.365,-189.083 -6.143,-32.979 -11.37,-66.128 -14.718,-99.49 -1.835,-18.665 -2.987,-37.373 -2.411,-56.103 0.341,-11.305 1.152,-22.654 4.693,-33.49 1.365,-4.308 3.413,-8.533 5.823,-12.372 3.563,-5.547 9.088,-7.808 15.785,-7.595 24.745,0.704 43.56,12.586 58.577,31.358 15.081,18.772 24.168,40.53 30.589,63.568 0.598,2.133 1.281,4.309 1.621,6.528 0.299,1.749 1.153,2.218 2.774,2.218 9.962,-0.043 19.902,-0.086 29.864,0 2.176,0.042 2.56,-0.917 2.496,-2.773 C 423.09,181.19 420.04,164.573 415.07,148.275 402.484,107.148 381.856,70.735 351.246,40.338 333.903,23.06 313.66,10.324 289.811,3.946 275.37,0.043 260.907,-0.576 246.615,4.544 c -16.213,5.76 -27.22,17.406 -35.411,32.082 -8.576,15.466 -13.077,32.254 -15.998,49.532 -5.121,29.992 -5.121,60.24 -3.669,90.488 0.895,18.986 2.709,37.907 4.116,56.871 0.299,4.052 0.342,4.052 -3.711,4.052 -18.239,0 -36.478,-0.042 -54.737,0.043 -2.219,0 -3.264,-0.511 -3.627,-2.922 C 127.819,196.016 119.99,157.726 110.668,119.777 101.005,80.484 89.891,41.618 76.815,3.307 75.876,0.598 74.597,-0.106 71.845,-0.106 49.127,0.021 26.409,-0.021 3.648,-0.021 H 0.021 Z" /></g></g></g></g></svg>