<svg xmlns="http://www.w3.org/2000/svg" viewBox="0 0 1024 1024">
   <circle cx="512" cy="512" r="512" style="fill:#313d8c"/>
   <path d="M512 234.5c-153.26.02-277.49 124.23-277.5 277.5S358.74 789.49 512 789.5 789.48 665.26 789.5 512 665.27 234.52 512 234.5zm170.06 447.57A240.5 240.5 0 1 1 752.51 512a239.67 239.67 0 0 1-70.45 170.07zm-21.4-82.65-16.95 49.29H492.26v-5.65h7a27.76 27.76 0 0 0 13.25-3.33 12.2 12.2 0 0 0 6.33-7 28.74 28.74 0 0 0 1.21-6.55q.12-1.25.22-2.69V464.04h-91.34v59q0 14.85 1.89 19.61 1.44 3.6 6.08 6.19a26.61 26.61 0 0 0 13.18 3.46h7.1v5.66H373v-5.56h7q12.23 0 17.75-7.07 3.49-4.61 3.49-22.19v-125.8q0-14.91-1.9-19.65a13 13 0 0 0-6-6.17 27.87 27.87 0 0 0-13.34-3.44h-7v-5.65h84.2v5.65h-7.1a27.8 27.8 0 0 0-13.18 3.3 12.41 12.41 0 0 0-6.22 7q-1.75 4.67-1.74 19v56h91.32v-.22h.08v-55.82q0-14.91-1.9-19.65-1.45-3.59-6.11-6.17a27.07 27.07 0 0 0-13.25-3.44h-7v-5.65h84.2v5.65h-7a28 28 0 0 0-13.24 3.3 12.11 12.11 0 0 0-6.34 7Q548 383 548 397.34v55.75h95.17l2.05 42.63h-6.68q-3-15-6.61-20.65a22.72 22.72 0 0 0-10.75-8.56q-5.7-2.12-20.06-2.11h-52.89v76.49h42.1q16.49 0 22-5 7.39-6.58 8.25-23.22h5.65v68.28h-5.65q-2-14.33-4-18.4a18 18 0 0 0-8.4-8q-5.83-2.89-17.92-2.9h-42.1v64q0 6.85.32 10.84a18.25 18.25 0 0 0 .82 4.84 9 9 0 0 0 4 4.43q2.87 1.65 10.92 1.65h33.05q16.52 0 24-2.29a35.84 35.84 0 0 0 14.38-9q8.9-8.84 18.25-26.71z" style="fill:#fff"/>
</svg>
