<svg xmlns="http://www.w3.org/2000/svg" viewBox="0 0 1024 1024">
   <circle cx="512" cy="512" r="512" style="fill:#313d8c"/>
   <path d="M512 256c-141.39 0-256 114.6-256 256s114.61 256 256 256 256-114.61 256-256-114.6-256-256-256zm156.89 412.89a221.87 221.87 0 1 1 65-156.89 221.1 221.1 0 0 1-65 156.89zm-19.74-76.25-15.64 45.47H493.79v-5.21h6.44a25.61 25.61 0 0 0 12.22-3.07 11.26 11.26 0 0 0 5.84-6.42 26.52 26.52 0 0 0 1.11-6q.11-1.15.2-2.48v-147.1h-84.23v54.47q0 13.7 1.74 18.09 1.33 3.32 5.61 5.71a24.54 24.54 0 0 0 12.16 3.19h6.55v5.22h-77.69v-5.22h6.44q11.28 0 16.38-6.52 3.22-4.25 3.22-20.47v-116q0-13.76-1.75-18.13a12 12 0 0 0-5.5-5.69 25.71 25.71 0 0 0-12.35-3.17h-6.44V374h77.68v5.21h-6.55a25.65 25.65 0 0 0-12.16 3 11.45 11.45 0 0 0-5.71 6.49q-1.61 4.31-1.61 17.53v51.63h84.24v-.21h.07v-51.43q0-13.76-1.75-18.13-1.34-3.31-5.64-5.69a25 25 0 0 0-12.22-3.17h-6.44V374h77.65v5.21h-6.44a25.84 25.84 0 0 0-12.21 3 11.17 11.17 0 0 0-5.85 6.43q-1.55 4.31-1.54 17.53v51.43h87.8l1.88 39.4h-6.16q-2.77-13.86-6.1-19a21 21 0 0 0-9.91-7.9q-5.26-2-18.51-1.95h-48.84v70.57h38.84q15.21 0 20.33-4.62 6.82-6.07 7.61-21.42h5.21v63h-5.21q-1.84-13.22-3.67-17a16.62 16.62 0 0 0-7.75-7.35q-5.38-2.67-16.53-2.67h-38.83v59q0 6.32.29 10a16.84 16.84 0 0 0 .76 4.47 8.3 8.3 0 0 0 3.72 4.09q2.65 1.53 10.08 1.52h30.49q15.24 0 22.13-2.11a33.07 33.07 0 0 0 13.27-8.31q8.21-8.16 16.83-24.64z" style="fill:#fff"/>
</svg>
