<?xml version="1.0" encoding="utf-8"?>
<!-- Generator: Adobe Illustrator 21.0.0, SVG Export Plug-In . SVG Version: 6.00 Build 0)  -->
<svg version="1.1" xmlns="http://www.w3.org/2000/svg" xmlns:xlink="http://www.w3.org/1999/xlink" x="0px" y="0px"
	 viewBox="0 0 1024 1024" style="enable-background:new 0 0 1024 1024;" xml:space="preserve">
<style type="text/css">
	.st0{fill:#0F62FE;}
	.st1{fill:#FFFFFF;}
</style>
<g id="Min_Guides__x28_DO_NOT_REMOVE_x29_">
</g>
<g id="Max_Guides__x28_DO_NOT_REMOVE_x29_">
</g>
<g id="Icon">
	<circle id="Background" class="st0" cx="512" cy="512" r="512"/>
	<path class="st1" d="M223.9,611.5h112v16h-112V611.5z M223.9,580.7h112v16.1h-112V580.7z M255.8,550h48.1v16.1h-48.1V550z
		 M255.8,519.3h48.1v16.1h-48.1V519.3z M255.8,488.6h48.1v16.1h-48.1V488.6z M255.8,457.8h48.1v16.1h-48.1V457.8z M223.9,427.1h112
		v16.1h-112V427.1z M223.9,396.4h112v16.1h-112V396.4z M351.9,596.8h172.3c2.9-4.9,5.1-10.4,6.4-16.1H351.9L351.9,596.8L351.9,596.8
		z M510.8,519.3H384v16.1h140.3C520.7,529.3,516.2,523.9,510.8,519.3L510.8,519.3z M383.9,488.6v16.1h126.9
		c5.3-4.5,9.8-9.9,13.4-16.1H383.9z M524.2,427.1H351.9v16.1h178.7C529.2,437.6,527,432.2,524.2,427.1L524.2,427.1z M471.3,396.4
		H351.9v16.1h160.5C501.2,402.2,486.5,396.4,471.3,396.4L471.3,396.4z M383.9,457.8h48v16.1h-48V457.8z M480,473.9h50.2
		c1.4-5.1,2.2-10.6,2.2-16.1H480L480,473.9z M383.9,550h48v16.1h-48L383.9,550z M480,550v16.1h52.4c0-5.5-0.7-11-2.2-16.1H480z
		 M351.9,627.4l119.3,0.2c16,0,30.4-6.2,41.2-16.1H351.9V627.4z M544,611.5h80v16h-80V611.5z M544,580.7h80v16.1h-80V580.7z
		 M576,550h48v16.1h-48V550z M576,519.3h48v16.1h-48V519.3z M646.3,427.1H544v16.1h107.8L646.3,427.1z M635.7,396.4H544v16.1h97.2
		L635.7,396.4z M720,611.5h80.1v16H720V611.5z M720,580.7h80.1v16.1H720V580.7z M720,550h48v16.1h-48V550z M720,519.3h48v16.1h-48
		V519.3z M720,504.7h48v-16.1h-91.5l-4.5,13l-4.5-13H576v16.1h48v-14.8l5.1,14.8h85.8l5.1-14.8L720,504.7z M768.1,457.8h-80.9
		l-5.5,16.1h86.4L768.1,457.8z M708.5,396.4l-5.5,16.1h97.2v-16.1H708.5z M672,627.4l5.5-15.9h-11.1L672,627.4z M661.4,596.8h21.2
		l5.7-16.1h-32.6L661.4,596.8z M650.6,566.1h42.8l5.6-16.1H645L650.6,566.1z M639.9,535.4h64.3l5.5-16.1h-75.3L639.9,535.4z
		 M576,473.9h86.5l-5.5-16.1H576L576,473.9z M692.3,443.2h107.8v-16.1H697.8L692.3,443.2z M692.3,443.2"/>
</g>
</svg>
