<svg xmlns="http://www.w3.org/2000/svg" viewBox="0 0 1024 1024">
   <circle cx="512" cy="512" r="512" style="fill:#2e3f51"/>
   <path d="M251.82 391.82h-10.66c-13.59 0-20.2 4-20.2 11.75v194.65c0 7.71 6.61 11.75 20.2 11.75h10.65c13.22 0 20.2-4 20.2-11.75V403.57c-.01-7.71-7.01-11.75-20.19-11.75Zm188.41 194.65a51.94 51.94 0 0 1 36-49.58c2.57-10.65 3.67-22.77 3.67-35.63 0-70.88-35.63-109.45-99.9-109.45h-68.69c-9.55 0-14 4.41-14 14v189.84c0 9.55 4.41 14 14 14H380q36.91 0 60.6-16.53a37.77 37.77 0 0 1-.37-6.65ZM380 566.27h-31.59V435.52H380c39.67 0 47.75 35.63 47.75 65.37s-8.09 65.38-47.75 65.38Zm112.38-3.67a23.87 23.87 0 1 1-23.87 23.87 23.87 23.87 0 0 1 23.87-23.87ZM831 552.68a4.66 4.66 0 0 0-2.2-.37c-3.31 0-5.51 1.1-7.35 4.41-1.1 1.84-2.2 3.67-3.31 5.88-4.41 7.35-8.81 15.06-15.43 20.57-8.81 7.35-21.67 11-32.69 8.81-6.61-1.1-11-5.88-14-9.55-5.14-7-7.35-16.16-7-26.81 16.16-1.47 64.64-8.45 68.68-45.17a23.21 23.21 0 0 0-5.88-18.73c-5.88-6.61-15.06-9.92-26.08-9.92-32.32 0-64.27 33.79-68.31 72.35a58.3 58.3 0 0 0 4 29 31.61 31.61 0 0 1-8.08 5.51 7.37 7.37 0 0 1-6.61.73c-2.2-1.1-2.94-3.31-3.31-5.51-1.1-7 .37-15.06 2.2-23.51 1.1-4.77 2.57-9.92 3.67-14.69 4-14 8.08-28.28 6.61-43-1.1-13.22-10.65-21.67-24.61-21.67-19.47 0-32.32 14-40.4 25.71 0-8.81-2.2-15.43-6.24-19.47s-9.55-6.24-17.26-6.24c-19.1 0-31.59 13.22-40 25 0-1.1.37-2.2.37-3.31.37-5.14.73-12.12-3.31-16.53-2.2-2.57-5.88-4-10.65-4a43.5 43.5 0 0 0-9.55.73s-4.41.73-5.88 2.2c-2.94 2.57-1.84 6.24-1.47 8.45v.73a40 40 0 0 1 .37 7c-.73 14-3.31 27.91-5.51 40-1.47 6.24-2.94 12.85-4.41 19.47-3.31 14.32-6.61 29-8.45 43.71a5.26 5.26 0 0 0 1.1 4 5.9 5.9 0 0 0 4 1.84h1.1c10.65 0 20.93-.37 23.14-6.24 2.57-6.61 4-14.69 5.51-21.67l.73-3.31c2.94-16.16 5.88-27.91 11.39-43 2.94-7.71 8.08-14.69 12.12-19.83 5.14-6.24 10.65-12.49 16.53-12.49a6.93 6.93 0 0 1 5.51 2.2c5.88 8.08-1.47 33.79-4.77 44.44-.73 2.2-1.1 4.41-1.47 5.88l-2.2 8.45c-3.31 12.49-6.61 25-8.08 38.2 0 1.47-.37 2.57-.37 4v1.84l1.47 1.1c2.57 2.2 22-.73 22-.73 7-2.57 8.81-9.18 9.18-11.39 1.47-5.88 2.57-11.39 3.67-17.26v-.37c2.2-10.65 4.41-21.67 7.71-32 6.24-20.57 15.06-34.52 25.34-41.87 4.41-2.94 9.18-3.31 11-.73 3.67 4.41 1.47 16.53.37 21.67-1.47 7-2.94 14.32-4.77 21.3v.51c-1.1 4.41-2.2 8.81-3.31 13.59-2.94 14-5.51 31.22 2.2 41.13 4 5.14 10.28 7.71 18.36 7.71 8.81 0 16.89-2.94 25.71-9.18A96.34 96.34 0 0 0 730 596c9.92 11.39 21.3 16.16 37.46 16.16 36.73 0 54-24.61 63.9-43a64.62 64.62 0 0 0 3.31-7.35c1.11-3.98-.36-7.66-3.67-9.13Zm-45.17-46.28v4.41a31.44 31.44 0 0 1-1.84 8.45c-5.14 16.89-20.2 20.2-32.69 20.57a117 117 0 0 1 7.35-20.93c6.24-12.85 14-20.57 20.57-20.57a3.31 3.31 0 0 1 1.84.37c.37 0 .37.37.73.37h.73c.37 0 .37.37.73.73l.37.37.37.37c0 .37.37.37.37.73l.37.37c0 .37.37.37.37.73a1.14 1.14 0 0 0 .37.73c0 .37.37.73.37 1.47v.37a15.91 15.91 0 0 1 .37 1.84Z" style="fill:#fff"/>
</svg>
