<svg xmlns="http://www.w3.org/2000/svg" viewBox="0 0 1024 1024">
   <circle cx="512" cy="512" r="512" style="fill:#ef4341"/>
   <path d="M198.82 439.12a17.15 17.15 0 0 1 12.24-4.77h16.8V590.5h-34.09V450.69a15.31 15.31 0 0 1 5-11.57Zm137.84 111.44q10.56-10.89 10.56-38.13 0-26.32-10.08-38.59-9.61-12.25-30.73-12.25h-31.69v100.77h27.36q23.52 0 34.57-11.8Zm-30.25-116.21q37.93 0 56.65 19.07 18.73 20 18.73 59 0 20.89-6.72 37.68-7.68 17.25-20.17 26.33a67.1 67.1 0 0 1-22.57 10.89q-11.52 3.18-35 3.18h-55.74V450.69a15.32 15.32 0 0 1 5-11.57 17.16 17.16 0 0 1 12.24-4.77Zm149.32 35.41a100.13 100.13 0 0 0-25.21 3.18 60.83 60.83 0 0 0-21.36 10A49.49 49.49 0 0 0 394 502.21q-5.52 12-5.52 29.73v58.56h33.61v-62.18q0-13.63 6.72-20t20.67-6.32h11v-32.24h-4.8Zm32.43 0h-17.29V590.5h33.61V485.19a14.5 14.5 0 0 0-4.8-10.89 16.23 16.23 0 0 0-11.52-4.54Zm120.76 0q-11.52 0-15.36 10.9l-22.56 74-25.45-84.89H510l44.66 120.73h34.09l45.13-120.74Zm-122.92-44c-10.19 0-18.45 7.81-18.45 17.45s8.26 17.45 18.45 17.45 18.46-7.81 18.46-17.45-8.26-17.45-18.46-17.45Zm333.5-23.38q-16-27.85-47.22-36.19c-20.83-5.56-40.43-2.92-59.1 7.73s-30.6 26.58-36.18 47.41c-.85 3.2-1.51 6.41-2.07 9.52 11-5.65 22-8.29 32.61-7.83 4-9.61 10.74-17.15 20.17-22.71a47.07 47.07 0 0 1 36.66-4.81c12.91 3.49 22.71 10.93 29.31 22.43a46.45 46.45 0 0 1 6.22 29.6c8.86 4.9 16.87 12.91 24.13 23.84 1.23-3.11 2.35-6.31 3.4-9.71 5.46-20.83 2.92-40.62-7.92-59.28Zm3.58 118-17.16 64.09a54.1 54.1 0 0 1-26.29 33.93c-13.38 7.73-27.53 9.71-42.41 5.75l-64.18-17.25a56.07 56.07 0 0 1-39.68-68.71l17.15-64.09a53.71 53.71 0 0 1 23.65-32.42 22 22 0 0 1 2.45-1.6 53.38 53.38 0 0 1 28-7.64 57.43 57.43 0 0 1 14.7 2l64.09 17.25a51.42 51.42 0 0 1 14.24 5.84 53.45 53.45 0 0 1 17.72 17 29.5 29.5 0 0 1 2.07 3.39 36 36 0 0 1 1.79 3.3c6.24 12.4 7.47 25.41 3.88 39.17Zm-35.78 9.12q0-30-15.36-46.76-15.84-16.34-44.65-16.34-27.37 0-42.73 16.8-14.88 16.34-14.89 45.39 0 30.42 15.36 46.76 15.37 16.8 42.73 16.8 22.57 0 37.45-10.44 14.88-10 20.17-29h-24q-5.77 0-8.88 2.27t-3.6 3.63l-2.64 2.5a6.78 6.78 0 0 1-2.65 1.59 28.38 28.38 0 0 1-13.92 3.18q-12.49 0-18.72-7.27-6.73-6.81-7.21-20.88h83.07a7.52 7.52 0 0 0 .48-3.18v-5Zm-59.05-36.77q-10.56 0-17.28 6.36t-7.21 18.16h49q-1-12.26-6.72-18.16-6.25-6.35-17.77-6.36Z" style="fill:#fff"/>
</svg>
