<svg xmlns="http://www.w3.org/2000/svg" viewBox="0 0 1024 1024">
   <circle cx="512" cy="512" r="512" style="fill:#2fbeff"/>
   <path d="M584.16 716.63a101.24 101.24 0 0 1-143.18 1l-1-1a128.65 128.65 0 0 0-73.28-36.17v28.15a103.77 103.77 0 0 1 53.33 28 129.64 129.64 0 0 0 183.84 0 101.06 101.06 0 0 1 50.34-27.22v-28.56a129.41 129.41 0 0 0-70.21 35.8m.19-71.23a101.24 101.24 0 0 1-143.18 1l-1-1a130.33 130.33 0 0 0-184 0l20 20a102 102 0 0 1 144.13 0 129.64 129.64 0 0 0 183.84 0 102 102 0 0 1 144.13 0l20-20a130.33 130.33 0 0 0-184 0m61.39-167.61h.19l-.56-154.2h-65.26l-.19-74.39-134.25.37v74.58h-65.25l.37 154.2L320 511.16l20.14 72.72a126.79 126.79 0 0 1 30.39 1.49l-16.46-59.67 144.31-77.94.37 187.2h29.09l-.56-187.2L672.16 525l-15.66 58.13A126.78 126.78 0 0 1 686 585l20.51-74.77Zm-171-199.32h76.1v-.19l.19 45.49-76.26.19Zm38.41 128.47-103.3 55.94-.37-109.63h36.36l134.25-.56h36.36l.19 109.45Z" style="fill:#fff"/>
</svg>
