<svg xmlns="http://www.w3.org/2000/svg" viewBox="0 0 1024 1024">
   <circle cx="512" cy="512" r="512" style="fill:#0084b5"/>
   <path d="M130 555.54h26.27v-87.08H130Zm7.56-79.54h11.14v72h-11.14ZM410 480.28a52.83 52.83 0 0 1 1.09 11.85v37.41a54.17 54.17 0 0 1-1.09 11.9 16 16 0 0 1-4.07 7.89 15.55 15.55 0 0 1-7.85 4 56.13 56.13 0 0 1-11.82 1h-59.21a5.09 5.09 0 1 1 0-7.55h59.25a45 45 0 0 0 9-.74 8.71 8.71 0 0 0 7.46-7.49 45.24 45.24 0 0 0 .74-9.06v-37.36a45.24 45.24 0 0 0-.74-9.06 8.68 8.68 0 0 0-7.46-7.48 45.33 45.33 0 0 0-9.06-.72h-77.97v72h1.78v-70.22h76.35a39.89 39.89 0 0 1 7.34.55 8.8 8.8 0 0 1 7.58 7.58 40 40 0 0 1 .55 7.35v37.41a39.58 39.58 0 0 1-.55 7.42 8.82 8.82 0 0 1-7.58 7.51 39.81 39.81 0 0 1-7.34.55h-67V486h66.93c3.92 0 6.12 2.21 6.12 6.12v37.38c0 3.93-2.21 6.12-6.12 6.12h-50a5.09 5.09 0 1 1 0-7.56h45.31A19.31 19.31 0 0 0 384 528a.62.62 0 0 0 .74-.74 19.3 19.3 0 0 0 .11-2.39v-28.06a11.73 11.73 0 0 0-.3-2.94 11.11 11.11 0 0 0-2.94-.3H327v43.83h59.38a32.37 32.37 0 0 0 4.68-.27 3 3 0 0 0 3-3 30.55 30.55 0 0 0 .27-4.69v-37.31a30.65 30.65 0 0 0-.27-4.69 3.82 3.82 0 0 0-.88-2.06 3.86 3.86 0 0 0-2.08-.88 30.48 30.48 0 0 0-4.68-.28h-68.8v70.16h-17V467.3h85.63a52.9 52.9 0 0 1 11.85 1.09 15.89 15.89 0 0 1 7.82 4.07 16.12 16.12 0 0 1 4.08 7.82Zm242.34 0a52.84 52.84 0 0 1 1.09 11.85v37.41a54.18 54.18 0 0 1-1.09 11.9 15.93 15.93 0 0 1-4.07 7.89 15.55 15.55 0 0 1-7.83 4 56.34 56.34 0 0 1-11.83 1h-59.34a5.09 5.09 0 1 1 0-7.55h59.32a45.23 45.23 0 0 0 9.06-.74 8.71 8.71 0 0 0 7.48-7.48 45.24 45.24 0 0 0 .72-9.06v-37.37a45.24 45.24 0 0 0-.72-9.06 8.71 8.71 0 0 0-7.48-7.48 45.24 45.24 0 0 0-9.06-.72h-78.03v72h1.8v-70.22h76.27a40 40 0 0 1 7.35.55 9.6 9.6 0 0 1 5.08 2.5 9.7 9.7 0 0 1 2.5 5.08 40 40 0 0 1 .55 7.35v37.41a39.58 39.58 0 0 1-.57 7.42 8.79 8.79 0 0 1-7.56 7.51 40 40 0 0 1-7.35.55h-66.92V486h66.91c3.92 0 6.12 2.21 6.12 6.12v37.38c0 3.93-2.21 6.12-6.12 6.12h-49.91a5.09 5.09 0 1 1 0-7.56h45.25a19.4 19.4 0 0 0 2.4-.1 1.26 1.26 0 0 0 .55-.17 1.32 1.32 0 0 0 .17-.57 19.41 19.41 0 0 0 .11-2.4v-28a11.11 11.11 0 0 0-.3-2.94 11.11 11.11 0 0 0-2.94-.3h-54.69v43.82h59.38a32.52 32.52 0 0 0 4.69-.27 3.73 3.73 0 0 0 2.06-.89 3.77 3.77 0 0 0 .88-2.06 30.56 30.56 0 0 0 .28-4.69v-37.36a30.67 30.67 0 0 0-.28-4.69 3.77 3.77 0 0 0-.88-2.06 3.72 3.72 0 0 0-2.06-.88 30.67 30.67 0 0 0-4.69-.28h-68.72v70.16H543V467.3h85.67a52.83 52.83 0 0 1 11.85 1.09 14.67 14.67 0 0 1 11.89 11.89Zm121.6 1.2a52.83 52.83 0 0 1 1.1 11.85v62.2h-26.26v-14h-48.43a5.09 5.09 0 1 1-.12-7.56h56.06v14h11.14V493.3a45.24 45.24 0 0 0-.72-9.06 8.71 8.71 0 0 0-7.48-7.48 45.24 45.24 0 0 0-9.06-.74h-60.8a45.24 45.24 0 0 0-9.06.74 8.61 8.61 0 0 0-7.44 7.48 45.24 45.24 0 0 0-.74 9.06V548h11.17v-23.41h82.39v14a5.09 5.09 0 1 1-7.56.09v-6.53h-67.26v23.38h-26.26v-62.2a56.17 56.17 0 0 1 1-11.83 15.76 15.76 0 0 1 4-7.85 16 16 0 0 1 7.89-4.07 54.17 54.17 0 0 1 11.9-1.09h60.79a53.72 53.72 0 0 1 11.85 1.09 14.66 14.66 0 0 1 11.96 11.9Zm-17.6 11.82v12.56a5.09 5.09 0 1 1-7.56 0V498a11.77 11.77 0 0 0-.28-2.94 11.78 11.78 0 0 0-2.94-.28h-51.48a19.31 19.31 0 0 0-2.39.1.62.62 0 0 0-.74.74 19.31 19.31 0 0 0-.1 2.39v17.28h67.27V493.3a30.56 30.56 0 0 0-.28-4.69 3.58 3.58 0 0 0-.88-2.06 3.69 3.69 0 0 0-2.06-.89 32.44 32.44 0 0 0-4.69-.27h-60.79a32.44 32.44 0 0 0-4.69.27 3 3 0 0 0-3 3 32.43 32.43 0 0 0-.27 4.69v45.31a5.09 5.09 0 1 1-7.56.05V493.3a40 40 0 0 1 .55-7.35 8.82 8.82 0 0 1 7.52-7.58 39.27 39.27 0 0 1 7.41-.55h60.79a40 40 0 0 1 7.35.55 8.8 8.8 0 0 1 7.58 7.58 40 40 0 0 1 .55 7.35v29.49h-82.34V493.3c0-3.93 2.19-6.12 6.12-6.12h60.79c3.92 0 6.12 2.19 6.12 6.12ZM898 540.66l-18.58 18.51-34.07-34h-11.43l-34 34-18.52-18.52L810 512l-28.61-28.66 18.52-18.52 23.23 23.23a5.08 5.08 0 1 1-5.62 5.12l-17.61-17.72-7.91 7.9 24.87 24.87h7.55L792 540.65l7.89 7.9 31-31h17.45l31.1 31 7.9-7.9-16.6-16.46a5.08 5.08 0 0 1-5-5.07 5.08 5.08 0 0 1 10.12-.55Zm-77.15-41.79h24.5l34.07-34 18.51 18.52-35.34 35.34 16.63 16.64a5.09 5.09 0 1 1-5.14 5.48L852 518.55l35.34-35.2-7.9-7.89-31.1 31h-30.78l-18.24-18.26a5.08 5.08 0 1 1 5.69-5s0 .06 0 .09Zm-315.47-31.48 26.86 26.88-.68 37.38-11.13 17.11v.42a5.09 5.09 0 1 1-7-4.7l10.23-15.8.64-31.13-22.24-22.21-51.25-.06-21 21.57v31.43l20.75 19.35 49.51-.83 14-22.29.33-22.86-16.4-16.43h-43l-15.24 16.47.92 23 14.55 13.13 38.95-.33 10.35-15.58v-16.15l-10.62-10.62h-34.78l-9 10.6.48 14.93 8.74 8.2 27.27-.27a5.09 5.09 0 1 1 .6 7l-31.06.27-13.08-12-.9-21.26 13.54-15.42 41.45.06 15.28 15.27v21.39l-13.62 21.39-47.16.11-19.21-17.51-.68-29.43 19.82-21.21h49.66l21.06 21.08V528l-18.15 26.8-56.78.74-25.46-24v-38l25.59-26.24ZM147 485.34v53.36a5.09 5.09 0 1 1-7.61-.07v-53.22a5.09 5.09 0 1 1 7.61-.07Zm143.9-10.92a5 5 0 0 1-1.3 3.37v78.35h-35.52l-59.22-59.35v59.35h-26.28v-87.08h35.48l59.22 59.33v-59.33h16.92v77.71h-22.37L197 486h-11.5v53.21a5.08 5.08 0 1 1-8.85 3.43 5 5 0 0 1 1.29-3.35V478.4h22.38l60.8 60.8h11.52v-62.58h-1.8v60.79h-8.93L201 476.62h-24.86v71.95h11.14v-60.8h8.95l60.92 60.8H282V477.8a5.08 5.08 0 1 1 8.86-3.39Zm588.55 14.2-27 27.11H830l-25 25.17a5.08 5.08 0 1 1-5-5.6l27-27.07h22.1L874 483.4a5.08 5.08 0 1 1 5.41 5.22Z" style="fill:#fff"/>
</svg>
