<svg xmlns="http://www.w3.org/2000/svg" viewBox="0 0 1024 1024" style="enable-background:new 0 0 1024 1024" xml:space="preserve">
   <circle cx="512" cy="512" r="512" style="fill:#e4405f"/>
   <path d="M512 256c-69.5 0-78.2.3-105.5 1.5-27.3 1.3-45.8 5.6-62.1 11.9-16.8 6.5-31.1 15.3-45.4 29.5s-23 28.5-29.5 45.4c-6.3 16.3-10.6 34.9-11.9 62.1-1.3 27.3-1.5 36-1.5 105.5s.3 78.2 1.5 105.5c1.3 27.2 5.6 45.8 11.9 62.1 6.5 16.8 15.3 31.1 29.5 45.4 14.2 14.2 28.5 23 45.4 29.5 16.3 6.3 34.9 10.6 62.1 11.9 27.3 1.3 36 1.5 105.5 1.5s78.2-.3 105.5-1.5c27.2-1.3 45.8-5.6 62.1-11.9 16.8-6.5 31.1-15.3 45.4-29.5 14.2-14.2 23-28.5 29.5-45.4 6.3-16.3 10.6-34.9 11.9-62.1 1.3-27.3 1.5-36 1.5-105.5s-.3-78.2-1.5-105.5c-1.3-27.2-5.6-45.8-11.9-62.1-6.5-16.8-15.3-31.1-29.5-45.4-14.2-14.2-28.5-23-45.4-29.5-16.3-6.3-34.9-10.6-62.1-11.9-27.3-1.2-36-1.5-105.5-1.5zm0 46.1c68.3 0 76.5.3 103.5 1.5 25 1.2 38.5 5.3 47.5 8.9 12 4.6 20.5 10.2 29.5 19.1 8.9 9 14.5 17.5 19.1 29.5 3.5 9 7.7 22.5 8.8 47.5 1.2 27 1.5 35.1 1.5 103.5s-.3 76.5-1.6 103.5c-1.3 25-5.5 38.5-9 47.5-4.8 12-10.2 20.5-19.2 29.5-8.9 8.9-17.6 14.5-29.4 19.1-9 3.5-22.7 7.7-47.7 8.8-27.2 1.2-35.2 1.5-103.7 1.5s-76.5-.3-103.7-1.6c-25-1.3-38.7-5.5-47.7-9-12.1-4.8-20.5-10.2-29.4-19.2-9-8.9-14.7-17.6-19.2-29.4-3.5-9-7.7-22.7-9-47.7-1-26.9-1.3-35.2-1.3-103.3 0-68.2.3-76.5 1.3-103.7 1.3-25 5.4-38.7 9-47.7 4.5-12.2 10.2-20.5 19.2-29.5 8.9-8.9 17.3-14.7 29.4-19.2 9-3.5 22.4-7.7 47.4-9 27.2-1 35.2-1.3 103.7-1.3l1 .7zm0 78.4c-72.6 0-131.5 58.9-131.5 131.5S439.4 643.5 512 643.5 643.5 584.6 643.5 512 584.6 380.5 512 380.5zm0 216.8c-47.1 0-85.3-38.2-85.3-85.3s38.2-85.3 85.3-85.3 85.3 38.2 85.3 85.3-38.2 85.3-85.3 85.3zm167.4-221.9c0 17-13.8 30.7-30.7 30.7-17 0-30.7-13.8-30.7-30.7s13.8-30.7 30.7-30.7c16.9-.1 30.7 13.7 30.7 30.7z" style="fill:#fff"/>
</svg>
