<?xml version="1.0" encoding="UTF-8" standalone="no"?>
<svg
   xmlns:dc="http://purl.org/dc/elements/1.1/"
   xmlns:cc="http://creativecommons.org/ns#"
   xmlns:rdf="http://www.w3.org/1999/02/22-rdf-syntax-ns#"
   xmlns:svg="http://www.w3.org/2000/svg"
   xmlns="http://www.w3.org/2000/svg"
   viewBox="0 0 1365.3333 1365.3333"
   height="1365.3333"
   width="1365.3333"
   xml:space="preserve"
   id="svg2"
   version="1.1"><metadata
     id="metadata8"><rdf:RDF><cc:Work
         rdf:about=""><dc:format>image/svg+xml</dc:format><dc:type
           rdf:resource="http://purl.org/dc/dcmitype/StillImage" /></cc:Work></rdf:RDF></metadata><defs
     id="defs6"><clipPath
       id="clipPath18"
       clipPathUnits="userSpaceOnUse"><path
         id="path16"
         d="M 0,1024 H 1024 V 0 H 0 Z" /></clipPath></defs><g
     transform="matrix(1.3333333,0,0,-1.3333333,0,1365.3333)"
     id="g10"><g
       id="g12"><g
         clip-path="url(#clipPath18)"
         id="g14"><g
           transform="translate(1024,512)"
           id="g20"><path
             id="path22"
             style="fill:#e5275a;fill-opacity:1;fill-rule:nonzero;stroke:none"
             d="m 0,0 c 0,-282.77 -229.23,-512 -512,-512 -282.77,0 -512,229.23 -512,512 0,282.77 229.23,512 512,512 C -229.23,512 0,282.77 0,0" /></g><g
           transform="translate(679.3809,648.6401)"
           id="g24"><path
             id="path26"
             style="fill:#ffffff;fill-opacity:1;fill-rule:nonzero;stroke:none"
             d="m 0,0 c 0,-16.96 -13.781,-30.72 -30.72,-30.72 -16.96,0 -30.719,13.781 -30.719,30.72 0,16.938 13.781,30.699 30.719,30.699 C -13.802,30.72 0,16.938 0,0 m -167.381,-221.973 c -47.146,0 -85.333,38.186 -85.333,85.333 0,47.146 38.187,85.333 85.333,85.333 47.147,0 85.333,-38.187 85.333,-85.333 0,-47.147 -38.186,-85.333 -85.333,-85.333 m 0,216.789 c -72.64,0 -131.456,-58.88 -131.456,-131.456 0,-72.64 58.88,-131.456 131.456,-131.456 72.64,0 131.456,58.88 131.456,131.456 0,72.64 -58.88,131.456 -131.456,131.456 m 0,78.464 c 68.331,0 76.48,-0.342 103.467,-1.515 24.96,-1.173 38.507,-5.312 47.509,-8.853 11.989,-4.629 20.48,-10.176 29.483,-19.115 8.939,-8.96 14.485,-17.472 19.114,-29.461 3.499,-9.003 7.68,-22.549 8.811,-47.509 1.216,-27.009 1.493,-35.115 1.493,-103.467 0,-68.352 -0.319,-76.48 -1.578,-103.467 -1.302,-24.96 -5.462,-38.507 -8.981,-47.509 -4.779,-11.989 -10.219,-20.48 -19.179,-29.483 -8.939,-8.939 -17.579,-14.485 -29.441,-19.114 -8.96,-3.499 -22.719,-7.68 -47.679,-8.811 -27.179,-1.216 -35.179,-1.493 -103.659,-1.493 -68.501,0 -76.501,0.319 -103.659,1.578 -24.981,1.302 -38.741,5.462 -47.701,8.981 -12.139,4.779 -20.48,10.219 -29.418,19.179 -8.982,8.939 -14.721,17.579 -19.201,29.441 -3.52,8.96 -7.658,22.719 -8.959,47.679 -0.96,26.88 -1.302,35.179 -1.302,103.339 0,68.181 0.342,76.501 1.302,103.701 1.301,24.96 5.439,38.699 8.959,47.659 4.48,12.16 10.219,20.48 19.201,29.461 8.938,8.939 17.279,14.699 29.418,19.158 8.96,3.541 22.422,7.701 47.381,8.981 27.201,0.96 35.201,1.28 103.659,1.28 z m 0,46.08 c -69.547,0 -78.229,-0.32 -105.536,-1.536 -27.264,-1.28 -45.824,-5.568 -62.144,-11.904 -16.832,-6.528 -31.125,-15.296 -45.355,-29.525 -14.229,-14.23 -23.018,-28.502 -29.525,-45.355 -6.336,-16.32 -10.645,-34.88 -11.904,-62.144 -1.28,-27.307 -1.536,-35.989 -1.536,-105.536 0,-69.547 0.32,-78.23 1.536,-105.536 1.28,-27.242 5.568,-45.824 11.904,-62.144 6.528,-16.81 15.296,-31.126 29.525,-45.354 14.23,-14.208 28.502,-23.02 45.355,-29.526 16.341,-6.315 34.901,-10.645 62.144,-11.904 27.307,-1.28 35.989,-1.536 105.536,-1.536 69.547,0 78.23,0.32 105.536,1.536 27.242,1.28 45.824,5.589 62.144,11.904 16.81,6.528 31.126,15.318 45.354,29.526 14.208,14.228 23.02,28.479 29.526,45.354 6.315,16.32 10.645,34.902 11.904,62.144 1.28,27.306 1.536,35.989 1.536,105.536 0,69.547 -0.32,78.229 -1.536,105.536 C 85.803,-3.861 81.494,14.741 75.179,31.04 68.651,47.872 59.861,62.165 45.653,76.395 31.425,90.624 17.174,99.413 0.299,105.92 c -16.32,6.336 -34.902,10.645 -62.144,11.904 -27.306,1.28 -35.989,1.536 -105.536,1.536" /></g></g></g></g></svg>