<?xml version="1.0" encoding="utf-8"?>
<!-- Generator: Adobe Illustrator 21.0.0, SVG Export Plug-In . SVG Version: 6.00 Build 0)  -->
<svg version="1.1" xmlns="http://www.w3.org/2000/svg" xmlns:xlink="http://www.w3.org/1999/xlink" x="0px" y="0px"
	 viewBox="0 0 1024 1024" style="enable-background:new 0 0 1024 1024;" xml:space="preserve">
<style type="text/css">
	.st0{fill:#E4405F;}
	.st1{fill:#FFFFFF;}
</style>
<g id="Guides">
</g>
<g id="Icon">
	<circle class="st0" cx="512" cy="512" r="512"/>
	<g>
		<title>Instagram icon</title>
		<path class="st1" d="M512,256c-69.5,0-78.2,0.3-105.5,1.5c-27.3,1.3-45.8,5.6-62.1,11.9c-16.8,6.5-31.1,15.3-45.4,29.5
			s-23,28.5-29.5,45.4c-6.3,16.3-10.6,34.9-11.9,62.1c-1.3,27.3-1.5,36-1.5,105.5s0.3,78.2,1.5,105.5c1.3,27.2,5.6,45.8,11.9,62.1
			c6.5,16.8,15.3,31.1,29.5,45.4c14.2,14.2,28.5,23,45.4,29.5c16.3,6.3,34.9,10.6,62.1,11.9c27.3,1.3,36,1.5,105.5,1.5
			s78.2-0.3,105.5-1.5c27.2-1.3,45.8-5.6,62.1-11.9c16.8-6.5,31.1-15.3,45.4-29.5c14.2-14.2,23-28.5,29.5-45.4
			c6.3-16.3,10.6-34.9,11.9-62.1c1.3-27.3,1.5-36,1.5-105.5s-0.3-78.2-1.5-105.5c-1.3-27.2-5.6-45.8-11.9-62.1
			c-6.5-16.8-15.3-31.1-29.5-45.4c-14.2-14.2-28.5-23-45.4-29.5c-16.3-6.3-34.9-10.6-62.1-11.9C590.2,256.3,581.5,256,512,256z
			 M512,302.1c68.3,0,76.5,0.3,103.5,1.5c25,1.2,38.5,5.3,47.5,8.9c12,4.6,20.5,10.2,29.5,19.1c8.9,9,14.5,17.5,19.1,29.5
			c3.5,9,7.7,22.5,8.8,47.5c1.2,27,1.5,35.1,1.5,103.5s-0.3,76.5-1.6,103.5c-1.3,25-5.5,38.5-9,47.5c-4.8,12-10.2,20.5-19.2,29.5
			c-8.9,8.9-17.6,14.5-29.4,19.1c-9,3.5-22.7,7.7-47.7,8.8c-27.2,1.2-35.2,1.5-103.7,1.5c-68.5,0-76.5-0.3-103.7-1.6
			c-25-1.3-38.7-5.5-47.7-9c-12.1-4.8-20.5-10.2-29.4-19.2c-9-8.9-14.7-17.6-19.2-29.4c-3.5-9-7.7-22.7-9-47.7
			c-1-26.9-1.3-35.2-1.3-103.3c0-68.2,0.3-76.5,1.3-103.7c1.3-25,5.4-38.7,9-47.7c4.5-12.2,10.2-20.5,19.2-29.5
			c8.9-8.9,17.3-14.7,29.4-19.2c9-3.5,22.4-7.7,47.4-9c27.2-1,35.2-1.3,103.7-1.3L512,302.1z M512,380.5
			c-72.6,0-131.5,58.9-131.5,131.5c0,72.6,58.9,131.5,131.5,131.5c72.6,0,131.5-58.9,131.5-131.5C643.5,439.4,584.6,380.5,512,380.5
			z M512,597.3c-47.1,0-85.3-38.2-85.3-85.3s38.2-85.3,85.3-85.3s85.3,38.2,85.3,85.3S559.1,597.3,512,597.3z M679.4,375.4
			c0,17-13.8,30.7-30.7,30.7c-17,0-30.7-13.8-30.7-30.7c0-16.9,13.8-30.7,30.7-30.7C665.6,344.6,679.4,358.4,679.4,375.4z"/>
	</g>
</g>
</svg>
