<?xml version="1.0" encoding="utf-8"?>
<!-- Generator: Adobe Illustrator 21.0.0, SVG Export Plug-In . SVG Version: 6.00 Build 0)  -->
<svg version="1.1" xmlns="http://www.w3.org/2000/svg" xmlns:xlink="http://www.w3.org/1999/xlink" x="0px" y="0px"
	 viewBox="0 0 1024 1024" style="enable-background:new 0 0 1024 1024;" xml:space="preserve">
<style type="text/css">
	.st0{fill:#0077C5;}
	.st1{fill:#FFFFFF;}
</style>
<g id="Min_Guides__x28_DO_NOT_REMOVE_x29_">
</g>
<g id="Max_Guides__x28_DO_NOT_REMOVE_x29_">
</g>
<g id="Icon">
	<circle id="Background" class="st0" cx="512" cy="512" r="512"/>
	<path class="st1" d="M390.5,486.8h37v102.9h32.9V486.8h36.9v-29.2H390.5V486.8L390.5,486.8z M608.8,530.2
		c0,17.6-9.9,35.8-30.7,35.8c-21.1,0-24.7-19.5-24.7-35.2v-73.1h-32.9v82.5c0,27,14.3,53.3,48.6,53.3c19.5,0,35.1-11.8,40.9-25h0.5
		v21.2h31.3v-132h-33V530.2z M675.4,589.7h33v-132h-33V589.7z M444,440.3c5.3,0,10.4-2.1,14.1-5.8c3.7-3.7,5.8-8.8,5.8-14.1
		c0-5.3-2.1-10.4-5.8-14.1s-8.8-5.8-14.1-5.8c-2.6,0-5.2,0.5-7.6,1.5c-2.4,1-4.6,2.5-6.5,4.3c-1.8,1.9-3.3,4.1-4.3,6.5
		c-1,2.4-1.5,5-1.5,7.6C424.1,431.4,433,440.3,444,440.3z M784.9,440.3c2.6,0,5.2-0.5,7.6-1.5c2.4-1,4.6-2.5,6.5-4.3
		c1.9-1.9,3.3-4.1,4.3-6.5c1-2.4,1.5-5,1.5-7.6c0-3.9-1.2-7.8-3.4-11.1c-2.2-3.3-5.3-5.8-8.9-7.3c-3.6-1.5-7.6-1.9-11.5-1.1
		c-3.9,0.8-7.4,2.7-10.2,5.5c-2.8,2.8-4.7,6.3-5.4,10.2c-0.8,3.9-0.4,7.9,1.1,11.5c1.5,3.6,4.1,6.7,7.3,8.9
		C777.1,439.2,781,440.3,784.9,440.3L784.9,440.3z M731.5,457.6v29.3h37v102.9h32.9V486.8h37v-29.2H731.5L731.5,457.6z M185.7,589.7
		h33v-132h-33V589.7L185.7,589.7z M325.2,453.8c-19.5,0-35.1,11.8-40.9,25h-0.5v-21.2h-31.3v132h32.9V517c0-17.6,9.9-35.8,30.8-35.8
		c21.1,0,24.7,19.6,24.7,35.2v73.2h33v-82.5C373.8,480.2,359.5,453.8,325.2,453.8L325.2,453.8z"/>
</g>
</svg>
