<?xml version="1.0" encoding="utf-8"?>
<!-- Generator: Adobe Illustrator 21.0.0, SVG Export Plug-In . SVG Version: 6.00 Build 0)  -->
<svg version="1.1" xmlns="http://www.w3.org/2000/svg" xmlns:xlink="http://www.w3.org/1999/xlink" x="0px" y="0px"
	 viewBox="0 0 1024 1024" style="enable-background:new 0 0 1024 1024;" xml:space="preserve">
<style type="text/css">
	.st0{fill:#3A8BC2;}
	.st1{fill:#FFFFFF;}
</style>
<g id="Min_Guides__x28_DO_NOT_REMOVE_x29_">
</g>
<g id="Max_Guides__x28_DO_NOT_REMOVE_x29_">
</g>
<g id="Icon">
	<circle id="Background" class="st0" cx="512" cy="512" r="512"/>
	<path class="st1" d="M433,289.5c-2.7,1.7-6.2,3.3-7.3,2.8c-6-2.8-9.7-6.6-11-11.4c13.6-7.5,27.9-13.9,42.9-19.1
		c1.1,3,2.3,4.5,7.5,7.5c-0.1,0.4-0.2,1.2-4.5,3.6c-13.4,7.3-19,11-26.2,15.7C434,288.9,433.4,289.2,433,289.5 M542,304.1
		c-0.7,4.5-1,6.4-43.8,3.4c-17.3-1.2-42.2-4.1-62-10.8c-0.1-0.2-0.3-0.5-0.5-0.7c0.3-1.3,1.1-4.3,27.8-20.5
		c6.7-3.7,6.7-3.7,12.4-2.1c7.3,2.1,27.9,6.9,62.9,6.5c3.1,0.4,3.1,0.4,3.3,23C542.1,303.3,542.1,303.7,542,304.1 M543.7,420.9
		c-3.9,19.7-165,0.6-212.8-25.2c-2.1-3.1-3.2-4.8,17.3-34.3c4.9-6.3,4.9-6.3,13.9-1.7c11.3,5.8,57,24.6,173.5,24.5
		c7.6,0.7,7.6,0.7,8.2,35C543.8,419.8,543.8,420.4,543.7,420.9 M325.2,383.3c-2.5,3.6-4.3,4.3-4.8,4.1c0,0-3.5-2.4-5.2-9.1
		c-0.1-0.3-0.1-0.8-0.2-1.1c7.8-13.1,16.8-25.5,26.7-37.1c1.6,5.3,1.6,5.5,4.4,8.7c0.5,1.1,0,3-1.6,5.6
		c-5.7,9.4-12.6,18.1-18.4,27.4C325.8,382.3,325.5,382.9,325.2,383.3 M358.9,551.7c-1.1,7.4-3,7.8-32.2-1.8
		c-11.2-3.7-31.5-11.5-41.2-22.3c-2-2.2-4.9-5.5-5.9-12c-0.1-2.1-0.1-4.2-0.2-6.3c-0.2-14.1,0.8-27.9,2.9-41.5c2.3,8.1,7,25,71.9,41
		c1.3,0.5,5.1,1.9,5.8,8.4c1.3,11-1,21.8-1.1,32.7C359,550.5,359,551.2,358.9,551.7 M546.5,567.1c-4.2,19.3-160.6-3.2-162.2-3.5
		c-8.8-2.5-8.7-5.4-6.7-41c1.3-8.4,1.3-8.4,24.5-4.8c23.6,3.7,65.9,8,133.7,7.9c10,0.8,10,0.8,10.8,39.6
		C546.6,565.8,546.6,566.5,546.5,567.1 M450.6,749.5c1.6,1,1.6,1.2,1.7,1.6c-0.1,0-9.3-1.4-23.6-7.7c-18.8-9.9-20.4-10.7-32-18.5
		l-11.7-8.4c8.2,5.3,15.4,9.3,38.6,15.2c10.4,3.2,17.3,11.6,26.1,17.2C449.9,749.1,450.3,749.3,450.6,749.5 M549.7,757.8
		c-2,4.9-55.8,0.8-82.3-3.4c-3.5-0.8-7.9-1.7-23.9-15.3c-1.6-1.6-1.6-1.8-1.4-2.8c1.2-0.3,1.2-0.3,12.8,1.5
		c15.5,2.4,43.4,5.3,88.2,5.3c6.7,0.3,6.7,0.3,6.7,14.3C549.7,757.4,549.7,757.6,549.7,757.8 M334.6,655c1.4,2.8,1,3.4,0.8,3.7
		c0,0-6.4-1.6-14.9-12.2c-13.7-23.6-14.5-25-22.1-43.3c3.9,6.5,5.5,9.1,17,16.3c0.7,0.5,2.6,1.9,5,6.3c4.9,9.1,8.6,18.8,13.5,27.9
		C334.1,654.1,334.4,654.6,334.6,655 M548.7,685c-3.8,14.1-133.8,1.2-189-15.7c-4.7-2.1-7.3-3.2-19.3-32.6c-1-3-0.8-3.4,0-5.2
		c4.1-1.4,9.9,2,14.1,3.2c24.3,7.1,80.6,19.1,184.4,18.9c9.6,0.6,9.6,0.6,10.1,30.2C548.8,684.1,548.8,684.7,548.7,685 M567.3,265.4
		c1.7,1.8,1.5,2.4,1.3,3.1c-37.4,5.4-89,0.9-93.7-12c15.4-4.2,31.4-7.1,47.7-8.5c3.3,4,17.4,4.2,25.8,2.9c1.5,0.5,8,4.5,18.1,13.7
		C566.8,264.8,567.1,265.1,567.3,265.4 M614.2,486.5c-2.3,20.7-185.2,5.9-187.1,5.7c-100.6-11.6-128.2-31.9-135.6-43
		c-1.5-2.3-2.8-5.8-3.4-8.5c4-15,9.4-29.4,16-43.2c10.9,38,146.8,60.8,296.9,49.8c9.2,0.1,9.2,0.1,13.2,37.4
		C614.2,485.3,614.3,486,614.2,486.5 M686.1,619.8c-11,30-363.4,31.1-393.9-33.9c-7.1-25.4-8-28.7-10.8-49.1
		c16,54.7,238.8,72.4,399.9,46.2c9.2,0.3,9,1.6,5.2,35.2C686.3,618.7,686.2,619.4,686.1,619.8 M663.8,345
		c11.5,25.9-209.9,27-278.7,1.4c-25.3-9.4-27.5-18.4-28.4-22.2c10.9-10.7,22.8-20.5,35.5-29.3c9.7,31.2,150.1,43.6,246.2,21.8
		c5.1,0.2,6.5,0.3,24.7,26.9C663.3,344.1,663.6,344.6,663.8,345 M628.7,723.2c-14.6,18.6-216.7,14.5-261.5-21.3
		c-17.3-16.8-20-19.4-32.7-35.3l-1-1.3c31.3,33.4,167.8,49.1,297.9,34.3c8,0.3,7.3,2.2-2.1,22.6
		C629.1,722.5,628.9,722.9,628.7,723.2"/>
</g>
</svg>
