<?xml version="1.0" encoding="UTF-8" standalone="no"?>
<svg
   xmlns:dc="http://purl.org/dc/elements/1.1/"
   xmlns:cc="http://creativecommons.org/ns#"
   xmlns:rdf="http://www.w3.org/1999/02/22-rdf-syntax-ns#"
   xmlns:svg="http://www.w3.org/2000/svg"
   xmlns="http://www.w3.org/2000/svg"
   viewBox="0 0 1365.3333 1365.3333"
   height="1365.3333"
   width="1365.3333"
   xml:space="preserve"
   id="svg2"
   version="1.1"><metadata
     id="metadata8"><rdf:RDF><cc:Work
         rdf:about=""><dc:format>image/svg+xml</dc:format><dc:type
           rdf:resource="http://purl.org/dc/dcmitype/StillImage" /></cc:Work></rdf:RDF></metadata><defs
     id="defs6"><clipPath
       id="clipPath18"
       clipPathUnits="userSpaceOnUse"><path
         id="path16"
         d="M 0,1024 H 1024 V 0 H 0 Z" /></clipPath></defs><g
     transform="matrix(1.3333333,0,0,-1.3333333,0,1365.3333)"
     id="g10"><g
       id="g12"><g
         clip-path="url(#clipPath18)"
         id="g14"><g
           transform="translate(1024,512)"
           id="g20"><path
             id="path22"
             style="fill:#f04155;fill-opacity:1;fill-rule:nonzero;stroke:none"
             d="m 0,0 c 0,-282.77 -229.23,-512 -512,-512 -282.77,0 -512,229.23 -512,512 0,282.77 229.23,512 512,512 C -229.23,512 0,282.77 0,0" /></g><g
           transform="translate(511.9785,496.7568)"
           id="g24"><path
             id="path26"
             style="fill:#ffffff;fill-opacity:1;fill-rule:nonzero;stroke:none"
             d="m 0,0 v -0.021 c -0.042,-0.043 -45.612,-41.901 -53.826,-56.792 l 29.847,1.195 v -26.028 c 0,-1.216 11.968,-0.725 23.958,-0.17 H 0 c 11.99,-0.555 23.958,-1.046 23.958,0.17 v 26.028 l 29.847,-1.195 C 45.612,-41.922 -0.021,-0.021 -0.021,-0.021 V 0 Z m -95.96,49.217 v -0.021 h 0.021 c 16.939,-0.043 31.958,0 50.604,-20.331 14.657,1.535 29.996,2.303 45.335,2.282 h 0.021 c 15.339,0.021 30.658,-0.746 45.335,-2.282 18.625,20.331 33.665,20.31 50.605,20.331 h 0.021 v 0.021 c 8,0 40.001,0 62.296,-62.615 l 23.937,-85.891 c 17.75,-63.896 -5.675,-65.475 -34.903,-65.518 -43.33,1.622 -67.331,33.09 -67.331,64.558 -23.979,-3.926 -51.969,-5.889 -79.96,-5.889 H 0 c -27.99,0 -55.98,1.963 -79.96,5.889 0,-31.468 -24.001,-62.936 -67.331,-64.558 -29.227,0.065 -52.652,1.622 -34.902,65.518 l 23.958,85.891 c 22.294,62.615 54.296,62.615 62.296,62.615 z m 42.753,55.277 c -2.837,-4.907 -6.145,-9.131 -9.963,-12.822 l -0.021,-0.021 c -10.71,-10.454 -25.367,-16.94 -41.538,-16.94 h -0.064 c -16.193,0 -30.871,6.465 -41.58,16.961 -3.883,3.798 -6.827,7.851 -9.515,12.587 h -0.022 c -2.688,-4.736 -6.443,-8.789 -10.346,-12.587 -10.71,-10.475 -25.388,-16.939 -41.581,-16.939 h -0.064 c -1.941,0 -3.968,0.533 -5.611,1.109 -2.282,-23.723 -3.242,-46.402 -3.584,-62.936 v -0.085 c -0.042,-8.405 -0.085,-15.297 -0.128,-24.896 0.448,-49.794 -4.928,-161.371 21.953,-188.786 41.666,-9.707 118.319,-14.145 195.229,-14.166 h 0.021 c 76.91,0.021 153.563,4.459 195.228,14.166 26.881,27.415 21.505,139.013 21.953,188.786 -0.043,9.599 -0.086,16.491 -0.128,24.896 v 0.085 c -0.342,16.534 -1.302,39.213 -3.584,62.936 -1.643,-0.554 -3.67,-1.109 -5.611,-1.109 h -0.043 c -16.192,0 -30.87,6.464 -41.58,16.96 h 0.021 c -3.882,3.798 -7.637,7.851 -10.346,12.588 h -0.022 c -2.71,-4.737 -5.653,-8.79 -9.514,-12.588 -10.71,-10.474 -25.388,-16.96 -41.56,-16.96 h -0.064 c -16.171,0 -30.828,6.486 -41.538,16.96 -3.818,3.713 -7.125,7.937 -9.835,12.566 l -0.149,0.278 C 50.392,99.63 47.105,95.406 43.33,91.693 32.62,81.219 17.942,74.733 1.749,74.733 H 1.686 c -0.555,0 -1.131,0.021 -1.686,0.042 h -0.021 c -0.555,-0.021 -1.131,-0.042 -1.707,-0.042 h -0.064 c -16.193,0 -30.871,6.464 -41.58,16.96 h 0.021 c -3.797,3.713 -7.062,7.937 -9.728,12.566 l -0.15,0.278 z m -136.048,138.181 c -22.336,-13.27 -66.328,-63.81 -66.754,-77.059 v -21.952 c 0,-27.82 26.006,-52.269 49.602,-52.269 28.353,0 51.97,23.489 51.97,51.373 0,-27.884 22.806,-51.373 51.159,-51.373 28.353,0 50.434,23.489 50.434,51.373 0,-27.884 24.257,-51.373 52.61,-51.373 h 0.511 c 28.354,0 52.611,23.489 52.611,51.373 0,-27.884 22.08,-51.373 50.433,-51.373 28.353,0 51.159,23.489 51.159,51.373 0,-27.884 23.618,-51.373 51.97,-51.373 23.617,0 49.602,24.449 49.602,52.269 v 21.952 c -0.427,13.249 -44.417,63.811 -66.754,77.059 -69.421,2.432 -117.551,2.859 -189.255,2.837 -71.704,-0.021 -169.5,-1.13 -189.255,-2.837 z" /></g></g></g></g></svg>