<?xml version="1.0" encoding="utf-8"?>
<!-- Generator: Adobe Illustrator 21.0.0, SVG Export Plug-In . SVG Version: 6.00 Build 0)  -->
<svg version="1.1" xmlns="http://www.w3.org/2000/svg" xmlns:xlink="http://www.w3.org/1999/xlink" x="0px" y="0px"
	 viewBox="0 0 1024 1024" style="enable-background:new 0 0 1024 1024;" xml:space="preserve">
<style type="text/css">
	.st0{fill:#FA5C5C;}
	.st1{fill:#FFFFFF;}
</style>
<g id="Guides">
</g>
<g id="Icon">
	<circle class="st0" cx="512" cy="512" r="512"/>
	<path class="st1" d="M322.7,284.6c-22.3,13.3-66.3,63.8-66.8,77.1v22c0,27.8,26,52.3,49.6,52.3c28.4,0,52-23.5,52-51.4
		c0,27.9,22.8,51.4,51.2,51.4c28.4,0,50.4-23.5,50.4-51.4c0,27.9,24.3,51.4,52.6,51.4h0.5c28.4,0,52.6-23.5,52.6-51.4
		c0,27.9,22.1,51.4,50.4,51.4c28.4,0,51.2-23.5,51.2-51.4c0,27.9,23.6,51.4,52,51.4c23.6,0,49.6-24.4,49.6-52.3v-22
		c-0.4-13.2-44.4-63.8-66.8-77.1c-69.4-2.4-117.6-2.9-189.3-2.8S342.5,282.9,322.7,284.6L322.7,284.6z M458.8,422.7
		c-2.8,4.9-6.1,9.1-10,12.8l0,0c-10.7,10.5-25.4,16.9-41.5,16.9c0,0,0,0-0.1,0c-16.2,0-30.9-6.5-41.6-17l0,0
		c-3.9-3.8-6.8-7.9-9.5-12.6h0c-2.7,4.7-6.4,8.8-10.3,12.6c-10.7,10.5-25.4,16.9-41.6,16.9c0,0,0,0-0.1,0l0,0c-1.9,0-4-0.5-5.6-1.1
		c-2.3,23.7-3.2,46.4-3.6,62.9v0.1c0,8.4-0.1,15.3-0.1,24.9c0.4,49.8-4.9,161.4,22,188.8c41.7,9.7,118.3,14.1,195.2,14.2h0
		c76.9,0,153.6-4.5,195.2-14.2c26.9-27.4,21.5-139,22-188.8c0-9.6-0.1-16.5-0.1-24.9v-0.1c-0.3-16.5-1.3-39.2-3.6-62.9
		c-1.6,0.6-3.7,1.1-5.6,1.1c0,0,0,0,0,0c-16.2,0-30.9-6.5-41.6-17h0c-3.9-3.8-7.6-7.9-10.3-12.6h0c-2.7,4.7-5.7,8.8-9.5,12.6
		c-10.7,10.5-25.4,17-41.6,17c0,0,0,0-0.1,0l0,0c-16.2,0-30.8-6.5-41.5-17c-3.8-3.7-7.1-7.9-9.8-12.6l-0.1-0.3
		c-2.8,4.9-6.1,9.1-9.9,12.8l0,0c-10.7,10.5-25.4,17-41.6,17c0,0,0,0-0.1,0l0,0c-0.6,0-1.1,0-1.7,0h0c-0.6,0-1.1,0-1.7,0
		c0,0,0,0-0.1,0c-16.2,0-30.9-6.5-41.6-17h0c-3.8-3.7-7.1-7.9-9.7-12.6L458.8,422.7L458.8,422.7z M416,478L416,478L416,478
		c17,0.1,32,0,50.6,20.4c14.7-1.5,30-2.3,45.3-2.3h0c15.3,0,30.7,0.7,45.3,2.3C576,478,591,478.1,607.9,478h0v0c8,0,40,0,62.3,62.6
		l23.9,85.9c17.8,63.9-5.7,65.5-34.9,65.5C616,690.4,592,659,592,627.5c-24,3.9-52,5.9-80,5.9h0c-28,0-56-2-80-5.9
		c0,31.5-24,62.9-67.3,64.6c-29.2-0.1-52.7-1.6-34.9-65.5l24-85.9C376,478,408,478,416,478L416,478z M512,527.2L512,527.2
		c0,0.1-45.6,41.9-53.8,56.8l29.8-1.2v26c0,1.2,12,0.7,24,0.2h0c12,0.6,24,1,24-0.2v-26l29.8,1.2C557.6,569.2,512,527.3,512,527.2
		L512,527.2L512,527.2L512,527.2z"/>
</g>
</svg>
