<svg xmlns="http://www.w3.org/2000/svg" viewBox="0 0 1024 1024">
   <circle cx="512" cy="512" r="512" style="fill:#f34"/>
   <path d="M267 451.9c-.5-22.6-28-28.1-31.4-29-3.6-.9-3.2-4.9-3.2-4.9h85.1c.5 0 1 .2 1.3.6.3.4.5.9.4 1.4l-29.6 181.8c-.1.8-.8 1.4-1.6 1.4l-44.2 2.6h-.1c-.5 0-.9-.2-1.3-.6-.3-.4-.5-.9-.4-1.4l25-151.9zm225.5-33c.3.5.3 1.1.1 1.7L405 592.2c-.3.5-.8.9-1.4.9l-50.4 2.9h-.1c-.8 0-1.5-.6-1.6-1.4L319.2 420c-.1-.5 0-1 .4-1.4.3-.4.8-.6 1.3-.6h43.6c.8 0 1.5.6 1.6 1.4l20.4 116.1L446.2 419c.3-.6.9-.9 1.5-.9H491c.6 0 1.2.3 1.5.8zm134.9 36.8c.6 5.2.3 11.4-.8 18.2l-3.8 22.1c-2.4 13.6-6.9 24.4-13.3 31.9s-13.1 13-19.9 16.5c-7.9 4-16.6 6.3-25.9 6.9h-40.5l-5 31c-.1.8-.8 1.4-1.5 1.4l-41.6 2.4h-.1c-.5 0-.9-.2-1.2-.6-.3-.4-.5-.9-.4-1.4l26.7-164.7c.1-.8.8-1.4 1.6-1.4h82.8c9.4.6 17.5 2.9 24.4 6.9 2.8 1.8 5.6 4 8.2 6.7 2.7 2.7 4.9 6.1 6.7 10.1 1.9 4.1 3.1 8.7 3.6 14zm-48 39.4 3.5-21.5c.1-2.4-.1-4.6-.7-6.4-.6-1.6-1.7-3-3.1-4.3-1.3-1.2-3.5-1.8-6.5-1.8h-35.3L530 508h34.7c3.1 0 5.6-.6 7.4-1.8 1.9-1.3 3.4-2.8 4.6-4.4 1.3-1.9 2.3-4.2 2.7-6.7zm210.6-77c.5 0 .9.2 1.3.6.3.4.5.9.4 1.4l-24.2 156.2c-.1.8-.8 1.4-1.5 1.5l-57.1 3.5c-.7 0-1.4-.4-1.6-1.2l-22.7-67.5-10.7 69.4c-.1.8-.8 1.4-1.5 1.5 0 0-42.8 2.6-42.9 2.6-.5 0-.9-.2-1.2-.6-.3-.4-.5-.9-.4-1.5l25.7-164.6c.1-.8.8-1.5 1.6-1.5h42.1c.7 0 1.3.5 1.6 1.2l32.5 96.4 15-96.1c.1-.8.8-1.5 1.6-1.5h42z" style="fill:#fff"/>
</svg>
