<?xml version="1.0" encoding="utf-8"?>
<!-- Generator: Adobe Illustrator 21.0.0, SVG Export Plug-In . SVG Version: 6.00 Build 0)  -->
<svg version="1.1" xmlns="http://www.w3.org/2000/svg" xmlns:xlink="http://www.w3.org/1999/xlink" x="0px" y="0px"
	 viewBox="0 0 1024 1024" style="enable-background:new 0 0 1024 1024;" xml:space="preserve">
<style type="text/css">
	.st0{fill:#FF3344;}
	.st1{fill:#FFFFFF;}
</style>
<g id="Guides">
</g>
<g id="Icon">
	<circle class="st0" cx="512" cy="512" r="512"/>
	<path id="Logo" class="st1" d="M267,451.9c-0.5-22.6-28-28.1-31.4-29c-3.6-0.9-3.2-4.9-3.2-4.9H274h43.5c0.5,0,1,0.2,1.3,0.6
		c0.3,0.4,0.5,0.9,0.4,1.4l-29.6,181.8c-0.1,0.8-0.8,1.4-1.6,1.4l-44.2,2.6c0,0-0.1,0-0.1,0c-0.5,0-0.9-0.2-1.3-0.6
		c-0.3-0.4-0.5-0.9-0.4-1.4L267,451.9z M492.5,418.9c0.3,0.5,0.3,1.1,0.1,1.7l-87.6,171.6c-0.3,0.5-0.8,0.9-1.4,0.9l-50.4,2.9
		c0,0-0.1,0-0.1,0c-0.8,0-1.5-0.6-1.6-1.4l-32.3-174.6c-0.1-0.5,0-1,0.4-1.4c0.3-0.4,0.8-0.6,1.3-0.6h43.6c0.8,0,1.5,0.6,1.6,1.4
		l20.4,116.1L446.2,419c0.3-0.6,0.9-0.9,1.5-0.9H491C491.6,418.1,492.2,418.4,492.5,418.9z M627.4,455.7c0.6,5.2,0.3,11.4-0.8,18.2
		l-3.8,22.1c-2.4,13.6-6.9,24.4-13.3,31.9c-6.4,7.5-13.1,13-19.9,16.5c-7.9,4-16.6,6.3-25.9,6.9l-40.5,0l-5,31
		c-0.1,0.8-0.8,1.4-1.5,1.4l-41.6,2.4c0,0-0.1,0-0.1,0c-0.5,0-0.9-0.2-1.2-0.6c-0.3-0.4-0.5-0.9-0.4-1.4l26.7-164.7
		c0.1-0.8,0.8-1.4,1.6-1.4h82.8c9.4,0.6,17.5,2.9,24.4,6.9c2.8,1.8,5.6,4,8.2,6.7c2.7,2.7,4.9,6.1,6.7,10.1
		C625.7,445.8,626.9,450.4,627.4,455.7z M579.4,495.1l3.5-21.5c0.1-2.4-0.1-4.6-0.7-6.4c-0.6-1.6-1.7-3-3.1-4.3
		c-1.3-1.2-3.5-1.8-6.5-1.8h-35.3L530,508h34.7c3.1,0,5.6-0.6,7.4-1.8c1.9-1.3,3.4-2.8,4.6-4.4C578,499.9,579,497.6,579.4,495.1z
		 M790,418.1c0.5,0,0.9,0.2,1.3,0.6c0.3,0.4,0.5,0.9,0.4,1.4l-24.2,156.2c-0.1,0.8-0.8,1.4-1.5,1.5l-57.1,3.5
		c-0.7,0-1.4-0.4-1.6-1.2l-22.7-67.5l-10.7,69.4c-0.1,0.8-0.8,1.4-1.5,1.5c0,0-42.8,2.6-42.9,2.6c-0.5,0-0.9-0.2-1.2-0.6
		c-0.3-0.4-0.5-0.9-0.4-1.5l25.7-164.6c0.1-0.8,0.8-1.5,1.6-1.5h42.1c0.7,0,1.3,0.5,1.6,1.2l32.5,96.4l15-96.1
		c0.1-0.8,0.8-1.5,1.6-1.5H790z"/>
</g>
</svg>
