<?xml version="1.0" encoding="utf-8"?>
<!-- Generator: Adobe Illustrator 21.0.0, SVG Export Plug-In . SVG Version: 6.00 Build 0)  -->
<svg version="1.1" xmlns="http://www.w3.org/2000/svg" xmlns:xlink="http://www.w3.org/1999/xlink" x="0px" y="0px"
	 viewBox="0 0 1024 1024" style="enable-background:new 0 0 1024 1024;" xml:space="preserve">
<style type="text/css">
	.st0{fill:#FFFFFF;}
</style>
<g id="Guides">
</g>
<g id="Icon">
	<circle cx="512" cy="512" r="512"/>
	<g id="Logo">
		<path id="_Path_3" class="st0" d="M258.3,367.1l18-16.8c3.4,5.5,9.2,9.1,15.6,9.6c7.2,0,10.8-4.8,10.8-14.4v-63.7h27.7v63.7
			c2.1,18.4-11.1,35.1-29.5,37.3c-2.6,0.3-5.2,0.3-7.8,0C279.6,384.6,266.1,378.5,258.3,367.1z"/>
		<path id="_Path_4" class="st0" d="M336.5,283H417v22.8h-52.9v15.6h48.1v21.6h-48.1v15.6h54.1v24h-80.5L336.5,283z"/>
		<path id="_Path_5" class="st0" d="M453.1,307H423v-24h87.8v24h-30.1v75.7h-27.7V307z"/>
		<path id="_Compound_Path_" class="st0" d="M260.7,405.6h51.7c9.9-0.3,19.6,2.6,27.7,8.4c4.1,4.6,6.3,10.7,6,16.8l0,0
			c0.3,10.2-6,19.4-15.6,22.8c11.5,2.1,19.7,12.3,19.2,24l0,0c0,16.8-14.4,27.7-37.3,27.7h-51.7V405.6z M318.4,436.9
			c0-6-4.8-8.4-12-8.4h-18v18h16.8C313.6,445.3,318.4,442.9,318.4,436.9L318.4,436.9z M308.8,465.7h-21.6v18h21.6
			c8.4,0,13.2-3.6,13.2-9.6l0,0C322.1,468.1,317.2,465.7,308.8,465.7z"/>
		<path id="_Compound_Path_2" class="st0" d="M354.5,405.6h46.9c11.9-1.1,23.6,2.8,32.5,10.8c5.9,6.1,9,14.4,8.4,22.8l0,0
			c0.3,13.6-7.9,26-20.4,31.3l24,34.9h-31.3l-20.4-30.1h-12v30.1h-27.7L354.5,405.6z M400.2,453.7c9.6,0,14.4-4.8,14.4-12l0,0
			c0-8.4-6-12-14.4-12h-18v24H400.2z"/>
		<path id="_Compound_Path_3" class="st0" d="M474.7,405.6h26.4l42.1,101h-30.1l-7.2-18h-38.5l-7.2,18h-28.9L474.7,405.6z
			 M498.8,465.7L488,438.1l-10.8,27.7H498.8z"/>
		<path id="_Path_6" class="st0" d="M546.9,405.6h27.7v99.8h-27.7V405.6z"/>
		<path id="_Path_7" class="st0" d="M581.7,405.6H607l40.9,52.9v-52.9h27.7v99.8h-24l-42.1-54.1v55.3h-27.7V405.6z"/>
		<path id="_Path_8" class="st0" d="M677.9,491l15.6-18c8.9,8,20.5,12.3,32.5,12c7.2,0,12-2.4,12-7.2l0,0c0-4.8-3.6-6-16.8-9.6
			c-21.6-4.8-37.3-10.8-37.3-31.3l0,0c0-18,14.4-32.5,38.5-32.5c14.7-0.4,29.2,4.2,40.9,13.2l-14.4,19.2c-8.2-5.7-17.7-9-27.7-9.6
			c-7.2,0-9.6,2.4-9.6,6l0,0c0,4.8,3.6,6,16.8,9.6c22.8,4.8,37.3,12,37.3,31.3l0,0c0,20.4-15.6,32.5-40.9,32.5
			C707.7,507.9,690.8,502.3,677.9,491z"/>
		<rect id="_Path_2" x="260.7" y="703.8" class="st0" width="229.6" height="38.5"/>
	</g>
</g>
</svg>
