<svg xmlns="http://www.w3.org/2000/svg" viewBox="0 0 1024 1024">
   <circle cx="512" cy="512" r="512" style="fill:#002d72"/>
   <path d="M512 305.75c-71.2 0-142.5 7.534-211.91 22.379l-.682.139-.648.207c-11.102 2.738-19.258 13.159-19.258 25.197l.023 37.719c0 272.01 168.31 382.36 219.91 409.7 4.125 2.195 8.4 3.316 12.65 3.316 4.275 0 8.516-1.122 12.605-3.352 51.456-27.264 219.81-137.65 219.81-409.66v-37.718c0-11.75-7.924-22.078-19.13-25.162l-.233-.094-1.467-.334c-69.282-14.822-140.49-22.332-211.67-22.332zm0 15.203c71.523 0 141.26 7.626 208.46 21.986l.162.057a10.87 10.87 0 0 1 8.688 10.664l-.024 37.73c0 24.78-1.501 48.152-4.193 70.275-139.56-29.471-286.39-29.47-426.15.07-2.704-22.158-4.205-45.553-4.205-70.346l-.024-37.73c0-5.118 3.524-9.392 8.295-10.582l.254-.082c67.318-14.406 137.14-22.043 208.74-22.043zm-72.984 21.193c-12.712-.01-24.581 1.02-34.295 3.057 0 0-22.216 10.998-22.551 11.703l-34.428 75.959c-1.12 2.114.647 3.916 2.6 3.511 52.323-9.924 112.42-12.984 161.63-12.984h.046c49.215 0 109.31 3.06 161.62 12.984 1.976.405 3.72-1.397 2.612-3.511l-34.381-75.96c-.37-.704-22.586-11.702-22.586-11.702-28.247-5.927-74.781-3.327-107.23 8.607h-.117c-21.312-7.832-48.657-11.644-72.926-11.664zM408.498 355.9l-16.602 47.287c33.63-6.354 70.83-8.724 112.05 4.77l-.08 3.64c-37.292-1.479-101.66-1.479-133.93 10.074l22.932-57.406 15.63-8.365zm206.47 0 15.654 8.365 22.932 57.406c-30.615-11.553-94.988-11.553-133.96-10.074v-3.64c41.22-13.494 78.432-11.124 112.05-4.77L614.962 355.9zm-112.44 104.75v324.79c-56.886-31.389-171.12-120.41-200.65-302.93l1.387-.29c65.03-13.735 132.03-20.944 199.26-21.58zm18.969 0c13.424.116 26.837.463 40.215 1.121v68.37l-40.215-26.78v-42.71zm80.453 3.916c13.447 1.19 26.873 2.575 40.229 4.297v114.82l40.191 26.756v-135.5c12.858 2.195 25.669 4.54 38.412 7.232l1.375.3c-7.971 49.272-22.135 91.683-39.684 128.04-.035.045-.069.148-.104.194-12.084 25.023-25.752 47.217-40.146 66.684-.034.035-.033.045-.044.045-13.101 17.71-26.7 33.285-40.23 46.721v-73.58l-40.237-26.779v135.33c-14.961 11.287-28.743 19.997-40.215 26.316v-188.43l40.215 26.78v-93.647l40.238 26.756V464.56zm0 186.01 40.229 26.768v-93.658l-40.229-26.768v93.658zm-185.48-155.13c-40.585 0-73.615 33.028-73.615 73.625s33.03 73.615 73.615 73.615c40.597 0 73.625-33.019 73.625-73.615s-33.028-73.625-73.625-73.625zm-13.332 10.686c-5.684 6.146-12.466 15.088-17.596 26.768-7.093-1.536-13.192-3.441-18.16-5.324 9.069-10.71 21.534-18.428 35.756-21.443zm26.732.023c14.187 3.016 26.652 10.734 35.709 21.432-4.98 1.895-11.055 3.776-18.148 5.313-5.118-11.668-11.888-20.598-17.561-26.744zm-8.768 4.3c5.014 5.152 11.668 13.283 16.81 24.108-5.188.751-10.79 1.237-16.81 1.41v-25.52zm-9.289.103v25.416c-5.973-.174-11.529-.66-16.693-1.399 5.107-10.733 11.691-18.853 16.693-24.018zm-50.023 24.78c5.453 2.207 12.257 4.494 20.494 6.354-2.195 6.828-3.662 14.43-4.101 22.736h-25.82c.762-10.629 4.125-20.506 9.427-29.09zm109.36 0a63.812 63.812 0 0 1 9.44 29.09h-25.785c-.428-8.306-1.918-15.908-4.09-22.735 8.214-1.86 14.994-4.147 20.436-6.354zm-79.586 8.098c6.158.982 12.927 1.617 20.252 1.836v19.156h-24.318c.44-7.682 1.918-14.684 4.067-20.992zm49.908 0a80.996 80.996 0 0 1 4.031 20.992h-24.398v-19.156c7.336-.22 14.163-.854 20.367-1.836zm-89.107 30.268h25.82c.44 8.318 1.906 15.897 4.078 22.736-8.214 1.849-15.018 4.147-20.47 6.354a63.619 63.619 0 0 1-9.428-29.09zm35.133 0h24.318v19.156c-7.324.22-14.094.83-20.252 1.813-2.149-6.285-3.627-13.286-4.066-20.97zm33.607 0h24.398c-.45 7.683-1.929 14.684-4.078 20.992-6.169-1.005-12.984-1.616-20.32-1.836v-19.156zm33.7 0h25.784a63.769 63.769 0 0 1-9.44 29.09c-5.44-2.206-12.255-4.505-20.435-6.341 2.172-6.851 3.662-14.418 4.09-22.748zm-42.989 28.455v25.416c-5.002-5.187-11.587-13.285-16.693-24.018 5.164-.739 10.721-1.213 16.693-1.398zm9.29 0c6.007.185 11.585.66 16.75 1.41-5.119 10.803-11.749 18.924-16.75 24.054V602.16zm-35.562 3.075c5.13 11.668 11.912 20.633 17.596 26.768-14.233-3.016-26.699-10.734-35.768-21.455 4.98-1.884 11.078-3.776 18.172-5.313zm61.89.01c7.093 1.524 13.168 3.419 18.147 5.302-9.057 10.709-21.522 18.416-35.709 21.432 5.673-6.134 12.443-15.089 17.561-26.734z" style="fill:#fff"/>
</svg>
