<?xml version="1.0" encoding="utf-8"?>
<!-- Generator: Adobe Illustrator 21.0.0, SVG Export Plug-In . SVG Version: 6.00 Build 0)  -->
<svg version="1.1" xmlns="http://www.w3.org/2000/svg" xmlns:xlink="http://www.w3.org/1999/xlink" x="0px" y="0px"
	 viewBox="0 0 1024 1024" style="enable-background:new 0 0 1024 1024;" xml:space="preserve">
<style type="text/css">
	.st0{fill:#FFC106;}
	.st1{fill:#FFFFFF;}
</style>
<g id="Min_Guides__x28_DO_NOT_REMOVE_x29_">
</g>
<g id="Max_Guides__x28_DO_NOT_REMOVE_x29_">
</g>
<g id="Icon">
	<circle id="Background" class="st0" cx="512" cy="512" r="512"/>
	<g>
		<path class="st1" d="M258.8,309.4c6.6-4.9,14.5-7.9,22.7-8.6c8.6-0.8,17.3,1,24.9,5.1c9.1,4.8,16.4,13,20.3,22.5
			c3.4,8.3,4.1,17.7,2.3,26.4c60.8,34.8,121.7,69.6,182.5,104.4c-3.9-9.5-6.9-19.5-8.9-29.6c-1.2-6.3-2-12.7-1.9-19.2
			c-0.1-9.1,1.6-18.6,6.5-26.4c3.8-6,9.6-10.6,16.1-13.3c8.3-3.4,17.5-4.2,26.4-3.9c18.2,0.7,35.9,5.4,53.1,11
			c22.6,7.5,44.5,17.2,66,27.5c37.3,18.2,73.4,38.8,108.9,60.3c7.9-5.6,17.6-8.6,27.2-8.3c15.5,0.3,30.4,9.4,37.7,23.1
			c7.8,13.9,7.2,32.1-1.5,45.4c-4.4,6.9-10.7,12.6-18.2,16.2c-8.7,4.3-18.8,5.5-28.2,3.6c-14.2-2.8-26.6-12.9-32.2-26.3
			c-3.7-8.6-4.5-18.3-2.5-27.4c-14.3-0.1-28.6,0.2-43,0.1c-15.6,0.2-31.2,0.1-46.8,0.2c5.5,6.8,8.2,15.4,10.8,23.6
			c5.4,18.8,8.7,38.2,11.9,57.5c3.4,20.9,6.4,41.9,9.9,62.8c1.7,10,3.6,20,6.1,29.8c1.2,4.6,2.6,9.3,4.5,13.7
			c-6.5-4.7-11.5-11.2-16.4-17.4c-10.3-13.3-19.8-27.2-31.3-39.5c-10-10.6-21.5-20.4-35.5-25.2c-11.4-4-24-3.9-35.5-0.3
			c-15.7,4.8-29.4,14.5-41.6,25.2c-19.7,17.5-36.1,38.2-51.4,59.5c-21.2-8.7-42.8-16.2-65-21.8c-16.7-4.2-33.6-7.3-50.8-8.4
			c-19.2-1.2-38.9-0.1-57.3,5.8c-7,2.3-13.8,5.4-20.4,8.6c-4,2-7.9,4.1-11.5,6.7c-1,0.8-2.2,1.5-2.5,2.8
			c-4.5,12.9-15.3,23.3-28.3,27.4c-9.9,3.2-20.9,2.8-30.5-1.2c-13.3-5.3-23.6-17.5-26.6-31.5c-2.3-10.5-0.9-21.8,4.3-31.2
			c7.4-13.9,22.6-23.2,38.3-23.2c11.2-0.3,22.3,3.9,30.6,11.4c43.5-29.6,87.1-59.2,130.6-88.8c-37.8-50.4-75.7-100.8-113.5-151.2
			c-9.1,3-19.1,3-28.2-0.1c-10.2-3.4-19-10.6-24.3-19.8c-5.1-8.7-7.1-19.3-5.5-29.3C243.1,326.9,249.5,316.3,258.8,309.4z"/>
	</g>
</g>
</svg>
