<svg xmlns="http://www.w3.org/2000/svg" viewBox="0 0 1024 1024" style="enable-background:new 0 0 1024 1024" xml:space="preserve">
   <circle cx="512" cy="512" r="512" style="fill:#ffc106"/>
   <path d="M258.8 309.4c6.6-4.9 14.5-7.9 22.7-8.6 8.6-.8 17.3 1 24.9 5.1 9.1 4.8 16.4 13 20.3 22.5 3.4 8.3 4.1 17.7 2.3 26.4 60.8 34.8 121.7 69.6 182.5 104.4-3.9-9.5-6.9-19.5-8.9-29.6-1.2-6.3-2-12.7-1.9-19.2-.1-9.1 1.6-18.6 6.5-26.4 3.8-6 9.6-10.6 16.1-13.3 8.3-3.4 17.5-4.2 26.4-3.9 18.2.7 35.9 5.4 53.1 11 22.6 7.5 44.5 17.2 66 27.5 37.3 18.2 73.4 38.8 108.9 60.3 7.9-5.6 17.6-8.6 27.2-8.3 15.5.3 30.4 9.4 37.7 23.1 7.8 13.9 7.2 32.1-1.5 45.4-4.4 6.9-10.7 12.6-18.2 16.2-8.7 4.3-18.8 5.5-28.2 3.6-14.2-2.8-26.6-12.9-32.2-26.3-3.7-8.6-4.5-18.3-2.5-27.4-14.3-.1-28.6.2-43 .1-15.6.2-31.2.1-46.8.2 5.5 6.8 8.2 15.4 10.8 23.6 5.4 18.8 8.7 38.2 11.9 57.5 3.4 20.9 6.4 41.9 9.9 62.8 1.7 10 3.6 20 6.1 29.8 1.2 4.6 2.6 9.3 4.5 13.7-6.5-4.7-11.5-11.2-16.4-17.4-10.3-13.3-19.8-27.2-31.3-39.5-10-10.6-21.5-20.4-35.5-25.2-11.4-4-24-3.9-35.5-.3-15.7 4.8-29.4 14.5-41.6 25.2-19.7 17.5-36.1 38.2-51.4 59.5-21.2-8.7-42.8-16.2-65-21.8-16.7-4.2-33.6-7.3-50.8-8.4-19.2-1.2-38.9-.1-57.3 5.8-7 2.3-13.8 5.4-20.4 8.6-4 2-7.9 4.1-11.5 6.7-1 .8-2.2 1.5-2.5 2.8-4.5 12.9-15.3 23.3-28.3 27.4-9.9 3.2-20.9 2.8-30.5-1.2-13.3-5.3-23.6-17.5-26.6-31.5-2.3-10.5-.9-21.8 4.3-31.2 7.4-13.9 22.6-23.2 38.3-23.2 11.2-.3 22.3 3.9 30.6 11.4 43.5-29.6 87.1-59.2 130.6-88.8-37.8-50.4-75.7-100.8-113.5-151.2-9.1 3-19.1 3-28.2-.1-10.2-3.4-19-10.6-24.3-19.8-5.1-8.7-7.1-19.3-5.5-29.3 2-11.2 8.4-21.8 17.7-28.7z" style="fill:#fff"/>
</svg>
