<svg xmlns="http://www.w3.org/2000/svg" viewBox="0 0 1024 1024">
   <circle cx="512" cy="512" r="512" style="fill:#ffc106"/>
   <path d="M290.36 332.09a39.35 39.35 0 0 1 42-3.12 39.38 39.38 0 0 1 17.88 19.88 40 40 0 0 1 2 23.35l161.13 92.19a136.86 136.86 0 0 1-7.86-26.13 84.81 84.81 0 0 1-1.67-16.93c-.09-8.06 1.4-16.41 5.74-23.33a29.91 29.91 0 0 1 14.26-11.7c7.36-3 15.43-3.68 23.3-3.46 16 .63 31.67 4.79 46.85 9.73 20 6.66 39.28 15.14 58.23 24.28 33 16 64.81 34.23 96.11 53.26a39.38 39.38 0 0 1 57.35 13.09 39.6 39.6 0 0 1-1.3 40.11 39.3 39.3 0 0 1-69.38-5.74 40 40 0 0 1-2.17-24.2c-12.65-.05-25.29.17-37.94.11-13.76.15-27.53.05-41.29.19 4.88 6 7.22 13.58 9.5 20.86 4.8 16.62 7.67 33.71 10.51 50.76 3 18.46 5.61 37 8.78 55.42 1.54 8.82 3.17 17.63 5.42 26.31a84.22 84.22 0 0 0 4 12.08c-5.73-4.19-10.13-9.85-14.51-15.37-9.06-11.74-17.46-24-27.61-34.9-8.79-9.38-19-18-31.32-22.23a49.92 49.92 0 0 0-31.33-.22c-13.85 4.27-25.92 12.8-36.71 22.26-17.33 15.42-31.87 33.71-45.33 52.55a430.59 430.59 0 0 0-57.41-19.27 254 254 0 0 0-44.81-7.42c-17-1.09-34.31-.11-50.58 5.15a154.82 154.82 0 0 0-18 7.57 72.45 72.45 0 0 0-10.2 5.91c-.88.66-1.92 1.32-2.18 2.48A39.3 39.3 0 1 1 311.08 613l115.28-78.4q-50.08-66.76-100.17-133.52a39.39 39.39 0 0 1-35.84-69z" style="fill:#fff"/>
</svg>
