<svg xmlns="http://www.w3.org/2000/svg" viewBox="0 0 1024 1024">
   <circle cx="512" cy="512" r="512" style="fill:#5091cd"/>
   <path d="m599.61 563.22-46.39 46.43-44 44-8.58 8.65a98.86 98.86 0 0 1-93.7 25.94 59.62 59.62 0 1 1-71.88-71.36A98.67 98.67 0 0 1 361 522.56l3.32-3.34 44 44-3.42 3.36a36.65 36.65 0 0 0 0 51.78 36.24 36.24 0 0 0 51.74 0l8.63-8.63 43.94-44 46.45-46.52zm17.15 123.5a98.74 98.74 0 0 1-98.92-24.47l-3.34-3.43 43.91-44 3.34 3.42a36.52 36.52 0 1 0 51.67-51.63l-8.65-8.61-43.91-44-46.45-46.47 44-44 46.4 46.47 43.94 44 8.61 8.61a98 98 0 0 1 26.2 93.22 59.6 59.6 0 1 1-66.56 71zM418.71 464.86l46.56-46.51 44-44 8.58-8.56A98.29 98.29 0 0 1 615.59 341a59.59 59.59 0 1 1 66.83 67.21 98.58 98.58 0 0 1-25.06 97.17l-3.36 3.43-44-44 3.42-3.42a36.5 36.5 0 1 0-51.63-51.61l-8.58 8.56-44 44-46.51 46.45zM369.46 514l-8.56-8.58a98.65 98.65 0 0 1-24.73-98.17 59.62 59.62 0 1 1 72.05-67.8 98.78 98.78 0 0 1 92.44 26.27l3.42 3.43-44 44-3.4-3.36a36.63 36.63 0 0 0-51.8 51.8l8.63 8.65 44 44L504 560.73l-43.94 44-46.6-46.51-44-44z" style="fill:#fff"/>
</svg>
