<svg xmlns="http://www.w3.org/2000/svg" viewBox="0 0 1024 1024">
   <circle cx="512" cy="512" r="512" style="fill:#52b0ff"/>
   <path d="m480.36 550.59-25.5-79h29.48l11 49.75h.66l14.06-49.75h22.45l13.55 49.75h.68L559 471.57h21.4l-24.82 79H532.2L518 500.92h-.68l-13.55 49.67zm225-44c0-9.36 2.54-11.87 10.42-11.87h13.13v-23.65h-1.44c-11.86 0-19.23 5.1-23 26.76h-.68v-26.26h-25.64v78.93h27.19zm61.07 20.9 7.77-8.49 17.11 31.61h28.8L792 500l26.43-28.43h-24.24l-27.78 33.95V442h-26.94v108.59h26.94zm109.67 23.08h15.61v31.61H132.15v-31.59h20c-16.75-5-22.45-18.39-24.19-31.86l26.77-5c.51 13.55 4.83 20.07 13.89 20.07 7.88 0 11.52-3.6 11.52-14v-77.99H208v71.41c0 21.19-6.74 32.94-22.35 37.38h53.25c-9.11-3.55-13.62-12.12-13.62-26.59v-52.44h27.19v52.93c0 7.61 3.64 10.62 9.57 10.62 7.88 0 12.62-4.77 12.62-15.8v-47.75h27.19v79H276v-21.3h-.68c-2.66 12.32-7.46 18.54-13.93 21.32h77.47c-11.06-2.85-18.87-8.85-23-16.81l14.58-9.78c4.83 8.86 12.45 12.29 22.45 12.29 7.54 0 10.84-2.17 10.84-6.35 0-4.77-3.22-7.27-12.2-8.86L340.35 519c-15.08-2.68-23.21-11.37-23.21-23.58 0-16.3 13.3-25.75 33.63-25.75 20.16 0 29.65 8.19 34.73 17.39l-14.23 9c-3.64-8.19-11-10.87-17.79-10.87-7 0-10.76 2.51-10.76 6.61 0 3.93 3 6.19 10.76 7.61l11.35 2.09c16.77 3 25 9.78 25 24.5 0 10.71-5.35 20.61-19.93 24.58h58.55c-17 0-22.44-5.38-22.44-21.32v-41.88h-10.86v-15.8H406v-20.74h27.19v20.74h13.13v15.8h-13.14v39.47c0 5.18 2.12 7.27 6.1 7.27h7v16.47h164.49c-17.13-4.88-27.83-19.22-27.83-39.55 0-25.25 16.69-41.39 41.59-41.39s41.59 16.14 41.59 41.39c0 20.27-10.76 34.66-27.89 39.55H845c-11.09-2.85-18.94-8.85-23.12-16.81l14.74-9.78c4.83 8.86 12.45 12.29 22.45 12.29 7.54 0 10.84-2.17 10.84-6.35 0-4.77-3.22-7.27-12.2-8.86L846.53 519c-15.08-2.68-23.21-11.37-23.21-23.58 0-16.3 13.3-25.75 33.63-25.75 20.16 0 29.65 8.19 34.73 17.39l-14.23 9c-3.64-8.19-11-10.87-17.79-10.87-7 0-10.76 2.51-10.76 6.61 0 3.93 3 6.19 10.76 7.61l11.34 2.1c16.77 3 25 9.78 25 24.5 0 10.7-5.35 20.61-19.93 24.58zM611.4 511c0 20.4 4.49 25.75 13.13 25.75s13.13-5.35 13.13-25.75-4.49-25.75-13.13-25.75-13.13 5.39-13.13 25.75z" style="fill:#fff"/>
</svg>
