<?xml version="1.0" encoding="utf-8"?>
<!-- Generator: Adobe Illustrator 21.0.0, SVG Export Plug-In . SVG Version: 6.00 Build 0)  -->
<svg version="1.1" xmlns="http://www.w3.org/2000/svg" xmlns:xlink="http://www.w3.org/1999/xlink" x="0px" y="0px"
	 viewBox="0 0 1024 1024" style="enable-background:new 0 0 1024 1024;" xml:space="preserve">
<style type="text/css">
	.st0{fill:#39B6E9;}
	.st1{fill:#FFFFFF;}
	.st2{fill:#FFFFFF;filter:url(#Adobe_OpacityMaskFilter);}
	.st3{mask:url(#mask0_2_);}
</style>
<g id="Guides">
</g>
<g id="Icon">
	<circle class="st0" cx="512" cy="512" r="512"/>
	<g>
		<path class="st1" d="M134,534.1l8.6-9.4c3.6,3.8,7,6.1,11.4,6.1c5.2,0,8.4-3,8.4-10v-39.1h14.1v39.7c0,7.2-2.1,12.6-5.9,16.2
			c-3.8,3.7-9.5,5.6-16.2,5.6C144.7,543.2,138.3,539,134,534.1z"/>
		<path class="st1" d="M207.3,516.3v-34.6h13.7V516c0,9.9,5.1,15,13.5,15c8.4,0,13.5-4.9,13.5-14.5v-34.7h13.7v34.2
			c0,18.4-10.6,27.4-27.4,27.4C217.6,543.3,207.3,534.2,207.3,516.3z"/>
		<path class="st1" d="M289.2,533.5l8.1-9.4c5.6,4.5,11.5,7.4,18.6,7.4c5.6,0,9-2.2,9-5.7v-0.2c0-3.4-2.1-5.1-12.6-7.7
			c-12.6-3.1-20.7-6.5-20.7-18.5v-0.2c0-11,9.1-18.3,21.8-18.3c9.1,0,16.8,2.8,23.2,7.7l-7.1,10c-5.5-3.7-11-6-16.2-6
			c-5.3,0-8,2.3-8,5.3v0.2c0,4,2.7,5.3,13.5,8c12.7,3.2,19.8,7.6,19.8,18.2v0.2c0,12-9.4,18.8-22.9,18.8
			C306.3,543.2,296.7,540,289.2,533.5z"/>
		<path class="st1" d="M381.6,494h-19v-12.3h51.7V494h-19v48.3h-13.7V494z"/>
		<path class="st1" d="M437.8,481.7h14.7l12.9,41l14-41.2h11.8l14,41.2l12.9-41h14.4l-21.3,61.1h-11.9l-14.1-39.7L471,542.7h-11.9
			L437.8,481.7z"/>
		<path class="st1" d="M606,512.2V512c0-10.4-7.8-19.1-18.9-19.1c-11.1,0-18.7,8.5-18.7,18.9v0.2c0,10.4,7.8,19.1,18.9,19.1
			C598.4,531.1,606,522.6,606,512.2z M554.1,512.2V512c0-17.2,14-31.3,33.2-31.3c19.3,0,33.1,13.9,33.1,31.2v0.2
			c0,17.2-14,31.3-33.2,31.3C567.9,543.3,554.1,529.4,554.1,512.2z"/>
		<path class="st1" d="M678.1,511.1c6.7,0,10.5-3.5,10.5-8.6v-0.2c0-5.7-4.1-8.7-10.8-8.7h-13.6v17.4H678.1z M650.4,481.7h28.5
			c7.9,0,14.1,2.2,18.2,6.1c3.5,3.4,5.4,8.1,5.4,13.9v0.2c0,9.8-5.4,15.9-13.4,18.8l15.2,21.7h-16l-13.4-19.4h-10.8v19.4h-13.7
			V481.7z"/>
		<path class="st1" d="M732.7,481.7h13.7v26.5l25.3-26.5h16.6l-25.4,25.7l26.6,34.9H773l-19.3-25.8l-7.2,7.3v18.5h-13.7V481.7z"/>
		<path class="st1" d="M810.4,533.5l8.1-9.4c5.6,4.5,11.5,7.4,18.6,7.4c5.6,0,9-2.2,9-5.7v-0.2c0-3.4-2.1-5.1-12.6-7.7
			c-12.6-3.1-20.7-6.5-20.7-18.5v-0.2c0-11,9.1-18.3,21.8-18.3c9.1,0,16.8,2.8,23.2,7.7l-7.1,10c-5.5-3.7-11-6-16.2-6
			c-5.3,0-8,2.3-8,5.3v0.2c0,4,2.7,5.3,13.5,8c12.7,3.2,19.8,7.6,19.8,18.2v0.2c0,12-9.4,18.8-22.9,18.8
			C827.4,543.2,817.9,540,810.4,533.5z"/>
		<defs>
			<filter id="Adobe_OpacityMaskFilter" filterUnits="userSpaceOnUse" x="887.6" y="528.5" width="14.4" height="13.9">
				<feColorMatrix  type="matrix" values="1 0 0 0 0  0 1 0 0 0  0 0 1 0 0  0 0 0 1 0"/>
			</filter>
		</defs>
		<mask maskUnits="userSpaceOnUse" x="887.6" y="528.5" width="14.4" height="13.9" id="mask0_2_">
			<path class="st2" d="M134,543.4h768v-62.7H134V543.4z"/>
		</mask>
		<g class="st3">
			<path class="st1" d="M887.6,542.3H902v-13.9h-14.4V542.3z"/>
		</g>
	</g>
</g>
</svg>
