<?xml version="1.0" encoding="utf-8"?>
<!-- Generator: Adobe Illustrator 21.0.0, SVG Export Plug-In . SVG Version: 6.00 Build 0)  -->
<svg version="1.1" xmlns="http://www.w3.org/2000/svg" xmlns:xlink="http://www.w3.org/1999/xlink" x="0px" y="0px"
	 viewBox="0 0 1024 1024" style="enable-background:new 0 0 1024 1024;" xml:space="preserve">
<style type="text/css">
	.st0{fill:#0C77BD;}
	.st1{fill:#FFFFFF;}
</style>
<g id="Min_Guides__x28_DO_NOT_REMOVE_x29_">
</g>
<g id="Max_Guides__x28_DO_NOT_REMOVE_x29_">
</g>
<g id="Icon">
	<circle id="Background" class="st0" cx="512" cy="512" r="512"/>
	<path transform="matrix(3.6444645,0,0,3.6444645,-2431.5485,-1789.6458)" class="st1" d="M781.9,618.3c0,0,13.8-8.1,36-16.1
		c11.9-4.2,23.7-6.3,32.2-7.4c-4.7-1.4-9.2-2.6-12.5-3.5c-10.6-2.9-25.8-6.5-38.7-8.5c-0.6,3.1-2.1,8-5.8,15.2
		C788.1,607.8,781.9,618.3,781.9,618.3L781.9,618.3z M775.8,629.7c-2.5,0.7-10.9,22.3-15.2,34.3c7.9,5.4,16,10.3,23.6,13.6
		c15.2,6.7,19.9,3.9,29.3-0.3c6.7-3,17.3-10.2,26.6-16.9c-11.3-7.4-25.4-16.3-33.6-20.1C791.3,632.9,779.4,628.5,775.8,629.7z
		 M788.8,581.7c-11.6-0.8-13.4,1.9-15.7,3.4c-5.9,3.3-30.7,18-42.7,28.4c-11.4,9.9-9.4,16.1-4.1,22.3c4.3,5,11.8,11,23.5,20.2
		c0.6,0.4,1.1,0.8,1.6,1.2c4.7-10.4,14.9-33,19.9-43.5C777.1,601.3,785.2,587.7,788.8,581.7L788.8,581.7z M890.3,607.7
		c-4.1-2.1-7.6-3.3-10.8-4.3c-1.6-0.5-5.8-1.7-11-3.3c-9.3,1.2-24.6,3.5-39.5,7.1c-15.4,3.7-41.3,16.3-41.3,16.3
		s32.7,10.6,63.4,28.4c1.1-0.8,2-1.5,2.8-2.3c9.5-7.8,33.6-27.9,38.8-36.6C894,610.8,892.9,609,890.3,607.7L890.3,607.7z"/>
</g>
</svg>
