<?xml version="1.0" encoding="utf-8"?>
<!-- Generator: Adobe Illustrator 21.0.0, SVG Export Plug-In . SVG Version: 6.00 Build 0)  -->
<svg version="1.1" xmlns="http://www.w3.org/2000/svg" xmlns:xlink="http://www.w3.org/1999/xlink" x="0px" y="0px"
	 viewBox="0 0 1024 1024" style="enable-background:new 0 0 1024 1024;" xml:space="preserve">
<style type="text/css">
	.st0{fill:#FFC708;}
	.st1{fill-rule:evenodd;clip-rule:evenodd;fill:#FFFFFF;}
</style>
<g id="Guides">
</g>
<g id="Icon">
	<circle class="st0" cx="512" cy="512" r="512"/>
	<path class="st1" d="M739.1,548.2L695.1,512l43.9-36.2l-25.2-30.5L633,512l80.9,66.8L739.1,548.2L739.1,548.2z M707.8,622.5
		l-109-87h-135v199.8h39.5V575H585l98.2,78.4L707.8,622.5L707.8,622.5z M657.7,681.9l-84.2-69.3l-32.3,0.2v122.4l39.5-10.1v-55.4
		l44.2,36.4L657.7,681.9L657.7,681.9z M425.2,354.5l-39.5-34.4v387.3l39.5-34.4V354.5L425.2,354.5z M347.7,405.3l-39.5,36.3V592
		l39.5,33.7V405.3L347.7,405.3z M463.8,488.5h135l109-87l-24.7-30.9L585,449h-81.6V288.7h-39.5V488.5L463.8,488.5z M541.1,416.6
		l32.3,0.2l84.2-69.3l-32.8-24.2l-44.2,36.4v-55.4l-39.5-10.1V416.6L541.1,416.6z M768,512c0,141.4-114.6,256-256,256
		c-141.4,0-256-114.6-256-256c0-141.4,114.6-256,256-256C653.4,256,768,370.6,768,512L768,512z"/>
</g>
</svg>
