<svg xmlns="http://www.w3.org/2000/svg" viewBox="0 0 1024 1024">
   <circle cx="512" cy="512" r="512" style="fill:#b4524e"/>
   <path data-name="Kerberos.io logo (monochrome edit by krisu)" d="M729.86 368.88c-56.5-18.23-64.57-25-64.57-25-18.22-35.95-43.22-47.11-60.63-50.23-12.13-18.45-29.57-68.12-36.48-64.41-8.49 4.64-17.14 26.57-17.14 26.57-3.25-8-11.89-29.66-21.38-22.87-12.32 9-26.61 52.85-26.61 72 0 14.91-7.9 39.46-14.56 57.54 7.75 7.33 15.29 17.12 21.93 30.23 0 0 8.07 6.79 64.57 25 37.8 12.21 15.44 37.23 15.44 37.23s-3.86 10-15.08 19.64c1.67 3.37 3.29 6.48 4.81 9.14a86.82 86.82 0 0 1 38.09 20.61A211.34 211.34 0 0 1 632.29 448s11.05-.62 55.94-5.26c44.73-4.64 57.07-36.62 57.07-36.62s22.37-25.03-15.44-37.24Zm-104.36-1.7c-6.51 1.86-18 4-25.49-17.76 0 0 36.26-18.09 39.37 17.76a28.09 28.09 0 0 0-13.88 0Zm-180.39 30.9s36.24-18.07 39.37 17.78a27.9 27.9 0 0 0-13.88 0c-6.51 1.86-17.98 4.01-25.49-17.78Zm253.46 170.45c-56.49-18.23-64.56-25-64.56-25a114.42 114.42 0 0 0-16.79-25c-15-16.67-31.36-23-43.84-25.28A127.83 127.83 0 0 1 566.5 481c-8.28 5-19.12 9.16-33.17 10.62-8.82.91-16.32 1.66-22.69 2.29l-38.35 4a63.69 63.69 0 0 0-.55 6.64c-.51 22.29-12.13 54.18-18.89 70.35a69.14 69.14 0 0 1-7.05 10.84 51.615 51.615 0 0 1-3.53 3.63c-45 32.5-73.31.74-90.71-42.66-9.29-23.17-15.48-49.66-19.45-71.43q-.1-.62-.23-1.27-.25-1.39-.49-2.76c-1.49-9.37-1.56-20.1-1-30.28a289.44 289.44 0 0 1 4.25-30.9l2.78-10.2c3.11-9.1 7.41-21.47 10.24-28.88 4.5-6.8 8-8.76 8-8.76 28-25.81 82.57-21.74 93.59-20.62-12.11-19.05-29.14-67.25-36-63.59-8.49 4.64-17.14 26.58-17.14 26.58-3.25-8-11.89-29.67-21.37-22.87-10.89 7.91-23.3 43-26.05 64.34l-24.64 88.78c-15.85 41.49-23.68 68.51-27.11 86.09-3.34 13.83-49.22 206.51-7.18 192.21 0 0 95-18.08 153.5 30.91 0 0 114.07 94.74 141.92-19.26a12.24 12.24 0 0 0 .67-3.76c.06-3.94.25-7.81.55-11.6v-.42c.08-1 .17-2 .26-3 .84-7.3 3.39-21.61 3.67-23.18.7-3.71 3.39-14.06 3.39-14.06v-.14l.38-1.33c1.82-6.07 6.81-19.56 6.81-19.56h-.07l.07-.17s11.05-.62 55.93-5.26S714 605.78 714 605.78s22.39-25.04-15.43-37.25Zm-104.34-1.86c-6.51 1.86-18 4-25.49-17.78 0 0 36.24-18.07 39.37 17.78a27.9 27.9 0 0 0-13.89.01Z" style="fill:#fff"/>
</svg>
