<?xml version="1.0" encoding="utf-8"?>
<!-- Generator: Adobe Illustrator 21.0.0, SVG Export Plug-In . SVG Version: 6.00 Build 0)  -->
<svg version="1.1" xmlns="http://www.w3.org/2000/svg" xmlns:xlink="http://www.w3.org/1999/xlink" x="0px" y="0px"
	 viewBox="0 0 1024 1024" style="enable-background:new 0 0 1024 1024;" xml:space="preserve">
<style type="text/css">
	.st0{fill:#008AAA;}
	.st1{fill:#FFFFFF;}
</style>
<g id="Min_Guides__x28_DO_NOT_REMOVE_x29_">
</g>
<g id="Max_Guides__x28_DO_NOT_REMOVE_x29_">
</g>
<g id="Icon">
	<circle id="Background" class="st0" cx="512" cy="512" r="512"/>
	<path id="Keycloak_logo__x28_monochrome_edit_by_krisu_x29_" class="st1" d="M786.2,395.5h-80.6v0c-1.5,0-3-0.8-3.7-2.1
		l-64.7-112.2c-0.8-1.3-2.2-2.1-3.8-2.1h-264c-1.5,0-3,0.8-3.7,2.1l-67.3,116.4l-64.8,112.2c-0.7,1.3-0.7,2.9,0,4.3l64.8,112.2
		l67.2,116.5c0.7,1.3,2.2,2.2,3.7,2.1h264.1c1.5,0,3-0.8,3.8-2.1l64.8-112.2c0.7-1.3,2.2-2.2,3.7-2.1h80.6c2.7,0,4.8-2.2,4.8-4.8
		V400.4C791,397.7,788.8,395.5,786.2,395.5z M477.5,630.6l-20.3,35c-0.3,0.5-0.8,1-1.3,1.3l0,0c0,0,0,0,0,0c0,0,0,0,0,0l0,0
		c-0.6,0.3-1.2,0.5-1.9,0.5h-40.3c-1.4,0-2.7-0.7-3.3-2l-60.1-104.3l-5.9-10.3l0,0l-21.6-36.9c-0.3-0.5-0.5-1.1-0.4-1.8
		c0-0.6,0.2-1.3,0.5-1.8l21.7-37.6l65.9-114c0.7-1.2,2-2,3.3-2H454c0.7,0,1.4,0.2,2.1,0.5l0,0c0.5,0.3,1,0.7,1.3,1.3l20.3,35.2
		c0.6,1.2,0.5,2.7-0.2,3.8l-65.1,112.8c-0.3,0.5-0.4,1.1-0.4,1.6c0,0.6,0.2,1.1,0.4,1.6l65.1,112.7
		C478.4,627.7,478.3,629.3,477.5,630.6z M679.6,513.9L658,550.8l0,0l-5.9,10.3L592,665.4c-0.7,1.2-1.9,2-3.3,2h-40.3
		c-0.7,0-1.3-0.2-1.9-0.5l0,0c0,0,0,0,0,0c0,0,0,0,0,0l0,0c-0.5-0.3-1-0.7-1.3-1.3l-20.3-35c-0.9-1.3-0.9-2.9-0.1-4.2l65.1-112.7
		c0.3-0.5,0.4-1.1,0.4-1.6c0-0.6-0.2-1.1-0.4-1.6l-65.1-112.8c-0.7-1.2-0.8-2.6-0.2-3.8l20.3-35.2c0.3-0.5,0.8-1,1.3-1.3l0,0
		c0.6-0.4,1.3-0.5,2.1-0.5h40.4c1.4,0,2.7,0.7,3.3,2l65.9,114l21.7,37.6c0.3,0.6,0.5,1.2,0.5,1.8
		C680.1,512.7,679.9,513.3,679.6,513.9z"/>
</g>
</svg>
