<?xml version="1.0" encoding="UTF-8" standalone="no"?>
<svg
   xmlns:dc="http://purl.org/dc/elements/1.1/"
   xmlns:cc="http://creativecommons.org/ns#"
   xmlns:rdf="http://www.w3.org/1999/02/22-rdf-syntax-ns#"
   xmlns:svg="http://www.w3.org/2000/svg"
   xmlns="http://www.w3.org/2000/svg"
   viewBox="0 0 1365.3333 1365.3333"
   height="1365.3333"
   width="1365.3333"
   xml:space="preserve"
   id="svg2"
   version="1.1"><metadata
     id="metadata8"><rdf:RDF><cc:Work
         rdf:about=""><dc:format>image/svg+xml</dc:format><dc:type
           rdf:resource="http://purl.org/dc/dcmitype/StillImage" /></cc:Work></rdf:RDF></metadata><defs
     id="defs6"><clipPath
       id="clipPath18"
       clipPathUnits="userSpaceOnUse"><path
         id="path16"
         d="M 0,1024 H 1024 V 0 H 0 Z" /></clipPath><clipPath
       id="clipPath34"
       clipPathUnits="userSpaceOnUse"><path
         id="path32"
         d="M 0,1024 H 1024 V 0 H 0 Z" /></clipPath></defs><g
     transform="matrix(1.3333333,0,0,-1.3333333,0,1365.3333)"
     id="g10"><g
       id="g12"><g
         clip-path="url(#clipPath18)"
         id="g14"><g
           transform="translate(1024,512)"
           id="g20"><path
             id="path22"
             style="fill:#59c25e;fill-opacity:1;fill-rule:nonzero;stroke:none"
             d="m 0,0 c 0,-282.77 -229.23,-512 -512,-512 -282.77,0 -512,229.23 -512,512 0,282.77 229.23,512 512,512 C -229.23,512 0,282.77 0,0" /></g><g
           transform="translate(460.8745,593.4932)"
           id="g24"><path
             id="path26"
             style="fill:#ffffff;fill-opacity:1;fill-rule:nonzero;stroke:none"
             d="m 0,0 93.867,136.107 c 17.792,25.6 40.661,38.4 68.842,38.4 22.87,0 42.709,-8.128 59.499,-24.405 16.705,-16.32 25.088,-35.734 25.088,-58.411 0,-16.726 -4.416,-31.552 -13.312,-44.352 l -84.629,-123.072 103.53,-131.264 c 10.325,-13.056 15.51,-28.373 15.51,-45.867 0,-23.168 -8.128,-43.05 -24.427,-59.691 -16.256,-16.618 -35.968,-24.938 -59.115,-24.938 -25.365,0 -44.735,8.256 -58.048,24.747 L 0.021,-154.518 v -87.231 c 0,-24.917 -4.309,-44.245 -12.949,-58.069 -15.722,-25.11 -38.464,-37.675 -68.544,-37.675 -27.349,0 -48.554,9.302 -63.552,27.712 -14.08,17.046 -21.12,39.594 -21.12,67.67 V 81.387 c 0,26.56 7.168,48.512 21.419,65.771 14.891,18.218 35.584,27.349 61.995,27.349 25.151,0 46.08,-9.131 62.848,-27.349 9.343,-10.134 15.253,-20.331 17.728,-30.72 1.493,-6.4 2.239,-18.305 2.239,-35.84 L 0.085,0 Z" /></g></g></g><g
       id="g28"><g
         clip-path="url(#clipPath34)"
         id="g30"><g
           transform="translate(1024,512)"
           id="g36"><path
             id="path38"
             style="fill:#1b424e;fill-opacity:1;fill-rule:nonzero;stroke:none"
             d="m 0,0 c 0,-282.77 -229.23,-512 -512,-512 -282.77,0 -512,229.23 -512,512 0,282.77 229.23,512 512,512 C -229.23,512 0,282.77 0,0" /></g><g
           transform="translate(656.0195,511.8813)"
           id="g40"><path
             id="path42"
             style="fill:#ffffff;fill-opacity:1;fill-rule:nonzero;stroke:none"
             d="m 0,0 46.555,46.244 c 48.224,47.903 48.224,125.925 0,173.828 -48.226,47.904 -126.772,47.904 -174.996,0 l -16.951,-16.837 c -22.442,32.015 -59.446,52.884 -101.703,52.884 -68.28,0 -123.667,-55.018 -123.667,-122.842 V -133.04 c 0,-67.824 55.387,-122.841 123.667,-122.841 42.257,0 79.261,20.869 101.703,52.883 l 16.951,-16.837 c 48.224,-47.904 126.77,-47.904 174.996,0 48.224,47.904 48.224,125.925 0,173.829 z" /></g></g></g></g></svg>