<?xml version="1.0" encoding="utf-8"?>
<!-- Generator: Adobe Illustrator 21.0.0, SVG Export Plug-In . SVG Version: 6.00 Build 0)  -->
<svg version="1.1" xmlns="http://www.w3.org/2000/svg" xmlns:xlink="http://www.w3.org/1999/xlink" x="0px" y="0px"
	 viewBox="0 0 1024 1024" style="enable-background:new 0 0 1024 1024;" xml:space="preserve">
<style type="text/css">
	.st0{fill:#05CE78;}
	.st1{fill:#FFFFFF;}
</style>
<g id="Guides">
</g>
<g id="Icon">
	<circle class="st0" cx="512" cy="512" r="512"/>
	<path class="st1" d="M656,512.1l46.6-46.2c48.2-47.9,48.2-125.9,0-173.8s-126.8-47.9-175,0l-17,16.8c-22.4-32-59.4-52.9-101.7-52.9
		c-68.3,0-123.7,55-123.7,122.8v266.3c0,67.8,55.4,122.8,123.7,122.8c42.3,0,79.3-20.9,101.7-52.9l17,16.8
		c48.2,47.9,126.8,47.9,175,0c48.2-47.9,48.2-125.9,0-173.8L656,512.1L656,512.1z"/>
</g>
</svg>
