<svg xmlns="http://www.w3.org/2000/svg" viewBox="0 0 1024 1024">
   <circle cx="512" cy="512" r="512" style="fill:#00507e"/>
   <path d="M752.44 376.85A60.94 60.94 0 0 0 710.69 352a77.86 77.86 0 0 0-40.63 5.64 121.88 121.88 0 0 0-35 23.7 372.41 372.41 0 0 0-30.47 33.85l-15.8 21.44-10.16 15.8-11.28 20.31-9 19.18-13.54-4.51-14.67-7.9a172.66 172.66 0 0 0 22.57-31.6 222.31 222.31 0 0 0 18.06-41.75A262.93 262.93 0 0 0 582 339.61a109.46 109.46 0 0 0-7.9-42.88 76.74 76.74 0 0 0-19.1-27.08 63.19 63.19 0 0 0-42.88-13.54 62.07 62.07 0 0 0-40.63 19.18A72.22 72.22 0 0 0 450 331.71h21.44a54.17 54.17 0 0 1 6.77-28.21 48.52 48.52 0 0 1 31.6-23.7 38.37 38.37 0 0 1 33.87 10.2c18.06 18.06 19.18 45.14 15.8 74.48a203.12 203.12 0 0 1-21.44 70 156.87 156.87 0 0 1-26 36.11 150.08 150.08 0 0 1-19.18-21.44 173.78 173.78 0 0 1-26-54.17 185.07 185.07 0 0 1-5.64-41.75h-21.36a186.2 186.2 0 0 0 33.85 104.87 172.65 172.65 0 0 0 21.44 24.83 176.07 176.07 0 0 1-27.08 11.28c-2.26-5.64-12.41-23.7-18.06-31.6s-18.06-24.83-26-35-23.7-26-31.6-35a178.28 178.28 0 0 0-23.7-18.06 103.82 103.82 0 0 0-22.57-10.16A66.58 66.58 0 0 0 257 431a67.71 67.71 0 0 0 12.41 35 137.67 137.67 0 0 0 55.3 42.88 171.52 171.52 0 0 0 53 14.67 234.77 234.77 0 0 0 42.88 1.13 220.06 220.06 0 0 0 35-4.51 172.64 172.64 0 0 1 7.9 23.7 156.86 156.86 0 0 1 3.39 24.83 196.35 196.35 0 0 0-64.32 22.57 299.06 299.06 0 0 0-50.78 39.5 142.18 142.18 0 0 0-31.6 42.88 93.67 93.67 0 0 0-6.77 32.73 66.58 66.58 0 0 0 36.11 55.3c20.31 10.16 47.4 9 73.35-10.16a138.8 138.8 0 0 0 47.4-62.07 247.14 247.14 0 0 0 15.8-59.81 346.43 346.43 0 0 0 2.26-42.88 313.74 313.74 0 0 1 53-1.13 329.5 329.5 0 0 0 4.51 44A239.24 239.24 0 0 0 564 687.18a149 149 0 0 0 41.75 54.17 83.51 83.51 0 0 0 49.65 20.31 60.94 60.94 0 0 0 41.75-13.54 67.71 67.71 0 0 0 22.57-44 79 79 0 0 0-12.41-50.78 180.56 180.56 0 0 0-37.24-39.5 234.71 234.71 0 0 0-41.75-28.21A213.29 213.29 0 0 0 564 566.44a194.09 194.09 0 0 1 9-48.52l31.6 3.39a211 211 0 0 0 57.55-5.64 172.65 172.65 0 0 0 46.27-18.06 142.2 142.2 0 0 0 36.11-27.08 81.25 81.25 0 0 0 20.31-33.85 66.58 66.58 0 0 0-12.4-58.68M409.39 504.37a162.5 162.5 0 0 1-84.64-18.06A106.08 106.08 0 0 1 283 449.08a42.88 42.88 0 0 1-4.51-30.47 50.78 50.78 0 0 1 16.93-27.08c20.31-14.67 40.63-9 59.81 0s41.75 37.24 56.42 53a294.53 294.53 0 0 1 36.11 55.3 186.19 186.19 0 0 1-36.11 4.51m54.17 133.16a185.07 185.07 0 0 1-19.18 58.68c-12.41 20.31-28.21 42.88-54.17 49.65a40.62 40.62 0 0 1-54.17-31.6c-7.9-27.08 13.54-53 26-64.32a228 228 0 0 1 49.65-39.5 159.1 159.1 0 0 1 55.3-19.18 266.32 266.32 0 0 1-3.39 47.4m77.86-72.22a477.46 477.46 0 0 0-54.17 1.13 230.21 230.21 0 0 0-11.28-50.78 138.8 138.8 0 0 0 37.24-18.06 134.3 134.3 0 0 0 38.37 18.06 251.65 251.65 0 0 0-9 50.78m82.38 44a257.29 257.29 0 0 1 49.65 37.24 77.86 77.86 0 0 1 21.44 38.37 50.78 50.78 0 0 1-7.9 37.24 38.37 38.37 0 0 1-35 16.93 74.48 74.48 0 0 1-48.52-26 138.8 138.8 0 0 1-31.6-53A226.82 226.82 0 0 1 562.86 589a193 193 0 0 1 62.07 20.31M705 476.16A170.4 170.4 0 0 1 627.18 501a188.47 188.47 0 0 1-47.4-2.26 292.28 292.28 0 0 1 30.47-54.17l27.08-33.85A136.54 136.54 0 0 1 661 388.14a65.45 65.45 0 0 1 44-14.67 39.5 39.5 0 0 1 30.47 16.93 51.91 51.91 0 0 1 10.16 24.83C746.8 437.79 733.26 457 705 475" style="fill:#fff"/>
</svg>
