<?xml version="1.0" encoding="utf-8"?>
<!-- Generator: Adobe Illustrator 21.0.0, SVG Export Plug-In . SVG Version: 6.00 Build 0)  -->
<svg version="1.1" xmlns="http://www.w3.org/2000/svg" xmlns:xlink="http://www.w3.org/1999/xlink" x="0px" y="0px"
	 viewBox="0 0 1024 1024" style="enable-background:new 0 0 1024 1024;" xml:space="preserve">
<style type="text/css">
	.st0{fill:#71BA05;}
	.st1{fill-rule:evenodd;clip-rule:evenodd;fill:#FFFFFF;}
</style>
<g id="Min_Guides__x28_DO_NOT_REMOVE_x29_">
</g>
<g id="Max_Guides__x28_DO_NOT_REMOVE_x29_">
</g>
<g id="Icon">
	<circle id="Background" class="st0" cx="512" cy="512" r="512"/>
	<path class="st1" d="M669.9,362.4h-36v-14.5c0-35.5-28.9-64.4-64.4-64.4H454.5c-35.5,0-64.4,28.9-64.4,64.4v14.5h-36
		c-35.5,0-64.4,28.9-64.4,64.4v215.4c0,35.5,28.9,64.4,64.4,64.4h315.8c35.5,0,64.4-28.9,64.4-64.4V426.8
		C734.3,391.3,705.4,362.4,669.9,362.4z M407.5,478.1l-32,164c-4.1,12.5-9.6,21.4-21.4,21.5c-11.8,0-21.5-9.6-21.5-21.5V426.8
		c0-11.8,9.6-21.5,21.5-21.5h54h24.9v-42.8v-14.7c0-11.8,9.6-21.5,21.5-21.5h114.9c11.8,0,21.5,9.6,21.5,21.5v14.7v42.8h43.2h35.8
		c11.8,0,21.5,9.6,21.5,21.5v22.3H444.9C444.9,449.1,412.9,449.4,407.5,478.1z M672.7,659.5l-45.4-23.9L582,659.5l8.7-50.5
		l-36.7-35.8l50.7-7.4l22.7-46l22.7,46l50.7,7.4L664,609L672.7,659.5z"/>
</g>
</svg>
