<?xml version="1.0" encoding="UTF-8" standalone="no"?>
<svg
   xmlns:dc="http://purl.org/dc/elements/1.1/"
   xmlns:cc="http://creativecommons.org/ns#"
   xmlns:rdf="http://www.w3.org/1999/02/22-rdf-syntax-ns#"
   xmlns:svg="http://www.w3.org/2000/svg"
   xmlns="http://www.w3.org/2000/svg"
   viewBox="0 0 1365.3333 1365.3333"
   height="1365.3333"
   width="1365.3333"
   xml:space="preserve"
   id="svg2"
   version="1.1"><metadata
     id="metadata8"><rdf:RDF><cc:Work
         rdf:about=""><dc:format>image/svg+xml</dc:format><dc:type
           rdf:resource="http://purl.org/dc/dcmitype/StillImage" /></cc:Work></rdf:RDF></metadata><defs
     id="defs6"><clipPath
       id="clipPath18"
       clipPathUnits="userSpaceOnUse"><path
         id="path16"
         d="M 0,1024 H 1024 V 0 H 0 Z" /></clipPath></defs><g
     transform="matrix(1.3333333,0,0,-1.3333333,0,1365.3333)"
     id="g10"><g
       id="g12"><g
         clip-path="url(#clipPath18)"
         id="g14"><g
           transform="translate(1024,512)"
           id="g20"><path
             id="path22"
             style="fill:#544ca9;fill-opacity:1;fill-rule:nonzero;stroke:none"
             d="m 0,0 c 0,-282.77 -229.23,-512 -512,-512 -282.77,0 -512,229.23 -512,512 0,282.77 229.23,512 512,512 C -229.23,512 0,282.77 0,0" /></g><g
           transform="translate(256.1392,422.584)"
           id="g24"><path
             id="path26"
             style="fill:#ffffff;fill-opacity:1;fill-rule:nonzero;stroke:none"
             d="m 0,0 c 0,9.747 0.167,19.494 -0.056,29.242 -0.445,18.882 0.891,37.54 4.066,56.199 5.403,31.136 15.206,60.545 31.247,87.726 26.903,45.673 64.833,79.204 112.623,101.762 21.221,10.026 43.445,17.099 66.671,20.608 12.087,1.838 24.229,3.342 36.539,3.231 52.301,-0.39 101.037,-13.312 144.984,-42.164 43.11,-28.295 75.471,-65.725 94.91,-113.792 9.135,-22.614 14.761,-46.23 17.713,-70.404 3.286,-26.679 3.453,-53.471 2.951,-80.317 -0.278,-14.482 -0.223,-28.964 -0.445,-43.445 -0.112,-6.294 -0.334,-12.588 -2.005,-18.771 -6.517,-23.95 -33.921,-34.923 -54.029,-21.611 -8.966,5.904 -13.422,14.593 -15.038,24.953 -1.114,6.963 -1.671,13.98 -1.671,21.054 v 87.447 c 0,11.419 -3.564,21.555 -11.362,29.967 -13.646,14.648 -34.589,15.205 -49.906,1.67 -8.578,-7.63 -12.477,-17.322 -13.313,-28.462 -0.334,-4.177 -0.445,-8.355 -0.445,-12.533 -0.056,-32.137 0.056,-64.219 -0.167,-96.358 -0.167,-18.214 -14.036,-32.138 -32.584,-33.419 -17.823,-1.226 -33.475,10.973 -36.538,28.573 -0.836,4.846 -1.114,9.747 -1.114,14.704 0,32.306 0.055,64.612 0,96.916 -0.056,10.917 -3.676,20.497 -11.307,28.518 -15.317,16.098 -38.376,15.596 -53.248,-0.946 -7.296,-8.077 -10.471,-17.49 -10.471,-28.24 0,-31.916 -0.056,-63.886 0,-95.801 0,-8.245 -1.003,-16.321 -4.401,-23.896 -5.903,-13.144 -18.269,-20.831 -32.639,-20.33 -13.646,0.446 -25.176,9.023 -30.411,22.726 -2.061,5.402 -2.952,11.084 -2.952,16.877 0.055,30.912 0.055,61.825 -0.056,92.738 0,6.85 -0.278,13.758 -2.339,20.386 -4.679,15.205 -14.816,24.897 -30.468,27.459 C 98.81,84.885 87.001,77.365 78.146,64.555 73.912,58.428 72.52,51.521 72.52,44.225 c 0,-29.354 0.055,-58.651 0.055,-88.004 0,-8.634 0.168,-17.267 -1.782,-25.788 C 67.563,-83.715 53.972,-99.144 33.419,-97.64 19.272,-96.582 5.681,-84.885 1.727,-69.902 0.334,-64.555 -0.111,-59.097 -0.111,-53.638 0.056,-35.647 0.056,-17.823 0,0 0.056,0 0,0 0,0" /></g></g></g></g></svg>