<svg xmlns="http://www.w3.org/2000/svg" viewBox="0 0 1024 1024" style="enable-background:new 0 0 1024 1024" xml:space="preserve">
   <circle cx="512" cy="512" r="512" style="fill:#5848d5"/>
   <path d="M256.1 601.4c0-9.7.2-19.5-.1-29.2-.4-18.9.9-37.5 4.1-56.2 5.4-31.1 15.2-60.5 31.2-87.7 26.9-45.7 64.8-79.2 112.6-101.8 21.2-10 43.4-17.1 66.7-20.6 12.1-1.8 24.2-3.3 36.5-3.2 52.3.4 101 13.3 145 42.2 43.1 28.3 75.5 65.7 94.9 113.8 9.1 22.6 14.8 46.2 17.7 70.4 3.3 26.7 3.5 53.5 3 80.3-.3 14.5-.2 29-.4 43.4-.1 6.3-.3 12.6-2 18.8-6.5 24-33.9 34.9-54 21.6-9-5.9-13.4-14.6-15-25-1.1-7-1.7-14-1.7-21.1v-87.4c0-11.4-3.6-21.6-11.4-30-13.6-14.6-34.6-15.2-49.9-1.7-8.6 7.6-12.5 17.3-13.3 28.5-.3 4.2-.4 8.4-.4 12.5-.1 32.1.1 64.2-.2 96.4-.2 18.2-14 32.1-32.6 33.4-17.8 1.2-33.5-11-36.5-28.6-.8-4.8-1.1-9.7-1.1-14.7 0-32.3.1-64.6 0-96.9-.1-10.9-3.7-20.5-11.3-28.5-15.3-16.1-38.4-15.6-53.2.9-7.3 8.1-10.5 17.5-10.5 28.2 0 31.9-.1 63.9 0 95.8 0 8.2-1 16.3-4.4 23.9-5.9 13.1-18.3 20.8-32.6 20.3-13.6-.4-25.2-9-30.4-22.7-2.1-5.4-3-11.1-3-16.9.1-30.9.1-61.8-.1-92.7 0-6.9-.3-13.8-2.3-20.4-4.7-15.2-14.8-24.9-30.5-27.5-15.9-2.6-27.7 4.9-36.6 17.7-4.2 6.1-5.6 13-5.6 20.3 0 29.4.1 58.7.1 88 0 8.6.2 17.3-1.8 25.8-3.2 14.1-16.8 29.6-37.4 28.1-14.1-1.1-27.7-12.8-31.7-27.7-1.4-5.3-1.8-10.8-1.8-16.3.1-17.8.1-35.7 0-53.5.1 0 0 0 0 0z" style="fill:#fff"/>
</svg>
