<svg xmlns="http://www.w3.org/2000/svg" viewBox="0 0 1024 1024">
   <circle cx="512" cy="512" r="512" style="fill:#57b0b7"/>
   <path d="M232.56 500.23h-31.5l13.75-43h17.75v-48.72h54.3V494l40.2-45.6h58.65v4.18l-51.34 59.18L387.81 590v6.09h-58.48l-29.41-44.69-13.06 14.6.17 30.11h-54.47v-36.53H184l13.75-43h34.81Zm269.95.7v-52.56h-22.28c-14.79 0-25.76 4-33.94 20v-20H392v147.76h54.3v-68.75c.16-28.54 21.22-26.45 56.21-26.45Zm33.07 127.58c38.29-12.88 64-35.33 81.28-69.44 7.31-14.27 12.36-32 19.15-51.34-46.64 44.38-46.64 44.38-114.52 83.54Zm45.25-108.61-24-71.36h-48.41c5.57 14.27 42.12 107.91 42.12 113 50-17.75 85.63-59.87 86.33-60.39 5.74-16.53 11.49-34.29 17.06-52.56h-49.6c-7.66 28.89-14.1 50.47-23.5 71.36Zm80.24-111.22h56.73v187.45h-56.74Zm65.09-39.86h56.74v227.49h-56.74Zm70 217.91-.35-.17H794c-.52 0-.87.17-1.22.17l-.35.17a4.73 4.73 0 0 0-1.39 7.66 4.64 4.64 0 0 0 3.48 1.39 4.35 4.35 0 0 0 3.48-1.39 5 5 0 0 0 1.22-3.13 5.26 5.26 0 0 0-.87-2.78 4.81 4.81 0 0 0-2.26-1.91Zm10.44-26.28h8.18V596h-8.18Zm47.69 3.65a19.51 19.51 0 0 0-13.58-5.22 19 19 0 0 0-19 19 16.91 16.91 0 0 0 5.74 13.05 19.51 19.51 0 0 0 13.55 5.2 19 19 0 0 0 19-19 16.91 16.91 0 0 0-5.74-13.02Zm-20.89 5.74a9.74 9.74 0 0 1 7.31-3.13 10.51 10.51 0 0 1 7.66 3.13 10 10 0 0 1 3.13 7.31 10.51 10.51 0 0 1-3.13 7.66A9.74 9.74 0 0 1 841 588a10.79 10.79 0 0 1-7.66-3 9.74 9.74 0 0 1-3.13-7.31 10.63 10.63 0 0 1 3.16-7.84Z" style="fill:#fff"/>
</svg>
