<svg xmlns="http://www.w3.org/2000/svg" viewBox="0 0 1024 1024">
   <circle cx="512" cy="512" r="512" style="fill:#00c1f2"/>
   <path d="M474 508.7S541.2 446 625.7 466s90.8 108.1 85.4 224.4c0 0-.9 56.3 43.6 53.6-4 .3-12.5 8.5-15.9 10.6-12.9 7.9-26.6 14.6-40.9 19.9-35.4 13-76.1 15.3-106.6-10.3-19.2-16.2-36.9-41.6-39.6-67-2.5-23.9 2.7-48.3 1.8-72.4-.6-18.5-2.5-37.1-7.6-54.9-4.5-16-11.8-31.9-24-43.5-5.9-5.6-12.9-10-20.5-13-4.2-1.6-23.6-8.3-27.4-4.7zM269.3 311.6c1.2.4 26.5-19.7 29.5-21.3 12.2-6.5 25.1-11.6 38.5-15 45.5-11.8 139.9 2.7 137.2 141.7s0 223.4 0 223.5c0 1-42-7-44.4-7.7-30.4-8.5-59.6-23.5-81.2-46.9-50.8-55-41-136.3-34.1-204.4 1.4-14.5.9-29.8-6.3-42.3-8.1-14.2-23.6-22.6-39.2-27.6zm311.1-3.3c36.2 0 65.5 29.3 65.5 65.5s-29.3 65.5-65.5 65.5-65.5-29.3-65.5-65.5 29.3-65.5 65.5-65.5z" style="fill:#fff"/>
</svg>
