<?xml version="1.0" encoding="utf-8"?>
<!-- Generator: Adobe Illustrator 21.0.0, SVG Export Plug-In . SVG Version: 6.00 Build 0)  -->
<svg version="1.1" xmlns="http://www.w3.org/2000/svg" xmlns:xlink="http://www.w3.org/1999/xlink" x="0px" y="0px"
	 viewBox="0 0 1024 1024" style="enable-background:new 0 0 1024 1024;" xml:space="preserve">
<style type="text/css">
	.st0{fill:#23AF91;}
	.st1{fill:#FFFFFF;}
</style>
<g id="Min_Guides__x28_DO_NOT_REMOVE_x29_">
</g>
<g id="Max_Guides__x28_DO_NOT_REMOVE_x29_">
</g>
<g id="Icon">
	<circle id="Background" class="st0" cx="512" cy="512" r="512"/>
	<path class="st1" d="M426,512.1l151.6,151.7l95.7-95.7c17.1-15.4,43.3-14.7,59.6,1.6s17,42.5,1.6,59.6L608.2,755.5
		c-17,16.7-44.2,16.7-61.1,0L364.9,573.2v108.3c0,23.9-19.4,43.3-43.3,43.3c-23.9,0-43.3-19.4-43.3-43.3V342.4
		c0-23.9,19.4-43.3,43.3-43.3c23.9,0,43.3,19.4,43.3,43.3v108.3l182.2-182.2c17-16.7,44.2-16.7,61.1,0l126.4,126.3
		c15.4,17.1,14.7,43.3-1.6,59.6c-16.3,16.3-42.5,17-59.6,1.6l-95.7-95.7L426,512.1z M577.8,468.7L577.8,468.7
		c-17.5,0-33.3,10.5-40.1,26.7c-6.7,16.2-3,34.8,9.4,47.2s31,16.1,47.2,9.4c16.2-6.7,26.8-22.5,26.8-40c0-11.5-4.6-22.5-12.7-30.7
		C600.3,473.3,589.3,468.7,577.8,468.7L577.8,468.7z"/>
</g>
</svg>
