<svg xmlns="http://www.w3.org/2000/svg" viewBox="0 0 1024 1024">
   <circle cx="512" cy="512" r="512" style="fill:#0d3387"/>
   <path d="M758 748h-81.3L523.31 594.45l-24.91 24.44a87.33 87.33 0 1 1-77.16-150.4v62.34a29.79 29.79 0 1 0 38.17 45.74c2.17-1.49 44.08-42.69 44.08-42.69v-40.7l19.94 19.94 152.22-151.76h81.47l-193 192.48ZM617.53 357.88l-9.54 6a3.17 3.17 0 0 0-1.36 2.36l-.46 11.27c0 .85-.6 1.07-1.24.55l-8.67-7.21a3.37 3.37 0 0 0-2.69-.56l-10.87 3.06c-.82.24-1.21-.23-.91-1l4.21-10.49a3.2 3.2 0 0 0-.31-2.69l-6.25-9.36c-.47-.71-.17-1.25.69-1.18l11.26.73a3.43 3.43 0 0 0 2.49-1.11l7-8.85c.55-.67 1.15-.54 1.35.29l2.77 10.89a3.25 3.25 0 0 0 1.8 2l10.63 3.9c.77.34.82.94.1 1.4Zm-43.42-10.29a20 20 0 0 1-7.64-3 2.51 2.51 0 0 1-.57-3.46 2.48 2.48 0 0 1 3.47-.58 12.47 12.47 0 0 0 5.55 2.14c1.51.19 2.89 1.16 2.55 3-.27 1.4-1.63 2.2-3.36 1.89Zm-15.39-12.36a2.33 2.33 0 0 0-.08 1.91l5.1 10.86a.64.64 0 0 1-.6 1l-12 .08a2.43 2.43 0 0 0-1.72.87l-6.86 9.87a.63.63 0 0 1-1.16 0l-6.07-10.38a2.22 2.22 0 0 0-1.63-1l-12-1a.63.63 0 0 1-.53-1l5.94-10.43a2.26 2.26 0 0 0 0-1.92L522 323.23a.65.65 0 0 1 .62-1l12-.09a2.39 2.39 0 0 0 1.69-.88l6.85-9.85a.64.64 0 0 1 1.16 0l6.07 10.38a2.39 2.39 0 0 0 1.62 1l12 1a.64.64 0 0 1 .53 1Zm-26.38-18.45a2.49 2.49 0 0 1-3.32-1.12c-14.73-29.3-48.9-45.46-49.16-45.63a2.48 2.48 0 0 1 2.84-4.06c1.14.8 35.45 17 50.75 47.48a2.49 2.49 0 0 1-1.12 3.32Zm-39.82-94.65-11 6a3.63 3.63 0 0 0-1.67 2.55l-1.26 12.47c-.12.93-.74 1.17-1.41.53l-9.18-8.61a3.66 3.66 0 0 0-2.9-.83l-12.26 2.65c-.94.23-1.33-.32-.95-1.17l5.36-11.35a3.53 3.53 0 0 0-.16-3l-6.29-10.87c-.46-.79-.09-1.36.85-1.24l12.43 1.61a3.78 3.78 0 0 0 2.84-1.1l8.35-9.33c.64-.71 1.28-.53 1.48.4l2.32 12.32a3.64 3.64 0 0 0 1.89 2.38l11.47 5c.9.46.9 1.11.08 1.58Zm-36.39 32.56 5.35-8.32c.42-.62.93-.57 1.18.14l3.34 9.29a2.91 2.91 0 0 0 1.76 1.61l9.59 2.53c.71.19.81.71.23 1.17l-7.82 6.06a2.89 2.89 0 0 0-1 2.16l.57 9.88c0 .74-.44 1-1 .58l-8.18-5.56a3 3 0 0 0-2.39-.27l-9.19 3.57c-.72.28-1.1-.08-.88-.79l2.77-9.5a2.94 2.94 0 0 0-.5-2.34l-6.26-7.65c-.47-.59-.24-1.1.49-1.11l9.91-.3a3 3 0 0 0 2.02-1.17Zm-7.4 54.3a2.51 2.51 0 0 1-1.22-3.29 107 107 0 0 0 8.13-24.56 2.48 2.48 0 1 1 4.9.8 109.69 109.69 0 0 1-8.54 25.81 2.48 2.48 0 0 1-3.28 1.25Zm42.4 220.17L453.38 567a18.79 18.79 0 0 1-13.38 5.6 18.4 18.4 0 0 1-6.4-1.15V361.36h57.53Zm-54.18-265.9c-13.2-1.1-32.94 1.47-41.58 3.58-2.71.67-5 1.23-6.9 1.57-7.74 1.35-21.61 1.06-22.21 1a2.48 2.48 0 0 1 .11-5c.14 0 14 .29 21.25-1 1.69-.29 3.95-.84 6.56-1.48 8.94-2.19 29.18-4.88 43.18-3.71a2.48 2.48 0 0 1-.41 4.95Zm-84.23 8.06a3.76 3.76 0 0 0-.82 2.95l2.64 12.32c.19.92-.33 1.34-1.19 1l-11.4-5.4a3.72 3.72 0 0 0-3 .11L328 288.56c-.82.46-1.39.09-1.27-.85l1.62-12.48a3.73 3.73 0 0 0-1.05-2.88l-9.38-8.41c-.71-.63-.54-1.28.4-1.48l12.4-2.29a3.84 3.84 0 0 0 2.4-1.91l5.11-11.52c.36-.87 1-.9 1.49-.08l6 11.07a3.7 3.7 0 0 0 2.56 1.69l12.53 1.29c.94.11 1.16.73.53 1.43Zm-34.35 80.87 5.18-8.87c.4-.66 1-.62 1.24.09l3.88 9.5a3.1 3.1 0 0 0 1.9 1.6l10.06 2.15c.74.18.89.72.31 1.22l-7.83 6.65a3 3 0 0 0-1 2.31l1.08 10.16c.06.76-.4 1.07-1.06.67l-8.73-5.4a2.92 2.92 0 0 0-2.47-.18l-9.41 4.15c-.71.31-1.14 0-.95-.8l2.43-10a3.08 3.08 0 0 0-.59-2.41l-6.85-7.66c-.5-.56-.3-1.08.46-1.14l10.23-.79a3 3 0 0 0 2.11-1.28Zm-5.22-81.72a88.17 88.17 0 0 1-38.58-10.33 2.48 2.48 0 0 1 2.49-4.3 84.56 84.56 0 0 0 36.2 9.67 2.49 2.49 0 0 1 2.41 2.56 2.45 2.45 0 0 1-2.53 2.37Zm-34.9 115.3 15.44 2.11a.83.83 0 0 1 .63 1.37l-8.4 13.15a3 3 0 0 0-.22 2.47l5.87 14.44a.82.82 0 0 1-.85 1.22l-15.6-.71a3 3 0 0 0-2.25 1l-9.56 12.33a.82.82 0 0 1-1.49-.14l-7.2-13.83a3 3 0 0 0-2-1.43l-15.44-2.14a.83.83 0 0 1-.64-1.35l8.41-13.14a3.09 3.09 0 0 0 .25-2.46l-5.91-14.43a.83.83 0 0 1 .88-1.25l15.57.71a3.1 3.1 0 0 0 2.27-1.05l9.55-12.32a.84.84 0 0 1 1.51.15l7.17 13.85a3 3 0 0 0 2 1.42Zm-22 56.71a2.56 2.56 0 0 1-2.19 2.75 2.39 2.39 0 0 1-2.73-2c-.06-.32.91-10.38.91-10.38a2.49 2.49 0 1 1 4.94.58c-.44 3.83-.94 8.64-.92 9.33Zm-18.4 20.18 11.94-2.09a3.56 3.56 0 0 0 2.32-1.8l5-11c.39-.82 1-.86 1.47 0l5.67 10.71a3.52 3.52 0 0 0 2.4 1.65l12.07 1.39c.9.08 1.1.71.46 1.36l-8.41 8.72a3.63 3.63 0 0 0-.83 2.82l2.41 11.87c.17.9-.36 1.29-1.16.9l-10.91-5.32a3.49 3.49 0 0 0-2.92.09l-10.55 5.94c-.81.46-1.33.06-1.22-.81l1.71-12a3.62 3.62 0 0 0-1-2.76l-8.89-8.33c-.67-.59-.48-1.22.42-1.37Zm39.55 12.63a114.87 114.87 0 0 1 17.67 1.25 2.48 2.48 0 0 1-.81 4.89 113.9 113.9 0 0 0-16.58-1.19 2.45 2.45 0 0 1-2.6-2.31 2.48 2.48 0 0 1 2.31-2.67Zm7.57-94a2.48 2.48 0 1 1-3.52-3.49c.37-.37 11.36-9.6 22.81-13.86a2.48 2.48 0 1 1 1.73 4.65c-10.4 3.83-20.93 12.59-20.99 12.66Zm15.8 94.2 10.14-1.49a3 3 0 0 0 2-1.45l4.53-9.2c.34-.71.9-.71 1.24 0l4.53 9.2a3 3 0 0 0 2 1.45l10.17 1.48c.75.12.94.65.39 1.19l-7.36 7.17a2.91 2.91 0 0 0-.76 2.36l1.73 10.14c.14.76-.33 1.09-1 .71l-9.09-4.78a2.91 2.91 0 0 0-2.48 0l-9.04 4.73c-.68.38-1.14 0-1-.71l1.75-10.14a3 3 0 0 0-.78-2.36l-7.35-7.17c-.56-.52-.39-1.05.37-1.17Zm28.36-133.52a2.47 2.47 0 0 1-2-2.85c.89-5.44 10.17-48 10.46-49.47a2.48 2.48 0 0 1 4.85 1.05c-.08.36-9.53 43.9-10.44 49.25a2.46 2.46 0 0 1-2.88 1.98Zm162 297.56V748h-57.54v-94.84c2.21.15 6.71.25 6.71.25a99.61 99.61 0 0 0 50.82-13.92Z" style="fill:#fff"/>
</svg>
