<svg xmlns="http://www.w3.org/2000/svg" xmlns:xlink="http://www.w3.org/1999/xlink" viewBox="0 0 1024 1024" style="enable-background:new 0 0 1024 1024" xml:space="preserve">
   <circle cx="512" cy="512" r="512" style="fill:#d32d27"/>
   <path d="M741.2 394.9c0-7.8 6-13.8 13.8-13.8 7.8 0 13.8 6 13.8 13.8v220.8c0 7.8-6 13.8-13.8 13.8-7.8 0-13.8-6-13.8-13.8V394.9zm-437.9 69c25.9 0 46.8 21 46.8 46.8 0 25.8-20.9 46.8-46.8 46.8-25.8 0-46.8-21-46.8-46.8 0-25.9 21-46.8 46.8-46.8m156 0c25.8 0 46.8 21 46.8 46.8 0 25.8-21 46.8-46.8 46.8-25.9 0-46.8-21-46.8-46.8 0-25.9 21-46.8 46.8-46.8m156.1 0c25.8 0 46.8 21 46.8 46.8 0 25.8-21 46.8-46.8 46.8-25.8 0-46.8-21-46.8-46.8 0-25.9 20.9-46.8 46.8-46.8" style="fill:#fff"/>
</svg>
