<?xml version="1.0" encoding="utf-8"?>
<!-- Generator: Adobe Illustrator 21.0.0, SVG Export Plug-In . SVG Version: 6.00 Build 0)  -->
<svg version="1.1" xmlns="http://www.w3.org/2000/svg" xmlns:xlink="http://www.w3.org/1999/xlink" x="0px" y="0px"
	 viewBox="0 0 1024 1024" style="enable-background:new 0 0 1024 1024;" xml:space="preserve">
<style type="text/css">
	.st0{fill:#D32D27;}
	.st1{clip-path:url(#SVGID_2_);}
	.st2{clip-path:url(#SVGID_4_);fill:#FFFFFF;}
</style>
<g id="Guides">
</g>
<g id="Icon">
	<circle class="st0" cx="512" cy="512" r="512"/>
	<g>
		<g>
			<defs>
				<rect id="SVGID_1_" x="256.5" y="255.7" width="512.3" height="512.3"/>
			</defs>
			<clipPath id="SVGID_2_">
				<use xlink:href="#SVGID_1_"  style="overflow:visible;"/>
			</clipPath>
			<g class="st1">
				<defs>
					<rect id="SVGID_3_" x="256.5" y="255.7" width="512.3" height="512.3"/>
				</defs>
				<clipPath id="SVGID_4_">
					<use xlink:href="#SVGID_3_"  style="overflow:visible;"/>
				</clipPath>
				<path class="st2" d="M741.2,394.9c0-7.8,6-13.8,13.8-13.8c7.8,0,13.8,6,13.8,13.8v220.8c0,7.8-6,13.8-13.8,13.8
					c-7.8,0-13.8-6-13.8-13.8V394.9z M303.3,463.9c25.9,0,46.8,21,46.8,46.8c0,25.8-20.9,46.8-46.8,46.8c-25.8,0-46.8-21-46.8-46.8
					C256.5,484.8,277.5,463.9,303.3,463.9 M459.3,463.9c25.8,0,46.8,21,46.8,46.8c0,25.8-21,46.8-46.8,46.8
					c-25.9,0-46.8-21-46.8-46.8C412.5,484.8,433.5,463.9,459.3,463.9 M615.4,463.9c25.8,0,46.8,21,46.8,46.8
					c0,25.8-21,46.8-46.8,46.8c-25.8,0-46.8-21-46.8-46.8C568.6,484.8,589.5,463.9,615.4,463.9"/>
			</g>
		</g>
	</g>
</g>
</svg>
