<?xml version="1.0" encoding="UTF-8" standalone="no"?>
<svg
   xmlns:dc="http://purl.org/dc/elements/1.1/"
   xmlns:cc="http://creativecommons.org/ns#"
   xmlns:rdf="http://www.w3.org/1999/02/22-rdf-syntax-ns#"
   xmlns:svg="http://www.w3.org/2000/svg"
   xmlns="http://www.w3.org/2000/svg"
   viewBox="0 0 1365.3333 1365.3333"
   height="1365.3333"
   width="1365.3333"
   xml:space="preserve"
   id="svg2"
   version="1.1"><metadata
     id="metadata8"><rdf:RDF><cc:Work
         rdf:about=""><dc:format>image/svg+xml</dc:format><dc:type
           rdf:resource="http://purl.org/dc/dcmitype/StillImage" /></cc:Work></rdf:RDF></metadata><defs
     id="defs6"><clipPath
       id="clipPath18"
       clipPathUnits="userSpaceOnUse"><path
         id="path16"
         d="M 0,1024 H 1024 V 0 H 0 Z" /></clipPath><clipPath
       id="clipPath30"
       clipPathUnits="userSpaceOnUse"><path
         id="path28"
         d="M 256.5,256 H 768.833 V 768.334 H 256.5 Z" /></clipPath></defs><g
     transform="matrix(1.3333333,0,0,-1.3333333,0,1365.3333)"
     id="g10"><g
       id="g12"><g
         clip-path="url(#clipPath18)"
         id="g14"><g
           transform="translate(1024,512)"
           id="g20"><path
             id="path22"
             style="fill:#d52525;fill-opacity:1;fill-rule:nonzero;stroke:none"
             d="m 0,0 c 0,-282.77 -229.23,-512 -512,-512 -282.77,0 -512,229.23 -512,512 0,282.77 229.23,512 512,512 C -229.23,512 0,282.77 0,0" /></g></g></g><g
       id="g24"><g
         clip-path="url(#clipPath30)"
         id="g26"><g
           transform="translate(615.3584,560.1138)"
           id="g32"><path
             id="path34"
             style="fill:#ffffff;fill-opacity:1;fill-rule:nonzero;stroke:none"
             d="m 0,0 c 25.844,0 46.807,-20.963 46.807,-46.807 0,-25.845 -20.963,-46.808 -46.807,-46.808 -25.845,0 -46.808,20.963 -46.808,46.808 C -46.808,-20.963 -25.845,0 0,0 m -156.02,0 c 25.844,0 46.808,-20.963 46.808,-46.807 0,-25.845 -20.964,-46.808 -46.808,-46.808 -25.858,0 -46.807,20.963 -46.807,46.808 0,25.844 20.949,46.807 46.807,46.807 m -156.034,0 c 25.859,0 46.807,-20.963 46.807,-46.807 0,-25.845 -20.948,-46.808 -46.807,-46.808 -25.844,0 -46.807,20.963 -46.807,46.808 0,25.844 20.963,46.807 46.807,46.807 m 437.931,68.952 c 0,7.798 6.006,13.804 13.791,13.804 7.799,0 13.804,-6.006 13.804,-13.804 v -220.844 c 0,-7.799 -6.005,-13.805 -13.804,-13.805 -7.785,0 -13.791,6.006 -13.791,13.805 z" /></g></g></g></g></svg>