<?xml version="1.0" encoding="utf-8"?>
<!-- Generator: Adobe Illustrator 21.0.0, SVG Export Plug-In . SVG Version: 6.00 Build 0)  -->
<svg version="1.1" xmlns="http://www.w3.org/2000/svg" xmlns:xlink="http://www.w3.org/1999/xlink" x="0px" y="0px"
	 viewBox="0 0 1024 1024" style="enable-background:new 0 0 1024 1024;" xml:space="preserve">
<style type="text/css">
	.st0{fill:#0A66C2;}
	.st1{fill:#FFFFFF;}
</style>
<g id="Guides">
</g>
<g id="Icon">
	<circle class="st0" cx="512" cy="512" r="512"/>
	<g>
		<title>LinkedIn icon</title>
		<path class="st1" d="M693.1,693.2h-76v-119c0-28.4-0.6-64.9-39.6-64.9c-39.6,0-45.7,30.9-45.7,62.8v121.1h-76V448.4h73v33.4h1
			c10.2-19.2,35-39.5,72-39.5c77,0,91.2,50.7,91.2,116.6L693.1,693.2L693.1,693.2z M370.1,414.9c-24.5,0-44.1-19.8-44.1-44.1
			c0-24.3,19.7-44.1,44.1-44.1c24.4,0,44.1,19.8,44.1,44.1C414.2,395.1,394.4,414.9,370.1,414.9z M408.2,693.2H332V448.4h76.2V693.2
			z M731.1,256H293.9c-20.9,0-37.9,16.5-37.9,37V732c0,20.4,16.9,37,37.9,37H731c20.9,0,38-16.5,38-37V293
			C769,272.5,751.9,256,731.1,256L731.1,256z"/>
	</g>
</g>
</svg>
