<svg xmlns="http://www.w3.org/2000/svg" viewBox="0 0 1024 1024">
   <circle cx="512" cy="512" r="512" style="fill:#44679f"/>
   <path d="m483.93 647-1.36-232.81a28.6 28.6 0 0 1 8.43-20.56 29.05 29.05 0 0 1 20.73-8.45 30.16 30.16 0 0 1 30 29.69s1.44 279.53 1.44 279.53c.29 42.32-27.12 73.73-62.44 73.54-17.12-.09-32.07-5.45-42.61-17-11.17-12.2-17.25-30.77-17.3-55.63s-2.22-348.16-2.22-348.16a89.85 89.85 0 0 1 26.57-64.62 91 91 0 0 1 65.07-26.46c51.34.47 92.71 41.54 93.19 92.59 0 3.15 2 303.7 2 303.7a13.62 13.62 0 0 0 27.25-.18l-2-303.74c-.61-65.9-53.93-119-120.18-119.61a118.31 118.31 0 0 0-84.55 34.39 117.08 117.08 0 0 0-34.61 84.16l2.22 348.07c.07 33.23 9.52 57.63 24.45 73.94 15.56 17 37.29 25.68 62.56 25.81 49.47.26 90.23-41.68 89.83-101l-1.44-279.56A57.39 57.39 0 0 0 512 357.93a56.11 56.11 0 0 0-56.69 56.43s1.36 232.76 1.36 232.76a13.62 13.62 0 1 0 27.25-.16Z" style="fill:#fff"/>
</svg>
