<svg xmlns="http://www.w3.org/2000/svg" viewBox="0 0 1024 1024">
   <circle cx="512" cy="512" r="512" style="fill:#0a66c2"/>
   <path d="M693.05 693.16h-76v-119c0-28.39-.58-64.92-39.59-64.92-39.61 0-45.66 30.89-45.66 62.82v121.1h-76V448.38h73v33.37h1c10.2-19.24 35-39.54 72-39.54 77 0 91.21 50.66 91.21 116.6v134.35Zm-323-278.28a44.12 44.12 0 1 1 44.12-44.14 44.07 44.07 0 0 1-44.09 44.14Zm38.09 278.28H332V448.38h76.18ZM731.06 256h-437.2c-20.93 0-37.86 16.54-37.86 37v439c0 20.43 16.93 37 37.86 37H731c20.9 0 38-16.52 38-37V293c0-20.41-17.1-37-38-37Z" style="fill:#fff"/>
</svg>
