<svg xmlns="http://www.w3.org/2000/svg" viewBox="0 0 1024 1024" style="enable-background:new 0 0 1024 1024" xml:space="preserve">
   <circle cx="512" cy="512" r="512" style="fill:#00a95c"/>
   <path d="M736.5 483.9c.2-1.2-.4-2.4-1.5-3.1l-69.6-38.9c-.9-.5-2-.5-2.9 0L603.3 478c-.9.5-1.5 1.7-1.6 2.8v30.9l-24.1-15.8c-.9-.7-2.2-.7-3.1 0L540 517.2l-1.6-35c-.1-1-.7-1.9-1.4-2.6l-35.3-23.2 32.2-16.7c1-.7 1.7-1.8 1.7-3l-5.8-133.8c0-1.1-.7-2.2-1.7-2.8L437.7 256h-2.1l-124.3 38.6c-1.5.8-2.2 2.4-1.7 4.1l27.1 132.9c-.1.5-.1 1.1 0 1.7l39 29.5-26.9 12.8c-1.2.8-2 2.2-1.7 3.7l21.3 100.4c-.1.5-.1 1 0 1.5l26.4 24.3-17.1 10.4c-1.1.8-1.6 2.1-1.2 3.5l16 77.7c-.2.5-.2 1 0 1.5l64 68.7c1.1 1.2 3.1 1.2 4.2 0l83.7-66.6c.8-.6 1.2-1.6 1.2-2.6l-1.5-45.2 28.1 23.5c1.1 1 2.8 1 3.9 0l67-53.6c.5-.7 1-1.5 1.2-2.3l2-33.5 21.7 14c1 .9 2.6.9 3.6 0l54.9-42.7c.5-.5 1-1.2 1-2.1l9-72.3zm-205.3 3.2 1.5 33.6 2.6 59.2-90.3 61.2-14.1-96.6 100.3-57.4zm-7.5-179.7 5.3 126.1-106.7 55.4-19.2-135 120.6-46.5zM342.5 429.3l-25.8-125.1 79.8 49.5 19.9 132.4-33.8-25.7-40.1-31.1zm31.2 147.8-18.8-90.9 70 58.6 12.8 93.4-35.9-34.6-28.1-26.5zM398 694.7l-13.9-67 61.7 60.9 10 67.4-57.8-61.3zm64.1 64-10.4-71 85.4-61.3 2.9 70-77.9 62.3zm82.3-114.3v-23c0-.9-.4-1.8-1.1-2.3l-24.1-19.7 21.3-14.9c.9-.7 1.3-1.6 1.3-2.6v-5.5l29.7 22.6v68.6l-27.1-23.2zm94.7-25.6-61 48.7v-68.8l65.6-46.9-4.6 67zm27.6-25.9-19.2-13.3 1.9-34c.2-.5.2-.9 0-1.2.1-.3.1-.8 0-1.1l-41.1-27.1v-29.7l64 40.3-5.6 66.1zm54.4-39.7-48.7 38.7 5.6-65.4 51.8-35.8-8.7 62.5zm0 0" style="fill:#fff"/>
</svg>
