<?xml version="1.0" encoding="utf-8"?>
<!-- Generator: Adobe Illustrator 21.0.0, SVG Export Plug-In . SVG Version: 6.00 Build 0)  -->
<svg version="1.1" xmlns="http://www.w3.org/2000/svg" xmlns:xlink="http://www.w3.org/1999/xlink" x="0px" y="0px"
	 viewBox="0 0 1024 1024" style="enable-background:new 0 0 1024 1024;" xml:space="preserve">
<style type="text/css">
	.st0{fill:#00A95C;}
	.st1{fill:#FFFFFF;}
</style>
<g id="Min_Guides__x28_DO_NOT_REMOVE_x29_">
</g>
<g id="Max_Guides__x28_DO_NOT_REMOVE_x29_">
</g>
<g id="Icon">
	<circle id="Background" class="st0" cx="512" cy="512" r="512"/>
	<path class="st1" d="M736.5,483.9c0.2-1.2-0.4-2.4-1.5-3.1l-69.6-38.9c-0.9-0.5-2-0.5-2.9,0L603.3,478c-0.9,0.5-1.5,1.7-1.6,2.8
		v30.9l-24.1-15.8c-0.9-0.7-2.2-0.7-3.1,0L540,517.2l-1.6-35c-0.1-1-0.7-1.9-1.4-2.6l-35.3-23.2l32.2-16.7c1-0.7,1.7-1.8,1.7-3
		l-5.8-133.8c0-1.1-0.7-2.2-1.7-2.8L437.7,256h-2.1l-124.3,38.6c-1.5,0.8-2.2,2.4-1.7,4.1l27.1,132.9c-0.1,0.5-0.1,1.1,0,1.7
		l39,29.5l-26.9,12.8c-1.2,0.8-2,2.2-1.7,3.7l21.3,100.4c-0.1,0.5-0.1,1,0,1.5l26.4,24.3l-17.1,10.4c-1.1,0.8-1.6,2.1-1.2,3.5
		l16,77.7c-0.2,0.5-0.2,1,0,1.5l64,68.7c1.1,1.2,3.1,1.2,4.2,0l83.7-66.6c0.8-0.6,1.2-1.6,1.2-2.6l-1.5-45.2l28.1,23.5
		c1.1,1,2.8,1,3.9,0l67-53.6c0.5-0.7,1-1.5,1.2-2.3l2-33.5L668,601c1,0.9,2.6,0.9,3.6,0l54.9-42.7c0.5-0.5,1-1.2,1-2.1L736.5,483.9z
		 M531.2,487.1l1.5,33.6l2.6,59.2l-90.3,61.2l-14.1-96.6L531.2,487.1z M523.7,307.4l5.3,126.1l-106.7,55.4l-19.2-135L523.7,307.4z
		 M342.5,429.3l-25.8-125.1l79.8,49.5l19.9,132.4l-33.8-25.7L342.5,429.3z M373.7,577.1l-18.8-90.9l70,58.6l12.8,93.4l-35.9-34.6
		L373.7,577.1z M398,694.7l-13.9-67l61.7,60.9l10,67.4L398,694.7z M462.1,758.7l-10.4-71l85.4-61.3l2.9,70L462.1,758.7z
		 M544.4,644.4v-23c0-0.9-0.4-1.8-1.1-2.3l-24.1-19.7l21.3-14.9c0.9-0.7,1.3-1.6,1.3-2.6v-5.5l29.7,22.6v68.6L544.4,644.4z
		 M639.1,618.8l-61,48.7v-68.8l65.6-46.9L639.1,618.8z M666.7,592.9l-19.2-13.3l1.9-34c0.2-0.5,0.2-0.9,0-1.2c0.1-0.3,0.1-0.8,0-1.1
		l-41.1-27.1v-29.7l64,40.3L666.7,592.9z M721.1,553.2l-48.7,38.7l5.6-65.4l51.8-35.8L721.1,553.2z M721.1,553.2"/>
</g>
</svg>
