<?xml version="1.0" encoding="utf-8"?>
<!-- Generator: Adobe Illustrator 21.0.0, SVG Export Plug-In . SVG Version: 6.00 Build 0)  -->
<svg version="1.1" xmlns="http://www.w3.org/2000/svg" xmlns:xlink="http://www.w3.org/1999/xlink" x="0px" y="0px"
	 viewBox="0 0 1024 1024" style="enable-background:new 0 0 1024 1024;" xml:space="preserve">
<style type="text/css">
	.st0{fill:#F15A29;}
	.st1{fill:#FFFFFF;}
</style>
<g id="Min_Guides__x28_DO_NOT_REMOVE_x29_">
</g>
<g id="Max_Guides__x28_DO_NOT_REMOVE_x29_">
</g>
<g id="Icon">
	<circle id="Background" class="st0" cx="512" cy="512" r="512"/>
	<path class="st1" d="M755.6,432.1c-10.9-33.4-29-64.7-52.7-91c-0.6-0.7-1.1-1.4-1.1-1.5c0-0.1-0.1-0.2-0.2-0.2
		c-0.1,0-1.2-1.1-2.5-2.4c-14.9-16-33.3-31.1-52.2-42.8c-8.7-5.4-20.2-11.6-28.8-15.4c-1.4-0.6-2.5-1.2-2.5-1.3
		c0-0.1-0.2-0.1-0.3-0.1s-1.3-0.4-2.5-1c-12-5.2-24.8-9.5-37.7-12.7c-48-12.1-99.2-10-145.8,5.8c-32,10.9-61.7,28.2-87.2,50.8
		c-15.1,13.4-28.7,28.6-40,44.8c-27.1,38.5-42.7,83-45.7,130.5c-0.9,13.3-0.6,28.2,0.7,41.5c4.8,49.6,23.6,96,54.7,134.9
		c2.8,3.4,4.5,5.5,8,9.5c1.4,1.6,2.5,3,2.5,3.1c0,0.1,0.1,0.2,0.2,0.2s1.1,1,2.2,2.2c4.9,5.3,13.1,13.2,19,18.4
		c18.4,16,39.5,29.7,61.4,39.8c1.8,0.8,3.3,1.6,3.4,1.7c0.1,0.1,0.1,0.1,0.2,0.1c0,0,1.2,0.4,2.5,0.9c27.8,12,58.6,18.9,89.8,20.3v0
		c4,0.2,17.7,0.2,21.5,0c34.2-1.5,66.1-9.1,96.3-22.9c27.2-12.5,52.7-30.2,74.3-51.8c40.6-40.5,66-92.3,73.1-148.9
		C770.9,506.6,767.3,468,755.6,432.1z M339.4,511.1v167.7l-0.7,0.2l-0.7,0.2l-2.2-2.4c-38.4-41.1-61.1-93.6-64.7-149.5
		c-1.9-29.8,1.7-59.5,10.6-88c10-32,27.2-62.3,49.7-87.5c2.1-2.3,6.9-7.6,7.6-8.2l0.4-0.4V511.1z M563.7,458.3l0,36.5
		c0,29.2,0,36.5,0.1,36.4c0.4-0.2,51.5-17.2,51.6-17.2c0,0,0.1,48.7,0.1,108.1l0,108.1l-1.6,0.7c-28.6,13.1-56.6,20.2-88.1,22.1l0,0
		c-4.2,0.3-19.3,0.4-23.4,0.2c-32.3-1.5-61.7-8.5-90.4-21.5l-3.3-1.5l0-0.8l0-0.8l86.2-28.8c47.4-15.9,90.1-30.1,94.8-31.7l8.7-2.9
		v-36.4c0-21.8-0.1-36.4-0.1-36.4c-0.1,0-4.5,1.5-9.9,3.3c-12.7,4.3-179.6,60.1-179.6,60.1c0,0,0-81.4,0-180.9V293.9l2.2-1
		c26-12,53-19.1,81.8-21.4c10.7-0.9,24.9-1,35.9-0.2c29.2,2,56.9,9,83.6,21.1l3.3,1.5l0,0.8l0,0.8l-94.8,31.7l-94.8,31.7l0,36.5
		c0,20.1,0,36.5,0,36.5c0,0,11.7-3.9,25.8-8.6l25.8-8.6v100v100l34.6-11.6c19-6.4,34.6-11.6,34.6-11.6s0.1-45,0.1-100.1l0-100.1
		l69.6-23.3l69.6-23.3l1.2,1.3c10.1,10.5,21.2,24.8,29.7,38.4c4.1,6.5,10.9,18.7,10.6,19c0,0-36.9,12.4-81.9,27.5L563.7,458.3z
		 M752.8,528.9c-3.3,46.5-19.6,90.5-47.5,127.8c-4.9,6.5-10.8,13.6-16,19.2c-0.7,0.8-2.1,2.2-3,3.2l-1.7,1.8l0-95l0-95l32.3-10.8
		c17.8-5.9,32.4-10.8,32.5-10.8c0.2,0,0.3,0.2,1.1,5.2C753.2,492,754.1,510.7,752.8,528.9z"/>
</g>
</svg>
