<?xml version="1.0" encoding="utf-8"?>
<!-- Generator: Adobe Illustrator 21.0.0, SVG Export Plug-In . SVG Version: 6.00 Build 0)  -->
<svg version="1.1" xmlns="http://www.w3.org/2000/svg" xmlns:xlink="http://www.w3.org/1999/xlink" x="0px" y="0px"
	 viewBox="0 0 1024 1024" style="enable-background:new 0 0 1024 1024;" xml:space="preserve">
<style type="text/css">
	.st0{fill:#F15A29;}
	.st1{fill:#FFFFFF;}
</style>
<g id="Guides">
</g>
<g id="Icon">
	<circle class="st0" cx="512" cy="512" r="512"/>
	<path id="Logo" inkscape:connector-curvature="0" class="st1" d="M501,768c-31.2-1.4-62.1-8.3-89.8-20.3c-1.3-0.6-2.4-1-2.5-0.9
		c0,0-0.1,0-0.2-0.1c-0.1-0.1-1.6-0.8-3.4-1.7c-21.9-10-43-23.7-61.4-39.8c-5.9-5.2-14.1-13.1-19-18.4c-1.1-1.2-2.1-2.2-2.2-2.2
		c-0.1,0-0.2-0.1-0.2-0.2s-1.1-1.5-2.5-3.1c-3.5-4-5.3-6.1-8-9.5C280.6,633,261.8,586.6,257,537c-1.3-13.3-1.5-28.2-0.7-41.5
		c3.1-47.5,18.7-92,45.7-130.5c11.4-16.2,24.9-31.4,40-44.8c25.5-22.7,55.2-40,87.2-50.8c46.6-15.8,97.8-17.8,145.8-5.8
		c12.9,3.2,25.6,7.5,37.7,12.7c1.2,0.5,2.4,1,2.5,1s0.3,0.1,0.3,0.1c0,0.1,1.2,0.6,2.5,1.3c8.6,3.9,20.1,10,28.8,15.4
		c18.9,11.8,37.2,26.8,52.2,42.8c1.3,1.4,2.4,2.5,2.5,2.4c0.1,0,0.2,0.1,0.2,0.2c0,0.1,0.5,0.8,1.1,1.5c23.6,26.3,41.8,57.6,52.7,91
		c11.7,35.9,15.4,74.5,10.6,112.3c-7.1,56.6-32.5,108.3-73.1,148.9c-21.6,21.6-47.1,39.3-74.3,51.8c-30.2,13.8-62.1,21.4-96.3,22.9
		C518.7,768.2,504.9,768.2,501,768L501,768z M525.8,753.1c31.5-2,59.5-9,88.1-22.1l1.6-0.7l0-108.1c0-59.5,0-108.1-0.1-108.1
		c-0.1,0-51.2,17.1-51.6,17.2c-0.1,0.1-0.2-7.2-0.1-36.4l0-36.5l81.9-27.4c45-15.1,81.9-27.4,81.9-27.5c0.3-0.3-6.5-12.5-10.6-19
		c-8.5-13.6-19.6-27.9-29.7-38.4l-1.2-1.3l-69.6,23.3l-69.6,23.3l0,100.1c0,55-0.1,100.1-0.1,100.1s-15.6,5.2-34.6,11.6l-34.6,11.6
		v-100v-100l-25.8,8.6c-14.2,4.7-25.8,8.6-25.8,8.6c0,0,0-16.4,0-36.5l0-36.5l94.8-31.7l94.8-31.7l0-0.8l0-0.8l-3.3-1.5
		c-26.7-12.1-54.5-19.1-83.6-21.1c-11-0.8-25.2-0.7-35.9,0.2c-28.8,2.4-55.8,9.5-81.8,21.4l-2.2,1v180.9c0,99.5,0,180.9,0,180.9
		c0.1,0,166.9-55.8,179.6-60.1c5.4-1.8,9.8-3.3,9.9-3.3c0.1,0,0.1,14.6,0.1,36.4v36.4l-8.7,2.9c-4.8,1.6-47.5,15.9-94.8,31.7
		l-86.2,28.8l0,0.8l0,0.8l3.3,1.5c28.7,13,58.1,20,90.4,21.5C506.5,753.5,521.5,753.3,525.8,753.1L525.8,753.1z M689.3,675.8
		c5.2-5.6,11.1-12.7,16-19.2c27.9-37.3,44.3-81.2,47.5-127.8c1.3-18.2,0.5-36.9-2.3-54.6c-0.8-4.9-0.8-5.2-1.1-5.2
		c-0.1,0-14.7,4.9-32.5,10.8l-32.3,10.8l0,95l0,95l1.7-1.8C687.2,678,688.5,676.6,689.3,675.8L689.3,675.8z M339.4,511.1V343.4
		l-0.4,0.4c-0.7,0.6-5.5,5.8-7.6,8.2c-22.4,25.2-39.7,55.6-49.7,87.5c-8.9,28.5-12.5,58.2-10.6,88c3.5,55.9,26.2,108.3,64.7,149.5
		l2.2,2.4l0.7-0.2l0.7-0.2V511.1z"/>
</g>
</svg>
