<?xml version="1.0" encoding="utf-8"?>
<!-- Generator: Adobe Illustrator 21.0.0, SVG Export Plug-In . SVG Version: 6.00 Build 0)  -->
<svg version="1.1" xmlns="http://www.w3.org/2000/svg" xmlns:xlink="http://www.w3.org/1999/xlink" x="0px" y="0px"
	 viewBox="0 0 1024 1024" style="enable-background:new 0 0 1024 1024;" xml:space="preserve">
<style type="text/css">
	.st0{fill:#F47116;}
	.st1{fill:#FFFFFF;}
</style>
<g id="Guides">
</g>
<g id="Icon">
	<circle class="st0" cx="512" cy="512" r="512"/>
	<g>
		<path class="st1" d="M512,270c14.9,0,29.8,1.6,44.4,4.6l-11.5,42.9c-21.7-4.2-44-4.2-65.7,0l-11.6-42.9
			C482.2,271.6,497.1,270,512,270L512,270z M577.7,280.4c28.4,9.2,54.6,24.3,76.8,44.4l-31.4,31.4c-16.6-14.6-36-25.8-56.9-32.9
			L577.7,280.4z M670,340.4c20.1,22.2,35.2,48.4,44.4,76.8l-42.8,11.4c-7.2-20.9-18.4-40.3-32.9-56.9L670,340.4z M720.1,438.5
			c6.2,29.3,6.2,59.5,0,88.8l-42.8-11.5c4.2-21.7,4.2-44.1,0-65.8L720.1,438.5z M714.4,548.5c-9.2,28.4-24.3,54.6-44.4,76.7
			l-31.4-31.4c14.6-16.6,25.7-36,32.8-56.9L714.4,548.5z M654.4,640.9c-22.2,20-48.4,35.1-76.7,44.4l-11.5-42.9
			c21-7.1,40.3-18.3,56.9-32.9L654.4,640.9z M556.4,690.9c-29.3,6.2-59.5,6.2-88.8,0l11.5-42.9c21.7,4.4,44,4.4,65.7,0L556.4,690.9z
			 M446.3,685.2c-28.4-9.3-54.6-24.4-76.8-44.4l31.4-31.5c16.6,14.7,36,25.9,56.9,32.9L446.3,685.2z M354,625.2
			c-20-22.2-35.2-48.3-44.4-76.7l42.8-11.5c7.2,20.9,18.4,40.3,32.9,56.9L354,625.2z M303.9,527.2c-6.2-29.3-6.2-59.5,0-88.8
			l42.8,11.4c-4.2,21.7-4.2,44.1,0,65.8L303.9,527.2z M309.6,417.2c9.2-28.4,24.3-54.6,44.4-76.8l31.4,31.5
			c-14.6,16.6-25.7,35.9-32.8,56.8L309.6,417.2z M369.6,324.8c22.2-20.1,48.4-35.2,76.8-44.4l11.5,42.8c-21,7.1-40.4,18.3-57,32.9
			L369.6,324.8z"/>
		<path class="st1" d="M495.1,336.1c35.1-4.1,71.7,4.7,100.6,25c39.3,26.7,64.5,73.2,63.7,120.9c1.1,46.7-22.8,92.8-60.6,120
			c-18,13.1-38.8,21.9-60.7,25.8c-12.2,2.6-24.7,2.2-36.9,1.9c-44.6-2.9-86.9-27.9-111.6-65c-31.1-46.1-33.5-105.9-6.1-154.4
			C406.3,369.9,448.9,341.3,495.1,336.1L495.1,336.1z M501.4,380c-0.1,8.9-0.7,17.8-0.5,26.6c-17.3,0-34.6,0-52,0.1
			c0.1,9.5,0,19,0.1,28.5h20.2c0.1,31.6,0,63.2,0.1,94.9h-20.4c-0.1,9.5,0,18.9,0,28.4c17.3,0.2,34.6,0.1,51.8,0.1
			c1.1,8.8-0.6,17.8,0.5,26.6h21.7c0.1-8.8,0-17.8,0.2-26.6c15.4-0.7,31.2-6.1,41.8-17.9c10.1-10.8,12.5-27.1,8.5-40.9
			c-2.9-10.6-11.5-18.7-21.3-23.2c5.8-4.9,11.3-10.4,14-17.6c4.7-12.3,3.5-27.7-6-37.6c-9.4-10.3-23.7-14-37-14.9
			c-0.2-8.8-0.1-17.6-0.1-26.4L501.4,380z M502.7,435.3c8.3,0.3,17.1-1.3,25,1.9c10.2,4.3,8.7,20.4,0.1,25.6
			c-7.6,4.4-16.7,2.9-25.2,3.3C502.7,455.8,502.7,445.5,502.7,435.3L502.7,435.3z M502.8,494.7c10,0,20.5-1.1,29.9,3
			c11.5,5.3,10.9,24.6-0.5,29.7c-9.3,4.2-19.7,2.4-29.4,2.7V494.7z M399.7,682.8c22.9,12.2,47.6,21.5,73.3,25.8
			c44,7.6,89.3,2.3,130.3-15.4c6.9-2.7,13.2-6.7,20.1-9.3c-5.3,8.1-12.1,15.1-18.2,22.8c-23.2,27.4-46.5,54.8-71.5,80.6
			c-6.1,5.7-11.9,12-19.1,16.2c-3.1,1.8-6-0.9-8.4-2.5c-6.9-5.7-13.5-11.8-19.7-18.3C456.1,750.6,427.4,716.9,399.7,682.8
			L399.7,682.8z"/>
	</g>
</g>
</svg>
