<svg xmlns="http://www.w3.org/2000/svg" viewBox="0 0 1024 1024">
   <style>
      .st1{fill:#fff}
   </style>
   <g id="Icon">
      <circle cx="512" cy="512" r="512" style="fill:#f47116"/>
      <path class="st1" d="M512 270c14.9 0 29.8 1.6 44.4 4.6l-11.5 42.9c-21.7-4.2-44-4.2-65.7 0l-11.6-42.9c14.6-3 29.5-4.6 44.4-4.6zm65.7 10.4c28.4 9.2 54.6 24.3 76.8 44.4l-31.4 31.4c-16.6-14.6-36-25.8-56.9-32.9l11.5-42.9zm92.3 60c20.1 22.2 35.2 48.4 44.4 76.8l-42.8 11.4c-7.2-20.9-18.4-40.3-32.9-56.9l31.3-31.3zm50.1 98.1c6.2 29.3 6.2 59.5 0 88.8l-42.8-11.5c4.2-21.7 4.2-44.1 0-65.8l42.8-11.5zm-5.7 110c-9.2 28.4-24.3 54.6-44.4 76.7l-31.4-31.4c14.6-16.6 25.7-36 32.8-56.9l43 11.6zm-60 92.4c-22.2 20-48.4 35.1-76.7 44.4l-11.5-42.9c21-7.1 40.3-18.3 56.9-32.9l31.3 31.4zm-98 50a214.3 214.3 0 0 1-88.8 0l11.5-42.9c21.7 4.4 44 4.4 65.7 0l11.6 42.9zm-110.1-5.7c-28.4-9.3-54.6-24.4-76.8-44.4l31.4-31.5c16.6 14.7 36 25.9 56.9 32.9l-11.5 43zm-92.3-60c-20-22.2-35.2-48.3-44.4-76.7l42.8-11.5c7.2 20.9 18.4 40.3 32.9 56.9L354 625.2zm-50.1-98a214.3 214.3 0 0 1 0-88.8l42.8 11.4c-4.2 21.7-4.2 44.1 0 65.8l-42.8 11.6zm5.7-110c9.2-28.4 24.3-54.6 44.4-76.8l31.4 31.5c-14.6 16.6-25.7 35.9-32.8 56.8l-43-11.5zm60-92.4c22.2-20.1 48.4-35.2 76.8-44.4l11.5 42.8c-21 7.1-40.4 18.3-57 32.9l-31.3-31.3z"/>
      <path class="st1" d="M495.1 336.1c35.1-4.1 71.7 4.7 100.6 25 39.3 26.7 64.5 73.2 63.7 120.9 1.1 46.7-22.8 92.8-60.6 120-18 13.1-38.8 21.9-60.7 25.8-12.2 2.6-24.7 2.2-36.9 1.9-44.6-2.9-86.9-27.9-111.6-65-31.1-46.1-33.5-105.9-6.1-154.4 22.8-40.4 65.4-69 111.6-74.2zm6.3 43.9c-.1 8.9-.7 17.8-.5 26.6-17.3 0-34.6 0-52 .1.1 9.5 0 19 .1 28.5h20.2c.1 31.6 0 63.2.1 94.9h-20.4c-.1 9.5 0 18.9 0 28.4 17.3.2 34.6.1 51.8.1 1.1 8.8-.6 17.8.5 26.6h21.7c.1-8.8 0-17.8.2-26.6 15.4-.7 31.2-6.1 41.8-17.9 10.1-10.8 12.5-27.1 8.5-40.9-2.9-10.6-11.5-18.7-21.3-23.2 5.8-4.9 11.3-10.4 14-17.6 4.7-12.3 3.5-27.7-6-37.6-9.4-10.3-23.7-14-37-14.9-.2-8.8-.1-17.6-.1-26.4l-21.6-.1zm1.3 55.3c8.3.3 17.1-1.3 25 1.9 10.2 4.3 8.7 20.4.1 25.6-7.6 4.4-16.7 2.9-25.2 3.3.1-10.3.1-20.6.1-30.8zm.1 59.4c10 0 20.5-1.1 29.9 3 11.5 5.3 10.9 24.6-.5 29.7-9.3 4.2-19.7 2.4-29.4 2.7v-35.4zM399.7 682.8c22.9 12.2 47.6 21.5 73.3 25.8 44 7.6 89.3 2.3 130.3-15.4 6.9-2.7 13.2-6.7 20.1-9.3-5.3 8.1-12.1 15.1-18.2 22.8-23.2 27.4-46.5 54.8-71.5 80.6-6.1 5.7-11.9 12-19.1 16.2-3.1 1.8-6-.9-8.4-2.5-6.9-5.7-13.5-11.8-19.7-18.3-30.4-32.1-59.1-65.8-86.8-99.9z"/>
   </g>
</svg>
