<?xml version="1.0" encoding="utf-8"?>
<!-- Generator: Adobe Illustrator 21.0.0, SVG Export Plug-In . SVG Version: 6.00 Build 0)  -->
<svg version="1.1" xmlns="http://www.w3.org/2000/svg" xmlns:xlink="http://www.w3.org/1999/xlink" x="0px" y="0px"
	 viewBox="0 0 1024 1024" style="enable-background:new 0 0 1024 1024;" xml:space="preserve">
<style type="text/css">
	.st0{fill:#45B6F2;}
	.st1{fill:#FFFFFF;}
</style>
<g id="Guides">
</g>
<g id="Icon">
	<circle class="st0" cx="512" cy="512" r="512"/>
	<path class="st1" d="M423.8,485.6c-0.7-0.6-1.5-0.9-2.4-0.9H407c-0.8,0-1.7,0.3-2.4,0.7c-0.4,0.4-0.7,1-0.9,1.5v1.1
		c-0.3,1.9-1,3.5-2.4,3.7c-0.8,0-1.6-0.3-2.1-1c-5.5-5.8-13.3-8.9-21.3-8.5c-28.7,0-35.6,27.2-36.4,37v4c0,30.1,16.9,43.1,36.4,43.1
		c7.6,0,14.9-2.7,20.7-7.6l0.8-0.7c0.3-0.3,0.7-0.5,1.1-0.6c0.6-0.3,1.4-0.3,2,0c1.1,0.6,1.3,2,1.1,4c0,0-0.6,7.8-0.8,8.8
		c-1.1,8.2-7.9,14.5-16.2,15c-7.9,1.5-15.9-2.5-19.5-9.7c-0.8-1.1-2-1.7-3.3-1.7c-0.6,0-14.8-0.2-15.9,0c-1,0.2-1.9,0.6-2.5,1.4
		c-0.6,0.9-0.8,2.1-0.4,3.2c2.8,11.1,14.9,22.4,37,22.4h0.4c33.6,0,42.6-19.2,42.6-39v-73.8C425,487.1,424.5,486.2,423.8,485.6z
		 M383.4,549.2c-11,0-19-8.5-19-26.8c0-15.1,9-22.8,18.8-22.8c8.8,0,20.2,7.6,20.2,23c-0.2,16.9-8.4,26.6-20.2,26.6H383.4z
		 M291.2,482.5h-0.6c-35.4,0-43.2,29.6-43.2,43.5c-0.2,7.1,1.1,14.1,3.8,20.6c5.7,12.4,17.5,24.7,40,24.7s43.8-14,43.8-44.9v-0.2
		c0.9-23.2-17.2-42.8-40.4-43.7H291.2z M290.4,554.1c-9.1,0-20.2-7.4-20.2-27.1c0-19.7,10.6-27.2,21.9-27.2
		c11.3,0,19.9,9.7,19.9,27.3C312,549.3,299.3,554.1,290.4,554.1z M245.5,548.9c-0.5-0.6-1.3-0.9-2-1c-1.1-0.2-2.2-0.4-3.4-0.4h-35.8
		c-1.8,0.2-3.6-0.6-4.6-2.1c-0.3-0.6-0.4-1.2-0.4-1.9c0-0.7,0-1.5,0-2.2v-84.6c0-1.1-0.2-2.1-0.8-3c-0.6-0.8-1.5-1.3-2.5-1.2h-18.8
		c-1.1,0.2-2,0.8-2.6,1.6c-0.4,0.7-0.6,1.5-0.6,2.3v108.1c0,0.9,0.2,1.8,0.6,2.5c0.6,0.8,1.5,1.4,2.5,1.5l65.2,0.2
		c1.7,0,3.3-0.9,4-2.5c0.1-0.6,0.1-1.2,0-1.8v-13.1C246.4,550.5,246.1,549.6,245.5,548.9z M607.7,482.3c-30.1,0.9-41.7,27-41.7,44.5
		c0,10.3,4,44.5,43.4,44.5c28.7,0,36.4-21,37.4-23.8c0.2-0.6,0.3-1.3,0.2-1.9c0-0.3,0-0.5,0-0.8c-0.1-0.9-0.8-1.6-1.7-1.7h-13.8
		c-1.4,0.1-2.7,0.8-3.6,1.9c-0.4,0.4-0.8,1-1.2,1.5c-3.9,4.9-9.9,7.7-16.2,7.6c-15.8,0-20.4-10.6-21-16.2v-1.2
		c-0.1-1.7,0.9-3.4,2.5-4c0.6-0.2,1.2-0.4,1.8-0.4h49.3c1.1,0.1,2.2,0.1,3.3,0c0.9-0.1,1.7-0.4,2.4-0.9c0.7-0.5,1.1-1.3,1.1-2.1
		c0.2-1.3,0.2-2.7,0.2-4C650.5,508.3,638.7,481.4,607.7,482.3z M625.6,516.4c-0.8,1-2.1,1.5-3.4,1.4h-27.4c-1.3,0.1-2.5-0.2-3.6-0.8
		c-0.5-0.4-0.9-1-1.1-1.6c-0.1-0.7-0.1-1.4,0-2.1c2.2-8.6,10.2-14.4,19-14c7.8,0.2,14.6,5.5,16.7,13.1
		C626.5,513.6,626.4,515.2,625.6,516.4z M850,512c0-53.6-43.4-97-97-97s-97,43.4-97,97s43.4,97,97,97S850,565.6,850,512z
		 M719.6,568.3c-0.8,1.1-2,1.7-3.3,1.8h-17.7c-0.9-0.1-1.8-0.4-2.5-1c-0.6-0.7-1-1.6-1-2.5c-0.1-1.1-0.2-2.3-0.2-3.4V460
		c-0.2-1.5,0.1-3.1,0.8-4.4c0.7-1,1.8-1.6,3-1.7h18.3c1,0,1.9,0.4,2.5,1.2c0.6,0.9,0.9,1.9,0.9,3v106.5
		C720.4,565.8,720.1,567.2,719.6,568.3z M815.4,566.1c0.2,1.6-0.8,3.2-2.4,3.7c-5.7,0.3-11.5,0.3-17.3,0c-1-0.1-1.8-0.6-2.3-1.4
		c-0.5-0.8-0.7-1.6-0.8-2.5v-39.2c0.1-3.7-0.1-7.5-0.5-11.2c0-7.8-6.3-14.2-14.1-14.2c0,0,0,0,0,0h-0.9c-8.4-0.2-15.5,5.9-16.5,14.3
		c-0.7,5.4-1,10.8-1,16.2v33.4c0,0.8-0.1,1.7-0.5,2.4c-0.4,1.1-1.4,1.9-2.6,2.1c-5.4,0.3-10.8,0.3-16.2,0c-1,0-1.9-0.4-2.6-1.1
		c-0.8-1.3-1.2-2.8-1.1-4.3v-75c0-0.9,0.4-1.8,0.9-2.5c0.6-0.9,2.1-1.3,4.6-1.3h9.3c2.6,0,5.9,0,6.3,2.5c0,0.6,0.7,5.6,2.8,5.7
		c0.6,0,1.2-0.3,1.6-0.8c1.8-1.9,3.8-3.6,5.9-5.1c10.1-5.3,22-5.8,32.6-1.6c4.3,1.9,7.9,5.1,10.3,9.2c3,5.8,4.5,12.3,4.4,18.8
		L815.4,566.1L815.4,566.1z M556,568.8c0.9,0,1.8-0.3,2.5-0.9c0.7-0.7,1.1-1.6,1.1-2.5V456.7c0.2-1.5-0.5-2.9-1.8-3.7
		c-0.7-0.5-1.5-0.7-2.3-0.6H527c-0.9,0-1.8,0.3-2.5,0.8c-0.8,0.5-1.4,1.3-1.8,2.1l-1,2.6c-0.6,1.7-22.5,69.3-22.7,69.5
		c-0.5,1.1-1.1,1.7-1.8,1.7c-0.6,0-2.1-2.3-3.2-5.7c-0.6-1.7-22.8-66.6-23.1-67.6c-0.3-0.9-0.8-1.8-1.6-2.4c-1.2-0.8-2.6-1.2-4-1.1
		h-27.4c-0.2-0.1-0.4-0.1-0.6,0c-1.1,0.2-2,0.8-2.6,1.6c-0.2,0.6-0.4,1.2-0.5,1.9v109.5c0,1,0.4,1.9,1.1,2.5
		c0.7,0.6,1.6,0.9,2.5,0.9h14.4c0.9,0.1,1.9,0,2.8-0.2c1-0.1,1.9-0.6,2.5-1.5c0.5-0.6,0.7-1.4,0.6-2.1v-68.7c0-0.8,0.4-2.1,1.3-2
		c0.3,0,0.6,0.2,0.8,0.3l0.6,0.6c0.8,1.2,1.3,2.4,1.8,3.8c0,0.2,23.1,65.4,23.4,66.1c0.8,2,2.2,3.6,4,3.6h15
		c1.5-0.1,2.7-1.2,3.1-2.7c4.6-11.8,20.2-60,24.2-69.9c0.4-0.9,0.8-1.7,1.4-2.4c0,0,1-0.6,1.3-0.6c0.5,0.1,0.9,0.6,0.9,1.2
		c0.1,1.1,0.1,2.3,0,3.4v67.2c0,0.8,0.2,1.5,0.6,2.1c0.9,1.1,2.3,1.7,3.8,1.6L556,568.8z"/>
</g>
</svg>
