<?xml version="1.0" encoding="utf-8"?>
<!-- Generator: Adobe Illustrator 21.0.0, SVG Export Plug-In . SVG Version: 6.00 Build 0)  -->
<svg version="1.1" xmlns="http://www.w3.org/2000/svg" xmlns:xlink="http://www.w3.org/1999/xlink" x="0px" y="0px"
	 viewBox="0 0 1024 1024" style="enable-background:new 0 0 1024 1024;" xml:space="preserve">
<style type="text/css">
	.st0{fill:#45B6F2;}
	.st1{fill:#FFFFFF;}
</style>
<g id="Guides">
</g>
<g id="Icon">
	<circle class="st0" cx="512" cy="512" r="512"/>
	<path class="st1" d="M768,512c0-141.4-114.6-256-256-256S256,370.6,256,512s114.6,256,256,256S768,653.4,768,512z M423.7,660.7
		c-2,2.8-5.3,4.6-8.7,4.7h-46.7c-2.4-0.2-4.7-1.1-6.6-2.6c-1.6-1.8-2.5-4.1-2.6-6.5c-0.3-3-0.5-6-0.5-9.1V374.7
		c-0.4-4,0.3-8.1,2-11.7c1.8-2.6,4.7-4.2,7.9-4.5h48.2c2.6,0,5,1.2,6.5,3.2c1.5,2.3,2.3,5,2.3,7.8v281.2
		C425.8,654.1,425.2,657.6,423.7,660.7z M676.6,654.8c0.4,4.3-2.2,8.3-6.3,9.7c-15.2,0.9-30.4,0.9-45.5,0c-2.5-0.3-4.8-1.6-6.2-3.7
		c-1.2-2-1.9-4.3-2-6.6V550.7c0.2-9.9-0.2-19.7-1.3-29.5c0.1-20.7-16.7-37.5-37.3-37.5h0h-2.3c-22.1-0.6-41,15.7-43.6,37.7
		c-1.8,14.1-2.7,28.4-2.7,42.7v88.2c0.1,2.2-0.3,4.4-1.3,6.4c-1.2,3-3.8,5.1-6.9,5.7c-14.2,0.9-28.5,0.9-42.7,0
		c-2.6,0-5.1-1.1-6.9-3c-2.2-3.3-3.2-7.3-2.9-11.3V451.8c0.1-2.4,0.9-4.7,2.5-6.5c1.7-2.3,5.4-3.4,12.3-3.4h24.5
		c6.9,0,15.5,0,16.5,6.6c0,1.6,1.8,14.8,7.5,14.9c1.7,0,3.2-0.8,4.3-2.1c4.7-4.9,10-9.4,15.6-13.3c26.7-13.9,58.2-15.4,86.1-4.2
		c11.3,5.1,20.8,13.6,27.2,24.2c7.9,15.3,11.9,32.4,11.6,49.6L676.6,654.8L676.6,654.8z"/>
</g>
</svg>
