<svg xmlns="http://www.w3.org/2000/svg" viewBox="0 0 1024 1024">
   <circle cx="512" cy="512" r="512" style="fill:#ac1724"/>
   <path d="M552.1 261.05a231.37 231.37 0 0 0-10.34-35.16c13.94 2.22 26.66 4.59 39.43 7.35a202.5 202.5 0 0 1 14.37 37.57c-14.32-3.58-28.35-6.72-43.46-9.76Zm2.07 11.4a190.51 190.51 0 0 1 2.07 33.55c15.27 4.12 29.71 8.28 44.66 12.91a150.29 150.29 0 0 0-2.53-35.91c-14.69-3.84-28.97-7.24-44.2-10.55ZM541 302a205.22 205.22 0 0 0-2-32.7c-15.5-3.14-30.62-5.92-46.91-8.59a272.91 272.91 0 0 1 2.53 30.25c16 3.49 30.98 7.04 46.38 11.04Zm-111-23.88c16.88 3 32.61 6.06 48.75 9.47-.52-9.78-1.44-19.29-2.91-29.43-16.59-2.54-32.95-4.77-50.53-6.93 1.9 9.31 3.4 18 4.68 26.89Zm-22.21-29c-18-2-35.8-3.81-55.07-5.53 3.22 8.22 6 15.78 8.82 23.5 18 2.6 34.68 5.22 51.77 8.11-1.54-8.65-3.31-17.05-5.45-26.09ZM273 237.46c5.51 7.15 10.4 13.58 15.27 20 19.3 2.27 37.22 4.55 55.5 7.06-3.25-7.41-6.53-14.69-10.21-22.64-19.73-1.6-39.3-3.02-60.56-4.42Zm277 112.26c14.18 5.3 27.57 10.57 41.45 16.38a171.44 171.44 0 0 0 8.5-35.41c-14.87-4.9-29.18-9.34-44.33-13.73a200.86 200.86 0 0 1-5.62 32.76Zm-55.17-48.89a290.11 290.11 0 0 1-1.69 29.29c14.69 4.69 28.53 9.37 42.82 14.49a219.52 219.52 0 0 0 4.66-31.9c-15.31-4.25-30.1-8.08-45.84-11.89Zm-60.86 11.76c15.36 4.23 29.76 8.41 44.61 13 .67-9.54.85-18.72.67-28.42-15.93-3.7-31.37-7-47.91-10.34 1.07 8.82 1.9 17.17 2.58 25.75Zm-69.62-38c2.69 7.58 5.13 14.66 7.65 22 16.12 3.86 31.23 7.71 46.77 11.83-1.13-8.27-2.35-16.3-3.82-24.82a2241.94 2241.94 0 0 0-50.65-8.99Zm170 119c11.72 6.65 22.64 13.28 33.79 20.57A264.84 264.84 0 0 0 586.82 378c-13.34-6.14-26.25-11.74-39.93-17.34a277.68 277.68 0 0 1-12.6 32.95Zm-1-38.41c-13.81-5.44-27.2-10.39-41.44-15.4-1.35 9.82-3.1 19.2-5.27 29.07 12.46 5.95 24.13 11.85 36 18.29a285.91 285.91 0 0 0 10.68-31.94Zm-55.55-20.24c-14.41-4.86-28.36-9.35-43.26-13.88.58 8.59 1 16.75 1.27 25.35 13.29 5.48 25.7 10.85 38.39 16.66 1.53-9.52 2.72-18.61 3.6-28.13Zm51.2 69.77c-5.63 11.38-11.76 22.37-18.88 34.13A260 260 0 0 1 532 464.77c10.67-13.32 19.8-25.65 28.18-38.26-10.18-7.75-20.28-14.78-31.18-21.8Zm-26.92 26.08c6-11.29 11.25-21.9 16-32.86-11.1-6.83-22.07-13-33.85-19.33-2.43 9.93-5.17 19.44-8.27 29.58a337.55 337.55 0 0 1 26.13 22.61Zm.79 19.69c-7.63 11.91-15.56 23.58-24.5 36.13a175.22 175.22 0 0 1 6 32.84c13.48-14.54 25.44-27.92 36.82-41.49a218.34 218.34 0 0 0-18.31-27.48ZM428.38 753.2a202.58 202.58 0 0 0 14.33 37.56c12.81 2.77 25.52 5.14 39.48 7.35A230 230 0 0 1 471.85 763c-15.05-3.1-29.08-6.26-43.47-9.8Zm39.43-35.2a1178.57 1178.57 0 0 1-44.73-12.92A153.37 153.37 0 0 0 425.6 741c14.72 3.85 29 7.25 44.23 10.57a190.68 190.68 0 0 1-2.02-33.57Zm15.1 4a206.45 206.45 0 0 0 2.07 32.7c15.48 3.14 30.61 5.9 46.91 8.59a280.81 280.81 0 0 1-2.53-30.25c-15.99-3.5-30.95-7.04-46.45-11.04Zm62.27 14.39c.5 9.77 1.42 19.3 2.89 29.42 16.6 2.54 32.95 4.77 50.53 6.93-1.89-9.31-3.39-18-4.67-26.89-16.86-2.97-32.61-6-48.76-9.44Zm117.22 20.53Zm-51.78-8.12c1.61 8.64 3.37 17 5.52 26.06 18 2 35.78 3.82 55.07 5.55-3.22-8.22-6-15.79-8.81-23.5-17.97-2.59-34.68-5.21-51.77-8.11Zm125.11 17.7c-19.31-2.3-37.23-4.55-55.5-7.07 3.26 7.4 6.52 14.69 10.21 22.64 19.75 1.63 39.31 3.06 60.56 4.45-5.5-7.15-10.39-13.57-15.26-20.01Zm-261.67-92.24c-14.18-5.27-27.57-10.57-41.46-16.38a172.09 172.09 0 0 0-8.48 35.43c14.86 4.9 29.16 9.33 44.32 13.73a203.37 203.37 0 0 1 5.62-32.78Zm9.39 37c15.27 4.24 30 8.07 45.79 11.86a287.34 287.34 0 0 1 1.69-29.29c-14.69-4.68-28.52-9.36-42.83-14.48a216.88 216.88 0 0 0-4.65 31.94Zm106.63.11c-15.35-4.23-29.7-8.41-44.59-13-.62 9.53-.86 18.71-.68 28.42 15.94 3.71 31.36 7 47.9 10.34-1.12-8.79-1.94-17.13-2.63-25.72Zm62 16c-16.13-3.94-31.23-7.72-46.77-11.84 1.13 8.27 2.34 16.31 3.81 24.82 16.74 3.21 33.09 6.11 50.6 9-2.72-7.5-5.14-14.64-7.66-21.97ZM437.19 646c13.33 6.16 26.25 11.75 39.94 17.35a275.94 275.94 0 0 1 12.6-33 589.462 589.462 0 0 1-33.8-20.58A272 272 0 0 0 437.19 646Zm53.49 22.8c13.82 5.44 27.21 10.4 41.44 15.4 1.37-9.82 3.11-19.19 5.3-29.06-12.49-5.95-24.14-11.84-36.06-18.28a287 287 0 0 0-10.68 31.92Zm98.79 34.15c-.58-8.58-1-16.75-1.27-25.34-13.28-5.49-25.75-10.86-38.39-16.68-1.54 9.51-2.72 18.61-3.61 28.13 14.4 4.85 28.35 9.33 43.27 13.87Zm-75.63-117.8a260.61 260.61 0 0 1-21.9-25.93c-10.67 13.33-19.8 25.65-28.19 38.26 10.23 7.75 20.32 14.77 31.22 21.79 5.61-11.37 11.76-22.37 18.87-34.12Zm8.07 8c-6.06 11.31-11.26 21.91-16 32.89 11.09 6.8 22.08 13 33.84 19.32 2.43-9.93 5.17-19.44 8.27-29.58a335.35 335.35 0 0 1-26.11-22.59Zm23.71-55.84a173.9 173.9 0 0 1-6-32.8c-13.48 14.61-25.47 27.93-36.85 41.5a222.81 222.81 0 0 0 18.31 27.5c7.68-11.94 15.6-23.61 24.54-36.17Z" style="fill:#fff"/>
</svg>
