<svg xmlns="http://www.w3.org/2000/svg" viewBox="0 0 1024 1024">
   <circle cx="512" cy="512" r="512" style="fill:#004581"/>
   <path d="M487.26 256q-98.88 102.2-197.45 204.73c-16.47 17-28.19 38.83-32.42 62.18 0 .54-.08 1.07-.1 1.61l-1.3-2.35V494a248.27 248.27 0 0 1 228.74-238ZM672 597.75a45.44 45.44 0 0 0-8.21-58.17c-6.72-6-12.51-13.38-20.73-17.5a45.63 45.63 0 0 0-46 2.2c-3.9 2.41-7.05 5.76-10.23 9-30 31.21-60.12 62.28-90.07 93.53q-28.44-27.26-56.74-54.66c31.77-32.72 63.3-65.67 95-98.44a124.05 124.05 0 0 1 156.19-14.4c10.35 6.79 18.93 15.77 27.81 24.29a124.77 124.77 0 0 1 31.64 48.46c1.76-12.75 1.13-25.63 1.24-38.45a148 148 0 0 0-1.1-17.56 246.57 246.57 0 0 0-30.35-94.32c-29.54-52.7-79-94-136.29-113.2-18 19-36.29 37.68-54.39 56.56q-91.64 95-183.26 190.11a45.14 45.14 0 0 0-12.69 36.56 44.28 44.28 0 0 0 12.75 26.87c4.19 4.19 8.52 8.24 12.77 12.36A44.35 44.35 0 0 0 391 603.48a45.27 45.27 0 0 0 31.93-13.25c18.9 18.13 37.68 36.38 56.6 54.49-22.79 23.83-55.57 37.58-88.51 37.51a123.54 123.54 0 0 1-82-30.72c-4.09-3.42-7.54-7.51-11.71-10.83a247.62 247.62 0 0 0 227.07 110.26 3 3 0 0 0 2.36-1.1q66.35-69 132.81-137.82c4.3-4.63 9.17-8.84 12.45-14.27Zm79.84 13.54A123.13 123.13 0 0 1 733 647.84c-6.85 9.19-15.31 17-23.11 25.32-25.41 26.23-50.6 52.69-76.13 78.81H752c-.09-46.9.09-93.79-.12-140.69Z" style="fill:#fff"/>
</svg>
