<?xml version="1.0" encoding="utf-8"?>
<!-- Generator: Adobe Illustrator 21.0.0, SVG Export Plug-In . SVG Version: 6.00 Build 0)  -->
<svg version="1.1" xmlns="http://www.w3.org/2000/svg" xmlns:xlink="http://www.w3.org/1999/xlink" x="0px" y="0px"
	 viewBox="0 0 1024 1024" style="enable-background:new 0 0 1024 1024;" xml:space="preserve">
<style type="text/css">
	.st0{fill:#12326B;}
	.st1{fill:#FFFFFF;}
</style>
<g id="Min_Guides__x28_DO_NOT_REMOVE_x29_">
</g>
<g id="Max_Guides__x28_DO_NOT_REMOVE_x29_">
</g>
<g id="Icon">
	<circle id="Background" class="st0" cx="512" cy="512" r="512"/>
	<path class="st1" d="M460.7,446.2c-5.3,0-9.2,4.4-9.2,9.7v67.7c0,23.7-16.9,40.2-41.1,40.2c-24.2,0-40.6-16.5-41.1-40.2v-67.7
		c0-5.3-4.4-9.7-9.2-9.7s-9.2,4.4-9.2,9.7v68.7c0,17.9,5.8,32.9,17.4,43.1c10.2,9.2,24.7,14.5,40.6,15h3.9
		c15.5-0.5,29.5-5.8,39.7-15c11.1-10.2,16.9-25.2,16.9-43.1v-68.7C469.9,450.5,465.5,446.2,460.7,446.2z M310.2,562.3h-29
		c-23.7,0-40.6-16.5-41.1-40.2v-67.7c0-5.3-4.4-9.7-9.2-9.7c-4.8,0-9.2,4.4-9.2,9.7v68.7c0,17.9,5.8,32.9,17.4,43.1
		c10.2,9.2,24.7,14.5,40.6,15h30.5c5.3,0,9.2-4.4,9.2-9.7C319.4,566.2,315.1,562.3,310.2,562.3z M618.9,577.3
		c-5.3,0-9.2-4.4-9.2-9.7v-67.7c0-23.7-16.9-40.2-41.1-40.2S528,476.2,527.5,498v67.7c0,7.3-4.4,11.6-9.2,11.6s-9.2-4.4-9.2-9.7
		v-68.2c0-17.9,5.8-32.9,17.4-43.1c9.7-9.7,24.2-14.5,40.2-15h4.4c15.5,0.5,29.5,5.8,39.7,15c11.6,10.6,17.4,25.6,17.4,43.1v68.7
		C628.1,573,623.8,577.3,618.9,577.3z M734.1,581.7c-19.4,0-36.8-7.3-49.4-20.3c-12.1-12.6-18.9-29.5-18.9-47.9V513
		c0-18.4,6.8-35.3,18.9-47.9c12.6-13.5,30.5-20.8,49.4-20.8c19.4,0,36.8,7.3,49.4,20.3c12.1,12.6,18.9,29.5,18.9,47.9v0.5
		c0,18.4-6.8,35.3-18.9,47.9C770.9,574.4,753,581.7,734.1,581.7z M734.1,461.7c-27.6,0-48.9,21.8-48.9,50.8v0.5
		c0,14,4.8,26.6,14,36.3c9.2,9.7,21.8,15,35.3,15c27.6,0,48.9-21.8,48.9-50.8V513c0-14-4.8-26.6-14-36.3
		C760.2,467,747.7,461.7,734.1,461.7z"/>
</g>
</svg>
