<svg xmlns="http://www.w3.org/2000/svg" viewBox="0 0 1024 1024" style="enable-background:new 0 0 1024 1024" xml:space="preserve">
   <circle cx="512" cy="512" r="512" style="fill:#12326b"/>
   <path d="M460.7 446.2c-5.3 0-9.2 4.4-9.2 9.7v67.7c0 23.7-16.9 40.2-41.1 40.2-24.2 0-40.6-16.5-41.1-40.2v-67.7c0-5.3-4.4-9.7-9.2-9.7s-9.2 4.4-9.2 9.7v68.7c0 17.9 5.8 32.9 17.4 43.1 10.2 9.2 24.7 14.5 40.6 15h3.9c15.5-.5 29.5-5.8 39.7-15 11.1-10.2 16.9-25.2 16.9-43.1v-68.7c.5-5.4-3.9-9.7-8.7-9.7zM310.2 562.3h-29c-23.7 0-40.6-16.5-41.1-40.2v-67.7c0-5.3-4.4-9.7-9.2-9.7-4.8 0-9.2 4.4-9.2 9.7v68.7c0 17.9 5.8 32.9 17.4 43.1 10.2 9.2 24.7 14.5 40.6 15h30.5c5.3 0 9.2-4.4 9.2-9.7 0-5.3-4.3-9.2-9.2-9.2zm308.7 15c-5.3 0-9.2-4.4-9.2-9.7v-67.7c0-23.7-16.9-40.2-41.1-40.2S528 476.2 527.5 498v67.7c0 7.3-4.4 11.6-9.2 11.6s-9.2-4.4-9.2-9.7v-68.2c0-17.9 5.8-32.9 17.4-43.1 9.7-9.7 24.2-14.5 40.2-15h4.4c15.5.5 29.5 5.8 39.7 15 11.6 10.6 17.4 25.6 17.4 43.1v68.7c-.1 4.9-4.4 9.2-9.3 9.2zm115.2 4.4c-19.4 0-36.8-7.3-49.4-20.3-12.1-12.6-18.9-29.5-18.9-47.9v-.5c0-18.4 6.8-35.3 18.9-47.9 12.6-13.5 30.5-20.8 49.4-20.8 19.4 0 36.8 7.3 49.4 20.3 12.1 12.6 18.9 29.5 18.9 47.9v.5c0 18.4-6.8 35.3-18.9 47.9-12.6 13.5-30.5 20.8-49.4 20.8zm0-120c-27.6 0-48.9 21.8-48.9 50.8v.5c0 14 4.8 26.6 14 36.3 9.2 9.7 21.8 15 35.3 15 27.6 0 48.9-21.8 48.9-50.8v-.5c0-14-4.8-26.6-14-36.3-9.2-9.7-21.7-15-35.3-15z" style="fill:#fff"/>
</svg>
