<?xml version="1.0" encoding="utf-8"?>
<!-- Generator: Adobe Illustrator 21.0.0, SVG Export Plug-In . SVG Version: 6.00 Build 0)  -->
<svg version="1.1" xmlns="http://www.w3.org/2000/svg" xmlns:xlink="http://www.w3.org/1999/xlink" x="0px" y="0px"
	 viewBox="0 0 1024 1024" style="enable-background:new 0 0 1024 1024;" xml:space="preserve">
<style type="text/css">
	.st0{fill:#FD354E;}
	.st1{fill:#FFFFFF;}
</style>
<g id="Min_Guides__x28_DO_NOT_REMOVE_x29_">
</g>
<g id="Max_Guides__x28_DO_NOT_REMOVE_x29_">
</g>
<g id="Icon">
	<circle id="Background" class="st0" cx="512" cy="512" r="512"/>
	<path class="st1" d="M754.5,532.3l-84.8-145.6l-2.5-3.8c-8.9-15.2-20.3-36.7-43.1-44.3c-25.3-8.9-60.8-1.3-78.5,27.9L531.7,388
		l-20.3,38c-16.5-29.1-29.1-53.2-32.9-59.5c-17.7-29.1-53.2-35.5-78.5-27.9c-22.8,7.6-34.2,27.9-43.1,44.3l-87.4,149.4
		c-27.9,48.1-11.4,111.4,36.7,139.3l6.3,3.8c48.1,27.9,111.4,11.4,139.3-38l58.2-107.6c22.8,41.8,45.6,83.6,59.5,107.6
		c19,32.9,53.2,50.7,88.6,50.7c17.7,0,35.5-3.8,50.7-13.9l6.3-3.8C765.9,643.7,782.4,581.7,754.5,532.3z M408.8,613.4
		c-13.9,24.1-45.6,32.9-69.6,19l-6.3-3.8c-24.1-13.9-32.9-45.6-19-69.6L398.7,412l2.5-5.1c3.8-6.3,10.1-19,13.9-20.3
		c1.3,0,3.8-1.3,5.1-1.3c5.1,0,11.4,1.3,13.9,6.3c5.1,7.6,24.1,43.1,48.1,86.1L408.8,613.4z M691.2,628.5l-6.3,3.8
		c-24.1,13.9-57,5.1-70.9-17.7c-2.5-5.1-39.3-72.2-74.7-135.5l36.7-65.8l12.7-21.5c5.1-7.6,15.2-7.6,20.3-6.3
		c3.8,1.3,11.4,13.9,15.2,20.3l87.4,150.7C724.1,583,715.3,614.6,691.2,628.5z"/>
</g>
</svg>
