<?xml version="1.0" encoding="UTF-8" standalone="no"?><!-- Generator: Gravit.io --><svg xmlns="http://www.w3.org/2000/svg" xmlns:xlink="http://www.w3.org/1999/xlink" style="isolation:isolate" viewBox="2926 14 1024 1024" width="1024pt" height="1024pt"><g><circle vector-effect="non-scaling-stroke" cx="3438" cy="526" r="512" fill="rgb(193,33,38)"/><path d=" M 3438 421.573 C 3380.32 421.573 3333.541 468.353 3333.541 526.032 C 3333.541 583.712 3380.32 630.491 3438 630.491 C 3495.68 630.491 3542.459 583.712 3542.459 526.032 C 3542.459 468.353 3495.744 421.573 3438 421.573 Z  M 3275.148 526.032 C 3275.148 436.042 3348.074 363.18 3438 363.18 C 3527.99 363.18 3600.917 436.107 3600.917 526.032 C 3600.917 532.002 3600.593 537.841 3600.009 543.615 C 3598.776 559.511 3610.455 571.644 3626.221 571.644 C 3653.017 571.644 3655.872 537.127 3655.872 526.032 C 3655.872 405.742 3558.355 308.291 3438.13 308.291 C 3317.905 308.291 3220.258 405.807 3220.258 526.032 C 3220.258 646.323 3317.775 743.774 3438 743.774 C 3501.843 743.774 3559.328 716.265 3599.165 672.47 L 3643.933 710.036 C 3593.391 766.548 3519.815 802.168 3438 802.168 C 3285.464 802.168 3161.8 678.504 3161.8 525.968 C 3161.8 373.431 3285.464 249.832 3438 249.832 C 3590.536 249.832 3714.2 373.496 3714.2 526.032 C 3714.2 587.345 3685.003 637.109 3626.351 637.109 C 3600.528 637.109 3584.827 625.301 3576.262 612.065 C 3547.585 658.261 3496.393 688.95 3438 688.95 C 3348.074 688.95 3275.148 616.023 3275.148 526.032 Z  M 3438 478.28 C 3464.407 478.28 3485.818 499.691 3485.818 526.097 C 3485.818 552.504 3464.407 573.915 3438 573.915 C 3411.593 573.915 3390.182 552.504 3390.182 526.097 C 3390.182 499.691 3411.593 478.28 3438 478.28 Z " fill="rgb(255,255,255)"/></g></svg>