<svg xmlns="http://www.w3.org/2000/svg" viewBox="0 0 1024 1024" style="enable-background:new 0 0 1024 1024" xml:space="preserve">
   <style>
      .st1{fill:#fff}
   </style>
   <g id="Icon">
      <circle cx="512" cy="512" r="512" style="fill:#76bc21"/>
      <path class="st1" d="m376.9 527.4 90.1-61.7V406H254.1s-21.8 0-21.8 21.8v.6l144.6 99z"/>
      <path class="st1" d="M254.1 618H467V497.3l-84.3 57.5c-6 4.1-12 0-12 0l-138.3-95.1v136.5s0 21.8 21.7 21.8m488.5 0h49V481.9c0-58.3-30.9-75.9-77-75.9-24.2 0-44.8 5.4-60 11.4-7.8-4.9-19.9-11.4-48.6-11.4-25.6 0-65.7 8.6-79.4 19v193h48.5V452.1c11.3-2.8 19-4.9 31.5-4.8 19.6.1 27.6 8.6 28.2 35.9V618h48.3l-.3-137.8c0-19.4-3.8-28.1-3.8-28.1 10-3.3 19.6-4.8 33.7-4.8 22.1 0 29.2 9.1 30 36.4l-.1 134.3z"/>
   </g>
</svg>
