<?xml version="1.0" encoding="utf-8"?>
<!-- Generator: Adobe Illustrator 21.0.0, SVG Export Plug-In . SVG Version: 6.00 Build 0)  -->
<svg version="1.1" xmlns="http://www.w3.org/2000/svg" xmlns:xlink="http://www.w3.org/1999/xlink" x="0px" y="0px"
	 viewBox="0 0 1024 1024" style="enable-background:new 0 0 1024 1024;" xml:space="preserve">
<style type="text/css">
	.st0{fill:#77BFDD;}
	.st1{fill:#FFFFFF;}
</style>
<g id="Min_Guides__x28_DO_NOT_REMOVE_x29_">
</g>
<g id="Max_Guides__x28_DO_NOT_REMOVE_x29_">
</g>
<g id="Icon">
	<circle id="Background" class="st0" cx="512" cy="512" r="512"/>
	<path class="st1" d="M461.3,642.8c3.5,0,7-1,9.8-2.9l0.5-0.3l0.4-0.4c33.2-28.4,66.4-56.9,99.6-85.3
		c49.9-42.8,101.2-86.8,152.2-130.4c-19,41.4-38.3,83.5-57,124.2c-14.1,30.8-28.3,61.6-42.4,92.4c-1,1.9-1.8,3.9-2.6,5.7
		c-1.6,3.7-2.9,6.9-5,8.8l-0.1,0.1l-0.1,0.1c-4.4,4.6-8.1,6.9-11.2,7c-57.8,0-115.7,0-173.5,0l-86.8,0l-86.5,0
		c-1.2-0.1-2.1-0.2-2.8-0.3c0.1-0.3,0.2-0.5,0.3-0.8c0.2-0.5,0.4-0.9,0.6-1.3c12.8-28.7,25.6-57.3,38.4-86c17.7-39.6,36-80.6,54-121
		c2.1,3.9,4.2,7.9,6.3,11.7c3.3,6.2,6.7,12.5,10.1,18.7c16.9,31.4,34.1,63.3,50.7,94.2c10.2,18.9,20.3,37.8,30.5,56.7
		C449.1,639.2,454.8,642.8,461.3,642.8z M821.9,326.9c-19.5,16.8-39.2,33.4-58.6,50.3c-4.1,10.1-8.9,19.9-13.4,29.8
		c-38.5,83.9-77,167.7-115.5,251.6c-6.2,11.3-18.3,21-31.9,19.7c-113.3,0-226.6,0-339.9,0c-5.2,0.1-10.7,0.3-15.6-2
		c-4.4-1.6-7.9-5.3-9.1-9.9v-6.1c1.3-4.9,3.8-9.4,5.8-14c31.3-70.1,62.6-140.1,93.9-210.2c3.2-7.3,9.5-12.9,16.6-16.4
		c6-3,13-3.1,19.5-4.2c112.9-16.4,225.8-32.8,338.8-49.2c9.6-1.6,19.3-2.4,28.8-4.4c25.4-16.1,50.4-32.9,75.8-49.1
		c3.1-2,7.9-1.3,9.5,2.3C828.3,319.5,825.7,324.4,821.9,326.9z M749.2,389.5c-94.4,80.9-188.8,161.8-283.1,242.7
		c-3.5,2.3-9.5,1.8-11.1-2.6c-27.1-50.4-54.3-100.8-81.4-151.3c-8.3-15-16-30.4-24.6-45.2c-3.7,4.2-5.5,9.6-7.9,14.7
		c-30.9,69.2-61.9,138.4-92.8,207.6c-1.6,3.6-4.3,8.2-1.1,11.7c2.9,2.7,7.1,3.4,11,3.6c115.7,0,231.4,0,347.1,0
		c7.1-0.1,13.1-4.9,17.8-9.8c4.8-4.7,6.5-11.4,9.5-17.2c33.8-73.6,67.6-147.2,101.4-220.8C739,411.9,744.5,400.9,749.2,389.5z
		 M815.2,322.8c-12,7.5-23.7,15.4-35.6,23.1c-15.1,9.8-30.4,19.2-44.6,30.4L469.6,547.3l-105-106.1l-5.8-7
		c34.2,63.9,69,127.6,103.2,191.5c11.8-9.6,23.1-19.7,34.7-29.5c92.2-79.1,184.4-158.1,276.7-237.2
		C787.3,346.8,801.5,335.1,815.2,322.8z"/>
</g>
</svg>
