<svg xmlns="http://www.w3.org/2000/svg" viewBox="0 0 1024 1024" style="enable-background:new 0 0 1024 1024" xml:space="preserve">
   <circle cx="512" cy="512" r="512" style="fill:#357dbe"/>
   <path d="M2872.4 8262.8c-144.8-30.8-260.5-148.3-302.8-306.7l-9.7-35.6V5205.3l10.1-39.6c12.8-47.5 42.2-112.2 68.6-149.2 26.4-37 77.4-84.5 117.9-109.6 54.1-33.9 136.9-59 181.3-55l16.7 1.3 697 1194.7c383.3 657 704.5 1205.3 713.3 1218.1 32.6 45.8 90.6 84.5 148.7 99.9 33.4 8.4 98.6 8.4 131.6 0 67.3-17.6 139.5-75.2 168.5-134.7 29.9-60.7 35.6-135.5 14.5-198-6.2-19.4-214.3-378.9-638.1-1104.5l-628.8-1075.5 765.2-1.3c421.1-.4 1110.2-.4 1531.4 0l765.2 1.3-286.9 460.8-287.8 460.7 146.1 253c80.1 139.1 146.5 252.1 147.9 251.3 1.3-.9 204.6-322.6 451.1-715.1l448.9-713.8 55 2.2c66.4 3.1 94.2 10.1 151.8 38.3 94.2 46.6 167.7 129.8 204.2 231.5 28.6 78.8 26.8-19.4 26.8 1440.7 0 1458.8 1.8 1362-26.4 1439.8-57.2 158-213 272.4-363 266.7l-33.9-1.3-697-1194.7c-383.3-657-705.8-1207.1-716.8-1222-49.7-67.8-132.9-105.6-222.2-101.2-68.2 3.1-119.3 26.4-169.4 76.6-77.9 77.9-98.1 194.1-50.6 290.4 9.2 18.9 294 510.5 632.8 1092.6L6650.1 8268l-765.7 1.3c-420.7.4-1109.8.4-1530.9 0l-765.7-1.3 290.4-460.7 290.4-460.7-148.7-253c-137.3-234.5-148.7-253-154.9-245.5-3.5 4.8-207.7 326.5-453.3 715.1L2965 8269.9h-31c-16.7-.1-44.4-3.2-61.6-7.1zM5495.1 7366c37.4-9.7 84-33.4 110.9-57.2 30.4-26.8 59.8-71.7 74.4-114.4 16.7-47.5 17.6-112.2 2.2-158.4-7-22-103.4-191-345-604.6-377.6-646.4-357.3-615.2-430.4-651.3-53.2-26-84.5-33-138.2-29.9-51.5 2.6-86.2 13.2-125.9 38.7-108.3 70-152.3 211.2-100.3 320.8 7 15 161.5 282.1 343.7 593.6 316 539.9 332.2 567.2 362.2 596.7 33 32.6 70 54.1 113.1 65.6 31.2 8.7 100.8 8.7 133.3.4z" style="fill:#fff" transform="matrix(.1 0 0 -.1 0 1168)"/>
</svg>
