<svg xmlns="http://www.w3.org/2000/svg" viewBox="0 0 1024 1024">
   <circle cx="512" cy="512" r="512" style="fill:#c22026"/>
   <path d="M512 415.21A96.82 96.82 0 1 0 608.82 512 96.83 96.83 0 0 0 512 415.21ZM361.06 512A151 151 0 0 1 663 512a161.51 161.51 0 0 1-.84 16.3c-1.14 14.73 9.68 26 24.29 26 24.84 0 27.48-32 27.48-42.28 0-111.49-90.39-201.82-201.82-201.82S310.18 400.6 310.18 512 400.57 713.85 512 713.85a201.42 201.42 0 0 0 149.38-66.09l41.49 34.82A255.45 255.45 0 0 1 512 768c-141.38 0-256-114.62-256-256s114.62-256 256-256 256 114.65 256 256c0 56.83-27.06 103-81.42 103-23.93 0-38.49-10.94-46.43-23.21A150.91 150.91 0 0 1 361.06 512ZM512 467.77a44.32 44.32 0 1 1-44.32 44.32A44.32 44.32 0 0 1 512 467.77Z" style="fill:#fff"/>
</svg>
