<?xml version="1.0" encoding="utf-8"?>
<!-- Generator: Adobe Illustrator 21.0.0, SVG Export Plug-In . SVG Version: 6.00 Build 0)  -->
<svg version="1.1" xmlns="http://www.w3.org/2000/svg" xmlns:xlink="http://www.w3.org/1999/xlink" x="0px" y="0px"
	 viewBox="0 0 1024 1024" style="enable-background:new 0 0 1024 1024;" xml:space="preserve">
<style type="text/css">
	.st0{fill:#357DBE;}
	.st1{fill:#FFFFFF;}
</style>
<g id="Guides">
</g>
<g id="Icon">
	<circle class="st0" cx="512" cy="512" r="512"/>
	<g transform="translate(0.000000,1168.000000) scale(0.100000,-0.100000)">
		<path class="st1" d="M2872.4,8262.8c-144.8-30.8-260.5-148.3-302.8-306.7l-9.7-35.6V6562.9V5205.3l10.1-39.6
			c12.8-47.5,42.2-112.2,68.6-149.2c26.4-37,77.4-84.5,117.9-109.6c54.1-33.9,136.9-59,181.3-55l16.7,1.3l697,1194.7
			c383.3,657,704.5,1205.3,713.3,1218.1c32.6,45.8,90.6,84.5,148.7,99.9c33.4,8.4,98.6,8.4,131.6,0
			c67.3-17.6,139.5-75.2,168.5-134.7c29.9-60.7,35.6-135.5,14.5-198c-6.2-19.4-214.3-378.9-638.1-1104.5l-628.8-1075.5l765.2-1.3
			c421.1-0.4,1110.2-0.4,1531.4,0l765.2,1.3L6336.1,5314l-287.8,460.7l146.1,253c80.1,139.1,146.5,252.1,147.9,251.3
			c1.3-0.9,204.6-322.6,451.1-715.1l448.9-713.8l55,2.2c66.4,3.1,94.2,10.1,151.8,38.3c94.2,46.6,167.7,129.8,204.2,231.5
			c28.6,78.8,26.8-19.4,26.8,1440.7c0,1458.8,1.8,1362-26.4,1439.8c-57.2,158-213,272.4-363,266.7l-33.9-1.3l-697-1194.7
			c-383.3-657-705.8-1207.1-716.8-1222c-49.7-67.8-132.9-105.6-222.2-101.2c-68.2,3.1-119.3,26.4-169.4,76.6
			c-77.9,77.9-98.1,194.1-50.6,290.4c9.2,18.9,294,510.5,632.8,1092.6l616.5,1058.3l-765.7,1.3c-420.7,0.4-1109.8,0.4-1530.9,0
			l-765.7-1.3l290.4-460.7l290.4-460.7l-148.7-253c-137.3-234.5-148.7-253-154.9-245.5c-3.5,4.8-207.7,326.5-453.3,715.1
			l-446.7,706.7H2934C2917.3,8269.8,2889.6,8266.7,2872.4,8262.8z M5495.1,7366c37.4-9.7,84-33.4,110.9-57.2
			c30.4-26.8,59.8-71.7,74.4-114.4c16.7-47.5,17.6-112.2,2.2-158.4c-7-22-103.4-191-345-604.6c-377.6-646.4-357.3-615.2-430.4-651.3
			c-53.2-26-84.5-33-138.2-29.9c-51.5,2.6-86.2,13.2-125.9,38.7c-108.3,70-152.3,211.2-100.3,320.8c7,15,161.5,282.1,343.7,593.6
			c316,539.9,332.2,567.2,362.2,596.7c33,32.6,70,54.1,113.1,65.6C5393,7374.3,5462.6,7374.3,5495.1,7366z"/>
	</g>
</g>
</svg>
