<?xml version="1.0" encoding="UTF-8" standalone="no"?>
<svg
   xmlns:dc="http://purl.org/dc/elements/1.1/"
   xmlns:cc="http://creativecommons.org/ns#"
   xmlns:rdf="http://www.w3.org/1999/02/22-rdf-syntax-ns#"
   xmlns:svg="http://www.w3.org/2000/svg"
   xmlns="http://www.w3.org/2000/svg"
   viewBox="0 0 1365.3333 1365.3333"
   height="1365.3333"
   width="1365.3333"
   xml:space="preserve"
   id="svg2"
   version="1.1"><metadata
     id="metadata8"><rdf:RDF><cc:Work
         rdf:about=""><dc:format>image/svg+xml</dc:format><dc:type
           rdf:resource="http://purl.org/dc/dcmitype/StillImage" /></cc:Work></rdf:RDF></metadata><defs
     id="defs6"><clipPath
       id="clipPath18"
       clipPathUnits="userSpaceOnUse"><path
         id="path16"
         d="M 0,1024 H 1024 V 0 H 0 Z" /></clipPath></defs><g
     transform="matrix(1.3333333,0,0,-1.3333333,0,1365.3333)"
     id="g10"><g
       id="g12"><g
         clip-path="url(#clipPath18)"
         id="g14"><g
           transform="translate(1024,512)"
           id="g20"><path
             id="path22"
             style="fill:#366dbf;fill-opacity:1;fill-rule:nonzero;stroke:none"
             d="m 0,0 c 0,-282.77 -229.23,-512 -512,-512 -282.77,0 -512,229.23 -512,512 0,282.77 229.23,512 512,512 C -229.23,512 0,282.77 0,0" /></g><g
           transform="translate(549.5127,592.5952)"
           id="g24"><path
             id="path26"
             style="fill:#ffffff;fill-opacity:1;fill-rule:nonzero;stroke:none"
             d="m 0,0 c 3.741,-0.968 8.405,-3.345 11.09,-5.721 3.036,-2.684 5.984,-7.173 7.436,-11.441 1.673,-4.753 1.761,-11.221 0.22,-15.842 -0.703,-2.2 -10.341,-19.098 -34.499,-60.462 -37.757,-64.644 -35.732,-61.52 -43.037,-65.128 -5.325,-2.596 -8.449,-3.3 -13.818,-2.992 -5.148,0.263 -8.625,1.32 -12.585,3.872 -10.826,6.997 -15.226,21.123 -10.033,32.08 0.704,1.496 16.149,28.207 34.368,59.363 31.595,53.994 33.223,56.722 36.215,59.67 3.301,3.256 6.997,5.413 11.31,6.557 C -10.209,0.836 -3.256,0.836 0,0 m -262.269,89.682 c -14.478,-3.08 -26.051,-14.829 -30.275,-30.671 l -0.969,-3.565 V -80.309 -216.065 l 1.013,-3.96 c 1.275,-4.753 4.224,-11.222 6.864,-14.918 2.64,-3.696 7.745,-8.449 11.794,-10.957 5.412,-3.389 13.685,-5.896 18.13,-5.501 l 1.672,0.133 69.704,119.473 c 38.328,65.699 70.452,120.529 71.332,121.806 3.256,4.576 9.065,8.448 14.873,9.989 3.345,0.836 9.858,0.836 13.158,0 6.733,-1.76 13.95,-7.525 16.854,-13.466 2.992,-6.072 3.564,-13.553 1.452,-19.802 -0.616,-1.936 -21.431,-37.888 -63.807,-110.452 l -62.883,-107.548 76.524,-0.133 c 42.113,-0.044 111.024,-0.044 153.138,0 l 76.524,0.133 -28.735,46.073 -28.78,46.072 14.611,25.304 c 8.009,13.905 14.653,25.215 14.785,25.126 0.132,-0.088 20.462,-32.255 45.105,-71.508 l 44.885,-71.376 5.501,0.22 c 6.645,0.309 9.417,1.013 15.182,3.829 9.417,4.664 16.765,12.982 20.418,23.147 2.86,7.877 2.684,-1.937 2.684,144.072 0,145.876 0.176,136.195 -2.64,143.984 -5.721,15.798 -21.298,27.239 -36.304,26.667 L 176.152,90.21 106.448,-29.263 C 68.12,-94.962 35.864,-149.969 34.765,-151.465 c -4.973,-6.777 -13.29,-10.562 -22.223,-10.121 -6.821,0.307 -11.926,2.64 -16.942,7.657 -7.788,7.789 -9.813,19.406 -5.061,29.043 0.925,1.892 29.396,51.046 63.279,109.264 L 115.47,90.21 38.9,90.342 c -42.068,0.044 -110.98,0.044 -153.092,0 l -76.569,-0.132 29.043,-46.073 29.044,-46.074 -14.874,-25.302 c -13.73,-23.455 -14.874,-25.303 -15.49,-24.555 -0.352,0.484 -20.77,32.652 -45.325,71.508 l -44.665,70.672 h -3.08 c -1.673,0 -4.445,-0.308 -6.161,-0.704" /></g></g></g></g></svg>