<svg xmlns="http://www.w3.org/2000/svg" viewBox="2926 14 1024 1024">
  <circle cx="3438" cy="526" r="512" style="fill:#C12126"/>
  <path d="M3438 421.573c-57.68 0-104.459 46.78-104.459 104.459 0 57.68 46.779 104.459 104.459 104.459s104.459-46.779 104.459-104.459c0-57.679-46.715-104.459-104.459-104.459Zm-162.852 104.459c0-89.99 72.926-162.852 162.852-162.852 89.99 0 162.917 72.927 162.917 162.852 0 5.97-.324 11.809-.908 17.583-1.233 15.896 10.446 28.029 26.212 28.029 26.796 0 29.651-34.517 29.651-45.612 0-120.29-97.517-217.741-217.742-217.741s-217.872 97.516-217.872 217.741c0 120.291 97.517 217.742 217.742 217.742 63.843 0 121.328-27.509 161.165-71.304l44.768 37.566c-50.542 56.512-124.118 92.132-205.933 92.132-152.536 0-276.2-123.664-276.2-276.2 0-152.537 123.664-276.136 276.2-276.136s276.2 123.664 276.2 276.2c0 61.313-29.197 111.077-87.849 111.077-25.823 0-41.524-11.808-50.089-25.044-28.677 46.196-79.869 76.885-138.262 76.885-89.926 0-162.852-72.927-162.852-162.918ZM3438 478.28c26.407 0 47.818 21.411 47.818 47.817 0 26.407-21.411 47.818-47.818 47.818-26.407 0-47.818-21.411-47.818-47.818 0-26.406 21.411-47.817 47.818-47.817Z" style="fill:#FFF"/>
</svg>
