<svg xmlns="http://www.w3.org/2000/svg" viewBox="0 0 1024 1024" style="enable-background:new 0 0 1024 1024" xml:space="preserve">
   <circle cx="512" cy="512" r="512" style="fill:#b58765"/>
   <path d="M889.1 606.6s-13.8 81.8-57.6 81.1c-14.1.6-24-3.5-30.7-8.3-10.1 10.7-23.3 19.9-36.5 27.6l-.1.1c-10.8 6.2-21.5 11.3-30.3 15.2-3.1 1.3-5.9 2.5-8.4 3.5v-43.9c6.4.2 12.3-.1 17.8-1 22.6-3.5 37.6-14.7 43.7-20.1-4.3-13.2-10.9-52 55-58.1-2.7.6-9.3 3.5-15.1 18.3 19.5 1.6 51.5 4.4 62.2-14.4zm-242.4-16.1c-.5.5-1 1-1.4 1.3l-.7.6c-13.8 13.3-29.3 24.5-46.2 33.4-3.4 1.8-6.9 3.5-10.4 5-1.7.8-3.5 1.6-5.3 2.3-3.6 1.5-7.2 2.9-10.9 4.1-.5.2-1 .3-1.4.5L719.3 763c.9-2.8 1.4-5.7 1.4-8.6V479.2L700 495.8c-8.4 35.4-26.6 67.9-52.5 93.9l-.8.8zM563.8 640c-18.6 5.6-37.9 8.5-57.4 8.5-21.1 0-42-3.3-62-9.9L290.6 766.8l-2.2 1.7c5 8.5 14.1 13.8 24 13.8h380.4c9.9 0 19-5.3 24-13.8l-2.1-1.6L563.8 640zM316.1 507.8c-.5-1.5-.9-3.1-1.4-4.7l-30.2-24v275.2c0 2.9.5 5.8 1.4 8.6l152-126.7c-58.2-21.3-103.7-69.1-121.8-128.4zm388.2-36.7c-.6 5.3-1.4 10.6-2.5 15.9l14.1-11.3-11.6-4.6zm-414.6 4.2 22.5 17.9c-1.8-7.9-3.1-15.8-3.9-23.6l-18.6 5.7zm385.6-119.6c15.8 28.5 24.2 60.9 24.2 93.6 0 51.1-19.7 99.1-55.5 135.5-.6.6-2.1 2.2-2.8 2.8l-.6.6c-13.4 12.9-28.5 23.8-44.9 32.4-3.3 1.7-6.7 3.4-10.1 4.9-1.7.8-3.4 1.5-5.2 2.2-3.4 1.4-7 2.8-10.5 4-1.7.6-3.6 1.2-5.4 1.8-18.8 5.9-38.3 8.9-58.2 8.9-21.4 0-42.5-3.5-62.7-10.4-58.3-20-103.9-67.1-122-126-3.8-12.4-6.4-25.4-7.6-38.4-.6-6.1-.9-12.3-.9-18.3 0-6.6.3-13.2 1-19.8 2.5-24.8 9.7-48.5 21.4-70.5 2.2-4.1 4.5-8.1 6.9-12 5.9-9.4 12.6-18.3 19.9-26.5l.4-.4.7-.8c2.7-3 5.6-5.9 8.4-8.7 9-8.7 18.9-16.6 29.4-23.4 7-4.6 14.4-8.7 22-12.3 17.7-8.4 36.5-14.1 55.9-16.8 17-2.4 34.3-2.5 51.3-.4 18.9 2.4 37.3 7.5 54.7 15.3 7.4 3.3 14.6 7.1 21.4 11.3 11 6.7 21.4 14.6 30.9 23.4 11.5 10.7 21.7 22.7 30.3 35.8 2.8 3.9 5.3 8 7.6 12.2zm-32 89.7c0-80.5-59-148.5-137.1-158.2-6.3-.8-12.7-1.2-19.1-1.2-29.7 0-58.7 8.6-83.6 24.8-24.3 15.8-43.9 38-56.6 64.3-10.6 22-16 45.7-16 70.3 0 40.7 15 79.5 42.4 109.1 29.9 32.4 70.3 50.3 113.9 50.3 55.7 0 107.6-30.7 135.5-80 5.9-10.5 10.7-21.7 14.1-33.4 4.2-14.9 6.5-30.4 6.5-46zm48.9 11.9h2.2v-.1h-2.2v.1zm-77.8 63.6 1.7 3.1c-27.1 46.2-76.5 74.9-129.1 74.9-41.4 0-79.9-16.8-108.5-47.3v-4.2l.8-.3-.8-.9c1.9-41.9 56.4-75.9 121.8-75.9 50.4 0 96.2 20.4 114.1 50.6zm-170.3 14.8c0-10.7-8.7-19.3-19.3-19.3-10.6 0-19.3 8.7-19.3 19.3 0 10.7 8.7 19.3 19.3 19.3 10.7 0 19.3-8.7 19.3-19.3zm151.6 0c0-10.7-8.7-19.3-19.3-19.3-10.7 0-19.3 8.7-19.3 19.3 0 10.7 8.7 19.3 19.3 19.3 10.6 0 19.3-8.7 19.3-19.3zM487 291.9v-1.1 1.1c6.1 0 12.3.4 18.4 1.1 75.2 9.4 132 74.9 132 152.4 0 15.1-2.2 30-6.4 44.5v.1c-.5 1.7-1.1 3.6-1.8 5.8l-.5 1.4c-.7 1.9-1.4 3.8-2.1 5.6l-.5 1.2c-.7 1.7-1.4 3.4-2.1 5l-.4 1c-.8 1.7-1.6 3.5-2.6 5.4-.4.9-.9 1.8-1.4 2.7-19-32.1-66.5-53.6-119.1-53.6-33.9 0-65.8 8.6-89.9 24.3-22.9 14.9-36.1 34.5-37.7 55.5-1.2-4.1-2.1-8.3-2.7-12.3 0-.3-.1-.7-.2-1-.1-.3-.1-.6-.2-1-8.6-37.9-14.6-66.3-21.7-107.8-.8-6.6-1.2-12.3-1.4-17.9 0-.8-.1-1.6-.1-2.4-.1-1.4-.1-2.8-.1-4.3 0-2.2.1-4.5.3-7.3 1.3-3.5 2.8-7 4.4-10.4l1.1-2.3.1-.3 1.2-2.4.6-1.2c.2-.4.3-.7.5-1 .1-.2.2-.3.3-.5l.2-.4c12.2-22.7 30-42.1 51.4-56 24-15.7 51.8-23.9 80.4-23.9zm-34.8 104.9c0-11.9-9.6-21.5-21.5-21.5s-21.5 9.6-21.5 21.5 9.6 21.5 21.5 21.5c5.7 0 11.1-2.2 15.2-6.3 4-4 6.3-9.4 6.3-15.2zm105.4 0c0 11.9 9.6 21.5 21.5 21.5s21.5-9.6 21.5-21.5-9.7-21.5-21.5-21.5-21.5 9.7-21.5 21.5zm27.8 1.4c4.1 0 7.5-3.3 7.5-7.5 0-4.1-3.4-7.5-7.5-7.5s-7.5 3.4-7.5 7.5c0 4.2 3.3 7.5 7.5 7.5zm-147.1 0c4.1 0 7.5-3.3 7.5-7.5 0-4.1-3.3-7.5-7.5-7.5-4.1 0-7.5 3.4-7.5 7.5 0 4.2 3.3 7.5 7.5 7.5zm146.4-189.6c-3 6.5-16.4 33-40.4 44.6 14.9 2.9 29.4 7.4 43.1 13.5 6.4-11.8 17.4-38.7-2.7-58.1zm-163.9 60.1c13.9-6.6 28.6-11.6 43.7-14.8-25.1-11.1-39-38.7-42.1-45.4-20.9 20.3-8.6 48.1-1.6 60.2zm191.3 11c10.7 6.7 20.8 14.4 30 22.9l.1.1c14.1-9.1 35.8-18.6 59.7-12.8l1 .2-.1 1c0 .3-4 27.3-29 49 2.3 3.5 4.5 7.1 6.6 10.8 28.2-20.2 40.6-48.3 37-83.5-6.8-2.4-67.8-24-105.3 12.3zm-284.6-20.6c-19.9 1.4-36.2 7.2-39.5 8.5-3.9 37.5 10.4 66.8 42.4 87.1 1.9-3.6 4-7.1 6.1-10.5-29.3-22.2-33.8-52.7-33.9-53l-.1-1 1-.2c25.8-6.2 48.9 5 64 15.7 8.8-8.5 18.4-16.2 28.6-23-20.3-22-48.4-25-68.6-23.6z" style="fill:#fff"/>
</svg>
