<?xml version="1.0" encoding="UTF-8" standalone="no"?>
<svg
   xmlns:dc="http://purl.org/dc/elements/1.1/"
   xmlns:cc="http://creativecommons.org/ns#"
   xmlns:rdf="http://www.w3.org/1999/02/22-rdf-syntax-ns#"
   xmlns:svg="http://www.w3.org/2000/svg"
   xmlns="http://www.w3.org/2000/svg"
   viewBox="0 0 1365.3333 1365.3333"
   height="1365.3333"
   width="1365.3333"
   xml:space="preserve"
   id="svg2"
   version="1.1"><metadata
     id="metadata8"><rdf:RDF><cc:Work
         rdf:about=""><dc:format>image/svg+xml</dc:format><dc:type
           rdf:resource="http://purl.org/dc/dcmitype/StillImage" /></cc:Work></rdf:RDF></metadata><defs
     id="defs6"><clipPath
       id="clipPath18"
       clipPathUnits="userSpaceOnUse"><path
         id="path16"
         d="M 0,1024 H 1024 V 0 H 0 Z" /></clipPath></defs><g
     transform="matrix(1.3333333,0,0,-1.3333333,0,1365.3333)"
     id="g10"><g
       id="g12"><g
         clip-path="url(#clipPath18)"
         id="g14"><g
           transform="translate(1024,512)"
           id="g20"><path
             id="path22"
             style="fill:#f9e10d;fill-opacity:1;fill-rule:nonzero;stroke:none"
             d="m 0,0 c 0,-282.77 -229.23,-512 -512,-512 -282.77,0 -512,229.23 -512,512 0,282.77 229.23,512 512,512 C -229.23,512 0,282.77 0,0" /></g><g
           transform="translate(451.8721,632.9346)"
           id="g24"><path
             id="path26"
             style="fill:#ffffff;fill-opacity:1;fill-rule:nonzero;stroke:none"
             d="m 0,0 c 19.13,22.145 42.665,41.382 63.74,52.176 0.727,0.364 1.496,-0.427 1.112,-1.133 -1.689,-3.035 -4.916,-9.554 -5.921,-14.471 -0.101,-0.461 0.191,-0.917 0.652,-1.017 0.225,-0.05 0.459,-0.006 0.652,0.12 13.124,8.956 35.931,18.553 55.959,19.772 0.856,0.064 1.283,-1.048 0.577,-1.582 -3.292,-2.544 -6.262,-5.515 -8.785,-8.828 -0.283,-0.378 -0.207,-0.913 0.171,-1.197 0.142,-0.107 0.315,-0.167 0.492,-0.171 14.043,-0.107 33.858,-5.023 46.769,-12.291 0.854,-0.491 0.256,-2.18 -0.728,-1.966 C 135.154,33.9 103.177,37.321 69.96,29.198 40.313,21.952 17.677,10.773 1.175,-1.261 0.32,-1.881 -0.663,-0.77 0,0.021 Z m 95.204,-214.392 0.022,-0.021 v 0.043 z m 78.831,-9.319 c 0.588,0.267 0.947,0.873 0.898,1.518 -0.078,0.787 -0.779,1.361 -1.566,1.284 -0.006,-0.001 -0.011,-0.001 -0.015,-0.002 0,0 -40.785,-6.049 -79.324,8.101 4.19,13.659 15.348,8.721 32.234,7.353 26.223,-1.555 52.522,1.292 77.805,8.422 17.442,5.023 40.356,14.92 58.183,28.984 5.985,-13.21 8.122,-27.745 8.122,-27.745 0,0 4.639,0.834 8.529,-1.559 3.656,-2.267 6.349,-6.969 4.51,-19.131 -3.74,-22.722 -13.381,-41.169 -29.583,-58.141 -10.12,-10.966 -22.169,-19.979 -35.547,-26.59 -7.441,-3.922 -15.199,-7.211 -23.191,-9.833 -61.09,-19.985 -123.634,1.988 -143.79,49.163 -1.641,3.609 -2.999,7.339 -4.061,11.158 -8.572,31.1 -1.283,68.4 21.525,91.891 1.388,1.496 2.821,3.271 2.821,5.472 0,1.859 -1.176,3.804 -2.181,5.194 -7.972,11.585 -35.611,31.336 -30.053,69.554 3.976,27.467 27.959,46.79 50.295,45.636 l 5.665,-0.321 c 9.683,-0.577 18.127,-1.817 26.121,-2.158 13.338,-0.578 25.329,1.368 39.543,13.231 4.788,3.997 8.635,7.481 15.133,8.571 0.685,0.107 2.373,0.727 5.772,0.556 3.473,-0.133 6.843,-1.212 9.747,-3.121 11.393,-7.588 12.996,-25.97 13.595,-39.437 0.341,-7.695 1.26,-26.248 1.581,-31.592 0.727,-12.184 3.912,-13.894 10.388,-16.031 3.634,-1.219 7.033,-2.116 12.013,-3.506 15.069,-4.253 24.004,-8.55 29.648,-14.086 3.377,-3.441 4.916,-7.118 5.407,-10.623 1.796,-12.996 -10.046,-29.049 -41.425,-43.627 -34.307,-15.945 -75.881,-19.985 -104.63,-16.779 l -10.068,1.133 c -22.999,3.099 -36.103,-26.655 -22.316,-47.046 8.893,-13.147 33.132,-21.697 57.35,-21.697 55.575,0 98.282,23.748 114.164,44.289 l 1.282,1.818 c 0.77,1.176 0.128,1.816 -0.855,1.154 -12.975,-8.892 -70.623,-44.225 -132.311,-33.58 0,0 -7.481,1.218 -14.321,3.89 -5.43,2.116 -16.801,7.353 -18.169,19.045 49.761,-15.412 81.075,-0.833 81.075,-0.833 z m -273.322,118.46 c -17.314,-3.356 -32.576,-13.188 -41.895,-26.762 -5.579,4.66 -15.967,13.68 -17.806,17.186 -14.898,28.322 16.245,83.406 38.005,114.506 53.801,76.865 137.976,135.048 176.985,124.488 6.327,-1.795 27.317,-26.163 27.317,-26.163 0,0 -38.966,-21.652 -75.111,-51.856 C -40.484,8.593 -77.271,-46 -99.309,-105.251 Z m 29.07,-129.96 c -2.64,-0.45 -5.317,-0.643 -7.994,-0.577 -26.035,0.705 -54.164,24.175 -56.965,52.048 -3.099,30.78 12.612,54.464 40.399,60.064 3.847,0.767 7.775,1.054 11.692,0.855 15.583,-0.855 38.539,-12.825 43.776,-46.833 4.639,-30.096 -2.736,-60.769 -30.908,-65.578 z m 352.752,54.506 c -0.214,0.791 -1.667,6.113 -3.677,12.526 l -4.061,10.902 c 8.015,12.034 8.144,22.785 7.097,28.856 -1.155,7.545 -4.276,13.979 -10.602,20.605 -6.306,6.669 -19.238,13.466 -37.406,18.554 l -9.513,2.65 c -0.042,0.385 -0.491,22.508 -0.919,31.999 -0.277,6.84 -0.876,17.57 -4.189,28.108 -3.954,14.299 -10.837,26.783 -19.452,34.777 23.727,24.624 38.54,51.77 38.497,75.048 -0.064,44.78 -54.956,58.353 -122.607,30.266 l -14.321,-6.091 c -8.753,8.611 -17.517,17.211 -26.292,25.799 -77.164,67.417 -318.295,-201.096 -241.217,-266.332 l 16.865,-14.279 c -4.557,-12.228 -6.168,-25.358 -4.702,-38.326 1.817,-17.955 11.05,-35.14 26.034,-48.435 14.215,-12.611 32.918,-20.627 51.065,-20.606 29.99,-69.254 98.539,-111.749 178.909,-114.142 86.227,-2.566 158.602,37.962 188.955,110.765 1.988,5.13 10.389,28.151 10.389,48.457 0,20.435 -11.522,28.899 -18.853,28.899 m -338.26,-20.007 c -0.898,1.133 -2.394,0.791 -3.847,0.449 -1.116,-0.299 -2.265,-0.457 -3.42,-0.47 -2.479,-0.055 -4.821,1.132 -6.242,3.164 -1.667,2.564 -1.56,6.39 0.256,10.772 l 0.855,1.967 c 2.95,6.584 7.867,17.635 2.352,28.151 -4.147,7.908 -10.923,12.867 -19.067,13.894 -7.817,1.001 -15.638,-1.823 -21.011,-7.588 -8.101,-8.936 -9.362,-21.119 -7.781,-25.437 0.577,-1.56 1.475,-2.009 2.116,-2.094 1.389,-0.193 3.42,0.812 4.703,4.274 l 0.363,1.112 c 0.556,1.817 1.625,5.194 3.356,7.909 4.436,6.803 13.547,8.723 20.351,4.288 0.006,-0.004 0.013,-0.009 0.019,-0.013 5.686,-3.741 7.867,-10.687 5.451,-17.335 -1.261,-3.441 -3.292,-10.004 -2.843,-15.391 0.919,-10.944 7.631,-15.326 13.637,-15.817 5.857,-0.214 9.961,3.1 10.987,5.515 0.641,1.411 0.107,2.287 -0.214,2.672 v -0.022 z m 245.899,90.694 c -3.655,0.065 -6.712,-3.954 -6.777,-8.999 -0.085,-5.022 2.8,-9.148 6.456,-9.212 3.655,-0.064 6.711,3.955 6.797,8.978 0.064,5.022 -2.822,9.148 -6.476,9.233 m -28.964,-25.35 c 4.489,-2.223 9.448,-1.347 11.072,1.924 1.625,3.312 -0.726,7.78 -5.236,9.982 -4.489,2.223 -9.448,1.346 -11.072,-1.924 -1.625,-3.313 0.726,-7.781 5.236,-9.982 m -50.766,21.503 c -6.626,-1.069 -10.281,-3.249 -12.632,-5.28 -2.009,-1.752 -3.249,-3.698 -3.249,-5.066 l 0.513,-1.218 1.09,-0.427 c 1.496,0 4.874,1.368 4.874,1.368 6.814,2.572 14.177,3.338 21.375,2.222 3.313,-0.384 4.916,-0.598 5.621,0.557 0.214,0.32 0.492,1.047 -0.171,2.137 -1.56,2.522 -8.272,6.776 -17.399,5.686 z m 10.26,5.857 c 5.109,-2.244 8.23,-3.72 9.448,-2.437 0.791,0.812 0.556,2.351 -0.641,4.339 -2.522,4.126 -7.695,8.293 -13.189,10.624 -11.573,4.804 -24.816,3.216 -34.926,-4.19 -3.42,-2.501 -6.626,-5.985 -6.199,-8.08 0.171,-0.684 0.662,-1.197 1.86,-1.368 2.821,-0.32 12.632,4.639 23.94,5.344 7.994,0.492 14.62,-2.009 19.708,-4.254 z m 61.133,9.661 c 3.527,0.449 7.097,0.449 10.624,0 1.902,4.382 2.223,11.928 0.513,20.136 -2.566,12.205 -5.986,19.601 -13.103,18.446 -7.118,-1.154 -7.396,-10.003 -4.831,-22.209 1.432,-6.861 3.976,-12.739 6.818,-16.373 z" /></g></g></g></g></svg>