<?xml version="1.0" encoding="utf-8"?>
<!-- Generator: Adobe Illustrator 21.0.0, SVG Export Plug-In . SVG Version: 6.00 Build 0)  -->
<svg version="1.1" xmlns="http://www.w3.org/2000/svg" xmlns:xlink="http://www.w3.org/1999/xlink" x="0px" y="0px"
	 viewBox="0 0 1024 1024" style="enable-background:new 0 0 1024 1024;" xml:space="preserve">
<style type="text/css">
	.st0{fill:#B58765;}
	.st1{fill:#FFFFFF;}
</style>
<g id="Min_Guides__x28_DO_NOT_REMOVE_x29_">
</g>
<g id="Max_Guides__x28_DO_NOT_REMOVE_x29_">
</g>
<g id="Icon">
	<circle id="Background" class="st0" cx="512" cy="512" r="512"/>
	<path id="Mailcow_logo__x28_monochrome_edit_by_krisu_x29_" class="st1" d="M889.1,606.6c0,0-13.8,81.8-57.6,81.1
		c-14.1,0.6-24-3.5-30.7-8.3c-10.1,10.7-23.3,19.9-36.5,27.6c0,0-0.1,0.1-0.1,0.1c-10.8,6.2-21.5,11.3-30.3,15.2
		c-3.1,1.3-5.9,2.5-8.4,3.5v-43.9c6.4,0.2,12.3-0.1,17.8-1c0,0,0,0,0,0v0c22.6-3.5,37.6-14.7,43.7-20.1c0,0,0,0,0,0l0,0
		c-4.3-13.2-10.9-52,55-58.1c-2.7,0.6-9.3,3.5-15.1,18.3C846.4,622.6,878.4,625.4,889.1,606.6z M646.7,590.5L646.7,590.5
		c-0.5,0.5-1,1-1.4,1.3l-0.7,0.6c-13.8,13.3-29.3,24.5-46.2,33.4c-3.4,1.8-6.9,3.5-10.4,5c-1.7,0.8-3.5,1.6-5.3,2.3
		c-3.6,1.5-7.2,2.9-10.9,4.1c-0.5,0.2-1,0.3-1.4,0.5L719.3,763c0.9-2.8,1.4-5.7,1.4-8.6l0-275.2L700,495.8
		c-8.4,35.4-26.6,67.9-52.5,93.9L646.7,590.5z M563.8,640c-18.6,5.6-37.9,8.5-57.4,8.5c-21.1,0-42-3.3-62-9.9L290.6,766.8l-2.2,1.7
		c5,8.5,14.1,13.8,24,13.8h380.4c9.9,0,19-5.3,24-13.8l-2.1-1.6L563.8,640z M316.1,507.8c-0.5-1.5-0.9-3.1-1.4-4.7l-30.2-24v275.2
		c0,2.9,0.5,5.8,1.4,8.6l152-126.7C379.7,614.9,334.2,567.1,316.1,507.8z M704.3,471.1c-0.6,5.3-1.4,10.6-2.5,15.9l14.1-11.3
		L704.3,471.1z M289.7,475.3l22.5,17.9c-1.8-7.9-3.1-15.8-3.9-23.6L289.7,475.3z M675.3,355.7c15.8,28.5,24.2,60.9,24.2,93.6
		c0,51.1-19.7,99.1-55.5,135.5l0,0c-0.6,0.6-2.1,2.2-2.8,2.8l-0.6,0.6c-13.4,12.9-28.5,23.8-44.9,32.4c-3.3,1.7-6.7,3.4-10.1,4.9
		c-1.7,0.8-3.4,1.5-5.2,2.2c-3.4,1.4-7,2.8-10.5,4c-1.7,0.6-3.6,1.2-5.4,1.8c-18.8,5.9-38.3,8.9-58.2,8.9
		c-21.4,0-42.5-3.5-62.7-10.4c-58.3-20-103.9-67.1-122-126c-3.8-12.4-6.4-25.4-7.6-38.4c-0.6-6.1-0.9-12.3-0.9-18.3
		c0-6.6,0.3-13.2,1-19.8c2.5-24.8,9.7-48.5,21.4-70.5c2.2-4.1,4.5-8.1,6.9-12c5.9-9.4,12.6-18.3,19.9-26.5l0,0
		c0.1-0.1,0.3-0.3,0.4-0.4l0.7-0.8c2.7-3,5.6-5.9,8.4-8.7c9-8.7,18.9-16.6,29.4-23.4c7-4.6,14.4-8.7,22-12.3
		c17.7-8.4,36.5-14.1,55.9-16.8c17-2.4,34.3-2.5,51.3-0.4c18.9,2.4,37.3,7.5,54.7,15.3c7.4,3.3,14.6,7.1,21.4,11.3
		c11,6.7,21.4,14.6,30.9,23.4c11.5,10.7,21.7,22.7,30.3,35.8C670.5,347.4,673,351.5,675.3,355.7z M643.3,445.4
		c0-80.5-59-148.5-137.1-158.2c-6.3-0.8-12.7-1.2-19.1-1.2c-29.7,0-58.7,8.6-83.6,24.8c-24.3,15.8-43.9,38-56.6,64.3
		c-10.6,22-16,45.7-16,70.3c0,40.7,15,79.5,42.4,109.1c29.9,32.4,70.3,50.3,113.9,50.3c55.7,0,107.6-30.7,135.5-80
		c5.9-10.5,10.7-21.7,14.1-33.4C641,476.5,643.3,461,643.3,445.4z M692.2,457.3l1.1,0c0,0,0,0,0,0c0,0,0,0,0,0l1.1,0l0-0.1l-1.1,0
		c0,0,0,0,0,0h0c0,0,0,0,0,0l-1.1,0L692.2,457.3z M614.4,520.9l1.7,3.1c-27.1,46.2-76.5,74.9-129.1,74.9
		c-41.4,0-79.9-16.8-108.5-47.3v-4.2l0.8-0.3l-0.8-0.9c1.9-41.9,56.4-75.9,121.8-75.9C550.7,470.3,596.5,490.7,614.4,520.9z
		 M444.1,535.7c0-10.7-8.7-19.3-19.3-19.3c-10.6,0-19.3,8.7-19.3,19.3c0,10.7,8.7,19.3,19.3,19.3C435.5,555,444.1,546.3,444.1,535.7
		z M595.7,535.7c0-10.7-8.7-19.3-19.3-19.3c-10.7,0-19.3,8.7-19.3,19.3c0,10.7,8.7,19.3,19.3,19.3C587,555,595.7,546.3,595.7,535.7z
		 M487,291.9l0-1.1L487,291.9c6.1,0,12.3,0.4,18.4,1.1c75.2,9.4,132,74.9,132,152.4c0,15.1-2.2,30-6.4,44.5l0,0.1
		c-0.5,1.7-1.1,3.6-1.8,5.8l-0.5,1.4c-0.7,1.9-1.4,3.8-2.1,5.6l-0.5,1.2c-0.7,1.7-1.4,3.4-2.1,5l-0.4,1c-0.8,1.7-1.6,3.5-2.6,5.4
		c-0.4,0.9-0.9,1.8-1.4,2.7c-19-32.1-66.5-53.6-119.1-53.6c-33.9,0-65.8,8.6-89.9,24.3c-22.9,14.9-36.1,34.5-37.7,55.5
		c-1.2-4.1-2.1-8.3-2.7-12.3c0-0.3-0.1-0.7-0.2-1c-0.1-0.3-0.1-0.6-0.2-1c-8.6-37.9-14.6-66.3-21.7-107.8
		c-0.8-6.6-1.2-12.3-1.4-17.9c0-0.8-0.1-1.6-0.1-2.4c-0.1-1.4-0.1-2.8-0.1-4.3c0-2.2,0.1-4.5,0.3-7.3c1.3-3.5,2.8-7,4.4-10.4
		l1.1-2.3l0.1-0.3c0.4-0.8,0.8-1.6,1.2-2.4l0.6-1.2c0.2-0.4,0.3-0.7,0.5-1c0.1-0.2,0.2-0.3,0.3-0.5l0.2-0.4
		c12.2-22.7,30-42.1,51.4-56C430.6,300.1,458.4,291.9,487,291.9z M452.2,396.8c0-11.9-9.6-21.5-21.5-21.5
		c-11.9,0-21.5,9.6-21.5,21.5c0,11.9,9.6,21.5,21.5,21.5c5.7,0,11.1-2.2,15.2-6.3C449.9,408,452.2,402.6,452.2,396.8z M557.6,396.8
		c0,11.9,9.6,21.5,21.5,21.5c11.9,0,21.5-9.6,21.5-21.5c0-11.9-9.7-21.5-21.5-21.5C567.3,375.3,557.6,385,557.6,396.8z M585.4,398.2
		c4.1,0,7.5-3.3,7.5-7.5c0-4.1-3.4-7.5-7.5-7.5c-4.1,0-7.5,3.4-7.5,7.5C577.9,394.9,581.2,398.2,585.4,398.2z M438.3,398.2
		c4.1,0,7.5-3.3,7.5-7.5c0-4.1-3.3-7.5-7.5-7.5c-4.1,0-7.5,3.4-7.5,7.5C430.8,394.9,434.1,398.2,438.3,398.2z M584.7,208.6
		c-3,6.5-16.4,33-40.4,44.6c14.9,2.9,29.4,7.4,43.1,13.5C593.8,254.9,604.8,228,584.7,208.6z M420.8,268.7
		c13.9-6.6,28.6-11.6,43.7-14.8c-25.1-11.1-39-38.7-42.1-45.4C401.5,228.8,413.8,256.6,420.8,268.7z M612.1,279.7
		c10.7,6.7,20.8,14.4,30,22.9c0,0,0.1,0.1,0.1,0.1c14.1-9.1,35.8-18.6,59.7-12.8l1,0.2l-0.1,1c0,0.3-4,27.3-29,49
		c2.3,3.5,4.5,7.1,6.6,10.8c28.2-20.2,40.6-48.3,37-83.5C710.6,265,649.6,243.4,612.1,279.7z M327.5,259.1
		c-19.9,1.4-36.2,7.2-39.5,8.5c-3.9,37.5,10.4,66.8,42.4,87.1c1.9-3.6,4-7.1,6.1-10.5c-29.3-22.2-33.8-52.7-33.9-53l-0.1-1l1-0.2
		c25.8-6.2,48.9,5,64,15.7c8.8-8.5,18.4-16.2,28.6-23C375.8,260.7,347.7,257.7,327.5,259.1z"/>
</g>
</svg>
