<?xml version="1.0" encoding="utf-8"?>
<!-- Generator: Adobe Illustrator 21.0.0, SVG Export Plug-In . SVG Version: 6.00 Build 0)  -->
<svg version="1.1" xmlns="http://www.w3.org/2000/svg" xmlns:xlink="http://www.w3.org/1999/xlink" x="0px" y="0px"
	 viewBox="0 0 1024 1024" style="enable-background:new 0 0 1024 1024;" xml:space="preserve">
<style type="text/css">
	.st0{fill:#B58765;}
	.st1{fill:#FFFFFF;}
	.st2{fill:#FFFFFF;stroke:#B58765;stroke-width:1.75;stroke-miterlimit:10;}
</style>
<g id="Guides">
</g>
<g id="Icon">
	<circle class="st0" cx="512" cy="512" r="512"/>
	<g id="Mailcow_monochrome_edit_by_krisu_1_">
		<path id="Tail" class="st1" d="M826.9,621c5.8-14.8,12.4-17.8,15.1-18.3c-65.9,6.1-59.2,44.9-55,58.1l0,0c0,0,0,0,0,0
			c-6.1,5.4-21.1,16.5-43.7,20.1v0c0,0,0,0,0,0c-5.5,0.9-11.5,1.2-17.8,1v43.9c2.5-1,5.4-2.2,8.4-3.5c8.8-3.8,19.5-9,30.3-15.2
			c0,0,0.1-0.1,0.1-0.1c13.2-7.6,26.5-16.9,36.5-27.6c6.7,4.8,16.6,8.9,30.7,8.3c43.7,0.7,57.6-81.1,57.6-81.1
			C878.4,625.4,846.4,622.6,826.9,621z"/>
		<g id="_x28_Bordered_x29_">
			<g id="Envelope">
				<path id="Bottom" class="st2" d="M444.1,637.3L444.1,637.3l-18.5,15.4L382.1,689l-92.2,76.9l-2.9,2.2
					c4.9,9.1,14.4,15.2,25.5,15.2h380.4c11,0,20.6-6.2,25.5-15.2l-2.9-2.2l-49-41.2l-86.1-72.4l-16.2-13.6l0,0
					c-18.6,5.7-38,8.6-57.7,8.6C485.1,647.3,464.2,643.9,444.1,637.3z"/>
				<path id="Middle-right" class="st2" d="M699,495.2c-8.3,35.2-26.2,67.5-52.3,93.8l0,0c-0.7,0.7-1.6,1.6-2.1,2.1l-0.7,0.6
					c-13.7,13.2-29.2,24.4-46,33.2c-3.4,1.8-6.8,3.5-10.3,5c-1.7,0.8-3.5,1.6-5.3,2.3c-3.5,1.5-7.2,2.9-10.8,4.1
					c-1.1,0.4-2.2,0.7-3.3,1.1l14.4,12.1l86.1,72.4l51.1,42.9c1.3-3.2,2-6.8,2-10.5c0,0,0,0,0,0v-27.2v0v-45.5V476.9L699,495.2z"/>
				<path id="Middle-left" class="st2" d="M317.1,507.5c-0.5-1.7-1-3.3-1.5-5L310,498l-26.6-21.1V623v131.4c0,3.7,0.7,7.2,2,10.5
					l94.4-78.7l43.6-36.3l16.8-14C381.3,615,335.5,567.2,317.1,507.5z"/>
				<path id="Top-right_corner" class="st2" d="M309.3,468.2l-1.1,0.3l-20.9,6.4l26.8,21.2C311.9,486.9,310.2,477.6,309.3,468.2z"/>
				<path id="Top-left_corner" class="st2" d="M703.3,469.6c-0.8,6.8-1.8,13.6-3.2,20.3l18.1-14.5L703.3,469.6z"/>
			</g>
			<path id="Ring" class="st2" d="M676.3,355.2c-2.3-4.2-4.8-8.3-7.5-12.4c-8.7-13.2-19-25.3-30.5-36c-9.5-8.8-20-16.7-31.1-23.5
				c-6.9-4.2-14.1-8-21.6-11.3c-17.2-7.7-35.7-13-55-15.4c-7.9-1-16-1.5-24.2-1.5c-9.3,0-18.4,0.7-27.4,1.9
				c-19.9,2.8-38.8,8.6-56.2,16.9c-7.7,3.7-15,7.8-22.1,12.4c-10.6,6.9-20.5,14.8-29.5,23.6c-2.9,2.8-5.7,5.7-8.4,8.7
				c-0.1,0.1-0.1,0.1-0.2,0.2c-0.4,0.4-0.8,0.8-1.1,1.2c0.1-0.1,0.2-0.2,0.3-0.3c-7.4,8.3-14.1,17.2-20.1,26.7
				c-2.5,3.9-4.8,8-7,12.1c-11.4,21.6-18.9,45.5-21.5,70.9c-0.7,6.5-1,13.2-1,19.9c0,6.2,0.3,12.4,0.9,18.4
				c1.3,13.3,3.8,26.2,7.7,38.6c18.2,59.4,64.2,106.7,122.7,126.7c19.8,6.8,41,10.5,63,10.5c20.4,0,40.1-3.2,58.5-9
				c1.8-0.6,3.6-1.2,5.4-1.8c3.6-1.2,7.1-2.6,10.6-4c1.7-0.7,3.5-1.5,5.2-2.2c3.4-1.5,6.8-3.2,10.1-4.9
				c16.6-8.7,31.8-19.7,45.1-32.6c0.2-0.2,0.4-0.4,0.6-0.6c0.7-0.7,2.3-2.4,2.8-2.9c-0.2,0.3-0.5,0.5-0.7,0.8
				c35-35.1,56.6-83.5,56.6-137c0,0,0,0,0,0C700.6,415.2,691.8,383.1,676.3,355.2z M621.5,524.2c-26.8,47.5-77,79.4-134.5,79.4
				c-44.6,0-84.8-19.2-113-49.9c-26.1-28.3-42.1-66.4-42.1-108.4c0-25.1,5.7-48.8,15.9-69.8c25.3-52.4,78.1-88.4,139.2-88.4
				c6.4,0,12.7,0.4,18.9,1.2c76.7,9.5,136.2,76.2,136.2,157.1c0,15.9-2.3,31.3-6.6,45.8C632.1,502.8,627.4,513.9,621.5,524.2z
				 M693.3,457.1c0,0,0,0.1,0,0.1l0,0C693.3,457.2,693.3,457.2,693.3,457.1L693.3,457.1z"/>
			<path id="Snout" class="st2" d="M615.4,520.4c-18.2-30.7-64-51.2-115-51.2c-66.7,0-121.4,34.6-123,77.4c0,0,0,0,0,0l0,0v5.4
				c28.9,30.9,67.8,48,109.6,48c53.4,0,103.2-29.1,130.4-76L615.4,520.4z M424.8,553.8c-10,0-18.2-8.1-18.2-18.2
				c0-10.1,8.2-18.2,18.2-18.2c10.1,0,18.2,8.1,18.2,18.2C443,545.7,434.8,553.8,424.8,553.8z M576.4,553.8
				c-10,0-18.2-8.1-18.2-18.2c0-10.1,8.1-18.2,18.2-18.2c10.1,0,18.2,8.1,18.2,18.2C594.6,545.7,586.5,553.8,576.4,553.8z"/>
			<g id="Face_and_eyes">
				<path id="Right_eye" inkscape:connector-curvature="0" class="st2" d="M585.4,398.2c4.1,0,7.5-3.3,7.5-7.5
					c0-4.1-3.4-7.5-7.5-7.5c-4.1,0-7.5,3.4-7.5,7.5C577.9,394.9,581.2,398.2,585.4,398.2z"/>
				<path id="Left_eye" inkscape:connector-curvature="0" class="st2" d="M438.3,398.2c4.1,0,7.5-3.3,7.5-7.5c0-4.1-3.3-7.5-7.5-7.5
					c-4.1,0-7.5,3.4-7.5,7.5C430.8,394.9,434.1,398.2,438.3,398.2z"/>
				<path id="Face_with_eye_holes" class="st2" d="M487,290.7C487,290.7,487,290.7,487,290.7c0,0-0.1,0-0.1,0
					c-28.8,0-56.7,8.3-80.9,24c-21.7,14.1-39.5,33.5-51.8,56.4c-0.2,0.3-0.3,0.6-0.5,0.9c-0.3,0.6-0.6,1.2-0.9,1.8c-0.5,1-1,2-1.5,3
					c0,0.1,0,0.1,0,0.2l-1.1,2.3c-1.6,3.5-3.1,7.1-4.5,10.7c-0.2,2.5-0.4,5-0.4,7.6c0,2.3,0.1,4.5,0.2,6.7c0.2,6.4,0.7,12.3,1.4,18
					c6.9,40.3,12.9,68.7,21.8,107.9c0.1,0.7,0.3,1.3,0.4,2c0.7,4.7,1.8,9.4,3.2,14c0.5,0.6,1.1,1.2,1.6,1.8
					c0.4-45.5,57-82.4,126.7-82.4c54.9,0,101.5,22.8,119.1,54.8c0.8-1.5,1.6-3,2.3-4.5c0.9-1.8,1.8-3.6,2.6-5.5
					c0.1-0.3,0.3-0.6,0.4-1c0.7-1.7,1.5-3.4,2.1-5.1c0.2-0.4,0.3-0.8,0.5-1.2c0.7-1.9,1.4-3.8,2.1-5.7c0.2-0.5,0.3-0.9,0.5-1.4
					c0.7-1.9,1.3-3.9,1.9-5.8c0-0.1,0-0.1,0.1-0.2c4.3-14.5,6.4-29.5,6.4-44.7c0-78.1-57.2-144.1-133-153.5l0,0
					C499.4,291.1,493.2,290.7,487,290.7z M430.7,417.2c-11.3,0-20.4-9.1-20.4-20.4c0-11.3,9.1-20.4,20.4-20.4
					c11.3,0,20.4,9.1,20.4,20.4C451,408.1,441.9,417.2,430.7,417.2z M579.1,376.5c11.3,0,20.4,9.1,20.4,20.4
					c0,11.3-9.1,20.4-20.4,20.4c-11.3,0-20.4-9.1-20.4-20.4C558.7,385.6,567.9,376.5,579.1,376.5z"/>
			</g>
			<g id="Horns">
				<path id="Right_1_" class="st2" d="M587.9,268.1c6.8-12.2,19-41-3.6-61.4c0,0-14.3,34.9-43.8,46.9c16.2,2.8,31.9,7.6,46.9,14.3
					C587.6,267.9,587.8,268,587.9,268.1z"/>
				<path id="Left_1_" class="st2" d="M468.4,254.3c-30.7-11.2-45.6-47.6-45.6-47.6c-24.1,21.7-8.8,52.8-2.4,63.5
					c0.2-0.1,0.3-0.2,0.5-0.3C436,262.7,452,257.5,468.4,254.3z"/>
			</g>
			<g id="Ears">
				<path id="Right" class="st2" d="M642.1,304.2c14.8-9.7,36-18.8,59.6-13.1c0,0-3.8,27.2-29.3,48.9c0.1,0.1,0.2,0.2,0.3,0.4
					c2.6,4,5.1,8.1,7.4,12.3c23-16.1,43.1-42.7,38.4-85.9c0,0-67.8-27.5-108.1,13.2c11,6.8,21.5,14.7,31,23.6
					C641.6,303.7,641.8,304,642.1,304.2z"/>
				<path id="Left" class="st2" d="M337.9,343.9c-30-22.2-34.2-52.8-34.2-52.8c25.9-6.2,49.1,5.4,63.9,16.1c0.2-0.2,0.3-0.3,0.5-0.5
					c9.1-8.8,19.1-16.8,29.7-23.8c-39.9-44.9-110.9-16.1-110.9-16.1c-5.1,46.6,18.7,73.9,43.9,89.5c2.2-4.1,4.5-8.2,7-12.2
					C337.8,344.1,337.9,344,337.9,343.9z"/>
			</g>
		</g>
	</g>
</g>
</svg>
