<?xml version="1.0" encoding="utf-8"?>
<!-- Generator: Adobe Illustrator 21.0.0, SVG Export Plug-In . SVG Version: 6.00 Build 0)  -->
<svg version="1.1" xmlns="http://www.w3.org/2000/svg" xmlns:xlink="http://www.w3.org/1999/xlink" x="0px" y="0px"
	 viewBox="0 0 1024 1024" style="enable-background:new 0 0 1024 1024;" xml:space="preserve">
<style type="text/css">
	.st0{fill:#76BC21;}
	.st1{fill:#FFFFFF;}
</style>
<g id="Guides">
</g>
<g id="Icon">
	<circle class="st0" cx="512" cy="512" r="512"/>
	<g>
		<path class="st1" d="M376.9,527.4l90.1-61.7V406H254.1c0,0-21.8,0-21.8,21.8v0.6L376.9,527.4z"/>
		<path class="st1" d="M254.1,618H467V497.3l-84.3,57.5c-6,4.1-12,0-12,0l-138.3-95.1v136.5C232.4,596.2,232.4,618,254.1,618"/>
		<path class="st1" d="M742.6,618h49V481.9c0-58.3-30.9-75.9-77-75.9c-24.2,0-44.8,5.4-60,11.4c-7.8-4.9-19.9-11.4-48.6-11.4
			c-25.6,0-65.7,8.6-79.4,19v193h48.5V452.1c11.3-2.8,19-4.9,31.5-4.8c19.6,0.1,27.6,8.6,28.2,35.9V618h48.3l-0.3-137.8
			c0-19.4-3.8-28.1-3.8-28.1c10-3.3,19.6-4.8,33.7-4.8c22.1,0,29.2,9.1,30,36.4L742.6,618z"/>
	</g>
</g>
</svg>
