<svg xmlns="http://www.w3.org/2000/svg" viewBox="0 0 1024 1024">
   <circle cx="512" cy="512" r="512" style="fill:#ffe01b"/>
   <path d="M633.7 497.9c3.5-.4 7.1-.4 10.6 0 1.9-4.4 2.2-11.9.5-20.1-2.6-12.2-6-19.6-13.1-18.4-7.1 1.2-7.4 10-4.8 22.2 1.4 6.8 4 12.7 6.8 16.3zm-61.1 9.7c5.1 2.2 8.2 3.7 9.4 2.4.8-.8.6-2.4-.6-4.3-2.5-4.1-7.7-8.3-13.2-10.6-11.6-4.8-24.8-3.2-34.9 4.2-3.4 2.5-6.6 6-6.2 8.1.2.7.7 1.2 1.9 1.4 2.8.3 12.6-4.6 23.9-5.3 8-.7 14.6 1.8 19.7 4.1zm-10.3 5.8c-6.6 1.1-10.3 3.2-12.6 5.3-2 1.8-3.2 3.7-3.2 5.1l.5 1.2 1.1.4c1.5 0 4.9-1.4 4.9-1.4 6.8-2.6 14.2-3.3 21.4-2.2 3.3.4 4.9.6 5.6-.6.2-.3.5-1-.2-2.1-1.6-2.5-8.3-6.7-17.5-5.7zm50.8 21.5c4.5 2.2 9.4 1.3 11.1-1.9 1.6-3.3-.7-7.8-5.2-10s-9.4-1.3-11.1 1.9c-1.7 3.4.7 7.8 5.2 10zm28.9-25.3c-3.7-.1-6.7 4-6.8 9-.1 5 2.8 9.1 6.5 9.2 3.7.1 6.7-4 6.8-9 .1-5-2.8-9.1-6.5-9.2zm-245.9 90.7c-.9-1.1-2.4-.8-3.8-.4-1.1.3-2.3.5-3.4.5-2.5.1-4.8-1.1-6.2-3.2-1.7-2.6-1.6-6.4.3-10.8l.9-2c2.9-6.6 7.9-17.6 2.4-28.2-4.1-7.9-10.9-12.9-19.1-13.9-7.8-1-15.6 1.8-21 7.6-8.1 8.9-9.4 21.1-7.8 25.4.6 1.6 1.5 2 2.1 2.1 1.4.2 3.4-.8 4.7-4.3l.4-1.1c.6-1.8 1.6-5.2 3.4-7.9 4.4-6.8 13.5-8.7 20.4-4.3 5.7 3.7 7.9 10.7 5.5 17.3-1.3 3.4-3.3 10-2.8 15.4.9 10.9 7.6 15.3 13.6 15.8 5.9.2 10-3.1 11-5.5.3-1.3-.2-2.2-.6-2.5zm338.3-20c-.2-.8-1.7-6.1-3.7-12.5l-4.1-10.9c8-12 8.1-22.8 7.1-28.9-1.2-7.5-4.3-14-10.6-20.6-6.3-6.7-19.2-13.5-37.4-18.6l-9.5-2.7c0-.4-.5-22.5-.9-32-.3-6.8-.9-17.6-4.2-28.1-4-14.3-10.8-26.8-19.5-34.8 23.7-24.6 38.5-51.8 38.5-75-.1-44.8-55-58.4-122.6-30.3l-14.3 6.1c-8.8-8.6-17.5-17.2-26.3-25.8-77.2-67.4-318.3 201.1-241.2 266.3l16.9 14.3c-4.6 12.2-6.2 25.4-4.7 38.3 1.8 18 11.1 35.1 26 48.4 14.2 12.6 32.9 20.6 51.1 20.6 30 69.3 98.5 111.7 178.9 114.1 86.2 2.6 158.6-38 189-110.8 2-5.1 10.4-28.2 10.4-48.5 0-20.2-11.6-28.6-18.9-28.6zm-352.7 54.5c-2.6.5-5.3.6-8 .6-26-.7-54.2-24.2-57-52-3.1-30.8 12.6-54.5 40.4-60.1 3.8-.8 7.8-1.1 11.7-.9 15.6.9 38.5 12.8 43.8 46.8 4.6 30.1-2.8 60.8-30.9 65.6zm-29.1-130c-17.3 3.4-32.6 13.2-41.9 26.8-5.6-4.7-16-13.7-17.8-17.2-14.9-28.3 16.2-83.4 38-114.5 53.8-76.9 138-135 177-124.5 6.3 1.8 27.3 26.2 27.3 26.2s-39 21.7-75.1 51.9c-48.7 37.5-85.5 92.1-107.5 151.3zm273.3 118.5c.6-.3.9-.9.9-1.5-.1-.8-.8-1.4-1.6-1.3 0 0-40.8 6-79.3-8.1 4.2-13.7 15.3-8.7 32.2-7.4 26.2 1.6 52.5-1.3 77.8-8.4 17.4-5 40.4-14.9 58.2-29 6 13.2 8.1 27.7 8.1 27.7s4.6-.8 8.5 1.6c3.7 2.3 6.3 7 4.5 19.1-3.7 22.7-13.4 41.2-29.6 58.1-10.1 11-22.2 20-35.5 26.6-7.4 3.9-15.2 7.2-23.2 9.8-61.1 20-123.6-2-143.8-49.2-1.6-3.6-3-7.3-4.1-11.2-8.6-31.1-1.3-68.4 21.5-91.9 1.4-1.5 2.8-3.3 2.8-5.5 0-1.9-1.2-3.8-2.2-5.2-8-11.6-35.6-31.3-30.1-69.6 4-27.5 28-46.8 50.3-45.6l5.7.3c9.7.6 18.1 1.8 26.1 2.2 13.3.6 25.3-1.4 39.5-13.2 4.8-4 8.6-7.5 15.1-8.6.7-.1 2.4-.7 5.8-.6 3.5.1 6.8 1.2 9.7 3.1 11.4 7.6 13 26 13.6 39.4.3 7.7 1.3 26.2 1.6 31.6.7 12.2 3.9 13.9 10.4 16 3.6 1.2 7 2.1 12 3.5 15.1 4.3 24 8.6 29.6 14.1 3.4 3.4 4.9 7.1 5.4 10.6 1.8 13-10 29-41.4 43.6-34.3 15.9-75.9 20-104.6 16.8l-10.1-1.1c-23-3.1-36.1 26.7-22.3 47 8.9 13.1 33.1 21.7 57.3 21.7 55.6 0 98.3-23.7 114.2-44.3l1.3-1.8c.8-1.2.1-1.8-.9-1.2-13 8.9-70.6 44.2-132.3 33.6 0 0-7.5-1.2-14.3-3.9-5.4-2.1-16.8-7.4-18.2-19 50.1 15.8 81.4 1.2 81.4 1.2zm-78.8-9.3zm-95.2-214.4c19.1-22.1 42.7-41.4 63.7-52.2.7-.4 1.5.4 1.1 1.1-1.7 3-4.9 9.6-5.9 14.5-.1.5.2.9.7 1 .2 0 .5 0 .7-.1 13.1-9 35.9-18.6 56-19.8.9-.1 1.3 1 .6 1.6-3.3 2.5-6.3 5.5-8.8 8.8-.3.4-.2.9.2 1.2.1.1.3.2.5.2 14 .1 33.9 5 46.8 12.3.9.5.3 2.2-.7 2-19.5-4.5-51.5-7.9-84.7.2-29.6 7.2-52.3 18.4-68.8 30.5-1.1.5-2.1-.6-1.4-1.3z" style="fill:#fff"/>
</svg>
