<?xml version="1.0" encoding="utf-8"?>
<!-- Generator: Adobe Illustrator 21.0.0, SVG Export Plug-In . SVG Version: 6.00 Build 0)  -->
<svg version="1.1" xmlns="http://www.w3.org/2000/svg" xmlns:xlink="http://www.w3.org/1999/xlink" x="0px" y="0px"
	 viewBox="0 0 1024 1024" style="enable-background:new 0 0 1024 1024;" xml:space="preserve">
<style type="text/css">
	.st0{fill:#F79421;}
	.st1{fill:#FFFFFF;}
</style>
<g id="Min_Guides__x28_DO_NOT_REMOVE_x29_">
</g>
<g id="Max_Guides__x28_DO_NOT_REMOVE_x29_">
</g>
<g id="Icon">
	<circle id="Background" class="st0" cx="512" cy="512" r="512"/>
	<path id="MangaDex_logo__x28_monochrome_version_by_krisu_x29_" class="st1" d="M735.6,566c0,4.8-3.9,8.7-8.7,8.7H334.5
		c-4.8,0-8.7-3.9-8.7-8.7c0-4.8,3.9-8.7,8.7-8.7h392.3C731.7,557.3,735.6,561.2,735.6,566z M507.4,651c-1.9-1.9-3.9-3.6-6-5.3
		c-21.9,4.5-39.9,19.5-48.4,39.6c6.2,1.4,11.7,4.8,15.7,9.6c0.7,0.9,1.4,1.8,2,2.7c2.3,3.5,3.9,7.5,4.5,11.9c0,0.2,0.1,0.4,0.1,0.6
		c0.1,0.9,0.2,1.8,0.2,2.7c0,0.2,0,0.5,0,0.7c0,0.2,0,0.4,0,0.5v0.1c0.1,3.6,0.8,7,2.1,10.2c2.3,5.8,6.4,10.6,11.6,13.8
		c4.4,2.7,9.6,4.3,15.2,4.3c14.1,0,25.9-10.1,28.4-23.5c0.2-1.1,0.4-2.2,0.5-3.4c0-0.4,0-0.8,0-1.1c0-0.3,0-0.6,0-0.9v-0.7
		c0-9.9-1.7-19.4-4.7-28.2C524.1,671.7,516.8,660.3,507.4,651z M726.8,590.3H334.5c-4.8,0-8.7,3.9-8.7,8.7c0,4.8,3.9,8.7,8.7,8.7
		h326.1h2v48.5l25-14.5l25,14.5v-48.5h0.3h13.9c4.8,0,8.7-3.9,8.7-8.7C735.6,594.2,731.7,590.3,726.8,590.3z M636.2,543.6
		c2.3-1.5,4.4-3.1,6.5-4.6h-1.6C639.5,540.5,637.8,542,636.2,543.6z M781.4,466.5c-0.4-2.5-1.1-4.9-1.9-7.2
		c-0.2-0.1-0.3-0.3-0.5-0.4c-0.2-0.1-0.3-0.3-0.5-0.4c-0.8-0.7-1.6-1.4-2.4-2.2s-1.6-1.5-2.3-2.3c-2.1,1.3-3.8,3-5.1,5.2
		c-1.2,2.1-1.9,4.6-1.9,7.2c0,4,1.6,7.6,4.2,10.2c2.6,2.6,6.2,4.2,10.2,4.2c0,0,0.1,0,0.1,0c0,0,0.1,0,0.1,0c0-0.3,0.1-0.6,0.2-0.9
		c0.1-0.3,0.1-0.6,0.1-0.9c0.1-0.8,0.2-1.6,0.2-2.4c0-0.8,0.1-1.6,0.1-2.5C782.1,471.5,781.9,469,781.4,466.5z M780.5,485.6
		c-2.6,9.8-8.4,18.3-16.3,24.2c-0.4,0.3-0.8,0.5-1.2,0.8c-0.3,0.2-0.6,0.4-0.9,0.7c0,0,0,0,0,0c-3.5,2.8-6.2,6.6-7.5,11
		c-0.1,0.3-0.2,0.7-0.3,1.1c-2.9,9.1-11.5,15.6-21.5,15.6h-90c1.8-1.3,3.7-2.6,5.6-3.7c2.1-1.3,4.1-2.6,6.2-3.8l6.5-3.4
		c8.8-4.2,17.7-8,27.1-10.8c9.3-2.9,18.8-5.1,28.4-6.9c4.8-0.9,9.6-1.6,14.5-2.2c4.9-0.7,9.7-1.1,14.7-1.5
		c-9.9-0.9-19.8-0.4-29.6,0.8c-9.9,1.1-19.6,3.3-29.1,6.2c-9.5,2.9-18.7,6.9-27.3,11.8c-6.7,3.7-12.9,8.4-18.6,13.5H343.7
		c-24.1,0-43.5,19.5-43.5,43.5c0,1,0,2,0.1,2.9c1.5,22.4,20,40.2,42.7,40.5c0.2,0,0.5,0,0.7,0c0.2,0,0.5,0,0.7,0h102
		c8.4,0,16.6,1.2,24.4,3.5c8.3,2.4,16.1,6.1,23.2,10.8c-21.3,6.2-38.7,21.6-47.5,42.3l-0.8,2c-0.3,0-0.7,0-1,0H322.3
		c-13.8-0.3-26.8-4.1-38.1-10.5c-18.4-10.3-32.5-27.5-38.7-48.1c-2.3-7.6-3.5-15.6-3.5-23.9v-48.2c0-5,0.2-10,0.6-14.9
		c5.4-71.2,49.8-131.6,111.8-160c19.2-8.8,40.1-14.5,62.1-16.5c5.8-0.5,11.8-0.8,17.7-0.8c22.7,0,44.5,3.9,64.8,11.2
		c6.8,2.4,13.3,5.2,19.7,8.3c2,1,4,2,6,3.1c0.2-0.3,0.4-0.7,0.6-1c0,0,0,0,0,0c1.6-2.8,3.2-5.5,4.9-8.2c1.7-2.7,3.4-5.4,5.3-8
		c9.2-13.2,19.8-25.2,31.7-35.9c28.3-25.4,63.7-43,102.8-49.5c0.3-0.1,0.6-0.1,1-0.2c0.1,0,0.3,0,0.4,0c3.1,0,5.6,2.5,5.6,5.6
		c0,0.5-0.1,0.9-0.2,1.3c-37.5,7.9-65.6,41.2-65.6,81c0,4,0.3,8,0.9,11.9c13.7-12.7,29.6-22.9,47.2-30.1c0-0.7,0-1.4,0-2
		c0-22.3,6.4-43.1,17.6-60.6c-0.1,0.5-0.3,0.9-0.5,1.3c-7.8,14.1-12.2,30.2-12.2,47.4c0,1.5,0,3,0.1,4.5c0.5,0.1,1,0.3,1.5,0.4
		c3.2,0.8,6.3,1.7,9.4,2.7c1.4,0.5,2.8,1,4.1,1.5c2.2,0.8,4.4,1.5,6.5,2.4c1.6,0.6,3.1,1.4,4.6,2.1c1.9,0.8,3.8,1.7,5.6,2.6
		c1.6,0.8,3.2,1.7,4.8,2.6c1.7,0.9,3.3,1.8,5,2.8c1.6,1,3.3,2,4.9,3c1.5,1,3,1.9,4.5,3c1.6,1.1,3.2,2.3,4.8,3.5c1.4,1,2.7,2.1,4,3.1
		c1.6,1.3,3.2,2.6,4.7,3.9c1.2,1.1,2.4,2.1,3.6,3.2c1.5,1.4,3.1,2.9,4.6,4.4c0.4,0.4,0.8,0.8,1.2,1.2c1.7,1.8,3.5,3.5,5.1,5.3
		c0.2,0.3,0.5,0.5,0.7,0.8c2.5,3,4.2,6.8,4.9,10.8c0,0,0,0.1,0,0.1c0.1,0.7,0.2,1.4,0.2,2.1c1.5,11.5,5.2,22.3,10.7,32h0
		c0,0.1,0.1,0.2,0.1,0.3c3.1,5.3,6.7,10.2,10.8,14.8c-2.4,1.6-4.5,3.8-6,6.3c-1.7,2.9-2.6,6.2-2.6,9.6c0,5.2,2,10,5.7,13.6
		C771.1,483.5,775.6,485.4,780.5,485.6z M686.4,436.5c0,3,2.5,5.5,5.5,5.5c0.9,0,1.7-0.2,2.4-0.6c0.2-0.1,0.3-0.2,0.5-0.3
		c0,0,0,0,0,0c0,0,0.1,0,0.1-0.1c1.3-0.7,2.7-1.3,4.1-1.9c1.5-0.6,3.1-1,4.7-1.3c1.9-0.4,3.9-0.6,5.9-0.6c0.8,0,1.7,0,2.5,0.1
		c4.6,0.4,8.9,1.8,12.8,4c0.8,0.4,1.7,0.7,2.6,0.7c3,0,5.5-2.5,5.5-5.5c0-1.9-1-3.6-2.4-4.5c-0.2-0.1-0.3-0.2-0.5-0.3
		c-0.7-0.4-1.4-0.8-2.1-1.1c-3.4-1.7-7.1-2.9-11-3.5c-0.9-0.2-1.8-0.3-2.7-0.4c-1.1-0.1-2.2-0.2-3.3-0.2c-0.4,0-0.8-0.1-1.2-0.1
		c-2.8,0-5.5,0.3-8.1,0.8c-0.3,0.1-0.5,0.1-0.8,0.1c-2.9,0.6-5.6,1.6-8.2,2.8c-1.1,0.5-2.2,0.9-3.3,1.5c-0.2,0.1-0.4,0.2-0.5,0.3
		c-0.1,0.1-0.2,0.2-0.3,0.3C687.2,433.3,686.4,434.8,686.4,436.5z M746.5,496.3c-9.4-3-19.2-4.6-29.1-5.7c-9.9-1-19.8-1-29.8-0.3
		c-9.9,0.7-19.8,2.7-29.3,5.7c-9.5,2.9-18.5,7.3-26.8,12.6c4.7-1.7,8.9-4.2,13.7-5.5c2.3-0.8,4.6-1.7,6.9-2.4l7.1-1.9
		c9.5-2.2,19-4,28.8-4.7c9.7-0.8,19.4-1,29.2-0.7c4.9,0.2,9.8,0.5,14.7,1C736.7,494.9,741.6,495.6,746.5,496.3z M750.7,487.4
		c-8.9-4.4-18.3-7.5-27.9-9.9c-9.6-2.5-19.5-3.9-29.4-4.7c-9.9-0.7-19.9-0.2-29.8,1.2c-9.9,1.4-19.4,4.5-28.4,8.5
		c4.9-1,9.4-2.8,14.3-3.4c2.4-0.4,4.8-1,7.2-1.3l7.3-0.8c9.7-0.7,19.4-1.1,29.1-0.3c9.7,0.6,19.4,1.9,29,3.7
		c4.8,0.9,9.6,1.9,14.3,3.1C741.3,484.6,746,486,750.7,487.4z"/>
</g>
</svg>
