<?xml version="1.0" encoding="UTF-8" standalone="no"?>
<svg
   xmlns:dc="http://purl.org/dc/elements/1.1/"
   xmlns:cc="http://creativecommons.org/ns#"
   xmlns:rdf="http://www.w3.org/1999/02/22-rdf-syntax-ns#"
   xmlns:svg="http://www.w3.org/2000/svg"
   xmlns="http://www.w3.org/2000/svg"
   viewBox="0 0 1365.3333 1365.3333"
   height="1365.3333"
   width="1365.3333"
   xml:space="preserve"
   id="svg2"
   version="1.1"><metadata
     id="metadata8"><rdf:RDF><cc:Work
         rdf:about=""><dc:format>image/svg+xml</dc:format><dc:type
           rdf:resource="http://purl.org/dc/dcmitype/StillImage" /></cc:Work></rdf:RDF></metadata><defs
     id="defs6"><clipPath
       id="clipPath18"
       clipPathUnits="userSpaceOnUse"><path
         id="path16"
         d="M 0,1024 H 1024 V 0 H 0 Z" /></clipPath></defs><g
     transform="matrix(1.3333333,0,0,-1.3333333,0,1365.3333)"
     id="g10"><g
       id="g12"><g
         clip-path="url(#clipPath18)"
         id="g14"><g
           transform="translate(1024,512)"
           id="g20"><path
             id="path22"
             style="fill:#4a84cd;fill-opacity:1;fill-rule:nonzero;stroke:none"
             d="m 0,0 c 0,-282.77 -229.23,-512 -512,-512 -282.77,0 -512,229.23 -512,512 0,282.77 229.23,512 512,512 C -229.23,512 0,282.77 0,0" /></g><g
           transform="translate(664.9023,432.7832)"
           id="g24"><path
             id="path26"
             style="fill:#ffffff;fill-opacity:1;fill-rule:nonzero;stroke:none"
             d="m 0,0 h -53.26 v 130.516 c 0,27.515 -11.582,41.465 -34.724,41.465 -25.596,0 -38.437,-16.552 -38.437,-49.314 V 51.234 h -52.961 v 71.454 c 0,32.762 -12.841,49.314 -38.436,49.314 -23.143,0 -34.725,-13.971 -34.725,-41.464 V 0.021 h -53.26 v 134.441 c 0,27.494 6.996,49.335 21.053,65.482 14.503,16.168 33.466,24.444 57.035,24.444 27.259,0 47.906,-10.473 61.557,-31.44 l 13.246,-22.247 13.266,22.247 c 13.652,20.967 34.298,31.44 61.558,31.44 23.548,0 42.531,-8.276 57.035,-24.444 14.035,-16.147 21.032,-37.988 21.032,-65.482 L -0.021,0 Z m 85.83,143.101 c 0,111.042 -72.755,143.59 -72.755,143.59 -36.687,16.851 -99.695,23.933 -165.113,24.466 h -1.621 c -65.439,-0.533 -128.404,-7.615 -165.091,-24.466 0,0 -72.755,-32.548 -72.755,-143.59 0,-25.425 -0.491,-55.841 0.32,-88.071 2.644,-108.61 19.922,-215.621 120.32,-242.197 46.285,-12.243 86.044,-14.824 118.059,-13.054 58.06,3.2 90.652,20.733 90.652,20.733 l -1.92,42.126 c 0,0 -41.487,-13.075 -88.071,-11.497 -46.178,1.579 -94.895,4.969 -102.36,61.664 -0.701,5.267 -1.043,10.577 -1.024,15.89 0,0 45.325,-11.091 102.745,-13.715 35.108,-1.599 68.041,2.07 101.486,6.037 64.138,7.657 119.98,47.181 126.996,83.292 11.028,56.843 10.132,138.792 10.132,138.792" /></g></g></g></g></svg>