<svg xmlns="http://www.w3.org/2000/svg" viewBox="0 0 1024 1024">
   <circle cx="512" cy="512" r="512" style="fill:#005594"/>
   <path d="M679.81 467.52c-9.83-27.17-18.42-55.12-28.1-82.47-10.48-29.64-21.35-58.12-35.91-83.37-6.05-10.49-21-34.92-37-34.87-4.86 0-8.34 2.08-11.61 4.19-10.35 6.65-23.18 28.13-29.56 39.59-9.68 17.35-29 45.94-43.17 62.65-4.75 5.58-9.31 12.17-14.87 16.89-8.7 7.35-19.73 17.23-31 21.79-3.52 1.43-7.89 2-11.61 3.29a66.78 66.78 0 0 0-22.31 12.53c-11.57 9.76-22.27 22.48-31.74 34.32-2.06 2.54-4.87 6.3-7.64 9.84l49.89 38.86c39-46.29 82.16-90.7 113.25-174.25 0 0-10.82 93.06-91.16 189.46-49.33 59.16-91.94 90.16-97.79 96.4 0 0 14.89-2.58 26.06 2 25.93 10.66 39.59 48.36 50.91 75.25 8 19 17 38.27 24.86 57.57 25.82-5.73 43.28-18.4 60.41-32.86 18.46-15.63 35-36.43 50.6-55.06 30.12-35.87 68.65-84.81 114.22-62.45a128.44 128.44 0 0 1 21.7 14c9.23 7.47 16.69 15.12 25.66 22.7 15.74 13.3 23.94 23.71 36.14 30.87-30.95-66.91-54.26-135-80.19-206.84M325.12 608.94C298.59 591.58 263 568 224 543c46.08-17.34 89.46-30.44 136.36-48.15L417.87 534c-44.81 43.61-70.45 59.86-92.75 74.93" style="fill:#fff"/>
</svg>
