<?xml version="1.0" encoding="utf-8"?>
<!-- Generator: Adobe Illustrator 21.0.0, SVG Export Plug-In . SVG Version: 6.00 Build 0)  -->
<svg version="1.1" xmlns="http://www.w3.org/2000/svg" xmlns:xlink="http://www.w3.org/1999/xlink" x="0px" y="0px"
	 viewBox="0 0 1024 1024" style="enable-background:new 0 0 1024 1024;" xml:space="preserve">
<style type="text/css">
	.st0{fill:#3152A0;}
	.st1{fill:#FFFFFF;}
</style>
<g id="Min_Guides__x28_DO_NOT_REMOVE_x29_">
</g>
<g id="Max_Guides__x28_DO_NOT_REMOVE_x29_">
</g>
<g id="Icon">
	<circle id="Background" class="st0" cx="512" cy="512" r="512"/>
	<path id="Matomo_logo__x28_monochrome_edit_by_krisu_x29_" class="st1" d="M622.1,596.5l71.9-112l-0.3-0.2l0,0l0.3,0.2
		c10.3-15.3,16.2-33.7,16.2-53.4c0-2.7-0.1-5.3-0.3-7.9l80.2,122.2c0.3,0.4,0.4,0.7,0.7,1.1l1.5,2.3l-0.1,0.1
		c7.9,12.9,12.5,28,12.6,44.1c0,46.6-37.8,84.4-84.4,84.4c-28.6,0-53.7-14.2-69-35.9l-0.1,0.1l-0.5-0.8c-0.4-0.6-0.8-1.3-1.3-1.9
		 M615.4,586.1l46-71.7h0c-2.5,1.4-5.1,2.8-7.8,4c-0.2,0.1-0.4,0.2-0.5,0.2c-2.5,1.1-5,2.1-7.6,3c-0.5,0.2-0.9,0.3-1.4,0.5
		c-0.7,0.2-1.5,0.5-2.2,0.7c-1,0.3-2.1,0.6-3.2,0.9c-0.6,0.2-1.2,0.3-1.8,0.5c-0.8,0.2-1.6,0.4-2.4,0.6c-0.5,0.1-1,0.2-1.5,0.3
		c-1.2,0.3-2.5,0.5-3.8,0.7c-0.4,0.1-0.9,0.1-1.3,0.2c-1.2,0.2-2.3,0.3-3.5,0.4c-0.2,0-0.5,0.1-0.7,0.1c-1.4,0.1-2.8,0.2-4.2,0.3
		c-0.4,0-0.7,0-1.1,0.1c-1.5,0.1-2.9,0.1-4.4,0.1c-1.6,0-3.2,0-4.8-0.1c-0.5,0-1.1-0.1-1.6-0.1c-1-0.1-2.1-0.1-3.1-0.2
		c-0.6-0.1-1.3-0.1-1.9-0.2c-0.9-0.1-1.9-0.2-2.8-0.4c-0.7-0.1-1.3-0.2-2-0.3c-0.9-0.1-1.7-0.3-2.6-0.5c-0.7-0.1-1.4-0.3-2-0.4
		c-0.8-0.2-1.6-0.4-2.5-0.6c-0.7-0.2-1.4-0.4-2.1-0.5c-0.8-0.2-1.6-0.4-2.4-0.7c-0.7-0.2-1.4-0.4-2.1-0.6c-0.8-0.2-1.5-0.5-2.2-0.8
		c-0.7-0.2-1.4-0.5-2.1-0.8c-0.7-0.3-1.4-0.6-2.1-0.8c-0.7-0.3-1.4-0.6-2.1-0.9c-0.7-0.3-1.3-0.6-2-0.9c-0.7-0.3-1.4-0.7-2.1-1
		c-0.5-0.3-1.1-0.6-1.6-0.8l-0.1-0.2c-0.7-0.4-1.4-0.7-2.1-1.1c-0.5-0.3-1.1-0.6-1.6-0.9c-0.8-0.4-1.5-0.9-2.3-1.3
		c-0.4-0.2-0.7-0.5-1.1-0.7c-2.1-1.3-4.1-2.7-6-4.1c-2.1-1.6-4.2-3.3-6.2-5c-0.2-0.2-0.4-0.3-0.6-0.5c-0.9-0.8-1.7-1.6-2.5-2.4
		c-0.2-0.2-0.4-0.4-0.7-0.6c-0.8-0.8-1.6-1.6-2.4-2.4c-0.2-0.2-0.4-0.5-0.7-0.7c-0.8-0.8-1.5-1.7-2.3-2.5c-0.2-0.2-0.4-0.5-0.6-0.7
		c-0.7-0.9-1.5-1.8-2.2-2.7c-0.2-0.2-0.4-0.4-0.5-0.7c-0.7-0.9-1.4-1.9-2.1-2.8c-0.1-0.2-0.3-0.4-0.4-0.6c-0.7-1-1.4-2-2.1-3.1
		c-0.1-0.1-0.2-0.3-0.3-0.4c-0.7-1.1-1.4-2.2-2.1-3.3c0,0-0.1-0.1-0.1-0.1c-6.5-11.1-10.8-23.6-12.4-36.9c0-0.2,0-0.4-0.1-0.6
		l-38.9-55h-0.1c-14.9-24.1-41.4-40.2-71.9-40.2c-0.1,0-0.1,0-0.2,0c-0.1,0-0.1,0-0.2,0c-30.4,0-57,16.1-71.8,40.2h-0.1L257,509.2
		c13.8-7.7,29.6-12,46.4-12c49,0,89.5,36.9,95.2,84.3l43.9,61.6h0.1c15.3,20.8,40,34.4,67.9,34.4c0.1,0,0.1,0,0.2,0
		c0.1,0,0.1,0,0.2,0c27.9,0,52.5-13.5,67.9-34.4h0.1l0.7-1.1c1.7-2.4,3.3-4.9,4.9-7.6l30.9-48.2l0.1,0.2v0l-0.1-0.2L615.4,586.1
		L615.4,586.1z M529.5,430.9c0,46.7,37.8,84.5,84.5,84.5s84.5-37.8,84.5-84.5s-37.8-84.5-84.5-84.5S529.5,384.2,529.5,430.9z
		 M219,593.1c0,46.6,37.8,84.4,84.4,84.4s84.4-37.8,84.4-84.4s-37.8-84.4-84.4-84.4S219,546.5,219,593.1z"/>
</g>
</svg>
