<svg xmlns="http://www.w3.org/2000/svg" viewBox="0 0 1024 1024">
   <circle cx="512" cy="512" r="512" style="fill:red"/>
   <path data-name="MediaWiki logo (monochrome version by krisu)" d="M408.17 340.57c-.45-3.39-.75-6.81-.91-10.3a94.77 94.77 0 0 1 31.84 32.45c.35.59.68 1.19 1 1.78a32.3 32.3 0 0 1 3.74 8.22 47.93 47.93 0 0 1 2.16 25.11 47.39 47.39 0 0 1-16.63-10.78c-1.21-1.22-2.4-2.54-3.64-4a40.15 40.15 0 0 1-5.38-7.27c-6.35-9.85-10.35-21.38-12.18-35.21zM394 397.79a41.63 41.63 0 0 0 6.84 6c1.51 1.17 2.94 2.19 4.36 3.13a47.4 47.4 0 0 0 18.47 7.08 47.93 47.93 0 0 0-7.34-24.17 35.31 35.31 0 0 0-5.3-7.17c-.45-.53-.9-1.06-1.39-1.58A94.73 94.73 0 0 0 371.76 356c.88 3.38 1.89 6.66 3 9.89 4.68 13.11 10.96 23.59 19.24 31.9zm-21.2 27a51.09 51.09 0 0 0 8 4.52c1.71.82 3.31 1.53 4.88 2.14a47.21 47.21 0 0 0 17 3.15q1.3 0 2.6-.07a47.91 47.91 0 0 0-12.18-22.08 45.4 45.4 0 0 0-6.74-6c-.54-.41-1.08-.83-1.64-1.23a94.77 94.77 0 0 0-42.29-16.7c1.57 3.12 3.23 6.12 5 9 7.25 11.98 15.57 20.88 25.34 27.29zm-15 30.86a53.71 53.71 0 0 0 8.69 2.74c1.86.45 3.58.81 5.26 1.09a47.49 47.49 0 0 0 19.79-1.06A47.92 47.92 0 0 0 375 439.39a49.54 49.54 0 0 0-7.89-4.46c-.6-.29-1.21-.58-1.83-.84a94 94 0 0 0-37.9-7.75c-2.29 0-4.59.07-6.92.22 2.18 2.73 4.43 5.31 6.79 7.79 9.58 10.1 19.56 17.08 30.48 21.33zM349.38 489a52.73 52.73 0 0 0 9.09.87h2.37q1.49 0 3-.07a47.39 47.39 0 0 0 19.16-5.13 47.92 47.92 0 0 0-20.12-15.22 45.7 45.7 0 0 0-8.57-2.7c-.66-.16-1.33-.32-2-.46a95.27 95.27 0 0 0-18.59-1.86 99 99 0 0 0-26.82 3.81c2.7 2.21 5.44 4.27 8.26 6.21 11.45 7.9 22.66 12.65 34.22 14.55zm-4.62 34.4c1.11 0 2.24 0 3.35-.08a53.15 53.15 0 0 0 9.13-1c1.87-.34 3.58-.71 5.22-1.14a47.4 47.4 0 0 0 17.65-9 47.92 47.92 0 0 0-22.83-10.71 52.21 52.21 0 0 0-9-.86h-2.05a94.83 94.83 0 0 0-44 11.35c3.1 1.6 6.21 3 9.37 4.36 11.67 4.68 22.51 7.06 33.16 7.06zm9.36 33.73s6.1-1.81 8.57-2.87a72.07 72.07 0 0 0 4.93-2.23A47.4 47.4 0 0 0 383 539.52a47.88 47.88 0 0 0-22.93-5.76h-1.61a66.15 66.15 0 0 0-9 1c-.66.12-1.32.24-2 .39a94.78 94.78 0 0 0-40.7 20.26c3.37.92 6.71 1.69 10.08 2.31a99.45 99.45 0 0 0 18 1.75 75.44 75.44 0 0 0 19.28-2.37zm92 69.16a47.91 47.91 0 0 0-20.74 14.47 66.33 66.33 0 0 0-5.14 7.21c-.37.61-.74 1.21-1.1 1.85A94.79 94.79 0 0 0 407 693.59c2.95-1.89 5.76-3.86 8.47-5.95 11-8.47 19-17.63 24.36-28a90 90 0 0 0 3.71-8.55c.64-1.78 1.16-3.42 1.6-5a47.4 47.4 0 0 0 1-19.83zm8 29.53a40.1 40.1 0 0 0-3.66 8.43c-.21.61-.43 1.22-.63 1.84a94.78 94.78 0 0 0-2.83 45.36c2.49-2.46 4.83-5 7.05-7.58 9.06-10.61 15-21.26 18-32.57a56.38 56.38 0 0 0 1.81-8.91c.26-1.9.43-3.65.53-5.36a47.39 47.39 0 0 0-3.13-19.58 47.92 47.92 0 0 0-17.13 18.34zm149.59-7.53a48.34 48.34 0 0 0-5.44-7.35 82.183 82.183 0 0 0-3.61-4A47.4 47.4 0 0 0 578 626.17a47.92 47.92 0 0 0 2.14 25.11 34.2 34.2 0 0 0 3.74 8.22c.32.59.65 1.19 1 1.78a94.79 94.79 0 0 0 31.84 32.45c-.16-3.49-.47-6.91-.91-10.3-1.81-13.82-5.81-25.33-12.1-35.17zM630 626.2a39.44 39.44 0 0 0-6.83-6c-1.51-1.17-2.94-2.2-4.37-3.13a47.39 47.39 0 0 0-18.48-7.07 47.93 47.93 0 0 0 7.32 24.13s1.22 2.8 5.36 7.24c.44.52.88 1 1.35 1.54A94.73 94.73 0 0 0 652.24 668c-.88-3.38-1.89-6.66-3-9.89-4.69-13.11-10.96-23.59-19.24-31.91zm21.33-26.91a68.19 68.19 0 0 0-8.24-4.65c-1.65-.79-3.21-1.48-4.74-2.08a47.21 47.21 0 0 0-17-3.15q-1.29 0-2.58.07a47.83 47.83 0 0 0 11 20.76l.49.51c.25.27.49.56.74.82l.47.39a62.5 62.5 0 0 0 7.7 6.64l.18.14a94.77 94.77 0 0 0 42.29 16.7c-1.57-3.12-3.23-6.12-5-9-7.3-11.88-15.55-20.74-25.28-27.15zm14.92-31c-2.55-1-8.7-2.74-8.7-2.74-1.86-.45-3.58-.81-5.25-1.09a47.49 47.49 0 0 0-19.8 1.06 47.89 47.89 0 0 0 16.17 18.83l.28.19.1.07a58.19 58.19 0 0 0 7.85 4.43c.58.28 1.16.55 1.77.81a94 94 0 0 0 37.91 7.75c2.26 0 4.57-.07 6.92-.22-2.18-2.73-4.43-5.31-6.79-7.79-9.54-10.04-19.52-17.03-30.43-21.27zm8.37-33.29a71.4 71.4 0 0 0-9.09-.87h-2.37q-1.49 0-3 .07a47.39 47.39 0 0 0-19.16 5.13 47.92 47.92 0 0 0 20.11 15.22 67.82 67.82 0 0 0 8.58 2.7c.66.16 1.32.32 2 .45a95.26 95.26 0 0 0 18.59 1.86 98.94 98.94 0 0 0 26.82-3.81c-2.7-2.21-5.44-4.27-8.26-6.21-11.45-7.89-22.66-12.64-34.22-14.54zm4.62-34.39c-1.12 0-2.25 0-3.37.08a71.08 71.08 0 0 0-9.1 1c-1.88.34-3.59.71-5.23 1.14a47.38 47.38 0 0 0-17.65 9 47.92 47.92 0 0 0 22.83 10.71 74 74 0 0 0 9 .86h2.05a94.84 94.84 0 0 0 44-11.35c-3.1-1.6-6.21-3-9.37-4.36-11.67-4.69-22.51-7.07-33.16-7.07zm-9.31-33.74a57.78 57.78 0 0 0-8.67 2.9c-1.77.72-3.37 1.45-4.88 2.21a47.39 47.39 0 0 0-15.38 12.5 47.87 47.87 0 0 0 22.93 5.75h1.62a71.2 71.2 0 0 0 9-1c.66-.12 1.32-.25 2-.4a94.8 94.8 0 0 0 40.7-20.25c-3.37-.92-6.71-1.69-10.08-2.31a99.38 99.38 0 0 0-18-1.75 75.48 75.48 0 0 0-19.24 2.36zm-92.07-69.14a47.93 47.93 0 0 0 20.72-14.44 45.77 45.77 0 0 0 5.19-7.28c.36-.59.73-1.19 1.08-1.81A94.78 94.78 0 0 0 617 330.4a111.61 111.61 0 0 0-8.49 6c-11 8.47-19 17.64-24.37 28-1.37 2.52-3.7 8.52-3.7 8.52-.64 1.78-1.16 3.43-1.6 5a47.41 47.41 0 0 0-.98 19.82zm-8-29.54a61.68 61.68 0 0 0 3.65-8.4c.22-.62.44-1.23.63-1.87a94.78 94.78 0 0 0 2.86-45.37c-2.48 2.46-4.82 5-7 7.57-9.07 10.63-15 21.3-18.05 32.62a63.66 63.66 0 0 0-1.79 8.8c-.26 1.91-.44 3.68-.54 5.41a47.4 47.4 0 0 0 3.12 19.58 47.9 47.9 0 0 0 17.14-18.34zM506.11 346a94.77 94.77 0 0 0-15.89-42.59 121.2 121.2 0 0 0-3.35 9.77c-4 13.37-5 25.49-3.23 37.06a56 56 0 0 0 2 8.92c.53 1.83 1.09 3.5 1.68 5.09a47.4 47.4 0 0 0 10.82 16.62 47.91 47.91 0 0 0 8.24-23.87 45.16 45.16 0 0 0-.08-9c-.06-.64-.11-1.33-.19-2zm-.68 315.69a47.38 47.38 0 0 0-7.13-18.49 47.92 47.92 0 0 0-13 21.61 34.19 34.19 0 0 0-1.78 8.78c-.09.68-.18 1.36-.24 2.06a94.77 94.77 0 0 0 6.68 45c1.92-2.92 3.68-5.86 5.31-8.87 6.66-12.27 10.21-23.92 10.87-35.62A34.22 34.22 0 0 0 506 667c-.12-1.89-.31-3.64-.57-5.33zm143.8-222c-1.58 1.08-3 2.12-4.33 3.18a47.39 47.39 0 0 0-12.45 15.41A49.47 49.47 0 0 0 646 460.2a49 49 0 0 0 11.67-1.44 54.68 54.68 0 0 0 8.54-2.86c.63-.26 1.25-.52 1.88-.81a94.77 94.77 0 0 0 35.6-28.27c-2.42-.14-4.81-.21-7.2-.21h-3.14c-13.94.37-25.81 3.11-36.26 8.39a69.76 69.76 0 0 0-7.85 4.67zm-18-26.94a72.305 72.305 0 0 0-3.57 4 47.39 47.39 0 0 0-9 17.67q1.81.12 3.58.12a48.28 48.28 0 0 0 21.2-4.88 42.51 42.51 0 0 0 7.73-4.56c.56-.39 1.13-.78 1.69-1.19a94.77 94.77 0 0 0 28.94-35.05c-3.45.53-6.82 1.18-10.14 2-13.56 3.26-24.59 8.41-33.72 15.74a57.93 57.93 0 0 0-6.75 6.12zM608 390.1c-1.12 1.8-2 3.25-2.69 4.67a47.39 47.39 0 0 0-5.11 19.16 47.92 47.92 0 0 0 23.24-9.8A47.19 47.19 0 0 0 630 398c.47-.49.94-1 1.39-1.51a94.75 94.75 0 0 0 21-40.31c-3.27 1.23-6.42 2.58-9.51 4-12.56 6-22.28 13.34-29.71 22.45a54.37 54.37 0 0 0-5.17 7.47zm-90-33c.14 1.87.33 3.6.58 5.26a47.38 47.38 0 0 0 7.13 18.49 47.92 47.92 0 0 0 13.05-21.66 66.59 66.59 0 0 0 1.76-8.68c.09-.7.18-1.4.25-2.11a94.78 94.78 0 0 0-6.68-45c-1.92 2.92-3.68 5.86-5.32 8.87-6.66 12.26-10.21 23.92-10.87 35.62-.21 2.76.08 9.09.08 9.09zm-45.65-4.3c-.19-.65-.38-1.3-.61-2a94.78 94.78 0 0 0-24.39-38.36c-.57 3.45-1 6.85-1.25 10.26-1.09 13.89.39 26 4.54 36.92 0 0 2.52 6 3.8 8.33.9 1.68 1.79 3.19 2.7 4.62a47.39 47.39 0 0 0 14 14 47.92 47.92 0 0 0 3.13-25 51.9 51.9 0 0 0-1.94-8.79zm-97.57 231.53c1.58-1.07 3-2.12 4.32-3.18a47.39 47.39 0 0 0 12.45-15.41 49.47 49.47 0 0 0-13.55-1.93 49 49 0 0 0-11.71 1.45 55 55 0 0 0-8.45 2.83c-.64.27-1.28.53-1.93.83a94.75 94.75 0 0 0-35.6 28.26c2.42.14 4.82.21 7.21.21h3.13c13.94-.37 25.8-3.11 36.26-8.38a69.46 69.46 0 0 0 7.87-4.68zm18 27c1.32-1.38 2.49-2.69 3.57-4a47.39 47.39 0 0 0 9-17.67q-1.81-.12-3.58-.12a48.29 48.29 0 0 0-21.19 4.88 50.83 50.83 0 0 0-7.75 4.57c-.56.39-1.12.77-1.68 1.19a94.76 94.76 0 0 0-28.94 35.05c3.45-.53 6.82-1.18 10.14-2 13.56-3.26 24.59-8.41 33.72-15.74a59.17 59.17 0 0 0 6.74-6.21zm23.22 22.6c1.11-1.78 2-3.28 2.7-4.7a47.39 47.39 0 0 0 5.11-19.15 47.93 47.93 0 0 0-23.24 9.81A52.93 52.93 0 0 0 394 626c-.47.49-.94 1-1.4 1.51a94.77 94.77 0 0 0-21 40.31c3.27-1.23 6.42-2.58 9.51-4 12.58-6 22.31-13.36 29.75-22.48 1.88-2.34 5.14-7.41 5.14-7.41zm122.38 30.94a67.76 67.76 0 0 0-1.69-5.1 47.4 47.4 0 0 0-10.82-16.62 47.91 47.91 0 0 0-8.25 23.85 31.77 31.77 0 0 0 .08 9c.05.68.11 1.37.19 2.07a94.77 94.77 0 0 0 15.89 42.59 121.2 121.2 0 0 0 3.35-9.77c4-13.37 5-25.51 3.23-37.08a51.32 51.32 0 0 0-1.98-8.94zm31.2-8.85c-.9-1.68-1.79-3.19-2.7-4.62a47.38 47.38 0 0 0-14-14 47.92 47.92 0 0 0-3.13 25 32 32 0 0 0 1.95 8.77c.19.66.39 1.31.61 2a94.78 94.78 0 0 0 24.39 38.36c.57-3.45 1-6.85 1.25-10.26 1.09-13.89-.39-26-4.54-36.92a35.9 35.9 0 0 0-3.83-8.35zM477.2 349c.29.84.53 1.68.78 2.52-2.11-13.27-.62-26.6 3.34-40A133.86 133.86 0 0 1 489 291.8c-8.44-10.76-18.65-20.61-29.88-30.26a173.91 173.91 0 0 0-15.4 39.85c14.88 12.46 26.67 27.47 33.48 47.61zm16.14 46.37a72.17 72.17 0 0 0 5.65-6 53.3 53.3 0 0 1-17.1-23c-.74-2-1.37-3.93-1.94-5.9a54.92 54.92 0 0 1-6.2 34.32 53.28 53.28 0 0 0 8.67 3.31 13.12 13.12 0 0 0 10.92-2.76zm-49.28-35.58c.46.77.87 1.53 1.29 2.3-4.82-12.54-6.13-25.89-5-39.79a134 134 0 0 1 3.37-20.88c-10.5-8.77-22.53-16.29-35.52-23.39a173.93 173.93 0 0 0-6.78 42.19c17.14 9.06 31.8 21.29 42.64 39.54zm25.43 42a72.31 72.31 0 0 0 4.26-7.07 53.3 53.3 0 0 1-21.51-19 76.782 76.782 0 0 1-3.12-5.36 54.92 54.92 0 0 1 1.07 34.84 53.28 53.28 0 0 0 9.17 1.44 13.12 13.12 0 0 0 10.13-4.88zm-55.61-24.55c.62.67 1.19 1.35 1.77 2-7.34-11.27-11.4-24.07-13.23-37.91a133.83 133.83 0 0 1-1-21.13c-12.13-6.4-25.42-11.2-39.64-15.49a173.91 173.91 0 0 0 2.14 42.68c18.7 5.31 35.57 14.23 49.97 29.82zM447.5 413a72.31 72.31 0 0 0 2.7-7.8 53.3 53.3 0 0 1-25-14.08 75.495 75.495 0 0 1-4.2-4.64 54.92 54.92 0 0 1 8.32 33.9 53.29 53.29 0 0 0 9.28-.5 13.12 13.12 0 0 0 8.9-6.88zm-57.37-10.86c-9.51-9.49-16.14-21.15-20.79-34.31a134 134 0 0 1-5.42-20.45c-13.16-3.74-27.21-5.72-42-6.92a174.38 174.38 0 0 0 11 41.31c19.4 1.31 37.76 6.52 55.09 18.79.74.51 1.43 1.05 2.12 1.58zm38.18 26.44a72.29 72.29 0 0 0 1-8.2A53.3 53.3 0 0 1 402 411.8a67.4 67.4 0 0 1-5-3.63 54.91 54.91 0 0 1 15.16 31.4 53.29 53.29 0 0 0 8.95-2.41 13.12 13.12 0 0 0 7.21-8.58zm-60.76.19c.81.35 1.59.72 2.37 1.1-11.26-7.31-20.17-17.34-27.45-29.22a134 134 0 0 1-9.54-18.87c-13.64-.92-27.79.07-42.47 2a173.93 173.93 0 0 0 19.31 38.12c19.23-2.8 38.29-1.52 57.79 6.87zm45.26 19a72.3 72.3 0 0 0-.71-8.23 53.3 53.3 0 0 1-28.56-2.7c-1.94-.76-3.82-1.6-5.65-2.49a54.9 54.9 0 0 1 21.33 27.55 53.27 53.27 0 0 0 8.26-4.22 13.12 13.12 0 0 0 5.33-9.88zm-11.19 22a72.29 72.29 0 0 0-2.4-7.9 53.3 53.3 0 0 1-28.49 3.29c-2.07-.34-4.1-.78-6.09-1.27a54.91 54.91 0 0 1 26.63 22.53 53.28 53.28 0 0 0 7.2-5.85 13.12 13.12 0 0 0 3.16-10.75zm-48.22-9.2c.88.18 1.73.38 2.59.59-12.55-4.8-23.36-12.77-33-22.89a133.78 133.78 0 0 1-13.27-16.47c-13.54 1.93-27.18 5.85-41.14 10.75a174.31 174.31 0 0 0 26.82 33.26c18.3-6.63 37.19-9.34 58.01-5.19zm-4.57 34.13c-13.27-2.09-25.49-7.63-37-15.53a133.72 133.72 0 0 1-16.4-13.36c-12.84 4.7-25.37 11.36-38 19.05a173.76 173.76 0 0 0 33.15 27C307 501.56 325 495 346.19 494.72c.9-.02 1.81.01 2.65.03zm46.44-1.06a72.26 72.26 0 0 0-4-7.23 53.29 53.29 0 0 1-27.18 9.14c-2.1.1-4.16.09-6.21 0a54.92 54.92 0 0 1 30.72 16.5 53.27 53.27 0 0 0 5.83-7.22 13.12 13.12 0 0 0 .85-11.14zM348.77 529c-13.4.71-26.5-2.17-39.37-7.5a133.82 133.82 0 0 1-18.82-9.65c-11.58 7.27-22.45 16.39-33.22 26.55a174 174 0 0 0 38 19.49c14-13.54 30.11-23.7 50.82-28.37.9-.15 1.75-.31 2.6-.46zM394 518.36a72.31 72.31 0 0 0-5.41-6.24 53.31 53.31 0 0 1-24.69 14.59c-2 .53-4 1-6.05 1.31a54.93 54.93 0 0 1 33.46 9.76 53.28 53.28 0 0 0 4.2-8.28 13.12 13.12 0 0 0-1.51-11.14zm3.89 24.39a72.31 72.31 0 0 0-6.58-5 53.3 53.3 0 0 1-21.11 19.4c-1.89.95-3.79 1.79-5.71 2.56a54.93 54.93 0 0 1 34.81 2.56 53.28 53.28 0 0 0 2.39-9 13.12 13.12 0 0 0-3.78-10.52zm-44.39 20.91c.83-.38 1.65-.72 2.47-1.06-13 3.5-26.42 3.41-40.15.87a133.33 133.33 0 0 1-20.42-5.53c-9.82 9.52-18.55 20.7-27 32.87A174.32 174.32 0 0 0 309.69 602c10.83-16.17 24.52-29.47 43.81-38.34zm53.31 2.15a72.3 72.3 0 0 0-7.49-3.5 53.29 53.29 0 0 1-16.61 23.37 80.893 80.893 0 0 1-5 3.67 54.92 54.92 0 0 1 34.55-4.71 53.29 53.29 0 0 0 .47-9.26 13.12 13.12 0 0 0-5.92-9.58zm-39.1 29.67c.72-.54 1.44-1 2.17-1.53-12 6.11-25.12 8.81-39.06 9.18a133.78 133.78 0 0 1-21.13-1.13c-7.62 11.36-13.84 24.11-19.55 37.77a174.11 174.11 0 0 0 42.67 2.33c7.24-18.1 17.87-33.93 34.89-46.62zM390 621.71c-10.43 8.47-22.73 13.84-36.3 17.1a133.86 133.86 0 0 1-20.9 3.25c-5.09 12.69-8.53 26.46-11.27 41a173.94 173.94 0 0 0 42.22-6.59c3.33-19.15 10.43-36.87 24.44-52.82.61-.65 1.22-1.3 1.81-1.94zm30.28-35.22a72.33 72.33 0 0 0-8-1.87 53.3 53.3 0 0 1-11.39 26.32 76.993 76.993 0 0 1-4.14 4.63 54.93 54.93 0 0 1 32.82-11.79 53.28 53.28 0 0 0-1.46-9.16 13.12 13.12 0 0 0-7.82-8.13zm17.49 17.44a72.31 72.31 0 0 0-8.26-.16 53.3 53.3 0 0 1-5.67 28.11c-1 1.89-2 3.68-3.14 5.43a54.91 54.91 0 0 1 29.69-18.4 53.29 53.29 0 0 0-3.34-8.65 13.12 13.12 0 0 0-9.27-6.33zm-23.67 43c.45-.81.93-1.58 1.4-2.35-8.45 10.48-19.37 18.33-32 24.35a133.8 133.8 0 0 1-19.77 7.53c-2.34 13.47-2.84 27.65-2.5 42.45a174 174 0 0 0 39.92-15.22c-.68-19.41 2.58-38.22 12.97-56.69zm30.2 17.4c.26-.82.54-1.61.82-2.41C439 673.87 430 683.76 419 692.23a133.77 133.77 0 0 1-17.78 11.48c.51 13.66 3 27.63 6.39 42a173.85 173.85 0 0 0 35.9-23.18c-4.78-18.83-5.51-37.91.8-58.18zm14.19-47a72.32 72.32 0 0 0-8.1 1.56 53.3 53.3 0 0 1 .3 28.68c-.55 2-1.18 3.93-1.87 5.83a54.91 54.91 0 0 1 25.15-24 53.29 53.29 0 0 0-5.06-7.77 13.12 13.12 0 0 0-10.41-4.27zm19 57.74c.08-.9.2-1.77.32-2.64-3.46 13-10.26 24.57-19.32 35.18a133.7 133.7 0 0 1-15 14.92c3.34 13.26 8.65 26.41 15 39.78a173.81 173.81 0 0 0 30.3-30.15c-8.6-17.42-13.26-35.93-11.31-57.07zm15.16-46.92a13.13 13.13 0 0 0-11.06-2 72.32 72.32 0 0 0-7.6 3.21 53.3 53.3 0 0 1 6.25 28c-.12 2.1-.34 4.16-.63 6.2a54.92 54.92 0 0 1 19.62-28.85 53.28 53.28 0 0 0-6.59-6.54zM511.91 676c-.69 13.43-4.92 26.17-11.58 38.44a133.74 133.74 0 0 1-11.57 17.71c6 12.28 14 24 22.93 35.81A174 174 0 0 0 535 732.2c-12-15.29-20.42-32.42-22.9-53.51-.1-.89-.1-1.77-.19-2.69zM506 630a72.3 72.3 0 0 0-6.78 4.73 53.3 53.3 0 0 1 11.94 26.07c.32 2.08.53 4.14.67 6.19A54.9 54.9 0 0 1 525 634.7a53.29 53.29 0 0 0-7.78-5 13.12 13.12 0 0 0-11.22.3zm24.66-1.34a72.17 72.17 0 0 0-5.65 6 53.3 53.3 0 0 1 17.1 23c.74 2 1.38 3.94 1.94 5.91a54.91 54.91 0 0 1 6.2-34.33 53.28 53.28 0 0 0-8.67-3.32 13.12 13.12 0 0 0-10.92 2.74zM546.8 675c-.29-.85-.53-1.7-.79-2.54 2.12 13.27.62 26.61-3.34 40A133.8 133.8 0 0 1 535 732.2c8.44 10.76 18.65 20.61 29.87 30.26a173.8 173.8 0 0 0 15.4-39.85c-14.86-12.47-26.66-27.47-33.47-47.61zm7.71-52.79a72.36 72.36 0 0 0-4.26 7.07 53.29 53.29 0 0 1 21.5 19 74.54 74.54 0 0 1 3.12 5.36 54.92 54.92 0 0 1-1.07-34.83 53.29 53.29 0 0 0-9.17-1.44 13.12 13.12 0 0 0-10.12 4.87zm25.43 42c-.46-.77-.87-1.54-1.29-2.3 4.82 12.54 6.13 25.89 5 39.79a133.79 133.79 0 0 1-3.37 20.88c10.5 8.77 22.53 16.29 35.51 23.39a173.89 173.89 0 0 0 6.78-42.19c-17.13-9.06-31.79-21.29-42.63-39.54zm30.17-17.45c-.61-.66-1.17-1.32-1.74-2 7.32 11.26 11.38 24.05 13.2 37.88a133.78 133.78 0 0 1 1 21.13c12.09 6.4 25.42 11.25 39.6 15.5a174.06 174.06 0 0 0-2.14-42.69c-18.65-5.28-35.53-14.19-49.93-29.79zM576.5 611a72.27 72.27 0 0 0-2.7 7.81 53.31 53.31 0 0 1 25 14.08c1.47 1.49 2.85 3 4.17 4.6a54.92 54.92 0 0 1-8.3-33.86 53.28 53.28 0 0 0-9.27.5 13.11 13.11 0 0 0-8.9 6.87zm19.17-15.57a72.3 72.3 0 0 0-1 8.2A53.3 53.3 0 0 1 622 612.2c1.76 1.16 3.43 2.38 5 3.64a54.92 54.92 0 0 1-15.17-31.41 53.28 53.28 0 0 0-9 2.41 13.12 13.12 0 0 0-7.16 8.58zm38.19 26.43c9.51 9.49 16.14 21.16 20.8 34.31a133.74 133.74 0 0 1 5.42 20.45c13.16 3.74 27.2 5.71 42 6.92a174 174 0 0 0-11-41.31c-19.39-1.31-37.76-6.52-55.09-18.79-.74-.52-1.43-1.05-2.13-1.59zm-22.67-45.66a72.31 72.31 0 0 0 .71 8.23 53.3 53.3 0 0 1 28.55 2.71c2 .77 3.86 1.62 5.7 2.52a54.91 54.91 0 0 1-21.38-27.58 53.28 53.28 0 0 0-8.26 4.22 13.12 13.12 0 0 0-5.32 9.9zm45.26 19c-.83-.36-1.64-.74-2.44-1.13 11.29 7.31 20.21 17.35 27.51 29.25a133.78 133.78 0 0 1 9.55 18.87c13.64.92 27.79-.07 42.48-2a173.89 173.89 0 0 0-19.31-38.12c-19.24 2.83-38.3 1.55-57.8-6.84zm14.15-31.85c-.88-.18-1.73-.38-2.58-.59 12.55 4.8 23.35 12.77 33 22.89a133.82 133.82 0 0 1 13.27 16.48c13.54-1.93 27.18-5.84 41.14-10.74a174 174 0 0 0-26.82-33.27c-18.3 6.7-37.2 9.41-58.02 5.26zm-48.22-9.2a72.27 72.27 0 0 0 2.4 7.9 53.3 53.3 0 0 1 28.49-3.29c2.07.34 4.09.78 6.08 1.27a54.91 54.91 0 0 1-26.62-22.52 53.28 53.28 0 0 0-7.2 5.85 13.12 13.12 0 0 0-3.16 10.81zm111-42.07C717 522.43 699 529 677.81 529.28h-2.64c13.27 2.09 25.49 7.63 37 15.53a133.81 133.81 0 0 1 16.4 13.36c12.84-4.7 25.37-11.36 38-19.05a173.74 173.74 0 0 0-33.16-27.02zm-104.65 18.23a72.31 72.31 0 0 0 4 7.23 53.3 53.3 0 0 1 27.18-9.14c2.1-.1 4.16-.09 6.21 0a54.93 54.93 0 0 1-30.72-16.5 53.27 53.27 0 0 0-5.83 7.22 13.12 13.12 0 0 0-.84 11.19zM666.14 496a54.93 54.93 0 0 1-33.47-9.75 53.28 53.28 0 0 0-4.2 8.27 13.13 13.13 0 0 0 1.53 11.12 72.31 72.31 0 0 0 5.41 6.24 53.28 53.28 0 0 1 24.69-14.59c2.01-.53 4.03-.96 6.04-1.29zm9.06-1c13.41-.71 26.51 2.17 39.39 7.5a133.73 133.73 0 0 1 18.82 9.65c11.58-7.27 22.45-16.39 33.22-26.55a174 174 0 0 0-38-19.48c-14 13.53-30.11 23.69-50.82 28.37-.9.14-1.75.29-2.61.45zm-49.12-13.7a72.29 72.29 0 0 0 6.59 5 53.3 53.3 0 0 1 21.11-19.41 74.44 74.44 0 0 1 5.66-2.54 54.94 54.94 0 0 1-34.77-2.58 53.28 53.28 0 0 0-2.39 9 13.13 13.13 0 0 0 3.8 10.48zm44.42-20.9c-.81.37-1.62.7-2.43 1 13-3.49 26.39-3.39 40.1-.85a133.84 133.84 0 0 1 20.42 5.53c9.82-9.52 18.55-20.7 27-32.88a174 174 0 0 0-41.27-11.2c-10.84 16.17-24.53 29.47-43.82 38.35zm-53.31-2.15a72.29 72.29 0 0 0 7.48 3.5 53.3 53.3 0 0 1 16.62-23.37c1.64-1.31 3.32-2.53 5-3.67a54.91 54.91 0 0 1-34.56 4.72 53.27 53.27 0 0 0-.47 9.27 13.12 13.12 0 0 0 5.93 9.5zm39.11-29.68c-.72.54-1.45 1-2.17 1.53 12-6.11 25.12-8.81 39.07-9.18a133.79 133.79 0 0 1 21.12 1.08c7.62-11.35 13.84-24.1 19.54-37.76a173.76 173.76 0 0 0-42.67-2.34c-7.24 18.1-17.87 33.93-34.89 46.62zM634 402.29c10.43-8.46 22.73-13.84 36.3-17.1a133.77 133.77 0 0 1 20.9-3.25c5.1-12.69 8.53-26.46 11.27-41a174.05 174.05 0 0 0-42.23 6.59c-3.33 19.15-10.43 36.87-24.44 52.82-.6.65-1.2 1.3-1.8 1.94zm-30.29 35.21a72.29 72.29 0 0 0 8 1.87 53.29 53.29 0 0 1 11.39-26.31c1.33-1.62 2.72-3.16 4.14-4.63a54.92 54.92 0 0 1-32.81 11.79 53.28 53.28 0 0 0 1.46 9.16 13.12 13.12 0 0 0 7.82 8.12zm-17.49-17.44a72.34 72.34 0 0 0 8.26.16 53.3 53.3 0 0 1 5.67-28.11c1-1.87 2-3.65 3.12-5.4a54.93 54.93 0 0 1-29.68 18.37 53.3 53.3 0 0 0 3.33 8.65 13.13 13.13 0 0 0 9.3 6.34zm23.68-43c-.45.8-.92 1.55-1.38 2.32 8.45-10.46 19.35-18.3 32-24.31a133.82 133.82 0 0 1 19.76-7.52c2.34-13.47 2.84-27.65 2.5-42.45a173.89 173.89 0 0 0-39.91 15.21c.67 19.4-2.59 38.21-12.97 56.69zm-30.21-17.4c-.26.83-.54 1.63-.83 2.43 6.09-11.94 15.13-21.83 26.17-30.3a133.78 133.78 0 0 1 17.8-11.49c-.51-13.66-3-27.63-6.39-42a173.65 173.65 0 0 0-35.91 23.19c4.74 18.81 5.47 37.89-.85 58.16zm-14.18 47a72.28 72.28 0 0 0 8.09-1.56 53.31 53.31 0 0 1-.3-28.68c.55-2 1.18-3.94 1.87-5.85A54.9 54.9 0 0 1 550 394.61a53.28 53.28 0 0 0 5.06 7.78 13.12 13.12 0 0 0 10.44 4.25zm-19-57.74c-.08.92-.2 1.81-.32 2.7 3.46-13 10.26-24.61 19.33-35.24a133.55 133.55 0 0 1 15-14.92c-3.34-13.26-8.65-26.41-15-39.79a173.85 173.85 0 0 0-30.29 30.14c8.58 17.45 13.24 35.95 11.29 57.09zm-15.16 46.92a13.12 13.12 0 0 0 11.06 2 72.32 72.32 0 0 0 7.61-3.22 53.3 53.3 0 0 1-6.25-28c.12-2.12.35-4.2.64-6.25a54.91 54.91 0 0 1-19.63 28.89 53.26 53.26 0 0 0 6.58 6.56zM512.09 348c.69-13.43 4.92-26.17 11.58-38.44a133.74 133.74 0 0 1 11.57-17.71c-6-12.28-14-24-22.94-35.8A174 174 0 0 0 489 291.8c12 15.29 20.41 32.42 22.9 53.5.1.9.1 1.78.19 2.7zm5.91 46a72.3 72.3 0 0 0 6.78-4.73 53.29 53.29 0 0 1-11.94-26.07c-.32-2.08-.53-4.14-.67-6.19A54.9 54.9 0 0 1 499 389.3a53.28 53.28 0 0 0 7.78 5A13.12 13.12 0 0 0 518 394z" style="fill:#fff"/>
</svg>
