<svg xmlns="http://www.w3.org/2000/svg" viewBox="0 0 1024 1024">
   <circle cx="512" cy="512" r="512" style="fill:#d9272e"/>
   <path d="M512 256.1c-141.3 0-255.9 114.5-255.9 255.9S370.7 767.9 512 767.9 767.9 653.3 767.9 512 653.3 256.1 512 256.1zm132.8 346.4c0 4.4-3.5 7.9-7.9 7.9h-33.5c-4.4 0-7.9-3.5-7.9-7.9v-103c0-.9-1-1.3-1.7-.7L523 569.6c-6.2 6.1-16.1 6.1-22.2 0L430 498.8c-.6-.6-1.7-.1-1.7.7v102.9c0 4.4-3.5 7.9-7.9 7.9H387c-4.4 0-7.9-3.5-7.9-7.9v-181c0-4.4 3.5-7.9 7.9-7.9h22.9c4.2 0 8.2 1.7 11.2 4.7l88.1 88.1c1.5 1.5 3.9 1.6 5.4.1l.1-.1 88.1-88.1c3-3 6.9-4.7 11.2-4.7h22.9c4.4 0 7.9 3.5 7.9 7.9v181.1z" style="fill:#fff"/>
</svg>
