<?xml version="1.0" encoding="UTF-8" standalone="no"?>
<svg
   xmlns:dc="http://purl.org/dc/elements/1.1/"
   xmlns:cc="http://creativecommons.org/ns#"
   xmlns:rdf="http://www.w3.org/1999/02/22-rdf-syntax-ns#"
   xmlns:svg="http://www.w3.org/2000/svg"
   xmlns="http://www.w3.org/2000/svg"
   viewBox="0 0 1365.3333 1365.3333"
   height="1365.3333"
   width="1365.3333"
   xml:space="preserve"
   id="svg2"
   version="1.1"><metadata
     id="metadata8"><rdf:RDF><cc:Work
         rdf:about=""><dc:format>image/svg+xml</dc:format><dc:type
           rdf:resource="http://purl.org/dc/dcmitype/StillImage" /></cc:Work></rdf:RDF></metadata><defs
     id="defs6"><clipPath
       id="clipPath18"
       clipPathUnits="userSpaceOnUse"><path
         id="path16"
         d="M 0,1024 H 1024 V 0 H 0 Z" /></clipPath></defs><g
     transform="matrix(1.3333333,0,0,-1.3333333,0,1365.3333)"
     id="g10"><g
       id="g12"><g
         clip-path="url(#clipPath18)"
         id="g14"><g
           transform="translate(1024,512)"
           id="g20"><path
             id="path22"
             style="fill:#db202c;fill-opacity:1;fill-rule:nonzero;stroke:none"
             d="m 0,0 c 0,-282.77 -229.23,-512 -512,-512 -282.77,0 -512,229.23 -512,512 0,282.77 229.23,512 512,512 C -229.23,512 0,282.77 0,0" /></g><g
           transform="translate(644.8418,421.5059)"
           id="g24"><path
             id="path26"
             style="fill:#ffffff;fill-opacity:1;fill-rule:nonzero;stroke:none"
             d="m 0,0 c 0.012,-4.369 -3.521,-7.921 -7.89,-7.933 h -0.063 -33.413 c -4.369,-0.011 -7.921,3.521 -7.933,7.89 V 0 102.947 c 0,0.853 -0.98,1.279 -1.706,0.703 l -70.792,-70.792 c -6.162,-6.088 -16.077,-6.088 -22.239,0 l -70.793,70.792 c -0.575,0.576 -1.705,0.15 -1.705,-0.703 V 0 c 0.012,-4.369 -3.521,-7.921 -7.89,-7.933 h -0.042 -33.413 c -4.37,-0.011 -7.921,3.521 -7.933,7.89 V 0 180.967 c 0,4.393 3.54,7.932 7.933,7.932 h 22.943 c 4.203,-0.031 8.225,-1.716 11.195,-4.691 l 88.063,-88.063 c 1.467,-1.531 3.896,-1.583 5.427,-0.118 0.04,0.039 0.079,0.078 0.117,0.118 l 88.064,88.063 c 2.985,2.985 6.929,4.691 11.194,4.691 h 22.923 c 4.392,0 7.932,-3.539 7.932,-7.932 z m -132.842,346.369 c -141.328,0 -255.875,-114.547 -255.875,-255.875 0,-141.328 114.547,-255.875 255.875,-255.875 141.328,0 255.875,114.547 255.875,255.875 0,141.328 -114.547,255.875 -255.875,255.875" /></g></g></g></g></svg>