<?xml version="1.0" encoding="utf-8"?>
<!-- Generator: Adobe Illustrator 21.0.0, SVG Export Plug-In . SVG Version: 6.00 Build 0)  -->
<svg version="1.1" xmlns="http://www.w3.org/2000/svg" xmlns:xlink="http://www.w3.org/1999/xlink" x="0px" y="0px"
	 viewBox="0 0 1024 1024" style="enable-background:new 0 0 1024 1024;" xml:space="preserve">
<style type="text/css">
	.st0{fill:#D9272E;}
	.st1{fill:#FFFFFF;}
</style>
<g id="Guides">
</g>
<g id="Icon">
	<circle class="st0" cx="512" cy="512" r="512"/>
	<g>
		<title>MEGA icon</title>
		<path class="st1" d="M512,256.1c-141.3,0-255.9,114.5-255.9,255.9S370.7,767.9,512,767.9S767.9,653.3,767.9,512
			S653.3,256.1,512,256.1z M644.8,602.5c0,4.4-3.5,7.9-7.9,7.9c0,0,0,0-0.1,0h-33.4c-4.4,0-7.9-3.5-7.9-7.9c0,0,0,0,0,0V499.5
			c0-0.9-1-1.3-1.7-0.7L523,569.6c-6.2,6.1-16.1,6.1-22.2,0L430,498.8c-0.6-0.6-1.7-0.1-1.7,0.7v102.9c0,4.4-3.5,7.9-7.9,7.9
			c0,0,0,0,0,0H387c-4.4,0-7.9-3.5-7.9-7.9c0,0,0,0,0,0v-181c0-4.4,3.5-7.9,7.9-7.9h22.9c4.2,0,8.2,1.7,11.2,4.7l88.1,88.1
			c1.5,1.5,3.9,1.6,5.4,0.1c0,0,0.1-0.1,0.1-0.1l88.1-88.1c3-3,6.9-4.7,11.2-4.7h22.9c4.4,0,7.9,3.5,7.9,7.9L644.8,602.5z"/>
	</g>
</g>
</svg>
