<svg xmlns="http://www.w3.org/2000/svg" viewBox="0 0 1024 1024" style="enable-background:new 0 0 1024 1024" xml:space="preserve">
   <circle cx="512" cy="512" r="512" style="fill:#ffe600"/>
   <path d="m442.9 425.1 16.9-16.9c.1-.1.2-.1.2-.2 4.6-3.2 9.4-6.1 14.7-8.6 3.4-1.6 7-3.1 10.9-4.5 2.2-.7 4.4-1.4 6.8-2.1 2.3-.6 4.8-1.2 7.3-1.7s5.1-1 7.8-1.3c5.4-.8 11.2-1.2 17.5-1.4h5.8c.5 0 1 0 1.5.1.5 0 1.1 0 1.6.1.5 0 1 .1 1.5.1s1.1.1 1.6.1 1 .1 1.5.1c.5.1 1.1.1 1.6.2s1 .1 1.5.2 1 .1 1.6.2c.5.1 1 .1 1.5.2s1 .1 1.5.2 1 .2 1.5.2c.5.1 1 .2 1.5.2l1.5.3 1.5.3 1.5.3c.5.1 1 .2 1.4.3.5.1 1 .2 1.4.3.5.1.9.2 1.4.3.5.1.9.2 1.4.3.5.1.9.2 1.4.3.5.1.9.2 1.4.3.4.1.9.2 1.3.3.4.1.9.2 1.3.3.4.1.9.2 1.3.3.4.1.9.2 1.3.4l1.2.3c.4.1.8.2 1.3.4.4.1.8.2 1.2.4.4.1.8.2 1.2.4.4.1.8.2 1.1.4.4.1.8.2 1.2.4.4.1.7.2 1.1.3.4.1.8.2 1.1.4.3.1.7.2 1 .3.4.1.7.2 1.1.4.3.1.6.2 1 .3.3.1.7.2 1 .4l.9.3.9.3c.3.1.6.2.8.3l.9.3c.3.1.5.2.8.3.3.1.6.2.8.3.2.1.5.2.7.3.2.1.5.2.7.3l.6.3c.2.1.5.2.7.3.2.1.4.1.5.2.2.1.4.2.6.2.2.1.3.1.5.2s.3.1.5.2.3.1.4.2c.1.1.3.1.4.2.1.1.2.1.3.2.1 0 .2.1.3.1.1.1.2.1.3.1.1 0 .1.1.2.1s.1 0 .2.1.2.1.2.1c1.6.8 3.1 1.5 4.7 2.2.2.1.5.2.7.3 1.5.7 3 1.3 4.5 1.9.3.1.6.2.9.4l4.5 1.8c.2.1.4.2.6.2 1.5.6 3 1.1 4.5 1.6.1 0 .2.1.3.1 1.5.5 3.1 1 4.6 1.5.3.1.5.2.8.3 1.5.5 3 .9 4.4 1.3.3.1.6.2.8.2l4.5 1.2c.2 0 .3.1.5.1 1.5.4 2.9.7 4.4 1 .2 0 .3.1.5.1l4.5.9c.3.1.6.1.8.2 1.5.3 2.9.5 4.4.8.3 0 .5.1.8.1 1.5.2 3 .5 4.6.7h.3c1.5.2 3 .4 4.5.5.2 0 .4 0 .6.1 1.5.2 3 .3 4.4.4.3 0 .6 0 .8.1 1.5.1 2.9.2 4.4.3h.7c1.5.1 3.1.1 4.6.2 1.5 0 3.1.1 4.6.1h.6c2.1 0 4.2 0 6.3-.1l6.3-.3h.5c2-.1 3.9-.3 5.8-.5.2 0 .4 0 .6-.1 2-.2 3.9-.4 5.9-.6h.4c2.1-.3 4.1-.5 6.2-.8h.2c2-.3 4-.6 6-1 .2 0 .4-.1.5-.1 1.9-.3 3.8-.7 5.6-1.1.2 0 .4-.1.6-.1 1.9-.4 3.8-.8 5.8-1.3.1 0 .2 0 .3-.1 2-.5 4-.9 5.9-1.5.1 0 .2-.1.3-.1 1.9-.5 3.8-1 5.6-1.5.2-.1.4-.1.6-.2 1.8-.5 3.6-1 5.4-1.6.2-.1.3-.1.5-.2 1.9-.6 3.7-1.2 5.6-1.8.1 0 .1 0 .2-.1 1.9-.6 3.8-1.3 5.7-1.9.1 0 .3-.1.4-.1 1.8-.6 3.5-1.3 5.3-1.9.2-.1.4-.1.6-.2 1.7-.6 3.4-1.3 5.1-2 .2-.1.3-.1.5-.2 1.8-.7 3.6-1.4 5.4-2.2.2.2.4.3.6.5 2 1.6 3.9 3.2 5.8 4.9 1.4 1.2 2.8 2.4 4.1 3.6 2.1 1.9 4.1 3.8 6 5.7 1.1 1.1 2.2 2.1 3.2 3.2 1 1 2 2.1 3 3.1 1.1 1.2 2.2 2.3 3.2 3.5 2.3 2.5 4.4 5 6.5 7.5 1 1.2 2 2.4 2.9 3.6 1.2 1.6 2.5 3.2 3.7 4.8 2.5 3.3 4.8 6.7 7 10.2 2.9 4.6 5.6 9.2 8 14 1.2 2.4 2.4 4.7 3.4 7.1 1.1 2.4 2.1 4.8 3.1 7.2 3.8 9.7 6.6 19.7 8.2 29.8-9.6 2.2-18.9 4.5-27.8 6.8-5.6 1.5-11 2.9-16.3 4.4-3.2.9-6.3 1.8-9.3 2.7l-3 .9-6 1.8c-5.9 1.8-11.5 3.6-16.9 5.3l-2.7.9c-5.3 1.7-10.3 3.5-15.1 5.1-2.4.8-4.7 1.7-6.9 2.5-9.7 3.5-17.9 6.7-24.6 9.4-1.5.6-3 1.2-4.4 1.8-1.4.6-2.7 1.1-3.9 1.6-2.3 1-4.3 1.8-5.9 2.6-7.1-6.2-33.4-29.1-55.8-48.3-27.2-23.4-62.2-53.2-74.9-62.8h-.2c-15.5-11.4-25.1-14.9-34.7-16.7h-.2c-1.8-.3-3.7-.4-5.7-.4-4.6 0-9.8.8-14.2 2.2-10.9 3-25.4 11.5-43.1 25.2l-2.2 1.8c-11.4 9-22.2 17.6-30.3 19.1l-.3.1-.3.1c-2.8.7-5.9 1-9.2 1-9.6 0-18.6-2.9-22.3-5.6l-.4-.3-.5-.3c-.8-.5-1.5-1.1-2.1-2 .2-.3.4-.7.8-1l.2-.2.2-.2 28.8-31.7 3.3-3.3 7.2-6.7zm72.5 216.4c-.5-1.9-1.1-3.6-2-5.3-.4-.8-.9-1.7-1.3-2.5-5.1-8.4-14.3-14-24.8-14-.8 0-1.6.1-2.5.2-.8.1-1.6.2-2.5.4-1.6.3-3.2.8-4.5 1.2-.7.2-1.3.5-1.9.7-.1 0-.2.1-.2.1-.8.3-1.4.5-1.9.7-.5.2-.9.3-1 .3-.3 0-.3-.4-.3-1.1.1-.5.2-1.1.4-1.6.2-.6.4-1.2.6-1.7.1-.3.6-1.4 1-3.1.1-.6.3-1.2.4-1.9s.3-1.5.4-2.3c.1-.8.2-1.6.3-2.5.1-1.3.2-2.7.2-4.2 0-1 0-2-.1-3-.2-2-.5-4-1.2-6-.6-2-1.5-4-2.8-5.8-.3-.5-.6-.9-1-1.4-2.1-2.7-5-5-8.9-6.8-.5-.2-1.1-.5-1.6-.7-.2-.1-.3-.1-.5-.2-.4-.1-.7-.3-1.1-.4-.2-.1-.4-.1-.6-.2-.3-.1-.6-.2-1-.3-.2-.1-.4-.1-.6-.2-.3-.1-.6-.2-.9-.2-.2 0-.4-.1-.5-.1-.3-.1-.7-.1-1-.2-.1 0-.3-.1-.4-.1-.5-.1-.9-.1-1.4-.2h-.2c-.4 0-.8-.1-1.1-.1h-3.3c-.5 0-.9.1-1.4.1h-.3c-.4.1-.7.1-1 .2-.1 0-.2 0-.3.1l-1.2.3h-.1c-.4.1-.7.2-1.1.3-.1 0-.2.1-.3.1l-.9.3c-.1 0-.1 0-.2.1-.4.1-.7.3-1 .4-.1 0-.2.1-.3.1-.3.1-.5.3-.8.4-.1 0-.2.1-.2.1-.3.2-.6.3-.9.5l-.1.1c-.2.1-.5.3-.7.5l-.2.2c-.2.2-.5.3-.7.5 0 0-.1 0-.1.1-.2.2-.5.4-.7.5-.1 0-.1.1-.2.1-.2.1-.3.3-.5.4l-.1.1c-.2.2-.4.3-.5.5l-.1.1-.4.4-.1.1c-.1.2-.3.3-.4.4-.4.4-.7.5-1 .5s-.5-.2-.5-.5v-.4c0-.6-.1-1.4-.2-2.2-.1-.4-.1-.9-.2-1.3-.2-1.1-.6-2.4-1-3.7-.3-.8-.6-1.6-1-2.4-.3-.5-.6-1.1-.9-1.6-.3-.5-.7-1.1-1.1-1.6-1.2-1.6-2.6-3.1-4.4-4.5-.6-.5-1.2-.9-1.9-1.3-1.7-1-3.7-1.9-5.9-2.6-.6-.2-1.1-.3-1.7-.5-.2 0-.3-.1-.5-.1-.4-.1-.9-.2-1.3-.3-.1 0-.2-.1-.4-.1-.5-.1-1.1-.2-1.6-.3-.1 0-.3 0-.4-.1-.4-.1-.8-.1-1.2-.2h-.4c-.5 0-1-.1-1.5-.1h-3.5c-.3 0-.7.1-1 .1h-.4c-.9.1-1.9.3-2.8.5-.1 0-.2.1-.4.1-.3.1-.6.2-1 .3-.1 0-.3.1-.4.1l-.9.3c-.1 0-.2.1-.4.1-.3.1-.7.3-1 .4-.1 0-.1 0-.2.1-.4.2-.8.3-1.2.5 0 0-.1 0-.1.1-.3.2-.7.3-1 .5-.1.1-.2.1-.3.2-.3.1-.5.3-.8.4-.1.1-.2.1-.3.2-.3.2-.5.3-.8.5-.1 0-.2.1-.2.1-.7.4-1.3.9-2 1.3-.1 0-.1.1-.2.1-.3.2-.5.4-.7.6-.1.1-.2.1-.2.2-.2.2-.4.3-.6.5-.1.1-.2.1-.2.2-.2.2-.5.4-.7.6l-.1.1c-.5.5-1 .9-1.5 1.4l-.2.2-.5.5-.2.2-.5.5-.2.2-.5.5v.1l-.1.1c-.2.2-.4.4-.5.6l-.1.1c-.1.2-.3.3-.4.5l-.2.2c-.1.1-.2.3-.3.4 0 .1-.1.1-.1.2-.1.1-.2.2-.3.4l-.1.1c-.1.2-.2.3-.3.5 0-.3-.1-.6-.1-.9-1.8-11.2-11-19.5-23.1-19.5-10 0-18.3 6-21.7 14.7-1 2.6-1.6 5.5-1.6 8.5 0 13.1 10.2 23.2 23.2 23.2 6.5 0 11.6-2.2 16-6.5v.7c-.2 1.5-.5 3.9-.4 6.8 0 .7 0 1.5.1 2.3.1 2 .4 4.1 1 6.2.3 1.3.7 2.6 1.3 3.9.7 1.7 1.6 3.5 2.8 5.2 1.4 2.1 3.3 4.1 5.6 5.9.9.7 1.9 1.4 3 2 1.6 1 3.5 1.8 5.5 2.6.5.2 1 .4 1.4.5.1 0 .2.1.3.1.5.2.9.3 1.4.4h.2l1.2.3h.3c.4.1.9.1 1.3.2h.3c.4 0 .8 0 1.2.1h.4c.5 0 1 0 1.6-.1.2 0 .3 0 .5-.1.5-.1.9-.1 1.4-.2.1 0 .3 0 .4-.1.6-.1 1.1-.3 1.7-.4.1 0 .2-.1.4-.1.4-.1.9-.3 1.3-.5.2-.1.3-.1.5-.2.5-.2.9-.4 1.4-.6.1 0 .2-.1.3-.1.5-.3 1.1-.5 1.6-.8.1-.1.3-.2.4-.2.4-.2.8-.4 1.2-.7.1-.1.3-.2.4-.3.5-.3 1-.6 1.5-1 .2-.2.5-.3.6-.4.1 0 .1-.1.2-.1.1-.1.2-.1.4-.2 0 0 .1 0 .1-.1.1 0 .2-.1.3-.1h.1c.1 0 .2 0 .2.1.1 0 .1.1.1.2s.1.2.1.3v1c0 .3-.1.7-.1 1 0 .4-.1.8-.1 1.2v.6c0 .4 0 .9.1 1.3.1.9.2 1.9.5 2.9.2 1 .6 2.1 1.1 3.2.2.5.5 1.1.8 1.6.3.5.6 1.1 1 1.6.8 1.1 1.7 2.2 2.8 3.2.6.5 1.2 1.1 1.8 1.6 2.3 1.8 5.2 3.5 8.8 4.9.4.2.8.3 1.3.5.1 0 .3.1.4.1.3.1.6.2.8.3.2 0 .3.1.4.1.3.1.5.1.8.2.1 0 .3.1.4.1.3.1.5.1.8.2.1 0 .3.1.4.1.3.1.6.1.9.2h.2c.4.1.7.1 1.1.1h.3c.2 0 .5 0 .7.1h2.4c.4 0 .7-.1 1-.1h.3c.3 0 .5-.1.8-.1h.2c.3-.1.6-.1 1-.2h.2c.3-.1.5-.1.8-.2.1 0 .2-.1.3-.1.3-.1.5-.2.8-.3h.1c.3-.1.6-.2.8-.4.1 0 .1-.1.2-.1l.6-.3c.1 0 .1-.1.2-.1.3-.1.5-.3.8-.4.1 0 .1-.1.2-.1.2-.1.4-.2.6-.4.1 0 .1-.1.2-.1.2-.1.4-.3.7-.5.2-.2.4-.3.7-.5.1 0 .1-.1.2-.1.2-.1.3-.3.5-.4l.1-.1c.2-.2.4-.3.6-.5l.1-.1c.2-.1.3-.3.5-.4l.1-.1c.2-.2.4-.3.5-.5l.5-.5.1-.1c.2-.1.3-.3.5-.3h.1c.1-.1.2-.1.4-.2h.1c.1 0 .2-.1.3-.1h.3s.1 0 .1.1l.1.1s.1.1.1.2.1.2.1.3v.1c0 .1 0 .2.1.3v1.7c.1 1.9.4 3.8.8 5.6.5 1.8 1.1 3.5 1.9 5.2.8 1.6 1.7 3.2 2.8 4.7 1.1 1.5 2.3 2.8 3.6 4.1.7.6 1.3 1.2 2.1 1.8 1.4 1.1 2.9 2.1 4.6 3 .8.4 1.6.8 2.5 1.2 1.3.5 2.6 1 3.9 1.3.9.2 1.8.4 2.7.5 1.4.2 2.8.3 4.2.3 6.6 0 12.8-2.3 17.7-6 .3-.2.5-.4.8-.6.7-.6 1.4-1.2 2.1-1.9 1-1 1.9-2 2.7-3.2.3-.4.5-.8.8-1.1 1.3-1.9 2.4-4 3.2-6.2 1.1-3.1 1.8-6.5 1.8-9.9.1-2.7-.3-5.1-.9-7.4zm180.2-68.6c-.9-1.8-2.9-3.5-2.9-3.5l-4.3-3.7c-2.2-1.9-5.8-5-10.5-9.1-27.2-23.6-99.3-86.2-118.5-100.5-11.2-7.9-17.6-11.7-22.5-13.4-2.8-.7-5.7-1.4-9.4-1.4s-7.6.7-11.9 2l-.2.1-.2.1c-9.6 2.6-20.7 11.3-31.4 19.8-1.2.9-2.3 1.8-3.5 2.7-13.1 10.7-27 21.3-38.9 24.1h-.2c-5.2 1.1-10.5 1.7-15.8 1.7-15.1 0-27.8-4.7-33.9-12.6l-.1-.1-.1-.1c-4.9-6.5-3.9-15.5 2.3-22l28.1-31 .2-.2.2-.2c2.8-2.8 5.6-5.6 8.4-8.3-4.5.8-8.9 1.8-13.3 2.8-3.3.8-6.6 1.6-9.8 2.4-2 .5-4 1.1-6 1.6-1.3.3-2.7.7-4 1-2 .5-3.9 1-5.8 1.4-3.2.7-6.4 1.2-9.6 1.5-1.3.1-2.5.2-3.8.3h-1.9c-4.3 0-27.6-3.6-31.9-5.1-2.5-.7-5-1.4-7.5-2-1.6-.5-3.3-.9-4.9-1.4-2.4-.7-4.9-1.4-7.3-2.1-1.6-.5-3.3-1-4.9-1.5-.8-.3-1.6-.5-2.5-.8-2.5-.8-4.9-1.6-7.4-2.4-1.7-.5-3.3-1.1-5-1.7-2.5-.9-5.1-1.8-7.7-2.8-1.8-.7-3.5-1.3-5.3-2-1.2-.4-2.3-.9-3.5-1.4-1.3-.5-2.6-1-4-1.6-.7-.3-1.3-.5-2-.8-2.4-1-4.9-2-7.5-3.1-1.3-.5-2.6-1.1-3.9-1.7-3.7-1.6-7.6-3.3-11.6-5.2-3.9 2.9-7.6 5.9-11.3 9s-7.2 6.2-10.6 9.3c-1.1 1-2.2 2.1-3.3 3.2-2.2 2.1-4.4 4.3-6.4 6.5-2.1 2.2-4.1 4.4-6.1 6.6-2 2.2-3.9 4.5-5.7 6.8-1.9 2.3-3.6 4.6-5.4 6.9-.9 1.2-1.7 2.3-2.5 3.5-2.5 3.5-4.8 7.1-7 10.8-1.5 2.4-2.8 4.9-4.2 7.3-7.3 13.6-12.4 27.8-15.1 42.5 5.8 1.5 16 4.4 19.6 5.1 25 5.6 45.5 11.2 62.1 16.6 2.9.9 5.8 1.9 8.5 2.8 8.1 2.8 15.2 5.5 21.3 8 3.1 1.3 6 2.5 8.6 3.7.8.4 1.7.8 2.5 1.1 5.5 2.6 10.1 4.9 13.7 6.9l2.1 1.2c.3.2.7.4 1 .6 1 .6 2 1.2 2.9 1.8.3.2.5.3.8.5.3.2.6.4.8.6.2.2.5.3.7.5.3.2.7.5 1 .7.3.2.5.4.7.5.1.1.2.1.3.2.3.2.6.5.9.7 6.4-6.9 15.5-11.1 25.9-11.1 10.9 0 20.6 4.7 27 12.3 5.8-3.8 13.3-6.7 22.4-6.7 4.5 0 9.1.7 13.6 2.2 10.1 3.1 16.4 9.2 20.2 15.6 3.3-1.1 6.9-1.7 10.9-1.7 5.7 0 11.6 1.4 17.5 4 9 4.1 15.5 11 18.7 20 2 5.7 2.5 11.5 2.3 16.7 22.3.3 40.4 18.6 40.4 41 0 6.8-1.7 13.2-4.6 18.9.3.1.6.3.9.4.2.1.5.2.7.3.3.2.7.3 1 .5.3.1.5.2.8.3.3.1.7.3 1.1.4.3.1.5.2.8.3.4.2.7.3 1.1.5.3.1.6.2.8.3.4.1.8.3 1.2.4.3.1.6.2.8.3.4.2.9.3 1.4.4.3.1.5.2.8.3.6.2 1.2.4 1.9.5.1 0 .2.1.3.1.7.2 1.5.4 2.2.5.2 0 .5.1.7.1.5.1 1.1.2 1.6.3.3 0 .6.1.9.1.5.1 1 .1 1.4.2.3 0 .6.1 1 .1.5 0 .9.1 1.4.1h3.1c.7 0 1.5-.1 2.2-.2 1.3-.2 2.4-.4 3.5-.6 1.1-.2 2-.5 2.9-.7.9-.3 1.7-.5 2.4-.8 1.1-.4 2-.9 2.8-1.3.5-.3 1-.6 1.4-.9.4-.3.8-.6 1.1-.9.5-.4.8-.9 1.1-1.3.2-.5.5-.9.8-1.4.1-.2.2-.4.3-.5.2-.4.3-.9.3-1.3s-.2-.7-.6-1.1l-13.4-14.9-13.3-14.8s-2.9-2.9-3.2-4.7c-.1-.4 0-.8.3-1.1.1-.1.2-.2.3-.2 0 0 .1 0 .1-.1.1 0 .1-.1.2-.1h.6c.2 0 .3 0 .5.1h.1c.2 0 .3.1.5.2h.1l.6.3s.1 0 .1.1c.2.1.3.2.5.3h.1c.2.1.4.2.6.4l.1.1c.2.1.4.2.6.4h.1c.2.1.4.3.6.4.2.1.4.3.7.4 1.3 1.1 2.6 2.2 3.9 3.4 1.8 1.6 3.5 3.1 5.2 4.7 1.3 1.2 2.6 2.4 3.8 3.6 1.3 1.2 2.5 2.4 3.6 3.5 2.4 2.3 4.5 4.4 6.4 6.3 4 4 6.7 6.8 6.7 6.8l.5.5c.6.5 1.8 1.4 3.9 2.2.3.1.5.2.9.3.6.2 1.3.4 2 .6.3 0 .6.1.9.1h5.1c.3 0 .6-.1 1-.1h.4c.3 0 .6-.1.9-.1.1 0 .3 0 .4-.1.3-.1.7-.1 1-.2h.3c.4-.1.9-.2 1.3-.3.1 0 .2-.1.3-.1.3-.1.7-.2 1-.3.1 0 .3-.1.4-.1l.9-.3c.1 0 .3-.1.4-.1.4-.1.8-.3 1.1-.4.1 0 .1 0 .2-.1.4-.2.9-.4 1.3-.6.1-.1.3-.1.4-.2.3-.2.6-.3.9-.5.1-.1.3-.2.4-.2.3-.2.6-.3.8-.5.1-.1.3-.2.4-.2.4-.3.8-.5 1.1-.8.7-.7 1.6-1.5 2.5-2.2.4-.4.8-.7 1.1-1.1.2-.2.3-.4.5-.5.1-.2.2-.4.3-.5.2-.3.4-.6.6-.8.6-.9 1-1.8 1.4-2.7.1-.4.3-.7.3-1.1.1-.3.2-.7.2-1 .1-.5.2-1 .2-1.5.1-1.3-.1-2.5-.3-3.5-.1-.4-.2-.7-.3-1.1 0-.1-.1-.2-.1-.3-.3-1.1-.8-2-1.2-2.8-.8-1.6-1.6-2.5-1.6-2.5l-31.2-34.8-.7-.7c-.1-.1-.2-.2-.3-.4-.2-.3-.5-.5-.7-.8-.2-.3-.5-.6-.7-.9-.1-.2-.2-.3-.3-.5-.4-.6-.6-1.3-.6-1.8 0-.3.1-.5.3-.7.1-.1.2-.2.3-.2 0 0 .1 0 .1-.1.1 0 .1-.1.2-.1h.1c.1 0 .1 0 .2-.1h.3c.2 0 .3 0 .5.1h.1c.2 0 .3.1.5.2h.1l.6.3.1.1c.2.1.4.2.5.3h.1c.2.1.4.2.6.4.1 0 .1.1.2.1.2.1.4.2.5.4h.1c.2.1.4.3.6.4.2.2.5.3.7.5.6.5 1.3 1 1.9 1.6 3.3 2.7 7 6.1 10.8 9.7.8.7 1.5 1.5 2.3 2.2 3.1 3 6.3 6.3 9.6 9.6 4.1 4.1 8.2 8.3 12.3 12.4l.3.3s.1 0 .1.1c.1.1.2.1.3.2l.1.1c.1.1.2.1.3.2 0 0 .1.1.2.1.1.1.3.2.4.3 0 0 .1 0 .1.1.2.1.4.2.6.4 0 0 .1 0 .1.1.2.1.3.2.5.3.1 0 .2.1.2.1.2.1.3.2.5.2.1 0 .2.1.3.1.2.1.4.2.6.2.1 0 .2.1.2.1.3.1.6.2.8.3l.9.3c.1 0 .2.1.3.1.2.1.5.1.7.2.1 0 .2.1.4.1s.4.1.7.2c.1 0 .2 0 .3.1.3 0 .5.1.8.1.1 0 .2 0 .3.1.4.1.7.1 1.1.1h.2c.3 0 .6.1.9.1h3.1c.3 0 .7-.1 1-.1h.3c.3 0 .5-.1.8-.1.1 0 .2 0 .4-.1.3 0 .5-.1.8-.2.1 0 .2 0 .3-.1.4-.1.8-.2 1.1-.3h.1c.4-.1.7-.2 1.1-.3.1 0 .2-.1.4-.1.3-.1.6-.2.8-.3.1 0 .3-.1.4-.1.3-.1.6-.3 1-.4.1 0 .2-.1.3-.1l1.2-.6c.1 0 .2-.1.3-.2.3-.2.6-.3 1-.5.1-.1.3-.1.4-.2.3-.2.6-.3.9-.5.1-.1.3-.1.4-.2.4-.3.9-.5 1.3-.8 1.2-.8 2.3-1.7 3.3-2.6s1.9-1.7 2.6-2.6c.5-.5.9-1.1 1.3-1.6.8-1.1 1.5-2.2 2-3.3.4-.8.7-1.7 1-2.5.3-.8.5-1.6.6-2.4.1-.4.1-.8.1-1.2 0-.4 0-.8.1-1.2 0-.8 0-1.5-.1-2.2 0-.5-.1-.9-.2-1.3-.2-.9-.4-1.7-.7-2.5-.3-.8-.6-1.6-1-2.4-.2-.4-.4-.7-.5-1.1-.4-.7-.8-1.3-1.2-1.9-1.5-2.4-3-3.8-3-3.8l-42.1-42.8s-4.4-3.6-2.9-5.8c.1-.1.2-.2.3-.2h.1c.1 0 .1-.1.2-.1h.6c.2 0 .3 0 .5.1h.1c.2 0 .3.1.5.1h.1l.6.3s.1 0 .1.1c.2.1.4.2.5.3h.1c.2.1.4.2.6.4 0 0 .1.1.2.1.2.1.4.2.6.4.2.1.4.3.6.4.2.1.4.3.6.4.9.7 1.8 1.5 2.8 2.4 1 .9 2.1 1.8 3.3 2.8.6.5 1.2 1 1.8 1.6 1.2 1.1 2.5 2.2 3.8 3.3.6.6 1.3 1.2 2 1.8 1.3 1.2 2.7 2.4 4.1 3.7l6.3 5.7c4.2 3.8 8.3 7.5 12 10.9.6.6 1.2 1.1 1.8 1.7 7.1 6.5 12.2 11.2 12.2 11.2h.2c.1 0 .1.1.2.1h.1c.1 0 .2.1.3.1.1.1.3.2.5.3h.1c.1.1.3.2.4.2.1 0 .1.1.2.1.2.1.3.2.5.2 0 0 .1.1.2.1.2.1.5.2.7.3h.1c.2.1.4.2.7.3.1 0 .2.1.2.1l.6.3c.1 0 .2.1.3.1.6.2 1.3.4 2 .6.1 0 .2.1.3.1.3.1.5.1.8.2.1 0 .2 0 .4.1.3.1.6.1.9.2h.2c.4.1.8.1 1.2.2h.3c.3 0 .6.1 1 .1h3.6c.4 0 .8-.1 1.2-.1.2 0 .3 0 .4-.1.5-.1 1.1-.2 1.6-.3.5-.1 1.1-.3 1.7-.4.2 0 .3-.1.5-.1.5-.1.9-.3 1.4-.5.1 0 .3-.1.4-.1.6-.2 1.2-.5 1.8-.7.1-.1.3-.1.4-.2.5-.2 1-.5 1.5-.7.2-.1.3-.2.5-.3.6-.3 1.2-.7 1.9-1.1 1.5-1 2.9-2 4.1-3.2.1-.1.3-.3.4-.5.3-.4.7-1 1.2-1.8 4.6-8.3 2-15.4.3-18.7z" style="fill:#fff"/>
</svg>
