<svg xmlns="http://www.w3.org/2000/svg" viewBox="0 0 1024 1024">
   <circle cx="512" cy="512" r="512" style="fill:#2dbcaf"/>
   <path d="M267.18 416.85a10.32 10.32 0 0 1-4-.78 10 10 0 0 1-5.26-13.21A276.5 276.5 0 0 1 512 235.5a273.58 273.58 0 0 1 114.41 24.74 10.07 10.07 0 0 1-8.28 18.36 256.53 256.53 0 0 0-341.66 132.09 10 10 0 0 1-9.29 6.16Zm25.08 255.79a10 10 0 0 1-8.28-4.37A274.67 274.67 0 0 1 235.5 512a278.46 278.46 0 0 1 7.72-65.37 10.09 10.09 0 1 1 19.59 4.81 261.26 261.26 0 0 0-7.16 60.56 255.3 255.3 0 0 0 44.89 145 10.06 10.06 0 0 1-2.54 14 10.88 10.88 0 0 1-5.74 1.64ZM512 788.5a274.46 274.46 0 0 1-196.24-81.72A10.05 10.05 0 0 1 330 692.56a256.61 256.61 0 0 0 319.6 35.82 258.34 258.34 0 0 0 92.89-103.88 10 10 0 0 1 18 8.84A276.45 276.45 0 0 1 512 788.5Zm255.68-191.2a8.14 8.14 0 0 1-2.8-.45 10.07 10.07 0 0 1-6.83-12.54 256.4 256.4 0 0 0-98-281.54 10 10 0 1 1 11.64-16.34 278.69 278.69 0 0 1 84.85 96.72A276.64 276.64 0 0 1 777.31 590a10 10 0 0 1-9.63 7.3ZM585.32 312.85a11.72 11.72 0 0 1-3.36-.56c-5-1.79-10.3-3.36-15.45-4.81a10.07 10.07 0 0 1 5.16-19.48c5.71 1.57 11.42 3.25 16.9 5.26a10 10 0 0 1 6.16 12.87 9.84 9.84 0 0 1-9.4 6.72Zm-197.13 25.41a10.12 10.12 0 0 1-5.71-18.47A231 231 0 0 1 512 280.28c8.17 0 16.34.45 24.52 1.23a10.08 10.08 0 0 1-2.13 20 213.64 213.64 0 0 0-140.6 34.93 9.51 9.51 0 0 1-5.6 1.82Zm-38.73 33.25a9.94 9.94 0 0 1-6.83-2.69 10.08 10.08 0 0 1-.56-14.22c4-4.37 8.4-8.62 12.76-12.76a10.06 10.06 0 0 1 13.66 14.78c-4 3.69-7.95 7.61-11.64 11.64a10.2 10.2 0 0 1-7.39 3.25Zm-58 128.85h-1a10.12 10.12 0 0 1-9.07-11 231.83 231.83 0 0 1 39.29-108 10.06 10.06 0 1 1 16.57 11.42 210.18 210.18 0 0 0-35.82 98.62 10 10 0 0 1-9.96 8.96Zm.56 49a10 10 0 0 1-10-8.84c-.78-6-1.23-12.09-1.57-18.25a10.08 10.08 0 1 1 20.15-.9c.22 5.6.67 11.19 1.34 16.68a10.06 10.06 0 0 1-8.73 11.19 4.59 4.59 0 0 1-1.23.11Zm114.85 167.8a9.64 9.64 0 0 1-4.81-1.23c-55.64-30.11-97.17-82.17-113.62-143.06a10 10 0 0 1 19.37-5.26 213 213 0 0 0 103.78 130.66 10 10 0 0 1 4 13.66 9.7 9.7 0 0 1-8.7 5.26Zm42.31 17.46a8.14 8.14 0 0 1-2.8-.45c-4.37-1.34-8.84-2.8-13.21-4.37a10.06 10.06 0 1 1 6.83-18.88c3.92 1.46 8.06 2.8 12.09 3.92a10.12 10.12 0 0 1-2.91 19.81Zm62.8 9.07a234.8 234.8 0 0 1-33.25-2.35 10.07 10.07 0 0 1 2.91-19.93 214.6 214.6 0 0 0 95.82-8.17 10.05 10.05 0 0 1 6.16 19.14A231.62 231.62 0 0 1 512 743.72Zm96-21.83a10.07 10.07 0 0 1-4.37-19.14c5-2.46 10.07-5 14.89-7.95a10.06 10.06 0 1 1 10.19 17.35 174.75 174.75 0 0 1-16.34 8.62 9.05 9.05 0 0 1-4.37 1.12Zm41.08-25.75a10.24 10.24 0 0 1-7.95-3.81 10 10 0 0 1 1.68-14.1 210.31 210.31 0 0 0 80.6-166.12 217.67 217.67 0 0 0-2-29.66 10.12 10.12 0 0 1 20-2.8 242.11 242.11 0 0 1 2.24 32.46 230.41 230.41 0 0 1-88.32 182 10.47 10.47 0 0 1-6.27 2Zm75.34-237.32a9.94 9.94 0 0 1-9.63-7.16 198.11 198.11 0 0 0-11.64-30.22 10.09 10.09 0 1 1 18.25-8.62A247 247 0 0 1 734.21 446a10.07 10.07 0 0 1-6.83 12.54 13.68 13.68 0 0 1-2.91.34Zm-29.78-62.35a10 10 0 0 1-8.28-4.37 212.45 212.45 0 0 0-72.09-65.37 10 10 0 1 1 9.74-17.58A234.71 234.71 0 0 1 703 380.69a10.08 10.08 0 0 1-8.28 15.78Zm-13.77 67.84a10.19 10.19 0 0 1-9.52-6.83 168.84 168.84 0 0 0-119.7-109.11 10.09 10.09 0 1 1 4.81-19.59A189 189 0 0 1 690.55 451a10 10 0 0 1-6.27 12.76 11.72 11.72 0 0 1-3.36.56ZM482.45 346a10.09 10.09 0 0 1-1.68-20 187.06 187.06 0 0 1 36.23-2.51 10.08 10.08 0 0 1-.45 20.15 166.14 166.14 0 0 0-32.46 2.24 8.47 8.47 0 0 1-1.68.11ZM337.82 483a15.17 15.17 0 0 1-2.24-.22 10 10 0 0 1-7.61-12A188.58 188.58 0 0 1 441.7 337a10.07 10.07 0 1 1 7.5 18.69 168.25 168.25 0 0 0-101.64 119.48 9.92 9.92 0 0 1-9.74 7.83ZM334 536.29a10.2 10.2 0 0 1-10.06-9.29c-.45-4.93-.56-10.07-.56-15 0-2.69 0-5.37.11-7.95a10.08 10.08 0 1 1 20.15.9c-.11 2.35-.11 4.7-.11 7.16 0 4.48.22 9.07.56 13.43a10.06 10.06 0 0 1-9.29 10.86 1.66 1.66 0 0 0-.8-.11Zm120.8 154.93a11 11 0 0 1-3.25-.56 189.25 189.25 0 0 1-121.91-130.19 10.07 10.07 0 0 1 19.48-5.15 168.74 168.74 0 0 0 108.81 116.2 10 10 0 0 1 6.27 12.76 9.7 9.7 0 0 1-9.4 6.94Zm47.2 9.07h-.56a211.3 211.3 0 0 1-16.57-1.68 10.07 10.07 0 0 1 2.91-19.93c4.93.67 9.85 1.23 14.78 1.46a10.08 10.08 0 0 1-.56 20.15Zm31.46-1a10.05 10.05 0 0 1-1.12-20 166.9 166.9 0 0 0 86.42-36.94 10.1 10.1 0 0 1 12.87 15.56 187 187 0 0 1-96.83 41.31 5.92 5.92 0 0 1-1.34.11Zm114.63-61.79a10 10 0 0 1-7.61-16.57c3.25-3.81 6.38-7.95 9.29-12a10 10 0 1 1 16.46 11.53c-3.25 4.59-6.72 9.18-10.41 13.43a9.74 9.74 0 0 1-7.72 3.58Zm26.53-41.75a11 11 0 0 1-4.14-.9 10.17 10.17 0 0 1-5-13.32 166.64 166.64 0 0 0 15-69.52 179.63 179.63 0 0 0-1.23-20.49 10.09 10.09 0 0 1 20-2.35 193.86 193.86 0 0 1 1.37 22.83 186 186 0 0 1-16.79 77.8 10 10 0 0 1-9.18 5.93Zm-42.73-138.27a10 10 0 0 1-8.84-5.26 124.91 124.91 0 0 0-18.58-26 10.06 10.06 0 0 1 14.78-13.66 145.35 145.35 0 0 1 21.49 30 10.1 10.1 0 0 1-4 13.66 11 11 0 0 1-4.81 1.23Zm-47.8-50.93a9.64 9.64 0 0 1-5.37-1.57A124.93 124.93 0 0 0 512 386a126.5 126.5 0 0 0-65 18 10.12 10.12 0 1 1-10.41-17.35 146.25 146.25 0 0 1 152.8 1.23 10.13 10.13 0 0 1 3.25 13.88 9.89 9.89 0 0 1-8.51 4.81Zm-180 32.58a10.08 10.08 0 0 1-7.95-16.23 135.59 135.59 0 0 1 11.19-12.9 10.05 10.05 0 1 1 14.44 14 128.78 128.78 0 0 0-9.63 11.08 10.17 10.17 0 0 1-8.06 4Zm-21.83 124.48a10.14 10.14 0 0 1-9.63-7.05 146.57 146.57 0 0 1 4.25-100.75 10.08 10.08 0 1 1 18.58 7.84 127 127 0 0 0-3.69 86.87 10.09 10.09 0 0 1-6.49 12.65 13.12 13.12 0 0 1-3.02.44Zm24.07 44.22a10.07 10.07 0 0 1-7.84-3.69 148.17 148.17 0 0 1-10-13.77 10.06 10.06 0 0 1 17-10.75 110.39 110.39 0 0 0 8.62 11.87 10.22 10.22 0 0 1-1.46 14.22 11.46 11.46 0 0 1-6.38 2.13ZM512 658.2a145.5 145.5 0 0 1-88.32-29.66 10.06 10.06 0 0 1 12.2-16 127.14 127.14 0 0 0 93.25 24.4 10.05 10.05 0 1 1 2.69 19.93A147.31 147.31 0 0 1 512 658.2Zm49.93-9.4a10.09 10.09 0 0 1-3.69-19.48 130.58 130.58 0 0 0 25.3-13.43A10.06 10.06 0 1 1 595 632.45 147.3 147.3 0 0 1 565.62 648a8.78 8.78 0 0 1-3.69.78Zm52.39-36.94a9.9 9.9 0 0 1-6.6-2.46 10.09 10.09 0 0 1-.9-14.22A126.08 126.08 0 0 0 638.16 512a122.24 122.24 0 0 0-3.47-29.33 10.06 10.06 0 0 1 19.59-4.59 144.3 144.3 0 0 1 3.92 34 146 146 0 0 1-36.27 96.38 10.2 10.2 0 0 1-7.61 3.36Z" style="fill:#fff"/>
</svg>
