<svg viewBox="0 0 1024 1024" xmlns="http://www.w3.org/2000/svg">
  <circle id="Background" cx="512" cy="512" r="512" style="fill:#0043ce"/>
  <path d="m567.15 767.76-109.73.197-.306-167.2c2.476-45.16-24.606-80.642-69.97-82.355-27.467-1.037-71.68 21.334-69.668 79.56 3.35 19.815 16.198 40.633 34.292 51.087 8.772 4.4 19.18 7.434 31.154 9.14 1.47.094 2.97.15 4.494.161v.408l.622.072-.25 109.25-.175-.01v.005c-118.54-2.65-181.33-97.226-179.88-186.43l-.01-5.299c-.017-1.373-.019-2.708-.007-3.998-.026-20.205-.064-38.184-.128-63.49-.002-1.106.015-2.232.052-3.387l-.153-73.96c2.082-97.125 81.506-175.44 179.18-175.61 94.86-.17 172.77 73.417 179.41 166.64l.462.228c21.446-9.118 45.029-14.177 69.786-14.222l1.16-.001c98.557.448 178.52 80.515 178.7 179.22l.066 47.777c.116 83.272.096 104.37.257 131.77l-109.73.197-.33-180.44c-1.08-36.755-28.98-65.878-65.287-68.8l-9.705.017-.45.044c-3.135.33-6.254.817-9.33 1.516a72.554 72.554 0 0 0-16.56 5.916 69.686 69.686 0 0 0-18.356 13.348c-8.099 8.215-14.063 18.48-17.231 29.572a70.281 70.281 0 0 0-2.375 12.591 75.315 75.315 0 0 0-.327 6.94zM317.03 466.95c14.324-.026 25.972 11.584 25.997 25.904.026 14.324-11.58 25.976-25.904 26.002-14.324.026-25.972-11.584-25.997-25.909-.026-14.319 11.58-25.972 25.904-25.997z" style="fill:#fcfcfc" />
</svg>
