<svg xmlns="http://www.w3.org/2000/svg" viewBox="0 0 1024 1024">
   <circle cx="512" cy="512" r="512" style="fill:#88bd0a"/>
   <path d="M182.32 419a24.53 24.53 0 0 0-24.56 24.56v92a24.37 24.37 0 0 0 24.56 24.56 24.71 24.71 0 0 0 24.77-24.56v-16.73c.05-3.62 3.78-2.67 5.67 0a23.25 23.25 0 0 0 19.73 11.33c8.71 0 16-4.34 19.73-11.34 1.43-1.69 5.46-4.56 5.88 0v16.72a24.36 24.36 0 0 0 24.56 24.56 24.71 24.71 0 0 0 24.77-24.56v-92a23.23 23.23 0 0 0-4.61-14.06 22.86 22.86 0 0 0-11.55-9 25.19 25.19 0 0 0-8.4-1.47 24.49 24.49 0 0 0-19.11 8.82L238.85 457c-.56.42-2.41 3.63-6.36 3.63s-5.58-3.21-6.14-3.62l-25.14-29.17a23.86 23.86 0 0 0-18.89-8.84Zm155.32 0a20.61 20.61 0 0 0-15.11 6.3 20.27 20.27 0 0 0-6.09 14.9 21.38 21.38 0 0 0 36.32 15.11 20.61 20.61 0 0 0 6.29-15.11 19.93 19.93 0 0 0-6.29-14.9 20.63 20.63 0 0 0-15.12-6.3Zm234.79 1.47a20.6 20.6 0 0 0-15.11 6.3 20.27 20.27 0 0 0-6.09 14.9v97.79a21.37 21.37 0 0 0 36.31 15.11 20.61 20.61 0 0 0 6.3-15.11q0-6.29 1.67-6.29a2.8 2.8 0 0 1 1.68.62l21 20.36a20.71 20.71 0 0 0 14.9 6.09 20.18 20.18 0 0 0 15.11-6.3 21.2 21.2 0 0 0 6.09-14.9 20.51 20.51 0 0 0-6.5-15.32q-14.27-14.06-14.9-14.48-2.73-2.73.21-4.62l.42-.21v-.21l13.22-8.4q9.44-6.29 9.44-17.83a22.07 22.07 0 0 0-3.36-11.76q-6.29-9.44-17.84-9.44a22 22 0 0 0-11.75 3.36q-24.35 16.2-25.23 16.62a2.53 2.53 0 0 1-2.72.41 2.64 2.64 0 0 1-1.47-2.73V441.7a19.93 19.93 0 0 0-6.29-14.9 20.61 20.61 0 0 0-15.09-6.3Zm141.59 36A50.92 50.92 0 0 0 676.67 472a50.33 50.33 0 0 0-15.32 36.94 52.68 52.68 0 0 0 89.82 37.35 16.62 16.62 0 0 0-23.51-23.5 18.26 18.26 0 0 1-13.66 5.86 19.36 19.36 0 0 1-19.73-19.73 18.28 18.28 0 0 1 5.88-13.64 14.32 14.32 0 0 1 7.13-4.2 2.2 2.2 0 0 1 1.68.21q.42.63-.42 1.26l-4.2 4.41a15.75 15.75 0 0 0-4.83 11.54q0 6.92 4.2 11.12t11.76 4.2q5.24 0 10.49-5.24l24.35-24.13a16.72 16.72 0 0 0 0-23.51q-14.67-14.48-36.31-14.48Zm-305.34.34Q389 456.54 378 467.17q-9.65 9.23-9.65 23.29.21 17.63 13.64 26.44a33.88 33.88 0 0 0 9.86 4.41 86.09 86.09 0 0 0 9.86 2.52q6.09 1.47 13.22 2.73 1.47.42 1.26 1.47 0 1.26-1.05 1.26-2.73.21-5 .21-17.21-1.89-23.3-3.15a14.56 14.56 0 0 0-3.56-.42 16.12 16.12 0 0 0-16 16.16 15.65 15.65 0 0 0 12.6 15.53 145.71 145.71 0 0 0 31.89 4q19.52 0 30.43-10.49 9.44-9 9.44-23.3 0-17.63-13.43-26.44-7.14-4.61-19.73-6.71-7.55-1.47-12.59-2.73a2.08 2.08 0 0 1-1.68-1.68q0-1.05 1.68-1.26a19.18 19.18 0 0 1 4 0q17.42 1.68 23.5 2.94a13.87 13.87 0 0 0 3.36.42 16 16 0 0 0 12.59-26 15.92 15.92 0 0 0-9-5.67 171.19 171.19 0 0 0-29-3.78q-1.34-.11-2.65-.12Zm91.32 0q-19.68-.26-30.71 10.37-9.65 9.23-9.65 23.29.21 17.63 13.64 26.44a33.86 33.86 0 0 0 9.86 4.41 85.55 85.55 0 0 0 9.86 2.52q6.09 1.47 13.22 2.73 1.47.42 1.26 1.47 0 1.26-1.05 1.26-2.73.21-5 .21-17.21-1.89-23.29-3.15a14.64 14.64 0 0 0-3.57-.42 16.13 16.13 0 0 0-15.95 16.16 15.66 15.66 0 0 0 12.59 15.53 145.73 145.73 0 0 0 31.9 4q19.51 0 30.43-10.49 9.44-9 9.44-23.3 0-17.63-13.43-26.44-7.14-4.61-19.73-6.71-7.56-1.47-12.59-2.73a2.08 2.08 0 0 1-1.68-1.68c0-.7.56-1.12 1.68-1.26a19.18 19.18 0 0 1 4 0q17.42 1.68 23.51 2.94a13.88 13.88 0 0 0 3.35.42 16 16 0 0 0 12.6-26 15.94 15.94 0 0 0-9-5.67 171.08 171.08 0 0 0-29-3.78q-1.37-.12-2.69-.13Zm284.59 1.48a20.6 20.6 0 0 0-15.11 6.3 20.25 20.25 0 0 0-6.09 14.9v29.17a51.58 51.58 0 0 0 51.41 51.41 45.12 45.12 0 0 0 7.77-.63q2.1-.42 2.93.84c.42.56.28 1.33-.42 2.31q-2.73 3.78-11.54 3.78a29.57 29.57 0 0 1-8.6-1.68 29 29 0 0 0-8.18-1.68q-12.38 0-17.42 11.34a17.63 17.63 0 0 0-1.89 8q0 12.38 11.13 17.42a57.84 57.84 0 0 0 25 5.24q23.93 0 38-14.06 14.27-14.06 14.28-37.56v-38.4a51.48 51.48 0 0 0 .42-6.29v-29.22a21.5 21.5 0 0 0-21.28-21.2 20.62 20.62 0 0 0-15.11 6.3 19.92 19.92 0 0 0-6.29 14.9v29.17a9 9 0 0 1-2.52 6.29 8.53 8.53 0 0 1-6.29 2.52 8.61 8.61 0 0 1-8.81-8.81v-29.17a19.93 19.93 0 0 0-6.29-14.9 20.62 20.62 0 0 0-15.08-6.3Zm-446.75 7.36a21.49 21.49 0 0 0-21.41 21.41v51.85a20.61 20.61 0 0 0 6.31 15.09 21 21 0 0 0 15.11 6.09 20.27 20.27 0 0 0 14.91-6.09 20.61 20.61 0 0 0 6.29-15.11v-51.84a20.61 20.61 0 0 0-6.29-15.12 20 20 0 0 0-14.91-6.29Z" style="fill:#fff"/>
</svg>
