<svg xmlns="http://www.w3.org/2000/svg" viewBox="0 0 1024 1024">
   <circle cx="512" cy="512" r="512" style="fill:#ebb700"/>
   <path d="m327 317.06a45.78 45.78 0 0 0-45.748 45.748 45.748 45.748 0 1 0 45.748-45.748zm115.42 4.7034v214.89a487.98 487.98 0 0 0-77.166 65.628v-161.94h-76.468v266.3h76.468a494.44 494.44 0 0 1 307.63-237.56c4.7356-1.5766 6.2342-4.4784 6.1366-7.0919a9.1192 9.1192 0 0 0-2.2782-5.8426 10.743 10.743 0 0 0-9.4435-2.2048 487.98 487.98 0 0 0-145.11 38.509v-90.945h77.313v0.1505a112.71 112.71 0 0 1 0 225.4v0.0751h-77.313v-69.596c0-1.9943-1.8174-1.9484-2.7191-1.2869a367.74 367.74 0 0 0-77.056 72.021v78.672h157.09a192.58 192.58 0 0 0 0-385.17z" style="fill:#fff"/>
</svg>
