<svg xmlns="http://www.w3.org/2000/svg" viewBox="0 0 1024 1024">
   <circle cx="512" cy="512" r="512" style="fill:#ec9f3c"/>
   <path d="M199.39 330.3h167.34a28.12 28.12 0 0 1 2.65 4.11c10 20.28 20.25 40.48 30.33 60.75 9.42-21.61 18.75-43.27 28.26-64.85h183.12v45.36a179.5 179.5 0 0 0-67.72 70.2c-21.8 40.35-26.71 89.33-13.63 133.27a177.42 177.42 0 0 0 44 74.42H462.52q-.07-72.74 0-145.48-31.46 57.19-62.82 114.43c-20.85-38.11-41.39-76.39-62.31-114.46-.14 48.5 0 97-.06 145.5H199.77v-308.1c-.24-5.04-.57-10.08-.38-15.15Zm368.9 98.87A165 165 0 0 0 692.73 693.7h14.82a165 165 0 0 0 141.35-94.05 161.75 161.75 0 0 0 15.76-71.27c.29-35.57-11.94-71-33.44-99.25a165 165 0 0 0-262.91 0Zm204-33.65a151.88 151.88 0 1 1-205 207.41c-18.41-32.71-23.7-72.37-15.06-108.85a152 152 0 0 1 220.06-98.56ZM671.51 527.88c-20.17 27.63-40.18 55.39-60.26 83.09h58.33c10-14.44 20.23-28.8 30.33-43.2 10.33 14.33 20.32 28.9 30.58 43.27 19.38-.13 38.77 0 58.16-.06q-30.08-41.58-60.24-83.11c19.92-26.92 40.2-53.57 60.1-80.5h-58.08C720.19 461.14 710.16 475.14 700 489c-10.2-13.86-20.25-27.82-30.41-41.71h-58.27c20.05 26.91 40.28 53.62 60.19 80.59Z" style="fill:#fff"/>
</svg>
