<svg xmlns="http://www.w3.org/2000/svg" viewBox="0 0 1024 1024">
   <circle cx="512" cy="512" r="512" style="fill:#546e7a"/>
   <path d="M232.85 544.61q-2.5.91-4.65 1.49a32.87 32.87 0 0 1-4 .92 23.28 23.28 0 0 1-3.61.29 9 9 0 0 1-4.16-.92 7.15 7.15 0 0 1-3-2.91 16.61 16.61 0 0 1-1.75-5.36 48.83 48.83 0 0 1-.58-8.23v-9.6q0-3.4.08-7.18l.08-7.77q.08-3.95.17-7.6t.17-6.9q.08-3.2.17-5.45.21-4.86.45-9.68t.75-9.51l-.33-.12q-.71 1.87-1.7 4.28t-2.53 5.74q-3.66 8.06-7.48 16.7t-7.68 17.65q-3.86 9-7.81 18.24t-7.85 18.45l-2-.08q-.87-2.82-2.12-6.65t-2.74-8.31q-1.49-4.49-3.2-9.43t-3.41-10.05q-1.74-5.11-3.53-10.18t-3.41-9.76q-1.62-4.69-3.11-8.8t-2.62-7.4q-1.33-3.78-2.33-6.69t-1.66-5.15l-.29.12v11.96q0 6.61-.21 13.5t-.54 13.55q-.33 6.65-.79 12.88t-1 11.51q-.42 4.36-.79 7.44a49.51 49.51 0 0 1-.79 5.1 12.72 12.72 0 0 1-1 3.28 4.77 4.77 0 0 1-1.58 1.79 5.06 5.06 0 0 1-2.28.79 26.57 26.57 0 0 1-3.2.16h-3.49l-.58-.42a61.25 61.25 0 0 0 3.45-9q1.54-5 2.66-10.55t2-11.51q.83-6 1.37-11.92t.92-11.72q.37-5.77.54-11t.14-9.6q.08-4.4.08-7.68a17.18 17.18 0 0 0-.29-3.49 4.4 4.4 0 0 0-1-2.16 3.53 3.53 0 0 0-2-1.12 12.85 12.85 0 0 0-3.24-.33 27.66 27.66 0 0 0-3.16.21q-1.79.16-3.95.5l-.46-3.65q7.6-1.75 12.5-2.58a47.2 47.2 0 0 1 7.81-.87 10.07 10.07 0 0 1 2.58.29 4.35 4.35 0 0 1 1.87.91 5.58 5.58 0 0 1 1.46 1.7 15.61 15.61 0 0 1 1.2 2.62q2.2 6.15 4.65 13.09t5 14.16q2.57 7.23 5.11 14.5t4.95 14q.91 2.7 1.66 4.94t1.41 4.12q.66 1.87 1.2 3.61t1.08 3.41h.29q.66-1.79 1.37-3.49t1.49-3.57q.79-1.87 1.7-4t2.12-4.77q2.91-6.65 6-13.79t6.48-14.56l6.73-15.16q3.41-7.68 6.85-15.41a3.89 3.89 0 0 1 1-1.37 5.26 5.26 0 0 1 1.41-.83 6.7 6.7 0 0 1 1.62-.45 10.26 10.26 0 0 1 1.54-.13 11.46 11.46 0 0 1 2.62.33 13.64 13.64 0 0 1 2.78.87q-.62 6.81-1.12 13t-.79 12.15q-.33 5.9-.58 11.67t-.37 11.59q-.13 5.86-.21 12t0 12.75a63.64 63.64 0 0 0 .38 7.52 17.36 17.36 0 0 0 1.29 5.11 6.46 6.46 0 0 0 2.53 2.87 7.79 7.79 0 0 0 3.95.91h1.66q.79 0 1.7-.17.87-.16 1.91-.45t2.45-.75l1.16 3.41q-3.03 1.19-5.57 2.15Zm56.87-59.42a9 9 0 0 0-1.7.17 5.71 5.71 0 0 0-1.62.5 5.27 5.27 0 0 0-1.46.92 4.15 4.15 0 0 0-1 1.49q-2.16 5.36-4.49 11.26l-4.69 11.84q-2.33 6-4.61 11.92l-4.32 11.34q-1-4.11-2.08-8.31t-2.2-8.19q-1.08-4-2.16-7.73t-2-6.81q-1-3.16-1.78-5.61t-1.37-4.07a29.16 29.16 0 0 0-1.75-4.11 10 10 0 0 0-1.83-2.58 5.2 5.2 0 0 0-1.91-1.33 5.56 5.56 0 0 0-2-.37 14.62 14.62 0 0 0-2.5.29q-1.58.29-3.61.83t-4.45 1.29q-2.36.75-4.86 1.66l.62 3q2.12-.5 3.66-.79a14.91 14.91 0 0 1 2.83-.29 6.37 6.37 0 0 1 2.12.33 4.85 4.85 0 0 1 1.82 1.21 9.34 9.34 0 0 1 1.66 2.45 28.91 28.91 0 0 1 1.7 4q.83 2.37 1.87 5.65t2.24 7.06q1.21 3.82 2.45 8.06t2.53 8.6q1.29 4.36 2.5 8.68t2.33 8.27l2 .29-.83 2.2q-2.87 7.48-5.24 13a63.54 63.54 0 0 1-4.65 9.26 18.56 18.56 0 0 1-5 5.53 10.09 10.09 0 0 1-6 1.87 13 13 0 0 1-3.2-.46 12.81 12.81 0 0 1-3.54-1.54 5.41 5.41 0 0 0-2.12 2.2 5.91 5.91 0 0 0-.83 2.87 5 5 0 0 0 .59 2.37 5.69 5.69 0 0 0 1.7 2 8 8 0 0 0 2.66 1.37 10.89 10.89 0 0 0 3.53.54 13.78 13.78 0 0 0 5.73-1.16 17 17 0 0 0 4.78-3.2 24.25 24.25 0 0 0 3.95-4.78 57.39 57.39 0 0 0 3.37-5.94q1.66-3.45 3.24-7.44t3.28-8.26q1.66-4.28 3.41-8.89t3.69-9.26q1.91-4.65 3.95-9.43t4.2-9.56q2.12-4.78 4.24-9.35t4.28-8.77q2.12-4.24 4.11-7.94t3.9-6.77a14.45 14.45 0 0 0-2.45-1 8.61 8.61 0 0 0-2.68-.38Zm158.48 55-.79-2.16a30.3 30.3 0 0 1-4.69 1.7 17.38 17.38 0 0 1-4.28.58 8.41 8.41 0 0 1-2-.21 3.2 3.2 0 0 1-1.5-.87 6.05 6.05 0 0 1-1.08-2 20.51 20.51 0 0 1-.71-3.4q-.29-2.12-.42-5.19t-.12-7.43q0-3.2.13-7.15t.45-8.43q.33-4.44.83-9.18t1.21-9.51a11.1 11.1 0 0 0-5.24-1.29 9.44 9.44 0 0 0-1.66.16 5.1 5.1 0 0 0-1.66.54 3.44 3.44 0 0 0-1.33 1.12 3.4 3.4 0 0 0-.62 1.87q-.33 5.32-.54 10.34t-.33 9.52q-.12 4.48-.21 8.43t0 7q0 5.32.21 9.06t.58 6.23a19.66 19.66 0 0 0 1 3.95 7 7 0 0 0 1.37 2.2 3.34 3.34 0 0 0 1.75.91 10 10 0 0 0 2.12.21 15.61 15.61 0 0 0 4.11-.66 36.49 36.49 0 0 0 4.9-1.66 46.2 46.2 0 0 0 4.73-2.28 25.57 25.57 0 0 0 3.8-2.39Zm-41.54-63.09a58 58 0 0 1 1.78 15.16 69.94 69.94 0 0 1-1.54 14.83 59.08 59.08 0 0 1-4.49 13.17 50.91 50.91 0 0 1-7.23 11.09 44.73 44.73 0 0 1-9.72 8.56 46 46 0 0 1-12 5.48 50.38 50.38 0 0 1-14.13 1.91 59.85 59.85 0 0 1-7.94-.54 71.74 71.74 0 0 1-8.39-1.66l-8.22 1-.78-.1q.29-2.66.62-7t.62-10.22q.33-5.81.62-12.92t.5-15.33q.25-8.22.37-17.32t.12-18.9a32 32 0 0 0-.17-3.49 5.26 5.26 0 0 0-.87-2.5 4 4 0 0 0-2-1.49 10.78 10.78 0 0 0-3.66-.5 50.59 50.59 0 0 0-7 .62l-.42-3.7q4.41-.83 9.06-1.58t9.39-1.37q4.74-.58 9.47-.91T360 449a92.26 92.26 0 0 1 12.55.83 53.31 53.31 0 0 1 11.46 2.74 39 39 0 0 1 9.89 5.15 30.35 30.35 0 0 1 7.68 8 37.7 37.7 0 0 1 5.08 11.38Zm-9.93 18.48a64.62 64.62 0 0 0-2-16.74 33.36 33.36 0 0 0-6.57-13.08 29.84 29.84 0 0 0-11.84-8.52q-7.31-3.07-17.86-3.07-2.62 0-5.27.12t-5.4.33q0 2.08-.12 6.19t-.21 9.6q-.12 5.44-.33 11.92t-.37 13.21q-.21 6.73-.45 13.42t-.5 12.63q-.25 5.94-.54 10.8t-.5 7.85a52.72 52.72 0 0 0 7.56 1.46q3.49.33 6.85.33a41.09 41.09 0 0 0 12.46-1.74 32.1 32.1 0 0 0 9.68-4.86 30.82 30.82 0 0 0 7.1-7.48 41 41 0 0 0 4.78-9.47 54.57 54.57 0 0 0 2.7-11 80.23 80.23 0 0 0 .83-11.9Zm30.46-29.53a6.6 6.6 0 0 0 1.91 1.58 5.5 5.5 0 0 0 2.58.58 5.55 5.55 0 0 0 2.78-.71 6.69 6.69 0 0 0 2.16-1.87 8.88 8.88 0 0 0 1.91-5.49 6.92 6.92 0 0 0-.45-2.53 6.05 6.05 0 0 0-1.25-2.12 5.36 5.36 0 0 0-1.91-1.41 5.78 5.78 0 0 0-2.53-.54 6.73 6.73 0 0 0-4.57 2 7.26 7.26 0 0 0-1.62 2.41 8 8 0 0 0-.62 3.28 8.44 8.44 0 0 0 .42 2.61 7.29 7.29 0 0 0 1.19 2.21Zm246 73.69a17.35 17.35 0 0 1-4.28.58 7.42 7.42 0 0 1-1.87-.21 3 3 0 0 1-1.37-.92 5.56 5.56 0 0 1-1-1.91 20.43 20.43 0 0 1-.62-3.28q-.21-2-.33-5t-.08-7.06q0-6.56.25-13.71t.71-14.54q.45-7.44 1.08-15.08t1.32-15.18q.75-7.6 1.54-15t1.66-14.5a12 12 0 0 0-5.24-1.33 11.42 11.42 0 0 0-2.16.21 7.13 7.13 0 0 0-1.91.66 3.72 3.72 0 0 0-1.37 1.16 2.89 2.89 0 0 0-.58 1.7q-.29 4.36-.62 10.05l-.71 12.13q-.37 6.4-.75 13.3t-.71 13.62q-.33 6.73-.62 13t-.53 11.7q-.21 5.32-.33 9.35t-.12 6.14q0 5.94.17 10.1a34.52 34.52 0 0 0 .87 6.69 7.4 7.4 0 0 0 2 3.7 5.24 5.24 0 0 0 3.57 1.16 15.6 15.6 0 0 0 4.11-.66 36.81 36.81 0 0 0 4.9-1.66 46.75 46.75 0 0 0 4.73-2.29 25.47 25.47 0 0 0 3.78-2.45l-.79-2.16a30.3 30.3 0 0 1-4.68 1.69Zm96.87-8.86a15.46 15.46 0 0 1-2.33 5.07 7.57 7.57 0 0 1-3.41 2.62 12.49 12.49 0 0 1-4.48.75q-3.62 0-7.35-.21t-8-.25q-3 0-6.56.29t-7.52.83q.41-4.2.75-9.8t.67-11.88q.33-6.27.58-12.92t.42-12.92q.21-6.31.33-11.92t.25-9.89q.12-4.28.17-6.86t0-2.74q0-2.66-.12-4.74a9 9 0 0 0-.83-3.49 4.32 4.32 0 0 0-2.16-2.16 9.41 9.41 0 0 0-4.2-.75 45.14 45.14 0 0 0-7.27.75q-4.36.75-10.47 2.33l.42 3.45q2.16-.33 4.15-.45t3.37-.17a10.21 10.21 0 0 1 3.24.42 3.61 3.61 0 0 1 1.91 1.25 4.58 4.58 0 0 1 .83 2.28 22.58 22.58 0 0 1 .21 3.32v13.88q0 7.19-.17 14.58-.13 7.4-.37 14.79t-.62 14.46q-.33 7.07-.88 13.63t-1.2 12.21l.75.08a69.12 69.12 0 0 1 9.06-1.58 74 74 0 0 1 8.22-.5 70 70 0 0 1 7.89.42q3.66.42 6.77.92t5.82 1a31.62 31.62 0 0 0 4.86.42 11.75 11.75 0 0 0 5.15-1.08 8.75 8.75 0 0 0 3.86-3.74 23.23 23.23 0 0 0 2.41-7.43 70.4 70.4 0 0 0 .91-12l-3.61-.29a44.83 44.83 0 0 1-1.43 8.03Zm16.41-31.15q-.21 5-.33 9.51t-.21 8.43v7q0 5.32.21 9.06t.58 6.23a19.84 19.84 0 0 0 1 3.95 7.06 7.06 0 0 0 1.37 2.2 3.34 3.34 0 0 0 1.74.91 9.89 9.89 0 0 0 2.12.21 15.5 15.5 0 0 0 4.11-.67 37 37 0 0 0 4.9-1.66 46.73 46.73 0 0 0 4.73-2.29 25.36 25.36 0 0 0 3.78-2.45l-.79-2.16a30.28 30.28 0 0 1-4.69 1.7 17.4 17.4 0 0 1-4.28.58 8.37 8.37 0 0 1-2-.21 3.2 3.2 0 0 1-1.5-.87 6.09 6.09 0 0 1-1.08-2 20.41 20.41 0 0 1-.71-3.41q-.29-2.12-.42-5.19t-.12-7.43q0-3.2.13-7.15t.45-8.43q.33-4.45.83-9.18t1.2-9.51a11.09 11.09 0 0 0-5.24-1.29 9.06 9.06 0 0 0-1.66.17 5.13 5.13 0 0 0-1.66.54 3.43 3.43 0 0 0-2 3q-.23 5.4-.44 10.42Zm-139.65 39.96 1.2 1.79a20 20 0 0 1-6.07 4.24 16.82 16.82 0 0 1-6.9 1.46 13.27 13.27 0 0 1-5-.92 10.79 10.79 0 0 1-3.95-2.7 12.67 12.67 0 0 1-2.57-4.57 20.12 20.12 0 0 1-.91-6.36v-2.16q0-1.08.29-2.29h-.25a62.3 62.3 0 0 1-4.16 7.07 38.93 38.93 0 0 1-5.15 6.19 25.44 25.44 0 0 1-6 4.36 13.82 13.82 0 0 1-6.65 1.7 13.36 13.36 0 0 1-5.23-1 12.29 12.29 0 0 1-4.07-2.74 12.94 12.94 0 0 1-2.62-4.11 14.69 14.69 0 0 1-.91-5.24 16.18 16.18 0 0 1 1.33-6.64 18.38 18.38 0 0 1 3.74-5.36 23.24 23.24 0 0 1 5.73-4.07 38.14 38.14 0 0 1 7.23-2.87 50.43 50.43 0 0 1 8.27-1.7 66.72 66.72 0 0 1 8.89-.59q.29-2.61.45-5.07t.21-5.4a13.84 13.84 0 0 0-1.08-5.69 11.32 11.32 0 0 0-2.83-3.95 11.5 11.5 0 0 0-3.81-2.27 13.68 13.68 0 0 0-4.41-.75 17.19 17.19 0 0 0-5 .62 9.39 9.39 0 0 0-3.32 1.7 6.47 6.47 0 0 0-1.83 2.58 9 9 0 0 0-.54 3.16 12.19 12.19 0 0 0 .71 4 16.06 16.06 0 0 0 2.16 3.91l-.17.46a10.75 10.75 0 0 1-4.78 1.16 8.36 8.36 0 0 1-2.66-.42A6.61 6.61 0 0 1 594 506a6.35 6.35 0 0 1-1.41-2 7 7 0 0 1-.5-2.7 9.59 9.59 0 0 1 1.16-4.61 15.73 15.73 0 0 1 3.16-3.95 23.2 23.2 0 0 1 4.53-3.2 34.9 34.9 0 0 1 5.32-2.37 33.58 33.58 0 0 1 5.48-1.49 27.14 27.14 0 0 1 5.15-.54 21.08 21.08 0 0 1 7.44 1.16 11.94 11.94 0 0 1 5 3.41 13.3 13.3 0 0 1 2.87 5.29 25.78 25.78 0 0 1 .91 7.15q0 2.74-.25 6t-.5 6.9q-.29 3.57-.54 7.39t-.21 7.6q0 6 2.2 9a7 7 0 0 0 5.86 3 14.21 14.21 0 0 0 7.15-2.35Zm-24-23.06q-3.07.09-6.11.42a41.12 41.12 0 0 0-5.77 1 27.19 27.19 0 0 0-5 1.74 15 15 0 0 0-4 2.7 11.42 11.42 0 0 0-2.62 3.78 12.33 12.33 0 0 0-1 5 14.38 14.38 0 0 0 .33 3.12 8.34 8.34 0 0 0 1.12 2.58 6 6 0 0 0 2 1.79 6.17 6.17 0 0 0 2.87.62 9.59 9.59 0 0 0 3.86-.87 17.52 17.52 0 0 0 3.91-2.41 24.24 24.24 0 0 0 3.7-3.66 30.94 30.94 0 0 0 3.2-4.69 30.37 30.37 0 0 0 2.33-5.32 25.86 25.86 0 0 0 1.17-5.79Zm-99.23-50.58a6.6 6.6 0 0 0 1.91 1.58 5.5 5.5 0 0 0 2.58.58 5.55 5.55 0 0 0 2.78-.71 6.69 6.69 0 0 0 2.16-1.87 9 9 0 0 0 1.41-2.58 8.93 8.93 0 0 0 .5-2.91 6.87 6.87 0 0 0-.46-2.53 6.05 6.05 0 0 0-1.25-2.12 5.36 5.36 0 0 0-1.91-1.41 5.78 5.78 0 0 0-2.53-.54 6.73 6.73 0 0 0-4.57 2 7.26 7.26 0 0 0-1.62 2.41 8 8 0 0 0-.62 3.28 8.44 8.44 0 0 0 .42 2.61 7.29 7.29 0 0 0 1.19 2.21Zm54.11 73.77a18.19 18.19 0 0 1-5 .79 9.49 9.49 0 0 1-5.15-1.29 8.74 8.74 0 0 1-3.2-3.7 19.69 19.69 0 0 1-1.62-5.94 62.12 62.12 0 0 1-.45-7.94q0-2.37.09-5.56t.25-6.94q.21-3.74.5-7.94t.79-8.68q4 .29 7.4.62t6.15.33a13.48 13.48 0 0 0 4.36-.54 2.25 2.25 0 0 0 1.54-2.37 5.08 5.08 0 0 0-.13-1.08q-.12-.58-.33-1.29a34.25 34.25 0 0 1-6.19.46h-5.11l-3.45-.08q-1.83 0-3.78-.12.83-8.18 2-16.58t2.95-16.33a8.54 8.54 0 0 0-2.08-.83 9.49 9.49 0 0 0-2.45-.29 9 9 0 0 0-1.7.17 5.36 5.36 0 0 0-1.62.58 4.66 4.66 0 0 0-1.33 1.12 4.22 4.22 0 0 0-.75 1.79q-1.08 6.07-2.16 13.79t-2 16.41a36.69 36.69 0 0 0-4.65.58 20.3 20.3 0 0 0-3.65 1 8.21 8.21 0 0 0-2.37 1.41 2.18 2.18 0 0 0-.83 1.62 1.27 1.27 0 0 0 .13.58 28.9 28.9 0 0 1 4.78-.71q2.82-.25 6.11-.29-.42 4-.75 8.1t-.54 8.22q-.21 4.11-.33 8.14t-.12 7.77a56.3 56.3 0 0 0 .91 11.14 21.81 21.81 0 0 0 2.62 7 9.29 9.29 0 0 0 4 3.57 12.37 12.37 0 0 0 5.11 1 20.23 20.23 0 0 0 4.49-.54 34.4 34.4 0 0 0 4.9-1.54 52.81 52.81 0 0 0 5.15-2.37q2.62-1.41 5.19-3.12a4.37 4.37 0 0 0-1.29-2.74 37.76 37.76 0 0 1-6.4 2.63Zm-67.85-55.88a6.69 6.69 0 0 1 1.41 3.95 6.22 6.22 0 0 1-.62 2.82 6.08 6.08 0 0 1-1.78 2.08 7.93 7.93 0 0 1-2.7 1.33 12.48 12.48 0 0 1-3.49.46 19.28 19.28 0 0 1-6.27-1.16l-.17.21a19.68 19.68 0 0 1 2.95 6.11A23.75 23.75 0 0 1 500 506a23 23 0 0 1-.92 6.44 24.79 24.79 0 0 1-2.53 5.94 26 26 0 0 1-3.95 5.15 27.13 27.13 0 0 1-5.11 4.07 25.92 25.92 0 0 1-6.07 2.66 23.84 23.84 0 0 1-6.77 1q-.91 0-1.83-.08l-1.83-.21a11.07 11.07 0 0 0-2.66.87 9.79 9.79 0 0 0-2.12 1.37 6.17 6.17 0 0 0-1.41 1.7 3.55 3.55 0 0 0-.5 1.79 4.06 4.06 0 0 0 1.41 3.12 13.11 13.11 0 0 0 3.86 2.24 40.13 40.13 0 0 0 5.57 1.7l6.65 1.46q3.12.67 6.15 1.37t5.77 1.62a35.46 35.46 0 0 1 5.07 2.12 18.52 18.52 0 0 1 4 2.87 12.24 12.24 0 0 1 2.66 3.82 12.66 12.66 0 0 1 1 5.07 18.52 18.52 0 0 1-1.33 6.94 22.71 22.71 0 0 1-3.65 6.27 30.65 30.65 0 0 1-5.65 5.32 36.79 36.79 0 0 1-7.23 4.11 41 41 0 0 1-8.43 2.66 43.49 43.49 0 0 1-9.18 1 42.52 42.52 0 0 1-5.77-.42 37 37 0 0 1-6-1.25 31.18 31.18 0 0 1-5.65-2.2 20.47 20.47 0 0 1-4.74-3.24 14.85 14.85 0 0 1-3.24-4.41 12.9 12.9 0 0 1-1.2-5.69 15.11 15.11 0 0 1 .87-5.11 19.64 19.64 0 0 1 2.33-4.57 25.61 25.61 0 0 1 3.45-3.95 33.1 33.1 0 0 1 4.11-3.28 37.49 37.49 0 0 1 4.44-2.53A33.72 33.72 0 0 1 464 550l.08-.21a27.86 27.86 0 0 1-3-1.54 13.36 13.36 0 0 1-2.66-2 10.4 10.4 0 0 1-1.91-2.62 7.77 7.77 0 0 1-.71-3.37 7.47 7.47 0 0 1 1-3.78 11.69 11.69 0 0 1 2.5-3 16.93 16.93 0 0 1 3.28-2.29q1.79-1 3.45-1.66a23 23 0 0 1-5.73-3.2 20.59 20.59 0 0 1-4.24-4.45 20.26 20.26 0 0 1-2.62-5.4 20.67 20.67 0 0 1-.91-6.15 23.76 23.76 0 0 1 2.12-10.05 25.26 25.26 0 0 1 5.69-8 26.9 26.9 0 0 1 8.35-5.28 26.42 26.42 0 0 1 10-1.91 21.37 21.37 0 0 1 3.65.29 22.3 22.3 0 0 1 3.07.75 18.73 18.73 0 0 1 2.58 1q1.2.5 2.24 1 1.58.79 3.07 1.41a10 10 0 0 0 3.53.58 9.59 9.59 0 0 0 3.2-.54 8.37 8.37 0 0 0 2.7-1.54 7.48 7.48 0 0 0 1.83-2.5 7.77 7.77 0 0 0 .71-3.37 3.27 3.27 0 0 0 0-.54 4.78 4.78 0 0 0 0-.58l.54-.37a10.16 10.16 0 0 1 4.03 3.27Zm-46.56 70a20.53 20.53 0 0 0-4.65 3.61 17.13 17.13 0 0 0-3.24 4.9 15.19 15.19 0 0 0-1.16 6 12.92 12.92 0 0 0 1.75 6.85 15.74 15.74 0 0 0 4.57 4.82 20.46 20.46 0 0 0 6.27 2.82 26.49 26.49 0 0 0 6.81.92 26.91 26.91 0 0 0 8.72-1.41 23.08 23.08 0 0 0 7.27-3.86 18.48 18.48 0 0 0 5-5.82 14.88 14.88 0 0 0 1.87-7.35 7.71 7.71 0 0 0-.92-3.86 9.25 9.25 0 0 0-2.53-2.78 15.65 15.65 0 0 0-3.78-2q-2.2-.83-4.82-1.54-3.53-1-7.48-1.74t-8.06-1.83a24.07 24.07 0 0 0-5.63 2.33ZM490 509.45a26.21 26.21 0 0 0-.42-4.61 25.07 25.07 0 0 0-1.16-4.57 19.67 19.67 0 0 0-2-4.11 15 15 0 0 0-2.83-3.32 12.11 12.11 0 0 0-8.31-3.12 11.63 11.63 0 0 0-4.28.75 11.26 11.26 0 0 0-3.32 2 13 13 0 0 0-2.5 3 19.12 19.12 0 0 0-1.66 3.57 25.64 25.64 0 0 0-1 3.82 25.38 25.38 0 0 0-.29 3.74 27.54 27.54 0 0 0 .42 4.69 25.28 25.28 0 0 0 1.25 4.57 22.46 22.46 0 0 0 2.08 4.15 16.64 16.64 0 0 0 2.95 3.41 13.33 13.33 0 0 0 3.82 2.29 12.58 12.58 0 0 0 4.65.83 10.34 10.34 0 0 0 4-.75 11.58 11.58 0 0 0 3.24-2.08 12.66 12.66 0 0 0 2.41-3 20.18 20.18 0 0 0 1.62-3.62 21.12 21.12 0 0 0 1-3.86 23.24 23.24 0 0 0 .33-3.78Zm49.08 30.3a17.39 17.39 0 0 1-4.28.58 8.45 8.45 0 0 1-2-.21 3.17 3.17 0 0 1-1.49-.87 6.11 6.11 0 0 1-1.08-2 20.66 20.66 0 0 1-.71-3.4q-.29-2.12-.42-5.19t-.12-7.43q0-3.2.13-7.15t.45-8.43q.33-4.44.83-9.18t1.21-9.51a11.1 11.1 0 0 0-5.24-1.29 9.42 9.42 0 0 0-1.66.16 5.1 5.1 0 0 0-1.66.54 3.46 3.46 0 0 0-1.33 1.12 3.42 3.42 0 0 0-.62 1.87q-.33 5.32-.54 10.34t-.33 9.52q-.12 4.48-.21 8.43t0 7q0 5.32.21 9.06t.58 6.23a19.66 19.66 0 0 0 1 3.95 7 7 0 0 0 1.37 2.2 3.34 3.34 0 0 0 1.75.91 10 10 0 0 0 2.12.21 15.61 15.61 0 0 0 4.11-.66 36.5 36.5 0 0 0 4.9-1.66 46.19 46.19 0 0 0 4.73-2.28 25.57 25.57 0 0 0 3.78-2.45l-.79-2.16a30.3 30.3 0 0 1-4.65 1.75Zm312.72-48.94a9.57 9.57 0 0 0-.46-2.49q-1.21.12-2.91.25t-3.61.12h-5.33l-3.61-.08q-1.91 0-4-.12.21-6.18.46-12.37t.91-11.92a80.84 80.84 0 0 1 1.91-10.59 32.75 32.75 0 0 1 3.37-8.56 17 17 0 0 1 5.36-5.73 14.32 14.32 0 0 1 7.89-2.08 12.35 12.35 0 0 1 3.16.42 8.68 8.68 0 0 1 2.91 1.33 6.69 6.69 0 0 1 2.15 2.31 6.61 6.61 0 0 1 .83 3.41 9.68 9.68 0 0 1-.42 2.82 24.65 24.65 0 0 1-1.16 3.2l.17.45a9.81 9.81 0 0 0 4 1 7.53 7.53 0 0 0 2.74-.5 6.72 6.72 0 0 0 2.24-1.41 6.45 6.45 0 0 0 1.54-2.33 7.92 7.92 0 0 0 .58-3.11 9.21 9.21 0 0 0-1.16-4.41 11.74 11.74 0 0 0-3.33-3.86 16.61 16.61 0 0 0-5.31-2.78 21.77 21.77 0 0 0-7.15-1.08 24.76 24.76 0 0 0-5.61.67 23.4 23.4 0 0 0-5.65 2 28.86 28.86 0 0 0-5.44 3.53 30.38 30.38 0 0 0-4.9 5.19 37.35 37.35 0 0 0-4 6.89 44.84 44.84 0 0 0-2.97 8.72q-.87 3.74-1.46 7.23t-1 7q-.37 3.45-.62 7t-.41 7.44a43.62 43.62 0 0 0-5.4.54A22.72 22.72 0 0 0 812 490a8.55 8.55 0 0 0-2.66 1.54 2.41 2.41 0 0 0-1 1.83 1.93 1.93 0 0 0 .16.79 20.55 20.55 0 0 1 5.57-1.08q3.32-.25 7.23-.29-.08 12.5-.33 23.93t-.91 21.23q-.67 9.8-2 17.82a63.49 63.49 0 0 1-3.57 13.67 23.14 23.14 0 0 1-5.61 8.76 11.42 11.42 0 0 1-8.1 3.11 14.6 14.6 0 0 1-3.61-.45 12.91 12.91 0 0 1-3.45-1.46 13.73 13.73 0 0 1-3.12-2.49 17.27 17.27 0 0 1-2.66-3.66 6 6 0 0 0-2.37.46 6.7 6.7 0 0 0-1.91 1.25 5.43 5.43 0 0 0-1.29 1.7 4.74 4.74 0 0 0-.46 2 5.57 5.57 0 0 0 1.16 3.37 10 10 0 0 0 3.12 2.82 17.65 17.65 0 0 0 4.74 1.91 23.66 23.66 0 0 0 13.33-.54 21.31 21.31 0 0 0 7.14-4.11 32.63 32.63 0 0 0 6.57-7.65 54.32 54.32 0 0 0 5.52-11.84 86.65 86.65 0 0 0 2.7-10.1q1.16-5.52 2-11.63t1.46-12.5q.58-6.44 1-12.67t.66-12q.25-5.82.42-10.76 4.24.29 7.77.62t6.4.29a12.62 12.62 0 0 0 4.36-.58 2.32 2.32 0 0 0 1.57-2.48Zm41.26 41.74Zm2 1.46a.89.89 0 0 1 .25.58.54.54 0 0 1-.12.33 34.68 34.68 0 0 1-5 5.65 31.41 31.41 0 0 1-5.57 4 24.34 24.34 0 0 1-5.86 2.33 23 23 0 0 1-5.9.79 20.49 20.49 0 0 1-9.14-2 21.91 21.91 0 0 1-7.15-5.56 26.64 26.64 0 0 1-4.69-8.27 30.93 30.93 0 0 1-1.66-10.22 42.15 42.15 0 0 1 1-8.89 43.49 43.49 0 0 1 2.82-8.47 39.35 39.35 0 0 1 4.53-7.48 31 31 0 0 1 6-6 28 28 0 0 1 7.44-4 25.72 25.72 0 0 1 8.72-1.46 20.34 20.34 0 0 1 5.86.83 15 15 0 0 1 4.86 2.41 11.39 11.39 0 0 1 3.37 3.82 10.64 10.64 0 0 1 1.25 5.19 10.83 10.83 0 0 1-2.78 7.39 21.8 21.8 0 0 1-7.6 5.36 54.7 54.7 0 0 1-11.47 3.57 127.3 127.3 0 0 1-14.21 2v.71a33.54 33.54 0 0 0 1.33 9.72 24.69 24.69 0 0 0 3.66 7.46 17.49 17.49 0 0 0 5.57 4.86 14.18 14.18 0 0 0 6.9 1.75 17.94 17.94 0 0 0 7.64-1.83 28.24 28.24 0 0 0 8-6 6.12 6.12 0 0 1 .62.37 3.52 3.52 0 0 1 .75.5 2.92 2.92 0 0 1 .52.55Zm-34.86-21.86a76.43 76.43 0 0 0 10.55-1.41 35.1 35.1 0 0 0 7.89-2.62 14.07 14.07 0 0 0 4.94-3.82 8.24 8.24 0 0 0 1.7-5.11 9.53 9.53 0 0 0-.67-3.57 8.22 8.22 0 0 0-1.79-2.87 7.93 7.93 0 0 0-2.7-2 8.24 8.24 0 0 0-3.41-.71 12.2 12.2 0 0 0-4.9 1 13.4 13.4 0 0 0-3.95 2.62 17.58 17.58 0 0 0-3.07 3.82 28.68 28.68 0 0 0-2.29 4.61 39.27 39.27 0 0 0-1.49 5 42 42 0 0 0-.82 5.06Zm-72.94-56h15.61c.93-3.7 3.88-7.29 7-11.05 3.6-4.37 7.32-8.9 7.32-13.29 0-8.31-9.92-15.07-22.11-15.07S773 423.5 773 431.81c0 4.39 3.72 8.92 7.32 13.29 3.1 3.76 6.06 7.35 7 11.05Zm15.74 3.26v-1.57h-15.84v1.58h8.47l-7.37 1.58v1.58h7.37l-6.25 1.57v1.58h1.48a4.86 4.86 0 0 0 8.42 0h1.53v-1.58h-5.15l6.25-1.57V461h-6.27l7.36-1.57Z" style="fill:#fff"/>
</svg>
