<svg xmlns="http://www.w3.org/2000/svg" viewBox="0 0 1024 1024" style="enable-background:new 0 0 1024 1024" xml:space="preserve">
   <style>
      .st1{fill-rule:evenodd;clip-rule:evenodd;fill:#fff}
   </style>
   <g id="Icon">
      <circle cx="512" cy="512" r="512" style="fill:#e7723b"/>
      <g id="Icon_1_">
         <path class="st1" d="M715.5 511.8c-1.1-112.4-91.1-203.5-203.5-203.5s-203.5 91.1-203.5 203.5c0 98.3 69.6 180.3 161.7 198.8 30.8 6.2 35-72.2 26.6-124.2-.1 0-9.3-.5-12.3-.7-6.3-.3-12.3 7-16.2 8.4-6.6 2.4-7.8-4.2-12.6-4.2-4.2 0-9.7 6.5-25.1 3.6-15.5-3-20.6-17-20.6-17l-4.7-2.5c-15.9-4-16.7-21.3-16.8-22.3-.9-8.5 13.9-14.9 9.7-17.5-18-11.4-12.2-20.3-12-20.8 2.3-6 11-19.1 7.8-21.1-8.8-5.6 5.7-38.3 18.4-47.3 1.9-10.3 13.1-27.2 23.8-30.8-.6-11.7 15.8-18.4 15.8-18.4 11.5-3.7 3.4-13.2 25.4-11.7 5.1.4 5-5.5 17.8-5.8 3.7-.1 7.8-3 19.1-3 19.8-.9 18.9 12.5 25.5 10.3 8.4-2.9 36.3 10.8 39.2 39 12.5-1 45.4 35.3 44.5 62 21.6 24.3-7.9 47.3-9 51.8.8 2.5 5.2 13.6 3.5 22.1-2 10-14.7 20.9-15.2 21.3-8.9 6.4-15.5 13.6-26.1 11.7-10.9-2-8.9-12.1-12.1-14.6-7 6.2-17.6 11.5-31.1 10.5-1.6-.3-7.5-.9-8.2-.9-6.5 38.3-5.6 123.8 21.5 123.8 81.6-12.4 169.8-91.2 168.7-200.5z"/>
         <path class="st1" d="M291.9 511.8c0-108.4 84.7-203 191.5-209.2C330.3 288.4 233 397.2 233 511.8c0 114.7 99.6 225.5 250.4 209.2-106.8-6.2-191.5-100.8-191.5-209.2zm248.7-209.2C647.4 308.8 732 403.5 732 511.8c0 108.4-84.7 203-191.5 209.2C695.3 734.7 791 626.5 791 511.8c0-114.6-95.3-222.6-250.4-209.2z"/>
      </g>
   </g>
</svg>
