<svg xmlns="http://www.w3.org/2000/svg" viewBox="0 0 1024 1024">
   <circle cx="512" cy="512" r="512" style="fill:#e56c30"/>
   <path d="M546.68 712.35c-27.11 0-28-85.48-21.55-123.76.76.08 6.65.68 8.24.94a41.24 41.24 0 0 0 31.14-10.45c3.25 2.45 1.17 12.52 12.11 14.56 10.58 2 17.16-5.25 26.07-11.65.52-.38 13.21-11.31 15.25-21.32 1.74-8.56-2.62-19.6-3.46-22.12 1.17-4.46 30.66-27.47 9-51.76 1-26.74-31.94-63-44.48-62-2.9-28.19-30.81-41.89-39.2-39-6.64 2.28-5.72-11.13-25.54-10.26-11.3 0-15.36 2.88-19.06 3-12.77.29-12.61 6.13-17.76 5.78-22-1.51-14 8-25.43 11.67 0 0-16.39 6.64-15.8 18.37-10.77 3.57-21.91 20.47-23.84 30.81-12.71 9.07-27.17 41.72-18.36 47.33 3.19 2-5.52 15.07-7.81 21.11-.17.46-6 9.42 12 20.8 4.17 2.64-10.64 9-9.74 17.53.1 1 1 18.32 16.83 22.28l4.67 2.46s5 14.06 20.58 17c15.38 2.91 21-3.56 25.12-3.56 4.76 0 6 6.55 12.59 4.16 3.87-1.41 9.84-8.64 16.16-8.38 3.05.12 12.19.65 12.34.66 8.43 52 4.18 130.39-26.61 124.18-92.04-18.62-161.68-100.63-161.68-198.9 0-112.42 91.13-203.55 203.54-203.55s202.43 91.13 203.54 203.55c1.08 109.31-87.1 188.03-168.86 200.52ZM291.95 511.83c0-108.37 84.69-203 191.49-209.25C330.33 288.45 233 397.16 233 511.83s99.6 225.51 250.45 209.25c-106.81-6.24-191.5-100.89-191.5-209.25Zm248.61-209.25C647.36 308.81 732 403.45 732 511.83s-84.69 203-191.5 209.25C695.28 734.69 791 626.48 791 511.83S695.66 289.2 540.56 302.58Z" style="fill:#fff"/>
</svg>
