<?xml version="1.0" encoding="utf-8"?>
<!-- Generator: Adobe Illustrator 21.0.0, SVG Export Plug-In . SVG Version: 6.00 Build 0)  -->
<svg version="1.1" xmlns="http://www.w3.org/2000/svg" xmlns:xlink="http://www.w3.org/1999/xlink" x="0px" y="0px"
	 viewBox="0 0 1024 1024" style="enable-background:new 0 0 1024 1024;" xml:space="preserve">
<style type="text/css">
	.st0{fill:#E7723B;}
	.st1{fill-rule:evenodd;clip-rule:evenodd;fill:#FFFFFF;}
</style>
<g id="Guides">
</g>
<g id="Icon">
	<circle class="st0" cx="512" cy="512" r="512"/>
	<g id="Icon_1_">
		<path class="st1" d="M715.5,511.8c-1.1-112.4-91.1-203.5-203.5-203.5c-112.4,0-203.5,91.1-203.5,203.5
			c0,98.3,69.6,180.3,161.7,198.8c30.8,6.2,35-72.2,26.6-124.2c-0.1,0-9.3-0.5-12.3-0.7c-6.3-0.3-12.3,7-16.2,8.4
			c-6.6,2.4-7.8-4.2-12.6-4.2c-4.2,0-9.7,6.5-25.1,3.6c-15.5-3-20.6-17-20.6-17l-4.7-2.5c-15.9-4-16.7-21.3-16.8-22.3
			c-0.9-8.5,13.9-14.9,9.7-17.5c-18-11.4-12.2-20.3-12-20.8c2.3-6,11-19.1,7.8-21.1c-8.8-5.6,5.7-38.3,18.4-47.3
			c1.9-10.3,13.1-27.2,23.8-30.8c-0.6-11.7,15.8-18.4,15.8-18.4c11.5-3.7,3.4-13.2,25.4-11.7c5.1,0.4,5-5.5,17.8-5.8
			c3.7-0.1,7.8-3,19.1-3c19.8-0.9,18.9,12.5,25.5,10.3c8.4-2.9,36.3,10.8,39.2,39c12.5-1,45.4,35.3,44.5,62
			c21.6,24.3-7.9,47.3-9,51.8c0.8,2.5,5.2,13.6,3.5,22.1c-2,10-14.7,20.9-15.2,21.3c-8.9,6.4-15.5,13.6-26.1,11.7
			c-10.9-2-8.9-12.1-12.1-14.6c-7,6.2-17.6,11.5-31.1,10.5c-1.6-0.3-7.5-0.9-8.2-0.9c-6.5,38.3-5.6,123.8,21.5,123.8
			C628.4,699.9,716.6,621.1,715.5,511.8L715.5,511.8z"/>
		<path class="st1" d="M291.9,511.8c0-108.4,84.7-203,191.5-209.2C330.3,288.4,233,397.2,233,511.8c0,114.7,99.6,225.5,250.4,209.2
			C376.6,714.8,291.9,620.2,291.9,511.8L291.9,511.8z"/>
		<path class="st1" d="M540.6,302.6C647.4,308.8,732,403.5,732,511.8c0,108.4-84.7,203-191.5,209.2C695.3,734.7,791,626.5,791,511.8
			C791,397.2,695.7,289.2,540.6,302.6L540.6,302.6z"/>
	</g>
</g>
</svg>
