<?xml version="1.0" encoding="utf-8"?>
<!-- Generator: Adobe Illustrator 21.0.0, SVG Export Plug-In . SVG Version: 6.00 Build 0)  -->
<svg version="1.1" xmlns="http://www.w3.org/2000/svg" xmlns:xlink="http://www.w3.org/1999/xlink" x="0px" y="0px"
	 viewBox="0 0 1024 1024" style="enable-background:new 0 0 1024 1024;" xml:space="preserve">
<style type="text/css">
	.st0{fill:#031B4E;}
	.st1{fill:#FFFFFF;}
</style>
<g id="Min_Guides__x28_DO_NOT_REMOVE_x29_">
</g>
<g id="Max_Guides__x28_DO_NOT_REMOVE_x29_">
</g>
<g id="Icon">
	<circle class="st0" cx="512" cy="512" r="512"/>
	<path class="st1" d="M668,415.5c0,16.6-69.9,30.2-156,30.2s-156-13.6-156-30.2v85c0,17.1,69.9,30.7,156,30.7s156-13.6,156-30.7
		V415.5z M512,556.4c86.1,0,156-13.6,156-30.2v85.5c0,16.6-69.9,30.2-156,30.2s-156-13.6-156-30.2v-85.5
		C356,542.8,425.9,556.4,512,556.4z M668,636.9c0,16.6-69.9,30.2-156,30.2s-156-13.6-156-30.2v85.5c0,16.6,69.9,30.2,156,30.2
		s156-13.6,156-30.2V636.9z M668,340L512,239.4L356,340v55.4c0,14.1,69.9,25.2,156,25.2s156-11.1,156-25.2V340z"/>
</g>
</svg>
