<svg xmlns="http://www.w3.org/2000/svg" viewBox="0 0 1024 1024">
   <circle cx="512" cy="512" r="512" style="fill:#de3723"/>
   <path d="M632.48 636.77a51.92 51.92 0 0 0 22.41 21.18 52.61 52.61 0 0 1-22.52 5.28h-69.8a51.41 51.41 0 0 1-44.52-26L391.57 387.14a51.64 51.64 0 0 0-22.16-21 50.92 50.92 0 0 1 22.68-5.28h69.39a51.48 51.48 0 0 1 44.57 26zM420.25 468.6l-38.61-75.91c-4.75-8.92-13.24-14.95-22.39-18.86-4.64 3.75-8.89 8-11.88 13.22-4.17 7.95-99.88 196.73-103.93 204.45a51.07 51.07 0 0 0 91.37 45.5zm360.48-36.24a51.07 51.07 0 0 0-26.42-67.22 51 51 0 0 0-20.31-4.28l-.07-.25a51.13 51.13 0 0 0-44.7 26.32L604 555.6l38.42 75.6c4.85 9.08 13.42 15.11 22.7 19.09 5.73-4.55 10.76-10.1 13.76-16.88z" style="fill:#fff"/>
</svg>
