<svg xmlns="http://www.w3.org/2000/svg" viewBox="0 0 1024 1024" style="enable-background:new 0 0 1024 1024" xml:space="preserve">
   <circle cx="512" cy="512" r="512" style="fill:#fd5000"/>
   <path d="m426.5 455.7-33.1-65-1.8-3.6a51.18 51.18 0 0 0-22.2-21c3.1-1.5 6.3-2.7 9.7-3.6 4.2-1.1 8.6-1.6 13-1.6h69.4c18.4.1 35.4 10 44.6 26l1.8 3.6 89.7 177.8 33.1 65 1.8 3.6c5.2 9.2 13 16.6 22.4 21.2-7 3.4-14.7 5.2-22.5 5.3h-69.8c-18.4-.1-35.4-10-44.5-26l-1.9-3.6-89.7-178.1zm327.8-90.6c-6.4-2.8-13.3-4.2-20.3-4.3l-.1-.3c-18.6 0-35.7 10.1-44.7 26.3l-1 2.1-39.8 79-44.2 87.1 3.9 7.7 33.1 65 1.7 3.3c4 7 10 12.6 17.2 16.2l6.1 3c4.3-3.8 8-8.3 10.9-13.4l1.8-3.6 99.5-196.3 2.4-4.7c11.2-25.7-.6-55.8-26.5-67.1zM382.9 396l-1.7-3.3c-4-6.9-9.8-12.5-17-16l-6-3c-4.3 3.8-8 8.3-10.8 13.3l-1.9 3.6-99.6 196.1-2.4 4.7c-11.5 25.8.1 56 25.8 67.5 24.2 10.8 52.7 1.3 65.5-22l1.1-2.1 40.1-79 44-86.8-4.1-8-33-65z" style="fill:#fff"/>
</svg>
