<?xml version="1.0" encoding="utf-8"?>
<!-- Generator: Adobe Illustrator 21.0.0, SVG Export Plug-In . SVG Version: 6.00 Build 0)  -->
<svg version="1.1" xmlns="http://www.w3.org/2000/svg" xmlns:xlink="http://www.w3.org/1999/xlink" x="0px" y="0px"
	 viewBox="0 0 1024 1024" style="enable-background:new 0 0 1024 1024;" xml:space="preserve">
<style type="text/css">
	.st0{fill:#FD5000;}
	.st1{fill:#FFFFFF;}
</style>
<g id="Guides">
</g>
<g id="Icon">
	<circle class="st0" cx="512" cy="512" r="512"/>
	<g>
		<path class="st1" d="M426.5,455.7l-33.1-65l-1.8-3.6c-5.1-9.1-12.8-16.4-22.2-21c3.1-1.5,6.3-2.7,9.7-3.6c4.2-1.1,8.6-1.6,13-1.6
			h69.4c18.4,0.1,35.4,10,44.6,26l1.8,3.6l89.7,177.8l33.1,65l1.8,3.6c5.2,9.2,13,16.6,22.4,21.2c-7,3.4-14.7,5.2-22.5,5.3h-69.8
			c-18.4-0.1-35.4-10-44.5-26l-1.9-3.6L426.5,455.7z"/>
		<path class="st1" d="M754.3,365.1c-6.4-2.8-13.3-4.2-20.3-4.3l-0.1-0.3c-18.6,0-35.7,10.1-44.7,26.3l-1,2.1l-39.8,79l-44.2,87.1
			l3.9,7.7l33.1,65l1.7,3.3c4,7,10,12.6,17.2,16.2l6.1,3c4.3-3.8,8-8.3,10.9-13.4l1.8-3.6l99.5-196.3l2.4-4.7
			C792,406.5,780.2,376.4,754.3,365.1z"/>
		<path class="st1" d="M382.9,396l-1.7-3.3c-4-6.9-9.8-12.5-17-16l-6-3c-4.3,3.8-8,8.3-10.8,13.3l-1.9,3.6l-99.6,196.1l-2.4,4.7
			c-11.5,25.8,0.1,56,25.8,67.5c24.2,10.8,52.7,1.3,65.5-22l1.1-2.1l40.1-79l44-86.8l-4.1-8L382.9,396z"/>
	</g>
</g>
</svg>
