<svg xmlns="http://www.w3.org/2000/svg" viewBox="0 0 1024 1024">
  <circle cx="512" cy="512" r="512" style="fill:#3a7f3d"/>
  <path d="M387.57 316.4C314.884 316.4 256 375.57 256 448.42v69.918c0 72.868 58.917 132.02 131.57 132.02h-3.117l121.28 149.8v-153.25l130.5 3.447h.191c72.686 0 131.57-59.17 131.57-132.02V448.45c0-72.868-58.917-132.02-131.57-132.02h-242.78l-.031-.031h-6.041zm-.627 29.199H636.421c56.941 0 102.4 45.582 102.4 102.85v69.885c0 57.231-45.387 102.81-102.32 102.85l-159.94-4.227v100.82l-78.199-96.59h-10.797c-56.94 0-102.4-45.582-102.4-102.85V448.42c0-57.046 45.101-102.48 101.78-102.82zm171.07 79.795c-9.954 0-18.121 2.86-24.502 8.576-6.33 5.717-9.494 12.914-9.494 21.592 0 4.645.79 8.883 2.373 12.711 1.633 3.829 3.93 7.146 6.89 9.953 3.012 2.757 8.806 6.304 17.382 10.643 8.626 4.288 14.32 8.168 17.076 11.64 2.756 3.47 4.134 7.12 4.134 10.948 0 8.167-5.845 12.252-17.535 12.252-7.605 0-15.338-2.756-23.199-8.27l-7.351 17.84c8.422 5.412 17.866 8.116 28.33 8.116 12.047 0 21.643-2.934 28.789-8.805 7.197-5.87 10.797-13.348 10.797-22.434 0-5.053-.868-9.623-2.604-13.707-1.735-4.134-4.262-7.732-7.58-10.795-3.318-3.114-8.729-6.508-16.232-10.184-14.242-6.942-21.36-13.629-21.36-20.06 0-3.88 1.248-7.02 3.75-9.419 2.551-2.45 6.126-3.676 10.72-3.676 7.759 0 15.134 2.502 22.127 7.504l6.049-17.152c-6.074-4.849-15.593-7.273-28.56-7.273zm-225.03 1.914v112.25h19.143v-69.525l54.439 70.98h8.115v-113.7h-19.14V495l-52.987-67.688h-9.57zm104.67 0v112.17h19.908v-51.3h39.432v-16.92h-39.432v-26.265h53.98v-17.688h-73.889zm171.67 0v112.25h19.141v-69.525l54.441 70.98h8.115v-113.7h-19.143V495l-52.984-67.688h-9.57z" style="fill:#fff"/>
</svg>
