<svg xmlns="http://www.w3.org/2000/svg" viewBox="0 0 1024 1024">
  <circle cx="512" cy="512" r="512" style="fill:#3a7f3d"/>
  <path d="M387.57 316.4C314.884 316.4 256 375.57 256 448.42v69.918c0 72.868 58.917 132.02 131.57 132.02h-3.117l121.28 149.8v-153.25l130.5 3.447h.191c72.686 0 131.57-59.17 131.57-132.02V448.45c0-72.868-58.917-132.02-131.57-132.02h-242.78l-.031-.031h-6.041zm-.627 29.199H636.421c56.941 0 102.4 45.582 102.4 102.85v69.885c0 57.231-45.387 102.81-102.32 102.85l-159.94-4.227v100.82l-78.199-96.59h-10.797c-56.94 0-102.4-45.582-102.4-102.85V448.42c0-57.046 45.101-102.48 101.78-102.82zm172.98 76.801c-9.946 0-18.112 2.858-24.492 8.572-6.323 5.715-9.49 12.905-9.49 21.584 0 4.644.791 8.883 2.375 12.71a29.517 29.517 0 0 0 6.887 9.95c3.009 2.756 8.807 6.305 17.379 10.645 8.622 4.29 14.31 8.167 17.066 11.64 2.755 3.471 4.13 7.12 4.13 10.947 0 8.166-5.84 12.246-17.529 12.246-7.602 0-15.332-2.756-23.188-8.268l-7.35 17.834-.081.076c8.426 5.404 17.865 8.11 28.318 8.11 12.044 0 21.635-3.005 28.78-8.872 7.198-5.866 10.798-13.34 10.798-22.426 0-5.055-.8-9.623-2.535-13.703a30.585 30.585 0 0 0-7.577-10.797c-3.32-3.11-8.73-6.505-16.232-10.18-14.229-6.943-21.35-13.628-21.35-20.059 0-3.877 1.248-7.006 3.75-9.414 2.484-2.452 6.128-3.674 10.721-3.674 7.755 0 15.13 2.432 22.123 7.5l6.05-17.148c-6.076-4.846-15.592-7.273-28.554-7.273zm-124.37 1.92v112.13h19.893v-51.285h39.426V468.25h-39.426v-26.254l.014-.006h53.965v-17.676h-73.871zm-97.799.006v112.22h19.133v-69.498l54.422 70.955h8.045v-113.67H400.22v67.662l-52.963-67.662h-9.504zm270.41 0v112.22h19.131v-69.498l54.422 70.955h8.045v-113.67h-19.133v67.662l-52.963-67.662h-9.502z" style="fill:#fff"/>
</svg>
