<svg xmlns="http://www.w3.org/2000/svg" viewBox="0 0 1024 1024">
   <circle cx="512" cy="512" r="512" style="fill:#1e5078"/>
   <path d="M768 512a254.86 254.86 0 0 1-55 158.49c-.06 0 15.43-79.76 15.45-159.25 0-79-15.47-157.84-15.48-157.91A254.77 254.77 0 0 1 768 512zM357.3 308a256.06 256.06 0 0 1 338.52 25.8S734.52 755 357.3 308zm297.62 416.4a256.09 256.09 0 0 1-333.59-41.6s-29.72-439.37 333.59 41.6zM256 512a261.09 261.09 0 0 1 43.81-144.74s-12.87 72-12.87 144 12.88 144 12.89 144C272.33 614.59 256 562.4 256 512z" style="fill:#fff"/>
</svg>
