<?xml version="1.0" encoding="utf-8"?>
<!-- Generator: Adobe Illustrator 21.0.0, SVG Export Plug-In . SVG Version: 6.00 Build 0)  -->
<svg version="1.1" xmlns="http://www.w3.org/2000/svg" xmlns:xlink="http://www.w3.org/1999/xlink" x="0px" y="0px"
	 viewBox="0 0 1024 1024" style="enable-background:new 0 0 1024 1024;" xml:space="preserve">
<style type="text/css">
	.st0{fill:#20C6B7;}
	.st1{fill:#FFFFFF;}
</style>
<g id="Min_Guides__x28_DO_NOT_REMOVE_x29_">
</g>
<g id="Max_Guides__x28_DO_NOT_REMOVE_x29_">
</g>
<g id="Icon">
	<circle id="Background" class="st0" cx="512" cy="512" r="512"/>
	<path class="st1" d="M626.9,433.7l-0.2-0.1c-0.1,0-0.2-0.1-0.3-0.2c-0.3-0.3-0.4-0.8-0.4-1.2l10.3-63.1l48.4,48.4l-50.3,21.4
		c-0.1,0.1-0.3,0.1-0.4,0.1h-0.2c-0.1,0-0.1-0.1-0.3-0.2C631.7,436.7,629.4,435,626.9,433.7z M697.1,429.8l51.8,51.8
		c10.7,10.8,16.1,16.1,18.1,22.4c0.3,0.9,0.5,1.8,0.7,2.8L644,454.3c-0.1,0-0.1-0.1-0.2-0.1c-0.5-0.2-1.1-0.4-1.1-0.9
		s0.6-0.7,1.1-0.9l0.2-0.1C644,452.3,697.1,429.8,697.1,429.8z M765.6,523.3c-2.7,5-7.9,10.2-16.7,19.1l-58.4,58.3L615.1,585
		l-0.4-0.1c-0.7-0.1-1.4-0.2-1.4-0.8c-0.6-6.3-3.7-12.1-8.7-15.9c-0.3-0.3-0.2-0.8-0.1-1.2c0-0.1,0-0.1,0-0.2l14.2-87.1l0.1-0.3
		c0.1-0.7,0.2-1.4,0.8-1.4c6.1-0.8,11.7-4,15.5-8.9c0.1-0.1,0.2-0.3,0.4-0.4c0.4-0.2,0.9,0,1.4,0.2L765.6,523.3L765.6,523.3z
		 M677.1,614.2l-96,96l16.4-100.9l0-0.1c0-0.1,0-0.3,0.1-0.4c0.1-0.3,0.5-0.5,0.8-0.6l0.2-0.1c3.6-1.5,6.8-3.9,9.3-6.9
		c0.3-0.4,0.7-0.7,1.2-0.8c0.1,0,0.3,0,0.4,0L677.1,614.2L677.1,614.2z M560.9,730.4l-10.8,10.8L430.5,568.4c0-0.1-0.1-0.1-0.1-0.2
		c-0.2-0.3-0.4-0.5-0.3-0.8c0-0.2,0.1-0.4,0.3-0.6l0.1-0.2c0.4-0.5,0.7-1.1,1-1.6l0.3-0.5l0,0c0.2-0.3,0.4-0.6,0.7-0.8
		c0.3-0.1,0.7-0.1,1,0l132.5,27.3c0.4,0.1,0.7,0.2,1,0.4c0.2,0.2,0.2,0.4,0.3,0.6c1.9,7.1,7,12.9,13.7,15.7c0.4,0.2,0.2,0.6,0,1
		c-0.1,0.2-0.2,0.4-0.2,0.6C579,619.6,564.7,706.9,560.9,730.4z M538.3,753c-8,7.9-12.7,12.1-18,13.8c-5.2,1.7-10.9,1.7-16.1,0
		c-6.2-2-11.6-7.3-22.4-18.1L361.8,628.6l31.4-48.6c0.1-0.2,0.3-0.5,0.5-0.6c0.3-0.2,0.8-0.1,1.2,0c7.2,2.2,14.9,1.8,21.9-1.1
		c0.4-0.1,0.7-0.2,1,0c0.1,0.1,0.3,0.3,0.4,0.4L538.3,753L538.3,753z M350.2,617l-27.5-27.5l54.4-23.2c0.1-0.1,0.3-0.1,0.4-0.1
		c0.5,0,0.7,0.5,1,0.9c0.5,0.8,1.1,1.7,1.7,2.5l0.2,0.2c0.2,0.2,0.1,0.5-0.1,0.7L350.2,617L350.2,617z M310.4,577.2l-34.9-34.9
		c-5.9-5.9-10.2-10.2-13.2-13.9l106,22c0.1,0,0.3,0,0.4,0.1c0.7,0.1,1.4,0.2,1.4,0.8c0,0.7-0.8,1-1.5,1.2l-0.3,0.1
		C368.4,552.7,310.4,577.2,310.4,577.2z M256.3,510.6c0.1-2.2,0.5-4.5,1.2-6.6c2-6.2,7.3-11.6,18.1-22.4l44.6-44.6
		c20.5,29.8,41.1,59.6,61.8,89.3c0.4,0.5,0.8,1,0.3,1.4c-1.9,2.1-3.9,4.5-5.3,7.1c-0.1,0.3-0.4,0.6-0.7,0.8c-0.2,0.1-0.4,0.1-0.6,0
		h0L256.3,510.6L256.3,510.6z M332.1,425.1l60-60c5.6,2.5,26.1,11.1,44.5,18.9c13.9,5.9,26.5,11.2,30.5,13c0.4,0.2,0.8,0.3,0.9,0.7
		c0.1,0.2,0.1,0.5,0,0.8c-1.9,8.8,0.7,18,7,24.4c0.4,0.4,0,1-0.3,1.5l-0.2,0.3l-60.9,94.3c-0.2,0.3-0.3,0.5-0.6,0.7
		c-0.3,0.2-0.8,0.1-1.1,0c-2.4-0.6-4.8-1-7.3-1c-2.2,0-4.6,0.4-7,0.8h0c-0.3,0-0.5,0.1-0.7-0.1c-0.2-0.2-0.4-0.4-0.6-0.7
		C396.3,518.7,332.1,425.1,332.1,425.1z M404.2,353l77.6-77.6c10.7-10.7,16.1-16.1,22.4-18.1c5.2-1.7,10.9-1.7,16.1,0
		c6.2,2,11.6,7.3,22.4,18.1l16.8,16.8l-55.2,85.5c-0.1,0.2-0.3,0.5-0.5,0.6c-0.3,0.2-0.8,0.1-1.2,0c-8.8-2.7-18.4-0.8-25.6,4.9
		c-0.4,0.4-0.9,0.2-1.3,0C468.3,380.1,412.2,356.4,404.2,353z M571.2,303.9l51,51L609.9,431v0.2c0,0.2,0,0.3-0.1,0.5
		c-0.1,0.3-0.4,0.3-0.7,0.4c-2.6,0.8-5.1,2-7.3,3.6c-0.1,0.1-0.2,0.1-0.3,0.2c-0.1,0.2-0.3,0.3-0.5,0.3c-0.2,0-0.4,0-0.6-0.1
		l-77.7-33l-0.1-0.1c-0.5-0.2-1.1-0.4-1.1-0.9c-0.5-4.3-1.9-8.5-4.1-12.2c-0.4-0.6-0.8-1.3-0.5-1.9
		C516.9,388,571.2,303.9,571.2,303.9z M518.7,418.8l72.8,30.8c0.4,0.2,0.8,0.4,1,0.8c0.1,0.2,0.1,0.5,0,0.8
		c-0.2,1.1-0.4,2.3-0.4,3.5v2c0,0.5-0.5,0.7-1,0.9l-0.1,0.1c-11.5,4.9-162,69.1-162.2,69.1s-0.5,0-0.7-0.2c-0.4-0.4,0-1,0.4-1.5
		c0.1-0.1,0.1-0.2,0.2-0.3l59.8-92.7l0.1-0.2c0.3-0.6,0.7-1.2,1.4-1.2l0.6,0.1c1.4,0.2,2.6,0.4,3.8,0.4c9.1,0,17.5-4.4,22.6-12
		c0.1-0.2,0.3-0.4,0.5-0.5C517.7,418.5,518.3,418.6,518.7,418.8z M435.3,541.5l164-69.9c0,0,0.2,0,0.5,0.2c0.9,0.9,1.7,1.5,2.4,2.1
		l0.4,0.2c0.3,0.2,0.7,0.4,0.7,0.7c0,0.1,0,0.2,0,0.3l-14,86.3l-0.1,0.3c-0.1,0.7-0.2,1.4-0.8,1.4c-7.6,0.5-14.5,4.7-18.3,11.3
		l-0.1,0.1c-0.2,0.3-0.4,0.6-0.7,0.8c-0.3,0.1-0.6,0.1-0.9,0l-130.8-27C437.3,548.4,435.4,541.5,435.3,541.5z"/>
</g>
</svg>
