<?xml version="1.0" encoding="utf-8"?>
<!-- Generator: Adobe Illustrator 21.0.0, SVG Export Plug-In . SVG Version: 6.00 Build 0)  -->
<svg version="1.1" xmlns="http://www.w3.org/2000/svg" xmlns:xlink="http://www.w3.org/1999/xlink" x="0px" y="0px"
	 viewBox="0 0 1024 1024" style="enable-background:new 0 0 1024 1024;" xml:space="preserve">
<style type="text/css">
	.st0{fill:#EF7C29;}
	.st1{fill:#FFFFFF;}
</style>
<g id="Guides">
</g>
<g id="Icon">
	<circle class="st0" cx="512" cy="512" r="512"/>
	<g>
		<g id="layer6_1_" transform="translate(-33.024334,-1337.6177)">
			<g id="g4668_1_" transform="matrix(0.13327437,0,0,0.13327437,30.356488,1335.1328)">
				<g id="g4663_1_">
					<path id="path4491_1_" class="st1" d="M3395.6,2813.9c-15.9,0.1-32,0.6-48.2,1.7c-382.5,25.3-831.5,330-1048.6,673.8
						c-290.7,460.2-197.4,1040.9,208.4,1297.2c118.9,75,251.5,113.7,386.8,119.3c135.7,5.8,272.4-17.8,402.6-75.1
						c-646.2-337.5-493.5-1062.4-295.3-1349.6c153.2-242.7,430.5-470.7,705-582.9c-1.6-1.1-3.3-2.1-4.9-3.2
						C3611.6,2838.5,3507.1,2813.5,3395.6,2813.9z"/>
					<path id="path4485_1_" class="st1" d="M2647.9,2820.3c-392.9-0.8-873.6,316-1100.6,675.5
						c-290.7,460.2-197.4,1040.9,208.4,1297.2c233.5,147.4,519.6,155.2,775.8,47.4c-34.1-15.1-67.3-32.8-99.6-53.2
						c-405.8-256.3-498.9-836.9-208.4-1297.2c156.5-247.9,433.7-475.4,719.5-592.6C2855.8,2844.4,2755.1,2820.5,2647.9,2820.3z"/>
				</g>
			</g>
		</g>
		<g id="layer8" transform="translate(-33.433072,-1339.3989)">
			<g id="g4693" transform="matrix(0.13327437,0,0,0.13327437,30.710751,1336.6766)">
				<g>
					<path class="st1" d="M3826.9,3745.4c-13.9,0.1-23.6,4.3-28.9,12.8c-5.5,8.6-13.1,31.5-22.7,68.5l-12.5,48.4l58-0.4l12.5-48.4
						c8.9-34.3,12.7-56.4,11.5-66.3C3843.7,3750.1,3837.8,3745.2,3826.9,3745.4z"/>
					<path class="st1" d="M4540.6,4291.5l-214.9,1.9c9-80.4,22.8-186.7,41.1-319.1c-22.1,58.7-45.6,117.4-70.5,176.3l-57.6,143.5
						l-214.8,2l85.7-657.4l170.7-1.5c-2.4,17.1-20.2,143-53.7,378c9.6-25.1,57.4-151.4,143.5-378.7l162.9-1.4l-56.4,378
						c35.4-111.3,83.3-237.5,143.5-378.7l162.1-1.3c9.8-313.3-77.4-606-293.7-742.5c-102.5-64.8-224.4-88.3-353.7-79.7
						c-382.4,25.3-831.5,330-1048.7,673.8c-156.7,248.1-201.6,531.1-146.3,779.5l159.6-616.8l204-1.7l-19.8,60.6
						c20.8-24.2,43.3-42.5,67.1-54.7c23.8-12.1,49.5-18.3,77-18.5c34-0.2,59.8,7.5,77.3,23.5c17.6,16.1,26.2,36.4,26,61
						c-0.2,24.5-7.8,65.5-22.8,123L3389,4301.4l-200,1.7l117.9-455.9c11.9-45.2,17.4-72.8,17.3-82.7c-0.4-9.9-7.1-14.8-20.5-14.7
						c-13.6,0.2-23.7,5.9-30.4,17.3c-6.6,11.4-16.3,42-29.2,91.6L3129,4303.5l-179.1,1.6c53.1,195.3,169.7,366.1,344.6,476.5
						c118.9,75.1,251.5,113.7,386.9,119.5c326.2,13.9,668.4-163.9,873.8-489.2c131.3-208,213.2-486.5,226-753L4540.6,4291.5z
						 M3993.1,3979.5L3993.1,3979.5l-257.9,2.2l-36.9,142.4c-7.7,29.8-10.5,49-8.6,57.6c2,8.5,9,12.7,21.1,12.7
						c14.8-0.1,26.1-6,34.3-17.3c7.8-11.5,16.1-33.7,24.6-66.4l22.5-87l189.9-1.6l-12.5,48.6c-10.5,40.7-21.2,71.8-31.9,93.8
						c-10.8,21.8-28.7,45.3-53.9,70.2c-25.1,24.8-53.7,43.7-85.7,56.3c-31.9,12.6-69.7,19.1-113.3,19.4
						c-41.9,0.5-77.4-5.3-106.6-17.2c-29.2-12-50-28.5-62.4-49.8c-12.4-21.1-18.8-44.4-19.2-69.9c-0.4-25.6,5.9-62.8,18.5-111.7
						l49.7-191.8c14.8-57.5,34.2-102.8,58.3-136.2c24.1-33.3,56.1-59,95.8-76.9c40-17.9,82.6-27.1,128.2-27.5
						c56-0.5,99.4,9.9,130.3,30.7c31,21,49.1,49.1,54.6,84.1c5.5,35.1,0.2,84.5-16.3,148.3L3993.1,3979.5z"/>
				</g>
				<path id="path4709" class="st1" d="M5039.3,3863l12.5-48.4c8.7-34.3,12.7-56.4,11.5-66.3c-1.1-10-7.1-14.9-18-14.8
					c-14,0.1-23.6,4.3-29,12.9c-5.4,8.6-12.9,31.4-22.4,68.6l-12.7,48.4L5039.3,3863z M5211.5,3967.7l-257.8,2.2l-36.9,142.2
					c-7.6,29.9-10.6,49.1-8.6,57.6c1.9,8.6,8.9,12.9,21.1,12.7c14.7-0.1,26.2-5.8,34.3-17.3c7.9-11.6,16.1-33.7,24.6-66.4l22.5-86.9
					l189.9-1.6l-12.7,48.5c-10.4,40.6-20.9,71.9-31.8,93.7c-10.9,21.9-28.8,45.2-53.9,70.2c-25.2,24.9-53.7,43.8-85.7,56.4
					c-32,12.6-69.7,19.1-113.4,19.5c-42,0.4-77.2-5.5-106.6-17.5c-29.2-11.9-50-28.4-62.3-49.6c-12.4-21.2-18.8-44.5-19.2-70
					c-0.3-25.6,5.8-62.7,18.5-111.7l49.6-191.7c14.8-57.5,34.5-102.9,58.5-136.2c23.9-33.4,56-58.9,95.8-77
					c39.7-18,82.6-27.2,128.2-27.5c55.9-0.5,99.2,9.7,130.2,30.8c31,21.1,49.1,48.9,54.7,84c5.6,35.2,0.2,84.5-16.3,148.3
					L5211.5,3967.7"/>
				<path id="path4711" class="st1" d="M5575.1,3798.8c7.8-30.1,10.9-49.3,9.4-57.5c-1.5-8.2-8-12.3-19.6-12.3
					c-11.8,0.2-21.1,4.9-28.2,14.4c-7.4,9.6-14.5,28.2-21.7,55.9l-57.2,221.5c-7.8,29.4-10.9,48.4-9.6,57.2
					c1.3,8.9,7.8,13.1,19.4,13c13-0.1,22.9-5.3,29.8-16c6.8-10.7,15-34.8,24.7-72.1L5575.1,3798.8z M5820.2,3622.6L5689,4129.8
					c-17.9,68.6-31,113-39.4,132.8c-8.4,20.1-25.1,41.2-50.1,63.9c-24.7,22.4-55.7,39.7-92.8,51.7c-37.2,12.1-81.6,18.4-133,18.9
					c-63.9,0.5-112.2-10-145.1-31.3c-32.9-21.5-41.8-64-26.7-127.6l194-1.7c-7.7,29.7-1,44.5,20.6,44.3c14.9-0.1,26.4-4.7,33.8-13.9
					c7.3-9.2,14.8-28.1,22.2-56.9l13-50.3c-21.2,15.7-42.1,27.7-63.3,35.9c-21.1,8.1-42,12.1-63,12.4c-35.9,0.3-63.8-6.8-83.2-21.1
					c-19.5-14.3-30.5-33.1-33.1-56.8c-2.8-23.4,1.5-57,12.9-100.7l61.8-238.6c16.3-62.4,39-107.3,68.7-135
					c29.5-27.5,67.3-41.5,112.9-41.9c24.9-0.2,46.3,4.8,64.3,14.8c18.1,10.1,32.5,25.4,43.7,45.8l26.9-50.1L5820.2,3622.6"/>
				<path id="path4713" class="st1" d="M6100.7,3794.4c7.7-30.1,10.9-49.2,9.4-57.6c-1.3-8.3-8-12.3-19.5-12.2
					c-11.7,0.1-21.1,4.8-28.5,14.4c-6.9,9.5-14.1,28.1-21.4,55.8l-57.4,221.5c-7.5,29.4-10.7,48.3-9.4,57.3
					c1.1,8.7,7.7,13,19.4,12.9c12.9-0.1,22.8-5.3,29.5-16.1c6.9-10.7,15.2-34.7,24.9-72.1L6100.7,3794.4z M6345.7,3618.1
					l-131.4,507.2c-17.6,68.6-30.8,112.8-39.2,132.8c-8.4,19.9-24.9,41.2-49.9,63.7c-24.9,22.6-55.9,39.8-93,51.9
					c-37.1,12-81.4,18.3-133,18.6c-63.8,0.7-112-9.8-144.9-31.1c-33.1-21.5-42-63.9-26.8-127.6l193.9-1.6
					c-7.6,29.7-1,44.4,20.6,44.3c15.1-0.2,26.5-4.8,33.8-13.9c7.4-9.2,14.6-28.2,22.3-56.9l13-50.4c-21,15.8-42.2,27.7-63.3,35.8
					c-20.9,8.1-41.8,12.3-62.8,12.5c-36.1,0.1-63.8-6.7-83.2-21c-19.6-14.3-30.5-33.4-33.1-56.9c-2.7-23.5,1.6-57,12.8-100.7
					l61.7-238.7c16.1-62.3,39.2-107.2,68.7-134.9c29.8-27.6,67.3-41.7,113.1-42c24.9-0.2,46.3,4.7,64.3,14.9
					c17.9,10.1,32.5,25.3,43.5,45.7l27.1-50.1L6345.7,3618.1"/>
			</g>
		</g>
	</g>
</g>
</svg>
