<svg xmlns="http://www.w3.org/2000/svg" viewBox="0 0 1024 1024" style="enable-background:new 0 0 1024 1024" xml:space="preserve">
   <circle cx="512" cy="512" r="512" style="fill:#2853c3"/>
   <path d="m372.1 421.9 8.1 4.7 7.8 4.5 248 143.3v-134l-23.1-13.3L496 359.7l-114.9-66.4c-.7-.4-1.6-.4-2.2 0l-115 66.4 108.2 62.2zM636 297.2l-108.1 62.5L636 422.1V297.2zm15.9 152.4v134l116.1 67V365.5c0-.8-.4-1.6-1.2-1.9l-115-66.4v152.4zm-16 143.2L388 449.6v134l254.8 147.1c.7.4 1.6.4 2.2 0l115-66.4-2.6-1.5-121.5-70zM372.1 440.4l-116.1-67v285.1c0 .8.4 1.6 1.2 1.9l115 66.4V440.4zM496 664.3l-108-62.4v124.9l108-62.5z" style="fill:#fff"/>
</svg>
