<?xml version="1.0" encoding="utf-8"?>
<!-- Generator: Adobe Illustrator 21.0.0, SVG Export Plug-In . SVG Version: 6.00 Build 0)  -->
<svg version="1.1" xmlns="http://www.w3.org/2000/svg" xmlns:xlink="http://www.w3.org/1999/xlink" x="0px" y="0px"
	 viewBox="0 0 1024 1024" style="enable-background:new 0 0 1024 1024;" xml:space="preserve">
<style type="text/css">
	.st0{fill:#2853C3;}
	.st1{fill:#FFFFFF;}
</style>
<g id="Min_Guides__x28_DO_NOT_REMOVE_x29_">
</g>
<g id="Max_Guides__x28_DO_NOT_REMOVE_x29_">
</g>
<g id="Icon">
	<circle id="Background" class="st0" cx="512" cy="512" r="512"/>
	<path class="st1" d="M372.1,421.9l8.1,4.7l7.8,4.5l248,143.3V440.4l-23.1-13.3L496,359.7l-114.9-66.4c-0.7-0.4-1.6-0.4-2.2,0
		l-115,66.4L372.1,421.9z M636,297.2l-108.1,62.5L636,422.1V297.2z M651.9,449.6v134L768,650.6V365.5c0-0.8-0.4-1.6-1.2-1.9
		l-115-66.4V449.6z M635.9,592.8L388,449.6v134l254.8,147.1c0.7,0.4,1.6,0.4,2.2,0l115-66.4l-2.6-1.5L635.9,592.8z M372.1,440.4
		L256,373.4v285.1c0,0.8,0.4,1.6,1.2,1.9l115,66.4V440.4z M496,664.3L388,601.9v124.9L496,664.3z"/>
</g>
</svg>
