<svg xmlns="http://www.w3.org/2000/svg" viewBox="0 0 1024 1024">
   <circle cx="512" cy="512" r="512" style="fill:#0082c9"/>
   <path d="M512.46 370.87c-64.58 0-118.83 44.23-135.39 103.72-14.47-31.83-46.32-54.38-83.31-54.38a91.79 91.79 0 0 0 0 183.57c37 0 68.82-22.58 83.29-54.4 16.56 59.52 70.83 103.75 135.42 103.75 64.25 0 118.21-43.74 135.13-102.74 14.7 31.26 46.06 53.4 82.61 53.4a91.79 91.79 0 0 0 0-183.57c-36.58 0-67.94 22.16-82.64 53.4-16.89-59.01-70.86-102.77-135.11-102.75Zm0 53.86a87.27 87.27 0 1 1-87.24 88.07v-.8a86.85 86.85 0 0 1 87.24-87.26Zm-218.7 49.34a37.92 37.92 0 1 1-37.9 38.73v-.81a37.48 37.48 0 0 1 37.9-37.9Zm436.45 0a37.92 37.92 0 1 1-37.9 38.73v-.81a37.48 37.48 0 0 1 37.9-37.9Z" style="fill:#fff"/>
</svg>
