<svg xmlns="http://www.w3.org/2000/svg" viewBox="0 0 1024 1024">
   <circle cx="512" cy="512" r="512" style="fill:#05f"/>
   <path d="M506.46 256.48a32.72 32.72 0 0 1 25.64 6.45c8 6.35 14.91 13.94 23.3 19.76 27.37 21.31 60.6 34.54 94.8 39.64 15 3.17 31.05 1.15 45.43 7.25a54.2 54.2 0 0 1 31.05 34.48c3.28 9.28 2.28 19.27 2.86 28.93.39 31.28 1.16 62.61-1 93.86-3 44.28-10.54 89-29.12 129.57a254.48 254.48 0 0 1-70 92c-27.22 22.61-58.68 39.72-91.57 52.52-7.25 2.46-14.21 6.14-21.94 6.86a38.7 38.7 0 0 1-15.21-1.49c-31.05-10.78-61.06-25-88-44-29.25-20.32-54.53-46.52-73-77-14.07-22.8-24.22-47.86-31.22-73.68-11.2-42.63-14.27-86.82-14.48-130.7.29-21 .16-42 1-63a54.54 54.54 0 0 1 26.92-45c4.91-3.11 10.51-4.91 16.1-6.39 12.57-2.16 25.46-1.92 38-4.53 38-5.82 74.43-22.35 103.26-47.87 8.08-7.14 15.88-16.04 27.18-17.66z" style="fill:#fff"/>
</svg>
