<?xml version="1.0" encoding="utf-8"?>
<!-- Generator: Adobe Illustrator 21.0.0, SVG Export Plug-In . SVG Version: 6.00 Build 0)  -->
<svg version="1.1" xmlns="http://www.w3.org/2000/svg" xmlns:xlink="http://www.w3.org/1999/xlink" x="0px" y="0px"
	 viewBox="0 0 1024 1024" style="enable-background:new 0 0 1024 1024;" xml:space="preserve">
<style type="text/css">
	.st0{fill:#0055FF;}
	.st1{fill:#FFFFFF;}
</style>
<g id="Min_Guides__x28_DO_NOT_REMOVE_x29_">
</g>
<g id="Max_Guides__x28_DO_NOT_REMOVE_x29_">
</g>
<g id="Icon">
	<circle id="Background" class="st0" cx="512" cy="512" r="512"/>
	<path id="NextDNS_logo__x28_traced_and_tweaked_x29_" class="st1" d="M381.1,602.6c-33.8-54.5-54.6-117.3-57.6-181.5
		c-1-15.3-1-30.6,0.1-45.9c49.5-9.9,96.8-28.9,140.9-53.2c16.9-9.5,33.5-19.4,49-31.1c35.9,26,75.4,47,116.8,62.7
		C547.2,436.4,464.5,519.8,381.1,602.6z M666.1,365.6C577.8,454.2,489.2,542.4,400.9,631c30.5,39.9,67.5,75.3,110.1,102.2
		c64.8-42.1,119-101.2,152.5-171c28.2-58.2,40.1-123.8,36.4-188.3C688.5,371.5,677.2,368.9,666.1,365.6z M742,400.3
		c-2.9,72-22.7,143.5-58.4,206.2c-36.5,64.3-88.1,119.9-149,161.8c-2.8,2.1-5.9,3.9-8.9,5.7c-2.1,1.2-4.1,2.5-6.1,3.9l-6,3.8
		c-2.3,1.5-4.1,0-4.1,0c-49.1-30.3-92-70-127.9-115c-49-61.9-82.7-136.1-94.9-214.2c-5.3-33.1-6.8-66.8-5-100.3
		c-0.1-5,3.9-9.4,8.8-9.9c55.6-11.3,108.9-32.4,158.7-59.6c21.4-12,42.7-24.5,62-39.6c0,0,3-2.7,5.8-0.1c5.8,5.2,12.5,9.3,18.9,13.7
		c56.3,37,118.6,65.6,184.3,81.1c5.5,1.5,11.4,1.8,16.7,4.1c4.6,2.5,4.8,7.7,5,12.4l0.5,6.8l0-0.1C743.3,374,743.3,387.3,742,400.3z
		 M722.5,358c-74.9-16.3-145.9-49.2-208.7-92.9c-15.6,11.5-32.3,21.4-49.1,31c-51.2,28.6-106.2,51.2-163.7,63.6
		c-4.7,88.6,19.3,178.4,66.9,253.2c37,58.4,86.3,108.9,143.7,147.3c74.4-48.4,135.4-117.7,172.3-198.5
		C713,498.2,725.8,427.6,722.5,358z"/>
</g>
</svg>
