<svg xmlns="http://www.w3.org/2000/svg" viewBox="0 0 1024 1024" style="enable-background:new 0 0 1024 1024" xml:space="preserve">
   <circle cx="512" cy="512" r="512" style="fill:#0082c9"/>
   <path d="M512.5 370.9c-64.6 0-118.8 44.2-135.4 103.7-14.5-31.8-46.3-54.4-83.3-54.4-50.6.2-91.5 41.2-91.8 91.8.2 50.6 41.2 91.5 91.8 91.8 37 0 68.8-22.6 83.3-54.4 16.6 59.5 70.8 103.7 135.4 103.7 64.2 0 118.2-43.7 135.1-102.7 14.7 31.3 46.1 53.4 82.6 53.4 50.6-.2 91.6-41.2 91.8-91.8-.2-50.6-41.2-91.6-91.8-91.8-36.6 0-67.9 22.2-82.6 53.4-16.9-59-70.9-102.8-135.1-102.7zm0 53.8c48.5 0 87.3 38.8 87.3 87.3s-38.8 87.3-87.3 87.3c-48 .2-87-38.5-87.2-86.5v-.8c-.1-48.5 38.7-87.3 87.2-87.3zm-218.7 49.4c21.2 0 37.9 16.7 37.9 37.9 0 21.3-16.6 37.9-37.9 37.9-20.7.2-37.7-16.4-37.9-37.1v-.8c0-21.3 16.6-37.9 37.9-37.9zm436.4 0c21.3 0 37.9 16.7 37.9 37.9 0 21.3-16.7 37.9-37.9 37.9-20.7.2-37.7-16.4-37.9-37.1v-.8c0-21.3 16.7-37.9 37.9-37.9z" style="fill:#fff"/>
</svg>
