<?xml version="1.0" encoding="UTF-8" standalone="no"?>
<svg
   xmlns:dc="http://purl.org/dc/elements/1.1/"
   xmlns:cc="http://creativecommons.org/ns#"
   xmlns:rdf="http://www.w3.org/1999/02/22-rdf-syntax-ns#"
   xmlns:svg="http://www.w3.org/2000/svg"
   xmlns="http://www.w3.org/2000/svg"
   viewBox="0 0 1365.3333 1365.3333"
   height="1365.3333"
   width="1365.3333"
   xml:space="preserve"
   id="svg2"
   version="1.1"><metadata
     id="metadata8"><rdf:RDF><cc:Work
         rdf:about=""><dc:format>image/svg+xml</dc:format><dc:type
           rdf:resource="http://purl.org/dc/dcmitype/StillImage" /></cc:Work></rdf:RDF></metadata><defs
     id="defs6"><clipPath
       id="clipPath18"
       clipPathUnits="userSpaceOnUse"><path
         id="path16"
         d="M 0,1024 H 1024 V 0 H 0 Z" /></clipPath></defs><g
     transform="matrix(1.3333333,0,0,-1.3333333,0,1365.3333)"
     id="g10"><g
       id="g12"><g
         clip-path="url(#clipPath18)"
         id="g14"><g
           transform="translate(1024,512)"
           id="g20"><path
             id="path22"
             style="fill:#3b80cb;fill-opacity:1;fill-rule:nonzero;stroke:none"
             d="m 0,0 c 0,-282.77 -229.23,-512 -512,-512 -282.77,0 -512,229.23 -512,512 0,282.77 229.23,512 512,512 C -229.23,512 0,282.77 0,0" /></g><g
           transform="translate(730.2139,549.9233)"
           id="g24"><path
             id="path26"
             style="fill:#ffffff;fill-opacity:1;fill-rule:nonzero;stroke:none"
             d="m 0,0 c 21.261,0 37.924,-16.663 37.924,-37.923 0,-21.261 -16.663,-37.924 -37.924,-37.924 -20.715,-0.215 -37.683,16.403 -37.897,37.118 -0.003,0.269 -0.003,0.537 0,0.806 0,21.26 16.636,37.897 37.897,37.897 z m -436.454,0 c 21.235,0 37.898,-16.663 37.898,-37.923 0,-21.261 -16.637,-37.898 -37.898,-37.924 -20.715,-0.215 -37.682,16.403 -37.898,37.118 -0.002,0.269 -0.002,0.537 0,0.806 0,21.26 16.637,37.897 37.898,37.897 z m 218.705,49.342 c 48.516,0 87.266,-38.75 87.266,-87.265 0,-48.515 -38.75,-87.265 -87.266,-87.265 -47.966,-0.215 -87.024,38.495 -87.239,86.462 -10e-4,0.268 -10e-4,0.535 0,0.803 0,48.515 38.75,87.265 87.239,87.265 m 0,53.862 c -64.583,0 -118.833,-44.226 -135.393,-103.721 -14.466,31.827 -46.318,54.379 -83.312,54.379 -50.588,-0.24 -91.534,-41.197 -91.76,-91.785 0.226,-50.588 41.172,-91.545 91.76,-91.786 36.994,0 68.82,22.579 83.287,54.405 16.559,-59.52 70.835,-103.747 135.418,-103.747 64.248,0 118.214,43.736 135.135,102.739 14.699,-31.258 46.06,-53.397 82.614,-53.397 50.604,0.212 91.574,41.182 91.786,91.786 C 91.56,12.674 50.599,53.636 0,53.862 c -36.58,0 -67.941,-22.165 -82.641,-53.397 -16.894,59.003 -70.86,102.765 -135.108,102.739" /></g></g></g></g></svg>