<?xml version="1.0" encoding="utf-8"?>
<!-- Generator: Adobe Illustrator 21.0.0, SVG Export Plug-In . SVG Version: 6.00 Build 0)  -->
<svg version="1.1" xmlns="http://www.w3.org/2000/svg" xmlns:xlink="http://www.w3.org/1999/xlink" x="0px" y="0px"
	 viewBox="0 0 1024 1024" style="enable-background:new 0 0 1024 1024;" xml:space="preserve">
<style type="text/css">
	.st0{fill:#0082C9;}
	.st1{fill:#FFFFFF;}
</style>
<g id="Guides">
</g>
<g id="Icon">
	<circle class="st0" cx="512" cy="512" r="512"/>
	<g>
		<title>Nextcloud icon</title>
		<path class="st1" d="M512.5,370.9c-64.6,0-118.8,44.2-135.4,103.7c-14.5-31.8-46.3-54.4-83.3-54.4c-50.6,0.2-91.5,41.2-91.8,91.8
			c0.2,50.6,41.2,91.5,91.8,91.8c37,0,68.8-22.6,83.3-54.4c16.6,59.5,70.8,103.7,135.4,103.7c64.2,0,118.2-43.7,135.1-102.7
			c14.7,31.3,46.1,53.4,82.6,53.4c50.6-0.2,91.6-41.2,91.8-91.8c-0.2-50.6-41.2-91.6-91.8-91.8c-36.6,0-67.9,22.2-82.6,53.4
			C630.7,414.6,576.7,370.8,512.5,370.9z M512.5,424.7c48.5,0,87.3,38.8,87.3,87.3s-38.8,87.3-87.3,87.3c-48,0.2-87-38.5-87.2-86.5
			c0-0.3,0-0.5,0-0.8C425.2,463.5,464,424.7,512.5,424.7z M293.8,474.1c21.2,0,37.9,16.7,37.9,37.9c0,21.3-16.6,37.9-37.9,37.9
			c-20.7,0.2-37.7-16.4-37.9-37.1c0-0.3,0-0.5,0-0.8C255.9,490.7,272.5,474.1,293.8,474.1L293.8,474.1z M730.2,474.1
			c21.3,0,37.9,16.7,37.9,37.9c0,21.3-16.7,37.9-37.9,37.9c-20.7,0.2-37.7-16.4-37.9-37.1c0-0.3,0-0.5,0-0.8
			C692.3,490.7,709,474.1,730.2,474.1L730.2,474.1z"/>
	</g>
</g>
</svg>
