<?xml version="1.0" encoding="utf-8"?>
<!-- Generator: Adobe Illustrator 21.0.0, SVG Export Plug-In . SVG Version: 6.00 Build 0)  -->
<svg version="1.1" xmlns="http://www.w3.org/2000/svg" xmlns:xlink="http://www.w3.org/1999/xlink" x="0px" y="0px"
	 viewBox="0 0 1024 1024" style="enable-background:new 0 0 1024 1024;" xml:space="preserve">
<style type="text/css">
	.st0{fill:#FBC342;}
	.st1{fill:#FFFFFF;}
</style>
<g id="Min_Guides__x28_DO_NOT_REMOVE_x29_">
</g>
<g id="Max_Guides__x28_DO_NOT_REMOVE_x29_">
</g>
<g id="Icon">
	<circle id="Background" class="st0" cx="512" cy="512" r="512"/>
	<path class="st1" d="M512,727.7c-118.7,0-214.3-96.2-214.3-215.7S393.3,296.3,512,296.3c118.7,0,214.3,96.2,214.3,215.7
		S630.7,727.7,512,727.7z M512,256c-140.3,0-254.3,114.8-254.3,256S371.7,768,512,768c140.3,0,254.3-114.8,254.3-256
		S652.3,256,512,256z M630.7,590.4c-9.2-6.2-21.6-3.1-27.7,6.2c0,0.8-28.5,45-90.9,45c-61.7,0-89.4-42.7-90.9-45
		c-5.4-9.3-17.7-12.4-27-6.2c-9.2,5.4-12.3,17.8-6.9,27.2c1.5,2.3,40.8,63.6,124.9,63.6c84,0,123.3-60.5,124.9-63.6
		C642.3,608.2,639.9,595.8,630.7,590.4z M616.8,514.3h-37.8v-37.2h37.8c12.3,0,20,7,20,18.6C636.9,506.6,629.2,514.3,616.8,514.3z
		 M634.5,435.2c0,10.9-6.9,17.1-19.3,17.1h-36.2v-34.1h36.2C627.6,418.1,634.5,424.3,634.5,435.2z M646.1,463.9
		c8.5-5.4,15.4-15.5,15.4-29.5c0-21.7-13.1-36.5-33.9-40.3v-11.6c0-5.4-4.6-10.1-10-10.1c-5.4,0-10,4.7-10,10.1v10.9h-15.4v-10.9
		c0-5.4-4.6-10.1-10-10.1s-10,4.7-10,10.1v10.9h-9.2c-6.2,0-11.6,5.4-11.6,11.6v122.6c0,6.2,5.4,11.6,11.6,11.6h9.2v13.2
		c0,5.4,4.6,10.1,10,10.1s10-4.7,10-10.1v-13.2h15.4v13.2c0,5.4,4.6,10.1,10,10.1c5.4,0,10-4.7,10-10.1v-14
		c22.4-3.1,36.2-18.6,36.2-41.9C663.1,482.5,656.9,470.1,646.1,463.9z M387.1,495.7c0-11.6,7.7-18.6,20-18.6h37.8v37.2h-37.8
		C394.8,514.3,387.1,506.6,387.1,495.7z M408.7,418.1h36.2v34.1h-36.2c-12.3,0-19.3-6.2-19.3-17.1
		C389.5,424.3,396.4,418.1,408.7,418.1z M397.2,552.3c0,5.4,4.6,10.1,10,10.1c5.4,0,10-4.7,10-10.1v-13.2h15.4v13.2
		c0,5.4,4.6,10.1,10,10.1c5.4,0,10-4.7,10-10.1v-13.2h9.2c6.2,0,11.6-5.4,11.6-11.6V404.2c0-6.2-5.4-11.6-11.6-11.6h-9.2v-10.9
		c0-5.4-4.6-10.1-10-10.1c-5.4,0-10,4.7-10,10.1v10.9h-15.4v-10.9c0-5.4-4.6-10.1-10-10.1c-5.4,0-10,4.7-10,10.1v11.6
		c-20.8,3.9-33.9,18.6-33.9,40.3c0,14,6.9,24,15.4,29.5c-10.8,7-17,18.6-17,32.6c0,23.3,13.9,38.8,36.2,41.9v14.7H397.2z"/>
</g>
</svg>
