<svg xmlns="http://www.w3.org/2000/svg" viewBox="0 0 1024 1024">
   <circle cx="512" cy="512" r="512" style="fill:#fbc342"/>
   <path d="M512 727.7c-118.7 0-214.3-96.2-214.3-215.7S393.3 296.3 512 296.3c118.7 0 214.3 96.2 214.3 215.7S630.7 727.7 512 727.7zm0-471.7c-140.3 0-254.3 114.8-254.3 256s114 256 254.3 256 254.3-114.8 254.3-256-114-256-254.3-256zm118.7 334.4c-9.2-6.2-21.6-3.1-27.7 6.2 0 .8-28.5 45-90.9 45-61.7 0-89.4-42.7-90.9-45-5.4-9.3-17.7-12.4-27-6.2-9.2 5.4-12.3 17.8-6.9 27.2 1.5 2.3 40.8 63.6 124.9 63.6 84 0 123.3-60.5 124.9-63.6 5.2-9.4 2.8-21.8-6.4-27.2zm-13.9-76.1H579v-37.2h37.8c12.3 0 20 7 20 18.6.1 10.9-7.6 18.6-20 18.6zm17.7-79.1c0 10.9-6.9 17.1-19.3 17.1H579v-34.1h36.2c12.4-.1 19.3 6.1 19.3 17zm11.6 28.7c8.5-5.4 15.4-15.5 15.4-29.5 0-21.7-13.1-36.5-33.9-40.3v-11.6c0-5.4-4.6-10.1-10-10.1s-10 4.7-10 10.1v10.9h-15.4v-10.9c0-5.4-4.6-10.1-10-10.1s-10 4.7-10 10.1v10.9H563c-6.2 0-11.6 5.4-11.6 11.6v122.6c0 6.2 5.4 11.6 11.6 11.6h9.2v13.2c0 5.4 4.6 10.1 10 10.1s10-4.7 10-10.1v-13.2h15.4v13.2c0 5.4 4.6 10.1 10 10.1s10-4.7 10-10.1v-14c22.4-3.1 36.2-18.6 36.2-41.9-.7-14-6.9-26.4-17.7-32.6zm-259 31.8c0-11.6 7.7-18.6 20-18.6h37.8v37.2h-37.8c-12.3 0-20-7.7-20-18.6zm21.6-77.6h36.2v34.1h-36.2c-12.3 0-19.3-6.2-19.3-17.1.1-10.8 7-17 19.3-17zm-11.5 134.2c0 5.4 4.6 10.1 10 10.1s10-4.7 10-10.1v-13.2h15.4v13.2c0 5.4 4.6 10.1 10 10.1s10-4.7 10-10.1v-13.2h9.2c6.2 0 11.6-5.4 11.6-11.6V404.2c0-6.2-5.4-11.6-11.6-11.6h-9.2v-10.9c0-5.4-4.6-10.1-10-10.1s-10 4.7-10 10.1v10.9h-15.4v-10.9c0-5.4-4.6-10.1-10-10.1s-10 4.7-10 10.1v11.6c-20.8 3.9-33.9 18.6-33.9 40.3 0 14 6.9 24 15.4 29.5-10.8 7-17 18.6-17 32.6 0 23.3 13.9 38.8 36.2 41.9v14.7h-.7z" style="fill:#fff"/>
</svg>
