<svg xmlns="http://www.w3.org/2000/svg" viewBox="0 0 1024 1024">
   <circle cx="512" cy="512" r="512" style="fill:#00a1b7"/>
   <path d="M512 256c-141.39 0-256 114.6-256 256s114.61 256 256 256 256-114.6 256-256-114.61-256-256-256Zm-18 356.84c-9.08-20.05-15.87-39.36-31-85.57l-.12-.38c-14.94-45.75-21.74-65-30-82.67a140.92 140.92 0 0 0-6.69-12.77c-2.45 7.95-4.16 19.5-4.84 34.4-1.76 38.1 3.21 95 15 170.17a25.6 25.6 0 1 1-50.61 7.98c-12.29-78.27-17.52-138.25-15.57-180.47 1-22.7 4.17-40.87 9.81-54.91 7.26-18.05 19.35-30.6 36.45-34.52 16.15-3.7 30.47 2.75 41.95 15.14 7.5 8.11 14.16 19.07 20.83 33.3 9.55 20.37 16.68 40.5 32.35 88.51l.12.37c14.43 44.22 20.93 62.68 28.92 80.34 4.58 10.11 8.76 17.45 12.25 21.74l.26.32a7.87 7.87 0 0 0 2.78-2.59c3.27-4.37 6.12-12.41 7.93-23.72 3.65-22.82 2.63-55-2.23-94.87-5.52-45.22-14.27-80.8-25.95-106.54a25.6 25.6 0 0 1 46.62-21.15c14.1 31.08 24 71.5 30.15 121.48 5.39 44.21 6.55 80.54 2 109.17-3 18.79-8.51 34.28-17.48 46.28-11.39 15.23-27.8 23.74-47.29 23.74-14.65 0-26.5-7.57-36.46-19.8-6.78-8.35-12.97-19.21-19.18-32.98Zm190 60.43q-58.37 12.5-153.6 73.73a6.4 6.4 0 1 1-6.93-10.76q96.89-62.43 157.86-75.54a6.4 6.4 0 1 1 2.67 12.56Zm34.92-36.12c-38.2 0-104.23 29.5-197.1 88.59a6.4 6.4 0 0 1-6.87-10.8c94.87-60.36 162.53-90.59 204-90.59a6.4 6.4 0 1 1 0 12.8Z" style="fill:#fff"/>
</svg>
