<?xml version="1.0" encoding="utf-8"?>
<!-- Generator: Adobe Illustrator 21.0.0, SVG Export Plug-In . SVG Version: 6.00 Build 0)  -->
<svg version="1.1" xmlns="http://www.w3.org/2000/svg" xmlns:xlink="http://www.w3.org/1999/xlink" x="0px" y="0px"
	 viewBox="0 0 1024 1024" style="enable-background:new 0 0 1024 1024;" xml:space="preserve">
<style type="text/css">
	.st0{fill:#19D6AC;}
	.st1{filter:url(#Adobe_OpacityMaskFilter);}
	.st2{fill:#FFFFFF;}
	.st3{mask:url(#mask-2_2_);fill:#FFFFFF;}
	.st4{filter:url(#Adobe_OpacityMaskFilter_1_);}
	.st5{mask:url(#mask-4_2_);fill:#FFFFFF;}
</style>
<g id="Guides">
</g>
<g id="Icon">
	<circle class="st0" cx="512" cy="512" r="512"/>
	<g id="logo" transform="translate(634.000000, 20.000000)">
		<g id="Group-13" transform="translate(0.000000, 0.065565)">
			<g id="Group-10" transform="translate(58.459725, 0.000000)">
				<g id="Clip-9">
				</g>
				<defs>
					<filter id="Adobe_OpacityMaskFilter" filterUnits="userSpaceOnUse" x="-353.8" y="235.9" width="346.7" height="385.1">
						<feColorMatrix  type="matrix" values="1 0 0 0 0  0 1 0 0 0  0 0 1 0 0  0 0 0 1 0"/>
					</filter>
				</defs>
				<mask maskUnits="userSpaceOnUse" x="-353.8" y="235.9" width="346.7" height="385.1" id="mask-2_2_">
					<g class="st1">
						<polygon id="path-1_2_" class="st2" points="-7.1,235.9 -353.8,235.9 -353.8,621 -7.1,621 						"/>
					</g>
				</mask>
				<polygon id="Fill-8" class="st3" points="-295.8,621 -353.8,621 -177.3,235.9 -7.1,621 -66,621 -178.3,358.4 -233.7,481.6 				
					"/>
			</g>
			<g id="Clip-12">
			</g>
			<defs>
				<filter id="Adobe_OpacityMaskFilter_1_" filterUnits="userSpaceOnUse" x="-148.9" y="588.5" width="53.8" height="159.4">
					<feColorMatrix  type="matrix" values="1 0 0 0 0  0 1 0 0 0  0 0 1 0 0  0 0 0 1 0"/>
				</filter>
			</defs>
			<mask maskUnits="userSpaceOnUse" x="-148.9" y="588.5" width="53.8" height="159.4" id="mask-4_2_">
				<g class="st4">
					<polygon id="path-3_2_" class="st2" points="-1160.5,754.5 1380.1,754.5 1380.1,235.9 -1160.5,235.9 					"/>
				</g>
			</mask>
			<polygon id="Fill-11" class="st5" points="-148.9,747.9 -95.1,747.9 -95.1,588.5 -148.9,588.5 			"/>
		</g>
	</g>
</g>
</svg>
