<svg xmlns="http://www.w3.org/2000/svg" viewBox="0 0 1024 1024">
  <circle cx="512" cy="512" r="512" style="fill:#8dbd09"/>
  <path d="M768.12 511.87a221.81 221.86 0 0 0-4.534-49.558 252.04 252.1 0 0 0-45.82-102.68l-.85-1.139-1.2-1.574a255.58 255.64 0 0 0-202.29-100.83H512.1a256.04 256.09 0 0 0-256.02 256.09v2.402a254.9 254.96 0 0 0 51.762 151.99l1.035 1.347q1.511 2.07 3.085 3.934a254.07 254.13 0 0 0 97.168 75.341 266.31 266.37 0 0 0 75.842 20.44c6.688.27 13.375.435 20.063.539h7.536c9.483 0 18.966-.187 28.428-.704a256.74 256.8 0 0 0 126.3-50.738c13.996-9.92 25.405-22.781 37.455-34.958a253.65 253.71 0 0 0 63.13-151.18c.124-6.048.227-12.115.227-18.183zm-136.65-46.866c22.775 22.159 25.115 61.86 4.472 86.235-24.68 30.091-72.59 34.109-104.41 13.42l-4.576-3.21 1.305-1.305c32.879-32.949 65.986-65.69 98.659-98.847 1.573 1.18 3.085 2.444 4.596 3.707zm-323.66 164.48c-25.757-43.677-35.695-96.217-29.256-146.29 6.211-53.327 32.237-103.55 70.728-140.83 12.423 23.671 49.091 26.55 66.255 6.938 12.092-14.414 8.448-38.002-7.081-48.357a234.73 234.78 0 0 1 132.32-22.573c31.057 3.375 61.059 13.938 88.368 28.993-19.111 19.923-39.091 39.038-58.367 58.815-9.628 9.526-18.904 19.467-28.987 28.64-7.454 4.433-16.067 6.69-23.148 11.868-8.406 4.908-14.866 12.239-21.989 18.639-1.222-10.355-2.547-20.875-4.141-31.271-19.959.103-39.919 0-59.878 0-.331 36.407.27 72.836-.29 109.22-3.623 6.585-10.559 10.997-15.508 16.692.186-42.31 0-84.6 0-126.91-21.409-.125-42.818 0-64.185 0v191.15q-15.094 15.263-30.29 30.38c-4.887 4.888-9.856 9.734-14.557 14.89zm72.777 79.069a2103.63 2103.63 0 0 1 52.176-52.25c0 4.453-.124 8.926 0 13.399 0 21.642-.331 43.304.186 64.945-18.738-5.902-35.923-15.677-52.363-26.094zm346.33-97.335a236.59 236.65 0 0 1-230.03 137.35c-.166-46.472.145-92.965-.186-139.44-.746-2.92 1.242-5.074 2.36-7.455 9.731 14.869 27.517 21.807 43.915 26.55 37.165 9.422 78.409 6.461 112.41-11.95a112.61 112.64 0 0 0 54.806-71.157c8.53-33.135 4.43-70.206-14.493-99.158a117.81 117.84 0 0 0-22.485-25.494l-2.547-3.065c12.423-12.136 24.846-24.313 36.73-36.842 46.855 66.064 53.77 157.41 19.525 230.6z" style="fill:#fff"/>
</svg>
