<svg xmlns="http://www.w3.org/2000/svg" viewBox="0 0 1024 1024">
   <circle cx="512" cy="512" r="512" fill="#8fbe00" stroke-width="3.779"/>
   <path d="M519.31 256.45v.014a272.788 272.788 0 0 0-64.514 6.224c-20.618 7.159-28.036 10.84-46.977 24.48 6.04 6.878 9.328 15.406 9.33 24.195 0 21.468-19.206 38.871-42.898 38.871-16.253-.03-31.092-8.38-38.326-21.568-6.543 5.073-12.336 10.37-17.242 16.037-13.08 14.998-24.56 31.592-33.766 49.277-38.75 74.43-39.83 171.82 4.379 244.4l48.6-48.186 2.076-206.09 68.086.002 1.531 134.42 15.091-15.032.564-119.39 63.804.253.314 34.977s16.69-14.936 25.904-20.872c13.155-8.475 27.633-13.281 27.633-13.281l95.773-95.746c-35.295-21.513-77.683-32.032-119.36-32.991zm203.43 113.88.006.004.602.588zm.608.592-40.471 40.471c15.254 9.683 26.425 25.776 34.394 41.726 26.504 53.018 13.876 123.72-33.93 160.8-43.574 33.806-110.05 39.385-159.59 16.098-10.93-4.701-20.181-11.915-27.582-19.219v157.68c42.555 0 82.919-3.999 122.15-22.172 92.269-42.734 149.74-135.01 149.74-236.03 0-37.143-8.598-75.079-25.176-108.41-5.457-10.97-19.537-30.94-19.537-30.94zm-86.534 86.545-109.74 109.72c8.078 5.728 15.947 8.424 24.26 11.198 24.765 8.254 55.141 6.26 77.595-7.365 37.08-22.496 48.198-87.853 7.883-113.55zm-213.25 213.04-36.088 36.111-19.398 19.54 55.193 26.553v-55.188z" fill="#fff"/>
</svg>
