<svg xmlns="http://www.w3.org/2000/svg" viewBox="0 0 1024 1024">
   <circle cx="512" cy="512" r="512" style="fill:#8dbd09"/>
   <path d="M801.07 511.84A250.47 250.47 0 0 0 796 455.9 284.58 284.58 0 0 0 744.23 340l-1-1.29-1.35-1.78a288.45 288.45 0 0 0-228.29-113.8h-1.5c-159.6 0-289 129.42-289 289.05v2.71a287.82 287.82 0 0 0 58.42 171.55l1.17 1.52q1.71 2.34 3.48 4.44a286.78 286.78 0 0 0 109.67 85 300.53 300.53 0 0 0 85.6 23.07c7.55.3 15.1.49 22.65.61h8.51c10.7 0 21.41-.21 32.09-.79a289.75 289.75 0 0 0 142.56-57.27c15.8-11.2 28.67-25.71 42.28-39.46A286.4 286.4 0 0 0 800.8 533c.14-6.83.26-13.67.26-20.52Zm-154.24-52.9c25.71 25 28.35 69.82 5 97.33-27.86 34-81.93 38.5-117.85 15.15l-5.16-3.62 1.47-1.47c37.11-37.19 74.48-74.14 111.36-111.57 1.78 1.33 3.48 2.76 5.19 4.18ZM281.51 644.59c-29.07-49.3-40.29-108.6-33-165.12 7-60.19 36.39-116.88 79.83-159 14 26.72 55.41 30 74.78 7.83 13.65-16.27 9.54-42.89-8-54.58a264.89 264.89 0 0 1 149.35-25.48c35.05 3.81 68.92 15.73 99.74 32.72-21.57 22.49-44.12 44.06-65.88 66.39-10.87 10.75-21.34 22-32.72 32.33-8.41 5-18.13 7.55-26.13 13.4-9.49 5.54-16.78 13.81-24.82 21-1.38-11.69-2.87-23.56-4.67-35.3-22.53.12-45.06 0-67.58 0-.37 41.09.3 82.21-.33 123.28-4.09 7.43-11.92 12.41-17.5 18.84.21-47.76 0-95.49 0-143.24-24.16-.14-48.33 0-72.45 0v215.83q-17 17.23-34.19 34.29c-5.52 5.52-11.12 11-16.43 16.81Zm82.14 89.25q28.93-30 58.89-59c0 5-.14 10.07 0 15.12 0 24.43-.37 48.88.21 73.3-21.15-6.66-40.55-17.69-59.1-29.45ZM754.56 624a267 267 0 0 1-259.63 155c-.19-52.45.16-104.93-.21-157.39-.84-3.3 1.4-5.73 2.66-8.41 11 16.78 31.06 24.61 49.57 30 41.95 10.63 88.5 7.29 126.88-13.49a127.13 127.13 0 0 0 61.86-80.32c9.63-37.4 5-79.24-16.36-111.92a133 133 0 0 0-25.38-28.78l-2.87-3.46c14-13.7 28-27.44 41.46-41.58 52.89 74.57 60.69 177.67 22 260.28Z" style="fill:#fff"/>
</svg>
