<?xml version="1.0" encoding="UTF-8"?>
<!-- Created with Inkscape (http://www.inkscape.org/) -->
<svg width="1024" height="1024" version="1.1" viewBox="0 0 270.93 270.93" xmlns="http://www.w3.org/2000/svg">
 <circle cx="135.47" cy="135.47" r="135.47" fill="#8dbd09" stroke-width=".26458"/>
 <path d="m136.31 62.571c-2.2325-0.02318-4.4408 0.09677-6.59 0.39371-16.911 2.3369-31.62 7.9524-44.501 19.493-6.3187 5.6613-11.345 13.038-15.121 20.551-19.664 39.131 0.72956 88.681 43.063 101.94 9.646 3.0217 20.009 4.0367 30.013 3.0462 10.671-1.057 21.438-4.5942 30.53-10.269 9.1549-5.7139 17.035-13.089 22.941-22.124 20.841-31.879 13.247-76.139-17.766-98.782-6.8061-4.9694-14.652-8.8032-22.768-11.083-6.1886-1.7388-13.103-3.0984-19.8-3.1683zm-3.646 6.1074c12.466-0.52646 25.271 2.1659 35.865 8.5879l-10.867 11.327-13.971 13.658-6.7272 3.5605-6.2095 4.4052-1.2075-7.5516-4.4843-0.68629h-12.419v23.169c0 5.0409 0.64547 8.8215-4.1394 11.842v-24.713l-0.3737-9.7252-3.7665-1.0868h-10.349l-3.7665 1.0868-0.37293 4.5764v37.07l-0.1728 11.327-3.4497 4.1186-9.3143 8.7523c-11.61-18.961-11.327-44.4-1.1499-63.842 2.4176-4.6188 5.4327-8.9541 8.8686-12.872 1.483-1.6908 2.541-3.3334 4.7003-4.1186 5.4049 7.3558 20.169 7.155 20.641-4.1193 0.14076-3.3672-2.4427-5.649-4.0826-8.2372 4.7999-1.8061 9.4444-3.8451 14.489-4.949 3.9856-0.87203 8.103-1.4045 12.258-1.58zm58.116 29.697c2.6738 1.8947 3.8562 5.3705 5.2901 8.2372 4.3544 8.7057 6.612 18.615 6.612 28.317 0 26.387-15.094 50.491-39.327 61.654-10.305 4.747-20.906 5.7921-32.082 5.7921v-41.188c2.5107 1.5847 4.4846 3.7296 7.2442 5.0198 13.011 6.083 30.47 4.6258 41.914-4.2045 12.556-9.687 15.872-28.154 8.9118-42.004-2.0936-4.1662-4.9051-8.2825-8.9118-10.812zm-22.768 22.653c10.589 6.7127 7.6685 23.785-2.0701 29.661-5.8975 3.5587-13.677 4.1878-20.181 2.031-2.1842-0.72441-4.0874-2.0266-6.2095-2.8606l9.832-10.297zm-56.403 56.12 0.51773 6.6926v14.416l-13.971-6.6933 4.6571-5.6632z" fill="#fff" stroke-width="0"/>
</svg>
