<svg xmlns="http://www.w3.org/2000/svg" viewBox="0 0 1024 1024">
   <style>
      .st0{fill:#ed1c24}.st1,.st2,.st3{fill:none;stroke:#1ded7e;stroke-width:2;stroke-miterlimit:10;stroke-dasharray:2}.st3{stroke:#1d8ced}
   </style>
   <circle cx="512" cy="512" r="512" fill="#8dbd09" stroke-width="3.779"/>
   <path d="M519.19 256.16a272.79 272.79 0 0 0-64.514 6.224c-19.209 4.225-36.893 12.03-55.168 18.945 6.245 9.904 16.079 18.643 15.546 31.534-1.798 43.163-58.013 43.929-78.592 15.77-8.222 3.006-12.251 9.293-17.899 15.767-13.08 14.998-24.562 31.593-33.767 49.278-38.751 74.43-39.83 171.82 4.38 244.4l35.464-33.508 13.136-15.767.657-43.363V403.52l1.419-17.52 14.34-4.158h39.409l14.337 4.159 1.422 37.23v94.609c18.222-11.563 15.763-26.037 15.763-45.337v-88.697h47.286l17.073 2.627 4.598 28.91 23.64-16.863 25.616-13.631 53.198-52.288 41.375-43.363c-35.295-21.513-77.04-32.092-118.72-33.051zm203.44 113.87-39.405 41.393c15.254 9.683 25.96 25.443 33.929 41.393 26.504 53.018 13.877 123.72-33.929 160.8-43.574 33.806-110.05 39.384-159.59 16.097-10.509-4.942-18.022-13.15-27.582-19.219v157.68c42.555 0 82.919-4 122.15-22.173 92.269-42.734 149.74-135.01 149.74-236.03 0-37.143-8.598-75.079-25.176-108.41-5.458-10.972-9.96-24.281-20.143-31.534zm-86.691 86.723-70.928 70.956-37.434 39.419c8.078 3.196 15.328 8.177 23.641 10.951 24.765 8.254 54.385 5.848 76.839-7.776 37.08-22.496 48.2-87.854 7.885-113.55zm-214.76 214.84-33.493 33.508-17.734 21.678 53.198 25.626v-55.189z" fill="#fff" stroke-width="3.512"/>
</svg>
