<svg xmlns="http://www.w3.org/2000/svg" viewBox="0 0 1024 1024">
   <circle cx="512" cy="512" r="512" style="fill:#ffe01a"/>
   <path d="M768 512c0 141.42-114.84 256.47-256 256.47S256 653.43 256 512s114.84-256.48 256-256.48A254 254 0 0 1 621.15 280l-42.52 54.88A187.8 187.8 0 0 0 512 322.75c-99.54 0-181.33 77.51-188.41 175.47q-.21 3-.33 6-.16 3.89-.17 7.82c0 104.35 84.74 189.24 188.91 189.24S700.9 616.36 700.9 512a190.16 190.16 0 0 0-4.38-40.65l49.34-63.67A255.37 255.37 0 0 1 768 512m-52.19-155-43.12 55.63L521.32 608 397.83 497.36l44.71-50.12 69.88 62.59L627 362l41.12-53.08A258.18 258.18 0 0 1 715.81 357" style="fill:#fff"/>
</svg>
