<svg xmlns="http://www.w3.org/2000/svg" viewBox="0 0 1024 1024" style="enable-background:new 0 0 1024 1024" xml:space="preserve">
   <style>
      .st0{fill:#fff}
   </style>
   <g id="Icon">
      <circle id="Background" cx="512" cy="512" r="512"/>
      <path class="st0" d="M560 256c.6-1.8 2.5-3.2 4.4-2.8 1.5.4 2.1 2 2.4 3.4 5.2 23.2 7 47.3 3.8 71-1.7-11.1-3.4-22.1-5-33.2-.6-7.8-2.5-15.5-3.6-23.2-5.4 21.1-12.1 42.2-23.9 60.7-1.2 2.1-2.9 3.9-3.3 6.3-3.5 42.9-7 85.8-10.5 128.8 8.9 4 16.1 11.3 19.7 20.4 27.8-29.3 54-60.3 76.1-94 50.8-9.7 96.9-33.8 144.4-53.1 13.6 13.2 26.9 26.8 39.2 41.2 3.9 4.9 8.3 9.5 10.7 15.4-17.2-16.1-34.2-32.6-51.4-48.8-32.6 12.9-61.7 33.3-94.4 46-11.6 4.6-23.7 7.9-35.9 10.4-2.3.7-5.3.5-6.7 2.9-6.4 8.7-12.3 17.8-19.3 26.1-18.6 26.3-39.5 50.8-58.6 76.7 0 .8 0 1.7.1 2.5 23.4-6.8 46.5-14.2 69.8-21.1 5.7-.6 11.5-.1 17.3-.4 3.3-.4 5.8 2.1 8.6 3.4 24.1 12.7 51 18.8 77.5 23.8 5.2 1.2 10.7 1.6 15.9 3.2 3.4 2.2 7.2 4.3 9.5 7.7 11.5 15.5 22.6 32.3 26 51.6-6.5-14.7-16.1-27.9-27.2-39.4-2.2-2.1-4.1-5-7.2-5.9-33-12.5-67.7-19.1-102.1-26.6-6.1-1.2-12.1-3.2-18.4-3.6-4.8 1.2-9.2 3.4-13.8 5.1-21.2 8-42.3 16.1-63.6 23.9-1.7.5-1.8 2.7-2.5 4.1 11.2 1 22.5 1.7 33.5 4 .9.3 2.5.3 2.5 1.7 3.4 15 10.7 28.8 18.6 41.9 6.3 10.6 13.5 20.6 20.1 31 2.1 3.5 4.4 7 5.2 11-.3.5-1 1.7-1.4 2.2 7.4 16.6 12 34.4 13.6 52.5.4 3.7.7 7.3 1.6 10.9-.5-.9-1.3-1.7-1.6-2.7l-.1-.8c-.3-4.4-1.8-8.7-2.7-13-3.6-13.2-7.5-26.6-14.9-38.2-.7-1.9-3.4-1-4.3-2.7-8.2-10.2-13-22.5-19-34-7.8-15.3-15-31-25.4-44.7-10-3.2-20-6.2-30-9.4-.6 1.3-1.1 2.6-1.6 3.9 4.1 1.6 8.3 2.9 12.4 4.4-4 19.6-6.9 39.3-10.6 58.9-2 9.7-3.7 19.5-7.1 28.9-1 2.5-2.1 5.4-4.9 6.4-6.5 16.8-13.8 33.3-21 49.8-8.7 19.7-17.5 39.3-27 58.7-2.4 4.7-4.6 9.5-7.7 13.8 14-40.3 31.6-79.3 45.8-119.6-2-6.1.2-12.5 1.7-18.4 7.4-24.6 18.3-48 26.1-72.5-3.7-1.5-7.3-3.2-11-4.4-6.7 8.3-10.8 18.4-18.1 26.2-4.3 4.8-8.8 9.7-14.3 13.2-9.5 6.6-19.9 11.9-30.4 17-10.6 4.7-22.1 8.4-33.8 7.9-9.4-.8-19.1-4.3-25-11.9-9.2-11.6-12.9-26.4-14.9-40.8-2.9-3.9-6.3-7.6-7.7-12.4-3.4-9.6-1.1-20.9 5.7-28.5 1.8-2.3 4.3-3.7 6.3-5.8 4.5-12.6 12.2-23.9 21.6-33.5-12.5-8.8-24.2-18.9-38.1-25.5-17.7 10.4-34.1 22.8-50.9 34.5-22.3 15.9-45.2 31.5-71.1 41.1-2.3.4-2.1 2.9-2.3 4.6-.7 18.3-2.4 36.6-3.3 54.9-.7 6.9-.3 14-1.9 20.8-.9 3.3-3.1 6-5.1 8.7-.4-16.8.7-33.7.9-50.5 1.2-19.7 1.5-39.5 4.7-59 15.2-5.3 30.3-11 44.8-18.2 27.8-13.2 52.9-31.3 77.5-49.6 6.4-.4 12.7 1.6 18.5 4.2 8.4 3.5 16 8.6 23.7 13.4 4.7 2.9 8.9 6.6 14 8.9 1.7-.8 2.9-2.3 4.3-3.5-13.1-11.8-27.2-22.5-39.4-35.3-2.7-2.5-4.9-5.5-7.7-7.8-16.7-12.6-33-25.9-51.4-36-2.5-1-5.2-.8-7.8-1.2-14.7-1.6-29.2-4.5-44-6-4.3-.3-8.4-1.5-12.7-1.3-4.2.1-8.3-1.6-11.1-4.8 12 .5 23.9 2.1 35.9 2.9 13.6 1.4 27.3 2 40.8 3.6 13 6.8 25.1 15.1 37.7 22.6 10.2 5.9 20.4 12.2 31.6 16 2.3.8 4.7 1.3 7.2 1.6 7.8 8.9 14.5 19 23.9 26.4 3.9 2.9 6.5 7.2 7.7 11.9 9.1-5.7 20.1-6.5 30.6-7-5.7-25.5-12.1-50.7-18.7-76-.7-2.3-2.6-3.8-3.9-5.7-13.1-17.2-21.4-37.5-30.6-56.9-5.8-7.7-11.5-15.6-16.2-24.1-1.2-2.3-2.6-4.6-2.7-7.2 8.1 8.4 17.5 15.4 25.7 23.6 2.7 2.6 4.4 6 6.3 9.1 8.5 14.3 15.6 29.3 24 43.6 1.4 2.6 3.3 4.9 4.3 7.7 8.7 29.1 19.7 57.5 29.4 86.3 5.6.5 11.1 1.3 16.6 2.4 5.8-42 10.6-84.2 16.8-126.1 1.6-5.2 4.9-9.8 7-14.8 10.3-21.7 17.5-44.2 26.8-65.8zM406.2 521.1c-4.8 1.1-9.3 3.5-12.9 6.9-9.4 8.6-11.3 24-4.2 34.5 7 11.4 22.9 16 34.9 9.9 11.7-5.4 18.2-19.6 14.5-32-3.5-13.6-18.6-22.7-32.3-19.3zm62 10c-4.8 1.1-9.3 3.5-12.9 6.9-9.4 8.6-11.2 23.9-4.2 34.5 7 11.4 22.9 16 34.9 9.9 11.7-5.4 18.2-19.6 14.5-32-3.5-13.5-18.6-22.7-32.3-19.3z"/>
      <path class="st0" d="M424.4 531.9c6.2-2.5 13.2 4.1 11.2 10.4-1.4 6.3-10.2 8.6-14.5 3.8-4.5-4.1-2.6-12.5 3.3-14.2zm5.4 6.3c-1.9 1.1-1.5 4.2.6 4.9 2 .9 4.4-1.5 3.5-3.5-.5-1.6-2.6-2.4-4.1-1.4zm55.7 5.5c6.2-2.5 13.3 4 11.2 10.4-1.4 6.2-10.1 8.6-14.5 3.9-4.5-4.1-2.6-12.5 3.3-14.3zm5.3 6.4c-1.5 1-1.5 3.5 0 4.5 1.7 1.3 4.3-.2 4.3-2.3.1-2.1-2.5-3.6-4.3-2.2z"/>
   </g>
</svg>
