<?xml version="1.0" encoding="utf-8"?>
<!-- Generator: Adobe Illustrator 21.0.0, SVG Export Plug-In . SVG Version: 6.00 Build 0)  -->
<svg version="1.1" xmlns="http://www.w3.org/2000/svg" xmlns:xlink="http://www.w3.org/1999/xlink" x="0px" y="0px"
	 viewBox="0 0 1024 1024" style="enable-background:new 0 0 1024 1024;" xml:space="preserve">
<style type="text/css">
	.st0{fill:#FDCA40;}
	.st1{fill:#FFFFFF;}
</style>
<g id="Min_Guides__x28_DO_NOT_REMOVE_x29_">
</g>
<g id="Max_Guides__x28_DO_NOT_REMOVE_x29_">
</g>
<g id="Icon">
	<circle id="Background" class="st0" cx="512" cy="512" r="512"/>
	<g>
		<path class="st1" d="M256,449c0.1-1.9,1.7-3.4,3.6-3.4h4.6l75.3,72.4l0,0v-66.9c0-2,1.6-3.6,3.6-3.6c0.1,0,0.2,0,0.3,0h22.6
			c2,0.1,3.5,1.6,3.6,3.6v126.9c-0.1,1.9-1.7,3.4-3.6,3.4h-3.2c-0.9-0.1-1.7-0.4-2.4-0.9L286,505.6l0,0v70.3c0,2-1.6,3.6-3.6,3.6
			h-22.6c-2,0-3.7-1.6-3.8-3.6V449z"/>
		<path class="st1" d="M424.1,451.1c0.1-2,1.6-3.5,3.6-3.6h23c2,0,3.6,1.6,3.6,3.6v76.3c0,12.9,10.5,23.4,23.4,23.4
			c12.9,0,23.4-10.5,23.4-23.4v-76.3c0-2,1.6-3.6,3.6-3.6h23c2,0.1,3.5,1.6,3.6,3.6v77.9c-0.9,29.7-25.6,53-55.3,52.2
			c-28.5-0.8-51.3-23.7-52.2-52.2v-77.9H424.1z"/>
		<path class="st1" d="M586.7,452c0-2.5,2.1-4.6,4.6-4.6h22c2.5,0,4.6,2.1,4.6,4.6v49.6l41.9-52.2c0.9-1.1,2.2-1.7,3.6-1.9h23.7
			c2.5,0.3,4.3,2.6,4.1,5.1c-0.1,0.7-0.3,1.3-0.7,1.9l-44.1,55.2l47.9,62.4c1.3,2.2,0.6,5-1.5,6.3c-0.6,0.4-1.3,0.6-2.1,0.7h-26
			c-1.3,0-2.5-0.5-3.4-1.3l-43.5-59v56.2c0,2.5-2.1,4.6-4.6,4.6h-22c-2.5,0-4.6-2.1-4.6-4.6L586.7,452L586.7,452z"/>
		<path class="st1" d="M738.3,451.1c0.1-2,1.6-3.5,3.6-3.6h22.6c2,0.1,3.5,1.6,3.6,3.6v124.8c-0.1,2-1.6,3.5-3.6,3.6h-22.6
			c-2-0.1-3.5-1.6-3.6-3.6V451.1z"/>
		<path class="st1" d="M733.8,370.9c-0.3-10.6,8.1-19.4,18.6-19.6c0.2,0,0.4,0,0.6,0c10.8,0,19.5,8.7,19.5,19.5s-8.7,19.5-19.5,19.5
			c0,0,0,0,0,0c-10.5,0.1-19.1-8.4-19.2-18.9C733.8,371.2,733.8,371.1,733.8,370.9z"/>
	</g>
</g>
</svg>
