<svg xmlns="http://www.w3.org/2000/svg" viewBox="0 0 1024 1024" style="enable-background:new 0 0 1024 1024" xml:space="preserve">
   <style>
      .st1{fill:#fff}
   </style>
   <g id="Icon">
      <circle cx="512" cy="512" r="512" style="fill:#652e09"/>
      <g id="Logo">
         <path class="st1" d="M669.5 650.7c1.5-4.1.3-12.5-.4-16.6-.1-.5-.1-1-.2-1.4v-.2c-.5-3.5-1.4-6.4-1.7-7.6-7.8-22.8-18.3-44.4-29.2-66.3-33.9-62.5-78.1-117.2-109.2-152.1-33.9-38-60-61.4-60.3-61.6l-.5-.5c-13.9-13.9-25.3-16.8-32.4-16.8-3.8 0-6.3.8-6.8 1.1-1.7.9-3.4 1.4-5.2 1.4-1.4 0-2.9-.3-4.3-.8-2.1-.8-3.7-2.2-4.9-4-41.9 32.5-165.8 145.7-141.2 326.9 0 0 2.6 48.8 70.7 70.7 0 0 22.5 9.9 57.9 16.6 1.6.3 3.3.6 5 .9 2.6.4 5.2.9 7.8 1.3 1.8.3 3.6.5 5.4.8 12.8 1.8 26.8 3 41.7 3.2h6.4c3.2 0 6.5-.1 9.8-.2 2.2-.1 4.4-.2 6.7-.3 5.6-.3 11.3-.8 17.1-1.5 2.3-.3 4.6-.6 7-.9 7-1 14.1-2.2 21.3-3.7 2.4-.5 4.8-1 7.2-1.6 3.6-.9 7.2-1.8 10.9-2.8 2.4-.7 4.9-1.4 7.3-2.2 2.4-.8 4.9-1.6 7.3-2.4 4.9-1.7 9.8-3.5 14.7-5.5 1.2-.5 2.5-1 3.7-1.5 2.5-1 4.9-2.1 7.4-3.2 1.2-.6 2.5-1.1 3.7-1.7 26.7-12.7 53.5-30.7 79-55.6-.8-1.4-1.4-2.8-1.8-4.1-.9-2.6-.8-5.3.1-7.8z"/>
         <path class="st1" d="M758.9 305.3c-49-8.8-83.8 26.5-97.5 43.7-32.5-31.3-84.6-69.2-146.6-70.7 0 0-105.4-2.6-91.2 39.8 0 0 23.1-11.6 52.7 18 0 0 105.3 93.8 172.1 217.1 11 22 21.8 44.2 30 68 .5 1.5 1.6 5.3 2.2 9.7.8 5.3 2.8 16.3-.1 23.8 0 0 9 27 37.3-14.1 0 0 71.9-122.1-20.6-250.5 0-.3-3-4.7-8.6-11.6 40.1-52.6 74.1-24.4 74.1-24.4 16.7 11.6 19.3-5.1 19.3-5.1 0-33.4-23.1-43.7-23.1-43.7z"/>
      </g>
   </g>
</svg>
