<?xml version="1.0" encoding="utf-8"?>
<!-- Generator: Adobe Illustrator 21.0.0, SVG Export Plug-In . SVG Version: 6.00 Build 0)  -->
<svg version="1.1" xmlns="http://www.w3.org/2000/svg" xmlns:xlink="http://www.w3.org/1999/xlink" x="0px" y="0px"
	 viewBox="0 0 1024 1024" style="enable-background:new 0 0 1024 1024;" xml:space="preserve">
<style type="text/css">
	.st0{fill:#652E09;}
	.st1{fill:#FFFFFF;}
</style>
<g id="Guides">
</g>
<g id="Icon">
	<circle class="st0" cx="512" cy="512" r="512"/>
	<g id="Logo">
		<path class="st1" d="M669.5,650.7c1.5-4.1,0.3-12.5-0.4-16.6c-0.1-0.5-0.1-1-0.2-1.4c0,0,0-0.1,0-0.1c0,0,0,0,0-0.1
			c-0.5-3.5-1.4-6.4-1.7-7.6c-7.8-22.8-18.3-44.4-29.2-66.3c-33.9-62.5-78.1-117.2-109.2-152.1c-33.9-38-60-61.4-60.3-61.6
			c-0.2-0.2-0.3-0.3-0.5-0.5c-13.9-13.9-25.3-16.8-32.4-16.8c-3.8,0-6.3,0.8-6.8,1.1c-1.7,0.9-3.4,1.4-5.2,1.4
			c-1.4,0-2.9-0.3-4.3-0.8c-2.1-0.8-3.7-2.2-4.9-4C372.5,357.8,248.6,471,273.2,652.2c0,0,2.6,48.8,70.7,70.7
			c0,0,22.5,9.9,57.9,16.6c1.6,0.3,3.3,0.6,5,0.9c2.6,0.4,5.2,0.9,7.8,1.3c1.8,0.3,3.6,0.5,5.4,0.8c12.8,1.8,26.8,3,41.7,3.2
			c1.1,0,2.1,0,3.2,0c1.1,0,2.1,0,3.2,0c3.2,0,6.5-0.1,9.8-0.2c2.2-0.1,4.4-0.2,6.7-0.3c5.6-0.3,11.3-0.8,17.1-1.5
			c2.3-0.3,4.6-0.6,7-0.9c7-1,14.1-2.2,21.3-3.7c2.4-0.5,4.8-1,7.2-1.6c3.6-0.9,7.2-1.8,10.9-2.8c2.4-0.7,4.9-1.4,7.3-2.2
			c2.4-0.8,4.9-1.6,7.3-2.4c4.9-1.7,9.8-3.5,14.7-5.5c1.2-0.5,2.5-1,3.7-1.5c2.5-1,4.9-2.1,7.4-3.2c1.2-0.6,2.5-1.1,3.7-1.7
			c26.7-12.7,53.5-30.7,79-55.6c-0.8-1.4-1.4-2.8-1.8-4.1C668.5,655.9,668.6,653.2,669.5,650.7z"/>
		<path class="st1" d="M758.9,305.3c-49-8.8-83.8,26.5-97.5,43.7c-32.5-31.3-84.6-69.2-146.6-70.7c0,0-105.4-2.6-91.2,39.8
			c0,0,23.1-11.6,52.7,18c0,0,105.3,93.8,172.1,217.1c11,22,21.8,44.2,30,68c0.5,1.5,1.6,5.3,2.2,9.7c0,0,0,0,0,0
			c0.8,5.3,2.8,16.3-0.1,23.8c0,0,9,27,37.3-14.1c0,0,71.9-122.1-20.6-250.5c0,0,0,0,0,0c0,0,0,0,0,0c0-0.3-3-4.7-8.6-11.6
			c40.1-52.6,74.1-24.4,74.1-24.4c16.7,11.6,19.3-5.1,19.3-5.1C782,315.6,758.9,305.3,758.9,305.3z"/>
	</g>
</g>
</svg>
