<svg xmlns="http://www.w3.org/2000/svg" viewBox="0 0 1024 1024">
   <circle cx="512" cy="512" r="512" style="fill:#652e09"/>
   <path d="M534.19 345.86a8.1 8.1 0 0 1 4.46-10.46 114.92 114.92 0 0 1 26.52-8c15.7-2.58 19.62-3.34 49.44-1.54 0 0 57.77-1.32 129.1 79.24a67.69 67.69 0 0 1 7.23 9.7c13.29 20 38.06 65.93 33.1 121.34a170.76 170.76 0 0 1-12 55.61c-4.23 10.82-11.66 25.23-17.69 31.22-4.88 4.79-10.65 8.41-16.37 3.67 0 0 7.82-20.83-3.59-52.25s-63-118.42-109.12-162.85c-43.27-41.8-61.48-66.18-91.08-65.68zm-18.47 15.75S534 345 549.94 356a380.61 380.61 0 0 1 52.67 45.21 786.37 786.37 0 0 1 55.22 63.32c48.49 61.16 63.88 106.29 69 125.71s0 36.69-13.68 46.05-38.79 49.4-144.91 55.71-149.45-43.45-154.58-64.5c0 0-21.69-85.71 36.44-190.26.05-.24 27.44-49.92 65.62-75.63zM728.4 375l17.69 18.86a49.64 49.64 0 0 1 49.64-20 81.29 81.29 0 0 1 14.55 4.29c3.67 1.65 6.56 2.27 6.28-2s-5.13-27.08-19.4-34S746.4 353.57 728.4 375zM426.92 693.26h-92a127.73 127.73 0 0 1-39.44-249.13v-1a86.7 86.7 0 0 1 96.79-86.22 123.75 123.75 0 0 1 41.26-55.47 122.43 122.43 0 0 1 142.25-3.73 8.46 8.46 0 1 1-9.47 14 105.64 105.64 0 0 0-122.6 3.2A106.71 106.71 0 0 0 406 368.85a8.41 8.41 0 0 1-9.92 5.83 68.73 68.73 0 0 0-14-1.43 69.88 69.88 0 0 0-69.77 69.88 47.07 47.07 0 0 0 .28 6.28 8.41 8.41 0 0 1-6.08 9.11A110.77 110.77 0 0 0 335 676.27h91.91a8.41 8.41 0 1 1 0 16.82zM738 398.75zm0 0z" style="fill:#fff"/>
</svg>
