<?xml version="1.0" encoding="utf-8"?>
<!-- Generator: Adobe Illustrator 25.0.0, SVG Export Plug-In . SVG Version: 6.00 Build 0)  -->
<svg version="1.1" xmlns="http://www.w3.org/2000/svg" xmlns:xlink="http://www.w3.org/1999/xlink" x="0px" y="0px"
	 viewBox="0 0 1024 1024" style="enable-background:new 0 0 1024 1024;" xml:space="preserve">
<style type="text/css">
	.st0{fill:#77B900;}
	.st1{fill:#FFFFFF;}
</style>
<g id="Min_Guides__x28_DO_NOT_REMOVE_x29_">
</g>
<g id="Max_Guides__x28_DO_NOT_REMOVE_x29_">
</g>
<g id="Icon">
	<circle id="Background" class="st0" cx="512.25" cy="512.25" r="512"/>
	<g id="Min_Guides__x28_DO_NOT_REMOVE_x29__1_">
	</g>
	<g id="Max_Guides__x28_DO_NOT_REMOVE_x29__1_">
	</g>
	<path id="path2045" class="st1" d="M430.58,436.9v-33.66c3.26-0.23,6.56-0.41,9.92-0.51c92.04-2.89,152.41,79.09,152.41,79.09
		s-65.21,90.58-135.13,90.58c-10.06,0-19.09-1.63-27.2-4.35V466c35.83,4.33,43.03,20.15,64.57,56.06l47.91-40.4
		c0,0-34.97-45.87-93.91-45.87C442.72,435.79,436.58,436.24,430.58,436.9 M430.58,325.73V376c3.3-0.27,6.61-0.47,9.92-0.59
		c127.99-4.31,211.37,104.95,211.37,104.95s-95.77,116.47-195.55,116.47c-9.14,0-17.7-0.85-25.74-2.27v31.08
		c6.87,0.87,14,1.39,21.44,1.39c92.85,0,160-47.42,225.03-103.54c10.77,8.64,54.9,29.63,63.99,38.83
		c-61.83,51.76-205.91,93.48-287.59,93.48c-7.87,0-15.44-0.47-22.86-1.19v43.67h352.91V325.73H430.58z M430.58,568.04v26.52
		c-85.89-15.3-109.73-104.58-109.73-104.58s41.24-45.69,109.73-53.08V466c-0.06,0-0.09-0.01-0.14-0.01
		c-35.93-4.31-64.02,29.25-64.02,29.25S382.16,551.77,430.58,568.04 M278.04,486.11c0,0,50.9-75.11,152.54-82.87V376
		C318,385.03,220.52,480.36,220.52,480.36s55.21,159.62,210.06,174.23v-28.96C316.95,611.34,278.04,486.11,278.04,486.11"/>
</g>
</svg>
