<?xml version="1.0" encoding="utf-8"?>
<!-- Generator: Adobe Illustrator 24.0.2, SVG Export Plug-In . SVG Version: 6.00 Build 0)  -->
<svg version="1.1" id="Layer_1" xmlns="http://www.w3.org/2000/svg" xmlns:xlink="http://www.w3.org/1999/xlink" x="0px" y="0px"
	 viewBox="0 0 1024 1024" style="enable-background:new 0 0 1024 1024;" xml:space="preserve">
<style type="text/css">
	.st0{fill:#2585EF;}
	.st1{fill:#FFFFFF;}
</style>
<g id="Min_Guides__x28_DO_NOT_REMOVE_x29_">
</g>
<g id="Max_Guides__x28_DO_NOT_REMOVE_x29_">
</g>
<g id="Icon">
	<circle id="Background" class="st0" cx="512" cy="512" r="512"/>
</g>
<path class="st1" d="M518.4,780.2c0-50.4,0.2-100.8-0.2-151.2c-0.1-10.3,2.1-18.7,10.6-24.9c3-2.2,6.2-4.1,9.3-6.1
	c-0.8-1.1-1.6-2.3-2.4-3.4c-5.5,0.7-10.9,1.3-16.9,2c0-33.6,0-67.2,0-102.3c2,1.8,3.7,2.7,4.2,4c6.1,19.5,16.4,36.3,31.9,49.7
	c1.8,1.6,5.7,2.3,8,1.5c37.7-13.1,67-37,88.7-70.2c20.1-30.7,27.4-64.8,24-100.9c-2.6-27.4-14.2-51.7-30.7-73.6
	c-16.9-22.3-38.2-39.8-61.6-54.8c-2.6-1.7-4.6-4.3-6.9-6.4c2.1,0,4.3,0,6.4,0c7,3.2,14,6.3,20.9,9.7c19.1,9.6,39,18,56.9,29.5
	c17.8,11.5,34.8,25,49.8,39.9c17.8,17.7,32.1,38.4,43.6,61.2c11,21.8,18.2,44.5,23.1,68.1c2.3,11,3.3,22.3,4.9,33.4
	c0,8.5,0,17.1,0,25.6c-2.2-1.7-4.7-3-6.4-5c-15.6-17.9-35.5-26-58.5-27.3c-21,40.6-56.8,73.4-121.2,94.8c15.7,0,34.8,0.4,53.8-0.2
	c10.8-0.3,21.7-1.3,32.1-3.8c19.6-4.7,39-10.2,58.2-16.3c6.7-2.1,12.8-6.4,18.9-10.1c7.1-4.3,13.9-9.2,21.8-14.5
	c-1.4,8.7-2.3,16.8-4.2,24.7c-6.6,28.1-20.5,53-35.3,77.3c-13.7,22.5-30.2,42.9-49.8,60.6c-5.3,4.8-11.5,8.7-18.4,13.9
	c-0.2-3.4-0.4-4-0.2-4.4c0.7-1.4,1.5-2.8,2.3-4.2c8.3-15.9,16.8-31.6,15.3-50.5c-1-12.7-11.1-22.7-23.2-21.4
	c-8.6,0.9-17.3,1.8-25.8,3.2c-27.1,4.5-53.3,11.5-75.3,28.9c-14.2,11.2-21.9,26.3-18.4,44.5c3.1,15.9,13.9,22.6,33.7,27.4
	c5.6,1.4,11.5,1.8,16.2,2.5c-16.1,7.5-33,14.4-48.9,23c-10.7,5.8-20.9,13.4-25.4,25.9C521.6,780.2,520,780.2,518.4,780.2z"/>
<path class="st1" d="M506.3,780c0-50.4-0.2-100.8,0.2-151.2c0.1-10.3-2.1-18.7-10.6-24.9c-3-2.2-6.2-4.1-9.3-6.1
	c0.8-1.1,1.6-2.3,2.4-3.4c5.5,0.7,10.9,1.3,16.9,2c0-33.6,0-67.2,0-102.3c-2,1.8-3.7,2.7-4.2,4c-6.1,19.5-16.4,36.3-31.9,49.7
	c-1.8,1.6-5.7,2.3-8,1.5c-37.7-13.1-67-37-88.7-70.2c-20.1-30.7-27.4-64.8-24-100.9c2.6-27.4,14.2-51.7,30.7-73.6
	c16.9-22.3,38.2-39.8,61.6-54.8c2.6-1.7,4.6-4.3,6.9-6.4c-2.1,0-4.3,0-6.4,0c-7,3.2-14,6.3-20.9,9.7c-19.1,9.6-39,18-56.9,29.5
	c-17.8,11.5-34.8,25-49.8,39.9c-17.8,17.7-32.1,38.4-43.6,61.2c-11,21.8-18.2,44.5-23.1,68.1c-2.3,11-3.3,22.3-4.9,33.4
	c0,8.5,0,17.1,0,25.6c2.2-1.7,4.7-3,6.4-5c15.6-17.9,35.5-26,58.5-27.3c21,40.6,56.8,73.4,121.2,94.8c-15.7,0-34.8,0.4-53.8-0.2
	c-10.8-0.3-21.7-1.3-32.1-3.8c-19.6-4.7-39-10.2-58.2-16.3c-6.7-2.1-12.8-6.4-18.9-10.1c-7.1-4.3-13.9-9.2-21.8-14.5
	c1.4,8.7,2.3,16.8,4.2,24.7c6.6,28.1,20.5,53,35.3,77.3c13.7,22.5,30.2,42.9,49.8,60.6c5.3,4.8,11.5,8.7,18.4,13.9
	c0.2-3.4,0.4-4,0.2-4.4c-0.7-1.4-1.5-2.8-2.3-4.2c-8.3-15.9-16.8-31.6-15.3-50.5c1-12.7,11.1-22.7,23.2-21.4
	c8.6,0.9,17.3,1.8,25.8,3.2c27.1,4.5,53.3,11.5,75.3,28.9c14.2,11.2,21.9,26.3,18.4,44.5c-3.1,15.9-13.9,22.6-33.7,27.4
	c-5.6,1.4-11.5,1.8-16.2,2.5c16.1,7.5,33,14.4,48.9,23c10.7,5.8,20.9,13.4,25.4,25.9C503.1,780,504.7,780,506.3,780z"/>
</svg>
