<svg xmlns="http://www.w3.org/2000/svg" viewBox="0 0 1024 1024">
   <circle cx="512" cy="512" r="512" style="fill:#2585ef"/>
   <path d="M518.4 780.2c0-50.4.2-100.8-.2-151.2-.1-10.3 2.1-18.7 10.6-24.9 3-2.2 6.2-4.1 9.3-6.1-.8-1.1-1.6-2.3-2.4-3.4-5.5.7-10.9 1.3-16.9 2V494.3c2 1.8 3.7 2.7 4.2 4 6.1 19.5 16.4 36.3 31.9 49.7 1.8 1.6 5.7 2.3 8 1.5 37.7-13.1 67-37 88.7-70.2 20.1-30.7 27.4-64.8 24-100.9-2.6-27.4-14.2-51.7-30.7-73.6-16.9-22.3-38.2-39.8-61.6-54.8-2.6-1.7-4.6-4.3-6.9-6.4h6.4c7 3.2 14 6.3 20.9 9.7 19.1 9.6 39 18 56.9 29.5 17.8 11.5 34.8 25 49.8 39.9 17.8 17.7 32.1 38.4 43.6 61.2 11 21.8 18.2 44.5 23.1 68.1 2.3 11 3.3 22.3 4.9 33.4V511c-2.2-1.7-4.7-3-6.4-5-15.6-17.9-35.5-26-58.5-27.3-21 40.6-56.8 73.4-121.2 94.8 15.7 0 34.8.4 53.8-.2 10.8-.3 21.7-1.3 32.1-3.8 19.6-4.7 39-10.2 58.2-16.3 6.7-2.1 12.8-6.4 18.9-10.1 7.1-4.3 13.9-9.2 21.8-14.5-1.4 8.7-2.3 16.8-4.2 24.7-6.6 28.1-20.5 53-35.3 77.3-13.7 22.5-30.2 42.9-49.8 60.6-5.3 4.8-11.5 8.7-18.4 13.9-.2-3.4-.4-4-.2-4.4.7-1.4 1.5-2.8 2.3-4.2 8.3-15.9 16.8-31.6 15.3-50.5-1-12.7-11.1-22.7-23.2-21.4-8.6.9-17.3 1.8-25.8 3.2-27.1 4.5-53.3 11.5-75.3 28.9-14.2 11.2-21.9 26.3-18.4 44.5 3.1 15.9 13.9 22.6 33.7 27.4 5.6 1.4 11.5 1.8 16.2 2.5-16.1 7.5-33 14.4-48.9 23-10.7 5.8-20.9 13.4-25.4 25.9-1.7.2-3.3.2-4.9.2zm-12.1-.2c0-50.4-.2-100.8.2-151.2.1-10.3-2.1-18.7-10.6-24.9-3-2.2-6.2-4.1-9.3-6.1.8-1.1 1.6-2.3 2.4-3.4 5.5.7 10.9 1.3 16.9 2V494.1c-2 1.8-3.7 2.7-4.2 4-6.1 19.5-16.4 36.3-31.9 49.7-1.8 1.6-5.7 2.3-8 1.5-37.7-13.1-67-37-88.7-70.2-20.1-30.7-27.4-64.8-24-100.9 2.6-27.4 14.2-51.7 30.7-73.6 16.9-22.3 38.2-39.8 61.6-54.8 2.6-1.7 4.6-4.3 6.9-6.4h-6.4c-7 3.2-14 6.3-20.9 9.7-19.1 9.6-39 18-56.9 29.5-17.8 11.5-34.8 25-49.8 39.9-17.8 17.7-32.1 38.4-43.6 61.2-11 21.8-18.2 44.5-23.1 68.1-2.3 11-3.3 22.3-4.9 33.4v25.6c2.2-1.7 4.7-3 6.4-5 15.6-17.9 35.5-26 58.5-27.3 21 40.6 56.8 73.4 121.2 94.8-15.7 0-34.8.4-53.8-.2-10.8-.3-21.7-1.3-32.1-3.8-19.6-4.7-39-10.2-58.2-16.3-6.7-2.1-12.8-6.4-18.9-10.1-7.1-4.3-13.9-9.2-21.8-14.5 1.4 8.7 2.3 16.8 4.2 24.7 6.6 28.1 20.5 53 35.3 77.3 13.7 22.5 30.2 42.9 49.8 60.6 5.3 4.8 11.5 8.7 18.4 13.9.2-3.4.4-4 .2-4.4-.7-1.4-1.5-2.8-2.3-4.2-8.3-15.9-16.8-31.6-15.3-50.5 1-12.7 11.1-22.7 23.2-21.4 8.6.9 17.3 1.8 25.8 3.2 27.1 4.5 53.3 11.5 75.3 28.9 14.2 11.2 21.9 26.3 18.4 44.5-3.1 15.9-13.9 22.6-33.7 27.4-5.6 1.4-11.5 1.8-16.2 2.5 16.1 7.5 33 14.4 48.9 23 10.7 5.8 20.9 13.4 25.4 25.9 1.7.2 3.3.2 4.9.2z" style="fill:#fff"/>
</svg>
