<svg xmlns="http://www.w3.org/2000/svg" viewBox="0 0 1024 1024">
   <circle cx="512" cy="512" r="512" style="fill:#235feb"/>
   <path d="M539.57 539.55a115.89 115.89 0 0 0-55.13 0 116.08 116.08 0 0 1-85 85 116.05 116.05 0 0 1 85-85 115.89 115.89 0 0 0 0-55.1 115.89 115.89 0 0 0 55.12 0 116.08 116.08 0 0 1 85-85 115.89 115.89 0 1 0-225.15 0 115.89 115.89 0 1 0 0 225.15 115.89 115.89 0 1 0 225.15 0 116 116 0 0 1-84.99-85.05Zm-55.13-55.13a116 116 0 0 1-85-85 116 116 0 0 1 85 85Zm280.23 55.05a115.89 115.89 0 0 1-140.08 85.08 116 116 0 0 0-85-85 115.89 115.89 0 0 1 0-55.13 116 116 0 0 0 85-85 115.76 115.76 0 0 1 27.55-3.32 115.89 115.89 0 0 1 112.52 143.37Z" style="fill:#fff"/>
</svg>
