<svg xmlns="http://www.w3.org/2000/svg" viewBox="0 0 1024 1024">
   <circle cx="512" cy="512" r="512" style="fill:#00297a"/>
   <path d="M302.42 443.94a70.42 70.42 0 1 0 70.42 70.42 70.38 70.38 0 0 0-70.42-70.42Zm0 105.7a35.28 35.28 0 1 1 35.28-35.28 35.31 35.31 0 0 1-35.28 35.28ZM426.18 538a6.21 6.21 0 0 1 10.64-4.34c17.64 17.92 46.76 48.72 46.9 48.86a5 5 0 0 0 2.52 1.68 9.58 9.58 0 0 0 3.08.28h31.78c5.74 0 7.42-6.58 4.76-9.94l-52.64-53.9-2.8-2.8c-6-7.14-5.32-9.94 1.54-17.22L513.68 454c2.66-3.36 1-9.8-4.9-9.8h-28.84a8.63 8.63 0 0 0-2.8.28 5.28 5.28 0 0 0-2.8 1.68c-.14.14-23.24 25.06-37.52 40.32a6.31 6.31 0 0 1-10.92-4.34v-79.92c0-4.06-3.36-5.6-6-5.6h-23.54c-4.06 0-6 2.66-6 5V578.9c0 4.06 3.36 5.18 6.16 5.18H420c3.64 0 6-2.66 6-5.32V538Zm192.08 40-2.52-23.52a5.58 5.58 0 0 0-6.58-4.9 35.86 35.86 0 0 1-5.46.42 35.29 35.29 0 0 1-35.14-33.32v-30.8a6.64 6.64 0 0 1 6.58-6.86h31.5a5.88 5.88 0 0 0 5.6-6V450.8c0-4.34-2.8-6.58-5.32-6.58h-31.78a6.55 6.55 0 0 1-6.72-6.3v-35.7a5.69 5.69 0 0 0-6-5.6H539c-2.94 0-5.74 1.82-5.74 5.46v114.66a70.35 70.35 0 0 0 70.44 68.46 68.78 68.78 0 0 0 9.38-.7 5.72 5.72 0 0 0 5.18-6.44Zm169.68-29.54c-19.88 0-23-7.14-23-33.88V450.1a6 6 0 0 0-6.16-6H735.3a6.18 6.18 0 0 0-6.16 6v2.9a69.52 69.52 0 0 0-34.72-9.24A70.42 70.42 0 1 0 740.2 567.7c6.58 10.08 17.22 16.8 33.88 16.94 2.8 0 17.92.56 17.92-6.58V553c0-2.1-1.68-4.48-4.06-4.48Zm-93.38 1.12a35.28 35.28 0 1 1 35.28-35.28 35.31 35.31 0 0 1-35.28 35.34Z" style="fill:#fff"/>
</svg>
