<svg xmlns="http://www.w3.org/2000/svg" viewBox="0 0 1024 1024">
   <circle cx="512" cy="512" r="512" style="fill:#e53711"/>
   <path d="M378 529.26h106v25.14h-77.08v40.48h72.68v22h-72.68v44.5H484V686H378.08Zm-113.27 43.53c-2.33 44 95.44-3.13 95.44 54.23 0 3.89-.08 8.12-.08 12.9 0 44.95-20.69 45.56-46.73 45.56s-53.36.15-53.36.15c0 5.65 2.67 13.73 1.6 14.64S234 681.59 234 672c0-10.39 26.35-27.07 27.24-26.38s-.75 7.37-1.52 18.37c7.12 0 37.34.55 53.34.15 17.47-.44 18.17-12 18.17-21.51 0-49.56-97.36 10-96.58-65.62 0-30.47 1.44-49 61.77-49 16.38 0 17.59 3 30.57 3s17.5-5.77 17.5-11.6a54.85 54.85 0 0 0-1.06-10.63c-4.08.81-26.93 2.53-32.3 2.42-9.35-.19-43.78-1.79-57.68-13.74s-14.87-32.62-15.57-54.59c0-42.61 2.12-74.94 12.06-87.71S271.8 341 271.8 341s-14.49-30-11.9-32 33.16 27.54 33.16 27.54c16-1.44 26.2-.07 35.47.68 0 0-8.73-31.93-6.77-33.47a.47.47 0 0 1 .34-.09c4.28.34 31.94 38.08 31.94 38.08s11.32 2.87 16.49 6.33 7.57 6.16 12.25 15.92 4.89 22.12 5.6 51.22c.42 21.88 2.91 55.07-10.27 74.45-7.92 11.79 0 57.63-28.54 64.44s-33.34-2.19-50.71-2.19-32.98-.83-34.13 20.88Zm59.69-202.2c0 3.34 2.1 6 4.69 6s4.69-2.71 4.69-6-2.1-6-4.69-6-4.69 2.65-4.69 5.99Zm-48 0c0 3.34 2.1 6 4.69 6s4.69-2.71 4.69-6-2.1-6-4.69-6-4.72 2.65-4.72 5.99Zm77.47 79.18s-13.08-16.39-15.67-16.39-8.47 7.34-12.1 7.34-10.06-8.1-10.06-8.1 6.85 2.42 10.21 2.22 9.09-13.88 12.3-13.88 11.76 8.93 16.42 10.9c.12-8.22-2.07-47.69-2.07-47.69h-78.65c-2.59 8.47-3.27 36.88-3.27 44.83 0 5.16-.95 38.9 8 46.63s23.54 7.28 32.5 7.28c17.67-.02 42.36 2.17 42.36-33.15Zm227.29-83v144.4h31.48V335.94h-52L512.26 469l-48.38-133.06h-52v175.27h31.48v-144.4l56 144.4h25.84Zm133.49 75.52h44.27v16.26c0 15.13-7.21 25.81-40.83 26s-45.6-7.09-45.6-28.27v-59.9c0-31.17 12.61-34.08 47.47-34.08s37.47 12.92 37.47 26.49h31.66c0-47.13-19.35-52.91-71.4-52.91-52 0-77.77 13.56-77.87 55.44V456c0 42.82 28.81 55.22 84.41 55.22S790 494.38 790 462v-43.4h-75.36Zm.55 219.71L673 529.26h-29.91L692.73 686h45l49.64-156.71h-29.96Zm-109.79-41.24c22.24 0 26.63 16.45 26.63 25.25v40H603v-33.36c0-9-6-19.17-19.17-19.17H536V686h-28.65V529.26h86.95c25 0 38.94 10.77 38.94 47.26s-8.93 39.18-27.81 44.24Zm-17.21-66.36h-52.1v54.19h48.44c18.58 0 18.64-13.71 19.08-26.71s-.77-27.49-15.42-27.49Z" style="fill:#fff"/>
</svg>
