<svg xmlns="http://www.w3.org/2000/svg" viewBox="0 0 1024 1024">
   <circle cx="512" cy="512" r="512" style="fill:#76b82a"/>
   <path d="M854.32 464.37a41.58 41.58 0 0 0-31.26 14.11A41.67 41.67 0 0 0 750.14 506v53.58H771v-54.3a20.84 20.84 0 0 1 41.66.71v53.58h20.84v-54.28a20.84 20.84 0 0 1 41.66.71v53.58H896V506a41.68 41.68 0 0 0-41.68-41.68m-172.65 74.47a26.79 26.79 0 1 1 26.8-26.79 26.79 26.79 0 0 1-26.79 26.79m0-74.42A47.63 47.63 0 1 0 729.3 512a47.62 47.62 0 0 0-47.62-47.63M580.5 485.21a26.7 26.7 0 0 1 19.42 8.36l14.73-14.73a47.63 47.63 0 1 0 0 66.32l-14.73-14.73a26.78 26.78 0 1 1-19.42-45.22m-86.36 38.7a17.86 17.86 0 1 1-17.86 17.86 17.86 17.86 0 0 1 17.86-17.86m-111.59-20.84a26.8 26.8 0 0 1 50.53 0Zm72.89 8.93a47.59 47.59 0 1 0-4.09 19.35h-25a26.8 26.8 0 0 1-44.27-11.9h72.79a48.07 48.07 0 0 0 .58-7.45Zm-163.72-47.63A47.63 47.63 0 0 0 244.09 512v47.63h20.84v-48.42a26.79 26.79 0 0 1 53.57.79v47.63h20.84v-48.57a47.63 47.63 0 0 0-47.62-46.69m-116.09 74.42A26.79 26.79 0 1 1 202.42 512a26.79 26.79 0 0 1-26.79 26.79m0-74.42A47.63 47.63 0 1 0 223.25 512a47.63 47.63 0 0 0-47.63-47.63" style="fill:#fff"/>
</svg>
