<?xml version="1.0" encoding="utf-8"?>
<!-- Generator: Adobe Illustrator 21.0.0, SVG Export Plug-In . SVG Version: 6.00 Build 0)  -->
<svg version="1.1" xmlns="http://www.w3.org/2000/svg" xmlns:xlink="http://www.w3.org/1999/xlink" x="0px" y="0px"
	 viewBox="0 0 1024 1024" style="enable-background:new 0 0 1024 1024;" xml:space="preserve">
<style type="text/css">
	.st0{fill:#AC3400;}
	.st1{fill:#FFFFFF;}
</style>
<g id="Min_Guides__x28_DO_NOT_REMOVE_x29_">
</g>
<g id="Max_Guides__x28_DO_NOT_REMOVE_x29_">
</g>
<g id="Icon">
	<circle id="Background" class="st0" cx="512" cy="512" r="512"/>
	<path class="st1" d="M478.3,357.3c4.9-18,10.6-35.6,17-52.5c3.7,0,7.5,0,11.4,0l7.8,0v52.4h-1.3
		C501.2,357.2,489.5,357.2,478.3,357.3z M428,358.3c8.6-18.1,18.5-35.9,29.6-53.1c7.6-0.1,15.6-0.2,24-0.3
		c-6.3,17-11.9,34.7-16.7,52.6C452.5,357.7,440.1,358,428,358.3z M514.6,589.6c-17.5-0.1-35-0.3-52.2-0.7
		c-3.2-23.3-4.9-47.1-5.1-70.8h57.3V589.6z M495.6,716.7c-6.7-17.3-12.6-35-17.6-52.5c11.4,0.1,23.3,0.2,35.6,0.2h1v52.4l-8.3,0
		C502.6,716.8,499.1,716.8,495.6,716.7z M615.7,358.7c-12.6-0.4-25-0.7-37.1-0.9c-4.8-17.9-10.3-35.5-16.6-52.5
		c7.9,0.1,15.9,0.3,24.2,0.5C597.3,322.8,607.1,340.6,615.7,358.7z M565.3,357.6c-13-0.2-25.6-0.3-37.9-0.4v-52.3
		c6.8,0,13.7,0.1,20.9,0.2C554.7,322,560.4,339.6,565.3,357.6z M703.7,426.5c-17.1-1.4-34-2.6-50.5-3.6
		c-4.6-16.9-10.5-33.9-17.5-50.7c14.2,0.5,28.6,1.1,43,1.8C689,391.3,697.4,408.9,703.7,426.5z M384.3,585.6
		c-16.6-1-32.7-2.1-48-3.4c-6.7-21.3-10.4-42.8-11.2-64.1h52.3C377.4,540.7,379.7,563.3,384.3,585.6z M599,505.2
		c-0.3-24-2.1-48.2-5.3-72.1c17.1,0.5,33.4,1.2,49.4,2.1c5.7,23.4,9.1,46.9,10,70.1L599,505.2L599,505.2z M404,649.7
		c-12.6-0.4-25.1-0.9-37.4-1.5c-10.6-17.4-19.2-35.1-25.8-52.7c15.1,1.2,30.7,2.2,46.3,3.1C391.4,615.7,397,632.8,404,649.7z
		 M439,715.9c-7.6-0.2-14.7-0.4-21.2-0.6c-16.4-17.9-30.8-35.9-42.8-53.9c11.3,0.5,22.9,0.9,34.6,1.3
		C417.9,680.7,427.7,698.6,439,715.9z M325,505.2c0.4-21.9,4-44,10.6-65.8c16.6-1.4,33.8-2.6,51.5-3.6c-5.4,23.1-8.6,46.4-9.5,69.4
		H325z M339.9,426.2c6.4-17.7,14.8-35.4,25.2-52.7c13.9-0.7,28.2-1.3,42.9-1.7c-7.1,17-13,34.1-17.6,51.1
		C373.2,423.8,356.3,424.9,339.9,426.2z M373.4,360.2c12.2-18.6,26.6-36.7,42.8-53.9c7.9-0.3,16.5-0.6,26-0.8
		c-10.7,17.2-20.3,35-28.5,53.1C400,359.1,386.5,359.6,373.4,360.2z M403.9,422.1c4.8-16.9,10.9-34,18.2-50.8
		c12.4-0.4,25.6-0.7,39.5-0.9c-4,16.4-7.3,33.1-10,49.8C435.6,420.7,419.6,421.3,403.9,422.1z M464.8,419.8
		c2.7-16.7,6.1-33.3,10.2-49.6c12.3-0.1,25.1-0.2,38.4-0.2h1.3v49.2C498,419.2,481.3,419.4,464.8,419.8z M578.8,419.9
		c-17-0.4-34.2-0.6-51.4-0.7V370c13.3,0.1,27.1,0.2,41.3,0.4C572.7,386.6,576.1,403.2,578.8,419.9z M527.4,518.1h58.8
		c-0.2,23.7-1.9,47.4-5.1,70.7c-17.8,0.5-35.8,0.7-53.7,0.8V518.1z M457.3,505.2c0.3-24.1,2.2-48.5,5.5-72.6
		c17-0.4,34.4-0.7,51.7-0.7v73.3H457.3z M390.5,505.2c0.9-23.2,4.2-46.8,10-70.2c16.2-0.8,32.7-1.5,49.4-2
		c-3.2,23.9-5,48.1-5.3,72.2L390.5,505.2L390.5,505.2z M513.9,651.6c-13.6,0-26.7-0.1-39.3-0.2c-4.2-16.3-7.6-33-10.3-49.6
		c16.5,0.4,33.4,0.6,50.3,0.7v49.2L513.9,651.6z M582.3,650.9c4-16.3,7.4-32.9,10-49.6c17.2-0.5,34.2-1.2,50.7-2.1
		c-4.4,16.9-10.2,33.9-17.4,50.5C611.4,650.2,596.8,650.6,582.3,650.9z M449.4,588.5c-17.2-0.5-34.6-1.3-51.9-2.2
		c-4.8-22.4-7.3-45.3-7.3-68.2h54.3C444.7,541.6,446.4,565.3,449.4,588.5z M461.3,651.1c-14.7-0.2-29.2-0.6-43.2-1
		c-7.2-16.7-13.1-33.8-17.5-50.9c16.9,0.9,33.9,1.6,50.7,2C453.9,618.1,457.3,634.8,461.3,651.1z M311.6,363.9
		c14.7-20.8,32.2-39.1,52.3-54.8c4.2-0.3,15.7-1.2,34.3-2c-15.4,17.3-28.9,35.4-40.5,53.9C337.2,362,321.6,363.1,311.6,363.9z
		 M277.2,432.3c6.3-19.2,14.8-37.6,25.4-54.8c6.4-0.5,22.6-1.8,47.2-3.2c-9.9,17.5-17.9,35.3-23.9,53.1
		C303.5,429.3,286.9,431.1,277.2,432.3z M384,294.9c16.1-10.2,33.1-18.5,51-24.9c-7.2,6.4-15.6,14.3-24.5,23.6
		C400,294.1,391.2,294.6,384,294.9z M466.4,292.3c13.2-19,23.9-31.2,27.8-35.5c2.7-0.3,5.5-0.5,8.4-0.7c-3.9,7.9-9.7,20.1-16,36
		C479.5,292.1,472.8,292.2,466.4,292.3z M429.2,293.1c18.2-17.8,32.7-28.9,36.7-31.8c3-0.7,6-1.3,9.1-1.8
		c-6.4,7.9-14.9,19-24.3,33.1C443,292.7,435.9,292.9,429.2,293.1z M264.7,505.2c0.5-20.1,3.4-40.1,8.6-59.6
		c7.2-0.9,23.9-2.9,48.6-5.1c-6,21.4-9.3,43.1-9.7,64.7L264.7,505.2L264.7,505.2z M481.9,716.7c-9.6-0.1-18.6-0.2-27.1-0.4
		c-11.8-17.3-22.1-35.1-30.7-53.1c13.4,0.4,27,0.7,40.6,0.9C469.5,681.6,475.3,699.2,481.9,716.7z M500.4,292
		c5.7-14.1,10.8-24.7,14.2-31.4V292C514.6,292,502.6,292,500.4,292z M474.8,763.8c-2.9-0.5-5.7-1.1-8.6-1.7
		c-12.6-10.9-24.5-22.2-35.7-33.6c5.5,0.2,11.3,0.3,17.5,0.4C456.2,740.6,465.2,752.3,474.8,763.8z M604.8,715.3
		c11.2-17.3,21-35.1,29.2-53c11.4-0.4,23-0.9,34.8-1.4c-11.9,17.9-26.2,35.9-42.5,53.7C619,714.8,611.9,715.1,604.8,715.3z
		 M659.3,585.4c4.5-22.2,6.8-44.8,6.8-67.4h52.3c-0.8,21.2-4.5,42.7-11.1,63.8C691.1,583.3,675,584.5,659.3,585.4z M527.4,664.4
		c12.3-0.1,25.1-0.2,38.1-0.4c-4.9,17.6-10.8,35.2-17.5,52.5c-7.1,0.1-13.9,0.2-20.6,0.2V664.4z M527.4,292v-34.5
		c3.3,6.3,9.1,18.2,15.8,34.7C537.8,292.1,532.6,292.1,527.4,292z M615,293.8c-7.4-0.2-14.7-0.5-21.8-0.6
		c-9.4-14.1-18-25.4-24.4-33.3c3.2,0.6,6.3,1.3,9.5,2C583.1,265.3,597.3,276.4,615,293.8z M577.5,292.7c-7-0.1-13.8-0.3-20.4-0.4
		c-6.4-16.1-12.1-28.4-16-36.2c2.8,0.2,5.7,0.5,8.5,0.8C553.6,261.4,564.4,273.8,577.5,292.7z M658.7,295.4c-8.5-0.4-16.9-0.7-25-1
		c-8.7-9.1-17-17-24.2-23.4C626.8,277.4,643.2,285.5,658.7,295.4z M730.6,364.1c-14.4-0.9-29.1-1.8-44.4-2.5
		c-11.5-18.5-25-36.5-40.2-53.8c10.5,0.4,21.2,0.9,32.2,1.4C698.4,324.8,715.9,343.3,730.6,364.1z M604.6,753.8
		c5.7-5.4,8.8-8.2,10.8-10.1c4-3.7,4-3.7,12.6-12.4l4-4.1c6.5-0.3,13.9-0.5,21.5-0.7c3.1-0.1,6.3-0.1,9.4-0.2
		C645.9,737,626.1,746.4,604.6,753.8z M322.2,581c-24.9-2.2-42.3-4.4-49.9-5.4c-4.8-18.8-7.5-38.1-8-57.6h47.6
		C312.6,539,316,560.1,322.2,581z M351.2,647.4c-25.6-1.4-43.2-3-50-3.6c-10.3-17.2-18.6-35.4-24.7-54.5c10,1.2,27.3,3.1,50.2,5
		C332.9,612,341.1,629.8,351.2,647.4z M400,714.6c-19.3-0.9-31.4-1.7-35.8-2c-21.8-17.2-40.2-36-53.8-55c10.7,0.8,27.4,1.9,48.9,3
		C370.7,678.6,384.3,696.7,400,714.6z M440,754.3c-19.8-6.9-38.8-16.2-56.4-27.7c7.6,0.4,17.1,0.9,28.4,1.3
		C420.3,736.6,430,745.5,440,754.3z M514.4,761.1c-3.9-8.8-9.5-21.4-13.8-31.5c1.6,0,10.8,0,13.8,0V761.1z M503.4,767.6
		c-3.2-0.2-6.6-0.5-9.3-0.7c-10.9-12.3-21.1-24.8-30.3-37.3c7.3,0.1,14.9,0.2,23,0.3C492,742.7,497.7,755.7,503.4,767.6z
		 M527.4,729.5c5,0,10.1-0.1,15.4-0.1c-4.7,11-11.2,24.8-15.4,33.7V729.5z M539.4,768c4.9-10.5,12.6-27.3,17.4-38.8
		c7.6-0.1,15.3-0.3,23.3-0.4c-10.1,14-20.1,26.6-30.5,38.3C546.1,767.4,542.7,767.7,539.4,768z"/>
</g>
</svg>
