<?xml version="1.0" encoding="utf-8"?>
<!-- Generator: Adobe Illustrator 24.0.2, SVG Export Plug-In . SVG Version: 6.00 Build 0)  -->
<svg version="1.1" xmlns="http://www.w3.org/2000/svg" xmlns:xlink="http://www.w3.org/1999/xlink" x="0px" y="0px"
	 viewBox="0 0 1024 1024" style="enable-background:new 0 0 1024 1024;" xml:space="preserve">
<style type="text/css">
	.st0{fill:#E44A49;}
	.st1{fill:#FFFFFF;}
</style>
<g id="Min_Guides__x28_DO_NOT_REMOVE_x29_">
</g>
<g id="Max_Guides__x28_DO_NOT_REMOVE_x29_">
</g>
<g id="Icon">
	<circle id="Background" class="st0" cx="512.3" cy="512.3" r="512"/>
	<path class="st1" d="M512.8,207.9c-173.6,0-314.8,148.5-314.8,330.9c0,116.3,57.9,218.2,142.9,277.2l15.3-10.7
		c3.4-1.8,8.5-5.4,11.9-7.2c5.1-1.8,10.2-5.4,13.6-7.2c5.1-1.8,10.2-3.6,15.3-7.2c3.4-1.8,8.5-3.6,11.9-5.4c5.1-1.8,11.9-3.6,17-5.4
		c5.1-1.8,8.5-1.8,13.6-3.6c5.1-1.8,8.5-1.8,13.6-3.6c5.1-1.8,10.2-1.8,15.3-1.8c5.1,0,11.9-1.8,17-1.8V565.7h-17v-35.8h85.1V766
		c47.6,7.2,90.2,25,129.3,50.1c86.8-59,142.9-161,142.9-277.2C827.6,356.4,686.4,207.9,512.8,207.9z M606.4,538.8
		c0-53.7-42.5-98.4-93.6-98.4c-51,0-93.6,44.7-93.6,98.4c0,37.6,20.4,71.5,51,87.6v19.7c-39.1-17.9-68.1-59-68.1-107.3
		c0-64.4,49.3-116.3,110.6-116.3s110.6,51.9,110.6,116.3c0,41.1-20.4,76.9-51,98.4v-21.5C592.8,596.1,606.4,569.2,606.4,538.8
		L606.4,538.8z M572.4,733.8v-19.7c69.8-25,119.1-94.8,119.1-177.1c0-102-80-186-178.7-186c-98.7,0-178.7,84.1-178.7,187.8
		c0,87.6,57.9,162.8,136.1,182.4v17.9c-86.8-19.7-153.1-102-153.1-200.3c0-114.5,86.8-205.7,195.7-205.7s195.7,91.2,195.7,205.7
		C708.5,630,650.7,708.7,572.4,733.8L572.4,733.8z"/>
</g>
</svg>
