<svg xmlns="http://www.w3.org/2000/svg" viewBox="0 0 1024 1024">
   <circle cx="512.25" cy="512.25" r="512" style="fill:#e54b4d"/>
   <path d="M512.4 254.5c-146.8 0-266.3 125.6-266.3 279.9 0 98.3 48.9 184.6 120.9 234.5l.09-.06-.09.06 1.92 1.42c36.53-21.89 76.22-37.5 120.61-43.84V557.1H475.1v-30.3h72v199.7c40.3 6.1 76.3 21.2 109.4 42.4 73.4-49.9 120.9-136.2 120.9-234.5 1.3-154.3-118.2-279.9-265-279.9zm0 196.7c-43.2 0-79.2 37.8-79.2 83.2 0 31.8 17.3 60.5 43.2 74.1v16.6c-33.1-15.1-57.6-49.9-57.6-90.8 0-54.5 41.7-98.3 93.6-98.3s93.6 43.9 93.6 98.3a101.19 101.19 0 0 1-43.2 83.2v-18.2c17.3-16.5 28.8-39.2 28.8-64.9 0-45.4-36-83.2-79.2-83.2zm50.4 248.1v-16.6c59-21.2 100.8-80.2 100.8-149.8 0-86.2-67.7-157.4-151.1-157.4s-151.1 71.1-151.1 158.9c0 74.1 48.9 137.7 115.1 154.3v15.1C403.1 687.2 347 617.6 347 534.3c0-96.8 73.4-174 165.5-174S678 437.5 678 534.3c-.1 77.3-49 143.8-115.2 165z" style="fill:#fff"/>
</svg>
