<?xml version="1.0" encoding="utf-8"?>
<!-- Generator: Adobe Illustrator 21.0.0, SVG Export Plug-In . SVG Version: 6.00 Build 0)  -->
<svg version="1.1" xmlns="http://www.w3.org/2000/svg" xmlns:xlink="http://www.w3.org/1999/xlink" x="0px" y="0px"
	 viewBox="0 0 1024 1024" style="enable-background:new 0 0 1024 1024;" xml:space="preserve">
<style type="text/css">
	.st0{fill:#E44A49;}
	.st1{fill:#FFFFFF;}
</style>
<g id="Min_Guides__x28_DO_NOT_REMOVE_x29_">
</g>
<g id="Max_Guides__x28_DO_NOT_REMOVE_x29_">
</g>
<g id="Icon">
	<circle id="Background" class="st0" cx="512.3" cy="512.3" r="512"/>
	<path class="st1" d="M512.4,254.5c-146.8,0-266.3,125.6-266.3,279.9c0,98.3,48.9,184.6,120.9,234.5l0.1-0.1l-0.1,0.1l1.9,1.4
		c36.5-21.9,76.2-37.5,120.6-43.8v-23.6h0V557.1h-14.4v-30.3h72v199.7c40.3,6.1,76.3,21.2,109.4,42.4
		c73.4-49.9,120.9-136.2,120.9-234.5C778.7,380.1,659.2,254.5,512.4,254.5z M512.4,451.2c-43.2,0-79.2,37.8-79.2,83.2
		c0,31.8,17.3,60.5,43.2,74.1v16.6c-33.1-15.1-57.6-49.9-57.6-90.8c0-54.5,41.7-98.3,93.6-98.3c51.9,0,93.6,43.9,93.6,98.3
		c0,34.8-17.3,65.1-43.2,83.2v-18.2c17.3-16.5,28.8-39.2,28.8-64.9C591.6,489,555.6,451.2,512.4,451.2z M562.8,699.3v-16.6
		c59-21.2,100.8-80.2,100.8-149.8c0-86.2-67.7-157.4-151.1-157.4c-83.5,0-151.1,71.1-151.1,158.9c0,74.1,48.9,137.7,115.1,154.3
		v15.1C403.1,687.2,347,617.6,347,534.3c0-96.8,73.4-174,165.5-174S678,437.5,678,534.3C677.9,611.6,629,678.1,562.8,699.3z"/>
</g>
</svg>
