<?xml version="1.0" encoding="utf-8"?>
<!-- Generator: Adobe Illustrator 24.0.2, SVG Export Plug-In . SVG Version: 6.00 Build 0)  -->
<svg version="1.1" xmlns="http://www.w3.org/2000/svg" xmlns:xlink="http://www.w3.org/1999/xlink" x="0px" y="0px"
	 viewBox="0 0 1024 1024" style="enable-background:new 0 0 1024 1024;" xml:space="preserve">
<style type="text/css">
	.st0{fill:#E44A49;}
	.st1{fill:#FFFFFF;}
</style>
<g id="Min_Guides__x28_DO_NOT_REMOVE_x29_">
</g>
<g id="Max_Guides__x28_DO_NOT_REMOVE_x29_">
</g>
<g id="Icon">
	<circle id="Background" class="st0" cx="512.3" cy="512.3" r="512"/>
	<path class="st1" d="M512.7,254.8c-146.8,0-266.3,125.6-266.3,279.9c0,98.3,48.9,184.6,120.9,234.5l13-9.1
		c2.9-1.5,7.2-4.5,10.1-6.1c4.3-1.5,8.6-4.5,11.5-6.1c4.3-1.5,8.6-3,13-6.1c2.9-1.5,7.2-3,10.1-4.5c4.3-1.5,10.1-3,14.4-4.5
		c4.3-1.5,7.2-1.5,11.5-3c4.3-1.5,7.2-1.5,11.5-3c4.3-1.5,8.6-1.5,13-1.5c4.3,0,10.1-1.5,14.4-1.5V557.4h-14.4v-30.3h72v199.7
		c40.3,6.1,76.3,21.2,109.4,42.4c73.4-49.9,120.9-136.2,120.9-234.5C779,380.4,659.5,254.8,512.7,254.8z M591.9,534.7
		c0-45.4-36-83.2-79.2-83.2c-43.2,0-79.2,37.8-79.2,83.2c0,31.8,17.3,60.5,43.2,74.1v16.6c-33.1-15.1-57.6-49.9-57.6-90.8
		c0-54.5,41.7-98.3,93.6-98.3s93.6,43.9,93.6,98.3c0,34.8-17.3,65.1-43.2,83.2v-18.2C580.4,583.1,591.9,560.4,591.9,534.7
		L591.9,534.7z M563.1,699.6V683c59-21.2,100.8-80.2,100.8-149.8c0-86.2-67.7-157.4-151.1-157.4c-83.5,0-151.1,71.1-151.1,158.9
		c0,74.1,48.9,137.7,115.1,154.3v15.1c-73.4-16.6-129.5-86.2-129.5-169.5c0-96.8,73.4-174,165.5-174s165.5,77.2,165.5,174
		C678.2,611.9,629.3,678.4,563.1,699.6L563.1,699.6z"/>
</g>
</svg>
