<svg xmlns="http://www.w3.org/2000/svg" viewBox="0 0 1024 1024">
   <circle cx="512" cy="512" r="512" style="fill:#00aff0"/>
   <path d="M442.69 325.56c-70.71-.79-139.36 42.69-168.85 107-30.93 63.6-20.94 144.23 24.56 198.37 44.27 55.14 121.44 80.54 189.82 62.57 55.56-13.61 103.55-54.37 125.91-107 53.89-2.5 106.75-33.78 129.2-83.8 5-13.91 24.8-47-4.46-33.84-28.58 4-58.23 4.65-86.24-3.18 63.53-11.13 127.51-47.28 153.44-108.94 2.89-11.06 19.86-36.46-2-31.12-54.42.94-109.16-2.79-163.28 4.32-29.21 4-57.74 17.49-76.06 41.12a187.07 187.07 0 0 0-122.03-45.5zm-.15 130.73c30.2-.88 57.28 26.41 56.18 56.6.53 30.17-27 56.9-57.18 55.44-30.13.07-56.44-27.77-54.67-57.85.49-29.43 26.22-54.48 55.67-54.19z" style="fill:#fff"/>
</svg>
