<svg xmlns="http://www.w3.org/2000/svg" viewBox="0 0 1024 1024">
   <circle cx="512" cy="512" r="512" style="fill:#ff6f3d"/>
   <path d="m480 742.51-210.55-97.34c-17.94-8.5-17.94-21.63 0-29.36l73.31-34 136.48 63.35c17.94 8.5 46.79 8.5 64 0l136.48-63.35 73.31 34c17.94 8.5 17.94 21.63 0 29.36l-210.61 97.34c-16.42 7.73-45.24 7.73-62.42 0Zm0-119.76-210.55-97.34c-17.94-8.5-17.94-21.63 0-29.36l71.75-33.22L480 527c17.94 8.5 46.79 8.5 64 0l138.8-64.16 71.75 33.22c17.94 8.5 17.94 21.63 0 29.36L544 622.75c-18 8.5-46.82 8.5-64 0Zm0 0-210.55-97.34c-17.94-8.5-17.94-21.63 0-29.36l71.75-33.22L480 527c17.94 8.5 46.79 8.5 64 0l138.8-64.16 71.75 33.22c17.94 8.5 17.94 21.63 0 29.36L544 622.75c-18 8.5-46.82 8.5-64 0Zm0-116.65-210.55-97.34c-17.94-8.5-17.94-21.63 0-29.36L480 282.07c17.94-8.5 46.79-8.5 64 0l210.57 97.34c17.94 8.5 17.94 21.63 0 29.36L544 506.11c-18 7.72-46.82 7.72-64 0Z" style="fill:#fff"/>
</svg>
