<svg xmlns="http://www.w3.org/2000/svg" viewBox="0 0 1024 1024">
   <circle cx="512" cy="512" r="512" style="fill:#00aff0"/>
   <path d="m480.6 567.77-47.47 150.9-.86 2.74C326.28 716 242 628.34 242 521c0-110.83 89.84-200.67 200.67-200.67a199.8 199.8 0 0 1 123.47 42.48c-25.14 30.64-44.46 77.31-65.54 141.83a60.2 60.2 0 1 0-57.93 76.56h.16a59.86 59.86 0 0 0 37.77-13.43Zm221.33-246.85q-5.85.21-11.42.51-7 .38-13.49.94c-7 .6-13.59 1.37-19.89 2.34l-2.35.38q-3.5.58-6.87 1.25l-2.23.46q-2.22.47-4.38 1l-2.15.53q-3.21.8-6.3 1.72-2.06.61-4.07 1.27a126.79 126.79 0 0 0-13.51 5.28q-3.71 1.7-7.24 3.65t-6.93 4.15l-1.69 1.12q-1.68 1.13-3.32 2.34t-3.25 2.48l-1.6 1.29q-2.39 2-4.71 4.09-3.1 2.84-6.09 6t-5.89 6.61l-.71.87q-1.81 2.2-3.59 4.52-1.42 1.86-2.82 3.81-2.1 2.92-4.16 6-2.75 4.16-5.44 8.69c-15.26 25.67-29.37 60.44-45 107.49q-4.84 14.53-9.91 30.65l-2.57 8.17c-.1.32-.2.63-.3.95l-57.38 182.19c1.58 0 3.16 0 4.74-.06h1.05q2-.06 3.95-.15h.88q2.31-.12 4.61-.29l.93-.08q1.76-.14 3.51-.31l.7-.07 1.08-.11 2.63-.3 1.92-.23 1.51-.21 1.77-.25.37-.05 1.41-.22 1.77-.28.73-.12 1-.17 2.37-.42 1.13-.22 2.47-.48 1-.22 2.54-.55.92-.21 2.64-.62.64-.16 2.89-.73.47-.13 3-.83.39-.11q1.56-.44 3.1-.91h.11q1.68-.51 3.35-1a200.3 200.3 0 0 0 114.25-94.61l.08-.16q1.73-3.17 3.35-6.42l.19-.38q.73-1.47 1.44-3 1.6-3.37 3.09-6.81h.22c48.56-3.58 88.06-22.69 115.47-54.29q4.22-4.87 8.06-10.13a160.16 160.16 0 0 0 10.6-16.8q2.43-4.37 4.62-8.95 1.46-3.05 2.82-6.19 2.72-6.28 5-12.92a200.19 200.19 0 0 0 5.9-20.68h-.32l-.34.08-.46.1h-.17l-.44.1h-.2l-.72.15-.81.17-.29.06-.69.14-.31.06-1 .2h-.13l-1.1.21-.42.08-.88.17-.47.09-1.31.24h-.14l-1.41.25-.5.08-1.12.19-.55.09-1.58.25h-.18l-1.67.26-.59.09-1.31.19-.64.09-1.85.26h-.16l-1.93.25-.67.09-1.48.18-.7.08-2.09.24h-.13l-2.17.23-.7.07-1.68.17-.72.07-2.28.21h-.19l-2.33.19-.76.06-1.8.13-.79.05-2.47.15h-.14l-2.52.13h-.79l-1.94.08h-.81l-2.68.08h-6.4q-2.78 0-5.61-.07h-.85l-2.1-.07H710q-2.87-.12-5.77-.31l-.84-.06-2.18-.17-.84-.07q-2.92-.25-5.86-.59l-.85-.1-2.2-.28-.85-.11q-2.94-.4-5.88-.91l-.86-.15-2.19-.4-.85-.16c-1-.19-2-.39-2.93-.6-1-.21-1.94-.43-2.9-.66l-.85-.21-2.15-.54-.86-.22c-1-.25-1.92-.52-2.87-.79q2.36-.46 4.7-.94 9.33-1.94 18.16-4.31 2.21-.59 4.38-1.21 4.35-1.23 8.58-2.57 8.45-2.67 16.41-5.75 4-1.54 7.83-3.17a237.81 237.81 0 0 0 25.45-12.59q3.42-2 6.72-4a195.64 195.64 0 0 0 37.63-30.21q2.5-2.58 4.87-5.25 4.74-5.32 9-10.94 2.13-2.81 4.13-5.68t3.89-5.82q2.82-4.42 5.37-9 .85-1.52 1.67-3.06 1.64-3.08 3.16-6.22 2.28-4.71 4.28-9.56 1.34-3.23 2.55-6.52a189.83 189.83 0 0 0 7-23.71H743.23c-14.9.41-28.62.55-41.3 1Z" style="fill:#fff"/>
</svg>
