<svg xmlns="http://www.w3.org/2000/svg" viewBox="0 0 1024 1024">
   <circle cx="512" cy="512" r="512" style="fill:#00aff0"/>
   <path d="M512 251.5c-141.47 0-256.14 116.63-256.14 260.5S370.54 772.5 512 772.5 768.14 655.87 768.14 512 653.46 251.5 512 251.5zm0 493.82c-126.7 0-229.42-104.46-229.42-233.32S385.3 278.68 512 278.68 741.4 383.14 741.4 512 638.7 745.32 512 745.32zM618.23 495.2v-21.3a95.82 95.82 0 0 0-95.47-95.55h-17.11a95.81 95.81 0 0 0-95.44 95.55v21.3l-11.8 21.74v31.36a106.5 106.5 0 0 0 106.27 106.41h19.07A106.64 106.64 0 0 0 630 548.3v-31.37zm-92.86 96.2v25.1a11.08 11.08 0 0 1-4.95 9.26l-.07.07-.07.07h-.07l-.07.07h-.07l-.08.07-.07.07h-.07l-.14.07-.07.07-.07.07h-.14l-.07.07h-.07l-.07.07-.07.07H519l-.14.07h-.09l-.07.07-.07.07h-.14l-.07.07h-.13l-.07.07h-.07l-.07.07H518l-.08.07h-.05l-.07.07h-.22l-.07.07h-.14l-.07.07h-.3l-.07.07h-.29v.07h-.22l-.22.07h-.29a6.35 6.35 0 0 1-1.68.14h-.07a5.4 5.4 0 0 1-1.09-.07 4.45 4.45 0 0 1-1.39-.22h-.07l-.14-.07h-.09l-.22-.07-.29-.07h-.14l-.08-.07h-.07l-.15-.07h-.07a4.49 4.49 0 0 0-.49-.22l-.22-.07v-.07h-.15l-.07-.07h-.07l-.07-.07-.15-.07h-.07l-.15-.07-.07-.07-.15-.07-.07-.07-.15-.07h-.07V626h-.07l-.14-.07a11.19 11.19 0 0 1-5.1-9.4V591.4a30 30 0 0 1 10.9-57.77h.58a30 30 0 0 1 10.85 57.77zm50.27-95.55H452.82v-22A53 53 0 0 1 505.63 421h17.13a53 53 0 0 1 52.89 52.88z" style="fill:#fff"/>
</svg>
