<svg xmlns="http://www.w3.org/2000/svg" viewBox="0 0 1024 1024">
   <circle cx="512" cy="512" r="512" style="fill:#64bc4f"/>
   <path d="m395.31 504 42.24 24.26v-54.73l115-67.23L511 380.65l-115.69 67.93V504ZM511 224l95.57 55.45-251.39 149v128.26l-91.41-53.37V368.18L511 224Zm66.48 196.85-42.28 24.26 48.48 28.42-.68 129.62 42.24-24.26V448.58l-47.79-27.73Zm182.79 233.59-95.57 56.84V426.4L549 358.47l97-56.14 114.27 66.54v285.57Zm-201.53-36v-47.17l-48.48 28.42-115-67.23v47.13l115.65 67.23Zm-295 38.12v-105.4L511 692.56l113.58-67.93.69 109.52L513.72 800l-250-143.48Z" style="fill:#fff"/>
</svg>
