<?xml version="1.0" encoding="utf-8"?>
<!-- Generator: Adobe Illustrator 21.0.0, SVG Export Plug-In . SVG Version: 6.00 Build 0)  -->
<svg version="1.1" xmlns="http://www.w3.org/2000/svg" xmlns:xlink="http://www.w3.org/1999/xlink" x="0px" y="0px"
	 viewBox="0 0 1024 1024" style="enable-background:new 0 0 1024 1024;" xml:space="preserve">
<style type="text/css">
	.st0{fill:#297EFF;}
	.st1{fill:#FFFFFF;}
</style>
<g id="Min_Guides__x28_DO_NOT_REMOVE_x29_">
</g>
<g id="Max_Guides__x28_DO_NOT_REMOVE_x29_">
</g>
<g id="Icon">
	<circle id="Background" class="st0" cx="512" cy="512" r="512"/>
	<path class="st1" d="M722.5,366.2C751.2,407.6,768,457.8,768,512s-16.8,104.4-45.5,145.8l-66.3-66.3c13-23.6,20.4-50.7,20.4-79.5
		c0-28.8-7.4-55.9-20.4-79.5L722.5,366.2z M657.8,301.5l-66.3,66.3c-23.6-13-50.7-20.4-79.5-20.4c-90.9,0-164.6,73.7-164.6,164.6
		S421.1,676.6,512,676.6c28.8,0,55.9-7.4,79.5-20.4l66.3,66.3C616.4,751.2,566.2,768,512,768c-141.4,0-256-114.6-256-256
		c0-141.4,114.6-256,256-256C566.2,256,616.4,272.8,657.8,301.5z"/>
</g>
</svg>
