<svg xmlns="http://www.w3.org/2000/svg" viewBox="0 0 1024 1024" style="enable-background:new 0 0 1024 1024" xml:space="preserve">
   <circle cx="512" cy="512" r="512" style="fill:#ea7e20"/>
   <path d="M592.2 515.3c0-44.9-36.1-81-81-81s-81 36.1-81 81c0 35 21.9 64.5 52.5 75.5L451 757.1h120.3l-30.6-166.3c29.6-12.1 51.5-40.5 51.5-75.5m175.8 5.5c0-140-114.9-253.8-256-253.8S256 380.7 256 520.8c0 93 50.3 173.9 125.8 217.7l16.4-108.3c-24.1-26.3-39.4-62.4-39.4-100.6 0-83.1 67.8-151 152.1-151S663 446.4 663 529.5c0 39.4-15.3 74.4-39.4 101.7L640 739.6c76.6-43.8 128-125.9 128-218.8" style="fill:#fff"/>
</svg>
