<?xml version="1.0" encoding="utf-8"?>
<!-- Generator: Adobe Illustrator 21.0.0, SVG Export Plug-In . SVG Version: 6.00 Build 0)  -->
<svg version="1.1" xmlns="http://www.w3.org/2000/svg" xmlns:xlink="http://www.w3.org/1999/xlink" x="0px" y="0px"
	 viewBox="0 0 1024 1024" style="enable-background:new 0 0 1024 1024;" xml:space="preserve">
<style type="text/css">
	.st0{fill:#EA7E20;}
	.st1{fill:#FFFFFF;}
</style>
<g id="Min_Guides__x28_DO_NOT_REMOVE_x29_">
</g>
<g id="Max_Guides__x28_DO_NOT_REMOVE_x29_">
</g>
<g id="Icon">
	<circle id="Background" class="st0" cx="512" cy="512" r="512"/>
	<path class="st1" d="M592.2,515.3c0-44.9-36.1-81-81-81s-81,36.1-81,81c0,35,21.9,64.5,52.5,75.5l-31.7,166.3h120.3l-30.6-166.3
		C570.3,578.7,592.2,550.3,592.2,515.3 M768,520.8c0-140-114.9-253.8-256-253.8S256,380.7,256,520.8c0,93,50.3,173.9,125.8,217.7
		l16.4-108.3c-24.1-26.3-39.4-62.4-39.4-100.6c0-83.1,67.8-151,152.1-151S663,446.4,663,529.5c0,39.4-15.3,74.4-39.4,101.7
		L640,739.6C716.6,695.8,768,613.7,768,520.8"/>
</g>
</svg>
