<svg xmlns="http://www.w3.org/2000/svg" viewBox="0 0 1024 1024">
   <circle cx="512" cy="512" r="512" style="fill:#787878"/>
   <path d="M741.44 379.63c-9.62-50.07-47-87.49-97.1-97.1l-8.11-1.53H387.77l-8.11 1.56c-50.07 9.62-87.49 47-97.1 97.1l-1.56 8.08v248.45l1.56 8.11c7.32 38.09 30.95 69.53 64.83 86.27a127.12 127.12 0 0 0 42.44 12.26c1.51.14 57.72.23 124.91.19l122.17-.07 7.79-1.55c50.26-10 87.13-47 96.74-97.09l1.56-8.11V387.74Zm-78.23 144.82c-2 37.4-11.32 65.67-29.66 90-22.3 29.6-55.65 47.11-97.94 51.42-36.13 3.69-71.21-1.4-97.66-14.17-37.33-18-62.92-52.49-71.73-96.64-3.17-15.88-3.77-22.7-3.77-43.12 0-19.92.58-26.88 3.52-42 12.09-62.44 54.7-102.52 118.26-111.24 24-3.29 54.57-1.81 76.37 3.7 39.26 9.93 68.56 33.35 86.18 68.86 12.63 25.46 18.32 57.74 16.43 93.19Zm-159.76 76.2c-20-3.41-31.68-13.15-39.56-32.93a127.58 127.58 0 0 1-6.6-24.85c-2.39-15.91-2.26-46.44.28-62.05 3.45-21.23 10.27-36.42 20.82-46.37 8.86-8.35 18.48-11.62 34.3-11.65 10.78 0 16.84 1.13 24.55 4.66 16.16 7.4 27.17 27.12 31.32 56.1 1.76 12.32 1.8 47.49.05 59.2-3.07 20.65-10.15 36.66-20.38 46.13s-29.1 14.43-44.78 11.75Z" style="fill:#fff"/>
</svg>
