<svg xmlns="http://www.w3.org/2000/svg" viewBox="0 0 1024 1024">
   <circle cx="512" cy="512" r="512" style="fill:#c74634"/>
   <path d="M466.88 525.07h44.19l-23.34-37.69-42.91 68.08H425.3l52.19-81.68a12.44 12.44 0 0 1 20.3-.14l52.34 81.82h-19.52l-9.19-15.22h-44.71L467 525.07m202.76 15.16v-71h-16.62v77.94a8 8 0 0 0 2.46 5.8 8.38 8.38 0 0 0 6 2.52H737l9.83-15.22h-77.19m-274.12-12.71a29.14 29.14 0 1 0 0-58.28H323v86.17h16.56v-70.92h54.92a13.95 13.95 0 0 1 0 27.89H347.8l49.47 43h24l-33.23-27.89h7.45M221.2 555.46h50.07a43.09 43.09 0 0 0 0-86.14H221.2a43.09 43.09 0 0 0-2.2 86.14h2.24m48.94-15.16h-47.87a27.89 27.89 0 0 1 0-55.76h47.84a27.89 27.89 0 0 1 1.8 55.76h-1.8m314.57 15.16h51.12l9.68-15.16h-59.68a27.89 27.89 0 1 1-1.8-55.76h50.37l9.8-15.22h-59.5a43.09 43.09 0 0 0-2.24 86.14h2.24m202.59-15.17A27.89 27.89 0 0 1 760.45 520h70.81l9.74-15.2h-80.55a27.86 27.86 0 0 1 26.85-20.3h48.6l9.71-15.22h-59.44a43.09 43.09 0 0 0 0 86.14h51.12l9.71-15.16h-59.73" style="fill:#fff"/>
</svg>
