<?xml version="1.0" encoding="utf-8"?>
<!-- Generator: Adobe Illustrator 21.0.0, SVG Export Plug-In . SVG Version: 6.00 Build 0)  -->
<svg version="1.1" xmlns="http://www.w3.org/2000/svg" xmlns:xlink="http://www.w3.org/1999/xlink" x="0px" y="0px"
	 viewBox="0 0 1024 1024" style="enable-background:new 0 0 1024 1024;" xml:space="preserve">
<style type="text/css">
	.st0{fill:#A6CE39;}
	.st1{fill:#FFFFFF;}
</style>
<g id="Min_Guides__x28_DO_NOT_REMOVE_x29_">
</g>
<g id="Max_Guides__x28_DO_NOT_REMOVE_x29_">
</g>
<g id="Icon">
	<circle id="Background" class="st0" cx="512" cy="512" r="512"/>
	<g>
		<path class="st1" d="M373.7,709.3h-50.4V358.5h50.4V517V709.3z"/>
		<path class="st1" d="M447.7,358.5h136.2c129.7,0,186.7,92.7,186.7,175.5c0,90.1-70.4,175.5-186,175.5H447.7
			C447.7,709.6,447.7,358.5,447.7,358.5z M498.1,664.1h80.2c114.3,0,140.5-86.8,140.5-130c0-70.4-44.9-130-143.1-130h-77.6
			L498.1,664.1L498.1,664.1z"/>
		<path class="st1" d="M381.6,285.5c0,18-14.7,33.1-33.1,33.1c-18.3,0-33.1-15.1-33.1-33.1c0-18.3,14.7-33.1,33.1-33.1
			C366.8,252.4,381.6,267.5,381.6,285.5z"/>
	</g>
</g>
</svg>
