<?xml version="1.0" encoding="utf-8"?>
<!-- Generator: Adobe Illustrator 21.0.0, SVG Export Plug-In . SVG Version: 6.00 Build 0)  -->
<svg version="1.1" xmlns="http://www.w3.org/2000/svg" xmlns:xlink="http://www.w3.org/1999/xlink" x="0px" y="0px"
	 viewBox="0 0 1024 1024" style="enable-background:new 0 0 1024 1024;" xml:space="preserve">
<style type="text/css">
	.st0{fill:#F56C2D;}
	.st1{fill:#FFFFFF;}
</style>
<g id="Guides">
</g>
<g id="Icon">
	<circle class="st0" cx="512" cy="512" r="512"/>
	<g>
		<title>Origin icon</title>
		<path class="st1" d="M524.5,322.3c25.4,1.5,50.2,8.2,72.9,19.6c22,11,41.6,26.1,57.7,44.7c16,18.5,28.2,39.5,36.6,63.2
			c8.3,23.7,11.7,48.6,9.9,74.7c-0.7,13.6-2.9,26.7-6.5,39.4c-3.6,12.5-8.4,24.7-14.4,36.3c-9.4,18.1-19.8,35.2-31.4,51.5
			c-11.5,16.2-24,31.3-37.6,45.2c-13.6,13.9-28,26.8-43.4,38.4c-15.3,11.6-31.4,22.1-48.1,31.6l-0.8,0.6c-0.7,0.4-1.5,0.6-2.3,0.5
			c-1.3-0.3-2.5-1-3.4-2.1c-0.9-1.1-1.3-2.4-1.3-3.7c0-0.6,0.1-1.3,0.3-1.8c0.2-0.5,0.4-0.9,0.8-1.3c5.9-8.4,10.8-17.2,14.6-26.3
			c3.9-9.3,6.5-18.9,7.9-29c0-0.7-0.3-1.4-0.8-1.8c-0.4-0.5-1.1-0.8-1.8-0.8c-5.6,0.7-11.3,1.1-17,1.3c-5.7,0.2-11.3-0.1-17-0.8
			c-25.4-1.5-50.2-8.2-72.9-19.6c-22-11-41.6-26.2-57.7-44.7c-16.1-18.6-28.5-40-36.6-63.2c-8.4-24-11.8-49.4-9.9-74.7
			c0.7-13.6,2.9-26.7,6.5-39.4c3.6-12.8,8.4-24.6,14.4-35.8c9.4-18.4,19.9-35.8,31.3-52c11.5-16.2,24-31.2,37.6-45.2
			c13.6-13.9,28-26.7,43.4-38.4c15.4-11.6,31.4-22.2,48.1-31.6l0.8-0.5c0.7-0.4,1.5-0.6,2.3-0.5c1.4,0.3,2.5,1.1,3.4,2.1
			c0.9,1.1,1.3,2.3,1.3,3.7c0,0.6-0.1,1.2-0.3,1.8c-0.1,0.5-0.4,0.9-0.8,1.3c-5.8,8.2-10.8,17.1-14.7,26.4c-3.9,9.2-6.4,18.9-7.8,29
			c0,0.7,0.3,1.3,0.8,1.8c0.5,0.5,1.2,0.8,1.8,0.8c5.6-0.7,11.2-1.1,17-1.3C513.3,321.4,519,321.7,524.5,322.3z M507.3,586.2
			c19.7,1.7,39.2-4.9,53.8-18.2c15.4-13.6,23.7-30.7,25.1-51.2c1.7-19.8-4.9-39.4-18.3-54.1c-12.8-15.1-31.4-24.1-51.2-24.8
			c-19.8-1.7-39.4,4.9-54.1,18.2c-15.1,12.8-24.2,31.4-24.8,51.2c-1.7,19.8,4.9,39.3,18,54.1C469.3,576.9,486.4,585.2,507.3,586.2z"
			/>
	</g>
</g>
</svg>
