<svg xmlns="http://www.w3.org/2000/svg" viewBox="0 0 1024 1024" style="enable-background:new 0 0 1024 1024" xml:space="preserve">
   <circle cx="512" cy="512" r="512" style="fill:#f56c2d"/>
   <path d="M524.5 322.3c25.4 1.5 50.2 8.2 72.9 19.6 22 11 41.6 26.1 57.7 44.7 16 18.5 28.2 39.5 36.6 63.2 8.3 23.7 11.7 48.6 9.9 74.7-.7 13.6-2.9 26.7-6.5 39.4-3.6 12.5-8.4 24.7-14.4 36.3-9.4 18.1-19.8 35.2-31.4 51.5-11.5 16.2-24 31.3-37.6 45.2-13.6 13.9-28 26.8-43.4 38.4-15.3 11.6-31.4 22.1-48.1 31.6l-.8.6c-.7.4-1.5.6-2.3.5-1.3-.3-2.5-1-3.4-2.1-.9-1.1-1.3-2.4-1.3-3.7 0-.6.1-1.3.3-1.8.2-.5.4-.9.8-1.3 5.9-8.4 10.8-17.2 14.6-26.3 3.9-9.3 6.5-18.9 7.9-29 0-.7-.3-1.4-.8-1.8-.4-.5-1.1-.8-1.8-.8-5.6.7-11.3 1.1-17 1.3-5.7.2-11.3-.1-17-.8-25.4-1.5-50.2-8.2-72.9-19.6-22-11-41.6-26.2-57.7-44.7-16.1-18.6-28.5-40-36.6-63.2-8.4-24-11.8-49.4-9.9-74.7.7-13.6 2.9-26.7 6.5-39.4 3.6-12.8 8.4-24.6 14.4-35.8 9.4-18.4 19.9-35.8 31.3-52 11.5-16.2 24-31.2 37.6-45.2 13.6-13.9 28-26.7 43.4-38.4 15.4-11.6 31.4-22.2 48.1-31.6l.8-.5c.7-.4 1.5-.6 2.3-.5 1.4.3 2.5 1.1 3.4 2.1.9 1.1 1.3 2.3 1.3 3.7 0 .6-.1 1.2-.3 1.8-.1.5-.4.9-.8 1.3-5.8 8.2-10.8 17.1-14.7 26.4-3.9 9.2-6.4 18.9-7.8 29 0 .7.3 1.3.8 1.8s1.2.8 1.8.8c5.6-.7 11.2-1.1 17-1.3 5.9-.3 11.6 0 17.1.6zm-17.2 263.9c19.7 1.7 39.2-4.9 53.8-18.2 15.4-13.6 23.7-30.7 25.1-51.2 1.7-19.8-4.9-39.4-18.3-54.1-12.8-15.1-31.4-24.1-51.2-24.8-19.8-1.7-39.4 4.9-54.1 18.2-15.1 12.8-24.2 31.4-24.8 51.2-1.7 19.8 4.9 39.3 18 54.1 13.5 15.5 30.6 23.8 51.5 24.8z" style="fill:#fff"/>
</svg>
