<?xml version="1.0" encoding="UTF-8" standalone="no"?>
<svg
   xmlns:dc="http://purl.org/dc/elements/1.1/"
   xmlns:cc="http://creativecommons.org/ns#"
   xmlns:rdf="http://www.w3.org/1999/02/22-rdf-syntax-ns#"
   xmlns:svg="http://www.w3.org/2000/svg"
   xmlns="http://www.w3.org/2000/svg"
   viewBox="0 0 1365.3333 1365.3333"
   height="1365.3333"
   width="1365.3333"
   xml:space="preserve"
   id="svg2"
   version="1.1"><metadata
     id="metadata8"><rdf:RDF><cc:Work
         rdf:about=""><dc:format>image/svg+xml</dc:format><dc:type
           rdf:resource="http://purl.org/dc/dcmitype/StillImage" /></cc:Work></rdf:RDF></metadata><defs
     id="defs6"><clipPath
       id="clipPath18"
       clipPathUnits="userSpaceOnUse"><path
         id="path16"
         d="M 0,1024 H 1024 V 0 H 0 Z" /></clipPath></defs><g
     transform="matrix(1.3333333,0,0,-1.3333333,0,1365.3333)"
     id="g10"><g
       id="g12"><g
         clip-path="url(#clipPath18)"
         id="g14"><g
           transform="translate(1024,512)"
           id="g20"><path
             id="path22"
             style="fill:#f25726;fill-opacity:1;fill-rule:nonzero;stroke:none"
             d="m 0,0 c 0,-282.77 -229.23,-512 -512,-512 -282.77,0 -512,229.23 -512,512 0,282.77 229.23,512 512,512 C -229.23,512 0,282.77 0,0" /></g><g
           transform="translate(507.3301,437.8242)"
           id="g24"><path
             id="path26"
             style="fill:#ffffff;fill-opacity:1;fill-rule:nonzero;stroke:none"
             d="m 0,0 c 19.67,-1.686 39.213,4.928 53.784,18.24 15.361,13.633 23.659,30.679 25.089,51.202 1.664,19.799 -4.95,39.384 -18.263,54.083 -12.821,15.105 -31.403,24.129 -51.202,24.79 -19.776,1.664 -39.361,-4.949 -54.06,-18.24 C -59.778,117.231 -68.803,98.649 -69.486,78.873 -71.15,59.117 -64.622,39.574 -51.437,24.79 -38.039,9.322 -20.886,1.002 0,0 m 17.217,263.841 c 25.366,-1.515 50.179,-8.193 72.899,-19.607 21.995,-10.965 41.602,-26.134 57.731,-44.673 16.021,-18.455 28.204,-39.533 36.588,-63.214 8.341,-23.66 11.691,-48.599 9.899,-74.712 -0.704,-13.57 -2.88,-26.711 -6.528,-39.426 -3.563,-12.545 -8.385,-24.727 -14.379,-36.333 -9.366,-18.112 -19.821,-35.244 -31.362,-51.458 -11.478,-16.192 -24.001,-31.255 -37.591,-45.186 -13.611,-13.931 -28.012,-26.753 -43.351,-38.444 -15.34,-11.606 -31.383,-22.145 -48.088,-31.554 l -0.789,-0.554 c -0.704,-0.384 -1.515,-0.555 -2.325,-0.492 -1.345,0.321 -2.518,1.025 -3.393,2.071 -0.874,1.066 -1.343,2.367 -1.322,3.69 0,0.618 0.085,1.259 0.256,1.814 0.17,0.49 0.448,0.938 0.789,1.322 5.91,8.385 10.795,17.195 14.636,26.349 3.861,9.258 6.464,18.88 7.85,28.993 0,0.682 -0.32,1.365 -0.81,1.813 -0.448,0.533 -1.131,0.811 -1.814,0.811 -5.632,-0.683 -11.264,-1.131 -16.961,-1.323 -5.674,-0.192 -11.349,0.064 -16.982,0.79 -25.366,1.514 -50.199,8.212 -72.92,19.584 -21.996,10.987 -41.581,26.156 -57.709,44.695 -16.086,18.561 -28.503,40.002 -36.588,63.214 -8.406,23.958 -11.777,49.367 -9.921,74.712 0.704,13.569 2.88,26.711 6.528,39.426 3.648,12.758 8.449,24.641 14.401,35.842 9.366,18.432 19.862,35.756 31.34,51.97 11.499,16.15 24.001,31.233 37.57,45.186 13.632,13.91 28.033,26.71 43.372,38.402 15.361,11.648 31.361,22.166 48.066,31.553 l 0.811,0.533 c 0.704,0.427 1.493,0.576 2.325,0.534 1.387,-0.341 2.539,-1.088 3.371,-2.091 0.918,-1.088 1.323,-2.262 1.323,-3.712 0.021,-0.576 -0.064,-1.216 -0.256,-1.792 -0.149,-0.491 -0.426,-0.918 -0.768,-1.302 -5.824,-8.234 -10.774,-17.088 -14.657,-26.39 -3.861,-9.238 -6.4,-18.881 -7.808,-28.972 0,-0.704 0.256,-1.344 0.768,-1.835 0.469,-0.512 1.152,-0.789 1.813,-0.789 5.59,0.704 11.244,1.131 16.961,1.301 5.803,0.192 11.435,-0.064 17.025,-0.746" /></g></g></g></g></svg>