<svg xmlns="http://www.w3.org/2000/svg" viewBox="0 0 1024 1024">
   <circle cx="512" cy="512" r="512" style="fill:#2d287f"/>
   <path d="M765.78 473.78c-13.51-102.85-88.08-186.42-186.09-213.23L512 328.23a179.26 179.26 0 0 1 175.43 142.54A255.61 255.61 0 0 0 512 571.44a255.68 255.68 0 0 0-175.44-100.67c16.93-81.38 89-142.54 175.44-142.54l-67.68-67.68c-98 26.81-172.57 110.38-186.11 213.23a255.36 255.36 0 0 0 1.79 78.38 179.32 179.32 0 0 1 211.2 100.67A177 177 0 0 1 481.63 684a179.72 179.72 0 0 1 1 77.69c-.14.59-.29 1.16-.43 1.73h59.57c-.11-.58-.29-1.15-.41-1.73a179.54 179.54 0 0 1 1-77.69 179.11 179.11 0 0 1 144.06-135.54 178.9 178.9 0 0 1 77.58 3.7 255.09 255.09 0 0 0 1.75-78.38Z" style="fill:#fff"/>
</svg>
