<?xml version="1.0" encoding="utf-8"?>
<!-- Generator: Adobe Illustrator 21.0.0, SVG Export Plug-In . SVG Version: 6.00 Build 0)  -->
<svg version="1.1" xmlns="http://www.w3.org/2000/svg" xmlns:xlink="http://www.w3.org/1999/xlink" x="0px" y="0px"
	 viewBox="0 0 1024 1024" style="enable-background:new 0 0 1024 1024;" xml:space="preserve">
<style type="text/css">
	.st0{fill:#68CEF5;}
	.st1{fill:#FFFFFF;}
</style>
<g id="Min_Guides__x28_DO_NOT_REMOVE_x29_">
</g>
<g id="Max_Guides__x28_DO_NOT_REMOVE_x29_">
</g>
<g id="Icon">
	<circle id="Background" class="st0" cx="512" cy="512" r="512"/>
	<path class="st1" d="M495.1,496.8c9.3,5.4,24.4,5.4,33.7,0l169.4-98.3c9.3-5.4,9.3-14.2,0-19.5l-169.4-97.8
		c-9.3-5.4-24.5-5.4-33.8,0l-169.4,97.8c-9.3,5.4-9.3,14.1,0,19.5L495.1,496.8z M504.7,538.7c0-10.7-7.6-23.9-16.9-29.3l-170-98.6
		c-9.3-5.4-16.9-1-16.9,9.7v196.8c0,10.7,7.6,23.9,16.9,29.2l169.9,98.1c9.3,5.4,16.9,1,16.9-9.7L504.7,538.7L504.7,538.7z
		 M536.2,509.4c-9.3,5.4-16.9,18.6-16.9,29.3v196.2c0,10.7,7.6,15.1,16.9,9.7l169.9-98.1c9.3-5.4,16.9-18.5,16.9-29.2V420.5
		c0-10.7-7.6-15.1-16.9-9.7L536.2,509.4z"/>
</g>
</svg>
