<svg xmlns="http://www.w3.org/2000/svg" viewBox="0 0 1024 1024">
   <circle cx="512" cy="512" r="512" style="fill:#e1743f"/>
   <path d="M537.89 767.47c-2.09-1.13-7-1.32-34.45-1.32h-26.88l-.36-1.88-2-9.19a76.2 76.2 0 0 1-1.49-7.55 5.66 5.66 0 0 0-.81-2.28l-1-2-11.75 1.75c-6.42 1-12.76 2.13-14.06 2.47-2.13.64-2.35.64-2.2.09.81-3 .94-4.29.6-5.67s-.36-1.54 5.08-13.76c5.89-13.27 5.67-12.67 5.06-13.53-.38-.53-.9-.43-6.55 1.49-3.39 1.07-6.27 2-6.42 1.92q4.22-7.9 8.83-15.62c9.62-16.49 12.07-20.82 12.07-21.4a70.44 70.44 0 0 0-5.78-6.49c-3.2-3.35-6.63-7-7.62-8.19a11.86 11.86 0 0 0-2.39-2.35c-1.07-.36-5.63-4.93-15.74-15.66q-5.47-5.91-11.2-11.56c-1.32-1.07-1.64-1.58-2.28-3.73a138.92 138.92 0 0 0-6.21-15.23l-2-4.29v-3.8c0-5.78-1.19-11.56-5.91-28.39l-1.15-4.07-1.86-.21c-4.12-.36-6-2.62-9.19-10.75q-2.24-5.14-4.93-10.07c-2.13-4.07-4.71-9.13-5.78-11.35l-1.88-3.85-1.71-.21a15.32 15.32 0 0 0-7.7 1.07c-2.56 1.07-7.36 1.34-13.18.79l-8.51-.81-4.25-.43-2.29-4.13c-3.43-6.06-3.43-6.08-5.08-6.91-1.92-1-3.43-1-12.2 0l-6.93.75-5.23-.75c-13.76-2-17-3.54-17-8a91.24 91.24 0 0 0-2.18-10.43c-2.77-11.26-4.65-24-4.16-28.42.73-6.27 5.82-21.25 13.57-39.89l3-7.27.49-11.67c3-69.85 3.8-80.21 6.06-84.29.75-1.32 10-9.19 13.74-11.78 7.15-4.78 32.06-17.07 59.78-29.42l8.19-3.65 4.16-.26 4.12-.21 11.14 7 11.11 7 9-4.27 14-6.57c5-2.3 5-2.35 7.83-5.4 3.93-4.29 10.5-12.07 12.63-15 2.52-3.43 8.43-8.28 17.41-14.34 3.14-2.09 3.95-2.47 12.14-5.63l5.01-1.87h10.45c9.62 0 10.71.06 14 .79 7.64 1.66 13.91 4.12 14.63 5.7.47 1.07 1.49 1.71 4 2.56 3 1 6.63 3.58 26.11 18.41 10.43 8 10.07 7.81 32.83 15.34l6.36 2.13 3.75 4.5c4.29 5.14 7.64 8.62 8.62 8.94 1.49.47 10.35-1.71 21.53-5.31 5.67-1.81 6.46-2 7.49-1.64a39.78 39.78 0 0 0 6.85.43c5.78.11 11 .73 23.83 2.92 3.26.58 6 1 6 1s5.21 8.94 11.46 19.9 13 22.36 15 25.43c3.56 5.31 3.71 5.63 4 8 .55 4.07 1.71 21.5 1.92 27.93l.49 19.11c.43 18 .77 22.19 1.92 24.62 2 4.25 5.89 15.94 12.2 36.67l2.56 8.55.17 19.84-3 15.53-3.37 17.34-.34 1.77-9.37 5.63-9.41 5.65-6.85-.34c-3.82-.21-7.15-.34-7.45-.34-.64 0-1.41 2.41-2.88 8.77-.85 3.75-.9 3.8-2 4l-14.1 2.28c-19.63 3.09-22.12 3.86-28.61 9-5.63 4.5-5.63 4.44-11.86 35.86q-1.73 9.18-3.95 18.26c-2.24 6.76-20.07 36.44-26.58 44.25l-3.52 4.25 1.37 4.86c.75 2.69 1.56 5.65 1.77 6.59.34 1.49 6.7 25.73 9 34.33l.81 3-4.29-1.79-7-2.9a11.6 11.6 0 0 0-2.77-1c-.06.09.7 3.2 1.71 7 1.71 6.14 4 16.28 3.78 16.49-.06 0-3.2-.17-7.06-.47q-4.06-.34-8.13-.43l-1.17.11-3.86 14.12c-2.13 7.74-3.93 14.17-4 14.23s-11.43-.43-21.44-1.07c-11.52-.75-14.93-.68-17.83.36-2.67 1-5.14 1.07-6.53.3zm41.75-7.47c0-.55.49-3.86 1.07-7.36s1.07-7.19 1.07-8.17a9 9 0 0 1 .85-3.73 9.84 9.84 0 0 0 .7-2s-7.85-.64-17.34-1.32c-13.59-1-18.35-1.43-22.46-2.2l-5.21-1-12.37 1.54c-8.83 1.07-12.54 1.66-12.95 2s-4.29.9-15.19 2c-8 .81-15.3 1.6-16.13 1.77l-1.54.28.09 1.77c.06 1.39.43 2.45 1.77 4.93a24.93 24.93 0 0 1 2.56 7.06 31.48 31.48 0 0 0 1 4c.06.06 20.76.3 46 .49 43.39.34 46 .38 46.74 1 1 .75 1.37.43 1.37-1.07zm-102-25.15c18.62-2.62 26.15-3.58 33.54-4.14 8.26-.6 19.14-1.86 26.86-3.05 1.22-.21 5.29-.43 9-.55l6.85-.21 8 2.07 8.11 2.13 14.55.85c8 .49 14.66.85 14.72.77q-.65-2.47-1.49-4.89c-.9-2.6-2.35-7.1-3.31-10l-1.64-5.21-4.93-1.54-4.9-1.53-3.31 1.45-3.33 1.39-37.89 1.22-37.85 1.24-2.52-1.28-2.52-1.22h-30.52L459.32 725c-3.16 7-5.78 12.84-5.89 13-.17.34-2.65.64 24.19-3.14zm130.71-22.1c0-.36-9.19-30.61-9.47-31.08-.15-.26-1.07.51-2.45 2l-2.24 2.45 3.29 12.12 3.26 12.12 3.61 1.28c3.86 1.37 4.07 1.43 4.07 1.07zm-144.82-15.17 4.07-7.58-1.22-1.77c-.68-1-1.34-1.71-1.45-1.56s-3 5.08-6.46 11-6.34 10.9-6.44 11 1.54-.55 3.65-1.6l3.75-1.92 4.1-7.59zm63.08-1.58c2.26-6.53 4.12-12 4.12-12.16a18.73 18.73 0 0 0-4.22-1.6q-2.17-.64-4.29-1.41a12.16 12.16 0 0 1 1.34-2.35l1.45-2.22 8.64-.43c15.06-.7 23.77-3.31 32.21-9.62 3.2-2.35 4.57-2.73 6.31-1.81 1.49.85 2.56 2.73 2.26 4.07-.21.9-.6 1.19-5.14 4.2-4.29 2.77-18.69 9.13-23.77 10.5-2.9.75-6.17 2.56-6.89 3.86s-3.39 19.63-2.82 20.2c.13.13 24.49-.85 28.37-1.19 2.35-.17 2.5-.21 3.43-1.43.51-.68 2.77-3.26 5.08-5.7s6.42-7.1 9.19-10.41 7-8.13 9.32-10.71c3.65-4 5.61-6.78 13.21-18.28 18.73-28.25 20-30.74 21.4-42 1-8 1.43-9.54 4.57-14.87s6.27-20.59 4.54-22c-1.54-1.28-3.26-.68-9.11 3.2-10.92 7.27-22.17 17.94-23.77 22.46-.73 2-4.76 8-6.08 8.92l-11.07 7.87c-12.42 8.83-11.09 7.45-18.11 18.75l-2.35 3.71-7 3.69-7 3.65-13.14.32c-26.24.6-27.48.47-41.45-4.42l-9.19-3.26-7.34-6.46c-4.07-3.58-11.31-10-16.09-14.34l-8.68-7.85-3-6.85Q446 597.89 441 585.52c-1.79-4.82-1.92-4.93-5.87-9.13-7.27-7.7-11.29-16.15-16.15-34.39-1-3.52-1.66-5.53-2.13-6s-.6-.47-.49-.26a3.31 3.31 0 0 1-.26 1.75c-3.35 9.41-4.46 16.38-5.31 33.26-.43 7.66-.43 7.49 2 21 4.8 26.15 6.31 32 8.73 33.39a49.21 49.21 0 0 1 6.21 6.1c7.27 8 9.56 10.35 12.89 13 6.08 4.93 15.68 15.15 19.22 20.5a41.83 41.83 0 0 0 2.88 3.78c3.2 3.48 9.86 12.8 19.18 26.86l6.7 10.13 2.77-.15c1.92-.13 7 .26 15.79 1.15 7.17.75 13.55 1.37 14.19 1.39h1.19l4.07-11.9zm-48.56 9.71a22.55 22.55 0 0 0-2.6-4.29c-1.6-2.28-3-4.16-3.2-4.07a78 78 0 0 0-3.86 8c-.21.66 7.27.94 9.66.38zm59-58.84c1-.7 2.71-1.17 8-2.24 6.63-1.28 8-1.77 13.4-4.5a6.72 6.72 0 0 0 2-2.35 15.64 15.64 0 0 1 2.35-2.94 2.67 2.67 0 0 0 1.17-2.09c0-1.66 4.84-5.87 23.27-20.18a19.41 19.41 0 0 0 5.23-5.72 37.42 37.42 0 0 1 5.61-6.59c1.81-1.71 6.21-6.06 9.79-9.62s8.34-8 10.6-9.86q2.67-2.05 5.14-4.35c.64-.68 3.35-2.26 7.15-4.18a48.39 48.39 0 0 0 6.42-3.58c.38-.64 1.92-1.28 10.84-4.63 19-7.06 31.55-10.5 38.19-10.5 1.71 0 2-1.11 1.43-4.67-1.45-8.43-6.31-11.78-17.24-11.78h-3.86l-1.34-1.43c-1.28-1.39-1.43-1.86-2.65-6.93-2.45-10.35-3.95-11.35-15.83-11-9.28.28-11.78 1.28-37.42 15.32-12.84 7.06-22.08 15-32.92 28.37a21 21 0 0 1-2.35 2.62c-6.63 0-6.46-10.07.36-20.25l2.26-3.35-1.79-.75c-5-2.28-11.35-2.62-15.79-.85-6.21 2.47-21.82 11.2-23.83 13.27s-4 2.26-4 .15c0-2.6 2.43-6.08 6.17-8.77.85-.68 2.35-1.88 3.26-2.71a34.75 34.75 0 0 1 9.28-5.57c3.14-1.28 3-1.11 1.92-3.2-3-5.44-11.2-11.65-19.52-14.7-1.07-.43-3.61-1.49-5.61-2.39-4.71-2.18-7.06-2.65-14.34-2.9-5.21-.21-6-.3-5.7-.7 1.58-1.92 6.63-2.84 16.85-3.07l8.19-.21 5.29 2.35c14.87 6.42 20.54 9.86 22.91 13.76 1.62 2.73 1.79 2.84 4.14 2.39 5.67-1.07 11.05.68 16.32 5.31 2.88 2.56 3.93 2.77 5.85 1.34a16.49 16.49 0 0 0 5.82-10.71c.75-5.78-1.28-24.23-3.26-29.55-1.49-4-1.22-4.18 1.86-1 3.65 3.8 3.65 3.8 7-2.35a39.42 39.42 0 0 1 2.94-4.71c6.21-7.83 6-22.34-.36-28.74-3.2-3.2-8.62-6.21-17.39-9.51-8.6-3.31-10-4.5-16.43-13.4-7.7-10.79-9.07-12.1-15.45-15.1-13.16-6.25-44.82-12-54.83-10-9.41 2.01-22.15 9.63-28.15 16.88-3.73 4.54-13.44 8-27.18 9.86-17.92 2.3-26.75 17.66-22.21 38.53.85 4.07.81 4 3.52.73 8.64-10.77 25.79-20.82 41.17-24.11 12.27-2.56 31.47-2.69 42.88-.21l2 .47h-3.07c-16 .21-40.62 5.48-58.07 12.46l-3.75 1.49-.34 1.86c-.32 1.77-.47 2-6 7.49-11.43 11.5-14.72 17-16.53 27.43-.85 5.1.77 12.57 3.2 14.46.58.47 1 1.07.9 1.28q-.37 2.39-.55 4.8c-1.62 18 6.89 39.81 20.48 52.33l3.07 2.84 2.3-1.92c6.76-5.53 18.33-13.1 18.94-12.42.92 1.07.73 1.92-.7 3.31-1.81 1.75-4.18 4.82-10.58 13.7l-5.53 7.7.15 2.22a25.67 25.67 0 0 0 3.14 9.62c.64 1 1.92 3.2 2.9 4.89a114.25 114.25 0 0 0 9 13.7 79.37 79.37 0 0 1 6.06 8.55c.6 1 1.07 1.37 1.49 1.28.85-.21 1.92.55 6 4.35s1.77 2.6 18 8.7c17.56 6.59 24.13 7.87 31.25 6.1 1.92-.47 2.07-.47 3.58.32 1.92 1 1.92 1 3.48 0v.11zm-135.41-81.45c.06-.06.43-2.2.79-4.8a55.29 55.29 0 0 1 1.71-7.83l4.12-13.74c3.78-12.84 3.39-11.73 3.8-11.09.53.9.32-.21-.34-1.58a37.85 37.85 0 0 1-1.41-3.65l-.73-2.3.73-12.54.73-12.57-1.17-8.47q-.54-4.35-1.37-8.66c-.68-.68-9.9 3.09-12.78 5.23-3.73 2.77-8.55 14.49-10.5 25.47-2.57 14.8-.22 35.11 4.78 40.87 1.49 1.71 4.82 8.06 7.62 14.51l.73 1.64 1.6-.21a7.34 7.34 0 0 0 1.66-.28zm315.2-27.95a32.31 32.31 0 0 0 5.25-4.18c.32-.79 4.54-23.45 6-32.15l.9-5.48-.9-9.54-.9-9.51-2.67-10.24c-2.65-10.13-2.73-10.33-5.63-16.11-4.61-9.19-4.14-5-8.09-71.64l-.75-12.33-1.13-1.17c-1.49-1.6-7.19-9.77-20.54-29.61q-5.54-8.53-11.65-16.66-8.72-1.78-17.51-3.11c-8.43-1.17-15.7-.53-22.51 2-2.73 1-3 1.07-4.29.64-2.94-1-6.25-.06-12.14 3.5l-3.09 1.86-3.54-4.74c-4.07-5.35-4.14-5.44-12.16-10.71-13.65-8.87-15.27-9.58-34.82-14.76-7.53-2-6.63-1.32-21.18-15.83l-11.41-11.35-12.48.17c-21.1.32-31.62 1.28-34.13 3-15.19 10.84-23.34 18.94-32.81 32.66l-2.2 3.2-8.23 3.93c-9 4.33-22.06 8.36-25.62 7.87-2-.26-9-3.84-14-7.27-9.34-6.21-15.77-7-23.21-2.65-6.06 3.48-10.3 5.74-27.43 14.4-18.37 9.32-20.59 10.58-26.58 15l-3.5 2.62-3.05 6.14c-6.63 13.35-6.51 12.84-6.85 30.19-.64 32.43-.75 42.84-.34 45.27a37.46 37.46 0 0 1 .34 10.77c-.6 3.65-8.26 29.59-12.48 42.18a90.49 90.49 0 0 0-3.39 15.7c-.21 1.49 0 3.73.77 8.34.55 3.5 1.49 9.62 2.07 13.65 1.41 9.9 2.56 12 7.64 13.65 4.46 1.49 6.59 1.34 15.62-1 16.92-4.33 17.34-4.2 24.19 8.06 1.66 2.92 2.39 3.93 3.05 4.12 2.24.64 15.47.21 18.47-.58l4.14-1.07 1.19-.32-.43-2a51.52 51.52 0 0 1-.49-13.31 128.68 128.68 0 0 1 3.26-19c.09-.36-.13-.09-.47.64l-.64 1.28-.75-3.35a40.17 40.17 0 0 0-6.21-14.34 136.45 136.45 0 0 1-9-18.56l-2-4.93.21-3.43c1.07-15.32 4.78-25.3 12.74-34 4.84-5.29 6.25-7.49 6.93-11.14.53-2.77 2.26-17.22 3.65-29.76l1.22-11.67 5.14-15.25c2.77-8.41 4.93-15.4 4.8-15.53q-7.24-3.74-14.78-6.85c-2.65-.75-8.79-.49-13.48.58-15 3.43-26.11 11.35-26.67 19.05-.15 1.71-7.72 17.64-8.43 17.66-.43 0-1.58-2.09-2-3.61s-.26-2.45 1.56-7.49c.68-1.88 2.07-6.55 3.09-10.39 2.56-9.45 3-10.18 8.64-12.78l10-4.71c14.4-6.93 35.35-12.33 40.51-10.45 3.05 1.07 7.66 4.82 11.78 9.51l2 2.22-1.92 5.25c-9.77 27-12.27 34.5-12.93 38.89-1.51 9.77-1.41 31.25.17 36.16 1.24 4 1.15 4.16-4.76 8-10.18 6.74-20.33 19.61-20.76 26.3-.28 4.5 1.92 13.53 4.71 18.94C371 468.72 382.46 486 382.82 486a7.73 7.73 0 0 0 1.18-2 40.71 40.71 0 0 1 15-16.49c6.74-4.35 6.76-4.35 7.27-6.68 3.43-15.47 9.07-24.41 18.77-29.55l4.2-2.24-2-.75c-3.09-1.13-5.78-3.05-9.13-6.57-14.87-15.64-20.61-33.41-14.68-45.38a34.45 34.45 0 0 0 1.54-3.93c5.23-16.11 19.86-24.83 39.3-23.49 19.11 1.34 27.61 6.31 34.52 20.05 6.63 13.31 6.27 25.41-1.17 37.35l-1.41 2.26 1.28-1.24c1.45-1.34 16.34-8 20.18-9 5.72-1.49 14.06-.64 40.41 4.12 10.65 1.92 12.46 2.67 17.56 7.27 1.07 1 1.92 1.62 1.92 1.37s-.21-2.22-.53-4.39c-1.77-13.16.73-29.89 5.74-38.1 6.06-9.94 29.33-18.84 42.11-16.09 6.42 1.39 16.41 7.57 21.78 13.55.68.77 1.28 1.19 1.28 1s-.43-6.93-.85-14.91q-.54-7.34-.64-14.7c.17-.13 3.07-1.79 6.53-3.71l6.25-3.43 1.11.85c.94.68 3.61 1.34 16.64 4.07l16.28 3.5c.58.13 1.81 1.92 4.61 6.55 2.07 3.5 5.78 9.56 8.28 13.48 9.07 14.51 10.71 18.26 8.77 20.07s-2.3 1.83-3.61-.15c-.64-1-4.29-6.7-8.09-12.69q-3.62-5.82-7.49-11.5c-.43-.43-21.29-7.38-31.72-10.6-5.1-1.56-10.5 24.55-9.26 44.78.43 6.81.43 6.85 6.21 12.16 3.61 3.33 18.3 24 21.18 29.8l1.43 2.9-.13 17.62-.11 17.6-2.24 3.78c-9.41 15.83-14.81 21.78-21 23.38-3.43.85-7.23 3.73-6.91 5.14.11.47.28 3.29.43 6.21.13 3.56.34 5.4.58 5.4s1.56-.21 3-.49c9.71-1.86 20.44-1.22 26.9 1.56 2.35 1 2.47 1.37 2.73 7.34.36 8 .9 8.68 7.53 9.75 7.42 1.17 10 2.43 14.83 7.34l2.72 2.83 19.71.09 5.23-3.58zM468.35 337.24q-8.7-5.6-17.77-10.54c-7.21-3.65-7.49-4.29-2.5-6.59 7.27-3.35 10.11-2.35 19.37 6.72 3.58 3.52 7.87 7.45 9.56 8.77 3.33 2.52 7 5.87 7 6.34s-2.45 3-3 3q-6.48-3.6-12.66-7.7zm85.06 4.05a11 11 0 0 1-5-4.07l-.9-1.49.64-1.45c.85-2 1.62-2.77 4.93-4.93 1.58-1.07 3.39-2.35 4-2.86 3.39-3 25.15-11.9 29-11.9 2.13 0 2.77.43 3.75 2.67a13.53 13.53 0 0 0 1.39 2.56c1.07 1.19-1.28 2.45-7.27 3.82-3.2.73-10.71 3.75-17.45 7l-5.5 2.67-3.16 4.29c-1.71 2.35-3.2 4.29-3.2 4.29l-1.22-.53zM601.4 525c2.5-2.2 13.06-7.13 19.16-8.92 2.22-.64 3.65-6.55 3.65-15.36v-5l-2-4.07c-2.07-4.29-4.33-8.06-4.71-7.91-.13 0-4.33 5.35-9.32 11.86l-9.11 11.78.21 5.31.21 9.47c0 4.8-.13 4.65 1.92 2.86zm35-38.38 7.34-2.82 2.39-3.61c8.34-12.63 10.92-19.22 11.29-29.42l.21-6.57-4.86-7.7c-8.23-12.95-13.57-21.72-15.4-25.32A7.59 7.59 0 0 0 636 409c-1.32-.85-5.23 2.56-9.77 8.55-3.2 4.29-4.82 5.42-14.38 10.2-12.62 6.25-18.68 7.25-27.55 4.55q-5.81-1.92-11.78-3.33c-.9 0 2.84 4.39 6.27 7.4 2.69 2.35 4.71 3.43 7.38 3.86 4.07.64 11.67 4.93 23.34 13.06 6.46 4.57 5.57 2.84 6.21 11.73l.58 7.49 1.71 1.66c2.13 2.09 4.57 5.35 8.13 10.88 1.49 2.39 2.77 4.37 2.82 4.37l7.42-2.86zM599.7 420c9.51-3.5 15-14.19 11.24-21.82-4.14-8.34-13.53-15-21.29-15-9.07 0-20.89 10.28-20.89 18.2a11.27 11.27 0 0 0 2.71-2.22c7-6.63 14.76-7.38 22.4-2.24 8.21 5.5 10 16.43 3.69 22.7-1.66 1.71-1.43 1.71 2.13.43zm-164.35-3.41a20.54 20.54 0 0 1-.55-8.45c3.09-16.6 23.25-21.44 32.21-7.77l1.37 2.13-.19-2.75c-1.47-20.71-23.34-26.33-36.82-9.45-7.59 9.54-6.38 24.11 2.24 27.18 2.2.77 2.28.73 1.71-.9zm189-11.24c5.57-9.37 4.82-22.46-1.88-32.64-9-13.7-23.13-17.94-38.53-11.56-11.93 4.93-16.55 11-17.6 23.06-.47 5.35-.26 6 1.24 3.75 5.08-7.55 13.74-11.67 23.34-11.14 15.19.81 26.45 11.5 29.55 28.07l.73 3.9.17.85.85-1.07a33.28 33.28 0 0 0 2.13-3.29zm-30.53 1.92a2.86 2.86 0 0 0 0-4.07 2.77 2.77 0 0 0-2-.85 2.74 2.74 0 0 0-2.07.85 2.79 2.79 0 0 0-.81 2 2.91 2.91 0 0 0 5 2.09v-.06zm-175.32-4.46c2.94-16.49 15.62-27.5 31.57-27.5 10.35 0 17.88 5.85 22.25 17.26 1.15 3 1.28 3.05 1.86.75 1.49-5.85-.21-18.09-3.48-24.51-5.55-11.05-22-16.62-37.35-12.61-8.85 2.26-19.2 13.65-21.27 23.4-2.13 10-.81 18.11 4.07 24.9 1.64 2.3 1.64 2.3 2.35-1.71zm41.13 0a2.77 2.77 0 0 0 .85-2 2.74 2.74 0 0 0-.85-2.07 2.62 2.62 0 0 0-2-.87 2.66 2.66 0 0 0-2 .85 2.69 2.69 0 0 0-.85 2.07 2.9 2.9 0 0 0 4.95 2z" style="fill:#fff"/>
</svg>
