<svg xmlns="http://www.w3.org/2000/svg" viewBox="0 0 1024 1024" style="enable-background:new 0 0 1024 1024" xml:space="preserve">
   <circle cx="512" cy="512" r="512" style="fill:#f50049"/>
   <path d="M677 709.2c0 2.6.8 22.5-19.5 32.3-4.7 2.2-9.3 3.1-13.7 3.2.9-3.8 1.4-7.8 1.4-12V469.5c.1-2.5.3-19.1-7-34.6-9.1-19.3-21.9-28.9-33.2-35.9-10.9-6.7-186.1-114.8-195.8-120.8-1.8-1.3-7.1-4.9-14.7-7.1 3-4.7 7.6-9.2 14.9-12.3 19.6-8.5 36.1 4.5 36.1 4.5s184.9 114.1 196.2 121.1c11.3 6.9 21.7 15.5 29.3 31.6 6.8 14.3 6 30.1 6 30.1v263.1zM475.6 445.4l-32.1-19.8v137.3l94.9 57.7v-37.2l-62.8-38.2v-99.8zM347 314.5c0-5 .7-23.8 20.3-32.3 19.6-8.5 36.1 4.5 36.1 4.5s184.9 114.1 196.2 121.1c11.3 6.9 21.7 15.5 29.3 31.6 6.8 14.3 6 30.1 6 30.1v263.2c0 2.6.8 22.5-19.5 32.3-20.4 9.8-40.6-6-40.6-6S381.5 639.7 367.3 631c-14.1-8.7-15.2-13.2-18-18.8-1.6-3.2-2.1-9.2-2.3-13.5V314.5zm86.3 254.1 115.1 70V478.4l-115.1-70.7v160.9z" style="fill:#fff"/>
</svg>
