<?xml version="1.0" encoding="utf-8"?>
<!-- Generator: Adobe Illustrator 21.0.0, SVG Export Plug-In . SVG Version: 6.00 Build 0)  -->
<svg version="1.1" xmlns="http://www.w3.org/2000/svg" xmlns:xlink="http://www.w3.org/1999/xlink" x="0px" y="0px"
	 viewBox="0 0 1024 1024" style="enable-background:new 0 0 1024 1024;" xml:space="preserve">
<style type="text/css">
	.st0{fill:#F50049;}
	.st1{fill:#FFFFFF;}
</style>
<g id="Min_Guides__x28_DO_NOT_REMOVE_x29_">
</g>
<g id="Max_Guides__x28_DO_NOT_REMOVE_x29_">
</g>
<g id="Icon">
	<circle id="Background" class="st0" cx="512" cy="512" r="512"/>
	<path class="st1" d="M677,709.2c0,2.6,0.8,22.5-19.5,32.3c-4.7,2.2-9.3,3.1-13.7,3.2c0.9-3.8,1.4-7.8,1.4-12l0-0.2v-263
		c0.1-2.5,0.3-19.1-7-34.6c-9.1-19.3-21.9-28.9-33.2-35.9c-10.9-6.7-186.1-114.8-195.8-120.8c-1.8-1.3-7.1-4.9-14.7-7.1
		c3-4.7,7.6-9.2,14.9-12.3c19.6-8.5,36.1,4.5,36.1,4.5s184.9,114.1,196.2,121.1c11.3,6.9,21.7,15.5,29.3,31.6
		c6.8,14.3,6,30.1,6,30.1V709.2z M475.6,445.4l-32.1-19.8v137.3l94.9,57.7v-37.2l-62.8-38.2V445.4z M347,314.5
		c0-5,0.7-23.8,20.3-32.3c19.6-8.5,36.1,4.5,36.1,4.5s184.9,114.1,196.2,121.1c11.3,6.9,21.7,15.5,29.3,31.6c6.8,14.3,6,30.1,6,30.1
		v263.2c0,2.6,0.8,22.5-19.5,32.3c-20.4,9.8-40.6-6-40.6-6S381.5,639.7,367.3,631c-14.1-8.7-15.2-13.2-18-18.8
		c-1.6-3.2-2.1-9.2-2.3-13.5V314.5z M433.3,568.6l115.1,70V478.4l-115.1-70.7V568.6z"/>
</g>
</svg>
