<?xml version="1.0" encoding="UTF-8" standalone="no"?>
<svg
   xmlns:dc="http://purl.org/dc/elements/1.1/"
   xmlns:cc="http://creativecommons.org/ns#"
   xmlns:rdf="http://www.w3.org/1999/02/22-rdf-syntax-ns#"
   xmlns:svg="http://www.w3.org/2000/svg"
   xmlns="http://www.w3.org/2000/svg"
   viewBox="0 0 1365.3333 1365.3333"
   height="1365.3333"
   width="1365.3333"
   xml:space="preserve"
   id="svg2"
   version="1.1"><metadata
     id="metadata8"><rdf:RDF><cc:Work
         rdf:about=""><dc:format>image/svg+xml</dc:format><dc:type
           rdf:resource="http://purl.org/dc/dcmitype/StillImage" /></cc:Work></rdf:RDF></metadata><defs
     id="defs6"><clipPath
       id="clipPath18"
       clipPathUnits="userSpaceOnUse"><path
         id="path16"
         d="M 0,1024 H 1024 V 0 H 0 Z" /></clipPath></defs><g
     transform="matrix(1.3333333,0,0,-1.3333333,0,1365.3333)"
     id="g10"><g
       id="g12"><g
         clip-path="url(#clipPath18)"
         id="g14"><g
           transform="translate(1024,512)"
           id="g20"><path
             id="path22"
             style="fill:#23437c;fill-opacity:1;fill-rule:nonzero;stroke:none"
             d="m 0,0 c 0,-282.77 -229.23,-512 -512,-512 -282.77,0 -512,229.23 -512,512 0,282.77 229.23,512 512,512 C -229.23,512 0,282.77 0,0" /></g><g
           transform="translate(505.1372,684.0317)"
           id="g24"><path
             id="path26"
             style="fill:#ffffff;fill-opacity:1;fill-rule:nonzero;stroke:none"
             d="M 0,0 H -21.632 C -35.84,0 -50.048,-11.285 -53.205,-25.13 l -19.84,-85.761 c -3.2,-13.823 5.76,-25.151 19.84,-25.151 h 16.341 c 35.499,0 63.361,7.317 83.2,21.781 19.819,14.635 29.76,35.285 29.76,62.122 0,17.707 -6.421,30.827 -19.2,39.254 -12.8,8.618 -32,12.906 -57.301,12.906 z m -158.848,-370.539 h -66.24 c -14.144,0 -23.125,11.286 -19.968,25.174 l 93.291,404.117 c 3.221,13.931 17.387,25.216 31.595,25.216 H 17.75 c 29.759,0 55.659,-2.091 77.824,-6.165 22.08,-4.032 40.96,-11.072 57.259,-21.12 15.701,-9.92 28.202,-22.87 36.202,-38.784 8.298,-15.958 12.459,-35.84 12.459,-59.67 0,-54.08 -22.422,-97.578 -67.499,-130.538 -44.8,-33.302 -107.862,-49.621 -188.501,-49.621 h -18.838 c -14.08,0 -28.33,-11.179 -31.531,-24.939 l -22.634,-97.899 c -3.179,-13.781 -17.429,-25.002 -31.68,-25.002 z m 57.11,-57.493 h -66.219 c -14.166,0 -23.168,11.285 -19.968,25.173 l 3.178,14.379 h 44.182 c 14.208,0 28.501,11.371 31.616,25.216 l 22.699,97.963 c 3.2,13.824 17.408,25.174 31.573,25.174 h 18.837 c 80.833,0 143.659,16.618 188.587,49.919 44.928,33.302 67.414,76.8 67.414,130.88 0,24 -4.161,43.84 -12.544,59.499 0,0.341 -0.342,0.661 -0.342,0.981 l 2.88,-1.6 c 16,-9.92 28.16,-22.698 36.502,-38.698 8.618,-16 12.757,-35.84 12.757,-59.542 0,-54.08 -22.379,-97.578 -67.499,-130.88 -44.8,-32.96 -107.84,-49.578 -188.459,-49.578 h -19.2 c -14.08,0 -28.458,-11.2 -31.658,-25.302 l -22.721,-98.24 c -3.178,-13.76 -17.279,-24.96 -31.359,-24.96 z" /></g></g></g></g></svg>