<?xml version="1.0" encoding="utf-8"?>
<!-- Generator: Adobe Illustrator 21.0.0, SVG Export Plug-In . SVG Version: 6.00 Build 0)  -->
<svg version="1.1" xmlns="http://www.w3.org/2000/svg" xmlns:xlink="http://www.w3.org/1999/xlink" x="0px" y="0px"
	 viewBox="0 0 1024 1024" style="enable-background:new 0 0 1024 1024;" xml:space="preserve">
<style type="text/css">
	.st0{fill:#27346A;}
	.st1{fill:#FFFFFF;}
</style>
<g id="Guides">
</g>
<g id="Icon">
	<circle class="st0" cx="512" cy="512" r="512"/>
	<path class="st1" d="M725.8,499.2C707.6,593.7,644.9,626,564.6,626H552c-9.9,0-18.3,6.8-19.8,16.7l-1,5.2l-15.7,99.2l-1.1,4.2
		c-1.5,9.4-9.9,16.7-19.8,16.7h-83c-7.3,0-13-6.3-12-13.6l2.4-15h28.2L457,568.3h42.8c115.6,0,188.4-56.2,210.9-162.5
		C729.6,428.7,733.4,460.7,725.8,499.2z M686.2,385.9c6.3-39.7,0-66.8-21.4-91.3c-24-27.1-66.8-38.6-121.6-38.6H384
		c-11,0-20.9,8.3-22.4,19.3L294.7,696c-1.6,8.3,5.2,15.7,13.6,15.7h98.1L430.9,555l-0.5,4.7c1.6-11,11-19.3,22.5-19.3h47
		c91.9,0,163.9-37.1,184.8-145.1C685.1,392.2,685.7,389.1,686.2,385.9"/>
</g>
</svg>
