<?xml version="1.0" encoding="utf-8"?>
<!-- Generator: Adobe Illustrator 21.0.0, SVG Export Plug-In . SVG Version: 6.00 Build 0)  -->
<svg version="1.1" xmlns="http://www.w3.org/2000/svg" xmlns:xlink="http://www.w3.org/1999/xlink" x="0px" y="0px"
	 viewBox="0 0 1024 1024" style="enable-background:new 0 0 1024 1024;" xml:space="preserve">
<style type="text/css">
	.st0{fill:#1EBCC5;}
	.st1{fill:#FFFFFF;}
</style>
<g id="Guides">
</g>
<g id="Icon">
	<circle class="st0" cx="512" cy="512" r="512"/>
	<g>
		<path class="st1" d="M533.8,454.2h-0.2h-41.2h-0.2v33.1h0.2h41.2h0.2c9.1,0,16.6-7.4,16.6-16.6
			C550.3,461.6,542.9,454.2,533.8,454.2z"/>
		<path class="st1" d="M510.5,356.4c-72.9,0-132,59.1-132,132c0,72.9,59.1,132,132,132c72.9,0,132-59.1,132-132
			C642.5,415.5,583.4,356.4,510.5,356.4z M533.6,526.8L533.6,526.8l-41.2,0.1v24.6c0,11.7-9.5,21.3-21.3,21.3
			c-11.7,0-21.3-9.5-21.3-21.3V436c0-11.8,9.5-21.3,21.3-21.3h62.5c31,0,56.1,25.1,56.1,56C589.7,501.7,564.6,526.8,533.6,526.8z"/>
		<path class="st1" d="M769.9,509.8c-8.5,17.1-23,30.6-40.8,37.9c25.4-13.1,42.7-39.5,42.7-70c0-43.6-35.3-78.4-78.8-78.4
			c-3.3,0-6.4,0.2-9.6,0.6c10.9,23.8,16.9,49.8,16.9,77.8c0,1.8-0.1,3.6-0.2,5.4C697,381.8,614.1,300.7,512,300.7
			c-101.7,0-184.5,80.7-188.1,181.5c0-1.5-0.2-3-0.2-4.5c0-27.9,6.2-54.2,17.1-78c-68.7,8.6-121.9,67.1-121.9,138.2
			c0,77,62.4,139.4,139.4,139.4h354.5v-0.2c51.1-1,92.2-42.7,92.2-94C805.1,553.5,791.3,527,769.9,509.8z M510.6,640.2
			c-83.7,0-151.5-67.9-151.5-151.5s67.8-151.5,151.5-151.5S662.1,405,662.1,488.7S594.3,640.2,510.6,640.2z"/>
	</g>
</g>
</svg>
