<?xml version="1.0" encoding="utf-8"?>
<!-- Generator: Adobe Illustrator 21.0.0, SVG Export Plug-In . SVG Version: 6.00 Build 0)  -->
<svg version="1.1" xmlns="http://www.w3.org/2000/svg" xmlns:xlink="http://www.w3.org/1999/xlink" x="0px" y="0px"
	 viewBox="0 0 1024 1024" style="enable-background:new 0 0 1024 1024;" xml:space="preserve">
<style type="text/css">
	.st0{fill:#1EBCC5;}
	.st1{fill:#FFFFFF;}
</style>
<g id="Guides">
</g>
<g id="Icon">
	<circle class="st0" cx="512" cy="512" r="512"/>
	<g>
		<path class="st1" d="M532.3,456.6h-0.2h-38.4h-0.2v30.9h0.2h38.4h0.2c8.5,0,15.4-6.9,15.4-15.4
			C547.7,463.5,540.8,456.6,532.3,456.6z"/>
		<path class="st1" d="M510.6,365.5c-67.9,0-122.9,55.1-122.9,122.9c0,67.9,55,122.9,122.9,122.9c67.9,0,122.9-55,122.9-122.9
			C633.6,420.6,578.5,365.5,510.6,365.5z M532.1,524.2L532.1,524.2l-38.4,0.1v22.9c0,10.9-8.9,19.8-19.8,19.8
			c-10.9,0-19.8-8.9-19.8-19.8V439.6c0-11,8.9-19.8,19.8-19.8h58.2c28.8,0,52.2,23.4,52.2,52.2C584.4,500.8,561,524.2,532.1,524.2z"
			/>
		<path class="st1" d="M752.2,508.4c-7.9,16-21.5,28.5-38,35.3c23.6-12.2,39.8-36.8,39.8-65.2c0-40.6-32.8-73-73.4-73
			c-3.1,0-6,0.2-9,0.6c10.2,22.2,15.8,46.4,15.8,72.4c0,1.7-0.1,3.3-0.1,5c-2.9-94.3-80.2-169.8-175.2-169.8
			c-94.7,0-171.9,75.1-175.2,169.1c0-1.4-0.2-2.8-0.2-4.2c0-26,5.8-50.5,15.9-72.7c-64,8-113.6,62.5-113.6,128.7
			c0,71.7,58.1,129.9,129.9,129.9h330.3v-0.1c47.6-1,85.9-39.8,85.9-87.6C785,549,772.2,524.4,752.2,508.4z M510.7,629.8
			c-78,0-141.2-63.2-141.2-141.2s63.2-141.2,141.2-141.2s141.2,63.2,141.2,141.2S588.6,629.8,510.7,629.8z"/>
	</g>
</g>
</svg>
