<svg xmlns="http://www.w3.org/2000/svg" viewBox="0 0 1024 1024">
   <style>
      .st1{fill:#fff}
   </style>
   <g id="Icon">
      <circle cx="512" cy="512" r="512" style="fill:#1ebcc5"/>
      <path class="st1" d="M533.8 454.2h-41.6v33.1h41.6c9.1 0 16.6-7.4 16.6-16.6-.1-9.1-7.5-16.5-16.6-16.5z"/>
      <path class="st1" d="M510.5 356.4c-72.9 0-132 59.1-132 132s59.1 132 132 132 132-59.1 132-132-59.1-132-132-132zm23.1 170.4-41.2.1v24.6c0 11.7-9.5 21.3-21.3 21.3-11.7 0-21.3-9.5-21.3-21.3V436c0-11.8 9.5-21.3 21.3-21.3h62.5c31 0 56.1 25.1 56.1 56 0 31-25.1 56.1-56.1 56.1z"/>
      <path class="st1" d="M769.9 509.8c-8.5 17.1-23 30.6-40.8 37.9 25.4-13.1 42.7-39.5 42.7-70 0-43.6-35.3-78.4-78.8-78.4-3.3 0-6.4.2-9.6.6 10.9 23.8 16.9 49.8 16.9 77.8 0 1.8-.1 3.6-.2 5.4-3.1-101.3-86-182.4-188.1-182.4-101.7 0-184.5 80.7-188.1 181.5 0-1.5-.2-3-.2-4.5 0-27.9 6.2-54.2 17.1-78-68.7 8.6-121.9 67.1-121.9 138.2 0 77 62.4 139.4 139.4 139.4h354.5v-.2c51.1-1 92.2-42.7 92.2-94 .1-29.6-13.7-56.1-35.1-73.3zM510.6 640.2c-83.7 0-151.5-67.9-151.5-151.5s67.8-151.5 151.5-151.5S662.1 405 662.1 488.7s-67.8 151.5-151.5 151.5z"/>
   </g>
</svg>
