<svg xmlns="http://www.w3.org/2000/svg" viewBox="0 0 1024 1024">
   <circle cx="512" cy="512" r="512" style="fill:#00e6a5"/>
   <path d="M520.46 247.54q7.46 0 14.81.41v123.31a141.11 141.11 0 0 0-16.93-1 139.64 139.64 0 0 0-139.61 137.32V735.3A264.27 264.27 0 0 1 256 512c0-146.06 118.4-264.46 264.46-264.46Zm-2.12 169.26a93.74 93.74 0 0 1 15.28 1.2l1.65.29v93.12a139 139 0 0 0 26.73 80.7 93.1 93.1 0 1 1-43.69-175.31ZM425.25 614a139.67 139.67 0 0 0 171.37 11.57 139.69 139.69 0 0 0 165.94-6.95c-41 93-134 157.88-242.11 157.88a263.85 263.85 0 0 1-95.21-17.65Zm249.66-197.21a93.09 93.09 0 1 1-43.69 175.31 139.68 139.68 0 0 0 0-164.44 92.68 92.68 0 0 1 43.69-10.87Zm-78.28 42.69a93.16 93.16 0 0 1 0 100.8 93.17 93.17 0 0 1-.77-99.58Zm-14.81-204.79a265 265 0 0 1 177.73 144.12 139.7 139.7 0 0 0-162.92-4.57 139.6 139.6 0 0 0-12.9-7.77l-1.91-1Z" style="fill:#fff"/>
</svg>
