<svg xmlns="http://www.w3.org/2000/svg" viewBox="0 0 1024 1024">
   <circle cx="512" cy="512" r="512" style="fill:#4a5f88"/>
   <path d="m604.55 519.5-.12-16s26.78-24.43 26-26.16l-11.72-24.68c-.74-1.73-36.4-.62-36.4-.62l-11.6-11.48s.25-35.17-1.48-35.91l-24.8-11.35c-1.73-.74-25.54 25.92-25.54 25.92l-16.17-.25s-25.3-26.41-27-25.67L451 403.5c-1.73.62.25 35.66.25 35.66l-11.2 11.24s-36-1.11-36.65.49l-10 24.43c-.74 1.73 25.92 25.92 25.92 25.92l.12 15.92s-26.78 24.43-26 26.16L405.13 568c.74 1.73 36.4.62 36.4.62l11.6 11.48s-.25 39.24 1.48 39.86l24.8 10.24c1.73.74 25.54-29 25.54-29l16.17.25s25.3 29.37 26.9 28.75l24.68-9.26c1.73-.74-.25-39.61-.25-39.61l11.25-11.23s36 1.11 36.65-.62l10-24.43c.86-1.36-25.79-25.54-25.79-25.54Zm-55.41-10.74c.86 21.1-15.8 39-37.14 40s-39.61-15.43-40.48-36.53a38.56 38.56 0 0 1 37.14-39.86c21.34-.99 39.62 15.42 40.48 36.4ZM797.44 462 677.73 342.3l-.12.12c-92.68-90.46-241.13-89.84-332.95 2-62.81 62.94-34.31 34.43-118.1 117.6a70.83 70.83 0 0 0 0 100c86.26 85.64 57.26 56.77 120.2 119.7l.12-.12c92.68 90.46 241.13 90 332.95-2 62.94-62.81 34.43-34.43 117.6-117.6a70.83 70.83 0 0 0 .01-100ZM379.22 645a187.84 187.84 0 0 1 0-265.94c73.43-73.55 192.51-73.43 266.06 0s73.55 192.51 0 266.06-192.51 73.31-266.06-.12Z" style="fill:#fff"/>
</svg>
