<?xml version="1.0" encoding="utf-8"?>
<!-- Generator: Adobe Illustrator 21.0.0, SVG Export Plug-In . SVG Version: 6.00 Build 0)  -->
<svg version="1.1" xmlns="http://www.w3.org/2000/svg" xmlns:xlink="http://www.w3.org/1999/xlink" x="0px" y="0px"
	 viewBox="0 0 1024 1024" style="enable-background:new 0 0 1024 1024;" xml:space="preserve">
<style type="text/css">
	.st0{fill:#4A5F88;}
	.st1{fill:#FFFFFF;}
</style>
<g id="Guides">
</g>
<g id="Icon">
	<circle class="st0" cx="512" cy="512" r="512"/>
	<g>
		<path class="st1" d="M604.6,519.5l-0.1-16c0,0,26.8-24.4,26-26.2l-11.7-24.7c-0.7-1.7-36.4-0.6-36.4-0.6l-11.6-11.5
			c0,0,0.2-35.2-1.5-35.9l-24.8-11.4c-1.7-0.7-25.5,25.9-25.5,25.9l-16.2-0.2c0,0-25.3-26.4-27-25.7L451,403.5
			c-1.7,0.6,0.2,35.7,0.2,35.7l-11.2,11.2c0,0-36-1.1-36.7,0.5l-10,24.4c-0.7,1.7,25.9,25.9,25.9,25.9l0.1,15.9
			c0,0-26.8,24.4-26,26.2l11.7,24.7c0.7,1.7,36.4,0.6,36.4,0.6l11.6,11.5c0,0-0.2,39.2,1.5,39.9l24.8,10.2c1.7,0.7,25.5-29,25.5-29
			l16.2,0.2c0,0,25.3,29.4,26.9,28.8l24.7-9.3c1.7-0.7-0.2-39.6-0.2-39.6l11.2-11.2c0,0,36,1.1,36.7-0.6l10-24.4
			C631.2,543.7,604.6,519.5,604.6,519.5L604.6,519.5z M549.1,508.8c0.9,21.1-15.8,39-37.1,40c-21.3,1-39.6-15.4-40.5-36.5
			c-0.9-21.1,15.8-39,37.1-39.9C530,471.4,548.3,487.8,549.1,508.8z M797.4,462L677.7,342.3l-0.1,0.1c-92.7-90.5-241.1-89.8-332.9,2
			c-62.8,62.9-34.3,34.4-118.1,117.6c-27.5,27.5-27.5,72.4,0,100c86.3,85.6,57.3,56.8,120.2,119.7l0.1-0.1
			c92.7,90.5,241.1,90,332.9-2c62.9-62.8,34.4-34.4,117.6-117.6C825,534.4,825,489.5,797.4,462z M379.2,645
			c-73.5-73.4-73.5-192.5,0-265.9c73.4-73.5,192.5-73.4,266.1,0c73.4,73.4,73.5,192.5,0,266.1C571.7,718.6,452.8,718.4,379.2,645z"
			/>
	</g>
</g>
</svg>
