<svg xmlns="http://www.w3.org/2000/svg" viewBox="0 0 1024 1024" style="enable-background:new 0 0 1024 1024" xml:space="preserve">
   <circle cx="512" cy="512" r="512" style="fill:#4a5f88"/>
   <path d="m604.6 519.5-.1-16s26.8-24.4 26-26.2l-11.7-24.7c-.7-1.7-36.4-.6-36.4-.6l-11.6-11.5s.2-35.2-1.5-35.9l-24.8-11.4c-1.7-.7-25.5 25.9-25.5 25.9l-16.2-.2s-25.3-26.4-27-25.7L451 403.5c-1.7.6.2 35.7.2 35.7L440 450.4s-36-1.1-36.7.5l-10 24.4c-.7 1.7 25.9 25.9 25.9 25.9l.1 15.9s-26.8 24.4-26 26.2L405 568c.7 1.7 36.4.6 36.4.6l11.6 11.5s-.2 39.2 1.5 39.9l24.8 10.2c1.7.7 25.5-29 25.5-29l16.2.2s25.3 29.4 26.9 28.8l24.7-9.3c1.7-.7-.2-39.6-.2-39.6l11.2-11.2s36 1.1 36.7-.6l10-24.4c.9-1.4-25.7-25.6-25.7-25.6zm-55.5-10.7c.9 21.1-15.8 39-37.1 40s-39.6-15.4-40.5-36.5c-.9-21.1 15.8-39 37.1-39.9 21.4-1 39.7 15.4 40.5 36.4zM797.4 462 677.7 342.3l-.1.1c-92.7-90.5-241.1-89.8-332.9 2-62.8 62.9-34.3 34.4-118.1 117.6-27.5 27.5-27.5 72.4 0 100 86.3 85.6 57.3 56.8 120.2 119.7l.1-.1c92.7 90.5 241.1 90 332.9-2 62.9-62.8 34.4-34.4 117.6-117.6 27.6-27.6 27.6-72.5 0-100zM379.2 645c-73.5-73.4-73.5-192.5 0-265.9 73.4-73.5 192.5-73.4 266.1 0 73.4 73.4 73.5 192.5 0 266.1-73.6 73.4-192.5 73.2-266.1-.2z" style="fill:#fff"/>
</svg>
