<svg xmlns="http://www.w3.org/2000/svg" viewBox="0 0 1024 1024">
   <circle cx="512" cy="512" r="512" style="fill:#0065d3"/>
   <path d="M233.17 546.38h-15.28v22.92h-30.56V454.7c7.4.18 33.66 0 45.83 0 35.84 0 53.48 15 53.48 45.84.01 28.07-20.98 45.84-53.47 45.84Zm-7.63-68.75c-1.8 0-5.61-.12-7.65 0v45.83h7.65c18.15 0 30.56-8.66 30.56-22.92-.01-13.81-13.37-22.92-30.56-22.92Zm145.13 91.67v-45.84h-38.2v45.84h-30.56V454.7h30.56v45.84h38.2V454.7h30.56v114.6Zm61.11 0V454.7h30.56v114.6Zm122.23 0h-61.1V454.7h30.56v91.68h38.19Zm22.91 0V454.7h30.56v114.6Zm106.95-22.93H668.6v22.93H638V454.7c7.4.18 33.67 0 45.83 0 35.84 0 53.47 15 53.47 45.84.05 28.07-20.93 45.84-53.42 45.84Zm-7.64-68.75c-1.79 0-5.61-.12-7.64 0v45.83h7.64c18.15 0 30.56-8.66 30.56-22.92 0-13.8-13.34-22.91-30.55-22.91Zm105.47 7.46c0 17.48 55 10.59 55 47.39 0 27.61-23.9 36.81-53 36.81-11.46 0-25.8-1.83-36.32-5.52l-3.83-25.31c10.52 5.06 28.2 8.75 39.66 8.75 12.91 0 18.17-3.7 18.17-10.6 0-17.94-54.48-10.13-54.48-48.77 0-22.43 19.13-33.13 47.31-33.13a141.57 141.57 0 0 1 32 3.22l2.79 23.94c-8.14-3.22-20.08-5.51-31.07-5.51-9.99 0-16.22 2.75-16.22 8.73Z" style="fill:#fff"/>
</svg>
