<?xml version="1.0" encoding="utf-8"?>
<!-- Generator: Adobe Illustrator 21.0.0, SVG Export Plug-In . SVG Version: 6.00 Build 0)  -->
<svg version="1.1" xmlns="http://www.w3.org/2000/svg" xmlns:xlink="http://www.w3.org/1999/xlink" x="0px" y="0px"
	 viewBox="0 0 1024 1024" style="enable-background:new 0 0 1024 1024;" xml:space="preserve">
<style type="text/css">
	.st0{fill:#0065D3;}
	.st1{fill:#FFFFFF;}
</style>
<g id="Min_Guides__x28_DO_NOT_REMOVE_x29_">
</g>
<g id="Max_Guides__x28_DO_NOT_REMOVE_x29_">
</g>
<g id="Icon">
	<circle id="Background" class="st0" cx="512" cy="512" r="512"/>
	<path id="Philips_wordmark" class="st1" d="M233.2,546.4h-15.3v22.9h-30.6V454.7c7.4,0.2,33.7,0,45.8,0c35.8,0,53.5,15,53.5,45.8
		C286.6,528.6,265.7,546.4,233.2,546.4z M225.5,477.6c-1.8,0-5.6-0.1-7.6,0v45.8h7.6c18.2,0,30.6-8.7,30.6-22.9
		C256.1,486.7,242.7,477.6,225.5,477.6z M370.7,569.3v-45.8h-38.2v45.8h-30.6V454.7h30.6v45.8h38.2v-45.8h30.6v114.6H370.7z
		 M431.8,569.3V454.7h30.6v114.6H431.8z M554,569.3h-61.1V454.7h30.6v91.7h38.2L554,569.3z M576.9,569.3V454.7h30.6v114.6H576.9z
		 M683.9,546.4h-15.3v22.9H638V454.7c7.4,0.2,33.7,0,45.8,0c35.8,0,53.5,15,53.5,45.8C737.4,528.6,716.4,546.4,683.9,546.4z
		 M676.2,477.6c-1.8,0-5.6-0.1-7.6,0v45.8h7.6c18.2,0,30.6-8.7,30.6-22.9C706.8,486.7,693.4,477.6,676.2,477.6z M781.7,485.1
		c0,17.5,55,10.6,55,47.4c0,27.6-23.9,36.8-53,36.8c-11.5,0-25.8-1.8-36.3-5.5l-3.8-25.3c10.5,5.1,28.2,8.8,39.7,8.8
		c12.9,0,18.2-3.7,18.2-10.6c0-17.9-54.5-10.1-54.5-48.8c0-22.4,19.1-33.1,47.3-33.1c14.8,0,22.9,1.4,32,3.2l2.9,23.9
		c-8.1-3.2-20.1-5.5-31.1-5.5C787.9,476.3,781.7,479.1,781.7,485.1z"/>
</g>
</svg>
