<svg xmlns="http://www.w3.org/2000/svg" viewBox="0 0 1024 1024">
   <circle cx="512" cy="512" r="512" style="fill:#0065d3"/>
   <path d="M233.2 546.4h-15.3v22.9h-30.6V454.7c7.4.2 33.7 0 45.8 0 35.8 0 53.5 15 53.5 45.8 0 28.1-20.9 45.9-53.4 45.9zm-7.7-68.8c-1.8 0-5.6-.1-7.6 0v45.8h7.6c18.2 0 30.6-8.7 30.6-22.9 0-13.8-13.4-22.9-30.6-22.9zm145.2 91.7v-45.8h-38.2v45.8h-30.6V454.7h30.6v45.8h38.2v-45.8h30.6v114.6h-30.6zm61.1 0V454.7h30.6v114.6h-30.6zm122.2 0h-61.1V454.7h30.6v91.7h38.2l-7.7 22.9zm22.9 0V454.7h30.6v114.6h-30.6zm107-22.9h-15.3v22.9H638V454.7c7.4.2 33.7 0 45.8 0 35.8 0 53.5 15 53.5 45.8.1 28.1-20.9 45.9-53.4 45.9zm-7.7-68.8c-1.8 0-5.6-.1-7.6 0v45.8h7.6c18.2 0 30.6-8.7 30.6-22.9 0-13.8-13.4-22.9-30.6-22.9zm105.5 7.5c0 17.5 55 10.6 55 47.4 0 27.6-23.9 36.8-53 36.8-11.5 0-25.8-1.8-36.3-5.5l-3.8-25.3c10.5 5.1 28.2 8.8 39.7 8.8 12.9 0 18.2-3.7 18.2-10.6 0-17.9-54.5-10.1-54.5-48.8 0-22.4 19.1-33.1 47.3-33.1 14.8 0 22.9 1.4 32 3.2l2.9 23.9c-8.1-3.2-20.1-5.5-31.1-5.5-10.2-.1-16.4 2.7-16.4 8.7z" style="fill:#fff"/>
</svg>
