<?xml version="1.0" encoding="utf-8"?>
<!-- Generator: Adobe Illustrator 21.0.0, SVG Export Plug-In . SVG Version: 6.00 Build 0)  -->
<svg version="1.1" xmlns="http://www.w3.org/2000/svg" xmlns:xlink="http://www.w3.org/1999/xlink" x="0px" y="0px"
	 viewBox="0 0 1024 1024" style="enable-background:new 0 0 1024 1024;" xml:space="preserve">
<style type="text/css">
	.st0{fill:#0D76BA;}
	.st1{fill:#FFFFFF;}
</style>
<g id="Min_Guides__x28_DO_NOT_REMOVE_x29_">
</g>
<g id="Max_Guides__x28_DO_NOT_REMOVE_x29_">
</g>
<g id="Icon">
	<circle id="Background" class="st0" cx="512" cy="512" r="512"/>
	<path class="st1" d="M256.2,420.8c22.9,0,45.7,0,68.6,0c12.2,0.2,24.6,0.2,36.2,4.3c8.9,3,17.3,8.7,21.9,17
		c5.2,9.1,5.7,20,4.4,30.2c-2,17.6-12.6,34-27.8,43.1c-6.8,4.1-14.3,6.8-22,8.7c-9.2,2.2-18.6,3.2-28.1,3.5
		c-7.1,0-14.2,0.2-21.2-0.6c-2.4,10.9-4.8,21.7-7.2,32.6c-1.5,6.9-3.5,13.9-3.4,21c-0.2,3.6-0.1,7.7,2.5,10.5
		c2.8,2.6,6.8,3.1,10.4,3.5c-0.6,2.9-1.2,5.9-1.9,8.8c-23.1,0-46.1,0-69.2,0c0.6-3,1.2-5.9,1.9-8.9c3.3-1,6.6-2.4,9.1-4.9
		c2.4-2.5,4-5.6,5.2-8.8c2.3-6.2,3.5-12.7,5-19.1c7.7-34.9,15.4-69.8,23.1-104.7c1.1-5.1,1.7-10.3,1.7-15.5c-0.1-2.9-0.5-6-2.6-8.1
		c-2.3-2.2-5.5-3-8.5-3.4C255,426.7,255.6,423.8,256.2,420.8z M308.1,436.8c-5.5,25.1-11,50.1-16.4,75.2c9.8,0,19.9,0.1,29.3-3.2
		c6.9-2.4,13-7.1,17.1-13.2c6.7-9.7,9.1-21.7,8.9-33.3c-0.1-5.5-1-11.2-4-15.9c-2.7-4.5-7.4-7.5-12.5-8.7
		C323.2,435.8,315.6,436.7,308.1,436.8z M420.3,429.7c2.8,0.4,5.8,1.1,8.1,3c2.3,2,2.9,5.2,3,8.1c0,5.6-0.6,11.2-1.9,16.6
		c-8.3,37.5-16.5,75-24.8,112.5c-1.7,6.6-3.2,13.7-7.8,19.1c-2.5,2.9-6.1,4.3-9.6,5.4c-0.6,2.9-1.3,5.9-1.9,8.9
		c22.4,0,44.9,0,67.3,0c0.6-2.9,1.3-5.9,1.9-8.8c-2.8-0.5-5.8-1.1-8-3c-2.2-1.8-2.9-4.7-3-7.4c-0.2-5.6,0.4-11.3,1.7-16.7
		c8.3-37.5,16.5-75,24.8-112.5c1.7-6.8,3.2-14,7.8-19.5c2.5-2.9,6.1-4.5,9.7-5.6c0.6-3,1.3-6,1.9-9c-22.4,0-44.9,0-67.3,0
		C421.5,423.8,420.8,426.7,420.3,429.7z M516.4,429.7c2.9,0.5,5.9,1.2,8.2,3.1c1.9,1.7,2.7,4.3,2.8,6.7c0.3,6.1-0.5,12.2-1.8,18.1
		c-8.3,37.5-16.5,75.1-24.9,112.6c-1.7,6.4-3.2,13.3-7.6,18.5c-2.5,2.9-6,4.5-9.6,5.5c-0.7,2.9-1.3,5.9-1.9,8.9
		c42.4,0,84.8,0.1,127.2,0c4-16.1,8.2-32.1,12.2-48.1c-6.1,0-12.2,0-18.3,0c-4.9,10.3-10.2,21-19.4,28.2c-2.9,2.3-6.6,3.6-10.2,4
		c-4.6,0.5-9.3,0.3-14,0.3c-7.4,0-14.9,0-22.3,0c5.3-23.7,10.5-47.5,15.8-71.3c6.7,0,13.4,0,20.1,0c2.3,0.1,4.6,0.3,6.7,1.4
		c2,1.1,3.2,3.1,3.9,5.3c1.2,4.2,1.1,8.7,1.3,13c4.6,0,9.2,0,13.8,0c4.3-18.1,8.6-36.2,12.8-54.3c-4.9,0-9.9,0-14.8,0
		c-2.4,5.4-5,10.9-9.5,14.8c-3.3,2.9-7.8,4-12.1,4c-6.3,0-12.6,0-18.9,0c4.7-21.3,9.4-42.7,14.2-64c11.4,0,22.7,0,34.1,0
		c3.8,0.1,8,0.7,11,3.4c2.7,2.5,4.1,6.1,4.7,9.6c0.9,4.7,1.3,9.6,1.5,14.4c5.7,0,11.5,0,17.3,0c3.1-14.4,6.4-28.7,9.5-43.1
		c-43.3,0-86.5,0-129.8,0C517.6,423.7,517,426.7,516.4,429.7z M672.8,429.7c3.2,0.6,6.8,1.4,9,4c2.4,3.1,2.2,7.3,2,11
		c-0.3,8.2-2.6,16.1-4.3,24.1c-7.6,34.1-15,68.2-22.6,102.3c-1.6,6.2-3.2,12.8-7.5,17.8c-2.5,2.8-6,4.4-9.6,5.4
		c-0.7,2.9-1.3,5.9-1.9,8.9c42.4,0,84.8,0,127.2,0c4-16.1,8.2-32.1,12.3-48.1c-6.1,0-12.2,0-18.3,0c-4.6,9.8-9.7,19.8-18,27
		c-3.2,2.9-7.2,4.7-11.5,5.1c-4.7,0.5-9.5,0.3-14.2,0.4c-7.4,0-14.8,0-22.2,0c5.3-23.7,10.5-47.5,15.7-71.2c6.7,0,13.3,0,20,0
		c2.4,0.1,4.9,0.3,7,1.5c2.2,1.3,3.4,3.8,4,6.2c0.9,3.9,1,8,0.9,12c4.6,0,9.3,0,13.9,0c4.3-18.1,8.6-36.2,12.8-54.3
		c-4.9,0-9.8,0-14.7,0c-2.5,5.5-5.2,11.2-9.9,15.1c-3.1,2.7-7.3,3.7-11.4,3.7c-6.4,0-12.8,0-19.2,0c4.7-21.4,9.4-42.7,14.1-64.1
		c11.3,0,22.7,0,34,0c3.5,0.1,7.1,0.6,10,2.6c3,2.1,4.7,5.7,5.5,9.2c1.1,5.1,1.5,10.4,1.8,15.6c5.7,0,11.5,0,17.2,0
		c3.2-14.4,6.4-28.7,9.5-43.1c-43.3,0-86.6,0-129.8,0C674,423.7,673.4,426.7,672.8,429.7z"/>
</g>
</svg>
