<svg xmlns="http://www.w3.org/2000/svg" viewBox="0 0 1024 1024" style="enable-background:new 0 0 1024 1024" xml:space="preserve">
   <circle cx="512" cy="512" r="512" style="fill:#0d76ba"/>
   <path d="M256.2 420.8h68.6c12.2.2 24.6.2 36.2 4.3 8.9 3 17.3 8.7 21.9 17 5.2 9.1 5.7 20 4.4 30.2-2 17.6-12.6 34-27.8 43.1-6.8 4.1-14.3 6.8-22 8.7-9.2 2.2-18.6 3.2-28.1 3.5-7.1 0-14.2.2-21.2-.6-2.4 10.9-4.8 21.7-7.2 32.6-1.5 6.9-3.5 13.9-3.4 21-.2 3.6-.1 7.7 2.5 10.5 2.8 2.6 6.8 3.1 10.4 3.5-.6 2.9-1.2 5.9-1.9 8.8h-69.2c.6-3 1.2-5.9 1.9-8.9 3.3-1 6.6-2.4 9.1-4.9 2.4-2.5 4-5.6 5.2-8.8 2.3-6.2 3.5-12.7 5-19.1L263.7 457c1.1-5.1 1.7-10.3 1.7-15.5-.1-2.9-.5-6-2.6-8.1-2.3-2.2-5.5-3-8.5-3.4.7-3.3 1.3-6.2 1.9-9.2zm51.9 16c-5.5 25.1-11 50.1-16.4 75.2 9.8 0 19.9.1 29.3-3.2 6.9-2.4 13-7.1 17.1-13.2 6.7-9.7 9.1-21.7 8.9-33.3-.1-5.5-1-11.2-4-15.9-2.7-4.5-7.4-7.5-12.5-8.7-7.3-1.9-14.9-1-22.4-.9zm112.2-7.1c2.8.4 5.8 1.1 8.1 3 2.3 2 2.9 5.2 3 8.1 0 5.6-.6 11.2-1.9 16.6-8.3 37.5-16.5 75-24.8 112.5-1.7 6.6-3.2 13.7-7.8 19.1-2.5 2.9-6.1 4.3-9.6 5.4-.6 2.9-1.3 5.9-1.9 8.9h67.3c.6-2.9 1.3-5.9 1.9-8.8-2.8-.5-5.8-1.1-8-3-2.2-1.8-2.9-4.7-3-7.4-.2-5.6.4-11.3 1.7-16.7 8.3-37.5 16.5-75 24.8-112.5 1.7-6.8 3.2-14 7.8-19.5 2.5-2.9 6.1-4.5 9.7-5.6.6-3 1.3-6 1.9-9h-67.3c-.7 3-1.4 5.9-1.9 8.9zm96.1 0c2.9.5 5.9 1.2 8.2 3.1 1.9 1.7 2.7 4.3 2.8 6.7.3 6.1-.5 12.2-1.8 18.1-8.3 37.5-16.5 75.1-24.9 112.6-1.7 6.4-3.2 13.3-7.6 18.5-2.5 2.9-6 4.5-9.6 5.5-.7 2.9-1.3 5.9-1.9 8.9 42.4 0 84.8.1 127.2 0 4-16.1 8.2-32.1 12.2-48.1h-18.3c-4.9 10.3-10.2 21-19.4 28.2-2.9 2.3-6.6 3.6-10.2 4-4.6.5-9.3.3-14 .3h-22.3c5.3-23.7 10.5-47.5 15.8-71.3h20.1c2.3.1 4.6.3 6.7 1.4 2 1.1 3.2 3.1 3.9 5.3 1.2 4.2 1.1 8.7 1.3 13h13.8c4.3-18.1 8.6-36.2 12.8-54.3h-14.8c-2.4 5.4-5 10.9-9.5 14.8-3.3 2.9-7.8 4-12.1 4h-18.9c4.7-21.3 9.4-42.7 14.2-64h34.1c3.8.1 8 .7 11 3.4 2.7 2.5 4.1 6.1 4.7 9.6.9 4.7 1.3 9.6 1.5 14.4h17.3c3.1-14.4 6.4-28.7 9.5-43.1H518.4c-.8 3-1.4 6-2 9zm156.4 0c3.2.6 6.8 1.4 9 4 2.4 3.1 2.2 7.3 2 11-.3 8.2-2.6 16.1-4.3 24.1-7.6 34.1-15 68.2-22.6 102.3-1.6 6.2-3.2 12.8-7.5 17.8-2.5 2.8-6 4.4-9.6 5.4-.7 2.9-1.3 5.9-1.9 8.9h127.2c4-16.1 8.2-32.1 12.3-48.1h-18.3c-4.6 9.8-9.7 19.8-18 27-3.2 2.9-7.2 4.7-11.5 5.1-4.7.5-9.5.3-14.2.4h-22.2c5.3-23.7 10.5-47.5 15.7-71.2h20c2.4.1 4.9.3 7 1.5 2.2 1.3 3.4 3.8 4 6.2.9 3.9 1 8 .9 12h13.9c4.3-18.1 8.6-36.2 12.8-54.3h-14.7c-2.5 5.5-5.2 11.2-9.9 15.1-3.1 2.7-7.3 3.7-11.4 3.7h-19.2c4.7-21.4 9.4-42.7 14.1-64.1h34c3.5.1 7.1.6 10 2.6 3 2.1 4.7 5.7 5.5 9.2 1.1 5.1 1.5 10.4 1.8 15.6h17.2c3.2-14.4 6.4-28.7 9.5-43.1H674.6c-.6 2.9-1.2 5.9-1.8 8.9z" style="fill:#fff"/>
</svg>
