<svg xmlns="http://www.w3.org/2000/svg" viewBox="0 0 1024 1024" style="enable-background:new 0 0 1024 1024" xml:space="preserve">
   <circle cx="512" cy="512" r="512" style="fill:#bd081c"/>
   <path d="M511.7 256C370.5 256 256 370.5 256 511.7c0 108.4 67.4 200.9 162.5 238.1-2.2-20.2-4.2-51.3.9-73.4 4.7-20 30-127.1 30-127.1s-7.7-15.4-7.7-38c0-35.5 20.6-62.1 46.3-62.1 21.8 0 32.4 16.4 32.4 36 0 22-13.9 54.8-21.2 85.2-6.1 25.5 12.8 46.2 37.9 46.2 45.4 0 80.4-47.9 80.4-117.1 0-61-44-103.9-106.8-103.9-72.7 0-115.4 54.7-115.4 110.9 0 22 8.4 45.7 19 58.5 2.1 2.6 2.4 4.8 1.8 7.4-1.9 8-6.3 25.6-7.1 29.1-1.1 4.8-3.7 5.8-8.6 3.5-31.9-14.7-51.9-61.4-51.9-99.1 0-80.6 58.6-154.7 169-154.7 88.7 0 157.7 63.3 157.7 147.7 0 88.2-55.6 159.2-133 159.2-25.9 0-50.2-13.4-58.8-29.4l-16 60.8c-5.7 22.3-21.4 50.2-32 67.1 24 7.4 49.2 11.4 75.7 11.4 140.9 0 255.7-114.5 255.7-255.7 0-141.3-114.7-255.7-255.7-255.7l.6-.6z" style="fill:#fff"/>
</svg>
