<?xml version="1.0" encoding="UTF-8" standalone="no"?>
<svg
   xmlns:dc="http://purl.org/dc/elements/1.1/"
   xmlns:cc="http://creativecommons.org/ns#"
   xmlns:rdf="http://www.w3.org/1999/02/22-rdf-syntax-ns#"
   xmlns:svg="http://www.w3.org/2000/svg"
   xmlns="http://www.w3.org/2000/svg"
   viewBox="0 0 1365.3333 1365.3333"
   height="1365.3333"
   width="1365.3333"
   xml:space="preserve"
   id="svg2"
   version="1.1"><metadata
     id="metadata8"><rdf:RDF><cc:Work
         rdf:about=""><dc:format>image/svg+xml</dc:format><dc:type
           rdf:resource="http://purl.org/dc/dcmitype/StillImage" /></cc:Work></rdf:RDF></metadata><defs
     id="defs6"><clipPath
       id="clipPath18"
       clipPathUnits="userSpaceOnUse"><path
         id="path16"
         d="M 0,1024 H 1024 V 0 H 0 Z" /></clipPath></defs><g
     transform="matrix(1.3333333,0,0,-1.3333333,0,1365.3333)"
     id="g10"><g
       id="g12"><g
         clip-path="url(#clipPath18)"
         id="g14"><g
           transform="translate(1024,512)"
           id="g20"><path
             id="path22"
             style="fill:#bd1e24;fill-opacity:1;fill-rule:nonzero;stroke:none"
             d="m 0,0 c 0,-282.77 -229.23,-512 -512,-512 -282.77,0 -512,229.23 -512,512 0,282.77 229.23,512 512,512 C -229.23,512 0,282.77 0,0" /></g><g
           transform="translate(511.7441,768)"
           id="g24"><path
             id="path26"
             style="fill:#ffffff;fill-opacity:1;fill-rule:nonzero;stroke:none"
             d="m 0,0 c -141.248,0 -255.744,-114.496 -255.744,-255.723 0,-108.351 67.37,-200.895 162.517,-238.123 -2.24,20.246 -4.245,51.265 0.875,73.367 4.672,19.989 29.995,127.082 29.995,127.082 0,0 -7.659,15.36 -7.659,37.994 0,35.478 20.629,62.102 46.25,62.102 21.846,0 32.384,-16.406 32.384,-36.011 0,-21.952 -13.93,-54.762 -21.162,-85.163 -6.08,-25.451 12.8,-46.186 37.866,-46.186 45.398,0 80.384,47.893 80.384,117.056 0,61.034 -44.01,103.872 -106.837,103.872 -72.746,0 -115.392,-54.656 -115.392,-110.913 0,-22.037 8.405,-45.716 18.965,-58.474 2.113,-2.56 2.39,-4.8 1.814,-7.36 -1.92,-8 -6.251,-25.579 -7.126,-29.078 -1.13,-4.799 -3.669,-5.781 -8.554,-3.519 -31.893,14.72 -51.904,61.397 -51.904,99.114 0,80.555 58.624,154.71 168.96,154.71 88.704,0 157.696,-63.296 157.696,-147.691 0,-88.213 -55.616,-159.19 -132.971,-159.19 -25.898,0 -50.218,13.419 -58.837,29.419 l -15.979,-60.757 c -5.738,-22.294 -21.418,-50.176 -31.957,-67.115 23.957,-7.359 49.194,-11.413 75.733,-11.413 140.95,0 255.68,114.453 255.68,255.723 0,141.29 -114.73,255.722 -255.68,255.722 z" /></g></g></g></g></svg>