<?xml version="1.0" encoding="utf-8"?>
<!-- Generator: Adobe Illustrator 21.0.0, SVG Export Plug-In . SVG Version: 6.00 Build 0)  -->
<svg version="1.1" xmlns="http://www.w3.org/2000/svg" xmlns:xlink="http://www.w3.org/1999/xlink" x="0px" y="0px"
	 viewBox="0 0 1024 1024" style="enable-background:new 0 0 1024 1024;" xml:space="preserve">
<style type="text/css">
	.st0{fill:#003791;}
	.st1{fill:#FFFFFF;}
</style>
<g id="Min_Guides__x28_DO_NOT_REMOVE_x29_">
</g>
<g id="Max_Guides__x28_DO_NOT_REMOVE_x29_">
</g>
<g id="Icon">
	<circle id="Background" class="st0" cx="512" cy="512" r="512"/>
	<g>
		<g>
			<g>
				<path class="st1" d="M242.4,611.7c-21.1,14-14,40.7,30.9,53.4c46.3,15.4,96.9,19.7,146,11.2c2.8,0,5.6-1.4,7-1.4v-47.7
					l-47.7,15.4c-18.3,5.6-36.5,7-54.8,2.8c-14-4.2-11.2-12.6,5.6-19.7l96.9-33.7v-52l-134.8,46.3
					C274.7,592,257.8,600.5,242.4,611.7z M568.1,401.1v136.2c57.6,28.1,102.5,0,102.5-73c0-74.4-26.7-108.1-103.9-134.8
					c-40.7-14-82.8-26.7-125-35.1v405.8l98.3,29.5V388.4c0-15.4,0-26.7,11.2-22.5C566.7,370.2,568.1,385.6,568.1,401.1z
					 M750.7,579.4c-40.7-14-84.3-19.7-126.4-15.4c-22.5,1.4-43.5,7-63.2,14l-4.2,1.4v54.8l91.3-33.7c18.3-5.6,36.5-7,54.8-2.8
					c14,4.2,11.2,12.6-5.6,19.7l-140.4,52v53.4L750.7,651c14-5.6,26.7-12.6,37.9-23.9C798.4,613.1,794.2,593.4,750.7,579.4z"/>
			</g>
		</g>
	</g>
</g>
</svg>
