<svg xmlns="http://www.w3.org/2000/svg" viewBox="0 0 1024 1024" style="enable-background:new 0 0 1024 1024" xml:space="preserve">
   <circle cx="512" cy="512" r="512" style="fill:#003791"/>
   <path d="M242.4 611.7c-21.1 14-14 40.7 30.9 53.4 46.3 15.4 96.9 19.7 146 11.2 2.8 0 5.6-1.4 7-1.4v-47.7l-47.7 15.4c-18.3 5.6-36.5 7-54.8 2.8-14-4.2-11.2-12.6 5.6-19.7l96.9-33.7v-52l-134.8 46.3c-16.8 5.7-33.7 14.2-49.1 25.4zm325.7-210.6v136.2c57.6 28.1 102.5 0 102.5-73 0-74.4-26.7-108.1-103.9-134.8-40.7-14-82.8-26.7-125-35.1v405.8l98.3 29.5V388.4c0-15.4 0-26.7 11.2-22.5 15.5 4.3 16.9 19.7 16.9 35.2zm182.6 178.3c-40.7-14-84.3-19.7-126.4-15.4-22.5 1.4-43.5 7-63.2 14l-4.2 1.4v54.8l91.3-33.7c18.3-5.6 36.5-7 54.8-2.8 14 4.2 11.2 12.6-5.6 19.7l-140.4 52v53.4L750.7 651c14-5.6 26.7-12.6 37.9-23.9 9.8-14 5.6-33.7-37.9-47.7z" style="fill:#fff"/>
</svg>
