<svg xmlns="http://www.w3.org/2000/svg" viewBox="0 0 1024 1024">
   <circle cx="512" cy="512" r="512" style="fill:#e5a00d"/>
   <path d="M297.83 418.56c-25.24 0-41.72 7.37-55.74 24.54v-18.93H193v233.5a17.27 17.27 0 0 0 3.34 1c3.64.78 21.57 4.92 35-6.55 11.6-9.93 14.27-21.42 14.27-34.64V583.7c14 15.07 30.15 21.39 52.59 21.39 48.38 0 85.55-39.27 85.55-91.51 0-55.74-35.76-95-85.9-95Zm-9.56 142.58c-27 0-48.58-22.36-48.58-49.74s25.27-48.2 48.58-48.2c27.38 0 48.58 21.21 48.58 48.58s-21.21 49.37-48.58 49.37Zm165.26-52.63c0 20.22 2.24 44.75 22.17 71.57.39.52 1.48 1.83 1.48 1.83-8.06 13.83-18.21 23.14-31.51 23.14-10.49 0-20.74-5.55-29.27-15.23-9.12-10.34-13.48-23.84-13.48-37.9V364h50.62v144.52Zm249.31 91h-60.89l59.1-87.61-59.1-87.68h60.89l59.09 87.68Zm75.34-97.54L831 424.19h-61.13l-22.27 32.4Zm-30.57 65.54L758 581.92c10 15.67 22.81 23.11 38.09 23.17 15.85-.28 27.13-14.33 31.27-19.25a190.2 190.2 0 0 1-17.51-18.39c-13.19-15.67-31-44.13-31.64-45.35l-30.56 45.4Zm-151.17-18.43c-10.18 9.39-17.13 14.83-31.6 14.83-25.65 0-40-17.9-42.13-37.88h135a38.31 38.31 0 0 0 1.41-11.75c0-54.69-40-95.72-92.56-95.72s-91.16 41.72-91.16 94 41 92.56 92.21 92.56c35.74 0 66.6-20.45 83.57-56h-54.74ZM566.93 460c22.36 0 39.09 14.75 42.94 34h-85.5c4.63-20.43 20.2-34 42.56-34Z" style="fill:#fff"/>
</svg>
