<?xml version="1.0" encoding="utf-8"?>
<!-- Generator: Adobe Illustrator 21.0.0, SVG Export Plug-In . SVG Version: 6.00 Build 0)  -->
<svg version="1.1" xmlns="http://www.w3.org/2000/svg" xmlns:xlink="http://www.w3.org/1999/xlink" x="0px" y="0px"
	 viewBox="0 0 1024 1024" style="enable-background:new 0 0 1024 1024;" xml:space="preserve">
<style type="text/css">
	.st0{fill:#EE2F5A;}
	.st1{fill:#FFFFFF;}
</style>
<g id="Guides">
</g>
<g id="Icon">
	<circle class="st0" cx="512" cy="512" r="512"/>
	<g>
		<path class="st1" d="M591.5,293.5c-120.5-43.8-254.2,18.5-298,139c-43.8,120.5,18.5,254.2,139,298c120.5,43.8,254.2-18.5,298-139
			C774.3,471,712,337.4,591.5,293.5L591.5,293.5z M512,768c-141.2,0-256-114.8-256-256c0-141.2,114.8-256,256-256
			c141.2,0,256,114.8,256,256C768,653.2,653.2,768,512,768L512,768z"/>
		<path class="st1" d="M446.6,379.7l0,264.6L675.7,512L446.6,379.7L446.6,379.7L446.6,379.7z M468.5,417.7L631.8,512l-163.3,94.3
			L468.5,417.7"/>
		<path class="st1" d="M393.9,408.6v206.8L573,512L393.9,408.6L393.9,408.6L393.9,408.6z M415.8,446.6L529.1,512l-113.3,65.4V446.6"
			/>
	</g>
</g>
</svg>
