<svg xmlns="http://www.w3.org/2000/svg" viewBox="0 0 1024 1024" style="enable-background:new 0 0 1024 1024" xml:space="preserve">
   <style>
      .st1{fill:#fff}
   </style>
   <g id="Icon">
      <circle cx="512" cy="512" r="512" style="fill:#ee2f5a"/>
      <path class="st1" d="M591.5 293.5c-120.5-43.8-254.2 18.5-298 139-43.8 120.5 18.5 254.2 139 298 120.5 43.8 254.2-18.5 298-139 43.8-120.5-18.5-254.1-139-298zM512 768c-141.2 0-256-114.8-256-256s114.8-256 256-256 256 114.8 256 256-114.8 256-256 256z"/>
      <path class="st1" d="M446.6 379.7v264.6L675.7 512 446.6 379.7zm21.9 38L631.8 512l-163.3 94.3V417.7"/>
      <path class="st1" d="M393.9 408.6v206.8L573 512 393.9 408.6zm21.9 38L529.1 512l-113.3 65.4V446.6"/>
   </g>
</svg>
