<svg xmlns="http://www.w3.org/2000/svg" viewBox="0 0 1024 1024">
   <circle cx="512" cy="512" r="512" style="fill:#2bb0ec"/>
   <path d="M482.3 719.47c-2.38 32.09-40.61 46.75-64 24.57-20-19.41-11.09-55.27 15.85-63 9.11-2.77 10.7-2.77 20.21-.2 16.84 4.16 29.32 21.39 27.94 38.63zM670.9 392.2c16.44-1.58 32.49-20 32.49-37.44 0-25-26.94-44.18-50.12-35.86a37.67 37.67 0 0 0-25 37.44c1.02 22.19 20.04 38.03 42.63 35.86zM346.59 594.46c4.16-15.25-5.75-36.06-20.21-42.79-10.1-4.56-24.17-4.75-32.09-.59-29.72 15.25-29.91 53.29-.59 68.35 20.4 10.5 46.55-1.99 52.89-24.97zm7.13-64.78c55.47 19.41 67.55 23.18 68.94 20.8 2.38-3.76 15.45-42.79 14.66-43.39-.2-.4-8.52-3.37-18.23-6.74C347 475 292.71 456 283.79 452.62c-5.75-2-11.29-3.76-12.08-3.76-1 0-5.15 10.1-9.71 22.19-8.72 24.76-9.11 23.18 6.74 28.33 5.35 1.78 11.49 4 13.67 5 2.17.74 34.27 12.23 71.31 25.3zm-12.08-96.87c24.17-9.11 32.09-39.82 15.65-59.43-9.71-11.49-28.92-16.84-42-11.49a38.47 38.47 0 0 0-24.57 35.46c-.59 25.95 26.35 44.77 50.92 35.46zM389.19 367c20.8 60.42 33.48 96.68 34.07 97.47.79 1 42.79-13.47 44.77-15.45.59-.59-5.94-21.79-14.66-46.75-8.72-25.16-19.22-55.47-23.38-67.36-4.16-12.08-10.1-29.12-13.27-37.84l-5.55-16.24-22.78 8.17c-12.48 4.36-23 8.12-23.18 8.12-.2.2 8.12 25 11.89 34.87.6 1.57 5.9 17.41 12.09 35.01zm183.05 223.11c-5.55-.2-32.09-2.77-38.43-3.76-5.55-.79-6.74-.4-6.93 2.58a61.53 61.53 0 0 1-.59 6.54c-.4 1.58-1.39 8.72-2.18 15.85s-1.58 15.06-2 17.83c-.2 2.77-1.19 10.7-1.78 17.83-.79 7.13-1.78 15.45-2.18 18.82-1.58 10.5-2.77 19.61-4 31.7-.59 6.54-1.58 14.46-2 17.83-4 31.5-5 45.37-3.57 46.56.79.79 7.92 2.18 15.45 2.77 7.73.79 16.44 1.78 19.61 2.38 11.09 2 12.88 1.58 12.68-2.58-.2-3.37 1.58-20.41 3.37-32.29 1.19-9.11 3-23.57 5.94-51.51.59-5.94 1.58-14.07 2-17.83.59-3.76 1.39-11.49 2-16.84.59-5.55 1.39-13.08 2-16.84 4.57-37.46 4.57-38.85.61-39.04zm43-77.86-17.43 17.43-17.24 17.24 63 63 63 63 16.64-17c9.31-9.31 17-17.24 17.24-17.63.2-.2-27.93-28.73-62.4-63.2zm4.16 145.61c-31.3 10.7-32.29 56.26-1.78 69.93a37.33 37.33 0 0 0 52.7-34.27c-.02-26.52-25.38-44.38-50.93-35.66zM768 531.07c-.59-12.08-3.17-18.62-10.3-25.75-10.7-10.7-30.71-14.26-43.39-7.53-20.6 10.9-27.54 34.27-15.45 53.49 7.92 13.08 19.81 19 34.47 17.83 21.36-1.79 35.43-17.24 34.67-38.04zm-377.63 82.41c-39.82 25-73.5 46.16-74.88 47-2 1.19.4 6.74 9.91 21.79 6.93 11.09 13.27 20.21 14.07 20.21 1 0 142.44-87.17 149.77-92.32.79-.59-18.23-31.7-23.18-37.64-3.38-4.4-3.57-4.21-75.69 40.96zm193.56-134.31c.79 1.39 25 .2 34.87-1.58 2-.59 9.11-1.39 15.85-2 11.49-1 16.24-1.58 34.67-4 4-.4 12.28-1.39 18.23-2s14.07-1.58 17.83-2 15.85-1.78 26.74-3c30.51-3.17 28.73-2.38 27.74-13.47-1-9.11-3.76-30.9-4.75-36.65-.2-1.58-9.71-1.39-24.37.79-5 .79-16 2-24.37 2.77-8.32.59-16.64 1.58-18.62 2-1.78.4-9.91 1.19-17.83 2-7.92.59-15.85 1.58-17.83 2-1.78.4-9.51 1.19-17 2-7.73.59-16 1.58-18.82 2-12.28 1.78-31.1 3.76-34.47 3.57-3.17 0-3.57 1-2.38 9.11.59 5 1.78 15.25 2.38 23 .54 7.53 1.53 14.66 2.13 15.46zM536 434.59c3-3.17 90.14-141.65 91.53-145.41.79-2.38-7.73-8.72-33.08-24l-6.93-4.36-3.17 5.35c-1.78 3-23 36.65-47 75.08-24.17 38.23-44 70.13-44 70.72 0 .79 2 2.18 4.56 3.17 2.38 1.19 11.49 6.54 20 12.08 12.72 7.96 16.29 9.55 18.09 7.37zM484.86 333a23.82 23.82 0 0 0 3.58 0h.32a38.74 38.74 0 1 0-3.9 0z" style="fill:#fff"/>
</svg>
