<?xml version="1.0" encoding="utf-8"?>
<!-- Generator: Adobe Illustrator 21.0.0, SVG Export Plug-In . SVG Version: 6.00 Build 0)  -->
<svg version="1.1" xmlns="http://www.w3.org/2000/svg" xmlns:xlink="http://www.w3.org/1999/xlink" x="0px" y="0px"
	 viewBox="0 0 1024 1024" style="enable-background:new 0 0 1024 1024;" xml:space="preserve">
<style type="text/css">
	.st0{fill:#EF7878;}
	.st1{fill:#FFFFFF;}
</style>
<g id="Guides">
</g>
<g id="Icon">
	<circle class="st0" cx="512" cy="512" r="512"/>
	<g id="Logo">
		<g>
			<path class="st1" d="M398.3,331.8c-33.2-17.9-70.3-31.9-108.6-40.9c-7.7,16.6-11.5,33.2-11.5,52.4c0,28.1,8.9,53.7,24.3,74.1
				C326.7,381.7,358.7,351,398.3,331.8z"/>
			<path class="st1" d="M721.6,417.4c15.3-20.4,24.3-46,24.3-74.1c0-19.2-3.8-37.1-11.5-52.4c-38.3,7.7-75.4,21.7-108.6,40.9
				C664.1,351,697.3,381.7,721.6,417.4z"/>
		</g>
		<g>
			<path class="st1" d="M569.5,476.2c-7.7,0-14.1,6.4-14.1,14.1c0,2.6,1.3,5.1,2.6,7.7l0,0c5.1,7.7,12.8,12.8,21.7,15.3
				c2.6-5.1,3.8-11.5,3.8-17.9c0-2.6,0-3.8,0-6.4C582.3,481.3,577.2,476.2,569.5,476.2z"/>
			<path class="st1" d="M503.1,320.3c-126.5,5.1-224.9,112.4-224.9,239v131.6c0,23,19.2,42.2,42.2,42.2c23,0,42.2-19.2,42.2-42.2
				v-34.5H659v34.5c0,23,19.2,42.2,42.2,42.2c23,0,42.2-19.2,42.2-42.2v-138C744.6,421.3,635.9,315.2,503.1,320.3z M635.9,504.3
				c-7.7,12.8-19.2,21.7-33.2,26.8c-8.9,17.9-28.1,30.7-49.8,30.7c-2.6,0-5.1,0-6.4,0c-7.7,0-14.1-6.4-14.1-14.1s6.4-14.1,14.1-14.1
				l0,0c6.4,0,12.8-2.6,17.9-5.1c-7.7-3.8-15.3-8.9-20.4-16.6c-5.1-6.4-7.7-12.8-7.7-21.7c0-17.9,15.3-33.2,33.2-33.2
				c11.5,0,20.4,5.1,26.8,14.1c7.7,10.2,12.8,21.7,12.8,35.8c0,1.3,0,2.6,0,5.1c6.4-2.6,11.5-7.7,15.3-12.8
				c2.6-3.8,6.4-3.8,10.2-2.6C637.2,495.4,638.5,500.5,635.9,504.3z"/>
		</g>
	</g>
</g>
</svg>
