<svg xmlns="http://www.w3.org/2000/svg" viewBox="0 0 1024 1024"><defs><style>.cls-1{fill:#a9d15a;}.cls-2{fill:#fff;}.cls-3{fill:#e68245;}</style></defs><title>Posteo</title><g id="Icon"><circle class="cls-1" cx="512" cy="512" r="512"/><g id="Logo"><path id="slash_1" data-name="slash 1" class="cls-2" d="M213.33,486.35,185.07,596.78,164.2,599l28.26-110.43Z"/><path id="slash_2" data-name="slash 2" class="cls-2" d="M272,479.39,243.76,590.26l-20.87,2.17,28.69-110.86C251.58,482.44,272,479.39,272,479.39Z"/><path id="letter_P" data-name="letter P" class="cls-2" d="M356.79,504.17a46.74,46.74,0,0,1-.43,13.48,26.12,26.12,0,0,1-5.65,12.17c-2.61,3.48-7,6.52-12.17,9.13-4.78,2.61-11.74,3.91-20,4.78l-5.22.43,3.91,37.39-23,2.61L282,478.52l30-3a82.51,82.51,0,0,1,18.26.43,36.33,36.33,0,0,1,13.48,5.22,30.57,30.57,0,0,1,8.7,9.56C354.62,494.18,355.92,499,356.79,504.17Zm-45.65,21.74,4.35-.43c6.52-.43,11.3-2.61,14.35-5.22,2.61-2.61,3.91-7.39,3.48-12.61s-2.61-9.13-5.65-11.3-8.26-2.61-14.35-2.17l-5.65.43Z"/><path id="letter_O" data-name="letter O" class="cls-2" d="M468.09,512a96.79,96.79,0,0,1-.43,22.61,53.67,53.67,0,0,1-7,18.69,38.84,38.84,0,0,1-13.91,12.61c-5.65,3.48-12.61,5.22-21.3,6.52a61.1,61.1,0,0,1-22.17-1.3,32,32,0,0,1-16.09-9.56,47.72,47.72,0,0,1-10.87-16.09,83,83,0,0,1-5.22-22.17,77.8,77.8,0,0,1,.43-22.61,48.46,48.46,0,0,1,7-18.26,38.84,38.84,0,0,1,13.91-12.61c5.65-3,13-5.22,21.3-6.52a61.1,61.1,0,0,1,22.17,1.3A32,32,0,0,1,452,474.18a47.72,47.72,0,0,1,10.87,16.09A99.61,99.61,0,0,1,468.09,512Zm-73.47,7.83a68.12,68.12,0,0,0,3,14.78,36.61,36.61,0,0,0,5.65,10.87c2.61,2.61,4.78,4.78,8.7,6.52a23.23,23.23,0,0,0,11.3,1.3c4.35-.43,8.26-1.3,11.3-3.48a20.53,20.53,0,0,0,7-7.83,33.35,33.35,0,0,0,3-11.74,61,61,0,0,0-.43-15.22,68.12,68.12,0,0,0-3-14.78,50.67,50.67,0,0,0-5.65-10.87,22.89,22.89,0,0,0-8.7-6.52,23.23,23.23,0,0,0-11.3-1.3c-4.35.43-8.26,1.3-10.87,3.48a19.1,19.1,0,0,0-7,8.26,33.35,33.35,0,0,0-3,11.74c-1.3,4.35-.87,9.13,0,14.78Z"/><path id="letter_S" data-name="letter S" class="cls-2" d="M550.26,524.61a32.91,32.91,0,0,1,0,13A25.29,25.29,0,0,1,545,548.52a39.84,39.84,0,0,1-10.43,8.26A62.22,62.22,0,0,1,519.39,562a89.9,89.9,0,0,1-15.22,1.3,54.66,54.66,0,0,1-14.35-2.17l-3.91-20.87a50.55,50.55,0,0,0,7.83,1.74c2.61.43,5.22,1.3,7.83,1.3a47.25,47.25,0,0,0,7.83.43,49.93,49.93,0,0,0,7.83-.43,22.91,22.91,0,0,0,6.52-2.17c1.3-.87,3-1.74,3.91-3a15.44,15.44,0,0,0,1.74-3.91v-4.35a16.07,16.07,0,0,0-2.17-4.78,11.84,11.84,0,0,0-4.35-3.48c-1.74-.87-3.91-1.74-6.09-3a37.86,37.86,0,0,0-8.26-2.17c-2.61-.87-5.22-1.74-8.26-2.61a43.53,43.53,0,0,1-9.13-4.35c-3-1.74-5.22-4.35-8.26-7.39-2.61-3-3.91-7.39-4.78-11.74a32.91,32.91,0,0,1,0-13,30.72,30.72,0,0,1,4.78-10.87c2.17-3,5.65-5.65,9.56-8.26a32.86,32.86,0,0,1,13.48-4.35,43.08,43.08,0,0,1,7.83-.87h7.83a47.91,47.91,0,0,1,7.83.87c2.61.43,5.22,1.3,8.26,1.74l-3.48,19.13c-2.17-.43-4.35-1.3-7-1.3a23,23,0,0,0-5.65-.43c-1.74,0-3.91-.43-5.22,0a21.82,21.82,0,0,0-5.22.87,11.54,11.54,0,0,0-8.26,4.78,10,10,0,0,0-1.3,8.7c.43,1.74.87,3.48,1.74,4.35a11.72,11.72,0,0,0,3.48,3c1.74.87,3.48,1.74,5.65,2.61a72.59,72.59,0,0,0,8.7,2.61c3.91,1.3,7.83,2.61,11.3,3.48a25.63,25.63,0,0,1,9.56,5.22,21.64,21.64,0,0,1,6.52,7.39C548.08,516.78,549.39,520.26,550.26,524.61Z"/><path id="letter_T" data-name="letter T" class="cls-2" d="M608.08,550.69l-23,2.61-9.56-87.38-27,2.61-2.17-18.69,77.39-8.7,1.74,18.69-27,2.61C598.52,463.31,608.08,550.69,608.08,550.69Z"/><path id="letter_E" data-name="letter E" class="cls-2" d="M711.12,539.82l-62.6,7L636.34,440.7l62.6-7,2.17,18.69-39.56,4.35,2.61,23.48,36.52-4.35,2.17,18.69-36.52,3.91,3,27.39,39.56-4.35Z"/><path id="letter_O-2" data-name="letter O-2" class="cls-2" d="M816.32,474.18a96.78,96.78,0,0,1-.43,22.61,53.67,53.67,0,0,1-7,18.69A38.84,38.84,0,0,1,795,528.09c-5.65,3.48-12.61,5.22-21.3,6.52-8.7.87-15.65.43-22.17-1.3a32,32,0,0,1-16.09-9.56,47.72,47.72,0,0,1-10.87-16.09,83,83,0,0,1-5.22-22.17,77.8,77.8,0,0,1,.43-22.61,48.46,48.46,0,0,1,7-18.26A38.84,38.84,0,0,1,740.68,432c5.65-3,13-5.22,21.3-6.52a61.1,61.1,0,0,1,22.17,1.3,32,32,0,0,1,16.09,9.56,47.72,47.72,0,0,1,10.87,16.09c2.17,6.52,4.35,13.48,5.22,21.74Zm-73.47,8.26a68.12,68.12,0,0,0,3,14.78,50.67,50.67,0,0,0,5.65,10.87c2.61,2.61,4.78,4.78,8.7,6.52a23.92,23.92,0,0,0,11.3,1.3c4.35-.43,8.26-1.3,11.3-3.48a20.53,20.53,0,0,0,7-7.83,33.35,33.35,0,0,0,3-11.74,61,61,0,0,0-.43-15.22,110,110,0,0,0-3-14.78A50.67,50.67,0,0,0,783.72,452a22.89,22.89,0,0,0-8.7-6.52,23.23,23.23,0,0,0-11.3-1.3c-4.35.43-8.26,1.3-10.87,3.48a19.1,19.1,0,0,0-7,8.26,33.35,33.35,0,0,0-3,11.74,42,42,0,0,0,0,14.78Z"/><circle id="dot" class="cls-3" cx="846.76" cy="514.17" r="13.04"/></g></g></svg>