<svg xmlns="http://www.w3.org/2000/svg" viewBox="0 0 1024 1024">
   <circle cx="512" cy="512" r="512" style="fill:#b3b2a4"/>
   <path d="M753 335c-.56-.56-1.19-1-1.78-1.56a51.11 51.11 0 0 0-21-11.59l-1-.24a50.82 50.82 0 0 0-5-1c-.45-.07-.89-.14-1.34-.2a51 51 0 0 0-5.79-.38H306.84a50.92 50.92 0 0 0-5.8.39c-.58.07-1.15.17-1.73.26-1.57.25-3.12.56-4.64.94-.44.11-.88.21-1.32.33a50.48 50.48 0 0 0-9.79 4 50.81 50.81 0 0 0-5.08 3.1 47.85 47.85 0 0 0-7.5 6 51.1 51.1 0 0 0-15 36.22v255.89a51.18 51.18 0 0 0 51.18 51.27h409.6a51.22 51.22 0 0 0 6.76-.5h.09A51.1 51.1 0 0 0 768 627.16v-256A51.13 51.13 0 0 0 753 335Zm-475-5.62-.58.41Zm-5.7 4.62-.06.06Zm-4.2 4.54c-.31.38-.62.75-.93 1.14.29-.42.6-.8.92-1.18Zm486.43 304.33a82.9 82.9 0 0 1 5.94 7.5c-.34.65-.72 1.28-1.09 1.9h-.15a66.15 66.15 0 0 0-4.74-5.27L557.08 499.19a64.92 64.92 0 0 0-90.18 0L269.37 647a66.3 66.3 0 0 0-4.81 5.3c-.35-.62-.67-1.25-1-1.9a74.46 74.46 0 0 1 5.9-7.5l170.15-143.85L263.53 348c.35-.66.78-1.24 1.16-1.88a62.31 62.31 0 0 0 4.79 5.29l182.9 136.88L466.9 476a59.52 59.52 0 0 1 90.18 0l14.57 12.32 182.93-136.91a61.32 61.32 0 0 0 4.74-5.28c.37.63.8 1.22 1.15 1.87a78.74 78.74 0 0 1-5.94 7.47L584.6 499.19Zm1.14-304.77c.34.41.68.82 1 1.24q-.48-.62-1-1.23Zm8.61 316.22a51.74 51.74 0 0 0 3.72-8.06v6.48A51.2 51.2 0 0 1 716.78 704h-409.6A51.21 51.21 0 0 1 256 652.79v-6.53a51.9 51.9 0 0 0 3.6 7.85c.58 1 1.19 2 1.83 3q.87 1.32 1.82 2.6c.39.53.79 1 1.2 1.55l.29.35a53.75 53.75 0 0 0 42.41 20.25h409.6a37 37 0 0 0 3.84-.26l.77-.08h.53c.37 0 .74 0 1.12-.09h.19c.26 0 .51 0 .75-.06h.12a9.46 9.46 0 0 0 1.11-.23l.32-.08a54.75 54.75 0 0 0 6-1.3l.56-.14c.35-.09.74-.18 1.16-.31a54.1 54.1 0 0 0 6.52-2.57c.86-.4 1.63-.77 2.36-1.15a54.24 54.24 0 0 0 5.71-3.42c.6-.42 1.15-.84 1.68-1.25l.52-.4c1.47-1.13 2.88-2.32 4.2-3.56.1-.1.21-.18.32-.27a10.29 10.29 0 0 0 .94-.82 53.77 53.77 0 0 0 3.78-4.25l.15-.18c.45-.56.9-1.13 1.33-1.71q.9-1.2 1.72-2.45l.24-.37q.85-1.27 1.59-2.58Z" style="fill:#fff;fill-rule:evenodd"/>
</svg>
