<?xml version="1.0" encoding="utf-8"?>
<!-- Generator: Adobe Illustrator 21.0.0, SVG Export Plug-In . SVG Version: 6.00 Build 0)  -->
<svg version="1.1" xmlns="http://www.w3.org/2000/svg" xmlns:xlink="http://www.w3.org/1999/xlink" x="0px" y="0px"
	 viewBox="0 0 1024 1024" style="enable-background:new 0 0 1024 1024;" xml:space="preserve">
<style type="text/css">
	.st0{fill:#A9D158;}
	.st1{fill:#FFFFFF;}
</style>
<g id="Guides">
</g>
<g id="Icon">
	<circle class="st0" cx="512" cy="512" r="512"/>
	<g id="Logo">
		<path id="slash_1" class="st1" d="M213.3,486.3l-28.3,110.4l-20.9,2.2l28.3-110.4L213.3,486.3z"/>
		<path id="slash_2" class="st1" d="M272,479.4l-28.3,110.9l-20.9,2.2l28.7-110.9C251.6,482.4,272,479.4,272,479.4z"/>
		<path id="letter_P" class="st1" d="M356.8,504.2c0.4,4.3,0.4,9.1-0.4,13.5c-0.9,4.3-2.6,8.7-5.7,12.2c-2.6,3.5-7,6.5-12.2,9.1
			c-4.8,2.6-11.7,3.9-20,4.8l-5.2,0.4l3.9,37.4l-23,2.6L282,478.5l30-3c7-0.4,13-0.4,18.3,0.4c4.8,0.9,9.6,2.6,13.5,5.2
			c3.5,2.6,6.5,5.7,8.7,9.6C354.6,494.2,355.9,499,356.8,504.2z M311.1,525.9l4.3-0.4c6.5-0.4,11.3-2.6,14.3-5.2
			c2.6-2.6,3.9-7.4,3.5-12.6s-2.6-9.1-5.7-11.3c-3-2.2-8.3-2.6-14.3-2.2l-5.7,0.4L311.1,525.9z"/>
		<path id="letter_O" class="st1" d="M468.1,512c0.9,8.3,0.4,15.7-0.4,22.6c-1.3,7-3.5,13-7,18.7c-3.5,5.2-8.3,9.6-13.9,12.6
			c-5.7,3.5-12.6,5.2-21.3,6.5c-8.3,0.9-15.7,0.4-22.2-1.3c-6.5-1.7-11.7-4.8-16.1-9.6c-4.3-4.3-8.3-9.6-10.9-16.1
			c-2.6-6.5-4.3-13.9-5.2-22.2s-0.9-15.7,0.4-22.6c1.3-7,3.5-13,7-18.3s8.3-9.6,13.9-12.6c5.7-3,13-5.2,21.3-6.5
			c8.3-0.9,15.7-0.4,22.2,1.3c6.5,1.7,11.7,4.8,16.1,9.6c4.3,4.3,8.3,9.6,10.9,16.1C465,496.3,467.2,504.2,468.1,512z M394.6,519.8
			c0.4,5.7,1.7,10.4,3,14.8c1.3,4.3,3.5,7.8,5.7,10.9c2.6,2.6,4.8,4.8,8.7,6.5c3,1.3,7,1.7,11.3,1.3s8.3-1.3,11.3-3.5
			c2.6-1.7,5.2-4.3,7-7.8c1.7-3.5,2.6-7.4,3-11.7c0.4-4.3,0.4-9.6-0.4-15.2c-0.4-5.7-1.7-10.4-3-14.8c-1.7-4.3-3.5-7.8-5.7-10.9
			c-2.2-2.6-4.8-4.8-8.7-6.5c-3-1.3-7-1.7-11.3-1.3s-8.3,1.3-10.9,3.5c-2.6,1.7-5.2,4.3-7,8.3c-1.7,3.5-2.6,7.4-3,11.7
			C393.3,509.4,393.7,514.2,394.6,519.8L394.6,519.8z"/>
		<path id="letter_S" class="st1" d="M550.3,524.6c0.9,4.3,0.9,9.1,0,13c-0.9,3.9-2.6,7.8-5.2,10.9c-2.6,3-6.5,6.1-10.4,8.3
			c-4.3,2.2-9.1,3.9-15.2,5.2c-4.8,0.9-10.4,1.3-15.2,1.3c-4.8,0-9.6-0.9-14.3-2.2l-3.9-20.9c2.6,0.9,5.2,1.3,7.8,1.7
			c2.6,0.4,5.2,1.3,7.8,1.3c2.6,0.4,5.2,0.4,7.8,0.4c2.6,0,4.8,0,7.8-0.4c2.6-0.4,4.8-1.3,6.5-2.2c1.3-0.9,3-1.7,3.9-3
			c0.9-1.3,1.3-2.6,1.7-3.9c0-1.7,0-3,0-4.3c-0.4-1.7-1.3-3.5-2.2-4.8s-2.6-2.6-4.3-3.5c-1.7-0.9-3.9-1.7-6.1-3
			c-2.2-0.9-5.2-1.7-8.3-2.2c-2.6-0.9-5.2-1.7-8.3-2.6c-3-0.9-6.1-2.6-9.1-4.3c-3-1.7-5.2-4.3-8.3-7.4c-2.6-3-3.9-7.4-4.8-11.7
			s-0.9-9.1,0-13s2.6-7.8,4.8-10.9c2.2-3,5.7-5.7,9.6-8.3c3.9-2.2,8.3-3.9,13.5-4.3c2.6-0.4,4.8-0.9,7.8-0.9c2.6,0,4.8,0,7.8,0
			c2.6,0,5.2,0.4,7.8,0.9c2.6,0.4,5.2,1.3,8.3,1.7l-3.5,19.1c-2.2-0.4-4.3-1.3-7-1.3c-1.7-0.4-3.5-0.4-5.7-0.4c-1.7,0-3.9-0.4-5.2,0
			c-1.7,0-3.5,0.4-5.2,0.9c-3.5,0.4-6.5,2.2-8.3,4.8c-1.7,2.6-2.2,5.2-1.3,8.7c0.4,1.7,0.9,3.5,1.7,4.3c0.9,1.3,2.2,2.2,3.5,3
			c1.7,0.9,3.5,1.7,5.7,2.6c2.2,0.9,5.2,1.7,8.7,2.6c3.9,1.3,7.8,2.6,11.3,3.5c3.5,0.9,7,3,9.6,5.2c2.6,1.7,4.8,4.3,6.5,7.4
			C548.1,516.8,549.4,520.3,550.3,524.6z"/>
		<path id="letter_T" class="st1" d="M608.1,550.7l-23,2.6l-9.6-87.4l-27,2.6l-2.2-18.7l77.4-8.7l1.7,18.7l-27,2.6
			C598.5,463.3,608.1,550.7,608.1,550.7z"/>
		<path id="letter_E" class="st1" d="M711.1,539.8l-62.6,7l-12.2-106.1l62.6-7l2.2,18.7l-39.6,4.3l2.6,23.5l36.5-4.3l2.2,18.7
			l-36.5,3.9l3,27.4l39.6-4.3L711.1,539.8z"/>
		<path id="letter_O-2" class="st1" d="M816.3,474.2c0.9,8.3,0.4,15.7-0.4,22.6c-1.3,7-3.5,13-7,18.7c-3.5,5.2-8.3,9.6-13.9,12.6
			c-5.7,3.5-12.6,5.2-21.3,6.5c-8.7,0.9-15.7,0.4-22.2-1.3c-6.5-1.7-11.7-4.8-16.1-9.6c-4.3-4.3-8.3-9.6-10.9-16.1
			c-2.6-6.5-4.3-13.9-5.2-22.2s-0.9-15.7,0.4-22.6c1.3-7,3.5-13,7-18.3s8.3-9.6,13.9-12.6c5.7-3,13-5.2,21.3-6.5
			c8.3-0.9,15.7-0.4,22.2,1.3c6.5,1.7,11.7,4.8,16.1,9.6c4.3,4.3,8.3,9.6,10.9,16.1C813.3,459,815.5,465.9,816.3,474.2L816.3,474.2z
			 M742.9,482.4c0.4,5.7,1.7,10.4,3,14.8c1.7,4.3,3.5,7.8,5.7,10.9c2.6,2.6,4.8,4.8,8.7,6.5c3.5,1.3,7,1.7,11.3,1.3
			c4.3-0.4,8.3-1.3,11.3-3.5c2.6-1.7,5.2-4.3,7-7.8c1.7-3.5,2.6-7.4,3-11.7c0.4-4.3,0.4-9.6-0.4-15.2c-0.9-5.7-1.7-10.4-3-14.8
			c-1.7-4.3-3.5-7.8-5.7-10.9c-2.2-2.6-4.8-4.8-8.7-6.5c-3-1.3-7-1.7-11.3-1.3c-4.3,0.4-8.3,1.3-10.9,3.5c-2.6,1.7-5.2,4.3-7,8.3
			c-1.7,3.5-2.6,7.4-3,11.7C742,472,742,476.8,742.9,482.4L742.9,482.4z"/>
		<circle id="dot" class="st1" cx="846.8" cy="514.2" r="13"/>
	</g>
</g>
</svg>
