<svg xmlns="http://www.w3.org/2000/svg" viewBox="0 0 1024 1024">
   <circle cx="512" cy="512" r="512" style="fill:#a9d158"/>
   <path d="m213.33 486.35-28.26 110.43L164.2 599l28.26-110.43Zm38.26-4.78-28.7 110.86 20.87-2.17L272 479.39s-20.42 3.05-20.42 2.18Zm100.86 9.13a30.57 30.57 0 0 0-8.7-9.56 36.33 36.33 0 0 0-13.48-5.22 82.51 82.51 0 0 0-18.26-.43l-30 3 12.17 105.64 23-2.61-3.91-37.39 5.22-.43c8.26-.87 15.22-2.17 20-4.78 5.22-2.61 9.56-5.65 12.17-9.13a26.12 26.12 0 0 0 5.65-12.17 46.74 46.74 0 0 0 .43-13.48c-.82-5.14-2.12-9.96-4.29-13.44Zm-44.78 3.91 5.65-.43c6.09-.43 11.3 0 14.35 2.17s5.22 6.09 5.65 11.3-.87 10-3.48 12.61c-3 2.61-7.83 4.78-14.35 5.22l-4.35.43Zm155.21-4.35A47.72 47.72 0 0 0 452 474.18a32 32 0 0 0-16.09-9.56 61.1 61.1 0 0 0-22.17-1.3c-8.26 1.3-15.65 3.48-21.3 6.52a38.84 38.84 0 0 0-13.91 12.61 48.46 48.46 0 0 0-7 18.26 77.8 77.8 0 0 0-.43 22.61 83 83 0 0 0 5.22 22.17 47.72 47.72 0 0 0 10.87 16.09 32 32 0 0 0 16.09 9.56 61.1 61.1 0 0 0 22.17 1.3c8.7-1.3 15.65-3 21.3-6.52a38.84 38.84 0 0 0 13.95-12.62 53.67 53.67 0 0 0 7-18.69 96.79 96.79 0 0 0 .43-22.61 99.61 99.61 0 0 0-5.26-21.74Zm-68.26 29.56c-.87-5.65-1.3-10.43 0-14.78a33.35 33.35 0 0 1 3-11.74 19.1 19.1 0 0 1 7-8.26c2.61-2.17 6.52-3 10.87-3.48a23.23 23.23 0 0 1 11.3 1.3 22.89 22.89 0 0 1 8.7 6.52 50.67 50.67 0 0 1 5.65 10.87 68.12 68.12 0 0 1 3 14.78 61 61 0 0 1 .43 15.22 33.35 33.35 0 0 1-3 11.74 20.53 20.53 0 0 1-7 7.83c-3 2.17-7 3-11.3 3.48A23.23 23.23 0 0 1 412 552c-3.91-1.74-6.09-3.91-8.7-6.52a36.61 36.61 0 0 1-5.65-10.87 68.12 68.12 0 0 1-3-14.78Zm153.9-3.91a21.64 21.64 0 0 0-6.52-7.39 25.63 25.63 0 0 0-9.56-5.22c-3.48-.87-7.39-2.17-11.3-3.48a72.59 72.59 0 0 1-8.7-2.61c-2.17-.87-3.91-1.74-5.65-2.61a11.72 11.72 0 0 1-3.48-3c-.87-.87-1.3-2.61-1.74-4.35a10 10 0 0 1 1.3-8.7 11.54 11.54 0 0 1 8.26-4.78 21.82 21.82 0 0 1 5.22-.87c1.3-.43 3.48 0 5.22 0a23 23 0 0 1 5.65.43c2.61 0 4.78.87 7 1.3l3.48-19.13c-3-.43-5.65-1.3-8.26-1.74a47.91 47.91 0 0 0-7.83-.87h-7.83a43.08 43.08 0 0 0-7.83.87 32.86 32.86 0 0 0-13.48 4.35c-3.91 2.61-7.39 5.22-9.56 8.26a30.72 30.72 0 0 0-4.78 10.87 32.91 32.91 0 0 0 0 13c.87 4.35 2.17 8.69 4.78 11.74 3 3 5.22 5.65 8.26 7.39a43.53 43.53 0 0 0 9.13 4.35c3 .87 5.65 1.74 8.26 2.61a37.86 37.86 0 0 1 8.26 2.17c2.17 1.3 4.35 2.17 6.09 3a11.84 11.84 0 0 1 4.35 3.48 16.07 16.07 0 0 1 2.17 4.78v4.35a15.44 15.44 0 0 1-1.74 3.91c-.87 1.3-2.61 2.17-3.91 3a22.91 22.91 0 0 1-6.52 2.17 49.93 49.93 0 0 1-7.83.43 47.25 47.25 0 0 1-7.83-.43c-2.61 0-5.22-.87-7.83-1.3a50.55 50.55 0 0 1-7.83-1.74l3.91 20.87a54.66 54.66 0 0 0 14.35 2.17 89.9 89.9 0 0 0 15.22-1.3 62.22 62.22 0 0 0 15.22-5.22 39.84 39.84 0 0 0 10.36-8.15 25.29 25.29 0 0 0 5.22-10.87 32.91 32.91 0 0 0 0-13c-.83-4.39-2.14-7.87-1.7-8.74Zm50-53.47 27-2.61-1.74-18.69-77.39 8.7 2.17 18.69 27-2.61L585 553.3l23-2.61s-9.48-87.38-9.48-88.25Zm110.43 59.13-39.56 4.35-3-27.39 36.52-3.91-2.17-18.69-36.52 4.35-2.61-23.48 39.56-4.35-2.17-18.69-62.6 7 12.17 106.08 62.6-7Zm107.38-47.39c-.87-8.26-3-15.22-5.22-21.74a47.72 47.72 0 0 0-10.87-16.09 32 32 0 0 0-16.09-9.56 61.1 61.1 0 0 0-22.17-1.3c-8.26 1.3-15.65 3.48-21.3 6.52a38.84 38.84 0 0 0-13.91 12.61 48.46 48.46 0 0 0-7 18.26 77.8 77.8 0 0 0-.43 22.61 83 83 0 0 0 5.22 22.17 47.72 47.72 0 0 0 10.87 16.09 32 32 0 0 0 16.09 9.56c6.52 1.74 13.48 2.17 22.17 1.3 8.7-1.3 15.65-3 21.3-6.52a38.84 38.84 0 0 0 13.91-12.61 53.67 53.67 0 0 0 7-18.69 96.78 96.78 0 0 0 .43-22.61Zm-73.47 8.26a42 42 0 0 1 0-14.78 33.35 33.35 0 0 1 3-11.74 19.1 19.1 0 0 1 7-8.26c2.61-2.17 6.52-3 10.87-3.48a23.23 23.23 0 0 1 11.3 1.3 22.89 22.89 0 0 1 8.7 6.52 50.67 50.67 0 0 1 5.65 10.87 110 110 0 0 1 3 14.78 61 61 0 0 1 .43 15.22 33.35 33.35 0 0 1-3 11.74 20.53 20.53 0 0 1-7 7.83c-3 2.17-7 3-11.3 3.48a23.92 23.92 0 0 1-11.3-1.3c-3.91-1.74-6.09-3.91-8.7-6.52a50.67 50.67 0 0 1-5.65-10.87 68.12 68.12 0 0 1-3-14.78Zm90.86 31.74a13 13 0 1 0 13-13 13 13 0 0 0-13 12.99Z" style="fill:#fff"/>
</svg>
