<svg xmlns="http://www.w3.org/2000/svg" viewBox="0 0 1024 1024">
   <style>
      .st1{fill:#fff}
   </style>
   <g id="Icon">
      <circle cx="512" cy="512" r="512" style="fill:#a9d158"/>
      <g id="Logo">
         <path id="slash_1" class="st1" d="M213.3 486.3 185 596.7l-20.9 2.2 28.3-110.4 20.9-2.2z"/>
         <path id="slash_2" class="st1" d="m272 479.4-28.3 110.9-20.9 2.2 28.7-110.9c.1.8 20.5-2.2 20.5-2.2z"/>
         <path id="letter_P" class="st1" d="M356.8 504.2c.4 4.3.4 9.1-.4 13.5-.9 4.3-2.6 8.7-5.7 12.2-2.6 3.5-7 6.5-12.2 9.1-4.8 2.6-11.7 3.9-20 4.8l-5.2.4 3.9 37.4-23 2.6L282 478.5l30-3c7-.4 13-.4 18.3.4 4.8.9 9.6 2.6 13.5 5.2 3.5 2.6 6.5 5.7 8.7 9.6 2.1 3.5 3.4 8.3 4.3 13.5zm-45.7 21.7 4.3-.4c6.5-.4 11.3-2.6 14.3-5.2 2.6-2.6 3.9-7.4 3.5-12.6s-2.6-9.1-5.7-11.3c-3-2.2-8.3-2.6-14.3-2.2l-5.7.4 3.6 31.3z"/>
         <path id="letter_O" class="st1" d="M468.1 512c.9 8.3.4 15.7-.4 22.6-1.3 7-3.5 13-7 18.7-3.5 5.2-8.3 9.6-13.9 12.6-5.7 3.5-12.6 5.2-21.3 6.5-8.3.9-15.7.4-22.2-1.3-6.5-1.7-11.7-4.8-16.1-9.6-4.3-4.3-8.3-9.6-10.9-16.1-2.6-6.5-4.3-13.9-5.2-22.2s-.9-15.7.4-22.6c1.3-7 3.5-13 7-18.3s8.3-9.6 13.9-12.6c5.7-3 13-5.2 21.3-6.5 8.3-.9 15.7-.4 22.2 1.3 6.5 1.7 11.7 4.8 16.1 9.6 4.3 4.3 8.3 9.6 10.9 16.1 2.1 6.1 4.3 14 5.2 21.8zm-73.5 7.8c.4 5.7 1.7 10.4 3 14.8 1.3 4.3 3.5 7.8 5.7 10.9 2.6 2.6 4.8 4.8 8.7 6.5 3 1.3 7 1.7 11.3 1.3s8.3-1.3 11.3-3.5c2.6-1.7 5.2-4.3 7-7.8 1.7-3.5 2.6-7.4 3-11.7.4-4.3.4-9.6-.4-15.2-.4-5.7-1.7-10.4-3-14.8-1.7-4.3-3.5-7.8-5.7-10.9-2.2-2.6-4.8-4.8-8.7-6.5-3-1.3-7-1.7-11.3-1.3s-8.3 1.3-10.9 3.5c-2.6 1.7-5.2 4.3-7 8.3-1.7 3.5-2.6 7.4-3 11.7-1.3 4.3-.9 9.1 0 14.7z"/>
         <path id="letter_S" class="st1" d="M550.3 524.6c.9 4.3.9 9.1 0 13-.9 3.9-2.6 7.8-5.2 10.9-2.6 3-6.5 6.1-10.4 8.3-4.3 2.2-9.1 3.9-15.2 5.2-4.8.9-10.4 1.3-15.2 1.3-4.8 0-9.6-.9-14.3-2.2l-3.9-20.9c2.6.9 5.2 1.3 7.8 1.7 2.6.4 5.2 1.3 7.8 1.3 2.6.4 5.2.4 7.8.4 2.6 0 4.8 0 7.8-.4 2.6-.4 4.8-1.3 6.5-2.2 1.3-.9 3-1.7 3.9-3 .9-1.3 1.3-2.6 1.7-3.9v-4.3c-.4-1.7-1.3-3.5-2.2-4.8s-2.6-2.6-4.3-3.5c-1.7-.9-3.9-1.7-6.1-3-2.2-.9-5.2-1.7-8.3-2.2-2.6-.9-5.2-1.7-8.3-2.6-3-.9-6.1-2.6-9.1-4.3-3-1.7-5.2-4.3-8.3-7.4-2.6-3-3.9-7.4-4.8-11.7s-.9-9.1 0-13 2.6-7.8 4.8-10.9c2.2-3 5.7-5.7 9.6-8.3 3.9-2.2 8.3-3.9 13.5-4.3 2.6-.4 4.8-.9 7.8-.9h7.8c2.6 0 5.2.4 7.8.9 2.6.4 5.2 1.3 8.3 1.7l-3.5 19.1c-2.2-.4-4.3-1.3-7-1.3-1.7-.4-3.5-.4-5.7-.4-1.7 0-3.9-.4-5.2 0-1.7 0-3.5.4-5.2.9-3.5.4-6.5 2.2-8.3 4.8-1.7 2.6-2.2 5.2-1.3 8.7.4 1.7.9 3.5 1.7 4.3.9 1.3 2.2 2.2 3.5 3 1.7.9 3.5 1.7 5.7 2.6 2.2.9 5.2 1.7 8.7 2.6 3.9 1.3 7.8 2.6 11.3 3.5 3.5.9 7 3 9.6 5.2 2.6 1.7 4.8 4.3 6.5 7.4-.3.9 1 4.4 1.9 8.7z"/>
         <path id="letter_T" class="st1" d="m608.1 550.7-23 2.6-9.6-87.4-27 2.6-2.2-18.7 77.4-8.7 1.7 18.7-27 2.6c.1.9 9.7 88.3 9.7 88.3z"/>
         <path id="letter_E" class="st1" d="m711.1 539.8-62.6 7-12.2-106.1 62.6-7 2.2 18.7-39.6 4.3 2.6 23.5 36.5-4.3 2.2 18.7-36.5 3.9 3 27.4 39.6-4.3 2.2 18.2z"/>
         <path id="letter_O-2" class="st1" d="M816.3 474.2c.9 8.3.4 15.7-.4 22.6-1.3 7-3.5 13-7 18.7-3.5 5.2-8.3 9.6-13.9 12.6-5.7 3.5-12.6 5.2-21.3 6.5-8.7.9-15.7.4-22.2-1.3-6.5-1.7-11.7-4.8-16.1-9.6-4.3-4.3-8.3-9.6-10.9-16.1-2.6-6.5-4.3-13.9-5.2-22.2s-.9-15.7.4-22.6c1.3-7 3.5-13 7-18.3s8.3-9.6 13.9-12.6c5.7-3 13-5.2 21.3-6.5 8.3-.9 15.7-.4 22.2 1.3 6.5 1.7 11.7 4.8 16.1 9.6 4.3 4.3 8.3 9.6 10.9 16.1 2.2 6.6 4.4 13.5 5.2 21.8zm-73.4 8.2c.4 5.7 1.7 10.4 3 14.8 1.7 4.3 3.5 7.8 5.7 10.9 2.6 2.6 4.8 4.8 8.7 6.5 3.5 1.3 7 1.7 11.3 1.3 4.3-.4 8.3-1.3 11.3-3.5 2.6-1.7 5.2-4.3 7-7.8 1.7-3.5 2.6-7.4 3-11.7.4-4.3.4-9.6-.4-15.2-.9-5.7-1.7-10.4-3-14.8-1.7-4.3-3.5-7.8-5.7-10.9-2.2-2.6-4.8-4.8-8.7-6.5-3-1.3-7-1.7-11.3-1.3-4.3.4-8.3 1.3-10.9 3.5-2.6 1.7-5.2 4.3-7 8.3-1.7 3.5-2.6 7.4-3 11.7-.9 4.3-.9 9.1 0 14.7z"/>
         <circle id="dot" class="st1" cx="846.8" cy="514.2" r="13"/>
      </g>
   </g>
</svg>
