<svg xmlns="http://www.w3.org/2000/svg" viewBox="0 0 1024 1024">
   <circle cx="512" cy="512" r="512" style="fill:#2d8eff"/>
   <path d="M444.83 567.05h44.59a86.09 86.09 0 0 0 36.88-8.26 92.88 92.88 0 0 0 28.62-22 102.29 102.29 0 0 0 18.14-31.94 104 104 0 0 0 6.62-36.85 90.07 90.07 0 0 0-7.16-35.77 109.39 109.39 0 0 0-19.3-31.39A96.87 96.87 0 0 0 524 378.23a79.05 79.05 0 0 0-36.88-8.81H370V654h74.81Zm0-128.82h38a20.47 20.47 0 0 1 13.74 6.61c4.41 4.4 7.16 12.11 7.16 24.21s-2.75 19.28-6.61 23.13c-3.3 3.85-7.63 6.61-12.66 6.61h-39.63ZM283 309.3v405.4a26.29 26.29 0 0 0 26.27 26.3H714.7a26.29 26.29 0 0 0 26.3-26.27V309.3a26.29 26.29 0 0 0-26.27-26.3H309.3a26.29 26.29 0 0 0-26.3 26.27s0 .02 0 .03ZM660.74 687h-298a26.29 26.29 0 0 1-26.27-26.3v-298a26.29 26.29 0 0 1 26.27-26.27h298A26.29 26.29 0 0 1 687 362.71v298A26.29 26.29 0 0 1 660.77 687Zm-182.33-86.38H654v54H478.41Z" style="fill:#fff"/>
</svg>
