<?xml version="1.0" encoding="utf-8"?>
<!-- Generator: Adobe Illustrator 21.0.0, SVG Export Plug-In . SVG Version: 6.00 Build 0)  -->
<svg version="1.1" xmlns="http://www.w3.org/2000/svg" xmlns:xlink="http://www.w3.org/1999/xlink" x="0px" y="0px"
	 viewBox="0 0 1024 1024" style="enable-background:new 0 0 1024 1024;" xml:space="preserve">
<style type="text/css">
	.st0{fill:#00346D;}
	.st1{fill:#FFFFFF;}
</style>
<g id="Min_Guides__x28_DO_NOT_REMOVE_x29_">
</g>
<g id="Max_Guides__x28_DO_NOT_REMOVE_x29_">
</g>
<g id="Icon">
	<circle id="Background" class="st0" cx="512" cy="512" r="512"/>
	<path class="st1" d="M747.8,371.6l-6.1-0.1c-11.2-0.1-21.8,5-28.7,13.8l-86.1,110.4l-83.7-110.2c-6.8-8.9-17.3-14.2-28.5-14.2h-6.1
		l106.2,139.8l-108,138.5l6,0.1c11.2,0.1,21.8-5,28.7-13.8l85.2-109.2l84.8,111.6c6.8,8.9,17.3,14.1,28.5,14.1h6L638.7,511.4
		L747.8,371.6z M294.2,488.4c0-3.3-2.7-6-6-6h-46.5c-3.3,0-6,2.7-6,6v46.6c0,3.3,2.7,6,6,6h46.5c3.3,0,6-2.7,6-6V488.4z
		 M492.4,540.9H300.2c-3.3,0-6,2.7-6,6V646c0,3.3,2.7,6,6,6H354c3.3,0,6-2.7,6-6v-43.6c0-3.3,2.7-6,6-6h41.2
		c48.6,0,78.2-31.5,89.8-47.1C499.6,545.7,496.9,540.9,492.4,540.9L492.4,540.9z M300.2,482.4H354c3.3,0,6-2.7,6-6v-44.1
		c0-3.3,2.7-6,6-6h45.9c32.4,0,40.1,35.1,41.9,49.2c0.4,3.2,3.1,5.7,6.3,5.7h53.7c3.1,0.1,5.7-2.4,5.8-5.6c0-0.2,0-0.4,0-0.6
		c-4.4-45.8-38.4-103.7-90.9-103.7H300.2c-3.3,0-6,2.7-6,6v99.1C294.2,479.7,296.9,482.4,300.2,482.4L300.2,482.4z"/>
</g>
</svg>
