<svg xmlns="http://www.w3.org/2000/svg" viewBox="0 0 1024 1024">
   <circle cx="512" cy="512" r="512" style="fill:#00346d"/>
   <path d="m747.8 371.6-6.1-.1c-11.2-.1-21.8 5-28.7 13.8l-86.1 110.4-83.7-110.2c-6.8-8.9-17.3-14.2-28.5-14.2h-6.1l106.2 139.8-108 138.5 6 .1c11.2.1 21.8-5 28.7-13.8l85.2-109.2 84.8 111.6c6.8 8.9 17.3 14.1 28.5 14.1h6l-107.3-141 109.1-139.8zM294.2 488.4c0-3.3-2.7-6-6-6h-46.5c-3.3 0-6 2.7-6 6V535c0 3.3 2.7 6 6 6h46.5c3.3 0 6-2.7 6-6v-46.6zm198.2 52.5H300.2c-3.3 0-6 2.7-6 6V646c0 3.3 2.7 6 6 6H354c3.3 0 6-2.7 6-6v-43.6c0-3.3 2.7-6 6-6h41.2c48.6 0 78.2-31.5 89.8-47.1 2.6-3.6-.1-8.4-4.6-8.4zm-192.2-58.5H354c3.3 0 6-2.7 6-6v-44.1c0-3.3 2.7-6 6-6h45.9c32.4 0 40.1 35.1 41.9 49.2.4 3.2 3.1 5.7 6.3 5.7h53.7c3.1.1 5.7-2.4 5.8-5.6v-.6c-4.4-45.8-38.4-103.7-90.9-103.7H300.2c-3.3 0-6 2.7-6 6v99.1c0 3.3 2.7 6 6 6z" style="fill:#fff"/>
</svg>
