<svg xmlns="http://www.w3.org/2000/svg" viewBox="0 0 1024 1024" style="enable-background:new 0 0 1024 1024" xml:space="preserve">
   <style>
      .st0{fill:#4bb749}.st1{fill:#fff}
   </style>
   <g id="Icon">
      <circle class="st0" cx="512" cy="512" r="512"/>
      <g id="PIA_Redesign_for_aegis-icons">
         <path id="Outline" class="st1" d="M715.4 435.9H693v-20c0-99.4-81-179.9-181-179.9s-181 80.6-181 179.9v20h-22.4c-23.5 0-42.5 18.9-42.5 42.3v165.2c0 11 .7 19 5 24.8 4.5 5.8 12 7.9 23.2 7.9h36l5.5 87v1c0 2.3.3 7.6 3.2 12.7 2.9 5.1 8.9 9.7 18.7 9.6h91.5l47.5-50.4h35.5l45.9 52h82.1c7.1 0 13.5.1 19.2-3.4C685 781 688.3 774 690 762c2.4-17.5 2.9-65.5 4-85.8h36c11.1 0 18.3-1.1 23-6.1 4.5-5.1 5.1-12.5 5.2-23.4V478.2c-.2-23.3-19.3-42.2-42.8-42.3zm37.4 211c0 10.8-1.1 16.9-3.7 19.7-2.5 2.9-7.9 4.3-18.8 4.3h-41.4l-.1 2.7c-1 19.1-1.7 70.1-4.1 88-1.6 11.5-4.6 16.4-8.1 18.7-3.5 2.4-8.9 2.5-16.1 2.5H581l-46-52h-40.5l-47.6 50.4h-89.1c-8.1-.1-11.6-3.2-13.8-6.8-2.1-3.6-2.5-8.1-2.4-9.9v-1l-5.9-92.6h-41.3c-10.8 0-15.9-2-18.6-5.7-2.9-3.7-3.9-10.7-3.9-21.4V478.6c0-20.3 16.5-36.6 36.9-36.7h28.1v-25.7c.2-96.3 78.5-174.2 175.4-174.4 96.9.2 175.3 78.1 175.5 174.4v25.7h28.1c20.4 0 36.8 16.4 36.9 36.7v168.3z"/>
         <g id="Hands">
            <path id="Shape_7_" class="st1" d="M743.2 688v-3.1c-1.8.1-3.6.1-5.6.1h-36.1c-.5 8.9-.9 23.1-1.3 37.7h8.4c19.1 0 34.6-15.5 34.6-34.7z"/>
            <path id="Shape_9_" class="st1" d="M285.6 685.3c-2.7 0-5.2-.1-7.4-.4v3.1c0 19.2 15.4 34.7 34.4 34.7h11.3l-2.4-37.5-35.9.1z"/>
         </g>
         <path id="Legs_inner" class="st1" d="M679.2 699.2c.1-2.7.2-5.4.2-7.9H345.7l4.5 71.4v1.6c0 1.2.3 3.8 1.2 5.4.7 1.2 1.6 2.5 6.4 2.6h85.3l45-47.7 1.9-2c.4-.4 1-.7 1.6-.7h46.3c.6 0 1.2.3 1.6.7l1.9 2.2 43.4 49.1h76.9c2.3 0 8.4 0 10-1h.1l.1-.1c1.3-.8 3.1-4.6 4.2-12.6 1.6-11.8 2.4-39.1 3.1-61z"/>
         <path id="Waist" class="st1" d="M335.7 670.9v11.8h353.1v-11.8z"/>
         <path class="st1" d="M744.2 646.1V478.2c0-15.4-12.7-28-28.3-28h-28.1c-4.8 0-8.6-3.9-8.6-8.6v-25.7c-.1-44.3-17.5-85.8-48.9-117.1-31.5-31.3-73.4-48.5-117.9-48.6-44.6.1-86.5 17.3-117.9 48.6-31.5 31.3-48.8 72.9-48.9 117.1v25.7c0 4.8-3.9 8.6-8.6 8.6h-28.1c-15.6 0-28.3 12.6-28.3 28v165.2c0 12.5 1.6 15.5 2.1 16.1l.1.2c.4.5 2.3 2.2 11.7 2.2h39.1V459.7h10.2v202.2h337.3V459.7h10.2v202.2H731c9.2 0 11.6-1.2 12-1.4l.1-.1c.2-.3 1.5-2.9 1.4-13.7-.3-.2-.3-.4-.3-.6zm-465.8-2.6c0 1.5 0 2.8.1 4.1-.1-1.3-.1-2.7-.1-4.1zm.8 12.5c-.1-.7-.2-1.4-.3-2.3.1.9.2 1.7.3 2.3z" id="Upper__x26__middle_body"/>
         <path id="Head_inner" class="st0" d="M622.9 445.4v-32.5c0-61.3-49.8-111-111.2-111s-111.3 49.7-111.3 111v32.5h222.5z"/>
         <g id="Lock">
            <path id="Rectangle-path_2_" class="st0" d="M472.2 569.4h74.4v55.5h-74.4z"/>
            <path id="Shape_5_" class="st0" d="M483.7 563.5c3.4-11.7 13.8-20.2 26-20.2 12.3 0 22.7 8.5 26.1 20.2h8.8c-3.6-16.4-17.7-28.7-34.9-28.7s-31.3 12.4-34.9 28.7h8.9z"/>
         </g>
         <path id="Eyes__x26__mouth" class="st1" d="M465 411.5h99.2v11.8H465v-11.8zm30.7-49.2c0-11.4-9.2-20.6-20.6-20.6-11.4 0-20.6 9.2-20.6 20.6 0 11.4 9.2 20.6 20.6 20.6 11.4-.1 20.6-9.3 20.6-20.6zm52.5-20.6c-11.4 0-20.6 9.2-20.6 20.6 0 11.4 9.2 20.6 20.6 20.6 11.4 0 20.6-9.2 20.6-20.6 0-11.4-9.2-20.6-20.6-20.6z"/>
      </g>
   </g>
</svg>
