<?xml version="1.0" encoding="utf-8"?>
<!-- Generator: Adobe Illustrator 21.0.0, SVG Export Plug-In . SVG Version: 6.00 Build 0)  -->
<svg version="1.1" xmlns="http://www.w3.org/2000/svg" xmlns:xlink="http://www.w3.org/1999/xlink" x="0px" y="0px"
	 viewBox="0 0 1024 1024" style="enable-background:new 0 0 1024 1024;" xml:space="preserve">
<style type="text/css">
	.st0{fill:#4BB749;}
	.st1{fill:#FFFFFF;}
</style>
<g id="Guides">
</g>
<g id="Icon">
	<circle class="st0" cx="512" cy="512" r="512"/>
	<g id="PIA_Redesign_for_aegis-icons">
		<path id="Outline" class="st1" d="M715.4,435.9L715.4,435.9l-22.4,0v-20c0-99.4-81-179.9-181-179.9c-100,0-181,80.6-181,179.9v20
			h-22.4c-23.5,0-42.5,18.9-42.5,42.3v165.2c0,11,0.7,19,5,24.8c4.5,5.8,12,7.9,23.2,7.9h36l5.5,87c0,0.2,0,0.5,0,1
			c0,2.3,0.3,7.6,3.2,12.7c2.9,5.1,8.9,9.7,18.7,9.6h91.5l47.5-50.4h35.5l45.9,52h1.3c0,0,16.6,0,35.1,0c18.4,0,38.6,0,45.7,0h0
			c7.1,0,13.5,0.1,19.2-3.4c5.6-3.6,8.9-10.6,10.6-22.6c2.4-17.5,2.9-65.5,4-85.8h36c11.1,0,18.3-1.1,23-6.1
			c4.5-5.1,5.1-12.5,5.2-23.4V478.2C758,454.9,738.9,436,715.4,435.9z M752.8,646.9L752.8,646.9c0,10.8-1.1,16.9-3.7,19.7
			c-2.5,2.9-7.9,4.3-18.8,4.3h-41.4l-0.1,2.7c-1,19.1-1.7,70.1-4.1,88c-1.6,11.5-4.6,16.4-8.1,18.7c-3.5,2.4-8.9,2.5-16.1,2.5h0
			c-13.1,0-70.2,0-79.5,0l-46-52h-40.5l-47.6,50.4h-89.1c-8.1-0.1-11.6-3.2-13.8-6.8c-2.1-3.6-2.5-8.1-2.4-9.9c0-0.5,0-0.8,0-0.8
			l0-0.2l-5.9-92.6h-41.3c-10.8,0-15.9-2-18.6-5.7c-2.9-3.7-3.9-10.7-3.9-21.4V478.6c0-20.3,16.5-36.6,36.9-36.7h28.1v-25.7
			c0.2-96.3,78.5-174.2,175.4-174.4c96.9,0.2,175.3,78.1,175.5,174.4v25.7h28.1c20.4,0,36.8,16.4,36.9,36.7V646.9z"/>
		<g id="Hands">
			<path id="Shape_7_" class="st1" d="M743.2,688v-3.1c-1.8,0.1-3.6,0.1-5.6,0.1h-36.1c-0.5,8.9-0.9,23.1-1.3,37.7h8.4
				C727.7,722.7,743.2,707.2,743.2,688z"/>
			<path id="Shape_9_" class="st1" d="M285.6,685.3c-2.7,0-5.2-0.1-7.4-0.4v3.1c0,19.2,15.4,34.7,34.4,34.7h11.3l-2.4-37.5
				L285.6,685.3z"/>
		</g>
		<path id="Legs_inner" class="st1" d="M679.2,699.2c0.1-2.7,0.2-5.4,0.2-7.9H345.7l4.5,71.4l0,0.4c0,0.1,0,0.2,0,0.3l0,0.4l0,0.1
			c0,0.1,0,0.1,0,0.3c0,0,0,0.1,0,0.1c0,1.2,0.3,3.8,1.2,5.4c0.7,1.2,1.6,2.5,6.4,2.6l85.3,0l45-47.7l1.9-2c0.4-0.4,1-0.7,1.6-0.7
			h2.8H535h2.9c0.6,0,1.2,0.3,1.6,0.7l1.9,2.2l43.4,49.1h75.6l1.3,0c2.3,0,8.4,0,10-1l0.1,0l0.1-0.1c1.3-0.8,3.1-4.6,4.2-12.6
			C677.7,748.4,678.5,721.1,679.2,699.2z"/>
		<polygon id="Waist" class="st1" points="335.7,670.9 335.7,671.4 335.7,676 335.7,682.7 688.8,682.7 688.8,676 688.8,671.4 
			688.8,670.9 		"/>
		<g id="Upper__x26__middle_body">
			<path class="st1" d="M744.2,646.1V478.2c0-15.4-12.7-28-28.3-28h-28.1c-4.8,0-8.6-3.9-8.6-8.6v-25.7
				c-0.1-44.3-17.5-85.8-48.9-117.1c-31.5-31.3-73.4-48.5-117.9-48.6c-44.6,0.1-86.5,17.3-117.9,48.6
				c-31.5,31.3-48.8,72.9-48.9,117.1v25.7c0,4.8-3.9,8.6-8.6,8.6h-28.1c-15.6,0-28.3,12.6-28.3,28v165.2c0,12.5,1.6,15.5,2.1,16.1
				l0.1,0.2c0.4,0.5,2.3,2.2,11.7,2.2h39.1v-200v-2.2h2.2h5.8h2.2v2.2v200h337.3v-200v-2.2h2.2h5.8h2.2v2.2v200h39.3l0.4,0
				c9.2,0,11.6-1.2,12-1.4c0,0,0.1-0.1,0.1-0.1c0.2-0.3,1.5-2.9,1.4-13.7C744.2,646.5,744.2,646.3,744.2,646.1z"/>
			<path class="st1" d="M278.4,643.5c0,1.5,0,2.8,0.1,4.1C278.4,646.3,278.4,644.9,278.4,643.5L278.4,643.5z"/>
			<path class="st1" d="M279.2,656c-0.1-0.7-0.2-1.4-0.3-2.3C279,654.6,279.1,655.4,279.2,656z"/>
		</g>
		<path id="Head_inner" class="st0" d="M622.9,445.4v-32.5c0-61.3-49.8-111-111.2-111s-111.3,49.7-111.3,111v32.5H622.9z"/>
		<g id="Lock">
			<rect id="Rectangle-path_2_" x="472.2" y="569.4" class="st0" width="74.4" height="55.5"/>
			<path id="Shape_5_" class="st0" d="M483.7,563.5c3.4-11.7,13.8-20.2,26-20.2c12.3,0,22.7,8.5,26.1,20.2h8.8
				c-3.6-16.4-17.7-28.7-34.9-28.7c-17.2,0-31.3,12.4-34.9,28.7H483.7z"/>
		</g>
		<path id="Eyes__x26__mouth" class="st1" d="M465,411.5h99.2v11.8H465V411.5z M495.7,362.3c0-11.4-9.2-20.6-20.6-20.6
			c-11.4,0-20.6,9.2-20.6,20.6c0,11.4,9.2,20.6,20.6,20.6C486.5,382.8,495.7,373.6,495.7,362.3z M548.2,341.7
			c-11.4,0-20.6,9.2-20.6,20.6c0,11.4,9.2,20.6,20.6,20.6c11.4,0,20.6-9.2,20.6-20.6C568.8,350.9,559.6,341.7,548.2,341.7z"/>
	</g>
</g>
</svg>
