<svg xmlns="http://www.w3.org/2000/svg" viewBox="0 0 1024 1024">
   <circle cx="512" cy="512" r="512" style="fill:#56b14e"/>
   <path data-name="PIA logo (monochrome version by krisu)" d="M486.59 371c0-15.43-18.66-23.16-29.57-12.26s-3.19 29.58 12.24 29.58a17.32 17.32 0 0 0 17.32-17.33m68.18-17.31c-15.43 0-23.18 18.65-12.26 29.57s29.58 3.17 29.57-12.26a17.31 17.31 0 0 0-17.31-17.31m-18.66 45.89a36 36 0 0 1-48.17 0c-4.37-3.69-10.12 2.53-6.09 6.6a44 44 0 0 0 60.37 0 4.5 4.5 0 0 0-6.11-6.6m159.63 67v-.25a36.09 36.09 0 0 0-26.22-34.7v-30.91A152.73 152.73 0 0 0 516.79 248h-5.84a152.73 152.73 0 0 0-152.73 152.71v30.12A36.09 36.09 0 0 0 328.59 466a51.34 51.34 0 0 0-7.09 26v195.85a51.54 51.54 0 0 0 38.1 49.74A37.7 37.7 0 0 0 394.06 760h42.84a37.69 37.69 0 0 0 33.6-20.59h78.59A37.68 37.68 0 0 0 582.66 760h42.85a37.72 37.72 0 0 0 34-21.37 51.57 51.57 0 0 0 43-50.82V492.06a51.31 51.31 0 0 0-6.78-25.49zM559.55 656.36a23.1 23.1 0 0 1-22.84 26.46H487.3a23.12 23.12 0 0 1-22.85-26.44l9.55-64.56a58.61 58.61 0 0 1 31.4-102.87A58.62 58.62 0 0 1 550 591.83zm5.58-215.88h-106A35.88 35.88 0 0 0 434 430.24h-18v-32.06a95.65 95.65 0 0 1 95.62-95.64h4.67a95.65 95.65 0 0 1 95.62 95.64v32.06h-21.6a35.89 35.89 0 0 0-25.18 10.24zm-21.94 219a5.49 5.49 0 0 1-5.37 6.89h-51.33a5.48 5.48 0 0 1-5.36-6.91l9.87-71.23a8.49 8.49 0 0 0-.44-3.13 16 16 0 0 0-3.16-3.21c-.18-.15-.31-.26-.42-.36a42.24 42.24 0 1 1 50.43-.31c0 .07-.16.28-.65.68a16 16 0 0 0-3.16 3.21 5.22 5.22 0 0 0-.32 1.42z" style="fill:#fff"/>
</svg>
