<?xml version="1.0" encoding="utf-8"?>
<!-- Generator: Adobe Illustrator 21.0.0, SVG Export Plug-In . SVG Version: 6.00 Build 0)  -->
<svg version="1.1" xmlns="http://www.w3.org/2000/svg" xmlns:xlink="http://www.w3.org/1999/xlink" x="0px" y="0px"
	 viewBox="0 0 1024 1024" style="enable-background:new 0 0 1024 1024;" xml:space="preserve">
<style type="text/css">
	.st0{fill:#FFFFFF;}
</style>
<g id="Min_Guides__x28_DO_NOT_REMOVE_x29_">
</g>
<g id="Max_Guides__x28_DO_NOT_REMOVE_x29_">
</g>
<g id="Icon">
	<circle cx="512" cy="512" r="512"/>
	<path class="st0" d="M848.3,427.9v168.2H175.7V427.9H848.3z M678.5,468.3c-5.8,0-11.3,0.9-16.6,2.7c-5.2,1.8-10.1,4.5-14.4,8
		c-4.3,3.5-7.7,8.2-10.4,14.1c-2.6,5.9-3.9,12.5-3.9,19.9c0,7.1,1.3,13.4,3.9,19c2.6,5.6,6.1,10.1,10.5,13.5c4.4,3.4,9.3,6,14.5,7.7
		c5.3,1.8,10.8,2.6,16.6,2.6c8.8,0,17-1.8,24.4-5.4v-17.7c-5.1,4.7-12.4,7-21.7,7c-3.8,0-7.4-0.5-10.9-1.6c-3.4-1-6.6-2.7-9.5-4.8
		c-2.9-2.1-5.1-4.9-6.8-8.4c-1.7-3.5-2.5-7.5-2.5-12c0-9.5,2.9-16.6,8.7-21.5c5.8-4.9,12.8-7.3,21-7.3c8.3,0,15.4,2.2,21.1,6.6
		v-17.2C695.3,470.1,687.3,468.3,678.5,468.3L678.5,468.3z M266.3,470h-31.8v84.3h18.1v-27.7h13.7c24.2,0,36.4-9.4,36.4-28.3
		C302.7,479.4,290.5,470,266.3,470L266.3,470z M357.8,470h-34.7v84.3h18.1v-29.5h13.2l22.8,29.5H398l-25.2-31.8
		c12.3-3.9,18.4-12.3,18.4-25c0-5.1-0.9-9.5-2.8-13.2c-1.9-3.7-4.5-6.5-7.8-8.5c-3.3-2-6.9-3.5-10.6-4.3
		C366.3,470.4,362.2,470,357.8,470L357.8,470z M434.7,470h-18.1v84.3h18.1V470z M474.1,470h-19.5l32.7,84.3h18.5l32.9-84.3h-19.5
		l-22.6,63.1L474.1,470L474.1,470z M591.3,470h-19.5l-34.4,84.3H556l6.3-15.8h38.5l6.1,15.8h18.7L591.3,470L591.3,470z M736.3,470
		H716l33,54.4v29.9h17.9v-29.9l32.9-54.4h-20.3l-21.6,37.8L736.3,470L736.3,470z M581.5,486.7c0.4,2.2,1,4.4,1.8,6.6l11.8,30.2
		h-27.2l11.7-30.2C580.4,491.4,581,489.2,581.5,486.7z M267.2,485.9c11.4,0,17.1,4.1,17.1,12.4c0,8.3-5.7,12.4-17.1,12.4h-14.6
		v-24.8L267.2,485.9z M358.7,485.9c4.2,0,7.6,1,10.2,2.9c2.6,1.9,4,4.9,4,9c0,4-1.3,7-4,9c-2.7,2-6.1,3-10.2,3h-17.5v-23.8H358.7z"
		/>
</g>
</svg>
