<svg xmlns="http://www.w3.org/2000/svg" viewBox="0 0 1024 1024">
   <circle cx="512" cy="512" r="512" style="fill:#56b14e"/>
   <path d="M485.92 359.45c0-15.84-19.15-23.77-30.34-12.58s-3.28 30.36 12.56 30.36a17.78 17.78 0 0 0 17.78-17.78m70-17.76c-15.84 0-23.78 19.14-12.58 30.35s30.36 3.26 30.35-12.58a17.77 17.77 0 0 0-17.77-17.76m-19.16 47.14a36.91 36.91 0 0 1-49.43 0c-4.49-3.79-10.39 2.6-6.25 6.78a45.21 45.21 0 0 0 62 0 4.62 4.62 0 0 0-6.28-6.78m163.82 68.76v-.26a37 37 0 0 0-26.91-35.61V390a156.74 156.74 0 0 0-156.79-156.75h-6A156.74 156.74 0 0 0 354.18 390v30.91A37 37 0 0 0 323.77 457a52.68 52.68 0 0 0-7.27 26.69v200.98a52.9 52.9 0 0 0 39.1 51 38.69 38.69 0 0 0 35.37 23h44a38.67 38.67 0 0 0 34.48-21.13h80.65a38.67 38.67 0 0 0 34.45 21.13h44a38.71 38.71 0 0 0 34.84-21.93 52.92 52.92 0 0 0 44.17-52.15V483.74a52.65 52.65 0 0 0-7.01-26.15ZM538.09 575.24c0 .08-.16.28-.67.7a16.37 16.37 0 0 0-3.24 3.29 5.35 5.35 0 0 0-.33 1.45L544 655.57a5.63 5.63 0 0 1-5.51 7.07h-52.67a5.62 5.62 0 0 1-5.5-7.09l10.14-73.1a8.71 8.71 0 0 0-.46-3.21 16.39 16.39 0 0 0-3.24-3.29c-.19-.15-.32-.27-.43-.37a43.34 43.34 0 1 1 51.75-.32Zm76.42-154.93h-22.17a36.84 36.84 0 0 0-25.82 10.51H457.77A36.82 36.82 0 0 0 432 420.31h-18.55V387.4a98.16 98.16 0 0 1 98.13-98.15h4.79a98.16 98.16 0 0 1 98.13 98.15Z" style="fill:#fff"/>
</svg>
