<svg xmlns="http://www.w3.org/2000/svg" viewBox="0 0 1024 1024">
   <circle cx="512" cy="512" r="512" style="fill:#4231c8"/>
   <path d="M502.05 258.23a23.19 23.19 0 0 1 21.55.9q101.3 58.19 202.58 116.38c6.36 3.86 11.29 10.77 11.22 18.42q.14 117.31 0 234.64c.43 8.18-4.52 16.08-11.65 19.9Q628 704.57 530.38 760.74c-8.65 6.13-20.39 10.64-30.07 3.9l-196.64-113c-5.74-3.15-12-6.49-14.84-12.76-3.1-4.82-2.1-10.67-2.23-16.08V393.93c-.21-8 5.16-15.4 12.1-19 67.79-38.83 135.46-77.93 203.35-116.7zm2.18 26.47c-9.92 4.8-19.19 10.86-28.83 16.19q-77.4 44.46-154.74 88.92c-8.7 4.93-11.24 15.35-10.69 24.67-.53 65.08.19 130.13-.23 195.19-.21 7.24 1.13 15 6.28 20.43 4.39 4.58 10.45 7 15.78 10.3L499.95 737a23.21 23.21 0 0 0 23.88.09q89.34-51.41 178.72-102.71c7.37-4.11 11.69-12.68 11.42-21q-.06-102.26 0-204.5a23.67 23.67 0 0 0-12.34-20q-88.86-51-177.63-102.05c-5.82-3.78-13.3-3.98-19.77-2.13zm-2.69 66.3a22.94 22.94 0 0 1 23.39.6c39.31 23.2 79.18 45.48 118.19 69.16a4.63 4.63 0 0 1 2.24 3.46c.29 2.82-.59 5.73-3.48 6.92C603 454.18 564 477 525 499.95a22.51 22.51 0 0 1-23.32.71q-38.52-22.54-76.93-45.21c-2.16-1.37-4.74-1.25-7.19-1.07a1.76 1.76 0 0 0-1.31.73c-1.32 1.87-2.39 3.94-2.1 6.33-.08 45.66.06 91.3-.06 137 0 3.92-1.82 6.91-5.18 8.14a3.32 3.32 0 0 1-2.49-.08c-7.07-3.15-13.77-7.06-20.66-10.55a22.7 22.7 0 0 1-12.33-19.68q-.06-68.66 0-137.34a24 24 0 0 1 12-20.39q58.04-33.78 116.11-67.54zm0 41.27q-23.13 13.39-46.2 26.86c-2.51 1.19-4 3.45-5.21 5.86a1.75 1.75 0 0 0 .07 1.63 13.32 13.32 0 0 0 5.3 5.49q23.13 13.65 46.32 27.2a21.89 21.89 0 0 0 21.65.06c13.45-7.86 26.84-15.83 40.31-23.71 4.13-2.54 9.06-4.55 11.39-9.05a1.75 1.75 0 0 0 0-1.52c-1.15-2.5-2.66-4.85-5.29-6q-23-13.39-46-26.77a22.56 22.56 0 0 0-22.3-.01z" style="fill:#fff"/>
</svg>
