<svg xmlns="http://www.w3.org/2000/svg" viewBox="0 0 1024 1024" style="enable-background:new 0 0 1024 1024" xml:space="preserve">
   <circle cx="512" cy="512" r="512" style="fill:#4131c7"/>
   <path d="M502.1 258.2c6.7-3.3 15.1-2.9 21.6.9 67.5 38.8 135 77.6 202.6 116.4 6.4 3.9 11.3 10.8 11.2 18.4.1 78.2 0 156.4 0 234.6.4 8.2-4.5 16.1-11.6 19.9-65.2 37.4-130.3 74.8-195.4 112.3-8.6 6.1-20.4 10.6-30.1 3.9-65.5-37.7-131.1-75.3-196.6-113-5.7-3.2-12-6.5-14.8-12.8-3.1-4.8-2.1-10.7-2.2-16.1V393.8c-.2-8 5.2-15.4 12.1-19 67.6-38.7 135.3-77.8 203.2-116.6zm2.1 26.5c-9.9 4.8-19.2 10.9-28.8 16.2-51.6 29.6-103.2 59.2-154.7 88.9-8.7 4.9-11.2 15.3-10.7 24.7-.5 65.1.2 130.1-.2 195.2-.2 7.2 1.1 15 6.3 20.4 4.4 4.6 10.4 7 15.8 10.3C388 672.6 444 704.8 500 737c7.1 4.4 16.7 4.5 23.9.1 59.6-34.3 119.1-68.5 178.7-102.7 7.4-4.1 11.7-12.7 11.4-21V408.9c-.1-8.3-5.1-16.1-12.3-20-59.2-34-118.4-68-177.6-102.1-5.9-3.7-13.4-4-19.9-2.1zm-2.7 66.3c7.2-4.1 16.5-3.8 23.4.6 39.3 23.2 79.2 45.5 118.2 69.2 1.2.7 2.1 2 2.2 3.5.3 2.8-.6 5.7-3.5 6.9C603 454.2 564 477 525 499.9c-6.9 4.4-16.2 5-23.3.7-25.7-15-51.3-30.1-76.9-45.2-2.2-1.4-4.7-1.2-7.2-1.1-.5 0-1 .3-1.3.7-1.3 1.9-2.4 3.9-2.1 6.3-.1 45.7.1 91.3-.1 137 0 3.9-1.8 6.9-5.2 8.1-.8.3-1.7.3-2.5-.1-7.1-3.2-13.8-7.1-20.7-10.6-7.4-3.6-12.2-11.5-12.3-19.7V438.7c.1-8.3 4.7-16.3 12-20.4 38.7-22.3 77.4-44.8 116.1-67.3zm.1 41.3c-15.4 8.9-30.8 17.9-46.2 26.9-2.5 1.2-4 3.4-5.2 5.9-.2.5-.2 1.1.1 1.6 1.3 2.2 2.9 4.3 5.3 5.5 15.4 9.1 30.9 18.2 46.3 27.2 6.6 3.8 15 3.8 21.6.1 13.5-7.9 26.8-15.8 40.3-23.7 4.1-2.5 9.1-4.5 11.4-9.1.2-.5.2-1 0-1.5-1.2-2.5-2.7-4.9-5.3-6-15.3-8.9-30.7-17.8-46-26.8-6.8-4-15.5-4-22.3-.1z" style="fill:#fff"/>
</svg>
