<?xml version="1.0" encoding="utf-8"?>
<!-- Generator: Adobe Illustrator 21.0.0, SVG Export Plug-In . SVG Version: 6.00 Build 0)  -->
<svg version="1.1" xmlns="http://www.w3.org/2000/svg" xmlns:xlink="http://www.w3.org/1999/xlink" x="0px" y="0px"
	 viewBox="0 0 1024 1024" style="enable-background:new 0 0 1024 1024;" xml:space="preserve">
<style type="text/css">
	.st0{fill:#4131C7;}
	.st1{fill:#FFFFFF;}
</style>
<g id="Min_Guides__x28_DO_NOT_REMOVE_x29_">
</g>
<g id="Max_Guides__x28_DO_NOT_REMOVE_x29_">
</g>
<g id="Icon">
	<circle id="Background" class="st0" cx="512" cy="512" r="512"/>
	<path class="st1" d="M502.1,258.2c6.7-3.3,15.1-2.9,21.6,0.9c67.5,38.8,135,77.6,202.6,116.4c6.4,3.9,11.3,10.8,11.2,18.4
		c0.1,78.2,0,156.4,0,234.6c0.4,8.2-4.5,16.1-11.6,19.9c-65.2,37.4-130.3,74.8-195.4,112.3c-8.6,6.1-20.4,10.6-30.1,3.9
		c-65.5-37.7-131.1-75.3-196.6-113c-5.7-3.2-12-6.5-14.8-12.8c-3.1-4.8-2.1-10.7-2.2-16.1c0-76.3,0-152.6,0-228.9
		c-0.2-8,5.2-15.4,12.1-19C366.5,336.1,434.2,297,502.1,258.2z M504.2,284.7c-9.9,4.8-19.2,10.9-28.8,16.2
		c-51.6,29.6-103.2,59.2-154.7,88.9c-8.7,4.9-11.2,15.3-10.7,24.7c-0.5,65.1,0.2,130.1-0.2,195.2c-0.2,7.2,1.1,15,6.3,20.4
		c4.4,4.6,10.4,7,15.8,10.3c56.1,32.2,112.1,64.4,168.1,96.6c7.1,4.4,16.7,4.5,23.9,0.1c59.6-34.3,119.1-68.5,178.7-102.7
		c7.4-4.1,11.7-12.7,11.4-21c0-68.2,0-136.3,0-204.5c-0.1-8.3-5.1-16.1-12.3-20c-59.2-34-118.4-68-177.6-102.1
		C518.2,283.1,510.7,282.8,504.2,284.7z M501.5,351c7.2-4.1,16.5-3.8,23.4,0.6c39.3,23.2,79.2,45.5,118.2,69.2
		c1.2,0.7,2.1,2,2.2,3.5c0.3,2.8-0.6,5.7-3.5,6.9C603,454.2,564,477,525,499.9c-6.9,4.4-16.2,5-23.3,0.7
		c-25.7-15-51.3-30.1-76.9-45.2c-2.2-1.4-4.7-1.2-7.2-1.1c-0.5,0-1,0.3-1.3,0.7c-1.3,1.9-2.4,3.9-2.1,6.3
		c-0.1,45.7,0.1,91.3-0.1,137c0,3.9-1.8,6.9-5.2,8.1c-0.8,0.3-1.7,0.3-2.5-0.1c-7.1-3.2-13.8-7.1-20.7-10.6
		c-7.4-3.6-12.2-11.5-12.3-19.7c0-45.8,0-91.6,0-137.3c0.1-8.3,4.7-16.3,12-20.4C424.1,396,462.8,373.5,501.5,351z M501.6,392.3
		c-15.4,8.9-30.8,17.9-46.2,26.9c-2.5,1.2-4,3.4-5.2,5.9c-0.2,0.5-0.2,1.1,0.1,1.6c1.3,2.2,2.9,4.3,5.3,5.5
		c15.4,9.1,30.9,18.2,46.3,27.2c6.6,3.8,15,3.8,21.6,0.1c13.5-7.9,26.8-15.8,40.3-23.7c4.1-2.5,9.1-4.5,11.4-9.1
		c0.2-0.5,0.2-1,0-1.5c-1.2-2.5-2.7-4.9-5.3-6c-15.3-8.9-30.7-17.8-46-26.8C517.1,388.4,508.4,388.4,501.6,392.3z"/>
</g>
</svg>
