<svg xmlns="http://www.w3.org/2000/svg" viewBox="0 0 1024 1024">
   <circle cx="512" cy="512" r="512" style="fill:#56b366"/>
   <path d="M734.3 323.9c0-31.6-25.6-57.3-57.3-57.3-31.6 0-57.3 25.6-57.3 57.3v1.8l-249.5 80.6c-17.8-26.2-53.4-33-79.5-15.2-26.2 17.8-33 53.4-15.2 79.5 10.7 15.7 28.4 25.1 47.3 25.1 6-.1 11.9-1.1 17.5-3l163.9 207c-12.4 29.1 1.1 62.7 30.2 75.1 29.1 12.4 62.7-1.1 75.1-30.2 9.8-23 3.6-49.7-15.4-65.9L681.2 381c30.1-2.2 53.2-27.1 53.1-57.1zM557.2 663.6c-8.8.1-17.5 2.3-25.3 6.3L371.8 467.3c4.4-7.2 7.2-15.4 8.1-23.8l254.9-81.3c2.7 3 5.6 5.7 8.9 8.1l-86.1 293.4h-.4z" style="fill:#fff"/>
</svg>
