<?xml version="1.0" encoding="utf-8"?>
<!-- Generator: Adobe Illustrator 21.0.0, SVG Export Plug-In . SVG Version: 6.00 Build 0)  -->
<svg version="1.1" xmlns="http://www.w3.org/2000/svg" xmlns:xlink="http://www.w3.org/1999/xlink" x="0px" y="0px"
	 viewBox="0 0 1024 1024" style="enable-background:new 0 0 1024 1024;" xml:space="preserve">
<style type="text/css">
	.st0{fill:#8B89CC;}
	.st1{fill:#FFFFFF;}
</style>
<g id="Guides">
</g>
<g id="Icon">
	<circle class="st0" cx="512" cy="512" r="512"/>
	<path class="st1" d="M512,676.2c0,0-23.4-2.3-41.7-15c-18.3-12.7-140.4-100-140.4-100v172.8c0,0,1,20.1,23.1,20.1h317.9
		c22.1,0,23.1-20.1,23.1-20.1V561.1c0,0-122.1,87.3-140.4,100.1C535.4,673.8,512,676.2,512,676.2z M512,242
		c0,0-150.9-4.9-182.1,162.6v114.1c0,0,1.3,12.2,35.6,37c34.3,24.8,123.2,94.6,146.5,94.6c23.2,0,112.1-69.8,146.5-94.7
		c34.3-24.8,35.6-37.1,35.6-37.1V404.6C662.9,237.1,512,242.1,512,242L512,242z M615.4,466.8H408.7v-62.2
		c21-83.2,103.3-84.4,103.3-84.4s82.4,1.2,103.4,84.4V466.8z"/>
</g>
</svg>
