<?xml version="1.0" encoding="utf-8"?>
<!-- Generator: Adobe Illustrator 21.0.0, SVG Export Plug-In . SVG Version: 6.00 Build 0)  -->
<svg version="1.1" xmlns="http://www.w3.org/2000/svg" xmlns:xlink="http://www.w3.org/1999/xlink" x="0px" y="0px"
	 viewBox="0 0 1024 1024" style="enable-background:new 0 0 1024 1024;" xml:space="preserve">
<style type="text/css">
	.st0{fill:#56B366;}
	.st1{fill:#FFFFFF;}
</style>
<g id="Guides">
</g>
<g id="Icon">
	<circle class="st0" cx="512" cy="512" r="512"/>
	<path class="st1" d="M734.3,323.9c0-31.6-25.6-57.3-57.3-57.3c-31.6,0-57.3,25.6-57.3,57.3c0,0,0,0,0,1.8l-249.5,80.6
		c-17.8-26.2-53.4-33-79.5-15.2c-26.2,17.8-33,53.4-15.2,79.5c10.7,15.7,28.4,25.1,47.3,25.1c6-0.1,11.9-1.1,17.5-3l163.9,207
		c-12.4,29.1,1.1,62.7,30.2,75.1c29.1,12.4,62.7-1.1,75.1-30.2c9.8-23,3.6-49.7-15.4-65.9l87.1-297.7
		C711.3,378.8,734.4,353.9,734.3,323.9z M557.2,663.6c-8.8,0.1-17.5,2.3-25.3,6.3L371.8,467.3c4.4-7.2,7.2-15.4,8.1-23.8l254.9-81.3
		c2.7,3,5.6,5.7,8.9,8.1l-86.1,293.4H557.2z"/>
</g>
</svg>
