<svg viewBox="0 0 1024 1024" xmlns="http://www.w3.org/2000/svg">
   <circle cx="512" cy="512" r="512" style="fill:#6d4aff;"/>
   <path d="M346.2 639.02v138.25h96.951V645.05c0-12.833 5.069-25.235 14.235-34.294 9.059-9.059 21.461-14.235 34.294-14.235h99.323c46.372 0 90.804-18.441 123.59-51.225 32.784-32.784 51.225-77.323 51.225-123.7s-18.441-90.911-51.225-123.8-77.323-51.333-123.59-51.333h-244.8v172.76h96.951v-81.421h141.27c21.892 0 42.921 8.735 58.451 24.265a82.765 82.765 0 0 1 24.265 58.559c0 22-8.735 43.029-24.265 58.559-15.529 15.529-36.559 24.265-58.451 24.265h-102.67c-17.794 0-35.372 3.451-51.872 10.353-16.5 6.686-31.382 16.716-44 29.333-12.618 12.618-22.539 27.608-29.333 44-6.794 16.392-10.353 34.078-10.353 51.872z" style="fill:#fff;"/>
</svg>
