<?xml version="1.0" encoding="UTF-8" standalone="no"?>
<svg
   xmlns:dc="http://purl.org/dc/elements/1.1/"
   xmlns:cc="http://creativecommons.org/ns#"
   xmlns:rdf="http://www.w3.org/1999/02/22-rdf-syntax-ns#"
   xmlns:svg="http://www.w3.org/2000/svg"
   xmlns="http://www.w3.org/2000/svg"
   viewBox="0 0 1365.3333 1365.3333"
   height="1365.3333"
   width="1365.3333"
   xml:space="preserve"
   id="svg2"
   version="1.1"><metadata
     id="metadata8"><rdf:RDF><cc:Work
         rdf:about=""><dc:format>image/svg+xml</dc:format><dc:type
           rdf:resource="http://purl.org/dc/dcmitype/StillImage" /></cc:Work></rdf:RDF></metadata><defs
     id="defs6"><clipPath
       id="clipPath18"
       clipPathUnits="userSpaceOnUse"><path
         id="path16"
         d="M 0,1024 H 1024 V 0 H 0 Z" /></clipPath></defs><g
     transform="matrix(1.3333333,0,0,-1.3333333,0,1365.3333)"
     id="g10"><g
       id="g12"><g
         clip-path="url(#clipPath18)"
         id="g14"><g
           transform="translate(1024,512)"
           id="g20"><path
             id="path22"
             style="fill:#8c80c8;fill-opacity:1;fill-rule:nonzero;stroke:none"
             d="m 0,0 c 0,-282.77 -229.23,-512 -512,-512 -282.77,0 -512,229.23 -512,512 0,282.77 229.23,512 512,512 C -229.23,512 0,282.77 0,0" /></g><g
           transform="translate(615.3867,557.2046)"
           id="g24"><path
             id="path26"
             style="fill:#ffffff;fill-opacity:1;fill-rule:nonzero;stroke:none"
             d="m 0,0 h -206.731 v 62.168 c 20.993,83.205 103.344,84.357 103.344,84.357 0,0 82.415,-1.152 103.387,-84.357 z m -103.387,224.78 c 0,0 -150.941,4.949 -182.09,-162.612 V -51.971 c 0,0 1.281,-12.203 35.629,-37.015 34.285,-24.791 123.164,-94.639 146.504,-94.639 23.212,0 112.091,69.827 146.461,94.661 34.284,24.833 35.586,37.057 35.586,37.057 v 114.14 c -31.148,167.454 -182.09,162.504 -182.09,162.504 z m 0,-434.156 c 0,0 -23.383,2.303 -41.709,15.041 -18.347,12.714 -140.381,100.015 -140.381,100.015 v -172.766 c 0,0 1.025,-20.119 23.148,-20.119 H 55.555 c 22.102,0 23.148,20.097 23.148,20.097 v 172.81 c 0,0 -122.098,-87.301 -140.381,-100.059 -18.347,-12.694 -41.709,-15.019 -41.709,-15.019" /></g></g></g></g></svg>