<?xml version="1.0" encoding="utf-8"?>
<!-- Generator: Adobe Illustrator 21.0.0, SVG Export Plug-In . SVG Version: 6.00 Build 0)  -->
<svg version="1.1" xmlns="http://www.w3.org/2000/svg" xmlns:xlink="http://www.w3.org/1999/xlink" x="0px" y="0px"
	 viewBox="0 0 1024 1024" style="enable-background:new 0 0 1024 1024;" xml:space="preserve">
<style type="text/css">
	.st0{fill:#E57000;}
	.st1{fill:#FFFFFF;}
</style>
<g id="Min_Guides__x28_DO_NOT_REMOVE_x29_">
</g>
<g id="Max_Guides__x28_DO_NOT_REMOVE_x29_">
</g>
<g id="Icon">
	<circle id="Background" class="st0" cx="512" cy="512" r="512"/>
	<path class="st1" d="M512,497.8L342.7,311.6c6.6-6.6,14.2-11.7,22.9-15.5c8.7-3.8,18.1-5.7,28.1-5.7c10.7,0.1,20.4,2.2,29.3,6.3
		c8.9,4.1,16.6,9.8,23.1,17l65.8,71.9l65.4-71.9c6.8-7.2,14.7-12.9,23.6-17c9-4.1,18.7-6.2,29.2-6.3c10,0.1,19.4,2,28.1,5.7
		c8.7,3.8,16.4,8.9,22.9,15.5L512,497.8 M512,526.2L342.7,712.4c6.6,6.6,14.2,11.7,22.9,15.5c8.7,3.8,18.1,5.7,28.1,5.7
		c10.5-0.1,20.2-2.2,29.2-6.3c9-4.1,16.9-9.8,23.6-17l65.4-71.9l65.8,71.9c6.5,7.2,14.2,12.9,23.1,17c8.9,4.1,18.6,6.2,29.3,6.3
		c10-0.1,19.4-2,28.1-5.7c8.7-3.8,16.4-8.9,22.9-15.5L512,526.2 M497.8,512L497.8,512L370.3,372.2c-7.4-7.9-16-14.1-25.9-18.7
		c-9.8-4.5-20.5-6.8-31.9-6.9c-11,0.1-21.3,2.2-30.8,6.3c-9.6,4.1-17.9,9.8-25.1,16.9L385.9,512L256.5,654.2
		c7.2,7.4,15.6,13.2,25.1,17.4c9.6,4.2,19.8,6.3,30.8,6.3c11.5-0.1,22.2-2.4,32.1-6.9c9.9-4.5,18.5-10.8,25.7-18.7L497.8,512
		 M526.2,512l127.5,140.3c7.2,7.9,15.8,14.1,25.7,18.7c9.9,4.5,20.6,6.8,32.1,6.9c11-0.1,21.3-2.2,30.8-6.3
		c9.6-4.2,17.9-9.9,25.1-17.4L638.1,512l129.4-142.2c-7.2-7.2-15.6-12.8-25.1-16.9c-9.6-4.1-19.8-6.2-30.8-6.3
		c-11.4,0.1-22.1,2.4-31.9,6.9c-9.8,4.5-18.5,10.8-25.9,18.7L526.2,512L526.2,512"/>
</g>
</svg>
