<svg xmlns="http://www.w3.org/2000/svg" viewBox="0 0 1024 1024">
   <circle cx="512" cy="512" r="512" style="fill:#b26734"/>
   <path data-name="Pterodactyl logo (monochrome version by krisu)" d="M460.37 468.74c4.2 6.09 8.17 12.45 11.7 18.1 2.21 3.54 4.48 7.17 6.8 10.77H463a9.82 9.82 0 0 0-8.71 5.25c-13.06-.71-30.4-4.61-41.82-18.62a48.75 48.75 0 0 1-5.68-8.8c16.51-2.97 34.52-5.22 53.58-6.7Zm262.27 298.77s-24-47.54-45.39-44c-16.07 2.68-32.15 74.59-32.15 74.59S627.33 639.28 544 558.28l-4.77-2.37h9.18c273.55-26.6 108.94-76.7 108.94-76.7 53.5 5 74.67 39.72 74.67 39.72 23.82 54.79-15.92 99.51-23.21 128.88-7.81 31.19 13.83 119.7 13.83 119.7Zm-18-49.16q-.43-1.68-.86-3.45c-.58-2.35-1.16-4.8-1.73-7.31q-.43-1.89-.85-3.82c-1.11-5.15-2.16-10.51-3-15.84q-.32-2-.61-4t-.54-4q-.25-2-.45-3.91a113.81 113.81 0 0 1-.66-16.35q.07-1.66.22-3.23a33.78 33.78 0 0 1 2.52-10.74c3.87-8.47 7.29-16.17 10.3-23.2q1.13-2.63 2.18-5.14t2-4.9q1-2.39 1.89-4.66t1.75-4.43q1.68-4.32 3.1-8.22.71-2 1.36-3.81c1.95-5.56 3.49-10.48 4.68-14.89q.4-1.47.75-2.87t.65-2.72q.15-.66.29-1.31.28-1.3.51-2.53a67.61 67.61 0 0 0 .49-25.26s-.05-32.5-31.33-46.56c0 0 45.84 24.7-7.11 46.53v12.39l-5.8-10.12-1.65.58v21.57l-10.4-18.28c-22.33 6.44-55.2 12.37-102.75 17h-7.17l3.76 3.56c66.33 64.44 79.52 196.89 79.52 196.89s15.09-57.21 27.88-59.35c.29 0 .59-.08.88-.11h2.46l.43.06.37.06.44.09.36.08.44.12.36.1.46.14.35.11.48.18.33.12.51.22.29.12.65.31.15.07.8.42.2.11.61.34.28.17.52.32.31.21.48.32.33.23.46.32.34.25.45.33.35.27.44.34.35.28.44.36.34.29.43.37.35.31.42.38.34.32.42.39.34.33.41.4.34.33.41.41.33.34.41.43.33.34.41.43.32.35.41.44.32.35.4.45.31.36.4.46.3.35.4.47.29.35.4.48.28.34.4.49.27.34.4.5.25.32.41.54.23.29.44.58.19.25.49.65.13.17c.61.83 1.2 1.65 1.77 2.46l.07.1.48.69.14.2.4.58.18.26.35.51.18.27.32.48.19.28.3.46.18.28.29.45.17.27.28.43.17.27.26.41.17.26.25.4.15.24.24.39.15.24.22.36.15.24.2.33.14.23.2.33.12.2.18.31.12.2.17.28.11.18.16.27.09.15.14.25.09.15.13.22.07.12.11.19.07.12.1.17v.08l.12.21.08.15v.09s-2.8-9-6.09-21.91Zm-11.4-75.08c31.38-68.7 32-85 29.53-100.51v-.94a49.29 49.29 0 0 0-3.16-14.89c-3.53 7-11.36 13.31-23.37 18.76v31l-4.07-7.15-3.36-5.91v25l-4.07-7.15-7.07-12.42-8.1-14.24c-23.13 6.21-54.46 11.36-93.23 15.33 31.69 34.25 50.25 83.45 60.32 119.22 5.3 18.82 8.89 36.09 11.21 49.12q.75-2.14 1.5-4.16c10.58-28.71 18-33.4 23.34-34.29a17.51 17.51 0 0 1 2.87-.24c6.65 0 13.77 3.76 21.22 11.19-.63-2.72-1.23-5.39-1.77-8-6.2-28.78-6.78-48.9-1.84-59.71ZM378.9 799.09s-16.08-71.91-32.15-74.59c-21.43-3.57-45.39 44-45.39 44s21.64-88.54 13.87-119.7c-7.29-29.37-47-74.09-23.21-128.88 0 0 21.17-34.67 74.67-39.72 0 0-164.6 50.09 108.94 76.7h9.18l-4.81 2.34c-83.33 80.99-101.1 239.85-101.1 239.85Zm82.68-233.25h-7.17c-47.55-4.62-80.42-10.55-102.75-17l-10.4 18.28v-21.56l-1.65-.58-5.78 10.16v-12.39c-53-21.83-7.11-46.53-7.11-46.53-31.28 14.06-31.33 46.56-31.33 46.56a67.61 67.61 0 0 0 .49 25.26q.24 1.23.51 2.53.14.65.29 1.31.3 1.33.65 2.72t.75 2.87c1.2 4.41 2.74 9.33 4.68 14.89q.65 1.85 1.36 3.81 1.42 3.9 3.1 8.22.84 2.16 1.75 4.43t1.89 4.66q1 2.39 2 4.9t2.18 5.14c3 7 6.43 14.72 10.3 23.2a33.78 33.78 0 0 1 2.52 10.74q.15 1.57.22 3.23a113.81 113.81 0 0 1-.66 16.35q-.2 1.94-.45 3.91t-.54 4q-.29 2-.61 4c-.87 5.33-1.91 10.69-3 15.84q-.42 1.93-.85 3.82c-.57 2.51-1.15 5-1.73 7.31q-.43 1.76-.86 3.45c-3.28 12.92-6.23 22.16-6.23 22.16v-.09l.08-.15.12-.21V741l.1-.17.07-.12.11-.19.07-.12.13-.22.09-.15.14-.25.09-.15.16-.27.11-.18.17-.28.12-.2.18-.31.12-.2.2-.33.14-.23.2-.33.15-.24.22-.36.15-.24.24-.39.15-.24.25-.4.17-.26.26-.41.17-.27.28-.43.17-.27.29-.45.18-.28.3-.46.19-.28.32-.48.18-.27.35-.51.18-.26.4-.58.14-.2.48-.69.07-.1c.57-.81 1.16-1.63 1.77-2.46l.13-.17.48-.65.19-.25.44-.58.23-.29.41-.54.25-.32.4-.5.27-.34.4-.49.28-.34.4-.48.29-.35.4-.47.3-.35.4-.46.31-.36.4-.45.32-.35.41-.44.32-.35.41-.43.33-.34.41-.43.33-.34.41-.41.34-.33.41-.4.34-.33.42-.39.34-.32.42-.38.35-.31.43-.37.34-.29.44-.36.35-.28.44-.34.35-.27.45-.33.34-.25.46-.32.33-.23.48-.32.31-.21.52-.32.28-.17.61-.34.2-.11.8-.42.15-.07.65-.31.29-.12.51-.22.33-.12.48-.18.35-.11.46-.14.36-.1.44-.12.36-.08.44-.09.37-.06.43-.06h2.46c.29 0 .59.06.88.11 12.79 2.14 27.88 59.35 27.88 59.35s13.19-132.45 79.52-196.89Zm-115.15 4.23-7.07 12.42-4.07 7.15v-25l-3.36 5.91-4.07 7.15v-31c-12-5.45-19.84-11.74-23.37-18.76a49.26 49.26 0 0 0-3.16 14.9v.93c-2.51 15.52-1.86 31.81 29.53 100.51 4.94 10.81 4.37 30.93-1.71 59.79-.55 2.6-1.14 5.27-1.77 8 7.45-7.43 14.56-11.19 21.22-11.19a17.5 17.5 0 0 1 2.87.24c5.31.89 12.76 5.59 23.35 34.29q.74 2 1.5 4.16c2.32-13 5.91-30.3 11.21-49.12 10.07-35.78 28.63-85 60.32-119.22-38.77-4-70.11-9.12-93.23-15.33Zm78.18-155.8 8.73-.57a2.31 2.31 0 0 0 1.36-.56 2.31 2.31 0 0 1-1.36.56Zm10.24-106.69c5.44-16 14-31 20.07-46.92 6.3-16.31 11.71-32.93 17.52-49.38 10.7-30.25 23.07-60.55 43.44-85.36 1.44-1.75 4.64-5.28 7.57-5.67a3.4 3.4 0 0 1 1.89.26c2.19 1 2.4 6 2.9 8.06 1.43 5.81 2.68 11.67 3.88 17.53 2.39 11.74 4.52 23.54 7.36 35.18 6.6 27 17 52.89 26.7 78.9 5.16 13.76 10.33 27.91 14.79 42.31a57.24 57.24 0 0 0-32.59 2.94c-2.16.87-3.63 2.85-3 5.27.54 2 3.15 3.86 5.28 3a49.55 49.55 0 0 1 32.25-1.92 4.77 4.77 0 0 0 .87.16c1.47 5.2 2.84 10.42 4.06 15.67l.35 1.51.45-.3a.86.86 0 0 1 .42-.15l7.68-.5 3-.21-1.78-2 5.45-1 3.77 1.94 4.72 72.65-3.62 3.3-4.13.27v-1.89l-1.49.1-8.79.57a.87.87 0 0 1-.72-.4l-.85-1.29-.36 2.09c-.21 1.25-.43 2.5-.68 3.75-4 20.55-9.34 21-12.61 28.42l-.53 1.18c-1.66 5-3.53 9.89-5.56 14.73-.37 1.28-.78 2.74-1.24 4.41a32.79 32.79 0 0 1-5 9.24c-3.28 6.7-6.81 13.28-10.5 19.75-9.61 16.86-19.44 34.36-32.78 48.54-7.84 8.33-33.4-29.21-37.42-35.34-9.23-14-17.43-28.81-27.9-42-1.24-1.55-4.43-5-4.21-7.52l-.52-.55c-8.8-9.25-14.47-21.07-18.2-33.76l-.45-1.52-.49.42a.85.85 0 0 1-.51.21l-8.73.57-1.49.1.15 1.49v.42l-4.13.27-4-2.8-4.73-72.65 3.48-2.41 5.54.33-.06.32-.33 1.82 1.85-.12 7.25-.47.17-1.46a147.74 147.74 0 0 1 2.78-16.67 4.74 4.74 0 0 0 .7-.39c4.67-3.15 10.72-3.57 16.14-4.25 6.3-.77 12.61-1.14 18.78.5 5.33 1.42 7.62-6.85 2.28-8.27-7.31-1.95-14.76-1.63-22.2-.66a79.1 79.1 0 0 0-12.79 2.2c.31-.85.57-1.7.86-2.54Zm89.89 57.63c1.29 25.55 17.32 45.51 35.81 44.58 13.94-.7 25.29-13.08 29.49-30.08a62.77 62.77 0 0 0-2.42-37.16c-6.11-15.57-18.26-26-31.73-25.29-18.47.95-32.42 22.41-31.13 47.96Zm15.46 70.45c-1.71-.56-4 1.71-5.08 5.07s-.6 6.53 1.12 7.09 4-1.71 5.08-5.07.6-6.52-1.11-7.07ZM505.42 502s-12.95-13.55-32.88-34.45l26.12 41.13 8.9 7.85 11.18 9.77 11.1-11.22 21.31-33.46c-9.77 10.16-19.38 18.69-19.38 18.69l-13.32 12Zm-9.59-61.15a10.52 10.52 0 0 0-2.06-3.74q-.18-.2-.36-.37l-.34-.29h-.05l-.32-.22h-.08l-.29-.16h-.1l-.27-.1h-.84a1.59 1.59 0 0 0-.69.23l-.1.07-.21.17-.1.1-.19.22-.08.1a3.51 3.51 0 0 0-.39.84v.13c0 .12-.07.24-.1.37v.17c0 .13 0 .27-.06.41s0 .1 0 .16v.6a11.1 11.1 0 0 0 .58 3.58c1.1 3.36 3.37 5.62 5.08 5.07s2.07-4.01.97-7.36Zm-36.22-118.74c-12.71.64-23.28 11-28.22 25.7a62.07 62.07 0 0 0 3 45.68c6.52 13.24 17.67 21.77 29.9 21.16 18.49-.93 32.44-22.4 31.15-47.95s-17.34-45.52-35.83-44.59Zm15.19 193.95 1.78-.11h6.26a3.89 3.89 0 0 0 3.89-3.89v-4.61a3.89 3.89 0 0 0-3.89-3.89H463a3.89 3.89 0 0 0-3.89 3.89V509c-28.87 0-80.5-12.59-61.39-106.27l1.91-.12.25 3.8a1.89 1.89 0 0 0 2 1.76l2.86-.19.5 7.62 8.68 1.34-3.65-4.53-4.51-69.42 1.76-7.69.13-.08-.09-.69h.16l-1.58-45.88-.43.35.32-.29s-.88-6.56 12.25-10.28c3.23-.91 16-2.64 25.64-3.87l9.2-22.38c-15.61 2.63-38.94 7.29-47.18 12.73-12.76 8.43-8.43 18.39-5.79 28.85l1.75 40-1.61 5.78.56 8.55-2.86.19a1.89 1.89 0 0 0-1.76 2l2.3 35.37c-.82-1.52-2-1-2-1l-2.91-.76s-48.19 140.59 81.18 132.17Zm116.53-248.91c13.48 2 13.48 8.61 13.48 8.61l.13.09 4.13 45.56h.15v.69l.14.06 2.74 7.39 4.52 69.41-3 5 8.44-2.46-.49-7.59 2.85-.19a1.89 1.89 0 0 0 1.76-2l-3.65-56.13a1.89 1.89 0 0 0-2-1.76l-2.86.19-.56-8.57-2.35-5.52-3.28-41.11c1.32-10.28 3.55-20.17-9.65-26.61-7.28-3.55-22.88-5.37-36-6.3l7.8 20.79c7.67-.04 15.27.09 17.7.45ZM549 390.44a12.43 12.43 0 1 1 12.43 12.43A12.43 12.43 0 0 1 549 390.44Zm5 6.11a4.35 4.35 0 1 0 4.35-4.35 4.35 4.35 0 0 0-4.35 4.35ZM463.29 384a11.35 11.35 0 1 1-11.35 11.35A11.35 11.35 0 0 1 463.29 384Zm-1.88 16.66a4.35 4.35 0 1 0 4.35-4.35 4.35 4.35 0 0 0-4.35 4.38ZM680 494.62a185.6 185.6 0 0 0-24.39-9.71l-25.76-7.84a516 516 0 0 0-59.4-8.11c-2.84 5.69-6 11.5-9.5 17.72l-.75 1.32c-9.53 16.73-19.39 34-32.86 48.35a9.59 9.59 0 0 1-7.15 3.08c-4.24 0-10.82-2.09-24.25-18.37a140.24 140.24 0 0 1-4-5.06 9.86 9.86 0 0 1-9 5.91h-6.08l-1.58.1c-3.82.25-7.6.38-11.21.38-32.44 0-56.06-10-70.21-29.86a70.07 70.07 0 0 1-7-12.25l-18.37 5.59a185.84 185.84 0 0 0-24.31 9.68c-15.69 7.74-20.9 14.29-20.55 17.84.2 2 2.94 9.14 29.82 17.4 25.88 8 67.11 14.72 122.54 20.13h34.25l-8.36 4.08-14.41 7.17-3.93 2c-16.74 16.42-32.12 37.61-45.7 63 .44 4.07 1.09 8.22 1.93 12.35 2.08 10.11 3.95 20.09 5.76 29.74 3.21 17.13 6.26 33.35 10 47.86l.21.84 1.49 5.79c-12.18 2.12-22.95 32.63-22.95 56.54 0 18.8 7.6 36.67 16.82 44.2l-3.1 9.01-19.68 27.81a45.11 45.11 0 0 1 18.23-9.55c-2.18 4.26-4.52 10.28-2.76 14l9.53-9.51 6.25-5.29c8 1.05 16.8 5.14 25.62 14.8l-11.6-28.87-1.45-15.29c5.41-6.92 9.46-18.8 14.43-33.38a38.85 38.85 0 0 0 1.93-13l5.93 2.17a52.51 52.51 0 0 0 19 3.3 47.22 47.22 0 0 0 19.78-4l5.75-2.51a43.8 43.8 0 0 0 1.64 9.54c4.12 13.9 6.84 25.57 10.93 32.87l-1.6 16.87-11.6 28.89c8-8.76 16-12.94 23.37-14.43l6.35 5.37 9.53 9.51c1.91-4.05-1-10.77-3.3-15a44.69 44.69 0 0 1 20.92 10.11l-19.72-27.81-3.12-9.1c9.22-7.53 16.83-25.4 16.83-44.21 0-21.56-8.76-48.5-19.41-55.14l1.6-5.91 3-11.18-.15.05c2.64-10.79 5.05-22.21 7.56-34.1C584.36 658.48 587 646 590 633.6c-14.52-28.68-31.19-52.35-49.55-70.36l-3.93-2-14.41-7.17-8.28-4.07h34.25c55.43-5.4 96.66-12.17 122.54-20.12 26.88-8.26 29.62-15.41 29.82-17.4.35-3.59-4.84-10.13-20.44-17.86Z" style="fill:#fff"/>
</svg>
