<?xml version="1.0" encoding="utf-8"?>
<!-- Generator: Adobe Illustrator 21.0.0, SVG Export Plug-In . SVG Version: 6.00 Build 0)  -->
<svg version="1.1" xmlns="http://www.w3.org/2000/svg" xmlns:xlink="http://www.w3.org/1999/xlink" x="0px" y="0px"
	 viewBox="0 0 1024 1024" style="enable-background:new 0 0 1024 1024;" xml:space="preserve">
<style type="text/css">
	.st0{fill:#249DF1;}
	.st1{fill:#FFFFFF;}
</style>
<g id="Guides">
</g>
<g id="Icon">
	<circle class="st0" cx="512" cy="512" r="512"/>
	<path class="st1" d="M495.6,319.4l104-13.7L498.3,534.3l0,0c17.8-1.4,35.2-7.4,52.3-18.1l0,0l0,0c17.1-10.7,32.9-24.2,47.2-40.4
		l0,0l0,0c14.4-16.2,26.8-34.2,37.3-54.1l0,0l0,0c10.5-19.8,18-39.4,22.6-58.5l0,0l0,0c2.7-11.9,4-23.3,3.8-34.2l0,0l0,0
		c-0.2-10.9-3.1-20.5-8.6-28.7l0,0l0,0c-5.5-8.2-13.8-14.8-25-19.8l0,0l0,0c-11.2-5-26.3-7.5-45.5-7.5l0,0l0,0
		c-22.4,0-44.4,3.6-66,10.9l0,0l0,0c-21.7,7.3-41.7,17.9-60.2,31.8l0,0l0,0c-18.5,13.9-34.5,31.2-48.2,52l0,0l0,0
		c-13.7,20.8-23.5,44.4-29.4,70.8l0,0l0,0c-2.3,8.7-3.6,15.6-4.1,20.9l0,0l0,0c-0.5,5.3-0.6,9.6-0.3,13l0,0l0,0
		c0.2,3.4,0.7,6.1,1.4,7.9l0,0l0,0c0.7,1.8,1.3,3.6,1.7,5.5l0,0l0,0c-23.3,0-40.3-4.7-51-14l0,0l0,0c-10.7-9.3-13.3-25.7-7.9-48.9
		l0,0l0,0c5.5-24.2,17.9-47.2,37.3-69.1l0,0l0,0c19.4-21.9,42.4-41.2,69.1-57.8l0,0l0,0c26.7-16.6,55.9-29.9,87.6-39.7l0,0l0,0
		c31.7-9.8,62.6-14.7,92.7-14.7l0,0l0,0c26.5,0,48.7,3.8,66.7,11.3l0,0l0,0c18,7.5,32.1,17.5,42.1,29.8l0,0l0,0
		c10,12.3,16.3,26.7,18.8,43.1l0,0l0,0c2.5,16.4,1.7,33.5-2.4,51.3l0,0l0,0c-5,21.4-14.5,43-28.4,64.7l0,0l0,0
		c-13.9,21.7-31.4,41.3-52.3,58.8l0,0l0,0c-21,17.6-45,31.8-72.2,42.8l0,0l0,0c-27.1,10.9-56,16.4-86.6,16.4l0,0h-3.4l-86.9,195
		h-98.5L495.6,319.4z"/>
</g>
</svg>
