<?xml version="1.0" encoding="utf-8"?>
<!-- Generator: Adobe Illustrator 21.0.0, SVG Export Plug-In . SVG Version: 6.00 Build 0)  -->
<svg version="1.1" xmlns="http://www.w3.org/2000/svg" xmlns:xlink="http://www.w3.org/1999/xlink" x="0px" y="0px"
	 viewBox="0 0 1024 1024" style="enable-background:new 0 0 1024 1024;" xml:space="preserve">
<style type="text/css">
	.st0{fill:#3776AB;}
	.st1{fill:#FFFFFF;}
</style>
<g id="Min_Guides__x28_DO_NOT_REMOVE_x29_">
</g>
<g id="Max_Guides__x28_DO_NOT_REMOVE_x29_">
</g>
<g id="Icon">
	<circle id="Background" class="st0" cx="512" cy="512" r="512"/>
	<path id="Logo" transform="translate(428.42338,184.2561)" class="st1" d="M81.7,73.2c-129.9,0-121.8,56.3-121.8,56.3l0.1,58.4H84
		v17.5H-89.2c0,0-83.1-9.4-83.1,121.7c0,131.1,72.6,126.4,72.6,126.4h43.3v-60.8c0,0-2.3-72.6,71.4-72.6s123,0,123,0
		s69.1,1.1,69.1-66.8s0-112.2,0-112.2S217.5,73.2,81.7,73.2z M13.4,112.5c12.3,0,22.3,10,22.3,22.3s-10,22.3-22.3,22.3
		s-22.3-10-22.3-22.3S1,112.5,13.4,112.5z M85.4,582.3c129.9,0,121.8-56.3,121.8-56.3l-0.1-58.4h-124v-17.5h173.2
		c0,0,83.1,9.4,83.1-121.7c0-131.1-72.6-126.4-72.6-126.4h-43.3v60.8c0,0,2.3,72.6-71.4,72.6c-73.7,0-123,0-123,0
		s-69.1-1.1-69.1,66.8s0,112.2,0,112.2S-50.3,582.3,85.4,582.3z M153.8,543c-12.3,0-22.3-10-22.3-22.3c0-12.3,10-22.3,22.3-22.3
		s22.3,10,22.3,22.3C176.1,533.1,166.1,543,153.8,543z"/>
</g>
</svg>
