<svg xmlns="http://www.w3.org/2000/svg" viewBox="0 0 1024 1024">
   <circle cx="512" cy="512" r="512" style="fill:#3776ab"/>
   <path d="M510.16 257.46c-129.91 0-121.8 56.34-121.8 56.34l.14 58.37h124v17.52H339.26s-83.13-9.43-83.13 121.66 72.56 126.44 72.56 126.44H372V577s-2.33-72.56 71.4-72.56h123s69.08 1.12 69.08-66.77V325.38s10.44-67.92-125.32-67.92Zm-68.36 39.25a22.3 22.3 0 1 1-22.3 22.3 22.28 22.28 0 0 1 22.3-22.3Zm72 469.84c129.91 0 121.8-56.34 121.8-56.34l-.14-58.37h-124v-17.53h173.28s83.13 9.43 83.13-121.66-72.56-126.44-72.56-126.44H652V447s2.33 72.56-71.4 72.56h-123s-69.08-1.12-69.08 66.77v112.29s-10.44 67.92 125.32 67.92Zm68.36-39.25a22.3 22.3 0 1 1 22.3-22.3 22.28 22.28 0 0 1-22.26 22.29Z" style="fill:#fff"/>
</svg>
