<?xml version="1.0" encoding="utf-8"?>
<!-- Generator: Adobe Illustrator 21.0.0, SVG Export Plug-In . SVG Version: 6.00 Build 0)  -->
<svg version="1.1" xmlns="http://www.w3.org/2000/svg" xmlns:xlink="http://www.w3.org/1999/xlink" x="0px" y="0px"
	 viewBox="0 0 1024 1024" style="enable-background:new 0 0 1024 1024;" xml:space="preserve">
<style type="text/css">
	.st0{fill:#1B4164;}
	.st1{fill:#FFFFFF;}
</style>
<g id="Min_Guides__x28_DO_NOT_REMOVE_x29_">
</g>
<g id="Max_Guides__x28_DO_NOT_REMOVE_x29_">
</g>
<g id="Icon">
	<circle id="Background" class="st0" cx="512" cy="512" r="512"/>
	<path class="st1" d="M338.3,299.3c13.3-3.7,27.9-2.3,40.1,4c13.2,6.6,23.5,18.7,28,32.8c17.5,0.2,34.9,0,52.4,0.2
		c4.5-13.6,14.3-25.4,27.1-31.9c11.7-6.2,25.7-7.9,38.6-5c12,2.7,23,9.5,30.8,19.1c4.3,5.3,7.7,11.5,9.8,18
		c17.3,0.2,34.6,0,51.9,0.1c5.4-17.1,19.5-31,36.7-36.2c13-4,27.5-3.1,39.9,2.6c14.9,6.8,26.5,20.4,30.6,36.3
		c3.5,12.8,2.2,26.7-3.5,38.6c-6.3,13.5-18.3,24.1-32.4,28.9c-0.3,17.4-0.4,34.8-0.4,52.2c16.5,5.4,30,18.9,35.4,35.4
		c4.2,12.8,3.7,27.1-1.6,39.5c-6.1,14.7-18.8,26.4-34,31.3c-0.1,17.5,0.1,34.9,0.1,52.4c16.8,5.3,30.7,18.9,36.1,35.7
		c5.9,17.6,2.3,38-9.4,52.5c-5.1,6.4-11.6,11.7-18.9,15.3c-12,6-26.3,7.4-39.3,3.9c-15.4-4-28.8-15-35.8-29.3
		c-6.2-12.4-7.4-27-3.6-40.3c5-17.8,19.4-32.5,37.1-37.9c0.2-17.2,0.4-34.4,0.5-51.5c-17.1-4.9-31.3-18.4-37.1-35.2
		c-17.6,0.4-35.1,1.1-52.6,2c-6.2,16.6-20.8,29.7-38,34.1c-12.6,3.3-26.5,2.1-38.3-3.6c-15.5-7.3-27.2-22.1-30.7-38.9
		c-3-13.8-0.5-28.8,6.9-40.9c6.9-11.3,17.9-20,30.6-24.1c0.1-17.4-0.1-34.8-0.2-52.2c-17.2-5.2-31.2-19.3-36.5-36.5
		c-17.4,0.1-34.8-0.1-52.3-0.1c-4.2,13.4-13.8,24.9-26.1,31.6c-11.7,6.5-25.7,8.5-38.7,5.7c-11.2-2.3-21.6-8.3-29.4-16.7
		c-9.5-10.1-15-23.9-15-37.9c-0.1-12.2,4-24.4,11.4-34.1C316,309.7,326.6,302.5,338.3,299.3z M565.3,370.9
		c-5.3,16.9-19.1,30.8-36,36.1c0,17.4,0,34.8,0.1,52.2c10.2,3.2,19.5,9.4,26.3,17.6c5.4,6.5,9.3,14.4,11.2,22.6
		c16.4-0.4,32.8-1.1,49.3-2c2.6-9.6,7.7-18.5,14.8-25.4c6.8-6.7,15.3-11.5,24.5-14.1c0.3-16.8,0.1-33.5,0-50.3
		c-17.9-4.8-32.9-19.1-38.5-36.8C599.7,371,582.5,370.8,565.3,370.9z M309.4,477.8c-8.4,10.8-12.6,24.8-11.5,38.5
		c1,13.2,6.8,26,16.3,35.3c9.2,9.3,21.7,15.1,34.7,16.2c11.3,1,22.8-1.5,32.6-7.1c11.6-6.6,20.7-17.4,25.1-30
		c4.4-12.5,4.2-26.6-0.6-38.9c-5.2-13.5-15.8-24.7-28.9-30.7c-9.9-4.5-21.1-6.1-31.9-4.5C331.2,458.7,318.1,466.5,309.4,477.8z
		 M307,639.4c-7.2,10.9-10.4,24.4-8.8,37.4c1.9,16.8,11.9,32.4,26.4,41.1c11,6.8,24.5,9.5,37.3,7.6c16.2-2.2,31-12.1,39.6-26
		c7.2-11.5,9.8-25.7,7.5-39.1c-2.7-16.2-13-30.8-27.2-38.9c-10.3-5.9-22.5-8.4-34.3-7.1C331.1,616.4,315.9,625.7,307,639.4z
		 M467.1,636.7c-7.7,10.3-11.7,23.3-11,36.2c0.4,8.6,2.8,17,7,24.5c5.6,10,14.2,18.2,24.5,23.2c9.9,4.8,21.1,6.5,32,5.1
		c16.9-2.2,32.5-12.7,40.9-27.5c6.8-11.6,9-25.7,6.4-38.9c-3.2-16.6-14.4-31.4-29.5-39c-10.5-5.4-22.7-7.2-34.4-5.4
		C488.8,617.2,475.7,625.2,467.1,636.7z"/>
</g>
</svg>
