<svg xmlns="http://www.w3.org/2000/svg" viewBox="0 0 1024 1024">
   <circle cx="512" cy="512" r="512" style="fill:#757575"/>
   <path d="M677.93 571.16h-45.16v-31.42h-63.82v31.42h-45.17v-92.79a23.75 23.75 0 0 1 8.84-19.15c5.89-4.42 14.24-6.38 25-6.38h86.4c10.8 0 19.15 2.45 25 6.87s8.84 10.8 8.84 19.15Zm-45.16-53v-34.39h-63.82v34.36Zm207.66-59.4c-4.42-3.44-11.78-5.4-21.11-5.89h-85.91c-10.8 0-19.15 2.45-25 6.87a21.89 21.89 0 0 0-8.84 18.16v93.78h45.13v-30.96h73.15c20.13 0 29.95-7.85 29.95-24.06v-38.29c-.01-9.37-2.46-15.71-7.37-19.63Zm-38.78 55.47h-57.44v-30.46h57.44Zm-334.81-61.39H460v68.73c-.49.49-1 1.47-2.45 1a1.74 1.74 0 0 1-1.47-1c-7.36-11.29-36.82-52-46.15-64.8l-.49-.49a14.78 14.78 0 0 0-9.82-3.44h-36.86c-4.42 0-8.35 1.47-10.8 3.93a14.06 14.06 0 0 0-3.96 10.31v104.57h42.71s0-55-.49-71.18c0-1 1-2.45 4.42-2.45 0 0 1.47 0 2 1C405 512.25 459 571.65 459 571.65h44.67V452.84Zm-193.43 90.82c-.49-.49-1.47-1-2-1.47h-47.58v-62.35h63.33v53c19.15 5.89 31.91 13.75 40.75 20.62a37.48 37.48 0 0 0 2.45-13.25v-57.42c0-19.64-11.78-30.44-34.86-31.42h-80c-26 0-39.27 10.31-39.27 31.42v57.93c0 21.11 13.25 31.42 39.27 31.42h76.09a80.57 80.57 0 0 0 11.29-1c-6.39-9.31-18.18-19.14-29.47-27.48Zm-14.73-14.24c14.24 8.84 40.26 27 48.6 43.2h32.4c-5.39-9.81-24.05-33.86-81-43.19Z" style="fill:#fff"/>
</svg>
