<svg xmlns="http://www.w3.org/2000/svg" viewBox="0 0 1024 1024">
   <circle cx="512" cy="512" r="512" style="fill:#3ea448"/>
   <path d="M416 500.68c44.7-82.31 103.58-144.62 157.08-173.54l-53.73-84.6c-4.23-6.63-11-6.63-15 0L210.36 706c-4.23 6.63-.69 8.57 7 8.57h140.25c-2.17-59.91 15.78-135.82 58.42-213.9M591.4 379.84c-28.81-15.78-91 42.64-138.9 130.56s-63.22 171.83-34.41 187.72c20.92 11.32 56.13-18.52 93.75-67.57V518.29c0-11.66 7.32-18.06 12.8-7.89L556 569.62c.46-.69.69-1.26 1.14-1.94 47.9-87.91 63.22-171.94 34.3-187.83M813.64 706 695 518.86a557.53 557.53 0 0 1-45.62 109.41 614.12 614.12 0 0 1-33.5 54.3l22.41 32h168.4c7.66 0 11.2-1.94 7-8.57" style="fill:#fff"/>
</svg>
