<svg xmlns="http://www.w3.org/2000/svg" viewBox="0 0 1024 1024" style="enable-background:new 0 0 1024 1024" xml:space="preserve">
   <circle cx="512" cy="512" r="512" style="fill:#e91d25"/>
   <path d="m396.1 560.2 9.8-51.6 20.2 51.6h30.6l-20.9-52 38-44.4h-31.1L406 507.7l14.2-74.6H392l-24.2 127.1h28.3zm-228.4-75 4.1-21.4h-25.1L128 561.9h28.5l7.7-40.4c4.5-23.8 18.2-33.4 37.7-30.4l5.6-29.3c-17.6-1.6-33.2 8.4-39.8 23.4zm435.6 15.5c0-4.5-1.1-15.5-11.5-15.5-10.6 0-19.6 12.1-23 30.4-1.2 6.3-4.5 25.1 8.6 25.1 15 0 25.9-21.2 25.9-40zm29.7-2.1c0 23.3-11.2 47.3-31.4 58.1-7.4 4-14.5 5.6-20.7 5.7-10.1 0-15.8-3.8-19-9.6l-7.2 38.2h-28.5l24.2-127.1h25.1l-2.9 15.4c7.1-10.3 17.6-17.2 29.5-17.2 18.6-.1 30.9 14.2 30.9 36.5zm-371.7-4.5c-.3-6.8-3.9-10.4-10.2-10.4-13.4 0-25 23.1-25 39.2 0 10 3.7 16.3 10.2 16.3 10.4 0 19.3-10.8 22.4-26.7 1-5.4 2.8-14.2 2.6-18.4zm26.2 12.3-10.3 53.7H250l3.5-18.5c-3.8 11.5-13.1 20.7-28.7 20.7-18.9 0-27.5-16.8-27.5-33.6 0-19.1 7.5-38 20.1-50.6 10.5-10.5 24.1-16.1 39.3-16.1 11.6 0 20.1 3.4 25.5 9.9 7.9 9.6 7.2 24.1 5.3 34.5zm411.3-12.3c-.3-6.8-3.9-10.4-10.2-10.4-13.4 0-25 23.1-25 39.2 0 10 3.7 16.3 10.2 16.3 10.4 0 19.3-10.8 22.4-26.7 1-5.4 2.8-14.2 2.6-18.4zm26.2 12.3-10.3 53.7h-27.2l3.5-18.5c-3.8 11.5-13.1 20.7-28.7 20.7-18.9 0-27.5-16.8-27.5-33.6 0-19.1 7.5-38 20.1-50.6 10.5-10.5 24.1-16.1 39.3-16.1 11.6 0 20.1 3.4 25.5 9.9 7.9 9.6 7.3 24.1 5.3 34.5zm67.2-44.2c-35.7 0-62.6 26.1-62.6 60.6 0 23.9 15.9 39.3 40.5 39.3 10.5 0 20.8-1.9 27.3-5.1l4.5-23.8c-8.8 4.4-15.7 6.2-23.8 6.2-9 0-18.6-5.2-18.6-19.6 0-17 12.1-34.7 32.3-34.7 6.1 0 11.3 1.2 15.7 3.7l4.4-23.2c-5-2.1-12.4-3.4-19.7-3.4zm44.5 40.2c16.7.1 26.1-1.6 30.2-5.6 4.4-4.4 3-13.9-7.9-13.9-12.3 0-20.1 10.1-22.3 19.5zm18.4 37.5c11.9 0 22.2-2.9 33.5-9.4l-4.6 24c-13.6 6.9-29.5 7.7-35.7 7.7-26.5 0-41.6-14.7-41.6-40.5 0-14.8 5.5-29.7 14.9-40.8 10.4-12.2 25-18.9 41-18.9 20 0 33.4 11.6 33.4 28.9 0 8-2.6 14.6-7.7 19.5-9.6 9.3-33.2 14.6-54.7 10.3-1 12.2 8.1 19.2 21.5 19.2zm-500.4-77.7c-35.7 0-62.6 26.1-62.6 60.6 0 23.9 15.9 39.3 40.5 39.3 10.5 0 20.8-1.9 27.3-5.1l4.5-23.8c-8.8 4.4-15.7 6.2-23.8 6.2-9 0-18.6-5.2-18.6-19.6 0-17 12.1-34.7 32.3-34.7 6.1 0 11.3 1.2 15.7 3.7l4.4-23.2c-5-2.1-12.4-3.4-19.7-3.4zm175.6 66.1c0 8.9-3 16.3-8.8 22-7.7 7.7-20.3 11.9-35.4 11.8-10.8-.2-21.8-2.8-28-6.6l4.1-21.7c6.6 3.7 18 7.5 26.6 7.5 7 0 11.8-3.3 11.8-8.5 0-4.7-3.3-8-11.9-12.2-13.5-6.7-20.2-15.3-20.2-25.4 0-19.8 16.9-33.2 42.2-33.2 13.4 0 22.1 3.2 27 6.3l-4.1 21.7c-3.8-2.9-13.6-6.9-24.2-6.9-7.4 0-12.2 3.1-12.2 8.3 0 3.7 3.7 7 11.5 10.8 10.2 5.1 21.6 12.6 21.6 26.1z" style="fill:#fff"/>
</svg>
