<svg xmlns="http://www.w3.org/2000/svg" viewBox="0 0 1024 1024">
   <circle cx="512" cy="512" r="512" style="fill:#eb0000"/>
   <path d="m396.1 560.19 9.81-51.6 20.19 51.6h30.62l-20.89-52 38-44.36h-31.06l-36.68 43.88L420.28 433H392l-24.18 127.19zm-228.43-75 4.06-21.37h-25.08L128 561.88h28.48l7.69-40.44c4.53-23.84 18.21-33.39 37.68-30.44l5.56-29.25a39.45 39.45 0 0 0-39.74 23.42zm435.67 15.57c0-4.53-1.07-15.52-11.5-15.52-10.61 0-19.56 12.08-23 30.41-1.19 6.27-4.51 25.08 8.59 25.08 15 0 25.94-21.23 25.94-40zm29.66-2.17c0 23.35-11.21 47.29-31.42 58.06a45.33 45.33 0 0 1-20.7 5.69c-10.12 0-15.79-3.78-19-9.61L554.59 591h-28.48l24.17-127.15h25.08l-2.93 15.43C579.52 468.94 590 462 601.89 462c18.85 0 31.07 14.28 31.07 36.55zm-371.69-4.51c-.33-6.78-3.86-10.43-10.19-10.43-13.4 0-25 23.12-25 39.2 0 10 3.73 16.3 10.2 16.3 10.36 0 19.28-10.83 22.35-26.7 1-5.36 2.81-14.16 2.62-18.36zm26.19 12.36-10.27 53.75H250l3.53-18.5c-3.81 11.53-13.11 20.65-28.7 20.65-18.92 0-27.48-16.8-27.48-33.61 0-19.1 7.49-38 20.06-50.59a54.38 54.38 0 0 1 39.3-16.1c11.56 0 20.1 3.39 25.46 9.88 7.93 9.61 7.28 24 5.3 34.52zm411.34-12.36c-.33-6.78-3.86-10.43-10.19-10.43-13.39 0-25 23.12-25 39.2 0 10 3.73 16.3 10.21 16.3 10.36 0 19.28-10.83 22.35-26.7 1-5.36 2.81-14.16 2.62-18.36zM725 506.44l-10.27 53.75h-27.2l3.53-18.5c-3.81 11.53-13.11 20.65-28.7 20.65-18.93 0-27.48-16.8-27.48-33.61 0-19.1 7.49-38 20.06-50.59a54.38 54.38 0 0 1 39.3-16.1c11.56 0 20.11 3.39 25.46 9.88 7.93 9.61 7.28 24 5.3 34.52zm67.27-44.2c-35.69 0-62.58 26.06-62.58 60.62 0 23.87 15.86 39.28 40.46 39.28 10.52 0 20.75-1.93 27.34-5.13L802 533.2c-8.81 4.37-15.7 6.16-23.82 6.16-9 0-18.65-5.18-18.65-19.63 0-17 12.08-34.7 32.35-34.7a31 31 0 0 1 15.72 3.74l4.4-23.15c-5.1-2.11-12.49-3.38-19.73-3.38zm44.5 40.12c16.71.14 26.11-1.55 30.22-5.62 4.44-4.41 3-13.87-7.9-13.87-12.32 0-20.16 10.1-22.32 19.49zm18.4 37.58c11.91 0 22.22-2.91 33.46-9.44l-4.56 24c-13.57 6.93-29.52 7.68-35.74 7.68-26.5 0-41.64-14.73-41.64-40.46a63.55 63.55 0 0 1 14.91-40.82 53.18 53.18 0 0 1 41-18.86c20 0 33.41 11.64 33.41 28.91 0 8-2.6 14.55-7.72 19.54-9.57 9.33-33.17 14.56-54.65 10.34-1 12.11 8.09 19.11 21.52 19.11zm-500.43-77.7c-35.69 0-62.58 26.06-62.58 60.62 0 23.87 15.86 39.28 40.46 39.28 10.52 0 20.75-1.93 27.34-5.13l4.51-23.81c-8.81 4.37-15.7 6.16-23.82 6.16-9 0-18.65-5.18-18.65-19.63 0-17 12.08-34.7 32.35-34.7a31 31 0 0 1 15.65 3.74l4.41-23.15c-5.1-2.11-12.49-3.38-19.73-3.38zm175.6 66.09c0 8.86-3 16.27-8.78 22-7.74 7.69-20.3 11.88-35.4 11.76-10.84-.18-21.79-2.81-28-6.62l4.13-21.71c6.57 3.73 18 7.5 26.6 7.5 7 0 11.8-3.25 11.8-8.47 0-4.73-3.34-8-11.86-12.21-13.49-6.74-20.24-15.29-20.24-25.37 0-19.82 16.89-33.22 42.22-33.22 13.41 0 22.13 3.16 27 6.26L533.65 490c-3.84-2.88-13.58-6.9-24.22-6.9-7.38 0-12.19 3.09-12.19 8.27 0 3.71 3.68 7 11.47 10.84 10.15 5.07 21.61 12.58 21.61 26.15z" style="fill:#fff"/>
</svg>
