<?xml version="1.0" encoding="utf-8"?>
<!-- Generator: Adobe Illustrator 21.0.0, SVG Export Plug-In . SVG Version: 6.00 Build 0)  -->
<svg version="1.1" xmlns="http://www.w3.org/2000/svg" xmlns:xlink="http://www.w3.org/1999/xlink" x="0px" y="0px"
	 viewBox="0 0 1024 1024" style="enable-background:new 0 0 1024 1024;" xml:space="preserve">
<style type="text/css">
	.st0{fill:#E91D25;}
	.st1{fill:#FFFFFF;}
</style>
<g id="Guides">
</g>
<g id="Icon">
	<circle class="st0" cx="512" cy="512" r="512"/>
	<path class="st1" d="M407.9,555.3l8.8-46.4l18.1,46.4h27.5l-18.8-46.7l34.2-39.9h-27.9l-33,39.4l12.8-67.1h-25.4l-21.7,114.3H407.9
		L407.9,555.3z M202.6,487.9l3.6-19.2h-22.5l-16.8,88.1h25.6l6.9-36.3c4.1-21.4,16.4-30,33.9-27.4l5-26.3
		C222.5,465.4,208.5,474.4,202.6,487.9L202.6,487.9z M594.1,501.9c0-4.1-1-13.9-10.3-13.9c-9.5,0-17.6,10.9-20.7,27.3
		c-1.1,5.6-4.1,22.5,7.7,22.5C584.2,537.8,594.1,518.7,594.1,501.9L594.1,501.9z M620.7,499.9c0,21-10.1,42.5-28.2,52.2
		c-6.7,3.6-13.1,5-18.6,5.1c-9.1,0-14.2-3.4-17.1-8.6l-6.5,34.4h-25.6l21.7-114.3h22.5l-2.6,13.9c6.4-9.3,15.8-15.5,26.5-15.5
		C609.7,467.1,620.7,479.9,620.7,499.9L620.7,499.9z M286.7,495.9c-0.3-6.1-3.5-9.4-9.2-9.4c-12,0-22.5,20.8-22.5,35.2
		c0,9,3.3,14.6,9.2,14.6c9.3,0,17.3-9.7,20.1-24C285.3,507.6,286.9,499.7,286.7,495.9L286.7,495.9z M310.2,507l-9.2,48.3h-24.4
		l3.2-16.6c-3.4,10.4-11.8,18.6-25.8,18.6c-17,0-24.7-15.1-24.7-30.2c0-17.2,6.7-34.2,18-45.5c9.5-9.5,21.7-14.5,35.3-14.5
		c10.4,0,18.1,3,22.9,8.9C312.6,484.6,312,497.6,310.2,507L310.2,507z M679.9,495.9c-0.3-6.1-3.5-9.4-9.2-9.4
		c-12,0-22.5,20.8-22.5,35.2c0,9,3.4,14.6,9.2,14.6c9.3,0,17.3-9.7,20.1-24C678.4,507.6,680,499.7,679.9,495.9L679.9,495.9z
		 M703.4,507l-9.2,48.3h-24.4l3.2-16.6c-3.4,10.4-11.8,18.6-25.8,18.6c-17,0-24.7-15.1-24.7-30.2c0-17.2,6.7-34.2,18-45.5
		c9.5-9.5,21.7-14.5,35.3-14.5c10.4,0,18.1,3,22.9,8.9C705.8,484.6,705.2,497.6,703.4,507L703.4,507z M763.8,467.3
		c-32.1,0-56.2,23.4-56.2,54.5c0,21.4,14.3,35.3,36.4,35.3c9.5,0,18.6-1.7,24.6-4.6l4.1-21.4c-7.9,3.9-14.1,5.5-21.4,5.5
		c-8.1,0-16.8-4.7-16.8-17.6c0-15.3,10.9-31.2,29.1-31.2c5.5,0,10.1,1.1,14.1,3.4l4-20.8C777,468.4,770.3,467.3,763.8,467.3
		L763.8,467.3z M803.8,503.3c15,0.1,23.5-1.4,27.2-5c4-4,2.7-12.5-7.1-12.5C812.8,485.8,805.8,494.9,803.8,503.3L803.8,503.3z
		 M820.4,537.1c10.7,0,20-2.6,30.1-8.5l-4.1,21.5c-12.2,6.2-26.5,6.9-32.1,6.9c-23.8,0-37.4-13.2-37.4-36.4
		c0-13.3,4.9-26.7,13.4-36.6c9.4-10.9,22.4-16.9,36.8-16.9c18,0,30,10.5,30,26c0,7.2-2.3,13.1-6.9,17.6c-8.6,8.4-29.8,13.1-49.1,9.3
		C800.1,530.8,808.3,537.1,820.4,537.1L820.4,537.1z M370.7,467.3c-32.1,0-56.2,23.4-56.2,54.5c0,21.4,14.3,35.3,36.4,35.3
		c9.5,0,18.6-1.7,24.6-4.6l4.1-21.4c-7.9,3.9-14.1,5.5-21.4,5.5c-8.1,0-16.8-4.7-16.8-17.6c0-15.3,10.9-31.2,29.1-31.2
		c5.5,0,10.1,1.1,14.1,3.4l4-20.8C383.8,468.4,377.2,467.3,370.7,467.3L370.7,467.3z M528.5,526.7c0,8-2.7,14.6-7.9,19.8
		c-7,6.9-18.2,10.7-31.8,10.6c-9.7-0.2-19.6-2.5-25.1-5.9l3.7-19.5c5.9,3.4,16.2,6.7,23.9,6.7c6.3,0,10.6-2.9,10.6-7.6
		c0-4.3-3-7.2-10.7-11C479,513.7,473,506,473,497c0-17.8,15.2-29.9,37.9-29.9c12,0,19.9,2.8,24.2,5.6l-3.7,19.5
		c-3.4-2.6-12.2-6.2-21.8-6.2c-6.6,0-11,2.8-11,7.4c0,3.3,3.3,6.3,10.3,9.7C518.2,507.7,528.5,514.5,528.5,526.7L528.5,526.7z"/>
</g>
</svg>
