<?xml version="1.0" encoding="utf-8"?>
<!-- Generator: Adobe Illustrator 21.0.0, SVG Export Plug-In . SVG Version: 6.00 Build 0)  -->
<svg version="1.1" xmlns="http://www.w3.org/2000/svg" xmlns:xlink="http://www.w3.org/1999/xlink" x="0px" y="0px"
	 viewBox="0 0 1024 1024" style="enable-background:new 0 0 1024 1024;" xml:space="preserve">
<style type="text/css">
	.st0{fill:#E91D25;}
	.st1{fill:#FFFFFF;}
</style>
<g id="Min_Guides__x28_DO_NOT_REMOVE_x29_">
</g>
<g id="Max_Guides__x28_DO_NOT_REMOVE_x29_">
</g>
<g id="Icon">
	<circle class="st0" cx="512" cy="512" r="512"/>
	<path class="st1" d="M396.1,560.2l9.8-51.6l20.2,51.6h30.6l-20.9-52l38-44.4h-31.1l-36.7,43.9l14.2-74.6H392l-24.2,127.1H396.1
		L396.1,560.2z M167.7,485.2l4.1-21.4h-25.1L128,561.9h28.5l7.7-40.4c4.5-23.8,18.2-33.4,37.7-30.4l5.6-29.3
		C189.9,460.2,174.3,470.2,167.7,485.2L167.7,485.2z M603.3,500.7c0-4.5-1.1-15.5-11.5-15.5c-10.6,0-19.6,12.1-23,30.4
		c-1.2,6.3-4.5,25.1,8.6,25.1C592.4,540.7,603.3,519.5,603.3,500.7L603.3,500.7z M633,498.6c0,23.3-11.2,47.3-31.4,58.1
		c-7.4,4-14.5,5.6-20.7,5.7c-10.1,0-15.8-3.8-19-9.6l-7.2,38.2h-28.5l24.2-127.1h25.1l-2.9,15.4c7.1-10.3,17.6-17.2,29.5-17.2
		C620.7,462,633,476.3,633,498.6L633,498.6z M261.3,494.1c-0.3-6.8-3.9-10.4-10.2-10.4c-13.4,0-25,23.1-25,39.2
		c0,10,3.7,16.3,10.2,16.3c10.4,0,19.3-10.8,22.4-26.7C259.7,507.1,261.5,498.3,261.3,494.1L261.3,494.1z M287.5,506.4l-10.3,53.7
		H250l3.5-18.5c-3.8,11.5-13.1,20.7-28.7,20.7c-18.9,0-27.5-16.8-27.5-33.6c0-19.1,7.5-38,20.1-50.6c10.5-10.5,24.1-16.1,39.3-16.1
		c11.6,0,20.1,3.4,25.5,9.9C290.1,481.5,289.4,496,287.5,506.4L287.5,506.4z M698.8,494.1c-0.3-6.8-3.9-10.4-10.2-10.4
		c-13.4,0-25,23.1-25,39.2c0,10,3.7,16.3,10.2,16.3c10.4,0,19.3-10.8,22.4-26.7C697.2,507.1,699,498.3,698.8,494.1L698.8,494.1z
		 M725,506.4l-10.3,53.7h-27.2l3.5-18.5c-3.8,11.5-13.1,20.7-28.7,20.7c-18.9,0-27.5-16.8-27.5-33.6c0-19.1,7.5-38,20.1-50.6
		c10.5-10.5,24.1-16.1,39.3-16.1c11.6,0,20.1,3.4,25.5,9.9C727.6,481.5,727,496,725,506.4L725,506.4z M792.2,462.2
		c-35.7,0-62.6,26.1-62.6,60.6c0,23.9,15.9,39.3,40.5,39.3c10.5,0,20.8-1.9,27.3-5.1l4.5-23.8c-8.8,4.4-15.7,6.2-23.8,6.2
		c-9,0-18.6-5.2-18.6-19.6c0-17,12.1-34.7,32.3-34.7c6.1,0,11.3,1.2,15.7,3.7l4.4-23.2C806.9,463.5,799.5,462.2,792.2,462.2
		L792.2,462.2z M836.7,502.4c16.7,0.1,26.1-1.6,30.2-5.6c4.4-4.4,3-13.9-7.9-13.9C846.7,482.9,838.9,493,836.7,502.4L836.7,502.4z
		 M855.1,539.9c11.9,0,22.2-2.9,33.5-9.4l-4.6,24c-13.6,6.9-29.5,7.7-35.7,7.7c-26.5,0-41.6-14.7-41.6-40.5
		c0-14.8,5.5-29.7,14.9-40.8c10.4-12.2,25-18.9,41-18.9c20,0,33.4,11.6,33.4,28.9c0,8-2.6,14.6-7.7,19.5
		c-9.6,9.3-33.2,14.6-54.7,10.3C832.6,532.9,841.7,539.9,855.1,539.9L855.1,539.9z M354.7,462.2c-35.7,0-62.6,26.1-62.6,60.6
		c0,23.9,15.9,39.3,40.5,39.3c10.5,0,20.8-1.9,27.3-5.1l4.5-23.8c-8.8,4.4-15.7,6.2-23.8,6.2c-9,0-18.6-5.2-18.6-19.6
		c0-17,12.1-34.7,32.3-34.7c6.1,0,11.3,1.2,15.7,3.7l4.4-23.2C369.4,463.5,362,462.2,354.7,462.2L354.7,462.2z M530.3,528.3
		c0,8.9-3,16.3-8.8,22c-7.7,7.7-20.3,11.9-35.4,11.8c-10.8-0.2-21.8-2.8-28-6.6l4.1-21.7c6.6,3.7,18,7.5,26.6,7.5
		c7,0,11.8-3.3,11.8-8.5c0-4.7-3.3-8-11.9-12.2c-13.5-6.7-20.2-15.3-20.2-25.4c0-19.8,16.9-33.2,42.2-33.2c13.4,0,22.1,3.2,27,6.3
		l-4.1,21.7c-3.8-2.9-13.6-6.9-24.2-6.9c-7.4,0-12.2,3.1-12.2,8.3c0,3.7,3.7,7,11.5,10.8C518.9,507.3,530.3,514.8,530.3,528.3
		L530.3,528.3z"/>
</g>
</svg>
