<svg xmlns="http://www.w3.org/2000/svg" viewBox="0 0 1024 1024">
   <circle cx="512" cy="512" r="512" style="fill:#2a2a48"/>
   <path d="m317.45 412.86 293.7-95.43 95.43 293.7-293.7 95.43-12.47-38.4a326.89 326.89 0 0 1-51.28 0L381.57 768 768 642.43 642.43 256 256 381.57l60.72 186.89 4.15 1 .57.14a203.08 203.08 0 0 0 48.71 5.51ZM470 586.57a288.8 288.8 0 0 0 131.37-84l32.51 20.32a306.66 306.66 0 0 1-150.33 102.94 307.56 307.56 0 0 1-182.8 6.77l13.55-35.22A289.13 289.13 0 0 0 470 586.57Z" style="fill:#fff"/>
</svg>
