<svg xmlns="http://www.w3.org/2000/svg" viewBox="0 0 1024 1024">
   <circle cx="512" cy="512" r="512" style="fill:#00a3ff"/>
   <path d="M442.24 527.53a95.86 95.86 0 0 1 6.88-10.88c1-.48 6.56-10.56 6.56-11 0-.16 1.28-2.56 2.08-5 1.12-2.72 2.72-5.76 3.2-7.68a44.36 44.36 0 0 1 1.6-4.16c0-.8 1.12-3.84 1.92-7.2 2.08-6.88 2.72-16 1.44-19.83-1.6-6.4-2.88-10.08-3.2-10.08-.48 0-1-.8-1.28-2.08-.8-1-1.28-1.76-1.6-1.76a.51.51 0 0 1-.48-.48c0-.8-1.12-2.24-4.48-4.8a13.92 13.92 0 0 1-3.36-2.72 38.28 38.28 0 0 0-3.36-2.08c-1.28-.8-2.08-1.28-2.08-1.6-.16-.16-.32-.32-.48-.32a50.86 50.86 0 0 1-5-2.08 54.14 54.14 0 0 0-8.6-2.68c-4.48-.8-17.43-1.12-20.63 0a54.31 54.31 0 0 1-7.36 1.28c-6.74 1.61-13.48 3.64-20.1 5.94-.77-.28-1-.89-.69-1.94 0-1.28 0-1.28-.8-.48-1.12 1.44-3.68 1.44-5.28.32a37.74 37.74 0 0 0-8.48-.48 63 63 0 0 1-7-.32c.8-.48.32-1-.48-1.28-1.28-.48-1.76-.48-2.08 0a42.21 42.21 0 0 0-2.88 6.08c-1.44 3-2.88 6.4-3.2 7.2a93.1 93.1 0 0 0-5.6 13 5.31 5.31 0 0 1-.8 2.56c-.16.64-1.28 2.72-1.76 4a19.61 19.61 0 0 1-1.6 2.56 3.52 3.52 0 0 0-.48 1.92 12.34 12.34 0 0 0-1.6 4c-2.72 6.4-5.28 13-7.36 19.51-.8 2.4-2.4 6.24-2.88 8.16-2.56 7.2-1.28 6.4 1.6-.8a6.69 6.69 0 0 1 1.76-2.88c.64-.32 1.28-1.6 1.76-2.4.8-3 4.48-8.8 5-8.8q.48 0 0 .48c-1.6 4.32-4.64 12.79-6.56 18.55a102.9 102.9 0 0 1-3.36 10.88 67.17 67.17 0 0 0-2.72 8 38.41 38.41 0 0 0-1.92 6.08 9.08 9.08 0 0 0-1.12 3.52 16.14 16.14 0 0 1-1.12 2.4c-.32 1.28-4.32 12-4.8 14.71a14.09 14.09 0 0 1-.8 2.4 120.11 120.11 0 0 0-3.36 15c0 1.28-.16 2.08-.48 2.08 0-.16-.48.64-.8 1.92s-.32 2.08 0 2.08c.16.32.48.48.48.8s-.16.32-.48.32c-.64-.16-.8.8-1.12 2.72 0 2.4 0 3 .48 2.72.48 0 .16 0-.32.48-1.28 1-1.28 1 0 2.08.48.48 1.6 1.92 2.08 2.4 1.76 2.08 5.28 4.16 6.56 4.16.8 0 1.28.16 1.28.48.8 1.28 1.76 1.6 3.68.8s2.88-.8 3.2 0c.8.8.8.8 1.28.32s.8-.48 1.28 0 .8.48.8-.32c.48-.8.8-.8 1.28-.8.8.32 1.12-.32 1.6-1.6a13.84 13.84 0 0 1 1.12-2.72 9.84 9.84 0 0 0 1.12-3.68 15.54 15.54 0 0 1 2.56-5.76c2.4-2.88 2.72-3.68 1.92-3.68-.32 0-.64.16-.32.48a1.33 1.33 0 0 1-.48 1.28c-1 .48.48-2.56 1.6-4s1.6-2.24.32-1.92c-1.44.48-1.28-2.56.32-4.48a3.37 3.37 0 0 0 .8-2.08c0-1 0-1.28.32-1.28.8 0 2.08-5.6 2.4-8.48a27.55 27.55 0 0 1 1.12-3.36 7.08 7.08 0 0 0 .8-2.4c-.48-.48.32-.8.8-.8.8 0 .8-.16.32-.48-.32-.16-.32-1 0-2.88.64-1.44.8-2.72 1.12-2.72.48 0 .8-4 .48-4.8-1-1.44 1.28-9 3.2-10.88.48-.16 1.28-2.56 1.76-5a16.38 16.38 0 0 1 1.28-4.8 6.79 6.79 0 0 0 1.6-2.72 16 16 0 0 1 1.6-3.36 13.69 13.69 0 0 0 1.76-3.84c.48-1 1.12-2.56 1.6-2.88s.64-.32 0-.32-.64-.8-.32-1.28a4.43 4.43 0 0 0 .48-2.08 27.05 27.05 0 0 1 2.4-6.88c.32 0 .48-.32.8-.8 0-2.4 1.76-5.76 2.56-5.76.48 0 1.12-.64 1.6-1.92.32-1.28.8-2.08 1.12-2.08.48 0 .8-.64.8-1.12s0-.8-.48-.48c-.16 0-.48-.16-.48-.32s.32-.48.8-.48c1.12 0 2.08-2.56 2.4-5 .16-1.44.8-4 1.28-6.4a14.18 14.18 0 0 0 1.12-4.48 2.06 2.06 0 0 1 .3-1.56h.34c1.6 0 2.72 0 2.4.32 0 .16 1.6-.64 3.68-1.92a95.59 95.59 0 0 1 15.35-7.2c3.52-1.6 3.52-1.6 3.2-1.12a2.15 2.15 0 0 0-.15.28c-.75-.17-1.55.56-3 1.31a22 22 0 0 1-3.2 2.08c-1.12.48-1.6.8-1.6 1.28a3.37 3.37 0 0 1-2.08.8 11.11 11.11 0 0 0-2.08.8c0 .16-1.12.48-1.6.48a4.26 4.26 0 0 0-1.92.48c-.48.64 0 .64.8.32 1.76-.48 1.6 1.12-.8 5.28-1 2.24-1.76 4-1.76 4 .16.64-.8 3.52-2.4 6.4a187.37 187.37 0 0 0-7 18.71h.64c.8-.32 1.6-1.6 4.48-8.48.64-2.08 2.08-3.68 2.56-3.68.48-.32.32 1.28-2.08 8.16-1.28 4.8-3 9.6-3.36 10.88a45.61 45.61 0 0 1-2.88 8.64c-1.28 2.08-6.24 16.63-7.36 20.79a36.82 36.82 0 0 1-2.88 8c-.48 1.6-1.6 4-2.08 5.6-.48 2.88-2.4 7.2-5.28 14.55a42.23 42.23 0 0 1-2.88 6.08 24.71 24.71 0 0 0-1.12 3.68 4.31 4.31 0 0 1-.8 2.4 7.08 7.08 0 0 0-.8 2.4 4.93 4.93 0 0 1-.48 2.08c-1.28 1.28-1.28 2.08 0 1.6.16 0 .48 0 .48.32s.8.48 1.28.8a.76.76 0 0 1 .8.8c-.32 0 .48.32 1.28 0 1.6-.48 2.88.32 1.6 1.12-.16.32-.16.32.32.32.8-.32 2.88.8 4.48 2.4.8.8.8 1.28.48 5-.32 4.16-.32 4.16.48 2.88l.8-1.6-.32 1.92-.32 1.6.8-1.28a11.14 11.14 0 0 0 1.76-3.68c.32-1.44.8-1.92 1.12-1.92.32.32.48-.8.8-1.6a9.6 9.6 0 0 1 2.08-4 6.33 6.33 0 0 0 1.6-2.4 40.33 40.33 0 0 1 2.08-4.8c3.2-7 3.52-8.16 3.2-9a.51.51 0 0 1 .48-.48c.8 0 1.28 1 2.56 4.16 1.12 2.24 2.72 4.64 4 5 .16 0 1.6.32 2.08.32a2.23 2.23 0 0 0 2.4-.48c.48-.8 2.08-1.12 4.16-1.12a7.22 7.22 0 0 0 5.6-2.08 41.68 41.68 0 0 0 4.48-2.72c2.4-1.28 11.51-9.28 17.91-15 3.68-4 4.64-5.28 12.63-13.75a104.06 104.06 0 0 0 7.68-10.91Zm-13.75-9.28c-.32 0-.32.48-.32.8.32.32.32.32 0 .32-.8-.48-4.48 3.36-4 3.68.16.48.8-.32 1.28-.8 1-1.92 2.08-2.24 1.28-.32-.64 1.44-14.55 15.35-15.35 15.35.16-.32.16-.48.32-.8 1.92-2.08-2.4.32-4.48 2.72-2.08 1.44-4.16 2.88-6.4 4.16-5.76 3.2-7.36 3.68-7.36 2.88 0-.32 0-.32-.32-.32 0 .48-1.12-.32-1.6-1.12-1.28-1.12-1.28-1.6-1.28-7.68.16-4.48.16-6.88-.32-7.36-.64-1-.32-1.6.48-3.68.48-1.28 1.76-4 2.56-6.08a30.2 30.2 0 0 1 1.76-4 33.51 33.51 0 0 0 2.08-5.6c1.12-2.88 2.88-7.84 4.48-11.36s3.68-8 4.48-10.08c3.68-10.08 4.16-11.67 5.76-13.75a10 10 0 0 0 1.6-3.52 29.77 29.77 0 0 1 1.6-4 21.17 21.17 0 0 0 1.28-5.28 24.92 24.92 0 0 1 .8-2.56c.8-1.28 1.6-4 1.12-4.48-.32 0-.32-.48-.32-.8.32-.48-2.08-1.92-5.76-2.4a9.31 9.31 0 0 0-4.16.48 5.33 5.33 0 0 1-2.67.52c.66-.22 1.87-.73 4-1.64a23.42 23.42 0 0 1 8.16-1.92c1.92-.32 5.6-.48 7.68-.8a55.83 55.83 0 0 1 16.31.48c7.36 1.28 9.44 3.36 11.52 10.24 1.6 4.48 1.6 4.8.8 9a26.18 26.18 0 0 1-3.36 10.88 4.76 4.76 0 0 0-.8 2.4c0 .48.16-.32.48-.8 1.12-1.76 1.12-.48 0 1.92-.8 2.4-1.28 2.72-.8.8 0-1-.16-.48-.48.32-.48 1.12-.8 2.08-.48 2.4 0 .16 0 .48-.32.48-.8.16-3.68 6.56-3.2 6.56a1 1 0 0 1-.32 1.28c-.8.48-.8.48-.48 0s.32-.48 0-.48a3.37 3.37 0 0 0-.8 2.08 16.59 16.59 0 0 1-2.4 4 22.38 22.38 0 0 1-2.56 4.16 8.36 8.36 0 0 1-1.92 2.72c-1.44 1.92-2.88 4-4.16 6.08-1.66 2.21-3.1 4.61-3.42 4.93Zm-115.64 30.87c.48-2.4 2.24-7.68 3.36-11.67a50.47 50.47 0 0 0 2.08-8.48 10.19 10.19 0 0 1 1.6-2.88c.8-1.28 1.12-2.56.8-2.88-.48-.16.48-5.12 1.6-8.64a9.49 9.49 0 0 0 .8-3.68 76.51 76.51 0 0 1 2.88-9.28c1.12-4.48 2.88-10.08 3.68-13.43a68.53 68.53 0 0 1 3.68-10.08 95.62 95.62 0 0 0 4-11.36c.16-1.6 2.08-5.76 2.56-7.36a11.49 11.49 0 0 0 .48-8.64c-.48-1.6-1-3.2-1.28-4.8-.64-4-2.88-5.28-7-5.28-2.24 0-3.2-.32-4-1.6-1.6-1-6.08-1.76-6.08-.48a3.2 3.2 0 0 1-2.08 2.08c-2.56 2.08-13.11 10.56-14.71 12.15-.16.16-.16.32-.32.48a1.23 1.23 0 0 1-1.6-.16c-.48-.64-.48-.64.32-.32 1.12 0 4.8-7.2 4.8-9.28a17.76 17.76 0 0 0-1.12-2.56 12.75 12.75 0 0 1-1.28-2.56c-.32-.48-.48-.8-.8-.48s-1.44-.64-2.72-1.76c-1.28-.8-2.08-1.44-2.08-1.12 0 .48-.48.48-1.28 0a2.2 2.2 0 0 1-1.28-.8c.48-.64-2.72-3.2-4-3.2a1.93 1.93 0 0 1-1.6-.48 2.69 2.69 0 0 0-3.2-.32 2.31 2.31 0 0 0-1.12 1.6c0 .48 0 .8-.32.8s-1.12 1.12-1.92 2.4c-.64 1.12-1.92 3.2-2.72 4.48a16.73 16.73 0 0 0-2.08 3.68c-.32.8-1.6 2.88-2.72 5a24.85 24.85 0 0 0-4 6.56 9.08 9.08 0 0 1-1.92 2.88c-.32 0-.8 1.12-1.12 1.92-.64 2.08-4 7.68-4.8 9a8 8 0 0 0-.8 2.08c-.8 2.24 1.12 1.6 3.2-1.92 1.28-1.76 3-4.48 4.16-5.76a11.5 11.5 0 0 0 1.92-3.36 7.83 7.83 0 0 1 1.92-2.08 15.11 15.11 0 0 0 2.56-3.68 45.27 45.27 0 0 1 3.2-4.48l2.08-2.88-1.12 4a73 73 0 0 1-7.84 15.83 85.76 85.76 0 0 0-4.48 8.48c-1.6 3.2-5.76 11-9.28 17.43-3.2 6.4-6.88 12.63-7.36 14.55a25.52 25.52 0 0 1-1.6 3.68 9.7 9.7 0 0 0-.8 2.88c-.8 1-2.4 5.28-4.48 9-1.76 3.52-3.84 7.2-4.16 8-1.28 2.24-2.08 3-6.08 3.52-8.16 1.6-10.56 2.08-27.19 6.88a18.49 18.49 0 0 1-5.12 1.28c-1 .23-1.94.49-2.91.76a14.49 14.49 0 0 1-.29-1.88c.32 0 .16-.32 0-.32s-.48-.32-.48-.8a15 15 0 0 0-.64-2.56c-.16-.64-.32-1.44-.48-2.08a3.14 3.14 0 0 0-.32-1.92 12.74 12.74 0 0 1-.48-2.4c0-.16 0-.48-.32-.48-.64.48-.64-1.12-.32-3.2a3.74 3.74 0 0 0-.8-3.36c-.32-.48-.64-1-.32-1.28a1.22 1.22 0 0 0-.32-.8v-2.8a3.67 3.67 0 0 0-.32-2.88c-.16-.64-.32-1.44-.48-2.08.16-.32 0-.48-.32-.8-.8-.16-1.44-4.16-1.12-5 .16 0 0-.32-.32-.32s-.32 0 0-.32c.8-.8.8-1.28.32-1.28-.48.32-.48-1 0-1.6s.48-.64 0-.32c-.32 0-.32 0-.32-.48s2.24-2.56 5.6-6.08c5.44-4.8 9.12-8.16 9.44-9a17 17 0 0 1 1.92-1.6 4.7 4.7 0 0 0 1.6-1.92 5 5 0 0 1 2.72-2.08c.32 0 .32-.32.32-.48s0-.48.32-.48a3.85 3.85 0 0 0 2.88-1.12c.48-.8 1.6-2.4 2.08-1.6 2.4-2.24 2.4-2.56 4.8-5-3 .8.32-1.12 1.12-1.6a11 11 0 0 1 1.28-.48c.32 0 .32-.16.32-.48l.8-.48a9.16 9.16 0 0 0 2.56-2.4 26.19 26.19 0 0 1 3.36-4c.64-.64 1.44-1.6 1.12-1.92.16-.16.32-.32.48-.32.48 0 1.6-1.6 1.6-2.08-.16 0 0-.32.32-.32l1-1.6c.32-1 1.6-2.08 2.4-3.36 2.08-2.08 4-4.48 4-5.76a9.79 9.79 0 0 1 .8-1.92c1.44-1.28 2.24-6.72 1.12-9.28-.8-2.4-2.72-5-3.2-5a1.63 1.63 0 0 1-1.28-.8c-1.12-.8-3-1.92-8-3.2-2.4-.48-4-.48-13-.48-5.6.16-10.88.16-11.36.48-.48 0-2.08.32-3.68.32-1.28.16-2.88.48-3.2.48a10.31 10.31 0 0 1-3.2.48 7.47 7.47 0 0 0-2.72.48c0 .64-1.28.8-2.88 1.12s-4.48 1.12-6.56 1.6a20.76 20.76 0 0 1-5.28 1.12 4.19 4.19 0 0 0-2.4.32 10.39 10.39 0 0 1-4.32 1.28c-.48 0-.48 0 .32-.48a5 5 0 0 1 1.6-.8c.16-.32 4.48-1.6 7.36-2.88a24.86 24.86 0 0 1 3.68-1.28 19.06 19.06 0 0 1 3.2-1.28c.32-.32 1.28-.32 1.6-.32a17.47 17.47 0 0 0 2.4-1.28c1.76-.48 0-.48-1.92 0a59.23 59.23 0 0 1-8.16 1.6 68.79 68.79 0 0 0-8.64 1.92 15.63 15.63 0 0 1-4.8 1.76c-1.6.48-4.8 1.76-6.88 2.56a54.67 54.67 0 0 1-6.88 3.36c-2.56 1.12-8.16 4.8-8.64 6.4a1.88 1.88 0 0 1-1.76.8c-.32 0-.64 1.44-.32 1.92 0 .16.8.48 1.28.48 1.28.32 4.32 3.68 4.32 4.16a1.33 1.33 0 0 0 .48 1.28c.32.48.64.8.32.8s.48 1.12 1.28 1.92a4.09 4.09 0 0 0 2.4 1.92c.16-.16.48 0 .48.32.32.64 4 .8 4 .32a.51.51 0 0 1 .48-.48c.8 0 2.88-1.12 2.88-1.6 0-.32.32-.32.8-.32a1.82 1.82 0 0 0 1.28-.48c0-.48.48-.48.8-.48 0 .16.8 0 1.28-.32a2.7 2.7 0 0 1 1.6-.48 13.51 13.51 0 0 0 5.28-2.56c0-.16.32 0 .32.32-.32.16 0 .16.48-.32.48-.16 1.12-.32 1.6-.48.32-.16.48-.16.8-.32 0-.32 0-.64.32-.32l1.6-.48a3.85 3.85 0 0 1 2.88-1.12c1.12-.16 1.92-.16 1.92-.48.16-.32.48-.32.8-.32a3 3 0 0 0 2.4-1.28h.48a2.88 2.88 0 0 0 1.92-.32 19.06 19.06 0 0 0 3.2-1.28c3.36-.64 6.24-1.44 6.56-1.92.16-.32.16-.32.48 0 .16-.16.32-.16.48-.32.48-.32.8-.32.8 0 .16.64 4.16-.48 4.16-1.28 0-.32 0-.32.48 0a1.53 1.53 0 0 0 1.6.32 5.68 5.68 0 0 1 1.6-.32H215a4.72 4.72 0 0 1 2.08-.32 2.17 2.17 0 0 0 2.08-1.12c.48-.32.8-.64.8-.32s1.44.64 2.72.32c3 0 13.11 0 13.91.32 1.44.48 1.44.8.32 2.88-1.92 4-7.2 9-17.43 17.75-3.2 2.72-6.08 5.28-6.4 5.6a52.52 52.52 0 0 0-5 3.2c-6.88 4.16-9.76 6.4-10.08 6.88a.51.51 0 0 1-.48.48c-1 0-4 1.76-3.68 2.08s0 .32-.48.32a1.82 1.82 0 0 0-1.28.48c0 .16-.48.48-.8.48s-.32-.32.48-2.72a29.75 29.75 0 0 1 1.6-4 14.36 14.36 0 0 0 1.12-4.32c.48-3.68.48-3.68-.32-4.48-.8-1.44-4.48-2.4-4.8-1.92a2 2 0 0 1-1.92 0 28.2 28.2 0 0 0-6.4-1.12c-.8 0-1.28 0-1.6-.32-.64-.32-3.2-2.08-3.52-2.08a5.68 5.68 0 0 0-.32 1.6c-.32 1.28-.64 1.44-1.12 1.76-.32 0-.8.16-.8.48a.3.3 0 0 1-.48 0c-.16 0-.48.32-.48 1.6a6.31 6.31 0 0 1-1.6 4c-3.68 5.28-11.67 23.51-12.47 28.31-.48 1.92-.48 2.4 0 2.72.8.32 1 .32 1.28-.48a58.45 58.45 0 0 0 2.88-7.36 51.07 51.07 0 0 1 4.64-11.51c1-1.76 1.76-3.36 1.76-3.36.32 0 .32.32 0 .8a64.56 64.56 0 0 0-2.56 7.2 83.54 83.54 0 0 1-2.88 9l-1.12 2.4a31.09 31.09 0 0 1-2.08 4.8 6.39 6.39 0 0 0-1.12 2.88c-.8 1.6-1.44 3.68-1.92 4.48a5.9 5.9 0 0 0-.8 2.72c-.32.48-.48.8-.8.8a4.93 4.93 0 0 1-.48 2.08c0 .48-.32.8-.32 1.28-.32 1.28-1 3.68-1.28 5a36.89 36.89 0 0 0-1.6 4.48c-.8 2.4-2.72 7.68-3.2 9.28-.32 1.12-.8 2.72-1.12 3.52-.8 1.6-2.88 7.36-7.36 19.51a.51.51 0 0 1-.48.48c-.16.48-.16.8-.32 1.28.32 0 0 .8-.48 2.4a24.9 24.9 0 0 0-2.4 6.56 60.64 60.64 0 0 0-2.88 10.56 17.46 17.46 0 0 0-.8 2.72c-.32 0-.48 1.6-.8 3.52-2.4 9.76-2.88 12.15-3.2 12.15-.8 0 .48 2.4 1.28 2.88 1.12 1 2.08 1 3.2-.32l1.92-.48c.8 0 1.28 0 1.28-.32.32-.16.48-.48.8-.48a14.17 14.17 0 0 0 5.28-3.36 4.9 4.9 0 0 1 3.68-.48c.48.32.8.16.48 0s1.6-2.08 2.08-2.08c.32 0 .32.16.32.48 0 .8.8.8 1.6 0a23.66 23.66 0 0 0 2.56-7.36 57.35 57.35 0 0 1 2.56-9c.64-2.08 2.08-7 3.2-11 1.12-4.16 2.72-9.28 3.2-11.36.48-1.6 1-4.16 1.28-5 .64-1.92 4-11.36 6.4-17.43a3.77 3.77 0 0 1 .32-1.28 73 73 0 0 1 3.84-8.8 4.43 4.43 0 0 1 .48 2.08c.48 2.72 1.6 6.88 2.08 7.2 0 .32.32.48.32.8a14.51 14.51 0 0 0 2.08 6.08c.64 1.76 1.12 3.52 1.92 5.28a53.55 53.55 0 0 0 3.51 8.17c-.24 1.1.08 3 .64 3.19s.32 1.12.8 2.72.8 2.4 1.28 2.4c.8 0 1.28.8 1.6 1.6a26.53 26.53 0 0 0 5.6 5.6c.49.23.9.42 1.26.57a32.46 32.46 0 0 0 8.17 7.59 6 6 0 0 1 2.4 2.08c.29.72 2.24 1.3 4.71 1.76 0 .11 0 .21-.07.32-.32 2.08 0 2.88 1.28 4 1.6 1.76 7.36 4.8 8.16 4.48.8-.48 3 .64 2.72 1.12-.32.16.8.48 1.6.48 3.2-.32 5.6.48 6.08 1.28.8 1.44 3 0 4.16-2.08.8-1.12 1.28-1.6 1.6-1.6a9.06 9.06 0 0 0 .48-2.88 9.84 9.84 0 0 1 1.12-3.68c.64-.64.64 0 .32 2.08-.8 4.8.48 2.88 2.4-2.88a121.31 121.31 0 0 1 8-20.79c3.69-7.72 4.88-10.27 5.92-11.22h-.16c-.24-.24.31-.38 1.25-.57h.37c.21-.08.63-.22 1.2-.39a8.1 8.1 0 0 1 2.78-.88c.12-.24.81-.3 1.48-.32l3.64-1c4.32-1.12 8-2.4 8.48-2.4.16 0 .48 0 .48-.48 0-.8-.32-.8-4 .32-1.92.48-2.72.8-2.4.48 1-1 20.15-5.76 22.87-5.76.32 0-.32.48-1.6.8l-2.08.8 2.4-.32c2.08-.48 2.4-.48 2.4.8 0 .8-.16 1.6-.48 1.6-.48.32-.48 1.12-.48 1.92.32.48-.8 2.88-1.28 5a14.9 14.9 0 0 0-1.92 6.4 8.59 8.59 0 0 1-.8 3.36 8.1 8.1 0 0 0-1.12 2.4 20.93 20.93 0 0 1-1 4.32c-.48 1.6-1.6 4.16-2.08 6.08-.8 1.76-1.44 4.48-1.92 5.76-.8 2.72 0 4.32 1.6 2.72a6 6 0 0 0 1.12-1.92c.16-.48 1.28-.48 3.68 0 3.2.48 4.16 1.28 8.16 5.28 3.68 3.36 5.28 4.48 6.56 4.48 1.6 0 2.4-1.12 1.6-2.4-.8-.48-.32-1.12.8-2.4a3 3 0 0 0 1.6-2.08c0-.64.48-5.12 1.28-10.88.16-1.44.8-4.32 1.28-6.4a22.7 22.7 0 0 0 1.92-6.4 8.6 8.6 0 0 1 .8-3.36c-.29-.27.83-2.35 1.31-4.75Zm-87.48 12.31c-.8 1.6-1.92 3.68-2.4 5l-.48.48c-.16-.32-.48.48-.48 1.28 0 1.16-1.53 4.78-3 7.72a8.79 8.79 0 0 0-2.41-2.12 1.57 1.57 0 0 1-.87-.5 17.41 17.41 0 0 1 .87-5.1c1.44-2.4.64-2.88-.48-.8-.65 1.36-1.27 2.75-1.85 4.17a25.5 25.5 0 0 1-3-5.48 42.84 42.84 0 0 1 9.31-1.89c3-.32 3-.64 2.72-1.92-.32-.8-.8-.8-2.72-.48a24.41 24.41 0 0 1-4.8.48 18.44 18.44 0 0 0-4.16.48l-1.21.24 1.22-.37a4.59 4.59 0 0 1 2.08-1.28 12.62 12.62 0 0 1 4.8-1.92c2.4-.48 4.8-1.6 5.28-1.6a2.37 2.37 0 0 1 2.08 0c.62.74.62 1.18-.5 3.62Zm83.16-82.36c0 .32-.16.64-.48.32-.32 0-.32-.48-.32-.8.81-.95 1.13-.59.81.48Zm-35.34 38.7c.32 0-.16.8-.8 2.08-1.44 2.24-1.92 2.72-1.92 1.92a17.62 17.62 0 0 1 2.72-3.99Zm-8 13.75c-1 0-1.6 0-1.28-.48 0-1.12 6.08-8.48 6.4-8.16.32.48-.48 2.08-1.92 4.16-1.12 2.89-2.39 4.17-3.2 4.49Zm27.67 14.71a.51.51 0 0 1-.48-.48c.16-1.12.32-1.12.8-.8 0 .82 0 .98-.32 1.3Zm1.12-3.68a.51.51 0 0 1-.48.48c-.32 0-.64-.16-.32-.48l.48-.48c.48.02.34.5.34.5Zm9.44-35.5a9.78 9.78 0 0 0-.8 1.92 5.12 5.12 0 0 1 .32-2.4 3.51 3.51 0 0 1 .8-1.92c.64.17.16 1.29-.32 2.41Zm1.12-3.68c0 .48-.32.16-.32-.32s.32-1.12.32-.8a.77.77 0 0 1 0 1.13Zm.16-4.48a16.12 16.12 0 0 1-1.92 3.68q-.48 0 0-.48a4.93 4.93 0 0 1 .48-2.08c.48-2.56 1.76-5.44 2.08-5a14.82 14.82 0 0 1-.64 3.9Zm-.16-4.16c-.32 0-.32-1.12 0-1.92 0-1.28 0-1.28-.8-.8s-1.28 2.56-1.6 4.48c-.48 1.76-1 4.48-1.28 5.76a42.56 42.56 0 0 0-.48 4.48 11.1 11.1 0 0 1-.8 2.08c-.32 0-.64.8-.32 1.28.32 1 0 1.28-.48 1.28-.32 0-.32.48-.32.8a.58.58 0 0 1-.32.8c-.16 0-.48.8-.48 2.08-.32 1.92-.64 3.84-1.12 5.76-1.92 6.88-2.24 7.2-3.52 6.88-.8 0-1.28 0-1.6.32a5.78 5.78 0 0 1-2.88.48c-1.6 0-2.88.16-2.88.48s-.32.64-.8.32c-.32 0-.8.16-.8.32s-.64.48-1.92.48a4.56 4.56 0 0 0-2.08 0 16.87 16.87 0 0 1-5 .48c-2.4 0-4.8.32-5.28.32-.48.16-.8 0-.8-.32s.16-.64.48-.32c.16.48.48-.32.48-.8a6.4 6.4 0 0 1 1.6-2.88c1.28-1.6 1.6-1.6 1.6-.32 0 .48.8 0 1.6-1.92a14.77 14.77 0 0 1 2.88-4.8 3.82 3.82 0 0 0 1.12-2.08 62 62 0 0 1 4.8-7.68c4.48-5.6 8.64-11.2 9.44-12.47.16-1.28 1.76-2.56 2.88-4s4.16-5.12 6.88-8c4.8-5.6 6.08-6.4 5.28-4-.32 1.6-.32 1.6.48.32a5.39 5.39 0 0 0 .8-2.72 6.51 6.51 0 0 1 2.4-4l-.8 2.72c-1.09 3.69-6.04 17.13-6.36 17.13Zm586.94-60.61a50 50 0 0 0-8.64-8.8 23.08 23.08 0 0 0-12.15-2.4 8.61 8.61 0 0 1-4.48-.8c-1.6-1.12-4.8-.8-6.56 0a12.65 12.65 0 0 1-2.08.8 4.94 4.94 0 0 0-3.2 1.76 15 15 0 0 1-2.88 1.92 9.74 9.74 0 0 0-2.4 1.92 7.53 7.53 0 0 1-2.4 2.08c-.86.62-1.68 1.25-2.46 1.91 0-.31-.05-.62-.1-1-.32-3 0-3.68 2.08-5 1.76-.64 2.08-2.24 2.72-3.2a12.57 12.57 0 0 0-4.16 1.28 14.4 14.4 0 0 1-4.47 1.41c-1 0-5.44 1.12-10.24 1.6-5 .64-9.44 1.76-10.24 1.76-.48.16-4.8 1-9 2.08-4.16.8-9 1.76-10.56 2.08-1.44.32-4.8 1.12-7.2 1.6-2.4.8-7.36 1.92-11.36 2.88s-8.8 2.4-10.88 2.88c-4.11 1.43-8.09 2.64-11.51 3.57.42-.79.87-1.64 1.28-2.45.8-1.28 2.08-3.36 2.56-4.16.32-1.12 1.12-2.08 1.12-2.4.48-.8 1.12-1.28 1.44-1.28v-2.4a7.61 7.61 0 0 0-3.68-1.12 3 3 0 0 1-1.76-1.12l-2.08-1.12a3.25 3.25 0 0 1-2.08-1.76c-1.12-1.92-2.4-2.08-4-.8-.48.48-1 .48-1.76-.32a9 9 0 0 0-5.76-.8c-1.6.64-2.08 1.12-3.2 4.8-1.12 3.52-2.56 7-4 10.56-5 11.2-7.36 15.83-9.44 19.83-2.88 5-4 6.72-4.48 8.64a1.22 1.22 0 0 1-.32.8c-.16-.32-1 .8-1.76 2.08a74 74 0 0 1-6.4 7.68 49.45 49.45 0 0 0-7.68 8.64 32.12 32.12 0 0 1-7.36 7.36c-.8.8-1.44 1.28-1.12 1.6 0 .48-4.16 5-9.44 9-1.6 1.6-3.2 2.4-3.2 2.08a1.63 1.63 0 0 1 .8-1.28c.48-.48.48-.48 0-.48-.8.32-1-.8-1.28-5 0-3.2-.32-5.76-.32-6.08.48-.8 0-5.44-.32-7.36a236.39 236.39 0 0 1-.48-26.07 7.17 7.17 0 0 0 0-3.68v-2.08a24.71 24.71 0 0 0 .8-5c.16-4.64 2.56-16.79 4.16-20.15a2.61 2.61 0 0 0 .32-2.4c-.64-2.08-6.72-3.36-8.64-2.08-1 .32-1.28.32-1.28 0-.32-.64-.32-.64-.8-.32-.16.64-1 .64-1.76.32-1.28-.32-1.6 0-1.28.48 0 .32-.16.64-1.76.32-1.92-.32-2.4 0-1.6.48 0 .32.32.48 0 .8 0 1.12-2.56 1.28-2.88 0 0-1.6-1.76-.64-2.56 1.76a6.26 6.26 0 0 1-1.6 1.28c-.8.64-1.12 1.12-3.2 9.28a257.48 257.48 0 0 0-5.76 31.35 21.11 21.11 0 0 1-.32 4.48v1.92s0 .32.48 0a2.7 2.7 0 0 0 .48-1.6c0-1 0-1.28.48-1.28.8 0 .8-.32.8-4.32a46 46 0 0 0 .8-5.28c.16-1.6.48-2.4.48-1.92s.32 2.88.32 5v6.88c0 1.6.32 3.2.32 4.48a20.26 20.26 0 0 1 .8 6.88c.32 3.2.48 6.56.8 8.16a33.62 33.62 0 0 1 .8 6.88c.32 2.4.64 5 1.12 7.36a44.89 44.89 0 0 1 1.28 5c0 1.28.32 1.92.32 1.6a14.13 14.13 0 0 0-.32-4.48c-.64-2.08-.64-4-.32-4a2 2 0 0 0 0-1.92l-.32-1.6v1.6c0 1.12-.16 1.12-.48.8-.48-.8-.48-9 .32-9 .32-.32.48-1.12 0-2.72s-1-2.4-1.28-2.08c-.32 0-.32 0 0-.32a19.54 19.54 0 0 0 .32-5.28c0-5.76-.8-13.91-1.12-12.63V477a4 4 0 0 1 0 2.72c-.32 1.44-1.12-2.24-1.12-5v-13.4c.16-1.57.16-2.36-.3-2.09.07-.11.16-.27.3-.47.8-.8.8-1.28 1.12-3.68a10.88 10.88 0 0 1 .32-3.2c.16-1 .48-.32.48 1.6 0 .8 0 .32.48-2.08l.48-3.68v4.16c-.32 2.4-.48 5.6-.8 7.36a49.52 49.52 0 0 0-.32 6.88v8.32c.32 2.4.48 5.76.8 7.36 0 1.76.32 4.16.32 5a36.19 36.19 0 0 0 .32 7.2 26.83 26.83 0 0 1 1.12 9.44c0 .16.64 2.56 1.12 5a26 26 0 0 1 1.12 4.8c0 .16.16 1.28.48 2.88.48 2.88.16 4-.32 3.68-.32-.16-.32 0-.32.32 0 .8-.48 1.12-.8.32a.34.34 0 0 0-.32.32 19.1 19.1 0 0 1-5 4.48 18.69 18.69 0 0 0-2.4 1.6 21.28 21.28 0 0 1-4.8 3.68c-4.79 3.34-10.87 8.1-15.53 12 1.25-3.65 2-6.35 3.22-10.88a37.23 37.23 0 0 1 1.28-6.08c.64-1.44.8-3.68 1.12-4.16a16.11 16.11 0 0 1 .48-4c.8-2.88 1.92-10.08 2.4-13.43.32-.8.48-2.88.8-4.16.32-4.16.48-8.48.48-12.63 0-17.27-2.88-31.83-6.08-32.95a5.19 5.19 0 0 1-1.6-2.88c-1.12-4-7.36-13.43-9.28-13.43a5.74 5.74 0 0 1-1.6-1.12 23 23 0 0 0-10.56-4l-6.08-1.92a1.94 1.94 0 0 0-2.4-.32 4.44 4.44 0 0 1-2.88 0 13.72 13.72 0 0 0-3.68-.32l-2.08.32 2.88 1c1.6.32 3.36.8 3.68.8s.8 0 .8.32.64.48 1.92.8a22.4 22.4 0 0 1 2.56 1.6 2.54 2.54 0 0 0 1.6.8.76.76 0 0 1 .8.8 6 6 0 0 0 1.92 2.08 9.7 9.7 0 0 1 3.36 4.16c1 1.28 1.44 2.56 1.76 2.56a3.73 3.73 0 0 1 1.6 1.92c.8 1 1.28 2.24 1.6 2.56.32 0 .32.32 0 .32a5.31 5.31 0 0 1-2.56-2.08c-2.08-2.08-2.24-2.08-2.56-.8-.48.8-.48.8-1.28 0-.48-1.28-.48-1.28-.48 0a31.29 31.29 0 0 0 2.08 6.56 4.29 4.29 0 0 1 .48 2.08 10.86 10.86 0 0 0 1.12 3.2 4.89 4.89 0 0 1 1.12 3.2c.32 1.6 1.12 5.28 1.6 8.16a46.83 46.83 0 0 1 .8 12.47c0 3.68-.32 7.36-.32 8.16.48 3.36-.8 10.72-1.6 14.71-.48 1.92-1.76 6.72-2.88 10.08-.64 3.68-2.08 8.16-2.56 10.08a149.84 149.84 0 0 1-5 14.23c-2.56 7.36-9.44 22.39-11 24.31a7.78 7.78 0 0 0-1.76 2.24c-.16.8-1.28 1.6-1.76 2.08-.64 0-2.24 1.92-3.2 3.52s-2.56 3.2-3.36 4.48c-1.6 1.6-1.44 1.6-1.28.32s0-1.28-1.6.32c-2.4 2.08-8.16 4-9.76 3.2a31.12 31.12 0 0 1-2.08-4.8c-1.28-3.36-1.28-5.28-1.6-11.83a94.6 94.6 0 0 1 1.12-17.75c.32-1.12.48-3.36.8-5.28s.64-3.84 1.12-5.76a24.73 24.73 0 0 0 1.12-3.68c0-3 9-26.39 12.63-34.39 1.12-2.08 3.52-7.2 5.6-11s4.16-8.16 4.48-8.64c.48-1.12 1-1.6.8-1.6a13.55 13.55 0 0 1 2.4-4c3.52-5.6 5.28-10.08 5.28-13.75 0-5.12 0-5.12-1.28-4.8-.8 0-.8 0-.48-.48.64-.8-.48-2.4-1.28-2.4a7.08 7.08 0 0 1-2.4-1.92 9.13 9.13 0 0 0-3.36-2.08c-6.08-1.28-8.16-1.6-8.48-1.28 0 .32-.8.32-1.28 0a4.19 4.19 0 0 0-2.4-.32c-.32 0-.8 0-.8-.32 0-1.28-3 .8-6.4 5.6a23.37 23.37 0 0 1-2.56 3.36c-.48 1-1.76 2.08-2.08 3.36-.48.8-1.76 2.88-2.56 4.16a12.37 12.37 0 0 0-1.12 2.56.51.51 0 0 1-.48.48 58.18 58.18 0 0 0-4.8 10.08 13.69 13.69 0 0 1-.8 2.4c-1.44 2.88-1.6 5-1.12 5.76.8 1.12.48 1.28 4.16-6.88a50.34 50.34 0 0 1 4.48-8.16 9.77 9.77 0 0 0 .8-1.92c0-.16 0-.48.32-.48a4.25 4.25 0 0 0 1.6-1.76c1.28-1.28 1.44-1.28 1.76-.48.48.8.32 2.24-2.08 6.4a209 209 0 0 0-9 21.43c-1.19 3.56-2.39 7.12-3.5 10.38a15.86 15.86 0 0 0-6.42-5.1 30.51 30.51 0 0 0-15.35-3.52c-1.12 0-1.92-.16-1.92-.48a4.7 4.7 0 0 1 2.56-2.4 57 57 0 0 0 8.64-6.72c7.68-6.88 13.43-13 14.55-15.35l1.76-2.88a.51.51 0 0 0 .48-.48 6.6 6.6 0 0 1 1.12-2.4c.8-1 .8-1.6.48-1.28-.48.16-.8.16-.48-.32s.48-.8.8-.8c.48.48.8-.32.8-.8a15.62 15.62 0 0 1 1.76-4.8 5 5 0 0 0-.8-1.6 11.08 11.08 0 0 1-.48-3.2c0-2.08-1.12-4.48-4.8-7.68a5 5 0 0 0-.8-1.6c.48-1.44-15-9.44-17.91-9.44a19.09 19.09 0 0 1-4.16-.8 92.43 92.43 0 0 0-17.59-1.76 55.2 55.2 0 0 1-9.44-.48 90 90 0 0 1-9.44.8 24.41 24.41 0 0 1-4.8.48 34.26 34.26 0 0 1-6.88 1.12 37.12 37.12 0 0 1-7.36 1.12 104.37 104.37 0 0 0-21.59 6.4c-6.88 3.2-7.68 4-7.68 4.48s-.16.8-.48.8c-.8 0 .48 3.68 1.76 4a.76.76 0 0 1 .8.8 4.92 4.92 0 0 0 .48 2.08c.48.8.48 1.28 0 1.28-.16 0-.48.8-.48 1.28 0 .8.48 1.28.8 1.28.48 0 .8.16.48.48-.48 1 1.12 3.84 2.4 4.16 2.88.64 4.48.64 8.16-1.12a26.53 26.53 0 0 1 5-1.92 22.37 22.37 0 0 0 2.56-1.6 11.61 11.61 0 0 1 4.48-1.6c5.28-1.6 8.48-2.72 9.76-3.2 2.08-1.44 15.19-3.2 24.47-4 11-.8 31.19 0 36.14 1.28 3.68 1.28 3.2 2.08-4.48 10.08-9.28 9.76-24.63 20.63-43.82 32a29.75 29.75 0 0 1-5.6 3.52 54.51 54.51 0 0 1-9.6 5c-.64 0 1.28-2.88 3.36-6.4 1.6-3.2 3.68-6.72 3.68-7.2.32-.8.64-1.28.8-1.28s.48-.32.48-.8c-.16-1 .8-3.36 2.4-5a23.91 23.91 0 0 0 4.8-7.68c.48-1 2.08-3.2 2.88-5 1.76-2.72 2.08-3.68 2.08-5.6 0-2.56-.48-3.36-1.28-2.88a1.82 1.82 0 0 1-1.28-.48 3.85 3.85 0 0 0-2.88-1.12 29.45 29.45 0 0 0-5.28-.48c-6.08-1.12-17.27 0-19.19 1.6-.32.64-1.6.8-2.88 1.12a6.14 6.14 0 0 0-3.68 1.76 14.27 14.27 0 0 0-2.4 5c0 1-.32 1.6-2.4 5.76a7.19 7.19 0 0 0-1.12 2.88 6.42 6.42 0 0 1-.48 2.4 16.12 16.12 0 0 0-1.12 2.4 66.19 66.19 0 0 1-3.36 8.48c-1.76 3.36-3.36 6.56-4.8 10.08 0 .16-1.12 2.08-1.92 4.16-1.6 3.68-2.4 5.28-1.12 5.28.8 0 4.48-8.16 4.48-9 0-.48.32-.8.48-.8a5.76 5.76 0 0 0 1.76-2.4c.8-1.44 1.6-2.72 1.92-2.72a3.78 3.78 0 0 0 1.96-2.2 12 12 0 0 1 2.08-2.88 6.33 6.33 0 0 0 1.6-2.4l.48-1.28c.16.16 0 1.44-1.12 5 0 .32-.32 1.12-.32 1.6-.32.64-1.28 2.88-2.08 4.8-.8 2.08-4 9-7.2 15.51-5.28 11-12.15 30.07-17.11 45.58a67.88 67.88 0 0 1-2.88 8 36.4 36.4 0 0 0-2.4 5.76 29.51 29.51 0 0 1-2.4 5.6l-1.15 1.82.32-2.08a19.4 19.4 0 0 1 1.76-4.8c.8-1.76 1.6-3.68 1.92-4.48a11.12 11.12 0 0 1 .8-2.08c0-.32.48-1.12.48-1.6.16-1.12-.8-.8-2.4 0-.8.32-4.64 8.32-7.84 15.35a21.36 21.36 0 0 1-1.12 2.88c-.32.48-.32.8 0 .8.64 0 .64.8.32 2.08-.32 2.08 0 3.2 1.28 3.2a.76.76 0 0 1 .8.8 14.76 14.76 0 0 0 4 2.4c1.92.8 4.8 2.56 6.88 3.68 1.92 1.6 4 2.4 4.48 2.08a7 7 0 0 0 4-4.48c.64-1.28 1.44-1.92 1.92-1.6.48 0 1.28-1.28 2.08-4.16 1-2.56 1.44-4.64 1.76-5 0-.64.32-1.44.32-1.92l1.6-2.88a14 14 0 0 0 1.12-3.68c0-.8.16-1.6.48-1.6a2.7 2.7 0 0 0 .48-1.6c0-.8 0-1.28.32-1.28a18.16 18.16 0 0 0 2.4-3.68l1.6-3.36-.32 4.48a17.57 17.57 0 0 0 .48 5.76c.8.32 1.12 1.44 1.12 2.72.32 3.36 1.6 6.4 2.4 6.08s1.28.32 2.56 2.4c2.08 3.68 3.84 4.8 8.16 4.8s13.75-2.88 13-4.16a16.12 16.12 0 0 1 3.68-1.92c10.88-4.8 12.63-5.6 18.23-9.28a50.9 50.9 0 0 1 6.4-3.68c1.28-1 5.12-3.2 7.68-5.28a30.68 30.68 0 0 1 5.6-3.68.51.51 0 0 0 .48-.48A4.07 4.07 0 0 1 540 552c3.67-2.35 13-11.72 19.47-18.56q-.5 3.12-.92 6.25c-1 10.08-1 24.63.32 25.11a7.47 7.47 0 0 1 .8 1.6c0 .48 1.12 2.88 1.6 5.28a42.69 42.69 0 0 0 2.08 6.4 6.09 6.09 0 0 1 1.28 2.72l.8.8c.48.16.48.48.48.48-.8 0 0 .48 4.48 5.28a15.11 15.11 0 0 0 5 3.36 11.93 11.93 0 0 1 2.56 1.92c0 .16.8.16 1.28.48 1.12 0 1.6.16 1.6.48.32.16 1.6.16 4.8-.32.8-.16 1.28.16 1.28.32s-.8.48-2.08.48c-.8.32.8.32 4.48 0 6.88 0 9.28-.48 11.36-2.08.64-.16 1.44-.32 2.08-.48.32 0 .8-.16.8-.48a13.81 13.81 0 0 1 2.56-1.6c1.44-.8 3.2-2.24 4-2.72a2.48 2.48 0 0 1 1.76-1.28 7.32 7.32 0 0 0 2-1.11c1.12-.32 1.28 0 1.6 1.6.48 1.92.8 2.08 2.88 2.4a8.7 8.7 0 0 0 2.88 0 9.36 9.36 0 0 1 2.08-.32c1.12-.48 1.6-1 3.2-3.36 1-1 1.6-1.92 2.4-2.88.32-.32 8-10.56 8-10.88a64.31 64.31 0 0 1 7-9c2.08-2.24 4.16-4.32 6.4-6.4 4.64-4.16 9-8.16 11-10.24a22.19 22.19 0 0 1 6.56-5.6c1.76-1.44 2.24-1.6 2.56-1.12s.32.16.32-.32c0-1.12 1.28-2.88 1.6-2.4 0 .48.8 2.88 1.92 6.88 1.6 4.8 3.36 9.6 3.68 10.08a6.39 6.39 0 0 1 1.12 2.88c.48 1.28 1 3.2 1.28 3.68.48 1.6.48 1.6-.32-.32a8.61 8.61 0 0 1-1.6-3.2c-.16-1-1-2.4-1.28-3.68-1.28-2.4-1.28-2.72-3.2-8.48-1.6-5.6-2.08-6.88-2.4-6.08 0 .32.32.48.32.8.32 0 .32.48.32.8 0 .48-.16.48-.8 0s-.64-.48-.32.32a11.71 11.71 0 0 1 1.28 4c.32 1.6 1.44 4.16 1.92 6.08a18.34 18.34 0 0 1 1.76 5 20.84 20.84 0 0 1 1.28 2.72 21.89 21.89 0 0 1 2.4 6.08c-.16.32 0 .48.32.8.48 0 .48.16.48.48a4.26 4.26 0 0 0 .48 1.92 9.06 9.06 0 0 1 1.28 2.08 46.86 46.86 0 0 0 4.48 9c1 2.08 2.08 2.88 2.88 1.6 0-.16.8-.16 1.28.32a10.15 10.15 0 0 0 5 .8 14.16 14.16 0 0 0 3.68 0c0-.32 1-1.12 1.76-1.6 1.6-.8 1.92-.8 2.4-.32l.48.48a1 1 0 0 0 1.44-.48c0-.16.48-.48.8-.48a1.82 1.82 0 0 0 1.28-.48c.8-.48-2.56-7-4.48-9a51.92 51.92 0 0 1-4.48-8.32 11.14 11.14 0 0 0-1.76-3.68 46.43 46.43 0 0 1-2.56-6.56c.32-.32 0-1.12-.48-1.92-.8-1.28-1.6-4.48-2.88-9.76-.32-1.6-1.12-4.48-1.6-6.56a21.17 21.17 0 0 1-1.28-5.28V524c0-.8 1.76-2.4 9.44-9 5.28-4.32 9.76-8 10.08-8s1.44-1.12 3.2-1.92a13.31 13.31 0 0 1 2.88-2.08c1.28 0 14.23-13.75 19.19-20.31a22.93 22.93 0 0 1 3.2-3.68c1.44-1.76 2.88-3.68 4.16-5.6 2.08-2.56 4.16-5 4.16-5 .32-.16.64-.48.32-.48a8.61 8.61 0 0 1 1.12-2.08 9.41 9.41 0 0 0 1.88-2.47 19.4 19.4 0 0 1 1.32 5.67 62 62 0 0 1-3.68 9c-1.44 2.88-2.88 5.76-4.16 8.8a11.09 11.09 0 0 1-.8 2.08 77.46 77.46 0 0 0-4.54 10.62c-2.08 5-3.84 9.12-4.16 9.44-1 .8-10.56 2.4-12.63 1.92-.16 0-.32-.16-.48-.32-1.28.64-4.64-1-5.76 1.92.48.8 2.56 5.6 2.08 6.08-1.28 1.6 1.6 13.75 4 17.43 2.08 3.2 2.08 4-.32 9a21 21 0 0 0-2.08 6.08c-.64 1.6-4 15-4.8 16.63a5 5 0 0 0-.32 4c.16.8 0 1.28-.32 1.28-.48.16-.16 1.44 1.12 4.16 1.76 4.16 5.28 7.36 7.36 7.36.8-.16 1.28.64 1.6 1.12a9.61 9.61 0 0 0 4.48 2.08c4 1.12 5.92 1.12 8.48 0a32.06 32.06 0 0 1 4.16-1.6c2.08-.48 3.36-1.12 4.16-2.4a6.46 6.46 0 0 1 2.08-2.08 1.72 1.72 0 0 0 1.6-1.6v-.16a1.54 1.54 0 0 1 1.12-1.44 8.56 8.56 0 0 0 2.4-2.4 4.45 4.45 0 0 1 1.92-1.92c.8 0 7.68-6.4 7.36-6.88-.32-.32 0-.32.48-.32.48.32.8 0 .8-.48.16-.32.16-.8.48-.8a14.45 14.45 0 0 0 3.36-4.8 3.32 3.32 0 0 1 1-1.6c.32-.48.8-1 .8-1.28a4 4 0 0 1 1.76-4.16c2.4-2.88 3.68-5.28 3.2-5.6h-.16a1 1 0 0 0-1.28.64c0 .48-1.12 1.28-1.92 1.28-1.28.8-2.56 1.6-3.68 2.4-1.6 1-4.48 2.88-6.56 4.16-1.6.8-3 1.6-4.48 2.4 0 .32-.8 1.12-2.08 1.6a20.81 20.81 0 0 1-2.4 1.6 16.14 16.14 0 0 1-2.56 2.08c-1.12 1.12-2.4 1.6-2.4 1.92-2.4 1.6-4.8 3-7.36 4.48-.32 0-.32-1.12 0-1.6a45.88 45.88 0 0 0 .8-5 34.56 34.56 0 0 1 2.56-7.84 52 52 0 0 0 2.88-6.88 56.27 56.27 0 0 1 2.56-5.6 16.12 16.12 0 0 0 1.92-3.68 23.1 23.1 0 0 1 3.36-6.56c.32 0 .48-1.12.8-1.6.16-1.12 9-6.08 11-6.08a4.31 4.31 0 0 0 2.4-.8c1-.64 8.16-2.88 13.91-3.36A58.79 58.79 0 0 0 797.6 516a22.7 22.7 0 0 1 6.4-1.92 8.81 8.81 0 0 0 4-1.6 7 7 0 0 1 4-1.28c3.84 0 6.72-.8 6.4-1.28-.48-.32 0-.64.8-.32 1.28.32 1.6.32 1.6-1.28a7.47 7.47 0 0 0-.48-2.72 4.41 4.41 0 0 1 .48-3.52c1.44-2.08 1.44-1.92.32-4.8-1-2.08-1-2.08 1.12-4 2.4-1.76 2.56-3 1.28-5.76-.8-1.6-1.44-2.24-2.56-.8s-3.2 1.92-3.2 1.12c0-1 2.72-3.36 4-3.68.8-.32-.8-.32-2.88-.32a20.75 20.75 0 0 0-5.28 1.16 63.31 63.31 0 0 1-15 4.8c-3.36.8-8 1.76-9.76 2.08a11.06 11.06 0 0 0-4 1.6c-.32.8-1.6 1.12-2.88 1.12q-2.4 0-2.4.48c.16.32-.32.64-1.92.32-1-.32-1.6-.32-1.28 0 .48.16-1.28 1-4.48 2.08-3.2.8-5.44 1.92-5.76 1.92-.8.32.16-3.36 1.28-5.28.32-.8 1.76-5.12 3.68-9.28 3-7.36 5.92-13.43 6.4-13.75.32-.32 1.28-2.4 2.88-4.8l2.4-4.48 5.6-2.08a70.68 70.68 0 0 1 9-3.2c2.24-.8 5.12-1.76 7.2-2.56a53.09 53.09 0 0 0 5.6-2.08c1.28-.16 2.88-1 4.48-1.28a19.06 19.06 0 0 0 3.2-1.28c.16-.16.32-.32.48-.32a11 11 0 0 0 4-.32c4-.64 5.28-1.28 8.48-1.76a35.19 35.19 0 0 0 3.78-1.38 6.93 6.93 0 0 0-.74 2.34 1.63 1.63 0 0 1-.8 1.28 24.13 24.13 0 0 0-2.4 4.48c-.16.32-.16.64-.48.8s-.32.48 0 .48a28.65 28.65 0 0 0 3.2-4.48c4.64-7.36 11.36-14.55 11.83-13.75.16 0 0 .48-.32.8a9.32 9.32 0 0 0-1.76 2.4c-.64.8-2.08 3.68-4 6.56a86 86 0 0 0-12.63 30.07c-1.12 5.28-1.44 17.91-.32 20.79a12.34 12.34 0 0 1 1.12 4.16c0 1 0 1.28.32.48.48-1.28.48-1.28.8 0a63.8 63.8 0 0 0 4 9 59.61 59.61 0 0 1 2.56 5.6c2.08 5.12 2.88 6.56 8.16 13A111.33 111.33 0 0 1 854 545.87c1.28 2.56 1.6 3.36 1.28 5.28a27.23 27.23 0 0 1-3.68 10.24c-1.28 1.92-2.08 2.72-2.08 1.92.32-1 0-1.28-1.28-.48-1.76 2.24-4.64 2.72-12.63 2.72-7.36.16-10.72 0-15.51-1.92a21.29 21.29 0 0 0-4.48-1.6 17.77 17.77 0 0 1-2.62-1.23c-.32-.32-.8-.32-.8 0 0 .48 1 1.12 2.56 1.6 3.68 1 3.68 1.6-.32.48-3.2-.8-5.6-2.4-4-2.4.48 0 .16-.32-.32-.8a2.54 2.54 0 0 1-1.28-1.6.51.51 0 0 0-.48-.48c-.32.32-.32.32-.32 0a4.52 4.52 0 0 0-2.08-2.72 7.4 7.4 0 0 1-2.08-2.88c0-.16-.48-.48-.8-.48-1 .16-1.28-.32-1.28-1.12s0-.8-.32 0c-.8 1.12-.8.8-1.6-.48-.8-.48-1.28-1.12-1.6-.8a3.5 3.5 0 0 1-.48-.8c0-.48-.16-.8-.48-.8s-.48.16-.32.48.16.32-.32 0a2.7 2.7 0 0 0-1.6-.48c-.32 0 .8.8 2.56 2.4 1.6 1.12 2.72 2.4 2.4 2.4a.16.16 0 0 1-.16.16c-.32.16-.64 0-.64-.32a3 3 0 0 0-1.6-.8c-.48 0-.48 0 0 .48a2.37 2.37 0 0 1 0 2.08c-1.12 1.44-.8 3.68 0 4.16.32 0 .32.48.32.8-.16 1 .8 2.4 1.6 3.68.48.8.48 1 0 1.28-.32.48.16 1.28 2.56 3.68a12.86 12.86 0 0 1 3.68 3.52 6.6 6.6 0 0 0 1.6 2.08A9.28 9.28 0 0 0 809 575a7.4 7.4 0 0 0 2.56 2.4 18.86 18.86 0 0 1 3.36 2.88 20.22 20.22 0 0 0 4.16 2.08c1.6.8 3.36 1.44 4.16 1.92a8 8 0 0 0 3.36.8 17.43 17.43 0 0 0 4.16.48c2.56.8 14.23-.48 17.91-1.6a32.79 32.79 0 0 0 9-5 44.31 44.31 0 0 1 3.68-2.72 6 6 0 0 0 2.4-2.08 17.86 17.86 0 0 1 4-4.48 3.12 3.12 0 0 0 1.92-2.08 30.31 30.31 0 0 0 2.4-12 42.41 42.41 0 0 0-3.68-7.68c-3.2-6.08-4-7.36-13.43-18.23-1.28-1.6-2.88-3.52-3.36-4a6.26 6.26 0 0 0-1.28-1.6 82.47 82.47 0 0 1-6.4-10.08l-1.92-3.68v-8.64a81.3 81.3 0 0 1 .48-10.88c.16-.8.8-3.2 1.28-4.8a26.53 26.53 0 0 1 1.92-5 82.71 82.71 0 0 0 4.16-9 86 86 0 0 1 6.08-10.56 5.37 5.37 0 0 0 1.6-2.56l-.16-.16c-.16-.16 0-.48.16-.64a55.11 55.11 0 0 0 4.16-4.48 104.12 104.12 0 0 1 8.16-8.64l4.8-4.8.8 1.6c.32 1 .32 1.28 0 1.76-.48.8-.48 1.6 0 4 .8 5 .8 5.76.48 5.76s-.48-1.12-.8-1.92c-.32-1.92-1.12-2.4-1.6-1.6a35 35 0 0 0 .48 5.76 47.28 47.28 0 0 1 .32 5.28 45.87 45.87 0 0 0-.8 5c-.8 5-2.56 10.88-3.36 11.36a.34.34 0 0 0-.32.32c.32 0-.48 1.44-1.6 3.36-2.08 4.48-2.08 6.88.8 6.88 1 0 1.6.16 1.28.48-.16.16-.32.32-.48.32-.32-.32-.32.48-.32 1.28s0 2.24-.48 2.72c-.64 1.12-.64 1.6-.32 1.6.32.32.48-.48.8-1.28.32-1 .8-1.28 1.12-1.28s.8-.8 1.12-1.6c1.12-2.08 2.08-2.4 1.6-.48 0 .64.32-.16 1.12-2.08 1.6-3.2 4.48-6.08 5.28-4.48.48.32.8 0 1.28-.48a2.48 2.48 0 0 1 1.76-1.28c.48.32 1.6 0 2.4-1.28 1.12-1.12 1.6-1.6 1.6-1.92a7.57 7.57 0 0 0 1.76-2.08 6.2 6.2 0 0 0 2.4-4.16 44.05 44.05 0 0 1 1.28-4.8c1.6-3.52 2.56-11.2 2.88-16.15a44.36 44.36 0 0 0-3.64-16.65ZM551.31 513.3c-1 1.6-1.76 3.2-2.56 4.8-2.08 4-7 10.08-8.64 9.76-.48 0-.48 0 .32-.48.48-.8.8-1 .8-1.28l1.76-2.88a7 7 0 0 0 1.92-2.88 7.67 7.67 0 0 1 .8-2.72 2 2 0 0 0 .32-2.08c-.8-.64-2.88 1.6-4 4.32-1.12 2.24-1.28 2.4-9 10.08a62.4 62.4 0 0 1-10.03 9.43 80.65 80.65 0 0 0-6.4 5.28 20.59 20.59 0 0 1-7.84 5.28l-2.87 1.07a23 23 0 0 1-6.4 2.08 48.46 48.46 0 0 0-6.88 1.92 17.4 17.4 0 0 1-4.8 1.12 8.38 8.38 0 0 0-4 .48.88.88 0 0 1-.8-.48c-.48-.8.8-4.48 2.08-4.8 1.12-.16.48-2.08-.8-2.08s-6.56 5.76-6.56 6.56a4.26 4.26 0 0 0 .48 1.92 1.45 1.45 0 0 1 0 1.6 11 11 0 0 0-.48 1.28c.48 2.72-1.44 4.32-1.92 1.6-.32-1.12-.48-1.6-.8-1.6s-.32-.8-.32-1.6c.16-1 0-1.28-.32-.48-.48.8-.8.48-.48-.8.16-1.28.32-2.4.48-3.52a3.51 3.51 0 0 1 .8-1.92c.8-.48.8-.48 0-.48a2.54 2.54 0 0 0-1.6.8c-.48.16-.48.16-.48-.32 0-.8.32-1.28.8-1.28.48-.32.48-.48.48-.8a1.24 1.24 0 0 0-1.28.32c-.48.64-.8.64-.8.32s-.64.48-1.12 1.28c-.8.8-1.28 1.28-1.28.8 0-1.28 3.68-10.24 4.48-10.56a3.37 3.37 0 0 0 .8-2.08 7.54 7.54 0 0 1 1-2.4 2.88 2.88 0 0 0 1.12-2.4c1-3.36 4.48-6.56 13.11-11.83a10.08 10.08 0 0 1 4.8-1.6c.8.32.8.32.32 0-.32-.48.16-.8 2.56-2.08a20.63 20.63 0 0 1 4.48-1.28c.8 0 1.28 0 1.28-.32.32-.32 1.12-.32 1.6-.32.8.16 1.28 0 1.28-.32s.32-.48.48-.32.48 0 .48-.32c0-1.12 4.32-1.92 4.8-1.12.32.32.32.32.32-.48 0-.48.48-.8 1.28-.48.8 0 1.28 0 1.28-.32a13.19 13.19 0 0 1 4.16-1.6 7.34 7.34 0 0 0 4-1.6c0-.32 1.12-.32 1.6-.32 2.88 0 7.36-1.12 7.68-1.6 0-.32 1.12-.32 1.6 0 1.12.16 1.6 0 1.6-.32 0-.48.64-.48 1.92-.48 1.6.32 1.76.32 1.28 0-1.28-.8 6.88-.32 10.08-.48 2.83.85 3.95 2.61 2.03 5.01Zm13.59 67c-.16-.32-.48-.48-.48-.8 0-1 .48-.48.8.32 0 .81-.16.81-.32.49Zm52.46-18.39c-.16.16-.48.48-.64.16 0-.16.16-.32.32-.48.8-.79.8-.47.32.33Zm1.12-1.76c-1.6 1 1.12-1.76 3.2-3.36a7.08 7.08 0 0 1 2.4-1.92c.32.01-4.48 4.01-5.6 5.29Zm62.85 3c-.32-.48-.32-1.12 0-1a11 11 0 0 1 .48 1.28c.32 1.69 0 1.37-.48-.23ZM799.52 556c0-.32.32-.32.8 0 .16.32.32.48.48.8-.8.64-1.6-.16-1.28-.8Zm1.28 3c-.32-.16-.32-.48-.32-.8s0-.32.32-.32c.16.32.48.48.48.8 0 .2-.28.2-.48.32Zm45.1-122.51c-.48.48-.48.48-.48 0s.16-.8.48-.8c.8-.76.8.04 0 .84Z" style="fill:#fff"/>
</svg>
