<svg xmlns="http://www.w3.org/2000/svg" viewBox="0 0 1024 1024">
   <circle cx="512" cy="512" r="512" style="fill:#000"/>
   <path d="M260.151 324.398v65.198c7.787 9.046 16.679 17.064 25.211 25.365.359-14.957.693-29.914 1.027-44.845 46.567 46.258 93.082 92.593 139.185 139.339-45.41 46.489-92.156 91.642-137.437 138.26-1.748-21.51-14.057-38.523-27.986-53.865v100.611h67.768c9.071-7.813 17.089-16.705 25.39-25.262-15.805-.386-31.635-.643-47.466-.977 46.258-46.566 92.568-93.029 139.288-139.107 19.171 15.573 35.259 36.415 59.364 44.459 32.663 3.906 52.117-27.036 73.602-45.924 45.641 45.924 91.076 92.104 137.565 137.18-19.094 5.448-35.104 16.936-49.958 29.631h98.143v-62.628c-7.786-9.046-16.678-17.064-25.21-25.365-.36 14.931-.72 29.888-1.028 44.844-47.106-46.797-94.16-93.646-140.778-140.906 46.695-46.309 93.312-92.696 139.442-139.545.642 22.615 12.412 40.939 27.574 56.692V324.398h-73.138c-8.712 8.069-17.013 16.55-25.365 24.979 17.604.463 35.182.874 52.76 1.285-54.045 54.713-109.015 108.552-162.777 163.573-11.872 11.41-23.231 24.311-38.651 30.993-13.62 2.57-24.156-6.553-32.611-15.522-58.645-59.493-117.572-118.754-177.168-177.322 21.484-1.748 38.523-14.057 53.865-27.986H260.151Zm170.743 0c-8.301 8.044-16.319 16.422-23.72 25.313 22.975-2.955 52.734 9.56 70.286-10.896 5.551-4.729 10.871-9.714 16.447-14.417h-63.013Zm131.295 0c-8.738 8.172-17.064 16.781-25.416 25.339 21.381.18 42.763.103 64.144-.18 8.429-8.48 16.807-17.038 25.622-25.159h-64.35ZM260.151 460.679v62.859c8.352 8.84 17.141 17.192 25.93 25.57-.334-19.068 1.311-38.368-1.233-57.308-6.04-11.847-16.448-20.816-24.697-31.121Zm477.766 11.641c.334 19.043-1.31 38.369 1.234 57.309 6.039 11.847 16.447 20.816 24.696 31.121v-62.859c-8.352-8.841-17.141-17.193-25.93-25.571ZM455.076 668.325c-8.39.031-16.76.355-25.056 1.491-11.847 5.987-20.716 16.447-31.021 24.645h62.859c8.841-8.352 17.193-17.141 25.571-25.93-10.742.187-21.562-.25-32.353-.206Zm133.773.057c-8.44-.016-16.856.272-25.198 1.408-11.847 6.013-20.713 16.473-31.018 24.671h60.752c9.791-8.044 18.863-16.884 28.011-25.648-10.811.116-21.7-.411-32.547-.431Z" style="fill:#fff"/>
</svg>
