<?xml version="1.0" encoding="utf-8"?>
<!-- Generator: Adobe Illustrator 21.0.0, SVG Export Plug-In . SVG Version: 6.00 Build 0)  -->
<svg version="1.1" xmlns="http://www.w3.org/2000/svg" xmlns:xlink="http://www.w3.org/1999/xlink" x="0px" y="0px"
	 viewBox="0 0 1024 1024" style="enable-background:new 0 0 1024 1024;" xml:space="preserve">
<style type="text/css">
	.st0{fill:#00FF00;}
	.st1{fill:#FFFFFF;}
</style>
<g id="Min_Guides__x28_DO_NOT_REMOVE_x29_">
</g>
<g id="Max_Guides__x28_DO_NOT_REMOVE_x29_">
</g>
<g id="Icon">
	<circle id="Background" class="st0" cx="512" cy="512" r="512"/>
	<path class="st1" d="M774.2,253.4l-7.6-1.9l4.1-6.9c0.3-0.4,0.2-1-0.3-1.3c-0.4-0.3-1-0.3-1.3,0.1l-6.8,7.1l-16.5,6.4
		c-2.1-2-5.1-2.6-7.8-1.6c-3.9,1-5.9,0.6-8.1,0.1c-2.7-0.5-5.5-1.1-11.3,1.1c-0.5,0.2-0.7,0.2-1.2,0.1c-1-0.1-2.4-0.4-6.7,1.1
		c-4,1.3-5.9,4.1-7.4,6.4c-1.1,1.6-1.9,2.8-3.1,3.1c-8.4,0.6-15.8,6.2-18.9,14.1c-3,7.9-1.2,16.9,4.6,23.1c1,1.4,3.3,4.7,2.5,5.5
		c-0.6,0.6-0.9,0.6-1.2,0.6c-0.4,0-1.3-0.4-2.8-2.6c-6.2-9.3-14.7-17.1-24.5-22.5c0,0-0.1,0-0.1-0.1c-15.6-6.1-33-2.9-45.4,8.4
		C602.2,304.9,597.4,322,602,338c6.1,27.5,30,52.7,53,77.1c15.7,16.6,30.6,32.4,38.6,47.6c17.5,32.7-0.2,48.1-8.7,53.2
		c-9.7,6-21.5,8.1-32.6,5.8c12.8-20.3,11-46.9-4.4-65.4c-20.1-22.1-38.5-10.2-38.7-10.1c-0.4,0.3-0.5,0.7-0.4,1.2s0.6,0.7,1.1,0.6
		c13.2-1.6,27.3,7.2,34.4,21.3c7.8,15.5,5,32.7-7.4,46.1c-8.9-5.8-16.9-12.9-23.8-21c-0.3-0.3-0.7-0.8-1.2-1.3
		c-18.3-20.1-35.6-29.6-51.7-28.2c2-12.9-1-27.1-8.6-41.2c-7.4-13.7-18.8-26.1-32-34.9c-3.2-2.2-6.6-4.1-10.1-5.6
		c-3.4-40.3-28.7-60.8-51.3-66.5c-25.7-6.5-51.7,3.6-66.1,25.8c-14.3,21.8-22.1,49-29.6,75.3c-6,21.1-11.7,41.1-20.4,57.5
		c-7.1,13.4-15.7,22-24.1,24.1c-5.1,1.3-10.3,0.2-15.4-3.3c-12.1-8.3-6.9-23-2.7-34.9c1.3-3.7,2.5-7.1,3.1-9.9
		c1.6-5.6,0.6-11.6-2.7-16.4c-3.4-4.8-8.7-7.7-14.5-8.1c-14.1-1.1-20.5,13.4-23,18.9l-0.1,0.3c0,0,0,0.1,0,0.1
		c-0.8,2.7-2.9,4.7-5.7,5.2c-2.8,0.5-5.5-0.7-7.1-3c0,0-0.1-0.1-0.1-0.1c-0.8-0.9-1.5-2.6-2.2-4.4c-1.2-2.9-2.5-6.1-5-7.9
		c-2.4-1.7-3.9-2.1-5.2-2.5c-0.8-0.2-1.4-0.4-2-0.9c-4.9-3.7-7.8-4-10.5-4.3c-2.1-0.2-4.4-0.5-7.9-2.4c-2.5-1.8-5.8-1.9-8.4-0.4
		l-12.9-10.6L191,406c-0.2-0.5-0.8-0.7-1.3-0.5c-0.5,0.2-0.7,0.7-0.6,1.2l2.2,7.6H183c-0.5,0-0.9,0.4-1,0.9s0.3,1,0.7,1.1l9.6,2.4
		l12.9,10.6c-0.7,2.8,0.3,5.8,2.5,7.6c2.9,2.9,3.5,4.9,4.3,7.1c0.9,2.6,1.8,5.3,6.4,9.2c0.4,0.4,0.5,0.5,0.7,1
		c0.4,0.9,0.9,2.2,4.2,5.1c3,2.8,6.5,3,9.2,3.1c1.9,0.1,3.5,0.2,4.3,1.1c4.7,7,13.2,10.8,21.6,9.5c8.4-1.3,15.4-7.4,17.8-15.5
		c1.1-2.5,2.5-5.1,3.6-4.8c0.8,0.2,1,0.5,1.1,0.7c0.2,0.4,0.3,1.4-0.8,3.8c-4.9,10-7.4,21.3-7.2,32.5c0,0,0,0.1,0,0.1
		c2.5,16.6,14,30,30,35.1c16,5.1,33.1,0.7,44.7-11.3c20.8-19.1,30.7-52.4,40.3-84.7c6.5-21.9,12.6-42.5,21.8-57
		c18.6-29.4,39.9-24.7,50.8-19.3c10,5.4,17.8,14.6,21.3,25.4c-23.8-0.8-45.9,14-54.1,36.5c-9,28.5,10.4,38.5,10.6,38.6
		c0.4,0.2,0.9,0.1,1.2-0.3c0.3-0.4,0.3-0.9,0-1.2c-7.9-10.5-7.5-27,1-40.1c9.5-14.6,25.8-21.1,43.7-17.3
		c-0.5,10.4-2.4,20.6-5.8,30.6c-0.1,0.3-0.2,0.8-0.4,1.3c-8.1,26.1-7.7,46,1.3,59.4c-24.5,9.7-43.2,39.5-45.7,73.1
		c-0.4,3.8-0.4,7.7-0.1,11.5c-33.2,23-38.3,55.2-32,77.8c7.1,25.6,28.7,43.1,55,44.6c26,1.5,53.4-5.3,79.9-12
		c21.3-5.3,41.4-10.4,60.1-11.1c15.2-0.5,26.8,2.6,32.8,8.8c3.7,3.8,5.3,8.8,4.8,14.9c-1.1,14.6-16.5,17.6-28.8,19.9
		c-3.8,0.7-7.4,1.4-10.2,2.4c-5.7,1.4-10.3,5.3-12.8,10.6c-2.4,5.3-2.3,11.4,0.3,16.6c5.4,11.6,20.5,10.9,26.9,10.6
		c0.5,0,0.9,0,1.3-0.1c3.7,0,6.3,1,7.7,2.9c1.6,2.1,1.4,5.2,0.8,7.3c-0.4,1.3-1.6,2.8-2.8,4.4c-1.8,2.4-3.9,5-4.2,8.2
		c0,3.3,0.2,4.8,0.3,5.7c0.1,0.9,0.1,0.9-0.3,1.8c0,0.1-0.1,0.2-0.1,0.3c-0.8,6.1,0.4,8.8,1.5,11.3c0.9,2.1,1.8,4,1.8,7.9
		c-0.3,3.1,1.3,6,4,7.5l-2.4,16.9l-5.3,8.3c-0.3,0.4-0.2,1,0.2,1.3c0.4,0.3,1,0.3,1.3-0.1l5.5-5.6l4,7c0.2,0.3,0.5,0.5,0.9,0.5
		c0.1,0,0.3,0,0.4-0.1c0.5-0.2,0.7-0.7,0.6-1.2l-2.8-9.5l2.5-17.1c2.7-0.8,4.8-3.1,5.3-5.9c1.1-3.9,2.5-5.5,4-7.2
		c1.8-2.1,3.6-4.2,4.6-10.2c0-0.1,0-0.1,0-0.2c0-0.5,0.1-0.6,0.4-1c0.6-0.8,1.6-1.9,2.5-6.2c0.6-2.7-0.7-5.7-1.7-8.3
		c-0.9-2.1-1.7-4.1-1.3-5.2c3.8-12,0.8-19.3-2.4-23.2c-4.7-5.8-13-8.7-22.3-7.9c-2.6,0-5.9,0-6.1-0.7c-0.1-0.5-0.1-0.9,0.1-1.2
		c0.3-0.4,1.1-1.1,3.6-1.2c11.2-0.7,22.2-4.2,31.8-10c0,0,0.1,0,0.1-0.1c13.1-10.4,18.9-27.1,15.4-43.4c-3.6-16.4-15.9-29-32.1-33.1
		c-26.9-8.1-60.5-0.2-93.1,7.5c-22.3,5.3-43.4,10.2-60.6,9.6c-35.6-1.4-41.7-22.1-42.2-34.4c-0.4-11.4,3.8-22.6,11.3-31.1
		c11.2,21.2,35.1,33,58.8,28.9c29.2-6.4,28.1-28.1,28.1-28.4c0-0.5-0.4-0.8-0.8-0.9c-0.5-0.1-0.9,0.2-1.1,0.6
		c-5.2,12.2-19.9,20.1-35.7,19.2c-17.3-1-30.9-11.9-36.4-29.2c9.4-4.8,19.5-8.2,30-10.2c0.4-0.1,1-0.2,1.7-0.4
		c26.6-5.8,43.6-16.2,50.3-30.7c24,18,61.6,14.9,86.7,2.3c3.4-1.6,6.7-3.6,9.8-5.9c36.6,17.1,67,5.5,83.4-11.2
		c18.6-18.9,22.9-46.4,11.2-70c-11.7-23-31.4-43.3-50.4-63c-15.3-15.8-29.7-30.7-39.6-46.3c-8.1-12.9-11.2-24.6-8.8-32.9
		c1.5-5,5-8.9,10.5-11.5c13.2-6.3,23.5,5.4,31.8,14.7c2.6,2.9,5,5.6,7.3,7.5c4.1,4.2,9.7,6.3,15.5,5.8c5.8-0.5,11-3.7,14.2-8.5
		c7.1-10.5-1-23.3-4.1-28.2c-0.3-0.5-0.6-1-0.8-1.3c0-0.1-0.1-0.1-0.1-0.2c-1.9-2-2.4-4.8-1.4-7.4c1-2.6,3.2-4.3,6-4.6
		c0,0,0.1,0,0.1,0c1.2-0.2,3,0,4.9,0.3c3,0.4,6.5,0.9,9-0.4c2.2-1.1,3.4-2.2,4.4-3c0.8-0.7,1.3-1.1,2.1-1.5c5.6-2.4,7.3-4.7,8.9-6.9
		c1.3-1.8,2.6-3.5,6-5.5c2.9-1.1,4.8-3.8,4.9-6.9l16-6.4l9.9-0.1c0.5,0,0.9-0.4,1-0.9C775.1,254,774.7,253.6,774.2,253.4z
		 M506.6,537.6c-11,9.3-30.8,16.3-45.3,21.4c-2.6,0.9-5.1,1.8-7.3,2.6c3.5-15.6,11.5-29.5,23.2-40.4c6.5-6.6,15.2-10.5,24.5-11.2
		c5.4-0.2,10.6,3.1,12.5,7.9C516.6,524,513.8,531.2,506.6,537.6z M528.7,473.1c-2.9,5-8.2,7.8-13.2,6.9c-6.1-1.1-10.5-7.2-12.2-16.8
		c-3.1-13.1,0.4-32.9,2.9-47.3c0.6-3.6,1.2-6.8,1.6-9.6c11.8,10.7,20,24.6,23.6,40.2C533.7,455.4,532.8,464.9,528.7,473.1z
		 M568.5,530.2C568.5,530.2,568.5,530.2,568.5,530.2c-9-2.4-16.8-8-21.9-15.6c-2.5-4.4-2.7-9.5-0.5-13.3c2.1-3.7,6.2-5.9,11.4-6.1
		c0.1,0,0.1,0,0.2,0c3.5-0.1,7,0.6,10.3,1.7c12.4,4.2,27.6,16.9,38.7,26.2c3.1,2.6,5.8,4.9,8.1,6.7
		C599.7,534.6,583.8,534.8,568.5,530.2z"/>
</g>
</svg>
