<svg xmlns="http://www.w3.org/2000/svg" viewBox="0 0 1024 1024" style="enable-background:new 0 0 1024 1024" xml:space="preserve">
   <circle cx="512" cy="512" r="512" style="fill:#0f0"/>
   <path d="m774.2 253.4-7.6-1.9 4.1-6.9c.3-.4.2-1-.3-1.3-.4-.3-1-.3-1.3.1l-6.8 7.1-16.5 6.4c-2.1-2-5.1-2.6-7.8-1.6-3.9 1-5.9.6-8.1.1-2.7-.5-5.5-1.1-11.3 1.1-.5.2-.7.2-1.2.1-1-.1-2.4-.4-6.7 1.1-4 1.3-5.9 4.1-7.4 6.4-1.1 1.6-1.9 2.8-3.1 3.1-8.4.6-15.8 6.2-18.9 14.1-3 7.9-1.2 16.9 4.6 23.1 1 1.4 3.3 4.7 2.5 5.5-.6.6-.9.6-1.2.6-.4 0-1.3-.4-2.8-2.6-6.2-9.3-14.7-17.1-24.5-22.5 0 0-.1 0-.1-.1-15.6-6.1-33-2.9-45.4 8.4-12.2 11.2-17 28.3-12.4 44.3 6.1 27.5 30 52.7 53 77.1 15.7 16.6 30.6 32.4 38.6 47.6 17.5 32.7-.2 48.1-8.7 53.2-9.7 6-21.5 8.1-32.6 5.8 12.8-20.3 11-46.9-4.4-65.4-20.1-22.1-38.5-10.2-38.7-10.1-.4.3-.5.7-.4 1.2s.6.7 1.1.6c13.2-1.6 27.3 7.2 34.4 21.3 7.8 15.5 5 32.7-7.4 46.1-8.9-5.8-16.9-12.9-23.8-21-.3-.3-.7-.8-1.2-1.3-18.3-20.1-35.6-29.6-51.7-28.2 2-12.9-1-27.1-8.6-41.2-7.4-13.7-18.8-26.1-32-34.9-3.2-2.2-6.6-4.1-10.1-5.6-3.4-40.3-28.7-60.8-51.3-66.5-25.7-6.5-51.7 3.6-66.1 25.8-14.3 21.8-22.1 49-29.6 75.3-6 21.1-11.7 41.1-20.4 57.5-7.1 13.4-15.7 22-24.1 24.1-5.1 1.3-10.3.2-15.4-3.3-12.1-8.3-6.9-23-2.7-34.9 1.3-3.7 2.5-7.1 3.1-9.9 1.6-5.6.6-11.6-2.7-16.4-3.4-4.8-8.7-7.7-14.5-8.1-14.1-1.1-20.5 13.4-23 18.9l-.1.3v.1c-.8 2.7-2.9 4.7-5.7 5.2-2.8.5-5.5-.7-7.1-3l-.1-.1c-.8-.9-1.5-2.6-2.2-4.4-1.2-2.9-2.5-6.1-5-7.9-2.4-1.7-3.9-2.1-5.2-2.5-.8-.2-1.4-.4-2-.9-4.9-3.7-7.8-4-10.5-4.3-2.1-.2-4.4-.5-7.9-2.4-2.5-1.8-5.8-1.9-8.4-.4l-12.9-10.6-4.7-8.8c-.2-.5-.8-.7-1.3-.5-.5.2-.7.7-.6 1.2l2.2 7.6H183c-.5 0-.9.4-1 .9s.3 1 .7 1.1l9.6 2.4 12.9 10.6c-.7 2.8.3 5.8 2.5 7.6 2.9 2.9 3.5 4.9 4.3 7.1.9 2.6 1.8 5.3 6.4 9.2.4.4.5.5.7 1 .4.9.9 2.2 4.2 5.1 3 2.8 6.5 3 9.2 3.1 1.9.1 3.5.2 4.3 1.1 4.7 7 13.2 10.8 21.6 9.5 8.4-1.3 15.4-7.4 17.8-15.5 1.1-2.5 2.5-5.1 3.6-4.8.8.2 1 .5 1.1.7.2.4.3 1.4-.8 3.8-4.9 10-7.4 21.3-7.2 32.5v.1c2.5 16.6 14 30 30 35.1 16 5.1 33.1.7 44.7-11.3 20.8-19.1 30.7-52.4 40.3-84.7 6.5-21.9 12.6-42.5 21.8-57 18.6-29.4 39.9-24.7 50.8-19.3 10 5.4 17.8 14.6 21.3 25.4-23.8-.8-45.9 14-54.1 36.5-9 28.5 10.4 38.5 10.6 38.6.4.2.9.1 1.2-.3.3-.4.3-.9 0-1.2-7.9-10.5-7.5-27 1-40.1 9.5-14.6 25.8-21.1 43.7-17.3-.5 10.4-2.4 20.6-5.8 30.6-.1.3-.2.8-.4 1.3-8.1 26.1-7.7 46 1.3 59.4-24.5 9.7-43.2 39.5-45.7 73.1-.4 3.8-.4 7.7-.1 11.5-33.2 23-38.3 55.2-32 77.8 7.1 25.6 28.7 43.1 55 44.6 26 1.5 53.4-5.3 79.9-12 21.3-5.3 41.4-10.4 60.1-11.1 15.2-.5 26.8 2.6 32.8 8.8 3.7 3.8 5.3 8.8 4.8 14.9-1.1 14.6-16.5 17.6-28.8 19.9-3.8.7-7.4 1.4-10.2 2.4-5.7 1.4-10.3 5.3-12.8 10.6-2.4 5.3-2.3 11.4.3 16.6 5.4 11.6 20.5 10.9 26.9 10.6.5 0 .9 0 1.3-.1 3.7 0 6.3 1 7.7 2.9 1.6 2.1 1.4 5.2.8 7.3-.4 1.3-1.6 2.8-2.8 4.4-1.8 2.4-3.9 5-4.2 8.2 0 3.3.2 4.8.3 5.7.1.9.1.9-.3 1.8 0 .1-.1.2-.1.3-.8 6.1.4 8.8 1.5 11.3.9 2.1 1.8 4 1.8 7.9-.3 3.1 1.3 6 4 7.5l-2.4 16.9-5.3 8.3c-.3.4-.2 1 .2 1.3.4.3 1 .3 1.3-.1l5.5-5.6 4 7c.2.3.5.5.9.5.1 0 .3 0 .4-.1.5-.2.7-.7.6-1.2l-2.8-9.5 2.5-17.1c2.7-.8 4.8-3.1 5.3-5.9 1.1-3.9 2.5-5.5 4-7.2 1.8-2.1 3.6-4.2 4.6-10.2v-.2c0-.5.1-.6.4-1 .6-.8 1.6-1.9 2.5-6.2.6-2.7-.7-5.7-1.7-8.3-.9-2.1-1.7-4.1-1.3-5.2 3.8-12 .8-19.3-2.4-23.2-4.7-5.8-13-8.7-22.3-7.9-2.6 0-5.9 0-6.1-.7-.1-.5-.1-.9.1-1.2.3-.4 1.1-1.1 3.6-1.2 11.2-.7 22.2-4.2 31.8-10 0 0 .1 0 .1-.1 13.1-10.4 18.9-27.1 15.4-43.4-3.6-16.4-15.9-29-32.1-33.1-26.9-8.1-60.5-.2-93.1 7.5-22.3 5.3-43.4 10.2-60.6 9.6-35.6-1.4-41.7-22.1-42.2-34.4-.4-11.4 3.8-22.6 11.3-31.1 11.2 21.2 35.1 33 58.8 28.9 29.2-6.4 28.1-28.1 28.1-28.4 0-.5-.4-.8-.8-.9-.5-.1-.9.2-1.1.6-5.2 12.2-19.9 20.1-35.7 19.2-17.3-1-30.9-11.9-36.4-29.2 9.4-4.8 19.5-8.2 30-10.2.4-.1 1-.2 1.7-.4 26.6-5.8 43.6-16.2 50.3-30.7 24 18 61.6 14.9 86.7 2.3 3.4-1.6 6.7-3.6 9.8-5.9 36.6 17.1 67 5.5 83.4-11.2 18.6-18.9 22.9-46.4 11.2-70-11.7-23-31.4-43.3-50.4-63-15.3-15.8-29.7-30.7-39.6-46.3-8.1-12.9-11.2-24.6-8.8-32.9 1.5-5 5-8.9 10.5-11.5 13.2-6.3 23.5 5.4 31.8 14.7 2.6 2.9 5 5.6 7.3 7.5 4.1 4.2 9.7 6.3 15.5 5.8 5.8-.5 11-3.7 14.2-8.5 7.1-10.5-1-23.3-4.1-28.2-.3-.5-.6-1-.8-1.3 0-.1-.1-.1-.1-.2-1.9-2-2.4-4.8-1.4-7.4 1-2.6 3.2-4.3 6-4.6h.1c1.2-.2 3 0 4.9.3 3 .4 6.5.9 9-.4 2.2-1.1 3.4-2.2 4.4-3 .8-.7 1.3-1.1 2.1-1.5 5.6-2.4 7.3-4.7 8.9-6.9 1.3-1.8 2.6-3.5 6-5.5 2.9-1.1 4.8-3.8 4.9-6.9l16-6.4 9.9-.1c.5 0 .9-.4 1-.9.1-.3-.3-.7-.8-.9zM506.6 537.6c-11 9.3-30.8 16.3-45.3 21.4-2.6.9-5.1 1.8-7.3 2.6 3.5-15.6 11.5-29.5 23.2-40.4 6.5-6.6 15.2-10.5 24.5-11.2 5.4-.2 10.6 3.1 12.5 7.9 2.4 6.1-.4 13.3-7.6 19.7zm22.1-64.5c-2.9 5-8.2 7.8-13.2 6.9-6.1-1.1-10.5-7.2-12.2-16.8-3.1-13.1.4-32.9 2.9-47.3.6-3.6 1.2-6.8 1.6-9.6 11.8 10.7 20 24.6 23.6 40.2 2.3 8.9 1.4 18.4-2.7 26.6zm39.8 57.1c-9-2.4-16.8-8-21.9-15.6-2.5-4.4-2.7-9.5-.5-13.3 2.1-3.7 6.2-5.9 11.4-6.1h.2c3.5-.1 7 .6 10.3 1.7 12.4 4.2 27.6 16.9 38.7 26.2 3.1 2.6 5.8 4.9 8.1 6.7-15.1 4.8-31 5-46.3.4z" style="fill:#fff"/>
</svg>
