<svg xmlns="http://www.w3.org/2000/svg" viewBox="0 0 1024 1024">
   <circle cx="512" cy="512" r="512" style="fill:#288cf4"/>
   <path d="M655.84 463.39h-18.3l-30.32 79.69-30.07-79.69h-18.29l32.83 87a16.74 16.74 0 0 0 31.57-2zm176.66 78.93h-34.33a30.32 30.32 0 1 1 0-60.64h34.33v-18.29h-34.33a48.61 48.61 0 0 0 0 97.23h34.33zm-136.32-78.93a43.63 43.63 0 0 0-43.6 43.6v53.37h18.29V507a25.56 25.56 0 1 1 51.13 0v53.88h18.29V507c-.51-24.07-20.05-43.61-44.11-43.61zM274.44 501a38.08 38.08 0 0 0-37.59-37.84H191.5v97.23h18.29v-21.8h22.3l17.29 21.8h23.56l-20-25.31a37.61 37.61 0 0 0 21.5-34.08zm-37.59 19.55h-27.06v-39.12h27.06a19.36 19.36 0 0 1 19.55 19.3c0 10.77-9.02 19.79-19.54 19.79zm325.51 21.8h-21.8a30.05 30.05 0 0 1-30.32-30.07v-49.14H492v48.61a48.66 48.66 0 0 0 48.61 48.61h21.8zm-123.78-79.21a43.63 43.63 0 0 0-43.6 43.6v53.37h18.29v-18.54h51.12v18.54h18.29V507a44.12 44.12 0 0 0-44.1-43.85zM413 523.78v-17.03a25.56 25.56 0 1 1 51.12 0v17.04zm-27.56-23.05a51.47 51.47 0 1 0-.74 25.27h-19.3a33.16 33.16 0 0 1-59.4 1.29zm-50.12-22.3a32.26 32.26 0 0 1 24.81 11.28L302 509.24a33.55 33.55 0 0 1 33.34-30.82z" style="fill:#fff"/>
</svg>
