<svg xmlns="http://www.w3.org/2000/svg" viewBox="0 0 1024 1024">
   <circle cx="512" cy="512" r="512" style="fill:#e00"/>
   <path d="M606.08 544.61c37 0 90.57-7.65 90.57-51.82a41.65 41.65 0 0 0-.92-10.15l-22.05-96c-5.09-21.12-9.56-30.72-46.54-49.26-28.7-14.71-91.22-39-109.71-39-17.22 0-22.22 22.26-42.76 22.26-19.76 0-34.44-16.62-52.93-16.62-17.75 0-29.32 12.14-38.26 37.09 0 0-24.88 70.39-28.08 80.59a19.14 19.14 0 0 0-.65 5.76c0 27.35 107.41 117.06 251.32 117.06m96.25-33.74a148.05 148.05 0 0 1 5.12 30.05c0 41.54-46.58 64.6-107.79 64.6-138.35.06-259.6-81.25-259.6-135a54.88 54.88 0 0 1 4.47-21.69c-49.72 2.43-114.13 11.34-114.13 68.38 0 93.36 220.7 208.54 395.44 208.54 134 0 167.76-60.77 167.76-108.76 0-37.74-32.54-80.59-91.22-106.17" style="fill:#fff"/>
</svg>
