<?xml version="1.0" encoding="utf-8"?>
<!-- Generator: Adobe Illustrator 21.0.0, SVG Export Plug-In . SVG Version: 6.00 Build 0)  -->
<svg version="1.1" xmlns="http://www.w3.org/2000/svg" xmlns:xlink="http://www.w3.org/1999/xlink" x="0px" y="0px"
	 viewBox="0 0 1024 1024" style="enable-background:new 0 0 1024 1024;" xml:space="preserve">
<style type="text/css">
	.st0{fill:#FF4500;}
	.st1{fill:#FFFFFF;}
</style>
<g id="Guides">
</g>
<g id="Icon">
	<circle class="st0" cx="512" cy="512" r="512"/>
	<path class="st1" d="M768,516c0-30.9-25.1-56-56-56c-15.1,0-28.8,6-38.9,15.7c-38.3-27.6-91.1-45.5-149.8-47.5l25.5-120.1
		l83.4,17.7c1,21.2,18.4,38.1,39.8,38.1c22.1,0,40-17.9,40-40c0-22.1-17.9-40-40-40c-15.7,0-29.2,9.1-35.7,22.3l-93.1-19.8
		c-2.6-0.6-5.3-0.1-7.5,1.4c-2.2,1.4-3.8,3.7-4.3,6.3l-28.5,134c-59.6,1.7-113.2,19.5-152,47.5c-10.1-9.7-23.7-15.6-38.7-15.6
		c-30.9,0-56,25.1-56,56c0,22.8,13.6,42.3,33.1,51.1c-0.9,5.6-1.3,11.2-1.3,16.9c0,86.2,100.3,156.1,224.1,156.1S736,670.2,736,584
		c0-5.7-0.5-11.3-1.3-16.8C754.3,558.5,768,538.9,768,516z M383.9,556c0-22.1,18-40,40-40c22.1,0,40,18,40,40c0,22.1-17.9,40-40,40
		C401.8,596,383.9,578.1,383.9,556z M607,661.8c-27.3,27.3-79.7,29.4-95,29.4c-15.4,0-67.7-2.1-95-29.4c-4-4-4-10.6,0-14.7
		c4-4,10.6-4,14.7,0c17.2,17.2,54,23.3,80.3,23.3c26.3,0,63.1-6.1,80.4-23.3c4.1-4,10.6-4,14.7,0C611.1,651.2,611.1,657.7,607,661.8
		z M600,596c-22.1,0-40-18-40-40c0-22.1,18-40,40-40c22.1,0,40,18,40,40C640,578.1,622,596,600,596z"/>
</g>
</svg>
