<?xml version="1.0" encoding="UTF-8" standalone="no"?>
<svg
   xmlns:dc="http://purl.org/dc/elements/1.1/"
   xmlns:cc="http://creativecommons.org/ns#"
   xmlns:rdf="http://www.w3.org/1999/02/22-rdf-syntax-ns#"
   xmlns:svg="http://www.w3.org/2000/svg"
   xmlns="http://www.w3.org/2000/svg"
   viewBox="0 0 1365.3333 1365.3333"
   height="1365.3333"
   width="1365.3333"
   xml:space="preserve"
   id="svg2"
   version="1.1"><metadata
     id="metadata8"><rdf:RDF><cc:Work
         rdf:about=""><dc:format>image/svg+xml</dc:format><dc:type
           rdf:resource="http://purl.org/dc/dcmitype/StillImage" /></cc:Work></rdf:RDF></metadata><defs
     id="defs6"><clipPath
       id="clipPath18"
       clipPathUnits="userSpaceOnUse"><path
         id="path16"
         d="M 0,1024 H 1024 V 0 H 0 Z" /></clipPath></defs><g
     transform="matrix(1.3333333,0,0,-1.3333333,0,1365.3333)"
     id="g10"><g
       id="g12"><g
         clip-path="url(#clipPath18)"
         id="g14"><g
           transform="translate(1024,512)"
           id="g20"><path
             id="path22"
             style="fill:#ef381f;fill-opacity:1;fill-rule:nonzero;stroke:none"
             d="m 0,0 c 0,-282.77 -229.23,-512 -512,-512 -282.77,0 -512,229.23 -512,512 0,282.77 229.23,512 512,512 C -229.23,512 0,282.77 0,0" /></g><g
           transform="translate(599.9805,427.9521)"
           id="g24"><path
             id="path26"
             style="fill:#ffffff;fill-opacity:1;fill-rule:nonzero;stroke:none"
             d="m 0,0 c -22.066,0 -40.02,17.952 -40.02,40.017 0,22.071 17.954,40.029 40.02,40.029 22.066,0 40.02,-17.958 40.02,-40.029 C 40.02,17.952 22.066,0 0,0 m 7.047,-65.725 c -27.315,-27.276 -79.653,-29.396 -95.044,-29.396 -15.394,0 -67.737,2.12 -95.017,29.402 -4.048,4.049 -4.048,10.615 0.003,14.666 4.047,4.047 10.615,4.049 14.666,-0.002 17.215,-17.216 54.043,-23.325 80.348,-23.325 26.306,0 63.142,6.11 80.387,23.332 4.057,4.044 10.622,4.038 14.667,-0.011 4.047,-4.052 4.043,-10.619 -0.01,-14.666 M -216.105,40.021 c 0,22.069 17.96,40.025 40.036,40.025 22.056,0 40.003,-17.956 40.003,-40.025 0,-22.061 -17.947,-40.011 -40.003,-40.011 -22.076,0 -40.036,17.95 -40.036,40.011 M 168.02,80.046 c 0,30.943 -25.085,56.027 -56.028,56.027 -15.103,0 -28.782,-6.005 -38.858,-15.721 -38.297,27.637 -91.062,45.485 -149.834,47.536 l 25.522,120.076 83.385,-17.726 c 1.014,-21.199 18.378,-38.118 39.828,-38.118 22.103,0 40.02,17.918 40.02,40.02 0,22.102 -17.917,40.019 -40.02,40.019 -15.721,0 -29.187,-9.148 -35.731,-22.336 l -93.109,19.792 c -2.591,0.563 -5.303,0.055 -7.527,-1.395 -2.228,-1.446 -3.787,-3.717 -4.338,-6.312 L -97.172,167.925 c -59.633,-1.655 -113.245,-19.528 -152.034,-47.471 -10.065,9.654 -23.698,15.619 -38.747,15.619 -30.943,0 -56.027,-25.084 -56.027,-56.027 0,-22.767 13.602,-42.32 33.102,-51.087 -0.864,-5.568 -1.337,-11.218 -1.337,-16.946 0,-86.199 100.337,-156.076 224.11,-156.076 123.772,0 224.109,69.877 224.109,156.076 0,5.69 -0.465,11.303 -1.317,16.836 19.625,8.714 33.333,28.339 33.333,51.197" /></g></g></g></g></svg>