<svg xmlns="http://www.w3.org/2000/svg" viewBox="0 0 1024 1024">
   <circle cx="512" cy="512" r="512" style="fill:#e01300"/>
   <path data-name="Republic Wireless logomark (made by krisu)" d="M574.74 285.81A62.73 62.73 0 1 1 512 223.09a62.73 62.73 0 0 1 62.74 62.72ZM395.43 687.24a4.65 4.65 0 0 0-7.32 4.36 124.89 124.89 0 0 0 247.8.23 4.65 4.65 0 0 0-7.31-4.38c-26.37 18.38-68.64 30.33-116.43 30.33-47.96-.01-90.39-12.04-116.74-30.54ZM419.58 542a3.69 3.69 0 0 0-5.8 3.46 99 99 0 0 0 196.48.18 3.69 3.69 0 0 0-5.79-3.47c-20.91 14.57-54.43 24-92.32 24s-71.68-9.53-92.57-24.17Zm26.21-128a2.73 2.73 0 0 0-4.29 2.56 73.16 73.16 0 0 0 145.15.14 2.73 2.73 0 0 0-4.28-2.57c-15.44 10.77-40.21 17.76-68.2 17.76s-52.95-7.13-68.38-17.96Z" style="fill:#fff"/>
</svg>
