<svg xmlns="http://www.w3.org/2000/svg" viewBox="0 0 1024 1024">
   <circle cx="512" cy="512" r="512" style="fill:#7ab94f"/>
   <path d="M362.14 466.84v65.73a61.45 61.45 0 0 0 22 4.1c22.4 0 34.73-20 34.91-37.33.19-17.55-12.32-35.48-34.91-35.48a72.93 72.93 0 0 0-22 3m-14.57 147.8V456.57c12.32-4.11 24.65-5.23 36.59-5.41 31.75 0 49.48 23.51 49.48 48-.18 24.47-17.73 50.59-49.48 50.59a47.88 47.88 0 0 1-22-5.22v70.15Zm191.64-72.89c-12.7 4.49-24.09 7.29-37.54 7.29-26.7 0-48.35-15.31-48.35-43.51v-53.78h14.57v53.77c0 20.18 15.11 30.46 33.61 30.46 8 0 15.68-.56 23-3.36v-81h14.76v90.18Zm96.92-42c-.19-17.55-12.33-36.78-34.92-36.78a60.21 60.21 0 0 0-21.83 4.11v66.28c6.9 2.05 14.56 2.61 21.83 2.8 22.79 0 35.11-19 34.92-36.4M579.38 415v40a46.35 46.35 0 0 1 21.83-5c31.75 0 49.3 25.39 49.3 49.85.19 24.45-17.36 48.92-49.3 48.92-11.76 0-24.27-1.12-36.4-5.23V415Zm122.17 132c-19.42 2.05-29.88-7.46-29.88-28.2V415h14.75v103.8c0 10.65 2.79 16.25 15.12 15.31V547Zm24.6-63.14h14.74v62.76h-14.74v-62.75Zm-.15-33.78h15.13v20.09H726v-20.09Zm110 22.61a36.24 36.24 0 0 0-25.26-9.69c-17.37-.19-33.42 14.38-33.62 36.6 0 17.37 11.21 35.47 33.8 35.47a38.81 38.81 0 0 0 25.77-10.45l8.22 9.89a48.16 48.16 0 0 1-34 13.63c-32.12 0-48.36-24.28-48.36-48.92.19-24.64 16.8-49.29 48.36-49.47 13.26 0 23.9 4.11 33.05 13.07l-8 9.9Zm-657.6-19.76 1.49 12.33c11.21-17.94 33.63-14.38 44.46-9.71l-3.92 8a31 31 0 0 0-5-1.91c-16.8-4.8-35.86 5.07-35.35 25.26v60.71h-9.58v-94.68ZM317 495c-1.12-20.37-15.69-34-35.3-34.37-22 .19-34 15.32-36.61 34.37Zm-6.54 32.5 7.28 5c-9 11-21.67 16.44-35.87 16.44-30.45 0-46-26-45.77-49.5 0-23.72 15.88-47.64 45.58-47.82 25.78-.18 43.9 20 43.9 45.39 0 2.24-.19 3.73-.37 6.16H245c1.31 18.68 14.38 36.62 36.8 36.62 10.65 0 21.86-3.92 28.58-12.34M430.65 599l-4.13 15.38h-6l-8-30.63h5.17l5.17 21.11.7 5.21h.17l.82-5.21 4.57-17.47h5.47l4.56 17.47.82 5.21h.17l.7-5.21 5.16-21.12h5.17l-8 30.63h-6L433 599l-1.09-6h-.17l-1.09 6Zm60.06-15.29h5v30.55h-5V583.7Zm55.58 14.37c3.43 0 5.61-1.73 5.61-4.86s-2.3-4.91-5.61-4.91h-5v9.77Zm12 16.17h-5.91l-9-11.78h-2.13v11.78h-5v-30.46h10c6 0 10.56 2.69 10.65 9.42 0 5.52-3.43 8.43-7.82 9.08l9.17 12Zm55.19-26.12h-12.12v8.61h11.91v4.48h-11.91v8.47h12.12v4.52h-17.11v-30.55h17.07v4.47Zm56.5 26.12h-16.2v-30.43h5v25.86h11.17v4.56Zm56-26.12h-12.1v8.61h11.91v4.48h-11.91v8.47H726v4.52h-17.11v-30.55H726v4.47Zm48.85 8.26c4.7 1.22 9.6 3.18 9.35 10-.31 5.78-5.48 8.52-10.25 8.52a10.62 10.62 0 0 1-10.08-7l3.78-2c1.44 3.09 3.87 4.48 6.43 4.48 3 0 5.08-1.7 5.21-4.26.26-3.65-3.22-4.78-5.74-5.44-3.86-1-9-2.95-8.77-9.07.13-6 5-8.56 9.6-8.56a9.83 9.83 0 0 1 9.39 6.77l-3.91 1.79a6.07 6.07 0 0 0-5.52-4.13 4.36 4.36 0 0 0-4.69 4.26c-.17 2.87 3 4 5.21 4.6m58.68 0c4.69 1.22 9.6 3.18 9.34 10-.31 5.78-5.47 8.52-10.26 8.52a10.62 10.62 0 0 1-10.08-7l3.78-2c1.43 3.09 3.86 4.48 6.43 4.48 3 0 5.08-1.7 5.21-4.26.27-3.65-3.21-4.78-5.73-5.44-3.86-1-9-2.95-8.78-9.07.13-6 5-8.56 9.6-8.56a9.81 9.81 0 0 1 9.39 6.77l-3.91 1.79a6.06 6.06 0 0 0-5.52-4.13 4.36 4.36 0 0 0-4.7 4.26c-.17 2.87 3 4 5.22 4.6m-23.73-168.22a44.38 44.38 0 0 0-31.48 13l-13.24-13.24a63.25 63.25 0 0 1 89.45 0l-13.24 13.24a44.38 44.38 0 0 0-31.48-13Z" style="fill:#fff"/>
</svg>
