<svg xmlns="http://www.w3.org/2000/svg" viewBox="0 0 1024 1024">
   <circle cx="512" cy="512" r="512" style="fill:#ff6a00"/>
   <path d="M646.67 448.25V303.32L512 225.57l-134.67 77.75v145.24L252 520.71v155.5L386.67 754 512 681.5 637.33 754 772 676.21v-155.5ZM512 515.11l-107-61.89 107-61.89 107 61.89ZM395.68 469.4l107 61.89v123.46l-107-61.89Zm125.65 61.89 107-61.89v123.47l-107 61.58Zm-125.65-217.4L512 246.72l116.32 67.18v123.46L512 370.19l-116.32 67.17ZM270.35 665.33V531l107-61.89v134l116.32 67.18-107.3 61.89Zm483.3 0-116.32 67.18L530 670.62l116.32-67.18v-134l107 61.89Z" style="fill:#fff"/>
</svg>
