<?xml version="1.0" encoding="utf-8"?>
<!-- Generator: Adobe Illustrator 21.0.0, SVG Export Plug-In . SVG Version: 6.00 Build 0)  -->
<svg version="1.1" xmlns="http://www.w3.org/2000/svg" xmlns:xlink="http://www.w3.org/1999/xlink" x="0px" y="0px"
	 viewBox="0 0 1024 1024" style="enable-background:new 0 0 1024 1024;" xml:space="preserve">
<style type="text/css">
	.st0{fill:#00C805;}
	.st1{fill:#FFFFFF;}
</style>
<g id="Min_Guides__x28_DO_NOT_REMOVE_x29_">
</g>
<g id="Max_Guides__x28_DO_NOT_REMOVE_x29_">
</g>
<g id="Icon">
	<circle id="Background" class="st0" cx="512" cy="512" r="512"/>
	<path class="st1" d="M481.2,657.7l-3.4,1.1c-21.9,7.3-54.3,18.5-83.3,31.8c-1.6,0.7-2.6,2.8-2.6,2.8c-0.5,1.2-1.2,2.8-2,4.5
		l-0.1,0.2c-3.3,7.4-7.7,18.6-9.7,23.1l-1.5,3.6c-0.2,0.6-0.1,1.2,0.4,1.6c0.3,0.3,0.6,0.4,1,0.4c0.2,0,0.4,0,0.7-0.2l3.5-1.7
		c8-3.8,18-9.5,28.6-14.5l0.4-0.2c20.1-9.5,42.7-20.3,56.4-26.8c0,0,2.2-1.2,3.3-3.4l10.2-20.5c0.3-0.5,0.2-1.2-0.2-1.6
		C482.4,657.7,481.8,657.5,481.2,657.7z M399.6,625.9c1.4-2.8,8.1-15.5,9.6-18.4l0.3-0.5c44.3-83.6,98.4-162.5,160.6-234.4l1.7-2
		c0.5-0.6,0.6-1.5,0.2-2.2c-0.4-0.7-1.2-1.1-2-1l-2.6,0.4c-40.8,5.6-82.1,13.4-122.8,23.1c-4,1.1-6.6,3.8-7.2,4.4
		c-30.5,36.5-59.3,74.9-85.7,114.2c-1.3,2-1.5,6.7-1.5,6.7s6.7,51.2,16.4,89C342.4,674.3,321,765.5,321,765.5
		c-0.2,0.6-0.1,1.2,0.3,1.7c0.4,0.5,0.9,0.8,1.6,0.8h13.7c0.9,0,1.6-0.5,1.9-1.3l0.9-2.6c14-38.1,29.9-75.8,47.5-112.4
		C391,643.2,399.6,625.9,399.6,625.9z M590.1,387.6l0-2.6c0-0.8-0.5-1.6-1.3-1.8c-0.8-0.3-1.6-0.1-2.2,0.6l-1.7,2
		c-72.5,83.9-133.5,177-181.2,276.7l-1.1,2.3c-0.4,0.7-0.2,1.6,0.3,2.2c0.4,0.4,0.9,0.6,1.4,0.6c0.2,0,0.5,0,0.8-0.1l2.4-1
		c40.7-16.9,82.3-31.5,123.7-43.4c2.5-0.7,4.6-2.4,5.7-4.7c18.1-35.3,60.2-103.7,60.2-103.7c1.1-1.5,0.8-3.8,0.8-3.8
		S590.5,428.9,590.1,387.6z M683.8,269.7c-10.3-8.9-25.2-13.1-48.4-13.6c-21-0.5-46.1,4.1-74.4,13.4c-4.3,1.5-7.6,3.8-10.7,6.8
		c-28.8,27.1-56.9,55.8-83.4,85.4l-2,2.3c-0.6,0.6-0.6,1.6-0.2,2.3c0.4,0.7,1.3,1.1,2.1,0.9l3-0.6c42.7-9.1,85.9-16.1,128.2-20.7
		c2.8-0.3,5.7,0.6,7.7,2.5c2.1,1.9,3.3,4.6,3.2,7.5c-0.7,42,0.8,84.2,4.6,125.4l0.2,2.7c0.1,0.8,0.7,1.5,1.5,1.7
		c0.1,0,0.3,0.1,0.5,0.1c0.6,0,1.3-0.3,1.7-0.8l1.6-2.2c23.8-34,49.8-67.1,77.1-98.4l0,0c3.1-3.5,3.9-5.7,4.4-8.8
		C709,320.6,695.7,279.9,683.8,269.7z"/>
</g>
</svg>
