<?xml version="1.0" encoding="utf-8"?>
<!-- Generator: Adobe Illustrator 21.0.0, SVG Export Plug-In . SVG Version: 6.00 Build 0)  -->
<svg version="1.1" xmlns="http://www.w3.org/2000/svg" xmlns:xlink="http://www.w3.org/1999/xlink" x="0px" y="0px"
	 viewBox="0 0 1024 1024" style="enable-background:new 0 0 1024 1024;" xml:space="preserve">
<style type="text/css">
	.st0{fill:#5BB254;}
	.st1{fill:#FFFFFF;}
</style>
<g id="Guides">
</g>
<g id="Icon">
	<circle class="st0" cx="512" cy="512" r="512"/>
	<g>
		<path class="st1" d="M308,656c-28.3,0-52,25.1-52,56c0,30.9,23.7,56,52,56h408c28.3,0,52-25.1,52-56c0-30.9-23.7-56-52-56H308z"/>
		<path class="st1" d="M700,256l-376,0c-37.2,0-68,30.8-68,68v232c0,37.1,30.9,68,68,68h376c37.2,0,68-30.8,68-68V324
			C768,286.8,737.2,256,700,256z M712,532c0,19.9-16.1,36-36,36H348c-19.9,0-36-16.1-36-36V348c0-19.9,16.1-36,36-36h328
			c19.9,0,36,16.1,36,36V532z"/>
		<path class="st1" d="M604.1,384.2c-30.2,0-54.6,24.5-54.6,54.6c0,30.2,24.5,54.6,54.6,54.6c30.2,0,54.6-24.5,54.6-54.6
			C658.7,408.7,634.3,384.2,604.1,384.2 M422.7,384.2c-30.2,0-54.6,24.5-54.6,54.6c0,30.2,24.5,54.6,54.6,54.6
			c30.2,0,54.6-24.5,54.6-54.6C477.3,408.7,452.9,384.2,422.7,384.2"/>
	</g>
</g>
</svg>
