<svg xmlns="http://www.w3.org/2000/svg" viewBox="0 0 1024 1024">
   <circle cx="512" cy="512" r="512" style="fill:#5bb254"/>
   <path d="M716 656c28.27 0 52 25.09 52 56s-23.73 56-52 56H308c-28.27 0-52-25.07-52-56s23.73-56 52-56Zm52-332v232c0 37.16-30.79 68-68 68H324c-37.14 0-68-30.86-68-68V324c0-37.16 30.84-68 68-68h376c37.16 0 68 30.84 68 68Zm-56 24a36 36 0 0 0-36-36H348a36 36 0 0 0-36 36v184a36 36 0 0 0 36 36h328a36 36 0 0 0 36-36Zm-107.88 36.24a54.61 54.61 0 1 1-54.61 54.61 54.61 54.61 0 0 1 54.61-54.61m-181.39 0a54.61 54.61 0 1 1-54.61 54.61 54.61 54.61 0 0 1 54.61-54.61" style="fill:#fff"/>
</svg>
