<svg xmlns="http://www.w3.org/2000/svg" viewBox="0 0 1024 1024" style="enable-background:new 0 0 1024 1024" xml:space="preserve">
   <style>
      .st1{fill:#fff}
   </style>
   <g id="Icon">
      <circle cx="512" cy="512" r="512" style="fill:#5bb254"/>
      <path class="st1" d="M308 656c-28.3 0-52 25.1-52 56s23.7 56 52 56h408c28.3 0 52-25.1 52-56s-23.7-56-52-56H308zm392-400H324c-37.2 0-68 30.8-68 68v232c0 37.1 30.9 68 68 68h376c37.2 0 68-30.8 68-68V324c0-37.2-30.8-68-68-68zm12 276c0 19.9-16.1 36-36 36H348c-19.9 0-36-16.1-36-36V348c0-19.9 16.1-36 36-36h328c19.9 0 36 16.1 36 36v184z"/>
      <path class="st1" d="M604.1 384.2c-30.2 0-54.6 24.5-54.6 54.6 0 30.2 24.5 54.6 54.6 54.6 30.2 0 54.6-24.5 54.6-54.6s-24.4-54.6-54.6-54.6m-181.4 0c-30.2 0-54.6 24.5-54.6 54.6 0 30.2 24.5 54.6 54.6 54.6 30.2 0 54.6-24.5 54.6-54.6s-24.4-54.6-54.6-54.6"/>
   </g>
</svg>
