<?xml version="1.0" encoding="utf-8"?>
<!-- Generator: Adobe Illustrator 21.0.0, SVG Export Plug-In . SVG Version: 6.00 Build 0)  -->
<svg version="1.1" xmlns="http://www.w3.org/2000/svg" xmlns:xlink="http://www.w3.org/1999/xlink" x="0px" y="0px"
	 viewBox="0 0 1024 1024" style="enable-background:new 0 0 1024 1024;" xml:space="preserve">
<style type="text/css">
	.st0{fill:#FFAB00;}
	.st1{fill:#FFFFFF;}
</style>
<g id="Guides">
</g>
<g id="Icon">
	<circle class="st0" cx="512" cy="512" r="512"/>
	<path class="st1" d="M677.5,597.2l-17.3-108.9l-63.7,108h-12.1c-7.3-12.5-10.1-30.6-10.1-41.9c0-18.5,1.2-36.7,1.2-60.5
		c0-31.4-9.3-48-33.9-54v-0.8c52-7.3,75.8-41.9,75.8-90.3c0-68.9-46-83.9-106-83.9H349.8l-68.5,324.1h85.9l25-118.1h57.2
		c30.6,0,43.1,14.9,43.1,43.5c0,21.8-2.4,39.1-2.4,55.6c0,6,1.2,20.6,5.6,26.2l62.1,65.7L504.2,777l114.5-68.1l85.5,65.7
		l-15.7-108.4l98.4-68.9H677.5z M475.1,410.5h-68.5l16.5-78.2h63.7c22.6,0,46.4,6,46.4,33.5C533.2,400.9,506.2,410.5,475.1,410.5z"
		/>
</g>
</svg>
