<svg xmlns="http://www.w3.org/2000/svg" viewBox="0 0 1024 1024" style="enable-background:new 0 0 1024 1024" xml:space="preserve">
   <circle cx="512" cy="512" r="512" style="fill:#ffab00"/>
   <path d="m677.5 597.2-17.3-108.9-63.7 108h-12.1c-7.3-12.5-10.1-30.6-10.1-41.9 0-18.5 1.2-36.7 1.2-60.5 0-31.4-9.3-48-33.9-54v-.8c52-7.3 75.8-41.9 75.8-90.3 0-68.9-46-83.9-106-83.9H349.8L281.3 589h85.9l25-118.1h57.2c30.6 0 43.1 14.9 43.1 43.5 0 21.8-2.4 39.1-2.4 55.6 0 6 1.2 20.6 5.6 26.2l62.1 65.7L504.2 777l114.5-68.1 85.5 65.7-15.7-108.4 98.4-68.9H677.5zM475.1 410.5h-68.5l16.5-78.2h63.7c22.6 0 46.4 6 46.4 33.5 0 35.1-27 44.7-58.1 44.7z" style="fill:#fff"/>
</svg>
