<?xml version="1.0" encoding="utf-8"?>
<!-- Generator: Adobe Illustrator 21.0.0, SVG Export Plug-In . SVG Version: 6.00 Build 0)  -->
<svg version="1.1" xmlns="http://www.w3.org/2000/svg" xmlns:xlink="http://www.w3.org/1999/xlink" x="0px" y="0px"
	 viewBox="0 0 1024 1024" style="enable-background:new 0 0 1024 1024;" xml:space="preserve">
<style type="text/css">
	.st0{fill:#37BEFF;}
	.st1{fill:#FFFFFF;}
</style>
<g id="Min_Guides__x28_DO_NOT_REMOVE_x29_">
</g>
<g id="Max_Guides__x28_DO_NOT_REMOVE_x29_">
</g>
<g id="Icon">
	<circle id="Background" class="st0" cx="512" cy="512" r="512"/>
	<path class="st1" d="M512,273.8c-85.5,0-157,64.9-165.1,150l-64.7,37.3l93.5,54c-41.8-75.2-14.6-170.1,60.6-211.8
		c23.1-12.9,49.2-19.6,75.7-19.6c86.1,0,155.8,69.8,155.8,155.8c0,26.4-6.7,52.4-19.5,75.5l93.4-53.9l-64.6-37.3
		C669,338.7,597.5,273.8,512,273.8z M272.3,466.9v147.8L507,750.2V602.5L272.3,466.9z M751.7,466.9l-115.4,66.7l-104.8,60.5h0
		l-2.2,1.3l-12.3,7.1v147.8l234.7-135.6V466.9L751.7,466.9z"/>
</g>
</svg>
