<svg xmlns="http://www.w3.org/2000/svg" viewBox="0 0 1024 1024">
   <circle cx="512" cy="512" r="512" style="fill:#00569c"/>
   <path d="M507.76 433.78h20.42c.11 29.18 0 58.36 0 87.53 0 2.54-.2 5.11.3 7.62a8 8 0 0 0 7.54 5.47c12.23.09 24.45 0 36.68 0 2.36 0 4.94-.42 6.6-2.24a8.85 8.85 0 0 0 2.26-6.6v-26.09a10.37 10.37 0 0 0-1.15-5.61 7.92 7.92 0 0 0-7-3.59h-36.89v-20.49h36.95c8.4.15 16.93 3.61 22.41 10.11a28.13 28.13 0 0 1 6.2 17.48c.09 6.65 0 13.31 0 20-.17 5.11.42 10.3-.8 15.32a28.27 28.27 0 0 1-12 18 29.12 29.12 0 0 1-15 4.28h-36a31.76 31.76 0 0 1-19.34-5.59 26 26 0 0 1-10.58-16.63 54.12 54.12 0 0 1-.6-10.67q.01-44.18 0-88.3ZM195 498.07v56.8h20.46V498.8c0-2.27.38-4.75 2.08-6.4s4.11-2.17 6.38-2.16h46v-20.49h-46.08c-8.29.09-16.67 3.42-22.24 9.67a28 28 0 0 0-6.6 18.65Zm87.08 19.7a38 38 0 0 0 5.27 19.59c4.92 8.38 13.72 13.92 23 16.32 6 1.61 12.22 1.15 18.35 1.2h38a10.12 10.12 0 0 0 9.73-10.3v-74.79h-20.48v64.64h-36.4a16.78 16.78 0 0 1-17-17.29V469.8h-20.46q0 23.96.01 47.97Zm113.69 37.1h20.48v-64.62h33.4A22.07 22.07 0 0 1 460 492c5.94 2.54 9.6 9 9.59 15.32v47.59h20.48v-47.63a37.67 37.67 0 0 0-5.74-20.68c-5.1-8-13.7-13.38-22.81-15.66-5.74-1.48-11.69-1.11-17.56-1.15h-37.89c-5.39-.17-10.41 4.55-10.3 10 0 25.01.03 50.04.02 75.08Zm222.27-58.68q-.16 16 0 32.08A26.88 26.88 0 0 0 628.69 549a31.52 31.52 0 0 0 19.25 5.85h35.23a31.12 31.12 0 0 0 20-7.11c6-5.1 9-13 9.09-20.77.06-9.4 0-18.8 0-28.2-.08-9.12-4-18.55-11.58-23.9a27.36 27.36 0 0 0-16.2-5.11c-12.42-.06-24.84 0-37.25 0a34.51 34.51 0 0 0-10.92 1.82 27 27 0 0 0-18.25 24.61Zm29.9-6h35.83c2.42 0 5.08.72 6.58 2.77 1.38 1.86 1.49 4.25 1.5 6.48v26.7c0 2.31-.56 4.82-2.36 6.4s-4.14 1.84-6.36 1.82h-35.86c-2.39 0-5-.39-6.73-2.19s-2.11-4.32-2.07-6.67v-27.44c-.14-3.15 1.67-6.47 4.82-7.36a14.58 14.58 0 0 1 4.71-.47Zm111.44 19.46c-13.66 15.15-27.59 30.06-41.27 45.18h28.18c9.14-9.86 18.16-19.82 27.3-29.68q13.59 14.85 27.22 29.66H829q-20.68-22.49-41.39-44.94 18.37-20.11 36.76-40.16h-28.15c-7.62 8.2-15.18 16.46-22.8 24.66q-11.31-12.33-22.63-24.66h-28c12.21 13.36 24.36 26.72 36.62 39.98Z" style="fill:#fff"/>
</svg>
