<svg xmlns="http://www.w3.org/2000/svg" viewBox="0 0 1024 1024">
   <circle cx="512" cy="512" r="512" style="fill:#00a1e0"/>
   <path d="M343.38 264.34c-75.909 0-137.45 61.452-137.45 137.27a136.69 136.69 0 0 0 11.301 54.588 119.51 119.51 0 0 0-59.061 103.38c0 65.917 52.885 119.35 118.12 119.34a117.45 117.45 0 0 0 24.277-2.531c17.917 48.612 64.618 83.285 119.4 83.285 52.605 0 97.749-31.95 117.13-77.535 14.728 7.205 31.282 11.23 48.781 11.23 41.801 0 78.239-23.032 97.348-57.11a151.95 151.95 0 0 0 30.061 2.987c84.252 0 152.54-68.896 152.54-153.9s-68.293-153.9-152.54-153.9a150.87 150.87 0 0 0-61.715 13.12c-21.702-38.675-62.466-64.728-109.17-64.728-35.137 0-66.922 14.76-89.738 38.527a137.22 137.22 0 0 0-109.28-54.02zm226.91 172.95c2.12 0 3.994.14 5.58.426 1.556.294 2.74.564 4.055.967.286.116 1.067.495.758 1.423l-3.149 8.616c-.263.65-.434 1.037-1.773.634a18.482 18.482 0 0 0-5.47-.851c-1.626 0-3.097.209-4.397.642a8.39 8.39 0 0 0-3.438 2.12 11.958 11.958 0 0 0-2.879 4.38c-1.509 4.334-2.088 8.956-2.166 9.25h13.11c1.106 0 1.455.51 1.347 1.323l-1.533 8.529c-.248 1.238-1.37 1.191-1.37 1.191h-13.513l-9.233 52.29a80.692 80.692 0 0 1-3.607 13.774c-1.447 3.785-2.94 6.549-5.34 9.188a18.807 18.807 0 0 1-7.576 5.277c-2.84 1.045-6.294 1.58-10.062 1.58-1.796 0-3.73-.04-6.014-.582a32.49 32.49 0 0 1-3.754-1.097c-.503-.178-.913-.82-.619-1.641.279-.813 2.71-7.461 3.035-8.336.418-1.053 1.487-.65 1.487-.65.727.31 1.237.511 2.205.705.983.193 2.298.363 3.297.363 1.787 0 3.413-.217 4.83-.697 1.702-.55 2.709-1.548 3.746-2.88 1.083-1.4 1.965-3.297 2.87-5.843.906-2.577 1.734-5.982 2.446-10.107l9.194-51.336h-9.055c-1.084 0-1.454-.51-1.33-1.33l1.515-8.53c.24-1.238 1.395-1.19 1.395-1.19h9.295l.502-2.772c1.393-8.235 4.155-14.496 8.242-18.605 4.11-4.14 9.955-6.23 17.369-6.23zm-185.66 1.309h10.883c.697 0 1.176.557 1.176 1.238v87.54c0 .697-.48 1.247-1.176 1.247h-10.875c-.697 0-1.168-.557-1.168-1.238v-87.557c0-.674.48-1.23 1.16-1.23zm-98.213 24.844c7.801 0 15.339 2.267 20.803 5.58.495.31.976.882.697 1.64l-2.941 7.948c-.519 1.354-1.936.457-1.936.457a41.871 41.871 0 0 0-18.436-4.729c-5.634 0-9.256 2.988-9.256 7.043v.256c0 4.729 6.207 6.749 13.404 9.094l1.239.387c9.543 3.018 19.729 7.198 19.729 18.69v.239c0 12.422-9.024 20.139-23.535 20.139-7.128 0-13.947-1.099-21.16-4.93-1.362-.79-2.708-1.47-4.04-2.437-.139-.202-.751-.441-.31-1.602h.008l2.863-7.95c.457-1.361 1.487-.913 1.905-.657.797.472 1.369.898 2.398 1.502 8.436 5.332 16.253 5.386 18.69 5.386 6.316 0 10.233-3.343 10.233-7.855v-.233c0-4.906-6.038-6.764-13.012-8.9l-1.547-.496c-9.574-2.724-19.812-6.663-19.812-18.783v-.248c0-11.501 9.28-19.525 22.561-19.525l1.455-.016zm212.5 0c7.801 0 15.348 2.267 20.82 5.58.48.31.966.882.695 1.64-.27.705-2.684 7.205-2.94 7.948-.533 1.354-1.935.457-1.935.457a41.871 41.871 0 0 0-18.443-4.729c-5.634 0-9.256 2.988-9.256 7.043v.256c0 4.729 6.2 6.749 13.404 9.094l1.239.387c9.543 3.018 19.72 7.198 19.72 18.69v.239c0 12.422-9.017 20.139-23.528 20.139-7.136 0-13.953-1.099-21.158-4.93-1.362-.79-2.71-1.47-4.05-2.437-.138-.202-.749-.441-.3-1.602l2.871-7.95c.418-1.3 1.634-.82 1.897-.657.79.487 1.377.898 2.398 1.502 8.452 5.332 16.254 5.386 18.715 5.386 6.292 0 10.215-3.343 10.215-7.855v-.233c0-4.906-6.029-6.764-13.002-8.9l-1.547-.496c-9.589-2.724-19.83-6.663-19.83-18.783v-.248c0-11.501 9.288-19.525 22.568-19.525l1.448-.016zm-154.22.13a67.419 67.419 0 0 1 .01 0c8.188 0 14.527 1.905 18.838 5.674 4.318 3.785 6.517 9.882 6.517 18.102l.024 37.521s.084 1.083-.946 1.33c0 0-1.508.42-2.863.737-1.37.317-6.307 1.322-10.34 2.004a75.414 75.414 0 0 1-12.46 1.037c-3.987 0-7.64-.37-10.86-1.106a22.599 22.599 0 0 1-8.35-3.623 16.965 16.965 0 0 1-5.34-6.416c-1.26-2.577-1.896-5.728-1.896-9.365 0-3.568.75-6.748 2.198-9.457a19.769 19.769 0 0 1 5.959-6.764 26.508 26.508 0 0 1 8.552-3.97c3.197-.852 6.594-1.293 10.107-1.293 2.577 0 4.729.054 6.4.185 0 0 3.237.286 6.766.797v-1.732c0-5.472-1.138-8.05-3.375-9.776-2.29-1.749-5.711-2.654-10.139-2.654 0 0-9.984-.124-17.879 4.164-.363.217-.664.34-.664.34s-.991.348-1.347-.666l-2.903-7.801c-.449-1.122.364-1.633.364-1.633 3.691-2.879 12.639-4.62 12.639-4.62a67.419 67.419 0 0 1 10.988-1.015zm369.66.008c3.429 0 6.478.209 9.094.596 2.794.433 6.517 1.44 8.088 2.05.286.11 1.083.496.758 1.432-1.146 3.228-1.926 5.333-2.987 8.274-.464 1.254-1.41.836-1.41.836-3.986-1.254-7.809-1.826-12.801-1.826-5.998 0-10.502 1.997-13.443 5.906-2.972 3.94-4.635 9.1-4.658 15.965-.023 7.53 1.863 13.11 5.207 16.562 3.336 3.444 7.997 5.185 13.863 5.185 2.376 0 4.619-.153 6.639-.47 1.996-.318 3.87-.939 5.634-1.627 0 0 1.139-.425 1.55.752l2.97 8.218c.387 1.006-.487 1.448-.487 1.448-4.589 1.78-10.959 3.048-17.158 3.048-10.51 0-18.56-3.025-23.932-9-5.34-5.959-8.064-14.064-8.064-24.117 0-4.651.675-9.055 1.99-13.04 1.316-4.025 3.288-7.57 5.889-10.526a27.963 27.963 0 0 1 9.76-7.074c3.87-1.726 8.42-2.592 13.498-2.592zm-275.76.055a29.797 29.797 0 0 1 11.748 2.383c2.57 1.099 5.154 3.087 7.793 5.935 1.672 1.796 4.219 5.728 5.24 9.606 2.632 9.24 1.277 17.22 1.23 17.662-.108 1.052-1.19 1.068-1.19 1.068l-41.02-.031c.262 6.23 1.749 10.642 4.775 13.637 2.964 2.933 7.661 4.815 14.03 4.822 9.737.024 13.91-1.936 16.85-3.027 0 0 1.122-.402 1.54.713l2.678 7.514c.541 1.261.109 1.703-.34 1.959-2.585 1.416-8.823 4.062-20.664 4.093-5.759.023-10.765-.796-14.883-2.398a27.197 27.197 0 0 1-10.324-6.834 27.135 27.135 0 0 1-5.938-10.426 43.96 43.96 0 0 1-1.865-13.096c0-4.644.605-9.054 1.797-13.086a30.029 30.029 0 0 1 5.556-10.658 26.995 26.995 0 0 1 9.442-7.197c3.777-1.773 8.437-2.64 13.545-2.64zm163.98 0c4.922 0 9.28.874 12.986 2.607 3.7 1.726 6.842 4.103 9.318 7.075 2.462 2.956 4.318 6.5 5.495 10.525 1.191 3.993 1.78 8.381 1.78 13.018 0 4.643-.589 9.016-1.78 13.01a29.178 29.178 0 0 1-5.495 10.533 26.19 26.19 0 0 1-9.318 7.013c-3.715 1.703-8.08 2.553-12.986 2.553-4.907 0-9.289-.85-12.988-2.553a26.19 26.19 0 0 1-9.318-7.013 29.356 29.356 0 0 1-5.502-10.525 45.733 45.733 0 0 1-1.78-13.018c0-4.644.595-9.024 1.78-13.018 1.191-4.025 3.04-7.57 5.494-10.525a26.639 26.639 0 0 1 9.326-7.075c3.707-1.733 8.066-2.607 12.988-2.607zm164.53 0c4.388 0 8.397.943 11.732 2.383 2.57 1.099 5.156 3.087 7.803 5.935 1.671 1.796 4.216 5.728 5.246 9.606 2.639 9.24 1.261 17.22 1.215 17.662-.101 1.052-1.184 1.068-1.184 1.068l-41.012-.031c.255 6.23 1.75 10.642 4.768 13.637 2.964 2.933 7.67 4.815 14.039 4.822 9.736.024 13.893-1.936 16.842-3.027 0 0 1.123-.402 1.548.713l2.67 7.514c.542 1.261.107 1.703-.35 1.959-2.569 1.416-8.799 4.062-20.655 4.093-5.75.023-10.758-.796-14.883-2.398a27.104 27.104 0 0 1-10.316-6.834 27.065 27.065 0 0 1-5.952-10.426 44.216 44.216 0 0 1-1.85-13.096c0-4.644.596-9.054 1.796-13.086 1.2-4.063 3.064-7.648 5.549-10.658a26.926 26.926 0 0 1 9.449-7.197c3.761-1.773 8.421-2.64 13.545-2.64zm-95.34.695c.577.004 1.187.024 1.832.063 2.686.162 6.175.897 6.879 1.168a1.115 1.115 0 0 1 .611 1.47c-.387 1.123-2.376 6.743-3.095 8.608-.264.712-.695 1.198-1.493 1.113 0 0-2.354-.54-4.506-.54-1.478 0-3.59.184-5.494.773a12.275 12.275 0 0 0-5.062 3.04c-1.502 1.448-2.716 3.484-3.598 6.038-.898 2.57-1.363 6.656-1.363 10.758v30.557a1.238 1.238 0 0 1-1.238 1.246h-10.766a1.254 1.254 0 0 1-1.27-1.239v-61.182c0-.688.505-1.238 1.193-1.238H654.9c.697 0 1.192.55 1.192 1.238v5c1.57-2.105 4.389-3.962 6.935-5.107 2.235-1.016 4.7-1.794 8.74-1.766zm-234.12 10.17c-5.387 0-9.217 2.113-11.732 5.951-1.672 2.54-2.732 5.776-3.328 9.676h29.278c-.309-3.761-1.044-7.137-2.724-9.676-2.554-3.838-6.115-5.95-11.494-5.95zm328.5 0c-5.387 0-9.211 2.113-11.742 5.951-1.656 2.54-2.724 5.776-3.305 9.676h29.264c-.302-3.761-1.037-7.137-2.724-9.676-2.57-3.838-6.114-5.95-11.492-5.95zm-163.56.256c-5.387 0-9.227 1.857-11.75 5.695-2.53 3.87-3.822 9.389-3.822 16.408 0 7.012 1.291 12.57 3.838 16.471 2.507 3.886 6.347 5.766 11.734 5.766 5.386 0 9.256-1.888 11.81-5.766 2.57-3.9 3.885-9.458 3.885-16.47 0-7.02-1.3-12.539-3.884-16.409-2.554-3.838-6.424-5.695-11.811-5.695zm-256.69 23.56c-8.35-.101-11.91 2.972-11.887 2.964-2.461 1.749-3.66 4.342-3.66 7.934 0 2.298.41 4.093 1.238 5.347.519.828.742 1.137 2.352 2.43-.023-.008 3.676 2.901 12.027 2.39 5.866-.355 11.068-1.468 11.068-1.468v-18.652s-5.25-.86-11.14-.946z" style="fill:#fff"/>
</svg>
