<?xml version="1.0" encoding="utf-8"?>
<!-- Generator: Adobe Illustrator 21.0.0, SVG Export Plug-In . SVG Version: 6.00 Build 0)  -->
<svg version="1.1" xmlns="http://www.w3.org/2000/svg" xmlns:xlink="http://www.w3.org/1999/xlink" x="0px" y="0px"
	 viewBox="0 0 1024 1024" style="enable-background:new 0 0 1024 1024;" xml:space="preserve">
<style type="text/css">
	.st0{fill:#054E9D;}
	.st1{fill:#FFFFFF;}
</style>
<g id="Min_Guides__x28_DO_NOT_REMOVE_x29_">
</g>
<g id="Max_Guides__x28_DO_NOT_REMOVE_x29_">
</g>
<g id="Icon">
	<circle id="Background" class="st0" cx="512" cy="512" r="512"/>
	<path class="st1" d="M321.8,465.8l16,90.2h-24.6l-10.2-70.2h-2.5L290.2,556h-24.6l16-90.2H321.8L321.8,465.8z M438.6,556h23
		l-3.7-90.2h-38.5l-6.8,49.8h-2l-6.8-49.8h-38.5l-3.7,90.2h23l1.1-67.8h2.3l11.6,67.8h24.2l11.6-67.8h2.3L438.6,556L438.6,556z
		 M580.2,536.1l0,1.5l0.1,1.5l0.2,1.4l0.3,1.4l0.4,1.3l0.5,1.3l0.5,1.2l0.6,1.2l0.7,1.1l0.8,1.1l0.8,1l0.9,1l0.9,0.9l1,0.9l1.1,0.9
		l1.1,0.8l1.2,0.8l1.2,0.7l1.2,0.7l1.3,0.6l1.3,0.6l1.3,0.5l1.4,0.5l1.4,0.4l1.4,0.4l1.4,0.3l2.9,0.5l3,0.3l3,0.1l3-0.1l3-0.3
		l2.9-0.5l1.4-0.3l1.4-0.4l1.4-0.4l1.4-0.5l1.3-0.5l1.3-0.5l1.3-0.6l1.2-0.6l1.2-0.7l1.2-0.7l1.1-0.8l1.1-0.8l1-0.9l0.9-0.9l0.9-1
		l0.8-1l0.8-1.1l0.7-1.1l0.6-1.2l0.5-1.2l0.5-1.3l0.4-1.3l0.3-1.4l0.2-1.4l0.1-1.5l0-1.5v-70.7h-25.3v69.1l0,0.4l0,0.4l0,0.4l0,0.4
		l-0.1,0.3L619,537l-0.1,0.3l-0.1,0.3l-0.1,0.3l-0.1,0.3l-0.2,0.3l-0.2,0.3l-0.2,0.3l-0.2,0.3l-0.2,0.3l-0.2,0.3l-0.2,0.2l-0.3,0.2
		l-0.3,0.2l-0.3,0.2l-0.3,0.2l-0.3,0.2l-0.3,0.2l-0.3,0.2l-0.3,0.1l-0.3,0.1l-0.3,0.1l-0.3,0.1l-0.4,0.1l-0.4,0l-0.4,0l-0.4,0
		l-0.4,0l-0.4,0l-0.4,0l-0.4-0.1l-0.3-0.1l-0.3-0.1l-0.3-0.1l-0.3-0.1l-0.3-0.2l-0.3-0.2l-0.3-0.2l-0.3-0.2l-0.3-0.2l-0.3-0.2
		l-0.3-0.2l-0.2-0.2l-0.2-0.3l-0.2-0.3l-0.2-0.3l-0.2-0.3l-0.2-0.3l-0.2-0.3L606,538l-0.1-0.3l-0.1-0.3l-0.1-0.3l-0.1-0.3l-0.1-0.3
		l0-0.4l0-0.4l0-0.4l0-0.4v-69.1h-25.3L580.2,536.1L580.2,536.1z M752,465.8h-21.9v56.4h-0.5L704,465.8h-27V556h21.9v-52.7h0.5
		l23.9,52.7H752V465.8L752,465.8z M488.4,538.2l0,0.6l0,0.6l0.1,0.6l0.1,0.6l0.1,0.6l0.1,0.6l0.1,0.6l0.2,0.5l0.2,0.5l0.2,0.5
		l0.2,0.5l0.2,0.5l0.3,0.5l0.3,0.5l0.6,1l0.7,0.9l0.7,0.9l0.8,0.8l0.9,0.8l0.9,0.8l1,0.7l1,0.7l1.1,0.7l1.1,0.6l1.2,0.6l1.2,0.5
		l1.2,0.5l2.6,0.9l2.7,0.7l2.8,0.6l2.8,0.4l2.9,0.3l2.9,0.1l2.9-0.1l2.9-0.2l2.9-0.4l2.8-0.5l2.7-0.7l1.3-0.4l1.3-0.5l1.3-0.5
		l1.2-0.5l1.2-0.6l1.2-0.6l1.1-0.7l1.1-0.7l1-0.8l1-0.8l0.9-0.8l0.9-0.9l0.8-0.9l0.8-1l0.7-1l0.6-1.1l0.6-1.1l0.5-1.2l0.4-1.2
		l0.3-1.2l0.3-1.3l0.2-1.3l0.3-3.5l0.1-3.2l-0.1-3l-0.2-2.7l-0.2-1.3l-0.2-1.2l-0.2-1.2l-0.3-1.1l-0.3-1.1l-0.3-1l-0.4-1l-0.4-0.9
		l-0.4-0.9l-0.5-0.8l-0.5-0.8l-0.5-0.8l-0.5-0.7l-0.6-0.7l-0.6-0.7l-0.6-0.6l-0.6-0.6l-0.7-0.6l-0.7-0.5l-0.7-0.5l-1.4-1l-1.5-0.9
		l-1.5-0.8l-1.6-0.8l-3.3-1.5l-6.7-3l-1.7-0.8l-1.6-0.9l-1.6-1l-1.6-1.1l-1.5-1.2l-1.5-1.3l-0.7-0.7l-0.7-0.7l-0.7-0.8l-0.7-0.8
		l-0.3-0.7l-0.3-0.7l-0.2-0.6l-0.2-0.6l-0.1-0.6l-0.1-0.6l0-0.3l0-0.3l0-0.3l0-0.3l0-0.3l0-0.3l0-0.2l0-0.2l0-0.2l0.1-0.2l0.1-0.2
		l0.1-0.2l0.1-0.2l0.1-0.2l0.1-0.2l0.1-0.2l0.1-0.2l0.1-0.2l0.1-0.2l0.1-0.2l0.3-0.3l0.3-0.3l0.3-0.3l0.3-0.3l0.3-0.2l0.3-0.2
		l0.3-0.2l0.3-0.2l0.3-0.2l0.3-0.1l0.3-0.1l0.3-0.1l0.3-0.1l0.3-0.1l0.3,0l0.3,0l0.8,0l0.8,0.1l0.7,0.1l0.7,0.1l0.6,0.1l0.3,0.1
		l0.3,0.1l0.3,0.1l0.2,0.1l0.2,0.1l0.2,0.1l0.2,0.1l0.2,0.1l0.2,0.1l0.2,0.1l0.2,0.2l0.2,0.2l0.2,0.2l0.1,0.2l0.1,0.2l0.1,0.2
		l0.1,0.2l0.1,0.2l0.1,0.2l0.1,0.2l0.1,0.2l0.1,0.2l0.1,0.5l0.1,0.5l0.1,0.5l0.1,0.5l0.1,1.1l0,1.2l-0.2,5.2l23,0v-12.5l0-0.5l0-0.5
		l-0.1-0.5l-0.1-0.5l-0.1-0.5l-0.1-0.5l-0.1-0.5l-0.1-0.5l-0.2-0.4l-0.2-0.4l-0.2-0.4l-0.2-0.4l-0.2-0.4l-0.2-0.4l-0.5-0.8l-0.6-0.8
		l-0.7-0.8l-0.7-0.7l-0.8-0.7l-0.8-0.7l-0.9-0.7l-0.9-0.6l-1-0.6l-1-0.6l-1.1-0.5l-2.2-1l-2.4-0.9l-2.5-0.7l-2.6-0.6l-2.6-0.5
		l-2.7-0.3l-2.7-0.2l-2.7-0.1l-2.7,0.1l-2.7,0.2l-2.6,0.4l-2.6,0.5l-2.5,0.7l-1.2,0.4l-1.2,0.4l-1.2,0.5l-1.1,0.5l-1.1,0.6l-1,0.6
		l-1,0.6l-1,0.7l-0.9,0.7l-0.9,0.8l-0.8,0.8l-0.8,0.9l-0.7,0.9l-0.7,1l-0.6,1l-0.5,1l-0.5,1.1l-0.4,1.1l-0.3,1.2l-0.3,1.2l-0.2,1.7
		l-0.2,1.8l-0.1,1.9l0,2l0,2.1l0.1,2.1l0.2,2.2l0.3,2.1l0.4,2.1l0.5,2l0.3,1l0.3,1l0.4,0.9l0.4,0.9l0.4,0.9l0.5,0.8l0.5,0.8l0.5,0.7
		l0.6,0.7l0.3,0.3l0.3,0.3l0.3,0.3l0.3,0.3l0.3,0.3l0.4,0.3l2.4,2l2.4,1.7l2.3,1.5l2.3,1.4l4.4,2.3l4,1.9l3.6,1.7l1.6,0.9l1.5,0.9
		l0.7,0.5l0.6,0.5l0.6,0.5l0.6,0.5l0.5,0.6l0.2,0.3l0.2,0.3l0.2,0.3l0.2,0.3l0.2,0.3l0.2,0.3l0.3,0.7l0.3,0.7l0.2,0.7l0.2,0.7
		l0.1,0.6l0.1,0.6l0.1,0.6l0,0.6l0,0.6l-0.1,0.6l-0.1,0.5l-0.1,0.5l-0.2,0.5l-0.2,0.5l-0.2,0.4l-0.2,0.4l-0.3,0.4l-0.3,0.4l-0.3,0.4
		l-0.3,0.3l-0.3,0.3l-0.3,0.3l-0.3,0.3l-0.4,0.2l-0.4,0.2l-0.4,0.2l-0.4,0.1l-0.4,0.1l-0.2,0l-0.2,0l-0.2,0l-0.2,0l-0.2,0l-0.2,0
		h-0.2h-0.2l-0.8-0.1l-0.8-0.1l-0.7-0.1l-0.6-0.2l-0.3-0.1l-0.3-0.1l-0.3-0.1l-0.3-0.1l-0.3-0.1l-0.2-0.1l-0.2-0.1l-0.2-0.1
		l-0.2-0.2l-0.2-0.2l-0.2-0.2l-0.2-0.2l-0.2-0.2l-0.2-0.2l-0.1-0.2l-0.1-0.2l-0.1-0.2l-0.1-0.2l-0.1-0.2l-0.1-0.2l-0.1-0.2l-0.1-0.2
		l-0.2-0.5l-0.1-0.5l-0.1-0.5l-0.1-0.6l-0.1-0.6l-0.1-1.2l0-1.2l0.2-5.4h-25.2V538.2L488.4,538.2z M210.3,462.1l-3.9,0.3l-3.6,0.5
		l-1.7,0.3l-1.6,0.4l-1.5,0.4l-1.5,0.5l-1.4,0.5l-1.3,0.5l-1.2,0.6l-1.2,0.6l-1.1,0.7l-1,0.7l-1,0.7l-0.9,0.8l-0.9,0.8l-0.8,0.8
		l-0.7,0.8l-0.7,0.9l-0.6,0.9l-0.6,0.9l-0.5,0.9l-0.5,1l-0.4,1l-0.4,1l-0.3,1l-0.3,1l-0.2,1l-0.2,1l-0.2,1l-0.1,1l-0.1,2.1l0,2.1
		l0.2,2.1l0.3,2l0.4,2l0.5,1.9l0.5,1.9l0.6,1.8l0.7,1.7l0.7,1.6l0.7,1.4l0.8,1.3l0.8,1.1l0.4,0.5l0.4,0.5l0.4,0.4l0.4,0.4l0.4,0.3
		l0.2,0.1l0.2,0.1l2.4,2l2.4,1.7l2.3,1.5l2.3,1.4l4.4,2.3l4,1.9l3.6,1.7l1.6,0.9l1.5,0.9l0.7,0.5l0.6,0.5l0.6,0.5l0.6,0.5l0.5,0.6
		l0.2,0.3l0.2,0.3l0.2,0.3l0.2,0.3l0.2,0.3l0.2,0.3l0.3,0.7l0.3,0.7l0.2,0.7l0.2,0.7l0.1,0.6l0.1,0.6l0.1,0.6l0,0.6l0,0.6l-0.1,0.6
		l-0.1,0.5l-0.1,0.5l-0.2,0.5l-0.2,0.5l-0.2,0.4l-0.2,0.4l-0.3,0.4l-0.3,0.4l-0.3,0.4l-0.3,0.3l-0.3,0.3l-0.3,0.3l-0.4,0.3l-0.4,0.2
		l-0.4,0.2l-0.4,0.2l-0.4,0.1l-0.4,0.1l-0.2,0l-0.2,0l-0.2,0l-0.2,0l-0.2,0l-0.2,0h-0.2H212l-0.8-0.1l-0.8-0.1l-0.7-0.1l-0.6-0.2
		l-0.3-0.1l-0.3-0.1l-0.3-0.1l-0.3-0.1l-0.3-0.1l-0.2-0.1l-0.2-0.1l-0.2-0.1l-0.2-0.2l-0.2-0.2l-0.2-0.2l-0.2-0.2l-0.2-0.2l-0.2-0.2
		l-0.1-0.2l-0.1-0.2l-0.1-0.2l-0.1-0.2l-0.1-0.2l-0.1-0.2L205,537l-0.1-0.2l-0.2-0.5l-0.1-0.5l-0.1-0.5l-0.1-0.6l-0.1-0.6l-0.1-1.2
		l0-1.2l0.2-5.4h-25.2v11.9l0,0.6l0,0.6l0.1,0.6l0.1,0.6l0.1,0.6l0.1,0.6l0.1,0.6l0.2,0.5l0.2,0.5l0.2,0.5l0.2,0.5l0.2,0.5l0.3,0.5
		l0.3,0.5l0.6,1l0.7,0.9l0.7,0.9l0.8,0.8l0.9,0.8l0.9,0.8l1,0.7l1,0.7l1.1,0.7l1.1,0.6l1.2,0.6l1.2,0.5l1.2,0.5l2.6,0.9l2.7,0.7
		l2.8,0.6l2.8,0.4l2.9,0.3l2.9,0.1l2.9-0.1l2.9-0.2l2.9-0.4l2.8-0.5l2.7-0.7l1.3-0.4l1.3-0.5l1.3-0.5l1.2-0.5l1.2-0.6l1.2-0.6
		l1.1-0.7l1.1-0.7l1-0.8l1-0.8l0.9-0.8l0.9-0.9l0.8-0.9l0.8-1l0.7-1l0.6-1.1l0.6-1.1l0.5-1.2l0.4-1.2l0.3-1.2l0.3-1.3l0.2-1.3
		l0.3-3.5l0.1-3.2l-0.1-3l-0.2-2.7l-0.2-1.3l-0.2-1.2l-0.2-1.2l-0.3-1.1l-0.3-1.1l-0.3-1l-0.4-1l-0.4-0.9l-0.4-0.9l-0.5-0.8
		l-0.5-0.8l-0.5-0.8l-0.5-0.7l-0.6-0.7l-0.6-0.7l-0.6-0.6l-0.6-0.6l-0.7-0.6l-0.7-0.5l-0.7-0.5l-1.4-1l-1.5-0.9l-1.5-0.8l-1.6-0.8
		l-3.3-1.5l-6.7-3l-1.7-0.8l-1.6-0.9l-1.6-1l-1.6-1.1l-1.5-1.2l-1.5-1.3l-0.7-0.7l-0.7-0.7l-0.7-0.8l-0.7-0.8l-0.3-0.7l-0.3-0.7
		l-0.2-0.6l-0.2-0.6l-0.1-0.6l-0.1-0.6l0-0.3l0-0.3l0-0.3l0-0.3l0-0.3l0-0.3l0-0.2l0-0.2l0.1-0.2l0.1-0.2l0.1-0.2l0.1-0.2l0.1-0.2
		l0.1-0.2l0.1-0.2l0.1-0.2l0.1-0.2l0.1-0.2l0.1-0.2l0.1-0.2l0.3-0.3l0.3-0.3l0.3-0.3l0.3-0.3l0.3-0.2l0.3-0.2l0.3-0.2l0.3-0.2
		l0.3-0.2l0.3-0.1l0.3-0.1l0.3-0.1l0.3-0.1l0.3-0.1l0.3,0l0.3,0l0.8,0l0.8,0.1l0.7,0.1l0.7,0.1l0.6,0.1l0.3,0.1l0.3,0.1l0.3,0.1
		l0.2,0.1l0.2,0.1l0.2,0.1l0.2,0.1l0.2,0.1l0.2,0.1l0.2,0.1l0.2,0.2l0.2,0.2l0.2,0.2l0.1,0.2l0.1,0.2l0.1,0.2l0.1,0.2l0.1,0.2
		l0.1,0.2l0.1,0.2l0.1,0.2l0.1,0.2l0.1,0.5l0.1,0.5l0.1,0.5l0.1,0.5l0.1,1.1l0,1.2l-0.2,5.2l23,0v-12.5l0-0.7l0-0.7l-0.1-0.6
		l-0.1-0.6l-0.1-0.6l-0.1-0.6l-0.2-0.6l-0.2-0.6l-0.2-0.5l-0.2-0.5l-0.3-0.5l-0.3-0.5l-0.3-0.5l-0.3-0.5l-0.3-0.5l-0.4-0.5l-0.4-0.4
		l-0.4-0.4l-0.4-0.4l-0.4-0.4l-0.9-0.8l-0.9-0.7l-1-0.7l-1.1-0.6l-1.1-0.6l-1.1-0.5l-1.2-0.5l-1.2-0.4l-2.5-0.8l-2.6-0.6l-2.7-0.5
		l-2.7-0.4l-2.7-0.3L210.3,462.1L210.3,462.1z M816.1,561.9l2.9,0.1l2.7-0.1l2.5-0.2l2.3-0.3l2.1-0.4l2-0.5l0.9-0.3l0.9-0.3l0.8-0.3
		l0.8-0.3l0.8-0.4l0.7-0.4l0.7-0.4l0.7-0.4l0.6-0.4l0.6-0.4l0.6-0.5l0.5-0.5l0.5-0.5l0.5-0.5l0.4-0.5l0.4-0.5l0.4-0.5l0.4-0.6
		l0.3-0.6l0.3-0.6l0.3-0.6l0.3-0.6l0.5-1.2l0.4-1.2l0.3-1.2l0.2-1.2l0.2-1.2l0.1-1.2l0.1-1.2l0.1-2.4l0-2.3l-0.1-4v-24.6h-29.7v13.1
		h6.1v15.5l0,0.3l0,0.3l0,0.3l-0.1,0.3l-0.1,0.3l-0.1,0.3l-0.1,0.3l-0.1,0.3l-0.1,0.3l-0.1,0.3l-0.2,0.3l-0.2,0.3l-0.2,0.3l-0.2,0.2
		l-0.2,0.2l-0.2,0.2l-0.2,0.2l-0.2,0.2l-0.2,0.2l-0.3,0.2l-0.3,0.2l-0.3,0.2l-0.3,0.1l-0.3,0.1l-0.3,0.1l-0.3,0.1l-0.3,0.1l-0.3,0.1
		l-0.3,0.1l-0.3,0l-0.3,0l-0.3,0l-0.3,0l-0.3,0l-0.3,0l-0.3-0.1l-0.3-0.1l-0.3-0.1l-0.3-0.1l-0.3-0.1l-0.3-0.1l-0.3-0.1l-0.3-0.2
		l-0.3-0.2l-0.3-0.2l-0.2-0.2l-0.2-0.2l-0.2-0.2l-0.2-0.2l-0.2-0.2l-0.2-0.2l-0.2-0.3l-0.2-0.3l-0.2-0.3l-0.1-0.3l-0.1-0.3l-0.1-0.3
		l-0.1-0.3l-0.1-0.3l-0.1-0.3l-0.1-0.3l0-0.3l0-0.3l0-0.3V487l0-0.3l0-0.3l0-0.3l0.1-0.3l0.1-0.3l0.1-0.3l0.1-0.3l0.1-0.3l0.1-0.3
		l0.1-0.3l0.2-0.3l0.2-0.3l0.2-0.3l0.2-0.2l0.2-0.2l0.2-0.2l0.2-0.2l0.2-0.2l0.2-0.2l0.3-0.2l0.3-0.2l0.3-0.2l0.3-0.1l0.3-0.1
		l0.3-0.1l0.3-0.1l0.3-0.1l0.3-0.1l0.3-0.1l0.3,0l0.3,0l0.3,0l0.3,0l0.3,0l0.3,0l0.3,0.1l0.3,0.1l0.3,0.1l0.3,0.1l0.3,0.1l0.3,0.1
		l0.3,0.1l0.3,0.2l0.3,0.2l0.3,0.2l0.2,0.2l0.2,0.2l0.2,0.2l0.2,0.2l0.2,0.2l0.2,0.2l0.2,0.3l0.2,0.3l0.2,0.3l0.1,0.3l0.1,0.3
		l0.1,0.3l0.1,0.3l0.1,0.3l0.1,0.3l0.1,0.3l0,0.3l0,0.3l0,0.3v8.3h23.7V485l0-1.3l-0.1-0.6l-0.1-0.6l-0.1-0.6l-0.1-0.6l-0.1-0.6
		L844,480l-0.2-0.6l-0.2-0.6l-0.2-0.6l-0.2-0.5l-0.3-0.5l-0.3-0.5l-0.6-1l-0.7-1l-0.7-0.9l-0.8-0.9l-0.8-0.8l-0.9-0.8l-1-0.8l-1-0.7
		l-1-0.7l-1.1-0.6l-1.1-0.6l-1.2-0.6l-1.2-0.5l-1.2-0.5l-1.3-0.4l-2.6-0.7l-2.7-0.6l-2.8-0.4l-2.8-0.3l-2.9-0.1l-2.9,0.1l-2.8,0.2
		l-2.8,0.4l-2.7,0.6l-2.6,0.7l-1.3,0.4l-1.2,0.5l-1.2,0.5l-1.2,0.5l-1.1,0.6l-1.1,0.6l-1,0.7l-1,0.7l-1,0.8l-0.9,0.8l-0.8,0.8
		l-0.8,0.9l-0.7,0.9l-0.7,1l-0.6,1l-0.3,0.5l-0.2,0.5L785,478l-0.2,0.5l-0.2,0.6l-0.2,0.6l-0.2,0.6l-0.1,0.6l-0.1,0.6l-0.1,0.6
		l-0.1,0.6l-0.1,0.6l0,1.3v56.7l0,0.9l0,0.8l0.1,0.8l0.1,0.8l0.1,0.8l0.1,0.7l0.2,0.7l0.2,0.7l0.2,0.7l0.2,0.7l0.3,0.6l0.3,0.6
		l0.3,0.6l0.3,0.6l0.4,0.6l0.4,0.5l0.4,0.5l0.4,0.5l0.4,0.5l0.5,0.5l0.5,0.5l0.5,0.4l1,0.8l1.1,0.8l1.1,0.7l1.2,0.6l1.2,0.6l1.2,0.5
		l1.3,0.5l1.3,0.4l1.3,0.4l2.7,0.6l2.7,0.4l2.7,0.3l2.6,0.2l2.5,0L816.1,561.9L816.1,561.9z"/>
</g>
</svg>
