<?xml version="1.0" encoding="utf-8"?>
<!-- Generator: Adobe Illustrator 21.0.0, SVG Export Plug-In . SVG Version: 6.00 Build 0)  -->
<svg version="1.1" xmlns="http://www.w3.org/2000/svg" xmlns:xlink="http://www.w3.org/1999/xlink" x="0px" y="0px"
	 viewBox="0 0 1024 1024" style="enable-background:new 0 0 1024 1024;" xml:space="preserve">
<style type="text/css">
	.st0{fill:#143FE4;}
	.st1{fill:#FFFFFF;}
</style>
<g id="Min_Guides__x28_DO_NOT_REMOVE_x29_">
</g>
<g id="Max_Guides__x28_DO_NOT_REMOVE_x29_">
</g>
<g id="Icon">
	<circle id="Background" class="st0" cx="512" cy="512" r="512"/>
	<path class="st1" d="M627.2,512.2l-57.1-57.1l-58.2-58.3c-32.1-32.2-32.1-84.4,0-116.6L395.5,396.8c-32.2,32.2-32.2,84.4,0,116.6
		l56.9,57.1l58.2,58.2c32.2,32.2,32.2,84.4,0,116.6L627,628.7c32.2-32.2,32.2-84.4,0-116.6L627.2,512.2z M512.7,736.6
		c-4.8,8.9-11.9,16.5-20.4,21.9c-31.2,16.4-70.6,11.4-96.6-14.7c-31.5-31.6-32.2-82.6-1.5-115l44.1-44l58.2,58.2
		C521.8,668.3,527.2,706,512.7,736.6z M511.5,287.4c4.8-8.9,11.9-16.5,20.4-21.9c31.2-16.4,70.6-11.4,96.6,14.7
		c31.5,31.6,32.2,82.6,1.5,115l-44.1,44L527.6,381C502.3,355.7,497,318,511.5,287.4z"/>
</g>
</svg>
