<svg xmlns="http://www.w3.org/2000/svg" viewBox="0 0 1024 1024">
   <circle cx="512" cy="512" r="512" style="fill:#ffa401"/>
   <path d="M346.61 726.33c-4.66-16.5.59-39.25 12.47-54.07 4-5 12.16-13.14 22.83-13.14h1.17c7.77.43 13.48 2.67 17 6.64 4.51 5.15 4.11 11.94 4.09 12.17a6.38 6.38 0 0 0 12.16 3.2c.08-.17 8.28-17.54 21-16.17 11.52 1.27 11.93 23.74 11.93 24a6.38 6.38 0 0 0 12 3c3.6-6.67 12.19-2.74 13.88-1.88 9.46 4.8 20.17 19 10.91 38.46-16.19 34-63.82 40-80.82 39.41-19.09-.62-50.9-14.3-58.62-41.62ZM641 653.69c-7.83.44-13.57 2.71-17 6.75-4.44 5.16-4 12-4 12a6.38 6.38 0 0 1-12.16 3.24c-.13-.27-8.27-17.58-21-16.19-11.43 1.28-11.94 23.73-11.94 24a6.38 6.38 0 0 1-12 3 7 7 0 0 0-6.58-3.78 17.59 17.59 0 0 0-7.3 1.94c-9.45 4.8-20.15 19-10.9 38.43 16.18 34 63.82 39.94 80.82 39.38 19.1-.64 50.93-14.31 58.6-41.63 4.64-16.52-.64-39.27-12.54-54.1-4.13-5.11-12.75-13.67-24-13.04ZM514.56 642h.26c12.46-.37 21.86-23.23 25.75-36.23-9.94-4.43-19.92-11.29-26-19.78-6.27 7.12-15.93 13.92-25.24 18.53C493.41 619.27 503 642 514.56 642Zm19.74-87.85c-.74-7.17-10.45-13-21.64-13S491.79 547 491 554.1c0 .34-.07.69-.07.91 0 6.48 7.57 12.33 17.61 13.6l1 .11c1.19.11 2.16.16 3.08.16a31.77 31.77 0 0 0 7.44-.88l.34-.09.2-.05c8.22-2.15 13.73-7.31 13.73-12.85 0-.18 0-.47-.06-.79Zm-84.9-44.26a75.82 75.82 0 0 0 5.24-13.51c7.85-27.87-1.21-55.81-20.51-68.87a17 17 0 0 0-2-.13c-15.35 0-27.8 20.72-27.8 46.28s12.45 46.28 27.8 46.28c6.52 0 12.52-3.77 17.27-10.05Zm317.52 85c-1.72 2.32-8.68 2.78-23.06-2.85a6.38 6.38 0 0 0-8.19 8.46c.15.34 14.57 34.06 19.5 58.67a23 23 0 0 1-7 21.54c-21.44 19.23-41.57 31-56.46 33.08 1.66-18.58-4.58-39.91-16.72-55.05-9.79-12.2-22.1-18.54-34.64-17.84-11.43.64-20.18 4.39-26 11.16a27.9 27.9 0 0 0-3.65 5.41c-5.7-6.15-14.14-11.92-25.25-10.68-13.23 1.53-19.45 13.21-21.96 24.43-5.92-2.12-13.13-1.52-20.25 2.1-16.77 8.53-28.3 30.8-16.64 55.29.67 1.4 1.39 2.75 2.14 4.08l-31 .95c11.35-24.35-.14-46.44-16.83-54.91-7.13-3.62-14.34-4.21-20.26-2.07-2.48-11.18-8.74-22.89-21.93-24.34-11.11-1.24-19.55 4.54-25.26 10.68a27.8 27.8 0 0 0-3.65-5.42c-5.83-6.77-14.58-10.53-26-11.16-12.55-.69-24.87 5.65-34.66 17.86-11 13.66-17.09 32.37-17 49.55-15-2.12-35.08-13.84-56.32-33a23 23 0 0 1-7-21.6c4.94-24.5 19.35-58.32 19.5-58.66a6.38 6.38 0 0 0-8.19-8.45c-14.38 5.63-21.34 5.16-23.06 2.84-1.93-2.6-8.33-20.32 55-114.1 34-50.38 71.29-97.68 71.67-98.15a6.38 6.38 0 0 0-5.14-10.34c-29.1.66-60.17-28.14-73.21-56.27-10.37-22.36-11.78-63.81 1.94-83.75 6-8.68 14.07-12.55 24.81-11.81 28.84 2 32.74 25.53 35.72 64.08.79 10.23 1.61 20.81 3.42 30.45 8.32 44.22 39.52 46.21 40.84 46.27a6.45 6.45 0 0 0 2.41-.35c98.09-34.32 193.69-.38 194.64 0a6.37 6.37 0 0 0 2.49.38c1.32-.06 32.49-2.08 40.83-46.26 1.82-9.62 2.64-20.19 3.45-30.4 3-38.63 7-62.22 35.84-64.17 10.75-.72 18.89 3.16 24.88 11.89 13.72 20 12.3 61.41 1.93 83.71-13.09 28.13-44.09 56.85-73.22 56.27a6.38 6.38 0 0 0-5.14 10.34c.37.47 37.66 47.77 71.66 98.16 63.35 93.72 56.95 111.43 55.02 114.03Zm-204-216.57a6.38 6.38 0 0 0 7.1 5.57c13.18-1.61 32.19 12.22 38.41 17.68a6.38 6.38 0 0 0 8.43-9.58c-2.72-2.4-27.18-23.32-48.38-20.77a6.38 6.38 0 0 0-5.57 7.14Zm-30.6 63.21a6.38 6.38 0 1 0 11.37-5.79C536.37 421.41 537 412 537 411.72a6.38 6.38 0 0 0-12.69-1.34c-.12 1.31-1.12 13.27 8.01 31.2Zm-26.91-1.44a6.38 6.38 0 1 0 12.76 0v-30.41a6.38 6.38 0 1 0-12.76 0Zm-22.68 4.23a6.38 6.38 0 0 0 8.58-2.79c9.13-17.93 8.13-29.89 8-31.19a6.33 6.33 0 0 0-7-5.61 6.41 6.41 0 0 0-5.73 6.94c0 .09.73 9.54-6.66 24.07a6.38 6.38 0 0 0 2.81 8.63Zm-88.33-39.61a6.38 6.38 0 0 0 9 .58c6.22-5.46 25.24-19.29 38.42-17.68a6.38 6.38 0 0 0 1.53-12.61c-21.15-2.55-45.66 18.37-48.38 20.77a6.38 6.38 0 0 0-.58 8.98Zm-74.54 238.6 12.38-25.09a10.21 10.21 0 1 0-18.31-9l-12.38 25.09a10.21 10.21 0 1 0 18.31 9Zm36.38-33.66a10.21 10.21 0 0 0-13.67 4.64l-12.38 25.09a10.21 10.21 0 1 0 18.32 9l12.38-25.09a10.21 10.21 0 0 0-4.64-13.64ZM434.52 546c15.47-10.45 27-26.83 32.41-46.12 11.33-40.21-7.55-80.84-42.07-90.56s-71.86 15.04-83.15 55.25c-5.43 19.29-4.17 39.27 3.57 56.26 7.9 17.36 21.57 29.54 38.5 34.3a56.88 56.88 0 0 0 15.46 2.14c12.09.01 24.23-3.83 35.28-11.27Zm166.36 29.18a6.39 6.39 0 0 0-7.51-5c-2.38.48-6.07-.43-9.92-1.9a68.41 68.41 0 0 1-11.63-5.87 6.38 6.38 0 0 0-6.91 10.73 82.75 82.75 0 0 0 9.52 5.2c-1.73 8.72-5.81 20.06-11.43 20.27a35 35 0 0 1-11.75-2.15 6.32 6.32 0 0 0-1.58-.62h-.28C537.7 591.37 525 582.43 522 573c10.34-2.7 17.73-9.74 17.73-18a13.77 13.77 0 0 0-.1-1.43c15.37-4.17 25.76-11.8 25.76-20.57 0-13.22-23.61-23.94-52.74-23.94s-52.74 10.72-52.74 23.94c0 7.38 7.35 14 18.89 18.38 2.27.8 4.58 1.5 6.9 2.14a13.8 13.8 0 0 0-.11 1.49c0 9.46 9.62 17.3 22.28 18.9-3.4 6-16.65 16-27.71 20.9a6.32 6.32 0 0 0-1.57.66 25.79 25.79 0 0 1-8.76 2.18c-4.3 0-9.94-9.65-13.2-19.63a51.15 51.15 0 0 0 6.23-6.17 6.38 6.38 0 1 0-9.7-8.29 34.58 34.58 0 0 1-7.6 6.77l-.2.13c-5.33 3.35-9.3 3.27-9.67 3.26a6.38 6.38 0 0 0-1.12 12.71c.21 0 .66.05 1.31.05a28.07 28.07 0 0 0 9.52-1.86c3.65 10.15 11.39 25.78 24.42 25.78h.18a29.83 29.83 0 0 0 7.34-1.22c4.16 14.55 15.57 45.54 37.17 45.54h.67c21.76-.64 33.28-30.79 37.46-44.78a42.23 42.23 0 0 0 9.86 1.37h.92c14.85-.55 20.87-18.28 23.15-28.88a28.88 28.88 0 0 0 5.47.58 19.46 19.46 0 0 0 3.82-.36 6.38 6.38 0 0 0 5.02-7.5ZM676 517.76c7.72-16.94 9-36.87 3.58-56.11s-16.89-35.59-32.31-46c-15.76-10.66-33.73-13.91-50.61-9.17s-30.52 16.89-38.41 34.21c-7.72 16.94-9 36.87-3.58 56.11 9.63 34.24 38.13 57.29 67.69 57.28a56.13 56.13 0 0 0 15.23-2.1c16.91-4.76 30.56-16.91 38.41-34.22Zm16.37 125-18.25-37a10.21 10.21 0 1 0-18.31 9l18.25 37a10.21 10.21 0 0 0 18.31-9Zm31-7-18.25-37a10.21 10.21 0 0 0-18.31 9l18.25 37a10.21 10.21 0 0 0 18.31-9ZM591 427.37a19 19 0 0 0-11.56 4.19c-9.58 7.31-16.24 23.4-16.24 42.09 0 15.22 4.41 28.72 11.22 37.15 4.63 5.73 10.36 9.13 16.58 9.13 15.35 0 27.8-20.72 27.8-46.28s-12.47-46.28-27.8-46.28Z" style="fill:#fff"/>
</svg>
