<svg xmlns="http://www.w3.org/2000/svg" viewBox="0 0 1024 1024">
   <circle cx="512" cy="512" r="512" style="fill:#4f0599"/>
   <path d="M610.24 493v122a37.76 37.76 0 0 1-32.85 36.05h-85.34a30.51 30.51 0 0 1-27.95-26 23.25 23.25 0 0 1 0-3.84 29.23 29.23 0 0 1 29.23-29h37.12a21.33 21.33 0 0 0 21.33-21.33v-77.23A29.87 29.87 0 0 1 577 464h3.63a29.23 29.23 0 0 1 29.65 28.8q-.04.11-.04.2Zm-137.81 37.13v-76.58a21.33 21.33 0 0 1 21.33-21.33h39.47A29.23 29.23 0 0 0 562.45 403a21.33 21.33 0 0 0 0-3.63 30.93 30.93 0 0 0-30.08-25.6h-84.48a38.61 38.61 0 0 0-33.71 35.41v121.6A29.23 29.23 0 0 0 443.41 560h4.48a29.87 29.87 0 0 0 24.54-29.87Zm256-91.52v244A96.64 96.64 0 0 1 639.89 768h-161.7a182.82 182.82 0 0 1-182.61-182.83V352.86A96.85 96.85 0 0 1 392.43 256H545.6a182.61 182.61 0 0 1 182.61 182.61Zm-58.45 0a124.37 124.37 0 0 0-124.17-124.15H392.43a38.19 38.19 0 0 0-38.4 38v232.71A124.37 124.37 0 0 0 478.19 708.9H636.9a38.19 38.19 0 0 0 32.85-31.57Z" style="fill:#fff"/>
</svg>
