<?xml version="1.0" encoding="utf-8"?>
<!-- Generator: Adobe Illustrator 21.0.0, SVG Export Plug-In . SVG Version: 6.00 Build 0)  -->
<svg version="1.1" xmlns="http://www.w3.org/2000/svg" xmlns:xlink="http://www.w3.org/1999/xlink" x="0px" y="0px"
	 viewBox="0 0 1024 1024" style="enable-background:new 0 0 1024 1024;" xml:space="preserve">
<style type="text/css">
	.st0{fill:#4F0599;}
	.st1{fill:#FFFFFF;}
</style>
<g id="Guides">
</g>
<g id="Icon">
	<circle class="st0" cx="512" cy="512" r="512"/>
	<g>
		<title>Scaleway icon</title>
		<path class="st1" d="M610.2,493v122c-0.7,18.4-14.6,33.7-32.9,36.1h-85.3c-14.3-1.1-25.9-11.9-27.9-26c-0.1-1.3-0.1-2.6,0-3.8
			c0.1-16.1,13.2-29,29.2-29h37.1c11.8,0,21.3-9.6,21.3-21.3v-77.2c-0.1-14.7,10.6-27.3,25.2-29.7h3.6c16.1-0.2,29.4,12.7,29.7,28.8
			C610.2,492.9,610.2,492.9,610.2,493z M472.4,530.1v-76.6c0-11.8,9.6-21.3,21.3-21.3h39.5c16.1,0,29.2-13.1,29.2-29.2
			c0.1-1.2,0.1-2.4,0-3.6c-2.6-14.7-15.2-25.4-30.1-25.6h-84.5c-18.2,2.3-32.3,17.1-33.7,35.4v121.6c0,16.1,13.1,29.2,29.2,29.2h4.5
			C462.3,557.4,472.7,544.8,472.4,530.1z M728.4,438.6v244c-5.3,46-42.4,81.8-88.5,85.3H478.2c-100.9-0.1-182.6-81.9-182.6-182.8
			V352.9c0-53.5,43.4-96.9,96.9-96.9c0,0,0,0,0,0h153.2c100.9,0,182.6,81.8,182.6,182.6L728.4,438.6z M670,438.6
			c-0.1-68.5-55.6-124-124.2-124.2H392.4c-21.1-0.1-38.3,16.9-38.4,38c0,0.1,0,0.3,0,0.4v232.3c0.4,68.4,55.8,123.6,124.2,123.7
			h158.7c16.7-2.1,30.1-15,32.9-31.6L670,438.6z"/>
	</g>
</g>
</svg>
