<?xml version="1.0" encoding="utf-8"?>
<!-- Generator: Adobe Illustrator 21.0.0, SVG Export Plug-In . SVG Version: 6.00 Build 0)  -->
<svg version="1.1" xmlns="http://www.w3.org/2000/svg" xmlns:xlink="http://www.w3.org/1999/xlink" x="0px" y="0px"
	 viewBox="0 0 1024 1024" style="enable-background:new 0 0 1024 1024;" xml:space="preserve">
<style type="text/css">
	.st0{fill:#FFA10F;}
	.st1{fill:#FFFFFF;}
</style>
<g id="Guides">
</g>
<g id="Icon">
	<circle class="st0" cx="512" cy="512" r="512"/>
	<path class="st1" d="M221.2,466c0-9.6,7.7-17.2,17.2-17.2c4.8,0,8.6,1.9,11.5,4.8c0-1.9,0-2.9,0-4.8c0-32.6,25.9-58.5,58.5-58.5
		c8.6,0,16.3,1.9,24,4.8c0-1.9,0-2.9,0-4.8c0-48.9,39.3-88.2,88.2-88.2c47.9,0,87.2,39.3,88.2,87.2c-16.3,14.4-28.7,31.6-36.4,51.7
		c-15.3-9.6-34.5-15.3-53.7-15.3c-41.2,0-76.7,23-93,58.5h-63.2h-24C228.8,483.3,221.2,475.6,221.2,466z M684,413.3
		c-22-22-51.7-35.5-85.3-35.5c-60.4,0-111.2,45-118.8,103.5c-15.3-20.1-39.3-32.6-66.1-32.6c-45,0-82.4,36.4-82.4,82.4
		c0,13.4,2.9,25.9,8.6,36.4c-28.7,5.7-49.8,27.8-49.8,54.6c0,30.7,28.7,55.6,64.2,55.6c15.3,0,29.7-4.8,41.2-13.4L527.8,535
		c14.4-13.4,33.5-21.1,55.6-21.1c45,0,80.5,35.5,82.4,79.5l0,0c1,13.4-5.7,25.9-19.2,33.5c-17.2,10.5-39.3,4.8-48.9-11.5
		c-9.6-17.2-2.9-38.3,14.4-48.9c3.8-1.9,8.6-3.8,12.5-4.8c-3.8-1-7.7-1-11.5-1c-32.6,0-58.5,25.9-58.5,58.5
		c0,32.6,25.9,58.5,58.5,58.5c1,0,2.9,0,3.8,0l0,0h1.9h115l0,0c35.5-1.9,69-33.5,69-73.8c0-40.2-34.5-73.8-74.7-73.8l0,0
		c-6.7,11.5-14.4,18.2-24,25.9c9.6-17.2,15.3-36.4,15.3-57.5C719.5,465.1,706.1,435.4,684,413.3z"/>
</g>
</svg>
