<?xml version="1.0" encoding="utf-8"?>
<!-- Generator: Adobe Illustrator 21.0.0, SVG Export Plug-In . SVG Version: 6.00 Build 0)  -->
<svg version="1.1" xmlns="http://www.w3.org/2000/svg" xmlns:xlink="http://www.w3.org/1999/xlink" x="0px" y="0px"
	 viewBox="0 0 1024 1024" style="enable-background:new 0 0 1024 1024;" xml:space="preserve">
<style type="text/css">
	.st0{fill:#52BD94;}
	.st1{fill:#FFFFFF;}
</style>
<g id="Min_Guides__x28_DO_NOT_REMOVE_x29_">
</g>
<g id="Max_Guides__x28_DO_NOT_REMOVE_x29_">
</g>
<g id="Icon">
	<circle id="Background" class="st0" cx="512" cy="512" r="512"/>
	<path class="st1" d="M346.8,654.5c-16,0-29,13-29,29c0,16,13,29,29,29c16,0,29-13,29-29C375.8,667.5,362.8,654.5,346.8,654.5z
		 M666.7,304c-16,0-29.1,12.9-29.1,29c0,16,12.9,29.1,29,29.1c16,0,29.1-12.9,29.1-29c0,0,0,0,0-0.1C695.7,317,682.7,304,666.7,304z
		 M456.6,421.2v35.6c0,5.3,4.3,9.7,9.7,9.7h287.4c5.3,0,9.7-4.3,9.7-9.7v-35.6c0-5.3-4.4-9.7-9.7-9.7H466.3
		C460.9,411.6,456.6,415.9,456.6,421.2z M567.2,585.3v-35.5c0-5.3-4.3-9.7-9.7-9.7H270.1c-5.3,0-9.7,4.3-9.7,9.7v35.5
		c0,5.3,4.3,9.7,9.7,9.7h287.4C562.9,595,567.2,590.7,567.2,585.3z M761.2,537.5c-1.6-2-3.8-3.3-6.4-3.6l-35.3-3.6
		c-5.2-0.6-9.9,3.1-10.6,8.3c-14.8,110.2-116.3,187.6-226.5,172.7c-15.3-2.1-30.3-5.9-44.7-11.3c-4.9-1.9-10.4,0.4-12.3,5.3
		L411.9,738c-1,2.4-1,5.1,0,7.5c1,2.4,3,4.4,5.5,5.3c131.9,50.9,280.2-14.8,331.1-146.7c7.4-19.1,12.4-39,15-59.3
		C763.8,542.1,763,539.5,761.2,537.5z M262.5,455.9c-1.4-2.2-1.8-4.9-1.1-7.4c29-113.3,131.1-192.5,248-192.4
		c28.6,0,57.1,4.7,84.1,14.2c5,1.6,7.8,7,6.2,12c-0.1,0.2-0.2,0.5-0.3,0.7l-12.7,33.2c-1.8,4.9-7.2,7.5-12.1,5.7
		c-21-7.2-43.1-10.8-65.3-10.8c-46-0.2-90.6,15.5-126.3,44.5c-33.5,27.1-57.4,64.2-68.4,105.8c-1.1,4.2-4.9,7.2-9.3,7.2
		c-0.7,0.1-1.5,0.1-2.2,0l-34.6-7.9C265.9,459.9,263.8,458.2,262.5,455.9z"/>
</g>
</svg>
