<svg xmlns="http://www.w3.org/2000/svg" viewBox="0 0 1024 1024" style="enable-background:new 0 0 1024 1024" xml:space="preserve">
   <circle cx="512" cy="512" r="512" style="fill:#cb2027"/>
   <path d="M520.3 468.4c-16.5 0-29.8-13.3-29.8-29.8s13.3-29.8 29.8-29.8 29.8 13.3 29.8 29.8-13.3 29.8-29.8 29.8zm17.9 69.4c-1.5 12.3-9.7 13.9-9.7 13.9l-18.3 6.9c-5.3-20.8 2.9-27.4 2.9-27.4l26.7-5.7-1.6 12.3zm-83.6-45.6c-11.5 0-20.8-9.3-20.8-20.8s9.3-20.8 20.8-20.8 20.8 9.3 20.8 20.8c.1 11.5-9.3 20.8-20.8 20.8zm-47.5 11.6c-4.8 0-8.7-3.9-8.7-8.7 0-4.8 3.9-8.7 8.7-8.7 4.8 0 8.7 3.9 8.7 8.7 0 4.8-3.9 8.7-8.7 8.7zm-37.8-45.6c-5.1 2.6-11.3.5-13.9-4.6-2.6-5.1-.5-11.3 4.6-13.9 5.1-2.6 11.3-.5 13.9 4.6 2.5 5.1.5 11.3-4.6 13.9zm-22.8 10.2c-4.5 2.3-10.1.5-12.4-4.1-2.3-4.5-.5-10.1 4.1-12.4 4.5-2.3 10.1-.5 12.4 4.1 2.2 4.6.4 10.1-4.1 12.4zm-23.1 9.6c-3.7 1.9-8.2.4-10-3.3-1.9-3.7-.4-8.2 3.3-10 3.7-1.9 8.2-.4 10 3.3s.4 8.2-3.3 10zm451-174.8h-.2c-.1 0 0-.1-.1-.1-5.9-1.6-12.9 1-15.9 6.5-1.3 2.3-1.6 4.8-1.3 7.2-7.1 2.8-14.2 5.7-21.3 8.6 0 0 0-.1-.1-.1l-.9-1.5c-7.4-12.6-16.2-22.5-21.4-20.3-.8.4-2 1.3-2.5 3.5-1.2 4.8.8 13.8 5.1 24.1-9.2-15.6-20.4-28.3-26.7-25.6-1.5.6-2.5 2.1-3 4.2-1.5 6.1 1.1 17.5 6.6 30.6-6.9-10.9-14.6-18.8-19.3-16.7-.8.4-2 1.3-2.5 3.5-1 4.3.4 11.9 3.8 20.8.2.5.4 1.1.6 1.6 0 0-17.9 7.3-27.4 11.2-.4.2-.7.3-1.1.5-5.3-9.4-12.5-19.2-21.6-22.7-1-.4-2.7.5-3.1 1.5-1.8 4.9-3.5 9.9-5.3 14.8-4.2-2.5-8.6-4.6-13-6.3-25.7-9.7-54.1-6.2-79.4 3-41.5 15.1-77.4 44.5-110.7 72.8-.3.3-.6.5-.9.8-6.2-5.6-26.8-19.8-58.5.4-38.4 24.5-107 66.8-107 66.8s-9 6.4-4.1 14.9c4.9 8.4 15.9 3.5 15.9 3.5l49.4-12.7s25-8.4 36.9-4.9c-4.6 5.8-9.1 11.8-13.1 18-4.5 6.9-6.6 10.8-3.2 19.6v.1c1.7 3.4 3.3 6.7 5.1 10.1 0 0 .1 0 .1.1 4.5 7.3 8.5 8.4 16.1 9 4.9.4 9.8.4 14.7.4.4 3.2 1.4 8.4 4.6 8.4 4.5 0 27-7.5 25.3 32.4-1.7 39.9-10.3 72.5-11.1 88.9-.7 16.4-.6 44.6 42.2 41.7 42.8-3 58.6-30.2 61.9-36.4 3.3-6.2 1.7-19.5-9.3-27.4-11.1-7.9-10.5-16.4-7.1-20.8 3.4-4.4 6.1-15.3-5.2-25.8-8.4-7.8-6.9-24.6 5.9-28.5 12.8-3.9 57.4-21.2 57.4-21.2s15.9-4.2 17.6-24.9c1.1-12.7 3.5-19.2 5.2-22.3.4-.8 0-1.7-.8-1.9 1.8-.7 3.7-1.4 5.5-2.2.1-.1.3-.1.4-.2 3.2-1.4 6.4-2.7 9.5-4.2 4.3-2 8.4-4.1 12.3-6.2.3-.2.7-.4 1-.6 4.7-2.6 9.1-5.2 13.2-7.9.1-.1.2-.1.3-.2.1 0 .1-.1.2-.1l3-2.1.7-.1v-.4c.7-.5 1.5-1 2.2-1.6.8-.6 1.6-1.1 2.4-1.7 1.1-.8 2.1-1.7 3.2-2.6 16.6-13.2 30.7-29.9 37.4-50.3 1.8-5.3 3-11.1 3.7-17 5.4 2.5 10.8 5 16.3 7.5 1 .5 3-.7 3.1-1.8.5-4.3-.4-9-1.2-13.2-1.4-7.2-3.7-14.3-6.3-21.3 9-5.4 18.1-10.8 27.1-16.1.3.5.6.9.8 1.3 6.4 10.2 13.7 18.2 19.3 17.6.3 0 .7-.1 1.1-.3.7-.3 1.3-1 1.8-2.1 1.7-4.4-.9-14.5-5-24.6 8.5 14.3 18.5 26.2 26 25.3.5-.1.9-.2 1.3-.4.9-.5 1.6-1.3 2.1-2.5 2.3-6.2-2.1-21.3-8.3-35.5 6.8 11.4 14.8 20.8 20.9 20.1.3 0 .7-.1 1.1-.3.7-.3 1.3-1 1.8-2.1 1.8-4.9-1.5-16.8-6.4-28.1l-.6-1.5c4.8-2.9 9.7-5.8 14.5-8.6 2-1.2 4-2.4 6-3.5.8.5 1.6 1 2.6 1.3 5.6 1.8 12.3-.7 15.5-5.6 4.1-6.8 1.1-15-5.8-17.6z" style="fill:#fff"/>
</svg>
