<?xml version="1.0" encoding="utf-8"?>
<!-- Generator: Adobe Illustrator 21.0.0, SVG Export Plug-In . SVG Version: 6.00 Build 0)  -->
<svg version="1.1" xmlns="http://www.w3.org/2000/svg" xmlns:xlink="http://www.w3.org/1999/xlink" x="0px" y="0px"
	 viewBox="0 0 1024 1024" style="enable-background:new 0 0 1024 1024;" xml:space="preserve">
<style type="text/css">
	.st0{fill:#CB2027;}
	.st1{fill:#FFFFFF;}
</style>
<g id="Min_Guides__x28_DO_NOT_REMOVE_x29_">
</g>
<g id="Max_Guides__x28_DO_NOT_REMOVE_x29_">
</g>
<g id="Icon">
	<circle id="Background" class="st0" cx="512" cy="512" r="512"/>
	<path class="st1" d="M520.3,468.4c-16.5,0-29.8-13.3-29.8-29.8s13.3-29.8,29.8-29.8s29.8,13.3,29.8,29.8S536.8,468.4,520.3,468.4z
		 M538.2,537.8c-1.5,12.3-9.7,13.9-9.7,13.9l-18.3,6.9c-5.3-20.8,2.9-27.4,2.9-27.4l26.7-5.7L538.2,537.8z M454.6,492.2
		c-11.5,0-20.8-9.3-20.8-20.8c0-11.5,9.3-20.8,20.8-20.8c11.5,0,20.8,9.3,20.8,20.8C475.5,482.9,466.1,492.2,454.6,492.2z
		 M407.1,503.8c-4.8,0-8.7-3.9-8.7-8.7c0-4.8,3.9-8.7,8.7-8.7c4.8,0,8.7,3.9,8.7,8.7C415.8,499.9,411.9,503.8,407.1,503.8z
		 M369.3,458.2c-5.1,2.6-11.3,0.5-13.9-4.6c-2.6-5.1-0.5-11.3,4.6-13.9c5.1-2.6,11.3-0.5,13.9,4.6
		C376.4,449.4,374.4,455.6,369.3,458.2z M346.5,468.4c-4.5,2.3-10.1,0.5-12.4-4.1c-2.3-4.5-0.5-10.1,4.1-12.4
		c4.5-2.3,10.1-0.5,12.4,4.1C352.8,460.6,351,466.1,346.5,468.4z M323.4,478c-3.7,1.9-8.2,0.4-10-3.3c-1.9-3.7-0.4-8.2,3.3-10
		c3.7-1.9,8.2-0.4,10,3.3S327.1,476.2,323.4,478z M774.4,303.2c0,0-0.1,0-0.2,0c-0.1,0,0-0.1-0.1-0.1c-5.9-1.6-12.9,1-15.9,6.5
		c-1.3,2.3-1.6,4.8-1.3,7.2c-7.1,2.8-14.2,5.7-21.3,8.6c0,0,0-0.1-0.1-0.1c-0.3-0.5-0.6-1-0.9-1.5c-7.4-12.6-16.2-22.5-21.4-20.3
		c-0.8,0.4-2,1.3-2.5,3.5c-1.2,4.8,0.8,13.8,5.1,24.1c-9.2-15.6-20.4-28.3-26.7-25.6c-1.5,0.6-2.5,2.1-3,4.2
		c-1.5,6.1,1.1,17.5,6.6,30.6c-6.9-10.9-14.6-18.8-19.3-16.7c-0.8,0.4-2,1.3-2.5,3.5c-1,4.3,0.4,11.9,3.8,20.8
		c0.2,0.5,0.4,1.1,0.6,1.6c0,0-17.9,7.3-27.4,11.2c-0.4,0.2-0.7,0.3-1.1,0.5c-5.3-9.4-12.5-19.2-21.6-22.7c-1-0.4-2.7,0.5-3.1,1.5
		c-1.8,4.9-3.5,9.9-5.3,14.8c-4.2-2.5-8.6-4.6-13-6.3c-25.7-9.7-54.1-6.2-79.4,3c-41.5,15.1-77.4,44.5-110.7,72.8
		c-0.3,0.3-0.6,0.5-0.9,0.8c-6.2-5.6-26.8-19.8-58.5,0.4c-38.4,24.5-107,66.8-107,66.8s-9,6.4-4.1,14.9c4.9,8.4,15.9,3.5,15.9,3.5
		l49.4-12.7c0,0,25-8.4,36.9-4.9c-4.6,5.8-9.1,11.8-13.1,18c-4.5,6.9-6.6,10.8-3.2,19.6c0,0,0,0.1,0,0.1c1.7,3.4,3.3,6.7,5.1,10.1
		c0,0,0.1,0,0.1,0.1c4.5,7.3,8.5,8.4,16.1,9c4.9,0.4,9.8,0.4,14.7,0.4c0.4,3.2,1.4,8.4,4.6,8.4c4.5,0,27-7.5,25.3,32.4
		c-1.7,39.9-10.3,72.5-11.1,88.9c-0.7,16.4-0.6,44.6,42.2,41.7c42.8-3,58.6-30.2,61.9-36.4c3.3-6.2,1.7-19.5-9.3-27.4
		c-11.1-7.9-10.5-16.4-7.1-20.8c3.4-4.4,6.1-15.3-5.2-25.8c-8.4-7.8-6.9-24.6,5.9-28.5c12.8-3.9,57.4-21.2,57.4-21.2
		s15.9-4.2,17.6-24.9c1.1-12.7,3.5-19.2,5.2-22.3c0.4-0.8,0-1.7-0.8-1.9c1.8-0.7,3.7-1.4,5.5-2.2c0.1-0.1,0.3-0.1,0.4-0.2
		c3.2-1.4,6.4-2.7,9.5-4.2c4.3-2,8.4-4.1,12.3-6.2c0.3-0.2,0.7-0.4,1-0.6c4.7-2.6,9.1-5.2,13.2-7.9c0.1-0.1,0.2-0.1,0.3-0.2
		c0.1,0,0.1-0.1,0.2-0.1c1-0.7,2-1.4,3-2.1l0.7-0.1c0,0,0-0.2,0-0.4c0.7-0.5,1.5-1,2.2-1.6c0.8-0.6,1.6-1.1,2.4-1.7
		c1.1-0.8,2.1-1.7,3.2-2.6c16.6-13.2,30.7-29.9,37.4-50.3c1.8-5.3,3-11.1,3.7-17c5.4,2.5,10.8,5,16.3,7.5c1,0.5,3-0.7,3.1-1.8
		c0.5-4.3-0.4-9-1.2-13.2c-1.4-7.2-3.7-14.3-6.3-21.3c9-5.4,18.1-10.8,27.1-16.1c0.3,0.5,0.6,0.9,0.8,1.3
		c6.4,10.2,13.7,18.2,19.3,17.6c0.3,0,0.7-0.1,1.1-0.3c0.7-0.3,1.3-1,1.8-2.1c1.7-4.4-0.9-14.5-5-24.6c8.5,14.3,18.5,26.2,26,25.3
		c0.5-0.1,0.9-0.2,1.3-0.4c0.9-0.5,1.6-1.3,2.1-2.5c2.3-6.2-2.1-21.3-8.3-35.5c6.8,11.4,14.8,20.8,20.9,20.1c0.3,0,0.7-0.1,1.1-0.3
		c0.7-0.3,1.3-1,1.8-2.1c1.8-4.9-1.5-16.8-6.4-28.1c-0.2-0.5-0.4-1-0.6-1.5c4.8-2.9,9.7-5.8,14.5-8.6c2-1.2,4-2.4,6-3.5
		c0.8,0.5,1.6,1,2.6,1.3c5.6,1.8,12.3-0.7,15.5-5.6C784.3,314,781.3,305.8,774.4,303.2z"/>
</g>
</svg>
