<svg xmlns="http://www.w3.org/2000/svg" viewBox="0 0 1024 1024">
   <circle cx="512" cy="512" r="512" style="fill:#f28700"/>
   <path d="M811 515c-3.11 4.69-7.5 6.43-15 6.43-12.69 0-17.41-8-17.41-13.25H842c.34-36.55-19.84-47.39-48-47.39s-45 14.21-45 39.5c0 26.78 17.3 39.63 47.63 39.63 13.37 0 23.18-2.41 30.56-6.69s12.22-10.31 14.41-18.21H811Zm-32.4-23.69c1.5-9.24 7.15-12.85 17.29-12.85s16.49 4.82 17.07 12.85ZM669.6 562c5.42.53 13.15 1.2 19.6 1.2 15.68 0 18.91-3.88 23.53-14.32l35.4-85.14h-30.22l-14 37.62-14-37.62h-30.12l29.29 67.34-1.61 4c-2.42 5.35-4.61 5.62-10.73 5.62a36.85 36.85 0 0 1-7.15-.4Zm-42.2-47c-3.11 4.69-7.5 6.43-15 6.43-12.68 0-17.41-8-17.41-13.25h63.43c.35-36.55-19.84-47.39-48-47.39s-45 14.19-45 39.49c0 26.78 17.3 39.63 47.63 39.63 13.37 0 23.18-2.41 30.56-6.69s12.23-10.31 14.41-18.21h-30.63ZM595 491.32c1.5-9.24 7.15-12.85 17.3-12.85s16.49 4.82 17.07 12.85Zm-307.67-28.17c-21.81 0-35.9 15.21-35.9 38.74s14.09 38.74 35.9 38.74c11.32 0 25.65-6.44 31.93-24.52l.35-1h-13.83l-.19.48c-4.2 10.57-13.61 12.14-18.84 12.14-9.85 0-20.27-7.21-21.5-21h55.67v-2.53c0-30.27-17.35-41-33.59-41m-.58 12.9c10.6 0 18.31 7.09 20.27 18.57h-41.35c2-11.15 10.37-18.57 21.08-18.57M223.16 496C238 498.5 245 504.73 245 515.6c0 16.15-11.07 25-31.17 25S183.09 532 182 515.1v-.8h13.12v.75c0 6.52 4.82 13.49 18.33 13.49 16 0 17.75-7.25 17.75-10.37 0-4.44-1.77-7.29-10.81-8.75l-19.07-3c-8.25-1.4-17.05-7.29-17.05-19.61 0-14.83 10.61-23.68 28.39-23.68 18.51 0 29.29 8.73 30.36 24.58l.05.8H230v-.72c-.29-6.08-5-12.58-17.4-12.58-3.57 0-15.2.73-15.2 10.1 0 4.33 1.5 6.89 9.41 8.07l16.35 2.62m339.3-31.83v16.25l-1-.33a23 23 0 0 0-8-1.32c-11.69 0-18.67 8.44-18.67 22.58v36.84h-13.04v-72.6h13.07v11.13c6.22-11.14 14.37-13.57 20.29-13.57a20.36 20.36 0 0 1 6.81.85Zm-84.59-1c-21.81 0-35.9 15.21-35.9 38.74s14.09 38.74 35.9 38.74c11.32 0 25.65-6.44 31.94-24.52l.35-1h-13.84l-.19.48c-4.2 10.57-13.61 12.14-18.84 12.14-9.85 0-20.27-7.21-21.5-21h55.67v-2.55c0-30.27-17.35-41-33.59-41m-.58 12.9c10.61 0 18.31 7.09 20.28 18.57h-41.35c2-11.15 10.37-18.57 21.08-18.57m-32.14-10.46-27.86 72.6h-13.77l-.19-.48-27.91-72.12h14.92l.19.49 20.09 54.24 19.95-54.73Zm-80.59-2.44a20.28 20.28 0 0 1 6.81.85l.53.17v16.25l-1-.32a23 23 0 0 0-8-1.32c-11.69 0-18.67 8.44-18.67 22.58v36.84H331.2v-72.66h13.07v11.13c6.22-11.15 14.37-13.57 20.29-13.57" style="fill:#fff"/>
</svg>
