<svg xmlns="http://www.w3.org/2000/svg" viewBox="0 0 1024 1024">
   <circle cx="512" cy="512" r="512" style="fill:#009fff"/>
   <path d="M513.07 688.47c-21.19 0-53.48-33.14-42.28-45s74.35-11.05 84.73 0-21.26 45-42.45 45ZM739 308.36c-37-38.16-184 38.15-184 38.15h-42.86l-43.17.07s-147-76.31-184-38.15-44.57 289.19-23.17 313.7c11.16 12.78 71 62.74 166.74 104.09 26.68 11.52 63.77 16 83.62 16.11s56.63-4.61 83.3-16.13c95.72-41.35 155.54-84.66 166.74-97.44 21.4-24.52 13.71-282.25-23.2-320.4Zm-39.93 34c25.8 15.33 34 109 26.32 110.84s-120.85-67.47-123.29-76.6 71.14-49.6 96.9-34.25Zm-374.09 0c25.8-15.33 99.38 25.13 96.95 34.25S306.34 455 298.64 453.22s.52-95.52 26.36-110.85Zm-15.81 294.8s-24.6-10.2-30.89-20.87c-10.73-18.17-8.53-48.14-5.56-50.28 7.08-5.09 89.07-50.82 132.78-75.21 13.44-7.5 23.26-13 26.18-14.64 12.4-7.06 31.34 9 37.31 21.75s-.32 49.56-.32 49.56-25.48-28.51-37-22-111.77 63.96-122.5 70.42 0 41.27 0 41.27Zm203 85.62c-61.16 0-122.33-30.06-122.4-71s61.08-71 122.16-71 122.1 30.06 122.16 71c.06 40.94-60.78 71-121.93 71Zm233.56-106.51c-6.3 10.67-30.89 20.87-30.89 20.87s10.73-34.82 0-41.28-111-63.83-122.51-70.37-37 22-37 22-6.33-36.82-.33-49.59 24.91-28.81 37.31-21.75c2.92 1.66 12.74 7.14 26.18 14.64 43.72 24.38 125.7 70.11 132.78 75.21 3 2.14 5.17 32.1-5.56 50.28Z" style="fill:#fff"/>
</svg>
