<svg xmlns="http://www.w3.org/2000/svg" viewBox="0 0 1024 1024">
   <circle cx="512" cy="512" r="512" style="fill:#009da7"/>
   <path d="M377.2 551c-2.57 0-3.86-1.29-3.86-4.37V511.1c0-16.46-13.38-25.47-31.64-25.47-15.18 0-25.73 5.66-32.67 18l17.49 8.23c3.6-6.43 10-8.49 17-8.49 5.4 0 10 3.34 10 6.69 0 2.32-1 3.6-5.15 4.12C319.83 518 307 527.31 307 544c0 13.38 12.09 22.38 27 22.38 10.29 0 17.49-2.57 22.64-6.95 3.09 5.15 8 6.43 13.63 6.43a32.16 32.16 0 0 0 9.26-1.29v-13.85l-2.32.26zm-23.67-7.72a29.55 29.55 0 0 1-17.53 5.64c-5.4 0-9.52-1.8-9.52-6.43 0-6.17 9-9.78 22.12-12.86a36.81 36.81 0 0 0 4.63-1.29l.26 14.92zm54.54-47.33v-9H388v78.46h20.07v-47.62c4.12-8.75 11.32-13.12 22.38-13.12v-18.52c-10.03 0-16.72 2.57-22.38 9.77zM273 485.37c-8 0-15.44 3.86-20.58 8.49v-35.24h-20.06v106.76h20.07v-50.94c4.37-5.92 11.32-10.29 18.27-10.29 5.92 0 9 2.57 9 8v53.25h20.07v-56.6c-.01-15.97-11.58-23.43-26.77-23.43zm-81.55 17.24c-20.31-6.95-24.45-12.09-24.45-16.72 0-5.4 5.92-9.78 15.95-9.78 7.72 0 13.89 3.34 16.46 10.8l19.29-4.37c-5.15-15.69-16.72-25.21-37.3-25.21-20.84.51-36 12.86-36.27 30.1 0 17.24 15.18 26.24 35.24 33.44 18.52 6.69 22.12 9.52 22.12 16.21 0 4.89-5.15 11.06-18.27 11.06a26.38 26.38 0 0 1-23.41-15.69l-18.78 4.12c4.37 15.69 17 30.1 43.48 30.1s39.87-14.15 39.87-31.9c.04-10.29-5.62-22.38-33.92-32.16zm460-17c-22.64 0-38.85 15.95-38.85 40.39s16.21 40.65 38.85 40.65S690.3 550.44 690.3 526s-16.23-40.37-38.87-40.37zm-.51 63c-8 0-16.72-5.66-16.72-22.64s8.75-22.64 16.72-22.64 16.7 5.67 16.7 22.67-8.75 22.66-16.72 22.66zm208.63-29.58c-17-5.92-18.78-8.23-18.78-11.58 0-2.32 2.57-4.89 8.75-4.89 5.4 0 10.29 3.34 13.38 6.95l14.92-11.06c-6.69-8.23-17-12.86-28.81-12.86-14.66 0-27.78 7.72-27.78 22.38 0 10.8 8.23 19.55 26.24 25.47 10.8 3.6 14.41 5.4 14.41 9.26s-4.63 7.2-10.8 7.2-12.09-3.09-16.21-9.52l-16.21 7.72c5.92 10.55 15.69 18.52 31.9 18.52 18.78 0 31.39-9.78 31.39-25-.04-9.68-5.44-16.62-22.42-22.55zm-40.9-31.9h-25.75l-25 29.07v-57.84H747.9v107.28H768v-21.35l10.8-12.09 18.78 33.44h22.64l-28.3-48.36zm-101.1 8.75v-9h-20.09v78.46h20.07v-47.55c4.12-8.75 11.32-13.12 22.38-13.12v-18.52c-10.04 0-16.72 2.57-22.38 9.77zm-123.48-8.75L582 535.8l-12.09-48.62h-19.58l-12.09 48.62-12.35-48.62h-20.84l22.9 78.46h20.58l11.83-46.31 11.83 46.31H592l22.64-78.46zm-87 37.82c0-21.87-12.61-39.62-36.53-39.62-25.21 0-38.33 16.72-38.33 39.62 0 26.75 15.44 41.42 38.33 41.42 15.18 0 27.78-6.95 34-19.81l-17.24-8c-3.09 6.43-9.52 10.29-17.49 10.29-6.95 0-14.92-3.86-16.46-17.24h53.77zm-53.77-8.75c1.54-8.23 6.95-13.38 16.46-13.38s15.44 5.4 15.95 13.38z" style="fill:#fff"/>
</svg>
