<?xml version="1.0" encoding="utf-8"?>
<!-- Generator: Adobe Illustrator 21.0.0, SVG Export Plug-In . SVG Version: 6.00 Build 0)  -->
<svg version="1.1" xmlns="http://www.w3.org/2000/svg" xmlns:xlink="http://www.w3.org/1999/xlink" x="0px" y="0px"
	 viewBox="0 0 1024 1024" style="enable-background:new 0 0 1024 1024;" xml:space="preserve">
<style type="text/css">
	.st0{fill:#009CA6;}
	.st1{fill:#FFFFFF;}
</style>
<g id="Min_Guides__x28_DO_NOT_REMOVE_x29_">
</g>
<g id="Max_Guides__x28_DO_NOT_REMOVE_x29_">
</g>
<g id="Icon">
	<circle id="Background" class="st0" cx="512" cy="512" r="512"/>
	<path class="st1" d="M377.2,551c-2.6,0-3.9-1.3-3.9-4.4v-35.5c0-16.5-13.4-25.5-31.6-25.5c-15.2,0-25.7,5.7-32.7,18l17.5,8.2
		c3.6-6.4,10-8.5,17-8.5c5.4,0,10,3.3,10,6.7c0,2.3-1,3.6-5.1,4.1C319.8,518,307,527.3,307,544c0,13.4,12.1,22.4,27,22.4
		c10.3,0,17.5-2.6,22.6-6.9c3.1,5.1,8,6.4,13.6,6.4c3.6,0,6.7-0.5,9.3-1.3v-13.9L377.2,551L377.2,551z M353.5,543.3
		c-5.1,3.9-11.6,5.7-17.5,5.7c-5.4,0-9.5-1.8-9.5-6.4c0-6.2,9-9.8,22.1-12.9c1.8-0.5,3.6-0.8,4.6-1.3L353.5,543.3L353.5,543.3z
		 M408.1,495.9v-9H388v78.5h20.1v-47.6c4.1-8.7,11.3-13.1,22.4-13.1v-18.5C420.4,486.1,413.7,488.7,408.1,495.9z M273,485.4
		c-8,0-15.4,3.9-20.6,8.5v-35.2h-20.1v106.8h20.1v-50.9c4.4-5.9,11.3-10.3,18.3-10.3c5.9,0,9,2.6,9,8v53.3h20.1v-56.6
		C299.8,492.8,288.2,485.4,273,485.4z M191.5,502.6c-20.3-6.9-24.4-12.1-24.4-16.7c0-5.4,5.9-9.8,15.9-9.8c7.7,0,13.9,3.3,16.5,10.8
		l19.3-4.4c-5.1-15.7-16.7-25.2-37.3-25.2c-20.8,0.5-36,12.9-36.3,30.1c0,17.2,15.2,26.2,35.2,33.4c18.5,6.7,22.1,9.5,22.1,16.2
		c0,4.9-5.1,11.1-18.3,11.1c-8.5,0-19-5.4-23.4-15.7l-18.8,4.1c4.4,15.7,17,30.1,43.5,30.1s39.9-14.1,39.9-31.9
		C225.4,524.5,219.8,512.4,191.5,502.6z M651.4,485.6c-22.6,0-38.8,15.9-38.8,40.4s16.2,40.6,38.8,40.6c22.6,0,38.8-16.2,38.8-40.6
		S674.1,485.6,651.4,485.6z M650.9,548.7c-8,0-16.7-5.7-16.7-22.6s8.7-22.6,16.7-22.6s16.7,5.7,16.7,22.6S658.9,548.7,650.9,548.7z
		 M859.6,519.1c-17-5.9-18.8-8.2-18.8-11.6c0-2.3,2.6-4.9,8.7-4.9c5.4,0,10.3,3.3,13.4,6.9l14.9-11.1c-6.7-8.2-17-12.9-28.8-12.9
		c-14.7,0-27.8,7.7-27.8,22.4c0,10.8,8.2,19.6,26.2,25.5c10.8,3.6,14.4,5.4,14.4,9.3s-4.6,7.2-10.8,7.2c-6.2,0-12.1-3.1-16.2-9.5
		l-16.2,7.7c5.9,10.5,15.7,18.5,31.9,18.5c18.8,0,31.4-9.8,31.4-25C881.9,531.9,876.5,525,859.6,519.1z M818.6,487.2h-25.7l-25,29.1
		v-57.9h-20.1v107.3H768v-21.4l10.8-12.1l18.8,33.4h22.6l-28.3-48.4L818.6,487.2z M717.5,495.9v-9h-20.1v78.5h20.1v-47.6
		c4.1-8.7,11.3-13.1,22.4-13.1v-18.5C729.9,486.1,723.2,488.7,717.5,495.9z M594.1,487.2L582,535.8l-12.1-48.6h-19.6l-12.1,48.6
		l-12.3-48.6h-20.8l22.9,78.5h20.6l11.8-46.3l11.8,46.3H592l22.6-78.5H594.1z M507.1,525c0-21.9-12.6-39.6-36.5-39.6
		c-25.2,0-38.3,16.7-38.3,39.6c0,26.8,15.4,41.4,38.3,41.4c15.2,0,27.8-6.9,34-19.8l-17.2-8c-3.1,6.4-9.5,10.3-17.5,10.3
		c-6.9,0-14.9-3.9-16.5-17.2h53.8V525z M453.3,516.2c1.5-8.2,6.9-13.4,16.5-13.4s15.4,5.4,15.9,13.4
		C485.8,516.2,453.3,516.2,453.3,516.2z"/>
</g>
</svg>
