<svg xmlns="http://www.w3.org/2000/svg" viewBox="0 0 1024 1024">
   <circle cx="512" cy="512" r="512" style="fill:#ee4d2d"/>
   <path d="M738.77 359.31a9.75 9.75 0 0 0-9.72-9.79H623.78C621.2 280.8 572.15 226 512 226s-109.18 54.8-111.77 123.53H294.82a9.76 9.76 0 0 0-9.54 9.78v.76h-.07l15 331.25q0 1.38.1 2.79v1.33c2.28 23.05 19 41.62 41.76 42.47l.05.05h336.23c23.14-.63 41.89-19.46 43.87-42.79v-.31c0-.25 0-.49.05-.74q.05-.88.07-1.76l16.4-332.56c.03-.15.03-.32.03-.49ZM512 255.9c43.82 0 79.53 41.58 81.2 93.63H430.81c1.67-52.05 37.38-93.63 81.19-93.63Zm83.12 353.29c-3 24.59-17.88 44.28-41 54.14-12.85 5.49-30.11 8.46-43.77 7.53a141.4 141.4 0 0 1-59.78-15.47c-6.59-3.39-16.42-10.15-24-16.48-1.91-1.6-2.14-2.63-.87-4.42.68-1 1.94-2.89 4.72-7 4-5.91 4.54-6.66 5-7.35 1.29-2 3.39-2.15 5.46-.53l.38.3 1.14.89 1.6 1.2c19.9 15.59 43.08 24.58 66.48 25.47 32.55-.44 56-15.08 60.16-37.56 4.61-24.74-14.81-46.1-52.8-58-11.88-3.72-41.91-15.75-47.45-19Q431.35 510 433.92 473c2.65-34.22 34.41-59.74 74.55-59.91A135.65 135.65 0 0 1 561.53 424c6.09 2.57 17 8.49 20.73 11.29 2.16 1.59 2.59 3.44 1.35 5.44-.69 1.16-1.84 3-4.25 6.82-3.18 5-3.28 5.2-4 6.38-1.26 1.92-2.74 2.1-5 .65-18.41-12.37-38.82-18.59-61.27-19-27.95.55-48.9 17.19-50.27 39.84-.37 20.46 15 35.41 48.14 46.8 67.26 21.63 93.04 46.99 88.16 86.96Z" style="fill:#fff"/>
</svg>
