<?xml version="1.0" encoding="utf-8"?>
<!-- Generator: Adobe Illustrator 21.0.0, SVG Export Plug-In . SVG Version: 6.00 Build 0)  -->
<svg version="1.1" xmlns="http://www.w3.org/2000/svg" xmlns:xlink="http://www.w3.org/1999/xlink" x="0px" y="0px"
	 viewBox="0 0 1024 1024" style="enable-background:new 0 0 1024 1024;" xml:space="preserve">
<style type="text/css">
	.st0{fill:#95BF47;}
	.st1{fill:#FFFFFF;}
</style>
<g id="Guides">
</g>
<g id="Icon">
	<circle class="st0" cx="512" cy="512" r="512"/>
	<g>
		<path class="st1" d="M597.3,308c0,0-6,1.7-15.9,4.7c-1.7-5.6-4.3-12-7.7-18.9c-11.2-21.5-27.9-33.1-47.7-33.1l0,0
			c-1.3,0-2.6,0-4.3,0.4c-0.4-0.9-1.3-1.3-1.7-2.1c-8.6-9.5-19.8-13.8-33.1-13.3c-25.8,0.9-51.6,19.3-72.2,52.4
			c-14.6,23.2-25.8,52.4-28.8,75.2c-29.7,9-50.3,15.5-50.7,15.9c-15,4.7-15.5,5.2-17.2,19.3c-1.3,10.7-40.8,313.4-40.8,313.4
			l325,56.3V307.6C599.5,307.6,598.2,308,597.3,308z M522.1,331.2c-17.2,5.2-36.1,11.2-54.6,16.8c5.2-20.2,15.5-40.4,27.5-53.7
			c4.7-4.7,11.2-10.3,18.5-13.8C520.8,296,522.5,317.1,522.1,331.2z M486.9,263.3c6,0,11.2,1.3,15.5,3.9c-6.9,3.4-13.8,9-20.2,15.5
			c-16.3,17.6-28.8,45.1-34,71.4c-15.5,4.7-31,9.5-45.1,13.8C412.5,326.5,447.3,264.2,486.9,263.3z M437,499.8
			c1.7,27.5,74.4,33.5,78.7,98.4c3,51.2-27.1,86-70.5,88.6c-52.4,3.4-81.2-27.5-81.2-27.5l11.2-47.3c0,0,28.8,21.9,52,20.2
			c15-0.9,20.6-13.3,20.2-21.9c-2.1-36.1-61.5-34-65.3-93.3c-3.4-49.9,29.2-100.2,101.5-104.9c27.9-1.7,42.1,5.2,42.1,5.2
			l-16.3,61.9c0,0-18.5-8.6-40.4-6.9C437,474.4,436.6,494.6,437,499.8z M539.3,326.1c0-12.9-1.7-31.4-7.7-46.9
			c19.8,3.9,29.2,25.8,33.5,39.1C557.4,320.5,548.8,323.1,539.3,326.1z"/>
		<path class="st1" d="M612,777.5l135-33.5c0,0-58-392.5-58.5-395.1c-0.4-2.6-2.6-4.3-4.7-4.3s-40-0.9-40-0.9s-23.2-22.4-31.8-31
			V777.5z"/>
	</g>
</g>
</svg>
