<svg xmlns="http://www.w3.org/2000/svg" viewBox="0 0 1024 1024" style="enable-background:new 0 0 1024 1024" xml:space="preserve">
   <circle cx="512" cy="512" r="512" style="fill:#1fb07e"/>
   <path d="m448.5 577-94-3.1c0 23.5 6.3 45.4 20.4 62.7 14.1 20.4 31.3 34.5 56.4 47l40.7 11H284V329.5h188c-14.1 3.1-26.6 6.3-39.2 12.5-20.1 8.8-37.4 22.8-50.1 40.7-12.8 16.7-19.9 37-20.4 58 0 23.5 4.7 42.3 15.7 58 9.4 14.1 21.9 25.1 37.6 31.3 15.7 7.8 36 14.1 62.7 18.8 26.4 6.7 52.6 14.5 78.3 23.5 0 0 7.1 3.1 8 12.2v.2c.1 1 .1 2.1 0 3.3 0 1.8-.1 4.1-.4 5.7-1.1 9.2-5.9 17-15.4 22.5-7.8 6.3-20.4 7.8-36 7.8-20.4 0-34.5-4.7-47-12.5-10.5-8.5-16.7-21.1-17.3-34.5zm94-249.1 39.2 12.5c20.8 9.2 38.6 23.8 51.7 42.3 12.5 17.2 20.4 37.6 20.4 59.5h-94c-1.6-12.5-6.3-23.5-15.7-31.3-9.4-7.8-21.9-11-39.2-11-12.5 0-23.5 1.6-31.3 7.8-9.4 6.3-14.1 14.1-14.1 25.1 0 6.3 3.1 12.5 7.8 17.2l25.1 9.4 51.7 12.5c21.4 3.6 42.4 9.3 62.7 17.2 15.7 6.6 29.2 17.5 39.2 31.3 10.8 16.2 16.2 35.4 15.7 54.8 0 22.5-7.1 44.4-20.4 62.7-13.3 19.3-31.8 34.5-53.3 43.9-12.5 6.3-25.1 11-40.7 14.1H740v-368H542.5z" style="fill:#fff"/>
</svg>
