<?xml version="1.0" encoding="utf-8"?>
<!-- Generator: Adobe Illustrator 21.0.0, SVG Export Plug-In . SVG Version: 6.00 Build 0)  -->
<svg version="1.1" xmlns="http://www.w3.org/2000/svg" xmlns:xlink="http://www.w3.org/1999/xlink" x="0px" y="0px"
	 viewBox="0 0 1024 1024" style="enable-background:new 0 0 1024 1024;" xml:space="preserve">
<style type="text/css">
	.st0{fill:#1FB07E;}
	.st1{fill:#FFFFFF;}
</style>
<g id="Min_Guides__x28_DO_NOT_REMOVE_x29_">
</g>
<g id="Max_Guides__x28_DO_NOT_REMOVE_x29_">
</g>
<g id="Icon">
	<circle id="Background" class="st0" cx="512" cy="512" r="512"/>
	<path class="st1" d="M448.5,577l-94-3.1c0,23.5,6.3,45.4,20.4,62.7c14.1,20.4,31.3,34.5,56.4,47l40.7,11H284V329.5h188
		c-14.1,3.1-26.6,6.3-39.2,12.5c-20.1,8.8-37.4,22.8-50.1,40.7c-12.8,16.7-19.9,37-20.4,58c0,23.5,4.7,42.3,15.7,58
		c9.4,14.1,21.9,25.1,37.6,31.3c15.7,7.8,36,14.1,62.7,18.8c26.4,6.7,52.6,14.5,78.3,23.5c0,0,7.1,3.1,8,12.2l0,0c0,0,0,0.1,0,0.2
		c0.1,1,0.1,2.1,0,3.3c0,1.8-0.1,4.1-0.4,5.7c0,0,0,0,0,0c-1.1,9.2-5.9,17-15.4,22.5c-7.8,6.3-20.4,7.8-36,7.8
		c-20.4,0-34.5-4.7-47-12.5C455.3,603,449.1,590.4,448.5,577z M542.5,327.9l39.2,12.5c20.8,9.2,38.6,23.8,51.7,42.3
		c12.5,17.2,20.4,37.6,20.4,59.5h-94c-1.6-12.5-6.3-23.5-15.7-31.3c-9.4-7.8-21.9-11-39.2-11c-12.5,0-23.5,1.6-31.3,7.8
		c-9.4,6.3-14.1,14.1-14.1,25.1c0,6.3,3.1,12.5,7.8,17.2l25.1,9.4l51.7,12.5c21.4,3.6,42.4,9.3,62.7,17.2
		c15.7,6.6,29.2,17.5,39.2,31.3c10.8,16.2,16.2,35.4,15.7,54.8c0,22.5-7.1,44.4-20.4,62.7c-13.3,19.3-31.8,34.5-53.3,43.9
		c-12.5,6.3-25.1,11-40.7,14.1H740V327.9H542.5z"/>
</g>
</svg>
