<?xml version="1.0" encoding="utf-8"?>
<!-- Generator: Adobe Illustrator 21.0.0, SVG Export Plug-In . SVG Version: 6.00 Build 0)  -->
<svg version="1.1" xmlns="http://www.w3.org/2000/svg" xmlns:xlink="http://www.w3.org/1999/xlink" x="0px" y="0px"
	 viewBox="0 0 1024 1024" style="enable-background:new 0 0 1024 1024;" xml:space="preserve">
<style type="text/css">
	.st0{fill:#ED2E7C;}
	.st1{fill:#FFFFFF;}
</style>
<g id="Min_Guides__x28_DO_NOT_REMOVE_x29_">
</g>
<g id="Max_Guides__x28_DO_NOT_REMOVE_x29_">
</g>
<g id="Icon">
	<circle id="Background" class="st0" cx="512" cy="512" r="512"/>
	<path id="Logo" class="st1" d="M332.6,341L332.6,341L332.6,341L332.6,341z M751.6,341.1H332.5l-5.3,5.5l-0.9,1
		c-4,4.2-8.2,8.2-12.5,12.1c-31.9,29.8-70.5,51.4-112.6,62.8c-1.2,0.4-2.4,0.6-3.6,1l-5.3,1.3l-1.2,5.3c-0.4,1.9-0.8,3.9-1.2,5.9
		c-2.6,13.6-3.9,27.4-3.9,41.3c0,86.9,51.4,165.7,130.9,200.7c0.9,0.4,1.9,0.9,2.9,1.3c2.2,1,4.4,1.8,6.6,2.7l2.6,1l0.4,0.1l0.2-0.1
		c0.2,0.1,0.4,0.1,0.6,0.1h421.3c9.1,0,16.4-7.3,16.5-16.4c0,0,0,0,0,0V357.4c0.1-9-7.2-16.3-16.1-16.3
		C751.8,341.1,751.7,341.1,751.6,341.1z M723.2,367.4L547.8,520.3c-3.6,3.1-9,3.1-12.6-0.1L478,469.5c-0.2-12.2-1.6-24.3-3.9-36.3
		c-0.2-1-0.4-2-0.5-3.1l-1.2-5.3l-5.3-1.4c-1.3-0.3-2.6-0.6-3.9-0.9c-29.2-8-56.7-20.9-81.4-38.3l-19-16.8L723.2,367.4L723.2,367.4z
		 M487.1,511.7l-14.4,12.7c1.7-7.3,2.9-14.6,3.9-22.1L487.1,511.7z M329.8,664.4c-5.4-2.2-10.7-4.7-15.9-7.3
		c-67.4-34.7-109.9-104-110.3-179.8c0-12.8,1.2-25.5,3.7-38.1c39-10.5,75.3-29.1,106.6-54.7c6.5-5.2,12.7-10.8,18.7-16.7
		c29.4,28.7,64.8,50.7,103.5,64.5c6.9,2.6,14,4.8,21.2,6.7c0.8,4.6,1.6,9.2,2,13.9c0.8,7.5,1.3,15,1.3,22.6c0,4.1-0.1,8.2-0.4,12.4
		c-1.2,20.1-5.4,39.9-12.6,58.7C427.1,600.9,384.2,643.8,329.8,664.4z M380.9,657.6c30.9-20.7,55.9-48.9,72.9-82l52.6-46.5
		l28.6,25.5c3.6,3.2,9,3.2,12.6,0l29.1-25.8l146,128.6L380.9,657.6z M596.6,511.6l146.1-129.9l0.3,259L596.6,511.6z M369.2,615.6
		c7-5.1,13.5-10.8,19.4-17.1L369.2,615.6z M434.4,465.1c-0.4-3.7-1-7.3-1.7-11c-5.8-1.6-11.4-3.4-17-5.5c0,0-0.1,0-0.1-0.1l0,0
		c-1.5-0.4-2.8-1.1-4.3-1.7c-3.2-1.3-6.4-2.6-9.6-4.2c-2.2-1-4.5-2-6.7-3.2c-1.6-0.7-3.2-1.6-4.8-2.5c-5-2.6-10-5.6-14.8-8.7
		c-3-1.8-6-3.9-8.8-5.9c-0.2-0.1-0.5-0.3-0.6-0.4c-3.1-2.1-6.1-4.4-9.1-6.7c-6-4.6-11.7-9.4-17.3-14.6c-2.4-2.1-4.8-4.3-7-6.6
		c-6,5.8-12.2,11.3-18.6,16.7c-24,20.1-52,34.9-82.1,43.5c-1.9,10.1-2.9,20.4-2.9,30.7c0.2,60,32.7,115.2,85,144.4
		c5.3,2.9,10.8,5.5,16.4,7.8c3.3-1.3,6.6-2.6,9.8-4.1c0.1,0,0.1,0,0.2-0.1c2.6-1.2,5.3-2.5,7.9-3.9c2.4-1.2,4.7-2.5,6.9-3.9
		c0.8-0.4,1.5-0.8,2.2-1.3c1.2-0.7,2.4-1.5,3.5-2.2c0.3-0.1,0.5-0.3,0.7-0.5c2.1-1.3,4-2.6,6-4.1c0.7-0.4,1.3-0.8,1.8-1.4l19.4-17.1
		c0.2,0,0.2,0,0.2-0.1c19.4-20.1,33.4-44.8,40.7-71.7c3.9-14.1,5.9-28.6,5.9-43.2C435.4,477.3,435,471.2,434.4,465.1z M339.9,559.1
		L325,574.1h-0.1l-61.8-61.8l19-19.1L325,536l14.9-14.9l52.1-52.2L411,488L339.9,559.1z"/>
</g>
</svg>
