<svg xmlns="http://www.w3.org/2000/svg" viewBox="0 0 1024 1024" style="enable-background:new 0 0 1024 1024" xml:space="preserve">
   <circle cx="512" cy="512" r="512" style="fill:#ed2e7c"/>
   <path d="M332.6 341zm419 .1H332.5l-5.3 5.5-.9 1c-4 4.2-8.2 8.2-12.5 12.1-31.9 29.8-70.5 51.4-112.6 62.8-1.2.4-2.4.6-3.6 1l-5.3 1.3-1.2 5.3c-.4 1.9-.8 3.9-1.2 5.9-2.6 13.6-3.9 27.4-3.9 41.3 0 86.9 51.4 165.7 130.9 200.7.9.4 1.9.9 2.9 1.3 2.2 1 4.4 1.8 6.6 2.7l2.6 1 .4.1.2-.1c.2.1.4.1.6.1h421.3c9.1 0 16.4-7.3 16.5-16.4V357.4c.1-9-7.2-16.3-16.1-16.3h-.3zm-28.4 26.3L547.8 520.3c-3.6 3.1-9 3.1-12.6-.1L478 469.5c-.2-12.2-1.6-24.3-3.9-36.3-.2-1-.4-2-.5-3.1l-1.2-5.3-5.3-1.4-3.9-.9c-29.2-8-56.7-20.9-81.4-38.3l-19-16.8h360.4zM487.1 511.7l-14.4 12.7c1.7-7.3 2.9-14.6 3.9-22.1l10.5 9.4zM329.8 664.4c-5.4-2.2-10.7-4.7-15.9-7.3-67.4-34.7-109.9-104-110.3-179.8 0-12.8 1.2-25.5 3.7-38.1 39-10.5 75.3-29.1 106.6-54.7 6.5-5.2 12.7-10.8 18.7-16.7 29.4 28.7 64.8 50.7 103.5 64.5 6.9 2.6 14 4.8 21.2 6.7.8 4.6 1.6 9.2 2 13.9.8 7.5 1.3 15 1.3 22.6 0 4.1-.1 8.2-.4 12.4-1.2 20.1-5.4 39.9-12.6 58.7-20.5 54.3-63.4 97.2-117.8 117.8zm51.1-6.8c30.9-20.7 55.9-48.9 72.9-82l52.6-46.5 28.6 25.5c3.6 3.2 9 3.2 12.6 0l29.1-25.8 146 128.6-341.8.2zm215.7-146 146.1-129.9.3 259-146.4-129.1zm-227.4 104c7-5.1 13.5-10.8 19.4-17.1l-19.4 17.1zm65.2-150.5c-.4-3.7-1-7.3-1.7-11-5.8-1.6-11.4-3.4-17-5.5 0 0-.1 0-.1-.1-1.5-.4-2.8-1.1-4.3-1.7-3.2-1.3-6.4-2.6-9.6-4.2-2.2-1-4.5-2-6.7-3.2-1.6-.7-3.2-1.6-4.8-2.5-5-2.6-10-5.6-14.8-8.7-3-1.8-6-3.9-8.8-5.9-.2-.1-.5-.3-.6-.4-3.1-2.1-6.1-4.4-9.1-6.7-6-4.6-11.7-9.4-17.3-14.6-2.4-2.1-4.8-4.3-7-6.6-6 5.8-12.2 11.3-18.6 16.7-24 20.1-52 34.9-82.1 43.5-1.9 10.1-2.9 20.4-2.9 30.7.2 60 32.7 115.2 85 144.4 5.3 2.9 10.8 5.5 16.4 7.8 3.3-1.3 6.6-2.6 9.8-4.1.1 0 .1 0 .2-.1 2.6-1.2 5.3-2.5 7.9-3.9 2.4-1.2 4.7-2.5 6.9-3.9.8-.4 1.5-.8 2.2-1.3 1.2-.7 2.4-1.5 3.5-2.2.3-.1.5-.3.7-.5 2.1-1.3 4-2.6 6-4.1.7-.4 1.3-.8 1.8-1.4l19.4-17.1c.2 0 .2 0 .2-.1 19.4-20.1 33.4-44.8 40.7-71.7 3.9-14.1 5.9-28.6 5.9-43.2-.2-6.2-.6-12.3-1.2-18.4zm-94.5 94-14.9 15h-.1l-61.8-61.8 19-19.1L325 536l14.9-14.9 52.1-52.2 19 19.1-71.1 71.1z" style="fill:#fff"/>
</svg>
