<?xml version="1.0" encoding="utf-8"?>
<!-- Generator: Adobe Illustrator 21.0.0, SVG Export Plug-In . SVG Version: 6.00 Build 0)  -->
<svg version="1.1" xmlns="http://www.w3.org/2000/svg" xmlns:xlink="http://www.w3.org/1999/xlink" x="0px" y="0px"
	 viewBox="0 0 1024 1024" style="enable-background:new 0 0 1024 1024;" xml:space="preserve">
<style type="text/css">
	.st0{fill:#ED2E7C;}
	.st1{fill:#FFFFFF;}
</style>
<g id="Min_Guides__x28_DO_NOT_REMOVE_x29_">
</g>
<g id="Max_Guides__x28_DO_NOT_REMOVE_x29_">
</g>
<g id="Icon">
	<circle id="Background" class="st0" cx="512" cy="512" r="512"/>
	<path id="Logo" class="st1" d="M350,361.6L350,361.6L350,361.6L350,361.6z M718.6,361.7H349.9l-4.7,4.8l-0.8,0.9
		c-3.5,3.7-7.3,7.3-11,10.6c-28,26.2-62.1,45.2-99.1,55.3c-1.1,0.3-2.1,0.6-3.2,0.9l-4.7,1.1l-1.1,4.7c-0.4,1.7-0.7,3.4-1.1,5.2
		c-2.3,12-3.4,24.1-3.5,36.3c0,76.5,45.2,145.7,115.2,176.5c0.8,0.4,1.7,0.8,2.6,1.1c1.9,0.9,3.9,1.6,5.8,2.4l2.3,0.9l0.3,0.1
		l0.2-0.1c0.2,0.1,0.4,0.1,0.6,0.1h370.6c8,0,14.5-6.5,14.5-14.4c0,0,0,0,0,0V376c0.1-7.9-6.3-14.3-14.2-14.4
		C718.8,361.7,718.7,361.7,718.6,361.7z M693.6,384.8L539.3,519.3c-3.2,2.7-7.9,2.7-11-0.1l-50.3-44.6c-0.2-10.7-1.4-21.4-3.5-31.9
		c-0.2-0.9-0.3-1.8-0.5-2.7l-1.1-4.7l-4.7-1.2c-1.1-0.2-2.2-0.6-3.4-0.8c-25.7-7-49.9-18.4-71.6-33.7l-16.7-14.7L693.6,384.8
		L693.6,384.8z M485.9,511.7l-12.7,11.2c1.5-6.4,2.6-12.9,3.4-19.4L485.9,511.7z M347.5,646.1c-4.7-1.9-9.4-4.1-14-6.4
		c-59.3-30.5-96.7-91.5-97-158.2c0-11.2,1.1-22.5,3.2-33.5c34.3-9.2,66.3-25.6,93.8-48.1c5.7-4.6,11.2-9.5,16.5-14.7
		c25.9,25.3,57,44.6,91.1,56.7c6.1,2.2,12.3,4.2,18.7,5.9c0.7,4,1.4,8.1,1.8,12.2c0.7,6.6,1.1,13.2,1.1,19.9c0,3.6-0.1,7.3-0.4,10.9
		c-1,17.7-4.8,35.1-11,51.6C433.1,590.2,395.4,628,347.5,646.1z M392.5,640.1c27.1-18.2,49.2-43,64.2-72.1l46.3-40.9l25.1,22.5
		c3.2,2.8,7.9,2.8,11.1,0l25.6-22.7l128.5,113.1L392.5,640.1z M582.2,511.6l128.6-114.2l0.2,227.8L582.2,511.6z M382.2,603.1
		c6.1-4.5,11.8-9.5,17.1-15.1L382.2,603.1z M439.5,470.7c-0.4-3.2-0.9-6.4-1.5-9.7c-5.1-1.4-10.1-3-15-4.8c0,0-0.1,0-0.1-0.1l0,0
		c-1.3-0.4-2.5-0.9-3.8-1.5c-2.8-1.1-5.6-2.3-8.4-3.7c-1.9-0.9-3.9-1.8-5.9-2.8c-1.4-0.6-2.8-1.4-4.2-2.2c-4.4-2.3-8.8-4.9-13.1-7.7
		c-2.6-1.6-5.2-3.4-7.7-5.2c-0.2-0.1-0.4-0.2-0.6-0.4c-2.7-1.9-5.4-3.9-8-5.9c-5.2-4-10.3-8.3-15.2-12.8c-2.1-1.9-4.2-3.8-6.2-5.8
		c-5.3,5.1-10.7,10-16.4,14.7c-21.1,17.6-45.7,30.7-72.2,38.3c-1.7,8.9-2.6,17.9-2.6,27c0.1,52.7,28.7,101.3,74.8,127
		c4.7,2.6,9.5,4.8,14.4,6.9c2.9-1.1,5.8-2.3,8.6-3.6c0.1,0,0.1,0,0.2-0.1c2.3-1.1,4.7-2.2,6.9-3.4c2.1-1,4.1-2.2,6.1-3.5
		c0.7-0.3,1.3-0.7,1.9-1.1c1.1-0.6,2.1-1.3,3.1-1.9c0.2-0.1,0.5-0.3,0.6-0.5c1.8-1.1,3.6-2.3,5.2-3.6c0.6-0.3,1.1-0.7,1.6-1.2
		l17.1-15.1c0.2,0,0.2,0,0.2-0.1c17-17.7,29.4-39.4,35.8-63.1c3.4-12.4,5.2-25.2,5.2-38C440.4,481.5,440.1,476.1,439.5,470.7z
		 M356.4,553.5l-13.1,13.1h-0.1l-54.3-54.3l16.7-16.8l37.7,37.7l13.1-13.1l45.8-45.9l16.8,16.8L356.4,553.5z"/>
</g>
</svg>
