<svg xmlns="http://www.w3.org/2000/svg" viewBox="0 0 1024 1024">
   <circle cx="512" cy="512" r="512"/>
   <path d="M380.36 726.51c4.47 1.82 9.5 3.45 13.68 5 2.47.58 5.13 1.44 7.6 2.11l6.56 1.38 6.65 1.15a156.09 156.09 0 0 0 23.09 1.73 151.86 151.86 0 0 0 54.82-12 150.46 150.46 0 0 0 80.76-84.34l1.62-4.22c0-1.44 1.62-5.18 2.09-6.52.85-3.45 2.09-7.57 2.76-11 0-1.25.76-3.16 1-4.41a182.42 182.42 0 0 0 2.19-20v-7.86a129.17 129.17 0 0 1-14.63-1.25A152.23 152.23 0 0 1 469.8 532a154.9 154.9 0 0 1 12.65-210.47 155.92 155.92 0 0 1 169.45-28.62 246.16 246.16 0 0 0-48.84-24.06 256.65 256.65 0 0 0-251.87 42.65c-2.19 1.63-8 7-10.26 8.91a100 100 0 0 0-9.5 9.58 112.18 112.18 0 0 1-9.5 9.58c-3 2.78-6.75 8-8.74 10.45l-6.84 9c-1.81 2.49-6 8.72-7.7 11.21S295.8 375 295 376.1s-2.47 4-2.95 4.79-4.94 9-6.08 10.93-4.56 9.58-5.89 12.27l-4.47 10.45c0 1.15-3.42 9.58-4 10.64s-2 6.13-2.76 8.63c-1.62 4.79-3 10.35-4.37 15.24-.76 3-2.28 10.35-2.95 13.32v2.3a262.07 262.07 0 0 0 30.69 177.6c3.14 5.18 7.41 12.27 11 17.16 1.33 2 3.71 5.46 5.23 7.38l5.51 7.28 8.74 10.35 9.5 9.58c1.81 1.63 4.66 4.7 6.56 6.23l3.42 3 .85.67.85.67 1.71 1.44c2.19 1.82 4.94 3.74 7.22 5.37l1.81 1.25 1.9 1.25c2 1.34 5.51 3.55 7.7 4.7s2.85 1.72 3.9 2.2l6 3c1.96.89 4.43 1.95 6.24 2.71Zm188.5-453.16h2.28l6.56.58c3.61 0 7.22 1 10.83 1.44H569a190.26 190.26 0 0 0-48.69 9.63 176.65 176.65 0 0 0-69.89 43A179.65 179.65 0 0 0 430 557.06V557a156.12 156.12 0 0 0 28.5 31.34 104.74 104.74 0 0 0 96.72 19.17A100.77 100.77 0 0 1 469.1 605a119.82 119.82 0 0 1-36-27.41 182.94 182.94 0 0 1 28.5-272.68c2.09-1.53 5.32-3.55 7.6-5 4.18-2.78 9.5-5.46 13.59-7.86a76.25 76.25 0 0 1 10.17-4.79 174.2 174.2 0 0 1 60.52-13.9h15.39Zm-8.93-6.42a226.06 226.06 0 0 0-35.06 3.16 206.87 206.87 0 0 0-91.82 39.82 204.38 204.38 0 0 0-80 184 206.86 206.86 0 0 0 37.65 100c1.62 2 4.28 5.85 6 7.86 2.85 3.55 6.46 7.86 9.5 11.21a114.17 114.17 0 0 0 138.91 26.12c-42.47 30.19-103.47 21.76-140.81-13.1l-1.71-1.82-1-.86-6.37-6.52a210.35 210.35 0 0 1 13.21-300.28 205.16 205.16 0 0 1 20.43-15.91c4-2.68 8.93-5.94 13.11-8.24s9.5-5.08 13.68-7.28c1.62-.86 3.14-1.34 4.66-2.11s5.7-2.59 7.13-3.07a199 199 0 0 1 52-13c2.66 0 7.41-.77 10.07-.86h7.6a201.58 201.58 0 0 1 22.82.89ZM355.65 654a237.25 237.25 0 0 1 24.42-346.1c1.9-1.63 4.94-3.74 6.84-5.18a231.12 231.12 0 0 1 23.75-15.62 227.38 227.38 0 0 1 85.51-27.7l11.12-1h22.33l-11.12.86-11 1.44-10.93 1.82a231.14 231.14 0 0 0-92 39 234.67 234.67 0 0 0-97.46 170.33 236.16 236.16 0 0 0 12.58 99.89 231.49 231.49 0 0 0 40.47 70.73l1.71 2.11.86 1.05.95 1a178.6 178.6 0 0 0 15.11 15.53A132.11 132.11 0 0 0 521.26 683a132.08 132.08 0 0 1-149-13.13A187.22 187.22 0 0 1 355.65 654Zm376.06-272.62c-3.14-5.27-7.41-12.27-11-17.25-1.33-2-3.71-5.46-5.23-7.38l-5.48-7.19c-1.9-2.2-6.94-8.34-8.84-10.45a127.78 127.78 0 0 0-9.5-9.58c-1.71-1.63-4.66-4.7-6.46-6.23l-3.42-2.88-.86-.77-.92-.65-1.81-1.44c-2.09-1.82-4.85-3.74-7.13-5.37l-1.9-1.25-1.81-1.25c-2.09-1.34-5.51-3.55-7.7-4.7s-2.85-1.73-3.9-2.2l-6-3-6.12-2.79c-4.47-1.82-9.5-3.45-13.68-5l-7.6-2-6.56-1.53-6.65-1.15a156 156 0 0 0-23.09-1.73 151.84 151.84 0 0 0-54.82 12 149.71 149.71 0 0 0-48.83 33.94A151.22 151.22 0 0 0 450.47 382l-1.62 4.31c-.47 1.34-1.62 5.08-2.09 6.42-.95 3.45-2.09 7.57-2.76 11 0 1.25-.76 3.16-.95 4.41a162.2 162.2 0 0 0-2.38 20.32v8.34h.38v.26a87.16 87.16 0 0 1 12.26.86l-5.89-.73a149.36 149.36 0 0 1 100.75 46.56 153.42 153.42 0 0 1 42.06 110.3 158.2 158.2 0 0 1-21.14 72.53 156.58 156.58 0 0 1-52.26 54.19 154.64 154.64 0 0 1-145.13 10.34 252 252 0 0 0 48.84 24.15A256.93 256.93 0 0 0 672.8 712c2.09-1.63 8-7 10.26-8.91l9.5-9.58 9.5-9.58c2.19-2.59 6.75-7.86 8.74-10.45l6.84-9c1.81-2.49 6-8.72 7.7-11.21l3.61-5.85c.57-.77 2.47-4 2.95-4.79s4.94-8.91 6-10.93 4.66-9.58 6-12.27 3.14-7.38 4.47-10.45c0-1.05 3.42-9.58 3.9-10.64s2.09-6.13 2.85-8.63c1.62-4.79 3-10.35 4.37-15.24.76-3 2.19-10.35 2.95-13.32V559a261.88 261.88 0 0 0-30.73-177.62Zm-219.38 354-.09-.38 7.89-3.36 7.7-3.74c2.95-1.44 6.46-3.55 9.5-5.18l9-5.65c2.57-1.82 6.18-4.31 8.65-6.23a178.91 178.91 0 0 0 43.23-237.22l-4.66-7.09-5-6.81-5.34-6.72a131.45 131.45 0 0 0-17.86-17.83A104.93 104.93 0 0 0 468.81 416a103 103 0 0 1 102.33 11.6 143 143 0 0 1 26.51 24.92 182.46 182.46 0 0 1-8.07 243.89 179.53 179.53 0 0 1-74.5 46.42 169.59 169.59 0 0 1-79 5.27 191.55 191.55 0 0 0 76.25-12.77Zm-47.89 21.28a231.1 231.1 0 0 0 39.9-4.22 207.06 207.06 0 0 0 88.57-40.84 209.42 209.42 0 0 0 60.41-77A207 207 0 0 0 630 425.56c-1.71-2.4-4.28-5.37-6.08-7.67s-5.61-6.33-8.17-9.58a114.15 114.15 0 0 0-137.2-23.77c40.19-28.75 97.86-23 135.39 7.57l-.1-.38c3 2.4 6.08 5.27 8.93 7.86a209.39 209.39 0 0 1-58.91 341l-4.75 2-1.14.48-1.23.48-2.38 1c-2.47.86-7 2.68-9.5 3.45a194.86 194.86 0 0 1-80.42 8.61ZM732.14 538a237.39 237.39 0 0 1-72.93 164.7c-2.28 2.11-6 5.75-8.46 7.67l-4.36 3.63-2.28 1.92-1 .86-5.7 4.31a233 233 0 0 1-23.94 15.53l-10.07 5.37a222.67 222.67 0 0 1-109.07 23.2 237.32 237.32 0 0 0 160.48-75A234.16 234.16 0 0 0 670.33 390c-2-2.88-4.66-5.85-6.84-8.53l-1.71-2.11-.85-1.05-.86-1.05a132.25 132.25 0 0 0-157.72-36.71 132.09 132.09 0 0 1 149.55 12.84 203.41 203.41 0 0 1 16.82 15.91A237.63 237.63 0 0 1 732.14 538Z" style="fill:#fff"/>
</svg>
