<?xml version="1.0" encoding="utf-8"?>
<!-- Generator: Adobe Illustrator 21.0.0, SVG Export Plug-In . SVG Version: 6.00 Build 0)  -->
<svg version="1.1" xmlns="http://www.w3.org/2000/svg" xmlns:xlink="http://www.w3.org/1999/xlink" x="0px" y="0px"
	 viewBox="0 0 1024 1024" style="enable-background:new 0 0 1024 1024;" xml:space="preserve">
<style type="text/css">
	.st0{fill:#4A154B;}
	.st1{fill:#FFFFFF;}
</style>
<g id="Guides">
</g>
<g id="Icon">
	<circle class="st0" cx="512" cy="512" r="512"/>
	<g>
		<title>Slack icon</title>
		<path class="st1" d="M363.6,579.5c-0.1,29.7-24.1,53.7-53.8,53.8c-29.7-0.1-53.7-24.1-53.8-53.8c0.1-29.7,24.1-53.7,53.8-53.8
			h53.8V579.5z M390.7,579.5c0.1-29.7,24.1-53.7,53.8-53.8c29.7,0.1,53.7,24.1,53.8,53.8v134.7c-0.1,29.7-24.1,53.7-53.8,53.8
			c-29.7-0.1-53.7-24.1-53.8-53.8V579.5z M444.5,363.6c-29.7-0.1-53.7-24.1-53.8-53.8c0.1-29.7,24.1-53.7,53.8-53.8
			c29.7,0.1,53.7,24.1,53.8,53.8v53.8H444.5z M444.5,390.7c29.7,0.1,53.7,24.1,53.8,53.8c-0.1,29.7-24.1,53.7-53.8,53.8H309.8
			c-29.7-0.1-53.7-24.1-53.8-53.8c0.1-29.7,24.1-53.7,53.8-53.8H444.5z M660.4,444.5c0.1-29.7,24.1-53.7,53.8-53.8
			c29.7,0.1,53.7,24.1,53.8,53.8c-0.1,29.7-24.1,53.7-53.8,53.8h-53.8L660.4,444.5z M633.3,444.5c-0.1,29.7-24.1,53.7-53.8,53.8
			c-29.7-0.1-53.7-24.1-53.8-53.8V309.8c0.1-29.7,24.1-53.7,53.8-53.8c29.7,0.1,53.8,24.1,53.8,53.8V444.5z M579.5,660.4
			c29.7,0.1,53.8,24.1,53.8,53.8c-0.1,29.7-24.1,53.7-53.8,53.8c-29.7-0.1-53.7-24.1-53.8-53.8v-53.8L579.5,660.4z M579.5,633.3
			c-29.7-0.1-53.7-24.1-53.8-53.8c0.1-29.7,24.1-53.7,53.8-53.8h134.7c29.7,0.1,53.7,24.1,53.8,53.8c-0.1,29.7-24.1,53.8-53.8,53.8
			H579.5z"/>
	</g>
</g>
</svg>
