<?xml version="1.0" encoding="UTF-8" standalone="no"?>
<svg
   xmlns:dc="http://purl.org/dc/elements/1.1/"
   xmlns:cc="http://creativecommons.org/ns#"
   xmlns:rdf="http://www.w3.org/1999/02/22-rdf-syntax-ns#"
   xmlns:svg="http://www.w3.org/2000/svg"
   xmlns="http://www.w3.org/2000/svg"
   viewBox="0 0 1365.3333 1365.3333"
   height="1365.3333"
   width="1365.3333"
   xml:space="preserve"
   id="svg2"
   version="1.1"><metadata
     id="metadata8"><rdf:RDF><cc:Work
         rdf:about=""><dc:format>image/svg+xml</dc:format><dc:type
           rdf:resource="http://purl.org/dc/dcmitype/StillImage" /></cc:Work></rdf:RDF></metadata><defs
     id="defs6"><clipPath
       id="clipPath18"
       clipPathUnits="userSpaceOnUse"><path
         id="path16"
         d="M 0,1024 H 1024 V 0 H 0 Z" /></clipPath></defs><g
     transform="matrix(1.3333333,0,0,-1.3333333,0,1365.3333)"
     id="g10"><g
       id="g12"><g
         clip-path="url(#clipPath18)"
         id="g14"><g
           transform="translate(1024,512)"
           id="g20"><path
             id="path22"
             style="fill:#421945;fill-opacity:1;fill-rule:nonzero;stroke:none"
             d="m 0,0 c 0,-282.77 -229.23,-512 -512,-512 -282.77,0 -512,229.23 -512,512 0,282.77 229.23,512 512,512 C -229.23,512 0,282.77 0,0" /></g><g
           transform="translate(579.5195,390.6562)"
           id="g24"><path
             id="path26"
             style="fill:#ffffff;fill-opacity:1;fill-rule:nonzero;stroke:none"
             d="m 0,0 c -29.682,0.082 -53.713,24.142 -53.76,53.824 0.071,29.661 24.099,53.69 53.761,53.76 h 134.677 c 29.674,-0.059 53.72,-24.087 53.802,-53.76 C 188.422,24.13 164.371,0.07 134.678,0 Z m 0,-27.051 c 29.694,-0.058 53.754,-24.109 53.824,-53.803 -0.07,-29.693 -24.13,-53.744 -53.824,-53.802 -29.673,0.082 -53.701,24.129 -53.76,53.802 v 53.803 z M 53.824,188.885 C 53.742,159.2 29.686,135.163 0,135.104 c -29.665,0.082 -53.689,24.116 -53.76,53.781 v 134.656 c 0.059,29.673 24.087,53.721 53.76,53.803 29.694,-0.059 53.754,-24.11 53.824,-53.803 z m 27.051,0 c 0.082,29.677 24.126,53.711 53.803,53.782 29.676,-0.071 53.72,-24.105 53.802,-53.782 -0.082,-29.677 -24.126,-53.711 -53.802,-53.781 H 80.875 Z m -215.936,53.782 c 29.669,-0.083 53.699,-24.113 53.782,-53.782 -0.083,-29.669 -24.113,-53.699 -53.782,-53.781 h -134.656 c -29.677,0.07 -53.72,24.104 -53.803,53.781 0.083,29.677 24.126,53.711 53.803,53.782 z m 0,27.114 c -29.66,0.082 -53.688,24.1 -53.781,53.76 0.07,29.677 24.104,53.721 53.781,53.803 29.677,-0.082 53.711,-24.126 53.782,-53.803 v -53.76 z M -188.842,53.824 c 0.082,29.665 24.116,53.69 53.781,53.76 29.665,-0.07 53.699,-24.095 53.782,-53.76 V -80.854 c -0.071,-29.676 -24.105,-53.72 -53.782,-53.802 -29.677,0.082 -53.711,24.126 -53.781,53.802 z m -27.115,0 C -216.016,24.146 -240.04,0.094 -269.717,0 c -29.693,0.07 -53.744,24.13 -53.803,53.824 0.083,29.673 24.13,53.701 53.803,53.76 h 53.76 z" /></g></g></g></g></svg>