<svg viewBox="0 0 1024 1024" xmlns="http://www.w3.org/2000/svg">
   <circle cx="512" cy="512" r="512" style="fill:#F10A00"/>
   <path d="M307 255.828c-29.402 0-51.2 21.797-51.2 51.2v409.6c0 29.403 21.798 51.2 51.2 51.2h409.6c29.402 0 51.2-21.797 51.2-51.2v-409.6c0-29.403-21.798-51.2-51.2-51.2H307zm225.74 64c40.812 0 70.44 8.7 90.008 18.486l-16.213 53.83c-13.976-7.068-40.252-17.4-75.472-17.4-43.607 0-62.057 22.294-62.057 44.043 0 28.274 21.803 41.323 72.119 60.354 65.41 23.924 96.719 56.004 96.719 108.746 0 59.266-45.843 110.377-142.56 110.377-40.253 0-81.624-10.875-102.31-23.381l15.653-55.461c21.803 12.506 55.908 23.38 91.129 23.38 43.607 0 68.205-20.118 68.205-50.023 0-27.73-19.009-44.04-66.53-60.896-62.614-21.75-102.308-53.83-102.308-106.572 0-60.354 51.435-105.483 133.617-105.483z" style="fill:#fff"/>
</svg>
