<svg viewBox="0 0 1024 1024" xmlns="http://www.w3.org/2000/svg">
   <circle class="st0" cx="512" cy="512" r="512" style="display:inline;fill:#ff810e;fill-opacity:1"/>
   <path fill="#fff" d="M359.497 719.024c26.455 15.994 79.365 29.901 130.846 29.901 123.695 0 182.326-65.366 182.326-141.164 0-67.453-40.04-108.482-123.696-139.079-64.35-24.339-92.236-41.028-92.236-77.188 0-27.816 23.595-56.327 79.366-56.327 45.045 0 78.65 13.212 96.525 22.252l20.736-68.844c-25.026-12.517-62.92-23.643-115.116-23.643-105.106 0-170.886 57.718-170.886 134.906 0 67.453 50.765 108.482 130.846 136.297 60.775 21.557 85.085 42.42 85.085 77.884 0 38.247-31.46 63.976-87.23 63.976-45.046 0-88.661-13.908-116.546-29.902z" style="display:inline;fill-rule:evenodd;stroke-width:1.27893"/>
</svg>
