<svg xmlns="http://www.w3.org/2000/svg" viewBox="0 0 1024 1024">
   <circle cx="512" cy="512" r="512" style="fill:#f10a00"/>
   <path d="M343 300.83c-24.23 0-42.2 18-42.2 42.2v337.6c0 24.23 18 42.2 42.2 42.2h337.6c24.23 0 42.2-18 42.2-42.2V343c0-24.23-18-42.2-42.2-42.2H343Zm186.06 52.75c33.64 0 58.06 7.17 74.19 15.24l-13.36 44.37a138.43 138.43 0 0 0-62.21-14.34c-35.94 0-51.15 18.38-51.15 36.3 0 23.3 18 34.06 59.44 49.74 53.91 19.72 79.72 46.16 79.72 89.63 0 48.85-37.78 91-117.5 91-33.18 0-67.28-9-84.33-19.27l12.9-45.71c18 10.31 46.08 19.27 75.11 19.27 35.94 0 56.22-16.58 56.22-41.23 0-22.86-15.67-36.3-54.84-50.19-51.61-17.93-84.32-44.37-84.32-87.84 0-49.78 42.39-86.97 110.13-86.97Z" style="fill:#fff"/>
</svg>
