<?xml version="1.0" encoding="UTF-8" standalone="no"?>
<svg
   xmlns:dc="http://purl.org/dc/elements/1.1/"
   xmlns:cc="http://creativecommons.org/ns#"
   xmlns:rdf="http://www.w3.org/1999/02/22-rdf-syntax-ns#"
   xmlns:svg="http://www.w3.org/2000/svg"
   xmlns="http://www.w3.org/2000/svg"
   viewBox="0 0 1365.3333 1365.3333"
   height="1365.3333"
   width="1365.3333"
   xml:space="preserve"
   id="svg2"
   version="1.1"><metadata
     id="metadata8"><rdf:RDF><cc:Work
         rdf:about=""><dc:format>image/svg+xml</dc:format><dc:type
           rdf:resource="http://purl.org/dc/dcmitype/StillImage" /></cc:Work></rdf:RDF></metadata><defs
     id="defs6"><clipPath
       id="clipPath18"
       clipPathUnits="userSpaceOnUse"><path
         id="path16"
         d="M 0,1024 H 1024 V 0 H 0 Z" /></clipPath></defs><g
     transform="matrix(1.3333333,0,0,-1.3333333,0,1365.3333)"
     id="g10"><g
       id="g12"><g
         clip-path="url(#clipPath18)"
         id="g14"><g
           transform="translate(1024,512)"
           id="g20"><path
             id="path22"
             style="fill:#f0ee12;fill-opacity:1;fill-rule:nonzero;stroke:none"
             d="m 0,0 c 0,-282.77 -229.23,-512 -512,-512 -282.77,0 -512,229.23 -512,512 0,282.77 229.23,512 512,512 C -229.23,512 0,282.77 0,0" /></g><g
           transform="translate(516.3945,751.0854)"
           id="g24"><path
             id="path26"
             style="fill:#ffffff;fill-opacity:1;fill-rule:nonzero;stroke:none"
             d="m 0,0 c 21.12,0 92.737,-5.888 126.508,-81.516 11.286,-25.451 8.597,-68.672 6.379,-103.403 l -0.064,-1.281 c -0.256,-3.84 -0.469,-7.36 -0.64,-10.88 1.6,-0.96 4.331,-1.92 8.554,-1.92 6.401,0.342 14.06,2.561 22.038,6.422 3.52,1.877 7.339,2.219 9.899,2.219 3.883,0 7.659,-0.619 10.859,-1.921 9.6,-3.178 15.658,-10.219 15.658,-17.877 0.321,-9.579 -8.32,-17.899 -25.877,-24.918 -1.899,-0.618 -4.459,-1.6 -7.338,-2.538 -9.601,-2.881 -24.299,-7.68 -28.438,-17.281 -1.921,-4.778 -1.302,-11.179 2.56,-18.518 l 0.32,-0.319 c 1.279,-2.901 32.555,-74.135 102.209,-85.633 5.439,-0.939 9.28,-5.761 8.96,-10.859 0,-1.6 -0.32,-3.179 -0.96,-4.8 -5.12,-12.139 -27.158,-21.077 -67.115,-27.115 -1.259,-1.942 -2.561,-8 -3.499,-12.16 -0.618,-3.819 -1.578,-7.68 -2.859,-11.797 -1.622,-5.781 -5.76,-8.641 -11.841,-8.641 h -0.639 c -2.88,0 -6.678,0.661 -11.478,1.579 -7.679,1.6 -16.32,2.88 -27.157,2.88 -6.4,0 -12.779,-0.32 -19.477,-1.579 -12.801,-2.219 -23.958,-9.898 -36.758,-18.858 -18.198,-12.78 -38.955,-27.478 -70.273,-27.478 -1.28,0 -2.539,0.32 -3.84,0.32 h -3.179 c -31.318,0 -51.777,14.4 -69.952,27.478 -12.779,8.96 -23.617,16.618 -36.417,18.858 -6.699,0.96 -13.419,1.579 -19.798,1.579 -11.52,0 -20.437,-1.899 -27.136,-3.178 -4.501,-0.918 -8.341,-1.579 -11.52,-1.579 -7.979,0 -11.157,4.779 -12.438,8.96 -1.301,4.096 -1.919,8.298 -2.879,12.096 -0.982,3.862 -2.241,10.538 -3.542,12.16 -40.917,4.736 -62.934,13.696 -68.033,26.155 -0.661,1.344 -1.109,3.2 -1.173,4.801 -0.32,5.183 3.52,9.919 8.96,10.858 69.633,11.52 100.908,82.753 102.209,85.761 l 0.342,0.619 c 3.84,7.359 4.778,13.76 2.538,18.538 -4.16,9.259 -18.859,14.038 -28.416,17.259 -2.581,0.619 -5.12,1.579 -7.382,2.539 -23.616,9.28 -26.816,19.84 -25.536,27.157 1.92,10.219 14.379,16.918 24.918,16.918 3.115,0 5.76,-0.619 8.171,-1.579 8.96,-4.138 16.832,-6.4 23.552,-6.4 4.992,0 8.192,1.28 9.92,2.24 l -0.982,12.139 c -2.09,34.688 -4.799,77.889 6.55,103.191 32.832,75.243 104.236,81.003 125.313,81.003 l 8.939,0.32 H 0 Z" /></g></g></g></g></svg>