<svg xmlns="http://www.w3.org/2000/svg" viewBox="0 0 1024 1024">
   <circle cx="512" cy="512" r="512" style="fill:#00a9ce"/>
   <path d="M599.73 545.27a69.29 69.29 0 1 0 27.77-94 69.29 69.29 0 0 0-27.77 94Zm-.1 148.48a69.29 69.29 0 1 0 27.77-94 69.29 69.29 0 0 0-27.77 94Zm-87.39-230.9c-27.72 0-51.47 21.78-49.49 49.49 0 13.86 4 25.74 13.86 35.63 9.9 7.92 21.78 13.86 35.63 13.86a49 49 0 0 0 49.49-49.49c0-13.86-4-25.74-13.86-35.63-9.9-7.92-21.78-13.86-35.63-13.86m69.29 49.49c0 37.61-31.67 69.29-69.29 69.29S443 550 443 512.34s31.67-69.29 69.29-69.29 69.24 31.68 69.24 69.29Zm79.19-198c-27.72 0-51.47 21.78-49.49 49.49 0 13.86 4 25.74 13.86 35.63 9.9 7.92 21.78 13.86 35.63 13.86a49 49 0 0 0 49.49-49.49c0-13.86-4-25.74-13.86-35.63-9.9-7.92-21.78-13.86-35.63-13.86M730 363.87c0 37.61-31.67 69.29-69.29 69.29s-69.29-31.67-69.29-69.29 31.67-69.29 69.29-69.29S730 326.26 730 363.87ZM335.24 575.14A69.29 69.29 0 1 0 300 483.73a69.29 69.29 0 0 0 35.24 91.41ZM484 426.73a69.29 69.29 0 1 0-35.29-91.41A69.29 69.29 0 0 0 484 426.73Zm-148.59-.18a69.29 69.29 0 1 0-35.29-91.41 69.29 69.29 0 0 0 35.31 91.41Zm148.24 297.37a69.29 69.29 0 1 0-35.29-91.41 69.29 69.29 0 0 0 35.29 91.41Zm-119.88-112.6c-27.72 0-51.47 21.78-49.49 49.49a49.49 49.49 0 0 0 99 0c0-13.86-4-25.74-13.86-35.63-9.9-7.92-21.78-13.86-35.63-13.86m69.29 49.49c0 37.61-31.67 69.29-69.29 69.29s-69.29-31.67-69.29-69.29 31.67-69.29 69.29-69.29 69.26 31.68 69.26 69.3Z" style="fill:#fff"/>
</svg>
