<svg xmlns="http://www.w3.org/2000/svg" viewBox="0 0 1024 1024" style="enable-background:new 0 0 1024 1024" xml:space="preserve">
   <circle cx="512" cy="512" r="512" style="fill:#055bb5"/>
   <path d="M381.4 472c7.1 9.3 11 24.4 11 42.1 0 20.1-6.4 36.6-17.7 45.7-8.6 6.9-21.6 10.7-37.1 10.7-22 0-39.4-7.2-48.3-20.1-6.7-9.4-10-22-10-37.3 0-22 6-38.7 17.4-47.6 8.9-7.2 23-11.2 39.2-11.2 20.4-.1 36.8 6.3 45.5 17.7m-69.9 13.2c-3.6 5.7-5.3 14.8-5.3 27 0 26.8 9.3 39 29.9 39 20.3 0 29.6-12.2 29.6-38.7 0-26.8-9.1-38.8-29.6-38.8-11.2 0-20 4.1-24.6 11.5m119.9 85.2H407V455.8h57.2c20.1 0 27.1 2.1 34.7 10.5 6.7 7.2 10.3 16.7 10.3 26.8 0 12-4.8 23.2-12.7 29.9-6.7 5.7-12.9 7.4-25.9 7.4h-39.2v40zm33.2-60.5c6.5 0 10.3-.9 12.9-3.3 3.1-2.6 5-8.1 5-14.4 0-7.6-3.1-13.1-8.4-14.9-1.9-.7-5-1-8.9-1h-33.7V510h33.1zm151.8-54.1H592v46.9h-44.2v-46.9h-24.4v114.6h24.4v-47.2H592v47.2h24.4V455.8zM733.3 472c7.1 9.3 11 24.4 11 42.1 0 20.1-6.4 36.6-17.7 45.7-8.6 6.9-21.6 10.7-37.1 10.7-22 0-39.3-7.2-48.3-20.1-6.7-9.4-10-22-10-37.3 0-22 6-38.7 17.4-47.6 8.9-7.2 23-11.2 39.2-11.2 20.4-.1 36.7 6.3 45.5 17.7m-69.9 13.2c-3.6 5.7-5.3 14.8-5.3 27 0 26.8 9.3 39 29.9 39 20.3 0 29.6-12.2 29.6-38.7 0-26.8-9.1-38.8-29.6-38.8-11.2 0-20 4.1-24.6 11.5m-499.2 85.2H226c17.3 0 24.7-1.1 30.5-4.7 9.1-5.6 14.9-17.2 14.9-29.6 0-10.2-3.5-20.5-8.8-25.7-6.8-7-16.1-9.6-33.3-9.6h-18.7c-8.4 0-14.6-.4-18.1-1.9-4.2-1.9-6.7-6.1-6.7-11.4 0-6.1 3-10.7 7.9-11.9 3.7-.9 7.9-.9 19-1H268v-20.8h-61c-13.7 0-19.8.5-25 2.5-12.1 4.2-20.3 17.2-20.3 32 0 10.2 4 19.6 11 25.8 6.1 5.3 15.2 7.7 29.2 7.7h24.9c5.6 0 10.2.7 12.6 2.1 4.7 2.3 7.5 7 7.5 12.4 0 4.6-2.1 8.4-5.8 10.7-3 1.9-8.1 2.8-17.3 2.8H164v20.6zm591 0H817c17.3 0 24.7-1.1 30.5-4.7 9.1-5.6 14.9-17.2 14.9-29.6 0-10.2-3.5-20.5-8.7-25.7-6.8-7-16.1-9.6-33.3-9.6h-18.7c-8.4 0-14.6-.4-18.1-1.9-4.2-1.9-6.7-6.1-6.7-11.4 0-6.1 3-10.7 7.9-11.9 3.7-.9 7.9-.9 19-1H859v-20.8h-60.9c-13.7 0-19.8.5-25 2.5-12.1 4.2-20.3 17.2-20.3 32 0 10.2 4 19.6 11 25.8 6.1 5.3 15.2 7.7 29.2 7.7h24.9c5.6 0 10.2.7 12.6 2.1 4.7 2.3 7.5 7 7.5 12.4 0 4.6-2.1 8.4-5.8 10.7-3 1.9-8.1 2.8-17.3 2.8h-59.7v20.6z" style="fill:#fff"/>
</svg>
