<?xml version="1.0" encoding="UTF-8" standalone="no"?>
<svg
   xmlns:dc="http://purl.org/dc/elements/1.1/"
   xmlns:cc="http://creativecommons.org/ns#"
   xmlns:rdf="http://www.w3.org/1999/02/22-rdf-syntax-ns#"
   xmlns:svg="http://www.w3.org/2000/svg"
   xmlns="http://www.w3.org/2000/svg"
   viewBox="0 0 1365.3333 1365.3333"
   height="1365.3333"
   width="1365.3333"
   xml:space="preserve"
   id="svg2"
   version="1.1"><metadata
     id="metadata8"><rdf:RDF><cc:Work
         rdf:about=""><dc:format>image/svg+xml</dc:format><dc:type
           rdf:resource="http://purl.org/dc/dcmitype/StillImage" /></cc:Work></rdf:RDF></metadata><defs
     id="defs6"><clipPath
       id="clipPath18"
       clipPathUnits="userSpaceOnUse"><path
         id="path16"
         d="M 0,1024 H 1024 V 0 H 0 Z" /></clipPath></defs><g
     transform="matrix(1.3333333,0,0,-1.3333333,0,1365.3333)"
     id="g10"><g
       id="g12"><g
         clip-path="url(#clipPath18)"
         id="g14"><g
           transform="translate(1024,512)"
           id="g20"><path
             id="path22"
             style="fill:#f2531b;fill-opacity:1;fill-rule:nonzero;stroke:none"
             d="m 0,0 c 0,-282.77 -229.23,-512 -512,-512 -282.77,0 -512,229.23 -512,512 0,282.77 229.23,512 512,512 C -229.23,512 0,282.77 0,0" /></g><g
           transform="translate(548.166,498.2334)"
           id="g24"><path
             id="path26"
             style="fill:#ffffff;fill-opacity:1;fill-rule:nonzero;stroke:none"
             d="m 0,0 c 0,83.476 -29.72,121.499 -45.453,135.921 -3.06,2.622 -7.867,0.437 -7.43,-3.933 3.059,-47.201 -56.379,-59.002 -56.379,-132.862 v -0.438 c 0,-45.015 34.09,-81.727 76.046,-81.727 41.956,0 76.046,36.712 76.046,81.727 v 0.438 c 0,20.978 -7.867,41.082 -15.733,55.941 -1.748,3.06 -6.119,1.749 -5.682,-0.874 C 35.837,-9.615 0,-48.949 0,0" /></g><g
           transform="translate(457.6968,322.1035)"
           id="g28"><path
             id="path30"
             style="fill:#ffffff;fill-opacity:1;fill-rule:nonzero;stroke:none"
             d="M 0,0 C -1.748,0 -3.933,0.874 -5.244,2.185 L -199.73,196.671 c -2.623,2.622 -2.623,7.43 0,10.489 L 5.682,412.572 c 1.311,0.874 3.059,1.748 4.807,1.748 h 59.002 c 3.496,0 5.681,-2.185 6.555,-4.371 0.874,-2.185 0.874,-5.244 -1.748,-7.866 L -118.439,208.908 c -3.934,-3.933 -3.934,-10.052 0,-13.986 L 34.09,41.956 c 2.622,-2.622 2.622,-7.43 0,-10.489 L 4.808,1.748 C 3.497,0.874 1.749,0 0,0" /></g><g
           transform="translate(496.5942,288.0137)"
           id="g32"><path
             id="path34"
             style="fill:#ffffff;fill-opacity:1;fill-rule:nonzero;stroke:none"
             d="m 0,0 c -3.497,0 -5.682,2.186 -6.556,4.37 -0.874,2.186 -0.874,5.245 1.748,7.867 l 193.175,193.175 c 1.748,1.748 3.059,4.37 3.059,6.992 0,2.623 -0.874,5.245 -3.059,6.993 L 35.401,372.364 c -2.622,2.622 -2.622,7.429 0,10.489 l 29.719,29.719 c 1.311,1.311 3.059,2.185 5.245,2.185 2.184,0 3.496,-1.311 4.806,-2.622 L 269.22,217.649 c 1.312,-1.311 2.186,-3.059 2.186,-5.245 0,-2.184 -0.874,-3.933 -2.186,-5.244 L 63.809,1.748 C 62.498,0.437 60.75,-0.437 58.564,-0.437 H 0 Z" /></g></g></g></g></svg>