<?xml version="1.0" encoding="utf-8"?>
<!-- Generator: Adobe Illustrator 21.0.0, SVG Export Plug-In . SVG Version: 6.00 Build 0)  -->
<svg version="1.1" xmlns="http://www.w3.org/2000/svg" xmlns:xlink="http://www.w3.org/1999/xlink" x="0px" y="0px"
	 viewBox="0 0 1024 1024" style="enable-background:new 0 0 1024 1024;" xml:space="preserve">
<style type="text/css">
	.st0{fill:#FF6600;}
	.st1{fill:#FFFFFF;}
</style>
<g id="Guides">
</g>
<g id="Icon">
	<circle class="st0" cx="512" cy="512" r="512"/>
	<g>
		<path class="st1" d="M548.2,525.8c0-83.5-29.7-121.5-45.5-135.9c-3.1-2.6-7.9-0.4-7.4,3.9c3.1,47.2-56.4,59-56.4,132.9l0,0v0.4
			c0,45,34.1,81.7,76,81.7s76-36.7,76-81.7v-0.4l0,0c0-21-7.9-41.1-15.7-55.9c-1.7-3.1-6.1-1.7-5.7,0.9
			C584,535.4,548.2,574.7,548.2,525.8z"/>
		<g>
			<path class="st1" d="M457.7,701.9c-1.7,0-3.9-0.9-5.2-2.2L258,505.2c-2.6-2.6-2.6-7.4,0-10.5l205.4-205.4
				c1.3-0.9,3.1-1.7,4.8-1.7h59c3.5,0,5.7,2.2,6.6,4.4c0.9,2.2,0.9,5.2-1.7,7.9L339.3,493c-3.9,3.9-3.9,10.1,0,14l152.5,153
				c2.6,2.6,2.6,7.4,0,10.5l-29.3,29.7C461.2,701,459.4,701.9,457.7,701.9z"/>
		</g>
		<g>
			<path class="st1" d="M496.6,736c-3.5,0-5.7-2.2-6.6-4.4c-0.9-2.2-0.9-5.2,1.7-7.9L685,530.6c1.7-1.7,3.1-4.4,3.1-7
				s-0.9-5.2-3.1-7l-153-153c-2.6-2.6-2.6-7.4,0-10.5l29.7-29.7c1.3-1.3,3.1-2.2,5.2-2.2s3.5,1.3,4.8,2.6l194,194.5
				c1.3,1.3,2.2,3.1,2.2,5.2s-0.9,3.9-2.2,5.2L560.4,734.2c-1.3,1.3-3.1,2.2-5.2,2.2h-58.6V736z"/>
		</g>
	</g>
</g>
</svg>
