<?xml version="1.0" encoding="UTF-8" standalone="no"?><svg xmlns="http://www.w3.org/2000/svg" viewBox="0 0 1024 1024" width="1024pt" height="1024pt"><circle vector-effect="non-scaling-stroke" cx="512" cy="512" r="512" fill="#1D4ED8"/><clipPath id="_clipPath_RdCOwG5TA6pGqB0naCMxRUza1v6MlHVq"><circle vector-effect="non-scaling-stroke" cx="512" cy="512" r="512" fill="#1D4ED8"/></clipPath><g clip-path="url(#_clipPath_RdCOwG5TA6pGqB0naCMxRUza1v6MlHVq)"><path d="M543.821 560.234h-.057V753h224.155V560.234h-.057c-1.911-60.188-51.373-108.464-112.021-108.464s-110.109 48.276-112.02 108.464Zm30.674-207.887c0-44.897 36.45-81.347 81.346-81.347 44.897 0 81.347 36.45 81.347 81.347 0 44.896-36.45 81.346-81.347 81.346-44.896 0-81.346-36.45-81.346-81.346Zm-249.807 94.567v21.448q2.753-3.176 5.376-5.03 2.622-1.853 5.8-2.781 3.176-.927 6.831-.927 5.508 0 9.771 2.33 4.264 2.332 6.699 6.779 1.536 2.596 2.066 5.799.53 3.205.53 7.388v27.7q0 4.342-1.987 6.565-1.985 2.226-5.269 2.226-7.15 0-7.15-8.791v-24.415q0-6.938-2.066-10.673-2.064-3.733-7.836-3.733-3.867 0-6.966 2.198-3.098 2.199-4.633 6.011-1.166 3.23-1.166 11.492v19.12q0 4.289-1.932 6.54-1.934 2.251-5.376 2.251-7.15 0-7.15-8.791v-62.706q0-4.395 1.88-6.593 1.88-2.198 5.27-2.198 3.442 0 5.376 2.224 1.932 2.225 1.932 6.567Zm63.447 37.443h26.216q-.53-7.415-3.999-11.096-3.469-3.68-9.136-3.68-5.402 0-8.871 3.735-3.469 3.732-4.21 11.041Zm62.916 35.854 1.325-3.23-17.795-44.804q-1.642-3.867-1.642-5.615 0-1.853.953-3.442.952-1.589 2.621-2.542 1.668-.954 3.469-.954 3.125 0 4.714 1.987 1.589 1.986 2.806 5.692l12.235 35.59 11.598-33.101q1.377-4.024 2.489-6.301 1.112-2.278 2.357-3.072 1.244-.795 3.522-.795 1.641 0 3.15.875 1.51.873 2.331 2.357.82 1.482.82 3.124-.211 1.007-.688 2.86-.476 1.853-1.165 3.76l-18.854 49.359q-2.435 6.513-4.767 10.221-2.33 3.707-6.17 5.694-3.839 1.985-10.352 1.985-6.356 0-9.534-1.378-3.176-1.375-3.176-5.03 0-2.49 1.509-3.84 1.51-1.35 4.474-1.35 1.166 0 2.278.318 1.377.318 2.382.318 2.49 0 3.92-.741 1.429-.743 2.568-2.569 1.139-1.827 2.622-5.376Zm-34.636-27.645h-28.28q.053 4.926 1.985 8.686 1.934 3.76 5.138 5.667 3.205 1.905 7.069 1.905 2.596 0 4.74-.609 2.146-.609 4.158-1.905 2.012-1.298 3.708-2.78 1.693-1.485 4.394-4.026 1.114-.953 3.178-.953 2.225 0 3.601 1.217 1.377 1.218 1.377 3.443 0 1.96-1.534 4.581-1.537 2.621-4.635 5.031-3.099 2.41-7.786 3.999-4.686 1.589-10.776 1.589-13.93 0-21.661-7.945-7.732-7.943-7.732-21.554 0-6.408 1.905-11.891 1.907-5.481 5.563-9.4 3.653-3.919 9.002-6.01 5.349-2.092 11.864-2.092 8.473 0 14.538 3.574 6.063 3.576 9.081 9.243 3.019 5.665 3.019 11.544 0 5.455-3.125 7.072-3.124 1.614-8.791 1.614Zm-42.268-113.878h154.897v104.281c0 65.162-52.904 118.066-118.067 118.066h-36.83c-65.162 0-118.066-49.815-118.066-111.174 0-61.358 52.904-111.173 118.066-111.173Z" fill-rule="evenodd" fill="#FFF"/></g></svg>
