<?xml version="1.0" encoding="UTF-8" standalone="no"?><!-- Generator: Gravit.io --><svg xmlns="http://www.w3.org/2000/svg" xmlns:xlink="http://www.w3.org/1999/xlink" style="isolation:isolate" viewBox="0 0 1024 1024" width="1024pt" height="1024pt"><circle vector-effect="non-scaling-stroke" cx="512" cy="512" r="512" fill="rgb(29,78,216)"/><clipPath id="_clipPath_RdCOwG5TA6pGqB0naCMxRUza1v6MlHVq"><circle vector-effect="non-scaling-stroke" cx="512" cy="512" r="512" fill="rgb(29,78,216)"/></clipPath><g clip-path="url(#_clipPath_RdCOwG5TA6pGqB0naCMxRUza1v6MlHVq)"><g><path d=" M 543.821 560.234 L 543.764 560.234 L 543.764 563.505 C 543.764 563.619 543.764 563.734 543.764 563.848 C 543.764 563.963 543.764 564.077 543.764 564.192 L 543.764 753 L 767.919 753 L 767.919 560.234 L 767.862 560.234 C 765.951 500.046 716.489 451.77 655.841 451.77 C 595.193 451.77 545.732 500.046 543.821 560.234 L 543.821 560.234 Z  M 574.495 352.347 C 574.495 307.45 610.945 271 655.841 271 C 700.738 271 737.188 307.45 737.188 352.347 C 737.188 397.243 700.738 433.693 655.841 433.693 C 610.945 433.693 574.495 397.243 574.495 352.347 L 574.495 352.347 Z  M 324.688 446.914 L 324.688 446.914 L 324.688 468.362 L 324.688 468.362 Q 327.441 465.186 330.064 463.332 L 330.064 463.332 L 330.064 463.332 Q 332.686 461.479 335.864 460.551 L 335.864 460.551 L 335.864 460.551 Q 339.04 459.624 342.695 459.624 L 342.695 459.624 L 342.695 459.624 Q 348.203 459.624 352.466 461.954 L 352.466 461.954 L 352.466 461.954 Q 356.73 464.286 359.165 468.733 L 359.165 468.733 L 359.165 468.733 Q 360.701 471.329 361.231 474.532 L 361.231 474.532 L 361.231 474.532 Q 361.761 477.737 361.761 481.92 L 361.761 481.92 L 361.761 509.62 L 361.761 509.62 Q 361.761 513.962 359.774 516.185 L 359.774 516.185 L 359.774 516.185 Q 357.789 518.411 354.505 518.411 L 354.505 518.411 L 354.505 518.411 Q 347.355 518.411 347.355 509.62 L 347.355 509.62 L 347.355 485.205 L 347.355 485.205 Q 347.355 478.267 345.289 474.532 L 345.289 474.532 L 345.289 474.532 Q 343.225 470.799 337.453 470.799 L 337.453 470.799 L 337.453 470.799 Q 333.586 470.799 330.487 472.997 L 330.487 472.997 L 330.487 472.997 Q 327.389 475.196 325.854 479.008 L 325.854 479.008 L 325.854 479.008 Q 324.688 482.238 324.688 490.5 L 324.688 490.5 L 324.688 509.62 L 324.688 509.62 Q 324.688 513.909 322.756 516.16 L 322.756 516.16 L 322.756 516.16 Q 320.822 518.411 317.38 518.411 L 317.38 518.411 L 317.38 518.411 Q 310.23 518.411 310.23 509.62 L 310.23 509.62 L 310.23 446.914 L 310.23 446.914 Q 310.23 442.519 312.11 440.321 L 312.11 440.321 L 312.11 440.321 Q 313.99 438.123 317.38 438.123 L 317.38 438.123 L 317.38 438.123 Q 320.822 438.123 322.756 440.347 L 322.756 440.347 L 322.756 440.347 Q 324.688 442.572 324.688 446.914 L 324.688 446.914 L 324.688 446.914 Z  M 388.135 484.357 L 388.135 484.357 L 414.351 484.357 L 414.351 484.357 Q 413.821 476.942 410.352 473.261 L 410.352 473.261 L 410.352 473.261 Q 406.883 469.581 401.216 469.581 L 401.216 469.581 L 401.216 469.581 Q 395.814 469.581 392.345 473.316 L 392.345 473.316 L 392.345 473.316 Q 388.876 477.048 388.135 484.357 L 388.135 484.357 L 388.135 484.357 Z  M 451.051 520.211 L 451.051 520.211 L 452.376 516.981 L 434.581 472.177 L 434.581 472.177 Q 432.939 468.31 432.939 466.562 L 432.939 466.562 L 432.939 466.562 Q 432.939 464.709 433.892 463.12 L 433.892 463.12 L 433.892 463.12 Q 434.844 461.531 436.513 460.578 L 436.513 460.578 L 436.513 460.578 Q 438.181 459.624 439.982 459.624 L 439.982 459.624 L 439.982 459.624 Q 443.107 459.624 444.696 461.611 L 444.696 461.611 L 444.696 461.611 Q 446.285 463.597 447.502 467.303 L 447.502 467.303 L 459.737 502.893 L 471.335 469.792 L 471.335 469.792 Q 472.712 465.768 473.824 463.491 L 473.824 463.491 L 473.824 463.491 Q 474.936 461.213 476.181 460.419 L 476.181 460.419 L 476.181 460.419 Q 477.425 459.624 479.703 459.624 L 479.703 459.624 L 479.703 459.624 Q 481.344 459.624 482.853 460.499 L 482.853 460.499 L 482.853 460.499 Q 484.363 461.372 485.184 462.856 L 485.184 462.856 L 485.184 462.856 Q 486.004 464.338 486.004 465.98 L 486.004 465.98 L 486.004 465.98 Q 485.793 466.987 485.316 468.84 L 485.316 468.84 L 485.316 468.84 Q 484.84 470.693 484.151 472.6 L 484.151 472.6 L 465.297 521.959 L 465.297 521.959 Q 462.862 528.472 460.53 532.18 L 460.53 532.18 L 460.53 532.18 Q 458.2 535.887 454.36 537.874 L 454.36 537.874 L 454.36 537.874 Q 450.521 539.859 444.008 539.859 L 444.008 539.859 L 444.008 539.859 Q 437.652 539.859 434.474 538.481 L 434.474 538.481 L 434.474 538.481 Q 431.298 537.106 431.298 533.451 L 431.298 533.451 L 431.298 533.451 Q 431.298 530.961 432.807 529.611 L 432.807 529.611 L 432.807 529.611 Q 434.317 528.261 437.281 528.261 L 437.281 528.261 L 437.281 528.261 Q 438.447 528.261 439.559 528.579 L 439.559 528.579 L 439.559 528.579 Q 440.936 528.897 441.941 528.897 L 441.941 528.897 L 441.941 528.897 Q 444.431 528.897 445.861 528.156 L 445.861 528.156 L 445.861 528.156 Q 447.29 527.413 448.429 525.587 L 448.429 525.587 L 448.429 525.587 Q 449.568 523.76 451.051 520.211 L 451.051 520.211 L 451.051 520.211 Z  M 416.415 492.566 L 416.415 492.566 L 388.135 492.566 L 388.135 492.566 Q 388.188 497.492 390.12 501.252 L 390.12 501.252 L 390.12 501.252 Q 392.054 505.012 395.258 506.919 L 395.258 506.919 L 395.258 506.919 Q 398.463 508.824 402.327 508.824 L 402.327 508.824 L 402.327 508.824 Q 404.923 508.824 407.067 508.215 L 407.067 508.215 L 407.067 508.215 Q 409.213 507.606 411.225 506.31 L 411.225 506.31 L 411.225 506.31 Q 413.237 505.012 414.933 503.53 L 414.933 503.53 L 414.933 503.53 Q 416.626 502.045 419.327 499.504 L 419.327 499.504 L 419.327 499.504 Q 420.441 498.551 422.505 498.551 L 422.505 498.551 L 422.505 498.551 Q 424.73 498.551 426.106 499.768 L 426.106 499.768 L 426.106 499.768 Q 427.483 500.986 427.483 503.211 L 427.483 503.211 L 427.483 503.211 Q 427.483 505.171 425.949 507.792 L 425.949 507.792 L 425.949 507.792 Q 424.412 510.413 421.314 512.823 L 421.314 512.823 L 421.314 512.823 Q 418.215 515.233 413.528 516.822 L 413.528 516.822 L 413.528 516.822 Q 408.842 518.411 402.752 518.411 L 402.752 518.411 L 402.752 518.411 Q 388.822 518.411 381.091 510.466 L 381.091 510.466 L 381.091 510.466 Q 373.359 502.523 373.359 488.912 L 373.359 488.912 L 373.359 488.912 Q 373.359 482.504 375.264 477.021 L 375.264 477.021 L 375.264 477.021 Q 377.171 471.54 380.827 467.621 L 380.827 467.621 L 380.827 467.621 Q 384.48 463.702 389.829 461.611 L 389.829 461.611 L 389.829 461.611 Q 395.178 459.519 401.693 459.519 L 401.693 459.519 L 401.693 459.519 Q 410.166 459.519 416.231 463.093 L 416.231 463.093 L 416.231 463.093 Q 422.294 466.669 425.312 472.336 L 425.312 472.336 L 425.312 472.336 Q 428.331 478.001 428.331 483.88 L 428.331 483.88 L 428.331 483.88 Q 428.331 489.335 425.206 490.952 L 425.206 490.952 L 425.206 490.952 Q 422.082 492.566 416.415 492.566 L 416.415 492.566 L 416.415 492.566 Z  M 374.147 378.688 L 529.044 378.688 L 529.044 482.969 C 529.044 548.131 476.14 601.035 410.977 601.035 L 374.147 601.035 C 308.985 601.035 256.081 551.22 256.081 489.861 L 256.081 489.861 C 256.081 428.503 308.985 378.688 374.147 378.688 L 374.147 378.688 Z " fill-rule="evenodd" fill="rgb(255,255,255)"/></g></g></svg>