<svg xmlns="http://www.w3.org/2000/svg" viewBox="0 0 1024 1024">
   <circle cx="512" cy="512" r="512" style="fill:#06c"/>
   <path d="M337.15 470.38c-26.35-3.35-45.18-5-55.63-5s-17.57.84-20.5 2.93a10.58 10.58 0 0 0-4.6 9.2q0 6.27 6.27 8.78c4.18 1.67 15.06 3.76 32.21 7.11 17.15 2.93 29.7 8.37 36.81 15.06 7.11 7.11 10.88 18.4 10.88 34.3 0 34.72-21.33 51.87-64.42 51.87-14.22 0-31.37-2.09-51.45-5.86l-10.46-2.09 1.25-36c26.35 3.35 45.18 5 55.22 5 10.46 0 17.57-.84 21.33-2.93a9.65 9.65 0 0 0 5.44-9.2 9.06 9.06 0 0 0-5.86-8.78c-3.76-2.09-14.22-4.18-31-7.11s-28.86-7.53-37.23-14.22c-7.95-6.69-12.13-18.4-12.13-35.55s5.86-29.7 17.15-38.48c11.71-8.78 26.35-13 44.76-13 12.55 0 29.7 2.09 51.87 6.27l10.46 2.09Zm107.08-5.44A64.63 64.63 0 0 0 420 470l-3.76 1.67v84.08c9.62 1.25 17.57 2.09 23.42 2.09 12.55 0 20.91-3.76 25.52-10.88s7.11-19.66 7.11-37.23c0-30.12-9.2-44.76-28-44.76m-70.75 193.22v-228h42.67V439c13.8-8.37 25.93-12.55 36.81-12.55 21.75 0 37.65 6.69 47.69 19.24 10.46 13 15.48 35.14 15.48 66.09s-5.86 52.7-17.15 64.83-30.12 18-56.05 18a156.49 156.49 0 0 1-23-2.09l-3.76-.84v66.09h-42.69ZM763 551.95l4.6-.84v-84.49c-11.71-2.09-22.17-3.35-31.37-3.35-17.15 0-25.93 15.48-25.93 46.43 0 16.73 2.09 28.44 5.86 35.55s10 10.46 19.24 10.46a91.46 91.46 0 0 0 27.6-3.76m47.69-186.14v225H768v-6.69c-15.06 7.11-28 10.46-38.9 10.46q-35.14 0-48.94-20.08t-13.8-64c0-29.28 5.44-50.61 16.73-64 10.88-13.39 27.61-20.08 49.78-20.08 6.69 0 16.31 1.25 28.44 3.35l6.27 1.25v-65.21ZM591.06 523.5c-13.39 0-24.26-4.6-32.63-13.39s-13-20.08-13-33.46 4.18-24.26 13-33c8.37-8.78 19.24-13 32.63-13s24.26 4.6 32.21 13.39c8.37 9.2 12.55 20.08 12.55 33.46s-4.18 24.26-12.55 33c-8.37 8.37-18.82 13-32.21 13m-45.59 64.83c0-13.39 4.18-24.26 13-33 8.37-8.78 19.24-13 32.63-13s24.26 4.6 32.21 13.39c8.37 9.2 12.55 20.08 12.55 33.46" style="fill:#fff"/>
</svg>
