<svg xmlns="http://www.w3.org/2000/svg" viewBox="0 0 1024 1024">
   <circle cx="512" cy="512" r="512"/>
   <path d="M337.12 499.74 499.36 337.5a94.28 94.28 0 0 1 133.19 0l12.64 12.65-25.28 25.28-12.64-12.65a58.5 58.5 0 0 0-82.63 0L362.41 525ZM579 416.35l-25.28-25.28-162.27 162.24a58.42 58.42 0 1 1-82.62-82.63l140-140-25.28-25.28-140 140a94.18 94.18 0 0 0 133.18 133.19Zm161.49 29a94.29 94.29 0 0 0-133.19 0L445 607.65l25.28 25.28 162.27-162.24a58.43 58.43 0 0 1 82.63 82.63l-140 140 25.28 25.28 140-140a94.3 94.3 0 0 0 0-133.21M661.6 499 499.36 661.21a58.5 58.5 0 0 1-82.63 0l-12.64-12.65-25.28 25.28 12.64 12.64a94.28 94.28 0 0 0 133.19 0l162.24-162.21Z" style="fill:#fff"/>
</svg>
