<?xml version="1.0" encoding="utf-8"?>
<!-- Generator: Adobe Illustrator 21.0.0, SVG Export Plug-In . SVG Version: 6.00 Build 0)  -->
<svg version="1.1" xmlns="http://www.w3.org/2000/svg" xmlns:xlink="http://www.w3.org/1999/xlink" x="0px" y="0px"
	 viewBox="0 0 1024 1024" style="enable-background:new 0 0 1024 1024;" xml:space="preserve">
<style type="text/css">
	.st0{fill:#FFFFFF;}
</style>
<g id="Guides">
</g>
<g id="Icon">
	<circle cx="512" cy="512" r="512"/>
	<g id="Logo">
		<path id="Fill-1" class="st0" d="M362.4,525l162.2-162.2c11-11,25.7-17.1,41.3-17.1c15.6,0,30.3,6.1,41.3,17.1l12.6,12.6
			l25.3-25.3l-12.6-12.6C614.8,319.7,591.1,310,566,310c-25.2,0-48.8,9.8-66.6,27.5L337.1,499.7L362.4,525z"/>
		<path id="Fill-3" class="st0" d="M579,416.4l-25.3-25.3L391.4,553.3c-22.8,22.8-59.8,22.8-82.6,0c-22.8-22.8-22.8-59.9,0-82.6
			l140-140l-25.3-25.3l-140,140c-36.7,36.7-36.7,96.5,0,133.2c17.8,17.8,41.4,27.5,66.6,27.5c25.2,0,48.8-9.8,66.6-27.5L579,416.4z"
			/>
		<path id="Fill-5" class="st0" d="M740.5,445.4c-17.8-17.8-41.4-27.5-66.6-27.5c-25.2,0-48.8,9.8-66.6,27.5L445,607.6l25.3,25.3
			l162.2-162.2c22.8-22.8,59.9-22.8,82.6,0c11,11,17.1,25.7,17.1,41.3c0,15.6-6.1,30.3-17.1,41.3l-140,140l25.3,25.3l140-140
			C777.2,541.9,777.2,482.1,740.5,445.4"/>
		<path id="Fill-7" class="st0" d="M661.6,499L499.4,661.2c-22.8,22.8-59.8,22.8-82.6,0l-12.6-12.6l-25.3,25.3l12.6,12.6
			c17.8,17.8,41.4,27.5,66.6,27.5c25.2,0,48.8-9.8,66.6-27.5l162.2-162.2L661.6,499z"/>
	</g>
</g>
</svg>
