<svg xmlns="http://www.w3.org/2000/svg" viewBox="0 0 1024 1024">
  <circle cx="512" cy="512" r="512" style="fill:#5447c9"/>
  <path fill="#5348cb" d="M511.348 255.875c-141.313 0-255.87 114.558-255.87 255.871 0 141.314 114.557 255.871 255.87 255.871 141.314 0 255.871-114.557 255.871-255.87 0-141.314-114.557-255.872-255.87-255.872zm146.407 359.182-146.407 36.602-146.407-36.602v-36.602l146.407 36.602 146.407-36.602zm0-85.01L511.348 566.65l-146.407-36.602v-36.602l146.407 36.602 146.407-36.602zm0-85.01L511.348 481.64l-146.407-36.602v-36.602l146.407-36.6 146.407 36.6z" style="fill:#fff"/>
</svg>
