<svg xmlns="http://www.w3.org/2000/svg" viewBox="0 0 1024 1024">
   <circle cx="512" cy="512" r="512" style="fill:#141414"/>
   <path d="M324.22 390.09a96.22 96.22 0 0 0-34.21.45c-17.56 3.89-27.37 16.47-30.8 41.15l-1.09 7.74c-3.54 23.52 3.13 39.13 15.79 61.16l9.51 16.8c11.09 19.57 14.8 28 11.8 47.44-1 7-2.24 14-4.72 18.56s-5 6.55-9.52 6.89c-6.68.51-11.6-3.71-10.24-14.23l6.17-44.64-33.46.58-6.55 47.35c-3.31 23 5.64 38 24.18 42.81 6.37 1.65 22.77 2.62 35.75-1.1 18.34-5.28 29.3-21.16 33-49.52l1.08-8.05c3.48-29.08-4.49-42.21-18.87-71l-9.21-17.79c-9.21-17.79-11.8-23.87-10.45-36.24l.81-5.93c.94-4.74 3.16-12.71 10.84-12.84 5.31-.09 9.59 4.15 8.26 13.74l-4.38 31.26 32.85-.58 5.24-37.43c2.86-20.67-4.66-33.39-21.78-36.58Zm146.27-1.93L365.15 390l-4.6 33.74 36.09-.64L369 619.63l33.77-.59 27.6-196.53 35.47-.62Zm-37.75 230.36 31-.55 8.26-35 26.28-.46-1.18 34.9 32.23-.57 3.08-229.73-40.21.7Zm237.67-233.87-34.08.6-37.45 88.65 12.28-88.21-33.76.59-32.24 230.25 33.76-.59 14-99 14 98.55 34.68-.62-17.45-121.67Zm-14.89 230 78.28-1.38 4.92-35-44.51.78 9.28-66.54 33.47-.58 4.92-35-33.47.58 8.47-60.35 42.68-.75L764.2 383l-76.44 1.34Zm133.73-169.83 20.58-.36 3.67-102.08Z" style="fill:#f9f9f9"/>
</svg>
