<?xml version="1.0" encoding="utf-8"?>
<!-- Generator: Adobe Illustrator 21.0.0, SVG Export Plug-In . SVG Version: 6.00 Build 0)  -->
<svg version="1.1" xmlns="http://www.w3.org/2000/svg" xmlns:xlink="http://www.w3.org/1999/xlink" x="0px" y="0px"
	 viewBox="0 0 1024 1024" style="enable-background:new 0 0 1024 1024;" xml:space="preserve">
<style type="text/css">
	.st0{fill:#FFFFFF;}
</style>
<g id="Min_Guides__x28_DO_NOT_REMOVE_x29_">
</g>
<g id="Max_Guides__x28_DO_NOT_REMOVE_x29_">
</g>
<g id="Icon">
	<circle id="Background" cx="512" cy="512" r="512"/>
	<path class="st0" d="M251.4,406.8c16.3-6.5,34-8.5,51.4-8.3c12.2,0.1,24.5,1.1,36.4,3.7c9.9,2.2,19.7,5.7,28.4,11.1
		c7.1,4.4,13.5,10,18.6,16.6c10.1,12.9,15.6,28.8,18.5,44.8c-21,0-42,0-63,0c-1.2-5.4-3.6-10.8-7.9-14.5c-5.8-5.1-13.6-6.9-21-7.9
		c-8.3-0.9-16.6-1.1-24.9-0.1c-5.5,0.8-11.3,2.1-15.6,5.9c-3.6,3.2-4.8,8.5-3.7,13.2c0.7,2.9,3,5.2,5.6,6.5
		c3.8,1.9,8.1,2.7,12.2,3.5c10.8,1.9,21.7,2.8,32.6,3.6c12.2,0.7,24.5,2.2,36.4,5c9.1,2.2,18.2,5.1,26.2,10.1
		c7.5,4.6,13.8,11.1,17.8,19c4.2,8.3,5.8,17.6,6.2,26.7c0.7,14.5-1.5,29.4-8.7,42.2c-5.1,9.4-12.7,17.3-21.7,22.9
		c-9.9,6.2-21.1,9.9-32.5,12.1c-13.5,2.6-27.2,3.1-40.9,2.7c-14-0.4-28.1-1.9-41.7-5.7c-8.2-2.3-16.2-5.6-23.4-10.2
		c-8.5-5.4-15.8-12.8-21.1-21.4c-7.9-12.7-11.8-27.5-14-42.3c22,0,44.1,0,66.1,0c1.2,5.4,3.6,10.7,7.6,14.6
		c5.6,5.7,13.5,8.4,21.2,9.8c9,1.5,18.2,1.7,27.3,0.9c6-0.6,12.3-1.5,17.2-5.2c4.9-3.7,6-11,3.5-16.4c-1.6-3.3-5.1-5.3-8.5-6.4
		c-6.9-2.2-14.3-3-21.5-3.9c-16.1-1.9-32.5-2.1-48.5-5c-9.7-1.7-19.3-4.2-28.2-8.5c-7.8-3.8-15-9.2-19.9-16.3
		c-6.6-9.2-9.2-20.6-9.8-31.7c-0.9-14.9,1.5-30.4,9.3-43.3C225,421.8,237.6,412.3,251.4,406.8z M710.6,619.6c9,0,18,0,27.1,0
		c0-24.4,0-48.8,0-73.2c0.4-9.8-0.1-19.6,0.3-29.4c5.5,34.2,11.3,68.3,16.9,102.5c9.2,0.1,18.5,0,27.7,0
		C775,578.7,767.5,537.9,760,497c-0.3-1.6,0.4-3.2,0.7-4.8c7-29.5,14-58.9,21-88.4c-8.7,0-17.5,0-26.2,0c-6.4,29.3-12.6,58.7-19,88
		c0.4-29.3,0.7-58.6,1.2-88c-9-0.1-18.1,0-27.1,0C710.6,475.8,710.6,547.7,710.6,619.6z M792.8,619.6c9.8,0,19.7,0,29.5,0
		c0-6,0-12,0-18c-4.3,0-8.6,0-12.9,0c0-27.5,0-55.1,0-82.6c4.3,0,8.6,0,12.9,0c0-5.9,0-11.8,0-17.7c-4.3,0-8.6,0-12.9,0
		c0-26.5,0-53.1,0-79.6c4.3,0,8.6,0,12.9,0c0-5.9,0-11.8,0-17.7c-9.9,0-19.7,0-29.5,0C792.8,475.8,792.8,547.7,792.8,619.6z
		 M414.2,455.3c18.1-0.1,36.1,0,54.2,0c0,54.8,0,109.5,0,164.3c18.2,0,36.4,0,54.6,0c0-54.8,0-109.6,0-164.3c18.3,0,36.6,0,55,0
		c0.1-16.8,0-33.6,0-50.5c-54.6,0-109.2,0-163.9,0C414.1,421.6,414.1,438.5,414.2,455.3z M601.7,619.6c2-10.5,4-21.1,6-31.6
		c15.1,0,30.3,0,45.4,0c2.1,10.5,4.2,21.1,6.3,31.6c12.9,0,25.8,0,38.8,0c-16.3-71.6-32.6-143.1-48.8-214.7c-12.9-0.1-25.9,0-38.8,0
		C594.7,476.4,578.8,548,563,619.6C575.9,619.6,588.8,619.6,601.7,619.6z M634.4,478.1c4.1,25.3,8.1,50.5,12.2,75.8
		c-10.7,0-21.5,0-32.2,0c5.4-33.3,10.7-66.6,16-99.9C631.9,462,633,470.1,634.4,478.1z"/>
</g>
</svg>
