<?xml version="1.0" encoding="utf-8"?>
<!-- Generator: Adobe Illustrator 21.0.0, SVG Export Plug-In . SVG Version: 6.00 Build 0)  -->
<svg version="1.1" xmlns="http://www.w3.org/2000/svg" xmlns:xlink="http://www.w3.org/1999/xlink" x="0px" y="0px"
	 viewBox="0 0 1024 1024" style="enable-background:new 0 0 1024 1024;" xml:space="preserve">
<style type="text/css">
	.st0{fill:#086DD6;}
	.st1{fill:#FFFFFF;}
</style>
<g id="Guides">
</g>
<g id="Icon">
	<circle class="st0" cx="512" cy="512" r="512"/>
	<g id="Logo_recreated_by_krisu">
		<g>
			<path class="st1" d="M726.6,297.4v429.2H297.4V297.4H726.6 M765.6,258.4H258.4v507.2h507.2V258.4L765.6,258.4z"/>
		</g>
		<path class="st1" d="M523.8,404.6h-23.7c-43.9,0-79.5,35.6-79.5,79.5v51.5v4.5v79.5h37.8v-46.5v-2.6v-6.2v-24v-22.5V515v-30.2
			c0-25.7,20.8-46.5,46.5-46.5h13.9c25.7,0,46.5,20.8,46.5,46.5V515v2.6v22.5v24v6.2v2.6v46.5h37.8V540v-4.5V484
			C603.3,440.1,567.7,404.6,523.8,404.6z"/>
	</g>
</g>
</svg>
