<svg xmlns="http://www.w3.org/2000/svg" viewBox="0 0 1024 1024">
   <circle cx="512" cy="512" r="512" style="fill:#0e5cc9"/>
   <path d="M562.08 611.1v-111c0-27.86-23.17-50.45-51.74-50.45s-51.74 22.59-51.74 50.45v111h-41.4v-111c0-50.15 41.7-90.81 93.14-90.81s93.14 40.66 93.14 90.81v111ZM654.2 275H369.8a94.8 94.8 0 0 0-94.8 94.8v284.4a94.8 94.8 0 0 0 94.8 94.8h284.4a94.8 94.8 0 0 0 94.8-94.8V369.8a94.8 94.8 0 0 0-94.8-94.8Zm53.33 379.2a53.33 53.33 0 0 1-53.33 53.32H369.8a53.32 53.32 0 0 1-53.33-53.32V369.8a53.32 53.32 0 0 1 53.33-53.32h284.4a53.33 53.33 0 0 1 53.33 53.32Z" style="fill:#fff"/>
</svg>
