<svg xmlns="http://www.w3.org/2000/svg" viewBox="0 0 1024 1024" style="enable-background:new 0 0 1024 1024" xml:space="preserve">
   <circle cx="512" cy="512" r="512" style="fill:#c7a247"/>
   <path d="M521.4 285.8c23.9 14.8 47.6 29.7 71.5 44.5-2.4 3.8-4.7 7.6-7.2 11.4-12-6.9-23.9-13.9-35.9-20.8-3.8 36.1-8 72.1-11.7 108.2 16 9.4 32.1 18.6 48.1 27.9 29.3-21.4 58.6-42.8 87.8-64.2-12-6.9-23.9-13.9-35.9-20.8 2.1-4 4.1-8 6.2-11.9 24.7 13.3 49.5 26.5 74.2 39.8-.9 28.1-1.9 56.2-2.8 84.2-4.4-.2-8.9-.3-13.3-.5v-41.5c-33.2 14.6-66.4 29.3-99.6 43.9v55.2c33.2 14.6 66.4 29.3 99.6 43.9v-41.5c4.4-.2 8.9-.3 13.3-.5 1 28.1 2 56.2 2.8 84.3-24.8 13.2-49.5 26.5-74.3 39.7-2-4-4.2-7.9-6.2-12 12-6.9 23.9-13.8 35.9-20.7-29.4-21.6-58.9-43.1-88.3-64.7-16.1 9.3-32.1 18.6-48.2 27.9l12.3 108.6c12-6.9 23.9-13.9 35.9-20.8 2.4 3.8 4.8 7.6 7.1 11.4-23.7 14.8-47.3 29.7-71 44.5l-.3-455.5zm-23.2-53.3c113.7-7.1 226.8 63.2 270.7 168.3 46.2 102.9 21.2 232.2-60 310.4C630 791.4 501 815 398.8 768.2c-101.9-43.6-171.1-152.4-166.6-263.3 1.2-113.3 79.2-220.2 186.2-256.7 25.7-9.1 52.6-14.4 79.8-15.7zM508 260c-108.6.4-210 80.3-236.8 185.3-28.2 98.9 12.7 212.1 97.4 270.3C455.4 779 583 776.5 667 709.1c82.2-61.8 117.9-176.7 85.5-274.3C721.7 333.2 620.6 258.5 514.3 260H508zm-118.7 55.2c15-10 31.7-17.4 48.9-22.8-33.1 16.9-63.6 45.4-71.4 83-7.3 31 5.8 63.3 27.2 85.6 12.9 15.2 34.4 24.1 40.1 44.6 1 20 .4 40.2.8 60.2-.2 8.6 4 22.8-9.9 17.7-37.1-3.1-68.4-29.6-85-61.8-22.7-39.6-23.1-89-8.8-131.5 10.3-30.4 31-57.4 58.1-75zm84.2 43.3c7.7-8.5-8.4 10.7-7.3 16.7-5.4 21.9 6.8 47.3 28.1 55.5 16.3 7.8 7.8 28.2 9.9 42.3v267.9c-42-.5-84.7-13.2-118.4-38.6 18-3.3 35.1-13 46.1-27.8-20.2 13.6-48.5 20.1-70 5.3-28.5-19.3-45.4-50.6-61.5-80.1 19.8 20.6 41.5 42.9 70.2 50.1 21 2.5 42.4 1.5 63.2-2.2 19.7 2.1 25.2 24.2 33.7 38.7 9.3 5 10.5-19.2 14.2-26.5 11.1-46.3 13.1-94.3 12-141.7-.3-27.1-5.9-55.6-24.9-76.1-6.5-13.7-32.1-8.9-22.3-27.2 4.6-20.4 13.3-40.3 27-56.3zm35.3 1.9c.4-.1.8-.1 1.2-.2.2 2 .1 4 .1 6.1v43c0 2 .1 3.9-.2 5.9-.4 0-.8 0-1.2-.1-1.1-4.2-1.9-8.5-3-12.8-.4-1.7-.7-3.5-1.2-5.2-1.9-.3-3.9-.2-5.8-.2h-17.1c-1.9 0-3.8.1-5.6 0 0-.4-.3-1 .2-1.3 1.4-.7 3.1-1 4.6-1.5 3.9-1.3 7.8-2.4 11.6-3.7 1.6-.5 3.3-.8 4.7-1.7 0-.6 0-1.3-.1-1.9-1.4-.6-2.9-1-4.3-1.5-3.5-1.2-7.1-2.2-10.6-3.4-2-.7-4.1-1.1-6.1-2 0-.4-.1-.8-.1-1.2 5.7-.2 11.5.1 17.3-.1 3.8-.1 7.6.1 11.4-.1.1-.4.3-.9.4-1.3 1.2-5.8 2.6-11.3 3.8-16.8zm-203.3 50.5c1.9-4 5.1-10.5 2.7-2.5-8.5 43-3.3 90.2 20.9 127.4 15.8 21.8 36.7 41.4 63.1 48.9 12.4 4.2 27.5 4 36.5 15.1 8.3 9.2 12.8 21.5 14.1 33.7-27.5 12.8-60.5 9.9-86.8-4.6-33.1-16.4-54.4-49.5-64.2-84.2-7.3-24-9.5-49.4-5.3-74.2 3.3-20.6 10-40.7 19-59.6zm0 0" style="fill:#fff"/>
</svg>
