<svg xmlns="http://www.w3.org/2000/svg" viewBox="0 0 1024 1024">
   <circle cx="512" cy="512" r="512" style="fill:#c7a247"/>
   <path d="M521.2 289.9c23.4 14.5 46.8 29.2 70.2 43.7-2.3 3.7-4.7 7.5-7 11.2-11.8-6.8-23.5-13.6-35.3-20.4-3.8 35.4-7.8 70.8-11.5 106.2 15.7 9.2 31.5 18.2 47.3 27.4 28.7-21 57.5-42.1 86.3-63.1-11.7-6.8-23.5-13.6-35.3-20.4 2.1-3.9 4-7.8 6.1-11.7 24.3 13.1 48.6 26 72.9 39.1-.9 27.6-1.8 55.2-2.8 82.7-4.4-.2-8.7-.3-13.1-.5v-40.8c-32.6 14.4-65.3 28.7-97.9 43.2v54.2c32.6 14.4 65.2 28.8 97.9 43.1V543c4.4-.2 8.7-.3 13.1-.5 1 27.6 1.9 55.2 2.8 82.8l-72.9 39c-2-3.9-4.1-7.8-6.1-11.7 11.8-6.8 23.5-13.6 35.2-20.4l-86.7-63.6c-15.8 9.1-31.6 18.2-47.3 27.4 4 35.6 8.1 71.1 12 106.7 11.8-6.8 23.5-13.6 35.3-20.4 2.4 3.7 4.7 7.5 7 11.2-23.2 14.6-46.5 29.1-69.7 43.7l-.5-447.3zm-22.7-52.4c111.6-7 222.8 62 265.9 165.3 45.4 101.1 20.9 228-59 304.8-77.5 78.8-204.1 101.9-304.6 56-100.1-42.8-168-149.7-163.7-258.6 1.2-111.2 77.7-216.2 182.9-252.1 25.3-9 51.8-14.1 78.5-15.4zm9.6 27c-106.7.4-206.3 78.9-232.6 182-27.7 97.1 12.5 208.3 95.7 265.5 85.3 62.2 210.6 59.7 293.1-6.4 80.7-60.7 115.8-173.6 84-269.4-30.3-99.8-129.6-173.1-234-171.8l-6.2.1zm-116.6 54.2c14.7-9.9 31.1-17 48-22.4-32.5 16.6-62.5 44.6-70.1 81.5-7.1 30.4 5.6 62.2 26.7 84.1 12.6 15 33.8 23.6 39.4 43.8 1 19.7.4 39.5.8 59.2-.2 8.5 3.9 22.4-9.7 17.4-36.4-3.1-67.2-29-83.5-60.7-22.2-38.9-22.6-87.4-8.7-129.2 10.2-29.9 30.5-56.4 57.1-73.7zm82.7 42.5c7.6-8.4-8.3 10.5-7.2 16.4-5.3 21.5 6.7 46.4 27.6 54.5 16 7.7 7.7 27.7 9.8 41.5v263.1c-41.2-.5-83.2-12.9-116.3-37.9 17.7-3.3 34.4-12.8 45.2-27.3-19.9 13.4-47.6 19.7-68.7 5.2-28-18.9-44.6-49.7-60.4-78.6 19.5 20.2 40.7 42.2 68.9 49.2 20.6 2.5 41.6 1.4 62-2.2 19.4 2 24.8 23.7 33.1 38 9.1 4.9 10.3-18.9 14-26 10.9-45.4 12.9-92.6 11.8-139.1-.3-26.6-5.8-54.6-24.5-74.7-6.4-13.4-31.6-8.7-21.9-26.7 4.6-20.1 13.1-39.6 26.6-55.4zm34.6 1.9c.4-.1.8-.1 1.2-.2.2 2 .1 4 .1 6v42.3c0 1.9.1 3.9-.2 5.8-.4 0-.8 0-1.2-.1-1-4.2-1.9-8.4-2.9-12.5-.4-1.7-.6-3.4-1.2-5.1-1.9-.3-3.8-.2-5.7-.2h-16.8c-1.8 0-3.7.1-5.5 0 0-.4-.3-1 .2-1.3 1.4-.7 3-1 4.5-1.5 3.8-1.3 7.6-2.4 11.4-3.7 1.5-.5 3.2-.8 4.6-1.7 0-.6 0-1.2-.1-1.9-1.4-.6-2.8-1-4.2-1.4-3.5-1.1-7-2.2-10.4-3.3-2-.7-4.1-1.1-6-2 0-.4-.1-.8-.1-1.2 5.6-.2 11.3.1 17-.1 3.7-.1 7.5.1 11.2-.1.1-.4.3-.9.4-1.3 1.2-5.7 2.6-11.1 3.7-16.5zm-199.6 49.6c1.9-3.9 5-10.3 2.7-2.4-8.3 42.2-3.2 88.6 20.6 125.2 15.5 21.4 36 40.6 62 48.1 12.2 4.2 27 4 35.9 14.8 8.2 9 12.6 21.1 13.9 33.1-27 12.6-59.4 9.8-85.2-4.5-32.5-16.1-53.4-48.6-63.1-82.7-7.2-23.5-9.3-48.6-5.2-72.9 2.9-20.4 9.5-40.1 18.4-58.7zm0 0" style="fill:#fff"/>
</svg>
