<?xml version="1.0" encoding="utf-8"?>
<!-- Generator: Adobe Illustrator 21.0.0, SVG Export Plug-In . SVG Version: 6.00 Build 0)  -->
<svg version="1.1" xmlns="http://www.w3.org/2000/svg" xmlns:xlink="http://www.w3.org/1999/xlink" x="0px" y="0px"
	 viewBox="0 0 1024 1024" style="enable-background:new 0 0 1024 1024;" xml:space="preserve">
<style type="text/css">
	.st0{fill:#6573FF;}
	.st1{fill:#FFFFFF;}
</style>
<g id="Min_Guides__x28_DO_NOT_REMOVE_x29_">
</g>
<g id="Max_Guides__x28_DO_NOT_REMOVE_x29_">
</g>
<g id="Icon">
	<circle id="Background" class="st0" cx="512" cy="512" r="512"/>
	<path class="st1" d="M724,374.9c0-7.9,0-28.2,0-34.7c0-22.2-18-40.2-40.2-40.2H340.2c-22.2,0-40.2,18-40.2,40.2V374
		c15.7,15.3,162.3,154,212.7,154C566.3,528,707.4,391.1,724,374.9z M648.6,501.1c-57.8,52.2-103.6,78.6-135.9,78.6
		c-73.1,0-197-110.5-212.7-125.3c0,51.3,0,181.3,0,229.3c0,22.2,18,40.2,40.2,40.2h343.5c22.2,0,40.2-18,40.2-40.2V424.8
		C716.6,433.2,686.1,467.4,648.6,501.1z"/>
</g>
</svg>
