<svg xmlns="http://www.w3.org/2000/svg" viewBox="0 0 1024 1024">
   <circle cx="512" cy="512" r="512" style="fill:#2ec4f1"/>
   <path d="M436.83 460.74h-55.51v122.13h-21.86V460.74H234.68a20.76 20.76 0 1 0 0 41.51h50.58c23 0 40.86 18.21 40.86 39.89 0 22.59-17.4 40.73-40.86 40.73h-91.17v-19.46h87.7a20.93 20.93 0 0 0 20.79-21.25c0-11.69-10.18-20.26-20.79-20.26h-49.42A40.32 40.32 0 0 1 192 481.4c0-20.75 17-40.26 40.37-40.26h204.46Zm372.91-19.62v61.14h-86.13v-61.13h-22.26v141.73h22.25v-61h86.14v61H832V441.13ZM463.43 582.87h42.5v-19.61h-42.5Zm178.27-80.62h-50.58a20.76 20.76 0 1 1 0-41.51h81.34v-19.61h-83.65c-23.38 0-40.37 19.51-40.37 40.26a40.32 40.32 0 0 0 40.37 40.5h49.42c10.62 0 20.8 8.57 20.8 20.26a20.93 20.93 0 0 1-20.8 21.25h-86.36L493.1 441.13h-17.39L407 582.87h22.32l55.12-112.24 54.12 112.24h103.15c23.46 0 40.85-18.14 40.85-40.73 0-21.68-17.86-39.89-40.86-39.89Z" style="fill:#fff"/>
</svg>
