<?xml version="1.0" encoding="UTF-8" standalone="no"?>
<svg
   xmlns:dc="http://purl.org/dc/elements/1.1/"
   xmlns:cc="http://creativecommons.org/ns#"
   xmlns:rdf="http://www.w3.org/1999/02/22-rdf-syntax-ns#"
   xmlns:svg="http://www.w3.org/2000/svg"
   xmlns="http://www.w3.org/2000/svg"
   viewBox="0 0 1365.3333 1365.3333"
   height="1365.3333"
   width="1365.3333"
   xml:space="preserve"
   id="svg2"
   version="1.1"><metadata
     id="metadata8"><rdf:RDF><cc:Work
         rdf:about=""><dc:format>image/svg+xml</dc:format><dc:type
           rdf:resource="http://purl.org/dc/dcmitype/StillImage" /></cc:Work></rdf:RDF></metadata><defs
     id="defs6"><clipPath
       id="clipPath18"
       clipPathUnits="userSpaceOnUse"><path
         id="path16"
         d="M 0,1024 H 1024 V 0 H 0 Z" /></clipPath></defs><g
     transform="matrix(1.3333333,0,0,-1.3333333,0,1365.3333)"
     id="g10"><g
       id="g12"><g
         clip-path="url(#clipPath18)"
         id="g14"><g
           transform="translate(1024,512)"
           id="g20"><path
             id="path22"
             style="fill:#100f0d;fill-opacity:1;fill-rule:nonzero;stroke:none"
             d="m 0,0 c 0,-282.77 -229.23,-512 -512,-512 -282.77,0 -512,229.23 -512,512 0,282.77 229.23,512 512,512 C -229.23,512 0,282.77 0,0" /></g><g
           transform="translate(547.8809,578.0884)"
           id="g24"><path
             id="path26"
             style="fill:#ffffff;fill-opacity:1;fill-rule:nonzero;stroke:none"
             d="m 0,0 c 0,26.708 21.61,48.339 48.318,48.339 26.645,0 48.34,-21.631 48.34,-48.339 0,-26.687 -21.695,-48.318 -48.34,-48.318 C 21.589,-48.318 0,-26.687 0,0 m 112.486,-0.107 c 0,35.455 -28.862,64.317 -64.317,64.317 -35.519,0 -64.317,-28.862 -64.317,-64.317 0,-35.518 28.798,-64.317 64.317,-64.317 35.477,0 64.317,28.799 64.317,64.317 m -243.51,-198.456 -31.423,13.013 c 5.59,-11.584 15.232,-21.312 28.031,-26.666 27.668,-11.498 59.582,1.621 71.08,29.332 5.61,13.439 5.632,28.137 0.107,41.577 -5.525,13.439 -16,23.914 -29.375,29.503 -13.312,5.547 -27.519,5.312 -40.063,0.64 l 32.49,-13.439 c 20.394,-8.533 30.057,-31.999 21.525,-52.372 -8.47,-20.415 -31.935,-30.078 -52.35,-21.588 z m 94.695,388.465 c -134.416,0 -244.641,-103.676 -255.073,-235.447 l 137.211,-56.702 c 11.626,7.914 25.663,12.586 40.788,12.586 1.344,0 2.666,-0.086 4.01,-0.128 L -48.36,-1.43 v 1.259 c 0,53.225 43.262,96.508 96.507,96.508 53.205,0 96.509,-43.326 96.509,-96.572 0,-53.246 -43.304,-96.529 -96.509,-96.529 h -2.239 l -86.951,-62.1 c 0,-1.109 0.085,-2.239 0.085,-3.391 0,-39.998 -32.319,-72.446 -72.317,-72.446 -34.879,0 -64.339,25.024 -71.059,58.174 l -98.236,40.682 c 30.42,-107.452 129.062,-186.234 246.241,-186.234 141.371,0 255.969,114.621 255.969,255.991 0,141.37 -114.619,255.99 -255.969,255.99" /></g></g></g></g></svg>