<?xml version="1.0" encoding="utf-8"?>
<!-- Generator: Adobe Illustrator 21.0.0, SVG Export Plug-In . SVG Version: 6.00 Build 0)  -->
<svg version="1.1" xmlns="http://www.w3.org/2000/svg" xmlns:xlink="http://www.w3.org/1999/xlink" x="0px" y="0px"
	 viewBox="0 0 1024 1024" style="enable-background:new 0 0 1024 1024;" xml:space="preserve">
<style type="text/css">
	.st0{fill:#FF8800;}
	.st1{fill:#FFFFFF;}
</style>
<g id="Min_Guides__x28_DO_NOT_REMOVE_x29_">
</g>
<g id="Max_Guides__x28_DO_NOT_REMOVE_x29_">
</g>
<g id="Icon">
	<circle id="Background" class="st0" cx="512" cy="512" r="512"/>
	<path id="Logo" transform="scale(0.1,0.1)" class="st1" d="M5120,3630.1c-329.2,0-595.9-266.9-595.9-596h2085.8
		c329.1,0,595.9,266.8,595.9,596l0,2085.9c-329.1,0-595.9-266.8-595.9-595.9l0.1-1192c0-164.5-133.4-298-298-298L5120,3630.1
		 M6013.9,4524.1c0-164.6-133.4-298-298-298H3332.1c-164.6,0-297.9,133.5-297.9,298v2383.8c0,164.6,133.4,298,297.9,298h2383.8
		c164.5,0,298-133.4,298-298V4524.1"/>
</g>
</svg>
