<svg xmlns="http://www.w3.org/2000/svg" viewBox="0 0 1024 1024">
   <circle cx="512" cy="512" r="512" style="fill:#a2252d"/>
   <path d="M450 698.61c10.53 1.17 19.9 4.68 31.6 4.68 2.34 0 9.36-2.34 9.36-9.36V560.52c0-4.68-2.34-11.7-5.85-11.7L383.27 441.14c-2.34-2.34-4.68-8.19-4.68-11.7v7a9.23 9.23 0 0 1 9.36-9.36H630.2c5.85 0 9.36 3.51 9.36 9.36v-7c0 3.51-1.17 9.36-4.68 11.7L533.07 550c-3.51 0-5.85 7-5.85 11.7v133.4c0 7 5.85 9.36 9.36 9.36C674.67 693.93 780 596.79 780 479.76c0-120.54-118.2-222.36-266.83-222.36C361 257.41 244 360.39 244 479.76c0 52.66 21.07 101.82 58.52 140.44l16.38 17.55c4.68 4.68 9.36 12.87 4.68 21.07-2.34 8.19-11.7 23.41-11.7 23.41l-28.09 50.32-9.36 14c37.45-5.85 72.56-15.21 107.67-26.92l35.11-17.55s-2.34 3.51 4.68 0c7-2.34 16.38-5.85 25.75-2.34h3.51Z" style="fill:#fff"/>
</svg>
