<?xml version="1.0" encoding="utf-8"?>
<!-- Generator: Adobe Illustrator 21.0.0, SVG Export Plug-In . SVG Version: 6.00 Build 0)  -->
<svg version="1.1" xmlns="http://www.w3.org/2000/svg" xmlns:xlink="http://www.w3.org/1999/xlink" x="0px" y="0px"
	 viewBox="0 0 1024 1024" style="enable-background:new 0 0 1024 1024;" xml:space="preserve">
<style type="text/css">
	.st0{fill:#32325D;}
	.st1{fill:#FFFFFF;}
</style>
<g id="Guides">
</g>
<g id="Icon">
	<circle class="st0" cx="512" cy="512" r="512"/>
	<g>
		<path class="st1" d="M781.7,515.7c0-38.4-18.6-68.6-54.1-68.6c-35.7,0-57.2,30.3-57.2,68.3c0,45.1,25.5,67.9,62,67.9
			c17.8,0,31.3-4,41.5-9.7v-30c-10.2,5.1-21.9,8.2-36.7,8.2c-14.5,0-27.4-5.1-29.1-22.8h73.3C781.4,527.1,781.7,519.3,781.7,515.7z
			 M707.7,501.5c0-16.9,10.3-24,19.8-24c9.1,0,18.9,7,18.9,24H707.7z"/>
		<path class="st1" d="M612.5,447.1c-14.7,0-24.1,6.9-29.4,11.7l-1.9-9.3h-33v174.7l37.5-7.9l0.1-42.4c5.4,3.9,13.3,9.4,26.5,9.4
			c26.8,0,51.2-21.6,51.2-69.1C663.5,470.8,638.7,447.1,612.5,447.1z M603.5,550.4c-8.8,0-14.1-3.1-17.7-7l-0.1-55.6
			c3.9-4.3,9.3-7.3,17.8-7.3c13.6,0,23.1,15.3,23.1,34.9C626.6,535.4,617.3,550.4,603.5,550.4z"/>
		<polygon class="st1" points="496.7,438.3 534.3,430.2 534.3,399.8 496.7,407.7 		"/>
		<rect x="496.7" y="449.7" class="st1" width="37.6" height="131.1"/>
		<path class="st1" d="M456.4,460.8l-2.4-11.1h-32.4v131.1h37.5v-88.8c8.8-11.5,23.8-9.4,28.5-7.8v-34.5
			C482.8,447.9,465.3,444.6,456.4,460.8z"/>
		<path class="st1" d="M381.5,417.2L345,425l-0.1,120c0,22.2,16.6,38.5,38.8,38.5c12.3,0,21.3-2.2,26.2-4.9v-30.4
			c-4.8,1.9-28.5,8.8-28.5-13.3v-53.2h28.5v-31.9h-28.5L381.5,417.2z"/>
		<path class="st1" d="M280.2,487.7c0-5.8,4.8-8.1,12.7-8.1c11.4,0,25.8,3.4,37.2,9.6V454c-12.4-4.9-24.7-6.9-37.2-6.9
			c-30.4,0-50.6,15.9-50.6,42.4c0,41.3,56.9,34.8,56.9,52.6c0,6.9-6,9.1-14.4,9.1c-12.4,0-28.3-5.1-40.9-12v35.7
			c13.9,6,28,8.5,40.9,8.5c31.2,0,52.6-15.4,52.6-42.2C337.3,496.6,280.2,504.5,280.2,487.7z"/>
	</g>
</g>
</svg>
