<?xml version="1.0" encoding="utf-8"?>
<!-- Generator: Adobe Illustrator 21.0.0, SVG Export Plug-In . SVG Version: 6.00 Build 0)  -->
<svg version="1.1" xmlns="http://www.w3.org/2000/svg" xmlns:xlink="http://www.w3.org/1999/xlink" x="0px" y="0px"
	 viewBox="0 0 1024 1024" style="enable-background:new 0 0 1024 1024;" xml:space="preserve">
<style type="text/css">
	.st0{fill:#000099;}
	.st1{fill:#FFFFFF;}
</style>
<g id="Guides">
</g>
<g id="Icon">
	<circle class="st0" cx="512" cy="512" r="512"/>
	<path class="st1" d="M352.9,361.4c-12.7-2.7-21.8-5.1-26.9-6.3c-6.3-1.8-11.2-4.2-13.6-7.6v-13.9c4.2-6.6,14.5-10.9,28.7-10.9
		c19.6,0,33.2,4.5,54.7,21.5l25.1-30.2c-25.4-21.2-47.1-28.7-78.6-28.7c-36.3,0-61.3,14.8-71.3,36v45.9c7.9,15.4,26,24.2,62.2,32
		c13,3,21.8,5.1,26.9,6c6.6,2.1,12.7,4.8,16,9.7v16c-4.5,7.3-15.4,11.2-29.6,11.2c-10.3,0.3-20.2-1.8-29.6-5.7
		c-9.1-3.6-19.6-10.6-32.9-21.5l-26.9,29.9c29,25.7,53.5,34.4,88.2,34.4c37.2,0,63.5-14.2,73.4-36.9v-46.2
		C410.3,378.9,390,369.9,352.9,361.4z M754.4,291.3v182.5h-42.6v-19.3c-9.7,15.7-27.5,24.8-53.5,24.8c-43.2,0-64.7-22.4-64.7-58
		V291.3h46.5v117.5c0,19,10.3,30.2,30.2,30.2c23.3,0,37.5-13.3,37.5-37.8v-110H754.4z M531.8,606.9v127.5h-46.5V620.8
		c0-21.8-8.8-35.1-29-35.1s-32,15.1-32,36.3v112.4h-46.5V620.8c0-23.3-9.7-35.1-29-35.1c-20.5,0-32,15.1-32,36.3v112.4h-46.5V551.9
		h43.2v20.2c10.6-17.5,28.1-26.3,52-26.3c23.3,0,40.8,9.7,50.8,26.9c12.4-17.8,30.8-26.9,54.7-26.9
		C509.8,545.9,531.8,569.2,531.8,606.9L531.8,606.9z M671.6,544.1c-42,0-74.9,22.7-88.5,58.9v76.8c13.3,36.3,46.5,58.9,88.5,58.9
		s74.6-22.7,87.9-58.6v-77.4C746,566.8,713,544.1,671.6,544.1L671.6,544.1z M714.6,668.3c-7.3,19.3-22.7,30.8-43.2,30.8
		c-20.2,0-36.3-11.5-43.5-30.8v-53.8c7.3-19.3,22.7-31.1,43.5-31.1c20.5,0,35.7,11.8,42.9,31.1L714.6,668.3z"/>
</g>
</svg>
