<?xml version="1.0" encoding="utf-8"?>
<!-- Generator: Adobe Illustrator 21.0.0, SVG Export Plug-In . SVG Version: 6.00 Build 0)  -->
<svg version="1.1" xmlns="http://www.w3.org/2000/svg" xmlns:xlink="http://www.w3.org/1999/xlink" x="0px" y="0px"
	 viewBox="0 0 1024 1024" style="enable-background:new 0 0 1024 1024;" xml:space="preserve">
<style type="text/css">
	.st0{fill:#178A9E;}
	.st1{fill:#FFFFFF;}
</style>
<g id="Min_Guides__x28_DO_NOT_REMOVE_x29_">
</g>
<g id="Max_Guides__x28_DO_NOT_REMOVE_x29_">
</g>
<g id="Icon">
	<circle id="Background" class="st0" cx="512" cy="512" r="512"/>
	<path id="Logo" class="st1" d="M706,356.3L706,356.3l0-0.3c-0.3-4.3-0.6-9.3-0.9-14.6c-0.6-10-1.3-20.8-1.9-29
		c-1-5.7-2.4-10.8-4-15.4c-10.2-22.6-30.1-33.5-51.1-38.7c-9.6-1.7-21.3-2-33.8-2.3c-0.6,0-1.2,0-1.8,0H493.7
		c-77.7,4.2-110.3,49.2-119.1,73.1c-34,101.7-55.2,233.5-70.5,328.6c-0.3,1.9-0.6,3.7-0.9,5.5l-5,45.2c-0.3,7.1,0.4,14.9,2.3,22.4
		c9.5,27.6,38.3,50.8,101.7,27.7l0,0c59.9-26,130.6-58.4,203.7-94.7c41.6-24,102.6-79.2,105.8-148.9
		C711.2,463.3,709.5,409.1,706,356.3z M609.7,394.5c0,6-4.9,10.9-10.9,10.9c-36.3,0-65.6,29.4-65.6,65.6v40.2
		c0,67.5-54.7,122.1-122.1,122.1c-5.9,0-10.6-4.8-10.6-10.6v-33.3c0-6,4.9-10.9,10.9-10.9c36.3,0,65.6-29.4,65.6-65.6v-40.2
		c0-67.4,54.7-122.1,122.1-122.1c5.9,0,10.6,4.8,10.6,10.6V394.5z"/>
</g>
</svg>
