<svg xmlns="http://www.w3.org/2000/svg" viewBox="0 0 1024 1024" style="enable-background:new 0 0 1024 1024" xml:space="preserve">
   <circle cx="512" cy="512" r="512" style="fill:#00adef"/>
   <path d="M785.5 509.9c-.6-35.1-14.9-68.6-39.9-93.2l-1.5-1.3c-22-21-50.5-34-80.8-36.8C648 307.2 585 256.2 512 256c-48-.4-93.4 21.8-122.6 59.9-14.1 18.5-23.9 39.9-28.6 62.7-30.3 2.9-58.8 16.1-80.7 37.3l-1.6 1.5c-24.9 24.4-39.2 57.6-39.9 92.4v5.3c.9 33.7 14.5 65.8 38.1 89.9l2 2.1c22.1 22.1 51.3 35.8 82.4 38.8 18 83.5 100.2 136.6 183.7 118.6 59.4-12.8 105.8-59.2 118.6-118.6 31.3-2.9 60.5-16.7 82.7-38.9l1.7-1.9c23.6-24.3 37.1-56.7 37.7-90.5v-4.7zm-66.6 68.5c-16.4 16.1-38.1 25.6-61 26.6-.8-11.2-2.8-22.2-6.1-32.9l1.5-2.1c16 .1 31.4-6.5 42.3-18.2 12.5-11.3 20.1-27 21.2-43.8 1-14.3-4.2-28.4-14.1-38.8-12.7-10.6-28.4-17-44.9-18.4-16.9-1.1-33.5 5.4-45.1 17.7h-1.3c-1.2 1.2-2.9 2.5-4 3.7l14.6 11.3-65.4 22 4.7-68.8 17 13.3c22.4-37.1 10.5-85.3-26.6-107.7-37.1-22.4-85.3-10.5-107.7 26.6-20.7 34.3-12.3 78.7 19.6 103 12.5 8.2 25.9 15.1 39.9 20.4 28.9 11.6 58.9 16.1 82.8 37.6 46.7 41.8 50.6 113.5 8.9 160.2-39.3 43.9-105.6 50.4-152.7 15-30.9-24.8-46.2-64.3-39.9-103.5-8 2.9-16.5 4.3-25 4.1v2.7-3.4c-25.5-.3-50.1-9.7-69.2-26.6h-.8c-18.1-17.4-28.3-41.5-28.1-66.6 0-24.4 9.6-47.7 26.6-65.1v.8c15.9-15.8 37-25.3 59.4-26.6.8 10.7 2.7 21.4 5.7 31.7-14.7.9-28.5 7.5-38.5 18.4-11.1 10-17.7 23.9-18.5 38.8-.6 15.4 4.8 30.5 15 42.1 10.9 11.2 25.6 17.7 41.1 18.4 16.1.6 31.8-5.5 43.4-16.6h.8c1.2-1 2.4-2.2 3.5-3.3l-15.4-10.8 65-21.2-4.3 68.6-17.8-13.3c-23.4 36.6-12.6 85.1 23.9 108.5C506 705.3 554.6 694.6 578 658c21.9-34.3 14-79.7-18.3-104.6-3.6-2.6-7.4-5-11.3-7.2-34.1-17.7-74.6-23-106.5-46.2-48.8-40-56-111.9-16.1-160.8 38.5-47.1 107.2-55.7 156.2-19.7 32.2 24.1 49.5 63.3 45.7 103.3 9.7-2.9 19.8-4.4 30-4.4 23.8.4 46.5 10 63.5 26.6h-1.3c17 17.4 26.6 40.8 26.6 65.1.4 25-9.6 49.1-27.6 66.6v1.7z" style="fill:#fff"/>
</svg>
