<?xml version="1.0" encoding="utf-8"?>
<!-- Generator: Adobe Illustrator 21.0.0, SVG Export Plug-In . SVG Version: 6.00 Build 0)  -->
<svg version="1.1" xmlns="http://www.w3.org/2000/svg" xmlns:xlink="http://www.w3.org/1999/xlink" x="0px" y="0px"
	 viewBox="0 0 1024 1024" style="enable-background:new 0 0 1024 1024;" xml:space="preserve">
<style type="text/css">
	.st0{fill:#00ADEF;}
	.st1{fill:#FFFFFF;}
</style>
<g id="Guides">
</g>
<g id="Icon">
	<circle class="st0" cx="512" cy="512" r="512"/>
	<path class="st1" d="M785.5,509.9c-0.6-35.1-14.9-68.6-39.9-93.2l-1.5-1.3c-22-21-50.5-34-80.8-36.8C648,307.2,585,256.2,512,256
		c-48-0.4-93.4,21.8-122.6,59.9c-14.1,18.5-23.9,39.9-28.6,62.7c-30.3,2.9-58.8,16.1-80.7,37.3l-1.6,1.5
		c-24.9,24.4-39.2,57.6-39.9,92.4v5.3c0.9,33.7,14.5,65.8,38.1,89.9l2,2.1c22.1,22.1,51.3,35.8,82.4,38.8
		c18,83.5,100.2,136.6,183.7,118.6c59.4-12.8,105.8-59.2,118.6-118.6c31.3-2.9,60.5-16.7,82.7-38.9l1.7-1.9
		c23.6-24.3,37.1-56.7,37.7-90.5v-2.8C785.5,511.2,785.5,510.6,785.5,509.9z M718.9,578.4c-16.4,16.1-38.1,25.6-61,26.6
		c-0.8-11.2-2.8-22.2-6.1-32.9l1.5-2.1c16,0.1,31.4-6.5,42.3-18.2l0,0c12.5-11.3,20.1-27,21.2-43.8c1-14.3-4.2-28.4-14.1-38.8l0,0
		c-12.7-10.6-28.4-17-44.9-18.4l0,0c-16.9-1.1-33.5,5.4-45.1,17.7h-1.3c-1.2,1.2-2.9,2.5-4,3.7l14.6,11.3l-65.4,22l4.7-68.8l17,13.3
		c22.4-37.1,10.5-85.3-26.6-107.7c-37.1-22.4-85.3-10.5-107.7,26.6c-20.7,34.3-12.3,78.7,19.6,103c12.5,8.2,25.9,15.1,39.9,20.4
		c28.9,11.6,58.9,16.1,82.8,37.6c46.7,41.8,50.6,113.5,8.9,160.2c-39.3,43.9-105.6,50.4-152.7,15c-30.9-24.8-46.2-64.3-39.9-103.5
		c-8,2.9-16.5,4.3-25,4.1v2.7l0,0V605c-25.5-0.3-50.1-9.7-69.2-26.6h-0.8c-18.1-17.4-28.3-41.5-28.1-66.6c0-24.4,9.6-47.7,26.6-65.1
		v0.8c15.9-15.8,37-25.3,59.4-26.6c0.8,10.7,2.7,21.4,5.7,31.7l0,0c-14.7,0.9-28.5,7.5-38.5,18.4l0,0c-11.1,10-17.7,23.9-18.5,38.8
		c-0.6,15.4,4.8,30.5,15,42.1l0,0c10.9,11.2,25.6,17.7,41.1,18.4c16.1,0.6,31.8-5.5,43.4-16.6h0.8c1.2-1,2.4-2.2,3.5-3.3l-15.4-10.8
		l65-21.2l-4.3,68.6l-17.8-13.3c-23.4,36.6-12.6,85.1,23.9,108.5C506,705.3,554.6,694.6,578,658c21.9-34.3,14-79.7-18.3-104.6
		c-3.6-2.6-7.4-5-11.3-7.2l0,0c-34.1-17.7-74.6-23-106.5-46.2c-48.8-40-56-111.9-16.1-160.8c38.5-47.1,107.2-55.7,156.2-19.7
		c32.2,24.1,49.5,63.3,45.7,103.3c9.7-2.9,19.8-4.4,30-4.4l0,0c23.8,0.4,46.5,10,63.5,26.6h-1.3c17,17.4,26.6,40.8,26.6,65.1
		c0.4,25-9.6,49.1-27.6,66.6L718.9,578.4z"/>
</g>
</svg>
