<?xml version="1.0" encoding="utf-8"?>
<!-- Generator: Adobe Illustrator 21.0.0, SVG Export Plug-In . SVG Version: 6.00 Build 0)  -->
<svg version="1.1" xmlns="http://www.w3.org/2000/svg" xmlns:xlink="http://www.w3.org/1999/xlink" x="0px" y="0px"
	 viewBox="0 0 1024 1024" style="enable-background:new 0 0 1024 1024;" xml:space="preserve">
<style type="text/css">
	.st0{fill:#B6B5B6;}
	.st1{fill:#FFFFFF;}
</style>
<g id="Guides">
</g>
<g id="Icon">
	<circle class="st0" cx="512" cy="512" r="512"/>
	<g>
		<title>Synology icon</title>
		<path class="st1" d="M637.8,510.5c0-11.4,2.9-22.6,8.4-32.6l-0.2,0.4c5.2-10,13.1-18.2,22.9-23.6l0.3-0.1
			c10-5.4,21.1-8.2,32.5-8.1h1.1h-0.1c19.1,0,34.8,6.2,46.9,18.6c12.1,12.4,18.3,28,18.3,47c0,19.1-6.2,34.9-18.5,47.5
			c-12.3,12.6-27.9,18.9-46.6,18.9c-12.1,0-23.5-2.9-33.5-8.1l0.4,0.2c-10.1-4.9-18.4-12.9-23.8-22.8l-0.1-0.3
			C640.5,537.2,637.8,524.9,637.8,510.5z M671.8,512.2c0,12.6,2.9,22.2,9,28.8c10.5,12.2,28.9,13.5,41.1,3c1.1-0.9,2.1-1.9,3-3l0,0
			c5.9-6.5,8.8-16.3,8.8-28.9c0-12.6-2.9-22-8.8-28.6c-10.6-12.2-29.1-13.4-41.3-2.8c-1,0.9-1.9,1.8-2.8,2.8l0,0
			C674.7,490,671.8,499.6,671.8,512.2L671.8,512.2z M637.6,575h-33.2v-64.3c0-13.5-0.7-22.3-2.2-26.3c-1.3-3.8-3.7-7-7-9.3l-0.1,0
			c-3.3-2.2-7.2-3.3-11.1-3.3h-0.6h0h-0.3c-5.8,0-11.1,1.8-15.5,4.9l0.1-0.1c-4.4,2.9-7.8,7.2-9.5,12.3l0,0.2
			c-1.8,5.3-2.6,14.8-2.6,29v57h-33V448.6h30.7v18.5c11-14,24.9-20.9,41.6-20.9h0.4c7.1,0,14,1.4,20.2,4l-0.3-0.1
			c5.6,2.2,10.2,5.7,13.8,10.1l0,0.1c3,3.9,5.3,8.6,6.5,13.7l0,0.3c1.2,5.9,1.9,12.7,1.9,19.7l0,2.9v-0.1L637.6,575z M392.9,448.6
			h35.3l30.1,89.7l29.4-89.7H522l-44.1,121.4l-8.1,22.1c-2.2,6-5.1,11.8-8.5,17.2l0.2-0.4c-2.4,3.7-5.4,6.9-9,9.4l-0.1,0.1
			c-3.6,2.4-7.8,4.3-12.3,5.5l-0.3,0.1c-4.9,1.4-10.6,2.1-16.5,2.1h-0.5h0c-6.5,0-13.1-0.8-19.4-2.2l0.6,0.1l-2.8-26.2
			c4.2,1,9.1,1.6,14.1,1.6h0c7.7,0,13.4-2.3,17.1-6.8c3.9-5.1,6.8-11,8.4-17.2l0.1-0.3L392.9,448.6z M256.1,518.2l34-3.2
			c2.1,11.4,6.3,19.8,12.5,25.2s14.7,8.1,25.4,8c11.3,0,19.8-2.4,25.5-7.1s8.5-10.4,8.5-16.7v-0.5c0-3.7-1.2-7.2-3.6-10.1l0,0
			c-2.4-2.8-6.6-5.4-12.6-7.4c-4.1-1.6-13.5-4.1-28-7.8c-18.8-4.6-31.9-10.4-39.5-17.1c-10.1-8.7-16-21.4-16-34.8v-0.4v-0.2
			c0-9.2,2.8-17.7,7.6-24.8l-0.1,0.1c5.2-7.9,12.7-14,21.4-17.6l0.3-0.1c9.4-3.9,20.8-6,34.2-6c21.7,0,38.1,4.8,49.1,14.4
			c11,9.7,16.7,22.5,17.3,38.6l-35.2,1.2c-1.6-8.8-4.7-15.2-9.6-19.2c-5-3.9-12.4-5.9-22.1-5.9c-10.2,0-18.1,2.1-23.8,6.4
			c-3.5,2.3-5.6,6.3-5.6,10.5v0.2v0v0c0,4.3,2,8.1,5.2,10.5l0,0c4.4,3.8,15.1,7.7,32.1,11.6s29.6,8.3,37.7,12.6
			c8,4.2,14.5,10.2,19,17.6l0.1,0.2c4.6,7.4,7,16.8,7,27.8c0,10.4-3.1,20.1-8.4,28.3l0.1-0.2c-5.6,8.7-13.7,15.4-23.1,19.4l-0.3,0.1
			c-10.1,4.1-22.7,6.4-37.8,6.4c-21.9,0-38.8-5.1-50.6-15.4C265.2,552.5,258.3,537.7,256.1,518.2L256.1,518.2z"/>
	</g>
</g>
</svg>
