<?xml version="1.0" encoding="utf-8"?>
<!-- Generator: Adobe Illustrator 21.0.0, SVG Export Plug-In . SVG Version: 6.00 Build 0)  -->
<svg version="1.1" xmlns="http://www.w3.org/2000/svg" xmlns:xlink="http://www.w3.org/1999/xlink" x="0px" y="0px"
	 viewBox="0 0 1024 1024" style="enable-background:new 0 0 1024 1024;" xml:space="preserve">
<style type="text/css">
	.st0{fill:#B6B5B6;}
	.st1{fill:#FFFFFF;}
</style>
<g id="Guides">
</g>
<g id="Icon">
	<circle class="st0" cx="512" cy="512" r="512"/>
	<g>
		<title>Synology icon</title>
		<path class="st1" d="M647.4,510.3c0-12.3,3.1-24.4,9-35.1l-0.2,0.4c5.6-10.7,14.1-19.6,24.7-25.5l0.3-0.2
			c10.7-5.8,22.8-8.8,35-8.8h1.1h-0.1c20.6,0,37.5,6.7,50.5,20c13.1,13.3,19.7,30.2,19.8,50.6c0,20.6-6.7,37.6-19.9,51.1
			c-13.3,13.6-30,20.4-50.1,20.4c-13,0-25.3-3.1-36.1-8.7l0.4,0.2c-10.9-5.3-19.8-13.9-25.6-24.5l-0.2-0.3
			C650.4,539.1,647.5,525.9,647.4,510.3z M684,512.3c0,13.6,3.2,24,9.6,31c11.3,13.1,31.1,14.6,44.2,3.3c1.2-1,2.2-2.1,3.2-3.2l0,0
			c6.3-7.1,9.5-17.5,9.5-31.2c0-13.6-3.2-23.7-9.5-30.8c-11.4-13.1-31.3-14.5-44.4-3c-1.1,0.9-2.1,1.9-3,3l0,0
			C687.2,488.3,684,498.7,684,512.3L684,512.3z M647.2,579.8h-35.7v-69.3c0-14.6-0.7-24-2.3-28.3c-1.4-4-4-7.5-7.5-10l-0.1,0
			c-3.5-2.3-7.7-3.6-12-3.6H589h0h-0.3c-6.2,0-12,1.9-16.7,5.2l0.1-0.1c-4.8,3.1-8.4,7.8-10.2,13.2l0,0.2c-1.9,5.7-2.8,16-2.8,31.2
			v61.4h-35.6v-136h33.1v19.9c11.9-15.1,26.8-22.5,44.8-22.5h0.5c7.7,0,15,1.5,21.7,4.3l-0.4-0.1c6,2.4,11,6.2,14.9,10.9l0,0.1
			c3.2,4.2,5.7,9.3,7,14.8l0,0.3c1.3,6.4,2,13.7,2,21.2l0,3.1v-0.2L647.2,579.8z M383.7,443.8h38l32.4,96.6l31.6-96.6h37
			l-47.5,130.8l-8.7,23.8c-2.4,6.5-5.5,12.7-9.2,18.5l0.2-0.4c-2.6,4-5.9,7.4-9.7,10.2l-0.1,0.1c-3.9,2.6-8.4,4.7-13.3,6l-0.3,0.1
			c-5.3,1.5-11.5,2.3-17.8,2.3h-0.6h0c-7,0-14.1-0.8-20.9-2.4l0.6,0.1l-3-28.2c4.5,1.1,9.8,1.7,15.1,1.8h0c8.3,0,14.4-2.4,18.4-7.3
			c4.2-5.5,7.3-11.8,9.1-18.5l0.1-0.4L383.7,443.8z M236.4,518.7l36.6-3.4c2.3,12.3,6.7,21.3,13.5,27.1c6.7,5.8,15.8,8.7,27.4,8.6
			c12.1,0,21.3-2.6,27.5-7.7s9.2-11.2,9.2-18v-0.6c0-4-1.3-7.8-3.8-10.9l0,0c-2.6-3-7.1-5.8-13.6-8c-4.4-1.7-14.5-4.4-30.1-8.4
			c-20.3-5-34.4-11.2-42.5-18.5c-10.9-9.4-17.2-23.1-17.2-37.5v-0.4V441c0-9.9,3-19.1,8.2-26.7l-0.1,0.2c5.6-8.5,13.6-15.1,23-19
			l0.3-0.1c10.2-4.2,22.3-6.5,36.8-6.5c23.4,0,41.1,5.2,52.9,15.5c11.9,10.5,18,24.3,18.6,41.6l-37.9,1.3c-1.7-9.5-5-16.4-10.4-20.6
			c-5.4-4.2-13.3-6.3-23.8-6.3c-10.9,0-19.5,2.3-25.7,6.8c-3.7,2.5-6,6.7-6,11.3v0.3v0v0c0,4.6,2.2,8.7,5.6,11.3l0,0
			c4.7,4.1,16.3,8.3,34.6,12.5c18.3,4.3,31.9,8.9,40.6,13.6c8.6,4.5,15.6,11,20.5,18.9l0.1,0.2c4.9,7.9,7.5,18.1,7.5,30
			c0,11.2-3.4,21.7-9.1,30.4l0.1-0.2c-6.1,9.4-14.7,16.6-24.9,20.9l-0.4,0.1c-10.9,4.5-24.5,6.8-40.7,6.8
			c-23.6,0-41.8-5.5-54.5-16.6C246.3,555.7,238.8,539.7,236.4,518.7L236.4,518.7z"/>
	</g>
</g>
</svg>
