<?xml version="1.0" encoding="UTF-8" standalone="no"?>
<svg
   xmlns:dc="http://purl.org/dc/elements/1.1/"
   xmlns:cc="http://creativecommons.org/ns#"
   xmlns:rdf="http://www.w3.org/1999/02/22-rdf-syntax-ns#"
   xmlns:svg="http://www.w3.org/2000/svg"
   xmlns="http://www.w3.org/2000/svg"
   viewBox="0 0 1365.3333 1365.3333"
   height="1365.3333"
   width="1365.3333"
   xml:space="preserve"
   id="svg2"
   version="1.1"><metadata
     id="metadata8"><rdf:RDF><cc:Work
         rdf:about=""><dc:format>image/svg+xml</dc:format><dc:type
           rdf:resource="http://purl.org/dc/dcmitype/StillImage" /></cc:Work></rdf:RDF></metadata><defs
     id="defs6"><clipPath
       id="clipPath18"
       clipPathUnits="userSpaceOnUse"><path
         id="path16"
         d="M 0,1024 H 1024 V 0 H 0 Z" /></clipPath></defs><g
     transform="matrix(1.3333333,0,0,-1.3333333,0,1365.3333)"
     id="g10"><g
       id="g12"><g
         clip-path="url(#clipPath18)"
         id="g14"><g
           transform="translate(1024,512)"
           id="g20"><path
             id="path22"
             style="fill:#b4b3b2;fill-opacity:1;fill-rule:nonzero;stroke:none"
             d="m 0,0 c 0,-282.77 -229.23,-512 -512,-512 -282.77,0 -512,229.23 -512,512 0,282.77 229.23,512 512,512 C -229.23,512 0,282.77 0,0" /></g><g
           transform="translate(256.064,505.793)"
           id="g24"><path
             id="path26"
             style="fill:#ffffff;fill-opacity:1;fill-rule:nonzero;stroke:none"
             d="m 0,0 33.958,3.178 c 2.091,-11.405 6.257,-19.802 12.5,-25.192 6.243,-5.389 14.718,-8.055 25.426,-7.999 11.263,0 19.774,2.41 25.533,7.147 5.759,4.735 8.532,10.366 8.532,16.679 v 0.513 c 0.009,3.679 -1.248,7.249 -3.562,10.111 l 0.022,-0.022 C 99.998,7.231 95.817,9.791 89.823,11.817 85.707,13.396 76.364,15.891 61.837,19.603 43.024,24.21 29.927,29.969 22.376,36.752 12.226,45.46 6.39,58.169 6.399,71.543 v 0.405 0.192 c 0,9.193 2.816,17.726 7.637,24.808 l -0.107,-0.15 c 5.22,7.87 12.67,14.005 21.395,17.619 l 0.32,0.107 c 9.428,3.925 20.754,5.994 34.171,5.994 21.743,0 38.125,-4.807 49.146,-14.419 11.007,-9.748 16.745,-22.547 17.299,-38.588 l -35.174,-1.173 c -1.557,8.81 -4.671,15.23 -9.642,19.177 -4.969,3.945 -12.35,5.887 -22.055,5.887 -10.154,0 -18.131,-2.09 -23.848,-6.357 -3.481,-2.338 -5.569,-6.258 -5.567,-10.452 v -0.235 0.022 -0.043 c 0,-4.287 2.026,-8.084 5.162,-10.516 L 45.157,63.8 C 49.53,59.981 60.28,56.121 77.302,52.153 94.324,48.186 106.909,43.898 115.036,39.568 123.014,35.387 129.499,29.33 134.084,21.97 l 0.128,-0.213 c 4.565,-7.359 6.955,-16.766 6.955,-27.836 0,-10.431 -3.115,-20.137 -8.448,-28.264 l 0.128,0.193 c -5.631,-8.704 -13.651,-15.444 -23.122,-19.369 l -0.341,-0.127 c -10.133,-4.139 -22.717,-6.357 -37.798,-6.357 -21.949,0 -38.801,5.141 -50.618,15.4 C 9.151,-34.343 2.218,-19.496 -0.064,0 Z m 136.793,69.581 h 35.282 l 30.118,-89.675 29.351,89.675 h 34.364 l -44.091,-121.436 -8.105,-22.141 c -2.212,-6.03 -5.073,-11.802 -8.532,-17.214 l 0.213,0.362 c -2.38,-3.687 -5.434,-6.893 -9.001,-9.449 l -0.107,-0.064 c -3.626,-2.41 -7.828,-4.33 -12.329,-5.546 l -0.299,-0.064 c -4.949,-1.365 -10.644,-2.133 -16.51,-2.133 h -0.533 0.021 c -6.54,0.023 -13.058,0.774 -19.432,2.24 l 0.597,-0.107 -2.752,26.215 c 4.224,-0.98 9.087,-1.578 14.057,-1.642 h 0.043 c 7.679,0 13.396,2.261 17.064,6.783 3.928,5.12 6.793,10.972 8.426,17.214 l 0.086,0.341 z M 381.52,-56.761 H 348.33 V 7.551 c 0,13.545 -0.683,22.269 -2.155,26.322 -1.286,3.758 -3.737,7.008 -6.996,9.279 l -0.064,0.042 c -3.294,2.183 -7.161,3.341 -11.114,3.328 h -0.576 0.022 -0.256 c -5.759,0 -11.113,-1.792 -15.507,-4.863 l 0.085,0.064 c -4.441,-2.922 -7.775,-7.248 -9.471,-12.287 l -0.043,-0.17 c -1.77,-5.29 -2.581,-14.847 -2.581,-28.989 V -56.74 H 266.633 V 69.602 h 30.696 V 51.108 c 11.048,13.993 24.892,20.904 41.636,20.904 h 0.449 c 7.145,0 13.971,-1.429 20.178,-4.032 l -0.341,0.128 c 5.568,-2.239 10.239,-5.716 13.823,-10.131 l 0.042,-0.064 c 3.008,-3.947 5.268,-8.618 6.484,-13.716 l 0.043,-0.256 c 1.216,-5.93 1.899,-12.734 1.899,-19.71 l -0.043,-2.879 v 0.149 z m 34.172,62.733 c 0,-12.606 2.943,-22.247 8.959,-28.775 10.5,-12.179 28.885,-13.541 41.064,-3.042 1.074,0.926 2.077,1.928 3.005,2.999 l 0.022,0.043 c 5.865,6.549 8.809,16.297 8.809,28.946 0,12.649 -2.944,22.035 -8.809,28.626 -10.614,12.174 -29.087,13.44 -41.262,2.827 -0.998,-0.871 -1.937,-1.808 -2.808,-2.806 l -0.021,-0.042 c -5.994,-6.528 -8.959,-16.169 -8.959,-28.69 z m -33.98,1.771 c 0.027,11.41 2.916,22.632 8.405,32.636 l -0.171,-0.363 c 5.157,9.959 13.132,18.179 22.93,23.634 l 0.299,0.15 c 9.978,5.388 21.147,8.189 32.487,8.148 h 1.066 -0.063 c 19.14,0 34.783,-6.193 46.926,-18.579 12.145,-12.386 18.26,-28.05 18.345,-46.992 0,-19.09 -6.186,-34.875 -18.494,-47.481 -12.308,-12.607 -27.858,-18.899 -46.565,-18.899 -12.073,0 -23.463,2.922 -33.51,8.084 l 0.405,-0.192 c -10.101,4.93 -18.414,12.885 -23.783,22.759 l -0.15,0.278 c -5.404,10.068 -8.113,22.341 -8.127,36.817" /></g></g></g></g></svg>