<?xml version="1.0" encoding="utf-8"?>
<!-- Generator: Adobe Illustrator 21.0.0, SVG Export Plug-In . SVG Version: 6.00 Build 0)  -->
<svg version="1.1" xmlns="http://www.w3.org/2000/svg" xmlns:xlink="http://www.w3.org/1999/xlink" x="0px" y="0px"
	 viewBox="0 0 1024 1024" style="enable-background:new 0 0 1024 1024;" xml:space="preserve">
<style type="text/css">
	.st0{fill:#E20074;}
	.st1{fill:#FFFFFF;}
</style>
<g id="Min_Guides__x28_DO_NOT_REMOVE_x29_">
</g>
<g id="Max_Guides__x28_DO_NOT_REMOVE_x29_">
</g>
<g id="Icon">
	<circle id="Background" class="st0" cx="512" cy="512" r="512"/>
	<path class="st1" d="M329,584.6v-90h46.8H419v90H329z M603.8,584.6v-90h51.6h38.4v90H603.8z M689,290.6H333.8L329,447.8l24,3.6
		c4.8-46.8,16.8-80.4,36-103.2c20.4-22.8,49.2-36,86.4-37.2v327.6c0,28.8-3.6,46.8-12,55.2c-7.2,7.2-19.2,12-36,13.2
		c-4.8,0-13.2,1.2-25.2,1.2v25.2h219.6v-25.2c-12,0-20.4,0-25.2-1.2c-16.8-1.2-28.8-6-36-13.2c-8.4-8.4-12-27.6-12-55.2V312.2
		c37.2,1.2,66,13.2,86.4,37.2c20.4,22.8,32.4,56.4,36,103.2l24-3.6L689,290.6z"/>
</g>
</svg>
