<svg xmlns="http://www.w3.org/2000/svg" viewBox="0 0 1024 1024">
   <circle cx="512" cy="512" r="512" style="fill:#e20074"/>
   <path d="M329 584.6v-90h90v90h-90zm274.8 0v-90h90v90h-90zm85.2-294H333.8L329 447.8l24 3.6c4.8-46.8 16.8-80.4 36-103.2 20.4-22.8 49.2-36 86.4-37.2v327.6c0 28.8-3.6 46.8-12 55.2-7.2 7.2-19.2 12-36 13.2-4.8 0-13.2 1.2-25.2 1.2v25.2h219.6v-25.2c-12 0-20.4 0-25.2-1.2-16.8-1.2-28.8-6-36-13.2-8.4-8.4-12-27.6-12-55.2V312.2c37.2 1.2 66 13.2 86.4 37.2 20.4 22.8 32.4 56.4 36 103.2l24-3.6-6-158.4z" style="fill:#fff"/>
</svg>
