<svg xmlns="http://www.w3.org/2000/svg" viewBox="0 0 1024 1024" style="enable-background:new 0 0 1024 1024" xml:space="preserve">
   <style>
      .st1{fill:#fff}
   </style>
   <g id="Icon">
      <circle cx="512" cy="512" r="512" style="fill:#25215e"/>
      <path class="st1" d="M227.7 578.3V476.9h-31.2v-31.6h103.4v31.6h-30.1v101.4h-42.1z"/>
      <path class="st1" d="M349.8 552.8v-20.7l-14.1.9c-9.2.4-14.7 4.8-14.7 12.2 0 7.5 5.4 12.2 14.4 12.2 7 0 12.7-3.7 14.6-5.1m-29.2 26.4c-8.5 0-35.4-1-35.4-29.4 0-25.1 28.8-28.2 37.5-28.6l26.8-1.1v-3.9c0-4.7-2.8-12.7-19.9-12.7-10.5 0-22.4 3.7-30.7 7.8l-8.8-22.7c8.2-3.5 24.9-9.2 45.4-9.2 19.3 0 30.6 3.4 39.5 11.3 8.8 7.8 12 18.3 12 33.9v54.1h-35.7l-1.4-13-4.5 4.3c-4.9 4.9-12.9 9.2-24.8 9.2zm196.3-1.3.4.9H474l-18.4-29.9-18.2 29.9h-43.5s.2-.6.5-.9c3.8-4.7 30.3-35.7 85.2-48.5m54.2-72.7-43 53.9-.6.8c-18.1 2.5-37.5 7.7-57.8 16.7l-34.4-46h43.4l14.3 28.8 36.5-54.3h41.6v.1zm82-10.9h-46L547 510.4c11.8 1.3 22.6 3 32 5.6l13.7-49.8 16 58.1c12 7.9 16.5 12.3 17 12.6-31.3-9.3-58.9-13.4-83.2-13.9l-18.8 54.4-.2.9h40.7l5.2-20.8h44.3l5.4 20.8H662l-46.2-133zm94.4 133c-25.7 0-53.3-15.5-53.3-49.7 0-34.1 27.6-49.6 53.3-49.6 17.1 0 28.5 4.5 32.8 6.5l-5.7 27.2c-4.2-2.3-11.2-5.1-20-5.1-12.8 0-21.7 8.4-21.7 20.4 0 12.6 8.5 20.2 22.7 20.2 8.2 0 15.1-2.9 19.1-5.1l6.6 27.5c-3.9 2.3-15.1 7.7-33.8 7.7zm90.4.4c-11.4 0-19.4-2.7-25.3-8-5.5-5.1-7.3-13.7-7.3-27.3v-32.8h-16.1v-29.1H768V456h38.5v25.5h20.8v29.1h-20.8v27.8c0 10 7.3 10 10.7 10 2.6 0 8.4-.3 10.4-.7l-.4 27.3c-5.2 1.2-15.9 3.7-26.6 3.7z"/>
   </g>
</svg>
