<?xml version="1.0" encoding="utf-8"?>
<!-- Generator: Adobe Illustrator 21.0.0, SVG Export Plug-In . SVG Version: 6.00 Build 0)  -->
<svg version="1.1" xmlns="http://www.w3.org/2000/svg" xmlns:xlink="http://www.w3.org/1999/xlink" x="0px" y="0px"
	 viewBox="0 0 1024 1024" style="enable-background:new 0 0 1024 1024;" xml:space="preserve">
<style type="text/css">
	.st0{fill:#25215E;}
	.st1{fill:#FFFFFF;}
</style>
<g id="Guides">
</g>
<g id="Icon">
	<circle class="st0" cx="512" cy="512" r="512"/>
	<g>
		<polygon class="st1" points="227.7,578.3 227.7,476.9 196.5,476.9 196.5,445.3 299.9,445.3 299.9,476.9 269.8,476.9 269.8,578.3 
			227.7,578.3 		"/>
		<path class="st1" d="M349.8,552.8v-20.7l-14.1,0.9c-9.2,0.4-14.7,4.8-14.7,12.2c0,7.5,5.4,12.2,14.4,12.2c7,0,12.7-3.7,14.6-5.1
			 M320.8,578.7c-8.5,0-35.4-1-35.4-29.4c0-25.1,28.8-28.2,37.5-28.6l26.8-1.1v-3.9c0-4.7-2.8-12.7-19.9-12.7
			c-10.5,0-22.4,3.7-30.7,7.8l-8.8-22.7c8.2-3.5,24.9-9.2,45.4-9.2c19.3,0,30.6,3.4,39.5,11.3c8.8,7.8,12,18.3,12,33.9v54.1h-35.7
			l-1.4-13l-4.5,4.3C340.7,574.4,332.7,578.7,320.8,578.7L320.8,578.7z"/>
		<path class="st1" d="M517.1,577.4l0.4,0.9h-43.5l-18.4-29.9l-18.2,29.9h-43.5c0,0,0.2-0.6,0.5-0.9c3.8-4.7,30.3-35.7,85.2-48.5"/>
		<path class="st1" d="M533.8,456.2l-43,53.9l0,0l-0.6,0.8c-18.1,2.5-37.5,7.7-57.8,16.7L398,481.6h43.4l14.3,28.8l36.5-54.3H533.8
			L533.8,456.2z"/>
		<path class="st1" d="M615.8,445.3h-46l-22.8,65.1c11.8,1.3,22.6,3,32,5.6l13.7-49.8l16,58.1c12,7.9,16.5,12.3,17,12.6
			c-31.3-9.3-58.9-13.4-83.2-13.9l-18.8,54.4l-0.2,0.9h40.7l5.2-20.8h44.3l5.4,20.8H662L615.8,445.3L615.8,445.3z"/>
		<path class="st1" d="M710.2,578.3c-25.7,0-53.3-15.5-53.3-49.7c0-34.1,27.6-49.6,53.3-49.6c17.1,0,28.5,4.5,32.8,6.5l-5.7,27.2
			c-4.2-2.3-11.2-5.1-20-5.1c-12.8,0-21.7,8.4-21.7,20.4c0,12.6,8.5,20.2,22.7,20.2c8.2,0,15.1-2.9,19.1-5.1l6.6,27.5
			C740.1,572.9,728.9,578.3,710.2,578.3L710.2,578.3z"/>
		<path class="st1" d="M800.6,578.7c-11.4,0-19.4-2.7-25.3-8c-5.5-5.1-7.3-13.7-7.3-27.3v-32.8h-16.1v-29.1H768v-25.5h38.5v25.5
			h20.8v29.1h-20.8v27.8c0,10,7.3,10,10.7,10c2.6,0,8.4-0.3,10.4-0.7l-0.4,27.3C822,576.2,811.3,578.7,800.6,578.7L800.6,578.7z"/>
	</g>
</g>
</svg>
