<?xml version="1.0" encoding="utf-8"?>
<!-- Generator: Adobe Illustrator 21.0.0, SVG Export Plug-In . SVG Version: 6.00 Build 0)  -->
<svg version="1.1" xmlns="http://www.w3.org/2000/svg" xmlns:xlink="http://www.w3.org/1999/xlink" x="0px" y="0px"
	 viewBox="0 0 1024 1024" style="enable-background:new 0 0 1024 1024;" xml:space="preserve">
<style type="text/css">
	.st0{fill:#0D8DE8;}
	.st1{fill:#FFFFFF;}
</style>
<g id="Guides">
</g>
<g id="Icon">
	<circle class="st0" cx="512" cy="512" r="512"/>
	<g>
		<title>TeamViewer icon</title>
		<path class="st1" d="M737.9,768H285.8c-16.5,0-29.9-13.4-30-30V286c0-16.5,13.4-29.9,30-30h452.1c16.5,0,29.9,13.4,30,30v452
			C767.9,754.6,754.5,768,737.9,768z M509.9,301c-115.3,1-208.3,95.6-209.1,211c-0.9,117.5,93.5,210.9,211,211
			c115.5,0.1,209-96,211-211C724.9,393.1,628.8,299.9,509.9,301z M461.7,440.2l-19,46.1h139.5l-19-46.1L705,512l-141.7,71.8l19-46.1
			H442.7l18.8,46.1L319.5,512L461.7,440.2z"/>
	</g>
</g>
</svg>
