<svg xmlns="http://www.w3.org/2000/svg" viewBox="0 0 1024 1024">
   <circle cx="512" cy="512" r="512" style="fill:#0d8de8"/>
   <path d="M737.91 768H285.83a30.08 30.08 0 0 1-30-30V286a30.08 30.08 0 0 1 30-30h452.08a30.08 30.08 0 0 1 30 30v452a30.08 30.08 0 0 1-30 30Zm-228-467c-115.31 1-208.28 95.62-209.11 211-.85 117.48 93.46 210.88 211 211 115.52.06 209-96 211-211 2.07-118.89-93.99-212.05-212.86-211Zm-48.2 139.17-19 46.06h139.5l-19-46.06L705 512l-141.7 71.79 19-46.06H442.74l18.82 46.06L319.5 512Z" style="fill:#fff"/>
</svg>
