<?xml version="1.0" encoding="UTF-8" standalone="no"?>
<svg
   xmlns:dc="http://purl.org/dc/elements/1.1/"
   xmlns:cc="http://creativecommons.org/ns#"
   xmlns:rdf="http://www.w3.org/1999/02/22-rdf-syntax-ns#"
   xmlns:svg="http://www.w3.org/2000/svg"
   xmlns="http://www.w3.org/2000/svg"
   viewBox="0 0 1365.3333 1365.3333"
   height="1365.3333"
   width="1365.3333"
   xml:space="preserve"
   id="svg2"
   version="1.1"><metadata
     id="metadata8"><rdf:RDF><cc:Work
         rdf:about=""><dc:format>image/svg+xml</dc:format><dc:type
           rdf:resource="http://purl.org/dc/dcmitype/StillImage" /></cc:Work></rdf:RDF></metadata><defs
     id="defs6"><clipPath
       id="clipPath18"
       clipPathUnits="userSpaceOnUse"><path
         id="path16"
         d="M 0,1024 H 1024 V 0 H 0 Z" /></clipPath></defs><g
     transform="matrix(1.3333333,0,0,-1.3333333,0,1365.3333)"
     id="g10"><g
       id="g12"><g
         clip-path="url(#clipPath18)"
         id="g14"><g
           transform="translate(1024,512)"
           id="g20"><path
             id="path22"
             style="fill:#4b86ce;fill-opacity:1;fill-rule:nonzero;stroke:none"
             d="m 0,0 c 0,-282.77 -229.23,-512 -512,-512 -282.77,0 -512,229.23 -512,512 0,282.77 229.23,512 512,512 C -229.23,512 0,282.77 0,0" /></g><g
           transform="translate(461.7061,583.8286)"
           id="g24"><path
             id="path26"
             style="fill:#ffffff;fill-opacity:1;fill-rule:nonzero;stroke:none"
             d="M 0,0 -18.966,-46.059 H 120.533 L 101.568,0 243.265,-71.787 101.568,-143.574 120.533,-97.515 H -18.966 l 18.817,-46.059 -142.059,71.787 z m 48.235,139.179 c -115.307,-1.002 -208.278,-95.616 -209.11,-210.987 -0.854,-117.484 93.461,-210.881 210.987,-210.987 115.521,-0.065 208.982,96 210.988,210.987 2.069,118.87 -93.996,212.033 -212.865,210.987 m 227.968,-467.01 h -452.076 c -16.546,0.047 -29.948,13.45 -29.995,29.996 v 452.012 c 0.047,16.546 13.449,29.948 29.995,29.994 h 452.076 c 16.546,-0.046 29.948,-13.448 29.995,-29.994 v -452.012 c -0.047,-16.546 -13.449,-29.949 -29.995,-29.996" /></g></g></g></g></svg>