<svg xmlns="http://www.w3.org/2000/svg" viewBox="0 0 1024 1024">
  <circle cx="512" cy="512" r="512" fill="#c50e1f"/>
  <path fill="#fff" d="M304.93 319.67c-20.57 0-51.57 20.87-51.57 55.35 0 42.59 37.82 57.2 50.86 57.2h209.71v.1l-15.46 161.11c-2.84 38.55 11.62 58.34 20.58 68.74 16.4 19.09 46.68 34.05 81.51 40.32.99-10.26 31.05-322.03 31.05-322.11 1-16.02-3.63-29.99-14.31-42.16-12.47-14.25-30.84-18.53-38.47-18.53zm351.18 32.63s-33.85 352.03-33.76 352.03c30.91 0 53.07-9.2 70.29-20.73 16.11-10.75 28.58-23.51 38.11-39.96 12.4-21.23 16.17-41.03 17.17-52.51l22.72-238.83Zm61.83 23.08h27.56l-.78 8.47v-.21h-25.28c-4.92 0-7.98 1.36-8.4 5.92-.73 5.98 5.26 10.4 13.17 10.4h18.95l-.85 8.55h-39.32l.76-8.13c2.08 0 5.49 0 7.71.71-4.84-2.36-7.91-7.19-7.2-13.89.86-9.04 6.84-11.82 13.68-11.82zm-28.27 43.52c2.92 0 5.05 2.5 4.77 5.49 0 3.04-2.78 5.49-5.84 5.49-2.93 0-5.06-2.5-4.77-5.49 0-2.99 2.91-5.49 5.84-5.49zm12.17 1.27h39.4l-.87 8.56h-39.38zm-20.43 20.23h57.84l-.86 8.56h-57.84zm-306.02 14.84s-18.24 188.6-20.87 216.67v.1h101.94l20.87-216.74zm322.25 1.27 8.13.71c0-.17.1-.33.14-.5v.51h-.13c-1.92 7.56 3.23 11.26 14.81 11.26h15.95l-.86 8.55h-39.32l.78-8.2c2.21 0 5.7 0 8.61.85-5.12-1.77-9.61-5.78-8.11-13.17zm13.4 30.05h4.77v.37l-2.42 25.21c8.97 0 13.24-3.56 14.04-11.69.71-3.85 0-7.84-1.15-11.46l6.63-1.15c1.21 4.21 1.7 9.12 1.21 14.12-1.21 12.24-8.12 19.01-22.01 19.01-11.83 0-20.09-6.84-19.02-18.31 1.06-11.4 8.98-16.1 17.95-16.1zm-1.86 8.56c-5.56 0-9.33 3-9.83 7.98-.72 4.85 2.78 8.2 8.19 8.9zm.1 32.84c13.61 0 21.45 7.98 20.17 21.15v-.21c-.72 5.63-1.51 9.9-3.01 14.18h-56.83l.85-8.55h18.16c2.27 0 5.41 0 7.49.71-4.78-2.07-7.42-6.77-6.78-12.6.86-9.48 7.98-14.68 19.95-14.68zm-.1 8.82c-7.98 0-12.54 2.5-13.04 7.85-.72 6.4 6.42 9.9 13.04 9.9h12.18c.71-1.78 1.14-3.78 1.4-6.28.73-6.76-3.04-11.39-13.58-11.47z"/>
</svg>

