<svg xmlns="http://www.w3.org/2000/svg" viewBox="0 0 1024 1024" style="enable-background:new 0 0 1024 1024" xml:space="preserve">
   <circle cx="512" cy="512" r="512" style="fill:#041e42"/>
   <path d="m765.8 539.4-68.3-202.7c-4.9-14.6-17.4-25.6-32.6-28.5l-213.1-41.6c-14.9-2.9-30.3 2.3-40.4 13.6l-144.5 162c-10.3 11.5-13.6 27.8-8.7 42.4l68.3 202.7c4.9 14.7 17.4 25.6 32.6 28.5l213.1 41.6c2.7.5 5.4.8 8.2.8 12.2 0 24-5.2 32.2-14.4l144.5-162c10.3-11.5 13.6-27.7 8.7-42.4zm-82.5-197.9 44.9 133.3-95.4-150.5c-2.1-3.3-4.6-6.1-7.4-8.5l36.7 7.2c9.8 1.8 18 9 21.2 18.5zm-70.4 351.6-83.2 4.2 134.5-77.9c.2-.1.4-.2.6-.4l-32.4 61.5c-3.7 7.4-11.2 12.2-19.5 12.6zm-209-1.4-47-74.1c.9.6 1.8 1.2 2.8 1.8l135.6 78.5c.6.4 1.3.7 1.9 1l-72.3 3.7c-8.4.4-16.5-3.7-21-10.9zm7.2-360.7 83.2-4.2-134.5 77.9c-.2.1-.4.2-.6.4l32.4-61.5c3.7-7.4 11.2-12.2 19.5-12.6zm209 1.3 47 74.1c-.9-.6-1.8-1.2-2.8-1.8l-135.6-78.5c-.6-.4-1.3-.7-1.9-1l72.3-3.7c8.4-.4 16.5 3.8 21 10.9zm45.8 258.3c0 6.5-3.5 12.6-9.1 15.9L521.2 685c-5.7 3.3-12.7 3.3-18.4 0l-135.6-78.5c-5.6-3.3-9.1-9.3-9.1-15.9V433.5c0-6.5 3.5-12.6 9.1-15.9l135.6-78.5c2.8-1.7 6-2.5 9.2-2.5 3.2 0 6.4.8 9.2 2.5l135.6 78.5c5.6 3.3 9.1 9.3 9.1 15.9v157.1zm-322.3 6-39.4-62.1c-4.5-7.1-4.8-16.1-.9-23.5l39.7-75.5v155.1c.1 2 .3 4 .6 6zm336.8-169.2 39.4 62.1c4.5 7.1 4.8 16.1.9 23.5l-39.8 75.5v-155c0-2.1-.2-4.1-.5-6.1zM422.7 290.2c5.4-6 13.1-9.4 21-9.4 1.8 0 3.5.2 5.3.5l133 26-171.7 8.7c-4.8.2-9.3 1.4-13.6 3.3l26-29.1zm-144.6 162 95.6-107.1L290 504c-2.5 4.8-3.9 10-4.3 15.2l-13.3-39.4c-3.2-9.5-1-20.1 5.7-27.6zm62.6 230.3-44.9-133.3 95.4 150.5c2.1 3.2 4.6 6.1 7.4 8.5l-36.7-7.2c-9.8-1.8-17.9-8.9-21.2-18.5zm260.7 51.4c-6.6 7.4-16.7 10.8-26.4 8.9l-133-26 171.7-8.7c4.8-.2 9.3-1.4 13.6-3.3l-25.9 29.1zm144.5-162L650.3 679 734 520c2.5-4.8 3.9-10 4.3-15.2l13.3 39.4c3.2 9.6 1 20.2-5.7 27.7z" style="fill:#fff"/>
</svg>
