<?xml version="1.0" encoding="utf-8"?>
<!-- Generator: Adobe Illustrator 21.0.0, SVG Export Plug-In . SVG Version: 6.00 Build 0)  -->
<svg version="1.1" xmlns="http://www.w3.org/2000/svg" xmlns:xlink="http://www.w3.org/1999/xlink" x="0px" y="0px"
	 viewBox="0 0 1024 1024" style="enable-background:new 0 0 1024 1024;" xml:space="preserve">
<style type="text/css">
	.st0{fill:#041E42;}
	.st1{fill:#FFFFFF;}
</style>
<g id="Min_Guides__x28_DO_NOT_REMOVE_x29_">
</g>
<g id="Max_Guides__x28_DO_NOT_REMOVE_x29_">
</g>
<g id="Icon">
	<circle id="Background" class="st0" cx="512" cy="512" r="512"/>
	<path class="st1" d="M765.8,539.4l-68.3-202.7c-4.9-14.6-17.4-25.6-32.6-28.5l-213.1-41.6c-14.9-2.9-30.3,2.3-40.4,13.6l-144.5,162
		c-10.3,11.5-13.6,27.8-8.7,42.4l68.3,202.7c4.9,14.7,17.4,25.6,32.6,28.5l213.1,41.6c2.7,0.5,5.4,0.8,8.2,0.8
		c12.2,0,24-5.2,32.2-14.4l144.5-162C767.4,570.3,770.7,554.1,765.8,539.4z M683.3,341.5l44.9,133.3l-95.4-150.5
		c-2.1-3.3-4.6-6.1-7.4-8.5l36.7,7.2C671.9,324.8,680.1,332,683.3,341.5z M612.9,693.1l-83.2,4.2l134.5-77.9
		c0.2-0.1,0.4-0.2,0.6-0.4l-32.4,61.5C628.7,687.9,621.2,692.7,612.9,693.1z M403.9,691.7l-47-74.1c0.9,0.6,1.8,1.2,2.8,1.8
		l135.6,78.5c0.6,0.4,1.3,0.7,1.9,1l-72.3,3.7C416.5,703,408.4,698.9,403.9,691.7z M411.1,331l83.2-4.2l-134.5,77.9
		c-0.2,0.1-0.4,0.2-0.6,0.4l32.4-61.5C395.3,336.2,402.8,331.4,411.1,331z M620.1,332.3l47,74.1c-0.9-0.6-1.8-1.2-2.8-1.8
		l-135.6-78.5c-0.6-0.4-1.3-0.7-1.9-1l72.3-3.7C607.5,321,615.6,325.2,620.1,332.3z M665.9,590.6c0,6.5-3.5,12.6-9.1,15.9
		l-135.6,78.5c-5.7,3.3-12.7,3.3-18.4,0l-135.6-78.5c-5.6-3.3-9.1-9.3-9.1-15.9V433.5c0-6.5,3.5-12.6,9.1-15.9l135.6-78.5
		c2.8-1.7,6-2.5,9.2-2.5c3.2,0,6.4,0.8,9.2,2.5l135.6,78.5c5.6,3.3,9.1,9.3,9.1,15.9V590.6z M343.6,596.6l-39.4-62.1
		c-4.5-7.1-4.8-16.1-0.9-23.5l39.7-75.5v155.1C343.1,592.6,343.3,594.6,343.6,596.6z M680.4,427.4l39.4,62.1
		c4.5,7.1,4.8,16.1,0.9,23.5l-39.8,75.5V433.5C680.9,431.4,680.7,429.4,680.4,427.4z M422.7,290.2c5.4-6,13.1-9.4,21-9.4
		c1.8,0,3.5,0.2,5.3,0.5l133,26L410.3,316c-4.8,0.2-9.3,1.4-13.6,3.3L422.7,290.2z M278.1,452.2l95.6-107.1L290,504
		c-2.5,4.8-3.9,10-4.3,15.2l-13.3-39.4C269.2,470.3,271.4,459.7,278.1,452.2z M340.7,682.5l-44.9-133.3l95.4,150.5
		c2.1,3.2,4.6,6.1,7.4,8.5l-36.7-7.2C352.1,699.2,344,692.1,340.7,682.5z M601.4,733.9c-6.6,7.4-16.7,10.8-26.4,8.9l-133-26
		l171.7-8.7c4.8-0.2,9.3-1.4,13.6-3.3L601.4,733.9z M745.9,571.9L650.3,679L734,520c2.5-4.8,3.9-10,4.3-15.2l13.3,39.4
		C754.8,553.8,752.6,564.4,745.9,571.9z"/>
</g>
</svg>
