<?xml version="1.0" encoding="utf-8"?>
<!-- Generator: Adobe Illustrator 21.0.0, SVG Export Plug-In . SVG Version: 6.00 Build 0)  -->
<svg version="1.1" xmlns="http://www.w3.org/2000/svg" xmlns:xlink="http://www.w3.org/1999/xlink" x="0px" y="0px"
	 viewBox="0 0 1024 1024" style="enable-background:new 0 0 1024 1024;" xml:space="preserve">
<style type="text/css">
	.st0{fill:#C90000;}
	.st1{fill:#FFFFFF;}
</style>
<g id="Min_Guides__x28_DO_NOT_REMOVE_x29_">
</g>
<g id="Max_Guides__x28_DO_NOT_REMOVE_x29_">
</g>
<g id="Icon">
	<circle id="Background" class="st0" cx="512" cy="512" r="512"/>
	<path id="Logo" transform="translate(-33.796,-64.797)" class="st1" d="M545.8,845.8l71.9-404.6c68.6,0,90.2,7.5,93.3,38.2
		c0,0,46-17.2,69.2-52c-90.5-41.9-181.5-43.8-181.5-43.8l-53.1,64.6l0.1,0l-53.1-64.6c0,0-91,1.9-181.5,43.8
		c23.2,34.8,69.2,52,69.2,52c3.1-30.7,24.7-38.2,92.8-38.3L545.8,845.8 M545.8,364.9c73.2-0.6,156.9,11.3,242.7,48.7
		c11.5-20.6,14.4-29.7,14.4-29.7c-93.7-37.1-181.5-49.8-257.1-50.1c-75.6,0.3-163.4,13-257.1,50.1c0,0,4.2,11.2,14.4,29.7
		C388.8,376.3,472.6,364.4,545.8,364.9L545.8,364.9"/>
</g>
</svg>
