<svg xmlns="http://www.w3.org/2000/svg" viewBox="0 0 1024 1024">
   <circle cx="512" cy="512" r="512"/>
   <path d="M166.63 435.25h76.75v25.58h-25.59v127.92h-25.58V460.83h-25.58Zm434.91 127.92h51.17V512h-51.17Zm230.25-102.34v-25.58h-51.17V512h25.58v-51.17ZM294.54 512h51.17v-25.58h-51.17v-25.59h51.17v-25.58H269v127.92h102.29v-25.59h-76.75Zm76.75-51.17h25.58v127.92h25.58V460.83H448v-25.58h-76.71Zm179.08 25.58h-51.16v-25.58h51.17v-25.58h-76.75v153.5h25.58V512h25.58v76.75H576v-25.58h-25.63V512H576v-51.17h-25.63Zm127.92-25.58h25.58V512h-25.58v25.58H755V512h-25.54v-51.17H755v-25.58h-76.71Zm153.5 0V512h-25.58v25.58h51.17v-76.75Z" style="fill:#fff"/>
</svg>
