<svg xmlns="http://www.w3.org/2000/svg" viewBox="0 0 1024 1024">
   <circle cx="512" cy="512" r="512"/>
   <path d="M577.92 696.89c76.37 29.49 176-22.81 188.47-111.79 12.32-88.27-51.39-143.77-112.11-162.33-6-49.22-24.8-83.56-50-106.26-27.93-25.13-64.15-36.27-101.89-36.33-42 0-82 21.23-109.58 52.49-24.26 27.49-38.69 62.52-37.38 96.94-44.81 18.46-73.76 48.83-88.25 82.92-24.25 57.05-8.3 125.53 45.13 170.71 14.16 12 38.72 23.15 67.66 28 42.4 7.08 93.93.76 133.88-33.24 28-23.86 50.77-61.53 59.56-119a18.49 18.49 0 0 0-28-18.54c-24.58 15.14-58.6 14.2-89 .28A18.49 18.49 0 0 0 441 574.3c29.09 13.34 60.58 17.16 88.54 11.37-8.92 28.94-22.83 49.79-39.7 64.15-30.92 26.32-71 30.4-103.82 24.93-21.19-3.54-39.48-10.95-49.85-19.73-40.16-33.94-53.2-85.13-35-128 12.36-29.08 39-53.89 79.94-67.51a18.49 18.49 0 0 0 12.36-20.88c-5.22-28.5 6.71-58.44 27-81.46 20.68-23.43 50.38-40 81.83-40 28.52.05 56.1 7.85 77.2 26.84 21.6 19.43 36 50.25 39.14 94.66a18.49 18.49 0 0 0 14.48 16.75c48.68 10.7 106.64 52.72 96.62 124.54-9.19 65.45-82.34 104.11-138.51 82.42a18.49 18.49 0 0 0-13.33 34.51Z" style="fill:#fff"/>
</svg>
