<svg xmlns="http://www.w3.org/2000/svg" viewBox="0 0 1024 1024">
   <circle cx="512" cy="512" r="512" style="fill:#f3d02f"/>
   <path d="M400.82 246.67a11.91 11.91 0 0 0-10.36 5.95L280.29 444a11.91 11.91 0 0 0 0 12l52.22 89.89a11.89 11.89 0 0 0 20.56-12L304.36 450l103.32-179.54H617.2l103.49 179.67-46.11 84a11.89 11.89 0 1 0 20.84 11.44l49.33-89.89a11.91 11.91 0 0 0-.11-11.67L634.43 252.63a11.91 11.91 0 0 0-10.31-5.95Zm52 72.79a14.5 14.5 0 0 0-13.18 20.21l17.4 40.6a14.5 14.5 0 0 0 26.66-11.43l-17.4-40.6a14.5 14.5 0 0 0-13.48-8.79Zm119 0a14.5 14.5 0 0 0-13.31 8.79l-17.4 40.6a14.5 14.5 0 0 0 7.62 19 14.5 14.5 0 0 0 19-7.62l17.4-40.6a14.5 14.5 0 0 0-7.62-19 14.5 14.5 0 0 0-5.73-1.17Zm-58 69.6c-31.9 0-58 29-55.1 52.2 0 29 46.4 29 55.1 29s55.1 0 55.1-29c.08-23.2-26.01-52.2-55.01-52.2ZM540 508l31.9 81.2c2.9 0 2.9 2.9 2.9 5.8l23.2 58 14.5 37.7c8.7 20.3 29 34.8 52.2 34.8 5.8 0 14.5-2.9 20.3-5.8 29-11.6 43.5-43.5 31.9-72.5C685 571.77 592.22 516.67 540 508Zm-55.11 0c-49.31 5.8-145 60.9-174 136.3-14.5 29 0 60.9 29 72.5 5.8 5.8 11.6 5.8 20.3 5.8 20.3 0 40.6-14.5 49.3-34.8l14.5-37.7Zm26.1 26.1-17.4 43.5h34.8Zm-31.9 81.2-8.7 26.1h81.2l-8.7-26.1ZM453 676.17l-11.6 26.1h136.3l-8.7-26.1Zm-20.3 60.9c11.6 43.5 40.6 69.6 78.3 69.6s66.7-26.1 81.2-69.6Z" style="fill:#fff"/>
</svg>
