<svg xmlns="http://www.w3.org/2000/svg" viewBox="0 0 1024 1024">
   <circle cx="512" cy="512" r="512" style="fill:#3372ac"/>
   <path d="M196.69 662.33c-12.76-4.94-11.94-9.06 4.94-31.28 7.82-10.29 14.82-21.82 14.82-25.52.41-3.7.82-10.7 1.23-15.23s7.82-19.35 16.88-32.93c13.17-20.17 16.88-30 18.93-52.28 5.35-49 40.34-106.2 79-128.84 21-11.94 72-23.46 81.91-18.11 14 7.41 67.09 3.7 127.19-9.06l60.92-12.35 30 11.94c16.46 6.59 37.87 13.58 47.34 14.82 9.06 1.65 20.17 6.59 24.29 11.11 8.64 9.47 14 9.88 14 1.65 0-10.7 7.41-6.59 12.35 7.41 2.88 7 5.76 10.7 7 8.23 3.29-8.64 9.47-6.17 9.47 4.12.41 4.94 4.53 14.41 9.88 21 8.64 10.29 11.94 11.53 25.11 9.47 10.7-1.65 14.41-1.24 13.17 2.47-8.23 20.17-7.82 21 7 7 19.76-18.11 27.17-32.52 27.58-52.28 0-12.35.82-14 3.7-7.41 8.23 19.35 2.06 60.92-14.41 92.62-4.12 8.23-5.76 17.29-4.12 25.11 3.7 15.64-8.64 32.93-30 42.4-16.05 7.41-16.46 7-36.22-2.88-11.11-5.35-26.34-11.53-33.34-13.17-7.41-1.24-16.88-7-21.4-12.35-6.17-8.23-8.64-9.06-14.41-4.94-6.59 4.94-6.17 6.17 3.29 16.46 5.76 6.17 11.53 17.7 13.17 25.93 2.06 12.35.82 16.46-8.64 26.34-6.17 6.59-16.05 12.76-22.23 14.41a59.28 59.28 0 0 0-19.76 11.11c-8.64 7.82-9.47 8.23-11.94 1.65-4.12-11.11 3.7-32.93 14-37.46 4.94-2.06 9.06-5.35 9.06-6.59 0-3.7-49.39-25.52-52.28-23.05-2.06 2.06-2.47 32.52-1.23 95.5.82 36.22.41 37-9.06 38.28-10.29 1.24-29.64-11.11-36.22-23.46-2.47-5.35-1.24-11.94 4.53-23.05l8.23-15.23-13.58-26.34c-9.06-18.52-15.23-25.93-19.34-24.29-2.88 1.24-18.11 4.12-32.93 6.17-25.93 3.7-43.63 1.65-65.86-7-8.23-3.29-12.35-1.23-30.46 16.46l-20.58 19.76 17.7 18.11c20.58 21 20.17 30.87-1.65 30.87-24.29 0-34.58-6.17-36.22-21.4-.82-11.11-4.12-14.82-16.46-21-18.52-8.64-19.76-16.46-5.35-36.22l10.7-14-11.11-9.01-11.53-9.06-13.58 12.35c-7.82 6.59-16.46 11.94-19.76 11.94-19.35 0-63.8 67.09-63.8 95.91 0 18.93-15.64 24.7-39.93 15.23Z" style="fill:#fff"/>
</svg>
