<svg xmlns="http://www.w3.org/2000/svg" viewBox="0 0 1024 1024">
   <circle cx="512" cy="512" r="512" style="fill:#ed1c24"/>
   <path d="M187.17 482.44c3.81 0 5.88 2.08 5.88 5.54s-2.08 5.54-5.88 5.54h-20.41v51.21c0 4.15-2.42 6.57-6.23 6.57s-5.88-2.42-5.88-6.57v-51.22h-20.77c-3.81 0-5.88-2.08-5.88-5.54s2.08-5.54 5.88-5.54Zm41.83 5.88v56.4c0 4.15-2.08 6.57-5.88 6.57s-6.23-2.42-6.23-6.57v-56.4c0-4.15 2.08-6.57 6.23-6.57 3.5 0 5.88 2.42 5.88 6.57Zm106.23 1.73v54.67c0 4.15-2.42 6.57-6.23 6.57s-5.88-2.42-5.88-6.57V503.2h-.35l-19.38 31.49c-1.38 2.08-3.11 3.46-5.54 3.46a6.16 6.16 0 0 1-5.54-3.46l-20.01-31.84h-.35v42.22c0 3.81-2.08 6.57-5.88 6.57s-5.88-2.42-5.88-6.57V490.4c0-4.84 2.77-8.3 8-8.3 3.11 0 5.88 1.38 8 4.84l21.45 35.3 22.15-35.64c2.08-3.81 4.84-4.84 8-4.84 4.72-.01 7.48 3.45 7.48 8.29Zm82.36 49.48c3.81 0 5.88 2.08 5.88 5.54s-2.42 5.54-5.88 5.54h-45c-4.15 0-6.57-2.42-6.57-6.57v-55.37c0-4.15 2.42-6.57 6.57-6.57h45c3.81 0 5.88 2.08 5.88 5.54s-2.42 5.54-5.88 5.54h-39.41v17.3H410c3.81 0 5.88 2.08 5.88 5.54s-2.08 5.54-5.88 5.54h-31.82v17.65h39.45Zm85.47-14.88c3.46 0 5.88 1.73 5.88 5.19a5.55 5.55 0 0 1-5.88 5.54h-4.84v9.34c0 4.15-2.42 6.23-5.88 6.23-3.81 0-5.88-2.42-5.88-6.23v-9.34h-31.81c-3.81 0-6.23-2.42-6.23-5.88a7.63 7.63 0 0 1 2.08-5.19l34.6-39.45a7.86 7.86 0 0 1 6.23-3.11c4.15 0 6.92 3.11 6.92 7.61v35.3Zm-16.61 0V499L464 524.65Zm252.6-74.05c-6.23-5.54-21.45-19-37.37-15.57-17.65 3.81-25.26 26-30.8 41.87-8 22.84-22.84 65.05 2.08 92.39 15.57 17 44.29 26 66.09 15.57 33.57-16.61 27.34-70.59 26.3-79.24s-4.46-35.62-26.26-55.02Zm-17 74.4H699v18c0 4.15-2.42 6.92-6.57 6.92s-6.57-2.42-6.57-6.92v-55.72a6.54 6.54 0 0 1 6.92-6.92h29.41c15.23 0 23.53 8 23.53 22.15-.05 14.49-8.36 22.49-23.58 22.49Zm-1.38-32.18H699v20.42h22.1q11.42 0 11.42-10.38c0-6.58-4.15-10.39-11.77-10.04Zm175.09 15.57c-1.73-24.57-15.57-56.75-43.25-68.51-27-11.42-53.64 2.77-66.09 21.8-24.91 38.76-.69 113.5 34.26 126 33.32 11.37 78.32-30.5 75.17-79.29ZM834.94 552c-13.15 0-23.53-3.81-29.07-10.38a8.27 8.27 0 0 1-1.73-4.84 5.81 5.81 0 0 1 6.23-6.23 5.52 5.52 0 0 1 4.15 1.38c5.19 5.19 12.46 7.61 21.45 7.61 10 0 15.92-3.81 15.92-10s-6.23-7.27-17.65-7.61c-21.11-.35-29.07-5.88-29.07-19.38S817 480 834.94 480c10.38 0 19 2.77 25.26 8.3a7 7 0 0 1 2.08 5.19 5.55 5.55 0 0 1-5.54 5.88 8.07 8.07 0 0 1-4.84-1.37 28.8 28.8 0 0 0-18-5.88c-9.34 0-15.57 4.15-15.57 10 0 5.54 5.54 6.92 17 6.92 21.42.39 29.67 5.96 29.67 20.46 0 14.19-10.68 22.5-30.06 22.5ZM639.09 444.72c-19.38-17.3-74.74-4.84-96.89 32.87-15.92 27-16.26 69.55 11.07 92.39 18 14.88 46.71 20.07 66.09 8.65 14.53-8.65 20.07-30.8 30.8-74.74 1.38-5.88 3.46-14.88 2.08-26.3-.35-2.77-2.77-23.53-13.15-32.87Zm-14.88 46-25.61 55c-1.38 3.46-4.15 5.54-7.61 5.54s-6.23-2.08-8-5.54l-25.61-55a15.24 15.24 0 0 1-.69-3.46 6.36 6.36 0 0 1 6.57-6.57 6.74 6.74 0 0 1 5.88 4.15L591 532.61l21.8-47.41c1-3.11 3.11-4.5 5.88-4.5 3.81 0 6.57 2.77 6.23 6.23a7.45 7.45 0 0 1-.7 3.81Z" style="fill:#fff"/>
</svg>
