<svg xmlns="http://www.w3.org/2000/svg" viewBox="0 0 1024 1024" style="enable-background:new 0 0 1024 1024" xml:space="preserve">
   <style>
      .st1{fill:#fff}
   </style>
   <g id="Icon">
      <circle id="Background" cx="512" cy="512" r="512" style="fill:#0ae"/>
      <g id="Logo" transform="translate(5.443 -18.912) scale(7.06815)">
         <path id="path10" class="st1" d="M56.5 59.9c-2.3 0-3.9-1.9-3.9-4.1 0-2.3 1.6-4.1 3.9-4.1s3.9 1.9 3.9 4.1c0 2.2-1.6 4.1-3.9 4.1z"/>
         <path id="path12" class="st1" d="M81.8 87.9h-4c-.8 0-1.4-.6-1.4-1.4V69.8c0-1.3-.5-2.2-2.2-2.2-2.3 0-3.9 2.2-3.9 5.2v13.7c0 .8-.6 1.4-1.4 1.4h-4c-.8 0-1.4-.6-1.4-1.4V63.6c0-.8.6-1.4 1.4-1.4h3c.9 0 1.3.5 1.4 1.3l.4 1.7c2-2.2 4.2-3.3 6.9-3.3 3.9 0 6.5 2.6 6.5 6.6v18c.1.7-.5 1.4-1.3 1.4z"/>
         <path id="path14" class="st1" d="M96.7 98.6c-5.6 0-11-1.9-11.2-8 0-.8.6-1.5 1.4-1.5l3.8.1c.9 0 1.1.5 1.3 1.3.5 2.1 2.7 2.7 4.8 2.7 3.4 0 5-1.4 5-3.1 0-1.8-.7-2.3-3.3-2.3H93c-2.8 0-6.2-.9-6.2-4.8 0-1.7.9-3.1 2.1-4.2-2.2-1.6-3.5-4.2-3.5-7.5 0-6.1 4-9.6 10.1-9.6 1.1 0 2.2.2 3.3.2h6.2c1.2 0 1.6.5 1.6 1.5v1.7c0 1.2-.3 1.4-1 1.5l-1.4.3c.8 1.3 1.4 2.6 1.4 4.3 0 5.8-3.8 9.6-10.2 9.6-.9 0-1.7-.1-2.4-.3-.2.4-.3.5-.3 1 0 .9.9 1 1.7 1h4.9c5.2 0 8.5 2.3 8.5 7.1.1 7-6.3 9-11.1 9zm-1-31.6c-2 0-3.5.6-3.5 4.4 0 4 1.6 4.6 3.5 4.6 1.8 0 3.6-.8 3.6-4.6-.1-3.8-1.7-4.4-3.6-4.4z"/>
         <path id="path16" class="st1" d="M58.6 62.2H46.4v-7.5c0-.8-.6-1.4-1.4-1.4h-4c-.8 0-1.4.6-1.4 1.4v7.5h-2.7c-.8 0-1.4.7-1.4 1.4v2.3c0 .8.6 1.4 1.4 1.4h2.7v14.4c0 4 1.7 6.5 6.1 6.5 1.9 0 3.8-.3 5.1-.7.7-.2 1-.7.9-1.4l-.7-3.3c-.1-.9-.7-1.2-1.5-1-.4.1-1.1.1-1.5.1-1 0-1.6-.6-1.6-2V67.4h6.9v19.1c0 .8.6 1.4 1.4 1.4h4c.8 0 1.4-.6 1.4-1.4V63.6c0-.8-.7-1.4-1.5-1.4z"/>
      </g>
   </g>
</svg>
