<?xml version="1.0" encoding="utf-8"?>
<!-- Generator: Adobe Illustrator 21.0.0, SVG Export Plug-In . SVG Version: 6.00 Build 0)  -->
<svg version="1.1" xmlns="http://www.w3.org/2000/svg" xmlns:xlink="http://www.w3.org/1999/xlink" x="0px" y="0px"
	 viewBox="0 0 1024 1024" style="enable-background:new 0 0 1024 1024;" xml:space="preserve">
<style type="text/css">
	.st0{fill:#00AAEE;}
	.st1{fill:#FFFFFF;}
</style>
<g id="Min_Guides__x28_DO_NOT_REMOVE_x29_">
</g>
<g id="Max_Guides__x28_DO_NOT_REMOVE_x29_">
</g>
<g id="Icon">
	<circle id="Background" class="st0" cx="512" cy="512" r="512"/>
	<g id="Logo" transform="matrix(7.0681548,0,0,7.0681548,5.442857,-18.911664)">
		<path id="path10" class="st1" d="M56.5,59.9c-2.3,0-3.9-1.9-3.9-4.1c0-2.3,1.6-4.1,3.9-4.1c2.3,0,3.9,1.9,3.9,4.1
			C60.4,58,58.8,59.9,56.5,59.9z"/>
		<path id="path12" class="st1" d="M81.8,87.9h-4c-0.8,0-1.4-0.6-1.4-1.4V69.8c0-1.3-0.5-2.2-2.2-2.2c-2.3,0-3.9,2.2-3.9,5.2v13.7
			c0,0.8-0.6,1.4-1.4,1.4h-4c-0.8,0-1.4-0.6-1.4-1.4V63.6c0-0.8,0.6-1.4,1.4-1.4h3c0.9,0,1.3,0.5,1.4,1.3l0.4,1.7
			c2-2.2,4.2-3.3,6.9-3.3c3.9,0,6.5,2.6,6.5,6.6v18C83.2,87.2,82.6,87.9,81.8,87.9L81.8,87.9z"/>
		<path id="path14" class="st1" d="M96.7,98.6c-5.6,0-11-1.9-11.2-8c0-0.8,0.6-1.5,1.4-1.5l3.8,0.1c0.9,0,1.1,0.5,1.3,1.3
			c0.5,2.1,2.7,2.7,4.8,2.7c3.4,0,5-1.4,5-3.1c0-1.8-0.7-2.3-3.3-2.3H93c-2.8,0-6.2-0.9-6.2-4.8c0-1.7,0.9-3.1,2.1-4.2
			c-2.2-1.6-3.5-4.2-3.5-7.5c0-6.1,4-9.6,10.1-9.6c1.1,0,2.2,0.2,3.3,0.2h6.2c1.2,0,1.6,0.5,1.6,1.5v1.7c0,1.2-0.3,1.4-1,1.5
			l-1.4,0.3c0.8,1.3,1.4,2.6,1.4,4.3c0,5.8-3.8,9.6-10.2,9.6c-0.9,0-1.7-0.1-2.4-0.3c-0.2,0.4-0.3,0.5-0.3,1c0,0.9,0.9,1,1.7,1h4.9
			c5.2,0,8.5,2.3,8.5,7.1C107.9,96.6,101.5,98.6,96.7,98.6L96.7,98.6z M95.7,67c-2,0-3.5,0.6-3.5,4.4c0,4,1.6,4.6,3.5,4.6
			c1.8,0,3.6-0.8,3.6-4.6C99.2,67.6,97.6,67,95.7,67z"/>
		<path id="path16" class="st1" d="M58.6,62.2H46.4v-7.5c0-0.8-0.6-1.4-1.4-1.4h-4c-0.8,0-1.4,0.6-1.4,1.4v7.5h-2.7
			c-0.8,0-1.4,0.7-1.4,1.4v2.3c0,0.8,0.6,1.4,1.4,1.4h2.7v14.4c0,4,1.7,6.5,6.1,6.5c1.9,0,3.8-0.3,5.1-0.7c0.7-0.2,1-0.7,0.9-1.4
			L51,82.8c-0.1-0.9-0.7-1.2-1.5-1c-0.4,0.1-1.1,0.1-1.5,0.1c-1,0-1.6-0.6-1.6-2V67.4h6.9v19.1c0,0.8,0.6,1.4,1.4,1.4h4
			c0.8,0,1.4-0.6,1.4-1.4V63.6C60.1,62.8,59.4,62.2,58.6,62.2z"/>
	</g>
</g>
</svg>
