<svg xmlns="http://www.w3.org/2000/svg" viewBox="0 0 1024 1024">
   <circle cx="512" cy="512" r="512" style="fill:#e3712d"/>
   <path d="M445.53 673.29c-12.46 26.24-38.78 44.38-69.34 44.38-42.56 0-77.06-35.12-77.06-78.44s34.5-78.44 77.06-78.44a76 76 0 0 1 52.68 21.3c-5.06 38.28-2.06 69.91 16.66 91.2Zm230.76-222.11-79.51.52-8.25 34.47C649.39 553.31 689 638 689 725.11l90.07.23c.02-96.11-39.87-192.88-102.78-274.16Zm-240.73 93.63c5.64-25.56 13.36-53.16 21.43-82l2-7.34.94-3.37-7.13-.18-32.22-.79a7 7 0 0 1-6.5-9l1.72-5.74.56-2.44c-39.24-16.92-79.31-26.66-115.49-27.71l-2 91c54.59-1.74 100.13 18.47 136.69 47.57ZM430.7 371.1a7 7 0 0 1 6.55-5.42l48.54-1.61 17.29-62.56c-64.26-35.73-134.06-56.86-203-56.86l-.61 101.67c44 .24 88.34 10.17 130.56 27.55Zm189.46 318.34c-29.56 6.36-55.28 10.12-77.55 11.33 3.27 10.3 5 18.55 5.07 23.59l74.81.87a230.67 230.67 0 0 0 .41-37.14 6.86 6.86 0 0 1-2.74 1.35Zm-55.4-103.89c-4.61 15.53 1.16 19.51 3 20.82 7.64 5.27 22.28 4.6 35.33 2.12A281.35 281.35 0 0 0 572.08 555Zm51.92 62.65c2.06-13.45 3.71-23.14 5.14-30.14a135.17 135.17 0 0 1-13.36 3.59c-16.58 3.6-36.33 4.61-48.55-3.82-7.29-5-14.69-15.34-8.58-35.88l9.81-41 16-66.89 7.38-30.86a7 7 0 0 1 6.72-5.34l73.89-.49 10.45-.07 11.59-57.95-74.68-2.69a7 7 0 0 1-6.58-8.29l16.51-84.71L517 303.58l-1.38 5-17.73 64.16a7 7 0 0 1-6.48 5.11l-48.28 1.6-13.19 58 39.36 1a7 7 0 0 1 6.54 8.82l-4.38 15.7-1 3.63c-8.8 31.46-17.12 61.34-22.77 88.4a348.23 348.23 0 0 0-6.5 42.15c-2 24.67.41 45.33 9.92 60.45a51.08 51.08 0 0 0 6 7.9c15 15.95 41.7 23.07 80.7 21.54 21.23-.83 46.05-4.19 74.74-10.18 1.5-11.1 2.89-20.56 4.13-28.66Z" style="fill:#fff"/>
</svg>
