<svg xmlns="http://www.w3.org/2000/svg" viewBox="0 0 1024 1024">
   <circle cx="512" cy="512" r="512" style="fill:#1aa64a"/>
   <path d="M443.27 563.34c-10.64 0-21.26-.07-31.89 0-19 .17 46.1 91.43 93.29 102.19 10.44 2.37 16.15 7.15 16.22 17.86.09 22.5.36 45-.12 67.47-.26 12.83-7.92 18.8-20.06 16.74-90.05-15.24-156.16-63.06-196.71-145.24a257.08 257.08 0 0 1-14.26-36.41c-6.64-21-7.19-21.85-29.81-22.67-27.32-1-45.62-15.18-51.58-40.16-7-29 15-58.87 44.9-60.74a96.35 96.35 0 0 1 12.27-.12c12.8.78 19.87-5.87 23-17.59 7.45-28.76 20.42-55 37.08-79.48 13.73-20.19 21.09-21.13 38.2-4.19 13.05 13 25.94 26.08 39.11 39 8.56 8.33 10.58 16.84 3.07 27.1a103.56 103.56 0 0 0-9.64 17c-5.77 12.18-2.35 17.85 11.1 18 24.14.26 48.29-.07 72.4.15 25.71.29 44.3 15.87 50.36 41.75 4.79 20.55-7.09 45.73-28.95 53.88-12.88 4.84-27.93 4-42 5.38-5.27.5-10.63.07-15.95.07M550.08 256c-64.73-1.13-123 17.55-164.89 49.16-13.39 10.08-14.15 18.28-2.48 30.14q19.75 20.08 39.74 40c12.44 12.36 17.18 13 32.08 4 33.93-20.47 70.54-27.78 109.48-20.69 47.27 8.62 82.74 34.71 108 75.44 16.88 27.16 46.4 33.63 73.14 16.88 24.71-15.51 29.48-41.57 12.16-69.31-50.4-80.86-123.76-121.85-207.23-125.62m3.44 460.61c0 11-.26 22.06 0 33.07.3 13.54 7.07 18.82 20.6 16.87a249.63 249.63 0 0 0 106.19-41.24c35-23.83 63-54.21 82.51-92 6-11.71 7.08-24.22 1.6-36.64-8-18.07-22.84-27.48-41.56-30.33-20.79-3.18-38 4-49.16 22.35-25 41.26-60.3 67.81-107.79 77.86-8 1.69-12.48 7.07-12.42 15.76v34.28Z" style="fill:#fff"/>
</svg>
