<?xml version="1.0" encoding="UTF-8" standalone="no"?>
<!DOCTYPE svg PUBLIC "-//W3C//DTD SVG 1.1//EN" "http://www.w3.org/Graphics/SVG/1.1/DTD/svg11.dtd">
<svg width="100%" height="100%" viewBox="0 0 1024 1024" version="1.1" xmlns="http://www.w3.org/2000/svg" xmlns:xlink="http://www.w3.org/1999/xlink" xml:space="preserve" xmlns:serif="http://www.serif.com/" style="fill-rule:evenodd;clip-rule:evenodd;stroke-linejoin:round;stroke-miterlimit:2;">
    <g id="Icon">
        <circle cx="512" cy="512" r="512" style="fill:rgb(65,182,72);"/>
        <g id="path4284" transform="matrix(0.564105,0,0,0.564105,262,229.947)">
            <path d="M443.374,231.102C490.385,207.605 547.421,194.789 599.603,190.273L658.255,185.17C722.489,179.643 786.776,183.031 851.088,183.031L886.359,183.031L886.359,706.132C886.359,867.801 754.16,1000 592.435,1000L0,1000L0,183.028L35.247,183.028C99.639,183.028 163.678,178.802 228.055,183.791L286.691,188.23C342.388,192.412 393.386,205.923 443.374,231.102Z" style="fill:white;"/>
        </g>
        <g id="path4294" transform="matrix(0.564105,0,0,0.564105,262,229.947)">
            <path d="M661.306,195.886C650.098,85.785 557.055,0 444.094,0C331.177,0 238.184,85.049 225.384,194.514L284.03,198.984C294.394,119.928 361.781,58.8 443.869,58.8C525.92,58.8 593.894,120.967 602.645,200.937L661.306,195.886Z" style="fill:white;"/>
        </g>
        <g id="path4296" transform="matrix(0.564105,0,0,0.564105,262,229.947)">
            <path d="M538.565,731.054C513.009,758.076 487.486,785.116 461.942,812.181L443.155,832.093L424.386,812.181C398.839,785.163 373.31,758.076 347.769,731.054L334.537,717.009L344.196,700.33C364.693,664.996 403.015,645.987 443.149,645.987C483.326,645.987 521.614,664.993 542.117,700.33L551.794,717.006L538.565,731.054Z" style="fill:white;"/>
        </g>
        <g id="path4298" transform="matrix(0.564105,0,0,0.564105,262,229.947)">
            <path d="M519.75,713.328C494.258,740.374 468.68,767.386 443.152,794.448C417.626,767.386 392.079,740.374 366.538,713.328C382.67,685.518 412.949,671.778 443.152,671.825C473.36,671.775 503.637,685.518 519.75,713.328Z" style="fill:rgb(65,182,72);"/>
        </g>
        <g id="path4302" transform="matrix(0.564105,0,0,0.564105,262,229.947)">
            <path d="M251.726,320.031C366.161,320.031 458.968,412.894 458.968,527.274C458.968,641.706 366.161,734.523 251.726,734.523C137.281,734.523 44.517,641.703 44.517,527.274C44.517,412.894 137.281,320.031 251.726,320.031Z" style="fill:white;"/>
        </g>
        <g id="path4304" transform="matrix(0.564105,0,0,0.564105,262,229.947)">
            <path d="M251.726,355.29C346.706,355.29 423.725,432.318 423.725,527.274C423.725,622.235 346.706,699.26 251.726,699.26C156.72,699.26 79.742,622.235 79.742,527.274C79.745,432.321 156.72,355.293 251.726,355.29Z" style="fill:rgb(65,182,72);"/>
        </g>
        <g id="path4306" transform="matrix(0.564105,0,0,0.564105,262,229.947)">
            <path d="M251.726,355.29C330.107,355.29 396.261,407.769 416.983,479.48C396.261,551.173 330.11,603.646 251.726,603.646C173.313,603.646 107.227,551.17 86.508,479.48C107.23,407.769 173.313,355.293 251.726,355.29Z" style="fill:rgb(65,182,72);"/>
        </g>
        <g id="path4308" transform="matrix(0.564105,0,0,0.564105,262,229.947)">
            <path d="M634.59,320.031C749.05,320.031 841.815,412.894 841.815,527.274C841.815,641.706 749.05,734.523 634.59,734.523C520.152,734.523 427.338,641.749 427.338,527.274C427.341,412.894 520.152,320.031 634.59,320.031Z" style="fill:white;"/>
        </g>
        <g id="path4310" transform="matrix(0.564105,0,0,0.564105,262,229.947)">
            <path d="M634.59,355.29C729.568,355.29 806.589,432.318 806.589,527.274C806.589,622.235 729.568,699.26 634.59,699.26C539.613,699.26 462.616,622.235 462.616,527.274C462.619,432.321 539.616,355.293 634.59,355.29Z" style="fill:rgb(65,182,72);"/>
        </g>
        <g id="path4312" transform="matrix(0.564105,0,0,0.564105,262,229.947)">
            <path d="M634.59,355.29C712.96,355.29 779.12,407.769 799.805,479.48C779.123,551.173 712.957,603.646 634.59,603.646C556.184,603.646 490.055,551.17 469.326,479.48C490.058,407.769 556.184,355.293 634.59,355.29Z" style="fill:rgb(65,182,72);"/>
        </g>
        <g id="path4314" transform="matrix(0.564105,0,0,0.564105,262,229.947)">
            <path d="M273.341,420.325C334.679,420.325 384.438,470.053 384.438,531.332C384.438,592.707 334.679,642.432 273.341,642.432C211.966,642.432 162.25,592.707 162.25,531.332C162.25,510.888 167.814,491.736 177.467,475.27C185.399,494.883 204.581,508.644 227.072,508.644C256.603,508.644 280.586,484.747 280.586,455.194C280.586,441.897 275.733,429.758 267.746,420.439C269.592,420.325 271.486,420.325 273.341,420.325Z" style="fill:white;"/>
        </g>
        <g id="path4316" transform="matrix(0.564105,0,0,0.564105,262,229.947)">
            <path d="M612.941,420.325C674.334,420.325 724.063,470.053 724.063,531.332C724.063,592.707 674.334,642.432 612.938,642.432C551.624,642.432 501.896,592.707 501.896,531.332C501.896,510.888 507.426,491.736 517.061,475.27C525.029,494.883 544.249,508.644 566.712,508.644C596.252,508.644 620.195,484.747 620.195,455.194C620.195,441.897 615.389,429.758 607.377,420.439C609.247,420.325 611.083,420.325 612.941,420.325Z" style="fill:white;"/>
        </g>
    </g>
</svg>
