<?xml version="1.0" encoding="utf-8"?>
<!-- Generator: Adobe Illustrator 21.0.0, SVG Export Plug-In . SVG Version: 6.00 Build 0)  -->
<svg version="1.1" xmlns="http://www.w3.org/2000/svg" xmlns:xlink="http://www.w3.org/1999/xlink" x="0px" y="0px"
	 viewBox="0 0 1024 1024" style="enable-background:new 0 0 1024 1024;" xml:space="preserve">
<style type="text/css">
	.st0{fill:#42B549;}
	.st1{fill:#FFFFFF;}
</style>
<g id="Min_Guides__x28_DO_NOT_REMOVE_x29_">
</g>
<g id="Max_Guides__x28_DO_NOT_REMOVE_x29_">
</g>
<g id="Icon">
	<circle id="Background_1_" class="st0" cx="512" cy="512" r="512"/>
	<path class="st1" d="M620.4,326.4c-5.6-56.4-51.8-100.3-108-100.3c-56.1,0-102.3,43.5-108.7,99.6l29.1,2.3
		c5.2-40.5,38.6-71.8,79.4-71.8c40.8,0,74.6,31.8,78.9,72.8L620.4,326.4z M714.7,319.9c-32,0-63.9-1.7-95.8,1.1l-29.1,2.6
		c-25.9,2.3-54.3,8.9-77.6,20.9c-24.8-12.9-50.2-19.8-77.9-22l-29.1-2.3c-32-2.6-63.8-0.4-95.8-0.4h-17.5v418.3h294.4
		c80.4,0,146.1-67.7,146.1-150.5V319.9H714.7z M331.4,496.1c0-48.6,38.3-88.1,85.5-88.1c47.2,0,85.5,39.4,85.5,88.1
		c0,48.6-38.3,88.1-85.5,88.1C369.6,584.2,331.4,544.7,331.4,496.1z M512,632.9c-12.7-13.9-25.4-27.7-38.1-41.5
		c8-14.2,23.1-21.3,38.1-21.2c15,0,30.1,7,38.1,21.2C537.4,605.2,524.7,619,512,632.9z M607.1,584.2c-47.2,0-85.5-39.4-85.5-88.1
		c0-48.6,38.3-88.1,85.5-88.1c47.2,0,85.5,39.4,85.5,88.1C692.6,544.7,654.3,584.2,607.1,584.2z M427.6,441.4
		c30.5,0,55.2,25.5,55.2,56.8c0,31.4-24.7,56.9-55.2,56.9c-30.5,0-55.2-25.5-55.2-56.9c0-10.5,2.8-20.3,7.6-28.7
		c3.9,10,13.5,17.1,24.7,17.1c14.7,0,26.6-12.2,26.6-27.4c0-6.8-2.4-13-6.4-17.8C425.7,441.4,426.7,441.4,427.6,441.4z M596.4,441.4
		c30.5,0,55.2,25.5,55.2,56.8c0,31.4-24.7,56.9-55.2,56.9c-30.5,0-55.2-25.5-55.2-56.9c0-10.5,2.7-20.3,7.5-28.7
		c4,10,13.5,17.1,24.7,17.1c14.7,0,26.6-12.2,26.6-27.4c0-6.8-2.4-13-6.4-17.8C594.5,441.4,595.4,441.4,596.4,441.4z"/>
</g>
</svg>
