<svg xmlns="http://www.w3.org/2000/svg" viewBox="0 0 1024 1024">
   <circle cx="512" cy="512" r="512" style="fill:#d8383b"/>
   <path d="M684.11 281.5v55.38A20.32 20.32 0 0 1 663.54 357h-12.71c-8.64 0-18.29-5.33-19.05-11.43s-8.89-15.5-25.4-15.24c-25.4 0-41.41 14-41.16 26.67v21.34h-74.69v-22.66c0-23.37-25.4-25.4-25.4-25.4a172.5 172.5 0 0 0-113.3 45.47l-11.94-11.43C411.28 248.73 486.73 256.1 512.13 256.1H566c13.21 0 25.4 25.4 45.22 27.44a32.52 32.52 0 0 0 22.1-8.13 18 18 0 0 1 19.05-15.5H664a20.58 20.58 0 0 1 20.07 20.83m-194.3 127.78 74.23 2.29 10.67 330.26A27.44 27.44 0 0 1 546.69 768h-40.15a27.44 27.44 0 0 1-27-27.88q0-.67.05-1.33Z" style="fill:#fff"/>
</svg>
