<svg xmlns="http://www.w3.org/2000/svg" viewBox="0 0 1024 1024">
   <circle cx="512" cy="512" r="512" style="fill:#1a5493"/>
   <path d="M527.14 209c-16.36-.28-33.07 2.89-47.46 10.89-16.6 9.09-29 24.31-38 40.72-12.53 22.43-18.55 49.45-12.7 74.79 6.21-5.63 9.87-13.4 15.28-19.72 23.17-29 63.82-43.92 99.88-33.39 2.6-21.25 3.6-42.79 1.6-64.13a21.53 21.53 0 0 0-.81-5.08c-5.31-3.26-11.79-3.76-17.79-4.08Zm87.57 41.1a7.45 7.45 0 0 0-5.59 1.66c-18.53 14-30.79 35.44-35.62 58-.29 2.93-1.8 8.16 2.15 9.1a140.24 140.24 0 0 1 40.82 22c23 17.6 42 42.34 47.32 71.34 1.62 7.73 1.94 16.37 7.07 22.79 4-4 6.13-9.35 7.71-14.65 3.1-11 3.89-22.5 4.16-33.88.15-22-1.82-44.18-7.34-65.54-4.14-15.74-10.44-31.14-20.27-44.21a75 75 0 0 0-34.48-25.33 26.89 26.89 0 0 0-5.93-1.26Zm-177 119.28a77.2 77.2 0 0 0-11.56 1.08c-21.66 3.24-41.37 14.41-57.55 28.84-18 16.29-31.84 36.82-42.51 58.54-15.62 32.45-24.74 67.82-28.62 103.57-4.3 36.81 2.29 75.06 19.63 107.89 13.43 25.1 34 47.11 60.15 59 19.76 8.93 42.43 11.93 63.65 6.93 24.12-5.11 45.57-19.39 61.75-37.72 11.63 15.93 26.73 29.68 44.63 38.25 17.77 8.36 38.24 11.62 57.53 7.22 23.15-4.58 43.54-19 58.12-37.23 15.67-19.37 25.65-42.84 31.19-67a217.9 217.9 0 0 0-3.66-111.92c-8.36-27.26-22.57-53.4-44.07-72.5-15.31-14.09-35.19-23.39-56-25.09a101.63 101.63 0 0 0-68.13 20.42c-4-16.67-9.87-33.1-19.16-47.6-7.53-11.72-18-22-31.21-27a102.75 102.75 0 0 0-34.14-5.66ZM471.49 478a26.45 26.45 0 0 1 14.62 4.53 20.64 20.64 0 0 1 6 8.23s-9.09 20.71-12.33 31.52c-3.48 11.59-7.57 35.5-7.57 35.5-2.63-1.81-5.25-3.62-7.9-5.38-12-8.19-24.13-16.28-36.15-24.48 4.55-12.36 10.22-24.49 18.41-34.88 5.18-6.36 11.61-12.36 19.79-14.38a21.32 21.32 0 0 1 5.13-.66ZM562 526a15.59 15.59 0 0 1 2.81.29c9.78 1.85 17.08 9.62 22.43 17.53a86.72 86.72 0 0 1 13 52.82c-1 10.16-4 21.21-12.28 27.88-6 4.92-14.78 4.73-21.22.8-11.5-6.72-18.43-19-23-31.15 12.57-6.71 25.19-13.28 37.75-20-14.19-.41-28.39-.69-42.57-1.19-1.12-12.78-.22-26.63 6.95-37.69 3.45-5.4 9.62-9.35 16.13-9.29Zm-139.87 26.31c13.09 2.39 26.12 5 39.17 7.61l10.59 2.1s-.93 17.68-.59 26.52c.28 7.31 2.17 21.82 2.17 21.82s-2.2 3.43-3.32 5.13a45 45 0 0 1-6.39 5.87 20.44 20.44 0 0 1-16.76 1.73c-11-3-19-12.46-22.79-22.9-5.48-15.33-4.62-32.05-2.08-47.88Z" style="fill:#fff"/>
</svg>
