<svg viewBox="0 0 1024 1024" xmlns="http://www.w3.org/2000/svg">
   <circle cx="512" cy="512" r="512" fill="#1a5493"/>
   <path d="M479.68 219.91c14.39-8 31.1-11.17 47.46-10.89 6 .3 12.48.8 17.75 4.08a21.53 21.53 0 0 1 .81 5.08c2 21.34 1 42.88-1.6 64.13-36.06-10.53-76.71 4.42-99.88 33.39-5.41 6.32-9.07 14.09-15.28 19.72-5.85-25.34.17-52.36 12.7-74.79 9.02-16.41 21.44-31.63 38.04-40.72zm93.81 89.86c-.29 2.93-1.8 8.16 2.15 9.1a140.24 140.24 0 0 1 40.82 22c23 17.6 42 42.34 47.32 71.34 1.62 7.73 1.94 16.37 7.07 22.79 4-4 6.13-9.35 7.71-14.65 3.1-11 3.89-22.5 4.16-33.88.15-22-1.82-44.18-7.34-65.54-4.14-15.74-10.44-31.14-20.27-44.21a75 75 0 0 0-34.48-25.33c-3.66-1.09-8.3-2.43-11.51.39-18.53 14.02-30.79 35.44-35.62 57.99zm120.67 329c-5.54 24.16-15.52 47.63-31.19 67C648.39 724 628 738.42 604.85 743c-19.29 4.4-39.76 1.14-57.53-7.22-17.9-8.57-33-22.32-44.63-38.25-16.18 18.33-37.63 32.61-61.75 37.72-21.22 5-43.89 2-63.65-6.93-26.19-11.89-46.72-33.9-60.15-59-17.34-32.83-23.93-71.08-19.63-107.89 3.88-35.75 13-71.12 28.62-103.57 10.67-21.72 24.46-42.25 42.51-58.54 16.18-14.43 35.89-25.6 57.55-28.84 15.33-2.63 31.1-.3 45.75 4.57 13.2 4.95 23.68 15.28 31.21 27 9.29 14.5 15.11 30.93 19.16 47.6a101.63 101.63 0 0 1 68.13-20.42c20.81 1.7 40.69 11 56 25.09 21.5 19.1 35.71 45.24 44.07 72.5a217.9 217.9 0 0 1 3.66 111.92zM499.3 684.59c-1.14-1.81-2.26-3.63-3.33-5.48-1.46-2.73-3-5.42-4.41-8.14-1.08-2.56-2.16-5.12-3.37-7.61a211.55 211.55 0 0 1-14.72-53c-1.11 1.7-2.2 3.43-3.32 5.13a45 45 0 0 1-6.39 5.87 20.44 20.44 0 0 1-16.76 1.73c-11-3-19-12.46-22.79-22.9-5.48-15.33-4.62-32.05-2.08-47.88 13.09 2.39 26.12 5 39.17 7.61 3.54.7 7.06 1.37 10.59 2.1.09-1.06.24-3.17.32-4.23-2.63-1.81-5.25-3.62-7.9-5.38-12-8.19-24.13-16.28-36.15-24.48 4.55-12.36 10.22-24.49 18.41-34.88 5.18-6.36 11.61-12.36 19.79-14.38 6.76-1.74 14 .07 19.75 3.87a20.64 20.64 0 0 1 6 8.23 131.75 131.75 0 0 1 21.39-30c-1.5-15.77-5.36-31.53-12.62-45.67-5.07-9.94-12-19-21-25.74a52.15 52.15 0 0 0-22-9 84.51 84.51 0 0 0-13-1.19 99.3 99.3 0 0 0-43.47 11.1c-18.09 9-33.67 22.57-46.39 38.18-25.5 31.47-40.69 70.55-46.34 110.55l-.24.06c-1.11 8.84-2 17.71-2.42 26.62-1.26 43.26 8 88.74 34.92 123.61 13 16.65 30.8 30.29 51.51 35.65 19.23 5.28 40 3.27 58.45-4 14.55-5.75 27-15.44 39.22-25 3.88-3.04 7.37-6.71 9.18-11.35zM690 588.25c-.17-36.22-9.82-73-30.73-102.91-15-21.31-36.61-39.09-62.46-44.78a83.22 83.22 0 0 0-24.15-1.56 87.39 87.39 0 0 0-15.08 2.88c-15.29 4.41-28.9 13.65-39.82 25.1-21.3 22.78-32.82 53.19-37.19 83.71-5.45 39.37.07 80.54 17.32 116.47a146.27 146.27 0 0 0 12 20.31c12.22 18.2 29.26 33.73 49.74 42a76.32 76.32 0 0 0 45.58 3.9A81.8 81.8 0 0 0 637 717.32a108.31 108.31 0 0 0 19.53-20.55 151.34 151.34 0 0 0 17.24-29.56 175 175 0 0 0 10.73-31.88 193.69 193.69 0 0 0 5.5-47.08zM538.92 573c14.18.5 28.38.78 42.57 1.19-12.56 6.72-25.18 13.29-37.75 20 4.57 12.17 11.5 24.43 23 31.15 6.44 3.93 15.25 4.12 21.22-.8 8.29-6.67 11.26-17.72 12.28-27.88a86.72 86.72 0 0 0-13-52.82c-5.35-7.91-12.65-15.68-22.43-17.53-7.5-1.47-15 2.81-18.94 9-7.17 11.06-8.07 24.91-6.95 37.69z"/>
   <path d="m444 379.24c-23.097 0.44325-45.264 10.23-63.399 24.121-32.201 25.796-53.874 62.949-64.873 102.39-6.2173 22.172-9.9984 45.146-9.4894 68.226-0.35797 18.336 1.6917 36.672 6.1714 54.457 7.476 30.542 22.765 60.277 47.651 80.182 17.264 13.573 39.616 20.963 61.61 18.848 22.45-0.93866 43.148-11.693 60.505-25.348 6.2998-5.1731 14.367-9.6048 17.139-17.753-13.456-21.379-20.859-46.032-25.455-70.713-5e-3 -1.1636-0.97493-2.5707-1.7996-0.95154-4.427 6.6734-11.926 12.296-20.313 11.172-14.511-1.4865-25.285-14.322-28.749-27.841-3.5018-11.838-2.4885-24.448-1.8216-36.627 0.39175-2.2642 0.1803-4.9386 1.4681-6.8844 16.35 2.8498 32.715 6.4411 49.026 9.3789 0.92002-1.5411 1.0304-4.6772-1.0252-5.3344-14.13-9.5424-28.26-19.084-42.39-28.626 6.1167-16.038 13.68-32.613 27.351-43.635 7.1368-5.9236 17.33-7.9888 25.899-4.1478 4.7547 1.6773 7.7093 5.833 10.558 9.7038 2.4307-2.054 3.6268-5.8362 5.6174-8.4913 4.6294-7.3163 9.9923-14.192 15.854-20.526-2.3356-24.359-10.414-49.505-28.36-66.903-10.788-10.747-26.287-14.904-41.177-14.695z" fill="#fff"/>
   <path d="m578.11 438.82c-23.873 0.172-46.38 12.459-61.98 30.105-22.868 25.439-33.923 59.532-36.833 93.153-1.3447 22.701-0.41541 45.708 5.2725 67.818 8.2819 33.295 25.208 65.792 52.906 86.914 18.936 14.64 44.274 22.382 67.908 16.316 20.622-4.7758 37.768-18.778 50.371-35.323 19.552-25.585 29.854-57.28 33.3-89.037 0.67755-17.187 1.0875-34.55-1.4483-51.614-6.1658-36.234-22.203-72.18-50.706-96.269-16.32-13.879-37.171-22.587-58.79-22.064zm-16.657 87.367c11.784 0.42686 20.747 9.9882 26.642 19.358 10.135 16.399 13.865 36.354 11.507 55.362-1.7432 9.8383-5.6801 20.98-15.272 25.688-8.618 3.912-18.658-0.28405-24.646-6.9515-7.2946-6.664-11.945-15.653-15.438-24.737 5.3717-4.4024 12.122-6.9655 18.1-10.491 5.6538-3.1826 11.756-5.9353 17.086-9.4956-2.7698-1.3052-6.4634-0.58982-9.5385-1.0068-10.308-0.34631-20.613-0.75808-30.916-1.2057-0.80119-13.003-0.11462-27.143 7.6872-38.129 3.372-4.7978 8.7624-8.4794 14.79-8.3921z" fill="#fff"/>
</svg>
