<svg xmlns="http://www.w3.org/2000/svg" viewBox="0 0 1024 1024">
   <circle cx="512" cy="512" r="512" style="fill:#eec239"/>
   <path d="M479.68 219.91c14.39-8 31.1-11.17 47.46-10.89 6 .3 12.48.8 17.75 4.08a21.53 21.53 0 0 1 .81 5.08c2 21.34 1 42.88-1.6 64.13-36.06-10.53-76.71 4.42-99.88 33.39-5.41 6.32-9.07 14.09-15.28 19.72-5.85-25.34.17-52.36 12.7-74.79 9.02-16.41 21.44-31.63 38.04-40.72zm93.81 89.86c-.29 2.93-1.8 8.16 2.15 9.1a140.24 140.24 0 0 1 40.82 22c23 17.6 42 42.34 47.32 71.34 1.62 7.73 1.94 16.37 7.07 22.79 4-4 6.13-9.35 7.71-14.65 3.1-11 3.89-22.5 4.16-33.88.15-22-1.82-44.18-7.34-65.54-4.14-15.74-10.44-31.14-20.27-44.21a75 75 0 0 0-34.48-25.33c-3.66-1.09-8.3-2.43-11.51.39-18.53 14.02-30.79 35.44-35.62 57.99zm120.67 329c-5.54 24.16-15.52 47.63-31.19 67C648.39 724 628 738.42 604.85 743c-19.29 4.4-39.76 1.14-57.53-7.22-17.9-8.57-33-22.32-44.63-38.25-16.18 18.33-37.63 32.61-61.75 37.72-21.22 5-43.89 2-63.65-6.93-26.19-11.89-46.72-33.9-60.15-59-17.34-32.83-23.93-71.08-19.63-107.89 3.88-35.75 13-71.12 28.62-103.57 10.67-21.72 24.46-42.25 42.51-58.54 16.18-14.43 35.89-25.6 57.55-28.84 15.33-2.63 31.1-.3 45.75 4.57 13.2 4.95 23.68 15.28 31.21 27 9.29 14.5 15.11 30.93 19.16 47.6a101.63 101.63 0 0 1 68.13-20.42c20.81 1.7 40.69 11 56 25.09 21.5 19.1 35.71 45.24 44.07 72.5a217.9 217.9 0 0 1 3.66 111.92zM499.3 684.59c-1.14-1.81-2.26-3.63-3.33-5.48-1.46-2.73-3-5.42-4.41-8.14-1.08-2.56-2.16-5.12-3.37-7.61a211.55 211.55 0 0 1-14.72-53c-1.11 1.7-2.2 3.43-3.32 5.13a45 45 0 0 1-6.39 5.87 20.44 20.44 0 0 1-16.76 1.73c-11-3-19-12.46-22.79-22.9-5.48-15.33-4.62-32.05-2.08-47.88 13.09 2.39 26.12 5 39.17 7.61 3.54.7 7.06 1.37 10.59 2.1.09-1.06.24-3.17.32-4.23-2.63-1.81-5.25-3.62-7.9-5.38-12-8.19-24.13-16.28-36.15-24.48 4.55-12.36 10.22-24.49 18.41-34.88 5.18-6.36 11.61-12.36 19.79-14.38 6.76-1.74 14 .07 19.75 3.87a20.64 20.64 0 0 1 6 8.23 131.75 131.75 0 0 1 21.39-30c-1.5-15.77-5.36-31.53-12.62-45.67-5.07-9.94-12-19-21-25.74a52.15 52.15 0 0 0-22-9 84.51 84.51 0 0 0-13-1.19 99.3 99.3 0 0 0-43.47 11.1c-18.09 9-33.67 22.57-46.39 38.18-25.5 31.47-40.69 70.55-46.34 110.55l-.24.06c-1.11 8.84-2 17.71-2.42 26.62-1.26 43.26 8 88.74 34.92 123.61 13 16.65 30.8 30.29 51.51 35.65 19.23 5.28 40 3.27 58.45-4 14.55-5.75 27-15.44 39.22-25 3.88-3.04 7.37-6.71 9.18-11.35zM690 588.25c-.17-36.22-9.82-73-30.73-102.91-15-21.31-36.61-39.09-62.46-44.78a83.22 83.22 0 0 0-24.15-1.56 87.39 87.39 0 0 0-15.08 2.88c-15.29 4.41-28.9 13.65-39.82 25.1-21.3 22.78-32.82 53.19-37.19 83.71-5.45 39.37.07 80.54 17.32 116.47a146.27 146.27 0 0 0 12 20.31c12.22 18.2 29.26 33.73 49.74 42a76.32 76.32 0 0 0 45.58 3.9A81.8 81.8 0 0 0 637 717.32a108.31 108.31 0 0 0 19.53-20.55 151.34 151.34 0 0 0 17.24-29.56 175 175 0 0 0 10.73-31.88 193.69 193.69 0 0 0 5.5-47.08zM538.92 573c14.18.5 28.38.78 42.57 1.19-12.56 6.72-25.18 13.29-37.75 20 4.57 12.17 11.5 24.43 23 31.15 6.44 3.93 15.25 4.12 21.22-.8 8.29-6.67 11.26-17.72 12.28-27.88a86.72 86.72 0 0 0-13-52.82c-5.35-7.91-12.65-15.68-22.43-17.53-7.5-1.47-15 2.81-18.94 9-7.17 11.06-8.07 24.91-6.95 37.69z" style="fill:#fff"/>
</svg>
