<svg xmlns="http://www.w3.org/2000/svg" viewBox="0 0 1024 1024">
   <circle cx="512" cy="512" r="512" style="fill:#94ea01"/>
   <path d="M750 603.7c-12.38-14.78-30.61-23.61-49.56-26.07 0-23.88-9.19-47.52-26.43-64.25-.36-32.2 0-64.4-.15-96.6a163.47 163.47 0 0 0-151.59-160.3c-45.38-3.57-92 12.86-124.71 44.51-31.63 29.68-50.58 72.48-50.85 115.88 0 31-.09 62 .09 92.93 1.41 17-9.91 31.24-12.37 47.67a86.3 86.3 0 0 0-68.36 44s-.6 1.12-1.42 2.76c-.14.29-.31.56-.45.85v.06a66.84 66.84 0 0 0-3.47 8.28 93.65 93.65 0 0 0-3 46.86C264.86 698 300.42 728 339 728.08q177.38.14 354.76 0c27.45.09 54-16.52 66.11-41.09 13.69-26.4 9.9-60.88-9.87-83.29zM401.89 712.37l-24.27.6c4.69-55.87 29.59-109.81 69.8-148.95 24.69-23.7 54.25-42.77 86.89-53.31-1.35 5.17-7 6.58-11 9.13-14 7-26.22 16.85-39.08 25.65-32.53 28-58 64.49-70.46 105.7-6.63 19.81-9.51 40.52-11.88 61.18zm-4.84-301.59c1.56-35.71 21.45-69.86 51.45-89.21a112.93 112.93 0 0 1 90.83-14.39c48.51 12.07 85.45 59.44 84.25 109.6-.15 24.39.18 48.81-.24 73.2a96.3 96.3 0 0 0-46.68 8.29c-26.1-30.52-64.91-50.7-105.4-51-26.22-.69-52.11 7.15-74.55 20.51.29-19.01-.35-38.02.34-57zm54.13 302.5h-16C452 639.87 507.4 577 577.72 550.3c3.57-1.29 7.42-.57 11.14-.51-16.82 8.11-32.23 18.53-47.67 28.89-41.75 33.82-71.34 81.85-81.88 134.59zm174.24-118.74c-14.15 6.88-26 17.3-39 26-28.59 25.29-52 56.74-65.39 92.69h-7.39c-4.87-.06-9.76-.09-14.63-.15 25.08-59.62 76.44-106.78 137.39-128-.56 5.77-6.93 6.79-10.98 9.46zm37.24-174.36q-.42-3.53-1-7.06a184.55 184.55 0 0 0-4.53-20.95 169.11 169.11 0 0 0-9.92-26.77q-3-6.45-6.67-12.59t-7.83-11.88a135.31 135.31 0 0 0-9-11 129 129 0 0 0-10.23-10.06 183.33 183.33 0 0 0-22-16.65c-23.32-15-50.29-24.58-78.12-24.38-42.65-2-84.07 18.32-113.84 48-23.67 25.56-36.94 59.38-41.15 93.68-1-41 15-82.36 44.42-111.07 28.11-28.35 67.85-44.48 107.74-44.45a152 152 0 0 1 102.17 38.6 143.88 143.88 0 0 1 11.3 11.3q4.84 5.32 9.12 11.09a151.86 151.86 0 0 1 27.68 65.55 147 147 0 0 1 1.86 28.64z" style="fill:#fff"/>
</svg>
