<?xml version="1.0" encoding="utf-8"?>
<!-- Generator: Adobe Illustrator 21.0.0, SVG Export Plug-In . SVG Version: 6.00 Build 0)  -->
<svg version="1.1" xmlns="http://www.w3.org/2000/svg" xmlns:xlink="http://www.w3.org/1999/xlink" x="0px" y="0px"
	 viewBox="0 0 1024 1024" style="enable-background:new 0 0 1024 1024;" xml:space="preserve">
<style type="text/css">
	.st0{fill:#2196F3;}
	.st1{fill:#FFFFFF;}
</style>
<g id="Min_Guides__x28_DO_NOT_REMOVE_x29_">
</g>
<g id="Max_Guides__x28_DO_NOT_REMOVE_x29_">
</g>
<g id="Icon">
	<circle id="Background" class="st0" cx="512" cy="512" r="512"/>
	<path class="st1" d="M734,465.5c10.4,15,16.3,32.6,17.1,50.9c36.6,12.9,58.5,50.3,52,88.6c-6.5,38.2-39.7,66.2-78.5,66.3H326.1
		c-28,0-54.9-11-74.8-30.8l169-133.8c6.2,3.3,13.3,5.2,20.8,5.2c6.5,0,13-1.4,18.9-4.2l80.6,70.5c-4.3,13.7-1.8,28.7,6.9,40.1
		c8.7,11.5,22.4,18,36.8,17.5c14.4-0.5,27.6-7.9,35.5-19.9c7.9-12,9.5-27.1,4.2-40.5L734,465.5z M709,440.5L599.1,550.4
		c-5.2-2-10.7-3.1-16.2-3c-6.5,0-13,1.4-18.9,4.2L483.5,481c4.2-13.3,1.9-27.8-6.2-39.1c-8.1-11.3-21-18.2-34.9-18.5
		c-13.9-0.3-27.2,5.9-35.8,16.8c-8.6,10.9-11.6,25.3-8.1,38.7L230.6,611.8c-16.2-33.1-14.1-72.3,5.6-103.4
		c19.7-31.2,54.1-49.9,91-49.5c8.4-66.7,62.5-118.4,129.5-123.6c67-5.3,128.5,37.3,147.2,101.9c15.1-9,32.3-13.7,49.8-13.7
		C674.2,423.4,693.2,429.7,709,440.5L709,440.5z M709,440.5"/>
</g>
</svg>
