<?xml version="1.0" encoding="utf-8"?>
<!-- Generator: Adobe Illustrator 21.0.0, SVG Export Plug-In . SVG Version: 6.00 Build 0)  -->
<svg version="1.1" xmlns="http://www.w3.org/2000/svg" xmlns:xlink="http://www.w3.org/1999/xlink" x="0px" y="0px"
	 viewBox="0 0 1024 1024" style="enable-background:new 0 0 1024 1024;" xml:space="preserve">
<style type="text/css">
	.st0{fill:#00A7E1;}
	.st1{fill:#FFFFFF;}
</style>
<g id="Min_Guides__x28_DO_NOT_REMOVE_x29_">
</g>
<g id="Max_Guides__x28_DO_NOT_REMOVE_x29_">
</g>
<g id="Icon">
	<circle id="Background" class="st0" cx="512" cy="512" r="512"/>
	<path class="st1" d="M289.3,381.2h-70.6c-2.7,0-3.9,1.2-3.9,3.9v11.8c0,2.4,1.6,3.9,3.9,3.9H243v86.3c0,2.4,1.2,3.9,3.9,3.9h14.1
		c2.4,0,3.9-1.6,3.9-3.9v-86.3h24.3c2.4,0,3.9-1.6,3.9-3.9v-11.8C293.2,382.4,291.6,381.2,289.3,381.2 M343,429.8h-15.3v-29H343
		c13.3,0,18.8,3.9,18.8,14.5C361.8,425.9,356.3,429.8,343,429.8L343,429.8z M365.5,446.1c15.7-5.8,18.7-18.4,18.7-30.8
		c0-16.9-5.5-34.1-41.2-34.1h-33.3c-2.8,0-3.9,1.6-3.9,3.9v101.9c0,2.4,1.2,3.9,3.9,3.9h14.1c2.4,0,3.9-1.6,3.9-3.9v-37.6l16.4,0
		l16.1,38.4c0.8,2.3,2.4,3.1,4.3,3.1h14.5c3.1,0,4.3-2,3.1-4.7L365.5,446.1z M430.8,406.8l15.3,34c0.8,2.4,2.3,3.1,4.3,3.1H465
		c3.1,0,4.3-2,3.1-4.7l-24.7-54.9c-0.8-2.3-2.4-3.1-4.3-3.1h-16.5c-2,0-3.5,0.8-4.3,3.1l-24.7,54.9c-1.2,2.7,0,4.7,3.1,4.7h14.5
		c2,0,3.5-0.8,4.3-3.1L430.8,406.8z M540.2,453.7c0,14.5-5.5,17.6-18.8,17.6h-15.3v-70.6h15.3c13.3,0,18.8,3.1,18.8,17.6V453.7z
		 M521.4,381.2h-33.3c-2.7,0-3.9,1.6-3.9,3.9v101.9c0,2.4,1.2,3.9,3.9,3.9h33.3c35.7,0,41.2-15.3,41.2-36.1v-37.6
		C562.6,396.5,557.1,381.2,521.4,381.2L521.4,381.2z M604.1,487.1V385.1c0-2.7-1.6-3.9-3.9-3.9h-14.1c-2.7,0-3.9,1.6-3.9,3.9v101.9
		c0,2.4,1.2,3.9,3.9,3.9h14.1C602.6,491,604.1,489.4,604.1,487.1 M685.7,385.1V429l1.4,22L648.8,384c-1.2-2-2.4-2.7-4.7-2.7h-14.9
		c-2.7,0-3.9,1.6-3.9,3.9v101.9c0,2.4,1.2,3.9,3.9,3.9h14.1c2.4,0,3.9-1.6,3.9-3.9v-43.9l-1.4-22l38.2,67.1c1.2,2,2.4,2.7,4.7,2.7
		h14.9c2.4,0,3.9-1.2,3.9-3.9V385.1c0-2.7-1.6-3.9-3.9-3.9h-14.1C686.9,381.2,685.7,382.4,685.7,385.1 M805.3,432.2H772
		c-2.7,0-3.9,1.2-3.9,3.9v11.8c0,2.3,1.2,3.9,3.9,3.9h14.9v3.9c0,14.5-5.5,17.6-18.8,17.6c-13.3,0-18.8-3.1-18.8-17.6v-39.2
		c0-14.5,5.5-17.6,18.8-17.6c12.2,0,17.6,2.7,18.8,13.7c0,2.8,1.2,3.9,3.9,3.9h14.5c2.4,0,3.9-1.6,3.9-3.9
		c-0.8-20-7.8-33.3-41.2-33.3c-35.7,0-41.2,15.3-41.2,36.1v41.6c0,20.8,5.5,36.1,41.2,36.1c35.7,0,41.2-15.3,41.2-36.1v-20.8
		C809.2,433.4,807.6,432.2,805.3,432.2 M775.4,603.7c26.6-7.6,33.8-16.1,33.8-39.5c0-17.3-7.7-34.2-40.3-34.2
		c-30.6,0-39.1,13.7-40.3,34.2c0,2.4,1.6,4,4,4h14.9c2.8,0,4-1.2,4.4-4c1.2-11.3,8-14.1,16.9-14.1c9.7,0,17.3,3.2,17.3,14.1
		c0,14.9-5.6,16.1-29.4,23.4c-25,7.2-32.2,18.5-32.2,37v16.1c0,2.4,1.2,4,4,4h72.5c2.4,0,4-1.2,4-4v-12.1c0-2.8-1.6-4-4-4h-53.5
		C747.6,613.8,753.2,610.5,775.4,603.7 M696.4,624.6v-89.8c0-2.8-2-4-4.8-3.2l-35.4,13.3c-2,0.8-3.2,2.4-3.2,4.4v14.1
		c0,2.8,2,4,4.8,3.2l16.1-6.1v64.1h-20.9c-2.8,0-4,1.6-4,4v12.1c0,2.4,1.2,4,4,4h56.4c2.4,0,4-1.2,4-4v-12.1c0-2.8-1.6-4-4-4H696.4z
		 M607.4,603.7c26.6-7.6,33.8-16.1,33.8-39.5c0-17.3-7.7-34.2-40.3-34.2c-30.6,0-39.1,13.7-40.3,34.2c0,2.4,1.6,4,4,4h14.9
		c2.8,0,4-1.2,4.4-4c1.2-11.3,8.1-14.1,16.9-14.1c9.7,0,17.3,3.2,17.3,14.1c0,14.9-5.6,16.1-29.4,23.4c-25,7.2-32.2,18.5-32.2,37
		v16.1c0,2.4,1.2,4,4,4h72.5c2.4,0,4-1.2,4-4v-12.1c0-2.8-1.6-4-4-4h-53.5C579.6,613.8,585.2,610.5,607.4,603.7"/>
</g>
</svg>
