<svg xmlns="http://www.w3.org/2000/svg" viewBox="0 0 1024 1024" style="enable-background:new 0 0 1024 1024" xml:space="preserve">
   <circle cx="512" cy="512" r="512" style="fill:#00a7e1"/>
   <path d="M289.3 381.2h-70.6c-2.7 0-3.9 1.2-3.9 3.9v11.8c0 2.4 1.6 3.9 3.9 3.9H243v86.3c0 2.4 1.2 3.9 3.9 3.9H261c2.4 0 3.9-1.6 3.9-3.9v-86.3h24.3c2.4 0 3.9-1.6 3.9-3.9v-11.8c.1-2.7-1.5-3.9-3.8-3.9m53.7 48.6h-15.3v-29H343c13.3 0 18.8 3.9 18.8 14.5s-5.5 14.5-18.8 14.5zm22.5 16.3c15.7-5.8 18.7-18.4 18.7-30.8 0-16.9-5.5-34.1-41.2-34.1h-33.3c-2.8 0-3.9 1.6-3.9 3.9V487c0 2.4 1.2 3.9 3.9 3.9h14.1c2.4 0 3.9-1.6 3.9-3.9v-37.6h16.4l16.1 38.4c.8 2.3 2.4 3.1 4.3 3.1H379c3.1 0 4.3-2 3.1-4.7l-16.6-40.1zm65.3-39.3 15.3 34c.8 2.4 2.3 3.1 4.3 3.1H465c3.1 0 4.3-2 3.1-4.7l-24.7-54.9c-.8-2.3-2.4-3.1-4.3-3.1h-16.5c-2 0-3.5.8-4.3 3.1l-24.7 54.9c-1.2 2.7 0 4.7 3.1 4.7h14.5c2 0 3.5-.8 4.3-3.1l15.3-34zm109.4 46.9c0 14.5-5.5 17.6-18.8 17.6h-15.3v-70.6h15.3c13.3 0 18.8 3.1 18.8 17.6v35.4zm-18.8-72.5h-33.3c-2.7 0-3.9 1.6-3.9 3.9V487c0 2.4 1.2 3.9 3.9 3.9h33.3c35.7 0 41.2-15.3 41.2-36.1v-37.6c0-20.7-5.5-36-41.2-36zm82.7 105.9v-102c0-2.7-1.6-3.9-3.9-3.9h-14.1c-2.7 0-3.9 1.6-3.9 3.9V487c0 2.4 1.2 3.9 3.9 3.9h14.1c2.4.1 3.9-1.5 3.9-3.8m81.6-102V429l1.4 22-38.3-67c-1.2-2-2.4-2.7-4.7-2.7h-14.9c-2.7 0-3.9 1.6-3.9 3.9v101.9c0 2.4 1.2 3.9 3.9 3.9h14.1c2.4 0 3.9-1.6 3.9-3.9v-43.9l-1.4-22 38.2 67.1c1.2 2 2.4 2.7 4.7 2.7h14.9c2.4 0 3.9-1.2 3.9-3.9v-102c0-2.7-1.6-3.9-3.9-3.9h-14.1c-2.6 0-3.8 1.2-3.8 3.9m119.6 47.1H772c-2.7 0-3.9 1.2-3.9 3.9v11.8c0 2.3 1.2 3.9 3.9 3.9h14.9v3.9c0 14.5-5.5 17.6-18.8 17.6s-18.8-3.1-18.8-17.6v-39.2c0-14.5 5.5-17.6 18.8-17.6 12.2 0 17.6 2.7 18.8 13.7 0 2.8 1.2 3.9 3.9 3.9h14.5c2.4 0 3.9-1.6 3.9-3.9-.8-20-7.8-33.3-41.2-33.3-35.7 0-41.2 15.3-41.2 36.1V457c0 20.8 5.5 36.1 41.2 36.1s41.2-15.3 41.2-36.1v-20.8c0-2.8-1.6-4-3.9-4m-29.9 171.5c26.6-7.6 33.8-16.1 33.8-39.5 0-17.3-7.7-34.2-40.3-34.2-30.6 0-39.1 13.7-40.3 34.2 0 2.4 1.6 4 4 4h14.9c2.8 0 4-1.2 4.4-4 1.2-11.3 8-14.1 16.9-14.1 9.7 0 17.3 3.2 17.3 14.1 0 14.9-5.6 16.1-29.4 23.4-25 7.2-32.2 18.5-32.2 37v16.1c0 2.4 1.2 4 4 4H801c2.4 0 4-1.2 4-4v-12.1c0-2.8-1.6-4-4-4h-53.5c.1-10.8 5.7-14.1 27.9-20.9m-79 20.9v-89.8c0-2.8-2-4-4.8-3.2l-35.4 13.3c-2 .8-3.2 2.4-3.2 4.4v14.1c0 2.8 2 4 4.8 3.2l16.1-6.1v64.1H653c-2.8 0-4 1.6-4 4v12.1c0 2.4 1.2 4 4 4h56.4c2.4 0 4-1.2 4-4v-12.1c0-2.8-1.6-4-4-4h-13zm-89-20.9c26.6-7.6 33.8-16.1 33.8-39.5 0-17.3-7.7-34.2-40.3-34.2-30.6 0-39.1 13.7-40.3 34.2 0 2.4 1.6 4 4 4h14.9c2.8 0 4-1.2 4.4-4 1.2-11.3 8.1-14.1 16.9-14.1 9.7 0 17.3 3.2 17.3 14.1 0 14.9-5.6 16.1-29.4 23.4-25 7.2-32.2 18.5-32.2 37v16.1c0 2.4 1.2 4 4 4H633c2.4 0 4-1.2 4-4v-12.1c0-2.8-1.6-4-4-4h-53.5c.1-10.8 5.7-14.1 27.9-20.9" style="fill:#fff"/>
</svg>
