<?xml version="1.0" encoding="utf-8"?>
<!-- Generator: Adobe Illustrator 21.0.0, SVG Export Plug-In . SVG Version: 6.00 Build 0)  -->
<svg version="1.1" xmlns="http://www.w3.org/2000/svg" xmlns:xlink="http://www.w3.org/1999/xlink" x="0px" y="0px"
	 viewBox="0 0 1024 1024" style="enable-background:new 0 0 1024 1024;" xml:space="preserve">
<style type="text/css">
	.st0{fill:#0052CC;}
	.st1{fill:#FFFFFF;}
</style>
<g id="Guides">
</g>
<g id="Icon">
	<circle class="st0" cx="512" cy="512" r="512"/>
	<path class="st1" d="M680.9,290.4H343.1c-29.1,0-52.7,23.6-52.7,52.7v337.8c0,29.1,23.6,52.7,52.7,52.7h337.8
		c29.1,0,52.7-23.6,52.7-52.7V343.1C733.6,314,710,290.4,680.9,290.4z M481.3,609.6c0,9.7-7.8,17.5-17.5,17.5h-74
		c-9.7,0-17.5-7.8-17.5-17.5V389.7c0-9.7,7.8-17.5,17.5-17.5h74c9.7,0,17.5,7.8,17.5,17.5V609.6z M651.8,508.7
		c0.2,9.7-7.5,17.7-17.2,17.9c-0.1,0-0.2,0-0.4,0h-74c-9.7,0-17.5-7.8-17.5-17.5V389.7c0-9.7,7.8-17.5,17.5-17.5h74
		c9.7,0,17.5,7.8,17.5,17.5V508.7z"/>
</g>
</svg>
