<?xml version="1.0" encoding="UTF-8" standalone="no"?>
<svg
   xmlns:dc="http://purl.org/dc/elements/1.1/"
   xmlns:cc="http://creativecommons.org/ns#"
   xmlns:rdf="http://www.w3.org/1999/02/22-rdf-syntax-ns#"
   xmlns:svg="http://www.w3.org/2000/svg"
   xmlns="http://www.w3.org/2000/svg"
   viewBox="0 0 1365.3333 1365.3333"
   height="1365.3333"
   width="1365.3333"
   xml:space="preserve"
   id="svg2"
   version="1.1"><metadata
     id="metadata8"><rdf:RDF><cc:Work
         rdf:about=""><dc:format>image/svg+xml</dc:format><dc:type
           rdf:resource="http://purl.org/dc/dcmitype/StillImage" /></cc:Work></rdf:RDF></metadata><defs
     id="defs6"><clipPath
       id="clipPath18"
       clipPathUnits="userSpaceOnUse"><path
         id="path16"
         d="M 0,1024 H 1024 V 0 H 0 Z" /></clipPath></defs><g
     transform="matrix(1.3333333,0,0,-1.3333333,0,1365.3333)"
     id="g10"><g
       id="g12"><g
         clip-path="url(#clipPath18)"
         id="g14"><g
           transform="translate(1024,512)"
           id="g20"><path
             id="path22"
             style="fill:#3676c4;fill-opacity:1;fill-rule:nonzero;stroke:none"
             d="m 0,0 c 0,-282.77 -229.23,-512 -512,-512 -282.77,0 -512,229.23 -512,512 0,282.77 229.23,512 512,512 C -229.23,512 0,282.77 0,0" /></g><g
           transform="translate(701.4531,508.1523)"
           id="g24"><path
             id="path26"
             style="fill:#ffffff;fill-opacity:1;fill-rule:nonzero;stroke:none"
             d="m 0,0 c 0,-16.939 -13.76,-30.722 -30.721,-30.722 h -94.722 c -16.961,0 -30.721,13.783 -30.721,30.722 v 162.564 c 0,16.961 13.781,30.722 30.721,30.722 h 94.722 c 16.961,0 30.722,-13.761 30.722,-30.722 C 0.001,162.564 0.001,0 0,0 m -222.727,-128.004 c 0,-16.961 -13.76,-30.722 -30.72,-30.722 h -94.723 c -16.961,0 -30.721,13.783 -30.721,30.722 v 290.568 c 0,16.961 13.76,30.722 30.721,30.722 h 94.723 c 16.96,0 30.721,-13.761 30.721,-30.722 0,0 0,-290.568 -0.001,-290.568 M 2.561,259.848 h -384.012 c -35.351,0 -64.002,-28.652 -64.002,-64.002 v -384.012 c 0,-35.329 28.651,-64.002 64.002,-64.002 H 2.561 c 35.329,0 64.002,28.673 64.002,64.002 v 384.012 c 0,35.35 -28.673,64.002 -64.002,64.002" /></g></g></g></g></svg>