<?xml version="1.0" encoding="utf-8"?>
<!-- Generator: Adobe Illustrator 21.0.0, SVG Export Plug-In . SVG Version: 6.00 Build 0)  -->
<svg version="1.1" xmlns="http://www.w3.org/2000/svg" xmlns:xlink="http://www.w3.org/1999/xlink" x="0px" y="0px"
	 viewBox="0 0 1024 1024" style="enable-background:new 0 0 1024 1024;" xml:space="preserve">
<style type="text/css">
	.st0{fill:#0079BF;}
	.st1{fill:#FFFFFF;}
</style>
<g id="Guides">
</g>
<g id="Icon">
	<circle class="st0" cx="512" cy="512" r="512"/>
	<g>
		<title>Trello icon</title>
		<path class="st1" d="M704,256H320c-35.4,0-64,28.7-64,64v384c0,35.3,28.7,64,64,64h384c35.3,0,64-28.7,64-64V320
			C768,284.7,739.3,256,704,256z M478.7,643.9c0,17-13.8,30.7-30.7,30.7h-94.7c-17,0-30.7-13.8-30.7-30.7V353.3
			c0-17,13.8-30.7,30.7-30.7H448c17,0,30.7,13.8,30.7,30.7L478.7,643.9z M701.5,515.8c0,16.9-13.8,30.7-30.7,30.7H576
			c-17,0-30.7-13.8-30.7-30.7V353.3c0-17,13.8-30.7,30.7-30.7h94.7c17,0,30.7,13.8,30.7,30.7L701.5,515.8z"/>
	</g>
</g>
</svg>
