<svg xmlns="http://www.w3.org/2000/svg" viewBox="0 0 1024 1024">
   <circle cx="512" cy="512" r="512" style="fill:#b92025"/>
   <path d="M302.53 477.34A47.94 47.94 0 0 0 280 464.45a56 56 0 0 0-17.77-1l-2.4.39C245.56 466 233 475.48 226 487.94a48.44 48.44 0 0 0 .13 47.38 51 51 0 0 0 12.47 14.47 46.83 46.83 0 0 0 24.61 9.77c8 .59 16.16-.17 23.58-3.3a48.06 48.06 0 0 0 28.89-34.45 47.46 47.46 0 0 0-.82-23.57 51.35 51.35 0 0 0-12.33-20.9ZM283.79 545a36.93 36.93 0 0 1-47.37-15 35.94 35.94 0 0 1-4.72-22 36.86 36.86 0 0 1 23.73-31 35 35 0 0 1 7.53-1.9c5.84-.5 11.88-.4 17.45 1.64a36.55 36.55 0 0 1 18.34 14 37.33 37.33 0 0 1 6.43 21.32 40.3 40.3 0 0 1-4.18 16.52A37.09 37.09 0 0 1 283.79 545Zm558.05-83.7a25.36 25.36 0 0 1 3.71-8c-4.45.41-8.94.14-13.4.21-59.45-.09-118.89.07-178.34-.06-22.06.08-44.13 0-66.19 0 .68-20.18 1.41-40.35 1.88-60.53.42-9.37.21-18.77.61-28.14.25-15.24.6-30.48.52-45.72-.05-9.5.09-19-.29-28.52 0-7.45-.54-14.89-.64-22.34l-.17-.26c0-3.26-.34-6.5-.59-9.76-.59-6-1-12-2.77-17.8-.13-.54-.42-1.38-1.15-1.2-11 .89-21.89 2.19-32.76 3.84-10.26 1.49-20.51 3.16-30.67 5.3-31.74 6.49-63 15.85-92.34 29.74s-57.06 32.52-79.06 56.74c-11.89 13.17-22.2 28-29.1 44.37-1.11 2.6-1.83 5.34-2.87 8-2.24.41-4.53.55-6.76 1.08-15.38 3.41-30.52 7.8-45.65 12.17-9.19 2.73-18.4 5.35-27.49 8.4a104.76 104.76 0 0 1-9.93 13.17c-4 4.76-8.25 9.38-12.67 13.79-5.85 5.89-11.61 11.87-17.83 17.37-4.65 4-9 8.36-13.86 12.17a4.71 4.71 0 0 0-2 4c1.62-.27 2.58-1.7 3.75-2.71 4.3-3.81 8.59-7.65 13.12-11.18 14-10.64 29.37-19.85 46.26-25a106.28 106.28 0 0 1 19.21-4q4.89-.22 9.78-.4c2.36.36 4.78.15 7.15.42 1.94.31 3.9.49 5.83.87 17.4 3.17 33.28 12.41 46 24.5a140 140 0 0 1 13 13.9c11.82.15 23.65-.05 35.46-.1 4.59-.36 9.21-.11 13.81-.23 12.32-.09 24.64-.08 37-.18a7.12 7.12 0 0 1 2.89 0c1.54.08 3.07-.2 4.62-.1a12.68 12.68 0 0 1 2.49.1h1.33a17.48 17.48 0 0 1 5 0l1.72-.13a19.79 19.79 0 0 0 4.2 0c7.4.21 14.82 0 22.23.1 27.56.05 55.12.22 82.67.23 12.55.39 25.12.09 37.68-.08q-7.67 15.88-15.16 31.84c-3.66 7.49-7 15.12-10.83 22.55 3.37.19 6.75 0 10.13.06 5.27-.05 10.55.12 15.82-.09 0-1.31-.43-2.56-.54-3.86a45.6 45.6 0 0 1 .93-16 53.23 53.23 0 0 1 20.36-31.84 50.94 50.94 0 0 1 23-9.38 55.34 55.34 0 0 1 27.34 2.95 54.2 54.2 0 0 1 34.08 58.15c4 .13 8 0 12 0 3.83-.05 7.66.13 11.49-.12a34 34 0 0 1-.42-4.65c-.11-5.49-.05-11.09 1.54-16.39a56.47 56.47 0 0 1 10.39-20.61 55.46 55.46 0 0 1 22-16.29 56 56 0 0 1 27.12-3.17 53.79 53.79 0 0 1 38.45 24.92c4.58-2 9-4.25 13.56-6.31a9.59 9.59 0 0 0 3.47-2 28 28 0 0 1-.88-6.32 34.47 34.47 0 0 1 .76-7.5Zm-395.15-55.59c-1.29 1.52-3.43 1.17-5.2 1.28-4.91 0-9.81.11-14.72 0a4.4 4.4 0 0 1-4.35-5.33 10.67 10.67 0 0 1 1.84-2.61c1.91-.63 3.93-.44 5.9-.5 4.61 0 9.23-.08 13.84.16a3.79 3.79 0 0 1 3.33 1.79c.67 1.72.77 3.86-.64 5.21Zm3.34-17.2a58.17 58.17 0 0 1-7.76 1c-4.3.6-8.62 1.07-12.93 1.56-10.11 1.48-20.26 2.58-30.39 3.93-12.13 1.49-24.24 3.12-36.37 4.58-1.1.23-2.22.3-3.31.51-2.24.26-4.47.52-6.7.84a28.49 28.49 0 0 0-3.78.43c-1.2.13-2.4.18-3.6.21.5-6.73 1.07-13.52 3-20 4.67-16.13 13.58-30.86 24.91-43.19 16.71-18.39 38-32 60.53-42.25 5.4-2.61 11-4.68 16.52-7.11q-.03 49.74-.15 99.49Zm-267.27 69.74c-.29-4.59.31-9.16.51-13.74.48-4.57.53-9.19 1.47-13.7.31-1.86.73-4.18 2.78-4.88 6.84-3.05 14-5.4 21.06-7.79 6.72-2.21 13.44-4.44 20.2-6.52a20.49 20.49 0 0 1-1.73 2.3c-2.71 2.75-5 5.89-7.57 8.75a378.86 378.86 0 0 1-34.9 33.88c-.58.56-1.21 1.13-1.82 1.7Zm392.46 33.07c-5.82 12.16-11.69 24.28-17.43 36.48-25.34.16-50.69 0-76 .07q-69.43 0-138.86.08c-4.22-.06-8.46.17-12.67-.09a86.54 86.54 0 0 0-2-10.74 123.26 123.26 0 0 0-9.34-26.75 76.12 76.12 0 0 0-12.19-18.41 49.37 49.37 0 0 0-20-13.35c-1.8-.57-3.61-1.08-5.44-1.55-2.09-.49-4.25-.48-6.36-.79a131.46 131.46 0 0 0-13.91 0c-1.5.31-3 .23-4.55.5a51.46 51.46 0 0 0-22.52 9 55.35 55.35 0 0 0-8.79 7.94 71.67 71.67 0 0 0-12.84 22.53 113.55 113.55 0 0 0-6 29.71c.08.93-1.22.85-1.85 1-5 0-10 .36-15.07.21a16.68 16.68 0 0 1-10.26-6 20.81 20.81 0 0 1-3.6-12.33c0-7.28.62-14.56.49-21.84-.18-1.8 1.55-2.88 2.56-4.11a187.08 187.08 0 0 1 35-30c13.4-8.9 28.32-15.88 44.24-18.73 1-.2 1.94-.3 2.91-.43 1.61-.33 3.27-.22 4.88-.6 4-.17 8-.16 12 0 2.35.39 4.75.47 7.11.87 14.66 2.53 28.14 9.82 39.42 19.36 6.07 5.12 11.36 11 16.69 16.9 1.75 1.17 3.6 3 5.88 2.39 21.13-.25 42.27-.18 63.4-.31 2.38 0 4.75-.22 7.13-.08 18.74-.07 37.48 0 56.22 0 7.7-.06 15.39.08 23.08.11 3.51-.23 7 .16 10.54 0 25.73.17 51.48 0 77.22.29-3.24 6.07-6.03 12.44-9.09 18.67Zm102.44-13.16a44.62 44.62 0 0 0-19.24-9.43 52.43 52.43 0 0 0-14.69-.48 41.9 41.9 0 0 0-25.23 12.32 44.13 44.13 0 0 0-12.11 21.86 50 50 0 0 0-.4 15.25c2 15.79 13.57 29.82 28.56 35.09.94.35 1.9.64 2.86 1 1.13.23 2.25.5 3.37.84.72.09 1.46.17 2.19.27a18.35 18.35 0 0 0 3.39.36 25 25 0 0 0 5.11.23v-.27a14.7 14.7 0 0 0 3.56-.31c.72-.12 1.46-.2 2.19-.29a45 45 0 0 0 16.91-7A43.71 43.71 0 0 0 691.5 500a44.69 44.69 0 0 0-13.84-21.84Zm4.76 49.54c-6.29 13.36-21.39 22-36.1 20.43-8.75-.42-17.07-4.63-23.23-10.75a35.93 35.93 0 0 1-10.39-29.61l-.11-.17a37.53 37.53 0 0 1 11.85-23.22 34.82 34.82 0 0 1 24.73-9.5 35.72 35.72 0 0 1 23.31 8A36.61 36.61 0 0 1 685 502.5a38.27 38.27 0 0 1-2.58 25.19Zm126.32-48.84a43.38 43.38 0 0 0-21.07-10.32c-9.2-1.33-19-.56-27.35 3.72a43.66 43.66 0 0 0-16.82 63.91 44.64 44.64 0 0 0 18.21 15.32l.85.38 1.57.61a16 16 0 0 0 3.59 1.09v.19c1.67.22 3.25.88 4.94 1a22.11 22.11 0 0 0 5.21.39l-.11.29h1l-.1-.45 1 .42h1.14l-.08-.32a36.36 36.36 0 0 0 10.39-1.44c1.78-.6 3.61-1.06 5.34-1.83a43.77 43.77 0 0 0 12.3-73.05Zm7.26 38.77a36.58 36.58 0 0 1-33 30.49c-3.44.55-6.92 0-10.33-.42l-1.73-.4c-.9-.2-1.79-.45-2.67-.7a38.83 38.83 0 0 1-19.84-15.41 36.1 36.1 0 0 1-5.57-17.5l-.18-.26a38.34 38.34 0 0 1 8.69-25.49A37.08 37.08 0 0 1 768 476.55c5.11-1.82 10.62-1.86 16-1.53a36.73 36.73 0 0 1 22.51 11.17 38.63 38.63 0 0 1 9.4 18.18 42.06 42.06 0 0 1 .09 13.26Zm-139-8.07a27.65 27.65 0 0 1-32.4 29.07 27.76 27.76 0 0 1-19.44-14.29 27 27 0 0 1-1.89-21.4c3.26-9.55 12-17.17 22-18.58a27.62 27.62 0 0 1 21.79 6.07 28.69 28.69 0 0 1 9.94 19.13Zm128-8.9a25.93 25.93 0 0 1 1.82 14.74 27.38 27.38 0 0 1-10.38 17.6c-7.22 5.34-17.11 7.3-25.64 4.19-10.84-3.55-18.88-14.52-18.63-26-.49-13.73 11.29-26.53 25-27.33a27.21 27.21 0 0 1 15.73 3.21 26.62 26.62 0 0 1 12.1 13.59Zm-511.78 5.23A25.42 25.42 0 0 1 275.37 536c-1.53.43-3.1.65-4.66.94a25.23 25.23 0 0 1-17.21-4.63 25.87 25.87 0 0 1-10.68-19.35 24.48 24.48 0 0 1 3.38-14 25.45 25.45 0 0 1 15.35-11.94c6.51-1.52 13.78-1 19.58 2.52a25.89 25.89 0 0 1 12.09 16.35Zm305.15-118c.07-29 .27-57.92.25-86.88 0-18.88 0-37.77.08-56.65a83.35 83.35 0 0 1 .14-8.38 11.41 11.41 0 0 1 3.08-4.11q.49-.43 1-.81l.54-.37a17.73 17.73 0 0 1 2.85-1.53c1-.39 1.95-.74 2.95-1a27.29 27.29 0 0 1 6.14-1.14h1.56q.78 0 1.56.06a5.75 5.75 0 0 1 4.54 2.76 6.2 6.2 0 0 1 .57 1.14q.09.31.16.63t.11.64a9.17 9.17 0 0 1 0 2.59 9 9 0 0 1-1.38 3.6 8.14 8.14 0 0 1-.8 1 7.74 7.74 0 0 1-1 .88 55.79 55.79 0 0 1-5.28 3.44c-1.09.64-2.19 1.25-3.29 1.87a2.24 2.24 0 0 0-.69.55 2.21 2.21 0 0 0-.17.24q0 2.76-.12 5.52t-.17 5.46c-.35 11-.87 22.08-1 33.13q-.22 8.61-.48 17.23T609 325c-.32 7.65-.57 15.3-.79 23q-.11 3.83-.21 7.65-.2 7.65-.41 15.3t-.48 15.3c-.33 10.4-.59 20.81-.85 31.21q-.2 7.8-.41 15.6t-.47 15.6h-1.67a46.12 46.12 0 0 1-5 0c0-16.47-.27-32.93-.23-49.39.05-3.83-.19-7.6-.11-11.38ZM702.47 448l28.66-.52c6.53.16 13.07.09 19.61.16a76.34 76.34 0 0 0 8.2-.17c2.4-.26 3.48-2.7 4.25-4.67-6-.32-11.94-.14-17.9-.38-11.88-.08-23.77 0-35.65 0-7.06-.06-14.12.22-21.18.1a39 39 0 0 0-.34 5.56c4.78-.21 9.57-.08 14.35-.08Zm25.76-4.33v3.06h-5c-4.29 0-8.57 0-12.85-.12-1.64.13-2.71-1.58-3.21-2.91ZM404.82 586a141.76 141.76 0 0 1 17 0c3.73.25 7.61.61 11 2.4a9.23 9.23 0 0 1 4.57 5.6c1 3.65.59 7.51.13 11.22-.6 4.41-1.61 8.74-2.52 13.09q-2.43 11.41-4.86 22.83H405l6.4-30.54c.18-.85-.62-1.5-1.39-1.61a6 6 0 0 0-3.68.39c-1.05.75-1.14 2.18-1.4 3.34q-8.2 38.88-16.42 77.76a1.35 1.35 0 0 0 .73 1.7 6.1 6.1 0 0 0 3.7.07 2.24 2.24 0 0 0 1.39-1.53 31.7 31.7 0 0 0 1.09-4.39q2.86-13.37 5.71-26.73h25.1q-2.24 10.51-4.49 21c-1.42 6.45-2.57 13-4.78 19.24a27 27 0 0 1-4.91 9.08 16.55 16.55 0 0 1-6.49 4.52c-3.63 1.46-7.57 1.76-11.43 2.05a143.11 143.11 0 0 1-18-.08c-3.73-.3-7.63-.73-10.91-2.66a9.09 9.09 0 0 1-4.19-6.57c-.75-4.75.12-9.57 1-14.25 5.76-27 11.44-54.06 17.23-81.07a73.27 73.27 0 0 1 4.06-13 18 18 0 0 1 7.72-8.69c4.23-2.33 9.1-2.81 13.78-3.17Zm245.13.52a123 123 0 0 1 18.67-.74 54.3 54.3 0 0 1 11.59 1.22 11.67 11.67 0 0 1 6.53 4c1.68 2.22 2.07 5.1 2.1 7.8a65.8 65.8 0 0 1-1.52 12.37c-1.19 5.75-2.42 11.5-3.63 17.25h-25.58l3.64-17.66a1.33 1.33 0 0 0-.6-1.52 4.76 4.76 0 0 0-2.59-.37 3.11 3.11 0 0 0-2.29.87 7.47 7.47 0 0 0-1 3l-2.36 11.22c-.36 1.83-1 3.76-.36 5.61.56 1.66 2.11 2.66 3.46 3.64 4 2.62 8 5.19 11.82 8a39.49 39.49 0 0 1 6.61 5.86 12.63 12.63 0 0 1 2.86 6.12c.6 3.57 0 7.19-.64 10.71-1 5.4-2.24 10.76-3.35 16.13-1.12 5.13-2.06 10.31-3.48 15.37a48.78 48.78 0 0 1-3.72 9.93 17.09 17.09 0 0 1-7.3 7.2c-4.24 2.18-9.08 2.57-13.76 2.9a148.07 148.07 0 0 1-16.42 0 33.09 33.09 0 0 1-9.92-1.69 10.16 10.16 0 0 1-4.78-3.51 13 13 0 0 1-2-7.11c-.15-4.7.86-9.33 1.68-13.93q2.67-12.78 5.38-25.55h25.42l-5.6 27c-.22 1.08 1 1.67 1.87 1.69 1.14 0 2.52.13 3.42-.71a10.55 10.55 0 0 0 1.38-4.07l4.24-20A9.49 9.49 0 0 0 650 663c-.5-1.54-1.89-2.52-3.17-3.38-4-2.47-8-5-11.77-7.68a38.46 38.46 0 0 1-6.64-5.81 13.55 13.55 0 0 1-3.15-6 25.62 25.62 0 0 1 .36-9.88c.83-4.43 1.81-8.83 2.69-13.24 1.17-5.69 2.22-11.44 4.32-16.88a21.42 21.42 0 0 1 6.19-9.2 21.81 21.81 0 0 1 11.12-4.39Zm-457.43.81h51L239 608.86h-12.37l-22.36 105.26H178q11.18-52.63 22.36-105.27H188q2.27-10.74 4.52-21.5Zm57.11 0h21.24c5.06 0 10.12-.09 15.18.16a40.56 40.56 0 0 1 10.95 1.63 10.42 10.42 0 0 1 5.78 4.27 14.46 14.46 0 0 1 1.58 7.62c-.15 5.4-1.48 10.66-2.55 15.93-.78 3.71-1.52 7.42-2.33 11.12a22.85 22.85 0 0 1-6.63 11.83 16.73 16.73 0 0 1-7.8 3.79l-.16.62c3 1 6.2 3 7.07 6.22 1.12 4.09.61 8.4-.06 12.51-.8 4.56-1.87 9.07-2.79 13.6l-7.92 37.48h-26.25q6-28.35 11.93-56.7a7.32 7.32 0 0 0 .27-1.7 1.71 1.71 0 0 0-1.63-1.23c-1.32-.14-2.65 0-4-.07L248.8 714.1h-26.04ZM271 609.66q-2.57 12.19-5.15 24.38h4a2.3 2.3 0 0 0 1.8-.82 10.14 10.14 0 0 0 1-3c1.3-6.27 2.64-12.54 3.92-18.82.15-.85-.68-1.46-1.43-1.56a37 37 0 0 0-4.14-.18Zm46.49-22.31h26.07l-21.56 102c-.11.79-.61 1.72 0 2.42a3.63 3.63 0 0 0 2.77.67c.87-.06 2-.17 2.44-1a15.63 15.63 0 0 0 1.31-4.44l21.15-99.64h25.42l-21 98.82a103 103 0 0 1-3.66 13.88 24.43 24.43 0 0 1-5.57 9.57 20.16 20.16 0 0 1-11 5.15 97.21 97.21 0 0 1-14.77 1c-3.8 0-7.61-.09-11.39-.46s-7.6-1.14-10.45-3.68c-2.34-2.09-3-5.36-3.12-8.37a66 66 0 0 1 1.68-13.94q10.89-51.01 21.71-101.98Zm133.85 0h26.39L468.27 632h.8c5-15 10.54-29.85 16.25-44.61h26.23q-6.25 14.94-12.44 29.91c-3.16 7.54-6.17 15.14-9.52 22.59a3.72 3.72 0 0 0-.08 1.12c0 6.45-.2 12.9-.28 19.35-.43 17.94-1.25 35.86-1.81 53.8h-26.88c1-20.89 2.6-41.75 4.34-62.59h-.8l-13.19 62.58h-26.38Zm68.37 0h39.9l-4.51 21.35h-13.79l-1.93 9.3h13.19l-4.35 20.55H535l-11.42 53.27h14l-4.67 22.31h-40.03Zm47.95 0H588c5.81 0 11.62-.12 17.42.23a36.83 36.83 0 0 1 9.48 1.49 11.37 11.37 0 0 1 5 3.07c2.41 2.73 2.63 6.63 2.44 10.1-.32 5.23-1.62 10.32-2.65 15.45-.75 3.51-1.43 7-2.22 10.55a22.84 22.84 0 0 1-6.56 11.63 16.73 16.73 0 0 1-7.82 3.81l-.16.62a12.45 12.45 0 0 1 5.76 3.63 10.7 10.7 0 0 1 1.87 5.79c.35 4.45-.5 8.87-1.37 13.21q-5 23.59-10 47.19H573q6.09-29 12.19-58c.19-.89-.68-1.55-1.47-1.63a39.21 39.21 0 0 0-4.12-.09q-6.36 29.85-12.71 59.69h-26.07Zm21.39 22.31-5.1 24.34c1.76-.12 3.65.31 5.33-.41 1-.77 1.14-2.17 1.47-3.31l3.92-18.79c.32-1-.66-1.75-1.56-1.8-1.34-.1-2.68.01-4.02-.03ZM701.56 587h34.83c-1.28 10.41-2.65 20.82-4 31.22-1.69 12.9-3.66 25.76-5.72 38.6l.62-.07c2.42-8.71 4.72-17.46 7.19-26.17q6.23-21.82 12.69-43.59H782q-13.58 64.11-27.17 128.22h-20.72q8.38-39.38 16.76-78.75c-.43-.08-.68.07-.76.43l-24.61 78.32h-21.66l8.78-79.57q-.69-.13-.74.48-8.41 39.54-16.83 79.09h-20.67Q688 651.07 701.56 587Zm91.61 0h23.23c5.56 0 11.13-.09 16.67.35a30.31 30.31 0 0 1 8.61 1.66 10.49 10.49 0 0 1 4.84 3.5 11.85 11.85 0 0 1 1.93 6.09 50.28 50.28 0 0 1-1.35 12.73c-2.26 10.55-4.49 21.11-6.77 31.65a57.91 57.91 0 0 1-4.11 12.49 17.68 17.68 0 0 1-7.72 8c-4.39 2.29-9.43 2.7-14.29 3-3.86.24-7.73.24-11.59.23q-5.13 24.27-10.25 48.53H766Zm14 58.43c1.37 0 2.74.06 4.1-.05a2.46 2.46 0 0 0 1.95-.93 10.07 10.07 0 0 0 1.07-3.18c2.06-10 4.14-20 6.18-29.93a1.48 1.48 0 0 0-1.37-1.65 34.12 34.12 0 0 0-4.28-.12q-3.82 17.88-7.64 35.82Z" style="fill:#fff"/>
</svg>
