<?xml version="1.0" encoding="UTF-8" standalone="no"?>
<svg
   xmlns:dc="http://purl.org/dc/elements/1.1/"
   xmlns:cc="http://creativecommons.org/ns#"
   xmlns:rdf="http://www.w3.org/1999/02/22-rdf-syntax-ns#"
   xmlns:svg="http://www.w3.org/2000/svg"
   xmlns="http://www.w3.org/2000/svg"
   viewBox="0 0 1365.3333 1365.3333"
   height="1365.3333"
   width="1365.3333"
   xml:space="preserve"
   id="svg2"
   version="1.1"><metadata
     id="metadata8"><rdf:RDF><cc:Work
         rdf:about=""><dc:format>image/svg+xml</dc:format><dc:type
           rdf:resource="http://purl.org/dc/dcmitype/StillImage" /></cc:Work></rdf:RDF></metadata><defs
     id="defs6"><clipPath
       id="clipPath18"
       clipPathUnits="userSpaceOnUse"><path
         id="path16"
         d="M 0,1024 H 1024 V 0 H 0 Z" /></clipPath></defs><g
     transform="matrix(1.3333333,0,0,-1.3333333,0,1365.3333)"
     id="g10"><g
       id="g12"><g
         clip-path="url(#clipPath18)"
         id="g14"><g
           transform="translate(1024,512)"
           id="g20"><path
             id="path22"
             style="fill:#9f1c21;fill-opacity:1;fill-rule:nonzero;stroke:none"
             d="m 0,0 c 0,-282.77 -229.23,-512 -512,-512 -282.77,0 -512,229.23 -512,512 0,282.77 229.23,512 512,512 C -229.23,512 0,282.77 0,0" /></g><g
           transform="translate(301.5767,747.5898)"
           id="g24"><path
             id="path26"
             style="fill:#ffffff;fill-opacity:1;fill-rule:nonzero;stroke:none"
             d="m 0,0 c -25.184,0 -45.577,-20.415 -45.577,-45.571 v -420.857 c 0,-1.595 0.092,-3.204 0.245,-4.758 16.936,6.31 34.915,13.208 53.903,20.793 132.169,52.759 240.223,97.617 240.321,148.265 0,1.622 -0.112,3.26 -0.343,4.898 -6.834,50.005 -126.333,65.508 -126.167,88.425 0.014,1.218 0.358,2.491 1.092,3.764 14.355,25.142 71.214,23.938 92.154,25.716 20.958,1.819 70.145,1.442 72.522,16.425 0.07,0.463 0.114,0.923 0.114,1.385 0.056,13.921 -33.825,19.378 -33.825,19.378 0,0 41.113,-6.142 41.002,-22.135 0,-0.784 -0.096,-1.594 -0.316,-2.419 -4.426,-17.183 -40.603,-20.414 -64.526,-21.588 -22.625,-1.134 -57.078,-3.708 -57.196,-14.76 -0.014,-0.643 0.098,-1.315 0.329,-2 5.399,-16.159 131.679,-23.939 212.471,-65.871 46.493,-24.107 69.615,-64.598 80.22,-106.431 v 331.777 c 0,25.156 -20.408,45.57 -45.564,45.57 L 0,0.006 Z" /></g></g></g></g></svg>