<?xml version="1.0" encoding="utf-8"?>
<!-- Generator: Adobe Illustrator 21.0.0, SVG Export Plug-In . SVG Version: 6.00 Build 0)  -->
<svg version="1.1" xmlns="http://www.w3.org/2000/svg" xmlns:xlink="http://www.w3.org/1999/xlink" x="0px" y="0px"
	 viewBox="0 0 1024 1024" style="enable-background:new 0 0 1024 1024;" xml:space="preserve">
<style type="text/css">
	.st0{fill:#840010;}
	.st1{fill:#FFFFFF;}
</style>
<g id="Guides">
</g>
<g id="Icon">
	<circle class="st0" cx="512" cy="512" r="512"/>
	<path class="st1" d="M301.6,276.4c-25.2,0-45.6,20.4-45.6,45.6v420.9c0,1.6,0.1,3.2,0.2,4.8c16.9-6.3,34.9-13.2,53.9-20.8
		c132.2-52.8,240.2-97.6,240.3-148.3c0-1.6-0.1-3.3-0.3-4.9c-6.8-50-126.3-65.5-126.2-88.4c0-1.2,0.4-2.5,1.1-3.8
		c14.4-25.1,71.2-23.9,92.2-25.7c21-1.8,70.1-1.4,72.5-16.4c0.1-0.5,0.1-0.9,0.1-1.4c0.1-13.9-33.8-19.4-33.8-19.4s41.1,6.1,41,22.1
		c0,0.8-0.1,1.6-0.3,2.4c-4.4,17.2-40.6,20.4-64.5,21.6c-22.6,1.1-57.1,3.7-57.2,14.8c0,0.6,0.1,1.3,0.3,2
		c5.4,16.2,131.7,23.9,212.5,65.9c46.5,24.1,69.6,64.6,80.2,106.4V322c0-25.2-20.4-45.6-45.6-45.6L301.6,276.4L301.6,276.4z"/>
</g>
</svg>
