<svg xmlns="http://www.w3.org/2000/svg" viewBox="0 0 1024 1024" style="enable-background:new 0 0 1024 1024" xml:space="preserve">
   <circle cx="512" cy="512" r="512" style="fill:#840010"/>
   <path d="M301.6 276.4c-25.2 0-45.6 20.4-45.6 45.6v420.9c0 1.6.1 3.2.2 4.8 16.9-6.3 34.9-13.2 53.9-20.8 132.2-52.8 240.2-97.6 240.3-148.3 0-1.6-.1-3.3-.3-4.9-6.8-50-126.3-65.5-126.2-88.4 0-1.2.4-2.5 1.1-3.8 14.4-25.1 71.2-23.9 92.2-25.7 21-1.8 70.1-1.4 72.5-16.4.1-.5.1-.9.1-1.4.1-13.9-33.8-19.4-33.8-19.4s41.1 6.1 41 22.1c0 .8-.1 1.6-.3 2.4-4.4 17.2-40.6 20.4-64.5 21.6-22.6 1.1-57.1 3.7-57.2 14.8 0 .6.1 1.3.3 2 5.4 16.2 131.7 23.9 212.5 65.9 46.5 24.1 69.6 64.6 80.2 106.4V322c0-25.2-20.4-45.6-45.6-45.6H301.6z" style="fill:#fff"/>
</svg>
