<?xml version="1.0" encoding="utf-8"?>
<!-- Generator: Adobe Illustrator 21.0.0, SVG Export Plug-In . SVG Version: 6.00 Build 0)  -->
<svg version="1.1" xmlns="http://www.w3.org/2000/svg" xmlns:xlink="http://www.w3.org/1999/xlink" x="0px" y="0px"
	 viewBox="0 0 1024 1024" style="enable-background:new 0 0 1024 1024;" xml:space="preserve">
<style type="text/css">
	.st0{fill:#F22F46;}
	.st1{fill:#FFFFFF;}
</style>
<g id="Min_Guides__x28_DO_NOT_REMOVE_x29_">
</g>
<g id="Max_Guides__x28_DO_NOT_REMOVE_x29_">
</g>
<g id="Icon">
	<circle id="Background" class="st0" cx="512" cy="512" r="512"/>
	<path transform="matrix(17.06667 0 0 17.06667 256 256)" class="st1" d="M15,0C6.7,0,0,6.7,0,15s6.7,15,15,15s15-6.7,15-15
		S23.3,0,15,0z M15,26C8.9,26,4,21.1,4,15S8.9,4,15,4s11,4.9,11,11S21.1,26,15,26z M21.8,11.3c0,1.7-1.4,3.1-3.1,3.1
		s-3.1-1.4-3.1-3.1s1.4-3.1,3.1-3.1S21.8,9.6,21.8,11.3L21.8,11.3z M21.8,18.7c0,1.7-1.4,3.1-3.1,3.1s-3.1-1.4-3.1-3.1
		s1.4-3.1,3.1-3.1S21.8,17,21.8,18.7z M14.4,18.7c0,1.7-1.4,3.1-3.1,3.1s-3.1-1.4-3.1-3.1s1.4-3.1,3.1-3.1S14.4,17,14.4,18.7z
		 M14.4,11.3c0,1.7-1.4,3.1-3.1,3.1S8.2,13,8.2,11.3s1.4-3.1,3.1-3.1S14.4,9.6,14.4,11.3z"/>
</g>
</svg>
