<?xml version="1.0" encoding="UTF-8" standalone="no"?>
<svg
   xmlns:dc="http://purl.org/dc/elements/1.1/"
   xmlns:cc="http://creativecommons.org/ns#"
   xmlns:rdf="http://www.w3.org/1999/02/22-rdf-syntax-ns#"
   xmlns:svg="http://www.w3.org/2000/svg"
   xmlns="http://www.w3.org/2000/svg"
   viewBox="0 0 1365.3333 1365.3333"
   height="1365.3333"
   width="1365.3333"
   xml:space="preserve"
   id="svg2"
   version="1.1"><metadata
     id="metadata8"><rdf:RDF><cc:Work
         rdf:about=""><dc:format>image/svg+xml</dc:format><dc:type
           rdf:resource="http://purl.org/dc/dcmitype/StillImage" /></cc:Work></rdf:RDF></metadata><defs
     id="defs6"><clipPath
       id="clipPath18"
       clipPathUnits="userSpaceOnUse"><path
         id="path16"
         d="M 0,1024 H 1024 V 0 H 0 Z" /></clipPath></defs><g
     transform="matrix(1.3333333,0,0,-1.3333333,0,1365.3333)"
     id="g10"><g
       id="g12"><g
         clip-path="url(#clipPath18)"
         id="g14"><g
           transform="translate(1024,512)"
           id="g20"><path
             id="path22"
             style="fill:#569cda;fill-opacity:1;fill-rule:nonzero;stroke:none"
             d="m 0,0 c 0,-282.77 -229.23,-512 -512,-512 -282.77,0 -512,229.23 -512,512 0,282.77 229.23,512 512,512 C -229.23,512 0,282.77 0,0" /></g><g
           transform="translate(780.3965,678.8398)"
           id="g24"><path
             id="path26"
             style="fill:#ffffff;fill-opacity:1;fill-rule:nonzero;stroke:none"
             d="m 0,0 c -19.871,-8.734 -41.09,-14.685 -63.431,-17.401 22.768,13.718 40.282,35.341 48.567,61.14 -21.354,-12.462 -45.019,-21.532 -70.212,-26.585 -20.118,21.533 -48.791,35.005 -80.63,35.005 -61.006,0 -110.471,-49.465 -110.471,-110.403 0,-8.757 1.011,-17.177 2.852,-25.238 -91.834,4.334 -173.228,48.432 -227.7,115.096 -9.587,-16.211 -14.954,-35.05 -14.954,-55.572 0,-38.395 19.535,-72.143 49.128,-91.969 -18.12,0.584 -35.162,5.569 -50.026,13.831 v -1.369 c 0,-53.552 38.014,-98.212 88.601,-108.383 -9.273,-2.492 -19.063,-3.839 -29.099,-3.839 -7.051,0 -13.809,0.673 -20.567,1.931 14.168,-43.851 54.898,-75.825 103.375,-76.723 -37.722,-29.617 -85.525,-47.265 -137.011,-47.265 -8.756,0 -17.491,0.516 -26.27,1.505 49.15,-31.3 107.057,-49.6 169.68,-49.6 203.293,0 314.325,168.311 314.325,314.033 0,4.693 0,9.431 -0.337,14.146 21.577,15.47 40.416,35.027 55.236,57.211 z" /></g></g></g></g></svg>