<?xml version="1.0" encoding="utf-8"?>
<!-- Generator: Adobe Illustrator 21.0.0, SVG Export Plug-In . SVG Version: 6.00 Build 0)  -->
<svg version="1.1" xmlns="http://www.w3.org/2000/svg" xmlns:xlink="http://www.w3.org/1999/xlink" x="0px" y="0px"
	 viewBox="0 0 1024 1024" style="enable-background:new 0 0 1024 1024;" xml:space="preserve">
<style type="text/css">
	.st0{fill:#1DA1F2;}
	.st1{fill:#FFFFFF;}
</style>
<g id="Guides">
</g>
<g id="Icon">
	<circle class="st0" cx="512" cy="512" r="512"/>
	<path class="st1" d="M793.4,353.2c-19.9,8.7-41.1,14.7-63.4,17.4c22.8-13.7,40.3-35.3,48.6-61.1c-21.4,12.5-45,21.5-70.2,26.6
		c-20.1-21.5-48.8-35-80.6-35c-61,0-110.5,49.5-110.5,110.4c0,8.8,1,17.2,2.9,25.2c-91.8-4.3-173.2-48.4-227.7-115.1
		c-9.6,16.2-15,35-15,55.6c0,38.4,19.5,72.1,49.1,92c-18.1-0.6-35.2-5.6-50-13.8v1.4c0,53.6,38,98.2,88.6,108.4
		c-9.3,2.5-19.1,3.8-29.1,3.8c-7.1,0-13.8-0.7-20.6-1.9c14.2,43.9,54.9,75.8,103.4,76.7c-37.7,29.6-85.5,47.3-137,47.3
		c-8.8,0-17.5-0.5-26.3-1.5c49.2,31.3,107.1,49.6,169.7,49.6c203.3,0,314.3-168.3,314.3-314c0-4.7,0-9.4-0.3-14.1
		c21.6-15.5,40.4-35,55.2-57.2L793.4,353.2z"/>
</g>
</svg>
