<?xml version="1.0" encoding="utf-8"?>
<!-- Generator: Adobe Illustrator 21.0.0, SVG Export Plug-In . SVG Version: 6.00 Build 0)  -->
<svg version="1.1" xmlns="http://www.w3.org/2000/svg" xmlns:xlink="http://www.w3.org/1999/xlink" x="0px" y="0px"
	 viewBox="0 0 1024 1024" style="enable-background:new 0 0 1024 1024;" xml:space="preserve">
<style type="text/css">
	.st0{fill:#00A0DF;}
	.st1{fill:#FFFFFF;}
</style>
<g id="Min_Guides__x28_DO_NOT_REMOVE_x29_">
</g>
<g id="Max_Guides__x28_DO_NOT_REMOVE_x29_">
</g>
<g id="Icon">
	<circle id="Background" class="st0" cx="512" cy="512" r="512"/>
	<path class="st1" d="M588.6,385c0-21,6.9-40.5,20.7-58.5c13.8-18,49.7-27,107.7-27V518l-9.9,31.9c-4.7,15.2-11,29.9-18.9,43.7
		c-7.2,12.4-16.1,23.7-26.6,33.5c-10.2,9.5-21.9,17.3-34.5,23.3c-12.8,6.1-26.8,10.6-42.1,13.5c2.3-12.7,3.6-25.6,3.6-38.6V385z
		 M384,324.2h25.7V349H384L384,324.2L384,324.2z M409.7,361.9h25.7v24.8h-25.7C409.7,386.7,409.7,361.9,409.7,361.9z M384,393.4
		h25.7v24.8H384V393.4z M358.4,430.6H384v25.3h-25.7V430.6z M307,298.9h25.7v25.3H307C307,324.2,307,298.9,307,298.9z M435.4,625.3
		c0,21.6,4,40.4,11.9,56.3c8,16,16.8,29.3,26.4,39.9c9.6,10.7,18.4,18.6,26.4,23.7l11.9,7.8c-32.1,0-60.9-4.5-86.3-13.5
		c-25.4-9-46.9-21.6-64.4-37.7c-17.4-15.9-31.1-35.3-40.3-57c-9.3-21.9-14-45.5-14-71V368.1h25.7v137.5h25.7v-24.8H384v55.4h25.7
		v-93.1h25.7V625.3z M530,677.2c23.7,0.9,45.5-0.9,65.3-5.3c19.8-4.4,37.6-11.8,53.4-22c16-10.4,29.8-23.8,40.8-39.5
		c11.4-16.1,20.6-35.4,27.5-57.9v21.3c0,24.2-4.1,46.8-12.4,67.6c-8.1,20.7-20.5,39.4-36.3,55c-15.9,15.8-35.3,28.6-58.1,38.4
		c-22.8,9.8-48.8,15.5-77.9,17.3l-15.3-8c-1.2-0.9-11.1-8.6-29.7-23.3c-18.6-14.6-31.4-36.7-38.3-66.3c10.2,6.2,22,11.3,35.4,15.3
		C497.7,673.9,512.9,676.3,530,677.2z M358.4,349.5h25.2v24.8h-25.2V349.5z"/>
</g>
</svg>
