<svg xmlns="http://www.w3.org/2000/svg" viewBox="0 0 1024 1024" style="enable-background:new 0 0 1024 1024" xml:space="preserve">
   <circle cx="512" cy="512" r="512" style="fill:#00a0df"/>
   <path d="M588.6 385c0-21 6.9-40.5 20.7-58.5 13.8-18 49.7-27 107.7-27V518l-9.9 31.9c-4.7 15.2-11 29.9-18.9 43.7-7.2 12.4-16.1 23.7-26.6 33.5-10.2 9.5-21.9 17.3-34.5 23.3-12.8 6.1-26.8 10.6-42.1 13.5 2.3-12.7 3.6-25.6 3.6-38.6V385zM384 324.2h25.7V349H384v-24.8zm25.7 37.7h25.7v24.8h-25.7v-24.8zM384 393.4h25.7v24.8H384v-24.8zm-25.6 37.2H384v25.3h-25.7v-25.3zM307 298.9h25.7v25.3H307v-25.3zm128.4 326.4c0 21.6 4 40.4 11.9 56.3 8 16 16.8 29.3 26.4 39.9 9.6 10.7 18.4 18.6 26.4 23.7L512 753c-32.1 0-60.9-4.5-86.3-13.5s-46.9-21.6-64.4-37.7c-17.4-15.9-31.1-35.3-40.3-57-9.3-21.9-14-45.5-14-71V368.1h25.7v137.5h25.7v-24.8H384v55.4h25.7v-93.1h25.7v182.2zm94.6 51.9c23.7.9 45.5-.9 65.3-5.3 19.8-4.4 37.6-11.8 53.4-22 16-10.4 29.8-23.8 40.8-39.5 11.4-16.1 20.6-35.4 27.5-57.9v21.3c0 24.2-4.1 46.8-12.4 67.6-8.1 20.7-20.5 39.4-36.3 55-15.9 15.8-35.3 28.6-58.1 38.4-22.8 9.8-48.8 15.5-77.9 17.3l-15.3-8c-1.2-.9-11.1-8.6-29.7-23.3-18.6-14.6-31.4-36.7-38.3-66.3 10.2 6.2 22 11.3 35.4 15.3 13.3 4.1 28.5 6.5 45.6 7.4zM358.4 349.5h25.2v24.8h-25.2v-24.8z" style="fill:#fff"/>
</svg>
