<?xml version="1.0" encoding="UTF-8" standalone="no"?>
<svg
   xmlns:dc="http://purl.org/dc/elements/1.1/"
   xmlns:cc="http://creativecommons.org/ns#"
   xmlns:rdf="http://www.w3.org/1999/02/22-rdf-syntax-ns#"
   xmlns:svg="http://www.w3.org/2000/svg"
   xmlns="http://www.w3.org/2000/svg"
   viewBox="0 0 1365.3333 1365.3333"
   height="1365.3333"
   width="1365.3333"
   xml:space="preserve"
   id="svg2"
   version="1.1"><metadata
     id="metadata8"><rdf:RDF><cc:Work
         rdf:about=""><dc:format>image/svg+xml</dc:format><dc:type
           rdf:resource="http://purl.org/dc/dcmitype/StillImage" /></cc:Work></rdf:RDF></metadata><defs
     id="defs6"><clipPath
       id="clipPath18"
       clipPathUnits="userSpaceOnUse"><path
         id="path16"
         d="M 0,1024 H 1024 V 0 H 0 Z" /></clipPath></defs><g
     transform="matrix(1.3333333,0,0,-1.3333333,0,1365.3333)"
     id="g10"><g
       id="g12"><g
         clip-path="url(#clipPath18)"
         id="g14"><g
           transform="translate(1024,512)"
           id="g20"><path
             id="path22"
             style="fill:#100f0d;fill-opacity:1;fill-rule:nonzero;stroke:none"
             d="m 0,0 c 0,-282.77 -229.23,-512 -512,-512 -282.77,0 -512,229.23 -512,512 0,282.77 229.23,512 512,512 C -229.23,512 0,282.77 0,0" /></g><g
           transform="translate(701.2949,421.3701)"
           id="g24"><path
             id="path26"
             style="fill:#ffffff;fill-opacity:1;fill-rule:nonzero;stroke:none"
             d="m 0,0 c -35.604,-80.701 -108.924,-123.025 -187.087,-121.873 -150.075,7.402 -193.786,180.602 -93.437,243.042 l 4.395,-4.394 c -1.621,-2.304 -7.638,-6.933 -16.874,-25.215 -10.88,-22.207 -14.336,-44.393 -12.949,-58.281 7.871,-120.956 177.381,-145.702 235.639,-25.898 74.238,163.963 -122.79,330.699 -297.632,203.279 l -3.925,3.925 c 46.015,72.147 135.974,104.295 221.773,82.792 C -18.965,264.312 51.561,127.633 -0.021,-0.021 Z m -140.368,2.539 c -12.554,-18.135 -33.218,-28.941 -55.274,-28.906 -37.124,-0.047 -67.256,30.01 -67.304,67.134 v 0.171 c 0.072,35.245 27.291,64.481 62.441,67.069 21.737,0.917 42.089,-10.88 51.561,-29.822 10.449,-20.905 6.557,-46.128 -9.706,-62.911 6.25,-4.394 12.265,-8.554 18.26,-12.713 z m -234.723,44.414 c -3.243,-26.601 -1.152,-34.921 -1.152,-38.164 l -6.016,-2.091 c -2.304,4.395 -7.872,19.883 -10.41,40.703 -6.485,79.315 47.635,150.779 130.192,164.198 75.624,11.092 148.006,-35.839 164.88,-101.522 l -6.015,-2.091 c -1.857,1.856 -4.865,7.168 -16.427,18.73 -91.346,91.346 -234.722,49.492 -255.074,-79.784 z M 57.342,90.877 c -5.546,262.242 -354.292,360.073 -488.645,114.236 6.016,-4.394 14.101,-10.176 20.117,-14.335 -9.911,-20.757 -16.917,-42.78 -20.821,-65.448 -2.596,-14.584 -3.91,-29.368 -3.925,-44.181 0,-135.973 110.546,-246.519 246.754,-246.519 136.209,0 246.52,110.31 246.52,246.519 v 9.707 z" /></g></g></g></g></svg>