<svg xmlns="http://www.w3.org/2000/svg" viewBox="0 0 1024 1024">
   <circle cx="512" cy="512" r="512" style="fill:gray"/>
   <path d="M738.88 375.13 531.33 256v91.6l.53.3v.22l81 46.59a4 4 0 0 1 1.27 1.2 4.51 4.51 0 0 1-1.8 6.22L516 457.73a9.1 9.1 0 0 1-9 0l-95.83-55.59a4.5 4.5 0 0 1 0-7.94l81-46.59V256L285.65 375.13v.87l-.53-.31v238.76l79.42-45.53v-.23l.53-.3v-93.72a4.39 4.39 0 0 1 1.11-2.83 4.23 4.23 0 0 1 5.25-.35l96.36 55.59a9.84 9.84 0 0 1 4.77 7.94v111.2c-.41 2.06-2.76 3.78-5.27 3.7a4.55 4.55 0 0 1-1.08-.52l-81-46.59-.53.3-.53-.3-79.42 45.53 206.48 119.13v-.61l.53.31v.83l206.49-119.13-.19-.11.72-.42-79.42-45.54-81 46.59c-2.65 1.59-6.88-.53-6.88-3.71V534.5a9 9 0 0 1 2.41-6.13 8.4 8.4 0 0 1 1.83-1.28L652 471.5c2.65-1.59 6.88.53 6.88 3.71v93.72l79.42 45.53v-238.8l-.19-.11Z" style="fill:#fff"/>
</svg>
