<svg xmlns="http://www.w3.org/2000/svg" viewBox="0 0 1024 1024">
   <circle cx="512" cy="512" r="512" style="fill:#4c47f7"/>
   <path d="M784.35 265.52v-18L676.6 328.37v-89.78l-125.72 69.14v114.94L425.16 517V376.87L317.4 436.14v143.68q0 8.78.83 17.35l-108.38 81.27-.21.15h.07L325 631.73a179.62 179.62 0 0 0 351.6-51.91v-90.93l107.76-43.77v-18L676.6 474.3v-14.6l107.76-50.5v-18L676.6 445.11v-14.58l107.76-57.25v-18L676.6 415.94v-14.6l107.76-64v-18l-107.76 67.4v-14.59l107.76-70.71v-18L676.6 357.56V343ZM322.43 622.2l-112.5 56.24 111.77-59.37q.36 1.57.73 3.13Zm-3.87-21.89q.18 1.57.38 3.14l-109 74.9Zm-108.82 78.23h-.05.06l.1-.07 109.52-71.87q.23 1.57.5 3.13l-110.11 68.79 110.67-65.7q.29 1.57.61 3.13l-111.25 62.57 113.44-53.16q.42 1.59.86 3.17Zm341.13-98.72a62.86 62.86 0 0 1-124.79 10.85L550.88 540Zm0-50.52-125.56 54.93q-.15-2.19-.15-4.41v-2.25l125.72-58.93Zm0-21.33-125.71 62.86v-6.73l125.72-66.78Zm0-21.32-125.71 70.72v-6.74L550.88 476Zm0-21.34-125.71 78.58v-6.73l125.72-82.51Zm0-21.33-125.71 86.44v-6.73l125.72-90.36Z" style="fill:#fff"/>
</svg>
