<?xml version="1.0" encoding="utf-8"?>
<!-- Generator: Adobe Illustrator 21.0.0, SVG Export Plug-In . SVG Version: 6.00 Build 0)  -->
<svg version="1.1" xmlns="http://www.w3.org/2000/svg" xmlns:xlink="http://www.w3.org/1999/xlink" x="0px" y="0px"
	 viewBox="0 0 1024 1024" style="enable-background:new 0 0 1024 1024;" xml:space="preserve">
<style type="text/css">
	.st0{fill:#7B00FF;}
	.st1{fill:#FFFFFF;}
</style>
<g id="Guides">
</g>
<g id="Icon">
	<circle class="st0" cx="512" cy="512" r="512"/>
	<g id="logo-cables_1_" transform="translate(0.000000, 0.641007)">
		<path id="Shape_4_" class="st1" d="M784.3,538.4H469.8v23.6h314.7c15,0,27.1,12,27.1,27.1c0,15-12,27.1-27.1,27.1H445.9V507.9
			h-23.6v132h362c27.9,0,50.7-22.8,50.7-50.7C835,561.2,812.2,538.4,784.3,538.4z"/>
		<path id="Shape_3_" class="st1" d="M212.6,511.4c0-15,12-27.1,27.1-27.1H551c27.9,0,50.7-22.8,50.7-50.7s-22.8-50.7-50.7-50.7
			H422.5V437h23.6v-30.5H551c15,0,27.1,12,27.1,27.1c0,15-12,27.1-27.1,27.1H239.7c-27.9,0-50.7,22.8-50.7,50.7
			c0,27.9,22.6,50.9,50.7,50.9h159v-23.6h-159C224.7,538.4,212.6,526.4,212.6,511.4z"/>
	</g>
</g>
</svg>
