<svg xmlns="http://www.w3.org/2000/svg" viewBox="0 0 1024 1024" style="enable-background:new 0 0 1024 1024" xml:space="preserve">
   <style>
      .st1{fill:#fff}
   </style>
   <g id="Icon">
      <circle cx="512" cy="512" r="512" style="fill:#7b00ff"/>
      <g id="logo-cables_1_" transform="translate(0 .641)">
         <path id="Shape_4_" class="st1" d="M784.3 538.4H469.8V562h314.7c15 0 27.1 12 27.1 27.1 0 15-12 27.1-27.1 27.1H445.9V507.9h-23.6v132h362c27.9 0 50.7-22.8 50.7-50.7 0-28-22.8-50.8-50.7-50.8z"/>
         <path id="Shape_3_" class="st1" d="M212.6 511.4c0-15 12-27.1 27.1-27.1H551c27.9 0 50.7-22.8 50.7-50.7s-22.8-50.7-50.7-50.7H422.5V437h23.6v-30.5H551c15 0 27.1 12 27.1 27.1 0 15-12 27.1-27.1 27.1H239.7c-27.9 0-50.7 22.8-50.7 50.7 0 27.9 22.6 50.9 50.7 50.9h159v-23.6h-159c-15-.3-27.1-12.3-27.1-27.3z"/>
      </g>
   </g>
</svg>
