<svg xmlns="http://www.w3.org/2000/svg" viewBox="0 0 1024 1024" style="enable-background:new 0 0 1024 1024" xml:space="preserve">
   <circle cx="512" cy="512" r="512" style="fill:#3bd771"/>
   <path d="M324.6 356.8v81.3c0 9.1-1.9 17.2-5.9 24-4 6.8-9.5 11.9-17 15.5-7.4 3.6-16.1 5.3-26.1 5.3-15.1 0-27.2-4-35.9-11.9-8.7-7.8-13.2-18.7-13.4-32.2v-81.9h30.1v82.5c.4 13.6 6.6 20.4 18.9 20.4 6.2 0 10.8-1.7 14-5.1 3.2-3.4 4.9-8.9 4.9-16.5v-81.3h30.4zm105.8 79c0 14.4-3.2 25.9-9.8 34.4-6.4 8.5-15.3 12.9-26.1 12.9-8.5 0-15.5-3.2-21-9.3v43.1h-28.9v-128h26.9l.8 8.5c5.5-6.8 12.7-10.2 21.9-10.2 11.5 0 20.2 4.2 26.5 12.5 6.4 8.3 9.5 19.9 9.5 34.6l.2 1.5zm-28.8-2c0-16.3-4.9-24.6-14.4-24.6-6.8 0-11.5 2.5-13.6 7.4v36.3c2.5 5.1 7.2 7.6 13.8 7.6 9.1 0 13.8-7.8 14.2-23.8v-2.9zm77.6-68.1v22.9h15.3v19.9h-15.3v42.2c0 3.4.6 5.9 1.9 7.2 1.3 1.3 3.8 2.1 7.4 2.1 2.8 0 5.3-.2 7.2-.4v20.6c-5.1 1.7-10.6 2.5-16.1 2.5-10 0-17.2-2.3-21.9-7-4.7-4.7-7-11.7-7-21.2v-45.8h-11.9v-19.9h11.9v-23.1h28.5zm28.9-.8c0-4 1.5-7.4 4.5-10.2 3-2.5 6.8-4 11.5-4s8.5 1.3 11.5 4c3 2.5 4.5 5.9 4.5 10.2 0 4-1.5 7.4-4.5 10.2-3 2.5-6.8 4-11.5 4s-8.5-1.3-11.5-4-4.5-6.2-4.5-10.2zm30.5 116.3h-28.9v-92.3h28.9v92.3zm47.5-92.3.8 10.8c6.6-8.3 15.3-12.5 26.3-12.5 11.7 0 19.5 4.7 23.5 14 6.4-9.3 15.3-14 27.2-14 18.7 0 28.4 11.2 28.9 33.9v60H664v-58.3c0-4.7-.8-8.1-2.3-10.4-1.7-2.1-4.5-3.2-8.7-3.2-5.7 0-10 2.5-12.7 7.6v64.3h-28.9V423c0-4.9-.8-8.3-2.3-10.4-1.5-2.1-4.5-3.2-8.7-3.2-5.5 0-9.8 2.5-12.7 7.6v64.3h-28.9v-92.5h27.3v.1zm172.5 94c-14.2 0-25.7-4.2-34.4-12.7S711 450.7 711 437.1V435c0-9.5 1.7-17.8 5.3-25 3.4-7.2 8.7-12.7 15.3-16.8 6.8-4 14.6-5.9 24-5.9 12.9 0 23.1 4 30.8 12.1 7.4 8.1 11.2 19.3 11.2 33.7v11.2h-57.3c1.1 5.1 3.2 9.3 6.8 12.3 3.4 3 8.1 4.5 13.6 4.5 9.1 0 16.1-3.2 21.4-9.5l13.2 15.5c-3.6 4.9-8.7 8.9-15.3 11.9-6.7 2.4-13.7 3.9-21.4 3.9zm-3.2-73.7c-8.5 0-13.4 5.5-15.1 16.8h29.1v-2.1c.2-4.7-1.1-8.3-3.6-10.6-2.3-2.8-5.9-4.1-10.4-4.1zM352.6 619.6c7.4-3.4 12.7-8.1 16.3-13.8 3.6-5.7 5.3-12.7 5.3-21.4 0-12.1-4.2-21.2-12.5-27.8-8.3-6.6-19.9-9.8-34.6-9.8h-49v124.3H308v-43.9h16.1l22.3 43.9h32v-1.3l-25.8-50.2zm-13-19.9c-3 3-7.2 4.5-12.9 4.5h-18.9V570h18.9c5.5 0 9.8 1.7 12.7 4.7 3 3 4.5 7.2 4.5 12.5s-1.3 9.5-4.3 12.5zm126.9-9.5c-7.8-8.7-18.9-12.9-32.7-12.9-8.9 0-16.8 1.9-23.5 5.7-6.8 3.8-11.9 9.3-15.5 16.5-3.6 7.2-5.3 15.5-5.3 24.6l-.2 5.3c.6 13.4 4.9 24.2 12.9 32 7.8 7.8 18.5 11.9 31.6 11.9 13.6 0 24.4-4.2 32.5-12.7 8.1-8.5 12.1-19.9 12.1-34.4v-1.1c0-14.8-3.8-26.5-11.9-34.9zm-16.6 37.1c-.2 15.7-5.5 23.5-15.7 23.5-5.3 0-9.1-1.9-11.9-5.9-2.8-4-4-10.4-4-18.9v-5.1c.8-14.2 6.2-21.4 15.7-21.4 10.6 0 15.9 8.3 15.9 24.8v3zm120.5-37.8c-6.4-8.3-15.3-12.3-26.7-12.3-8.5 0-15.5 3-20.8 9.1v-46.2H494v131.3h26l1.3-9.5c5.7 7.4 13.4 11.2 22.7 11.2 11.5 0 20.2-4.2 26.5-12.3 6.2-8.3 9.3-19.9 9.3-35v-1.5c0-14.8-3-26.5-9.4-34.8zm-21 51.4c-1.9 6.6-6.2 10-12.9 10-6.6 0-11-2.5-13.6-7.4v-36.7c2.5-4.9 7-7.4 13.6-7.4 4.9 0 8.5 1.9 10.8 5.7 2.3 3.6 3.6 10 3.6 18.9 0 8-.4 13.7-1.5 16.9zm119.1-50.7c-7.8-8.7-18.9-12.9-32.7-12.9-8.9 0-16.8 1.9-23.5 5.7-6.8 3.8-11.9 9.3-15.5 16.5-3.6 7.2-5.3 15.5-5.3 24.6l-.2 5.3c.6 13.4 4.9 24.2 12.9 32 7.8 7.8 18.5 11.9 31.6 11.9 13.6 0 24.4-4.2 32.5-12.7 8.1-8.5 12.1-19.9 12.1-34.4v-1.1c-.1-14.8-3.9-26.5-11.9-34.9zm-16.8 37.1c-.2 15.7-5.5 23.5-15.7 23.5-5.3 0-9.1-1.9-11.9-5.9-2.8-4-4-10.4-4-18.9v-5.1c.8-14.2 6.2-21.4 15.7-21.4 10.6 0 15.9 8.3 15.9 24.8v3zm49.2-71.5v23.1H689v19.9h11.9v45.8c0 9.5 2.3 16.5 7 21.2 4.7 4.7 11.9 7 21.9 7 5.5 0 11-.8 16.1-2.5v-20.6c-1.9.2-4.5.4-7.2.4-3.6 0-6.2-.8-7.4-2.1s-1.9-3.8-1.9-7.2v-42.2h15.3v-19.9h-15.3v-22.9h-28.5z" style="fill:#fff"/>
</svg>
