<?xml version="1.0" encoding="utf-8"?>
<!-- Generator: Adobe Illustrator 21.0.0, SVG Export Plug-In . SVG Version: 6.00 Build 0)  -->
<svg version="1.1" xmlns="http://www.w3.org/2000/svg" xmlns:xlink="http://www.w3.org/1999/xlink" x="0px" y="0px"
	 viewBox="0 0 1024 1024" style="enable-background:new 0 0 1024 1024;" xml:space="preserve">
<style type="text/css">
	.st0{fill:#3BD771;}
	.st1{fill:#FFFFFF;}
</style>
<g id="Min_Guides__x28_DO_NOT_REMOVE_x29_">
</g>
<g id="Max_Guides__x28_DO_NOT_REMOVE_x29_">
</g>
<g id="Icon">
	<circle id="Background" class="st0" cx="512" cy="512" r="512"/>
	<g>
		<g>
			<path class="st1" d="M324.6,356.8v81.3c0,9.1-1.9,17.2-5.9,24c-4,6.8-9.5,11.9-17,15.5c-7.4,3.6-16.1,5.3-26.1,5.3
				c-15.1,0-27.2-4-35.9-11.9c-8.7-7.8-13.2-18.7-13.4-32.2v-81.9h30.1v82.5c0.4,13.6,6.6,20.4,18.9,20.4c6.2,0,10.8-1.7,14-5.1
				c3.2-3.4,4.9-8.9,4.9-16.5v-81.3C294.2,356.8,324.6,356.8,324.6,356.8z M430.4,435.8c0,14.4-3.2,25.9-9.8,34.4
				c-6.4,8.5-15.3,12.9-26.1,12.9c-8.5,0-15.5-3.2-21-9.3v43.1h-28.9V388.9h26.9l0.8,8.5c5.5-6.8,12.7-10.2,21.9-10.2
				c11.5,0,20.2,4.2,26.5,12.5c6.4,8.3,9.5,19.9,9.5,34.6L430.4,435.8L430.4,435.8z M401.6,433.8c0-16.3-4.9-24.6-14.4-24.6
				c-6.8,0-11.5,2.5-13.6,7.4v36.3c2.5,5.1,7.2,7.6,13.8,7.6c9.1,0,13.8-7.8,14.2-23.8C401.6,436.8,401.6,433.8,401.6,433.8z
				 M479.2,365.7v22.9h15.3v19.9h-15.3v42.2c0,3.4,0.6,5.9,1.9,7.2c1.3,1.3,3.8,2.1,7.4,2.1c2.8,0,5.3-0.2,7.2-0.4v20.6
				c-5.1,1.7-10.6,2.5-16.1,2.5c-10,0-17.2-2.3-21.9-7c-4.7-4.7-7-11.7-7-21.2v-45.8h-11.9v-19.9h11.9v-23.1H479.2z M508.1,364.9
				c0-4,1.5-7.4,4.5-10.2c3-2.5,6.8-4,11.5-4s8.5,1.3,11.5,4c3,2.5,4.5,5.9,4.5,10.2c0,4-1.5,7.4-4.5,10.2c-3,2.5-6.8,4-11.5,4
				s-8.5-1.3-11.5-4S508.1,368.9,508.1,364.9z M538.6,481.2h-28.9v-92.3h28.9V481.2z M586.1,388.9l0.8,10.8
				c6.6-8.3,15.3-12.5,26.3-12.5c11.7,0,19.5,4.7,23.5,14c6.4-9.3,15.3-14,27.2-14c18.7,0,28.4,11.2,28.9,33.9v60H664v-58.3
				c0-4.7-0.8-8.1-2.3-10.4c-1.7-2.1-4.5-3.2-8.7-3.2c-5.7,0-10,2.5-12.7,7.6v64.3h-28.9V423c0-4.9-0.8-8.3-2.3-10.4
				c-1.5-2.1-4.5-3.2-8.7-3.2c-5.5,0-9.8,2.5-12.7,7.6v64.3h-28.9v-92.5H586.1L586.1,388.9z M758.6,482.9
				c-14.2,0-25.7-4.2-34.4-12.7c-8.7-8.5-13.2-19.5-13.2-33.1v-2.1c0-9.5,1.7-17.8,5.3-25c3.4-7.2,8.7-12.7,15.3-16.8
				c6.8-4,14.6-5.9,24-5.9c12.9,0,23.1,4,30.8,12.1c7.4,8.1,11.2,19.3,11.2,33.7v11.2h-57.3c1.1,5.1,3.2,9.3,6.8,12.3
				c3.4,3,8.1,4.5,13.6,4.5c9.1,0,16.1-3.2,21.4-9.5l13.2,15.5c-3.6,4.9-8.7,8.9-15.3,11.9C773.3,481.4,766.3,482.9,758.6,482.9
				L758.6,482.9z M755.4,409.2c-8.5,0-13.4,5.5-15.1,16.8h29.1v-2.1c0.2-4.7-1.1-8.3-3.6-10.6C763.5,410.5,759.9,409.2,755.4,409.2z
				"/>
		</g>
		<g>
			<g>
				<path class="st1" d="M352.6,619.6c7.4-3.4,12.7-8.1,16.3-13.8c3.6-5.7,5.3-12.7,5.3-21.4c0-12.1-4.2-21.2-12.5-27.8
					c-8.3-6.6-19.9-9.8-34.6-9.8h-49v124.3H308v-43.9h16.1l22.3,43.9h32v-1.3L352.6,619.6z M339.6,599.7c-3,3-7.2,4.5-12.9,4.5
					h-18.9V570h18.9c5.5,0,9.8,1.7,12.7,4.7c3,3,4.5,7.2,4.5,12.5C343.9,592.5,342.6,596.7,339.6,599.7z"/>
			</g>
			<g>
				<path class="st1" d="M466.5,590.2c-7.8-8.7-18.9-12.9-32.7-12.9c-8.9,0-16.8,1.9-23.5,5.7c-6.8,3.8-11.9,9.3-15.5,16.5
					c-3.6,7.2-5.3,15.5-5.3,24.6l-0.2,5.3c0.6,13.4,4.9,24.2,12.9,32c7.8,7.8,18.5,11.9,31.6,11.9c13.6,0,24.4-4.2,32.5-12.7
					c8.1-8.5,12.1-19.9,12.1-34.4v-1.1C478.4,610.3,474.6,598.6,466.5,590.2z M449.9,627.3c-0.2,15.7-5.5,23.5-15.7,23.5
					c-5.3,0-9.1-1.9-11.9-5.9c-2.8-4-4-10.4-4-18.9v-5.1c0.8-14.2,6.2-21.4,15.7-21.4c10.6,0,15.9,8.3,15.9,24.8V627.3z"/>
			</g>
			<g>
				<path class="st1" d="M570.4,589.5c-6.4-8.3-15.3-12.3-26.7-12.3c-8.5,0-15.5,3-20.8,9.1v-46.2h-28.9v131.3H520l1.3-9.5
					c5.7,7.4,13.4,11.2,22.7,11.2c11.5,0,20.2-4.2,26.5-12.3c6.2-8.3,9.3-19.9,9.3-35v-1.5C579.8,609.5,576.8,597.8,570.4,589.5z
					 M549.4,640.9c-1.9,6.6-6.2,10-12.9,10c-6.6,0-11-2.5-13.6-7.4v-36.7c2.5-4.9,7-7.4,13.6-7.4c4.9,0,8.5,1.9,10.8,5.7
					c2.3,3.6,3.6,10,3.6,18.9C550.9,632,550.5,637.7,549.4,640.9z"/>
			</g>
			<g>
				<path class="st1" d="M668.5,590.2c-7.8-8.7-18.9-12.9-32.7-12.9c-8.9,0-16.8,1.9-23.5,5.7c-6.8,3.8-11.9,9.3-15.5,16.5
					c-3.6,7.2-5.3,15.5-5.3,24.6h0l-0.2,5.3c0.6,13.4,4.9,24.2,12.9,32c7.8,7.8,18.5,11.9,31.6,11.9c13.6,0,24.4-4.2,32.5-12.7
					c8.1-8.5,12.1-19.9,12.1-34.4v-1.1C680.3,610.3,676.5,598.6,668.5,590.2z M651.7,627.3c-0.2,15.7-5.5,23.5-15.7,23.5
					c-5.3,0-9.1-1.9-11.9-5.9c-2.8-4-4-10.4-4-18.9v-5.1c0.8-14.2,6.2-21.4,15.7-21.4c10.6,0,15.9,8.3,15.9,24.8V627.3z"/>
			</g>
			<path class="st1" d="M729.4,555.8v22.9h15.3v19.9h-15.3v42.2c0,3.4,0.6,5.9,1.9,7.2s3.8,2.1,7.4,2.1c2.8,0,5.3-0.2,7.2-0.4v20.6
				c-5.1,1.7-10.6,2.5-16.1,2.5c-10,0-17.2-2.3-21.9-7c-4.7-4.7-7-11.7-7-21.2v-45.8H689v-19.9h11.9v-23.1H729.4z"/>
		</g>
	</g>
</g>
</svg>
