<?xml version="1.0" encoding="utf-8"?>
<!-- Generator: Adobe Illustrator 21.0.0, SVG Export Plug-In . SVG Version: 6.00 Build 0)  -->
<svg version="1.1" xmlns="http://www.w3.org/2000/svg" xmlns:xlink="http://www.w3.org/1999/xlink" x="0px" y="0px"
	 viewBox="0 0 1024 1024" style="enable-background:new 0 0 1024 1024;" xml:space="preserve">
<style type="text/css">
	.st0{fill:#104F5A;}
	.st1{fill:#FFFFFF;}
</style>
<g id="Min_Guides__x28_DO_NOT_REMOVE_x29_">
</g>
<g id="Max_Guides__x28_DO_NOT_REMOVE_x29_">
</g>
<g id="Icon">
	<circle id="Background" class="st0" cx="512" cy="512" r="512"/>
	<path class="st1" d="M355.5,443.9h7.2c17.2,1.7,33.4,10.4,44.4,23.7c9.2,11,14.3,25.2,14.9,39.5c0.2,2.9,0.3,5.9,0,8.8
		c-42.3,0-84.5,0-126.8,0c-0.3-7.5,0.1-15,1.9-22.3c2.5-10.4,7.6-20.1,14.7-28C323.1,453.3,338.9,445.1,355.5,443.9z M339.1,476.7
		c-5,3.9-9.1,9.1-11.2,15.1c15.9,0,31.8,0,47.7,0c5.1-0.1,10.1,0.1,15.2-0.1c-2.8-7.1-7.9-13.2-14.4-17.2
		c-5.1-3.1-11.1-4.8-17.1-4.7C351.9,469.8,344.8,472.3,339.1,476.7z M559.6,457.4c-7.6,4.7-13.4,12.3-15.4,21
		c-1.2,4.5-1.3,9.2-1,13.9c0.4,4.6,1.8,9.1,4.2,13c2.3,3.8,5.6,7,9.2,9.6c6.1,4.2,13.1,6.9,20.2,9.2c6.5,2.1,13.1,3.7,19.6,6.1
		c2.8,1.1,5.6,2.3,7.8,4.4c1.6,1.5,2.7,3.6,2.5,5.8c0.1,3-2,5.6-4.6,6.9c-4.1,2.1-8.9,1.8-13.4,1.6c-14.1-1.3-27.6-6.9-39.2-15
		c-0.3,0.4-0.7,0.8-0.9,1.3c-3.5,7.2-7.1,14.3-10.6,21.5c-0.3,0.7-0.9,1.4-0.7,2.2c3.6,2.8,7.5,5.2,11.5,7.3
		c13.8,7,29.3,10.1,44.7,9.8c8.4,0,16.9-1.4,24.8-4.4c5.6-2.2,10.9-5.3,15.2-9.5c5.1-5,8.5-11.6,9.6-18.6c1.3-7.9,0.6-16.3-3.5-23.3
		c-2.7-4.7-6.7-8.5-11.2-11.4c-6.1-3.9-12.9-6.4-19.7-8.6c-6.9-2.2-14.1-3.9-20.9-6.6c-2.6-1.1-5.3-2.4-7.3-4.6
		c-2.3-2.6-2-6.8,0.1-9.4c1.6-1.9,4.1-2.8,6.5-3.3c4.3-0.7,8.6-0.3,12.8,0.5c10.6,2,20.6,6.5,30.1,11.4c3.8-7.3,7.6-14.5,11.4-21.8
		c0.6-1.2,1.4-2.3,1.6-3.7c-12-6.8-25.4-11.5-39.2-13c-8.5-1-17.1-0.9-25.6,0.6C571.8,451.5,565.3,453.7,559.6,457.4z M485.3,467.7
		c-0.4,0.6-0.8,1.2-1.3,1.8c-0.3-2.8-0.1-5.7-0.1-8.5c0-3.5-0.1-6.9,0.1-10.4c-12,0.1-24,0-35.9,0c0,41.3,0,82.6,0,123.9
		c12,0,24,0.1,36,0c0-20.9,0-41.8,0-62.7c0.6-6.4,3.4-12.7,7.9-17.2c3.9-4.1,9-6.8,14.3-8.4c5.9-1.9,12.2-1.9,18.4-1.6
		c0-11.5,0.1-23.1-0.1-34.6c-10.4,0-21.3,1.9-30,8C491,460.6,487.6,463.8,485.3,467.7z M774.8,454c7.8-2.8,16.2-4,24.5-4.3
		c8.8-0.2,17.6,0.7,26.1,3.2c11.8,3.4,22.8,10.3,30.5,20c8.2,10.2,12.2,23.3,12.7,36.3v7.6c-0.5,6.6-1.7,13.3-4,19.5
		c-4.3,11.8-12.6,22-23.3,28.6c-11.9,7.6-26.3,10.4-40.2,10.4c-7.7-0.2-15.5-1-22.9-3.3c-12.2-3.6-23.5-10.8-31.2-21.1
		c-8.3-10.8-12.1-24.6-12-38.1c-0.2-13.1,3.1-26.5,10.7-37.3C752.7,465.5,763.1,458,774.8,454z M797.6,480.4
		c-6,0.8-11.7,3.7-15.7,8.2c-5.4,5.8-7.9,13.7-8.3,21.5c-0.4,7.1,0.6,14.4,3.9,20.7c2.6,5,6.6,9.4,11.7,11.9
		c5.9,3,12.9,3.6,19.3,2.1c6.1-1.4,11.6-5.2,15.2-10.3c4.5-6.5,6.3-14.5,6.1-22.4c0.1-9.8-3.5-20-11.2-26.3
		C812.8,481.1,805,479.3,797.6,480.4z M155.5,451.7c0.3,0.6,0.6,1.2,0.8,1.9c13.9,37.5,27.8,75,41.7,112.6c1,2.6,1.8,5.3,3,7.8
		c13.2,0,26.3,0,39.5,0c0.8-1.7,1.4-3.5,2.1-5.3c10.2-27.5,20.4-55,30.6-82.6c4.2-11.7,8.7-23.2,12.8-34.9c-12.2-0.1-24.3,0-36.5,0
		c-0.8-0.2-1.1,0.6-1.3,1.3c-8.7,28-17.5,56-26.2,84c-0.2,0.6-0.4,1.1-0.6,1.6c-9-28.9-18-57.9-26.9-86.9c-13-0.1-25.9,0-38.9-0.1
		V451.7z M673.7,573.9c2.5,0.1,5,0,7.5,0.1c9.6,0,19.2,0.1,28.8,0c0-40.9,0-81.8,0-122.7c-12.1,0-24.2-0.1-36.4,0
		C673.7,492.1,673.7,533,673.7,573.9z M305,542.2c-1.7,1-3.5,1.9-5.1,3.1c2.5,5.1,6.1,9.6,9.9,13.8c9.9,10.6,23.3,17.7,37.5,20.1
		c2,0.3,4.1,0.5,6.1,0.9h10c13.4-1.1,26.5-6,36.9-14.5c5-4,9.5-8.7,13.2-13.9c1.4-2.1,2.8-4.1,3.8-6.4c-2.7-1.9-5.6-3.3-8.4-5
		c-3.4-1.9-6.8-3.9-10.2-5.8c-1.8-1-3.5-2.2-5.4-2.9c-1.9,3.9-4.6,7.3-7.6,10.3c-7.2,7-17.4,10.4-27.4,10.2
		c-7.4,0.1-15-1.8-21.3-5.8c-4.6-2.8-8.4-6.8-11.3-11.4c-0.6-1-1.1-2.1-1.8-3c-0.1,0-0.3-0.1-0.4-0.1c-1.3,0.3-2.4,1.2-3.6,1.9
		C315,536.5,310,539.3,305,542.2z"/>
</g>
</svg>
