<svg xmlns="http://www.w3.org/2000/svg" viewBox="0 0 1024 1024">
   <circle cx="512.1" cy="511.9" r="512" style="fill:#8cc63f"/>
   <path d="M249.7 558.1h-28.8L185.2 463h31.6l20 61.2 19.5-61.2h29.5l-36.1 95.1zm42.2-.1-.1-95.1h30.7l.1 95.1h-30.7zm15.4-105.7c-9 0-16.3-7.3-16.3-16.3s7.3-16.1 16.3-16.1 16.1 7.1 16.1 16.1c.1 9-7 16.3-16.1 16.3m80.7 61.1c-7.3 0-20.7-.4-26.3 5.2-1.7 1.7-3.3 4.2-3.3 8.1 0 9.2 6.9 11.5 11.9 11.5 10.4 0 16.7-4.8 17.6-5.4l.1-19.4zm2.9 44.5v-8.1c-2.1 1.7-11.9 10.2-26.8 10.2-19.2 0-30.9-12.8-30.9-31.1 0-35.1 42.4-35.1 52.3-35.1h2.1c0-3.1.2-6.1-2.3-8.6-1.5-1.5-4.6-3.1-11.3-3.1-13.4 0-25.3 6-26.5 6.5l-9.2-18.2c1.5-1.2 14.6-10.4 37.2-10.4 14.6 0 25.5 3.6 33 11.1 8.2 8.2 7.7 19.4 7.7 31.1l.1 55.6-25.4.1zm189.2-98.2c-29.5 0-51 21.7-51 51.3 0 28.8 20 49.7 48.8 49.6 30.3 0 51.6-21.5 51.6-52 0-27.8-20.6-48.9-49.4-48.9.1 0 .1 0 0 0m-20.2 50.1c0-15.9 7.5-25.5 19.2-25.5 12.3 0 19.8 10.4 19.8 26.1 0 15.9-6.7 25.5-18.6 25.5-12.4 0-20.4-10-20.4-26.1m-83.5-50c-32 0-52.2 23.1-52.1 51.3 0 22.4 12.7 47 43.4 47 12.8 0 19.4-5.6 20.5-6.4v7.3c0 12.9-6.1 19.4-20.7 19.4-15.2 0-27.3-7.7-28.6-8.6l-12.1 19c2.1 1.9 16.9 14.2 44.3 14.1 21.1 0 31.8-8.5 36.6-13.3 11.3-11.1 10.5-22.2 10.5-34.1l-.1-85c-2.8-1.5-20.2-10.7-41.7-10.7m-21.8 49.9c0-16.1 9.6-25.5 21.3-25.5 6.3 0 10.4 1.5 12.3 2.5v42.6c-.4.2-5.6 4.4-14 4.4-10.4 0-19.6-8.3-19.6-24m64.7 45.8-.1-85v-.6l-.5-.3c-6.2-3.3-22.6-10.8-42.3-10.8-15.4 0-28.6 5.2-38.3 14.9-9.5 9.5-14.8 22.8-14.8 37.3 0 23.9 13.8 48 44.4 48 8.1 0 15.1-2.1 20.7-6.3.1-.1.3-.2.3-.2l-1.5-.8v7.3c0 12.7-6.1 18.4-19.7 18.4-15.7 0-27.9-8.3-28-8.4l-.8-.6-.6.9-12.1 19-.4.7.6.6c1.6 1.5 16.9 14.4 45 14.4 15.6 0 28.5-4.7 37.3-13.6 10.9-10.7 10.9-21.4 10.8-32.7v-2.2zM507.1 589c-8.5 8.5-20.9 13-35.9 13-27.4 0-42.1-12.5-43.7-13.9l.2 1.3 12.1-19-1.4.3c.1.1 12.8 8.8 29.2 8.8 14.8 0 21.7-6.5 21.7-20.4v-9.2l-1.5 1c-.1.1-.2.2-.4.3-5.3 3.9-11.9 5.9-19.6 5.9-29.3 0-42.4-23.1-42.4-46 0-14 5-26.8 14.2-35.9 9.4-9.4 22.1-14.3 37-14.3 19.2 0 35.3 7.4 41.4 10.6l-.5-.9.1 85v2.2c-.3 10.7-.2 21-10.5 31.2m-19.4-60.6c-.1 0-.2.1-.4.3-4.9 3.4-9.9 4.1-13.2 4.1-9.2 0-18.6-7.1-18.6-23 0-8 2.4-14.6 6.8-19 3.6-3.6 8.3-5.5 13.5-5.5 6.1 0 10.1 1.5 11.8 2.4l-.5-.9v42.6l.6-1zm.8-42.6c-1.9-1-6.2-2.6-12.7-2.6-5.7 0-10.9 2.2-14.9 6.1-4.8 4.9-7.4 11.9-7.4 20.4 0 17.2 10.7 25 20.6 25 3.6 0 9-.8 14.3-4.4.1 0 .2-.1.2-.1l.5-.3v-43.8l-.6-.3zm142 22.8c0-13.8-5-26.4-14.2-35.6-9.2-9.2-22.1-14.3-36.2-14.3-30.1 0-52 22-52 52.3 0 14.2 4.9 27.1 13.9 36.3 9 9.2 21.8 14.3 35.9 14.3 14.8 0 28.2-5.3 37.7-14.8 9.6-9.5 14.9-23.1 14.9-38.2m-52.6 51.1c-28.1 0-47.8-20-47.8-48.6 0-29.1 21-50.3 50-50.3 28 0 48.3 20.1 48.4 47.9 0 14.6-5 27.7-14.2 36.9-9.1 9-22 14-36.4 14.1m19.9-49.3c0 15.6-6.4 24.5-17.6 24.5-11.9 0-19.4-9.6-19.4-25.1 0-15.1 7-24.5 18.2-24.5 11.6 0 18.8 9.6 18.8 25.1M579 483.3c-12.4 0-20.2 10.2-20.1 26.5 0 16.4 8.4 27.1 21.3 27.1 12.3 0 19.6-9.9 19.6-26.5 0-16.5-8.2-27.1-20.8-27.1m121.6 3.2c-1.9-1-6-2.5-12.3-2.5-11.7 0-21.3 9.4-21.3 25.5 0 15.7 9.2 24 19.6 24 8.4 0 13.6-4.2 14-4.4v-42.6zm19.7 103c-4.8 4.8-15.5 13.3-36.6 13.3-27.4 0-42.2-12.2-44.3-14.2l12.1-19c1.4 1 13.4 8.6 28.6 8.6 14.6 0 20.7-6.5 20.7-19.4v-7.3c-1.2.8-7.7 6.3-20.5 6.4-30.7 0-43.4-24.5-43.4-47 0-28.2 20.1-51.2 52.1-51.3 21.5 0 38.9 9.2 41.8 10.7l.1 85c-.1 11.9.7 23-10.6 34.2m68.2-105.4c-11.7 0-19.2 9.6-19.2 25.5 0 16.1 8.1 26.1 20.4 26.1 11.9 0 18.6-9.6 18.6-25.5 0-15.8-7.5-26.1-19.8-26.1m-1 76.4c-28.8 0-48.7-20.9-48.8-49.6 0-29.5 21.4-51.2 51-51.3 28.8 0 49.3 21.1 49.3 48.9 0 30.4-21.2 51.9-51.5 52" style="fill:#fff"/>
</svg>
