<?xml version="1.0" encoding="utf-8"?>
<!-- Generator: Adobe Illustrator 21.0.0, SVG Export Plug-In . SVG Version: 6.00 Build 0)  -->
<svg version="1.1" xmlns="http://www.w3.org/2000/svg" xmlns:xlink="http://www.w3.org/1999/xlink" x="0px" y="0px"
	 viewBox="0 0 1024 1024" style="enable-background:new 0 0 1024 1024;" xml:space="preserve">
<style type="text/css">
	.st0{fill:#8CC63F;}
	.st1{fill:#FFFFFF;}
</style>
<g id="Min_Guides__x28_DO_NOT_REMOVE_x29_">
</g>
<g id="Max_Guides__x28_DO_NOT_REMOVE_x29_">
</g>
<g id="Icon">
	<circle id="Background_1_" class="st0" cx="512.1" cy="511.9" r="512"/>
	<path class="st1" d="M249.7,558.1l-28.8,0L185.2,463l31.6,0l20,61.2l19.5-61.2l29.5,0L249.7,558.1L249.7,558.1z M291.9,558
		l-0.1-95.1l30.7,0l0.1,95.1L291.9,558z M307.3,452.3c-9,0-16.3-7.3-16.3-16.3c0-9,7.3-16.1,16.3-16.1c9,0,16.1,7.1,16.1,16.1
		C323.5,445,316.4,452.3,307.3,452.3 M388,513.4c-7.3,0-20.7-0.4-26.3,5.2c-1.7,1.7-3.3,4.2-3.3,8.1c0,9.2,6.9,11.5,11.9,11.5
		c10.4,0,16.7-4.8,17.6-5.4L388,513.4z M390.9,557.9l0-8.1c-2.1,1.7-11.9,10.2-26.8,10.2c-19.2,0-30.9-12.8-30.9-31.1
		c0-35.1,42.4-35.1,52.3-35.1h2.1c0-3.1,0.2-6.1-2.3-8.6c-1.5-1.5-4.6-3.1-11.3-3.1c-13.4,0-25.3,6-26.5,6.5l-9.2-18.2
		c1.5-1.2,14.6-10.4,37.2-10.4c14.6,0,25.5,3.6,33,11.1c8.2,8.2,7.7,19.4,7.7,31.1l0.1,55.6L390.9,557.9L390.9,557.9z M580.1,459.7
		c-29.5,0-51,21.7-51,51.3l0,0c0,28.8,20,49.7,48.8,49.6l0,0c30.3,0,51.6-21.5,51.6-52l0,0C629.5,480.8,608.9,459.7,580.1,459.7
		L580.1,459.7C580.2,459.7,580.2,459.7,580.1,459.7 M559.9,509.8c0-15.9,7.5-25.5,19.2-25.5l0,0c12.3,0,19.8,10.4,19.8,26.1l0,0
		c0,15.9-6.7,25.5-18.6,25.5l0,0c0,0,0,0,0,0l0,0C567.9,535.9,559.9,525.9,559.9,509.8 M476.4,459.8c-32,0-52.2,23.1-52.1,51.3l0,0
		c0,22.4,12.7,47,43.4,47l0,0c12.8,0,19.4-5.6,20.5-6.4l0,0v7.3c0,12.9-6.1,19.4-20.7,19.4l0,0c-15.2,0-27.3-7.7-28.6-8.6l0,0
		l-12.1,19c2.1,1.9,16.9,14.2,44.3,14.1l0,0c21.1,0,31.8-8.5,36.6-13.3l0,0c11.3-11.1,10.5-22.2,10.5-34.1l0,0l-0.1-85
		C515.3,469,497.9,459.8,476.4,459.8L476.4,459.8C476.4,459.8,476.4,459.8,476.4,459.8 M454.6,509.7c0-16.1,9.6-25.5,21.3-25.5l0,0
		c6.3,0,10.4,1.5,12.3,2.5l0,0l0,42.6c-0.4,0.2-5.6,4.4-14,4.4l0,0c0,0,0,0,0,0l0,0C463.8,533.7,454.6,525.4,454.6,509.7
		 M519.3,555.5l-0.1-85v-0.6l-0.5-0.3c-6.2-3.3-22.6-10.8-42.3-10.8c-15.4,0-28.6,5.2-38.3,14.9c-9.5,9.5-14.8,22.8-14.8,37.3
		c0,23.9,13.8,48,44.4,48c8.1,0,15.1-2.1,20.7-6.3c0.1-0.1,0.3-0.2,0.3-0.2l-1.5-0.8v7.3c0,12.7-6.1,18.4-19.7,18.4
		c-15.7,0-27.9-8.3-28-8.4l-0.8-0.6l-0.6,0.9l-12.1,19l-0.4,0.7l0.6,0.6c1.6,1.5,16.9,14.4,45,14.4c15.6,0,28.5-4.7,37.3-13.6
		c10.9-10.7,10.9-21.4,10.8-32.7L519.3,555.5L519.3,555.5z M507.1,589c-8.5,8.5-20.9,13-35.9,13c-27.4,0-42.1-12.5-43.7-13.9
		l0.2,1.3l12.1-19l-1.4,0.3c0.1,0.1,12.8,8.8,29.2,8.8c14.8,0,21.7-6.5,21.7-20.4v-7.3v-1.9l-1.5,1c-0.1,0.1-0.2,0.2-0.4,0.3
		c-5.3,3.9-11.9,5.9-19.6,5.9c-29.3,0-42.4-23.1-42.4-46c0-14,5-26.8,14.2-35.9c9.4-9.4,22.1-14.3,37-14.3
		c19.2,0,35.3,7.4,41.4,10.6l-0.5-0.9l0.1,85l0,2.2C517.3,568.5,517.4,578.8,507.1,589 M487.7,528.4c-0.1,0-0.2,0.1-0.4,0.3
		c-4.9,3.4-9.9,4.1-13.2,4.1c-9.2,0-18.6-7.1-18.6-23c0-8,2.4-14.6,6.8-19c3.6-3.6,8.3-5.5,13.5-5.5c6.1,0,10.1,1.5,11.8,2.4
		l-0.5-0.9l0,42.6L487.7,528.4L487.7,528.4z M488.5,485.8c-1.9-1-6.2-2.6-12.7-2.6c-5.7,0-10.9,2.2-14.9,6.1
		c-4.8,4.9-7.4,11.9-7.4,20.4c0,17.2,10.7,25,20.6,25c3.6,0,9-0.8,14.3-4.4c0.1,0,0.2-0.1,0.2-0.1l0.5-0.3c0,0,0-0.6,0-0.6l0-42.6
		v-0.6L488.5,485.8L488.5,485.8z M630.5,508.6c0-13.8-5-26.4-14.2-35.6c-9.2-9.2-22.1-14.3-36.2-14.3c-30.1,0-52,22-52,52.3
		c0,14.2,4.9,27.1,13.9,36.3c9,9.2,21.8,14.3,35.9,14.3c14.8,0,28.2-5.3,37.7-14.8C625.2,537.3,630.5,523.7,630.5,508.6
		 M577.9,559.7c-28.1,0-47.8-20-47.8-48.6c0-29.1,21-50.3,50-50.3c28,0,48.3,20.1,48.4,47.9c0,14.6-5,27.7-14.2,36.9
		C605.2,554.6,592.3,559.6,577.9,559.7 M597.8,510.4c0,15.6-6.4,24.5-17.6,24.5c-11.9,0-19.4-9.6-19.4-25.1c0-15.1,7-24.5,18.2-24.5
		C590.6,485.3,597.8,494.9,597.8,510.4 M579,483.3c-12.4,0-20.2,10.2-20.1,26.5c0,16.4,8.4,27.1,21.3,27.1
		c12.3,0,19.6-9.9,19.6-26.5C599.8,493.9,591.6,483.3,579,483.3 M700.6,486.5c-1.9-1-6-2.5-12.3-2.5c-11.7,0-21.3,9.4-21.3,25.5
		c0,15.7,9.2,24,19.6,24c8.4,0,13.6-4.2,14-4.4L700.6,486.5L700.6,486.5z M720.3,589.5c-4.8,4.8-15.5,13.3-36.6,13.3
		c-27.4,0-42.2-12.2-44.3-14.2l12.1-19c1.4,1,13.4,8.6,28.6,8.6c14.6,0,20.7-6.5,20.7-19.4l0-7.3c-1.2,0.8-7.7,6.3-20.5,6.4
		c-30.7,0-43.4-24.5-43.4-47c0-28.2,20.1-51.2,52.1-51.3c21.5,0,38.9,9.2,41.8,10.7l0.1,85C730.8,567.2,731.6,578.3,720.3,589.5
		 M788.5,484.1c-11.7,0-19.2,9.6-19.2,25.5c0,16.1,8.1,26.1,20.4,26.1c11.9,0,18.6-9.6,18.6-25.5
		C808.3,494.4,800.8,484.1,788.5,484.1 M787.5,560.5c-28.8,0-48.7-20.9-48.8-49.6c0-29.5,21.4-51.2,51-51.3
		c28.8,0,49.3,21.1,49.3,48.9C839,538.9,817.8,560.4,787.5,560.5"/>
</g>
</svg>
