<svg xmlns="http://www.w3.org/2000/svg" viewBox="0 0 1024 1024">
   <circle cx="512" cy="512" r="512" style="fill:#39b54a"/>
   <path d="M659.72 403.55h68.69c16.9.09 34 6 46.3 17.79 9.83 9.28 16.51 21.57 19.93 34.59 4.42 16.34 2.59 33.41 3 50.1-.32 15.78.66 31.61-.55 47.34-3.33-20.46-13.57-40.58-31-52.53-14.72-10.59-33.16-14.38-51-14.67-45.88-.06-91.77.09-137.65-.07 27.14-27.8 54.89-55.01 82.28-82.55Zm55.44 256.68c27.55 27.35 54.81 55 82.43 82.25.09-37.11 0-74.21 0-111.32a265.72 265.72 0 0 0-10-67.88c-4.88-18.72-11.83-38.42-27.12-51.22-12.61-10.56-29.4-13.77-45.43-14.29q.11 81.23.12 162.45ZM590 552.94l-1.46-1.44Q504.78 467.7 421 383.91q-24-23.53-47.69-47.27l-30.16-30.18H226.3l85.22 85.23v.31c15.79 15.85 31.46 31.85 47.62 47.33Q434.93 515.17 510.79 591c56.36 55.59 112 111.86 168.1 167.75 9.49 9.19 18.18 19.8 30.34 25.57 11.77 6.22 25.72 6 38.53 4 18.8-4.29 35.66-14.85 49.79-27.75Q693.85 656.69 590 552.94Z" style="fill:#fff"/>
</svg>
