<?xml version="1.0" encoding="utf-8"?>
<!-- Generator: Adobe Illustrator 21.0.0, SVG Export Plug-In . SVG Version: 6.00 Build 0)  -->
<svg version="1.1" xmlns="http://www.w3.org/2000/svg" xmlns:xlink="http://www.w3.org/1999/xlink" x="0px" y="0px"
	 viewBox="0 0 1024 1024" style="enable-background:new 0 0 1024 1024;" xml:space="preserve">
<style type="text/css">
	.st0{fill:#4680C2;}
	.st1{fill:#FFFFFF;}
</style>
<g id="Min_Guides__x28_DO_NOT_REMOVE_x29_">
</g>
<g id="Max_Guides__x28_DO_NOT_REMOVE_x29_">
</g>
<g id="Icon">
	<circle id="Background" class="st0" cx="512" cy="512" r="512"/>
	<path class="st1" d="M585.8,271.5H438.2c-134.8,0-166.7,31.9-166.7,166.7v147.7c0,134.8,31.9,166.7,166.7,166.7h147.7
		c134.8,0,166.7-31.9,166.7-166.7V438.2C752.5,303.4,720.3,271.5,585.8,271.5z M659.8,614.7h-35c-13.2,0-17.3-10.5-41.1-34.6
		c-20.7-20-29.9-22.7-35-22.7c-7.1,0-9.2,2-9.2,11.9v31.6c0,8.5-2.7,13.6-25.1,13.6c-37,0-78.1-22.4-106.9-64.2
		c-43.4-61.1-55.3-106.9-55.3-116.4c0-5.1,2-9.8,11.9-9.8h35c8.8,0,12.2,4.1,15.6,13.6c17.3,49.9,46.2,93.7,58,93.7
		c4.4,0,6.4-2,6.4-13.2v-51.6c-1.4-23.8-13.9-25.8-13.9-34.3c0-4.1,3.4-8.1,8.8-8.1h55c7.5,0,10.2,4.1,10.2,12.9v69.6
		c0,7.5,3.4,10.2,5.4,10.2c4.4,0,8.1-2.7,16.3-10.9c25.1-28.2,43.1-71.6,43.1-71.6c2.4-5.1,6.4-9.8,15.3-9.8h35
		c10.5,0,12.9,5.4,10.5,12.9c-4.4,20.4-47.2,80.8-47.2,80.8c-3.7,6.1-5.1,8.8,0,15.6c3.7,5.1,16,15.6,24.1,25.1
		c14.9,17,26.5,31.2,29.5,41.1C674.8,609.6,669.7,614.7,659.8,614.7z"/>
</g>
</svg>
