<svg xmlns="http://www.w3.org/2000/svg" viewBox="0 0 1024 1024">
   <circle cx="512" cy="512" r="512" style="fill:#4680c2"/>
   <path d="M585.8 271.5H438.2c-134.8 0-166.7 31.9-166.7 166.7v147.7c0 134.8 31.9 166.7 166.7 166.7h147.7c134.8 0 166.7-31.9 166.7-166.7V438.2c-.1-134.8-32.3-166.7-166.8-166.7zm74 343.2h-35c-13.2 0-17.3-10.5-41.1-34.6-20.7-20-29.9-22.7-35-22.7-7.1 0-9.2 2-9.2 11.9v31.6c0 8.5-2.7 13.6-25.1 13.6-37 0-78.1-22.4-106.9-64.2-43.4-61.1-55.3-106.9-55.3-116.4 0-5.1 2-9.8 11.9-9.8h35c8.8 0 12.2 4.1 15.6 13.6 17.3 49.9 46.2 93.7 58 93.7 4.4 0 6.4-2 6.4-13.2v-51.6c-1.4-23.8-13.9-25.8-13.9-34.3 0-4.1 3.4-8.1 8.8-8.1h55c7.5 0 10.2 4.1 10.2 12.9v69.6c0 7.5 3.4 10.2 5.4 10.2 4.4 0 8.1-2.7 16.3-10.9 25.1-28.2 43.1-71.6 43.1-71.6 2.4-5.1 6.4-9.8 15.3-9.8h35c10.5 0 12.9 5.4 10.5 12.9-4.4 20.4-47.2 80.8-47.2 80.8-3.7 6.1-5.1 8.8 0 15.6 3.7 5.1 16 15.6 24.1 25.1 14.9 17 26.5 31.2 29.5 41.1 3.6 9.5-1.5 14.6-11.4 14.6z" style="fill:#fff"/>
</svg>
