<svg xmlns="http://www.w3.org/2000/svg" viewBox="0 0 1024 1024" style="enable-background:new 0 0 1024 1024" xml:space="preserve">
   <circle cx="512" cy="512" r="512"/>
   <path d="M246.1 418.9h531.8c8.4 0 16 3.4 21.5 8.9s8.9 13.1 8.9 21.5v125.4c0 8.4-3.4 16-8.9 21.5-4.8 4.8-11.1 8-18.1 8.7v46.3c0 10.9-8.8 19-19.5 15.1-3.8-1.4-7.9-4.6-11.9-9.9L709.6 605H246.1c-8.4 0-16-3.4-21.5-8.9s-8.9-13.1-8.9-21.5V449.3c0-8.4 3.4-16 8.9-21.5s13.1-8.9 21.5-8.9zm523.8 174.8h8c5.2 0 10-2.1 13.5-5.6 3.5-3.5 5.6-8.2 5.6-13.5V449.3c0-5.2-2.1-10-5.6-13.5-3.5-3.5-8.2-5.6-13.5-5.6H246.1c-5.2 0-10 2.1-13.5 5.6-3.5 3.5-5.6 8.2-5.6 13.5v125.4c0 5.2 2.1 10 5.6 13.5 3.5 3.5 8.2 5.6 13.5 5.6h469.4c15.8 19.8 31.1 40 46.9 59.8 2.5 3.3 7.7 3.9 7.6-2.5v-57.4h-.1zm-132.3-67.1h23.9l-12-42.2-11.9 42.2zm110.8-74.2H460.6c-10.8 0-19.6 8.8-19.6 19.6v79.7c0 10.8 8.8 19.6 19.6 19.6h287.8c10.8 0 19.6-8.8 19.6-19.6V472c0-10.7-8.8-19.6-19.6-19.6zm-270.3 91.4c2.5 2.6 6.2 3.9 10.9 3.9 3.1 0 5.6-.5 7.4-1.5 1.8-1 3.2-2.2 4.1-3.7.9-1.5 1.5-3.1 1.9-4.7.3-1.7.5-3.3.6-4.7.2-2.1 1.1-3.6 2.8-4.4 1.7-.8 3.7-1.2 6.1-1.2 3.1 0 5.4.6 6.9 1.8 1.5 1.2 2.2 3.5 2.2 7 0 4.1-.8 7.9-2.4 11.3-1.6 3.4-3.9 6.3-6.8 8.6s-6.4 4.1-10.5 5.4c-4 1.3-8.4 1.9-13.2 1.9-4.3 0-8.4-.6-12.2-1.7-3.9-1.1-7.2-3-10.1-5.4-2.9-2.5-5.2-5.7-6.8-9.7-1.7-4-2.5-8.9-2.5-14.7v-38.4c0-5.8.8-10.7 2.5-14.7s4-7.2 6.9-9.7c2.9-2.5 6.3-4.3 10.1-5.4 3.9-1.1 7.9-1.7 12.2-1.7 4.8 0 9.2.6 13.2 1.9 4 1.2 7.5 3 10.4 5.2 2.9 2.2 5.1 5 6.7 8.3 1.6 3.3 2.4 6.9 2.4 10.8 0 3.6-.7 5.9-2.2 7.1-1.5 1.1-3.7 1.7-6.7 1.7-2.6 0-4.7-.4-6.3-1.2-1.7-.8-2.5-2.3-2.6-4.4-.1-1.1-.3-2.4-.6-3.9s-.9-3-1.9-4.5c-1-1.5-2.4-2.7-4.2-3.7-1.8-1-4.4-1.5-7.7-1.5-4.7 0-8.3 1.3-10.7 3.9-2.5 2.6-3.7 6.6-3.7 12v38.4c0 5.1 1.3 9.1 3.8 11.6zm122.7 13.1c0 1.8-.9 3.2-2.8 4.2s-3.9 1.4-6.1 1.4c-2.3 0-4.4-.5-6.2-1.4-1.8-1-2.8-2.4-2.8-4.2v-39.5h-31v39.5c0 1.8-.9 3.2-2.8 4.2s-3.9 1.4-6.1 1.4c-2.3 0-4.4-.5-6.2-1.4-1.8-1-2.8-2.4-2.8-4.2v-89.4c0-1.9.9-3.3 2.8-4.2 1.8-.9 3.9-1.3 6.2-1.3 2.2 0 4.2.4 6.1 1.3 1.9.9 2.8 2.3 2.8 4.2v35.9h31v-35.9c0-1.9.9-3.3 2.8-4.2 1.8-.9 3.9-1.3 6.2-1.3 2.2 0 4.2.4 6.1 1.3 1.9.9 2.8 2.3 2.8 4.2v89.4zm86 1.2c-.7.9-1.7 1.7-2.8 2.3-1.1.7-2.3 1.2-3.6 1.6-1.3.4-2.6.6-3.8.6-1.6 0-2.9-.3-3.9-.8-1.1-.6-1.8-1.5-2.1-2.8l-5.2-18.3h-31.5l-5.2 18.3c-.4 1.3-1.1 2.2-2.1 2.8-1.1.5-2.4.8-3.9.8-1.2 0-2.5-.2-3.8-.6-1.3-.4-2.5-.9-3.6-1.5s-2-1.4-2.8-2.3c-.7-.9-1.1-1.9-1.1-3 0-.2.1-.6.3-1.4l26.6-86.5c.6-2.1 2.1-3.6 4.3-4.6 2.2-1 4.6-1.4 7.2-1.4 2.7 0 5.1.5 7.3 1.4 2.2 1 3.6 2.5 4.3 4.6l26.6 86.5c.2.7.3 1.2.3 1.4-.4 1-.7 2-1.5 2.9zm65-82.5c-1 1.7-2.4 2.5-4.2 2.5h-20.1v78.8c0 1.8-.9 3.2-2.8 4.2s-3.9 1.4-6.1 1.4c-2.3 0-4.4-.5-6.2-1.4-1.8-1-2.8-2.4-2.8-4.2v-78.8h-20.2c-1.8 0-3.2-.8-4.2-2.4-1-1.6-1.4-3.5-1.4-5.7 0-1.9.5-3.7 1.4-5.4.9-1.7 2.3-2.5 4.3-2.5h58.2c1.9 0 3.3.8 4.3 2.5.9 1.7 1.4 3.5 1.4 5.4-.2 2.1-.7 3.9-1.6 5.6zm-495.2-4.8 26.6 86.5c.7 2.1 2.2 3.6 4.3 4.6 2.2 1 4.6 1.4 7.2 1.4 2.7 0 5.1-.5 7.3-1.4 2.2-1 3.6-2.5 4.3-4.6l26.4-86.5c.2-.7.3-1.2.3-1.4 0-1.1-.4-2.1-1.1-3-.7-.9-1.7-1.7-2.8-2.3-1.1-.7-2.3-1.2-3.6-1.6-1.3-.4-2.6-.5-3.8-.5-1.6 0-2.9.3-3.9.8-1.1.5-1.8 1.5-2.1 2.8l-20.9 74.6-21-74.6c-.4-1.3-1.1-2.2-2.1-2.8-1.1-.6-2.4-.8-3.9-.8-1.2 0-2.5.2-3.8.5-1.3.4-2.5.9-3.6 1.5s-2 1.4-2.8 2.3c-.7.9-1.1 1.9-1.1 3-.2.3-.1.7.1 1.5zm86.9-3.3c0-1.5.5-2.8 1.6-3.9s2.5-1.7 4.2-1.7h27.2c4.5 0 8.7.5 12.7 1.4 3.9 1 7.4 2.5 10.4 4.7s5.3 5.1 7 8.8c1.7 3.7 2.5 8.3 2.5 13.8 0 7.9-1.7 14.1-5.2 18.5-3.4 4.4-7.7 7.5-12.9 9l18 33.4c.3.4.5.8.5 1.2.1.4.1.8.1 1 0 1.1-.3 2.2-1 3.4-.7 1.1-1.6 2.2-2.6 3-1.1.9-2.2 1.6-3.6 2.1-1.3.6-2.6.8-3.9.8-1.3 0-2.5-.4-3.5-1.1-1.1-.7-1.9-1.8-2.7-3.2l-19.5-38h-11.6v35.9c0 1.8-.9 3.2-2.8 4.2-1.8 1-3.9 1.4-6.2 1.4-2.2 0-4.2-.5-6.1-1.4-1.9-1-2.8-2.4-2.8-4.2v-89.1h.2zm17.9 10.2V507h15.1c4.5 0 8.1-1.1 10.7-3.2 2.7-2.2 4-5.9 4-11.3s-1.3-9.2-4-11.4c-2.7-2.2-6.2-3.3-10.7-3.3h-15.1v-.1z" style="fill:#fff"/>
</svg>
