<?xml version="1.0" encoding="utf-8"?>
<!-- Generator: Adobe Illustrator 21.0.0, SVG Export Plug-In . SVG Version: 6.00 Build 0)  -->
<svg version="1.1" xmlns="http://www.w3.org/2000/svg" xmlns:xlink="http://www.w3.org/1999/xlink" x="0px" y="0px"
	 viewBox="0 0 1024 1024" style="enable-background:new 0 0 1024 1024;" xml:space="preserve">
<style type="text/css">
	.st0{fill:#FFFFFF;}
</style>
<g id="Min_Guides__x28_DO_NOT_REMOVE_x29_">
</g>
<g id="Max_Guides__x28_DO_NOT_REMOVE_x29_">
</g>
<g id="Icon">
	<circle id="Background" cx="512" cy="512" r="512"/>
	<path class="st0" d="M246.1,418.9h531.8c8.4,0,16,3.4,21.5,8.9c5.5,5.5,8.9,13.1,8.9,21.5v125.4c0,8.4-3.4,16-8.9,21.5
		c-4.8,4.8-11.1,8-18.1,8.7v46.3c0,10.9-8.8,19-19.5,15.1c-3.8-1.4-7.9-4.6-11.9-9.9l-40.3-51.4H246.1c-8.4,0-16-3.4-21.5-8.9
		c-5.5-5.5-8.9-13.1-8.9-21.5V449.3c0-8.4,3.4-16,8.9-21.5C230.1,422.3,237.7,418.9,246.1,418.9L246.1,418.9z M769.9,593.7h8
		c5.2,0,10-2.1,13.5-5.6c3.5-3.5,5.6-8.2,5.6-13.5V449.3c0-5.2-2.1-10-5.6-13.5c-3.5-3.5-8.2-5.6-13.5-5.6H246.1
		c-5.2,0-10,2.1-13.5,5.6c-3.5,3.5-5.6,8.2-5.6,13.5v125.4c0,5.2,2.1,10,5.6,13.5c3.5,3.5,8.2,5.6,13.5,5.6h469.4
		c15.8,19.8,31.1,40,46.9,59.8c2.5,3.3,7.7,3.9,7.6-2.5V593.7L769.9,593.7z M637.6,526.6h23.9l-12-42.2L637.6,526.6z M748.4,452.4
		H460.6c-10.8,0-19.6,8.8-19.6,19.6v79.7c0,10.8,8.8,19.6,19.6,19.6h287.8c10.8,0,19.6-8.8,19.6-19.6V472
		C768,461.3,759.2,452.4,748.4,452.4z M478.1,543.8c2.5,2.6,6.2,3.9,10.9,3.9c3.1,0,5.6-0.5,7.4-1.5c1.8-1,3.2-2.2,4.1-3.7
		c0.9-1.5,1.5-3.1,1.9-4.7c0.3-1.7,0.5-3.3,0.6-4.7c0.2-2.1,1.1-3.6,2.8-4.4c1.7-0.8,3.7-1.2,6.1-1.2c3.1,0,5.4,0.6,6.9,1.8
		c1.5,1.2,2.2,3.5,2.2,7c0,4.1-0.8,7.9-2.4,11.3c-1.6,3.4-3.9,6.3-6.8,8.6c-2.9,2.3-6.4,4.1-10.5,5.4c-4,1.3-8.4,1.9-13.2,1.9
		c-4.3,0-8.4-0.6-12.2-1.7c-3.9-1.1-7.2-3-10.1-5.4c-2.9-2.5-5.2-5.7-6.8-9.7c-1.7-4-2.5-8.9-2.5-14.7v-38.4
		c0-5.8,0.8-10.7,2.5-14.7c1.7-4,4-7.2,6.9-9.7c2.9-2.5,6.3-4.3,10.1-5.4c3.9-1.1,7.9-1.7,12.2-1.7c4.8,0,9.2,0.6,13.2,1.9
		c4,1.2,7.5,3,10.4,5.2c2.9,2.2,5.1,5,6.7,8.3c1.6,3.3,2.4,6.9,2.4,10.8c0,3.6-0.7,5.9-2.2,7.1c-1.5,1.1-3.7,1.7-6.7,1.7
		c-2.6,0-4.7-0.4-6.3-1.2c-1.7-0.8-2.5-2.3-2.6-4.4c-0.1-1.1-0.3-2.4-0.6-3.9c-0.3-1.5-0.9-3-1.9-4.5c-1-1.5-2.4-2.7-4.2-3.7
		c-1.8-1-4.4-1.5-7.7-1.5c-4.7,0-8.3,1.3-10.7,3.9c-2.5,2.6-3.7,6.6-3.7,12v38.4C474.3,537.3,475.6,541.3,478.1,543.8z M600.8,556.9
		c0,1.8-0.9,3.2-2.8,4.2c-1.9,1-3.9,1.4-6.1,1.4c-2.3,0-4.4-0.5-6.2-1.4c-1.8-1-2.8-2.4-2.8-4.2v-39.5h-31v39.5
		c0,1.8-0.9,3.2-2.8,4.2c-1.9,1-3.9,1.4-6.1,1.4c-2.3,0-4.4-0.5-6.2-1.4c-1.8-1-2.8-2.4-2.8-4.2v-89.4c0-1.9,0.9-3.3,2.8-4.2
		c1.8-0.9,3.9-1.3,6.2-1.3c2.2,0,4.2,0.4,6.1,1.3c1.9,0.9,2.8,2.3,2.8,4.2v35.9h31v-35.9c0-1.9,0.9-3.3,2.8-4.2
		c1.8-0.9,3.9-1.3,6.2-1.3c2.2,0,4.2,0.4,6.1,1.3c1.9,0.9,2.8,2.3,2.8,4.2V556.9z M686.8,558.1c-0.7,0.9-1.7,1.7-2.8,2.3
		c-1.1,0.7-2.3,1.2-3.6,1.6c-1.3,0.4-2.6,0.6-3.8,0.6c-1.6,0-2.9-0.3-3.9-0.8c-1.1-0.6-1.8-1.5-2.1-2.8l-5.2-18.3h-31.5l-5.2,18.3
		c-0.4,1.3-1.1,2.2-2.1,2.8c-1.1,0.5-2.4,0.8-3.9,0.8c-1.2,0-2.5-0.2-3.8-0.6c-1.3-0.4-2.5-0.9-3.6-1.5c-1.1-0.6-2-1.4-2.8-2.3
		c-0.7-0.9-1.1-1.9-1.1-3c0-0.2,0.1-0.6,0.3-1.4l26.6-86.5c0.6-2.1,2.1-3.6,4.3-4.6c2.2-1,4.6-1.4,7.2-1.4c2.7,0,5.1,0.5,7.3,1.4
		c2.2,1,3.6,2.5,4.3,4.6l26.6,86.5c0.2,0.7,0.3,1.2,0.3,1.4C687.9,556.2,687.6,557.2,686.8,558.1z M751.8,475.6
		c-1,1.7-2.4,2.5-4.2,2.5h-20.1v78.8c0,1.8-0.9,3.2-2.8,4.2c-1.9,1-3.9,1.4-6.1,1.4c-2.3,0-4.4-0.5-6.2-1.4c-1.8-1-2.8-2.4-2.8-4.2
		v-78.8h-20.2c-1.8,0-3.2-0.8-4.2-2.4c-1-1.6-1.4-3.5-1.4-5.7c0-1.9,0.5-3.7,1.4-5.4c0.9-1.7,2.3-2.5,4.3-2.5h58.2
		c1.9,0,3.3,0.8,4.3,2.5c0.9,1.7,1.4,3.5,1.4,5.4C753.2,472.1,752.7,473.9,751.8,475.6z M256.6,470.8l26.6,86.5
		c0.7,2.1,2.2,3.6,4.3,4.6c2.2,1,4.6,1.4,7.2,1.4c2.7,0,5.1-0.5,7.3-1.4c2.2-1,3.6-2.5,4.3-4.6l26.4-86.5c0.2-0.7,0.3-1.2,0.3-1.4
		c0-1.1-0.4-2.1-1.1-3c-0.7-0.9-1.7-1.7-2.8-2.3c-1.1-0.7-2.3-1.2-3.6-1.6c-1.3-0.4-2.6-0.5-3.8-0.5c-1.6,0-2.9,0.3-3.9,0.8
		c-1.1,0.5-1.8,1.5-2.1,2.8l-20.9,74.6l-21-74.6c-0.4-1.3-1.1-2.2-2.1-2.8c-1.1-0.6-2.4-0.8-3.9-0.8c-1.2,0-2.5,0.2-3.8,0.5
		c-1.3,0.4-2.5,0.9-3.6,1.5c-1.1,0.6-2,1.4-2.8,2.3c-0.7,0.9-1.1,1.9-1.1,3C256.3,469.6,256.4,470,256.6,470.8L256.6,470.8z
		 M343.5,467.5c0-1.5,0.5-2.8,1.6-3.9c1.1-1.1,2.5-1.7,4.2-1.7h27.2c4.5,0,8.7,0.5,12.7,1.4c3.9,1,7.4,2.5,10.4,4.7
		c3,2.2,5.3,5.1,7,8.8c1.7,3.7,2.5,8.3,2.5,13.8c0,7.9-1.7,14.1-5.2,18.5c-3.4,4.4-7.7,7.5-12.9,9l18,33.4c0.3,0.4,0.5,0.8,0.5,1.2
		c0.1,0.4,0.1,0.8,0.1,1c0,1.1-0.3,2.2-1,3.4c-0.7,1.1-1.6,2.2-2.6,3c-1.1,0.9-2.2,1.6-3.6,2.1c-1.3,0.6-2.6,0.8-3.9,0.8
		c-1.3,0-2.5-0.4-3.5-1.1c-1.1-0.7-1.9-1.8-2.7-3.2l-19.5-38h-11.6v35.9c0,1.8-0.9,3.2-2.8,4.2c-1.8,1-3.9,1.4-6.2,1.4
		c-2.2,0-4.2-0.5-6.1-1.4c-1.9-1-2.8-2.4-2.8-4.2V467.5L343.5,467.5z M361.4,477.7V507h15.1c4.5,0,8.1-1.1,10.7-3.2
		c2.7-2.2,4-5.9,4-11.3c0-5.4-1.3-9.2-4-11.4c-2.7-2.2-6.2-3.3-10.7-3.3H361.4L361.4,477.7z"/>
</g>
</svg>
