<?xml version="1.0" encoding="utf-8"?>
<!-- Generator: Adobe Illustrator 21.0.0, SVG Export Plug-In . SVG Version: 6.00 Build 0)  -->
<svg version="1.1" xmlns="http://www.w3.org/2000/svg" xmlns:xlink="http://www.w3.org/1999/xlink" x="0px" y="0px"
	 viewBox="0 0 1024 1024" style="enable-background:new 0 0 1024 1024;" xml:space="preserve">
<style type="text/css">
	.st0{fill:#007BFC;}
	.st1{fill:#FFFFFF;}
</style>
<g id="Min_Guides__x28_DO_NOT_REMOVE_x29_">
</g>
<g id="Max_Guides__x28_DO_NOT_REMOVE_x29_">
</g>
<g id="Icon">
	<circle id="Background" class="st0" cx="512" cy="512" r="512"/>
	<path id="Logo" class="st1" d="M259.9,357.4c-2.5-3.9-3.9-8.6-3.9-13.6c0-14.1,11.5-25.6,25.6-25.6h131.1c9.1,0,17.1,4.8,21.7,12
		l181.9,288.5c2.5,4,3.9,8.6,3.9,13.6s-1.5,9.7-3.9,13.6l-65.6,104c-4.5,7.2-12.5,12-21.7,12c-9.1,0-17.1-4.8-21.7-12L259.9,357.4z
		 M655.2,515.5c4.5,7.2,12.5,11.9,21.7,11.9c9.1,0,17.1-4.8,21.7-11.9l22.6-35.8l43-68.2c2.5-3.9,3.9-8.6,3.9-13.7
		c0-5-1.5-9.7-3.9-13.7l-34.1-54.1c-4.5-7.2-12.5-12-21.7-12H577.1c-14.1,0-25.6,11.5-25.6,25.6c0,5,1.4,9.7,3.9,13.6L655.2,515.5z"
		/>
</g>
</svg>
