<?xml version="1.0" encoding="utf-8"?>
<!-- Generator: Adobe Illustrator 21.0.0, SVG Export Plug-In . SVG Version: 6.00 Build 0)  -->
<svg version="1.1" xmlns="http://www.w3.org/2000/svg" xmlns:xlink="http://www.w3.org/1999/xlink" x="0px" y="0px"
	 viewBox="0 0 1024 1024" style="enable-background:new 0 0 1024 1024;" xml:space="preserve">
<style type="text/css">
	.st0{fill:#FFFFFF;}
</style>
<g id="Guides">
</g>
<g id="Icon">
	<circle cx="512" cy="512" r="512"/>
	<g>
		<path class="st0" d="M435,404.2c6.3-3.8,40-21.8,94.3,0.7c55.9,23.1,90.6,3,94.9,0.3c-13.5-22.2-29.6-41.6-47.4-54.6
			c1.2-0.3,2.4-0.7,3.7-1c23.6-6.8,29.6-26.8,30.8-43.9c1.4-19.4,2.4-19.7,6.6-37.1c4-16.8-0.5-20.1-4.6-16.7
			c-2.2,1.8-21.7,6.3-33.3,15.3c-18.7,14.6-30.2,42.3-35.4,57.6c-0.1,0.2-0.8,2.4-1,3.1c-2.4,5.9-7.3,5.8-7.3,5.8v0
			c-2.3-0.3-4.7-0.4-7.1-0.4c-2.1,0-4.2,0.1-6.3,0.3c0,0-0.1,0-0.1,0c-6.2,0.9-9.6-6.6-10.3-8.4c-7.2-20.8-26.7-61.7-70.4-72.7
			c0,0-7.9-6.1-5.5,4.2c2.3,9.8,7.1,19.8,6,34.2c-0.5,6.7-4.6,40.9,26.8,58.7c3,1.7,5.6,3.1,8,4.3
			C461.7,366.5,447.3,384.2,435,404.2z"/>
		<path class="st0" d="M641.4,717c-38.5-23.9-51.5-32.3-50.7-41.4c0,0,0-1.5,0.4-3.8c0.9-4.8,3.9-13.1,13.3-17.8
			c0.3-0.2,0.6-0.3,0.8-0.5c30-17.4,51.9-45.5,59.7-80.5c-7.8,19.3-65.5,34.4-135.6,34.4c-70.1,0-127.8-15-135.6-34.4
			c1.7,7.9,4.2,15.4,7.3,22.5c2.6,14.7,6.1,49.2-10.5,79.4c-14.6,26.6-86.7,62.9-193.7,42.1c0,0-4.3-3-5.6-0.5
			c-1.9,3.6,5.9,6.6,14,8.7c74.5,19.7,186.9,11.7,222.2-17.4c16.1-13.3,22.3-31.1,23.9-50.4l0,0c0,0,0.4-5,6.7-1.3
			c1.8,1.1,8.3,5.3,9.4,10.1c0.9,6.8,1,15.2-2.6,21.1c-5,8.4-5.1,9.6,1.5,14.3c4.1,2.9,20.7,15.1,43.8,29c0.1,0,0.1,0.1,0.2,0.1
			c4.9,2.9,11.7,10.2,11.7,10.2l0,0c10.4,12.1,33.1,36.3,42.9,31.7c4.7-2.1-0.2-11.9-0.2-11.9s7.8,10.1,11.9,6.6
			c3.2-2.6-1.9-12.6-1.9-12.6s6.8,5.9,10.8,3.7c4.9-2.7-0.7-18.1-39.4-41.6c-38.7-23.6-49.2-27.2-50.2-37.7c0,0,0-0.5,0-1.4
			c0.3-2.3,1.6-7.2,7.2-6.7c8.4,1.4,17,2.1,25.9,2.1c10.1,0,20-0.9,29.5-2.7v0c0,0,0.5-0.1,0.6-0.1c1.1-0.1,3.3-0.1,3.3,2.6
			c-0.4,3.4-1.3,6.9-3.3,9.9c-5.7,8.5-3.8,9.7,2.1,15.1c3.7,3.4,20.4,18.1,43.3,32.4c0,0,0.1,0.1,0.1,0.1c4.9,2.9,13.3,11,13.3,11
			l0,0c9.5,9.6,27,25.8,36.5,24.8c6.4-0.7,1.2-11.8,1.2-11.8s8.1,7.9,12.1,5.5c4.5-2.6-1.9-10.8-1.9-10.8s5.2,2.8,8.9,1.9
			C679,750.3,680,740.9,641.4,717z"/>
		<path class="st0" d="M598.4,447.3c-4.6,0-8.5,1.4-11.4,4.1c-3,2.8-4.5,6-4.5,9.5v62.8c0,8.4-1.5,14.6-4.4,18.5
			c-2.9,3.7-7.4,5.5-13.9,5.5c-6.7,0-11.2-1.8-13.9-5.5c-2.8-3.8-4.2-10.1-4.2-18.5v-63.1c0-4.3-2-7.8-5.7-10.2
			c-5-3.2-10.1-4.3-16.2-2.3c-1.9,0.6-3.6,1.4-5.2,2.4c-1.7,1-3.1,2.3-4.3,3.9c-1.3,1.7-1.9,3.5-1.9,5.5v63.8
			c0,8.4-1.4,14.7-4.2,18.5c-2.7,3.7-7.2,5.5-13.9,5.5c-6.7,0-11.3-1.8-14-5.5c-2.9-3.8-4.3-10.1-4.3-18.5V461
			c0-3.6-1.5-6.8-4.5-9.5c-2.9-2.7-6.9-4.1-11.6-4.1c-4.9,0-9,1.4-12.1,4.1c-3.2,2.8-4.8,6-4.8,9.6v61.9c0,7.8,0.8,15.1,2.3,21.9
			c1.5,6.9,4.2,12.9,8,17.9c3.8,5.1,8.9,9.1,15.3,11.9c6.3,2.8,14.2,4.2,23.4,4.2c9.6,0,17.7-1.8,23.9-5.3c5.3-3,9.7-6.8,13.2-11.6
			c3.4,4.7,7.7,8.6,12.9,11.5c6.2,3.5,14.4,5.3,24.3,5.3c9.2,0,17.1-1.4,23.3-4.2c6.3-2.8,11.4-6.9,15.2-11.9c3.8-5,6.4-11.1,8-17.9
			c1.5-6.7,2.3-14.1,2.3-21.9V461c0-3.6-1.6-6.8-4.6-9.6C607.6,448.7,603.5,447.3,598.4,447.3z"/>
	</g>
</g>
</svg>
