<svg xmlns="http://www.w3.org/2000/svg" viewBox="0 0 1024 1024">
   <circle cx="512" cy="512" r="512" style="fill:#df1b1a"/>
   <path d="M512 256c-141 0-255.74 114.2-255.74 255.74S370.46 768 512 768s255.74-115.26 255.74-256.27S653.54 256 512 256Zm104.55 435.34c12.87-45 18.23-91.15 16.08-144.22 13.4 3.75 20.91 5.9 34.31 10.19-15.55-39.14-32.17-74.52-54.15-110.45-19.3 37-45.57 71.84-71.84 99.19l42.89-2.68c-37 65.95-89 98.12-154.95 107.23-15-74.52-3.75-196.23 80.42-253.06l8.58 40.75c16.63-26.29 48.8-61.13 72.92-85.29a228.56 228.56 0 0 0-124.92-11.8c7 5.9 15.55 13.4 22.52 19.3-94.9 40.25-146.91 106.2-181.22 182.86a202.13 202.13 0 0 1-2.14-31.1c0-114.74 92.75-207.49 207-207.49a207.39 207.39 0 0 1 104.5 386.57Z" style="fill:#fff"/>
</svg>
