<?xml version="1.0" encoding="utf-8"?>
<!-- Generator: Adobe Illustrator 21.0.0, SVG Export Plug-In . SVG Version: 6.00 Build 0)  -->
<svg version="1.1" xmlns="http://www.w3.org/2000/svg" xmlns:xlink="http://www.w3.org/1999/xlink" x="0px" y="0px"
	 viewBox="0 0 1024 1024" style="enable-background:new 0 0 1024 1024;" xml:space="preserve">
<style type="text/css">
	.st0{fill:#DF1B1A;}
	.st1{fill:#FFFFFF;}
</style>
<g id="Min_Guides__x28_DO_NOT_REMOVE_x29_">
</g>
<g id="Max_Guides__x28_DO_NOT_REMOVE_x29_">
</g>
<g id="Icon">
	<circle id="Background" class="st0" cx="512" cy="512" r="512"/>
	<g>
		<path class="st1" d="M512,256c-141,0-255.7,114.2-255.7,255.7C256.3,653.3,370.5,768,512,768c141.5,0,255.7-115.3,255.7-256.3
			C767.7,370.7,653.5,256,512,256z M616.5,691.3c12.9-45,18.2-91.1,16.1-144.2c13.4,3.8,20.9,5.9,34.3,10.2
			c-15.5-39.1-32.2-74.5-54.2-110.4c-19.3,37-45.6,71.8-71.8,99.2l42.9-2.7c-37,65.9-89,98.1-154.9,107.2
			c-15-74.5-3.8-196.2,80.4-253.1l8.6,40.7c16.6-26.3,48.8-61.1,72.9-85.2c-38.1-15-82-19.8-124.9-11.8c7,5.9,15.5,13.4,22.5,19.3
			c-94.9,40.2-146.9,106.2-181.2,182.8c-1.6-10.2-2.1-20.9-2.1-31.1c0-114.7,92.8-207.5,207-207.5c114.7,0,207.5,92.8,207.5,207.5
			C719.5,588.4,678.2,655.4,616.5,691.3z"/>
	</g>
</g>
</svg>
