<svg xmlns="http://www.w3.org/2000/svg" viewBox="0 0 1024 1024">
   <circle cx="512" cy="512" r="512" style="fill:#17d24f"/>
   <path d="M693 331c-100-100-262-100-362 0s-100 262 0 362 262 100 362 0 100-262 0-362Zm27.66 157.78-110.23-100-112.78 106.47-59.2 55.7v-83l89.78-85.32 67.06-63.36a210.53 210.53 0 0 1 125.39 169.49Zm-2 60.38a208.64 208.64 0 0 1-22 62.86l-62.8-57.28v-83ZM544.11 304.4l-47.44 44.83-58.38 55.37v-89.24a210.3 210.3 0 0 1 105.89-10.94Zm-151.74 248-87-78.11a208.64 208.64 0 0 1 22.86-63.89l64.16 57.6Zm0-212.9v66.68L355 372.71a210.64 210.64 0 0 1 37.36-33.17ZM303.12 534l112.76 101.17L587.76 473.4V555L429.2 705a210.46 210.46 0 0 1-126.07-171Zm177.36 185.68L587.8 618.21v89.66A208.79 208.79 0 0 1 512 722a212.26 212.26 0 0 1-31.58-2.34Zm153.28-36.6v-66.33l36.6 33.14a212.45 212.45 0 0 1-36.49 33.21Z" style="fill:#fff"/>
</svg>
