<?xml version="1.0" encoding="utf-8"?>
<!-- Generator: Adobe Illustrator 21.0.0, SVG Export Plug-In . SVG Version: 6.00 Build 0)  -->
<svg version="1.1" xmlns="http://www.w3.org/2000/svg" xmlns:xlink="http://www.w3.org/1999/xlink" x="0px" y="0px"
	 viewBox="0 0 1024 1024" style="enable-background:new 0 0 1024 1024;" xml:space="preserve">
<style type="text/css">
	.st0{fill:#4840BB;}
	.st1{fill:#FFFFFF;}
</style>
<g id="Min_Guides__x28_DO_NOT_REMOVE_x29_">
</g>
<g id="Max_Guides__x28_DO_NOT_REMOVE_x29_">
</g>
<g id="Icon">
	<circle id="Background" class="st0" cx="512" cy="512" r="512"/>
	<path class="st1" d="M767.9,741.7l0-1.5c-0.4-0.6-1.1-1.4-2.2-2.4c-111.8-91.1-97.7-281.8-66-458.8c1.3-7.1,2.1-11.9-3.5-12.5
		c-36.1-4.2-156.5,15.4-191,24.8c-9,2.5-9.8,5-9.9,10.7c-9.5,354.2,208.4,428.4,267.6,440C764.1,742.3,767.1,742.6,767.9,741.7
		L767.9,741.7z M453.4,401.5c-44.3,8.6-85.4,25.5-120.9,40.6c-3.1,0.9-8.1,6.2-6.8,12.8c14,71.6,82.3,273.4,343.6,289.1
		c6,0.3,12.1-0.8,7.3-3.8c-35.2-27.1-160.5-54.9-211.7-328.6C464.3,408.9,464.4,398.2,453.4,401.5L453.4,401.5z M328.1,569.5
		c-15.6,9.4-55.7,35.7-70.1,49.2c-2.9,2.7-2.3,4.6-1,9.2c11.6,42.4,80.2,116.6,250.5,110.9c8-0.3,8.1-2.7,3.9-5.8
		c-2.7-2-56.6-19.3-105.8-64.6c-24.6-22.7-49.7-57.1-66.5-89.8C334.9,569.7,332.8,566.7,328.1,569.5L328.1,569.5z"/>
</g>
</svg>
