<?xml version="1.0" encoding="utf-8"?>
<!-- Generator: Adobe Illustrator 21.0.0, SVG Export Plug-In . SVG Version: 6.00 Build 0)  -->
<svg version="1.1" xmlns="http://www.w3.org/2000/svg" xmlns:xlink="http://www.w3.org/1999/xlink" x="0px" y="0px"
	 viewBox="0 0 1024 1024" style="enable-background:new 0 0 1024 1024;" xml:space="preserve">
<style type="text/css">
	.st0{fill:#FFD800;}
	.st1{fill:#FFFFFF;}
</style>
<g id="Guides">
</g>
<g id="Icon">
	<circle class="st0" cx="512" cy="512" r="512"/>
	<g id="Layer_1-2">
		<path class="st1" d="M323.4,434.8c5.2,2.1,12.4-2.1,17.6-3.1c5.2-1,26.9-5.2,22.8,0c-4.1,5.2-8.3,2.1-13.5,4.1
			c-5.2,2.1-18.7,3.1-19.7,12.4c-1,9.3,34.2,7.2,44.6,4.1c28-9.3,59.1-11.4,87.1-16.6c31.6-4.2,63.5-6.2,95.3-6.2
			c33.5-2.4,67.1-1.7,100.5,2.1l25.9,3.1c7.3,0,23.9,7.2,30.1,4.1c6.2-3.1,4.1-10.4,7.3-13.5c3.1-3.1,13.5-5.2,7.2-16.6
			c-6.2-11.4-22.8-11.4-31.1-9.3c-8.3,2.1,3.1-3.1,4.1-6.2c1.2-4.8,0.8-9.9-1-14.5c-5.2-8.3-28-11.4-28-11.4
			c-86-13.8-173.5-15.9-260.1-6.2c-17.6,2.1-48.7,4.1-66.3,11.4c-17.6,7.3-8.3,3.1-9.3,8.3c-1,5.2,3.1,16.6,11.4,14.5l56-10.4
			c42.5-11.4,184.5-9.3,203.1-4.1s73.6,4.1,74.6,15.5c-144-6.2-200-6.2-329.5,9.3c-8.9,1.5-17.6,4-25.9,7.3
			C315.1,416.2,308.9,429.6,323.4,434.8z"/>
		<path class="st1" d="M514.1,344.7c5.2,1,45.6,2.1,47.7-13.5c-0.4-9.4-3.7-18.4-9.3-25.9c-4.1-3.1-11.4,20.7-13.5-2.1
			c-0.1-4.6-0.8-9.1-2.1-13.5c-1.1-2.1-2.1-3.1-4.2-3.1h-2.1c-1.6,1.3-2.7,3.2-3.1,5.2c-3.1,6.2-4.1,28-9.3,28
			c-5.2,0-6.2-13.5-5.2-17.6h-1c-3,1.7-5.8,3.8-8.3,6.2c-6.2,6.2-13.5,20.7-9.3,28c4.8,6,12,9.4,19.7,9.3L514.1,344.7z"/>
		<path class="st1" d="M791.7,662.8c1-1,1-3.1,2.1-5.2c0.2-1.5-0.2-2.9-1-4.1c-0.1-3-1.2-6-3.1-8.3c-7.2-10.4-42.5-16.6-42.5-16.6
			c-17.6-4.1-38.3-7.2-61.1-10.4c1.8-17.9,1.4-36-1-53.9c1.3-24.9,0.9-49.8-1.1-74.6c-0.1-9-3-17.7-8.3-24.9
			c-4.1-6.2-5.2-12.4-15.5-11.4c-10.4,1-12.4,13.5-10.4,20.7l4.1,15.5c1,3.1,5.2,102.6,4.1,111.9v13.5l-75.5-5.2h1
			c12.4-10.4,8.3-23.8,6.2-38.3c-2.1-14.5-1-90.1-3.1-98.4c-2.1-8.3-7.2-9.3-12.4-14.5c-3.9-5.7-11.6-7.1-17.3-3.2
			c-0.9,0.6-1.7,1.4-2.4,2.2c-6.2,6.2,2.1,90.2,2.1,126.4c-0.4,8.3,0.3,16.7,2.1,24.9h-74.6c0-1-1-3.1-1-4.1
			c-2.2-4.7-3.9-9.5-5.2-14.5c-1.3-7.2-1.9-14.5-2.1-21.8c-1-15.5,1-62.2,2.1-74.6s9.3-37.3-14.5-32.1c-6,0.5-12,1.9-17.6,4.2
			c-4.1,3.1-4.1,11.3-4.1,15.5s-2.1,66.3-2.1,78.8c0.1,11.2,1.9,22.4,5.2,33.2c3.9,7,9.6,12.7,16.6,16.6h-30.1l-54.9,4.2l0,0
			c-3.1-8.3,1-43.5,8.3-109.9c2.1-15.5-1-15.5-10.4-24.9c-3.9-5.6-11.6-7.1-17.3-3.2c-0.9,0.6-1.7,1.4-2.4,2.2
			c-6.2,5.2-5.2,11.4-6.2,18.7c-3.1,23.9-8.3,63.2-10.4,88.1c-0.8,10.8-0.1,21.6,2.1,32.1v2.1l-30.1,4.1
			c-26.9,4.1-49.7,5.2-65.3,12.4s-10.4,5.2-12.4,9.3l-2.1,4.1c0.5,1.3,0.8,2.7,1,4.1c0.2,2.4,1.3,4.6,3.1,6.2
			c1.3,1.6,3.2,2.7,5.2,3.1h9.3c15.5,1.5,31-1.7,44.6-9.3c86-34.2,331.6-23.8,385.5-13.5c23.8,5.2,60.1,9.3,81.9,22.8l10.4,4.2h4.1
			c2.7,0.6,5.6,0.6,8.3,0h3.1C788.8,666.2,790.6,664.7,791.7,662.8"/>
	</g>
</g>
</svg>
