<svg xmlns="http://www.w3.org/2000/svg" viewBox="0 0 1024 1024">
   <circle cx="512" cy="512" r="512" style="fill:#7da0d0"/>
   <path d="M449.71 235c-34.63.13-59.41 25.85-55.9 67.14 2.27 27.42 4.65 55.24 7 83.29-24.11 10.15-49.54 20.84-76.57 32.28-28 12-47.4 35.94-54.86 64.44-7.6 29.05-3 62.71 16.14 92.53 17.05 26.7 41.46 44.8 72.69 54.61-1.8 24.37.67 46.43 7.61 66a122 122 0 0 0 11.9 24.52c17.82 28.33 44.18 45.31 71.09 49.93a84.5 84.5 0 0 0 73.57-22.32c21.89-21.11 42.58-41 62.32-59.93 23.37 14.05 45.9 27.59 67.82 40.8 35.84 21.37 72.44-1.87 81.09-47.22 3.61-18.91 2-40.05-4.72-63.94 12.75-7.84 20.68-20.12 23.82-37.32 6.83-36.48-11.22-84.45-40.79-109q-24.16-20-48.37-39.86c-.08-.42-8.29-47-12.31-69.45-6.83-38.51-40.16-79-75.34-90.23-16.13-5.15-31.14-3.54-45.47 5-17.38-18.4-35.55-30.8-55.36-37.14a82.29 82.29 0 0 0-25.36-4.13zm22.74 55.38a29.52 29.52 0 0 1 8.52 1.06c10.41 2.8 20.35 11 25.78 20.83 4.44 8.21 6.48 15 8.27 29 2.94 23 6 46.31 9 70.19.3 2.2.6 4.35.86 6.54 2.58 19.85 14.38 34.13 29.69 36.16 14.73 2 22.56-9.6 19.87-28.16q-.39-3.09-.84-6.17-4.91-33.57-9.85-67.13c-1.42-9.49-1.88-16.75-1.11-21.44 1.14-10.39 9.41-15.81 20-12.94s20.7 12.78 25.32 24.53c2.38 5.94 3.45 10.55 5.28 21.52 3.51 21 7 42.21 10.55 64 2.63 14.25 4 26.84 23.32 40.31 16.3 12.81 32.2 25.45 47.83 37.66 9.4 7.39 12.79 10.81 16.5 16 6 8.48 8.53 20.84 6.42 30.32-1.94 8.77-7.62 14-14.71 13.19-5.81-.69-10.7-3.07-20.63-10.38-16.38-12.28-33.13-24.86-50.46-37.62-1.52-1.07-3.22-2.25-4.77-3.4-14.42-10.62-27-8.58-31.8 5.94-5 14.87 2 32.34 16.85 42.73 1.6 1.1 3.41 2.38 5 3.52 18.08 12.67 35.86 25 53.16 37.07 7.34 5.12 12.8 9.92 16.41 14.24 8 9.14 11.78 24.15 9 36.69-3 13.24-11.48 20.14-21.85 17.78-5.23-1.12-9.17-3.23-18.57-9.33-18.25-11.84-37-24.09-56.35-36.56q-2.7-1.7-5.3-3.55c-6.08-3.73-12-5.42-17.15-5.21-5.8-.38-11.85 1.72-17.68 6.39-1.62 1.33-3.26 2.62-4.77 4-18.05 14.85-36.76 30.69-56.6 47.37-10.73 9-15.55 12.45-22.71 15-14.43 5.5-30.35-.68-40.32-16.52-9.41-15.45-9-35.48.74-48.11 4.13-5.62 11.12-12 20.76-18.87 21-15 40.87-29.16 59.76-42.71q2.56-1.73 5.09-3.53c14.33-10.17 17.06-28.15 7-44.93-9.85-16.73-26.12-21.8-41.56-12.48q-2.65 1.56-5.21 3.25-30 18.39-63.06 38.84c-14.26 8.59-21.79 11.35-32.43 11.85-13.16.67-26.9-7.41-34.92-20.17-9.09-14.22-9.41-31.88-.68-42.83 4.9-6.44 10.16-10.35 25.22-18.07q33.35-17.25 66.91-34.08c1.82-1.1 3.63-1.85 5.5-2.77a24 24 0 0 0 3.57-2.18c9.5-4.19 14.12-14.67 12.64-28.88-.26-2.37-.42-4.67-.82-6.95q-3.76-37-7.84-74.06c-1.55-14.74-1.4-19.93.48-25.78 2.15-6.93 8.62-10.94 16.7-11.17zm-71.67 95.08.05.56a.23.23 0 0 1-.07-.1v-.46zm.07.92c.06.68.13 1.34.18 2-.08-.61-.14-1.17-.25-1.85a.74.74 0 0 1 .08-.15zm.26 3 .05.56h-.05v-.53zm.08.92v.35a.55.55 0 0 1 0-.08c0-.06-.07-.1-.07-.17a.1.1 0 0 0 .09-.05z" style="fill:#fff"/>
</svg>
