<svg xmlns="http://www.w3.org/2000/svg" viewBox="0 0 1024 1024">
   <circle cx="512" cy="512" r="512" style="fill:#104594"/>
   <path d="M766 456.44c-11.34-53.61-40.73-103.23-82.69-138.54a259 259 0 0 0-133.1-59.51c-51.17-6.92-104.39 1.37-150.69 24.43-52 25.7-95.12 69.26-119.67 121.89a252.2 252.2 0 0 0-23.06 127.42c3.87 51.34 24.25 101.16 57 140.86a259.92 259.92 0 0 0 130.41 85.32c55.29 15.52 115.78 12.34 168.94-9.52 47-19 87.87-52.38 116.56-94.13a143 143 0 0 0-43.9 8.34h-.16c-10.41 3.21-24.06 10.21-29.13 12.89a21.71 21.71 0 0 0-2 1.08 218.82 218.82 0 0 1-248 21.6c-49.9-28.37-88-77.11-102.37-132.8a212.25 212.25 0 0 1 13.55-144.7c23-48.67 64.77-88 114.62-108.21a218.46 218.46 0 0 1 255.64 68.94 212.23 212.23 0 0 1 43 104.62c1.55 10.05-4.08 19.19-9.73 27-10.63 13.66-25.47 25-42.74 28.32-10.77 1.81-19.63-6-26.6-13.11 12.07-17.25 24.94-34.11 34.66-52.86 7.13-13.41 8.92-29.11 6.83-44-1.62-8.41-6.34-17.48-15-20.24-9-2.39-17.28 3.31-24.2 8.31-18.83 14.66-33.94 33.6-46.84 53.53-7.16 11.76-14.15 24.1-16.65 37.79-1.36 6.28.53 12.58 1.36 18.8-12 11.11-23.32 22.83-35.77 33.41-6.14 5.19-12.43 10.72-20.15 13.38a11 11 0 0 1-13-5.26c-4.59-7.53-.63-16.39 1.81-23.92 10.7-28.29 25.45-54.83 40.48-81 8.52-14.77 18-29 25.66-44.23 3.17-7.27-5.33-12-11-13.82-7.55-2-16.4-7.27-23.8-2.17-9.73 6.53-16.84 16.07-24.5 24.78-18 22.39-38 43-58.63 63-20.51 19.45-41.19 38.86-64 55.57-9.94 6.55-19.66 13.47-29.94 19.45-4.66 3.13-10.63-.28-12-5.28-3.2-10.61 1.9-21.23 4.44-31.42 1.18-3.1.81-7.15 3.66-9.33 27.53-22.79 55.29-45.52 79.88-71.55 8.55-9.29 16.88-19.08 22.34-30.57 2.9-6.13 4.75-13.27 2.9-20-2.22-6.07-8.85-8.5-14.57-10.1-11-3-23-5.81-34-1.53-15.56 5.93-28.46 16.91-40.82 27.81a552.52 552.52 0 0 0-48.77 51.7c-24.71 29.8-33.43 71.76-23.64 109.06 5.86 21 22.79 37.95 42.7 46.12 9.47 4 20.35 4.77 30 .93 13.91-5.42 25.22-15.51 36.28-25.21 15.7-15 31-30.49 46.73-45.46-.62 15.58-3.45 31.19-1.6 46.78 1.6 14.63 11.42 28.3 25.12 33.92 9.84 4.15 20.84 1.07 30.06-3.27 15.23-7.53 28.44-18.45 41.42-29.27 15.95-13.87 31.95-27.65 48.21-41.13 8 5.42 16.26 11 25.86 13.11 19.78 3.75 40-1.67 57.59-10.84 24.2-11.09 45.43-29.64 57.52-53.56 8.2-16.41 12.14-35.61 7.49-53.62z" style="fill:#fff"/>
</svg>
