<svg xmlns="http://www.w3.org/2000/svg" viewBox="0 0 1024 1024">
   <circle cx="512" cy="512" r="512" style="fill:#ef4273"/>
   <path d="M492.31 522.07h-61.73a4.41 4.41 0 0 0-4.42 5.18l.26 1.78a34.27 34.27 0 0 0 2 7 24.7 24.7 0 0 0 6.89 9.26c3.06 2.72 7.4 4 12.93 4s9.78-1.36 12.93-4a26.36 26.36 0 0 0 5.78-7 4.46 4.46 0 0 1 3.85-2.29h17.26a4.53 4.53 0 0 1 4.25 6 34.27 34.27 0 0 1-2.81 6.2 46.83 46.83 0 0 1-6.46 9.09 37.72 37.72 0 0 1-7.57 6.37 58.86 58.86 0 0 1-7.82 4.16 54.14 54.14 0 0 1-43.54-2 51.16 51.16 0 0 1-8.76-6.11 36.67 36.67 0 0 1-7.65-9.34 52 52 0 0 1-5.36-13.5 83.47 83.47 0 0 1 0-36.69 54 54 0 0 1 5.36-13.59 37.61 37.61 0 0 1 7.65-9.51 47.41 47.41 0 0 1 8.76-6.2c6.89-3.74 14.8-5.69 23.72-6h.51a58.68 58.68 0 0 1 20.49 4.59 45.15 45.15 0 0 1 8.16 4.76 40.57 40.57 0 0 1 7.65 7.22 44.58 44.58 0 0 1 6.21 10.28 52.34 52.34 0 0 1 3.91 13.76c.25 2 .51 4.08.68 6.2s.34 4.42.34 6.88c.11-.16.62 3.5-3.47 3.5zm-29.42-16.73a4.44 4.44 0 0 0 4.08-6.28.08.08 0 0 0-.09-.09 20.36 20.36 0 0 0-10.37-10 21.58 21.58 0 0 0-8.42-1.53 21.28 21.28 0 0 0-8.42 1.53 18.55 18.55 0 0 0-6.21 4.16 22 22 0 0 0-4.25 5.86v.09a4.48 4.48 0 0 0 4.08 6.37h29.59zM388 422a24.52 24.52 0 0 0-24.58 24.54v71.09a83.73 83.73 0 0 1-.51 9.09 23.09 23.09 0 0 1-2.55 8.41 16.86 16.86 0 0 1-6.12 6.37c-2.72 1.7-6.63 2.55-11.56 2.55s-8.84-.85-11.56-2.55a16.86 16.86 0 0 1-6.12-6.37 23.09 23.09 0 0 1-2.55-8.41 82.49 82.49 0 0 1-.51-9.09v-73.28a24.52 24.52 0 0 0-24.58 24.54v48.66a83.67 83.67 0 0 1-.51 9.09 23.09 23.09 0 0 1-2.55 8.41 16.86 16.86 0 0 1-6.12 6.37c-2.72 1.7-6.63 2.55-11.56 2.55s-8.84-.85-11.56-2.55a16.86 16.86 0 0 1-6.12-6.37 23.09 23.09 0 0 1-2.55-8.41 82.55 82.55 0 0 1-.51-9.09v-50.86a24.57 24.57 0 0 0-24.58 24.54v26.33a73.74 73.74 0 0 0 2 18.34 61.38 61.38 0 0 0 5.1 13.59 38.39 38.39 0 0 0 7.23 9.51 45 45 0 0 0 8.33 6.2 47.83 47.83 0 0 0 22.53 6 48.59 48.59 0 0 0 22.79-6 41.93 41.93 0 0 0 8.25-6.2c.68-.68 1.36-1.36 2-2.12.68.76 1.36 1.44 2 2.12a45 45 0 0 0 8.33 6.2 47.83 47.83 0 0 0 22.53 6 48.59 48.59 0 0 0 22.79-6 41.92 41.92 0 0 0 8.25-6.2 38.39 38.39 0 0 0 7.23-9.51 54 54 0 0 0 5.1-13.59 78.1 78.1 0 0 0 1.87-18.34zm182.29 143a4.86 4.86 0 0 1-4.59 3.31h-25.85a4.94 4.94 0 0 1-4.59-3.31l-30-92a4.77 4.77 0 0 1 4.59-6.28h14.54a4.93 4.93 0 0 1 4.59 3.31l19.22 58.69a4.78 4.78 0 0 0 9.1 0L568.33 495l18.54-56.73a23.54 23.54 0 0 1 29.68-15zm118.54-79a37.63 37.63 0 0 0-7.65-9.51 47.4 47.4 0 0 0-8.76-6.2 52.69 52.69 0 0 0-23.64-6c-8.42 0-15.56 1.27-21.43 3.74a37.57 37.57 0 0 0-14.54 10.62 43.41 43.41 0 0 0-8.33 16.82 90.33 90.33 0 0 0-2.64 22.51V596a5.91 5.91 0 0 0 6 5.94h11.9a5.91 5.91 0 0 0 6-5.94v-39.29a28 28 0 0 0 4.25 4.67 35.84 35.84 0 0 0 10.2 6.37 38.68 38.68 0 0 0 11.57 2.55h.94a45.07 45.07 0 0 0 21.6-5.61 44.5 44.5 0 0 0 8.16-6.11 39.07 39.07 0 0 0 7.06-9.34 56 56 0 0 0 5-13.42 77.38 77.38 0 0 0 1.87-18.26 69.1 69.1 0 0 0-2.13-18.26 53.23 53.23 0 0 0-5.43-13.3zm-17.94 41.36a29 29 0 0 1-3.23 9.68 20.68 20.68 0 0 1-6.89 7.47c-3 2-7 3-11.91 3s-8.93-1-11.9-3a22.75 22.75 0 0 1-7.06-7.51 27.24 27.24 0 0 1-3.32-9.68 66.74 66.74 0 0 1-.77-9.6 90.62 90.62 0 0 1 .68-10.7 28.88 28.88 0 0 1 3-9.6 16.78 16.78 0 0 1 6.89-6.88c3.06-1.7 7.23-2.63 12.41-2.63 4.93 0 8.93 1 11.91 3a20.62 20.62 0 0 1 6.89 7.47 31.77 31.77 0 0 1 3.23 9.68 67.08 67.08 0 0 1 .77 9.6 56.43 56.43 0 0 1-.7 9.67zm118.79-32.19a47.77 47.77 0 0 0-7.91-15.17 37.31 37.31 0 0 0-10.46-9.17 49 49 0 0 0-10.63-4.67 39.36 39.36 0 0 0-8.76-1.7c-2.47-.17-3.91-.17-4.34-.17s-2 .08-4.42.17a39 39 0 0 0-8.59 1.7 53.55 53.55 0 0 0-10.57 4.69 37.32 37.32 0 0 0-10.51 9.15 48.76 48.76 0 0 0-7.91 15.12c-2 6.11-3.15 13.59-3.15 22.51V563a5.33 5.33 0 0 0 5.36 5.35h13.69a5.33 5.33 0 0 0 5.36-5.35v-45.27a54.26 54.26 0 0 1 .77-9 25.35 25.35 0 0 1 3-8.41 17.56 17.56 0 0 1 6.21-6.28c2.64-1.7 6.21-2.46 10.63-2.46s8 .85 10.63 2.46a18.26 18.26 0 0 1 6.21 6.28 25.35 25.35 0 0 1 3 8.41 55 55 0 0 1 .77 9V563a5.33 5.33 0 0 0 5.36 5.35h14a5.33 5.33 0 0 0 5.36-5.35v-45.27c-.03-9-1.06-16.47-3.1-22.59z" style="fill:#fff"/>
</svg>
