<?xml version="1.0" encoding="utf-8"?>
<!-- Generator: Adobe Illustrator 21.0.0, SVG Export Plug-In . SVG Version: 6.00 Build 0)  -->
<svg version="1.1" xmlns="http://www.w3.org/2000/svg" xmlns:xlink="http://www.w3.org/1999/xlink" x="0px" y="0px"
	 viewBox="0 0 1024 1024" style="enable-background:new 0 0 1024 1024;" xml:space="preserve">
<style type="text/css">
	.st0{fill:#B2B4B6;}
	.st1{fill:#FFFFFF;}
</style>
<g id="Min_Guides__x28_DO_NOT_REMOVE_x29_">
</g>
<g id="Max_Guides__x28_DO_NOT_REMOVE_x29_">
</g>
<g id="Icon">
	<circle id="Background" class="st0" cx="512" cy="512" r="512"/>
	<path class="st1" d="M767,371c0,0-79.4,0-105.8,0l-1.3,0.9v9.3c0,1.1,0.5,2,1.5,2.7c1,0.7,2,1.1,3.1,1.1l8.8,0.4
		c10.9,0.4,13.8,2.6,18,6.2c4.2,3.7,4.7,10.1,1.4,19.1l-93.7,222.3l-3.6-1l-59.5-121.7c0.9-1.8,1.4-2.9,1.4-2.9l48.7-91
		c5.7-9.6,11.1-18.2,13.9-22.2c5.1-7.3,7.9-8.7,21.8-9.3c2.8,0,4.3-1.3,4.3-3.8V372l-1.1-1l0,0c0,0-59.5-0.2-86,0l-1.3,0.9v9.2
		c0,1.1,0.5,2,1.4,2.7c1,0.7,2,1.1,3.1,1.1l4.3,0.5c10.8,0.4,15.8,3.3,17.3,5.1c2.6,3.2,3.9,6.6-2.4,20.2l-37.4,74.7l-33.8-69.2
		c-11.1-22.1-13.8-29,2.9-30.3l6.6-0.9c3.2,0,4.8-1.1,4.8-3.3V372l-2.4-0.8c0,0-63,0-91.3,0l-1.3,0.9v9.7c0,2.2,2.3,2.7,6.7,3.3
		c15.7,2.1,15.3,3.7,30.8,34.4c2.3,4.6,9.1,18.5,9.1,18.5v0l35.3,69.3c0,0,4,8.9,10.3,22.7l-51.3,102.3l-2.9-0.8
		c0,0-79.6-167.9-102.7-224c-2.4-5.8-3.5-10.1-3.5-12.8c0-5.7,5.1-8.8,15.4-9.2l12-0.5c3.2,0,4.8-1.2,4.8-3.8v-9.2l-1.1-0.9
		c0,0-95.3-0.1-115,0l-1.1,0.9v9.7c0,1.7,2.2,2.8,6.7,3.3c12.1,0.7,20.1,2.6,23.9,5.8c3.8,3.3,7.8,11.5,13.2,24.3
		c28.9,69.5,90.4,193.6,120.4,264.2c8.6,19.3,19.5,22.3,32.6-0.6c13.5-25.1,40.8-80.8,60.8-121.9c18.6,41,44,96.5,56.2,121.7
		c9.8,20.1,20.9,22.1,32.1,0.6c29.5-65.5,115.6-262.7,115.6-262.7c3.7-9.7,8.9-17.1,15.6-22.5c6.7-5.4,16.9-8.4,30.8-9
		c2.8,0,4.3-1.3,4.3-3.8V372L767,371z"/>
</g>
</svg>
