<svg xmlns="http://www.w3.org/2000/svg" viewBox="0 0 1024 1024" style="enable-background:new 0 0 1024 1024" xml:space="preserve">
   <circle cx="512" cy="512" r="512" style="fill:#b2b4b6"/>
   <path d="M767 371H661.2l-1.3.9v9.3c0 1.1.5 2 1.5 2.7 1 .7 2 1.1 3.1 1.1l8.8.4c10.9.4 13.8 2.6 18 6.2 4.2 3.7 4.7 10.1 1.4 19.1L599 633l-3.6-1-59.5-121.7c.9-1.8 1.4-2.9 1.4-2.9l48.7-91c5.7-9.6 11.1-18.2 13.9-22.2 5.1-7.3 7.9-8.7 21.8-9.3 2.8 0 4.3-1.3 4.3-3.8V372l-1.1-1s-59.5-.2-86 0l-1.3.9v9.2c0 1.1.5 2 1.4 2.7 1 .7 2 1.1 3.1 1.1l4.3.5c10.8.4 15.8 3.3 17.3 5.1 2.6 3.2 3.9 6.6-2.4 20.2l-37.4 74.7-33.8-69.2c-11.1-22.1-13.8-29 2.9-30.3l6.6-.9c3.2 0 4.8-1.1 4.8-3.3V372l-2.4-.8h-91.3l-1.3.9v9.7c0 2.2 2.3 2.7 6.7 3.3 15.7 2.1 15.3 3.7 30.8 34.4 2.3 4.6 9.1 18.5 9.1 18.5l35.3 69.3s4 8.9 10.3 22.7l-51.3 102.3-2.9-.8s-79.6-167.9-102.7-224c-2.4-5.8-3.5-10.1-3.5-12.8 0-5.7 5.1-8.8 15.4-9.2l12-.5c3.2 0 4.8-1.2 4.8-3.8V372l-1.1-.9s-95.3-.1-115 0l-1.1.9v9.7c0 1.7 2.2 2.8 6.7 3.3 12.1.7 20.1 2.6 23.9 5.8 3.8 3.3 7.8 11.5 13.2 24.3 28.9 69.5 90.4 193.6 120.4 264.2 8.6 19.3 19.5 22.3 32.6-.6 13.5-25.1 40.8-80.8 60.8-121.9 18.6 41 44 96.5 56.2 121.7 9.8 20.1 20.9 22.1 32.1.6 29.5-65.5 115.6-262.7 115.6-262.7 3.7-9.7 8.9-17.1 15.6-22.5 6.7-5.4 16.9-8.4 30.8-9 2.8 0 4.3-1.3 4.3-3.8V372l-1.4-1z" style="fill:#fff"/>
</svg>
