<?xml version="1.0" encoding="utf-8"?>
<!-- Generator: Adobe Illustrator 21.0.0, SVG Export Plug-In . SVG Version: 6.00 Build 0)  -->
<svg version="1.1" xmlns="http://www.w3.org/2000/svg" xmlns:xlink="http://www.w3.org/1999/xlink" x="0px" y="0px"
	 viewBox="0 0 1024 1024" style="enable-background:new 0 0 1024 1024;" xml:space="preserve">
<style type="text/css">
	.st0{fill:#357AC0;}
	.st1{fill:#FFFFFF;enable-background:new    ;}
</style>
<g id="Min_Guides__x28_DO_NOT_REMOVE_x29_">
</g>
<g id="Max_Guides__x28_DO_NOT_REMOVE_x29_">
</g>
<g id="Icon">
	<circle id="Background" class="st0" cx="512" cy="512" r="512"/>
	<path class="st1" d="M765.1,498.1l-64.7-155.4c-3.6-9-10.8-15.7-19.3-19.3l-155.4-64.7c-4.5-1.8-9.2-2.7-13.9-2.7c0,0,0,0,0,0
		c-4.5,0-9.4,0.9-13.5,2.7l-155.4,64.2c-9,3.6-15.7,10.8-19.3,19.3l-64.7,155.4c-1.8,4.5-2.7,9.2-2.7,13.9c0,4.7,0.9,9.4,2.7,13.9
		l64.7,156.3c3.6,8.5,10.8,15.7,19.3,19.3l155,64.2c4.5,1.8,9,2.7,13.5,2.7c3.8,0,7.9-0.7,11.5-2c0.8-0.2,1.6-0.5,2.4-0.7
		l155.9-64.2c8.5-3.6,15.7-10.3,19.3-19.3l64.7-156.3C768.7,516.5,768.7,506.6,765.1,498.1z M596.7,578.5V400.2h42.7v221h-0.4h-39.5
		c-11.2,0-22.5-4.5-30.1-12.6l-58.8-66l-58.4,66c-8.1,8.1-18.9,12.6-30.1,12.6h-39.5v-221h42.7v178.3l85.8-92.5"/>
</g>
</svg>
