<svg xmlns="http://www.w3.org/2000/svg" viewBox="0 0 1024 1024">
   <circle cx="512" cy="512" r="512" style="fill:#275ca1"/>
   <path d="M603.38 384.69c10.87-7.39 27.49 1.82 26.62 15 .17 27.8 0 55.62 0 83.44 16.45-15.48 32.74-31.12 49.08-46.74 3.67-3.54 8.53-6.19 13.8-5.58 10.54-.07 19.62 11 16.88 21.32-1.36 6.26-6.32 10.72-10.76 14.94-10.56 9.71-21 19.62-31.52 29.35Q689 525.81 710.66 555c2.36 3.43 5 6.93 5.69 11.15 1.73 11.37-10 22.46-21.28 19.82-5.51-.81-9.93-4.64-12.95-9.12-13.49-18.63-27.16-37.14-40.72-55.73-3.72 3.91-8.66 7.13-11 12-1.07 13 .52 26.11-.59 39.13-1.2 10.61-14.48 17.63-24 12.95a16.75 16.75 0 0 1-10.67-16.93c0-55.42.07-110.84-.07-166.26-.83-6.82 2.03-14.01 8.31-17.32Zm-209.61 30.89c-5.07 9.47-.52 20.21 6.06 27.56-.31 6.58.52 13.19 3.81 19-17.17 23-18.07 54.24-11.9 81.25 4.09 15.9 14.19 31 29.33 38.16 21.67 10.5 49.58 8.73 68.74-6.32 12.69-9.86 19.84-25.3 22.44-40.9 3.48-23.77 1.88-49.8-12.31-70.1 8-4.7 13.82-13.25 13.23-22.81.68-9.6-5.49-17.78-12.75-23.29-.9-7.9-2.84-16.8-10.21-21.19-8.38-6-19.38-3.87-27.91.61-6-7.65-15.73-12.84-25.61-10.35-8.35 1.29-13.89 8.22-18.15 14.89-9.88-.18-20.97 3.51-24.77 13.49Zm47.66-18.09c9.38-.48 14.19 9.1 15.73 17 3.78-4.13 7.44-9 13-10.76 7-2.49 15.27 1.73 18.09 8.4 1.75 4.75.13 9.8-.59 14.59 5.64 2.23 12 4.75 14.68 10.63 3.74 8.64-3.63 19.18-12.69 19.84-6 .74-11.68-1.68-17.23-3.52-4.7 6.15-11.48 11.81-19.75 11-6.69.09-11.64-4.79-16.14-9.05-6 3.39-13.39 8.62-20.21 4-7.13-3.94-4.68-13-3.91-19.6-3.54-3.41-8-6.58-9.21-11.66-1.68-6.63 3.22-14 10-14.87 4.37-.33 8.6 1.07 12.79 2 2.01-7.79 5.83-17.98 15.43-18ZM470 482.78c7.33 8.31 8.62 20 8.7 30.64 0 10.8-1.07 22.64-8.14 31.36-8 9.91-22.9 10.45-34.12 6.56-12.62-4.7-17.21-19.16-17.69-31.45-1.4-15.79 3.26-35.17 19.14-42.1 10.45-4.43 23.92-3.34 32.11 4.99Zm67.1-76.5c.09 55.44-.17 110.91.11 166.35-.48 10.41 10.13 18.13 20 16.25 9.23-.46 15.33-9.56 14.85-18.28.17-54.07 0-108.13.11-162.2 0-5.8-.44-12.25-4.59-16.73a18.59 18.59 0 0 0-20.49-4c-7.31 3.02-10.53 11.15-9.98 18.61ZM732.88 404v168.69c-.61 9.14 8 16.62 16.86 16.36 9.08.85 18.11-7 17.5-16.34 0-57 .13-113.9-.09-170.83.2-11.33-13.49-18.81-23.45-14.59A16.73 16.73 0 0 0 732.88 404Zm63.1 8.75c3.32 9.47 15.62 14.19 24.43 9.25 13.3-6.08 12.95-27.47.81-34.6-5-2.71-11.18-2.34-16.29-.24-9.24 4.16-12.45 16.54-8.93 25.55ZM193.69 537.64c-.11 11.35 3.06 22.9 9.78 32.15 17.89 23.64 55.77 27 78.19 7.87 22.44 18.77 60.85 16.62 78-8.27 8-11 10.43-25 10-38.27-.9-24.89 0-49.8-.48-74.67 0-6.76-5.66-11.92-11.46-14.35-10.74-5.07-24.34 4.88-23.36 16.58-.24 25.57.09 51.16-.09 76.72-.26 6.93-2.08 16-9.58 18.55-5.47 1.22-11.29.33-16.6-1.22-6.47-1.66-8.09-9.16-8.55-14.94-1.16-10.72 1.68-22.29-3.22-32.33-6.54-11.7-26.33-10.15-31.1 2.3-2.91 13.43 1.62 28.34-4.81 41.05-4.11 7.55-14.19 6.17-21.28 4.92-8.31-1.64-10.06-11.33-10.26-18.42-.37-25.48.15-51-.2-76.42.33-9.19-7.35-18.11-16.84-17.65-9.73-1.07-19 7.74-18.09 17.56-.05 26.28.06 52.57-.05 78.84Zm600.89-74.3c.26 36.35-.24 72.74.24 109.09-.22 11.39 12.84 20.38 23.4 16.05 7.63-2.36 12.36-10.21 11.94-18 0-37.14.09-74.27 0-111.41.79-12.53-13.58-22.29-25-16.93-8.16 3.29-10.82 13.17-10.58 21.2Z" style="fill:#fff"/>
</svg>
