<?xml version="1.0" encoding="utf-8"?>
<!-- Generator: Adobe Illustrator 21.0.0, SVG Export Plug-In . SVG Version: 6.00 Build 0)  -->
<svg version="1.1" xmlns="http://www.w3.org/2000/svg" xmlns:xlink="http://www.w3.org/1999/xlink" x="0px" y="0px"
	 viewBox="0 0 1024 1024" style="enable-background:new 0 0 1024 1024;" xml:space="preserve">
<style type="text/css">
	.st0{fill:#23282D;}
	.st1{fill:#FFFFFF;}
</style>
<g id="Guides">
</g>
<g id="Icon">
	<circle class="st0" cx="512" cy="512" r="512"/>
	<g>
		<path class="st1" d="M512,271.4c32.5,0,64,6.4,93.7,18.9c14.3,6,28,13.5,40.9,22.2c12.7,8.6,24.7,18.5,35.6,29.4
			c10.9,10.9,20.8,22.9,29.4,35.6c8.7,12.9,16.2,26.6,22.2,40.9c12.5,29.7,18.9,61.2,18.9,93.7c0,32.5-6.4,64-18.9,93.7
			c-6,14.3-13.5,28-22.2,40.9c-8.6,12.7-18.5,24.7-29.4,35.6c-10.9,10.9-22.9,20.8-35.6,29.4c-12.9,8.7-26.6,16.2-40.9,22.2
			c-29.7,12.5-61.2,18.9-93.7,18.9c-32.5,0-64-6.4-93.7-18.9c-14.3-6-28-13.5-40.9-22.2c-12.7-8.6-24.7-18.5-35.6-29.4
			c-10.9-10.9-20.8-22.9-29.4-35.6c-8.7-12.9-16.2-26.6-22.2-40.9c-12.5-29.7-18.9-61.2-18.9-93.7c0-32.5,6.4-64,18.9-93.7
			c6-14.3,13.5-28,22.2-40.9c8.6-12.7,18.5-24.7,29.4-35.6c10.9-10.9,22.9-20.8,35.6-29.4c12.9-8.7,26.6-16.2,40.9-22.2
			C448,277.7,479.5,271.4,512,271.4 M512,256c-141.4,0-256,114.6-256,256s114.6,256,256,256s256-114.6,256-256S653.4,256,512,256"/>
		<path class="st1" d="M298.7,512c0,84.4,49.1,157.4,120.2,192L317.1,425.2C305.3,451.7,298.7,481.1,298.7,512 M656,501.2
			c0-26.4-9.5-44.6-17.6-58.8c-10.8-17.6-21-32.5-21-50c0-19.6,14.9-37.9,35.8-37.9c0.9,0,1.8,0.1,2.8,0.2
			c-38-34.8-88.5-56-144.1-56c-74.5,0-140.1,38.2-178.2,96.2c5,0.2,9.7,0.3,13.7,0.3c22.3,0,56.9-2.7,56.9-2.7
			c11.5-0.7,12.9,16.2,1.4,17.6c0,0-11.6,1.4-24.4,2L459,643.1l46.7-140L472.4,412c-11.5-0.7-22.4-2-22.4-2
			c-11.5-0.7-10.2-18.3,1.4-17.6c0,0,35.2,2.7,56.2,2.7c22.3,0,56.9-2.7,56.9-2.7c11.5-0.7,12.9,16.2,1.4,17.6c0,0-11.6,1.4-24.4,2
			l77.1,229.3l22-69.7C650.3,541.1,656,519.5,656,501.2 M515.7,530.7l-64,186c19.1,5.6,39.3,8.7,60.3,8.7c24.8,0,48.7-4.3,70.8-12.1
			c-0.6-0.9-1.1-1.9-1.5-2.9L515.7,530.7z M699.2,409.7c0.9,6.8,1.4,14.1,1.4,21.9c0,21.6-4.1,46-16.2,76.4l-65.2,188.4
			c63.4-37,106.1-105.7,106.1-184.4C725.3,474.9,715.9,440,699.2,409.7"/>
	</g>
</g>
</svg>
