<svg xmlns="http://www.w3.org/2000/svg" viewBox="0 0 1024 1024">
   <circle cx="512" cy="512" r="512" style="fill:#218dc1"/>
   <path d="M763.32 583.71A482 482 0 0 0 712.76 562v-93.9H720l-17.54-39.21-17.54 39.21h7.22v86.68A622.66 622.66 0 0 0 625 537.27V434.08h7.22l-17.54-39.21-17.54 39.21h7.22v99.06Q568.81 527 527 523.86c-1-22.7-2.06-43.34-2.06-57.79 0-23.73 1-36.12 1-36.12 1-1 1-2.06 2.06-3.1 1-3.1 2.06-5.16 2.06-8.25v-3.1h9.29v-1l-26.83-58.82-28.89 57.79v1H493v3.1a19.43 19.43 0 0 0 2.06 8.26c1 1 1 2.06 2.06 3.1 0 0 1 12.38 1 36.12 0 13.41 0 35.08-2.06 57.79q-41.79 3.1-77.39 9.29V433h7.22l-17.54-39.21L390.81 433H398v103.24a693.759 693.759 0 0 0-67.07 17.54V467.1h7.22l-17.54-39.21-17.51 39.21h7.22V561c-22.7 9.29-40.24 16.51-50.56 21.67-13.42-124.86 13.42-233.21 13.42-233.21 126.92-4.13 239.4-71.2 239.4-71.2S625 346.37 750.94 350.5c0 0 27.86 108.35 12.38 233.21Zm-49.53 98h28.89c4.13-13.41 8.26-27.86 10.32-41.28a195.46 195.46 0 0 0 7.22-33v-1c-5.16-5.16-21.67-13.42-46.43-22.7Zm-87.71-1h68.11V575.45q-29.41-9.29-68.11-18.57ZM532.18 560c4.13 32 12.38 81.52 21.67 120.73h51.59v-128c-23.73-4.13-48.5-7.22-75.33-9.29 0 .02 2.07 14.47 2.07 16.56ZM419.7 680.7h51.59C479.55 641.49 488.84 592 493 560c0-2.06 2.06-15.48 2.06-16.51a715.42 715.42 0 0 0-75.33 9.29Zm-88.74 0h68.1V556.88q-40.24 9.29-68.1 18.57Zm-69.14-74.3c1 8.25 4.13 19.61 7.22 33s6.19 27.86 10.32 41.28h28.89v-98c-22.7 10.32-39.21 18.57-46.43 22.7Z" style="fill:#fff"/>
</svg>
