<svg xmlns="http://www.w3.org/2000/svg" viewBox="0 0 1024 1024">
   <style>
      .st1{fill:#fff}
   </style>
   <g id="Icon">
      <circle cx="512" cy="512" r="512" style="fill:#23282d"/>
      <path class="st1" d="M512 271.4c32.5 0 64 6.4 93.7 18.9 14.3 6 28 13.5 40.9 22.2 12.7 8.6 24.7 18.5 35.6 29.4 10.9 10.9 20.8 22.9 29.4 35.6 8.7 12.9 16.2 26.6 22.2 40.9 12.5 29.7 18.9 61.2 18.9 93.7s-6.4 64-18.9 93.7c-6 14.3-13.5 28-22.2 40.9-8.6 12.7-18.5 24.7-29.4 35.6-10.9 10.9-22.9 20.8-35.6 29.4-12.9 8.7-26.6 16.2-40.9 22.2-29.7 12.5-61.2 18.9-93.7 18.9s-64-6.4-93.7-18.9c-14.3-6-28-13.5-40.9-22.2-12.7-8.6-24.7-18.5-35.6-29.4-10.9-10.9-20.8-22.9-29.4-35.6-8.7-12.9-16.2-26.6-22.2-40.9-12.5-29.7-18.9-61.2-18.9-93.7s6.4-64 18.9-93.7c6-14.3 13.5-28 22.2-40.9 8.6-12.7 18.5-24.7 29.4-35.6 10.9-10.9 22.9-20.8 35.6-29.4 12.9-8.7 26.6-16.2 40.9-22.2 29.7-12.6 61.2-18.9 93.7-18.9m0-15.4c-141.4 0-256 114.6-256 256s114.6 256 256 256 256-114.6 256-256-114.6-256-256-256"/>
      <path class="st1" d="M298.7 512c0 84.4 49.1 157.4 120.2 192L317.1 425.2c-11.8 26.5-18.4 55.9-18.4 86.8M656 501.2c0-26.4-9.5-44.6-17.6-58.8-10.8-17.6-21-32.5-21-50 0-19.6 14.9-37.9 35.8-37.9.9 0 1.8.1 2.8.2-38-34.8-88.5-56-144.1-56-74.5 0-140.1 38.2-178.2 96.2 5 .2 9.7.3 13.7.3 22.3 0 56.9-2.7 56.9-2.7 11.5-.7 12.9 16.2 1.4 17.6 0 0-11.6 1.4-24.4 2l77.7 231 46.7-140-33.3-91.1c-11.5-.7-22.4-2-22.4-2-11.5-.7-10.2-18.3 1.4-17.6 0 0 35.2 2.7 56.2 2.7 22.3 0 56.9-2.7 56.9-2.7 11.5-.7 12.9 16.2 1.4 17.6 0 0-11.6 1.4-24.4 2l77.1 229.3 22-69.7c9.7-30.5 15.4-52.1 15.4-70.4m-140.3 29.5-64 186c19.1 5.6 39.3 8.7 60.3 8.7 24.8 0 48.7-4.3 70.8-12.1-.6-.9-1.1-1.9-1.5-2.9l-65.6-179.7zm183.5-121c.9 6.8 1.4 14.1 1.4 21.9 0 21.6-4.1 46-16.2 76.4l-65.2 188.4c63.4-37 106.1-105.7 106.1-184.4 0-37.1-9.4-72-26.1-102.3"/>
   </g>
</svg>
