<?xml version="1.0" encoding="utf-8"?>
<!-- Generator: Adobe Illustrator 21.0.0, SVG Export Plug-In . SVG Version: 6.00 Build 0)  -->
<svg version="1.1" xmlns="http://www.w3.org/2000/svg" xmlns:xlink="http://www.w3.org/1999/xlink" x="0px" y="0px"
	 viewBox="0 0 1024 1024" style="enable-background:new 0 0 1024 1024;" xml:space="preserve">
<style type="text/css">
	.st0{fill:#0ECAD4;}
	.st1{fill:#FFFFFF;}
</style>
<g id="Min_Guides__x28_DO_NOT_REMOVE_x29_">
</g>
<g id="Max_Guides__x28_DO_NOT_REMOVE_x29_">
</g>
<g id="Icon">
	<circle id="Background" class="st0" cx="512" cy="512" r="512"/>
	<path class="st1" d="M443.4,723.7h135.9v-103l-32.9-32.9h-70.1l-32.9,32.9C443.4,620.7,443.4,723.7,443.4,723.7z M619.3,444.8
		l-32.9,32.9v71.5l32.9,32.9h103V446.2h-103C619.3,446.2,619.3,444.8,619.3,444.8z M579.2,300.3H443.4v103l32.9,32.9h70.1l32.9-32.9
		V300.3z M723.7,723.7v-103l-32.9-32.9h-103v135.9C587.8,723.7,723.7,723.7,723.7,723.7z M333.2,300.3l-32.9,32.9v103h135.9V300.3
		H333.2z M587.8,300.3v103l32.9,32.9h103V300.3H587.8z M512,532c-10,0-18.6-8.6-18.6-18.6s8.6-18.6,18.6-18.6
		c10,0,18.6,8.6,18.6,18.6S522,532,512,532z M436.2,444.8H300.3v135.9h103l32.9-32.9C436.2,547.8,436.2,444.8,436.2,444.8z
		 M436.2,620.7l-32.9-32.9h-103v135.9h103l32.9-32.9C436.2,690.8,436.2,620.7,436.2,620.7z"/>
</g>
</svg>
