<svg xmlns="http://www.w3.org/2000/svg" viewBox="0 0 1024 1024" style="enable-background:new 0 0 1024 1024" xml:space="preserve">
   <circle cx="512" cy="512" r="512" style="fill:#0ecad4"/>
   <path d="M443.4 723.7h135.9v-103l-32.9-32.9h-70.1l-32.9 32.9v103zm175.9-278.9-32.9 32.9v71.5l32.9 32.9h103V446.2h-103v-1.4zm-40.1-144.5H443.4v103l32.9 32.9h70.1l32.9-32.9v-103zm144.5 423.4v-103l-32.9-32.9h-103v135.9h135.9zM333.2 300.3l-32.9 32.9v103h135.9V300.3h-103zm254.6 0v103l32.9 32.9h103V300.3H587.8zM512 532c-10 0-18.6-8.6-18.6-18.6s8.6-18.6 18.6-18.6c10 0 18.6 8.6 18.6 18.6S522 532 512 532zm-75.8-87.2H300.3v135.9h103l32.9-32.9v-103zm0 175.9-32.9-32.9h-103v135.9h103l32.9-32.9v-70.1z" style="fill:#fff"/>
</svg>
