<svg xmlns="http://www.w3.org/2000/svg" viewBox="0 0 1024 1024">
   <circle cx="512" cy="512" r="512" style="fill:#1cf1bb"/>
   <path d="m389.09 431.6-61.91 133.07-23.1-50.83-9.24-20.33-28.65-61.91h-19.41l37.89 82.25-23.1 50.83-61-133.07h-19.4L252.32 585l3.7 7.39H269l3.7-7.39 23.1-50.83L318.86 585l3.7 7.39h12.94l3.7-7.39 69.3-153.4zm141.39 0-47.13 83.17-47.13-83.17h-20.33l58.22 103.5v57.3h17.56v-57.3l59.14-103.5zm174.66 86.87h137.69v-16.64H705.14zm0 0h137.69v-16.64H705.14zM561 431.6v17.56h100.71L554.51 592.4h135.84v-17.56H589.63L696.82 431.6zm144.16 16.63h137.67V431.6H705.14zm0 144.16h137.67v-16.63H705.14z" style="fill:#fff"/>
</svg>
