<?xml version="1.0" encoding="utf-8"?>
<!-- Generator: Adobe Illustrator 21.0.0, SVG Export Plug-In . SVG Version: 6.00 Build 0)  -->
<svg version="1.1" xmlns="http://www.w3.org/2000/svg" xmlns:xlink="http://www.w3.org/1999/xlink" x="0px" y="0px"
	 viewBox="0 0 1024 1024" style="enable-background:new 0 0 1024 1024;" xml:space="preserve">
<style type="text/css">
	.st0{fill:#EA7100;}
	.st1{fill:#FFFFFF;}
</style>
<g id="Min_Guides__x28_DO_NOT_REMOVE_x29_">
</g>
<g id="Max_Guides__x28_DO_NOT_REMOVE_x29_">
</g>
<g id="Icon">
	<circle id="Background" class="st0" cx="512" cy="512" r="512"/>
	<path class="st1" d="M276.2,466.8v-24.5h63v141.2h-63v-24.3h36.9v-92.4H276.2z M246.7,466.6v-24.3h-63v141.2h37.5l25.5,51.5v-76.2
		l-36.9,0.1v-92.4H246.7z M518.8,448.8l1-1.4l5.4-6.1H494l-44.7,53l-44.8-53l-31.5,0.2l5.6,6l55,65.4l-55,65.5l-5.6,6.2h31.5
		l44.8-53l44.7,53l31.3-0.2l-5.3-6L464.7,513L518.8,448.8z M654.8,441.4H538.4v143.3h116.4c7.1,0.1,14-2.7,19-7.8
		c5.2-5,8-11.9,7.9-19v-89.6c0.1-7.2-2.7-14.1-7.9-19C668.8,444.1,661.9,441.3,654.8,441.4z M657.6,557.9c0,0.8-0.3,1.5-0.8,2.1
		c-0.5,0.6-1.3,0.9-2.1,0.8h-89.6c-0.8,0-1.5-0.3-2.1-0.8c-0.5-0.6-0.8-1.3-0.8-2.1v-89.6c0-0.8,0.2-1.5,0.8-2.1
		c0.5-0.6,1.3-0.9,2.1-0.9h89.6c0.8,0,1.5,0.3,2.1,0.9c0.6,0.5,0.9,1.3,0.8,2.1V557.9z M832.5,449.3c-5-5.2-11.9-8-19-7.9h-89.7
		c-7.2-0.1-14,2.8-19,7.9c-5.1,5-7.9,11.9-7.8,19v116.4H721v-49h95.4v49h23.9V468.3C840.5,461.2,837.6,454.3,832.5,449.3z
		 M816.4,511.6H721v-43.3c-0.1-0.8,0.3-1.6,0.9-2.1c0.5-0.6,1.2-0.9,1.9-0.9h89.7c0.7,0,1.5,0.3,1.9,0.9c0.6,0.5,1,1.3,0.9,2.1
		V511.6z"/>
</g>
</svg>
