<svg xmlns="http://www.w3.org/2000/svg" viewBox="0 0 1024 1024" style="enable-background:new 0 0 1024 1024" xml:space="preserve">
   <circle cx="512" cy="512" r="512" style="fill:#ea7100"/>
   <path d="M276.2 466.8v-24.5h63v141.2h-63v-24.3h36.9v-92.4h-36.9zm-29.5-.2v-24.3h-63v141.2h37.5l25.5 51.5v-76.2l-36.9.1v-92.4h36.9zm272.1-17.8 1-1.4 5.4-6.1H494l-44.7 53-44.8-53-31.5.2 5.6 6 55 65.4-55 65.5-5.6 6.2h31.5l44.8-53 44.7 53 31.3-.2-5.3-6-55.3-65.4 54.1-64.2zm136-7.4H538.4v143.3h116.4c7.1.1 14-2.7 19-7.8 5.2-5 8-11.9 7.9-19v-89.6c.1-7.2-2.7-14.1-7.9-19-5-5.2-11.9-8-19-7.9zm2.8 116.5c0 .8-.3 1.5-.8 2.1-.5.6-1.3.9-2.1.8h-89.6c-.8 0-1.5-.3-2.1-.8-.5-.6-.8-1.3-.8-2.1v-89.6c0-.8.2-1.5.8-2.1.5-.6 1.3-.9 2.1-.9h89.6c.8 0 1.5.3 2.1.9.6.5.9 1.3.8 2.1v89.6zm174.9-108.6c-5-5.2-11.9-8-19-7.9h-89.7c-7.2-.1-14 2.8-19 7.9-5.1 5-7.9 11.9-7.8 19v116.4h24v-49h95.4v49h23.9V468.3c.2-7.1-2.7-14-7.8-19zm-16.1 62.3H721v-43.3c-.1-.8.3-1.6.9-2.1.5-.6 1.2-.9 1.9-.9h89.7c.7 0 1.5.3 1.9.9.6.5 1 1.3.9 2.1v43.3z" style="fill:#fff"/>
</svg>
