<?xml version="1.0" encoding="utf-8"?>
<!-- Generator: Adobe Illustrator 21.0.0, SVG Export Plug-In . SVG Version: 6.00 Build 0)  -->
<svg version="1.1" xmlns="http://www.w3.org/2000/svg" xmlns:xlink="http://www.w3.org/1999/xlink" x="0px" y="0px"
	 viewBox="0 0 1024 1024" style="enable-background:new 0 0 1024 1024;" xml:space="preserve">
<style type="text/css">
	.st0{fill:#006296;}
	.st1{fill:#FFFFFF;}
</style>
<g id="Min_Guides__x28_DO_NOT_REMOVE_x29_">
</g>
<g id="Max_Guides__x28_DO_NOT_REMOVE_x29_">
</g>
<g id="Icon">
	<circle id="Background" class="st0" cx="512" cy="512" r="512"/>
	<path id="Logo" class="st1" d="M235,511.5l35.9,52.3h-17.3l-26.2-40l-26.3,40h-17.3l35.9-51.7l-32.2-47.2H205l22.4,36 M231.6,494.4
		l18.3-29.5h17.3l-27.9,40.3 M289.2,505.8c0-2.2,0-4.3,0.2-6.2v-0.7l0,0c0.6-8.8,2.2-14.7,5-17.7c3.5-3.8,11.1-5.6,22.8-5.6
		c11.7,0,19.3,1.6,22.8,4.8c3.3,3,5,9.2,5.2,18.6h14.6c-0.9-13-3.6-21.9-8.1-26.6c-5.7-5.9-17.6-8.8-35.8-8.8
		c-16.7,0-27.9,3.4-33.6,10.1c-5.7,6.8-8.6,20-8.5,39.7c0,21.3,2.8,35.4,8.5,42c5.7,6.7,17.6,10,35.8,10c15.6,0,26.6-2.1,32.8-6.2
		c6.2-4.1,9.4-11.3,9.4-21.6l-0.1-3.6h-14.8v3.1c0,6.8-1.7,11.1-5.2,13.2c-3.5,2-11.1,3-22.7,2.9c-12.3,0-20.1-2.1-23.4-6.4
		s-5-14.2-5-29.8h71.2v-7.8c0-1.2,0-2.4,0-3.5L289.2,505.8L289.2,505.8z M289.4,498.8v0.7C289.4,499.3,289.4,499.1,289.4,498.8z
		 M421.6,475.5c9.2,0,15.5,1.5,18.7,4.4c3.2,2.9,4.9,8.6,4.9,17.1v1.8h14.6c0-13.7-2.6-23-7.5-27.9c-4.9-4.9-14.6-7.4-28.7-7.4
		c-17.5,0-28.5,5.1-32.9,15.2l-0.4-0.3l0.4-13.4h-14v33.9h14.8C393.3,483.2,403.3,475.5,421.6,475.5z M376.6,505.8h14.5v58h-14.5
		V505.8z M445.2,505.8h14.5v58h-14.5V505.8z M496.1,485.4v-49.3h70.6v-13.4h-86.6v76.2h82.5c0.4-4.5,1.1-9,2.1-13.4L496.1,485.4z
		 M480.2,505.8h15.9v58h-15.9V505.8z M646,514.4c0,17.6-1.5,28.4-4.6,32.6c-3.1,4.2-11.1,6.3-24,6.3c-12.8,0-20.8-2.1-23.8-6.3
		c-3.1-4.2-4.6-15-4.6-32.6c0-3.1,0-6,0.1-8.6H574c-0.1,2.7-0.2,5.6-0.2,8.6c0,21.2,2.7,35,8.2,41.4c5.4,6.3,17.3,9.5,35.6,9.5
		c18.3,0,30.1-3.2,35.6-9.5s8.2-20.1,8.2-41.4c0-3,0-5.9-0.2-8.6h-15.2C646,508.4,646,511.2,646,514.4z M593.7,481.7
		c3.1-4.2,11-6.3,23.8-6.3c12.8,0,20.8,2.1,24,6.3c2,2.8,3.4,8.5,4,17.1h15.1c-1.1-12.6-3.6-21.2-7.6-25.9
		c-5.4-6.3-17.3-9.5-35.6-9.5c-18.3,0-30.1,3.2-35.5,9.5c-4,4.6-6.5,13.3-7.6,25.9h15.1C590.3,490.2,591.6,484.5,593.7,481.7z
		 M674.9,505.8h14.5v58h-14.5V505.8z M713.6,474.6c11,0,16.5,5.1,16.5,15.2c0,0.9-0.1,2.7-0.3,5.3l-0.4,3.7h14.3l0.2-8
		c0-18.8-9.1-28.1-27.3-28.1c-13.2,0-22.6,4.7-28.3,14l-0.3-0.3l1.4-11.4h-14.5V499h14.7C691.1,482.7,699,474.6,713.6,474.6z
		 M832,473c-5.4-6.3-17.3-9.5-35.6-9.5c-18.3,0-30.1,3.2-35.5,9.5c-4,4.6-6.5,13.3-7.6,25.9h15.1c0.7-8.6,2-14.3,4-17.1
		c3.1-4.2,11-6.3,23.9-6.3c12.8,0,20.8,2.1,24,6.3c3.1,4.2,4.6,15.1,4.6,32.6c0,17.6-1.5,28.5-4.6,32.6c-3.1,4.2-11.1,6.3-24,6.3
		c-12.9,0-20.9-2.1-23.9-6.3c-3.1-4.2-4.6-15-4.6-32.6c0-3.1,0-6,0.1-8.6h-15.2c-0.1,2.7-0.2,5.6-0.2,8.6c0,21.2,2.7,35,8.2,41.4
		c5.4,6.3,17.3,9.5,35.5,9.5c18.3,0,30.1-3.2,35.6-9.5s8.2-20.1,8.2-41.4C840.1,493.1,837.4,479.4,832,473z"/>
</g>
</svg>
