<svg xmlns="http://www.w3.org/2000/svg" viewBox="0 0 1024 1024">
   <circle cx="512" cy="512" r="512" style="fill:#13b5ea"/>
   <path d="M512 256c-141.4 0-256 114.62-256 256s114.59 256 256 256 256-114.63 256-256-114.65-256-256-256Zm-92.81 313.14a8.35 8.35 0 0 1-6-2.65l-42.94-43.28-43.17 43.49a8.32 8.32 0 0 1-14.2-6 8.31 8.31 0 0 1 2.57-6l43-43.44-43-43.39a8.47 8.47 0 0 1-2.51-6 8.32 8.32 0 0 1 14.19-6l43.18 43.39 43-43.31a8.25 8.25 0 0 1 5.92-2.51 8.39 8.39 0 0 1 8.36 8.4 8.23 8.23 0 0 1-2.44 5.89l-43 43.53 43 43.52a8.41 8.41 0 0 1-5.92 14.34Zm117.61-56.82c-2.91 3.62-7.6 5.69-13.2 5.81H443v.62a46.56 46.56 0 0 0 1.7 6.45c5 13 17.73 27 38.54 27.19a40 40 0 0 0 18.84-4.83 42.36 42.36 0 0 0 11.07-9c.95-1.1 1.77-2.2 2.56-3.27l.29-.29c2.41-3.17 5.07-3.83 6.88-3.83a8.84 8.84 0 0 1 5.36 1.93 8.13 8.13 0 0 1 3 5.55 9.85 9.85 0 0 1-2.08 7.26l-.32.34c-4.91 6.23-9.57 10.69-14.64 14a56.88 56.88 0 0 1-17.27 7.4 54.19 54.19 0 0 1-13.93 1.88 56.48 56.48 0 0 1-6.73-.41 58.31 58.31 0 0 1-48.9-43.42 57.44 57.44 0 0 1-1.73-14 58.72 58.72 0 0 1 24.27-47.7 57.55 57.55 0 0 1 64.16-1.73c13.26 8.45 22.08 21.58 25.51 38a14.67 14.67 0 0 1-2.78 12.05ZM589.13 471c-16.58 2.07-18.23 10.14-18.23 29.45V560a8.3 8.3 0 1 1-16.6 0v-96.92a8.29 8.29 0 0 1 16.19-2.57 32.78 32.78 0 0 1 19.6-6.4h2.36a8.4 8.4 0 0 1 8.36 8.41c0 4.58-3.54 8-8.42 8.21a29.57 29.57 0 0 0-3.26.27Zm122.53 39.68c0 32-25.77 58-57.44 58s-57.47-26-57.47-58 25.78-58 57.47-58 57.44 26.01 57.44 57.97Zm-189.18-9.39h-78.83a40.6 40.6 0 0 1 78.83 0Zm91.45 9.39a40.27 40.27 0 1 0 80.53 0c0-22.42-18.05-40.67-40.24-40.67a40.52 40.52 0 0 0-40.29 40.64Zm54.93 0a14.66 14.66 0 1 1-14.64-14.77 14.72 14.72 0 0 1 14.64 14.74Z" style="fill:#fff"/>
</svg>
