<?xml version="1.0" encoding="UTF-8" standalone="no"?>
<!DOCTYPE svg PUBLIC "-//W3C//DTD SVG 1.1//EN" "http://www.w3.org/Graphics/SVG/1.1/DTD/svg11.dtd">
<svg width="100%" height="100%" viewBox="0 0 1024 1024" version="1.1" xmlns="http://www.w3.org/2000/svg" xmlns:xlink="http://www.w3.org/1999/xlink" xml:space="preserve" xmlns:serif="http://www.serif.com/" style="fill-rule:evenodd;clip-rule:evenodd;stroke-linejoin:round;stroke-miterlimit:2;">
    <g id="Icon">
        <circle id="Background" cx="512" cy="512" r="512" style="fill:rgb(233,98,11);"/>
        <g id="g14" transform="matrix(10.5806,0,0,10.5806,-17.0283,-26.6989)">
            <g id="g24">
                <path id="path26" d="M80.18,31.2L71.84,31.2C71.487,31.2 71.195,31.487 71.19,31.84L71.19,70C71.195,70.355 71.485,70.645 71.84,70.65L80.18,70.65C80.533,70.645 80.82,70.353 80.82,70L80.82,31.84C80.82,31.489 80.531,31.2 80.18,31.2" style="fill:white;fill-rule:nonzero;"/>
            </g>
            <g id="g28">
                <path id="path30" d="M51.65,31.2L19.82,31.2C19.469,31.2 19.18,31.489 19.18,31.84L19.18,70C19.18,70.353 19.467,70.645 19.82,70.65L28.16,70.65C28.515,70.645 28.805,70.355 28.81,70L28.81,40.09C28.815,39.735 29.105,39.445 29.46,39.44L47.46,39.44C47.599,39.431 47.737,39.426 47.876,39.426C51.223,39.426 53.976,42.179 53.976,45.526C53.976,45.617 53.974,45.709 53.97,45.8L53.97,70C53.975,70.355 54.265,70.645 54.62,70.65L62.96,70.65C63.313,70.645 63.6,70.353 63.6,70L63.6,42.92C63.791,39.852 62.653,36.845 60.48,34.67C58.209,32.265 54.981,30.992 51.68,31.2" style="fill:white;fill-rule:nonzero;"/>
            </g>
            <g id="g32">
                <path id="path34" d="M45.8,46.38L37,46.38C36.651,46.385 36.365,46.671 36.36,47.02L36.36,70C36.36,70.351 36.649,70.64 37,70.64L45.8,70.64C46.153,70.64 46.445,70.353 46.45,70L46.45,47C46.439,46.649 46.151,46.365 45.8,46.36" style="fill:white;fill-rule:nonzero;"/>
            </g>
        </g>
    </g>
</svg>
