<svg xmlns="http://www.w3.org/2000/svg" viewBox="0 0 1024 1024">
   <circle cx="512" cy="512" r="512" style="fill:#e9620b"/>
   <path d="M762.68 348.25h-69.27a5.42 5.42 0 0 0-5.4 5.32v317a5.5 5.5 0 0 0 5.4 5.4h69.27a5.42 5.42 0 0 0 5.32-5.4v-317a5.34 5.34 0 0 0-5.32-5.32m-237 0H261.32a5.34 5.34 0 0 0-5.32 5.32v317a5.42 5.42 0 0 0 5.32 5.4h69.27a5.5 5.5 0 0 0 5.4-5.4V422.09a5.5 5.5 0 0 1 5.4-5.4H490.9c1.15-.07 2.3-.12 3.46-.12A50.9 50.9 0 0 1 545 467.25v203.28a5.5 5.5 0 0 0 5.4 5.4h69.27a5.42 5.42 0 0 0 5.32-5.4V445.6a89.17 89.17 0 0 0-25.92-68.53A92.58 92.58 0 0 0 526 348.25m-48.88 126.09H404a5.42 5.42 0 0 0-5.32 5.32v190.87a5.34 5.34 0 0 0 5.32 5.32h73.09a5.42 5.42 0 0 0 5.4-5.32v-191a5.5 5.5 0 0 0-5.4-5.32" style="fill:#fff"/>
</svg>
