<?xml version="1.0" encoding="utf-8"?>
<!-- Generator: Adobe Illustrator 21.0.0, SVG Export Plug-In . SVG Version: 6.00 Build 0)  -->
<svg version="1.1" xmlns="http://www.w3.org/2000/svg" xmlns:xlink="http://www.w3.org/1999/xlink" x="0px" y="0px"
	 viewBox="0 0 1024 1024" style="enable-background:new 0 0 1024 1024;" xml:space="preserve">
<style type="text/css">
	.st0{fill:#006567;}
	.st1{fill:#FFFFFF;}
</style>
<g id="Guides">
</g>
<g id="Icon">
	<circle class="st0" cx="512" cy="512" r="512"/>
	<g>
		<title>Xing icon</title>
		<path class="st1" d="M644,256c-11,0-15.8,6.9-19.8,14.1c0,0-159,282.1-164.3,291.3c0.3,0.5,104.9,192.5,104.9,192.5
			c3.6,6.6,9.3,14.1,20.6,14.1h73.7c4.5,0,8-1.7,9.9-4.7c1.9-3.2,1.9-7.4-0.2-11.4L564.8,561.7c-0.1-0.1-0.1-0.3,0-0.5l163.5-289.1
			c2-4.1,2.1-8.3,0.1-11.4c-1.9-3.1-5.4-4.7-9.8-4.7H644z M333.8,357.1c-4.5,0-8.2,1.6-10.1,4.6c-1.9,3.2-1.7,7.2,0.4,11.3
			l49.9,86.4c0.1,0.2,0.1,0.3,0,0.4l-78.4,138.5c-2.1,4-2,8.1,0,11.3c1.8,3,5.1,5,9.6,5h73.8c11.1,0,16.3-7.4,20.2-14.2l79.7-141
			l-50.7-88.6c-3.7-6.7-9.3-14.1-20.5-14.1h-73.9V357.1z"/>
	</g>
</g>
</svg>
