<svg xmlns="http://www.w3.org/2000/svg" viewBox="0 0 1024 1024" style="enable-background:new 0 0 1024 1024" xml:space="preserve">
   <circle cx="512" cy="512" r="512" style="fill:#006567"/>
   <path d="M644 256c-11 0-15.8 6.9-19.8 14.1 0 0-159 282.1-164.3 291.3.3.5 104.9 192.5 104.9 192.5 3.6 6.6 9.3 14.1 20.6 14.1h73.7c4.5 0 8-1.7 9.9-4.7 1.9-3.2 1.9-7.4-.2-11.4l-104-190.2c-.1-.1-.1-.3 0-.5l163.5-289.1c2-4.1 2.1-8.3.1-11.4-1.9-3.1-5.4-4.7-9.8-4.7H644zM333.8 357.1c-4.5 0-8.2 1.6-10.1 4.6-1.9 3.2-1.7 7.2.4 11.3l49.9 86.4c.1.2.1.3 0 .4l-78.4 138.5c-2.1 4-2 8.1 0 11.3 1.8 3 5.1 5 9.6 5H379c11.1 0 16.3-7.4 20.2-14.2l79.7-141-50.7-88.6c-3.7-6.7-9.3-14.1-20.5-14.1h-73.9v.4z" style="fill:#fff"/>
</svg>
