<?xml version="1.0" encoding="UTF-8" standalone="no"?>
<svg
   xmlns:dc="http://purl.org/dc/elements/1.1/"
   xmlns:cc="http://creativecommons.org/ns#"
   xmlns:rdf="http://www.w3.org/1999/02/22-rdf-syntax-ns#"
   xmlns:svg="http://www.w3.org/2000/svg"
   xmlns="http://www.w3.org/2000/svg"
   viewBox="0 0 1365.3333 1365.3333"
   height="1365.3333"
   width="1365.3333"
   xml:space="preserve"
   id="svg2"
   version="1.1"><metadata
     id="metadata8"><rdf:RDF><cc:Work
         rdf:about=""><dc:format>image/svg+xml</dc:format><dc:type
           rdf:resource="http://purl.org/dc/dcmitype/StillImage" /></cc:Work></rdf:RDF></metadata><defs
     id="defs6"><clipPath
       id="clipPath18"
       clipPathUnits="userSpaceOnUse"><path
         id="path16"
         d="M 0,1024 H 1024 V 0 H 0 Z" /></clipPath></defs><g
     transform="matrix(1.3333333,0,0,-1.3333333,0,1365.3333)"
     id="g10"><g
       id="g12"><g
         clip-path="url(#clipPath18)"
         id="g14"><g
           transform="translate(1024,512)"
           id="g20"><path
             id="path22"
             style="fill:#236266;fill-opacity:1;fill-rule:nonzero;stroke:none"
             d="m 0,0 c 0,-282.77 -229.23,-512 -512,-512 -282.77,0 -512,229.23 -512,512 0,282.77 229.23,512 512,512 C -229.23,512 0,282.77 0,0" /></g><g
           transform="translate(333.8267,666.8799)"
           id="g24"><path
             id="path26"
             style="fill:#ffffff;fill-opacity:1;fill-rule:nonzero;stroke:none"
             d="m 0,0 c -4.501,0 -8.213,-1.579 -10.091,-4.608 -1.92,-3.179 -1.664,-7.232 0.427,-11.328 l 49.92,-86.4 c 0.085,-0.213 0.085,-0.341 0,-0.448 l -78.4,-138.517 c -2.112,-4.011 -1.984,-8.129 0,-11.286 1.813,-3.029 5.099,-4.991 9.6,-4.991 h 73.835 c 11.05,0 16.341,7.424 20.16,14.228 l 79.658,140.993 -50.731,88.64 C 90.709,-6.997 85.12,0.341 73.856,0.341 H 0 Z m 310.186,101.12 c -11.029,0 -15.808,-6.933 -19.775,-14.08 0,0 -159.04,-282.112 -164.31,-291.35 0.32,-0.511 104.939,-192.49 104.939,-192.49 3.627,-6.57 9.301,-14.08 20.629,-14.08 h 73.686 c 4.501,0 8,1.664 9.877,4.693 1.898,3.222 1.898,7.381 -0.192,11.435 l -104.085,190.208 c -0.085,0.128 -0.085,0.342 0,0.47 L 394.474,84.992 c 2.027,4.075 2.069,8.256 0.128,11.413 -1.898,3.051 -5.354,4.715 -9.792,4.715 z" /></g></g></g></g></svg>