<?xml version="1.0" encoding="utf-8"?>
<!-- Generator: Adobe Illustrator 21.0.0, SVG Export Plug-In . SVG Version: 6.00 Build 0)  -->
<svg version="1.1" xmlns="http://www.w3.org/2000/svg" xmlns:xlink="http://www.w3.org/1999/xlink" x="0px" y="0px"
	 viewBox="0 0 1024 1024" style="enable-background:new 0 0 1024 1024;" xml:space="preserve">
<style type="text/css">
	.st0{fill:#2C5976;}
	.st1{fill:#FFFFFF;}
</style>
<g id="Min_Guides__x28_DO_NOT_REMOVE_x29_">
</g>
<g id="Max_Guides__x28_DO_NOT_REMOVE_x29_">
</g>
<g id="Icon">
	<circle id="Background" class="st0" cx="512" cy="512" r="512"/>
	<path class="st1" d="M256,422.5c12.3,0,24.6-0.1,36.9,0.4c9.7,25.1,26.6,47.4,30.9,74.4c4.6-26.9,20.5-50,31-74.8
		c10.8,0,21.5,0,32.3-0.1c-14.9,29.2-30.1,58.2-45.3,87.1c-2.1,4.3-4.6,8.6-4.4,13.6c-0.2,17.7,0.1,35.4,0,53.3c-10,0-20.2,0-30.2,0
		c-0.5-18.8,0.9-37.6-0.6-56.3C290.7,487.2,273,454.9,256,422.5z M431.6,465.4c18.5-3.8,40.2-0.6,52.8,14.5
		c12.6,14.9,14.2,35.8,12.1,54.5c-1.7,17.1-11.9,34.1-28.3,40.6c-20.7,8.1-47.7,5.3-62.3-12.7c-13.3-17.6-14.3-41.8-9.3-62.4
		C400.4,482.9,414.4,468.6,431.6,465.4z M438.2,489.4c-11.2,3.4-13.9,16.4-14.7,26.5c-0.6,11.6,0.1,25.1,8.6,33.8
		c9.2,9.8,27.5,6,32.1-6.5c5.1-13.7,4.9-29.6-0.2-43.3C460.4,489.9,447.8,485.2,438.2,489.4z M517.5,423.8
		c21.4-2.4,43.1-4.3,64.8-1.7c11.1,1.5,22.9,5.1,30.5,14.1c9.3,10.1,9.5,25.7,5.1,38.1c-3.7,10.3-13.7,15.6-22.2,21.1
		c8.7,3.4,18.5,6.8,23.8,15.3c12.6,19.6,5.1,49-16.1,59c-26.5,13.2-57.3,8.6-85.7,5.9C516.9,524.9,517.5,474.4,517.5,423.8z
		 M547.2,446.9c-0.7,13.4-0.7,27-0.4,40.4c12.5-0.2,26.8,1,36.7-8.3c9.7-7,8.8-24.3-2.6-29.1C570.4,444.9,558.4,447,547.2,446.9z
		 M546.7,511.1c-0.1,13.6-0.1,27.1,0,40.7c13.4,0.6,28.8,3.1,40.3-5.6c9.9-7.1,9.9-24.6-1.1-30.5C574,509.2,559.8,511.5,546.7,511.1
		z M653.9,422.7c10.4-5,26.9-0.5,28.2,12.5c0.4,17-25.9,21.9-34.5,8.7C642.7,436.8,646.2,426.1,653.9,422.7z M708.5,446.4
		c9.7-2.6,19.2-5.3,28.8-7.9c0,9.5,0.1,18.9,0.1,28.3c8.9,0,18,0.1,26.9,0.5c-0.1,7.8-0.2,15.6-0.4,23.3c-8.8,0.1-17.7,0.1-26.5,0.1
		c0.6,18.8-1.7,37.8,1.3,56.5c3.4,10.5,16.5,4.5,24.1,3.5c1.7,7.3,3.4,14.7,5.1,21.9c-14.2,5-30.2,9.8-44.8,3.9
		c-10.1-3.8-13.9-15.2-14.4-24.9c-1.3-20.2-0.2-40.4-0.5-60.7c-5,0-9.8,0-14.8,0.1c-0.4-8.1-0.4-16-0.4-24.1c5-0.1,10-0.1,15-0.2
		C708.2,459.9,708.2,453.1,708.5,446.4z M649.1,466.9c9.8-0.1,19.4-0.1,29.2,0c0,36.5,0,73,0,109.5c-9.8,0-19.4,0-29.2,0
		C649.1,539.9,649.1,503.3,649.1,466.9z"/>
</g>
</svg>
