<?xml version="1.0" encoding="utf-8"?>
<!-- Generator: Adobe Illustrator 21.0.0, SVG Export Plug-In . SVG Version: 6.00 Build 0)  -->
<svg version="1.1" xmlns="http://www.w3.org/2000/svg" xmlns:xlink="http://www.w3.org/1999/xlink" x="0px" y="0px"
	 viewBox="0 0 1024 1024" style="enable-background:new 0 0 1024 1024;" xml:space="preserve">
<style type="text/css">
	.st0{fill:#85C3E9;}
	.st1{fill:#FFFFFF;}
</style>
<g id="Guides">
</g>
<g id="Icon">
	<circle class="st0" cx="512" cy="512" r="512"/>
	<path id="Logo" class="st1" d="M678,471.6c0,0,2.9,1.4,1.8,3.1L560.1,658.6c-1.3,2.1-2,4.5-2.1,6.9v98.7c0,2-1.8,3.8-3.8,3.8h-84.2
		c-2.1,0-3.8-1.7-3.8-3.8v-98.6c-0.1-2.5-0.9-4.8-2.1-7L343.8,474.7c-1.1-1.7-0.5-3.1,1.7-3.1h98.3c2.3,0.1,4.4,1.4,5.7,3.3
		l60.7,102.8c1.1,1.7,2.8,1.7,3.9,0l60.3-102.8c1.3-1.9,3.5-3.1,5.8-3.3C580.2,471.6,678,471.6,678,471.6z M631.5,592.6
		c1.4-0.7,2.9-1,4.4-0.9c43.4-0.1,36.2,41.6,34.3,56.7c-14.8-3.7-56.5-11.5-41.1-52C629.6,595,630.4,593.7,631.5,592.6z
		 M388.1,591.7c2.3,0,3.7,0.4,4.4,0.9c0.6,0.5,1.5,2,2.3,3.8c15.4,40.5-26.3,48.3-41.1,52C351.9,633.3,344.7,591.6,388.1,591.7z
		 M654.5,555.2c0.1-1.5,1.3-3.7,3.7-6.4c46.4-54,86.1,2,101.5,21.3c-20.1,14.2-73.8,57-103.4-7.7
		C655.2,560.1,654.6,557.7,654.5,555.2z M369.6,555.1c-0.1,2.5-0.7,4.9-1.8,7.2c-29.6,64.7-83.4,22.1-103.4,7.7
		c15.2-19.1,55-75.1,101.5-21.3C367.6,550.5,368.9,552.7,369.6,555.1z M697.4,494.3c0.2-1.8,0.8-3.6,1.8-5.2
		c25.8-45.8,65.5-13.2,80.3-2.1c-12.6,13.4-45.9,52.5-79.4,12.1C698.9,497.7,698,496.1,697.4,494.3z M326.6,494.2
		c-0.6,1.8-1.5,3.4-2.7,4.8c-33.5,40.5-66.8,1.4-79.4-12.2c14.7-11,54.5-43.6,80.3,2.2C326.2,491.4,326.7,493.2,326.6,494.2z
		 M661.9,438.5c-0.8-2.3-1.1-4.9-0.8-7.3c5.2-70.9,70.5-49.5,94.1-43.1c-7.6,23.3-25.2,89.6-87.6,55.1
		C665.4,442,663.4,440.4,661.9,438.5L661.9,438.5z M362.1,438.7c-0.6,1.2-3,2.9-5.7,4.6c-62.4,34.4-80-31.9-87.7-55.2
		c23.7-6.4,88.9-27.8,94.2,43.2C363.3,433.8,363,436.3,362.1,438.7L362.1,438.7z M655.3,372.8c-2.3-0.1-4.4-0.3-5.3-1
		c-0.7-0.5-1.8-2-2.8-4.6c-18.7-49.1,31.9-58.5,49.8-62.9C699.2,322.5,707.9,373.1,655.3,372.8L655.3,372.8z M374,371.9
		c-1.7,0.7-3.5,1-5.3,1c-52.7,0.3-43.9-50.4-41.7-68.5c17.9,4.3,68.3,13.7,49.8,63C376.3,369.1,375.3,370.7,374,371.9z M511.8,330.8
		c-2.2-0.4-4.4-1.3-6.3-2.5c-55.4-35.4-9.2-78.9,6.3-95.3c15.6,16.4,61.8,59.8,6.3,95.3C516.3,329.6,514.1,330.5,511.8,330.8
		L511.8,330.8z M584.2,357.1c-2,0.4-4,0.5-6.1,0.3c-1.7-1-3.2-2.5-4.3-4.2c-33.5-48.5,18.9-72.4,37.2-81.9
		C618.4,290.5,641.4,343.1,584.2,357.1z M445.9,357.3c-1.1,0.5-3.5,0.2-6-0.3c-57.3-14-34.1-66.6-26.9-86
		c18.3,9.6,70.7,33.5,37.2,81.9C448.5,355.6,447,356.9,445.9,357.3z M507,426.3c-43.4-29.7-7.3-66.3,4.9-80.1
		c12.2,13.7,48.3,50.4,4.9,80.1c-1.4,1.2-3.1,1.9-4.9,2.1C510.2,428.1,508.5,427.3,507,426.3z M576.9,457.5c-2.5,0-5-0.5-7.4-1.5
		c-1.2-0.8-2.8-2.8-4-6c-28.6-65.2,39.1-76.7,63-82.1C632.7,392,648.1,458.9,576.9,457.5L576.9,457.5z M511.8,523.4
		c-1.8-0.4-3.4-1.2-4.9-2.2c-43.4-29.8-7.2-66.3,4.9-80.1c12.2,13.7,48.3,50.2,4.9,80.1C515.3,522.4,513.6,523.1,511.8,523.4
		L511.8,523.4z M454.6,456c-2.3,0.9-4.8,1.4-7.3,1.5c-71.2,1.4-55.8-65.4-51.6-89.6c24,5.4,91.7,16.9,63.1,82.1
		C457.8,452.3,456.4,454.3,454.6,456z"/>
</g>
</svg>
