<svg xmlns="http://www.w3.org/2000/svg" viewBox="0 0 1024 1024">
   <circle cx="512" cy="512" r="512" style="fill:#85c3e9"/>
   <path d="M678 471.6s2.91 1.4 1.77 3.14L560.05 658.62a15.31 15.31 0 0 0-2.14 6.92v98.68a3.89 3.89 0 0 1-3.81 3.78h-84.2a3.88 3.88 0 0 1-3.81-3.78v-98.64a14.88 14.88 0 0 0-2.14-7L343.81 474.75c-1.1-1.74-.5-3.14 1.67-3.14h98.31a7.36 7.36 0 0 1 5.68 3.28l60.69 102.76c1.14 1.74 2.78 1.74 3.91 0l60.33-102.77a7.69 7.69 0 0 1 5.78-3.28Zm-46.55 121a8.59 8.59 0 0 1 4.41-.9c43.37-.1 36.18 41.56 34.31 56.68-14.78-3.68-56.51-11.47-41.13-52a11.44 11.44 0 0 1 2.44-3.76Zm-243.36-.9a8.16 8.16 0 0 1 4.41.9 11.64 11.64 0 0 1 2.27 3.78c15.38 40.53-26.35 48.32-41.13 52-1.71-15.1-8.9-56.77 34.47-56.67Zm266.44-36.48c.13-1.54 1.27-3.68 3.68-6.42 46.38-54 86.1 2 101.49 21.27-20.06 14.21-73.77 57-103.39-7.69a18.06 18.06 0 0 1-1.76-7.15Zm-285-.13a18.06 18.06 0 0 1-1.77 7.16c-29.63 64.74-83.36 22.07-103.39 7.69 15.25-19.13 55-75.14 101.49-21.27a16.38 16.38 0 0 1 3.73 6.43Zm327.83-60.79a11.7 11.7 0 0 1 1.77-5.18c25.85-45.81 65.54-13.21 80.32-2.14-12.61 13.38-45.91 52.5-79.45 12.1a14.35 14.35 0 0 1-2.58-4.77Zm-370.83-.13a14.35 14.35 0 0 1-2.68 4.78c-33.47 40.53-66.78 1.37-79.42-12.21 14.75-11 54.47-43.57 80.32 2.24 1.47 2.42 1.97 4.19 1.83 5.19Zm335.29-55.64a15.35 15.35 0 0 1-.77-7.32c5.18-70.89 70.49-49.49 94.06-43.14-7.56 23.27-25.21 89.61-87.61 55.11a17.76 17.76 0 0 1-5.68-4.68Zm-299.74.13c-.64 1.24-3 2.88-5.68 4.65-62.36 34.37-80-31.87-87.71-55.21 23.71-6.39 88.91-27.79 94.2 43.2a15.62 15.62 0 0 1-.77 7.32Zm293.19-65.87c-2.27-.1-4.41-.33-5.32-1-.74-.5-1.77-2-2.78-4.65-18.66-49.09 31.9-58.52 49.82-62.93 2.14 18.26 10.83 68.88-41.73 68.62ZM374 371.92a15 15 0 0 1-5.32 1c-52.7.27-43.87-50.36-41.73-68.48 17.92 4.28 68.35 13.71 49.82 63a10.3 10.3 0 0 1-2.77 4.48Zm137.8-41.13a18.29 18.29 0 0 1-6.29-2.54c-55.37-35.38-9.23-78.91 6.29-95.3 15.65 16.38 61.79 59.79 6.32 95.3a13.78 13.78 0 0 1-6.32 2.51Zm72.39 26.28a17.15 17.15 0 0 1-6.05.27 12.37 12.37 0 0 1-4.28-4.18c-33.54-48.49 18.89-72.36 37.18-81.92 7.33 19.23 30.4 71.89-26.85 85.84Zm-138.33.27c-1.14.5-3.51.23-6-.27-57.28-14-34.07-66.61-26.88-86 18.29 9.56 70.72 33.47 37.18 81.92-1.66 2.58-3.16 3.95-4.3 4.35Zm61.16 69c-43.37-29.73-7.32-66.34 4.92-80.08 12.24 13.71 48.28 50.36 4.92 80.08a9.93 9.93 0 0 1-4.92 2.14 14.65 14.65 0 0 1-4.94-2.15Zm69.89 31.2a20.06 20.06 0 0 1-7.36-1.5c-1.24-.77-2.78-2.78-4-6-28.62-65.2 39.09-76.67 63-82.09 4.18 24 19.56 91-51.7 89.61ZM511.8 523.4a14.65 14.65 0 0 1-4.92-2.17c-43.37-29.83-7.19-66.34 4.92-80.05 12.24 13.71 48.32 50.22 4.92 80.05a9.93 9.93 0 0 1-4.92 2.14ZM454.55 456a20.73 20.73 0 0 1-7.29 1.5c-71.22 1.4-55.84-65.44-51.6-89.61 24 5.42 91.69 16.85 63.06 82.06a15.42 15.42 0 0 1-4.17 6.05Z" style="fill:#fff"/>
</svg>
