<?xml version="1.0" encoding="utf-8"?>
<!-- Generator: Adobe Illustrator 21.0.0, SVG Export Plug-In . SVG Version: 6.00 Build 0)  -->
<svg version="1.1" xmlns="http://www.w3.org/2000/svg" xmlns:xlink="http://www.w3.org/1999/xlink" x="0px" y="0px"
	 viewBox="0 0 1024 1024" style="enable-background:new 0 0 1024 1024;" xml:space="preserve">
<style type="text/css">
	.st0{fill:#85C3E9;}
	.st1{fill:#FFFFFF;}
</style>
<g id="Guides">
</g>
<g id="Icon">
	<circle class="st0" cx="512" cy="512" r="512"/>
	<g>
		<path class="st1" d="M280.4,533.7v60.4h-50.1v-60.4l-57.6-106.6H230l26.3,51.1c8.8-16.6,17.6-35,25.8-51.1H337L280.4,533.7z
			 M437,594.2l-46.9-78v78h-47.4v-167h42.8l46.9,76.7v-76.7h47.1v167H437z M598.7,564.5h-48.4l-9.7,29.6h-53.5l60.3-166.9H605
			l58.8,167h-55.7L598.7,564.5z M574.6,488.1L562,526.3h25.3L574.6,488.1z M738.3,594.2h-67.1v-167h63.7c37.7,0,59.6,16.3,59.6,45.9
			c0,14.8-7.6,26.9-19.9,36c12.9,7.4,20.9,22.2,20.9,37.3C795.4,577.1,774,594.2,738.3,594.2L738.3,594.2z M731.2,466.1h-12.1v27.1
			H732c6.3,0,11.9-5.2,11.9-14.3C743.8,471.8,739.3,466.1,731.2,466.1L731.2,466.1z M730.2,527.5h-11.2v27.9h10.5
			c10.5,0,16-5.2,16-13.6C745.6,533,741.2,527.5,730.2,527.5z"/>
		<path class="st1" d="M796.9,569.2c0-15.3,12.1-27.6,27.2-27.6c15.1,0,27.2,12.3,27.2,27.6c0,15.3-12.1,27.6-27.2,27.6
			C809,596.8,796.9,584.5,796.9,569.2z"/>
	</g>
</g>
</svg>
