<?xml version="1.0" encoding="utf-8"?>
<!-- Generator: Adobe Illustrator 21.0.0, SVG Export Plug-In . SVG Version: 6.00 Build 0)  -->
<svg version="1.1" xmlns="http://www.w3.org/2000/svg" xmlns:xlink="http://www.w3.org/1999/xlink" x="0px" y="0px"
	 viewBox="0 0 1024 1024" style="enable-background:new 0 0 1024 1024;" xml:space="preserve">
<style type="text/css">
	.st0{fill:#85C3E9;}
	.st1{fill:#FFFFFF;}
</style>
<g id="Guides">
</g>
<g id="Icon">
	<circle class="st0" cx="512" cy="512" r="512"/>
	<path id="Logo" class="st1" d="M670.9,470.4c0,0,2.8,1.3,1.7,3L558,649.3c-1.2,2-1.9,4.3-2,6.6v94.4c0,1.9-1.7,3.6-3.6,3.6h-80.6
		c-2,0-3.6-1.6-3.6-3.6V656c-0.1-2.4-0.8-4.6-2-6.7l-115-176c-1.1-1.7-0.5-3,1.6-3h94.1c2.2,0.1,4.2,1.3,5.4,3.1l58.1,98.3
		c1.1,1.7,2.7,1.7,3.7,0l57.7-98.3c1.3-1.8,3.3-3,5.5-3.1C577.2,470.4,670.9,470.4,670.9,470.4z M626.3,586.2c1.3-0.7,2.8-1,4.2-0.9
		c41.5-0.1,34.6,39.8,32.8,54.2c-14.1-3.5-54.1-11-39.4-49.8C624.6,588.4,625.3,587.2,626.3,586.2z M393.4,585.3
		c2.2,0,3.5,0.4,4.2,0.9c0.6,0.5,1.4,1.9,2.2,3.6c14.7,38.8-25.2,46.2-39.4,49.8C358.8,625.1,351.9,585.2,393.4,585.3z M648.4,550.4
		c0.1-1.5,1.2-3.5,3.5-6.1c44.4-51.7,82.4,1.9,97.1,20.4c-19.2,13.6-70.6,54.6-98.9-7.4C649.1,555.1,648.5,552.8,648.4,550.4z
		 M375.7,550.3c-0.1,2.4-0.7,4.7-1.7,6.8c-28.4,62-79.8,21.1-98.9,7.4c14.6-18.3,52.6-71.9,97.1-20.4
		C373.8,545.9,375,548,375.7,550.3z M689.4,492.1c0.2-1.8,0.7-3.5,1.7-5c24.7-43.8,62.7-12.6,76.9-2c-12.1,12.8-43.9,50.2-76,11.6
		C690.8,495.3,690,493.8,689.4,492.1z M334.6,492c-0.6,1.7-1.4,3.2-2.6,4.6c-32,38.8-63.9,1.3-76-11.7c14.1-10.5,52.1-41.7,76.9,2.1
		C334.2,489.3,334.7,491,334.6,492z M655.4,438.7c-0.8-2.2-1.1-4.6-0.7-7c5-67.8,67.5-47.4,90-41.3c-7.2,22.3-24.1,85.8-83.8,52.7
		C658.8,442.1,656.9,440.5,655.4,438.7L655.4,438.7z M368.6,438.8c-0.6,1.2-2.9,2.8-5.4,4.4c-59.7,32.9-76.6-30.5-83.9-52.8
		c22.7-6.1,85.1-26.6,90.1,41.3C369.7,434.2,369.4,436.6,368.6,438.8L368.6,438.8z M649.2,375.8c-2.2-0.1-4.2-0.3-5.1-1
		c-0.7-0.5-1.7-1.9-2.7-4.4c-17.9-47,30.5-56,47.7-60.2C691.1,327.6,699.5,376.1,649.2,375.8L649.2,375.8z M379.9,375
		c-1.6,0.6-3.3,1-5.1,1c-50.4,0.3-42-48.2-39.9-65.5c17.2,4.1,65.4,13.1,47.7,60.3C382.1,372.3,381.2,373.8,379.9,375z M511.8,335.6
		c-2.1-0.4-4.2-1.3-6-2.4c-53-33.9-8.8-75.5,6-91.2c15,15.7,59.1,57.2,6,91.2C516.1,334.5,514,335.3,511.8,335.6L511.8,335.6z
		 M581.1,360.8c-1.9,0.4-3.9,0.5-5.8,0.3c-1.7-1-3.1-2.4-4.1-4c-32.1-46.4,18.1-69.2,35.6-78.4C613.8,297,635.9,347.4,581.1,360.8z
		 M448.7,361c-1.1,0.5-3.4,0.2-5.8-0.3c-54.8-13.4-32.6-63.7-25.7-82.3c17.5,9.2,67.7,32,35.6,78.4
		C451.2,359.3,449.8,360.6,448.7,361z M507.2,427c-41.5-28.4-7-63.5,4.7-76.6c11.7,13.1,46.2,48.2,4.7,76.6c-1.4,1.1-3,1.8-4.7,2
		C510.3,428.7,508.7,428,507.2,427z M574.1,456.9c-2.4,0-4.8-0.5-7-1.4c-1.2-0.7-2.7-2.7-3.8-5.8c-27.4-62.4,37.4-73.4,60.3-78.6
		C627.6,394.1,642.3,458.2,574.1,456.9L574.1,456.9z M511.8,519.9c-1.7-0.4-3.3-1.1-4.7-2.1c-41.5-28.5-6.9-63.5,4.7-76.6
		c11.7,13.1,46.2,48.1,4.7,76.6C515.2,519,513.5,519.7,511.8,519.9L511.8,519.9z M457,455.4c-2.2,0.9-4.6,1.4-7,1.4
		c-68.2,1.3-53.4-62.6-49.4-85.8c22.9,5.2,87.7,16.1,60.4,78.5C460.2,451.9,458.8,453.8,457,455.4z"/>
</g>
</svg>
