<?xml version="1.0" encoding="utf-8"?>
<!-- Generator: Adobe Illustrator 21.0.0, SVG Export Plug-In . SVG Version: 6.00 Build 0)  -->
<svg version="1.1" xmlns="http://www.w3.org/2000/svg" xmlns:xlink="http://www.w3.org/1999/xlink" x="0px" y="0px"
	 viewBox="0 0 1024 1024" style="enable-background:new 0 0 1024 1024;" xml:space="preserve">
<style type="text/css">
	.st0{fill:#8DC64B;}
	.st1{fill:#FFFFFF;}
</style>
<g id="Min_Guides__x28_DO_NOT_REMOVE_x29_">
</g>
<g id="Max_Guides__x28_DO_NOT_REMOVE_x29_">
</g>
<g id="Icon">
	<circle id="Background" class="st0" cx="512" cy="512" r="512"/>
	<path class="st1" d="M312.7,343.3c-2.6-4.7-6.1-7.8-10.3-9.2h0c-2-0.8-4.3-1.2-6.7-1.2H203l92.5,160.3l51.8-90.2
		C328.3,370.4,316.9,350.6,312.7,343.3L312.7,343.3z M728.6,530.9L676.8,621c18.9,32.6,30.3,52.4,34.5,59.7
		c3.9,6.9,9.5,10.4,16.9,10.4H821L728.6,530.9L728.6,530.9z M461,600.3l-51-88.2h0L513.4,333H409.2l-103,179.2
		c52.4,90.7,80.7,139.8,84.9,147.2c6.8,12.1,14.9,20.6,24.3,25.5c8.1,4.2,18.5,6.3,31,6.2c9.2,0,23.4,0,42.5-0.1l52.4-90.6H461
		L461,600.3z M632.9,364.8c-6.8-12.2-14.9-20.6-24.3-25.5l0,0c-4.7-2.5-10-4.2-16.1-5.1c-4.7-0.8-9.5-1.2-14.9-1.2
		c-9.2,0-23.4,0.1-42.5,0.2l-52.4,90.6H563l51.1,88.1L510.6,691h104.2c34.3-59.7,68.6-119.4,103-179.2
		C665.2,421.2,637,372.1,632.9,364.8L632.9,364.8z"/>
</g>
</svg>
