<svg xmlns="http://www.w3.org/2000/svg" viewBox="0 0 1024 1024" style="enable-background:new 0 0 1024 1024" xml:space="preserve">
   <circle cx="512" cy="512" r="512" style="fill:#8dc64b"/>
   <path d="M312.7 343.3c-2.6-4.7-6.1-7.8-10.3-9.2-2-.8-4.3-1.2-6.7-1.2H203l92.5 160.3 51.8-90.2c-19-32.6-30.4-52.4-34.6-59.7zm415.9 187.6L676.8 621c18.9 32.6 30.3 52.4 34.5 59.7 3.9 6.9 9.5 10.4 16.9 10.4H821l-92.4-160.2zM461 600.3l-51-88.2L513.4 333H409.2l-103 179.2c52.4 90.7 80.7 139.8 84.9 147.2 6.8 12.1 14.9 20.6 24.3 25.5 8.1 4.2 18.5 6.3 31 6.2 9.2 0 23.4 0 42.5-.1l52.4-90.6H461v-.1zm171.9-235.5c-6.8-12.2-14.9-20.6-24.3-25.5-4.7-2.5-10-4.2-16.1-5.1-4.7-.8-9.5-1.2-14.9-1.2-9.2 0-23.4.1-42.5.2l-52.4 90.6H563l51.1 88.1L510.6 691h104.2c34.3-59.7 68.6-119.4 103-179.2-52.6-90.6-80.8-139.7-84.9-147z" style="fill:#fff"/>
</svg>
