<?xml version="1.0" encoding="utf-8"?>
<!-- Generator: Adobe Illustrator 21.0.0, SVG Export Plug-In . SVG Version: 6.00 Build 0)  -->
<svg version="1.1" xmlns="http://www.w3.org/2000/svg" xmlns:xlink="http://www.w3.org/1999/xlink" x="0px" y="0px"
	 viewBox="0 0 1024 1024" style="enable-background:new 0 0 1024 1024;" xml:space="preserve">
<style type="text/css">
	.st0{fill:#FD7622;}
	.st1{fill:#FFFFFF;}
</style>
<g id="Guides">
</g>
<g id="Icon">
	<circle class="st0" cx="512" cy="512" r="512"/>
	<path class="st1" d="M576,512.1c0,19-3.5,37.2-9.8,54c-16.8,6.3-35,9.8-54.1,9.8h-0.2c-19,0-37.2-3.5-54-9.8
		c-6.3-16.8-9.8-35-9.8-54.1v-0.2c0-19,3.5-37.2,9.8-54c16.8-6.3,35-9.8,54.1-9.8h0.2c19,0,37.3,3.5,54.1,9.8
		c6.3,16.8,9.8,35,9.8,54V512.1L576,512.1z M764.4,469.3H615l105.7-105.7c-8.3-11.7-17.6-22.6-27.7-32.7l0,0
		c-10.1-10.1-21-19.3-32.7-27.6L554.7,409V259.6c-13.8-2.3-28-3.6-42.5-3.6h-0.3c-14.5,0-28.7,1.2-42.5,3.6V409L363.7,303.3
		c-11.7,8.3-22.6,17.6-32.7,27.6l0,0c-10.1,10.1-19.3,21-27.6,32.7L409,469.3H259.6c0,0-3.6,28.1-3.6,42.6v0.2
		c0,14.5,1.2,28.7,3.6,42.6H409L303.3,660.3c16.6,23.3,37,43.7,60.3,60.3L469.3,615v149.4c13.8,2.3,28,3.5,42.5,3.6h0.4
		c14.5,0,28.7-1.2,42.5-3.6V615l105.7,105.7c11.7-8.3,22.6-17.5,32.7-27.6l0,0c10.1-10.1,19.3-21,27.6-32.7L615,554.7h149.4
		c2.3-13.8,3.5-28,3.6-42.5v-0.4C768,497.3,766.8,483.2,764.4,469.3L764.4,469.3z"/>
</g>
</svg>
