<svg xmlns="http://www.w3.org/2000/svg" viewBox="0 0 1024 1024">
   <circle cx="512" cy="512" r="512" style="fill:#ed1c24"/>
   <circle cx="512" cy="512" r="512" style="fill:#916ff7"/>
   <path d="M183.5 422.4v44.55h124.67v5.64l-124.67 62.7v66.31h203v-44.54h-125v-5.64L386 489.21V422.4Zm216.21 0v179.2h133.37q24.58 0 40-6t22.65-18a52 52 0 0 0 3.33-9.31 43.64 43.64 0 0 0 1.28-10.89 48.11 48.11 0 0 0-1.13-11.05 37.35 37.35 0 0 0-3.72-9.44 41.36 41.36 0 0 0-18.17-16.38q-11.79-5.59-34.05-5.64v-6.14q22-.23 34.05-6.18t18.17-15.61a33.21 33.21 0 0 0 3.72-9.31 48.68 48.68 0 0 0 1.16-10.89 45.64 45.64 0 0 0-1.29-10.88 50.36 50.36 0 0 0-3.33-9.6q-7.16-11.76-22.66-17.79t-40.07-6Zm210.13 0v179.2h122.6q26.63 0 47.24-6.79t34.82-19.45A78.32 78.32 0 0 0 835.6 545a129.86 129.86 0 0 0 3.59-16 108 108 0 0 0 1.31-17 96.5 96.5 0 0 0-1.41-16.89q-1.39-7.85-3.19-15.61-9.73-26.88-37-42t-66.44-15.1Zm-142.27 40.7h40.2a35.51 35.51 0 0 1 11.53 1.68 9.68 9.68 0 0 1 6.4 5.76 7.38 7.38 0 0 1 1.4 3.19 22.64 22.64 0 0 1 .39 4.48 15.15 15.15 0 0 1-.55 4 12 12 0 0 1-1.27 3.19 13.12 13.12 0 0 1-6.66 5.51 29.4 29.4 0 0 1-11.27 1.92h-40.17Zm213.18 5.42h44q15.1 0 25.34 6.78A38.42 38.42 0 0 1 765 494.11a70.19 70.19 0 0 1 2.14 8.29 48.94 48.94 0 0 1 .86 9.6 37.26 37.26 0 0 1-.51 6.28c-.35 2-.68 3.93-1 5.89a34.06 34.06 0 0 1-1.54 5.76 38.71 38.71 0 0 1-15.11 18.69q-10.5 6.91-25.08 6.95h-44Zm-213.18 62.42h40.2a28.43 28.43 0 0 1 11.4 2.06q4.73 2 6.27 5.36a27 27 0 0 1 1.41 3.47 12.38 12.38 0 0 1 .64 4 22.55 22.55 0 0 1-.42 4.47 7.37 7.37 0 0 1-1.4 3.21 10.53 10.53 0 0 1-6.52 5.76 34.61 34.61 0 0 1-11.4 1.66h-40.18Z" style="fill:#fff"/>
</svg>
