<?xml version="1.0" encoding="utf-8"?>
<!-- Generator: Adobe Illustrator 21.0.0, SVG Export Plug-In . SVG Version: 6.00 Build 0)  -->
<svg version="1.1" xmlns="http://www.w3.org/2000/svg" xmlns:xlink="http://www.w3.org/1999/xlink" x="0px" y="0px"
	 viewBox="0 0 1024 1024" style="enable-background:new 0 0 1024 1024;" xml:space="preserve">
<style type="text/css">
	.st0{fill:#050608;}
	.st1{fill:#FFFFFF;}
</style>
<g id="Min_Guides__x28_DO_NOT_REMOVE_x29_">
</g>
<g id="Max_Guides__x28_DO_NOT_REMOVE_x29_">
</g>
<g id="Icon">
	<circle id="Background" class="st0" cx="512" cy="512" r="512"/>
	<path id="ZeroTier_logo__x28_vector_by_krisu_x29_" class="st1" d="M761.5,310.2v-45.7h-499v45.7h226.6v27.1
		c-86.7,11.4-153.6,85.5-153.6,175.2c0,89.7,66.9,163.7,153.6,175.2v72h43.1V688c88.5-9.8,157.3-84.7,157.3-175.6
		c0-91-68.8-165.8-157.3-175.6v-26.6H761.5z M379.4,512.4c0-65.4,47.4-119.8,109.7-130.9v261.7C426.8,632.2,379.4,577.8,379.4,512.4
		z M645.6,512.4c0,66.7-49.3,122-113.4,131.5V380.9C596.4,390.4,645.6,445.7,645.6,512.4z"/>
</g>
</svg>
