<?xml version="1.0" encoding="utf-8"?>
<!-- Generator: Adobe Illustrator 21.0.0, SVG Export Plug-In . SVG Version: 6.00 Build 0)  -->
<svg version="1.1" xmlns="http://www.w3.org/2000/svg" xmlns:xlink="http://www.w3.org/1999/xlink" x="0px" y="0px"
	 viewBox="0 0 1024 1024" style="enable-background:new 0 0 1024 1024;" xml:space="preserve">
<style type="text/css">
	.st0{fill:#C82336;}
	.st1{fill:#FFFFFF;}
</style>
<g id="Guides">
</g>
<g id="Icon">
	<circle class="st0" cx="512" cy="512" r="512"/>
	<g id="ZOHO_logo__x28_monochrome_edit_by_krisu_x29_">
		<g id="Cubes__x28_white_x29_">
			<g id="O__x23_2_cube">
				<polygon class="st1" points="829,428.4 829,578.7 808.6,599.2 808.6,451.9 				"/>
				<rect x="671.1" y="451.9" class="st1" width="137.5" height="147.2"/>
				<polygon class="st1" points="692.6,428.5 671.1,451.9 808.6,451.9 829,428.4 				"/>
			</g>
			<g id="H_cube">
				<polygon class="st1" points="522.3,434.9 657.6,416.1 646.2,448.5 512.8,466.7 				"/>
				<polygon class="st1" points="646.2,448.5 665,580.4 531.6,599.2 512.8,466.7 				"/>
				<polyline class="st1" points="646.2,448.5 665,580.4 675.2,552 657.7,416.9 657.6,416.1 				"/>
			</g>
			<g id="O__x23_1_cube">
				<polygon class="st1" points="408.1,423.7 527.8,477.7 473.8,600.3 354,546.3 				"/>
				<polygon class="st1" points="395.6,381.7 408.1,423.7 527.8,477.7 517.7,437.6 				"/>
				<polygon class="st1" points="395.6,381.7 347.5,496 354,546.3 408.1,423.7 				"/>
			</g>
			<g id="Z_cube">
				<polygon class="st1" points="328.8,448.3 348.6,578.1 216.3,598.9 195,468.8 				"/>
				<polygon class="st1" points="337.9,401.1 357.5,532.1 348.6,578.1 328.8,448.3 				"/>
				<polygon class="st1" points="195,468.8 197.6,455.8 204.3,422.5 337.9,401.1 328.8,448.3 				"/>
			</g>
		</g>
		<g id="Text__x26__borders__x28_match_with_BG_x29_">
			<polygon id="O__x23_2_cube_border" class="st0" points="829,430.9 829,428.4 826.8,428.4 807.8,450.2 672.6,450.2 671.1,451.9 
				671.1,453.6 806.9,453.6 806.9,599.2 808.6,599.2 810.3,597.5 810.3,452.6 			"/>
			<polygon id="H_cube_border" class="st0" points="648,448.7 658,419.8 657.6,416.1 655.7,416.4 645,447 524.4,463.4 524.7,465.1 
				525.1,466.8 644.8,450.4 663.3,580.7 665,580.4 666.2,577 			"/>
			<polygon id="O__x23_1_cube_border" class="st0" points="409.5,422.4 397.7,382.6 395.6,381.7 395.6,381.7 394.6,384.1 
				406.3,423.5 356.7,536 354.7,546.6 355.6,547 408.9,425.9 527.1,479.2 527.8,477.7 527.3,475.6 			"/>
			<polygon id="Z_cube_border" class="st0" points="330.6,448.4 338.7,406.1 337.9,401.1 336.1,401.4 327.4,446.8 195.4,467.1 
				195,468.8 195.3,470.5 327.4,450.3 346.9,578.4 348.6,578.1 349.5,573.2 			"/>
			<path id="ZOHO_text" class="st0" d="M787.6,504.9c-2.7-6.8-6.7-13-12.1-18.4c-5.1-5.2-10.8-9.1-17.2-11.8
				c-6.3-2.6-13.2-3.9-20.5-3.9c-7.4,0-14.3,1.3-20.7,3.9c-6.4,2.6-12.1,6.6-17.2,11.8c-5.3,5.4-9.3,11.5-12,18.3
				c-2.7,6.8-4,14.3-4,22.4c0,8,1.3,15.4,4,22.3c2.7,6.9,6.7,13.1,12,18.5c4.9,5.1,10.6,9,17,11.6c6.4,2.6,13.3,3.9,20.9,3.9
				c7.3,0,14.1-1.3,20.5-3.9c6.4-2.6,12.1-6.5,17.2-11.6c5.3-5.5,9.4-11.6,12.1-18.5c2.7-6.9,4.1-14.3,4.1-22.3
				C791.7,519.2,790.3,511.7,787.6,504.9z M759.3,553.4c-5.3,6.4-12.4,9.5-21.5,9.5c-9.2,0-16.3-3.2-21.6-9.5
				c-5.3-6.3-8-15.1-8-26.2c0-11.4,2.7-20.2,7.9-26.6c5.3-6.4,12.4-9.6,21.7-9.6c9.2,0,16.2,3.2,21.5,9.6c5.3,6.4,7.9,15.2,7.9,26.6
				C767.3,538.4,764.6,547.1,759.3,553.4z M283.6,523.6L283.6,523.6L283.6,523.6L283.6,523.6L283.6,523.6z M314.6,557.5
				c-1-1.2-2.4-2.2-4.2-2.8c-1.8-0.6-3.9-0.9-6.4-0.9c-2.4,0-5.1,0.3-8.1,0.8l-34.9,6c0.4-2.7,1.7-6.2,4.1-10.5
				c2.6-4.8,6.5-10.6,11.6-17.4l0,0c1.8-2.4,3.1-4.1,4-5.4c0.7-0.8,1.6-2,2.8-3.6c8-10.5,12.9-19,14.8-25.7c1.1-3.8,1.7-7.6,2-11.5
				c0.1-1.1,0.1-2.1,0.1-3.1c0-2.8-0.2-5.5-0.7-8.2c-0.4-2.4-1-4.5-1.8-6.1c-0.8-1.6-1.8-2.9-3.1-3.6c-1.4-0.9-3.4-1.2-6-1.2
				c-2.2,0-4.8,0.3-7.8,0.8l-40.4,6.9c-4.9,0.8-8.5,2.3-10.8,4.4c-1.8,1.7-2.8,3.9-2.8,6.5c0,0.7,0.1,1.4,0.2,2.1
				c0.6,3.4,2.4,5.9,5.2,7.2c1.7,0.8,3.8,1.1,6.2,1.1c1.6,0,3.4-0.2,5.4-0.5l33.8-5.7c0.1,0.6,0.1,1.2,0.1,1.8
				c0,2.1-0.4,4.2-1.1,6.2c-1,2.8-3.5,6.8-7.5,11.9c-1.1,1.4-2.9,3.5-5.2,6.5c-9.1,11-15.6,20.4-19.6,28.3c0,0,0,0,0,0l0,0
				c-2.8,5.4-4.7,10.7-5.8,15.9c-0.6,3-0.9,6-0.9,8.8c0,2,0.2,4,0.5,5.8c0.5,2.7,1.1,4.9,2,6.7c0.9,1.8,2,3.1,3.5,3.9
				c1.3,0.7,3.3,1,5.9,1c3.4,0,7.9-0.5,13.7-1.5l36.6-6.3c6.5-1.1,11-2.7,13.6-4.8c2.1-1.7,3.2-4.1,3.2-6.9c0-0.7-0.1-1.4-0.2-2.2
				C316.3,560.3,315.7,558.7,314.6,557.5z M480.7,469.7c-4.7-5-10.4-8.9-17.1-11.7c-6.7-2.8-13.4-4.2-20.2-4.2l-0.3,0
				c-6.9,0-13.7,1.6-20.4,4.6v0c-7,3.1-13.1,7.3-18.3,12.8c-5.2,5.5-9.4,12.1-12.7,19.8c-3.2,7.6-5,15.2-5.3,22.8
				c0,0.9-0.1,1.7-0.1,2.6c0,6.7,1.2,13.3,3.4,19.7c2.4,6.8,6,12.6,10.8,17.6c4.7,4.9,10.6,8.9,17.5,11.8v0
				c6.6,2.8,13.3,4.2,20.1,4.2h0.2c6.8,0,13.6-1.5,20.3-4.4l0,0l0,0c7.1-3.2,13.2-7.5,18.5-13c5.2-5.5,9.5-12.1,12.7-19.7
				c3.2-7.6,5-15.3,5.3-22.8c0-0.7,0-1.5,0-2.2c0-6.8-1.2-13.5-3.6-20C489.1,480.7,485.4,474.7,480.7,469.7z M467.6,523.2
				c-4.5,10.6-10.5,17.9-17.8,22c-3.9,2.2-8,3.2-12.2,3.2c-3.6,0-7.4-0.8-11.3-2.5c-8.4-3.6-13.6-9.3-15.9-17.4
				c-0.8-2.7-1.1-5.6-1.1-8.6c0-5.9,1.5-12.5,4.5-19.6c4.6-10.9,10.6-18.3,18-22.4c3.9-2.2,8-3.2,12.2-3.2c3.7,0,7.5,0.8,11.4,2.5
				c8.3,3.5,13.5,9.3,15.7,17.4c0.7,2.7,1.1,5.5,1.1,8.4C472.3,509.2,470.7,515.9,467.6,523.2z M623.6,473.8c-0.6-4.1-2-7.2-4.3-9.3
				c-1.8-1.6-4.1-2.5-6.7-2.5c-0.7,0-1.3,0.1-2,0.2c-3.5,0.5-6.1,2.1-7.7,4.7c-1.2,1.9-1.8,4.2-1.8,6.9c0,1,0.1,2.1,0.3,3.2
				l4.9,34.3l-38.3,5.6l-4.9-34.3c-0.6-4-2-7.1-4.2-9.2c-1.8-1.7-4.1-2.6-6.6-2.6c-0.6,0-1.2,0-1.8,0.1c-3.6,0.5-6.4,2.1-8,4.7
				c-1.2,1.9-1.8,4.2-1.8,6.9c0,1,0.1,2.1,0.3,3.3l13.1,89.3c0.6,4.1,2,7.2,4.4,9.2c1.8,1.6,4.1,2.4,6.8,2.4c0.7,0,1.5-0.1,2.2-0.2
				c3.3-0.5,5.9-2.1,7.4-4.7c1.1-1.9,1.6-4.1,1.6-6.7c0-1-0.1-2.1-0.3-3.3l-5.4-35.3l38.3-5.6l5.4,35.3c0.6,4.1,2,7.2,4.3,9.2
				c1.8,1.6,4.1,2.4,6.7,2.4c0.7,0,1.3-0.1,2.1-0.2c3.4-0.5,6.1-2.1,7.7-4.7c1.1-1.9,1.7-4.1,1.7-6.8c0-1-0.1-2.1-0.3-3.3
				L623.6,473.8z"/>
		</g>
	</g>
</g>
</svg>
