<?xml version="1.0" encoding="utf-8"?>
<!-- Generator: Adobe Illustrator 21.0.0, SVG Export Plug-In . SVG Version: 6.00 Build 0)  -->
<svg version="1.1" xmlns="http://www.w3.org/2000/svg" xmlns:xlink="http://www.w3.org/1999/xlink" x="0px" y="0px"
	 viewBox="0 0 1024 1024" style="enable-background:new 0 0 1024 1024;" xml:space="preserve">
<style type="text/css">
	.st0{fill:#C82336;}
	.st1{fill:#FFFFFF;}
</style>
<g id="Min_Guides__x28_DO_NOT_REMOVE_x29_">
</g>
<g id="Max_Guides__x28_DO_NOT_REMOVE_x29_">
</g>
<g id="Icon">
	<circle id="Background" class="st0" cx="512" cy="512" r="512"/>
	<g id="ZOHO_logo__x28_monochrome_edit_by_krisu_x29_">
		<path id="O_1_" class="st1" d="M810.3,452.6l18.7-21.6v147.8l-18.7,18.7V452.6z M672.6,450.2h135.2l19-21.9l-134.2,0.1 M737.8,491
			c-9.3,0-16.4,3.2-21.7,9.6c-5.3,6.4-7.9,15.2-7.9,26.6c0,11.2,2.7,19.9,8,26.2c5.3,6.3,12.4,9.5,21.6,9.5c9.2,0,16.3-3.2,21.5-9.5
			c5.3-6.4,7.9-15.1,7.9-26.2c0-11.4-2.7-20.2-7.9-26.6C754.1,494.2,747,491,737.8,491z M806.9,453.6v145.5H671.1V453.6H806.9z
			 M791.7,527.2c0-8-1.4-15.5-4.1-22.3c-2.7-6.8-6.7-13-12.1-18.4c-5.1-5.2-10.8-9.1-17.2-11.8c-6.3-2.6-13.2-3.9-20.5-3.9
			c-7.4,0-14.3,1.3-20.7,3.9c-6.4,2.6-12.1,6.6-17.2,11.8c-5.3,5.4-9.3,11.5-12,18.3c-2.7,6.8-4,14.3-4,22.4c0,8,1.3,15.4,4,22.3
			c2.7,6.9,6.7,13.1,12,18.5c4.9,5.1,10.6,9,17,11.6c6.4,2.6,13.3,3.9,20.9,3.9c7.3,0,14.1-1.3,20.5-3.9c6.4-2.6,12.1-6.5,17.2-11.6
			c5.3-5.5,9.4-11.6,12.1-18.5C790.3,542.7,791.7,535.2,791.7,527.2z"/>
		<path id="H" class="st1" d="M675.2,552l-9,25.1L648,448.7l10.1-28.9 M524.7,465.1l-0.2-1.7L645,447l10.7-30.6l-133.4,18.5
			l-9.5,31.8L524.7,465.1L524.7,465.1z M353.6,543 M663.3,580.7l-131.7,18.5l-17.9-126l13.4,6l0.7-1.5l-0.5-2.1l-14.1-6.4l-0.4-2.5
			l11.8-1.6l0.4,1.7l119.7-16.3L663.3,580.7z M636.9,566.3c0-1-0.1-2.1-0.3-3.3l-13.1-89.3c-0.6-4.1-2-7.2-4.3-9.3
			c-1.8-1.6-4.1-2.5-6.7-2.5c-0.7,0-1.3,0.1-2,0.2c-3.5,0.5-6.1,2.1-7.7,4.7c-1.2,1.9-1.8,4.2-1.8,6.9c0,1,0.1,2.1,0.3,3.2l4.9,34.3
			l-38.3,5.6l-4.9-34.3c-0.6-4-2-7.1-4.2-9.2c-1.8-1.7-4.1-2.6-6.6-2.6c-0.6,0-1.2,0-1.8,0.1c-3.6,0.5-6.4,2.1-8,4.7
			c-1.2,1.9-1.8,4.2-1.8,6.9c0,1,0.1,2.1,0.3,3.3l13.1,89.3c0.6,4.1,2,7.2,4.4,9.2c1.8,1.6,4.1,2.4,6.8,2.4c0.7,0,1.5-0.1,2.2-0.2
			c3.3-0.5,5.9-2.1,7.4-4.7c1.1-1.9,1.6-4.1,1.6-6.7c0-1-0.1-2.1-0.3-3.3l-5.4-35.3l38.3-5.6l5.4,35.3c0.6,4.1,2,7.2,4.3,9.2
			c1.8,1.6,4.1,2.4,6.7,2.4c0.7,0,1.3-0.1,2.1-0.2c3.4-0.5,6.1-2.1,7.7-4.7C636.4,571.2,636.9,568.9,636.9,566.3z"/>
		<path id="O" class="st1" d="M353.6,543l-6.2-47l47.2-111.9l11.7,39.4L357.6,534l0,0L353.6,543z M455.5,477.2
			c-3.9-1.7-7.7-2.5-11.4-2.5c-4.2,0-8.3,1.1-12.2,3.2c-7.4,4.1-13.4,11.5-18,22.4c-3,7.1-4.5,13.6-4.5,19.6c0,3,0.4,5.9,1.1,8.6
			c2.3,8.1,7.5,13.8,15.9,17.4c3.9,1.6,7.6,2.5,11.3,2.5c4.2,0,8.2-1.1,12.2-3.2c7.4-4,13.3-11.3,17.8-22c3.1-7.3,4.6-14,4.6-20.1
			c0-2.9-0.4-5.7-1.1-8.4C468.9,486.5,463.8,480.8,455.5,477.2z M517.7,437.6l-120.1-55l11.8,39.8l117.8,53.2 M527.1,479.2
			l-53.3,121.1L355.6,547h0l0-0.1l53.3-121L527.1,479.2z M495.2,509.8c0-0.7,0-1.5,0-2.2c0-6.8-1.2-13.5-3.6-20
			c-2.5-6.9-6.2-12.9-10.9-17.8c-4.7-5-10.4-8.9-17.1-11.7c-6.7-2.8-13.4-4.2-20.2-4.2l-0.3,0c-6.9,0-13.7,1.6-20.4,4.6v0
			c-7,3.1-13.1,7.3-18.3,12.8c-5.2,5.5-9.4,12.1-12.7,19.8c-3.2,7.6-5,15.2-5.3,22.8c0,0.9-0.1,1.7-0.1,2.6c0,6.7,1.2,13.3,3.4,19.7
			c2.4,6.8,6,12.6,10.8,17.6c4.7,4.9,10.6,8.9,17.5,11.8v0c6.6,2.8,13.3,4.2,20.1,4.2h0.2c6.8,0,13.6-1.5,20.3-4.4l0,0l0,0
			c7.1-3.2,13.2-7.5,18.5-13c5.2-5.5,9.5-12.1,12.7-19.7C493.1,524.9,494.9,517.3,495.2,509.8z"/>
		<path id="Z" class="st1" d="M349.5,573.2l-19-124.8l8.1-42.3l18.8,126L349.5,573.2C349.5,573.2,349.5,573.2,349.5,573.2
			L349.5,573.2z M346.9,578.4l-130.7,20.5l-21-128.4l132.2-20.2L346.9,578.4L346.9,578.4C346.9,578.4,346.9,578.4,346.9,578.4z
			 M316.8,564.3c0-0.7-0.1-1.4-0.2-2.2c-0.3-1.8-1-3.4-2-4.6c-1-1.2-2.4-2.2-4.2-2.8c-1.8-0.6-3.9-0.9-6.4-0.9
			c-2.4,0-5.1,0.3-8.1,0.8l-34.9,6c0.4-2.7,1.7-6.2,4.1-10.5c2.6-4.8,6.5-10.6,11.6-17.4l0,0c1.8-2.4,3.1-4.1,4-5.4
			c0.7-0.8,1.6-2,2.8-3.6l0,0l0,0c8-10.5,12.9-19,14.8-25.7c1.1-3.8,1.7-7.6,2-11.5c0.1-1.1,0.1-2.1,0.1-3.1c0-2.8-0.2-5.5-0.7-8.2
			c-0.4-2.4-1-4.5-1.8-6.1c-0.8-1.6-1.8-2.9-3.1-3.6c-1.4-0.9-3.4-1.2-6-1.2c-2.2,0-4.8,0.3-7.8,0.8l-40.4,6.9
			c-4.9,0.8-8.5,2.3-10.8,4.4c-1.8,1.7-2.8,3.9-2.8,6.5c0,0.7,0.1,1.4,0.2,2.1c0.6,3.4,2.4,5.9,5.2,7.2c1.7,0.8,3.8,1.1,6.2,1.1
			c1.6,0,3.4-0.2,5.4-0.5l33.8-5.7c0.1,0.6,0.1,1.2,0.1,1.8c0,2.1-0.4,4.2-1.1,6.2c-1,2.8-3.5,6.8-7.5,11.9
			c-1.1,1.4-2.9,3.5-5.2,6.5c-9.1,11-15.6,20.4-19.6,28.3c0,0,0,0,0,0l0,0c-2.8,5.4-4.7,10.7-5.8,15.9c-0.6,3-0.9,6-0.9,8.8
			c0,2,0.2,4,0.5,5.8c0.5,2.7,1.1,4.9,2,6.7c0.9,1.8,2,3.1,3.5,3.9c1.3,0.7,3.3,1,5.9,1c3.4,0,7.9-0.5,13.7-1.5l36.6-6.3
			c6.5-1.1,11-2.7,13.6-4.8C315.8,569.4,316.9,567,316.8,564.3z M204.3,422.5l-6.7,33.3l-2.3,11.3l0,0h0l0,0l132.1-20.2l8.7-45.5
			L204.3,422.5z"/>
	</g>
</g>
</svg>
