<svg xmlns="http://www.w3.org/2000/svg" viewBox="0 0 1024 1024">
   <circle cx="512" cy="512" r="512" style="fill:#2d8cff"/>
   <path d="M458.74 467.28A62.92 62.92 0 0 0 414 448.79a63.21 63.21 0 1 0 44.72 18.49Zm-17.86 71.59a37.88 37.88 0 1 1 0-53.57 37.77 37.77 0 0 1 .01 53.56Zm150.6-71.59a63.25 63.25 0 1 0 0 89.44 62.92 62.92 0 0 0 .01-89.44Zm-17.86 71.59a37.88 37.88 0 1 1 0-53.57 37.77 37.77 0 0 1 .01 53.56Zm-336.27 17.38-.32-6.32 75.85-75.85H256l-6.32-.32c-10.27-.63-17.86-8.38-18.65-18.65l-.32-6.32h94.82l6.32.32a19.1 19.1 0 0 1 18.65 18.65l.32 6.32L275 549.93h56.89l6.32.32c10.43.63 17.86 8.22 18.65 18.65l.32 6.32h-94.87l-6.31-.32a19.33 19.33 0 0 1-18.65-18.65Zm429.52-82.18a25.17 25.17 0 0 0-21.81 12.64c-2.21 3.63-2.84 7.9-3.16 12.64l-.32 6.32v44.25l-.32 6.32c-.47 10.43-8.06 18-18.65 18.65l-6.32.32V448.79c6.32 0 17.38 3.16 22.28 8.69a49.9 49.9 0 0 1 28.29-8.69 50.63 50.63 0 0 1 37.93 17.07 50.6 50.6 0 0 1 88.5 33.5v75.85l-6.29-.31a19.33 19.33 0 0 1-18.65-18.65l-.32-6.32v-44.25l-.32-6.32c-.16-4.58-.79-8.85-3-12.64a25.43 25.43 0 0 0-22-12.64 25 25 0 0 0-21.81 12.48c-2.21 3.79-2.84 8.06-3.16 12.8l-.32 6.32v69.53l-6.32-.32a19.44 19.44 0 0 1-18.65-18.65l-.32-6.32v-44.24l-.32-6.32c-.32-4.74-.95-8.85-3.16-12.64a25 25 0 0 0-21.78-12.65Z" style="fill:#fff"/>
</svg>
