<?xml version="1.0" encoding="utf-8"?>
<!-- Generator: Adobe Illustrator 21.0.0, SVG Export Plug-In . SVG Version: 6.00 Build 0)  -->
<svg version="1.1" xmlns="http://www.w3.org/2000/svg" xmlns:xlink="http://www.w3.org/1999/xlink" x="0px" y="0px"
	 viewBox="0 0 1024 1024" style="enable-background:new 0 0 1024 1024;" xml:space="preserve">
<style type="text/css">
	.st0{fill:#2D8CFF;}
	.st1{fill:#FFFFFF;}
</style>
<g id="Min_Guides__x28_DO_NOT_REMOVE_x29_">
</g>
<g id="Max_Guides__x28_DO_NOT_REMOVE_x29_">
</g>
<g id="Icon">
	<circle id="Background" class="st0" cx="512" cy="512" r="512"/>
	<g>
		<g>
			<path class="st1" d="M458.7,467.3c-12.3-12.3-28.4-18.5-44.7-18.5l0,0c-16.1,0-32.4,6.2-44.7,18.5c-24.7,24.7-24.7,64.6,0,89.4
				c24.7,24.7,64.6,24.7,89.4,0C483.4,532.1,483.4,491.9,458.7,467.3z M440.9,538.9c-14.9,14.9-38.9,14.9-53.6,0
				c-14.9-14.9-14.9-38.9,0-53.6c14.9-14.9,38.9-14.9,53.6,0C455.6,500,455.6,524,440.9,538.9z"/>
			<path class="st1" d="M591.5,467.3c-12.3-12.3-28.4-18.5-44.7-18.5c-16.1,0-32.4,6.2-44.7,18.5c-24.7,24.7-24.7,64.6,0,89.4
				c24.7,24.7,64.6,24.7,89.4,0C616.1,532.1,616.1,491.9,591.5,467.3z M573.6,538.9c-14.9,14.9-38.9,14.9-53.6,0
				c-14.9-14.9-14.9-38.9,0-53.6c14.9-14.9,38.9-14.9,53.6,0C588.3,500,588.3,524,573.6,538.9z"/>
			<path class="st1" d="M256,574.9l6.3,0.3h94.8l-0.3-6.3c-0.8-10.4-8.2-18-18.6-18.6l-6.3-0.3H275l75.9-75.9l-0.3-6.3
				c-0.5-10.4-8.2-18.2-18.6-18.6l-6.3-0.3h-94.8l0.3,6.3c0.8,10.3,8.4,18,18.6,18.6l6.3,0.3h56.9L237,549.9l0.3,6.3
				C238,566.7,245.6,574.3,256,574.9z"/>
			<path class="st1" d="M688.7,486.7c2.2,3.8,2.8,7.9,3.2,12.6l0.3,6.3v44.2l0.3,6.3c0.6,10.3,8.2,18,18.6,18.6l6.3,0.3v-69.5
				l0.3-6.3c0.3-4.7,0.9-9,3.2-12.8c4.4-7.6,12.5-12.5,21.8-12.5c9.3,0,17.5,5.1,22,12.6c2.2,3.8,2.8,8.1,3,12.6l0.3,6.3v44.2
				l0.3,6.3c0.6,10.4,8.2,18,18.6,18.6l6.3,0.3v-69.5v-6.3c0-28-22.6-50.6-50.6-50.6c-15.2,0-28.6,6.6-37.9,17.1
				c-9.3-10.4-22.8-17.1-37.9-17.1c-10.4,0-20.2,3.2-28.3,8.7c-4.9-5.5-16-8.7-22.3-8.7v126.4l6.3-0.3c10.6-0.6,18.2-8.2,18.6-18.6
				l0.3-6.3v-44.2l0.3-6.3c0.3-4.7,0.9-9,3.2-12.6c4.4-7.6,12.5-12.6,21.8-12.6C676.2,474.1,684.4,479.1,688.7,486.7z"/>
		</g>
	</g>
</g>
</svg>
