<svg xmlns="http://www.w3.org/2000/svg" viewBox="0 0 1024 1024">
   <circle cx="512" cy="512" r="512" data-name="Background (DON'T CHANGE COLOR)" style="fill:#6750a4"/>
   <path d="M637.71 490.18a115.63 115.63 0 0 0-69.64-198.57V249a21 21 0 0 0-42.07 0v42.07h-42.07V249a21 21 0 0 0-42.07 0v42.07H357.7a21 21 0 0 0 0 42.07h21v357.67h-21a21 21 0 0 0 0 42.07h84.15V775a21 21 0 0 0 42.07 0v-42.11H526V775a21 21 0 0 0 42.07 0v-42.11h21a126.22 126.22 0 0 0 48.6-242.71Zm-6.53-83.36a73.71 73.71 0 0 1-73.63 73.63H420.81V333.19h136.75a73.71 73.71 0 0 1 73.63 73.62Zm-42.07 284h-168.3v-168.3h168.3a84.15 84.15 0 1 1 0 168.3Z" style="fill:#fff"/>
</svg>
