<svg xmlns="http://www.w3.org/2000/svg" viewBox="0 0 1024 1024">
   <circle cx="512" cy="512" r="512" style="fill:#6750a4"/>
   <path d="M641.85 489.37a119.91 119.91 0 0 0-72.22-205.91v-44.15a21.81 21.81 0 0 0-43.63 0v43.63h-43.63v-43.63a21.81 21.81 0 0 0-43.63 0v43.63h-87.26a21.81 21.81 0 0 0 0 43.63h21.82v370.86h-21.82a21.81 21.81 0 0 0 0 43.63h87.26v43.63a21.81 21.81 0 0 0 43.63 0v-43.63H526v43.63a21.81 21.81 0 0 0 43.63 0v-43.63h21.81c72.17 0 130.89-58.72 130.89-130.89a131.1 131.1 0 0 0-80.48-120.8Zm-6.77-86.44a76.44 76.44 0 0 1-76.35 76.35h-141.8V326.57h141.8a76.44 76.44 0 0 1 76.34 76.36Zm-43.63 294.5H416.93V522.91h174.51a87.26 87.26 0 1 1 0 174.52Z" style="fill:#fff"/>
</svg>
