<svg xmlns="http://www.w3.org/2000/svg" viewBox="0 0 1024 1024">
   <circle cx="512" cy="512" r="512" style="fill:#6750a4"/>
   <path d="M642.44 489.26a120.25 120.25 0 0 0 37-86.88c0-62.8-48.26-114.51-109.63-120.07v-44.38a21.93 21.93 0 0 0-43.85 0v43.85h-43.81v-43.85a21.93 21.93 0 0 0-43.85 0v43.85h-87.7a21.93 21.93 0 0 0 0 43.85h21.93v372.74h-21.94a21.93 21.93 0 1 0 0 43.85h87.7v43.85a21.93 21.93 0 0 0 43.85 0v-43.85H526v43.85a21.93 21.93 0 0 0 43.85 0v-43.85h21.93c72.54 0 131.56-59 131.56-131.56a131.77 131.77 0 0 0-80.9-121.4Zm-6.81-86.88a76.83 76.83 0 0 1-76.74 76.74H416.37V325.63h142.52a76.83 76.83 0 0 1 76.74 76.74Zm-43.85 296H416.37V523h175.41a87.7 87.7 0 0 1 0 175.41Z" style="fill:#fff"/>
</svg>
