<svg xmlns="http://www.w3.org/2000/svg" viewBox="0 0 1024 1024">
   <circle cx="512" cy="512" r="512" style="fill:#6750a4"/>
   <path d="M631.13 491.38c48.63-40.09 55.56-112.01 15.47-160.64a114.103 114.103 0 0 0-82.55-41.4V240.3c0-9-7.3-16.3-16.3-16.3s-16.3 7.3-16.3 16.3v48.91h-54.34V240.3c0-9-7.3-16.3-16.3-16.3s-16.3 7.3-16.3 16.3v48.91h-92.38c-9 0-16.3 7.3-16.3 16.3s7.3 16.3 16.3 16.3h27.17v380.38h-27.17c-9 0-16.3 7.3-16.3 16.3s7.3 16.3 16.3 16.3h92.38v48.91c0 9 7.3 16.3 16.3 16.3s16.3-7.3 16.3-16.3v-48.91h54.34v48.91c0 9 7.3 16.3 16.3 16.3s16.3-7.3 16.3-16.3v-48.91h27.17c69.03 0 124.98-55.97 124.97-124.99 0-53.64-34.23-101.29-85.06-118.42Zm8.99-88.06c0 45.02-36.49 81.51-81.51 81.51H411.89V321.81h146.72c45.02 0 81.51 36.49 81.51 81.51Zm-48.91 298.87H411.89V517.44h179.32c51.02 0 92.38 41.36 92.38 92.38s-41.36 92.38-92.38 92.38Z" style="fill:#fff"/>
</svg>
