<svg xmlns="http://www.w3.org/2000/svg" viewBox="0 0 1024 1024">
   <circle cx="512" cy="512" r="512" style="fill:#6750a4"/>
   <path d="M766.64 680.64 666.47 306.91a38.65 38.65 0 0 0-47.29-27.29l-74.74 20a38.85 38.85 0 0 0-3.82 1.24 38.46 38.46 0 0 0-30.91-15.63h-77.07a38.24 38.24 0 0 0-19.26 5.21 38.24 38.24 0 0 0-19.26-5.21h-77.06a38.57 38.57 0 0 0-38.53 38.53v385.31a38.57 38.57 0 0 0 38.53 38.53h77.06a38.24 38.24 0 0 0 19.26-5.21 38.24 38.24 0 0 0 19.26 5.21h77.06a38.57 38.57 0 0 0 38.53-38.53V462.93l69.08 257.73a38.66 38.66 0 0 0 37.23 28.64 38.87 38.87 0 0 0 10.06-1.3l74.75-20a38.61 38.61 0 0 0 27.3-47.29ZM579.18 429.47l74.87-20 49.82 186-74.81 20.15Zm-24.77-92.61 74.84-20 14.83 55.36-74.87 20-14.84-55.38Zm-44.71-13.07v289h-77.06v-289Zm-192.64 0h77.06v57.79H317v-57.79Zm0 385.28v-289h77.07v289Zm115.58 0v-57.79h77.06v57.79Zm221.88 1.61L639 652.86l74.8-20.15 15.54 58Z" style="fill:#fff"/>
</svg>
