<svg xmlns="http://www.w3.org/2000/svg" viewBox="0 0 1024 1024">
   <circle cx="512" cy="512" r="512" style="fill:#6750a4"/>
   <path d="M458.64 291.59H341.09c-18.94 0-34.29 15.35-34.29 34.29v391.83c0 18.94 15.35 34.29 34.29 34.29h117.55c18.94 0 34.29-15.35 34.29-34.29V325.88c0-18.94-15.35-34.29-34.29-34.29ZM336.19 399.34h127.35v244.9H336.19v-244.9Zm4.9-78.37h117.55c2.71 0 4.9 2.19 4.9 4.9v44.08H336.19v-44.08c0-2.71 2.19-4.9 4.9-4.9ZM458.64 722.6H341.09c-2.71 0-4.9-2.19-4.9-4.9v-44.08h127.35v44.08c0 2.71-2.19 4.9-4.9 4.9Zm307.84-36.73L685.2 299.33c-3.84-18.54-21.99-30.46-40.53-26.61-.07.01-.13.03-.2.04L529.83 297.4c-18.46 4.06-30.22 22.22-26.38 40.73l81.28 386.47a34.317 34.317 0 0 0 14.94 21.8 33.819 33.819 0 0 0 18.54 5.53c2.47.01 4.93-.25 7.35-.78l114.64-24.61c18.39-4.1 30.09-22.2 26.28-40.65Zm-202.8-204.05 124.24-26.69L722.5 619.6l-124.26 26.62-34.55-164.4Zm-16.24-77.29 124.26-26.77 10.16 48.51-124.24 26.69-10.19-48.44Zm-11.41-78.37 114.61-24.61c.34-.03.69-.03 1.03 0 .92 0 1.81.27 2.57.78 1.14.72 1.93 1.88 2.18 3.21l9.18 43.64-124.21 26.5-9.16-43.54c-.6-2.71 1.1-5.39 3.8-6.02v.05Zm197.9 371.75L619.29 722.6c-1.24.27-2.54.04-3.6-.66a4.854 4.854 0 0 1-2.18-3.21l-9.18-43.64 124.21-26.69 9.28 43.42c.6 2.73-1.13 5.44-3.86 6.04h-.03v.05Z" style="fill:#fff"/>
</svg>
