<svg xmlns="http://www.w3.org/2000/svg" viewBox="0 0 1024 1024">
   <circle cx="512" cy="512" r="512" style="fill:#6750a4"/>
   <path d="M759 660.91a192.54 192.54 0 0 0-71.06-256.56 193.35 193.35 0 0 0-75.16-25.65 195.8 195.8 0 0 0-11.69-23.13c-54.32-91.52-173-121.78-264.5-67.46a193 193 0 0 0-71.63 257.12L250 597.56a33.73 33.73 0 0 0 41.68 41.58l52.32-14.9a192.83 192.83 0 0 0 67.9 21.48A192.48 192.48 0 0 0 680 739.9l52.32 14.92a33.74 33.74 0 0 0 41.59-41.68Zm-412.57-76.7a19.26 19.26 0 0 0-5.29.74l-51.62 14.72 14.72-51.62a19.28 19.28 0 0 0-2-15.13 154.46 154.46 0 0 1 54-211.66c73.24-43.47 168.19-19.25 211.66 54a154.68 154.68 0 0 1 11.42 23.67 19.15 19.15 0 0 0 2.84 8.1c21.44 67-5.24 142.49-68.24 179.9a154.37 154.37 0 0 1-157.68 0 19.27 19.27 0 0 0-9.82-2.71Zm375.25 64.35a19.29 19.29 0 0 0-2 15.15l14.72 51.62-51.6-14.71a19.26 19.26 0 0 0-15.14 2 154 154 0 0 1-212.71-56.5A193.17 193.17 0 0 0 625.13 420a154 154 0 0 1 96.54 228.56Z" style="fill:#fff"/>
</svg>
