<svg xmlns="http://www.w3.org/2000/svg" viewBox="0 0 1024 1024">
   <circle cx="512" cy="512" r="512" style="fill:#6750a4"/>
   <path d="M751.19 651.91c45.28-89.75 9.24-199.21-80.51-244.49a181.962 181.962 0 0 0-63-18.52c-38.2-92.98-144.54-137.4-237.52-99.21-92.98 38.2-137.4 144.54-99.21 237.52 1.77 4.3 3.7 8.53 5.79 12.69l-18.36 64.33c-4.24 14.87 4.38 30.37 19.25 34.61a27.998 27.998 0 0 0 15.35 0l64.33-18.36a182.574 182.574 0 0 0 62.86 18.43c38.16 93.07 144.54 137.58 237.61 99.42 4.35-1.78 8.63-3.73 12.82-5.85l64.34 18.36c14.87 4.24 30.37-4.38 34.61-19.25a27.998 27.998 0 0 0 0-15.35l-18.36-64.33Zm-392.33-60.44c-1.3 0-2.6.17-3.85.54l-69.73 19.93 19.9-69.7c1.02-3.54.6-7.34-1.17-10.57-40.66-74.71-13.05-168.24 61.66-208.9s168.24-13.05 208.9 61.66 13.05 168.24-61.66 208.9c-45.94 25-101.42 24.98-147.34-.06a14.277 14.277 0 0 0-6.72-1.8Zm363.86 62.75 19.93 69.73-69.7-19.9c-3.54-1.02-7.34-.6-10.57 1.17-74.68 40.71-168.23 13.17-208.94-61.51-.75-1.38-1.49-2.78-2.2-4.18 100.21-6.52 176.16-93.04 169.64-193.25a182.14 182.14 0 0 0-3.96-27.69c83.62 15.57 138.79 95.98 123.22 179.6a153.872 153.872 0 0 1-16.15 45.46c-1.8 3.22-2.25 7.02-1.26 10.57Z" style="fill:#fff"/>
</svg>
