<svg xmlns="http://www.w3.org/2000/svg" viewBox="0 0 1024 1024">
   <circle cx="512" cy="512" r="512" style="fill:#6750a4"/>
   <path d="M591.33 717.17H373.17c-87.49 0-158.67-71.17-158.67-158.67s71.18-158.67 158.67-158.67a162.52 162.52 0 0 1 23 1.64c35.9-71.47 109.9-120.64 195.16-120.64 120.3 0 218.17 97.87 218.17 218.17s-97.87 218.17-218.17 218.17ZM373.21 439.5a119 119 0 1 0 0 238h218.12c98.43 0 178.5-80.08 178.5-178.5s-80.07-178.5-178.5-178.5-178.5 80.08-178.5 178.5a19.83 19.83 0 0 1-39.67 0 217.6 217.6 0 0 1 8.17-59.23q-4.05-.27-8.12-.27Z" style="fill:#fff"/>
</svg>
