<svg xmlns="http://www.w3.org/2000/svg" viewBox="0 0 1024 1024">
   <circle cx="512" cy="512" r="512" style="fill:#6750a4"/>
   <path d="M590.93 716.07H373.87c-87 0-157.87-70.82-157.87-157.87s70.82-157.87 157.87-157.87a161.71 161.71 0 0 1 22.92 1.67c35.69-71.12 109.31-120 194.15-120C710.62 281.93 808 379.31 808 499s-97.38 217.07-217.07 217.07Zm-217-276.27a118.4 118.4 0 1 0 0 236.8h217c97.93 0 177.6-79.67 177.6-177.6s-79.67-177.6-177.6-177.6-177.6 79.67-177.6 177.6a19.73 19.73 0 1 1-39.47 0 216.5 216.5 0 0 1 8.14-58.93q-4-.27-8.09-.27Z" style="fill:#fff"/>
</svg>
