<svg xmlns="http://www.w3.org/2000/svg" viewBox="0 0 1024 1024">
   <circle cx="512" cy="512" r="512" style="fill:#6750a4"/>
   <path d="M590.09 289.09c-80.8.07-154.4 46.45-189.33 119.31-82.39-14.03-160.56 41.38-174.59 123.78-14.03 82.39 41.38 160.56 123.78 174.59 8.38 1.43 16.86 2.14 25.35 2.15h214.79c115.93 0 209.91-93.98 209.91-209.91S706.02 289.1 590.09 289.1Zm0 390.53H375.3c-67.4 0-122.04-54.64-122.04-122.04S307.9 435.54 375.3 435.54c4.82 0 9.64.29 14.43.85a208.976 208.976 0 0 0-9.54 62.61c0 8.09 6.56 14.64 14.64 14.64s14.64-6.56 14.64-14.64c0-99.75 80.87-180.62 180.62-180.62S770.71 399.25 770.71 499s-80.87 180.62-180.62 180.62Z" style="fill:#fff"/>
</svg>
