<svg xmlns="http://www.w3.org/2000/svg" viewBox="0 0 1024 1024">
   <circle cx="512" cy="512" r="512" data-name="Background (DON'T CHANGE COLOR)" style="fill:#6750a4"/>
   <path d="M592.27 719.73H371.53C283 719.73 211 647.72 211 559.2s72-160.53 160.53-160.53a164.44 164.44 0 0 1 23.26 1.66C431.13 328 506 278.27 592.27 278.27 714 278.27 813 377.29 813 499s-99 220.73-220.73 220.73ZM371.57 438.8a120.4 120.4 0 1 0 0 240.8h220.7c99.58 0 180.6-81 180.6-180.6s-81-180.6-180.6-180.6-180.6 81-180.6 180.6a20.07 20.07 0 1 1-40.13 0 220.16 220.16 0 0 1 8.26-59.93q-4.11-.27-8.23-.27Z" style="fill:#fff"/>
</svg>
