<svg xmlns="http://www.w3.org/2000/svg" viewBox="0 0 1024 1024">
   <circle cx="512" cy="512" r="512" style="fill:#6750a4"/>
   <path d="M591.87 718.63H372.23c-88.07 0-159.73-71.63-159.73-159.73s71.66-159.73 159.73-159.73a163.62 163.62 0 0 1 23.15 1.65c36.11-72 110.6-121.45 196.44-121.45C713 279.37 811.5 377.89 811.5 499S713 718.63 591.87 718.63ZM372.27 439.1a119.8 119.8 0 1 0 0 239.6h219.6c99.09 0 179.7-80.61 179.7-179.7S691 319.3 591.87 319.3s-179.7 80.61-179.7 179.7a20 20 0 0 1-39.93 0 219.06 219.06 0 0 1 8.22-59.63q-4.09-.27-8.19-.27Z" style="fill:#fff"/>
</svg>
