<svg xmlns="http://www.w3.org/2000/svg" viewBox="0 0 1024 1024">
   <circle cx="512" cy="512" r="512" style="fill:#6750a4"/>
   <path d="M708.92 685.54H315.08A59.14 59.14 0 0 1 256 626.46V350.77a59.14 59.14 0 0 1 59.08-59.08h393.84A59.14 59.14 0 0 1 768 350.77v275.69a59.15 59.15 0 0 1-59.08 59.08ZM315.08 331.08a19.71 19.71 0 0 0-19.69 19.69v275.69a19.71 19.71 0 0 0 19.69 19.69h393.84a19.71 19.71 0 0 0 19.69-19.69V350.77a19.71 19.71 0 0 0-19.69-19.69Zm295.38 413.54a19.69 19.69 0 0 0-19.69-19.69H433.23a19.69 19.69 0 0 0 0 39.38h157.54a19.69 19.69 0 0 0 19.69-19.69Z" style="fill:#fff"/>
</svg>
