<svg xmlns="http://www.w3.org/2000/svg" viewBox="0 0 1024 1024">
   <circle cx="512" cy="512" r="512" style="fill:#6750a4"/>
   <path d="M700.24 309.82H323.77c-28.59 0-51.76 23.18-51.76 51.76v263.53c0 28.59 23.18 51.76 51.76 51.76h174.12v47.06h-61.18c-7.8 0-14.12 6.32-14.12 14.12s6.32 14.12 14.12 14.12H587.3c7.8 0 14.12-6.32 14.12-14.12s-6.32-14.12-14.12-14.12h-61.18v-47.06h174.12c28.59 0 51.76-23.18 51.76-51.76V361.58c0-28.59-23.18-51.76-51.76-51.76Zm-376.47 28.24h376.47c12.99 0 23.53 10.53 23.53 23.53v192.94H300.24V361.59c0-12.99 10.53-23.53 23.53-23.53Zm376.47 310.59H323.77c-12.99 0-23.53-10.53-23.53-23.53v-42.35h423.53v42.35c0 12.99-10.53 23.53-23.53 23.53Z" style="fill:#fff"/>
</svg>
