<svg xmlns="http://www.w3.org/2000/svg" viewBox="0 0 1024 1024">
   <circle cx="512" cy="512" r="512" style="fill:#6750a4"/>
   <path d="M575.11 491H533V322.68h21a84.24 84.24 0 0 1 84.14 84.14 21 21 0 0 0 42.07 0 126.36 126.36 0 0 0-126.14-126.21H533v-42.07a21 21 0 0 0-42.07 0v42.07h-31.52a126.21 126.21 0 0 0 0 252.43H491v168.28h-42.11a84.24 84.24 0 0 1-84.14-84.14 21 21 0 1 0-42.07 0 126.36 126.36 0 0 0 126.21 126.21H491v42.07a21 21 0 0 0 42.07 0v-42.07h42.07a126.21 126.21 0 1 0 0-252.43Zm-115.7 0a84.14 84.14 0 1 1 0-168.29H491V491Zm115.7 210.36H533V533h42.07a84.14 84.14 0 0 1 0 168.29Z" style="fill:#fff"/>
</svg>
