<svg xmlns="http://www.w3.org/2000/svg" viewBox="0 0 1024 1024">
   <circle cx="512" cy="512" r="512" style="fill:#607d8b"/>
   <path d="M570.9 482.6h-29.4V364.8h58.9c16.3 0 29.4 13.2 29.4 29.4s13.2 29.4 29.4 29.4c16.3 0 29.4-13.2 29.4-29.4 0-48.8-39.5-88.3-88.3-88.3h-58.9V247c0-16.3-13.2-29.4-29.4-29.4-16.3 0-29.4 13.2-29.4 29.4v59h-29.4c-65 0-117.7 52.7-117.7 117.7s52.7 117.7 117.7 117.7h29.4v117.7h-58.9c-16.3 0-29.4-13.2-29.4-29.4 0-16.3-13.2-29.4-29.4-29.4s-29.4 13.2-29.4 29.4c0 48.8 39.5 88.3 88.3 88.3h58.9v58.9c0 16.3 13.2 29.4 29.4 29.4 16.3 0 29.4-13.2 29.4-29.4V718h29.4c65 0 117.7-52.7 117.7-117.7s-52.7-117.7-117.7-117.7zm-88.3 0h-29.4c-32.5 0-58.9-26.4-58.9-58.9s26.4-58.9 58.9-58.9h29.4v117.8zm88.3 176.6h-29.4V541.4h29.4c32.5 0 58.9 26.4 58.9 58.9-.1 32.5-26.4 58.9-58.9 58.9z" style="fill:#fff"/>
</svg>
