<svg xmlns="http://www.w3.org/2000/svg" viewBox="0 0 1024 1024">
   <circle cx="512" cy="512" r="512" style="fill:#6750a4"/>
   <path d="M574.84 496.29h-47.13V318.25h26.18c49.16 0 89.02 39.85 89.02 89.02 0 8.68 7.03 15.71 15.71 15.71s15.71-7.03 15.71-15.71c-.09-66.48-53.96-120.35-120.44-120.44h-26.18V239.7c0-8.68-7.03-15.71-15.71-15.71s-15.71 7.03-15.71 15.71v47.13h-26.18c-66.52 0-120.44 53.92-120.44 120.44s53.92 120.44 120.44 120.44h26.18v178.04h-47.13c-49.16 0-89.02-39.85-89.02-89.02 0-8.68-7.03-15.71-15.71-15.71s-15.71 7.03-15.71 15.71c.09 66.48 53.96 120.35 120.44 120.44h47.13v47.13c0 8.68 7.03 15.71 15.71 15.71s15.71-7.03 15.71-15.71v-47.13h47.13c66.52 0 120.44-53.92 120.44-120.44s-53.92-120.44-120.44-120.44Zm-104.73 0c-49.16 0-89.02-39.85-89.02-89.02s39.85-89.02 89.02-89.02h26.18v178.04h-26.18Zm104.73 209.45h-47.13V527.7h47.13c49.16 0 89.02 39.85 89.02 89.02s-39.85 89.02-89.02 89.02Z" style="fill:#fff"/>
</svg>
