<svg xmlns="http://www.w3.org/2000/svg" viewBox="0 0 1024 1024">
   <circle cx="512" cy="512" r="512" data-name="Background (DON'T CHANGE COLOR)" style="fill:#6750a4"/>
   <path d="M572.86 491.71h-40.57V329.43h20.29a81.23 81.23 0 0 1 81.14 81.14 20.29 20.29 0 0 0 40.57 0 121.85 121.85 0 0 0-121.72-121.71h-20.28v-40.57a20.29 20.29 0 0 0-40.57 0v40.57h-30.43a121.71 121.71 0 0 0 0 243.43h30.43v162.28h-40.58A81.23 81.23 0 0 1 370 613.43a20.29 20.29 0 1 0-40.57 0 121.85 121.85 0 0 0 121.71 121.71h40.57v40.57a20.29 20.29 0 0 0 40.57 0v-40.57h40.57a121.71 121.71 0 1 0 0-243.43Zm-111.57 0a81.14 81.14 0 1 1 0-162.29h30.43v162.29Zm111.57 202.86h-40.57V532.29h40.57a81.14 81.14 0 0 1 0 162.29Z" style="fill:#fff"/>
</svg>
