<svg xmlns="http://www.w3.org/2000/svg" viewBox="0 0 1024 1024">
   <circle cx="512" cy="512" r="512" style="fill:#6750a4"/>
   <path d="M575.43 490.86h-42.29V321.71h21.14a84.67 84.67 0 0 1 84.57 84.57 21.14 21.14 0 0 0 42.29 0 127 127 0 0 0-126.85-126.85h-21.15v-42.29a21.14 21.14 0 0 0-42.29 0v42.29h-31.71a126.86 126.86 0 0 0 0 253.71h31.71v169.15h-42.28A84.67 84.67 0 0 1 364 617.71a21.14 21.14 0 0 0-42.29 0 127 127 0 0 0 126.86 126.86h42.29v42.29a21.14 21.14 0 0 0 42.29 0v-42.29h42.29a126.86 126.86 0 1 0 0-253.71Zm-116.29 0a84.57 84.57 0 0 1 0-169.14h31.71v169.14Zm116.29 211.43h-42.29V533.14h42.29a84.57 84.57 0 0 1 0 169.14Z" style="fill:#fff"/>
</svg>
