<svg xmlns="http://www.w3.org/2000/svg" viewBox="0 0 1024 1024">
   <circle cx="512" cy="512" r="512" style="fill:#6750a4"/>
   <path d="M713.53 309.62A285 285 0 1 0 797 511.14a283.14 283.14 0 0 0-83.47-201.52ZM512 750.75c-20.62 0-43.17-23.91-60.33-64-8.67-20.12-15.58-43.25-20.67-68.39h162c-5.11 25.15-12.07 48.27-20.7 68.43-17.13 40.05-39.68 63.96-60.3 63.96Zm-87-169a583.89 583.89 0 0 1 0-141.14h174a583.89 583.89 0 0 1 0 141.14Zm-161.36-70.61a247.59 247.59 0 0 1 10.23-70.57h111.18a621.83 621.83 0 0 0 0 141.14H273.87a247.59 247.59 0 0 1-10.23-70.57ZM512 271.53c20.62 0 43.17 23.91 60.33 64 8.64 20.16 15.59 43.29 20.7 68.43H431c5.11-25.15 12.07-48.27 20.7-68.43 17.13-40.09 39.68-64 60.3-64Zm126.95 169h111.18a248.53 248.53 0 0 1 0 141.14H638.95a621.81 621.81 0 0 0 0-141.14Zm97.05-36.6H633.43c-5.76-30.9-14-59.39-24.61-84.06-7.88-18.41-16.83-34.11-26.62-47A249.55 249.55 0 0 1 736 403.93Zm-294.2-131c-9.79 12.85-18.73 28.55-26.62 47-10.57 24.68-18.85 53.16-24.61 84.06H288A249.55 249.55 0 0 1 441.8 272.9ZM288 618.36h102.57c5.76 30.9 14 59.39 24.61 84.06 7.88 18.41 16.83 34.11 26.62 47A249.55 249.55 0 0 1 288 618.36Zm294.2 131c9.79-12.85 18.73-28.55 26.62-47 10.57-24.68 18.85-53.16 24.61-84.06H736a249.55 249.55 0 0 1-153.8 131.08Z" style="fill:#fff"/>
</svg>
