<svg xmlns="http://www.w3.org/2000/svg" viewBox="0 0 1024 1024">
   <circle cx="512" cy="512" r="512" data-name="Background (DON'T CHANGE COLOR)" style="fill:#6750a4"/>
   <path d="M710 313.15a280 280 0 1 0 82 198 278.17 278.17 0 0 0-82-198Zm-198 433.4c-20.26 0-42.42-23.49-59.27-62.84-8.48-19.81-15.31-42.53-20.34-67.23h159.22c-5 24.71-11.85 47.42-20.34 67.23-16.85 39.35-39.01 62.84-59.27 62.84Zm-85.46-166.07a573.64 573.64 0 0 1 0-138.67h170.92a573.64 573.64 0 0 1 0 138.67ZM268 511.14a243.24 243.24 0 0 1 10.05-69.33h109.23a610.92 610.92 0 0 0 0 138.67H278.05A243.24 243.24 0 0 1 268 511.14Zm244-235.4c20.26 0 42.42 23.49 59.27 62.84 8.48 19.81 15.31 42.53 20.34 67.23H432.39c5-24.71 11.85-47.42 20.34-67.23 16.85-39.35 39.01-62.84 59.27-62.84Zm124.72 166.07h109.23a244.17 244.17 0 0 1 0 138.67H636.72a610.9 610.9 0 0 0 0-138.67Zm95.35-36H631.3c-5.66-30.36-13.8-58.34-24.18-82.59-7.74-18.08-16.54-33.52-26.15-46.14a245.17 245.17 0 0 1 151.1 128.73ZM443 277.08c-9.61 12.62-18.4 28.05-26.15 46.14-10.38 24.24-18.52 52.23-24.18 82.59H291.93A245.17 245.17 0 0 1 443 277.08Zm-151.07 339.4H392.7c5.66 30.36 13.8 58.34 24.18 82.59 7.74 18.08 16.54 33.51 26.15 46.14a245.17 245.17 0 0 1-151.1-128.73ZM581 745.2c9.61-12.62 18.4-28.05 26.15-46.14 10.38-24.24 18.52-52.23 24.18-82.59h100.74A245.17 245.17 0 0 1 581 745.2Z" style="fill:#fff"/>
</svg>
