<svg xmlns="http://www.w3.org/2000/svg" viewBox="0 0 1024 1024">
   <circle cx="512" cy="512" r="512" data-name="Background (DON'T CHANGE COLOR)" style="fill:#6750a4"/>
   <path d="M817 418 521.28 260.32a19.71 19.71 0 0 0-18.56 0L207 418a19.71 19.71 0 0 0 0 34.79l58.56 31.23v122.76a39.17 39.17 0 0 0 7.9 23.35c8.32 11.16 31.83 39.6 71.74 64.66C394 725.45 450.16 741 512 741a343 343 0 0 0 54.22-4.22v53.51a19.71 19.71 0 0 0 39.43 0v-62.44a294.93 294.93 0 0 0 73.14-33.06c39.92-25.07 63.44-53.52 71.75-64.67a39.22 39.22 0 0 0 7.9-23.43V484.06L817 452.82a19.71 19.71 0 0 0 0-34.82ZM512 701.57c-126.37 0-190.36-72.76-207-95.07V505.09l197.72 105.45a19.71 19.71 0 0 0 18.56 0l44.94-24V696.8a302 302 0 0 1-54.22 4.77Zm207-95.12v.06c-11.84 15.91-47.81 57.49-113.31 80v-121L719 505.09ZM731 454a19.63 19.63 0 0 0-2.81 1.5l-122.55 65.36v-6.57a19.71 19.71 0 0 0-10.44-17.39L447.35 418a19.71 19.71 0 1 0-18.56 34.79l137.42 73.29v15.77L512 570.8 295.84 455.51A19.63 19.63 0 0 0 293 454l-34.84-18.58L512 300.06l253.82 135.37Z" style="fill:#fff"/>
</svg>
