<svg xmlns="http://www.w3.org/2000/svg" viewBox="0 0 1024 1024">
   <circle cx="512" cy="512" r="512" style="fill:#6750a4"/>
   <path d="M815.13 418.74 521.22 262a19.59 19.59 0 0 0-18.44 0L208.87 418.74a19.59 19.59 0 0 0 0 34.58l58.21 31v122a38.93 38.93 0 0 0 7.86 23.21c8.27 11.09 31.64 39.36 71.3 64.27 48.53 30.47 104.3 45.92 165.76 45.92a340.91 340.91 0 0 0 53.88-4.19v53.18a19.59 19.59 0 1 0 39.19 0v-62.04a293.13 293.13 0 0 0 72.69-32.85c39.67-24.91 63-53.19 71.31-64.27a39 39 0 0 0 7.85-23.29v-121.9l58.21-31a19.59 19.59 0 0 0 0-34.58ZM512 700.55c-125.59 0-189.19-72.32-205.69-94.48V505.26l196.47 104.81a19.59 19.59 0 0 0 18.44 0l44.66-23.82V695.8a300.19 300.19 0 0 1-53.88 4.75ZM717.73 606v.06c-11.77 15.81-47.52 57.13-112.62 79.53V565.35l112.66-60.09Zm11.9-151.5a19.51 19.51 0 0 0-2.8 1.49l-121.76 64.95v-6.53a19.59 19.59 0 0 0-10.37-17.29l-147-78.37a19.59 19.59 0 0 0-18.44 34.58l136.58 72.84v15.67L512 570.58 297.16 456a19.51 19.51 0 0 0-2.8-1.49L259.73 436 512 301.49 764.27 436Z" style="fill:#fff"/>
</svg>
