<svg xmlns="http://www.w3.org/2000/svg" viewBox="0 0 1024 1024">
   <circle data-name="Background (DON'T CHANGE COLOR)" cx="512" cy="512" r="512" style="fill:#607d8b"/>
   <path d="m781.49 428.6-27-14.84-242.8-134.9a28.89 28.89 0 0 0-26.44 0l-242.82 134.9a27 27 0 0 0 0 46.95l67.18 37.23v127.88a80.94 80.94 0 0 0 80.94 80.94h215.84a80.94 80.94 0 0 0 80.94-80.94V497.94l54-30.22v77.16a27 27 0 1 0 54 0v-92.81a27 27 0 0 0-13.84-23.47zM633.37 625.82a27 27 0 0 1-27 27H390.55a27 27 0 0 1-27-27v-97.94l121.68 67.45a26.81 26.81 0 0 0 13.22 3.2 28.86 28.86 0 0 0 11.08-2.15 12.68 12.68 0 0 0 1.58-.74c.36-.19.55-.31.55-.31l121.68-67.45zm-134.9-84.72L311.23 437l187.24-104.18L685.71 437z" style="fill:#fff"/>
</svg>
