<svg xmlns="http://www.w3.org/2000/svg" viewBox="0 0 1024 1024">
   <circle cx="512" cy="512" r="512" style="fill:#6750a4"/>
   <path d="M811.74 420 521.12 265a19.38 19.38 0 0 0-18.24 0L212.26 420a19.38 19.38 0 0 0 0 34.19l57.56 30.7v120.64a38.49 38.49 0 0 0 7.77 23c8.17 11 31.28 38.92 70.51 63.55 48 30.13 103.13 45.41 163.91 45.41a337.1 337.1 0 0 0 53.28-4.15v52.59a19.38 19.38 0 0 0 38.75 0v-61.41A289.86 289.86 0 0 0 675.91 692c39.23-24.63 62.34-52.6 70.51-63.55a38.55 38.55 0 0 0 7.76-23V484.92l57.56-30.7a19.38 19.38 0 0 0 0-34.19ZM512 698.69c-124.19 0-187.08-71.51-203.4-93.43v-99.68l194.28 103.64a19.38 19.38 0 0 0 18.24 0l44.17-23.55V694a296.83 296.83 0 0 1-53.29 4.69Zm203.44-93.49v.06c-11.64 15.63-47 56.5-111.36 78.64V565l111.4-59.42Zm11.77-149.81a19.29 19.29 0 0 0-2.76 1.47L604 521.08v-6.46a19.37 19.37 0 0 0-10.26-17.1L448.46 420a19.38 19.38 0 0 0-18.24 34.19l135.06 72v15.5L512 570.17 299.56 456.86a19.29 19.29 0 0 0-2.77-1.48l-34.24-18.26L512 304.08l249.45 133Z" style="fill:#fff"/>
</svg>
