<svg xmlns="http://www.w3.org/2000/svg" viewBox="0 0 1024 1024">
   <circle cx="512" cy="512" r="512" style="fill:#6750a4"/>
   <path d="M823.95 419.97 519.16 257.42a15.085 15.085 0 0 0-14.32 0L200.05 419.97c-7.42 3.97-10.22 13.21-6.24 20.63a15.19 15.19 0 0 0 6.24 6.24l73.2 39.06v126.03c0 8.73 3.21 17.16 9.02 23.67C314.96 672 388.28 733.11 512 733.11c43.56.41 86.76-8 126.99-24.71v90.75c0 8.42 6.82 15.24 15.24 15.24s15.24-6.82 15.24-15.24V693.36a287.525 287.525 0 0 0 72.26-57.78c5.82-6.5 9.03-14.92 9.02-23.65V485.9l73.2-39.06c7.42-3.97 10.22-13.21 6.24-20.63a15.19 15.19 0 0 0-6.24-6.24ZM512 702.63c-111.75 0-177.79-54.76-207.05-87.4a5.06 5.06 0 0 1-1.22-3.3V502.16l201.11 107.23c4.48 2.38 9.85 2.38 14.32 0l119.83-63.9v129.53c-33.02 15.8-75.05 27.61-126.99 27.61Zm208.27-90.7c0 1.21-.43 2.38-1.22 3.3a254.432 254.432 0 0 1-49.58 42.44V529.23l50.8-27.08v109.77Zm-56.26-114.29c-.79-.68-1.64-1.29-2.54-1.8L519.24 420c-7.59-3.64-16.69-.45-20.33 7.14-3.43 7.14-.82 15.72 6.01 19.73l127.1 67.81-120.01 64.01-272.4-145.28 272.4-145.28 272.4 145.28-120.39 64.23Z" style="fill:#fff"/>
</svg>
