<svg xmlns="http://www.w3.org/2000/svg" viewBox="0 0 1024 1024">
   <circle cx="512" cy="512" r="512" style="fill:#6750a4"/>
   <path d="m754.17 522 .28-.52a20.49 20.49 0 0 0 1.16-2.65c.07-.19.12-.38.18-.57a20.45 20.45 0 0 0 .72-2.88s0-.08 0-.11a20.35 20.35 0 0 0 .24-3v-.43a20.24 20.24 0 0 0-.24-2.94c0-.18-.06-.36-.09-.53a20.24 20.24 0 0 0-.73-2.91c0-.08-.06-.15-.09-.22-.2-.56-.41-1.13-.67-1.68-.14-.31-.31-.6-.46-.9s-.19-.38-.29-.56a20.32 20.32 0 0 0-1.67-2.53c0-.05-.07-.11-.11-.17L528 213.8l-.14-.15c-.37-.47-.77-.91-1.18-1.34l-.26-.29a20.48 20.48 0 0 0-1.6-1.44l-.47-.35c-.42-.32-.85-.63-1.29-.92l-.6-.36c-.43-.26-.86-.5-1.31-.73l-.63-.3q-.69-.32-1.4-.59l-.63-.23c-.49-.17-1-.31-1.51-.44l-.61-.16c-.54-.12-1.08-.21-1.63-.28l-.56-.09a19.57 19.57 0 0 0-4.46 0l-.57.09c-.55.08-1.09.16-1.63.28l-.62.16c-.51.13-1 .27-1.5.44l-.64.24c-.47.18-.93.37-1.38.58l-.64.31c-.44.22-.86.46-1.28.72l-.62.38c-.43.28-.85.59-1.26.9-.16.12-.33.24-.49.37a20.52 20.52 0 0 0-1.59 1.43l-.28.31c-.41.42-.8.86-1.17 1.32l-.14.15L271.56 499.4l-.1.15a20.37 20.37 0 0 0-1.68 2.57c-.1.17-.18.35-.27.52s-.33.61-.48.93c-.26.58-.49 1.16-.69 1.75l-.06.14a20.26 20.26 0 0 0-.74 3c0 .16-.06.31-.08.46a20.24 20.24 0 0 0-.25 3v.36a20.37 20.37 0 0 0 .25 3.09 20.46 20.46 0 0 0 .74 2.94c.06.17.1.34.16.51a20.47 20.47 0 0 0 1.18 2.69l.26.48a20.41 20.41 0 0 0 1.7 2.58l.05.08L496 810.2l.14.15c.37.46.77.9 1.18 1.33l.27.29a20.55 20.55 0 0 0 1.6 1.44l.46.34c.42.32.85.64 1.3.93l.6.36c.43.26.86.5 1.31.73l.62.3c.46.21.93.41 1.41.59l.62.23c.5.17 1 .31 1.52.44l.6.16c.54.12 1.09.21 1.64.28l.55.08a19.56 19.56 0 0 0 4.46 0l.55-.08c.56-.08 1.11-.16 1.65-.29l.59-.15c.52-.13 1-.28 1.53-.45l.61-.22q.73-.27 1.42-.6l.61-.29c.45-.23.9-.48 1.33-.74l.57-.35c.46-.3.89-.62 1.33-.95l.44-.33a20.5 20.5 0 0 0 1.6-1.45l.25-.27c.42-.43.82-.88 1.2-1.35l.14-.15 224.4-285.6.06-.09a20.37 20.37 0 0 0 1.61-2.49ZM532.4 285.38l171.91 218.8-171.91 78.14Zm-40.8 296.94-171.91-78.14 171.91-218.8Zm0 44.82v111.48L355.34 565.2Zm40.8 0 136.26-61.94L532.4 738.62Z" style="fill:#fff"/>
</svg>
