<svg xmlns="http://www.w3.org/2000/svg" viewBox="0 0 1024 1024">
   <circle cx="512" cy="512" r="512" data-name="Background (DON'T CHANGE COLOR)" style="fill:#6750a4"/>
   <path d="m746.2 521.64.28-.5a19.82 19.82 0 0 0 1.12-2.56c.06-.18.12-.37.18-.55a19.78 19.78 0 0 0 .7-2.78s0-.07 0-.11a19.68 19.68 0 0 0 .23-2.87v-.42a19.57 19.57 0 0 0-.23-2.84c0-.17-.06-.34-.09-.52a19.57 19.57 0 0 0-.71-2.81c0-.07-.06-.14-.08-.22-.19-.55-.4-1.09-.64-1.63-.14-.3-.3-.58-.45-.87s-.18-.37-.28-.54a19.66 19.66 0 0 0-1.61-2.45l-.11-.16-217-276.2-.13-.15c-.36-.45-.75-.88-1.14-1.3l-.25-.28a19.8 19.8 0 0 0-1.54-1.39l-.45-.34c-.41-.31-.82-.61-1.25-.89l-.58-.35c-.41-.25-.83-.49-1.26-.7l-.61-.29q-.67-.31-1.36-.57l-.61-.22c-.48-.16-1-.3-1.46-.43l-.59-.15c-.52-.11-1-.2-1.58-.27l-.54-.08a18.93 18.93 0 0 0-4.31 0l-.55.08c-.53.07-1.06.16-1.57.27l-.6.15c-.49.12-1 .26-1.45.42l-.62.23c-.45.17-.9.36-1.34.56l-.62.3c-.42.22-.84.45-1.24.69l-.6.36c-.42.27-.82.57-1.22.87-.16.12-.32.23-.48.36a19.85 19.85 0 0 0-1.54 1.39l-.27.3c-.39.41-.77.83-1.13 1.28l-.13.15-217 276.2-.1.14a19.7 19.7 0 0 0-1.63 2.48c-.09.17-.17.34-.26.5s-.32.59-.46.9c-.25.56-.47 1.12-.67 1.69l-.05.14a19.59 19.59 0 0 0-.72 2.87c0 .15-.06.3-.08.45a19.57 19.57 0 0 0-.24 2.9v.34a19.7 19.7 0 0 0 .24 3 19.79 19.79 0 0 0 .71 2.84c.05.16.1.33.16.49a19.8 19.8 0 0 0 1.14 2.6l.25.46a19.74 19.74 0 0 0 1.64 2.5v.08l217 276.2.13.15c.36.45.74.87 1.14 1.29l.26.29a19.87 19.87 0 0 0 1.54 1.39l.44.33c.41.31.82.62 1.25.9l.58.35c.41.25.83.49 1.26.7l.6.29c.44.21.9.4 1.36.57l.6.22c.48.16 1 .3 1.47.43l.58.15c.52.12 1.05.2 1.59.27l.53.08a18.92 18.92 0 0 0 4.32 0l.53-.08c.54-.07 1.07-.16 1.6-.28l.57-.15c.5-.13 1-.27 1.48-.43l.59-.21q.7-.26 1.38-.58l.59-.28c.44-.22.87-.46 1.29-.72l.56-.34c.44-.29.87-.6 1.28-.92l.42-.31a19.83 19.83 0 0 0 1.55-1.4l.24-.26c.4-.42.79-.85 1.16-1.31l.13-.15 217-276.2.06-.08a19.7 19.7 0 0 0 1.7-2.46Zm-214.47-228.8L698 504.44 531.73 580ZM492.27 580 326 504.44l166.27-211.6Zm0 43.34v107.82L360.5 563.45Zm39.46 0 131.77-59.9-131.77 167.72Z" style="fill:#fff"/>
</svg>
