<svg xmlns="http://www.w3.org/2000/svg" viewBox="0 0 1024 1024">
   <circle cx="512" cy="512" r="512" style="fill:#6750a4"/>
   <path d="M738.29 502.95 523.52 229.61c-4.99-6.36-14.2-7.47-20.56-2.48-.92.72-1.75 1.56-2.48 2.48L285.71 502.95a14.645 14.645 0 0 0 0 18.11L500.48 794.4c4.99 6.36 14.2 7.47 20.56 2.48.92-.72 1.75-1.56 2.48-2.48l214.77-273.34c4.18-5.31 4.18-12.8 0-18.11ZM526.65 281.01 703.74 506.4l-177.09 80.54V281.02Zm-29.29 305.87-177.09-80.54L497.36 281v305.87Zm0 32.17v123.96l-151.51-192.8 151.51 68.85Zm29.29 0 151.51-68.85L526.65 743V619.04Z" style="fill:#fff"/>
</svg>
