<svg xmlns="http://www.w3.org/2000/svg" viewBox="0 0 1024 1024">
   <circle cx="512" cy="512" r="512" data-name="Background (DON'T CHANGE COLOR)" style="fill:#6750a4"/>
   <path d="M657.2 681.16a175.61 175.61 0 0 1-125 51.75 176.83 176.83 0 0 1-175.38-154.62H488a22.1 22.1 0 1 0 0-44.19H355.45v-44.2h176.78a22.1 22.1 0 1 0 0-44.19H356.84c10.94-87.06 85.42-154.61 175.39-154.61h.06a175.63 175.63 0 0 1 124.91 51.74 22.1 22.1 0 0 0 31.24-31.26A221 221 0 0 0 532.3 246.9h-.07a221 221 0 0 0-219.88 198.81h-45.28a22.1 22.1 0 0 0 0 44.19h44.19v44.2h-44.19a22.1 22.1 0 0 0 0 44.19h45.3A221 221 0 0 0 532.18 777.1h.05a219.52 219.52 0 0 0 156.21-64.68 22.1 22.1 0 1 0-31.24-31.26Z" style="fill:#fff"/>
</svg>
