<svg xmlns="http://www.w3.org/2000/svg" viewBox="0 0 1024 1024">
   <circle cx="512" cy="512" r="512" style="fill:#6750a4"/>
   <path d="M661.72 685.24a179.85 179.85 0 0 1-128 53 181.1 181.1 0 0 1-179.6-158.35h134.35a22.63 22.63 0 1 0 0-45.26H352.69v-45.26h181a22.63 22.63 0 1 0 0-45.26H354.11c11.2-89.16 87.49-158.35 179.62-158.35h.06a179.87 179.87 0 0 1 127.93 53 22.63 22.63 0 0 0 32-32 226.3 226.3 0 0 0-159.91-66.26h-.08a226.35 226.35 0 0 0-225.18 203.61h-46.38a22.63 22.63 0 0 0 0 45.26h45.26v45.26h-45.26a22.63 22.63 0 0 0 0 45.26h46.39A226.32 226.32 0 0 0 533.68 783.5h.05a224.82 224.82 0 0 0 160-66.25 22.63 22.63 0 1 0-32-32Z" style="fill:#fff"/>
</svg>
