<svg xmlns="http://www.w3.org/2000/svg" viewBox="0 0 1024 1024">
   <circle cx="512" cy="512" r="512" style="fill:#6750a4"/>
   <path d="M683.2 698.53c6.28 7.01 5.7 17.78-1.31 24.07 0 0-.02.01-.02.02-91.24 81.56-231.32 73.71-312.87-17.53a221.609 221.609 0 0 1-55.72-130.59h-51.84c-9.41 0-17.04-7.63-17.04-17.04s7.63-17.04 17.04-17.04h51.13V483.6h-51.13c-9.41 0-17.04-7.63-17.04-17.04s7.63-17.04 17.04-17.04h51.84c9.43-122.01 115.99-213.27 238-203.84a221.635 221.635 0 0 1 130.59 55.72c7.06 6.28 7.7 17.09 1.42 24.15-6.28 7.06-17.09 7.7-24.15 1.42-77.2-69.02-195.72-62.38-264.74 14.81a187.514 187.514 0 0 0-46.92 107.74h186.67c9.41 0 17.04 7.63 17.04 17.04s-7.63 17.04-17.04 17.04H346.66v56.82H488.7c9.41 0 17.04 7.63 17.04 17.04s-7.63 17.04-17.04 17.04H347.49c9.43 103.12 100.66 179.07 203.78 169.65a187.468 187.468 0 0 0 107.88-46.92c7.01-6.28 17.78-5.7 24.06 1.31Z" style="fill:#fff"/>
</svg>
