<svg xmlns="http://www.w3.org/2000/svg" viewBox="0 0 1024 1024">
   <circle cx="512" cy="512" r="512" style="fill:#6750a4"/>
   <path d="M667 690a184.82 184.82 0 0 1-131.5 54.49 186.1 186.1 0 0 1-184.61-162.72H489a23.26 23.26 0 1 0 0-46.51H349.45v-46.52h186a23.26 23.26 0 1 0 0-46.51H350.91c11.51-91.62 89.9-162.72 184.59-162.72h.06A184.84 184.84 0 0 1 667 334a23.26 23.26 0 0 0 32.88-32.9A232.55 232.55 0 0 0 535.57 233h-.08a232.6 232.6 0 0 0-231.4 209.23h-47.66a23.26 23.26 0 1 0 0 46.51h46.51v46.51h-46.51a23.26 23.26 0 1 0 0 46.51h47.67A232.57 232.57 0 0 0 535.44 791h.06a231 231 0 0 0 164.4-68.08A23.26 23.26 0 0 0 667 690Z" style="fill:#fff"/>
</svg>
