<svg xmlns="http://www.w3.org/2000/svg" viewBox="0 0 1024 1024">
   <circle cx="512" cy="512" r="512" style="fill:#607d8b"/>
   <path d="M661 655.5c-28.5 41.3-74.8 66.6-125 68.3-70.7 0-131.8-52.7-158.2-131.8h146.1c14.6 0 26.4-11.8 26.4-26.4 0-14.6-11.8-26.4-26.4-26.4H367c0-8.7-1.3-17.7-1.3-26.4s0-17.7 1.3-26.4h156.9c14.6 0 26.4-11.8 26.4-26.4s-11.8-26.4-26.4-26.4H378.1c26.4-79.1 87.3-131.8 158.2-131.8 50 1.7 96.3 27.1 124.7 68.3 7.3 12.6 23.4 16.9 36 9.6s16.9-23.4 9.6-36c-1-1.7-2.1-3.2-3.4-4.6-38.1-55-100.3-88.5-167.2-89.9-99.1 0-184.6 74.9-212.8 184.6h-63c-14.6 0-26.4 11.8-26.4 26.4s11.8 26.4 26.4 26.4h54.1v52.8h-54.1c-14.6 0-26.4 11.8-26.4 26.4 0 14.6 11.8 26.4 26.4 26.4h63C352 701.6 436.8 776.5 536 776.5c66.9-1.5 129.1-34.9 167.2-89.9 7.3-12.6 3-28.7-9.6-36-10.7-6.3-24.3-4.2-32.6 4.9z" style="fill:#fff"/>
</svg>
