<svg xmlns="http://www.w3.org/2000/svg" viewBox="0 0 1024 1024">
   <circle cx="512" cy="512" r="512" style="fill:#6750a4"/>
   <path d="M663 686.44a181.09 181.09 0 0 1-128.82 53.36 182.35 182.35 0 0 1-180.89-159.44H488.6a22.79 22.79 0 0 0 0-45.57H351.88v-45.58h182.3a22.79 22.79 0 1 0 0-45.57H353.31c11.28-89.78 88.09-159.44 180.86-159.44h.06A181.11 181.11 0 0 1 663 337.56a22.79 22.79 0 0 0 32.22-32.23 227.86 227.86 0 0 0-161-66.71h-.08a227.92 227.92 0 0 0-226.74 205h-46.7a22.79 22.79 0 1 0 0 45.57h45.6v45.57h-45.57a22.79 22.79 0 0 0 0 45.57h46.71a227.89 227.89 0 0 0 226.68 205h.05a226.37 226.37 0 0 0 161.09-66.71A22.79 22.79 0 1 0 663 686.44Z" style="fill:#fff"/>
</svg>
