<svg xmlns="http://www.w3.org/2000/svg" viewBox="0 0 1024 1024">
   <circle cx="512" cy="512" r="512" style="fill:#6750a4"/>
   <path d="M258.17 442.06h63.46v165.97H277.7c-8.09 0-14.64 6.56-14.64 14.64s6.56 14.64 14.64 14.64h468.61c8.09 0 14.64-6.56 14.64-14.64s-6.56-14.64-14.64-14.64h-43.93V442.06h63.46c8.09 0 14.64-6.57 14.63-14.66 0-5.08-2.64-9.8-6.97-12.46l-253.83-156.2a14.637 14.637 0 0 0-15.33 0l-253.83 156.2c-6.89 4.24-9.04 13.26-4.8 20.15 2.66 4.33 7.38 6.97 12.46 6.97Zm92.75 0h87.86v165.97h-87.86V442.06Zm205.02 0v165.97h-87.86V442.06h87.86Zm117.15 165.97h-87.86V442.06h87.86v165.97ZM512.01 288.3 714.1 412.77H309.92L512.01 288.3Zm288 412.47c0 8.09-6.56 14.64-14.64 14.64H238.64c-8.09 0-14.64-6.56-14.64-14.64s6.56-14.64 14.64-14.64h546.71c8.09 0 14.64 6.56 14.64 14.64Z" style="fill:#fff"/>
</svg>
