<svg xmlns="http://www.w3.org/2000/svg" viewBox="0 0 1024 1024">
   <circle cx="512" cy="512" r="512" style="fill:#6750a4"/>
   <path d="M264.13 457.87h57.2V610.4H283.2a19.07 19.07 0 1 0 0 38.13h457.6a19.07 19.07 0 1 0 0-38.13h-38.13V457.87h57.2a19.07 19.07 0 0 0 10-35.3L522 270a19.07 19.07 0 0 0-20 0L254.14 422.56a19.07 19.07 0 0 0 10 35.3Zm95.33 0h76.27V610.4h-76.26Zm190.67 0V610.4h-76.26V457.87Zm114.4 152.53h-76.26V457.87h76.27ZM512 308.65l180.5 111.08h-361Zm286 397.08a19.07 19.07 0 0 1-19.07 19.07H245.07a19.07 19.07 0 1 1 0-38.13h533.86A19.07 19.07 0 0 1 798 705.73Z" style="fill:#fff"/>
</svg>
