<svg xmlns="http://www.w3.org/2000/svg" viewBox="0 0 1024 1024">
   <circle cx="512" cy="512" r="512" style="fill:#607d8b"/>
   <path d="M670.6 285.4H353.4c-37.5 0-68 30.4-68 68v317.2c0 37.5 30.4 68 68 68h317.2c3.7-.1 7.4-.4 11.1-1.1l6.8-1.6h2.7l8.4-3.2 2.9-1.6c2.3-1.4 4.8-2.5 7-4.1 3-2.2 5.9-4.6 8.6-7.3l1.6-2c2.2-2.3 4.3-4.7 6.1-7.3l2-2.9c1.6-2.5 2.9-5.2 4.1-7.9.6-1.1 1.2-2.2 1.6-3.4 1.1-2.7 1.8-5.7 2.7-8.6v-3.4c1.3-4.4 2-9 2.3-13.6V353.4c.1-37.5-30.4-68-67.9-68zM353.4 693.3c-12.5 0-22.7-10.1-22.7-22.7v-97.7l74.5-74.8c8.8-8.9 23.2-8.9 32-.1l.1.1 194.9 195.1H353.4zm339.9-22.7c0 2.8-.6 5.6-1.6 8.2-.5 1.1-1.1 2.2-1.8 3.2-.6 1-1.3 1.9-2 2.7L566.6 563.4l19.9-19.9c8.8-8.9 23.2-8.9 32-.1l.1.1 74.5 74.8v52.3zm0-116.5L650.7 512c-26.9-25.5-69.1-25.5-96.1 0l-19.9 19.9-65.3-65.3c-26.9-25.5-69.1-25.5-96.1 0l-42.6 42.1V353.4c0-12.5 10.1-22.7 22.7-22.7h317.2c12.5 0 22.7 10.1 22.7 22.7v200.7zM546 376.1c-18.8 0-34 15.2-34 34s15.2 34 34 34 34-15.2 34-34-15.2-34-34-34z" style="fill:#fff"/>
</svg>
