<svg xmlns="http://www.w3.org/2000/svg" viewBox="0 0 1024 1024">
   <circle cx="512" cy="512" r="512" data-name="Background (DON'T CHANGE COLOR)" style="fill:#6750a4"/>
   <path d="M734 290H290a40.41 40.41 0 0 0-40.36 40.36v363.28A40.41 40.41 0 0 0 290 734h444a40.41 40.41 0 0 0 40.36-40.36V330.36A40.41 40.41 0 0 0 734 290Zm-444 40.36h444v274.19l-72.2-72.2-.39-.39a40.36 40.36 0 0 0-57 .37l-51.92 51.92-.11.11-.11-.11-112.53-112.5-.33-.33a40.41 40.41 0 0 0-57 .37L290 564.19V330.36Zm0 363.27v-72.36l121-121 .12-.1.1.1 112.45 112.48a40.41 40.41 0 0 0 57 .36L633 560.83s.1 0 .14-.08l.08.08L734 661.63v32Zm292.64-277.5a25.23 25.23 0 1 1-25.23 25.23 25.23 25.23 0 0 1 25.23-25.22Z" style="fill:#fff"/>
</svg>
