<svg xmlns="http://www.w3.org/2000/svg" viewBox="0 0 1024 1024">
   <circle cx="512" cy="512" r="512" style="fill:#6750a4"/>
   <path d="M736 288H288a40.77 40.77 0 0 0-40.73 40.73v366.54A40.77 40.77 0 0 0 288 736h448a40.77 40.77 0 0 0 40.73-40.73V328.73A40.77 40.77 0 0 0 736 288Zm-448 40.73h448v276.65l-72.85-72.85-.39-.39a40.73 40.73 0 0 0-57.53.38l-52.39 52.39-.11.11-.11-.11-113.53-113.53-.33-.33a40.77 40.77 0 0 0-57.52.37L288 564.66V328.72Zm0 366.55v-73l122.07-122.1.12-.1.1.1 113.48 113.48a40.77 40.77 0 0 0 57.55.36l52.75-52.75s.1 0 .14-.08l.08.08L736 663v32.29Zm295.27-280a25.45 25.45 0 1 1-25.45 25.45 25.45 25.45 0 0 1 25.45-25.46Z" style="fill:#fff"/>
</svg>
