<svg xmlns="http://www.w3.org/2000/svg" viewBox="0 0 1024 1024">
   <circle cx="512" cy="512" r="512" style="fill:#6750a4"/>
   <path d="M736.23 287.77H287.77A40.82 40.82 0 0 0 247 328.54v366.92a40.82 40.82 0 0 0 40.77 40.77h448.46A40.82 40.82 0 0 0 777 695.46V328.54a40.82 40.82 0 0 0-40.77-40.77Zm-448.46 40.77h448.46v276.94l-72.93-72.93-.39-.39a40.77 40.77 0 0 0-57.59.38L552.88 585l-.11.11-.11-.11L439 471.34l-.33-.33a40.82 40.82 0 0 0-57.58.37l-93.34 93.34V328.54Zm0 366.92v-73.09L410 500.17l.12-.1.1.1 113.6 113.6a40.82 40.82 0 0 0 57.6.36l52.81-52.81s.1 0 .14-.08l.08.08 101.78 101.82v32.32Zm295.58-280.29a25.48 25.48 0 1 1-25.48 25.48 25.48 25.48 0 0 1 25.48-25.48Z" style="fill:#fff"/>
</svg>
