<svg xmlns="http://www.w3.org/2000/svg" viewBox="0 0 1024 1024">
   <circle cx="512" cy="512" r="512" style="fill:#6750a4"/>
   <path d="M735.5 288.5h-447a40.68 40.68 0 0 0-40.64 40.64v365.72a40.68 40.68 0 0 0 40.64 40.64h447a40.68 40.68 0 0 0 40.64-40.64V329.14a40.68 40.68 0 0 0-40.64-40.64Zm-447 40.64h447v276l-72.69-72.69-.39-.39a40.64 40.64 0 0 0-57.4.38l-52.27 52.27-.11.11-.11-.11-113.28-113.24-.33-.33a40.68 40.68 0 0 0-57.39.37l-93 93V329.1Zm0 365.73V622l121.8-121.79.12-.1.1.1 113.23 113.23a40.68 40.68 0 0 0 57.42.36l52.64-52.63s.1 0 .14-.08l.08.08L735.5 662.64v32.22Zm294.61-279.38a25.4 25.4 0 1 1-25.4 25.4 25.4 25.4 0 0 1 25.4-25.4Z" style="fill:#fff"/>
</svg>
