<svg xmlns="http://www.w3.org/2000/svg" viewBox="0 0 1024 1024">
   <circle cx="512" cy="512" r="512" style="fill:#6750a4"/>
   <path d="M641.47 455.44h-64.74c-8.94 0-16.19-7.25-16.19-16.19s7.25-16.19 16.19-16.19h64.74c8.94 0 16.19 7.25 16.19 16.19s-7.25 16.19-16.19 16.19Zm-194.23-32.37h-26.98v-26.98c0-8.94-7.25-16.19-16.19-16.19s-16.19 7.25-16.19 16.19v26.98H360.9c-8.94 0-16.19 7.25-16.19 16.19s7.25 16.19 16.19 16.19h26.98v26.98c0 8.94 7.25 16.19 16.19 16.19s16.19-7.25 16.19-16.19v-26.98h26.98c8.94 0 16.19-7.25 16.19-16.19s-7.25-16.19-16.19-16.19Zm366.45 273.81a91.718 91.718 0 0 1-75.1 39.12 91.999 91.999 0 0 1-64.74-26.84l-.7-.76-108.88-123.47H459.71L350.97 708.38l-.84.65a91.75 91.75 0 0 1-64.74 26.98c-50.66-.03-91.69-41.13-91.66-91.78 0-5.32.47-10.64 1.4-15.88v-.27l44.13-226.9C252.37 326.52 317.2 272.05 393 272.02h237.69c75.58.1 140.31 54.14 153.9 128.49v.51l44.27 227.09v.3c4.3 23.94-1.16 48.6-15.16 68.49ZM630.68 552.55c68.53 0 124.09-55.56 124.09-124.09s-55.56-124.09-124.09-124.09H392.99c-60.13.05-111.53 43.28-121.88 102.51-.01.09-.01.18 0 .27l-44.19 226.96c-5.62 32.29 16 63.03 48.29 68.65a59.34 59.34 0 0 0 51.82-16.18l113.3-128.54c3.09-3.45 7.51-5.42 12.14-5.4l178.21-.08Zm166.37 81.55-26.41-135.83c-26.49 53.05-80.66 86.58-139.96 86.65H607.4l89.54 101.65c23.35 23 60.93 22.71 83.93-.65a59.34 59.34 0 0 0 16.18-51.82Z" style="fill:#fff"/>
</svg>
