<svg xmlns="http://www.w3.org/2000/svg" viewBox="0 0 1024 1024">
   <circle cx="512" cy="512" r="512" style="fill:#6750a4"/>
   <path d="M553 430.56a20.51 20.51 0 0 1 20.51-20.51h82a20.51 20.51 0 0 1 0 41h-82A20.51 20.51 0 0 1 553 430.56Zm-102.52-20.5H430v-20.51a20.51 20.51 0 0 0-41 0v20.51h-20.54a20.51 20.51 0 0 0 0 41H389v20.51a20.51 20.51 0 0 0 41 0v-20.5h20.51a20.51 20.51 0 0 0 0-41Zm352.67 278.37A92.28 92.28 0 0 1 662 700.84q-.36-.37-.71-.75L556.75 583.9l-89.43.41-104.66 115.81q-.33.37-.68.72a92.28 92.28 0 0 1-156.21-81.4l.06-.31 42-215.4a153.9 153.9 0 0 1 151.36-127l225.52-.73h.07c76.28 0 139.75 55.82 151.74 128.75l41.66 214.39.05.29a91.67 91.67 0 0 1-15.08 69ZM564.92 542.85h.08l59.65-.28A112.81 112.81 0 0 0 736.16 412l-.27-1.38c-.08-.4-.12-.8-.17-1.19A113 113 0 0 0 624.82 317l-225.53.77a112.94 112.94 0 0 0-111.12 93.29l-.06.34-42 215.4a51.26 51.26 0 0 0 86.49 45.4L443 550.1a20.51 20.51 0 0 1 15.12-6.76Zm213 84-22.54-115.93a153.82 153.82 0 0 1-130.59 72.66l-13.09.06 79.73 88.59a51.26 51.26 0 0 0 86.47-45.42Z" style="fill:#fff"/>
</svg>
