<svg xmlns="http://www.w3.org/2000/svg" viewBox="0 0 1024 1024">
   <circle cx="512" cy="512" r="512" style="fill:#607d8b"/>
   <path d="M487 487c0 13.8-11.2 25-25 25h-25v25c0 13.8-11.2 25-25 25s-25-11.2-25-25v-25h-25c-13.8 0-25-11.2-25-25s11.2-25 25-25h25v-25c0-13.8 11.2-25 25-25s25 11.2 25 25v25h25c13.8 0 25 11.2 25 25zm125.3 25c0-13.8-11.2-25-25-25h-.3c-13.8 0-24.9 11.2-24.9 25s11.3 25 25.1 25 25.1-11.2 25.1-25zm75-50c0-13.8-11.2-25-25-25h-.3c-13.8 0-24.9 11.2-24.9 25s11.3 25 25.1 25 25.1-11.2 25.1-25zM787 612c0-39.5-14.4-160.6-17.3-184.5l-.3-3.3c-6.6-64-60-112.2-124.3-112.2H379c-64.3 0-117.8 48.2-124.5 113.2l-.2 2.3c-2.9 23.9-17.3 145-17.3 184.4 0 55.1 44.9 100 100 100 35.4 0 54-18.7 67.7-32.3l35.4-35.4c4.7-4.7 11.1-7.3 17.7-7.3h108.6c6.6 0 13 2.7 17.7 7.3l35.4 35.4C633 693.3 651.6 712 687 712c55.1 0 100-44.9 100-100zm-382.3-3-35.4 35.4C357.1 656.6 351.1 662 337 662c-27.6 0-50-22.4-50-50 0-37.3 15.2-164.1 17-178.6l.4-4.1c3.9-38.4 36-67.3 74.6-67.3h266c38.6 0 70.7 28.9 74.6 67.1l.5 4.4c6.3 52 16.9 148 16.9 178.4 0 27.6-22.4 50-50 50-14.1 0-20.1-5.4-32.3-17.7L619.3 609c-14.2-14.2-33-22-53-22H457.7c-20 0-38.8 7.8-53 22z" style="fill:#fff"/>
</svg>
