<svg xmlns="http://www.w3.org/2000/svg" viewBox="0 0 1024 1024">
   <circle cx="512" cy="512" r="512" data-name="Background (DON'T CHANGE COLOR)" style="fill:#6750a4"/>
   <path d="M552.56 440.1a20.28 20.28 0 0 1 20.28-20.28h81.11a20.28 20.28 0 0 1 0 40.56h-81.12a20.28 20.28 0 0 1-20.27-20.28Zm-101.39-20.28h-20.28v-20.28a20.28 20.28 0 0 0-40.56 0v20.28h-20.27a20.28 20.28 0 0 0 0 40.56h20.28v20.28a20.28 20.28 0 0 0 40.56 0v-20.28h20.28a20.28 20.28 0 0 0 0-40.56ZM799.91 695.1a91.25 91.25 0 0 1-139.55 12.27q-.36-.36-.7-.74l-103.41-114.9-88.43.41-103.5 114.52q-.33.36-.68.71a91.25 91.25 0 0 1-154.47-80.5l.06-.3 41.54-213A152.19 152.19 0 0 1 400.43 288l223-.76h.07c75.43 0 138.2 55.2 150.06 127.32l41.2 212 .05.29a90.65 90.65 0 0 1-14.9 68.25Zm-235.58-144h.11l59-.27a111.55 111.55 0 0 0 110.23-129.1l-.27-1.37c-.08-.39-.12-.79-.17-1.18a111.71 111.71 0 0 0-109.67-91.4l-223 .76a111.69 111.69 0 0 0-109.88 92.26l-.06.34-41.54 213a50.69 50.69 0 0 0 85.52 44.9l109.13-120.73a20.28 20.28 0 0 1 15-6.68Zm210.6 83-22.27-114.6a152.11 152.11 0 0 1-129.14 71.86l-12.94.06 78.84 87.6a50.69 50.69 0 0 0 85.51-44.92Z" style="fill:#fff"/>
</svg>
