<svg xmlns="http://www.w3.org/2000/svg" viewBox="0 0 1024 1024">
   <circle cx="512" cy="512" r="512" style="fill:#6750a4"/>
   <path d="M746.98 335.45H634.83v-26.7c0-32.44-26.3-58.74-58.74-58.74H447.92c-32.44 0-58.74 26.3-58.74 58.74v26.7H277.03c-20.65 0-37.38 16.74-37.38 37.38v341.79c0 20.65 16.74 37.38 37.38 37.38h469.96c20.65 0 37.38-16.74 37.38-37.38V372.83c0-20.65-16.74-37.38-37.38-37.38Zm-325.77-26.7c0-14.75 11.95-26.7 26.7-26.7h128.17c14.75 0 26.7 11.95 26.7 26.7v26.7H421.21v-26.7Zm331.11 405.87c0 2.95-2.39 5.34-5.34 5.34H277.02c-2.95 0-5.34-2.39-5.34-5.34V372.83c0-2.95 2.39-5.34 5.34-5.34h469.96c2.95 0 5.34 2.39 5.34 5.34v341.79ZM592.11 543.73c0 8.85-7.17 16.02-16.02 16.02h-48.06v48.06c0 8.85-7.17 16.02-16.02 16.02s-16.02-7.17-16.02-16.02v-48.06h-48.06c-8.85 0-16.02-7.17-16.02-16.02s7.17-16.02 16.02-16.02h48.06v-48.06c0-8.85 7.17-16.02 16.02-16.02s16.02 7.17 16.02 16.02v48.06h48.06c8.85 0 16.02 7.17 16.02 16.02Z" style="fill:#fff"/>
</svg>
