<svg xmlns="http://www.w3.org/2000/svg" viewBox="0 0 1024 1024">
   <circle cx="512" cy="512" r="512" style="fill:#6750a4"/>
   <path d="M605.46 533.54a20.77 20.77 0 0 1-20.77 20.77h-51.92v51.92a20.77 20.77 0 0 1-41.54 0v-51.92h-51.92a20.77 20.77 0 1 1 0-41.54h51.92v-51.92a20.77 20.77 0 0 1 41.54 0v51.92h51.92a20.77 20.77 0 0 1 20.77 20.77ZM782 367.38v332.31a41.59 41.59 0 0 1-41.54 41.54H283.54A41.59 41.59 0 0 1 242 699.69V367.38a41.59 41.59 0 0 1 41.54-41.54h103.84v-20.76a62.38 62.38 0 0 1 62.31-62.31h124.62a62.38 62.38 0 0 1 62.31 62.31v20.77h103.84A41.59 41.59 0 0 1 782 367.38Zm-353.08-41.53h166.16v-20.77a20.79 20.79 0 0 0-20.77-20.77H449.69a20.79 20.79 0 0 0-20.77 20.77Zm311.54 41.54H283.51V699.7h456.95Z" style="fill:#fff"/>
</svg>
