<svg xmlns="http://www.w3.org/2000/svg" viewBox="0 0 1024 1024">
   <circle cx="512" cy="512" r="512" style="fill:#6750a4"/>
   <path d="M369.78 768H275a19 19 0 0 1-19-19v-94.78a19 19 0 0 1 5.55-13.41L398 504.32a184.57 184.57 0 0 1-9.31-58.76C388.74 341.07 473.81 256 578.37 256S768 341.07 768 445.63s-85.07 189.63-189.63 189.63h-.71a184.39 184.39 0 0 1-58-9.31L497 648.67a19 19 0 0 1-13.41 5.55h-37.96v37.93a19 19 0 0 1-19 19h-37.89V749a19 19 0 0 1-18.96 19Zm-75.85-37.93h56.89v-37.92a19 19 0 0 1 19-19h37.88v-37.89a19 19 0 0 1 19-19h49l25.73-25.73a19 19 0 0 1 20.57-4.12 146.94 146.94 0 0 0 55.73 10.92h.57c83.72 0 151.77-68.05 151.77-151.7s-68.07-151.7-151.7-151.7-151.7 68.07-151.7 151.7A147.05 147.05 0 0 0 437.59 502a19 19 0 0 1-4.15 20.57L293.93 662.08Zm331.85-355.55a23.7 23.7 0 1 1-23.7 23.7 23.7 23.7 0 0 1 23.7-23.7Z" style="fill:#fff"/>
</svg>
