<svg xmlns="http://www.w3.org/2000/svg" viewBox="0 0 1024 1024">
   <circle cx="512" cy="512" r="512" style="fill:#6750a4"/>
   <path d="M368.94 769.5h-95.37a19.07 19.07 0 0 1-19.07-19.07v-95.37a19.07 19.07 0 0 1 5.59-13.49l137.29-137.3a185.65 185.65 0 0 1-9.36-59.1c0-105.1 85.57-190.67 190.74-190.67S769.5 340.07 769.5 445.24 683.93 636 578.76 636H578a185.47 185.47 0 0 1-58.32-9.36l-22.85 22.85a19.08 19.08 0 0 1-13.49 5.59h-38.1v38.12a19.07 19.07 0 0 1-19.07 19.07H388v38.15a19.07 19.07 0 0 1-19.06 19.08Zm-76.3-38.15h57.22V693.2a19.07 19.07 0 0 1 19.07-19.07h38.15V636a19.07 19.07 0 0 1 19.07-19.07h49.32l25.9-25.93a19.07 19.07 0 0 1 20.69-4.18 147.81 147.81 0 0 0 56.06 11h.57c84.21 0 152.66-68.45 152.66-152.59S662.9 292.65 578.76 292.65 426.17 361.1 426.17 445.24a147.91 147.91 0 0 0 11 56.7 19.07 19.07 0 0 1-4.17 20.69L292.65 663Zm333.8-357.64a23.84 23.84 0 1 1-23.84 23.84 23.84 23.84 0 0 1 23.84-23.84Z" style="fill:#fff"/>
</svg>
