<svg xmlns="http://www.w3.org/2000/svg" viewBox="0 0 1024 1024">
   <circle cx="512" cy="512" r="512" style="fill:#6750a4"/>
   <path d="M578.1 267c-98.61.06-178.51 80.06-178.44 178.67.01 19.62 3.26 39.11 9.61 57.68l-133.7 133.72a13.775 13.775 0 0 0-4.03 9.7v91.51c0 7.58 6.15 13.73 13.73 13.73h91.51c7.58 0 13.73-6.15 13.73-13.73V697.1h41.18c7.58 0 13.73-6.15 13.73-13.73v-41.18h41.18c3.64 0 7.13-1.45 9.7-4.03l23.91-23.88c93.24 31.9 194.7-17.82 226.6-111.07 31.9-93.24-17.82-194.7-111.07-226.6a178.491 178.491 0 0 0-57.63-9.61Zm0 329.43c-19.14.03-38.11-3.59-55.89-10.68a13.737 13.737 0 0 0-15.19 2.88l-26.13 26.1h-49.21c-7.58 0-13.73 6.15-13.73 13.73v41.18h-41.18c-7.58 0-13.73 6.15-13.73 13.73v41.18h-64.06v-72.09l135.91-135.94a13.72 13.72 0 0 0 2.88-15.19c-30.87-77.47 6.91-165.29 84.38-196.16 77.47-30.87 165.29 6.91 196.16 84.38 30.87 77.47-6.91 165.29-84.38 196.16a150.884 150.884 0 0 1-55.85 10.72Zm68.63-196.75c0 12.63-10.24 22.88-22.88 22.88s-22.88-10.24-22.88-22.88 10.24-22.88 22.88-22.88 22.88 10.24 22.88 22.88Z" style="fill:#fff"/>
</svg>
