<svg xmlns="http://www.w3.org/2000/svg" viewBox="0 0 1024 1024">
   <circle cx="512" cy="512" r="512" style="fill:#6750a4"/>
   <path d="M777.12 757c-6.87 5.48-16.88 4.36-22.38-2.5-3.51-4.52-88.57-113.18-88.57-328.94 0-85.14-69.02-154.17-154.17-154.17s-154.17 69.02-154.17 154.17c0 215.76-84.93 324.42-88.54 328.94-5.5 6.88-15.54 8.01-22.42 2.51-6.88-5.5-8.01-15.54-2.51-22.42.98-1.25 81.58-105.53 81.58-309.03 0-102.76 83.3-186.06 186.06-186.06s186.06 83.3 186.06 186.06c0 203.69 80.75 307.99 81.58 309.03 5.49 6.89 4.36 16.92-2.53 22.41ZM437.58 430.88c-14.68 0-26.58 11.9-26.58 26.58s11.9 26.58 26.58 26.58 26.58-11.9 26.58-26.58-11.9-26.58-26.58-26.58Zm175.43 26.58c0-14.68-11.9-26.58-26.58-26.58s-26.58 11.9-26.58 26.58 11.9 26.58 26.58 26.58 26.58-11.9 26.58-26.58ZM434.1 538.88c-7.88-3.94-17.47-.75-21.41 7.14-3.94 7.88-.75 17.47 7.14 21.41l85.06 42.53c2.21 1.1 4.65 1.68 7.12 1.67 2.48 0 4.93-.57 7.15-1.67l85.06-42.53c7.88-3.94 11.08-13.53 7.14-21.41-3.94-7.88-13.53-11.08-21.41-7.14l-77.93 38.97-77.91-38.97Zm77.91 125.91c-50.17.43-96.18 27.97-120.25 71.98-4.29 7.7-1.52 17.42 6.18 21.7 7.7 4.29 17.42 1.52 21.7-6.18 27.03-51.02 90.3-70.47 141.32-43.45 18.51 9.8 33.64 24.94 43.45 43.45 2.81 5.05 8.14 8.19 13.93 8.19 2.71 0 5.37-.69 7.73-2.02 7.7-4.28 10.47-13.99 6.19-21.69-24.08-44.01-70.09-71.54-120.25-71.98Z" style="fill:#fff"/>
</svg>
