<svg xmlns="http://www.w3.org/2000/svg" viewBox="0 0 1024 1024">
   <circle cx="512" cy="512" r="512" style="fill:#6750a4"/>
   <path d="M782 322.56v-1c0-.35 0-.55-.08-.83s-.09-.61-.14-.91-.11-.57-.17-.85-.14-.57-.22-.85-.16-.57-.25-.84-.2-.55-.3-.82-.21-.54-.33-.81-.25-.53-.38-.79-.27-.52-.42-.78-.29-.5-.45-.74-.33-.51-.51-.76-.33-.45-.5-.67-.41-.51-.62-.75-.18-.23-.28-.34l-.27-.26c-.22-.23-.45-.45-.68-.67s-.42-.39-.63-.57-.45-.37-.68-.55-.48-.37-.73-.55-.46-.3-.69-.45-.52-.33-.79-.48-.5-.26-.75-.39-.53-.27-.8-.39-.55-.23-.83-.33l-.79-.29c-.29-.1-.59-.18-.89-.26l-.8-.21c-.29-.07-.59-.12-.89-.17l-.87-.13-.84-.08H258.63l-.86.08-.86.13c-.3.05-.6.1-.9.17l-.79.2c-.3.08-.6.16-.89.26l-.79.29c-.28.11-.56.21-.83.33s-.54.25-.81.39-.5.25-.74.38-.53.32-.8.48-.46.29-.69.45-.49.36-.73.55-.46.36-.68.54-.43.38-.63.58-.46.44-.68.67l-.27.26c-.1.11-.18.23-.28.34s-.42.49-.62.75-.34.44-.5.67-.34.5-.51.76-.31.49-.45.74-.28.51-.41.77-.26.53-.38.8-.23.53-.33.81-.21.55-.3.83-.17.56-.25.84-.16.57-.22.86-.12.56-.17.85-.1.61-.14.91-.06.55-.08.82 0 .65 0 1V680a39 39 0 0 0 39 39H743a39 39 0 0 0 39-39V322.56ZM746 660 584.51 511.95 746 363.92ZM278 363.92l161.49 148L278 660Zm234 165.66L306.27 341h411.46Zm-45.88 6.78 33.71 30.9a18 18 0 0 0 24.33 0l33.71-30.9L717.76 683H306.24Z" style="fill:#fff"/>
</svg>
