<svg xmlns="http://www.w3.org/2000/svg" viewBox="0 0 1024 1024">
   <circle cx="512" cy="512" r="512" style="fill:#6750a4"/>
   <path d="M768 304H256c-8.84 0-16 7.16-16 16v362.67c0 20.62 16.71 37.33 37.33 37.33h469.33c20.62 0 37.33-16.71 37.33-37.33V320c0-8.84-7.16-16-16-16ZM512 532.96 297.12 336h429.76L512 532.96ZM441.79 512 272 667.63V356.38l169.79 155.63Zm23.68 21.71 35.87 32.75c6.11 5.59 15.49 5.59 21.6 0l35.73-32.75L726.88 688H297.15l168.32-154.29ZM582.22 512l169.79-155.63v311.25L582.22 511.99Z" style="fill:#fff"/>
</svg>
