<svg xmlns="http://www.w3.org/2000/svg" viewBox="0 0 1024 1024">
   <g id="Icon">
      <circle cx="512" cy="512" r="512" style="fill:#607d8b"/>
      <path d="M710.2 611.1H313.8c-10.9 0-19.8 8.9-19.8 19.8s8.9 19.8 19.8 19.8h396.4c10.9 0 19.8-8.9 19.8-19.8s-8.9-19.8-19.8-19.8zm0 79.3H313.8c-10.9 0-19.8 8.9-19.8 19.8s8.9 19.8 19.8 19.8h396.4c10.9 0 19.8-8.9 19.8-19.8s-8.9-19.8-19.8-19.8zM393.1 412.9c-10.9 0-19.8 8.9-19.8 19.8s8.9 19.8 19.8 19.8 19.8-8.9 19.8-19.8-8.9-19.8-19.8-19.8zM670.5 294h-317c-32.8 0-59.5 26.6-59.5 59.5V512c0 32.8 26.6 59.5 59.5 59.5h317.1c32.8 0 59.5-26.6 59.5-59.5V353.5c-.1-32.9-26.7-59.5-59.6-59.5zm19.9 218c0 10.9-8.9 19.8-19.8 19.8H353.5c-10.9 0-19.8-8.9-19.8-19.8V353.5c0-10.9 8.9-19.8 19.8-19.8h317.1c10.9 0 19.8 8.9 19.8 19.8V512zM512 373.3c-32.8 0-59.5 26.6-59.5 59.5s26.6 59.5 59.5 59.5 59.5-26.6 59.5-59.5-26.7-59.5-59.5-59.5zm0 79.2c-10.9 0-19.8-8.9-19.8-19.8s8.9-19.8 19.8-19.8 19.8 8.9 19.8 19.8-8.9 19.8-19.8 19.8zm118.9-39.6c-10.9 0-19.8 8.9-19.8 19.8s8.9 19.8 19.8 19.8 19.8-8.9 19.8-19.8-8.8-19.8-19.8-19.8z" style="fill:#fff"/>
   </g>
</svg>