<svg xmlns="http://www.w3.org/2000/svg" viewBox="0 0 1024 1024">
   <circle cx="512" cy="512" r="512" style="fill:#6750a4"/>
   <path d="M512 604.75c51.22 0 92.75-41.52 92.75-92.75s-41.52-92.75-92.75-92.75-92.75 41.52-92.75 92.75 41.52 92.75 92.75 92.75Zm0-156.2c35.05 0 63.46 28.41 63.46 63.46s-28.41 63.46-63.46 63.46-63.46-28.41-63.46-63.46 28.41-63.46 63.46-63.46Zm273.36-107.39H238.64c-8.09 0-14.64 6.56-14.64 14.64v312.41c0 8.09 6.56 14.64 14.64 14.64h546.71c8.09 0 14.64-6.56 14.64-14.64V355.8c0-8.09-6.56-14.64-14.64-14.64ZM253.29 465.2c46.28-12.31 82.43-48.46 94.75-94.75h327.93c12.31 46.28 48.46 82.43 94.75 94.75v93.62c-46.28 12.31-82.43 48.46-94.75 94.75H348.04c-12.31-46.28-48.46-82.43-94.75-94.75V465.2Zm517.42-30.58a104.475 104.475 0 0 1-64.17-64.17h64.17v64.17Zm-453.26-64.17a104.475 104.475 0 0 1-64.17 64.17v-64.17h64.17ZM253.28 589.4a104.475 104.475 0 0 1 64.17 64.17h-64.17V589.4Zm453.26 64.17a104.475 104.475 0 0 1 64.17-64.17v64.17h-64.17Z" style="fill:#fff"/>
</svg>
