<svg xmlns="http://www.w3.org/2000/svg" viewBox="0 0 1024 1024">
   <circle cx="512" cy="512" r="512" style="fill:#6750a4"/>
   <path d="M512 240c-150.22 0-272 121.78-272 272s121.78 272 272 272 272-121.78 272-272-121.78-272-272-272ZM342.32 342.32C387.64 297 447.9 272.04 512 272.04S636.36 297 681.68 342.32C727 387.64 751.96 447.9 751.96 512c0 21.13-2.73 41.85-7.99 61.75H627.23V462.06c0-6.51-3.94-12.38-9.97-14.83a16.008 16.008 0 0 0-17.5 3.64l-87.82 89.87-88.71-89.93a16 16 0 0 0-17.48-3.57 16.026 16.026 0 0 0-9.94 14.82v111.69H280.03c-5.26-19.9-7.99-40.61-7.99-61.75 0-64.1 24.96-124.36 70.28-169.68Zm339.36 339.36C636.36 727 576.1 751.96 512 751.96S387.64 727 342.32 681.68c-22.16-22.16-39.44-47.9-51.32-75.9h120.83c8.85 0 16.02-7.17 16.02-16.02V501.1l72.75 73.75c3.01 3.05 7.12 4.77 11.4 4.77h.04c4.3-.01 8.41-1.75 11.42-4.82l71.75-73.43v88.4c0 8.85 7.17 16.02 16.02 16.02h121.78c-11.89 28-29.16 53.74-51.32 75.9Z" style="fill:#fff"/>
</svg>
