<svg xmlns="http://www.w3.org/2000/svg" viewBox="0 0 1024 1024">
   <circle cx="512" cy="512" r="512" style="fill:#6750a4"/>
   <path d="M512 224c-159.06 0-288 128.94-288 288s128.94 288 288 288 288-128.94 288-288-128.94-288-288-288ZM332.34 332.34c47.99-47.99 111.8-74.42 179.66-74.42s131.67 26.43 179.66 74.42c47.99 47.99 74.42 111.8 74.42 179.66 0 22.38-2.89 44.31-8.46 65.38h-123.6V459.12a16.962 16.962 0 0 0-29.09-11.86l-92.99 95.16-93.93-95.22c-4.83-4.9-12.15-6.4-18.51-3.78a16.949 16.949 0 0 0-10.52 15.69v118.26H266.39c-5.57-21.07-8.46-43-8.46-65.38 0-67.87 26.43-131.67 74.42-179.66Zm359.33 359.33c-47.99 47.99-111.8 74.42-179.66 74.42s-131.67-26.43-179.66-74.42c-23.46-23.46-41.76-50.71-54.34-80.36h127.94c9.37 0 16.96-7.59 16.96-16.96v-93.88l77.03 78.08c3.19 3.23 7.54 5.05 12.07 5.05h.04c4.55-.01 8.91-1.85 12.09-5.11l75.97-77.75v93.6c0 9.37 7.59 16.96 16.96 16.96h128.95c-12.59 29.65-30.88 56.9-54.34 80.36Z" style="fill:#fff"/>
</svg>
