<svg xmlns="http://www.w3.org/2000/svg" viewBox="0 0 1024 1024">
   <circle cx="512" cy="512" r="512" style="fill:#6750a4"/>
   <path d="M512 227c-157.14 0-285 127.86-285 285s127.86 285 285 285 285-127.86 285-285-127.86-285-285-285Zm0 43.85C645 270.85 753.15 379 753.15 512a240 240 0 0 1-7.75 59.56H637.89V459.68a21.93 21.93 0 0 0-37.61-15.33l-88.35 90.43-89.29-90.5a21.92 21.92 0 0 0-37.52 15.4v111.88H278.6a240 240 0 0 1-7.75-59.56C270.85 379 379 270.85 512 270.85Zm0 482.31c-95.93 0-178.71-56.45-217.53-137.75H407a21.93 21.93 0 0 0 22-21.93v-80.37l67.44 68.35A21.92 21.92 0 0 0 512 588h.06a22 22 0 0 0 15.63-6.59L594 513.48v80a21.93 21.93 0 0 0 22 21.93h113.53C690.71 696.7 607.93 753.15 512 753.15Z" data-name="Monero symbol in 'Phosphor Icons' style by krisu" style="fill:#fff"/>
</svg>
