<svg xmlns="http://www.w3.org/2000/svg" viewBox="0 0 1024 1024">
   <circle cx="512" cy="512" r="512" style="fill:#6750a4"/>
   <path d="M769.8 334.62H253.17a37.73 37.73 0 0 0-37.69 37.69v278.18a37.73 37.73 0 0 0 37.69 37.69H769.8a37.73 37.73 0 0 0 37.69-37.69V372.31a37.73 37.73 0 0 0-37.69-37.69ZM399 652.54 251.12 523.19v-23.57L399 370.26h225l147.85 129.36v23.57L624 652.54Zm372.85-280.23v80l-93.71-82h91.66a2.05 2.05 0 0 1 2.05 2Zm-518.67-2.05h91.66l-93.72 82v-80a2.05 2.05 0 0 1 2.05-2Zm-2.05 280.23v-80l93.72 82h-91.68a2.05 2.05 0 0 1-2.05-2Zm518.67 2.05h-91.67l93.72-82v80a2.05 2.05 0 0 1-2.05 2ZM511.49 414.1a97.3 97.3 0 1 0 97.3 97.3 97.41 97.41 0 0 0-97.3-97.3Zm0 159a61.66 61.66 0 1 1 61.66-61.66 61.73 61.73 0 0 1-61.66 61.62Z" style="fill:#fff"/>
</svg>
