<svg xmlns="http://www.w3.org/2000/svg" viewBox="0 0 1024 1024">
   <circle cx="512" cy="512" r="512" style="fill:#6750a4"/>
   <path d="M772.93 333.43H251.07A38.11 38.11 0 0 0 213 371.5v281a38.11 38.11 0 0 0 38.07 38.07h521.86A38.11 38.11 0 0 0 811 652.5v-281a38.11 38.11 0 0 0-38.07-38.07Zm-374.6 321.14L249 523.9v-23.8l149.33-130.67h227.34L775 500.1v23.8L625.67 654.57ZM775 371.5v80.76l-94.66-82.83h92.59a2.07 2.07 0 0 1 2.07 2.07Zm-523.93-2.07h92.59L249 452.26V371.5a2.07 2.07 0 0 1 2.07-2.07ZM249 652.5v-80.76l94.67 82.83h-92.6a2.07 2.07 0 0 1-2.07-2.07Zm523.93 2.07h-92.6L775 571.74v80.76a2.07 2.07 0 0 1-2.07 2.07ZM512 413.71A98.29 98.29 0 1 0 610.29 512 98.4 98.4 0 0 0 512 413.71Zm0 160.57A62.29 62.29 0 1 1 574.29 512 62.36 62.36 0 0 1 512 574.29Z" style="fill:#fff"/>
</svg>
