<svg xmlns="http://www.w3.org/2000/svg" viewBox="0 0 1024 1024">
   <circle cx="512" cy="512" r="512" style="fill:#6750a4"/>
   <path d="M771.62 334.32H252.38a37.92 37.92 0 0 0-37.88 37.88v279.6a37.92 37.92 0 0 0 37.88 37.88h519.24a37.92 37.92 0 0 0 37.88-37.88V372.2a37.92 37.92 0 0 0-37.88-37.88ZM398.9 653.86l-148.58-130v-23.7l148.59-130h226.18l148.59 130v23.69l-148.59 130ZM773.68 372.2v80.36l-94.19-82.42h92.13a2.06 2.06 0 0 1 2.06 2.06Zm-521.3-2.06h92.13l-94.19 82.42V372.2a2.06 2.06 0 0 1 2.06-2.06Zm-2.06 281.66v-80.36l94.19 82.42h-92.13a2.06 2.06 0 0 1-2.06-2.06Zm521.3 2.06h-92.13l94.19-82.42v80.36a2.06 2.06 0 0 1-2.06 2.06ZM512 414.21A97.79 97.79 0 1 0 609.79 512 97.9 97.9 0 0 0 512 414.21ZM512 574a62 62 0 1 1 62-62 62 62 0 0 1-62 62Z" style="fill:#fff"/>
</svg>
