<svg xmlns="http://www.w3.org/2000/svg" viewBox="0 0 1024 1024">
   <circle cx="512" cy="512" r="512" style="fill:#6750a4"/>
   <path d="M723.37 246.2a19.84 19.84 0 0 0-17-3.61L388.7 322a19.85 19.85 0 0 0-15 19.26v273.16a89.31 89.31 0 1 0 39.7 74.24V475.87l277.9-69.48V535a89.31 89.31 0 1 0 39.7 74.26V261.85a19.85 19.85 0 0 0-7.63-15.65ZM324 738.3a49.63 49.63 0 1 1 49.63-49.63A49.69 49.69 0 0 1 324 738.3Zm89.33-303.35v-78.19l277.97-69.48v78.19Zm228.3 223.94a49.63 49.63 0 1 1 49.63-49.63 49.68 49.68 0 0 1-49.59 49.63Z" style="fill:#fff"/>
</svg>
