<svg xmlns="http://www.w3.org/2000/svg" viewBox="0 0 1024 1024">
   <circle cx="512" cy="512" r="512" style="fill:#6750a4"/>
   <path d="M708.84 258.97c-3.41-2.66-7.85-3.6-12.05-2.55l-299.42 74.86a14.043 14.043 0 0 0-10.62 13.61v266.93c-33.49-28.42-83.68-24.31-112.1 9.18-28.42 33.49-24.31 83.68 9.18 112.1 33.49 28.42 83.68 24.31 112.1-9.18a79.484 79.484 0 0 0 18.89-51.54V468.12l271.35-67.84v136.68c-33.49-28.42-83.68-24.31-112.1 9.18-28.42 33.49-24.31 83.68 9.18 112.1 33.49 28.42 83.68 24.31 112.1-9.18a79.484 79.484 0 0 0 18.89-51.54v-327.5c0-4.32-1.99-8.41-5.4-11.06ZM335.29 723.85c-28.42 0-51.46-23.04-51.46-51.46s23.04-51.46 51.46-51.46 51.46 23.04 51.46 51.46-23.04 51.46-51.46 51.46Zm79.53-284.64v-83.37L686.17 288v83.37l-271.35 67.84Zm219.89 209.78c-28.42 0-51.46-23.04-51.46-51.46s23.04-51.46 51.46-51.46 51.46 23.04 51.46 51.46-23.04 51.46-51.46 51.46Z" style="fill:#fff"/>
</svg>
