<svg xmlns="http://www.w3.org/2000/svg" viewBox="0 0 1024 1024">
   <circle cx="512" cy="512" r="512" style="fill:#6750a4"/>
   <path d="M421 432.83A19.79 19.79 0 0 1 440.83 413h158.34a19.79 19.79 0 1 1 0 39.58H440.83A19.79 19.79 0 0 1 421 432.83Zm19.79 99h158.38a19.79 19.79 0 1 0 0-39.58H440.83a19.79 19.79 0 0 0 0 39.58ZM520 571.37h-79.17a19.79 19.79 0 0 0 0 39.58H520a19.79 19.79 0 1 0 0-39.58Zm234.27 27.34-.2.44a39.37 39.37 0 0 1-8 11.66L618.85 738a39.48 39.48 0 0 1-11.51 8l-.71.31a39.2 39.2 0 0 1-15.56 3.2h-269a39.63 39.63 0 0 1-39.58-39.58V314.08a39.63 39.63 0 0 1 39.58-39.58h395.85a39.63 39.63 0 0 1 39.58 39.58V583a39 39 0 0 1-3.23 15.71ZM322.08 709.92h257.29V591.17a19.79 19.79 0 0 1 19.79-19.79h118.76v-257.3H322.08ZM619 611v71l71-71Z" style="fill:#fff"/>
</svg>
