<svg xmlns="http://www.w3.org/2000/svg" viewBox="0 0 1024 1024">
   <circle cx="512" cy="512" r="512" style="fill:#6750a4"/>
   <path d="M430.98 430.3c0-8.46 6.86-15.32 15.32-15.32h163.4c8.46 0 15.32 6.86 15.32 15.32s-6.86 15.32-15.32 15.32H446.3c-8.46 0-15.32-6.86-15.32-15.32Zm15.32 97.02h163.4c8.46 0 15.32-6.86 15.32-15.32s-6.86-15.32-15.32-15.32H446.3c-8.46 0-15.32 6.86-15.32 15.32s6.86 15.32 15.32 15.32Zm81.7 51.06h-81.7c-8.46 0-15.32 6.86-15.32 15.32s6.86 15.32 15.32 15.32H528c8.46 0 15.32-6.86 15.32-15.32s-6.86-15.32-15.32-15.32Zm240-270.64v277.51c.02 9.48-3.75 18.58-10.47 25.28l-131 131A35.563 35.563 0 0 1 601.25 752H323.74C304 752 288 736 288 716.26V307.75c0-19.74 16-35.74 35.74-35.74h408.51c19.74 0 35.74 16 35.74 35.74ZM323.74 721.36h270.64V593.7c0-8.46 6.86-15.32 15.32-15.32h127.66V307.74c0-2.82-2.29-5.11-5.11-5.11H323.74c-2.82 0-5.11 2.29-5.11 5.11v408.51c0 2.82 2.29 5.11 5.11 5.11Zm391.97-112.34h-90.69v90.69l90.69-90.69Z" style="fill:#fff"/>
</svg>
