<svg xmlns="http://www.w3.org/2000/svg" viewBox="0 0 1024 1024">
   <circle data-name="Background (DON'T CHANGE COLOR)" cx="512" cy="512" r="512" style="fill:#607d8b"/>
   <path d="M614.4 563.2H409.6a25.6 25.6 0 0 0 0 51.2h204.8a25.6 25.6 0 1 0 0-51.2zm0-102.4H460.8a25.6 25.6 0 1 0 0 51.2h153.6a25.6 25.6 0 1 0 0-51.2zm102.4-153.6H640v-25.6a25.6 25.6 0 0 0-51.2 0v25.6h-51.2v-25.6a25.6 25.6 0 1 0-51.2 0v25.6h-51.2v-25.6a25.6 25.6 0 1 0-51.2 0v25.6h-76.8a25.6 25.6 0 0 0-25.6 25.6v358.4a76.8 76.8 0 0 0 76.8 76.8h307.2a76.8 76.8 0 0 0 76.8-76.8V332.8a25.6 25.6 0 0 0-25.6-25.6zm-25.6 384a25.6 25.6 0 0 1-25.6 25.6H358.4a25.6 25.6 0 0 1-25.6-25.6V358.4H384V384a25.6 25.6 0 0 0 51.2 0v-25.6h51.2V384a25.6 25.6 0 0 0 51.2 0v-25.6h51.2V384a25.6 25.6 0 0 0 51.2 0v-25.6h51.2z" style="fill:#fff"/>
</svg>
