<svg xmlns="http://www.w3.org/2000/svg" viewBox="0 0 1024 1024">
   <circle cx="512" cy="512" r="512" style="fill:#6750a4"/>
   <path d="M738 591H611.84a30.05 30.05 0 0 0-30 30v88.33a30.05 30.05 0 0 0 30 30H738a30.05 30.05 0 0 0 30-30V621a30.05 30.05 0 0 0-30-30Zm-4.89 113.45H616.73v-78.52h116.36Zm-14.55 62.38a17.46 17.46 0 0 1-17.45 17.45h-52.38a17.45 17.45 0 0 1 0-34.91h52.36a17.46 17.46 0 0 1 17.46 17.48ZM412.16 591H286a30.05 30.05 0 0 0-30 30v88.33a30.05 30.05 0 0 0 30 30h126.16a30.05 30.05 0 0 0 30-30V621a30.05 30.05 0 0 0-30-30Zm-4.89 113.45H290.91v-78.52h116.36Zm-14.55 62.38a17.46 17.46 0 0 1-17.45 17.45h-52.36a17.45 17.45 0 0 1 0-34.91h52.36a17.46 17.46 0 0 1 17.46 17.48ZM738 265.2H611.84a30.05 30.05 0 0 0-30 30v88.33a30.05 30.05 0 0 0 30 30H738a30.05 30.05 0 0 0 30-30v-88.31a30.05 30.05 0 0 0-30-30.02Zm-4.89 113.45H616.73v-78.54h116.36Zm-84.36 79.83a17.45 17.45 0 0 1 0-34.91h52.36a17.45 17.45 0 0 1 0 34.91ZM286 413.56h126.16a30.05 30.05 0 0 0 30-30v-88.34a30.05 30.05 0 0 0-30-30H286a30.05 30.05 0 0 0-30 30v88.33a30.05 30.05 0 0 0 30 30.01Zm4.89-113.45h116.38v78.55H290.91Zm84.36 123.47a17.45 17.45 0 0 1 0 34.91h-52.34a17.45 17.45 0 0 1 0-34.91Zm213.07 155a17.45 17.45 0 0 1-24.68 0L512 526.91l-51.66 51.66a17.45 17.45 0 0 1-24.68-24.68l51.66-51.66-51.66-51.66a17.45 17.45 0 0 1 24.68-24.68L512 477.55l51.66-51.66a17.45 17.45 0 1 1 24.68 24.68l-51.66 51.66 51.66 51.66a17.45 17.45 0 0 1 0 24.68Z" style="fill:#fff"/>
</svg>
