<svg xmlns="http://www.w3.org/2000/svg" viewBox="0 0 1024 1024">
   <circle cx="512" cy="512" r="512" style="fill:#6750a4"/>
   <path d="M736 590.43H611a29.79 29.79 0 0 0-29.76 29.76v87.55A29.79 29.79 0 0 0 611 737.48h125a29.79 29.79 0 0 0 29.76-29.75v-87.54A29.79 29.79 0 0 0 736 590.43Zm-4.84 112.45H615.8V625h115.33Zm-14.45 61.82a17.3 17.3 0 0 1-17.3 17.3h-51.9a17.3 17.3 0 0 1 0-34.6h51.9a17.3 17.3 0 0 1 17.3 17.3ZM413 590.43H288a29.79 29.79 0 0 0-29.76 29.76v87.55A29.79 29.79 0 0 0 288 737.48h125a29.79 29.79 0 0 0 29.76-29.75v-87.54A29.79 29.79 0 0 0 413 590.43Zm-4.8 112.45H292.87V625H408.2Zm-14.42 61.82a17.3 17.3 0 0 1-17.3 17.3h-51.9a17.3 17.3 0 1 1 0-34.6h51.9a17.3 17.3 0 0 1 17.3 17.3ZM736 267.5H611a29.79 29.79 0 0 0-29.76 29.76v87.54A29.79 29.79 0 0 0 611 414.55h125a29.79 29.79 0 0 0 29.76-29.75v-87.54A29.79 29.79 0 0 0 736 267.5Zm-4.84 112.45H615.8V302.1h115.33Zm-83.62 79.12a17.3 17.3 0 0 1 0-34.6h51.9a17.3 17.3 0 0 1 0 34.6ZM288 414.55h125a29.79 29.79 0 0 0 29.8-29.75v-87.54A29.79 29.79 0 0 0 413 267.5H288a29.79 29.79 0 0 0-29.76 29.76v87.54A29.79 29.79 0 0 0 288 414.55Zm4.84-112.45H408.2v77.85H292.87Zm83.62 122.37a17.3 17.3 0 0 1 0 34.6h-51.9a17.3 17.3 0 0 1 0-34.6Zm211.2 153.63a17.29 17.29 0 0 1-24.46 0L512 526.9l-51.2 51.2a17.3 17.3 0 0 1-24.46-24.46l51.2-51.2-51.2-51.2a17.3 17.3 0 0 1 24.46-24.46L512 478l51.2-51.2a17.3 17.3 0 1 1 24.46 24.46l-51.2 51.2 51.2 51.2a17.29 17.29 0 0 1 0 24.44Z" style="fill:#fff"/>
</svg>
