<svg xmlns="http://www.w3.org/2000/svg" viewBox="0 0 1024 1024">
   <circle cx="512" cy="512" r="512" style="fill:#6750a4"/>
   <path d="m666.09 464.1 78.62-73.97.34-.34c30.6-30.6 30.6-80.22 0-110.82-30.6-30.6-80.22-30.6-110.82 0l-.34.34-73.97 78.62-220.18-80.05a15.669 15.669 0 0 0-16.43 3.63l-62.68 62.68c-6.14 6.1-6.18 16.02-.09 22.16.75.76 1.58 1.43 2.46 2.02l172.17 114.76-44.58 44.56h-56.21c-4.15 0-8.14 1.66-11.07 4.6l-62.68 62.68c-6.13 6.11-6.15 16.03-.05 22.16a15.7 15.7 0 0 0 5.27 3.49l98.26 39.18 39.18 98.1v.31c3.29 7.98 12.41 11.79 20.4 8.54 2.04-.83 3.89-2.08 5.41-3.68l62.45-62.45c2.99-2.89 4.71-6.84 4.78-11v-56.21l44.58-44.58L655.65 761c4.81 7.2 14.54 9.13 21.74 4.32.85-.57 1.65-1.22 2.37-1.95l62.68-62.68c4.3-4.31 5.71-10.71 3.63-16.43L666.1 464.08Zm5.07 263.61L556.4 555.54c-2.61-3.9-6.82-6.43-11.49-6.9h-1.54c-4.15 0-8.14 1.66-11.07 4.6l-62.68 62.68c-2.94 2.92-4.6 6.88-4.62 11.02v56.21l-41.27 41.27-32.99-82.4a15.683 15.683 0 0 0-8.72-8.75l-82.4-32.96 41.29-41.27h56.18c4.16 0 8.16-1.65 11.1-4.6l62.68-62.68c6.11-6.13 6.1-16.05-.03-22.16-.73-.72-1.52-1.38-2.38-1.95L296.31 352.86l42.1-42.13L559 390.91c5.89 2.14 12.48.57 16.77-4l80.97-85.93c19.33-17.33 49.06-15.7 66.39 3.63 16.04 17.9 16 45.02-.1 62.87l-85.93 80.97a15.693 15.693 0 0 0-4 16.77l80.18 220.46-42.13 42.02Z" style="fill:#fff"/>
</svg>
