<svg xmlns="http://www.w3.org/2000/svg" viewBox="0 0 1024 1024">
   <circle cx="512" cy="512" r="512" style="fill:#6750a4"/>
   <path d="M676.44 708.27H411.18a123.48 123.48 0 0 0 28.43-78.94v-90.22h101.5a22.55 22.55 0 1 0 0-45.11h-101.5V381.23a101.63 101.63 0 0 1 101.59-101.5 100.57 100.57 0 0 1 71.56 29.68 22.56 22.56 0 0 0 32.06-31.73 146 146 0 0 0-103.12-43.06h-.59c-80.84 0-146.61 65.77-146.61 146.61V494h-78.94a22.55 22.55 0 0 0 0 45.11h78.94v90.22a79 79 0 0 1-78.94 78.94 22.55 22.55 0 0 0 0 45.11h360.88a22.55 22.55 0 0 0 0-45.11Z" style="fill:#fff"/>
</svg>
