<svg xmlns="http://www.w3.org/2000/svg" viewBox="0 0 1024 1024">
   <circle cx="512" cy="512" r="512" style="fill:#6750a4"/>
   <path d="M684 735.61c0 9.37-7.6 16.97-16.97 16.97H304.97c-9.37 0-16.97-7.6-16.97-16.97s7.6-16.97 16.97-16.97h11.31c46.87 0 84.86-37.99 84.86-84.86V526.29h-96.17c-9.37 0-16.97-7.6-16.97-16.97s7.6-16.97 16.97-16.97h96.17V384.86c0-78.11 63.31-141.43 141.42-141.44 32.84 0 64.65 11.42 89.99 32.31 7.23 5.97 8.26 16.67 2.29 23.9-5.97 7.23-16.67 8.26-23.9 2.29-45.81-37.76-113.55-31.23-151.31 14.57a107.462 107.462 0 0 0-24.54 68.36v107.49h96.17c9.37 0 16.97 7.6 16.97 16.97s-7.6 16.97-16.97 16.97h-96.17v107.49c.02 31.95-12.86 62.55-35.72 84.86h267.67c9.37 0 16.97 7.6 16.97 16.97Z" style="fill:#fff"/>
</svg>
