<svg xmlns="http://www.w3.org/2000/svg" viewBox="0 0 1024 1024">
   <circle cx="512" cy="512" r="512" style="fill:#6750a4"/>
   <path d="M679.65 712.09h-270a125.68 125.68 0 0 0 28.93-80.35v-91.83h103.3a23 23 0 1 0 0-45.91H438.61V379.22A103.44 103.44 0 0 1 542 275.91a102.37 102.37 0 0 1 72.83 30.21 23 23 0 0 0 32.63-32.3 148.62 148.62 0 0 0-105-43.83h-.6c-82.28 0-149.22 66.94-149.22 149.22V494h-80.29a23 23 0 1 0 0 45.91h80.35v91.83a80.44 80.44 0 0 1-80.35 80.35 23 23 0 0 0 0 45.91h367.3a23 23 0 0 0 0-45.91Z" style="fill:#fff"/>
</svg>
