<svg xmlns="http://www.w3.org/2000/svg" viewBox="0 0 1024 1024">
   <circle cx="512" cy="512" r="512" style="fill:#6750a4"/>
   <path d="M512 224c-159.06 0-288 128.94-288 288s128.94 288 288 288 288-128.94 288-288c-.19-158.98-129.02-287.81-288-288Zm0 542.12c-140.35 0-254.12-113.77-254.12-254.12S371.65 257.88 512 257.88 766.12 371.65 766.12 512C765.96 652.28 652.28 765.96 512 766.12Zm107.29-299.29c0-59.26-48.04-107.29-107.3-107.29S404.7 407.58 404.7 466.84c0 29.74 12.34 58.14 34.08 78.43L406.7 625.8c-5.77 14.49 1.3 30.91 15.78 36.68a28.3 28.3 0 0 0 10.45 2h158.12c15.59 0 28.23-12.64 28.23-28.24 0-3.58-.68-7.12-2-10.45l-32.08-80.53a107.706 107.706 0 0 0 34.08-78.44Zm-64.32 59.52a16.95 16.95 0 0 0-5.82 19.99l33.57 84.25H441.4l33.57-84.25c2.87-7.21.47-15.45-5.82-19.99-32.87-23.73-40.28-69.62-16.54-102.49 23.73-32.87 69.62-40.28 102.49-16.54 32.87 23.73 40.28 69.62 16.54 102.49a73.33 73.33 0 0 1-16.54 16.54h-.14Z" style="fill:#fff"/>
</svg>
