<svg xmlns="http://www.w3.org/2000/svg" viewBox="0 0 1024 1024">
   <circle cx="512" cy="512" r="512" style="fill:#6750a4"/>
   <path d="M512 797c-157.16 0-285-127.86-285-285s127.84-285 285-285 285 127.84 285 285-127.84 285-285 285Zm0-526.19C379 270.83 270.83 379 270.83 512S379 753.17 512 753.17 753.17 645 753.17 512 645 270.83 512 270.83Zm-54.54 394.66a43.85 43.85 0 0 1-40.1-61.39l30.72-71.69a98.62 98.62 0 1 1 127.84 0l30.77 71.8a43.85 43.85 0 0 1-40.07 61.26Zm54.46-263.08a54.83 54.83 0 0 0-26.16 103 21.92 21.92 0 0 1 9.66 27.89l-37.82 88.25 108.93.13-38-88.38a21.92 21.92 0 0 1 9.66-27.89 54.81 54.81 0 0 0-10.75-100.71 55.06 55.06 0 0 0-15.51-2.29Z" style="fill:#fff"/>
</svg>
