<svg xmlns="http://www.w3.org/2000/svg" viewBox="0 0 1024 1024">
   <circle cx="512" cy="512" r="512" style="fill:#607d8b"/>
   <path d="M512 517.4c-20.1-.2-36.5 15.8-36.7 35.9-.1 10.6 4.4 20.7 12.4 27.7v33.9c0 13.5 10.9 24.4 24.4 24.4 13.5 0 24.4-10.9 24.4-24.4V581c15.1-13.2 16.6-36.2 3.4-51.3-7.2-7.9-17.3-12.4-27.9-12.3zm121.9-97.5v-48.8c0-67.3-54.6-121.9-121.9-121.9s-121.9 54.6-121.9 121.9v48.8c-40.4 0-73.1 32.7-73.1 73.1v170.6c0 40.4 32.7 73.1 73.1 73.1h243.8c40.4 0 73.1-32.7 73.1-73.1V493c0-40.4-32.7-73.1-73.1-73.1zm-195-48.8c0-40.4 32.7-73.1 73.1-73.1s73.1 32.7 73.1 73.1v48.8H438.9v-48.8zm219.4 292.5c0 13.5-10.9 24.4-24.4 24.4H390.1c-13.5 0-24.4-10.9-24.4-24.4V493c0-13.5 10.9-24.4 24.4-24.4h243.8c13.5 0 24.4 10.9 24.4 24.4v170.6z" style="fill:#fff"/>
</svg>
