<svg xmlns="http://www.w3.org/2000/svg" viewBox="0 0 1024 1024">
   <circle cx="512" cy="512" r="512" style="fill:#6750a4"/>
   <path d="M502.09 717a20.45 20.45 0 0 1-20.45-20.45c0-79-64.23-143.18-143.18-143.18a20.45 20.45 0 1 1 0-40.91C440 512.45 522.55 595 522.55 696.55A20.45 20.45 0 0 1 502.09 717Zm143.18-20.45a306.82 306.82 0 0 0-306.82-306.82 20.45 20.45 0 1 0 0 40.91c146.62 0 265.91 119.29 265.91 265.91a20.45 20.45 0 0 0 40.91 0Zm122.73 0A429.16 429.16 0 0 0 339.24 267h-.82a20.45 20.45 0 0 0 0 40.91c102.35-.21 202.45 41.32 274.71 114a388.84 388.84 0 0 1 113.96 274.6A20.45 20.45 0 0 0 747.51 717 20.45 20.45 0 0 0 768 696.58Zm-419.32-47.8a37.57 37.57 0 1 0 37.57 37.57 37.61 37.61 0 0 0-37.57-37.57Z" style="fill:#fff"/>
</svg>
