<svg xmlns="http://www.w3.org/2000/svg" viewBox="0 0 1024 1024">
   <circle cx="512" cy="512" r="512" style="fill:#6750a4"/>
   <path d="M501 718a20.55 20.55 0 0 1-20.55-20.55c0-79.32-64.53-143.84-143.84-143.84a20.55 20.55 0 0 1 0-41.1c102 0 184.94 83 184.94 184.94A20.55 20.55 0 0 1 501 718Zm143.84-20.55a308.24 308.24 0 0 0-308.26-308.21 20.55 20.55 0 0 0 0 41.1c147.3 0 267.14 119.84 267.14 267.14a20.55 20.55 0 0 0 41.1 0Zm123.29 0a431.15 431.15 0 0 0-430.76-431.51h-.82a20.55 20.55 0 0 0 0 41.1c102.82-.21 203.39 41.51 276 114.49C685.51 494 727.21 594.61 727 697.44A20.55 20.55 0 0 0 747.52 718a20.55 20.55 0 0 0 20.59-20.49Zm-421.27-47.99a37.74 37.74 0 1 0 37.74 37.74 37.78 37.78 0 0 0-37.74-37.74Z" style="fill:#fff"/>
</svg>
