<svg xmlns="http://www.w3.org/2000/svg" viewBox="0 0 1024 1024">
   <circle cx="512" cy="512" r="512" style="fill:#6750a4"/>
   <path d="M459.14 564.86a184.334 184.334 0 0 1 54.35 131.23c0 8.79-7.12 15.91-15.91 15.91s-15.91-7.12-15.91-15.91c0-84.92-68.84-153.77-153.77-153.77-8.79 0-15.91-7.12-15.91-15.91s7.12-15.91 15.91-15.91c49.25-.14 96.5 19.43 131.23 54.35Zm-131.23-181.6c-8.79 0-15.91 7.12-15.91 15.91s7.12 15.91 15.91 15.91c155.2 0 281.02 125.82 281.02 281.02 0 8.79 7.12 15.91 15.91 15.91s15.91-7.12 15.91-15.91c0-172.77-140.06-312.84-312.84-312.84Zm311.19 1.64A437.217 437.217 0 0 0 327.91 256c-8.79 0-15.91 7.12-15.91 15.91s7.12 15.91 15.91 15.91a405.617 405.617 0 0 1 288.68 119.59 405.61 405.61 0 0 1 119.59 288.68c0 8.79 7.12 15.91 15.91 15.91S768 704.88 768 696.09A437.217 437.217 0 0 0 639.1 384.9ZM345 646c-18.23 0-33 14.77-33 33s14.77 33 33 33 33-14.77 33-33-14.77-33-33-33Z" style="fill:#fff"/>
</svg>
