<svg xmlns="http://www.w3.org/2000/svg" viewBox="0 0 1024 1024">
   <circle cx="512" cy="512" r="512" style="fill:#607d8b"/>
   <path d="M706.6 325.1c-6-4.9-13.9-6.7-21.4-5.1-55.1 11.5-112.5-.2-158.6-32.4-8.7-6.1-20.3-6.1-29.1 0-46.1 32.2-103.5 43.9-158.6 32.4-7.5-1.6-15.4.2-21.4 5.1-6 4.9-9.5 12.2-9.4 19.9v190c0 74.2 35.8 143.8 96.1 186.9l93.1 66.3c8.9 6.3 20.7 6.3 29.6 0l93.1-66.3c60.2-43.1 96-112.7 96-186.9V345c0-7.7-3.4-15-9.4-19.9zM665 535c0 57.7-27.8 111.8-74.7 145.3L512 736.2l-78.3-55.8C386.8 646.8 359 592.7 359 535V374.3c53.5 4.6 107-7.8 153-35.4 46 27.6 99.5 40 153 35.4V535z" style="fill:#fff"/>
</svg>
