<svg xmlns="http://www.w3.org/2000/svg" viewBox="0 0 1024 1024">
   <circle cx="512" cy="512" r="512" style="fill:#6750a4"/>
   <path d="M714.47 288H309.53c-19.57 0-35.43 15.86-35.43 35.43v148.74c0 223.32 189.01 297.43 226.89 310.01a34.168 34.168 0 0 0 22.02 0c37.96-12.65 226.89-86.68 226.89-310.01V323.43c0-19.57-15.86-35.43-35.43-35.43ZM513.42 753.4c-.91.35-1.92.35-2.83 0-23.94-7.95-114.24-43.02-167.04-131.61L512 503.93l168.45 117.91c-52.79 88.63-143.15 123.61-167.04 131.55Zm206.11-281.18c0 48.09-9.69 88.58-24.93 122.47L520.7 472.96a15.175 15.175 0 0 0-17.41 0l-173.9 121.73c-15.19-33.91-24.93-74.36-24.93-122.47V323.43c0-2.8 2.27-5.06 5.06-5.06h404.94c2.8 0 5.06 2.27 5.06 5.06v148.79Z" style="fill:#fff"/>
</svg>
