<svg xmlns="http://www.w3.org/2000/svg" viewBox="0 0 1024 1024">
   <circle cx="512" cy="512" r="512" style="fill:#6750a4"/>
   <path d="M710.35 288.15h-396.7A39.72 39.72 0 0 0 274 327.82v145.54c0 221.24 187 294.85 225.31 307.58a37.68 37.68 0 0 0 25.42 0C563 768.21 750 694.6 750 473.36V327.82a39.72 39.72 0 0 0-39.65-39.67Zm-396.7 39.67h396.7v145.54c0 43.84-8.41 81.05-21.8 112.56L523.38 470.25a19.83 19.83 0 0 0-22.76 0L335.45 585.92c-13.38-31.51-21.8-68.72-21.8-112.56ZM512 743.36c-22.69-7.52-107-40.06-158.09-121.94L512 510.71l158.09 110.71C619 703.3 534.69 735.84 512 743.36Z" style="fill:#fff"/>
</svg>
