<svg xmlns="http://www.w3.org/2000/svg" viewBox="0 0 1024 1024">
   <circle cx="512" cy="512" r="512" style="fill:#6750a4"/>
   <path d="M711.15 287.15h-398.3A39.88 39.88 0 0 0 273 327v146.1c0 51.12 10.17 98.37 30.22 140.46 16.55 34.74 39.89 66.11 69.37 93.23 50.67 46.63 105.23 68 126.63 75.14a37.87 37.87 0 0 0 25.51 0c21.4-7.11 76-28.51 126.63-75.14 29.48-27.13 52.82-58.5 69.37-93.24C740.81 571.48 751 524.22 751 473.1V327a39.88 39.88 0 0 0-39.85-39.85Zm0 186c0 195.21-165.8 260.05-199.15 271.1-33.35-11-199.15-75.88-199.15-271.1V327h398.3Zm-298.73 33.06a19.92 19.92 0 0 1 19.92-19.92h59.75v-59.74a19.92 19.92 0 0 1 39.83 0v59.75h59.75a19.92 19.92 0 0 1 0 39.83h-59.75v59.75a19.92 19.92 0 0 1-39.83 0v-59.75h-59.75a19.91 19.91 0 0 1-19.92-19.92Z" style="fill:#fff"/>
</svg>
