<svg xmlns="http://www.w3.org/2000/svg" viewBox="0 0 1024 1024">
   <circle cx="512" cy="512" r="512" style="fill:#6750a4"/>
   <path d="M710.35 288.15h-396.7A39.71 39.71 0 0 0 274 327.82v145.54c0 50.91 10.13 98 30.1 139.89a303.44 303.44 0 0 0 69.09 92.86c50.45 46.44 104.81 67.75 126.11 74.83a37.71 37.71 0 0 0 25.41 0c21.32-7.08 75.65-28.4 126.12-74.84 29.36-27 52.6-58.26 69.09-92.86 20-41.91 30.1-89 30.1-139.89V327.82a39.71 39.71 0 0 0-39.67-39.67Zm0 185.21c0 194.43-165.14 259-198.35 270-33.21-11-198.35-75.58-198.35-270V327.82h396.7Zm-297.52 33a19.84 19.84 0 0 1 19.83-19.83h59.5V427a19.83 19.83 0 0 1 39.67 0v59.5h59.5a19.83 19.83 0 0 1 0 39.67h-59.5v59.5a19.83 19.83 0 0 1-39.67 0v-59.5h-59.5a19.83 19.83 0 0 1-19.83-19.84Z" style="fill:#fff"/>
</svg>
