<svg xmlns="http://www.w3.org/2000/svg" viewBox="0 0 1024 1024">
   <circle cx="512" cy="512" r="512" style="fill:#6750a4"/>
   <path d="M716.26 537.53H307.75c-19.81 0-35.74 16.14-35.74 35.74v122.55a35.65 35.65 0 0 0 35.74 35.74h408.51c19.61 0 35.74-15.93 35.74-35.74V573.27c0-19.61-16.14-35.74-35.74-35.74Zm5.11 158.3c0 2.86-2.45 5.11-5.11 5.11H307.75c-2.86 0-5.11-2.25-5.11-5.11V573.28c0-2.86 2.25-5.11 5.11-5.11h408.51c2.66 0 5.11 2.25 5.11 5.11v122.55Zm-5.11-403.4H307.75c-19.81 0-35.74 16.14-35.74 35.74v122.55a35.65 35.65 0 0 0 35.74 35.74h408.51c19.61 0 35.74-15.93 35.74-35.74V328.17c0-19.61-16.14-35.74-35.74-35.74Zm5.11 158.3c0 2.86-2.45 5.11-5.11 5.11H307.75c-2.86 0-5.11-2.25-5.11-5.11V328.18c0-2.86 2.25-5.11 5.11-5.11h408.51c2.66 0 5.11 2.25 5.11 5.11v122.55Zm-51.06-61.28c0 14.09-11.44 25.53-25.53 25.53s-25.53-11.44-25.53-25.53 11.44-25.53 25.53-25.53 25.53 11.44 25.53 25.53Zm0 245.11c0 14.09-11.44 25.53-25.53 25.53s-25.53-11.44-25.53-25.53 11.44-25.53 25.53-25.53 25.53 11.44 25.53 25.53Zm-153.19 0c0 8.58-4.67 15.32-10.27 15.32H363.83c-5.6 0-10.12-6.74-10.12-15.32s4.51-15.32 10.12-15.32h143.02c5.6 0 10.27 6.94 10.27 15.32Zm0-245.11c0 8.58-4.67 15.32-10.27 15.32H363.83c-5.6 0-10.12-6.74-10.12-15.32s4.51-15.32 10.12-15.32h143.02c5.6 0 10.27 6.94 10.27 15.32Z" style="fill:#fff"/>
</svg>
