<svg xmlns="http://www.w3.org/2000/svg" viewBox="0 0 1024 1024">
   <circle cx="512" cy="512" r="512" style="fill:#6750a4"/>
   <path d="M715.9 736.29H308.1a40.83 40.83 0 0 1-40.78-40.78V573.17a40.83 40.83 0 0 1 40.78-40.78h407.8a40.83 40.83 0 0 1 40.78 40.78v122.34a40.83 40.83 0 0 1-40.78 40.78ZM308.1 573.17v122.34h407.8V573.17Zm336.44 35.68A25.49 25.49 0 1 1 619 634.34a25.49 25.49 0 0 1 25.54-25.49Zm-153.3 25.49A20.39 20.39 0 0 0 470.85 614h-96.29a20.39 20.39 0 1 0 0 40.78h96.29a20.39 20.39 0 0 0 20.39-20.44ZM715.9 491.61H308.1a40.83 40.83 0 0 1-40.78-40.78V328.49a40.83 40.83 0 0 1 40.78-40.78h407.8a40.83 40.83 0 0 1 40.78 40.78v122.34a40.83 40.83 0 0 1-40.78 40.78ZM308.1 328.49v122.34h407.8V328.49Zm336.44 35.68A25.49 25.49 0 1 1 619 389.66a25.49 25.49 0 0 1 25.54-25.49Zm-153.3 25.49a20.39 20.39 0 0 0-20.39-20.39h-96.29a20.39 20.39 0 1 0 0 40.78h96.29a20.39 20.39 0 0 0 20.39-20.39Z" style="fill:#fff"/>
</svg>
