<svg xmlns="http://www.w3.org/2000/svg" viewBox="0 0 1024 1024">
   <circle cx="512" cy="512" r="512" style="fill:#6750a4"/>
   <path d="M673.61 578.37a56.54 56.54 0 0 0 55.75-46.61l28.92-158.58a19 19 0 0 0-18.65-22.37H357.17l-11.55-63.52A38 38 0 0 0 308.46 256h-42.9a19 19 0 1 0 0 37.93l42.73.08 48.62 267.33a18.8 18.8 0 0 0 .48 2.66l16 88a66.4 66.4 0 1 0 103.74 21.23H603.9a66.34 66.34 0 1 0 61.82-37.83 19.21 19.21 0 0 0-1.94-.1H408.9l-10.35-56.89h275.06ZM445.7 701.63a28.44 28.44 0 1 1-28.44-28.44 28.48 28.48 0 0 1 28.44 28.44Zm246.52 0a28.44 28.44 0 1 1-28.44-28.44 28.48 28.48 0 0 1 28.44 28.44ZM364.07 388.74h352.82L692 525a18.71 18.71 0 0 1-18.49 15.43H391.66Z" style="fill:#fff"/>
</svg>
