<svg xmlns="http://www.w3.org/2000/svg" viewBox="0 0 1024 1024">
   <circle cx="512" cy="512" r="512" style="fill:#6750a4"/>
   <path d="M732.65 373.8a14.468 14.468 0 0 0-11.13-5.22H327.85l-12.49-68.83c-2.92-16.09-16.93-27.78-33.28-27.77h-43.59c-8 0-14.49 6.49-14.49 14.49s6.49 14.49 14.49 14.49h43.47a4.83 4.83 0 0 1 4.83 3.96l61.61 338.84a52.962 52.962 0 0 0 15.07 28.43c-27.08 21.66-31.48 61.18-9.82 88.26 21.66 27.08 61.18 31.48 88.26 9.82 25.09-20.06 30.98-55.83 13.67-82.88H581.7c-18.67 29.22-10.12 68.05 19.1 86.72s68.05 10.12 86.72-19.1 10.12-68.05-19.1-86.72a62.79 62.79 0 0 0-33.86-9.88H400.7c-11.67 0-21.68-8.34-23.76-19.83l-8.69-47.8h285.88c25.68 0 47.69-18.35 52.29-43.62l29.34-161.5c.77-4.22-.37-8.56-3.12-11.86ZM436.53 721.19c0 18.67-15.14 33.81-33.81 33.81s-33.81-15.14-33.81-33.81 15.14-33.81 33.81-33.81 33.81 15.14 33.81 33.81Zm231.85 0c0 18.67-15.14 33.81-33.81 33.81s-33.81-15.14-33.81-33.81 15.14-33.81 33.81-33.81 33.81 15.14 33.81 33.81Zm9.52-179.23c-2.09 11.48-12.09 19.83-23.76 19.83H363l-29.85-164.23h371.01l-26.25 144.4Z" style="fill:#fff"/>
</svg>
