<svg xmlns="http://www.w3.org/2000/svg" viewBox="0 0 1024 1024">
   <circle cx="512" cy="512" r="512" style="fill:#6750a4"/>
   <path d="M765.39 714.8A292.92 292.92 0 0 0 602 582.64 175.6 175.6 0 0 0 687.54 432c0-96.79-78.75-175.54-175.54-175.54S336.46 335.19 336.46 432a175.6 175.6 0 0 0 85.6 150.67A290.46 290.46 0 0 0 258.62 714.8a19.5 19.5 0 0 0 33.78 19.5 251.91 251.91 0 0 1 154-118.16 255.29 255.29 0 0 1 61.87-8.72c1.26 0 2.51.1 3.78.1.68 0 1.35 0 2-.05A253.69 253.69 0 0 1 731.6 734.3a19.5 19.5 0 1 0 33.78-19.5ZM375.47 432c0-75.28 61.25-136.53 136.53-136.53S648.53 356.7 648.53 432c0 74.56-60.09 135.32-134.38 136.48-2.06 0-4.11-.08-6.17 0-73.42-2.21-132.51-62.56-132.51-136.48Z" style="fill:#fff"/>
</svg>
