<svg xmlns="http://www.w3.org/2000/svg" viewBox="0 0 1024 1024">
   <circle cx="512" cy="512" r="512" style="fill:#6750a4"/>
   <path d="M765.92 715.25a293.54 293.54 0 0 0-163.76-132.44 176 176 0 0 0 85.75-151c0-97-78.91-175.91-175.91-175.91s-175.91 78.94-175.91 175.94a176 176 0 0 0 85.78 151 291.07 291.07 0 0 0-163.79 132.41 19.55 19.55 0 0 0 33.86 19.55 252.44 252.44 0 0 1 154.27-118.41 255.83 255.83 0 0 1 62-8.74c1.26 0 2.52.1 3.79.1.68 0 1.36 0 2-.05a254.23 254.23 0 0 1 218 127.1 19.55 19.55 0 0 0 33.86-19.55ZM375.18 431.84C375.18 356.39 436.56 295 512 295s136.82 61.38 136.82 136.82c0 74.72-60.21 135.6-134.66 136.77-2.06 0-4.12-.08-6.18 0-73.59-2.18-132.8-62.66-132.8-136.75Z" style="fill:#fff"/>
</svg>
