<svg xmlns="http://www.w3.org/2000/svg" viewBox="0 0 1024 1024">
   <circle cx="512" cy="512" r="512" style="fill:#6750a4"/>
   <path d="M767.74 712.7c-39.96-69.05-102.68-117.49-175.57-138.04 87.1-44.27 121.81-150.77 77.54-237.87-44.27-87.1-150.77-121.81-237.87-77.54-87.1 44.27-121.81 150.77-77.54 237.87a176.864 176.864 0 0 0 77.54 77.54c-72.89 20.52-135.62 68.97-175.57 138.04-4.49 7.07-2.41 16.44 4.66 20.93 7.07 4.49 16.44 2.41 20.93-4.66.23-.36.44-.73.64-1.11 48.55-83.88 134.33-133.95 229.51-133.95s180.96 50.07 229.51 133.95c3.88 7.42 13.04 10.29 20.47 6.41 7.42-3.88 10.29-13.04 6.41-20.47-.2-.38-.41-.75-.64-1.11ZM365.42 417c0-80.96 65.63-146.58 146.58-146.58S658.58 336.05 658.58 417 592.95 563.58 512 563.58c-80.92-.1-146.49-65.67-146.58-146.58Z" style="fill:#fff"/>
</svg>
