<svg xmlns="http://www.w3.org/2000/svg" viewBox="0 0 1024 1024">
   <circle cx="512" cy="512" r="512" style="fill:#6750a4"/>
   <path d="M792.21 382.78a18.85 18.85 0 0 0-18.81-.06L669.7 442v-14.66a94.32 94.32 0 0 0-94.21-94.21H274a37.73 37.73 0 0 0-37.68 37.68v226.11a94.32 94.32 0 0 0 94.21 94.21H632a37.73 37.73 0 0 0 37.68-37.68v-71.17l103.72 59.26a18.84 18.84 0 0 0 28.19-16.36v-226.1a18.84 18.84 0 0 0-9.38-16.3ZM632 653.45H330.54A56.59 56.59 0 0 1 274 596.92v-226.1h301.5a56.59 56.59 0 0 1 56.5 56.52Zm131.89-60.73-94.19-53.84v-53.5l94.21-53.83Z" style="fill:#fff"/>
</svg>
