<svg xmlns="http://www.w3.org/2000/svg" viewBox="0 0 1024 1024">
   <circle cx="512" cy="512" r="512" style="fill:#6750a4"/>
   <path d="M512 240c-150.22 0-272 121.78-272 272s121.78 272 272 272 272-121.78 272-272c-.18-150.15-121.85-271.82-272-272Zm217.52 170.67H622.37a371.228 371.228 0 0 0-62.53-133.87c74.53 15.32 137.44 64.95 169.68 133.87ZM752 512c.02 23.49-3.42 46.85-10.21 69.33H628.96c7.61-45.91 7.61-92.76 0-138.67h112.83A239.117 239.117 0 0 1 752 511.99ZM512 752c-1.35 0-2.63-.57-3.52-1.57-34.35-36.99-59.57-84.48-73.81-137.09h154.67c-14.24 52.61-39.47 100.11-73.81 137.09a4.635 4.635 0 0 1-3.52 1.57Zm-84.51-170.67a393.444 393.444 0 0 1 0-138.67H596.5c8.21 45.86 8.21 92.81 0 138.67H427.49ZM272 512c-.02-23.49 3.42-46.85 10.21-69.33h112.83a423.996 423.996 0 0 0 0 138.67H282.21A239.117 239.117 0 0 1 272 512.01Zm240-240c1.35 0 2.63.57 3.52 1.57 34.35 36.99 59.57 84.48 73.81 137.09H434.66c14.24-52.61 39.47-100.11 73.81-137.09a4.635 4.635 0 0 1 3.52-1.57Zm-47.84 4.8a370.984 370.984 0 0 0-62.53 133.87H294.48c32.24-68.92 95.15-118.55 169.68-133.87ZM294.48 613.33h107.15a371.228 371.228 0 0 0 62.53 133.87c-74.53-15.32-137.44-64.95-169.68-133.87ZM559.84 747.2a370.984 370.984 0 0 0 62.53-133.87h107.15c-32.24 68.92-95.15 118.55-169.68 133.87Z" style="fill:#fff"/>
</svg>
