<svg xmlns="http://www.w3.org/2000/svg" viewBox="0 0 1024 1024" style="enable-background:new 0 0 1024 1024" xml:space="preserve">
   <circle cx="512" cy="512" r="512" style="fill:#607d8b"/>
   <path d="M676.7 418.5c-39.5-90.8-145.2-132.3-235.9-92.7-57.8 25.2-98.1 78.9-106.2 141.4-55 13.2-88.9 68.4-75.8 123.5 11.1 46.2 52.4 78.7 99.8 78.6h281.7C711 669 768.2 611.5 768 540.8c-.2-56.4-37.2-106.1-91.3-122.3zM640.3 618H358.7c-28.3 0-51.2-22.9-51.2-51.2s22.9-51.2 51.2-51.2c14.1 0 25.6-11.5 25.6-25.6.2-70.7 57.6-127.9 128.3-127.8 54.6.1 103.1 34.9 120.8 86.5 3.1 8.9 10.7 15.3 20 16.9 41.7 7.7 69.3 47.8 61.6 89.5-6.7 36.1-38 62.5-74.7 62.9z" style="fill:#fff"/>
</svg>
