<?xml version="1.0" encoding="utf-8"?>
<!-- Generator: Adobe Illustrator 21.0.0, SVG Export Plug-In . SVG Version: 6.00 Build 0)  -->
<svg version="1.1" xmlns="http://www.w3.org/2000/svg" xmlns:xlink="http://www.w3.org/1999/xlink" x="0px" y="0px"
	 viewBox="0 0 1024 1024" style="enable-background:new 0 0 1024 1024;" xml:space="preserve">
<style type="text/css">
	.st0{fill:#607D8B;}
	.st1{fill:#FFFFFF;}
</style>
<g id="Min_Guides__x28_DO_NOT_REMOVE_x29_">
</g>
<g id="Max_Guides__x28_DO_NOT_REMOVE_x29_">
</g>
<g id="Icon">
	<circle id="Background__x28_DON_x27_T_CHANGE_COLOR_x29_" class="st0" cx="512" cy="512" r="512"/>
	<g>
		<path class="st1" d="M676.7,418.5c-39.5-90.8-145.2-132.3-235.9-92.7c-57.8,25.2-98.1,78.9-106.2,141.4
			c-55,13.2-88.9,68.4-75.8,123.5c11.1,46.2,52.4,78.7,99.8,78.6h281.7C711,669,768.2,611.5,768,540.8
			C767.8,484.4,730.8,434.7,676.7,418.5z M640.3,618H358.7c-28.3,0-51.2-22.9-51.2-51.2s22.9-51.2,51.2-51.2
			c14.1,0,25.6-11.5,25.6-25.6c0.2-70.7,57.6-127.9,128.3-127.8c54.6,0.1,103.1,34.9,120.8,86.5c3.1,8.9,10.7,15.3,20,16.9
			c41.7,7.7,69.3,47.8,61.6,89.5C708.3,591.2,677,617.6,640.3,618z"/>
	</g>
</g>
</svg>
