<svg xmlns="http://www.w3.org/2000/svg" viewBox="0 0 1024 1024">
   <circle data-name="Background (DON'T CHANGE COLOR)" cx="512" cy="512" r="512" style="fill:#607d8b"/>
   <path d="M694.21 410.9c-43.74-100.41-160.6-146.36-261-102.61a198.32 198.32 0 0 0-117.5 156.44 113.33 113.33 0 0 0 26.63 223.53H654a141.66 141.66 0 0 0 40.21-277.36zM654 631.6H342.34a56.66 56.66 0 0 1 0-113.33 28.33 28.33 0 0 0 28.33-28.33 141.66 141.66 0 0 1 275.66-45.61 28.33 28.33 0 0 0 22.1 18.7A85 85 0 0 1 654 631.6z" style="fill:#fff"/>
</svg>
