<svg xmlns="http://www.w3.org/2000/svg" viewBox="0 0 1024 1024">
   <circle data-name="Background (DON'T CHANGE COLOR)" cx="512" cy="512" r="512" style="fill:#607d8b"/>
   <path d="m781.49 428.6-27-14.84-242.8-134.9h-3a28.6 28.6 0 0 0-5.13-1.62h-10a31.57 31.57 0 0 0-5.4 1.62h-3l-242.73 134.9a27 27 0 0 0 0 46.95l67.18 37.23v127.88a80.94 80.94 0 0 0 80.94 80.94h215.84a80.94 80.94 0 0 0 80.94-80.94V497.94l54-30.22v77.16a27 27 0 0 0 54 0v-92.81a27 27 0 0 0-13.84-23.47zM633.37 625.82a27 27 0 0 1-27 27H390.55a27 27 0 0 1-27-27v-97.94l121.68 67.45 4 1.62h2.43a27 27 0 0 0 6.74 0 27 27 0 0 0 6.74 0h2.43a12.68 12.68 0 0 0 4-1.62l121.68-67.45zm-134.9-84.72L311.23 437l187.24-104.18L685.71 437z" style="fill:#fff"/>
</svg>
