<?xml version="1.0" encoding="utf-8"?>
<!-- Generator: Adobe Illustrator 21.0.0, SVG Export Plug-In . SVG Version: 6.00 Build 0)  -->
<svg version="1.1" xmlns="http://www.w3.org/2000/svg" xmlns:xlink="http://www.w3.org/1999/xlink" x="0px" y="0px"
	 viewBox="0 0 1024 1024" style="enable-background:new 0 0 1024 1024;" xml:space="preserve">
<style type="text/css">
	.st0{fill:#607D8B;}
	.st1{fill:#FFFFFF;}
</style>
<g id="Min_Guides__x28_DO_NOT_REMOVE_x29_">
</g>
<g id="Max_Guides__x28_DO_NOT_REMOVE_x29_">
</g>
<g id="Icon">
	<circle id="Background__x28_DON_x27_T_CHANGE_COLOR_x29_" class="st0" cx="512" cy="512" r="512"/>
	<path class="st1" d="M487,487c0,13.8-11.2,25-25,25h-25v25c0,13.8-11.2,25-25,25s-25-11.2-25-25v-25h-25c-13.8,0-25-11.2-25-25
		s11.2-25,25-25h25v-25c0-13.8,11.2-25,25-25s25,11.2,25,25v25h25C475.8,462,487,473.2,487,487z M612.3,512c0-13.8-11.2-25-25-25
		H587c-13.8,0-24.9,11.2-24.9,25s11.3,25,25.1,25S612.3,525.8,612.3,512z M687.3,462c0-13.8-11.2-25-25-25H662
		c-13.8,0-24.9,11.2-24.9,25s11.3,25,25.1,25S687.3,475.8,687.3,462z M787,612c0-39.5-14.4-160.6-17.3-184.5l-0.3-3.3
		c-6.6-64-60-112.2-124.3-112.2H379c-64.3,0-117.8,48.2-124.5,113.2l-0.2,2.3c-2.9,23.9-17.3,145-17.3,184.4
		c0,55.1,44.9,100,100,100c35.4,0,54-18.7,67.7-32.3l35.4-35.4c4.7-4.7,11.1-7.3,17.7-7.3h108.6c6.6,0,13,2.7,17.7,7.3l35.4,35.4
		C633,693.3,651.6,712,687,712C742.1,712,787,667.1,787,612z M404.7,609l-35.4,35.4C357.1,656.6,351.1,662,337,662
		c-27.6,0-50-22.4-50-50c0-37.3,15.2-164.1,17-178.6l0.4-4.1c3.9-38.4,36-67.3,74.6-67.3h266c38.6,0,70.7,28.9,74.6,67.1l0.5,4.4
		c6.3,52,16.9,148,16.9,178.4c0,27.6-22.4,50-50,50c-14.1,0-20.1-5.4-32.3-17.7L619.3,609c-14.2-14.2-33-22-53-22H457.7
		C437.7,587,418.9,594.8,404.7,609z"/>
</g>
</svg>
