<svg xmlns="http://www.w3.org/2000/svg" viewBox="0 0 1024 1024">
   <style>
      .st1{fill:#fff}
   </style>
   <g id="Icon">
      <circle cx="512" cy="512" r="512" style="fill:#607d8b"/>
      <path class="st1" d="M512 766c-67.8 0-131.6-26.4-179.6-74.4S258 579.8 258 512s26.4-131.6 74.4-179.6S444.2 258 512 258s131.6 26.4 179.6 74.4S766 444.2 766 512s-26.4 131.6-74.4 179.6S579.8 766 512 766zm0-457.2c-112 0-203.2 91.2-203.2 203.2S400 715.2 512 715.2 715.2 624 715.2 512 624 308.8 512 308.8z"/>
      <path class="st1" d="M740.6 537.4H283.4c-14 0-25.4-11.4-25.4-25.4 0-14 11.4-25.4 25.4-25.4h457.2c14 0 25.4 11.4 25.4 25.4 0 14-11.4 25.4-25.4 25.4z"/>
      <path class="st1" d="M512 766c-7.1 0-13.9-3-18.8-8.3-61.4-67.2-96.2-154.2-98.1-245.2v-1.1c1.9-91 36.7-178 98.1-245.2 4.8-5.3 11.6-8.3 18.8-8.3 7.1 0 13.9 3 18.8 8.3 61.4 67.2 96.2 154.2 98.1 245.2v1.1c-1.9 91-36.7 178-98.1 245.2-4.9 5.3-11.7 8.3-18.8 8.3zm-66-254c1.5 68.6 24.8 134.7 66 189 41.2-54.3 64.5-120.3 66-189-1.5-68.6-24.8-134.7-66-189-41.2 54.3-64.5 120.4-66 189z"/>
   </g>
</svg>
