<svg xmlns="http://www.w3.org/2000/svg" viewBox="0 0 1024 1024">
   <circle cx="512" cy="512" r="512" style="fill:#607d8b"/>
   <path d="M512 795c-156.3 0-283-126.7-283-283s126.7-283 283-283 283 126.7 283 283-126.7 283-283 283zm-.5-473.4c-105.7-.1-191.4 85.5-191.4 191.2v.2c0 21.3 3.6 41.5 9.9 60.7h57V412.9l124.5 124.5L636 412.9v160.9h57.1c6.5-19.6 9.8-40.1 9.9-60.7 0-105.9-85.7-191.5-191.5-191.5zM483 565.4l-54.5-54.5v101.2h-80.4c33.7 55 94.4 91.8 163.4 91.8s130.2-36.8 163.4-91.8h-80.4V510.9l-53.9 54.5L512 594l-29-28.6z" style="fill:#fff"/>
</svg>
