<svg xmlns="http://www.w3.org/2000/svg" viewBox="0 0 1024 1024">
   <circle data-name="Background (DON'T CHANGE COLOR)" cx="512" cy="512" r="512" style="fill:#607d8b"/>
   <path d="M603.73 557.87H420.27a22.93 22.93 0 1 0 0 45.87h183.46a22.93 22.93 0 1 0 0-45.87zm0-91.73h-137.6a22.93 22.93 0 0 0 0 45.87h137.6a22.93 22.93 0 1 0 0-45.87zm91.73-137.6h-68.8V305.6a22.93 22.93 0 0 0-45.87 0v22.93h-45.86V305.6a22.93 22.93 0 1 0-45.87 0v22.93H443.2V305.6a22.93 22.93 0 0 0-45.87 0v22.93h-68.8a22.93 22.93 0 0 0-22.93 22.93v321.07a68.8 68.8 0 0 0 68.8 68.8h275.2a68.8 68.8 0 0 0 68.8-68.8V351.47a22.93 22.93 0 0 0-22.93-22.94zm-22.93 344a22.93 22.93 0 0 1-22.93 22.93H374.4a22.93 22.93 0 0 1-22.93-22.93V374.4h45.87v22.93a22.93 22.93 0 1 0 45.87 0V374.4h45.87v22.93a22.93 22.93 0 1 0 45.87 0V374.4h45.85v22.93a22.93 22.93 0 1 0 45.87 0V374.4h45.87z" style="fill:#fff"/>
</svg>
