<svg xmlns="http://www.w3.org/2000/svg" viewBox="0 0 1024 1024">
   <circle cx="512" cy="512" r="512" style="fill:#607d8b"/>
   <path d="M702.7 678.6H416.6c15.6-20.6 24-45.7 23.8-71.5v-71.5h143.1c13.2 0 23.8-10.7 23.8-23.8 0-13.2-10.7-23.8-23.8-23.8h-143v-74.1c-.1-64.4 52.1-116.6 116.5-116.7 41.8 0 80.4 22.3 101.2 58.5 6.6 11.4 21.2 15.2 32.6 8.6h.1c11.4-6.5 15.3-21 8.8-32.4-45.6-78.6-146.2-105.4-224.8-59.9-50.6 29.3-81.9 83.4-82 141.9V488h-71.5c-13.2 0-23.8 10.7-23.8 23.8 0 13.2 10.7 23.8 23.8 23.8h71.5v71.5c0 39.5-32 71.5-71.5 71.5-13.2 0-23.8 10.7-23.8 23.8s10.7 23.8 23.8 23.8h381.5c13.2 0 23.8-10.7 23.8-23.8s-10.8-23.8-24-23.8z" style="fill:#fff"/>
</svg>
