<?xml version="1.0" encoding="utf-8"?>
<!-- Generator: Adobe Illustrator 21.0.0, SVG Export Plug-In . SVG Version: 6.00 Build 0)  -->
<svg version="1.1" xmlns="http://www.w3.org/2000/svg" xmlns:xlink="http://www.w3.org/1999/xlink" x="0px" y="0px"
	 viewBox="0 0 1024 1024" style="enable-background:new 0 0 1024 1024;" xml:space="preserve">
<style type="text/css">
	.st0{fill:#607D8B;}
	.st1{fill:#FFFFFF;}
</style>
<g id="Guides">
</g>
<g id="Icon">
	<circle class="st0" cx="512" cy="512" r="512"/>
	<g>
		<path class="st1" d="M512,517.4c-20.1-0.2-36.5,15.8-36.7,35.9c-0.1,10.6,4.4,20.7,12.4,27.7v33.9c0,13.5,10.9,24.4,24.4,24.4
			c13.5,0,24.4-10.9,24.4-24.4V581c15.1-13.2,16.6-36.2,3.4-51.3C532.7,521.8,522.6,517.3,512,517.4z M633.9,419.9v-48.8
			c0-67.3-54.6-121.9-121.9-121.9s-121.9,54.6-121.9,121.9v48.8c-40.4,0-73.1,32.7-73.1,73.1v170.6c0,40.4,32.7,73.1,73.1,73.1
			h243.8c40.4,0,73.1-32.7,73.1-73.1V493C707,452.6,674.3,419.9,633.9,419.9z M438.9,371.1c0-40.4,32.7-73.1,73.1-73.1
			s73.1,32.7,73.1,73.1v48.8H438.9V371.1z M658.3,663.6c0,13.5-10.9,24.4-24.4,24.4H390.1c-13.5,0-24.4-10.9-24.4-24.4V493
			c0-13.5,10.9-24.4,24.4-24.4h243.8c13.5,0,24.4,10.9,24.4,24.4V663.6z"/>
	</g>
</g>
</svg>
