<svg xmlns="http://www.w3.org/2000/svg" viewBox="0 0 1024 1024">
   <g id="Icon">
      <circle cx="512" cy="512" r="512" style="fill:#607d8b"/>
      <path d="M315.6 603.1c-31.5 31.6-31.5 82.7 0 114.3 31.6 31.5 82.7 31.5 114.3 0 30.4-32.7 28.6-83.8-4-114.3-31.1-28.9-79.2-28.9-110.3 0zm76.3 76.3c-10.6 10.6-27.7 10.6-38.3 0-10.6-10.6-10.6-27.7 0-38.3 10.5-10.6 27.5-10.6 38.1-.2l.2.2c10.6 10.5 10.6 27.5.2 38.1l-.2.2zm-19.1-207.8c-14.9 0-26.9 12.1-26.9 26.9 0 14.9 12.1 26.9 26.9 26.9 74.4 0 134.7 60.3 134.7 134.7 0 14.9 12.1 26.9 26.9 26.9 14.9 0 26.9-12.1 26.9-26.9.1-104.1-84.3-188.5-188.5-188.5zm0-107.8c-14.9 0-26.9 12.1-26.9 26.9s12.1 26.9 26.9 26.9c133.9 0 242.5 108.6 242.5 242.5 0 14.9 12.1 26.9 26.9 26.9 14.9 0 26.9-12.1 26.9-26.9-.2-78.6-31.4-153.9-86.8-209.7-55.6-55.2-130.9-86.4-209.5-86.6zm285.9 10.5c-76-75.5-178.8-118-285.9-118.3-14.9 0-26.9 12.1-26.9 26.9 0 14.9 12.1 26.9 26.9 26.9 193.5 0 350.3 156.8 350.3 350.3 0 14.9 12.1 26.9 26.9 26.9 14.9 0 26.9-12.1 26.9-26.9-.2-107-42.7-209.8-118.2-285.8z" style="fill:#fff"/>
   </g>
</svg>