<svg xmlns="http://www.w3.org/2000/svg" viewBox="0 0 1024 1024">
   <circle cx="512" cy="512" r="512" style="fill:#607d8b"/>
   <path d="M577.1 620.5c-12 0-21.7 9.7-21.7 21.7s9.7 21.7 21.7 21.7 21.7-9.7 21.7-21.7-9.7-21.7-21.7-21.7zm-130.1 0h-65.1c-12 0-21.7 9.7-21.7 21.7s9.7 21.7 21.7 21.7H447c12 0 21.7-9.7 21.7-21.7s-9.7-21.7-21.7-21.7zm195.2 0c-12 0-21.7 9.7-21.7 21.7s9.7 21.7 21.7 21.7 21.7-9.7 21.7-21.7-9.7-21.7-21.7-21.7zm-65.1-130.1c-12 0-21.7 9.7-21.7 21.7s9.7 21.7 21.7 21.7 21.7-9.7 21.7-21.7-9.7-21.7-21.7-21.7zm-130.1 0h-65.1c-12 0-21.7 9.7-21.7 21.7s9.7 21.7 21.7 21.7H447c12 0 21.7-9.7 21.7-21.7s-9.7-21.7-21.7-21.7zm195.2-130.2c-12 0-21.7 9.7-21.7 21.7s9.7 21.7 21.7 21.7 21.7-9.7 21.7-21.7-9.7-21.7-21.7-21.7zm0 130.2c-12 0-21.7 9.7-21.7 21.7s9.7 21.7 21.7 21.7 21.7-9.7 21.7-21.7-9.7-21.7-21.7-21.7zM729 360.2c0-35.9-29.1-65.1-65.1-65.1H360.2c-35.9 0-65.1 29.1-65.1 65.1v43.4c.1 16.1 6.1 31.5 16.9 43.4-10.8 11.9-16.8 27.3-16.9 43.4v43.4c.1 16.1 6.1 31.5 16.9 43.4-10.8 11.9-16.8 27.3-16.9 43.4V664c0 35.9 29.1 65.1 65.1 65.1h303.7c35.9 0 65.1-29.1 65.1-65.1v-43.4c-.1-16.1-6.1-31.5-16.9-43.4 10.8-11.9 16.8-27.3 16.9-43.4v-43.4c-.1-16.1-6.1-31.5-16.9-43.4 10.8-11.9 16.8-27.3 16.9-43.4v-43.4zm-43.4 303.7c0 12-9.7 21.7-21.7 21.7H360.2c-12 0-21.7-9.7-21.7-21.7v-43.4c0-12 9.7-21.7 21.7-21.7h303.7c12 0 21.7 9.7 21.7 21.7v43.4zm0-130.1c0 12-9.7 21.7-21.7 21.7H360.2c-12 0-21.7-9.7-21.7-21.7v-43.4c0-12 9.7-21.7 21.7-21.7h303.7c12 0 21.7 9.7 21.7 21.7v43.4zm0-130.2c0 12-9.7 21.7-21.7 21.7H360.2c-12 0-21.7-9.7-21.7-21.7v-43.4c0-12 9.7-21.7 21.7-21.7h303.7c12 0 21.7 9.7 21.7 21.7v43.4zm-108.5-43.4c-12 0-21.7 9.7-21.7 21.7s9.7 21.7 21.7 21.7 21.7-9.7 21.7-21.7-9.7-21.7-21.7-21.7zm-130.1 0h-65.1c-12 0-21.7 9.7-21.7 21.7s9.7 21.7 21.7 21.7H447c12 0 21.7-9.7 21.7-21.7s-9.7-21.7-21.7-21.7z" style="fill:#fff"/>
</svg>
