<?xml version="1.0" encoding="utf-8"?>
<!-- Generator: Adobe Illustrator 21.0.0, SVG Export Plug-In . SVG Version: 6.00 Build 0)  -->
<svg version="1.1" xmlns="http://www.w3.org/2000/svg" xmlns:xlink="http://www.w3.org/1999/xlink" x="0px" y="0px"
	 viewBox="0 0 1024 1024" style="enable-background:new 0 0 1024 1024;" xml:space="preserve">
<style type="text/css">
	.st0{fill:#607D8B;}
	.st1{fill:#FFFFFF;}
</style>
<g id="Guides">
</g>
<g id="Icon">
	<circle class="st0" cx="512" cy="512" r="512"/>
	<g>
		<path class="st1" d="M705.7,606.4H374.2c-13.1,0-23.7-10.6-23.7-23.7s10.6-23.7,23.7-23.7h247.2c32.6,0,61-22.2,68.9-53.8
			l39.1-153.7c1.8-7.1,0.2-14.6-4.3-20.4c-4.7-5.9-11.9-9.3-19.4-9H368.6c-10-28.3-36.7-47.3-66.8-47.4h-22.3
			c-13.1,0-23.7,10.6-23.7,23.7c0,13.1,10.6,23.7,23.7,23.7h22.3c11.1-0.3,21,7.2,23.7,18l1.4,11.4l0,0l41,160.1
			c-39.2,1.8-69.6,35-67.8,74.2s35,69.6,74.2,67.8h4.3c-13.4,36.9,5.7,77.6,42.5,91c36.9,13.4,77.6-5.7,91-42.5
			c5.7-15.7,5.7-32.8,0-48.5h55.9c-13.4,36.9,5.7,77.6,42.5,91c36.9,13.4,77.6-5.7,91-42.5c5.7-15.7,5.7-32.8,0-48.5h4.3
			c13.1,0,23.7-10.6,23.7-23.7C729.4,617,718.8,606.4,705.7,606.4z M675.4,369.6l-31,124.1c-2.7,10.8-12.5,18.3-23.7,18H416.4
			l-35.5-142.1H675.4z M445.3,701.1c-13.1,0-23.7-10.6-23.7-23.7c0-13.1,10.6-23.7,23.7-23.7c13.1,0,23.7,10.6,23.7,23.7
			C469,690.5,458.4,701.1,445.3,701.1z M634.7,701.1c-13.1,0-23.7-10.6-23.7-23.7c0-13.1,10.6-23.7,23.7-23.7
			c13.1,0,23.7,10.6,23.7,23.7C658.4,690.5,647.8,701.1,634.7,701.1z"/>
	</g>
</g>
</svg>
