<svg xmlns="http://www.w3.org/2000/svg" viewBox="0 0 1024 1024">
   <circle cx="512" cy="512" r="512" style="fill:#607d8b"/>
   <path d="M710.5 677.7c53.2-71.4 38.6-172.4-32.8-225.6-9.4-7-19.6-13-30.3-17.8C630 334 534.6 266.9 434.3 284.3s-167.4 112.8-150 213.1c5.2 29.8 17.6 57.9 36.2 81.8l-32 31.8c-6.5 6.6-8.4 16.5-4.8 25.1 3.5 8.6 11.9 14.2 21.2 14.3H436c26.6 56.2 83.2 92 145.3 92.1h138.2c9.3 0 17.7-5.7 21.2-14.3 3.6-8.6 1.7-18.5-4.8-25.1l-25.4-25.4zM420 581.2c0 7.7.6 15.4 1.8 23h-61.5l8.1-7.8c9-9 9.1-23.5.1-32.6l-.1-.1c-26.1-25.8-40.7-61-40.5-97.7 0-76.3 61.9-138.2 138.2-138.2 58.6-.4 111 36.7 130.1 92.1h-15c-89 .1-161.2 72.3-161.2 161.3zm242.8 115.2 1.2 1.2h-82.7c-63.6-.1-115.1-51.8-115-115.4s51.8-115.1 115.4-115 115.1 51.8 115 115.4c-.1 30.5-12.2 59.8-33.8 81.3-4.3 4.3-6.8 10-6.9 16.1-.1 6.2 2.4 12.1 6.8 16.4z" style="fill:#fff"/>
</svg>
