<?xml version="1.0" encoding="utf-8"?>
<!-- Generator: Adobe Illustrator 21.0.0, SVG Export Plug-In . SVG Version: 6.00 Build 0)  -->
<svg version="1.1" xmlns="http://www.w3.org/2000/svg" xmlns:xlink="http://www.w3.org/1999/xlink" x="0px" y="0px"
	 viewBox="0 0 1024 1024" style="enable-background:new 0 0 1024 1024;" xml:space="preserve">
<style type="text/css">
	.st0{fill:#607D8B;}
	.st1{fill:#FFFFFF;}
</style>
<g id="Guides">
</g>
<g id="Icon">
	<circle class="st0" cx="512" cy="512" r="512"/>
	<path class="st1" d="M710.5,677.7c53.2-71.4,38.6-172.4-32.8-225.6c-9.4-7-19.6-13-30.3-17.8c-17.4-100.3-112.8-167.4-213.1-150
		s-167.4,112.8-150,213.1c5.2,29.8,17.6,57.9,36.2,81.8l-32,31.8c-6.5,6.6-8.4,16.5-4.8,25.1c3.5,8.6,11.9,14.2,21.2,14.3h131.1
		c26.6,56.2,83.2,92,145.3,92.1h138.2c9.3,0,17.7-5.7,21.2-14.3c3.6-8.6,1.7-18.5-4.8-25.1L710.5,677.7z M420,581.2
		c0,7.7,0.6,15.4,1.8,23h-61.5l8.1-7.8c9-9,9.1-23.5,0.1-32.6c0,0-0.1-0.1-0.1-0.1c-26.1-25.8-40.7-61-40.5-97.7
		c0-76.3,61.9-138.2,138.2-138.2c58.6-0.4,111,36.7,130.1,92.1c-5.1,0-9.9,0-15,0C492.2,420,420,492.2,420,581.2z M662.8,696.4
		l1.2,1.2h-82.7c-63.6-0.1-115.1-51.8-115-115.4s51.8-115.1,115.4-115s115.1,51.8,115,115.4c-0.1,30.5-12.2,59.8-33.8,81.3
		c-4.3,4.3-6.8,10-6.9,16.1C655.9,686.2,658.4,692.1,662.8,696.4z"/>
</g>
</svg>
