<?xml version="1.0" encoding="utf-8"?>
<!-- Generator: Adobe Illustrator 21.0.0, SVG Export Plug-In . SVG Version: 6.00 Build 0)  -->
<svg version="1.1" xmlns="http://www.w3.org/2000/svg" xmlns:xlink="http://www.w3.org/1999/xlink" x="0px" y="0px"
	 viewBox="0 0 1024 1024" style="enable-background:new 0 0 1024 1024;" xml:space="preserve">
<style type="text/css">
	.st0{fill:#607D8B;}
	.st1{fill:#FFFFFF;}
</style>
<g id="Guides">
</g>
<g id="Icon">
	<circle class="st0" cx="512" cy="512" r="512"/>
	<g>
		<path class="st1" d="M756,387.8c-7.9-4.6-17.7-4.6-25.6,0L640,432.4c-1.5-41.3-35.5-74-76.8-74H332.8c-42.4,0-76.8,34.4-76.8,76.8
			v153.6c0,42.4,34.4,76.8,76.8,76.8h230.4c41.3,0,75.3-32.7,76.8-74l91.1,45.6c3.5,1.8,7.3,2.8,11.3,2.8c4.8,0,9.5-1.3,13.6-3.8
			c7.5-4.7,12-12.9,12-21.8V409.6C768,400.8,763.5,392.5,756,387.8z M588.8,588.8c0,14.1-11.5,25.6-25.6,25.6H332.8
			c-14.1,0-25.6-11.5-25.6-25.6V435.2c0-14.1,11.5-25.6,25.6-25.6h230.4c14.1,0,25.6,11.5,25.6,25.6V588.8z M716.8,572.9L640,534.5
			v-45.1l76.8-38.4V572.9z"/>
	</g>
</g>
</svg>
