<?xml version="1.0" encoding="utf-8"?>
<!-- Generator: Adobe Illustrator 21.0.0, SVG Export Plug-In . SVG Version: 6.00 Build 0)  -->
<svg version="1.1" xmlns="http://www.w3.org/2000/svg" xmlns:xlink="http://www.w3.org/1999/xlink" x="0px" y="0px"
	 viewBox="0 0 1024 1024" style="enable-background:new 0 0 1024 1024;" xml:space="preserve">
<style type="text/css">
	.st0{fill:#FF9900;}
	.st1{fill:#FFFFFF;}
</style>
<g id="Guides">
</g>
<g id="Icon">
	<circle class="st0" cx="512" cy="512" r="512"/>
	<g>
		<title>Amazon AWS icon</title>
		<path class="st1" d="M400.3,479.1c0,6.3,0.7,11.4,1.9,15.1c1.4,3.8,3.1,7.9,5.5,12.3c0.9,1.3,1.2,2.7,1.2,3.9c0,1.7-1,3.4-3.2,5.1
			l-10.7,7.1c-1.3,0.9-2.8,1.5-4.4,1.5c-1.7,0-3.4-0.9-5.1-2.4c-2.3-2.5-4.3-5.1-6.1-8c-1.9-3.3-3.7-6.6-5.3-10
			c-13.3,15.7-30,23.5-50.1,23.5c-14.3,0-25.7-4.1-34-12.2c-8.3-8.2-12.6-19.1-12.6-32.7c0-14.5,5.1-26.2,15.5-35.1
			c10.4-8.9,24.2-13.3,41.7-13.3c5.8,0,11.8,0.5,18,1.4c6.3,0.9,12.8,2.2,19.6,3.8v-12.4c0-12.9-2.7-22-8-27.2
			c-5.4-5.3-14.6-7.8-27.7-7.8c-6,0-12.1,0.7-18.4,2.2s-12.4,3.4-18.4,5.8c-1.9,0.9-3.9,1.6-6,2.2c-0.9,0.3-1.8,0.4-2.7,0.5
			c-2.4,0-3.6-1.7-3.6-5.3v-8.3c0-2.7,0.3-4.8,1.2-6c1.3-1.5,2.9-2.8,4.8-3.6c6-3.1,13.1-5.6,21.4-7.7c8.7-2.2,17.6-3.3,26.6-3.2
			c20.3,0,35.1,4.6,44.6,13.8c9.4,9.2,14.1,23.1,14.1,41.9v55.2L400.3,479.1z M331.2,505c5.6,0,11.4-1,17.5-3.1
			c6.1-2,11.6-5.8,16.2-10.9c2.7-3.2,4.8-6.8,5.8-10.9c1-4.1,1.7-9,1.7-14.8v-7.1c-5.2-1.3-10.4-2.2-15.7-2.9c-5.3-0.7-10.7-1-16-1
			c-11.4,0-19.8,2.2-25.4,6.8c-5.6,4.6-8.3,11.1-8.3,19.6c0,8,2,14,6.3,18C317.4,503,323.3,505,331.2,505z M467.9,523.4
			c-3.1,0-5.1-0.5-6.5-1.7c-1.4-1-2.6-3.4-3.6-6.6l-40-131.6c-0.8-2.2-1.3-4.5-1.5-6.8c0-2.7,1.4-4.3,4.1-4.3h16.7
			c3.2,0,5.4,0.5,6.6,1.7c1.4,1,2.4,3.4,3.4,6.7l28.6,112.7l26.6-112.7c0.9-3.4,1.9-5.6,3.2-6.7c2-1.3,4.4-1.9,6.8-1.7H526
			c3.2,0,5.5,0.5,6.8,1.7c1.3,1,2.6,3.4,3.2,6.7l26.9,114.1l29.5-114.1c1-3.4,2.2-5.6,3.4-6.7c2-1.3,4.3-1.9,6.6-1.7h15.9
			c2.7,0,4.3,1.4,4.3,4.3c0,0.9-0.2,1.7-0.4,2.7c-0.3,1.5-0.7,2.9-1.2,4.3l-41,131.6c-1,3.4-2.2,5.6-3.6,6.6
			c-1.9,1.2-4.2,1.8-6.5,1.7h-14.7c-3.2,0-5.4-0.5-6.8-1.7c-1.3-1.2-2.5-3.4-3.2-6.8l-26.4-109.8l-26.2,109.7
			c-0.9,3.4-1.9,5.6-3.2,6.8c-1.4,1.2-3.8,1.7-6.8,1.7L467.9,523.4z M686.7,528c-8.9,0-17.7-1-26.2-3.1c-8.5-2-15.1-4.3-19.6-6.8
			c-2.7-1.5-4.6-3.2-5.3-4.8c-0.7-1.5-1-3.1-1-4.8v-8.7c0-3.6,1.4-5.3,3.9-5.3c1,0,2,0.2,3.1,0.5c1,0.3,2.6,1,4.3,1.7
			c5.8,2.6,12.1,4.6,18.7,6c6.8,1.4,13.4,2,20.3,2c10.7,0,19.1-1.9,24.9-5.6c5.6-3.4,9-9.6,8.9-16.2c0.1-4.4-1.5-8.7-4.6-11.9
			c-3.1-3.2-8.9-6.1-17.2-8.9l-24.7-7.7c-12.4-3.9-21.6-9.7-27.2-17.3c-5.5-7.1-8.5-15.8-8.5-24.7c0-7.1,1.6-13.4,4.6-18.9
			c3.1-5.4,7.1-10.2,12.3-14c5.1-3.9,10.9-6.8,17.7-8.9c6.8-2,14-2.9,21.5-2.9c3.7,0,7.7,0.2,11.4,0.7c3.9,0.5,7.5,1.2,11.1,1.9
			c3.4,0.9,6.7,1.7,9.7,2.7c3.1,1,5.5,2,7.2,3.1c2,1,3.8,2.5,5.1,4.3c1.1,1.7,1.6,3.6,1.5,5.6v8c0,3.6-1.4,5.5-3.9,5.5
			c-2.3-0.3-4.5-1-6.5-2c-10.3-4.5-21.4-6.8-32.7-6.6c-9.7,0-17.4,1.5-22.7,4.8c-5.3,3.2-8,8.2-8,15.1c0,4.8,1.7,8.9,5.1,12.1
			c3.4,3.2,9.7,6.5,18.7,9.4l24.2,7.6c12.2,3.9,21.1,9.4,26.4,16.4c5.3,7,7.8,15,7.8,23.8c0,7.3-1.5,14-4.4,19.8
			c-3.1,5.8-7.2,10.9-12.4,15c-5.3,4.3-11.6,7.3-18.9,9.5C703.4,526.8,695.4,528,686.7,528z M718.9,610.7
			c-56,41.4-137.4,63.3-207.4,63.3c-98.1,0-186.5-36.3-253.2-96.6c-5.3-4.8-0.5-11.2,5.8-7.5c72.2,41.9,161.3,67.3,253.4,67.3
			c62.2,0,130.4-12.9,193.3-39.5C720.1,593.5,728.1,603.9,718.9,610.7z M742.2,584.2c-7.2-9.2-47.4-4.4-65.6-2.2
			c-5.4,0.7-6.3-4.1-1.3-7.7c32-22.5,84.6-16,90.8-8.5c6.1,7.7-1.7,60.3-31.7,85.5c-4.6,3.9-9,1.9-7-3.2
			C734.2,631.2,749.4,593.2,742.2,584.2z"/>
	</g>
</g>
</svg>
