<?xml version="1.0" encoding="utf-8"?>
<!-- Generator: Adobe Illustrator 21.0.0, SVG Export Plug-In . SVG Version: 6.00 Build 0)  -->
<svg version="1.1" xmlns="http://www.w3.org/2000/svg" xmlns:xlink="http://www.w3.org/1999/xlink" x="0px" y="0px"
	 viewBox="0 0 1024 1024" style="enable-background:new 0 0 1024 1024;" xml:space="preserve">
<style type="text/css">
	.st0{fill:#202020;}
	.st1{fill:#FFFFFF;}
</style>
<g id="Guides">
</g>
<g id="Icon">
	<circle class="st0" cx="512" cy="512" r="512"/>
	<g>
		<g>
			<path class="st1" d="M425.8,660c-1.9-1.9-4.2-3.5-6.9-4.5c-2.6-1.1-5.5-1.6-8.6-1.6c-2.1,0-4,0.3-5.8,0.9
				c-1.8,0.6-3.5,1.4-4.9,2.4c-1.5,1-2.8,2.2-4,3.6c-1.1,1.4-2.1,2.9-2.9,4.5c-0.8,1.6-1.4,3.4-1.8,5.2c-0.4,1.8-0.6,3.6-0.6,5.5
				c0,3.3,0.5,6.3,1.6,9c1.1,2.7,2.6,5.1,4.5,7c1.9,1.9,4.2,3.4,6.9,4.5c2.6,1.1,5.5,1.6,8.6,1.6c2.1,0,4-0.3,5.8-0.8
				c1.8-0.6,3.5-1.4,4.9-2.4c1.5-1,2.8-2.2,4-3.6c1.1-1.4,2.1-2.9,2.9-4.5c0.8-1.6,1.4-3.3,1.8-5.2c0.4-1.8,0.6-3.7,0.6-5.5
				c0-3.3-0.5-6.3-1.6-9C429.2,664.3,427.7,662,425.8,660 M424.8,677.8c0,2.6-0.3,4.9-1,6.9c-0.7,2-1.6,3.7-2.7,5.1
				c-1.1,1.4-2.5,2.4-4.1,3.1c-1.6,0.7-3.3,1.1-5.2,1.1c-2.4,0-4.5-0.5-6.3-1.5c-1.8-1-3.3-2.4-4.5-4.2c-1.2-1.8-2.1-3.9-2.8-6.4
				c-0.6-2.5-0.9-5.2-0.9-8c0-2.6,0.3-4.9,1-6.9c0.6-2,1.5-3.7,2.7-5c1.1-1.4,2.5-2.4,4.1-3.1c1.6-0.7,3.3-1.1,5.2-1.1
				c2.4,0,4.5,0.5,6.3,1.5c1.8,1,3.3,2.4,4.5,4.1c1.2,1.8,2.1,3.9,2.8,6.3C424.5,672.2,424.8,674.9,424.8,677.8"/>
			<path class="st1" d="M475.4,654.7v0.7l0,0.2c0.1,0.4,0.2,0.9,0.3,1.4c0.1,0.6,0.2,1.3,0.3,2.2c0.1,0.9,0.1,1.9,0.2,3.1
				c0,1.2,0.1,2.6,0.1,4.2v18.4l-27-30.4h-2.1l-0.7,0.1v0.7l0,0.2c0.1,0.4,0.2,0.9,0.3,1.4c0.1,0.6,0.2,1.3,0.3,2.2
				c0.1,0.9,0.1,1.9,0.2,3.1c0,1.2,0.1,2.6,0.1,4.2v18.7c0,1.6,0,3-0.1,4.3c0,1.2-0.1,2.2-0.2,3.1c-0.1,0.9-0.2,1.6-0.3,2.1
				c-0.1,0.6-0.2,1-0.3,1.4l0,1h5.5l0.7-0.1v-0.7l0-0.2c-0.1-0.4-0.2-0.8-0.3-1.4c-0.1-0.6-0.2-1.3-0.2-2.2
				c-0.1-0.9-0.1-1.9-0.2-3.1c0-1.2,0-2.6,0-4.3v-17.8l26.8,30.1l0.2,0.2h1.9v-31.2c0-1.6,0-3,0.1-4.2c0-1.2,0.1-2.2,0.2-3.1
				c0.1-0.9,0.2-1.6,0.2-2.2c0.1-0.6,0.2-1,0.3-1.4l0-1h-5.5L475.4,654.7z"/>
			<path class="st1" d="M514.7,692.3c-1.3,0.2-2.9,0.5-4.6,0.7c-1.6,0.2-3.3,0.3-5.1,0.3v-26.7c0-1.6,0-3,0.1-4.2
				c0-1.2,0.1-2.2,0.2-3.1c0.1-0.9,0.1-1.6,0.2-2.2c0.1-0.6,0.2-1,0.3-1.4l0-1h-7.2l-0.7,0.1v0.7l0,0.2c0.1,0.4,0.2,0.9,0.3,1.4
				c0.1,0.6,0.2,1.3,0.3,2.2c0.1,0.9,0.1,1.9,0.2,3.1c0,1.2,0.1,2.6,0.1,4.2v18.7c0,1.6,0,3-0.1,4.2c0,1.2-0.1,2.2-0.2,3.1
				c-0.1,0.9-0.2,1.6-0.3,2.1c-0.1,0.6-0.2,1-0.3,1.4l0,1h12.4c0.2,0,0.5,0,0.9,0l3.1,0.1c0.6,0,1.1,0,1.7,0l1.5,0.1
				c0.4,0,0.7,0,0.9,0.1l0.6,0.1l1.1-6.3l-1,0.3C517.7,691.7,516.3,692,514.7,692.3"/>
			<path class="st1" d="M540.8,662.2c0.1-1.2,0.1-2.2,0.2-3.1c0.1-0.9,0.2-1.6,0.3-2.2c0.1-0.6,0.2-1,0.3-1.4l0-1h-7.2l-0.7,0.1v0.7
				l0,0.2c0.1,0.4,0.2,0.9,0.3,1.4c0.1,0.6,0.2,1.3,0.2,2.2c0.1,0.9,0.1,1.9,0.2,3.1c0,1.2,0.1,2.6,0.1,4.2v18.7c0,1.6,0,3-0.1,4.2
				c0,1.2-0.1,2.2-0.2,3.1c-0.1,0.9-0.2,1.6-0.2,2.2c-0.1,0.6-0.2,1-0.3,1.4l0,1h7.2l0.7-0.1v-0.7l0-0.2c-0.1-0.4-0.2-0.9-0.3-1.4
				c-0.1-0.6-0.2-1.3-0.3-2.1c-0.1-0.9-0.1-1.9-0.2-3.1c0-1.2-0.1-2.6-0.1-4.2v-18.7C540.8,664.9,540.8,663.5,540.8,662.2"/>
			<path class="st1" d="M586.9,654.7v0.7l0,0.2c0.1,0.4,0.2,0.9,0.3,1.4c0.1,0.6,0.2,1.3,0.2,2.2c0.1,0.9,0.1,1.9,0.2,3.1
				c0,1.2,0.1,2.6,0.1,4.2v18.4l-26.8-30.1l-0.2-0.2h-2.1l-0.7,0.1v0.7l0,0.2c0.1,0.4,0.2,0.9,0.3,1.4c0.1,0.6,0.2,1.3,0.3,2.2
				c0.1,0.9,0.1,1.9,0.2,3.1c0,1.2,0.1,2.6,0.1,4.2v18.7c0,1.6,0,3-0.1,4.3c-0.1,1.2-0.1,2.2-0.2,3.1c-0.1,0.9-0.2,1.6-0.3,2.1
				c-0.1,0.6-0.2,1-0.3,1.4l0,1h5.5l0.7-0.1v-0.7l0-0.2c-0.1-0.4-0.2-0.8-0.3-1.4c-0.1-0.6-0.2-1.3-0.2-2.2
				c-0.1-0.9-0.1-1.9-0.2-3.1c0-1.2,0-2.6,0-4.3v-17.8l26.8,30.1l0.2,0.2h1.9v-31.2c0-1.6,0-3,0-4.2c0.1-1.2,0.1-2.2,0.2-3.1
				c0.1-0.9,0.1-1.6,0.2-2.2c0.1-0.6,0.2-1,0.3-1.4l0-1h-5.5L586.9,654.7z"/>
			<path class="st1" d="M626.2,692.3c-1.3,0.2-2.9,0.5-4.6,0.7c-1.6,0.2-3.3,0.3-5.1,0.3v-16.6c1,0,2,0.1,3.1,0.1
				c1.3,0.1,2.5,0.2,3.6,0.4c1.3,0.2,2.6,0.3,3.8,0.5l0.6,0.1l1.2-5.8l-1,0.2c-0.9,0.2-2,0.3-3.2,0.4c-1,0.1-2.3,0.2-3.8,0.3
				c-1.3,0.1-2.7,0.1-4.3,0.2v-14.3l1.3-0.1c0.6,0,1.1-0.1,1.7-0.1c0.6,0,1.1-0.1,1.5-0.1c1.3,0,2.4,0.1,3.3,0.2
				c1,0.1,1.8,0.2,2.5,0.3c0.8,0.1,1.5,0.3,2,0.5l0.6,0.2l1.9-5.5l-1.2,0.2c-0.3,0.1-1,0.2-2.6,0.2c-1.3,0.1-2.9,0.1-4.8,0.1
				c-1.9,0-3.9,0.1-6.2,0.1c-2.2,0-4.5,0-6.7,0l-0.7,0.1v0.7l0,0.2c0.1,0.4,0.2,0.9,0.3,1.4c0.1,0.6,0.2,1.3,0.3,2.2
				c0.1,0.9,0.1,1.9,0.2,3.1c0,1.2,0.1,2.6,0.1,4.2v18.7c0,1.6,0,3-0.1,4.2c0,1.2-0.1,2.2-0.2,3.1c-0.1,0.9-0.2,1.6-0.3,2.1
				c-0.1,0.6-0.2,1-0.3,1.4l0,1h12.4c0.2,0,0.5,0,0.9,0l3.1,0.1c0.6,0,1.1,0,1.7,0l1.4,0.1c0.4,0,0.7,0,0.9,0.1l0.6,0.1l1.1-6.3
				l-1,0.3C629.2,691.7,627.8,692,626.2,692.3"/>
			<rect x="229" y="678.3" class="st1" width="142.4" height="2.7"/>
			<rect x="652.6" y="678.3" class="st1" width="142.4" height="2.7"/>
		</g>
		<g>
			<g>
				<path class="st1" d="M342.7,605.9c4-3.4,7.5-7.4,10.4-12.1c2.9-4.7,5.1-10.2,6.7-16.3c1.6-6.1,2.4-13.1,2.4-20.7
					c0-10.7-1.5-19.8-4.6-27.2c-3-7.4-7.2-13.4-12.4-18c-5.2-4.6-11.3-7.9-18.2-9.9c-6.8-2-14.1-3-21.6-3c-2.8,0-5.8,0.1-9,0.2
					c-2.6,0.1-5.2,0.2-7.7,0.3l-1.5,0.1c-3,0.1-5.6,0.2-7.9,0.3c-2.3,0.1-3.9,0.2-4.9,0.2c-0.6,0-1.3,0-2.2,0
					c-0.9,0-1.8-0.1-2.7-0.1c-1-0.1-2.2-0.1-3.4-0.2l-0.9,0v0.9l0,0.6c0.3,1.1,0.6,2.5,0.9,4.3c0.3,1.7,0.5,3.9,0.7,6.4
					c0.2,2.5,0.4,5.6,0.5,9.1c0.1,3.5,0.2,7.6,0.2,12.2v53.4c0,4.6-0.1,8.7-0.2,12.1c-0.1,3.4-0.3,6.4-0.5,9
					c-0.2,2.5-0.5,4.6-0.7,6.2c-0.3,1.7-0.6,3.1-0.9,4.2l0,1.4h0.9c1.4,0,3.4,0.1,6,0.2l8.3,0.5c2.9,0.2,5.9,0.3,8.8,0.5
					c3,0.1,5.5,0.2,7.5,0.2c5.8,0,11.5-0.5,17-1.5c5.5-1,10.7-2.6,15.5-4.7C334.2,612,338.7,609.2,342.7,605.9 M297.7,611.5
					c-0.9,0-2,0-3.2-0.1c-1.3-0.1-2.6-0.1-3.9-0.2c-1.3-0.1-2.6-0.2-3.8-0.3c-0.8-0.1-1.6-0.2-2.2-0.3c-0.2-3.2-0.4-7.2-0.5-11.8
					c-0.1-5-0.3-10.3-0.3-15.7c-0.1-5.5-0.1-10.8-0.2-16c0-5.2-0.1-9.6-0.1-13.3c0-1.7,0-3.8,0-6l0.2-14.7c0-2.6,0.1-5.1,0.1-7.5
					l0.3-17c0.8-0.1,1.8-0.1,3-0.2c1.5-0.1,3.1-0.2,4.8-0.3l5.2-0.2c1.7-0.1,3.3-0.1,4.7-0.1c6.9,0,13.1,1.1,18.5,3.4
					c5.3,2.2,9.8,5.6,13.4,10c3.6,4.4,6.4,9.8,8.2,16.2c1.9,6.4,2.8,13.9,2.8,22.1c0,7.4-0.7,14-2,19.4c-1.3,5.5-3.2,10.2-5.4,14
					c-2.3,3.8-5,7-8,9.4c-3,2.4-6.3,4.4-9.8,5.7c-3.5,1.4-7.1,2.3-10.8,2.9C305,611.2,301.3,611.5,297.7,611.5"/>
				<path class="st1" d="M422.6,607.4c-3.8,0.7-8.3,1.3-13.4,1.9c-4.8,0.5-10.1,0.8-15.9,0.8v-40.4l22.8-9.7c0.7-0.7,0.7-1.8,0-2.5
					l-22.8-9.7V509l4.9-0.3c1.6-0.1,3.3-0.2,5-0.3c1.7-0.1,3.2-0.1,4.4-0.1c3.6,0,6.8,0.2,9.7,0.4c2.9,0.3,5.2,0.6,7.1,0.9
					c2.3,0.4,4.2,0.8,5.9,1.3l0.8,0.2l4.6-13.1l-1.5,0.3c-1.3,0.3-3.8,0.5-7.5,0.6c-3.8,0.2-8.3,0.3-13.6,0.4
					c-5.3,0.1-11.2,0.2-17.6,0.2c-6.4,0.1-12.8,0.1-19.3,0.1h-0.9v0.9l0,0.6c0.3,1.1,0.6,2.5,0.9,4.2c0.3,1.7,0.5,3.8,0.7,6.3
					c0.2,2.5,0.3,5.6,0.4,9c0.1,3.4,0.2,7.5,0.2,12.1v20.5l-10.7,4.5c-0.7,0.7-0.7,1.8,0,2.5l10.7,4.4v21.5c0,4.7-0.1,8.8-0.2,12.1
					c-0.1,3.4-0.2,6.4-0.4,9c-0.2,2.5-0.5,4.6-0.7,6.2c-0.3,1.7-0.6,3.1-0.9,4.2l0,1.4h34.4c0.5,0,1.4,0,2.5,0.1l8.8,0.1
					c1.7,0,3.3,0.1,4.8,0.1c1.5,0.1,2.9,0.1,4.1,0.2c1.2,0.1,2.2,0.1,2.8,0.2l0.8,0.1l2.6-15.4l-1.3,0.4
					C431,605.8,427,606.7,422.6,607.4"/>
				<path class="st1" d="M484.4,608.1c-1.4,1.4-3.1,2.5-5.1,3.3c-2,0.8-4.3,1.2-6.8,1.2c-2.8,0-5.3-0.5-7.6-1.5
					c-2.3-1-4.4-2.4-6.2-4.1c-1.8-1.7-3.4-3.7-4.6-5.9c-1.2-2.2-2.2-4.6-2.7-7.1l-0.1-0.7h-3.4l-1.9,19.4l0.4,0.3
					c1.2,0.8,2.7,1.8,4.5,2.8c1.8,1,3.9,1.9,6.2,2.8c2.3,0.9,4.8,1.6,7.5,2.2c2.7,0.6,5.6,0.9,8.6,0.9c5.4,0,10.1-0.9,14-2.8
					c3.9-1.8,7.2-4.2,9.7-7.1c2.5-2.9,4.4-6.3,5.5-9.9c1.2-3.6,1.8-7.3,1.8-11c0-4.9-1.1-9.5-3.2-13.7c-2.1-4.1-4.8-8.2-8-12
					c-3.2-3.8-6.6-7.5-10.3-11c-3.6-3.5-7-7-10.2-10.4c-3.1-3.4-5.7-7-7.8-10.5c-2-3.4-3-7.1-3-10.8c0-2.4,0.3-4.5,1-6.4
					c0.6-1.9,1.6-3.6,2.8-5c1.2-1.4,2.8-2.5,4.6-3.2c1.9-0.8,4-1.2,6.4-1.2c2.7,0,5.1,0.4,7.1,1.3s3.7,2,5.1,3.3
					c1.4,1.3,2.5,2.7,3.4,4.3s1.5,2.9,1.9,4.1l0.2,0.6h3.2l0.6-16.7l-3.7-1.7c-1.3-0.6-2.8-1.2-4.6-1.8c-1.8-0.6-3.8-1.1-6-1.6
					c-2.2-0.4-4.7-0.7-7.3-0.7c-3.6,0-7.2,0.7-10.6,2c-3.4,1.3-6.5,3.3-9.2,5.8c-2.7,2.5-4.9,5.6-6.5,9.2c-1.6,3.6-2.4,7.6-2.4,12.1
					c0,4.2,0.6,8.1,1.8,11.6c1.2,3.5,2.8,6.8,4.8,9.8c1.9,3,4.2,5.9,6.7,8.5c2.4,2.6,5,5.2,7.6,7.7c2.6,2.5,5.1,5,7.6,7.4
					c2.4,2.4,4.6,5,6.5,7.5c1.9,2.6,3.4,5.3,4.6,8.1c1.1,2.8,1.7,5.9,1.7,9.2c0,2.3-0.4,4.5-1.1,6.5
					C486.9,605,485.8,606.7,484.4,608.1"/>
				<path class="st1" d="M594.4,597.6c-0.1,3.6-0.3,6.5-0.5,8.9c-0.2,2.5-0.4,4.6-0.7,6.2c-0.3,1.7-0.6,3.1-0.9,4.2l0,1.4h20.3v-0.9
					l0-0.5c-0.3-1.1-0.6-2.6-0.9-4.2c-0.3-1.7-0.5-3.8-0.7-6.2c-0.2-2.6-0.3-5.6-0.5-9c-0.1-3.4-0.2-7.4-0.2-12.1V568
					c1.2,0.2,2.4,0.3,3.5,0.4c2.8,0.2,5.6,0.2,8.2,0c1-0.1,2-0.2,3.1-0.2l27.2,40.5c1.1,1.7,2.1,3.4,2.9,5c0.8,1.6,1.3,3,1.4,3.9
					l0.1,0.8h24v-1.8l-0.6-0.2c-1-0.4-1.9-0.9-2.8-1.5c-0.9-0.6-1.9-1.5-2.9-2.5s-2.1-2.3-3.3-3.7c-1.1-1.5-2.4-3.2-3.7-5.2
					l-26.7-39.6c2.7-1.4,5.2-3,7.4-5c2.5-2.2,4.6-4.7,6.4-7.5c1.8-2.8,3.1-5.9,4.1-9.4c1-3.4,1.5-7.2,1.5-11.2
					c0-5.1-0.9-9.8-2.7-13.9c-1.8-4-4.3-7.5-7.5-10.3c-3.2-2.8-7-5-11.3-6.4c-4.3-1.4-9-2.2-14-2.2c-5.3,0-9.8,0.3-13.3,0.8
					c-3.4,0.5-6.1,0.8-8.1,0.8c-1.3,0-2.5,0-3.7,0c-1.2,0-2.3-0.1-3.2-0.2l-4.2-0.4v1l0,0.6c0.3,1.1,0.6,2.5,0.9,4.2
					c0.3,1.7,0.5,3.8,0.7,6.3c0.2,2.4,0.3,5.3,0.5,9c0.1,3.4,0.2,7.4,0.2,12.2v53.4C594.6,590.2,594.5,594.2,594.4,597.6
					 M622.9,505.3c3.4,0,6.3,0.6,8.9,1.8c2.5,1.2,4.6,2.9,6.2,5.2c1.7,2.2,2.9,5,3.8,8.2c0.9,3.3,1.3,6.9,1.3,10.9
					c0,4.9-0.6,9.3-1.8,12.9c-1.2,3.6-2.9,6.7-5.1,9.1c-2.1,2.4-4.8,4.2-7.8,5.4c-4.2,1.6-9,2.1-14.4,1.6c-1.2-0.1-2.3-0.3-3.5-0.5
					v-53c1-0.3,2.4-0.7,4.1-1C616.6,505.5,619.4,505.3,622.9,505.3"/>
				<path class="st1" d="M764.7,486.7l-0.8,0.1c-0.7,0.1-1.7,0.1-3.1,0.2c-1.4,0.1-2.9,0.2-4.6,0.2c-1.7,0.1-3.5,0.1-5.3,0.2
					l-9.8,0.2c-1.3,0-2.2,0-2.8,0H689c-0.6,0-1.5,0-2.8,0l-9.8-0.2c-1.9,0-3.6-0.1-5.3-0.2c-1.7-0.1-3.2-0.2-4.6-0.2
					c-1.4-0.1-2.4-0.1-3.1-0.2l-0.8-0.1l-2.8,21.5l1.3-0.5c3.6-1.3,7.7-2.5,12.2-3.5c4-0.9,8.7-1.7,14.1-2.4
					c5.2-0.7,11-1.1,17.4-1.1v50.4l-15.9,6.7c-0.7,0.7-0.7,1.8,0,2.5l15.9,6.5v33.8c0,6-0.1,11.3-0.2,16c0,2-0.1,3.9-0.2,5.6l0,0.4
					L725,643l-0.5-2.8c-0.2-1.1-0.4-2.4-0.6-3.8c-0.3-2.2-0.6-5-0.8-8.2c-0.2-3.4-0.4-7.4-0.5-11.7c-0.1-4.6-0.2-9.9-0.2-15.9v-33.7
					l16-6.8c0.7-0.7,0.7-1.8,0-2.5l-16-6.8v-50.1c6.4,0,12.2,0.4,17.4,1.1c5.4,0.7,10.1,1.5,14.1,2.4c4.5,1.1,8.7,2.2,12.3,3.5
					l1.3,0.5L764.7,486.7z"/>
				<path class="st1" d="M517.3,565.2v21c0,4.7,0,8.8-0.1,12.1c-0.1,3.3-0.3,6.3-0.5,9c-0.2,2.4-0.4,4.5-0.7,6.2
					c-0.3,1.8-0.6,3.1-0.9,4.2l0,1.4h34.4c0.5,0,1.4,0,2.5,0.1l8.8,0.1c1.7,0,3.3,0.1,4.8,0.1c1.5,0.1,2.9,0.1,4.1,0.2
					c1.2,0.1,2.1,0.1,2.8,0.2l0.8,0.1l2.6-15.4l-1.3,0.4c-3.6,1-7.7,1.9-12.1,2.7c-3.8,0.7-8.3,1.3-13.3,1.9
					c-4.8,0.5-10.1,0.8-15.9,0.8v-40.9l21.6-9.2c0.7-0.7,0.7-1.8,0-2.5l-21.6-9.2V509l4.9-0.3c1.6-0.1,3.3-0.2,5-0.3
					c1.7-0.1,3.2-0.1,4.4-0.1c3.6,0,6.8,0.1,9.6,0.4c2.9,0.3,5.2,0.6,7.1,0.9c2.2,0.4,4.2,0.8,5.9,1.3l0.8,0.2l4.6-13.1l-1.5,0.3
					c-1.3,0.3-3.8,0.5-7.5,0.6c-3.7,0.2-8.3,0.3-13.6,0.4c-5.3,0.1-11.2,0.2-17.6,0.2c-6.4,0.1-12.8,0.1-19.3,0.1H515v0.9l0,0.6
					c0.3,1.1,0.6,2.4,0.9,4.2c0.3,1.7,0.5,3.8,0.7,6.3c0.2,2.6,0.4,5.6,0.5,9c0.1,3.4,0.1,7.5,0.1,12.2v20l-11.9,5
					c-0.7,0.7-0.7,1.8,0,2.5L517.3,565.2z"/>
			</g>
			<g>
				<path class="st1" d="M281.3,446.2c-0.1,4.2-0.3,7.8-0.6,10.8c-0.1,1.8-0.6,3.4-1,4.8c-0.3,0.9-0.5,1.8-0.7,2.6
					c-0.1,0.9-1.1,1.9-2,2.8c-0.8,0.9-1.5,1.6-1.8,2.4l0,1.5h10.6c1.9,0,4.1,0.1,6.5,0.2c2.5,0.2,5.1,0.3,7.7,0.5
					c2.6,0.2,5.2,0.4,7.7,0.5c2.6,0.2,4.8,0.2,6.7,0.2c17.5,0,30.9-3.6,39.8-10.6c8.9-7.1,13.4-17.9,13.4-32.1
					c0-5.1-0.9-9.7-2.7-13.9c-1.8-4.1-4.3-7.8-7.6-10.9c-3.2-3.1-7.1-5.7-11.6-7.7c-3.5-1.6-7.4-2.9-11.5-3.8c2.5-0.9,4.9-2,7-3.3
					c3.1-1.9,5.8-4.2,8.1-6.9c2.2-2.7,4-6,5.2-9.7c1.2-3.7,1.8-7.9,1.8-12.5c0-5.5-1-10.5-3.1-14.9c-2-4.4-4.9-8.1-8.4-11
					c-3.6-3-7.8-5.3-12.7-6.9c-4.9-1.6-10.2-2.4-15.9-2.4c-6.1,0-11.2,0.2-15,0.7c-3.8,0.5-6.9,0.7-9.1,0.7h-4.6c-1.5,0-2.8,0-4-0.1
					c-1.4,0-6.2,0-7.4-0.1l-0.9,0v0.9l0,0.6c0.2,0.8,0.9,1.6,1.7,2.5c0.8,1,1.8,2,1.9,3c0.1,0.9,0.5,1.8,0.8,2.7
					c0.4,1.3,0.9,2.8,1.1,4.6c0.3,3,0.4,6.7,0.6,10.9c0.1,4.1,0.2,9,0.2,14.7v23.4l-16.8,7c-0.7,0.7-0.7,1.8,0,2.5l16.8,6.3v25.3
					C281.4,437.2,281.4,442.1,281.3,446.2 M307.8,334.8c1.8-0.2,3.8-0.3,6.2-0.3c3.6,0,6.8,0.6,9.5,1.9c2.7,1.3,5.1,3.1,7,5.4
					c1.9,2.4,3.4,5.3,4.3,8.7c1,3.4,1.5,7.3,1.5,11.5c0,5-0.7,9.5-2,13.3c-1.3,3.7-3.2,6.9-5.6,9.4c-2.4,2.5-5.3,4.3-8.7,5.6
					c-3.4,1.2-7.2,1.9-11.4,1.9c-1.6,0-3.1,0-4.4,0c-1.1,0-2.5-0.1-3.9-0.3v-55.5c0.8-0.3,1.9-0.5,3-0.8
					C304.6,335.2,306.1,335,307.8,334.8 M316.9,400.8c5,0,9.5,0.7,13.2,2.2c3.7,1.4,6.9,3.5,9.3,6.1c2.4,2.6,4.3,5.8,5.6,9.4
					c1.2,3.6,1.9,7.7,1.9,12.1c0,11.2-2.7,19.5-7.9,24.8c-5.2,5.3-13.7,8-25.2,8c-1.4,0-3.3-0.1-5.7-0.4c-2.2-0.2-4.3-0.5-6.5-0.8
					c-0.4-3.1-0.7-7-1-11.6c-0.2-5-0.4-11.4-0.4-19.1v-29.3c1.5-0.3,3.5-0.6,5.9-0.8C309.2,401,312.7,400.8,316.9,400.8"/>
				<path class="st1" d="M379,437.9c-0.1,3.5-0.3,6.5-0.5,9c-0.2,2.5-0.5,4.6-0.7,6.2c-0.3,1.7-0.6,3.1-0.9,4.2l0,1.4h34.4
					c0.5,0,1.4,0,2.5,0.1l8.8,0.1c1.7,0,3.3,0.1,4.8,0.1c1.5,0.1,2.9,0.1,4.1,0.2c1.2,0.1,2.1,0.1,2.8,0.2l0.8,0.1l2.6-15.4
					l-1.3,0.4c-3.6,1-7.7,1.9-12.1,2.7c-3.8,0.7-8.3,1.3-13.4,1.9c-4.8,0.5-10.1,0.8-15.9,0.8v-77.4c0-4.6,0.1-8.7,0.2-12.1
					c0.1-3.5,0.3-6.5,0.5-9c0.2-2.5,0.4-4.6,0.7-6.3c0.3-1.7,0.6-3.1,0.9-4.2l0-1.4h-20.3v0.9l0,0.6c0.3,1.1,0.6,2.5,0.9,4.2
					c0.3,1.7,0.5,3.8,0.7,6.3c0.2,2.5,0.4,5.5,0.5,9c0.1,3.5,0.1,7.6,0.1,12.1v53.4C379.1,430.4,379.1,434.5,379,437.9"/>
				<path class="st1" d="M457,457.3l-0.1-0.2c0,0-0.1-0.1-0.2-0.7c-0.1-0.4-0.1-0.9-0.1-1.6c0-2.4,0.4-4.7,1.3-7
					c0.9-2.4,1.7-4.6,2.5-6.6l8.7-21.1c2.9-0.1,6.1-0.1,9.7-0.1h27.4c4.5,0,8.2,0,11,0.1l9.2,21.8c1.2,3,2,5.5,2.5,7.5
					c0.4,2,0.6,3.8,0.6,5.5c0,0.4,0,0.9-0.1,1.4c-0.1,0.6-0.1,0.9-0.2,1l0,1.5h23v-1.5l-0.2-0.2c-0.2-0.2-0.5-0.8-1.4-2.2
					c-0.7-1.2-1.5-2.6-2.5-4.4c-0.9-1.7-1.9-3.7-3-5.9c-1-2.2-2.1-4.5-3-6.8l-42.3-100.8h-7.4l-44.7,104.8c-1.6,4-3.2,7.3-4.5,9.9
					c-1.4,2.6-2.5,4.4-3.4,5.4l-0.2,0.2v1.5H457L457,457.3z M472.6,411.1l20.1-49.3l20.5,49c-1.9,0-4,0.1-6.3,0.1l-18,0.2
					c-3.2,0-6.2,0-9.2,0H472.6z"/>
				<path class="st1" d="M639.8,456.3l0.3-0.1l6.4-17.7l-2-1.4l-0.5,0.6c-1.9,2.3-4,4.4-6.2,6.1c-2.3,1.8-4.7,3.3-7.3,4.6
					c-2.5,1.2-5.3,2.2-8.1,2.8c-1.6,0.4-3.3,0.6-4.9,0.8V347.2c3.4,0.6,6.6,1.5,9.6,2.7c5.4,2.3,10.1,5.4,13.9,9.3l0.4,0.4l1.9-0.9
					l-5.5-16.3l-0.4-0.2c-8.3-3.2-17.5-4.9-27.3-4.9c-6.3,0-12.2,0.8-17.6,2.4c-5.4,1.6-10.4,3.8-14.9,6.6c-4.5,2.8-8.5,6.2-12.1,10
					c-3.5,3.8-6.5,8.1-8.9,12.7c-2.4,4.6-4.2,9.5-5.5,14.5c-1.3,5.1-1.9,10.3-1.9,15.5c0,9.3,1.6,17.8,4.7,25.4
					c3.1,7.6,7.5,14.2,13.2,19.6c5.6,5.4,12.4,9.7,20.2,12.6c7.8,3,16.5,4.5,25.8,4.5c4.6,0,9.3-0.4,13.9-1.3
					C631.7,459.1,636,457.9,639.8,456.3 M593.5,447.7c-5.8-3-10.7-7.1-14.6-12.3c-3.9-5.2-6.9-11.4-8.8-18.5c-2-7.1-3-14.9-3-23.2
					c0-7.5,1.1-14.2,3.1-20.1c2.1-5.8,5-10.8,8.7-14.8c3.7-4,8.2-7.1,13.3-9.2c1.4-0.6,2.8-1.1,4.3-1.5V449
					C595.5,448.6,594.5,448.2,593.5,447.7 M610.4,452c-2.3-0.1-4.6-0.4-6.8-0.9V346.9c1.9-0.2,3.7-0.4,5.7-0.4c0.4,0,0.7,0,1.1,0
					V452z"/>
				<path class="st1" d="M750.8,454.7c-0.9-0.6-1.9-1.4-2.9-2.3c-1.1-1-2.3-2.2-3.7-3.6c-1.4-1.4-3.1-3.3-5.1-5.4l-47.6-55.3
					l39.4-34.9c3.5-3.1,6.8-5.7,9.9-7.9c3-2.1,6.1-3.5,9-4.3l0.7-0.2v-1.9h-23.5v0.9c0,2.9-2.5,6.5-7.3,10.7l-43.9,37.9v-16.4
					c0-4.6,0.1-8.6,0.2-12.2c0.1-3.4,0.3-6.4,0.5-9c0.2-2.5,0.4-4.6,0.7-6.3c0.3-1.6,0.6-3,0.9-4.2l0-1.4h-20.3v0.9l0,0.6
					c0.3,1.1,0.6,2.5,0.9,4.2c0.3,1.7,0.5,3.8,0.7,6.3c0.2,2.5,0.4,5.6,0.5,9c0.1,3.5,0.1,7.6,0.1,12.2v53.4c0,4.6-0.1,8.7-0.1,12.2
					c-0.1,3.4-0.3,6.4-0.5,8.9c-0.2,2.5-0.5,4.6-0.7,6.3c-0.3,1.7-0.6,3.1-0.9,4.2l0,1.4h20.3v-0.9l0-0.5c-0.3-1.1-0.6-2.5-0.9-4.2
					c-0.3-1.7-0.5-3.8-0.7-6.2c-0.2-2.5-0.4-5.5-0.5-8.9c-0.1-3.5-0.2-7.6-0.2-12.2v-31.3l47.1,54.7c0.7,0.8,1.4,1.6,2.1,2.5
					c0.7,0.9,1.4,1.7,2,2.5c0.6,0.8,1.2,1.6,1.7,2.3c0.5,0.7,0.8,1.3,1,1.8l0.2,0.5H754v-1.7l-0.4-0.3
					C752.6,455.9,751.7,455.3,750.8,454.7"/>
			</g>
		</g>
	</g>
</g>
</svg>
