<?xml version="1.0" encoding="utf-8"?>
<!-- Generator: Adobe Illustrator 21.0.0, SVG Export Plug-In . SVG Version: 6.00 Build 0)  -->
<svg version="1.1" xmlns="http://www.w3.org/2000/svg" xmlns:xlink="http://www.w3.org/1999/xlink" x="0px" y="0px"
	 viewBox="0 0 1024 1024" style="enable-background:new 0 0 1024 1024;" xml:space="preserve">
<style type="text/css">
	.st0{fill:#66BB6A;}
	.st1{fill:#FFFFFF;}
</style>
<g id="Guides">
</g>
<g id="Icon">
	<circle class="st0" cx="512" cy="512" r="512"/>
	<g id="Crowdin_Symbol_1_">
		<path class="st1" d="M781.5,449.4c1.3,0,2.2-1.1,2.2-2.4c0-1.1-0.8-2-1.9-2.2c-17.7-3.5-45.7-6.4-76.5-6.4
			c-68.9,0-151.5,14.8-162.5,71.7c-0.4,2.1-1.2,12.9-1.5,15c6.3,1,10.9,1.8,14.5,2.3c-0.4,2.9-0.6,5.7-0.7,8.6
			c-0.1,5.3,0,10.2,0.3,14.9c-4.4-0.6-9-1.2-13.6-1.9c5.6,58.9,37.9,75.7,71.8,76.4h2.4c21.4,0,43.2-6.2,59-12
			c1.2-0.4,1.8-1.7,1.4-2.9c-0.4-1-1.4-1.7-2.5-1.5c-31.2,4.2-79.8-1.1-69-79.4C614,464.9,737.7,452,781.5,449.4z M550.5,518.1
			c0.2-2.7,0.5-5.5,0.6-6.3c8.8-45.6,84.9-63.4,125.6-63.4c-38.6,9.1-79.2,26.6-87.8,59.6c-0.8,3.1-2.2,8.8-3.3,13.8
			c-7.5-0.8-11.4-1-14.7-1.2C564.1,520.2,557.2,519.3,550.5,518.1z M616.1,617.1c-36.7,0-57.8-19-64.4-58.1
			c10.7,1.5,21.7,2.7,32.8,3.1c4.6,32.1,19.8,47.6,35.9,54.9C618.9,617,617.5,617.1,616.1,617.1L616.1,617.1z"/>
		<path class="st1" d="M415.9,495.2c-0.6,3.3-1.9,19.6-2.2,22.7c9.5,1.3,16.1,2.3,21.8,2.9c-0.5,3.8-0.8,7.6-0.9,11.4
			c-0.2,8.8,0,17,0.6,24.7c-6.8-0.9-13.6-1.9-20.7-2.9c8.6,91.4,59.7,116,112.2,116c8.6,0,17.2-0.6,25.7-1.8
			c29.8-3.1,58.6-13.4,77.4-21.5c1.1-0.5,1.6-1.9,1.1-3c-0.4-0.9-1.4-1.5-2.5-1.3C584,651.1,491.9,654,510.1,522.7
			c14.2-102.6,218.7-117.7,275.5-120c1.3,0,2.3-1.1,2.2-2.3c0-1.1-0.8-2-1.8-2.2c-25.8-6-72.4-11.6-124.2-11.6
			C557.5,386.6,432.5,409.1,415.9,495.2z M526.6,661.6c-58.9,0-93.4-32.8-102.5-97.6c19.4,2.9,39,4.8,58.6,5.5
			c7.4,60.9,39.1,83.4,71.2,90C544.9,660.8,535.8,661.5,526.6,661.6z M489.8,492.9c-1.5,5.7-4,16.4-5.7,24.5
			c-14.2-1.6-23-2.4-30.3-3.1c-10.5-1-17.1-1.7-31-3.6c0.5-5.3,1.1-12.3,1.3-13.9c17.8-91.8,172.2-101.7,237.7-101.7
			c5,0,10,0,14.9,0.1C596.8,402.7,507.2,426.3,489.8,492.9z"/>
		<path class="st1" d="M265.8,446.1v0.2V446.1z"/>
		<path class="st1" d="M265.6,447.2c0,0.1,0,0.3-0.1,0.4c0,0.1-0.1,0.2-0.1,0.4c0.1-0.6,0.2-1.1,0.3-1.6
			C265.7,446.6,265.6,446.9,265.6,447.2z"/>
		<path class="st1" d="M262.7,462.2c0.3-1.9,0.7-3.8,1-5.7C263.4,458.4,263.1,460.4,262.7,462.2z"/>
		<path class="st1" d="M264,455.1c0.3-1.8,0.7-3.5,1-5.1C264.7,451.6,264.4,453.3,264,455.1z"/>
		<path class="st1" d="M818.8,351.4c-47-18.1-162.5-42.4-276.9-42.4c-127.9,0-254.7,30.3-283.9,133.4c-1.3,4.8-5.4,29.2-6.4,33.9
			c13.9,3.6,23.7,6,31.4,7.8c-0.9,4.8-1.8,9.6-2.3,14.6c-1.5,14.1-2.4,27.2-2.7,39.7c-9.9-2.3-20-4.8-30.3-7.5
			c0,154.3,88,191.9,173.7,191.9c12.2,0,24.4-0.7,36.5-2.1c38.4-4.2,75.9-15,99.4-22.8c1.2-0.4,1.8-1.7,1.4-2.9
			c-0.3-1-1.4-1.7-2.4-1.5c-61.8,7.6-210.7,6.1-164.2-198.5c36-158,355.5-144.2,425.6-139.3c1.3,0.1,2.3-0.9,2.4-2.1
			C820.3,352.7,819.7,351.8,818.8,351.4z M263.8,456.6c-0.3,1.9-0.7,3.8-1,5.7C263.1,460.4,263.4,458.4,263.8,456.6L263.8,456.6z
			 M265,450c-0.3,1.5-0.6,3.3-1,5.1C264.4,453.3,264.7,451.6,265,450L265,450z M388.9,675.9c19.3,19.4,45,31.3,76.6,35.5
			c-14.6,2-29.3,3-44,3.1c-106.3,0-161.8-58-165.1-172.5c28.7,7.2,61,14.4,92.7,18.2C349.9,611.1,363.2,650.1,388.9,675.9z
			 M651.6,333c-157.1,0-254.5,40.8-281.8,118.1c-3.1,8.7-9.1,27.2-12.8,39.6c-8.6-1.8-15.6-3.3-21.5-4.5c-9.4-1.9-16-3.2-21.8-4.3
			c-14.1-2.7-22.3-3.4-52.4-11.8c0.1-0.4,0.2-0.8,0.2-1.2c1.1-6.2,2.7-15.5,3.8-20.7c0-0.2,0.1-0.4,0.1-0.6s0-0.3,0.1-0.4
			c0.1-0.5,0.2-0.9,0.3-1.2s0.1-0.6,0.2-0.8v-0.3c29.8-105.2,166.4-127.1,275.8-127.1l0,0c66.1,0,131.7,8.1,184,18.2
			C703,334.3,677.8,333,651.6,333z"/>
		<path class="st1" d="M266.1,444.9c0,0,0,0.2,0,0.2s-0.1,0.5-0.2,0.8c0,0.1,0,0.2,0,0.2C265.9,445.6,266,445.2,266.1,444.9z"/>
	</g>
</g>
</svg>
