<?xml version="1.0" encoding="utf-8"?>
<!-- Generator: Adobe Illustrator 21.0.0, SVG Export Plug-In . SVG Version: 6.00 Build 0)  -->
<svg version="1.1" xmlns="http://www.w3.org/2000/svg" xmlns:xlink="http://www.w3.org/1999/xlink" x="0px" y="0px"
	 viewBox="0 0 1024 1024" style="enable-background:new 0 0 1024 1024;" xml:space="preserve">
<style type="text/css">
	.st0{fill:#286090;}
	.st1{fill:#FFFFFF;}
</style>
<g id="Guides">
</g>
<g id="Icon">
	<circle class="st0" cx="512" cy="512" r="512"/>
	<g id="layer1" transform="translate(21.42857,-101.6479)" inkscape:groupmode="layer" inkscape:label="Layer 1">
		<path id="path4093" inkscape:connector-curvature="0" class="st1" d="M560.2,825.7c-14.4-20-36.8-51.3-49.8-69.5
			c-13.3-18.6-24.1-33.1-24.7-33.1c-0.6,0-21.5,28.1-49.5,66.5c-26.7,36.6-48.7,66.5-49,66.5c-0.8,0-96.1-67.2-96.4-67.9
			c-0.1-0.3,21.4-32,47.9-70.3s48.1-70.3,48.1-71c0-1.2-8.6-4.2-75.8-26.6c-41.7-13.9-76.3-25.4-76.8-25.6
			c-0.7-0.3,3.3-13.6,16.9-56.5c9.8-30.9,18-56.4,18.3-56.8c0.3-0.3,36.5,11.3,80.6,25.8c44,14.5,80.4,26.3,80.9,26.3s1-0.7,1.1-1.5
			s0.6-38.3,0.8-83.3c0.3-45,0.8-82.2,1.1-82.7c0.4-0.7,12.8-0.8,58.2-0.8c31.7,0,58,0.2,58.4,0.5c0.5,0.3,1.4,25.1,2.8,80.7
			c2.4,91.3,2.4,92.5,3.9,92.5c0.6,0,35.5-11.7,77.6-26c42.1-14.3,76.7-25.7,77-25.4c0.9,1,35.4,113.4,35,113.8
			c-0.2,0.2-35.4,12.3-78.1,26.7c-58.8,19.9-77.7,26.6-77.9,27.4c-0.1,0.6,20.1,30.8,45.8,68.4c25.3,37,45.9,67.6,45.8,67.9
			c-0.3,0.8-94.9,70.5-95.7,70.5C586.5,862.1,574.5,845.7,560.2,825.7L560.2,825.7z"/>
	</g>
</g>
</svg>
