<?xml version="1.0" encoding="utf-8"?>
<!-- Generator: Adobe Illustrator 21.0.0, SVG Export Plug-In . SVG Version: 6.00 Build 0)  -->
<svg version="1.1" xmlns="http://www.w3.org/2000/svg" xmlns:xlink="http://www.w3.org/1999/xlink" x="0px" y="0px"
	 viewBox="0 0 1024 1024" style="enable-background:new 0 0 1024 1024;" xml:space="preserve">
<style type="text/css">
	.st0{fill:#0366D6;}
	.st1{fill:#FFFFFF;}
</style>
<g id="Guides">
</g>
<g id="Icon">
	<circle class="st0" cx="512" cy="512" r="512"/>
	<path class="st1" d="M511.9,262.2c-141.5,0-256.1,114.7-256.1,256.1c0,113.2,73.4,209.2,175.1,243c12.8,2.4,17.5-5.5,17.5-12.3
		c0-6.1-0.2-22.2-0.3-43.5c-71.2,15.5-86.3-34.4-86.3-34.4c-11.7-29.6-28.5-37.5-28.5-37.5c-23.2-15.9,1.8-15.6,1.8-15.6
		c25.7,1.8,39.2,26.4,39.2,26.4c22.8,39.2,60,27.9,74.6,21.3c2.3-16.6,8.9-27.9,16.2-34.3c-56.9-6.4-116.7-28.4-116.7-126.6
		c0-28,9.9-50.8,26.4-68.7c-2.9-6.5-11.5-32.5,2.2-67.8c0,0,21.5-6.9,70.4,26.3c20.5-5.7,42.3-8.5,64-8.6c21.8,0.1,43.5,2.9,64,8.6
		c48.7-33.1,70.1-26.3,70.1-26.3c13.8,35.3,5.1,61.3,2.6,67.8c16.3,17.9,26.3,40.8,26.3,68.7c0,98.4-59.9,120.1-116.9,126.4
		c9,7.7,17.3,23.4,17.3,47.4c0,34.3-0.3,61.8-0.3,70.1c0,6.7,4.5,14.7,17.6,12.2C694.7,727.4,768,631.4,768,518.3
		C768,376.9,653.3,262.2,511.9,262.2"/>
</g>
</svg>
