<?xml version="1.0" encoding="utf-8"?>
<!-- Generator: Adobe Illustrator 21.0.0, SVG Export Plug-In . SVG Version: 6.00 Build 0)  -->
<svg version="1.1" xmlns="http://www.w3.org/2000/svg" xmlns:xlink="http://www.w3.org/1999/xlink" x="0px" y="0px"
	 viewBox="0 0 1024 1024" style="enable-background:new 0 0 1024 1024;" xml:space="preserve">
<style type="text/css">
	.st0{fill:#FF3344;}
	.st1{fill:#FFFFFF;}
</style>
<g id="Guides">
</g>
<g id="Icon">
	<circle class="st0" cx="512" cy="512" r="512"/>
	<path id="Logo" class="st1" d="M512,576.1l77.3-215.6l161,0h10.4c0,0,24.1,1.2,35.4-12.7c6.7-0.5-1.4,28.9-9,50.5
		c-7.1,20.3-16,31.9-36.1,31.9l-25.8,0h-65.1l-96.6,275.8h-103l-96.6-275.8h-65.1l-25.8,0c-20.1,0-28.9-11.6-36.1-31.9
		c-7.6-21.6-15.7-51-9-50.5c11.3,13.9,35.4,12.7,35.4,12.7h10.4l161,0L512,576.1L512,576.1z M302,468.4c0,0-24.1,1.2-35.4-12.7
		c-6.7-0.5,1.4,28.9,9,50.5c7.1,20.3,16,31.9,36.1,31.9l71.6,0l-24.1-69.7L302,468.4z M340.6,576.1c0,0-24.1,1.2-35.4-12.7
		c-6.7-0.5,1.4,28.9,9,50.5c7.1,20.3,16,31.9,36.1,31.9l71.6,0l-24.1-69.7L340.6,576.1z M722,468.4c0,0,24.1,1.2,35.4-12.7
		c6.7-0.5-1.4,28.9-9,50.5c-7.1,20.3-16,31.9-36.1,31.9l-71.6,0l24.1-69.7L722,468.4z M683.4,576.1c0,0,24.1,1.2,35.4-12.7
		c6.7-0.5-1.4,28.9-9,50.5c-7.1,20.3-16,31.9-36.1,31.9l-71.6,0l24.1-69.7L683.4,576.1z"/>
</g>
</svg>
