<?xml version="1.0" encoding="utf-8"?>
<!-- Generator: Adobe Illustrator 21.0.0, SVG Export Plug-In . SVG Version: 6.00 Build 0)  -->
<svg version="1.1" xmlns="http://www.w3.org/2000/svg" xmlns:xlink="http://www.w3.org/1999/xlink" x="0px" y="0px"
	 viewBox="0 0 1024 1024" style="enable-background:new 0 0 1024 1024;" xml:space="preserve">
<style type="text/css">
	.st0{fill:#DADADA;}
	.st1{opacity:0.9961;}
</style>
<g id="Min_Guides__x28_DO_NOT_REMOVE_x29_">
</g>
<g id="Max_Guides__x28_DO_NOT_REMOVE_x29_">
</g>
<g id="Icon">
	<circle id="Background" class="st0" cx="512" cy="512" r="512"/>
	<path class="st1" d="M766.7,551.8c0,0,0-0.1,0-0.1L642.1,325.7l16.2-69.5c0-0.2,0-0.3-0.1-0.4c-0.1-0.1-0.3-0.2-0.4-0.2
		c-36.9,4.4-67.5,9.4-97.1,31.2c-55.6-3.9-105.2,1.5-147.4,15.9c-37.6,12.8-69.4,32.9-94.6,59.6c-25.2,26.7-43.3,59.2-53.7,96.5
		c-9,32.4-11.6,66.7-7.5,99.1c7.1,52.4,30.5,99.3,67.8,135.7c33.9,33.1,77.5,56.5,126.3,67.8c20.8,4.8,41.6,7.2,62,7.2
		c23.8,0,47-3.3,68.9-9.8c43-12.8,77.8-37.7,100.7-71.8c0.1-0.2,0.1-0.5-0.1-0.7c-0.2-0.2-0.5-0.1-0.7,0
		c-75.8,78.4-200,91.9-295.3,32.1c-99.7-62.5-137.8-187.1-86.8-283.7c50.8-96.1,140.9-137.4,253.9-116.4c0.1,0,0.2,0,0.3-0.1
		c2.4-1.4,4.8-2.8,7.3-4.3c23-13.6,49.1-28.9,71.8-29l-17.5,50.1c0,0.1,0,0.3,0,0.4l133.2,223.2c-2.4,30.2-17.6,45.8-30,53.5
		c-12.2,7.6-24,9.4-26.2,9.7c-5.7-14.5-16-29.5-50.6-62.9c-8.9-8.6-25.9-20.1-45.6-33.4c-55.7-37.7-132.1-89.4-119.3-135.4
		c0.1-0.3-0.1-0.5-0.3-0.6c-0.3-0.1-0.5,0.1-0.6,0.3c-7.3,25.5,2.6,53.2,30.2,84.9c23.5,26.9,55.7,51.8,81.6,71.8
		c14.3,11,26.7,20.6,35,28.4c37.1,34.9,55.8,61.3,60.5,70.5c0.1,0.2,0.3,0.3,0.6,0.3c0.2-0.1,24.9-6.7,47.2-21.5
		C761.2,604.4,773.4,579.4,766.7,551.8z"/>
</g>
</svg>
