<?xml version="1.0" encoding="utf-8"?>
<!-- Generator: Adobe Illustrator 21.0.0, SVG Export Plug-In . SVG Version: 6.00 Build 0)  -->
<svg version="1.1" xmlns="http://www.w3.org/2000/svg" xmlns:xlink="http://www.w3.org/1999/xlink" x="0px" y="0px"
	 viewBox="0 0 1024 1024" style="enable-background:new 0 0 1024 1024;" xml:space="preserve">
<style type="text/css">
	.st0{fill:#48E0A4;}
	.st1{fill:#FFFFFF;}
</style>
<g id="Min_Guides__x28_DO_NOT_REMOVE_x29_">
</g>
<g id="Max_Guides__x28_DO_NOT_REMOVE_x29_">
</g>
<g id="Icon">
	<circle id="Background" class="st0" cx="512" cy="512" r="512"/>
	<path class="st1" d="M336.4,466.5v14h0.8c25-15.1,50.8-16.3,66.2-16.3c41.6,0,55.9,11.7,61.1,16.2c9.6-5.5,30.1-16.6,65.8-16.6
		c71,0,71,28,71,39V569h-57v-58.5c0-12.1,0-25.6-30.4-25.6c-15,0-30.5,4.6-35.9,11.3c-5.1,5.7-7.1,10.9-7.1,23.6v49.6h-57v-56.5
		c0-17.4,0.4-28-29.6-28c-15.1,0-30.5,4-36.3,9.9c-4.6,4.5-7.5,9.3-7.5,24.4v50h-57.3v-103h53C336.2,466.3,336.4,466.5,336.4,466.5z
		 M739.3,489.3h-41.4v41.2c0,14.5,0,19.3,16.9,19.3c8,0,15.2-0.9,22.8-2.4l1.7-0.2l5.4,20.9c-20,3.7-42,4.1-48.2,4.1
		c-18.6,0-42.7-2.7-51.6-10.4c-7.6-6.3-8.5-12.4-8.5-28v-44.6h-28.1v-21.5h28.1v-20.3l61.8-15.9v36.3h41.6v21.5
		C739.7,489.2,739.3,489.3,739.3,489.3z M255.5,627.5c-22.7-34.3-37.8-75-37.8-116c0-48.4,19-87.8,38.3-115.5h23
		c-17,37.8-28.6,69.9-28.6,116.5c0,53.5,19,94.8,27.6,113.5c0.3,0,0.8,1.1,0.8,1.5H255.5z M768.5,396.5c22.7,34.3,37.8,75,37.8,116
		c0,48.3-19,87.8-38.3,115.5h-23c17-37.8,28.7-69.9,28.7-116.5c0-53.6-19.1-94.7-27.7-113.5c-0.3-0.2-0.8-1.2-0.8-1.5L768.5,396.5
		L768.5,396.5z"/>
</g>
</svg>
