<?xml version="1.0" encoding="utf-8"?>
<!-- Generator: Adobe Illustrator 21.0.0, SVG Export Plug-In . SVG Version: 6.00 Build 0)  -->
<svg version="1.1" xmlns="http://www.w3.org/2000/svg" xmlns:xlink="http://www.w3.org/1999/xlink" x="0px" y="0px"
	 viewBox="0 0 1024 1024" style="enable-background:new 0 0 1024 1024;" xml:space="preserve">
<style type="text/css">
	.st0{fill:#EF7C29;}
	.st1{fill:#FFFFFF;}
</style>
<g id="Guides">
</g>
<g id="Icon">
	<circle class="st0" cx="512" cy="512" r="512"/>
	<g id="layer6_1_" transform="translate(-33.024334,-1337.6177)">
		<g id="g4668_1_" transform="matrix(0.13327437,0,0,0.13327437,30.356488,1335.1328)">
			<g id="g4663_1_">
				<path id="path4497" class="st1" d="M5593.5,2664.9c-126.1-79.7-276-108.6-435.2-98c-470.4,31.1-1022.8,405.9-1290,828.8
					c-357.5,566.2-242.8,1280.5,256.4,1595.7c146.3,92.4,309.4,139.9,475.9,147c401.3,17.1,822.2-201.7,1074.9-601.7
					C6032.9,3970.7,6092.6,2979.8,5593.5,2664.9"/>
				<path id="path4491_1_" class="st1" d="M4249.6,2573c-19.6,0.1-39.4,0.8-59.3,2.1c-470.5,31.1-1022.9,406-1289.9,828.9
					c-357.6,566.1-242.8,1280.4,256.3,1595.7c146.3,92.3,309.4,139.8,475.8,146.8c166.9,7.2,335.1-21.9,495.2-92.4
					c-794.9-415.1-607-1306.9-363.3-1660.2c188.5-298.6,529.6-579.1,867.3-717c-2-1.3-4-2.6-6-3.9
					C4515.2,2603.3,4386.7,2572.6,4249.6,2573z"/>
				<path id="path4485_1_" class="st1" d="M3329.7,2581c-483.3-1-1074.7,388.7-1353.9,831c-357.5,566.2-242.8,1280.4,256.4,1595.7
					c287.2,181.3,639.2,190.9,954.4,58.3c-41.9-18.6-82.8-40.3-122.5-65.4c-499.1-315.3-613.7-1029.5-256.4-1595.7
					c192.5-304.9,533.5-584.9,885.1-729C3585.4,2610.6,3461.6,2581.2,3329.7,2581z"/>
			</g>
		</g>
	</g>
</g>
</svg>
