<?xml version="1.0" encoding="utf-8"?>
<!-- Generator: Adobe Illustrator 21.0.0, SVG Export Plug-In . SVG Version: 6.00 Build 0)  -->
<svg version="1.1" xmlns="http://www.w3.org/2000/svg" xmlns:xlink="http://www.w3.org/1999/xlink" x="0px" y="0px"
	 viewBox="0 0 1024 1024" style="enable-background:new 0 0 1024 1024;" xml:space="preserve">
<style type="text/css">
	.st0{fill:#29D7A4;}
	.st1{fill-rule:evenodd;clip-rule:evenodd;fill:#FFFFFF;}
</style>
<g id="Min_Guides__x28_DO_NOT_REMOVE_x29_">
</g>
<g id="Max_Guides__x28_DO_NOT_REMOVE_x29_">
</g>
<g id="Icon">
	<circle id="Background" class="st0" cx="512" cy="512" r="512"/>
	<path class="st1" d="M697.4,367.1H547.5l86.8-86.8l-21.5-21.5L512.4,359.2L410.5,258.8L389,280.3l86.1,86.1H327.3
		c-22.3-0.4-40.6,17.8-40.2,40.2v236c0,21.8,17.7,39.4,39.4,39.4h46.6l25.8,40.9c1.7,2.7,4.7,4.3,7.9,4.3c3.5,0.3,6.8-1.4,8.6-4.3
		l25.8-40.9h136.3l25.8,40.9c1.9,2.9,5.2,4.6,8.6,4.3c3.6,0,6.4-1.5,7.9-4.3l25.8-40.9h51.6c21.8,0,39.4-17.7,39.4-39.4V405.8
		C736.5,384.4,718.9,367.1,697.4,367.1z"/>
</g>
</svg>
