<?xml version="1.0" encoding="utf-8"?>
<!-- Generator: Adobe Illustrator 21.0.0, SVG Export Plug-In . SVG Version: 6.00 Build 0)  -->
<svg version="1.1" xmlns="http://www.w3.org/2000/svg" xmlns:xlink="http://www.w3.org/1999/xlink" x="0px" y="0px"
	 viewBox="0 0 1024 1024" style="enable-background:new 0 0 1024 1024;" xml:space="preserve">
<style type="text/css">
	.st0{fill:#FFFC00;}
	.st1{fill:#231F20;}
</style>
<g id="Guides">
</g>
<g id="Icon">
	<circle class="st0" cx="512" cy="512" r="512"/>
	<g>
		<title>Snapchat icon</title>
		<path class="st1" d="M516.4,272.9c21.1,0,92.7,5.9,126.5,81.5c11.3,25.5,8.6,68.7,6.4,103.4l-0.1,1.3c-0.3,3.8-0.5,7.4-0.6,10.9
			c1.6,1,4.3,1.9,8.6,1.9c6.4-0.3,14.1-2.6,22-6.4c3.5-1.9,7.3-2.2,9.9-2.2c3.9,0,7.7,0.6,10.9,1.9c9.6,3.2,15.7,10.2,15.7,17.9
			c0.3,9.6-8.3,17.9-25.9,24.9c-1.9,0.6-4.5,1.6-7.3,2.5c-9.6,2.9-24.3,7.7-28.4,17.3c-1.9,4.8-1.3,11.2,2.6,18.5l0.3,0.3
			c1.3,2.9,32.6,74.1,102.2,85.6c5.4,0.9,9.3,5.8,9,10.9c0,1.6-0.3,3.2-1,4.8c-5.1,12.1-27.2,21.1-67.1,27.1
			c-1.3,1.9-2.6,8-3.5,12.2c-0.6,3.8-1.6,7.7-2.9,11.8c-1.6,5.8-5.8,8.6-11.8,8.6h-0.6c-2.9,0-6.7-0.7-11.5-1.6
			c-7.7-1.6-16.3-2.9-27.2-2.9c-6.4,0-12.8,0.3-19.5,1.6c-12.8,2.2-24,9.9-36.8,18.9c-18.2,12.8-39,27.5-70.3,27.5
			c-1.3,0-2.5-0.3-3.8-0.3h-3.2c-31.3,0-51.8-14.4-70-27.5c-12.8-9-23.6-16.6-36.4-18.9c-6.7-1-13.4-1.6-19.8-1.6
			c-11.5,0-20.4,1.9-27.1,3.2c-4.5,0.9-8.3,1.6-11.5,1.6c-8,0-11.2-4.8-12.4-9c-1.3-4.1-1.9-8.3-2.9-12.1c-1-3.9-2.2-10.5-3.5-12.2
			c-40.9-4.7-62.9-13.7-68-26.2c-0.7-1.3-1.1-3.2-1.2-4.8c-0.3-5.2,3.5-9.9,9-10.9c69.6-11.5,100.9-82.8,102.2-85.8l0.3-0.6
			c3.8-7.4,4.8-13.8,2.5-18.5c-4.2-9.3-18.9-14-28.4-17.3c-2.6-0.6-5.1-1.6-7.4-2.5c-23.6-9.3-26.8-19.8-25.5-27.2
			c1.9-10.2,14.4-16.9,24.9-16.9c3.1,0,5.8,0.6,8.2,1.6c9,4.1,16.8,6.4,23.6,6.4c5,0,8.2-1.3,9.9-2.2l-1-12.1
			c-2.1-34.7-4.8-77.9,6.5-103.2c32.8-75.2,104.2-81,125.3-81l8.9-0.3L516.4,272.9L516.4,272.9z"/>
	</g>
</g>
</svg>
