<?xml version="1.0" encoding="utf-8"?>
<!-- Generator: Adobe Illustrator 21.0.0, SVG Export Plug-In . SVG Version: 6.00 Build 0)  -->
<svg version="1.1" xmlns="http://www.w3.org/2000/svg" xmlns:xlink="http://www.w3.org/1999/xlink" x="0px" y="0px"
	 viewBox="0 0 1024 1024" style="enable-background:new 0 0 1024 1024;" xml:space="preserve">
<style type="text/css">
	.st0{fill:#1387B8;}
	.st1{fill:#FFFFFF;}
</style>
<g id="Guides">
</g>
<g id="Icon">
	<circle class="st0" cx="512" cy="512" r="512"/>
	<g>
		<title>Steam icon</title>
		<path class="st1" d="M511.6,256c-134.4,0-244.6,103.7-255.1,235.4l137.2,56.7c11.6-7.9,25.7-12.6,40.8-12.6c1.3,0,2.7,0.1,4,0.1
			l61-88.4v-1.3c0-53.2,43.3-96.5,96.5-96.5c53.2,0,96.5,43.3,96.5,96.6s-43.3,96.5-96.5,96.5h-2.2l-87,62.1c0,1.1,0.1,2.2,0.1,3.4
			c0,40-32.3,72.4-72.3,72.4c-34.9,0-64.3-25-71.1-58.2l-98.2-40.7C295.7,689.2,394.4,768,511.6,768c141.4,0,256-114.6,256-256
			S652.9,256,511.6,256z M416.9,644.5l-31.4-13c5.6,11.6,15.2,21.3,28,26.7c27.7,11.5,59.6-1.6,71.1-29.3
			c5.6-13.4,5.6-28.1,0.1-41.6c-5.5-13.4-16-23.9-29.4-29.5c-13.3-5.5-27.5-5.3-40.1-0.6l32.5,13.4c20.4,8.5,30.1,32,21.5,52.4
			C460.8,643.3,437.3,653,416.9,644.5L416.9,644.5z M660.4,446c0-35.5-28.9-64.3-64.3-64.3c-35.5,0-64.3,28.9-64.3,64.3
			c0,35.5,28.8,64.3,64.3,64.3C631.5,510.3,660.4,481.5,660.4,446z M547.9,445.9c0-26.7,21.6-48.3,48.3-48.3
			c26.6,0,48.3,21.6,48.3,48.3c0,26.7-21.7,48.3-48.3,48.3C569.5,494.2,547.9,472.6,547.9,445.9z"/>
	</g>
</g>
</svg>
