<?xml version="1.0" encoding="utf-8"?>
<!-- Generator: Adobe Illustrator 21.0.0, SVG Export Plug-In . SVG Version: 6.00 Build 0)  -->
<svg version="1.1" xmlns="http://www.w3.org/2000/svg" xmlns:xlink="http://www.w3.org/1999/xlink" x="0px" y="0px"
	 viewBox="0 0 1024 1024" style="enable-background:new 0 0 1024 1024;" xml:space="preserve">
<style type="text/css">
	.st0{fill:#A800FF;}
	.st1{fill:#FFFFFF;}
</style>
<g id="Guides">
</g>
<g id="Icon">
	<circle class="st0" cx="512" cy="512" r="512"/>
	<path class="st1" d="M758.6,511.8C753.1,249.5,404.3,151.7,270,397.5c6,4.4,14.1,10.2,20.1,14.3c-9.9,20.8-16.9,42.8-20.8,65.4
		c-2.6,14.6-3.9,29.4-3.9,44.2c0,136,110.5,246.5,246.8,246.5s246.5-110.3,246.5-246.5V511.8L758.6,511.8z M326.2,555.7
		c-3.2,26.6-1.2,34.9-1.2,38.2l-6,2.1c-2.3-4.4-7.9-19.9-10.4-40.7c-6.5-79.3,47.6-150.8,130.2-164.2
		c75.6-11.1,148,35.8,164.9,101.5l-6,2.1c-1.9-1.9-4.9-7.2-16.4-18.7C489.9,384.6,346.5,426.4,326.2,555.7L326.2,555.7z
		 M560.9,600.1c-12.6,18.1-33.2,28.9-55.3,28.9c-37.1,0-67.3-30-67.3-67.1c0-0.1,0-0.1,0-0.2c0.1-35.2,27.3-64.5,62.4-67.1
		c21.7-0.9,42.1,10.9,51.6,29.8c10.4,20.9,6.6,46.1-9.7,62.9C548.9,591.8,554.9,595.9,560.9,600.1L560.9,600.1z M701.3,602.6
		c-35.6,80.7-108.9,123-187.1,121.9c-150.1-7.4-193.8-180.6-93.4-243l4.4,4.4c-1.6,2.3-7.6,6.9-16.9,25.2
		c-10.9,22.2-14.3,44.4-12.9,58.3c7.9,121,177.4,145.7,235.6,25.9c74.2-164-122.8-330.7-297.6-203.3l-3.9-3.9
		c46-72.1,136-104.3,221.8-82.8C682.3,338.3,752.9,475,701.3,602.6L701.3,602.6z"/>
</g>
</svg>
