<?xml version="1.0" encoding="utf-8"?>
<!-- Generator: Adobe Illustrator 21.0.0, SVG Export Plug-In . SVG Version: 6.00 Build 0)  -->
<svg version="1.1" xmlns="http://www.w3.org/2000/svg" xmlns:xlink="http://www.w3.org/1999/xlink" x="0px" y="0px"
	 viewBox="0 0 1024 1024" style="enable-background:new 0 0 1024 1024;" xml:space="preserve">
<style type="text/css">
	.st0{fill:#AAB0C6;}
	.st1{fill:#FFFFFF;}
</style>
<g id="Guides">
</g>
<g id="Icon">
	<circle class="st0" cx="512" cy="512" r="512"/>
	<path class="st1" d="M333.9,435.8h49.6l-2,5.1c-1.1,2.8-13.9,37.7-28.7,77.4l-26.8,72.2l-26.4,0.2l-26.5,0.3l-29-76.7
		c-15.9-42.2-29.1-77.2-29.3-77.6c-0.2-0.5,11.2-0.9,25.2-0.9h25.5l3.4,11c2,6.1,9.6,30.7,17.1,54.7c7.6,24,13.8,43.2,14.1,42.7
		c0.3-0.5,7.9-25,17.1-54.7L333.9,435.8z M420.4,434.3c-18.2,2.9-31.5,12.6-37.6,27.1c-3.1,7.6-6,20-4.8,21.2
		c0.8,0.8,42.1,4.2,43.2,3.5c0.4-0.2,0.7-1.5,0.7-2.7c0-3.7,3.7-12.7,6.2-15c3-2.9,8.8-5.1,13.2-5.1c7.1,0.1,14.6,5,16.9,11.1
		c4.1,10.7-2.9,20.8-27.7,39.8c-27.3,20.8-41,34.9-48.1,49.7c-3.8,7.8-7.2,18-7.8,23.2l-0.3,3.4h129.6l0.3-17.5l0.2-17.4h-33.6
		l-33.7-0.1l5.4-4.8c2.9-2.7,8.9-7.4,13.3-10.5c21.8-15.4,32.5-24.8,38.5-34.1c9.2-14,11-32.2,4.3-46.2
		c-5.8-12.3-15.9-20.1-31.2-24.1v0C457,433,432.9,432.2,420.4,434.3z M782.9,549.9c-13.9-21.2-25.3-38.8-25.3-39.1
		c0-0.4,10.6-17.2,23.6-37.3c13-20.2,23.6-37,23.6-37.3c0-0.3-11.9-0.5-26.3-0.5h-26.3l-12.7,22.6c-6.9,12.5-12.9,22.8-13.3,23.1
		c-0.3,0.2-6.6-10-13.8-22.6l-13.2-23.1h-26.7c-14.7,0-26.8,0.2-26.8,0.4c0,0.2,10.7,16.7,23.8,36.6c13.1,19.8,23.7,36.6,23.7,37.3
		c0,0.7-10.8,17.4-24,37.2l-24,36l-0.3-13.8l-0.3-13.9l-40.9-0.2l-40.9-0.3v-29.5l37.1-0.3l37-0.2l-0.2-16l-0.3-15.9l-37-0.3
		l-37.1-0.2v-23.6h80.5v-16.7l0,0v-16.7H514.1v155.1l90.5-0.2l90.5-0.3l14.5-23.6c8.1-13,14.8-23.7,15.3-23.8
		c0.4-0.2,7.3,10.5,15.4,23.8l14.6,24h27.4c21.6,0,27.2-0.3,26.6-1.3C808.6,589,796.9,571.1,782.9,549.9z"/>
</g>
</svg>
