<svg xmlns="http://www.w3.org/2000/svg" id="Layer_1" data-name="Layer 1" viewBox="0 0 1024 1024">
   <defs>
      <style>
         .cls-2,.cls-3,.cls-5,.cls-6{fill:none;stroke-miterlimit:10}.cls-2{stroke:#262525}.cls-3{stroke:#64ff00}.cls-5,.cls-6{stroke:#000}.cls-6{stroke-dasharray:11.87 11.87}.cls-10{fill:#fff}
      </style>
   </defs>
   <g id="Icon_grid" data-name="Icon grid">
      <g id="Other_shape_guides" data-name="Other shape guides" style="opacity:.75">
         <path d="M707.64 806.5H316.35v-589h391.29z" class="cls-2"/>
         <path d="M781.98 762.38h-540V260.62h540z" class="cls-2"/>
         <path d="M826.13 737H197.88V287h628.25z" class="cls-2"/>
         <path d="M811 690.57H213V333.43h598z" class="cls-2"/>
      </g>
      <g id="_1:1_shape_guides" data-name="1:1 shape guides">
         <circle cx="511.98" cy="511.5" r="285" class="cls-3"/>
         <circle cx="511.98" cy="511.5" r="285" style="stroke-dasharray:11.94 11.94;stroke:#000;fill:none;stroke-miterlimit:10"/>
         <path d="M749.5 749.5h-475v-475h475z" class="cls-3"/>
         <path d="M274.5 280.5v-6h6" class="cls-5"/>
         <path d="M292.37 274.5h445.19" class="cls-6"/>
         <path d="M743.5 274.5h6v6" class="cls-5"/>
         <path d="M749.5 292.37v445.19" class="cls-6"/>
         <path d="M749.5 743.5v6h-6" class="cls-5"/>
         <path d="M731.63 749.5H286.44" class="cls-6"/>
         <path d="M280.5 749.5h-6v-6" class="cls-5"/>
         <path d="M274.5 731.63V286.44" class="cls-6"/>
      </g>
      <path id="Caution" d="M512 47C255.19 47 47 255.19 47 512s208.19 465 465 465 465-208.19 465-465S768.81 47 512 47Zm0 853.71c-214.68 0-388.71-174-388.71-388.71S297.32 123.29 512 123.29 900.71 297.32 900.71 512 726.68 900.71 512 900.71Z" style="fill:#ff0;opacity:.8"/>
      <path id="Danger" d="M512 2C230.89 2 3 229.89 3 511s227.89 509 509 509 509-227.89 509-509S793.11 2 512 2Zm0 934.49C277 936.49 86.51 746 86.51 511S277 85.51 512 85.51 937.49 276 937.49 511 747 936.49 512 936.49Z" style="fill:#f7931e;opacity:.9"/>
      <path id="The_NO_Zone" d="M512 0C229.23 0 0 229.23 0 512s229.23 512 512 512 512-229.23 512-512S794.77 0 512 0Zm384 768a464.58 464.58 0 0 1-184 160H312a464.58 464.58 0 0 1-184-160V256A464.45 464.45 0 0 1 314.15 95h395.7A464.45 464.45 0 0 1 896 256v512Z" data-name="The NO Zone" style="fill:#ff0049;opacity:.75"/>
      <g id="TNZ_text_right_" data-name="TNZ text (right)">
         <path d="M960.64 371.85V361.4h-29.9v-10.8h29.9v-10.45h9.4v31.7h-9.4z"/>
         <path d="M968.54 341.65v28.7h-6.4V359.9h-29.9v-7.8h29.9v-10.45h6.4m3-3h-12.4v10.45h-29.9v13.8h29.9v10.45h12.4v-34.7Z" class="cls-10"/>
         <path d="M930.74 401.13v-10.7h17.83a4.4 4.4 0 0 0 2.89-.78 2.79 2.79 0 0 0 .81-2.24 3.94 3.94 0 0 0-.74-2.44 1.88 1.88 0 0 0-1.66-.8h-19.13v-10.7h41.48v10.7h-13.56a10.26 10.26 0 0 1 .72.83 9.37 9.37 0 0 1 1.82 5.88 9.61 9.61 0 0 1-3.15 7.46c-2 1.84-4.89 2.78-8.44 2.78Z"/>
         <path d="M970.72 375v7.7h-16.54v.3a9.23 9.23 0 0 1 4 2.94 7.88 7.88 0 0 1 1.51 5 8.13 8.13 0 0 1-2.65 6.34q-2.65 2.39-7.44 2.39h-17.36v-7.7h16.33a5.78 5.78 0 0 0 3.87-1.14 4.22 4.22 0 0 0 1.33-3.38 5.44 5.44 0 0 0-1-3.33 3.37 3.37 0 0 0-2.86-1.4h-17.67V375h38.48m3-3h-44.48v13.7h20.63c.31 0 .35.06.45.19a2.42 2.42 0 0 1 .45 1.54 1.63 1.63 0 0 1-.29 1.11 3.3 3.3 0 0 1-1.91.42h-19.33v13.7h20.37c3.94 0 7.12-1.06 9.44-3.16a11 11 0 0 0 3.64-8.57 11.53 11.53 0 0 0-1.14-5.22h12.16V372Z" class="cls-10"/>
         <path d="M942.28 432.9v-5.7l-5.87 5.4-1-.81a13.79 13.79 0 0 1-3.86-5.12 18.21 18.21 0 0 1-1.43-7.54c0-4.84 1.4-8.64 4.16-11.28s6.53-4 11.28-4 8.61 1.32 11.4 3.91a13.9 13.9 0 0 1 4.25 10.64c0 4.4-1.39 7.95-4.13 10.55s-6.42 3.9-11 3.9Zm0-18.27a3.66 3.66 0 0 0-2.09 1.1 5.12 5.12 0 0 0-1.15 3.65 7.37 7.37 0 0 0 2.79 5.93l.44.38Zm7.32 7.64a3.81 3.81 0 0 0 2-.94 3.65 3.65 0 0 0 1.06-2.83 3.81 3.81 0 0 0-1.08-2.9 3.72 3.72 0 0 0-2-1Z"/>
         <path d="M945.55 405.4q6.6 0 10.37 3.51t3.77 9.54q0 6-3.67 9.46t-10 3.48h-2.29V413h-.47a5.5 5.5 0 0 0-4.21 1.66 6.58 6.58 0 0 0-1.56 4.68 8.87 8.87 0 0 0 3.33 7.07l-4.52 4.16a12.25 12.25 0 0 1-3.43-4.58 16.66 16.66 0 0 1-1.3-6.92q0-6.66 3.69-10.19t10.24-3.54m2.55 18.46h.42a5.82 5.82 0 0 0 4.13-1.43 5.11 5.11 0 0 0 1.53-3.93 5.28 5.28 0 0 0-1.53-4 5.7 5.7 0 0 0-4.13-1.48h-.42v10.82m-2.55-21.46c-5.15 0-9.29 1.47-12.32 4.37s-4.62 7.09-4.62 12.36a19.69 19.69 0 0 0 1.57 8.16 15.27 15.27 0 0 0 4.28 5.67l2 1.62 1.9-1.75 2.41-2.21v3.78h5.29c5 0 9-1.45 12-4.31s4.6-6.82 4.6-11.64-1.59-8.82-4.73-11.74-7.25-4.31-12.42-4.31Zm-4.77 18.79a6.5 6.5 0 0 1-.24-1.81 5.48 5.48 0 0 1 .24-1.74v3.54Zm10.32-1.85v-1.68a3.78 3.78 0 0 1 .08.84 3.68 3.68 0 0 1-.08.83Z" class="cls-10"/>
         <path d="M930.74 494.73V482.8l18.29-6.27h-18.29v-9.66h39.3v11.94l-18.3 6.26h18.3v9.66h-39.3z"/>
         <path d="M968.54 468.37v9.36L944.41 486v.57h24.13v6.66h-36.3v-9.36l24.13-8.27v-.6h-24.13v-6.66h36.3m3-3h-42.3V478H940l-8.76 3-2 .69v14.5h42.3v-12.62h-10.79l8.76-3 2-.69v-14.5Z" class="cls-10"/>
         <path d="M950.39 527.7c-6.36 0-11.35-1.28-14.82-3.8-3.62-2.63-5.46-6.63-5.46-11.9s1.83-9.27 5.46-11.9 8.46-3.8 14.82-3.8 11.34 1.28 14.82 3.8 5.46 6.63 5.46 11.9-1.83 9.27-5.46 11.9-8.46 3.8-14.82 3.8Zm-3.17-20.07a12.94 12.94 0 0 0-6.22 1.15c-.68.39-1.59 1.16-1.59 3.23a3.27 3.27 0 0 0 1.61 3.22 13.11 13.11 0 0 0 6.25 1.15h6.29a12.94 12.94 0 0 0 6.22-1.15c.68-.39 1.59-1.16 1.59-3.23s-.91-2.83-1.59-3.22a12.93 12.93 0 0 0-6.22-1.15Z"/>
         <path d="M950.39 497.8q9.1 0 13.94 3.51t4.83 10.69q0 7.18-4.84 10.69t-13.94 3.51q-9.1 0-13.94-3.51T931.62 512q0-7.18 4.84-10.69t13.94-3.51m-3.12 20.07h6.29q4.63 0 7-1.35a5.54 5.54 0 0 0 0-9q-2.34-1.35-7-1.35h-6.34q-4.63 0-7 1.35a5.53 5.53 0 0 0 0 9q2.37 1.35 7 1.35m3.12-23.07c-6.68 0-12 1.37-15.7 4.08-4 2.93-6.07 7.34-6.07 13.11s2 10.19 6.07 13.11c3.73 2.71 9 4.08 15.7 4.08s12-1.37 15.7-4.08c4-2.93 6.07-7.34 6.07-13.11s-2-10.19-6.07-13.11c-3.73-2.71-9-4.08-15.7-4.08Zm-3.12 20.07c-3.17 0-4.74-.52-5.51-1-.32-.18-.85-.49-.85-1.92s.53-1.74.84-1.93c.75-.43 2.31-1 5.47-1h6.34c3.16 0 4.72.52 5.47.95.32.18.84.49.84 1.93s-.53 1.75-.84 1.93c-.75.43-2.31.95-5.47.95Z" class="cls-10"/>
         <path d="M930.74 588.95v-29.16h8.8l21.1 15.45v-14.92h9.4v28.11h-8.81l-21.09-15.44v15.96h-9.4z"/>
         <path d="m939.05 561.29 23.09 16.9v-16.37h6.4v25.12h-6.81L938.64 570v17.42h-6.4v-26.13h6.81m1-3h-10.81v32.16h12.4v-14.51L960 589.35l.79.58h10.79v-31.11h-12.4v13.47l-18.32-13.41-.79-.58Z" class="cls-10"/>
         <path d="M945.66 620.57c-4.71 0-8.52-1.35-11.3-4s-4.24-6.36-4.24-11 1.43-8.29 4.24-11 6.59-4 11.3-4 8.51 1.35 11.3 4 4.24 6.36 4.24 11-1.43 8.29-4.24 11-6.59 4-11.3 4Zm-2.13-19a5.2 5.2 0 0 0-3.57 1.07 4.43 4.43 0 0 0 0 5.88 5.21 5.21 0 0 0 3.57 1.07h4.26a5.21 5.21 0 0 0 3.57-1.07 4.43 4.43 0 0 0 0-5.88 5.21 5.21 0 0 0-3.57-1.07Z"/>
         <path d="M945.66 592.13q6.5 0 10.27 3.59t3.77 9.88q0 6.29-3.77 9.88t-10.27 3.59q-6.5 0-10.27-3.59t-3.77-9.88q0-6.29 3.77-9.88t10.27-3.59m-2.13 19h4.26a6.59 6.59 0 0 0 4.58-1.46 5.91 5.91 0 0 0 0-8.11 6.59 6.59 0 0 0-4.58-1.46h-4.26a6.59 6.59 0 0 0-4.58 1.46 5.91 5.91 0 0 0 0 8.11 6.59 6.59 0 0 0 4.58 1.46m2.13-22c-5.11 0-9.26 1.49-12.34 4.41s-4.7 7-4.7 12.05 1.58 9.08 4.7 12.05 7.23 4.41 12.34 4.41 9.26-1.49 12.34-4.41 4.7-7 4.7-12.05-1.58-9.08-4.7-12.05-7.23-4.41-12.34-4.41Zm-2.13 19a3.83 3.83 0 0 1-2.56-.68 3 3 0 0 1 0-3.66 3.83 3.83 0 0 1 2.57-.68h4.26a3.83 3.83 0 0 1 2.57.68 2.16 2.16 0 0 1 .62 1.83 2.2 2.2 0 0 1-.62 1.83 3.83 3.83 0 0 1-2.56.68Z" class="cls-10"/>
         <path d="M930.74 650.73V640h17.83a4.41 4.41 0 0 0 2.89-.78 2.79 2.79 0 0 0 .8-2.24 3.94 3.94 0 0 0-.74-2.43 1.88 1.88 0 0 0-1.66-.8h-19.12v-10.7h29.83v10.7h-1.92a10.4 10.4 0 0 1 .72.83 9.37 9.37 0 0 1 1.82 5.88 9.61 9.61 0 0 1-3.15 7.46c-2 1.84-4.89 2.78-8.44 2.78Z"/>
         <path d="M959.07 624.58v7.7h-4.89v.31a9.23 9.23 0 0 1 4 2.94 7.88 7.88 0 0 1 1.51 5 8.13 8.13 0 0 1-2.65 6.34q-2.65 2.39-7.44 2.39h-17.36v-7.7h16.33a5.78 5.78 0 0 0 3.87-1.14 4.22 4.22 0 0 0 1.33-3.38 5.43 5.43 0 0 0-1-3.33 3.37 3.37 0 0 0-2.86-1.4h-17.67v-7.7h26.83m3-3h-32.83v13.7h20.63c.31 0 .35.06.45.19a2.41 2.41 0 0 1 .45 1.54 1.63 1.63 0 0 1-.29 1.11 3.31 3.31 0 0 1-1.91.41h-19.33v13.7h20.37c3.94 0 7.12-1.06 9.44-3.16a11.05 11.05 0 0 0 3.64-8.57 11.53 11.53 0 0 0-1.14-5.22h.52v-13.7Z" class="cls-10"/>
         <path d="M942.28 682.5v-5.7l-5.87 5.4-1-.81a13.79 13.79 0 0 1-3.86-5.12 18.2 18.2 0 0 1-1.43-7.54c0-4.84 1.4-8.64 4.16-11.28s6.53-4 11.28-4 8.61 1.32 11.4 3.91A13.9 13.9 0 0 1 961.2 668c0 4.39-1.39 7.94-4.13 10.55s-6.42 3.9-11 3.9Zm0-18.27a3.66 3.66 0 0 0-2.09 1.1A5.12 5.12 0 0 0 939 669a7.37 7.37 0 0 0 2.79 5.93l.44.38Zm7.32 7.64a3.8 3.8 0 0 0 2-.94 3.65 3.65 0 0 0 1.06-2.83 3.81 3.81 0 0 0-1.08-2.9 3.73 3.73 0 0 0-2-1Z"/>
         <path d="M945.55 655q6.6 0 10.37 3.51t3.78 9.49q0 6-3.67 9.46t-10 3.48h-2.29v-18.3h-.47a5.5 5.5 0 0 0-4.21 1.66 6.58 6.58 0 0 0-1.56 4.68 8.86 8.86 0 0 0 3.33 7.07l-4.52 4.16a12.25 12.25 0 0 1-3.43-4.58 16.66 16.66 0 0 1-1.3-6.92q0-6.66 3.69-10.19t10.28-3.52m2.55 18.46h.42a5.82 5.82 0 0 0 4.13-1.43 5.11 5.11 0 0 0 1.53-3.93 5.28 5.28 0 0 0-1.53-4 5.7 5.7 0 0 0-4.13-1.48h-.42v10.82M945.55 652c-5.15 0-9.29 1.47-12.32 4.37s-4.62 7.09-4.62 12.36a19.69 19.69 0 0 0 1.57 8.16 15.27 15.27 0 0 0 4.28 5.67l2 1.62 1.9-1.75 2.41-2.21V684h5.29c5 0 9-1.45 12-4.31s4.6-6.82 4.6-11.64-1.59-8.82-4.73-11.74-7.21-4.31-12.38-4.31Zm-4.77 18.79a6.5 6.5 0 0 1-.24-1.81 5.48 5.48 0 0 1 .24-1.74v3.54Zm10.32-1.85v-1.68a3.78 3.78 0 0 1 .08.84 3.69 3.69 0 0 1-.08.84Z" class="cls-10"/>
      </g>
      <g id="TNZ_text_left_" data-name="TNZ text (left)">
         <path d="M53.96 683.85v-31.71h9.4v10.46h29.9v10.8h-29.9v10.45h-9.4z"/>
         <path d="M61.86 653.64v10.46h29.9v7.8h-29.9v10.45h-6.4v-28.71h6.4m3-3h-12.4v34.71h12.4V674.9h29.9v-13.8h-29.9v-10.46Z" class="cls-10"/>
         <path d="M51.78 650.52v-10.7h13.56a10.25 10.25 0 0 1-.72-.83 9.37 9.37 0 0 1-1.82-5.88 9.6 9.6 0 0 1 3.15-7.46c2-1.84 4.89-2.78 8.44-2.78h18.87v10.7H75.43a4.41 4.41 0 0 0-2.9.78 2.79 2.79 0 0 0-.8 2.24 3.94 3.94 0 0 0 .75 2.44 1.88 1.88 0 0 0 1.65.8h19.13v10.7Z"/>
         <path d="M91.76 624.37v7.7H75.43a5.78 5.78 0 0 0-3.87 1.14 4.22 4.22 0 0 0-1.33 3.38 5.44 5.44 0 0 0 1 3.33 3.37 3.37 0 0 0 2.86 1.4h17.67V649H53.28v-7.7h16.53v-.3a9.24 9.24 0 0 1-4-2.94 7.88 7.88 0 0 1-1.51-5 8.13 8.13 0 0 1 2.7-6.3q2.65-2.39 7.44-2.39h17.32m3-3H74.39c-3.94 0-7.12 1.06-9.44 3.16a11 11 0 0 0-3.64 8.57 11.53 11.53 0 0 0 1.14 5.22H50.28V652h44.48v-13.7H74.13c-.31 0-.35-.06-.45-.19a2.42 2.42 0 0 1-.45-1.54 1.63 1.63 0 0 1 .29-1.11 3 3 0 0 1 1.91-.41h19.33v-13.7Z" class="cls-10"/>
         <path d="M78.44 620.1c-4.77 0-8.61-1.32-11.4-3.91a13.89 13.89 0 0 1-4.25-10.64c0-4.39 1.39-7.95 4.13-10.55s6.42-3.9 11-3.9h3.79v5.7l5.87-5.4 1 .81a13.79 13.79 0 0 1 3.86 5.12 18.21 18.21 0 0 1 1.43 7.54c0 4.84-1.4 8.64-4.15 11.28s-6.53 3.95-11.28 3.95Zm3.27-10.73a3.65 3.65 0 0 0 2.09-1.1 5.12 5.12 0 0 0 1.2-3.66 7.37 7.37 0 0 0-2.79-5.93l-.44-.37Zm-7.32-7.64a3.8 3.8 0 0 0-2 .94 3.65 3.65 0 0 0-1.06 2.83 3.81 3.81 0 0 0 1.08 2.9 3.72 3.72 0 0 0 2 1Z"/>
         <path d="M80.21 592.6V611h.47a5.49 5.49 0 0 0 4.21-1.66 6.58 6.58 0 0 0 1.56-4.68 8.87 8.87 0 0 0-3.33-7.07l4.52-4.16a12.25 12.25 0 0 1 3.44 4.57 16.66 16.66 0 0 1 1.3 6.92q0 6.66-3.69 10.19t-10.25 3.49q-6.6 0-10.37-3.51t-3.77-9.54q0-6 3.67-9.46t10-3.48h2.29M75.48 611h.42v-10.86h-.42a5.82 5.82 0 0 0-4.13 1.43 5.11 5.11 0 0 0-1.53 3.93 5.28 5.28 0 0 0 1.53 4 5.7 5.7 0 0 0 4.13 1.5m12-21.53-1.9 1.75-2.41 2.21v-3.83h-5.25c-5 0-9 1.45-12 4.31s-4.6 6.82-4.6 11.64 1.59 8.82 4.73 11.74 7.25 4.31 12.42 4.31 9.29-1.47 12.32-4.37 4.62-7.09 4.62-12.36a19.68 19.68 0 0 0-1.57-8.16 15.27 15.27 0 0 0-4.31-5.71l-2-1.62Zm-4.31 16.92v-3.59a6.49 6.49 0 0 1 .24 1.81 5.47 5.47 0 0 1-.24 1.74Zm-10.32 0a3.78 3.78 0 0 1-.08-.84 3.69 3.69 0 0 1 .08-.84v1.68Z" class="cls-10"/>
         <path d="M53.96 557.13V545.2l18.29-6.27H53.96v-9.66h39.3v11.93l-18.3 6.27h18.3v9.66h-39.3z"/>
         <path d="M91.76 530.77v9.36l-24.13 8.27v.6h24.13v6.66h-36.3v-9.36l24.13-8.3v-.57H55.46v-6.66h36.3m3-3h-42.3v12.66h10.79l-8.76 3-2 .69v14.5h42.3V546H84l8.76-3 2-.69v-14.5Z" class="cls-10"/>
         <path d="M73.61 527.7c-6.36 0-11.35-1.28-14.82-3.8s-5.46-6.63-5.46-11.9 1.84-9.27 5.45-11.9 8.46-3.8 14.82-3.8 11.35 1.28 14.82 3.8 5.46 6.63 5.46 11.9-1.84 9.27-5.46 11.9-8.42 3.8-14.81 3.8Zm-3.17-20.07a13 13 0 0 0-6.22 1.15c-.68.39-1.59 1.16-1.59 3.23s.91 2.83 1.59 3.23a12.93 12.93 0 0 0 6.22 1.15h6.34a12.93 12.93 0 0 0 6.22-1.17c.68-.39 1.59-1.16 1.59-3.23a3.26 3.26 0 0 0-1.59-3.21 13.09 13.09 0 0 0-6.25-1.15Z"/>
         <path d="M73.61 497.8q9.1 0 13.94 3.51T92.38 512q0 7.18-4.84 10.69t-13.93 3.51q-9.1 0-13.94-3.51T54.84 512q0-7.18 4.84-10.69t13.94-3.51m-3.17 20.07h6.34q4.63 0 7-1.35a5.53 5.53 0 0 0 0-9q-2.37-1.35-7-1.35h-6.35q-4.63 0-7 1.35a5.54 5.54 0 0 0 0 9q2.34 1.35 7 1.35m3.17-23.07c-6.68 0-12 1.37-15.7 4.08-4 2.93-6.07 7.34-6.07 13.11s2 10.19 6.07 13.11c3.73 2.71 9 4.08 15.7 4.08s12-1.37 15.7-4.08c4-2.92 6.07-7.34 6.07-13.11s-2-10.19-6.07-13.11c-3.73-2.71-9-4.08-15.7-4.08Zm-3.17 20.07c-3.16 0-4.72-.52-5.47-.95-.32-.18-.84-.49-.84-1.93s.53-1.74.84-1.93c.75-.43 2.31-.95 5.47-.95h6.29c3.17 0 4.74.52 5.51 1 .32.18.85.49.85 1.92s-.53 1.74-.84 1.93c-.75.43-2.31.95-5.47.95Z" class="cls-10"/>
         <path d="m84.45 464.2-21.09-15.44v14.93h-9.4v-28.12h8.8l21.1 15.44v-15.96h9.4v29.15h-8.81z"/>
         <path d="M91.76 436.55v26.15h-6.82l-23.08-16.9v16.38h-6.4v-25.11h6.81L85.36 454v-17.45h6.4m3-3h-12.4v14.51L64 434.65l-.79-.58H52.46v31.12h12.4v-13.47l18.32 13.41.79.58h10.79v-32.16Z" class="cls-10"/>
         <path d="M78.34 433.37c-4.71 0-8.51-1.35-11.3-4s-4.24-6.36-4.24-11 1.43-8.29 4.24-11 6.59-4 11.3-4 8.51 1.35 11.3 4 4.24 6.36 4.24 11-1.43 8.29-4.24 11-6.59 4-11.3 4Zm-2.13-19a5.21 5.21 0 0 0-3.57 1.07 4.43 4.43 0 0 0 0 5.88 5.21 5.21 0 0 0 3.57 1.07h4.26a5.2 5.2 0 0 0 3.53-1.05 4.43 4.43 0 0 0 0-5.89 5.21 5.21 0 0 0-3.57-1.07Z"/>
         <path d="M78.34 404.93q6.5 0 10.27 3.59t3.77 9.88q0 6.29-3.77 9.88t-10.27 3.59q-6.5 0-10.27-3.59t-3.77-9.88q0-6.29 3.77-9.88t10.27-3.59m-2.13 19h4.26a6.59 6.59 0 0 0 4.53-1.47 5.91 5.91 0 0 0 0-8.11 6.59 6.59 0 0 0-4.58-1.46h-4.21a6.6 6.6 0 0 0-4.58 1.46 5.91 5.91 0 0 0 0 8.11 6.59 6.59 0 0 0 4.58 1.46m2.13-22c-5.11 0-9.26 1.49-12.34 4.41s-4.7 7-4.7 12.05 1.58 9.08 4.7 12.05 7.23 4.42 12.34 4.42 9.26-1.49 12.34-4.42 4.7-7 4.7-12.05-1.58-9.08-4.7-12.05-7.23-4.41-12.34-4.41Zm-2.13 19a3.83 3.83 0 0 1-2.57-.68 3 3 0 0 1 0-3.66 3.83 3.83 0 0 1 2.56-.68h4.26a3.83 3.83 0 0 1 2.57.68 3 3 0 0 1 0 3.66 3.83 3.83 0 0 1-2.57.68Z" class="cls-10"/>
         <path d="M63.42 400.92v-10.7h1.92a10.16 10.16 0 0 1-.72-.83 9.37 9.37 0 0 1-1.82-5.88 9.61 9.61 0 0 1 3.15-7.46c2-1.84 4.88-2.78 8.44-2.78h18.87V384H75.43a4.41 4.41 0 0 0-2.89.78 2.79 2.79 0 0 0-.81 2.24 3.94 3.94 0 0 0 .75 2.44 1.88 1.88 0 0 0 1.65.8h19.13v10.7Z"/>
         <path d="M91.76 374.77v7.7H75.43a5.78 5.78 0 0 0-3.87 1.14 4.22 4.22 0 0 0-1.33 3.39 5.44 5.44 0 0 0 1 3.33 3.36 3.36 0 0 0 2.86 1.4h17.67v7.7H64.92v-7.7h4.89v-.31a9.23 9.23 0 0 1-4-2.94 7.88 7.88 0 0 1-1.51-5 8.13 8.13 0 0 1 2.7-6.31q2.65-2.39 7.44-2.39h17.32m3-3H74.39c-3.94 0-7.12 1.06-9.44 3.16a11.05 11.05 0 0 0-3.64 8.57 11.53 11.53 0 0 0 1.14 5.22h-.52v13.7h32.83v-13.7H74.13c-.31 0-.35-.06-.45-.19a2.42 2.42 0 0 1-.45-1.54 1.63 1.63 0 0 1 .29-1.11 3 3 0 0 1 1.91-.42h19.33v-13.7Z" class="cls-10"/>
         <path d="M78.44 370.5c-4.77 0-8.61-1.32-11.4-3.91A13.9 13.9 0 0 1 62.8 356c0-4.39 1.39-7.94 4.13-10.55s6.42-3.9 11-3.9h3.79v5.7l5.87-5.4 1 .81a13.78 13.78 0 0 1 3.86 5.12 18.21 18.21 0 0 1 1.43 7.54c0 4.84-1.4 8.64-4.15 11.28s-6.54 3.9-11.29 3.9Zm3.27-10.73a3.66 3.66 0 0 0 2.09-1.1A5.12 5.12 0 0 0 85 355a7.37 7.37 0 0 0-2.79-5.93l-.44-.38Zm-7.32-7.65a3.8 3.8 0 0 0-2 .94 3.65 3.65 0 0 0-1.06 2.83 3.81 3.81 0 0 0 1.08 2.9 3.72 3.72 0 0 0 2 1Z"/>
         <path d="M80.21 343v18.36h.47a5.5 5.5 0 0 0 4.21-1.66 6.58 6.58 0 0 0 1.56-4.7 8.87 8.87 0 0 0-3.33-7.07l4.52-4.16a12.25 12.25 0 0 1 3.43 4.58 16.66 16.66 0 0 1 1.3 6.92q0 6.66-3.69 10.19T78.44 369q-6.6 0-10.37-3.51T64.3 356q0-6 3.67-9.46t10-3.48h2.29m-4.73 18.36h.42v-10.88h-.42a5.82 5.82 0 0 0-4.18 1.46 5.11 5.11 0 0 0-1.53 3.93 5.28 5.28 0 0 0 1.53 4 5.7 5.7 0 0 0 4.13 1.48m12-21.53-1.9 1.75-2.41 2.21V340h-5.25c-5 0-9 1.45-12 4.31s-4.6 6.82-4.6 11.64 1.59 8.82 4.73 11.74S73.28 372 78.44 372s9.29-1.47 12.32-4.37 4.62-7.09 4.62-12.36a19.68 19.68 0 0 0-1.57-8.16 15.27 15.27 0 0 0-4.28-5.67l-2-1.62Zm-4.31 16.92v-3.54a6.49 6.49 0 0 1 .24 1.81 5.47 5.47 0 0 1-.24 1.74Zm-10.32 0a3.78 3.78 0 0 1-.08-.84 3.69 3.69 0 0 1 .08-.84v1.68Z" class="cls-10"/>
      </g>
      <g id="TNZ_text_bottom_" data-name="TNZ text (bottom)">
         <path d="M624.91 986.44v-8.17h8.44v-24.15h9.3v24.15h8.44v8.17h-26.18z"/>
         <path d="M641.15 955.62v24.15h8.44v5.17h-23.18v-5.17h8.44v-24.15h6.3m3-3h-12.3v24.15h-8.44v11.17h29.18v-11.17h-8.44v-24.15Z" class="cls-10"/>
         <path d="M615 988.2v-10.6l-.21.17a7.85 7.85 0 0 1-4.93 1.53 8 8 0 0 1-6.24-2.64 10.13 10.13 0 0 1-2.32-7v-15.54h9.22v14.69A3.48 3.48 0 0 0 611 971c.12.14.48.55 1.59.55a2.9 2.9 0 0 0 1.8-.55 1.22 1.22 0 0 0 .53-1.1v-15.78h9.22v34.08Z"/>
         <path d="M622.67 955.62v31.08h-6.22v-13.35h-.25a7.45 7.45 0 0 1-2.37 3.23 6.37 6.37 0 0 1-4 1.22 6.57 6.57 0 0 1-5.12-2.14 8.66 8.66 0 0 1-1.93-6v-14H609v13.19a4.66 4.66 0 0 0 .92 3.13 3.4 3.4 0 0 0 2.73 1.07 4.39 4.39 0 0 0 2.69-.84 2.72 2.72 0 0 0 1.13-2.31v-14.28h6.22m3-3h-12.24v17.19a1.47 1.47 0 0 1-.82.2 1.61 1.61 0 0 1-.47-.05 2.47 2.47 0 0 1-.18-1.15v-16.19h-12.22v17a11.57 11.57 0 0 0 2.7 8 9.61 9.61 0 0 0 7.35 3.13 10.31 10.31 0 0 0 3.64-.62v9.52h12.22v-37.03Z" class="cls-10"/>
         <path d="M587.56 979.3a11.53 11.53 0 0 1-8.73-3.43 12.69 12.69 0 0 1-3.23-9.08v-3.35h4.24l-4.09-4.44.81-1a11.42 11.42 0 0 1 4.24-3.2 15 15 0 0 1 6.21-1.18c4 0 7.13 1.16 9.32 3.45s3.27 5.4 3.27 9.31-1.09 7.09-3.24 9.4a11.5 11.5 0 0 1-8.8 3.52Zm-2.73-9.37a2.65 2.65 0 0 0 .62 1.15 2.57 2.57 0 0 0 2.07.76 2.8 2.8 0 0 0 2.13-.78 2.6 2.6 0 0 0 .63-1.13Zm5.46-6.49a2.57 2.57 0 0 0-.73-1.19 3.86 3.86 0 0 0-2.75-.85 5.65 5.65 0 0 0-4.47 2Z"/>
         <path d="M587 955.12q5.38 0 8.23 3t2.86 8.27q0 5.33-2.83 8.38a11.31 11.31 0 0 1-15.35.08 11.2 11.2 0 0 1-2.81-8V965h14.83v-.38a4.44 4.44 0 0 0-1.34-3.4 5.31 5.31 0 0 0-3.78-1.26 7.16 7.16 0 0 0-5.71 2.69l-3.36-3.65a9.9 9.9 0 0 1 3.7-2.77 13.46 13.46 0 0 1 5.59-1m.5 18.23a4.26 4.26 0 0 0 3.21-1.24 4.6 4.6 0 0 0 1.2-3.34v-.34h-8.74v.34a4.7 4.7 0 0 0 1.16 3.34 4.12 4.12 0 0 0 3.17 1.24m-.5-21.23a16.47 16.47 0 0 0-6.83 1.32 12.91 12.91 0 0 0-4.79 3.62l-1.62 2 1.75 1.9.9 1h-2.34v4.85a14.13 14.13 0 0 0 3.64 10.11 14.29 14.29 0 0 0 19.72-.11c2.41-2.59 3.64-6.1 3.64-10.42s-1.24-7.79-3.69-10.35-6-3.91-10.4-3.91Z" class="cls-10"/>
         <path d="m538.61 986.44-4.57-13.33v13.33h-8.38v-32.32h10.13l4.57 13.34v-13.34h8.38v32.32h-10.13z"/>
         <path d="M547.24 955.62v29.32h-7.56L533 965.45h-.46v19.49h-5.38v-29.32h7.56l6.68 19.49h.46v-19.49h5.38m3-3h-11.38v5.83l-1.3-3.8-.69-2h-12.7v35.32h11.38v-5.83l1.3 3.8.69 2h12.7v-35.32Z" class="cls-10"/>
         <path d="M512 986.94c-4.35 0-7.67-1.52-9.84-4.53-2.07-2.85-3.12-6.94-3.12-12.14s1.05-9.28 3.12-12.14c2.18-3 5.49-4.53 9.84-4.53s7.67 1.52 9.85 4.53 3.12 6.94 3.12 12.14-1 9.28-3.12 12.14-5.5 4.53-9.85 4.53Zm0-25.24a2.35 2.35 0 0 0-2.35 1.16 10.32 10.32 0 0 0-.89 4.91v5.08a10.18 10.18 0 0 0 .89 4.88 3 3 0 0 0 4.71 0 10.19 10.19 0 0 0 .89-4.88v-5.12a10.2 10.2 0 0 0-.89-4.88 2.36 2.36 0 0 0-2.36-1.15Z"/>
         <path d="M512 955.12q5.8 0 8.63 3.91t2.83 11.26q0 7.35-2.83 11.26t-8.63 3.89q-5.8 0-8.63-3.91t-2.83-11.26q0-7.35 2.83-11.26t8.63-3.91m0 25.24a3.88 3.88 0 0 0 3.65-1.89 11.5 11.5 0 0 0 1.09-5.63v-5.12a11.51 11.51 0 0 0-1.09-5.63 4.46 4.46 0 0 0-7.31 0 11.63 11.63 0 0 0-1.09 5.65v5.08a11.5 11.5 0 0 0 1.09 5.63 3.88 3.88 0 0 0 3.65 1.89m0-28.24c-4.86 0-8.58 1.73-11.06 5.14-2.26 3.11-3.41 7.49-3.41 13s1.15 9.9 3.41 13c2.48 3.41 6.2 5.14 11.06 5.14s8.58-1.73 11.06-5.14c2.26-3.12 3.41-7.5 3.41-13s-1.15-9.9-3.41-13c-2.48-3.41-6.2-5.14-11.06-5.14Zm0 25.24c-.83 0-1-.23-1.06-.39a8.56 8.56 0 0 1-.69-4.13v-5.08a8.69 8.69 0 0 1 .7-4.16c.1-.18.23-.4 1-.4s1 .23 1.06.39a8.58 8.58 0 0 1 .69 4.13v5.13a8.56 8.56 0 0 1-.69 4.13c-.09.16-.23.39-1.06.39Z" class="cls-10"/>
         <path d="M449.98 986.44v-7.49l12.19-16.66h-12.61v-8.17h24.12v7.5l-12.19 16.65h11.77v8.17h-23.28z"/>
         <path d="M472.18 955.62v5.5l-13.65 18.65h13.23v5.17h-20.28v-5.5l13.65-18.65h-14.07v-5.17h21.13m3-3h-27.13v11.17h11.16l-10.16 13.88-.58.79v9.48h26.29v-11.17h-10.32l10.15-13.87.58-.79v-9.48Z" class="cls-10"/>
         <path d="M436.4 979.3a12 12 0 0 1-9.07-3.51 14.8 14.8 0 0 1 0-18.66 13.46 13.46 0 0 1 18.13 0 14.8 14.8 0 0 1 0 18.66 12 12 0 0 1-9.06 3.51Zm0-18.06a2.64 2.64 0 0 0-2.16.81 3.93 3.93 0 0 0-.79 2.69v3.45a3.94 3.94 0 0 0 .79 2.69 2.64 2.64 0 0 0 2.16.81 2.74 2.74 0 0 0 2.16-.81 3.93 3.93 0 0 0 .79-2.69v-3.45a3.93 3.93 0 0 0-.79-2.69 2.63 2.63 0 0 0-2.16-.81Z"/>
         <path d="M436.4 955.12a10.49 10.49 0 0 1 8 3 13.32 13.32 0 0 1 0 16.59 12 12 0 0 1-16 0 13.32 13.32 0 0 1 0-16.59 10.49 10.49 0 0 1 8-3m0 18.06a4.19 4.19 0 0 0 3.28-1.3 5.32 5.32 0 0 0 1.18-3.7v-3.45a5.32 5.32 0 0 0-1.18-3.7 4.77 4.77 0 0 0-6.55 0 5.32 5.32 0 0 0-1.18 3.7v3.45a5.33 5.33 0 0 0 1.18 3.7 4.19 4.19 0 0 0 3.28 1.3m0-21.06a13.41 13.41 0 0 0-10.15 4c-2.47 2.6-3.72 6.08-3.72 10.36a14.47 14.47 0 0 0 3.72 10.36 14.95 14.95 0 0 0 20.31 0 14.47 14.47 0 0 0 3.72-10.36c0-4.28-1.25-7.77-3.73-10.36a13.41 13.41 0 0 0-10.15-4Zm0 18.06c-.77 0-1-.22-1.05-.31a2.67 2.67 0 0 1-.4-1.68v-3.45a2.67 2.67 0 0 1 .4-1.68c.08-.09.28-.31 1.05-.31s1 .22 1 .31a2.66 2.66 0 0 1 .4 1.69v3.45a2.67 2.67 0 0 1-.4 1.68c-.09.09-.28.31-1.05.31Z" class="cls-10"/>
         <path d="M408.22 979.3a8 8 0 0 1-6.24-2.64 10.13 10.13 0 0 1-2.32-7v-15.54h9.22v14.69a3.48 3.48 0 0 0 .56 2.15 1.86 1.86 0 0 0 1.59.55 2.9 2.9 0 0 0 1.8-.55 1.22 1.22 0 0 0 .53-1.1v-15.74h9.22v24.67h-9.22v-1.19l-.21.17a7.85 7.85 0 0 1-4.93 1.53Z"/>
         <path d="M421.07 955.62v21.67h-6.22v-3.95h-.25a7.45 7.45 0 0 1-2.37 3.23 6.37 6.37 0 0 1-4 1.22 6.57 6.57 0 0 1-5.12-2.14 8.66 8.66 0 0 1-1.93-6v-14h6.22v13.19a4.66 4.66 0 0 0 .92 3.13A3.41 3.41 0 0 0 411 973a4.39 4.39 0 0 0 2.69-.84 2.72 2.72 0 0 0 1.13-2.31v-14.23h6.22m3-3h-12.18v17.19a1.47 1.47 0 0 1-.82.2 1.6 1.6 0 0 1-.47-.05 2.47 2.47 0 0 1-.18-1.15v-16.19h-12.23v17a11.57 11.57 0 0 0 2.7 8 9.6 9.6 0 0 0 7.35 3.13 10.31 10.31 0 0 0 3.64-.62v.11h12.22v-27.62Z" class="cls-10"/>
         <path d="M386 979.3a11.53 11.53 0 0 1-8.73-3.43 12.69 12.69 0 0 1-3.23-9.08v-3.35h4.24l-4.13-4.44.81-1a11.43 11.43 0 0 1 4.24-3.2 15 15 0 0 1 6.21-1.18c4 0 7.13 1.16 9.32 3.45s3.27 5.4 3.27 9.31-1.09 7.09-3.24 9.4a11.51 11.51 0 0 1-8.76 3.52Zm-2.73-9.37a2.65 2.65 0 0 0 .62 1.15 2.58 2.58 0 0 0 2.07.76 2.8 2.8 0 0 0 2.13-.78 2.6 2.6 0 0 0 .63-1.13Zm5.46-6.49a2.58 2.58 0 0 0-.73-1.19 3.87 3.87 0 0 0-2.75-.85 5.65 5.65 0 0 0-4.47 2Z"/>
         <path d="M385.41 955.12q5.38 0 8.23 3t2.86 8.27q0 5.33-2.83 8.38a11.31 11.31 0 0 1-15.35.08 11.2 11.2 0 0 1-2.81-8V965h14.83v-.38a4.44 4.44 0 0 0-1.34-3.4 5.31 5.31 0 0 0-3.78-1.26 7.16 7.16 0 0 0-5.71 2.69l-3.36-3.65a9.9 9.9 0 0 1 3.7-2.77 13.45 13.45 0 0 1 5.59-1m.5 18.23a4.26 4.26 0 0 0 3.21-1.24 4.6 4.6 0 0 0 1.2-3.34v-.34h-8.74v.34a4.7 4.7 0 0 0 1.15 3.34 4.12 4.12 0 0 0 3.17 1.24m-.5-21.23a16.46 16.46 0 0 0-6.83 1.32 12.92 12.92 0 0 0-4.79 3.62l-1.62 2 1.75 1.9.9 1h-2.34v4.85a14.13 14.13 0 0 0 3.64 10.11 14.29 14.29 0 0 0 19.72-.11c2.42-2.59 3.64-6.1 3.64-10.42s-1.24-7.79-3.69-10.35-6-3.91-10.4-3.91Z" class="cls-10"/>
      </g>
      <g id="TNZ_text_top_" data-name="TNZ text (top)">
         <path d="M381.35 68.88V44.73h-8.44v-8.17h26.18v8.17h-8.44v24.15h-9.3z"/>
         <path d="M397.59 38.06v5.17h-8.44v24.15h-6.3V43.23h-8.44v-5.17h23.18m3-3h-29.18v11.17h8.44v24.15h12.3V46.23h8.44V35.06Z" class="cls-10"/>
         <path d="M413.52 68.88V54.19A3.3 3.3 0 0 0 413 52a1.86 1.86 0 0 0-1.59-.55 2.9 2.9 0 0 0-1.79.55 1.23 1.23 0 0 0-.53 1.1v15.78h-9.22V34.79H409V45.4l.21-.17a7.85 7.85 0 0 1 4.93-1.53 8 8 0 0 1 6.24 2.64 10.13 10.13 0 0 1 2.32 7v15.54Z"/>
         <path d="M407.55 36.29v13.36h.25a7.46 7.46 0 0 1 2.37-3.23 6.37 6.37 0 0 1 4-1.22 6.57 6.57 0 0 1 5.12 2.14 8.65 8.65 0 0 1 1.93 6v14H415V54.19a4.67 4.67 0 0 0-.92-3.13 3.41 3.41 0 0 0-2.71-1.06 4.39 4.39 0 0 0-2.69.84 2.72 2.72 0 0 0-1.13 2.31v14.23h-6.22V36.29h6.22m3-3h-12.22v37.09h12.22v-17.2a1.47 1.47 0 0 1 .82-.2 1.59 1.59 0 0 1 .47.05 2.62 2.62 0 0 1 .18 1.15v16.2h12.22v-17a11.57 11.57 0 0 0-2.7-8 9.6 9.6 0 0 0-7.35-3.13 10.31 10.31 0 0 0-3.64.62v-9.58Z" class="cls-10"/>
         <path d="M437 69.38c-4 0-7.13-1.16-9.32-3.44s-3.27-5.4-3.27-9.31 1.09-7.09 3.24-9.4a12.8 12.8 0 0 1 17.54-.1 12.69 12.69 0 0 1 3.23 9.08v3.35h-4.24l4.07 4.44-.81 1a11.43 11.43 0 0 1-4.24 3.2 15 15 0 0 1-6.2 1.18Zm-3.27-9.83a2.57 2.57 0 0 0 .73 1.19 3.87 3.87 0 0 0 2.75.85 5.65 5.65 0 0 0 4.47-2Zm5.46-6.49a2.65 2.65 0 0 0-.62-1.15 2.58 2.58 0 0 0-2.07-.76 2.81 2.81 0 0 0-2.13.78 2.6 2.6 0 0 0-.63 1.13Z"/>
         <path d="M436.44 45.2a10 10 0 0 1 7.64 3 11.2 11.2 0 0 1 2.81 8v1.85h-14.81v.38a4.44 4.44 0 0 0 1.34 3.4 5.31 5.31 0 0 0 3.78 1.26 7.16 7.16 0 0 0 5.71-2.69l3.36 3.65a9.9 9.9 0 0 1-3.7 2.77 13.45 13.45 0 0 1-5.59 1q-5.38 0-8.23-3t-2.86-8.27q0-5.33 2.83-8.38a10 10 0 0 1 7.71-3m-4.37 9.37h8.74v-.34a4.7 4.7 0 0 0-1.15-3.34 4.13 4.13 0 0 0-3.17-1.24 4.26 4.26 0 0 0-3.21 1.24 4.6 4.6 0 0 0-1.2 3.34v.34m4.37-12.37a12.94 12.94 0 0 0-9.9 4c-2.42 2.59-3.64 6.1-3.64 10.42s1.24 7.79 3.69 10.35 6 3.91 10.4 3.91a16.46 16.46 0 0 0 6.83-1.32 12.91 12.91 0 0 0 4.79-3.62l1.62-2-1.75-1.91-.9-1h2.32v-4.8a14.13 14.13 0 0 0-3.64-10.11 13 13 0 0 0-9.82-3.89Z" class="cls-10"/>
         <path d="m488.21 68.88-4.57-13.34v13.34h-8.38V36.56h10.13l4.57 13.33V36.56h8.38v32.32h-10.13z"/>
         <path d="M496.84 38.06v29.32h-7.56l-6.68-19.49h-.46v19.49h-5.38V38.06h7.56L491 57.55h.46V38.06h5.38m3-3h-11.38v5.83l-1.3-3.8-.69-2h-12.7v35.29h11.38v-5.83l1.3 3.8.69 2h12.7V35.06Z" class="cls-10"/>
         <path d="M512 69.38c-4.35 0-7.67-1.52-9.84-4.52S499 57.92 499 52.72s1.05-9.28 3.12-12.14 5.49-4.52 9.84-4.52 7.67 1.52 9.84 4.52 3.2 6.94 3.2 12.14-1.05 9.28-3.12 12.14-5.53 4.52-9.88 4.52Zm0-25.24a2.36 2.36 0 0 0-2.36 1.14 10.2 10.2 0 0 0-.89 4.88v5.12a10.2 10.2 0 0 0 .89 4.88 3 3 0 0 0 4.71 0 10.32 10.32 0 0 0 .89-4.9v-5.11a10.19 10.19 0 0 0-.89-4.88 2.36 2.36 0 0 0-2.35-1.13Z"/>
         <path d="M512 37.56q5.8 0 8.63 3.91t2.84 11.26q0 7.35-2.84 11.26T512 67.88q-5.8 0-8.63-3.91t-2.84-11.26q0-7.35 2.84-11.26t8.63-3.89m0 25.24a3.87 3.87 0 0 0 3.65-1.91 11.62 11.62 0 0 0 1.09-5.65v-5.09a11.49 11.49 0 0 0-1.09-5.63 4.48 4.48 0 0 0-7.31 0 11.5 11.5 0 0 0-1.09 5.63v5.12a11.5 11.5 0 0 0 1.09 5.63 3.88 3.88 0 0 0 3.66 1.9m0-28.24c-4.86 0-8.58 1.73-11.06 5.14-2.26 3.11-3.41 7.49-3.41 13s1.15 9.9 3.41 13c2.48 3.41 6.2 5.14 11.06 5.14s8.58-1.73 11.06-5.14c2.26-3.11 3.41-7.49 3.41-13s-1.15-9.9-3.41-13c-2.48-3.41-6.2-5.14-11.06-5.14Zm0 25.24c-.83 0-1-.23-1.06-.39a8.57 8.57 0 0 1-.69-4.13v-5.13a8.56 8.56 0 0 1 .69-4.13c.1-.16.23-.39 1.06-.39s1 .23 1.06.39a8.56 8.56 0 0 1 .69 4.13v5.08a8.68 8.68 0 0 1-.7 4.16c-.1.18-.23.4-1 .4Z" class="cls-10"/>
         <path d="M550.32 68.88v-7.5l12.19-16.65h-11.77v-8.17h23.28v7.49l-12.19 16.66h12.61v8.17h-24.12z"/>
         <path d="M572.52 38.06v5.5l-13.65 18.65h14.07v5.17h-21.12v-5.5l13.65-18.65h-13.23v-5.17h20.29m3-3h-26.29v11.17h10.32L549.4 60.1l-.58.79v9.48h27.13V59.21h-11.17l10.16-13.88.58-.79v-9.48Z" class="cls-10"/>
         <path d="M587.6 69.38a12 12 0 0 1-9.07-3.51 13 13 0 0 1-3.31-9.33 13 13 0 0 1 3.31-9.33 13.46 13.46 0 0 1 18.13 0 13 13 0 0 1 3.34 9.33 13 13 0 0 1-3.31 9.33 12 12 0 0 1-9.09 3.51Zm0-18.06a2.74 2.74 0 0 0-2.16.81 3.94 3.94 0 0 0-.79 2.69v3.44a3.93 3.93 0 0 0 .79 2.69 3.3 3.3 0 0 0 4.33 0 3.94 3.94 0 0 0 .79-2.69v-3.44a3.94 3.94 0 0 0-.79-2.69 2.64 2.64 0 0 0-2.17-.81Z"/>
         <path d="M587.6 45.2a10.49 10.49 0 0 1 8 3 11.53 11.53 0 0 1 2.9 8.29 11.53 11.53 0 0 1-2.9 8.29 12 12 0 0 1-16 0 11.54 11.54 0 0 1-2.9-8.29 11.54 11.54 0 0 1 2.9-8.29 10.49 10.49 0 0 1 8-3m0 18.06a4.19 4.19 0 0 0 3.28-1.3 5.33 5.33 0 0 0 1.18-3.7v-3.44a5.33 5.33 0 0 0-1.18-3.7 4.77 4.77 0 0 0-6.55 0 5.32 5.32 0 0 0-1.18 3.7v3.44a5.32 5.32 0 0 0 1.18 3.7 4.19 4.19 0 0 0 3.28 1.3m0-21.06a13.41 13.41 0 0 0-10.15 4 14.47 14.47 0 0 0-3.73 10.36 14.47 14.47 0 0 0 3.73 10.36 14.95 14.95 0 0 0 20.31 0c2.47-2.6 3.72-6.08 3.72-10.36s-1.25-7.77-3.72-10.36a13.42 13.42 0 0 0-10.15-4Zm0 18.06c-.77 0-1-.23-1-.31a2.67 2.67 0 0 1-.4-1.69v-3.44a2.67 2.67 0 0 1 .4-1.68c.08-.09.28-.31 1.05-.31s1 .22 1 .31a2.68 2.68 0 0 1 .4 1.68v3.44a2.67 2.67 0 0 1-.4 1.69c-.08.09-.28.31-1 .31Z" class="cls-10"/>
         <path d="M615.12 68.88V54.19a3.3 3.3 0 0 0-.56-2.15 1.86 1.86 0 0 0-1.59-.55 2.91 2.91 0 0 0-1.79.55 1.23 1.23 0 0 0-.53 1.1v15.74h-9.22V44.2h9.22v1.2l.21-.17a7.85 7.85 0 0 1 4.93-1.53 8 8 0 0 1 6.21 2.64 10.13 10.13 0 0 1 2.32 7v15.54Z"/>
         <path d="M615.78 45.2a6.56 6.56 0 0 1 5.12 2.14 8.65 8.65 0 0 1 1.93 6v14h-6.22V54.19a4.67 4.67 0 0 0-.92-3.13A3.41 3.41 0 0 0 613 50a4.39 4.39 0 0 0-2.69.84 2.72 2.72 0 0 0-1.13 2.31v14.23h-6.22V45.7h6.22v3.95h.25a7.46 7.46 0 0 1 2.37-3.23 6.37 6.37 0 0 1 4-1.22m0-3a10.31 10.31 0 0 0-3.64.62v-.12h-12.23v27.68h12.22v-17.2A1.47 1.47 0 0 1 613 53a1.58 1.58 0 0 1 .48.06 2.63 2.63 0 0 1 .18 1.14v16.18h12.22v-17a11.57 11.57 0 0 0-2.7-8 9.6 9.6 0 0 0-7.35-3.13Z" class="cls-10"/>
         <path d="M638.59 69.38c-4 0-7.13-1.16-9.32-3.44S626 60.53 626 56.62s1.09-7.09 3.24-9.4a12.8 12.8 0 0 1 17.54-.09A12.68 12.68 0 0 1 650 56.2v3.35h-4.24l4.09 4.45-.85 1a11.42 11.42 0 0 1-4.25 3.2 15 15 0 0 1-6.16 1.18Zm-3.27-9.83a2.6 2.6 0 0 0 .72 1.19 3.87 3.87 0 0 0 2.75.85 5.65 5.65 0 0 0 4.47-2Zm5.45-6.49a2.65 2.65 0 0 0-.62-1.15 2.58 2.58 0 0 0-2.07-.76 2.77 2.77 0 0 0-2.13.78 2.6 2.6 0 0 0-.63 1.13Z"/>
         <path d="M638 45.2a10 10 0 0 1 7.64 3 11.2 11.2 0 0 1 2.81 8v1.85h-14.78v.38a4.44 4.44 0 0 0 1.34 3.4 5.31 5.31 0 0 0 3.78 1.26 7.16 7.16 0 0 0 5.71-2.69l3.36 3.65a9.9 9.9 0 0 1-3.7 2.77 13.45 13.45 0 0 1-5.59 1q-5.38 0-8.23-3t-2.86-8.27q0-5.33 2.84-8.38a10 10 0 0 1 7.71-3m-4.37 9.37h8.74v-.34a4.7 4.7 0 0 0-1.15-3.34 4.13 4.13 0 0 0-3.17-1.24 4.26 4.26 0 0 0-3.21 1.24 4.6 4.6 0 0 0-1.2 3.34v.34M638 42.2a12.94 12.94 0 0 0-9.9 4c-2.42 2.59-3.64 6.1-3.64 10.42s1.24 7.79 3.69 10.35 6 3.91 10.4 3.91a16.45 16.45 0 0 0 6.83-1.32 12.91 12.91 0 0 0 4.79-3.62l1.62-2-1.71-1.94-.9-1h2.32v-4.8a14.13 14.13 0 0 0-3.64-10.11A13 13 0 0 0 638 42.2Z" class="cls-10"/>
      </g>
   </g>
</svg>
