<svg xmlns="http://www.w3.org/2000/svg" viewBox="0 0 1024 1024">
   <style>
      .st1,.st2{fill:none;stroke:#262525;stroke-miterlimit:10}.st2{stroke:#64ff00}.st3{stroke-dasharray:12,12}.st3,.st4{fill:none;stroke:#000;stroke-miterlimit:10}.st8{fill:#fff}
   </style>
   <g id="Icon grid">
      <g id="Other shape guides" style="opacity:.75">
         <path d="M708 808H316V216h392v592z" class="st1"/>
         <path d="M782 762H242V262h540v500z" class="st1"/>
         <path d="M822 736H202V288h620v448z" class="st1"/>
         <path d="M848 663H176V361h672v302z" class="st1"/>
      </g>
      <g id="1:1 shape guides">
         <g id="Ellipse">
            <circle cx="512" cy="512" r="285" class="st2"/>
            <circle cx="512" cy="512" r="285" class="st3"/>
         </g>
         <g id="Rectangle">
            <path d="M749.5 749.5h-475v-475h475v475z" class="st2"/>
            <path d="M274.5 280.5v-6h6" class="st4"/>
            <path d="M292.4 274.5h445.2" class="st3"/>
            <path d="M743.5 274.5h6v6" class="st4"/>
            <path d="M749.5 292.4v445.2" class="st3"/>
            <path d="M749.5 743.5v6h-6" class="st4"/>
            <path d="M731.6 749.5H286.4" class="st3"/>
            <path d="M280.5 749.5h-6v-6" class="st4"/>
            <path d="M274.5 731.6V286.4" class="st3"/>
         </g>
      </g>
      <g id="Out of bounds rings">
         <path id="Caution" d="M512 86.2c-234.9 0-426 191.1-426 426s191.1 426 426 426 426-191.1 426-426-191.1-426-426-426zm0 810c-211.7 0-384-172.3-384-384s172.3-384 384-384 384 172.3 384 384-172.3 384-384 384z" style="opacity:.9;fill:#ff0;enable-background:new"/>
         <path id="Warning" d="M512 41.8c-259.8 0-470.4 210.6-470.4 470.4S252.2 982.6 512 982.6 982.4 772 982.4 512.2 771.8 41.8 512 41.8zm0 896.4c-234.9 0-426-191.1-426-426s191.1-426 426-426 426 191.1 426 426-191.1 426-426 426z" style="opacity:.9;fill:#f7931e;"/>
         <g id="The NO Zone">
            <path id="The NO Zone RING" d="M1024 511.8C1023.9 229 794.4-.2 511.6-.1 306 0 120.4 123.1 40.2 312.4 13.6 375.5-.1 443.3 0 511.8v.5C-.2 637 45.4 757.5 128 850.9v-.5c7.1 8 14.4 15.8 22 23.4 7.8 7.8 15.7 15.3 23.9 22.5h-.6c193.5 170.7 483.8 170.7 677.3 0h-.5c8.2-7.2 16.2-14.7 23.9-22.5 7.6-7.6 14.9-15.4 22-23.4v.5c82.6-93.4 128.2-213.9 128-338.7v-.2c.1-.1 0-.2 0-.2zM782.3 896.2H241.6c-44.1-31.1-82.5-69.4-113.6-113.4V240.7c30.8-43.5 68.7-81.6 112.2-112.4h543.5c43.5 30.9 81.4 68.9 112.2 112.4v542.1c-31 44-69.5 82.4-113.6 113.4z" style="opacity:.75;fill:#ff0049;"/>
            <g id="TNZ text (right)">
               <path d="M942.3 682.8V677l-5.9 5.4-1-.8c-1.7-1.4-3-3.1-3.9-5.1-1-2.4-1.5-5-1.4-7.5 0-4.8 1.4-8.6 4.2-11.3s6.5-4 11.3-4 8.6 1.3 11.4 3.9c2.9 2.8 4.4 6.6 4.2 10.6 0 4.4-1.4 7.9-4.1 10.5s-6.4 3.9-11 3.9l-3.8.2zm0-18.3c-.8.1-1.5.5-2.1 1.1-.8 1-1.3 2.3-1.2 3.7 0 2.3 1 4.5 2.8 5.9l.4.4.1-11.1zm7.3 7.6c.7-.1 1.4-.4 2-.9.7-.7 1.1-1.8 1.1-2.8.1-1.1-.3-2.1-1.1-2.9-.5-.5-1.2-.9-2-1v7.6zM930.7 651v-10.7h17.8c1 .1 2-.2 2.9-.8.6-.6.9-1.4.8-2.2 0-.9-.2-1.7-.7-2.4-.4-.5-1-.8-1.7-.8h-19.1v-10.7h29.8V634h-1.9c.3.3.5.5.7.8 1.3 1.7 1.9 3.8 1.8 5.9.1 2.8-1.1 5.6-3.2 7.5-2 1.8-4.9 2.8-8.4 2.8h-18.8zm15-30.2c-4.7 0-8.5-1.3-11.3-4s-4.2-6.4-4.2-11 1.4-8.3 4.2-11 6.6-4 11.3-4 8.5 1.3 11.3 4 4.2 6.4 4.2 11-1.4 8.3-4.2 11-6.6 4-11.3 4zm-2.2-19c-1.3-.1-2.6.3-3.6 1.1a4.43 4.43 0 0 0 0 5.9c1 .8 2.3 1.2 3.6 1.1h4.3c1.3.1 2.6-.3 3.6-1.1 1.5-1.7 1.5-4.2 0-5.9-1-.8-2.3-1.2-3.6-1.1h-4.3zm-12.8-12.6V560h8.8l21.1 15.4v-14.9h9.4v28.1h-8.8l-21.1-15.4v16h-9.4zm19.7-61.2c-6.4 0-11.3-1.3-14.8-3.8-3.6-2.6-5.5-6.6-5.5-11.9s1.8-9.3 5.5-11.9 8.5-3.8 14.8-3.8 11.3 1.3 14.8 3.8 5.5 6.6 5.5 11.9c0 5.3-1.8 9.3-5.5 11.9s-8.4 3.8-14.8 3.8zm-3.2-20.1c-2.1-.1-4.3.2-6.2 1.1-.7.4-1.6 1.2-1.6 3.2-.2 1.3.5 2.6 1.6 3.2 2 .9 4.1 1.3 6.2 1.2h6.3c2.1.1 4.3-.3 6.2-1.2.7-.4 1.6-1.2 1.6-3.2s-.9-2.8-1.6-3.2c-1.9-.9-4.1-1.3-6.2-1.1h-6.3zM930.7 495v-12l18.3-6.2h-18.3v-9.7H970V479l-18.3 6.3H970v9.7h-39.3zm11.6-61.8v-5.7l-5.9 5.4-1-.8c-1.7-1.4-3-3.1-3.9-5.1-1-2.4-1.5-5-1.4-7.5 0-4.8 1.4-8.6 4.2-11.3s6.5-4 11.3-4 8.6 1.3 11.4 3.9c2.9 2.8 4.4 6.6 4.2 10.6 0 4.4-1.4 8-4.1 10.5s-6.4 3.9-11 3.9l-3.8.1zm0-18.3c-.8.1-1.5.5-2.1 1.1-.8 1-1.3 2.3-1.2 3.6 0 2.3 1 4.5 2.8 5.9l.4.4.1-11zm7.3 7.6c.7-.1 1.4-.4 2-.9.7-.7 1.1-1.8 1.1-2.8.1-1.1-.3-2.1-1.1-2.9-.5-.5-1.2-.9-2-1v7.6zm-18.9-21.1v-10.7h17.8c1 .1 2-.2 2.9-.8.6-.6.9-1.4.8-2.2 0-.9-.2-1.7-.7-2.4-.4-.5-1-.8-1.7-.8h-19.1v-10.7h41.5v10.7h-13.6c.3.3.5.5.7.8 1.3 1.7 1.9 3.8 1.8 5.9.1 2.8-1.1 5.6-3.2 7.5-2 1.8-4.9 2.8-8.4 2.8l-18.8-.1zm29.9-29.3v-10.5h-29.9v-10.8h29.9v-10.5h9.4V372l-9.4.1z"/>
               <path d="M968.5 341.9v28.7h-6.4v-10.5h-29.9v-7.8h29.9v-10.5h6.4m2.2 33.4v7.7h-16.5v.3c1.6.6 3 1.6 4 2.9 1.1 1.4 1.6 3.2 1.5 5 .1 2.4-.9 4.7-2.7 6.3-1.8 1.6-4.2 2.4-7.4 2.4h-17.4v-7.7h16.3c1.4.1 2.8-.3 3.9-1.1.9-.9 1.4-2.1 1.3-3.4 0-1.2-.3-2.4-1-3.3-.7-.9-1.7-1.4-2.9-1.4h-17.7v-7.7h38.6m-25.1 30.5c4.4 0 7.9 1.2 10.4 3.5s3.8 5.5 3.8 9.5-1.2 7.2-3.7 9.5-5.8 3.5-10 3.5h-2.3v-18.4h-.5c-1.6-.1-3.1.6-4.2 1.7-1.1 1.3-1.7 3-1.6 4.7 0 2.7 1.2 5.4 3.3 7.1l-4.5 4.2c-1.5-1.2-2.7-2.8-3.4-4.6-.9-2.2-1.4-4.5-1.3-6.9 0-4.4 1.2-7.8 3.7-10.2s5.9-3.6 10.3-3.6m2.5 18.4h.4c1.5.1 3-.4 4.1-1.4 1.1-1 1.6-2.5 1.5-3.9.1-1.5-.5-2.9-1.5-4-1.1-1-2.6-1.6-4.1-1.5h-.4v10.8m20.4 44.5v9.4l-24.1 8.3v.6h24.1v6.7h-36.3v-9.4l24.1-8.3v-.6h-24.1v-6.7h36.3m-18.1 29.5c6.1 0 10.7 1.2 13.9 3.5 3.2 2.3 4.8 5.9 4.8 10.7 0 4.8-1.6 8.4-4.8 10.7-3.2 2.3-7.9 3.5-13.9 3.5s-10.7-1.2-13.9-3.5c-3.2-2.3-4.8-5.9-4.8-10.7 0-4.8 1.6-8.4 4.8-10.7 3.2-2.4 7.8-3.5 13.9-3.5m-3.1 20h6.3c3.1 0 5.4-.5 7-1.3 2.5-1.8 3.1-5.2 1.3-7.7-.4-.5-.8-.9-1.3-1.3-1.6-.9-3.9-1.4-7-1.4h-6.3c-3.1 0-5.4.5-7 1.4-2.5 1.8-3.1 5.2-1.3 7.7.4.5.8.9 1.3 1.3 1.5.9 3.8 1.3 7 1.3m-8.3 43.5 23.1 16.9v-16.4h6.4v25.1h-6.8l-23.1-16.9v17.4h-6.4v-26.2l6.8.1m6.6 30.8c4.3 0 7.8 1.2 10.3 3.6 2.5 2.4 3.8 5.7 3.8 9.9s-1.3 7.5-3.8 9.9c-2.5 2.4-5.9 3.6-10.3 3.6-4.3 0-7.8-1.2-10.3-3.6-2.5-2.4-3.8-5.7-3.8-9.9s1.3-7.5 3.8-9.9c2.6-2.4 6-3.6 10.3-3.6m-2.1 19h4.3c1.7.1 3.3-.4 4.6-1.5 2.1-2.3 2.1-5.8 0-8.1-1.3-1-2.9-1.6-4.6-1.5h-4.3c-1.7-.1-3.3.4-4.6 1.5-2.1 2.3-2.1 5.8 0 8.1 1.3 1.1 2.9 1.6 4.6 1.5m15.5 13.4v7.7h-4.9v.3c1.6.6 3 1.6 4 2.9 1.1 1.4 1.6 3.2 1.5 5 .1 2.4-.9 4.7-2.7 6.3-1.8 1.6-4.2 2.4-7.4 2.4h-17.3v-7.7h16.3c1.4.1 2.8-.3 3.9-1.1.9-.9 1.4-2.1 1.3-3.4 0-1.2-.3-2.4-1-3.3-.7-.9-1.7-1.4-2.9-1.4h-17.7v-7.7H959m-13.4 30.5c4.4 0 7.9 1.2 10.4 3.5s3.8 5.5 3.8 9.5-1.2 7.2-3.7 9.5-5.8 3.5-10 3.5h-2.3v-18.4h-.5c-1.6-.1-3.1.5-4.2 1.7-1.1 1.3-1.7 3-1.6 4.7 0 2.7 1.2 5.4 3.3 7.1l-4.5 4.2c-1.5-1.2-2.7-2.8-3.4-4.6-.9-2.2-1.4-4.5-1.3-6.9 0-4.4 1.2-7.8 3.7-10.2 2.4-2.5 5.8-3.7 10.3-3.6m2.5 18.4h.4c1.5.1 3-.4 4.1-1.4 1.1-1 1.6-2.5 1.5-3.9.1-1.5-.5-2.9-1.5-4-1.1-1-2.6-1.6-4.1-1.5h-.4v10.8m23.4-334.8h-12.4v10.5h-29.9v13.8h29.9v9.1h-29.9V386h20.6c.3 0 .3.1.5.2.3.4.5 1 .5 1.5 0 .4-.1.8-.3 1.1-.6.3-1.2.5-1.9.4h-19.3v13.7h13c-3.4.4-6.5 1.8-9 4.1-3.1 2.9-4.6 7.1-4.6 12.4-.1 2.8.5 5.6 1.6 8.2 1 2.2 2.4 4.1 4.3 5.7l2 1.6 1.9-1.8 2.4-2.2v3.8h5.3c5 0 9-1.5 12-4.3s4.6-6.8 4.6-11.6-1.6-8.8-4.7-11.7c-2.5-2.3-5.6-3.7-9-4.1h.7c3.9 0 7.1-1.1 9.4-3.2 2.4-2.2 3.8-5.3 3.6-8.6 0-1.8-.4-3.6-1.1-5.2h12.2v-13.7h-2.2l-.2-33.4zm-30.7 82.5c-.2-.6-.2-1.2-.2-1.8 0-.6.1-1.2.2-1.7v3.5zm10.3-1.8v-1.7c.1.3.1.6.1.8 0 .3 0 .6-.1.9zm20.5 46h-42.3v12.7H940l-8.8 3-2 .7v14.5H940c-1.9.6-3.7 1.5-5.4 2.7-4 2.9-6.1 7.3-6.1 13.1s2 10.2 6.1 13.1c3.7 2.7 9 4.1 15.7 4.1s12-1.4 15.7-4.1c4-2.9 6.1-7.3 6.1-13.1s-2-10.2-6.1-13.1c-1.6-1.2-3.5-2.1-5.4-2.7h10.8v-12.6h-10.8l8.8-3 2-.7.2-14.6zm-24.3 49.5c-3.2 0-4.7-.5-5.5-1-.3-.2-.8-.5-.8-1.9s.5-1.7.8-1.9c.8-.4 2.3-1 5.5-1h6.3c3.2 0 4.7.5 5.5 1 .3.2.8.5.8 1.9s-.5 1.8-.8 1.9c-.8.4-2.3 1-5.5 1h-6.3zm-7.3 43.4h-10.8v32.2h8.9c-1.8.7-3.4 1.8-4.8 3.1-3.1 3-4.7 7-4.7 12s1.6 9.1 4.7 12c2.1 2 4.7 3.3 7.6 3.9h-11.7v13.7h20.6c.3 0 .3.1.5.2.3.4.5 1 .5 1.5 0 .4-.1.8-.3 1.1-.6.3-1.2.5-1.9.4h-19.3v13.7h13c-3.4.4-6.5 1.8-9 4.1-3.1 2.9-4.6 7.1-4.6 12.4-.1 2.8.5 5.6 1.6 8.2 1 2.2 2.4 4.1 4.3 5.7l2 1.6 1.9-1.8 2.4-2.2v3.8h5.3c5 0 9-1.5 12-4.3s4.6-6.8 4.6-11.6-1.6-8.8-4.7-11.7c-2.5-2.3-5.6-3.7-9-4.1h.7c3.9 0 7.1-1.1 9.4-3.2 2.4-2.2 3.7-5.3 3.6-8.6 0-1.8-.4-3.6-1.1-5.2h.5v-13.7h-11.6c2.8-.6 5.5-1.9 7.6-3.9 3.1-3 4.7-7 4.7-12s-1.6-9.1-4.7-12-7.2-4.4-12.3-4.4c-1.3 0-2.7.1-4 .3v-13.5l18.3 13.4.8.6h10.8v-31.1h-12.4v13.5l-18.3-13.4-1.1-.7zm3.5 49.9c-.9.1-1.8-.2-2.6-.7-.8-1.1-.8-2.6 0-3.7.7-.5 1.7-.8 2.6-.7h4.3c.9-.1 1.8.2 2.6.7.5.5.7 1.2.6 1.8.1.7-.1 1.3-.6 1.8-.7.5-1.7.8-2.6.7l-4.3.1zm-2.7 62.6c-.2-.6-.2-1.2-.2-1.8 0-.6.1-1.2.2-1.7v3.5zm10.3-1.8v-1.7c.1.3.1.6.1.8 0 .3 0 .6-.1.9z" class="st8"/>
            </g>
            <g id="TNZ text (left)">
               <path d="M54 684.1v-31.7h9.4v10.5h29.9v10.8H63.4v10.5H54zm-2.2-33.3v-10.7h13.5c-.3-.3-.5-.5-.7-.8-1.3-1.7-1.9-3.8-1.8-5.9-.1-2.8 1.1-5.6 3.2-7.5 2-1.8 4.9-2.8 8.4-2.8h18.9v10.7H75.4c-1-.1-2.1.2-2.9.8-.6.6-.9 1.4-.8 2.2 0 .9.2 1.7.8 2.4.4.5 1 .8 1.7.8h19.1v10.7l-41.5.1zm26.7-30.5c-4.8 0-8.6-1.3-11.4-3.9-2.9-2.8-4.5-6.6-4.3-10.6 0-4.4 1.4-8 4.1-10.5s6.4-3.9 11-3.9h3.8v5.7l5.9-5.4 1 .8c1.7 1.4 3 3.1 3.9 5.1 1 2.4 1.5 5 1.4 7.5 0 4.8-1.4 8.6-4.2 11.3s-6.5 3.9-11.2 3.9zm3.3-10.7c.8-.1 1.5-.5 2.1-1.1.8-1 1.3-2.3 1.2-3.7 0-2.3-1-4.5-2.8-5.9l-.4-.4-.1 11.1zm-7.4-7.6c-.7.1-1.4.4-2 .9-.7.7-1.1 1.8-1.1 2.8-.1 1.1.3 2.1 1.1 2.9.5.5 1.2.9 2 1V602zM54 557.4v-11.9l18.3-6.3H54v-9.7h39.3v11.9L75 547.7h18.3v9.7H54zM73.7 528c-6.4 0-11.3-1.3-14.8-3.8s-5.5-6.6-5.5-11.9 1.8-9.3 5.5-11.9 8.5-3.8 14.8-3.8 11.3 1.3 14.8 3.8S94 507 94 512.3c0 5.3-1.8 9.3-5.5 11.9S80 528 73.7 528zm-3.2-20.1c-2.1-.2-4.3.2-6.3 1.1-.7.4-1.6 1.2-1.6 3.2 0 2.1.9 2.8 1.6 3.2 1.9.9 4.1 1.3 6.2 1.2h6.3c2.1.1 4.3-.3 6.2-1.1.7-.4 1.6-1.2 1.6-3.2.2-1.3-.5-2.6-1.6-3.2-2-.9-4.1-1.3-6.2-1.1l-6.2-.1zm14-43.4L63.4 449v14.9H54v-28.1h8.8l21.1 15.4v-16h9.4v29.2l-8.8.1zm-6.1-30.9c-4.7 0-8.5-1.4-11.3-4s-4.2-6.4-4.2-11 1.4-8.3 4.2-11 6.6-4 11.3-4 8.5 1.4 11.3 4 4.2 6.4 4.2 11-1.4 8.3-4.2 11-6.6 4-11.3 4zm-2.2-19c-1.3-.1-2.6.3-3.6 1.1a4.43 4.43 0 0 0 0 5.9c1 .8 2.3 1.2 3.6 1.1h4.3c1.3.1 2.5-.3 3.5-1 1.5-1.7 1.5-4.2 0-5.9-1-.8-2.3-1.2-3.6-1.1l-4.2-.1zm-12.8-13.4v-10.7h1.9c-.3-.3-.5-.5-.7-.8-1.3-1.7-1.9-3.8-1.8-5.9-.1-2.8 1.1-5.6 3.2-7.5 2-1.8 4.9-2.8 8.4-2.8h18.9v10.7H75.4c-1-.1-2 .2-2.9.8-.6.6-.9 1.4-.8 2.2 0 .9.2 1.7.8 2.4.4.5 1 .8 1.7.8h19.1v10.7l-29.9.1zm15-30.4c-4.8 0-8.6-1.3-11.4-3.9-2.9-2.8-4.4-6.7-4.2-10.6 0-4.4 1.4-7.9 4.1-10.5s6.4-3.9 11-3.9h3.8v5.7l5.9-5.4 1 .8c1.7 1.4 3 3.1 3.9 5.1 1 2.4 1.5 5 1.4 7.5 0 4.8-1.4 8.6-4.2 11.3s-6.5 3.9-11.3 3.9zm3.3-10.8c.8-.1 1.5-.5 2.1-1.1.9-1 1.3-2.3 1.2-3.6 0-2.3-1-4.5-2.8-5.9l-.4-.4-.1 11zm-7.3-7.6c-.7.1-1.4.4-2 .9-.7.7-1.1 1.8-1.1 2.8-.1 1.1.3 2.1 1.1 2.9.5.5 1.2.9 2 1v-7.6z"/>
               <path d="M80.2 343.2v18.4h.5c1.6.1 3.1-.5 4.2-1.7 1.1-1.3 1.7-3 1.6-4.7 0-2.7-1.2-5.4-3.3-7.1l4.5-4.2c1.5 1.2 2.7 2.8 3.4 4.6.9 2.2 1.4 4.5 1.3 6.9 0 4.4-1.2 7.8-3.7 10.2-2.5 2.4-5.9 3.5-10.2 3.5-4.4 0-7.9-1.2-10.4-3.5s-3.8-5.5-3.8-9.5 1.2-7.2 3.7-9.5c2.4-2.3 5.8-3.5 10-3.5l2.2.1m-4.7 18.4h.4v-10.8h-.4c-1.5-.1-3 .4-4.1 1.4-1.1 1-1.6 2.5-1.5 3.9-.1 1.5.5 2.9 1.5 4 1.1 1.1 2.6 1.6 4.1 1.5M91.8 375v7.7H75.4c-1.4-.1-2.8.3-3.9 1.1-.9.9-1.4 2.1-1.3 3.4 0 1.2.3 2.4 1 3.3.7.9 1.7 1.4 2.9 1.4h17.7v7.7H64.9V392h4.9v-.3c-1.6-.6-3-1.6-4-2.9-1.1-1.4-1.6-3.2-1.5-5-.1-2.4.9-4.7 2.7-6.3 1.7-1.6 4.2-2.4 7.4-2.4h17.4m-13.5 30.1c4.3 0 7.8 1.2 10.3 3.6 2.5 2.4 3.8 5.7 3.8 9.9s-1.3 7.5-3.8 9.9c-2.5 2.4-5.9 3.6-10.3 3.6s-7.8-1.2-10.3-3.6c-2.5-2.4-3.8-5.7-3.8-9.9s1.3-7.5 3.8-9.9c2.6-2.4 6-3.6 10.3-3.6m-2.1 19h4.3c1.6.1 3.3-.4 4.5-1.5 2.1-2.3 2.1-5.8 0-8.1-1.3-1-2.9-1.6-4.6-1.5h-4.2c-1.7-.1-3.3.4-4.6 1.5-2.1 2.3-2.1 5.8 0 8.1 1.3 1.1 3 1.6 4.6 1.5m15.6 12.6V463H85l-23.1-16.9v16.4h-6.4v-25.2h6.8l23.1 16.9v-17.4h6.4M73.6 498c6.1 0 10.7 1.2 13.9 3.5 3.2 2.3 4.8 5.9 4.8 10.7 0 4.8-1.6 8.4-4.8 10.7-3.2 2.3-7.9 3.5-13.9 3.5-6.1 0-10.7-1.2-13.9-3.5-3.2-2.3-4.8-5.9-4.8-10.7 0-4.8 1.6-8.4 4.8-10.7 3.2-2.3 7.8-3.5 13.9-3.5m-3.2 20.1h6.3c3.1 0 5.4-.5 7-1.3 2.5-1.8 3.1-5.2 1.3-7.7-.4-.5-.8-.9-1.3-1.3-1.6-.9-3.9-1.4-7-1.4h-6.3c-3.1 0-5.4.5-7 1.4-2.5 1.8-3.1 5.2-1.3 7.7.4.5.8.9 1.3 1.3 1.6.9 3.9 1.3 7 1.3M91.8 531v9.4l-24.1 8.3v.6h24.1v6.7H55.5v-9.4l24.1-8.3v-.6H55.5V531h36.3m-11.6 61.8v18.3h.5c1.6.1 3.1-.5 4.2-1.7 1.1-1.3 1.7-3 1.6-4.7 0-2.7-1.2-5.4-3.3-7.1l4.5-4.2c1.5 1.2 2.7 2.8 3.4 4.6.9 2.2 1.4 4.5 1.3 6.9 0 4.4-1.2 7.8-3.7 10.2-2.5 2.4-5.9 3.5-10.2 3.5-4.4 0-7.9-1.2-10.4-3.5s-3.8-5.5-3.8-9.5 1.2-7.2 3.7-9.5 5.8-3.5 10-3.5l2.2.2m-4.7 18.4h.4v-10.8h-.4c-1.5-.1-3 .4-4.1 1.4-1.1 1-1.6 2.5-1.5 3.9-.1 1.5.5 2.9 1.5 4 1.1 1.1 2.6 1.6 4.1 1.5m16.3 13.4v7.7H75.4c-1.4-.1-2.8.3-3.9 1.1-.9.9-1.4 2.1-1.3 3.4 0 1.2.3 2.4 1 3.3.7.9 1.7 1.4 2.9 1.4h17.7v7.7H53.3v-7.7h16.5v-.3c-1.6-.6-3-1.6-4-2.9-1.1-1.4-1.6-3.2-1.5-5-.1-2.4.9-4.7 2.7-6.4 1.8-1.6 4.2-2.4 7.4-2.4l17.4.1m-29.9 29.3v10.5h29.9v7.8H61.9v10.5h-6.4V654h6.4m25.6-313.9-1.9 1.8-2.4 2.2v-3.8h-5.3c-5 0-9 1.5-12 4.3s-4.6 6.8-4.6 11.6S62.9 365 66 368c2.5 2.3 5.7 3.7 9 4.1h-.7c-3.9 0-7.1 1.1-9.4 3.2-2.4 2.2-3.7 5.3-3.6 8.6 0 1.8.4 3.6 1.2 5.3H62v13.7h11.7c-2.8.6-5.5 1.9-7.6 3.9-3.1 3-4.7 7-4.7 12s1.6 9.1 4.7 12c3.1 3 7.2 4.4 12.3 4.4 1.3 0 2.7-.1 4-.3v13.5L64 434.9l-.8-.6H52.5v31.1h12.4V452l18.3 13.4.8.6h10.8v-32.2h-8.9c1.8-.7 3.4-1.8 4.8-3.1 3.1-3 4.7-7 4.7-12s-1.6-9.1-4.7-12c-2.1-2-4.7-3.3-7.6-3.9h11.7V389H74.1c-.3 0-.3-.1-.4-.2-.3-.4-.5-1-.4-1.5 0-.4.1-.8.3-1.1.6-.3 1.2-.5 1.9-.4h19.3V372h-13c3.4-.4 6.5-1.8 9-4.1 3.1-2.9 4.6-7.1 4.6-12.4.1-2.8-.5-5.6-1.6-8.2-1-2.2-2.4-4.1-4.3-5.7l-2-1.5zM83.2 357v-3.5c.2.6.2 1.2.2 1.8.1.6 0 1.1-.2 1.7zm-10.3 0c-.1-.3-.1-.6-.1-.8 0-.3 0-.6.1-.8v1.6zm3.3 64.2c-.9.1-1.8-.2-2.6-.7-.8-1.1-.8-2.6 0-3.7.7-.5 1.7-.8 2.6-.7h4.3c.9-.1 1.8.2 2.6.7.8 1.1.8 2.6 0 3.7-.7.5-1.7.8-2.6.7h-4.3zm-2.6 73.9c-6.7 0-12 1.4-15.7 4.1-4 2.9-6.1 7.3-6.1 13.1s2 10.2 6.1 13.1c1.6 1.2 3.5 2 5.4 2.6H52.5v12.7h10.8l-8.8 3-2 .7v14.5h42.3v-12.6H84l8.8-3 2-.7V528H83.9c1.9-.6 3.7-1.5 5.4-2.7 4-2.9 6.1-7.3 6.1-13.1s-2-10.2-6.1-13.1c-3.7-2.7-9-4.1-15.7-4zm-3.2 20c-3.2 0-4.7-.5-5.5-1-.3-.2-.8-.5-.8-1.9s.5-1.7.8-1.9c.8-.4 2.3-1 5.5-1h6.3c3.2 0 4.7.5 5.5 1 .3.2.8.5.8 1.9s-.5 1.7-.8 1.9c-.8.4-2.3 1-5.5 1h-6.3zm17.1 74.6-1.9 1.8-2.4 2.2v-3.8h-5.3c-5 0-9 1.5-12 4.3s-4.6 6.8-4.6 11.6 1.6 8.8 4.7 11.7c2.5 2.3 5.6 3.7 9 4.1h-.7c-3.9 0-7.1 1.1-9.4 3.2-2.4 2.2-3.8 5.3-3.6 8.6 0 1.8.4 3.6 1.1 5.2H50.3v13.7h2.2v33.3h12.4v-10.5h29.9v-13.8H64.9v-9.1h29.9v-13.7H74.1c-.3 0-.3-.1-.4-.2-.3-.4-.5-1-.4-1.5 0-.4.1-.8.3-1.1.6-.3 1.2-.5 1.9-.4h19.3v-13.7h-13c3.4-.4 6.5-1.8 9-4.1 3.1-2.9 4.6-7.1 4.6-12.4.1-2.8-.5-5.6-1.6-8.1-1-2.2-2.4-4.1-4.3-5.7l-2-1.6zm-4.3 16.9v-3.5c.2.6.2 1.2.2 1.8.1.6 0 1.1-.2 1.7zm-10.3 0c-.1-.3-.1-.6-.1-.8 0-.3 0-.6.1-.8v1.6z" class="st8"/>
            </g>
            <g id="TNZ text (bottom)">
               <path d="M639.8 972.5v-13.6c-.3.3-.5.5-.8.7-1.7 1.3-3.8 1.9-5.9 1.8-2.8.1-5.6-1.1-7.5-3.2-1.8-2-2.8-4.9-2.8-8.4V931h10.7v17.8c-.1 1 .2 2 .8 2.9.6.6 1.4.9 2.2.8.9 0 1.7-.2 2.4-.7.5-.4.8-1 .8-1.7V931h10.7v41.5h-10.6zM512 970.9c-5.3 0-9.3-1.8-11.9-5.5s-3.8-8.5-3.8-14.8 1.3-11.3 3.8-14.8c2.6-3.6 6.6-5.5 11.9-5.5 5.3 0 9.3 1.8 11.9 5.5s3.8 8.5 3.8 14.8-1.3 11.3-3.8 14.8-6.6 5.5-11.9 5.5zm0-31.2c-1.3-.2-2.6.5-3.2 1.6-.9 2-1.3 4.1-1.1 6.2v6.3c-.1 2.1.3 4.3 1.1 6.2.4.7 1.2 1.6 3.2 1.6s2.8-.9 3.2-1.6c.9-1.9 1.3-4.1 1.2-6.2v-6.3c.1-2.1-.3-4.3-1.2-6.2-.4-.7-1.1-1.6-3.2-1.6zm140.2 30.6v-9.4h10.5V931h10.8v29.9H684v9.4h-31.8zm-107 0L539 952v18.3h-9.7V931h11.9l6.3 18.3V931h9.7v39.3h-12zm-109.7 0v-8.8l15.5-21.1h-16V931h29.2v8.8l-15.4 21.1h14.9v9.4h-28.2zm170-8.9c-4.4 0-8-1.4-10.5-4.1s-3.9-6.4-3.9-11v-3.8h5.7l-5.4-5.9.8-1c1.4-1.7 3.1-3 5.1-3.9 2.4-1 5-1.5 7.5-1.4 4.8 0 8.6 1.4 11.3 4.2s4 6.5 4 11.3-1.3 8.6-3.9 11.4c-2.8 2.9-6.7 4.4-10.7 4.2zm-3.8-11.6c.1.7.4 1.4.9 2 .7.7 1.8 1.1 2.8 1.1 1.1.1 2.1-.3 2.9-1.1.5-.5.9-1.2 1-2h-7.6zm7.6-7.3c-.1-.8-.5-1.5-1.1-2.1-1-.8-2.3-1.3-3.7-1.2-2.3 0-4.5 1-5.9 2.8l-.4.4 11.1.1zm-191 18.9c-4.6 0-8.3-1.4-11-4.2s-4-6.6-4-11.3 1.4-8.5 4-11.3 6.4-4.2 11-4.2 8.3 1.4 11 4.2 4 6.6 4 11.3-1.4 8.5-4 11.3-6.3 4.2-11 4.2zm0-22.3c-1.1-.1-2.2.3-2.9 1.1-.8 1-1.2 2.3-1.1 3.6v4.2c-.1 1.3.3 2.6 1.1 3.6 1.7 1.5 4.2 1.5 5.9 0 .8-1 1.2-2.3 1.1-3.6v-4.3c.1-1.3-.3-2.6-1.1-3.6-.8-.7-1.8-1.1-3-1zm-34.8 22.3c-2.8.1-5.6-1.1-7.5-3.2-1.8-2-2.8-4.9-2.8-8.4V931H384v17.8c-.1 1 .2 2 .8 2.9.6.6 1.4.9 2.2.8.9 0 1.7-.2 2.4-.7.5-.4.8-1 .8-1.7V931H401v29.8h-10.7v-1.9c-.3.3-.5.5-.8.7-1.8 1.3-3.9 1.9-6 1.8zm-27.6 0c-4.4 0-7.9-1.4-10.5-4.1s-3.9-6.4-3.9-11v-3.8h5.7l-5.4-5.9.8-1c1.4-1.7 3.1-3 5.1-3.9 2.4-1 5-1.5 7.5-1.4 4.8 0 8.6 1.4 11.3 4.2s4 6.5 4 11.3-1.3 8.6-3.9 11.4c-2.8 2.9-6.6 4.4-10.6 4.2h-.1zm-3.8-11.6c.1.7.4 1.4.9 2 .7.7 1.8 1.1 2.8 1.1 1.1.1 2.1-.3 2.9-1.1.5-.5.9-1.2 1-2h-7.6zm7.6-7.3c-.1-.8-.5-1.5-1.1-2.1-1-.8-2.3-1.3-3.6-1.2-2.3 0-4.5 1-5.9 2.8l-.4.4 11 .1z"/>
               <path d="M604.9 931.9c4.4 0 7.8 1.2 10.2 3.7 2.4 2.5 3.5 5.9 3.5 10.2 0 4.4-1.2 7.9-3.5 10.4s-5.5 3.8-9.5 3.8-7.2-1.2-9.5-3.7-3.5-5.8-3.5-10V944H611v-.5c.1-1.6-.5-3.1-1.7-4.2-1.3-1.1-3-1.7-4.7-1.6-2.7 0-5.4 1.2-7.1 3.3l-4.2-4.5c1.2-1.5 2.8-2.7 4.6-3.4 2.3-.9 4.7-1.3 7-1.2m.7 22.5c1.5.1 2.9-.5 4-1.5 1-1.1 1.6-2.6 1.5-4.1v-.4h-10.9v.4c-.1 1.5.4 3 1.4 4.1 1 1 2.4 1.6 4 1.5M512 931.9c4.8 0 8.4 1.6 10.7 4.8 2.3 3.2 3.5 7.9 3.5 13.9 0 6.1-1.2 10.7-3.5 13.9-2.3 3.2-5.9 4.8-10.7 4.8-4.8 0-8.4-1.6-10.7-4.8-2.3-3.2-3.5-7.9-3.5-13.9 0-6.1 1.2-10.7 3.5-13.9 2.3-3.2 5.9-4.8 10.7-4.8m0 31.2c1.8.1 3.6-.8 4.5-2.3.9-1.6 1.3-3.9 1.3-7v-6.3c0-3.1-.5-5.4-1.3-7-1.8-2.5-5.2-3.1-7.7-1.3-.5.4-.9.8-1.3 1.3-.9 1.6-1.4 3.9-1.4 7v6.3c0 3.1.5 5.4 1.4 7 1 1.5 2.7 2.4 4.5 2.3m-93.6-31.3c4.2 0 7.5 1.3 9.9 3.8 2.4 2.5 3.6 5.9 3.6 10.3 0 4.3-1.2 7.8-3.6 10.3-2.4 2.5-5.7 3.8-9.9 3.8s-7.5-1.3-9.9-3.8c-2.4-2.5-3.6-5.9-3.6-10.3 0-4.3 1.2-7.8 3.6-10.3 2.5-2.5 5.7-3.8 9.9-3.8m0 22.4c1.5.1 3-.5 4.1-1.6 1-1.3 1.6-2.9 1.5-4.6v-4.3c.1-1.7-.4-3.3-1.5-4.6-2.3-2.1-5.8-2.1-8.1 0-1 1.3-1.6 2.9-1.5 4.6v4.3c-.1 1.7.4 3.3 1.5 4.6 1 1.1 2.5 1.7 4 1.6m-63.1-22.4c4.4 0 7.8 1.2 10.2 3.7s3.5 5.9 3.5 10.3-1.2 7.9-3.5 10.4-5.5 3.8-9.5 3.8-7.2-1.2-9.5-3.7c-2.3-2.4-3.5-5.8-3.5-10V944h18.4v-.5c.1-1.6-.5-3.1-1.7-4.2-1.3-1.1-3-1.7-4.7-1.6-2.7 0-5.4 1.2-7.1 3.3l-4.2-4.5c1.2-1.5 2.8-2.7 4.6-3.4 2.3-.9 4.7-1.3 7-1.3m.7 22.6c1.5.1 2.9-.5 4-1.5 1-1.1 1.6-2.6 1.5-4.1v-.4h-10.9v.4c-.1 1.5.4 3 1.5 4.2.9 1 2.4 1.5 3.9 1.4m315.9-21.9v29.9h10.5v6.4h-28.7v-6.4h10.4v-29.9h7.8m-22.9 0V971h-7.7v-16.6h-.3c-.6 1.6-1.6 3-2.9 4-1.4 1.1-3.2 1.6-5 1.5-2.4.1-4.7-.9-6.3-2.7-1.6-1.8-2.4-4.2-2.4-7.4v-17.4h7.7v16.3c-.1 1.4.3 2.8 1.1 3.9.9.9 2.1 1.4 3.4 1.3 1.2 0 2.4-.3 3.3-1 .9-.7 1.4-1.7 1.4-2.9v-17.7h7.7m-93.4.2v36.3h-9.4l-8.2-24.1h-.6v24.1h-6.7v-36.3h9.4l8.3 24.1h.6v-24.1h6.6m-92.9 0v6.8l-16.9 23.1h16.4v6.4h-25.1V962l16.9-23.1h-17.5v-6.4h26.2m-63.3 0v26.8h-7.7v-4.9h-.3c-.6 1.6-1.6 3-2.9 4-1.4 1.1-3.2 1.6-5 1.5-2.4.1-4.7-.9-6.3-2.7-1.6-1.8-2.4-4.2-2.4-7.4v-17.4h7.7v16.3c-.1 1.4.3 2.8 1.1 3.9.9.9 2.1 1.4 3.4 1.3 1.2 0 2.4-.3 3.3-1 .9-.7 1.4-1.7 1.4-2.9v-17.7h7.7m205.5-3.4c-2.8-.1-5.6.5-8.2 1.6-2.2 1-4.1 2.4-5.7 4.3l-1.6 2 1.8 1.9 2.2 2.4h-3.8v5.3c0 5 1.5 9 4.3 12s6.8 4.6 11.6 4.6 8.8-1.6 11.7-4.7c2.3-2.5 3.7-5.6 4.1-9v.7c0 3.9 1.1 7.1 3.2 9.4 2.2 2.4 5.3 3.8 8.6 3.6 1.8 0 3.6-.4 5.2-1.1V974H652v-2.2h33.3v-12.4h-10.4v-29.9h-13.8v29.9H652v-29.9h-13.7v20.6c0 .3-.1.3-.2.5-.4.3-1 .5-1.5.5-.4 0-.8-.1-1.1-.3-.3-.6-.5-1.2-.4-1.9v-19.4h-13.7v13c-.4-3.4-1.8-6.5-4.1-9-3-3.1-7.2-4.6-12.4-4.6zm-2.1 12.1c.6-.2 1.2-.2 1.8-.2.6 0 1.2.1 1.7.2h-3.5zm1.8 10.3h1.7c-.3.1-.6.1-.8.1-.3 0-.6 0-.9-.1zM512 928.9c-5.8 0-10.2 2-13.1 6.1-2.7 3.7-4.1 9-4.1 15.7s1.4 12 4.1 15.7c2.9 4 7.3 6.1 13.1 6.1s10.2-2 13.1-6.1c1.2-1.6 2.1-3.5 2.7-5.4v10.8h12.7V961l3 8.8.7 2h14.5v-42.3H546v10.8l-3-8.8-.7-2h-14.5v10.8c-.6-1.9-1.5-3.7-2.7-5.4-2.9-4-7.3-6-13.1-6zm0 31.2c-1.4 0-1.8-.5-1.9-.8-.4-.8-1-2.3-1-5.5v-6.3c0-3.2.5-4.7 1-5.5.2-.3.5-.8 1.9-.8s1.7.5 1.9.8c.4.8 1 2.3 1 5.5v6.3c0 3.2-.5 4.7-1 5.5-.1.3-.4.8-1.9.8zm-93.6-31.2c-5 0-9.1 1.6-12 4.7-2 2.1-3.3 4.7-3.9 7.6v-11.7h-13.7v20.6c0 .3-.1.3-.2.5-.4.3-1 .5-1.5.4-.4 0-.8-.1-1.1-.3-.3-.6-.5-1.2-.4-1.9v-19.3h-13.7v13c-.4-3.4-1.8-6.5-4.1-9-2.9-3.1-7.1-4.6-12.4-4.6-2.8-.1-5.6.5-8.2 1.6-2.2 1-4.1 2.4-5.7 4.3l-1.6 2 1.8 1.9 2.2 2.4H340v5.3c0 5 1.5 9 4.3 12s6.8 4.6 11.6 4.6 8.8-1.6 11.7-4.7c2.3-2.5 3.7-5.6 4.1-9v.7c0 3.9 1.1 7.1 3.2 9.4 2.2 2.4 5.3 3.7 8.6 3.6 1.8 0 3.6-.4 5.2-1.1v.5h13.7v-11.6c.6 2.8 1.9 5.5 3.9 7.6 3 3.1 7 4.7 12 4.7s9.1-1.6 12-4.7 4.4-7.2 4.4-12.3c0-1.3-.1-2.7-.3-4h13.5l-13.4 18.3-.6.8V972H465v-12.4h-13.5l13.4-18.3.6-.8v-10.8h-32.2v8.9c-.7-1.8-1.8-3.4-3.1-4.8-2.7-3.3-6.7-4.9-11.8-4.9zm0 22.3c-.7.1-1.3-.1-1.8-.6-.5-.7-.8-1.7-.7-2.6v-4.3c-.1-.9.2-1.8.7-2.6 1.1-.8 2.6-.8 3.7 0 .5.7.8 1.7.7 2.6v4.2c.1.9-.2 1.8-.7 2.6-.5.6-1.2.8-1.9.7zM353.2 941c.6-.2 1.2-.2 1.8-.2.6 0 1.2.1 1.7.2h-3.5zm1.9 10.3h1.7c-.3.1-.6.1-.8.1-.4 0-.7 0-.9-.1z" class="st8"/>
            </g>
            <g id="TNZ text (top)">
               <path d="M668.7 94.1c-4.8 0-8.6-1.4-11.3-4.2s-4-6.5-4-11.3 1.3-8.6 3.9-11.4c2.8-2.9 6.6-4.5 10.6-4.3 4.4 0 8 1.4 10.5 4.1s3.9 6.4 3.9 11v4h-5.7l5.4 5.9-.8 1c-1.4 1.7-3.1 3-5.1 3.9-2.3.9-4.8 1.4-7.4 1.3zM664.2 82c.1.8.5 1.5 1.1 2.1 1 .8 2.3 1.2 3.7 1.1 2.3 0 4.5-1 5.9-2.8l.4-.4h-11.1zm7.7-7.3c-.1-.7-.4-1.4-.9-2-.7-.7-1.8-1.1-2.8-1.1-1.1-.1-2.1.3-2.9 1.1-.5.5-.9 1.2-1 2h7.6zm-66.3 19.4c-4.6 0-8.3-1.4-11-4.2s-4-6.6-4-11.3 1.3-8.5 4-11.3 6.4-4.3 11-4.3 8.3 1.4 11 4.2 4 6.6 4 11.3-1.3 8.5-4 11.3-6.4 4.3-11 4.3zm0-22.3c-1.1-.1-2.2.3-2.9 1.1-.8 1-1.2 2.3-1.1 3.6v4.3c-.1 1.3.3 2.6 1.1 3.6 1.7 1.5 4.2 1.5 5.9 0 .8-1 1.2-2.3 1.1-3.6v-4.3c.1-1.3-.3-2.6-1.1-3.6-.8-.8-1.9-1.2-3-1.1zM512 94.1c-5.3 0-9.3-1.8-11.9-5.5s-3.8-8.5-3.8-14.8 1.3-11.3 3.8-14.8 6.6-5.5 11.9-5.5c5.3 0 9.3 1.8 11.9 5.5s3.8 8.5 3.8 14.8-1.3 11.3-3.8 14.8-6.6 5.5-11.9 5.5zm0-31.2c-2.1 0-2.8.9-3.2 1.6-.9 1.9-1.3 4.1-1.1 6.2V77c-.1 2.1.3 4.3 1.1 6.2.4.7 1.2 1.6 3.2 1.6 1.3.2 2.6-.5 3.2-1.6.9-1.9 1.3-4.1 1.2-6.2v-6.3c.1-2.1-.3-4.3-1.2-6.2-.4-.7-1.1-1.6-3.2-1.6zm-92.9 31.2c-4.8 0-8.6-1.4-11.3-4.2s-4-6.5-4-11.3 1.3-8.6 3.9-11.4c2.8-2.9 6.7-4.5 10.7-4.3 4.4 0 8 1.4 10.5 4.1s3.9 6.4 3.9 11v4h-5.7l5.4 5.9-.8 1c-1.4 1.7-3.1 3-5.1 3.9-2.3.9-4.9 1.4-7.5 1.3zM414.6 82c.1.8.5 1.5 1.1 2.1 1 .8 2.3 1.3 3.6 1.2 2.3 0 4.5-1 5.9-2.8l.4-.4-11-.1zm7.7-7.3c-.1-.7-.4-1.4-.9-2-.7-.7-1.8-1.1-2.8-1.1-1.1-.1-2.1.3-2.9 1.1-.5.5-.9 1.2-1 2h7.6zM640 93.5V75.7c.1-1-.2-2.1-.8-2.9-.6-.6-1.4-.9-2.2-.8-.9 0-1.7.2-2.4.8-.5.4-.8 1-.8 1.7v19.1h-10.7V63.7h10.7v1.9c.3-.3.5-.5.8-.7 1.7-1.3 3.8-1.9 5.9-1.9 2.8-.1 5.6 1.1 7.5 3.1 1.8 2 2.8 4.9 2.8 8.4v18.9l-10.8.1zm-80.2 0v-8.8l15.4-21.1h-14.9v-9.4h28.1V63L573 84.1h16v9.4h-29.2zm-77 0-6.3-18.3v18.3h-9.7V54.2h11.9l6.3 18.3V54.2h9.7v39.3h-11.9zm-92.4 0V75.7c.1-1-.2-2.1-.8-2.9-.6-.6-1.4-.9-2.2-.8-.9 0-1.7.2-2.4.8-.5.4-.8 1-.8 1.7v19.1h-10.7V52h10.7v13.6c.3-.3.5-.5.8-.7 1.7-1.3 3.8-1.9 5.9-1.9 2.8-.1 5.6 1.1 7.5 3.1 1.8 2 2.8 4.9 2.8 8.4v18.9l-10.8.1zm-39.8 0V63.6h-10.4v-9.4h31.7v9.4h-10.5v29.9h-10.8z"/>
               <path d="M382.7 53.5V70h.3c.6-1.6 1.6-3 2.9-4 1.4-1.1 3.2-1.6 5-1.5 2.4-.1 4.7.9 6.3 2.7 1.6 1.8 2.4 4.2 2.4 7.4V92H392V75.7c.1-1.4-.3-2.8-1.1-3.9-.9-.9-2.1-1.4-3.4-1.3-1.2 0-2.4.3-3.3 1-.9.7-1.4 1.7-1.4 2.9V92H375V53.5h7.7M512 55.1c4.8 0 8.4 1.6 10.7 4.8 2.3 3.2 3.5 7.9 3.5 13.9s-1.2 10.7-3.5 13.9c-2.3 3.2-5.9 4.8-10.7 4.8-4.8 0-8.4-1.6-10.7-4.8-2.3-3.2-3.5-7.9-3.5-13.9 0-6.1 1.2-10.7 3.5-13.9 2.3-3.2 5.9-4.8 10.7-4.8m0 31.2c1.8.2 3.6-.8 4.5-2.3.9-1.6 1.3-3.9 1.3-7v-6.3c0-3.1-.5-5.4-1.3-7-1.8-2.5-5.2-3.1-7.7-1.3-.5.4-.9.8-1.3 1.3-.9 1.6-1.4 3.9-1.4 7V77c0 3.1.5 5.4 1.4 7 .9 1.6 2.7 2.5 4.5 2.3m74.9-30.6v6.8L570 85.6h17.4V92h-26.1v-6.8l16.9-23.1h-16.4v-6.4h25.1m-93.7 0V92h-9.4l-8.3-24.1h-.5V92h-6.7V55.7h9.4l8.3 24.1h.6V55.7h6.6m-122.8 0v6.4h-10.5V92h-7.8V62.1h-10.5v-6.4h28.8M668 64.6c4 0 7.2 1.2 9.5 3.7 2.3 2.4 3.5 5.8 3.5 10v2.3h-18.3v.4c-.1 1.6.5 3.1 1.7 4.2 1.3 1.1 3 1.6 4.7 1.5 2.7 0 5.4-1.2 7.1-3.3l4.2 4.5c-1.2 1.5-2.8 2.7-4.6 3.4-2.2.9-4.5 1.4-6.9 1.3-4.4 0-7.8-1.2-10.2-3.7-2.4-2.5-3.5-5.9-3.5-10.2 0-4.4 1.2-7.9 3.5-10.4s5.3-3.8 9.3-3.7m-5.4 11.6h10.8v-.4c.1-1.5-.4-3-1.4-4.1-1-1.1-2.5-1.6-3.9-1.5-1.5-.1-2.9.5-4 1.5-1 1.1-1.6 2.6-1.5 4.1v.4m-22.2-11.7c2.4-.1 4.7.9 6.3 2.7 1.6 1.8 2.4 4.2 2.4 7.4V92h-7.7V75.7c.1-1.4-.3-2.8-1.1-3.9-.9-.9-2.1-1.4-3.3-1.3-1.2 0-2.4.3-3.3 1-.9.7-1.4 1.7-1.4 2.9V92h-7.7V65.2h7.7v4.9h.3c.6-1.6 1.6-3 2.9-4a8.2 8.2 0 0 1 4.9-1.6m-34.8 0c4.2 0 7.5 1.3 9.9 3.8 2.4 2.5 3.6 5.9 3.6 10.3s-1.2 7.8-3.6 10.3c-2.4 2.5-5.7 3.8-9.9 3.8s-7.5-1.3-9.9-3.8c-2.4-2.5-3.6-5.9-3.6-10.3s1.2-7.8 3.6-10.3c2.4-2.5 5.7-3.8 9.9-3.8m0 22.4c1.5.1 3-.5 4.1-1.6 1-1.3 1.6-2.9 1.5-4.6v-4.3c.1-1.7-.4-3.3-1.5-4.6-2.3-2.1-5.8-2.1-8.1 0-1 1.3-1.6 2.9-1.5 4.6v4.3c-.1 1.7.4 3.3 1.5 4.6 1 1.1 2.5 1.7 4 1.6M418.5 64.6c4 0 7.2 1.2 9.5 3.7 2.3 2.4 3.5 5.8 3.5 10v2.3H413v.4c-.1 1.6.5 3.1 1.7 4.2 1.3 1.1 3 1.7 4.7 1.6 2.7 0 5.4-1.2 7.1-3.3l4.2 4.5c-1.2 1.5-2.8 2.6-4.6 3.4-2.2.9-4.5 1.4-6.9 1.3-4.4 0-7.8-1.2-10.2-3.7-2.4-2.5-3.5-5.9-3.5-10.2 0-4.4 1.2-7.9 3.5-10.4 2.2-2.6 5.4-3.9 9.5-3.8M413 76.2h10.8v-.4c.1-1.5-.4-3-1.4-4.1-1-1.1-2.5-1.6-3.9-1.5-1.5-.1-2.9.5-4 1.5-1 1.1-1.5 2.6-1.5 4.1v.4m-27.3-25.7H372v2.2h-33.4v12.4h10.5V95h13.8V65.1h9.1V95h13.7V74.4c0-.3.1-.3.2-.4.4-.3 1-.5 1.5-.4.4 0 .8.1 1.1.3.3.6.5 1.2.4 1.9V95h13.7V82c.4 3.4 1.8 6.5 4.1 9 2.9 3.1 7.1 4.6 12.4 4.6 2.8.1 5.6-.5 8.2-1.6 2.2-1 4.2-2.4 5.7-4.3l1.6-2-1.8-1.9-2.2-2.4h3.8v-5.3c0-5-1.5-9-4.3-12s-6.8-4.6-11.6-4.6-8.8 1.6-11.7 4.7c-2.3 2.5-3.7 5.6-4.1 9v-.7c0-3.9-1.1-7.1-3.2-9.4-2.2-2.4-5.3-3.8-8.6-3.6-1.8 0-3.6.4-5.2 1.1V50.5zm32 22.7c.3-.1.6-.1.8-.1.3 0 .6 0 .8.1h-1.6zm0 10.3h3.5c-.6.2-1.2.2-1.8.2-.6 0-1.2-.1-1.7-.2zM512 52.1c-5.8 0-10.2 2-13.1 6.1-1.2 1.6-2.1 3.5-2.7 5.4V52.7h-12.7v10.8l-3-8.8-.7-2h-14.5V95H478V84.2l3 8.8.7 2h14.5V84.2c.6 1.9 1.5 3.7 2.7 5.4 2.9 4 7.3 6.1 13.1 6.1s10.2-2 13.1-6.1c2.7-3.7 4.1-9 4.1-15.7s-1.4-12-4.1-15.7c-3-4-7.4-6.1-13.1-6.1zm0 31.2c-1.4 0-1.7-.5-1.9-.8-.4-.8-1-2.3-1-5.5v-6.3c0-3.2.5-4.7 1-5.5.2-.3.5-.8 1.9-.8s1.7.5 1.9.8c.4.8 1 2.3 1 5.5V77c0 3.2-.5 4.7-1 5.5-.2.3-.5.9-1.9.8zm77.9-30.6h-31.1v12.4h13.5l-13.4 18.3-.6.8V95h32.2v-8.9c.7 1.8 1.8 3.4 3.1 4.8 3 3.1 7 4.7 12 4.7s9.1-1.6 12-4.7c2-2.1 3.3-4.7 3.9-7.6V95h13.7V74.4c0-.3.1-.3.2-.4.4-.3 1-.5 1.5-.4.4 0 .8.1 1.1.3.3.6.5 1.2.4 1.9V95h13.7V82c.4 3.4 1.8 6.5 4.1 9 2.9 3.1 7.1 4.6 12.4 4.6 2.8.1 5.6-.5 8.2-1.6 2.2-1 4.1-2.4 5.7-4.3l1.6-2-1.8-1.9-2.2-2.4h3.8v-5.3c0-5-1.5-9-4.3-12s-6.8-4.6-11.6-4.6-8.8 1.6-11.7 4.7c-2.3 2.5-3.7 5.6-4.1 9v-.7c0-3.9-1.1-7.1-3.2-9.4-2.2-2.4-5.3-3.7-8.6-3.6-1.8 0-3.6.4-5.2 1.1v-.5h-13.7v11.6c-.6-2.8-1.9-5.5-3.9-7.6-3-3.1-7-4.7-12-4.7s-9.1 1.6-12 4.7c-3 3.1-4.4 7.2-4.4 12.3 0 1.3.1 2.7.3 4H576l13.4-18.3.6-.8-.1-10.6zm77.4 20.5c.3-.1.6-.1.8-.1.3 0 .6 0 .8.1h-1.6zm-61.7 10.7c-.7.1-1.3-.1-1.8-.6-.5-.7-.8-1.7-.7-2.6v-4.3c-.1-.9.2-1.8.7-2.6 1.1-.8 2.6-.8 3.7 0 .5.7.8 1.7.7 2.6v4.3c.1.9-.2 1.8-.7 2.6-.6.5-1.2.7-1.9.6zm61.6-.4h3.5c-.6.2-1.2.2-1.8.2-.5 0-1.1-.1-1.7-.2z" class="st8"/>
            </g>
         </g>
      </g>
   </g>
</svg>
