<svg xmlns="http://www.w3.org/2000/svg" id="Icon_grid" data-name="Icon grid" viewBox="0 0 1024 1024">
   <defs>
      <style>
         .cls-2,.cls-3,.cls-5,.cls-6{fill:none;stroke-miterlimit:10}.cls-2{stroke:#262525}.cls-3{stroke:#64ff00}.cls-5,.cls-6{stroke:#000}.cls-6{stroke-dasharray:11.87 11.87}.cls-11{fill:#fff}
      </style>
   </defs>
   <g id="Other_shape_guides" data-name="Other shape guides" style="opacity:.75">
      <path d="M708.02 808h-392V216h392z" class="cls-2"/>
      <path d="M782 761.5H242v-500h540z" class="cls-2"/>
      <path d="M822 736H202V288h620z" class="cls-2"/>
      <path d="M807.52 691h-592V333h592z" class="cls-2"/>
      <path d="M847.5 661.62h-672v-302h672z" class="cls-2"/>
   </g>
   <g id="_1:1_shape_guides" data-name="1:1 shape guides">
      <circle cx="511.98" cy="511.75" r="285" class="cls-3"/>
      <circle cx="511.98" cy="511.75" r="285" style="stroke-dasharray:11.94 11.94;stroke:#000;fill:none;stroke-miterlimit:10"/>
      <path d="M749.5 749.75h-475v-475h475z" class="cls-3"/>
      <path d="M274.5 280.75v-6h6" class="cls-5"/>
      <path d="M292.37 274.75h445.19" class="cls-6"/>
      <path d="M743.5 274.75h6v6" class="cls-5"/>
      <path d="M749.5 292.62v445.19" class="cls-6"/>
      <path d="M749.5 743.75v6h-6" class="cls-5"/>
      <path d="M731.63 749.75H286.44" class="cls-6"/>
      <path d="M280.5 749.75h-6v-6" class="cls-5"/>
      <path d="M274.5 731.88V286.69" class="cls-6"/>
   </g>
   <path id="Caution" d="M512 86.25c-234.9 0-426 191.1-426 426s191.1 426 426 426 426-191.1 426-426-191.1-426-426-426Zm0 810c-211.74 0-384-172.26-384-384s172.26-384 384-384 384 172.26 384 384-172.26 384-384 384Z" style="isolation:isolate;fill:#ff0;opacity:.9"/>
   <g style="opacity:.9;isolation:isolate">
      <path id="Warning" d="M512 41.85c-259.79 0-470.4 210.6-470.4 470.4S252.21 982.64 512 982.64 982.4 772 982.4 512.25 771.79 41.85 512 41.85Zm0 896.4c-234.9 0-426-191.1-426-426s191.1-426 426-426 426 191.1 426 426-191.1 426-426 426Z" style="fill:#f7931e"/>
   </g>
   <g id="The_NO_Zone" data-name="The NO Zone">
      <path id="The_NO_Zone_SHAPE" d="M1024 511.75A512.12 512.12 0 0 0 40.25 312.44 508.83 508.83 0 0 0 0 511.75v.5a510.05 510.05 0 0 0 128 338.66v-.48q10.58 12 22 23.36 11.65 11.65 23.93 22.46h-.55a512 512 0 0 0 677.31 0h-.55q12.27-10.82 23.93-22.46 11.38-11.38 22-23.36v.48a510.05 510.05 0 0 0 128-338.66v-.26c0-.09-.07-.16-.07-.24Zm-241.65 384.5h-540.7A472.65 472.65 0 0 1 128 782.81V240.69a472.66 472.66 0 0 1 112.23-112.44h543.54A472.66 472.66 0 0 1 896 240.69v542.12a472.65 472.65 0 0 1-113.65 113.44Z" data-name="The NO Zone SHAPE" style="fill:#ff0049;isolation:isolate;opacity:.75"/>
      <g id="TNZ_text_right_" data-name="TNZ text (right)">
         <path d="M960.64 372.1v-10.45h-29.9v-10.8h29.9V340.4h9.4v31.7h-9.4z"/>
         <path d="M968.54 341.9v28.7h-6.4v-10.45h-29.9v-7.8h29.9V341.9h6.4m3-3h-12.4v10.45h-29.9v13.8h29.9v10.45h12.4v-34.7Z" class="cls-11"/>
         <path d="M930.74 401.38v-10.7h17.83a4.4 4.4 0 0 0 2.89-.78 2.79 2.79 0 0 0 .81-2.24 3.94 3.94 0 0 0-.74-2.44 1.88 1.88 0 0 0-1.66-.8h-19.13v-10.7h41.48v10.7h-13.56a10.26 10.26 0 0 1 .72.83 9.37 9.37 0 0 1 1.82 5.88 9.61 9.61 0 0 1-3.2 7.47c-2 1.84-4.89 2.78-8.44 2.78Z"/>
         <path d="M970.72 375.23v7.7h-16.54v.31a9.23 9.23 0 0 1 4 2.94 7.88 7.88 0 0 1 1.51 5 8.13 8.13 0 0 1-2.65 6.34q-2.65 2.39-7.44 2.39h-17.36v-7.7h16.33a5.78 5.78 0 0 0 3.87-1.14 4.22 4.22 0 0 0 1.33-3.38 5.44 5.44 0 0 0-1-3.33 3.37 3.37 0 0 0-2.86-1.4h-17.67v-7.7h38.48m3-3h-44.48v13.7h20.63c.31 0 .35.06.45.19a2.42 2.42 0 0 1 .45 1.54 1.63 1.63 0 0 1-.29 1.11 3.3 3.3 0 0 1-1.91.42h-19.33v13.7h20.37c3.94 0 7.12-1.06 9.44-3.16a11 11 0 0 0 3.64-8.57 11.53 11.53 0 0 0-1.14-5.22h12.16v-13.7Z" class="cls-11"/>
         <path d="M942.28 433.15v-5.7l-5.87 5.4-1-.81a13.79 13.79 0 0 1-3.86-5.12 18.21 18.21 0 0 1-1.43-7.54c0-4.84 1.4-8.64 4.16-11.28s6.53-4 11.28-4 8.61 1.32 11.4 3.91a13.9 13.9 0 0 1 4.25 10.64c0 4.4-1.39 7.95-4.13 10.55s-6.42 3.9-11 3.9Zm0-18.27a3.66 3.66 0 0 0-2.09 1.1 5.12 5.12 0 0 0-1.15 3.65 7.37 7.37 0 0 0 2.79 5.93l.44.38Zm7.32 7.64a3.81 3.81 0 0 0 2-.94 3.65 3.65 0 0 0 1.06-2.83 3.81 3.81 0 0 0-1.08-2.9 3.72 3.72 0 0 0-2-1Z"/>
         <path d="M945.55 405.65q6.6 0 10.37 3.51t3.77 9.54q0 6-3.67 9.46t-10 3.48h-2.29V413.3h-.47a5.5 5.5 0 0 0-4.16 1.7 6.58 6.58 0 0 0-1.56 4.68 8.87 8.87 0 0 0 3.33 7.07l-4.52 4.16a12.25 12.25 0 0 1-3.43-4.58 16.66 16.66 0 0 1-1.3-6.92q0-6.66 3.69-10.19t10.24-3.54m2.55 18.46h.42a5.82 5.82 0 0 0 4.13-1.43 5.11 5.11 0 0 0 1.53-3.93 5.28 5.28 0 0 0-1.53-4 5.7 5.7 0 0 0-4.13-1.48h-.42v10.82m-2.55-21.46c-5.15 0-9.29 1.47-12.32 4.37s-4.62 7.09-4.62 12.36a19.69 19.69 0 0 0 1.57 8.16 15.27 15.27 0 0 0 4.28 5.67l2 1.62 1.9-1.75 2.41-2.21v3.78h5.29c5 0 9-1.45 12-4.31s4.6-6.82 4.6-11.64-1.55-8.82-4.66-11.71-7.25-4.31-12.42-4.31Zm-4.77 18.79a6.5 6.5 0 0 1-.24-1.81 5.48 5.48 0 0 1 .24-1.74v3.54Zm10.32-1.85v-1.68a3.78 3.78 0 0 1 .08.84 3.68 3.68 0 0 1-.08.83Z" class="cls-11"/>
         <path d="M930.74 494.98v-11.93l18.29-6.27h-18.29v-9.66h39.3v11.94l-18.3 6.26h18.3v9.66h-39.3z"/>
         <path d="M968.54 468.62V478l-24.13 8.27v.57h24.13v6.66h-36.3v-9.36l24.13-8.27v-.57h-24.13v-6.66h36.3m3-3h-42.3v12.66H940l-8.76 3-2 .69v14.5h42.3v-12.67h-10.79l8.76-3 2-.69v-14.5Z" class="cls-11"/>
         <path d="M950.39 527.95c-6.36 0-11.35-1.28-14.82-3.8-3.62-2.63-5.46-6.63-5.46-11.9s1.83-9.27 5.46-11.9 8.46-3.8 14.82-3.8 11.34 1.28 14.82 3.8 5.46 6.63 5.46 11.9-1.83 9.27-5.46 11.9-8.46 3.8-14.82 3.8Zm-3.17-20.07A12.94 12.94 0 0 0 941 509c-.68.39-1.59 1.16-1.59 3.23a3.27 3.27 0 0 0 1.61 3.22 13.11 13.11 0 0 0 6.25 1.15h6.29a12.94 12.94 0 0 0 6.22-1.15c.68-.39 1.59-1.16 1.59-3.23s-.91-2.83-1.59-3.22a12.93 12.93 0 0 0-6.22-1.15Z"/>
         <path d="M950.39 498.05q9.1 0 13.94 3.51t4.84 10.69q0 7.18-4.84 10.69t-13.94 3.51q-9.1 0-13.94-3.51t-4.84-10.69q0-7.18 4.84-10.69t13.94-3.51m-3.12 20.07h6.29q4.63 0 7-1.35a5.54 5.54 0 0 0 0-9q-2.34-1.35-7-1.35h-6.34q-4.63 0-7 1.35a5.53 5.53 0 0 0 0 9q2.37 1.35 7 1.35m3.12-23.07c-6.68 0-12 1.37-15.7 4.08-4 2.93-6.07 7.34-6.07 13.11s2 10.19 6.07 13.11c3.73 2.71 9 4.08 15.7 4.08s12-1.37 15.7-4.08c4-2.93 6.07-7.34 6.07-13.11s-2-10.19-6.07-13.11c-3.73-2.71-9-4.08-15.7-4.08Zm-3.12 20.07c-3.17 0-4.74-.52-5.51-1-.32-.18-.85-.49-.85-1.92s.53-1.74.84-1.93c.75-.43 2.31-1 5.47-1h6.34c3.16 0 4.72.52 5.47.95.32.18.84.49.84 1.93s-.53 1.75-.84 1.93c-.75.43-2.31.95-5.47.95Z" class="cls-11"/>
         <path d="M930.74 589.2v-29.16h8.8l21.1 15.45v-14.92h9.4v28.11h-8.81l-21.09-15.44v15.96h-9.4z"/>
         <path d="m939.05 561.54 23.09 16.9v-16.37h6.4v25.12h-6.81l-23.09-16.9v17.41h-6.4v-26.16h6.81m1-3h-10.81v32.16h12.4v-14.51L960 589.6l.79.58h10.79v-31.11h-12.4v13.47l-18.32-13.41-.79-.58Z" class="cls-11"/>
         <path d="M945.66 620.82c-4.71 0-8.52-1.35-11.3-4s-4.24-6.36-4.24-11 1.43-8.29 4.24-11 6.59-4 11.3-4 8.51 1.35 11.3 4 4.24 6.36 4.24 11-1.43 8.29-4.24 11-6.59 4-11.3 4Zm-2.13-19a5.2 5.2 0 0 0-3.57 1.07 4.43 4.43 0 0 0 0 5.88 5.21 5.21 0 0 0 3.57 1.07h4.26a5.21 5.21 0 0 0 3.57-1.07 4.43 4.43 0 0 0 0-5.88 5.21 5.21 0 0 0-3.57-1.07Z"/>
         <path d="M945.66 592.38q6.5 0 10.27 3.59t3.77 9.88q0 6.29-3.77 9.88t-10.27 3.59q-6.5 0-10.27-3.59t-3.77-9.88q0-6.29 3.77-9.88t10.27-3.59m-2.13 19h4.26a6.59 6.59 0 0 0 4.58-1.46 5.91 5.91 0 0 0 0-8.11 6.59 6.59 0 0 0-4.58-1.46h-4.26a6.59 6.59 0 0 0-4.58 1.46 5.91 5.91 0 0 0 0 8.11 6.59 6.59 0 0 0 4.58 1.46m2.13-22c-5.11 0-9.26 1.49-12.34 4.41s-4.7 7-4.7 12.05 1.58 9.08 4.7 12.05 7.23 4.41 12.34 4.41 9.26-1.49 12.34-4.41 4.7-7 4.7-12.05-1.58-9.08-4.7-12.05-7.23-4.41-12.34-4.41Zm-2.13 19a3.83 3.83 0 0 1-2.56-.68 3 3 0 0 1 0-3.66 3.83 3.83 0 0 1 2.57-.68h4.26a3.83 3.83 0 0 1 2.57.68 2.16 2.16 0 0 1 .62 1.83 2.2 2.2 0 0 1-.62 1.83 3.83 3.83 0 0 1-2.56.68Z" class="cls-11"/>
         <path d="M930.74 651v-10.7h17.83a4.41 4.41 0 0 0 2.89-.78 2.79 2.79 0 0 0 .8-2.24 3.94 3.94 0 0 0-.74-2.43 1.88 1.88 0 0 0-1.66-.8h-19.12v-10.7h29.83V634h-1.92a10.4 10.4 0 0 1 .72.83 9.37 9.37 0 0 1 1.82 5.88 9.61 9.61 0 0 1-3.19 7.49c-2 1.84-4.89 2.78-8.44 2.78Z"/>
         <path d="M959.07 624.83v7.7h-4.89v.31a9.23 9.23 0 0 1 4 2.94 7.88 7.88 0 0 1 1.51 5 8.13 8.13 0 0 1-2.65 6.34q-2.65 2.39-7.44 2.39h-17.36v-7.7h16.33a5.78 5.78 0 0 0 3.87-1.14 4.22 4.22 0 0 0 1.33-3.38 5.43 5.43 0 0 0-1-3.33 3.37 3.37 0 0 0-2.86-1.4h-17.67v-7.7h26.83m3-3h-32.83v13.7h20.63c.31 0 .35.06.45.19a2.41 2.41 0 0 1 .45 1.54 1.63 1.63 0 0 1-.29 1.11 3.31 3.31 0 0 1-1.91.41h-19.33v13.7h20.37c3.94 0 7.12-1.06 9.44-3.16a11.05 11.05 0 0 0 3.64-8.57 11.53 11.53 0 0 0-1.14-5.22h.52v-13.7Z" class="cls-11"/>
         <path d="M942.28 682.75V677l-5.87 5.4-1-.81a13.79 13.79 0 0 1-3.86-5.12 18.2 18.2 0 0 1-1.43-7.54c0-4.84 1.4-8.64 4.16-11.28s6.53-4 11.28-4 8.61 1.32 11.4 3.91a13.9 13.9 0 0 1 4.25 10.64c0 4.39-1.39 7.94-4.13 10.55s-6.42 3.9-11 3.9Zm0-18.27a3.66 3.66 0 0 0-2.09 1.1 5.12 5.12 0 0 0-1.15 3.65 7.37 7.37 0 0 0 2.79 5.93l.44.38Zm7.32 7.64a3.8 3.8 0 0 0 2-.94 3.65 3.65 0 0 0 1.06-2.83 3.81 3.81 0 0 0-1.08-2.9 3.73 3.73 0 0 0-2-1Z"/>
         <path d="M945.55 655.25q6.6 0 10.37 3.51t3.77 9.54q0 6-3.67 9.46t-10 3.48h-2.29v-18.35h-.47a5.5 5.5 0 0 0-4.21 1.66 6.58 6.58 0 0 0-1.56 4.68 8.86 8.86 0 0 0 3.33 7.07l-4.52 4.16a12.25 12.25 0 0 1-3.43-4.58 16.66 16.66 0 0 1-1.3-6.92q0-6.66 3.69-10.19t10.24-3.54m2.55 18.46h.42a5.82 5.82 0 0 0 4.13-1.43 5.11 5.11 0 0 0 1.53-3.93 5.28 5.28 0 0 0-1.53-4 5.7 5.7 0 0 0-4.13-1.48h-.42v10.82m-2.55-21.46c-5.15 0-9.29 1.47-12.32 4.37s-4.62 7.09-4.62 12.36a19.69 19.69 0 0 0 1.57 8.16 15.27 15.27 0 0 0 4.28 5.67l2 1.62 1.9-1.75 2.41-2.21v3.78h5.29c5 0 9-1.45 12-4.31s4.6-6.82 4.6-11.64-1.59-8.82-4.73-11.74-7.25-4.31-12.42-4.31ZM940.78 671a6.5 6.5 0 0 1-.24-1.81 5.48 5.48 0 0 1 .24-1.74V671Zm10.32-1.85v-1.68a3.78 3.78 0 0 1 .08.84 3.69 3.69 0 0 1-.08.84Z" class="cls-11"/>
      </g>
      <g id="TNZ_text_left_" data-name="TNZ text (left)">
         <path d="M53.96 684.1v-31.71h9.4v10.46h29.9v10.8h-29.9v10.45h-9.4z"/>
         <path d="M61.86 653.89v10.45h29.9v7.8h-29.9v10.46h-6.4v-28.71h6.4m3-3h-12.4v34.71h12.4v-10.45h29.9v-13.8h-29.9v-10.46Z" class="cls-11"/>
         <path d="M51.78 650.77v-10.7h13.56a10.25 10.25 0 0 1-.72-.83 9.37 9.37 0 0 1-1.82-5.88 9.6 9.6 0 0 1 3.15-7.46c2-1.84 4.89-2.78 8.44-2.78h18.87v10.7H75.43a4.41 4.41 0 0 0-2.9.78 2.79 2.79 0 0 0-.8 2.24 3.94 3.94 0 0 0 .75 2.44 1.88 1.88 0 0 0 1.65.8h19.13v10.7Z"/>
         <path d="M91.76 624.62v7.7H75.43a5.78 5.78 0 0 0-3.87 1.14 4.22 4.22 0 0 0-1.33 3.38 5.44 5.44 0 0 0 1 3.33 3.37 3.37 0 0 0 2.86 1.4h17.67v7.7H53.28v-7.7h16.53v-.31a9.24 9.24 0 0 1-4-2.94 7.88 7.88 0 0 1-1.51-5A8.13 8.13 0 0 1 67 627q2.65-2.39 7.44-2.39h17.32m3-3H74.39c-3.94 0-7.12 1.06-9.44 3.16a11 11 0 0 0-3.64 8.57 11.53 11.53 0 0 0 1.14 5.22H50.28v13.7h44.48v-13.7H74.13c-.31 0-.35-.06-.45-.19a2.42 2.42 0 0 1-.45-1.54 1.63 1.63 0 0 1 .29-1.11 3 3 0 0 1 1.91-.41h19.33v-13.7Z" class="cls-11"/>
         <path d="M78.44 620.35c-4.77 0-8.61-1.32-11.4-3.91a13.89 13.89 0 0 1-4.24-10.64c0-4.39 1.39-7.95 4.13-10.55s6.42-3.9 11-3.9h3.79V597l5.87-5.4 1 .81a13.79 13.79 0 0 1 3.86 5.12 18.21 18.21 0 0 1 1.43 7.54c0 4.84-1.4 8.64-4.15 11.28s-6.54 4-11.29 4Zm3.27-10.73a3.65 3.65 0 0 0 2.09-1.1 5.12 5.12 0 0 0 1.2-3.66 7.37 7.37 0 0 0-2.79-5.93l-.44-.37ZM74.4 602a3.8 3.8 0 0 0-2 .94 3.65 3.65 0 0 0-1.06 2.83 3.81 3.81 0 0 0 1.08 2.9 3.72 3.72 0 0 0 2 1Z"/>
         <path d="M80.21 592.85v18.35h.47a5.49 5.49 0 0 0 4.21-1.66 6.58 6.58 0 0 0 1.56-4.68 8.87 8.87 0 0 0-3.33-7.07l4.52-4.16a12.25 12.25 0 0 1 3.43 4.58 16.66 16.66 0 0 1 1.3 6.92q0 6.66-3.69 10.19t-10.24 3.54q-6.6 0-10.37-3.51t-3.77-9.55q0-6 3.67-9.46t10-3.48h2.29m-4.78 18.34h.42v-10.81h-.42a5.82 5.82 0 0 0-4.13 1.43 5.11 5.11 0 0 0-1.53 3.93 5.28 5.28 0 0 0 1.53 4 5.7 5.7 0 0 0 4.13 1.48m12-21.53-1.9 1.75-2.41 2.21v-3.78h-5.25c-5 0-9 1.45-12 4.31S61.3 601 61.3 605.8s1.59 8.82 4.73 11.74 7.25 4.31 12.42 4.31 9.29-1.47 12.32-4.37 4.62-7.09 4.62-12.36a19.68 19.68 0 0 0-1.58-8.12 15.27 15.27 0 0 0-4.28-5.67l-2-1.62Zm-4.27 16.9v-3.54a6.49 6.49 0 0 1 .24 1.81 5.47 5.47 0 0 1-.24 1.74Zm-10.32 0a3.78 3.78 0 0 1-.08-.84 3.69 3.69 0 0 1 .08-.84v1.68Z" class="cls-11"/>
         <path d="M53.96 557.38v-11.93l18.29-6.27H53.96v-9.66h39.3v11.93l-18.3 6.27h18.3v9.66h-39.3z"/>
         <path d="M91.76 531v9.36l-24.13 8.27v.57h24.13v6.66h-36.3v-9.36l24.13-8.27v-.57H55.46V531h36.3m3-3h-42.3v12.66h10.79l-8.76 3-2 .69v14.5h42.3v-12.63H84l8.76-3 2-.69V528Z" class="cls-11"/>
         <path d="M73.61 527.95c-6.36 0-11.35-1.28-14.82-3.8s-5.46-6.63-5.46-11.9 1.84-9.27 5.45-11.9 8.46-3.8 14.82-3.8 11.35 1.28 14.82 3.8 5.46 6.63 5.46 11.9-1.84 9.27-5.46 11.9-8.42 3.8-14.81 3.8Zm-3.17-20.07a13 13 0 0 0-6.22 1.12c-.68.39-1.59 1.16-1.59 3.23s.91 2.83 1.59 3.23a12.93 12.93 0 0 0 6.22 1.15h6.34a12.93 12.93 0 0 0 6.22-1.14c.68-.39 1.59-1.16 1.59-3.23A3.26 3.26 0 0 0 83 509a13.09 13.09 0 0 0-6.25-1.15Z"/>
         <path d="M73.61 498.05q9.1 0 13.94 3.51t4.84 10.69q0 7.18-4.84 10.69t-13.94 3.51q-9.1 0-13.94-3.51t-4.84-10.69q0-7.18 4.84-10.69t13.94-3.51m-3.17 20.07h6.34q4.63 0 7-1.35a5.53 5.53 0 0 0 0-9q-2.37-1.35-7-1.35h-6.34q-4.63 0-7 1.35a5.54 5.54 0 0 0 0 9q2.34 1.35 7 1.35m3.17-23.07c-6.68 0-12 1.37-15.7 4.08-4 2.93-6.07 7.34-6.07 13.11s2 10.19 6.07 13.11c3.73 2.71 9 4.08 15.7 4.08s12-1.37 15.7-4.08c4-2.92 6.07-7.34 6.07-13.11s-2-10.19-6.07-13.11c-3.73-2.71-9-4.08-15.7-4.08Zm-3.17 20.07c-3.16 0-4.72-.52-5.47-.95-.32-.18-.84-.49-.84-1.93s.53-1.74.84-1.93c.75-.43 2.31-.95 5.47-.95h6.29c3.17 0 4.74.52 5.51 1 .32.18.85.49.85 1.92s-.53 1.74-.84 1.93c-.75.43-2.31.95-5.47.95Z" class="cls-11"/>
         <path d="m84.45 464.45-21.09-15.44v14.93h-9.4v-28.12h8.8l21.1 15.44V435.3h9.4v29.15h-8.81z"/>
         <path d="M91.76 436.8V463h-6.82l-23.09-16.9v16.38h-6.4v-25.16h6.81l23.09 16.9V436.8h6.4m3-3H82.36v14.5L64 434.9l-.79-.58H52.46v31.12h12.4V452l18.32 13.41.82.59h10.76v-32.2Z" class="cls-11"/>
         <path d="M78.34 433.62c-4.71 0-8.51-1.35-11.3-4s-4.24-6.36-4.24-11 1.43-8.29 4.24-11 6.59-4 11.3-4 8.51 1.35 11.3 4 4.24 6.36 4.24 11-1.43 8.29-4.24 11-6.59 4-11.3 4Zm-2.13-19a5.21 5.21 0 0 0-3.57 1.07 4.43 4.43 0 0 0 0 5.88 5.21 5.21 0 0 0 3.57 1.07h4.26a5.2 5.2 0 0 0 3.53-1.05 4.43 4.43 0 0 0 0-5.89 5.21 5.21 0 0 0-3.57-1.07Z"/>
         <path d="M78.34 405.18q6.5 0 10.27 3.59t3.77 9.88q0 6.29-3.77 9.88t-10.27 3.59q-6.5 0-10.27-3.59t-3.77-9.88q0-6.29 3.77-9.88t10.27-3.59m-2.13 19h4.26a6.59 6.59 0 0 0 4.53-1.47 5.91 5.91 0 0 0 0-8.11 6.59 6.59 0 0 0-4.58-1.46h-4.21a6.6 6.6 0 0 0-4.58 1.46 5.91 5.91 0 0 0 0 8.11 6.59 6.59 0 0 0 4.58 1.46m2.13-22c-5.11 0-9.26 1.49-12.34 4.41s-4.7 7-4.7 12.05 1.58 9.08 4.7 12.05 7.23 4.42 12.34 4.42 9.26-1.49 12.34-4.42 4.7-7 4.7-12.05-1.58-9.08-4.7-12.05-7.23-4.41-12.34-4.41Zm-2.13 19a3.83 3.83 0 0 1-2.57-.68 3 3 0 0 1 0-3.66 3.83 3.83 0 0 1 2.56-.68h4.26a3.83 3.83 0 0 1 2.57.68 3 3 0 0 1 0 3.66 3.83 3.83 0 0 1-2.57.68Z" class="cls-11"/>
         <path d="M63.42 401.17v-10.7h1.92a10.16 10.16 0 0 1-.72-.83 9.37 9.37 0 0 1-1.82-5.88 9.61 9.61 0 0 1 3.15-7.46c2-1.84 4.88-2.78 8.44-2.78h18.87v10.7H75.43a4.41 4.41 0 0 0-2.89.78 2.79 2.79 0 0 0-.81 2.24 3.94 3.94 0 0 0 .75 2.44 1.88 1.88 0 0 0 1.65.8h19.13v10.7Z"/>
         <path d="M91.76 375v7.7H75.43a5.78 5.78 0 0 0-3.87 1.14 4.22 4.22 0 0 0-1.33 3.38 5.44 5.44 0 0 0 1 3.33 3.36 3.36 0 0 0 2.86 1.4h17.67v7.7H64.92V392h4.89v-.31a9.23 9.23 0 0 1-4-2.94 7.88 7.88 0 0 1-1.51-5 8.13 8.13 0 0 1 2.7-6.33q2.6-2.42 7.39-2.42h17.37m3-3H74.39c-3.94 0-7.12 1.06-9.44 3.16a11.05 11.05 0 0 0-3.64 8.57 11.53 11.53 0 0 0 1.13 5.27h-.52v13.7h32.84V389H74.13c-.31 0-.35-.06-.45-.19a2.42 2.42 0 0 1-.45-1.54 1.63 1.63 0 0 1 .29-1.11 3 3 0 0 1 1.91-.42h19.33V372Z" class="cls-11"/>
         <path d="M78.44 370.75c-4.77 0-8.61-1.32-11.4-3.91a13.9 13.9 0 0 1-4.24-10.64c0-4.39 1.39-7.94 4.13-10.55s6.42-3.9 11-3.9h3.79v5.7l5.87-5.4 1 .81a13.78 13.78 0 0 1 3.86 5.14 18.21 18.21 0 0 1 1.43 7.54c0 4.84-1.4 8.64-4.15 11.28s-6.54 3.93-11.29 3.93ZM81.71 360a3.66 3.66 0 0 0 2.09-1.1 5.12 5.12 0 0 0 1.2-3.64 7.37 7.37 0 0 0-2.79-5.93l-.44-.38Zm-7.32-7.65a3.8 3.8 0 0 0-2 .94 3.65 3.65 0 0 0-1.06 2.83 3.81 3.81 0 0 0 1.08 2.9 3.72 3.72 0 0 0 2 1Z"/>
         <path d="M80.21 343.25v18.36h.47a5.5 5.5 0 0 0 4.21-1.66 6.58 6.58 0 0 0 1.56-4.68 8.87 8.87 0 0 0-3.33-7.07l4.53-4.2a12.25 12.25 0 0 1 3.43 4.58 16.66 16.66 0 0 1 1.3 6.92q0 6.66-3.69 10.19t-10.24 3.54q-6.6 0-10.37-3.51t-3.78-9.52q0-6 3.67-9.46t10-3.48h2.29m-4.73 18.36h.42v-10.83h-.42a5.82 5.82 0 0 0-4.13 1.43 5.11 5.11 0 0 0-1.53 3.93 5.28 5.28 0 0 0 1.53 4 5.7 5.7 0 0 0 4.13 1.48m12-21.53-1.9 1.75-2.42 2.15v-3.78h-5.29c-5 0-9 1.45-12 4.31s-4.6 6.82-4.6 11.64S62.89 365 66 367.94s7.25 4.31 12.42 4.31 9.29-1.47 12.32-4.37 4.62-7.09 4.62-12.36a19.68 19.68 0 0 0-1.57-8.16 15.27 15.27 0 0 0-4.28-5.67l-2-1.62ZM83.21 357v-3.54a6.49 6.49 0 0 1 .24 1.81 5.47 5.47 0 0 1-.24 1.74Zm-10.31 0a3.78 3.78 0 0 1-.08-.84 3.69 3.69 0 0 1 .08-.84V357Z" class="cls-11"/>
      </g>
      <g id="TNZ_text_bottom_" data-name="TNZ text (bottom)">
         <path d="M652.15 970.29v-9.4h10.45v-29.9h10.8v29.9h10.45v9.4h-31.7z"/>
         <path d="M671.9 932.49v29.9h10.45v6.4h-28.7v-6.4h10.45v-29.9h7.8m3-3h-13.8v29.9h-10.45v12.4h34.7v-12.4H674.9v-29.9Z" class="cls-11"/>
         <path d="M639.82 972.47v-13.56a10.26 10.26 0 0 1-.83.72 9.37 9.37 0 0 1-5.88 1.82 9.61 9.61 0 0 1-7.46-3.15c-1.84-2-2.78-4.89-2.78-8.44V931h10.7v17.83a4.4 4.4 0 0 0 .78 2.89 2.79 2.79 0 0 0 2.24.81 3.94 3.94 0 0 0 2.44-.74 1.88 1.88 0 0 0 .8-1.66V931h10.7v41.48Z"/>
         <path d="M649 932.49V971h-7.7v-16.57h-.3a9.23 9.23 0 0 1-2.94 4 7.88 7.88 0 0 1-5 1.51 8.13 8.13 0 0 1-6.34-2.65q-2.39-2.65-2.39-7.44v-17.36h7.7v16.33a5.78 5.78 0 0 0 1.14 3.87 4.22 4.22 0 0 0 3.38 1.33 5.44 5.44 0 0 0 3.33-1 3.37 3.37 0 0 0 1.4-2.86v-17.67H649m3-3h-13.7v20.63c0 .31-.06.35-.19.45a2.42 2.42 0 0 1-1.54.45 1.63 1.63 0 0 1-1.11-.29 3.3 3.3 0 0 1-.42-1.91v-19.33h-13.7v20.37c0 3.94 1.06 7.12 3.16 9.44a11 11 0 0 0 8.57 3.64 11.53 11.53 0 0 0 5.22-1.14V974H652v-44.51Z" class="cls-11"/>
         <path d="M605.55 961.45c-4.4 0-7.95-1.39-10.55-4.13s-3.9-6.42-3.9-11v-3.79h5.7l-5.4-5.87.81-1a13.78 13.78 0 0 1 5.12-3.86 18.21 18.21 0 0 1 7.54-1.43c4.84 0 8.64 1.4 11.28 4.16s4 6.53 4 11.28-1.32 8.61-3.91 11.4a13.9 13.9 0 0 1-10.69 4.24Zm-3.82-11.6a3.81 3.81 0 0 0 .94 2 3.65 3.65 0 0 0 2.83 1.06 3.81 3.81 0 0 0 2.9-1.08 3.72 3.72 0 0 0 1-2Zm7.64-7.32a3.66 3.66 0 0 0-1.1-2.09 5.11 5.11 0 0 0-3.65-1.15 7.37 7.37 0 0 0-5.93 2.79l-.37.44Z"/>
         <path d="M604.87 931.87q6.66 0 10.19 3.69t3.54 10.24q0 6.6-3.51 10.37t-9.54 3.77q-6 0-9.46-3.67t-3.48-10V944H611v-.47a5.5 5.5 0 0 0-1.66-4.21 6.58 6.58 0 0 0-4.68-1.56 8.87 8.87 0 0 0-7.07 3.33l-4.16-4.52a12.25 12.25 0 0 1 4.58-3.43 16.66 16.66 0 0 1 6.92-1.3m.62 22.57a5.28 5.28 0 0 0 4-1.53 5.7 5.7 0 0 0 1.48-4.13v-.42h-10.89v.42a5.82 5.82 0 0 0 1.43 4.13 5.11 5.11 0 0 0 3.93 1.53m-.62-25.57a19.69 19.69 0 0 0-8.16 1.57 15.27 15.27 0 0 0-5.67 4.28l-1.62 2 1.75 1.9 2.21 2.41h-3.79v5.29c0 5 1.45 9 4.31 12s6.82 4.6 11.64 4.6 8.82-1.59 11.74-4.73 4.31-7.25 4.31-12.42-1.47-9.29-4.37-12.32-7.09-4.62-12.36-4.62ZM602.8 941a6.5 6.5 0 0 1 1.81-.24 5.48 5.48 0 0 1 1.74.24Zm1.85 10.32h1.68a3.78 3.78 0 0 1-.84.08 3.68 3.68 0 0 1-.84-.08Z" class="cls-11"/>
         <path d="m545.2 970.29-6.27-18.3v18.3h-9.66v-39.3h11.93l6.27 18.29v-18.29h9.66v39.3H545.2z"/>
         <path d="M555.63 932.49v36.3h-9.36L538 944.66h-.57v24.13h-6.66v-36.3h9.36l8.27 24.13h.6v-24.13h6.66m3-3H546v10.79l-3-8.76-.69-2h-14.5v42.3h12.66V961l3 8.76.69 2h14.5v-42.3Z" class="cls-11"/>
         <path d="M512 970.91c-5.27 0-9.27-1.83-11.9-5.46s-3.8-8.46-3.8-14.82 1.28-11.35 3.8-14.82c2.63-3.62 6.63-5.46 11.9-5.46s9.27 1.83 11.9 5.46 3.8 8.46 3.8 14.82-1.28 11.34-3.8 14.82-6.63 5.46-11.9 5.46Zm0-31.25a3.27 3.27 0 0 0-3.22 1.61 13.1 13.1 0 0 0-1.15 6.25v6.29a13 13 0 0 0 1.15 6.22c.39.68 1.16 1.59 3.23 1.59s2.83-.91 3.22-1.59a12.92 12.92 0 0 0 1.15-6.22v-6.34a12.94 12.94 0 0 0-1.15-6.22c-.4-.68-1.16-1.59-3.23-1.59Z"/>
         <path d="M512 931.87q7.18 0 10.69 4.84t3.51 13.94q0 9.1-3.51 13.94T512 969.41q-7.18 0-10.69-4.84t-3.51-13.94q0-9.1 3.51-13.94t10.69-4.82m0 31.25a4.8 4.8 0 0 0 4.52-2.34q1.35-2.34 1.35-7v-6.34q0-4.63-1.35-7a5.53 5.53 0 0 0-9 0q-1.35 2.37-1.35 7v6.29q0 4.63 1.35 7a4.81 4.81 0 0 0 4.52 2.34m0-34.25c-5.78 0-10.19 2-13.11 6.07-2.71 3.73-4.08 9-4.08 15.7s1.37 12 4.08 15.7c2.93 4 7.34 6.07 13.11 6.07s10.19-2 13.11-6.07c2.71-3.73 4.08-9 4.08-15.7s-1.37-12-4.08-15.7c-2.93-4-7.34-6.07-13.11-6.07Zm0 31.25c-1.44 0-1.75-.53-1.93-.84-.43-.75-.95-2.31-.95-5.47v-6.29c0-3.17.52-4.74 1-5.51.18-.32.49-.85 1.92-.85s1.74.53 1.93.84c.43.75 1 2.31 1 5.47v6.34c0 3.16-.52 4.72-.95 5.47-.18.32-.49.84-1.93.84Z" class="cls-11"/>
         <path d="M435.57 970.29v-8.81l15.44-21.09h-15.96v-9.4h29.15v8.8l-15.44 21.1h14.93v9.4h-28.12z"/>
         <path d="M462.71 932.49v6.81l-16.9 23.09h16.38v6.4h-25.12V962L454 938.89h-17.45v-6.4h26.16m3-3h-32.16v12.4h14.51l-13.41 18.31-.58.79v10.79h31.12v-12.4h-13.47l13.41-18.32.58-.79v-10.78Z" class="cls-11"/>
         <path d="M418.4 961.45c-4.6 0-8.29-1.43-11-4.24s-4-6.59-4-11.3 1.35-8.52 4-11.3 6.36-4.24 11-4.24 8.29 1.43 11 4.24 4 6.59 4 11.3-1.35 8.51-4 11.3-6.4 4.24-11 4.24Zm0-22.36a3.73 3.73 0 0 0-2.94 1.12 5.21 5.21 0 0 0-1.07 3.57V948a5.21 5.21 0 0 0 1.07 3.57 4.43 4.43 0 0 0 5.88 0 5.21 5.21 0 0 0 1.07-3.57v-4.26a5.21 5.21 0 0 0-1.07-3.57 3.73 3.73 0 0 0-2.94-1.08Z"/>
         <path d="M418.4 931.87q6.29 0 9.88 3.77t3.59 10.27q0 6.5-3.59 10.27t-9.88 3.77q-6.29 0-9.88-3.77t-3.59-10.27q0-6.5 3.59-10.27t9.88-3.77m0 22.36a5.19 5.19 0 0 0 4.06-1.61 6.59 6.59 0 0 0 1.46-4.58v-4.26a6.59 6.59 0 0 0-1.46-4.58 5.91 5.91 0 0 0-8.11 0 6.59 6.59 0 0 0-1.46 4.58V948a6.59 6.59 0 0 0 1.46 4.58 5.19 5.19 0 0 0 4.06 1.61m0-25.36c-5 0-9.08 1.58-12.05 4.7s-4.41 7.23-4.41 12.34 1.49 9.26 4.41 12.34 7 4.7 12.05 4.7 9.08-1.58 12.05-4.7 4.41-7.23 4.41-12.34-1.49-9.26-4.41-12.34-7-4.7-12.05-4.7Zm0 22.36a2.2 2.2 0 0 1-1.83-.62 3.83 3.83 0 0 1-.68-2.56v-4.26a3.83 3.83 0 0 1 .68-2.56 3 3 0 0 1 3.66 0 3.83 3.83 0 0 1 .68 2.57V948a3.83 3.83 0 0 1-.68 2.57 2.16 2.16 0 0 1-1.83.62Z" class="cls-11"/>
         <path d="M383.51 961.45a9.61 9.61 0 0 1-7.46-3.15c-1.84-2-2.78-4.89-2.78-8.44V931H384v17.83a4.41 4.41 0 0 0 .78 2.89 2.79 2.79 0 0 0 2.24.8 3.94 3.94 0 0 0 2.44-.74 1.88 1.88 0 0 0 .8-1.66V931h10.7v29.83h-10.7v-1.92a10.32 10.32 0 0 1-.83.72 9.37 9.37 0 0 1-5.92 1.82Z"/>
         <path d="M399.42 932.49v26.83h-7.7v-4.89h-.31a9.23 9.23 0 0 1-2.94 4 7.88 7.88 0 0 1-5 1.51 8.13 8.13 0 0 1-6.34-2.65q-2.39-2.65-2.39-7.44v-17.36h7.7v16.33a5.78 5.78 0 0 0 1.14 3.87A4.22 4.22 0 0 0 387 954a5.43 5.43 0 0 0 3.33-1 3.37 3.37 0 0 0 1.4-2.86v-17.65h7.7m3-3h-13.7v20.63c0 .31-.06.35-.19.45a2.41 2.41 0 0 1-1.54.43 1.63 1.63 0 0 1-1.11-.29 3.31 3.31 0 0 1-.41-1.91v-19.31h-13.7v20.37c0 3.94 1.06 7.12 3.16 9.44a11.05 11.05 0 0 0 8.57 3.64 11.53 11.53 0 0 0 5.22-1.14v.52h13.7v-32.83Z" class="cls-11"/>
         <path d="M356 961.45c-4.4 0-7.94-1.39-10.55-4.13s-3.9-6.42-3.9-11v-3.79h5.7l-5.4-5.87.81-1a13.79 13.79 0 0 1 5.12-3.86 18.21 18.21 0 0 1 7.54-1.43c4.84 0 8.64 1.4 11.28 4.16s4 6.53 4 11.28-1.32 8.61-3.91 11.4a13.9 13.9 0 0 1-10.69 4.24Zm-3.82-11.6a3.8 3.8 0 0 0 .94 2 3.65 3.65 0 0 0 2.83 1.06 3.81 3.81 0 0 0 2.9-1.08 3.73 3.73 0 0 0 1-2Zm7.64-7.32a3.67 3.67 0 0 0-1.1-2.09 5.12 5.12 0 0 0-3.65-1.15 7.37 7.37 0 0 0-5.93 2.79l-.38.44Z"/>
         <path d="M355.27 931.87q6.66 0 10.19 3.69T369 945.8q0 6.6-3.51 10.37t-9.49 3.78q-6 0-9.46-3.67t-3.48-10V944h18.36v-.47a5.5 5.5 0 0 0-1.66-4.21 6.58 6.58 0 0 0-4.68-1.56 8.86 8.86 0 0 0-7.07 3.33l-4.16-4.52a12.25 12.25 0 0 1 4.58-3.43 16.66 16.66 0 0 1 6.92-1.3m.62 22.57a5.28 5.28 0 0 0 4-1.53 5.7 5.7 0 0 0 1.48-4.13v-.42h-10.91v.42a5.82 5.82 0 0 0 1.46 4.15 5.11 5.11 0 0 0 3.93 1.53m-.62-25.57a19.69 19.69 0 0 0-8.16 1.57 15.27 15.27 0 0 0-5.67 4.28l-1.62 2 1.75 1.9 2.21 2.41H340v5.29c0 5 1.45 9 4.31 12s6.82 4.6 11.64 4.6 8.82-1.59 11.74-4.73S372 951 372 945.8s-1.47-9.29-4.37-12.32-7.09-4.62-12.36-4.62Zm-2.1 12.14a6.5 6.5 0 0 1 1.81-.24 5.48 5.48 0 0 1 1.74.24Zm1.85 10.32h1.68a3.78 3.78 0 0 1-.84.08 3.69 3.69 0 0 1-.84-.08Z" class="cls-11"/>
      </g>
      <g id="TNZ_text_top_" data-name="TNZ text (top)">
         <path d="M350.6 93.51v-29.9h-10.45v-9.4h31.71v9.4H361.4v29.9h-10.8z"/>
         <path d="M370.36 55.71v6.4H359.9V92h-7.8V62.11h-10.45v-6.4h28.71m3-3h-34.71v12.4h10.45V95h13.8V65.11h10.45v-12.4Z" class="cls-11"/>
         <path d="M390.43 93.51V75.68a4.41 4.41 0 0 0-.78-2.9 2.79 2.79 0 0 0-2.24-.8 3.94 3.94 0 0 0-2.44.75 1.88 1.88 0 0 0-.8 1.65v19.13h-10.7V52h10.7v13.59a10.33 10.33 0 0 1 .83-.72 9.38 9.38 0 0 1 5.89-1.87 9.61 9.61 0 0 1 7.46 3.15c1.84 2 2.78 4.89 2.78 8.44v18.92Z"/>
         <path d="M382.68 53.53v16.53h.32a9.24 9.24 0 0 1 2.94-4 7.88 7.88 0 0 1 5-1.51 8.13 8.13 0 0 1 6.34 2.65q2.39 2.65 2.39 7.44V92h-7.7V75.68a5.78 5.78 0 0 0-1.14-3.87 4.22 4.22 0 0 0-3.38-1.33 5.44 5.44 0 0 0-3.33 1 3.37 3.37 0 0 0-1.4 2.86V92H375V53.53h7.7m3-3H372V95h13.7V74.38c0-.31.06-.35.19-.45a2.42 2.42 0 0 1 1.54-.45 1.63 1.63 0 0 1 1.11.29 3 3 0 0 1 .41 1.91V95h13.7V74.64c0-3.94-1.06-7.12-3.16-9.44a11 11 0 0 0-8.57-3.64 11.53 11.53 0 0 0-5.22 1.14V50.53Z" class="cls-11"/>
         <path d="M419.13 94.13c-4.84 0-8.64-1.4-11.28-4.15s-4-6.53-4-11.28 1.32-8.61 3.91-11.4a13.9 13.9 0 0 1 10.69-4.3c4.4 0 7.95 1.39 10.55 4.13s3.9 6.42 3.9 11V82h-5.7l5.4 5.87-.81 1a13.79 13.79 0 0 1-5.12 3.86 18.21 18.21 0 0 1-7.54 1.4ZM414.63 82a3.66 3.66 0 0 0 1.1 2.09 5.12 5.12 0 0 0 3.65 1.15 7.37 7.37 0 0 0 5.93-2.79l.38-.44Zm7.64-7.32a3.8 3.8 0 0 0-.94-2 3.65 3.65 0 0 0-2.83-1.06 3.81 3.81 0 0 0-2.9 1.08 3.72 3.72 0 0 0-1 2Z"/>
         <path d="M418.45 64.55q6 0 9.46 3.67t3.48 10v2.29H413v.47a5.49 5.49 0 0 0 1.66 4.21 6.58 6.58 0 0 0 4.68 1.56 8.87 8.87 0 0 0 7.07-3.33l4.16 4.52a12.25 12.25 0 0 1-4.57 3.39 16.66 16.66 0 0 1-6.92 1.3q-6.66 0-10.19-3.69t-3.49-10.25q0-6.6 3.51-10.37t9.54-3.77M413 76.15h10.82v-.42a5.82 5.82 0 0 0-1.43-4.13 5.11 5.11 0 0 0-3.93-1.53 5.28 5.28 0 0 0-4 1.53 5.7 5.7 0 0 0-1.46 4.13v.42m5.41-14.6c-4.87 0-8.82 1.59-11.74 4.73s-4.31 7.25-4.31 12.42 1.51 9.3 4.41 12.3 7.09 4.62 12.36 4.62a19.68 19.68 0 0 0 8.16-1.57 15.27 15.27 0 0 0 5.71-4.27l1.62-2-1.75-1.9-2.21-2.41h3.78v-5.3c0-5-1.45-9-4.31-12s-6.82-4.6-11.64-4.6Zm-.79 11.6a3.78 3.78 0 0 1 .84-.08 3.69 3.69 0 0 1 .84.08Zm0 10.32h3.54a6.49 6.49 0 0 1-1.81.24 5.47 5.47 0 0 1-1.74-.24Z" class="cls-11"/>
         <path d="m482.8 93.51-6.27-18.3v18.3h-9.66v-39.3h11.94l6.26 18.29V54.21h9.66v39.3H482.8z"/>
         <path d="M493.23 55.71V92h-9.36l-8.27-24.12h-.6V92h-6.66V55.71h9.36l8.3 24.13h.57V55.71h6.66m3-3h-12.66V63.5l-3-8.76-.69-2h-14.5V95H478V84.22l3 8.78.69 2h14.5V52.71Z" class="cls-11"/>
         <path d="M512 94.13c-5.27 0-9.27-1.84-11.9-5.46s-3.8-8.46-3.8-14.82 1.28-11.35 3.8-14.82 6.63-5.46 11.9-5.46 9.27 1.84 11.9 5.45 3.8 8.46 3.8 14.82-1.28 11.35-3.8 14.82-6.63 5.47-11.9 5.47Zm0-31.25c-2.07 0-2.83.91-3.22 1.59a12.93 12.93 0 0 0-1.15 6.22V77a12.93 12.93 0 0 0 1.15 6.22c.39.68 1.16 1.59 3.23 1.59a3.26 3.26 0 0 0 3.22-1.61 13.09 13.09 0 0 0 1.15-6.2v-6.31a12.94 12.94 0 0 0-1.15-6.22c-.4-.68-1.16-1.59-3.23-1.59Z"/>
         <path d="M512 55.09q7.18 0 10.69 4.84t3.51 13.94q0 9.1-3.51 13.94T512 92.63q-7.18 0-10.69-4.84t-3.51-13.93q0-9.1 3.51-13.94T512 55.09m0 31.25a4.79 4.79 0 0 0 4.52-2.34q1.35-2.37 1.35-7v-6.31q0-4.63-1.35-7a5.54 5.54 0 0 0-9 0q-1.35 2.34-1.35 7V77q0 4.63 1.35 7a4.8 4.8 0 0 0 4.48 2.34m0-34.25c-5.78 0-10.19 2-13.11 6.07-2.71 3.73-4.08 9-4.08 15.7s1.37 12 4.08 15.7c2.92 4 7.34 6.07 13.11 6.07s10.19-2 13.11-6.07c2.71-3.73 4.08-9 4.08-15.7s-1.37-12-4.08-15.7c-2.93-4-7.34-6.07-13.11-6.07Zm0 31.25c-1.44 0-1.74-.53-1.93-.84-.43-.75-.95-2.31-.95-5.47v-6.34c0-3.16.52-4.72.95-5.47.18-.32.49-.84 1.93-.84s1.74.53 1.93.84c.43.75.95 2.31.95 5.47V77c0 3.17-.52 4.74-1 5.51-.18.32-.49.85-1.92.85Z" class="cls-11"/>
         <path d="M559.79 93.51V84.7l15.45-21.09h-14.92v-9.4h28.11v8.8l-15.44 21.1h15.96v9.4h-29.16z"/>
         <path d="M586.93 55.71v6.81L570 85.61h17.42V92H561.3v-6.81l16.9-23.09h-16.38v-6.4h25.12m3-3h-31.12v12.4h13.47l-13.42 18.32-.58.79V95h32.16V82.61h-14.5l13.41-18.32.58-.79V52.71Z" class="cls-11"/>
         <path d="M605.6 94.13c-4.6 0-8.29-1.43-11-4.24s-4-6.59-4-11.3 1.35-8.51 4-11.3S601 63 605.6 63s8.29 1.43 11 4.24 4 6.59 4 11.3-1.35 8.52-4 11.3-6.4 4.29-11 4.29Zm0-22.36a3.73 3.73 0 0 0-2.94 1.12 5.2 5.2 0 0 0-1.07 3.57v4.26a5.2 5.2 0 0 0 1.07 3.57 4.43 4.43 0 0 0 5.88 0 5.21 5.21 0 0 0 1.07-3.57v-4.26a5.21 5.21 0 0 0-1.07-3.57 3.73 3.73 0 0 0-2.94-1.12Z"/>
         <path d="M605.6 64.55q6.29 0 9.88 3.77t3.59 10.27q0 6.5-3.59 10.27t-9.88 3.77q-6.29 0-9.88-3.77t-3.59-10.27q0-6.5 3.59-10.27t9.88-3.77m0 22.36a5.19 5.19 0 0 0 4.06-1.61 6.59 6.59 0 0 0 1.46-4.58v-4.26a6.6 6.6 0 0 0-1.46-4.58 5.91 5.91 0 0 0-8.11 0 6.59 6.59 0 0 0-1.46 4.58v4.26a6.59 6.59 0 0 0 1.46 4.58 5.19 5.19 0 0 0 4.06 1.61m0-25.36c-5 0-9.08 1.58-12.05 4.7s-4.42 7.23-4.42 12.34 1.49 9.26 4.42 12.34 7 4.7 12.05 4.7 9.08-1.58 12.05-4.7 4.41-7.23 4.41-12.34-1.49-9.26-4.41-12.34-7-4.7-12.05-4.7Zm0 22.36a2.2 2.2 0 0 1-1.83-.62 3.83 3.83 0 0 1-.68-2.57v-4.26a3.83 3.83 0 0 1 .68-2.57 3 3 0 0 1 3.66 0 3.83 3.83 0 0 1 .68 2.56v4.26a3.83 3.83 0 0 1-.68 2.57 2.2 2.2 0 0 1-1.83.62Z" class="cls-11"/>
         <path d="M640 93.51V75.68a4.41 4.41 0 0 0-.78-2.9A2.79 2.79 0 0 0 637 72a3.94 3.94 0 0 0-2.44.75 1.88 1.88 0 0 0-.8 1.65v19.11h-10.7V63.67h10.7v1.92a10.25 10.25 0 0 1 .83-.72 9.37 9.37 0 0 1 5.9-1.87 9.61 9.61 0 0 1 7.46 3.15c1.84 2 2.78 4.88 2.78 8.44v18.92Z"/>
         <path d="M640.49 64.55a8.13 8.13 0 0 1 6.34 2.65q2.39 2.65 2.39 7.44V92h-7.7V75.68a5.78 5.78 0 0 0-1.14-3.87 4.22 4.22 0 0 0-3.38-1.33 5.44 5.44 0 0 0-3.33 1 3.36 3.36 0 0 0-1.4 2.86V92h-7.7V65.17h7.7v4.89h.31a9.23 9.23 0 0 1 2.94-4 7.88 7.88 0 0 1 5-1.51m0-3a11.53 11.53 0 0 0-5.22 1.14v-.52h-13.7V95h13.7V74.38c0-.31.06-.35.19-.45a2.42 2.42 0 0 1 1.54-.45 1.63 1.63 0 0 1 1.11.29 3 3 0 0 1 .42 1.91V95h13.7V74.64c0-3.94-1.06-7.12-3.16-9.44a11.05 11.05 0 0 0-8.57-3.64Z" class="cls-11"/>
         <path d="M668.73 94.13c-4.84 0-8.64-1.4-11.28-4.15s-4-6.53-4-11.28 1.32-8.61 3.91-11.4A13.89 13.89 0 0 1 668 63c4.4 0 7.95 1.39 10.55 4.13s3.9 6.42 3.9 11V82h-5.7l5.4 5.87-.81 1a13.79 13.79 0 0 1-5.12 3.86 18.22 18.22 0 0 1-7.49 1.4ZM664.23 82a3.65 3.65 0 0 0 1.1 2.09A5.12 5.12 0 0 0 669 85.2a7.37 7.37 0 0 0 5.93-2.8l.38-.44Zm7.64-7.32a3.8 3.8 0 0 0-.94-2 3.65 3.65 0 0 0-2.83-1.06 3.81 3.81 0 0 0-2.9 1.08 3.72 3.72 0 0 0-1 2Z"/>
         <path d="M668 64.55q6 0 9.46 3.67t3.48 10v2.29h-18.3v.47a5.5 5.5 0 0 0 1.66 4.21 6.58 6.58 0 0 0 4.7 1.51 8.87 8.87 0 0 0 7.07-3.33l4.16 4.52a12.25 12.25 0 0 1-4.58 3.43 16.66 16.66 0 0 1-6.92 1.3q-6.66 0-10.19-3.69T655 78.69q0-6.6 3.51-10.37t9.49-3.77m-5.41 11.6h10.82v-.42A5.82 5.82 0 0 0 672 71.6a5.11 5.11 0 0 0-3.93-1.53 5.28 5.28 0 0 0-4 1.53 5.7 5.7 0 0 0-1.48 4.13v.42m5.41-14.6c-4.87 0-8.82 1.59-11.74 4.73S652 73.53 652 78.69 653.47 88 656.37 91s7.09 4.62 12.36 4.62a19.68 19.68 0 0 0 8.16-1.57 15.27 15.27 0 0 0 5.67-4.28l1.62-2-1.75-1.9-2.21-2.41H684v-5.29c0-5-1.45-9-4.31-12s-6.82-4.6-11.64-4.6Zm-.79 11.6a3.78 3.78 0 0 1 .84-.08 3.69 3.69 0 0 1 .84.08Zm0 10.32h3.54a6.49 6.49 0 0 1-1.81.24 5.47 5.47 0 0 1-1.74-.24Z" class="cls-11"/>
      </g>
   </g>
</svg>
