<svg xmlns="http://www.w3.org/2000/svg" viewBox="0 0 1024 1024">
   <circle cx="512" cy="512" r="512" style="fill:#0572ec"/>
   <path d="M512 236.48c152.16 0 275.52 123.36 275.52 275.52S664.16 787.52 512 787.52 236.48 664.17 236.48 512 359.84 236.48 512 236.48Zm0 56c-121.26 0-219.55 98.3-219.55 219.56S390.74 731.56 512 731.56 731.56 633.26 731.56 512 633.26 292.45 512 292.45Zm0 56A163.59 163.59 0 1 1 348.41 512 163.59 163.59 0 0 1 512 348.41Zm26.39 47.35h-52.78c-6.58 0-12 5.73-12.33 12.95v55.97a10.31 10.31 0 0 0 2 5.76l.49.6 7.72 8.6A10 10 0 0 1 484 492l-.48.58-7.72 8.6a9.65 9.65 0 0 0-2.38 5.68v.81l-.08 106.78c0 7.33 5.14 13.32 11.63 13.73h53.52c6.58 0 12-5.73 12.33-12.95v-51.81a9.82 9.82 0 0 0-1.92-5.89l-.49-.6-7.72-8.6a10 10 0 0 1-.48-12.39l.48-.58 7.72-8.6a9.65 9.65 0 0 0 2.38-5.68V409.52c-.04-7.6-5.57-13.75-12.4-13.75Z" style="fill:#fff"/>
</svg>
