<svg xmlns="http://www.w3.org/2000/svg" viewBox="0 0 1024 1024">
   <circle cx="512" cy="512" r="512" style="fill:#5468ff"/>
   <path d="M517.42 434.77c-51.68 0-93.67 42.09-93.67 93.9s42 93.92 93.67 93.93a93.91 93.91 0 0 0 0-187.81Zm66 59.42-62 32.21a2.74 2.74 0 0 1-4-2.44V454a2.83 2.83 0 0 1 2.86-2.71 77.1 77.1 0 0 1 64.26 39.09 2.84 2.84 0 0 1-1.14 3.8ZM685.11 276H338.88A61.92 61.92 0 0 0 277 338v347.85A62 62 0 0 0 338.88 748h346.23A62 62 0 0 0 747 685.84V338.18A62.07 62.07 0 0 0 685.11 276ZM472.6 365.2a20.52 20.52 0 0 1 20.4-20.46h47.57A20.43 20.43 0 0 1 561 365.22v16.18a2.77 2.77 0 0 1-2.76 2.76 3.2 3.2 0 0 1-.68-.08 150.75 150.75 0 0 0-40-5.43 148.31 148.31 0 0 0-41.4 5.86 2.83 2.83 0 0 1-3.57-2.71Zm-94.67 53.4a20.44 20.44 0 0 1 6-14.47l9.72-9.73a20.36 20.36 0 0 1 28.84 0l8.13 8.16a2.74 2.74 0 0 1-.44 4.17 146.48 146.48 0 0 0-18.41 15.73 155.31 155.31 0 0 0-15.56 18.33 2.88 2.88 0 0 1-4.28.29l-8-8a20.41 20.41 0 0 1-6-14.48Zm139.49 243.34c-73.4 0-132.93-59.56-132.93-133.28S444 395.27 517.42 395.27a132.94 132.94 0 0 1 132.93 133.26c0 73.71-59.53 133.41-132.93 133.41Z" style="fill:#fff"/>
</svg>
