<svg xmlns="http://www.w3.org/2000/svg" viewBox="0 0 1024 1024">
   <circle cx="512" cy="512" r="512" style="fill:#3ae7e1"/>
   <path d="M282.13 496.86a15.26 15.26 0 0 1-11.77-27.08l42.28-33a15.23 15.23 0 1 1 18.74 24l-42.28 33a13.73 13.73 0 0 1-6.97 3.08Zm-34.06 29.26 4-3.09a15.23 15.23 0 0 0-18.74-24l-4 3.09a15.26 15.26 0 0 0-2.63 21.37 15.44 15.44 0 0 0 14.4 5.6 14.58 14.58 0 0 0 6.97-2.98Zm-5.49 86.74 92.8-72.57a15.23 15.23 0 1 0-18.74-24l-92.8 72.46a15.26 15.26 0 0 0 11.77 27.09 15.58 15.58 0 0 0 6.97-2.99Zm132.23-103 14.74-11.54a15.23 15.23 0 1 0-18.74-24l-14.74 11.54A15.26 15.26 0 0 0 367.84 513a17.23 17.23 0 0 0 6.97-3.11Zm-8.11 88.57L442.81 539a15.23 15.23 0 1 0-18.74-24L348 574.46a15.26 15.26 0 0 0 11.77 27.08 13.73 13.73 0 0 0 6.92-3.09Zm-41.6 33 5.37-4.23a15.23 15.23 0 1 0-18.74-24l-5.37 4.23a15.26 15.26 0 0 0 11.77 27.09 14.62 14.62 0 0 0 6.97-3.04ZM730 366.12v248.79a71.21 71.21 0 0 1-71.2 71.2H334.92a15.31 15.31 0 0 1-15.31-15.31 15.07 15.07 0 0 1 15.09-15.09h324.22a40.82 40.82 0 0 0 40.8-40.8V384.17L528.18 517.66c-6.86 5.26-18.4 7.89-30.28.23C464.75 495 329.55 390 329.55 390a29.4 29.4 0 0 1-9.94-14.29 28.3 28.3 0 0 1 0-17.14c3.89-12.57 16.11-20.69 29.26-20.69h352.9A28.14 28.14 0 0 1 730 366.12ZM458.24 463.6l-.46-.69-.11.8Zm212.34-95.31H355.72l157.14 122.85Z" style="fill:#fff"/>
</svg>
