<svg xmlns="http://www.w3.org/2000/svg" viewBox="0 0 1024 1024">
   <circle cx="512" cy="512" r="512" style="fill:#f06a6a"/>
   <path d="M304.262 646.522c.498 5.623 4.989 12.754 12.772 12.754h4.56a3.212 3.212 0 0 0 3.206-3.205V555.943h-.018a3.21 3.21 0 0 0-3.188-3.034h-14.126a3.198 3.198 0 0 0-3.188 3.034h-.018v8.143c-8.657-10.663-22.286-15.069-35.966-15.069C237.2 549 212 574.2 212 605.28c0 31.097 25.2 56.297 56.296 56.297 13.663 0 28.578-5.297 35.966-15.051zm-35.914-4.646c-19.765 0-35.794-16.388-35.794-36.6s16.029-36.583 35.794-36.583c19.766 0 35.794 16.389 35.794 36.583 0 20.212-16.028 36.6-35.794 36.6zm265.938 4.646c.497 5.622 4.988 12.754 12.771 12.754h4.56a3.212 3.212 0 0 0 3.206-3.205V555.943h-.017a3.211 3.211 0 0 0-3.189-3.035h-14.125c-1.715 0-3.104 1.355-3.206 3.035v8.143c-8.658-10.663-22.286-15.069-35.966-15.069-31.08 0-56.297 25.2-56.297 56.298 0 31.097 25.2 56.297 56.297 56.297 13.68-.035 28.594-5.332 35.966-15.086zm-35.898-4.646c-19.765 0-35.794-16.388-35.794-36.6s16.029-36.583 35.794-36.583 35.795 16.389 35.795 36.583c0 20.212-16.029 36.6-35.795 36.6zm293.058 4.646c.497 5.622 4.989 12.754 12.771 12.754h4.56c1.766 0 3.223-1.44 3.223-3.205V555.943h-.017c-.086-1.68-1.491-3.035-3.188-3.035h-14.127a3.199 3.199 0 0 0-3.188 3.035h-.017v8.143c-8.657-10.663-22.286-15.069-35.966-15.069-31.097 0-56.297 25.2-56.297 56.298 0 31.097 25.2 56.297 56.297 56.297 13.663-.035 28.56-5.332 35.949-15.086zm-35.914-4.646c-19.766 0-35.795-16.388-35.795-36.6s16.029-36.583 35.795-36.583 35.794 16.389 35.794 36.583c.017 20.212-16.011 36.6-35.794 36.6zm-74.198 8.078v-51.822c0-29.212-18.429-48.91-47.812-48.91-14.022 0-26.862 8.04-29.588 15.086-.874-5.45-3.772-11.176-12.738-11.176h-4.576a3.215 3.215 0 0 0-3.206 3.222v100.128h.017a3.21 3.21 0 0 0 3.189 3.034h14.125c.223 0 .429-.016.635-.068a1.73 1.73 0 0 0 .274-.086c.102-.034.206-.051.308-.102.12-.052.24-.12.36-.19.052-.034.12-.068.172-.102.137-.086.274-.205.394-.308.017-.017.052-.035.068-.052a3.03 3.03 0 0 0 .378-.446c.36-.48.566-1.062.6-1.697h.017v-59.142c0-15.687 12.72-28.407 28.405-28.407s28.406 12.72 28.406 28.407l.018 49.44v-.018 9.72h.016a3.211 3.211 0 0 0 3.19 3.035h14.125c.223 0 .429-.018.634-.07.086-.016.155-.05.24-.068.12-.034.24-.068.343-.102.12-.052.223-.12.326-.172l.206-.103c.136-.085.256-.189.36-.291.034-.034.068-.052.085-.069a3.94 3.94 0 0 0 .36-.411c0-.018.017-.018.017-.034.343-.48.566-1.064.6-1.68h.018v-.172zm-322.8-17.776c9.429 6.531 19.714 9.703 29.606 9.703 9.412 0 19.148-4.885 19.148-13.389 0-11.348-21.222-13.114-34.542-17.64-13.338-4.525-24.823-13.903-24.823-29.056 0-23.212 20.674-32.795 39.977-32.795 12.223 0 24.84 4.028 33.034 9.806 2.812 2.142 1.098 4.594 1.098 4.594l-7.818 11.16c-.874 1.251-2.417 2.348-4.611.977-2.211-1.354-9.926-6.822-21.703-6.822s-18.874 5.433-18.874 12.17c0 8.092 9.222 10.63 20.022 13.39 18.824 5.073 39.344 11.176 39.344 34.233 0 20.452-19.132 33.087-40.27 33.087-16.028 0-29.656-4.56-41.09-12.96-2.384-2.384-.72-4.595-.72-4.595l7.765-11.092c1.595-2.091 3.583-1.371 4.457-.771zm202.96-316.373c0 27.275-22.114 49.406-49.389 49.406-27.291 0-49.405-22.115-49.405-49.406s22.114-49.405 49.405-49.405c27.275 0 49.389 22.114 49.389 49.405zm-113.568 61.749c-27.274 0-49.406 22.114-49.406 49.388s22.115 49.406 49.406 49.406c27.292 0 49.406-22.114 49.406-49.406 0-27.274-22.114-49.388-49.406-49.388zm128.352 0c-27.291 0-49.406 22.114-49.406 49.406 0 27.29 22.115 49.405 49.406 49.405 27.274 0 49.406-22.114 49.406-49.405 0-27.292-22.115-49.406-49.406-49.406z" style="fill:#fff"/>
</svg>
