<svg xmlns="http://www.w3.org/2000/svg" viewBox="0 0 1024 1024">
   <circle cx="512" cy="512" r="512" style="fill:#0052cc"/>
   <path d="M462.17 714.55a13.64 13.64 0 0 1-12.66 7.82h-164.9A14.15 14.15 0 0 1 272 701.89l118.37-236.77a13.74 13.74 0 0 1 23.37-2.54c62.44 66.7 84 178.42 48.43 251.97Zm38.43-467.32a312.31 312.31 0 0 0-18.23 308.32l79.5 159a14.15 14.15 0 0 0 12.66 7.82h164.86a14.15 14.15 0 0 0 12.66-20.48s-221.8-443.66-227.37-454.75a13.37 13.37 0 0 0-24.07.09Z" style="fill:#fff"/>
</svg>
