<svg xmlns="http://www.w3.org/2000/svg" viewBox="0 0 1024 1024">
   <circle cx="512" cy="512" r="512" style="fill:#ff7800"/>
   <path d="M475.63 319.8a64.59 64.59 0 0 1 94.89 25.69l149.4 315.84A254.81 254.81 0 0 0 768 513.86C769 372.46 655.19 257 513.78 256S257 368.81 256 510.22a254.52 254.52 0 0 0 47.42 150.08l6-1.35 97.49-21.48a2.47 2.47 0 0 1 1.78 4.53L328 689.85a255.77 255.77 0 0 0 381.54-15.11L465.26 417.57a64.62 64.62 0 0 1 10.37-97.77Zm45.85 290.35-157.33 13.63a27.77 27.77 0 1 1 4-54.74l153.69 36.22a2.49 2.49 0 0 1-.36 4.89Zm-72.81-138.29 190.74 154.3a2.47 2.47 0 0 1-2.45 4.21l-229.41-87a41.8 41.8 0 1 1 41.11-71.55Z" style="fill:#fff"/>
</svg>
