<svg xmlns="http://www.w3.org/2000/svg" viewBox="0 0 1024 1024">
   <circle cx="512" cy="512" r="512" style="fill:#02d667"/>
   <path d="M625.54 315.22a58.83 58.83 0 0 0-.05 83.2l.05.05 113.24 113.28-113.52 113.52-57.75-57.77a58.88 58.88 0 0 0-83.25 0l140.92 140.95L822 511.67Zm0 156.41A40.36 40.36 0 1 1 585.17 512a40.36 40.36 0 0 1 40.37-40.36Zm-227 237.14a58.88 58.88 0 0 0 0-83.25L285.29 512.25l113.53-113.52 57.7 57.77a58.88 58.88 0 0 0 83.25 0L398.82 315.55 202 512.33Zm0-237.14A40.36 40.36 0 1 1 358.12 512a40.36 40.36 0 0 1 40.37-40.36Z" style="fill:#fff"/>
</svg>
