<svg xmlns="http://www.w3.org/2000/svg" viewBox="0 0 1024 1024">
   <circle cx="512" cy="512" r="512" style="fill:#114676"/>
   <path d="M519.25 289.35c10.08 2.92 20.63 4.09 30.39 8.09 29.12 11.13 52.57 33.55 70.25 58.74 24 34.36 38.21 74.57 46.6 115.38-13.23.26-22.42 11.19-28.43 21.78-10.81 19.58-16.68 41.42-21.9 63-7 30.14-11.33 60.81-14.86 91.54-.34 6.65-6.43 12.28-13 12.42-8 .22-16 .06-24 .1-8.47.46-17.24-5.89-18.23-14.54a474.22 474.22 0 0 0-22.4-74.26c-1.81-4.9-4.86-9.6-4.58-15 .18-89.06-.09-178.16.16-267.25Zm-114.13 66.5c-33.31 48.27-49.3 106.83-52.91 164.9 11.88-17.5 26.76-33.9 46.21-43a62.93 62.93 0 0 1 53.74.4c23.69 11.55 40.43 33.25 53.43 55.57V289.46c-9.88 2.76-20.22 3.81-29.8 7.66-29.36 10.97-52.91 33.47-70.67 58.73ZM256 544.71q.06 51.51 0 103c-.46 5.93 4.32 12.56 10.61 12.62 6.67.22 13.33.2 20 0 7.36-.22 15-5.3 16.57-12.76 7.48-34 17.68-67.63 33.07-98.94 1.73-3 1.47-6.59 1.57-9.92 1.43-58.23 13.73-117.15 42.24-168.35 15-26.94 34.76-51.76 60.13-69.62-66.6 19.2-124.13 67.08-155.5 128.83-18.46 35.51-27.29 75.37-28.69 115.14Zm361.42-213.8c34.82 41 54.24 93 63.48 145.5.44 2.32 2.46 3.87 3.83 5.67 9.36 10.34 14.52 23.63 19.28 36.52 13.29 38.49 19.58 78.94 24.52 119.21 1.19 6.37 0 14.28 5.63 18.87 6.15 5.63 15.2 3.41 22.78 3.71 5.79.34 11.51-4.6 11-10.59 0-38.41.14-76.82-.08-115.21a254.7 254.7 0 0 0-35.95-119.69c-32.75-54.6-86.36-96.68-147.7-114.15a167.63 167.63 0 0 1 33.21 30.16ZM408.77 554.75c7.34 30.65 11.84 61.92 15.51 93.2.77 8.17 9.09 13.77 17 12.52 11-1.17 24.3 3.33 33.33-5.1 5-4.15 5.52-11 7-16.84 6.17-25.31 13.87-50.31 24.26-74.24-6.71-14.72-14.54-29-24.4-41.92-11.88-15.41-27.12-30.29-46.88-34.22-15.71-3.33-31.7 3-44 12.68 8.41 17.17 13.7 35.49 18.18 53.92Zm287 9.38c5.06 11.84 9.88 23.85 12.92 36.38a94 94 0 0 0-1.31-14.15c-4.88-24.42-10.06-49-19.38-72.13-3.39-8-7.14-16.13-13.27-22.42-2.42-2.34-5.42-4.88-9-4.54-5.63 1.31-8.95 6.51-12.6 10.51 18.75 18.76 32 42.22 42.59 66.36Z" style="fill:#fff"/>
</svg>
