<svg xmlns="http://www.w3.org/2000/svg" viewBox="0 0 1024 1024">
   <circle cx="512" cy="512" r="512" style="fill:#00bfb4"/>
   <path d="M718.66 272.16v60H479a179.65 179.65 0 1 0-.38 359.3h240v60H483.5c-1.5 0-3 .38-4.5.38a239.84 239.84 0 1 1-.38-479.69h240ZM479 377.17a19.81 19.81 0 0 0-4.88.38C401.74 380.17 344 439.43 344 512.19c0 74.26 60.76 134.64 135 134.64h74.63l60.38-60H479c-41.26 0-75-33.75-75-74.63a74.59 74.59 0 0 1 74.63-74.63c1.5 0 3-.38 4.5-.38h131.64l-59.63-60Zm195.4 60h44.26v-60H614.77Zm-61.13 209.66h105.39v-60h-45ZM449 511.81a30.09 30.09 0 0 0 30 30h180l30.38-30-29.63-30H479a29.85 29.85 0 0 0-30 30Z" style="fill:#fff"/>
</svg>
