<svg xmlns="http://www.w3.org/2000/svg" viewBox="0 0 1024 1024">
   <circle cx="512" cy="512" r="512" style="fill:#046"/>
   <path d="M451.8 269.4c-4.3 2.2-7 6.6-7 11.4v36.4c42.4-7.2 85.6-7.2 128 0v-36.4c0-4.8-2.7-9.2-7-11.4-17.7-8.8-37.2-13.4-57-13.4-19.6 0-39.1 4.5-57 13.4M739 624.1C697.4 709.3 609.9 768 508.8 768c-107.9 0-200.3-66.8-237.9-161.4 19.2-17 41.7-30.6 77.9-30.6 48 0 72 24 96 48s48 48 96 48c40 0 68-12 96-24s56-24 96-24c2.1 0 4.1 0 6.2.1M508.8 448c-32 48 0 192 0 192s32-144 0-192M280.3 627.7c10.8-2.3 22.8-3.7 36.4-3.7 40 0 68 12 96 24 3.5 1.5 7 3 10.6 4.5-15.3-51.2-38.8-116.3-70.5-166.2-2.3-3.6-1.5-8.3 2-10.8 63.9-44.5 154-59.5 154-59.5s90.1 15 153.9 59.6c3.5 2.4 4.3 7.2 2 10.8-26.5 41.8-47.3 94.1-62.3 140.1l2.4-2.4c24-24 48-48 96-48 21.6 0 38.3 4.9 52.4 12.4C720.7 692.5 623.5 768 508.8 768c-99.8 0-186.2-57-228.5-140.3m105-261.4c-2.7 1-4.6 3.7-4.6 6.6v50.9c23.2-11.2 46.3-19.4 65.6-25.3 16.2-4.9 30.2-8.4 40.3-10.7 7.6-1.7 12.9-2.7 15.4-3.1l6.7-1.1 5.7 1 1 .2c.8.1 1.9.4 3.4.6 2.9.6 6.9 1.4 12 2.5 10.1 2.2 24.2 5.7 40.3 10.7 19.4 5.9 42.5 14.2 65.6 25.3V373c0-2.9-1.8-5.6-4.6-6.6-79.5-30-167.2-30-246.8-.1" style="fill:#fff"/>
</svg>
