<svg xmlns="http://www.w3.org/2000/svg" viewBox="0 0 1024 1024">
   <circle cx="512" cy="512" r="512" style="fill:#22e6b8"/>
   <path d="M595.8 444.91a100.78 100.78 0 0 0-141.48 0c-39.11 39.31-38.41 103.26.45 142.56s102.55 39.75 141.67.45c.64-.64 3.39-3.58 8.39-8.9l-47.05-47.5c-4.67 5.76-7.49 8.71-7.75 8.71a34 34 0 0 1-48.14 0c-13.32-13.32-13.32-35.08-.45-48.14 12.87-12.87 34.44-12.87 47.88.45L675.43 619.1c-34.57 50.12-92.5 81.81-154.86 81.81-103.26 0-187.18-84.63-187.18-189.17s84-189 187.18-189a185 185 0 0 1 150.05 76.56q-8.35 9.6-42.57 48.78l46.6 46.6 77.2-87.45c-40.2-91-130.34-151.33-231.55-151.33-140 0-253.7 114.78-253.7 256s113.44 256.26 253.7 256.26c63.7 0 116.51-20.17 168-64.34 46.8-39.95 69-95.51 69-95.51z" style="fill:#fff"/>
</svg>
