<svg xmlns="http://www.w3.org/2000/svg" viewBox="0 0 1024 1024">
   <circle cx="512" cy="512" r="512" style="fill:#831f77"/>
   <path data-name="CrossBox logo (monochrome vector by krisu)" d="M641.26 332.59q-2.51-18.68-5.06-37.35l.45-.32 7.53 4.37q7.66 4.46 15.33 8.91 22.88 13.25 45.8 26.43 11.45 6.61 22.89 13.24c1.34.8 2.71 1.57 4.07 2.35s2.74 1.54 4.09 2.33 2.69 1.61 4 2.49a44.65 44.65 0 0 1 3.77 2.82 48.53 48.53 0 0 1 11 13.05q1.07 1.86 2 3.8A47.06 47.06 0 0 1 760.9 387a32.14 32.14 0 0 1 .66 5c.07 1.12.09 2.25.1 3.37v103.5l-4.66 3.76c-10.58 8.6-21.29 17.38-31.66 25.86-7.83 6.42-15.89 13-23.9 19.54V409.22a12.51 12.51 0 0 0-1.44-6.52 8.34 8.34 0 0 0-.54-.81 8.66 8.66 0 0 0-1.06-1.3 11.37 11.37 0 0 0-1.25-1.08 25.18 25.18 0 0 0-2.82-1.78c-.65-.37-1.3-.72-1.93-1.1L680.86 390l-23.08-13.32-3.47-2-8-4.68q-2.56-18.74-5.05-37.41Zm-378.9 173.18c11.83-9.59 23.73-19.34 35.28-28.81q10.11-8.29 20.23-16.56l4.59-3.75c-.05-11.07 0-22.13 0-33.2v-14.21a11.92 11.92 0 0 1 .11-2.32 12.11 12.11 0 0 1 .56-2.26 10.72 10.72 0 0 1 4.79-5.86q59.17-34.14 118.31-68.32l1.8-1.05c1.61-.94 3.21-1.88 4.84-2.79q1.29-.72 2.61-1.4c.51-.27 1-.53 1.54-.79l.16-.33-1.49-.58q-13.8-5.37-27.64-10.65l-13.82-5.29-14.6-5.6q-7.29-2.8-14.56-5.62l-1 .57q-4.15 2.31-8.26 4.68-4.75 2.73-9.49 5.49t-9.5 5.46c-23.56 13.65-47.17 27.21-70.72 40.87q-1.33.77-2.6 1.63a46.35 46.35 0 0 0-4.84 3.76 48 48 0 0 0-4.31 4.35A49.22 49.22 0 0 0 265.1 379a46.27 46.27 0 0 0-2.73 15v87.52c-.02 8.07-.06 16.16-.01 24.25Zm114.33 211.89v-.06q-1.53-13.58-3-27.17c-1.26-11.33-2.56-23-3.87-34.55l-.79-6.94q-20.4-11.77-40.79-23.55a11.3 11.3 0 0 1-5.75-9.6V473.18a35.13 35.13 0 0 1 .31-6.76l-.22-.33q-15 12.26-30 24.57t-30.07 24.49a6.56 6.56 0 0 0-.11 1c0 1 .06 1.93 0 2.89v110.6c0 1.46.12 3 .25 4.46a43.73 43.73 0 0 0 .63 4.41q.22 1.09.5 2.17t.65 2.14q.33 1.16.73 2.3a45.69 45.69 0 0 0 2.9 6.62 48.69 48.69 0 0 0 8.63 11.55 49.41 49.41 0 0 0 9.51 7.38q1 .62 2.1 1.18l8.18 4.73c8.18 4.72 16.38 9.43 24.54 14.2 11.15 6.35 22.24 12.8 33.35 19.24q11.48 6.65 23 13.22c-.19-1.87-.4-3.72-.64-5.54Zm385-199.85v-9.48Q739 526.72 716.5 545.22q-7.52 6.15-15 12.3v58.37a10.05 10.05 0 0 1-.89 4.37 10.94 10.94 0 0 1-.7 1.32 11.3 11.3 0 0 1-.87 1.21 11.45 11.45 0 0 1-2.18 2 11.18 11.18 0 0 1-1.28.79q-59.65 34.43-119.28 68.89l2.28 1c1.17.5 2.37 1 3.59 1.58 7.47 3.37 15.09 6.75 22.46 10 11.35 5 23.08 10.25 34.58 15.53l4.77 2.19q7.08-4.05 14.15-8.11c22-12.65 43.87-25.39 65.85-38 7.35-4.55 15.49-8.14 21.95-14 .92-.83 1.81-1.71 2.66-2.64q1.51-1.59 2.86-3.32a48.08 48.08 0 0 0 3.68-5.43q.55-.95 1.06-1.92 1-1.94 1.85-4a49.15 49.15 0 0 0 3.73-17q-.05-56.21-.12-112.54Zm-139.9 205.07c-9.5-4.27-19-8.48-28.54-12.71q-7.14-3.17-14.25-6.38c-1.74-.81-3.52-1.54-5.27-2.32a53.06 53.06 0 0 1-5.16-2.54l-.25.13c-2.39 1.35-4.77 2.72-7.16 4.08-10.7 6.11-21.34 12.3-32 18.47q-6.52 3.77-13.06 7.5a10 10 0 0 1-1.28.64c-.15.06-.3.1-.45.15s-.59.22-.9.3-.37.07-.56.11-.55.12-.84.15-.4 0-.6 0h-.8c-.26 0-.56 0-.84-.06s-.42 0-.63-.05-.58-.11-.87-.18-.38-.07-.57-.13-.62-.21-.92-.33c-.15-.06-.31-.1-.47-.17a10.57 10.57 0 0 1-1.3-.68l-117.41-67.71-7.92-4.57-2.32-1.34-.33-.19q1.76 15.43 3.46 30.86t3.45 30.86q.4 3.09.71 6.19c.16 1.57.29 3.15.42 4.72 0 .5.09 1 .13 1.49a5.62 5.62 0 0 0 .66.52c.7.48 1.49.84 2.22 1.27l7.44 4.3q41.64 24.06 83.29 48.1c2.16 1.22 4.3 2.51 6.47 3.74 1.81 1 3.64 2 5.52 2.88a38.87 38.87 0 0 0 5.82 2.18c.69.21 1.39.4 2.09.58l.61.15 1.6.36.58.12c.71.14 1.42.26 2.13.36h.27q.94.13 1.89.23l.65.06 1.67.12h2.65q1.39 0 2.77-.09l.73-.06c.69-.05 1.38-.11 2.06-.19l.94-.12q1-.13 1.91-.3l.88-.16q1.19-.23 2.37-.53l.34-.08c.9-.23 1.79-.49 2.67-.77l.76-.26c.63-.21 1.26-.44 1.89-.68l.88-.35q.91-.37 1.8-.78l.78-.36c.84-.4 1.66-.82 2.47-1.28q8.61-4.91 17.18-9.88l17.16-9.92 11.46-6.59q7-4.08 14-8.13 14-8.1 28.09-16.21l6.23-3.64c2.59-1.51 5.19-3 7.77-4.54q-7.04-3.14-14.17-6.34Zm-162-405.61 4 1.56 41.32-23.86a10.73 10.73 0 0 1 1.3-.65c.15-.06.31-.1.46-.16s.6-.22.9-.31.38-.08.57-.12.56-.13.84-.17.41 0 .62 0 .54-.05.82-.05H512c.19 0 .54.09.82.14s.37.06.56.1.59.18.88.28.31.09.45.15a10.55 10.55 0 0 1 1.27.6q38.81 22.38 77.6 44.8l25.87 14.93c6.21 3.67 12.52 7.18 18.75 10.82l-1.55-11.6c-2.48-18.5-5-37.62-7.61-56.43l-.15-1.08-.56-4.08v-.29l-.26-1.88q-33.41-19.16-66.73-38.48-12.55-7.25-25.11-14.47c-.61-.38-1.23-.73-1.86-1.08l-.51-.28q-.81-.44-1.64-.85l-.31-.15q-1-.47-1.95-.89l-.49-.2q-.81-.34-1.64-.65l-.45-.17q-1-.37-2-.69l-.41-.12q-.86-.26-1.73-.5l-.53-.14c-.7-.18-1.4-.35-2.1-.5h-.19c-.64-.13-1.29-.25-1.94-.36l-.56-.09c-.65-.1-1.31-.19-2-.26h-.19c-.71-.08-1.43-.13-2.14-.18h-.56q-.89 0-1.77-.06h-1.18c-.68 0-1.35 0-2 .06l-.95.07q-.9.07-1.8.17l-1 .12c-.62.09-1.24.19-1.85.3l-.85.15c-.89.18-1.77.38-2.64.61a37.3 37.3 0 0 0-7.44 2.49q-1.19.53-2.36 1.12c-1.56.78-3.09 1.63-4.61 2.5s-3 1.76-4.53 2.62q-12.17 7.07-24.37 14.1-32 18.46-64 37c10 3.88 20.15 7.75 30 11.52 12.51 4.71 25.44 9.65 38.14 14.6Zm3.49 13.17-1.13 8.47-.08.57c-.44 3.06-.85 6-1.18 8.89l-.45 3.34c-.47 3-.84 5.93-1.23 9.05-.44 3.55-.9 7.22-1.51 10.89-.37 3.68-.89 7.32-1.4 10.84s-1 6.93-1.34 10.33v.42l-1.21 9.08c16-9.19 31.93-18.46 47.93-27.63a21.73 21.73 0 0 1 8.2-2.76c5.3-.65 10.59 1.16 15 4 14.31 8.2 28.53 16.57 42.88 24.69q4.44-1.6 8.87-3.25l10.87-4.07q4.55-1.71 9.11-3.39c13.58-5.16 27.22-10.14 40.8-15.29-3.67-2.18-7.4-4.32-11-6.4-3.38-1.93-6.86-3.92-10.29-5.94l-44.7-25.81q-28.83-16.65-57.66-33.28a3.5 3.5 0 0 0-1.65-.4 3.62 3.62 0 0 0-1.84.49l-30.85 17.82-16 9.23Zm124 70.75-2.55 1-8.81 3.3 48.78 28.18a20.75 20.75 0 0 1 7.22 6.09 19.64 19.64 0 0 1 4.28 12.91c.1 16.72 0 33.45.05 50.17q28.74 24 57.35 48.09V410.14a5 5 0 0 0-.5-2.76l-.14-.19-.13-.2a11.87 11.87 0 0 0-3-2.05c-.53-.3-1.07-.6-1.58-.91q-8.65-5-17.31-10c-8.32-4.79-16.89-9.73-25.36-14.67l-52.15 19.54Zm-256.83 62q10 8.07 20 16.15c9.89 8 20 16.21 30.15 24.36l7.27 5.87v-56.92a21.22 21.22 0 0 1 6.57-15.4c2.44-2.37 5.56-3.79 8.43-5.53 14.29-8.27 28.62-16.48 42.89-24.79.14-1.45.3-2.89.48-4.33l.1-.77c.41-3.24.89-6.46 1.38-9.69.27-2.69.62-5.36 1-8 .25-1.78.51-3.56.77-5.34s.49-3.57.7-5.35q.16-1.34.29-2.69c1.21-7.16 1.8-14.39 3-21.55.11-1.1.24-2.19.37-3.28 0-.38.1-.76.15-1.14q.14-1.09.29-2.18l.2-1.41.29-2q.29-2 .58-4.09c-1.25.7-2.5 1.44-3.79 2.19l-2.28 1.33q-58.58 33.84-117.17 67.66a4 4 0 0 0-1.69 3.63v21.18c0 10.52 0 21.37.06 32.09h.06Zm100.12 163.9 10.87-4.09 8.79-3.3c-17.53-10.17-35.1-20.26-52.62-30.43a21.2 21.2 0 0 1-9.72-17.46v-53l-7.28-5.81q-15.71-12.59-31.35-25.28l-18.8-15.21-.11-.09v142.31a3.93 3.93 0 0 0 1.94 3.18h.12q24.1 13.94 48.22 27.84Zm137.06 31.33 4.37-29.16 1.38-9.19-51.74 29.86a20.93 20.93 0 0 1-9.53 2.3c-6.47.19-11.88-3.71-17.22-6.79-12.2-7-24.33-14.1-36.55-21l-8.77 3.31q-15 5.67-30 11.29-15.33 5.75-30.65 11.53l37.69 21.76 83.39 48.2.1.06.1.06a3.48 3.48 0 0 0 1.82.5 3 3 0 0 0 1.54-.4h.12c7.62-4.35 15.35-8.82 22.82-13.16 8.48-4.92 17.22-10 25.93-14.92 1.67-10.66 3.26-21.46 4.81-31.94Zm75.93-140.06-7.27-6.11v59.63a20.81 20.81 0 0 1-9.95 17.63q-22.54 13-45.07 26c0 .73-.11 1.46-.18 2.18 0 .26-.06.51-.09.77-.06.47-.11.94-.18 1.41 0 .32-.09.63-.14 1s-.12.82-.19 1.23l-.2 1.21-.22 1.28v.07l-.22 1.29c-.06.35-.11.69-.17 1l-.14.88c-.06.41-.12.81-.17 1.22 0 .23-.07.46-.1.69-.08.64-.16 1.28-.21 1.92-2.92 18.75-5.58 37.54-8.47 56.3 29.72-17.21 59.87-34.61 89.07-51.46l31.73-18.31.12-.07.12-.06a3.6 3.6 0 0 0 2-3v-54.68c-15-12.67-32.17-27.08-50.05-42ZM511.09 562a121.37 121.37 0 0 0-2.39-25.51 41.94 41.94 0 0 0-11.07-20.72c-7.51-7.63-16.95-13.37-26.07-18.93l-.79-.48c-2.68-1.64-5.47-3.24-8.16-4.79-3.2-1.84-6.51-3.74-9.71-5.74l-10.49-6.58 12.24 1.9a22.52 22.52 0 0 1 5.3 1.7c.73.31 1.42.59 2.11.84 3.5 1.37 6.91 2.72 10.32 4.07 6.53 2.58 13.27 5.26 19.94 7.77 8.92 3.28 19 7 29.37 7.79a46.15 46.15 0 0 0 14.34-1.3c9.4-2.46 18.27-7.22 26.53-11.89 11.53-6.67 23-13.92 34.13-20.93 5.59-3.53 11.37-7.17 17.09-10.71l.11-.07.17-.12a5.38 5.38 0 0 0 1-.76 33.39 33.39 0 0 0 4.05-3.86 20.07 20.07 0 0 0 1.67-2.16 15.37 15.37 0 0 0-2-3.22 18.27 18.27 0 0 0-6.36-5.36q-25.1-14.52-50.21-29c-12.64-7.15-25.16-14.52-37.76-21.74a19.94 19.94 0 0 0-13.19-3.56 19.14 19.14 0 0 0-7.22 2.43c-16.42 9.41-32.77 19-49.2 28.36-12.61 7.36-25.23 14.57-37.84 21.88-2.53 1.53-5.28 2.78-7.43 4.87a18.69 18.69 0 0 0-5.78 13.57v104.93a18.67 18.67 0 0 0 8.56 15.38c17.83 10.33 35.65 20.56 53.5 30.94 10.76 6.12 21.44 12.38 32.18 18.54 4 2.3 8 5.1 12.62 5.81 0-11 .11-22.13.24-32.91.11-8.68.22-17.66.24-26.48v-.15c.17-2.69.1-5.35 0-8.17-.01-1.84-.06-3.72-.04-5.64ZM620 459.75v-.05a10.29 10.29 0 0 1-3.54 3.23c-5.68 3.51-11.44 7.14-17 10.65-11.15 7-22.69 14.31-34.32 21-8.58 4.85-17.78 9.79-27.85 12.41a51.21 51.21 0 0 1-16 1.43c-11-.83-21.49-4.69-30.74-8.1-3.2-1.21-6.41-2.45-9.6-3.69 7.18 4.51 14.27 9.41 20.32 15.56a47 47 0 0 1 12.43 23.23 126.5 126.5 0 0 1 2.51 26.62c0 1.81 0 3.64.07 5.4.07 2.78.14 5.66 0 8.54 0 8.82-.13 17.79-.24 26.45-.12 9.93-.25 20.17-.24 30.28a19.4 19.4 0 0 0 4.67-1.55q13.64-7.84 27.27-15.73 12.56-7.26 25.12-14.5T598 586.42l14.49-8.42a15.75 15.75 0 0 0 7.48-13.3v-79.75c.03-8.23.03-16.79.03-25.2Z" style="fill:#fff"/>
</svg>
