<svg xmlns="http://www.w3.org/2000/svg" viewBox="0 0 1024 1024">
   <circle cx="512" cy="512" r="512" style="fill:#1bdfcb"/>
   <path d="M536.56 744V640a128 128 0 0 0-.56-256H408L304 280h232.56a232.26 232.26 0 0 1 46.73 4.74 229.4 229.4 0 0 1 82.8 35.06 233.57 233.57 0 0 1 97.21 239.49 230.84 230.84 0 0 1-180 180 234.49 234.49 0 0 1-46.74 4.71ZM356.27 511.14c0-33.88 26.5-61.95 58.44-62 34.06-.08 63.24 28.44 63.62 62.16.39 34.57-27.79 63.84-61.3 63.64s-60.83-28.94-60.76-63.8Zm-.64 129.6h144.16V744H355.63A51.63 51.63 0 0 1 304 692.37a51.63 51.63 0 0 1 51.63-51.63Z" style="fill:#fff"/>
</svg>
