<svg xmlns="http://www.w3.org/2000/svg" viewBox="0 0 1024 1024">
   <circle cx="512" cy="512" r="512" style="fill:#313131"/>
   <path d="M331.44 276c-29.27 0-40.07 10.8-40.07 40.07v353.4c0 3.31.15 6.38.41 9.2.73 6.44.79 12.65 6.76 19.67.55.81 6.61 5.25 6.61 5.25 3.22 1.62 5.48 2.73 9.17 4.27l177.82 74.51c9.2 4.2 13.08 5.89 19.76 5.65h.1c6.76.23 10.65-1.45 19.84-5.65l177.8-74.51c3.71-1.54 5.89-2.65 9.2-4.27 0 0 6.06-4.52 6.61-5.25 6-7 6-13.23 6.76-19.67.26-2.82.43-5.89.43-9.17V316c0-29.25-10.84-40-40.11-40Zm285 66.36h14.51c24.2 0 36 11.78 36 36.21v40.09h-29.33v-38.51c0-7.83-3.63-11.46-11.2-11.46h-5c-7.83 0-11.46 3.63-11.46 11.46v124c0 7.81 3.63 11.44 11.46 11.44H627c7.51 0 11.14-3.63 11.14-11.44V459.8h29.36v45.75c0 24.43-12 36.44-36.29 36.44h-14.8c-24.35 0-36.27-12.1-36.27-36.44V378.78c0-24.37 11.93-36.46 36.27-36.46Zm-260.05 1.62h66.41v27.25h-36.61v55.56h35.25v27.18h-35.25v59.19h37.1v27.14h-66.93Zm81.44 0h46.86c24.26 0 36.27 12.1 36.27 36.53v52.17c0 24.43-12 36.46-36.27 36.46h-16.97v71.2H437.8Zm96.61 0h29.83V540.3h-29.86Zm-66.81 26.42v72.33H480c7.49 0 11.12-3.63 11.12-11.52v-49.29c0-7.89-3.63-11.52-11.12-11.52ZM385.38 587h4.44l1 .15h1.6l.81.26h.77l.81.23.79.17.73.15.73.17.73.15.81.26.64.15.64.26.81.23.64.32.83.32.73.32.64.43.81.3.55.43.81.38.64.43.73.38.64.49.64.41.64.47.66.49.64.55.64.49-.47.64-.58.58-.47.64-.58.64-.47.58-.49.55-.58.64-.47.64-.49.58-.55.64-.49.64-.58.64-.47.58-.49.64-.55.64-.49.66-.55.55-.49.64-.64-.47-.64-.55-.64-.43-.75-.47-.55-.41-.73-.41-.64-.41-.75-.41-.64-.32-.64-.32-.64-.23-.73-.26-.81-.21-.64-.17-.81-.17-.81-.17-.81-.06h-.87l-1-.17h-1.6l-.81.09h-.81l-.81.23-.73.17-.73.23-.79.23-.64.32-.81.34-.58.38-.64.43-.64.38-.58.49-.55.49-.58.47-.47.58-.64.55-.43.64-.38.58-.49.64-.32.73-.43.64-.38.73-.23.73-.34.73-.21.81-.11.81-.23.73-.17.9v.79l-.15.81v1.92l.09.83.06.73.09.79.17.81.23.64.09.81.23.64.26.64.32.83.41.79.32.64.41.64.47.66.49.64.41.58.64.55.49.58.55.47.64.49.64.49.66.41.64.38.73.34.81.32.64.32.81.23.81.26.81.15.79.17.81.09 1 .06h2.65l1-.15h.79l.81-.26.81-.15.81-.26.73-.15.73-.32.64-.32.81-.34.49-.32.64-.41v-7.4h-11.81v-11.9h26.61v26.63l-.55.47-.64.49-.58.41-.64.49-.64.38-.64.49-.64.41-.66.41-.81.41-.73.41-.64.41-.81.32-.64.41-.81.32-.81.32-.81.32-.73.32-.73.23-.73.26-.79.23-.73.23-.81.26-.73.15-.81.17-.81.17-.81.15-.79.09-.81.09-.81.09-1 .06-.81.09-.9.09h-4.18L384 648h-.81l-.79-.15h-.81l-.81-.26-.81-.15-.81-.17-.79-.15-.64-.26-.81-.15-.81-.26-.73-.32-.73-.23-.81-.32-.73-.32-.81-.32-.64-.34-.81-.38-.55-.43-.81-.38-.58-.43-.64-.38-.64-.49-.64-.49-.73-.47-.49-.49-.64-.49-.58-.55-.55-.49-.58-.55-.42-.58-.58-.55-.47-.64-.49-.58-.41-.64-.49-.64-.41-.64-.38-.64-.43-.75-.38-.64-.32-.73-.32-.73-.34-.73-.32-.73-.23-.64-.32-.73-.17-.73-.23-.73-.17-.81-.23-.73-.17-.81-.06-.73-.17-.81-.09-.73-.06-.81-.09-.79-.09-.81v-4.44l.17-.81v-.87l.21-.81v-.81l.26-.81.26-.79.15-.81.23-.73.26-.81.23-.73.32-.81.32-.73.34-.73.32-.73.32-.73.41-.73.41-.64.38-.64.43-.64.38-.64.49-.66.49-.64.47-.64.58-.58.47-.55.49-.58.64-.55.49-.58.64-.49.58-.55.64-.49.64-.47.64-.43.64-.47.64-.41.66-.41.73-.41.81-.41.64-.38.81-.34.73-.32.81-.41.64-.21.81-.26.73-.32.73-.17.73-.23.81-.17.73-.23.79-.17h.81l.81-.23h.81l.81-.17h.79Zm255.81.15h4.42l1 .17h1.6l.81.23h1l.81.26.73.15.81.17.81.15.73.17.81.23.79.26.64.15.81.32.81.26.64.32.81.32.81.32.73.43.58.3.79.43.73.38.64.41.75.49.64.38.64.49.64.49.64.47-.47.64-.41.66-.49.64-.47.64-.49.73-.41.64-.49.64-.47.66-.43.64-.47.64-.49.64-.47.66-.43.73-.47.64-.55.64-.43.64-.47.66-.64-.49-.73-.41-.64-.38-.64-.49-.75-.32-.64-.43-.81-.3-.55-.32-.81-.34-.64-.32-.64-.23-.73-.32-.81-.23-.81-.26-.81-.23-.87-.17-.81-.15-.81-.17-.81-.09-.79-.09-.73-.06h-1.79l-.87.15-.81.17-.81.15-.64.34-.55.32-.73.64-.49.73-.32.73v2l.41.9.32.49.55.55.81.43.64.38.81.32.81.32 1 .32.64.17.64.23.81.17.64.23.81.17.9.23.87.23.9.26.9.15.79.26.9.23.81.17.79.23.81.23.81.26.81.23.73.23.81.26.79.32.81.41.81.32.81.41.81.41.64.41.64.38.73.49.58.43.73.55.55.55.64.64.58.58.41.64.55.81.41.55.32.81.41.55.23.81.26.64.15.81.17.81.15.81.09.81.09.79v2l-.09.87-.09.81-.06.9-.17.81-.23.79-.17.81-.23.81-.32.73-.32.64-.34.73-.38.64-.49.64-.43.64-.38.66-.55.58-.49.55-.58.49-.64.55-.55.49-.64.49-.64.38-.66.49-.81.41-.64.32-.81.43-.81.3-.79.32-.81.26-.81.23-.64.23-.81.17-.81.17-.64.15-.81.17H650l-.79.15h-.81l-.81.17h-6l-.79-.09-.81-.09-.9-.06-.81-.17-.79-.09-.81-.15-.81-.17-.9-.23-.79-.17-.81-.23-.81-.17-.81-.23-.79-.26-.81-.32-.73-.23-.81-.23-.81-.34-.64-.32-.81-.32-.64-.41-.81-.32-.73-.41-.55-.41-.81-.41-.58-.38-.73-.43-.64-.47-.64-.49-.64-.47-.64-.49-.58-.49-.64-.55.47-.64.58-.58.49-.64.55-.64.49-.58.47-.64.58-.64.49-.58.55-.64.49-.55.55-.64.49-.64.47-.58.58-.64.49-.64.55-.58.58-.64.55.47.81.49.55.49.81.47.64.43.73.47.64.41.75.32.64.41.73.32.81.32.64.32.81.23.64.34.81.21.79.26.81.26.81.15.81.17.81.15h.87l.81.26h4.44l.81-.17.79-.17.64-.15.64-.23.58-.34.73-.47.43-.58.38-.64.23-.81v-1.86l-.32-.79-.47-.64-.49-.49-.73-.49-.58-.32-.79-.32-.81-.32-1-.43-.58-.15-.64-.17-.81-.21-.64-.17-.81-.26-.81-.15-.87-.26-.81-.15-.9-.26-.79-.15-.81-.26-.81-.15-.81-.26-.81-.21-.79-.17-.73-.26-.73-.23-.73-.26-.81-.32-.9-.32-.81-.32-.79-.32-.81-.41-.81-.41-.55-.41-.81-.41-.58-.47-.73-.43-.47-.47-.58-.55-.64-.58-.49-.55-.47-.58-.43-.55-.38-.64-.43-.73-.3-.58-.26-.64-.23-.73-.23-.64-.17-.81-.15-.73v-.81l-.17-.81v-3.46l.09-.81.09-.81.15-.64.17-.81.23-.64.17-.81.32-.64.32-.81.32-.64.41-.81.41-.64.55-.64.43-.64.64-.64.55-.58.49-.64.73-.58.47-.41.73-.49.64-.47.64-.43.81-.38.64-.32.83-.41.64-.32.81-.26.79-.32.81-.23.58-.17.79-.15.64-.17.81-.15.81-.17.81-.09.81-.09.81-.06Zm-197.09.58h15.09l.32.73.32.73.32.73.23.81.32.73.32.73.34.73.32.73.23.73.41.79.32.73.32.75.17.73.32.73.41.73.32.79.32.73.23.73.32.73.43.73.21.73.34.81.23.81.32.64.43.81.3.64.32.81.26.81.23.64.41.81.32.64.32.81.23.64.34.81.41.81.32.73.23.73.23.73.32.73.43.73.3.79.34.75.21.73.34.73.32.73.32.73.32.79.26.73.32.73.41.73.32.73.32.73.17.81.32.73.41.73.32.73.23.73.32.73.32.81.43.81.21.64.34.81.23.64.32.81.41.81.32.64.23.81.34.64.23.81.41.64.32.81.23.81.32.64.34.81.38.64.34.81.21.79.26.64.32.81.43.64h-16.69l-.43-.7-.21-.73-.34-.73-.32-.81-.23-.73-.32-.73-.32-.73-.26-.73-.32-.73-.32-.73-.23-.73-.32-.81-.32-.73-.26-.73-.32-.73h-23.15l-.32.81-.23.64-.32.81-.41.79-.17.64-.32.83-.32.64-.23.81-.32.64-.32.81-.26.64-.32.81-.32.79-.32.64-.23.81h-16.55l.32-.79.32-.73.32-.73.26-.81.21-.73.43-.73.32-.73.32-.73.23-.73.32-.81.43-.73.3-.73.26-.73.23-.73.32-.73.43-.81.3-.73.32-.73.26-.73.32-.73.32-.73.32-.81.32-.81.26-.64.32-.81.41-.64.32-.81.23-.79.23-.64.32-.81.43-.64.3-.81.34-.64.21-.81.34-.81.41-.64.23-.81.32-.64.26-.81.32-.81.41-.64.32-.81.23-.64.32-.81.26-.64.41-.81.32-.81.32-.73.23-.73.32-.73.43-.73.3-.73.17-.81.32-.73.32-.73.41-.73.32-.73.23-.73.34-.81.32-.79.32-.64.32-.81.23-.64.32-.81.32-.81.43-.64.3-.81.26-.64.23-.81.32-.64.43-.81.3-.81.26-.64.32-.81.32-.64.41-.81.23-.81.23-.64.34-.81Zm46.77.41h16.53l.47.64.43.73.47.64.41.73.41.64.41.73.38.64.49.75.41.64.41.64.41.73.41.64.55.73.32.64.43.75.47.64.49.64.32.73.47.64.43.73.3.64.58.75.41.64.41.73.41.64.38.64.49.73.41.64.41.75.41.64.41.73.47.64.43.73.38.64.49-.64.32-.81.49-.55.47-.81.43-.55.3-.81.58-.58.41-.79.32-.58.49-.64.47-.81.43-.55.38-.81.41-.58.49-.79.38-.58.43-.81.38-.55.43-.64.47-.81.41-.58.41-.79.47-.58.43-.81.38-.55.49-.64.41-.81.47-.58.43-.79.38-.58.43-.81.47-.55.41-.81.41-.55H553v59.51h-15.62v-35l-.38.55-.49.81-.41.55-.49.64-.41.81-.47.58-.43.64-.47.81-.41.55-.41.64-.55.64-.41.83-.49.55-.41.64-.38.81-.49.55-.41.64-.49.81-.41.58-.47.64-.43.81-.38.55-.49.64-.41.81-.47.58-.49.64-.41.64-.41.81-.49.58-.47.64-.32.81-.58.55-.41.64-.47.81-.43.58h-.3l-.49-.73-.41-.64-.49-.75-.41-.64-.47-.73-.43-.64-.47-.73-.41-.64-.47-.73-.43-.64-.55-.75-.32-.64-.49-.73-.47-.64-.43-.73-.47-.64-.41-.81-.47-.64-.43-.73-.47-.64-.41-.75-.49-.64-.38-.73-.49-.64-.41-.73-.49-.64-.41-.73-.47-.64-.43-.75-.47-.64-.41-.73-.55-.64-.32-.73-.49-.64v35.08H491v-58.83Zm74 0h46.92v13.44h-31.33v9.54h28.21v12.65h-28.19v10.24h31.77v13.46H565v-58.82ZM451.44 606.4l-.32.81-.26.64-.32.81-.32.79-.23.73-.32.73-.34.81-.32.81-.23.64-.32.81-.32.64-.26.81-.32.81-.32.64-.23.81-.32.64-.32.81-.37.86-.21.64-.34.81-.32.81-.23.64-.34.81h13.72l-.32-.81-.26-.73-.32-.81-.32-.73-.23-.73-.32-.73-.32-.81-.26-.73-.32-.73-.32-.73-.23-.73-.32-.81-.26-.73-.32-.73-.32-.73-.23-.73-.32-.79-.32-.81-.26-.64-.32-.81-.32-.81-.23-.73ZM426.9 717.84h171l-87.27 28.8Z" style="fill:#fff"/>
</svg>
