<svg xmlns="http://www.w3.org/2000/svg" viewBox="0 0 1024 1024">
   <circle cx="512" cy="512" r="512" style="fill:#19ba19"/>
   <path d="M773.38 439.94a19.85 19.85 0 0 0 0-28.08l-162-162a19.85 19.85 0 0 0-28.08 0l-58 58a19.85 19.85 0 0 1-28.08 0l-57.56-57.76a19.85 19.85 0 0 0-28.08 0l-161.77 162a19.85 19.85 0 0 0 0 28.08l58 58a19.85 19.85 0 0 1 0 28.08l-58 57.49a19.85 19.85 0 0 0 0 28.08l162 162a19.85 19.85 0 0 0 28.08 0l58-58a19.85 19.85 0 0 1 28.08 0l58 58a19.85 19.85 0 0 0 28.08 0l162-162a19.85 19.85 0 0 0 0-28.08l-58-58a19.85 19.85 0 0 1 0-28.08L773.38 440ZM656.53 543.68c0 62.3-50.8 113.1-113.1 113.1h-63.64c-62.3 0-113.1-50.8-113.1-113.1V480c0-62.3 50.8-113.1 113.1-113.1h63.64c62.3 0 113.1 50.8 113.1 113.1Z" style="fill:#fff"/>
</svg>
