<svg xmlns="http://www.w3.org/2000/svg" viewBox="0 0 1024 1024">
   <circle cx="512" cy="512" r="512" style="fill:#cd5029"/>
   <path d="M447.8 626.16a9.37 9.37 0 1 1-9.37-9.37 9.37 9.37 0 0 1 9.37 9.37zm251.85 76.43C687 741.77 615 799.91 558.09 812.55S457 808.76 438 791.06s-61.93-32.86-97.32-51.82-45.5-67-37.92-98.58 11.37-54.35 1.26-73.31-10.11-54.35 5.06-77.1 39.18-60.67 39.18-60.67 7.58 20.22 11.38 31.6 13.9 11.37 22.75 34.13 21.49 12.64 36.65-1.26 16.43-32.86-2.53-58.14-24-78.36 22.75-126.39S461.7 179 461.7 179s49.63 10.45 101.45 73.65 31.85 125.9 61.18 139.76C670 414 682 443.94 682 443.94c26.93 62.93-5.06 53.89 5.06 90.55s32.86 35.39 39.18 83.42-26.59 84.68-26.59 84.68zm-38.16-67.8a179.44 179.44 0 0 0-1.65-21.31c-19.11-4.34-29.17 2.76-29.17 2.76 11.06 8 15.35 21.12 15.35 21.12 2.1 13.19-3 20.51-9.57 24.46-6.87 4.15-15.18 4.2-15.18 4.2-35.2-7-12.58-46.84-12.58-46.84-32-11.18-44.61 32.11-44.61 32.11-.76-16.43.69-30.32 15.31-42.18 14.08-11.42 40.41-2.56 40.41-2.56 17.44-9.9 32.29-6.64 37.8-4.82-5.75-23.33-17.27-35.49-31.4-48.74-22.35-21-69-30.72-116.28-25 0 0-24-43.32-66.52-35.68l2.22 52.27s-39.54 29.15-44.89 67l-15.77 1.21s-11.38 2.53-11.38 13.9v36.65s3.79 11.37 12.64 11.37l16.25-.31s7.89 30.07 36 49.79v25.14s-2 8.38 15.28 10.84 40.17 2.22 43.87-1.48 3.7-4.44 3.7-8.87c0 0 20.95 4.93 59.4 0v4.93s3.45 6.9 28.59 6.9 32.53-3 37-11.83v-24.58s36.42-35.75 35.18-90.45zm-40.94-10s-16.45 31 5.53 29.35c0 0 11.67-5.58 4.82-16.88-7.05-11.63-10.35-12.46-10.35-12.46z" style="fill:#fff"/>
</svg>
