<svg xmlns="http://www.w3.org/2000/svg" viewBox="0 0 1024 1024">
   <circle cx="512" cy="512" r="512" style="fill:#54487a"/>
   <path d="M478 249a152.85 152.85 0 0 0-26.77 2.45c-92.67 17-157.9 97.22-163.44 150-2.79 26 11.21 45.34 19 53.9 20.76 23.21 62.32 40.88 89 55.55-38.54 32.88-56.32 48.9-73.76 67.21-26.11 27.45-44.46 57.57-44.46 79.13 0 7-1.11 29.21 7.91 46.65 3.44 6.68 13.11 28.56 42.21 45 18.66 10.55 45.23 14.45 71.23 10.78 80.44-11.55 188.22-79.79 265.1-143.33 49-40.56 84.79-79.79 95.12-99.1 8.33-15.56 9.33-43.58 4.44-61.13-13.77-49.89-125.55-152-217-193.11A166.71 166.71 0 0 0 478 249Zm-.11 1.45a157.2 157.2 0 0 1 71.34 16.1C623 302.79 747.79 404.87 757 456.1c11.32 63.46-211.91 235-347.68 261.78-52.65 10.35-97.68 13.23-118.1-42.44-17.78-48.21 16.67-83.54 67.33-129.88q31-28.16 63.23-55c1.31-1.46-121.78-43.9-125.66-92.56-4.12-50.1 75.21-142.55 176.75-147.32 1.68-.11 3.36-.23 5-.23Zm-2.45 11.09c-3.56 0-7.11.34-10.78.68-49.78 5.2-59.34 11.66-104.53 45.88-15.13 11.43-43 39.34-50.12 72.33-2.79 12.54.43 23.44 9.56 31.12 29 24.43 77.54 44.23 117.45 63.32 11.66 5.69 4 15.79-14.9 32.11-47.45 41.13-111.76 91.22-116.23 129.45-2.11 18 4.12 42.44 25.88 54.9 25.46 14.65 78.45 5.09 113.78-8.11C497.22 664 565 621.56 618.88 579.89c56-43.46 108.12-98.56 110.68-107.55 3.21-11 2.87-21.25-3.21-33-9.56-18.32-22.44-32-36.13-47.33-37-38.88-76.12-73.1-122.77-99.33-30.66-17.21-57.91-31.66-92-31.12Zm23 77.34c11.66 0 25.12 3.67 39.54 10.67 36 17.35 73 63.12-.31 89.46-20 7.11-83.23-17.58-81.35-51.34 1.91-33.56 18.23-48.9 42.13-48.78Zm6.12 29.12c-6.8 0-12.35 1.65-14.91 5.55-11.89 18.43-6.43 31.43 4.55 39.77 4.12-9.76 46 .91 45.79 10.13a5 5 0 0 0 1.22-.8c36.32-27.31-10.13-54.44-36.67-54.64Zm0 0" style="fill:#fff"/>
</svg>
