<svg xmlns="http://www.w3.org/2000/svg" viewBox="0 0 1024 1024">
   <circle cx="512" cy="512" r="512" style="fill:#2d535a"/>
   <path d="m678.34 309.51-260.52 129.6v-171.7a262.08 262.08 0 0 1 260.52 42.1Zm-276 258.06 15.51-7.72 329.24-163.79a262.87 262.87 0 0 0-56.15-75.5L417.82 456.44v68.08l-159.18-79.19a260.45 260.45 0 0 0-6.45 100.22l150.12 74.68Zm15.51 189A262.09 262.09 0 0 0 774 520.75L417.82 697.92ZM402.31 274a262.75 262.75 0 0 0-139.22 156.23l139.22 69.26Zm15.51 406.6 22.08-11 13.39-6.6L774 503.42q-.33-10.19-1.42-20.18-.78-7.08-1.93-14T768 455.4a261 261 0 0 0-14.44-45.22l-335.73 167v68.09l-63.52-31.6-99-49.24a262.48 262.48 0 0 0 147 185.63v-61.75Z" style="fill:#fff"/>
</svg>
