<svg xmlns="http://www.w3.org/2000/svg" viewBox="0 0 1024 1024">
   <circle cx="512" cy="512" r="512" style="fill:#6c139c"/>
   <path d="M826.46 414.41a5.5 5.5 0 0 1 5.42 8.41l-50.44 109a51.07 51.07 0 0 0-3.85 17.76v47.69a9.27 9.27 0 0 1-9.35 9.19H736a9.27 9.27 0 0 1-9.27-9.27v-47.65a49.42 49.42 0 0 0-3.93-17.76l-30.53-66.38a15.71 15.71 0 0 0-13.12-8.49h-47.22a9.27 9.27 0 0 0-9.19 9.35v11.47a9.35 9.35 0 0 0 9.27 9.35h34.8a9.27 9.27 0 0 1 9.27 9.27v23.88a9.27 9.27 0 0 1-9.27 9.27H632a9.35 9.35 0 0 0-9.27 9.35v15.71a9.35 9.35 0 0 0 9.27 9.35h57.67a9.27 9.27 0 0 1 9.27 9.27v23.88a9.27 9.27 0 0 1-9.27 9.27H581a9.27 9.27 0 0 1-9.27-9.27v-57.73a9.27 9.27 0 0 0-9.35-9.19h-38.63a9.35 9.35 0 0 0-9 9.35v57.67a9.27 9.27 0 0 1-9.27 9.27h-32.17a9.35 9.35 0 0 1-9.35-9.27v-28.2c17.13-59.24 17.13-99 0-120.83v-24.45a9.35 9.35 0 0 1 9.35-9.27h32.21a9.27 9.27 0 0 1 8.88 9.27v52.87a9.43 9.43 0 0 0 9.35 9.35h38.65a9.35 9.35 0 0 0 9.35-9.35v-52.87a9.27 9.27 0 0 1 9.27-9.27h133.25a14 14 0 0 1 12.41 8.72l7.86 22.63c1.73 4.87 4.48 12.73 6.13 17.6l8.41 25.22a41.56 41.56 0 0 0 3.77 8.8 44.78 44.78 0 0 0 3.69-8.72l8.8-25.38 6.29-17.52 7.86-22.63a14 14 0 0 1 12.33-8.72h34.65ZM450.6 455.5c18.15 20.58 13.91 69.5-13.27 145.5a8 8 0 0 1-15.08-5.34c34.1-95.3 22.86-122.33 16.42-129.55a15.71 15.71 0 0 0-15.71-3.77 59.16 59.16 0 0 0-31.43 22.55c11.23 45 19.48 96.48 5.42 117a20.66 20.66 0 0 1-15.08 9.27 14.61 14.61 0 0 1-12.73-5.42c-15.16-18-7.31-83.44.55-112.27a50.12 50.12 0 0 1 4.71-11.31c-.79-3.06-1.65-6.21-2.51-9.43-14.46-52.09-37.63-91.84-45.88-91.84-6.36 4-23 39.28 15.32 143.38a8 8 0 0 1-14.77 6.13c-39.52-85.79-58.3-110.7-65.37-117.85-2.75 13.2-4.4 52.48 42.74 138.9a8 8 0 0 1-13.67 8.25c-22.63-33.94-52.64-78.88-64.66-91.14-1.34 12.65 2.67 50.2 43.53 112.19a8 8 0 1 1-13 9.27c-29.07-37.24-44-46-49.18-48.16.63 9.82 11.47 42 36.22 68.82 16.58 17.91 43.92 37.87 80.22 30.8a8 8 0 1 1 3.06 15.71 98.52 98.52 0 0 1-18.23 1.73c-43.68 0-73.77-31.5-88.78-52-18.54-25-33.55-61.83-26.4-75a13 13 0 0 1 10.45-6.68 36.06 36.06 0 0 1 21.68 9c-17.6-40.07-18.23-66.94-12.57-77.62a11.86 11.86 0 0 1 10.06-6.84c6.68-.31 12.49 3 31.43 28.91-15.71-48-9.27-70.32-6-77.47a11.71 11.71 0 0 1 10.68-7.31c4.79.08 15.16 0 44.86 54.37-7.7-47.92 1.1-73.22 14.61-81.08a15.71 15.71 0 0 1 14.46-.63c21.61 9 43.76 63.64 54.05 99.78a70.08 70.08 0 0 1 32.37-19.25 31 31 0 0 1 31.48 8.4Zm-69 57.43c-6.44 33.94-6.44 75.34-.55 82.34a5 5 0 0 0 2.67-2.28c3.01-4.17 10.08-21.37-2.1-80.06Z" style="fill:#fff"/>
</svg>
