<svg xmlns="http://www.w3.org/2000/svg" viewBox="0 0 1024 1024">
   <circle cx="512" cy="512" r="512" style="fill:#42acdb"/>
   <path d="M292.9 571.2v-45.9H256v45.9h-28.9v-119H256v45.7h36.9v-45.7h28.9v119h-28.9zM353 466.7c.5-7.8 7.1-13.8 15-13.6 7.5-.6 14.1 5 14.7 12.5.6 7.5-5 14.1-12.5 14.7-.7.1-1.5.1-2.2 0-7.9.3-14.5-5.8-15-13.6zm2.1 26.4 12.9 7 13.3-6.9v78.1h-26.4v-78.1l.2-.1zm87.5 78.1h-26.4v-59.3h-10.6v-25.7H416v-28.5h26.4v28.5h10.4v25.6h-10.2v59.4zm84.7-119c35.2 0 40.9 21.4 40.9 32.3.5 10.5-5.2 20.3-14.6 25 11.3 3.7 18.7 14.5 18.1 26.4 0 18.7-10.6 35.2-45.3 35.2H480v-119h47.3zm-18.4 45.6h21.6c4.8.9 9.4-2.3 10.2-7.1.1-.6.2-1.2.1-1.7.1-4.9-3.8-8.9-8.7-8.9-.6 0-1.2 0-1.7.1h-21.6v18.3-.7zm0 46.1h23.6c5.9.9 11.4-3.1 12.3-8.9.9-5.9-3.1-11.4-8.9-12.3-1.1-.2-2.2-.2-3.4 0h-23.6v21.2zm137.2 27.3h-28.9v-91.7h-30.5v-27.2h89.5v27.2h-30.1v91.7zm150.7-100.4-18.7 17.6c-7.2-6.5-16.7-10.1-26.4-9.9-17.3-.1-31.4 13.8-31.6 31.1 0 .7 0 1.4.1 2.1-1.2 17.2 11.8 32 29 33.2.9.1 1.8.1 2.6.1 9.7.3 19.2-3.2 26.4-9.7l18.7 17.6c-11.6 12.5-27.9 19.6-44.9 19.7-33.5 0-60.7-27.2-60.6-60.7 0-33.5 27.2-60.6 60.6-60.6 17 .1 33.2 7.1 44.8 19.5z" style="fill:#fff"/>
</svg>
