<svg xmlns="http://www.w3.org/2000/svg" viewBox="0 0 1024 1024">
   <circle cx="512" cy="512" r="512" style="fill:#41bdf5"/>
   <path d="m502.42 719-.43-.43.43.43H315.18a10.44 10.44 0 0 1-10.45-10.44V529.64H258a12.53 12.53 0 0 1-8.91-21.34L500.8 253.62a15.66 15.66 0 0 1 22.2-.12l.1.1 131.41 132.35v-24.48A10.45 10.45 0 0 1 665 351h43.69a10.44 10.44 0 0 1 10.44 10.44v89.87l55.88 57a12.54 12.54 0 0 1-9.01 21.33h-46.92v178.92A10.44 10.44 0 0 1 708.64 719H521.4l.24-.24-.24.24 39-38.94h36a20.14 20.14 0 1 0 0-13.43h-41.53l-36.23 36.16v-44.14l43.14-43.07h69.66a20.14 20.14 0 1 0 0-13.43h-56.2L615.5 562v-33.61l29-28.92A20.11 20.11 0 1 0 635 490l-19.5 19.4v-61.49a20.18 20.18 0 1 0-13.46 0v61.49L582.59 490a20.18 20.18 0 1 0-9.51 9.49l29 28.92v28l-36.32 36.26v-26.58a20.18 20.18 0 1 0-13.45 0v40l-33.63 33.57V442.44l27.62-27.57a20.11 20.11 0 1 0-9.51-9.5l-24.83 24.79-24.84-24.79a20.16 20.16 0 1 0-9.51 9.5l27.62 27.57v140.82l-48.43-48.35v-38.65a20.18 20.18 0 1 0-13.45 0v25.22l-37.67-37.6v-37.31a20.18 20.18 0 1 0-13.45 0v42.87L433.79 531h-23.93a20.14 20.14 0 1 0 0 13.43h37.38l57.94 57.84v100.5l-30.94-30.89v-38.65a20.18 20.18 0 1 0-13.45 0v25.22l-45-44.94a20.18 20.18 0 1 0-9.51 9.5l45 44.93h-23.93a20.14 20.14 0 1 0 0 13.43h37.38L502.4 719M398.9 419.52a8.06 8.06 0 1 0 8.07 8.06 8.07 8.07 0 0 0-8.07-8.06Zm51.1 49.69a8.06 8.06 0 1 0 8.07 8.06 8.07 8.07 0 0 0-8.07-8.06Zm18.83-80.57a8.06 8.06 0 1 0 8.07 8.06 8.06 8.06 0 0 0-8.04-8.07Zm184.34 100.71a8.06 8.06 0 1 0-8.07-8.06 8.06 8.06 0 0 0 8.07 8.06ZM555 404.75a8.06 8.06 0 1 0-8.08-8.06 8.06 8.06 0 0 0 8.08 8.06Zm9.41 68.49a8.06 8.06 0 1 0 8.07 8.06 8.06 8.06 0 0 0-8.1-8.07Zm-173.55 56.4a8.06 8.06 0 1 0 8.07 8.06 8.06 8.06 0 0 0-8.1-8.06Zm259.65 87.29a8.06 8.06 0 1 0-8.07-8.06 8.07 8.07 0 0 0 8.04 8.06Zm-41.74-196.07a8.06 8.06 0 1 0 8.07 8.06 8.07 8.07 0 0 0-8.07-8.06ZM559 539a8.06 8.06 0 1 0 8.07 8.06A8.06 8.06 0 0 0 559 539Zm-161.44 57.78a8.06 8.06 0 1 0 8.07 8.06 8.07 8.07 0 0 0-8.07-8.06Zm10.76 69.83a8.06 8.06 0 1 0 8.07 8.06 8.06 8.06 0 0 0-8.07-8.06Zm207.18 14.77a8.06 8.06 0 1 0-8.07-8.06 8.06 8.06 0 0 0 8.07 8.06Zm-148-75.2a8.06 8.06 0 1 0 8.07 8.06 8.06 8.06 0 0 0-8.06-8.06Z" style="fill:#fff"/>
</svg>
