<svg xmlns="http://www.w3.org/2000/svg" viewBox="0 0 1024 1024">
   <circle cx="512" cy="512" r="512" style="fill:#3093fb"/>
   <path d="M566 518.65q9.33 9.32 11.46 20.78v18.06q-2.13 11.33-11.46 20.66a42.14 42.14 0 1 1 0-59.49Zm246.74 76.8c-14.08 58.55-58.6 95.78-121 97.52-58.06 1.62-116.18.35-174.28.35v-.26c-56.16 0-112.38 1.61-168.46-.41-70.62-2.53-127.7-52.83-138.29-118.28-12.62-77.89 19.65-143.4 89.2-169.89 28.52-10.86 48.71-26.51 68.46-49.14 88.81-101.75 249.66-81.21 312 40.06 14.82 28.85 30.83 48.44 62.14 61.77 56.57 24.12 83.37 83.45 70.18 138.28ZM440.13 423.62H415.7V612.5h24.43Zm161.82 0h-24.54v75.79q-17.71-18.29-41.19-18.3-27.87 0-47.51 19.71T469 548.4q0 27.86 19.66 47.57t47.51 19.71q23.48 0 41.19-18.3v15.12H602Z" style="fill:#fff"/>
</svg>
