<svg xmlns="http://www.w3.org/2000/svg" viewBox="0 0 1024 1024">
   <circle cx="512" cy="512" r="512" style="fill:#0084b5"/>
   <path d="m790 648.67-88.58 88.24L539 574.66h-54.57L322.31 736.91 234 648.61 370.44 512 234 375.39l88.31-88.31L433 397.83a24.21 24.21 0 1 1-26.77 24.43l-84-84.48-37.62 37.61L403.27 494h36L284.69 648.61l37.62 37.68L470 538.59h83.18l148.3 147.7 37.68-37.68L660 570.1a24.24 24.24 0 0 1-23.92-24.16v-.07a24.2 24.2 0 0 1 48.27-2.63ZM422.14 449.41H539l162.42-162.32 88.24 88.31-168.52 168.52 79.32 79.32a24.25 24.25 0 1 1-24.52 26.14L570.71 543.24l168.53-167.85h-.13l-37.68-37.61-148.3 147.7H406.44l-87-87a24.21 24.21 0 1 1 27.12-24v.45Zm279.25-48.9L572.67 529.76h-107l-119.23 120a24.21 24.21 0 1 1-24-26.72h.05L451.33 494h105.36l118.93-118.37a24.23 24.23 0 1 1 25.78 24.88Z" style="fill:#fff"/>
</svg>
