<svg xmlns="http://www.w3.org/2000/svg" viewBox="0 0 1024 1024">
   <circle cx="512" cy="512" r="512"/>
   <path d="m258.33 367.13 18-16.83a20.47 20.47 0 0 0 15.67 9.62q10.82 0 10.82-14.43v-63.71h27.65v63.72a33.61 33.61 0 0 1-37.27 37.27 36.38 36.38 0 0 1-34.87-15.64Zm79.35 15.63h80.55v-24h-54.1v-15.67h48.09v-21.64h-48.09v-15.63H417V283h-80.52Zm115.41 0h27.65V307h30.06v-24H423v24h30.06ZM260.74 505.39h51.7c22.84 0 37.27-10.82 37.27-27.65a23.41 23.41 0 0 0-19.24-24 23.51 23.51 0 0 0 15.63-22.84 23.78 23.78 0 0 0-6-16.83 44.51 44.51 0 0 0-27.65-8.42h-51.7Zm57.71-68.53c0 6-4.81 8.42-13.22 9.62h-16.84v-18h18c7.21 0 12 2.4 12 8.42Zm3.61 37.27c0 6-4.81 9.62-13.22 9.62h-21.65v-18h21.64c8.41-.04 13.22 2.37 13.22 8.38Zm32.46 31.26h27.65v-30.06h12l20.44 30.06h31.26l-24-34.86a33.19 33.19 0 0 0 20.44-31.26 29.93 29.93 0 0 0-8.42-22.84 42.25 42.25 0 0 0-32.49-10.83h-46.89Zm27.65-51.7v-24h18c8.42 0 14.43 3.61 14.43 12 0 7.21-4.81 12-14.43 12Zm49.29 52.9h28.84l7.21-18H506l7.21 18h30.06l-42.08-101h-26.46Zm45.68-40.88L488 438.06l10.82 27.65Zm69.73 39.67h27.65V405.6h-27.66Zm34.86 1.2h27.65v-55.3l42.08 54.1h24V405.6h-27.61v52.9L607 405.6h-25.27Zm143.06 0c25.25 0 40.88-12 40.88-32.46 0-19.24-14.43-26.45-37.27-31.26-13.22-3.61-16.83-4.81-16.83-9.62 0-3.61 2.4-6 9.62-6a54.74 54.74 0 0 1 27.65 9.62l14.43-19.24a64.09 64.09 0 0 0-40.88-13.22c-24 0-38.47 14.43-38.47 32.46 0 20.44 15.63 26.45 37.27 31.26 13.22 3.61 16.83 4.81 16.83 9.62s-4.81 7.21-12 7.21a47.39 47.39 0 0 1-32.46-12l-15.63 18a63.64 63.64 0 0 0 46.86 15.64ZM260.74 742.22h229.62v-38.47H260.74Z" style="fill:#fff"/>
</svg>
