<svg xmlns="http://www.w3.org/2000/svg" viewBox="0 0 1024 1024">
   <circle cx="512" cy="512" r="512" style="fill:#f16823"/>
   <path d="m512 256c-141.35 0-256 114.65-256 256 0 141.35 114.65 256 256 256 141.35 0 256-114.65 256-256 0-141.16-114.65-256-256-256m131.36 395.81-26.119-29.383c30.344-27.079 48.588-64.528 50.893-105.24 2.3046-40.714-11.139-79.892-38.41-110.43-27.079-30.536-64.528-48.588-105.24-51.085-40.714-2.3046-79.892 11.331-110.43 38.41-26.119 23.238-42.827 53.773-48.78 87.766l39.178 1.3443-62.992 84.885-50.317-88.918 34.761 1.1523c6.5296-44.555 28.231-85.077 62.224-115.42 38.41-34.185 87.766-51.277 138.85-48.396 51.277 3.0727 98.137 25.734 132.32 63.952 34.185 38.41 51.277 87.766 48.204 139.04-3.0728 51.277-25.734 98.329-64.144 132.32" style="fill:#fff"/>
</svg>
