<svg xmlns="http://www.w3.org/2000/svg" viewBox="0 0 1024 1024">
   <circle cx="512" cy="512" r="512" style="fill:#db202e"/>
   <path d="m547.06 238-22.25 20.89 54.34 52.64L600 290.64Zm-62.32 1.7-52.64 52.64 20.9 20.72 52.64-52.64Zm155.72 91.36-20.89 21.06 52.64 52.64 20.89-21.06ZM578 332.42l-53 52.64 21.23 20.89 52.64-52.64Zm-126.85 1.7-20.38 21.06 52.64 52.64 20.38-21.06-52.64-52.64Zm-62.7 1.88-52.64 52.64 21.06 20.89 52.64-52.64Zm344.9 88.14-20.72 21.06 52.64 52.64L786 476.76l-52.64-52.64Zm-62.66 1.36L618 478.12l21.06 20.72 52.64-52.64-21.06-20.72Zm-126.51 1.7-20.72 21.06 52.64 52.64 20.72-21.06Zm-62.84 1.8-52.64 52.69 21.06 20.72 52.64-52.64L481.34 429Zm-126.17 1.19-20.89 20.89 52.64 52.64 20.89-20.89-52.64-52.64Zm-62.83 2-52.64 52.72 20.89 20.72 52.64-53-20.89-20.38Zm471.25 86.01-52.64 53 19.36 20.55 54.34-52.64-21.06-20.91Zm-126.51 2-22.24 21.06 54.34 52.64 20.89-21.06-53-52.64Zm-62.49 1.7-53 52.64 21.06 20.72 52.64-52.64-20.72-20.72Zm-126.51 1.36-20.72 20.89L480 596.82l20.72-20.89-52.64-52.64Zm-63 1.7-52.64 52.64 21.06 20.89 52.64-52.64L385.08 525Zm-126.17 1.36L238 547.07l52.64 52.64L311.55 579Zm408.41 88.3-52.64 53 20.72 22.24 53-54.34-21.06-20.89Zm-126.17 1.7-20.72 20.89 52.64 52.64L593.79 669l-52.64-52.64Zm-63 1.7-52.65 52.67 20.89 20.72L499 638.77l-20.89-20.72Zm-126.34 1.36-20.72 20.72 53 53 20.72-21.06-53-52.64Zm219.4 91.7-53 52.64 21.23 20.72 52.64-53Zm-126 1.36-20.89 20.89L477 786l20.89-20.89Z" style="fill:#fff"/>
</svg>
