<svg xmlns="http://www.w3.org/2000/svg" viewBox="0 0 1024 1024">
   <circle cx="512" cy="512" r="512" style="fill:#f47116"/>
   <path d="M512 270a220.89 220.89 0 0 1 44.38 4.65l-11.52 42.89a172.08 172.08 0 0 0-65.66 0l-11.57-42.89A220.8 220.8 0 0 1 512 270Zm65.66 10.41a211.72 211.72 0 0 1 76.76 44.38l-31.36 31.36a168.12 168.12 0 0 0-56.94-32.94Zm92.37 60a211 211 0 0 1 44.38 76.82l-42.81 11.44a170.1 170.1 0 0 0-32.92-56.9Zm50 98a214.24 214.24 0 0 1 0 88.76l-42.82-11.55a172 172 0 0 0 0-65.78Zm-5.65 110A211.9 211.9 0 0 1 670 625.24l-31.36-31.36A168.26 168.26 0 0 0 671.51 537Zm-60 92.37a215.2 215.2 0 0 1-76.75 44.38l-11.55-42.91a166.68 166.68 0 0 0 56.94-32.94Zm-98 50a214.24 214.24 0 0 1-88.76 0L479.18 648a165.62 165.62 0 0 0 65.66 0Zm-110-5.65a213.59 213.59 0 0 1-76.76-44.38L401 609.38a166.85 166.85 0 0 0 56.95 32.94Zm-92.39-60a211.72 211.72 0 0 1-44.38-76.75l42.82-11.55a170 170 0 0 0 32.94 56.94Zm-50-98a214.24 214.24 0 0 1 0-88.76l42.82 11.43a172.67 172.67 0 0 0 0 65.78Zm5.65-110A212.24 212.24 0 0 1 354 340.35l31.36 31.48a167.49 167.49 0 0 0-32.83 56.83Zm60-92.37a211.77 211.77 0 0 1 76.82-44.38l11.55 42.82a168.3 168.3 0 0 0-57 32.92Zm125.54 11.32c35.1-4.08 71.67 4.75 100.65 25 39.28 26.72 64.53 73.24 63.74 120.9 1.13 46.75-22.76 92.83-60.56 120a146.22 146.22 0 0 1-60.69 25.82c-12.23 2.61-24.67 2.15-36.9 1.93-44.61-2.95-86.9-27.86-111.63-65a146.77 146.77 0 0 1-6.07-154.4c22.67-40.53 65.28-69.06 111.47-74.26Zm6.3 43.93c-.11 8.94-.68 17.77-.45 26.6-17.32 0-34.64 0-52 .11.11 9.51 0 19 .11 28.52h20.16c.11 31.58 0 63.17.11 94.87h-20.35c-.11 9.51 0 18.89 0 28.42 17.32.23 34.63.11 51.85.11 1.13 8.82-.57 17.77.45 26.6h21.74c.11-8.82 0-17.77.23-26.6 15.39-.68 31.24-6.12 41.77-17.9 10.07-10.75 12.46-27.05 8.49-40.87-2.95-10.64-11.55-18.68-21.28-23.21 5.77-4.86 11.33-10.41 14-17.63 4.75-12.34 3.5-27.71-6-37.58-9.39-10.3-23.66-14-37-14.95-.23-8.82-.11-17.63-.11-26.45Zm1.26 55.24c8.26.34 17.09-1.26 25 1.93 10.19 4.31 8.71 20.38.11 25.59-7.56 4.41-16.75 2.93-25.19 3.27.1-10.3.1-20.6 0-30.79Zm.11 59.44c10 0 20.49-1.13 29.88 3 11.55 5.33 10.87 24.57-.45 29.67-9.28 4.18-19.7 2.37-29.43 2.71Zm-103.1 188c22.87 12.23 47.55 21.51 73.26 25.8a229.5 229.5 0 0 0 130.29-15.41c6.9-2.72 13.25-6.69 20.15-9.28-5.31 8.15-12.11 15.11-18.22 22.76-23.23 27.44-46.6 54.84-71.61 80.66-6.12 5.65-11.89 12-19.13 16.18-3.06 1.81-6-.91-8.39-2.52a217.27 217.27 0 0 1-19.7-18.32c-30.34-32-59-65.61-86.72-99.8Z" style="fill:#fff"/>
</svg>
