<svg xmlns="http://www.w3.org/2000/svg" viewBox="0 0 1024 1024">
   <circle cx="512" cy="512" r="512" style="fill:#76bc21"/>
   <path d="M232.37 428.37v-.6c0-21.77 21.78-21.77 21.78-21.77H467v59.68l-90.1 61.68ZM254.14 618H467V497.35l-84.34 57.5c-6 4.09-12 0-12 0l-138.29-95.16v136.54s0 21.77 21.78 21.77m488.47 0h49V481.89c0-58.33-30.88-75.89-77-75.89a162.14 162.14 0 0 0-60 11.43C646.83 412.57 634.76 406 606 406c-25.55 0-65.73 8.58-79.38 19v193h48.46V452.13c11.32-2.76 19-4.88 31.5-4.79 19.6.15 27.58 8.61 28.16 35.86V618h48.34l-.29-137.8c0-19.44-3.78-28.07-3.78-28.07 10-3.34 19.59-4.79 33.68-4.79 22.06 0 29.18 9.15 30 36.44Z" style="fill:#fff"/>
</svg>
