<svg xmlns="http://www.w3.org/2000/svg" viewBox="0 0 1024 1024">
   <circle cx="512" cy="512" r="512" style="fill:#3a7f3d"/>
   <path d="M377.36 296.56c-78.65 0-142.36 64-142.36 142.85v75.65c0 78.85 63.75 142.85 142.36 142.85H374L505.22 820V654.18l141.21 3.73h.21c78.65 0 142.36-64 142.36-142.85v-75.62c0-78.85-63.75-142.85-142.36-142.85H377.39Zm-.68 31.59h269.95c61.61 0 110.8 49.32 110.8 111.29v75.62c0 61.93-49.11 111.24-110.71 111.29l-173.06-4.57v109.08L389 626.35h-11.64c-61.61 0-110.8-49.32-110.8-111.29v-75.65c0-61.73 48.8-110.89 110.13-111.26Zm185.11 86.34q-16.16 0-26.51 9.28A30.14 30.14 0 0 0 525 447.13a35.66 35.66 0 0 0 2.57 13.75 31.93 31.93 0 0 0 7.43 10.78q4.89 4.47 18.81 11.52t18.48 12.6a18.78 18.78 0 0 1 4.47 11.85q0 13.26-19 13.26-12.34 0-25.1-8.95l-8 19.3a55.5 55.5 0 0 0 30.75 8.76q19.55 0 31.15-9.53t11.68-24.27a37.56 37.56 0 0 0-2.82-14.83 33.23 33.23 0 0 0-8.2-11.68q-5.39-5.05-17.56-11-23.12-11.28-23.11-21.69a13.48 13.48 0 0 1 4.06-10.19q4.14-4 11.6-4 12.59 0 23.94 8.12l6.55-18.56q-9.86-7.87-30.9-7.87Zm-243.49 2.07V538H339v-75.21l58.91 76.8h8.78v-123H386v73.24l-57.33-73.24H318.3Zm113.26 0v121.38h21.54v-55.51h42.67v-18.31h-42.68V435.7h58.41v-19.14h-80Zm185.75 0V538H638v-75.21l58.91 76.8h8.78v-123H685v73.24l-57.33-73.24h-10.36Z" style="fill:#fff"/>
</svg>
