<svg xmlns="http://www.w3.org/2000/svg" viewBox="0 0 1024 1024">
   <circle cx="512" cy="512" r="512" style="fill:#32aaa0"/>
   <path d="M745.1 580.5h12v20.3h-36.3V475.5h-10.9v-20.3h72c14.5 0 21.6 7.3 21.6 22.1v60.3c0 14.4-7.4 21.7-22.3 21.7h-22.1V539h13.4c4.9 0 7.4-2.5 7.4-7.8v-47.7c0-5.3-2.5-8-7.1-8h-27.6v105zm-45.9-21.3h-66.8c-14.5 0-21.8-7.3-21.8-21.9v-64.1h-10.7v-18h34.8v75.1c0 5.7 2.7 8.7 7.8 8.7H664v-83.8h24.1V539h11.1v20.2zm-115.2 0h-74.6v-67.3c0-24.4 12.9-36.8 39-36.8h35.9V490h-20.7v-14.6h-16.9c-8.9 0-13.4 5-13.4 14.8v48.6H584v20.4zm-93 0h-26.5c-11.8 0-17.6-6.4-17.6-18.9v-64.8h-13.4v-20.3h13.4v-31.9h23.8v31.9h20.1v20.3h-20.1v56.1c0 5.2 2.9 7.8 8.5 7.5h6.5c1.8 0 3.6 0 5.4-.2l-.1 20.3zm-70.9-39.9h-53.7v13.5c0 4.1 2 6.2 5.8 6.2h45.2v20.3h-54.6c-13.4 0-20.1-6.6-20.1-20.1v-61.4c0-15.1 7.8-22.6 23.2-22.6h32.5c14.3 0 21.4 7.1 21.6 21.5v42.6zm-53.7-20.1h30.3v-17.1c0-4.3-2-6.6-6-6.6h-17.8c-4.2 0-6.5 2.5-6.5 7.5v16.2zm-78.6 60v-77.8c0-3.9-2.2-5.9-6.7-5.9h-25.4v83.7h-24.1v-83.7h-11.1v-20.3H292c13.2 0 19.8 6.9 19.8 20.8v63H323v20.3h-35.2z" style="fill:#fff"/>
</svg>
