<svg xmlns="http://www.w3.org/2000/svg" viewBox="0 0 1024 1024">
   <circle cx="512" cy="512" r="512" style="fill:#ef7c29"/>
   <path d="m490.63 383.37.66.42c-36.59 14.95-73.54 45.34-94 77.69-26.41 38.28-46.76 134.89 39.36 179.86a119.71 119.71 0 0 1-53.65 10 104.19 104.19 0 0 1-51.55-15.91c-54.04-34.15-66.45-111.54-27.74-172.87 28.93-45.81 88.77-86.43 139.75-89.8q3.24-.21 6.42-.23c14.86-.05 28.79 3.28 40.75 10.84Zm-140.41-10c-52.36-.1-116.43 42.11-146.68 90-38.74 61.34-26.31 138.72 27.77 172.88 31.12 19.65 69.25 20.68 103.4 6.32a103.06 103.06 0 0 1-13.27-7.08c-54.08-34.12-66.49-111.49-27.78-172.84 20.86-33 57.8-63.36 95.89-79-11.62-7.05-25.04-10.23-39.33-10.26Zm157.08 123q-2.79 0-3.85 1.71c-.73 1.14-1.74 4.2-3 9.14l-1.67 6.46 7.73-.05 1.67-6.45c1.19-4.58 1.69-7.52 1.54-8.84a2.06 2.06 0 0 0-2.41-1.9Zm127.19-11.52c-1.71 35.51-12.62 72.64-30.12 100.36-27.38 43.35-73 67-116.46 65.19a104.3 104.3 0 0 1-51.56-15.93C413 619.83 397.5 597.07 390.43 571l23.87-.21 15.34-59.29q2.57-9.92 3.89-12.2a4.47 4.47 0 0 1 4.05-2.31c1.79 0 2.68.64 2.73 2s-.73 5-2.31 11l-15.72 60.76 26.65-.22 15.88-61.45q3-11.49 3-16.39a10.38 10.38 0 0 0-3.46-8.13c-2.33-2.13-5.77-3.16-10.3-3.13a22.65 22.65 0 0 0-10.26 2.47 30.08 30.08 0 0 0-8.94 7.29l2.64-8.07-27.19.23-21.26 82.2c-7.36-33.1-1.38-70.82 19.5-103.89 28.94-45.82 88.79-86.43 139.76-89.8 17.24-1.15 33.48 2 47.14 10.62 28.83 18.19 40.45 57.2 39.15 99l-21.6.17q-12 28.24-19.13 50.48l7.52-50.38-21.71.19q-17.21 45.45-19.12 50.47 6.69-47 7.16-50.38l-22.71.17-11.42 87.61 28.62-.26 7.68-19.12q5-11.76 9.4-23.49-3.65 26.48-5.48 42.53l28.63-.26Zm-102 31.1c2.21-8.51 2.91-15.09 2.18-19.77a16.14 16.14 0 0 0-7.28-11.2c-4.12-2.78-9.91-4.16-17.37-4.09a42.28 42.28 0 0 0-17.08 3.67 31.36 31.36 0 0 0-12.77 10.25q-4.82 6.67-7.78 18.15l-6.63 25.56c-1.68 6.51-2.52 11.47-2.47 14.88a18.68 18.68 0 0 0 2.56 9.32q2.47 4.25 8.31 6.63a36.54 36.54 0 0 0 14.21 2.3 41.87 41.87 0 0 0 15.1-2.58 33.89 33.89 0 0 0 11.42-7.51 36.35 36.35 0 0 0 7.18-9.36 68.32 68.32 0 0 0 4.25-12.5l1.68-6.4-25.31.21-3 11.59q-1.7 6.55-3.28 8.85a5.38 5.38 0 0 1-4.57 2.31c-1.61 0-2.54-.55-2.81-1.69s.12-3.69 1.15-7.67l4.91-19 34.37-.29Zm128.68-3.85 1.7-6.45c1.27-5 2.26-8 3-9.15s2-1.7 3.87-1.72a2.07 2.07 0 0 1 2.39 2c.16 1.32-.37 4.27-1.53 8.84l-1.67 6.45Zm30.69 13.9 3-11.63q3.29-12.74 2.18-19.76a16.17 16.17 0 0 0-7.29-11.2q-6.2-4.2-17.36-4.1a41.77 41.77 0 0 0-17.08 3.67 31.24 31.24 0 0 0-12.76 10.26c-3.2 4.44-5.82 10.5-7.8 18.16l-6.61 25.6c-1.69 6.53-2.51 11.48-2.46 14.89a18.7 18.7 0 0 0 2.55 9.33c1.64 2.83 4.41 5 8.3 6.61a36.54 36.54 0 0 0 14.2 2.33 42.36 42.36 0 0 0 15.12-2.6 33.84 33.84 0 0 0 11.42-7.52 37.16 37.16 0 0 0 7.18-9.36 66.58 66.58 0 0 0 4.24-12.49l1.69-6.47-25.31.21-3 11.58q-1.69 6.54-3.28 8.85a5.3 5.3 0 0 1-4.57 2.31c-1.62 0-2.55-.55-2.81-1.69s.13-3.69 1.14-7.68l4.91-19 34.36-.3m41.4 4.68c-1.29 5-2.39 8.19-3.29 9.61a4.48 4.48 0 0 1-4 2.13c-1.56 0-2.41-.55-2.59-1.73s.24-3.7 1.27-7.62l7.63-29.52c1-3.69 1.91-6.18 2.89-7.45a4.55 4.55 0 0 1 3.76-1.92c1.54 0 2.41.54 2.61 1.63s-.21 3.66-1.25 7.67ZM773 480.07l-24.8.22-3.62 6.71a15 15 0 0 0-5.82-6.1 17 17 0 0 0-8.57-2c-6.08.06-11.11 1.93-15 5.59s-7 9.68-9.16 18l-8.24 31.81q-2.32 8.7-1.79 13.4a10.47 10.47 0 0 0 4.41 7.57c2.6 1.9 6.31 2.84 11.09 2.81a24.29 24.29 0 0 0 8.39-1.66 36.08 36.08 0 0 0 8.43-4.78l-1.73 6.71c-1 3.83-2 6.36-3 7.58a5.51 5.51 0 0 1-4.5 1.85c-2.89 0-3.78-1.94-2.75-5.9l-25.85.23q-3 12.72 3.55 17t19.33 4.17a59.38 59.38 0 0 0 17.73-2.52 33.41 33.41 0 0 0 12.37-6.89c3.34-3 5.55-5.84 6.67-8.52s2.86-8.56 5.25-17.7L773 480.07m30.33 50.08q-1.94 7.48-3.31 9.6a4.39 4.39 0 0 1-4.02 2.15c-1.56 0-2.44-.56-2.59-1.72s.24-3.72 1.25-7.63l7.68-29.55c1-3.69 1.94-6.17 2.85-7.44a4.64 4.64 0 0 1 3.8-1.92c1.53 0 2.42.52 2.59 1.63s-.22 3.66-1.25 7.68ZM843 479.48l-24.77.21-3.61 6.68a14.87 14.87 0 0 0-5.8-6.09 16.9 16.9 0 0 0-8.57-2c-6.11 0-11.09 1.92-15.07 5.6s-7 9.67-9.16 18l-8.22 31.81c-1.49 5.82-2.07 10.28-1.71 13.42a10.46 10.46 0 0 0 4.41 7.58c2.6 1.9 6.28 2.81 11.09 2.79a23.52 23.52 0 0 0 8.37-1.66 35.14 35.14 0 0 0 8.43-4.77l-1.74 6.72c-1 3.83-2 6.35-3 7.58a5.5 5.5 0 0 1-4.5 1.85c-2.88 0-3.75-1.94-2.75-5.9l-25.85.21c-2 8.5-.84 14.15 3.58 17s10.81 4.24 19.31 4.15a58.91 58.91 0 0 0 17.73-2.48 33.79 33.79 0 0 0 12.39-6.92c3.34-3 5.53-5.83 6.65-8.49s2.88-8.56 5.23-17.7L843 479.48" style="fill:#fff"/>
</svg>
