<svg xmlns="http://www.w3.org/2000/svg" viewBox="0 0 1024 1024">
   <circle cx="512" cy="512" r="512"/>
   <path d="M560 256a4.1 4.1 0 0 1 4.44-2.79c1.51.36 2.08 2 2.41 3.36 5.15 23.23 7 47.35 3.82 71-1.72-11.05-3.43-22.1-5-33.17-.62-7.82-2.5-15.45-3.56-23.23-5.42 21.1-12.1 42.21-23.89 60.72-1.16 2.06-2.92 3.94-3.27 6.35q-5.24 64.4-10.47 128.76a38 38 0 0 1 19.71 20.37c27.79-29.27 54-60.27 76.15-94 50.76-9.71 96.92-33.84 144.43-53.09 13.58 13.23 26.88 26.79 39.19 41.23 3.87 4.9 8.31 9.55 10.73 15.39-17.21-16.15-34.16-32.59-51.36-48.77-32.64 12.88-61.69 33.32-94.45 46a205.93 205.93 0 0 1-35.95 10.37c-2.28.73-5.34.47-6.66 2.85-6.37 8.65-12.32 17.75-19.27 26.01-18.58 26.29-39.54 50.8-58.62 76.71q0 1.24.08 2.52c23.36-6.76 46.51-14.2 69.84-21.07 5.73-.6 11.53-.14 17.3-.41 3.27-.36 5.81 2.1 8.6 3.38 24.09 12.72 51 18.75 77.53 23.82 5.24 1.22 10.67 1.64 15.86 3.18 3.45 2.18 7.2 4.27 9.51 7.75 11.51 15.49 22.57 32.27 26 51.6-6.47-14.72-16.06-27.85-27.2-39.39-2.24-2.14-4.07-5-7.22-5.88-33-12.49-67.71-19.13-102.05-26.61-6.13-1.19-12.13-3.15-18.38-3.6-4.77 1.18-9.18 3.38-13.76 5.1-21.18 8-42.34 16.06-63.58 23.86-1.74.53-1.79 2.66-2.53 4.07 11.2 1 22.47 1.65 33.49 4 .89.33 2.53.26 2.45 1.67 3.36 15 10.73 28.76 18.6 41.86 6.31 10.58 13.52 20.58 20.07 31 2.05 3.49 4.42 7 5.22 11l-1.39 2.2a164.73 164.73 0 0 1 13.59 52.53 75 75 0 0 0 1.6 10.92 13.13 13.13 0 0 1-1.59-2.68l-.06-.82c-.29-4.43-1.77-8.65-2.73-13-3.63-13.17-7.48-26.6-14.92-38.2-.74-1.94-3.36-1-4.34-2.72-8.23-10.17-13-22.5-19-34-7.79-15.27-15-31-25.43-44.75-10-3.19-20-6.19-30-9.42Q533 550 532.26 552c4.09 1.58 8.26 2.94 12.4 4.41-4 19.57-6.88 39.33-10.63 58.94-2 9.71-3.7 19.55-7.09 28.9-1 2.52-2.07 5.43-4.85 6.44-6.55 16.78-13.81 33.27-21 49.75-8.68 19.69-17.52 39.33-27 58.65-2.39 4.7-4.63 9.52-7.71 13.82 14-40.31 31.57-79.31 45.76-119.57-2-6.11.17-12.46 1.67-18.42 7.39-24.61 18.33-48 26.08-72.47-3.66-1.53-7.26-3.17-11-4.39-6.67 8.32-10.79 18.39-18.1 26.21-4.35 4.8-8.77 9.66-14.29 13.16-9.55 6.65-19.95 11.93-30.42 17-10.6 4.73-22.07 8.41-33.82 7.85-9.36-.8-19.11-4.26-25-11.92-9.16-11.59-12.9-26.38-14.91-40.75-2.94-3.87-6.29-7.63-7.69-12.42a29.2 29.2 0 0 1 5.68-28.52c1.79-2.26 4.3-3.75 6.33-5.76a93.22 93.22 0 0 1 21.57-33.45c-12.49-8.78-24.22-18.93-38.1-25.53-17.72 10.37-34.08 22.82-50.93 34.51-22.29 15.9-45.24 31.52-71.08 41.09-2.32.36-2.14 2.85-2.3 4.63-.67 18.32-2.41 36.57-3.3 54.86-.68 6.92-.27 14-1.93 20.77-.93 3.26-3.05 6-5.06 8.65-.4-16.84.67-33.67.86-50.51 1.19-19.68 1.52-39.5 4.7-59 15.23-5.28 30.32-11 44.78-18.19 27.82-13.2 52.85-31.34 77.52-49.58 6.44-.37 12.7 1.64 18.54 4.17 8.41 3.52 16 8.55 23.71 13.38 4.7 2.91 8.91 6.64 14 8.91 1.67-.8 2.88-2.31 4.3-3.46-13.09-11.8-27.19-22.51-39.4-35.27-2.65-2.54-4.88-5.52-7.74-7.84-16.67-12.64-33-25.88-51.39-36-2.46-1-5.2-.84-7.8-1.16-14.71-1.63-29.24-4.52-44-6-4.26-.26-8.4-1.55-12.69-1.33a14 14 0 0 1-11.08-4.76c12 .52 23.91 2.13 35.89 2.87 13.59 1.37 27.27 2 40.85 3.58 13 6.8 25.06 15.13 37.66 22.6 10.23 5.89 20.36 12.2 31.59 16a31.08 31.08 0 0 0 7.18 1.6c7.78 8.94 14.47 19 23.85 26.39a21.57 21.57 0 0 1 7.74 11.86c9.14-5.67 20.12-6.54 30.61-7-5.65-25.46-12.1-50.75-18.71-76-.66-2.26-2.55-3.85-3.87-5.72-13.13-17.24-21.37-37.45-30.55-56.9A223.33 223.33 0 0 1 405.75 297c-1.22-2.27-2.63-4.6-2.71-7.25 8.09 8.38 17.48 15.35 25.73 23.57 2.66 2.61 4.37 6 6.34 9.09 8.46 14.28 15.62 29.27 24 43.6 1.43 2.57 3.3 4.92 4.35 7.7 8.73 29.1 19.69 57.48 29.4 86.27a154.28 154.28 0 0 1 16.59 2.35c5.83-42 10.59-84.18 16.81-126.14 1.56-5.24 4.91-9.76 7-14.82 10.19-21.23 17.45-43.74 26.74-65.37ZM406.24 521.08a27.54 27.54 0 0 0-12.87 6.92c-9.43 8.57-11.29 24-4.19 34.53 7 11.44 22.93 16 34.88 9.88 11.67-5.39 18.2-19.62 14.48-32-3.54-13.58-18.6-22.74-32.3-19.33Zm62 10a27.52 27.52 0 0 0-12.9 6.94c-9.38 8.58-11.23 23.91-4.16 34.48 7 11.44 22.93 16 34.88 9.9 11.68-5.39 18.21-19.64 14.48-32-3.54-13.55-18.63-22.71-32.32-19.28Zm-43.8.74c6.2-2.47 13.22 4.07 11.18 10.43-1.39 6.25-10.22 8.59-14.51 3.84-4.52-4.09-2.58-12.51 3.31-14.24Zm5.42 6.33a2.74 2.74 0 1 0 4 1.39 2.73 2.73 0 0 0-4.01-1.36Zm55.63 5.54c6.21-2.5 13.26 4 11.21 10.4-1.38 6.23-10.14 8.59-14.45 3.9-4.57-4.08-2.67-12.52 3.22-14.26Zm5.37 6.37a2.75 2.75 0 0 0 0 4.5c1.7 1.33 4.3-.18 4.29-2.25a2.78 2.78 0 0 0-4.31-2.21Z" style="fill:#fff"/>
</svg>
