<svg xmlns="http://www.w3.org/2000/svg" viewBox="0 0 1024 1024">
   <circle cx="512" cy="512" r="512"/>
   <path d="M714.53 390.14a158.21 158.21 0 0 0-62.25-30.47 202.55 202.55 0 0 0-39.66-5c-10-.26-20-.26-29.91-.26H441.53c-10 0-20 0-29.94.26a202.89 202.89 0 0 0-39.81 5 158.29 158.29 0 0 0-62.21 30.47 156 156 0 0 0 0 243.71 158.29 158.29 0 0 0 62.21 30.47 202.83 202.83 0 0 0 39.67 5c10 .27 20 .27 29.94.27h141.2c10 0 20 0 29.94-.27a202.52 202.52 0 0 0 39.65-5 158.19 158.19 0 0 0 62.25-30.47 156 156 0 0 0 0-243.71zm-68.86 164.13a56.45 56.45 0 0 1-23.1 8.93c-8.4 1.33-16.55 1.05-25 1.05H426.44c-8.4 0-16.55.27-25-1.05a56.6 56.6 0 0 1-23.12-8.93A51.7 51.7 0 0 1 356 512a51 51 0 0 1 22.32-42.29 56.83 56.83 0 0 1 23.12-8.93c8.4-1.31 16.55-1 25-1h171.22c8.4 0 16.55-.27 25 1a56.68 56.68 0 0 1 23.05 8.93A51.73 51.73 0 0 1 668 512a51 51 0 0 1-22.34 42.27z" style="fill:#fff"/>
</svg>
