<svg xmlns="http://www.w3.org/2000/svg" viewBox="0 0 1024 1024">
   <circle cx="512" cy="512" r="512" style="fill:#ff69ad"/>
   <path d="M747.95 343.31A171.76 171.76 0 0 0 512 336.73 171.75 171.75 0 0 0 276.05 586.2l114.5 114.5a171.75 171.75 0 0 0 242.89 0l114.5-114.5a171.75 171.75 0 0 0 .01-242.89ZM363.47 546A67.51 67.51 0 1 1 431 478.5a67.51 67.51 0 0 1-67.53 67.5Zm84.33-108a16.94 16.94 0 1 1 16.94 16.94A17 17 0 0 1 447.8 438Zm116.31 57a61.12 61.12 0 0 1-104.23 0 5.72 5.72 0 1 1 9.76-6 49.67 49.67 0 0 0 84.7 0 5.72 5.72 0 0 1 9.76 6Zm-4.86-40.08A16.94 16.94 0 1 1 576.2 438a17 17 0 0 1-16.94 16.94ZM660.53 546A67.51 67.51 0 1 1 728 478.5a67.51 67.51 0 0 1-67.47 67.5Z" style="fill:#fff"/>
</svg>
