<svg xmlns="http://www.w3.org/2000/svg" viewBox="0 0 1024 1024">
   <circle cx="512" cy="512" r="512" style="fill:#ee2f5a"/>
   <path d="M598.2 275.16c-130.59-47.53-275.51 20-323 150.64s20 275.51 150.63 323 275.52-20 323.05-150.64-20.05-275.51-150.64-323zM512 789.5C359 789.5 234.5 665 234.5 512S359 234.5 512 234.5 789.5 359 789.5 512 665 789.5 512 789.5zM689.41 512 441.06 368.61v64.27l-57.09-33v224.2l57.09-33v64.27zM464.83 409.78 641.87 512l-177 102.22v-36.83L578.09 512l-113.26-65.4zm0 140.16v-75.89L530.54 512zm-57.09 33V441.09l33.32 19.24v103.34z" style="fill:#fff"/>
</svg>
