<svg xmlns="http://www.w3.org/2000/svg" viewBox="0 0 1024 1024">
   <circle cx="512" cy="512" r="512" style="fill:#4231c8"/>
   <path d="m566 399.2-43.73-25.51a29.33 29.33 0 0 0-26.38 0l-43.76 25.51c-9.37 5.55-9.54 14.58 0 20l43.73 25.8a28.29 28.29 0 0 0 26.38 0L566 419.15a10.55 10.55 0 0 0 6.61-13.4 10.42 10.42 0 0 0-6.61-6.55Zm170.59-31.58-211.4-121.49a29.33 29.33 0 0 0-26.38 0L287.44 367.61a29.68 29.68 0 0 0-13.19 22.91v243a29.68 29.68 0 0 0 13.19 22.91l211.37 121.44a29.33 29.33 0 0 0 26.38 0l211.37-121.48a29.68 29.68 0 0 0 13.19-22.91v-243a29.68 29.68 0 0 0-13.19-22.87ZM642.5 424l-120.26 70.82a28.29 28.29 0 0 1-26.38 0L419.5 450c-9.37-5.73-17.35-1.21-17.35 9.72V595.3a10.93 10.93 0 0 1-17.35 10.41l-13-6.77a28.11 28.11 0 0 1-13.54-22.56V429.22a29.68 29.68 0 0 1 13.19-22.91l124.26-72.19a29.33 29.33 0 0 1 26.38 0l120.26 69.42a10.59 10.59 0 0 1 .15 20.46Z" style="fill:#fff"/>
</svg>
