<svg xmlns="http://www.w3.org/2000/svg" viewBox="0 0 1024 1024">
   <circle cx="512" cy="512" r="512" style="fill:#13111c"/>
   <path d="M619.88 547.5H258.19c-.93-6.74-1.58-13.58-2-20.51H648c-3 11.35-12 20.51-28.12 20.51Zm-341.11 70.84Zm18.5 0h-18.56c40.41 88.43 129.46 149.94 233 149.94s192.54-61.54 233-149.94Zm214.46-362.62c-95.75 0-179.07 52.61-223.07 130.38C323 386 390 386 390 386c79.15 0 82.1.35 97.56 1l9.57.35c33.35 1.11 74.34 4.69 106.6 29.11 17.51 13.24 42.79 42.47 57.85 63.3 13.93 19.26 17.94 41.4 8.47 62.62-8.72 19.5-27.48 31.13-50.19 31.13H263.12a234.7 234.7 0 0 0 5.37 18.89H755a255.57 255.57 0 0 0 13-80.4c0-141.53-114.73-256.28-256.27-256.28ZM258.38 475.2Q256.55 488 256 501h388.9a46.46 46.46 0 0 0-5-7.39c-66.49-85.95-102.25-78.49-153.41-80.68-17.06-.7-28.62-1-96.52-1-36.27 0-75.7.09-114.1.19a254.84 254.84 0 0 0-12.36 37.09H462.8v26Z" style="fill:#fff"/>
</svg>
