<svg xmlns="http://www.w3.org/2000/svg" viewBox="0 0 1024 1024">
   <circle cx="512" cy="512" r="512" style="fill:#46e3b7"/>
   <path d="M589.49 273.66h-5.58v62.72h63v-62.72h-57.42Zm-166.7 0A149.06 149.06 0 0 0 273.66 422.8v224.12h63V422a89.74 89.74 0 0 1 86.41-85.3H543.5v-63H422.8ZM692.91 480.5h-5.58v63h63v-63h-57.42Zm0-103.42h-5.58v63h63v-63h-57.42Zm51.85-103.42h-57.42v62.72h63v-62.72Zm-51.85 310.26h-5.58v63h63v-63h-57.42Zm0 103.42h-5.58v63h63v-63h-57.42Zm-103.42 0h-5.58v63h63v-63h-57.42Zm-103.42 0h-5.57v63h63v-63h-57.42Zm-103.42 0h-5.58v63h63v-63h-57.41Zm-103.42 0h-5.58v63h62.72v-63h-57.13Z" style="fill:#fff"/>
</svg>
