<svg xmlns="http://www.w3.org/2000/svg" viewBox="0 0 1024 1024">
   <circle cx="512" cy="512" r="512" style="fill:#1998d5"/>
   <path d="M792.37 602.5a70.75 70.75 0 0 1-5.71 28.56 72.24 72.24 0 0 1-38.79 38.51 71.17 71.17 0 0 1-28.42 5.73 85.72 85.72 0 0 1-16.45-1.7 94 94 0 0 1-17.14-5.06 73.86 73.86 0 0 1-15.69-8.54 46.86 46.86 0 0 1-11.76-12 10.67 10.67 0 0 1-1.86-6.38 10.25 10.25 0 0 1 3.53-8 11.69 11.69 0 0 1 8-3.2 12.83 12.83 0 0 1 4.66.93 9.09 9.09 0 0 1 4.31 3.94 1.07 1.07 0 0 0 .37.74l1.48 1.51a41.89 41.89 0 0 0 18.51 11.76 70.8 70.8 0 0 0 21.88 3.57 49.18 49.18 0 0 0 19.63-3.94A50.78 50.78 0 0 0 765.86 622a49.06 49.06 0 0 0 4.08-19.51v-25.72a72.66 72.66 0 0 1-22.85 14.78 71.66 71.66 0 0 1-27.68 5.45 70.66 70.66 0 0 1-28.56-5.71 72.77 72.77 0 0 1-38.51-38.51 70.52 70.52 0 0 1-5.73-28.58v-59a70.94 70.94 0 0 1 5.73-28.42 73.17 73.17 0 0 1 15.5-23.2A74.28 74.28 0 0 1 690.72 398a73.07 73.07 0 0 1 57.14 0 72.62 72.62 0 0 1 44.4 67.11v137.37zm-22.43-137.33a49.13 49.13 0 0 0-3.94-19.62 50.63 50.63 0 0 0-93.21 0 49.5 49.5 0 0 0-3.9 19.6v58.71a49.48 49.48 0 0 0 3.9 19.79 50.9 50.9 0 0 0 10.86 16.08 50.36 50.36 0 0 0 16.1 10.83 50.5 50.5 0 0 0 66.16-26.91 49.11 49.11 0 0 0 4-19.79zM601.71 589.42a10.09 10.09 0 0 1-3.57 8.42 11.85 11.85 0 0 1-15.31 0 10.07 10.07 0 0 1-3.55-8.42V465.17a49.13 49.13 0 0 0-3.94-19.63 50.5 50.5 0 0 0-93.07 0 49.34 49.34 0 0 0-3.94 19.63v124.25a10.07 10.07 0 0 1-3.53 8.42 11.85 11.85 0 0 1-15.33 0 10.07 10.07 0 0 1-3.55-8.42V465.17a70.94 70.94 0 0 1 5.71-28.42 73.37 73.37 0 0 1 15.54-23.2A74.28 74.28 0 0 1 500 398a73.07 73.07 0 0 1 57.16 0 72.74 72.74 0 0 1 44.4 67.11zm-194.47 0a10.09 10.09 0 0 1-3.53 8.42 11.85 11.85 0 0 1-15.36 0 10.07 10.07 0 0 1-3.53-8.42V407.2a10.09 10.09 0 0 1 3.53-8.42 11.88 11.88 0 0 1 15.36 0 10.11 10.11 0 0 1 3.53 8.42zm-56-171a10.74 10.74 0 0 1-3.36 7.84 11.2 11.2 0 0 1-8.24 3.29 11.67 11.67 0 0 1-7.86-3.36l-.37-.39a3.46 3.46 0 0 0-.74-.56 2.85 2.85 0 0 1-.77-.58 44.08 44.08 0 0 0-28.77-10q-20.21 0-31.62 13.8t-11.41 39.27v121.66a10.09 10.09 0 0 1-3.55 8.42 11.7 11.7 0 0 1-15.31 0 10.07 10.07 0 0 1-3.55-8.42V467.77a101.19 101.19 0 0 1 4.15-29.32 70.38 70.38 0 0 1 12.29-23.92 59.06 59.06 0 0 1 20.37-16.38 64.1 64.1 0 0 1 28.56-6 71.45 71.45 0 0 1 24.67 4.85 59.69 59.69 0 0 1 21.67 13.45 11.13 11.13 0 0 1 3.78 8zm64-72.56A19.16 19.16 0 0 1 396.09 365a19.16 19.16 0 0 1-19.18-19.14A19.16 19.16 0 0 1 396 326.7a19.16 19.16 0 0 1 19.16 19.16z" style="fill:#fff"/>
</svg>
