<svg xmlns="http://www.w3.org/2000/svg" viewBox="0 0 1024 1024">
   <circle cx="512" cy="512" r="512" style="fill:#1937ff"/>
   <path d="M671.36 426.3h-19.65l.39-17.69h6.37c4.56 0 7.7 1.42 9.59 4.32 1.57 2.37 2.6 7.07 3.3 13.37ZM407.67 549.74c-3.85 0-6.84 3.14-8.88 9.43-2.12 6.6-3.14 15.25-3.14 25.71 0 10.22 1.1 18.87 3.22 25.71 2 6.53 5 9.83 8.81 9.83 3.93 0 6.92-3.22 9-9.67 2.12-6.76 3.22-15.57 3.22-26.1 0-11-.94-19.5-2.83-25.32-1.93-6.45-5.07-9.59-9.4-9.59ZM342.18 551h-.63v28.85c0 4.56.63 8 1.81 10.38s2.52 3.38 4.09 3.38 3.14-1.26 4.4-3.77a26.7 26.7 0 0 0 2-11.64c0-9.51-1-16.51-3.22-20.91-2-4.29-4.83-6.29-8.45-6.29Zm95.21-144.51c-4.25 0-7.47 3-9.67 9.2-2.36 6.53-3.62 15.1-3.62 25.55a77.3 77.3 0 0 0 3.62 25.47c2.36 6.45 5.5 9.59 9.67 9.59 4.32 0 7.55-3.07 9.83-9.43h.08c2.36-6.68 3.62-15.41 3.62-25.94 0-10.85-1.1-19.34-3.14-25.16-2.21-6.29-5.67-9.28-10.39-9.28ZM740 276.14v471.72H284V276.14ZM326 490.93h17.61v-82.32h21.86v82.32h17.69v-98.67H326Zm44.11 83.18a52.6 52.6 0 0 0-4.56-22.41 24.26 24.26 0 0 0-23.27-15.33h-16.45v98h15.72v-28.5c3 2.75 6.29 4.32 10 4.32 5.19 0 9.51-2.83 12.89-8.41 3.76-6.28 5.65-15.56 5.65-27.67Zm65.57 10.54c0-15.1-2.52-27.36-7.31-36.64-5-9.43-11.87-14.15-20.68-14.15-8.33 0-14.94 4.8-19.73 14.23-4.72 9.28-7.08 21.62-7.08 36.64 0 15.57 2.36 28.22 6.76 37.42 4.56 9.43 11.32 14.15 20 14.15 8.88 0 15.88-5 20.91-14.86 4.75-9.2 7.11-21.62 7.11-36.79Zm1.63-91.65c10.06 0 18-5 23.59-14.94 5.27-9.36 7.86-21.78 7.86-37.11a73.17 73.17 0 0 0-8.1-36.79c-5.5-9.51-13.37-14.31-23.35-14.31q-14.15 0-22.17 14.39a75.33 75.33 0 0 0-7.86 36.87c0 15.65 2.52 28.3 7.47 37.58 5.19 9.49 12.73 14.31 22.56 14.31Zm58.1 127.13h-.79A27.61 27.61 0 0 1 471.9 610a38.35 38.35 0 0 1-7.55-24.61c0-10.22 2.36-18.48 7.23-24.53 5.19-6.6 12.89-10 22.8-10h.79v-17.08h-.79c-15.49 0-27.52 5-35.62 14.94-7.31 8.88-11.09 21.23-11.09 36.87 0 15.1 4.09 27.44 12 36.79a43.76 43.76 0 0 0 34.91 14.86h.79Zm.31-183.34a26 26 0 0 0 17.69 6.53h12.82v47.64h17.69v-98.7h-17.69v34.36h-9.51c-3.93 0-6.92-.94-8.81-2.75a6.92 6.92 0 0 1-2-5.35v-26.26h-17.65v28.15a20.89 20.89 0 0 0 7.47 16.35Zm58.89 183.31h-.79A27.62 27.62 0 0 1 531 610a38.35 38.35 0 0 1-7.55-24.61c0-10.22 2.44-18.48 7.23-24.53 5.19-6.6 12.89-10 22.8-10h.79v-17.08h-.79c-15.49 0-27.52 5-35.54 14.94-7.39 8.88-11.16 21.23-11.16 36.87 0 15.1 4.09 27.44 12.11 36.79a43.76 43.76 0 0 0 34.91 14.86h.79Zm10.46-211.49h14.62v82.32h17.61v-82.32h14.94v-16.35h-47.17Zm60.3 225.64-3.77-102.83-1.26 1.42L585 570.65v-34.51h-15.37v98.12H585V594l22.41-24.37 2.2 64.63Zm6.68-143.33h17.61l1.73-48.19h21.94l5 48.19h17.77l-8.1-72.16c0-9.43-2.83-16.51-8.41-21.07a28.16 28.16 0 0 0-18.08-5.5H635.2Zm67 143.33-3.79-102.75-.08-.08-1.26 1.42-35.3 37.82v-34.52H643.3v98.12h15.41V594l22.41-24.37 2.2 64.63Z" style="fill:#fff"/>
</svg>
