<svg xmlns="http://www.w3.org/2000/svg" viewBox="0 0 1024 1024">
   <circle cx="512" cy="512" r="512" style="fill:#034ea2"/>
   <path d="m321.78 465.77 16 90.2h-24.66l-10.23-70.24h-2.45L290.21 556h-24.63l16-90.2zM438.56 556h23l-3.69-90.2H419.3l-6.81 49.84h-2l-6.81-49.84h-38.57l-3.69 90.2h23l1.14-67.83h2.27L399.37 556h24.22l11.57-67.83h2.27l1.13 67.83zm141.61-19.9v1.53l.13 1.48.22 1.43.31 1.38.39 1.34.47 1.28.55 1.24.62 1.19.69 1.14.76 1.09.83 1 .89 1 .95.95 1 .9 1.06.85 1.11.8 1.15.75 1.2.7 1.24.66 1.28.61 1.31.56 1.35.51 1.37.46 1.4.42 1.43.37 1.45.32 2.94.49 3 .3 3 .11 3-.09 3-.28 2.94-.47 1.45-.31 1.42-.36 1.41-.41 1.37-.45 1.35-.5 1.32-.55 1.28-.6 1.24-.64 1.2-.69 1.15-.74 1.11-.79 1.06-.84 1-.89.95-.93.89-1 .83-1 .76-1.08.69-1.13.63-1.18.55-1.22.47-1.27.39-1.32.31-1.36.22-1.41.14-1.46v-72.22h-25.2v70.58l-.06.35-.14.3-.09.34-.11.33-.13.32-.15.32-.16.31-.17.3-.19.29-.2.28-.22.27-.23.26-.24.25-.25.23-.26.22-.28.2-.29.19-.29.18-.31.16-.31.15-.33.13-.33.12-.34.1-.35.08-.35.07h-2.15l-.35-.07-.35-.08-.34-.1-.33-.12-.32-.13-.31-.15-.31-.16-.3-.18-.29-.19-.27-.2-.27-.22-.25-.23-.24-.25-.23-.26-.21-.27-.2-.28-.19-.29-.17-.3-.16-.31-.18-.31-.13-.32-.11-.33-.1-.34-.08-.35-.06-.35v-70.54H580.1l.08 70.3zM752 465.77h-21.91v56.42h-.52L704 465.77h-27V556h21.93v-52.7h.52l23.92 52.7H752v-90.2zM488.39 538.2v1.21l.07.6.09.58.11.58.13.57.15.56.17.55.19.54.21.53.22.52.25.51.26.51.28.49.61 1 .68.92.74.89.8.85.86.82.91.78 1 .74 1 .7 1.06.66 1.11.62 1.15.59 1.19.55 1.23.51 2.56.9 2.68.74 2.77.58 2.84.43 2.89.27 2.92.11 2.92-.06 2.91-.22 2.87-.38 2.81-.55 2.74-.72 1.33-.42 1.3-.46 1.27-.51 1.24-.55 1.2-.59 1.16-.64 1.12-.68 1.08-.72 1-.76 1-.81.93-.85.87-.9.82-.94.76-1 .69-1 .63-1.07.56-1.12.49-1.16.41-1.2.37-1.3.26-1.29.17-1.34.28-3.51.11-3.24-.06-3-.22-2.74-.17-1.28-.2-1.23-.24-1.17-.28-1.12-.31-1.07-.34-1-.37-1-.4-.93-.43-.88-.46-.84-.49-.8-.51-.76-.54-.73-.56-.69-.59-.66-.61-.63-.63-.6-.65-.57-.67-.54-.69-.52-1.43-1-1.48-.9-1.54-.84-1.58-.79-3.26-1.49-6.69-3-1.66-.85-1.64-.91-1.61-1-1.51-1.02-1.52-1.19-1.48-1.31-.71-.7-.7-.74-.67-.78-.66-.82-.33-.69-.27-.67-.22-.65-.17-.62-.13-.6-.08-.57v-2.31l.06-.23.06-.22.08-.22.08-.21.09-.21.09-.2.1-.2.1-.19.11-.18.12-.18.12-.17.26-.33.28-.31.29-.29.31-.27.32-.25.33-.23.34-.21.34-.18.46-.13.35-.14.34-.12.34-.1.33-.08.33-.06h1.45l.78.06.72.09.66.12.61.15.28.09.27.09.26.1.25.11.24.12.22.12.21.13.2.14.19.14.18.15.17.15.16.16.15.17.14.17.13.18.12.19.11.19.11.2.1.2.09.21.08.22.08.22.13.46.1.48.08.5.06.52.07 1.09v1.16l-.2 5.23h23v-13.53l-.05-.48-.07-.48-.09-.47-.11-.46-.13-.46-.15-.45-.16-.45-.18-.44-.2-.43-.22-.43-.23-.42-.25-.42-.55-.81-.61-.79-.67-.76-.72-.73-.78-.71-.83-.68-.88-.65-.93-.62-1-.6-1-.57-1.06-.54-2.22-1-2.35-.86-2.46-.74-2.55-.61-2.63-.48-2.68-.35-2.71-.21-2.72-.07-2.72.08-2.69.22-2.64.37-2.58.53-2.5.68-1.21.4-1.18.44-1.15.48-1.12.52-1.08.57-1 .61-1 .65-1 .69-.91.74-.87.78-.82.82-.77.87-.71.91-.65 1-.59 1-.53 1-.47 1.09-.4 1.14-.33 1.19-.25 1.23-.25 1.67-.19 1.82-.12 1.94v4.1l.12 2.14.21 2.16.31 2.15.42 2.11.53 2 .31 1 .34 1 .37.93.41.9.44.87.48.83.51.79.55.74.58.69.31.33.32.31.33.3.33.28.34.27.36.25 2.41 2 2.38 1.73 2.34 1.53 2.29 1.36 4.37 2.29 4 1.91 3.6 1.73 1.61.86 1.47.9.68.47.64.48.6.51.56.53.52.56.24.29.23.3.22.31.2.32.2.33.18.34.34.71.29.69.24.68.19.66.14.64.1.63.06.61v1.16l-.06.55-.09.53-.13.51-.16.49-.19.47-.21.45-.24.42-.26.4-.28.38-.3.35-.31.33-.33.3-.34.28-.35.25-.36.23-.37.2-.38.17-.37.14-.37.12h-1.46l-.81-.06-.75-.1-.69-.13-.64-.16-.3-.09-.29-.1-.27-.11-.27-.12-.25-.13-.24-.13-.23-.14-.22-.15-.21-.16-.2-.17-.19-.17-.17-.18-.17-.18-.16-.19-.14-.2-.14-.2-.13-.21-.12-.22-.11-.22-.11-.23-.1-.23-.09-.24-.16-.49-.13-.51-.11-.53-.09-.55-.06-.57-.08-1.18v-1.24l.17-5.39h-25.23v12.08zm-278.05-76.14-3.92.25-3.6.47-1.68.31-1.6.36-1.53.41-1.45.45-1.38.5-1.31.54-1.24.58-1.17.62-1.1.66-1 .69-1 .73-.91.76-.85.79-.79.82-.73.84-.68.87-.62.89-.57.91-.52.93-.46 1-.42 1-.37 1-.32 1-.28 1-.23 1-.19 1-.15 1-.11 1-.11 2.08v2.08l.15 2.06.27 2 .37 2 .46 1.93.54 1.86.61 1.77.67 1.67.71 1.56.75 1.44.77 1.29.78 1.14.39.51.39.47.38.42.38.37.37.32.18.14.18.13 2.41 2 2.38 1.73 2.34 1.53 2.29 1.36 4.37 2.29 4 1.91 3.6 1.73 1.61.86 1.47.9.68.47.64.48.6.51.56.53.51.56.24.29.23.3.22.31.21.32.19.33.18.34.34.71.29.69.24.68.19.66.14.64.1.63.06.61v1.16l-.06.55-.09.53-.13.51-.16.49-.19.47-.21.45-.24.42-.26.4-.28.38-.3.35-.31.33-.33.3-.34.28-.35.25-.36.23-.37.2-.37.17-.37.14-.38.12H212l-.81-.06-.75-.1-.7-.13-.64-.16-.3-.09-.29-.1-.28-.11-.26-.12-.25-.13-.24-.13-.23-.14-.22-.15-.21-.16-.2-.17-.19-.17-.18-.18-.17-.18-.16-.19-.15-.2-.14-.2-.13-.21-.12-.22-.11-.22-.1-.23-.17-.03-.09-.24-.16-.49-.13-.51-.11-.53-.08-.55-.06-.57-.08-1.18v-1.24l.18-5.39h-25.22v13.11l.07.6.09.58.11.58.13.57.15.56.17.55.19.54.21.53.22.52.24.51.26.51.28.49.61 1 .68.92.74.89.8.85.86.82.91.78 1 .74 1 .7 1.07.66 1.11.62 1.15.59 1.19.55 1.23.51 2.56.9 2.67.74 2.77.58 2.84.43 2.89.27 2.92.11 2.92-.06 2.91-.22 2.87-.38 2.81-.55 2.73-.72 1.33-.42 1.3-.46 1.27-.51 1.24-.55 1.2-.59 1.16-.64 1.12-.68 1.08-.72 1-.76 1-.81.93-.85.87-.9.82-.94.76-1 .69-1 .63-1.07.56-1.12.49-1.16.41-1.2.34-1.25.26-1.29.18-1.34.28-3.51.11-3.24-.06-3-.22-2.74-.17-1.28-.2-1.23-.24-1.17-.27-1.12-.31-1.07-.34-1-.37-1-.4-.93-.43-.88-.46-.84-.49-.8-.51-.76-.54-.73-.56-.69-.59-.66-.61-.63-.63-.6-.65-.57-.67-.54-.69-.52-1.43-1-1.49-.9-1.54-.84-1.58-.79-3.19-1.47-6.69-3-1.66-.85-1.64-.91-1.61-1-1.57-1.08-1.53-1.19-1.47-1.31-.71-.7-.7-.74-.68-.78-.66-.82-.33-.69-.27-.67-.22-.65-.17-.62-.13-.6-.08-.57v-2.08l.05-.23.06-.23.07-.22.07-.22.08-.21.09-.21.09-.2.1-.2.11-.19.11-.18.12-.18.12-.17.26-.33.28-.31.3-.29.31-.27.32-.25.33-.23.34-.21.34-.18.35-.16.35-.14.34-.12.34-.1.33-.08.33-.06h1.46l.78.06.72.09.66.12.61.15.29.09.27.09.26.1.25.11.24.12.22.12.21.13.2.14.19.14.18.15.17.15.16.16.15.17.14.17.13.18.12.19.12.19.11.2.1.2.09.21.08.22.07.22.13.46.1.48.08.5.06.52.07 1.09v1.16l-.2 5.23h23v-13.85l-.07-.64-.09-.63-.12-.61-.14-.6-.17-.58-.19-.56-.21-.55-.23-.54-.25-.52-.27-.51-.29-.49-.31-.48-.33-.47-.35-.45-.37-.44-.39-.43-.4-.41-.42-.4-.89-.76-.95-.71-1-.67-1.05-.62-1.1-.57-1.14-.53-1.18-.49-1.22-.45-2.52-.78-2.6-.63-2.65-.5-2.67-.38-2.66-.27-5.13-.24zm605.76 99.82 2.88.07 2.68-.05 2.49-.17 2.31-.28 2.13-.38 2-.48.92-.27.88-.3.84-.32.8-.34.76-.36.73-.38.69-.4.66-.42.62-.43.59-.45.56-.46.52-.48.5-.5.47-.51.44-.52.41-.53.38-.54.36-.55.33-.56.31-.57.28-.58.26-.58.46-1.19.38-1.21.31-1.22.25-1.23.19-1.23.13-1.23.09-1.22.08-2.38v-2.27l-.06-4v-24.59h-29.78v13.08H821v16.45l-.06.32-.07.32-.09.31-.1.3-.12.3-.13.29-.14.28-.16.27-.17.26-.18.26-.19.25-.2.23-.21.23-.23.21-.24.2-.25.19-.25.18-.26.17-.27.16-.28.14-.29.13-.3.12-.3.1-.31.09-.32.07-.32.05h-1.99l-.32-.05-.32-.07-.31-.09-.3-.1-.29-.12-.29-.13-.28-.14-.27-.16-.27-.17-.25-.18-.25-.19-.23-.2-.23-.21-.22-.23-.2-.23-.19-.25-.18-.26-.17-.26-.16-.27-.14-.28-.13-.29-.11-.3-.1-.3-.09-.31-.07-.32-.06-.32v-52.31l.06-.32.07-.31.09-.31.1-.3.12-.3.13-.29.14-.28.16-.27.17-.26.18-.25.19-.25.2-.23.22-.23.23-.21.23-.21.25-.19.25-.18.27-.17.27-.16.28-.14.25-.13.29-.12.3-.1.31-.09.32-.07.32-.06h1.99l.32.06.32.07.31.09.3.1.3.12.29.13.28.14.27.16.26.17.25.18.25.19.24.21.23.21.21.23.2.23.19.25.18.25.17.26.16.27.14.28.13.29.12.3.1.3.09.31.07.31.06.32v9.31h23.67v-11.6l-.06-.63-.08-.62-.1-.61-.12-.6-.14-.59-.14-.65-.17-.57-.2-.56-.21-.55-.23-.54-.25-.53-.27-.52-.59-1-.66-1-.72-.93-.78-.89-.84-.85-.9-.81-1-.76-1-.72-1-.68-1.09-.64-1.13-.6-1.17-.56-1.21-.52-1.24-.48-1.27-.44-2.63-.75-2.72-.58-2.78-.42-2.83-.26-2.85-.09-2.85.07-2.83.24-2.78.4-2.72.56-2.63.73-1.27.43-1.24.47-1.21.51-1.17.55-1.13.59-1.09.63-1 .67-1 .71-1 .75-.9.79-.84.83-.78.87-.72.92-.66 1-.59 1-.27.51-.25.52-.33.5-.22.54-.19.55-.18.56-.15.57-.14.58-.12.6-.1.61-.08.61-.06.63v59.64l.06.81.1.79.12.77.14.74.17.72.2.7.22.68.25.66.27.64.29.62.32.6.34.58.36.56.38.54.4.52.42.51.43.49.45.47.47.45.48.43 1 .82 1.07.75 1.12.69 1.17.63 1.21.57 1.25.52 1.28.47 1.31.41 1.33.37 2.7.59 2.72.43 2.7.28 2.63.15h4.91z" style="fill:#fff"/>
</svg>
