<svg xmlns="http://www.w3.org/2000/svg" viewBox="0 0 1024 1024">
   <circle cx="512" cy="512" r="512" style="fill:#cc2127"/>
   <path d="M520.32 468.37a29.79 29.79 0 1 1 29.79-29.79 29.78 29.78 0 0 1-29.79 29.79zm17.83 69.45c-1.5 12.31-9.7 13.87-9.7 13.87l-18.33 6.94c-5.35-20.8 2.88-27.4 2.88-27.4l26.65-5.73zm-83.54-45.58a20.85 20.85 0 1 1 20.85-20.85 20.85 20.85 0 0 1-20.85 20.85zm-47.53 11.6a8.72 8.72 0 1 1 8.72-8.72 8.72 8.72 0 0 1-8.72 8.72zm-37.81-45.68a10.34 10.34 0 1 1 4.58-13.89 10.34 10.34 0 0 1-4.58 13.89zm-22.8 10.21a9.2 9.2 0 1 1 4.07-12.37 9.2 9.2 0 0 1-4.07 12.37zM323.41 478a7.45 7.45 0 1 1 3.3-10 7.45 7.45 0 0 1-3.3 10zm451-174.89h-.2c-.06 0 0-.09-.07-.1a14.22 14.22 0 0 0-15.92 6.47 11.36 11.36 0 0 0-1.22 7.22l-21.31 8.55-.07-.13-.87-1.5c-7.44-12.62-16.25-22.55-21.45-20.31a4.74 4.74 0 0 0-2.54 3.54c-1.15 4.82.82 13.81 5.1 24.06-9.21-15.59-20.36-28.33-26.67-25.61-1.46.63-2.49 2.06-3 4.23-1.46 6.07 1.1 17.52 6.62 30.57-6.92-10.86-14.57-18.77-19.26-16.75a4.73 4.73 0 0 0-2.53 3.54c-1 4.29.43 11.91 3.8 20.78.2.53.41 1.06.62 1.6 0 0-17.91 7.35-27.39 11.15l-1.12.45c-5.33-9.38-12.46-19.19-21.61-22.74a2.89 2.89 0 0 0-3.05 1.46L617 354.42a83.58 83.58 0 0 0-13-6.31c-25.66-9.74-54.11-6.22-79.39 3-41.54 15.08-77.44 44.48-110.72 72.79l-.91.8c-6.24-5.59-26.81-19.8-58.48.41-38.38 24.49-107 66.77-107 66.77s-9 6.44-4.06 14.89 15.91 3.54 15.91 3.54l49.45-12.73s25-8.4 36.91-4.88c-4.61 5.82-9.07 11.78-13.11 18-4.49 6.93-6.61 10.83-3.2 19.58v.09c1.66 3.38 3.35 6.73 5.08 10.07 0 0 .06 0 .08.05 4.55 7.27 8.51 8.44 16.13 9 4.9.35 9.82.45 14.74.45.37 3.21 1.44 8.42 4.56 8.41 4.49 0 27-7.53 25.3 32.35s-10.29 72.43-11.04 88.84-.62 44.62 42.19 41.66 58.62-30.2 61.94-36.36 1.73-19.49-9.32-27.41S468.6 641 472 636.61s6.06-15.28-5.25-25.77c-8.42-7.8-6.87-24.64 5.94-28.52S530 561.11 530 561.11s15.89-4.15 17.61-24.93c1.05-12.67 3.48-19.17 5.21-22.31a1.33 1.33 0 0 0-.84-1.93c1.83-.73 3.68-1.42 5.49-2.19l.4-.17c3.2-1.36 6.39-2.72 9.53-4.2 4.34-2 8.43-4.08 12.3-6.18l1-.56q7.1-3.89 13.21-7.94l.29-.17.17-.12 3-2.07.72-.08v-.39c.74-.53 1.52-1 2.24-1.57s1.59-1.11 2.36-1.7c1.12-.85 2.14-1.7 3.21-2.55 16.64-13.2 30.69-29.89 37.42-50.28a84.35 84.35 0 0 0 3.66-17l16.26 7.46a2.74 2.74 0 0 0 3.13-1.77c.46-4.33-.41-9-1.24-13.19a126.52 126.52 0 0 0-6.4-21.27l27.11-16.13.84 1.34c6.45 10.18 13.67 18.22 19.28 17.58a3.25 3.25 0 0 0 1.08-.32 3.7 3.7 0 0 0 1.76-2.14c1.65-4.44-.91-14.49-5-24.64 8.54 14.28 18.5 26.2 26 25.34a3.71 3.71 0 0 0 1.26-.37 4.41 4.41 0 0 0 2.07-2.53c2.31-6.19-2.06-21.3-8.3-35.52 6.82 11.36 14.78 20.83 20.86 20.14a3.17 3.17 0 0 0 1.08-.32 3.69 3.69 0 0 0 1.76-2.14c1.84-4.94-1.54-16.83-6.43-28.07l-.65-1.46 14.55-8.67 6-3.54a10.94 10.94 0 0 0 2.59 1.27c5.58 1.83 12.27-.73 15.51-5.57a11.42 11.42 0 0 0-5.69-17.09z" style="fill:#fff"/>
</svg>
