<svg xmlns="http://www.w3.org/2000/svg" viewBox="0 0 1024 1024">
   <circle cx="512" cy="512" r="512" style="fill:#1fb07e"/>
   <path d="M281 524.24a9.54 9.54 0 0 1-5.13 8.73c-2.57 2.06-6.67 2.57-11.81 2.57-6.67 0-11.3-1.54-15.4-4.11a15.39 15.39 0 0 1-5.66-11.3l-30.8-1c0 7.7 2 14.89 6.67 20.53 4.62 6.68 10.27 11.29 18.48 15.4l13.34 3.59h-61.6V439h61.6a53.65 53.65 0 0 0-12.83 4.1 39.54 39.54 0 0 0-16.43 13.35 32.33 32.33 0 0 0-6.67 19c0 7.7 1.54 13.86 5.13 19a26.73 26.73 0 0 0 12.32 10.27c5.13 2.57 11.81 4.62 20.53 6.16q13 3.29 25.67 7.7a9.36 9.36 0 0 1 2.06 5.65zm121.65-12.84v47.23h-29.78v-46.2a25.68 25.68 0 0 0-3.08-14.38c-2.57-3.6-6.16-5.13-11.3-5.13s-9.24 1.54-11.81 5.13c-3.08 3.59-4.1 8.22-4.1 14.89v46.2h-67.25a51.22 51.22 0 0 0 13.35-4.62 41.12 41.12 0 0 0 17.45-14.37 34.94 34.94 0 0 0 6.67-20.54 30.77 30.77 0 0 0-5.13-18 30.31 30.31 0 0 0-12.83-10.27 103.25 103.25 0 0 0-20.53-5.65l-16.94-4.1-8.22-3.08a8.23 8.23 0 0 1-2.57-5.65c0-3.59 1.54-6.16 4.62-8.21 2.57-2.06 6.17-2.57 10.27-2.57 5.65 0 9.76 1 12.84 3.59s4.62 6.17 5.13 10.27h30.8a33.16 33.16 0 0 0-6.67-19.51 41.05 41.05 0 0 0-16.94-13.86l-12.84-4.1h68.8v41.07c3.08-3.59 6.16-6.16 10.26-7.7a35.87 35.87 0 0 1 14.38-2.57c10.27 0 18.48 3.08 25.67 9.75 6.16 6.16 10.27 16.94 10.27 32.34zm100.62-20.53A41 41 0 0 0 486.84 475c-7.18-4.11-15.91-5.65-25.67-5.65s-18.48 1.54-25.67 5.13a39.6 39.6 0 0 0-16.43 16.43 47.81 47.81 0 0 0-6.16 23.62 46.9 46.9 0 0 0 6.16 24.13A41.06 41.06 0 0 0 435.5 554c7.19 4.11 15.92 5.65 25.67 5.65s18.49-1.54 25.67-5.13a39.57 39.57 0 0 0 16.43-15.92 46.2 46.2 0 0 0 6.16-24.13c0-9.25-2.06-16.94-6.16-23.62zm-28.75 39.53a15.41 15.41 0 0 1-13.35 5.6c-5.65 0-10.26-2.06-13.34-5.65a25.17 25.17 0 0 1-5.13-15.4c0-7.19 1.54-12.32 5.13-16.43a15.4 15.4 0 0 1 13.34-5.14c5.13 0 10.27 2.06 13.35 5.65 3.08 4.11 4.62 9.24 4.62 15.92S477.6 526.8 474 530.4zm86.24-57a25.66 25.66 0 0 0-10.26 10.27v-13.85h-29.27v88.3H551v-42.61c0-12.84 6.16-19.51 18-19.51h11.3v-25.67h-4.62a30.83 30.83 0 0 0-15.4 3.08zm58.53-28.24h-29.78v87.28c0 8.73 2.57 15.4 6.68 19.51 5.13 5.13 11.29 6.67 20 6.67h22.07v-24.11h-10.75a8.68 8.68 0 0 1-6.16-2.06c-1.54-1-2.06-3.08-2.06-6.16V495h19v-24.67h-19zm46.2 81.12a17.56 17.56 0 0 0-16.94 16.94 15.93 15.93 0 0 0 5.13 12.32 16.26 16.26 0 0 0 11.81 4.62c5.13 0 9.24-1.54 12.32-5.13a16.72 16.72 0 0 0 5.14-11.81c0-5.13-2.06-8.73-5.14-12.33q-4.62-4.62-12.32-4.62zm46.2-94.47c-5.13 0-8.73 1.54-11.81 5.13a15 15 0 0 0 0 22.59 16.71 16.71 0 0 0 11.81 5.14 15.83 15.83 0 0 0 11.81-5.14 15.55 15.55 0 0 0 0-23.1 16.26 16.26 0 0 0-11.81-4.62zm14.38 38.51h-28.75v88.3h29.26v-88.3zm102.68 20.53A41.06 41.06 0 0 0 811.8 475c-7.18-4.11-15.4-5.65-25.67-5.65-9.24 0-18 1.54-25.15 5.13A39.54 39.54 0 0 0 744 490.86a46.15 46.15 0 0 0-5.6 23.14 52.24 52.24 0 0 0 5.6 24.1 41 41 0 0 0 17 15.4c7.18 4.11 15.4 5.65 25.67 5.65 9.75 0 18-1.54 25.67-5.13a39.5 39.5 0 0 0 16.42-15.91 47.79 47.79 0 0 0 6.15-24.11c0-9.24-2.06-16.94-6.17-23.61zm-29.26 39.55a15.41 15.41 0 0 1-13.35 5.6c-5.13 0-10.26-2.06-12.83-5.65-3.59-4.1-5.13-9.24-5.13-15.4 0-7.19 1.54-12.32 5.13-16.43a15.39 15.39 0 0 1 12.83-5.65c6.17 0 10.27 2.06 13.35 5.65a25.65 25.65 0 0 1 5.13 15.92c0 6.67-1.54 11.81-5.13 15.4zm0 0" style="fill:#fff"/>
</svg>
