<svg xmlns="http://www.w3.org/2000/svg" viewBox="0 0 1024 1024">
   <circle cx="512" cy="512" r="512" style="fill:#58b1e4"/>
   <path d="M729 403.5A108.5 108.5 0 0 0 620.5 295h-217a108.16 108.16 0 0 0-76.72 31.77 108.52 108.52 0 0 0 0 153.45l38.64 38.64A108.52 108.52 0 0 0 403.5 729h217a108.15 108.15 0 0 0 76.72-31.78 108.51 108.51 0 0 0 0-153.45l-38.64-38.64A108.54 108.54 0 0 0 729 403.5Zm-372.44 264a66.4 66.4 0 0 1 44.17-113.29l132.73 132.71h-130a66 66 0 0 1-46.94-19.46Zm310.9-93.91a66.4 66.4 0 1 1-93.9 93.91l-217-217a66.41 66.41 0 0 1 93.91-93.91Zm0-123.1a65.93 65.93 0 0 1-44.17 19.38L490.55 337.09h130a66.41 66.41 0 0 1 46.94 113.36Z" style="fill:#fff"/>
</svg>
