<svg xmlns="http://www.w3.org/2000/svg" viewBox="0 0 1024 1024">
   <circle cx="512" cy="512" r="512" style="fill:#0ccd93"/>
   <path d="m651.84 216.47-4.74 11.86-32.77 81.07a5.72 5.72 0 0 1-1.29-1.08 158.76 158.76 0 0 0-40.32-20.91l28.89-71.15h50.24ZM444 731.78l-26.1 64.47h-50.24l4.74-11.86L403.67 707A158.21 158.21 0 0 0 444 731.78Zm-68.14-312.21c0-73.52 68.35-117.29 134.11-117.29 74.6 0 128.07 44.85 133.25 111.47.43 5 .43 14.66.43 14.66h-62.31a90 90 0 0 0-1.08-13.41s-.65-3.23-.65-3.45c-.22-.86-.43-1.94-.65-2.8a15.88 15.88 0 0 0-.86-3c-.22-1.08-.65-1.94-.86-2.8a56.13 56.13 0 0 0-19.62-26.09 18 18 0 0 0-2.59-1.72c-.86-.43-1.51-1.08-2.37-1.51a8.74 8.74 0 0 0-1.94-1.08c-.43-.22-1.08-.65-1.51-.86-1.29-.65-2.8-1.29-4.1-1.94a25.7 25.7 0 0 0-4.31-1.75 81.42 81.42 0 0 0-21.35-4.74 79.71 79.71 0 0 0-10.35-.43c-34.93 0-70.94 21.13-70.94 56.49 0 8.62 0 33.2 39.46 47.65l-22.42 55.67c-52.61-19.64-79.34-54.12-79.34-103.07Zm279.43 194.49C647.53 679 591.9 722.73 517.08 722.73c-37.52 0-72.88-12.29-99.61-34.71-25.66-21.35-42.26-51.32-44.63-80.64a102 102 0 0 1 0-15.09h61a69.83 69.83 0 0 0 4.1 21.13 3.12 3.12 0 0 1 .43 1.51 34.39 34.39 0 0 0 2.59 5.82 10.51 10.51 0 0 1 .65 1.51 12.37 12.37 0 0 0 .86 1.51c1.08 1.72 2.16 3.67 3.45 5.39a16.46 16.46 0 0 0 1.72 2.37 76 76 0 0 0 15.09 14.88 9.13 9.13 0 0 0 1.51 1.08 9.13 9.13 0 0 0 1.51 1.08 89.3 89.3 0 0 0 26.3 12.07 91.89 91.89 0 0 0 24.8 3.23c33 0 70.51-14.45 76.76-55.2 3-39.24-29.32-56.71-54.77-64.47l22.42-55.63c30.62 9.92 54.33 24.36 70.29 42.48 19.86 22.42 27.84 50.45 23.74 83.01Zm-94.65-169.69-5.17 12.51-41 101.34-28 69.43c-1.29-.65-2.37-1.51-3.45-2.16a3.16 3.16 0 0 0-.86-.43l-1.3-1.06c-25-17.68-21.35-50.24-20.27-56.49a6.3 6.3 0 0 1 .43-1.94l6.9-17 40.76-100.97 24.58-60.6 4.74 2.16c24.58 12.95 22.64 55.21 22.64 55.21Z" style="fill:#fff"/>
</svg>
