<svg xmlns="http://www.w3.org/2000/svg" viewBox="0 0 1024 1024">
   <circle cx="512" cy="512" r="512" style="fill:#50bd37"/>
   <path d="M770.71 447.1c-9.86 0-16.86-7.22-16.86-16.9s7-16.91 16.86-16.91 16.94 7.22 16.94 16.91-7 16.9-16.94 16.9zm0-50.35c-19.53 0-33.39 14.28-33.39 33.45s13.87 33.44 33.39 33.44 33.52-14.28 33.52-33.44-13.9-33.45-33.55-33.45zm0 84.23C741 481 720 459.3 720 430.2s21.05-50.77 50.69-50.77c29.83 0 50.87 21.67 50.87 50.77S800.48 481 770.65 481zm0-120.32c-40.58 0-69.4 29.69-69.4 69.55s28.82 69.53 69.4 69.53c40.85 0 69.68-29.68 69.68-69.53s-28.93-69.56-69.78-69.56zM284.49 485l-20.84-5c-19-4.36-28.61-9.33-28.61-23 0-15.55 15.86-21.78 30.16-21.78 14.54 0 25.17 7.27 31.42 18.58a.89.89 0 0 0 .09.16c.13.25.27.48.4.73a10.78 10.78 0 0 0 8.84 5 10.11 10.11 0 0 0 10.47-10.46 13.49 13.49 0 0 0-1.59-6.63c-10.67-18.15-28.27-26-48.43-26-27.36 0-53.8 13.68-53.8 43.84 0 27.68 27.37 35.77 37.32 38.25l19.9 4.67c15.24 3.73 27.68 8.72 27.68 23.32 0 16.79-17.41 24.27-34.21 24.27-17.1 0-29.76-8.75-38.49-21.65a10.37 10.37 0 0 0-19.13 6 11.4 11.4 0 0 0 2.13 6.22c13.67 20.46 33.44 28.1 55.49 28.1 28.3 0 56.6-13.06 56.6-44.78.05-20.55-15.19-35.17-35.4-39.84zm139.13 65.85c-33.58 0-54.73-25.19-54.73-57.84s21.15-57.85 54.73-57.85c33.9 0 55 25.19 55 57.85s-21.1 57.84-55 57.84zm0-134.34c-45.09 0-77.12 32.65-77.12 76.5s32 76.49 77.12 76.49C469 569.5 501 536.85 501 493s-32-76.49-77.38-76.49zM642 535c-.76.73-1.54 1.46-2.38 2.15a49.55 49.55 0 0 1-3.82 3.18c-8.75 6.34-19.81 10-32.74 10-33.59 0-54.73-25.19-54.73-57.84s21.14-57.85 54.73-57.85c33.89 0 55 25.19 55 57.85.02 17.05-5.74 32.05-16.06 42.51zm-50.2 82.9a63.51 63.51 0 0 0 7.8-.5 109.23 109.23 0 0 1 13.61-.9c19.08.11 28.79 5.65 34.65 12.05s8.1 15.18 8.09 22.6a29.8 29.8 0 0 1-1.17 8.65c-2.92 8.85-8.81 14.88-17.84 19.41s-20.92 6.72-33.42 6.7a114.29 114.29 0 0 1-13.52-.82c-8.5-1-19.74-4.63-27.89-11a35.69 35.69 0 0 1-9.86-11.39 34 34 0 0 1-3.84-16.3v-.74c.26-12.24 5.88-20.37 12-26.27a49.49 49.49 0 0 1 8.46-6.39l1-.59a42.53 42.53 0 0 0 21.93 5.49zM603 416c-45.09 0-77.13 32.65-77.13 76.5 0 29.63 14.64 54.13 38.05 66.91-.31.31-.62.64-.91 1a35.14 35.14 0 0 0-9.16 23.71 33.45 33.45 0 0 0 2 11.4 71.21 71.21 0 0 0-10.37 8.08 57.91 57.91 0 0 0-18.86 41.74v1.11a55.86 55.86 0 0 0 6.4 26.55c6.08 11.37 15.55 19.28 25.32 24.56a83.41 83.41 0 0 0 29 9.19 136.1 136.1 0 0 0 16.13 1c15 0 30-2.55 43-8.94s24.13-17.11 28.95-32.29a51.24 51.24 0 0 0 2.21-15.3c0-11.5-3.32-25.54-13.65-37.13s-27.42-19.4-50.85-19.29a132.83 132.83 0 0 0-16.29 1.07 42.62 42.62 0 0 1-5.12.33c-7.18 0-10.78-2-12.93-4.06a10.92 10.92 0 0 1-3.2-8 13.55 13.55 0 0 1 3.44-9c2.21-2.31 5-3.88 9.76-3.94h1.36q4.61.32 9 .32c24 0 42-7.38 54.29-17.61a69.45 69.45 0 0 0 21.89-32.48 81.45 81.45 0 0 0 5.15-28.92c0-43.87-32.03-76.51-77.48-76.51z" style="fill:#fff"/>
</svg>
