<svg xmlns="http://www.w3.org/2000/svg" viewBox="0 0 1024 1024">
   <circle cx="512" cy="512" r="512" style="fill:#2066af"/>
   <path d="M381.43 472c7.06 9.27 11 24.39 11 42.1 0 20.09-6.37 36.6-17.71 45.7-8.59 6.87-21.65 10.65-37.11 10.65-22 0-39.35-7.23-48.29-20.1-6.71-9.45-10-22-10-37.29 0-22 6-38.66 17.37-47.59 8.92-7.21 23-11.17 39.17-11.17 20.45 0 36.78 6.37 45.53 17.71m-69.93 13.23c-3.62 5.67-5.33 14.76-5.33 27 0 26.8 9.27 39 29.9 39 20.27 0 29.56-12.21 29.56-38.66 0-26.82-9.11-38.84-29.56-38.84-11.17 0-19.94 4.13-24.57 11.52m119.96 85.14H407V455.79h57.22c20.09 0 27.15 2.06 34.7 10.49a39 39 0 0 1 10.31 26.8c0 12-4.8 23.19-12.71 29.9-6.7 5.66-12.9 7.38-25.94 7.38h-39.16zm33.16-60.47c6.53 0 10.3-.86 12.88-3.27 3.09-2.58 5-8.07 5-14.43 0-7.56-3.08-13.05-8.41-14.95a28.68 28.68 0 0 0-8.94-1h-33.69v33.68zm151.86-54.13H592v46.91h-44.11V455.8h-24.4v114.6h24.4v-47.25H592v47.25h24.4zM733.31 472c7.06 9.27 11 24.39 11 42.1 0 20.09-6.35 36.6-17.7 45.7-8.61 6.82-21.61 10.6-37.12 10.6-22 0-39.34-7.23-48.27-20.1-6.71-9.45-10-22-10-37.29 0-22 6-38.66 17.36-47.59 8.93-7.21 23-11.17 39.19-11.17 20.44 0 36.76 6.37 45.52 17.71m-69.92 13.23c-3.61 5.67-5.33 14.76-5.33 27 0 26.8 9.27 39 29.88 39 20.28 0 29.55-12.21 29.55-38.66 0-26.82-9.1-38.84-29.55-38.84-11.16 0-19.93 4.13-24.56 11.52m-499.2 85.19h61.78c17.34 0 24.69-1.06 30.47-4.72 9.1-5.6 14.88-17.17 14.88-29.6 0-10.15-3.5-20.48-8.75-25.74-6.83-7-16.11-9.63-33.28-9.63h-18.73c-8.4 0-14.6-.36-18.09-1.92-4.2-1.94-6.65-6.14-6.65-11.39 0-6.13 3-10.69 7.88-11.92 3.68-.86 7.94-.86 19-1h55.31V453.6H207c-13.66 0-19.79.52-25 2.45-12.08 4.2-20.32 17.16-20.32 32 0 10.17 4 19.63 11 25.75 6.13 5.25 15.24 7.7 29.24 7.7h24.93c5.61 0 10.15.7 12.62 2.1a13.47 13.47 0 0 1 7.53 12.48 12.17 12.17 0 0 1-5.78 10.68c-3 1.94-8.06 2.81-17.33 2.81h-59.73zm591 0H817c17.34 0 24.69-1.06 30.48-4.72 9.1-5.6 14.87-17.17 14.87-29.6 0-10.15-3.49-20.48-8.74-25.74-6.85-7-16.12-9.63-33.3-9.63h-18.73c-8.42 0-14.62-.36-18.11-1.92-4.22-1.94-6.67-6.14-6.67-11.39 0-6.13 3-10.69 7.89-11.92 3.67-.86 7.95-.86 19-1H859V453.6h-60.9c-13.67 0-19.79.52-25 2.45-12.09 4.2-20.32 17.16-20.32 32 0 10.17 4 19.63 11 25.75 6.13 5.25 15.24 7.7 29.25 7.7h24.93c5.61 0 10.17.7 12.61 2.1a13.44 13.44 0 0 1 7.53 12.43 12.19 12.19 0 0 1-5.77 10.68c-3 1.94-8.05 2.81-17.35 2.81H755.2z" style="fill:#fff"/>
</svg>
