<svg xmlns="http://www.w3.org/2000/svg" viewBox="0 0 1024 1024">
   <circle cx="512" cy="512" r="512" style="fill:#6abe55"/>
   <path d="M439.4 682.81c-24.84 8.79-82.91 24.07-90.56 24.07-6.11 0-35.73-30.95-49.29-51.58C269.95 610.4 256 564.36 256 512c0-70.5 27.32-134.69 78.14-184a257.93 257.93 0 0 1 134.88-69c21.21-3.82 63-3.82 85.21 0 36.3 6.11 76.23 22.54 106.6 44.32 16 11.46 27.13 21.4 26 23.31-.38.57-5.92 5.16-12 10.13l-11.46 9-4.78-8.21c-6.3-10.7-20.44-23.5-30.57-27.89-45.09-19.3-109.28-2.87-182.64 46.42-73.55 49.67-129.91 115-142.71 165.44-4.2 16.24-2.87 38 2.67 48.91 15.47 30.19 61.33 39.36 111 22.54 8-2.87 36.49-15.67 63.43-28.66 61.71-29.8 73.74-34 95.71-34.2 14.71 0 17 .38 21.21 4.59 7.07 6.5 8 16.24 3.25 30.76-15.53 46.28-69.6 85.82-160.54 117.35ZM629.68 445l-5.68 5.88h-46.28l-3.06-6.3c-2.87-5.92-2.87-6.3 3.82-14.71 3.63-4.78 9.55-11.65 13-15.28 12-13 9.93-30.38-4.59-34.2-8.41-2.48-7.45-2.48-23.12 1-33.81 7.45-69.16 28.85-103 62.28-29.61 29.42-50.05 57.31-50.05 68.59 0 7.83 9.36 5.16 67.82-19.3C536.64 468.45 568 460 598.93 460c21 .19 36.49 3.82 51.2 12.42 23.88 13.95 35 42.6 30.19 77.37-5.35 38-23.69 71.07-60.18 109.09-34.2 35.34-72 62.28-125.9 90.17-22.16 11.27-27.7 14.9-24.84 16 1.91.76 16.81 1.91 33.24 2.48 35.53 1 58.84-2.1 88.84-12C632.17 742 666 720.82 695.79 690.07 743.16 641.16 768 579.83 768 512c0-29-3.82-53.49-12.42-79.67-6.3-18.91-20.06-48.91-23.69-51-6.89-4.39-82.15 42.42-102.21 63.67Z" style="fill:#fff"/>
</svg>
