<svg xmlns="http://www.w3.org/2000/svg" viewBox="0 0 1024 1024">
   <circle cx="512" cy="512" r="512" style="fill:#178a9e"/>
   <path d="M706 356.32V356c-.29-4.33-.59-9.35-.91-14.57-.6-10-1.25-20.81-1.95-29a100.49 100.49 0 0 0-4-15.42c-10.16-22.6-30.06-33.5-51.06-38.71-9.57-1.66-21.33-2-33.84-2.27H493.75c-77.68 4.18-110.34 49.17-119.1 73.14-34 101.74-55.23 233.51-70.52 328.62l-.89 5.52-5 45.21a77.93 77.93 0 0 0 2.3 22.38c9.54 27.58 38.31 50.81 101.69 27.67 59.87-26 130.6-58.38 203.74-94.68 41.64-24 102.64-79.2 105.77-148.91-.52-51.7-2.26-105.91-5.74-158.66Zm-96.29 38.23a10.94 10.94 0 0 1-10.94 10.94 65.65 65.65 0 0 0-65.65 65.65v40.19a122.13 122.13 0 0 1-122.17 122.13 10.62 10.62 0 0 1-10.62-10.62v-33.25a10.94 10.94 0 0 1 10.94-10.94A65.65 65.65 0 0 0 476.92 513v-40.2A122.13 122.13 0 0 1 599 350.68a10.62 10.62 0 0 1 10.62 10.62Z" style="fill:#fff"/>
</svg>
