<svg xmlns="http://www.w3.org/2000/svg" viewBox="0 0 1024 1024">
   <circle cx="512" cy="512" r="512" style="fill:#25aae1"/>
   <path d="M304.7 268.44c34.34.07 68.68-.09 103 .08q49.7 116.62 99.64 233.16c.36 1.11 1.36 2.34.49 3.5Q447.23 630.58 386.64 756h-99.08q66.09-126.4 132.1-252.87-57.38-117.39-114.96-234.69Zm295.47 37.76Q557.94 405 515.7 503.84q60.92 125.83 121.65 251.77 49.55-.06 99.09 0-66-126.4-132.06-252.74 57.49-117.42 115-234.84c-34.34.11-68.69-.15-103 .12-5.23 12.75-10.86 25.34-16.21 38.04Z" style="fill:#fff"/>
</svg>
