<svg xmlns="http://www.w3.org/2000/svg" viewBox="0 0 1024 1024">
   <circle cx="512" cy="512" r="512" style="fill:#e44232"/>
   <path d="M345.5 290h333a55.66 55.66 0 0 1 55.5 55.5v333a55.66 55.66 0 0 1-55.5 55.5h-333a55.66 55.66 0 0 1-55.5-55.5v-74.57l.78.46c18.94 11 63.71 37.1 74.68 43.29 6.64 3.75 13 3.65 19.39 0l88.24-50.79.21-.12.84-.49 90.39-52c3.85-2.22 4-9-.27-11.49l-3-1.72c-4.39-2.5-10.06-5.73-12.49-7.15a14.15 14.15 0 0 0-13.84.17c-2.15 1.24-145.71 83.78-150.5 86.51a18.72 18.72 0 0 1-18.57 0c-4.52-2.62-75.82-44-75.82-44v-37.48l.79.46c18.94 11 63.71 37.1 74.68 43.29 6.64 3.75 13 3.65 19.39 0L473.19 522l.33-.19.26-.15.15-.09 90.6-52.14c3.85-2.22 4-9-.27-11.49l-3-1.72c-4.39-2.5-10.09-5.74-12.51-7.16a14.16 14.16 0 0 0-13.84.17c-2.15 1.24-145.71 83.78-150.5 86.51a18.72 18.72 0 0 1-18.57 0c-4.52-2.62-75.82-44-75.82-44v-37.43l.78.45c18.93 11 63.72 37.11 74.69 43.3 6.64 3.75 13 3.65 19.39 0l88.44-50.9.11-.07 91.13-52.45c3.85-2.22 4-9-.27-11.49l-3-1.72c-4.39-2.5-10.08-5.74-12.5-7.16a14.15 14.15 0 0 0-13.84.17c-2.15 1.24-145.71 83.78-150.5 86.51a18.71 18.71 0 0 1-18.57 0c-4.52-2.62-75.82-44-75.82-44V345.5A55.66 55.66 0 0 1 345.5 290Z" style="fill:#fff"/>
</svg>
