<svg xmlns="http://www.w3.org/2000/svg" viewBox="0 0 1024 1024">
   <circle cx="512" cy="512" r="512" style="fill:#c168ca"/>
   <path d="M459.64 260.41a116.73 116.73 0 0 1 93.69-4.85c8.45 3.08 16.27 7.56 24 12.11l120.92 69.83c7.54 4.27 15.07 8.64 21.78 14.17a116.21 116.21 0 0 1 43.35 92v148.67c0 4.74.13 9.5-.26 14.23a116.37 116.37 0 0 1-46.64 85.08c-7.63 5.76-16.17 10.12-24.36 15l-94.39 54.74c-8.27 4.66-16.3 9.77-24.78 14a11.31 11.31 0 0 1-13-4.57 9.87 9.87 0 0 1-1.6-5.83c-.14-78 0-155.94-.07-233.9-.38-2.88 3.13-5.3 5.59-3.56l33.36 20.74c2.42 1.47 4.77 3.07 7.31 4.33a46.7 46.7 0 0 0 46.31-81q-55-34.25-110.12-68.47c-3.44-2.1-6.79-4.41-10.52-6a46.93 46.93 0 0 0-35-1.07c-6.46 2.3-12 6.48-17.81 9.95l-105.13 65.45A46.7 46.7 0 0 0 421.18 551c12.61-7.81 25.19-15.67 37.8-23.48a3.64 3.64 0 0 1 5.5 3.06v234.46c.13 6.62-7 11.78-13.29 10.29-2.69-.68-5-2.32-7.46-3.56l-106-61.74c-7.68-4.53-15.47-8.89-23.08-13.53a116.28 116.28 0 0 1-54-99.85V439.84a116.3 116.3 0 0 1 57.87-98.17l116.39-67.21c8.23-4.64 16.31-9.66 24.73-14.05Z" style="fill:#fff"/>
</svg>
