<svg xmlns="http://www.w3.org/2000/svg" viewBox="0 0 1024 1024">
   <circle cx="512" cy="512" r="512" style="fill:#1cb2f5"/>
   <path d="m307.65 345.59 64.5-64.5a48.64 48.64 0 0 1 3.65-3.3 47.85 47.85 0 0 1 23.46-10.29q1.65-.24 3.3-.36t3.6-.14q2.31 0 4.61.22a47.91 47.91 0 0 1 29.41 13.87l64.5 64.5-7.68 7.66-90.83 90.85ZM527 353.25l90.86 90.85 98.51-98.51-64.5-64.5A47.89 47.89 0 0 0 631.53 269q-1.67-.5-3.37-.87a48.31 48.31 0 0 0-8.59-1.08h-1.73q-1.73 0-3.46.12t-3.45.37q-2.29.33-4.55.88t-4.46 1.32q-1.1.39-2.19.83-2.17.88-4.27 2t-4.1 2.42q-1 .66-2 1.38-.73.54-1.44 1.1a48.62 48.62 0 0 0-4.13 3.68l-64.5 64.5Zm-22.64 7.32-90.86 90.85.34.34 7.32 7.32L512 549.94l90.85-90.86 7.32-7.32.34-.34-90.86-90.85-7.32-7.32-.34-.34-.34.34Zm-113.17 98.51 7.32-7.32.34-.34-98.51-98.51-.34.34-7.32 7.32-64.5 64.5a48.11 48.11 0 0 0 0 68l64.5 64.5 98.51-98.52Zm113.15 98.52.34-.34-45.43-45.43-45.42-45.43-7.32-7.32-.34-.34-.34.34-7.32 7.32L300 564.92l7.66 7.66 90.85 90.85L497 564.92Zm305.49-101.4a48.27 48.27 0 0 0-1.29-8.57q-.28-1.13-.61-2.24a47.85 47.85 0 0 0-2.48-6.56q-1-2.14-2.2-4.19a47.87 47.87 0 0 0-2.64-4q-.72-1-1.49-1.92a48.67 48.67 0 0 0-3.3-3.65l-64.5-64.5-7.32-7.32-.34-.34-98.51 98.51.34.34 7.32 7.32 98.51 98.52 64.5-64.5a48.67 48.67 0 0 0 3.3-3.65q.77-.94 1.49-1.92a47.86 47.86 0 0 0 2.64-4q1.21-2 2.2-4.19a47.85 47.85 0 0 0 2.48-6.56q.33-1.12.61-2.24a48.27 48.27 0 0 0 1.29-8.57q.09-1.44.09-2.88t-.09-2.89Zm-184.34 10.2-7.32-7.32-.15-.15-.19-.19-.34.34-7.32 7.32-90.85 90.86.34.34 7.32 7.32 98.52 98.52 90.85-90.85 7.66-7.66Zm-7.32 204.35-98.52-98.52-7.32-7.32-.34-.34-.34.34-7.32 7.32-98.51 98.52.29.29 7.32 7.32 64.5 64.5a48.65 48.65 0 0 0 3.65 3.3 47.94 47.94 0 0 0 5.92 4.13q2 1.21 4.19 2.2a48 48 0 0 0 15.65 4.24q2.3.22 4.61.22t4.61-.22a48 48 0 0 0 15.65-4.24q2.14-1 4.19-2.2a47.93 47.93 0 0 0 5.92-4.13 48.65 48.65 0 0 0 3.65-3.3l64.5-64.5 7.32-7.32.33-.33Z" style="fill:#fff"/>
</svg>
