<svg xmlns="http://www.w3.org/2000/svg" viewBox="0 0 1024 1024">
   <circle cx="512" cy="512" r="512" style="fill:#1a3258"/>
   <path d="M491 244c-10.6 0-13.14 9.81-13.14 9.81L450 364.52l-114.16-65.46s-12.35-8.37-25.23-8.37-23.61 8.69-23.61 8.69l1.23 42.35s9.52-7.68 22.41-7.68 25.23 8.39 25.23 8.39l140.39 80.48L508 287.39l11.82 49.93 161.54 92.62s12.7 8.34 25.18 8.34 23.67-8.72 23.67-8.72L729 387.25s-10.13 7.68-22.44 7.68-25.18-8.36-25.18-8.36l-125-71.67-8.62-32.15a2.24 2.24 0 0 1 1.7-2.09l21.15-6.5a4.48 4.48 0 0 1 4.5 4.43l1.11 2.31c.79.39 4-1.14 4.19-1.26V267a15.86 15.86 0 0 0-16.07-15.86h-21.15a13 13 0 0 0-12.06-7.14ZM310.61 346.06c-11.9 0-23.64 8.67-23.64 8.67l1.22 42.33s10.58-7.69 22.42-7.69 25.23 8.38 25.23 8.38l129 74 8.95-38.23-137.95-79.16s-13.33-8.3-25.23-8.3ZM523 351l11.79 50.17 146.58 84s13.13 8.37 25.18 8.37 23.67-8.72 23.67-8.72L729 442.57a38.68 38.68 0 0 1-22.45 7.68c-13.07 0-25.18-8.35-25.18-8.35Zm-212.39 50.36c-11.9 0-23.61 8.64-23.61 8.64l1.22 42.33s10.58-7.68 22.42-7.68 25.23 8.37 25.23 8.37l117.53 67.41 8.94-38.26-126.49-72.49s-13.33-8.31-25.23-8.31ZM538 415l11.82 50.18 131.58 75.38s13.13 8.37 25.18 8.37 23.67-8.73 23.67-8.73L729 497.88a38.54 38.54 0 0 1-22.44 7.7c-13.07 0-25.18-8.34-25.18-8.34Zm-227.39 41.71c-11.9 0-23.64 8.68-23.64 8.68l1.22 42.31s10.58-7.7 22.42-7.7 25.23 8.38 25.23 8.38l106.08 60.84 9-38.23L335.84 465s-13.33-8.31-25.23-8.31ZM553.09 479l11.77 50.1 116.54 66.79s13.11 8.37 25.18 8.37 23.67-8.72 23.67-8.72l-1.25-42.3a38.68 38.68 0 0 1-22.44 7.66c-13.07 0-25.18-8.36-25.18-8.36ZM461.8 615.8c-21.57 0-48.64 10.84-48.64 40.53 0 20.58 15.42 30.29 25.95 35.32 5.58 2.66 12.37 5.64 18 8.6 2.88 1.54 14.34 5.33 14.34 17.5 0 13.05-14.53 17.48-21.05 17.48-23.26 0-39.09-10.39-39.09-10.39l2.4 26.16s9.51 4.72 37.95 4.79c27.13-.09 46.7-17.2 46.7-40.77 0-18.14-12.61-28.88-23.37-34-8.47-4.06-13.38-6.29-20.75-9.7s-15-9.27-15-18.37c0-9.78 9.11-16.8 22.53-16.8 19.75 0 27.69 8.77 32.52 11.5v-24.43s-15.23-7.41-32.52-7.41Zm83.65 1.72 4.55 11.33L502.64 753h25.86l8.27-23.64h49L594 753h48.87l8.31-23.64h49l8.19 23.64H737l-48.58-135.47h-28.61l4.57 11.32-44.45 116.42-45.84-127.74Zm-257 .2v83.73c0 46.78 29.1 54.54 53.49 54.54 36 0 52.75-23.38 52.75-55v-83.26H370.8v86.1c0 10.86-3.61 31.16-28.88 30.75-23-.37-27.21-21.11-27.21-34.44v-82.41Zm273.81 40.22 17 53h-36Zm114.32 0 17 53h-36Z" style="fill:#fff"/>
</svg>
