<svg xmlns="http://www.w3.org/2000/svg" viewBox="0 0 1024 1024">
   <circle cx="512" cy="512" r="512" style="fill:#666"/>
   <path d="M197.75 460.11a13.87 13.87 0 0 0-5.38 1.31 13.58 13.58 0 0 0-6.83 18.58l31.09 67.63c4.89 10.39 10.39 16.18 19.7 16.18s14.81-6 19.67-16.18l27.41-59.73a4 4 0 0 1 3.94-2.52 4.38 4.38 0 0 1 4.3 4.38v57.87a14.62 14.62 0 1 0 29.12 0v-47.27a14.51 14.51 0 0 1 15.47-15.08A14.21 14.21 0 0 1 351 500.33v47.27a14.51 14.51 0 0 0 14.48 16.21 14.72 14.72 0 0 0 14.62-16.18v-47.27a14.51 14.51 0 0 1 15.41-15.08 14.2 14.2 0 0 1 14.84 15.06v47.26a14.61 14.61 0 1 0 29.05 0v-53.77a33.71 33.71 0 0 0-35.06-33.6 45 45 0 0 0-31.15 13.27 34.44 34.44 0 0 0-29.92-13.2 49.45 49.45 0 0 0-29.35 13.2 35.18 35.18 0 0 0-26.26-13.2A32.17 32.17 0 0 0 256 481.78l-19.92 46.89-25.49-60.19.3-.11a13.78 13.78 0 0 0-13.17-8.25zm503.61 1.64a7.37 7.37 0 0 0-7.27 7.48h.06v85.87a7.38 7.38 0 1 0 14.62 0v-33.4c0-28.34 15.6-42.63 34.7-44.9a7.26 7.26 0 0 0 6.5-7.48 7.05 7.05 0 0 0-7.27-7.32 40 40 0 0 0-33.94 24v-16.77a7.27 7.27 0 0 0-7.41-7.48zm-184 .21a7.46 7.46 0 0 0-6.83 5.93l-24.92 71.78-24.65-71.6a7.66 7.66 0 0 0-7.49-6 7.27 7.27 0 0 0-7.38 7 13.12 13.12 0 0 0 .93 3.93l29.78 83 .55-.2a8.71 8.71 0 0 0 8.14 6.62 8.21 8.21 0 0 0 8-6.62l24.68-70.58 24.48 70.58a8.21 8.21 0 0 0 8 6.62h.49a8.73 8.73 0 0 0 8-6.62l30-83a13.88 13.88 0 0 0 .9-3.93 7 7 0 0 0-7.24-6.83 7.15 7.15 0 0 0-7 5.71l-25.09 71.86-24.7-71.75a7.79 7.79 0 0 0-7.6-5.93h-1zm277.84.22a47.81 47.81 0 0 0-46.2 50.58 48.23 48.23 0 0 0 48 50.77l-.21.35a48.73 48.73 0 0 0 36.34-14.73 6.15 6.15 0 1 0-8.12-9.23 39.22 39.22 0 0 1-27.82 11.34 33.8 33.8 0 0 1-33.88-33h69.82a6.75 6.75 0 0 0 6.72-6.75c0-25.82-16.2-49.35-44.74-49.35zm-157 .05c-1.44 0-2.88 0-4.31.16a65.15 65.15 0 0 0-29.45 5.61 6 6 0 0 0-3.91 6.07 6.55 6.55 0 0 0 6.42 6.25 7.14 7.14 0 0 0 2.6-.65 49.76 49.76 0 0 1 22.79-4.43c18.88 0 29.24 9.13 29.24 26.75v3.42a103.68 103.68 0 0 0-30.14-4.1c-24.38 0-41.54 10.93-41.54 31.7l-.09-.11c0 20.12 18.34 30.52 36.62 30.52a43 43 0 0 0 35.47-16.94v9.38a6.75 6.75 0 0 0 6.94 6.83 6.94 6.94 0 0 0 7-7.16v-54.18a38.7 38.7 0 0 0-10.36-28.58 42.92 42.92 0 0 0-27.33-10.52zM794.48 474c19.51 0 29.65 15.44 31.12 33.17h-62.24A33.39 33.39 0 0 1 794.48 474zm-160.81 37.75a102.56 102.56 0 0 1 28.88 4.18v9.48c0 15.58-14.72 26.59-32.79 26.59-13.25 0-24.7-7.13-24.7-19.48 0-12.76 10.24-20.76 28.61-20.76zm0 0" style="fill:#fff"/>
</svg>
