<svg xmlns="http://www.w3.org/2000/svg" viewBox="0 0 1024 1024">
   <circle cx="512" cy="512" r="512" style="fill:#2c5976"/>
   <path d="M256 422.5c12.3 0 24.6-.1 36.9.4 9.7 25.1 26.6 47.4 30.9 74.4 4.6-26.9 20.5-50 31-74.8 10.8 0 21.5 0 32.3-.1-14.9 29.2-30.1 58.2-45.3 87.1-2.1 4.3-4.6 8.6-4.4 13.6-.2 17.7.1 35.4 0 53.3h-30.2c-.5-18.8.9-37.6-.6-56.3-15.9-32.9-33.6-65.2-50.6-97.6zm175.6 42.9c18.5-3.8 40.2-.6 52.8 14.5 12.6 14.9 14.2 35.8 12.1 54.5-1.7 17.1-11.9 34.1-28.3 40.6-20.7 8.1-47.7 5.3-62.3-12.7-13.3-17.6-14.3-41.8-9.3-62.4 3.8-17 17.8-31.3 35-34.5zm6.6 24c-11.2 3.4-13.9 16.4-14.7 26.5-.6 11.6.1 25.1 8.6 33.8 9.2 9.8 27.5 6 32.1-6.5 5.1-13.7 4.9-29.6-.2-43.3-3.6-10-16.2-14.7-25.8-10.5zm79.3-65.6c21.4-2.4 43.1-4.3 64.8-1.7 11.1 1.5 22.9 5.1 30.5 14.1 9.3 10.1 9.5 25.7 5.1 38.1-3.7 10.3-13.7 15.6-22.2 21.1 8.7 3.4 18.5 6.8 23.8 15.3 12.6 19.6 5.1 49-16.1 59-26.5 13.2-57.3 8.6-85.7 5.9-.8-50.7-.2-101.2-.2-151.8zm29.7 23.1c-.7 13.4-.7 27-.4 40.4 12.5-.2 26.8 1 36.7-8.3 9.7-7 8.8-24.3-2.6-29.1-10.5-5-22.5-2.9-33.7-3zm-.5 64.2c-.1 13.6-.1 27.1 0 40.7 13.4.6 28.8 3.1 40.3-5.6 9.9-7.1 9.9-24.6-1.1-30.5-11.9-6.5-26.1-4.2-39.2-4.6zm107.2-88.4c10.4-5 26.9-.5 28.2 12.5.4 17-25.9 21.9-34.5 8.7-4.9-7.1-1.4-17.8 6.3-21.2zm54.6 23.7c9.7-2.6 19.2-5.3 28.8-7.9 0 9.5.1 18.9.1 28.3 8.9 0 18 .1 26.9.5-.1 7.8-.2 15.6-.4 23.3-8.8.1-17.7.1-26.5.1.6 18.8-1.7 37.8 1.3 56.5 3.4 10.5 16.5 4.5 24.1 3.5 1.7 7.3 3.4 14.7 5.1 21.9-14.2 5-30.2 9.8-44.8 3.9-10.1-3.8-13.9-15.2-14.4-24.9-1.3-20.2-.2-40.4-.5-60.7-5 0-9.8 0-14.8.1-.4-8.1-.4-16-.4-24.1 5-.1 10-.1 15-.2.2-6.8.2-13.6.5-20.3zm-59.4 20.5c9.8-.1 19.4-.1 29.2 0v109.5h-29.2V466.9z" style="fill:#fff"/>
</svg>
