<svg xmlns="http://www.w3.org/2000/svg" viewBox="0 0 1024 1024">
   <circle cx="512" cy="512" r="512" style="fill:#f4ba37"/>
   <path d="M409.2 473.6h26.3v100.5h-26.3V473.6zm385.4 57.7v42.5l-26.5-.1V470.5l47.7 41.1v-38h26.3v104.2l-47.5-46.5m-517.9-7.7c0-28.5 23.1-51.7 51.7-51.7 12.9 0 24.6 4.7 33.7 12.5L345 503.8c-4.5-3.8-10.3-6-16.6-6-14.3 0-25.8 11.6-25.8 25.8 0 14.3 11.6 25.8 25.8 25.8 6.4 0 12.3-2.4 16.8-6.3l17 19.4c-9 7.9-20.9 12.7-33.9 12.7-28.5 0-51.6-23.1-51.6-51.6m209 73.5-49.8-132.4h-41.7v109.8h-27.3V464.7h-60.4l14-26.4h134.7l30.4 79.3 30.4-79.3h130.5l14.4 26.4H535.5l-49.8 132.4m84.2-23.4v-22.2H588c2.9 0 8.5-.2 9.9-4.9 2.9-9.7-26.9-25.5-26.9-49.6 0-18.3 13.2-23.8 22.2-23.8h27.4V495h-16.9s-4.9 0-6.2 2c-7.4 10.5 27.2 25.9 27.2 54.2 0 14.8-12.7 22.6-25.3 22.6h-29.5m-34-100.6h26.4v100.5h-26.4V473.2zm93.1 0h26.4v100.5H629V473.2zM256.7 574.1l-7-18.7H217l-7 18.7h-28l51.4-147.2 51.4 147.2h-28.1M225 528.5h15.6l-7.8-25.7-7.8 25.7m435.2-4.9c0-28.5 23.2-51.7 51.8-51.7 28.5 0 51.7 23.2 51.7 51.7 0 28.6-23.2 51.8-51.7 51.8-28.6-.1-51.8-23.3-51.8-51.8m26.1 0c0 14.2 11.5 25.7 25.7 25.7s25.7-11.5 25.7-25.7-11.5-25.7-25.7-25.7-25.7 11.5-25.7 25.7" style="fill:#fff"/>
</svg>
