<svg xmlns="http://www.w3.org/2000/svg" viewBox="0 0 1024 1024">
   <circle cx="512" cy="512" r="512" style="fill:#2f9aff"/>
   <path d="M538.76 432.89c63.15 0 93.47 49.93 93.47 92.64s-30.33 92.66-93.48 92.66-93.49-49.94-93.49-92.66 30.32-92.64 93.48-92.64m0 136.63c22.49 0 41.57-18.55 41.57-43.99s-19.08-43.96-41.57-43.96-41.6 18.52-41.6 43.96 19.09 43.99 41.6 43.99m122.83-188.65h52.6v232.45h-52.6V380.87Zm115.45 164.18c-19.29 0-34.92 15.67-34.92 34.95s15.64 34.95 34.92 34.95 34.97-15.66 34.97-34.95-15.67-34.95-34.97-34.95M350.39 380.87h-46.84l-91.56 232.45h62.04l12.27-33.59h80.73l11.3 33.59h62.68l-90.63-232.45Zm-47.75 151.7 24.35-81.04 24.34 81.05h-48.69Z" style="fill:#fff"/>
</svg>
