<svg xmlns="http://www.w3.org/2000/svg" viewBox="0 0 1024 1024">
   <circle cx="512" cy="512" r="512" style="fill:#3accdd"/>
   <path d="M862.97 557.78s-6.96-9.76-9.11-12.55c-1.5-1.82-3.32-3.96-8.04-.75-10.6 7.07-22.49 13.61-37.16 13.61-11.25 0-21-2.89-28.28-9.11 3.11-1.4 6.32-2.9 9.53-4.72 17.36-9.33 31.81-21.34 38.78-28.31 33.74-33.78 23.25-84.18-17.99-84.18-38.89 0-69.52 37.85-69.52 80 0 6.32.74 15.44 3.42 24.98-2.25 1.07-17.67 8.58-36.1 18.77-17.36-12.98-44.35-7.18-44.35-7.18 25.07-35.71 62.88-91.37 66.1-95.97 2.35-3.33 1.93-6.55-.33-11.69-2.89-6.22-5.78-7.3-9.64-7.3h-78.52c-2.56 0-4.6 1.18-5.36 4.08-.75 2.89-2.35 12.86-2.67 16.19-.33 3.44 2.89 5.58 6.21 5.58h56.88L645.4 532.9c-.33.33-.64.64-.97 1.07-7.49 10.83-18.96 25.95-32.67 25.95-8.57 0-19.17-6.11-19.17-26.17s7.93-61.12 13.71-93.51c.64-3.44-.53-6.86-6.11-6.86h-13.92c-3.22 0-5.04 1.94-5.46 4.72-.86 4.93-1.72 9.75-2.47 14.48-6.85-13.19-17.89-20.7-33.74-20.7-14.78 0-29.14 5.48-40.92 17.27-29.36 29.38-23.79 77.32-49.16 102.73-10.93 10.94-23.26 7.61-23.26-13.94 0-24.56 9.43-52.01 20.15-77.96 1.92-4.62-.11-8.48-2.15-11.37-2.89-4.19-3.96-6.33-9.1-6.33-8.04 0-20.78 5.05-46.38 5.05-5.46 0-10.61-.22-15.33-.54.33-3.86.33-6.43.44-7.4.21-3.65-1.07-5.9-4.93-5.9h-13.07c-4.71 0-5.89 2.26-6.43 6.01-2.25 15.66-6.42 73.24-35.35 102.09-3.32 3.32-5.36 4.4-5.36 4.4 7.18-14.05 11.04-32.49 11.04-47.18 0-41.18-24.32-66.7-54.95-66.7-9.32 0-19.18 3-28.49 8.78 4.28-25.09 8.25-48.57 9.64-56.51 1.18-6.76-1.18-10.19-3-12.98-2.91-4.49-5.46-6.54-9.33-6.54h-45.21c-2.57 0-4.49 1.82-5.15 4.72-.75 3.32-2.35 12.11-2.56 16.18-.22 3.54 2.25 4.93 5.14 4.93h33c-5.24 32.4-15.31 95.13-18.32 110.88-3.84 20.05-18.1 44.61-42.08 53.41-3 1.07-4.18 3.86-3.11 7.08 1.07 3.22 5.25 11.58 6.54 13.72 1.29 2.26 4.07 3.65 6.64 2.79 12.42-4.41 23.88-11.47 32.88-20.48a70.53 70.53 0 0 0 6.43-7.4c10.7 24.24 32.78 33.04 55.15 33.04 25.39 0 52.82-8.91 72.1-28.11 22.5-22.52 31.81-59.62 35.89-85.99 5.57.74 11.89 1.38 18 1.38 15.42 0 28.39-3.32 28.39-3.32s-15.53 41.39-15.53 71.85c0 34.42 16.49 44.18 34.6 44.18s31.92-14.04 41.23-31.52c2.47 5.46 6.11 11.89 11.04 16.83 8.46 8.48 18.96 14.7 34.17 14.7 17.36 0 32.25-9.97 42.85-25.41 1.92 6.54 4.82 11.89 8.78 15.86 5.35 5.37 15.21 9.55 27.42 9.55 21.1 0 33.42-15.87 66.31-15.87 4.18 0 7.93.64 11.36 1.82-15.11 9.22-29.46 19.08-38.24 27.88-27.11 27.14-28.4 62.95-10.61 80.75 21.63 21.67 52.27 10.72 71.55-8.48 22.49-22.51 29.03-65.08 16.07-94.15 15.74-8.26 28.93-14.36 32.03-15.87 9.86 13.4 26.14 23.91 52.92 23.91 19.17 0 38.56-6.76 53.67-18.23 2.15-2.04 2.68-5.37.97-7.72Zm-581.76-9.22c-6.11 6.11-13.61 9.44-21.22 9.44-7.07 0-13.17-3.22-18.32-8.37-17.36-17.37-15.86-60.15 6.54-82.56 6.32-6.33 14.03-9.97 21.85-9.97 7.07 0 13.17 3.11 18.32 8.26 16.28 16.41 17.24 58.77-7.18 83.22Zm248.19 9.33c-18.75 0-30.96-22.63-27.22-50.51 3.75-27.88 21.96-50.5 40.7-50.5 17.36 0 29.15 19.41 27.86 44.4-.54 3.64-.97 7.07-1.29 10.5-5.04 25.85-22.29 46.11-40.06 46.11Zm156.07 98.23c-24.53 24.56-55.81-6.76-19.29-43.33 8.26-8.26 21.85-17.37 36-25.73 8.03 19.94 1.71 50.61-16.71 69.06Zm98.44-188.52c18.42-18.45 38.89-12.98 38.89 4.93s-20.89 36.35-46.17 50.93c-2.47 1.39-5.37 3-8.26 4.5-.97-4.4-1.5-9.22-1.5-14.69-.11-15.01 6.21-34.85 17.03-45.68Z" style="fill:#fff"/>
</svg>
