<svg xmlns="http://www.w3.org/2000/svg" viewBox="0 0 1024 1024">
   <circle cx="512" cy="512" r="512" style="fill:#7928ca"/>
   <path d="M512 240c-150.22 0-272 121.78-272 272s121.78 272 272 272 272-121.78 272-272-121.78-272-272-272Zm-144.89 84.08h169.57c5.83-9.31 16.27-15.54 28.1-15.54 18.34 0 33.21 14.81 33.21 33.21s-14.86 33.15-33.21 33.15c-12.06 0-22.61-6.45-28.44-16.1H348.76v324.45c0 .34 0 .62-.06.95a239.79 239.79 0 0 0 56.37 39.71V582.89c0-.34.06-.5.06-.84s.06-.5.11-.84c.06-.28.11-.5.17-.84.06-.28.11-.5.17-.84.06-.28.17-.5.22-.84s.17-.5.28-.84.22-.5.28-.79c.11-.28.22-.5.34-.79.11-.22.28-.45.34-.79.11-.28.28-.45.39-.73.17-.22.28-.45.39-.73.17-.22.34-.39.45-.73.17-.22.34-.39.45-.67.17-.22.34-.39.5-.67.17-.22.34-.39.5-.62l.62-.62c.22-.17.39-.34.67-.5.22-.17.39-.34.67-.5.22-.17.39-.34.67-.45.22-.17.45-.34.73-.39.22-.17.45-.28.73-.39s.45-.28.79-.34c.28-.06.45-.22.79-.34.28-.11.5-.22.79-.34.28-.11.5-.17.84-.28s.5-.17.84-.22c.28-.06.5-.17.84-.22.28-.06.5-.11.84-.17.28-.06.5-.11.84-.11s.5-.06.84-.11c.28 0 .5-.06.84-.06h58.62c5.83-9.31 16.27-15.54 28.1-15.54 18.34 0 33.21 14.81 33.21 33.21s-14.81 33.21-33.21 33.21c-12.06 0-22.61-6.45-28.44-16.1h-40.61V735.7c0 .79-.06 1.51-.17 2.3a240.437 240.437 0 0 0 72.47 11.16c22.55 0 44.43-3.14 65.13-9.03V560.46a33.057 33.057 0 0 1-15.43-27.99c0-18.34 14.81-33.21 33.21-33.21s33.21 14.81 33.21 33.21c0 12.12-6.51 22.77-16.27 28.55v166.26a238.08 238.08 0 0 0 44.82-27.21V531.84c0-.34.06-.5.06-.84s.06-.5.11-.84c.06-.28.11-.5.17-.84.06-.28.11-.5.17-.84s.17-.5.22-.84c.11-.28.17-.5.28-.84.11-.28.17-.5.28-.84.11-.28.22-.5.34-.79.11-.22.28-.45.34-.79.11-.28.28-.45.39-.73.11-.22.28-.45.39-.73.17-.22.34-.45.45-.73.11-.22.34-.39.45-.67.17-.22.34-.39.5-.67.17-.22.34-.39.62-.62.22-.17.34-.34.62-.62.22-.17.39-.34.67-.5.22-.17.39-.34.67-.5.22-.17.39-.34.73-.45.22-.17.45-.34.73-.39.22-.11.45-.28.73-.39.22-.17.45-.28.79-.34.28-.11.45-.22.79-.34.28-.11.5-.22.79-.34s.5-.22.84-.28c.28-.11.5-.17.84-.22.28-.06.5-.11.84-.22.28-.06.5-.11.84-.17.28-.06.5-.06.84-.11s.5-.06.84-.06.5-.06.84-.06h75.61v-3.31c0-59.4-21.82-113.7-57.89-155.32v74.72c0 .28-.06.5-.06.9 0 .34-.06.5-.11.84-.06.28-.11.5-.17.84-.06.28-.11.5-.17.84-.06.28-.17.5-.22.84-.11.28-.17.5-.28.84s-.22.5-.34.84-.22.5-.34.79c-.11.28-.28.45-.34.79-.06.28-.28.45-.39.79-.17.28-.28.45-.39.73-.17.22-.34.45-.45.73-.17.22-.34.39-.5.67-.17.22-.34.39-.5.67-.17.22-.34.39-.62.62-.22.17-.39.34-.62.62-.22.22-.39.34-.67.5-.22.17-.39.34-.67.5-.22.17-.39.34-.73.45-.22.17-.45.34-.73.39-.28.17-.45.28-.79.39-.28.11-.45.28-.79.34-.28.11-.5.22-.79.34s-.5.22-.84.34-.5.17-.84.28-.5.17-.84.22c-.28.06-.5.11-.84.17-.28.06-.5.11-.84.17-.28.06-.5.06-.9.11-.34.06-.5.06-.9.06H439.83v35.28a33.099 33.099 0 0 1 16.16 28.5c0 18.34-14.81 33.21-33.21 33.21s-33.1-14.86-33.1-33.26c0-11.84 6.17-22.21 15.43-28.05v-53.91c0-.28.06-.5.06-.84s.06-.5.11-.84.11-.5.17-.84.11-.5.17-.84.17-.5.22-.84.17-.5.28-.84.22-.5.28-.79c.11-.28.22-.5.34-.79.11-.22.28-.45.34-.79.11-.28.28-.45.39-.79.17-.28.28-.45.39-.73.17-.22.34-.45.45-.73.17-.22.34-.39.45-.67.17-.22.34-.39.5-.67.17-.22.34-.39.5-.62l.62-.62c.22-.22.39-.34.67-.5.22-.17.39-.34.67-.5.22-.17.39-.34.67-.45.22-.17.45-.34.73-.39.22-.17.45-.28.73-.39s.45-.28.79-.34.45-.22.79-.34c.28-.11.5-.22.79-.34s.5-.22.84-.28c.28-.06.5-.17.84-.22s.5-.17.84-.22.5-.11.84-.17c.28-.06.5-.11.84-.11s.5-.06.84-.06.5-.06.84-.06h234.7v-87.39c0-.5 0-1.07.06-1.57-40.05-31.08-90.26-49.47-144.78-49.47s-104.95 18.45-145 49.42ZM274.67 512c0-48.41 14.47-93.45 39.38-130.87v261.85c-24.91-37.53-39.38-82.57-39.38-130.98Zm471.58 37.98h-54.97v117.4c28.33-32.53 47.79-72.81 54.97-117.4Z" data-name="Ebene 1" style="fill:#fff;fill-rule:evenodd"/>
</svg>
