<svg xmlns="http://www.w3.org/2000/svg" viewBox="0 0 1024 1024">
   <circle cx="512" cy="512" r="512" style="fill:#afafaf"/>
   <path d="M623 375.02c-30.244.74-37.273 1.202-44.395 3.052-6.752 1.665-15.631 5.642-21.273 9.342-9.619 6.474-31.354 29.319-71.679 75.564-76.026 87.31-76.119 87.402-84.535 90.547-8.509 3.144-18.313 3.884-65.297 4.717-25.157.462-47.355 1.294-49.389 1.757-7.862 1.942-17.111 10.08-63.91 56.51l-30.521 30.337 3.7.555c15.353 2.312 151.4 2.682 197.19.462 27.932-1.295 36.07-3.052 48.834-10.544 12.856-7.584 25.065-19.885 53.55-53.829l14.799-17.758 5.641-.462c3.053-.278 23.585-.74 45.597-1.018 41.343-.554 55.864-1.387 67.055-3.7 13.966-2.866 26.452-10.913 42.453-27.006 14.798-14.983 31.261-34.406 31.261-36.996 0-1.757-11.56-2.127-73.899-2.22-34.406-.092-64.743-.37-67.517-.647l-4.994-.648 4.532-5.087c2.497-2.774 9.434-10.359 15.446-16.926l11.006-11.746h52.441c88.882-.092 108.4-1.85 127.82-11.654 12.579-6.289 23.585-16.926 44.21-42.73 14.706-18.405 21.642-28.024 20.81-28.857-1.11-1.11-169.9-1.85-208.93-1.017z" style="fill:#fff"/>
</svg>
