<svg xmlns="http://www.w3.org/2000/svg" viewBox="0 0 1024 1024">
   <circle cx="512.38" cy="512" r="512" style="fill:#006882"/>
   <path d="m505 490.66-6.42 9.18V481h-20.94v2.92c1.8.61 2.2 7.88 2.28 12.07v55.51h18.6v-43.77a14.14 14.14 0 0 1 13.22-9.36h11.18v-16.84H517c-5.22 0-8.39 3.4-12 9.13Zm141.81-41.8c2.15.73 2.31 10.92 2.31 14.07v20.63c-3.24-3-8.48-4.6-14.68-4.6-19.27 0-34.25 14-34.25 39.48 0 22.92 13 34.38 29.79 34.38l19.14-7.91v6.57h18.68V445.94h-21Zm2.31 92.83h-7.2c-17.47 0-23.26-13.27-23.26-29.72 0-16.85 6.49-27.22 17.8-27.22 8.07 0 12.65 6.19 12.65 17.34ZM684 448.87c1.89.65 2.24 8.63 2.3 12.67v89.94H705V445.94h-21ZM752 479c-19.08 0-33.3 16-33.3 38.68 0 20.76 13.08 35.18 32.62 35.18a15.76 15.76 0 0 0 6-1.35l19.55-8.26v-3.45a37.24 37.24 0 0 1-12.79 1.93c-22.23 0-29.1-12.86-28.55-31.48h43.94v-3.34C779.48 490.69 770 479 752 479Zm-16.17 26c1.08-12.4 5.93-21.3 14.83-21.3s12.13 8.63 12.13 21.3Zm-175.68-26c-17.23 0-28.45 6.64-28.45 17.83v1.61h16.77v-4c0-6.47 3.57-10.65 10-10.65 7 0 9.08 4.85 9.08 12.54v11.21l-20.35 7.41c-10.11 3.77-18.47 8.73-18.47 20.33 0 10.79 8.58 17.66 18.06 17.66l2.22-.05L567.7 545v6.52h18.65l-.16-50.68c-.01-15.84-8.81-21.9-26.06-21.9Zm7.45 62.76h-9c-8.3 0-11.76-4.63-11.76-11.64 0-7.55 3.51-10.53 9.16-12.68l11.59-4.72ZM838.42 480v2.85c4.1.79 6 5.67 2.77 14.5l-14.43 35.32-17.81-42.66a64.74 64.74 0 0 1-3.31-10h-23.43V483c2.47 1.24 4.6 3.3 8.58 11.37l27 60.19-2.17 5.31a5.29 5.29 0 0 1-4.81 2.79l-19.36.09.07 15.35h10.26c8.6 0 13-5.08 15.85-11.09l30.84-72.3c1.93-4.84 4.36-9.71 6.36-11.35V480Zm-399.21 22.22a.23.23 0 0 1 0-.46c11.93-2 23-9.48 23-21.94 0-15.48-11.8-22.9-32.55-22.9h-82.17a45.89 45.89 0 0 1-2.24 8.46l-21.11 57.19-21.21-57.44a42.74 42.74 0 0 1-2.52-8.22H281v2.92c2.24.76 1.7 6.8.89 12.09l-10 68.47c-.6 3.88-2.52 5-6.09 5h-8.56c-3.62 0-5-1.59-5-5v-66.85c0-3.52.23-13 2.31-13.68v-2.92h-22v43.2H192v-43.2h-22.1v2.92c2 .68 2.28 9.62 2.3 13.36v62c0 3.74-.29 12.68-2.3 13.36v2.92H192v-45.26h40.54v45.24H278a93.14 93.14 0 0 1 .74-10.12l8.94-62.21 26.45 72.32H321l26.67-72.32s6.31 42.32 8.9 62.21a74 74 0 0 1 .79 10.12h23v-2.92c-2.17-1.44-3.71-14.07-3.71-14.07-3.39-24.1-9.49-66.6-9.49-66.6-.55-3.34.94-4.86 4-4.86h20.5c4.18 0 5.31 1.94 5.31 6.23v65.39c0 5.8-.4 13.65-2.27 13.9v2.92h37.11c23.3 0 35.69-9.16 35.69-25.46.05-13.74-11.63-22.59-28.29-23.79ZM416.78 463h6.47c12.44.15 19.67 5.61 19.67 17.6 0 12.66-6.33 19.14-19.53 19.14h-6.6V463Zm12.52 82.39H428c-8.08 0-11.18-2.13-11.18-9.4v-30.37h9.29c12.85.12 21.82 8.15 21.82 20.14-.05 13.34-6.51 19.67-18.63 19.67Z" style="fill:#fff"/>
</svg>
