<svg xmlns="http://www.w3.org/2000/svg" viewBox="0 0 1024 1024">
   <circle cx="512" cy="512" r="512" style="fill:#50c77d"/>
   <path d="M486.75 241.37c36.5-3.3 73.72.44 108.59 11.87 39.57 12.75 75.95 34.92 105.83 63.79 27.27 26.53 49.11 58.71 63.31 94.02 25.82 63.78 26.09 137.54.39 201.39-16.67 41.68-43.83 79.08-78.16 107.98-39.88 33.71-89.65 55.95-141.68 61.63-30.34 2.96-61.26 2.47-91.13-4.05-39.15-8.34-76.28-25.82-107.88-50.36-36.86-28.47-66.25-66.5-84.44-109.37-13.6-31.9-20.87-66.45-21.52-101.12-1.08-49.26 11.83-98.72 36.73-141.23 25.04-43.09 62.06-79.13 105.86-102.91 32.07-17.48 67.73-28.29 104.09-31.64m-1.45 41.45c-19.24 2.24-38.23 6.8-56.32 13.76-44.22 16.84-82.86 47.85-109 87.29-28.08 41.83-41.73 93.08-38.33 143.33 2.67 42.35 17.35 83.85 42 118.39 25.92 36.62 62.74 65.43 104.58 81.64 34.49 13.59 72.3 18.26 109.11 14.36 58.93-6.13 114.71-36.48 152.29-82.23 35.46-42.52 54.78-98.12 53.12-153.47-.92-39.99-12.74-79.62-33.58-113.75-24.62-40.59-61.99-73.37-105.65-92.07-36.97-16.05-78.21-21.87-118.22-17.23Zm-125.53 85.84c-.01-1.95-.09-5.45 2.74-5.25 13.47-.14 26.93-.06 40.38-.04 2.5-.48 4.29 1.77 4.05 4.13.08 28.01.04 56.01.03 84.03 9.07-9.65 21.38-16.62 34.86-16.98 19.33-.24 40.25 5.44 53.22 20.6 12.17 14.31 16.46 33.61 16.99 51.99.09 25.57-.03 51.14.05 76.72-.06 2.09.03 4.37-1.2 6.19-2.92 1.9-6.58.81-9.83.87-10.09-.2-20.19-.2-30.27.21-2.79.42-6.3-1.4-5.9-4.61-.09-25.61.01-51.23-.04-76.86-.28-9-2.23-18.81-9-25.27-7.5-6.75-18.65-7.69-28.1-5.45-8.27 1.79-15.11 8.1-18.06 15.96-4.37 10.66-2.03 22.33-2.93 33.48-.25 18.52-.11 37.05.24 55.57.14 2.79-.23 7.31-4.03 7.1-13.09-.31-26.2-.33-39.29-.04-2.68.31-4.27-2.13-3.88-4.59-.08-72.59.01-145.18-.05-217.77Zm228.62 73.62c20.61-11.33 46.68-12.57 67.98-2.35 14.85 7.26 27.99 18.56 36.19 33.02 8.04 14.02 11.26 30.56 10.07 46.61-1.75 22.65-13.96 44.13-32.24 57.55-17.08 12.8-39.74 18.64-60.71 13.72-10.28-2.18-19.2-7.92-28.35-12.76-.09 29.23.01 58.47-.05 87.72-.25 2.78.21 5.89-1.25 8.41-3 1.52-6.47.81-9.69.97-10.57-.24-21.16.42-31.7-.4-.4-1.72-.81-3.46-.79-5.22.06-76.4-.04-152.82.05-229.22-.21-1.86 1.51-3.49 3.35-3.27 11.36-.45 23.79-.43 33.31 6.75 4.33 3.21 9.77.94 13.83-1.51m27.52 33.76c-11.93 2.29-22.26 10.9-27.04 22-4.87 11-3.86 24.29 2.55 34.46 8.15 13.53 25.48 20.4 40.74 16.35 16.79-3.93 29.41-20.74 28.13-38.01-.58-21.73-23.07-39.59-44.37-34.8Z" style="fill:#fff"/>
</svg>
