<svg xmlns="http://www.w3.org/2000/svg" viewBox="0 0 1024 1024">
   <circle cx="512" cy="512" r="512" style="fill:#00ffd0"/>
   <path d="M690.79 438.09c-.51 20.82-14.73 32-28.44 32-14.22 0-28.44-11.17-28.44-32 0-18.79 12.19-32 28.44-32s28.44 13.71 28.44 32ZM767 371.55c-.51 0-.51.51-1 .51a4.58 4.58 0 0 0 .51 2.54l1 2c.51.51 0 2.54-.51 3.56s-3.56 2-3 2.54c.51 1 1.52 2 2 3 0 .51.51 1 0 1.52 0 .51-.51.51-1 1-1 .51-1 .51-.51 1.52 0 .51.51 1 .51 1.52.51 1-3 2-3.56 3.56v3.56c0 .51 0 .51-.51 1a1.77 1.77 0 0 1-.51 1v2a1.77 1.77 0 0 1-.51 1h-.51c-.51 0-1 1-1.52 1.52v.51c0 .51.51.51 0 .51-.51.51-.51 1-1 1.52a3.05 3.05 0 0 0-.51 2v.51c0 .51 0 .51-.51 1-.51 0-1 .51-1.52.51-.51.51-.51.51-.51 1v1a1.77 1.77 0 0 0 .51 1 2.27 2.27 0 0 1 0 2.54 1 1 0 0 0 0 1.52c0 .51.51.51.51 1 .51 1.52 0 2-1 2-1.52 0-1.52 0-2 1.52s-1 2-2 2-1.52.51-2 1.52a3.12 3.12 0 0 0 .51 3c1 .51.51 2 1 3l-.51.51-.51-.51h-.51v1a1.55 1.55 0 0 1 0 2c-.51 1-1.52 2.54 0 4.06v1.52c0 .51-.51.51-1 .51h-1c-.51 0-.51 0-1 .51v1c0 .51.51 1 1 1.52a1.55 1.55 0 0 1 0 2c-1.52.51-1 1-.51 2a1.87 1.87 0 0 0 .51 1.52 1.77 1.77 0 0 1-.51 1c-1 0-2 1-3 .51h-.51v1l1.52 1.52a3.24 3.24 0 0 1 0 3c-.51 0-.51.51-1 0-.51 0-1-.51-1 1 0 1 0 2-1 2s-1 1-1 1.52a2.79 2.79 0 0 1-1.52 2.54c-.51.51-1 .51 0 1s1.52 1.52 1 3c0 1-.51 3 1 3.56.51 0 .51 1 0 1.52a1.77 1.77 0 0 1-1 .51c-.51 0-1-.51-1.52-1a.5.5 0 0 1-.51-.51s-.51.51 0 .51c0 .51.51 1 .51 1.52v1.52a1.77 1.77 0 0 1-1 .51c-.51 0-1 0-1 1a4.58 4.58 0 0 1-.51 2.54 3.37 3.37 0 0 1-2 2.54c-1 .51-1.52 1-1 2v.51a1 1 0 0 1 0 1.52.7.7 0 0 1-1 0h-1a3.05 3.05 0 0 0-.51 2c0 .51.51 1 1 1.52a11.08 11.08 0 0 1 2 2.54c.51 1 0 1-.51 1h-1c-.51 0-1.52 0-1.52.51l-.51.51c-1.52 1-1.52 1-1.52 3.56 0 1.52-.51 3-2 3.56-1 .51-1.52 2.54-2.54 2.54-.51 0-1 1-1.52 1l-.51.51c-.51 0-.51-.51-.51 0-.51.51 0 1.52 0 2s.51 1 .51 2c.51 1 .51 1.52-.51 1.52a1.09 1.09 0 0 0-1 1v.51a3.24 3.24 0 0 1 0 3v.51c0 .51.51 1.52 0 2h-1.93a7.22 7.22 0 0 0-3 1c0 .51-.51.51 0 1s.51 1 1 1.52a4.39 4.39 0 0 1 1.52 3 3.81 3.81 0 0 1-.51 2.54c2-3 2-2 2-1 0 2-.51 4.57-2 6.1l-3-1s-21.84-7.62-55.36-17.78c0 0-29.46-8.63-41.65-12.7 0 0-2.54-1-7.62-.51s-22.35 2-34 3l-17.78 2c-32 3.56-46.22 4.06-46.22 4.06-50.39 6.24-62.58 6.74-62.58 6.74-26.92 2-43.68 5.08-83.81 7.62L288.52 532l-5.59.51h-2a5.07 5.07 0 0 1-2-2.54v-2.54c3-1-.51-4.57-.51-4.57a1.57 1.57 0 0 1-1-2v-.51c0-.51.51-.51.51-1-.51-1 1.52-4.06 1.52-4.06-.51-.51 0-.51-1-1.52a7.87 7.87 0 0 1-1-4.06c0-1 1.52-3 1-3.56l-2.54-2.54a1.87 1.87 0 0 1-.51-1.52v-1c.51-1 .51-1 0-2-.51-.51-.51-1-1-1-.51-1 1.52-3 1-4.57 0-.51-.51-1.52-.51-2s-.51-1-.51-1.52v-3c0-.51-.51-1.52-.51-2v-1.52c.51 0 0-1 .51-1.52v-.51c-.51-.51-.51-.51-.51-1v-2a4.58 4.58 0 0 0-.51-2.54c0-.51 0-.51-.51-1v-1c0-.51.51-.51.51-1v-1.81c0-.51-.51-.51-.51-1a1.09 1.09 0 0 0-1-1 7.22 7.22 0 0 1-1-3 1.87 1.87 0 0 0-.51-1.52c-.51-.51-.51-.51-.51-1-1-1.52-1-2 0-2s1-.51.51-2a2.85 2.85 0 0 1 .51-3c.51 0 1-.51.51-2 0-1.52.51-3.56-.51-4.06s-1-2-1.52-3v-.51l.51.51h.51c0-.51 0-.51-.51-1a2.23 2.23 0 0 1-.51-2.54c0-1.52 0-3-1.52-4.06a1.87 1.87 0 0 1-.51-1.52c0-.51 0-.51.51-.51h.51l.51-.51a1.77 1.77 0 0 0-.51-1c-.51-.51-.51-1-1-1-.51-.51-1-1.52-.51-2 .51-1 0-1.52-.51-2a1.87 1.87 0 0 1-.51-1.52v-1c.51-1 1-1.52 2-1 .51 0 .51-.51.51-1s-1.52 0-1.52 0c-.51-.51 0-.51-.51-1a7.22 7.22 0 0 1-1-3 .5.5 0 0 1 .51-.51c.51 0 1 0 0-1-.51-1 0-.51 0-1.52 0-.51.51-.51 0-1l.51-.51s6.6-1 7.11-1c2 0 .51-2.54.51-2.54a8.66 8.66 0 0 1 0-5.08c0-2.54-1-3-2-3.56-.51-.51-.51-1-.51-2l.51-.51h1a.5.5 0 0 1 .51-.51V402c-.51-.51-.51 0-1-.51 0-.51-.51-1-.51-1.52l.51-.51a2.45 2.45 0 0 0 0-2c0-.51-.51-1-.51-1.52a2.85 2.85 0 0 1 .51-3 2.27 2.27 0 0 0 0-2.54v-.51a1.87 1.87 0 0 1-.51-1.52c0-1 .51-1.52 1-1.52a.5.5 0 0 0 .51-.51v-1.52a1.87 1.87 0 0 0-1.52-.51c-1 0-1-.51-1.52-1.52s-1-1-.51-1.52c.51 0 .51-.51 1-.51s.51-.51.51-1v-.51c.51-1.52.51-1.52 0-4.06a7 7 0 0 1 0-4.57c.51-1 0-3.56.51-3.56s.51-1 .51-1.52 0-.51.51-.51a.5.5 0 0 0 .51-.51c0-.51-.51-1-1-1.52s-.51-1-1-2-1-1.52 0-2c.51 0 .51-1 0-1.52a7.34 7.34 0 0 1-1-3.56v-.51c0-1-1-1.52-.51-2 0-.51.51 0 1-.51s1.52-1 1-1.52v-1c-.51-.51-.51-1-1-1.52-1-.51-.51-.51-1-1.52v-.51a.5.5 0 0 1 .51-.51l8.13-1s21.33-2.54 42.16-4.06c0 0 15.75-1.52 81.27-8.13 0 0 27.43-2.54 59.43-6.6 0 0 27.43-3 84.31-8.13 0 0 38.6-4.06 66.54-7.62 0 0 10.16-1.52 17.27 2 0 0 45.71 19.3 61.46 25.4L767 369c2 1 .51 2 .51 2Zm-432.26-14.73L317 363.93V483.8h17.78Zm126 39.62a31.55 31.55 0 0 0-19.81-7.11c-13.21 0-23.87 6.1-27.94 16.25-4.57-12.19-15.24-16.25-23.87-16.25-10.16 0-18.28 4.57-22.35 11.68l-2.54-9.65h-13.75v91.93h16.25v-55.87c0-13.71 7.62-22.35 19.3-22.35 10.16 0 15.75 6.09 15.75 17.27v61.46H418v-56.38c0-13.71 7.62-22.35 19.3-22.35 10.16 0 15.75 6.09 15.75 17.27v61.46h16.25v-65.52c.54-9.15-2.5-16.28-8.6-21.84Zm143.74 21.84c0-9.14-3-16.25-9.14-21.84a31.55 31.55 0 0 0-19.81-7.11c-13.21 0-23.87 6.1-27.94 16.25-4.57-12.19-15.24-16.25-23.87-16.25-9.65 0-18.28 4.57-22.35 11.68l-2-9.65H486.1v91.93h15.75v-55.87c0-13.71 7.62-22.35 19.3-22.35 10.16 0 15.75 6.09 15.75 17.27v61.46h16.25v-56.38c0-13.71 7.62-22.35 19.3-22.35 10.16 0 15.75 6.09 15.75 17.27v61.46h16.25ZM707 437.58c0-27.94-18.79-48.25-45.2-48.25-13.21 0-24.89 5.08-33 14.22-7.62 8.63-12.19 20.82-12.19 34s4.06 25.4 12.19 34c8.13 9.14 19.81 14.22 33 14.22 26.45.06 45.2-20.26 45.2-48.19Zm13.21 215.86v17.27h-85.29V655h.51c4.57-3.56 9.14-7.11 13.21-10.16 30-23.36 51.81-39.62 51.81-60.95 0-16.76-11.68-23.87-23.36-23.87s-23.87 8.13-23.87 24.38l-16.25 6.1v-4.1c0-29.46 21.84-42.67 41.65-42.67 22.86 0 38.6 15.75 38.6 37.59 0 28.44-24.89 47.24-49.27 66l-7.62 6.09Zm-429.7-16.25c0 11.17-4.57 20.82-12.7 27.43-7.62 6.1-17.27 9.14-27.94 9.14-20.82 0-37.59-12.7-42.66-32l17.79-7.11v.51c3.56 15.75 15.75 21.33 26.41 21.33s21.33-5.59 21.33-18.28c0-12.19-9.65-17.27-24.89-23.36l-2-.51c-14.73-5.59-33-13.21-33-37.08 0-24.38 18.79-35.55 36.57-35.55 13.71 0 30 7.11 36.06 22.35v.51l-15.75 6.1C266.17 562 256.52 558 248.9 558c-9.14 0-18.79 6.1-18.79 17.78 0 12.19 9.65 16.76 22.86 22.35l1.52.51c16.76 7.06 36.06 14.68 36.06 38.55ZM477 625c0 27.94-18.79 48.25-45.2 48.25s-45.2-20.32-45.2-48.25 19.3-48.25 45.2-48.25S477 597.06 477 625Zm-45.2-32c-16.76 0-29 13.21-29 32 0 21.33 14.73 32.51 29 32.51s28.44-11.17 28.44-32.51c-.05-18.79-12.24-32.51-28.49-32ZM546 631.6v-52.82h16.25v91.42h-13.17l-3-12.7c-5.59 9.14-15.75 14.73-27.43 14.73-14.73 0-31.49-9.14-31.49-35v-58.45h16.25v58.41c0 15.24 9.65 20.32 18.28 20.32 11.68 0 23.87-9.14 23.87-25.9Zm58.41-78.73v26.41h19.3V594h-19.3v51.3c0 8.13 3.56 12.7 10.16 12.7a15.11 15.11 0 0 0 7.62-2.54l1-.51v15.75h-.51a34.14 34.14 0 0 1-12.19 2c-8.63 0-22.86-4.06-22.86-29v-50.19h-15.19v-14.73h15.24V559l16.25-6.1Zm212.31 70.6v16.76h-21.3v30.48h-16.76v-30.47h-57.9v-12.7l47.74-81.27h18.28l-45.2 77.2h37.08v-31l16.76-6.6v37.59Zm-434.24 24.38-.51.51c-8.13 15.24-22.35 23.87-38.6 23.87-21.37 0-43.68-15.23-43.68-48.23 0-14.73 4.57-27.43 13.21-36.06a41.46 41.46 0 0 1 29.46-11.68c16.25 0 30 8.63 36.57 22.35l.51.51-15.24 6.1a24.18 24.18 0 0 0-21.33-12.7c-18.29 0-26.41 16.76-26.41 32 0 22.35 13.71 32.51 27.43 32.51a26.77 26.77 0 0 0 23.36-14.22Z"/>
</svg>
