<svg xmlns="http://www.w3.org/2000/svg" viewBox="0 0 1024 1024">
   <circle cx="512" cy="512" r="512" style="fill:#0091ea"/>
   <path d="M608.62 473.91a26.48 26.48 0 1 1-26.48-26.48 26.48 26.48 0 0 1 26.48 26.48Zm-143.05 0a26.49 26.49 0 1 1-26.49-26.49 26.49 26.49 0 0 1 26.48 26.49Zm-3.19 307.59c-107.2-22.3-187.17-96.85-215.72-201.16-9.58-35-9.58-102.15 0-137.12 26.6-97.1 99.94-170.44 197-197 35-9.58 102.15-9.58 137.14 0 97.08 26.6 170.44 99.94 197 197 5.46 19.88 6.69 32.53 6.69 68.57s-1.23 48.69-6.67 68.57c-26.62 97.17-101 171.45-197 196.79-31.65 8.33-89.09 10.44-118.44 4.35Zm151.06-211.92c-69.32-30.67-92.23-39.52-102.38-39.52s-32.6 8.65-99.65 38.31c-47.57 21.07-87.09 40-87.82 40.72h379.1Zm-224.61-8.21c36.88-16.58 69.62-31.55 72.71-33.31 5.87-3.3 7.67-2-120.24-83.77-12.74-8.14-23.3-15.88-23.3-14.79v163.58q35.44-15.78 70.83-31.71Zm320.28-49.91v-81c0-2.5-38.13 22.59-79.53 48.23-68.25 42.18-74.64 46.87-68.34 49.71 30.6 13.9 146.06 65.11 147.88 65.34ZM523.26 514c12.4 2.84 14.63 2.37 27.89-6 7.94-5 14.9-9.53 15.49-10.06s-1.14-4.12-3.8-8-4.84-11.36-4.84-16.8v-9.83l-13 4.78c-16.52 6.07-51.87 6.14-68.25.11l-12.65-4.66.3 10.28c.16 5.92-2 12.81-5.12 16.27-5.28 5.82-5 6.28 10.24 16.52 14.56 9.83 16.49 10.35 28 7.44a53.44 53.44 0 0 1 25.75 0ZM427 453.67c-2.39-2.57-67.57-21.7-69-20.27-.68.68 11.47 9.42 27 19.43L413.22 471l7.78-7.8c4.23-4.28 7-8.58 6.1-9.56Zm222-8.49c10.76-7 18.2-12.63 16.56-12.63-3.53 0-65.45 18.29-68.86 20.34-1.3.77.75 5.21 4.55 9.85l6.92 8.42 10.69-6.67c5.85-3.69 19.43-12.38 30.17-19.34Zm-37.22-12.63c48-13.42 88-25.07 88.82-25.91h-380c4.25 4.25 177 49.94 189.35 50.1 9.4.11 45.89-8.56 101.9-24.19Z" style="fill:#fff"/>
</svg>
