<svg xmlns="http://www.w3.org/2000/svg" viewBox="0 0 1024 1024">
   <circle cx="512" cy="512" r="512" style="fill:#f34"/>
   <path d="m512 576.14 77.28-215.57h171.38s24.15 1.19 35.42-12.68c6.72-.48-1.41 28.93-9 50.55-7.15 20.28-16 31.87-36.06 31.87h-90.9l-96.6 275.8h-103l-96.6-275.8H273c-20.1 0-28.91-11.59-36.06-31.87-7.62-21.61-15.74-51-9-50.55 11.27 13.87 35.42 12.68 35.42 12.68h171.36L512 576.14ZM302 468.36s-24.15 1.19-35.42-12.68c-6.72-.48 1.41 28.93 9 50.55 7.15 20.28 16 31.87 36.06 31.87h71.56l-24.15-69.74Zm38.64 107.78s-24.15 1.19-35.42-12.68c-6.72-.48 1.41 28.93 9 50.55 7.15 20.28 16 31.87 36.06 31.87h71.56l-24.15-69.74ZM722 468.36s24.15 1.19 35.42-12.68c6.72-.48-1.41 28.93-9 50.55-7.15 20.28-16 31.87-36.06 31.87H640.8l24.15-69.74Zm-38.62 107.78s24.15 1.19 35.42-12.68c6.72-.48-1.41 28.93-9 50.55-7.15 20.28-16 31.87-36.06 31.87h-71.58l24.15-69.74Z" style="fill:#fff"/>
</svg>
