<svg xmlns="http://www.w3.org/2000/svg" viewBox="0 0 1024 1024">
   <circle cx="512" cy="512" r="512" style="fill:#ffce00"/>
   <path d="M728.54 329.8c-25.83-43.91-62-78.77-104.6-104.6a147.27 147.27 0 0 0-24.54-12.91c5.16 7.75 10.33 14.21 14.2 22 76.19 133 29.7 303.47-103.31 379.66C425.07 663 320.47 663 234 613.9c-7.75-3.87-14.21-9-22-14.21 3.87 7.75 7.75 15.5 12.91 24.54 81.36 138.18 259.56 184.66 399 104.6s184.7-259.56 104.63-399.03ZM404.41 744.32c-63.28-16.79-117.51-55.53-155-108.47 145.92 68.44 320.26 5.16 388.7-140.76a210.15 210.15 0 0 0 16.79-47.78c18.08-67.15 11.62-136.88-18.08-200.16 125.26 89.1 155 262.15 67.15 387.41C635.56 731.41 516.76 774 404.41 744.32Zm224.7-58.11a17.81 17.81 0 0 0 5.16 3.87v1.29l-1.27 1.3L617.49 703l-2.58-1.29-3.91-6.46c-14.05-16.61-38.19-20.52-57.46-9.35l20 31.31a10.08 10.08 0 0 0 5.16 5.16l1.29 1.29-1.25 1.34-15.5 7.75h-2.58v-1.29c0-2.58-1.29-3.87-2.58-6.46-2.58-3.87-47.78-76.19-49.07-77.48l-5.17-3.87v-1.29L520.63 632h1.29v2.58l1.29 3.87 21.3 33.31c.21-.1.44-.17.66-.27v-2h1.29l.27.54c1.05-8 4.9-37.58 4.9-43.15v-10.4l-1.29-1.29v-1.29l22-16.79h1.29v2.58c-1.29 2.58-1.29 5.17-1.29 7.75 0 5.7-5 47.55-6.2 57.32A104.4 104.4 0 0 1 585.2 663c16.8 1.26 32.29 10.3 43.91 23.21Zm27.12-28.41c3.87 5.17 1.29 11.62-3.87 15.5s-11.62 1.29-15.5-3.87-1.29-11.62 3.87-15.5a12.32 12.32 0 0 1 15.5 3.87Zm77.48-114.93c-5.16 3.87-11.62 1.29-15.5-3.87s-1.29-11.62 3.87-15.5a12.32 12.32 0 0 1 15.5 3.87c3.88 5.17 1.29 11.63-3.87 15.5ZM726 568.7l1.29 1.29c-2.58 5.17-3.87 10.33-5.16 15.5a64.34 64.34 0 0 1-32.28 38.74c-18.08 9-41.32 6.46-58.11-6.46-12.91-10.33-20.66-24.54-22-40-1.29-18.08 6.46-34.87 19.37-46.49a15.56 15.56 0 0 0 6.46-6.46l1.29-2.58h1.29l16.79 12.91-1.29 1.29c-7.75 2.58-12.91 7.75-18.08 12.91-12.91 16.79-10.33 41.32 6.46 54.24 16.79 14.2 42.61 10.33 55.53-6.46 3.87-3.87 7.75-9 9-14.21 0-1.29 1.29-5.16-1.29-7.75s-16.79-12.91-16.79-12.91h-2.58l-14.2 18.08-2.58 3.87-1.29 1.29h-1.29l-11.62-9-1.29-1.29 1.29-1.29 3.87-1.29L683.34 539h1.29l40 29.7Z"/>
</svg>
