<svg xmlns="http://www.w3.org/2000/svg" viewBox="0 0 1024 1024">
   <circle cx="512" cy="512" r="512" style="fill:#14854f"/>
   <path d="M572.81 563.84A25.79 25.79 0 1 0 598.6 538a25.81 25.81 0 0 0-25.79 25.84zm-173.2 0a26 26 0 1 0 26-26.07 26.05 26.05 0 0 0-26 26.07zm386.16-197.15c-11.1-18.69-29.27-30.37-51.16-32.89-20.69-2.39-43.36 3.14-65.59 16-13.12 7.58-26.1 19.67-36.69 34.14a168.79 168.79 0 0 0-30-13.35c-25.73-8.67-56.18-12.79-90.49-12.23-48.87.8-88.72 9.91-119.08 27.14-.07-.11-.14-.23-.22-.34-10.75-15-24.1-27.58-37.59-35.37-22.22-12.83-44.9-18.35-65.59-16-21.89 2.52-40.06 14.2-51.16 32.89-22.81 38.4-10.25 81.68 32 110.25l.38.24c18.23 11 35.65 18 54.12 21.57a205.11 205.11 0 0 0 .1 24c1.43 23.43 9.52 46.42 23.51 67.71l-47.53 19.4a9.88 9.88 0 1 0 7.47 18.29l52.26-21.33A208.57 208.57 0 0 0 393.35 638l1.38 1-30.63 40.61a9.88 9.88 0 1 0 15.76 11.91L411 650.3a230 230 0 0 0 52.77 24.7 50.08 50.08 0 0 0 10 13.32c9.87 9.33 23.45 14.46 38.22 14.46a54.74 54.74 0 0 0 48.19-28.23 232.47 232.47 0 0 0 52.39-24.78l31.56 41.79a9.88 9.88 0 1 0 15.76-11.91l-31.09-41.17.62-.47A212.8 212.8 0 0 0 662 607.35l50.95 20.8a9.88 9.88 0 1 0 7.47-18.29l-46-18.78c14.43-21.42 23-44.59 24.77-68.19a197.48 197.48 0 0 0 .4-24.18c18.36-3.64 35.69-10.58 53.82-21.51l.38-.24c42.21-28.59 54.79-71.87 31.98-110.27zm-506 95.81c-34.42-23.38-44.63-56.69-26.64-87 17.09-28.78 54.56-33.11 93.24-10.78 11.14 6.43 22.76 17.4 31.93 30.12a132.25 132.25 0 0 0-18.76 16.69c-17.58 19-28.59 42.41-32.94 69.93-15.9-3.28-31-9.46-46.87-18.96zM512 685.45c-21.67 0-36.6-14.25-37.13-35.47a33.26 33.26 0 0 1 9.13-24.35c6.81-7 16.48-10.68 28-10.68 11.2 0 20.66 3.56 27.38 10.29 6.31 6.32 9.77 15.18 9.75 24.94-.05 19.45-16.7 35.27-37.13 35.27zm170-165-.26 3c-3.49 36.63-25.72 72.33-62.82 100.73A220 220 0 0 1 566.26 654q.14-1.89.15-3.81c0-14.38-5.22-27.59-14.79-37.19-10-10.05-23.73-15.37-39.62-15.37s-30.35 5.64-40.34 15.89a50.4 50.4 0 0 0-14.07 36.86c0 1.42.14 2.82.27 4.22a217.65 217.65 0 0 1-54-30.32c-37.59-28.89-59.54-65.34-61.8-102.62-2.5-41 7.63-74.12 30.11-98.4 28.31-30.59 75.4-46.63 140-47.68h5.76c59.69 0 105.74 15.45 133.4 44.84 23 24.44 33.6 59.03 30.67 100.06zm62.27-58c-15.71 9.45-30.67 15.56-46.35 18.89-4.24-28.65-15.73-53.39-34-72.83a130.47 130.47 0 0 0-17.07-15.16c9-12.1 20.14-22.47 30.85-28.65 38.68-22.33 76.15-18 93.24 10.78 17.96 30.33 7.75 63.64-26.67 87.02z" style="fill:#fff"/>
</svg>
