<svg xmlns="http://www.w3.org/2000/svg" viewBox="0 0 1024 1024">
   <circle cx="512" cy="512" r="512" style="fill:#dadada"/>
   <path d="M766.7 551.8v-.1l-124.6-226 16.2-69.5c0-.2 0-.3-.1-.4-.1-.1-.3-.2-.4-.2-36.9 4.4-67.5 9.4-97.1 31.2-55.6-3.9-105.2 1.5-147.4 15.9-37.6 12.8-69.4 32.9-94.6 59.6-25.2 26.7-43.3 59.2-53.7 96.5-9 32.4-11.6 66.7-7.5 99.1 7.1 52.4 30.5 99.3 67.8 135.7 33.9 33.1 77.5 56.5 126.3 67.8 20.8 4.8 41.6 7.2 62 7.2 23.8 0 47-3.3 68.9-9.8 43-12.8 77.8-37.7 100.7-71.8.1-.2.1-.5-.1-.7-.2-.2-.5-.1-.7 0-75.8 78.4-200 91.9-295.3 32.1-99.7-62.5-137.8-187.1-86.8-283.7 50.8-96.1 140.9-137.4 253.9-116.4.1 0 .2 0 .3-.1 2.4-1.4 4.8-2.8 7.3-4.3 23-13.6 49.1-28.9 71.8-29L616.1 335v.4l133.2 223.2c-2.4 30.2-17.6 45.8-30 53.5-12.2 7.6-24 9.4-26.2 9.7-5.7-14.5-16-29.5-50.6-62.9-8.9-8.6-25.9-20.1-45.6-33.4-55.7-37.7-132.1-89.4-119.3-135.4.1-.3-.1-.5-.3-.6-.3-.1-.5.1-.6.3-7.3 25.5 2.6 53.2 30.2 84.9 23.5 26.9 55.7 51.8 81.6 71.8 14.3 11 26.7 20.6 35 28.4 37.1 34.9 55.8 61.3 60.5 70.5.1.2.3.3.6.3.2-.1 24.9-6.7 47.2-21.5 29.4-19.8 41.6-44.8 34.9-72.4z" style="opacity:.9961;fill:#fff"/>
</svg>
