<svg xmlns="http://www.w3.org/2000/svg" viewBox="0 0 1024 1024">
   <circle cx="512" cy="512" r="512" style="fill:#1a1a1a"/>
   <path d="M167.877 573.325c9.455.587 165.943 10.611 344.12 11.519 178.177-.908 334.672-10.932 344.127-11.52 18.786-2.045 23.177-10.375 23.177-23.177v-76.294c0-12.803-4.391-21.132-23.177-23.178-9.455-.587-165.944-10.611-344.12-11.519-178.178.908-334.672 10.932-344.127 11.52-18.786 2.045-23.178 10.374-23.178 23.177v76.294c0 12.802 4.392 21.132 23.178 23.178zm650.392-50.832c-.261-5.654-12.041-8.597-26.516-8.215-14.478.38-25.957 3.932-25.692 9.586.26 5.654 12.028 8.355 26.506 7.976 14.475-.383 25.966-3.696 25.702-9.347zm20.965-39.813c1.899-.05-9.483 15.787-9.483 15.787s-12.446-7.018-32.618-6.49c-21.596.569-38.436 6.31-38.134 17.984 12.097-5.616 23.64-7.727 39.303-8.14 24.918-.653 51.123 5.88 51.792 20.315.711 15.398-29.86 22.223-55.251 22.892-40.109 1.053-68.328-7.96-69.341-29.851-.927-19.967 30.267-33.914 68-34.905 14.951-.395 25.196.18 32.357.954 7.168.774 11.24 1.51 13.375 1.454zM657.45 532.853h-69.968v-13.608h65.272v-13.017h-65.272v-12.085h68.793l-2.804-12.93H545.783v64.57h109.996zM515.969 548.81l12.92-3.086v-64.57h-38.96v35.328l-73.266-38.243-12.62 2.915v64.57h38.961V511.58zm-205.187-54.642h18.354v38.542h-18.354l-1.766 13.014h82.113l-1.766-13.014h-18.528v-38.542h18.528l1.766-13.014h-82.113zm-14.015 51.556v-17.947l-32.875 5.017h-33.656v-51.64h-41.7v64.57h75.356zm386.022 27.585c-50.894 1.722-109.523 3.127-170.777 3.456-177.319-.948-325.943-10.925-335.364-11.51-18.898-1.594-23.175-2.9-23.175-23.177v-60.156c-.177-15.065.842-22.227 23.175-23.178 9.42-.584 158.045-10.561 335.364-11.51 61.462.33 120.278 1.744 171.293 3.476 14.562 39.19 13.166 83.349-.516 122.6z" style="fill:#dadbdc"/>
</svg>
