<svg xmlns="http://www.w3.org/2000/svg" viewBox="0 0 1024 1024">
   <circle cx="512" cy="512" r="512" style="fill:#ffe01b"/>
   <path d="M633.71 497.91a42.07 42.07 0 0 1 10.62 0c1.9-4.38 2.22-11.93.51-20.14-2.57-12.21-6-19.6-13.1-18.45s-7.4 10-4.83 22.21c1.43 6.86 4 12.74 6.82 16.37zm-61.13 9.66c5.11 2.24 8.23 3.72 9.45 2.44.79-.81.56-2.35-.64-4.34-2.52-4.13-7.7-8.29-13.19-10.62a35.85 35.85 0 0 0-34.93 4.19c-3.42 2.5-6.63 6-6.2 8.08.17.68.66 1.2 1.86 1.37 2.82.32 12.63-4.64 23.94-5.34 8-.49 14.62 2 19.71 4.25zm-10.26 5.86c-6.63 1.07-10.28 3.25-12.63 5.28-2 1.75-3.25 3.7-3.25 5.07l.51 1.22 1.09.43a20.24 20.24 0 0 0 4.87-1.37 42.22 42.22 0 0 1 21.38-2.22c3.31.38 4.92.6 5.62-.56a1.9 1.9 0 0 0-.17-2.14c-1.56-2.52-8.27-6.78-17.4-5.69zm50.77 21.5c4.49 2.22 9.45 1.35 11.07-1.92s-.73-7.78-5.24-10-9.45-1.35-11.07 1.92.72 7.8 5.23 10zm29-25.35c-3.66-.06-6.71 4-6.78 9s2.8 9.15 6.46 9.21 6.71-4 6.8-9-2.87-9.12-6.57-9.21zm-245.9 90.69c-.9-1.13-2.39-.79-3.85-.45a13.81 13.81 0 0 1-3.42.47 7.42 7.42 0 0 1-6.24-3.16c-1.67-2.57-1.56-6.39.26-10.77l.86-2c2.95-6.58 7.87-17.63 2.35-28.15-4.15-7.91-10.92-12.87-19.07-13.89a24.47 24.47 0 0 0-21 7.59c-8.1 8.93-9.36 21.12-7.78 25.44.58 1.56 1.47 2 2.12 2.09 1.39.19 3.42-.81 4.7-4.28l.36-1.11a33.35 33.35 0 0 1 3.36-7.91 14.71 14.71 0 0 1 20.35-4.29 14.41 14.41 0 0 1 5.45 17.34c-1.26 3.44-3.29 10-2.84 15.39.92 10.94 7.63 15.33 13.64 15.82 5.86.21 10-3.1 11-5.51a2.36 2.36 0 0 0-.21-2.67zm338.26-20c-.21-.79-1.67-6.11-3.68-12.53l-4.06-10.9c8-12 8.14-22.79 7.1-28.86-1.15-7.55-4.28-14-10.6-20.61s-19.24-13.47-37.41-18.55l-9.51-2.65c0-.38-.49-22.51-.92-32-.28-6.84-.88-17.57-4.19-28.11-4-14.3-10.84-26.78-19.45-34.78 23.73-24.62 38.54-51.77 38.5-75-.06-44.78-55-58.35-122.61-30.27l-14.32 6.09q-13.13-12.92-26.29-25.8c-77.16-67.42-318.3 201.1-241.22 266.33l16.86 14.28a83 83 0 0 0-4.7 38.33c1.82 18 11.05 35.14 26 48.44 14.21 12.61 32.92 20.63 51.06 20.61C405 723.5 473.55 766 553.92 768.39c86.23 2.57 158.6-38 189-110.77 2-5.13 10.39-28.15 10.39-48.46s-11.57-28.89-18.9-28.89zm-352.8 54.5a41.47 41.47 0 0 1-8 .58c-26-.71-54.16-24.18-57-52-3.1-30.78 12.61-54.46 40.4-60.06a47.45 47.45 0 0 1 11.69-.86c15.58.86 38.54 12.83 43.78 46.83 4.64 30.1-2.74 60.77-30.91 65.58zm-29.07-130c-17.31 3.36-32.58 13.19-41.9 26.76-5.58-4.66-16-13.68-17.81-17.19-14.9-28.32 16.25-83.41 38-114.51 53.8-76.86 138-135 177-124.49 6.33 1.8 27.32 26.16 27.32 26.16s-39 21.65-75.11 51.86c-48.69 37.64-85.48 92.2-107.52 151.45zm273.33 118.5a1.54 1.54 0 0 0 .9-1.52 1.43 1.43 0 0 0-1.57-1.28s-40.78 6-79.32-8.1c4.19-13.66 15.35-8.72 32.23-7.35a235.34 235.34 0 0 0 77.81-8.42c17.44-5 40.36-14.92 58.18-29a118.55 118.55 0 0 1 8.12 27.74 13.49 13.49 0 0 1 8.53 1.56c3.66 2.27 6.35 7 4.51 19.13-3.74 22.72-13.38 41.17-29.58 58.14a121.79 121.79 0 0 1-35.55 26.59 150 150 0 0 1-23.17 9.85c-61.09 20-123.63-2-143.79-49.16a76.57 76.57 0 0 1-4.06-11.16c-8.57-31.1-1.28-68.4 21.52-91.89 1.39-1.5 2.82-3.27 2.82-5.47 0-1.86-1.18-3.8-2.18-5.19-8-11.59-35.61-31.34-30.05-69.55 4-27.47 28-46.79 50.3-45.64l5.66.32c9.68.58 18.13 1.82 26.12 2.16 13.34.58 25.33-1.37 39.54-13.23 4.79-4 8.64-7.48 15.13-8.57a18.5 18.5 0 0 1 5.77-.56 19.07 19.07 0 0 1 9.75 3.12c11.39 7.59 13 26 13.59 39.44.34 7.7 1.26 26.25 1.58 31.59.73 12.18 3.91 13.89 10.39 16 3.63 1.22 7 2.12 12 3.51 15.07 4.25 24 8.55 29.65 14.09a18.59 18.59 0 0 1 5.41 10.62c1.8 13-10 29-41.42 43.63-34.31 15.95-75.88 20-104.63 16.78l-10.1-1.12c-23-3.1-36.1 26.65-22.32 47 8.89 13.15 33.13 21.7 57.35 21.7 55.58 0 98.28-23.75 114.16-44.29l1.28-1.82c.77-1.18.13-1.82-.86-1.15-13 8.89-70.62 44.22-132.31 33.58a80.94 80.94 0 0 1-14.3-3.84c-5.43-2.12-16.8-7.35-18.17-19 49.76 15.41 81.08.83 81.08.83zM547.08 614zm-95.2-214.39c19.13-22.14 42.66-41.38 63.74-52.18a.83.83 0 0 1 1.11 1.13c-1.69 3-4.92 9.55-5.92 14.47a.85.85 0 0 0 1.3.9c13.12-9 35.93-18.55 56-19.77a.88.88 0 0 1 .58 1.58 47.71 47.71 0 0 0-8.79 8.83.86.86 0 0 0 .66 1.37c14 .11 33.86 5 46.77 12.29.86.49.26 2.18-.73 2-19.54-4.49-51.51-7.91-84.73.21-29.65 7.25-52.28 18.43-68.78 30.46a.88.88 0 0 1-1.18-1.28z"/>
</svg>
