<svg xmlns="http://www.w3.org/2000/svg" viewBox="0 0 1024 1024">
   <circle cx="512" cy="512" r="512" style="fill:#999"/>
   <path d="M465 452a60.65 60.65 0 1 0 60.65 60.65A60.72 60.72 0 0 0 465 452Zm0 92.61a31.9 31.9 0 1 1 31.9-31.9A31.94 31.94 0 0 1 465 544.6ZM666.79 431a18.91 18.91 0 1 0-18.91-18.91A18.91 18.91 0 0 0 666.79 431ZM341.2 452c-1.58-.13-3.09-.19-4.67-.19a52.69 52.69 0 0 0-38.46 16.58 52.59 52.59 0 0 0-90.92 36v66.39h28.37v-65.52c0-12 9.9-23.14 21.56-24.33.82-.06 1.64-.13 2.4-.13a24 24 0 0 1 23.9 23.83v66.2h29v-65.7c0-12 9.84-23.07 21.56-24.27.82-.06 1.64-.13 2.4-.13a24 24 0 0 1 24 23.7v66.39h29v-65.56a53.84 53.84 0 0 0-13.81-36A51.73 51.73 0 0 0 341.2 452Zm229.12-56h-29v174.95h29Zm55.48 0h-29v174.95h29Zm55.48 58.88h-29v116h29Zm135.56 55A58 58 0 0 0 800 469a56.73 56.73 0 0 0-40.6-17.15h-.76a60.68 60.68 0 0 0 .82 121.36h.06a61 61 0 0 0 52.21-29.76l1.39-2.33-24-11.79-1.2 2a32.61 32.61 0 0 1-59.33-8.07h88.21Zm-58.57-31.71a31.12 31.12 0 0 1 29.26 21.06h-58.45a31 31 0 0 1 29.19-21.02Z" style="fill:#fff"/>
</svg>
