<svg xmlns="http://www.w3.org/2000/svg" viewBox="0 0 1024 1024">
   <circle cx="512" cy="512" r="512" style="fill:#e16259"/>
   <path d="m579.67 262.39-277.5 20.49c-22.38 1.94-30.17 16.57-30.17 34.1v304.21c0 13.66 4.85 25.34 16.55 40.96l65.23 84.82c10.72 13.66 20.46 16.58 40.92 15.61l322.25-19.51C744.2 741.13 752 728.44 752 707V364.76c0-11.08-4.38-14.28-17.27-23.74-.74-.53-1.48-1.07-2.22-1.6l-88.56-62.4c-21.43-15.58-30.19-17.55-64.28-14.63Zm-177.68 96.77c-26.31 1.77-32.28 2.17-47.22-9.98l-38-30.22c-3.86-3.91-1.92-8.79 7.81-9.76l266.76-19.49c22.4-1.96 34.07 5.85 42.83 12.67l45.75 33.15c1.96.99 6.82 6.82.97 6.82L405.4 358.93l-3.41.23Zm-30.67 344.91V413.54c0-12.69 3.89-18.54 15.56-19.52l316.41-18.52c10.73-.97 15.58 5.85 15.58 18.52v288.6c0 12.69-1.96 23.42-19.47 24.39l-302.79 17.55c-17.52.97-25.29-4.86-25.29-20.48Zm298.89-274.95c1.94 8.78 0 17.55-8.78 18.56l-14.59 2.89v214.51c-12.67 6.82-24.34 10.72-34.09 10.72-15.58 0-19.47-4.88-31.14-19.49l-95.43-150.15v145.27l30.19 6.84s0 17.55-24.36 17.55l-67.15 3.89c-1.96-3.91 0-13.66 6.8-15.6l17.54-4.86V467.18l-24.34-1.97c-1.96-8.78 2.91-21.45 16.55-22.43l72.05-4.85 99.3 152.09V455.47l-25.31-2.91c-1.96-10.75 5.83-18.56 15.56-19.51l67.2-3.91Z" style="fill:#fff"/>
</svg>
