<svg xmlns="http://www.w3.org/2000/svg" viewBox="0 0 1024 1024">
   <circle cx="512" cy="512" r="512" style="fill:#f97316"/>
   <path d="M456.67 735v-1.22c-12.23-1-25-3.28-36.5-7.58-84.18-31.45-94.9-139.38-94.9-216.28 0-15.06 1.23-30 2.33-45 1.76-24.07 5.59-48.77 13.09-71.78 16.91-51.91 56.17-99.68 114.76-102.2-9.93-4.17-26.14-.63-36.5 1.12-47.62 8-80.51 41.25-97.56 85.26-27.13 70-26.49 157.16-11.94 229.94 6.59 33 19.25 68.31 43.91 92.26C382.13 727.47 417.92 735 456.67 735m46.23 0v-1.22a140.29 140.29 0 0 1-38.9-8.58c-82.3-31.5-92.5-140.09-92.5-215.27a410.86 410.86 0 0 1 3.13-53.53c2.74-20.62 5.89-40.78 11.64-60.83 15.21-53.05 56.7-102.11 115.41-104.63-10.08-4.23-26-.45-36.5 1.32-47.57 8-80.48 41-97.56 85.07-28 72.21-28 166.39-9.35 240.89 9.09 36.36 25.51 72.13 57 94.36C441.45 731 471.74 735 502.9 735m46.23 0v-1.22C435 724.79 409.91 585.73 418.74 492.9c1.16-12.14.47-24.36 2.12-36.5 2.81-20.62 5.89-40.77 11.64-60.83 15.2-53 56.79-102.11 115.41-104.63-10.08-4.23-26-.45-36.5 1.32-48.61 8.19-80.16 41.78-97.82 86.28-13.63 34.35-17.43 71.74-19 108.28-3.5 79.87.69 202.19 88.86 237.91 21.14 8.56 43.16 10.28 65.7 10.28m20.68-444.77c-35.37 4.66-66.07 15.93-88.23 45.72-18.89 25.39-28.31 55.72-34.4 86.38-3.85 19.39-5.09 38.77-6.44 58.4-6.21 90.73 3.6 234.82 116.91 252.52 15.33 2.4 30.88 2.1 46.23.19 51.4-6.4 86.63-44.67 102.6-92.12 16.88-50.16 20.33-105.7 16.74-158.16-2.44-35.68-6-70.72-18.42-104.63-20.83-56.82-72.49-96.53-135-88.3m3.65 42.41c46.51-5.56 75 33 88 72.65 14.45 43.9 16.22 93 13.09 138.7-1.77 25.76-3.55 51.82-11.48 76.65-11.38 35.64-33.79 67.7-73.8 71.57-47 4.55-74-34.17-87.19-74-14.69-44.22-15.84-93.87-12.68-139.92 1.69-24.61 3.74-49.25 11.09-73 11.21-36.2 32.82-67.85 73-72.65z" style="fill:#fff"/>
</svg>
