<svg xmlns="http://www.w3.org/2000/svg" viewBox="0 0 1024 1024">
   <circle cx="512" cy="512" r="512" style="fill:#fa6831"/>
   <path d="M245.18 413.84h28.69q11.65 0 19.82-3.39a37.1 37.1 0 0 0 13.3-9 34.3 34.3 0 0 0 7.48-12.78 47.43 47.43 0 0 0 0-29.47 34.45 34.45 0 0 0-7.47-12.65 37.1 37.1 0 0 0-13.3-9q-8.18-3.39-19.82-3.39h-56v124.19h27.3Zm0-58.42h21.21a57.28 57.28 0 0 1 9 .7 21.11 21.11 0 0 1 7.65 2.7 14.71 14.71 0 0 1 5.3 5.65 23.87 23.87 0 0 1 0 19.13 14.69 14.69 0 0 1-5.3 5.65 21 21 0 0 1-7.65 2.7 57 57 0 0 1-9 .7h-21.21Zm115.62 54.42h27.3q10.26 0 14.78 4.52t5.91 14.26q1 7.48 1.56 15.65a48.07 48.07 0 0 0 2.78 14.08h27.3a18.2 18.2 0 0 1-2.87-6.35 54.82 54.82 0 0 1-1.39-7.91q-.43-4.17-.61-8.17t-.35-7a75.28 75.28 0 0 0-1.3-9.39 31.69 31.69 0 0 0-3-8.61 23.64 23.64 0 0 0-5.39-6.78 21.06 21.06 0 0 0-8.34-4.26v-.35q10.44-4.17 15-12.17t4.61-19a34.88 34.88 0 0 0-2.52-13.3 32.07 32.07 0 0 0-7.3-10.87 34.65 34.65 0 0 0-11.47-7.39 40 40 0 0 0-15-2.7h-67v124.25h27.3Zm0-54.42h29.91q9.39 0 14.08 4.09t4.69 13.13q0 9.39-4.69 13.56t-14.08 4.17H360.8ZM472 449q-13.82-12.17-13.82-37.56V334.2h27.3v77.2a56 56 0 0 0 .87 9.91A19.27 19.27 0 0 0 497.73 436q5 2.35 13.3 2.35 14.61 0 20.17-6.52t5.57-20.43v-77.2h27.3v77.2q0 25.21-14.08 37.47T511 461.13q-25.18 0-39-12.13Zm183-16.6a12 12 0 0 0 2.43-7.74 10.89 10.89 0 0 0-3.22-8.17 25.55 25.55 0 0 0-8.43-5.22 84.34 84.34 0 0 0-11.78-3.69q-6.61-1.56-13.39-3.48a118.71 118.71 0 0 1-13.61-4.26 46.51 46.51 0 0 1-11.82-6.52 30.72 30.72 0 0 1-8.43-10 30.32 30.32 0 0 1-3.22-14.52 32.49 32.49 0 0 1 4.09-16.6 37 37 0 0 1 10.69-11.74 46.62 46.62 0 0 1 15-7 63.64 63.64 0 0 1 16.69-2.21 78.94 78.94 0 0 1 18.69 2.17 46.67 46.67 0 0 1 15.91 7 35.66 35.66 0 0 1 11 12.43q4.08 7.56 4.09 18.34h-26.44a22 22 0 0 0-2.35-9.22 15.38 15.38 0 0 0-5.3-5.74 22.42 22.42 0 0 0-7.56-3 46.53 46.53 0 0 0-9.3-.87 32 32 0 0 0-6.61.7 17.69 17.69 0 0 0-6 2.43 15.07 15.07 0 0 0-4.43 4.35 11.68 11.68 0 0 0-1.74 6.61 11.15 11.15 0 0 0 1.39 5.91q1.39 2.26 5.48 4.17a69.91 69.91 0 0 0 11.3 3.83q7.21 1.91 18.87 4.87 3.48.7 9.65 2.52a46.29 46.29 0 0 1 12.26 5.82 37.07 37.07 0 0 1 10.52 10.69q4.43 6.7 4.43 17.13a38 38 0 0 1-3.3 15.82 34.42 34.42 0 0 1-9.83 12.61 47.23 47.23 0 0 1-16.17 8.26 76.49 76.49 0 0 1-22.34 3 78.56 78.56 0 0 1-19.91-2.52 50 50 0 0 1-17-7.91A39.06 39.06 0 0 1 583.53 437q-4.35-8.35-4.17-19.82h26.43a22.75 22.75 0 0 0 2.21 10.57 19.71 19.71 0 0 0 6 7 25.91 25.91 0 0 0 8.78 4 41.48 41.48 0 0 0 10.43 1.3 54.27 54.27 0 0 0 7.82-.61 27.13 27.13 0 0 0 7.82-2.35 17.08 17.08 0 0 0 6.15-4.73Zm68.85-1.65h46.43l9.39 27.65H808l-46.42-124.2h-28l-46.95 124.15h27.47Zm23.3-65.9h.35l15.65 45.55H731ZM280.31 540.37h-16.82v-19.66h16.82q5.28 0 7.92 2.3t2.64 7.39q0 5.28-2.64 7.63t-7.92 2.34Zm326.86 0h-16.83v-19.66h16.82q5.28 0 7.92 2.3t2.64 7.39q0 5.28-2.64 7.63t-7.92 2.34Zm-63.28 11.25h-18.1l9.1-25.62h.2Zm-326.41 61.77h589.71V472.84H217.48Zm500.2-104.61H733v26.8h28.3v-26.8h15.36v69.83H761.3v-30.12H733v30.12h-15.32Zm-73 20.69a34.89 34.89 0 0 1 6.75-11.69 30.88 30.88 0 0 1 10.85-7.78 37.44 37.44 0 0 1 25.33-1.17 29.58 29.58 0 0 1 9.2 4.84 26.19 26.19 0 0 1 6.7 7.87 28.22 28.22 0 0 1 3.33 10.76H692a12.6 12.6 0 0 0-1.76-4.84 15.39 15.39 0 0 0-3.42-3.86 16 16 0 0 0-10.12-3.6 17.93 17.93 0 0 0-8.8 2 16.63 16.63 0 0 0-5.87 5.38 23.58 23.58 0 0 0-3.28 7.68 38.22 38.22 0 0 0-1 8.9 35.53 35.53 0 0 0 1 8.56A23.09 23.09 0 0 0 662 560a16.76 16.76 0 0 0 5.87 5.33 17.91 17.91 0 0 0 8.8 2q7 0 11-4.3a19.9 19.9 0 0 0 4.84-11.35h14.86a35.5 35.5 0 0 1-3 11.83 28.31 28.31 0 0 1-6.46 9 27.45 27.45 0 0 1-9.39 5.67 34.41 34.41 0 0 1-11.84 2 35.81 35.81 0 0 1-14.42-2.79 30.93 30.93 0 0 1-10.81-7.68 34 34 0 0 1-6.75-11.49 42.19 42.19 0 0 1-2.33-14.22 43.63 43.63 0 0 1 2.35-14.53ZM575 508.78h37.65a22.48 22.48 0 0 1 8.46 1.51 19.54 19.54 0 0 1 6.46 4.16 18.12 18.12 0 0 1 4.11 6.11 19.65 19.65 0 0 1 1.42 7.48 21 21 0 0 1-2.59 10.66 16.29 16.29 0 0 1-8.46 6.85v.2a11.84 11.84 0 0 1 4.69 2.4 13.25 13.25 0 0 1 3 3.81 17.77 17.77 0 0 1 1.71 4.84 42.77 42.77 0 0 1 .73 5.28q.1 1.66.2 3.91t.34 4.6a30.5 30.5 0 0 0 .78 4.45 10.23 10.23 0 0 0 1.61 3.57h-15.33a27.06 27.06 0 0 1-1.56-7.92q-.29-4.6-.88-8.8-.78-5.48-3.33-8t-8.31-2.54h-15.36v27.29H575Zm-47.73 0H543l26.11 69.83h-15.93l-5.28-15.55h-26.12l-5.48 15.55h-15.45Zm-82.25 0h52.23v12.91h-36.89v15h33.84v11.93h-33.84v17.08H498v12.91h-53ZM419.43 555a14.34 14.34 0 0 0-4.74-2.93 47.35 47.35 0 0 0-6.65-2.05q-3.72-.88-7.53-2a66 66 0 0 1-7.63-2.4 26.14 26.14 0 0 1-6.65-3.67 17.26 17.26 0 0 1-4.74-5.62 17.07 17.07 0 0 1-1.81-8.17 18.29 18.29 0 0 1 2.3-9.34 20.82 20.82 0 0 1 6-6.6 26.21 26.21 0 0 1 8.41-3.91 35.78 35.78 0 0 1 9.39-1.27 44.56 44.56 0 0 1 10.51 1.22 26.28 26.28 0 0 1 8.95 4 20.08 20.08 0 0 1 6.21 7 21.48 21.48 0 0 1 2.3 10.32H418.9a12.38 12.38 0 0 0-1.32-5.18 8.68 8.68 0 0 0-3-3.23 12.67 12.67 0 0 0-4.25-1.66 26.21 26.21 0 0 0-5.23-.49 18 18 0 0 0-3.72.39 9.92 9.92 0 0 0-3.37 1.37 8.45 8.45 0 0 0-2.5 2.45 6.57 6.57 0 0 0-1 3.72 6.25 6.25 0 0 0 .78 3.33 7 7 0 0 0 3.08 2.35 39 39 0 0 0 6.36 2.15q4.06 1.08 10.61 2.74 2 .39 5.43 1.42a26.05 26.05 0 0 1 6.9 3.28 20.91 20.91 0 0 1 5.92 6 17.14 17.14 0 0 1 2.49 9.63 21.37 21.37 0 0 1-1.86 8.9 19.33 19.33 0 0 1-5.52 7.09 26.55 26.55 0 0 1-9.1 4.65 43 43 0 0 1-12.57 1.66 44.11 44.11 0 0 1-11.2-1.42 28.1 28.1 0 0 1-9.58-4.45 21.94 21.94 0 0 1-6.6-7.73 23 23 0 0 1-2.35-11.15h14.87a12.81 12.81 0 0 0 1.27 6 11.09 11.09 0 0 0 3.38 4 14.52 14.52 0 0 0 4.94 2.25 23.33 23.33 0 0 0 5.87.73A30.58 30.58 0 0 0 412 568a15.31 15.31 0 0 0 4.4-1.32 9.58 9.58 0 0 0 3.42-2.69 6.75 6.75 0 0 0 1.37-4.35 6.13 6.13 0 0 0-1.76-4.64Zm-100.88-46.22h52.23v12.91H333.9v15h33.84v11.93H333.9v17.08h37.65v12.91h-53Zm-70.42 0h37.65a22.48 22.48 0 0 1 8.46 1.51 19.53 19.53 0 0 1 6.45 4.16 18.06 18.06 0 0 1 4.11 6.11 19.61 19.61 0 0 1 1.42 7.48 21 21 0 0 1-2.59 10.66 16.29 16.29 0 0 1-8.46 6.85v.2a11.86 11.86 0 0 1 4.69 2.4 13.32 13.32 0 0 1 3 3.81 17.76 17.76 0 0 1 1.71 4.84 42.37 42.37 0 0 1 .73 5.28q.09 1.66.2 3.91t.34 4.6a30.19 30.19 0 0 0 .78 4.45 10.22 10.22 0 0 0 1.61 3.57h-15.31a27.07 27.07 0 0 1-1.56-7.92q-.29-4.6-.88-8.8-.78-5.48-3.32-8t-8.31-2.54h-15.36v27.29h-15.36Zm-18.07 147.67a8.34 8.34 0 0 0-4.61 1.17 9.75 9.75 0 0 0-2.8 2.71v-12.24H216v34.37h6.56v-3.2a10.07 10.07 0 0 0 2.49 2.61 10.22 10.22 0 0 0 13-2.64 16.38 16.38 0 0 0 2.82-9.83 14.63 14.63 0 0 0-2.86-9.34 9.51 9.51 0 0 0-7.95-3.61Zm2.35 19.12a4.61 4.61 0 0 1-4 2.08 5 5 0 0 1-4.45-2.15 9.42 9.42 0 0 1-1.46-5.42 12.29 12.29 0 0 1 .71-4.53 5 5 0 0 1 5-3.29 4.92 4.92 0 0 1 4.94 3.36 12.2 12.2 0 0 1 .71 4.48 9.43 9.43 0 0 1-1.46 5.47ZM261 657h7.07l-8.72 25q-2.53 7.24-4 9t-5.89 1.74h-1.42l-1.61-.08v-5.32h.84a10.74 10.74 0 0 0 1.87-.07 3.38 3.38 0 0 0 1.49-.54 3.62 3.62 0 0 0 1.09-1.66 4 4 0 0 0 .43-1.54L242.81 657h7.4l5.56 18.77Zm45-27.74h11.11v37q0 6.78-2.29 10.75-3.88 6.71-14 6.71t-13.58-5.43q-3.46-5.43-3.46-14.81v-1.23h10.5v1.23q.14 6.17 1.27 8.68t4.86 2.51q3.69 0 4.88-2.74a15 15 0 0 0 .71-5.48Zm46.4-1.62q-11.4 0-17.43 6.21-7.97 7.33-7.97 21.94 0 14.32 8.08 21.94 6 6.21 17.43 6.21t17.43-6.21q8-7.61 8-21.94 0-14.61-8-21.94-6.08-6.2-17.48-6.2Zm10.48 42a12.69 12.69 0 0 1-10.48 4.87 12.84 12.84 0 0 1-10.53-4.87q-3.87-4.87-3.87-13.85t3.93-13.86a12.84 12.84 0 0 1 10.53-4.87 12.68 12.68 0 0 1 10.49 4.94q3.88 4.89 3.88 13.84t-3.88 13.81Zm65-2.74a15.26 15.26 0 0 1-5.6 12.1q-5.63 4.82-15.92 4.82-10.5 0-16.52-4.74t-6-13h10.61a10.76 10.76 0 0 0 2 5.45q2.76 3.29 9.47 3.28a20.43 20.43 0 0 0 6.52-.87q4.75-1.66 4.75-6.17a4.55 4.55 0 0 0-2.33-4.08 25.23 25.23 0 0 0-7.38-2.49l-5.76-1.26q-8.49-1.87-11.66-4.08-5.38-3.68-5.38-11.51a15.29 15.29 0 0 1 5.26-11.87q5.26-4.73 15.45-4.73a23.69 23.69 0 0 1 14.52 4.46q6 4.46 6.3 12.94h-10.67a7.62 7.62 0 0 0-4.29-6.82 14.72 14.72 0 0 0-6.62-1.33 12.59 12.59 0 0 0-7 1.73 5.48 5.48 0 0 0-2.63 4.83 4.56 4.56 0 0 0 2.59 4.26 32.12 32.12 0 0 0 7.07 2.2l9.33 2.2q6.14 1.44 9.2 3.86 4.72 3.72 4.72 10.82Zm19 6h29.44v9.56H436v-53.19h39v9.42h-28.11V650h25.84v9.24h-25.84ZM485 629.34h37.92v9.34H496v12.23h23.6v9.24H496v22.3h-11Zm101.35 4q-4.7-4.11-12.59-4.11h-22.84v53.19h11v-19.09H573q8.67 0 13.34-3.9t4.66-13.31q0-8.62-4.66-12.74Zm-8.46 18.87a8.49 8.49 0 0 1-5.91 1.91H562v-15.61h10a9 9 0 0 1 5.91 1.77Q580 642 580 646.19t-2.11 6.06Zm63.6 25.83a26.86 26.86 0 0 1-.29-4.94v-3.57q0-5.59-1.53-8.32a9.92 9.92 0 0 0-5.21-4.21 10.67 10.67 0 0 0 6.31-5.18 15.92 15.92 0 0 0 1.91-7.45 14.92 14.92 0 0 0-1-5.59 16.6 16.6 0 0 0-2.68-4.47 13.13 13.13 0 0 0-5-3.72 23.16 23.16 0 0 0-8.39-1.37H600.2v53.19h10.86V661.6h10.85q4.64 0 6.33 1.7t1.76 6.79l.07 4.94a26.12 26.12 0 0 0 .47 4.58q.22 1.08.72 2.85h12.27v-1.33a4.43 4.43 0 0 1-2.04-3.04Zm-13.11-26.16a12.72 12.72 0 0 1-5.35.87h-12v-14.24h12.27a11 11 0 0 1 5.14.94q3 1.66 3 6.49.08 4.48-3.07 5.99Zm56.34-22.66H696V662q0 8.48-2.63 13.21-4.9 8.66-18.69 8.66t-18.73-8.66q-2.63-4.73-2.63-13.21v-32.73h11.29v32.66q0 5.48 1.3 8 2 4.47 8.77 4.47t8.74-4.47q1.3-2.52 1.3-8Zm63.47 37.63a15.26 15.26 0 0 1-5.65 12.15q-5.64 4.82-15.92 4.82-10.5 0-16.52-4.74t-6-13h10.61a10.76 10.76 0 0 0 2 5.45q2.76 3.29 9.47 3.28a20.4 20.4 0 0 0 6.52-.87q4.75-1.66 4.75-6.17a4.55 4.55 0 0 0-2.33-4.08 25.22 25.22 0 0 0-7.39-2.49l-5.73-1.3q-8.49-1.87-11.66-4.08-5.38-3.68-5.37-11.51a15.28 15.28 0 0 1 5.26-11.87q5.26-4.73 15.45-4.73a23.69 23.69 0 0 1 14.52 4.46q6 4.46 6.3 12.94h-10.7a7.62 7.62 0 0 0-4.29-6.82 14.71 14.71 0 0 0-6.62-1.33 12.6 12.6 0 0 0-7 1.73 5.48 5.48 0 0 0-2.63 4.83 4.56 4.56 0 0 0 2.59 4.26 32 32 0 0 0 7.07 2.2l9.33 2.2q6.13 1.44 9.2 3.86 4.73 3.76 4.73 10.86Zm23-37.63-19 53.19h11.62l3.6-10.93H787l3.51 10.93h12.05l-18.82-53.19Zm-.73 33.09 6.9-20.93 6.72 20.93Z" style="fill:#fff"/>
</svg>
