<svg xmlns="http://www.w3.org/2000/svg" viewBox="0 0 1024 1024">
   <circle cx="512" cy="512" r="512" style="fill:#196ef0"/>
   <path d="M822.54 547.79c-1.55-2-3-2.26-5.15-.92-5.93 3.7-13.15 6.08-24.67 6.08-12.93 0-18.66-4.23-21.05-11.63-.82-2.51 1.06-5.1 3.71-5.1h44.64c4.84 0 10.08-5.6 10.08-10.44v-18.32c0-5.55-3.24-10.91-6.79-15.18-5.74-6.89-15.21-11.06-30.73-11.06-37.49 0-45.55 21.22-45.55 45.7s7.74 45.7 45.7 45.7c17.35 0 28.5-3.41 39.81-11.93l-9.99-12.9v.03Zm-51.98-32.83v-3.71c0-5.38 4.36-9.75 9.75-9.75h19.39c5.38 0 9.75 4.36 9.75 9.75v7.6h-34.99c-2.76 0-3.9-1.14-3.9-3.9Zm-469.28-35.63v64.32c0 19.52 6.81 27.58 30.52 27.58 4.34 0 10.85 0 14.41-.31v-16.35c0-2.76-1.14-3.9-3.9-3.9-1.85-.01-3.7-.03-5.55-.04-10.39 0-11.31-3.72-11.31-10.53v-32.2c0-2.76 1.14-3.9 3.9-3.9h12.97c2.76 0 3.9-1.14 3.9-3.9v-12.97c0-2.76-1.14-3.9-3.9-3.9h-12.97c-2.76 0-3.9-1.14-3.9-3.9v-19.3c0-2.76-1.14-3.9-3.9-3.9h-16.37c-2.76 0-3.9 1.14-3.9 3.9v19.31Zm-67.34 47.74v-67.05c0-2.76-1.14-3.9-3.9-3.9h-16.83c-2.76 0-3.9 1.14-3.9 3.9v63.8c0 17.66-4.49 26.8-27.58 26.8s-27.42-9.76-27.42-26.8v-63.8c0-2.76-1.14-3.9-3.9-3.9h-17.6c-2.76 0-3.9 1.14-3.9 3.9v67.05c0 21.99 4.02 46.01 52.52 46.01s52.52-24.02 52.52-46.01h-.01Zm659.07-21.53c2.76 0 3.9-1.14 3.9-3.9v-14.73c0-2.73-1.13-3.87-3.86-3.9-3.84-.04-7.71.52-11.34 1.75-4.82 1.66-9.22 4.55-12.84 8.07-.57-2.23-1.16-4.46-1.73-6.67-.54-2.12-1.59-2.92-3.78-2.92h-11.98c-2.76 0-3.9 1.14-3.9 3.9v79.88c0 2.76 1.14 3.9 3.9 3.9h20.43v-45.89c0-10.77 8.73-19.49 19.49-19.49h1.7Zm-504.75 65.38v-83.78c0-2.76-1.14-3.9-3.9-3.9h-16.37c-2.76 0-3.9 1.14-3.9 3.9v79.88c0 2.76 1.14 3.9 3.9 3.9h20.27Zm-108.65.3v-111.2c0-2.76-1.14-3.9-3.9-3.9h-16.22c-2.76 0-3.9 1.14-3.9 3.9v107.31c0 2.76 1.14 3.9 3.9 3.9h20.12Zm96.56-96.13c6.76 0 12.23-5.48 12.23-12.23s-5.48-12.23-12.23-12.23-12.23 5.48-12.23 12.23 5.48 12.23 12.23 12.23Zm223.92 6.13c-10.78 0-20.54 2.23-28.04 4.91-3.22 1.16-6.04 2.39-8.32 3.57a3.891 3.891 0 0 0-1.43 5.65c2.58 3.81 5.17 7.61 7.75 11.42 1.39 2.04 2.79 2.41 4.99 1.29 5.48-2.77 13.52-5.46 22.43-5.46 13.76 0 16.71 3.32 17.25 9.81.12 1.47-.46 2.11-1.94 2.11h-28.52c-16.15 0-29.24 13.09-29.24 29.24v1.43c0 15.33 5.89 27.1 33 27.1h50.2v-56.22c0-24.79-6.51-34.85-38.11-34.85h-.01Zm14.72 71.56c-8.99-.03-17.98-.05-26.97-.1-5.38 0-9.75-4.36-9.75-9.75v-1.94c0-5.38 4.36-9.75 9.75-9.75h23.07c2.76 0 3.9 1.14 3.9 3.9v17.63Zm70.61-3.64 8.37-9.96c1.11-1.32 2.2-1.25 3.14.2l18.96 29.73c.83 1.29 1.75 1.81 3.29 1.81H744c-10.19-16.5-20.4-33.02-30.6-49.52-1.06-1.73-.98-2.96.3-4.53 7.47-9.08 14.95-18.17 22.41-27.25 2.09-2.54.28-6.37-3.02-6.37H716.7c-1.31 0-2.18.41-3 1.41-8.43 10.22-16.86 20.43-25.29 30.65-1.47 1.78-3.45 1.06-3.45-1.24v-54.06c0-2.76-1.14-3.9-3.9-3.9h-16.22c-2.76 0-3.9 1.14-3.9 3.9v107c0 2.7 1.1 3.83 3.8 3.9h20.21V550.4c0-.5.14-.87.47-1.25h-.02Zm-247.96-45.11c8.65 21.48 17.29 42.95 25.94 64.44.71 1.77 1.71 2.45 3.62 2.45h13.95c1.92 0 2.91-.67 3.62-2.45 8.65-21.5 17.29-43.02 25.94-64.52.94-2.34 3.83-1.74 3.75.79l.15 62.28c0 2.76 1.14 3.9 3.9 3.9h20.89V465.86c0-5.38-4.36-9.75-9.75-9.75h-16.66c-4.84 0-7.34 1.71-9.09 6.23-8.96 22.58-17.92 45.17-26.87 67.74-.82 2.05-2.65 2.09-3.58.1-8.96-22.65-17.92-45.29-26.87-67.92-1.77-4.46-4.26-6.14-9.05-6.14h-16.79c-5.38 0-9.75 4.36-9.75 9.75v101.15c0 2.76 1.14 3.9 3.9 3.9h19.03v-66.15c0-2.5 2.83-3.06 3.75-.73h-.01Z" style="fill:#fff"/>
</svg>
