<svg xmlns="http://www.w3.org/2000/svg" viewBox="0 0 1024 1024">
   <circle cx="512" cy="512" r="512" style="fill:#fc3f1d"/>
   <path d="M259.44 428.21h-12.9c-23.64 0-36.06 11.86-36.06 29.42 0 19.93 8.6 29.18 26.27 41l14.57 9.73-42 62.4H178L215.73 515c-21.73-15.42-33.91-30.37-33.91-55.76 0-31.79 22.21-53.38 64.48-53.38h42v164.9h-28.9ZM522.63 548.5h12.66v49.59H509v-27.28h-63.75v27.29H419v-49.6h8.84c10-19.93 11.94-57.65 11.94-86.84v-10.2h82.87Zm-28.42-74.74h-30.09v3.56c0 20.64-2.15 53.15-10 71.18h40.12Zm-115.59 24.92h-38v-47.22h-28.4V570.8h28.42V521h38v49.8H407V451.46h-28.38Zm439.92-27.28c11 0 21.73 3.8 27.47 7.35v-24c-6-3.32-16.48-5.69-30.57-5.69-36.3 0-55.17 25.86-55.17 62.16 0 39.86 18.39 61.93 56.36 61.93 13.14 0 22.45-2.37 29.38-7.35v-23c-7.16 5-15.76 8.07-27.7 8.07-20.3 0-28.66-15.66-28.66-40.33 0-25.86 10.27-39.15 28.9-39.15m-62.09-19.93h-28.68l-40.12 55v-55h-28.42v119.35h28.42V512.2l42 58.6h32.24l-45.62-64.3Zm-163.12-2.37c28.42 0 46.81 15.66 46.81 57.18v14.95h-68.56c1.19 19.93 9.08 29.66 29.85 29.66 13.85 0 28.66-5.22 37.5-11.15v23c-8.36 5.69-21.73 10.44-39.88 10.44-36.3 0-56.84-20.17-56.84-61.69 0-36.06 16.48-62.4 51.11-62.4m17.9 48.92c0-14.95-4.3-26.57-18.39-26.57-13.61 0-20.54 10-21.26 28.95h39.64Z" style="fill:#fff"/>
</svg>
