<svg xmlns="http://www.w3.org/2000/svg" viewBox="0 0 1024 1024">
   <circle cx="512" cy="512" r="512" style="fill:#e83355"/>
   <path d="M424.4 468.9c24 0 40 16.2 40 41.4s-16 41.4-40 41.4c-10 0-18.7-3.9-23.7-9.4v42.4L383 595.1V469.9h17.7v8.4c5.2-5 13.1-9.4 23.7-9.4zM210.2 429v49.2c5-5.5 13.7-9.4 23.7-9.4 24 0 40 16.2 40 41.4s-16 41.4-40 41.4c-10.6 0-18.5-4.4-23.7-9.4v8.4h-17.7V439.2l17.7-10.2zm136.7-.1v41H365V487h-18.1v28.5c0 9.9 8.2 18.1 18.1 18.1v18.1c-19.8 0-36.1-16.2-36.1-36.2v-76.3l18-10.3zm167.8 40c10.6 0 19.7 5 23.1 9.4v-8.4h18.1v80.9h-18.1v-8.4c-3.4 4.4-12.3 9.4-23.1 9.4-23.1 0-40.5-17.1-40.5-41.4 0-24.4 17.5-41.5 40.5-41.5zm223-39.9v121.7H720v-8.4c-5.2 5-13.1 9.4-23.7 9.4-24 0-40-16.2-40-41.4s16-41.4 40-41.4c10 0 18.7 3.9 23.7 9.4v-39.1l17.7-10.2zm52.8 39.9c10.6 0 19.7 5 23.1 9.4v-8.4h18.1v80.9h-18.1v-8.4c-3.4 4.4-12.3 9.4-23.1 9.4-23.1 0-40.5-17.1-40.5-41.4 0-24.4 17.4-41.5 40.5-41.5zm-483.8 1v80.9H289v-80.9h17.7zm307.7-1c20 0 31 11.8 31 33.3v48.5h-17.7v-44.6c0-14.2-6-20.4-17.6-20.4-11.6 0-17.7 8.4-17.7 20.4v44.6h-17.7v-80.9h17.7v9.2c3.6-4.8 10.9-10.1 22-10.1zM233.1 486c-14 0-23.2 10.3-23.2 24.3 0 13.9 9.2 24.3 23.2 24.3s23.4-10.3 23.4-24.3c-.1-13.9-9.4-24.3-23.4-24.3zm190.5 0c-14 0-23.2 10.3-23.2 24.3 0 13.9 9.2 24.3 23.2 24.3s23.4-10.3 23.4-24.3c0-13.9-9.4-24.3-23.4-24.3zm91.8 0c-13.4 0-23.7 11-23.7 24.3s10.3 24.3 23.7 24.3c13.1 0 23.1-11 23.1-24.3-.1-13.3-10.1-24.3-23.1-24.3zm181.6 0c-14 0-23.4 10.3-23.4 24.3 0 13.9 9.4 24.3 23.4 24.3s23.2-10.3 23.2-24.3c0-13.9-9.2-24.3-23.2-24.3zm94.1 0c-13.4 0-23.7 11-23.7 24.3s10.3 24.3 23.7 24.3c13.1 0 23.1-11 23.1-24.3s-10-24.3-23.1-24.3zm-493.2-49.4c6.6 0 11.9 5.3 11.9 12.1s-5.3 12.1-11.9 12.1c-6.6 0-11.9-5.3-11.9-12.1-.1-6.8 5.3-12.1 11.9-12.1z" style="fill:#fff"/>
</svg>
