<svg xmlns="http://www.w3.org/2000/svg" viewBox="0 0 1024 1024">
   <circle cx="512" cy="512" r="512" style="fill:#f79421"/>
   <path d="M735.6 566c0 4.8-3.9 8.7-8.7 8.7H334.5c-4.8 0-8.7-3.9-8.7-8.7 0-4.8 3.9-8.7 8.7-8.7h392.3c4.9 0 8.8 3.9 8.8 8.7zm-228.2 85c-1.9-1.9-3.9-3.6-6-5.3-21.9 4.5-39.9 19.5-48.4 39.6 6.2 1.4 11.7 4.8 15.7 9.6.7.9 1.4 1.8 2 2.7 2.3 3.5 3.9 7.5 4.5 11.9 0 .2.1.4.1.6.1.9.2 1.8.2 2.7v1.3c.1 3.6.8 7 2.1 10.2 2.3 5.8 6.4 10.6 11.6 13.8 4.4 2.7 9.6 4.3 15.2 4.3 14.1 0 25.9-10.1 28.4-23.5.2-1.1.4-2.2.5-3.4v-2.7c0-9.9-1.7-19.4-4.7-28.2a87.88 87.88 0 0 0-21.2-33.6zm219.4-60.7H334.5c-4.8 0-8.7 3.9-8.7 8.7 0 4.8 3.9 8.7 8.7 8.7h328.1v48.5l25-14.5 25 14.5v-48.5h14.2c4.8 0 8.7-3.9 8.7-8.7.1-4.8-3.8-8.7-8.7-8.7zm-90.6-46.7c2.3-1.5 4.4-3.1 6.5-4.6h-1.6c-1.6 1.5-3.3 3-4.9 4.6zm145.2-77.1c-.4-2.5-1.1-4.9-1.9-7.2-.2-.1-.3-.3-.5-.4-.2-.1-.3-.3-.5-.4-.8-.7-1.6-1.4-2.4-2.2s-1.6-1.5-2.3-2.3c-2.1 1.3-3.8 3-5.1 5.2-1.2 2.1-1.9 4.6-1.9 7.2 0 4 1.6 7.6 4.2 10.2 2.6 2.6 6.2 4.2 10.2 4.2h.2c0-.3.1-.6.2-.9.1-.3.1-.6.1-.9.1-.8.2-1.6.2-2.4 0-.8.1-1.6.1-2.5.1-2.6-.1-5.1-.6-7.6zm-.9 19.1c-2.6 9.8-8.4 18.3-16.3 24.2-.4.3-.8.5-1.2.8-.3.2-.6.4-.9.7-3.5 2.8-6.2 6.6-7.5 11-.1.3-.2.7-.3 1.1-2.9 9.1-11.5 15.6-21.5 15.6h-90c1.8-1.3 3.7-2.6 5.6-3.7 2.1-1.3 4.1-2.6 6.2-3.8l6.5-3.4c8.8-4.2 17.7-8 27.1-10.8 9.3-2.9 18.8-5.1 28.4-6.9 4.8-.9 9.6-1.6 14.5-2.2 4.9-.7 9.7-1.1 14.7-1.5-9.9-.9-19.8-.4-29.6.8-9.9 1.1-19.6 3.3-29.1 6.2-9.5 2.9-18.7 6.9-27.3 11.8-6.7 3.7-12.9 8.4-18.6 13.5H343.7c-24.1 0-43.5 19.5-43.5 43.5 0 1 0 2 .1 2.9 1.5 22.4 20 40.2 42.7 40.5h103.4c8.4 0 16.6 1.2 24.4 3.5 8.3 2.4 16.1 6.1 23.2 10.8-21.3 6.2-38.7 21.6-47.5 42.3l-.8 2H322.3c-13.8-.3-26.8-4.1-38.1-10.5-18.4-10.3-32.5-27.5-38.7-48.1-2.3-7.6-3.5-15.6-3.5-23.9v-48.2c0-5 .2-10 .6-14.9 5.4-71.2 49.8-131.6 111.8-160 19.2-8.8 40.1-14.5 62.1-16.5 5.8-.5 11.8-.8 17.7-.8 22.7 0 44.5 3.9 64.8 11.2 6.8 2.4 13.3 5.2 19.7 8.3 2 1 4 2 6 3.1.2-.3.4-.7.6-1 1.6-2.8 3.2-5.5 4.9-8.2 1.7-2.7 3.4-5.4 5.3-8 9.2-13.2 19.8-25.2 31.7-35.9 28.3-25.4 63.7-43 102.8-49.5.3-.1.6-.1 1-.2h.4c3.1 0 5.6 2.5 5.6 5.6 0 .5-.1.9-.2 1.3-37.5 7.9-65.6 41.2-65.6 81 0 4 .3 8 .9 11.9 13.7-12.7 29.6-22.9 47.2-30.1v-2c0-22.3 6.4-43.1 17.6-60.6-.1.5-.3.9-.5 1.3-7.8 14.1-12.2 30.2-12.2 47.4 0 1.5 0 3 .1 4.5.5.1 1 .3 1.5.4 3.2.8 6.3 1.7 9.4 2.7 1.4.5 2.8 1 4.1 1.5 2.2.8 4.4 1.5 6.5 2.4 1.6.6 3.1 1.4 4.6 2.1 1.9.8 3.8 1.7 5.6 2.6 1.6.8 3.2 1.7 4.8 2.6 1.7.9 3.3 1.8 5 2.8 1.6 1 3.3 2 4.9 3 1.5 1 3 1.9 4.5 3 1.6 1.1 3.2 2.3 4.8 3.5 1.4 1 2.7 2.1 4 3.1 1.6 1.3 3.2 2.6 4.7 3.9 1.2 1.1 2.4 2.1 3.6 3.2 1.5 1.4 3.1 2.9 4.6 4.4l1.2 1.2c1.7 1.8 3.5 3.5 5.1 5.3.2.3.5.5.7.8 2.5 3 4.2 6.8 4.9 10.8v.1c.1.7.2 1.4.2 2.1 1.5 11.5 5.2 22.3 10.7 32 0 .1.1.2.1.3 3.1 5.3 6.7 10.2 10.8 14.8-2.4 1.6-4.5 3.8-6 6.3-1.7 2.9-2.6 6.2-2.6 9.6 0 5.2 2 10 5.7 13.6 3.4 3.7 7.9 5.6 12.8 5.8zm-94.1-49.1c0 3 2.5 5.5 5.5 5.5.9 0 1.7-.2 2.4-.6.2-.1.3-.2.5-.3 0 0 .1 0 .1-.1 1.3-.7 2.7-1.3 4.1-1.9 1.5-.6 3.1-1 4.7-1.3 1.9-.4 3.9-.6 5.9-.6.8 0 1.7 0 2.5.1 4.6.4 8.9 1.8 12.8 4 .8.4 1.7.7 2.6.7 3 0 5.5-2.5 5.5-5.5 0-1.9-1-3.6-2.4-4.5-.2-.1-.3-.2-.5-.3-.7-.4-1.4-.8-2.1-1.1-3.4-1.7-7.1-2.9-11-3.5-.9-.2-1.8-.3-2.7-.4-1.1-.1-2.2-.2-3.3-.2-.4 0-.8-.1-1.2-.1-2.8 0-5.5.3-8.1.8-.3.1-.5.1-.8.1-2.9.6-5.6 1.6-8.2 2.8-1.1.5-2.2.9-3.3 1.5-.2.1-.4.2-.5.3l-.3.3c-1.4 1.1-2.2 2.6-2.2 4.3zm60.1 59.8c-9.4-3-19.2-4.6-29.1-5.7-9.9-1-19.8-1-29.8-.3-9.9.7-19.8 2.7-29.3 5.7-9.5 2.9-18.5 7.3-26.8 12.6 4.7-1.7 8.9-4.2 13.7-5.5 2.3-.8 4.6-1.7 6.9-2.4l7.1-1.9c9.5-2.2 19-4 28.8-4.7 9.7-.8 19.4-1 29.2-.7 4.9.2 9.8.5 14.7 1 4.8.5 9.7 1.2 14.6 1.9zm4.2-8.9c-8.9-4.4-18.3-7.5-27.9-9.9-9.6-2.5-19.5-3.9-29.4-4.7-9.9-.7-19.9-.2-29.8 1.2-9.9 1.4-19.4 4.5-28.4 8.5 4.9-1 9.4-2.8 14.3-3.4 2.4-.4 4.8-1 7.2-1.3l7.3-.8c9.7-.7 19.4-1.1 29.1-.3 9.7.6 19.4 1.9 29 3.7 4.8.9 9.6 1.9 14.3 3.1 4.9 1.1 9.6 2.5 14.3 3.9z" style="fill:#fff"/>
</svg>
