<svg xmlns="http://www.w3.org/2000/svg" viewBox="0 0 1024 1024">
   <circle cx="512" cy="512" r="512" style="fill:#21204a"/>
   <path d="M620.66 730.45a5.81 5.81 0 0 0 2.44.82v.41c-.81.41-1.63.41-2.44.82a10.37 10.37 0 0 0-2.85.82c-.82.41-2 .82-2.85 1.23l-2.44 1.23v-.41c.82-.41 1.22-.82 1.22-1.23.4-.41 0-.82 0-1.23-.41-.41-.41-.82-.82-1.23l-1.22-1.23-3.7-3.68-.4 4.51v1.64c0 .41.4.82.4 1.23s.41.82.82 1.23a2.44 2.44 0 0 0 1.63.41v.41a3.65 3.65 0 0 0-2 .41c-.41.41-1.22.41-2 .82s-1.22.41-2 .82-1.63.41-2 .82v-.41a6.46 6.46 0 0 0 2-3.28 19.09 19.09 0 0 0 1.63-5.74l1.63-4.5-5.7-5.74a.4.4 0 0 0-.41-.41q-3.66-3.69-6.11-3.69l3.26 6.14h-.41a13.63 13.63 0 0 0-5.3-2.87 9.9 9.9 0 0 0-4.88 0h-.82l2.85 9.83h1.22a5.71 5.71 0 0 0 4.48-5.73h.41l2.85 9.42h-.4a5.48 5.48 0 0 0-2.85-2.46 6.84 6.84 0 0 0-4.07 0h-.41a1.26 1.26 0 0 0-.82.41l.82 3.28q1.22 4.91 2.44 6.14a4.17 4.17 0 0 0 2.44 2v.41c-.82 0-1.63.41-2.44.41a26.55 26.55 0 0 1-2.85.82c-.81.41-1.63.41-2.44.82-2.44.41-3.26.82-3.66.82v-.41c.82-.82.82-1.64.82-2.87a32.81 32.81 0 0 0-1.22-6.55l-.4-1.64-2.85-10.65c-.41-1.23-.41-1.64-.82-2a1.49 1.49 0 0 0-1.22-.41v-.41c1.22-.41 2.85-.82 4.07-1.23a12.6 12.6 0 0 1 3.26-.82l9-2.46v-.41c2.44-.82 4.07-1.23 5.3-1.64.81-.41 1.22-.41 2-.82.82 0 1.63-.82 3.26-1.23v.41c-.4.41-.81.82-.81 1.23v1.23a1.27 1.27 0 0 0 .41.82l1.22 1.23 2.85 2.87.4-4.1v-1.23c0-.41-.4-.82-.4-1.23s-.41-.82-.82-1.23a2.44 2.44 0 0 0-1.63-.41v-.41a8.91 8.91 0 0 0 3.26-1.23c.82 0 1.22 0 1.63-.41.82 0 1.22-.41 2.44-.82v.41a5.73 5.73 0 0 0-1.63 2.86 19.22 19.22 0 0 0-1.63 5.74l-.82 3.69 6.52 6.55c1.11 1.65 2.75 2.47 3.56 3.29ZM428.43 710a8.89 8.89 0 0 0-3.26-2 8.3 8.3 0 0 0-6.92-.41 7 7 0 0 0-4.48 4.51 7.61 7.61 0 0 0-.81 2.87 5.22 5.22 0 0 0 .41 2.46A14.81 14.81 0 0 0 417 721c.41.41.41.82.81.82a4.15 4.15 0 0 1 1.63 2.86 3.49 3.49 0 0 1 0 2.87 4.33 4.33 0 0 1-2.44 2.87 5.64 5.64 0 0 1-3.67 0 6.53 6.53 0 0 1-2.85-3.69 15.45 15.45 0 0 1 0-6.14l-.41-.41-4.07 6.18a23.47 23.47 0 0 0 2.85 3.28 12.21 12.21 0 0 0 4.48 2.46 10.24 10.24 0 0 0 7.74.41 7.37 7.37 0 0 0 4.89-4.92 8.19 8.19 0 0 0 .41-5.33c-.41-1.64-2-2.87-4.07-4.51a9.1 9.1 0 0 1-2.85-2.86 3.48 3.48 0 0 1 0-2.87 7.34 7.34 0 0 1 2-2.87 3.47 3.47 0 0 1 2.85 0 5.49 5.49 0 0 1 2.5 2.85c.81 1.64.41 3.28 0 5.33l1.22.82 3.67-5.33a20.38 20.38 0 0 0-3.26-2.82Zm123.4 41v.41h-5.29c0 .41-.41.41-.81.41l-.81-2.86a17.84 17.84 0 0 1-2.44 2.86 4.37 4.37 0 0 1-2.85 1.23 7.31 7.31 0 0 1-6.11-2.87 12.37 12.37 0 0 1-2.85-8.19 11.07 11.07 0 0 1 1.63-7.37 6.49 6.49 0 0 1 5.7-3.28 6 6 0 0 1 2.85.41 10.87 10.87 0 0 1 2.44 2l-.41-4.51a22.13 22.13 0 0 0-.41-3.28 2.11 2.11 0 0 0-1.63-.82v-.41c1.22-.41 2.44-.41 3.67-.82a12.47 12.47 0 0 1 3.26-.82l1.63 20.48c.41 2.86.41 4.91.81 5.73s.79 1.63 1.62 1.63Zm-8.55-9.42a14 14 0 0 0-1.63-6.56c-.81-1.64-1.63-2-2.85-2s-2 .82-2.85 2.46v6.56a14 14 0 0 0 1.63 6.55c.81 1.64 1.63 2 2.85 2s2-.82 2.44-2.46a16.05 16.05 0 0 0 .41-6.62Zm-17.1 9c0 .41.41.82.81 1.23v.41h-6.11l-.41-2.46a4.2 4.2 0 0 1-2 2.46 5.85 5.85 0 0 1-2.85.82 5.54 5.54 0 0 1-4.48-1.64 6.19 6.19 0 0 1-1.63-4.51c0-2 .81-4.1 2.44-4.91 1.63-1.23 4.07-1.64 7.33-1.64h1.22v-2.46a8.22 8.22 0 0 0-.81-3.69 2.24 2.24 0 0 0-2-1.23 3.52 3.52 0 0 0-2.85 1.64 22 22 0 0 0-2.44 5.33h-.41l-1.22-6.14a14.37 14.37 0 0 1 3.67-1.64 12.44 12.44 0 0 1 4.07-.41c2.85 0 4.48.82 5.7 2s1.63 3.69 1.63 7v7.78a3.09 3.09 0 0 0 .34 2Zm-5.7-9c-1.63 0-3.26.41-4.07 1.64-.81.82-1.22 2.46-1.22 4.51a5.94 5.94 0 0 0 .81 2.87c.41.82.81 1.23 1.63 1.23a2.08 2.08 0 0 0 2-1.64 11.3 11.3 0 0 0 .81-5.33Zm-46-13.93a7.87 7.87 0 0 0-3.26.41 9.41 9.41 0 0 0-2.85 2.87 7.73 7.73 0 0 0-1.63-3.69 8.15 8.15 0 0 0-3.26-1.64 7.93 7.93 0 0 0-3.26.41h-7.33v.41c.81.41 1.22.82 1.22 1.23a13.27 13.27 0 0 1-.41 3.28l-1.22 5.33-.41 1.23a20 20 0 0 1-1.63 5.74 2.71 2.71 0 0 1-2 1.64v.41c.81 0 1.63.41 2.44.41s1.63.41 2.44.41 1.22.41 2 .41 1.22.41 2 .41v-.41a3.14 3.14 0 0 1-.81-2 41 41 0 0 1 1.22-7l.41-1.64a13.17 13.17 0 0 1 2-5.33 2.94 2.94 0 0 1 2.44-1.64 1.87 1.87 0 0 1 1.63 2c0 1.23-.41 2.86-.81 5.73l-.41 1.64-.41 2a21.82 21.82 0 0 1-1.22 4.51c-.41.82-.81 1.64-1.63 1.64v.41a17.51 17.51 0 0 0 2 .41c.81 0 1.22.41 2 .41s1.22.41 2 .41 1.22.41 2 .41v-.41a3.14 3.14 0 0 1-.81-2 41 41 0 0 1 1.22-7l.41-1.64a13.17 13.17 0 0 1 2-5.33 3 3 0 0 1 2.44-1.64 1.87 1.87 0 0 1 1.63 2c0 1.23-.41 2.86-.81 5.73l-.41 1.64-.41 2a21.81 21.81 0 0 1-1.22 4.51c-.41.41-.81 1.23-1.63 1.23v.41a3991.26 3991.26 0 0 1 6.11 1.23 17.63 17.63 0 0 0 2 .41v-.41a1.89 1.89 0 0 1-1.22-2c-.41-1.23 0-3.69.81-7l.41-2q1.22-4.91 0-7.37a5.61 5.61 0 0 0-3.8-3.25Zm16.7 4.1 2.44.41.41-1.64-2.85-.41v-1.71c0-.82.41-1.64.41-2.46a2.48 2.48 0 0 0 .41-1.64h-.41a9.65 9.65 0 0 1-3.29 3.7 44.34 44.34 0 0 1-4.48 2.46l-.41 1.23 2 .41-1.22 9.83c-.41.41-.41.82-.41 1.64a4.48 4.48 0 0 0-.41 2v3.69a2.13 2.13 0 0 0 .81 1.64 25.32 25.32 0 0 1 6.52.82v-.41a3.75 3.75 0 0 1-1.63-2.46c-.41-1.23-.41-3.69 0-7Zm15.48 0a3 3 0 0 0-2.44.82 23 23 0 0 0-2 3.28l.41-4.1c-1.22 0-2.44.41-3.67.41s-2.44.41-3.67.41v.41c.41 0 .81.41 1.22.82v3.2l-1.22 5.73V744c-.41 2.87-.41 4.91-.81 5.73a3.2 3.2 0 0 1-1.63 1.64v.41h7.33a5.12 5.12 0 0 0 2.44.41v-.41c-.41 0-.81-.82-1.22-1.64v-4.54a23.35 23.35 0 0 1 .81-6.56c.41-1.64.81-2 1.63-2 .41 0 .41 0 .81.41a2.13 2.13 0 0 1 .81 1.64l2-7.37h-.81Zm-59.87-8.6c.81 1.64.41 4.1-.41 7.37l-2 7.37a4.47 4.47 0 0 0-.41 2c0 .41.41 1.23.41 1.64v.41a3.05 3.05 0 0 0-1.63-.41c-.41 0-.81-.41-1.22-.41a1.49 1.49 0 0 1-1.22-.41c-.41 0-.81-.41-1.63-.41l.41-2.46a4.12 4.12 0 0 1-2.85 1.64c-.81.41-2 0-3.26 0a6.48 6.48 0 0 1-4.07-3.28 6.88 6.88 0 0 1-.41-4.91c.81-2 2-3.69 4.07-4.1 2-.82 4.48-.41 7.33.41.41 0 .41 0 .81.41h.41l.81-2a14.18 14.18 0 0 0 .41-3.69 4.1 4.1 0 0 0-1.63-2c-.81-.41-2 0-3.26.82a18.42 18.42 0 0 0-3.67 4.1h-.41l.41-6.14a13.73 13.73 0 0 1 4.07-.41 17.92 17.92 0 0 1 4.07.82q3.62 1.11 4.84 3.57Zm-5.7 6.14c-1.63-.41-3.26-.41-4.07.41a5.9 5.9 0 0 0-2.44 4.1 8 8 0 0 0-.41 2.87 5.63 5.63 0 0 0 1.22 1.64q1.22.62 2.44-1.23a9.26 9.26 0 0 0 2-4.5Zm128.69 10.24 1.22.41c0 2.87-.41 4.92-2 6.56a8 8 0 0 1-5.29 3.28 8.74 8.74 0 0 1-6.92-2c-2-1.64-3.26-4.1-4.07-7.37a12.2 12.2 0 0 1 1.22-7.78 7.4 7.4 0 0 1 6.11-4.1 7.87 7.87 0 0 1 9.77 7l-11 2v1.23a16.74 16.74 0 0 0 2.44 7c1.22 1.23 2.44 2 4.48 1.64a5.5 5.5 0 0 0 2.85-2.46 10.31 10.31 0 0 0 1.16-5.48Zm-11.4-3.69L564 735a25.55 25.55 0 0 0-1.22-4.1c-.81-.82-1.22-1.23-2-1.23s-1.63.82-2 2a11.47 11.47 0 0 0-.43 4.1Zm187-136 27.5-4.61-18.32 21.4-22.1 25.54a707.183 707.183 0 0 1-27.1 29c-5.83 5.86-11.23 10.47-16.23 13.38 3.74 5.47 7.09 9.67 7.09 10.07l5.4 7.12-6.66 6.3-28.36 26.41-.4.43 2.09 6.29-6.69 4.17s-69.18 46.95-158.8 38.17c-88.76-8.38-131.3-39-131.7-39l-5.83-4.21 1.66-6.26-1.66-1.69-27.93-26.41-6.66-6.3 5.4-7.12s3.35-4.21 7.09-10.07a99.83 99.83 0 0 1-16.27-13.42c-7.49-7.52-16.67-17.59-26.67-28.92l-22.1-25.58L259.76 593l27.5 4.61s5 .83 11.26 2.09c-.83-2.09-1.66-4.17-2.52-5.86a47.4 47.4 0 0 1-2.15-6.25l-.37-1.39-5.79-19.59a81 81 0 0 1 17.1 6.8 79.43 79.43 0 0 1 9.48-19.16l-.13-32.07h-.2c-23.76-1.68-48.77-20.54-57.94-38.57-8.75-18-7.09-43.6-.42-65s35.85-36.47 55.85-42.34a60.74 60.74 0 0 1 9.2-1.65l195-135.11 200.26 138c20.11 6.57 46.11 21.09 52.36 41.13 6.67 21.38 8.75 47-.41 65-7.6 15.65-27.46 31.93-48.39 37v53.18c.77 2.26 1.35 4.29 1.78 6a61.71 61.71 0 0 1 19.52-10.3c-.83 9.64-.43 17.63-4.17 26.44-.83 1.66-1.66 3.74-2.52 5.86 5.86-1.23 10.87-2.09 11.26-2.09Zm-25.88-129c8.49-3.92 18.95-11.78 22.13-18.18 4.17-8 9.17-23.48 2.92-38.57-6.67-15.09-17.5-21.38-20-22.64-1.15-.39-3.18-.95-5-1.44V393c3.58 3.79 8.36 9.39 9.63 13.46 2.08 6.71 1.67 8.38 1.67 8.38a82.43 82.43 0 0 0-11.29-15.2Zm0 18.32a35.85 35.85 0 0 0 12.5-10.99s-1.25.84-2.92 2.1a59.89 59.89 0 0 1-9.63 4.31ZM311.85 474l2.09.29-.33-81.64c-11.38 6.8-20.1 22.23-20.1 22.23s-.42-1.68 1.67-8.38c1.67-6.71 13.34-17.19 13.34-17.19s-6.67 1.26-9.17 2.52c-2.5.84-13.34 7.55-19.59 23.06-6.67 15.09-1.25 30.18 2.92 38.57 4.58 7.94 20.84 19.26 29.17 20.54Zm2.17 18.3v-4.55c-7.49-1.74-18-6.22-19.65-7.46s-2.92-2.1-2.92-2.1 5.83 8.8 15 12.16c2.11.65 4.68 1.31 7.55 1.92Zm45.35-110.11c-2.08 1.26-5.42.42-11.67.42-4.32-.31-11.85 1.45-20.88 4.6l.37 88.1c5.19 0 9.91-.49 12.18-2.15 5-3.35 37.93-49 50.43-67.08 12.92-17.61 28.76-37.31 48.35-41.92 19.59-4.19 72.52 9.22 72.52 9.22h2.92s52.52-13.42 72.53-9.64c19.59 4.19 35.43 24.32 48.35 41.92s45.43 63.3 50.43 66.66c3.58 2.62 13.26 2.42 21.31 1.61v-83.7c-12.61-5.24-23.93-8.06-30.06-8.06s-9.58.42-11.67-.42-2.08-2.52-.83-3.35c1-.52 11.67-3.29 24.37-4L515.69 255.63 343.31 375c9.2 1.11 16.08 2.94 16.9 3.35 1.66.88 1.24 2.56-.84 3.81Zm151.72 130V510c-1.25-2.1-2.5-5.45-4.17-12.58-3.33-14.67-.42-26.41 0-29.35a27.26 27.26 0 0 1 .83-4.19s-26.68 11.32-25.84 23.48c.42 11.74 5.42 25.15 6.67 32.28a47.91 47.91 0 0 1 0 12.16s-10.42 2.1-13.34 9.22c-2.5 6.71-2.08 6.71-.83 6.29 1.67 0 7.92-4.19 13.34-3.35 5.84.84 12.5 2.51 17.51 2.51l5.84-.42h1.67l5.84.42c5 0 12.09-1.68 17.51-2.51s12.09 3.35 13.34 3.35c1.25.42 2.08.84-.83-6.29s-12.92-9.22-12.92-9.22a47.91 47.91 0 0 1 0-12.16c.83-7.13 6.25-20.12 6.67-32.28s-26.26-23.48-26.26-23.48a27.26 27.26 0 0 1 .83 4.19c.42 3.35 3.33 14.67 0 29.35-1.67 7.13-2.92 10.48-4.17 12.58v2.1l-.83-.84c-.45.87-.86.87-.86.87Zm55.43-47s5.42-7.13 9.17-9.64c3.33-2.52 12.92-4.19 14.17-5 .83-.84 0-3.35-3.34-10.48-3.33-6.71-12.92-11.74-16.25-13-2.92-1.26-7.5.42-12.5-.84-4.58-.84-13.75-5-20-7.13s-10.42-.84-11.25 0c-.83.42-2.08 8.38-4.17 13s-7.92 15.09-7.92 15.09l-.83 1.68s3.33-.84 9.59 2.93 19.59 16.77 19.59 16.77a42.34 42.34 0 0 1 5.84-12.16c4.17-5.87 12.5-7.55 12.5-7.55A65.72 65.72 0 0 0 554 458c-4.17 6.29-4.58 12.58-5 16.35s5 8 6.67 8.38c1.25.42 4.17-.84 6.67-2.93a101 101 0 0 1 12.92-10.06c5-3.77 15 3.35 16.26 3.35 1.25-.42 1.25-3.35.83-7.55s-1.25-5-7.09-5-18.74 4.63-18.74 4.63Zm9.17 38.57s13.34.84 15.84-8.38c2.92-9.22-1.67-13.42-1.67-13.42s-1.67 8.38-9.17 11.32c-7.09 3.35-11.67-3.77-12.5-5a5.29 5.29 0 0 0-2.92-1.68 37.13 37.13 0 0 0-.83 6.29c.42 2.93 4.17 7.55 4.17 7.55a14 14 0 0 1-5-1.26c-2.92-1.68-7.09-1.68-7.92-.42a70.94 70.94 0 0 0-5.42 13c-1.25 4.61 2.92 12.16 5 16.77s6.67 18 5 28.93c-2.08 10.9-4.17 20.54-6.25 24.31s-2.92 4.19-2.92 4.19-4.58.84-5 4.61 6.67 9.64 8.75 11.32c1.25 2.1 4.58 2.94 5.42 1.68s1.25-3.77.42-8-2.08-5-2.08-5a9 9 0 0 0 4.17-3.35 35.88 35.88 0 0 0 2.5-13c0-5 1.25-16.77 5.84-24.73 5-7.55 12.92-18.87 13.75-25.57 1.67-7.13.83-11.32 0-12.16s-4.58-.84-6.67-2.93a7.1 7.1 0 0 1-2.51-5.09Zm-37.51 64.54c.83-3.35 5.84-4.19 9.17-3.77 3.75 0 4.58.42 5.84-2.51.83-2.94-.42-8-2.08-8.8s-19.59-3.77-25.43-2.1c-3.75.84-9.17 5-12.92 8v1.26l-.83-.84-.83.42v-1.26c-3.33-2.52-9.17-6.71-12.92-7.55-5.84-1.68-23.76 1.26-25.43 2.1-1.25.84-2.5 5.87-1.67 8.8s2.08 2.51 5.42 2.51c3.33-.42 8.34.42 9.17 3.77 1.25 3.35-.83 7.13-2.5 9.22s-1.67 4.61 0 6.29a9.7 9.7 0 0 0 10.83 2.49c5.84-2.1 12.5-6.29 15.42-6.29h5c2.92 0 9.59 4.19 15.42 6.29a9.46 9.46 0 0 0 10.84-2.51 5.06 5.06 0 0 0 0-6.29c-1.68-2.1-3.34-5.87-2.5-9.23Zm-11.67 25.57a63.11 63.11 0 0 0-13.34-1.68h-1.67a60.18 60.18 0 0 0-13.34 1.68c-10 2.09-15 11.74-15 11.74a127.09 127.09 0 0 1 13.34-5.45c4.17-1.26 11.67-.84 15.42-.42 3.75-.42 11.67-.84 15.42.42a112 112 0 0 1 13.75 5.45s-5-9.61-14.58-11.73Zm-61.27-3.36s-1.25.84-2.08 5c-.42 4.19 0 6.71.83 8 .83.84 4.17 0 6.25-1.68 1.25-1.68 8.75-7.55 8.34-11.32s-5-4.61-5-4.61-.83-.42-2.92-4.19-4.58-13.41-6.25-24.31c-2.08-10.9 2.92-23.9 3.75-28.93 2.08-4.61 6.25-12.16 5-16.77a70.94 70.94 0 0 0-5.42-13c-.83-1.26-5-1.26-7.92.42a7.81 7.81 0 0 1-5 1.26s4.17-4.61 4.17-7.55-.42-5.87-.83-6.29a7.47 7.47 0 0 0-2.5 2.1c-.83.84-5 8-12.5 5-7.09-2.93-9.17-11.74-9.17-11.74s-4.59 3.77-2.08 13c2.92 9.22 15.84 8.38 15.84 8.38a9.93 9.93 0 0 1-2.5 5c-2.5 2.1-5.84 2.1-6.67 2.93s-1.67 5.45 0 12.16 9.17 18.45 14.17 26c4.59 8 5.84 19.7 5.84 24.73a27.21 27.21 0 0 0 2.92 13 7.14 7.14 0 0 0 3.73 3.42ZM443.15 481.1c.83-2.52 3.33-4.19 3.33-5s-1.25-2.1-2.92-2.1-5.84.84-5.84 3.77a15.66 15.66 0 0 0 2.92 8.38 3.27 3.27 0 0 0 3.33 1.68s-1.24-4.21-.82-6.73Zm136.71 6.71a3.28 3.28 0 0 0 2.92-2.1 13.29 13.29 0 0 0 2.92-8c0-2.93-4.17-3.77-5.84-3.77s-2.92 1.26-2.92 2.1c.42.84 2.92 2.52 3.33 5 .84 2.58-.41 6.77-.41 6.77Zm-69.61-39-.83-1.68s-5.84-10.48-7.5-15.51c-2.08-4.61-3.33-12.16-4.58-13-.83-.84-5-2.1-11.25 0-5.84 2.52-15 6.71-20 7.55-4.58 1.26-9.59-.42-12.5.84-3.33 1.26-12.92 6.29-16.26 13-3.33 7.13-3.75 9.64-2.92 10.48s10.84 2.52 14.17 5 8.75 9.64 8.75 9.64-12.92-4.61-18.76-4.61-6.67.84-7.09 5-.42 7.55.83 7.55 11.25-6.71 16.26-3.35 10.84 7.55 13.34 10.06c2.5 2.1 5 3.35 5.84 2.93 1.67-.42 7.09-4.61 6.67-8.38-.42-3.33-.42-10-4.6-16.33-4.17-6.71-7.09-9.22-7.09-9.22s8.34 1.68 12.5 7.55a42.34 42.34 0 0 1 5.84 12.16s13.34-13 19.59-16.77c6.26-3.32 9.59-2.9 9.59-2.9Zm-10.84-64.56c-1.67-.84-21.26-4.19-33.76-4.19s-20.42 1.26-24.17 5-18.34 21.8-18.34 21.8l-20.42 30.18S389 455.95 381 463.08c-7.92 6.71-17.92 16.77-30.84 21a111 111 0 0 1-23 4.21v5.74a63.06 63.06 0 0 0 25-3.66c17.92-6.71 47.1-27.25 51.68-34.8l4.58-6.71s1.67-7.13 8.34-16.77 13.34-17.19 29.18-23.06c15.84-5.45 41.26-13.83 41.26-13.83s10-3.35 12.5-5.87c3.05-2.55 1.38-4.23-.29-5.07Zm-172 138.54.07 17.44c15.76-11.85 38-17.58 45.25-19.31 9.17-1.68 12.92.42 17.51-2.52 4.17-3.35 5.84-12.16 5.84-12.16s-3.33 1.26-20.42 8.8c-13.86 6.12-29.87 8.11-48.28 7.76Zm.16 37.86v1.73c3.5-.1 12.22-.28 16.82 0 5.83.42 12.5.84 20.84-1.68s10-4.61 10-4.61a33.24 33.24 0 0 1 2.08-10.06c2.08-5 4.17-5.87 4.17-5.87s-2.5 8.8 0 11.32 3.33 1.68 3.33 1.68-1.25-5.45 1.25-10.06c2.08-4.61 2.92-5.45 2.92-5.45s0 5.87 2.5 8 3.33.84 3.33.84a15.88 15.88 0 0 1 0-8.38 13.83 13.83 0 0 1 3.75-6.71s-25-2.52-47.52 11.74c-14.95 9.75-21.04 15.06-23.5 17.52Zm2.83 27 91.6 77.58c8.54 2.69 10.7 2.42 10.7 2.42 6.23 2.12 12.49 7.12 21.24 10.5 21.27 8.38 48.77 16.76 60.86 16.33 29.19-1.26 74.18-18.85 103.8-29.75 1.12-.42 2.3-.89 3.5-1.41l77.21-59.11c2.37-3 4.61-5.92 6.86-8.73v-8.64c-9.41.7-20.51 1.38-26.31 1.16a72.55 72.55 0 0 1-25.42-6.29c-6.25-2.51-29.18-13-37.1-16.35S609 562 609 562s-5.83-13.84-7.5-16.35a31.7 31.7 0 0 1-2.92-6.29s-9.17 12.16-11.67 17.19-7.5 13.84-8.34 18c-1.25 3.77-1.67 11.74-1.67 16.77s-2.5 13-7.92 16.77-10.84 5.45-11.67 5.45-5.42-2.94-6.67-2.94-1.67 1.26-2.92 4.19-2.5 8-7.09 9.64c-4.17 1.68-25 1.68-28.76 1.68s-24.59 0-28.76-1.68c-4.59-1.68-5.84-6.71-7.09-9.64s-1.67-4.19-2.92-4.19-5.84 2.94-6.67 2.94-6.67-1.68-12.09-5.45-7.92-11.74-7.92-16.77a103.78 103.78 0 0 0-1.67-16.77c-.83-4.19-5.84-13-8.34-18s-11.67-17.19-11.67-17.19a22.13 22.13 0 0 1-2.5 6.29c-1.67 2.51-7.5 16.35-7.5 16.35s-.42 0-8.34 3.35-30.43 13.41-37.1 16.35a62.5 62.5 0 0 1-25.35 6.3c-3.19.13-8.16 0-13.58-.34Zm312.42-46.61s1.67.42 4.17 5.87a29.83 29.83 0 0 1 2.08 9.64s1.67 2.1 10 4.61 15 2.09 20.84 1.68 18.34 0 18.34 0-2.08-4.61-25-19.29c-22.51-14.67-47.93-12.16-47.93-12.16a16.47 16.47 0 0 1 4.17 6.71 15.86 15.86 0 0 1 0 8.38s.83 1.26 2.92-1.26c2.5-2.09 2.5-7.54 2.5-7.54s.83.84 3.33 5.45 1.25 10.06 1.25 10.06.41.84 3.33-.84c2.48-2.91-.03-11.3-.03-11.3Zm63.4 8.14v-26.76c-22.56 1.29-41.77-.2-58-7.36-17.09-7.55-20.43-8.8-20.43-8.8s1.67 8.8 6.25 11.74 7.92 1.26 17.09 2.93c9.17 2.1 40 10.06 54.6 27.67Zm0-56.08v-4.84c-8.13.89-21.53-.51-33-4.23-12.5-4.19-22.51-13.83-30.43-21s-21.67-26-21.67-26L600.7 406.9s-14.59-18-18.34-21.8-11.67-5-24.17-5-32.09 3.35-34.18 4.19c-1.67.84-3.33 2.52-.42 5s12.92 5.87 12.92 5.87 25.43 8.38 41.26 14.25c16.26 5.45 22.51 13.42 29.18 23.06s8.34 16.77 8.34 16.77l4.59 6.71c4.59 7.13 33.76 27.67 50.85 34.38 12.62 5.02 25.65 4.67 35.47 2.78ZM350.6 676.46c1.26-.43 11.7-29.78 11.7-29.78s-5.33-5.86-10.64-11c-1.49-1.46-3-2.88-4.37-4.08-2.62-2.48-10.37-11.1-18.79-20.61-8-9.1-16.68-19-22-25.09l-2.61-.23 1.72 4c3.74 8.78 8.32 25.54 8.32 25.54l-5.83-2.48c-5.83-2.52-22.5-5-22.5-5s.4 0 22.5 25.58 41.28 43.58 42.5 43.15Zm26.27 39c2.92-7.12 11.66-36.91 11.66-36.91s.43 0 8.75 1.26c.46.07 1 .1 1.56.13.34 0 1.51.11 1.92.11a148.91 148.91 0 0 0 17-1l-9.85-8.34c-8.49-3.45-19.13-9.22-27.59-14.12-2.92-1.69-5.6-3.28-7.79-4.61-4-2.39-6.53-4-6.53-4s-1.26 4.64-4.17 16.8c-2.48 11.73-18.75 33.1-18.75 33.1l29.19 26.41s1.73-1.71 4.6-8.83Zm279.7 20.94-17.92-52s-1.19.46-3.45 1.26c-3.56 1.28-9.79 3.41-18.05 5.92l-1.35.41-.83.25c-7.08 2.12-15.48 4.47-24.89 6.78l-.82.2-3.08.74-.63.15c-8.29 2-17.27 3.86-26.71 5.54l-.48.09-4.67.8-1 .17q-2.59.42-5.23.82l-1.76.26-3.42.49-2.59.35-2.69.37-2.68.33-2.93.33-2.43.26q-2.67.28-5.36.52c-2 .16-3.95.27-5.93.36h-1.3q-2.54.09-5.09.11h-.94q-6.19 0-12.4-.4h-.74q-2.87-.19-5.72-.45h-.52q-6.19-.59-12.3-1.49l-1-.15q-2.64-.4-5.24-.84l-.52-.08h-.23q-3.3-.57-6.55-1.21L464 706q-3-.6-6-1.25l-.47-.1a381.78 381.78 0 0 1-60.26-19c-3.74-1.52-5.83-2.48-5.83-2.48l-14.15 52.41s40.44 29.34 126.71 37.29c86.27 8.39 152.57-36.47 152.57-36.47Zm32.07-36s-16.24-21.4-18.75-33.15c-2.92-12.16-4.17-16.8-4.17-16.8s-2 1.29-5.3 3.28c-2.15 1.29-4.8 2.92-7.82 4.67-2.65 1.55-5.56 3.2-8.58 4.86l-24.54 18.79c2 .17 3.9.31 5.75.4a53.56 53.56 0 0 0 8.81-.1h.4c8.32-1.26 8.75-1.26 8.75-1.26S652 710.42 655.31 718c2.92 7.12 4.57 8.78 4.57 8.78Zm57.52-90.55s-16.66 2.52-22.5 5l-5.83 2.52s4.57-16.76 8.32-25.58c3.11-7.22 3.91-9.08 4.11-9.51-.62.68-5 5.71-10.8 12.39v10.87l-30 23c-2.22 2.42-4 4.25-5 5.19-.83.8-1.72 1.62-2.62 2.52-5.73 5.67-12 12.59-12 12.59s10.44 29.35 11.66 29.75S702 661 724.09 635.38Z" style="fill:#fff"/>
</svg>
