<svg xmlns="http://www.w3.org/2000/svg" viewBox="0 0 1024 1024">
   <circle cx="512" cy="512" r="512" style="fill:#6abf4b"/>
   <path d="M553.72 610.65c0-5.8-4.35-8.7-8.7-8.7-8.7 0-20.31 1.45-29 1.45-49.32 0-89.94-40.62-89.94-89.94V297.3a3.12 3.12 0 0 0-2.9-2.9H299.85l-1.45 1.45V512A217.31 217.31 0 0 0 516 729.6c11.61 0 23.21-1.45 34.82-2.9a3.12 3.12 0 0 0 2.9-2.9ZM516 294.4c-11.61 0-24.66 1.45-36.27 2.9a3.12 3.12 0 0 0-2.9 2.9v113.15c0 5.8 4.35 10.15 8.7 8.7 4.35 0 29-1.45 29-1.45 49.32 0 89.94 40.62 89.94 89.94v195.85a1.42 1.42 0 0 0 1.45 1.45C681.38 674.47 733.6 599 733.6 512A217.31 217.31 0 0 0 516 294.4Z" style="fill:#fff"/>
</svg>
