<svg xmlns="http://www.w3.org/2000/svg" viewBox="0 0 1024 1024">
   <circle cx="512" cy="512" r="512" style="fill:#0f62fe"/>
   <path d="M144.64 551.88H128v-79.76h16.64ZM250.87 527v-54.88h16.52v79.76h-17l-40.11-55v55h-16.61v-79.76h17Zm59.4-54.92h57.09v14.7h-20.29v65.06h-16.52v-65.02h-20.28Zm148.86 0v14.7h-32.36v17.09h27.92v14.7h-27.92v18.57h32.36v14.7h-49v-79.72Zm111 79.76H550l-22.33-32.81h-5.36v32.81h-16.68v-79.72h32.13q12.31 0 18.8 6.61t6.61 17.27q0 17.43-17.32 21.31Zm-47.85-46.37h13.1q5.47 0 8.32-2.16t3-7.29q0-4.9-3-7.06t-8.32-2.16h-13.1ZM670.34 527v-54.88h16.52v79.76h-17l-40.11-55v55h-16.61v-79.76h17Zm104.52-16.29 27.58 41.13h-19.15l-17.43-27.35-17.32 27.35h-19l27.46-41-26-38.74h18.91l16 25 16.06-25h19Zm64.06-38.63H896v14.7h-20.28v65.06h-16.53v-65.02h-20.28Z" style="fill:#fff"/>
</svg>
