<svg xmlns="http://www.w3.org/2000/svg" viewBox="0 0 1024 1024">
   <circle cx="512" cy="512" r="512" style="fill:#ffc708"/>
   <path d="M512 256c-141.39 0-256 114.62-256 256s114.61 256 256 256 256-114.62 256-256-114.62-256-256-256zm29.12 38.11 39.55 10.09v55.39l44.22-36.37 32.81 24.22-84.24 69.28-32.33-.17zM347.71 625.62 308.17 592V441.57l39.55-36.28zM425.17 673l-39.55 34.4V320.05l39.55 34.4zm199.71 33.16-44.22-36.37v55.39l-39.55 10.09V612.83l32.33-.17 84.24 69.27zm58.28-52.78L585 575h-81.66v160.27H463.8V535.48h135l109 87zm55.91-177.64L695.15 512l43.93 36.25-25.17 30.51L633 512l80.89-66.75zM598.8 488.52h-135v-199.8h39.55V449H585l98.21-78.37 24.67 30.91z"/>
</svg>
