<?xml version="1.0" encoding="utf-8"?>
<!-- Generator: Adobe Illustrator 21.0.0, SVG Export Plug-In . SVG Version: 6.00 Build 0)  -->
<svg version="1.1" xmlns="http://www.w3.org/2000/svg" xmlns:xlink="http://www.w3.org/1999/xlink" x="0px" y="0px"
	 viewBox="0 0 1024 1024" style="enable-background:new 0 0 1024 1024;" xml:space="preserve">
<style type="text/css">
	.st0{fill:#607D8B;}
	.st1{fill:#FFFFFF;}
</style>
<g id="Guides">
</g>
<g id="Icon">
	<circle class="st0" cx="512" cy="512" r="512"/>
	<g>
		<path class="st1" d="M642.9,490.5c35-51.7,21.5-121.9-30.2-156.9c-18.7-12.7-40.8-19.4-63.4-19.4v-28.3
			c0-15.6-12.7-28.3-28.3-28.3c-15.6,0-28.3,12.7-28.3,28.3v28.3h-56.5v-28.3c0-15.6-12.7-28.3-28.3-28.3
			c-15.6,0-28.3,12.7-28.3,28.3v28.3h-28.3c-15.6,0-28.3,12.7-28.3,28.3c0,15.6,12.7,28.3,28.3,28.3h28.3v282.6h-28.3
			c-15.6,0-28.3,12.7-28.3,28.3c0,15.6,12.7,28.3,28.3,28.3h28.3v28.3c0,15.6,12.7,28.3,28.3,28.3c15.6,0,28.3-12.7,28.3-28.3v-28.3
			h56.5v28.3c0,15.6,12.7,28.3,28.3,28.3c15.6,0,28.3-12.7,28.3-28.3v-28.3h56.5c62.3,0.2,112.9-50.2,113-112.5
			C718.9,549.2,688.4,506.2,642.9,490.5L642.9,490.5z M436.2,370.7h113c31.2,0,56.5,25.3,56.5,56.5s-25.3,56.5-56.5,56.5h-113V370.7
			z M605.8,653.3H436.2v-113h169.6c31.2,0,56.5,25.3,56.5,56.5C662.3,628,637,653.3,605.8,653.3z"/>
	</g>
</g>
</svg>
