<?xml version="1.0" encoding="utf-8"?>
<!-- Generator: Adobe Illustrator 21.0.0, SVG Export Plug-In . SVG Version: 6.00 Build 0)  -->
<svg version="1.1" xmlns="http://www.w3.org/2000/svg" xmlns:xlink="http://www.w3.org/1999/xlink" x="0px" y="0px"
	 viewBox="0 0 1024 1024" style="enable-background:new 0 0 1024 1024;" xml:space="preserve">
<style type="text/css">
	.st0{fill:#607D8B;}
	.st1{fill:#FFFFFF;}
</style>
<g id="Guides">
</g>
<g id="Icon">
	<circle class="st0" cx="512" cy="512" r="512"/>
	<g>
		<path class="st1" d="M570.9,482.6h-29.4V364.8h58.9c16.3,0,29.4,13.2,29.4,29.4s13.2,29.4,29.4,29.4c16.3,0,29.4-13.2,29.4-29.4
			c0-48.8-39.5-88.3-88.3-88.3h-58.9v-58.9c0-16.3-13.2-29.4-29.4-29.4c-16.3,0-29.4,13.2-29.4,29.4V306h-29.4
			c-65,0-117.7,52.7-117.7,117.7s52.7,117.7,117.7,117.7h29.4v117.7h-58.9c-16.3,0-29.4-13.2-29.4-29.4c0-16.3-13.2-29.4-29.4-29.4
			s-29.4,13.2-29.4,29.4c0,48.8,39.5,88.3,88.3,88.3h58.9v58.9c0,16.3,13.2,29.4,29.4,29.4c16.3,0,29.4-13.2,29.4-29.4V718h29.4
			c65,0,117.7-52.7,117.7-117.7S635.9,482.6,570.9,482.6z M482.6,482.6h-29.4c-32.5,0-58.9-26.4-58.9-58.9s26.4-58.9,58.9-58.9h29.4
			V482.6z M570.9,659.2h-29.4V541.4h29.4c32.5,0,58.9,26.4,58.9,58.9C629.7,632.8,603.4,659.2,570.9,659.2z"/>
	</g>
</g>
</svg>
