<?xml version="1.0" encoding="utf-8"?>
<!-- Generator: Adobe Illustrator 21.0.0, SVG Export Plug-In . SVG Version: 6.00 Build 0)  -->
<svg version="1.1" xmlns="http://www.w3.org/2000/svg" xmlns:xlink="http://www.w3.org/1999/xlink" x="0px" y="0px"
	 viewBox="0 0 1024 1024" style="enable-background:new 0 0 1024 1024;" xml:space="preserve">
<style type="text/css">
	.st0{fill:#607D8B;}
	.st1{fill:#FFFFFF;}
</style>
<g id="Guides">
</g>
<g id="Icon">
	<circle class="st0" cx="512" cy="512" r="512"/>
	<g>
		<path class="st1" d="M670.6,285.4H353.4c-37.5,0-68,30.4-68,68v317.2c0,37.5,30.4,68,68,68h317.2c3.7-0.1,7.4-0.4,11.1-1.1
			l6.8-1.6h1.6l0,0h1.1l8.4-3.2l2.9-1.6c2.3-1.4,4.8-2.5,7-4.1c3-2.2,5.9-4.6,8.6-7.3l1.6-2c2.2-2.3,4.3-4.7,6.1-7.3l2-2.9
			c1.6-2.5,2.9-5.2,4.1-7.9c0.6-1.1,1.2-2.2,1.6-3.4c1.1-2.7,1.8-5.7,2.7-8.6v-3.4c1.3-4.4,2-9,2.3-13.6V353.4
			C738.6,315.9,708.1,285.4,670.6,285.4z M353.4,693.3c-12.5,0-22.7-10.1-22.7-22.7v-97.7l74.5-74.8l0,0c8.8-8.9,23.2-8.9,32-0.1
			c0,0,0.1,0.1,0.1,0.1l194.9,195.1H353.4z M693.3,670.6c0,2.8-0.6,5.6-1.6,8.2c-0.5,1.1-1.1,2.2-1.8,3.2c-0.6,1-1.3,1.9-2,2.7
			L566.6,563.4l19.9-19.9c8.8-8.9,23.2-8.9,32-0.1c0,0,0.1,0.1,0.1,0.1l0,0l74.5,74.8V670.6z M693.3,554.1L650.7,512
			c-26.9-25.5-69.1-25.5-96.1,0l-19.9,19.9l-65.3-65.3c-26.9-25.5-69.1-25.5-96.1,0l-42.6,42.1V353.4c0-12.5,10.1-22.7,22.7-22.7
			h317.2c12.5,0,22.7,10.1,22.7,22.7V554.1z M546,376.1c-18.8,0-34,15.2-34,34c0,18.8,15.2,34,34,34s34-15.2,34-34
			C580,391.3,564.8,376.1,546,376.1z"/>
	</g>
</g>
</svg>
