<?xml version="1.0" encoding="utf-8"?>
<!-- Generator: Adobe Illustrator 21.0.0, SVG Export Plug-In . SVG Version: 6.00 Build 0)  -->
<svg version="1.1" xmlns="http://www.w3.org/2000/svg" xmlns:xlink="http://www.w3.org/1999/xlink" x="0px" y="0px"
	 viewBox="0 0 1024 1024" style="enable-background:new 0 0 1024 1024;" xml:space="preserve">
<style type="text/css">
	.st0{fill:#607D8B;}
	.st1{fill:#FFFFFF;}
</style>
<g id="Guides">
</g>
<g id="Icon">
	<circle class="st0" cx="512" cy="512" r="512"/>
	<g>
		<path class="st1" d="M512,766c-67.8,0-131.6-26.4-179.6-74.4S258,579.8,258,512s26.4-131.6,74.4-179.6S444.2,258,512,258
			s131.6,26.4,179.6,74.4S766,444.2,766,512s-26.4,131.6-74.4,179.6S579.8,766,512,766z M512,308.8c-112,0-203.2,91.2-203.2,203.2
			S400,715.2,512,715.2S715.2,624,715.2,512S624,308.8,512,308.8z"/>
		<path class="st1" d="M740.6,537.4H283.4c-14,0-25.4-11.4-25.4-25.4c0-14,11.4-25.4,25.4-25.4h457.2c14,0,25.4,11.4,25.4,25.4
			C766,526,754.6,537.4,740.6,537.4z"/>
		<path class="st1" d="M512,766c-7.1,0-13.9-3-18.8-8.3c-61.4-67.2-96.2-154.2-98.1-245.2c0-0.4,0-0.7,0-1.1
			c1.9-91,36.7-178,98.1-245.2c4.8-5.3,11.6-8.3,18.8-8.3c7.1,0,13.9,3,18.8,8.3c61.4,67.2,96.2,154.2,98.1,245.2c0,0.4,0,0.7,0,1.1
			c-1.9,91-36.7,178-98.1,245.2C525.9,763,519.1,766,512,766z M446,512c1.5,68.6,24.8,134.7,66,189c41.2-54.3,64.5-120.3,66-189
			c-1.5-68.6-24.8-134.7-66-189C470.8,377.3,447.5,443.4,446,512z"/>
	</g>
</g>
</svg>
