<?xml version="1.0" encoding="utf-8"?>
<!-- Generator: Adobe Illustrator 21.0.0, SVG Export Plug-In . SVG Version: 6.00 Build 0)  -->
<svg version="1.1" xmlns="http://www.w3.org/2000/svg" xmlns:xlink="http://www.w3.org/1999/xlink" x="0px" y="0px"
	 viewBox="0 0 1024 1024" style="enable-background:new 0 0 1024 1024;" xml:space="preserve">
<style type="text/css">
	.st0{display:none;}
	.st1{fill:#607D8B;}
	.st2{fill:#FFFFFF;}
</style>
<g id="Guides" class="st0">
</g>
<g id="Icon">
	<circle class="st1" cx="512" cy="512" r="512"/>
	<g>
		<path class="st2" d="M704,288.5c-5-4.3-11.7-6.2-18.2-5.2l-296.4,45.6c-11.2,1.7-19.4,11.3-19.4,22.6v236
			c-10.7-5.2-22.3-7.9-34.2-8c-44.1,0-79.8,35.7-79.8,79.8s35.7,79.8,79.8,79.8s79.8-35.7,79.8-79.8V485l250.8-38.5v95.3
			c-10.7-5.2-22.3-7.9-34.2-8c-44.1,0-79.8,35.7-79.8,79.8s35.7,79.8,79.8,79.8s79.8-35.7,79.8-79.8V305.8
			C712,299.1,709.1,292.8,704,288.5z M335.8,693.4c-18.9,0-34.2-15.3-34.2-34.2s15.3-34.2,34.2-34.2c18.9,0,34.2,15.3,34.2,34.2
			S354.7,693.4,335.8,693.4z M632.2,647.8c-18.9,0-34.2-15.3-34.2-34.2s15.3-34.2,34.2-34.2s34.2,15.3,34.2,34.2
			S651.1,647.8,632.2,647.8z M666.4,400.2l-250.8,38.5v-68.4l250.8-37.8V400.2z"/>
	</g>
</g>
</svg>
