<?xml version="1.0" encoding="utf-8"?>
<!-- Generator: Adobe Illustrator 21.0.0, SVG Export Plug-In . SVG Version: 6.00 Build 0)  -->
<svg version="1.1" xmlns="http://www.w3.org/2000/svg" xmlns:xlink="http://www.w3.org/1999/xlink" x="0px" y="0px"
	 viewBox="0 0 1024 1024" style="enable-background:new 0 0 1024 1024;" xml:space="preserve">
<style type="text/css">
	.st0{fill:#607D8B;}
	.st1{fill:#FFFFFF;}
</style>
<g id="Guides">
</g>
<g id="Icon">
	<circle class="st0" cx="512" cy="512" r="512"/>
	<g>
		<path class="st1" d="M702.7,678.6H416.6c15.6-20.6,24-45.7,23.8-71.5v-71.5h143.1c13.2,0,23.8-10.7,23.8-23.8
			c0-13.2-10.7-23.8-23.8-23.8H440.5v-74.1c-0.1-64.4,52.1-116.6,116.5-116.7c41.8,0,80.4,22.3,101.2,58.5
			c6.6,11.4,21.2,15.2,32.6,8.6c0,0,0,0,0.1,0c11.4-6.5,15.3-21,8.8-32.4c-45.6-78.6-146.2-105.4-224.8-59.9
			c-50.6,29.3-81.9,83.4-82,141.9v74.1h-71.5c-13.2,0-23.8,10.7-23.8,23.8c0,13.2,10.7,23.8,23.8,23.8h71.5v71.5
			c0,39.5-32,71.5-71.5,71.5c-13.2,0-23.8,10.7-23.8,23.8s10.7,23.8,23.8,23.8h381.5c13.2,0,23.8-10.7,23.8-23.8
			S715.9,678.6,702.7,678.6z"/>
	</g>
</g>
</svg>
