<?xml version="1.0" encoding="utf-8"?>
<!-- Generator: Adobe Illustrator 21.0.0, SVG Export Plug-In . SVG Version: 6.00 Build 0)  -->
<svg version="1.1" xmlns="http://www.w3.org/2000/svg" xmlns:xlink="http://www.w3.org/1999/xlink" x="0px" y="0px"
	 viewBox="0 0 1024 1024" style="enable-background:new 0 0 1024 1024;" xml:space="preserve">
<style type="text/css">
	.st0{fill:#607D8B;}
	.st1{fill:#FFFFFF;}
</style>
<g id="Icon">
	<circle class="st0" cx="512" cy="512" r="512"/>
	<g>
		<path class="st1" d="M577.1,620.5c-12,0-21.7,9.7-21.7,21.7c0,12,9.7,21.7,21.7,21.7s21.7-9.7,21.7-21.7
			C598.8,630.2,589.1,620.5,577.1,620.5z M447,620.5h-65.1c-12,0-21.7,9.7-21.7,21.7c0,12,9.7,21.7,21.7,21.7H447
			c12,0,21.7-9.7,21.7-21.7C468.7,630.2,459,620.5,447,620.5z M642.2,620.5c-12,0-21.7,9.7-21.7,21.7c0,12,9.7,21.7,21.7,21.7
			c12,0,21.7-9.7,21.7-21.7C663.9,630.2,654.2,620.5,642.2,620.5z M577.1,490.4c-12,0-21.7,9.7-21.7,21.7s9.7,21.7,21.7,21.7
			s21.7-9.7,21.7-21.7S589.1,490.4,577.1,490.4z M447,490.4h-65.1c-12,0-21.7,9.7-21.7,21.7s9.7,21.7,21.7,21.7H447
			c12,0,21.7-9.7,21.7-21.7S459,490.4,447,490.4z M642.2,360.2c-12,0-21.7,9.7-21.7,21.7c0,12,9.7,21.7,21.7,21.7
			c12,0,21.7-9.7,21.7-21.7C663.9,369.9,654.2,360.2,642.2,360.2z M642.2,490.4c-12,0-21.7,9.7-21.7,21.7s9.7,21.7,21.7,21.7
			c12,0,21.7-9.7,21.7-21.7S654.2,490.4,642.2,490.4z M729,360.2c0-35.9-29.1-65.1-65.1-65.1H360.2c-35.9,0-65.1,29.1-65.1,65.1
			v43.4c0.1,16.1,6.1,31.5,16.9,43.4c-10.8,11.9-16.8,27.3-16.9,43.4v43.4c0.1,16.1,6.1,31.5,16.9,43.4
			c-10.8,11.9-16.8,27.3-16.9,43.4v43.4c0,35.9,29.1,65.1,65.1,65.1h303.7c35.9,0,65.1-29.1,65.1-65.1v-43.4
			c-0.1-16.1-6.1-31.5-16.9-43.4c10.8-11.9,16.8-27.3,16.9-43.4v-43.4c-0.1-16.1-6.1-31.5-16.9-43.4c10.8-11.9,16.8-27.3,16.9-43.4
			V360.2z M685.6,663.9c0,12-9.7,21.7-21.7,21.7H360.2c-12,0-21.7-9.7-21.7-21.7v-43.4c0-12,9.7-21.7,21.7-21.7h303.7
			c12,0,21.7,9.7,21.7,21.7V663.9z M685.6,533.8c0,12-9.7,21.7-21.7,21.7H360.2c-12,0-21.7-9.7-21.7-21.7v-43.4
			c0-12,9.7-21.7,21.7-21.7h303.7c12,0,21.7,9.7,21.7,21.7V533.8z M685.6,403.6c0,12-9.7,21.7-21.7,21.7H360.2
			c-12,0-21.7-9.7-21.7-21.7v-43.4c0-12,9.7-21.7,21.7-21.7h303.7c12,0,21.7,9.7,21.7,21.7V403.6z M577.1,360.2
			c-12,0-21.7,9.7-21.7,21.7c0,12,9.7,21.7,21.7,21.7s21.7-9.7,21.7-21.7C598.8,369.9,589.1,360.2,577.1,360.2z M447,360.2h-65.1
			c-12,0-21.7,9.7-21.7,21.7c0,12,9.7,21.7,21.7,21.7H447c12,0,21.7-9.7,21.7-21.7C468.7,369.9,459,360.2,447,360.2z"/>
	</g>
</g>
<g id="Guides">
</g>
</svg>
