<?xml version="1.0" encoding="utf-8"?>
<!-- Generator: Adobe Illustrator 21.0.0, SVG Export Plug-In . SVG Version: 6.00 Build 0)  -->
<svg version="1.1" xmlns="http://www.w3.org/2000/svg" xmlns:xlink="http://www.w3.org/1999/xlink" x="0px" y="0px"
	 viewBox="0 0 1024 1024" style="enable-background:new 0 0 1024 1024;" xml:space="preserve">
<style type="text/css">
	.st0{fill:#607D8B;}
	.st1{fill:#FFFFFF;}
</style>
<g id="Guides">
</g>
<g id="Icon">
	<circle class="st0" cx="512" cy="512" r="512"/>
	<path class="st1" d="M732.5,696.1c59.2-79.3,42.8-191.5-36.5-250.7c-10.5-7.8-21.7-14.4-33.7-19.8C643,314.3,537,239.7,425.6,259
		S239.6,384.4,259,495.8c5.8,33.1,19.6,64.3,40.3,90.8l-35.6,35.3c-7.3,7.4-9.4,18.4-5.4,27.9c3.9,9.6,13.2,15.8,23.5,15.9h145.6
		c29.6,62.4,92.4,102.2,161.5,102.4h153.5c10.3-0.1,19.6-6.3,23.5-15.9c4-9.5,1.9-20.5-5.4-27.9L732.5,696.1z M409.8,588.9
		c0,8.6,0.7,17.1,2,25.6h-68.3l9-8.7c10-10,10.1-26.2,0.1-36.2c0,0-0.1-0.1-0.1-0.1c-29-28.7-45.2-67.8-45-108.5
		c0-84.8,68.7-153.5,153.5-153.5c65.1-0.4,123.3,40.8,144.6,102.4c-5.6,0-11,0-16.6,0C490,409.8,409.8,490,409.8,588.9z
		 M679.5,716.9l1.3,1.3h-91.9C518.3,718,461.1,660.6,461.2,590s57.5-127.8,128.2-127.7c70.7,0.1,127.8,57.5,127.7,128.2
		c-0.1,33.9-13.6,66.4-37.6,90.4c-4.8,4.7-7.6,11.2-7.7,17.9C671.9,705.5,674.6,712.1,679.5,716.9z"/>
</g>
</svg>
