<?xml version="1.0" encoding="utf-8"?>
<!-- Generator: Adobe Illustrator 21.0.0, SVG Export Plug-In . SVG Version: 6.00 Build 0)  -->
<svg version="1.1" xmlns="http://www.w3.org/2000/svg" xmlns:xlink="http://www.w3.org/1999/xlink" x="0px" y="0px"
	 viewBox="0 0 1024 1024" style="enable-background:new 0 0 1024 1024;" xml:space="preserve">
<style type="text/css">
	.st0{fill:#607D8B;}
	.st1{fill:#FFFFFF;}
</style>
<g id="Guides">
</g>
<g id="Icon">
	<circle class="st0" cx="512" cy="512" r="512"/>
	<g>
		<path class="st1" d="M599.2,502.8c61.5-48.4,72.1-137.4,23.7-198.9s-137.4-72.1-198.9-23.7S352,417.5,400.3,479
			c6.9,8.8,14.9,16.8,23.7,23.7c-80.8,32.4-137.2,106.6-146.8,193.1c-1.4,13,8,24.8,21,26.2c13,1.4,24.8-8,26.2-21
			c11.6-103.6,105.1-178.2,208.7-166.6c87.6,9.8,156.7,79,166.6,166.6c1.3,12,11.5,21.1,23.6,21h2.6c12.9-1.5,22.2-13.1,20.8-26
			C737.1,609.3,680.4,535,599.2,502.8z M511.6,486c-52.1,0-94.4-42.3-94.4-94.4s42.3-94.4,94.4-94.4s94.4,42.3,94.4,94.4
			S563.8,486,511.6,486z"/>
	</g>
</g>
</svg>
