<svg xmlns="http://www.w3.org/2000/svg" viewBox="0 0 1024 1024">
   <circle cx="512" cy="512" r="512" style="fill:#356eb9"/>
   <path d="M414.17 252.34c47.78.2 95.59-.17 143.37.06 10.51-.29 21.26 5.55 24.11 16.18Q682.51 506.9 783 745.34c-46.74.12-93.44.32-140.15-.09-17.2-42.09-35.26-83.83-52.83-125.71-46.65 29.51-93.85 58.12-140.47 87.69-23.82 14.55-47.66 30.44-75.14 37.12-13.62 3.11-31.25 1.37-38.66-12.23-22.48-41-44.85-82.12-66.75-123.41 7.58 6.48 17 10.57 27.16 10.37 97.89-.09 195.74.17 293.63-.15q-70.45-167.13-141-334.23c-3.57-8.39-6.85-17.6-14.35-23.38-5.74-5-13.21-6.85-20.27-8.98ZM275.59 559.59c-4.3 10.51-6.91 24 .81 33.64 6.39 8.86 18 11.15 28.29 11.33 30.32.06 60.62-.06 90.91 0q43.4-102.32 86.57-204.69c-16.88-38.66-32.44-77.9-49.38-116.53-3.83-9.5-12.49-18.59-23.67-16.76C396.6 268 392 281.42 388 291.53q-56.22 134.02-112.41 268.06Z" style="fill:#fff"/>
</svg>
