<svg xmlns="http://www.w3.org/2000/svg" viewBox="0 0 1024 1024">
   <circle cx="512" cy="512" r="512" style="fill:#1b98ed"/>
   <path d="M378.14 393 160 550.95s292.77 121.68 689.27 0l-.75-.13c-20.76 0-45.31 1.06-74.08 0h-4.6c-6.21-.25-19.58-1.18-19.58-1.18l-9.2-.81a467.265 467.265 0 0 1-38.84-5l-10.07-1.74c-1.93-.37-24.36-5.22-27.22-5.84s-5.72-1.37-8.64-2.11c-5.22-1.31-10.5-2.8-15.91-4.35l-7.46-2.24c-5-1.43-10.13-3.11-15.35-4.85l-9.32-3.17c-4.54-1.55-9.07-3.23-13.73-5-61.65-23.24-133.62-60.9-216.4-121.62zM697 428.7l-102.47 74.58c4.66 1.74 9.2 3.42 13.73 5l9.32 3.17c5.22 1.74 10.32 3.42 15.35 4.85l7.46 2.24c5.41 1.55 10.69 3 15.91 4.35 2.92.75 5.34 1.31 8.64 2.11s18 4 21.44 4.72l5.47.81 10.07 1.74c13.61 2.3 26.41 3.91 38.84 5l9.2.81c.19 0 13.36 1.18 19.58 1.18h4.6c28.77 1.12 53.32 0 74.08 0H864L697 428.7z" style="fill:#fff"/>
</svg>
