<svg xmlns="http://www.w3.org/2000/svg" viewBox="0 0 1024 1024">
   <circle cx="512" cy="512" r="512" style="fill:#f76c1d"/>
   <path d="M640 443.1c7.1 0 12.8 5.7 12.8 12.8s-5.7 12.8-12.8 12.8c-7.1 0-12.8-5.7-12.8-12.8s5.7-12.8 12.8-12.8zM512 256c-141.3 0-256 114.7-256 256s114.7 256 256 256 256-114.7 256-256-114.7-256-256-256zm116.2 363c-30.2 33.3-73.2 52.5-117.8 52.5h-.3c-45.3 0-88.6-19.5-118.8-53.2-30.7-34.3-44.8-78.3-39.9-124.2 7.9-73.2 66.8-132.4 140-140.8 6.1-.8 12.5-1 18.7-1 35.3 0 69.1 11.5 97.3 33.3 1.8 1.3 2.8 3.3 2.8 5.6s-.8 4.4-2.6 5.9l-16.9 15.1c-1.8 1.5-4.1 2.6-6.7 2.6-2 0-4.1-.5-5.6-1.8-20.2-14.1-44-21.5-68.4-21.5-34.3 0-67.1 14.8-89.9 40.4-23 25.9-33.8 59.4-29.7 94 6.1 55 50.7 99.6 106 105.7 4.6.5 9.2.8 13.8.8 32.3 0 62.5-12.8 85.5-35.8 1.8-1.8 4.4-3.1 7.2-3.1 1.8 0 3.8.5 5.4 1.5l18.7 12.3c1.8 1.3 3.1 3.1 3.3 5.4.2 2.5-.5 4.8-2.1 6.3zM640 494.6c-21.2 0-38.7-17.4-38.7-38.7 0-21.2 17.4-38.7 38.7-38.7s38.7 17.4 38.7 38.7c0 21.3-17.5 38.7-38.7 38.7z" style="fill:#fff"/>
</svg>
