<svg xmlns="http://www.w3.org/2000/svg" viewBox="0 0 1024 1024" style="enable-background:new 0 0 1024 1024" xml:space="preserve">
   <style>
      .st1{fill:#fff}
   </style>
   <g id="Icon">
      <circle cx="512" cy="512" r="512" style="fill:#2185d0"/>
      <path class="st1" d="M544.6 578.7c-2.7 0-5.1.6-7.1 1.9-2 1.2-3.9 2.9-5.8 5.2V612c1.6 2 3.3 3.4 5.2 4.2 1.9.8 3.9 1.1 6 1.1 2.2 0 4.1-.4 5.8-1.1 1.7-.8 3.2-2 4.4-3.6 1.2-1.7 2.1-3.8 2.8-6.3.6-2.6 1-5.7 1-9.2 0-6.4-1.1-11.1-3.2-13.9-2.1-3-5.1-4.5-9.1-4.5zm72.5 3.1c-1-1.2-2.3-2.2-3.9-2.8-1.6-.7-3.4-1.1-5.5-1.1-4.1 0-7.3 1.2-9.6 3.5s-3.8 5.6-4.4 9.9h26.5c0-1.8-.3-3.5-.8-5.1-.6-1.8-1.3-3.2-2.3-4.4zm-125.6 0c-1-1.2-2.3-2.2-3.9-2.8-1.6-.7-3.4-1.1-5.5-1.1-4.1 0-7.3 1.2-9.6 3.5s-3.8 5.6-4.4 9.9h26.5c0-1.8-.3-3.5-.8-5.1-.5-1.8-1.2-3.2-2.3-4.4zm-138.9-3.2c-4.9 0-8.6 1.7-11 5-2.4 3.3-3.5 8.1-3.5 14.4s1.2 11.1 3.5 14.4c2.4 3.3 6.1 4.9 11 4.9s8.5-1.6 10.8-4.9c2.4-3.3 3.5-8.1 3.5-14.4s-1.2-11.1-3.5-14.4c-2.3-3.4-5.9-5-10.8-5zm71 .9c-1.9-.8-3.9-1.2-6-1.2s-4 .4-5.8 1.2c-1.7.8-3.2 2-4.4 3.6-1.2 1.6-2.1 3.6-2.8 6.2-.6 2.5-1 5.4-1 8.8 0 3.4.3 6.3.8 8.7.6 2.4 1.4 4.3 2.4 5.8s2.3 2.6 3.8 3.2c1.5.6 3.1 1 5 1 2.9 0 5.4-.6 7.5-1.8 2.1-1.2 4-2.9 5.8-5.2v-26.2c-1.6-1.9-3.4-3.3-5.3-4.1zm282.6-2c-3.5 0-6.1.9-7.8 2.6-1.7 1.7-2.6 3.9-2.6 6.8 0 1.4.2 2.6.6 3.8.5 1.2 1.1 2.2 1.9 3.1.9.8 2 1.5 3.2 2 1.3.5 2.8.7 4.6.7 1.7 0 3.3-.2 4.6-.7 1.3-.5 2.4-1.2 3.2-2 .9-.8 1.5-1.8 1.9-3 .5-1.2.7-2.5.7-3.9 0-2.9-.9-5.2-2.6-6.8-1.7-1.7-4.2-2.6-7.7-2.6zm-11.8 48.9c-.9 1.2-1.4 2.5-1.4 4.1 0 1 .2 2 .7 2.8.5.9 1.3 1.7 2.4 2.3 1.1.6 2.6 1.1 4.4 1.5 1.8.4 4 .6 6.6.6 2.6 0 4.9-.2 6.8-.6 1.9-.4 3.5-.9 4.7-1.7 1.3-.7 2.2-1.5 2.7-2.5.6-.9.9-2 .9-3.1s-.3-2.1-1-2.7c-.7-.7-1.6-1.3-2.8-1.7-1.2-.4-2.6-.7-4.2-.9-1.6-.2-3.2-.3-5-.4-1.7-.1-3.6-.2-5.5-.3-1.9-.1-3.7-.2-5.5-.5-1.6.8-2.9 1.9-3.8 3.1z"/>
      <path class="st1" d="m613.5 375.1-38.9 44.5.3.2-87.4 99.8-43.3-37.9 20.7-23.7 19.6 17.2 58.2-66.5-161.3-141-192.5 414.6 672.1 6-247.5-313.2zm-199.7-31.7 70.2 61.4-20.7 23.7-46.6-40.7-60.4 69-23.7-20.7 81.2-92.7zM314 623c-1.8 1.2-3.7 2.2-5.7 3-1.9.7-3.9 1.2-6 1.5-2.1.3-4.1.5-6.2.5-3.6 0-7-.7-10.2-2-3.2-1.4-6-3.3-8.4-5.9-2.4-2.6-4.3-5.7-5.7-9.5-1.4-3.8-2.1-8-2.1-12.8 0-4.3.6-8.3 1.8-11.9 1.3-3.7 3.1-6.9 5.5-9.5 2.4-2.7 5.4-4.8 8.9-6.3s7.6-2.3 12.2-2.3c4.4 0 8.2.7 11.5 2.1 3.3 1.4 6.3 3.4 8.9 6l-3.7 5.1c-.4.5-.8.9-1.3 1.3-.4.3-.9.5-1.7.5-.7 0-1.4-.2-2.1-.6-.7-.5-1.5-.9-2.4-1.5-.9-.6-2.1-1.1-3.4-1.5-1.3-.5-2.9-.7-4.8-.7-2.5 0-4.6.5-6.5 1.4-1.9.9-3.4 2.1-4.7 3.8-1.2 1.7-2.1 3.7-2.7 6.1-.6 2.4-.9 5-.9 8 0 3.1.3 5.9 1 8.3.7 2.4 1.7 4.5 2.9 6.2 1.3 1.6 2.8 2.9 4.6 3.8 1.8.8 3.8 1.3 6 1.3s4-.3 5.4-.8c1.4-.6 2.6-1.2 3.5-1.8.9-.7 1.8-1.3 2.4-1.8.7-.6 1.5-.9 2.4-.9 1.1 0 2 .4 2.6 1.3l4 5.1c-1.6 1.8-3.3 3.3-5.1 4.5zm65.4-12.7c-1.4 3.7-3.3 6.9-5.9 9.5-2.5 2.6-5.5 4.6-9.1 6-3.5 1.4-7.5 2.1-11.8 2.1-4.4 0-8.3-.7-11.9-2.1-3.6-1.4-6.6-3.4-9.2-6-2.5-2.6-4.5-5.8-5.9-9.5-1.4-3.7-2.1-7.9-2.1-12.5s.7-8.8 2.1-12.5c1.4-3.7 3.4-6.9 5.9-9.5 2.5-2.6 5.6-4.6 9.2-6 3.6-1.4 7.5-2.1 11.9-2.1 4.3 0 8.3.7 11.8 2.1 3.6 1.4 6.6 3.4 9.1 6s4.5 5.7 5.9 9.5c1.4 3.7 2.1 7.9 2.1 12.5s-.7 8.8-2.1 12.5zm63.6 16.8h-8.6c-1.9 0-3-.9-3.5-2.6l-1.2-5.6c-1.2 1.4-2.5 2.6-3.8 3.7-1.3 1.1-2.8 2.1-4.3 2.8-1.5.8-3.2 1.4-5 1.8-1.7.5-3.6.7-5.7.7-3.2 0-6.1-.7-8.8-2-2.7-1.3-5-3.2-6.9-5.8-1.9-2.5-3.4-5.7-4.4-9.4-1-3.7-1.5-8-1.5-12.8 0-4.3.6-8.4 1.8-12.1 1.2-3.7 2.9-7 5.1-9.7 2.2-2.7 4.8-4.9 7.9-6.4 3.1-1.6 6.5-2.3 10.4-2.3 3.3 0 6.1.5 8.4 1.6 2.3 1 4.4 2.4 6.2 4.2v-30.9H443v84.8zm26.4-19.6c.8 2.2 1.9 4 3.3 5.4 1.4 1.4 3 2.5 4.8 3.2 1.9.7 4 1 6.3 1s4.2-.3 5.9-.8c1.7-.5 3.1-1.1 4.3-1.8 1.3-.6 2.3-1.2 3.2-1.8.9-.5 1.9-.8 2.7-.8 1.2 0 2.1.4 2.6 1.3l4 5.1c-1.6 1.8-3.3 3.4-5.2 4.6-1.9 1.2-4 2.2-6.1 3-2.1.7-4.2 1.2-6.4 1.5-2.2.3-4.3.5-6.3.5-4.1 0-7.8-.7-11.3-2-3.5-1.4-6.5-3.4-9.1-6-2.6-2.7-4.6-5.9-6.1-9.8-1.5-3.9-2.2-8.4-2.2-13.6 0-4 .6-7.7 1.9-11.2 1.3-3.5 3.1-6.6 5.5-9.2 2.4-2.6 5.4-4.7 8.8-6.2 3.5-1.5 7.4-2.3 11.8-2.3 3.7 0 7.1.6 10.2 1.8 3.1 1.2 5.8 2.9 8 5.2 2.2 2.2 4 5 5.2 8.3 1.3 3.3 1.9 7 1.9 11.2 0 2.1-.2 3.6-.7 4.3-.5.7-1.3 1.1-2.6 1.1h-36.2c.4 3.2.9 5.8 1.8 8zm100.3 1.9c-1.2 3.9-2.9 7.2-5.1 10-2.2 2.7-4.8 4.9-7.9 6.4-3.1 1.5-6.5 2.3-10.3 2.3-1.8 0-3.5-.2-5-.6-1.5-.3-2.8-.8-4.1-1.5-1.2-.6-2.4-1.4-3.4-2.3-1-.9-2-2-3-3.1l-.6 3.9c-.2 1-.6 1.7-1.2 2.1-.5.4-1.3.6-2.2.6h-9.3v-84.7h14.1v33.4c2.4-2.5 5-4.5 7.8-5.9 2.9-1.5 6.2-2.2 9.9-2.2 3.4 0 6.4.7 9.1 2 2.7 1.3 5.1 3.2 7 5.8 1.9 2.5 3.4 5.5 4.4 9 1 3.5 1.5 7.5 1.5 11.9.1 4.7-.5 9-1.7 12.9zm25.2-1.9c.8 2.2 1.9 4 3.3 5.4 1.4 1.4 3 2.5 4.8 3.2 1.9.7 4 1 6.3 1s4.2-.3 5.9-.8c1.7-.5 3.1-1.1 4.3-1.8 1.3-.6 2.3-1.2 3.2-1.8.9-.5 1.9-.8 2.7-.8 1.2 0 2.1.4 2.6 1.3l4 5.1c-1.6 1.8-3.3 3.4-5.2 4.6-1.9 1.2-4 2.2-6.1 3-2.1.7-4.2 1.2-6.4 1.5-2.2.3-4.3.5-6.3.5-4.1 0-7.8-.7-11.3-2-3.5-1.4-6.5-3.4-9.1-6-2.6-2.7-4.6-5.9-6.1-9.8-1.5-3.9-2.2-8.4-2.2-13.6 0-4 .6-7.7 1.9-11.2 1.3-3.5 3.1-6.6 5.5-9.2 2.4-2.6 5.4-4.7 8.8-6.2 3.5-1.5 7.4-2.3 11.8-2.3 3.7 0 7.1.6 10.2 1.8 3.1 1.2 5.8 2.9 8 5.2 2.2 2.2 4 5 5.2 8.3 1.3 3.3 1.9 7 1.9 11.2 0 2.1-.2 3.6-.7 4.3-.5.7-1.3 1.1-2.6 1.1h-36.2c.4 3.2 1 5.8 1.8 8zm82.6-27.6c-.2.7-.5 1.2-.9 1.5-.3.3-.8.4-1.4.4-.6 0-1.4-.1-2.6-.3-1.1-.2-2.2-.3-3.2-.3-1.6 0-2.9.2-4.2.7-1.2.5-2.3 1.1-3.3 2-.9.8-1.8 1.9-2.6 3.1-.7 1.2-1.4 2.6-2.1 4.2v36h-14.1v-58.5h8.3c1.4 0 2.4.3 3 .8.6.5.9 1.4 1.1 2.7l.8 6.6c1.9-3.5 4-6.2 6.6-8.2 2.5-2 5.5-3 8.9-3 2.7 0 4.9.6 6.5 1.8l-.8 10.5zm55.6-.9-5.2 1c.4 1 .7 2 .9 3.1.2 1.1.3 2.3.3 3.5 0 2.9-.6 5.5-1.8 7.9-1.1 2.3-2.7 4.3-4.8 5.9-2.1 1.6-4.5 2.9-7.3 3.8-2.8.9-5.8 1.3-9 1.3-2.2 0-4.3-.2-6.4-.6-1.8 1.1-2.7 2.3-2.7 3.7 0 1.2.5 2.1 1.6 2.6s2.5.9 4.3 1.1c1.8.2 3.8.4 6.1.5 2.3 0 4.6.2 7 .3 2.4.2 4.7.5 7 1s4.3 1.2 6.1 2.2 3.2 2.4 4.3 4.2c1.1 1.7 1.7 4 1.7 6.8 0 2.6-.6 5.1-1.9 7.5-1.3 2.4-3.1 4.6-5.5 6.5-2.4 1.9-5.4 3.4-8.9 4.6-3.5 1.2-7.5 1.8-12 1.8-4.4 0-8.2-.4-11.5-1.3-3.3-.8-6-2-8.1-3.4-2.2-1.4-3.8-3-4.8-4.9-1.1-1.9-1.6-3.8-1.6-5.8 0-2.7.8-5 2.4-6.8 1.7-1.9 3.9-3.3 6.8-4.4-1.5-.8-2.7-1.9-3.6-3.2s-1.4-3.1-1.4-5.2c0-.9.2-1.8.5-2.7.3-.9.8-1.9 1.4-2.8.6-.9 1.4-1.8 2.4-2.6s2.1-1.6 3.4-2.2c-3-1.6-5.3-3.7-7-6.4-1.7-2.7-2.5-5.8-2.5-9.3 0-2.9.6-5.5 1.7-7.8 1.2-2.4 2.8-4.3 4.8-6 2.1-1.7 4.5-2.9 7.3-3.8 2.8-.9 5.9-1.3 9.3-1.3 2.5 0 4.8.3 7 .8s4.2 1.2 6.1 2.2h16.8v5.2c-.2 1.6-1.2 2.6-3.2 3z"/>
   </g>
</svg>
