<svg xmlns="http://www.w3.org/2000/svg" viewBox="0 0 1024 1024">
   <circle cx="512" cy="512" r="512" style="fill:#089eda"/>
   <path d="M767.94 283.17q-43.41 7.2-82.47 15h-.17q-338.46 56.09-410 156.63-19.81 27.82-19.16 59.06v6.68q-.71 27.72 19.16 53.61 63.7 83.09 339.26 147.26l.29.08.31.08q36.53 8.76 77.05 19.27l-.71-.73q-310.82-245.35 76.44-456.94ZM288.65 563.91C277.73 549.67 272.6 535.64 273 521v-7.46c-.36-17.26 4.89-33.26 16-48.92C310.79 434 354.71 406 419.56 381.19c51.27-19.59 116.24-37.26 193.78-52.74C540.3 386.78 500.24 448.11 494 511.37c-5.77 58.7 17.42 119.06 69 179.95C416.42 653 324.23 610.25 288.65 563.91Z" style="fill:#fff;fill-rule:evenodd"/>
</svg>
