<svg xmlns="http://www.w3.org/2000/svg" viewBox="0 0 1024 1024">
   <circle cx="512" cy="512" r="512" style="fill:#089eda"/>
   <path d="M685.5 298.2h-.2c-225.6 37.4-362.3 89.6-410 156.6-13.2 18.5-19.6 38.2-19.2 59.1v6.7c-.5 18.5 5.9 36.3 19.2 53.6 42.5 55.4 155.6 104.4 339.3 147.2.1 0 .2 0 .3.1.1 0 .2 0 .3.1l-.9-.9c-159.7-151.2-135.9-292 71.2-422.5zm-72.2 30.3c-73 58.3-113.1 119.7-119.3 182.9-5.8 58.7 17.4 119.1 69 179.9-146.6-38.3-238.8-81-274.3-127.4-10.9-14.2-16.1-28.3-15.7-42.9v-7.5c-.4-17.3 4.9-33.3 16-48.9 21.8-30.6 65.7-58.7 130.5-83.4 51.3-19.6 116.3-37.3 193.8-52.7" style="fill:#fff"/>
   <path d="M685.5 298.2c26-5.2 53.5-10.2 82.5-15-258.2 141.1-283.7 293.4-76.4 456.9l.7.7c-27-7-52.7-13.4-77.1-19.3l-.9-.9c-159.7-151.1-135.9-291.9 71.2-422.4z" style="fill:#fff"/>
</svg>
