<svg xmlns="http://www.w3.org/2000/svg" viewBox="0 0 1024 1024">
   <circle cx="512" cy="512" r="512" style="fill:#14697f"/>
   <path d="M596.34 481.94a43.9 43.9 0 0 1-17.83-35.45c0-4.36 2.38-12.9 4-18.4.8-2.73 1-4.09 4.05-4.72 15.09-3.06 21.71-2.59 23-4.39 4.08-6.81 5.72-15.9 5.72-15.9l-116.49-37.19s7.33 18.92 11.18 20.59L562.9 410s-27.22 6-42.23 10.51l-3.55 1.11s5.78 9.69 14.68 15.14c9.84-2.81 27.91-7.46 27.91-7.46-25.54 50.24-78 83.08-135.12 83.08-2.62 0-13.51-.14-20.35.42-5.92.51-8.78 5.4-3 8a44.13 44.13 0 0 1 21.35 25.9c2.12 6.8-1.61 10.9-6.29 14.63-10.26 7.91-36.43 27.47-62.19 46.65-3-5.71-5.85-11.49-8.4-17.26-23.21-52.48-34.49-125.37-34.49-222.84V367l201-64.52 201 64.49v.9a949.14 949.14 0 0 1-4.57 97.22l-.27 2.57h32.95l.21-2.1c3-29.69 4.49-62.56 4.49-97.69V343l-233.74-75-233.84 75v24.8c0 102.13 12.2 179.36 37.3 236.11 3.55 8 7.5 16 11.79 23.79-20.44 15.19-36.12 26.8-36.12 26.8 4.67 8.16 10 16 10 16l128.54-91.89a417.27 417.27 0 0 1 233.84-71.15h39c-5.65 32-13.71 59.92-24 83.23a281.56 281.56 0 0 1-46.8 72.83 301.47 301.47 0 0 1-53.44 47.41c-33.79 23.55-62.82 33.58-66.06 34.67l-.24.08-.62-.21c-3.16-1.05-31.88-11-65.79-34.6a301.22 301.22 0 0 1-53.38-47.4c-4.92-5.56-9.83-11.64-15-18.6l-1.35-1.87-26.66 19.11 1.41 1.9c5.87 7.92 11.44 14.84 17 21.17a334.4 334.4 0 0 0 59.2 52.57c36.91 25.73 68.28 36.85 74.16 38.8.25.09 6.07 2.11 9 2.92.75.21 1.52.39 1.52.39l.49.11.5-.11s.81-.17 1.57-.39c2.91-.82 8.73-2.84 8.94-2.92 5.89-2 37.15-13 74.06-38.74a334.33 334.33 0 0 0 59.25-52.58A314.43 314.43 0 0 0 708.81 604c12.17-27.51 21.13-59.16 27.31-96.5h28c1.11-7 3-18.73 3-18.73H663.8c-44-.83-56.77.84-67.46-6.8" style="fill:#fff"/>
</svg>
