<svg xmlns="http://www.w3.org/2000/svg" viewBox="0 0 1024 1024">
   <circle cx="512" cy="512" r="512" style="fill:#14697f"/>
   <path d="M596.3 481.9c-10.7-7.6-17.8-21-17.8-35.5 0-4.4 2.4-12.9 4-18.4.8-2.7 1-4.1 4.1-4.7 15.1-3.1 21.7-2.6 23-4.4 4.1-6.8 5.7-15.9 5.7-15.9l-116.4-37.2s7.3 18.9 11.2 20.6l52.9 23.5s-27.2 6-42.2 10.5l-3.6 1.1s5.8 9.7 14.7 15.1c9.8-2.8 27.9-7.5 27.9-7.5-25.5 50.2-78 83.1-135.1 83.1-2.6 0-13.5-.1-20.4.4-5.9.5-8.8 5.4-3 8 10.4 5.6 18 15 21.3 25.9 2.1 6.8-1.6 10.9-6.3 14.6-10.3 7.9-36.4 27.5-62.2 46.6-3-5.7-5.8-11.5-8.4-17.3-23.2-52.5-34.5-125.4-34.5-222.8v-.6l201-64.5 201 64.5v.9c0 35.4-1.5 68.1-4.6 97.2l-.3 2.6h32.9l.2-2.1c3-29.7 4.5-62.6 4.5-97.7V343l-233.8-75-233.8 75v24.8c0 102.1 12.2 179.4 37.3 236.1 3.5 8 7.5 16 11.8 23.8-20.4 15.2-36.1 26.8-36.1 26.8 4.7 8.2 10 16 10 16l128.5-91.9c69.2-46.6 150.1-71.2 233.9-71.2h39c-5.7 32-13.7 59.9-24 83.2-11.7 26.5-27.5 51-46.8 72.8-15.6 17.6-33.6 33.6-53.4 47.4-33.8 23.5-62.8 33.6-66.1 34.7l-.2.1-.6-.2c-3.2-1.1-31.9-11-65.8-34.6-19.9-13.8-37.8-29.8-53.4-47.4-4.9-5.6-9.8-11.6-15-18.6L376 643l-26.7 19.1 1.4 1.9c5.9 7.9 11.4 14.8 17 21.2 17.3 19.6 37.2 37.2 59.2 52.6 36.9 25.7 68.3 36.8 74.2 38.8.2.1 6.1 2.1 9 2.9.8.2 1.5.4 1.5.4l.5.1.5-.1 1.6-.4c2.9-.8 8.7-2.8 8.9-2.9 5.9-2 37.2-13 74.1-38.7 22-15.3 41.9-33 59.3-52.6 21.6-24.3 39.1-51.7 52.2-81.3 12.2-27.5 21.1-59.2 27.3-96.5h28c1.1-7 3-18.7 3-18.7H663.8c-44-.9-56.8.8-67.5-6.9" style="fill:#fff"/>
</svg>
