<svg xmlns="http://www.w3.org/2000/svg" viewBox="0 0 1024 1024">
   <circle cx="512" cy="512" r="512" style="fill:#7289da"/>
   <path d="M697 267c31.6 0 57.1 25.6 58.6 55.7V807l-60.2-51.1-33.1-30.1-36.1-31.4 15.1 49.6H325.5c-31.5 0-57.1-24-57.1-55.7V322.8c0-30.1 25.6-55.7 57.3-55.7h371.2l.1-.1zM559.3 394.9h-.7l-4.5 4.5c46.6 13.5 69.2 34.6 69.2 34.6-30.1-15-57.1-22.5-84.2-25.6-19.6-3-39.1-1.4-55.7 0h-4.5c-10.6 0-33.1 4.5-63.2 16.5-10.5 4.6-16.5 7.6-16.5 7.6s22.5-22.5 72.2-34.6l-3-3s-37.6-1.4-78.2 28.6c0 0-40.6 70.7-40.6 157.9 0 0 22.5 39.1 84.2 40.6 0 0 9-12 18.1-22.5-34.6-10.5-48.1-31.6-48.1-31.6s3 1.5 7.5 4.5h1.3c.7 0 1 .3 1.3.7v.1c.4.4.7.7 1.3.7 7.4 3.1 14.8 6.1 20.9 9 10.5 4.5 24 9.1 40.5 12.1 20.9 3 44.9 4.5 72.2 0 13.5-3 27-6 40.5-12 8.8-4.5 19.6-9 31.4-16.6 0 0-13.5 21.1-49.6 31.6 7.4 10.5 17.9 22.5 17.9 22.5 61.7-1.3 85.7-40.5 87.1-38.8 0-87.1-40.8-157.9-40.8-157.9-36.8-27.3-71.2-28.3-77.3-28.3l1.3-.6zm3.8 99.3c15.8 0 28.6 13.5 28.6 30 0 16.6-12.8 30.1-28.6 30.1s-28.6-13.5-28.6-30c.1-16.6 12.9-30.1 28.6-30.1zm-102.2 0c15.7 0 28.5 13.5 28.5 30 0 16.6-12.8 30.1-28.6 30.1-15.7 0-28.6-13.5-28.6-30 .1-16.6 12.9-30.1 28.7-30.1z" style="fill:#fff"/>
</svg>
