<svg xmlns="http://www.w3.org/2000/svg" viewBox="0 0 1024 1024" style="enable-background:new 0 0 1024 1024" xml:space="preserve">
   <circle cx="512" cy="512" r="512" style="fill:#0077c0"/>
   <path d="M623.6 333c-26.2-16.3-50.8-22.7-75.6-39-15.3-10.4-36.5-35-54.3-56.3-3.4 34.1-13.8 47.9-25.7 57.8-25.1 19.7-40.9 25.7-62.7 37.5-18.3 9.3-117.5 68.6-117.5 196S395 750.3 514 750.3 736.2 663.9 736.2 533s-96.8-190.1-112.6-200zm2.8 370.8c-2.5 2.5-25.1 18.3-51.9 20.7-26.7 2.4-62.7 3.9-84.4-15.8-3.4-3.4-2.5-8.4 0-10.4s4.5-3.4 7.4-3.4c2.9 0 2.5 0 4 1 9.9 7.9 24.7 14.4 56.3 14.4 31.6 0 53.8-9 63.7-16.3 4.5-3.4 6.5-.5 6.9 1.4.5 1.9 1.4 4.9-2 8.4zM540 658.9c5.4-4.9 14.4-12.8 22.7-16.3 8.4-3.5 12.8-3 20.7-3 7.9 0 16.3.5 22.3 4.5s9.3 12.8 11.3 17.8c2 4.9 0 7.9-3.9 9.9-3.4 2-3.9 1-7.4-5.4s-6.5-12.8-23.7-12.8-22.7 5.9-31.1 12.8c-8.4 6.9-11.3 9.3-14.4 5.4-3-4-1.9-8 3.5-12.9zm131 3.9c-17.8-1.4-53.3-56.7-76-57.8-28.6-1-90.8 59.8-139.7 59.8-29.6 0-38.5-4.5-48.4-10.9-15-10.3-22.4-26.1-21.9-47.9.5-38.5 36.5-74.5 82-75 57.8-.5 97.8 57.3 126.9 56.7 24.7-.5 72.1-48.8 95.3-48.8 24.7 0 31.6 25.7 31.6 40.9 0 15.3-4.9 42.9-16.8 60.2-11.8 17.4-19.2 23.7-33 22.8z" style="fill:#fff"/>
</svg>
