<svg xmlns="http://www.w3.org/2000/svg" viewBox="0 0 1024 1024">
   <circle cx="512" cy="512" r="512" style="fill:#1aa"/>
   <path d="M657.2 374.4c-14.4-10.2-34.3-6.8-44.5 7.6-12.5 17.7-26.3 30.8-42.1 39.8-1.5.8-2.9 1.6-4.4 2.4-1.4.7-2.8 1.4-4.2 2-14.7 6.8-31.1 10.4-50 11-18.9-.6-35.3-4.1-50-11-19.4-9-35.9-23.5-50.7-44.3-10.2-14.4-30.1-17.8-44.5-7.6-14.4 10.2-17.8 30.1-7.6 44.5 21 29.7 46.6 51.7 75.9 65.3 5.8 2.7 11.6 5 17.7 7.1-24.9 18-51.9 43.2-64.8 77.8-13.4 35.9-13.2 74.8.5 109.4 13.1 33.3 37.5 60.3 68.5 76.2 34.6 17.7 78.6 17.7 117.8.1 41.1-18.5 67.9-52.3 71.7-90.6 4-40.2-15.3-76.1-49.2-91.3-35.1-15.8-74.7-4.5-100.8 28.6-10.9 13.8-8.6 33.9 5.3 44.8 13.8 10.9 33.9 8.6 44.8-5.3 7.8-9.8 16.7-13.5 24.6-10 6.7 3 13.3 11.6 11.8 26.8-1.5 15-14.7 29.8-34.4 38.7-21.3 9.6-45.3 10.1-62.5 1.3-17.2-8.8-30.8-24-38.2-42.8-5.6-14.1-10.1-36.6 0-63.7 7.6-20.3 26.6-39.4 60-60.2 14.2-8.8 29.4-17 44.1-25 16.9-9.2 33-17.9 47.1-27.2 25.1-13.7 47.2-33.9 65.7-60.2 10.2-14.1 6.8-34-7.6-44.2zm-162.3-60c4.1-4.1 9.5-6.3 15.3-6.3 5.8 0 11.2 2.3 15.3 6.3 4.1 4.1 6.3 9.5 6.3 15.3 0 5.8-2.3 11.2-6.3 15.3-4.1 4.1-9.5 6.3-15.3 6.3-5.8 0-11.2-2.3-15.3-6.3-4.1-4.1-6.3-9.5-6.3-15.3 0-5.8 2.2-11.3 6.3-15.3zm15.3 88.9c19.7 0 38.2-7.7 52.1-21.6 13.9-13.9 21.6-32.4 21.6-52.1 0-19.7-7.7-38.2-21.6-52.1-13.9-13.9-32.4-21.6-52.1-21.6-19.7 0-38.2 7.7-52.1 21.6-13.9 13.9-21.6 32.4-21.6 52.1 0 19.7 7.7 38.2 21.6 52.1 14 13.9 32.5 21.6 52.1 21.6z" style="fill:#fff"/>
</svg>
