<svg xmlns="http://www.w3.org/2000/svg" viewBox="0 0 1024 1024">
   <circle cx="512" cy="512" r="512" style="fill:#111"/>
   <path d="M351.6 510.9c0-8.8-6.9-16.1-15.9-16.1-8.8 0-15.9 7.3-15.9 16.1s6.9 15.9 15.9 15.9c9 .1 15.9-7 15.9-15.9m27.6.2c0 22.8-19.4 41-43.3 41-24.1 0-43.3-18.2-43.3-41 0-23 19.4-41.4 43.3-41.4 24-.1 43.3 18.4 43.3 41.4m86.4-16.6c0-15.3-10.7-28.7-26.6-28.7h-22v58.1h22c15.9-.1 26.6-14.1 26.6-29.4m29.7 0c0 32.8-23.2 55.2-55.8 55.2h-47.1c-2.3 0-4-1.7-4-3.8V443.5c0-2.1 1.7-3.8 4-3.8h47.1c32.8.2 55.8 22 55.8 54.8m46.2 32.4c8.8 0 15.9-7.3 15.9-16.1s-6.9-16.1-15.9-16.1c-8.8 0-15.9 7.3-15.9 16.1 0 9 7.1 16.1 15.9 16.1m-4.2-57.3c9.4 0 16.9 3.4 20.1 8.2v-2.3c0-2.1 1.7-3.6 3.6-3.6h20c2.1 0 3.6 1.5 3.6 3.6V546c0 2.1-1.5 3.6-3.6 3.6h-19.7c-2.1 0-3.6-1.5-3.6-3.6v-2.3c-3.3 4.8-10.9 8.2-20.3 8.2-19.9 0-39.1-15.9-39.1-41.4-.1-25.4 19.1-40.9 39-40.9m94.3 57.3c8.8 0 15.9-7.3 15.9-16.1s-6.9-16.1-15.9-16.1c-8.8 0-15.9 7.3-15.9 16.1 0 9 7.1 16.1 15.9 16.1m-4.8-57.3c9.6 0 17.1 3.6 20.5 7.9v-33.9c0-2.1 1.7-3.6 3.6-3.6H671c2.1 0 3.6 1.5 3.6 3.6v102.7c0 2.1-1.5 3.6-3.6 3.6h-19.7c-2.1 0-3.6-1.5-3.6-3.6V544c-4 4.8-10.9 8.2-20.3 8.2-19.9 0-39.1-15.9-39.1-41.4s18.9-41.2 38.5-41.2m94.8 57.3c8.8 0 15.9-7.3 15.9-16.1s-6.9-16.1-15.9-16.1c-8.8 0-15.9 7.3-15.9 16.1.2 9 7.1 16.1 15.9 16.1m-4.6-57.3c9.6 0 17.1 3.6 20.5 7.9v-33.9c0-2.1 1.7-3.6 3.6-3.6H761c2.1 0 3.6 1.5 3.6 3.6v102.7c0 2.1-1.5 3.6-3.6 3.6h-19.7c-2.1 0-3.6-1.5-3.6-3.6V544c-4 4.8-10.9 8.2-20.3 8.2-19.9 0-39.1-15.9-39.1-41.4s19-41.2 38.7-41.2M831 561c-5 16.5-16.5 25.7-34.5 25.7-9.8 0-19.4-3.3-25.5-8.6-1-1-1.5-2.1-1.5-3.3 0-1 .4-2.1 1.3-3.3l7.5-11.3c1.1-1.5 2.9-1.7 3.3-1.7 1.7 0 2.5.4 4 1.5 2.3 1.5 5.6 3.4 9.2 3.4 3.1 0 7.1-1.3 8.6-5.9l2.5-7.9h-12.3c-2.5 0-4-1.7-4.8-3.8l-20.1-67.6c-.4-1.7-.6-2.7-.6-3.3 0-1.5 1.1-2.9 3.3-2.9h23.8c2.1 0 3.3 1.9 3.8 3.8l13.2 48.7h1l10.5-48.7c.4-1.9 1.7-3.8 3.8-3.8h24.1c2.3 0 3.3 1.3 3.3 2.9 0 .6-.2 1.5-.6 3.3L831 561m-566.8-26.5c-9.6 13.2-25.3 17.6-39.3 17.6-32.2 0-56-24-56-57.3.2-32 25.9-57.5 59.4-57.5 24.9 0 44.8 10.5 53.8 30.7 1.1 2.3 1.9 6.1-4.8 7.3l-17.6 3.1c-4 .8-6.3-1.9-7.1-3.1-5.2-7.1-13.6-11.9-23.8-11.9-17.6 0-30.1 13.4-30.1 31.2 0 19.7 14.2 31.2 29.7 31.2 10.3 0 18.8-3.8 24.3-11.1h-15.5c-2.3 0-4-1.7-4-3.8v-14.8c0-2.1 1.7-3.8 4-3.8h47.3c2.3 0 4 1.7 4 3.8v49.6c0 2.1-1.7 3.8-4 3.8H268c-2.3 0-4-1.7-4-3.8l.2-11.2" style="fill:#fff"/>
</svg>
