<?xml version="1.0" encoding="utf-8"?>
<!-- Generator: Adobe Illustrator 21.0.0, SVG Export Plug-In . SVG Version: 6.00 Build 0)  -->
<svg version="1.1" xmlns="http://www.w3.org/2000/svg" xmlns:xlink="http://www.w3.org/1999/xlink" x="0px" y="0px"
	 viewBox="0 0 1024 1024" style="enable-background:new 0 0 1024 1024;" xml:space="preserve">
<style type="text/css">
	.st0{fill:#111111;}
	.st1{fill:#FFFFFF;}
</style>
<g id="Guides">
</g>
<g id="Icon">
	<circle class="st0" cx="512" cy="512" r="512"/>
	<path class="st1" d="M351.6,510.9c0-8.8-6.9-16.1-15.9-16.1c-8.8,0-15.9,7.3-15.9,16.1c0,8.8,6.9,15.9,15.9,15.9
		C344.7,526.9,351.6,519.8,351.6,510.9 M379.2,511.1c0,22.8-19.4,41-43.3,41c-24.1,0-43.3-18.2-43.3-41c0-23,19.4-41.4,43.3-41.4
		C359.9,469.6,379.2,488.1,379.2,511.1 M465.6,494.5c0-15.3-10.7-28.7-26.6-28.7h-22v58.1h22C454.9,523.8,465.6,509.8,465.6,494.5
		 M495.3,494.5c0,32.8-23.2,55.2-55.8,55.2h-47.1c-2.3,0-4-1.7-4-3.8V443.5c0-2.1,1.7-3.8,4-3.8h47.1
		C472.3,439.9,495.3,461.7,495.3,494.5 M541.5,526.9c8.8,0,15.9-7.3,15.9-16.1c0-8.8-6.9-16.1-15.9-16.1c-8.8,0-15.9,7.3-15.9,16.1
		C525.6,519.8,532.7,526.9,541.5,526.9 M537.3,469.6c9.4,0,16.9,3.4,20.1,8.2v-2.3c0-2.1,1.7-3.6,3.6-3.6H581c2.1,0,3.6,1.5,3.6,3.6
		V546c0,2.1-1.5,3.6-3.6,3.6h-19.7c-2.1,0-3.6-1.5-3.6-3.6v-2.3c-3.3,4.8-10.9,8.2-20.3,8.2c-19.9,0-39.1-15.9-39.1-41.4
		C498.2,485.1,517.4,469.6,537.3,469.6 M631.6,526.9c8.8,0,15.9-7.3,15.9-16.1c0-8.8-6.9-16.1-15.9-16.1c-8.8,0-15.9,7.3-15.9,16.1
		C615.7,519.8,622.8,526.9,631.6,526.9 M626.8,469.6c9.6,0,17.1,3.6,20.5,7.9v-33.9c0-2.1,1.7-3.6,3.6-3.6H671
		c2.1,0,3.6,1.5,3.6,3.6v102.7c0,2.1-1.5,3.6-3.6,3.6h-19.7c-2.1,0-3.6-1.5-3.6-3.6v-2.3c-4,4.8-10.9,8.2-20.3,8.2
		c-19.9,0-39.1-15.9-39.1-41.4C588.3,485.3,607.2,469.6,626.8,469.6 M721.6,526.9c8.8,0,15.9-7.3,15.9-16.1
		c0-8.8-6.9-16.1-15.9-16.1c-8.8,0-15.9,7.3-15.9,16.1C705.9,519.8,712.8,526.9,721.6,526.9 M717,469.6c9.6,0,17.1,3.6,20.5,7.9
		v-33.9c0-2.1,1.7-3.6,3.6-3.6h19.9c2.1,0,3.6,1.5,3.6,3.6v102.7c0,2.1-1.5,3.6-3.6,3.6h-19.7c-2.1,0-3.6-1.5-3.6-3.6v-2.3
		c-4,4.8-10.9,8.2-20.3,8.2c-19.9,0-39.1-15.9-39.1-41.4C678.3,485.3,697.3,469.6,717,469.6 M831,561c-5,16.5-16.5,25.7-34.5,25.7
		c-9.8,0-19.4-3.3-25.5-8.6c-1-1-1.5-2.1-1.5-3.3c0-1,0.4-2.1,1.3-3.3l7.5-11.3c1.1-1.5,2.9-1.7,3.3-1.7c1.7,0,2.5,0.4,4,1.5
		c2.3,1.5,5.6,3.4,9.2,3.4c3.1,0,7.1-1.3,8.6-5.9l2.5-7.9h-12.3c-2.5,0-4-1.7-4.8-3.8l-20.1-67.6c-0.4-1.7-0.6-2.7-0.6-3.3
		c0-1.5,1.1-2.9,3.3-2.9h23.8c2.1,0,3.3,1.9,3.8,3.8l13.2,48.7h1l10.5-48.7c0.4-1.9,1.7-3.8,3.8-3.8h24.1c2.3,0,3.3,1.3,3.3,2.9
		c0,0.6-0.2,1.5-0.6,3.3L831,561 M264.2,534.5c-9.6,13.2-25.3,17.6-39.3,17.6c-32.2,0-56-24-56-57.3c0.2-32,25.9-57.5,59.4-57.5
		c24.9,0,44.8,10.5,53.8,30.7c1.1,2.3,1.9,6.1-4.8,7.3l-17.6,3.1c-4,0.8-6.3-1.9-7.1-3.1c-5.2-7.1-13.6-11.9-23.8-11.9
		c-17.6,0-30.1,13.4-30.1,31.2c0,19.7,14.2,31.2,29.7,31.2c10.3,0,18.8-3.8,24.3-11.1h-15.5c-2.3,0-4-1.7-4-3.8v-14.8
		c0-2.1,1.7-3.8,4-3.8h47.3c2.3,0,4,1.7,4,3.8v49.6c0,2.1-1.7,3.8-4,3.8h-16.5c-2.3,0-4-1.7-4-3.8L264.2,534.5"/>
</g>
</svg>
