<svg xmlns="http://www.w3.org/2000/svg" viewBox="0 0 1024 1024" style="enable-background:new 0 0 1024 1024" xml:space="preserve">
   <circle cx="512" cy="512" r="512" style="fill:#0098d0"/>
   <path d="M450.2 435c7.5-40.2 19.6-82.4 19.6-82.4 18.1-64.8 69.9-78.4 69.9-78.4 50.3-17.1 79.9 17.1 79.9 17.1v.5c2.5 3 3.5 6 3.5 6 1.5 1.5 2 4 2 6.5 0 7-4 12.6-9.6 15.6h-.5c-39.7 18.1-67.9 49.8-67.9 49.8-70.4 77.9-104.6 216.7-104.6 216.7s-34 143.6-125 119c0 0-57.3-14.1-72.4-97.5-3.5-22.1 2.5-27.1 2.5-27.1 9.6-7.5 20.6 6 20.6 6C296.4 621 333 618 333 618c4.5 0 55.3-.5 96-106.6.1.5 13.7-32.7 21.2-76.4zm257.4 97c-73.4-12.1-173.9 192.5-173.9 192.5-6.5 12.1-13.6 9.6-13.6 9.6-8-1.5-4.5-13.6-4.5-13.6s54.8-232.7 167.9-251.8c0 0 64.3-10.1 69.4 61.3 0 0 0 21.6-20.6 12.6-.1.5-13.2-8.6-24.7-10.6zm60.8-137.2c-51.8-69.4-126.7-44.2-126.7-44.2C489.9 398.3 445.2 729 445.2 729s-2.5 17.1 8.5 17.6c0 0 10.1 1.5 16.6-15.6 0 0 63.3-294.1 210.6-303.6 0 0 37.7-3 72.4 13.1 0 0 11.1 6.5 20.1-2 0 0 12.1-11.1 3.5-28.7 0 0-3-5.5-8-14.6l-.5-.4z" style="fill:#fff"/>
</svg>
