<svg xmlns="http://www.w3.org/2000/svg" viewBox="0 0 1024 1024">
   <circle cx="512" cy="512" r="512" style="fill:#1fbaed"/>
   <path d="M497 503.39a13.88 13.88 0 0 1 0 16.26l-147.29 198a52.25 52.25 0 0 1-77.14 7.35c-20.4-18.5-21.68-49.74-5.42-71.74l105.53-141.9-104.89-140.59c-16.26-22-14.67-53.24 5.42-71.74a52.25 52.25 0 0 1 77.16 7.33Zm30.28-.32a13.88 13.88 0 0 0 0 16.26l147 198.31a52.25 52.25 0 0 0 77.15 7.36c20.4-18.5 21.68-49.74 5.42-71.74l-105.53-141.9 104.89-140.59c16.26-22 14.67-53.24-5.42-71.74a52.25 52.25 0 0 0-77.16 7.33Z" style="fill:#fff"/>
</svg>
