<?xml version="1.0" encoding="utf-8"?>
<!-- Generator: Adobe Illustrator 21.0.0, SVG Export Plug-In . SVG Version: 6.00 Build 0)  -->
<svg version="1.1" xmlns="http://www.w3.org/2000/svg" xmlns:xlink="http://www.w3.org/1999/xlink" x="0px" y="0px"
	 viewBox="0 0 1024 1024" style="enable-background:new 0 0 1024 1024;" xml:space="preserve">
<style type="text/css">
	.st0{fill:#1FBAED;}
	.st1{fill:#FFFFFF;}
</style>
<g id="Guides">
</g>
<g id="Icon">
	<circle class="st0" cx="512" cy="512" r="512"/>
	<g>
		<path class="st1" d="M350.4,306.4c-18.2-24.6-53.9-28.4-77.2-7.3c-20.1,18.5-21.7,49.7-5.4,71.7l104.9,140.6L267.2,653.2
			c-16.3,22-15,53.2,5.4,71.7c23.3,21,59,17.2,77.2-7.3l147.3-198c3.5-4.8,3.5-11.5,0-16.3L350.4,306.4z"/>
		<path class="st1" d="M673.6,306.4c18.2-24.6,53.9-28.4,77.2-7.3c20.1,18.5,21.7,49.7,5.4,71.7L651.3,511.4l105.5,141.9
			c16.3,22,15,53.2-5.4,71.7c-23.3,21-59,17.2-77.2-7.3l-147-198.3c-3.5-4.8-3.5-11.5,0-16.3L673.6,306.4z"/>
	</g>
</g>
</svg>
