<svg xmlns="http://www.w3.org/2000/svg" viewBox="0 0 1024 1024" style="enable-background:new 0 0 1024 1024" xml:space="preserve">
   <circle cx="512" cy="512" r="512" style="fill:#1fbaed"/>
   <path d="M350.4 306.4c-18.2-24.6-53.9-28.4-77.2-7.3-20.1 18.5-21.7 49.7-5.4 71.7l104.9 140.6-105.5 141.8c-16.3 22-15 53.2 5.4 71.7 23.3 21 59 17.2 77.2-7.3l147.3-198c3.5-4.8 3.5-11.5 0-16.3L350.4 306.4zm323.2 0c18.2-24.6 53.9-28.4 77.2-7.3 20.1 18.5 21.7 49.7 5.4 71.7L651.3 511.4l105.5 141.9c16.3 22 15 53.2-5.4 71.7-23.3 21-59 17.2-77.2-7.3l-147-198.3c-3.5-4.8-3.5-11.5 0-16.3l146.4-196.7z" style="fill:#fff"/>
</svg>
