<?xml version="1.0" encoding="utf-8"?>
<!-- Generator: Adobe Illustrator 21.0.0, SVG Export Plug-In . SVG Version: 6.00 Build 0)  -->
<svg version="1.1" xmlns="http://www.w3.org/2000/svg" xmlns:xlink="http://www.w3.org/1999/xlink" x="0px" y="0px"
	 viewBox="0 0 1024 1024" style="enable-background:new 0 0 1024 1024;" xml:space="preserve">
<style type="text/css">
	.st0{fill:#21409A;}
	.st1{fill:#FFFFFF;}
</style>
<g id="Guides">
</g>
<g id="Icon">
	<circle class="st0" cx="512" cy="512" r="512"/>
	<path id="Namesilo_logomark_recreation_by_krisu" class="st1" d="M423.4,343.9c7.4-0.9,17.7-2.1,29.1-3.2v477.1h-29.1V343.9z
		 M505.7,337.3c-13.8,0.3-29.2,1.3-43.5,2.6v478h59.8V337.3c-1,0-2.1-0.1-3.1-0.1H505.7z M533.2,817.8h42V341
		c-13-1.3-27.8-2.6-42-3.3V817.8z M584.8,342.1v475.7H601V343.9C596.5,343.4,591,342.7,584.8,342.1z M512,192.2
		c-60.5,60.6-98,136.9-98,136.9s58.2-8.1,98-8.1s98,8.1,98,8.1S576.8,257.1,512,192.2z"/>
</g>
</svg>
