<svg xmlns="http://www.w3.org/2000/svg" viewBox="0 0 1024 1024">
   <circle cx="512" cy="512" r="512" style="fill:#f56c2d"/>
   <path d="M524.55 322.34a188.79 188.79 0 0 1 130.63 64.28 194.41 194.41 0 0 1 36.59 63.21 184.53 184.53 0 0 1 9.9 74.71 175.45 175.45 0 0 1-6.53 39.46 195.71 195.71 0 0 1-14.38 36.33 425.8 425.8 0 0 1-31.36 51.46 375.69 375.69 0 0 1-37.59 45.19 397 397 0 0 1-43.35 38.44 426.84 426.84 0 0 1-48.09 31.55l-.79.55a4.18 4.18 0 0 1-2.33.49 6.26 6.26 0 0 1-3.39-2.07 5.68 5.68 0 0 1-1.32-3.69 6.31 6.31 0 0 1 .26-1.81 4 4 0 0 1 .79-1.32 139.17 139.17 0 0 0 14.64-26.35 115.64 115.64 0 0 0 7.85-29 2.52 2.52 0 0 0-.81-1.81 2.37 2.37 0 0 0-1.81-.81c-5.63.68-11.26 1.13-17 1.32a105.07 105.07 0 0 1-17-.79 188.44 188.44 0 0 1-130.63-64.28 193.89 193.89 0 0 1-36.59-63.21 184.8 184.8 0 0 1-9.92-74.71 175.44 175.44 0 0 1 6.57-39.48 183.42 183.42 0 0 1 14.4-35.84 416.06 416.06 0 0 1 31.34-52A384.74 384.74 0 0 1 412.2 327a401.09 401.09 0 0 1 43.37-38.4 419.81 419.81 0 0 1 48.07-31.55l.81-.53a4 4 0 0 1 2.33-.53 6.3 6.3 0 0 1 3.37 2.09 5.44 5.44 0 0 1 1.32 3.71 5.21 5.21 0 0 1-.26 1.79 3.51 3.51 0 0 1-.77 1.3 137.54 137.54 0 0 0-14.66 26.39 116.31 116.31 0 0 0-7.81 29 2.66 2.66 0 0 0 2.58 2.62q8.38-1.06 17-1.3a109.76 109.76 0 0 1 17 .75Zm-17.22 263.84a70.84 70.84 0 0 0 53.78-18.24c15.36-13.63 23.66-30.68 25.09-51.2a71.62 71.62 0 0 0-18.26-54.08 70.26 70.26 0 0 0-51.2-24.79 71.67 71.67 0 0 0-54.06 18.24 70.38 70.38 0 0 0-24.83 51.2 72.13 72.13 0 0 0 18 54.08c13.44 15.46 30.59 23.78 51.48 24.79Z" style="fill:#fff"/>
</svg>
