<svg xmlns="http://www.w3.org/2000/svg" viewBox="0 0 1024 1024">
   <circle cx="512" cy="512" r="512" style="fill:#68cef5"/>
   <path d="M495.1 496.8c9.3 5.4 24.4 5.4 33.7 0l169.4-98.3c9.3-5.4 9.3-14.2 0-19.5l-169.4-97.8c-9.3-5.4-24.5-5.4-33.8 0L325.6 379c-9.3 5.4-9.3 14.1 0 19.5l169.5 98.3zm9.6 41.9c0-10.7-7.6-23.9-16.9-29.3l-170-98.6c-9.3-5.4-16.9-1-16.9 9.7v196.8c0 10.7 7.6 23.9 16.9 29.2l169.9 98.1c9.3 5.4 16.9 1 16.9-9.7l.1-196.2zm31.5-29.3c-9.3 5.4-16.9 18.6-16.9 29.3v196.2c0 10.7 7.6 15.1 16.9 9.7l169.9-98.1c9.3-5.4 16.9-18.5 16.9-29.2V420.5c0-10.7-7.6-15.1-16.9-9.7l-169.9 98.6z" style="fill:#fff"/>
</svg>
