<svg xmlns="http://www.w3.org/2000/svg" viewBox="0 0 1024 1024">
   <circle cx="512" cy="512" r="512" style="fill:#37557c"/>
   <path d="M718.14 487.12v86.12h-11c-12.43 0-20.19-9.49-20.19-20v-161.7h11c12.43 0 20.19 9.49 20.19 20v75.58Zm-458.71 59.12c22.08-1.52 26-28.74 25-42.92-1.54-21.65-13.89-33.28-33.91-31.9-2 .13-6.55.93-12.81 2.23v66.62c5.22 4.54 12.7 6.6 21.73 6ZM295 453.88c13.27 10.65 20.79 27.11 22.35 48.93 1.45 20.36-3.11 38.25-13.2 51.71a55.72 55.72 0 0 1-41.5 22.27c-9.21.63-18-.53-25-3.23v30.37c0 8.85-4.66 17.88-15 21.54l-18.05 7v-129.4a22.15 22.15 0 0 1 4-11.87l10.17-13.35c-13.19 3.15-34.6 10.35-34.6 10.35l4.83-23.78c1.43-7.26 4.46-13.25 15.64-15.74 10.48-2.33 31.91-7 41.08-7.66 20.07-1.38 37.14 3.07 49.34 12.86Zm350.3 52.59c0-14.2-3.53-38-27.2-38-22.41 0-24.82 28.23-24.82 40.37 0 17.33 2.72 40.37 26.25 40.37 17.34 0 25.77-14 25.77-42.71Zm9.38-114.91a20 20 0 0 1 20.15 19.78v161.87H661.1a16.75 16.75 0 0 1-15-10c-7.86 8.17-18.95 12.31-33.08 12.31-15.9 0-29.1-6.12-38.17-17.69-8.89-11.34-13.6-27.8-13.6-47.6 0-20.66 4.63-37.93 13.4-49.94 9.16-12.55 22.59-19.18 38.84-19.18 11.47 0 22.43 4 30.19 10.78v-60.33ZM521.35 506.47c0-14.2-3.53-38-27.2-38-22.41 0-24.83 28.23-24.83 40.37 0 17.33 2.72 40.37 26.25 40.37 17.34 0 25.78-14 25.78-42.71ZM532 391.56a20 20 0 0 1 20.15 19.78v161.87h-13.73a16.75 16.75 0 0 1-15-10c-7.86 8.17-18.95 12.31-33.08 12.31-15.9 0-29.1-6.12-38.17-17.69-8.89-11.34-13.6-27.8-13.6-47.6 0-20.66 4.63-37.93 13.4-49.94 9.16-12.55 22.59-19.18 38.84-19.18 11.47 0 22.43 4 30.19 10.78v-60.33ZM398.85 530.79V513.4a160.72 160.72 0 0 0-27.94 6.3c-13.4 4.24-16 9.33-16 16.7s8.66 12.31 16.75 12.31c13.73 0 27.2-8.88 27.2-17.92ZM330 481.35s1-6.85 2.88-19.25 21.28-17.27 21.28-17.27a103.16 103.16 0 0 1 24-3.65s3 0 3 0c28.61 0 48.9 17 48.9 40.33v91.73H417.3a20 20 0 0 1-16.3-9.44c-8.74 7.76-20.58 11.28-37.43 11.28-22.29 0-39.75-16.58-39.75-37.74 0-21.35 16.06-37.62 44.07-44.64a211.31 211.31 0 0 1 30.85-5.44c-1.29-19.75-14.17-19.75-18.55-19.75-16.4 0-50.21 13.84-50.21 13.84Zm476.69-2.46c0-9.17-10.11-12.59-16.49-12.59-18.18 0-30.7 15.59-32 39.21 23-2.34 48.44-8.92 48.44-26.62Zm-19.05 69.49c31.38 0 52.09-18.79 52.09-18.79l-5.81 25c-2 8.4-7.13 13.52-15.85 15.64-.67.17-17.77 4.52-30.91 4.52C750 574.75 727 549.18 727 508c0-18.63 6.06-35.65 17.06-47.92 11.42-12.74 27.74-19.75 46-19.75 30.39 0 47.82 13.93 47.82 38.21 0 19.82-11 34.5-32.76 43.61-16 6.7-34 8.69-43.82 9.62 3.67 11.38 15.77 16.6 26.39 16.6Z" style="fill:#fff"/>
</svg>
