<svg xmlns="http://www.w3.org/2000/svg" viewBox="0 0 1024 1024">
   <circle cx="512" cy="512" r="512" style="fill:#00457c"/>
   <path d="M403.4 768h-66.2c-14.2 0-23.2-11.3-20-25.2l3.2-14.4h44.2c14.2 0 28.5-11.4 31.6-25.2l22.7-98c3.2-13.8 17.4-25.2 31.6-25.2h18.8c80.8 0 143.7-16.6 188.6-49.9 44.9-33.3 67.4-76.8 67.4-130.9 0-24-4.2-43.8-12.5-59.5 0-.3-.3-.7-.3-1l2.9 1.6c16 9.9 28.2 22.7 36.5 38.7 8.6 16 12.8 35.8 12.8 59.5 0 54.1-22.4 97.6-67.5 130.9-44.8 33-107.8 49.6-188.5 49.6h-19.2c-14.1 0-28.5 11.2-31.7 25.3L435 742.7c-3.2 13.8-17.3 25-31.4 25l-.2.3zm-57.1-57.5H280c-14.1 0-23.1-11.3-20-25.2l93.3-404.1c3.2-13.9 17.4-25.2 31.6-25.2h137.9c29.8 0 55.7 2.1 77.8 6.2 22.1 4 41 11.1 57.3 21.1 15.7 9.9 28.2 22.9 36.2 38.8 8.3 16 12.5 35.8 12.5 59.7 0 54.1-22.4 97.6-67.5 130.5-44.8 33.3-107.9 49.6-188.5 49.6h-18.8c-14.1 0-28.3 11.2-31.5 24.9l-22.6 97.9c-3.2 13.8-17.4 25-31.7 25l.3.8zM505.1 340h-21.6c-14.2 0-28.4 11.3-31.6 25.1l-19.8 85.8c-3.2 13.8 5.8 25.2 19.8 25.2h16.3c35.5 0 63.4-7.3 83.2-21.8 19.8-14.6 29.8-35.3 29.8-62.1 0-17.7-6.4-30.8-19.2-39.3-12.8-8.6-32-12.9-57.3-12.9h.4z" style="fill:#fff"/>
</svg>
