<svg xmlns="http://www.w3.org/2000/svg" viewBox="0 0 1024 1024">
   <circle cx="512" cy="512" r="512" style="fill:#ff2d36"/>
   <path d="M205.9 562h25.3v-43.7H247c32.3 0 55.3-14.9 55.3-46.7 0-29.9-22-44.1-53.8-44.1h-42.6V562zm39.6-111.9c19.3 0 31.4 7.1 31.4 22.2 0 15.7-12.1 23.3-32 23.3h-13.6V450h14.2zm70.3 112.2h25.3v-44.9c0-23.5 12-33.2 33.8-33.2v-25.4c-15.8 0-26.5 6.5-32.9 18.1l-.9-.1v-15.6l-25.3.1v101zm67.6.4h25.3V461.3h-25.3v101.4zM396 452.9c7.1 0 12.7-5.7 12.7-12.7 0-6.8-5.6-12.7-12.7-12.7s-12.7 5.9-12.7 12.7c.1 6.9 5.7 12.7 12.7 12.7zm65.3 109.8h19l42.9-101.4h-27.1l-24.3 64.4-24.1-64.4h-29.5l43.1 101.4zm140.9 0h26.3V461.3h-26.7v13.3h-.6c-6.9-10.5-18.1-15.7-31.4-15.7-26.7 0-48 21-48 53.1s22 53.2 48 53.2c14.4 0 24.1-5.6 31.7-17.6h.6v15.1zm-27-21.6c-15.3 0-26.7-12.3-26.7-29.7s11.4-29.5 26.7-29.5c15.3 0 26.7 12.1 26.7 29.5s-11.4 29.7-26.7 29.7zm137.4-4.5c-6 2.8-13.4 4.5-20 4.5-18.1 0-30.2-12.1-30.2-30.1 0-17 11-29.1 28.9-29.1 8.3 0 15.3 1.9 21 5.6V463c-5.9-2.8-13.2-4.5-21.2-4.5-33.6 0-55.5 22.4-55.5 52.7 0 31 22.9 53.2 55.9 53.2 7.2 0 14.7-1.3 21.2-4.1v-23.7zm24.4 59.9h26.7L818 461.3h-26.9l-22.8 59.5-26.3-59.5h-28l42.4 88.3-19.4 46.9z" style="fill:#fff"/>
</svg>
