<?xml version="1.0" encoding="utf-8"?>
<!-- Generator: Adobe Illustrator 21.0.0, SVG Export Plug-In . SVG Version: 6.00 Build 0)  -->
<svg version="1.1" xmlns="http://www.w3.org/2000/svg" xmlns:xlink="http://www.w3.org/1999/xlink" x="0px" y="0px"
	 viewBox="0 0 1024 1024" style="enable-background:new 0 0 1024 1024;" xml:space="preserve">
<style type="text/css">
	.st0{fill:#FF2D36;}
	.st1{fill:#FFFFFF;}
</style>
<g id="Guides">
</g>
<g id="Icon">
	<circle class="st0" cx="512" cy="512" r="512"/>
	<path id="logo-outline" class="st1" d="M205.9,562h25.3v-43.7H247c32.3,0,55.3-14.9,55.3-46.7c0-29.9-22-44.1-53.8-44.1h-42.6V562z
		 M245.5,450.1c19.3,0,31.4,7.1,31.4,22.2c0,15.7-12.1,23.3-32,23.3h-13.6v-45.6H245.5z M315.8,562.3l25.3,0v-44.9
		c0-23.5,12-33.2,33.8-33.2v-25.4c-15.8,0-26.5,6.5-32.9,18.1l-0.9-0.1v-15.6l-25.3,0.1V562.3z M383.4,562.7h25.3V461.3h-25.3V562.7
		z M396,452.9c7.1,0,12.7-5.7,12.7-12.7c0-6.8-5.6-12.7-12.7-12.7c-7.1,0-12.7,5.9-12.7,12.7C383.4,447.1,389,452.9,396,452.9z
		 M461.3,562.7h19l42.9-101.4h-27.1l-24.3,64.4l-24.1-64.4h-29.5L461.3,562.7z M602.2,562.7h26.3V461.3h-26.7v13.3h-0.6
		c-6.9-10.5-18.1-15.7-31.4-15.7c-26.7,0-48,21-48,53.1s22,53.2,48,53.2c14.4,0,24.1-5.6,31.7-17.6h0.6V562.7z M575.2,541.1
		c-15.3,0-26.7-12.3-26.7-29.7s11.4-29.5,26.7-29.5c15.3,0,26.7,12.1,26.7,29.5S590.5,541.1,575.2,541.1z M712.6,536.6
		c-6,2.8-13.4,4.5-20,4.5c-18.1,0-30.2-12.1-30.2-30.1c0-17,11-29.1,28.9-29.1c8.3,0,15.3,1.9,21,5.6V463
		c-5.9-2.8-13.2-4.5-21.2-4.5c-33.6,0-55.5,22.4-55.5,52.7c0,31,22.9,53.2,55.9,53.2c7.2,0,14.7-1.3,21.2-4.1V536.6z M737,596.5
		h26.7l54.3-135.2h-26.9l-22.8,59.5l-26.3-59.5h-28l42.4,88.3L737,596.5z"/>
</g>
</svg>
