<svg xmlns="http://www.w3.org/2000/svg" viewBox="0 0 1024 1024">
   <circle cx="512" cy="512" r="512"/>
   <path d="M251.4 406.8c16.3-6.5 34-8.5 51.4-8.3 12.2.1 24.5 1.1 36.4 3.7 9.9 2.2 19.7 5.7 28.4 11.1 7.1 4.4 13.5 10 18.6 16.6 10.1 12.9 15.6 28.8 18.5 44.8h-63c-1.2-5.4-3.6-10.8-7.9-14.5-5.8-5.1-13.6-6.9-21-7.9-8.3-.9-16.6-1.1-24.9-.1-5.5.8-11.3 2.1-15.6 5.9-3.6 3.2-4.8 8.5-3.7 13.2.7 2.9 3 5.2 5.6 6.5 3.8 1.9 8.1 2.7 12.2 3.5 10.8 1.9 21.7 2.8 32.6 3.6 12.2.7 24.5 2.2 36.4 5 9.1 2.2 18.2 5.1 26.2 10.1 7.5 4.6 13.8 11.1 17.8 19 4.2 8.3 5.8 17.6 6.2 26.7.7 14.5-1.5 29.4-8.7 42.2-5.1 9.4-12.7 17.3-21.7 22.9-9.9 6.2-21.1 9.9-32.5 12.1-13.5 2.6-27.2 3.1-40.9 2.7-14-.4-28.1-1.9-41.7-5.7-8.2-2.3-16.2-5.6-23.4-10.2-8.5-5.4-15.8-12.8-21.1-21.4-7.9-12.7-11.8-27.5-14-42.3h66.1c1.2 5.4 3.6 10.7 7.6 14.6 5.6 5.7 13.5 8.4 21.2 9.8 9 1.5 18.2 1.7 27.3.9 6-.6 12.3-1.5 17.2-5.2 4.9-3.7 6-11 3.5-16.4-1.6-3.3-5.1-5.3-8.5-6.4-6.9-2.2-14.3-3-21.5-3.9-16.1-1.9-32.5-2.1-48.5-5-9.7-1.7-19.3-4.2-28.2-8.5-7.8-3.8-15-9.2-19.9-16.3-6.6-9.2-9.2-20.6-9.8-31.7-.9-14.9 1.5-30.4 9.3-43.3 7.6-12.8 20.2-22.3 34-27.8zm459.2 212.8h27.1v-73.2c.4-9.8-.1-19.6.3-29.4 5.5 34.2 11.3 68.3 16.9 102.5 9.2.1 18.5 0 27.7 0-7.6-40.8-15.1-81.6-22.6-122.5-.3-1.6.4-3.2.7-4.8 7-29.5 14-58.9 21-88.4h-26.2c-6.4 29.3-12.6 58.7-19 88 .4-29.3.7-58.6 1.2-88-9-.1-18.1 0-27.1 0v215.8zm82.2 0h29.5v-18h-12.9V519h12.9v-17.7h-12.9v-79.6h12.9V404h-29.5v215.6zM414.2 455.3c18.1-.1 36.1 0 54.2 0v164.3H523V455.3h55c.1-16.8 0-33.6 0-50.5H414.1c0 16.8 0 33.7.1 50.5zm187.5 164.3c2-10.5 4-21.1 6-31.6h45.4c2.1 10.5 4.2 21.1 6.3 31.6h38.8c-16.3-71.6-32.6-143.1-48.8-214.7-12.9-.1-25.9 0-38.8 0-15.9 71.5-31.8 143.1-47.6 214.7h38.7zm32.7-141.5c4.1 25.3 8.1 50.5 12.2 75.8h-32.2c5.4-33.3 10.7-66.6 16-99.9 1.5 8 2.6 16.1 4 24.1z" style="fill:#fff"/>
</svg>
