<svg xmlns="http://www.w3.org/2000/svg" viewBox="0 0 1024 1024" style="enable-background:new 0 0 1024 1024" xml:space="preserve">
   <circle cx="512" cy="512" r="512" style="fill:#0079bf"/>
   <path d="M704 256H320c-35.4 0-64 28.7-64 64v384c0 35.3 28.7 64 64 64h384c35.3 0 64-28.7 64-64V320c0-35.3-28.7-64-64-64zM478.7 643.9c0 17-13.8 30.7-30.7 30.7h-94.7c-17 0-30.7-13.8-30.7-30.7V353.3c0-17 13.8-30.7 30.7-30.7H448c17 0 30.7 13.8 30.7 30.7v290.6zm222.8-128.1c0 16.9-13.8 30.7-30.7 30.7H576c-17 0-30.7-13.8-30.7-30.7V353.3c0-17 13.8-30.7 30.7-30.7h94.7c17 0 30.7 13.8 30.7 30.7l.1 162.5z" style="fill:#fff"/>
</svg>
