<svg xmlns="http://www.w3.org/2000/svg" viewBox="0 0 1024 1024">
   <circle cx="512" cy="512" r="512" style="fill:#e95420"/>
   <path d="M512 243.2c-148.45 0-268.8 120.34-268.8 268.8S363.55 780.8 512 780.8 780.8 660.45 780.8 512 660.46 243.2 512 243.2ZM569.12 344a34.55 34.55 0 1 1 12.65 47.2 34.56 34.56 0 0 1-12.65-47.2Zm-231.2 202.56A34.56 34.56 0 1 1 372.5 512a34.56 34.56 0 0 1-34.58 34.56Zm30.5 3.33a48.61 48.61 0 0 0 0-75.77 148.71 148.71 0 0 1 61.25-85.69l25.68 42.93a98.56 98.56 0 0 0 0 161.31l-25.68 42.93a148.77 148.77 0 0 1-61.25-85.72Zm247.9 142.8A34.55 34.55 0 1 1 629 645.47a34.57 34.57 0 0 1-12.68 47.22Zm.25-75.29A48.62 48.62 0 0 0 551 655.3a149 149 0 0 1-104.86-10.2l24.34-43.7a98.58 98.58 0 0 0 139.69-80.66l50 .78a148.07 148.07 0 0 1-43.59 95.88Zm-6.4-114.13a98.6 98.6 0 0 0-139.69-80.68l-24.34-43.7A149 149 0 0 1 551 368.71a48.62 48.62 0 0 0 65.58 37.9 148 148 0 0 1 43.61 95.87Z" style="fill:#fff"/>
</svg>