<?xml version="1.0" encoding="utf-8"?>
<!-- Generator: Adobe Illustrator 21.0.0, SVG Export Plug-In . SVG Version: 6.00 Build 0)  -->
<svg version="1.1" xmlns="http://www.w3.org/2000/svg" xmlns:xlink="http://www.w3.org/1999/xlink" x="0px" y="0px"
	 viewBox="0 0 1024 1024" style="enable-background:new 0 0 1024 1024;" xml:space="preserve">
<style type="text/css">
	.st0{fill:#2185D0;}
	.st1{fill:#FFFFFF;}
</style>
<g id="Guides">
</g>
<g id="Icon">
	<circle class="st0" cx="512" cy="512" r="512"/>
	<g>
		<path class="st1" d="M544.6,578.7c-2.7,0-5.1,0.6-7.1,1.9c-2,1.2-3.9,2.9-5.8,5.2V612c1.6,2,3.3,3.4,5.2,4.2
			c1.9,0.8,3.9,1.1,6,1.1c2.2,0,4.1-0.4,5.8-1.1c1.7-0.8,3.2-2,4.4-3.6c1.2-1.7,2.1-3.8,2.8-6.3c0.6-2.6,1-5.7,1-9.2
			c0-6.4-1.1-11.1-3.2-13.9C551.6,580.2,548.6,578.7,544.6,578.7z"/>
		<path class="st1" d="M617.1,581.8c-1-1.2-2.3-2.2-3.9-2.8c-1.6-0.7-3.4-1.1-5.5-1.1c-4.1,0-7.3,1.2-9.6,3.5
			c-2.3,2.3-3.8,5.6-4.4,9.9h26.5c0-1.8-0.3-3.5-0.8-5.1C618.8,584.4,618.1,583,617.1,581.8z"/>
		<path class="st1" d="M491.5,581.8c-1-1.2-2.3-2.2-3.9-2.8c-1.6-0.7-3.4-1.1-5.5-1.1c-4.1,0-7.3,1.2-9.6,3.5
			c-2.3,2.3-3.8,5.6-4.4,9.9h26.5c0-1.8-0.3-3.5-0.8-5.1C493.3,584.4,492.6,583,491.5,581.8z"/>
		<path class="st1" d="M352.6,578.6c-4.9,0-8.6,1.7-11,5c-2.4,3.3-3.5,8.1-3.5,14.4s1.2,11.1,3.5,14.4c2.4,3.3,6.1,4.9,11,4.9
			c4.9,0,8.5-1.6,10.8-4.9c2.4-3.3,3.5-8.1,3.5-14.4s-1.2-11.1-3.5-14.4C361.1,580.2,357.5,578.6,352.6,578.6z"/>
		<path class="st1" d="M423.6,579.5c-1.9-0.8-3.9-1.2-6-1.2c-2.1,0-4,0.4-5.8,1.2c-1.7,0.8-3.2,2-4.4,3.6c-1.2,1.6-2.1,3.6-2.8,6.2
			c-0.6,2.5-1,5.4-1,8.8c0,3.4,0.3,6.3,0.8,8.7c0.6,2.4,1.4,4.3,2.4,5.8c1,1.5,2.3,2.6,3.8,3.2c1.5,0.6,3.1,1,5,1
			c2.9,0,5.4-0.6,7.5-1.8c2.1-1.2,4-2.9,5.8-5.2v-26.2C427.3,581.7,425.5,580.3,423.6,579.5z"/>
		<path class="st1" d="M706.2,577.5c-3.5,0-6.1,0.9-7.8,2.6c-1.7,1.7-2.6,3.9-2.6,6.8c0,1.4,0.2,2.6,0.6,3.8
			c0.5,1.2,1.1,2.2,1.9,3.1c0.9,0.8,2,1.5,3.2,2c1.3,0.5,2.8,0.7,4.6,0.7c1.7,0,3.3-0.2,4.6-0.7c1.3-0.5,2.4-1.2,3.2-2
			c0.9-0.8,1.5-1.8,1.9-3c0.5-1.2,0.7-2.5,0.7-3.9c0-2.9-0.9-5.2-2.6-6.8C712.2,578.4,709.7,577.5,706.2,577.5z"/>
		<path class="st1" d="M694.4,626.4c-0.9,1.2-1.4,2.5-1.4,4.1c0,1,0.2,2,0.7,2.8c0.5,0.9,1.3,1.7,2.4,2.3c1.1,0.6,2.6,1.1,4.4,1.5
			c1.8,0.4,4,0.6,6.6,0.6c2.6,0,4.9-0.2,6.8-0.6c1.9-0.4,3.5-0.9,4.7-1.7c1.3-0.7,2.2-1.5,2.7-2.5c0.6-0.9,0.9-2,0.9-3.1
			c0-1.1-0.3-2.1-1-2.7c-0.7-0.7-1.6-1.3-2.8-1.7c-1.2-0.4-2.6-0.7-4.2-0.9c-1.6-0.2-3.2-0.3-5-0.4c-1.7-0.1-3.6-0.2-5.5-0.3
			c-1.9-0.1-3.7-0.2-5.5-0.5C696.6,624.1,695.3,625.2,694.4,626.4z"/>
		<path class="st1" d="M613.5,375.1l-38.9,44.5l0.3,0.2l-87.4,99.8l-43.3-37.9l20.7-23.7l19.6,17.2l58.2-66.5L381.4,267.7
			L188.9,682.3l672.1,6L613.5,375.1z M413.8,343.4l70.2,61.4l-20.7,23.7l-46.6-40.7l-60.4,69l-23.7-20.7L413.8,343.4z M314,623
			c-1.8,1.2-3.7,2.2-5.7,3c-1.9,0.7-3.9,1.2-6,1.5c-2.1,0.3-4.1,0.5-6.2,0.5c-3.6,0-7-0.7-10.2-2c-3.2-1.4-6-3.3-8.4-5.9
			c-2.4-2.6-4.3-5.7-5.7-9.5c-1.4-3.8-2.1-8-2.1-12.8c0-4.3,0.6-8.3,1.8-11.9c1.3-3.7,3.1-6.9,5.5-9.5c2.4-2.7,5.4-4.8,8.9-6.3
			c3.5-1.5,7.6-2.3,12.2-2.3c4.4,0,8.2,0.7,11.5,2.1c3.3,1.4,6.3,3.4,8.9,6l-3.7,5.1c-0.4,0.5-0.8,0.9-1.3,1.3
			c-0.4,0.3-0.9,0.5-1.7,0.5c-0.7,0-1.4-0.2-2.1-0.6c-0.7-0.5-1.5-0.9-2.4-1.5c-0.9-0.6-2.1-1.1-3.4-1.5c-1.3-0.5-2.9-0.7-4.8-0.7
			c-2.5,0-4.6,0.5-6.5,1.4c-1.9,0.9-3.4,2.1-4.7,3.8c-1.2,1.7-2.1,3.7-2.7,6.1c-0.6,2.4-0.9,5-0.9,8c0,3.1,0.3,5.9,1,8.3
			c0.7,2.4,1.7,4.5,2.9,6.2c1.3,1.6,2.8,2.9,4.6,3.8c1.8,0.8,3.8,1.3,6,1.3c2.2,0,4-0.3,5.4-0.8c1.4-0.6,2.6-1.2,3.5-1.8
			c0.9-0.7,1.8-1.3,2.4-1.8c0.7-0.6,1.5-0.9,2.4-0.9c1.1,0,2,0.4,2.6,1.3l4,5.1C317.5,620.3,315.8,621.8,314,623z M379.4,610.3
			c-1.4,3.7-3.3,6.9-5.9,9.5c-2.5,2.6-5.5,4.6-9.1,6c-3.5,1.4-7.5,2.1-11.8,2.1c-4.4,0-8.3-0.7-11.9-2.1c-3.6-1.4-6.6-3.4-9.2-6
			c-2.5-2.6-4.5-5.8-5.9-9.5c-1.4-3.7-2.1-7.9-2.1-12.5c0-4.6,0.7-8.8,2.1-12.5c1.4-3.7,3.4-6.9,5.9-9.5c2.5-2.6,5.6-4.6,9.2-6
			c3.6-1.4,7.5-2.1,11.9-2.1c4.3,0,8.3,0.7,11.8,2.1c3.6,1.4,6.6,3.4,9.1,6c2.5,2.6,4.5,5.7,5.9,9.5c1.4,3.7,2.1,7.9,2.1,12.5
			C381.5,602.4,380.8,606.6,379.4,610.3z M443,627.1h-8.6c-1.9,0-3-0.9-3.5-2.6l-1.2-5.6c-1.2,1.4-2.5,2.6-3.8,3.7
			c-1.3,1.1-2.8,2.1-4.3,2.8c-1.5,0.8-3.2,1.4-5,1.8c-1.7,0.5-3.6,0.7-5.7,0.7c-3.2,0-6.1-0.7-8.8-2c-2.7-1.3-5-3.2-6.9-5.8
			c-1.9-2.5-3.4-5.7-4.4-9.4c-1-3.7-1.5-8-1.5-12.8c0-4.3,0.6-8.4,1.8-12.1c1.2-3.7,2.9-7,5.1-9.7c2.2-2.7,4.8-4.9,7.9-6.4
			c3.1-1.6,6.5-2.3,10.4-2.3c3.3,0,6.1,0.5,8.4,1.6c2.3,1,4.4,2.4,6.2,4.2v-30.9H443V627.1z M469.4,607.5c0.8,2.2,1.9,4,3.3,5.4
			c1.4,1.4,3,2.5,4.8,3.2c1.9,0.7,4,1,6.3,1c2.3,0,4.2-0.3,5.9-0.8c1.7-0.5,3.1-1.1,4.3-1.8c1.3-0.6,2.3-1.2,3.2-1.8
			c0.9-0.5,1.9-0.8,2.7-0.8c1.2,0,2.1,0.4,2.6,1.3l4,5.1c-1.6,1.8-3.3,3.4-5.2,4.6c-1.9,1.2-4,2.2-6.1,3c-2.1,0.7-4.2,1.2-6.4,1.5
			c-2.2,0.3-4.3,0.5-6.3,0.5c-4.1,0-7.8-0.7-11.3-2c-3.5-1.4-6.5-3.4-9.1-6c-2.6-2.7-4.6-5.9-6.1-9.8c-1.5-3.9-2.2-8.4-2.2-13.6
			c0-4,0.6-7.7,1.9-11.2c1.3-3.5,3.1-6.6,5.5-9.2c2.4-2.6,5.4-4.7,8.8-6.2c3.5-1.5,7.4-2.3,11.8-2.3c3.7,0,7.1,0.6,10.2,1.8
			c3.1,1.2,5.8,2.9,8,5.2c2.2,2.2,4,5,5.2,8.3c1.3,3.3,1.9,7,1.9,11.2c0,2.1-0.2,3.6-0.7,4.3c-0.5,0.7-1.3,1.1-2.6,1.1h-36.2
			C468,602.7,468.5,605.3,469.4,607.5z M569.7,609.4c-1.2,3.9-2.9,7.2-5.1,10c-2.2,2.7-4.8,4.9-7.9,6.4c-3.1,1.5-6.5,2.3-10.3,2.3
			c-1.8,0-3.5-0.2-5-0.6c-1.5-0.3-2.8-0.8-4.1-1.5c-1.2-0.6-2.4-1.4-3.4-2.3c-1-0.9-2-2-3-3.1l-0.6,3.9c-0.2,1-0.6,1.7-1.2,2.1
			c-0.5,0.4-1.3,0.6-2.2,0.6h-9.3v-84.7h14.1v33.4c2.4-2.5,5-4.5,7.8-5.9c2.9-1.5,6.2-2.2,9.9-2.2c3.4,0,6.4,0.7,9.1,2
			c2.7,1.3,5.1,3.2,7,5.8c1.9,2.5,3.4,5.5,4.4,9c1,3.5,1.5,7.5,1.5,11.9C571.5,601.2,570.9,605.5,569.7,609.4z M594.9,607.5
			c0.8,2.2,1.9,4,3.3,5.4c1.4,1.4,3,2.5,4.8,3.2c1.9,0.7,4,1,6.3,1s4.2-0.3,5.9-0.8c1.7-0.5,3.1-1.1,4.3-1.8
			c1.3-0.6,2.3-1.2,3.2-1.8c0.9-0.5,1.9-0.8,2.7-0.8c1.2,0,2.1,0.4,2.6,1.3l4,5.1c-1.6,1.8-3.3,3.4-5.2,4.6c-1.9,1.2-4,2.2-6.1,3
			c-2.1,0.7-4.2,1.2-6.4,1.5c-2.2,0.3-4.3,0.5-6.3,0.5c-4.1,0-7.8-0.7-11.3-2c-3.5-1.4-6.5-3.4-9.1-6c-2.6-2.7-4.6-5.9-6.1-9.8
			c-1.5-3.9-2.2-8.4-2.2-13.6c0-4,0.6-7.7,1.9-11.2c1.3-3.5,3.1-6.6,5.5-9.2c2.4-2.6,5.4-4.7,8.8-6.2c3.5-1.5,7.4-2.3,11.8-2.3
			c3.7,0,7.1,0.6,10.2,1.8c3.1,1.2,5.8,2.9,8,5.2c2.2,2.2,4,5,5.2,8.3c1.3,3.3,1.9,7,1.9,11.2c0,2.1-0.2,3.6-0.7,4.3
			c-0.5,0.7-1.3,1.1-2.6,1.1h-36.2C593.5,602.7,594.1,605.3,594.9,607.5z M677.5,579.9c-0.2,0.7-0.5,1.2-0.9,1.5
			c-0.3,0.3-0.8,0.4-1.4,0.4c-0.6,0-1.4-0.1-2.6-0.3c-1.1-0.2-2.2-0.3-3.2-0.3c-1.6,0-2.9,0.2-4.2,0.7c-1.2,0.5-2.3,1.1-3.3,2
			c-0.9,0.8-1.8,1.9-2.6,3.1c-0.7,1.2-1.4,2.6-2.1,4.2v36h-14.1v-58.5h8.3c1.4,0,2.4,0.3,3,0.8c0.6,0.5,0.9,1.4,1.1,2.7l0.8,6.6
			c1.9-3.5,4-6.2,6.6-8.2c2.5-2,5.5-3,8.9-3c2.7,0,4.9,0.6,6.5,1.8L677.5,579.9z M733.1,579l-5.2,1c0.4,1,0.7,2,0.9,3.1
			c0.2,1.1,0.3,2.3,0.3,3.5c0,2.9-0.6,5.5-1.8,7.9c-1.1,2.3-2.7,4.3-4.8,5.9c-2.1,1.6-4.5,2.9-7.3,3.8c-2.8,0.9-5.8,1.3-9,1.3
			c-2.2,0-4.3-0.2-6.4-0.6c-1.8,1.1-2.7,2.3-2.7,3.7c0,1.2,0.5,2.1,1.6,2.6c1.1,0.5,2.5,0.9,4.3,1.1c1.8,0.2,3.8,0.4,6.1,0.5
			c2.3,0,4.6,0.2,7,0.3c2.4,0.2,4.7,0.5,7,1c2.3,0.5,4.3,1.2,6.1,2.2s3.2,2.4,4.3,4.2c1.1,1.7,1.7,4,1.7,6.8c0,2.6-0.6,5.1-1.9,7.5
			c-1.3,2.4-3.1,4.6-5.5,6.5c-2.4,1.9-5.4,3.4-8.9,4.6c-3.5,1.2-7.5,1.8-12,1.8c-4.4,0-8.2-0.4-11.5-1.3c-3.3-0.8-6-2-8.1-3.4
			c-2.2-1.4-3.8-3-4.8-4.9c-1.1-1.9-1.6-3.8-1.6-5.8c0-2.7,0.8-5,2.4-6.8c1.7-1.9,3.9-3.3,6.8-4.4c-1.5-0.8-2.7-1.9-3.6-3.2
			s-1.4-3.1-1.4-5.2c0-0.9,0.2-1.8,0.5-2.7c0.3-0.9,0.8-1.9,1.4-2.8c0.6-0.9,1.4-1.8,2.4-2.6c1-0.8,2.1-1.6,3.4-2.2
			c-3-1.6-5.3-3.7-7-6.4c-1.7-2.7-2.5-5.8-2.5-9.3c0-2.9,0.6-5.5,1.7-7.8c1.2-2.4,2.8-4.3,4.8-6c2.1-1.7,4.5-2.9,7.3-3.8
			c2.8-0.9,5.9-1.3,9.3-1.3c2.5,0,4.8,0.3,7,0.8c2.2,0.5,4.2,1.2,6.1,2.2h16.8v5.2C736.1,577.6,735.1,578.6,733.1,579z"/>
	</g>
</g>
</svg>
