<?xml version="1.0" encoding="utf-8"?>
<!-- Generator: Adobe Illustrator 21.0.0, SVG Export Plug-In . SVG Version: 6.00 Build 0)  -->
<svg version="1.1" xmlns="http://www.w3.org/2000/svg" xmlns:xlink="http://www.w3.org/1999/xlink" x="0px" y="0px"
	 viewBox="0 0 1024 1024" style="enable-background:new 0 0 1024 1024;" xml:space="preserve">
<style type="text/css">
	.st0{fill:#14697F;}
	.st1{fill:#FFFFFF;}
</style>
<g id="Guides">
</g>
<g id="Icon">
	<circle class="st0" cx="512" cy="512" r="512"/>
	<g>
		<path class="st1" d="M596.3,481.9c-10.7-7.6-17.8-21-17.8-35.5c0-4.4,2.4-12.9,4-18.4c0.8-2.7,1-4.1,4.1-4.7
			c15.1-3.1,21.7-2.6,23-4.4c4.1-6.8,5.7-15.9,5.7-15.9l-116.4-37.2c0,0,7.3,18.9,11.2,20.6l52.9,23.5c0,0-27.2,6-42.2,10.5
			l-3.6,1.1c0,0,5.8,9.7,14.7,15.1c9.8-2.8,27.9-7.5,27.9-7.5c-25.5,50.2-78,83.1-135.1,83.1c-2.6,0-13.5-0.1-20.4,0.4
			c-5.9,0.5-8.8,5.4-3,8c10.4,5.6,18,15,21.3,25.9c2.1,6.8-1.6,10.9-6.3,14.6c-10.3,7.9-36.4,27.5-62.2,46.6
			c-3-5.7-5.8-11.5-8.4-17.3c-23.2-52.5-34.5-125.4-34.5-222.8V367l201-64.5l201,64.5v0.9c0,35.4-1.5,68.1-4.6,97.2l-0.3,2.6h32.9
			l0.2-2.1c3-29.7,4.5-62.6,4.5-97.7V343l-233.8-75l-233.8,75v24.8c0,102.1,12.2,179.4,37.3,236.1c3.5,8,7.5,16,11.8,23.8
			c-20.4,15.2-36.1,26.8-36.1,26.8c4.7,8.2,10,16,10,16l128.5-91.9c69.2-46.6,150.1-71.2,233.9-71.2h39c-5.7,32-13.7,59.9-24,83.2
			c-11.7,26.5-27.5,51-46.8,72.8c-15.6,17.6-33.6,33.6-53.4,47.4c-33.8,23.5-62.8,33.6-66.1,34.7l-0.2,0.1l-0.6-0.2
			c-3.2-1.1-31.9-11-65.8-34.6c-19.9-13.8-37.8-29.8-53.4-47.4c-4.9-5.6-9.8-11.6-15-18.6l-1.4-1.8l-26.7,19.1l1.4,1.9
			c5.9,7.9,11.4,14.8,17,21.2c17.3,19.6,37.2,37.2,59.2,52.6c36.9,25.7,68.3,36.8,74.2,38.8c0.2,0.1,6.1,2.1,9,2.9
			c0.8,0.2,1.5,0.4,1.5,0.4l0.5,0.1l0.5-0.1c0,0,0.8-0.2,1.6-0.4c2.9-0.8,8.7-2.8,8.9-2.9c5.9-2,37.2-13,74.1-38.7
			c22-15.3,41.9-33,59.3-52.6c21.6-24.3,39.1-51.7,52.2-81.3c12.2-27.5,21.1-59.2,27.3-96.5h28c1.1-7,3-18.7,3-18.7H663.8
			C619.8,487.9,607,489.6,596.3,481.9"/>
	</g>
</g>
</svg>
