<?xml version="1.0" encoding="utf-8"?>
<!-- Generator: Adobe Illustrator 21.0.0, SVG Export Plug-In . SVG Version: 6.00 Build 0)  -->
<svg version="1.1" xmlns="http://www.w3.org/2000/svg" xmlns:xlink="http://www.w3.org/1999/xlink" x="0px" y="0px"
	 viewBox="0 0 1024 1024" style="enable-background:new 0 0 1024 1024;" xml:space="preserve">
<style type="text/css">
	.st0{display:none;}
	.st1{fill:#440099;}
	.st2{fill:#FFFFFF;}
</style>
<g id="Guides" class="st0">
</g>
<g id="Icon">
	<circle class="st1" cx="512" cy="512" r="512"/>
	<g>
		<title>Yahoo! icon</title>
		<path class="st2" d="M544.2,776.9c0,0-17.9-3.2-32.4-3.2c-13,0-32.5,3.2-32.5,3.2l4.1-217.4c-30.2-52.2-118.9-211-174.2-294.4
			c27.8,6.3,39.5,6,67.5,0l0.4,0.7c35.2,62.4,89.1,149.4,134.7,224.8c45-74.1,115.8-189.7,135-225.5c21.8,5.7,43.7,5.5,68,0
			c-25.6,34.5-118.7,195.6-175,294.4l4.2,217.4H544.2z"/>
	</g>
</g>
</svg>
