<svg xmlns="http://www.w3.org/2000/svg" viewBox="0 0 1024 1024">
   <circle cx="512" cy="512" r="512" style="fill:#0d80aa"/>
   <path d="M446.32 441.57c-27.5 0-44.81 15.81-44.81 36.53 0 18.28 13.37 29.38 34.29 36.92 16.19 5.85 22.58 11.48 22.58 21.08 0 10.36-8.28 17.32-23.15 17.32a64.21 64.21 0 0 1-30.68-8.09h-.07l-5.07 19.2c7 4.15 20.93 7.9 34.29 7.9 32.77 0 48.22-17.7 48.22-38 0-18.26-10.74-29.36-32.75-37.65-17-6.61-24.31-11.12-24.31-20.92 0-7.34 6.41-15.25 21.1-15.25a53.36 53.36 0 0 1 25.26 6l5.6-18.61c-6.59-3.39-16.77-6.41-30.5-6.41Zm158 .81c-42 0-70.6 25.79-70.6 65.92-.18 19.18 6.39 35.86 17.7 46.69 12.05 11.53 28.24 16.95 49.72 16.95a125.17 125.17 0 0 0 40.86-7.22v-64.21h-44.92v18.26h22.43v31.74c-3.07 1.52-9.22 2.65-17.5 2.65-26.37 0-44.07-17.09-44.07-46 0-29.56 19.08-45.57 46.15-45.57a68.27 68.27 0 0 1 28.91 5.47l5-18.65c-5.85-2.83-18.08-6-33.73-6Zm-399 .32a158.11 158.11 0 0 0-28.95 2.64v124.85a190.56 190.56 0 0 0 25.43 1.51c20.7 0 35-3.77 43.89-11.87a34.29 34.29 0 0 0 10.72-25.43c0-18.82-14.11-28.8-26.19-31.82v-.38c13.39-4.89 21.47-15.63 21.47-27.86 0-10-4-17.52-10.54-22.41-7.9-6.41-18.46-9.22-34.85-9.22h-1Zm95 .94v13.93H339v113h16.55v-113h38.8v-13.92Zm356.6 0v126.93h23.19v-55.93h53.65v55.93H757V443.65h-23.17v50.84h-53.65v-50.84Zm114.78 0V463h36.15v107.57H831V463h36.6v-19.4Zm-501.89 0v126.93h16.39V443.65Zm225.56 0v126.93h23.23V443.65Zm-290.08 11.64h2c16.57 0 27.88 5.83 27.88 20.72 0 12.25-10.18 21.28-27.5 21.28h-14.85l.05-40.87a70.74 70.74 0 0 1 12.42-1.14Zm-12.48 54.45h13.55c17.88 0 32.77 7.15 32.77 24.47 0 18.46-15.63 24.67-32.59 24.67a87.94 87.94 0 0 1-13.73-.76Z" style="fill:#fff"/>
</svg>
