<svg xmlns="http://www.w3.org/2000/svg" viewBox="0 0 1024 1024">
   <circle cx="512" cy="512" r="512" style="fill:#159e49"/>
   <path d="M175.17 572.63h583.17v15.27H175.17Zm623.59 15.27h50.08v-15.27h-50.08Zm-510-117h20.88v78.6h-20.85Zm1.57-13.7a12.75 12.75 0 0 0 9 3.37 12.38 12.38 0 0 0 9-3.37 12 12 0 0 0 3.59-9 12.16 12.16 0 0 0-3.59-9 12 12 0 0 0-9-3.37 12.38 12.38 0 0 0-9 3.37 12 12 0 0 0-3.59 9 11.68 11.68 0 0 0 3.62 9.01Zm67.14 13.47V448h-20v23.13h-14.32v15.72h14.37v39.75a24.47 24.47 0 0 0 7.19 18.4 24.61 24.61 0 0 0 8.31 5.16 31.51 31.51 0 0 0 10.55 1.8 70 70 0 0 0 17.52-2.47l-2.7-15.49a41.49 41.49 0 0 1-9.88 1.35 10.48 10.48 0 0 1-7.86-3.14c-2-2-2.92-4.72-2.92-8.08V486.4h21.33v-15.72h-21.55Zm33.91 21.78c0 4.94.9 9 2.92 11.68a22.73 22.73 0 0 0 7.63 7 38.12 38.12 0 0 0 9.88 4c3.59.9 6.74 1.8 9.88 2.69a26.87 26.87 0 0 1 7.63 3.37 6.4 6.4 0 0 1 3.14 5.61 7.73 7.73 0 0 1-3.37 6.74 16 16 0 0 1-9.21 2.47c-7.41 0-15.72-1.8-24.93-5.61l-4.21 14.6a83.66 83.66 0 0 0 30.76 6.29 44.76 44.76 0 0 0 12.58-1.8 29.36 29.36 0 0 0 9.88-5.16 26.26 26.26 0 0 0 6.29-7.86 21.27 21.27 0 0 0 2.25-9.88 22.07 22.07 0 0 0-3.14-12.13 23.38 23.38 0 0 0-7.63-7.19 35.16 35.16 0 0 0-9.88-4c-3.59-.67-6.74-1.57-9.88-2.47a35.63 35.63 0 0 1-7.63-3.14 5.81 5.81 0 0 1-3.14-5.39 7 7 0 0 1 3.14-6.29c2.25-1.57 5.16-2.25 8.76-2.25a47.16 47.16 0 0 1 10.78 1.35 74.82 74.82 0 0 1 11.45 3.59l4.49-14.82a95 95 0 0 0-14.6-4 74.9 74.9 0 0 0-13.92-1.35 41.61 41.61 0 0 0-12.13 1.8 31.37 31.37 0 0 0-9.43 4.94 28.44 28.44 0 0 0-6.06 7.63 20.37 20.37 0 0 0-2.25 9.66m102.85-21.78V448h-20v23.13H459.9v15.72h14.37v39.75a25.64 25.64 0 0 0 1.8 10.33 22.23 22.23 0 0 0 5.39 8.08 24.61 24.61 0 0 0 8.31 5.16 31.51 31.51 0 0 0 10.55 1.8 70 70 0 0 0 17.52-2.47l-2.7-15.5a41.49 41.49 0 0 1-9.88 1.35 10.48 10.48 0 0 1-7.86-3.14c-2-2-2.92-4.72-2.92-8.08V486.4h21.33v-15.72h-21.55Zm54.57 54.79a11.52 11.52 0 0 1 4.94-9.66c3.37-2.47 7.86-3.59 13.7-3.59a45.44 45.44 0 0 1 12.8 1.57v4.72c0 5.39-1.57 9.88-4.94 13.25a17.59 17.59 0 0 1-13 5.16 14.46 14.46 0 0 1-9.66-3.37 10.67 10.67 0 0 1-3.82-8.08m-19.54 1.12a22.2 22.2 0 0 0 2.25 10.11 21.93 21.93 0 0 0 5.61 7.86 24.47 24.47 0 0 0 8.76 5.16 35.66 35.66 0 0 0 11.23 1.8A35.45 35.45 0 0 0 582.73 541a15.69 15.69 0 0 0 6.29 7.86 17.47 17.47 0 0 0 10.33 2.92 45.09 45.09 0 0 0 5.61-.22c1.8-.22 3.37-.67 5.16-.9l-1.35-15a12.66 12.66 0 0 1-1.57.22 9.21 9.21 0 0 1-2.47.22 4.8 4.8 0 0 1-4-1.57 5.49 5.49 0 0 1-1.35-4V498.3a29.69 29.69 0 0 0-2.47-11.9 25.11 25.11 0 0 0-6.74-9.21 28 28 0 0 0-10.33-6.06 35.69 35.69 0 0 0-13.25-2.25 88.1 88.1 0 0 0-33 6.51l5.16 14.37c9.21-3.82 17.74-5.61 25.6-5.61 4.94 0 8.76 1.35 11.68 3.82a12.3 12.3 0 0 1 4.27 9.88v4.27c-2.47-.45-5.16-.9-7.63-1.12s-4.94-.45-7.41-.45c-11.45 0-20.21 2.25-26.5 6.74s-9.43 11-9.43 19.31m92.29-56.14v79H642v-44.65c0-5.84 1.57-10.33 4.94-13.92a16.94 16.94 0 0 1 13-5.39 14.71 14.71 0 0 1 10.78 4.27 15.47 15.47 0 0 1 4 11v48.73h20.43v-44.69c0-5.84 1.57-10.33 4.94-13.92A16.79 16.79 0 0 1 713 485.5a15.63 15.63 0 0 1 11 4.27 14.72 14.72 0 0 1 4.27 11v48.73h20.43v-52.1a32.75 32.75 0 0 0-2.25-11.68 27.33 27.33 0 0 0-15.27-15.27 32.7 32.7 0 0 0-11.68-2 33.08 33.08 0 0 0-15.73 3.55 38 38 0 0 0-12.58 10.78 24.92 24.92 0 0 0-9.88-10.55 30.8 30.8 0 0 0-15.31-3.79 31.47 31.47 0 0 0-14.37 3.37 32.39 32.39 0 0 0-11.23 9.43l-2.4-10.78h-16.42Zm203.22 49.4a29.34 29.34 0 0 1-4.27 7.86 17.28 17.28 0 0 1-6.29 5.16 19.37 19.37 0 0 1-8.08 1.8 19.78 19.78 0 0 1-7.41-1.35 15.19 15.19 0 0 1-5.84-4 19.65 19.65 0 0 1-3.85-6.33 21.35 21.35 0 0 1-1.35-7.86v-10.55c0-5.84 1.8-10.55 5.16-14.15a17.16 17.16 0 0 1 13.25-5.61 16.44 16.44 0 0 1 8.08 1.8 19.88 19.88 0 0 1 6.29 5.16 20.32 20.32 0 0 1 4.27 7.86 29.79 29.79 0 0 1 1.57 10.11 28.93 28.93 0 0 1-1.56 10.1ZM768 588.12h20.2v-47.83a25.29 25.29 0 0 0 10.1 8.08 30.71 30.71 0 0 0 13 2.69 33.69 33.69 0 0 0 14.37-3.14 34.69 34.69 0 0 0 11.23-8.53 41.05 41.05 0 0 0 7.41-13 52.58 52.58 0 0 0 0-33.23 38.73 38.73 0 0 0-7.41-13 33.42 33.42 0 0 0-25.6-11.68 32.69 32.69 0 0 0-14.15 3.14 31.31 31.31 0 0 0-10.55 9l-2.47-10.1H768Zm-519.4-70.73a15.4 15.4 0 0 0-4.72-11.68 18.91 18.91 0 0 0-12.8-4.49h-25.15v32.56h25.15c5.39 0 9.66-1.35 12.8-4.49 3.37-2.92 4.94-6.96 4.72-11.9Zm-42.67-30.09h23.13a17.18 17.18 0 0 0 11.68-4 14 14 0 0 0 4.49-10.78c0-4.49-1.35-8.31-4.49-11a16.3 16.3 0 0 0-11.68-4.27h-23.13Zm63.55 32.56a26.74 26.74 0 0 1-2.69 12.14 26.44 26.44 0 0 1-7.19 9.43 30.86 30.86 0 0 1-11 6.06 39.39 39.39 0 0 1-13.92 2.25h-59.51v-14.39a15.81 15.81 0 0 0 15.72-15.94v-2.47A15.81 15.81 0 0 0 175.17 501v-13a15.95 15.95 0 0 0 0-31.89v-14.4h57a42.43 42.43 0 0 1 13.47 2 32 32 0 0 1 10.55 5.84 24.89 24.89 0 0 1 7 9 26.8 26.8 0 0 1 2.47 11.45 24.9 24.9 0 0 1-4 14.15 24.19 24.19 0 0 1-10.55 9 27.64 27.64 0 0 1 13.47 10.1c3.33 4.75 4.9 10.1 4.9 16.61Z" style="fill:#fff"/>
</svg>
