<svg xmlns="http://www.w3.org/2000/svg" viewBox="0 0 1024 1024">
   <circle cx="512" cy="512" r="512" style="fill:#3c8dbc"/>
   <path d="M661.22 559.32V346.14H512v378.72a469.79 469.79 0 0 0 71-45.63q78.22-61.29 78.22-119.91Zm64-255.81v255.81A153 153 0 0 1 714 616.11a211.83 211.83 0 0 1-27.65 50 308.57 308.57 0 0 1-39.31 42.47 457.88 457.88 0 0 1-42.14 34.31q-19.32 13.65-40.3 25.81t-29.81 16.49q-8.83 4.33-14.16 6.66a19.76 19.76 0 0 1-17.32 0q-5.33-2.33-14.16-6.66t-29.81-16.49q-21-12.16-40.3-25.81a457.59 457.59 0 0 1-42.14-34.31 308.9 308.9 0 0 1-39.31-42.47 211.78 211.78 0 0 1-27.65-50 153 153 0 0 1-11.16-56.79V303.51a21.62 21.62 0 0 1 21.32-21.32h383.76a21.61 21.61 0 0 1 21.31 21.32Z" style="fill:#fff"/>
</svg>
