<svg xmlns="http://www.w3.org/2000/svg" viewBox="0 0 1024 1024">
   <circle cx="512" cy="512" r="512" style="fill:#142051"/>
   <path d="M538.9 761.6v6.3H347.3c0-2.1.1-4.2.2-6.3 1.2-21 7-39.7 17.3-55.8 13-20.3 33.5-37 61-49.7 7.7 5.3 16.6 9.1 26 11 4 .8 8.1 1.3 12.1 1.3 11 0 21-3.1 29.3-9 19.1 14.6 31.8 31.9 38.7 52.7 5.8 17 6.9 33.6 7 49.5zm-47.2-115.3c-7.1 7.1-16.5 10.9-27.1 10.9-15.8 0-32.1-8.5-40-16.8l-1.3-1.4v-2c0-2.8-.1-5.6-.1-8.4-110.8 5.5-120.7 116.8-121.5 139.3h39.4c.6-44.7 20.3-90.4 85.7-119.1 7 5.4 16.2 10 26.6 12.1 3.5.7 7.1 1.1 10.8 1.1 10 0 20.6-3 29.2-10.6 50.1 35.9 52.1 81.8 52.1 116.4h7c.4-20.9-2.4-94.3-59.2-125.4l.3 2.1-1.9 1.8zm151.6-211.6v-.9c-7.9-36.9-33.7-79.1-43.3-80-10.6.7-17.2 5.5-23.4 11.4.7.8 1.4 1.6 2 2.4.7.9 1.4 1.7 2.1 2.6 1.7 2.1 3.3 4.4 4.9 6.8.8 1.2 1.6 2.4 2.4 3.7 1.6 2.5 3.2 5.2 4.7 8 .8 1.4 1.5 2.8 2.3 4.3 1.5 2.9 3 6 4.4 9.2 1.4 3.2 2.9 6.5 4.2 10 1.4 3.5 2.7 7.1 4 10.8 1.3 3.7 2.5 7.6 3.7 11.6 1.2 4 2.3 8.2 3.4 12.4-1.5-4.1-3-8.2-4.6-12-1.5-3.9-3.1-7.6-4.7-11.2-1.6-3.6-3.2-7-4.8-10.4-1.6-3.3-3.2-6.5-4.9-9.5-1.6-3-3.3-6-4.9-8.8-1.6-2.8-3.3-5.5-4.9-8-1.6-2.5-3.3-4.9-4.9-7.2-1.6-2.3-3.2-4.5-4.8-6.5s-3.2-4-4.8-5.8-3.2-3.5-4.8-5c-1.6-1.6-3.2-3-4.8-4.3-1.6-1.3-3.3-2.5-4.9-3.6-1.6-1.1-3.3-2.1-4.9-2.9-1.7-.9-3.3-1.6-5-2.3s-3.3-1.2-5-1.6c-1.7-.4-3.4-.8-5.1-1-1.7-.2-3.4-.4-5.2-.4-1.7 0-3.5 0-5.2.1-1.8.1-3.5.4-5.3.7-1.8.3-3.6.8-5.4 1.3s-3.6 1.1-5.5 1.9c-1.8.7-3.7 1.5-5.6 2.4-1.9.9-3.7 1.9-5.6 3-1.9 1.1-3.8 2.2-5.7 3.5-1.9 1.3-3.8 2.6-5.8 4.1-2 1.5-3.9 3-5.9 4.6-2 1.6-4 3.3-6.1 5.1-2 1.8-4.1 3.6-6.2 5.5-2.1 1.9-4.2 3.9-6.3 5.9-2.1 2-4.2 4.1-6.4 6.2-2.1 2.1-4.3 4.2-6.5 6.4l-6.6 6.6c.6-.9 1.3-1.8 1.9-2.7.1-.1.2-.3.3-.4.6-.9 1.3-1.8 2-2.7.1-.1.1-.2.2-.3.1-.1.2-.2.2-.3.7-.9 1.4-1.8 2.1-2.8.1-.2.3-.4.4-.5l2.1-2.7c.1-.1.2-.2.2-.3l.1-.1c.7-.9 1.5-1.8 2.3-2.8.2-.3.4-.5.7-.8.8-.9 1.5-1.8 2.3-2.7.1-.1.2-.3.4-.4.1-.2.3-.3.4-.5l2.4-2.7c.2-.3.5-.5.7-.8.7-.8 1.4-1.5 2.1-2.3.2-.2.3-.4.5-.6l.3-.3c.8-.8 1.6-1.6 2.3-2.5l.9-.9.3-.3c-62.4 8.7-73.2 63.6-67.8 83.7 18 63.8 26.4 107.1 27 179.9 10.9 11.5 41.2 24.5 59.9 5.8-4.4-33.1 15.7-48.2 49.9-51.6-19.2-11.9-41.1-12.3-63.8-10.4-4.7.4-1.7-4.5 1-4.5 24.9-2.5 49-1.3 70.8 12.6l-.5.8-.7.9c8.8-.5 18.3-.3 28.5.4 65.1 4.8 149.2-10.6 149.2-72.5-3.8-30.6-32.6-55.1-78.9-83.8zm-139.5 42.2c-4.8-4.8-32.4-90.7 14.9-104.2 30.3-8.6 66.7 58 66.7 85.8 0 27.8-56.7 41.1-81.6 18.4zm30-98.3c-11.6-2.2-23.3 9.4-26.3 25.9-2.9 16.5 4.1 31.6 15.7 33.8s23.3-9.4 26.3-25.9c2.9-16.5-4.2-31.7-15.7-33.8zm-4.3 48.8c-1.8.6-4.1-.1-5.2-1.6-1.1-1.5-.4-3.3 1.4-3.9 1.8-.6 4.1.1 5.2 1.6 1 1.5.4 3.3-1.4 3.9zm3-26.3c-2.6 5.4-7.3 8.5-10.5 7s-3.7-7.2-1.1-12.5c2.6-5.4 7.3-8.5 10.5-6.9 3.2 1.4 3.7 7 1.1 12.4zm114.7-145.4c-1.3 0-2.6.3-3.7.9-13.8-11-34.3-12-58.7-2.4-23.1 9-48.6 27.2-68.3 48.6-18.2 19.7-29.2 39.6-31 55.7 1.8-1.4 3.5-2.6 5.2-3.7l.9-.6c7.5-32.6 51.8-78.1 95.2-95.1 16.2-6.3 37.7-10.7 53 1.2-.6 1.1-.9 2.4-.9 3.7 0 4.6 3.7 8.3 8.3 8.3 4.6 0 8.3-3.7 8.3-8.3 0-4.6-3.7-8.3-8.3-8.3zM486 165.5c-6-11.8-13.5-20.1-21.9-24.2v-.7c0-4.6-3.7-8.3-8.3-8.3-4.6 0-8.3 3.7-8.3 8.3 0 4.6 3.7 8.3 8.3 8.3 2.4 0 4.6-1.1 6.2-2.7 7.3 3.6 13.9 11 19.3 21.8 18.8 37.1 23.9 115.7-8.5 201.8l5.4-5.1c1-.9 2-1.8 3-2.6 29.1-84 23.4-159.9 4.8-196.6z" style="fill:#fff"/>
</svg>
