<svg xmlns="http://www.w3.org/2000/svg" viewBox="0 0 1024 1024">
   <circle cx="512" cy="512" r="512" style="fill:#2185d0"/>
   <path d="M553.78 583.05Q557 587.33 557 597a38.45 38.45 0 0 1-1 9.23 18.32 18.32 0 0 1-2.79 6.32 11.38 11.38 0 0 1-4.44 3.65 14.17 14.17 0 0 1-5.81 1.14 16 16 0 0 1-6-1.14 13.73 13.73 0 0 1-5.18-4.16v-26.25a22.6 22.6 0 0 1 5.75-5.18 13.09 13.09 0 0 1 7.06-1.88 10.7 10.7 0 0 1 9.19 4.32Zm63.28-1.25a10.41 10.41 0 0 0-3.93-2.85 12.89 12.89 0 0 0-5.47-1.08q-6.15 0-9.63 3.48t-4.44 9.86h26.55a16.11 16.11 0 0 0-.8-5.13 11.86 11.86 0 0 0-2.29-4.28Zm-125.51 0a10.41 10.41 0 0 0-3.93-2.85 12.89 12.89 0 0 0-5.47-1.08q-6.15 0-9.63 3.48t-4.44 9.86h26.55a16.12 16.12 0 0 0-.8-5.13 11.86 11.86 0 0 0-2.29-4.28Zm-138.9-3.25q-7.41 0-11 5t-3.53 14.36q0 9.4 3.53 14.36t11 4.9q7.29 0 10.77-4.9t3.53-14.36q0-9.46-3.53-14.41t-10.78-4.95Zm71 1a15.17 15.17 0 0 0-6-1.2 13.45 13.45 0 0 0-5.75 1.2 11.49 11.49 0 0 0-4.39 3.65 17.09 17.09 0 0 0-2.79 6.15 35 35 0 0 0-1 8.77 40.83 40.83 0 0 0 .8 8.72 17.85 17.85 0 0 0 2.39 5.81 9.29 9.29 0 0 0 3.76 3.25 12.28 12.28 0 0 0 5 1 14.39 14.39 0 0 0 7.46-1.82 22.17 22.17 0 0 0 5.81-5.18v-26.28a13.78 13.78 0 0 0-5.29-4.1Zm282.56-2q-5.18 0-7.8 2.56a9.12 9.12 0 0 0-2.56 6.84 11.33 11.33 0 0 0 .63 3.82 9.2 9.2 0 0 0 1.94 3.08 9.58 9.58 0 0 0 3.25 2 14 14 0 0 0 4.56.68 13.7 13.7 0 0 0 4.56-.68 9 9 0 0 0 3.19-2 7.65 7.65 0 0 0 1.94-3 10.64 10.64 0 0 0 .68-3.87 9 9 0 0 0-2.62-6.84q-2.59-2.61-7.77-2.61Zm-11.85 48.82a6.34 6.34 0 0 0-1.42 4.1 5.69 5.69 0 0 0 .74 2.85 6.62 6.62 0 0 0 2.45 2.34 14.45 14.45 0 0 0 4.39 1.48 37.46 37.46 0 0 0 13.33-.06 14.88 14.88 0 0 0 4.67-1.65 6.79 6.79 0 0 0 2.73-2.51 6 6 0 0 0 .85-3.13 3.7 3.7 0 0 0-1-2.73 7 7 0 0 0-2.79-1.71 19.35 19.35 0 0 0-4.16-.91q-2.34-.28-5-.4t-5.47-.28q-2.79-.11-5.47-.46a13.58 13.58 0 0 0-3.85 3.05Zm166.72 61.91-672.15-6 192.48-414.54 161.26 141.11-58.16 66.47-19.6-17.15-20.7 23.65 43.26 37.85 87.36-99.84-.28-.24 38.92-44.48ZM332.72 436.07l23.66 20.69 60.37-69 46.56 40.73L484 404.8l-70.21-61.43Zm-13.66 182.36-4-5.13a2.86 2.86 0 0 0-2.56-1.31 3.77 3.77 0 0 0-2.39.85q-1 .8-2.45 1.82a19 19 0 0 1-3.53 1.82 15.22 15.22 0 0 1-5.41.8 14.08 14.08 0 0 1-6-1.25 12.76 12.76 0 0 1-4.56-3.76 18.5 18.5 0 0 1-2.91-6.15 36 36 0 0 1-.06-16.35 17.63 17.63 0 0 1 2.73-6.1 12.29 12.29 0 0 1 4.67-3.82 16.66 16.66 0 0 1 11.34-.68 15.93 15.93 0 0 1 3.42 1.48q1.42.8 2.45 1.48a4 4 0 0 0 2.11.63 2.7 2.7 0 0 0 1.71-.46 6.5 6.5 0 0 0 1.25-1.25l3.7-5.13a28 28 0 0 0-8.89-6 28.79 28.79 0 0 0-11.45-2.11 30.62 30.62 0 0 0-12.23 2.25 24.78 24.78 0 0 0-8.89 6.32 27 27 0 0 0-5.47 9.51 40.45 40.45 0 0 0 .23 24.73 28.58 28.58 0 0 0 5.7 9.46 24.42 24.42 0 0 0 8.37 5.92 26.25 26.25 0 0 0 10.2 2 41.93 41.93 0 0 0 6.15-.46A27.56 27.56 0 0 0 314 623a26.2 26.2 0 0 0 5.06-4.57Zm62.4-20.62a36 36 0 0 0-2.05-12.48 26.07 26.07 0 0 0-5.87-9.46 25.56 25.56 0 0 0-9.12-6 31.65 31.65 0 0 0-11.79-2.11 32.26 32.26 0 0 0-11.91 2.11 26.13 26.13 0 0 0-9.17 6 27.14 27.14 0 0 0-5.87 9.46 39.15 39.15 0 0 0 0 25 27.75 27.75 0 0 0 5.87 9.51 25.75 25.75 0 0 0 9.17 6 32.26 32.26 0 0 0 11.92 2.16 31.65 31.65 0 0 0 11.79-2.11 25.2 25.2 0 0 0 9.12-6 26.64 26.64 0 0 0 5.87-9.51 36.15 36.15 0 0 0 2.04-12.57ZM443 542.49h-14.11v30.88a21.46 21.46 0 0 0-6.21-4.16 20 20 0 0 0-8.37-1.6 22.63 22.63 0 0 0-10.37 2.39 23.35 23.35 0 0 0-7.92 6.38 29.39 29.39 0 0 0-5.07 9.68 39.85 39.85 0 0 0-1.77 12.08 48.16 48.16 0 0 0 1.54 12.76 28.79 28.79 0 0 0 4.44 9.4 19.92 19.92 0 0 0 6.89 5.75 19.34 19.34 0 0 0 8.77 2 22.52 22.52 0 0 0 5.7-.68 20.82 20.82 0 0 0 5-1.82 23.69 23.69 0 0 0 4.33-2.85 34.93 34.93 0 0 0 3.82-3.7l1.2 5.64a3.31 3.31 0 0 0 3.53 2.56h8.6Zm24.82 57.2H504a2.86 2.86 0 0 0 2.62-1.08 9.33 9.33 0 0 0 .68-4.33 30.35 30.35 0 0 0-1.94-11.22 23.22 23.22 0 0 0-5.24-8.32 22 22 0 0 0-8-5.18 28.61 28.61 0 0 0-10.2-1.77 29.29 29.29 0 0 0-11.79 2.28 26.33 26.33 0 0 0-8.83 6.21 26.93 26.93 0 0 0-5.53 9.17 32.12 32.12 0 0 0-1.94 11.22 38.16 38.16 0 0 0 2.17 13.56 28.42 28.42 0 0 0 6.1 9.8 25.89 25.89 0 0 0 9.12 6 31.62 31.62 0 0 0 11.34 2 45.49 45.49 0 0 0 6.32-.46 33.82 33.82 0 0 0 6.42-1.57 31.16 31.16 0 0 0 6.1-3 24.08 24.08 0 0 0 5.24-4.61l-4-5.13A2.91 2.91 0 0 0 500 612a5.6 5.6 0 0 0-2.73.8q-1.37.8-3.25 1.77a26.21 26.21 0 0 1-4.33 1.77 19.06 19.06 0 0 1-5.87.8 18.38 18.38 0 0 1-6.27-1 13.46 13.46 0 0 1-4.84-3.19 16.28 16.28 0 0 1-3.3-5.41 28 28 0 0 1-1.63-7.85Zm103.71-3.25a42.68 42.68 0 0 0-1.53-11.91 26.28 26.28 0 0 0-4.44-9 19.12 19.12 0 0 0-7-5.75 20.34 20.34 0 0 0-9.12-2 21.28 21.28 0 0 0-9.86 2.22 28.15 28.15 0 0 0-7.81 5.92v-33.43h-14.06v84.66H527a3.51 3.51 0 0 0 2.22-.63 3.46 3.46 0 0 0 1.2-2.11l.63-3.93a33.41 33.41 0 0 0 3 3.13 18.78 18.78 0 0 0 3.42 2.34 17.52 17.52 0 0 0 4.1 1.48 20.66 20.66 0 0 0 5 .57 22.47 22.47 0 0 0 18.12-8.66 29.74 29.74 0 0 0 5.07-10 44.37 44.37 0 0 0 1.73-12.9Zm21.8 3.25h36.18a2.86 2.86 0 0 0 2.62-1.08 9.33 9.33 0 0 0 .68-4.33 30.36 30.36 0 0 0-1.94-11.22 23.22 23.22 0 0 0-5.24-8.32 22 22 0 0 0-8-5.18 28.61 28.61 0 0 0-10.2-1.77 29.29 29.29 0 0 0-11.79 2.28 26.33 26.33 0 0 0-8.83 6.21 26.93 26.93 0 0 0-5.53 9.17 32.12 32.12 0 0 0-1.94 11.22 38.16 38.16 0 0 0 2.22 13.56 28.42 28.42 0 0 0 6.1 9.8 25.89 25.89 0 0 0 9.12 6 31.62 31.62 0 0 0 11.34 2 45.49 45.49 0 0 0 6.32-.46 33.83 33.83 0 0 0 6.44-1.54 31.16 31.16 0 0 0 6.1-3 24.08 24.08 0 0 0 5.24-4.61l-4-5.13a2.91 2.91 0 0 0-2.62-1.31 5.6 5.6 0 0 0-2.73.8q-1.37.8-3.25 1.77a26.21 26.21 0 0 1-4.33 1.77 19.06 19.06 0 0 1-5.87.8 18.38 18.38 0 0 1-6.27-1 13.46 13.46 0 0 1-4.84-3.19 16.28 16.28 0 0 1-3.3-5.41 28.05 28.05 0 0 1-1.71-7.83Zm85.08-30.31a10.87 10.87 0 0 0-6.49-1.77 13.76 13.76 0 0 0-8.89 3 25.49 25.49 0 0 0-6.55 8.2l-.8-6.61a4.38 4.38 0 0 0-1.14-2.73 4.43 4.43 0 0 0-3-.8h-8.26v58.45h14.02v-36a32.66 32.66 0 0 1 2.05-4.16 13.8 13.8 0 0 1 2.56-3.08 10.53 10.53 0 0 1 3.3-2 11.79 11.79 0 0 1 4.16-.68 19.09 19.09 0 0 1 3.25.28 17.14 17.14 0 0 0 2.56.28 2.27 2.27 0 0 0 1.42-.4 2.79 2.79 0 0 0 .85-1.48Zm57.74 6.55v-5.24h-16.84a24.26 24.26 0 0 0-6.1-2.22 29.32 29.32 0 0 0-7-.8 31.54 31.54 0 0 0-9.29 1.31 22.15 22.15 0 0 0-7.35 3.82 17.64 17.64 0 0 0-4.84 6 17.45 17.45 0 0 0-1.71 7.8 17.19 17.19 0 0 0 2.51 9.34 18.67 18.67 0 0 0 7 6.38 17.11 17.11 0 0 0-3.42 2.22 13.72 13.72 0 0 0-2.39 2.56 11.17 11.17 0 0 0-1.37 2.79 8.44 8.44 0 0 0-.46 2.68 9.1 9.1 0 0 0 1.37 5.24 9.92 9.92 0 0 0 3.65 3.19 17.3 17.3 0 0 0-6.78 4.44 10 10 0 0 0-2.45 6.84 11.55 11.55 0 0 0 1.6 5.81 14.5 14.5 0 0 0 4.84 4.9 26.45 26.45 0 0 0 8.15 3.42 44.85 44.85 0 0 0 11.51 1.31 37.4 37.4 0 0 0 12-1.77 28 28 0 0 0 8.89-4.56 19.74 19.74 0 0 0 5.53-6.49 15.84 15.84 0 0 0 1.94-7.52 12.53 12.53 0 0 0-1.65-6.78 11.66 11.66 0 0 0-4.27-4.22 20 20 0 0 0-6.1-2.22 52.78 52.78 0 0 0-7-1q-3.59-.29-7-.34t-6.1-.46a14.24 14.24 0 0 1-4.33-1.14 2.79 2.79 0 0 1-1.6-2.62q0-2.05 2.73-3.7a32.75 32.75 0 0 0 6.44.63 29.81 29.81 0 0 0 9-1.31 22.94 22.94 0 0 0 7.29-3.82 17.79 17.79 0 0 0 6.21-17.26 16.53 16.53 0 0 0-.85-3.13l5.24-1q2.97-.57 2.97-3.08Z" style="fill:#fff"/>
</svg>
