<svg xmlns="http://www.w3.org/2000/svg" viewBox="0 0 1024 1024">
   <circle cx="512" cy="512" r="512" style="fill:#68b0f4"/>
   <path d="M697.43 555.33c-2.52-.58-4.99-1.38-7.38-2.38-1.95-.85-3.72-2.06-5.22-3.56 1.42-12.62 0-23.56 1.18-35.92 4.76-48.06 34.98-32.83 62.09-40.67 16.88-4.76 33.78-14.51 38.06-34.5a348.963 348.963 0 0 0-61.85-56.85c-73.5-52.33-169.61-73.27-256.92-58.76 13.35 23.3 33.5 41.98 57.74 53.52 0 0-23.66 0-43.94-15.14-5.95 2.37-17.85 7.06-23.56 9.91 46.38 44.49 118.94 49.48 171.04 9.52-.24.47-4.76 7.37-10.23 36.16-12.13 61.37-47.11 56.62-90.4 41.16-89.92-32.6-139.4-2.38-184.36-64.23a41.502 41.502 0 0 0-21.18 36.16c0 15.46 8.57 28.54 20.94 35.68 6.75-8.96 9.78-11.51 21.56-11.51-18.22 10.33-20.37 19.35-28.21 44.33-9.52 30.22-5.48 61.15-49.96 69.23-23.55 1.19-23.08 17.13-31.64 40.93-10.7 30.9-24.97 43.28-52.81 72.54 11.42 13.8 23.32 15.46 35.44 10.47 24.98-10.47 44.25-42.82 62.33-63.76 20.22-23.31 68.75-13.31 105.38-36.16 25.22-15.46 37.59-36.39 20.94-71.84a70.127 70.127 0 0 1 18.08 42.82c42.34-5.48 98.96 46.15 150.58 54.71a92.325 92.325 0 0 1-12.61-21.17c-5.95-14.28-7.85-27.36-6.66-38.78 4.75 28.31 33.3 64.71 79.21 68.04 11.66.95 24.51-.48 37.83-4.52 15.94-4.76 30.68-10.94 48.28-7.61 13.09 2.38 25.22 9.04 32.84 20.22 11.42 16.64 36.39 20.22 47.57-.24-25.21-65.89-94.68-70.17-124.17-77.79Z" style="fill:#fff"/>
</svg>
