<svg xmlns="http://www.w3.org/2000/svg" viewBox="0 0 1024 1024">
   <circle cx="512" cy="512" r="512" style="fill:#50162d"/>
   <path d="M665.93 391.21a4.83 4.83 0 0 1 0 6.16 4.63 4.63 0 0 1-3.72 0l-3.73-5.37-8.92-2.3q-2.22-2.32 0-6.16a5.43 5.43 0 0 1 5.95-2.32 28.39 28.39 0 0 1 10.39 10ZM774.44 496a12.86 12.86 0 0 1 .75 3.84l-3.72 5.39v-8.46a6.44 6.44 0 0 1 2.97-.77ZM644.37 381.21l3.7 6.16q-3 5.39-5.95 6.94l-2.22 3.07a46 46 0 0 1-2.22-7.69 2.13 2.13 0 0 1-1.5-.77l-3 3.07-13.36-3.07q-3-3.87 1.47-8.46a8.86 8.86 0 0 1 10.39-2.32Zm-27.5 16.19-3.72-2.32 3-1.55.73 3.87Zm-59.48-39.3-4.45 5.39-4.47-5.39-3.72-.77 11.89-2.33ZM789.3 473.65q3 2.32.75 11.55l-4.45 13.1-3.72 4.62-.75-9.23a18 18 0 0 0-.73-5.39 14.38 14.38 0 0 0-.77-4.62l-9.63 4.59a8.94 8.94 0 0 1 .75 3.87 8.49 8.49 0 0 0 1.5 3.09l-10.39.77.73 3.07 2.22 2.32-3.7 8.46q-.75 6.94-3.72 7.73l-3-4.64-8.94 2.3q-2.95-3.07-2.95-5.39l-2.25-3.07 3.72-4.62q-1.47-3.09-3-3.09l-3.72 1.55-3.7 9.23q-5.22 0-6.69 1.55l4.45 6.16 15.62 8.44.75 5.41a9.51 9.51 0 0 1 4.47 2.3 22.82 22.82 0 0 1 3 2.32 30.57 30.57 0 0 0-1.5 3.87 8.48 8.48 0 0 1-3 3.07L744 547.6l.75 6.16a25.34 25.34 0 0 0-10.39 7.71l-2.25 8.46q-8.17 0-10.39 1.55l.73 11.58-2.22-.77q-3-4.64-5.95-2.32l3 10a8.06 8.06 0 0 0-3.72.77l-1.56 1.54 3 5.39a22.45 22.45 0 0 1 .73 4.64 18.48 18.48 0 0 1-8.92 4.59q-3.7.8-5.95 5.41l.75 9.23q-2.22 5.41-3.72 6.94-7.42 0-11.14 1.55l-4.47 8.46-3.7-1.52q-3-.77-4.47 0l-3 6.16q-6.69 0-9.67 3.07l-5.95 5.41 1.5-6.94q2.22-6.16-2.25-6.94l-3 2.3-.73 3.87-7.44 4.62-.73 8.46h-14.08l-3 5.41q-1.5 4.62-7.44 6.94t-20.81 2.3q-14.86 0-18.58 1.55-3.72 0-6.69 3.87a13.33 13.33 0 0 1-5.2 5.39l-11.89 3.84-3.72 6.94-5.2 3.87q-3.72 2.3-11.89 2.3l-7.44 3.87-11.14 4.59-8.19-.75a22.16 22.16 0 0 0-10.39-2.32H483.8l-4.47-3.09-8.92 1.55-4.41 6.13-6.69-4.62-5.2-5.39-11.89-.77-4.47-3.87 6.69-8.46 8.92-12.33v-8.46l10.39-11.58v-13.1A24.35 24.35 0 0 1 466 630l8.17 2.32q3-3.09 3-4.64a41.26 41.26 0 0 1-8.17-10l-7.44-10.78-8.92-11.55-5.95-10.8-6.69-10.78-5.2-13.1-11.2-12.3-40.89-60.08-7.44-13.1-7.42-14.65-5.95-3.84a86.23 86.23 0 0 1-11.17-18.49l-2.22-9.21-6.69-3.07-23 4.62A58.69 58.69 0 0 0 301 433.6l-15.61 6.16-18.61 2.3-10.39 3.87q-6.69 1.55-10.39-1.55l-5.22-6.16-8.17 3.09-6.75-2.31q0-7.71-1.47-9.26l-6.69-9.23a32.53 32.53 0 0 0-6.69-3.87l.73-3.84h7.44a18 18 0 0 1-.73-5.39v-3.87l7.42 3.09q3.72-2.3 4.47-3.87l3-6.14 5.95.77 4.45-13.1-.73-6.94 3.72 2.3 3.7 3.87q3.72-1.55 4.47-3.09l6.69-8.46 6.67.77-2.26-5.38-4.45-5.41-6.69-2.3q4.45-6.94 19.33-10l23.78-2.3 8.17-5.39 19.33-3.87 29.73-1.55 10.39-2.3a19 19 0 0 1 11.91-.77l11.89-.77q11.89-3.07 17.09-1.55l9.67.77 13.39.77 20.06 3.87 17.84 1.52 12.64-5.39q4.47 0 9.67 6.16l7.44 5.39h15.61l5.2 6.16-.73 3.87 4.45 12.33 3-1.55 6.69-7.71 7.42 11.55-8.92-3.07q-5.2 0-5.95 7.69l7.44 1.55 3 3.87 4.45-1.55q3.72-1.55 7.44 1.55 4.45 2.3 5.95 5.39l4.45 6.16h9.67a4.7 4.7 0 0 1 .73-3.09 9.4 9.4 0 0 1 1.5-2.3l1.5 7.69h3l2.22-2.3 2.25 3.87 2.22-6.19q9.67 0 11.14-1.55a5.35 5.35 0 0 0-1.47-3.84l-3-3.87q0-3.84 5.95-3.07l10.39 3.09 7.44-.77 4.45 3.87 1.5 3.07q-6.69-1.55-8.94.77-1.45 1.52-.73 5.39l5.2 4.59q0 5.41 5.22 11.58l3-3.07.73-6.16 3 3.84h12.62q3.72 0 5.95 8.46l2.25 7.73 3 2.3 3.72-3.87 11.8 3.85 2.22-3.87 3.72-1.52a13.14 13.14 0 0 0 3.72-3.87v-3.84l-1.5-3.87 10.39 3.09a20.69 20.69 0 0 0 3.72-4.62q-1.47-3.87-3-3.87l-7.42-1.52v-3.87l2.22-5.39 2.22-4.62q3.72 2.3 4.47 3.87l3.72 5.37 5.2-.75 5.2-.77 18.61 16.17 5.2-.77 5.2 6.94 4.47 2.32q-2.25 3.07 0 6.91l5.2-2.3h5.2l4.47 7.71 4.45 7.69q5.95 0 8.94 1.55l2.95 13.87 8.19 4.62 6.67 2.32a11.29 11.29 0 0 1-1.47 6.16l1.47 7.71 2.25 4.59-.75 5.41 3-1.55q3-3.87 4.47-4.62l3-1.55ZM602 359.67q2.22 2.3 0 6.91-.75 1.55-4.47 2.32-2.22-2.32 0-6.94.75-1.54 4.47-2.29Zm152.4 143.27q2.22 2.32 0 6.16l-3.72 1.55-.73-5.39a4.65 4.65 0 0 1 .73-3.07q1.5-.77 3.72.77Zm-31.22-37.73q1.47 1.52 1.47 7.69a8.09 8.09 0 0 1-5.95.77q-3.7-2.3-1.47-6.94 1.48-3.86 5.95-1.52ZM512.83 362.74l-4.47 8.46 2.22-6.14ZM615.39 660.1l-3-4.62 3-2.32q3.72.77 3 5.39Zm124.15-114.8q-4.47-3.07-5.95-6.14l4.45 3.07 1.5 3.09ZM442.18 682.43l3.7-3.84 3.72-2.32Zm319.59-199.5-2.22 4.59-.73 2.34-.75-5.41Zm3.72 37.75-1.49 6.91Zm-52.78-84.75L715 439l-3 .77-3-2.32Zm-133 181-3 2.32Zm-15.63-259.6-.73 3.87Zm158.32 85.5-1.47 3.87Zm-3 125.57 1.5 2.3-2.25 1.55.75-3.87ZM576.72 361.94l-1.5 2.32Zm40.12 281.19-1.45 3.07ZM449.6 478.26l-3 3.09Zm-4.45 221.11-.75 3.87.73-3.87ZM670.4 398.15l1.45 2.32-3.7-1.55 2.22-.77ZM549.22 607.68l-.75 3.09.73-3.07Zm171.71-156.36-.75 3.07.73-3.07Zm-5.22 36.2-1.47 2.32Zm9.67 95.48-2.22 1.55ZM251.89 390.46l-.75 3.84.73-3.87Zm498 128.64-3 1.55Zm-9.67-5.39-4.45.77ZM583.39 678.56l-.73 2.32Zm150.18-148.68ZM770 478.26a7 7 0 0 0-.75 3.09 4.7 4.7 0 0 1 .73-3.09ZM247.4 375.82l-.73 3.07Zm423 67-3 .77Zm-11.89-46.21-1.47 2.3Zm-183.6-43.9-2.22.77Zm74.34 30.81-.75 3.07.73-3.07Zm-10.39-.77-1.5 1.55 1.47-1.55ZM442.89 694l-.73 3.07Zm268.32-192.61-1.45-1.55ZM528.39 378.14l-1.5-1.55ZM767 476a19.8 19.8 0 0 0-2.25-10 16.79 16.79 0 0 0-5.2-6.91l-.73 10 5.2 2.32a5.23 5.23 0 0 1 0 3.84Zm-58-18.49-1.45-1.55Zm29.73 34.66-3.7-.77-4.45-6.94 1.47-6.16-6.69 4.64 3.72 4.59.73 2.34-8.89 3.84 5.95.77a11 11 0 0 0 3 2.3 11.69 11.69 0 0 0 3 .77l5.95-5.39Zm-14.84-13.87-3-2.3-5.22-1.55-2.22-3.87-3 3.09-2.18 5.33 5.95 2.32q4.45 0 6.69 2.3Zm-130.07-84-3-1.55-4.45-2.3q-3 0-3 1.52l.73 4.64 5.22 3.07ZM683 558.4l1.5-9.26q0-12.33-8.94-26.2a63.68 63.68 0 0 0-19.33-22.33q-9.67-9.26-26.73-16.19l-29.73-13.07-11.17-6.94-16.36-6.16-17.09-5.39-27.5-6.16-8.94-1.55q-6.67 0-10.39 1.55-3 .75-2.22 5.39l8.9 17.71q6.69 12.33 12.64 16.94l6.69 4.62V496l7.42 9.23.73 6.16q3 2.32 4.47 2.32 3.72 2.3 9.67 11.55l8.19 10 12.62 18.49 11.17 20 5.2 15.39-1.47 10 3 4.62-3 4.62a3 3 0 0 0 0 4.64l5.2-1.55 8.92-3.87q3.72 0 12.64-4.59l16.36-7.73 23-9.23q14.15-6.05 20.09-12.25l3-7.71q0-5.39 1.5-7.71Z" style="fill:#fff"/>
</svg>
