<svg xmlns="http://www.w3.org/2000/svg" viewBox="0 0 1024 1024">
   <circle cx="512" cy="512" r="512" style="fill:#86c78d"/>
   <path d="M367.85 257a44.62 44.62 0 0 0-37.59 21.66L282.65 358c-7.52 9.62-7.52 24 0 36.08l52.62 96.22c7.5 13 11.06 31 2.5 43.31l-55.12 96.22c-7.5 9.62-7.5 24 0 36.06l47.63 79.41c6.92 13.3 22.59 21.64 37.59 21.64h250.61c15 0 30.05-7.21 37.59-21.66l125.31-211.7q11.26-21.64 0-43.29L656 278.64c-7.49-14.45-22.53-21.64-37.56-21.64ZM443 379.69h102.78c15 0 30.05 7.21 37.59 21.64l52.64 89q11.26 21.67 0 43.31l-52.64 86.59c-7.52 14.44-22.57 21.67-37.59 21.67H443s-14.35.47-14.35-2.55l63.89-105.71q11.53-21.67 0-43.31l-63.93-108.11c0-3 14.41-2.55 14.41-2.55Z" style="fill:#fff"/>
</svg>
