<svg xmlns="http://www.w3.org/2000/svg" viewBox="0 0 1024 1024">
   <circle cx="512" cy="512" r="512" style="fill:#ff9400"/>
   <path d="M764.1 489.5c-.7-4.6-1.5-7.5-1.5-7.5s-1.8 2.2-4.9 6.2c-.9-11.3-2.9-22.5-6-33.4-4-13.7-9.1-27-15.5-39.5-4-8.4-8.6-16.6-14.1-24.1-2.9-4.4-5.3-7.7-5.7-8.4-9.5-15.5-20.1-24.7-32.7-42.4-8-13.5-13.5-28.5-16.1-44-3.5 9.3-6.2 19-8 28.7-12.6-12.8-23.9-22.1-30.5-28.3-33.1-30.9-29.2-46.8-29.2-46.8s-61.9 68.9-35.1 140.7c9.3 24.3 25.2 45.7 46.2 61.4 25.8 21.2 53.7 38 68.3 81.1-11.7-22.8-29.6-41.5-51.5-54.6 6.6 15.7 9.9 32.3 9.7 49.3 0 64.5-52.4 116.9-117.1 116.9-8.6 0-17.5-.9-25.8-2.9-10.2-2-19.9-5.3-28.9-9.9-13.7-8.2-25.6-19-34.9-32v-.2c1.1.4 1.8.7 2 .7 4.9 1.8 9.7 3.1 14.8 4 19.9 4.2 40.4 1.8 58.8-6.8 18.6-10.4 29.8-17.9 38.9-15s15.9-5.7 9.7-14.8c-11-14.4-29.2-21.2-46.8-18.1-18.6 2.7-35.6 15.7-59.6 3.1-1.8-.9-3.1-1.8-4.6-2.7-1.5-1.1 5.3 1.3 3.5.2-5.3-2.7-10.4-5.5-15.2-9.1-.2-.2 3.8 1.1 3.3.9-6.2-4.2-11.7-9.7-15.9-16.1-4.2-7.7-4.6-17.2-1.1-25.4 2.4-4.2 5.7-7.3 9.9-9.3 3.1 1.5 5.1 2.7 5.1 2.7s-1.5-2.7-2.2-4c.2-.2.4 0 .9-.2 2.7 1.1 8.6 4.2 11.9 6.2 2.2 1.1 4 2.9 5.5 4.9 0 0 1.1-.4.2-2.9-1.1-2.9-3.1-5.3-5.7-6.8h.4c2.4 1.3 4.6 2.7 6.8 4.4 2-4.9 3.1-9.7 2.9-14.8.2-2.9-.2-5.7-1.1-8.2-.9-1.8.4-2.4 2-.7-.2-1.3-.7-2.7-1.3-4 0 0 .9-1.3 1.3-1.5 1.1-1.1 2.2-2.2 3.5-2.9 7.7-4.9 15.7-9.1 24.1-12.4 6.8-2.9 12.4-5.3 13.5-6 1.8-1.1 3.3-2.2 4.9-3.5 5.7-4.9 9.5-11.5 10.8-18.8.2-1.1.2-2 .2-2.9v-1.8c-.9-3.8-7.3-6.4-40.6-9.7-11.7-1.8-21.2-10.6-23.9-22.3v.2c-.4 1.1-.9 2.4-1.3 3.8.4-1.3.9-2.4 1.3-3.8v-.2c6.4-16.6 17.9-30.9 32.7-40.6.9-.7-3.3.2-2.4-.4 2.7-1.3 5.5-2.7 8.6-3.8 1.5-.4-6.4-3.5-13.5-2.9-4.2.2-8.4 1.3-12.4 2.9 1.8-1.3 6.6-3.1 5.5-3.1-9.1 1.5-17.7 4.9-25.4 9.5 0-.9.2-1.5.4-2.2-6.2 2.7-11.7 6.8-15.7 12.2v-2.9c-2.9 2.2-5.3 4.6-7.7 7.3h-.2c-18.3-7.1-38.2-8.8-57.7-4.9l-.2-.2h.2c-4-3.1-7.5-7.1-10.2-11.5l-.2.2-.4-.4c-1.3-1.8-2.4-4-3.8-6.4-1.1-1.5-2-3.5-3.1-5.5 0 0 0-.2-.2-.2s-.7 2-.9 1.3c-3.3-8.8-5.1-18.3-4.6-27.6h-.2c-5.5 3.8-9.7 9.1-11.7 15.5-1.1 2.2-1.8 3.3-2.4 4.6v-.7l.7-3.3c-.2.2-.2.4-.4.7-1.5 1.8-2.9 3.8-4 6-1.1 2-2 4.2-2.7 6.4v-1.1c0-.9.2-2.2 0-1.8l-.2.7c-7.1 15.7-11.7 32.5-13.3 49.7-.4 3.1-.4 6-.4 8.8v.4c-5.1 5.5-9.5 11.5-13.5 17.9-12.8 21.6-22.3 45.1-28.3 69.6 4.2-9.3 9.3-18.3 15.2-26.7-11.5 28.9-17.2 59.4-17.2 90.4 2-9.1 4.4-17.9 7.3-26.7-1.8 36.5 5.3 72.9 20.5 106.3 20.5 45.9 54.6 84.6 97.9 110.7 17.5 11.9 36.7 21.2 56.8 27.4 2.7.9 5.5 2 8.2 2.9-.9-.4-1.5-.9-2.4-1.1C470 770.2 495 774 520 774c88.6 0 117.7-33.8 120.6-37.1 4.2-4 8-8.6 10.4-14.1 1.8-.7 3.3-1.3 5.1-2.2l1.1-.4c1.3-.7 2-.9 2-.9 13.5-6.4 26.1-14.1 37.6-23.4 17.2-12.4 29.4-30.5 34.7-51 3.3-7.5 3.3-15.7.7-23.4 1.3-2.2 2.4-4.2 2.7-4.6 19-30.5 29.8-65.4 31.4-101.4v-3.1c-.3-7.7-.9-15.4-2.2-22.9z" style="fill:#fff"/>
</svg>
