<svg xmlns="http://www.w3.org/2000/svg" viewBox="0 0 1024 1024">
   <circle cx="512" cy="512" r="512" style="fill:#de5959"/>
   <path d="m456.56 507.93-4.48-4.48a5.34 5.34 0 0 0-9.14 3.75v63.71a5.33 5.33 0 0 0 5.39 5.3H512a5.34 5.34 0 0 0 3.75-9.14 5.24 5.24 0 0 1 0-7.5l67.82-68a5.24 5.24 0 0 0 0-7.5L577.4 478a5.34 5.34 0 0 1 3.75-9.14h63.71a5.38 5.38 0 0 1 5.39 5.3v63.71a5.34 5.34 0 0 1-9.14 3.75l-4.3-4.3a5.24 5.24 0 0 0-7.5 0L515 651.53a5.35 5.35 0 0 1-7.59 0L367.54 511.68a5.35 5.35 0 0 1 0-7.59l193.77-193.41a5.35 5.35 0 0 0 0-7.59l-45.52-45.52a5.35 5.35 0 0 0-7.59 0L257.58 508.21a5.35 5.35 0 0 0 0 7.59l250.63 250.62a5.35 5.35 0 0 0 7.59 0l250.62-250.63a5.35 5.35 0 0 0 0-7.59L618.9 360.86a5.35 5.35 0 0 0-7.59 0L464.15 508a5.44 5.44 0 0 1-7.59-.09Z" style="fill:#fff"/>
</svg>
