<svg xmlns="http://www.w3.org/2000/svg" viewBox="0 0 1024 1024">
   <circle cx="512" cy="512" r="512" style="fill:#6aa509"/>
   <path d="M520.49 561.37h-11.58v-18.51h11.57c5.4 0 8.49 3.86 8.49 9.26s-3.08 9.25-8.48 9.25zM367 643.14a5.27 5.27 0 0 0-5.4-5.4h-10.8v11.57h10.8c3.06 0 5.4-2.31 5.4-6.17zM728 296v432H296V296zM485.77 598.4h23.14v-18.51h6.94l11.57 19.29h27l-14.66-23.91c7.71-4.63 13.11-13.11 13.11-23.91 0-16.2-10-27.77-29.31-27.77h-37.8zM394 673.23c0-8.49-5.4-14.66-14.66-17 6.17-3.09 10-9.26 10-17 0-11.57-8.49-19.29-22.37-19.29H328.4v74.83h39.34c16.97.06 26.26-8.43 26.26-21.54zm.77-148.89h-23.94v27h-19.29v-27H328.4v74.83h23.14v-27h19.29v27h23.91zm62.49 151.2h-30.12V620H404v74.83h53.23zm.77-75.6h20.83l-13.11-16.2a33.43 33.43 0 0 0 3.09-14.66v-11.57H452.6v10.8L434.86 549c-1.54-2.31-3.09-3.86-3.09-6.17 0-3.09 2.31-4.63 5.4-4.63a5.27 5.27 0 0 1 5.4 5.4v3.86h17.74v-4.63c0-11.57-10-19.29-23.91-19.29-14.66 0-24.69 7.71-24.69 19.29a16.8 16.8 0 0 0 6.18 13.17c-6.95 3.06-13.89 10-13.89 20.8 0 14.66 11.57 24.69 32.4 24.69a34.93 34.93 0 0 0 18.51-5.4zm77.14 52.46c0-20.06-12.34-33.94-35.49-33.94s-35.49 13.89-35.49 33.94v9.26c0 20.06 12.34 33.94 35.49 33.94s35.49-13.89 35.49-33.94zm31.63 10.8v-11.57c0-8.49 3.86-13.11 11.57-13.11 8.49 0 11.57 5.4 11.57 10.8h22.37c-.77-17-12.34-30.86-33.17-30.86-23.91 0-35.49 13.89-35.49 33.94v10c0 20.06 11.57 33.94 35.49 33.94 20.83 0 33.17-13.89 33.17-30.86h-22.4c-.77 5.4-3.09 10.8-11.57 10.8-7.71.03-11.57-5.37-11.57-13.08zm126.51 31.63-21.6-40.89L691.74 620h-26.23l-15.43 26.23h-1.54V620H625.4v74.83h23.14V664h1.54l15.43 30.86zM366.2 665.51h-15.43v12.34h15.43a6.17 6.17 0 1 0 0-12.34zm133.46-27c-7.71 0-12.34 4.63-12.34 13.11V664c0 8.49 4.63 13.11 12.34 13.11S512 672.46 512 664v-12.37c0-8.49-4.63-13.12-12.34-13.12zm-74.83-63.26c0 6.94 6.94 10 12.34 10 3.09 0 6.17-.77 7.71-2.31-2.31-2.31-14.66-16.2-14.66-16.2a9.49 9.49 0 0 0-5.39 8.52z" style="fill:#fff"/>
</svg>
