<svg xmlns="http://www.w3.org/2000/svg" viewBox="0 0 1024 1024">
   <circle cx="512" cy="512" r="512" style="fill:#45b6f2"/>
   <path d="M768 512c0-141.4-114.6-256-256-256S256 370.6 256 512s114.6 256 256 256 256-114.6 256-256zM423.7 660.7c-2 2.8-5.3 4.6-8.7 4.7h-46.7c-2.4-.2-4.7-1.1-6.6-2.6-1.6-1.8-2.5-4.1-2.6-6.5-.3-3-.5-6-.5-9.1V374.7c-.4-4 .3-8.1 2-11.7 1.8-2.6 4.7-4.2 7.9-4.5h48.2c2.6 0 5 1.2 6.5 3.2 1.5 2.3 2.3 5 2.3 7.8v281.2c.3 3.4-.3 6.9-1.8 10zm252.9-5.9c.4 4.3-2.2 8.3-6.3 9.7-15.2.9-30.4.9-45.5 0-2.5-.3-4.8-1.6-6.2-3.7-1.2-2-1.9-4.3-2-6.6V550.7c.2-9.9-.2-19.7-1.3-29.5.1-20.7-16.7-37.5-37.3-37.5h-2.3c-22.1-.6-41 15.7-43.6 37.7-1.8 14.1-2.7 28.4-2.7 42.7v88.2c.1 2.2-.3 4.4-1.3 6.4-1.2 3-3.8 5.1-6.9 5.7-14.2.9-28.5.9-42.7 0-2.6 0-5.1-1.1-6.9-3-2.2-3.3-3.2-7.3-2.9-11.3V451.8c.1-2.4.9-4.7 2.5-6.5 1.7-2.3 5.4-3.4 12.3-3.4H508c6.9 0 15.5 0 16.5 6.6 0 1.6 1.8 14.8 7.5 14.9 1.7 0 3.2-.8 4.3-2.1 4.7-4.9 10-9.4 15.6-13.3 26.7-13.9 58.2-15.4 86.1-4.2 11.3 5.1 20.8 13.6 27.2 24.2 7.9 15.3 11.9 32.4 11.6 49.6l-.2 137.2z" style="fill:#fff"/>
</svg>
