<svg xmlns="http://www.w3.org/2000/svg" viewBox="0 0 1024 1024">
   <circle cx="512" cy="512" r="512" style="fill:#05f"/>
   <path d="M381.1 602.6c-33.8-54.5-54.6-117.3-57.6-181.5-1-15.3-1-30.6.1-45.9 49.5-9.9 96.8-28.9 140.9-53.2 16.9-9.5 33.5-19.4 49-31.1 35.9 26 75.4 47 116.8 62.7-83.1 82.8-165.8 166.2-249.2 249zm285-237C577.8 454.2 489.2 542.4 400.9 631c30.5 39.9 67.5 75.3 110.1 102.2 64.8-42.1 119-101.2 152.5-171 28.2-58.2 40.1-123.8 36.4-188.3-11.4-2.4-22.7-5-33.8-8.3zm75.9 34.7c-2.9 72-22.7 143.5-58.4 206.2-36.5 64.3-88.1 119.9-149 161.8-2.8 2.1-5.9 3.9-8.9 5.7-2.1 1.2-4.1 2.5-6.1 3.9l-6 3.8c-2.3 1.5-4.1 0-4.1 0-49.1-30.3-92-70-127.9-115-49-61.9-82.7-136.1-94.9-214.2-5.3-33.1-6.8-66.8-5-100.3-.1-5 3.9-9.4 8.8-9.9 55.6-11.3 108.9-32.4 158.7-59.6 21.4-12 42.7-24.5 62-39.6 0 0 3-2.7 5.8-.1 5.8 5.2 12.5 9.3 18.9 13.7 56.3 37 118.6 65.6 184.3 81.1 5.5 1.5 11.4 1.8 16.7 4.1 4.6 2.5 4.8 7.7 5 12.4l.5 6.8v-.1c.9 13 .9 26.3-.4 39.3zM722.5 358c-74.9-16.3-145.9-49.2-208.7-92.9-15.6 11.5-32.3 21.4-49.1 31-51.2 28.6-106.2 51.2-163.7 63.6-4.7 88.6 19.3 178.4 66.9 253.2 37 58.4 86.3 108.9 143.7 147.3C586 711.8 647 642.5 683.9 561.7c29.1-63.5 41.9-134.1 38.6-203.7z" style="fill:#fff"/>
</svg>
