<svg xmlns="http://www.w3.org/2000/svg" viewBox="0 0 1024 1024">
   <circle cx="512" cy="512" r="512" style="fill:#bd081c"/>
   <path d="M511.74 256C370.5 256 256 370.5 256 511.72c0 108.35 67.37 200.9 162.52 238.12-2.24-20.25-4.25-51.26.87-73.37 4.67-20 30-127.08 30-127.08s-7.66-15.36-7.66-38c0-35.48 20.63-62.1 46.25-62.1 21.85 0 32.38 16.41 32.38 36 0 22-13.93 54.76-21.16 85.16-6.08 25.45 12.8 46.19 37.87 46.19 45.4 0 80.38-47.89 80.38-117.06 0-61-44-103.87-106.84-103.87-72.75 0-115.39 54.66-115.39 110.91 0 22 8.41 45.72 19 58.47a7.8 7.8 0 0 1 1.81 7.36c-1.92 8-6.25 25.58-7.13 29.08-1.13 4.8-3.67 5.78-8.55 3.52-31.89-14.72-51.9-61.4-51.9-99.11 0-80.55 58.62-154.71 169-154.71 88.7 0 157.7 63.3 157.7 147.69 0 88.21-55.62 159.19-133 159.19-25.9 0-50.22-13.42-58.84-29.42l-16 60.76c-5.74 22.29-21.42 50.18-32 67.11A256.56 256.56 0 0 0 511.06 768C652 768 766.74 653.55 766.74 512.28S652 256.55 511.06 256.55z" style="fill:#fff"/>
</svg>
