<svg xmlns="http://www.w3.org/2000/svg" viewBox="0 0 1024 1024">
   <circle cx="512" cy="512" r="512" style="fill:#e5a00d"/>
   <path d="m746.2 516.4 51.1 88.1h-53.6l-25.6-44.2 28.1-43.9zm51.1-96.9h-53.6l-25.6 44.2 28.1 44 51.1-88.2zm-112.7 0H631l59.2 92.5-59.2 92.5h53.6l59.2-92.5-59.2-92.5zm-178.9 185h106.7v-32.4H545v-47.7h62.7v-32.1H545v-40.6h67.4v-32.1H505.7v184.9zm-93.5-185H373v184.9h114.2V572h-75V419.5zm-57.8 57.7c0 19.9-6.2 35.1-18.7 45.7-12.4 10.5-30.1 15.8-53.1 15.8h-16.8v65.8h-39.2v-185h59.1c22.4 0 39.5 4.8 51.2 14.5 11.7 9.7 17.5 24.1 17.5 43.2zm-39.6 1.4c0-9.2-2.5-16-7.5-20.4-5-4.4-12.9-6.6-23.6-6.6h-17.8v54.9h12.9c12.1 0 21.1-2.4 27.1-7.1 6-4.7 8.9-11.7 8.9-20.8z" style="fill:#fff"/>
</svg>
