<svg xmlns="http://www.w3.org/2000/svg" viewBox="0 0 1024 1024">
   <circle cx="512" cy="512" r="512" style="fill:#8b89cc"/>
   <path d="M512 676.2s-23.4-2.3-41.7-15c-18.3-12.7-140.4-100-140.4-100V734s1 20.1 23.1 20.1h317.9C693 754.1 694 734 694 734V561.1s-122.1 87.3-140.4 100.1c-18.2 12.6-41.6 15-41.6 15zm0-434.2s-150.9-4.9-182.1 162.6v114.1s1.3 12.2 35.6 37c34.3 24.8 123.2 94.6 146.5 94.6 23.2 0 112.1-69.8 146.5-94.7 34.3-24.8 35.6-37.1 35.6-37.1V404.6C662.9 237.1 512 242.1 512 242zm103.4 224.8H408.7v-62.2c21-83.2 103.3-84.4 103.3-84.4s82.4 1.2 103.4 84.4v62.2z" style="fill:#fff"/>
</svg>
