<svg xmlns="http://www.w3.org/2000/svg" viewBox="0 0 1024 1024">
   <circle cx="512" cy="512" r="512" style="fill:#c8af7d"/>
   <path d="m577.49 300-1.1-89.11.8-.1a28.7 28.7 0 0 1 3.89-.19h40.51a36.26 36.26 0 0 1 6.28.55 8.72 8.72 0 0 1 7.38 7.19 30.83 30.83 0 0 1 .56 5.94v38.92a23.38 23.38 0 0 1-.56 5.06c-.83 3.51-3 5.08-6.57 4.66a23.81 23.81 0 0 1-3.68-.73c-.8-.2-1.55-.4-2.32-.53s-1.26-.27-2-.46l-.24-.06c7.86 22.62 13.43 40.43 18 57.56l.52 1.93-1.79-.89a24 24 0 0 1-2.38-1.37l-.74-.46c-1.41-.92-2.8-1.84-4.18-2.76-2.71-1.8-5.51-3.67-8.25-5.34a8 8 0 0 1-3.45-4.65c-6.9-19.63-12.29-34.67-17.45-48.74-1.2-3.42-1.54-7.14-1.13-12.09l.09-1 1 .24c2.95.69 6 1.34 9 2 2.15.45 4.31.91 6.47 1.39v-30.91c-3.58-.26-7.11-.48-10.7-.71-3-.19-6.13-.38-9.3-.6-.16 7.26 0 14.55.08 21.62.1 6.07.21 12.35.13 18.48v42l-1.37-.49c-5.53-2-11.06-3.92-16.94-6.06ZM388 325.07a3.72 3.72 0 0 0 1.75.41 5.9 5.9 0 0 0 2-.38 19.47 19.47 0 0 0 5.27-2.62 209.23 209.23 0 0 1 34.41-17.74 36.08 36.08 0 0 0 6.87-3.9 10.76 10.76 0 0 0 4.51-9c0-7.16 0-14.57.18-21.79a7.26 7.26 0 0 0-4.31-6.94c-1.42-.65-2.75-1.39-4.15-2.17l-1.52-.84-5.93-3.5c-6.64-3.92-13.52-8-20.32-12.14a5.2 5.2 0 0 1-2.12-2.16c-.17-5.49-.18-11.23-.18-16.82a171.4 171.4 0 0 1 19.63-1.16V242h.9a142.28 142.28 0 0 0 17.84-1.39l1.25-.15v-7.99c0-4.8.08-9.34 0-13.87 0-3.54-2.54-6.35-6.44-7.17a29.11 29.11 0 0 0-7.06-.75c-5.56 0-11.12 0-16.71.09s-11.27.09-17 .09c-7.44 0-11.15 3.64-11.34 11.15-.12 5.9-.08 12 0 17.82v8.84c0 4.61 1.85 8 5.5 10s7.51 4.41 11.14 6.62c2.78 1.69 5.65 3.43 8.47 5.08 2.37 1.38 4.86 2.66 7.26 3.9 1.9 1 3.7 1.9 5.44 2.87v17.25c-5.75 2.57-11.65 5.14-18.91 8.22v-20.46l-1 .16c-3.69.55-13.93 4.92-17.67 7.53l-.38.27v29.28a9.79 9.79 0 0 0 .39 2.39 4.9 4.9 0 0 0 2.23 3.29ZM695.41 782.3c-1.07-2-2.16-4.12-3.26-6.2-1.3-2.47-2.61-4.95-3.87-7.37-1.53-3-3.06-5.9-4.59-8.83s-3.06-5.85-4.58-8.81c-.63-1.27-1.89-2.75-3.23-3a59.39 59.39 0 0 0-7.45-.21H665v65.18h14.2v-34.73c5.71 11.26 11.6 22.86 17.57 34.44l.25.49h6.13a54.73 54.73 0 0 0 5.49-.23l.81-.08v-64.87h-14ZM451.34 223.93h.8c2.82.08 5.56 0 8.21-.09 3.47-.11 6.76-.21 10.17 0-.09 11.57-.22 23.06-.36 34.53s-.27 23.21-.36 34.85v1l1-.15 5.65-.82c4.2-.62 8.17-1.2 12.16-1.7l.79-.1v-.79c0-.62 0-1.15.09-1.67s.09-1 .09-1.56c.18-12.61.18-25.43.18-37.82 0-7.87 0-16 .18-23.95a20.32 20.32 0 0 1 .24-2.62v-.08h19.06v-.94c-.18-3.76-.18-7-.18-10.4v-.9h-57.72l-.07.82a60.6 60.6 0 0 0 0 11.51Zm-97.78 524.54a16.19 16.19 0 0 0-4.39-.57h-26.64c-4.1 0-8.28 1-8.28 8.29.12 9.46.08 19.11 0 28.45v22c.2 3.68 1.61 5.43 5 6.22a17.29 17.29 0 0 0 4.36.57h24.13a20 20 0 0 0 4.71-.56c3.52-.83 5-2.7 5-6.28v-13a16.14 16.14 0 0 0-.38-3.06l-.14-.72h-13.52v13h-14.15c-.8-7.4-.35-39.61.31-44.83h13.84v12.24h14.22v-16.74a5.15 5.15 0 0 0-4.07-5.01Zm274 54.38a26.15 26.15 0 0 1-6-.22V785h18.55v-10.09h-18.46c-.54-4.26-.56-13.14.11-16.57h21.44v-10.07h-.89c-11.71-.18-22.82-.18-34.58-.18h-.9v65h36.73v-10.28h-12c-1.35-.06-2.68-.01-3.96.04Zm-65.51-2q5.14-10.83 10.38-21.75t10.33-21.64a12 12 0 0 0 1-8.54l-.15-.56-.57-.1c-5.38-.93-34.07-.57-36.77.2l-.65.19v9.68h20.76l-.43 1c-.4.94-.75 1.75-1.16 2.58-6.55 13.81-13.32 28.09-20 42a11.92 11.92 0 0 0-1 8.52l.17.68h40v-10.66h-22.57l.06-.13c.24-.53.45-.99.64-1.46Zm-122-42.52h13.68v43.51c0 3.36-.07 6.84.21 10.39l.06.83h7.26c2.09 0 4.15 0 6.26-.23l.82-.07v-54.6h13.68v-10.08h-42Zm-46.63 54.74h14.22v-65h-14.17Zm113.07 0h14.22v-65h-14.17Zm-4.1-523.84q3.66-12.33 7.31-24.57c5.19-17.43 10.56-35.45 15.74-53.21l.19-.65h19.89l.19.64c7.42 24.82 15 51.84 23.77 85l.37 1.4-1.42-.28c-4.21-.84-8.15-1.7-12-2.52l-5.86-1.26-.56-.12-.13-.55c-1.19-4.94-2.42-10-3.8-15.39-3.47-.26-6.91-.56-10.35-.85s-6.8-.59-10.24-.85c-.77 2.76-1.45 5.43-2.11 8-.48 1.9-1 3.79-1.47 5.67l-.18.67h-19.64Zm33.19-54.85c-1.76 7.39-3.58 14.74-5.49 22.49l-1.71 7.13c2.15.15 4.28.32 6.45.49 2.68.22 5.45.44 8.35.62-1.85-7.41-3.62-14.66-5.37-21.82Zm-91 477.85a17.05 17.05 0 0 0 1.9-4l.42-1.13-.51-.41c-2.79-2.24-5.66-2-8.19-1.85h-.57a67.38 67.38 0 0 0-24.45 7.84 53.26 53.26 0 0 0-17.76 14.65l-.07.11-.81 1.49c-.56 1-1.08 2-1.68 3l-.64 1 1.17.32a27.23 27.23 0 0 0 7.22 1 34.56 34.56 0 0 0 7-.8 69 69 0 0 0 32.08-16 32.08 32.08 0 0 0 4.92-5.22ZM583.83 705c-1.94 0-4.36 0-6.12 1.92l-.27.3v.4c.39 3.66 2.57 5.93 5 8.13 10.55 9.77 21.83 15.62 34.49 17.87a40.42 40.42 0 0 0 6.7.64 26.52 26.52 0 0 0 7.38-1l1.31-.37-.86-1.06c-.89-1.09-1.68-2.16-2.43-3.2a39 39 0 0 0-3.72-4.58c-6-6.52-14.1-11.6-24.68-15.54a55.55 55.55 0 0 0-16.31-3.51Zm72.19 9.2a24.6 24.6 0 0 0-4-3.94c-11.62-9.91-25.63-14.65-42.83-14.44-2.23-.17-5.45-.1-7.6 2.48l-.31.37.14.46c1 3.28 1.47 4.53 4.86 6.79a100.57 100.57 0 0 0 14.36 8.18 58.26 58.26 0 0 0 24.38 5.35h2.33a28.07 28.07 0 0 0 9.84-2.05l1.18-.5-.86-.94c-.51-.59-1.01-1.17-1.51-1.72Zm-234.63-12.1c.64-.92 1.44-2.3 1-3.6s-2-1.93-3.06-2.27a7.42 7.42 0 0 0-2.09-.41h-3a90.13 90.13 0 0 0-9.19.21 62.5 62.5 0 0 0-30.36 11.54 41.37 41.37 0 0 0-8.27 8.65l-.7 1 1.18.35a31 31 0 0 0 4.45 1.11 61.32 61.32 0 0 0 8.61.62c13.72 0 26.63-4.84 39.23-14.65a9.23 9.23 0 0 0 2.2-2.51ZM681 697.58l-2.31-1.82a61.27 61.27 0 0 0-5.83-4.27c-10.36-6.35-22.37-9-36.72-8.23a43.91 43.91 0 0 0-8.4 1.28c-1.48.29-4.22.84-5.17 3.45l-.14.38.19.36c2.46 4.57 9 8.52 18.45 11.11a76 76 0 0 0 19.48 2.61c7.29 0 14.33-1.2 19.33-4.19ZM394.63 695l.5-.28c2.47-1.4 5.27-3 6.56-6.49l.18-.48-.32-.4a9.38 9.38 0 0 0-5.9-3.2 58.25 58.25 0 0 0-19.56-.74c-9.82 1-18.14 3.74-25.44 8.43a20.49 20.49 0 0 0-6.37 5.83l-.61.91 1 .42a49.2 49.2 0 0 0 6 2.19 42.48 42.48 0 0 0 12.18 1.7 59 59 0 0 0 6.71-.4 67.54 67.54 0 0 0 25.07-7.49ZM643 674.16l-.27.45.26.46a10.75 10.75 0 0 0 6.3 4.92l1.88.54a98.71 98.71 0 0 0 13.72 3.27 64.43 64.43 0 0 0 9.62.75 50.58 50.58 0 0 0 18.92-3.5 39 39 0 0 0 4.52-2.19c.84-.45 1.74-.94 2.76-1.44l1.45-.72-1.38-.85c-1-.63-1.86-1.18-2.63-1.69-1-.66-1.87-1.23-2.82-1.76-5.77-3.13-12.24-4.88-20.34-5.51a63.4 63.4 0 0 0-24.81 2.55c-2.69.75-5.43 1.74-7.18 4.72Zm-270.33-5.09a64.84 64.84 0 0 0-32.45-.74 35.58 35.58 0 0 0-16.79 7.75l-1.06.88 1.24.62c.86.43 1.65.84 2.4 1.23a49.06 49.06 0 0 0 5 2.4 49.76 49.76 0 0 0 18.73 3.42 70.92 70.92 0 0 0 9.45-.66 82.66 82.66 0 0 0 12.2-2.91c1.26-.37 2.51-.73 3.79-1.09a9.45 9.45 0 0 0 6.12-5l.24-.48-.3-.44c-2.16-3.05-5.42-4.05-8.6-4.98ZM716 650.39a33.57 33.57 0 0 0-4.07-1.66c-9.15-2.88-18.91-3-29.83-.38a89.61 89.61 0 0 0-13.47 4.55c-2.47 1.06-5 2.42-6.43 6.28l-.29.79.76.35a22 22 0 0 1 2 1.07 11.07 11.07 0 0 0 3.37 1.5 46.12 46.12 0 0 0 9.88 1.83q3.56.33 7 .33a57.66 57.66 0 0 0 26.81-6.19 48.36 48.36 0 0 0 5.67-3.55c.79-.54 1.63-1.12 2.53-1.73l1.44-1-1.61-.63c-1.49-.5-2.66-1.04-3.76-1.56Zm-376.61 14.67a68.81 68.81 0 0 0 14.66-1.63 21.57 21.57 0 0 0 4.89-1.69c1.13-.56 2.64-1.48 2.79-3s-1.13-2.65-2.07-3.39a21.26 21.26 0 0 0-4.36-2.84 65.53 65.53 0 0 0-37.3-5.23c-4.88 1.17-8.92 2.28-12.9 5l-.87.6.73.77a29 29 0 0 0 12.23 7.43 64.37 64.37 0 0 0 22.2 3.98Zm-.95-20.69c2.33-.19 5-.61 6.62-3.1l.27-.4-.19-.45c-1.87-4.41-7.38-8.57-15.5-11.69-11.67-4.49-28.88-6.53-39.18-1.74l-1.22.57 1 .91c.69.64 1.33 1.25 1.94 1.84a31.5 31.5 0 0 0 3.72 3.27c10.2 7.44 21.91 11.09 35.62 11.09q3.38-.01 6.93-.3Zm390.68-19.23a45.56 45.56 0 0 0-17.27-.92 65 65 0 0 0-26.63 9.48 27.74 27.74 0 0 0-5.07 4.31 2.83 2.83 0 0 0 1.29 5.05 24.28 24.28 0 0 0 7.31 1.49 104.38 104.38 0 0 0 15.27-.91c10.79-1.8 19.85-5.87 26.91-12.1l.11-.11a38.31 38.31 0 0 1 3-3.35l1-1-1.38-.46c-2.16-.76-3.24-1.12-4.54-1.49Zm-398.45-3.66.41-.35-.11-.53c-.78-3.72-3.28-5.84-5.72-7.9-9.71-7.81-20.4-12.48-31.78-13.87-4.37-.53-9.12-.77-14.26.94l-1.06.35.56 1a33.24 33.24 0 0 0 6.31 7.79c10.43 8.87 23.15 13.85 37.85 14.8 2.45-.05 5.21-.05 7.8-2.24Zm414.43-21.4v-.82l-.82-.07c-.76-.07-1.51-.19-2.31-.32a23 23 0 0 0-3.69-.4c-14.48-.33-27.66 4.62-40.41 15.17a17.33 17.33 0 0 0-3.78 4.54 3.29 3.29 0 0 0-.51 2.94 3.39 3.39 0 0 0 2.52 1.82 21.56 21.56 0 0 0 4.48.61 9.08 9.08 0 0 0 1-.05c15-1 27.25-5.82 37.43-14.79a38.43 38.43 0 0 0 4.79-5.21c.48-.59 1-1.18 1.44-1.74l.38-.45-.27-.53a2.24 2.24 0 0 1-.25-.7Zm-437.4-.75a23.29 23.29 0 0 0 6.18.75 10 10 0 0 0 2.49-.42 13.37 13.37 0 0 1 1.41-.31l.85-.12-.09-.86c-.38-3.75-1-5-3.65-7.9-9-9.79-19.53-16.24-31.24-19.17a31.67 31.67 0 0 0-12.59-.73l-1.06.17.35 1c1.42 4.08 3.77 7.11 6.86 10.4 7.9 8.41 17.87 14.03 30.5 17.19Zm441.36-29.14a38.52 38.52 0 0 0-4.65.37C730.7 572.82 719.1 579.51 709 591a20 20 0 0 0-3.33 4.94c-.3.56-.61 1.14-1 1.73l-.44.78.77.45a11 11 0 0 0 5.68 1.52 20.62 20.62 0 0 0 4.13-.52 63.52 63.52 0 0 0 22.64-9.67 45.25 45.25 0 0 0 14.72-14.94 35.89 35.89 0 0 0 1.66-3.69l.41-1.1-1.16-.12a36 36 0 0 0-4.01-.19Zm-447.94 6.06a15.54 15.54 0 0 0 4.7.86l1.22.1a2.93 2.93 0 0 0 2.43-1 3 3 0 0 0 .41-2.72l-.18-.54a20.92 20.92 0 0 0-1.91-4.54c-8.51-12.77-19.46-21.25-32.49-25.19a30.35 30.35 0 0 0-5.82-1.27c-.77-.12-1.58-.24-2.42-.39l-1.26-.22.22 1.26a24 24 0 0 0 4.09 9.88c7.05 10.87 17.21 18.64 31.02 23.77ZM755.55 542a24.27 24.27 0 0 0-3.78.43c-10.66 2.2-20.06 7.88-28.74 17.37a71.67 71.67 0 0 0-6.82 9l-.81 1.2a6.14 6.14 0 0 0-1 6.31l.15.32.33.14a7.81 7.81 0 0 0 3 .6 15.53 15.53 0 0 0 5.11-1.15l1-.34a60.78 60.78 0 0 0 23.39-15.35c4.37-4.59 7.23-8.73 9-13a19.41 19.41 0 0 0 1.25-2.88c.17-.46.36-1 .58-1.5l.54-1.35-1.45.12Zm-459.41 10.42a9 9 0 0 0 2.95 1h.25a7.44 7.44 0 0 0 1.23.09h2.89l.13-.74c.55-3.11.59-4.62-1.16-8.12-6.25-12.49-14.67-21.51-25.81-27.6a56.73 56.73 0 0 0-6.4-2.4c-1.18-.39-2.38-.79-3.58-1.23l-1-.38-.16 1.1c-.05.38-.11.68-.15.92a2.46 2.46 0 0 0 0 1.49c.09.37.17.72.25 1.07a16 16 0 0 0 .84 2.91c5.08 13.68 14.82 24.15 29.72 31.89Zm458.21-38c-15.19 5.29-26.15 16.05-33.5 32.94a10.5 10.5 0 0 0-.5 3.36c0 .51 0 1-.1 1.54l-.1.86.86.13a22.91 22.91 0 0 0 3.28.33 10.39 10.39 0 0 0 5-1.51c12.28-6.52 21.32-15.62 26.88-27.1l.32-.76c1.2-2.89 2.45-5.87 2.27-9.71l-.05-1.1-1.07.27c-.59.15-1.08.23-1.52.31a8.51 8.51 0 0 0-1.77.44ZM293 526.62a7.24 7.24 0 0 0 4.54 1.78 8.4 8.4 0 0 0 2.38-.37l.7-.21-.06-.73c-.06-.7-.08-1.4-.1-2.09a18.54 18.54 0 0 0-.47-4.36 42.45 42.45 0 0 0-2.94-8.08c-5.5-11.61-12.62-19.92-21.81-25.43-1.86-1-3.71-1.87-5.86-2.86l-1.78-.82v3.33a16.32 16.32 0 0 0 .06 2.94c2.91 15.01 11.21 27.09 25.34 36.9Zm444-29.93c-6.94 8.13-11.31 16.45-13.34 25.45-.4 2.21-.56 4.07 1.27 6.31l.41.5.6-.23c.41-.15.84-.29 1.29-.43a12 12 0 0 0 3.39-1.46c14-9.2 22.42-21 25.77-36.21a17 17 0 0 0 .28-3.42c0-.78 0-1.58.1-2.47l.12-1.53-1.39.64c-1.35.62-2.47 1.07-3.46 1.47-.74.29-1.42.57-2.15.89A43.77 43.77 0 0 0 737 496.68Zm-445.75 3.38a14 14 0 0 0 3.6 2.35c.71.37 1.45.75 2.14 1.19l.72.46.49-.7c2.27-3.21 2-6.47 1.41-9.51a59.3 59.3 0 0 0-15.35-30.7 29.5 29.5 0 0 0-10.57-7.6l-1.14-.47-.1 1.23c-.06.66-.13 1.27-.2 1.85a16.11 16.11 0 0 0-.16 3.7c1.24 14.61 7.52 27.13 19.19 38.2Zm433-3.33a6.45 6.45 0 0 0 1.51 6l.34.34.47-.09c12.93-2.47 27.79-30.56 24.84-47l-.24-1.35-1.14.76c-.77.52-1.53 1-2.25 1.39a22.69 22.69 0 0 0-3.59 2.45c-10.83 9.02-17.35 21.27-19.95 37.49Zm-432.54-27.6c1.48 2.22 3.25 4.45 7.23 5.24l.8.16.24-.79c.15-.49.31-1 .47-1.41a11.13 11.13 0 0 0 .83-3.69c.38-16.43-4.85-30.28-15.57-41.17a29.68 29.68 0 0 0-3.34-2.74l-1.54-1.15-.4 1.19c-.16.49-.32.85-.47 1.18a7.52 7.52 0 0 0-.46 1.25 36 36 0 0 0 0 14.76 60.54 60.54 0 0 0 12.21 27.17Zm433.31 5 .31.31.44-.05c3.09-.39 4.88-2.58 6.46-4.52l.26-.32a58.83 58.83 0 0 0 12.25-28.34c.65-4.68 1-10.3-.94-16.42l-.39-1.2-1 .76-1 .71a21.84 21.84 0 0 0-2.55 2.07c-10.65 10.31-15.92 23.71-16.12 41a8.09 8.09 0 0 0 2.26 6ZM298.14 442.4c1.17 2.35 2.8 4.88 5.94 5.86l.44.14.37-.28c2.49-1.86 2.88-4.44 3.23-6.68 1-5.35.51-10.74 0-15.39-1.2-9.6-4.29-17.8-9.18-24.39-.66-.85-1.35-1.59-2.08-2.36s-1.38-1.47-2.07-2.33l-1-1.24-.56 1.48c-.33.89-.59 1.49-.83 2-.15.34-.28.66-.44 1.05-1.6 4.79-2.11 10-1.66 16.92a59.29 59.29 0 0 0 7.84 25.22Zm418.18.85c.36 1.8.77 3.83 3 4.95l.4.2.4-.2c4.57-2.28 8.7-8.82 11.34-17.92 3-10.3 4-25-.71-32.86l-.6-1-.81.81a38.41 38.41 0 0 0-3.67 4c-4.56 5.91-7.56 13.1-9.18 22a55.81 55.81 0 0 0-.18 20.02Zm-405.45-20.9c.42.47.85 1 1.22 1.46l.5.66.7-.44a9.71 9.71 0 0 0 4.54-6.66 62.21 62.21 0 0 0 1.28-25.21 41.17 41.17 0 0 0-6.47-17.33 24.05 24.05 0 0 0-2.24-2.44l-.92-.92-.54 1.18c-.36.79-.71 1.45-1.06 2.1a18.05 18.05 0 0 0-1.31 2.84c-4.85 13.68-4.07 27.44 2.36 42.07a10.88 10.88 0 0 0 1.93 2.69Zm395.75-3.15.27.58c.69 1.42 1.56 3.19 3.5 4l.31.12.31-.1a7.65 7.65 0 0 0 4.51-4.83c5.86-14.06 6.69-27.28 2.54-40.44a35.28 35.28 0 0 0-2-4.3c-.34-.65-.7-1.34-1.08-2.1l-.66-1.32-.87 1.2c-.38.53-.74 1-1.07 1.44a22.27 22.27 0 0 0-2.24 3.35c-6.84 13.03-7.98 26.91-3.53 42.4Zm-24.92-43.93 1.36 1.19.59-.64c2.44-2.63 2.89-3.51 3.47-6.79a57.48 57.48 0 0 0-4.38-30.72 36.41 36.41 0 0 0-9.22-13.1l-1-.94-.44 1.32c-.22.67-.45 1.29-.66 1.87a26.44 26.44 0 0 0-1.17 3.82c-2.74 13.7-.11 26.92 8 40.44a16.94 16.94 0 0 0 3.44 3.54ZM337 368.94c.36 2.14.8 4.81 3.76 7l.62.46.55-.55c.41-.41.83-.8 1.25-1.19a16.36 16.36 0 0 0 2.84-3.12c8-13.22 10.61-26.82 7.85-40.45a28.84 28.84 0 0 0-1.45-4.24l-.57-1.47-.55-1.42-1 1.16c-.59.69-1.16 1.34-1.7 2a34.87 34.87 0 0 0-3.4 4.25c-7 10.52-9.66 22.79-8.25 37.49Zm361.59 30.33.41.14.36-.23c2.81-1.81 3.61-4.75 4.17-7.56a58.58 58.58 0 0 0 .73-24.51c-1.11-6-3-13-8.49-19.33l-.88-1-.6 1.2c-.28.57-.55 1.08-.81 1.57a22 22 0 0 0-1.76 3.95c-4.55 13.48-3.78 26.94 2.37 41.17a7.72 7.72 0 0 0 4.46 4.61ZM325 399l.48.24.44-.31c4.13-2.88 7.25-9.79 8.56-19 1.54-10.76.49-24.83-5.31-32l-.79-1-.67 1.06c-.42.66-.84 1.28-1.24 1.87a32 32 0 0 0-2.23 3.62c-5.86 12.07-6.88 25-3.12 39.68.53 2.22 1.31 4.6 3.88 5.84Zm34.28-43.46.39.27.45-.17c11.83-4.51 22.11-33.32 16.91-47.43l-.41-1.11-1 .69c-1.28.91-2.21 1.65-3.16 2.43-10.28 9.95-15.38 22.88-15.58 39.54.04 2.24.32 4.37 2.4 5.83ZM658 351.27c1.45 1.81 3.24 4.05 6.16 4.47l.53.08.32-.44c2.64-3.62 3-10.16 1-18.41-2.68-11.17-9.69-24.66-17.91-28.83l-1-.49-.31 1c-1.69 5.64-1.84 8.79-.75 16.07A57.67 57.67 0 0 0 658 351.27Zm28.81 272.54a217.81 217.81 0 0 1-25.68 30.56A221.09 221.09 0 0 1 630 679.51a227.27 227.27 0 0 1-35.8 19 210.55 210.55 0 0 1-49.12 13.78l15.51 4a4.93 4.93 0 0 1 3.11 2.24 5.11 5.11 0 0 1 .6 3.89l-.9 3.43a4.93 4.93 0 0 1-2.24 3.11 5.12 5.12 0 0 1-2.67.75 5 5 0 0 1-1.22-.15l-44.22-11.28V736h-1.8v-17.69l-43.85 11.18a5 5 0 0 1-3.82-.62 5.14 5.14 0 0 1-2.32-3.09l-.9-3.41a5.21 5.21 0 0 1 3.71-6.14l15.57-3.93a207.74 207.74 0 0 1-49.19-13.81 204.83 204.83 0 0 1-35.8-19 198.32 198.32 0 0 1-31.1-25.14 217.94 217.94 0 0 1-25.67-30.55 201.36 201.36 0 0 1-19.36-35.09A204.44 204.44 0 0 1 302 508.25a203.17 203.17 0 0 1 35.81-115.56 217.83 217.83 0 0 1 25.68-30.56 221.11 221.11 0 0 1 31.1-25.13c.9-.56 1.78-1.12 2.67-1.7 1.47-.95 3-1.93 4.58-2.83l.94 1.53a203.1 203.1 0 0 0-91.42 170.3v4A194.68 194.68 0 0 0 365 642.31C403.25 684 455.08 707 511 707.37c-.06-3.84-.14-7.93-.25-12.24a190.66 190.66 0 0 1 0-381.31c.26-5.06.43-8.21.43-8.34H513c0 .14.16 3.29.41 8.34a184.84 184.84 0 0 1 72.87 15 190.66 190.66 0 0 1-72.85 366.31c-.1 4.31-.19 8.41-.25 12.25 56.1-.24 108.07-23.32 146.44-65.06a195.33 195.33 0 0 0 53.42-134.07v-4A203.1 203.1 0 0 0 621.64 334l.94-1.53c2.76 1.58 5.07 3 7.27 4.54a198.18 198.18 0 0 1 31.09 25.12 217.8 217.8 0 0 1 25.67 30.55 201.22 201.22 0 0 1 19.39 35.1 204.53 204.53 0 0 1 16.64 80.47 203.16 203.16 0 0 1-35.81 115.56ZM506.36 390.64A114.13 114.13 0 0 0 398.34 498c12.32-1.06 24-2.28 32.62-3.61 31.38-4.86 50.2-11.26 59.82-31.19 7.7-15.94 12.93-40.36 15.58-72.56ZM398.21 508.17a114.12 114.12 0 0 0 108.34 110.14c-2-21.4-5-41.63-9.16-56.7-11.46-41.41-35.56-48.8-99.18-53.44Zm119.48 110.14A114.12 114.12 0 0 0 626 508.19c-63.58 4.68-87.72 12.15-99.17 53.42-4.17 15.07-7.1 35.3-9.14 56.7Zm108.23-120.13a114.13 114.13 0 0 0-108-107.54c2.64 32.28 7.87 56.77 15.59 72.74 9.71 19.94 28.52 26.35 59.82 31.19 8.67 1.35 20.33 2.56 32.59 3.61ZM509.53 337.42c-90 1.38-163 74.27-164.46 164.26 9.9-.55 24.78-1.45 40-2.61a126.87 126.87 0 0 1 77.5-111.92 127.56 127.56 0 0 1 44.64-9.87c.79-11.66 1.61-26.62 2.32-39.86ZM345 504.85c.21 91.26 73.95 165.55 165 166.68-.53-12.89-1.28-26.62-2.35-40.21A126.87 126.87 0 0 1 395 553.79a127.55 127.55 0 0 1-10-46.52c-7.26-.46-15-.92-23.19-1.41Zm169.21 166.68c91-1.12 164.79-75.42 165-166.68l-16.11 1q-12.71.76-23.9 1.46a126.89 126.89 0 0 1-77.58 114.15 127.59 127.59 0 0 1-45.06 9.89c-1.07 13.56-1.82 27.29-2.35 40.18Zm165-169.75c-1.43-90.06-74.46-163-164.54-164.37.7 13.23 1.52 28.18 2.27 39.85a123.68 123.68 0 0 1 44.72 9.88 126.34 126.34 0 0 1 40.43 27.2 125 125 0 0 1 27.2 40.44 127.59 127.59 0 0 1 9.86 44.45c15.28 1.16 30.15 2.04 40.02 2.55ZM510.49 319.4C409.18 320.28 327 403 327 504.47s82.24 184.28 183.62 185.07c-.09-3.27-.2-6.64-.32-10.09a174.71 174.71 0 0 1-173-174.81v-.28l-4.2-.27v-1.8l4.22-.21a174.67 174.67 0 0 1 172.62-172.23c.2-3.78.39-7.31.55-10.45Zm3.1 370.14C615 688.75 697.21 606 697.21 504.47S615 320.26 513.71 319.4c.16 3.13.34 6.67.53 10.45a171.45 171.45 0 0 1 65.93 13.73 174.66 174.66 0 0 1 106.75 158.59c2.22.1 3.63.15 4 .15h.1l2.69-.17-2 1.75a.75.75 0 0 1-.53.19l-4.2.26v.28a174.69 174.69 0 0 1-173 174.81c-.19 3.47-.3 6.84-.39 10.1Z" style="fill:#fff"/>
</svg>
