<svg xmlns="http://www.w3.org/2000/svg" viewBox="0 0 1024 1024">
   <circle cx="512" cy="512" r="512" style="fill:#32325d"/>
   <path d="M781.67 515.75c0-38.35-18.58-68.62-54.08-68.62s-57.23 30.26-57.23 68.32c0 45.09 25.47 67.87 62 67.87 17.83 0 31.31-4 41.5-9.74v-30c-10.19 5.09-21.87 8.24-36.7 8.24-14.53 0-27.42-5.09-29.06-22.77h73.26c.01-1.92.31-9.71.31-13.3zm-74-14.23c0-16.93 10.34-24 19.78-24 9.14 0 18.88 7 18.88 24zm-95.13-54.38a42.32 42.32 0 0 0-29.36 11.69l-1.95-9.29h-33v174.67l37.45-7.94.15-42.4c5.39 3.9 13.33 9.44 26.52 9.44 26.82 0 51.24-21.57 51.24-69.06-.13-43.45-24.85-67.12-51.06-67.12zm-9 103.22c-8.84 0-14.08-3.15-17.68-7l-.15-55.58c3.9-4.34 9.29-7.34 17.83-7.34 13.63 0 23.07 15.28 23.07 34.91 0 20.02-9.29 35-23.07 35zM496.72 407.73l37.6-7.94v30.41l-37.6 8.09zm0 41.95h37.6v131.09h-37.6zm-9.14 0v34.46c-4.64-1.65-19.63-3.75-28.46 7.79v88.84h-37.46V449.68H454l2.4 11.09c8.86-16.19 26.39-12.89 31.18-11.09zm-106.22 0h28.46v31.91h-28.46v53.18c0 22.17 23.67 15.28 28.46 13.33v30.41c-4.94 2.7-13.93 4.94-26.22 4.94-22.17 0-38.8-16.33-38.8-38.5L345 425l36.55-7.79zm-43.9 91.54c0 26.82-21.42 42.25-52.58 42.25a103.85 103.85 0 0 1-40.9-8.54v-35.66c12.58 6.89 28.46 12 40.9 12 8.39 0 14.38-2.25 14.38-9.14 0-17.83-56.93-11.24-56.93-52.58 0-26.52 20.23-42.4 50.64-42.4a98.8 98.8 0 0 1 37.15 6.85v35.21a83.56 83.56 0 0 0-37.12-9.57c-7.94 0-12.73 2.25-12.73 8.09-.03 16.78 57.05 8.84 57.2 53.48z" style="fill:#fff"/>
</svg>
