<svg xmlns="http://www.w3.org/2000/svg" viewBox="0 0 1024 1024">
   <circle cx="512" cy="512" r="512" style="fill:#2196f3"/>
   <path d="M734 465.5c10.4 15 16.3 32.6 17.1 50.9 36.6 12.9 58.5 50.3 52 88.6-6.5 38.2-39.7 66.2-78.5 66.3H326.1c-28 0-54.9-11-74.8-30.8l169-133.8c6.2 3.3 13.3 5.2 20.8 5.2 6.5 0 13-1.4 18.9-4.2l80.6 70.5c-4.3 13.7-1.8 28.7 6.9 40.1 8.7 11.5 22.4 18 36.8 17.5 14.4-.5 27.6-7.9 35.5-19.9 7.9-12 9.5-27.1 4.2-40.5l110-109.9zm-25-25L599.1 550.4c-5.2-2-10.7-3.1-16.2-3-6.5 0-13 1.4-18.9 4.2L483.5 481c4.2-13.3 1.9-27.8-6.2-39.1s-21-18.2-34.9-18.5c-13.9-.3-27.2 5.9-35.8 16.8-8.6 10.9-11.6 25.3-8.1 38.7L230.6 611.8c-16.2-33.1-14.1-72.3 5.6-103.4 19.7-31.2 54.1-49.9 91-49.5 8.4-66.7 62.5-118.4 129.5-123.6 67-5.3 128.5 37.3 147.2 101.9 15.1-9 32.3-13.7 49.8-13.7 20.5-.1 39.5 6.2 55.3 17zm0 0" style="fill:#fff"/>
</svg>
