<svg xmlns="http://www.w3.org/2000/svg" viewBox="0 0 1024 1024">
   <circle cx="512" cy="512" r="512" style="fill:#0079bf"/>
   <path d="M704 256H320a64 64 0 0 0-64 64v384a64 64 0 0 0 64 64h384a64 64 0 0 0 64-64V320a64 64 0 0 0-64-64ZM478.73 643.85A30.73 30.73 0 0 1 448 674.57h-94.72a30.74 30.74 0 0 1-30.72-30.72V353.28a30.73 30.73 0 0 1 30.72-30.72H448a30.73 30.73 0 0 1 30.72 30.72Zm222.73-128a30.74 30.74 0 0 1-30.72 30.72H576a30.74 30.74 0 0 1-30.72-30.72V353.28A30.74 30.74 0 0 1 576 322.56h94.72a30.73 30.73 0 0 1 30.72 30.72Z" style="fill:#fff"/>
</svg>
