<svg xmlns="http://www.w3.org/2000/svg" viewBox="0 0 1024 1024">
   <circle cx="512" cy="512" r="512" style="fill:#357ac0"/>
   <path d="m765.1 498.1-64.7-155.4c-3.6-9-10.8-15.7-19.3-19.3l-155.4-64.7c-4.5-1.8-9.2-2.7-13.9-2.7-4.5 0-9.4.9-13.5 2.7l-155.4 64.2c-9 3.6-15.7 10.8-19.3 19.3l-64.7 155.4c-1.8 4.5-2.7 9.2-2.7 13.9 0 4.7.9 9.4 2.7 13.9l64.7 156.3c3.6 8.5 10.8 15.7 19.3 19.3l155 64.2c4.5 1.8 9 2.7 13.5 2.7 3.8 0 7.9-.7 11.5-2 .8-.2 1.6-.5 2.4-.7L681.2 701c8.5-3.6 15.7-10.3 19.3-19.3l64.7-156.3c3.5-8.9 3.5-18.8-.1-27.3zm-168.4 80.4V400.2h42.7v221h-39.9c-11.2 0-22.5-4.5-30.1-12.6l-58.8-66-58.4 66c-8.1 8.1-18.9 12.6-30.1 12.6h-39.5v-221h42.7v178.3l85.8-92.5" style="fill:#fff"/>
</svg>
