<?xml version="1.0" encoding="utf-8"?>
<!-- Generator: Adobe Illustrator 21.0.0, SVG Export Plug-In . SVG Version: 6.00 Build 0)  -->
<svg version="1.1" xmlns="http://www.w3.org/2000/svg" xmlns:xlink="http://www.w3.org/1999/xlink" x="0px" y="0px"
	 viewBox="0 0 1024 1024" style="enable-background:new 0 0 1024 1024;" xml:space="preserve">
<style type="text/css">
	.st0{fill:#607D8B;}
	.st1{fill:#FFFFFF;}
</style>
<g id="Guides">
</g>
<g id="Icon">
	<circle class="st0" cx="512" cy="512" r="512"/>
	<g>
		<path class="st1" d="M407.9,757.5c-38.8,0-77.6-14.6-107.4-44c-0.5-0.5-1-1-1.4-1.4c-0.1-0.1-0.1-0.1-0.2-0.2
			c-58.6-60.6-56.9-157.6,3.8-216.1c28.6-27.7,66.4-42.9,106.2-42.9c31.2,0,61.2,9.4,86.4,26.8L700.8,274
			c10.1-10.1,26.5-10.1,36.6,0c10.1,10.1,10.1,26.5,0,36.6l-27.9,27.9l51,51c10.1,10.1,10.1,26.5,0,36.6l-80.8,80.8
			c-10.1,10.1-26.5,10.1-36.6,0l-51-51l-59.8,59.8c42.5,59.3,37.5,142.6-15.5,196.3C486.9,742.3,447.4,757.5,407.9,757.5z
			 M336,675.8c0.3,0.3,0.6,0.6,0.8,0.8c39.7,39.2,103.9,38.8,143.1-0.9c38.9-39.4,38.8-103-0.1-142.2c-0.2-0.2-0.4-0.4-0.7-0.6
			c-39.4-38.1-101.2-38.1-140.6,0C298.5,571.6,297.3,635.7,336,675.8z M628.6,419.3l32.7,32.7l44.3-44.3l-32.7-32.7L628.6,419.3z"/>
	</g>
</g>
</svg>
