<?xml version="1.0" encoding="utf-8"?>
<!-- Generator: Adobe Illustrator 21.0.0, SVG Export Plug-In . SVG Version: 6.00 Build 0)  -->
<svg version="1.1" xmlns="http://www.w3.org/2000/svg" xmlns:xlink="http://www.w3.org/1999/xlink" x="0px" y="0px"
	 viewBox="0 0 1024 1024" style="enable-background:new 0 0 1024 1024;" xml:space="preserve">
<style type="text/css">
	.st0{fill:#607D8B;}
	.st1{fill:#FFFFFF;}
</style>
<g id="Min_Guides__x28_DO_NOT_REMOVE_x29_">
</g>
<g id="Max_Guides__x28_DO_NOT_REMOVE_x29_">
</g>
<g id="Icon">
	<circle id="Background__x28_DON_x27_T_CHANGE_COLOR_x29_" class="st0" cx="512" cy="512" r="512"/>
	<path id="Monero" class="st1" d="M512,795c-156.3,0-283-126.7-283-283c0-156.3,126.7-283,283-283c156.3,0,283,126.7,283,283
		C795,668.3,668.3,795,512,795L512,795z M511.5,321.6c-105.7-0.1-191.4,85.5-191.4,191.2c0,0.1,0,0.2,0,0.2
		c0,21.3,3.6,41.5,9.9,60.7H387V412.9l124.5,124.5L636,412.9v160.9h57.1c6.5-19.6,9.8-40.1,9.9-60.7
		C703,407.2,617.3,321.6,511.5,321.6L511.5,321.6z M483,565.4l-54.5-54.5v101.2h-80.4c33.7,55,94.4,91.8,163.4,91.8
		c69,0,130.2-36.8,163.4-91.8h-80.4V510.9l-53.9,54.5L512,594L483,565.4L483,565.4z"/>
</g>
</svg>
