<?xml version="1.0" encoding="utf-8"?>
<!-- Generator: Adobe Illustrator 21.0.0, SVG Export Plug-In . SVG Version: 6.00 Build 0)  -->
<svg version="1.1" xmlns="http://www.w3.org/2000/svg" xmlns:xlink="http://www.w3.org/1999/xlink" x="0px" y="0px"
	 viewBox="0 0 1024 1024" style="enable-background:new 0 0 1024 1024;" xml:space="preserve">
<style type="text/css">
	.st0{fill:#607D8B;}
	.st1{fill:#FFFFFF;}
</style>
<g id="Min_Guides__x28_DO_NOT_REMOVE_x29_">
</g>
<g id="Max_Guides__x28_DO_NOT_REMOVE_x29_">
</g>
<g id="Icon">
	<circle id="Background__x28_DON_x27_T_CHANGE_COLOR_x29_" class="st0" cx="512" cy="512" r="512"/>
	<path class="st1" d="M759,342.9c0.1-43.5-35.2-78.9-78.7-79c-21,0-41.1,8.3-55.9,23.1L552.4,359l-166.1-55.3
		c-9-2.8-18.9-0.5-25.6,6.1l-60.9,60.4c-9.9,10.1-9.8,26.3,0.2,36.2c2.1,2.1,4.5,3.8,7.2,5l132.6,60.2l-66.6,66.6l-43.8-22
		c-9.7-5.2-21.7-3.7-29.7,3.8l-45.3,46.3c-9.9,10-9.9,26.1,0,36.1l166.1,166.1c10,9.9,26.1,9.9,36.1,0l46.3-45.3
		c7.9-7.8,9.8-19.8,4.9-29.7l-22-43.8l66.6-66.6l60.2,132.6c6,12.8,21.2,18.4,34,12.4c2.7-1.2,5.1-2.9,7.2-5l60.4-60.4
		c6.6-6.7,9-16.6,6.1-25.6l-55.3-166.1l70.9-72.4C750.8,383.9,759.1,363.8,759,342.9z M699.6,362.6l-82.9,82.9
		c-6.6,6.7-9,16.6-6.1,25.6L665.8,637l-23,23l-60.2-132.3c-3.5-7.6-10.4-13.1-18.7-14.6c-8.3-1.5-16.8,1.2-22.8,7.2L435.7,626.8
		c-7.8,7.8-9.7,19.6-4.9,29.4l21,43l-14.3,14.3l-128.8-129l15.1-13.3l43.8,22c9.8,4.9,21.7,2.9,29.4-4.9l106-106.5
		c10-10,10.1-26.2,0.1-36.2c-2.2-2.2-4.7-4-7.6-5.3l-133.4-60.2l23-23l165.9,55.3c9,2.8,18.9,0.5,25.6-6.1l82.9-82.9
		c10.6-10.8,27.9-11,38.7-0.4c0.1,0.1,0.3,0.3,0.4,0.4c5.4,5,8.4,12.1,8.2,19.5C707.3,350.2,704.6,357.3,699.6,362.6z"/>
</g>
</svg>
