<svg xmlns="http://www.w3.org/2000/svg" viewBox="0 0 1024 1024">
   <circle cx="512" cy="512" r="512" style="fill:#231f20"/>
   <path data-name="1984 Hosting logo (vector recreation by krisu)" d="M328.85 420.41h-120a13.08 13.08 0 0 0-13 13v157.1a13.08 13.08 0 0 0 13 13h120a13.08 13.08 0 0 0 13-13V433.45a13.08 13.08 0 0 0-13-13.04zm-21.69 141.95h-66.24v-15.61h25.82v-60.6Q260 494 244.82 494h-3.9v-16.81h7.64q16.77 0 22.58-12h14.11v81.6h21.92zm183.08-141.95h-120a13.08 13.08 0 0 0-13 13v157.1a13.08 13.08 0 0 0 13 13h120a13.08 13.08 0 0 0 13-13V433.45a13.08 13.08 0 0 0-13-13.04zm-31.42 131.16q-11 12.64-29.4 12.64-16.07 0-25.86-8.47t-10.45-22.57h18.57a16.34 16.34 0 0 0 4.87 11.18q4.54 4.51 13.37 4.51 10.24 0 15.28-7.3t5.7-24.16q-9.08 8.26-24.07 8.26a39.91 39.91 0 0 1-14.78-2.59 28.22 28.22 0 0 1-10.58-7 30.13 30.13 0 0 1-6.12-9.93 33.33 33.33 0 0 1-2.08-11.81q0-13.85 10-22.57t25.69-8.72a46.74 46.74 0 0 1 12.74 1.67 35.32 35.32 0 0 1 11.2 5.51 34.8 34.8 0 0 1 9 9.6 48.85 48.85 0 0 1 5.83 14.52 82.65 82.65 0 0 1 2.17 19.78q-.08 24.81-11.08 37.45zm-15.49-67.47q5.33 5.84 7.08 19.86a34.87 34.87 0 0 1-20.65 6.43q-8.24 0-12.83-4.34t-4.58-11.68a15.35 15.35 0 0 1 4.65-11.69q4.83-4.42 12.41-4.42a18 18 0 0 1 13.92 5.84zm130.32 8.16q0-7.37 5.32-11a25.49 25.49 0 0 1 26.12 0q5.32 3.6 5.32 11a12 12 0 0 1-2.76 8.08 14.76 14.76 0 0 1-6.74 4.52 28.66 28.66 0 0 1-8.92 1.3 23.51 23.51 0 0 1-13-3.43q-5.33-3.44-5.33-10.47zm38.93 42a12.09 12.09 0 0 1-5.78 10.88q-5.78 3.68-14.65 3.68t-14.78-3.68a12 12 0 0 1-5.9-10.88q0-7.54 5.82-11.14t14.86-3.6q9 0 14.73 3.6t5.71 11.16zm40.49-113.87H533a13.08 13.08 0 0 0-13 13v157.1a13.08 13.08 0 0 0 13 13h120a13.08 13.08 0 0 0 13-13V433.45a13.08 13.08 0 0 0-12.93-13.04zm-24.53 127.96a25.27 25.27 0 0 1-9 8.87 47.14 47.14 0 0 1-12.68 5.11 63.67 63.67 0 0 1-29.72 0 47.14 47.14 0 0 1-12.68-5.11 25.27 25.27 0 0 1-9-8.87 23.82 23.82 0 0 1-3.31-12.47q0-9.29 4.69-14.73a30.4 30.4 0 0 1 12.14-8.46q-14.57-7-14.57-21.26a27.06 27.06 0 0 1 2.14-10.93 23.81 23.81 0 0 1 5.69-8.16 32 32 0 0 1 8.41-5.48 44 44 0 0 1 10.17-3.22 61.72 61.72 0 0 1 22.19 0 44.81 44.81 0 0 1 10.21 3.22 31.79 31.79 0 0 1 8.46 5.48 23.82 23.82 0 0 1 5.69 8.16 27.07 27.07 0 0 1 2.13 10.93q0 14.23-14.57 21.26a29 29 0 0 1 12.06 8.46q4.77 5.36 4.77 14.73a23.82 23.82 0 0 1-3.22 12.47zm101.82-24.15 28.58-34.38v34.38zm84.83-103.78h-120a13.08 13.08 0 0 0-13 13v157.1a13.08 13.08 0 0 0 13 13h120a13.08 13.08 0 0 0 13-13V433.45a13.08 13.08 0 0 0-13-13.04zM793.4 539.58H777v23.2h-18.06v-23.2h-50.77v-11.94l52.53-63.29H777v59.85h16.4z" style="fill:#fff"/>
</svg>
