<svg xmlns="http://www.w3.org/2000/svg" viewBox="0 0 1024 1024">
   <circle cx="512" cy="512" r="512" style="fill:#2019f5"/>
   <path d="M686.82 301.03c-9.34 0-18.03 2.97-25.25 7.99-2.77 1.6-5.43 3.47-7.86 5.72L523.85 450.97c-18.03 16.71-19.27 45.32-2.72 63.56 16.53 18.24 44.83 19.48 62.84 2.74l58.08-58.52v232.57c0 24.94 20.18 45.27 44.78 45.27s44.75-20.33 44.75-45.27v-345c0-24.89-20.13-45.3-44.75-45.3m-244.96 291.2c-19.14-15.42-31.46-33.63-37.1-56.89-5.02-20.95-2.92-38.36 3.93-59.45.96-2.48 1.06-2.79.26-.88.54-1.35 1.16-2.66 1.81-4.01.91-2.02 1.91-3.93 2.92-5.87 2.79-5.12 5.9-10.14 9.42-14.8-2.17 2.87 1.73-1.99 2.02-2.33 1.94-2.22 3.91-4.35 5.95-6.42 2.07-2.07 4.22-4.06 6.39-6 .52-.47 5.28-4.24 2.38-2.04 4.68-3.57 9.68-6.73 14.87-9.52 5.59-3 6.73-3.52 11.05-5.04 11.64-4.22 21.16-5.9 32.08-6.26 11.9-.36 21.96-9.91 21.96-22.17s-10.01-22.58-21.96-22.17c-45.84 1.5-87.03 23.77-113.85 61.36-25.71 36.01-32.67 85.37-18.57 127.41 8.64 25.92 24.21 49.31 45.43 66.43 9.26 7.48 21.99 9.13 31.02 0 7.63-7.71 9.29-23.83 0-31.35m93.52 12.86c-16.61 5.82-32.98 7.55-50.37 5.43-11.82-1.4-21.96 11.2-21.96 22.22 0 13.14 10.11 20.72 21.96 22.17 20.75 2.46 42.27-.16 62.04-7.06 11.12-3.91 18.57-15.19 15.26-27.29-2.97-10.97-15.7-19.4-26.93-15.47m-217.36-65.4c-3.29-26.13-2.17-49.07 3.41-71.79 1.42-5.79 3.08-11.54 4.99-17.18.93-2.82 1.91-5.59 3.03-8.36l1.63-4.14c-1.47 3.52 1.32-2.79 1.32-2.79a208.487 208.487 0 0 1 17.38-30.66c1.66-2.41 3.36-4.84 5.1-7.17-1.66 2.2 2.48-3.05 3.41-4.14 4.22-5.07 8.64-9.93 13.35-14.59 9.57-9.47 15.57-14.38 25.33-21.01 21.47-14.54 39.5-22.3 64.67-27.89 33.37-7.42 68.92-4.55 102 7.14 11.18 3.93 23.98-4.5 26.96-15.5 3.34-12.24-4.11-23.33-15.31-27.29-63.07-22.25-134.78-14.93-192.08 19.87-47.94 29.13-84.15 76.06-100.79 130.05-9.44 30.66-12.26 63.61-8.2 95.46 1.5 11.85 9 22.2 21.91 22.2 10.68 0 23.44-10.24 21.91-22.22m214.87 155.79c-38.52 7.09-80.04 1.03-113.9-16.22-35.83-18.21-62.86-45.09-81.75-80.56-5.61-10.53-20.02-13.84-30.01-7.94-10.55 6.26-13.5 19.76-7.84 30.37 22.17 41.68 57.43 76.68 99.55 97.5 45.63 22.53 95.85 28.79 145.62 19.63 11.67-2.15 18.24-16.45 15.31-27.29-3.36-12.42-15.26-17.62-26.98-15.5" style="fill:#fff"/>
</svg>
