<svg xmlns="http://www.w3.org/2000/svg" viewBox="0 0 1024 1024">
   <circle cx="512" cy="512" r="512" style="fill:#1a285f"/>
   <path d="M779.76 464.95c-22.07-133.03-146.13-232.33-280.79-224.51-146.38 5.62-264.73 133.73-258.75 280.11 7.61 219.35 257.36 340 433.93 209.65 81.54-59.46 123.93-166.01 105.61-265.24Zm-216.2 114.24v69.51c-.1 3.99-.06 8.06-1.17 11.93-2.11 6.56-8.18 11.81-15.07 12.6-4.25.57-8.56.45-12.83.53-16.7-.03-33.4.07-50.1-.05-4.26-.13-8.7-.09-12.7-1.78-5.45-2.53-9.82-7.67-10.73-13.69-.68-4.43-.6-8.93-.61-13.4v-141.4c-.09-2.92 1.17-5.87 3.46-7.71 6.74-5.58 13.59-11.02 20.34-16.59 1.44-1.12 2.63-2.87 2.31-4.78-.16-1.86-1.67-3.11-3-4.21-6.47-5.31-13.01-10.54-19.47-15.86-2.26-1.8-3.67-4.62-3.64-7.52.16-25.9-.37-51.82.22-77.71.2-2.45.52-4.93 1.48-7.21 2.59-5.89 8.3-10.48 14.79-11.12 4.04-.52 8.13-.42 12.2-.49 16.96.03 33.93-.07 50.89.05 4.22.13 8.63.14 12.56 1.91 4.41 2.14 8.06 5.96 9.72 10.6 1.29 3.89 1.22 8.05 1.35 12.11v142.52c-.04 2.52.28 5.22-.92 7.55-.71 1.65-2.02 2.94-3.42 4.02-6.42 5.25-12.88 10.45-19.29 15.7-1.41 1.1-2.68 2.68-2.52 4.57 0 1.78 1.28 3.15 2.58 4.19 5.26 4.33 10.56 8.59 15.85 12.89 2.07 1.81 4.5 3.31 6.14 5.57 1.47 2.12 1.7 4.76 1.59 7.27Z" style="fill:#fff"/>
</svg>
