<svg xmlns="http://www.w3.org/2000/svg" viewBox="0 0 1024 1024">
   <circle cx="512" cy="512" r="512" style="fill:#00a59a"/>
   <path d="M288.52 287.36v449.78h448V287.36Zm87.67 170.24H438a.66.66 0 0 1 .58.35l2.15 4a.66.66 0 0 1 .05.5L426 513.36l-17.05 51.29a.66.66 0 0 1-.63.45h-50.4a.66.66 0 0 1-.65-.78l9.41-51 8.86-55.2a.66.66 0 0 1 .65-.56Zm110.06 0h62.25a.66.66 0 0 1 .58.35l2.16 4a.66.66 0 0 1 .05.5l-14.88 50.87-17.17 51.29a.66.66 0 0 1-.63.45h-50.19a.66.66 0 0 1-.65-.77l8.91-51 8.92-55.21a.66.66 0 0 1 .65-.56Zm113.93 0H662a.66.66 0 0 1 .59.35l2.15 4a.66.66 0 0 1 0 .5L650 513.36l-17.05 51.29a.66.66 0 0 1-.63.45h-50.4a.66.66 0 0 1-.65-.78l9.4-51 8.86-55.2a.66.66 0 0 1 .65-.56Z" style="fill:#fff"/>
</svg>
