<svg xmlns="http://www.w3.org/2000/svg" viewBox="0 0 1024 1024">
   <circle cx="512" cy="512" r="512" style="fill:#fcb400"/>
   <path d="M484.52 303.43 294 382.22c-10.73 4.45-10.47 19.37.26 23.82L485.82 482a69.67 69.67 0 0 0 52.35 0l191.61-76c10.73-4.19 10.73-19.37.26-23.82L539 303.43a70.16 70.16 0 0 0-54.45 0m44.24 220.14v189.78a12.79 12.79 0 0 0 17.54 11.78l213.6-83a12.45 12.45 0 0 0 8.07-11.76V440.59a12.79 12.79 0 0 0-17.54-11.78l-213.6 82.72a13.05 13.05 0 0 0-8.11 12M479 533.26l-63.35 30.63-6.52 3.11-133.76 64.15C267 635.34 256 629.06 256 619.64V441.38c0-3.4 1.83-6.28 4.19-8.64a12.3 12.3 0 0 1 3.14-2.36 13.59 13.59 0 0 1 11.52-.79L477.71 510c10.47 3.93 11.26 18.58 1.31 23.3" style="fill:#fff"/>
</svg>
