<svg xmlns="http://www.w3.org/2000/svg" viewBox="0 0 1024 1024">
   <circle cx="512" cy="512" r="512" style="fill:#009cde"/>
   <path d="M896 497.86c0 9.04-7.29 16.33-16.33 16.33s-16.33-7.29-16.33-16.33 7.29-16.33 16.33-16.33S896 488.82 896 497.86Zm-507.53-13.13 11.67 126.59h-34.42l-2.04-21.88v-.29h-45.79l-10.79 21.88h-35l65.05-126.3h51.34Zm-26.25 79.92-4.08-54.84h-.29l-27.13 54.84h31.5Zm147.59-42.29h-32.09l-24.5 33.25h-5.25l15.17-71.17h-28.88l-27.13 126.59h29.17l7.58-35.88h5.25l13.42 35.88h34.13l-21-46.09 34.13-42.59Zm86.05 33.25-11.67 55.42h-29.17l3.5-13.42h-.88c-4.96 12.25-18.38 14.29-28.58 14.29-20.42 0-30.92-4.96-26.25-27.42 4.38-21.29 16.92-28 37.92-28 8.46 0 21-.29 22.17 9.92h1.46l2.92-14c1.75-8.17 2.33-13.42-10.21-13.42-7 0-11.96 1.75-13.71 9.63h-29.17c5.83-27.71 25.96-27.42 46.67-27.42 29.75 0 41.42 3.79 35 34.42Zm-49 18.96c-7 0-12.83 1.17-14.58 9.33-2.04 9.63 6.13 9.63 10.5 9.63 11.96 0 16.04-1.46 18.08-10.79 1.75-7.58-4.67-8.17-14-8.17Zm174.13-53.09c-11.08 0-23.92 4.96-28.29 17.5h-1.46c1.75-15.46-10.5-17.5-23.04-17.5-9.92 0-21.29 2.92-27.13 13.42h-1.17l2.63-12.54h-28l-18.96 88.67h29.17l10.5-50.46c2.33-10.5 5.83-16.92 17.79-16.92 10.21 0 9.63 5.54 8.17 13.71l-11.38 53.67h29.17l10.5-50.46c2.04-9.33 5.83-16.92 17.21-16.92s9.63 6.71 8.17 16.04l-10.79 51.34h28.88l12.83-60.38c4.38-20.71-4.38-29.17-24.79-29.17Zm119.59 34.13-11.67 55.42h-29.17l3.79-13.42h-.88c-4.96 12.25-18.38 14.29-28.58 14.29-20.42 0-30.92-4.96-26.25-27.42 4.38-21.29 16.92-28 37.92-28 8.46 0 21-.29 22.17 9.92h1.46l2.92-14c1.46-8.17 2.33-13.42-10.5-13.42-7 0-11.96 1.75-13.71 9.63h-29.17c5.83-27.71 25.96-27.42 46.67-27.42 29.75 0 41.42 3.79 35 34.42Zm-49 18.96c-7 0-12.83 1.17-14.58 9.33-2.04 9.63 6.13 9.63 10.5 9.63 11.96 0 16.04-1.46 18.08-10.79 1.75-7.58-4.67-8.17-14-8.17Zm50.17 36.46h28.88l18.96-88.67h-29.17l-18.67 88.67ZM255.76 436.61c-3.21 2.63-2.04 4.38 2.04 2.63 32.38-14 72.92-14.58 112.59-.58 26.83 9.33 42.29 22.75 43.46 22.17 2.04-.88-15.46-28.88-47.54-41.13-38.79-14.58-80.21-7-110.55 16.92Zm-63.88 46.96c0 15.75 2.92 30.92 8.46 44.92 2.33 5.83 5.83 6.13 5.25.29-.29-4.08-.58-8.46-.58-12.83 0-68.55 55.71-124.26 124.26-124.26 64.75 0 84.3 28.88 86.63 27.13 2.63-2.04-23.63-59.5-99.76-59.5-68.55 0-124.26 55.71-124.26 124.26Zm95.09 158.09c-64.46-19.54-111.13-79.05-111.13-149.34s47.84-131.26 113.17-149.92c6.71-2.04 4.96-6.42-3.21-6.42-87.21 0-157.8 70-157.8 156.34s70.88 156.34 157.8 156.34c8.17 0 8.46-4.67 1.17-7Z" style="fill:#fff"/>
</svg>
