<svg xmlns="http://www.w3.org/2000/svg" viewBox="0 0 1024 1024">
   <circle cx="512" cy="512" r="512" style="fill:#003dff"/>
   <path d="M490.97 269.34c-132.53 0-240.56 106.85-242.47 238.94-1.95 134.13 106.89 245.29 241.04 246.06 41.44.25 81.34-9.88 116.77-29.15 3.45-1.87 3.99-6.62 1.05-9.23l-22.69-20.11c-4.62-4.08-11.18-5.25-16.85-2.82-24.73 10.53-51.61 15.89-79.32 15.57-108.39-1.34-195.99-91.53-194.25-199.92 1.7-107.02 89.29-193.57 196.71-193.57h196.75v349.7l-111.62-99.18c-3.61-3.21-9.14-2.58-12.06 1.28-17.92 23.72-47.11 38.48-79.53 36.23-44.97-3.11-81.41-39.3-84.77-84.26-4.03-53.61 38.47-98.53 91.24-98.53 47.74 0 87.04 36.75 91.14 83.44.36 4.16 2.23 8.03 5.36 10.8l29.08 25.78c3.3 2.92 8.53 1.13 9.35-3.21 2.1-11.2 2.82-22.9 2-34.86-4.67-68.27-59.99-123.2-128.29-127.42-78.3-4.83-143.79 56.44-145.87 133.24-2.02 74.83 59.28 139.34 134.13 141 31.25.69 60.2-9.14 83.61-26.16l145.85 129.29c6.26 5.53 16.12 1.11 16.12-7.25V278.55c0-5.08-4.12-9.2-9.2-9.2H490.94Z" style="fill:#fff"/>
</svg>
