<svg xmlns="http://www.w3.org/2000/svg" viewBox="0 0 1024 1024">
   <path d="M512 0c282.77 0 512 229.23 512 512s-229.23 512-512 512S0 794.77 0 512 229.23 0 512 0Z" style="fill:#003dff"/>
   <path d="M491 269.34c-132.53 0-240.56 106.85-242.47 238.94-1.95 134.13 106.89 245.29 241 246.06a240.57 240.57 0 0 0 116.77-29.15 5.68 5.68 0 0 0 1-9.23l-22.69-20.11a16 16 0 0 0-16.79-2.85 196.08 196.08 0 0 1-79.32 15.57c-108.39-1.34-196-91.53-194.25-199.92C296 401.64 383.55 315.1 491 315.1h196.72v349.7L576.1 565.62a8.24 8.24 0 0 0-12.1 1.27 91.4 91.4 0 0 1-79.53 36.23c-45-3.11-81.41-39.3-84.77-84.26a91.51 91.51 0 0 1 182.39-15.09 16.23 16.23 0 0 0 5.36 10.8l29.08 25.78a5.69 5.69 0 0 0 9.35-3.21 137.91 137.91 0 0 0 2-34.86c-4.67-68.27-60-123.2-128.29-127.42-78.3-4.83-143.79 56.44-145.87 133.24-2 74.83 59.28 139.34 134.13 141A136.53 136.53 0 0 0 571.5 623l145.85 129.24a9.69 9.69 0 0 0 16.12-7.24V278.54a9.2 9.2 0 0 0-9.2-9.2H491Z" style="fill:#fff"/>
</svg>
