<svg xmlns="http://www.w3.org/2000/svg" viewBox="0 0 1024 1024">
   <circle cx="512" cy="512" r="512" style="fill:#70c6be"/>
   <path d="M516.67 248.24c5.59-.64 11.4.61 16.07 3.8 7.03 4.54 12.01 11.48 16.22 18.58 19.09 31.99 38.3 63.9 57.37 95.9 25.4 42.78 50.81 85.56 76.14 128.39 17.53 29.62 35.1 59.23 52.75 88.78 11.62 19.74 23.61 39.28 34.72 59.32 4.79 8.39 7.42 18.07 7.02 27.76-.28 7.49-1.64 15.18-5.57 21.67-5.52 9.15-14.76 15.61-24.78 18.98-5.35 1.92-10.96 3.23-16.66 3.24-62.22-.02-124.43.02-186.65.01-5.35-.14-10.79-.75-15.81-2.69-3.67-1.57-7.29-3.49-10.16-6.31-4.9-4.85-8.08-11.74-7.23-18.73.44-4.89 1.64-9.7 3.65-14.18 1.95-4.59 4.7-8.78 7.08-13.15 10.41-18.56 21.3-36.84 32.64-54.85 3.63-5.67 6.79-11.79 11.81-16.4 5.34-4.89 12.04-8.72 19.38-9.22 5.9-.24 11.7 1.8 16.62 4.96 5.55 3.25 9.92 8.67 11.38 14.99 2.11 8-.16 16.4-3.55 23.71-3.8 8.3-9.23 15.83-12.14 24.53-.53 1.98-1.25 4.48.23 6.22 1.5 1.41 3.58 1.97 5.53 2.45 5.64 1.26 11.46.93 17.2.97h63.48c4.19-.07 8.38.14 12.57-.1 3.02-.35 6.32-.84 8.67-2.95 1.55-1.37 1.74-3.69 1.16-5.57-1.29-4.17-3.51-7.96-5.7-11.7-56.42-96.35-112.52-192.88-169.53-288.89-1.86-3.08-3.46-6.43-6.13-8.92-1.32-1.26-3.27-1.98-5.06-1.46-1.53.55-2.56 1.89-3.58 3.09-2.51 3.2-4.76 6.61-6.82 10.12-9.82 15.96-19.22 32.18-28.85 48.26-55.44 93.3-110.88 186.6-166.31 279.9-3.44 6.33-7.1 12.54-11.08 18.54-3.5 5.15-7.75 9.98-13.23 13.09-6.46 3.73-14.43 5.21-21.67 3.08-5.28-1.63-10.39-4.29-14.17-8.39-4.79-4.74-6.91-11.68-6.66-18.31.24-6.99 2.58-13.8 6.1-19.8 33.66-57.17 67.53-114.22 101.53-171.19 17.49-29.53 34.9-59.1 52.49-88.57 17.79-29.86 35.63-59.69 53.34-89.59 9.88-16.84 19.84-33.65 30.22-50.19 3.19-5.24 7.33-9.94 12.3-13.57 4.08-2.78 8.66-5.17 13.66-5.61Zm-2.83 220.99c8.38-1.35 17.27.65 24.22 5.54 5.28 4.07 8.94 10.18 10 16.76.72 5.02.23 10.23-1.62 14.97-1.42 4.1-3.46 7.97-5.72 11.67-32.33 54.35-64.65 108.7-96.99 163.04-4.14 6.8-7.91 13.86-12.68 20.25-3.47 4.28-7.8 7.92-12.79 10.29-10.57 5.63-24.35 2.2-32.39-6.27-4.07-4.09-6.46-9.7-6.77-15.44-.46-5.94.85-11.95 3.54-17.25 2.37-5.15 5.16-10.09 8.08-14.94 14.21-23.9 28.29-47.89 42.46-71.81 19.39-32.9 39.1-65.62 58.61-98.45 2.07-3.73 4.66-7.18 7.57-10.3 3.92-3.98 8.89-7.19 14.48-8.07Z" style="fill:#fff"/>
</svg>
