<svg xmlns="http://www.w3.org/2000/svg" viewBox="0 0 1024 1024">
   <circle cx="512" cy="512" r="512" style="fill:#e2003d"/>
   <path d="M369.93 319h366l.87.9q-28.35 165.26-56.64 330.56 50.31 29.62 100.37 59.76-237.08.27-474.17.11c-8.73.09-17.65-2.2-24.58-7.66-7.43-5.68-11.7-14.59-13.25-23.66v-14.9c17.47-99.91 34.54-199.92 51.88-299.87 3.88-24 26.15-41.89 49.52-45.24zm70.25 140.51q-8.66 50.69-17.49 101.36c-1.23 5.34.41 11.83 5.39 14.71 4.08 2.47 9 1.6 13.54 1.77q59.4-.08 118.78 0c7.68-44.79 15.51-89.56 23.17-134.37-41.28.05-82.55 0-123.83 0-9.3-.14-18.28 7.24-19.56 16.53z" style="fill:#fff"/>
</svg>
