<svg xmlns="http://www.w3.org/2000/svg" viewBox="0 0 1024 1024">
   <circle cx="512" cy="512" r="512" style="fill:#ff5a00"/>
   <path d="M813.08 475.81a57 57 0 0 0-90 0 61.93 61.93 0 0 0 0 69.59 57 57 0 0 0 90 0 61.93 61.93 0 0 0 0-69.59zm-17.83 47.84c-4.09 12.22-13.79 21.75-27.23 22.05s-23.14-9.83-27.18-22.05a40.32 40.32 0 0 1 0-26.1c4.09-12.22 13.79-21.75 27.18-22.05s23.14 9.83 27.23 22.05a40.36 40.36 0 0 1 0 26.05zm-409.92 40.88a3.22 3.22 0 0 1-3.22 3.22h-18.7a3.22 3.22 0 0 1-3.22-3.22V410.79a3.22 3.22 0 0 1 3.22-3.22h18.7a3.22 3.22 0 0 1 3.22 3.22zm-43.93 0a3.22 3.22 0 0 1-3.22 3.22h-18.7a3.22 3.22 0 0 1-3.22-3.22V410.79a3.22 3.22 0 0 1 3.18-3.22h18.7a3.22 3.22 0 0 1 3.22 3.22v153.74zm366.73-104.38v13a3.39 3.39 0 0 1-4.35 3.7c-21.14-4.35-34.14 5-34.14 24.57v63.07a3.22 3.22 0 0 1-3.22 3.22h-18.7a3.22 3.22 0 0 1-3.22-3.22v-64.37a43.49 43.49 0 0 1 13.79-32.58 48.54 48.54 0 0 1 34.23-13.83 72.59 72.59 0 0 1 13 1.22c2.22.74 2.57 2 2.57 5.39zm-80.07 50.41a58.32 58.32 0 0 0-10.7-34.79 57 57 0 0 0-90 0 61.19 61.19 0 0 0 0 69.59 55.37 55.37 0 0 0 45 22.05 57.41 57.41 0 0 0 32.05-9.66v13.74c0 18.66-16.31 22.05-26.75 22.7a122.91 122.91 0 0 1-21.49-1.19c-2.87-.43-4.87 0-4.87 3.09v16.53a2.83 2.83 0 0 0 3 2.7c24.23 2.09 40.54 1.65 52.8-5.35a39.93 39.93 0 0 0 17.88-22.75 76.07 76.07 0 0 0 3.09-22.7v-54zm-55.71 35.06c-13.44 0-23.14-9.83-27.23-22.05a40.32 40.32 0 0 1 0-26.1c4.09-12.22 13.79-22.05 27.23-22.05 30.05 0 31.05 30.66 31.05 35.1s-1 35.1-31.05 35.1zm-273.23-46.33c0-14.83-3.31-26.1-10.44-33.88s-21.49-11.66-34.79-11.66a75.42 75.42 0 0 0-38.06 10.13 2.39 2.39 0 0 0-1.17 2.09l1 16.35a2.91 2.91 0 0 0 4.78 1.7c16.31-10 35.88-11.92 45.84-6.87a17.4 17.4 0 0 1 8.7 15.7v2.39H247.8c-11.7 0-47.54 4.35-47.54 37.27v.35a31.92 31.92 0 0 0 11.61 26.44 45.93 45.93 0 0 0 29.05 8.31h55a3.22 3.22 0 0 0 3.22-3.22v-65.23zM275 547.53h-32.51a20.09 20.09 0 0 1-11.53-4 12.79 12.79 0 0 1-5.44-10.7c0-5.87 4-17.61 23.75-17.61H275zm179.19-93.77c-33.27 0-47.84 22.31-52.5 41.19a63.41 63.41 0 0 0-1.91 15.57 59.15 59.15 0 0 0 10.7 34.79 57.11 57.11 0 0 0 45 22.05c18 .65 30-2.39 39.14-7.61a5.09 5.09 0 0 0 2.17-5.52v-14.49c0-3-1.78-4.35-4.35-2.57a56.76 56.76 0 0 1-36.19 8.7 29.62 29.62 0 0 1-29.05-26.4h73.94a3 3 0 0 0 3-3c1.36-20.22-4.51-62.71-49.96-62.71zm-26.59 45.71a25.14 25.14 0 0 1 26.24-24h.37a22.36 22.36 0 0 1 23.66 24z" style="fill:#fff"/>
</svg>
