<svg xmlns="http://www.w3.org/2000/svg" viewBox="0 0 1024 1024">
   <circle cx="512" cy="512" r="512" style="fill:#08c7d3"/>
   <path d="M420.68 257.48c-7.79 2.37-15.24 8.64-18.46 15.92-3.05 6.6-3.22 15.07-3.22 185.27 0 98.22.51 178.15 1.35 177.81.68-.34 8.64-4.74 17.61-9.82l16.43-9.31 1.02-320.91 143.95 83.15c79.25 45.72 144.96 83.66 146.15 84.34 1.35.85-3.05 4.06-12.36 9.31-7.96 4.4-14.39 8.64-14.39 9.48 0 .68 7.62 5.76 17.1 11.01l17.1 9.65 7.45-3.89c20.49-11.01 26.25-17.61 27.44-30.82.85-11.35-1.69-19.65-7.79-25.23-5.93-5.59-315.33-184.08-322.61-186.11-6.27-1.86-10.5-1.69-16.77.17Zm-85.17 48.78c-8.47 4.06-15.58 12.19-16.94 19.48-.51 3.05-.68 88.91-.51 191.02l.51 185.61 4.74 6.1c6.43 8.47 13.72 12.02 24.89 12.02 9.15 0 10.67-.85 163.08-88.74 84.51-48.77 153.43-89.41 153.09-90.26-.85-2.88-32.18-19.98-34.89-19.31-1.52.51-64.01 36.24-139.03 79.59l-136.33 78.75-.51-84.67c-.17-46.57-.17-122.27 0-168.33l.51-83.66 13.04 7.62c7.11 4.23 13.89 7.62 14.9 7.62s1.69-7.28 1.69-19.98v-19.98l-12.87-7.45c-15.24-8.81-25.06-10.16-35.39-5.42Zm114.3 72.82v19.98l138.87 80.1 138.7 80.27-291.96 168.5-.51-16.77c-.17-9.14-1.02-16.76-1.52-16.76s-8.47 4.4-17.78 9.65l-16.6 9.65v15.24c0 12.02.68 16.77 3.56 22.69 6.1 12.53 21.17 19.14 34.55 15.24 4.06-1.19 78.07-43.01 164.27-92.8 117.53-67.74 158.17-91.96 161.39-96.36 3.39-4.4 4.57-8.13 5.08-16.26.68-11.35-1.35-17.44-8.47-24.05-4.23-4.06-305.33-178.32-308.04-178.32-.85 0-1.52 8.47-1.52 19.98Z" style="fill:#fff"/>
</svg>
