<svg xmlns="http://www.w3.org/2000/svg" viewBox="0 0 1024 1024">
   <circle cx="512" cy="512" r="512" style="fill:#00b3e0"/>
   <path d="M512 256c140.8 0 256 115.2 256 256S652.8 768 512 768 256 652.8 256 512s115.2-256 256-256zm62.7 305.9c28.2-35.8 24.3-87-11.5-113.9-34.6-26.9-85.8-20.5-115.2 15.4-28.2 35.8-24.3 87 11.5 113.9 35.9 26.9 87.1 20.5 115.2-15.4zM437.8 728.3c15.4 6.4 48.6 12.8 65.3 12.8l111.4-161.3c35.8-53.8 26.9-126.7-23-166.4-44.8-35.8-107.5-34.6-152.3 0l-154.9 119c3.8 41 15.4 61.4 15.4 62.7l88.3-96c-6.4 42.2 9 85.8 44.8 112.6 30.7 24.3 67.8 30.7 103.7 23l-98.7 93.6z" style="fill:#fff"/>
</svg>
