<svg xmlns="http://www.w3.org/2000/svg" viewBox="0 0 1024 1024">
   <circle cx="512" cy="512" r="512" style="fill:#1793d1"/>
   <path d="M512 236c-22.79 55.87-36.53 92.42-61.91 146.63 15.56 16.49 34.65 35.69 65.66 57.38-33.34-13.72-56.08-27.49-73.07-41.78C410.16 466 359.29 562.5 256 748c81.14-46.84 144-75.73 202.66-86.75a148.56 148.56 0 0 1-3.85-34.76l.1-2.6c1.29-52 28.33-92 60.37-89.25s56.94 47.08 55.65 99.07a146.85 146.85 0 0 1-3.27 27.92C625.68 673 687.91 701.79 768 748c-15.78-29.06-29.87-55.25-43.32-80.2-21.19-16.42-43.29-37.8-88.38-60.94 31 8.05 53.18 17.34 70.47 27.73C569.94 379.92 558.86 346.08 512 236Z" style="fill:#fff"/>
</svg>
