<svg xmlns="http://www.w3.org/2000/svg" viewBox="0 0 1024 1024">
 <circle cx="512" cy="512" r="512" style="fill:#007377"/>
 <path d="m524.67 976.18c7.4484-3.5726 12.777-9.6503 15.052-17.166 1.6911-5.5901 1.7361-7.8189 1.5141-75.172l-0.22873-69.411-28.648-19.803c-15.756-10.892-28.942-19.803-29.304-19.803-1.1114 0-0.80192 175.49 0.31872 180.77 1.3386 6.3159 3.658 10.582 8.2478 15.172 8.8753 8.8753 21.51 10.943 33.048 5.4094zm75.812-94.112c31.21-13.322 56.426-33.709 66.675-53.905 4.3542-8.5804 5.8072-15.073 5.8159-25.987 0.0128-11.595-1.4484-17.436-7.0415-28.219-7.2521-13.98-25.213-33.226-41.635-44.616-4.7411-3.2882-46.226-31.95-92.189-63.694l-83.57-57.715v-47.174c0-27.176-0.3328-47.38-0.7849-47.66-1.4167-0.8756-18.497 5.5967-31.775 12.041-33.862 16.434-54.74 36.148-62.592 59.105-3.2906 9.621-3.493 22.956-0.4942 32.559 5.5091 17.644 21.176 38.017 40.111 52.165 3.5625 2.6615 46.232 32.292 94.822 65.844l88.346 61.005v95.296l8.4655-2.9481c4.656-1.6215 11.786-4.3657 15.845-6.0983zm-59.052-311.94-0.0128-57.956-28.346-19.535c-15.59-10.745-28.873-19.662-29.517-19.818-0.9751-0.23497-1.1336 9.4163-0.94758 57.729l0.2231 58.011 28.649 19.763c15.757 10.87 28.943 19.763 29.304 19.763 0.36032 0 0.6505-26.08 0.64474-57.956zm45.327 14.894c12.522-4.3684 33.28-14.669 44.293-21.979 10.416-6.914 23.107-18.509 29.518-26.97 11.298-14.908 15.389-33.213 11.14-49.832-4.3553-17.029-19.195-37.285-38.668-52.783-5.1976-4.1366-56.988-40.088-159.96-111.04l-24.515-16.891-0.0128-47.537c-0.0128-46.765-0.0422-47.537-1.7298-47.537-2.6627 0-17.59 5.7612-29.107 11.234-54.06 25.687-77.033 61.51-62.917 98.111 5.6928 14.762 22.232 34.746 39.127 47.273 4.5839 3.3992 47.444 33.139 95.246 66.09l86.912 59.909 0.0448 47.537c0.0256 29.16 0.36109 47.537 0.86336 47.537 0.45017 0 4.8457-1.4048 9.7678-3.1218zm-45.317-354.75v-95.66l5.9562-6.1435c9.7738-10.081 14.258-21.055 14.211-34.779-0.0704-20.742-12.859-38.879-32.756-46.456-3.7882-1.4428-7.6969-2.0954-14.326-2.3918-15.786-0.70604-26.13 3.3052-37.409 14.506-9.9525 9.8838-14.685 21.087-14.685 34.76 0 13.146 4.5969 24.374 13.972 34.129l5.9978 6.2404v151.35l28.869 20.001c15.878 11.001 29.162 20.026 29.521 20.054 0.35814 0.0296 0.65126-42.994 0.65126-95.607zm50.552 43.643c44.628-11.42 66.307-24.159 70.112-41.201 1.1841-5.3028-0.57766-12.968-4.3113-18.758-5.245-8.1344-29.91-30.403-38.454-34.717-2.7604-1.394-7.2538-2.9998-9.985-3.5686-5.6511-1.1766-20.413-0.66548-28.192 0.97624l-4.9925 1.0536v49.805c0 43.277 0.16768 49.805 1.2783 49.805 0.70311 0 7.2476-1.5274 14.543-3.3943z" style="fill:#fff"/>
</svg>
