<svg xmlns="http://www.w3.org/2000/svg" viewBox="0 0 1024 1024">
   <circle cx="512" cy="512" r="512" style="fill:#4e5453"/>
   <path d="M224.88 500.98h-17.86c-3.17 0-6.34 1.16-9.4 3.28-3.06 2.22-4.76 4.86-5.28 7.93l-1.48 9.19c-.63 4.12.63 7.93 3.91 11.2 3.17 3.38 6.97 5.07 11.2 5.07h12.58l6.34-36.67Zm34.03-19.87-12.58 75.45h-55.58c-8.56 0-15.85-2.96-21.77-8.98-5.92-5.92-8.98-13.21-8.98-21.77 0-1.27.11-2.75.42-4.54l2.32-14.16c4.54-16.27 14.58-24.31 30.01-24.31h35.61c.74-4.65-.42-8.88-3.59-12.79s-7.08-5.81-11.84-5.81H178.9l2.96-17.86h46.6c8.24 0 15.43 2.96 21.45 8.98 6.02 5.92 9.09 13.1 9.09 21.35.11 2.01 0 3.49-.11 4.44m116.14-34.98-3.17 17.86h-48.4c-8.45 0-13.42 4.12-14.9 12.47l37.83 23.04c9.93 6.02 14.9 14.69 14.9 26 0 9.93-3.7 17.96-10.99 23.88-5.92 4.76-12.58 7.19-19.76 7.19h-65.83l2.96-18.81h48.4c8.67 0 13.84-4.44 15.43-13.31l-38.36-21.35c-9.83-5.5-14.69-13.95-14.69-25.26 0-9.09 2.85-16.59 8.56-22.51 5.71-5.92 13.1-8.98 22.09-8.98h65.94v-.21Zm110.11 0-14.48 85.38c-1.27 6.87-4.86 12.79-10.78 17.65s-12.47 7.4-19.44 7.4h-29.91c-8.56 0-15.85-2.96-21.66-8.67-5.92-5.81-8.77-13-8.77-21.56 0-1.69.21-3.49.42-5.28l12.36-74.82h30.65l-11.94 73.55c-.21.95-.32 1.8-.32 2.75 0 4.44 1.48 8.03 4.54 10.88s6.76 4.23 11.2 4.23c8.24 0 13.1-4.23 14.48-12.79l12.68-78.73h30.96Zm105.46 0-3.17 17.86h-43.75c-8.45 0-13.42 4.12-14.9 12.47l37.83 23.04c9.93 6.02 14.9 14.69 14.9 26 0 9.93-3.7 17.96-10.99 23.88-5.92 4.76-12.58 7.19-19.76 7.19h-65.83l2.96-18.81h48.4c8.67 0 13.84-4.44 15.32-13.31l-38.36-21.35c-9.83-5.5-14.69-13.95-14.69-25.26 0-9.09 2.85-16.59 8.67-22.51 5.71-5.92 13.1-8.98 22.09-8.98h61.29v-.21Zm84.01 0-3.17 17.86h-30.96l-9.09 55.69c0 .95-.11 1.8-.11 2.75 0 4.12 1.48 7.71 4.65 10.67 3.06 2.96 6.66 4.44 10.78 4.44h12.36l-2.96 18.81h-25.04c-8.56 0-15.85-2.96-21.66-8.98-5.92-5.92-8.88-13.21-8.88-21.77 0-1.9.21-3.7.42-5.5l15.64-92.68h30.22l-3.06 18.6h30.86v.11Zm95.63 8.77c-6.02-5.81-13.21-8.77-21.66-8.77h-29.8c-7.19 0-13.74 2.22-19.55 6.55-5.81 4.44-9.3 10.14-10.57 17.22l-8.24 50.2c-.32 1.8-.42 3.7-.42 5.5 0 8.56 2.96 15.85 8.88 21.77 5.92 5.92 13.1 8.98 21.66 8.98h29.38c7.29 0 13.95-2.54 19.87-7.61s9.41-11.2 10.67-18.39l8.45-48.82c.32-1.69.53-3.49.53-5.5-.11-8.24-3.17-15.32-9.19-21.13Zm-13 26.63-7.29 42.9c-1.48 8.88-6.66 13.31-15.22 13.31-4.33 0-7.93-1.37-10.88-4.12-2.96-2.75-4.02-6.13-4.02-10.46 0-.95.32-3.17.32-3.17l7.08-42.9c1.37-8.45 6.13-12.68 14.16-12.68 4.76 0 10.88.74 14.27 4.02 3.28 3.38 2.32 8.35 1.59 13.1Zm106.73-35.4-3.06 17.86h-17.96c-8.77 0-13.84 4.33-15.22 13l-12.47 79.57h-30.43l13.95-86.02c1.06-7.08 4.54-13 10.46-17.54 5.92-4.54 12.47-6.87 19.66-6.87h35.08Z" style="fill:#fff"/>
</svg>
