<?xml version="1.0" encoding="UTF-8"?>
<svg id="Layer_1" xmlns="http://www.w3.org/2000/svg" version="1.1" viewBox="0 0 1024 1024">
  <!-- Generator: Adobe Illustrator 30.2.1, SVG Export Plug-In . SVG Version: 2.1.1 Build 1)  -->
  <defs>
    <style>
      .st0 {
        fill: #fff;
        fill-rule: evenodd;
      }

      .st1 {
        fill: #396aff;
      }
    </style>
  </defs>
  <circle class="st1" cx="512" cy="512" r="512"/>
  <g id="svg单独">
    <g id="_编组-11备份" data-name="编组-11备份">
      <path id="Fill-14" class="st0" d="M512,767.28c-130.87-68.95-220.11-206.29-220.11-364.5,0-4,.1-7.97.21-11.94l219.93-134.11,219.86,134.11c.11,3.97.21,7.95.21,11.94,0,158.2-89.24,295.54-220.11,364.5M787.65,360.12h0l-275.61-168.12-275.69,168.12c-.14,4.98-.26,9.96-.26,14.98,0,198.32,111.86,370.47,275.91,456.91,164.05-86.44,275.91-258.59,275.91-456.91,0-5.01-.12-10-.26-14.98"/>
      <path id="Fill-16" class="st0" d="M561.23,336.12l-48.8,90.62,56.26,102.59-56.29,88.71-56.28-88.71,56.26-102.59-47.77-91.12-122.4,80.62v9.53c0,123.48,69.46,230.62,171.6,284.19,102.15-54.02,171.6-161.16,171.6-284.19v-9.53l-124.19-80.12Z"/>
    </g>
  </g>
</svg>