<svg xmlns="http://www.w3.org/2000/svg" viewBox="0 0 1024 1024">
   <circle cx="512" cy="512" r="512" style="fill:#00b451"/>
   <path d="M284.76 480.13V267.41A11.39 11.39 0 0 1 296.11 256h6.28a11.41 11.41 0 0 1 11.29 10.55l5.06 59.45a4.68 4.68 0 0 0 9.23 1l5.25-60.41A11.4 11.4 0 0 1 344.51 256h14.67a11.34 11.34 0 0 1 11.22 10.07l5.53 60a4.79 4.79 0 0 0 9.4 1l5.56-60.54A11.38 11.38 0 0 1 402.21 256h14.65a11.4 11.4 0 0 1 11.28 10.61l5.44 59.39a4.74 4.74 0 0 0 4.78 4.52 4.66 4.66 0 0 0 4.63-3.48l5.61-60.86A11.32 11.32 0 0 1 459.87 256h14.65a11.47 11.47 0 0 1 11.34 10.49l1.61 18.64h-5.93A17.36 17.36 0 0 0 464 302.41l.07.74 46.34 188.38H296.29A11.44 11.44 0 0 1 285 480.32Zm403.87-152.26 67.42-4.9a11.31 11.31 0 0 0 10.49-11v-6.26a11.26 11.26 0 0 0-11.42-11H487.7a11.26 11.26 0 0 0-11.42 10.73l47.31 190.37v.06l4.94 19.88L735 464.65l.74-.14a17.43 17.43 0 0 1 17.2 17.59v9.71l3.14-.29a11.21 11.21 0 0 0 10.49-11v-14.34a11.22 11.22 0 0 0-10.21-11l-68.71-5.47a4.73 4.73 0 0 1 1-9.32l67.35-5.31a11.24 11.24 0 0 0 10.54-11v-14.4a11.29 11.29 0 0 0-10.49-11l-68.42-5.41a4.76 4.76 0 0 1 1-9.37l67.8-5.37a11.16 11.16 0 0 0 10.14-11v-14.26a11.18 11.18 0 0 0-10.59-11l-68.29-5.16a4.67 4.67 0 0 1 .94-9.22m44.24 148.91-203.25 51.42L578 726.74a14.2 14.2 0 0 1-3 11.71c-3.2 3.76-8.54 6-14.35 6h-12.46l1 12.95c.43 5.89 5.18 10.56 10.8 10.56h14.17A11.1 11.1 0 0 0 585 757.7l5.4-69.05A4.64 4.64 0 0 1 595 685a4.71 4.71 0 0 1 4.69 4.62l5.3 67.65c.41 6 5.19 10.69 10.83 10.69H630c5.63 0 10.38-4.63 10.86-10.56l5.34-68.78a4.66 4.66 0 0 1 4.56-3.61 4.77 4.77 0 0 1 4.71 4.62l5.32 68.2A11 11 0 0 0 671.53 768h14.18c5.64 0 10.44-4.67 10.83-10.69l5.11-68.66a4.56 4.56 0 0 1 4.45-3.65 4.68 4.68 0 0 1 4.62 4.62l4.85 67.73c.46 5.93 5.23 10.61 10.86 10.61h6.07c6 0 10.9-5.2 10.9-11.52V488.23a11.2 11.2 0 0 0-10.55-11.43M567 731a7.88 7.88 0 0 0 1.67-6.61l-50.2-199.99h-.06l-5.18-20.57H294.44a17.75 17.75 0 0 1-17.38-14.1h-8.11a11.27 11.27 0 0 0-11.52 11v6.16a11.26 11.26 0 0 0 10.3 11l69.42 5.56a4.6 4.6 0 0 1 3.65 4.55 4.77 4.77 0 0 1-4.62 4.76L268 538a11.32 11.32 0 0 0-10.56 11v14.32a11.24 11.24 0 0 0 10.3 11l69.47 5.43a4.73 4.73 0 0 1 3.61 4.6 4.8 4.8 0 0 1-4.59 4.77l-68.12 5.32a11.35 11.35 0 0 0-10.63 11v14.34a11.28 11.28 0 0 0 10.56 11l68.28 5.33.91.1a4.77 4.77 0 0 1-1 9.4L267.6 651a11.21 11.21 0 0 0-10.17 11v14.32a11.31 11.31 0 0 0 10.69 11l69 5.18a4.58 4.58 0 0 1 3.68 4.5 4.76 4.76 0 0 1-4.62 4.7L268 706.54a11.38 11.38 0 0 0-10.56 11.05v6.17a11.3 11.3 0 0 0 11.52 11h288.11c4.05 0 7.87-1.42 9.93-3.82" style="fill:#fff"/>
</svg>
