<svg xmlns="http://www.w3.org/2000/svg" viewBox="0 0 1024 1024">
   <circle cx="512" cy="512" r="512" style="fill:#061124"/>
   <path d="M176.6 556.69a35.85 35.85 0 0 1-19.6-5.32 31.47 31.47 0 0 1-12.19-15.2V554H128V443h21.18v41.81a30.31 30.31 0 0 1 11.88-11.86 34.48 34.48 0 0 1 16.91-4.1 35.48 35.48 0 0 1 20 5.62 36.85 36.85 0 0 1 13.26 15.05 46.85 46.85 0 0 1 4.72 21.29V514a47.85 47.85 0 0 1-4.95 21.71 39.31 39.31 0 0 1-13.71 15.36q-8.65 5.62-20.69 5.62Zm-4.72-17.79q10.21 0 16.46-7.3 6.4-7.45 6.4-19.16t-6.4-18.69q-6.25-7.13-16.46-7.14a23.94 23.94 0 0 0-11.57 2.88 21 21 0 0 0-8.54 8.06 23.52 23.52 0 0 0-3.21 12.61v6.08a22.14 22.14 0 0 0 3.36 12.32 22.78 22.78 0 0 0 8.68 7.75 25.46 25.46 0 0 0 11.28 2.59ZM258 556.08q-13.71 0-21.93-7t-8.07-19.6q0-13.53 9.75-19.92 9.91-6.53 26.51-6.54h16.91v-.76q0-14.14-14.32-14.14-10 .06-20 .61-5.34.16-9.6.46v-17.94q12.85-1 25.75-1.07 19 0 28.64 7.76 9.76 7.6 9.75 24.78V554h-16.73v-15.86Q279 556.09 258 556.08Zm5.93-15.08a21.51 21.51 0 0 0 8.08-1.53 14.07 14.07 0 0 0 6.24-5.47q2.59-4 2.9-10.64v-7.76h-17.21q-7.32 0-11.28 3.65a11.8 11.8 0 0 0-3.81 9.12 12 12 0 0 0 3.81 9.27c2.65 2.23 6.4 3.34 11.27 3.34Zm96.89 15.81a44.48 44.48 0 0 1-18.74-3.65 37.47 37.47 0 0 1-13.1-9.73 41.62 41.62 0 0 1-7.78-13.68 47.77 47.77 0 0 1-2.59-15.5v-2.89a48.64 48.64 0 0 1 2.59-15.81 43.49 43.49 0 0 1 7.92-13.83 37.8 37.8 0 0 1 13.1-9.58 43.71 43.71 0 0 1 18.44-3.65 41.83 41.83 0 0 1 19.2 4.26 33.53 33.53 0 0 1 13.56 11.56 34.4 34.4 0 0 1 5.94 17.33H378.8a17.49 17.49 0 0 0-5.49-10.64q-4.58-4.26-12.65-4.26-10.66 0-15.84 7.3t-5 18.7q0 11.09 4.88 18.54 5 7.3 16.14 7.3 8.24 0 13-4.26a17.26 17.26 0 0 0 5.78-11.1h20.57a33.55 33.55 0 0 1-5.94 17.63 35.12 35.12 0 0 1-13.87 11.87 45.14 45.14 0 0 1-19.5 4.1Zm56.27-2.81V443h21.18v68.26l31.84-39.83h22.09L464 506.52 498.9 554H475l-27.73-38.61h-9V554h-21.18Zm87.79-23v-23.41l43.57-67.66 16.3 11.1-38.39 59.9 1.83 3h34.89v-39.49h20V514h13.41v17H583v23h-20v-23Zm130.58 25.08q-13.71 0-21.94-7-8.07-7-8.07-19.61 0-13.53 9.75-19.92t26.51-6.55h16.91v-.76q0-14.14-14.33-14.14-10 .06-20 .61-5.33.16-9.6.46v-17.92q5.18-.45 12.34-.76 7.32-.3 13.41-.31 19 0 28.64 7.76 9.75 7.6 9.75 24.78V554h-16.71v-15.86q-5.64 17.95-26.66 17.94ZM641.4 541a21.53 21.53 0 0 0 8.08-1.53 14.07 14.07 0 0 0 6.24-5.47q2.59-4 2.9-10.64v-7.76H641.4q-7.32 0-11.27 3.65a11.78 11.78 0 0 0-3.81 9.12 12 12 0 0 0 3.81 9.27q4 3.34 11.27 3.34Zm60.16 43.33v-113h16.76V492q3.8-11.55 12.49-17.33a34.53 34.53 0 0 1 20-5.92q11.74 0 20.26 5.62a38.58 38.58 0 0 1 13.56 15.2 45.6 45.6 0 0 1 4.88 21.29v3.19a48.77 48.77 0 0 1-4.72 21.59A38.57 38.57 0 0 1 771.38 551q-8.67 5.62-20.57 5.62a39.63 39.63 0 0 1-16-3.19 28.45 28.45 0 0 1-12-10.49v41.35Zm43.88-45.46q10.21 0 16.45-7.3 6.41-7.45 6.4-19 0-11.71-6.4-18.85-6.24-7.14-16.45-7.14a24 24 0 0 0-11.58 2.88 21 21 0 0 0-8.53 8.06 23.52 23.52 0 0 0-3.21 12.61v6.08a22.13 22.13 0 0 0 3.35 12.32 22.85 22.85 0 0 0 8.69 7.75 25.46 25.46 0 0 0 11.28 2.62Zm62.65 45.46v-113h16.76V492q3.8-11.55 12.49-17.33a34.56 34.56 0 0 1 20-5.92q11.74 0 20.26 5.62a38.56 38.56 0 0 1 13.56 15.2 45.6 45.6 0 0 1 4.84 21.36v3.19a48.77 48.77 0 0 1-4.72 21.59 38.57 38.57 0 0 1-13.41 15.36q-8.69 5.62-20.57 5.62a39.55 39.55 0 0 1-16-3.19 28.49 28.49 0 0 1-12-10.49v41.35h-21.2ZM852 538.9q10.21 0 16.45-7.3 6.41-7.45 6.4-19 0-11.71-6.4-18.85-6.24-7.14-16.45-7.14a24 24 0 0 0-11.58 2.88 21 21 0 0 0-8.53 8.06 23.52 23.52 0 0 0-3.21 12.61v6.08a22.14 22.14 0 0 0 3.32 12.33 22.78 22.78 0 0 0 8.68 7.75A25.44 25.44 0 0 0 852 538.9Z" style="fill:#f9f9f9"/>
</svg>
