<svg xmlns="http://www.w3.org/2000/svg" viewBox="0 0 1024 1024">
   <circle cx="512" cy="512" r="512" style="fill:#009fe3"/>
   <path d="M343.5 522.14a22.38 22.38 0 0 0 3.95-2v7.72a16.83 16.83 0 0 1-5.84 14.36 21 21 0 0 1-12.3 3.94 11 11 0 0 1-7.15-2.37 9.32 9.32 0 0 1-2.94-7.69 9.53 9.53 0 0 1 4.82-8.82 30 30 0 0 1 9.36-2.84l4.63-.87a32.82 32.82 0 0 0 5.47-1.43Zm-78.21-8.83a26.11 26.11 0 0 0-10.52-1.82h-25.92v28.66h25.59a24.43 24.43 0 0 0 10.67-1.89 13.6 13.6 0 0 0 6.89-13.44 11.57 11.57 0 0 0-6.71-11.52Zm321.43-19h-1.22a16 16 0 0 0-12.15 4.54 21.79 21.79 0 0 0-5.43 12.31H603a16.57 16.57 0 0 0-16.28-16.86ZM896 505.49q0 90.55-65.42 122.51-36.09 17.31-100.82 17.31H128V383.65h605.08q64.09.69 99.5 16.64Q896 428.94 896 505.49Zm-601.78 20.89a28.92 28.92 0 0 0-4.13-15.76 23.53 23.53 0 0 0-12.17-9.48 25.21 25.21 0 0 0 8-6.12 24.27 24.27 0 0 0 4.88-15.84 27.74 27.74 0 0 0-4.8-16.41 32 32 0 0 0-27.29-11.44h-50.86v107.5h47.44a71.55 71.55 0 0 0 14.88-1.46 28.75 28.75 0 0 0 11.9-5.4 29.42 29.42 0 0 0 7.46-8.46 31.91 31.91 0 0 0 4.69-17.13Zm77.87 29.31a7.3 7.3 0 0 1-3-2.4 11.75 11.75 0 0 1-1.21-5.51q-.14-5.39-.14-9.19v-36.46a20 20 0 0 0-10-19.54 48.8 48.8 0 0 0-22.81-5.18q-19.73 0-27.84 10.5a30.8 30.8 0 0 0-5.73 17.09H321a15.22 15.22 0 0 1 2.9-7.29 12.83 12.83 0 0 1 10.33-3.64 20.89 20.89 0 0 1 9.89 1.86 7 7 0 0 1 3.37 6.74 6.24 6.24 0 0 1-4.39 5.91 31.68 31.68 0 0 1-8.13 1.82l-7 .88a49.08 49.08 0 0 0-18 5.1 22.72 22.72 0 0 0-11.17 21.18 22.13 22.13 0 0 0 6.93 17.46 25.48 25.48 0 0 0 17.57 6.16 29.06 29.06 0 0 0 14.94-3.86 42.22 42.22 0 0 0 9.77-7.95q.21 2.71.57 4.82a23.5 23.5 0 0 0 1.29 4.52h22.15ZM423 477.55c-.9 0-1.49-.11-1.75-.11h-1a22 22 0 0 0-14.86 4.88 43.76 43.76 0 0 0-8.22 10.87V479.3h-19.38v79.49h20.47v-38a32.37 32.37 0 0 1 2.35-14.15 16.79 16.79 0 0 1 16.53-8.17q1.22 0 2.43.07 1.51.08 3.44.3Zm118.4 31.13a72.16 72.16 0 0 0-.69-11.74 23.09 23.09 0 0 0-4.43-10.21 22.72 22.72 0 0 0-9.08-7.15 26.63 26.63 0 0 0-10.14-2.07 29.78 29.78 0 0 0-14 3.28 26.17 26.17 0 0 0-9.93 10.28 23.36 23.36 0 0 0-6.71-9.55 27.79 27.79 0 0 0-29.79.69 33.26 33.26 0 0 0-7.14 8.82v-11.6h-19.8v79.34h20.66v-47.82a22.58 22.58 0 0 1 1.64-9.77 12 12 0 0 1 11.71-5.76 10 10 0 0 1 10.07 5.76 27.1 27.1 0 0 1 1.43 10.28v47.35h20.5v-47.32a22.85 22.85 0 0 1 1.64-9.12 11.71 11.71 0 0 1 11.66-7.14 10.11 10.11 0 0 1 10 5.51 16.92 16.92 0 0 1 1.43 7.44v50.61h20.86Zm26 16.2h56.71a103.6 103.6 0 0 0-.69-15.77 39.55 39.55 0 0 0-6.2-16.43 31.87 31.87 0 0 0-13.46-11.76 43.57 43.57 0 0 0-18.31-3.73 37.13 37.13 0 0 0-27.85 11 43.57 43.57 0 0 0-10.73 31.68q0 22 11.88 31.82a41.91 41.91 0 0 0 27.43 9.78 37.45 37.45 0 0 0 29.29-11.59 26.17 26.17 0 0 0 7.57-14.36h-20.75a17.38 17.38 0 0 1-4.19 5.48 17 17 0 0 1-11.31 3.64 20.35 20.35 0 0 1-11.22-3 19.19 19.19 0 0 1-8.14-16.76Zm133.3-19.62a26.6 26.6 0 0 0-7.65-21.4 29.45 29.45 0 0 0-19.67-6.45 25.27 25.27 0 0 0-15.84 4.82 35 35 0 0 0-7.4 8.82v-11.6h-19.75v79.31h20.36v-43a31.6 31.6 0 0 1 2-12.11 14.05 14.05 0 0 1 14.12-9 11.41 11.41 0 0 1 11.35 6.13 22.65 22.65 0 0 1 1.63 9.64v48.35h20.85Zm29.13-26h-20.65v79.48h20.66Zm0-28.66h-20.65v19.18h20.66Zm80.72 105a7.28 7.28 0 0 1-3-2.4 11.74 11.74 0 0 1-1.22-5.51q-.14-5.39-.14-9.19v-36.37a20 20 0 0 0-10-19.54 48.8 48.8 0 0 0-22.81-5.18q-19.73 0-27.84 10.5a30.8 30.8 0 0 0-5.71 17.09h19.65a15.22 15.22 0 0 1 2.9-7.29 12.83 12.83 0 0 1 10.33-3.64 20.89 20.89 0 0 1 9.89 1.86 7 7 0 0 1 3.37 6.74 6.24 6.24 0 0 1-4.39 5.91 31.68 31.68 0 0 1-8.13 1.82l-7 .88a49.09 49.09 0 0 0-18 5.05 22.72 22.72 0 0 0-11.16 21.22 22.13 22.13 0 0 0 6.93 17.46 25.48 25.48 0 0 0 17.57 6.16 29.06 29.06 0 0 0 14.94-3.86 42.21 42.21 0 0 0 9.77-7.95q.21 2.71.57 4.82a23.38 23.38 0 0 0 1.29 4.52h22.15Zm-34.09-32.13-4.63.87a30 30 0 0 0-9.36 2.84 9.53 9.53 0 0 0-4.82 8.82 9.32 9.32 0 0 0 2.94 7.69 11 11 0 0 0 7.15 2.37 21 21 0 0 0 12.26-3.84 16.82 16.82 0 0 0 5.84-14.36v-7.72a22.4 22.4 0 0 1-3.95 2 32.77 32.77 0 0 1-5.42 1.42ZM265.57 491a10.22 10.22 0 0 0 4.28-9.44 9.64 9.64 0 0 0-5.66-9.92 38.94 38.94 0 0 0-12.44-1.64h-22.9v23.69h25.59a20.8 20.8 0 0 0 11.13-2.69Z" style="fill:#fff"/>
</svg>
