<svg xmlns="http://www.w3.org/2000/svg" viewBox="0 0 1024 1024">
   <circle cx="512" cy="512" r="512" style="fill:#454545"/>
   <path d="M832 495.04c-11.59.11-23.18-.04-34.75.07.12-24.37.01-48.74.05-73.11h34.32c-.23-25.72.47-51.47-.38-77.17-37.23-.09-74.46-.02-111.69-.04-6.63 14.93-13.06 29.96-19.75 44.86-1.39 3.21-3.38 6.39-3.21 10.02-.01 19.08.07 38.16-.04 57.24-4.68.02-9.36.01-14.03.02-.02-30.03-.01-60.08-.01-90.11-118.85.02-237.72-.05-356.57.04-1.8 4.58-3.89 9.03-5.86 13.54-4.97-11.94-10.65-23.56-15.4-35.58-2.81-.28-5.61-.38-8.43-.33-34.64.2-69.27-.33-103.9.36.05 3.8-.26 7.6-.32 11.39-.04 53.23.02 106.47-.04 159.7.66 18.77.15 37.57.34 56.36 49.5-.04 99.01 0 148.51-.01 0 4.03.02 8.05-.06 12.08-19.03-.08-38.06-.08-57.08 0 4.43 11.31 8.54 22.73 13.01 34.03 26.64-.02 53.29-.07 79.94.02.52-4.81.26-9.65.31-14.48-.05-21.62.21-43.23-.33-64.83-18.87.01-37.74.01-56.61 0-.01-4.02-.05-8.02.04-12.02 26.22.07 52.45-.11 78.68.08-.12 26.01-.11 52.01-.01 78.03 12.06-.06 24.1 0 36.16-.05-.22-26.03-.07-52.06-.07-78.09 12.28.07 24.55.01 36.82 0 7.01-21.09 14.34-42.07 21.35-63.15 16.9.13 33.8.07 50.7.04 7.26 20.96 14.24 42.01 21.52 62.96 12.28.4 24.57.13 36.85.15.02 26.01.09 52.01-.04 78.03 11.95.2 23.9.06 35.85.05.05-25.99.07-52-.01-78.01 7.34-.05 14.68-.01 22-.05.14 30.47-.04 60.92.09 91.39 26.72-.2 53.46-.09 80.19-.05 4.29-11.35 8.57-22.71 12.86-34.05-19.04-.11-38.1-.04-57.14-.04-.18-3.99-.13-7.98-.05-11.96 45.37-.2 90.75-.01 136.12-.09.04-25.75-.09-51.5.07-77.23Zm-514.07-2.21c-7.01.27-14.03.22-21.04.18-3.06 8.23-6.25 16.41-9.35 24.63-1.56 4.4-3.92 8.77-3.65 13.58.04 6.6-.04 13.2.07 19.8-23.53.31-47.06.01-70.6.16.25-61.76-.05-123.53.15-185.28 25.7-.06 51.44-.77 77.11.12 4.86 11.02 9.74 22.04 14.59 33.07 1.71 3.89 1.23 8.21 1.28 12.33-.12 9.02.25 18.03-.29 27.04-.16 2.84.48 5.67 1.78 8.21 2.83 5.87 5.42 11.85 8.1 17.79.92 2.17 1.91 4.41 1.87 6.83.01 7.19 0 14.36-.04 21.54Zm60.57-.11c-.09-3.91-.06-7.82-.15-11.72-5.06 0-10.13-.02-15.19-.02 0 3.92 0 7.84-.01 11.75-12.89.04-25.77-.07-38.65.06-.11-12.62-.68-25.25-.22-37.88.49-10.59-.33-21.23.4-31.79 4.26-10.7 9.32-21.06 13.71-31.71.8-1.43 1.49-3.86 3.56-3.65 19.83-.31 39.66.08 59.48-.19 5.04 10.93 9.8 22 14.68 33.02 1.9 4.1 1.26 8.74 1.36 13.11.02 19.67-.09 39.34.06 59.01-13.01.05-26.01.02-39.02.01Zm138.19-69.92c-9.03.15-18.05.06-27.06.05.04 9.53.07 19.07.04 28.59.01 2.61-.88 5.1-1.69 7.54-4.05 11.2-7.58 22.58-11.61 33.79-8.5-.04-17-.09-25.5.02.15-23.33.12-46.66.01-69.99-8.97.11-17.95.14-26.92-.01-.35-11.56-.55-23.15-.12-34.73 30.91-.62 61.86-.54 92.79-.2.28 11.64.65 23.29.07 34.94Zm72.41.13c.12 23.27.08 46.55.01 69.82-9.59-.15-19.18.73-28.78-.12-3.26-10.38-7.47-20.5-10.07-31.07-.27-12.9-.09-25.82-.07-38.72-9.04.05-18.07.01-27.1 0 .06-11.64.11-23.27-.02-34.91 28.5-.42 57-.28 85.51-.28 2.55.01 5.1.18 7.66.36-.11 11.59.04 23.18.05 34.76-9.06.2-18.13-.05-27.18.14Zm33.63 69.79c-.25-34.88.07-69.76-.16-104.65 12.92-.66 25.85-.45 38.78-.32.43 4.74.31 9.52.32 14.29 0 25.43.01 50.86 0 76.3 16.53.01 33.07-.01 49.61.01 0 4.8.38 9.62-.09 14.41-29.48-.08-58.97.66-88.44-.05Zm188.1 58.02c-18.88.89-37.82.16-56.72.4-14.18-.05-28.38.09-42.56-.07.07-4 .06-8.02-.06-12.02-5.25.08-10.51.07-15.76.04-.02-4-.06-8.02.04-12.02 19.06 0 38.12.07 57.18-.04-4.05-11.4-8.65-22.59-12.74-33.98-7.46-.04-14.91-.07-22.37.02-.26-29.18 0-58.36-.12-87.54-.39-4.57 2.07-8.58 3.78-12.62 3.97-8.96 8-17.88 11.75-26.92 25.72-.15 51.44-.01 77.16-.06.21 11.62-.07 23.25.15 34.87-16.06.12-32.14.06-48.2.04-1.81.23-3.96-.52-5.49.6-.21 13.71-.34 27.42-.11 41.13 6.34-.04 12.69-.02 19.04 0 .34 10.64.58 21.29.09 31.92-6.34.04-12.67.12-19-.01-.21 14.95-.7 29.89-.19 44.84 18.03.33 36.08.01 54.13.15-.19 10.41-.12 20.85-.02 31.28ZM267.49 442.57c-5.11-.02-10.2-.02-15.31 0 .07-13.94 0-27.88.04-41.82 5.06.15 10.12-.05 15.17.32.19 13.84-.01 27.67.11 41.5Zm111.03-19.68c-.14 8.71-.16 17.42-.02 26.14-5.04-.02-10.07-.04-15.11-.01.09-8.71.06-17.42.01-26.12 5.04-.07 10.07-.04 15.12 0Zm91.69 125.8c9.01-26.37 17.87-52.8 26.84-79.18 14.18-.01 28.35.11 42.54-.04 9.16 26.24 17.8 52.67 26.86 78.95-11.49.16-22.99.01-34.48.07-4.57-13.84-9.1-27.7-13.57-41.57-4.58 14-9.16 27.99-13.75 41.97-11.47-.29-22.95.08-34.44-.2Zm-191.34-74.17c.02 13.78.36 27.54.06 41.33-8.9.45-17.82.55-26.71.09-.01-13.81 0-27.61-.02-41.43 8.89.02 17.79.02 26.68.01Zm217.49 100.77c-7.3 21.76-14.29 43.61-21.59 65.36-6.15-9.9-13-19.36-19.47-29.05-1.46-2.38-3.76-4.65-3.69-7.62 1.06-4.44 2.96-8.63 4.26-12.99 4.34-11.8 7.75-23.94 12.36-35.63 9.28 6.79 18.83 13.16 28.12 19.92Zm87.79 32.23c-7.36 10.91-14.72 21.79-22.11 32.68-7.27-21.07-14.38-42.2-21.06-63.46-.86-1.57.77-2.51 1.84-3.28 8.66-5.87 17.08-12.08 25.7-18 5.41 14.57 10.1 29.41 15.26 44.08.75 2.52 2.32 5.62.36 7.98Zm-256.82 46.39c.08 5.64.01 11.28-.01 16.92 12.09.14 24.19-.01 36.28.09.07-1.12.2-3.32.27-4.44h-31.83c.02-2.74.02-5.48 0-8.22 13.34 0 26.66-.01 40 .01-.21 4.98.15 9.97-.23 14.93-.48 4.12-4.79 6.36-8.61 6.14-11.38.11-22.77 0-34.15.05-2.83.02-6.07-.25-8.05-2.52-2.07-1.76-1.83-4.66-1.9-7.1.15-5.85-.06-11.69.09-17.53.01-3.93 3.92-6.9 7.7-6.59 12.82.02 25.65-.14 38.48.08 4.16.06 6.42 4.04 6.97 7.71-14.98.86-30 .2-45 .46Zm120.27-8.21c-12.12-.18-24.24.01-36.36-.09-2.75-.14-5.61.42-7.75 2.27-2.31 2.79-1.87 6.67-1.9 10.06.18 5.93-.43 11.93.67 17.81 2.1 1.95 4.6 3.48 7.54 3.62.02-2.23.05-4.47.08-6.69 12.18-.05 24.35.06 36.51-.06.09 2.29.16 4.59.28 6.89 3.48-.46 7.54-2.49 7.88-6.39.43-6.66.13-13.35.16-20.02.13-3.91-3.24-7.34-7.12-7.4Zm-1.4 18.49c-12.12-.16-24.23-.05-36.34-.07-.02-3.42-.02-6.83 0-10.24 12.12-.02 24.22 0 36.34-.01 0 3.44.01 6.88 0 10.32Zm105.9-12.3c.25 6.79.08 13.58.05 20.37.23 4.3-4.33 7.23-8.27 6.89.12-7.44.14-14.88-.02-22.32-8.37 7.5-17.07 14.62-25.49 22.06-8.57-7.39-17.21-14.71-25.78-22.1.01 7.5-.04 15 .06 22.51-2.5-.25-5.3-.82-6.83-3.02-1.94-2.52-1.35-5.92-1.47-8.86.19-5.35-.29-10.73.25-16.06.58-4.12 5.71-7.19 9.33-4.56 8.23 6.69 15.78 14.25 24.23 20.66 8.83-6.35 16.54-14.23 25.03-21.04 3.78-2.32 8.58 1.46 8.91 5.46Zm38.23 1.68c-.01 1.55-.01 3.11-.01 4.67 10.59.07 21.18-.05 31.76.07-.02 2.71-.02 5.42-.01 8.15-10.6.08-21.19-.05-31.78.07l.08 4.71c14.98-.16 29.95-.09 44.93.02-.22 4.3-3.52 7.88-7.88 8.02-12.15.25-24.33.07-36.49.09-4.04.36-8.59-2.18-8.93-6.53-.31-6.55-.23-13.13-.12-19.68.01-3.75 2.95-7.35 6.81-7.47 11.69-.18 23.41.01 35.11-.08 2.83.12 6.06-.4 8.41 1.57 2.1 1.39 2.27 4.14 3.11 6.3-14.99.18-29.99.04-44.98.07Zm127.27 4.8c.09 5.01.55 10.1-.29 15.08-.42 3.72-4.36 6.01-7.87 5.85-12.13.22-24.28.08-36.41.06-4.61.18-8.7-3.33-8.81-8.05 14.96-.26 29.93-.14 44.89-.08.05-1.56.11-3.13.18-4.7-14.9-.09-29.8-.01-44.69-.04.08-4.85-.18-9.7.11-14.55.27-3.76 3.78-6.41 7.43-6.27 12.81-.04 25.64-.09 38.45.04 3.79-.02 7.9 4.02 6.56 7.82-14.78.13-29.58 0-44.37.06.02 1.56.07 3.12.11 4.7 14.9.05 29.81-.13 44.71.09Z" style="fill:#fff"/>
</svg>
