<svg xmlns="http://www.w3.org/2000/svg" viewBox="0 0 1024 1024">
   <circle cx="512" cy="512" r="512" style="fill:#2a54ff"/>
   <path d="M272 323.86h2.57c35.81.36 71.57 6.33 105.46 17.94 49.92 16.93 95.59 46.14 131.97 84.27a332.335 332.335 0 0 1 44.54 58.88c5.57 9.46 11.65 18.65 18.67 27.1 17.31 21.68 38.56 40.26 62.57 54.19 34.43 20.17 74.33 30.61 114.19 30.56.05 34.45.01 68.89.01 103.33-63.69 0-127.37-18.44-180.78-53.23-21.57-13.92-41.43-30.45-59.22-48.94-11.76-12.58-22.73-25.91-32.46-40.12-10.59-15.08-18.73-31.83-30.76-45.9-17.42-21.83-38.83-40.49-63.03-54.47-34.32-19.99-74.05-30.31-113.73-30.28V323.84Zm294.88 155c5.49 9.32 10.8 17.13 16.17 23.81 14.05-15.9 30.41-29.76 48.36-41.08 35.8-22.63 78.18-34.51 120.5-34.38.18-34.45.03-68.91.07-103.35h-2.63c-32.32.34-64.61 5.21-95.5 14.74-36.17 11.02-70.37 28.39-100.66 51.02a322.64 322.64 0 0 0-32.74 27.93c.09.09.18.18.26.27a344.414 344.414 0 0 1 46.17 61.05Zm-63.61 127.36-.06-.06c-12.78-13.67-24.07-27.63-33.55-41.47-4.28-6.1-8.14-12.4-11.88-18.49-5.46-8.91-10.66-17.34-16.85-24.88-14.05 15.9-30.4 29.76-48.35 41.07-35.82 22.68-78.23 34.48-120.58 34.42v103.35c63.84-.01 127.7-18.52 181.18-53.51 6.01-3.87 11.86-7.98 17.59-12.26 11.52-8.55 22.46-17.9 32.74-27.91-.06-.07-.13-.13-.19-.2l-.06-.06Z" style="fill:#fff"/>
</svg>
