<svg xmlns="http://www.w3.org/2000/svg" viewBox="0 0 1024 1024">
   <circle cx="512" cy="512" r="512" style="fill:#0568ec"/>
   <path d="M634.53 274.61H389.49c-63.34 0-114.87 51.53-114.87 114.87v245.04c0 63.34 51.53 114.86 114.87 114.86h245.04c63.34 0 114.86-51.53 114.86-114.86V389.48c0-63.34-51.53-114.87-114.86-114.87Zm-86.31 358.28h-95.28c-19.07 0-34.54-15.46-34.54-34.54V425.66c0-19.08 15.46-34.54 34.54-34.54h95.28c38.15 0 69.07 30.93 69.07 69.07 0 20.63-9.05 39.15-23.39 51.81 14.34 12.66 23.39 31.18 23.39 51.81 0 38.15-30.93 69.08-69.07 69.08Zm-17.16-166.66c0 18.23-14.78 33.01-33.01 33.01h-19.51c-7.25 0-13.13-5.88-13.13-13.13v-39.75c0-7.25 5.88-13.13 13.13-13.13h19.51c18.23 0 33.01 14.78 33.01 33.01Z" style="fill:#fff"/>
</svg>
