<svg xmlns="http://www.w3.org/2000/svg" viewBox="0 0 1024 1024">
   <circle cx="512" cy="512" r="512" style="fill:#10f48b"/>
   <path d="M529.74 522.15v98.4l85.18-49.21v-98.32l-85.18 49.13Zm-102.93-79.86 85.18 49.13 85.19-49.13-85.19-49.21-85.18 49.21Zm-17.74 129.05 85.18 49.21v-98.4l-85.18-49.13v98.32Zm323.84-49.75-14.89-10.52 14.87-10.51c45.49-32.23 56.25-95.24 24.02-140.73a100.912 100.912 0 0 0-32.13-29.2l-1.31-.8a101.118 101.118 0 0 0-91.45-4.86l-16.17 7.21-1.9-17.62a101.379 101.379 0 0 0-50.06-76.88l-.44-.2a100.138 100.138 0 0 0-50.44-13.52c-18.45 0-36.56 5.04-52.36 14.56l-2.55 1.55a101.756 101.756 0 0 0-47.9 74.67l-2.06 17.42-15.96-7.1a100.954 100.954 0 0 0-91.61 4.76l-1.6.9c-30.94 17.96-50.11 50.91-50.44 86.68v3.38a101.3 101.3 0 0 0 42.65 81.6L306 512.89l-14.82 10.51a101.317 101.317 0 0 0-42.68 81.66v1.57c.34 35.79 19.56 68.74 50.55 86.66l1.45.91a101.562 101.562 0 0 0 91.56 4.81l16.17-7.21 1.85 17.62a101.414 101.414 0 0 0 49.81 76.73l.65.35c31.93 18.42 71.36 17.97 102.87-1.15l2.5-1.51a101.542 101.542 0 0 0 47.9-74.67l2.06-17.42 16.02 7.21c12.96 5.77 26.99 8.74 41.17 8.71 17.76-.02 35.21-4.7 50.6-13.57l1.41-.84c31.18-18.07 50.39-51.36 50.44-87.4v-1.85a101.341 101.341 0 0 0-42.6-82.39h.02Zm-14.34 84.25a44.167 44.167 0 0 1-22.03 38.08l-1.5.91a44.462 44.462 0 0 1-44.09 0l-41-23.73-52.36 30.33v46.15a44.269 44.269 0 0 1-21.17 37.64l-2.55 1.55a44.148 44.148 0 0 1-44.85.49l-.55-.35c-13.6-7.88-22-22.37-22.08-38.08v-47.35l-52.36-30.39-41 23.78a44.243 44.243 0 0 1-44 0l-1.55-.96c-21.07-12.1-28.33-38.99-16.23-60.06 3.79-6.6 9.22-12.1 15.77-15.96l42.75-25.29-.35-60.32-41.94-24.23a44.038 44.038 0 0 1-22.08-38.08v-1.8a44.197 44.197 0 0 1 22.08-38.15l1.5-.95a44.337 44.337 0 0 1 44.05 0l40.99 23.73 52.36-30.23v-46.16c.1-15.37 8.13-29.61 21.23-37.64l2.55-1.54a43.94 43.94 0 0 1 44.8-.5l.56.3a44.106 44.106 0 0 1 22.07 38.2v47.35l52.36 30.23 40.99-23.73a44.412 44.412 0 0 1 44.09 0l1.5.95c21.07 12.17 28.29 39.11 16.12 60.18-3.78 6.54-9.17 12-15.67 15.85l-42.8 25.28.35 60.32 41.99 24.23a44.07 44.07 0 0 1 22.03 38.08v1.87Z" style="fill:#fff"/>
</svg>
