<svg xmlns="http://www.w3.org/2000/svg" viewBox="0 0 1024 1024">
   <circle cx="512" cy="512" r="512" style="fill:#e06543"/>
   <path d="M634.47 512c-27.91 39.92-73.07 63.71-121.77 63.92-35.21-.06-63.86-28.74-63.86-63.94s28.54-63.74 63.63-63.92c48.81.17 94.05 23.96 122.01 63.93ZM511.94 404.97c-58.56.45-106.21 48.46-106.21 107.02s47.64 106.59 107.09 107.04c54.9-.23 106.08-23.38 142.45-64.01 4.07 13.71 6.14 27.95 6.14 42.47 0 82.38-67.02 149.4-149.4 149.4-32.71 0-63.76-10.37-89.79-29.96-25.2-18.99-44.11-45.98-53.22-75.98-4.25-14.05-6.4-28.67-6.4-43.46V426.52c0-82.39 67.02-149.41 149.41-149.41s149.4 67.02 149.4 149.41c0 14.52-2.06 28.76-6.14 42.47-36.39-40.62-87.64-63.79-143.33-64.01Zm192.58 21.54c0-106.16-86.37-192.51-192.51-192.51s-192.53 86.36-192.53 192.51v170.97c0 19.03 2.79 37.87 8.27 55.97 11.74 38.66 36.07 73.42 68.53 97.89 33.58 25.28 73.59 38.65 115.73 38.65 106.15 0 192.51-86.37 192.51-192.51 0-29.61-6.92-59.09-20.05-85.48 13.13-26.41 20.05-55.88 20.05-85.49Z" style="fill:#fff"/>
</svg>
