<svg xmlns="http://www.w3.org/2000/svg" viewBox="0 0 1024 1024">
   <circle cx="512" cy="512" r="512" style="fill:#62abf4"/>
   <path d="M493.48 490.33v-53.57c14.85 0 62.43-4.38 62.07 27.33-.36 30.24-47.18 26.63-62.07 26.24Zm-.36 27v59.03c17.78 0 74.04 4.01 74.4-29.15.37-34.66-56.58-29.88-74.4-29.88Zm250.79-207.69v104.53C743.92 704.94 511.99 784 511.99 784s-231.93-79.07-231.93-369.83V309.6c-.02-11.32 8.71-20.72 19.96-21.49 42.11-1.79 141.92-10.57 211.97-48.1 70.05 37.53 169.86 46.28 211.96 48.1 11.25.77 19.98 10.17 19.97 21.49v.04Zm-161.5 187.25c15.61-7.29 25.45-21.13 23.22-44.46-2.91-31.7-29.77-42.58-64.24-45.92v-44.45h-26.85v43h-21.78V361.7H465.9l.36 44.08c-5.81 0-53.72.36-53.72.36v28.05h34.11v141.75h-30.09l-.36 32.43s42.42-.36 48.63 0v44.46h26.51v-44.09c7.26.36 14.52.36 21.41.36v43.72h26.82v-44.45c45-2.18 76.22-13.48 80.59-55.75 3.26-33.89-12.34-49.56-37.75-55.74Z" style="fill:#fff"/>
</svg>
