<svg xmlns="http://www.w3.org/2000/svg" viewBox="0 0 1024 1024">
   <circle cx="512" cy="512" r="512" style="fill:#009fe8"/>
   <path d="M494.54 491.64v-50.32c14 0 58.87-4.11 58.53 25.67-.34 28.41-44.49 25.01-58.53 24.65ZM494.2 517v55.45c16.77 0 69.82 3.77 70.16-27.38C564.71 512.51 511 517 494.2 517Zm236.5-195.09v98.19C730.71 693.23 512 767.5 512 767.5s-218.71-74.27-218.71-347.4v-98.23a20.21 20.21 0 0 1 18.82-20.19C351.82 300 445.94 291.75 512 256.5c66.06 35.25 160.18 43.47 199.88 45.18a20.21 20.21 0 0 1 18.83 20.19ZM578.4 497.8c14.72-6.85 24-19.85 21.9-41.76-2.74-29.78-28.07-40-60.58-43.13v-41.75H514.4v40.39h-20.54v-40.73h-25.33l.34 41.41c-5.48 0-50.66.34-50.66.34v26.35h32.17v133.15H422l-.34 30.46s40-.34 45.86 0v41.76h25v-41.42c6.85.34 13.69.34 20.19.34v41.07H538v-41.75c42.44-2.05 71.88-12.66 76-52.37 3.07-31.83-11.64-46.55-35.6-52.36Z" style="fill:#fff"/>
</svg>
