<svg xmlns="http://www.w3.org/2000/svg" viewBox="0 0 1024 1024">
   <circle cx="512" cy="512" r="512" style="fill:#002b28"/>
   <path d="m176.07 489.26 30.51-22.76v97.88h37.34c14.09 0 23.89-9.12 23.89-22.33s-9.8-22.33-23.89-22.33h-20.47l26.18-26.18c7.26-7.26 8.87-11.85 8.87-16.87 0-9.99-7.75-17.06-20.03-17.06h-62.39v-27.3h67.61c26.42 0 45.28 15.94 45.28 38.9 0 10.92-2.29 19.11-10.48 27.3l-5.46 5.46c14.82 7.26 25.25 22.08 25.25 40.99 0 27.54-22.08 46.65-53.03 46.65h-69.22V489.24h.05Zm138.83-56.89h30.51v33.68H314.9v-33.68Zm0 63.27 30.51-22.76v118.79H314.9v-96.03Zm52.35 57.32v-86.91l30.51-23.69v32.76H431v28.47h-33.24v45.97c0 8.43 5.22 13.65 13.65 13.65h19.6v28.47h-25.25c-23.93 0-38.51-14.57-38.51-38.7Zm119.48-77.85h20.47v28.47h-19.55c-8.43 0-13.65 5.22-13.65 13.65v74.43h-30.51V518.4c0-27.79 15.5-43.29 43.24-43.29Zm22.33 58.3c0-33 23.01-60.54 59.62-60.54s59.62 25.49 59.62 60.54c0 1.61 0 3.17-.24 4.78h-68.24l35.05-23.89c-5.22-8.87-14.14-14.57-26.18-14.57-19.6 0-31.2 15.26-31.2 33.68 0 22.76 14.57 33.68 32.32 33.68 10.48 0 19.79-4.53 25.25-13.65h30.51c-7.95 26.61-31.39 40.51-55.77 40.51-31.83 0-60.74-20.03-60.74-60.54Zm178.21-101.05h34.37v28.47H688.2c-8.43 0-13.65 5.22-13.65 13.65v10.24h62.35v107h-30.52v-78.58H674.5v78.53h-30.51V475.61c.05-27.78 15.55-43.24 43.29-43.24Zm74.68 21.35 30.52-23.69v161.59h-30.52v-137.9Zm55.52 0 30.52-23.69v161.59h-30.52v-137.9Z" style="fill:#fff"/>
</svg>
