<svg xmlns="http://www.w3.org/2000/svg" viewBox="0 0 1024 1024">
  <circle cx="512" cy="512" r="512" style="fill:#6f309f"/>
  <path d="M446.18 552.63h131.64c0 36.35-29.47 65.82-65.82 65.82s-65.82-29.47-65.82-65.82Zm-81.3-81.29c-22.45 0-40.65 18.2-40.65 40.64h81.29c0-22.44-18.2-40.64-40.64-40.64Zm294.54 0c-22.45 0-40.64 18.2-40.64 40.64h81.28c0-22.44-18.2-40.64-40.64-40.64ZM512 268.07c16.79 0 30.41-13.62 30.41-30.41s-13.62-30.41-30.41-30.41-30.41 13.61-30.41 30.41 13.62 30.41 30.41 30.41Zm274.09 411.42c-15.54 17.4-36.95 27.59-60.28 28.68-51.24 2.4-129.93 5.26-213.82 5.26s-162.58-2.86-213.82-5.26c-23.33-1.09-44.73-11.28-60.28-28.68-15.52-17.39-23.23-39.76-21.69-63.02 2.75-41.73 6.49-78.8 11.11-110.2 6.84-46.43 17.06-93.34 24.44-124.52 8.79-37.17 40.31-63.74 78.43-66.11 37.42-2.33 99.33-5.12 181.8-5.12s144.39 2.78 181.81 5.12c38.12 2.37 69.64 28.94 78.43 66.11 7.38 31.19 17.61 78.12 24.44 124.52 4.62 31.39 8.36 68.47 11.11 110.19 1.54 23.26-6.17 45.64-21.69 63.02Zm-18.86-60.34c-2.68-40.64-6.3-76.63-10.77-106.95-6.62-44.97-16.59-90.67-23.79-121.08-4.64-19.62-21.28-33.65-41.4-34.9-36.85-2.3-97.86-5.04-179.28-5.04s-142.43 2.74-179.28 5.04c-20.13 1.25-36.77 15.28-41.41 34.9-7.19 30.4-17.16 76.09-23.79 121.08-4.46 30.32-8.09 66.31-10.77 106.95-.81 12.28 3.26 24.09 11.45 33.27 8.22 9.2 19.53 14.58 31.86 15.16 50.81 2.38 128.81 5.21 211.92 5.21s161.11-2.83 211.92-5.21c12.33-.58 23.65-5.96 31.86-15.16 8.19-9.17 12.26-20.99 11.45-33.27Z" style="fill:#fff"/>
</svg>
