<svg xmlns="http://www.w3.org/2000/svg" viewBox="0 0 1024 1024">
   <circle cx="512" cy="512" r="512" style="fill:#6f309f"/>
   <path d="M450.64 561.4h122.75c0 33.9-27.48 61.38-61.38 61.38s-61.38-27.48-61.38-61.38Zm-75.81-75.8c-20.93 0-37.91 16.97-37.91 37.9h75.8c0-20.93-16.97-37.9-37.9-37.9Zm274.66 0c-20.93 0-37.9 16.97-37.9 37.9h75.79c0-20.93-16.97-37.9-37.9-37.9ZM512.02 296.05c15.66 0 28.36-12.7 28.36-28.36s-12.7-28.36-28.36-28.36-28.36 12.69-28.36 28.36 12.7 28.36 28.36 28.36ZM767.61 679.7c-14.49 16.23-34.46 25.73-56.21 26.74-47.78 2.24-121.16 4.9-199.39 4.9s-151.61-2.67-199.39-4.9c-21.76-1.02-41.71-10.52-56.21-26.74-14.47-16.22-21.66-37.08-20.23-58.77 2.56-38.91 6.05-73.48 10.36-102.76 6.38-43.3 15.91-87.04 22.79-116.12 8.2-34.66 37.59-59.44 73.14-61.65 34.89-2.17 92.63-4.77 169.53-4.77s134.64 2.59 169.54 4.77c35.55 2.21 64.94 26.99 73.14 61.65 6.88 29.08 16.42 72.85 22.79 116.12 4.31 29.27 7.8 63.85 10.36 102.75 1.44 21.69-5.75 42.56-20.23 58.77Zm-17.59-56.26c-2.5-37.9-5.87-71.46-10.04-99.73-6.17-41.93-15.47-84.55-22.18-112.91-4.33-18.3-19.84-31.38-38.61-32.54-34.36-2.14-91.25-4.7-167.18-4.7s-132.82 2.56-167.18 4.7c-18.77 1.17-34.29 14.25-38.61 32.54-6.7 28.35-16 70.95-22.18 112.91-4.16 28.27-7.54 61.83-10.04 99.73-.76 11.45 3.04 22.46 10.68 31.02 7.67 8.58 18.21 13.6 29.71 14.14 47.38 2.22 120.12 4.86 197.62 4.86s150.24-2.64 197.62-4.86c11.5-.54 22.05-5.56 29.71-14.14 7.64-8.55 11.43-19.57 10.68-31.02h.03Z" style="fill:#fff"/>
</svg>
