<svg xmlns="http://www.w3.org/2000/svg" viewBox="0 0 1024 1024">
   <circle cx="512" cy="512" r="512" style="fill:#f94917"/>
   <path d="M217.84 509.04c5.03-4.04 7.79-10.16 7.79-15.3 0-12.38-9.62-21.78-25.85-21.78H128v18.58l24.57 30.11h45.4c4.48 0 7.48 2.56 7.48 6.41s-2.99 6.41-7.16 6.41h-45.72v-12.81H128v31.39h74.45c19.02 0 28.2-9.83 28.2-23.28 0-7.94-4.39-15.95-12.81-19.72Zm-24.36-5.7h-40.91v-12.81h40.59c4.38 0 7.26 2.67 7.26 6.41s-2.89 6.41-6.94 6.41Zm92.39-10.46h36.64v59.15h25.2v-59.15h36.64v-20.93h-98.49v20.93Zm-15.7-20.93h-25.21v80.09h25.21v-80.09Zm527.34 0v20.93h36.64v59.15h25.21v-59.15H896v-20.93h-98.48Zm-337.43 30-21.79-.96c-12.18-.53-16.34-2.24-16.34-5.66s4.59-4.91 18.05-4.91h12.28c12.71 0 19.54 2.03 21.25 7.26h26.49c-1.92-18.37-19.22-27.23-48.6-27.23h-10.26c-30.98 0-45.29 9.4-45.29 25.74s13.03 24.03 38.45 25.09l23.61.96c12.71.53 16.98 2.14 16.98 6.09 0 3.63-4.27 5.23-18.37 5.23h-13.78c-13.67 0-20.08-2.24-21.9-8.01h-26.49c1.82 19.32 17.2 27.97 49.35 27.97h12.17c32.37 0 44.86-9.29 44.86-25.95 0-18.69-15.81-24.56-40.7-25.63Zm296.52-1.82h-55.12v-28.19H676.6v80.08h24.88v-31.39h55.12v31.39h24.89v-80.08H756.6v28.19Zm-215.23-28.19h-25.21v80.09h25.21v-80.09Zm15.06 40.04c0 20.5 15.06 40.04 44.01 40.04h56.29v-39.94h-24.57v19.01h-28.63c-13.46 0-21.68-8.33-21.68-19.12s8.22-19.12 21.68-19.12h53.19v-20.93h-56.29c-28.95 0-44.01 19.65-44.01 40.04Z" style="fill:#fff"/>
</svg>
