<svg xmlns="http://www.w3.org/2000/svg" viewBox="0 0 1024 1024">
   <circle cx="512" cy="512" r="512" style="fill:#003b2f"/>
   <path d="M262.97 524.15c0-13.34-7.78-24.06-20.3-28.4 9.49-4.34 16.12-13.34 16.12-24.96 0-18.17-15.31-30.86-36.91-30.86H160v15.47c9.74 0 17.6 7.86 17.6 17.6s-7.86 17.6-17.6 17.6v13.91c9.74 0 17.6 7.86 17.6 17.6s-7.86 17.6-17.6 17.6v16.86h64.58c22.18 0 38.31-13.18 38.31-32.25m-69.66-67.61h25.46c10.4 0 17.84 6.79 17.84 16.29s-7.45 16.12-17.84 16.12h-25.46v-32.41Zm0 82.92v-35.2h27.75c11.46 0 19.23 7.12 19.23 17.52s-7.78 17.68-19.23 17.68h-27.75Zm94.87-105.75c7.78 0 13.34 5.57 13.34 13.34s-5.57 13.34-13.34 13.34-13.18-5.57-13.18-13.34 5.57-13.34 13.18-13.34m-11.13 37.65h22.18v84.96h-22.18v-85.04.08Zm65.15-.08h23.57v16.86h-23.57v40.6c0 6.47 5.16 11.87 11.62 11.95 3.36 0 7.12-.49 11.3-1.56l2.95 16.62c-6.79 1.72-13.18 2.62-19.23 2.62-17.02 0-28.81-11.13-28.81-27.42v-79.07c0-3.03 2.46-5.48 5.48-5.48h16.7v24.96-.08Zm68.51-2.05c9.9 0 20.46 2.05 31.19 5.89l-4.83 15.96c-8.51-3.27-17.02-5.4-24.64-5.4s-13.18 3.6-13.18 9.17c0 15.39 45.43 4.17 45.43 37.08 0 15.47-13.91 26.36-33.97 26.36-10.4 0-21.85-2.29-33.8-6.79l4.67-15.8c9.9 4.01 19.23 6.06 27.42 6.06s13.91-4.01 13.91-9.9c0-16.12-45.26-4.83-45.26-37.08 0-14.9 13.51-25.7 33.15-25.7m69.25 2.21h23.57v16.86h-23.57v40.6c0 6.47 5.16 11.87 11.62 11.95 3.36 0 7.12-.49 11.3-1.56l2.95 16.62c-6.79 1.72-13.18 2.62-19.23 2.62-17.03 0-28.81-11.13-28.81-27.42v-79.07c0-3.11 2.54-5.57 5.57-5.57h16.62v24.96Zm140.87 0h17.68l2.78 11.62c6.79-8.84 16.62-13.67 27.91-13.67 12.28 0 22.35 5.89 27.26 15.63 7.78-10.07 18.42-15.63 30.69-15.63 18.58 0 31.76 12.85 31.76 31.02v55.99h-22.18v-52.55c0-9.49-6.79-16.29-16.45-16.29-11.3 0-19.23 8.51-19.23 20.63v48.21h-22.18v-52.55c0-9.49-6.79-16.29-16.29-16.29-11.46 0-19.4 8.51-19.4 20.63v48.21h-22.18v-84.96h-.16Zm156.42 0h17.68l2.78 10.97c6.22-8.35 15.96-13.01 27.26-13.01 22.92 0 39.04 18.42 39.04 44.61s-16.12 44.53-39.04 44.53c-10.4 0-19.4-4.17-25.54-11.79v37.82c0 3.03-2.46 5.57-5.57 5.57h-16.7V471.48h.08Zm41.99 15.47c-11.79 0-20.14 8.84-20.14 21.36v11.46c0 12.28 8.35 21.36 20.14 21.36 13.01 0 22.18-11.3 22.18-27.01s-9.17-27.09-22.18-27.09m-240.23 32.66c0 12.28-8.35 21.36-20.14 21.36-13.01 0-22.18-11.3-22.18-27.01s9.17-27.09 22.18-27.09c11.79 0 20.14 8.84 20.14 21.36v11.46-.08Zm21.85-4.91v-43.3h-17.68l-2.78 10.97c-6.22-8.35-15.96-13.01-27.26-13.01-22.92 0-39.04 18.42-39.04 44.61s16.12 44.53 39.04 44.53c1.31 0 2.62 0 3.93-.25 9.58-.98 17.76-5.48 23.33-12.77l2.78 10.97h17.68v-41.74Z" style="fill:#fff"/>
</svg>
