<svg xmlns="http://www.w3.org/2000/svg" viewBox="0 0 1024 1024">
   <circle cx="512" cy="512" r="512" style="fill:#151a20"/>
   <path d="M553.6 620.81c0-6.4-4.8-9.6-9.6-9.6-9.6 0-22.4 1.6-31.99 1.6-54.4 0-99.2-44.8-99.2-99.2V275.2a3.441 3.441 0 0 0-3.2-3.2H273.58l-1.6 1.6V512c-.18 132.37 106.99 239.82 239.36 240h.64c12.81 0 25.6-1.6 38.4-3.2a3.441 3.441 0 0 0 3.2-3.2V620.8ZM512 272.01c-12.81 0-27.2 1.6-40 3.2a3.441 3.441 0 0 0-3.2 3.2v124.8c0 6.4 4.8 11.19 9.6 9.6 4.8 0 31.99-1.6 31.99-1.6 54.4 0 99.2 44.8 99.2 99.2v216.01c-.02.86.67 1.58 1.53 1.6h.07c83.23-36.81 140.82-120.04 140.82-216 .18-132.37-106.99-239.82-239.36-240h-.64Z" style="fill:#fff"/>
</svg>
