<svg xmlns="http://www.w3.org/2000/svg" viewBox="0 0 1024 1024">
   <circle cx="512" cy="512" r="512" style="fill:#25aae1"/>
   <path d="M287.01 256c49.26.02 98.52 0 147.79 0 0 7.07-.36 14.37 2.22 21.11 4.98 14.4 19.29 24.99 34.56 25.25 12.62.09 25.24 0 37.86.04 12.22.05 24.46-.27 36.65.77 219.23 19.42 300.4 295.54 125.98 430.17-101.46 79.21-254.72 59.58-333.3-42.26-33-41.42-51.57-94.05-51.75-147.02-.06-96.02-.03-192.04-.02-288.06m16.98 16.7c2.26 56.74 35.2 110.89 84.78 138.67 46.05 27.08 88.96 21.79 139.61 22.18 52.6-.25 100.45 42.37 106.46 94.6 8.4 55.44-32.33 111.72-87.61 121.13-59.51 12.5-121.2-32.08-128.17-92.46-1.26-8.94-.9-17.99-.95-26.98v-87.9c-17.28-5.27-33.71-13.23-48.71-23.28-.02 42.84-.04 85.68.02 128.53-.12 53.03 28.9 104.59 73.92 132.48 81.82 52.5 194.74 15.26 229.95-75.2 23.85-57.87 8.61-128.6-36.92-171.55-24.89-24.19-57.97-39.8-92.51-43.39-10.12-1.18-20.31-.88-30.47-.92-12.6 0-25.22.02-37.83 0-63.11.66-119.68-52.85-122.63-115.88-16.31-.02-32.64.02-48.95-.02m65.78 0c3.1 53.99 51.71 99.53 105.77 99.12 17.36.05 34.73 0 52.09.03 52.14-.15 103.36 24.87 135.6 65.79 60.4 73.94 46.67 188.12-29.23 245.92-74.08 59.28-187.32 44.98-244.62-30.55-26.65-33.54-38.71-76.73-36.72-119.24V406.01c-20.75-17.7-37.65-39.92-48.97-64.75.06 64.7 0 129.41.02 194.11-.13 11.82.27 23.65 1.8 35.38 2.94 22.93 9.43 45.41 19.3 66.31 54.09 117.93 204.1 164.83 315.35 97.65 109.9-63.53 143.99-212.75 71.62-317.29-39.35-58.82-107.76-96.77-178.6-98.18-20.54-.24-41.08 0-61.62-.13-25.89-.11-49.32-20.81-52.88-46.41h-48.93m65.06 173.58c-.04 30.74 0 61.48-.02 92.22-.15 9.33.67 18.72 3.17 27.74 28.2 96.8 164.98 87.82 180.28-11.82 7.67-54.04-36.03-104.32-90.62-104.19-30.93-.72-62.31 2.43-92.82-3.94Z" data-name="#27acfeff" style="fill:#fff"/>
</svg>
