<svg xmlns="http://www.w3.org/2000/svg" viewBox="0 0 1024 1024">
   <circle cx="512" cy="512" r="512" style="fill:#004bef"/>
   <path d="M736.9 436.9c41.5 41.5 41.5 108.7 0 149.7L587.1 736.9c-41.5 41.5-108.7 41.5-149.8 0L287.1 587.1c-41.5-41.5-41.5-108.7 0-149.8l149.7-150.2c19.9-19.9 46.9-31.1 75.1-31.1s55.2 11.2 75.1 31.1l149.9 149.8zM624.7 549.5c10-9.9 15.6-23.5 15.6-37.5s-5.6-27.6-15.6-37.5l-75.1-75.1c-9.9-10-23.5-15.6-37.5-15.6-14.1 0-27.6 5.6-37.5 15.6l-75.1 75.1c-10 9.9-15.6 23.5-15.6 37.5s5.6 27.6 15.6 37.5l75.1 75.1c9.9 10 23.5 15.6 37.5 15.6s27.6-5.6 37.5-15.6l75.1-75.1z" style="fill:#fff"/>
</svg>
