<svg xmlns="http://www.w3.org/2000/svg" viewBox="0 0 1024 1024">
   <circle cx="512" cy="512" r="512" style="fill:#6c1f7e"/>
   <path d="M783.2 441.2c.6.1 1.6-.3 1.6.1.1-.4.7-.2 1.3-.2 1 0 1.8-.1 2.4.5.9.1 1.4-.3 2.2.2l1.1.1c.1.1.2.1.4 0 .1 0 .3 0 .4-.1h1.1c.1.1.5.2 1 .4l1.4-.2 1.3.2h1.5c.4 0 1 .3 1.4.3h5.4l1.9-.3 1.5.3c1.6 0 3.8 0 6.7.1.4.1.8.1.9 0 .4 0 .3-.4 1.3-.2-.3 0 .5.3.5-.2 0-.1.8-.1.9-.3h2.9c.4-.1.6-.1.8-.1.4 0 1.5.4 1.9.4l4.3-.2c.7.2 1.4.2 2.1.2h1.5c.4 0 1.1.1 2 .3.5 0 1.6-.3 2.1-.3l1.7-.1c0-.1 1.9.1 2.2-.1 1.8.1 3.2-.1 5-.1h4.4c1.9 0 4.5 0 8.2.1 0 .1 0 .1.1.2 0-.1 0-.1.1-.2.4.1.5.1 1.2 0 .4-.1 1.3 0 1.2-.1l.8-.1c.5-.1.9 0 1.9.1.4 0 .6-.1.6-.1.1 0 .5 0 .5.1.3 0 .5.1.5.2 0 .6.2.8.1.7v1c.1.1.1.5.3.9v2.6c.1 3 .1 4.6.1 4.7l-.3.2v.5c-.1.1-.1.3-.3.6l-.9.4H862c-.5 0-1.8-.2-2.3-.2h-5c-2.1 0-4.4.1-6.8.2-.9-.1-2.3-.1-4 0h-1.4c-.9-.1-1.3-.2-1-.2-.1 0-.8.2-1.1.2l-2.6-.2H835c-2.4.1-4.8.1-7.2 0-1.6-.1-2.6-.1-3.3 0h-3.1c-.1-.1-.5-.3-.9-.4-.4 0-1 .4-1.4.4-.4-.1-1-.1-1.8-.1-2.4 0-3.4 0-2.8.1-2.1-.3-4.3-.5-6.4-.6H805c-.3-.1-.6-.1-1-.1-.6-.1-1-.1-1.1 0-.1 0-.2 0-.4.1-.8.1-1.3.1-1.6 0-.6-.4-1.1-.6-1.3-.6h-.4c-.1.3-.3.4-.4.3 0 .6-.5.9-1.6.6-.1.3-.3.5-.6.9.1.2.5.2.6.7l.3-1.2c1.4-.1 2.4-.1 2.8.2.5-.1 1.1-.1 1.8 0 1 .1 1.6.2 1.9.2h6.5c.1.1.8.2 2.1.4h1l3 .6c.1-.1.5-.1 1-.1.9.1 1.9.4 4.3.5 0 .1 0 .1.1.1h.5c0 .1.3.3.9.4l.1.1c.4.1.9.1 1.6 0 .6-.1 1.5 0 2.6.1l5.3.5 2.6.5c1-.1 2.5 0 4.4.1l1.3.3h1.6c.1.1.5.2.9.4.8 0 1.8.1 3.1.3l3.8.6c1.1-.1 2.3-.1 3.4 0 2.1.1 2.9.1 2.3.3.9 0 2.1.2 3.5.6.6-.1 1.5-.1 2.6 0 .4 0 1.3.1 2.6.4.1.4.4.9.5 1.6-.1.5-.1 1.2-.1 2.4l.2 1.4c.1.9 0 1.7-.1 2.7.3 1.5-1.9 2.1-6.4 2.1h-1.3c-.9.2-2.6.5-5.4.7h-.3l-.1.1c-.6 0-1.4.1-2.4.2-.1.1-.4.2-.3.1-.9.3-1.7.3-3.6.3l-2.5.1-1.3.4c-.6-.1-1.6-.1-2.9 0-.1 0-.5 0-1 .1l-5.4.6c-.1-.1-.3-.3-.4-.1-.1 0-.1 0-.3.1h-2l-2.8.6h-1.1c-.4.1-1 .1-1.8.3h-1.4l-1.9.4h-.3l-1.4.1c-.3.1-.5.4-.9.3-.1-.1-.1-.1-.3-.1l-1.6.3c-.6-.1-1.6-.1-3-.1-.4.3-1.1 0-1.9.3-.1 0-.8.3-1.8.2-.1 0-.5 0-1.4-.1-1.4-.2-2.8-.5-3.5.2-.4-.1-.6.2-1.6.3h-.8c-.3 0-.8-.1-1.6.6h-.7c-.1 0-.3.1-.4.2-.1.3-.1.4.3.4 0 .1 0 .3.1.4.1 0 .3-.1.6-.4.1.1.4.1.6 0l.4-.1c.1 0 .5 0 1 .1.1 0 .4 0 .5-.1.1-.1.4-.1.5 0l.6-.5c.4 0 .5-.1.6-.3.4.1.9.4 1.5.5-.4-.1 0-.1.9-.1.1 0 .1 0 .2.1.3-.1.6-.1 1.1-.1h.2l.1-.1c.1 0 .8 0 1.9.1.5.1 1.1.1 1.6.1.3 0 .6 0 1.1-.1l.4-.3h.3l1.8-.4h.3c-.3 0 .4 0 1.9.1.1 0 .5 0 .9-.1h.8l5.3.2c.4 0 1 0 1.9-.1 0-.1 0-.1.1-.1v.1h1.4c.6.1 1.3.1 1.8.1h10.9c.3.1.5.1.6.1.3 0 .6 0 1.1-.1h1.3c.3 0 .8.1 1.4.3 1.4.1 2.6 0 4-.1.4-.1.9-.1 1.3 0 1.4-.1 3.5 0 6.4.1.1 0 .4 0 .5.1h.5c.1 0 .8-.1 1.9-.3.6-.1 1.3-.1 1.9 0 1.1.1 1.5.3 1.4.3.1-.1.2-.1.4-.1.1.1.5.1.9 0 .6.6 1 2.2.9 4.6 0 1.6 0 2.6.1 3l-.5 2.7c-.5.2-1.3.4-2.1.4h-.4c-.1-.1-.1-.1-.3-.1-.1 0-.1 0-.3.1h-.3c-3.1.1-4.3.1-3.6.1l-.1.1c-.1-.1-.9-.2-2-.2-.3 0-.5 0-.9.1h-.9c-.1 0-.6 0-1.6-.1-.6-.1-1.1-.1-1.6 0h-.4c-.3.2-.4.2-.5.1 0 0-1.8-.1-5.1-.2-2.4-.1-4.9-.1-7.7 0l-.1.1c-.4 0-1.4 0-2.8-.1-1.6 0-3.1.1-4.8.4-.6-.2-1.6-.2-3-.1-.1 0-.3 0-.3.1-.1 0-.3 0-.4-.1H825c-.5.1-.9.1-1.3.1s-.8 0-1.4-.1h-1.5v-.1l-.3.1c-.8 0-1.8 0-3.1.1h-.4c-.4 0-1 0-1.6-.1h-2.5c-.1-.1-.1-.1-.3-.1H811l-1.5.2c-.6-.1-1.6-.1-2.9-.1.1 0-.3 0-1.3-.1-1 .1-2.5.1-4.5.2h-.5c-.1 0-.4 0-.6-.1h-7.4c-.4 0-.6 0-.9.1-2.8.1-5.7.1-8.5 0-.6 0-1.9 0-3.5-.1l-.8-.9c0-.2 0-.5-.1-.9-.1-.1-.1-.2-.3-.6.1-2.1.1-3.6.1-4.5 0-6.4 0-10.2.1-11.2.1-.1 1.1-.6 2.9-1.2.6.1 1.6.1 3 0 .1-.1.2-.1.6-.2l6.4-.7h.5c.2 0 .8 0 1.4.1.2-.1.6-.1 1.1-.1h1.1c.1-.1.1-.1 0-.2.6 0 1.5 0 2.6-.1.5-.1 1.3-.4 2.4-.5.6.1 1.5.1 2.8 0 .4 0 .9-.1 1.8-.4.4.1.9.1 1.5 0h1.1c2.4.2 4.3.4 5.4.4h1.4l.5-.4.5.4h.3v-1c-.1-.1-.3-.1-.4 0l-.4.4c-.4.1 0-.6-.9-.6-.1.1-.5.1-.9 0-.1 0-.4 0-.8-.1-.7-.1-1.4-.1-1.9 0-.1.1-.4.1-.8.1-2.4.4-4.5.2-6.2-.1H802c-.1-.1-.3-.1-.4-.1l-2.6-.2-1.5-.3c-.1-.1-.4-.1-.8-.2-.9 0-2.1-.1-3.8-.2l-.6-.3c-1 0-3.3-.2-6.8-.6-.4 0-.9-.1-1.5-.5-1.2.1-2.3.1-3.5 0-.9 0-2.5 0-2.5-1.1 0 .8-.1-.9-.1-3.1v-.7c.1-.4.1-.6.1-.7 0-.7 0-1.6-.1-2.6v-.4c-.1-.1-.1-.1-.1-.2s0-.4.1-.6V450c-.1-1.6-.1-2.2-.1-1.7 0 0-.3-4 0-4.9.2-.9 1-1.7 1.9-1.8.4-.1 1-.2 1.9-.1.3-.1 1.2-.3 1.6-.3m65.1 65.7c-.2 0-.6-.1-1.1-.3h-.4c-.6 0-2.3.3-2.9.3-.5 0-1.5-.3-2-.3s-1.9.3-2.4.3c-2.6-.1-3.8-.1-3.5-.3l-3.1.3h-1c-.6-.1-1.9-.1-3.8 0h-3.3c-1.6.1-3.3.1-4.9 0l-.4-.3h-7.7l-2 .3c-.1-.1-.2-.1-.1-.3-.4 0-1.1.3-1.5.3-.6-.1-1.6-.1-3.1-.3-.5 0-1.9.3-2.4.3h-7.4l-.3.1c-.2 0-.8 0-1.4-.1-.7-.3-1.5-.3-2.3 0h-.4c-2.1.4-3.3 1.5-3.4 3.1 0-.5-.4 1.4 1.5 2.7 0 .6.6.7 5 .9 1.4.1 4 .1 7.7.2 1.4 0 4.5-.2 5.7-.2.3 0 .6 0 1 .1h2.5c1.1-.1 1.6-.1 1.5-.1l2.1.2c-.1 0 0 0 .3-.1h.4c.1 0 .2 0 .5.1h1c.1-.1.4-.1.5-.1.1.1.1.1.2.1h9c1.8-.1 2.4-.1 2-.1.6 0 2.4.3 3 .3h.8c.4-.1.6-.1.8-.1 1.1-.1 2.9 0 5.3.2h.9c.4-.1.8-.1 1-.1.3 0 .6 0 1 .1h.9c.1 0 .8 0 1.8-.1 2.1-.1 4.3-.3 6.1-.1.5.1.8.1.6.1l.1-.1c1.6.1 2.8 0 3.3-.1.1-.1.6-.4 1.3-.5.6-1.9 1-2.7 1-2.9-.1-.4-.4-1-.5-1.6 0-.6-.8-.5-2.5-1.9-.4.1-.9.1-1.5 0-.8-.1-1.3-.3-1.4-.3-.6.1-2.5.3-2.1.3m-24.5-12.1h2.5c1.8.3 3.3.3 4.6 0h.5c.4 0 .9 0 1.6.1-.4 0-.1 0 .8-.1h15.4c.6 0 1.6 0 3.1.1.1.1.5.1 1.1.2h.3c.1.1.3.1.6.2-.1 0 .3.1 1 .2l1.6.3c.1 0 .1 0 .3.1 1 0 1.1.1 3.8 2.1.1.2.5.5 1 .7l2.3 3.1v.5h.1v.2c.1.1.1.4.3.7h.1c.6 2.2.9 4.2.9 6.1-.1.6-.1 1.6-.3 2.9v.6l-.5 3c0 .6-.1 1.1-.3 1.2v.1l-.3.3c.1.1.1.1 0 .2l-.6.9c.1.1.1.2 0 .6-.1 0-.3 0-.4.1v.6l-.3.3-.3.2c-.1.5-1.9 2.2-2.6 3h-.1v.1h-.1l-.5.4h-.2v.1h-.3v.1h-.3v.2h-.6c-.2.4-.6.7-1.3.9-.1 0-1.1.1-3.1.5h-.3c0 .1 0 .1-.1.1s-.2 0-.2-.1h-.3c-.1 0-.1 0-.2.1-1.4.1-2.3.1-2.6 0-.4-.1-.5-.1-.4-.1-.1.1-.3.1-.4.1h-.8c-.1 0-.1 0-.2.1h-.9c-.1.1-.4.1-.6.1.6 0 .3 0-1.1-.1-1.4-.1-2.3-.1-2.6-.1l-2.5.2c-.6-.1-1.5-.1-2.8-.1h-.3c-.1.1-.3.1-.4.1-.4 0-1 0-1.9-.1l-.1-.1h-.1c-.4-.1-.8-.2-1-.2-.4 0-.8.1-1.4.2l-1.1.2c-1.1 0-2.8 0-4.9-.1-1.8.1-2.5.1-2.3.1h-2.5c-.6 0-1.8 0-3.6-.1-1.5-.1-2.6-.2-3.5-.1-.4.1-1.1.1-2.3.2h-3.9c-.5.1-.9.1-1.3.1-.1 0-.5 0-.9-.1H803c-.1 0-.1 0-.3-.1-.6-.1-1.3-.1-1.9 0 0 .1 0 .1-.1.1-.4.1-.8.1-1.4 0-.6-.1-1.1-.2-1.4-.2-.5 0-1.9.2-2.4.2.9-.1-.1-.1-2.8-.1-1.4 0-2.9-.1-4.4-.5l-2.9-.6c-.5-1-1-.7-2.9-1.6-.1 0-.6-.5-1.6-1.5-.1 0-.4-.1-.6-.2 0-.4-.3-1-.6-1.7l-.4-1.2c-.4-.7-.8-1.9-1.3-3.5v-.4c0-.5 0-1.2-.1-2.2v-.2l-.1-.1c0-.3 0-.5.1-.9v-.9c0-.1 0-.4-.1-.7 0-.4 0-1.2.1-2.6.1-.5.1-1 .1-1.6v-.4c.1-.1.1-.1.2-.1l.5-2 .3-.2v-.1l.1-.1c.1-.5.5-1.2.9-2.1l.3-.5.6-.5c.1 0 .1-.1.2-.3v-.1c.4-.1.8-.5 1.1-1l1.4-1 1.6-.6.1-.3c.1-.1.5-.2 1.4-.5.3-.1 1.4-.4 3.3-.7l2.3-.4c.6 0 2.5.3 3.1.3h6.3c.1 0 .6-.3.8-.3.1.1.4.1.8.3h2.4l.4-.3.3.3h1.5c.4 0 .6-.3.8-.3s.6.3.8.3h4.8c.6 0 2.5-.3 3.1-.3.5 0 1.8.3 2.4.3.5 0 1.9-.3 2.4-.3-.8 0-.3.2 1.6.3m-18.1 39.6h1.5c1.1.1 1.8.5 2.1.9v.6h.3v.6c-.1-.2-.1 1.4-.3 4.8.1.4.1 1 0 1.6l-.4 1.4v1.5c-.4.5-.6.9-1.1 1 .1 0-.5-.1-2-.3-1.1.1-2.6.1-4.6.1-2-.1-2.8-.1-2.3-.1-.5.1-1.3.1-2.3.3h-2.1c-.2 0-.6 0-1.1.1h-1.1c-2.3 0-3.1 0-2.8-.1-.2 0-1 .5-2.1 1.4-.1.1-.5.9-.5 1.7 0 .5.1 1 .5 1.6 0 0 .1 0 .3.1-.1.1-.1.1 0 .1l1.5 1.4.8.6c.3 0 .6 0 1.1-.1.1.1.3.1.4.1.1 0 .1 0 .3-.1h.4l1.6.4c.1 0 .8 0 1.9-.1.1 0 .6.1 1.5.4l1.4-.5c-.4.1.1.2 1.5.2-.1 0 0 0 .3-.1s1-.1 2.3 0c0 .1 0 .1.1.1h.3c.1-.1.1-.1.3-.1l6.3-.1c.1.1.1.1.3.1s.5 0 .9-.1h1.8c.4.1.6.1.8.1h.8c.4-.1.6-.1.9-.1-.5 0 .6 0 3.4.1-.3 0 .9 0 3.3-.1h.4c.1 0 .3 0 .4-.1.1.1.4.1.8.1.4-.1.9-.1 1.6-.3.1 0 .3 0 .4.1h1c.3-.1.4-.1.5-.1.2 0 .6 0 1 .1h1.3c.8.1 1.5.1 2.1.1.3.1.6.1 1 0 .5-.1.9-.1 1.1-.1.1 0 .4 0 .5.1h.6c1.3.1 2.6.1 4 0 .5-.1 1.3-.1 2.3-.3-.1 0 .1 0 .8.1 2.1.2 5.5.2 10.4 0 .4.1 1 .1 1.9 0 1 0 1.6-.3 1.8-1 0-.1.1-.2.2-.4.1.1.5-.6.5-.7.3-.8.1-1.5-.3-1.9l-.3-.2v-.3c0-.1-.1-.4-.4-.7.1-.1.1-.5 0-.9-1 .1-1.6 0-1.9-.4h-1c-.9-.2-2.1-.4-3.5-.2-.1.1-.6.2-1.4.2-.6 0-1-.1-1.3-.2H842c-.4.1-.6.2-.5.2-.1-.1-.2-.1-.6-.2-1.8.1-3.9 0-6.3-.1h-.6c-.4 0 0 .1-3.1 0-.3 0-1 0-2.3.1-.9.1-1.4.1-1.5-.1h-.2c-.4-.1-.8-.5-1.1-1 .1-1.1.1-1.7 0-1.9 0-.4-.8-1-.8-1.6 0-.4 0-.6.1-1v-.2c0-.3 0-.5-.1-.9v-.6c-.1-1.7-.2-2.7-.2-2.9-.1-.5.1-1.2.6-2.1.4-.1 1.4-.4 1.5-.4 0 0 .1 0 .2.1 1.4.1 2.6.2 3.5.1.1-.1.4-.1.6-.1-.5 0 .5 0 3.1.1.6-.1 1.4-.1 2.4 0h.4c.1.1.2.1.3.1l2-.2c.5 0 1.8.2 2.4.2 1.4-.1 3-.1 5-.1h1.1c.6.1 1 .1 1.3.1.3 0 .6 0 1.1-.1h1.2c.4 0 1.3 0 2.9.1.4.1.6.1.8.2h.4l.5.2c.5 0 1.3.1 2.1.4.3 0 .6.2 1.3.6.1.1.4.2 1 .4l.3.3h.1c.1.1.4.5 1 .9.5.4 1.4 1.1 2.3 2.5.4.4.8 1.5 1.1 1.9v.3h.1l.1.2c.1.1.3.5.4 1.1.1.1.1.2.1.4v.6c0 .1 0 .5.1 1 .1.1.4.7.4 4.1 0 1.7-.1 4-.5 6.6-.1.5-.6 1.5-1.3 3.1h-.1v.1c0 .1-.1.3-.3.4v.3l-.3.2c-.4.4-1.1 1.4-2.5 2.7-.4.1-.9.5-1.5 1.1-.2-.1-.6.1-1.2.5-.4.1-.5.5-1.6.6v.1c-.1 0-.3 0-.4.1h-.3l-1.3.5-2.4.1c0 .1 0 .1-.1.1-2 .1-3.5.2-4.6.2-.1-.1-.2-.1-.2-.1-.3.1-.6.1-1.1.1-.1-.1-.4-.1-.5-.1-.6-.1-1.3-.1-2-.1-.4.1-.9.1-1.4.1-.1-.1-.1-.1-.3-.1-.4-.1-.6-.1-.9 0-.1 0-.3 0-.4.1h-.3c-.1 0-.3 0-.4.1h-6.7c-1.9-.1-2.6-.1-2.3-.1l-12.9.1c-.3-.1-.5-.1-.6-.1-1.8 0-2.4 0-1.9.1-.1 0-.4 0-.8-.1h-4.9c-.4-.1-.9-.1-1.5-.1s-1.5 0-2.6.1l-.1-.1c.4 0 .1 0-.6.1h-.9c-.4 0-.9 0-1.5-.1h-1.4l-5.9.2c-.5 0-2.1-.2-2.8-.2-.4.1-1.1.1-2.3.2-.9.1-1.4.1-1.8-.1v-.2l-.4-.4c-.9.1-1.5 0-2.1-.5l-1.1.2c-.1-.1-.4-.1-.8-.2-.1 0-.1 0-.1-.1h-.6c-.1-.1-.6-.5-1.4-.9-.4.1-1-2-1.4-2.9h-.4c-.1-.1-.4-.7-.5-1.7 0-.4-1-.5-1-.9-.1-.3 0-.5.3-.7l-.6-2.7c-.4-.1-.6-1.4-.8-3.7 0-.1 0-.4-.1-.6v-1.5c.1-.6.1-1.6.3-3.2.1 0 0-1.6 0-1.6-.1-.6.9-1 .9-1 0-.1 0-.4.5-1.4.4 0 .5-.6.6-1.9 0-.1.3-1 .3-1.4h.3l.2-.1c.3-.1.4-.1.4-.2.1-.7.3-1.4.6-1.7.4 0 .9-.1 1.6-.2.1-.1.3-.4.6-.6.1 0 .3-.1.6-.3l.1-.1c.5-.4 1.2-.7 1.9-.9.2 0 .8.1 1.5.2.1-.1 1-.4 2.5-.5.4 0 .9 0 1.4-.1h5.1l.1-.1h1.3c.1 0 .1 0 .1-.1.4-.1.8-.1 1.4 0 .1 0 .4 0 .6.1h.8c-.3 0-.1 0 .5-.1.4-.1 1.4-.1 2.8 0 .1.2.4.2.6.3m54.2 37.7h3.3c.6 0 1.5.1 2.6.4.1.4.3.7.1 1.4l-.3 1.4v2.1c0 .6 0 1-.1 1.4v.4c0 .1.4 1 .4 1.4-.1.1-.1.3-.3.6h-.1c-.1.4-.3.5-.4.6l-.4.1c-.4.1-.5.4-.6.5-.4.1-.9.1-1.6 0h-4.4c-1.1-.1-1.5-.1-1.1-.1l-2 .2c-.9-.2-2.3-.4-4-.5-.6-.7-.9-1.5-.9-2.2 0-.1 0-.2.1-.5v-.4c0-.6 0-1.4.1-2.4.4-.2 1.3-.4 2.5-.2.1-.4 0-.7-.2-1.1-.3 0-.4.1-.5.3l-.1.3c-.4.1-.6.2-.8.2-.8 0-1.1-.5-1.1-1.4.1-.2.1-.4.1-.5l.3-.1v-.3l1-.9c.3-.1.9 0 1.9.1.8.1 1.4 0 1.8-.4.1 0 .4-.5.8-.5 1.7 0 3.1 0 3.9.1m-91.9 9.4c-.6.4-2.7.6-6.6.8-1 0-4.9.6-6.5.6l-2.7-.4c-.2 0-.6 0-1.2.2h-1c.2 0-.2 0-1.6-.2-.6 0-1.8-.2-2.7 0-.2.2-.8.2-1.4.4-.6 0-1.6-.4-2.3-.4h-1.4c-.4.2-1.2.2-2.3.4-.2 0-.8 0-1.4-.2h-5.5c-.2-.2-.4-.2-1-.4-.6.2-1.4.2-2.5.2-.2-.2-.8-.6-1.6-.8-.2-.4-.4-1-.4-2v-.4l-.2-.2c.2-.2.2-.6.2-1.4 0-1.8 0-2.4-.2-2v-1.8c.2-2 .2-4.8.2-8.7-.2-.2-.2-.8-.2-1.4v-1c-.2-.8-.2-1-.2-.6.4-1.8.6-3.2.6-4v-1.4c-.2-1-.2-1.4-.2-1.6.2-2.2.2-4.3.2-5.9-.2-3-.2-4.4-.2-4.6.2-1 .2-1.2.2-.6 0-1-.8-4.5-.8-6.3.2-.8.6-2 .8-3.6 0 1 0 .2-.2-2v-2l-.4-2.4v-1.4c.2-.6.2-1.2.2-1.4v-1.4c-.2-.6-.2-1.2-.2-1.4.2-7.9.2-14.3 0-19.4-.2-6.3-.2-9.5-.2-9.7l.2-5.9c0-.2 0-.4-.2-1v-1c0 .8 0 .2.2-1.6V461c0-.6-.2-3-.4-7.3-.2-1.2 0-6.3.5-8.3.1-.4-.1-1.9.4-2.6.4-.5 1.2-1 1.4-.8.2-.6 1.3-.1 2.5-.3l2.1-.1c1.2-.2 2.6-.1 4.2.1h.8c.2.2.4.2.6.2h.8c.2-.2.4-.2.6-.2h3.1c3.7-.2 5.1-.2 4.5-.2 1 .2 1.4.2 1.4.2l.2-.2c.2 0 .4 0 .8.2l3.7-.2c.1.1.2.2.4.2 1-.2 1.4-.2 1-.2h2.2c.8 0 1.9.2 2.1.4.2.6 1.1.4 1.6 0 .3-.3.8-.4 1.2-.4 1-.6 2.5.6 3.6.4 1 0 1.8.8 2.5 2.6 0 .8.4 3.5.2 4.5-.2.8-.2 3.6-.4 4.2-.2.8-.7 1.8-1.7 2h-2.7c-.2.2-.8.4-1.8.4-.6 0-1.4-.4-2-.4-.8.2-2 .3-3.6.5h-7.2c-.4.2-.8.6-1 1v.6c-.2-.2 0 .2-.2.2v.6c0 1.4-.2 3.2-.4 5.7-.2.2-.2.2-.2.4 0-1 0-.4.2 1.4.2 2.2.2 5.2 0 8.9l-.2.4c.2.2.2.4.2 1-.2.6-.2 1.6-.4 2.8 0 .2 0 .6.2 1.2v1.2c-.2 2-.2 3.8-.2 5.2.2.6.2 1.6.4 3-.2 1.4-.2 3.2-.2 5.9l.6 2.2h1.2c2.1-.2 3.7-.2 4.7 0 3.1.2 4.5.2 4.3.4h.4c.2-.4.6-.6 1-.6.6 0 1.2.6 1.4.8.6 0 1.6.2 2.7.8.8.8 1.2 2.8 1.2 3-.2.8-.2 1.6 0 2.2.4 3.4.2 5.7-.4 6.7v.2c-.2.6-1 1.2-2.9 1.8h-.4c-.2.2-2.7.4-7.4.6-.2.2-.4.2-.6.2h-.6c-.2-.2-.6-.2-.8-.2-.6 0-4.3-.2-4.9 2l-.2.2v1.6l-.2.2c.2-.4.2.8.4 3.6v1.4l-.4 2.8c0-.6 0 .2.2 2.4v1.6c.2 1 .4 1.8.4 2.6v1.2c0 .2 0 .2.2.4v1.4c-.2.4-.2.8-.2 1l-.4 4.4v.4l-.2.2c0-1.6.4 2.8.4 5.1.2 4.6.4 6.7.4 6.1l-.6 2.8c0-.2.2 1.6.4 5.5.2 0 .2 0 .2.2v1l.2.2v.6c-.2.2-.2.4-.2.6v1.2c0 .2 0 .4-.2 1 0-.2 0 0 .2 1-.2.6.4 1.2.6 1h4.9c1.4 0 3.5.2 5.9.4.6 0 1.2 0 1.2.2.6 0 1.1-.2 1.7-.2 0 0 .8-.1 2.5.5.6-.2 1.8.1 3.3.3.2 0 .2 0 .4.2l.4.4h.4c.2.4.2.8.4 1l.1.7.1-.3.2.7c0 .2 0 1.3.4 3.9.3 2.4-.1 4.7-.7 6.7m-77.9-100.8v-2.6c.2-.6.2-1.2.2-1.4 0-.6 0-2-.2-4.3 0-.6 0-2 .2-4.2 0-1.4 0-2.8-.2-4.3.2-.6.2-1.8 0-3.2l-1.4-4.4c-.6-.6-1.6-1.2-2.9-2-.4.4-1.2.6-2.3.6-.6 0-2.5-.8-3.3-.8l-1.8 1.2c.2 2 0 4.2-.2 6.5v3.2c0 .6 0 1 .2 1.4v1.4c0 .2 0 .4-.2.6v.8c0 2.2.4 7.9.4 10.3-.2.6-.2 1.6-.2 2.8 0 .2 0 .6.2 1.2v1.8c-.2.2-.2.4-.2.6-.2 2.2-.2 4.4 0 6.9-.2.8-.2 1.8-.2 3.2.2.2.2.2.2.4v.8c0 .8-.6 2.8-.6 3.6 1.4 0 3.1 0 4.9-.2.6.2 1.6.2 3.1 0l2.5-1.4c0-.6 1.8-4.9 1.8-7.1v-6.9c.2-1.6.2-2.8.2-3.4 0-.1 0-.5-.2-1.1m21 101.8c-3.1-.2-6.2-.2-9.4-.2-3.5.2-5.9.2-6.1 0v-.2c-.8 0-1.8.4-2.9.2l-.8-.8c-.2 0-.2 0-.2-.2-.6-1.8-.7-5.1-.9-9.9v-.2c-.2-.2-.2-.4-.2-.6.2-.2.2-.4.2-.2l-.4-1.8c.2-.8.2-2 .2-3.6l-1-4.4c0-.2 0-.8.2-1.8 0-.2.2-.8.4-1.8.2-.6.2-1 0-1.4 0-.2 0-.6-.2-1l.2-.4c0-.2 0-.8-.2-1.6v-2.2c0-.4 0-1 .2-2-.2-.6-.2-1.2-.2-2.2 0-.2 0-.6.2-1-.2-6.5-.2-12.7 0-18.6 0-3.6-.2-6.3-.6-7.7-.8-.6-2-1.4-3.9-2.4H681c-1.2-.2-2 .2-2.3.8v.2c-.2.6-.2 1 0 1.4.2 1.8.2 3.8.2 6.1v.4c.4 1.4.4 2.8 0 4v2c0-.6 0 1.4-.2 6.5-.2 3.2-.2 5.2 0 6.3.2 0 .2 0 .2.2-.2.2-.2.8 0 1.4l-.6 7.3v.6c.4 1.2.4 2.2.2 3.2-.4 1.2-.4 2.8-.2 4.8.2 1 .2 2.2 0 3.6 0 1 0 1.8.2 2.8.2.2.4.6.4 2.4 0 1-.8 3.8-.8 5.3.4 1.2.7 3.9.4 5.7-.2 1.3-3.1.4-8.6 1l-.2-.2-.6.4c-.6-.2-3.7-.2-2.7-.2-1.2 0-5.7 1-7.6-.2-.9-.5-.8-6.9-.6-7.9v-7.1c.2-2 .2-3.4 0-4.2v-4.2l.2-.2c-.2-.4-.2-1.4-.2-3.2V554c-.2-.4-.2-.8-.2-1l.4-2.6c0-.2 0-1.4-.2-3.8-.2-1.4-.2-2.2 0-2.4.2-1 .4-4.2.2-9.9 0-.2 0-.6.2-1 0-.2 0-.4-.2-.6v-.4l.4-2.6c0-.6-.2-1.6-.4-2.6 0-.2 0-.6.2-.8l-.2-.2c-.2-.4-.2-2 0-5.1l.2-.4c-.2-.2-.2-.4-.2-.4.2-.2.4-1.8.8-4.8l1-3.2c0-.6-.2-1.6-.6-2.8-.2-.2-.2-.4 0-.4.2-.2.2-.6.2-.8 0-.6-.4-1.8-.6-2.8-.2-.8-.2-1.8 0-3l.4-5.3c0-.6 0-1.2-.2-2.2.2.6.2-.8.2-3.8 0-1 0-2.2-.2-3.8-.2-1.4-.2-2.4 0-3.2.2-1.2.4-2.2.8-2.8-.2-.6-.4-1.6-.2-2.6.2-1.2.2-2.2.2-3l-.6-1.2.4-.6-.4-.4v-2.6c.2-.4.4-.6.4-.8-.2 0-.4-1.6-.4-4.6v-2.8l-.4-4.2v-2c.2-.8.2-1.4.2-1.8v-3c-.4-4-.2-6.7.6-7.9 1-.6 3.3-1 6.3-1.2 1.8.2 4.5.2 8 0 .4-.2.8-.4 1-.4-.2 0 1 0 3.7.2h.4l1.6.4h.4c.2-.2.4-.2.6-.2h3.1c.6 0 1.4 0 2.9.2h.8c0 .2.2.2.4.4.2-.2.6-.2 1.2 0 1.8 0 5.1 1 5.7 1.8.8.6 2.3 2.2 5.7 2.2.4.6 1 1.2 2 2 .2-.2.4-.2.6 0v.2c.6.6 1.2 1.2 1.8 1.4l1.8 3.6c.2.2.2.2.4.2-.2.2-.2.6 0 1 .2 0 .2.2.2.4v.4l.4.6v.2c.2.2.6 1.6.8 4.1.2.6.2 1.6.4 2.8-.2.6-.2 1.4-.2 2.8.2.4.4 1.4.6 2.8.2.6.2 1.6 0 2.8-.2.4-.2 1.2-.4 2.6.2 3.8 0 9.7-.2 17.6 0 1-.2 2.8-.6 5.2 0 .2-.2.4-.4.6l-1 3.4c-.2-.2-.2-.2-.4 0v.2c-.4.6-.8.8-1.2.8l-.8 1.4c0 .6-.4.8-.6 1v.4c-.8.6-2.2 1.2-4.1 2-.4 0-.8.2-1.4.6.2-.2 1.2.8 3.3 3 1 .8 1.8 1.6 2.5 2.4 0 .2.8.8 1.8 3.2l1 1c-.2.4 0 .8.4 1.2 0 .8 1 4.3 1 5.1 0 1.8 0 3 .2 3.6-.2.4-.2 1-.2 2 0 .4 0 1 .2 2 0 .2 0 1.4-.2 3.6.2.2.2.6.2 1.2-.2.6-.2 1.2-.2 2l.4 2.8c-.2 0-.2 0-.2.2v1c-.2 5.4 0 12.1.2 19.6l1.4 9.7c.2 1.2.8 2.2 1 3.2 1 5 .4 7.1.5 6.7.3.3-.3.5-1.7.7M647 531.4c0 .6 0 1-.2 1.4v7.5c-.2.4-.4.8-.4 1.4.2.2.2.4.4 1-.2 1-.2 2.2 0 4v9.1c.4 2.4.2 5.5-.4 9.3v.6l-.4.4c0 .8 0 1.8-.2 3.2-.2 0-.4.2-.4.4v.2c-1 1-1.2 2-1.4 3.6-.2 0-.6.4-1 1.2-.6.2-1.2 1-2 2.4-.4.2-1 .8-1.6 1.6-.8.2-1.8 1-4.3 2 0 .2 0 .2-.2.2h-.6c0 .2-.6.4-1.6.6l-.2.2h-.2l-2.5.6h-.8c-1.2 0-3.5 0-7 .2h-.4c-1.4.2-2.7.4-3.7.2-.2 0-.2 0-.2-.2-1 0-2.7-.2-4.9-.6l-.4-.2c-1.8-.2-3.9-1-6.1-2h-.4c-.4 0-.8-.2-1-.6h-1v-.4c-.2 0-.6-.4-1.2-1-.4 0-1-.6-1.8-1.6 0 0-.8-1-2.7-3v-.4c-.2 0-.4 0-.4-.2l-.4-.8c0-.2 0-.2-.2-.4v-.3l-1.4-2.8c0-1-.2-2.2-.4-3.8 0-.2 0-.4-.2-.6v-.2l.2-.2v-.4l-.2-.2V561c-.2-.6-.2-1.6-.2-2.8v-.6c-.2-.4-.2-.6-.2-.8 0-.2 0-.4.2-.8v-5.4c0-1 0-1.2-.2-1 .2-.4.2-2 .2-4.8 0-5.5 0-9.7-.2-12.7s-.2-4.8 0-5.7c.2-.2.2-.2.2-.4 0-.6 0-1.6-.2-3 .2-.6.2-1.6.4-2.8 0 .6 0 .2-.2-1.2v-1.4l-.2-4.2.4-1.6c-.2-.6-.2-1.8-.2-3.2V507c0 1.8.2-1.8.4-10.5v-2.4c-.2-2.2-.2-3.2-.2-2.6v-1.6c.2-.8.2-1.4.2-1.6v-6.5c0-.2 0-.4.2-.6v-.8c0-.2 0-.8-.2-1.4v-3.2c0-.4 0-1 .2-1.6v-1.4c-.2-.6-.2-1.6-.2-3 .2-.2.2-.6.2-1.2v-.8c-.2-.2-.2-.4-.2-.6.2-.4.2-1 .2-1.6v-5c-.2-.2-.2-.2-.2-.4.2-.6.2-1.2.2-2.2v-9.7c0-.4.2-1.2.4-2.6 0-.6.2-1.6.6-2.6.2-.6 2.3-1 6.1-.8 0 .2 0 .2.2.2h1.8c1-.2 1.6-.2 2.1-.2.2 0 .6 0 .8.2h1c1.4-.2 3.5 0 5.9.4.6 1.4.8 2.4.6 2.8l-.2.2.6 2.8c-.2 1-.2 2.2-.2 4 .2.2.2.2.2.4v.8c0 1 0 2.2-.2 3.6v4.6l-.2.2c.2 1.2.2 2.6.2 4.2.2.4 0 1.2-.2 2.2-.2.8-.2 1.8 0 2.8.2.4.2.4.2.2s0 0-.2.6c.2.2.2.4 0 .8-.2.8-.2 1.2-.2 1.2.2.2.2.4.2.6.2.8.2 1.4.2 2-.2.8-.2 2-.4 3.4 0 .8.4 2.6.4 3.4.2.6.2 2.8 0 6.7 0 1-.2 3-.4 6.1 0-1.4 0-.4.2 3v3c.2 4.2.2 7.1 0 8.1 0 .2 0 .4-.2.8v4c.2.6.2 1.4.4 2.6-.2 3.8-.4 9.3-.4 16.6.2.4.2 1.4.4 2.8.2 1 .2 2.2 0 3.8-.2 2.4-.2 3.8-.2 4v4c0 .2 0 .6.2 1v.8c0 .2 0 .6-.2.8.2 1.2.4 3 .4 5.7v.6c-.2 1-.4 1.6-.4 2l.8 4 1 1c.2.2.2.2.4.2v.4c1 1 1.8 1.4 2.7 1.4 1 .2 2.1 0 3.1-.4l.4-.4c.2-.2.4-.4 1-.6l.6-1c.2 0 .2 0 .4-.2.6-1 .8-2.6 1-5.3 0-.2 0-.4.2-.6v-.6c-.2 0-.2 0-.2-.2v-.8c.2-1.4.2-3 .2-5.3 0-.2 0-1.2-.2-2.6v-4l.4-1.8s0-.4-.2-1.4v-.8c-.2-1-.2-2-.2-3.4 0-.6 0-1.6-.2-2.8v-2.8c.2-1 .2-2.4.4-4.4V519c0-.4 0-1.4-.2-2.8V512c0 .4 0-.8.2-3.8v-6.3c.2 0 .2 0 .2-.2-.2-.8-.2-1.2-.2-1-.2-1.4-.2-3.2 0-5.9.2-2 .2-4.9 0-8.3 0-1 0-2.2.2-4.1-.2 0-.2 0-.2-.2v-1.4c.2-.2.2-3.2.2-9.1v-2c.2-1 .2-1.6.2-2 0-.2 0-1-.2-2 0-1.4 0-2.8.2-4v-9.3l-.2-.2v-1.6c0-1 0-1.6.2-2.2.2 0 .2 0 .2-.2v-.6c.4-.2.6-1 .4-2-.2-1.2-.2-2 0-2.4.8-1 2-1.4 3.5-1.4 1 0 3.7.4 4.7.4 1.6-.2 4.1-.2 7.4 0h1l1.6 1c.2.2.2 1 .4 2.8.2 0 .2 0 .4.2v3c-.2 1-.6 2.2-.8 3.8.2 1.4.2 3.2.4 5.9-.2.8-.2 1.4-.4 1.8-.2 1.2-.2 2 0 2.4.8 3.6 1 6.7.8 9.1-.2.2-.2.6-.4 1.2v1.8c.2 1.8.2 3.6 0 5.4-.2 0-.2 0 0 .2 0 1.8.4 4.2.4 5.7v1c-.2.2-.2.8-.4 1.6v2.8c.2.2.2.8.4 2-.2 1.8-.2 4.2 0 7.1v.6c-.2.6-.2.8 0 1v1.4c-.2 0-.2 0-.4.2v.6c-.2.2-.2.8 0 1.8 0 .6.2 1.4.4 2.4 0 .8-.4 2.8-.4 3.6 0 1.4.4 5.7.4 7.5-.2 1-.2 1.6-.2 2.2-.2.4-.2.4-.2-.2l.4 4v.2c.2-.6.2.6.2 3.6v1.5zm-62-79.7s-.4.8-1 2.2l-.6 1.6c-1 0-3.7 1-4.7 1l-2.9-1c-.2-.2-.6-.2-1.6 0-1.6.2-2.7 1.2-3.1 3 0 .4 0 1-.2 2l-.4 1.6c0 1 .4 3.8.4 4.7 0 .4 0 1.6-.2 3.4v2.4c-.2.2-.2.6-.2.8 0 1 .4 3.8.4 4.9l-.6 4.9.4 7.3c0 .4-.2 1.4-.4 3-.2 1 0 2 .2 3 .2 0 .2 0 .2.2V507c-.2.6-.2 1.2-.2 1.4 0 .2 0 .8.2 1.6v11.3c.2 1.4.4 2 .4 1.6l-1 3.6v1c.2.6.2 1 .2 1.2-.2.4-.2 1-.2 2 .4.8.8 1.8 1.2 3.2 0 .6-.6 2.6-.6 3.4l.6 4.5c-.2 1.4-.4 2.4-.8 3.4 0 .6.6 2.2.6 2.8 0-.4-.2.4-.4 2.6-.2.6-.2 1.2 0 1.6 0 2.2.2 5.5.4 9.7.2 2.6 0 6.7 0 6.7-.5 4 .2 7.9-.2 9-.5 1.4.3 4.5-.7 4.3l-7 .7h-1c-.4-.2-1-.6-2.1-.8-.6 0-2.2.8-3.1.8-.6 0-1.4-.2-2.5-.8h-1.6c-1-.4-1.4-1.4-1.6-2.8.2-1.4.2-3.2 0-5.7-.2-2-.2-2.8-.2-2.4v-1.6c.2-1.4.4-1.8.4-1.2-.2-.8-.6-1.8-.8-3.2 0-1 .2-1.6.4-2.2.2 0 .2 0 .2-.2.2-1.4.2-3.2.2-5.1v-4.3c.4-1.6.6-3 .6-4.1-.2-.2-.4-1.4-.6-4.9 0-.2 0-.2-.2-.4v-2.8c.2-1 .2-1.6 0-2-.2-.8-.2-1.4-.2-1.8v-.1l.4-2.4c0 .6 0-.6-.2-4.1.2-.6.2-1.4.2-2.6 0-.4-.2-1-.4-2 .2-.2.2-.4.2-1 0-.2 0-.4-.2-.6 0-.6 0-1.6.2-3 0-.2 0-.8-.2-1.6 0 0 .4-.4.4-1-.2-.2-.2-.6-.2-1s.2-1 .4-1.8c-.2-.6-.4-2-.6-4.5v-5.1c.2-1.2.2-2.4 0-3.9v-6.5c0-.2-.4-1.2-.4-1.4l.6-4.3c0 .6 0 0-.2-1.6.2-.2.2-.8 0-1.4-.2-1.2-.4-2.4-.4-3.6l.6-3.9c.2-1 .2-2.2 0-3.6-.2-2.2-.2-3.6-.2-3.8 0-3 0-4.3.2-3.6 0-.6-.2-1.4-.6-2l.4-1v-1.4c0-.6-.2-1.2-.4-2.2.2-1.2.2-3 0-5.3-.2-.4-.8-1-1.6-1.6-.4-.2-1-.2-1.8 0-.2.2-.4.2-.6.2-2.2 0-4.5 0-7-.2l-.4-.4h-.3c-.2-.6-.8-1-1.6-1.4 0-.8-.2-1.8-.4-3.3 0 0-.4-.8-.4-1.4 0 .2.2-.4.4-1.4l.8-2.2.4-.6v-.4c.2 0 .2 0 .4-.2-.2-.2-.2-.4 0-.8l1-1.2c.8-.2 2.5-.2 4.7-.2 3.9-.2 8-.2 12.1 0 .2 0 1 0 2.3.2.6.2 1.2.2 1.6 0 0-.2.8-.2 3.3-.4 1-.2 2.5-.2 4.7 0l2.9.6c2.3-.2 5.5-.2 10.2 0 .4.2 1.2.8 2.7 1.4.2.8.6 1.5 1 2.2 0 1 0 1.8-.2 2.4-.2.2-.2.4-.4 1l.5 2.6zm-56.7 79.7c0 .6 0 1-.2 1.4v7.5c-.2.4-.4.8-.4 1.4.2.2.2.4.4 1-.2 1-.2 2.2 0 4v9.1c.4 2.4.2 5.5-.4 9.3v.6l-.4.4c0 .8 0 1.8-.2 3.2-.2 0-.4.2-.4.4v.2c-1 1-1.2 2-1.4 3.6-.2 0-.6.4-1 1.2-.6.2-1.2 1-2 2.4-.4.2-1 .8-1.6 1.6-.8.2-1.8 1-4.3 2 0 .2 0 .2-.2.2h-.6c0 .2-.6.4-1.6.6l-.2.2h-.2l-2.5.6h-.6c-1.2 0-3.5 0-7 .2h-.5c-1.4.2-2.7.4-3.7.2-.2 0-.2 0-.2-.2-1 0-2.6-.2-4.9-.6l-.4-.2c-1.8-.2-3.9-1-6.1-2h-.4c-.4 0-.8-.2-1-.6h-1v-.4c-.2 0-.6-.4-1.2-1-.4 0-1-.6-1.8-1.6 0 0-.8-1-2.7-3v-.4c-.2 0-.4 0-.4-.2l-.4-.8c0-.2 0-.2-.2-.4v-.3l-1.4-2.8c0-1-.2-2.2-.4-3.8 0-.2 0-.4-.2-.6v-.2l.2-.2v-.4l-.2-.2V561c-.2-.6-.2-1.6-.2-2.8v-.6c-.2-.4-.2-.6-.2-.8 0-.2 0-.4.2-.8v-5.4c0-1 0-1.2-.2-1 .2-.4.2-2 .2-4.8 0-5.5 0-9.7-.2-12.7s-.2-4.8 0-5.7c.2-.2.2-.2.2-.4 0-.6 0-1.6-.2-3 .2-.6.2-1.6.4-2.8 0 .6 0 .2-.2-1.2v-1.4l-.2-4.2.4-1.6c-.2-.6-.2-1.8-.2-3.2V507c0 1.8.2-1.8.4-10.5v-2.4c-.2-2.2-.2-3.2-.2-2.6v-1.6c.2-.8.2-1.4.2-1.6v-6.5c0-.2 0-.4.2-.6v-.8c0-.2 0-.8-.2-1.4v-3.2c0-.4 0-1 .2-1.6v-1.4c-.2-.6-.2-1.6-.2-3 .2-.2.2-.6.2-1.2v-.8c-.2-.2-.2-.4-.2-.6.2-.4.2-1 .2-1.6v-5c-.2-.2-.2-.2-.2-.4.2-.6.2-1.2.2-2.2l-.2-10.2c0-.4.2-1.2.4-2.6 0-.6.2-1.6.6-2.6.2-.6 2.3-1 6.1-.8 0 .2 0 .2.2.2h1.8c1-.2 1.6-.2 2.1-.2.2 0 .6 0 .8.2h1c1.4-.2 3.5 0 5.9.4.6 1.4.8 2.4.6 2.8l-.2.2.6 2.8c-.2 1 0 2.7 0 4.5.2.2.2.2.2.4v.8c0 1 0 2.2-.2 3.6v4.7l-.2.2c.2 1.2.2 2.6.2 4.2.2.4 0 1.2-.2 2.2-.2.8-.2 1.8 0 2.8.2.4.2.4.2.2s0 0-.2.6c.2.2.2.4 0 .8-.2.8-.2 1.2-.2 1.2.2.2.2.4.2.6.2.8.2 1.4.2 2-.2.8-.2 2-.4 3.4 0 .8.4 2.6.4 3.4.2.6.2 2.8 0 6.7 0 1-.2 3-.4 6.1 0-1.4 0-.4.2 3v3c.2 4.2.2 7.1 0 8.1 0 .2 0 .4-.2.8v4c.2.6.2 1.4.4 2.6-.3 5.5-.4 11-.4 16.6.2.4.2 1.4.4 2.8.2 1 .2 2.2 0 3.8-.2 2.4-.2 3.8-.2 4v4c0 .2 0 .6.2 1v.8c0 .2 0 .6-.2.8.2 1.2.4 3 .4 5.7v.6c-.2 1-.4 1.6-.4 2l.8 4 1 1c.2.2.2.2.4.2v.4c1 1 1.8 1.4 2.7 1.4 1 .2 2.1 0 3.1-.4l.4-.4c.2-.2.4-.4 1-.6l.6-1c.2 0 .2 0 .4-.2.6-1 .8-2.6 1-5.3 0-.2 0-.4.2-.6v-.6c-.2 0-.2 0-.2-.2v-.8c.2-1.4.2-3 .2-5.3 0-.2 0-1.2-.2-2.6v-4l.4-1.8s0-.4-.2-1.4v-.8c-.2-1-.2-2-.2-3.4 0-.6 0-1.6-.2-2.8v-2.8c.2-1 .2-2.4.4-4.4v-8.7c0-.4 0-1.4-.2-2.8V512c0 .4 0-.8.2-3.8v-6.3c.2 0 .2 0 .2-.2-.2-.8-.2-1.2-.2-1-.2-1.4-.2-3.2 0-5.9.2-2 .2-4.9 0-8.3 0-1 0-2.2.2-4.1-.2 0-.2 0-.2-.2v-1.4c.2-.2.2-3.2.2-9.1v-2c.2-1 .2-1.6.2-2 0-.2 0-1-.2-2 0-1.4 0-2.8.2-4v-9.3c-.2-.2-.4-.7-.4-.7v-1.6c0-1 0-1.6.2-2.2.2 0 .2 0 .2-.2v-.6c.4-.2.6-1 .4-2-.2-1.2-.2-2 0-2.4.8-1 2-1.4 3.5-1.4 1 0 3.7.4 4.7.4 1.6-.2 4.1-.2 7.4 0h1l1.6 1c.2.2.2 1 .4 2.8.2 0 .2 0 .4.2v3c-.2 1-.4 2.7-.6 4.3.2 1.4.2 3.2.4 5.9-.2.8-.2 1.4-.4 1.8-.2 1.2-.2 2 0 2.4.8 3.6 1 6.7.8 9.1-.2.2-.2.6-.4 1.2v1.8c.2 1.8.2 3.6 0 5.4-.2 0-.2 0 0 .2 0 1.8.4 4.2.4 5.7v1c-.2.2-.2.8-.4 1.6v2.8c.2.2.2.8.4 2-.2 1.8-.2 4.2 0 7.1v.6c-.2.6-.2.8 0 1v1.4c-.2 0-.2 0-.4.2v.6c-.2.2-.2.8 0 1.8 0 .6.2 1.4.4 2.4 0 .8-.4 2.8-.4 3.6 0 1.4.4 5.7.4 7.5-.2 1-.2 1.6-.2 2.2-.2.4-.2.4-.2-.2l.4 4v.2c.2-.6.2.6.2 3.6v1.5zm-62.6-83.7h-.2c0 1.6-.2 4-.6 7.5-.6.2-2.1.4-4.3.4-7-.2-11.1-.2-12.1 0-1.8 0-2.7.6-2.5 2 0 .2 0 .2 0 0 0 4.7-.2 3.8 0 4.7v6.7l.4 2.8.2.2c.2.6.2 1.4 0 2l-.6 5.1c0 .2 0 1 .2 2.4.2.2.2.4.2.8 0-.4 0-.2-.2.8-.2 1.4-.2 2.6 0 3.4.4 1 .6 1.8.6 2.4 0 .8-.8 1.2-.8 3v2.4c0 1.4-.2 2.2-.8 2.4 0 .2.2.4.8.8l.4.4c.8 0 2.9-.4 3.7-.4h2.3c3.1.2 4.7.4 4.9.4 2.1-.2 2.9-.2 2.5-.4.6.2 1.2.8 1.6 1.4.6-.2 1-.4 1.2-.4.6 0 .8.2 1 .8-.2 1-.2 2.2-.2 3.8.2.2.2.4.2.2v2.2h-.2l-.4 2c.2 0 .4.4 1 1.2.2.2.2 1 0 2.2l-1.8 2-.6.4-1.8.2c-2.1.2-5.3.2-9.8 0h-3.3c-.6.2-.8.4-.6.4l-.4.8v6.1c.2 1.4.4 2.6.4 3.4v6.1c-.2 0-.4.2-.4.6v1.4s-.4.8-.4 1l.4.8v.6c.2 3 .4 6.9.4 11.5v15.5l.4.6-.2 3.6c.2 1.6 0 3.8-.2 6.9l-.4 1.2c.2.4.2 1 .4 1.8-.2.4-.4 1-.4 1.8v.8c0 1.8-1.2 2.4-2.9 3.6-.2.2-2.9.2-8.4 0-2.5 0-4.9 0-7.6-.2 0-.2-.2-.4-.8-.6-.6-1.8-.8-3.2-.8-4.2v-.2c.2-.6.2-1.2.2-2.2v-5.2c0-2.6 0-3.4.2-2.4 0-.2-.2-.8-.4-1.8-.2-.6-.2-1.2 0-2 .2-.2.2-1 .4-2.2 0 .2 0 0-.2-1 .2-.6.2-1.8.2-3.2h-.2v-.6s0-.2-.2-.4v-.8c.2-.6.2-1.4.2-2.4v-4.8c.2-1 .2-2.4.4-4.5 0-1.4-.6-4.8-.6-6.3.2.6.2-3.8.4-13.1 0-3 0-6.7-.2-10.5-.2-1.4-.2-2.4 0-3.4v-1c.2-1 .4-2.8.2-5.3V501h.2v-.4c-.2 1-.2-.6-.2-4.8 0-.8 0-2.4.2-4.8.2-2 .2-3.6.2-4.6v-.8c-.2-.2-.2-.4-.2-.6.2-.2.2-.6.2-1.2l.2-.2c.2-1 0-2.2-.4-3.6v-5.1c-.2-.6-.2-1.8-.4-3.2 0 .8 0 .2.2-1.6.2-.8.2-2.8 0-5.9v-5.7c0-2.2 0-3.8-.2-5.1v-.6c.2-.8.2-1 .2-.8v-.8c.2-.2 0-.4-.2-.6v-.6c0-.2 0-.2-.2-.2 0-1.4.8-3.3.5-4.9-.2-1-.4-2-.4-2.6.2-.4.6-.4 1-.2l.7-.2.4-.2.2-.2c.4-.2 1.2-.2 2.3 0 1 0 3.7.6 4.3.2h.2l.2-.2h1.2c.2.2.4.2 1 .4h1.2c1.6.2 2.5 0 2.7-.2 1-.2 1.6-.4 2-.4v.2h.8c.4 0 1 .4 2.1 1 0 .2.4 0 .4 0l.6-.4 1-.6h.8c.2 0 .6-.2 1.4.4.2-.2 1.4-.2 3.7-.2 2.9-.2 5.1-.2 6.7 0 .2.2.8.2 1.6.2.6-.2 1.2-.2 2.1-.2.6 0 1 .2 1.6.6v3h-.2c-.2.2-.2.4-.2 1-.2.2 0 .6.4 1l.2.4zm-52.8 6.4v.7c.1.2.1.6.2 1.1 0 .1 0 .4-.1.7v2.7c-.1.1-.1.2-.2.5.1.3.1.7.1 1.2-.1.1-.2.4-.3.8-.2.1-.4.2-.8.2h-.2l-.1.1c-.1-.1-.2-.1-.5-.1-.7 0-.9 0-.8.1h-.7c-.8-.1-1.9-.1-3.3-.1-.1.1-.3.1-.5.1h-.4c-.2.1-.3.1-.3.1-.7-.2-1.2-.3-1.5-.3h-.5c-.4.1-.5.1-.6.1-.8-.1-1.6-.1-2.2-.1-1.2.1-1.7.1-1.8.1-.2 0-.3-.1-.3-.1-.5 0-1.6.4-2.3.4-.3-.1-.8-.3-1.3-.4h-.1.1c-.1 0-.4 0-.8.1h-.8l-.9.2h-.5c-.2-.1-.5-.1-.5-.1h-.5c-.2.1-.4.1-.5.1-3-.1-5.5-.1-7.4 0-2.4.1-3.6.1-3.7.1l-2.2-.1c-.1 0-.2 0-.4.1h-.4c.3 0 .1 0-.6-.1h-8.6c-.2 0-1.2.1-2.8.2-.5.1-1.7-.1-3.6-.4-.1-.2-.2-.4-.2-.5 0-.2 0-.4.1-.5-.3-.2-.6-.4-.8-.7l.2-1.3c-.1-.7-.1-1.4-.1-2.1v-.4c.1-.1.1-.2.1-.3v-.4c-.1-.1-.1-.2-.1-.3V454c-.1-1.3-.1-2-.1-2.2.1-.5.1-.7.1-.7l-.1-.1c0-.1 0-.2.1-.4l-.1-1.8c.1-.1.1-.2.1-.2-.1-.5-.1-.7-.1-.5V447c0-.4.2-1.1.3-1.2.2-.1.5-.2.7-.5-.2.1-.5.1-.8-.1-.1-.2-.2-.4-.2-.6-.2-.5.4-.7.5-.8-.3-.1-.5-.4-.5-.9s.3-.9 1-1.2c.3 0 1.3-.4 1.7-.3.1.1.2.4.3 1l.6-.3.1-.2h.2c.1-.1.2-.2.4-.1.3.1.5.3.6.8v1.3c.1.1.1.4.1.9 0 .3-.1.7-.1 1 .1.4.2 1 .3 1.8v3.5c.1.2.2.4.4.5h.2c.1 0 .1 0 .1.1h.2c.5 0 1.2.1 2.2.2l.1.1c-.2 0-.2 0 0 0 .1 0 .3 0 .6-.1.8-.1 2-.1 3.4 0l.2.1c.1-.1.1-.1.4-.1.2.1.6.1 1.1.2.1 0 .2 0 .5-.1h.5c.8.1 1.5.1 2 .1.2-.1.6-.1 1.2-.2.5.1 1.2.1 2.2.1l.8-.3v-.6c-.1-1-.1-1.8 0-2.3.1-1.5.1-2.2.2-2.1v-.2c-.2-.1-.2-.3-.2-.5 0-.3.2-.6.3-.7 0-.3.1-.8.3-1.3.3-.4 1.1-.6 1.1-.6.3.1.6.1.9 0 1.3-.2 2.2-.1 2.6.2h.1c.2.1.5.5.7 1.4v.2c.1.1.1 1.3.2 3.5.1.1.1.2.1.3v.3c-.1.1-.1.3-.1.4 0 .3-.1 2.1.8 2.3l.1.1h.6l.1.1c-.2-.1.3-.1 1.4-.2h.5l1.1.2c-.2 0 .1 0 .9-.1h.6c.4-.1.7-.2 1-.2h.5c.1 0 .1 0 .1-.1h.5c.2.1.3.1.4.1l1.7.2h.2c-.1 0-.1 0 0 0 .6-.1 1.3-.1 2-.2 1.8-.1 2.6-.2 2.3-.2l1.1.3c-.1 0 .6-.1 2.1-.2 0-.1 0-.1.1-.1h.4l.1-.1h.2c.1.1.2.1.2.1h.5c.1 0 .2 0 .4.1-.1 0 0 0 .4-.1.2.1.5.2.5.5.1-.1.2-.1.3 0 .1-.1.1-.2.1-.3-.1 0-.2-.1-.5-.3 0-.1 0-.1-.1-.2V449c0-.7.1-1.7.1-2.9 0-.3.1-.4.2-.4 0-.3-.2-.7-.2-1l.3-1.2c-.1-.3-.1-.9 0-1.6 0-.1 0-.1.1-.2l.2-.2v-.2c.2-.1.3-.1.4-.2h.2v-.1h.2c.1 0 .6-.1 1.6-.3.8-.1 1.7.1 2.5.4.2.3.2 1.3.3 3.1 0 .5.2 2.4.2 3.1l-.2 1.3c0 .1 0 .3.1.6v.5c0-.1 0 .1-.1.8 0 .3-.1.9 0 1.3.1.1.1.4.2.7-.5.8-.7 1.3-.7 1.6m.3 33.5-.1 1.3c0 .9 0 1.5-.6 1.9l-.1.2c-.3.2-.7.3-1.1.3h-.5c-.2 0-.3 0-.5-.1h-1.1c-.1.1-.1.3-.2.4-.2-.1-.3-.3-.4-.4h-.7c-.5 0-1.2 0-1.7-.1h-.8s-.2.1-.4.1l-.6.4c-.4.1-.6.1-.7 0 0-.1.1-.2.1-.3-.2 0-.5 0-.8-.1h-.5c0-.1-.1-.1-.2-.2h-.2c-.1 0-.1 0-.1-.1-.1 0-.3 0-.6.1h-.6c-.1 0-.2 0-.4-.1h-.7c-.2.1-.2.1-.3.1h-.8c-.5 0-.9 0-1.2.1h-.2l-1.1-.2H395c-.2-.1-.6-.1-1-.1-.1 0-.3 0-.4.1h-.9c-.1-.1-.3-.1-.5-.1h-1.9c-.1 0-.1 0-.2-.1-.7.1-1.7.1-3 .2-.2 0-.5 0-.8-.1v-.1c-.1.1-.2.1-.5 0h-1.7c-.1-.1-.1-.1-.2-.1s-.2 0-.5.1c-.2.1-.4.1-.5 0l-1.1-.3c-.2.1-.6.1-1.1 0l-.9-.3c-.3 0-.9.2-1.2.2H377c-.1-.1-.3-.1-.5-.2h-.8c-.1.1-.2.1-.5.2l-4.5.1c-.5 0-1-.1-1.7-.4-.3-.1-.5-.2-.6-.5-.1-.9-.2-1.1-.3-.8.1-.4.1-.5.1-.4-.2 0-.6-.2-.8-.2-.1.1-.1.2-.1.3.2.1.3.4.3.9 0 .1-.1.3-.4.4-.1 0-.1 0-.2.1-.5 0-.9-.1-1.5-.2-.2-.1-.4-.1-.5 0-.1 0-.1 0-.1.1h-.1c-.1 0-.3.1-.5.2-.1 0-.4.1-.9.2-.2 0-.4 0-.6.1H361c-.4-.2-.8-.3-1-.3-.2 0-.5-1.1-.6-3.3v-.2l-.1-.1c0-.1 0-.3.1-.4v-1.1c.1-.2.1-.5.1-1-.1-.7 0-1.8.1-3l1.2-.4h.1c.1-.1.5-.2 1-.3h3.8c.1.1.4.1.7.2-.2 0 .6 0 2.4-.1h1.4l1.8-.2 1.5.3c.1 0 .4 0 .9-.1h1c.2 0 .5 0 .9.1h1.4c.2.1.5.1.9.2l.5-.2c.2-.2.5-.3.5-.3.2.1.5.3.8.6.2 0 .6-.6.8-.9-.1-.3-.3-.7-.3-1.3 0-.5.1-.8.5-1.1 0-.1-.1-.2-.2-.4h-.2v-.2l-.5-.6-.3-.3c-.1 0-.2.1-.4.2h-.5l-.8-.3c-.1.1-.3.1-.7.1-.3-.2-.8-.2-1.5-.1-.2.1-.5.1-.7.1l-1.1-.3-.6.2c-.1-.1-.1-.1-.3 0h-.2l-.1.1c.2 0-.2-.1-1-.3l-1.3-.3c-.1 0-.2 0-.5.1h-.5c-.3.1-.8.1-1.3 0-1.1-.1-1.7-.1-1.8-.1-.4.1-.8.3-1.5.4-.2 0-.5-.1-1.1-.2-.1.1-.2.1-.5 0-.4-.1-.5-.1-.5-.1-.1-.1-.2-.1-.2 0l-.2.3c-.2.1-.5.1-.7.1-.2 0-.5 0-.9-.1v-.2c-.3 0-.6 0-.9-.1l-.5-.5c-.2-.2-.5-.8-.5-.8v-.7c-.1-.2-.1-.7-.1-1.6v-1.8l.1-.1v-.5h.1c-.1 0-.1-.1 0-.2h.1l.1-.6v-.8l-.2-.2v-.3c-.2-.7-.2-1.1-.3-1.2l.2-.3.4-.3h.2l.2-.2c.1.1.2.1.2 0 .2 0 .7 0 1.5-.1 1.5-.1 2.4-.2 2.9-.1h4c.3.1.8.2 1.3.2h1.1c.1 0 .6.2.9.2.2 0 .7-.2.9-.2-.1 0 .2.1.9.2.1-.1.3-.1.5 0h.6c.8-.3 1.2 0 1.5 0 2.2-.2 3.2-.2 3.3-.2.1.1.2.1.2.1h.9c.3-.1.6-.1.8 0 .2 0 .7 0 1.2.1.1 0 .3 0 .7-.1h1.1c0 .1.4.2 1.2.3 0 .1 0 .1.1.1l.1-.1c.1.1.2.1.5.1h.5c.3 0 .7 0 1-.1.1.1.2.1.4.1h.1c.1-.1.2-.1.4-.1.2.1.5.1 1 .2 0 0 .2 0 .5-.1h.3c.1 0 .1 0 .2-.1 0 0 .1 0 .3.1h.3c.1.1.3.1.5.1h.3c.2-.1.3-.1.4-.1.1 0 .2 0 .5.1h.5l3-.1 1.8.1c1.9-.2 2.2-.1 3.6-.1.2.1.5.1.9.2.7-.1 1.8-.2 3.2-.1.1.1.3.1.6.2.1-.1.5-.1.9-.1.2 0 .4.1.8.2.9-.1 2-.1 3.5.2.2.3.3 1 .4 2v.3c.1.1.1.2.1.3l-.1.1v.3c0 .1 0 .3.1.5v1.5l.1 2.1-.1.1c.1.2.1.5 0 .9l-.4 1c-.1-.1-.1-.1-.1 0l-.2.2h-.2c-.1.1-.4.3-.8.3h-.8c0 .1 0 .1-.1.3h-.3v-.3h-.7c-.4.1-.6.1-.9.2v.2-.1h-.2l-1-.2v.1l-.1-.1-.5-.1c-.5.1-1.3.1-2.4.2-.1 0-.2 0-.5-.1l-.2-.2h-.6c-.2.2-.8.3-2.1.4-.1-.1-.1-.1-.2-.1v.1c-.2-.1-.8-.1-1.8-.2h-1c-.1 0-.2 0-.2-.1-.5.1-1.2.1-2 .2l-.9-.2c-.2.1-.4.1-.5 0v-.1h-.4c-.2.1-.3.2-.5.2-.1-.1-.2-.1-.4-.1.1-.1.1-.1.2-.1-.5 0-1 .1-1.4.1-.7.1-1.1.1-1.5.1-.2 0-.2-.1-.3-.1l-.7.2c-.4.1-.7.1-1.1-.1v.9c.1.1.1.3.2.6 0 .1-.1.3-.3.5-.1.1-.1.4-.2.7.1.1.2.1.2.1s.3-.5.4-.5l.1.1c.4 0 1 1.5 1 1.6-.1.1-.3.1-.5 0-.1-.1-.1-.7-.3-.7-.1.1-.1.5-.1 1.1.2.2.6.3 1 .2.2-.1.5-.1.8-.2.2 0 .8.2 1.2.2.5-.1 1.2 0 2.2 0 .2.1.5.1.9 0v-.1c-.2.1.3.1 1.4.2.1 0 .3 0 .4-.1h.6c.1.1.2.1.2.1.3-.1.8 0 1.4.2l1-.3c.2-.1.5 0 1.2.3-.4-.1 0-.1 1-.1h1.1c.7-.1 1.3-.1 1.8-.1l.9.2s.2 0 .5-.1h.3c.2-.1.3-.1.2-.1.1 0 .2 0 .3.1h.4l.9.3c.1-.1.5-.1 1.1-.1.9-.1 1.5-.2 1.8 0 .1 0 .2 0 .2.1.6 0 1.5.2 1.5 1.8l.1 2.7c.3.6.5 1.6.5 2m-9.5 56.5c-.2 0-.4-.1-.7-.2h-.2c-.4 0-1.4.2-1.8.2-.3 0-.9-.2-1.2-.2-.3 0-1.2.2-1.5.2-1.6-.1-2.3-.1-2.2-.2l-1.9.2h-.6c-.4-.1-1.2-.1-2.3 0h-2c-1 .1-2 .1-3 0l-.2-.2h-4.7l-1.2.2c-.1-.1-.2-.1-.1-.2-.2 0-.7.2-.9.2-.4-.1-1-.1-1.9-.2-.3 0-1.2.2-1.5.2h-4.6l-.1.1c-.2 0-.5 0-.9-.1-.4-.2-.9-.2-1.4 0h-.2c-1.3.3-2 1.2-2.1 2.5 0-.4-.2 1.1.9 2.2 0 .5.4.6 3.1.7.9.1 2.5.1 4.7.2.8 0 2.8-.2 3.5-.2.2 0 .4 0 .6.1h1.5c.7-.1 1-.1.9-.1l1.3.2c-.1 0 0 0 .2-.1h.2c.1 0 .2 0 .3.1h.6c.1-.1.2-.1.3-.1.1.1.1.1.2.1h5.6c1.1-.1 1.5-.1 1.2-.1.4 0 1.5.2 1.8.2h.5c.2-.1.4-.1.5-.1.7-.1 1.8 0 3.2.2h.5c.2-.1.5-.1.6-.1.2 0 .4 0 .6.1h.5c.1 0 .5 0 1.1-.1 1.3-.1 2.6-.2 3.8-.1.3.1.5.1.4.1l.1-.1c1 .1 1.7 0 2-.1.1-.1.4-.3.8-.4.4-1.5.6-2.2.6-2.3-.1-.3-.2-.8-.3-1.3 0-.5-.5-.4-1.5-1.5-.2.1-.5.1-.9 0-.5-.1-.8-.2-.8-.2-.4 0-1.6.2-1.4.2m-16.3-9.9h1.6c1.1.2 2 .2 2.9 0h.3c.2 0 .5 0 1 .1-.2 0-.1 0 .5-.1h9.5c.4 0 1 0 1.9.1.1.1.3.1.7.2h.1c.1.1.2.1.4.2-.1 0 .2.1.6.2l1 .2c.1 0 .1 0 .1.1.6 0 .7.1 2.3 1.7.1.2.3.4.6.6l1.4 2.5v.4h.1v.2c.1.1.1.3.1.6h.1c.4 1.8.5 3.4.5 4.8-.1.5-.1 1.3-.2 2.3v.5l-.3 2.4c0 .5-.1.9-.2 1v.1l-.1.2c.1.1.1.1 0 .2l-.4.7c.1.1.1.2 0 .5-.1 0-.2 0-.2.1v.5l-.2.2-.2.2c-.1.4-1.2 1.8-1.6 2.4h-.2v.1h-.1l-.3.3h-.2v.1h.1v.1h-.2v.2h-.4c-.2.3-.4.6-.8.7-.1 0-.7.1-1.9.4h-.2c0 .1 0 .1-.1.1s-.2 0-.2-.1h-.1c-.1 0-.1 0-.2.1-.8.1-1.4.1-1.6 0-.2-.1-.3-.1-.2-.1-.1.1-.2.1-.2.1h-.5c-.1 0-.1 0-.2.1h-.5c-.1.1-.2.1-.4.1.4 0 .2 0-.7-.1-.9-.1-1.4-.1-1.6-.1l-1.5.2c-.4-.1-.9-.1-1.7-.1h-.2c-.1.1-.1.1-.2.1-.2 0-.6 0-1.2-.1l-.1-.1h-.1c-.2-.1-.5-.2-.6-.2-.2 0-.5.1-.8.2l-.7.2c-.7 0-1.7 0-3-.1-1.1.1-1.6.1-1.4.1H386c-.4 0-1.1 0-2.2-.1-.9-.1-1.6-.2-2.2-.1-.2.1-.7.1-1.4.2h-2.4c-.3.1-.5.1-.8.1-.1 0-.3 0-.5-.1h-1.9c-.1 0-.1 0-.2-.1-.4-.1-.8-.1-1.2 0 0 .1 0 .1-.1.1-.2.1-.5.1-.9 0s-.7-.2-.8-.2c-.3 0-1.2.2-1.5.2.5-.1-.1-.1-1.7-.1-.9 0-1.8-.1-2.7-.4l-1.8-.5c-.3-.8-.6-.6-1.8-1.3-.1 0-.4-.4-1-1.2-.1 0-.2-.1-.4-.2 0-.3-.2-.8-.4-1.4l-.2-1c-.2-.6-.5-1.5-.8-2.8v-.3c0-.4 0-1-.1-1.8v-.2l-.1-.1c0-.2 0-.4.1-.7v-.7c0-.1 0-.3-.1-.6 0-.3 0-1 .1-2.1.1-.4.1-.8.1-1.3v-.3c.1-.1.1-.1.2-.1l.3-1.6.1-.2v-.1l.1-.1c.1-.4.3-1 .5-1.7l.2-.4.4-.4c.1 0 .1-.1.1-.2v-.2c.2-.1.5-.4.7-.8l.8-.8 1-.5.1-.2c.1-.1.3-.2.9-.4.2-.1.9-.3 2-.6l1.4-.3c.4 0 1.6.2 1.9.2h3.9c.1 0 .4-.2.5-.2.1.1.2.1.5.2h1.5l.2-.2.2.2h.9c.2 0 .4-.2.5-.2.1 0 .4.2.5.2h2.9c.4 0 1.5-.2 1.9-.2.3 0 1.1.2 1.5.2.3 0 1.2-.2 1.5-.2-.3.2 0 .2 1.1.3m25.5 36c-.1.2-.2.5-.3 1 0 .3.3 1.1.3 1.5 0 .3-.1.7-.3 1.2v.8c-.1.5-.5.7-1.1.8-.5-.1-1.2-.1-2.1 0-.8.1-1.1.1-.9.1h-.6c-.5-.1-.7-.2-.4-.2-.3.1-.7.3-1.2.4-.4 0-.6-.1-.8-.2 0-.1 0-.1-.1-.1-.5-.1-1.2-.1-1.9-.1h-1.6c-.6-.2-1.1-.3-1.5-.3-.1.1-.5.2-1.8.3-.1 0-.1 0-.2.1h-1.1c-.4-.1-.6-.1-.8 0-.3.1-.5.1-.7.1h-.2l-.9-.2c-.1 0-.6 0-1.5.1-.2-.1-.4-.1-.7-.1h-.1v-.1h-.2c-.1 0-.4.1-.8.2-.1-.1-.2-.1-.4-.1-.1 0-.1 0-.2.1-.2 0-.6 0-1.1-.1-.1 0-.3 0-.6.1 0 0-.1-.2-.4-.2-.1.1-.2.1-.4.1s-.4-.1-.7-.2c-.2.1-.8.2-1.7.3H384c-.4-.1-.9-.1-1.4 0H380c-.1 0-.5.2-.5.2l-1.6-.3c.2 0 0 0-.6.1-.1-.1-.3-.1-.5 0-.5.1-.9.2-1.4.2l-1.5-.3c-.4-.1-.9-.1-1.4 0-.8.1-1.4.1-1.5.1-1.2 0-1.6 0-1.4-.1-.2 0-.5.1-.8.3l-.4-.2h-.4c-.2 0-.5.1-.8.2-.5-.1-1.1-.1-2 0-.1.1-.4.4-.6.8-.1.2-.1.5 0 .9.1.1.1.2.1.3 0 1.1 0 2.2-.1 3.3l-.2.2v.1c-.2.1-.4.4-.5.8-.3 0-.7.1-1.2.2 0 0-.3.2-.5.2.1 0-.1-.1-.5-.2l-.8-.4-.2-.2h-.2c0-.1 0-.1-.1-.2-.1.1-.2.1-.3 0l-.5-.5c-.1-.4-.1-1.2-.1-2.3-.1-1.9-.1-3.9 0-5.8 0-.1 0-.5.1-1.1.1-.3.1-.6 0-.8-.1 0-.1-.4-.1-1.6-.1-.5-.1-1.2 0-2.3l.2-1.4c-.1-1.1-.1-2.7 0-4.9.1-.2.3-.6.5-1.3.2-.1.5-.2.8-.5.4 0 .7 0 .9.1.1.1.2.1.4.2l1.1-.3s.3.2.9.5l.6.3c0 .5.4 1.8.4 2.3l-.4 1.4c-.1.1-.1.3 0 .8.1.8.5 1.3 1.2 1.5.1 0 .4 0 .8.1l.6.2c.4 0 1.4-.2 1.8-.2.1 0 .6 0 1.3.1h.9c.1.1.2.1.3.1.4 0 1.4-.2 1.8-.2l1.8.3 2.8-.2c.2 0 .5.1 1.1.2.4.1.8 0 1.2-.1 0-.1 0-.1.1-.1h3.8c.2.1.5.1.5.1s.3 0 .6-.1h4.3c.5-.1.8-.2.6-.2l1.4.5h.4c.2-.1.4-.1.5-.1.1.1.4.1.8.1.3-.2.7-.4 1.2-.6.2 0 1 .3 1.3.3l1.7-.3c.5.1.9.2 1.3.4.2 0 .8-.3 1.1-.3-.1 0 .2.1 1 .2.2.1.5.1.6 0 .8 0 2.1-.1 3.7-.2 1-.1 1.8-.2 2.2-.2.2 0 .4 0 .8.1h.8c.2 0 .4 0 .8-.1h.8l1.1.3c.2 0 .6.1 1.1.2.1.4.2.9.1 1.4l.2 2.2-.4.5zm-49.5-75.7s.3.2.9.5l.6.3c0 .5.4 1.8.4 2.3l-.4 1.4c-.1.1-.1.3 0 .8.1.8.5 1.3 1.2 1.5.1 0 .4 0 .8.1l.6.2c.4 0 1.4-.2 1.8-.2.1 0 .6 0 1.3.1h.9c.1.1.2.1.3.1.4 0 1.4-.2 1.8-.2l1.8.3 2.8-.2c.2 0 .5.1 1.1.2.4.1.8 0 1.2-.1 0-.1 0-.1.1-.1h3.8c.2.1.5.1.5.1s.3 0 .6-.1h4.3c.5-.1.8-.2.6-.2l1.4.5h.4c.2-.1.4-.1.5-.1.1.1.4.1.8.1.3-.2.7-.4 1.2-.6.2 0 1 .3 1.3.3l1.7-.3c.5.1.9.2 1.3.4.2 0 .8-.3 1.1-.3-.1 0 .2.1 1 .2.2.1.5.1.6 0 .8 0 2.1-.1 3.7-.2 1-.1 1.8-.2 2.2-.2.2 0 .4 0 .8.1h.8c.2 0 .4 0 .8-.1h.8l1.1.3c.2 0 .6.1 1.1.2.1.4.2.9.1 1.4l.2 2.2v.5c-.1.2-.2.5-.3 1 0 .3.3 1.1.3 1.5 0 .3-.1.7-.3 1.2v.8c-.1.5-.5.7-1.1.8-.5-.1-1.2-.1-2.1 0-.8.1-1.1.1-.9.1h-.6c-.5-.1-.7-.2-.4-.2-.3.1-.7.3-1.2.4-.4 0-.6-.1-.8-.2 0-.1 0-.1-.1-.1-.5-.1-1.2-.1-1.9-.1h-1.6c-.6-.2-1.1-.3-1.5-.3-.1.1-.5.2-1.8.3-.1 0-.1 0-.2.1h-1.1c-.4-.1-.6-.1-.8 0-.3.1-.5.1-.7.1h-.2l-.9-.2c.2 0-.2 0-1.5.1-.2-.1-.5-.1-1-.1-.1 0-.4.1-.8.2-.1-.1-.2-.1-.4-.1-.1 0-.1 0-.2.1-.2 0-.6 0-1.1-.1-.1 0-.3 0-.6.1 0 0-.1-.2-.4-.2-.1.1-.2.1-.4.1s-.4-.1-.7-.2c-.2.1-.8.2-1.7.3h-1.9c-.5-.1-.9-.1-1.4 0h-3c-.1 0-.5.2-.5.2l-1.6-.3c.2 0 0 0-.6.1-.1-.1-.3-.1-.5 0-.5.1-.9.2-1.4.2l-1.5-.3c-.4-.1-.9-.1-1.4 0-.8.1-1.4.1-1.4.1-1.2 0-1.6 0-1.4-.1-.2 0-.5.1-.8.3l-.4-.2h-.5c-.2 0-.5.1-.8.2-.5-.1-1.1-.1-2 0-.1.1-.4.4-.6.8-.1.2-.1.5 0 .9.1.1.1.2.1.3 0 1.1 0 2.2-.1 3.3l-.2.2v.1c-.2.1-.4.4-.5.8-.3 0-.7.1-1.2.2 0 0-.3.2-.5.2.1 0-.1-.1-.5-.2l-.8-.4-.2-.2h-.2c0-.1 0-.1-.1-.2-.1.1-.1.1-.3 0l-.5-.5c-.1-.4-.1-1.2-.1-2.3-.1-1.9-.1-3.9 0-5.8 0-.1 0-.5.1-1.1.1-.3.1-.6 0-.8-.1 0-.1-.4-.1-1.6-.1-.5-.1-1.2 0-2.3l.2-1.4c-.1-1.1-.1-2.7 0-4.9.1-.2.3-.6.5-1.3.2-.1.5-.2.8-.5.4 0 .7 0 .9.1.1.1.2.1.4.2l1.1-.4zm-15 87.8h-16.8c0-.2 0-.4-.2-.2s-.4.2-.8.2c-.2-.2-.6-.2-.8-.2-.6-.2-1.2-1.8-1.8-4.9 0-.2-.2-.6-.4-1.6l.4-2.2c-.2-.6-.4-1.6-1-2.6l-.8-5.7v-1.6c-.2-.2-.2-.8-.4-1.4-.2 0-.6-1.6-.6-1.6v-.4l.2-.2-.4-.4c-.4-3.2-.8-5.9-1.2-7.7-.2-.2-.2-1-.4-2v-3l-1-2.8c0-.2-.2-1.2-.6-2.8v-2l-1-3.6-1-6.3c-.2-.6-.2-1.2-.2-1.8-.2-.2-.4-.8-.6-1.4 0-.2 0-.8-.2-1.4-.2-1.6-.2-2.6 0-3.2l.4-.4c-.2-.2-.2-.4-.4-1 0-.2 0-.2.2-.4.2-.6.2-1 .2-1 0 .2-.2 0-.8-1 0-.2-.2-.6-.4-1.2 0-.2 0-.2-.2-.2.2-.6.2-1.6.2-2.8 0-.2 0-.6-.2-1v-.4c-.2-.2 0-1.4.4-3.4.2-.8.2-1.4-.2-1.8-.8 0-1.2.4-1.2 1.4v2.4l-.4 3.2v4.4c0 .8.8 1.2 1 2.2 0 .2 0 1.2-.2 3.2v2.2l.2.2v.4l-.2.2c0 2.6.2 4.4.6 5.5 0 .6-.4 2-.4 2.8 0 .6.4 1.4.4 1.6l-.4.4.4.2c.2 3.4 0 5.7-.6 6.9.6 1.2.8 2.8.6 4.9 0 0-.2.4 0 .4v1.8c.2 1.4.2 2.4 0 3 0 0 0 .4-.2 1.2-.2 1.8-.2 3 .2 3.4v2.4l-.6 4.2c.2.4.2 1.6.2 3.6.2 1.8.2 5.1 0 9.7v.2c0 .4-.2 1.2-.4 2.6-.6.2-1.8.6-3.3.8l-.4-.2c.2.2 0 .2-.8.2-.2-.2-.8-.2-1.8-.2l-3.1.6-3.7-1-5.1.6c0-.2-.2-.4-.6-.6l-.4-.2v-.8c-.2-.2-.6-1.2-.8-3 0-.6 0-1.2-.2-1.8h-.2l.2-1.4c0-7.5 0-12.7.2-15.8l.2-2.2v-28.9l.2-8.7-.4-2.4c-.2-2.2.4-6.7.4-8.1 0-.2 0-1.4-.2-3.2-.2-1.2-.2-2.2 0-3 0-.4.2-1.2.4-2.2 0-.6 0-2-.2-4.7v-4.6c-.2-.8-.2-3-.2-6.5 0-.2 0-.6-.2-1v-1c0-1 .4-3.8.4-4.8V475c-.2-1-.2-1.8-.2-2.4v-10.7c.2-2.2.2-3.8 0-5.2v-9.3c-.2-.4-.2-.8-.2-1.4.2-.4.2-.6.2-.4-.2 0-.2 0-.2-.2-.4-2.2.6-3.6 3.3-3.8h8c1.4-.2 3.5-.2 6.3 0 .4 0 1 0 1.8.2l.2.4 1.4.8.6 3v.4c.2.2.2.6.2 1 .2.8 0 1.6-.2 2.6l-.4 1.6c-.2 3.2.4 3.2.4 7.3v1.8c-.2.8-.2 1.4-.2 1.8.2.4.2.6.2.4 0 .2 0 .2-.2.2l.6 2.4v1.2c-.2.6-.2 1.2-.2 1.4l-.6 15.8c0 .4-.2 1.6-.4 3.4l-.6 1.4s-.2.4-.4 1l.4 1.8c0 .4-.2 1-.8 1.6v2.6c0 .4.2 1 .4 1.6 0 .2 0 .8-.2 1.4-.2.6-.2 1.2 0 1.4.2.4.4.6.8.8.4.4 1-.2 1.6-1.6v-.8l-.6-3.4c0-1 .4-2.2 1.4-3.6-.2 0-.2-.2-.2-.6 0 0 0-.2-.2-.4v-.4l.6-10.3c.2-.2.4-1 .6-2l.4-1v-.6c.2-.2.2-1.2.8-3v-.6c.2-.2.2-.8.2-1.4.2 0 .2 0 .4-.2-.2-.2-.2-.6 0-1.2 0 0 0-.2.2-.4v-.6c.2 0 .2 0 .4-.2.2-1.6.6-3.6.8-5.9.4-.2.8-1.8 1.2-4.6v-.6c.2 0 .2-.4.4-2.2h.4c0-1 0-2.2.2-4 0 0 .2-.6.4-1.6.2-.2.2-.2.2-.4v-.6c.2-1.4.6-3.2 1.6-5.7l1.2-1.2h3.7c.6-.2 1.4-.2 2.7-.4-1.4 0-.6 0 2.5.2 2.5.2 4.9.2 7.4.2l.8.6.6 1.6v.4c.2.4 0 1.6-.2 3.6 0 .8 0 2-.2 3.4l-1 2.8c.2.4.2 1 .2 2l-1.2 5.1c-.3.6-.4 1.2-.4 1.8v3c-.2.2-.4.8-.6 1.8v1c-.2.2-.4.4-.4.6v3c-.6 2.2-1.2 4.4-1.6 6.7-1 .2-1.6.4-2 .2.2 5.7.2 9.1 0 10.3l-.4.4c0 .6-.2 1.8-.6 3.2v1c0 .4-.2 1.4-.6 3 0 .4-.2.8-.4 1.4-.4 1-.8 2.8-1.2 5.5 0 .2.4 1.2 1 2.8.2.2.6 1.6.8 4.4.2.4.2 1.4.4 2.8l.6 1.2v1.8l1 3v3.6c.2.8.6 2 .8 3.4 0 .6 0 1.4.2 2.6.2 0 .2 0 .4.2 0 .2 0 .2-.2.4.2.4.2 1 .4 2v.6l.4.8 1 5.2c0 .6 0 1.8.2 3.6v.6c.2.4.2 1 .4 1.8v1.8c.2.6.6 1.4.8 2.4 0 .4.2 1.4.8 3.2.2.2.4 1.2.4 1.2 0 1.2.2 3 .6 5.7l.4.6v.6l.4 3 1.2 4.2c0 .6 0 1.4.2 2.6 0 .4.2 1.6.8 3.4 0 .2 0 .4.2.6l.2.4c-.2.2-.2.8-.4 1.4 1 1.8 1.4 3 1.4 3.6-.2 1.8-1 2.4-2.5 2.6m-95.8-140.2c2.2.4 3.7 1 4.3 2 .2.2.2.8 0 1.4 0 0 .2 1.2.4 2.8l.4.4v1.2l.4 1.4c-.2 1.4 0 3.4.6 8.1l1.2 5.9c0 .8 0 1.8.2 3.2.2.6.8 3.6 1.4 8.7 0-.6.2.4.6 2.6 0 1 0 2.8.2 5.4l.6 1.6v1.4l.6.4v.8c.2 1.8.6 3.2 1 4.6l1 2.8c.2 1 0 1.8-.2 2-.2.2 0 .4.2.6 0 .7-.2 1.4-.6 2v.2h-.4l-1 .6c-.4.2-.8.8-1.4 1.6l.8.4h1.2c.6-.2 1.4 0 2.5.4l1.2 1c-.2.2-.2.8-.4 2 .2.2.2.6.4 1.2-.6.2-1.4.6-2.2 1.2 0 .6 1.6 1.4 1.6 1.6.4.6 1 1 1.6.8.2-.2.2-.6.4-1.2l-.2-1.2c0-.6-.2-1.4-.4-2.4.2-.6.4-1 .2-1.6l.2-.2h-.8c0-.2-.2-.6-.6-1 .6-2.2.8-3.2.8-3.2.2-.2.2-.2-.4-.4v-.4h-.6s-.2-.2-.4-.6v-.4l.4-2c.2 0 .4 0 .6-.2-.2.4-.4-.4-1-2.2 0-.8.4-2.6.4-3.4v-2.4l.2-.6c.2-2.6 0-5-.6-7.1v-4.4l.4-.4c.2-1 .2-1.8 0-2.8v-1c0-.4-.2-1-.4-1.8.2-1.2.4-2.6.4-4v-.6c0-.6-.2-1.2-.4-2v-.4c0-.6.6-3.4.6-4.4-.2-.2-.2-.6-.2-1.2v-2.8c.2-2 .2-3.6 0-5.1 0-.8-.2-1.8-.4-3 0-1 .4-1.8 1.4-2 0-.2 0-.4-.2-.4-.2-.6-.4-1-.2-1.6l.6-1c2.3-.2 5.3-.4 9.2-1h.6l3.1-.2 1.2.6h.4c.4.4.8 1.2 1.2 2.4v.8l.4.4c.2.6.2 1.2 0 2.2-.4 4.2-.6 6.7-.6 6.9v.6c.2 2.2.4 3.6.4 4.2 0 .2-.2 1.2-.4 2.8v1h-.4v1.4l.2.4.4 10.3c.2.2.2.4.2.6 0 .4 0 1.4-.2 2.8v2c-.2 1-.2 2-.2 2.6v8.5c.2.2.2.4.2.2-.2 2.2-.2 5.7 0 10.1l.6 2.8c0 .2-.2 1.6-.6 3.8v.4c-.2 3.2-.2 4.2-.2 3 0 .2 0 .4.2.6v2.2c.2.2.2.2.2.4l-.4 3.2c.2 0 .2 0 .4.2v4c0 .2 0 .4-.2.8.2.2.2.2.2.4.2.8.2 1.4 0 1.6-.6 1.8-.6 3.4-.2 4.4v.8c.2.2.2.4.2.8.2.6 0 2.2-.2 4.6-.2.8-.2 3.8-.2 9.1v7.5c0 .6-.4 2-.4 2.6 0 .2 0 .4.2.6v1c0 .4 0 1-.2 2v3.4c0 1.4-.2 3-.6 4.5 0 .6.6.8.6 1-.2-.6-.2 1.4-.4 6.1 0 1.4 0 3-.2 4.5.2.4.2 1 0 1.6-.6.2-.8.4-.8 1-1 .6-2.3.8-3.3.8-.8.2-2 .2-3.5 0l-7.6-.6s-1-.8-1.6-.8c-1 0-1.2.4-3.5 1-.8.2-1.4.2-1.8 0l-1.2-.8c-.2 0-.4-.2-.6-.6l-1-13.3c-.2-.4-.2-1-.4-2 .2-.4.2-1.2.2-2.2l-.6-1.2-.6-5.7-.6-1.8v-.6l-.6-2.6c0-.2-.2-.4-.4-.6 0-4.2-.4-4.2-.6-4.5.2 0 .2 0 .4-.2-.2-1 0-2.4.2-3.8.2 0 .8-.2 1.4-.4v-.6c-1-.4-.2-1.2-1-1.6-.2-.2-.2-.2-.4 0-1-.6-1.4-2.2-1.6-4.8 0-.6-.2-1.2-.4-2l-.6-1-.2-1.2v-.4c-.4-1.4-.6-3-.6-4.4.4-.8.8-1.8 1.2-3.2l-.2-1c.2-.2 0-.6-.4-.8.2-1.2-.4-2.8-2.1-4.6v-.4h-.4c0-.2 0-.4-.2-.6l-.6-1c.2-1.2 0-2.8-.6-4.6v-.8l-.2-.4c-.6-1.8-1.4-2.8-2.7-2.6l-.4.8c-.2.2 0 .6.6 1.2 0 0 .6.8 1.6 2.2v4.9l-.6 1.4c-1.4 2.8-2.3 4.2-2.3 4.4.6 1.8.8 2.8.8 3-.2 0-.2 0-.2.2-.2.6-.2 1-.2 1.4 0 .2.2.6.4.8l.6 7.9v1l-.6 3.2c0-.8 0-.4.2 1v1.4l.4.8c-.2.6-.2 1.2-.2 2.2 0 .2 0 .2.2.4v.6c.4 1 .6 2 .4 2.8 0 .2-.2.6-.4 1.2v.6c0 1 .2 3.8.4 8.3 0 .2-.2 1.6-.4 3.8.2 1.4 0 3.4-.2 6.5-.2.4 0 1.2.2 2.4-.2 1.4-.2 3.6 0 6.5.2 2.2.2 3.8 0 4.4-1.2 1-2.9 1.4-4.7 1.4-.8 0-2.7-.2-5.7-.6 0-.2-.2-.2-.4-.2 0 .2-1.2.6-2.2 1.4-1.6.2-2.7 0-3.3-.4v-2.6c.2-.2.2-.4.2-.6l.2-.6c.2-.8.6-1.6 1-2.6v-.8c-.2-1.6-.4-2.8-.2-3.8 0-.2.2-.2.4-.2 0 0 0-.2-.2-.6 0-.2 0-.6.2-1.2-.2-.2-.4-.6-.2-.8.2-.2.4-.8.6-1.6-.4-.6-.8-1.6-1.2-3.2.2-.2.2-.8.4-1.6v-1.6c-.2-1.4-.4-2-.2-2.2.2-.2.8-1.2 1-3 0-.8-.8-6.9-.6-13.5.2-3.4.2-4.9.2-4.5 0-.2-.2-1.2-.4-2.6v-1.8l.2-.4c.2-1.4.2-2.4 0-3h-.4v-1c-.2-.8-.2-1.6.4-2.6l.8-.8v-1c-.6-2.2-.8-3.6-.8-4.2.2-.2.2-.2.2-.4.2-.2.2-.6 0-1.6 0 0-.2-.2 0-.4 0-.2 0-.2-.2-.4s-.2-.8 0-2c0-.2 0-.2.2-.4 0-.2 0-.8-.2-1.4v-1.4c0-.6 0-1.6.2-3.2.2-1.4.2-2.4 0-3v-.6c-.2-1.4 0-3.2.6-5.3-.6-.4-.8-1.6-.8-3.4 0-.2.2-.6.4-.8.4-.8-1.2-.8-.8-1.8 0-.6 1.4-1.2 1.2-2-.6-.2-.8-.6-.8-1.2-.2-.6.6-1.8.6-2-.4-.2-.6-.6-.4-1.2.2-.4.2-2 0-4.6v-4.5c.2-2.2.2-3 .4-2.4-.2-.2-.4-.6-.4-1.2v-3.2c-.2-.2-.2-.6-.4-1 0-.6.2-2.2.8-4.9 0-.2 0-.6.2-.8h.4c.2-.6.2-1.2 0-2-.4-1-.6-1.6-.4-2-.2 0-.6-.8-.8-1-.2-.8-.2-1.6 0-2.6.6-1.4.8-2.2.8-2.4-.4-.6-.6-1.6-.8-2.6 0-.2.2-.8.6-1.8v-1s0-.8.6-3.4c.8-.4 2.5-.6 4.9-.8 1 0 1.8.2 2 .6.2.2.2.2.2-.2l.8-.4c.2 0 1 0 2 .2s1.8 0 2.7-.2c.2-.6 1-1.4 2.5-2.4 3.1-.9 4.7-.9 5.3-.9m-53.5 49.6-1.4 5.6v1.2c-1 .2-1.4.6-1.6.8-.8-.2-1.2-.2-1.4-.4-.2.6-.4 1-.4 1.6l-2.3-1.2c-1 .2-2 0-2.7-.2-.2.2-.2.2-.4.2-.8.2-1.2.2-1.4 0-.2-.2-.2-.6-.2-.8 0-.4.2-1 .6-1.6.2-1.4.2-2.6.2-3.4.2-1.8.4-3 .4-3.4-.4-4.8 0-3.2 0-4.2-.2-1-.2-1.6-.2-1.6v-.8c.2-.6.2-.8.2-.6 0-.4 0-.8-.2-1l-.2-.6c0-.4 0-.6.2-.8-.2-1-.2-2-.2-2.6v-.4c-.2-2-.2-3.6-.2-4.6.6-.6.8-1.8.8-3.6-.2-.2-.2-.2-.2-.4l.2-.2v-3c0-.2 0-.4-.2-.2l.2-.4-.2-2v-1.8c-.2-1.4-.2-2.2-.2-2.6 0-.6.4-1.8.4-2.4-1-.6-2-1-2.9-1.2-1 .2-1.8.4-2 .6-.8-.2-1.2-.8-1-1.4h1.6c.6.2.8.4 1 .6.8-.2 1.4-.2 1.8-.4l.2-.2.8-.4h.4c.2.2.4.2.6.2 0 .6.2.8.8 1 2.5.2 4.3.2 5.5 0l1 .8c1 .4 1.6 1.2 2 2.4 0 .2 0 .2.2.4 0 .4 0 .8-.2 1.4 0 .6.2 1.6.4 2.6v7.2l-.4 1v.8c.2.2.4.4.4.8.2 4.6.2 8.2 0 10.7.2 1 .2 2 .2 2.6-.2 1-.2 1.8-.2 2.2.2 1.6.2 2 .4 1.4 0 .9-.2 1.7-.2 2.3m0 30.4c-.2 1-.4 1.8-.4 2.4 0 3.4.2 6.2.4 8-.2.8-.2 1.4-.4 1.8 0 .8.4 3.2.4 4 0 1-.4 3.6-.4 4.6 0 .6.4 1.8.4 2.4 0 .2-.4 1-.4 1.2-.2 2.2-.2 3.6 0 4.4.2 1.4.2 2.2.4 2.8 0 .6-.4 1.6-.4 2.2 0 .2.3.8.4 1.2-.1 0-.2.6-.4 1.8v4.4l-.4.4c0 2.2-.8 2.2-1.4 2.2-.2 0-.6-.2-1-.4l-2.2 1s-.6 0-1.8-.2c-1-.2-2 0-3.1.4 0-.2-.8-.8-.8-1 0 0 .4-.8.4-1.4v-3.4c0-.2 0-.4.2-1v-2.8c-.2-1-.2-1.8-.2-2 .4-6 .4-12.1.2-17.9-.2-2.4-.2-3.8-.2-4.4 0-.8.4-3.2.4-4 0-.4 0-1-.2-2v-2c.2-3 .2-4.4.2-4.6 0-3 0-4.2-.2-3.8.2-.4.2-.4.2-.2 0-.2 0-.2-.2-.4v-2.2c-.2-.6-1.8-.4-1.8-1.2v-.8c.4-.2.6 0 .8.4.2.2.2.2 0 .4.2.2.4.2.4.2.6.2 1.2.2 1.4.4 0 .2.8 0 2.5-.2l.2-.2c2.3-.2 3.9.2 4.7.8l.4.6.6.8 1.4 3c0 .2-.4 1.2-.4 1.8l.3 2.5zm21.1 24.7v-1.2c-.2-7-.2-15.3 0-24.9 0-3.2-.8-5.4-1-6.4-.2-.2-.2-.2-.4-.2v-.6c-.2-.2-.2-.2-.4-.2l-.4-.8c-1-1.2-1.8-2-2-2.4-1.6-.8-1.8-1.4-2.5-1.4-.6-.8-1-1.2-1-1.4-.4 0-.8-.2-1-.4-1-.6-1.4-1-1.2-1.2.2-.8 1-1.4 2.5-1.8 1.6-1.4 2.5-2.2 2.5-2.2.6-.6 1.2-1.2 1.4-1.8v-.2l.2-.2c.4-1 .6-1.6.8-1.8v-.7c1-3 1.6-5.4 1.8-7.6-.2-1.8-.2-3.2-.2-4.2 0-.8.4-2 .4-2.8s-.6-3-.6-3.8c0-.8.4-2.4.4-3.2 0-.2 0-.8-.2-1.4v-3c.2-.6.2-1.2.2-1.4 0-.2 0-.6-.2-1v-3.2c-.2-2.4-.4-3.4-.4-2.8 0-.2 0-.4.2-.4 0-.2 0-.4-.2-.6v-3.8l.2-.2-.2-4.6-2-2c-.2-1-.4-1.4-.6-1.4l-1.2-2c-.2-.8-.2-1.4 0-1.8-5.5-1.4-4.3-2-4.9-2-.2-.2-.6-.2-1.2 0s-1 .4-1.2.4l-1.6-.8h-.4v-.2h-.8l-.6-.6c-.2-.6-1-.8-2.5-.6-4.5 0-2 1.4-3.3 1.4-.6 0-.6-1.4-2-1.6-.2-.2-.6 0-1 .2h-.6c-1 .2-1.4.4-1.4.4-1.4-.4-2.3-.6-2.5-.6h-1.8c-.2 0-.4 0-.8.2h-1c.6 0 .2 0-.8-.2h-2.9c-5.5.2-8.2.2-8 .2-.6 0-1.2 0-1.6.2-.4 0-.6 0-.8-.2-.8.2-1 .2-.8.2-.4 0-.7-.1-1-.4-1-.2-1.8-.2-2.5 0-.2.2-.4.4-.4.6-.2 1.2-1.1.4-.9 1.2-.2.2-.4 1-.6 1l-1 .7c0 .2.4 1.1-.2 1.3l.3 1.6v3.8c.2 2.2.2 3.8.2 5 .6 2.6 0 5.8 0 6.4v11.3c0 2.2-.2 7.6 0 9.9.2 1 .2 1.6.4 2 .2 1.2.2 2.4 0 3.8l-.6 4.2.6 9.2c0 .6-.4 1.8-.4 2.4 0 .6.4 1.8.4 2.4.2 2.2.2 4.8 0 7.8 0 .2-.4 1.8-.4 2.4l.4 2.4v2.8l-.4 2.4v14.3c.2 2.4.2 4.6 0 6.6 0 1.4 0 2.4-.2 2.6-.2.6-.2 1.2 0 2s.2 1.4.2 2l-.2 4.2c0 1.8 0 5.6.2 11.5v7.2c.4 2.8.8 4.4 1 4.6 1.2.4 2.3.6 2.9.6h8.2c.2.2.6.2.8.2.2 0 .4 0 .6-.2h3.1c1 .2 1.6.2 2 .2.4 0 1 0 2-.2h7.4c.4.2.8.2 1.2.2.8 0 3.3-.4 4.3-.4h4.5c.4-.2.8-.2 1-.4h.2c.2 0 .2 0 .2-.2l1.6-.4c0-.2 0-.2.2-.2h.2c.2 0 .2 0 0-.2l2.5-.8h.4v-.2h.6l1.2-1 .6-.6c3.1-2.6 3.7-4.2 4.3-5.2 1.4-3 1.6-4 1.8-4.6.2-1.6.4-2.2.4-2.8.2-.2.2-1.8 0-4.6v-.6c.2-.8.2-1.8.2-3v-8.2c.2-.2.2-.6.2-.8.3-.4.3-.8.1-1.2" style="fill:#fff"/>
</svg>
