<svg xmlns="http://www.w3.org/2000/svg" viewBox="0 0 1024 1024">
   <circle cx="512" cy="512" r="512" style="fill:#0288d1"/>
   <path d="M260.33 577.38 470.2 698.55a5.49 5.49 0 0 0 5.49 0L768 529.79v53.4L472.95 753.54l-210.3-121.42c-2.65-6.82-12.08-34.12-2.32-54.74Zm275.19-207.16 5.4 21.83 114.24-66-46.26-26.67-110.84 64 32.58 2.69a5.49 5.49 0 0 1 4.88 4.15Zm130.64-37.79-126.07 72.78a5.49 5.49 0 0 1-8.08-3.44l-6.21-25.09-46.16-3.81a5.49 5.49 0 0 1-2.29-10.23L597.92 293l-39.11-22.58-289.55 167.21 203.69 117.6 100.59-58.08 189-109.1ZM262.87 500l210.08 121.33L768 451v-53.43L475.7 566.33a5.49 5.49 0 0 1-5.49 0l-209.5-121c-7.44 19.67-.08 47.28 2.16 54.67ZM768 517v-53.4L475.7 632.45a5.49 5.49 0 0 1-5.49 0L260.33 511.28c-9.76 20.63-.35 47.89 2.31 54.74l210.31 121.42Z" style="fill:#fff"/>
</svg>
