<svg xmlns="http://www.w3.org/2000/svg" viewBox="0 0 1024 1024">
   <circle cx="512" cy="512" r="512" style="fill:#0b996e"/>
   <path d="M716.98 513.41c0-28.53 18.13-48.6 43.91-48.6s44.2 20.06 44.2 48.6-18.41 47.46-44.2 47.46-43.91-19.78-43.91-47.46Zm-26.92 0c0 42.1 29.46 71.77 70.82 71.77s71.11-29.67 71.11-71.77-29.46-72.89-71.11-72.89-70.82 30.24-70.82 72.89Zm-137.41-71.2 55.53 141.27h26.07l55.53-141.27h-28.05L621.5 551.27h-.57L580.7 442.21h-28.05ZM444.7 508.32c1.7-26 18.98-43.51 42.5-43.51 20.39 0 35.7 13 37.96 32.5h-47.03c-16.71 0-25.78 1.98-32.57 11.02h-.85Zm-26.91 4.24c0 42.1 29.75 72.61 70.82 72.61 27.77 0 52.13-14.12 62.61-36.45l-22.66-11.31c-7.93 14.69-23.23 23.45-39.95 23.45-20.12 0-38.25-15.26-38.25-29.95 0-7.62 5.1-11.02 12.46-11.02h89.81v-7.62c0-42.39-27.2-71.77-66.29-71.77s-68.56 30.24-68.56 72.05m-77.06 70.92h25.5v-86.73c0-18.65 11.61-31.93 27.77-31.93 6.8 0 13.88 2.26 17.29 5.36 2.55-6.78 6.52-13.56 12.46-20.34-6.8-5.65-18.41-9.33-29.75-9.33-31.16 0-53.27 23.17-53.27 56.23v86.75Zm-123.24-93.5v-68.95h41.93c14.16 0 23.52 8.19 23.52 20.62 0 14.12-12.18 24.86-37.11 33.06-17 5.36-24.64 9.89-27.48 15.26h-.85Zm0 69.22v-28.82c0-12.72 10.77-25.15 25.78-29.95 13.32-4.52 24.36-9.05 33.71-13.84 12.46 7.35 20.11 20.06 20.11 33.34 0 22.6-21.53 39.27-50.71 39.27h-28.89Zm-25.5 24.29h56.66c43.07 0 75.36-26.84 75.36-62.44 0-19.5-9.91-37.01-27.48-48.32 9.07-9.05 13.32-19.5 13.32-32.21 0-26.27-18.98-43.79-47.59-43.79h-70.27v186.77Z" style="fill:#fff"/>
</svg>
