<svg xmlns="http://www.w3.org/2000/svg" viewBox="0 0 1024 1024">
   <circle cx="512" cy="512" r="512" style="fill:#231f20"/>
   <path d="M557.29 677.18c.62 1.54.77 2.36.89 4.46h-15.57c.12-2.1.27-2.92.89-4.47 1.14-2.68 3.75-4.41 6.89-4.42 3.14 0 5.76 1.74 6.89 4.43ZM429.41 549.55c-1.14-2.68-3.75-4.41-6.89-4.42-3.15 0-5.76 1.74-6.89 4.42-.63 1.55-.77 2.37-.89 4.47h15.57c-.12-2.1-.27-2.92-.89-4.47Zm87.28 63.81c-1.14-2.68-3.75-4.42-6.89-4.42-3.14 0-5.76 1.74-6.89 4.42-.62 1.55-.77 2.36-.89 4.47h15.57c-.12-2.1-.27-2.92-.89-4.47Zm52.79-4.42c-3.14 0-5.75 1.74-6.89 4.42-.63 1.55-.77 2.36-.89 4.47h15.57c-.12-2.1-.27-2.92-.89-4.47-1.14-2.68-3.75-4.42-6.89-4.42ZM371.47 736.76c-2.12 0-3.96.78-5.34 2.16-2.11 2.07-2.43 5.88-2.41 9.43-.02 3.55.3 7.36 2.41 9.43 1.38 1.38 3.22 2.15 5.34 2.15 2.12 0 4.03-.79 5.4-2.15 2.11-2.07 2.37-5.87 2.35-9.43.02-3.56-.24-7.36-2.35-9.43-1.37-1.37-3.28-2.16-5.4-2.16Zm47.64-109.15c.08 3.36 1.74 4.73 6.72 4.83 2.72 0 4.88-.2 6.72-1.97.91-.84 1.43-2.48 1.43-5.07v-2.82h-8.34c-4.67.09-6.45 1.66-6.52 5.03ZM745.99 262v229.29c0 225.86-239.13 347.16-440.95 328.91V262h33.95v160.02c0 4.16 3.45 7.43 7.87 7.43h66.51c10.55 0 20.41-3.76 28.51-10.86 7.98-7.01 12.55-17.07 12.55-27.61v-38.14c0-10.53-4.46-20.33-12.55-27.6-7.78-7.01-17.91-10.87-28.51-10.87h-51.89v-52.36h384.51ZM436.48 606.61c-2.29-1.93-5.64-2.87-10.01-2.87-5.25-.03-8.84 1.11-11.79 4.98l-.35.45 4.12 3.79.41-.58c1.82-2.52 3.53-3.34 7.55-3.38 5.7.11 7.46 1.97 7.56 6.39v2.43h-8.99c-3.67 0-6.59.93-8.61 2.66-2.02 1.73-3.07 4.24-3.06 7.18 0 2.67.88 5.22 2.58 6.93 2.15 2.22 4.99 3.12 9.47 3.1 3.69.04 6.29-.69 8.6-2.64v2.25h5.92v-22.31c0-3.59-1.11-6.48-3.4-8.41Zm-27.72-49.69c0 5.75 1.41 10.01 3.98 12.84 2.57 2.84 6.27 4.15 10.6 4.15 5.53.03 8.86-1.8 12.13-5.12l.47-.47-4.12-3.62-.41.41c-2.5 2.47-4.36 3.43-7.94 3.46-5.6-.05-8.53-3.37-8.78-9.8h21.54v-2.76c0-4.84-1.24-8.86-3.61-11.69s-5.86-4.4-10.13-4.39c-4.21 0-7.71 1.59-10.09 4.54s-3.66 7.19-3.66 12.45Zm-33.58 16.6h5.92v-20.37c.06-5.26 2.83-7.75 7.37-7.82 4.53.07 7.1 2.46 7.17 7.82v20.37h5.92v-21.14c0-3.72-1.11-6.86-3.22-9.05-2.11-2.19-5.17-3.4-8.9-3.4-3.19 0-6.05.96-8.34 3.01v-16.91h-5.92v47.48ZM335.5 531.7h13.38v41.82h6.18V531.7h13.38v-5.66H335.5v5.66Zm18.46 185.64h-4c-2.87 0-5.11 1.03-6.57 2.72-1.47 1.69-2.17 3.99-2.17 6.47v5.41h-4.09v4.82h4.09v28.19h5.92v-28.19h6.82v-4.82h-6.82v-5.29c.09-2.76.97-3.98 3.67-4.06h3.15v-5.27Zm-12.38-16.2h5.56v-47.48h-6.18v47.48h.62Zm13.11-63.41c8.48 0 15.09-5.35 16.59-14.29l.12-.72h-6.17l-.11.49c-1.21 5.42-5 8.84-10.5 8.86-2.9 0-5.66-1.12-7.54-3.06-2.73-2.78-3.07-5.69-3.07-15.41 0-9.72.34-12.63 3.07-15.41 1.89-1.95 4.65-3.06 7.55-3.06 5.49.02 9.15 3.42 10.37 8.86l.11.49h6.31l-.13-.73c-1.57-8.96-8.07-14.31-16.65-14.28-4.7 0-9.03 1.75-12.26 4.99-4.55 4.55-4.54 9.39-4.53 19.14 0 9.75-.02 14.59 4.53 19.14 3.23 3.24 7.56 4.99 12.26 4.99h.06Zm1.39 63.41H362v-20.29c.07-5.34 2.77-7.82 7.3-7.89 4.53.07 7.16 2.47 7.23 7.89v20.29h5.92v-21.07c0-3.82-1.08-7.01-3.5-9.35-2.08-2.08-5.05-3.16-8.62-3.16-3.18 0-6.07 1-8.34 3.01v-2.62h-5.92v33.19Zm29.04 47.22c0-4.98-.65-9.66-4.07-13.16-2.32-2.32-5.55-3.83-9.6-3.82-4.05 0-7.29 1.5-9.6 3.82-3.43 3.51-4.08 8.19-4.08 13.17s.65 9.66 4.08 13.16c2.31 2.32 5.55 3.83 9.6 3.82 4.04 0 7.29-1.5 9.6-3.82l-.44-.44.44.43c3.43-3.5 4.07-8.19 4.07-13.16Zm7.76-139.2c4.53.07 7.1 2.46 7.17 7.82v20.37h5.92v-21.14c0-3.72-1.11-6.85-3.22-9.04-2.1-2.19-5.17-3.4-8.9-3.4-3.19 0-6.04.96-8.34 3.01v-16.9h-5.92v47.48h5.92v-20.37c.06-5.27 2.83-7.76 7.37-7.82Zm22.24 125.82-.44-.43c-2.37-2.39-4.96-3.18-8.1-3.17-3.21 0-6.29 1.15-8.34 3.18v-2.79h-5.92v33.2h5.92v-20.23c.04-4.63 2.74-7.93 7.04-7.95 2.38.03 3.35.48 5.08 2.16l.44.44.44-.45 3.87-3.95Zm1.05-43.8c.06-6.32-4.31-8.81-9.98-9.26l-5.13-.46c-3.91-.4-4.95-1.62-5.02-4.05.04-2.85 1.99-4.57 6.52-4.64 3.22 0 5.99.76 8.13 2.41l.43.33 3.92-3.93-.53-.44c-3.01-2.46-7.25-3.58-11.89-3.58-7 0-12.37 3.71-12.38 9.97-.06 5.58 3.74 8.74 10.12 9.19l5.26.45c3.57.4 4.69 1.56 4.76 4.06 0 3.29-2.71 4.97-7.88 5.03-3.86 0-7.1-1-9.49-3.51l-.44-.47-4.02 4.02.46.44c3.63 3.51 8.09 4.8 13.55 4.79 7.88 0 13.6-3.76 13.61-10.36Zm16.65 9.98h3.93v-5.27h-3.09c-2.7-.08-3.64-1.32-3.73-4.05v-18.86h6.82v-4.81h-6.82v-10h-5.92v10h-4.03v4.82H424v18.99c0 2.49.72 4.78 2.21 6.47 1.48 1.69 3.74 2.73 6.6 2.72Zm8.68 16.33h-6.18v47.48h6.18v-47.48Zm26.19-326.48c0 10.85 4.22 20.14 12.55 27.61 7.73 7.01 17.82 10.86 28.42 10.86h66.51c4.56 0 7.87-3.26 7.87-7.76v-6.97c0-4.49-3.31-7.76-7.87-7.76h-66.26c-10.68-.17-18.74-7.04-18.74-15.98v-38.14c0-9.56 9.62-15.99 18.6-15.99h66.4c4.49 0 7.87-3.34 7.87-7.76v-6.97c0-4.5-3.31-7.76-7.87-7.76h-66.51c-10.56 0-20.66 3.86-28.43 10.88-8.11 7.28-12.56 17.08-12.55 27.6v38.14Zm69.47 215.94v-2.79h-5.92v33.2h5.92v-20.23c.04-4.63 2.74-7.93 7.04-7.95 2.37.03 3.36.47 5.08 2.16l.44.44.44-.45 3.87-3.95-.44-.43c-2.37-2.39-4.96-3.18-8.1-3.17-3.21 0-6.29 1.15-8.34 3.18Zm-52.73 21.09v-18.86h6.82v-4.82h-6.82v-10h-5.92v10h-4.02v4.82h4.02v18.99c0 2.49.72 4.78 2.2 6.48 1.48 1.69 3.73 2.72 6.6 2.72h3.93v-5.27h-3.09c-2.7-.08-3.64-1.32-3.73-4.05Zm-17.08 63.81v-18.86h6.82v-4.81h-6.82v-10h-5.92v10h-4.03V673h4.03v18.99c0 2.49.72 4.78 2.2 6.47 1.48 1.69 3.74 2.73 6.61 2.72h3.93v-5.27h-3.09c-2.7-.08-3.64-1.32-3.73-4.05Zm-18.58-54.48h5.92v-20.23c.04-4.63 2.74-7.93 7.04-7.95 2.38.03 3.36.47 5.08 2.16l.44.44.44-.45 3.88-3.95-.43-.43c-2.37-2.39-4.96-3.18-8.11-3.17-3.21 0-6.29 1.15-8.34 3.18v-2.79h-5.92v33.2Zm-4.81 19.51c.16 4.73 7 4.73 7.16 0-.16-4.73-7-4.73-7.16 0Zm.59 44.29h5.92v-33.19h-5.92v33.19Zm37.29 16.33H448.9v5.66h13.38v41.82h6.18v-41.82h13.38v-5.66Zm26.24-49.52h-5.92v20.3c-.07 5.33-2.83 7.82-7.37 7.88-4.53-.07-7.09-2.46-7.17-7.88v-20.3h-5.92v21.01c0 3.8 1.01 7.06 3.44 9.41 2.08 2.08 5.12 3.16 8.68 3.16 3.19 0 6.13-1.05 8.4-3.07v2.69h5.86v-33.2Zm2.66-30.22c5.52 0 8.76-1.83 12.03-5.12l.47-.47-4.12-3.61-.41.41c-2.5 2.46-4.36 3.43-7.94 3.45-5.6-.06-8.53-3.37-8.78-9.8h21.55v-2.76c0-4.84-1.24-8.86-3.61-11.69-2.37-2.82-5.86-4.4-10.13-4.39-4.21 0-7.71 1.59-10.09 4.54s-3.65 7.18-3.65 12.44c0 5.75 1.41 10.01 3.98 12.84 2.57 2.83 6.27 4.16 10.61 4.15h.1Zm20.98 30.42h-6.82v-10h-5.92v10h-4.02V673h4.02v18.99c0 2.49.72 4.78 2.2 6.47 1.48 1.69 3.74 2.73 6.6 2.72h3.93v-5.27h-3.09c-2.7-.08-3.64-1.32-3.73-4.05V673h6.82v-4.81Zm32.4 15.49c0-4.84-1.24-8.86-3.61-11.68-2.37-2.82-5.86-4.4-10.13-4.39-4.21 0-7.71 1.59-10.09 4.54s-3.65 7.19-3.65 12.45c0 5.74 1.4 10.01 3.98 12.83 2.57 2.84 6.27 4.16 10.61 4.15 5.54.03 8.86-1.81 12.13-5.12l.47-.47-4.12-3.62-.41.41c-2.49 2.47-4.36 3.43-7.94 3.46-5.6-.05-8.53-3.37-8.78-9.79h21.55v-2.77Zm19.09-63.81c0-4.84-1.24-8.86-3.61-11.69-2.37-2.82-5.86-4.4-10.13-4.39-4.21 0-7.71 1.59-10.09 4.54-4.96 5.52-4.86 20.21.32 25.28 2.57 2.83 6.27 4.16 10.61 4.15 5.53.03 8.86-1.81 12.13-5.12l.47-.47-4.12-3.61-.41.41c-2.5 2.46-4.36 3.43-7.94 3.45-5.6-.06-8.54-3.37-8.78-9.8h21.54v-2.76Zm33.38-29.98h-5.92v16.97c-2.46-2.44-5.3-3.09-8.4-3.07-3.39 0-6.39 1.14-8.23 2.97-3.46 3.48-4.07 8.97-4.08 14.01.01 5.04.62 10.53 4.08 14.01 1.84 1.84 4.85 2.97 8.23 2.97 3.11.03 6-.69 8.47-3.18v2.78h5.86v-47.48Zm98.74-201.03c0-20.18-9.4-29.59-29.59-29.59h-60.69c-3.99 0-6.88-2.89-6.88-6.88v-8.62c0-3.99 2.89-6.88 6.88-6.88h78.96c4.42 0 7.76-3.34 7.76-7.76v-6.97c0-4.5-3.26-7.76-7.76-7.76h-78.74c-20.18 0-29.59 9.4-29.59 29.59v8.62c0 19.89 9.4 29.15 29.59 29.15h60.7c4.05 0 6.88 2.83 6.88 6.88v11.49c0 3.99-2.89 6.88-6.88 6.88h-80.32c-4.5 0-7.76 3.27-7.76 7.76v6.97c0 4.5 3.26 7.76 7.76 7.76h80.1c20.19 0 29.59-9.4 29.59-29.59v-11.05Zm-283.4 2.16v-38.14c0-9.87-9.73-15.99-18.74-15.99h-51.72v70.11h51.72c9.01 0 18.74-6.11 18.74-15.98ZM603.3 609.17c-6.41.01-7.36 5.32-7.43 11.59.07 6.27 1.02 11.57 7.43 11.59 3.3-.03 4.98-1.33 6.04-3.42 1.05-2.11 1.33-5.08 1.32-8.17 0-3.08-.27-6.06-1.32-8.17-1.07-2.09-2.75-3.39-6.04-3.42Z" style="fill:#fff"/>
</svg>
