<svg xmlns="http://www.w3.org/2000/svg" viewBox="0 0 1024 1024">
   <circle cx="512" cy="512" r="512" style="fill:#f16a24"/>
   <path d="M338.78 529.15a4 4 0 0 1-1-2v-52.07h-17.57v32a28.59 28.59 0 0 1-1.49 9.13 27 27 0 0 1-4 7.52 19.12 19.12 0 0 1-6.09 5 23.81 23.81 0 0 1-8.52 2 8.52 8.52 0 0 1-6.55-2 12.73 12.73 0 0 1-3.5-5 28.34 28.34 0 0 1-1-7.52v-32.27a7.35 7.35 0 0 0-9-8.86H263v14.55h5.48a4.41 4.41 0 0 1 2.53.52 3 3 0 0 1 1 2.5v27.12a30.63 30.63 0 0 0 3 15 17.63 17.63 0 0 0 8.65 8.4 26.49 26.49 0 0 0 13.06 2.5 47.89 47.89 0 0 0 8.52-1 18.27 18.27 0 0 0 7-3.5 55.38 55.38 0 0 0 5.54-4.54 20.76 20.76 0 0 0 3.5-5.51h.49v5a6.45 6.45 0 0 0 2.53 5.51 9.74 9.74 0 0 0 7 2h16.07v-14.48h-5.66c-2 .49-2.5.49-3 0m-101.92-10a18.59 18.59 0 0 1-9.5 10.53 11.11 11.11 0 0 1-7 1.52 12.18 12.18 0 0 1-7.52-2 17.6 17.6 0 0 1-5.54-5 31 31 0 0 1-3.5-7 37.9 37.9 0 0 1-1-8 30.23 30.23 0 0 1 1.49-10 23.84 23.84 0 0 1 4-7 22.31 22.31 0 0 1 5.42-4 14.76 14.76 0 0 1 6.51-1 17.14 17.14 0 0 1 9.13 2.5 22.25 22.25 0 0 1 6.09 7.52 27.73 27.73 0 0 1 2 11.57 17.75 17.75 0 0 1-.49 10.53m10.53-35.65a31.2 31.2 0 0 0-10-7.52 35.25 35.25 0 0 0-13.06-2.53 45.66 45.66 0 0 0-8 1 18.27 18.27 0 0 0-5.51 2 13.88 13.88 0 0 0-4 3c-1 1-2 1.52-2.5 2.53-.52 0-.52.49-1 1v-25.79a8.16 8.16 0 0 0-2.56-7c-1-2-3.5-3-7-2.65h-16.65v14.7h5.51a4.69 4.69 0 0 1 2.53.52 3 3 0 0 1 1.1 2.5v78.82h16v-8a24.05 24.05 0 0 0 3 3.5 28.74 28.74 0 0 0 4 3 31.78 31.78 0 0 0 6.09 2.53 40.25 40.25 0 0 0 8 1 37.32 37.32 0 0 0 13.06-2.53 25.57 25.57 0 0 0 10.58-7.54 37.29 37.29 0 0 0 7-11.57 47.67 47.67 0 0 0 2.53-15 43 43 0 0 0-2-14.58 37.48 37.48 0 0 0-7-11.54m157 34.22a26.76 26.76 0 0 1-3.53 6.51 20 20 0 0 1-5.51 3.5 24.35 24.35 0 0 1-6.09 1 14.55 14.55 0 0 1-9.53-3 22.38 22.38 0 0 1-6.09-7.55A24.35 24.35 0 0 1 372 507a20 20 0 0 1 2-10 14 14 0 0 1 5.51-6.55 17.29 17.29 0 0 1 9.13-2.5 32.67 32.67 0 0 1 7 1 11.81 11.81 0 0 1 5.54 3 18 18 0 0 1 4 6.09 28 28 0 0 1 1.52 10 40.31 40.31 0 0 1-2.13 9.56m6.08-41.6a6.09 6.09 0 0 0-2.53 2.5 7.37 7.37 0 0 0-1 3v2h-.49a1.55 1.55 0 0 0-.52-1c-.49-1-1.49-1.49-2.5-2.5a28.74 28.74 0 0 0-4-3 31.78 31.78 0 0 0-6.09-2.53 45.66 45.66 0 0 0-8.52-1 38.3 38.3 0 0 0-13.58 2.5 24.14 24.14 0 0 0-10 7.52 38.91 38.91 0 0 0-6.09 11.05 41.92 41.92 0 0 0-2 13.55 38.24 38.24 0 0 0 2 13.58 38.91 38.91 0 0 0 6.09 11.05 25.82 25.82 0 0 0 10 7.52 31 31 0 0 0 25.6.49 25.51 25.51 0 0 0 8-6.51h.4v10a20.88 20.88 0 0 1-1.52 8 10.75 10.75 0 0 1-4.38 4.93 15.22 15.22 0 0 1-6.51 3 37.78 37.78 0 0 1-7.55 1v15.07a87.07 87.07 0 0 0 11.05-1 34.22 34.22 0 0 0 10-3.5 33.49 33.49 0 0 0 8.52-6.09 22.59 22.59 0 0 0 5.57-9.53 33.49 33.49 0 0 0 2-12.57v-51.04c.49-1 .49-1.52 1-2a3 3 0 0 1 2-.49h5.51v-14.92h-16.53a5.39 5.39 0 0 0-4 1m149.6-2a23.11 23.11 0 0 0-10 2.5 18.91 18.91 0 0 0-7.52 6.55 31.63 31.63 0 0 0-5 9.13h-.49v-8.52a8.55 8.55 0 0 0-2.53-6.51 9.74 9.74 0 0 0-7-2.13h-16v14.55H517a4.35 4.35 0 0 1 2.5.52 2.86 2.86 0 0 1 1 2.5v51.73h17.57v-27.8a23.75 23.75 0 0 1 .52-6.09c.49-2 .49-3.53 1-5.54a16.56 16.56 0 0 1 3.5-6.51 17.69 17.69 0 0 1 10-7 23.75 23.75 0 0 1 6.09-.52h4v-17h-3M745 476.42a11.75 11.75 0 0 0-3.5 5.54l-10.1 38.78c-.52 1-.52 2.53-1 3.53 0 1.49-.52 2.5-.52 4h-.49v-1.16a22.28 22.28 0 0 1-.52-2.53c-.49-1-.49-2.5-1-3.5l-13-45.18h-15.61l-13 45.18c-.52 1-.52 2.5-1 3.5a22.28 22.28 0 0 1-.52 2.53v1h-.49v-1a22.28 22.28 0 0 1-.52-2.53 9.13 9.13 0 0 0-1-3.5l-10.53-38.66a8.92 8.92 0 0 0-3.53-5.51 12.42 12.42 0 0 0-6.51-1.52h-12.22V490H652a3.93 3.93 0 0 1 2.53.49 6.91 6.91 0 0 1 1.49 2l17.08 52.21h20.09l12.18-39.58c.52-1 .52-2.5 1-3.5l.52-3v-1h.49v1a17.9 17.9 0 0 1 .52 3c.49 1 .49 2.5 1 3.5l12.18 39.58h20.06l17.08-52.21a6.91 6.91 0 0 1 1.49-2 3.93 3.93 0 0 1 2.53-.49h2v-14.92h-12.13a13.36 13.36 0 0 0-7 1.49m74.8 43.2a23.38 23.38 0 0 1-4 7 21.71 21.71 0 0 1-5.51 3.87 15.43 15.43 0 0 1-6.51 1.52 17.17 17.17 0 0 1-9.13-2.53 22.25 22.25 0 0 1-6.09-7.52 28.19 28.19 0 0 1-2-11.54 24.35 24.35 0 0 1 1.52-9.13 14.46 14.46 0 0 1 4-6.45 16.29 16.29 0 0 1 12.54-5.51 12.18 12.18 0 0 1 7.52 2 17.6 17.6 0 0 1 5.63 4.9 31 31 0 0 1 3.5 7 37.9 37.9 0 0 1 1 8 51.05 51.05 0 0 0-2.53 8Zm22.1 10a2.59 2.59 0 0 1-2-1 3.81 3.81 0 0 1-1-2v-70a8.16 8.16 0 0 0-2.62-7 9.92 9.92 0 0 0-7-2.13h-16.64v14.7h5.51c1 0 1.52 0 2 .49a3 3 0 0 1 1 2.53v16h-.52a1.58 1.58 0 0 0-.49-1c-.49-1-1.49-1.49-2-2a10.41 10.41 0 0 0-4-2.5 27.4 27.4 0 0 0-6.09-2 42.38 42.38 0 0 0-8-1 37.84 37.84 0 0 0-13 2.5A21.31 21.31 0 0 0 777 483a33 33 0 0 0-6.55 11.54 46.85 46.85 0 0 0-2.5 15.07 59.94 59.94 0 0 0 2 14.55 28.77 28.77 0 0 0 6.51 11.54 31.26 31.26 0 0 0 10 7.55 35.89 35.89 0 0 0 13.06 2.5 47.89 47.89 0 0 0 8.52-1 11.14 11.14 0 0 0 6.09-3 13.52 13.52 0 0 0 4-3.5 27 27 0 0 0 3-4h.49v2.53a7.43 7.43 0 0 0 1 3.5 5.21 5.21 0 0 0 3 2.5 14.58 14.58 0 0 0 5 1h16v-14.63l-5 .52Zm-343-7.18a18.42 18.42 0 0 1-3 2.53l-4.51 3c-2 1-4 1.49-6.09 2.5a28.77 28.77 0 0 1-7 1 20.88 20.88 0 0 1-8-1.49 19.85 19.85 0 0 1-6.94-4 20.52 20.52 0 0 1-5-6.55 24.35 24.35 0 0 1-2-9.53 25.79 25.79 0 0 1 2.5-11.05 15.56 15.56 0 0 1 7.55-7.52 20.24 20.24 0 0 1 11.05-3 10.2 10.2 0 0 1 3.53.49 9.13 9.13 0 0 1 3.5 1 10.41 10.41 0 0 1 2.53 1.49 4 4 0 0 1 1 2.5v4h15.56v-9.13a8.8 8.8 0 0 0-2-6.09 12.94 12.94 0 0 0-4.54-4.54l-6.09-3c-2-.49-4.51-1-7-1.49a23.75 23.75 0 0 0-6.09-.52 39.85 39.85 0 0 0-16.07 3 30.08 30.08 0 0 0-12.18 8 29 29 0 0 0-7.72 11.62 40.41 40.41 0 0 0 0 28.13 35 35 0 0 0 7.52 11.54 39.06 39.06 0 0 0 12.18 8 39.85 39.85 0 0 0 16.07 3 37.51 37.51 0 0 0 10.55-1.48 59.21 59.21 0 0 0 8.52-3 30.9 30.9 0 0 0 6.09-3.53 46.64 46.64 0 0 0 5-4.51l-7.52-12.18c-.52-.52-1-.52-1.52.49m127.56-3.65a21.31 21.31 0 0 1-4.51 7 19.42 19.42 0 0 1-6.45 4.51 22.62 22.62 0 0 1-8 1.49 20.73 20.73 0 0 1-8-1.49 15.22 15.22 0 0 1-6.55-4.51 21.31 21.31 0 0 1-4.51-7 27.89 27.89 0 0 1 0-18.08 21.31 21.31 0 0 1 4.51-7 19 19 0 0 1 6.55-4.51 22.62 22.62 0 0 1 8-1.52 21.31 21.31 0 0 1 15.07 6.09 17 17 0 0 1 4.54 7 24.36 24.36 0 0 1 1.49 9.13 57.08 57.08 0 0 1-2 9.13m8-35.13a32.24 32.24 0 0 0-12.54-7.52 39.58 39.58 0 0 0-15.22-2.53 49.5 49.5 0 0 0-15.07 2.53 36.53 36.53 0 0 0-12.54 7.52 26.82 26.82 0 0 0-8 11.54 36.17 36.17 0 0 0-3 14.58 34.28 34.28 0 0 0 3 14.55 36.17 36.17 0 0 0 8 11.54 29 29 0 0 0 12.54 7.55 39.58 39.58 0 0 0 15.07 2.5 47.13 47.13 0 0 0 15.22-2.5 36.53 36.53 0 0 0 12.54-7.55 32.57 32.57 0 0 0 8.52-11.54 35.89 35.89 0 0 0 3-14.55 34.43 34.43 0 0 0-3-14.58 32.85 32.85 0 0 0-8.52-11.54" style="fill:#fff"/>
</svg>
