<svg xmlns="http://www.w3.org/2000/svg" viewBox="0 0 1024 1024">
   <circle cx="512" cy="511.73" r="512" style="fill:#90449e"/>
   <path d="M576.95 396.08c-3.97 13.57-19.92 13.58-23.88 0-2.91-9.06 3.05-20.49 11.93-20.31 8.89-.18 14.86 11.24 11.94 20.31Zm206.61 140.04c-7.85 78.52-93.91 77-154.01 80.09l-7.18-5.98h-.01c-17.29-11.77-39.63-20.44-68.47-12.08.12-.2 47.8-1.06 57.02 14.47l3.9 5.87c-20.56 4.83-33.6 17.03-40.02 51.66 12.21 1.9 13.25 10.64 12.89 15.32 19.52 18.03 44.61 43.27 51.82 66.82 21.05 1.25 39.18-15.42 39.1-36.61v-91.89c5.45-.41 10.67-.95 15.69-1.62v93.51c0 28.86-23.47 52.33-52.31 52.33H374.69c-28.85 0-52.32-23.47-52.32-52.33V448.41c0-28.84 23.47-52.32 52.32-52.32h90.7c-5.45 4.99-10.41 10.22-14.84 15.67h-75.87c-20.23 0-36.63 16.4-36.63 36.63v267.29c-.02 20.39 16.7 36.88 37.08 36.63v-.66c28.97-81.41 74.64-84.32 104.96-76.49.3-5.13 2.92-12.08 14.59-13.36v-40.97c.21-10.09-3.2-43.6-15.68-52.25-56.35-42.15-60.64-118.28-6.29-165.28 7.34-6.6 16.84-16.89 26.94-21.88 2.16-3.48 10.05-15.6 23.18-25.65 23.39-72.67 45.28-197.08-39.95-211.28-5.61 9.77-20.58 5.97-20.71-5.46.44-13.86 19.95-14.99 22.05-1.38 92.84 18.64 68.54 141.86 47.78 212.03.31-.18.63-.36.94-.53 33.43-65.38 100.59-127.48 180.73-71.49 7.17-4.25 16.67 1.24 16.55 9.62.03 6.13-5.07 11.09-11.07 11.07-7.65.23-13.44-8.39-10.16-15.46-71.85-50.03-133.23 2.64-165.57 61.6 23.91-8.8 50.63.06 70.14 16.33 6.01-7.99 18.22-11.11 29.74-.27 15.27 14.02 42.08 41.8 43.48 66.53 9.7 5.93 20.19 12.72 30.27 20.01 33.79 25.07 68.5 55.48 66.5 89.04ZM601.17 386.99c.17.16.34.35.5.51-12.45-14.53-27.52-23.97-43.71-21.25-18.09 12.6-21 44.83-6.93 62.52 17.27 22.16 45.28 10.16 50.92-17.01 1.67-7.31 1.59-15.65-.32-22.98-.08-.35-.17-.7-.28-1.04-.01-.06-.03-.12-.05-.18-.02-.1-.05-.21-.07-.31-.03-.08-.05-.17-.07-.26Zm16.47-22.66c13.39 12.13 23.12 26.99 30.05 40.75 3.23 1.65 16.71 8.6 33.57 18.65-3.3-20.68-27.24-46.62-41.46-59.3-8.23-7.51-16.04-7.43-21.88-.69l-.28.6ZM480.29 684.51c-26.65 12.44-46.9 44.82-55.57 67.77h209.36c-6.57-19.77-29.24-43.78-46.97-60.23-40.12 31.99-82.33 18.72-106.83-7.54Zm93.57-9.24c-.11.09-.23.18-.35.28l.13.19c-.23.14-.46.29-.68.42s-.07-.07-.11-.1c-28.57 20.35-59.21 11.46-76.86-9.21-2.82.52-12.89 3.66-10.36 11.88 21.21 22.45 52.49 32.92 83.11 15.81 3.89-1.88 8.45-3.74 11.42-6.96 1.94-2.15 2.64-5.97.63-8.29-.99-1.15-2.23-2.08-3.55-2.81-.41-.23-2.91-1.6-3.38-1.22Zm27.82-287.76c31.75 35.04 32.1 103.66-25.34 102.07-17.81-.13-29.44-3.49-37.01-9.2 7.8 9.43 21.28 14.43 45.87 12.25 57.8-3.9 51.46-72.53 16.48-105.11Z" style="fill:#fff"/>
</svg>
