<svg xmlns="http://www.w3.org/2000/svg" viewBox="0 0 1024 1024">
   <circle cx="512" cy="512" r="512" style="fill:#023e84"/>
   <path d="M252.75 438.19h-30.63c-2.18 0-3.27 1-3.27 3v31c0 2.07 1.09 3 3.27 3h30.62c2.18 0 3.27-1 3.27-3v-31a2.87 2.87 0 0 0-3.27-3ZM406.33 454a48.11 48.11 0 0 0-22.55-14.78 114.08 114.08 0 0 0-34.44-4.52 119 119 0 0 0-18 1.32 95.54 95.54 0 0 1-11.55 1.32q-2.62 0-2.62-2.32V369.3a2.93 2.93 0 0 0-.77-2.45 2.83 2.83 0 0 0-2.4-.85h-24.43c-2.17 0-3.15 1.06-3.15 4.37v240.35c0 .44 1 1.54 2.83 2.21a213.46 213.46 0 0 0 24.1 5.07 205.61 205.61 0 0 0 29.87 2 112.37 112.37 0 0 0 39.09-5.86 51 51 0 0 0 24.19-18.31 76.92 76.92 0 0 0 12.32-31.27 242.57 242.57 0 0 0 3.49-44.68 173.28 173.28 0 0 0-3.7-39.17A62.25 62.25 0 0 0 406.33 454Zm-17.59 104a53.79 53.79 0 0 1-6.43 22.29 26.92 26.92 0 0 1-14.38 11.8 78.33 78.33 0 0 1-25.18 3.31c-3.6 0-7.82-.22-12.54-.55a45 45 0 0 1-10.9-1.88 3.29 3.29 0 0 1-2.29-3.64v-122a4.52 4.52 0 0 1 2.62-4.74 90.24 90.24 0 0 1 10.25-2 103.29 103.29 0 0 1 15-1 76.84 76.84 0 0 1 21.91 2.65 25.41 25.41 0 0 1 14 9.93 48.35 48.35 0 0 1 7.25 19.8 187.47 187.47 0 0 1 2.07 31.34 315.26 315.26 0 0 1-1.31 34.64ZM577.9 440.39h-24.31c-2.18 0-3.16 1.09-3.16 3.27v144.49c0 1.75-1.09 2.93-3.16 3.6a88.5 88.5 0 0 1-12.32 2c-4.58.44-9.37.65-14.28.65a89.43 89.43 0 0 1-19.84-1.86 22.61 22.61 0 0 1-18.42-18.85 88.69 88.69 0 0 1-1.75-19.4V443.62a2.85 2.85 0 0 0-3.16-3.27h-24.29c-2.18 0-3.16 1.09-3.16 3.27v114a122 122 0 0 0 3.16 30.19 38.5 38.5 0 0 0 11.23 19.07A46.68 46.68 0 0 0 486.23 617a171.21 171.21 0 0 0 34.89 3c3.81 0 8.18-.22 13-.55s9.77-.87 14.93-1.52 10.25-1.42 15.26-2.29 9.7-1.75 14-2.62c2.18-.44 3.16-1.52 3.16-3.27V443.62a3.15 3.15 0 0 0-3.5-3.27Zm224-74.4h-24.44c-2.18 0-3.27 1.1-3.27 3.42v243.45a3 3 0 0 0 .8 2.52 2.93 2.93 0 0 0 2.47.9h24.43c2.18 0 3.26-1.1 3.26-3.42V369.41c.01-2.31-1.07-3.41-3.26-3.41ZM252.75 574.21h-30.63c-2.18 0-3.27 1-3.27 3v31c0 2.07 1.09 3 3.27 3h30.62c2.18 0 3.27-1 3.27-3v-31a2.87 2.87 0 0 0-3.27-3Zm487.44-108.68a41.45 41.45 0 0 0-10.25-19.07 38.92 38.92 0 0 0-18.57-9.69 126.31 126.31 0 0 0-27.9-2.77c-2.62 0-5.45.11-8.79.33s-6.64.55-9.92 1l-9.76 1.31c-3.16.44-6.11.77-8.61 1-1.75 0-2.83-.55-3.26-1.54v-66.69a3 3 0 0 0-.8-2.52 2.93 2.93 0 0 0-2.51-.86h-24.65a2.14 2.14 0 0 0-1.2.22 2.93 2.93 0 0 0-2 3.2v1.07c0 .66-.11 1.32-.11 2.21l.11 2.65v237.44a3 3 0 0 0 .8 2.52 2.93 2.93 0 0 0 2.46.9h24.47c2.18 0 3.27-1.1 3.27-3.42V464.29a4.23 4.23 0 0 1 2.93-2.42 133.87 133.87 0 0 1 29.75-2.76 78.17 78.17 0 0 1 18.76 1.89 21.5 21.5 0 0 1 11.23 6.51 26.66 26.66 0 0 1 5.45 12.58 76.39 76.39 0 0 1 1.42 16.55v116.07c0 2.32 1.09 3.42 3.16 3.42H740c2.18 0 3.16-1.1 3.16-3.42V496.32a117.46 117.46 0 0 0-2.93-30.79Z" style="fill:#fff"/>
</svg>
