<svg xmlns="http://www.w3.org/2000/svg" viewBox="0 0 1024 1024">
   <circle cx="512" cy="512" r="512" style="fill:#f37121"/>
   <path d="M537.27 326 664 394.77 546.9 238a87.31 87.31 0 0 0-9.63 88ZM480 581.21a28.89 28.89 0 1 1-.25 0ZM391.79 261l354.89 192.6a17.2 17.2 0 0 1 0 30.94 275.92 275.92 0 0 1-86.93 33.9l-73.82 151.49s-23.37 53.16-87.7 32.74c27-27 59.58-51.36 59.58-92.83a77.94 77.94 0 0 0-155.87 0c0 54.18 53.41 77 83.07 114.66a48.79 48.79 0 0 1-4.24 61.5c-36.85-36.46-108.11-98-137.39-138.28a116.84 116.84 0 0 1-25-71.26A134.18 134.18 0 0 1 413.11 455a154.73 154.73 0 0 1 49.82-6 161.52 161.52 0 0 1 66.77 20.16c31.46 18.49 46.74 13.61 68.44-4.62C611 454 625 419.68 603.26 411.72a155.93 155.93 0 0 0-21.7-5.39c-40.32-7.83-110.81-15.28-136.74-30-41.21-22.73-68.95-69.59-53-115.3Zm-95.14 167.54a29.15 29.15 0 0 1 29 29.15v29h-29a29.08 29.08 0 0 1 0-58.16Z" style="fill:#fff"/>
</svg>
