<svg xmlns="http://www.w3.org/2000/svg" viewBox="0 0 1024 1024">
   <circle cx="512" cy="512" r="512" style="fill:#292929"/>
   <path d="M712.54 379.39v256.66h47.463V379.39zm-344.21 5.98c-75.941 0-128.33 57.303-128.33 127.97 0 70.321 55.194 127.28 128.33 127.28 42.883 0 74.523-16.514 93.162-39.025l-35.861-30.586c-14.42 15.821-32.349 23.912-56.246 23.912-48.518 0-78.412-36.568-78.412-81.56 0-45.007 29.894-82.27 77.357-82.27 22.149 0 40.425 7.728 55.191 23.203l34.807-30.24c-22.149-26.368-49.918-38.68-89.998-38.68zm196.81 63.992c-50.281 0-90.359 43.246-90.359 95.982s40.079 95.271 90.359 95.271c32.697 0 49.227-13.71 59.066-34.443v29.88h46.061v-182.83h-47.115v28.84c-9.84-19.694-26.37-32.698-58.012-32.698zm7.73 42.898c31.296 0 51.336 24.607 51.336 53.085s-20.04 52.39-51.336 52.39c-30.226 0-50.627-24.969-50.627-52.738 0-28.478 20.401-52.736 50.627-52.736z" style="fill:#fff"/>
</svg>
