<svg xmlns="http://www.w3.org/2000/svg" viewBox="0 0 1024 1024">
   <circle cx="512" cy="512" r="512" style="fill:#bc8c62"/>
   <path d="M408.97 260.13c65.52-27.09 141.8-26.71 207.1 1.06 60.54 25.1 110.78 73.28 139.38 132.13-45.44 20.28-90.72 41.01-136.3 60.96a122.102 122.102 0 0 0-65.62-53.34 124.085 124.085 0 0 0-95.07 6.7 120.83 120.83 0 0 0-54.45 55.33 117.997 117.997 0 0 0-9.3 74.02 119.271 119.271 0 0 0 44.02 70.66c22.9 17.67 51.3 26.72 80.21 25.54 41.98-1.17 82.01-26.03 102.13-62.79 44.79 20.04 89.47 40.36 134.32 60.17-33.74 70.52-99.37 125-175.24 144.44-145.28 37.95-293.82-49.07-331.76-194.35C213.91 448.65 282.61 311.53 409 260.11Zm269.69 253.19c2.56 23.3 25.62 42.05 49.01 39.18 24.67-1.88 44.44-26.87 40.26-51.33-3.05-25.97-31.52-45.09-56.69-37.22-20.89 5.72-35.92 27.77-32.58 49.37Z" style="fill:#fff"/>
</svg>
