<svg xmlns="http://www.w3.org/2000/svg" viewBox="0 0 1024 1024">
   <circle cx="512" cy="512" r="512" style="fill:#012169"/>
   <path d="M337.24 416.57q12.5 57.53 27.76 126.81t28.76 127.81q13 59 13.51 62a67.55 67.55 0 0 0 5.25 12 32.3 32.3 0 0 0 11.76 12q9.5 6.5 16.26 7.25t8.25.75h29.51l-51 19q-7.5 1.5-12.51 0-4.5-2-9-8L267.7 398.56a24.36 24.36 0 0 1 .5-13q2.5-5 9.5-9l47-17Zm67.53-125.06v328.16L341.74 322q0-8 3-12.51 3.5-5.5 12-9Zm55.53 443.22a24.91 24.91 0 0 1-9.75-2A25.29 25.29 0 0 1 436.78 719a26.15 26.15 0 0 1-2-10.26V534.63a21.88 21.88 0 0 1 3.22-11.76 18.07 18.07 0 0 1 19.76-8.25 20.72 20.72 0 0 1 10.51 6.5l63.53 63.53a15.56 15.56 0 0 1-22 22l-44.52-45v142.56h144.59l-14.51-14a22.42 22.42 0 0 1-6-8.25 24.91 24.91 0 0 1-2-9.75 29.44 29.44 0 0 1 1.75-10.26 20.07 20.07 0 0 1 5.75-8.25l134.57-136.08a15 15 0 0 1 11-4.5 16 16 0 0 1 11 4 15.7 15.7 0 0 1 0 22L619.87 671.69l31 29.51a23.71 23.71 0 0 1 6.5 10.76 16.43 16.43 0 0 1-1 11.26 15.76 15.76 0 0 1-7.25 8.5 23.27 23.27 0 0 1-11.76 3Zm95.55-173.33a27.51 27.51 0 0 1-8-4.75L471.3 483.1a26.38 26.38 0 0 1-5.5-8 23.14 23.14 0 0 1-2-9.5 26 26 0 0 1 1.75-9.5 23 23 0 0 1 5.25-8l116.06-116.57q1-.5 1-1.25V328q0-.5-1-1.5L560.35 301q-6.5-6-6.5-11.26t1-7.25q.5-2 4.25-5.75t12.25-3.74h160.58a24.15 24.15 0 0 1 17.76 7.25 23.57 23.57 0 0 1 7.25 17.26l-.5 157.58a35.19 35.19 0 0 1-.5 6.25 11.1 11.1 0 0 1-2 4.75 13.26 13.26 0 0 1-5.25 5.25 14.06 14.06 0 0 1-6.75 1.75 22.42 22.42 0 0 1-6-1q-3.5-1-7.5-5l-26.51-25.51a2.74 2.74 0 0 0-1.75-1h-1.25a3.39 3.39 0 0 0-2.5 1L582.86 556.14a22.54 22.54 0 0 1-8.25 5.25 28 28 0 0 1-9.75 1.75 24.69 24.69 0 0 1-9.02-1.75Z" style="fill:#fff"/>
</svg>
