<svg xmlns="http://www.w3.org/2000/svg" viewBox="0 0 1024 1024">
   <circle cx="512" cy="512" r="512" style="fill:#0d5e72"/>
   <path d="M270.06 505.21c-.28 34.52-10.75 54.61-31.13 60.27-3.4.85-6.79 1.7-10.47 2.26-17 2.55-31.13-1.41-42.16-11.88-10.47-9.62-16.69-23.2-19.24-40.46a71.94 71.94 0 0 1-.85-11.6c-.85-23.2.85-38.48 5.38-45.84 5.38-9.05 11.88-15.28 19.81-19 4.53-2 13.58-4.24 27.73-6.79 17.54-3.11 33.39 9.9 47.25 39l-32 6.79c-6.23-9.05-12.73-13.3-19-12.45a18.56 18.56 0 0 0-9.34 4.81q-13.04 11.54-10.12 31.49c.28 1.13.57 2.83.85 4.81 3.4 15.56 11.32 22.92 24.05 22.07 12.45-.85 18.68-8.21 18.39-22.35Zm-7.92-82.63 35.65-2.26c.28 13.58.85 27.73 2.26 42.16 11-9.62 20.94-15.28 29.43-16.69 10.47-1.7 19 5.38 26 21.22 4.24 9.62 7.36 21.79 9.34 35.94 2.83 19 4.53 34.8 5.38 47.54l-27.73 4c-.57-10.19-1.41-19.24-2.55-26.6-3.11-22.35-7.92-33.11-13.87-32.26s-12.45 7.64-19.52 20.37c2.26 13.58 4.81 27.73 7.92 41.88l-27.73 5.66Zm137.8 71c5.09 11 13.3 16.13 24.62 15 10.47-.85 17-7.36 19-19.52l31.69-9.34c-3.4 35.09-17.26 54.33-41.88 57.72-7.64 1.13-16.13.57-26-1.7-18.68-7.36-30-25.18-34-53.2-.28-2.26-.57-5.09-.85-7.92-2.83-32.82 10.19-53.76 39.33-63.38 28.3-4.53 47.54 12.73 57.44 52.07Zm3.11-42.44a30.06 30.06 0 0 0-4.53 19.24l41.6-18.68c-6.23-8.21-13.3-11.88-20.66-10.75s-13.01 4.55-16.41 10.21Zm95.64-45.84a73.48 73.48 0 0 1 15-4c23.77-3.4 41 6.79 51.5 30.56 5.38 12.45 9.05 26.88 11 43.86l4.81 39.9-29.71 6.23-1.13-5.38c-37.92 4-58.86-2.26-62.82-19.24-.57-2.55-.85-4.24-1.13-5.38-2-14.15 2.26-23.49 13-28.86a58 58 0 0 1 16.46-4.99 59.17 59.17 0 0 1 23.2 1.41c-2-13.3-3.11-20.37-3.4-20.94-2.26-5.09-7.92-7.36-16.69-6.79-7.36.57-13.58 7.64-18.68 21.51l-30.28-.28c4.54-26.37 14.18-41.91 28.87-47.59Zm29.71 71.59c-8.21 1.13-12.17 4-11.88 8.21.28 6.23 10.19 9.9 29.43 11l-3.68-19.81a69.57 69.57 0 0 0-13.87.62ZM594.33 379c25.75-3.68 43.86 4 54 22.92a41.4 41.4 0 0 1 4.81 13.58c2.55 18.68-12.45 34.52-45.27 47.25l11.32 52.07-30.19 6.23-21.26-135.25a136.24 136.24 0 0 1 26.59-6.8Zm27.16 36.5c-.85-4.53-9.05-7.36-24.33-8.77l5.66 26.6c13.3-7.33 19.81-13.33 18.68-17.82Zm75.55 35.65c5.09 11 13.3 16.13 24.62 15 10.47-.85 17-7.36 19-19.52l31.69-9.34c-3.4 35.09-17.26 54.33-41.88 57.72-7.64 1.13-16.13.57-26-1.7-18.68-7.36-30-25.18-34-53.2-.28-2.26-.57-5.09-.85-7.92-2.83-32.82 10.19-53.76 39.33-63.38 28.3-4.53 47.54 12.73 57.44 52.07Zm3.11-42.44a28.27 28.27 0 0 0-4.23 19.29l41.6-18.68c-6.23-8.21-13.3-11.88-20.66-10.75-7.64 1.09-13.3 4.49-16.7 10.15Zm83.76 81.78c-6.51-47-13-84.32-19.52-111.77l32-7.36.57 10.75c14.43-12.17 30-19 46.69-20.94l7.07 27.45c-19 2.83-31.69 8.49-38.2 17.54-4.53 6.23-5.09 20.37-2 42.73q2.12 15.28 6.79 35.65ZM389.47 662.82 388.05 555c25.75 3.68 40.75 10.47 45.56 20.66a38.36 38.36 0 0 1 3.4 11 43.19 43.19 0 0 1-2.55 22.07c-3.96 12.21-18.96 30.32-44.99 54.09Zm18.39-80.08.28 29.71q13.58-10.19 12.73-17.83c-.56-5.37-4.8-9.05-13.01-11.88Zm37.92 31.13c-1.41-12.17.28-22.92 4.53-32.26 5.09-11.32 13.3-17.83 24.33-19.24 11.88-1.7 20.66 0 26.6 5.09 4.81 4.24 9.62 12.17 13.58 24.05a61.31 61.31 0 0 1 3.4 13.3c1.41 9.05 0 17.26-3.68 24.05-5.38 9.9-15 15.56-28.58 17.26-12.45 1.41-22.07-.57-28.86-5.66-5.94-5.37-9.91-14.14-11.32-26.59Zm43.86-25.47c-4.24-2.83-7.92-4.24-11.32-3.68-4 .57-7.36 3.68-9.9 9.62a27.06 27.06 0 0 0-2.55 14.43c.57 4.24 2.55 8.21 5.94 12.17 3.68 4.53 7.64 6.51 11.6 5.94 4.53-.57 8.49-3.68 11.6-9.05 3.11-5.09 4.24-9.9 3.4-14.71-.57-5.38-3.68-10.19-8.77-14.72Zm40.18-32.82 2.26 8.77c5.94-7.92 11.6-12.45 17-13 6.79-.85 13.3 4 19.24 15 3.11-9.05 8.49-14.15 15.85-15a21.43 21.43 0 0 1 10.19.85c9.34 2.26 15.56 15.28 19 39.33a243.18 243.18 0 0 1 2.55 31.41l-15.56 2.83c-.57-3.4-.85-6.23-1.41-9.34-4-28.3-9.05-42.16-15.28-41.31-5.94.85-7.64 10.75-5.09 29.43 1.13 7.07 2.55 15.28 4.81 24.9L565.47 632c-.57-7.92-1.13-15-2-21.22-2-13-4.53-22.35-8.21-27.73-2-2.83-4-4.24-5.94-4-3.68.57-7.64 5.94-11.6 16.41l5.94 41.88-17.83 2-14.15-78.1Zm102.72-18.68a33.66 33.66 0 0 1 10.19-2.55c16.41-2.26 28 4.53 35.09 20.94 3.68 8.49 6.23 18.39 7.64 30l3.11 27.16-20.37 4.24-.57-3.68c-25.75 2.83-40.18-1.7-43-13.3a24.27 24.27 0 0 0-.85-3.68c-1.41-9.62 1.7-16.13 9.05-19.81a40.16 40.16 0 0 1 11.32-3.4 37.79 37.79 0 0 1 15.85.85c-1.41-9.05-2.26-13.87-2.26-14.43-1.7-3.4-5.38-5.09-11.32-4.81-5.09.28-9.34 5.09-12.73 14.71l-20.69-.26c3.12-17.55 9.63-28.3 19.54-31.98Zm20.37 49c-5.66.85-8.21 2.55-8.21 5.66.28 4.24 6.79 6.79 20.09 7.64l-2.55-13.58a49.93 49.93 0 0 0-9.33.23Zm40.75-65.36a5.79 5.79 0 0 1 3.11 0c4.53.85 7.92 3.11 9.9 7.07a12.11 12.11 0 0 1-.85 12.17c-2.55 4.24-5.94 6.51-9.9 6.79-4.24.28-7.64-1.41-10.75-5.09a10.52 10.52 0 0 1-2.55-5.38 13.58 13.58 0 0 1 1.41-7.92c2.83-4.86 6.23-7.13 9.63-7.69Zm17 32q3 29.71 5.09 58.57l-20.09 4.81c-.57-8.21-1.13-16.69-2.55-25.18-1.41-10.47-3.68-21.22-6.23-32ZM729 524.17l2.55 8.77q14-13.16 23.77-14.43c6.23-.85 11 1.7 15 7.36 5.94 8.77 10.19 23.77 13.3 45.27 1.13 7.64 2 16.13 2.83 25.75l-21.22 3.68a207 207 0 0 0-1.7-29.15Q761.42 557 756.76 551c-2-2.55-4-3.68-6.23-3.4-4 .57-8.21 5.94-12.73 16.41l5.94 41.88-19.52 2.26-14.43-78.1Zm59.14 69.61 6.23-22.64c13 5.94 22.92 8.49 29.43 7.64a12.65 12.65 0 0 0 6.51-3.11c2.26-2 3.11-4 2.83-6.23-.57-3.4-5.38-5.38-14.43-6.51-13.3-1.41-22.92-7.07-28.86-16.41a26.57 26.57 0 0 1-3.68-9.05c-.85-5.94 1.41-11.88 7.07-17.26q7.22-6.79 22.92-9.34a131.62 131.62 0 0 1 26.6-.85l-4 21.22c-8.21-2.26-14.71-3.11-19.24-2.55a12.19 12.19 0 0 0-6.23 2.55c-2.26 1.7-3.4 3.4-3.11 5.38s2.26 3.68 5.94 5.38q3.82 1.7 14.43 4.24c5.94 1.41 10.47 3.11 13.3 4.81a17.05 17.05 0 0 1 7.64 12.17c1.7 8.77-1.41 17.54-9.05 26-3.11 3.68-8.49 5.94-15.56 7.07-9.29 1.71-22.3.88-38.71-2.51Z" style="fill:#fff"/>
</svg>
