<svg xmlns="http://www.w3.org/2000/svg" viewBox="0 0 1024 1024">
   <circle cx="512" cy="512" r="512" style="fill:#00bceb"/>
   <path d="M382.4 651.4h26.2V547.7h-26.2v103.7zm-115-51.9c0 33.4 25.8 53.7 55.2 53.7 11.7 0 20.6-2.7 23.9-3.7v-27.8c-1.2.6-9.7 5.5-22 5.5-17.5 0-28.7-12.3-28.7-27.7 0-15.8 11.7-27.7 28.7-27.7 12.5 0 20.9 5 22 5.6v-27.8c-2.5-.7-11.6-3.7-23.9-3.7-31.8 0-55.2 22.7-55.2 53.6m273.1 0c0 33.4 25.8 53.7 55.2 53.7 11.6 0 20.6-2.7 23.8-3.7v-27.8c-1.1.6-9.7 5.5-22 5.5-17.4 0-28.7-12.3-28.7-27.7 0-15.8 11.7-27.7 28.7-27.7 12.5 0 20.9 5 22 5.6v-27.8c-2.5-.7-11.6-3.7-23.8-3.7-31.9 0-55.2 22.7-55.2 53.6m134.3 0c0-15 11.5-27.3 27.1-27.3 15.5 0 27.1 12.2 27.1 27.3 0 15.1-11.6 27.3-27.1 27.3-15.6.1-27.1-12.2-27.1-27.3m-27.7 0c0 29.7 22.9 53.7 54.7 53.7 31.9 0 54.8-24 54.8-53.7 0-29.6-22.9-53.6-54.8-53.6-31.8 0-54.7 24-54.7 53.6m-203.4-21.2c0 17.2 12.2 25.7 26.7 30.3 1.6.5 4 1.3 5.6 1.8 6.5 2 11.6 5.1 11.6 10.3 0 5.9-6 9.7-19 9.7-11.4 0-22.4-3.3-24.7-3.9v23.9c1.3.3 14.3 2.8 28.2 2.8 20 0 42.9-8.7 42.9-34.8 0-12.6-7.7-24.3-24.7-29.6l-7.2-2.3c-4.3-1.4-12-3.6-12-9.9 0-5 5.7-8.5 16.2-8.5 9 0 20.1 3 20.4 3.2v-22.2c-.8-.2-12.8-3.3-25.5-3.3-24 .1-38.5 13.1-38.5 32.5m-230-142v27.2c0 7.2 5.9 13 13 13 7.2 0 13-5.8 13-13v-27.2c0-7.1-5.8-13-13-13-7.2.1-13 5.9-13 13m285.4 0v27.2c0 7.2 5.8 13 13 13 7.1 0 12.9-5.8 12.9-13v-27.2c0-7.1-5.8-13-12.9-13-7.2.1-13 5.9-13 13m285.3 0v27.2c0 7.2 5.8 13 12.9 13 7.1 0 12.9-5.8 12.9-13v-27.2c0-7.1-5.8-13-12.9-13-7.1.1-12.9 5.9-12.9 13M285 400.6v62.9c0 7.2 5.8 13 13 13s13-5.8 13-13v-62.9c0-7.1-5.8-13-13-13s-13 5.9-13 13m142.7 0v62.9c0 7.2 5.8 13 13 13s13-5.8 13-13v-62.9c0-7.1-5.8-13-13-13-7.1 0-13 5.9-13 13m142.7 0v62.9c0 7.2 5.8 13 13 13 7.1 0 13-5.8 13-13v-62.9c0-7.1-5.8-13-13-13s-13 5.9-13 13m142.6 0v62.9c0 7.2 5.8 13 12.9 13 7.3 0 13.1-5.8 13.1-13v-62.9c0-7.1-5.8-13-13.1-13-7.1 0-12.9 5.9-12.9 13m-356.6-48.9v137.7c0 7.2 5.8 13 13 13 7.1 0 13-5.8 13-13V351.7c0-7.2-5.8-13-13-13-7.2.1-13 5.9-13 13m285.4 0v137.7c0 7.2 5.8 13 12.9 13 7.2 0 12.9-5.8 12.9-13V351.7c0-7.2-5.8-13-12.9-13-7.1.1-12.9 5.9-12.9 13" style="fill:#fff"/>
</svg>
