<svg xmlns="http://www.w3.org/2000/svg" viewBox="0 0 1024 1024">
   <circle cx="512" cy="512" r="512" style="fill:#457df5"/>
   <path d="M881.8 479.86c-9.15-8.43-21.11-12.65-35.19-12.65-14.78 0-26.75 4.22-35.9 12.65-9.15 8.44-14.08 19.68-14.08 33.74s4.93 25.3 14.08 33.74c9.85 8.43 21.82 12.65 35.9 12.65s26.04-4.22 35.19-12.65c9.85-9.14 14.08-20.38 14.08-33.74 0-14.06-4.93-25.3-14.08-33.74Zm-18.3 52.02c-4.93 4.22-9.85 6.33-16.89 6.33s-12.67-2.11-16.89-6.33c-4.22-4.22-6.33-10.54-6.33-18.28s2.11-14.06 6.33-18.28c4.93-4.92 9.85-7.03 16.89-7.03s12.67 2.11 16.89 7.03c4.22 4.22 6.33 10.54 6.33 18.28s-2.11 14.06-6.33 18.28Zm-563.06-52.37c-9.15-8.43-20.41-12.65-35.19-12.65s-26.75 4.22-35.9 12.65c-9.15 8.44-14.08 19.68-14.08 33.74s4.93 25.3 14.08 33.74c9.85 8.44 21.82 12.65 35.9 12.65s26.04-4.22 35.19-12.65c9.15-9.14 14.08-20.38 14.08-33.74 0-14.06-4.93-25.3-14.08-33.74Zm-18.3 52.02c-4.93 4.22-9.85 6.33-16.89 6.33s-12.67-2.11-16.89-6.33c-4.22-4.22-6.33-10.54-6.33-18.28s2.11-14.06 6.33-18.28c4.93-4.92 9.85-7.03 16.89-7.03s11.97 2.11 16.89 7.03c4.22 4.22 6.33 10.54 6.33 18.28s-2.11 14.06-6.33 18.28Zm49.27-62.91h26.04v89.27h-26.04v-89.27Zm-138 61.62 16.83 16.86c-8.75 8.76-20.86 13.48-34.33 13.48-26.92 0-47.79-20.9-47.79-46.52s21.54-47.2 47.79-47.2c12.79 0 24.9 5.39 33.65 13.49l-16.83 16.18c-3.37-4.05-9.42-6.74-16.15-6.74-13.46 0-24.23 10.79-24.23 24.27s10.77 23.6 24.23 23.6c6.73 0 12.79-2.7 16.83-7.42Zm378.01-27.18v55.53h-26.04v-50.61c0-11.25-6.33-17.57-16.19-17.57s-16.89 7.03-16.89 18.28v49.91h-26.04V422.94h26.04v53.42c4.93-6.33 12.67-9.84 23.23-9.84 21.82 0 35.9 14.06 35.9 36.55ZM360.27 439.1c0 4.22-1.41 7.73-4.93 10.54-5.63 5.62-16.19 5.62-21.82 0-10.56-9.14-2.11-26.71 10.56-26.71 9.15 0 16.19 7.03 16.19 16.17Zm300.53 38.66c-5.63-7.73-14.78-11.25-27.45-10.54-13.37 0-23.93 4.22-32.38 12.65-7.74 8.44-11.97 19.68-11.97 33.74s3.52 25.3 11.97 33.74c8.45 8.44 19 12.65 32.38 12.65 11.97 0 22.52-4.92 27.45-11.25v9.14h24.63v-89.97H660.8v9.84Zm-1.41 37.25c0 14.76-8.45 23.2-21.82 23.2s-22.52-8.44-22.52-24.6 9.15-25.3 22.52-26.01c12.67 0 21.82 9.14 21.82 23.2v4.22Zm99.24-7.73 37.3 51.31h-31.67l-23.93-32.33-8.45 8.44v23.9h-26.04V422.94h26.04v77.32l30.26-31.63h31.67l-35.19 38.66Zm-293.5-4.22v55.53h-26.04v-50.61c0-11.25-6.33-17.57-16.19-17.57s-16.89 7.03-16.89 18.28v49.91h-26.04v-89.97h24.63v9.14c4.93-7.73 13.37-11.25 24.63-11.25 21.11 0 35.9 14.06 35.9 36.55Z" style="fill:#fff"/>
</svg>
