<svg xmlns="http://www.w3.org/2000/svg" viewBox="0 0 1024 1024">
   <circle cx="512" cy="512" r="512" style="fill:#ff9332"/>
   <path d="m375.67 631.68-52.62 52.18A252 252 0 0 1 256 511.92c0-68.2 26.48-132 74.56-179.68a257.56 257.56 0 0 1 103.94-62.61L450.76 342A182.85 182.85 0 0 0 383 384.46a179.34 179.34 0 0 0-7.32 247.21m135.93-119.82L456 263.9a259.44 259.44 0 0 1 237.5 69.31 251.34 251.34 0 0 1 68.41 234Zm128 219.7c-59.57 34.1-128.52 43.27-194.2 25.83A258.07 258.07 0 0 1 338.39 699L391 646.87a182.19 182.19 0 0 0 291.83-74.58l73.27 16.22c-19.18 60.25-60.51 111-116.46 143" style="fill:#fff"/>
</svg>
