<svg xmlns="http://www.w3.org/2000/svg" viewBox="0 0 1024 1024">
   <circle cx="512" cy="512" r="512" style="fill:#815bf4"/>
   <path d="M262.35 466.24c-24 138.35 65.91 270.35 198.5 299.87 2.41.53 4.82 1 7.23 1.47 20 3.75 32.24-18 20.72-34.85l-41.86-58.5a177.26 177.26 0 0 1-108.68-194.82c13.52-77.93 84-121.89 117.54-134.13l95.15 135.1a50 50 0 0 1 7.47 41.62 49 49 0 0 1-25.77 34 29.85 29.85 0 0 0-1 35.73l3.56 5.06a36 36 0 0 0 50.18 8.71l6-4.26A108.52 108.52 0 0 0 617.66 450L481.93 257.28c-108.38 13.24-193.76 97.02-219.58 208.96Zm499.3 91.52c24-138.35-65.91-270.35-198.5-299.87-2.41-.53-4.82-1-7.23-1.47-20-3.75-32.24 18-20.72 34.85l41.86 58.5a177.26 177.26 0 0 1 108.68 194.82c-13.52 77.93-84 121.89-117.54 134.13l-93.35-132.55a49.06 49.06 0 0 1 17.51-79.49 29.84 29.84 0 0 0 0-34.39l-3.56-5.06a36 36 0 0 0-50.18-8.71l-6 4.26A108.52 108.52 0 0 0 406.34 574l135.73 192.72c108.38-13.24 193.76-97.02 219.58-208.96Z" style="fill:#fff"/>
</svg>
