<svg xmlns="http://www.w3.org/2000/svg" viewBox="0 0 1024 1024">
   <circle cx="512" cy="512" r="512" style="fill:#0052ff"/>
   <path d="M283 454.22c-27.9 0-49.7 21.18-49.7 49.54s21.25 49.35 49.7 49.35 50.07-21.36 50.07-49.53-21.25-49.35-50.07-49.35m.18 78.45c-15.89 0-27.53-12.34-27.53-28.91s11.45-29.1 27.34-29.1 27.71 12.52 27.71 29.1-11.64 28.91-27.53 28.91m55.98-56.9h13.86v75.5h22.17v-95.2h-36.03v19.7Zm-161.66-1.1c11.64 0 20.88 7.18 24.39 17.86h23.46c-4.25-22.83-23.09-38.3-47.67-38.3-27.9 0-49.7 21.18-49.7 49.54s21.25 49.35 49.7 49.35c24.02 0 43.23-15.47 47.48-38.49h-23.28c-3.33 10.68-12.56 18.05-24.2 18.05-16.07 0-27.34-12.34-27.34-28.91s11.08-29.1 27.16-29.1m582.88 19.89-16.26-2.39c-7.76-1.1-13.3-3.68-13.3-9.76 0-6.63 7.21-9.94 17-9.94 10.72 0 17.55 4.6 19.03 12.15h21.43c-2.4-19.15-17.18-30.38-39.91-30.38s-38.98 11.97-38.98 28.91 10.16 25.6 30.67 28.54l16.26 2.39c7.94 1.1 12.38 4.24 12.38 10.13 0 7.55-7.76 10.68-18.48 10.68-13.12 0-20.51-5.34-21.62-13.44h-21.8c2.03 18.6 16.63 31.67 43.23 31.67 24.2 0 40.28-11.05 40.28-30.02 0-16.94-11.64-25.78-29.93-28.54m-396.29-77.71c-8.13 0-14.23 5.89-14.23 14s6.1 14 14.23 14 14.23-5.89 14.23-14-6.1-14-14.23-14m325.34 71.82c0-20.62-12.56-34.44-39.17-34.44-25.13 0-39.17 12.71-41.94 32.23h21.99c1.11-7.55 7.02-13.81 19.58-13.81 11.27 0 16.81 4.97 16.81 11.05 0 7.92-10.16 9.94-22.72 11.23-17 1.84-38.06 7.73-38.06 29.83 0 17.13 12.75 28.17 33.07 28.17 15.89 0 25.87-6.63 30.85-17.13.74 9.39 7.76 15.47 17.55 15.47h12.93v-19.7h-10.9v-42.91Zm-21.8 23.94c0 12.71-11.08 22.1-24.57 22.1-8.31 0-15.33-3.5-15.33-10.86 0-9.39 11.27-11.97 21.61-13.07 9.98-.92 15.52-3.13 18.29-7.37v9.21Zm-117.68-58.37c-12.38 0-22.72 5.16-30.11 13.81v-52.11h-22.17V551.3h21.8v-12.52c7.39 9.02 17.92 14.36 30.48 14.36 26.6 0 46.74-20.99 46.74-49.35s-20.51-49.54-46.74-49.54m-3.33 78.45c-15.89 0-27.53-12.34-27.53-28.91s11.82-29.1 27.71-29.1 27.34 12.34 27.34 29.1-11.64 28.91-27.53 28.91m-101.98-78.45c-14.41 0-23.83 5.89-29.37 14.18v-12.34h-21.99v95.2h22.17v-51.75c0-14.55 9.24-24.86 22.91-24.86 12.75 0 20.69 9.02 20.69 22.1v54.51h22.17v-56.16c0-23.94-12.38-40.88-36.58-40.88m451.34 46.4c0-27.25-19.95-46.4-46.74-46.4-28.45 0-49.33 21.36-49.33 49.54 0 29.65 22.35 49.35 49.7 49.35 23.09 0 41.2-13.63 45.82-32.96h-23.09c-3.33 8.47-11.45 13.26-22.35 13.26-14.23 0-24.94-8.84-27.34-24.31h73.35v-8.47Zm-72.05-7.37c3.51-13.26 13.49-19.7 24.94-19.7 12.56 0 22.17 7.18 24.39 19.7h-49.33Z" style="fill:#fff"/>
</svg>
