<svg xmlns="http://www.w3.org/2000/svg" viewBox="0 0 1024 1024">
   <circle cx="512" cy="512" r="512" style="fill:#2c5b9c"/>
   <path d="M466.07 588.08a276.32 276.32 0 0 1-29.12 7c-9.12 1.6-21.92 2.4-38 2.4-43.92 0-78.4-11.12-102.48-33.12-24.24-22-36.56-53.92-36.56-94.8a231.57 231.57 0 0 1 15.84-87 208.54 208.54 0 0 1 43.52-67.6 191.84 191.84 0 0 1 65-43.28A207.69 207.69 0 0 1 463.75 256a267.2 267.2 0 0 1 62 6.88 193.59 193.59 0 0 1 52 20.32 5 5 0 0 1 2.32 5.36L561.34 366a4.88 4.88 0 0 1-4.72 3.68h-9.36a4.8 4.8 0 0 1-3.52-1.52c-13-14.08-26.16-24.56-39-31.12-12.56-6.48-27.68-9.76-44.88-9.76a90.88 90.88 0 0 0-74.56 36.48c-19.68 24.56-29.68 56.48-29.68 94.72 0 24 5.2 41.52 15.6 51.92s26 15.76 46.4 15.76a126 126 0 0 0 53.12-11.44 230.1 230.1 0 0 0 47.8-29.72 5.2 5.2 0 0 1 3-1h8.48a4.72 4.72 0 0 1 3.84 1.84 5.12 5.12 0 0 1 .88 4.16l-18.56 76.32a4.72 4.72 0 0 1-2.88 3.36L491.1 579a213.85 213.85 0 0 1-25.03 9.08Zm281-20.72a94.07 94.07 0 0 1-39.76 26.48A79.68 79.68 0 0 1 736.94 613c9.68 10.32 14.64 24.8 14.64 43.2a95.36 95.36 0 0 1-43.12 82.72c-28 19.28-68 29.12-118.72 29.12H452.39a4.86 4.86 0 0 1-3.76-1.92 4.92 4.92 0 0 1-1-4.16l39-170.48 9-3.68c8.64-3.68 15.92-6.72 22.08-9.2a14.56 14.56 0 0 0 8.72-10.08l18.56-76.32A14.55 14.55 0 0 0 531 474.08h-8.48a14.4 14.4 0 0 0-9.76 3.76l8.08-35.12a4.88 4.88 0 0 1 4.72-3.76h115.78c39 0 69.28 6.64 90.16 19.68a64.48 64.48 0 0 1 32.56 57.44A77.6 77.6 0 0 1 747 567.36Zm-88.37 90.88c0-9.92-3.52-16.88-10.8-21.2-8-4.72-21.12-7.12-39-7.12h-39l-16 69.84h35.2c22.8 0 40.48-3.76 52.56-11.12 11.44-6.96 17.04-16.96 17.04-30.4Zm9.12-129.12c0-7.68-2.8-12.88-8.64-16.24-6.56-3.76-16.08-5.68-28.24-5.68H598L584.7 565h31.2c16.8 0 29.92-3.2 39-9.52 8.68-5.96 12.92-14.6 12.92-26.36Z" style="fill:#fff"/>
</svg>
