<svg xmlns="http://www.w3.org/2000/svg" viewBox="0 0 1024 1024">
   <circle cx="512" cy="512" r="512" style="fill:#243266"/>
   <path d="M642.74 445.99c-40.2-22.372-84.944-34.257-131.09-34.257-46.143 0-90.887 11.885-131.09 34.257 16.08 16.08 31.111 33.908 45.094 53.483 24.12 33.558 40.2 65.718 49.638 87.741l36.355-59.426 36.355 59.426c9.788-22.023 25.518-54.182 49.638-87.741 13.983-19.576 29.363-37.403 45.094-53.483zm182.82-64.32c-47.89 9.438-91.236 29.363-129.69 60.125-8.74 6.991-17.129 13.983-25.169 22.023-16.43 15.73-31.81 33.558-45.793 53.483-40.55 56.28-56.979 108.71-57.329 109.41-1.748 5.943-6.991 10.137-13.283 11.186h-2.447c-5.244 0-10.487-2.796-13.283-6.991l-26.916-39.85-26.916 39.85c-3.146 4.544-8.04 6.991-13.283 6.991h-2.447c-6.292-1.049-11.186-5.244-13.283-11.186 0-.35-16.779-53.134-57.329-109.41-14.332-19.925-30.063-38.103-46.143-53.833-1.748-1.748-3.845-3.496-5.593-5.243-6.292-5.593-12.584-11.186-18.876-16.08-38.452-30.762-81.798-50.687-129.69-60.125-8.74-1.748-14.332-10.137-12.584-19.226 1.748-8.74 10.137-14.332 18.876-12.934 55.581 10.836 106.62 35.656 151.36 73.059 47.191-28.664 101.02-44.045 156.26-44.045 55.231 0 109.06 15.38 156.26 44.045 44.744-37.403 95.781-62.222 151.36-73.06 8.74-1.747 17.129 3.846 18.876 12.935 1.748 9.088-4.195 17.129-12.934 18.876zm-518.4 77.254c-55.93 50.687-92.635 120.6-103.47 196.8-1.398 8.74 4.894 17.129 13.983 18.527 9.089 1.398 17.129-4.894 18.527-13.983 9.788-68.515 42.996-131.44 93.334-177.23 3.146-2.796 6.292-5.243 9.089-8.04-8.04-7.69-16.43-15.031-25.17-21.673-2.446 2.097-4.194 3.845-6.291 5.593zm512.81 196.8c1.398 8.74-4.894 17.129-13.983 18.527h-2.447c-8.04 0-15.031-5.943-16.08-13.983-9.788-68.515-42.996-131.44-93.334-177.23-3.146-2.796-6.292-5.243-9.089-8.04 8.04-7.69 16.43-15.031 25.17-21.673l6.291 5.244c55.93 51.036 92.635 120.95 103.47 197.15z" style="fill:#fff"/>
</svg>
