<svg xmlns="http://www.w3.org/2000/svg" viewBox="0 0 1024 1024">
   <circle cx="512" cy="512" r="512" style="fill:#243266"/>
   <path d="M634.02 450.31c-37.52-20.91-79.28-32.01-122.34-32.01s-84.82 11.11-122.34 32.01c15.01 15.03 29.03 31.69 42.08 49.98 22.51 31.36 37.52 61.41 46.33 81.99l33.93-55.53 33.93 55.53c9.13-20.58 23.82-50.63 46.33-81.99 13.05-18.29 27.4-34.95 42.08-49.98Zm170.62-60.11c-44.69 8.82-85.15 27.44-121.04 56.19-8.16 6.53-15.99 13.07-23.49 20.58-15.33 14.7-29.69 31.36-42.74 49.98-37.84 52.59-53.18 101.59-53.5 102.24-1.63 5.55-6.52 9.47-12.4 10.45h-2.28c-4.89 0-9.79-2.61-12.4-6.53l-25.12-37.24-25.12 37.24c-2.94 4.25-7.5 6.53-12.4 6.53h-2.28c-5.87-.98-10.44-4.9-12.4-10.45 0-.33-15.66-49.65-53.5-102.24-13.38-18.62-28.06-35.61-43.06-50.31-1.63-1.63-3.59-3.27-5.22-4.9-5.87-5.23-11.74-10.45-17.62-15.03-35.89-28.75-76.34-47.37-121.04-56.19-8.16-1.63-13.38-9.47-11.74-17.97 1.63-8.17 9.46-13.39 17.62-12.09 51.87 10.13 99.51 33.32 141.26 68.27 44.04-26.79 94.28-41.16 145.83-41.16s101.78 14.37 145.83 41.16c41.76-34.95 89.39-58.15 141.26-68.28 8.16-1.63 15.99 3.59 17.62 12.09 1.63 8.49-3.92 16.01-12.07 17.64Zm-483.81 72.19c-52.2 47.37-86.45 112.7-96.57 183.91-1.3 8.17 4.57 16.01 13.05 17.31 8.48 1.31 15.99-4.57 17.29-13.07 9.13-64.03 40.13-122.83 87.11-165.62 2.94-2.61 5.87-4.9 8.48-7.51-7.5-7.19-15.33-14.05-23.49-20.25-2.28 1.96-3.91 3.59-5.87 5.23ZM799.42 646.3c1.3 8.17-4.57 16.01-13.05 17.31h-2.28c-7.5 0-14.03-5.55-15.01-13.07-9.13-64.03-40.13-122.83-87.11-165.62-2.94-2.61-5.87-4.9-8.48-7.51 7.5-7.19 15.33-14.05 23.49-20.25l5.87 4.9c52.2 47.69 86.45 113.03 96.57 184.24Z" style="fill:#fff"/>
</svg>
