<svg xmlns="http://www.w3.org/2000/svg" viewBox="0 0 1024 1024">
   <circle cx="512" cy="512" r="512" style="fill:#297ef2"/>
   <path d="M592.26 568.77c-3.87 6.05-12.45 7.85-18.38 3.87-.48-.29-.99-.63-1.45-.97-17.24 13.51-38.48 20.88-60.55 20.88s-43.18-7.34-60.4-20.83c-.44.34-.9.65-1.36.94-6.08 3.97-14.53 2.08-18.38-3.85-3.87-5.98-2.18-14.1 3.78-18.12 5.18-3.39 5.55-10.2 5.55-10.27.12-3.56 1.67-6.95 4.26-9.32 2.57-2.42 5.79-3.78 9.35-3.51 7.12.17 12.93 6.18 12.79 13.39 0 .1 0 3.71-1.31 8.72 26.59 22.06 65.15 21.99 91.64-.19-.97-3.85-1.21-6.9-1.28-8.33-.07-3.71 1.26-7.05 3.73-9.61 2.45-2.49 5.74-3.92 9.25-3.97h.24c7.12 0 13.03 5.74 13.2 12.88 0 0 .36 6.83 5.5 10.22 5.98 3.95 7.7 12.04 3.83 18.07Zm56.24-154.25c-3.8-32.16-18.04-61.9-40.93-84.91-26.23-26.35-60.91-40.83-97.6-40.83s-71.32 14.48-97.58 40.86c-22.96 23.08-37.25 52.99-40.95 85.35-31.51 3.83-60.64 18.48-83.14 42.07-25.67 26.91-39.79 62.48-39.79 100.19 0 79 62.58 143.25 139.55 143.25h247.9c76.92 0 139.55-64.25 139.55-143.25 0-74.67-55.95-136.18-127-142.72" style="fill:#fff"/>
</svg>
