<svg xmlns="http://www.w3.org/2000/svg" viewBox="0 0 1024 1024">
   <circle cx="512" cy="512" r="512" style="fill:#ff6733"/>
   <path d="M825.98 426.44v.06l-44.62-31.82-2.3-1.26.27-2.81 1.28-54.85.05.04c.1-9.02-7.12-16.41-16.14-16.51-2.71-.03-5.38.61-7.78 1.87l-47.27 23.71a47.595 47.595 0 0 0-24.61 37.22l-4 42.39-34.04 18.31c-49.44-74.66-150.03-95.1-224.69-45.66s-95.1 150.03-45.66 224.69c30.01 45.31 80.72 72.57 135.06 72.61 89.38 0 162.08-72.84 162.08-162.36.01-20.85-4.01-41.5-11.84-60.82l33.59-18.03-.06.16 36.28 22.18a47.404 47.404 0 0 0 44.49 2.55l47.26-23.72c8.16-3.91 11.6-13.69 7.69-21.84-1.16-2.42-2.9-4.52-5.06-6.11M641.53 532.08c0 71.81-58.32 130.24-130.03 130.24-71.93.15-130.36-58.05-130.51-129.98-.15-71.93 58.05-130.36 129.98-130.51 42.88-.09 83.06 20.94 107.43 56.22l-44.07 23.7c-27.81-34.77-78.55-40.41-113.32-12.6-34.77 27.81-40.41 78.55-12.6 113.32 27.81 34.77 78.55 40.41 113.32 12.6 25.28-20.22 36.01-53.6 27.25-84.77l44.31-23.78c5.45 14.57 8.23 30 8.22 45.55M500.69 539c3.95 7.9 13.55 11.11 21.45 7.16 0 0 .01 0 .02-.01l37.37-20.06c3.44 26.43-15.21 50.65-41.64 54.08-2.12.28-4.26.41-6.4.4-26.8.06-48.57-21.61-48.64-48.4-.06-26.8 21.61-48.57 48.4-48.64a48.517 48.517 0 0 1 34.03 13.82l-37.45 20.13c-7.9 3.98-11.09 13.59-7.14 21.5m214.75-147.34c1.18-6.29 2.1-11.81 7.85-14.93l24.35-12.22-3.28 30.04-30.8 15.45 1.87-18.34Zm43.45 56.24c-5.96 2.75-10.91.18-16.65-2.64l-15.77-9.48 30.79-15.45 25.98 15.36-24.35 12.22Zm-5.69 62.24c-8.74-1.41-16.97 4.53-18.4 13.26-.79 4.86-1.69 9.71-2.68 14.53-9.56 46.2-28.93 93.67-53.15 130.25-27.08 40.91-58.58 65.33-84.23 65.33-17.6 0-25.71-2.42-36.14-5.52-11.4-3.39-24.33-7.23-47.12-7.23s-35.76 3.85-47.25 7.28c-10.28 3.06-18.4 5.47-35.99 5.47-25.65 0-57.13-24.41-84.22-65.28-24.22-36.57-43.6-84.04-53.17-130.25-10.68-51.6-8.68-97.04 5.77-131.39 21.01-49.87 70.66-75.96 108.86-75.96 23.55 0 36.91 5.17 51.1 10.66l.89.35c14.05 5.44 29.97 11.61 53.69 11.61h.69c23.7 0 39.65-6.2 53.73-11.65l.81-.31c14.14-5.47 27.49-10.66 51.09-10.66 10.04.12 20.01 1.73 29.59 4.77 5.51 1.71 10.89 3.8 16.11 6.26 8.03 3.76 17.58.29 21.34-7.74 3.76-8.03.29-17.58-7.74-21.34-6.56-3.09-13.33-5.71-20.25-7.86-12.63-4.01-25.79-6.1-39.04-6.19-29.59 0-47.16 6.81-62.66 12.82l-.81.32c-8.67 3.36-16.58 6.39-26.07 8.08-1.09-9.05-3.02-17.98-5.79-26.67l-.02-.03c61.78-11.25 59.59-86.38 59.59-86.38-50.29 7.63-71.97 26.87-80.79 45.37l-.02-.03a117.267 117.267 0 0 0-30.24-27.76 18.829 18.829 0 0 0-14.43-2.6c-10.34 2.28-16.87 12.5-14.59 22.84 1.1 5.01 4.17 9.36 8.5 12.09 20.18 12.74 34.24 35.39 38.93 61.93-6.82-1.84-13.52-4.11-20.06-6.79l-.95-.37c-15.51-6-33.07-12.8-62.6-12.8-48.77 0-111.97 32.83-138.4 95.59-21.46 51.01-15.99 109.94-7.62 150.39C269.82 594.57 290.9 646.14 317.3 686c34.03 51.36 73.42 79.65 110.93 79.65 22.23 0 33.86-3.45 45.23-6.84 10.2-3.04 19.83-5.91 38.01-5.91s27.79 2.87 38.15 5.95c11.24 3.34 22.86 6.81 45.12 6.81 36.97 0 77.41-29.05 110.95-79.7 26.39-39.85 47.48-91.42 57.83-141.49 1.09-5.27 2.07-10.56 2.94-15.88 1.42-8.75-4.5-16.99-13.25-18.43" style="fill:#fff"/>
</svg>
