<svg xmlns="http://www.w3.org/2000/svg" viewBox="0 0 1024 1024">
   <circle cx="512" cy="512" r="512" style="fill:#ff6733"/>
   <path d="M880.896 409.487v.072L828.2 371.986l-2.72-1.491.314-3.314 1.516-64.776.06.046a19.282 19.282 0 0 0-28.248-17.289l-55.819 28.002a56.206 56.206 0 0 0-29.06 43.95l-4.724 50.062-40.196 21.618a191.454 191.454 0 1 0-159.759 297.161c105.546 0 191.403-86.01 191.403-191.727a191.026 191.026 0 0 0-13.978-71.82l39.67-21.288-.066.191 42.847 26.194a55.991 55.991 0 0 0 52.54 3.01l55.813-28.008a19.337 19.337 0 0 0 3.103-33.013M663.103 534.24c0 84.802-68.873 153.804-153.545 153.804A153.806 153.806 0 1 1 635.8 446.828l-52.044 27.988a95.208 95.208 0 1 0 17.31 33.715l52.329-28.08a153.208 153.208 0 0 1 9.706 53.792m-166.294 8.185a18.885 18.885 0 0 0 25.356 8.448l44.132-23.693a56.995 56.995 0 0 1-56.73 64.34 57.297 57.297 0 1 1 39.908-98.276l-44.224 23.776a18.945 18.945 0 0 0-8.428 25.39m253.6-173.992c1.39-7.426 2.477-13.943 9.272-17.632l28.758-14.43-3.868 35.474-36.369 18.246zm51.313 66.414c-7.038 3.248-12.889.21-19.667-3.123l-18.62-11.19 36.359-18.25 30.68 18.133zm-6.72 73.502a18.965 18.965 0 0 0-21.727 15.664 417.82 417.82 0 0 1-3.17 17.157c-11.287 54.559-34.16 110.615-62.77 153.806-31.98 48.305-69.172 77.146-99.47 77.146-20.778 0-30.366-2.852-42.675-6.515-13.462-4-28.73-8.535-55.648-8.535-26.973 0-42.233 4.548-55.795 8.595-12.145 3.61-21.731 6.462-42.496 6.462-30.284 0-67.464-28.821-99.45-77.094-28.605-43.184-51.49-99.246-62.785-153.812-12.607-60.935-10.255-114.594 6.813-155.151 24.809-58.888 83.446-89.701 128.556-89.701 27.808 0 43.582 6.105 60.34 12.588l1.047.409c16.586 6.423 35.387 13.71 63.406 13.71l.818-.005c27.985 0 46.826-7.314 63.444-13.756l.955-.37c16.692-6.462 32.46-12.588 60.328-12.588a120.353 120.353 0 0 1 34.938 5.63 147.858 147.858 0 0 1 19.023 7.387 18.954 18.954 0 0 0 16.059-34.34 184.228 184.228 0 0 0-23.913-9.28 156.229 156.229 0 0 0-46.107-7.314c-34.94 0-55.688 8.04-73.996 15.137l-.962.376c-10.233 3.967-19.583 7.545-30.78 9.539a171.134 171.134 0 0 0-6.834-31.495l-.018-.039c72.952-13.288 70.37-102.006 70.37-102.006-59.384 9.01-84.991 31.732-95.398 53.581l-.027-.034a138.455 138.455 0 0 0-35.71-32.787 22.3 22.3 0 0 0-17.04-3.076 22.631 22.631 0 0 0-7.19 41.25c23.835 15.045 40.434 41.792 45.97 73.134a199.25 199.25 0 0 1-23.683-8.02l-1.124-.436c-18.313-7.083-39.054-15.116-73.922-15.116-57.586 0-132.22 38.773-163.436 112.885-25.343 60.241-18.885 129.83-9 177.596 12.235 59.119 37.131 120.013 68.307 167.078 40.189 60.652 86.705 94.054 130.994 94.054 26.253 0 39.98-4.074 53.41-8.074 12.046-3.59 23.418-6.983 44.882-6.983 21.422 0 32.815 3.387 45.045 7.024 13.273 3.948 26.992 8.04 53.279 8.04 43.663 0 91.417-34.307 131.02-94.111 31.168-47.061 56.064-107.961 68.287-167.08a462.28 462.28 0 0 0 3.473-18.747 18.965 18.965 0 0 0-15.644-21.763" style="fill:#fff"/>
</svg>
