<svg xmlns="http://www.w3.org/2000/svg" viewBox="0 0 1024 1024">
   <circle cx="512" cy="512" r="512" style="fill:#263238"/>
   <path d="M762.21 435.12a2.213 2.213 0 0 0 2.19-2.24 2.21 2.21 0 0 0-1.86-2.16c-17.23-3.39-44.45-6.26-74.4-6.26-67.04 0-147.39 14.38-158.08 69.75-.39 2.08-1.19 12.58-1.41 14.59 6.11.97 10.61 1.72 14.1 2.24-.39 2.77-.62 5.57-.67 8.37-.09 5.11 0 9.91.26 14.48-4.31-.56-8.76-1.19-13.2-1.86 5.4 57.28 36.91 73.64 69.88 74.36h2.32c20.83 0 42.02-6 57.4-11.67 1.15-.4 1.76-1.66 1.37-2.81a2.202 2.202 0 0 0-2.42-1.46c-30.36 4.11-77.62-1.06-67.12-77.22 8.75-63 129.12-75.58 171.66-78.09Zm-224.72 66.79c.23-2.62.5-5.39.63-6.16 8.58-44.36 82.6-61.7 122.17-61.7-37.55 8.82-77.03 25.86-85.45 57.98-.8 3.05-2.09 8.56-3.16 13.41-7.27-.75-11.07-.97-14.28-1.15-6.68-.38-13.33-1.18-19.9-2.39Zm63.82 96.31c-35.69 0-56.22-18.48-62.65-56.49 10.57 1.53 21.22 2.52 31.89 2.98 4.43 31.19 19.25 46.33 34.88 53.44-1.37.05-2.76.08-4.11.08ZM406.54 479.63c-.57 3.16-1.84 19.04-2.14 22.12 9.28 1.3 15.69 2.2 21.17 2.85-.47 3.67-.75 7.36-.84 11.06-.16 8.55 0 16.54.54 24.07-6.55-.88-13.25-1.83-20.11-2.87 8.37 88.89 58.08 112.84 109.15 112.84 8.38-.04 16.74-.62 25.04-1.76 28.98-3.02 57.04-13.07 75.32-20.92a2.22 2.22 0 0 0 1.15-2.92 2.207 2.207 0 0 0-2.45-1.29c-43.25 8.5-132.87 11.32-115.17-116.45 13.8-99.8 212.71-114.54 268.01-116.74 1.22 0 2.22-.98 2.23-2.2 0-1.07-.75-1.99-1.8-2.19-25.1-5.84-70.48-11.25-120.82-11.25-101.43.03-223.08 21.89-239.27 105.65Zm107.77 161.88c-57.33 0-90.83-31.93-99.74-94.93a501.91 501.91 0 0 0 57.02 5.36c7.19 59.22 38.05 81.13 69.29 87.55-8.8 1.31-17.67 1.99-26.57 2.01ZM478.5 477.43c-1.44 5.53-3.89 15.92-5.58 23.83-13.8-1.53-22.37-2.36-29.48-3.05-10.26-.97-16.59-1.62-30.16-3.52.45-5.13 1.07-11.98 1.3-13.5 17.28-89.27 167.49-98.95 231.26-98.95 4.91 0 9.73.05 14.46.15-77.75 7.32-164.86 30.29-181.81 95.05Zm-218.12-44.49c.02.15-.02.29-.09.42a36.456 36.456 0 0 1 .26-1.2c-.08.24-.15.52-.19.78h.02Zm-2.78 14.65c.34-1.84.68-3.73.97-5.55-.32 1.86-.66 3.75-1 5.55h.03Zm1.28-6.96c.33-1.75.64-3.45.97-4.91-.36 1.48-.67 3.16-1.03 4.91h.06Zm539.65-100.87c-45.77-17.58-158.07-41.25-269.42-41.25-124.43 0-247.79 29.52-276.13 129.82-1.3 4.63-5.23 28.43-6.2 33.03 13.48 3.46 23.07 5.84 30.58 7.61-.91 4.63-1.71 9.34-2.25 14.22-1.49 13.69-2.31 26.47-2.62 38.58-9.66-2.27-19.49-4.7-29.5-7.3 0 150.11 85.61 186.71 168.99 186.71 11.88-.02 23.75-.69 35.56-2.02 37.37-4.11 73.86-14.59 96.65-22.23a2.214 2.214 0 0 0 1.43-2.79 2.22 2.22 0 0 0-2.4-1.52c-60.14 7.42-205.02 5.9-159.71-193.08 35.02-153.7 345.86-140.32 414.07-135.49 1.22.11 2.3-.78 2.42-2 .09-1-.5-1.94-1.44-2.29h-.02Zm-539.9 102.3c-.34 1.83-.68 3.72-.97 5.55.33-1.84.67-3.73.97-5.55Zm1.17-6.38c-.3 1.47-.61 3.16-.97 4.91.31-1.75.63-3.43.97-4.91Zm120.51 219.78c18.74 18.92 43.78 30.48 74.52 34.51a326.087 326.087 0 0 1-42.8 3c-103.42 0-157.4-56.42-160.58-167.85 27.93 6.99 59.34 14.06 90.21 17.74.75 49.57 13.69 87.44 38.66 112.6Zm255.55-333.59c-152.83 0-247.61 39.73-274.1 114.89-3 8.45-8.85 26.45-12.42 38.48-8.37-1.79-15.18-3.2-20.92-4.37-9.15-1.84-15.56-3.08-21.25-4.15-13.68-2.62-21.66-3.28-50.98-11.52.11-.38.18-.77.21-1.17 1.07-6.01 2.62-15.09 3.72-20.15.02-.19.06-.38.12-.56 0-.17 0-.27.09-.42.09-.45.18-.85.26-1.21s.13-.56.19-.79v-.25c28.94-102.31 161.84-123.63 268.25-123.63 64.27 0 128.12 7.84 179 17.67-22.15-1.57-46.66-2.82-72.17-2.82Zm-375 108.85v.23c0 .08-.13.49-.19.79v.22c.02-.42.08-.84.19-1.25Z" style="fill:#fff"/>
</svg>
