<svg xmlns="http://www.w3.org/2000/svg" viewBox="0 0 1024 1024">
   <circle cx="512" cy="512" r="512" style="fill:#ec3824"/>
   <path d="M534.61 607.07c-22-9.48-32.26-12.88-67.39-21.9-41.3-10.62-81.92-32.71-109.08-67.17 19.16 14.18 58.25 42.73 98.39 39.64-6.1-9-17.35-16.08-30.81-23.19 12.61 3.06 46.27 11.72 91.9 50.2 22.23 14.49 49.5 28 87.5 23.41 52.34-6.3 87.53-18.53 154.44 32.4-12.37-1.26-34.35-4.39-61.86 9.78s-38.32 14.76-51.82 13.27c4 7.42 12 17.58 37.29 19.41s37.35 2.6 24.06 34.75c.31-9.71-1.93-28.47-27-25.19s-31 26.32-4 37.84c-8.76 1.8-27.3 2.89-40.55-32.51-9.18 4.07-23.32 12.23-49-8 8.92 3.3 20 3.5 20 3.5-22.77-11.08-44.52-31.72-58.45-51.24 11 8.41 23.24 16.77 35.57 18.35-9.44-11.72-26.89-31.06-49.19-53.35ZM550 440.87C409.73 402.95 353.95 355.09 310.8 305c19.71 57.67 66.69 78.3 116.91 117s53.06 59.54 67.83 82.41c32.95 51 38.19 59.38 70.89 81.65 38.53 24.15 85.13 7.81 136.27 15.38s93.41 44.4 102.59 58.56c10.72-18.06-14.9-44.12-21.81-50.65 3.7-23.66-55.53-34.07-78-42.17-4.41-1.59-15.3-4-5.85-25.22 12.74-29.31 26-54.82-149.67-101.12Zm202.44 155.52c13.29 1.9 19.6 4.18 22.63 7.13s2.77 6.58 2.93 11.18a97.7 97.7 0 0 0-25.56-18.31Zm-276-54.72c-9-21.21-27.08-48.4-98-87.23C345.84 435.73 290 407 239.79 352.31 244.37 372 267.65 415.4 368 469.58c27.74 15.62 74.71 30.27 108.49 72.09Zm-12.28-43.12c-8.37-24-23.44-54.65-94.89-100.21-34.77-22.94-85.86-51.8-153.15-125.34 4.84 19.82 26.08 71.41 133.23 138.36 35.18 23.96 80.65 38.78 114.87 87.19Z" style="fill:#fff"/>
</svg>
