<svg xmlns="http://www.w3.org/2000/svg" viewBox="0 0 1024 1024">
   <circle cx="512" cy="512" r="512" style="fill:#1d1a8b"/>
   <path d="M352 509.2a38.23 38.23 0 0 0 19.57-5.2c-1.79 10.09-7.9 17.95-15.61 20 .09 5.95-.08 11.86-.56 17.68-.59 7.12-.89 14.23-2 20.89-.78 4.71-2 4.91-2.86 0-1.13-6.62-1.4-13.77-2-20.89-.48-5.82-.65-11.73-.55-17.68-7.71-2-13.83-9.91-15.61-20a38.22 38.22 0 0 0 19.62 5.2ZM668 524c-.1 5.95.07 11.86.55 17.68.59 7.12.86 14.28 2 20.89.84 4.91 2.08 4.71 2.86 0 1.1-6.66 1.4-13.77 2-20.89.48-5.82.65-11.73.55-17.68 7.71-2 13.82-9.91 15.61-20a39.4 39.4 0 0 1-39.17 0c1.81 10.07 7.93 17.93 15.6 20Zm-180.87-89.64c2.23 12.57 9.85 22.38 19.46 24.93-.12 7.42.09 14.79.69 22 .73 8.88 1.07 17.8 2.48 26.05 1 6.13 2.6 5.88 3.56 0 1.37-8.3 1.75-17.17 2.48-26.05.6-7.25.81-14.63.69-22 9.61-2.55 17.24-12.36 19.47-24.93a49.13 49.13 0 0 1-48.84 0ZM623 720.95q1.48 13.84 2.91 27.36c-36.42-1.17-74.56-1.79-113.87-1.79-40 0-78.73.64-115.7 1.85.89-9.54 1.81-19.24 2.88-29C409.78 622 422.9 515.7 431.44 478.56h-.07A30.87 30.87 0 0 1 401 452.85a31.46 31.46 0 0 1-.48-4.67c-.3 0-.59.08-.9.1a19.53 19.53 0 0 1-11.87-35.68 31 31 0 0 1 7.8-59 19.52 19.52 0 0 1 14.9-31.5 31.59 31.59 0 0 1-12.48-11c-7.24-11.41-8.4-62.85 17.33-95.91 10.6-13.63 21-5.41 21.65 3.89 2 28.46 2.26 49.84 9.61 74.2a19.38 19.38 0 0 1 34.49-8.84 30.81 30.81 0 0 1 61-.08 19.38 19.38 0 0 1 34.43 8.92c7.35-24.36 7.6-45.74 9.61-74.2.66-9.3 11-17.51 21.65-3.89 25.73 33.06 24.57 84.5 17.33 95.91a31.56 31.56 0 0 1-12.48 11 19.52 19.52 0 0 1 14.9 31.5 31 31 0 0 1 7.8 59 19.53 19.53 0 0 1-11.87 35.68c-.31 0-.6-.06-.9-.1A31.3 31.3 0 0 1 622 453a30.87 30.87 0 0 1-29.83 25.51c5.32 23.19 12.09 73.31 19 131.36 4 36.24 7.9 74.84 11.83 111.08Zm-35.38-285.13c9.59-2 16-7.38 19-16.57 2.26-6.77 4.26-13.63 6.1-20.53 1-3.91 1.49-7.88 5.88-9.82.85-.38 1.39-2.33 1.42-3.57.15-5.57.06-11.15.06-17.83-10.79-1.76-21.3-4.09-31.95-5.06-20-1.82-39.86-1-59.07 6.29a43.73 43.73 0 0 1-31.18 0 116.25 116.25 0 0 0-38.22-7c-17.82-.33-35.37 1.29-52.83 6.72 0 6-.12 11.41.09 16.81.05 1.33 1.11 2.65 1.82 3.91 1.74 3 4.08 5.85 5.22 9.1 2.59 7.38 4.35 15 6.93 22.43 2.87 8.22 8.9 13.6 17.45 14.72a189.51 189.51 0 0 0 30 1.94 35.38 35.38 0 0 0 16.67-4.3c-2.76 11.23-5 22.64-7.82 34.06a197.32 197.32 0 0 0-5.31 32.41c-1.34 16.86 9.63 31.39 23.42 31.39h32.41c13.79 0 24.76-14.53 23.42-31.39a197.36 197.36 0 0 0-5.31-32.41c-3.1-12.35-5.33-24.73-8.38-36.87a25.35 25.35 0 0 0 10.4 5.14 87.06 87.06 0 0 0 39.78.43Zm198.38 28a24.83 24.83 0 0 0-21-24.56A15.65 15.65 0 0 0 753 414a25.33 25.33 0 0 0 10-8.83c5.81-9.15 6.74-50.41-13.9-76.92-8.5-10.93-16.84-4.34-17.37 3.12-1.62 22.82-1.81 40-7.71 59.51a15.54 15.54 0 0 0-27.61-7.16A24.78 24.78 0 0 0 672 362.47a24.47 24.47 0 0 0-13.79 4.25 39.88 39.88 0 0 1-9.68 47.58 28.36 28.36 0 0 1-2.87 32.91 91.1 91.1 0 0 1 12.63 3.21c.92.3 1.84.6 2.75.94a35.7 35.7 0 0 0 16.9 2 35 35 0 0 0 8.1-2c13.59-5.18 27.57-6.28 41.69-5.47q2.84.16 5.69.42c5.14.47 10.25 1.34 15.39 2.27 3.39.61 6.79 1.24 10.23 1.8 0 5.36.07 9.83-.05 14.3v.38c-.1 1-.49 2.22-1.1 2.48a6.71 6.71 0 0 0-3.79 4.42c-.37 1.1-.62 2.28-.93 3.46-1.47 5.53-3.08 11-4.89 16.46a23.72 23.72 0 0 1-1 2.62 18.32 18.32 0 0 1-11.28 9.83l-.23.09h-.1a26.9 26.9 0 0 1-2.66.71q-2 .43-4 .75a69 69 0 0 1-27.87-1.1 20.5 20.5 0 0 1-7.88-3.78c-.15-.12-.32-.22-.46-.34.88 3.52 1.67 7.07 2.45 10.63.85 3.9 1.69 7.81 2.57 11.73.54 2.4 1.1 4.8 1.7 7.21a157.77 157.77 0 0 1 3.8 21.46c.16 1.51.33 3 .45 4.53.82 10.36-4.16 19.6-11.5 23.37a15.88 15.88 0 0 1-7.28 1.81H659c-8.06 0-14.9-6.2-17.61-14.8a27.3 27.3 0 0 1-1.17-10.38 158.29 158.29 0 0 1 4.26-26c1.87-7.46 3.4-14.92 5.1-22.3.39-1.68.77-3.36 1.18-5a25 25 0 0 1-5.84 2.36l-.37.12-.28.05a32.7 32.7 0 0 1-6.88.91h-4a167.35 167.35 0 0 1-20.06-1.56 17.2 17.2 0 0 1-3.52-.87 16.18 16.18 0 0 1-4.46-2.37c6.61 40 15.31 110.88 26.85 218.42.4 3.75.81 7.58 1.23 11.47.59 5.52 1.19 11.22 1.82 17.13 46.15 1.61 89.37 4.1 128.48 7.32l-2.35-22.11c-3.12-29.06-6.24-60-9.43-89.06-5.52-46.56-11-86.75-15.22-105.35A25 25 0 0 0 761 515.07c.24 0 .48.06.72.08a15.66 15.66 0 0 0 9.52-28.62A24.88 24.88 0 0 0 786 463.81Zm-368.09 39.76ZM403 610.71c4.79-38.88 10.07-78.54 14.86-107.13-.59.26-1.21.48-1.84.7l-1 .33c-.66.2-1.33.39-2 .55a69.81 69.81 0 0 1-31.87-.35 20.33 20.33 0 0 1-8.34-4.12c1.12 4.44 2.09 8.93 3.07 13.44 1.16 5.36 2.3 10.75 3.66 16.13a158.19 158.19 0 0 1 4.26 26 27.68 27.68 0 0 1-.34 7 26 26 0 0 1-2.05 6.53c-.06.12-.11.26-.17.38a22.94 22.94 0 0 1-3.37 5.05c-.1.11-.18.23-.28.34a17.05 17.05 0 0 1-12.59 5.87h-26a16.32 16.32 0 0 1-9.8-3.38c-5.93-4.42-9.71-12.67-9-21.8a158.2 158.2 0 0 1 2.33-17.13c.23-1.22.47-2.43.73-3.65.37-1.74.76-3.48 1.19-5.22 2.09-8.33 3.75-16.64 5.7-24.85.19-.82.38-1.65.58-2.47a24.09 24.09 0 0 1-2.52 1.21 27.41 27.41 0 0 1-6.31 1.78 34.34 34.34 0 0 1-4.54.46c-2.83.08-5.67 0-8.51-.12-5.2-.24-10.41-.76-15.56-1.43-6.85-.89-11.69-5.22-14-11.8-.17-.49-.31-1-.48-1.47-1.81-5.47-3.18-11.09-5.09-16.52-.83-2.35-2.43-4.43-3.76-6.61-.14-.23-.29-.46-.43-.69a11.36 11.36 0 0 1-1.36-2.66 2.49 2.49 0 0 1-.1-.47c-.08-2.17-.1-4.33-.1-6.56v-6.92a113.72 113.72 0 0 1 14.36-3.42 147 147 0 0 1 28-2 93.28 93.28 0 0 1 30.65 5.63 36.8 36.8 0 0 0 11 2.22 34.33 34.33 0 0 0 11-1.22q1.55-.44 3.08-1c1.16-.44 2.34-.8 3.51-1.18a84.42 84.42 0 0 1 8.4-2.34 28.31 28.31 0 0 1-3.44-33.52 39.88 39.88 0 0 1-9.44-48.07 24.49 24.49 0 0 0-13.09-3.76 24.78 24.78 0 0 0-24.48 21.3 15.54 15.54 0 0 0-27.66 7.09c-5.89-19.54-6.09-36.69-7.71-59.51-.53-7.46-8.86-14-17.37-3.12-20.64 26.52-19.71 67.77-13.9 76.92a25.33 25.33 0 0 0 10 8.83 15.65 15.65 0 0 0-12 25.26 24.89 24.89 0 0 0-6.26 47.29 15.66 15.66 0 0 0 9.52 28.62c.25 0 .48 0 .72-.08a25.08 25.08 0 0 0 24.74 24.37h.05c-6.2 27-15.41 99.34-23.4 170.71v.15c-.83 7.43-1.65 14.86-2.45 22.22-.86 7.93-1.61 15.75-2.32 23.47 39-3.22 82.06-5.72 128.07-7.34.92-9.9 1.88-20 3-30.28 2.74-25.2 7.3-66 12.43-107.66Zm-30.26-110Z" style="fill:#fff"/>
</svg>
