<svg xmlns="http://www.w3.org/2000/svg" viewBox="0 0 1024 1024">
   <circle cx="512" cy="512" r="512" style="fill:#719df4"/>
   <path d="M488.74 226.21c68.77-14.34 139.13 37.26 145.82 107.26 9.7 74.96-55.63 143.32-130.98 136.96-143.99-13.85-156-213.01-14.84-244.22ZM265.29 536.89c12.32-31.55 45.29-54.12 79.41-52.26 33.22.44 63.56 23.84 74.94 54.61-28.12 1.89-55.36 15.72-72.14 38.57-15.33 19.86-21.31 45.75-18.65 70.52-19.45-3.62-37.55-13.8-50.09-29.16-19.28-22.16-24.25-55.11-13.47-82.29Zm207.32-42.27c44.09-24.7 100.32-2.01 117.27 45.04-31.71 3.68-61.03 23.32-75.49 51.93-1.29 5.4-5.07.44-5.93-1.87-14.46-27.76-43.4-46.3-74.23-50.06 6.86-19.01 20.85-35.14 38.38-45.04Zm172.02-1.07c38.3-20.13 87.02-5.24 108.57 32.01 29.35 49.18-2.11 113.4-58.04 122.78 2.85-26.03-4.09-53.24-20.98-73.49-16.84-21.15-42.93-33.71-69.73-35.61 7.21-19.48 21.86-35.99 40.19-45.7ZM347.64 605.3c12.37-31.46 45.32-53.96 79.38-52.09 38.1.47 72.25 31.16 78.53 68.44-28.09 2.41-55.05 16.82-71.37 39.97-11.99 16.07-17.61 35.99-18.49 55.88-21.2-2.66-41.23-13.19-54.75-29.84-19.23-22.22-24.14-55.19-13.3-82.35Zm171.55 16.43c5.05-40.57 45.73-72.12 86.21-68.38 41.64 1.95 77.55 40.13 76.59 81.85 1.12 41.04-33.16 78.21-73.68 82.29-.88-19.91-6.53-39.86-18.54-55.96-16.18-22.9-42.82-37.22-70.58-39.8Zm-17.72 14.35c46.14-7.35 92.39 32.04 92.72 78.67 2.77 43.83-35.58 84.79-79.44 85.12-43.72 2.66-84.49-35.55-84.93-79.27-2.47-41.09 30.91-79.99 71.65-84.51Z" style="fill:#fff"/>
</svg>
