<svg xmlns="http://www.w3.org/2000/svg" viewBox="0 0 1024 1024">
   <circle cx="512" cy="512" r="512" style="fill:#ff159a"/>
   <path d="m510 565.2 10.82.79C553 664.95 507.69 783.6 415.19 830.96V832c91.06-8.09 209.63-99.03 216.61-239.17l13.43-1.76v-21.85c-27.37-14.8-45.27-76.4-6.93-109.13-6.53-81.96-42.82-163.75-88.97-220.99l-82.69-47.11-12.59 25.98c-11.03 6.17-19.95 15.39-25.64 26.5-5.69 11.12-7.9 23.64-6.35 35.98 3.96 29.75 25.68 47.97 65.52 53.9 20.51 2.98 28.03 11.57 31.7 23.1 3.67 12.18 2.61 24.54-7.34 31.69l1.61 5.17c17.94 1.11 27.22 10.78 30.96 24.9 4.44 16.71 3.01 30.47-11.01 39.96l.62 4.38c16.58 5.5 25.68 21.56 26.19 37.62.55 16.75-12.07 33.82-31 41.04-6.24 2.37-24.88 6.14-24.88 6.14l5.54 16.81Zm-20.91-255.66c-24.84 3.38-41.38-10.78-44.32-31.51-3.23-22.89 8.88-40.75 33.71-44.09 23.85-3.23 41.39 10.78 44.61 33.52 3.08 20.88-9.98 38.88-34.01 42.08Z" style="fill:#fff"/>
</svg>
