<svg xmlns="http://www.w3.org/2000/svg" viewBox="0 0 1024 1024">
   <circle cx="512" cy="512" r="512" style="fill:#ff159a"/>
   <path fill="#ff159a" d="m492.65 562.91 10.358.758c30.79 94.699-12.569 208.24-101.08 253.56v.997c87.138-7.737 200.6-94.77 207.28-228.87l12.849-1.685v-20.907c-26.191-14.167-43.323-73.106-6.636-104.43-6.25-78.433-40.972-156.7-85.137-211.47l-79.13-45.08-12.044 24.861c-10.554 5.9-19.092 14.725-24.54 25.363-5.446 10.641-7.56 22.621-6.073 34.435 3.792 28.47 24.576 45.906 62.702 51.578 19.625 2.853 26.824 11.073 30.333 22.109 3.51 11.657 2.493 23.488-7.022 30.329l1.544 4.951c17.168 1.067 26.051 10.317 29.631 23.83 4.249 15.99 2.88 29.16-10.532 38.237l.597 4.195c15.869 5.263 24.576 20.632 25.066 36.001.528 16.026-11.548 32.36-29.665 39.27-5.968 2.27-23.804 5.88-23.804 5.88zm-20.012-244.65c-23.768 3.232-39.601-10.317-42.408-30.157-3.09-21.904 8.495-38.992 32.262-42.191 22.821-3.095 39.603 10.315 42.69 32.081 2.95 19.978-9.547 37.206-32.545 40.267z" style="fill:#fff"/>
</svg>