<svg xmlns="http://www.w3.org/2000/svg" viewBox="0 0 1024 1024">
   <circle cx="512" cy="512" r="512" style="fill:#822ef5"/>
   <path d="M690.86 432.85c-4.9-94.43-83.26-169.75-178.88-169.75s-173.74 75.09-178.85 169.31l2.55-1.25c-49.68 31.83-82.67 87.53-82.67 150.78 0 98.68 80.3 178.96 178.96 178.96 28.76 0 55.93-6.85 80.01-18.94 24.11 12.11 51.31 18.95 80.08 18.95 98.68 0 178.96-80.29 178.96-178.96 0-62.16-31.88-117-80.14-149.09ZM592.04 723.1c-67.59 0-124.2-47.74-137.95-111.25l20.25-11.63v-43.44l-60.98 34.99c2.71 49.67 25.77 94.02 60.96 124.83-13.36 4.23-27.59 6.5-42.35 6.5-77.83 0-141.15-63.33-141.15-141.17s63.32-141.17 141.15-141.17c14.78 0 29.02 2.29 42.39 6.51v22.92l37.65 21.58v-69.84c-24.1-12.1-51.28-18.95-80.04-18.95-21.27 0-41.68 3.74-60.62 10.58l2.54-1.25c13.77-63.58 70.44-111.38 138.1-111.38 77.9 0 141.31 63.39 141.31 141.31 0 41.13-17.67 78.19-45.8 104.04l-19.71-11.3-37.89 21.72 60.86 34.9c38.87-25.79 67.13-66.32 76.76-113.55 28.08 25.82 45.71 62.84 45.71 103.9 0 77.83-63.33 141.16-141.16 141.16Z" style="fill:#fff"/>
</svg>
