<svg xmlns="http://www.w3.org/2000/svg" viewBox="0 0 1024 1024">
   <circle cx="512" cy="512" r="512" style="fill:#005ef4"/>
   <path d="M269.88 555.39c-1.8-5.07-3.09-10.31-3.92-15.73-3.45 3.29-7.24 5.73-11.42 7.27-4.44 1.63-8.94 2.32-13.5 2.06s-9.09-1.44-13.59-3.52c-4.51-2.1-8.65-5.04-12.43-8.82-3.67-3.67-6.57-7.77-8.69-12.31-2.12-4.54-3.36-9.13-3.74-13.81-.37-4.67.23-9.25 1.81-13.76 1.58-4.5 4.17-8.56 7.79-12.17 3.27-3.27 6.88-5.82 10.84-7.65s8.03-3.18 12.22-4.04c1.55-.29 2.83-.67 3.82-1.16 1-.48 1.76-.98 2.28-1.5 2.29-2.3 2.84-5.66 1.64-10.07l-5.34-20.65c-.4-1.78-1.12-3.18-2.16-4.21-1.49-1.49-3.11-2.37-4.85-2.62-1.75-.26-3.63-.13-5.64.39h.51c-7.91 1.38-15.36 3.89-22.32 7.53-6.97 3.64-13.58 8.59-19.83 14.83-5.16 5.16-9.47 10.8-12.94 16.91-3.47 6.11-6.06 12.43-7.79 18.97-1.72 6.53-2.59 13.23-2.62 20.08-.03 6.79.83 13.56 2.58 20.13 1.75 6.57 4.39 12.97 7.92 19.18 3.52 6.21 7.92 11.98 13.21 17.25 5.28 5.28 11.01 9.66 17.2 13.16 6.19 3.51 12.59 6.15 19.18 7.92a75.472 75.472 0 0 0 20.17 2.63c6.85-.03 13.56-.89 20.13-2.59 6.57-1.69 12.91-4.27 19.01-7.73a68.99 68.99 0 0 0 3.76-2.32c-5.65-6.78-10.12-14.65-13.28-23.6Zm430.67-109.05c-1.3-3.24-1.32-6.02-.06-8.33 1.26-2.31 4.02-3.46 8.33-3.46h30.05c2.03 0 3.69.63 4.99 1.88 1.29 1.26 2.27 2.82 2.93 4.69l34.42 97.93 33.7-97.93c.9-2.59 2.03-4.34 3.41-5.23 1.38-.89 3.29-1.34 5.72-1.34h31.27c2.28 0 4.05.3 5.36.91 1.3.61 2.21 1.42 2.72 2.43.53 1.02.71 2.16.54 3.41-.16 1.27-.49 2.52-.97 3.71-3.07 7.62-6.44 15.96-10.09 25s-7.43 18.45-11.38 28.23c-3.93 9.78-7.93 19.7-11.98 29.8-3.98 9.91-7.93 19.82-11.86 29.75-3.86 9.73-7.57 19.08-11.14 28.04-3.57 8.97-6.83 17.19-9.8 24.72-2.96 7.49-5.53 14.08-7.72 19.76-2.19 5.68-3.85 10.06-4.98 13.13l.36-.6c-.55 2.18-1.58 3.95-3.03 5.29-1.45 1.33-3.26 2-5.36 2h-28.1c-3.64 0-6.15-.71-7.48-2.12-1.34-1.42-2.01-3.52-2.01-6.26 0-1.06.14-1.86.43-2.43.28-.56.5-.93.67-1.1l19.1-49.63-58.04-142.23Zm-55.92-48.3c0-2.59.65-4.79 1.94-6.57 1.3-1.78 3.53-2.68 6.69-2.68h29.81c.81 0 1.66.22 2.56.67.89.45 1.72 1.08 2.5 1.89.77.81 1.42 1.78 1.95 2.92.52 1.13.79 2.39.79 3.77V579.8c0 3.08-.87 5.41-2.62 6.99s-4 2.37-6.76 2.37h-28.22c-3.16 0-5.39-.79-6.7-2.37-1.29-1.58-1.94-3.92-1.94-6.99V398.04Zm-88.17 12.53c0-2.51.82-4.4 2.49-5.66 1.67-1.26 4.04-2.46 7.11-3.6l27.61-9.61c.42-.08.79-.12 1.15-.12h1.04c3 0 5.01.88 6.03 2.62 1.02 1.74 1.52 4.04 1.52 6.87l-.12 38.32h20.32c2.6 0 4.7.78 6.32 2.31 1.63 1.54 2.43 3.85 2.43 6.93v23.48c0 3.4-.8 5.9-2.43 7.48s-3.72 2.37-6.32 2.37h-20.32l.14 97.83c0 3.08-.89 5.41-2.68 6.99-1.78 1.58-4.26 2.37-7.41 2.37h-27.49c-6.25 0-9.37-3.13-9.37-9.37l-.13-97.82h-8.9c-6.23 0-9.35-3.29-9.35-9.85v-23.48c0-6.16 3.12-9.25 9.35-9.25h8.89l.12-28.83Zm-99.11 0c0-2.51.83-4.4 2.5-5.66 1.66-1.26 4.04-2.46 7.11-3.6l27.62-9.61c.38-.08.77-.12 1.16-.12h1.03c3 0 5.01.88 6.03 2.62 1.01 1.74 1.52 4.04 1.52 6.87l-.13 38.32h20.32c2.6 0 4.7.78 6.33 2.31 1.63 1.54 2.43 3.85 2.43 6.93v23.48c0 3.4-.8 5.9-2.43 7.48-1.63 1.58-3.73 2.37-6.33 2.37h-20.32l.13 97.83c0 3.08-.89 5.41-2.68 6.99-1.78 1.58-4.26 2.37-7.42 2.37h-27.5c-6.25 0-9.37-3.13-9.37-9.37l-.13-97.82h-8.88c-6.24 0-9.37-3.29-9.37-9.85v-23.48c0-6.16 3.12-9.25 9.37-9.25h8.88l.13-28.83Zm-36.5 176.54c-1.06.89-2.17 1.45-3.34 1.71-1.18.23-2.29.37-3.34.37H395.8c-1.46 0-2.71-.26-3.77-.79a8.13 8.13 0 0 1-2.68-2.12c-.74-.92-1.36-1.94-1.82-3.02-.49-1.15-.89-2.33-1.22-3.53l-3.77-15.52c-1.22 2.51-2.98 5.36-5.29 8.55-2.31 3.19-5.25 6.18-8.82 8.98-3.57 2.79-7.83 5.14-12.77 7.05-4.94 1.89-10.62 2.85-17.03 2.85-9.25 0-17.64-1.78-25.19-5.36-7.54-3.57-13.97-8.43-19.29-14.61-5.31-6.15-9.43-13.37-12.35-21.58-2.92-8.23-4.39-17.01-4.39-26.33v-79.69c0-3.08.67-5.41 2.01-6.99 1.34-1.58 3.46-2.37 6.39-2.37h28.1c3.49 0 5.87.59 7.17 1.77 1.29 1.17 1.94 3.47 1.94 6.88v79.29c0 3.5.79 6.8 2.37 9.93 1.58 3.11 3.7 5.92 6.26 8.29 2.59 2.38 5.58 4.3 8.82 5.66 3.29 1.38 6.63 2.06 10.03 2.06 2.93 0 5.94-.68 9.07-2.06 3.15-1.4 6.06-3.27 8.64-5.54 2.63-2.31 4.84-5.07 6.5-8.15 1.71-3.13 2.56-6.45 2.56-9.93v-79.23c0-1.38.26-2.76.79-4.14.52-1.38 1.32-2.43 2.37-3.16 1.05-.65 2.05-1.1 2.98-1.34.93-.24 2-.36 3.22-.36h27.5c3.49 0 6 .85 7.55 2.56 1.54 1.7 2.31 3.98 2.31 6.81V580.2c0 1.54-.35 2.97-1.04 4.26-.69 1.3-1.64 2.33-2.86 3.04l.72-.36Z" style="fill:#fff"/>
</svg>
