<svg xmlns="http://www.w3.org/2000/svg" viewBox="0 0 1024 1024">
   <circle cx="512" cy="512" r="512" style="fill:#005ef4"/>
   <path d="M274.16 547.3c-1.768-4.976-3.037-10.123-3.855-15.448-3.386 3.23-7.114 5.63-11.215 7.137-4.36 1.597-8.785 2.28-13.264 2.02-4.479-.26-8.927-1.41-13.354-3.46-4.426-2.058-8.496-4.947-12.21-8.668-3.602-3.602-6.454-7.635-8.534-12.09-2.08-4.458-3.305-8.965-3.676-13.563-.364-4.59.223-9.09 1.775-13.518 1.552-4.418 4.1-8.407 7.65-11.957 3.208-3.208 6.758-5.718 10.65-7.516 3.892-1.797 7.887-3.126 12.003-3.973 1.522-.282 2.778-.66 3.757-1.144.98-.475 1.731-.966 2.236-1.478 2.25-2.258 2.793-5.556 1.612-9.893l-5.244-20.283c-.394-1.745-1.099-3.119-2.117-4.136-1.463-1.463-3.059-2.325-4.768-2.578-1.715-.252-3.564-.126-5.54.379h.505c-7.769 1.352-15.084 3.818-21.925 7.397-6.848 3.573-13.34 8.437-19.481 14.572-5.073 5.073-9.306 10.606-12.715 16.608-3.41 6.001-5.957 12.21-7.65 18.634-1.693 6.417-2.548 12.997-2.578 19.726a75.611 75.611 0 0 0 2.533 19.771c1.723 6.455 4.308 12.737 7.776 18.842 3.461 6.105 7.783 11.765 12.975 16.941 5.184 5.184 10.82 9.485 16.897 12.923 6.082 3.446 12.366 6.038 18.842 7.776a74.33 74.33 0 0 0 19.815 2.585c6.729-.031 13.324-.87 19.778-2.54 6.454-1.657 12.678-4.19 18.672-7.598a70.756 70.756 0 0 0 3.698-2.28c-5.555-6.663-9.937-14.394-13.05-23.187zm423.06-107.12c-1.278-3.186-1.293-5.912-.061-8.184 1.233-2.274 3.95-3.402 8.184-3.402h29.522c1.99 0 3.625.616 4.902 1.849 1.27 1.24 2.228 2.77 2.874 4.605l33.815 96.195 33.102-96.195c.884-2.548 1.998-4.263 3.35-5.14 1.352-.876 3.23-1.314 5.615-1.314h30.718c2.235 0 3.98.297 5.266.891 1.277.602 2.169 1.396 2.674 2.391.52 1.003.698 2.117.534 3.35a14.545 14.545 0 0 1-.957 3.647c-3.016 7.486-6.329 15.678-9.916 24.56s-7.3 18.123-11.178 27.726c-3.861 9.603-7.79 19.347-11.77 29.27a5207.964 5207.964 0 0 0-11.647 29.225c-3.788 9.559-7.434 18.746-10.94 27.547-3.506 8.816-6.707 16.889-9.625 24.279-2.904 7.353-5.43 13.83-7.583 19.407-2.147 5.578-3.781 9.879-4.888 12.894l.35-.587c-.542 2.146-1.553 3.877-2.978 5.199-1.427 1.307-3.201 1.96-5.266 1.96h-27.6c-3.579 0-6.038-.697-7.352-2.086-1.314-1.396-1.975-3.454-1.975-6.15 0-1.04.14-1.827.423-2.391.274-.55.49-.913.654-1.077l18.767-48.751zm-54.931-47.444c0-2.548.64-4.701 1.909-6.454 1.277-1.745 3.469-2.63 6.573-2.63h29.285c.795 0 1.627.217 2.51.655.877.445 1.687 1.061 2.451 1.856.758.795 1.397 1.753 1.916 2.867.506 1.114.773 2.347.773 3.706v178.55c0 3.023-.855 5.318-2.57 6.87-1.716 1.552-3.929 2.332-6.64 2.332h-27.724c-3.105 0-5.296-.78-6.581-2.332-1.27-1.552-1.908-3.847-1.908-6.87zm-86.613 12.307c0-2.466.81-4.323 2.443-5.556 1.641-1.24 3.966-2.414 6.989-3.535l27.123-9.44c.409-.076.772-.119 1.13-.119h1.017c2.948 0 4.924.862 5.919 2.57 1.002 1.709 1.493 3.967 1.493 6.751l-.119 37.64h19.964c2.555 0 4.612.765 6.209 2.273 1.597 1.515 2.384 3.78 2.384 6.81v23.068c0 3.343-.787 5.794-2.384 7.346-1.597 1.552-3.654 2.332-6.209 2.332h-19.964l.134 96.099c0 3.022-.877 5.318-2.63 6.87-1.745 1.552-4.18 2.332-7.278 2.332h-27.005c-6.142 0-9.202-3.075-9.202-9.202l-.126-96.091h-8.742c-6.12 0-9.187-3.23-9.187-9.677v-23.068c0-6.054 3.068-9.084 9.187-9.084h8.734zm-97.354 0c0-2.466.817-4.323 2.451-5.556 1.634-1.24 3.966-2.414 6.988-3.535l27.131-9.44a5.96 5.96 0 0 1 1.137-.119h1.01c2.949 0 4.924.862 5.92 2.57.995 1.709 1.492 3.967 1.492 6.751l-.126 37.64h19.964c2.556 0 4.613.765 6.217 2.273 1.597 1.508 2.384 3.78 2.384 6.81v23.068c0 3.343-.787 5.794-2.384 7.346-1.604 1.552-3.661 2.332-6.217 2.332h-19.964l.126 96.099c0 3.022-.876 5.318-2.629 6.87-1.752 1.552-4.181 2.332-7.286 2.332h-27.01c-6.136 0-9.203-3.075-9.203-9.202l-.126-96.091h-8.72c-6.134 0-9.202-3.23-9.202-9.677v-23.068c0-6.054 3.068-9.084 9.203-9.084h8.719zm-35.85 173.42c-1.04.877-2.132 1.426-3.283 1.679-1.158.23-2.25.363-3.283.363h-18.048c-1.433 0-2.666-.26-3.706-.772a7.921 7.921 0 0 1-2.63-2.08 12.493 12.493 0 0 1-1.789-2.97 26.061 26.061 0 0 1-1.195-3.47l-3.707-15.247c-1.195 2.466-2.926 5.266-5.2 8.4-2.271 3.134-5.16 6.068-8.666 8.823-3.505 2.741-7.687 5.051-12.544 6.923-4.857 1.856-10.435 2.8-16.726 2.8-9.083 0-17.327-1.753-24.74-5.266-7.411-3.506-13.724-8.282-18.945-14.35-5.22-6.045-9.261-13.13-12.128-21.203-2.867-8.08-4.308-16.711-4.308-25.861v-78.28c0-3.024.654-5.318 1.975-6.87 1.315-1.553 3.402-2.333 6.276-2.333h27.607c3.424 0 5.77.58 7.048 1.738 1.27 1.152 1.91 3.41 1.91 6.759v77.887c0 3.438.779 6.677 2.331 9.751a28.877 28.877 0 0 0 6.15 8.14 29.868 29.868 0 0 0 8.667 5.563c3.23 1.36 6.514 2.02 9.856 2.02 2.874 0 5.837-.668 8.905-2.02a33.24 33.24 0 0 0 8.489-5.444 29.014 29.014 0 0 0 6.387-8.006c1.679-3.075 2.51-6.335 2.51-9.752v-77.828c0-1.359.26-2.71.78-4.07.512-1.352 1.293-2.391 2.332-3.104 1.033-.64 2.013-1.077 2.926-1.315.914-.238 1.969-.356 3.164-.356H415.9c3.424 0 5.897.839 7.412 2.51 1.516 1.671 2.273 3.907 2.273 6.692v133.74c0 1.508-.341 2.919-1.017 4.18-.677 1.279-1.612 2.288-2.808 2.987z" style="fill:#fff;"/>
</svg>
