<svg xmlns="http://www.w3.org/2000/svg" viewBox="0 0 1024 1024">
   <circle cx="512" cy="512" r="512" style="fill:#ff9a00"/>
   <path d="M512 375.94a135 135 0 0 1 25 2.37l-91.06-91.06a11.22 11.22 0 0 1-2-2.84L232.82 495.49a23.45 23.45 0 0 0 0 33.07l35.08 35a13.48 13.48 0 0 1 1-1.17l147-146.93a135.34 135.34 0 0 1 96.1-39.52Zm45.64-10.7 26.71-20.5c5.24-4.14 10.59-6.12 16.37-6.12a23.45 23.45 0 0 1 20.74 12.65 3.44 3.44 0 0 1 .19.44c2.36 4.91 5 14.88-3.69 26.2a1 1 0 0 1-.16.22l-20.84 26.44 11.72 11.74a137.54 137.54 0 0 1 37.21 121.21l92.36-92.4a8.79 8.79 0 0 1 1.44-1.13L528.53 232.85a23.38 23.38 0 0 0-33.07 0l-35.57 35.59a9.48 9.48 0 0 1 2.92 2Zm-91.84 294-26.32 20.23c-3.72 2.78-8.92 6-16.34 6H423a5.91 5.91 0 0 1-1.17-.08 23.47 23.47 0 0 1-19.16-12.29c-.07-.18-.19-.39-.25-.56-4.17-8.66-2.86-18.1 3.75-26.65l20.4-25.89L414 607.41a135.33 135.33 0 0 1-36.26-120.13l-92 92a8.15 8.15 0 0 1-1.21 1l210.93 210.89a23.42 23.42 0 0 0 33.07 0L563.65 756a12 12 0 0 1-3.49-2.39Zm325.4-163.71-34.9-34.9a12.55 12.55 0 0 1-1.15 1.39L607.82 609.24a135.5 135.5 0 0 1-96.11 39.59 138 138 0 0 1-25-2.37L577 736.78a11.87 11.87 0 0 1 2.39 3.49l211.78-211.71a23.45 23.45 0 0 0 .01-33.07Zm-188.41-129.2L516.33 476l3.29 4.49c4.51 6.16 18.63 26.53 45.81 66.16 1.62 2.37 2.16 10.31-2.34 13.72L428 664.17c-2.13 1.59-3.37 2.15-4.85 2.15 0 0 0-.09-.06-.09s0 .09-.06.09a4.36 4.36 0 0 1-3.38-2c-.45-.91-1.38-2.84 1.54-6.62l86.27-109.49-48.88-70.32a10.56 10.56 0 0 1 2.31-14.22L596.1 359.74c2.29-1.8 3.58-2.07 4.59-2.07a4.3 4.3 0 0 1 3.72 2.25c.9 1.95.45 3.69-1.62 6.41Z" style="fill:#fff"/>
</svg>
