<svg xmlns="http://www.w3.org/2000/svg" viewBox="0 0 1024 1024">
   <circle cx="512" cy="512" r="512" style="fill:#0077c8"/>
   <path d="M690.75 451.37h26.82v133.07h-26.82v-5.52a42.993 42.993 0 0 1-7.89 4.55 57.874 57.874 0 0 1-23.43 4.36c-19.28 0-33.68-5.67-42.36-16.31-8.68-10.64-12.9-27.28-12.9-50.86v-69.29h26.82v70.41c0 15.27 2.32 25.99 6.87 31.84 4.29 5.51 11.5 8.18 22.07 8.18a33.1 33.1 0 0 0 15.81-3.59c4.43-2.39 8.11-5.96 10.64-10.32 1.6-2.93 2.7-6.1 3.26-9.39.75-3.96 1.12-11.19 1.12-21.51v-65.63ZM430.43 468.7c12.51 13.61 18.85 31.43 18.85 52.96v6.81H339.99a39.49 39.49 0 0 0 11.89 22.26c7.63 7.17 16.89 10.66 28.5 10.66 7.67.13 15.21-2.03 21.65-6.19 5.7-3.77 10.36-8.91 13.55-14.95h30.43l-.89 2.14c-6.01 14.42-14.64 25.71-25.64 33.53a65.267 65.267 0 0 1-38.69 11.89 66.08 66.08 0 0 1-49.11-20.63 68.635 68.635 0 0 1-20.03-49.46c0-19.98 6.59-36.77 19.65-49.93 13.06-13.17 29.92-19.83 50.1-19.83s36.5 7.13 49 20.74Zm-11.55 34.83c-2.84-8.89-7.07-15.81-12.63-20.63-6.9-5.97-15.78-8.87-27.17-8.87-10.46 0-19.05 3.13-26.22 9.58-5.86 5.31-10 12.25-11.9 19.92h77.92ZM864 528.47H754.72a39.416 39.416 0 0 0 11.88 22.26c7.63 7.17 16.89 10.66 28.5 10.66 7.67.13 15.21-2.03 21.65-6.19 5.7-3.77 10.36-8.91 13.55-14.95h30.45l-.89 2.14c-6.01 14.42-14.64 25.71-25.64 33.53a65.267 65.267 0 0 1-38.69 11.89 66.117 66.117 0 0 1-49.11-20.63 68.635 68.635 0 0 1-20.03-49.46c0-19.98 6.59-36.77 19.65-49.93 13.06-13.17 29.92-19.83 50.1-19.83s36.51 7.13 49 20.74c12.5 13.61 18.84 31.43 18.84 52.96v6.81Zm-30.41-24.94c-2.84-8.87-7.07-15.8-12.63-20.63-6.89-5.97-15.78-8.87-27.17-8.87-10.46 0-19.03 3.13-26.22 9.58-5.86 5.31-10 12.25-11.9 19.92h77.92Zm-630 15.4c0 13.79 11.18 24.97 24.97 24.97s24.97-11.18 24.97-24.97-11.18-24.97-24.97-24.97-24.97 11.18-24.97 24.97Zm62.37-60.57c-33.17-19.85-76.16-9.06-96.01 24.11-19.85 33.17-9.06 76.16 24.11 96.01a69.996 69.996 0 0 0 54.8 7.35c.22 0 .41-.12.62-.17v-27.62c-1.11.88-2.32 1.63-3.61 2.22a40.877 40.877 0 0 1-17.5 3.55c-11.8.29-23.19-4.39-31.38-12.9a43.98 43.98 0 0 1-12.51-31.74c0-12.72 4.29-23.51 12.78-32.1s19.25-12.9 31.96-12.9c6.45 0 19.52 1.72 27.53 8.02 7.36 5.82 15.26 14.3 15 36.6-.08 6.6 0 36.21.15 55.96 1.19-.83 2.31-1.74 3.35-2.75a69.725 69.725 0 0 0 24.86-51.58v-1.83c0-.22.04-.55.04-.77V387.84h-34.2v70.52Zm328.69 174.47h.1v3.33h-28.77v-63.33a30.213 30.213 0 0 1-11.68 9.58 63.162 63.162 0 0 1-27.22 5.47c-19.34 0-35.77-6.78-48.64-20.05-12.87-13.27-19.41-29.88-19.41-49.22s6.64-36.42 19.83-49.75c13.19-13.33 29.85-20.09 49.55-20.09 10.03 0 30.28 2.66 42.69 12.44 11.37 9.03 23.61 22.18 23.21 56.74-.13 11.19.13 65.07.28 94.91v8.56c.06 7.03.06 11.41.06 11.41ZM568.97 517.9c0-23.88-18.88-43.23-42.18-43.23s-42.2 19.36-42.2 43.23 18.89 43.21 42.2 43.21 42.18-19.33 42.18-43.21Z" style="fill:#fff"/>
</svg>
