<svg xmlns="http://www.w3.org/2000/svg" viewBox="0 0 1024 1024">
   <circle cx="512" cy="512" r="512"/>
   <path d="M582.07 253.75c-144.42-38.7-292.87 47.01-331.57 191.43 0 0 26.58-26.49 43.58-26.49s43.58 26.49 43.58 26.49 26.58-26.49 43.58-26.49 43.58 26.49 43.58 26.49 26.58-26.49 43.58-26.49c11.88 0 28.4 12.91 37.3 20.7h-1.17v269.66c0 40.74 23.89 70.49 53.34 70.49s53.33-29.79 53.33-70.53c0 0-4.7-4.47-7.67-4.53-2.8-.05-7.39 4-7.39 4 0 29.24-17.14 56.73-38.27 56.73s-38.27-27.49-38.27-56.73V439.39h-1.34c8.9-7.79 25.43-20.7 37.3-20.7 17 0 43.58 26.49 43.58 26.49s26.58-26.49 43.58-26.49 43.58 26.49 43.58 26.49 26.58-26.49 43.58-26.49 43.58 26.49 43.58 26.49c-25.03-93.42-98.01-166.4-191.43-191.43Z" style="fill:#fff"/>
</svg>
