<svg xmlns="http://www.w3.org/2000/svg" viewBox="0 0 1024 1024">
   <circle cx="512" cy="512" r="512" style="fill:#4aacc5"/>
   <path d="M631.05 374.53c-11.38 0-25.43 0-43 .14-77 .57-75.47.4-95.48 10-31.71 15.17-57.23 47.17-64.76 81.22-1.9 8.58-2.24 14.86-2.26 41.75v31.65h6.1c3.35 0 18.64 0 34 .11s28.75.07 29.82 0c1.75-.1 1-2.89 1.36-28.21.27-15.89-.94-42.56 27.78-57.61 2.33-1 22.05-1.38 71.85-1.41l68.64-.05c40.18 33.85 20.81 131.09-50.54 120.28l-5 12.34c-9.18 22.87-17.46 33.93-40.53 54.12-7.19 6.29-7.9 7.28-6.46 9s6.09 1.89 55.11 1.36c41-.45 55.2-1 60.76-2.27 23.22-5.39 51.59-27.67 69.09-54.24 6.53-9.91 13.65-26.16 16.8-38.31 2.46-9.51 3-14.56 3.5-36.21.82-32.67-1.08-46.5-9.06-65.8A150.48 150.48 0 0 0 713 393.95a104.71 104.71 0 0 0-28.46-15.2c-9.2-3-19.34-4.08-53.48-4.22Zm-209 .81-39.21.47c-36.22.43-39.76.66-46.39 2.93a103.91 103.91 0 0 0-27.84 14.56c-10.64 8-21.18 17.07-28.5 28.26-11.46 14.28-19 33.32-22.43 53.55-2.88 17.23-1.9 72.15 1.52 85.24 6.05 23.17 29.81 56.45 50.17 70.3 11 7.46 28.78 15.12 39.49 17 1.6.28 36.54.58 77.65.66 82.71.17 80.64.33 97.5-7.45A134.52 134.52 0 0 0 550.35 624c6.3-5.26 19.75-19.9 24.35-26.5 6.57-9.44 14-25.76 17.41-38.49 2.88-10.62 3-12.24 3-43.26v-32.23h-70.85l-.15 12.48c-.08 6.87 0 17.19.09 22.94s-.36 13-1.08 16.2c-2.25 9.92-8.61 21.72-14.84 27.55-10.55 9.87-4.32 9.21-83.05 8.84-79.78-.37-72.75.56-84.54-11.23-9.42-9.43-11.4-16-12.33-40.78-.9-24 .45-33 6.75-45.19 5.35-10.34 9.53-15 17.47-19.28l5.82-3.17 31.53-.15 31.53-.15.31-38.12Z" style="fill:#fff"/>
</svg>
