<svg xmlns="http://www.w3.org/2000/svg" viewBox="0 0 1024 1024">
   <circle cx="512" cy="512" r="512"/>
   <path d="M160.02 413.67h63.07l-63.07 65.58v-65.58Zm176.64 0-25.63 79.65a49.001 49.001 0 0 0-19.59-18.37c-8.05-4.02-18.09-6.03-28.9-6.03-3.87-.03-7.73.23-11.56.75-5.16.76-10.22 2.11-15.07 4.02-15.88 6.53-30.7 19.35-40.45 36.93-9.8 17.84-13.06 37.19-10.05 53.99s12.06 31.41 26.38 39.17c14.32 8.05 31.41 8.05 47.23 1.5a81.006 81.006 0 0 0 24.35-15.88v.25l-5.78 17.09h52.52c2.01-8.54 4.77-18.35 8.05-29.4.18-.86.43-1.7.75-2.51l52.53-161.68h-54.77v.5ZM293.44 549.6c-8.29 21.61-27.13 34.43-41.71 28.9-14.58-5.78-19.59-27.64-11.31-49.25 8.29-21.61 27.13-34.43 41.71-28.9 14.83 5.77 19.85 27.88 11.31 49.25Zm538.82 10.24a87.412 87.412 0 0 1-18 27.02c1.34 3.29 2.15 6.78 2.41 10.32 1.75 17.11 39.55 14.74 41.29 11.31s-2.66-37.05-25.8-48.64m-75.32 51.87c-4.87-.02-9.72-.48-14.5-1.39-.21 15.57 10.9 29 26.23 31.7 6.42.9 12.96-.21 18.73-3.18h-1.89c-13.76-2.3-18.35-14.24-16.94-28.16-3.93.57-7.89.86-11.86.86m-101.46-3.84c1.84 3.44 38.84 6.6 40.59-10.51.29-3.54 1.11-7.02 2.43-10.32a87.386 87.386 0 0 1-18.11-27.02c-23.08 11.46-26.8 44.6-24.92 47.85m25.72-120.35a87.216 87.216 0 0 1 19.54-27.52c-17.75-14.6-47.64-15.79-50.45-13.95s-2.99 38.88 15 38.48c5.44-.19 10.86.81 15.88 2.93m100.13-63.66c0-4.23 4.16-11.1 4.16-14.45s-11.08-9.18-15.88-13.76-9.27-13.06-12.83-13.06h-.38c-3.63 0-8.24 8.53-13.06 13.25s-15.88 10.42-15.88 13.76 4.23 10.27 4.23 14.45c-.5 3.91-1.44 7.76-2.79 11.46-.41 1.92.93 2.51 2.38 6.14h.79a79.527 79.527 0 0 1 48.92 0h.84c1.45-3.63 2.85-4.23 2.43-6.19a53.083 53.083 0 0 1-2.85-11.64m39.27 69.36a74.416 74.416 0 0 0-17.01-24.35 67.947 67.947 0 0 0-41.66-19.05c-2 0-3.8-.29-5.45-.29-1.82-.04-3.64.06-5.45.29a67.982 67.982 0 0 0-41.66 18.95 74.747 74.747 0 0 0-17.2 24.35 79.372 79.372 0 0 0-.5 62.05 75.679 75.679 0 0 0 14.56 22.74 69.114 69.114 0 0 0 37.51 20.97c4.19.79 8.44 1.2 12.7 1.2h5.09a68.84 68.84 0 0 0 45.03-22.02 75.098 75.098 0 0 0 14.52-22.6 79.153 79.153 0 0 0-.46-62.26m42.04-47.05c-2.79-1.84-32.82-.65-50.45 13.99a86.9 86.9 0 0 1 19.54 27.52 37.441 37.441 0 0 1 15.88-2.94c18 .41 18.35-36.28 15-38.48m-337.09-129.8h-6.09v391.68h6.09V316.18Z" style="fill:#fff"/>
</svg>
