<svg xmlns="http://www.w3.org/2000/svg" viewBox="0 0 1024 1024">
   <circle cx="512" cy="512" r="512" style="fill:#878787"/>
   <path d="M179.5 419.11h59.58l-59.58 61.95Zm166.86 0-24.21 75.24A46.29 46.29 0 0 0 303.64 477c-7.6-3.8-17.09-5.7-27.3-5.7a76.67 76.67 0 0 0-10.92.71 63.94 63.94 0 0 0-14.24 3.8c-15 6.17-29 18.28-38.21 34.89-9.26 16.85-12.34 35.13-9.49 51s11.39 29.67 24.92 37c13.53 7.6 29.67 7.6 44.62 1.42a76.6 76.6 0 0 0 23-15v.24l-5.46 16.14h49.61c1.9-8.07 4.51-17.33 7.6-27.77a14.76 14.76 0 0 1 .71-2.37l49.62-152.73h-51.74v.47Zm-40.83 128.41c-7.83 20.41-25.63 32.52-39.4 27.3-13.77-5.46-18.51-26.11-10.68-46.52s25.63-32.52 39.4-27.3c14.01 5.45 18.75 26.34 10.68 46.52Zm509 9.67a82.63 82.63 0 0 1-17 25.52 32.3 32.3 0 0 1 2.28 9.75c1.65 16.16 37.36 13.92 39 10.68s-2.51-35-24.37-45.95m-71.15 49a75.17 75.17 0 0 1-13.7-1.31 30 30 0 0 0 24.78 29.95 29.61 29.61 0 0 0 17.69-3h-1.79c-13-2.17-17.33-13.45-16-26.6a77.18 77.18 0 0 1-11.2.81m-95.84-3.63c1.74 3.25 36.69 6.23 38.34-9.93a33.78 33.78 0 0 1 2.3-9.75 82.65 82.65 0 0 1-17.11-25.52c-21.8 10.83-25.32 42.13-23.54 45.2m24.3-113.69a82.27 82.27 0 0 1 18.46-26c-16.77-13.79-45-14.92-47.66-13.18s-2.82 36.73 14.17 36.35a35.28 35.28 0 0 1 15 2.77m94.59-60.14c0-4 3.93-10.49 3.93-13.65s-10.47-8.67-15-13-8.76-12.34-12.12-12.34h-.36c-3.43 0-7.78 8.06-12.34 12.52s-15 9.84-15 13 4 9.7 4 13.65a49.77 49.77 0 0 1-2.64 10.83c-.39 1.81.88 2.37 2.25 5.8h.75a75.18 75.18 0 0 1 46.21 0h.79c1.37-3.43 2.69-4 2.3-5.85a49.79 49.79 0 0 1-2.69-11m37.1 65.52a70.29 70.29 0 0 0-16.07-23 64.2 64.2 0 0 0-39.35-18c-1.89 0-3.59-.27-5.15-.27a34.9 34.9 0 0 0-5.15.27 64.2 64.2 0 0 0-39.35 17.9 70.75 70.75 0 0 0-16.25 23 75 75 0 0 0-.47 58.62A71.35 71.35 0 0 0 695.22 574a65.28 65.28 0 0 0 35.43 19.81 64.44 64.44 0 0 0 12 1.13h4.81a65.07 65.07 0 0 0 42.54-20.8 71 71 0 0 0 13.72-21.35 74.77 74.77 0 0 0-.43-58.81M843 449.53c-2.64-1.74-31-.61-47.66 13.22a82.21 82.21 0 0 1 18.46 26 35.37 35.37 0 0 1 15-2.78c17 .39 17.33-34.27 14.17-36.35M524.54 327h-5.75v370h5.75Z" style="fill:#fff"/>
</svg>
