<svg xmlns="http://www.w3.org/2000/svg" data-name="Layer 1" viewBox="0 0 1024 1024">
   <circle cx="512" cy="512" r="512" style="fill:#45c14c"/>
   <path d="M603.46 724.26c2.44 6.26.36 9.27-6.61 10.99a599 599 0 0 1-86.08 14.78c-12.86 1.24-25.76 2.95-32.49 2.33-69.26-1.78-130.1-10.78-184.89-40.72-56.58-30.92-87.54-77.54-96.65-134.66-11.98-75.35 28.28-129.57 95.99-169.76 50.93-30.21 108.27-44.61 168.77-49.95 48.97-4.27 98.36-3 146.98 3.77 14.94 2.05 14.88 2.03 15.06 15.49.16 11.83-.54 23.69 1.46 35.47 1.14 6.72-1.28 8.79-9.47 7.12-74.94-15.6-150.03-18.16-225.13-1.21-33.61 7.6-64.77 20.39-90.2 41.87-40.58 34.31-51.01 77.24-41.1 124.66 11.5 55.15 51.93 87.91 108.75 106.11 68.19 21.77 137.41 21.7 206.95 5.02 2.6-.53 5.16-1.21 7.65-2.05 7.99-2.97 11.49 0 13.3 6.81 2.11 8.08 4.68 16.06 7.71 23.91Zm59.17-68.61c-16.34 10.46-34.49 16.63-54.76 16.63-67.15.14-134.31.66-201.46-.11-45-.51-80.87-31.64-84.72-72.06a439.383 439.383 0 0 1-.28-82.54c4.23-45.02 37.87-74.69 88.36-75.74 58.44-1.23 116.98-1.92 175.46.68 16.28.75 31 5.78 44.98 13.2 2.2 1.17 4.37 3.74 6.97 2.69 3.36-1.3 1.84-4.66 1.84-7.12-1.18-52.97-2.66-105.93-3.62-158.89-.38-21.19-3.01-18.5 20.27-18.7 13.98-.16 27.96.37 41.94-.16 8.89-.39 11.34 2.67 11.34 10.28-.3 49.15-.16 98.35-.16 147.43v142.1c-.02 34.28-14.58 62.1-46.16 82.31Zm-23.41-111.71c-.34-34.86-27-59.57-66.25-60.13-44.22-.57-88.44-.41-132.66 0-30.62.3-50.11 18.39-50.37 45.72-.16 18.4-.16 36.79 0 55.14.18 27.96 20.51 45.88 52.11 46.11 21.61.12 43.22 0 64.83 0s43.22.25 64.83 0c39.57-.48 67.07-25.06 67.53-60.06.11-8.83.1-17.76-.02-26.79Zm180.86-49.27c-13.83-34.27-37.24-65.61-69.56-84.3-6.73-4.51-13.76-8.68-21.05-12.49-6.63-3.58-8.09-.73-8.09 4.61v28.36c0 9.16.04 18.3.08 27.45-.04 4.57.68 8.91 4.57 12.22 10.21 8.72 18.24 18.81 23.77 30.39.88 1.84 1.93 4.65 3.14 8.83 3.16 10.99 3.79 22.71 4.75 34.03.87 10.35-.58 20.65-1.89 30.89-1.98 15.59-7.2 31.84-18.87 43.1-5.02 5.1-12.81 2.7-18.7.63-7.98 12.95-26.4 30.67-36.25 39.06-16.45 13.51-37.15 22.19-58.69 25.77-2.28.39-5.35-.04-7.17 3.72 44.45 14.05 87.14 10.83 128.66-7.78 13.61-5.56 25.2-15.06 35.91-24.98 41.04-40.54 62-104.49 39.38-159.51Z" style="fill:#fff"/>
</svg>
