<svg xmlns="http://www.w3.org/2000/svg" viewBox="0 0 1024 1024">
  <circle cx="512" cy="512.55" r="512" style="fill:#86c78d"/>
  <path transform="translate(277 257.55) scale(18.214)" d="M4.988 0a2.45 2.45 0 0 0-2.064 1.189L.31 5.547c-.413.528-.413 1.32 0 1.981l2.889 5.283c.412.714.607 1.701.137 2.378L.31 20.472c-.412.528-.412 1.32 0 1.98l2.615 4.36c.38.73 1.24 1.188 2.064 1.188h13.759c.825 0 1.65-.396 2.064-1.189l6.88-11.623c.412-.792.412-1.585 0-2.377L20.81 1.188c-.413-.793-1.239-1.189-2.064-1.189zm4.127 6.736h5.642c.825 0 1.65.396 2.064 1.188l2.89 4.887c.412.793.412 1.585 0 2.378l-2.89 4.754c-.413.793-1.239 1.19-2.064 1.19H9.115s-.788.026-.788-.14l3.508-5.804c.422-.793.422-1.585 0-2.378L8.324 6.875c0-.164.791-.14.791-.14z" style="fill:#fff"/>
</svg>