<svg xmlns="http://www.w3.org/2000/svg" viewBox="0 0 1024 1024">
   <circle cx="512" cy="512" r="512" style="fill:#39b34a"/>
   <path d="M618.75 256q1.72 95.53 3.37 191.06c-17-12.93-38.23-20.31-59.64-19.75H414.64A82 82 0 0 0 336.47 494c-1.59 9-1.21 18.16-1.25 27.24v55.13a111.92 111.92 0 0 0 .88 16.59 76.16 76.16 0 0 0 18.49 40.43c10.08 11.63 23.16 20.92 38 25.3a89.4 89.4 0 0 0 27.33 3.49h163.72a109.34 109.34 0 0 0 29.49-3.25c23.48-6.07 43.78-22.06 56.82-42.32a93.18 93.18 0 0 0 14.44-49.3V256.05q-32.81-.05-65.64-.05ZM611 595.25c-10.81 14.66-28.46 24.51-46.9 24.1H438.82a43.73 43.73 0 0 1-41.34-42.3c-.07-20.87 0-41.75 0-62.62a44.07 44.07 0 0 1 4.17-19.82c5.79-11.49 16.63-20.63 29.31-23.4a37.62 37.62 0 0 1 7.86-.94h128.33c23.33.78 44.74 17.58 52.18 39.52a59.46 59.46 0 0 1 2.89 19.76v32.34A55.8 55.8 0 0 1 611 595.25Zm-33.13 89.28c3.83 12 7 24.16 10.66 36.19-13.54 4.91-27.74 7.74-41.81 10.69-20.92 4.14-42.11 7.22-63.44 8-35.15.83-70.55-2.66-104.53-11.89-27.17-7.42-53.48-18.71-76.59-34.92a167.09 167.09 0 0 1-33.18-30.22 197.82 197.82 0 0 1-24.56-38.85 208.36 208.36 0 0 1-18.95-60.75 157.5 157.5 0 0 1 4.43-63.49c6.59-24 19.06-46.11 35.28-64.87 19.48-22.62 44-40.48 70.47-54.15 29.49-15.24 61.44-25.38 94-31.53a423.08 423.08 0 0 1 79.33-7.12c35.17-.08 70.41 2.87 104.87 10.05.73 17.64.59 35.32 1.16 53-10.65-2.85-21.27-5.88-32.09-8a365.23 365.23 0 0 0-74-7.65 359.17 359.17 0 0 0-95.78 6.83c-25.46 5.49-50.44 14.21-72.78 27.75-18.27 11.06-34.62 25.7-46.28 43.69-14 21.22-20.75 46.79-20.77 72.1-.33 21.16 3.06 42.53 11.15 62.14a132 132 0 0 0 31.05 45.29c21.45 20.54 48.9 33.78 77.2 42 30.56 8.73 62.54 12.18 94.29 11.08a305.56 305.56 0 0 0 90.84-15.37ZM726.67 659a89.36 89.36 0 0 1-28 15 161.75 161.75 0 0 1-50.89 8.58c-13.64-.23-27.43-2.1-40.18-7.13a57.65 57.65 0 0 1-12.74-6.87 108.91 108.91 0 0 0 32.59-7.58 105.52 105.52 0 0 0 47.87-40.75c3 .24 5.72 1.61 8.69 2 6 1 12.87 1.42 18.16-2.19a90.65 90.65 0 0 0 24.49-28.68c24.66-46.28 3.08-92.83 3.08-92.83-5.52-13.3-7.23-16.85-11.86-24.72a115.3 115.3 0 0 0-26.75-30.55l-.23-.46c-.31-21.17.19-42.36.11-63.53 2.17.62 4 1.94 6 3a206.47 206.47 0 0 1 46.13 35.33q3.05 3.12 6 6.38l.35.4q3.55 4 6.88 8.21c8.82 10.79 23.24 29.44 28.8 42.44q1.87 3.62 3.48 7.19C834.6 584.41 726.67 659 726.67 659Z" style="fill:#fff"/>
</svg>
