<svg xmlns="http://www.w3.org/2000/svg" viewBox="0 0 1024 1024">
   <circle cx="512" cy="512" r="512" style="fill:#49bc74"/>
   <path d="M624.73 752.6H372.87l68.54-120.32H556.8c6.28 0 12.08-3.42 15.23-8.98 8.24-14.62 25.08-44.42 39.23-69.5 7.46-13.21 14.18-25.11 18.53-32.81a18.359 18.359 0 0 0 0-17.97c-4.35-7.7-11.07-19.6-18.53-32.81-14.15-25.09-30.99-54.89-39.23-69.49-3.15-5.56-8.95-8.99-15.23-8.99H441.41l-68.54-120.31c.16-.01.32-.01.48-.01h251.38c6.28 0 12.08 3.43 15.23 8.99l125.69 222.62c1.56 2.78 2.35 5.88 2.35 8.99s-.79 6.2-2.35 8.98L639.96 743.63c-3.14 5.55-8.95 8.98-15.23 8.98ZM350.49 511.94a18.3 18.3 0 0 0-2.35-9.1c-12.59-22.3-45.19-80.05-57.79-102.35-3.13-5.56-3.13-12.41 0-17.96l58.15-103.01c1.79-2.7 3.91-4.5 5.97-5.7l128.92 229.02c1.6 2.84 2.38 5.99 2.35 9.16.02 3.16-.76 6.31-2.35 9.15L354.47 750.16c-2.06-1.2-4.18-3-5.97-5.7l-58.15-103.01a18.33 18.33 0 0 1 0-17.95c12.59-22.31 45.19-80.06 57.79-102.36a18.04 18.04 0 0 0 2.35-9.1v-.11Z" style="fill:#fff"/>
</svg>
