<svg xmlns="http://www.w3.org/2000/svg" viewBox="0 0 1024 1024">
   <circle cx="512" cy="512" r="512" style="fill:#3891f2"/>
   <path d="M413.88 373.8c-3.46-3.2-8.09-5.14-12.82-5.09h-88.32c0 48.17.02 96.33 0 144.49 29.43.03 58.87 0 88.31.02 5.53.09 10.81-2.62 14.45-6.7 5.66-6.06 8.45-14.4 8.42-22.62 0-28.65.01-57.3 0-85.95.03-8.94-3.36-18.06-10.04-24.14Zm-14.24 108.08h-62.93v-81.85h62.94v81.85Zm56.87-113.17h24.73c20.74 32.08 41.45 64.19 62.2 96.28v-96.27h24.25v144.5c-8.24.01-16.49 0-24.73.01-20.84-32.22-41.65-64.46-62.49-96.67-.01 32.22 0 64.44 0 96.67h-23.96v-144.5Zm151.09 7.34c3.63-4.31 8.99-7.36 14.72-7.34 21.97-.02 43.94 0 65.9 0 4.47-.05 8.87 1.69 12.22 4.62 6.61 5.73 10.22 14.41 10.52 23.07.09 5.16.02 10.31.04 15.47h-24.25v-11.83h-62.97v25.28h64.4c4.61-.08 9.14 1.79 12.55 4.87 6.56 5.86 10.08 14.64 10.25 23.35.05 8.06 0 16.12.02 24.17-.05 4.1.21 8.22-.5 12.28-1.1 6.95-4.48 13.59-9.72 18.32-3.29 2.98-7.62 4.87-12.09 4.91-20.57.01-41.14 0-61.71 0-3.17-.04-6.42.25-9.5-.7-5.13-1.45-9.23-5.26-12.15-9.59-3.71-5.4-5.4-11.99-5.5-18.49-.05-4.79-.01-9.58-.02-14.37h23.96v11.83h62.97v-25.24c-21.3-.01-42.61 0-63.91 0-4.78.08-9.48-1.83-12.97-5.05-6.5-5.86-9.87-14.62-10.01-23.27-.07-10.13-.03-20.26-.02-30.4 0-7.88 2.49-15.9 7.77-21.86ZM546.93 539.3c5.06 0 10.12-.02 15.19 0-.02 6.64 0 13.29 0 19.93h-15.18v-19.94Zm-348.65 32.82c2.5-2.6 6.03-4.27 9.67-4.17 12.38.03 24.76-.04 37.14.03 5.12.2 9.36 3.87 11.8 8.15 3.04 4.9 3.45 10.82 3.25 16.44h-15.21c-.1-1.61.28-3.3-.32-4.84-12.42.04-24.83 0-37.25.02-.45 1.41-.21 2.9-.26 4.35.05 3.04-.09 6.09.07 9.13.11.11.34.33.45.44 12.44.15 24.9-.01 37.35.08 3.12.12 6.11 1.53 8.36 3.66 3.21 3.04 5.32 7.14 6.23 11.44.82 3.88.51 7.87.58 11.8-.06 3.85.23 7.74-.56 11.53-.92 4.49-3.15 8.77-6.58 11.85-2.32 2.08-5.37 3.37-8.51 3.38-12.52-.02-25.05.04-37.56-.03-5.62-.27-10.05-4.66-12.46-9.43-2.48-4.64-2.72-10.01-2.58-15.15h15.21c.27 1.51-.61 3.64.54 4.79 11.6.11 23.2 0 34.8.05.72-.03 1.47.08 2.18-.13.49-.62.23-1.5.32-2.23-.05-3.6.05-7.2-.04-10.8.13-.85-.82-.83-1.37-.82-11.85.02-23.69.02-35.53 0-3.85.08-7.55-1.75-10.1-4.58-3.83-4.08-5.84-9.65-5.96-15.2-.07-4.62-.05-9.25-.01-13.87.07-5.83 2.21-11.72 6.35-15.89Zm152.28 49.54c0-10.88.02-21.77-.01-32.65.03-4.66-1.03-9.41-3.58-13.36-2.54-4.14-6.84-7.64-11.9-7.69-12.52-.01-25.05-.03-37.57.01-6.23.25-10.97 5.41-13.27 10.81-2.48 5.48-1.86 11.61-1.92 17.44v36.03c-.07 3.64.11 7.36 1.35 10.83 1.65 4.63 4.74 9.03 9.27 11.19 3.18 1.57 6.8 1.05 10.22 1.13h47.4v-19.78c-17.32 0-34.63.01-51.95 0-.81.21-1.2-.56-1.08-1.26 0-4.24-.02-8.47.01-12.7 17.68.03 35.35 0 53.02.01Zm-53.04-31.11c.01-.96-.13-1.97.34-2.85 12.43.09 24.87-.07 37.3.08.41 4.62.06 9.29.18 13.93-12.61.01-25.21 0-37.82 0-.02-3.72 0-7.45-.01-11.17Zm78.1-16.51c2.55-3.44 6.51-6.09 10.91-6.09 12.57-.01 25.14 0 37.71 0v19.78c-12.59 0-25.18.02-37.77-.02-.27.57-.39 1.17-.35 1.8.01 21.96 0 43.93 0 65.89h-15.18c0-22.29-.01-44.58 0-66.88-.02-5.16 1.5-10.37 4.67-14.48Zm64.79-6.1h17.53c8.21 19.73 16.41 39.47 24.62 59.2.6 1.38 1.09 2.8 1.8 4.13 8.77-21.11 17.67-42.16 26.39-63.28 5.86-.11 11.72-.02 17.59-.05-12.32 29.14-24.73 58.25-37 87.41-4.67.07-9.35.05-14.02.01-12.26-29.16-24.61-58.28-36.9-87.42Zm106.52 0h15.18v87.45h-15.18v-87.45Zm40.69 10.15c2.37-5.12 7-9.91 12.96-10.13 17.6-.05 35.2-.02 52.8-.02-.01 6.59 0 13.18 0 19.78-17.48-.02-34.96.03-52.44-.02-.55 1.04-.31 2.24-.34 3.37 0 14.23.02 28.47 0 42.7.06.58-.21 1.82.72 1.81 17.44.06 34.88 0 52.32.03v19.78h-52.52c-3.5.02-6.86-1.62-9.28-4.09-4.32-4.29-6.46-10.44-6.44-16.47-.02-13.91 0-27.82 0-41.73-.1-5.07-.07-10.36 2.23-15.01Zm155.04 43.56c-.01-11.05.03-22.1-.02-33.14-.01-5.24-1.56-10.55-4.85-14.68-2.52-3.3-6.35-5.83-10.6-5.88-12.54-.01-25.07-.03-37.61.01-5.53.2-9.98 4.42-12.43 9.09-2.26 4.1-2.89 8.87-2.76 13.49.01 14.76-.01 29.52.01 44.27-.03 5.92 2.02 11.94 6.19 16.23 2.44 2.6 5.89 4.35 9.51 4.34h52.54V635.6c-17.55-.05-35.11.09-52.65-.06-.09-.18-.26-.53-.35-.7-.09-4.39-.02-8.8-.03-13.19 17.68.01 35.35 0 53.03 0Zm-52.71-33.95c12.44.08 24.89-.08 37.33.08.37 4.62.06 9.28.16 13.92-12.61.01-25.21 0-37.82 0-.02-3.73 0-7.45-.01-11.18 0-.95-.12-1.95.33-2.83Zm77.49-12.46c2.55-3.98 6.79-7.28 11.7-7.3 12.37-.01 24.74-.01 37.12 0 3.23.02 6.37 1.4 8.71 3.61 3.43 3.22 5.63 7.64 6.44 12.25.52 2.89.43 5.83.43 8.75h-15.21c-.1-1.61.27-3.3-.31-4.84-12.41.03-24.83 0-37.24.02-.47 1.4-.22 2.91-.27 4.36.04 3.03-.09 6.07.06 9.1.22.77 1.21.43 1.81.54 11.85-.02 23.7 0 35.55 0 3.28.01 6.46 1.44 8.82 3.68 4.22 4 6.5 9.77 6.74 15.54.13 4.12.03 8.24.06 12.36.12 4.96-.8 10.06-3.48 14.31-2.46 4.12-6.65 7.6-11.62 7.77-12.36.06-24.71 0-37.06.03-3.3.09-6.54-1.25-8.95-3.45-3.43-3.11-5.71-7.4-6.6-11.93-.64-3.03-.54-6.15-.53-9.23h15.21c.25 1.52-.59 3.59.51 4.78 12.1.1 24.21.03 36.32.04.77.16 1.05-.62.99-1.26.01-3.8 0-7.6 0-11.4.08-.66-.18-1.48-.99-1.29-11.97-.02-23.95.01-35.92-.02-3.33.06-6.6-1.27-9.04-3.52-4.52-4.11-6.92-10.21-7.04-16.26-.08-4.45-.04-8.89-.02-13.34.01-4.67 1.2-9.39 3.83-13.29Z" style="fill:#fff"/>
</svg>
