<svg xmlns="http://www.w3.org/2000/svg" viewBox="0 0 1024 1024">
   <circle cx="512" cy="512" r="512" style="fill:#1a5ec6"/>
   <path d="M206.37 432.83a49.48 49.48 0 0 0-10.7 1v35.64c-5-1.92-10.7-2.87-18.35-2.87-27.15-.05-49.32 18.53-49.32 48.4 0 30.65 20.26 47.51 50.08 47.51 14.72 0 29.82-4 39.18-9V433.79a53.52 53.52 0 0 0-10.9-1Zm-27.2 112.84c-16.36 0-27.59-11.32-27.59-29.47 0-18 12-29.47 28-29.47 6.47 0 12.37.78 17.5 4.1v51.91a46 46 0 0 1-17.89 2.93Zm107-79.15c-19.6 0-35.55 7.65-43.62 14.35v79a62.08 62.08 0 0 0 21.71 0v-68.5c4.23-2.49 11.72-5 20.18-5 14 0 22.1 6.31 22.1 23v50.52a63.18 63.18 0 0 0 21.91 0v-55.68c0-20.86-12.87-37.7-42.27-37.7Zm98.57 96c25.05 0 39.7-11.45 39.7-30.35 0-17.94-14.45-24.62-34.3-27.68-15.61-2.48-19.66-5.34-19.66-11.26 0-5.73 5-9.35 16.57-9.35a55.06 55.06 0 0 1 26.79 6.87c4.43-3.44 7.32-8.78 8.29-15.46-6-4.2-17.73-8.78-34.3-8.78-23.13 0-38.35 11.45-38.35 28.25 0 19.09 15.42 25 31.61 27.49 16.38 2.48 21.58 5.92 21.58 12s-4.63 10.88-17.54 10.88c-14.45 0-22.55-5-28.14-9-4.63 2.86-8.29 8-10 14.89 5.2 4.39 17.34 11.45 37.77 11.45Zm69.37-106.12a14.32 14.32 0 1 0-14.51-14.32 14.29 14.29 0 0 0 14.51 14.32ZM454 560.85a50.76 50.76 0 0 0 10.85-1v-90.69a51.89 51.89 0 0 0-10.85-1 53.73 53.73 0 0 0-11 1v90.73a54.92 54.92 0 0 0 11 1Zm140.76-94.33A53 53 0 0 0 563.5 477c-6.8-6.51-16.89-10.52-30.09-10.52-19.22 0-35.92 8-43.3 14.35v79a63.36 63.36 0 0 0 21.94 0v-68.5a38 38 0 0 1 18.83-5c15 0 20.58 9.38 20.58 22.39v51.09a54.79 54.79 0 0 0 11.26 1 52.23 52.23 0 0 0 10.87-1V502.3a40 40 0 0 0-1-8.42c4.47-3.64 10.68-7.46 19.61-7.46 15 0 20.77 9.38 20.77 22.39v51.09a63.36 63.36 0 0 0 21.94 0v-57.6c0-19.71-13.59-35.78-40.19-35.78Zm104.19 0c-17.24 0-31.61 6.71-40.42 14v114.75a53.75 53.75 0 0 0 10.92 1 49.69 49.69 0 0 0 10.73-1V560c5.75 1.92 11.88 2.68 19.54 2.68 25.28 0 48.08-17.82 48.08-48.47 0-31.42-21.07-47.71-48.85-47.71Zm-4 77.49c-7 0-12.75-1.16-17.89-3.66v-49.18a35.5 35.5 0 0 1 17.69-4.44c16.55 0 27.78 10.61 27.78 28.15 0 18.12-11.23 29.12-27.59 29.12Zm83.17 16.85a59.69 59.69 0 0 0 11.79-1V433.79a63.13 63.13 0 0 0-12-1 57.62 57.62 0 0 0-11.58 1v126.1a63.73 63.73 0 0 0 11.79 1ZM896 507.45c0-24.29-17.32-40.93-41.77-40.93-26 0-45.81 20.27-45.81 48.39 0 29.65 19.63 47.63 47 47.63 18.29 0 30.22-6.69 37.92-12.82a22.38 22.38 0 0 0-9.47-14.72c-6 4.21-13.67 9.37-26.95 9.37-15.21 0-24.45-9.18-26.18-24.1h64.48a97.34 97.34 0 0 0 .77-12.82Zm-65.68-.5c1.54-12.49 9.84-21.9 23.34-21.9 14.85.19 20.45 11.14 20.45 21.9Z" style="fill:#fff"/>
</svg>
