<svg xmlns="http://www.w3.org/2000/svg" viewBox="0 0 1024 1024">
   <circle cx="512" cy="512" r="512" style="fill:#66bf4e"/>
   <path d="M153.5 396.344v109.879h231.182c-3.014-61.192-53.581-109.88-115.52-109.88zm242.89 0v115.662c0 61.939 48.69 112.505 109.881 115.52V396.343Zm121.448 0v231.324h109.879V396.344Zm237.107 0c-61.939 0-112.504 48.687-115.517 109.879h231.037c-3.014-61.192-53.58-109.88-115.52-109.88zM153.5 517.789v109.879h115.662c61.939 0 112.506-48.687 115.52-109.879zm485.928 0c3.013 61.192 53.578 109.879 115.517 109.879 61.94 0 112.506-48.687 115.52-109.879z" style="fill:#ffffff"/>
</svg>
