<svg xmlns="http://www.w3.org/2000/svg" viewBox="0 0 1024 1024">
   <circle cx="512" cy="512" r="512" style="fill:#009ddc"/>
   <path d="m635.61 350.62 36.88-72-89.57 50.93c4.39-28.1 9.66-66.74 17.56-118.55-195.82 104.5-264.32 212.51-288 281.88-.88 2.63-1.76 4.39-2.63 7-12.32 40.42-8.85 66.76-8.85 66.76C303.68 680.8 396.76 773 511.79 773c116.79 0 211.63-94.84 211.63-210.75V350.62ZM618 561.37c0 58-47.42 105.38-105.37 105.38S407.3 619.33 407.3 561.37 454.72 456 512.67 456H618Zm-156.31 0c0 27.22 22.83 50.05 50.05 50.05a50 50 0 0 0 50.05-50.05 50 50 0 0 0-50.05-50.05c-27.17 0-50 22.83-50 50.05Z" style="fill:#fff"/>
</svg>
