<svg xmlns="http://www.w3.org/2000/svg" viewBox="0 0 1024 1024">
   <circle cx="512" cy="512" r="512" style="fill:#8b47ae"/>
   <path d="M720.135 304.133v164.256h-1.057c-7.394-8.979-17.958-16.901-31.162-24.295-13.204-7.394-29.576-11.09-49.117-11.09-19.014 0-35.914 3.695-51.23 11.09-15.317 7.394-28.522 17.43-39.085 30.105-11.091 12.676-19.014 27.463-24.824 43.836-5.81 16.901-8.979 34.331-8.979 52.817 0 18.485 2.642 35.913 8.452 52.814 5.81 16.9 13.733 31.69 24.824 44.365 10.563 13.204 23.765 23.238 39.082 31.16 15.316 7.923 33.275 11.621 52.816 11.621 17.43 0 34.33-3.697 50.174-11.091 15.316-6.866 27.464-17.43 35.914-30.633H727v34.33h79.753V304.133ZM358.852 431.947c-19.889.049-38.221 3.223-55.514 10.035-17.43 6.866-32.217 16.373-44.893 27.993-12.675 12.147-22.711 26.934-30.105 44.363-7.394 17.429-11.092 36.97-11.092 58.625 0 22.182 3.697 41.725 11.62 59.154 7.393 17.43 17.958 31.69 31.161 43.309 13.204 12.147 28.52 21.126 45.95 26.935 17.429 6.338 36.442 9.506 55.984 9.506 26.936 0 50.173-4.752 70.771-14.787 20.07-9.507 36.445-23.238 48.592-41.195l-60.21-38.028c-5.81 7.923-13.732 14.788-23.239 19.541-9.507 5.282-21.125 7.922-34.857 7.922-7.923 0-15.318-1.056-22.184-3.697-7.394-2.64-13.731-5.809-19.541-10.562-5.81-4.225-10.563-9.507-14.26-15.317-3.697-5.81-6.339-12.676-6.867-20.07h190.664c.528-3.169.527-6.338.527-10.035v-10.563c0-22.71-3.168-42.78-9.506-60.209-6.866-17.429-15.845-32.745-27.465-44.892-11.619-12.148-25.35-21.656-41.722-28.522-16.373-6.337-33.802-9.505-53.344-9.505zm.404 59.682h.594c17.429 0 30.105 4.752 39.083 14.787 8.451 10.035 12.676 21.655 12.676 35.387H300.168c.528-6.866 2.114-13.203 5.283-19.541 3.17-5.81 7.394-11.093 12.676-15.846s11.618-8.449 18.484-11.09c6.705-2.579 14.417-3.648 22.645-3.697zm300.963 12.146h.235c10.035 0 18.486 2.114 26.408 5.81 7.922 3.698 14.259 8.98 20.068 15.317 5.282 6.338 9.507 13.732 12.676 21.655 2.64 7.922 4.227 16.371 4.227 24.822 0 8.45-1.586 16.902-4.227 24.824-3.169 7.922-7.394 15.316-12.676 21.654-5.81 6.338-12.146 11.62-20.068 15.317-7.922 3.697-16.373 5.808-26.408 5.808s-19.013-2.111-26.936-5.808c-7.922-3.697-14.261-8.979-19.543-15.317-5.281-6.338-8.978-13.733-11.619-22.183-2.64-7.923-4.225-16.372-4.225-24.823 0-8.45 1.584-16.901 4.225-24.824 2.64-7.922 6.338-15.316 11.62-21.654 5.28-5.81 11.62-11.09 19.542-14.787 7.86-3.668 16.761-5.778 26.701-5.81z" style="fill:#fff"/>
</svg>
