<svg xmlns="http://www.w3.org/2000/svg" viewBox="0 0 1024 1024">
   <circle cx="512" cy="512" r="512" style="fill:#f33d96"/>
   <path d="M584 393c-.44 2.31-1 4.6-1.6 6.86l.12-.25a85.45 85.45 0 0 1-6.35 16.49c-.26.53-.54 1-.82 1.57l-.13.25a88.05 88.05 0 0 1-13.46 18.85l-.45.46a100.78 100.78 0 0 1-24.69 19.2l-.17.09q-1.1.61-2.23 1.2l-1.47.76-.25.12a105.44 105.44 0 0 1-12.5 5.33 134.16 134.16 0 0 1-47.67 7.43 151.71 151.71 0 0 1-26.08-2.45c-1.4-.23-2.81-.48-4.22-.75q-5.61-1.06-11.41-2c-26.82-4.44-56.24-7.06-83.61-6.46q-14.82.4-29.58 2.09a180.26 180.26 0 0 0-25.7 5 131.51 131.51 0 0 0-23.28 9.53c-.4.21-.79.43-1.19.65a53.86 53.86 0 0 0-12.86 10.64 43.9 43.9 0 0 0-9.27 19.89q-.1-2.26-.14-4.51V494c0-.76 0-1.58.07-2.37s0-1.41.08-2.11.08-1.66.13-2.48c0-.65.07-1.31.12-2 .06-.86.12-1.73.19-2.59 0-.61.1-1.22.15-1.83q.12-1.35.26-2.69l.18-1.71q.15-1.4.33-2.79l.2-1.56q.19-1.46.4-2.92l.21-1.38q.24-1.54.49-3.07c.06-.38.13-.76.2-1.14.19-1.1.39-2.19.6-3.29l.16-.79c.24-1.21.48-2.41.74-3.61l.05-.23a205.13 205.13 0 0 1 41.21-86l-.66.93a232.35 232.35 0 0 1 93.9-69.73 199.78 199.78 0 0 1 109.06-13.84 20.13 20.13 0 0 1 10.34-9.56 11.58 11.58 0 0 0 6.69-7.54A20.06 20.06 0 0 1 521 257.89a11.5 11.5 0 0 0 5.83-5.75c3.73-7.93 13.29-17.1 20.6-13.21 6.14 3.34 3.11 12.36.78 17.57a11.58 11.58 0 0 0-.93 7.15 13.37 13.37 0 0 1-2.57 11.12 11.82 11.82 0 0 0-2 10.42 14 14 0 0 1-3.34 14.15A11.58 11.58 0 0 0 537 303a107.2 107.2 0 0 1 40.89 44.46A72.53 72.53 0 0 1 584 393Zm-231.61 73.08q-14.82.4-29.58 2.09a180.26 180.26 0 0 0-25.7 5 131.51 131.51 0 0 0-23.28 9.53c-.4.21-.79.43-1.19.65A53.86 53.86 0 0 0 259.78 494a43.9 43.9 0 0 0-9.27 19.89c-.16 31 27.6 39.49 41.28 12.28C314.52 480.81 371 462.35 436 472.55c-26.82-4.44-56.24-7.06-83.61-6.47ZM618 413.76l.8-1.31a339.69 339.69 0 0 0 21.15-40.91c.27-.58.52-1.17.78-1.76a182.22 182.22 0 0 0 6.95-20 131.52 131.52 0 0 0 4.08-27.78c0-.73.05-1.45.06-2.17a53.66 53.66 0 0 0-2.62-15.19 43.83 43.83 0 0 0-12.75-18.4l.2.11-.13-.11c-26.74-15.55-48 4.2-31.25 29.62 27.33 41.68 15.94 98.41-23.64 148.9q15.19-18.71 28.53-38.83 4.06-5.99 7.84-12.17Zm140.6 81.77h.08c28.3-22.08 24.64-34.67-3.89-37.62a225.43 225.43 0 0 0-17.88-72 205 205 0 0 0-50.81-70.35l-.94-.83c-.76-.68-1.53-1.35-2.3-2l-1.66-1.4-1.61-1.33q-1.09-.9-2.2-1.79l-1.09-.87q-1.33-1.06-2.69-2.09l-.61-.47q-1.57-1.19-3.16-2.36l-.12-.09a205.09 205.09 0 0 0-25.78-16l.13.11-.2-.11a43.83 43.83 0 0 1 12.75 18.4 53.66 53.66 0 0 1 2.62 15.19c0 .72 0 1.45-.06 2.17a131.52 131.52 0 0 1-4.09 27.73 182.22 182.22 0 0 1-6.95 20c-.26.59-.51 1.17-.78 1.76a339.69 339.69 0 0 1-21.15 40.91l-.8 1.31q-3.78 6.18-7.82 12.2-13.32 20.1-28.53 38.83-4.81 5.92-9.79 11.7A151.72 151.72 0 0 0 556 510.76a133.87 133.87 0 0 0-10 25.87c-.27.94-.54 1.87-.78 2.81a105.47 105.47 0 0 0-2.22 40.14c0 .36.1.72.15 1.08.08.52.15 1 .23 1.57q.23 1.42.49 2.82c.07.34.14.68.2 1q.19.95.4 1.89c.58 2.63 1.24 5.25 2 7.84A88.07 88.07 0 0 0 573.2 637a72.53 72.53 0 0 0 42.6 17.49 112.56 112.56 0 0 0 92.27-40.11 159 159 0 0 0 16.25-21.77 15.7 15.7 0 0 1 5.29-5.13c49.52-29.54 55.5-45.86 23.94-48.82 43.99-28.13 43.53-42.52 5.05-43.14ZM628.85 691.34c-49.78 3-93.46-35.09-117.55-94.62l.22.57.31.8q1.27 3.27 2.59 6.52l.36.88q1.35 3.31 2.75 6.6l.15.36q6.16 14.45 13.22 28.55l.12.24c4 7.91 8.21 15.66 12.6 23.12a339.67 339.67 0 0 0 19.69 29.49l.48.66a178.06 178.06 0 0 0 16.85 19.09 131.51 131.51 0 0 0 19.67 15.15l.43.26a52.92 52.92 0 0 0 18.48 6.52 43.82 43.82 0 0 0 18.51-1.88l1.23-.48v.08c26.89-15.56 20.28-43.78-10.11-41.91Zm5.7 50.77A43.82 43.82 0 0 1 616 744a52.92 52.92 0 0 1-18.48-6.52l-.43-.26A131.51 131.51 0 0 1 577.47 722a178.06 178.06 0 0 1-16.85-19l-.48-.66a339.67 339.67 0 0 1-19.69-29.49c-4.39-7.45-8.6-15.21-12.6-23.12l-.12-.24q-7.06-14-13.21-28.51l-.15-.36q-1.4-3.29-2.75-6.6l-.36-.88q-1.32-3.25-2.59-6.52l-.31-.8-.22-.57q-1.23-3.18-2.42-6.38l-.11-.3q-1.36-3.67-2.66-7.37c-.48-1.37-1-2.71-1.48-4 16.87-12.51 22.85-22.46 17.49-29.38-4.59-5.83-17.41-9.48-38.94-10.65l-.19-.24q-1.21-1.61-2.44-3.16a129.39 129.39 0 0 0-12.15-13.39 105.48 105.48 0 0 0-26.79-18.8 98.86 98.86 0 0 0-25.14-8.61 88 88 0 0 0-17.53-1.73h-2.02a85.8 85.8 0 0 0-20.63 2.92h.3c-2.25.59-4.47 1.27-6.68 2a72.53 72.53 0 0 0-36.38 28.14 110.69 110.69 0 0 0-14 90.56c-12.59 17.33-17.88 29.62-16.17 36.85 1.94 8.55 13.53 10.11 34 4.9a214.16 214.16 0 0 0 53 58.84 232.34 232.34 0 0 0 106.52 46.05h-.28l1.38.2 1.94.28 1.59.23c1.6.22 3.2.43 4.81.61a205.05 205.05 0 0 0 103.73-15.74l.11-.08q2-.87 4-1.78l.35-.16q1.88-.87 3.75-1.78l.48-.23q1.8-.88 3.58-1.8l.58-.3q1.74-.9 3.47-1.84l.63-.34q1.71-.94 3.41-1.91l.62-.35q1.73-1 3.44-2l.54-.32q2-1.2 3.92-2.44c-.4.1-.77.25-1.22.36Z" style="fill:#fff"/>
</svg>
