<svg xmlns="http://www.w3.org/2000/svg" viewBox="0 0 1024 1024">
   <circle cx="512" cy="512" r="512" style="fill:#f54565"/>
   <path d="M639.44 404.34c-36.47-7.13-73.73.79-104.64 21.4-30.92 21.01-51.53 52.32-58.66 89.18-3.17 17.04-3.17 34.88 0 51.13 9.91 55.49 55.49 101.47 110.59 111.78 10.31 1.98 20.22 2.77 30.12 2.77 56.68 0 94.73-32.11 112.17-51.53l2.77-2.77-56.29-42.81-2.38 1.98c-10.31 9.51-38.84 26.16-72.54 19.42-18.63-3.57-33.3-15.46-40.43-32.5l186.3 1.98 1.98-4.36c1.19-2.38 1.19-4.36 1.59-6.34 0-.4 0-1.19.4-2.38 11.1-73.73-37.66-142.7-110.99-156.97Zm-78.09 103.85c10.31-22.2 33.69-36.47 57.08-33.69 20.22 1.98 38.45 15.86 47.57 35.28l-104.64-1.59ZM402.4 330.61 271.99 683.39h85.62l128.03-352.78H402.4Z" style="fill:#fff"/>
</svg>
