<svg xmlns="http://www.w3.org/2000/svg" viewBox="0 0 1024 1024">
   <circle cx="512" cy="512" r="512"/>
   <path d="M331.1 451.34c-10.49-5.66-22.3-8.49-35.45-8.49s-25.88 3-36.7 8.99c-10.82 5.82-19.39 13.98-25.71 24.47-6.16 10.32-9.24 22.22-9.24 35.7s3.16 25.21 9.49 35.7c6.32 10.32 15.23 18.47 26.71 24.47 11.65 5.99 25.13 8.99 40.44 8.99 12.15 0 22.88-1.83 32.2-5.49 9.32-3.83 17.06-9.24 23.22-16.23l-20.72-22.47c-4.49 4.33-9.49 7.57-14.98 9.74-5.33 2.16-11.57 3.25-18.72 3.25-7.99 0-14.98-1.41-20.97-4.24-5.83-3-10.4-7.24-13.73-12.73-1.72-3.08-2.96-6.41-3.74-9.99h101.6c.17-1.66.33-3.41.5-5.24.17-2 .25-3.74.25-5.24 0-14.48-3.08-26.88-9.24-37.2-6.16-10.49-14.56-18.47-25.21-23.97Zm-52.93 25.46c5.16-3 11.07-4.49 17.73-4.49s12.48 1.5 17.48 4.49c4.99 2.83 8.9 6.82 11.73 11.98 1.88 3.42 3.12 7.26 3.75 11.48h-66.12c.65-4.16 1.88-7.91 3.7-11.23 2.83-5.33 6.74-9.4 11.73-12.23Zm243.37-7.99c4.83 8.65 7.24 19.81 7.24 33.45v76.89h-38.95v-70.9c0-10.82-2.41-18.81-7.24-23.97-4.66-5.16-11.32-7.74-19.97-7.74-6.16 0-11.73 1.33-16.73 3.99-4.83 2.5-8.65 6.41-11.48 11.73-2.66 5.33-3.99 12.15-3.99 20.47v66.41h-38.95V444.83h37.2v15.99c3.86-4.3 8.42-7.9 13.73-10.75 8.99-4.83 19.22-7.24 30.71-7.24 10.65 0 20.14 2.16 28.46 6.49 8.49 4.16 15.14 10.65 19.97 19.47Zm118.68 76.39 10.49 27.46c-3.99 2.83-8.82 4.99-14.48 6.49-5.49 1.33-11.23 2-17.23 2-15.81 0-28.13-3.99-36.95-11.98-8.82-8.16-13.23-20.22-13.23-36.2V477.8H548.1v-29.96h20.72v-32.7h38.95v32.7h33.45v29.96h-33.45v54.67c0 5.66 1.5 10.07 4.49 13.23 3 3 7.07 4.49 12.23 4.49 6.16 0 11.4-1.66 15.73-4.99Zm150.53-69.9c-6.16-10.49-14.56-18.47-25.21-23.97-10.49-5.66-22.3-8.49-35.45-8.49s-25.88 3-36.7 8.99c-10.82 5.82-19.39 13.98-25.71 24.47-6.16 10.32-9.24 22.22-9.24 35.7s3.16 25.21 9.49 35.7c6.32 10.32 15.23 18.47 26.71 24.47 11.65 5.99 25.13 8.99 40.44 8.99 12.15 0 22.88-1.83 32.2-5.49 9.32-3.83 17.06-9.24 23.22-16.23l-20.72-22.47c-4.49 4.33-9.49 7.57-14.98 9.74-5.33 2.16-11.57 3.25-18.72 3.25-7.99 0-14.98-1.41-20.97-4.24-5.83-3-10.4-7.24-13.73-12.73-1.72-3.08-2.96-6.41-3.74-9.99h101.6c.17-1.66.33-3.41.5-5.24.17-2 .25-3.74.25-5.24 0-14.48-3.08-26.88-9.24-37.2Zm-78.14 1.5c5.16-3 11.07-4.49 17.73-4.49s12.48 1.5 17.48 4.49c4.99 2.83 8.9 6.82 11.73 11.98 1.88 3.42 3.12 7.26 3.75 11.48h-66.12c.65-4.16 1.88-7.91 3.7-11.23 2.83-5.33 6.74-9.4 11.73-12.23Z" style="fill:#fff"/>
</svg>
