<svg xmlns="http://www.w3.org/2000/svg" viewBox="0 0 1024 1024">
   <circle cx="512" cy="512" r="512" style="fill:#0096a1"/>
   <path d="M453.36 544.63c-8.57 0-17.25-.21-17.66-11.76h-32.61c.25 22.74 11 30.18 30.95 31.76 6 .46 12.58.44 19.32.44 27.48 0 50.26-4.59 50.26-34.37 0-28.41-14.78-30.38-50.29-31.17-17.61-.42-18.64-4.1-18.64-9.93 0-7 .77-9.16 18.67-9.16 6.54 0 13.14.6 14.59 8.72h30.72V485c0-24.72-25.89-25-45.32-25-29.17 0-50.27.65-50.27 33.38 0 20.57 7.1 30.16 50.27 30.16 3.9 0 10.09-.19 13.73 1.38 3.37 1.45 4.94 4.44 4.94 9.78 0 9-3.29 9.94-18.67 9.94m-122.53-62.39c11.74 0 18.07 1.16 18.07 17.29v.78h-35.17c.42-13.79 3.22-18.07 17.1-18.07Zm-49.66 30.4c0 38.57 9.67 52.42 50.27 52.42 15.08 0 27.63-1.18 36.37-6 8.49-4.94 13.52-13.35 13.69-28.35h-32c-.37 11-7.82 12.14-18.07 12.14-14.78 0-17.7-6.06-17.7-24.44v-.77h67.76v-5c0-42.16-11.38-52.66-50.07-52.66-41.41 0-50.27 12.86-50.27 52.66Zm318.73-31.46c-14.34 0-17 4.64-17.46 18.73h35.86v-1.14c0-16.36-6.59-17.59-18.41-17.59m150.92 2.23H727v80.5h-32.6v-80.5h-23.81V460h80.22Zm-100.57 33.14h-67.76v1.1c0 18.43 2.91 24.71 18 24.71 10.13 0 17.9-1.09 18.4-12.1h31.36C650 545 645 553.19 636.69 558c-8.66 4.8-21.14 6-36.22 6-40.44 0-49.95-13.68-49.95-52.1 0-39.62 8.74-52.35 49.95-52.35 38.51 0 49.75 10.4 49.75 52.35v4.67Zm-126.15 86.17H304.52c-17 0-36.9-8.38-47.24-19.49-16.37-17.54-19.92-45-19.92-71.23s3.56-53.74 19.92-71.3c10.35-11.11 30.23-19.43 47.24-19.48h219.56v181.49ZM792 438.34c-13-21.36-37.91-36.41-67.1-36.41H299.09c-29.2 0-54.09 15.07-67.09 36.41-11.44 19.82-14 52.23-14 73.67s2.54 53.78 14 73.62c13 21.37 37.9 36.44 67.11 36.44h425.77c29.19 0 54.13-15.07 67.1-36.44 11.43-19.84 14-52.23 14-73.62s-2.58-53.86-13.98-73.67Z" style="fill:#fff"/>
</svg>
