<svg xmlns="http://www.w3.org/2000/svg" viewBox="0 0 1024 1024">
   <circle cx="512" cy="512" r="512" style="fill:#f56400"/>
   <path d="M272.42 487.83v-81.77c0-3 .3-4.85 5.45-4.85h69.35c12.12 0 18.78 10.3 23.63 29.68l3.94 15.45h11.81c2.12-43.91 3.93-63 3.93-63s-29.68 3.33-47.24 3.33h-88.74l-47.55-1.5v12.72l16.05 3c11.21 2.12 13.93 4.54 14.84 14.84 0 0 .91 30.28.91 80.26s-.91 80-.91 80c0 9.08-3.64 12.41-14.84 14.54l-16.05 3v12.71l47.55-1.51h79.35c17.87 0 59.36 1.51 59.36 1.51.91-10.9 7-60.27 7.88-65.71h-11.21l-11.81 27c-9.39 21.19-23 22.71-38.16 22.71h-45.13c-15.14 0-22.41-6.06-22.41-19.08v-69.09s33 0 44.52.91c8.48.61 13.63 3 16.36 14.84l3.64 15.75h13l-.94-39.68 1.82-40h-13l-4.24 17.56c-2.73 11.51-4.54 13.63-16.36 14.84-13.32 1.52-44.82 1.21-44.82 1.21v.3zM452 414.55c-4.24 18.78-8.48 33.31-23.32 43-9.08 6.05-18.17 8.17-21.8 8.48v11.51h27v93c0 26 17.27 38.77 40.28 38.77 17.87 0 36.34-7.57 42.7-23.32l-6.36-8.18c-3 5.15-12.71 12.72-24.83 12.72-13.32 0-20.59-9.09-20.59-32.1v-82.1l44.83 3.33 2.42-20.6-47.33 1.82v-46l-13-.3zm95.7 143-11.51.3c.6 6.66.91 15.14.91 23 0 8.18-.3 15.75-.91 19.38 0 0 23 8.47 46.34 8.47 31.5 0 56.63-15.14 56.63-44.82 0-50.87-76.32-43.3-76.32-77.53 0-14.23 12.72-19.68 26.65-19.68 10.9 0 20 3.94 21.8 9.7l7.57 22.71 11.21-.6c.91-12.12 1.51-26 3.33-37.25-9.69-4.24-30-6.67-42.7-6.67-29.69 0-53.61 13-53.61 42.1 0 50.57 74.5 40.28 74.5 77.53 0 13.32-8.18 22.71-26.65 22.71-17 0-25.44-8.78-28.76-17.57l-8.49-21.8zm182.53 35c-17.53 49-39 61.66-58.34 61.66-8.17 0-12.09-3.63-13.31-9.36l-4.53-23.59-12.7.6c-2.42 13.91-4.84 29.33-8.16 42 7.56 5.74 20.25 8.77 30.23 8.77 20.86 0 52.6-2.73 81.62-71.65l48.67-114.87c3.93-9.37 5.44-10.28 16.93-14.82l6.36-2.39v-10.58l-28.72 1.51-30.83-1.51v10.58l7.86 2.41c7.86 2.42 11.49 5.44 11.49 10.89 0 2.72-.91 5.44-2.43 9.67-4.53 11.5-32.65 79.81-40.2 94.32l7.55-2.73c-13.3-32.95-33.55-88-36.57-97.33a15.06 15.06 0 0 1-.91-4.85c0-4.83 3.32-8.77 10.58-10.28l10-2.11v-10.57l-41.42 1.51-32.95-1.51v10.58l5.44 1.81c7.56 2.42 9.37 4.54 13.91 15.12 25.08 57.44 36.88 88.87 52.89 130l7.57-23.28z" style="fill:#fff"/>
</svg>
