<svg xmlns="http://www.w3.org/2000/svg" viewBox="0 0 1024 1024">
   <circle cx="512" cy="512" r="512" style="fill:#3ec1e6"/>
   <path d="M241.96 490.43h-11.24v-11.14c0-8.31.32-13.5.95-15.57.64-2.06 2.29-3.07 4.95-3 2.86.07 4.61 2.67 5.24 7.82.06.63.1 4.22.1 10.76v11.14Zm19.52-49.14c-7.17-5.01-16.07-7.49-26.67-7.43-9.02.06-16.89 2.13-23.61 6.19-.6.36-1.14.75-1.7 1.14-.01.01-.03.02-.05.03-.02.02-.05.03-.08.05-.54.37-1.05.79-1.56 1.19-5.86 4.58-10.05 10.91-12.52 19.11-2.03 6.74-3.05 15.84-3.05 27.33v44.29c0 7.97.52 15.04 1.55 21.2 1.48 8.86 4.01 15.86 7.6 20.99 7.36 10.54 19.39 15.74 36.09 15.61 14.86-.06 25.91-5.04 33.14-14.94 4.26-5.85 7.08-12.19 8.47-19.05.96-4.7 1.43-11.65 1.43-20.86V524.9h-36.48v20.01c0 7.56-.51 12.66-1.52 15.33-1.02 2.66-2.95 3.96-5.82 3.9-3.17-.07-5.1-2.19-5.81-6.38-.13-.83-.19-4.13-.19-9.91v-32.77h49.81v-20.09c0-12.57-.99-22.44-2.95-29.62-2.86-10.53-8.23-18.57-16.1-24.09Zm77.67 97.33c0-4.57.13-1.61.38 8.86.12 4.83-.16 8.57-.86 11.24-1.02 3.69-2.83 5.49-5.43 5.43-3.44-.06-5.44-3.22-6-9.38.12.3.19-4.69.19-15.01V436.62h-38.48V538.9c0 13.52.22 22.23.67 26.1.51 4.57 1.64 8.86 3.42 12.86 3.93 8.89 11.53 13.27 22.76 13.14 10.22-.12 18-5.23 23.33-15.33l-.67 12.57h39.15V436.62h-38.48v101.99Zm122.14-97.42c.48-.35.98-.67 1.48-.99.24-.16.47-.32.72-.48.33-.21.69-.39 1.04-.59l.09-.16c-27.26-15.32-40.16 10.66-40.16 10.66v-13h-38.48v151.62h38.48V512.1c0-36.99 21.62-36.99 21.62-36.99.41-4.31.99-8 1.75-11.04 2.54-10.22 6.02-17.4 13.46-22.86Zm267.48-2.09c-4.34-3.56-9.64-5.3-15.86-5.24-10.79.06-18.85 5.62-24.19 16.67l.67-13.9h-39.14v151.62h38.48V485.78c0-11.48.36-18.54 1.09-21.18.73-2.64 2.43-3.93 5.1-3.86 3.32.06 5.24 3.17 5.78 9.3-.12-.65-.18 3.74-.18 13.18v105.05h38.47V481.98c0-13.14-.59-22.6-1.81-28.37-1.26-6.1-4.07-10.92-8.43-14.48Zm75.74 59.71c-8.5-5.02-14.1-8.86-16.76-11.53-2.67-2.67-4.32-5.24-4.95-7.72-.44-1.65-.64-4.79-.57-9.43.06-6.85 2.22-10.28 6.47-10.28 2.73 0 4.38.95 4.95 2.86.7 1.65 1.04 6.06 1.04 13.24v8.19h34.1v-8.76c0-7.17-.26-12.19-.77-15.05-.88-4.95-2.88-9.46-5.99-13.52-7.18-9.33-18.8-13.93-34.85-13.81-8.7.07-16.13 1.61-22.29 4.66-7.3 3.62-12.25 9.28-14.86 16.96-1.77 5.27-2.67 12.98-2.67 23.13 0 10.8 1.75 19.18 5.24 25.14 3.3 5.53 9.68 11.43 19.14 17.72 13.39 8.95 20.85 14.4 22.34 16.34 1.5 1.94 2.21 6.43 2.14 13.48-.07 5.53-.6 9.02-1.62 10.48-1.15 1.66-3.05 2.45-5.72 2.39-3.37-.06-5.43-2.7-6.19-7.91-.13-.95-.19-4.82-.19-11.62v-9.62h-34.1v7.34c0 12.7 1.31 22.12 3.91 28.28 5.71 13.59 18.85 20.39 39.43 20.39 8.82 0 16.35-1.72 22.56-5.15 7.24-4 12.16-10.09 14.77-18.28 1.84-5.71 2.73-13.75 2.67-24.1-.06-11.5-2.1-20.29-6.1-26.39-3.56-5.4-10.6-11.2-21.14-17.42Zm-202.76 40.66c0 10.48-.68 16.83-2.05 19.05-1.37 2.22-4.91 3.33-10.62 3.33V460.43c4.32 0 7.3.48 8.95 1.43 1.65.96 2.67 2.35 3.05 4.19.45 2.03.67 6.54.67 13.52v59.91Zm32-94.1c-4.83-5.52-13.5-9.01-26-10.47-4.7-.57-14.29-.85-28.76-.85h-30v154.19h50.56c10.04 0 17.21-.51 21.53-1.52 10.09-2.35 16.34-7.88 18.76-16.57 1.33-4.82 1.99-14.06 1.99-27.71v-54.01c0-12.44-.12-19.92-.37-22.47-.95-8.88-3.52-15.75-7.71-20.58ZM501.93 548.33c0 5.22-.1 8.38-.29 9.53-.7 4.25-2.48 6.35-5.33 6.29-2.93-.07-4.71-2.41-5.34-7.05-.19-1.14-.29-4.54-.29-10.19v-68.49c0-6.22.07-9.71.2-10.48.63-4.89 2.48-7.3 5.53-7.24 3.05.07 4.86 2.48 5.42 7.24.06.32.1 3.82.1 10.48v69.91Zm15.32-109.81c-6.54-3.17-13.94-4.73-22.18-4.66-8.79.05-16.17 1.83-22.19 5.27-.35.2-.7.38-1.05.59-.24.16-.47.32-.71.48-.5.32-1 .63-1.48.99-7.43 5.47-12.42 13.31-14.96 23.53-.77 3.03-1.35 6.73-1.76 11.03-.03.3-.05.63-.07.94-.42 4.78-.64 10.24-.64 16.49v38.86c0 21.97 3.01 37.12 9.05 45.43 6.67 9.14 18.48 13.65 35.43 13.52 3.68 0 7.24-.34 10.67-1.05 10.54-2.03 18.53-7.04 23.99-15.04 4.2-6.16 6.89-13.87 8.1-23.15.63-4.76.95-13.01.95-24.76v-37.14c0-10.41-.64-18.35-1.91-23.81-2.98-12.95-10.06-22.13-21.24-27.53Z" style="fill:#fff"/>
</svg>
