<svg xmlns="http://www.w3.org/2000/svg" viewBox="0 0 1024 1024">
   <circle cx="512" cy="512" r="512" style="fill:#0014a0"/>
   <path d="M767.89 339.78c-1.45 8-7.57 40.72-22.43 88.77-5.84 18.9-26.36 28.74-44.72 22.51-108.89-36.93-231-47.35-370.9-4.91-25.25 7.66-37.76 28.69-35.91 45.4.09.88-.31 1.19-.58.54A767 767 0 0 1 257.64 383c-5.53-22.45 3-49.08 34.52-58.71 147.81-45.13 315-42.63 474.18 12.89a2.31 2.31 0 0 1 1.55 2.6ZM397.94 442.64c-18.44 3.9-43.83 9.88-62.7 16.33-38 13-36.38 59.17-16 74 1.4-8.6 10.53-20.24 20.77-24.19a435.55 435.55 0 0 1 119.92-27.36 220 220 0 0 1-61.99-38.78Zm302.45 92.73c-109.87-52.61-242-56.41-351-14-17.94 7-29.36 28.93-17.93 49.79a804 804 0 0 0 67.09 102.44c-3.6-12.45 2.8-35.55 27.15-43 67-20.67 137.64-11.91 184.62 7a35.34 35.34 0 0 0 42.45-13.66c23.23-34.62 44.16-76.29 48.77-85.66a2 2 0 0 0-1.15-2.9ZM591.31 701c-12-3.42-41.71-26.8-53.24-38.34-7.3-7.29-17.94-17.68-29.32-30.13-25.58 0-50.61 2.65-77.29 11.06-24.52 7.73-26.92 36.51-16.17 51.25 18.47 22.74 31.16 35.16 51.71 56.33 21.41 22.06 59.5 22.62 81.52.48 16-16.15 25.86-26.74 43.95-47.21a2.09 2.09 0 0 0-1.16-3.44Z" style="fill:#fff"/>
</svg>
