<svg xmlns="http://www.w3.org/2000/svg" viewBox="0 0 1024 1024">
   <circle cx="512" cy="512" r="512" style="fill:#f50"/>
   <path d="M184.77 479.77a38.26 38.26 0 0 1 12.6-2H256v12.17h-40.39q-5.21 0-5.21 2.61v13.9H256v12.17h-45.6v28.68h-32.58v-60.83q0-4.17 7-6.7Zm128.63 46.68h28.87l-14.43-27.55-14.44 27.55Zm35.3-46.06q6 2.6 8.17 6.69l31.55 60.23h-35.19l-4.51-8.69h-41.79l-4.55 8.69h-18.25l31.37-59.88q2.25-4.26 8-6.95a28.91 28.91 0 0 1 12.56-2.7 31.53 31.53 0 0 1 12.69 2.61ZM429 488q-15.29 10.21-15.29 24.55T429 537.09q15.3 10.22 36.77 10.22h39.1v-12.17h-39.1q-10.18 0-13.73-8.6-1.92-4.69-1.91-14t1.91-14q3.56-8.6 13.73-8.61h39.1v-12.15h-39.1q-21.47 0-36.77 10.22Zm124.23-8.22q-7 2.53-7 6.7v52.15q0 4.18 7 6.69a38 38 0 0 0 12.59 2h58.67v-12.18h-40.4q-5.23 0-5.22-2.62v-13.9h45.64v-12.16h-45.64v-13.9q0-2.61 5.22-2.61h40.42v-12.17h-58.67a38.27 38.27 0 0 0-12.59 2Zm192.07-1.93h100.77V490h-28.81c-3.41 0-5.12.86-5.12 2.61v54.75h-32.89v-54.74c0-1.74-1.71-2.61-5.12-2.61h-28.81v-12.17ZM680 546.9v-38.07L715.12 523v23.75h-35.06v.14Zm35.7-97a.5.5 0 0 0-.94-.31c-8.93 13.71-14 21.55-18.49 28.65h-53.26c-.66 0-.93.86-.35 1.08 22.1 8.33 54 20.89 71.85 27.94.45.19 1.19-.25 1.19-.56v-56.77Z" style="fill:#fff"/>
</svg>
