<svg xmlns="http://www.w3.org/2000/svg" viewBox="0 0 1024 1024">
   <circle cx="512" cy="512" r="512" style="fill:#1a1919"/>
   <path d="M512.01 258c-144.44 0-261.56 92.91-261.56 207.53v92.93C250.45 673.08 367.57 766 512.01 766s261.53-92.93 261.53-207.54v-92.93C773.54 350.91 656.46 258 512.01 258Zm-84.9 307.46h-25.9v100.55h-24.1c-19.21 0-36.18-14.7-36.18-35.65V471.54c0-49.02 22.78-110.41 91.2-125.61 69.26-15.39 88.63 18.48 88.63 18.48s-43.34-.59-77.29 25.9c-19.33 15.08-41.59 48.33-42.27 86.14v46.71c42.76 8.19 76.98-6.02 87.08-10.51l1.73-.22s-3.07 53.03-62.91 53.03Zm267.48 18.56c0 50.8-37.5 85.99-91.08 85.99h-12.06c-57.15 0-96.44-32.08-96.44-76.19s31.25-75.3 119.67-75.3h20.98v-3.13c0-33.86-16.07-57.93-51.8-57.93-43.31 0-67.41 16.49-76.35 27.63h-2.23v-19.16c0-26.74 24.12-58.81 87.51-58.81 53.58 0 101.8 38.76 101.8 121.63V584Zm-79.92-22.72h21.43v23.16c0 24.51-12.5 36.99-38.4 36.99s-41.51-11.14-41.51-29.85 12.94-30.3 58.49-30.3Z" style="fill:#fff"/>
</svg>
