<svg xmlns="http://www.w3.org/2000/svg" viewBox="0 0 1024 1024">
   <circle cx="512" cy="512" r="512" style="fill:#1493ff"/>
   <path d="M497.71 369.15c7.73-25.01 17.59-50.02 29.38-74.53 1.42-3.05 0-6.41-3.66-6.51-85.71-1.83-171.01 18.61-246.76 61.11-3.36 1.83-4.68 4.78-4.68 8.74 1.53 163.59 87.64 319.56 230.39 406.49 1.93 1.22 4.07 1.22 5.39 0 1.22-1.22 1.22-2.75.41-4.78-14.23-37.82-25.01-77.68-31.11-117.23-.71-4.78-2.34-7.73-5.08-10.57-23.59-23.69-45.04-51.85-62.73-82.56 19.72-8.95 37.52-14.64 55.92-18.2 3.36-.61 4.88-2.64 5.19-5.59 1.12-25.93 3.97-51.75 8.13-77.07.41-2.85-1.12-5.29-4.68-4.78-32.94 3.97-66.6 12.91-98.52 27.65-6.61-21.86-11.69-44.63-14.64-67.92 40.87-16.98 85.4-27.35 131.16-29.69 3.25-.1 5.08-1.63 5.9-4.58Zm249.61-19.93a478.263 478.263 0 0 0-179.96-57.95c-3.25-.41-5.59.71-6.91 3.46a562.292 562.292 0 0 0-31.01 73.61c-.92 2.85 1.12 5.39 3.97 5.69a395.462 395.462 0 0 1 130.14 29.38c-13.32 105.74-68.73 198.67-147.73 260.99-2.64 1.93-3.36 4.58-2.64 7.83 5.59 25.01 13.32 50.84 22.77 76.36 1.12 2.85 4.27 3.86 6.81 2.14C673.41 661.16 750.88 512.92 752 358.07c.1-3.97-1.32-6.91-4.68-8.74v-.1Z" style="fill:#fff"/>
</svg>
