<svg xmlns="http://www.w3.org/2000/svg" viewBox="0 0 1024 1024">
   <circle cx="512" cy="512" r="512" style="fill:#fa005a"/>
   <path d="M417.32 224a10.264 10.264 0 0 0-10.756 10.26v233.7l-84.13-84.147a10.256 10.256 0 0 0-15.785 1.563 10.278 10.278 0 0 0-1.73 5.707v241.34a57.317 57.317 0 0 0 4.36 21.978 57.314 57.314 0 0 0 12.453 18.619l109.48 109.62a57.475 57.475 0 0 0 40.588 16.847h80.091a57.402 57.402 0 0 0 40.575-16.824l109.45-109.62a57.379 57.379 0 0 0 16.776-40.597V545.57a57.421 57.421 0 0 0-4.361-21.99 57.39 57.39 0 0 0-12.441-18.643l-277.82-277.94a10.267 10.267 0 0 0-6.757-2.99zm150.93 299.95a17.19 17.19 0 0 1 12.178 5.058l31.67 31.694a17.188 17.188 0 0 1 5.049 12.165v33.722a17.218 17.218 0 0 1-5.012 12.154l-88.248 88.7a17.2 17.2 0 0 1-18.819 3.763 17.241 17.241 0 0 1-5.602-3.763l-87.962-88.7a17.172 17.172 0 0 1-5.034-12.118v-33.746c0-2.262.453-4.5 1.318-6.589a17.21 17.21 0 0 1 3.744-5.578l31.667-31.695a17.15 17.15 0 0 1 5.587-3.743 17.181 17.181 0 0 1 13.186 0 17.206 17.206 0 0 1 5.59 3.743l44.286 44.338 44.222-44.349a17.19 17.19 0 0 1 12.18-5.058z" style="fill:#fff"/>
</svg>