<svg xmlns="http://www.w3.org/2000/svg" viewBox="0 0 1024 1024">
   <circle cx="512" cy="512" r="512" style="fill:#fa005a"/>
   <path d="M417.8 224c-5.7-.3-10.5 4.1-10.8 9.8v234.4L322.8 384c-4-4-10.5-4-14.5 0-.5.5-.9 1-1.3 1.6-1.1 1.7-1.7 3.7-1.7 5.7v241.6c0 7.5 1.5 15 4.4 22 2.9 7 7.1 13.3 12.5 18.6l109.6 109.7c10.8 10.8 25.4 16.8 40.6 16.9h80.2c15.2 0 29.8-6.1 40.6-16.8l109.5-109.7a57.37 57.37 0 0 0 16.8-40.6v-87c0-7.6-1.5-15-4.4-22-2.9-7-7.1-13.3-12.5-18.7L424.5 227c-1.8-1.8-4.2-2.9-6.7-3zm151.1 300.2c4.6 0 9 1.8 12.2 5.1l31.7 31.7c3.2 3.2 5.1 7.6 5.1 12.2V607c0 4.6-1.8 8.9-5 12.2L524.6 708c-4.9 5-12.4 6.5-18.8 3.8-2.1-.9-4-2.2-5.6-3.8l-88-88.8c-3.2-3.2-5-7.6-5-12.1v-33.8c0-2.3.5-4.5 1.3-6.6.9-2.1 2.1-4 3.7-5.6l31.7-31.7c1.6-1.6 3.5-2.9 5.6-3.7 4.2-1.8 9-1.8 13.2 0 2.1.9 4 2.1 5.6 3.7l44.3 44.4 44.3-44.4c3-3.4 7.4-5.2 12-5.2z" style="fill:#fff"/>
</svg>
