<svg xmlns="http://www.w3.org/2000/svg" viewBox="0 0 1024 1024">
   <circle cx="512" cy="512" r="512" style="fill:#9580ff"/>
   <path d="M228.78 404.27v-5.08c0-2.82-2.29-5.11-5.11-5.12h-9.79v-4.7c-.02-5.5 1.23-8.79 2.35-9.99l.05-.07a5.78 5.78 0 0 1 2.76-1.51c3.61-.58 7.27-.87 10.93-.85h1.88c2.82 0 5.11-2.29 5.11-5.11v-4.59c-.15-6.6-8.72-5.39-13.25-5.61h4.08c-9.07-.33-18.57.78-24.1 6.96-4.59 5.07-6.24 12.22-6.27 20.91v95.8c0 2.82 2.29 5.11 5.11 5.11h6.22c2.83 0 5.12-2.29 5.12-5.11v-75.95h9.79c2.83 0 5.12-2.29 5.11-5.11m412.87 13.1c1.32 3.73 1.96 7.67 1.88 11.63v56.32c0 2.82 2.29 5.12 5.11 5.12h6.07c2.83 0 5.12-2.29 5.11-5.12v-57.79c.61-19.05-10.19-35.53-30.62-35.08-10.48-.19-20.74 5.02-26.84 13.54-2.13-3.69-5.1-6.83-8.68-9.14a30.304 30.304 0 0 0-16.54-4.4c-8.11-.08-16.2 2.93-22.11 8.52v-1.77c0-2.82-2.29-5.12-5.11-5.12h-6.06c-2.82 0-5.12 2.28-5.12 5.1v86.15c0 2.82 2.29 5.12 5.11 5.12h6.06c2.82 0 5.11-2.29 5.12-5.11v-52.24c.14-8.95 4.38-18.35 12.27-23 2.49-1.39 5.31-2.09 8.16-2.01 12.33-.57 15.74 11.11 15.68 20.92v56.32c0 2.83 2.29 5.12 5.12 5.12h6.06c2.83 0 5.12-2.29 5.11-5.12v-52.23c.14-8.94 4.38-18.35 12.26-22.99 2.49-1.39 5.31-2.09 8.16-2.01 7.59-.01 11.4 3.21 13.79 9.29m-178.54 68.52a42.15 42.15 0 0 0 22.8 6.02h.1c7.87.17 15.63-1.84 22.43-5.82a37.902 37.902 0 0 0 14.86-17.34c3.38-7.5 4.95-16.37 4.95-26.5.73-26.07-13.8-50.45-42.23-49.82h-.1a42.374 42.374 0 0 0-22.51 5.91c-26.35 14.93-26.7 71.8-.29 87.54Zm3.95-69.6c2.06-2.65 4.74-4.75 7.81-6.12a27.82 27.82 0 0 1 11.11-2.09c3.72-.07 7.41.65 10.82 2.12 11.17 5.75 14.59 16.86 14.85 32.07-.29 15.55-3.43 26.55-14.59 32.08-10.07 4.21-23.68 2.22-29.82-6.36-9.54-10.54-9.25-41.56-.17-51.7m-94.03 69.03v-52.23c.01-12.49 10.01-25.5 23.22-25.01 13.58-.42 18.53 9.3 18.46 20.92v56.32c0 2.82 2.29 5.11 5.11 5.11h6.23c2.83 0 5.12-2.29 5.11-5.11v-57.8c.63-20.1-12.57-35.7-33.26-35.09-9.11-.12-18.19 3.28-24.87 9.49v-34.5c0-2.83-2.29-5.12-5.11-5.12h-6.06c-2.83 0-5.12 2.29-5.12 5.12v117.9c0 2.82 2.29 5.11 5.11 5.11h6.07c2.83 0 5.12-2.29 5.11-5.11m-32.15 5.76c3.94.17 9.71-.56 9.71-5.61v-4.58c0-2.82-2.29-5.12-5.11-5.12h-2.41c-2.35.05-4.69-.24-6.95-.86a5.732 5.732 0 0 1-2.77-1.49l-.06-.07c-1.12-1.2-2.36-4.49-2.35-9.99v-53.99h10.6c2.82 0 5.11-2.29 5.11-5.11v-5.08c0-2.83-2.29-5.12-5.11-5.12h-10.6V379.2c0-2.82-2.29-5.12-5.11-5.12h-6.22c-2.83 0-5.12 2.29-5.12 5.12v84c-.23 17.89 8.22 28.14 26.38 27.87m522.18 15.02a5.12 5.12 0 0 0-4.17-2.16h-6.22a5.11 5.11 0 0 0-4.83 3.43L809.01 618.7a5.11 5.11 0 0 0 3.15 6.51c1.02.54 6.71.19 7.91.28a5.12 5.12 0 0 0 4.83-3.43l38.81-111.34c.54-1.56.3-3.3-.66-4.65m-236.19 3.08h-6.06c-2.82 0-5.11 2.29-5.11 5.12v9.71c0 2.82 2.29 5.11 5.11 5.11h6.06c2.82 0 5.11-2.29 5.11-5.11v-9.71c0-2.83-2.29-5.12-5.11-5.12m0 35.31h-6.06c-2.82 0-5.11 2.29-5.11 5.11v70.8c0 2.82 2.29 5.11 5.11 5.11h6.06c2.83 0 5.12-2.29 5.12-5.11v-70.79c0-2.83-2.29-5.12-5.11-5.12m-22.44 66.37h-2.4c-2.35.05-4.69-.23-6.95-.85a5.732 5.732 0 0 1-2.77-1.49l-.06-.07c-1.12-1.2-2.36-4.5-2.35-10v-53.98h10.6c2.82 0 5.11-2.29 5.11-5.11v-5.08c0-2.83-2.29-5.12-5.11-5.12h-10.6v-14.86c0-2.82-2.29-5.12-5.11-5.12h-6.22c-2.82 0-5.12 2.29-5.12 5.11v84.01c.02 8.6 1.69 15.72 6.24 20.79 4.71 5.14 11.8 7.09 20.16 7.08 3.94.16 9.69-.58 9.7-5.61v-4.58c0-2.83-2.29-5.12-5.11-5.12m-41.34-81.7h-6.39c-2.1 0-3.98 1.28-4.75 3.22l-26.03 65.4-26.7-65.45a5.088 5.088 0 0 0-4.74-3.18h-6.71c-3.57-.07-6.15 3.8-4.73 7.07l34.08 82.39c-2.34 5.82-6.54 16.49-8.83 20.6-.98 2.03-2.25 3.91-3.77 5.58a5.09 5.09 0 0 1-2.63 1.45c-2.84.54-6 .49-8.89.47-2.83 0-5.12 2.29-5.12 5.12v4.91c.06 3.71 3.12 5.2 6.48 5.4 4.36.51 8.81.12 13.08-.85 3.22-.82 6.16-2.5 8.49-4.86 2.48-2.63 4.55-5.61 6.16-8.85 3.38-5.18 42.1-103.03 45.73-111.4 1.4-3.27-1.2-7.11-4.75-7.04m-91.7-31.77h-6.06c-2.82 0-5.12 2.29-5.12 5.11v117.9c0 2.82 2.29 5.11 5.11 5.11h6.07c2.82 0 5.11-2.29 5.11-5.11v-117.9c0-2.83-2.29-5.12-5.11-5.12m-147.53 45.76c13.57-.41 18.54 9.29 18.47 20.92v56.32c0 2.82 2.29 5.11 5.11 5.11h6.22c2.83 0 5.12-2.29 5.12-5.11v-57.79c.63-20.1-12.56-35.7-33.25-35.08-9.09-.12-18.19 3.18-24.89 9.36v-2.61c0-2.83-2.29-5.12-5.11-5.12h-6.06c-2.83 0-5.12 2.29-5.12 5.12v86.13c0 2.82 2.29 5.11 5.11 5.11h6.07c2.83 0 5.12-2.29 5.11-5.11v-52.23c.01-12.49 10.01-25.5 23.22-25.01m-115.36 80.71c15.49 6.52 34.54 2.96 46.28-9.17.46 2.98 1.47 5.86 2.98 8.47a5.082 5.082 0 0 0 4.36 2.44l2.99-.03c2.8-.03 5.06-2.31 5.06-5.11v-54.82c.28-22.36-12.01-38.36-35.73-38.03-12.8-.32-26.55 4.71-33.34 16.1-1.58 2.41-.26 5.88 2.45 6.76l5.02 1.79a7.15 7.15 0 0 0 7.95-2.25c3.92-4.71 8.5-6.59 17.25-6.77 13.7-.29 19.76 7.13 20.07 22.08-14.93.33-26.58.74-40.1 5.25h-.02l-.06.02h-.01c-6.6 2.05-12.06 5.25-15.89 9.84a26.68 26.68 0 0 0-5.78 17.53v.17a28.25 28.25 0 0 0 4.35 15.67c2.96 4.49 7.19 8 12.15 10.08m41.66-26.66c-4.79 8.39-13.88 14.63-23.74 14.4-8.46-.21-13.77-2.04-16.88-8.04-.76-1.85-1.13-3.84-1.09-5.84.27-5.69 1.8-8.7 7.99-11.76 8.94-4.28 26.27-5.53 37.45-5.65.27 5.84-.62 11.85-3.73 16.89m180.1-64.88c-5.54-3.26-12.25-4.72-19.87-4.72-12.79-.32-26.55 4.71-33.34 16.1-1.58 2.41-.26 5.88 2.45 6.76l5.02 1.79a7.15 7.15 0 0 0 7.95-2.25c3.95-4.69 8.5-6.59 17.26-6.76 13.7-.29 19.76 7.13 20.07 22.08-14.93.33-26.59.74-40.12 5.26l-.06.02h-.01c-6.6 2.05-12.06 5.25-15.89 9.84a26.672 26.672 0 0 0-5.77 17.51c-.29 32.79 44.09 37.08 62.79 16.75.46 2.98 1.47 5.86 2.98 8.47a5.082 5.082 0 0 0 4.36 2.44l3-.03c2.8-.03 5.06-2.31 5.06-5.11v-54.82c.24-12.69-4.24-26.75-15.87-33.31m-4.17 64.88c-4.79 8.39-13.88 14.63-23.74 14.4-8.46-.21-13.77-2.04-16.88-8.04-.76-1.85-1.13-3.84-1.09-5.84.27-5.69 1.8-8.7 7.99-11.76 8.94-4.28 26.27-5.53 37.45-5.65.27 5.84-.62 11.85-3.73 16.89M231.43 478.68c6.25 9.8 18.47 13.49 29.59 13.29 10.74-.12 21.31-4.76 28.85-12.38.46 2.98 1.47 5.86 2.98 8.47a5.082 5.082 0 0 0 4.36 2.44l3-.03c2.8-.04 5.04-2.32 5.04-5.11v-54.82c.28-22.36-12.01-38.36-35.74-38.03-12.79-.32-26.54 4.71-33.33 16.11-1.59 2.41-.26 5.88 2.45 6.76 1.67.48 5.67 2.33 7.4 2.2 3.12.13 5.22-2.15 7.09-4.33 3.29-3.19 8.16-5.07 15.75-5.1 13.7-.29 19.76 7.13 20.07 22.08-14.93.34-26.58.73-40.1 5.25h-.02l-.06.02h-.01c-6.6 2.05-12.06 5.25-15.89 9.84a26.672 26.672 0 0 0-5.77 17.51v.17a28.25 28.25 0 0 0 4.35 15.67m53.8-16.57c-4.79 8.4-13.88 14.63-23.74 14.4-8.46-.21-13.77-2.04-16.88-8.04-.76-1.85-1.13-3.84-1.09-5.84.27-5.69 1.8-8.7 7.98-11.76 8.94-4.28 26.27-5.53 37.45-5.65.27 5.84-.62 11.85-3.73 16.89m417.03 144.39c-9.13 7.7-27.31 6.52-34.29-3.38-4.51-5.66-7.08-14.05-7.08-25.66.29-15.61 3.35-26.7 14.42-32.24 3.46-1.45 7.18-2.15 10.92-2.08a23.36 23.36 0 0 1 15.56 5.21c2.24 1.88 4.08 4.19 5.42 6.8a4.131 4.131 0 0 0 5.02 2.07l7.69-2.68c2.15-.76 3.26-3.12 2.5-5.27-6.11-13.99-21.28-22.22-36.26-21.76a41.316 41.316 0 0 0-22.21 5.93 38.16 38.16 0 0 0-14.65 17.32c-3.34 7.48-4.86 16.4-4.86 26.73-.74 26.05 13.74 50.01 42.06 49.49h.16c9.2.2 18.21-2.63 25.64-8.06 5.6-4.37 9.81-10.27 12.13-16.99.78-2.14-.35-4.52-2.51-5.26l-7.52-2.62c-2.05-.73-4.32.29-5.13 2.31a23.382 23.382 0 0 1-7.01 10.14m102.46-24.91c-10.57-14.45-30.71-10.99-46.02-15.63-2.27-.6-4.32-1.84-5.92-3.57-1.99-1.76-2.45-8.52-.84-11.72 3.04-5.79 7.61-7.46 16.32-7.69 6.21.03 10.66 1.59 14.24 4.55 2.6 2.34 4.5 5.36 5.47 8.72a4.08 4.08 0 0 0 5.21 2.53l7.71-2.69a4.091 4.091 0 0 0 2.56-5.13c-.98-2.98-2.36-5.81-4.1-8.42a32.188 32.188 0 0 0-13.22-11.44 41.72 41.72 0 0 0-17.69-3.58h-.04c-17.1-.69-33.87 10.26-33.59 28.63-.02 5.7 1.15 10.84 4.07 14.91 10.57 14.19 30.54 10.48 45.58 15.46 2.3.71 4.37 2.01 6 3.79 2.12 1.9 2.4 9.27.67 12.63-3.47 6.67-8.9 8.68-18.79 8.91-11.21-.07-19.02-4.42-22.96-13.85a4.058 4.058 0 0 0-5.1-2.24l-7.5 2.61c-2.19.74-3.32 3.19-2.48 5.34 10.88 32.7 74.2 31.74 74.45-6.99.01-5.81-1.14-11.01-4.04-15.15" style="fill:#fff"/>
</svg>
