<svg xmlns="http://www.w3.org/2000/svg" viewBox="0 0 1024 1024">
   <circle cx="512" cy="512" r="512"/>
   <path d="M512 240c-150.22 0-272 121.78-272 272s121.78 272 272 272 272-121.78 272-272-121.78-272-272-272ZM314.05 642.98c-24.91-37.53-39.38-82.57-39.38-130.98s14.47-93.45 39.38-130.87v261.85Zm377.23 24.4v-117.4h54.97c-7.18 44.59-26.64 84.87-54.97 117.4Zm58.2-152.14h-75.61c-.34 0-.5.06-.84.06s-.5.01-.84.06-.56.05-.84.11c-.34.06-.56.11-.84.17-.34.11-.56.16-.84.22-.34.05-.56.11-.84.22-.34.06-.55.16-.84.28s-.51.23-.79.34c-.34.12-.51.23-.79.34-.34.06-.57.17-.79.34-.28.11-.51.28-.73.39-.28.05-.51.22-.73.39-.34.11-.51.28-.73.45-.28.16-.45.33-.67.5-.28.16-.45.33-.67.5-.28.28-.4.45-.62.62-.28.23-.45.4-.62.62-.16.28-.33.45-.5.67-.11.28-.34.45-.45.67-.11.28-.28.51-.45.73-.11.28-.28.51-.39.73-.11.28-.28.45-.39.73-.06.34-.23.57-.34.79-.12.29-.23.51-.34.79-.11.34-.17.56-.28.84-.11.34-.17.56-.28.84-.05.34-.16.5-.22.84s-.11.56-.17.84c-.06.34-.11.56-.17.84-.05.34-.11.5-.11.84s-.06.5-.06.84v168.23a237.893 237.893 0 0 1-44.82 27.21V561.02c9.76-5.78 16.27-16.43 16.27-28.55 0-18.4-14.81-33.21-33.21-33.21s-33.21 14.87-33.21 33.21c0 11.36 5.82 21.93 15.43 27.99v179.67c-20.7 5.89-42.58 9.03-65.13 9.03-24.59 0-49.03-3.76-72.47-11.16.11-.79.17-1.51.17-2.3V601.07h40.61c5.83 9.65 16.38 16.1 28.44 16.1 18.4 0 33.21-14.81 33.21-33.21s-14.87-33.21-33.21-33.21c-11.83 0-22.27 6.23-28.1 15.54h-58.62c-.34 0-.56.06-.84.06-.34.05-.5.11-.84.11s-.56.05-.84.11c-.34.06-.56.11-.84.17-.34.05-.56.16-.84.22-.34.05-.5.11-.84.22-.34.11-.56.17-.84.28-.29.12-.51.23-.79.34-.34.12-.51.28-.79.34-.34.06-.51.23-.79.34-.28.11-.51.22-.73.39-.28.05-.51.22-.73.39-.28.11-.45.28-.67.45-.28.16-.45.33-.67.5-.28.16-.45.33-.67.5l-.62.62c-.16.23-.33.4-.5.62-.16.28-.33.45-.5.67-.11.28-.28.45-.45.67-.11.34-.28.51-.45.73-.11.28-.22.51-.39.73-.11.28-.28.45-.39.73-.06.34-.23.57-.34.79-.12.29-.23.51-.34.79-.06.29-.17.45-.28.79s-.23.5-.28.84-.16.56-.22.84c-.06.34-.11.56-.17.84-.06.34-.11.56-.17.84-.05.34-.11.5-.11.84s-.06.5-.06.84v141.02a239.956 239.956 0 0 1-56.37-39.71c.06-.33.06-.61.06-.95V358.8h187.58c5.83 9.65 16.38 16.1 28.44 16.1 18.35 0 33.21-14.75 33.21-33.15s-14.87-33.21-33.21-33.21c-11.83 0-22.27 6.23-28.1 15.54h-169.6c40.05-30.96 90.48-49.41 145-49.41s104.73 18.39 144.78 49.47c-.06.5-.06 1.07-.06 1.57v87.39H422.1c-.34 0-.5.06-.84.06s-.5.06-.84.06-.56.05-.84.11c-.34.06-.5.12-.84.17-.34.05-.5.17-.84.22-.34.05-.56.16-.84.22-.34.06-.55.16-.84.28-.29.12-.51.23-.79.34-.34.12-.45.28-.79.34s-.51.23-.79.34c-.28.11-.51.22-.73.39-.28.05-.51.22-.73.39-.28.11-.45.28-.67.45-.28.16-.45.33-.67.5-.28.16-.45.28-.67.5l-.62.62c-.16.23-.33.4-.5.62-.16.28-.33.45-.5.67-.11.28-.28.45-.45.67-.11.28-.28.51-.45.73-.11.28-.22.45-.39.73-.11.34-.28.51-.39.79-.06.34-.23.57-.34.79-.12.29-.23.51-.34.79-.06.29-.17.45-.28.79-.11.34-.23.5-.28.84-.05.34-.16.5-.22.84-.06.34-.11.5-.17.84-.06.34-.12.5-.17.84-.05.34-.11.5-.11.84s-.06.56-.06.84v53.91a33.096 33.096 0 0 0-15.43 28.05c0 18.4 14.7 33.26 33.1 33.26s33.21-14.87 33.21-33.21a33.1 33.1 0 0 0-16.16-28.5v-35.28h235.09c.4 0 .56 0 .9-.06.4-.05.62-.05.9-.11.34-.06.56-.11.84-.17.34-.06.56-.11.84-.17.34-.05.5-.11.84-.22s.5-.16.84-.28.55-.22.84-.34.51-.23.79-.34c.34-.06.51-.23.79-.34.34-.11.51-.22.79-.39.28-.05.51-.22.73-.39.34-.11.51-.28.73-.45.28-.16.45-.33.67-.5.28-.16.45-.28.67-.5.23-.28.4-.45.62-.62.28-.23.45-.4.62-.62.16-.28.33-.45.5-.67.16-.28.33-.45.5-.67.11-.28.28-.51.45-.73.11-.28.22-.45.39-.73.11-.34.33-.51.39-.79.06-.34.23-.51.34-.79.12-.29.22-.45.34-.79.12-.34.23-.5.34-.84.11-.34.17-.56.28-.84.05-.34.16-.56.22-.84.06-.34.11-.56.17-.84.06-.34.11-.56.17-.84.05-.34.11-.5.11-.84 0-.4.06-.62.06-.9v-74.72c36.07 41.62 57.89 95.92 57.89 155.32v3.31Z" style="fill:#fff"/>
</svg>
