<svg xmlns="http://www.w3.org/2000/svg" viewBox="0 0 1024 1024">
   <circle cx="512" cy="512" r="512"/>
   <path data-name="Filen logo (vector remake by krisu)" d="M512 244.5c-147.74 0-267.5 119.76-267.5 267.5S364.26 779.5 512 779.5 779.5 659.74 779.5 512 659.74 244.5 512 244.5zM271.91 512a238.56 238.56 0 0 1 18.86-93.44l.27-.63v188.14l-.27-.63A238.56 238.56 0 0 1 271.91 512zm299.76 232.63V555.82a31.86 31.86 0 1 0-24.53 0v193.72a242.77 242.77 0 0 1-35.14 2.55 238.56 238.56 0 0 1-93.44-18.86q-5.71-2.42-11.27-5.12V583.5h51.6a26.39 26.39 0 1 0 .14-24.74h-76.48v155.5a242.53 242.53 0 0 1-66.77-63.85V373.59a239.91 239.91 0 0 1 14.85-18.91h188.92a24.6 24.6 0 1 0-.08-24.74h-164a240.41 240.41 0 0 1 250-39.18q8.83 3.74 17.29 8.15v116.75H382.55v66.77a27.21 27.21 0 1 0 24.74.12v-42.16h240.22V313.74a241.36 241.36 0 0 1 85.76 104.81A238.56 238.56 0 0 1 752.09 512v2H622.73v24.74h.1V725q-8.5 4.43-17.39 8.2a238.33 238.33 0 0 1-33.77 11.43zm110.09-62.86a241.19 241.19 0 0 1-34.41 28.56V538.76h103.27a239.22 239.22 0 0 1-68.85 143z" style="fill:#fff"/>
</svg>
