<svg xmlns="http://www.w3.org/2000/svg" viewBox="0 0 1024 1024">
   <circle cx="512" cy="512" r="512" style="fill:#0c0243"/>
   <path d="M610.94 372.56c-36.44 0-59.03 9.38-79.3 33.85L419.98 538.12c-21.32 24.04-30.37 20.85-65.62 21.07v.06c-51.38-1.24-77.83 7.45-101.22 30.82l-61.13 61.37h185.27c45.59 0 66.96-8.77 91.6-37.14l39.93-49.14h86.01c14.16 0 26.19-2.04 36.85-5.94 15.41-5.64 27.95-15.14 39.9-27.91l29.92-36.25h-149.4s22.76-27.96 24.88-30.42c3.71-4.19 6.95-5.8 13.63-5.8h115.37c34.39 0 63.33-8.27 86.8-35.87l39.25-50.41H610.96Z" style="fill:#fff"/>
</svg>
