<svg xmlns="http://www.w3.org/2000/svg" viewBox="0 0 1024 1024">
   <circle cx="512" cy="512" r="512" style="fill:#c11f1f"/>
   <path d="M201.74 588.59v-69.4H253v-25.26h-51.26V456.4h68.55v-25.26h-97.85v157.58h29.31Zm78.11-157.7h26.36v157.58h-26.35Zm85.22 41.94c-30 0-48.07 22.93-48.07 59s18 59 48.07 59 48.07-22.93 48.07-59-18.02-58.99-48.06-58.99Zm0 96.14c-14.71 0-21.7-11.77-21.7-37.16s7-37.16 21.7-37.16 21.7 11.77 21.7 37.16S379.8 569 365.08 569ZM486 475v82c-4.41 5.27-13.24 12-24.65 12-9 0-13.61-4.78-13.61-20.11V475h-26.5v77.74c0 23.18 10.67 38 32.74 38 13 0 24.28-7.48 34.09-14.35v12.26h24.28V475.17H486Zm67.69 113.55v-69c0-2.82 11.53-18.39 24.65-18.39a25.3 25.3 0 0 1 4.66.25v-28.57c-15.7.49-24.65 8.09-31 21.58h-.37V475h-24.32v113.59h26.36ZM618.3 475h-26.36v113.59h26.36Zm0-21v-25.19h-26.36v25.26Zm89.76 36.05c-9.56-11.53-24.28-17.29-39-17.29-19.13 0-36.54 11.77-36.54 33 0 39.49 55.3 32.5 55.3 52 0 7.6-6.38 12.88-15.7 12.88-11.28 0-19.62-7.6-25.75-16.43l-17.66 13.49c9.81 14.84 24.28 22.93 41.94 22.93 23.18 0 40.59-10.42 40.59-34.09 0-41.45-55.3-33.23-55.3-52.61 0-6.74 4.66-11.16 14.84-11.16 8.34 0 15.33 6.13 20.6 12l16.68-14.71Zm39.85 98.47v-81.84c4.41-5.27 13.24-12 24.65-12 9 0 13.61 4.78 13.61 20.11v73.82h26.36v-77.76c0-23.18-10.67-38-32.74-38-13 0-23.79 7.48-31.88 14.35v-56.3h-26.36v157.57h26.36ZM882.8 421.95l25.26 7.48-.86 4.66-26.36-2.94 20.48 16.68-2.45 3.68-23.05-12.63 12.26 23.3-3.56 2.45-16.68-20.36 2.7 26.12-4.41.86L858.4 446l-7.48 25.26-4.66-.86 2.7-26.12-16.43 20.36-3.8-2.45 12.51-23.3-23.18 12.61-2.45-3.68 20.6-16.68-26.37 2.86-.84-4.7 24.89-7.48-24.89-7.48.86-4.66 26.36 2.82-20.6-16.68 2.45-3.68 23.18 12.63-12.51-23.3 3.8-2.45L849 399.38l-2.7-26.12 4.66-.86 7.48 25.26 7.73-25.26 4.41.86-2.7 26.12L884.52 379l3.56 2.45-12.26 23.3 23.05-12.63 2.45 3.68-20.48 16.92 26.36-2.82.86 4.66c0-.09-25.26 7.39-25.26 7.39Z" style="fill:#fff"/>
</svg>
