<svg xmlns="http://www.w3.org/2000/svg" viewBox="0 0 1024 1024">
   <circle cx="512" cy="512" r="512" style="fill:#24165b"/>
   <path d="M508.51 259.09h-.26a37.08 37.08 0 0 0-16.52 5.82c-7.64 4.91-13.47 12.24-17.77 20.2q-1.07 2-2 4.05a99.8 99.8 0 0 0-4.46 11.62q-1.29 4.13-2.26 8.35-1.22 5.31-2 10.71-1 6.85-1.44 13.77-.27 4.39-.35 8.79-.13 5.06.19 10.11a153.18 153.18 0 0 0 3.66 23.38 272.39 272.39 0 0 0 8.37 28.61q6.2 17.66 13.88 34.75 9.45 21.14 20.45 41.5l.55 1Zm28.62.59 2.78 2c8.28 6.51 14.4 15.44 18.78 25a100.91 100.91 0 0 1 4.73 12.51 150 150 0 0 1 5.91 34.72q.26 4.38.32 8.76a111.82 111.82 0 0 1-.55 14.33 159.24 159.24 0 0 1-2.71 17c-1.39 6.55-3.09 13-5 19.43q-3.87 12.83-8.72 25.34-4.39 11.38-9.34 22.53-8.92 20-19.24 39.35 15.18-15.65 29.21-32.37 12.91-15.32 24.36-31.79a258.14 258.14 0 0 0 16.89-27.79q3.38-6.51 6.16-13.31a111.63 111.63 0 0 0 3.88-11.14 72.44 72.44 0 0 0 2.69-14.15 62.57 62.57 0 0 0 .13-6.44q-.07-3.46-.35-6.91a93.13 93.13 0 0 0-5.73-25.69 78.12 78.12 0 0 0-29.47-37A91.65 91.65 0 0 0 552.1 264Zm-195.86 43.84A100.82 100.82 0 0 0 240.5 404.29v219.85a100.59 100.59 0 0 0 36.92 77.94c8.72 1 22.18 4 42.51-12.53L421 600.65a11.17 11.17 0 0 1 14.07 0l72.74 59.81 25.83-21.23a11.17 11.17 0 0 1 14.07 0l79.5 65.36c9.59 7.26 22 15.84 50.63 20.32h4.92A100.82 100.82 0 0 0 783.5 624.14V404.29a100.82 100.82 0 0 0-100.77-100.77h-62.52l1.18 3 .9 2.66 2.63 9.59a4.58 4.58 0 0 1 .12.52l2.05 13 .41 4.5.33 5.79v1.2l-.12 6.47-.11 1.72-.35 2.79-1.77 10.24-.43 1.89-4.16 13q-.06.19-.14.37l-3.86 9.35-.14.31L611.7 400l-8.82 15.36-4.68 7.16-5.62 8.4-4 5.43-7.85 10.49-5.34 6.72-7.9 9.62-5.49 6.48-8.51 9.58-5.48 6-15.83 16.53-3.68 3.64 2.17 1.85a96.5 96.5 0 0 1 8.65 9.06q1.21 1.47 2.34 3t2.32 3.36q1.13 1.78 2.12 3.65a41.89 41.89 0 0 1 1.88 4.09 36.46 36.46 0 0 1 2.44 10l.14 2.6a37.39 37.39 0 0 1-2.68 14.54 36 36 0 0 1-11.31 15 37.54 37.54 0 0 1-5.61 3.62 40.16 40.16 0 0 1-14.68 4.36 42.54 42.54 0 0 1-9.28-.08 41 41 0 0 1-8.52-1.94 38.56 38.56 0 0 1-7.54-3.56 36.64 36.64 0 0 1-7.57-6.17 36 36 0 0 1-7.18-11.26 37.42 37.42 0 0 1-2.66-12.91v-3.14a36.2 36.2 0 0 1 2.33-10.62 42.22 42.22 0 0 1 1.73-3.91 54.9 54.9 0 0 1 4.31-7q1.58-2.19 3.33-4.26a98.8 98.8 0 0 1 7.75-8.1l1-.91 1.61-1.35-8-8-4.86-5-12.29-13.22-3.06-3.35-14.91-17.43-4.22-5.23-13.06-17-1.45-2-10-14.78-2.75-4.45-7.19-12.34-2.2-4-6.22-13.13-1.17-3-3.58-10-1.37-4.75-1.06-4.39-.89-4.76-.7-5.29-.28-3.38-.12-5.77v-1.21l.17-3.45 1.24-12.58.39-2.21 2.78-12.61.66-2.1 2.1-6.13.11-.26Zm170.41 221.15a3 3 0 0 0-1.2.55l-.8.72q-1.68 1.56-3.26 3.23a57.26 57.26 0 0 0-4.57 5.43q-.66.91-1.25 1.86t-1 1.83a15.85 15.85 0 0 0-1.21 3.22 9.36 9.36 0 0 0-.23 1.53l.06 1.91q.07.63.19 1.25a11.17 11.17 0 0 0 3.7 6.35l1.62 1.19a13.75 13.75 0 0 0 2.72 1.27 15.53 15.53 0 0 0 2.86.7l2.08.19 2.47-.08a15.44 15.44 0 0 0 6.57-2.16 11.41 11.41 0 0 0 5.41-8.88v-2a11.13 11.13 0 0 0-.79-3.1 17.15 17.15 0 0 0-.77-1.68q-.49-.93-1.06-1.83a42 42 0 0 0-2.86-3.88q-1.21-1.46-2.51-2.85-1.83-1.95-3.8-3.76l-.53-.47a5.55 5.55 0 0 0-.56-.37l-.64-.19Zm138.25 53a23.87 23.87 0 1 1-23.87 23.87 24.22 24.22 0 0 1 23.87-23.85Zm-108.87 84.1-69 58.09a22.12 22.12 0 0 1-14.07 5h167.17a22.44 22.44 0 0 1-14.15-5Z" style="fill:#fff"/>
</svg>
