<svg xmlns="http://www.w3.org/2000/svg" viewBox="0 0 1024 1024">
   <circle cx="512" cy="512" r="512" style="fill:#27aae1"/>
   <path data-name="Forward Email logo (monochrome version by krisu)" d="M616.57 421.39a5.55 5.55 0 1 1-5.7-5.7 5.72 5.72 0 0 1 5.7 5.7zm106 119.06c-.07 1-.88 7.56-2.27 17.88v.79a250.58 250.58 0 0 1-7.58 51.61l.09-.58-.28 1.3.19-.73c-11.49 74.55-30.86 181.56-46.43 181.64-32.53.15-16.27-44-16.27-44s-50.22 14.5-136.88 15.06h-2.33C424.17 762.86 374 748.36 374 748.36s16.26 44.16-16.27 44c-15.76-.08-35.42-109.69-46.85-184.32a251.36 251.36 0 0 1-6.88-46.93c-1.63-11.92-2.57-19.53-2.65-20.66-5.87-84.57-8.91-292.44 209.46-308.71a7.49 7.49 0 0 1 1.16-.1h.12a8.55 8.55 0 0 1 1 .1C731.54 248 728.49 455.88 722.62 540.45zm-245.79-51a5.08 5.08 0 0 0 .89 2.88c.4.59 10 14.4 34 14.4 21.54 0 33.19-13.4 33.67-14a5.09 5.09 0 1 0-7.72-6.62c-.09.1-9.26 10.4-25.95 10.4-17.81 0-24.91-9-25.62-10a5.09 5.09 0 0 0-9.28 2.88zM439.42 523a15.08 15.08 0 0 0-3.94 1.91c-.4.27-.79.57-1.17.87a15.49 15.49 0 0 0-2.05 2.06c-.31.37-.6.76-.87 1.17a15.19 15.19 0 0 0-1.4 2.56 14.83 14.83 0 0 0-1.19 5.84v86.32l31.4 18.59c10.86-3.68 16.58-7.74 19.81-2.88 4.73 7.11-1 8.14-4.32 12l36.89 21.85 36.26-21.47v-.05c-3.22-4.18-9.43-5.06-4.58-12.37 3.29-4.95 9.15-.66 20.36 3.07l31.55-18.69v-86.46a15.11 15.11 0 0 0-15.08-15H443.88a14.89 14.89 0 0 0-4.46.68zM567 643.2c10.64 3.21 25.68 5.43 47.08-.21v-27.57zm46.13-29.46c-2-1.75-7.05-5.83-14-11.28l-1-.82v21zm-202 1.67v27.81c21.33 5.46 36.26 3.06 46.79-.19zm15.8 7.13v-20.78l-.89.7-.23.2C419 608 414 612 412 613.75zm-7.35-173.71a19.45 19.45 0 1 0-19.43-19.45 19.58 19.58 0 0 0 19.38 19.46zm194.49 257.63c-35.81 4.64-71.25-1.82-71.58-11.86-.25-7.6 7-5.43 6.58-11.77-.62-8.56-14.79-4.15-13.8-14.16.81-8.11 14.73-3 15.27-11a8.6 8.6 0 0 0-.73-4.31l-37.23 22-37.9-22.37a8.47 8.47 0 0 0-.92 4.71c.54 8 14.46 2.91 15.27 11 1 10-13.19 5.6-13.81 14.16-.46 6.34 6.84 4.17 6.58 11.77-.33 10-35.2 16.39-70.71 12v6.31a12.43 12.43 0 0 0 12.33 12.38h178.27a12.47 12.47 0 0 0 12.37-12.38v-6.42zm8.84-277.08a19.43 19.43 0 1 0-19.43 19.45 19.57 19.57 0 0 0 19.43-19.45zM475.4 597.17a37 37 0 1 1 37 37 37.18 37.18 0 0 1-37-37.04zm16.6-11.8s1.36 32.23 20.39 32.23 20.39-32.23 20.39-32.23l-20.39-8.69zm20.57 89.95zM428.06 427.1a5.71 5.71 0 1 0-5.53-5.71 5.74 5.74 0 0 0 5.53 5.71zm82.51 180.47L525 592.86l-2.58-3.4-11.76 9.69-4.85-3.53-3.37 3 8.07 9z" style="fill:#fff"/>
</svg>
