<svg xmlns="http://www.w3.org/2000/svg" viewBox="0 0 1024 1024">
   <circle cx="512" cy="512" r="512" style="fill:#bf2032"/>
   <path d="M644.57 396.14q17.45 0 25.7 9t8.25 28.22v64.86h-22.74v-10.94a31.59 31.59 0 0 1-10.53 10 26.55 26.55 0 0 1-13.37 3.51q-12.14 0-19-7.77c-4.56-5.18-6.77-12.57-6.77-21.8q0-15 10-23.61t28.54-10.15l10.25-.76v-5.87q0-8.9-2.66-13.07c-1.78-2.78-4.61-4.18-8.53-4.18q-5.31 0-8.15 3.22c-1.89 2.15-3.22 5.56-4 10.25l-22.38-1.9q2.28-14.8 10.94-21.91c5.76-4.75 14-7.11 24.48-7.11zm10.25 56.32-7.58.76c-5.69.51-10.09 2.15-13.25 4.93s-4.65 6.51-4.65 11.19c0 4.17.88 7.37 2.67 9.57s4.35 3.32 7.77 3.32a13 13 0 0 0 10.91-5.41q4.08-5.41 4.08-14.7v-9.67zm-145.46-56.32q17.83 0 26.84 12.32t9 36.41v9.67h-50.83c.25 19.22 5.18 28.82 14.6 28.82 3.8 0 6.63-1.16 8.53-3.5s3.16-6.29 3.8-11.86h23.52q-1.53 16.31-10.71 24.75t-25.51 8.44q-19.71 0-29.2-12.67c-6.32-8.47-9.48-21.4-9.48-39s3.34-30.72 10-39.82 16.52-13.59 29.41-13.59zm-.77 17.45a10.6 10.6 0 0 0-10 6q-3.21 6-4 19.82h26.93q0-13.48-3.13-19.58c-2.1-4.06-5.34-6.16-9.77-6.16zm-82.29-17.45q17.83 0 26.84 12.32t9 36.41v9.67h-50.83c.25 19.22 5.18 28.82 14.6 28.82 3.8 0 6.63-1.16 8.53-3.5s3.17-6.29 3.8-11.86h23.52q-1.53 16.31-10.71 24.75t-25.51 8.44q-19.71 0-29.2-12.67c-6.32-8.47-9.48-21.4-9.48-39s3.34-30.72 10-39.82 16.51-13.65 29.4-13.65zm-.77 17.45a10.6 10.6 0 0 0-10 6q-3.21 6-4 19.82h26.93q0-13.48-3.13-19.58c-2.1-4.06-5.34-6.16-9.77-6.16zM256 362.91v135.41h26.75v-55h42v-23.9h-42V386.8h45.13v-23.89zm78.9 135.2v-99.05h24.27v13.28a31.84 31.84 0 0 1 9.48-11.1 19.82 19.82 0 0 1 11.52-3.89 28 28 0 0 1 6.82 1l-2.84 22.76a29.76 29.76 0 0 0-7.4-.76 15.84 15.84 0 0 0-12 5.13 17.82 17.82 0 0 0-4.84 12.7v59.93h-25zm229.28 0V386.6h-30.73v-23.9h88.2v23.9h-30.74v111.52zm177.33 0-16.31-32.62-15.55 32.62H685l27.87-50.26-26.17-48.74h26.49l14.22 30 14.6-30h24.66l-26.93 47.42L768 498.11zm-224.18 24.36H485.9l-37.55 135.41h26.17l7.39-30.72h37.93l7 30.72h27.07zM487 605.11l14-59 13.65 59zm-166.34-82.64h26.74v86.86q0 25.22-11.75 38.6t-34 13.37q-22.19 0-34-13.37T256 609.33v-86.86h26.74v88.76q0 13.28 4.65 19.72c3.09 4.28 7.87 6.45 14.32 6.45s11.21-2.15 14.29-6.4 4.65-10.87 4.65-19.72v-88.81zm69.79 75.67q-16.11-4.73-23.7-14.32t-7.59-25.13q0-18 11.76-28.82T402 519.06q18.4 0 28.64 9.29T443.55 557l-25.42 3.42q-1.9-10.63-5.68-15.09t-11.19-4.46q-7.39 0-11.39 4.26c-2.66 2.84-4 7-4 12.67q0 7 3 10.91t10.44 6.16l14.41 4.61q11.56 3.61 18.58 9a32.36 32.36 0 0 1 10.25 13.19c2.17 5.18 3.22 11.39 3.22 18.59q0 19-11.66 30.06c-7.77 7.39-18.31 11-31.71 11-28.2 0-43.19-14.67-45.15-44h26.56c.58 7.72 2.43 13.34 5.4 16.87s7.49 5.31 13.56 5.31c5.18 0 9.2-1.55 12.09-4.65s4.26-7.56 4.26-13.37c0-5.18-1.17-9.29-3.46-12.32s-6-5.3-11.09-6.82l-14-4.17zm177 4.43h200.58V578h-207.6zm-15.66-54.75H768v-24.59H544.78zm24.78 86.88 7 24.59H768V634.7z" style="fill:#fff"/>
</svg>
