<svg xmlns="http://www.w3.org/2000/svg" viewBox="0 0 1024 1024">
   <circle cx="512" cy="512" r="512" style="fill:#605270"/>
   <path d="M587.74 595.27s-54.29 6.76-54.29-34.5v-61.59c0-.53-.06-1.07-.06-1.59v-.17c0-12.72-4-54.23-54.3-54.25a54.31 54.31 0 0 0 0 108.62c28.64 0 44.25-21.19 46.91-23.24v32.16c0 20.66-22.38 33.79-50.35 33.79-54.44 0-95.31-42.59-95.31-97a98.84 98.84 0 0 1 98.74-98.72c59 0 98.66 39.62 98.72 98.63v.31c0 .54.09 1 .09 1.59v75.09c-.01 14.25 9.85 20.87 9.85 20.87Zm261.26 0s-9.85-6.62-9.85-20.83V499.3c0-.54 0-1.05-.09-1.59v-.31c-.06-59-39.74-98.63-98.72-98.63a98.83 98.83 0 0 0-98.73 98.72c0 54.43 40.86 97 95.3 97 28 0 50.35-13.13 50.35-33.79v-32.15c-2.67 2.05-18.27 23.24-46.91 23.24a54.31 54.31 0 0 1 0-108.62c50.33 0 54.29 41.52 54.3 54.25v.17c0 .53 0 1.07.08 1.59v61.6c0 41.22 54.27 34.49 54.27 34.49ZM610.11 411.71a23.85 23.85 0 0 0-23.83 23.84v136.62a23.84 23.84 0 0 0 47.68 0V435.55a23.85 23.85 0 0 0-23.85-23.84Zm.33-9.4a24.15 24.15 0 1 0-24.18-24.13 24.14 24.14 0 0 0 24.18 24.13ZM373.32 498v-.19c-.06-59.27-39.93-99.08-99.15-99.08A99.28 99.28 0 0 0 175 497.94c0 54.68 40.68 97.46 93.05 97.46 31.35 0 53.23-15.74 53.23-31.87v-33.42c-2.67 2.07-18.35 22.38-47.11 22.38a54.53 54.53 0 1 1 0-109.07c50.54 0 54.53 41.69 54.53 54.46v.12c0 .54 0 1.07.09 1.59v62.88c0 26.24-9.64 62.85-77.16 62.85a22.31 22.31 0 0 0 0 44.63c110.29 0 121.74-76 121.74-96.2v-74c0-.55 0-1.09-.08-1.62Zm263 142.3c0 16.31-11.54 29.2-27.34 29.2s-27.43-12.89-27.43-29.2 11.54-29.12 27.43-29.12 27.33 12.94 27.33 29.17Zm-10.73 0c0-10.41-7.4-19-16.61-19s-16.69 8.63-16.69 19 7.41 19.12 16.69 19.12 16.6-8.6 16.6-19.07Zm38.66-29.12A19.45 19.45 0 0 0 644 631.47v37.11h10.66v-37.34c0-6 3.62-9.6 9.6-9.6s9.66 3.63 9.66 9.6v37.34h10.65v-37.11a19.44 19.44 0 0 0-20.31-20.24Zm40.49 39.52v-38.1h-10.66v38.31c0 10.73 6.13 17.67 17.57 17.67h17v-10.49h-16.91c-5.07 0-7.01-2.16-7.01-7.35Zm30.66 17.84H746v-56h-10.62Zm41.22-57.35a19.44 19.44 0 0 0-20.24 20.24v37.11H767v-37.3c0-6 3.62-9.6 9.59-9.6s9.67 3.63 9.67 9.6v37.34h10.65v-37.11a19.45 19.45 0 0 0-20.33-20.24Zm30.25 19.19v20.32c0 10.73 6.15 17.82 17.68 17.82h19.75v-10.43h-19.7c-5.06 0-7.08-2-7.08-7.18v-5.42h22.66v-9.91h-22.67v-5.41c0-5.16 2-7.1 7.08-7.1h19.7V612.6h-19.76c-11.53 0-17.68 7.1-17.68 17.82Z" style="fill:#fff"/>
</svg>
