<svg xmlns="http://www.w3.org/2000/svg" viewBox="0 0 1024 1024">
   <circle cx="512" cy="512" r="512" style="fill:#111"/>
   <path d="M670.15 272.82c-1.4-7.38 8.23-10.33 7.63-24.85-.78-33.35-47.78-25.4-36.33 13.03 17.33 62.93 7.28 106.67-3.68 128.72-5.45 11-15.91-2.12-17.64-10.23-13.21-62.21-42.37-78.48-26.6-121.13 12.42-33.54-39.66-47.06-36.34.64.33 10.33 15.9 72.1 14.71 108.4-.13 4.39-11.23 7.41-16.14 5.55-22.62-8.53-45.27-11.73-67.89-12.69-99.37 0-180 80.67-180 180 0 74.53 37.13 133.55 97.68 158.39-13.15 18.6-10.5 36.9-22.19 60.28 99-8.43 119.46-68.38 181.6-68.18 57.39-.06 53.71.44 111.16-.4 11.56-.2 6.44-23.95 3.85-28.76-63.6-118.13 7.21-208.4 8-239.62 1.37-52.41-4.85-79.97-17.82-149.15zm-69.26 364.82c-43.6-9-115.64 46.2-160.51 38-24-4.61-43.24-90.89-59.15-129.91-5-11.72-12-16.21-17.43-24.81-5-7.91-1.2-17.77-2.52-22.75-7.87-29.62 80.67-75.72 159.05-87.84l68.27 3.42 4.89 19.43 21.23 4.69-5.58 37.7-98.27-14c-36.56 14.32-62.24 17.46-90.3 43.37 6 9.16 2.22 21.85 8.41 31 2.15 3.23 12.58 4.36 14.7 7.38-3.71 9.5 9.44 32.32 10.73 38.36l7.34 45.3c33.69-11.89 78.05-32.91 104.42-35.47 20 .37 4.55-32.78.5-51.15-4.94-23-39.85-2.39-69.81 10.11l14.88 31.75-12 17.33-5.45-12.69-8.1 6.84-22.39-61.8 17-20.93 19.27 5.75c20.49-8.93 51.54-33.38 75.76-23 5.24 2.25 5.58 7 7.66 15.31l11.37 4.97c6.6 36.63 55.79 133.88 6.03 123.64z" style="fill:#fff"/>
</svg>
