<svg xmlns="http://www.w3.org/2000/svg" viewBox="0 0 1024 1024">
   <circle cx="512" cy="512" r="512" style="fill:#ff9600"/>
   <path d="M696.89 290.49c2.61 0 63.55.14 63.55 11.09l-14.11 13.06-14.07 12.97a372.938 372.938 0 0 0-71.02 99.42c42.79-14.29 67.62-21.17 75.78-21.17.14 40.82-23.41 76.51-33.45 91.72-2.79 4.22-4.76 7.24-4.49 7.74l19.15-1.05 17.69-1.05c.14 11.55-12.28 40.32-26.44 61.67 5.36 10.54 8.2 23 8.2 35.87 0 35.87-21.99 65.06-49.07 65.06-3.48 0-6.96-.5-10.35-1.47-27.76 54.11-90.53 89.11-159.72 89.11s-133.05-35.55-160.59-90.62c-4.54 2.02-9.44 2.98-14.43 2.98-26.99 0-49.02-29.19-49.02-65.01 0-21.58 8.02-41.69 21.49-53.83-15.76-41.46-21.49-91.5-21.49-115l14.62 9.62 28.82 19.47c-.18-47.65 19.52-118.16 56.03-154.72l2.38 8.71c3.3 29 8.43 56.72 15.3 82.52 84.58-68.08 213.64-100.15 298.4-106.94 1.05-.09 3.48-.14 6.83-.14m0-27.49c-6.05 0-8.25.18-8.98.23-77.75 6.23-191.33 32.99-278.43 88.01-2.34-12.74-4.26-25.84-5.77-39.26-.15-1.39-.41-2.77-.78-4.12l-2.38-8.71c-3.26-11.96-14.13-20.25-26.53-20.25-7.19 0-14.25 2.84-19.47 8.06-30.79 30.83-50.81 80.18-59.33 125.72l-5.54-3.67a27.429 27.429 0 0 0-28.13-1.24 27.328 27.328 0 0 0-14.52 24.19c0 19.66 3.89 65.15 17.87 109.13-11.36 16.49-17.87 37.66-17.87 59.7 0 51.04 34.36 92.55 76.56 92.55h.41C359.91 747.18 426.16 781 498.64 781s138.87-33.95 174.65-87.83c40.09-2.89 71.98-43.2 71.98-92.37 0-11.5-1.74-22.77-5.04-33.26 11.32-19.79 23.46-46.87 23.27-64.56a27.525 27.525 0 0 0-16.68-24.97c9.44-19.61 17.87-44.53 17.78-72.21-.04-15.15-12.34-27.41-27.49-27.4-3.21 0-7.47.37-14.43 1.79 8.84-11.45 18.42-22.4 28.73-32.76l13.65-12.6 14.11-13.1c5.6-5.21 8.78-12.51 8.8-20.16 0-7.47-2.93-25.61-29.87-32.9-6.74-1.83-15.21-3.16-25.93-4.12-16.72-1.51-33.45-1.56-35.28-1.56ZM582.02 554.26c9.1-.21 16.64 6.99 16.86 16.08.21 9.1-6.99 16.64-16.08 16.86h-.78c-9.1.21-16.65-6.99-16.86-16.08-.21-9.1 6.99-16.64 16.08-16.86h.78m34.64 35.55c9.1-.21 16.64 6.99 16.86 16.08.21 9.1-6.99 16.64-16.08 16.86h-.78c-9.1.21-16.64-6.99-16.86-16.08-.21-9.1 6.99-16.64 16.08-16.86h.78m-70.24 0c9.1-.21 16.64 6.99 16.86 16.08.21 9.1-6.99 16.64-16.08 16.86h-.78c-9.1.21-16.64-6.99-16.86-16.08-.21-9.1 6.99-16.64 16.08-16.86h.78m35.1 35.1c9.08 0 16.45 7.36 16.45 16.45s-7.36 16.45-16.45 16.45-16.49-7.38-16.49-16.45 7.42-16.45 16.49-16.45m.5-84.39c-16.68 0-30.24 13.56-30.24 30.19 0 2.02.18 4.03.6 5.96-1.92-.37-3.94-.6-5.96-.6-16.68 0-30.24 13.56-30.24 30.19s13.56 30.24 30.24 30.24c1.83 0 3.62-.18 5.36-.46-.32 1.74-.46 3.53-.46 5.36 0 16.68 13.56 30.19 30.24 30.19s30.24-13.56 30.24-30.19c0-1.83-.18-3.62-.46-5.36 1.74.32 3.53.46 5.36.46 16.68 0 30.24-13.56 30.24-30.24s-13.56-30.19-30.24-30.19c-1.7 0-3.34.14-4.99.41.37-1.88.55-3.8.55-5.77 0-16.63-13.56-30.19-30.24-30.19Zm-5.86 71.15c.32-1.74.46-3.53.46-5.36 0-2.02-.18-4.03-.6-5.91 1.92.37 3.94.6 5.96.6 1.7 0 3.34-.14 4.95-.41-.37 1.88-.55 3.8-.55 5.73s.18 3.62.46 5.36c-1.74-.32-3.53-.46-5.36-.46-1.79-.05-3.57.14-5.31.46Zm-145.15-55.8c4.44 0 8.02 4.22 8.02 9.39v26.44h25.57c5.22 0 9.44 3.62 9.44 8.02v15.26c0 4.44-4.22 8.02-9.44 8.02h-25.57v25.52c0 5.18-3.57 9.39-8.02 9.39h-15.26c-4.44 0-8.02-4.22-8.02-9.39V623h-26.48c-5.18 0-9.39-3.57-9.39-8.02v-15.26c0-4.4 4.22-8.02 9.39-8.02h26.48v-26.44c0-5.18 3.57-9.39 8.02-9.39h15.26m0-13.74h-15.26c-12 0-21.76 10.4-21.76 23.14v12.69h-12.74c-12.74 0-23.14 9.76-23.14 21.76v15.26c0 12 10.4 21.76 23.14 21.76h12.74v11.77c0 12.74 9.76 23.14 21.76 23.14h15.26c12 0 21.76-10.4 21.76-23.14v-11.77h11.82c12.78 0 23.18-9.76 23.18-21.76v-15.26c0-12-10.4-21.76-23.18-21.76h-11.82v-12.69c0-12.78-9.76-23.14-21.76-23.14Z" style="fill:#fff"/>
</svg>
