<svg xmlns="http://www.w3.org/2000/svg" viewBox="0 0 1024 1024">
   <circle cx="512" cy="512" r="512" style="fill:#609926"/>
   <path d="M762.22 350.27c-100.92 5.34-160.75 8-212 8.48v114.12l-16-7.94-.1-106.11c-58.88 0-110.69-3.1-209.06-8.55-12.31-.13-29.47-2.44-47.9-2.49-47.11-.13-110.23 33.54-106.74 118C175.84 597.63 296 609.86 344 610.92c5.27 24.74 61.79 110.07 103.63 114.56H631c109.93-8.23 192.25-373.82 131.22-375.21Zm-546 117.38c-4.69-36.57 11.8-74.84 73.19-73.2C296.09 462 307 501.55 329 561.95c-56.18-7.43-104-25.78-112.78-94.3Zm415.58 83.44-51.32 105.62a27.05 27.05 0 0 1-36.16 12.51L438.7 617.9a27.05 27.05 0 0 1-12.51-36.16l51.32-105.62a27.05 27.05 0 0 1 36.16-12.51l105.62 51.32a27.05 27.05 0 0 1 12.51 36.16Zm-73.22 64.71a17.16 17.16 0 1 1-15.42-11.32l.36-.74c14.11-28.93 21.88-44.87 19.26-52.35-2.08-5.92-12.58-10.88-30-19.11L530 531a17 17 0 0 1-13 4.18l-23 47.15a17.2 17.2 0 1 1-12.23-5l23.62-48.39A17.11 17.11 0 0 1 519.07 501l13.81-28.28 11.85 5.79-13.58 27.81a17.08 17.08 0 0 1 4.68 13l2.55 1.21c21.17 10 32.83 15.53 36.72 26.59 4.43 12.62-2.67 27.19-19.84 62.39l-.24.48a17.09 17.09 0 0 1 3.56 5.81Z" style="fill:#fff"/>
</svg>
