<svg xmlns="http://www.w3.org/2000/svg" viewBox="0 0 1024 1024">
   <circle cx="512" cy="512" r="512" style="fill:#e24329"/>
   <path d="m759.49 470.65-.72-1.84-69.69-181.87a18.16 18.16 0 0 0-7.17-8.64 18.32 18.32 0 0 0-27.51 10.53l-47.05 144H416.81l-47.05-144a18.29 18.29 0 0 0-6.18-9.41 18.66 18.66 0 0 0-21.33-1.15 18.31 18.31 0 0 0-7.17 8.64l-69.83 181.8-.69 1.84a129.4 129.4 0 0 0 42.92 149.56l.24.19.64.45 106.16 79.5L467 740l32 24.15a21.51 21.51 0 0 0 26 0L557 740l52.52-39.75 106.8-80 .27-.21a129.46 129.46 0 0 0 42.9-149.39Z" style="fill:#fff"/>
</svg>
