<svg xmlns="http://www.w3.org/2000/svg" viewBox="0 0 1024 1024">
   <circle cx="512" cy="512" r="512" style="fill:#00a263"/>
   <path d="M290.2 419.73c-1.5 0-2.69 1.2-2.69 2.69v179.15c0 1.5 1.2 2.69 2.69 2.69h112.4c0 54.63-39.81 70.19-92.19 73.64-1.35.15-2.39 1.2-2.39 2.54v69c0 1.5 1.2 2.69 2.69 2.54 59.57-2.84 104.17-16.91 133.95-40.26C476.99 686.28 493 649.91 493 605.16V422.42c0-1.5-1.2-2.69-2.69-2.69h-200.1Zm243.5 184.69c-1.5 0-2.69-1.2-2.69-2.69v-179.3c0-1.5 1.2-2.69 2.69-2.69h112.4c0-54.63-39.81-70.19-92.19-73.64-1.35-.15-2.39-1.2-2.39-2.54v-69c0-1.5 1.2-2.69 2.69-2.54 59.57 2.84 104.17 16.91 133.95 40.26 32.33 25.44 48.34 61.81 48.34 106.56v182.89c0 1.5-1.2 2.69-2.69 2.69h-200.1Z" style="fill:#fbf9f9"/>
</svg>
