<svg xmlns="http://www.w3.org/2000/svg" viewBox="0 0 1024 1024">
   <circle cx="512" cy="512" r="512" style="fill:#00a6cf"/>
   <path d="M503.34 224a3.1 3.1 0 0 1 3.12-2h24.64c44.77 3.59 88.54 21.75 121.84 52.07a160.1 160.1 0 0 1 15.28 15.21c1 .84 2.51.53 3.74.84a70.85 70.85 0 0 1 48.95 30.79 62.53 62.53 0 0 1 5 8.4c.77 1.57 1.66 3.09 2.35 4.7a25.43 25.43 0 0 1 1.69 4.12c2.57 5.62 3.23 11.9 3.84 18a67.89 67.89 0 0 1-7.91 34.28 77.72 77.72 0 0 1-8.51 13.2 16.66 16.66 0 0 1-3.37 3.71c-.28 6.94.34 13.92-.5 20.83-.11 3-.59 5.9-.88 8.84-.54 2.24-.15 5.08-2.39 6.48-2.35 1.13-5.09.47-7.58 1-32.45 2.68-64.88 5.46-97.33 8.12-2.59.49-5.39 0-7.76 1.37a6.62 6.62 0 0 0-2.93 3.24c.06 1.74-.43 3.79.78 5.27 1 1.16 2.11 2.46 3.69 2.72 50.32 4 100.67 7.79 151 12 1.25.29 3 .16 3.69 1.48.62 2.6.71 6.38-2.31 7.5q-75.36 15.24-150.73 30.42a46.29 46.29 0 0 1-8.2 1.24c-3.11 0-5.91-1.45-8.75-2.52-6.61-2.55-13.23-5.08-19.82-7.66-5.09-1.92-10.18-3.86-15.23-5.87-8.6-3.29-17.23-6.53-25.76-10-2.58-.88-5.1-1.9-7.62-2.92s-5.1-1.86-7.59-2.93c-5.1-1.89-10.17-3.86-15.22-5.85-1.08-.34-2.2-1.17-3.36-.74-3.14 4.6-6 9.39-9.15 14-6 9.63-12.25 19.17-18.13 28.91-.34.61-.66 1.24-.94 1.89a96.86 96.86 0 0 0 29.8 15.63 57.28 57.28 0 0 0 21.08 2.86 2.4 2.4 0 0 0 1.38-.67c8.15-7.85 18.27-14.12 29.51-16.23a31.71 31.71 0 0 1 23 4.15c5.57 3.31 10.53 8.37 12.13 14.82a9.23 9.23 0 0 1-4.08 9.79c-4.18 2.78-9.18 5.29-14.35 4.35-2.93-.52-4.38-3.36-6.41-5.18-3.33-3.1-8.2-4.82-12.68-3.58-3.24.76-7.05 2.13-8.28 5.55-.69 2.89.78 5.73 1.91 8.32s3.48 4.65 3.42 7.59a9 9 0 0 1-5.58 7.7c-2.52.87-5.64.54-7.5-1.54-3.18-3.37-4.09-8.11-5.71-12.3a5.15 5.15 0 0 0-5.73-3.95c-15.44 2.13-31.18 0-46.08-4.26-10.83-3.19-21.43-7.68-30.51-14.46a55.23 55.23 0 0 1-15.92-18c-.91-2.25.28-4.57 1.05-6.67a191 191 0 0 1 12-23.56c1.08-2 2.3-3.95 3.51-5.87a24.77 24.77 0 0 1 1.76-2.91c4.26-7.19 9.49-13.75 14.56-20.38l.46-1.08c-1.07-.36-1.88-1.22-3-1.43l-.09-.4a22.42 22.42 0 0 1-3.6-1.11 17.34 17.34 0 0 0-9.94 1.21c-4.32 2.53-6.75 7-9.7 10.87-1.18 2.27-2.66 4.36-3.9 6.59a14.85 14.85 0 0 0-1.19 1.93c-1.46 3-3.28 5.9-4.6 9l-.36.13c-2.1 5.22-4.8 10.19-6.93 15.41-.51 1.41-1.12 2.78-1.75 4.14-.91 2.8-2.57 5.34-2.9 8.31-1.2 7.44 2.38 14.82 7.34 20.18 5.1 5.57 11.41 9.82 17.56 14.14a109.25 109.25 0 0 0 16.08 9.11c3.12 1.41 4.91 4.45 6.8 7.13 5.63 8.8 8.82 18.92 11 29.08a153.84 153.84 0 0 1 3 23.94 73.34 73.34 0 0 0 .7 9.75c.28 1.29 1.44 3 3 2.35 1.18-.47 1.53-1.78 1.84-2.88A23.67 23.67 0 0 1 486.45 616a15 15 0 0 1 9.1-1.23c5.18 1 6.91 8.75 2.89 12-2.27 2-5.54 2-8 3.69-3 1.9-5.17 5.4-4.6 9a14.21 14.21 0 0 0 6.93 9.7 12.59 12.59 0 0 0 10.91.39c3.71-1.46 6.78-4.09 9.78-6.64 1.57-1.4 3-3.12 5.16-3.64 3.61-1.28 7.56.69 9.69 3.65 4.58 6.21 6.18 14.88 3.07 22.09-2.95 6.64-9.58 10.77-16.27 12.92a52.73 52.73 0 0 1-29.11-2.1 46.5 46.5 0 0 1-24-20.59c-2.23-3.65-3.46-7.78-5.25-11.64a160.59 160.59 0 0 0-18.82-31.6c-6-7.47-13-14.62-22-18.42a24.68 24.68 0 0 0-12.42-1.86c-2.66.37-5.39 1.83-6.31 4.51a70.23 70.23 0 0 0-2.48 36.77c3 15.66 11.69 29.77 22.81 41 3.54 3.74 7.85 6.62 12 9.6 33 22.4 72.71 35.08 112.66 35.07 29.86 0 59.51-7.14 86.61-19.56 20-9.09 39.27-20.75 54.52-36.79 12-12.67 21-28.45 24.1-45.7 1.9-10.19 2.17-20.93-.9-30.93A36.13 36.13 0 0 0 693 566.58c-7.83-5.42-17.81-7.16-27.13-5.87-12.06 1.07-24 8-29.31 19.12-2.32 6.07-3.56 12.82-2.08 19.24a23.68 23.68 0 0 0 11.13 15.52c5.69 3.91 13 4.91 19.66 3.79a16.2 16.2 0 0 0 12.15-9.49c1.36-3.21 2.49-6.89 1.4-10.35a8.79 8.79 0 0 0-10.62-5.91c-3 1-5.25 3.48-8.29 4.36a7 7 0 0 1-8.38-4.52c-.64-2.93.5-5.94 2.17-8.32 6.44-7.85 18.64-9.75 27.52-5.14a25 25 0 0 1 12.94 14.73c2.64 7.71 1.28 16.24-2 23.55a33.33 33.33 0 0 1-18.54 17.75c-8.48 3.34-17.94 2.63-26.64.58-8.29-2.15-16.4-6-22.3-12.34A45.39 45.39 0 0 1 613 596.75c-.52-10.84 1.65-22 7.3-31.36a49 49 0 0 1 19.78-18.19c17.81-9.28 39.91-10.35 58.21-1.83a60.33 60.33 0 0 1 31.08 33.94c5.55 15.28 5.59 32.09 2.54 47.91-4.49 22.63-14.72 43.87-28.26 62.46-26.55 36.19-64.8 63.16-107 78.1A254.61 254.61 0 0 1 510.59 782a300.26 300.26 0 0 1-56.42-5.87 222.14 222.14 0 0 1-47.06-16.7 246.55 246.55 0 0 1-79.38-60.48 305.39 305.39 0 0 1-20.33-26.57 212.73 212.73 0 0 1-35.78-96.68c-1.19-8.74-1.42-17.56-1.77-26.36a313.29 313.29 0 0 1 3.31-45.64c1.23-7.44 2.33-14.91 4.37-22.18a191.62 191.62 0 0 1 7.82-23.32c.28-.91.55-1.83.8-2.74h.45c.46-2.92 2.43-5.36 3-8.24l.47.07c.62-2.82 2.21-5.38 3.61-7.88l-.16-1h.88c-.09-.29-.28-.85-.38-1.14h.89l-.22-1.13h.61c2.85-6.58 6.67-12.71 10.43-18.81.59-1.65 2-2.76 2.7-4.35a232.5 232.5 0 0 1 17.82-23.81c1.55-2.16 3.52-4 5.23-6 4.58-5.15 9.64-9.87 14.52-14.74 3.09-2.44 5.83-5.29 9-7.65 29.22-24.32 64.66-40.57 101.54-49.26a92 92 0 0 1 16-2.58c1.89-.06 3.31-1.47 4.71-2.58 4.34-3.48 8.74-6.89 13.09-10.35 2.15-1.88 2.41-4.91 2.76-7.56 3-19.25 6-38.49 8.95-57.73.51-2.22.46-4.56 1.27-6.7m33.92 79.23a68 68 0 0 0-18.82 5.16 70 70 0 1 0 96.73 53c-3.1-20.38-16-38.86-33.78-49.19a69.81 69.81 0 0 0-44.13-9m153.61 19.83c.37 2.76 2.12 5 3.16 7.57 4.62 10.28 9.17 20.72 11.57 31.77 3.41-.89 6.22-3.37 8.54-5.95a20 20 0 0 0 4.16-17.27c-.74-5.94-4.6-11.2-9.57-14.37-5.28-3.3-11.97-3.55-17.84-1.73Zm-166.51 15.34a25.53 25.53 0 1 1-7.17 47.42 25.59 25.59 0 0 1-11.37-32.18 25.52 25.52 0 0 1 18.54-15.24Z" style="fill:#fff"/>
</svg>
