<svg xmlns="http://www.w3.org/2000/svg" viewBox="0 0 1024 1024">
   <circle cx="512" cy="512" r="512" style="fill:#e93a5e"/>
   <path d="M513.44 768a257.6 257.6 0 0 1-182.12-75.27c-74.86-74.86-96-189.61-53.23-286.66-15.58-21.59-19-49.14-9.2-74.47a78.6 78.6 0 0 1 61.6-49.66l121.94-19.17a256.08 256.08 0 0 1 240.19 68.66C768.15 407 789 522.49 745 620c15.05 21.63 18.14 49 8.17 74a78.68 78.68 0 0 1-61.35 49l-132.94 21a258.73 258.73 0 0 1-45.44 4Zm-2.29-499.5a249.26 249.26 0 0 0-56.34 6.5l-122.38 19.24a66.24 66.24 0 0 0-51.93 41.87c-8.7 22.37-5.09 46.76 9.65 65.26l2.38 3-1.59 3.48c-42.66 93-22.89 204 49.18 276.08a245.47 245.47 0 0 0 216.7 67.77l133.06-20.92a66.28 66.28 0 0 0 51.72-41.33c8.81-22.09 5.55-46.35-8.72-64.89l-2.32-3 1.61-3.43c43.79-93.51 24.36-205.19-48.35-277.9a243.41 243.41 0 0 0-172.67-71.73Zm229.3 279.33a234.6 234.6 0 0 0-.29-70.84 231.92 231.92 0 0 0-229.53-195.93 235.13 235.13 0 0 0-53.21 6.1l-.44.1-.45.07-122.17 19.22a53.75 53.75 0 0 0-42.79 35.5A53.1 53.1 0 0 0 301.91 396l5.51 6.19-3.57 7.47a234.82 234.82 0 0 0-19.91 138.4 231.94 231.94 0 0 0 229.39 195 235.44 235.44 0 0 0 41.37-3.67h.26l133-20.91a53.79 53.79 0 0 0 42.62-35 53.13 53.13 0 0 0-9.58-53.73l-5.35-6.22 3.6-7.37a233.87 233.87 0 0 0 21.19-68.33ZM473.39 710.74A202.7 202.7 0 0 1 369 655c-72.89-72.89-78.94-187.45-18.35-268l-16.87-5.55a25.54 25.54 0 0 1-10.08-6.2c-14.87-14.87-6.44-40.43 14.41-43.71l140.17-22-22 140c-3.28 20.91-28.9 29.36-43.82 14.46a25.64 25.64 0 0 1-6.12-9.82l-5.16-15.08c-32.4 51.73-26.29 120.56 18.47 165.31a132.16 132.16 0 0 0 63.16 35.29l-1.92.34c53.16 6.27 49.96 73.82-7.5 70.7Zm217.43-71.81a26.12 26.12 0 0 1 10.31 6.35c15.21 15.21 6.59 41.37-14.74 44.72l-143.34 22.55 22.52-143.27c3.36-21.4 29.58-30 44.83-14.79a26.22 26.22 0 0 1 6.26 10.05l6.69 19.56c31.73-51.62 25.42-119.88-19.06-164.36a132.18 132.18 0 0 0-66.92-36.13l.5-.09c-54.27-6.41-49.81-76.66 11.15-70.43a202.71 202.71 0 0 1 105.87 56c71.93 71.93 78.76 184.43 20.71 264.77Z" style="fill:#fff"/>
</svg>
