<svg xmlns="http://www.w3.org/2000/svg" viewBox="0 0 1024 1024">
   <circle cx="512" cy="512" r="512" style="fill:#46ad44"/>
   <path d="M290.59 472.67h-.49a48.443 48.443 0 0 0-42.14-25.25c-38.58 0-55.95 27.61-55.95 64.53s21.18 62.41 55.24 62.41c16.61.57 32.35-7.44 41.68-21.19h.48v6.68c0 24.29-13.33 35.95-38.1 35.95a85.225 85.225 0 0 1-41.92-10.25l-2.14 33.83c15.25 5.25 31.27 7.89 47.39 7.85 50.02 0 74.76-16.43 74.76-67.38V450.31h-38.8v22.36Zm-2.62 36.94c0 19.04-12.15 31.91-27.4 31.91-12.86 0-24.29-10.95-24.28-30.24 0-16.91 8.34-30.96 24.28-30.96.83-.01 1.66.01 2.47.08 14.95 1.19 26.1 14.26 24.93 29.21Zm306.75-58.69-44.84 123.29h-47.69l-44.93-123.29h44.95l25.09 87.84h.47l25.29-87.84h41.65Zm-192.99-2.88c-40.69 0-71.67 23.63-71.67 64.56 0 40.69 30.98 64.34 71.67 64.34s71.67-23.64 71.67-64.34-30.98-64.56-71.67-64.56Zm0 99.09c-19.63 0-27.67-16.32-27.67-34.54s8.03-34.77 27.67-34.77 27.69 16.32 27.69 34.77-8.06 34.54-27.69 34.54Zm197.81 9.61v.04c0 11.17-9.06 20.21-20.22 20.21s-20.21-9.06-20.21-20.22 9.04-20.2 20.21-20.21c11.15-.01 20.21 9.03 20.22 20.18Zm218.02-108.66c-16.38-.22-31.05 10.07-36.43 25.55h-.48v-22.72h-38.84v58.79c-.28-29.64-18.91-61.56-52.73-61.56a50.231 50.231 0 0 0-42.36 18.68h-.48v-70.05H603.4l-.03.01v177.49h39.31v-22.02h.48c8.06 15.83 24.6 25.53 42.35 24.85 36.43 0 56.03-29.88 56.3-65.96v63.13h42.61V522.2c0-24.14 11.1-38.57 30.98-38.57 4.86-.25 9.72.23 14.43 1.41l2.16-35.54c-4.77-.86-9.59-1.33-14.43-1.41Zm-145.55 96.33c-14.19 0-26.03-13.5-26.03-31.48s10.42-32.17 26.03-32.17c16.57 0 25.79 14.2 25.79 30.51 0 19.64-9.7 33.14-25.79 33.14Z" style="fill:#fff"/>
</svg>
