<svg xmlns="http://www.w3.org/2000/svg" viewBox="0 0 1024 1024">
   <circle cx="512" cy="512" r="512" style="fill:#03c197"/>
   <path d="M512 256c-141.38 0-256 114.61-256 256s114.62 256 256 256 256-114.62 256-256-114.61-256-256-256Zm144.37 389.49a17.35 17.35 0 0 1-20.56 17.06c-8.37-1.51-14.1-9.41-14.1-17.91v-16.5l3.29-18.25a148.62 148.62 0 0 1-113 51.49c-85.9 0-155-71.16-150-158.31 4.3-74.9 64.82-136.15 139.6-141.17a150 150 0 0 1 136.93 69 17.16 17.16 0 0 1-5.16 22.78c-7.87 5.47-18.23 3.06-24.15-5.29-20.53-28.93-56.38-52.86-97.24-52.86-78.4 0-138.57 78.74-107 161.2 13.92 36.33 46.91 62.34 85.32 68.37 47.18 7.41 90.34-9.38 115.19-45.88l-15.53 2.18h-26.8c-8.51 0-16.38-5.74-17.89-14.12a17.35 17.35 0 0 1 17-20.58h94.09Z" style="fill:#fff"/>
</svg>
