<svg xmlns="http://www.w3.org/2000/svg" viewBox="0 0 1024 1024">
   <circle cx="512" cy="512" r="512" style="fill:#221e1f"/>
   <path d="M528.52 442.18a8.136 8.136 0 0 0 0-11.51 8.148 8.148 0 0 0-11.52 0 8.136 8.136 0 0 0 0 11.51 8.148 8.148 0 0 0 11.52 0Zm-28.74 5.69a8.136 8.136 0 0 0 0 11.51 8.148 8.148 0 0 0 11.52 0 8.136 8.136 0 0 0 0-11.51 8.148 8.148 0 0 0-11.52 0Zm49.99 4.23c-4.98-4.98-13.05-4.97-18.03 0l-10.6 10.59c-4.98 4.98-4.98 13.04 0 18.01l11.64 11.63c4.98 4.98 13.05 4.97 18.03 0l10.6-10.59c4.98-4.98 4.98-13.04 0-18.01l-11.64-11.63Zm100.77-39.45c13.45-25.6-5.58-40.55-18.66-52.82-20.96-19.68-41.86-28.18-65.73-.94-23.86 27.25-8.7 58.85 13.12 74.45 21.83 15.6 57.79 4.9 71.27-20.69Zm-36.15-10.5c-8.41-10.07 7.31-28.34 17.17-17.43 18.16 20.11-8.75 27.5-17.17 17.43ZM512 240.28c-150.22 0-272.01 121.65-272.01 271.7S361.77 783.7 512 783.7s271.99-121.66 271.99-271.72S662.21 240.28 512 240.28Zm147.09 316.23c-28.36-18.73-44.57-34.55-58.69-62.91-9.65 19.44-32.2 48.34-70.23 71.07-18.98 59-109.29 171.9-138.52 155.9-8.65-4.73-10.3-10.97-8.34-17.4 2.1-16.13 35.49-53.19 35.49-53.19s.71 7.78 11.39 24.16c-14.11-43.76 23.32-97.76 33.23-116.14 15.58-4.96 16.71-24.94 16.71-24.94 1-30.89-12.82-53.25-26.2-66.63 9.62 11.73 12.73 29.45 13.19 45.67v.09c.05 1.83.05 3.63.04 5.43-.46 13.43-4.52 31.99-13.23 31.99l.03.12c-8.95-.38-20 1.52-29.87 4.61l-21.82 5.21s11.64-.53 17.92 4.89c-7 11.38-22.55 25.51-39.9 33.54-25.24 11.69-32.5-11.57-19.68-26.71 3.15-3.7 6.33-6.82 9.33-9.37-1.93-2-3.15-4.68-3.48-8.08 0-.02-.02-.03-.02-.05-1.76-7.72-.79-17.74 10.15-33.67 2.16-3.37 4.75-6.83 7.85-10.34.1-.12.18-.23.28-.35.13-.16.28-.31.42-.47l.24-.27c.78-.89 1.61-1.75 2.5-2.59 13.03-13.33 33.62-27.2 66.06-39.65 37.83-55.55 51.68-65.97 51.68-65.97 4.19-4.28 11.51-9.6 14.2-10.95-19.76-34.29-23.74-82.63-18.57-95.66-.42.71-.8 1.43-1.13 2.17 1.92-4.46 3.2-5.9 5.2-8.24 5.39-6.38 23.68-9.72 30.25 3.79 3.5 7.2 4.16 16.53 4.04 23.52-14.48-.75-27.62 15.76-27.62 15.76s11.99-5.65 26.89-5.75c0 0 3.97 3.45 8.93 9.93-6.69 12.55-17.69 39.14-9.72 67.05 1.32 5.5 3.32 10.23 5.79 14.25.09.17.17.35.27.53.2.26.38.48.56.72 13.17 19.81 37.31 22.12 37.31 22.12-11.36-5.66-20.62-14.68-26.65-25.62-3.13-5.85-5.05-10.79-6.23-14.68-6.39-24.66 3.02-39.06 8.4-48.71 12.39-19.2 34.97-30.83 59.24-28.06 34.06 3.88 58.52 34.61 54.63 68.62-2.37 20.78-14.78 37.97-31.83 47.32 4.1 11.09-.28 24.53-.28 24.53 10.33 12.98 10.78 20.46 10.42 27.4-13.12-2.21-25.87 6.64-25.87 6.64s25.32-6.04 40.03 7.07c9.57 10.28 15.95 19.57 19.75 26.43 5.45 9.78 30.73 10.48 27.85 28.08-2.88 17.57-22.16 17.74-52.39-2.19Z" style="fill:#fff"/>
</svg>
