<svg xmlns="http://www.w3.org/2000/svg" viewBox="0 0 1024 1024">
  <circle cx="512" cy="512" r="512" style="fill:#5532fa"/>
  <path d="M909.93,585.223l-675.617,0l-0,46.339l-119.356,0l-0,21.261l140.193,0l-0,-46.397l654.78,0l-0,-21.203Zm-718.177,-118.113l0.018,0.029l-0.019,0l0.001,-0.029c-6.439,-10.68 -16.843,-16.779 -32.115,-16.779c-28.624,0.173 -45.568,22.957 -45.568,54.493c0,31.535 16.944,54.319 45.568,54.319c5.263,0.289 10.506,-0.617 15.382,-2.66c4.877,-2.043 9.233,-5.166 12.761,-9.137l-0,15.189c-0,10.332 -5.474,22.592 -22.803,22.592c-13.127,-0 -19.604,-7.344 -21.878,-15.248l-23.247,11.238c5.821,14.92 19.738,27.449 46.744,27.449c40.055,0 50.329,-27.005 50.329,-50.657l-0,-106.055l-24.519,-0l-0.654,15.256Zm263.036,-7.507c-7.305,-6.284 -16.712,-9.484 -26.253,-8.906c-28.76,0 -45.742,22.765 -45.742,54.319c0,31.555 16.982,54.32 45.742,54.32c6.129,0.404 12.24,-0.849 17.734,-3.624c5.493,-2.776 10.196,-6.959 13.589,-12.163l0.752,13.898l24.519,-0l-0,-154.612l-30.206,0l-0.135,56.768Zm455.064,48.44l-0,-3.2c-0,-32.615 -18.389,-54.319 -48.71,-54.319c-30.321,-0 -50.734,21.704 -50.734,54.319c-0,32.615 20.432,54.319 50.734,54.319c20.953,0 36.585,-10.158 43.987,-27.314l-21.878,-10.563c-1.426,4.569 -4.298,8.54 -8.154,11.296c-3.855,2.756 -8.5,4.144 -13.204,3.952c-5.589,0.154 -11.006,-1.87 -15.17,-5.648c-4.163,-3.778 -6.746,-9.06 -7.228,-14.708l0.212,0l70.164,-8.115l-0.019,-0.019Zm-363.369,-57.538c-30.34,-0 -50.772,21.704 -50.772,54.319c-0,32.614 20.432,54.319 50.772,54.319c20.915,-0 36.547,-10.159 43.776,-27.314l-21.878,-10.563c-1.407,4.511 -4.222,8.424 -8,11.18c-3.778,2.756 -8.327,4.183 -12.972,4.067c-5.629,0.232 -11.142,-1.754 -15.382,-5.532c-4.241,-3.797 -6.863,-9.098 -7.344,-14.823l70.029,-8.192l-0,-3.2c0.443,-32.538 -17.946,-54.223 -48.229,-54.223l0,-0.038Zm-251.819,60.911c-0,14.476 -6.13,22.957 -18.216,22.957c-8.443,0 -15.497,-3.739 -15.497,-19.834l-0,-62.685l-30.206,-0l0,68.757c0,22.282 13.84,38.455 37.203,38.455c5.609,-0 11.141,-1.253 16.191,-3.74c5.051,-2.467 9.503,-6.072 12.992,-10.524l1.889,12.567l25.83,0l0,-105.515l-30.205,-0l-0,59.581l0.019,-0.019Zm340.97,14.225l0,-122.806l-30.205,0l-0,125.929c-0,14.611 2.891,29.897 28.451,29.897c4.838,0.251 9.676,-0.559 14.187,-2.41l-0,-23.574c-0,0 -12.433,3.2 -12.433,-7.036Zm54.049,-73.787l-30.205,-0l0,105.612l30.205,-0l0,-105.612Zm-318.725,-0l-30.205,-0l-0,105.612l30.205,-0l-0,-105.612Zm391.607,-1.697c-5.59,0 -11.122,1.253 -16.172,3.721c-5.05,2.467 -9.484,6.052 -12.973,10.505l-1.889,-12.529l-25.868,-0l0,105.612l30.205,-0l0,-59.62c0,-16.481 6.13,-22.958 18.254,-22.958c8.443,0 15.46,3.74 15.46,19.835l-0,62.743l30.205,-0l-0,-68.892c-0,-22.321 -13.84,-38.417 -37.202,-38.417l-0.02,0Zm-596.663,84.216c-14.322,0 -22.765,-11.623 -22.765,-29.761c0,-18.139 8.443,-29.762 22.765,-29.762c14.322,-0 22.591,11.623 22.591,29.762c0,18.138 -8.269,29.761 -22.591,29.761Zm269.225,0c-14.322,0 -22.765,-11.623 -22.765,-29.761c0,-18.139 8.443,-29.762 22.765,-29.762c14.322,-0 22.765,11.623 22.765,29.762c-0,18.138 -8.443,29.761 -22.765,29.761Zm88.823,-36.99c0,-15.324 8.751,-25.347 22.36,-25.347c5.494,-0.097 10.833,1.947 14.9,5.725c4.067,3.758 6.573,8.982 6.997,14.553l-44.257,5.089l0,-0.02Zm314.774,0c-0,-15.324 8.963,-25.347 22.321,-25.347c5.494,-0.097 10.833,1.947 14.901,5.725c4.067,3.758 6.573,8.982 6.997,14.553l-44.2,5.089l-0.019,-0.02Zm-482.867,-97.092l0.008,-0l-0.019,-0l0.011,-0c-3.332,0.002 -6.587,1.004 -9.36,2.891c-2.776,1.889 -4.935,4.569 -6.207,7.691c-1.272,3.142 -1.6,6.593 -0.964,9.908c0.656,3.335 2.256,6.38 4.607,8.79c2.352,2.39 5.359,4.029 8.636,4.703c3.277,0.656 6.65,0.328 9.734,-0.983c3.084,-1.291 5.706,-3.489 7.556,-6.322c1.851,-2.815 2.834,-6.13 2.834,-9.523c-0,-4.549 -1.774,-8.905 -4.935,-12.124c-3.158,-3.216 -7.433,-5.028 -11.901,-5.031Zm318.726,-0l0.007,-0l-0.019,-0l0.012,-0c-3.332,0.002 -6.587,1.004 -9.361,2.891c-2.775,1.889 -4.934,4.569 -6.206,7.691c-1.273,3.142 -1.6,6.593 -0.964,9.908c0.655,3.335 2.255,6.38 4.607,8.79c2.351,2.39 5.358,4.029 8.635,4.703c3.277,0.656 6.65,0.328 9.735,-0.983c3.084,-1.291 5.705,-3.489 7.556,-6.322c1.85,-2.815 2.833,-6.13 2.833,-9.523c0,-4.549 -1.773,-8.905 -4.934,-12.124c-3.159,-3.216 -7.433,-5.028 -11.901,-5.031Z" style="fill:#fff"/>
</svg>
