<svg xmlns="http://www.w3.org/2000/svg" viewBox="0 0 1024 1024">
   <circle cx="512" cy="512" r="512" style="fill:#5532fa"/>
   <path d="M895 583.17H243.03v44.72H127.85v20.52h135.29v-44.77H895v-20.46ZM201.96 469.19l.02.03h-.02v-.03c-6.21-10.31-16.25-16.19-30.99-16.19-27.62.17-43.97 22.15-43.97 52.59s16.35 52.42 43.97 52.42c5.08.28 10.14-.6 14.84-2.57 4.71-1.97 8.91-4.99 12.31-8.82v14.66c0 9.97-5.28 21.8-22 21.8-12.67 0-18.92-7.09-21.11-14.71l-22.43 10.84c5.62 14.4 19.05 26.49 45.11 26.49 38.65 0 48.57-26.06 48.57-48.88V454.48H202.6l-.63 14.72Zm253.83-7.24c-7.05-6.06-16.13-9.15-25.33-8.59-27.75 0-44.14 21.97-44.14 52.42s16.39 52.42 44.14 52.42c5.91.39 11.81-.82 17.11-3.5a33.91 33.91 0 0 0 13.11-11.74l.73 13.41h23.66v-149.2h-29.15l-.13 54.78Zm439.13 46.74v-3.09c0-31.47-17.75-52.42-47-52.42s-48.96 20.94-48.96 52.42 19.72 52.42 48.96 52.42c20.22 0 35.3-9.8 42.45-26.36l-21.11-10.19a21.17 21.17 0 0 1-7.87 10.9c-3.72 2.66-8.2 4-12.74 3.81-5.39.15-10.62-1.8-14.64-5.45-4.02-3.65-6.51-8.74-6.98-14.19h.2l67.71-7.83-.02-.02Zm-350.65-55.52c-29.28 0-48.99 20.94-48.99 52.42s19.72 52.42 48.99 52.42c20.18 0 35.27-9.8 42.24-26.36l-21.11-10.19c-1.36 4.35-4.07 8.13-7.72 10.79s-8.04 4.04-12.52 3.92c-5.43.22-10.75-1.69-14.84-5.34-4.09-3.66-6.62-8.78-7.09-14.3l67.58-7.91v-3.09c.43-31.4-17.32-52.32-46.54-52.32v-.04Zm-243 58.78c0 13.97-5.92 22.15-17.58 22.15-8.15 0-14.95-3.61-14.95-19.14v-60.49h-29.15v66.35c0 21.5 13.36 37.11 35.9 37.11 5.41 0 10.75-1.21 15.62-3.61 4.87-2.38 9.17-5.86 12.54-10.16l1.82 12.13h24.93V454.47h-29.15v57.5l.02-.02Zm329.03 13.73V407.17h-29.15v121.52c0 14.1 2.79 28.85 27.46 28.85 4.67.24 9.34-.54 13.69-2.33v-22.75s-12 3.09-12-6.79Zm52.16-71.2h-29.15v101.91h29.15V454.48Zm-307.57 0h-29.15v101.91h29.15V454.48Zm377.9-1.64c-5.39 0-10.73 1.21-15.61 3.59a35.974 35.974 0 0 0-12.52 10.14l-1.82-12.09h-24.96v101.91h29.15v-57.53c0-15.9 5.92-22.15 17.62-22.15 8.15 0 14.92 3.61 14.92 19.14v60.55h29.15v-66.48c0-21.54-13.36-37.07-35.9-37.07h-.02Zm-575.78 81.27c-13.82 0-21.97-11.22-21.97-28.72s8.15-28.72 21.97-28.72 21.8 11.22 21.8 28.72-7.98 28.72-21.8 28.72Zm259.8 0c-13.82 0-21.97-11.22-21.97-28.72s8.15-28.72 21.97-28.72 21.97 11.22 21.97 28.72-8.15 28.72-21.97 28.72Zm85.71-35.7c0-14.79 8.44-24.46 21.58-24.46a20.65 20.65 0 0 1 14.38 5.52c3.92 3.63 6.34 8.67 6.75 14.04l-42.71 4.91v-.02Zm303.75 0c0-14.79 8.65-24.46 21.54-24.46a20.65 20.65 0 0 1 14.38 5.52c3.92 3.63 6.34 8.67 6.75 14.04l-42.65 4.91-.02-.02Zm-465.96-93.69h-.02.01c-3.22 0-6.36.97-9.03 2.79a16.512 16.512 0 0 0-5.99 7.42 16.99 16.99 0 0 0-.93 9.56c.63 3.22 2.18 6.16 4.45 8.48 2.27 2.31 5.17 3.89 8.33 4.54 3.16.63 6.42.32 9.39-.95 2.98-1.25 5.51-3.37 7.29-6.1 1.79-2.72 2.73-5.92 2.73-9.19a16.7 16.7 0 0 0-4.76-11.7c-3.05-3.1-7.17-4.85-11.48-4.85Zm307.57 0h-.02.01c-3.22 0-6.36.97-9.03 2.79a16.512 16.512 0 0 0-5.99 7.42 16.99 16.99 0 0 0-.93 9.56c.63 3.22 2.18 6.16 4.45 8.48 2.27 2.31 5.17 3.89 8.33 4.54 3.16.63 6.42.32 9.39-.95 2.98-1.25 5.51-3.37 7.29-6.1 1.79-2.72 2.73-5.92 2.73-9.19a16.7 16.7 0 0 0-4.76-11.7c-3.05-3.1-7.17-4.85-11.48-4.85Z" style="fill:#fff"/>
</svg>
