<svg xmlns="http://www.w3.org/2000/svg" viewBox="0 0 1024 1024">
   <circle cx="512" cy="512" r="512" style="fill:#2777c6"/>
   <path d="M584.85 553.56C665 573.6 737 626.77 777.59 699.22H708.8c-2.27 0-6.28.82-8.43 0-1.85-.7-4.39-5.08-5.76-6.62q-3.21-3.6-6.53-7.09-7.24-7.6-15.06-14.62a251.22 251.22 0 0 0-71.12-44.51 244.76 244.76 0 0 0-167.9-6.43c-25.92 8.32-50.13 21.74-71.81 38.13a256.53 256.53 0 0 0-30.34 26.73q-3.32 3.46-6.49 7.07c-1.44 1.65-4.18 6.57-6.12 7.35-.65.26-1.8-.06-2.48 0-13.76 1.29-28.26 0-42.07 0H242c41-73.23 113.2-125.4 194.25-145.67C389.81 542.42 347 518.74 311.47 487a276.48 276.48 0 0 1-25.87-26.39c-4-4.63-7.79-9.38-11.53-14.2q-2.47-3.19-4.9-6.42a19.45 19.45 0 0 1-2.4-3.22q-2.3-1.54-.16-3.22l1-1.59c12.84-19.6 29.6-37.05 46.76-52.94 4.32-4 9-7.53 13.65-11.19 4.77-3.78 11.15-7.23 15.28-11.65 1.71-1.83 1.7-1.59 2.09-4.13.24-1.57.52-3.13.89-4.67a40.59 40.59 0 0 1 2.27-6.89 60.59 60.59 0 0 1 10.07-15.16 48.27 48.27 0 0 1 59.46-10.62c19.39 10.69 33.51 33.18 29 55.71-4.45 22.16-24.29 39.43-46.64 41a60.24 60.24 0 0 1-12.34-.06 29.06 29.06 0 0 1-5.52-1.47c-1.56-.56-5.12-2.94-6.68-2.75s-5.12 3.94-6.3 5c-1.88 1.64-3.62 3.39-5.56 5-4.35 3.52-8.87 6.69-13 10.48-1.53 1.41-4.76 3.52-5.62 5.39-1 2.19-1.68.1.28 2.75a23.3 23.3 0 0 0 2.88 2.65c4.77 4.35 9.62 8.6 14.66 12.63a250.46 250.46 0 0 0 28.92 20c41.83 24.78 95.35 35.26 143.48 29.65a241.76 241.76 0 0 0 70.8-19.34c22.71-10.31 42.45-24.23 61.33-40.4a78.48 78.48 0 0 1 6-5.21c2.34-1.62 1.81-.73 2.24-3 .79-4.1-.14-8.86.31-13A55.62 55.62 0 0 1 690.18 388c14.81-16.54 43.46-19.65 62.93-10.34 21.23 10.15 32.9 36.77 27.58 59.38-5.37 22.86-25.14 40-48.69 41.37-3 .17-6.78.53-9.78.06-1.41-.22-3.48-1.75-5-1.44-2 .42-5.44 5.28-7.12 6.83a324.66 324.66 0 0 1-28.1 23.21c-20.07 14.7-42.23 24.54-64.26 35.68-10.33 5.25-21.74 8.18-32.89 10.81ZM477.44 368.18c0-9.67 0-19.46-1.93-29-2.25-11-8.32-21-15-29.89 8.84-1.77 17.92-1.86 26.9-2.25 9.43-.41 17.82-3 27.33-2.87a302 302 0 0 1 59.74 6.7c38.71 8.5 76.46 25.38 108.2 49.18-16.65 11.1-30.27 32.4-33.1 52.23a224.13 224.13 0 0 0-83.48-39.78 246.79 246.79 0 0 0-47.57-6.38c-13.59-.55-27.84-1.25-41.09 2.06ZM462 438.8c0-21.51 14.77-40.12 34.09-48.19 19.68-8.22 45.28-.54 58.37 16.06 12.95 16.4 15.12 40 4.6 58.35s-34.61 28.53-55.14 24.37c-23.3-4.72-41.92-26.8-41.92-50.59Z" style="fill:#fff"/>
</svg>
