<svg xmlns="http://www.w3.org/2000/svg" viewBox="0 0 1024 1024">
   <circle cx="512" cy="512" r="512" style="fill:#f45d48"/>
   <path d="M768.04 423.54c-40.85 0-73.97 33.11-73.98 73.96 0 40.85 33.11 73.97 73.96 73.98 40.85 0 73.97-33.11 73.98-73.96v-.03c-.05-40.83-33.14-73.91-73.96-73.95Zm0 112.85c-21.48 0-38.89-17.41-38.89-38.89s17.41-38.89 38.89-38.89c21.47 0 38.88 17.4 38.89 38.87-.02 21.47-17.42 38.88-38.89 38.9Zm-217.79-53.85-12.92-6.46c-5.6-2.76-9.11-4.93-10.52-6.52a7.674 7.674 0 0 1-2.13-5.23c0-2.49 1.11-4.58 3.36-6.27 2.24-1.68 5.34-2.52 9.3-2.52 7.25 0 15.3 4.39 24.16 13.18l21.83-21.83a57.05 57.05 0 0 0-46.24-23.25c-13.35 0-24.31 3.94-32.87 11.82-8.56 7.88-12.85 17.37-12.85 28.48 0 17.23 11.37 31.56 34.1 43.02l11.88 5.94c10.23 5.17 15.35 10.46 15.35 15.89 0 2.93-1.42 5.51-4.26 7.75s-6.58 3.36-11.23 3.36c-4.31 0-9.24-1.49-14.79-4.48a54.434 54.434 0 0 1-14.71-11.51l-21.5 23.45c12.22 16.01 28.58 24.02 49.08 24.02 15.41 0 27.71-4.18 36.88-12.53 9.17-8.35 13.76-18.77 13.75-31.26 0-9.38-2.54-17.56-7.62-24.54s-14.42-13.82-28.02-20.52Zm-219.56-56.07h-35.08l.12 12.62c-11.36-11.51-25.36-15.54-39.76-15.54-40.85 0-73.97 33.12-73.96 73.98 0 40.85 33.12 73.96 73.96 73.96 17.03 0 31.6-7.54 39.1-17.14 0 .58-.05 7.56-.07 8.31-.14 4.77-.83 12.41-5.33 20.22-10.9 18.42-34.66 24.51-53.08 13.62-.29-.17-.58-.35-.87-.53l-17.45 30.37a73.427 73.427 0 0 0 38.02 10.64c19.41 0 43.62-7.67 60.79-31.46 14.28-19.77 13.61-38.45 13.61-56.53V426.48Zm-74.73 109.92c-21.48 0-38.89-17.41-38.89-38.89s17.41-38.89 38.89-38.89 38.88 17.4 38.89 38.87c-.01 21.47-17.41 38.88-38.89 38.9Zm214.59-109.92h-35.26v70.33c.07 9.96.06 27.22-7.29 34.62-3.52 3.54-7.36 6.71-15.5 6.71s-12.01-3.2-15.52-6.71c-7.35-7.4-7.33-24.65-7.26-34.62v-70.33h-35.24v70.08c-.1 14.43-.27 41.3 17.42 59.11 10.38 10.45 22.75 15.75 40.63 15.75s30.25-5.3 40.63-15.75c17.69-17.81 17.51-44.68 17.42-59.11l-.03-70.08Zm182.38 109.5c-4.02-.54-7.98-3.41-10.23-8.66-1.54-3.59-2.1-8.31-2.1-14.12v-56.55h41.44v-30.27H640.6v-39.32h-35.17v123.3c0 12.09.97 26.75 8.95 40.28 6.81 11.51 18.8 20.81 38.49 20.81 23.87 0 41.04-17.26 41.04-17.26l-21.1-25.95s-9.26 9.19-19.89 7.75Z" style="fill:#fff"/>
</svg>
