<svg xmlns="http://www.w3.org/2000/svg" viewBox="0 0 1024 1024">
   <circle cx="512" cy="512" r="512" style="fill:#2a98ea"/>
   <path d="M592.92 582.54c-52.84-.55-105.71-.24-158.57-.17-.76 44.9.09 89.84-.48 134.74-.21 18.51-17.2 34.94-35.75 34.3-22.55-.02-45.11.02-67.67-.03-14.19.45-27.75-9.03-32.98-22.1-3.96-8.7-2.61-18.51-2.84-27.77-.03-142.96.02-285.94-.16-428.9 55.02-.47 110.17-1.14 165.16.14 16.14 41.53 49.44 124.2 49.44 124.2s-23.71-.26-36.1-.26c-11.82-29.21-23.27-58.57-35.51-87.57-35.52-.12-71.05-.07-106.57-.02-.09 131.4-.02 262.81-.02 394.21-.61 5.28 2.77 11.42 8.55 11.52 15.5.45 31.04.14 46.56.21 4.79.43 10.31-2.09 11.28-7.2 1.02-8.41.21-16.92.43-25.37.29-45.54-.48-91.1.36-136.65 75.92-.65 151.93-.76 227.87.14.03 32.2.07 64.4-.07 96.61.47 4.27-3.44 8.79-7.91 7.46-3.43-.57-4.98-3.82-5.88-6.78-6.39-20.25-12.72-40.49-19.16-60.7Zm136.52-273.85c.42-19.05-16.4-36.13-35.4-36.37-22.56-.36-45.13-.14-67.69-.1-13.79-.03-27.36 8.15-33.12 20.76-4.59 8.55-3.67 18.5-3.69 27.84.07 40.25-.03 80.5.09 120.76-52.74.35-105.5.21-158.24.05v-.09c-6.44-20.21-12.77-40.46-19.16-60.7-.9-2.96-2.46-6.21-5.88-6.78-4.46-1.33-8.37 3.18-7.91 7.46-.14 32.2-.1 64.4-.07 96.61 10.92.13 21.84.24 32.76.33v.02c64.93.24 129.9.62 194.8-.28.48-53.57-.68-107.26.45-160.77.64-4.26 4.29-8.13 8.76-8.18 13.83-.54 27.69.07 41.53-.22 4.57.21 10.3-.78 13.5 3.32 3.08 3.17 2.49 7.89 2.68 11.92-.1 127.49.02 254.98.02 382.48-.07 2.75-.21 5.5-.36 8.25-35.11.03-70.23.33-105.34-.14-11.99-29.12-23.43-58.45-35.45-87.56-11.84 0-23.93-.16-36.04-.16 9.14 24.57 19.67 48.61 29.1 73.07 7.28 17.01 13.46 34.49 21.13 51.32 54.52.24 109.13 1.02 163.64-.26-.31-147.53.12-295.06-.09-442.59Z" style="fill:#fff"/>
</svg>
