<svg xmlns="http://www.w3.org/2000/svg" viewBox="0 0 1024 1024">
   <circle cx="512" cy="512" r="512" style="fill:#ec1075"/>
   <path d="M400.81 535.61a9.2 9.2 0 0 1 2.08 5.72q0 4.72-7.7 8.76t-18.74 4.06q-17.43 0-26.11-9.2t-8.71-24.36v-15.17q0-15 8.71-24.27t25.94-9.28q10.88 0 18.25 3.79c4.91 2.52 7.37 5.37 7.37 8.51a9.74 9.74 0 0 1-2.09 5.74 6.08 6.08 0 0 1-4.94 2.87c-.56 0-2.54-.85-5.95-2.53a25.14 25.14 0 0 0-11.29-2.53q-18.43 0-18.42 17.75v15.09q0 17.75 18.59 17.75a24.22 24.22 0 0 0 11.46-2.71c3.4-1.8 5.43-2.71 6.12-2.71a6.58 6.58 0 0 1 5.43 2.72Zm56.65-31.87 21.6-19.39a5.06 5.06 0 0 0 1.5-3.71 7.85 7.85 0 0 0-2.84-5.74 8.4 8.4 0 0 0-5.72-2.7 5 5 0 0 0-3.68 1.53l-35 32.37v-75a4.7 4.7 0 0 0-2.59-4.12 12 12 0 0 0-6.44-1.61 10.71 10.71 0 0 0-6.19 1.61 4.79 4.79 0 0 0-2.34 4.12v115.8c0 1.47.81 2.81 2.43 4.06a9.73 9.73 0 0 0 6.11 1.85 10.81 10.81 0 0 0 6.35-1.85c1.79-1.25 2.68-2.59 2.68-4.06v-21.07l12.23-11.12 24.61 36.58a5.59 5.59 0 0 0 4.68 2.52c2.12 0 4.3-1 6.53-3s3.36-4 3.36-6a5.52 5.52 0 0 0-1-3Zm-211-30.36a12.09 12.09 0 0 0-6.51-1.61 10.89 10.89 0 0 0-6.26 1.61l-23.81 14.92c-1.07 1-1.52 2.51-1.33 4.58a10 10 0 0 0 2.81 5.85 11 11 0 0 0 5.73 3.51c2.12.48 3.74.22 4.8-.77l9.41-5.87V548c0 1.48.82 2.83 2.47 4.08a9.78 9.78 0 0 0 6.16 1.88 11 11 0 0 0 6.42-1.88c1.81-1.25 2.71-2.6 2.71-4.08v-70.46a4.76 4.76 0 0 0-2.62-4.15ZM195.23 427a12 12 0 0 0-6.35-1.61 11.43 11.43 0 0 0-6.34 1.61 4.86 4.86 0 0 0-2.46 4.18V548c0 1.48.85 2.83 2.55 4.08a10.19 10.19 0 0 0 6.25 1.88 10.71 10.71 0 0 0 6.26-1.88c1.8-1.24 2.71-2.6 2.71-4.08V431.14a4.82 4.82 0 0 0-2.62-4.14Zm122.88 54.27q8.28 9.38 8.3 23.36v42.27a5.11 5.11 0 0 1-2.44 4.16 10.21 10.21 0 0 1-6.11 1.76 9.21 9.21 0 0 1-5.68-1.76 5.15 5.15 0 0 1-2.35-4.16V541q-11.22 13.16-25.27 13.16-9.72 0-16-5.75c-4.18-3.81-6.27-9.32-6.27-16.51q0-13.5 10-18.79t29.13-5.32h7.36v-3.12a21.38 21.38 0 0 0-4.09-13.12q-4.1-5.53-12.47-5.52a27.37 27.37 0 0 0-12.64 2.78 42.12 42.12 0 0 1-5.95 2.79 5.3 5.3 0 0 1-4.61-2.79 11.25 11.25 0 0 1-1.75-6.15q0-4.38 8.13-7.59a46.17 46.17 0 0 1 17.15-3.2q17.28 0 25.56 9.36Zm-9.3 36.34h-4.18a90.86 90.86 0 0 0-12.3.67 18.08 18.08 0 0 0-8.54 3.54 9.43 9.43 0 0 0-3.76 7.93c0 3.6 1 6.31 3 8.17a11.16 11.16 0 0 0 7.87 2.79q6.35 0 12.13-5.4c3.86-3.61 5.77-7.41 5.77-11.47ZM738.23 472a24.81 24.81 0 0 0-13.72 3.77 24.24 24.24 0 0 0-8.71 9.23v-7.86a3.6 3.6 0 0 0-1.5-2.91 5.48 5.48 0 0 0-3.52-1.21 6.35 6.35 0 0 0-3.85 1.11 3.46 3.46 0 0 0-1.5 2.94v71.32a4 4 0 0 0 1.5 3 5.54 5.54 0 0 0 3.85 1.35 5.93 5.93 0 0 0 3.85-1.35 3.9 3.9 0 0 0 1.69-3v-44.7q0-9.58 6-15.48a19.35 19.35 0 0 1 13.89-5.89 19.63 19.63 0 0 1 14.79 6.56 21 21 0 0 1 6.2 14.81v44.74a3.62 3.62 0 0 0 1.68 3.18 6.2 6.2 0 0 0 3.67 1.2 6.53 6.53 0 0 0 3.86-1.2 3.67 3.67 0 0 0 1.68-3.2v-44.83a31 31 0 0 0-8.88-22.25q-8.92-9.33-20.98-9.33Zm-178.8 30.75a24.44 24.44 0 0 1-1.18 8.34 7.73 7.73 0 0 1-3.68 4.46 16 16 0 0 1-4.69 1.65 41.31 41.31 0 0 1-5.69.34h-35.33v3.91a16.69 16.69 0 0 0 6 13.51q6 5 15.75 5a27.37 27.37 0 0 0 13-3.22q6.12-3.22 7.45-3.22a5.89 5.89 0 0 1 4.86 2.7 8.81 8.81 0 0 1 2 5.24c0 2.78-2.69 5.58-8 8.43s-11.95 4.24-19.75 4.24q-17.07 0-28-9.28t-10.88-24.25v-16q0-13.32 10.21-23a34.5 34.5 0 0 1 24.61-9.69 34.07 34.07 0 0 1 23.52 8.77 28.41 28.41 0 0 1 9.8 22.11Zm-16.58-1.5A15 15 0 0 0 538 490a16.75 16.75 0 0 0-12.05-4.65 17.68 17.68 0 0 0-12.05 4.4 14.25 14.25 0 0 0-5 11.19v5.32h27.8q3.68 0 4.93-1c.82-.65 1.22-1.99 1.22-3.97Zm248.66 14.94v6.23q0 10 7.11 15.94t18.35 6a26.65 26.65 0 0 0 10-1.7 28.66 28.66 0 0 0 6.52-3.37 6.79 6.79 0 0 1 3.6-1.69 4.11 4.11 0 0 1 3.26 1.77 5.57 5.57 0 0 1 1.44 3.45c0 2.38-2.41 4.81-7.21 7.35S823.76 554 816.62 554c-10.59 0-19.25-2.93-25.94-8.85s-10.05-13.63-10.05-23.19v-18.89a29.61 29.61 0 0 1 9.37-21.84 32.22 32.22 0 0 1 44.63-.42 29 29 0 0 1 9.29 22 21.92 21.92 0 0 1-1.09 7.57 7.13 7.13 0 0 1-3.53 4 16.32 16.32 0 0 1-4.42 1.52 34.8 34.8 0 0 1-5.53.34Zm0-8.11H825c3.36 0 5.57-.35 6.7-1.09s1.67-2.27 1.67-4.61a20.89 20.89 0 0 0-5.95-14.74 19.54 19.54 0 0 0-15-6.36 20.3 20.3 0 0 0-14.82 6 19.54 19.54 0 0 0-6.11 14.41Zm-174.65-36.21h-5.38a21 21 0 0 0-12.62 4.18 26.54 26.54 0 0 0-8.63 10.13v-7.5a4.89 4.89 0 0 0-2.34-4.18 9.69 9.69 0 0 0-5.67-1.62 10.8 10.8 0 0 0-6.13 1.61 4.76 4.76 0 0 0-2.43 4.12v68.29c0 1.47.8 2.81 2.43 4.06a9.75 9.75 0 0 0 6.13 1.85 10.82 10.82 0 0 0 6.34-1.85c1.79-1.23 2.68-2.58 2.68-4v-34.52q0-10.92 6.12-17.82c4.07-4.6 8.8-6.9 14.13-6.9h5.38a5.94 5.94 0 0 0 4.67-2.39 8.43 8.43 0 0 0 2-5.61 8.13 8.13 0 0 0-2-5.54 6 6 0 0 0-4.68-2.31Zm65.68 9.45a29.9 29.9 0 0 1 9.54 22.25v18.37q0 12.64-9.62 22.35T660.11 554q-12.56 0-22.1-9.68t-9.54-22.35v-18.39A32 32 0 0 1 660.11 472a31.12 31.12 0 0 1 22.43 9.33Zm-1.34 22.31a20.76 20.76 0 0 0-6.28-14.77 19.88 19.88 0 0 0-14.81-6.54 19.38 19.38 0 0 0-14.66 6.54 21.07 21.07 0 0 0-6.1 14.77v18.26a21.72 21.72 0 0 0 6.1 15.18 19.23 19.23 0 0 0 14.66 6.62 19.67 19.67 0 0 0 14.9-6.62 21.58 21.58 0 0 0 6.19-15.18Z" style="fill:#fff"/>
</svg>
