<svg xmlns="http://www.w3.org/2000/svg" viewBox="0 0 1024 1024">
   <circle cx="512" cy="512" r="512" style="fill:#f922a3"/>
   <path d="M383.36 542.8c1.53 1.87 2.38 4.2 2.41 6.62 0 3.64-2.97 7.01-8.91 10.13-5.93 3.12-13.17 4.68-21.68 4.7-13.44 0-23.51-3.55-30.21-10.65-6.7-7.09-10.06-16.5-10.08-28.18v-17.55c0-11.56 3.36-20.92 10.08-28.08 6.72-7.15 16.72-10.72 30.01-10.73 8.39 0 15.43 1.46 21.11 4.39 5.68 2.91 8.53 6.21 8.53 9.84-.08 2.41-.92 4.75-2.42 6.64a7.024 7.024 0 0 1-5.72 3.32c-.64 0-2.93-.98-6.88-2.92a29.1 29.1 0 0 0-13.06-2.92c-14.22 0-21.32 6.84-21.31 20.53v17.46c0 13.69 7.17 20.53 21.5 20.53 4.61.07 9.16-1.01 13.26-3.13 3.94-2.08 6.28-3.13 7.08-3.13a7.632 7.632 0 0 1 6.28 3.14Zm65.54-36.87 24.99-22.43a5.799 5.799 0 0 0 1.73-4.29c-.1-2.57-1.3-5-3.28-6.64a9.642 9.642 0 0 0-6.62-3.12 5.77 5.77 0 0 0-4.25 1.77l-40.5 37.45v-86.76a5.439 5.439 0 0 0-3-4.77 13.989 13.989 0 0 0-7.45-1.87c-2.52-.12-5.02.52-7.16 1.87-1.68 1-2.71 2.81-2.71 4.77v133.97c0 1.7.94 3.25 2.81 4.7 2.05 1.48 4.54 2.25 7.07 2.14 2.61.08 5.18-.68 7.34-2.14 2.07-1.45 3.1-3 3.1-4.7v-24.37l14.15-12.86 28.47 42.32a6.449 6.449 0 0 0 5.41 2.91c2.45 0 4.97-1.16 7.55-3.47s3.88-4.63 3.88-6.94a6.378 6.378 0 0 0-1.16-3.47l-30.4-44.04v-.02ZM204.79 470.8c-2.28-1.32-4.9-1.96-7.53-1.87-2.54-.13-5.07.52-7.24 1.87l-27.55 17.26c-1.23 1.16-1.76 2.9-1.54 5.3.31 2.55 1.44 4.93 3.25 6.76a12.67 12.67 0 0 0 6.63 4.06c2.45.56 4.33.25 5.55-.89l10.89-6.79v60.62c0 1.71.95 3.27 2.86 4.72 2.06 1.51 4.57 2.28 7.12 2.17 2.64.07 5.24-.7 7.43-2.17 2.09-1.45 3.13-3.01 3.13-4.72V475.6a5.501 5.501 0 0 0-3.03-4.8h.02Zm-59.27-53.65a13.998 13.998 0 0 0-7.34-1.87c-2.57-.11-5.13.55-7.33 1.87a5.621 5.621 0 0 0-2.85 4.83v135.15c0 1.71.98 3.27 2.95 4.72 2.11 1.49 4.65 2.26 7.23 2.17 2.59.04 5.12-.71 7.24-2.17 2.08-1.43 3.13-3.01 3.13-4.72v-135.2a5.588 5.588 0 0 0-3.03-4.79Zm142.16 62.78c6.38 7.23 9.59 16.24 9.6 27.02v48.91a5.88 5.88 0 0 1-2.83 4.81 11.79 11.79 0 0 1-7.07 2.04c-2.36.07-4.67-.65-6.57-2.04a5.953 5.953 0 0 1-2.72-4.81v-6.83c-8.65 10.15-18.39 15.23-29.24 15.23-7.49 0-13.67-2.21-18.51-6.65-4.83-4.41-7.25-10.78-7.25-19.1 0-10.41 3.85-17.66 11.56-21.74 7.71-4.08 18.95-6.13 33.7-6.15h8.51v-3.61a24.81 24.81 0 0 0-4.73-15.18c-3.16-4.27-7.97-6.39-14.42-6.38-5.06-.11-10.08.99-14.62 3.22-2.2 1.25-4.51 2.33-6.88 3.23a6.116 6.116 0 0 1-5.33-3.23 13.061 13.061 0 0 1-2.03-7.11c0-3.38 3.13-6.31 9.4-8.78a53.245 53.245 0 0 1 19.84-3.7c13.33 0 23.18 3.61 29.58 10.83v.04h.01Zm-10.76 42.05h-4.83c-4.76-.07-9.51.2-14.23.77-3.59.49-6.99 1.9-9.88 4.09a10.941 10.941 0 0 0-4.35 9.17c0 4.17 1.16 7.3 3.47 9.45 2.5 2.21 5.77 3.37 9.11 3.23 4.9 0 9.58-2.08 14.03-6.25 4.46-4.18 6.68-8.57 6.68-13.27v-7.21h.01Zm496.8-52.77a28.669 28.669 0 0 0-15.87 4.36 28.11 28.11 0 0 0-10.08 10.68v-9.1c0-1.33-.65-2.59-1.73-3.37a6.367 6.367 0 0 0-4.07-1.4 7.23 7.23 0 0 0-4.45 1.29 3.995 3.995 0 0 0-1.73 3.4v82.51c.04 1.35.68 2.63 1.73 3.47a6.378 6.378 0 0 0 4.45 1.56c1.63.02 3.2-.53 4.45-1.56 1.16-.8 1.88-2.07 1.95-3.47v-51.71c0-7.39 2.31-13.35 6.94-17.91a22.417 22.417 0 0 1 16.07-6.82c6.53-.04 12.76 2.72 17.11 7.59a24.26 24.26 0 0 1 7.17 17.14v51.77c-.05 1.48.69 2.88 1.94 3.68 1.23.91 2.72 1.39 4.24 1.39a7.58 7.58 0 0 0 4.46-1.39 4.24 4.24 0 0 0 1.94-3.7v-51.86c.16-9.61-3.53-18.88-10.28-25.75-6.88-7.2-14.97-10.79-24.27-10.79h.03Zm-206.86 35.58c.11 3.27-.36 6.53-1.36 9.64-.7 2.2-2.23 4.06-4.25 5.16-1.7.92-3.52 1.56-5.42 1.91-2.18.28-4.39.41-6.58.39h-40.88v4.53a19.327 19.327 0 0 0 6.94 15.63c4.63 3.85 10.7 5.78 18.22 5.78 5.25.02 10.41-1.25 15.04-3.72 4.72-2.49 7.59-3.72 8.62-3.72a6.8 6.8 0 0 1 5.62 3.12c1.41 1.71 2.23 3.84 2.31 6.07 0 3.22-3.11 6.46-9.25 9.75s-13.82 4.91-22.84 4.91c-13.17 0-23.97-3.58-32.39-10.73-8.43-7.16-12.62-16.51-12.59-28.06v-18.51c0-10.28 3.94-19.15 11.81-26.61a39.943 39.943 0 0 1 28.47-11.21 39.405 39.405 0 0 1 27.21 10.15 32.903 32.903 0 0 1 11.34 25.58v-.04h-.01Zm-19.18-1.73a17.34 17.34 0 0 0-5.61-13.02 19.363 19.363 0 0 0-13.94-5.38 20.463 20.463 0 0 0-13.94 5.09c-3.79 3.22-5.9 7.97-5.78 12.95v6.15h32.16c2.84 0 4.73-.38 5.71-1.16.95-.75 1.41-2.3 1.41-4.59v-.04Zm287.67 17.28v7.21c0 7.71 2.74 13.86 8.23 18.44 5.49 4.58 12.56 6.89 21.23 6.94 3.95.09 7.88-.58 11.56-1.96 2.67-.97 5.2-2.28 7.54-3.89a7.801 7.801 0 0 1 4.17-1.95c1.52.04 2.91.81 3.77 2.05 1 1.1 1.58 2.51 1.67 3.99 0 2.75-2.79 5.56-8.35 8.5s-12.51 4.43-20.78 4.43c-12.25 0-22.27-3.39-30.01-10.24-7.73-6.85-11.63-15.76-11.63-26.83v-21.85a34.245 34.245 0 0 1 10.84-25.27c14.29-13.99 37.08-14.2 51.63-.49a33.561 33.561 0 0 1 10.75 25.45c.1 2.97-.33 5.93-1.27 8.76a8.197 8.197 0 0 1-4.08 4.63c-1.61.83-3.34 1.42-5.12 1.76-2.12.31-4.25.44-6.39.39l-43.78-.05h.01Zm0-9.38h38.74c3.88 0 6.45-.4 7.76-1.27s1.93-2.63 1.93-5.33c.04-6.37-2.43-12.5-6.88-17.05a22.558 22.558 0 0 0-17.36-7.35 23.496 23.496 0 0 0-17.15 6.94 22.664 22.664 0 0 0-7.07 16.67l.02 7.4h.01Zm-202.06-41.89h-6.23a24.298 24.298 0 0 0-14.6 4.83c-4.27 3-7.7 7.03-9.98 11.72v-8.67a5.66 5.66 0 0 0-2.71-4.83 11.31 11.31 0 0 0-6.56-1.88c-2.5-.1-4.96.55-7.09 1.87-1.72.97-2.8 2.79-2.81 4.77v79.01c0 1.7.93 3.25 2.81 4.7a11.24 11.24 0 0 0 7.09 2.14c2.61.07 5.17-.68 7.33-2.14 2.07-1.42 3.1-2.99 3.1-4.63v-39.94c0-8.42 2.36-15.3 7.08-20.62 4.71-5.32 10.18-7.99 16.34-7.99h6.23a6.894 6.894 0 0 0 5.4-2.76 9.682 9.682 0 0 0 2.31-6.49c.05-2.35-.76-4.64-2.31-6.4a6.93 6.93 0 0 0-5.41-2.67ZM709.27 480a34.593 34.593 0 0 1 11.04 25.75V527c0 9.75-3.71 18.37-11.13 25.86-7.42 7.48-16.04 11.24-25.86 11.24s-18.21-3.73-25.57-11.2c-7.35-7.46-11.04-16.08-11.04-25.86v-21.27c.26-20.1 16.51-36.31 36.6-36.54 9.75-.07 19.12 3.83 25.95 10.79Zm-1.55 25.81a23.95 23.95 0 0 0-7.27-17.08 22.986 22.986 0 0 0-17.14-7.57 22.465 22.465 0 0 0-16.96 7.57 24.374 24.374 0 0 0-7.06 17.08v21.12a25.16 25.16 0 0 0 7.06 17.56 22.28 22.28 0 0 0 16.96 7.66c6.58.07 12.87-2.73 17.24-7.66 4.6-4.68 7.18-11 7.16-17.56v-21.12h.01Z" style="fill:#fff"/>
</svg>
