<svg xmlns="http://www.w3.org/2000/svg" viewBox="0 0 1024 1024">
   <circle cx="512" cy="512" r="512" style="fill:#d80037"/>
   <path d="M328.4 672c3.58-3 9-7.17 16.12-6.57s23.29 1.79 29.26.6 10.75.6 12.54-4.18 2.39-20.31 7.17-26.28 17.92-12.57 19.71-18.5 2.39-8.36 0-14.33-7.76-11.35-15.53-14.93-14.93-6-14.93-6-15.53 14.33-16.12 17.92 1.19 7.17-2.39 9-9.55-3.58-10.75-13.14 3-20.9 2.39-27.47-4.78-12.54-1.19-19.11 11.94-16.72 18.51-21.5 17.92-5.37 19.71-11.35-11.35-28.67-11.35-34 1.79-15.53-2.39-23.89-9-26.28-26.87-37.62-30.46-16.12-33.44-24.48-.6-8.36 3-10.75-9.55-16.12-13.73-29.26-11.35-39.41-8.36-41.8 11.94 0 13.73 4.78 9 34 9 34-1.79-22.1 1.19-28.67 6.57-13.14 10.15-11.35 1.79 40.61 1.79 40.61 3.58-9 6-14.33 4.18-10.15 7.17-7.17.6 31.65.6 31.65 4.78-7.17 8.36-9 5.37-3 7.76 1.19 1.79 9.55 1.79 9.55 1.79-6 6-6 9.55 1.79 7.76 6.57 16.12.6 14.93 9 0 16.12 4.78 16.12 7.76 6.57 17.32 4.18c6 3.58-3 25.68 1.19 22.69s13.73-5.37 17.32 1.19-4.78 14.33 0 20.31 0 11.35 7.17 16.12 7.76 1.19 9.55 11.94S455 483.3 458 487.48s6.57 7.17 6 16.12-6 17.32 1.19 16.12 10.15-8.36 15.53-11.35a86.39 86.39 0 0 0 13.73-9c7.17-5.37 8.36-12.54 12.54-14.33s7.76-1.19 13.73-3.58 11.94-7.76 14.93-10.15 3-3.58 8.36-8.36 10.75-7.76 14.33-15.53 3-8.36 7.17-19.71 3-14.93 5.37-19.71 2.39-9 6.57-13.14 7.76-9 8.36-4.78a110.28 110.28 0 0 1 .6 13.73c0 3.58 5.37-5.37 10.15-14.33s2.39-10.15 4.18-17.92 0-13.14.6-22.1 1.79-9.56 2.39-22.69 1.66-15.34 1.66-24.9-.35-13.42-.46-20.49c2.07-5.42 4.4-7.08 6-6.57 1.94.51 4.55.55 6.1 7.76 1.19 7.76 2.27 13.55 3.45 28.07-1.19 14.33-1.79 26.87.6 30.46s4.18 3 6-1.19 1.79-6 4.18-13.14 2.15-11.77 3.38-21.77c-.6-14.93.11-21.73.71-33.08s-.07-11.68 1.19-18.51c1.08-6.47 2.59-8 7.76-7.17 3 3.58 3.58 12.54 4.78 20.31s1.19 7.17 1.79 21.5.08 20.05-1.11 24.83c-.28 5.33-1.34 10.62-.68 12.79 3.58-2.39 3.58-6.57 7.17-14.93s6.57-15.53 7.76-25.08 4.38-13.05 6.42-23.57c4.78-10.15 5.82-12.61 9.11-12.86 3.47 2.49 5.11 4.73 4.78 12.54-1.79 8.36-1.79 12.54-4.78 20.9s-2.39 11.94-6.57 20.9c-2.54 7.86-2.85 10.53-4.18 13.14 6 .6 5.89-1.78 9.55-6 6-11.5 3.75-9.07 6-12.54 3.32-6.93 6.15-9.49 9-8.36 3 4.78 4.18 6 1.79 11.35s-.6 1.79-4.18 9.55-7.17 10.75-2.39 10.15 5.37 0 8.36-4.78 0-5.37 6.57-8.36 10.75-8.36 12.54-4.18 2.39 3.58-1.79 9.56-8.36 7.76-6.57 10.75 6.57 3.58 10.15 3.58 4.18.6 2.39 6.57-2.39 6-3 9 2.39 5.37 2.39 5.37 5.37-3.58 1.19 5.37-6.57 6.57-9 10.75-4.78 8.36-1.19 8.36 7.17-.6 6.57 2.39-6 6-3 7.76 5.37-.6 7.76 1.79 0 6.57 0 9.56-.6 5.37.6 8.36 3.58 6 1.79 9 .6 3.58-4.18 6.57-7.76 2.39-7.76 5.37-.6 2.39 2.39 4.78 6.57.6 4.18 6-1.79 4.78-3 9.55.6 2.39-4.78 13.73-10.75 19.71-16.12 22.69-4.18 9.55-.6 10.75 4.18 6.57.6 14.33-7.76 17.92-9 23.29-2.39 6-8.36 12.54-10.69 12.45-16.06 14.24-6 7.76-9.55 10.75-4.78 4.78-12.54 4.78-7.76-1.79-15.53.6-11.35 4.78-11.94 8.36-3 5.37-7.76 4.18-1.19 2.39-7.17 4.78-4.18 5.37-11.35 4.78-10.75-6-12.54 0-2.39 10.75-10.15 5.37-11.94-19.71-16.12-4.78-4.18 18.51.6 22.69 6 7.76 16.72 11.94 10.7 9 18.5 12 8.36 4.18 20.31 10.15S618 658.87 625.2 663s9 8.36 10.75 12.54 9.56 9 6.57 14.93-9 2.39-9 5.37 1.19 5.37-1.19 11.35-1.79 8.36-10.15 10.75-13.14 3.58-17.32 1.79-5.37 5.37-9.56 3.58-6-7.17-9-4.18 2.39 4.78-4.78 6.57-7.76-3-8.36 1.19 1.79 8.36-6 4.18-5.37-12.54-11.35-6.57-3 13.14-13.73 7.17-7.17-6.57-15.53-6-8.36 1.19-11.35-5.37 3-4.78-10.15-5.37-6.57 7.76-14.93-3.58-10.15-22.69-13.73-10.15 0 15.53-5.37 19.11-32.84 2.39-32.84 2.39-.6 13.73-3 16.12-8.36-2.39-13.73 2.39-1.68 7.79-6.45 12.01-14.34 4.78-14.34 4.78 6.57-5.37 8.36-10.15 4.18-13.14 4.18-13.14-9.55 3.58-13.73 4.18-10.75-.6-10.75-.6l1.79 13.71s-11.35 0-11.35-4.78 3.58-17.92 6.57-19.71 7.17-1.19 7.17-1.19-1.19-6 1.79-7.17 4.78 0 9.55 0 26.28-6.57 26.28-6.57-.6-15.53 1.79-22.1 13.73-25.08 8.36-28.07-9.55-.6-12.54 2.39-8.36 11.94-19.71 14.33-20.3 3.58-20.3 3.58-2.39 1.19-2.39 6 4.18 9.55-1.79 15.53-10.75 11.35-17.32 8.36-7.76-6.57-7.76-6.57 4.78 3 12.54 1.19 4.78-16.72 4.18-19.71-6.57-6-10.15-3-8.36 10.75-5.37 13.73-8.36-6.57-7.76-10.75a21.11 21.11 0 0 1 2.39-7.17s-7.76 0-12.54-.6-8.36-3-8.36.6 2.39 19.71-3 9.55S323 677.38 328.4 672Z" style="fill:#fff"/>
</svg>
