<svg xmlns="http://www.w3.org/2000/svg" viewBox="0 0 1024 1024">
   <circle cx="512" cy="512" r="512" style="fill:#b7236a"/>
   <path d="M769.83 729.3c-92.31 22.57-124.47-48.29-128.4-58-9.07-69.12 14.79-159.11-18.18-182.91-24.45-17.3-52.89 4.07-61.54 11.52h-.07c-14.62 12.83-24.24 31.37-38.5 59.89-21.76 43.64-39.57 73.82-53.59 94.64-6.55-44.24-8.15-110-3.21-197C478.09 252.44 352.61 256 352.61 256c7.49 150.43-7.49 350.78-7.49 350.78-.36 61.31 2.14 112.29 52.4 141.88 50.52 30 87.25 9 108.78-13 25.34-26.74 52.22-92.89 52.43-95.68a288.69 288.69 0 0 0 2.84 30.27C571.91 740.07 625 760 625 760c47.06 20.32 95.89-4.63 95.89-4.63-.36 0 39.38-17.78 49.61-24.31.71-.71.35-2.14-.71-1.78" style="fill:#fff"/>
</svg>
