<svg xmlns="http://www.w3.org/2000/svg" viewBox="0 0 1024 1024">
   <circle cx="512" cy="512" r="512"/>
   <path d="M680.42 463.64c14.33 0 25.95-11.62 25.95-25.95s-11.62-25.95-25.95-25.95-25.95 11.62-25.95 25.95 11.62 25.95 25.95 25.95Zm130.13-.87a18.534 18.534 0 0 0-14.09.12c-4.5 1.9-8.07 5.49-9.93 10-11.38 28.17-57.88 74.18-94.53 85.75-3.36 1.54-7 2.38-10.7 2.48-3.7.1-7.37-.55-10.81-1.9-8.49-5.5-6.95-34.34 0-56.53a18.335 18.335 0 0 0-8.31-21.88 18.264 18.264 0 0 0-12.26-2.09c-4.21.75-8.02 2.96-10.77 6.22-47.17 53.83-89.61 92.7-110.45 106.11 0-5.69 0-12.44.68-17.36 1.35-23.05 2.41-42.93-12.35-52.47-4.03-2.48-8.67-3.8-13.41-3.8s-9.38 1.31-13.41 3.8c-27.59 14.18-73.5 59.03-107.26 91.93 2.12-9.65 4.63-19.87 7.23-29.71a520.436 520.436 0 0 1 27.11-79.77c26.24-63.28 58.74-113.34 81.61-123.57 1.39-.66 2.9-1.05 4.44-1.16.77-.04 1.52.2 2.12.68 2.41 1.54 2.51 2.51 2.6 3.38 1.54 15.92-28.94 54.02-64.53 92.8a635.334 635.334 0 0 0-35.98 90.29C515.39 457.57 547.9 412.72 544.62 379.44a40.348 40.348 0 0 0-5.79-17.43 40.371 40.371 0 0 0-12.92-13.05 42.536 42.536 0 0 0-41.96-2.41c-46.59 20.74-98.39 121.15-126.46 217.33-23.54 21.7-47.07 32.41-70.03 32.03a83.259 83.259 0 0 1-54.02-23.73 18.428 18.428 0 0 0-12.59-5.36c-4.73-.1-9.32 1.62-12.81 4.8a18.43 18.43 0 0 0-5.97 12.31c-.33 4.72 1.16 9.38 4.17 13.03a119.44 119.44 0 0 0 79.87 35.69c14.87.28 29.64-2.34 43.5-7.72 3.38-12.83 5.5-20.16 5.59-20.35a6.073 6.073 0 0 1 2.97-3.6c.71-.38 1.48-.61 2.28-.69.8-.08 1.6 0 2.37.24.77.23 1.48.62 2.1 1.13.62.51 1.13 1.14 1.51 1.84.38.71.61 1.48.69 2.28.08.8 0 1.6-.24 2.37 0 0-1.06 3.76-2.89 10.32-1.25 6.46-2.32 12.93-3.28 19.29-4.34 22.67 0 28.94 2.8 32.12 1.86 2.49 4.28 4.51 7.06 5.9 2.78 1.39 5.85 2.11 8.95 2.11 9.65 0 13.5-3.57 48.23-37.43 26.82-27.33 55.2-53.1 84.98-77.17l7.14-5.79a6.249 6.249 0 0 1 4.52-1.32c1.62.16 3.11.95 4.17 2.19.98 1.3 1.42 2.92 1.24 4.53-.18 1.61-.97 3.1-2.21 4.15-4.53 3.57-9.65 8.1-15.72 13.02-.87 19.29-.48 36.75 11.09 46.78 3.06 2.64 6.69 4.53 10.62 5.5 3.92.97 8.02 1 11.96.09 18.33-3.67 46.69-26.53 73.6-52.09 0 0 29.52-30.87 37.91-40.8a6.216 6.216 0 0 1 4.21-2.25 6.24 6.24 0 0 1 4.57 1.38 6.216 6.216 0 0 1 2.25 4.21c.16 1.65-.34 3.29-1.38 4.57-3.18 3.76-9.16 10.32-15.43 17.07a46.487 46.487 0 0 0 19.29 26.33 59.58 59.58 0 0 0 25.79 7.81c9.08.6 18.18-.88 26.59-4.34 48.23-15.24 102.44-69.93 117.49-106.88a18.51 18.51 0 0 0 1.61-7.18c.05-2.48-.39-4.94-1.31-7.24s-2.29-4.4-4.03-6.16a18.463 18.463 0 0 0-6.11-4.1Z" style="fill:#fff"/>
</svg>
