<svg xmlns="http://www.w3.org/2000/svg" viewBox="0 0 1024 1024">
   <circle cx="512" cy="512" r="512"/>
   <path d="m504.95 490.66-6.42 9.18v-18.86h-20.89v2.92c1.8.61 2.2 7.88 2.28 12.07v55.51h18.6v-43.75c1.36-4.35 6.33-9.36 13.22-9.36h11.18v-16.84h-5.93c-5.23 0-8.39 3.4-12.05 9.13Zm141.81-41.8c2.15.73 2.31 10.92 2.31 14.07v20.63c-3.24-2.97-8.48-4.6-14.68-4.6-19.27 0-34.25 14.01-34.25 39.48 0 22.92 12.98 34.38 29.79 34.38l19.14-7.91v6.57h18.74V445.94h-21.04v2.92Zm2.31 92.83h-7.2c-17.47 0-23.26-13.27-23.26-29.72s6.49-27.22 17.8-27.22c8.07 0 12.65 6.19 12.65 17.34v39.59Zm34.9-92.83c1.89.65 2.24 8.63 2.3 12.67v89.94h18.74V445.93h-21.03v2.92Zm68.02 30.1c-19.08 0-33.3 16.02-33.3 38.68 0 20.76 13.08 35.18 32.62 35.18 1.98 0 3.94-.49 6.03-1.35l19.55-8.26v-3.45s-4.79 1.93-12.79 1.93c-22.23 0-29.1-12.86-28.55-31.48h43.94v-3.34c-.01-16.19-9.45-27.91-27.51-27.91Zm-16.17 26.02c1.08-12.4 5.93-21.3 14.83-21.3s12.13 8.63 12.13 21.3h-26.96Zm-175.68-26.04c-17.23 0-28.45 6.64-28.45 17.83v1.61h16.77v-4.04c0-6.47 3.57-10.65 10.04-10.65 7.01 0 9.08 4.85 9.08 12.54v11.21l-20.35 7.41c-10.11 3.77-18.47 8.73-18.47 20.33 0 10.79 8.58 17.66 18.06 17.66l2.22-.05 18.66-7.82v6.52h18.65l-.16-50.68c0-15.77-8.8-21.86-26.05-21.86Zm7.45 62.76h-9c-8.3 0-11.76-4.63-11.76-11.64 0-7.55 3.51-10.53 9.16-12.68l11.59-4.72v29.05Zm270.84-61.65v2.85c4.1.79 5.98 5.67 2.77 14.5l-14.43 35.32-17.81-42.66c-1.76-4.62-2.68-7.02-3.31-10.02h-23.43v2.92c2.47 1.24 4.6 3.3 8.58 11.37l27.05 60.19-2.17 5.31c-.65 1.31-2.28 2.79-4.81 2.79l-19.36.09.07 15.35h10.26c8.6 0 12.97-5.08 15.85-11.09l30.84-72.3c1.93-4.84 4.36-9.71 6.36-11.35v-3.27h-16.46Zm-399.21 22.18c-.28-.02-.29-.41-.02-.46 11.93-2.03 22.98-9.48 22.98-21.94 0-15.48-11.8-22.9-32.55-22.9h-82.12c-.47 3.32-1.32 5.61-2.24 8.46l-21.11 57.19-21.21-57.44c-.95-2.68-2.15-5.46-2.52-8.22h-19.4v2.92c2.24.76 1.7 6.8.89 12.09l-10.03 68.47c-.6 3.88-2.52 4.95-6.09 4.95h-8.56c-3.62 0-5.04-1.59-5.04-4.95v-66.88c.01-3.52.23-12.97 2.31-13.68v-2.92h-21.96v43.2H192v-43.2h-22.1v2.92c2.01.68 2.28 9.62 2.3 13.36v61.98c-.03 3.74-.29 12.68-2.3 13.36v2.92H192v-45.24h40.54v45.24h45.53c0-2.34.33-7.25.74-10.12l8.94-62.21 26.45 72.32h6.85l26.67-72.32s6.31 42.32 8.9 62.21c.74 5.72.79 8.52.79 10.12h23.02v-2.92c-2.17-1.44-3.71-14.07-3.71-14.07-3.39-24.1-9.49-66.6-9.49-66.6-.55-3.34.94-4.86 3.99-4.86h20.5c4.18 0 5.31 1.94 5.31 6.23v65.39c0 5.8-.39 13.65-2.26 13.9v2.92h37.11c23.3 0 35.69-9.16 35.69-25.46.01-13.75-11.67-22.6-28.33-23.8Zm-22.43-39.18h6.47c12.44.15 19.67 5.61 19.67 17.6 0 12.66-6.33 19.14-19.53 19.14h-6.6v-36.74Zm12.52 82.39h-1.35c-8.08 0-11.18-2.13-11.18-9.4v-30.42h9.29c12.85.12 21.82 8.15 21.82 20.14 0 13.34-6.47 19.67-18.59 19.67Z" style="fill:#fff"/>
</svg>
