<svg xmlns="http://www.w3.org/2000/svg" viewBox="0 0 1024 1024">
   <circle cx="512" cy="512" r="512" style="fill:#03a9f4"/>
   <path d="m521.47 719.58 39.87-39.73h36.72c2.88 7.95 10.41 13.7 19.45 13.7 11.37 0 20.55-9.18 20.55-20.55s-9.18-20.55-20.55-20.55c-8.9 0-16.58 5.75-19.45 13.7h-42.47L518.6 703v-45.07l43.98-43.98h71.1c2.88 7.95 10.41 13.7 19.45 13.7 11.37 0 20.55-9.18 20.55-20.55s-9.18-20.55-20.55-20.55c-8.9 0-16.58 5.75-19.45 13.7h-57.4l41.1-40.96v-34.25l29.59-29.45c2.74 1.23 5.75 2.05 8.9 2.05 11.37 0 20.55-9.18 20.55-20.55s-9.18-20.55-20.55-20.55-20.55 9.18-20.55 20.55c0 3.15.68 6.16 2.05 8.9l-19.86 19.86v-62.74c7.95-2.88 13.7-10.41 13.7-19.32 0-11.37-9.18-20.55-20.55-20.55s-20.55 9.18-20.55 20.55c0 8.9 5.75 16.58 13.7 19.32v62.74l-19.86-19.86c1.23-2.74 2.05-5.75 2.05-8.9 0-11.37-9.18-20.55-20.55-20.55s-20.55 9.18-20.55 20.55 9.18 20.55 20.55 20.55c3.15 0 6.16-.68 8.9-2.05l29.59 29.45v28.63l-36.99 36.99v-27.13c7.95-2.88 13.7-10.41 13.7-19.32 0-11.37-9.18-20.55-20.55-20.55s-20.55 9.18-20.55 20.55c0 8.9 5.75 16.58 13.7 19.32v40.83L519 638.61V437.5l28.22-28.08c2.74 1.23 5.75 2.05 8.9 2.05 11.37 0 20.55-9.18 20.55-20.55s-9.18-20.55-20.55-20.55-20.55 9.18-20.55 20.55c0 3.15.68 6.16 2.05 8.9l-25.34 25.34-25.34-25.34c1.23-2.74 2.05-5.75 2.05-8.9 0-11.37-9.18-20.55-20.55-20.55s-20.55 9.18-20.55 20.55 9.18 20.55 20.55 20.55c3.15 0 6.16-.68 8.9-2.05l28.22 28.08v143.71l-49.46-49.32v-39.46c7.95-2.88 13.7-10.41 13.7-19.32 0-11.37-9.18-20.55-20.55-20.55s-20.55 9.18-20.55 20.55c0 8.9 5.75 16.58 13.7 19.32v25.76l-38.5-38.36v-38.09c7.95-2.88 13.7-10.41 13.7-19.32 0-11.37-9.18-20.55-20.55-20.55s-20.55 9.18-20.55 20.55c0 8.9 5.75 16.58 13.7 19.32v43.7l42.47 42.33h-24.39c-2.88-7.95-10.41-13.7-19.45-13.7-11.37 0-20.55 9.18-20.55 20.55s9.18 20.55 20.55 20.55c8.9 0 16.58-5.75 19.45-13.7h38.09l59.05 59.05v102.61l-31.51-31.51v-39.46c7.95-2.88 13.7-10.41 13.7-19.32 0-11.37-9.18-20.55-20.55-20.55s-20.55 9.18-20.55 20.55c0 8.9 5.75 16.58 13.7 19.32v25.76l-45.89-45.89c1.23-2.74 2.05-5.75 2.05-8.9 0-11.37-9.18-20.55-20.55-20.55s-20.55 9.18-20.55 20.55 9.18 20.55 20.55 20.55c3.15 0 6.16-.68 8.9-2.05l45.89 45.89h-24.39c-2.88-7.95-10.41-13.7-19.45-13.7-11.37 0-20.55 9.18-20.55 20.55s9.18 20.55 20.55 20.55c8.9 0 16.58-5.75 19.45-13.7h38.09l38.5 38.36H311.84c-5.89 0-10.69-4.79-10.69-10.69V526.41h-48.5c-7.12 0-12.74-5.75-12.74-12.74 0-3.42 1.37-6.58 3.7-9.04l256.9-259.89c6.16-6.3 16.3-6.3 22.6-.14l.14.14 134.12 135.08v-24.93c0-5.89 4.79-10.69 10.69-10.69h44.52c5.89 0 10.69 4.79 10.69 10.69v91.65l56.99 58.09c4.93 5.07 4.93 13.15-.14 18.08-2.33 2.33-5.62 3.7-8.9 3.7h-47.81v182.48c0 5.89-4.79 10.69-10.69 10.69H521.47Zm-115.35-36.99c-4.52 0-8.22-3.7-8.22-8.22s3.7-8.22 8.22-8.22 8.22 3.7 8.22 8.22-3.7 8.22-8.22 8.22Zm60.42-61.65c-4.52 0-8.22-3.7-8.22-8.22s3.7-8.22 8.22-8.22 8.22 3.7 8.22 8.22-3.7 8.22-8.22 8.22Zm-71.38-9.59c-4.52 0-8.22-3.7-8.22-8.22s3.7-8.22 8.22-8.22 8.22 3.7 8.22 8.22-3.7 8.22-8.22 8.22Zm-6.85-68.5c-4.52 0-8.22-3.7-8.22-8.22s3.7-8.22 8.22-8.22 8.22 3.7 8.22 8.22-3.7 8.22-8.22 8.22Zm171.52 9.59c-4.52 0-8.22-3.7-8.22-8.22s3.7-8.22 8.22-8.22 8.22 3.7 8.22 8.22-3.7 8.22-8.22 8.22Zm93.3 63.02c-4.52 0-8.22-3.7-8.22-8.22s3.7-8.22 8.22-8.22 8.22 3.7 8.22 8.22-3.7 8.22-8.22 8.22Zm-35.62 65.76c-4.52 0-8.22-3.7-8.22-8.22s3.7-8.22 8.22-8.22 8.22 3.7 8.22 8.22-3.7 8.22-8.22 8.22Zm38.36-195.91c-4.52 0-8.22-3.7-8.22-8.22s3.7-8.22 8.22-8.22 8.22 3.7 8.22 8.22-3.7 8.22-8.22 8.22Zm-45.21-53.43c-4.52 0-8.22-3.7-8.22-8.22s3.7-8.22 8.22-8.22 8.22 3.7 8.22 8.22-3.7 8.22-8.22 8.22ZM555.72 399c-4.52 0-8.22-3.7-8.22-8.22s3.7-8.22 8.22-8.22 8.22 3.7 8.22 8.22-3.7 8.22-8.22 8.22Zm-87.82 0c-4.52 0-8.22-3.7-8.22-8.22s3.7-8.22 8.22-8.22 8.22 3.7 8.22 8.22-3.7 8.22-8.22 8.22Zm-71.38 31.51c-4.52 0-8.22-3.7-8.22-8.22s3.7-8.22 8.22-8.22 8.22 3.7 8.22 8.22-3.7 8.22-8.22 8.22Zm52.06 50.69c-4.52 0-8.22-3.7-8.22-8.22s3.7-8.22 8.22-8.22 8.22 3.7 8.22 8.22c.14 4.52-3.56 8.22-8.22 8.22Zm116.72 4.11c-4.52 0-8.22-3.7-8.22-8.22s3.7-8.22 8.22-8.22 8.22 3.7 8.22 8.22-3.7 8.22-8.22 8.22Z" style="fill:#fff;fill-rule:evenodd"/>
</svg>
