<svg xmlns="http://www.w3.org/2000/svg" viewBox="0 0 1024 1024">
   <circle cx="512" cy="512" r="512" style="fill:#ff41fa"/>
   <path d="M718.25 661.93q4.15-4.3 8-8.85-6.16 9.4-13.12 18.18a254.63 254.63 0 0 1-47.94 46.42q-4.47 3.32-9.09 6.44A254.75 254.75 0 0 1 596.38 754q-5.3 1.83-10.69 3.42a258.93 258.93 0 0 1-32.52 7.34q-11 1.75-22.21 2.57-5.58.41-11.19.57-11.2.33-22.4-.32a246 246 0 0 1-33.27-4.2 229.19 229.19 0 0 1-32.24-8.8 214.5 214.5 0 0 1-20.57-8.5q-4.8-2.29-9.5-4.77t-9.29-5.16q-9.18-5.35-17.89-11.43a256.56 256.56 0 0 1-62.74-62.35 64.37 64.37 0 0 1-6-11.08c-1.39-3.14-2.67-6.33-3.91-9.39-2.45-6.09-4.56-12.32-6.43-18.62-.25-.85-.55-1.68-.79-2.53q-1.48-5.25-2.67-10.55a205.4 205.4 0 0 1-4.77-53.81 207.23 207.23 0 0 1 12.78-63.31 199.93 199.93 0 0 1 19.42-38.78 197.8 197.8 0 0 1 14.44-19.56q2.68-3.2 5.48-6.28c1.53-1.68 3.07-3.33 4.65-5A203.32 203.32 0 0 1 363.49 406q4.24-3.36 8.65-6.49 4-2.86 8.19-5.53 2.9-1.86 5.87-3.62 5-2.94 10.07-5.6c2.23-1.16 4.47-2.29 6.73-3.37a204.1 204.1 0 0 1 20.74-8.48 200 200 0 0 1 43.88-9.85h.49q2.67-.28 5.34-.5h.25l1.89-.12c1.23-.08 2.47-.17 3.7-.24.89 0 1.78-.07 2.67-.1 1.06 0 2.11-.09 3.17-.11s2 0 3 0h3.34q-6 .86-11.81 2.19t-11.5 3.12a151.16 151.16 0 0 0-46.68 24.39 154.14 154.14 0 0 0-25.15 24.35q-3.71 4.52-7.08 9.32a149 149 0 0 0-24.84 59.67 155.49 155.49 0 0 0 .93 59.63c.09.82.16 1.48.24 2s.14 1 .21 1.53c.22 1.6.48 3.23.74 4.83l.05.35c.14.81.28 1.62.42 2.42 0 .18.07.36.11.55.12.62.24 1.23.37 1.84.06.3.15.59.22.88.12.48.22 1 .35 1.45.09.34.21.67.31 1s.25.86.4 1.29c-.3-.86-.66-1.71-1-2.6q1.74 8.41 4.19 16.62a205.24 205.24 0 0 0 10 26.6q2.35 5.16 5 10.18a208.88 208.88 0 0 0 11.66 19.4q1.58 2.35 3.21 4.66a209.38 209.38 0 0 0 14.08 17.71q1.88 2.12 3.81 4.18a204.89 204.89 0 0 0 54 41.23 202.25 202.25 0 0 0 26.13 11.48A209.16 209.16 0 0 0 617 719q8.31-1.92 16.47-4.53t16.11-5.9q5.53-2.29 10.91-4.9t10.6-5.52q5.22-2.91 10.25-6.12a203.85 203.85 0 0 0 23.91-17.81q4.51-3.91 8.79-8.08 2.13-2.06 4.21-4.21Zm-437.17-66.7a208.21 208.21 0 0 1 .3-64.78q.73-4.52 1.67-9t2.06-8.92q2.25-8.87 5.27-17.53 2.21-6.34 4.83-12.52c1.3-3.05 2.69-6.06 4.13-9a205.3 205.3 0 0 1 40.77-57q4.77-4.71 9.86-9.11a206.69 206.69 0 0 1 103.81-47.92q4.31-.66 8.64-1.13a207 207 0 0 1 60.68 2.33c-.68 0-1.36-.06-2-.09.49 0 1 .1 1.45.15s1 .09 1.56.16l.91.13 1 .16c.5.08 1 .16 1.51.25s1.29.27 1.94.41l1.44.31 2 .5 1.38.35 1.09.3 1 .28 1.29.36 3.15.9 2.51.7.88.25c1.12.3 2.24.59 3.35.86 2.89.7 5.74 1.51 8.57 2.38a150.3 150.3 0 0 1 15.78 5.76q2.88 1.24 5.7 2.61a150.77 150.77 0 0 1 16.39 9.18q5.27 3.41 10.24 7.24t9.61 8.08a151.22 151.22 0 0 1 48 94.57 150.44 150.44 0 0 1-7.73 66.3q2.87-5.36 5.39-10.86t4.7-11.12a203.39 203.39 0 0 0 12.67-52.85q.87-8.46 1-17v-.41A201 201 0 0 0 657 377.67c-25.21-50.67-71.86-89-126.27-104.6a205.54 205.54 0 0 0-31.63-6.42q-5.35-.66-10.72-1c-1.73-.12-3.43-.2-5.12-.25h-6.5q-2.41.06-4.82.25l-.93.08c-1.69.15-3.38.34-5.09.6-5.27.82-10.49 1.88-15.7 3-2.6.58-5.21 1.14-7.8 1.8q-5.37 1.37-10.68 3a258.36 258.36 0 0 0-31.12 11.63q-5.05 2.27-10 4.75A256.58 256.58 0 0 0 362 307.25c-5.7 3.86-11.15 8-16.41 12.31a226 226 0 0 0-18.46 16.89 241.61 241.61 0 0 0-28.51 35.48 256.59 256.59 0 0 0-17 30q-5 10.38-9 21.17a257.52 257.52 0 0 0-9.93 33.07c-.79 3.49-1.49 7-2.13 10.51-.1.55-.21 1.1-.31 1.65q-.88 5-1.56 10.11l-.25 1.92c-.43 3.42-.81 6.84-1.1 10.27 0 .42-.06.84-.09 1.25q-.41 5.09-.61 10.2v.89q-.21 5.7-.16 11.4v.47c0 3.33.15 6.66.31 10q.07 1.38.15 2.76c.19 3.14.42 6.27.72 9.4 0 .36.06.73.09 1.09.35 3.44.78 6.86 1.26 10.28.13.89.26 1.78.4 2.67q.66 4.31 1.45 8.6c.12.64.22 1.28.35 1.91q1 5.06 2.18 10.08c.19.81.4 1.61.6 2.42q1 4.13 2.17 8.22c.22.78.43 1.55.65 2.33q1.44 4.95 3.08 9.84c.22.66.46 1.32.69 2q1.41 4.09 3 8.12c.32.83.63 1.66 1 2.48.71 1.79 1.48 3.56 2.23 5.33.6 1.41 1.15 2.84 1.77 4.24.19.43.4.85.59 1.28.61 1.36 1.28 2.7 1.92 4s1.32 2.85 2 4.26q.61 1.24 1.24 2.48c.64 1.25 1.32 2.48 2 3.72 1 1.85 1.92 3.71 2.95 5.53q5.46 9.69 11.75 18.93A199.25 199.25 0 0 1 286.17 619a205.19 205.19 0 0 1-5.09-23.77ZM766 481c-6.87-56.61-33-109.65-73.13-150.08-41.77-42-97.83-67.5-156.53-73.61a237.22 237.22 0 0 0-24.06-1.31h-.68c-4.39 0-8.77.16-13.14.48-5.83.41-11.49 1.61-17.29 2.33.71 0 19.32 1.11 21.17 1.31a200.13 200.13 0 0 1 20.71 3.37 205 205 0 0 1 159 233.86c-.52 3-1.07 6-1.68 9s-1.34 5.94-2.09 8.9-1.61 5.87-2.51 8.79-1.86 5.81-2.89 8.69-2.13 5.7-3.26 8.55-2.37 5.63-3.64 8.38-2.61 5.5-4 8.21-2.85 5.39-4.36 8-3.09 5.26-4.71 7.83-3.33 5.12-5 7.63-3.54 5-5.39 7.39c-1.61 2.1-3.33 4.12-4.95 6.22-1.06 1.31-2.13 2.61-3.26 3.88-.65.76-1.3 1.48-2 2.2s-1.41 1.41-2 2.16c-4.33 4.67-8.86 9.17-13.6 13.4a184.35 184.35 0 0 1-27.79 20.82 153.4 153.4 0 0 1-56.13 20.27c-37.82 5.67-77.43-3.23-108.89-25.08a142.85 142.85 0 0 1-44.24-49.43 249.74 249.74 0 0 0 24.53 47.78c10 14.94 22.84 28.2 36.72 39.57a202.61 202.61 0 0 0 105.7 44.31 204.87 204.87 0 0 0 157.08-49 178.13 178.13 0 0 0 20.09-20c6.32-7.56 11.06-17.24 15.53-26A257.87 257.87 0 0 0 761 560.58a255.17 255.17 0 0 0 6.56-46.23v-15.06q-.06-1.34-.14-2.67c-.3-5.22-.78-10.41-1.42-15.62Z" style="fill:#fff"/>
</svg>
