<svg xmlns="http://www.w3.org/2000/svg" viewBox="0 0 1024 1024">
   <circle cx="512" cy="512" r="512" style="fill:#0096d6"/>
   <path d="M512 768h-7.55l52.48-143.89h71.94c12.74 0 26.65-9.56 31-21.48l56.83-155.82c9.15-25.43-5.16-46.51-32.6-46.51H584l-131.2 361C339.9 734.17 256 632.79 256 512c0-117.27 79.1-216.26 186.84-246.46L312.45 624.09h54.06l69.16-190.42h41l-69.22 190.42h54.08l64.79-177.71c9.13-25.43-5.16-46.51-32.6-46.51H448l52.48-143.47c4 0 7.55-.41 11.52-.41 141.53 0 256 114.47 256 256S653.53 768 512 768Zm155-334.31h-41l-57.15 156.58h40.94Z" style="fill:#fff"/>
</svg>
