<svg xmlns="http://www.w3.org/2000/svg" viewBox="0 0 1024 1024">
   <circle cx="512" cy="512" r="512" style="fill:#c6000c"/>
   <path d="M282.54 451.42c-3.34-44.4 43.54-88.71 43.54-88.71s86.15 103.91 149.14 240.95a1.67 1.67 0 0 1-.46 2 1.94 1.94 0 0 1-2.21.38c-23-11.37-122-61.47-162.84-101.13 0 0-25.38-19.9-27.16-53.48m10 192.34c17.88 31.74 48 56.38 79.31 48.82 21.66-5.38 70.65-39.43 86.81-50.94 1.24-1.14.8-2 .8-2a2.24 2.24 0 0 0-2.12-1.47V638Zm-39.42-73.66c17.87 37.63 52 49 52 49a101 101 0 0 0 31.54 6.89c2.45.46 98 .05 123.57-.07a2.24 2.24 0 0 0 1.7-1.09c.79-1.3-.62-2.45-.62-2.45C389 573.76 248.7 499.11 248.7 499.11c-12.74 39.31 4.44 71 4.44 71m193.2-273.23c-43.62 11.23-53.93 50.66-53.93 50.66-8 24.8.2 52 .2 52 14.56 64.35 86.21 170.07 101.61 192.29 1.09 1.09 2 .7 2 .7a2 2 0 0 0 1.53-2.06c23.7-236.08-24.88-298.65-24.88-298.65-7.17.62-26.53 5-26.53 5m79.8 293.81a2 2 0 0 0 1.25 1.81 1.93 1.93 0 0 0 2.4-.91c15.8-22.78 87-127.94 101.53-192 0 0 7.86-31 .27-52 0 0-10.77-40-54.46-50.63 0 0-12.58-3.17-25.93-5-.17.2-48.79 63-25.09 298.82m40.29 47.51a2.46 2.46 0 0 0-1.86 1.27 2.33 2.33 0 0 0 .64 2.21c15.78 11.26 63.58 44.56 86.64 51 0 0 42.59 14.45 79.58-48.85l-165-5.72Zm-3.64-15.93a2.18 2.18 0 0 0-.86 2.39s.67 1.24 1.7 1.24c25.91 0 124.07.17 126.54-.3a98.71 98.71 0 0 0 28.36-6.49s34.9-11 53-50.54c0 0 16.17-32.19 3.65-69.81 0 0-140 74.86-212.46 123.49M549.07 603a2.32 2.32 0 0 0 .46 2.61 2.08 2.08 0 0 0 2.22.16c23.61-11.68 121.83-61.44 162.51-100.91 0 0 25.74-20.62 27.11-53.7 3-45.95-43.47-88.48-43.47-88.48S612 466.28 549.07 603" style="fill:#fff"/>
</svg>
