<svg xmlns="http://www.w3.org/2000/svg" data-name="Layer 1" viewBox="0 0 1024 1024">
   <circle cx="512" cy="512" r="512" style="fill:#008cd6"/>
   <path d="M573.16 407.42c0-78.1-38.07-145.27-67.02-167.15-.12-.06-2.22-1.24-2.04 1.88v.1c-2.4 150.81-79.48 191.68-121.86 246.74-97.75 127.06-6.84 266.38 85.76 292.12 51.82 14.41-11.96-25.5-20.19-109.77-9.93-101.86 125.37-179.56 125.37-263.92m44.43 51.35c-.59-.4-1.43-.68-2.02.29-1.59 18.99-20.99 59.6-45.58 96.88-83.41 126.44-35.87 187.46-9.15 220.2 15.52 19.01 0 0 38.79-19.43 3.04-1.52 75.68-42.24 83.54-135.02 7.62-89.84-46.37-146.46-65.58-162.92" style="fill:#fff"/>
</svg>
