<svg xmlns="http://www.w3.org/2000/svg" viewBox="0 0 1024 1024">
   <circle cx="512" cy="512" r="512" style="fill:#2483ff"/>
   <path d="M569.57 397.57c0-73.51-35.83-136.73-63.08-157.32-.11-.06-2.09-1.17-1.92 1.77v.09c-2.26 141.94-74.81 180.41-114.69 232.23-92 119.59-6.44 250.71 80.72 274.94 48.77 13.56-11.26-24-19-103.31-9.35-95.87 118-169 118-248.4m41.82 48.33c-.56-.38-1.35-.64-1.9.27-1.5 17.87-19.76 56.09-42.9 91.18-78.5 119-33.76 176.43-8.61 207.25 14.61 17.89 0 0 36.51-18.29 2.86-1.43 71.23-39.76 78.63-127.08 7.17-84.56-43.64-137.85-61.72-153.34" style="fill:#fff"/>
</svg>
