<svg viewBox="0 0 1024 1024" xmlns="http://www.w3.org/2000/svg">
   <circle cx="512" cy="512" r="512" style="fill:#d92673"/>
   <path d="M729.15 440.8h35.673l24.599 94.27h9.844l27.057-94.27h35.672L811.561 610h-35.666l13.525-45.926h-27.057zM608.68 564.08V413.01h34.444v73.724h14.761l33.208-45.926h38.131l-40.589 56.804 44.282 66.473h-39.366l-31.979-48.343h-18.447v48.343zm-134.14-39.884h35.674c1.146 2.9 2.947 5.56 5.412 7.977 5.244 5.156 12.464 7.734 21.646 7.734 13.944 0 20.912-4.028 20.912-12.085 0-9.083-21.02-11.988-38.626-15.71-25.911-5.48-38.867-17.969-38.867-37.468 0-10.314 4.673-19.096 14.023-26.347 9.512-7.412 22.47-11.119 38.872-11.119 21.974 0 38.458 6.688 49.442 20.063 4.761 5.801 7.96 12.407 9.6 19.82h-34.444c-1.145-2.416-2.625-4.43-4.427-6.042-5.083-4.029-11.807-6.043-20.171-6.043-5.907 0-10.25.966-13.043 2.9-2.786 1.773-4.26 4.03-4.182 6.769.274 9.749 21.348 11.873 38.87 15.711 25.75 5.64 38.627 18.129 38.627 37.467 0 10.797-5.084 20.143-15.257 28.039-10.166 7.896-23.942 11.845-41.328 11.845-23.286 0-40.508-7.251-51.661-21.754-5.084-6.608-8.775-13.859-11.071-21.755zm-137.82-8.46v-74.933h34.441v70.098c0 9.024 2.214 15.953 6.642 20.788 4.592 4.673 10.99 7.01 19.19 7.01 8.2 0 15.17-3.063 20.91-9.185 5.74-6.124 8.61-13.94 8.61-23.447v-65.264h34.441v123.28h-34.44v-16.92h-1.23s-2.446 5.16-9.102 10.393c-8.857 6.768-18.944 10.153-30.26 10.153-15.58 0-27.717-4.433-36.41-13.295-8.528-8.863-12.792-21.754-12.792-38.674zM162 564.08V413.01h36.901v60.43h76.262v-60.43h36.901v151.07h-36.901v-56.804h-76.262v56.804z" style="fill:#fff;"/>
</svg>