<svg xmlns="http://www.w3.org/2000/svg" viewBox="0 0 1024 1024">
   <circle cx="512" cy="512" r="512" style="fill:#313863"/>
   <path d="M430.15 351.56h1.46v-.09c-.52.03-.99.09-1.46.09Zm291.75 43c-14.11-39.02-52.11-65.15-94.74-65.13-1.64 0-3.19 0-4.74.07a101.693 101.693 0 0 0-77.03-34.86c-3.42 0-111.41.68-111.41.68-16 0-28.98 12.55-28.99 28.07s12.95 28.1 28.95 28.11h98.75c5.55-.59 10.53 3.44 11.11 8.99s-3.44 10.53-8.99 11.11c-.3.03-.6.05-.91.05-.4.02-.81.02-1.21 0 0 0-16.65.39-17.15.39h-35.23c-16 0-28.97 12.57-28.97 28.09s12.97 28.09 28.97 28.09h99.86c.49 0 .95-.05 1.45-.06l5.96.1c5.57-.24 10.28 4.08 10.52 9.64.24 5.57-4.08 10.28-9.64 10.52-.29.01-.58.01-.87 0 0 0-6.94.41-7.4.41H366.01c-16 .27-28.74 13.07-28.42 28.57.27 15.16 12.86 27.33 28.42 27.6h132.64c5.58-.29 10.35 4 10.64 9.58.29 5.58-4 10.35-9.58 10.64h-1.05l-5.97.45c-.47 0-.95-.08-1.46-.08H329.38c-16 0-28.96 12.57-28.96 28.08s12.97 28.08 28.96 28.08h221.49c.5 0 .95 0 1.46-.06l5.96.1c5.57-.17 10.22 4.21 10.39 9.78.17 5.57-4.21 10.22-9.78 10.39h-.62l-42.63.4h-20.84c-16 0-28.97 12.58-28.97 28.09s12.97 28.09 28.97 28.09h39.01c.77 0 1.54-.07 2.35-.13 39.43 26.89 79.12 54 79.12 54s30.16 22.19 45.2 15.69c0 0 20.84-6.58 14.5-32.21-.25-1.13-6.33-26.24-10.78-47.94-.95-4.74-.89-13.09 9.4-15.35 38.35-8.99 67.71-38.93 75.06-76.51 41.26-35.89 44.7-97.41 7.69-137.38a100.359 100.359 0 0 0-34.44-24.2v.05-.05Zm-405.93 82.43c0-15.51-12.97-28.08-28.96-28.09h-16.03c-16 .04-28.97 12.62-28.97 28.09s12.97 28.09 28.97 28.09h16.06c15.99.03 28.94-12.54 28.93-28.09Zm18.82-48.7h71.75c16 0 28.98-12.55 28.99-28.07 0-15.52-12.95-28.1-28.95-28.11h-71.72c-16 0-28.97 12.57-28.97 28.09s12.97 28.09 28.97 28.09h-.07Zm79.94 174.14h-12.11c-16 0-28.97 12.58-28.97 28.09s12.97 28.09 28.97 28.09h12.1c16 0 28.97-12.58 28.97-28.09s-12.96-28.05-28.97-28.05v-.04Z" style="fill:#fff"/>
</svg>
