<svg xmlns="http://www.w3.org/2000/svg" viewBox="0 0 1024 1024">
   <circle cx="512" cy="512" r="512" style="fill:#bf1313"/>
   <path d="M357 410.37a183.82 183.82 0 0 1 52.92-52.92 711.86 711.86 0 0 1 12.18-75.17 248.33 248.33 0 0 0-140.5 140.5c22.25-5.15 47.54-9.13 75.17-12.18m256.88-53.86v.47a188.39 188.39 0 0 1 53.16 53.16A711.86 711.86 0 0 1 742 422.55a248.85 248.85 0 0 0-141-140.74 700.49 700.49 0 0 1 12.65 74.93M409.9 667.25a188.39 188.39 0 0 1-53.16-53.16H356c-27.87-3.28-52.92-7.49-74.7-12.64a248.16 248.16 0 0 0 140.73 141c-5.15-22.25-9.13-47.54-12.18-75.17m257.64-53.18h-.7a188.39 188.39 0 0 1-53.16 53.16v.7A695.57 695.57 0 0 1 601 742.65a248 248 0 0 0 141.2-141.2 676 676 0 0 1-74.7 12.65M466.1 231.23h91.33c19.9 43.32 28.1 107.48 30.44 129.26a82.53 82.53 0 0 1 1.41 14.75L512 444.56l-77.28-69.31a87.6 87.6 0 0 1 1.17-12.88C438.24 340.12 446 274.56 466.1 231m-31.37 417.75a87.6 87.6 0 0 0 1.17 12.88c2.34 22.25 10.1 87.81 30.2 131.37h91.33c19.9-43.09 28.1-107.48 30.44-129.26a83.08 83.08 0 0 0 1.41-15L512 579.44Zm-59.48-214.26a87.6 87.6 0 0 0-12.88 1.17c-22.25 2.81-87.81 10.54-131.37 30.68v91.32c43.09 19.9 107.48 27.87 129.26 30.44a83.08 83.08 0 0 0 15 1.41l69.08-77.28L375.25 435ZM793 465.87c-43.56-20.14-109.12-27.87-131.37-30.21a87.6 87.6 0 0 0-12.88-1.17l-69.31 77.28L648.75 589a87.14 87.14 0 0 0 15-1.41c21.78-2.58 86.17-10.54 129.26-30.44Z" style="fill:#fff"/>
</svg>
