<svg xmlns="http://www.w3.org/2000/svg" viewBox="0 0 1024 1024">
   <circle cx="512" cy="512" r="512" style="fill:#ae04bc"/>
   <path d="M618.34 676.23c4.73-12.24 10.41-21.44 16.97-28.83 1.54 3.6 3.19 7.29 4.97 11.07 6.53 13.78 17.21 25.66 26.93 36.17-16.29-5.94-31.64-10.27-48.87-18.42ZM509.09 509.44c4.19 15.35 8.43 30.87 13.58 46.22 23.9-55.33 65.02-91.99 124.49-121.09 5.86-2.81 14.65-5.75 25.13-7.56C692.4 356.06 688.87 272.3 597 266.56c-79.43-2.74-118.05 68.8-140.6 125.19 29.28 32.65 41.1 74.85 52.7 117.69Zm263.18-8.49c-.54-26.38-21.46-49.2-45.19-59.19-21.82-8.74-46.8-8.07-68.91-.71-55.85 24.76-106.68 63.74-130.19 129.36 13.68 38.39 43.58 82.54 81.27 101.2 17.69-45.52 48.97-52.78 87.18-74.4 18.09-10.19 36.75-25.29 51.09-41.27 13.76-15.06 25.36-34.03 24.76-54.99ZM605.81 681.28c-37.46-18.58-66.89-57.68-82.44-95.2-.04.15-.07.31-.11.46.04-.15.07-.31.11-.46-12.68-29.24-20.17-60.29-28.74-90.87-10.22-36.69-23.19-74.28-50.59-101.87-12.23-12.58-27.21-22.65-43.31-30.67-120.49-61.19-166.37 55.72-143.23 157.38 8.96 38.98 29.59 74.09 53.53 105.93 55.59 72.06 137.15 125.06 226.05 144.63 20.48 4.3 41.32 7.5 62.29 6.83 29.63-1.03 76.84-8.4 88.42-39.97 3.59-9.54 2.56-18.43-6.07-24.51-8.78-6.18-18.84-8.99-29.13-12.67-15.89-5.34-31.89-11.02-46.77-19" style="fill:#fff"/>
</svg>
