<svg xmlns="http://www.w3.org/2000/svg" viewBox="0 0 1024 1024">
   <circle cx="512" cy="512" r="512" style="fill:#003a9b"/>
   <path d="M869.22 416.04c-2.63-2.94-6.14-4.43-10.88-4.43s-8.37 1.57-10.9 4.81c-2.52 3.13-3.83 7.85-3.83 14.03v44.75c-5.84-6.28-11.9-10.8-18.05-13.84-3.84-1.85-8.37-3.23-13.42-3.93-2.93-.4-5.95-.6-9.27-.6-15.43 0-27.92 5.3-37.51 15.91-9.48 10.61-14.22 25.33-14.22 44.25 0 8.94 1.22 17.29 3.62 24.93 2.44 7.65 5.84 14.33 10.49 20.01 4.64 5.7 10.19 10 16.53 13.15 6.34 3.04 13.21 4.61 20.66 4.61 3.42 0 6.64-.28 9.67-.87 2.02-.3 3.92-.79 5.85-1.39 4.73-1.57 9.18-3.82 13.21-6.66 4.13-2.94 8.27-6.78 12.4-11.38v2.94c0 5.59 1.41 9.81 4.13 12.85 2.83 2.94 6.36 4.51 10.58 4.51s7.86-1.47 10.58-4.31c2.71-2.94 4.13-7.27 4.13-13.04V428.89c.05-5.6-1.27-9.93-3.78-12.85Zm-31.36 123.44c-2.72 5.68-6.36 9.91-10.79 12.66-4.54 2.75-9.49 4.12-14.93 4.12h-.09c-5.46 0-10.39-1.47-14.93-4.31-4.54-2.94-8.16-7.27-10.77-12.95-2.61-5.79-3.92-12.76-3.92-21.01 0-7.76 1.2-14.61 3.73-20.41 2.42-5.89 5.95-10.4 10.39-13.53 4.54-3.25 9.59-4.72 15.31-4.72h.3c5.35 0 10.28 1.57 14.82 4.61 4.54 3.04 8.16 7.47 10.89 13.25 2.72 5.79 4.03 12.76 4.03 20.8 0 8.63-1.31 15.8-4.03 21.48Zm-97.91 1.28c-1.91-1.66-4.54-2.55-7.77-2.55-2.93 0-5.14.7-6.76 1.96-3.94 3.53-7.06 6.38-9.49 8.44a85.944 85.944 0 0 1-8.05 5.78c-2.82 1.77-5.85 3.15-8.86 3.94-3.13.87-6.45 1.27-10.19 1.27-.81 0-1.61 0-2.33-.09-4.65-.28-8.97-1.57-12.89-3.93-4.65-2.64-8.27-6.55-11.11-11.67-2.72-5.3-4.13-11.38-4.22-18.25h60.8c8.16 0 14.51-1.19 18.95-3.34 4.54-2.36 6.76-7.27 6.76-14.82 0-8.25-2.22-16.29-6.55-24.24-4.33-7.87-10.79-14.34-19.55-19.33-8.68-5-19.06-7.46-31.26-7.46h-.9c-8.97.09-17.24 1.58-24.6 4.32-7.66 2.94-14.13 7.17-19.48 12.55-5.13 5.49-9.16 12.06-11.88 19.72-2.72 7.66-4.14 16-4.14 24.92 0 19.04 5.55 33.96 16.64 45.04 10.47 10.51 25 16 43.44 16.59 1.01.09 2.1.09 3.23.09 8.67 0 16.42-1.08 23.18-3.32 6.76-2.26 12.31-5.02 16.75-8.34 4.41-3.44 7.75-6.97 9.97-10.59 2.22-3.63 3.34-6.87 3.34-9.53 0-3.06-1-5.51-3.02-7.17Zm-72.58-55.45c4.95-5.21 11.3-7.76 19.06-7.76h.11c8.05 0 14.62 2.55 19.55 7.65 4.95 5.11 7.86 12.87 8.58 23.25H658.3c1-10.19 4.03-17.95 9.06-23.14Zm-59.8 52.89c-3.02 0-5.24.7-6.85 1.96-3.83 3.53-7.06 6.38-9.48 8.44-2.42 1.96-5.05 3.93-7.97 5.78-2.91 1.77-5.85 3.15-8.97 3.94-3.02.87-6.45 1.27-10.19 1.27-.79 0-1.6 0-2.31-.09-4.65-.28-8.97-1.57-12.91-3.93-4.52-2.64-8.26-6.55-10.98-11.67-2.83-5.3-4.24-11.38-4.35-18.25h60.89c8.07 0 14.41-1.19 18.95-3.34 4.43-2.36 6.66-7.27 6.66-14.82 0-8.25-2.12-16.29-6.45-24.24-4.33-7.87-10.88-14.34-19.55-19.33-8.69-5-19.16-7.46-31.24-7.46h-1.01c-8.97.09-17.13 1.58-24.6 4.32-7.67 2.94-14.13 7.17-19.36 12.55-5.24 5.49-9.27 12.06-11.99 19.72-2.74 7.66-4.14 16-4.14 24.92 0 19.04 5.65 33.96 16.74 45.04 10.49 10.51 24.9 16 43.35 16.59 1.11.09 2.1.09 3.23.09 8.76 0 16.44-1.08 23.18-3.32 6.76-2.26 12.31-5.02 16.74-8.34 4.54-3.44 7.77-6.97 9.98-10.59 2.22-3.63 3.34-6.87 3.34-9.53 0-3.04-1.01-5.49-2.93-7.16-1.99-1.68-4.64-2.56-7.75-2.56Zm-64.93-52.89c4.94-5.21 11.3-7.76 19.06-7.76h.11c8.05 0 14.62 2.55 19.55 7.65 5.03 5.11 7.86 12.87 8.67 23.25h-56.46c1.11-10.19 4.14-17.95 9.06-23.14ZM195.78 559.6v-72.23c2.1.19 4.13.28 6.25.28 10.08 0 19.57-2.64 27.62-7.36v79.29c0 6.78-1.61 11.78-4.75 15.12-3.12 3.32-7.26 4.99-12.29 4.99s-8.88-1.66-12.1-5.1c-3.12-3.32-4.73-8.33-4.73-14.99Zm292.87-143.56c-2.63-2.94-6.25-4.43-10.79-4.43s-8.37 1.57-10.9 4.81c-2.61 3.13-3.83 7.85-3.83 14.03v44.75c-5.84-6.28-11.88-10.8-18.05-13.84-3.92-1.85-8.37-3.23-13.4-3.93-2.91-.4-5.95-.6-9.27-.6-15.42 0-28.03 5.3-37.51 15.91-9.48 10.61-14.22 25.33-14.22 44.25 0 8.94 1.22 17.29 3.53 24.93 2.42 7.65 5.95 14.33 10.6 20.01 4.64 5.7 10.17 10 16.53 13.15 6.36 3.04 13.19 4.61 20.66 4.61 3.32 0 6.55-.28 9.67-.87 2.02-.3 3.94-.79 5.85-1.39 4.73-1.57 9.18-3.82 13.21-6.66 4.13-2.94 8.18-6.78 12.39-11.38v2.94c0 5.59 1.42 9.81 4.14 12.85 2.72 2.94 6.36 4.51 10.58 4.51s7.77-1.47 10.49-4.31c2.72-2.94 4.02-7.27 4.02-13.04V428.89c.02-5.6-1.19-9.93-3.7-12.85Zm-31.26 123.44c-2.72 5.68-6.36 9.91-10.88 12.66-4.45 2.75-9.49 4.12-14.82 4.12h-.09c-5.44 0-10.39-1.47-14.92-4.31-4.64-2.94-8.16-7.27-10.79-12.95-2.61-5.79-3.92-12.76-3.92-21.01 0-7.76 1.22-14.61 3.62-20.41 2.52-5.89 5.95-10.4 10.49-13.53 4.43-3.25 9.57-4.72 15.22-4.72h.4c5.35 0 10.28 1.57 14.73 4.61 4.64 3.04 8.26 7.47 10.98 13.25 2.61 5.79 4.03 12.76 4.03 20.8 0 8.63-1.42 15.8-4.03 21.48Zm-178.03-66.14v3.74c5.54-7.08 11.49-12.17 17.94-15.51 6.55-3.23 14.02-4.91 22.48-4.91s15.54 1.77 21.97 5.21c6.45 3.42 11.19 8.34 14.41 14.72 2.12 3.72 3.43 7.76 4.03 12.08.6 4.21.9 9.7.9 16.38v56.24c0 6.08-1.52 10.69-4.34 13.72-2.82 3.13-6.55 4.7-11.09 4.7s-8.37-1.57-11.3-4.8c-2.93-3.15-4.33-7.74-4.33-13.63v-50.39c0-10-1.42-17.65-4.24-22.95-2.82-5.29-8.58-7.95-17.02-7.95-5.55 0-10.58 1.66-15.12 4.81-4.54 3.25-7.96 7.65-10.08 13.34-1.52 4.51-2.21 12.85-2.21 25.33v37.79c0 6.17-1.5 10.69-4.43 13.84-2.93 3.04-6.64 4.61-11.3 4.61s-8.18-1.57-11.09-4.8c-2.93-3.15-4.33-7.74-4.33-13.63v-87.46c0-5.78 1.31-10.1 3.94-12.85 2.52-2.83 6.04-4.32 10.58-4.32 2.72 0 5.14.59 7.36 1.87 2.22 1.27 4.02 3.13 5.35 5.68 1.3 2.55 1.91 5.6 1.91 9.13Zm-83.39-86.84c20.98-7.36 44.87-6.97 62.81 8.14 3.34 3.04 7.15 6.87 8.67 11.38 1.82 5.7-6.34-.6-7.47-1.38-5.85-3.74-11.69-6.87-18.24-9.02-35.28-10.59-68.66 8.55-89.42 38.28-8.67 13.14-14.32 26.97-18.95 42.19-.51 1.66-.9 3.83-1.82 5.29-.92 1.68-.4-4.5-.4-4.7.7-6.28 2.01-12.36 3.64-18.44 9.57-32.39 30.74-59.36 61.18-71.73Zm40.63 58.19c0 13.76-11.15 24.92-24.9 24.92s-24.89-11.16-24.89-24.92 11.14-24.92 24.89-24.92 24.9 11.14 24.9 24.92Z" style="fill:#fff"/>
</svg>
