<svg xmlns="http://www.w3.org/2000/svg" viewBox="0 0 1024 1024">
   <circle cx="512" cy="512" r="512" style="fill:#ff6200"/>
   <path d="M746.583 202.35c16.848 7.038 31.99 17.273 44.998 30.07 12.795 12.794 23.031 28.15 29.856 44.783 7.038 16.848 10.663 34.762 10.663 52.888v363.604c0 18.128-3.625 36.254-10.663 52.888-6.825 16.848-17.06 31.99-29.856 44.998-13.009 12.795-28.15 23.031-44.998 29.856-16.634 7.038-34.76 10.663-52.888 10.663H330.091c-18.126 0-36.04-3.625-52.888-10.663-16.634-6.825-31.988-17.06-44.784-29.856-12.795-13.009-23.031-28.15-30.069-44.998-6.825-16.634-10.45-34.76-10.45-52.888V330.091c0-18.126 3.625-36.04 10.45-52.888 7.038-16.634 17.273-31.988 30.07-44.784s28.15-23.031 44.783-30.069c16.848-6.825 34.762-10.45 52.888-10.45h363.604c18.128 0 36.254 3.625 52.888 10.45zm68.457 473.645c-30.07-18.34-50.97-25.59-75.92-36.893-4.906 4.905-7.25 12.368-14.716 17.273-2.345 2.56-19.832-12.368-29.642-17.273-7.25-4.905-22.178-7.251-31.988-9.81-2.347 0-2.347-4.905-2.347-7.464-2.558-7.465-5.117-14.715-2.558-17.274 12.367-4.905 17.272-14.715 17.272-22.178s7.253 2.345 14.715 0c4.906-4.906 7.465-9.81 4.906-14.93 0-4.904-2.346-9.81-7.25-9.81q-9.17-3.624-18.768-5.543-9.597-1.92-19.62-1.92-9.81 0-19.406 1.92t-18.767 5.544c-7.463 2.56-7.463 12.37-5.118 19.834 2.56 9.81 12.583 4.905 19.833 0 2.347 0-2.558 7.25 2.347 14.715 5.118 10.022 14.927 12.367 14.927 14.927 0 7.25 0 7.25-2.558 12.155 0 5.12 0 10.024-4.905 12.37-14.715 2.56-27.085 7.464-42.013 12.368-7.25 2.56-14.715 10.024-22.177 10.024-4.905 0-9.81-10.024-12.158-12.369-5.117 0-5.117-2.559-14.927 0q-10.876 4.479-21.54 9.383-10.662 4.905-21.112 10.023-10.663 5.332-20.899 10.877-10.236 5.757-20.473 11.729c-4.905-5.12-2.346-12.37-4.905-17.488q10.237-6.398 20.9-12.368 10.662-5.972 21.325-11.516 10.877-5.758 21.967-10.663 11.089-5.118 22.391-9.81c2.346-2.56 0-9.81-2.56-14.928 0 0-17.272-2.346-49.475 7.463-19.62 4.905-42.012 17.274-44.57 17.274q-.64-1.919-1.067-4.052-.427-2.132-.64-4.478-.426-2.132-.426-4.265-.214-2.132-.214-4.479l11.516-5.544 11.516-5.118 11.943-4.692q5.757-2.346 11.942-4.265c17.274-4.905 34.548-4.905 51.822-7.463-2.559 0-2.559-4.905-2.559-7.465-7.251-14.715-19.62-27.083-31.988-39.453-4.905-10.023-10.024-22.178-10.024-27.083 5.118-5.119 10.023 2.345 17.487 2.345q-1.279-3.199-2.133-6.61t-1.492-6.825q-.64-3.412-.853-6.824-.427-3.412-.427-6.825c-2.558-10.022-2.558-10.022-2.558-22.178 0-14.928 4.905-22.392 2.558-24.738-2.558-2.558-12.582-7.463-14.928-7.463-4.905-2.56-7.464-2.56-9.81-7.253-7.463-12.367-14.928-22.391-14.928-34.76 0-12.155 4.905-22.178 9.81-34.548 2.56-9.81 14.928-14.715 22.392-19.62 7.464-5.117 14.715-2.557 22.179-2.557 17.274 0 31.988 9.808 44.571 17.272q3.2 2.56 5.972 5.545 2.771 2.985 4.905 6.61 2.345 3.413 3.837 7.253 1.494 3.837 2.56 7.89h22.178c12.37 2.345 24.739 4.905 39.453 12.155 17.274-14.715 46.917-17.274 61.845-17.274 0-27.083 19.62-42.011 34.335-42.011 12.582-2.347 19.832-4.905 37.106 2.558 12.37 7.464 29.644 31.988 29.644 34.548 5.117 10.024 2.557 22.18 2.557 37.107q-.638 2.346-1.065 4.905-.64 2.346-.852 4.905-.214 2.346-.428 4.905-.212 2.559-.212 5.119c-2.348 9.81-14.715 17.272-22.18 19.62 0 17.272-4.904 27.083-7.464 42.01 0 7.465-2.345 14.715-4.905 22.18 7.465-2.559 10.024-7.464 17.275-7.464-4.905 32.202-12.37 27.083-19.62 42.01q-1.066 4.053-2.559 7.892-1.494 4.053-3.413 7.678-1.918 3.837-4.052 7.25-2.345 3.625-4.905 6.824-1.279 1.493-2.771 2.772l-2.987 2.56q-1.705 1.279-3.198 2.345l-3.412 2.133c-4.905 2.56 0 5.118 0 7.463 19.193 0 41.158 4.48 68.456 15.568v-277.66q0-3.412-.214-6.61-.214-3.412-.64-6.825-.426-3.412-.852-6.61-.64-3.414-1.493-6.612c-5.331 4.692-11.09 9.81-18.34 9.81-7.251 0-12.369-2.56-19.62-4.905-4.905-4.905-27.297-12.368-39.667-12.368-14.715 0-24.525 19.831-41.798 29.641-7.463 2.347-22.392 4.905-37.106 9.81-10.024 4.906-14.929 7.464-14.929 2.56-2.345-10.023-2.345-19.833-2.345-29.643-7.465-2.56-17.274-2.56-24.739-7.463q-1.066 4.264-2.558 8.529-1.493 4.052-3.412 8.105-1.92 4.051-4.053 7.89-2.132 3.839-4.69 7.463c-10.025-4.905-19.835-7.25-29.644-14.714-12.582-7.464-42.012-24.738-44.571-29.643-9.81 9.81-39.453 27.083-56.727 37.106q-1.919 3.2-4.052 6.398-2.132 2.986-4.264 6.185-2.133 2.985-4.479 5.971-2.133 2.985-4.479 5.972l-24.737-9.81c4.905-10.023 9.81-14.716 14.927-24.738 9.81-14.715 24.525-27.084 34.335-37.107 27.297-9.81 27.297-14.715 59.286-19.62 12.369 14.715 46.917 37.107 46.917 37.107 0 4.905 2.558-2.56 12.368-32.202 7.464 4.905 12.37 4.905 19.833 9.81q1.28.213 2.56.64 1.066.213 2.345.426 1.28.427 2.56.64 1.066.427 2.345.853c2.56 0 17.274-7.464 19.834-9.81 4.905-2.559 27.083-7.464 27.083-7.464 2.56 2.559-7.463 19.833-7.463 22.178v19.834q1.279.213 2.558 0l2.56-.427 2.558-.852q1.067-.428 2.347-1.067c12.155-5.118 14.715-27.297 19.62-44.57 7.462 2.558 12.368 2.558 19.832 2.558 0 9.81-4.905 24.525 2.346 24.525 7.463 0 17.487-9.81 32.202-22.179 21.325 8.53 42.438 20.687 62.27 33.482-4.052-12.157-9.81-23.46-17.272-33.696-7.465-10.236-16.635-19.192-26.871-26.656s-21.54-13.223-33.696-17.061c-11.942-3.84-24.525-5.972-37.319-5.758H330.091c-15.781 0-31.562 2.985-46.277 9.17-14.715 5.971-28.15 14.928-39.24 26.23-11.302 11.303-20.259 24.525-26.443 39.24-5.971 14.716-9.17 30.496-9.17 46.277v363.604c0 15.995 3.199 31.777 9.17 46.49 6.184 14.716 15.14 27.938 26.444 39.24 11.09 11.304 24.525 20.046 39.24 26.231 14.714 6.185 30.495 9.17 46.276 9.17h89.142q-1.493-4.478-3.2-8.957l-3.838-8.957q-1.918-4.265-4.052-8.53l-4.691-8.53s37.106-14.715 46.916-14.715c2.346 4.905 4.905 12.156 9.81 17.06-4.905 5.119-19.62 19.834-24.737 27.298q-.64.852-1.493 1.492l-1.706 1.28q-.853.853-1.706 1.28l-1.706 1.28h168.473c-6.61-7.678-13.862-17.275-13.862-22.606 0-7.464-9.81-19.833 2.56-19.833 0-4.905 12.368 2.558 17.273 2.558q1.92 0 3.84.427 1.704.427 3.412 1.493 1.705.853 2.985 2.346 1.28 1.28 2.132 2.985c2.559 7.465 0 14.93 2.559 22.393l.427 2.559.427 2.559.426 2.56.853 2.558h20.046v-.426c0-7.464 0-12.369-2.345-17.274 0-4.905-2.56-12.369 0-19.833 0-7.252 19.62-9.81 29.43-12.37 2.558 12.37 5.118 24.74 2.558 32.203-2.133 6.824-6.398 11.515-10.876 17.7h34.76q3.626 0 7.252-.213c-2.772-.853-5.119-1.493-8.744-2.558-2.346-2.56-2.346-7.465-2.346-14.929 0-4.905-2.559-14.929-2.559-24.738 0-4.905 4.905-7.25 12.37-12.368 2.345 0 4.904-2.348 14.714-4.906v39.453c1.066 4.478 2.773 11.515 4.265 17.7q3.839-.852 7.678-1.92 4.052-1.066 7.676-2.345l7.678-2.986q3.626-1.492 7.251-3.412c-5.545-7.677-12.156-21.326-12.156-26.657-2.558-7.464-2.558-22.179 0-29.643 0 0 14.715 4.905 19.62 7.463 12.369 0 2.559 17.275 7.464 22.18l.426 3.839q.427 1.919.853 3.625.427 1.919 1.067 3.839.426 1.705 1.279 3.625 3.412-2.773 6.611-5.758 3.412-2.772 6.398-5.971 3.2-3.2 5.97-6.61 2.773-3.414 5.332-7.039-1.279-.852-2.558-1.919-1.067-.852-2.133-2.132l-2.133-2.56q-.852-1.279-1.492-2.772-1.28-2.986-2.346-5.97-.853-2.987-1.92-6.186-.852-2.985-1.706-6.184t-1.492-6.398c2.558 0 7.463 0 10.023 2.56 7.25 0 7.25 0 12.156 2.345 0 2.132 1.919 6.397 4.477 11.302q2.987-6.184 5.12-12.581 2.344-6.611 3.838-13.223t2.345-13.435q.64-6.824.64-13.649l.214-17.7zm-.214-17.273v-34.335c-27.083-11.09-51.822-13.435-65.683-17.274v19.62c9.81 2.558 14.715 7.463 24.738 10.023 3.625 1.705 25.164 13.221 40.945 21.965v.001zm-107.695-98.525c9.81 4.905 22.178 9.81 29.643 17.06 2.345 0 9.81-12.37 9.81-17.273 9.81 0-12.37-9.81-22.179-17.275q-.852 0-1.493-.213-.64-.213-1.28-.64-.64-.213-1.065-.64-.64-.426-1.067-1.066c-5.118-4.905-7.465-14.715-17.487-17.274h-.853q-.427-.213-.852-.64l-.428-.852q-.213-.428-.213-.853c0-7.465-2.558-37.107-2.558-37.107 4.905 10.022 14.926 10.022 19.831 10.022 9.81 0 17.274-2.558 22.18-10.022 0-2.347 2.56-7.252 4.904-7.252 5.12-2.557 10.024-5.117 12.37-10.022 2.56 0 5.118-4.905 5.118-4.905-22.393-2.56-69.31-2.56-69.31-2.56-7.462 2.56-14.714 10.023-14.714 12.582 0 0 4.905 27.084 4.905 29.43 0 17.488 2.347 17.488 2.347 34.762 7.463 4.905 10.022 4.905 14.927 9.81q3.626 7.463 7.464 14.715v.213zm24.738 44.357c-7.464-2.347-14.929-7.465-29.643-4.905-2.56 2.558-2.56 2.558-2.56 9.81 12.37 0 19.834 7.463 29.643 10.023 0 0 2.56-12.369 2.56-14.928zm-52.035-182.762c4.905 0 4.905 10.024 4.905 14.927 12.582 0 24.951 2.348 29.643-2.345 27.297-12.582-14.715-22.392-19.62-22.392-12.368-2.559-37.107-9.81-27.297 0 0 4.905 7.464 4.905 12.369 9.81zm52.035-31.988c17.273 4.905 29.643 14.928 42.012 29.642q2.772 0 5.545-.853 2.558-1.066 4.905-2.559 2.345-1.706 4.051-4.052 1.705-2.133 2.773-4.905c2.346-12.368 4.905-32.202-2.56-42.012-4.904-4.905-7.464-7.464-19.833-9.81q-3.411-1.066-7.25-1.066-3.625 0-7.251 1.066t-6.824 2.773q-3.2 1.92-5.758 4.692c-4.905 7.25-12.37 17.273-9.81 27.083zM605.833 540.363v-7.25c2.56-22.393 2.56-27.298 5.119-42.012 0-2.56 2.345-17.274 2.345-19.834 0-4.905-4.905-10.022-12.368-12.368H568.94c-12.37 0-22.179 0-34.547 2.346 4.691 10.022 17.06 20.046 21.965 24.951 5.117 4.691 10.022 9.81 19.833 9.81 10.023-2.56 10.023 0 14.927-2.56 0 4.905 2.348 12.369 0 17.274 0 2.56 2.348 22.179-7.463 24.739-7.464 2.558-17.275 7.25-22.18 14.715-5.117 7.463-7.462 19.833 0 24.737 4.905 2.56 9.81-4.905 17.274-7.463 7.465-2.347 7.465-7.253 9.81-14.715 4.905-4.905 14.715-7.465 17.274-12.37zm-27.083 61.845q-2.133 0-4.478.213l-4.265.427-4.266.853-4.266.852.853 3.84q.641 1.919 1.28 3.625l1.28 3.839q.64 1.705 1.492 3.625c7.252-2.559 9.81-4.905 14.716-7.464 0 0 10.022-4.905 12.368-7.464-4.905-2.347-9.81-2.347-14.715-2.347l.001.001zm-37.108-197.476c4.905-5.12 19.62-14.93 19.62-14.93 2.559 0 2.559-2.557 2.559-4.904-4.905-17.273-9.81-17.273-19.833-22.178q-1.706-1.494-3.839-2.347-2.132-1.065-4.265-1.705-2.132-.64-4.479-.853-2.346-.214-4.691-.214c-9.81 2.56-27.084 7.464-31.989 22.393 0 2.345-2.559 12.368 4.905 22.178 4.905 9.81 14.928 17.274 19.833 22.179 7.464 0 9.81-12.368 22.179-19.62zm71.654 31.987c7.465-9.81 14.715-14.927 14.715-24.737 0-4.905-9.81-2.559-14.715 0-4.905 0-12.368 4.905-19.833 9.81-7.25 7.464-12.369 10.024-12.369 17.274h12.37c12.368 0 14.927 5.118 19.832-2.347zM408.143 589.84c-7.25 9.81-22.178 24.738-27.083 31.99l-2.56-29.645c-2.345-7.462-2.345-7.462-2.345-22.177 12.368-7.465 17.273-12.37 29.643-19.834 4.905-4.905 22.178-9.81 46.917-17.273 0 10.023-2.56 17.273-4.905 27.083q-5.758 2.772-10.877 5.971-5.331 3.2-10.45 7.038-4.905 3.625-9.382 7.89-4.692 4.265-8.744 8.957h-.214zm-12.368 130.94c0-5.117-2.56-10.022-4.905-14.927-2.56-7.464-2.56-14.716-5.118-22.18 0-7.463-2.347-34.76-2.347-39.666v-12.155c9.81-5.119 22.18-12.583 31.99-17.274-2.347 12.155-4.906 17.274-4.906 36.893 0 4.905 4.905 19.834 7.464 37.108-4.905 9.81-7.463 17.272-14.715 24.737q-.639 1.067-1.493 2.133l-1.705 2.132q-.853.853-1.92 1.707t-2.346 1.492h.001zm-2.133-279.154c9.81-4.906 14.715-9.81 24.525-17.273-2.346-14.929-4.905-24.74-4.905-37.108 0-7.25 0-14.715 4.905-22.178 4.905-9.81 17.273-9.81 27.083-7.465-2.346 17.274-4.692 22.393-4.692 42.012 0 2.559 4.693 14.929 7.252 19.833 2.558 4.905 4.905 9.81 4.905 14.928 0 2.345-2.347 4.692-4.905 7.25-7.252 4.906-9.81 2.56-12.37 7.465-12.368 9.81-17.273 14.716-27.083 22.178-4.905 4.905-4.905 4.905-9.81 12.37 0 0-2.56-27.084-4.905-42.012zm4.905 98.738zm-4.905-22.178c0-2.56 0-19.834 2.346-27.298 0-4.691 22.178-12.155 34.548-14.715 4.905 0 24.737-4.905 27.082 0 2.56 5.119-2.345 4.905-2.345 19.834-2.558 4.905-4.905 2.345-10.022 7.463-2.347 2.347-29.43 22.18-31.99 24.525-4.904 2.56-7.463 4.905-14.714 12.369-2.56-7.463-2.56-14.715-4.905-22.178zm4.905 22.178zM556.57 742.958c2.348 4.905 4.905 17.274 4.905 17.274 0 17.274-7.462 22.179-9.81 31.988-5.117-7.463-7.462-17.273-10.022-24.737-2.346-7.464-7.464-12.369-12.37-19.834 2.56-2.345 4.906-21.965 4.906-21.965 2.559-2.559 7.464 2.346 9.81 2.346q2.133 1.28 4.052 2.986l3.41 3.412q1.495 1.919 2.774 4.052 1.28 2.132 2.133 4.478h.212zm88.93-91.487c24.737 0 49.475 2.558 69.095 14.928 0 9.81 0 22.178-4.905 31.988 0 2.56-4.905 12.582-9.81 17.275-7.464-9.81-22.178-19.62-22.178-19.62 2.346 9.81 0 12.156-2.56 24.737 0 2.346-17.273 2.346-17.273 2.346-14.715-7.463-17.274-17.273-17.274-17.273 0 2.346-2.56 19.832-12.37 19.832-10.023 0-17.273 0-17.273-7.464-2.346-7.463-2.346-12.368-2.346-19.832v-9.81c-7.464 2.558-12.37 9.81-17.488 14.927-2.345 0-4.905-5.117-7.25-5.117q-1.706-3.2-3.2-6.612-1.279-3.2-2.558-6.61t-2.347-6.825q-1.065-3.412-1.919-7.037c24.74-17.274 49.477-19.833 71.656-19.833zM502.404 740.4c2.345 12.37 9.81 34.548 9.81 34.548-7.465-4.905-14.93-7.464-22.18-12.369-4.904-2.559-10.023-4.905-10.023-7.464l-1.705-7.25q-.854-3.626-1.494-7.465-.64-3.625-1.066-7.464-.426-3.626-.64-7.463c0-9.81 4.905-19.62 10.024-19.62 4.905 2.346 12.155 4.905 14.715 9.81 4.905 7.462 0 17.486 2.558 24.737zm-74.215-34.547c7.464 7.463 10.024 9.81 14.93 22.177-2.56 2.56-17.275 14.93-29.644 29.644 0 4.905-7.465 9.81-7.465 9.81 0-9.81-2.345-22.179-2.345-27.084-2.56-4.905-4.905-7.464-4.905-12.369 2.345-2.558 7.25-4.905 12.155-7.463 2.56-4.905 14.93-12.37 17.274-14.715z" style="fill:#fff"/>
</svg>
