<svg xmlns="http://www.w3.org/2000/svg" viewBox="0 0 1024 1024">
   <circle cx="512" cy="512" r="512" style="fill:#ff6200"/>
   <path d="M687.9 279.7c38.1 15.4 64.5 54.7 64.1 95.8v272.6c.9 55.9-47.9 104.7-103.8 103.8H375.6C319.8 752.8 271 704 272 648.1V375.5c0-13.6 2.7-27 7.8-39.7 15.5-38 54.7-64.5 95.8-64h272.6c13.6.1 27.2 2.8 39.7 7.9zm51.3 355.2c-22.5-13.8-38.2-19.2-56.9-27.7-3.7 3.7-5.4 9.3-11 12.9-1.8 1.9-14.9-9.3-22.2-12.9-5.4-3.7-16.6-5.4-24-7.4-1.8 0-1.8-3.7-1.8-5.6-1.9-5.6-3.8-11-1.9-13 9.3-3.7 12.9-11 12.9-16.6 0-5.6 5.4 1.7 11 0 3.7-3.7 5.6-7.4 3.7-11.2 0-3.7-1.8-7.4-5.4-7.4-18.2-7.4-39.2-7.4-57.4 0-5.6 1.9-5.6 9.3-3.8 14.9 1.9 7.4 9.4 3.7 14.9 0 1.7 0-1.9 5.4 1.7 11 3.8 7.5 11.2 9.3 11.2 11.2 0 5.4 0 5.4-1.9 9.1 0 3.8 0 7.5-3.7 9.3-11 1.9-20.3 5.6-31.5 9.3-5.4 1.9-11 7.5-16.6 7.5-3.7 0-7.4-7.5-9.1-9.3-3.8 0-3.8-1.9-11.2 0-16.2 6.7-32.3 14.4-47.6 22.7-5.1 2.9-10.2 5.8-15.3 8.8-3.7-3.9-1.7-9.3-3.7-13.1 20.7-12.8 42.4-24 64.9-33.3 1.7-1.9 0-7.4-1.9-11.2 0 0-13-1.8-37.1 5.6-14.7 3.7-31.5 12.9-33.4 12.9-.7-2-1.1-4.2-1.3-6.4-.2-1.1-.3-2.1-.3-3.2-.1-1.1-.2-2.2-.2-3.4l8.6-4.2 8.6-3.8c5.3-2 12.5-5.1 17.9-6.7 12.9-3.7 25.9-3.7 38.9-5.6-1.9 0-1.9-3.7-1.9-5.6-5.4-11-14.7-20.3-24-29.6-3.7-7.5-7.5-16.6-7.5-20.3 3.8-3.8 7.5 1.8 13.1 1.8-1.9-4.8-3-10.1-3.4-15.2-.2-1.7-.3-3.4-.3-5.1-1.9-7.5-1.9-7.5-1.9-16.6 0-11.2 3.7-16.8 1.9-18.5-1.9-1.9-9.4-5.6-11.2-5.6-3.7-1.9-5.6-1.9-7.4-5.4-14.6-22.1-13.8-28.4-3.8-52 1.9-7.4 11.2-11 16.8-14.7 5.6-3.8 11-1.9 16.6-1.9 13 0 24 7.4 33.4 13 3.2 2.6 6.1 5.5 8.2 9.1 2.4 3.4 3.7 7.3 4.8 11.3h16.6c9.3 1.8 18.5 3.7 29.6 9.1 12.9-11 35.2-12.9 46.4-12.9 0-20.3 14.7-31.5 25.7-31.5 9.4-1.8 14.9-3.7 27.8 1.9 9.3 5.6 22.2 24 22.2 25.9 3.8 7.5 1.9 16.6 1.9 27.8-.3 1.2-.6 2.4-.8 3.7-.9 3.6-1 7.5-1.1 11.2-1.8 7.4-11 12.9-16.6 14.7 0 12.9-3.7 20.3-5.6 31.5 0 5.6-1.8 11-3.7 16.6 5.6-1.9 7.5-5.6 13-5.6-3.7 24.2-9.3 20.3-14.7 31.5-1.1 4-2.6 8-4.5 11.7-3.5 7.4-8.7 13.9-16 17.9-3.7 1.9 0 3.8 0 5.6 14.4 0 30.9 3.4 51.3 11.7V375.5c0-1.7-.1-3.3-.2-4.9-.2-3.3-.7-6.8-1.1-10.1-.3-1.7-.7-3.4-1.1-5-10.6 10-15.6 8.3-28.5 3.7-3.7-3.7-20.5-9.3-29.7-9.3-11 0-18.4 14.9-31.3 22.2-5.6 1.8-16.8 3.7-27.8 7.4-7.5 3.7-11.2 5.6-11.2 1.9-1.8-7.5-1.8-14.9-1.8-22.2-5.6-1.9-13-1.9-18.6-5.6-2.1 8.5-6.1 16.7-11 24-7.5-3.7-14.9-5.4-22.2-11-9.4-5.6-31.5-18.5-33.4-22.2-7.4 7.4-29.6 20.3-42.5 27.8l-3 4.8c-1.1 1.5-2.1 3-3.2 4.6-1.1 1.5-2.2 3-3.4 4.5-1.1 1.5-2.2 3-3.4 4.5l-18.5-7.3c3.7-7.5 7.3-11 11.2-18.5 7.4-11 18.4-20.3 25.7-27.8 20.5-7.4 20.5-11 44.5-14.7 9.3 11 35.2 27.8 35.2 27.8 0 3.7 1.9-1.9 9.3-24.1 5.6 3.7 9.3 3.7 14.9 7.4.6.1 1.3.3 1.9.5.5.1 1.1.2 1.7.3.6.2 1.3.4 1.9.5.5.2 1.1.4 1.8.6 1.9 0 13-5.6 14.9-7.4 3.7-1.9 20.3-5.6 20.3-5.6 1.9 1.9-5.6 14.9-5.6 16.6v14.9c1.1.2 2.7-.1 3.8-.3l1.9-.7c.5-.2 1.1-.5 1.8-.8 9.1-3.8 11-20.5 14.7-33.4 5.6 1.9 9.3 1.9 14.9 1.9 0 7.4-3.7 18.4 1.8 18.4 5.6 0 13.1-7.4 24.2-16.6 16 6.4 31.8 15.5 46.7 25.1-11.6-36.6-47.9-63-86.3-62.4H375.9c-23.7-.1-47.5 9.6-64.1 26.6-17 16.7-26.8 40.3-26.7 64.1v272.6c-.9 48.9 41.9 91.8 90.8 90.8h66.8c-.8-2.2-1.5-4.5-2.4-6.7-1.7-3.9-4-9.4-5.9-13.1l-3.5-6.4s27.8-11 35.2-11c1.8 3.7 3.7 9.1 7.4 12.8-3.7 3.8-14.7 14.9-18.5 20.5-.5.8-1.6 1.5-2.4 2.1-.4.4-.9.7-1.3 1l-1.3 1h126.3c-5-5.8-10.4-12.9-10.4-17 0-5.6-7.4-14.9 1.9-14.9 0-3.7 9.3 1.9 13 1.9 1 0 1.9.1 2.9.3.9.2 1.7.6 2.6 1.1.9.4 1.6 1 2.2 1.8.6.6 1.2 1.4 1.6 2.2 1.9 5.6 0 11.2 1.9 16.8.3 1.7.7 4 1 5.8l.6 1.9h15c0-5.6 0-9.6-1.8-13.3 0-3.7-1.9-9.3 0-14.9 0-5.4 14.7-7.4 22.1-9.3 1.9 9.3 3.8 18.6 1.9 24.2-1.6 5.1-4.8 8.6-8.1 13.3 4.1-.1 27.9.1 31.5-.2-2.1-.6-3.8-1.1-6.6-1.9-1.8-1.9-1.8-5.6-1.8-11.2 0-3.7-1.9-11.2-1.9-18.5 0-3.7 3.7-5.4 9.3-9.3 1.8 0 3.7-1.8 11-3.7V724c.8 3.4 2.1 8.6 3.2 13.3 3.8-.9 7.9-1.9 11.5-3.2l5.7-2.2c1.8-.8 3.6-1.6 5.4-2.6-4.2-5.8-9.1-16-9.1-20-1.9-5.6-1.9-16.6 0-22.2 0 0 11 3.7 14.7 5.6 9.3 0 1.9 12.9 5.6 16.6l.3 2.9c.2 1 .4 1.9.6 2.7.2 1 .5 1.9.8 2.9.2.9.5 1.8 1 2.7 1.7-1.4 3.4-2.8 4.9-4.3 1.7-1.4 3.3-2.9 4.8-4.5 3.2-3.2 5.9-6.6 8.5-10.2-1.9-1.2-3.7-3.2-5.1-5-1.2-2-2-4.4-2.9-6.6-.4-1.5-.9-3-1.4-4.6-.9-3-1.8-6.3-2.4-9.4 1.9 0 5.6 0 7.5 1.9 5.4 0 5.4 0 9.1 1.8 0 1.6 1.4 4.8 3.4 8.5 1.5-3.1 2.8-6.2 3.8-9.4 2.3-6.6 3.8-13.1 4.6-20 .5-6.7.3-17.4.5-23.8zm-.1-13v-25.7c-20.3-8.3-38.9-10.1-49.3-12.9V598c7.4 1.9 11 5.6 18.5 7.5 2.8 1.2 18.9 9.9 30.8 16.4zm-80.8-73.8c7.4 3.7 16.6 7.4 22.2 12.8 1.8 0 7.4-9.3 7.4-12.9 7.4 0-9.3-7.4-16.6-13-.4 0-.8-.1-1.1-.2-.3-.1-.6-.3-1-.5-.3-.1-.6-.3-.8-.5-.3-.2-.6-.5-.8-.8-3.8-3.7-5.6-11-13.1-12.9h-.6c-.2-.1-.4-.3-.6-.5l-.3-.6c-.4-5.6-1.9-28.2-2.1-28.5 3.7 7.5 11.2 7.5 14.9 7.5 7.4 0 13-1.9 16.6-7.5 0-1.8 1.9-5.4 3.7-5.4 3.8-1.9 7.5-3.8 9.3-7.5 1.9 0 3.8-3.7 3.8-3.7-16.8-1.9-52-1.9-52-1.9-5.6 1.9-11 7.5-11 9.4 0 0 3.7 20.3 3.7 22.1 0 13.1 1.8 13.1 1.8 26.1 5.6 3.7 7.5 3.7 11.2 7.4 1.8 3.7 3.7 7.4 5.6 11l-.2.1zm18.5 33.2c-5.6-1.8-11.2-5.6-22.2-3.7-1.9 1.9-1.9 1.9-1.9 7.4 9.3 0 14.9 5.6 22.2 7.5 0 0 1.9-9.3 1.9-11.2zm-39-137c3.7 0 3.7 7.5 3.7 11.2 9.4 0 18.7 1.8 22.2-1.8 20.5-9.4-11-16.8-14.7-16.8-9.3-1.9-27.8-7.4-20.5 0 .1 3.7 5.6 3.7 9.3 7.4zm39-24c12.9 3.7 22.2 11.2 31.5 22.2 1.4 0 2.8-.2 4.2-.6 1.3-.5 2.5-1.2 3.7-1.9 1.2-.9 2.2-1.9 3-3 .9-1.1 1.5-2.3 2.1-3.7 1.8-9.3 3.7-24.1-1.9-31.5-3.7-3.7-5.6-5.6-14.9-7.4-5.2-1.7-11.2-.5-16 2.1-1.6 1-3 2.1-4.3 3.5-3.7 5.4-9.3 12.9-7.4 20.3zm-94.5 112.9v-5.4c1.9-16.8 1.9-20.5 3.8-31.5 0-1.9 1.7-13 1.7-14.9 0-3.7-3.7-7.5-9.3-9.3-15.2.3-35-1.1-49.9 1.8 3.5 7.5 12.8 15 16.5 18.7 3.8 3.5 7.5 7.4 14.9 7.4 7.5-1.9 7.5 0 11.2-1.9 0 3.7 1.8 9.3 0 12.9 0 1.9 1.8 16.6-5.6 18.6-5.6 1.9-13 5.4-16.6 11-3.8 5.6-5.6 14.9 0 18.5 3.7 1.9 7.4-3.7 13-5.6 5.6-1.8 5.6-5.4 7.4-11 3.7-3.7 11-5.6 12.9-9.3zM562 579.5c-1.8 0-4.7.3-6.6.5-1.6.3-4.8 1-6.4 1.3l.6 2.9c.3 1 .6 1.9 1 2.7l1 2.9c.3.9.7 1.8 1.1 2.7 5.4-1.9 7.4-3.7 11-5.6 0 0 7.5-3.7 9.3-5.6-3.6-1.7-7.3-1.7-11-1.8zm-27.8-148c3.7-3.8 14.7-11.2 14.7-11.2 1.9 0 1.9-1.9 1.9-3.7-3.7-12.9-7.4-12.9-14.9-16.6-.9-.8-1.8-1.3-2.9-1.8-3.1-1.6-6.6-2.1-10.1-2.1-7.4 1.9-20.3 5.6-24 16.8 0 1.8-1.9 9.3 3.7 16.6 3.7 7.4 11.2 13 14.9 16.6 5.7.1 7.4-9.2 16.7-14.6zm53.7 24c5.6-7.4 11-11.2 11-18.5 0-3.7-7.4-1.9-11 0-3.7 0-9.3 3.7-14.9 7.4-5.4 5.6-9.3 7.5-9.3 12.9h9.3c9.3-.1 11.3 3.8 14.9-1.8zM434.1 570.3c-5.4 7.4-16.6 18.5-20.3 24l-1.9-22.2c-1.8-5.6-1.8-5.6-1.8-16.6 9.3-5.6 13-9.3 22.2-14.9 3.7-3.7 16.6-7.4 35.2-12.9 0 7.5-1.9 12.9-3.7 20.3-11.2 5.4-21.4 13-29.6 22.4l-.1-.1zm-9.2 98.2c0-3.8-1.9-7.5-3.7-11.2-1.9-5.6-1.9-11-3.8-16.6-.3-11.4-2.2-29.2-1.8-38.9 7.4-3.8 16.6-9.4 24-12.9-1.8 9.1-3.7 12.9-3.7 27.7 0 3.7 3.7 14.9 5.6 27.8-3.7 7.4-5.6 13-11 18.5-.6.9-1.7 2.3-2.4 3.2-1 .9-2 1.7-3.2 2.4zm-1.7-209.4c7.4-3.7 11-7.4 18.4-12.9-2.1-14.1-7.4-33 0-44.5 3.7-7.3 12.9-7.3 20.3-5.6-1.7 13-3.5 16.8-3.5 31.5 0 1.9 3.5 11.2 5.4 14.9 1.9 3.7 3.7 7.4 3.7 11.2 0 1.8-1.8 3.5-3.7 5.4-5.4 3.7-7.4 1.9-9.3 5.6-9.3 7.4-12.9 11-20.3 16.6-3.7 3.7-3.7 3.7-7.4 9.3.1 0-1.8-20.3-3.6-31.5zm0 57.4c0-1.9 0-14.9 1.8-20.5 0-3.5 16.6-9.1 25.9-11 3.7 0 18.5-3.7 20.3 0 1.9 3.8-1.7 3.7-1.7 14.9-1.9 3.7-3.7 1.8-7.5 5.6-1.7 1.8-22.1 16.6-24 18.4-3.7 1.9-5.6 3.7-11 9.3-2-5.6-2-11.1-3.8-16.7zm122.2 168.6c1.8 3.7 3.7 12.9 3.7 12.9 0 12.9-5.6 16.6-7.4 24-3.8-5.6-5.6-12.9-7.5-18.5-1.8-5.6-5.6-9.3-9.3-14.9 1.9-1.8 3.7-16.5 3.7-16.5 1.9-1.9 5.6 1.8 7.4 1.8 1.1.6 2.1 1.4 3 2.2l2.5 2.6c1.5 1.9 2.9 4.1 3.7 6.4h.2zm66.7-68.6c18.5 0 37.1 1.9 51.8 11.2 0 7.4 0 16.6-3.7 24 0 1.9-3.7 9.4-7.4 13-5.6-7.4-16.6-14.7-16.6-14.7 1.8 7.4 0 9.1-1.9 18.6 0 1.8-12.9 1.8-12.9 1.8-11-5.6-12.9-12.9-12.9-12.9 0 1.7-1.9 14.9-9.3 14.9-7.5 0-12.9 0-12.9-5.6-2.4-7.4-1.6-14.6-1.8-22.2-5.6 1.9-9.3 7.4-13.1 11.2-1.8 0-3.7-3.8-5.4-3.8-.8-1.6-1.6-3.3-2.4-5-2-5-3.9-10.1-5.1-15.3 18.4-13.3 37-15.2 53.6-15.2zm-107.3 66.7c1.8 9.3 7.4 25.9 7.4 25.9-5.6-3.7-11.2-5.6-16.6-9.3-3.7-1.9-7.5-3.7-7.5-5.6-1.8-7.2-3.3-14.7-3.7-22.2 0-7.3 3.7-14.7 7.5-14.7 3.7 1.8 9.1 3.7 11 7.4 3.7 5.5 0 13 1.9 18.5zm-55.7-25.9c5.6 5.6 7.5 7.4 11.2 16.6-1.9 1.9-12.9 11.2-22.2 22.2 0 3.7-5.6 7.4-5.6 7.4 0-7.4-1.8-16.6-1.8-20.3-1.9-3.7-3.7-5.6-3.7-9.3 1.8-1.9 5.4-3.7 9.1-5.6 2-3.7 11.3-9.3 13-11z" style="fill:#fff"/>
</svg>
