<svg xmlns="http://www.w3.org/2000/svg" viewBox="0 0 341 341">
   <path d="M272.51 340.54H68.42a67.998 67.998 0 0 1-68-68V68.42a68 68 0 0 1 68-68h204.09a67.998 67.998 0 0 1 68 68v204.09a67.996 67.996 0 0 1-41.971 62.851 68.003 68.003 0 0 1-26.029 5.179z" style="fill:#ff6200"/>
   <path d="M127.52 337.52a22.097 22.097 0 0 1-3.74 3h-5.4a103.691 103.691 0 0 0-8.85-19.64s20.8-8.34 26.3-8.34c1.4 2.81 2.79 6.94 5.57 9.69-2.78 2.77-11.07 11.15-13.88 15.29zm11.1-176c0-8.33 2.78-8.33 1.38-11.07s-12.48 0-15.23 0c-6.92 1.34-19.42 5.52-19.42 8.27-1.35 4.13-1.35 13.84-1.35 15.22 1.38 4.16 1.38 8.31 2.79 12.47 4.1-4.16 5.53-5.57 8.31-6.94 1.36-1.37 16.61-12.47 18-13.84 2.73-2.78 4.13-1.41 5.52-4.16v.05zm-40.21 76.25v6.91c0 2.75 1.37 18 1.37 22.2 1.42 4.16 1.42 8.28 2.82 12.47 1.37 2.78 2.75 5.53 2.75 8.33a10.624 10.624 0 0 0 4.18-4.16c4.14-4.17 5.54-8.36 8.32-13.89-1.42-9.66-4.18-18-4.18-20.77 0-11.09 1.4-13.88 2.76-20.8-5.57 2.69-12.43 6.87-18.02 9.66v.05zm79-192.72c1.39 2.79 18 12.48 25 16.65 5.54 4.18 11.08 5.56 16.62 8.32a54.6 54.6 0 0 0 8.29-18c4.18 2.78 9.72 2.78 13.88 4.16 0 5.55 0 11.11 1.38 16.64 0 2.78 2.75 1.4 8.32-1.37 8.33-2.81 16.62-4.16 20.8-5.54 9.72-5.54 15.26-16.64 23.55-16.64 6.95 0 19.43 4.15 22.2 6.91 4.15 1.38 6.95 2.75 11.06 2.75s7.28-2.86 10.36-5.49c-.48-2.12-1.057-4.2-1.73-6.24-11.07-7.13-23-14-34.94-18.74-8.32 6.92-13.88 12.47-18.05 12.47s-1.38-8.3-1.38-13.84c-4.16 0-6.88 0-11.07-1.4-2.75 9.69-4.18 22.18-11.11 25a10.57 10.57 0 0 1-5.54 1.37V40.85c0-1.38 5.54-11.09 4.18-12.47 0 0-12.48 2.78-15.27 4.17-1.38 1.38-9.68 5.55-11.08 5.55a30.703 30.703 0 0 0-5.56-1.41c-4.15-2.76-6.91-2.76-11.08-5.53-5.54 16.63-6.92 20.78-6.92 18 0 0-19.4-12.5-26.36-20.81-18 2.78-18 5.55-33.26 11.09-5.56 5.53-13.87 12.47-19.37 20.82-2.81 5.54-5.56 8.27-8.34 13.85l13.84 5.53a123.178 123.178 0 0 0 9.72-13.84c9.72-5.51 26.34-15.23 31.88-20.8l-.02.05zM163.6 284.83c-1.42-2.75-5.58-4.17-8.33-5.53-2.79 0-5.57 5.53-5.57 11.09a83.616 83.616 0 0 0 2.78 16.61c0 1.36 2.79 2.78 5.54 4.14 4.16 2.78 8.32 4.21 12.48 7 0 0-4.16-12.49-5.53-19.4-1.37-4.18 1.37-9.74-1.37-13.91zm-52.74 29.11s4.21-2.78 4.21-5.56c6.92-8.29 15.26-15.21 16.61-16.62-2.75-6.93-4.16-8.29-8.31-12.46-1.38 1.36-8.3 5.53-9.7 8.33-2.81 1.37-5.54 2.76-6.91 4.13 0 2.8 1.37 4.17 2.77 7 0 2.71 1.33 9.62 1.33 15.18zm26.37-131.69c-13.86 4.16-23.56 6.94-26.37 9.69-6.89 4.2-9.66 7-16.59 11.08 0 8.34 0 8.34 1.36 12.52l1.42 16.63c2.73-4.16 11.08-12.48 15.24-18a70.697 70.697 0 0 1 22.18-16.64c1.36-5.59 2.76-9.72 2.76-15.28zM117.85 88c-2.78 4.13-2.78 8.31-2.78 12.46 0 6.91 1.36 12.46 2.78 20.79-5.56 4.15-8.32 6.93-13.88 9.67 1.38 8.37 2.79 23.62 2.79 23.62 2.77-4.15 2.77-4.15 5.53-6.95 5.56-4.15 8.29-7 15.23-12.46 1.41-2.78 2.81-1.4 6.95-4.21 1.36-1.37 2.76-2.74 2.76-4.1 0-2.81-1.4-5.57-2.76-8.34-1.36-2.77-4.14-9.73-4.14-11.11 0-11.06 1.35-13.84 2.73-23.54-5.54-1.38-12.48-1.38-15.21 4.17zm140 224.55c-5.51 1.38-16.62 2.81-16.62 6.94-1.38 4.15 0 8.32 0 11.07 1.38 2.81 1.38 5.56 1.38 9.72v.25h10.49c2.48-3.54 4.88-6.18 6.16-10 1.33-4.08-.03-11.03-1.44-17.97l.03-.01zm-52.68-52.64a69.54 69.54 0 0 0 5.56 15.19c1.4 0 2.79 2.81 4.15 2.81 2.79-2.81 5.56-6.93 9.73-8.34v5.53c0 4.19 0 7 1.39 11.11 0 4.17 4.16 4.17 9.66 4.17s6.95-9.73 6.95-11.09c0 0 1.38 5.53 9.73 9.7 0 0 9.69 0 9.69-1.37 1.4-7 2.76-8.33 1.4-13.89 0 0 8.3 5.56 12.49 11.09 2.72-2.75 5.53-8.29 5.53-9.72 2.73-5.53 2.73-12.46 2.73-18-11.08-6.92-24.92-8.3-38.82-8.3-12.48.01-26.36 1.39-40.22 11.12l.03-.01zm23.59 62.33a7.656 7.656 0 0 0-7-4.13c-2.75 0-9.68-4.18-9.68-1.4-7 0-1.4 6.93-1.4 11.1 0 3 4 8.38 7.74 12.72h12.84a28.174 28.174 0 0 1-1.15-5.8c-1.38-4.16.02-8.28-1.38-12.48l.03-.01zm73.44-106.7c10.68 0 23.05 2.47 38.34 8.69v9.3c-15.22-6.13-29.19-7.46-36.94-9.7v11.1c5.55 1.38 8.31 4.17 13.85 5.54 2.07 1 14.2 7.47 23.09 12.41v9.67c-16.83-10.31-28.5-14.31-42.53-20.7-2.76 2.78-4.13 7-8.29 9.71-1.4 1.37-11.11-6.93-16.65-9.71-4.12-2.75-12.48-4.13-18-5.54-1.35 0-1.35-2.75-1.35-4.14-1.39-4.16-2.8-8.34-1.39-9.72 6.92-2.76 9.69-8.32 9.69-12.46 0-4.14 4.13 1.37 8.32 0 2.75-2.79 4.16-5.54 2.75-8.34 0-2.75-1.37-5.51-4.12-5.51a57.272 57.272 0 0 0-43 0c-4.19 1.35-4.19 6.88-2.8 11.06 1.41 5.54 7 2.79 11.11 0 1.35 0-1.4 4.16 1.35 8.34 2.79 5.54 8.33 6.91 8.33 8.29 0 4.18 0 4.18-1.38 6.92 0 2.81 0 5.56-2.76 7-8.32 1.38-15.24 4.13-23.58 6.91-4.14 1.39-8.29 5.56-12.48 5.56-2.76 0-5.54-5.56-6.91-6.94-2.8 0-2.8-1.4-8.33 0a374.599 374.599 0 0 0-47.12 23.58c-2.78-2.81-1.4-6.91-2.78-9.72a317.317 317.317 0 0 1 48.54-24.94c1.36-1.42 0-5.54-1.41-8.34 0 0-9.71-1.38-27.73 4.18-11 2.74-23.55 9.71-25 9.71a33.986 33.986 0 0 1-1.38-9.71A211.331 211.331 0 0 1 158 216.91c9.73-2.78 19.41-2.78 29.14-4.17-1.41 0-1.41-2.75-1.41-4.17-4.15-8.29-11.07-15.21-18-22.16-2.78-5.57-5.57-12.47-5.57-15.22 2.79-2.81 5.57 1.37 9.71 1.37a49.914 49.914 0 0 1-2.75-15.27c-1.39-5.55-1.39-5.55-1.39-12.47 0-8.32 2.75-12.46 1.39-13.89-1.36-1.43-7-4.1-8.34-4.1-2.78-1.42-4.15-1.42-5.53-4.17-4.17-6.94-8.29-12.47-8.29-19.41 0-6.94 2.72-12.49 5.5-19.41 1.39-5.54 8.32-8.32 12.49-11.1 4.17-2.78 8.28-1.37 12.46-1.37 9.73 0 18 5.53 25 9.68a26.431 26.431 0 0 1 9.69 15.27h12.48c6.92 1.37 13.84 2.78 22.17 6.93 9.68-8.31 26.32-9.71 34.67-9.71 0-15.24 11.08-23.57 19.35-23.57 7-1.41 11.14-2.76 20.83 1.4 6.91 4.15 16.62 18 16.62 19.39 2.81 5.56 1.39 12.49 1.39 20.81a44.367 44.367 0 0 0-1.39 11.09c-1.34 5.53-8.3 9.7-12.46 11.08 0 9.71-2.79 15.25-4.16 23.55 0 4.18-1.38 8.34-2.77 12.47 4.14-1.38 5.57-4.13 9.68-4.13-2.75 18-6.91 15.21-11.06 23.56a48.006 48.006 0 0 1-8.3 16.64 42.346 42.346 0 0 1-6.95 5.53c-2.78 1.38 0 2.77 0 4.18zm-115-105.35c2.76-2.81 11.06-8.34 11.06-8.34 1.37 0 1.37-1.38 1.37-2.75-2.74-9.73-5.54-9.73-11.07-12.49a14.93 14.93 0 0 0-9.7-2.77c-5.57 1.37-15.22 4.17-18 12.48 0 1.37-1.4 6.93 2.8 12.44 2.74 5.56 8.29 9.73 11.08 12.5 4.08 0 5.46-6.94 12.42-11.07h.04zm29.08 112.26c-2.75-1.37-5.54-1.37-8.29-1.37a49.68 49.68 0 0 0-9.73 1.37 51.177 51.177 0 0 0 2.78 8.3c4.14-1.37 5.55-2.74 8.32-4.12-.04 0 5.49-2.8 6.88-4.18h.04zm11.08-74.85c0-2.78-2.74-5.58-6.91-7h-18c-7 0-12.49 0-19.45 1.37 2.79 5.58 9.73 11.12 12.48 13.9 2.75 2.78 5.56 5.55 11.11 5.55 5.55-1.39 5.55 0 8.3-1.39 0 2.77 1.39 6.92 0 9.68 0 1.43 1.39 12.49-4.15 13.87-4.15 1.39-9.7 4.18-12.48 8.31-2.78 4.13-4.17 11.08 0 13.89 2.78 1.37 5.54-2.81 9.73-4.18 4.19-1.37 4.15-4.16 5.54-8.29 2.75-2.8 8.29-4.17 9.68-6.95v-4.16c1.41-12.49 1.41-15.25 2.8-23.58-.01-1.33 1.31-9.62 1.31-11.02h.04zm8.31-33.28c0-2.75-5.5-1.39-8.31 0-2.74 0-6.91 2.78-11.08 5.53-4.14 4.17-6.92 5.56-6.92 9.71h6.92c6.93 0 8.34 2.8 11.08-1.37 4.14-5.53 8.27-8.34 8.27-13.87h.04zm58.25-12.47c9.72 2.78 16.64 8.34 23.57 16.64a10.423 10.423 0 0 0 5.935-1.939 10.425 10.425 0 0 0 3.765-4.981c1.36-6.94 2.77-18-1.39-23.56-2.79-2.8-4.16-4.17-11.08-5.56a15.65 15.65 0 0 0-15.26 4.16c-2.78 4.15-6.96 9.71-5.58 15.24h.04zm-29.12 18c2.76 0 2.76 5.56 2.76 8.34 7 0 13.9 1.37 16.63-1.36 15.27-7-8.26-12.51-11.08-12.51-6.94-1.39-20.76-5.56-15.25 0-.04 2.78 4.14 2.78 6.9 5.53h.04zm29.12 102.6c-4.16-1.37-8.32-4.16-16.65-2.76-1.34 1.39-1.34 1.39-1.34 5.53 6.88 0 11.07 4.16 16.61 5.53-.04 0 1.34-6.92 1.34-8.3h.04zm8.32-25c5.54 0-6.95-5.55-12.48-9.68a4.718 4.718 0 0 1-2.76-1.4c-2.81-2.78-4.19-8.31-9.73-9.69a1.34 1.34 0 0 1-1.34-1.43c0-4.1-1.41-20.74-1.41-20.74 2.75 5.53 8.29 5.53 11.08 5.53 5.56 0 9.69-1.41 12.45-5.53 0-1.41 1.41-4.15 2.76-4.15 2.83-1.41 5.56-2.8 7-5.58 1.41 0 2.78-2.8 2.78-2.8-12.51-1.37-38.82-1.37-38.82-1.37-4.18 1.37-8.3 5.56-8.3 7 0 0 2.73 15.25 2.73 16.62 0 9.72 1.39 9.72 1.39 19.41 4.18 2.78 5.55 2.78 8.37 5.56 1.34 2.75 2.72 5.53 4.16 8.3 5.51 2.79 12.45 5.53 16.63 9.71 1.25-.01 5.45-6.93 5.45-9.72l.04-.04zm9.71 120.63c-2.76-2.75 2.77-12.49-4.17-12.49-2.79-1.36-11.06-4.16-11.06-4.16-1.43 4.16-1.43 12.47 0 16.65 0 3.05 3.76 10.64 6.83 15a67.706 67.706 0 0 0 10.45-6.61 32.136 32.136 0 0 1-2.09-8.35l.04-.04zm-113.73-8.28s-1.37-7-2.78-9.71a18.426 18.426 0 0 0-6.92-8.33c-1.36 0-4.15-2.76-5.56-1.37 0 0-1.36 11.08-2.76 12.45 2.76 4.18 5.55 7 7 11.1 1.45 4.1 2.76 9.71 5.53 13.88 1.32-5.57 5.49-8.32 5.49-18.02zm88.28 29.3c-.81-3.53-1.72-7.43-2.35-9.93V307c-5.54 1.36-6.92 2.78-8.26 2.78-4.19 2.76-6.94 4.14-6.94 6.92 0 5.53 1.37 11.1 1.37 13.85 0 4.17 0 6.95 1.38 8.35 2 .66 3.4 1 4.9 1.5a67.327 67.327 0 0 0 9.9-1.3zm44.82-43.17c-2.81-1.37-2.81-1.37-6.92-1.37-1.43-1.39-4.18-1.39-5.57-1.39A91.368 91.368 0 0 0 323 307a13.55 13.55 0 0 0 4.71 5.3 66.796 66.796 0 0 0 6.07-10.14c-1.48-2.67-2.46-5.06-2.46-6.23z" style="fill:#fff"/>
</svg>