<svg xmlns="http://www.w3.org/2000/svg" viewBox="0 0 1024 1024">
   <circle cx="512" cy="512" r="512" style="fill:#ff6200"/>
   <path d="M687.964 279.734c12.64 5.293 23.99 12.96 33.751 22.55 9.59 9.6 17.258 21.113 22.4 33.6 5.263 12.64 7.98 26.084 7.98 39.669v272.723c0 13.605-2.717 27.21-7.98 39.688-5.132 12.64-12.81 23.99-22.4 33.751-9.76 9.59-21.112 17.258-33.75 22.4-12.479 5.263-26.084 7.98-39.689 7.98H375.553c-13.585 0-27.04-2.717-39.668-7.98-12.478-5.132-23.99-12.81-33.6-22.4-9.59-9.76-17.278-21.112-22.551-33.75-5.112-12.479-7.829-26.084-7.829-39.689V375.553c0-13.585 2.717-27.04 7.829-39.668 5.283-12.478 12.96-23.99 22.55-33.6s21.113-17.278 33.6-22.551c12.64-5.112 26.084-7.829 39.669-7.829h272.723c13.605 0 27.21 2.717 39.688 7.829zm51.341 355.28c-22.55-13.756-38.239-19.2-56.946-27.673-3.683 3.683-5.434 9.278-11.029 12.95-1.76 1.933-14.883-9.267-22.239-12.95-5.433-3.683-16.633-5.434-23.99-7.356-1.76 0-1.76-3.683-1.76-5.595-1.922-5.605-3.824-11.04-1.922-12.961 9.278-3.683 12.95-11.04 12.95-16.634s5.445 1.75 11.04 0c3.682-3.683 5.604-7.366 3.682-11.2 0-3.683-1.76-7.356-5.433-7.356q-6.883-2.717-14.088-4.166-7.185-1.44-14.712-1.44-7.356 0-14.561 1.44t-14.078 4.166c-5.595 1.922-5.595 9.278-3.844 14.873 1.922 7.356 9.439 3.683 14.883 0 1.75 0-1.922 5.434 1.75 11.039 3.845 7.517 11.2 9.278 11.2 11.2 0 5.434 0 5.434-1.911 9.107 0 3.844 0 7.527-3.683 9.278-11.04 1.922-20.317 5.605-31.517 9.288-5.434 1.912-11.03 7.517-16.634 7.517-3.683 0-7.356-7.517-9.117-9.278-3.824 0-3.824-1.922-11.2 0q-8.151 3.36-16.151 7.034-8 3.683-15.839 7.527-8 3.995-15.678 8.15-7.668 4.328-15.356 8.806c-3.673-3.855-1.75-9.288-3.673-13.122q7.668-4.81 15.678-9.278 8-4.478 15.98-8.634 8.171-4.327 16.493-8 8.312-3.854 16.795-7.356c1.75-1.932 0-7.366-1.922-11.2 0 0-12.961-1.761-37.112 5.595-14.712 3.673-31.507 12.95-33.439 12.95q-.473-1.438-.785-3.028-.322-1.59-.493-3.361-.312-1.61-.312-3.2-.16-1.59-.16-3.361l8.633-4.156 8.634-3.844 8.966-3.512q4.317-1.761 8.946-3.21c12.95-3.673 25.912-3.673 38.873-5.595-1.922 0-1.922-3.673-1.922-5.605-5.434-11.03-14.722-20.307-24-29.585-3.673-7.517-7.517-16.634-7.517-20.307 3.844-3.844 7.517 1.751 13.122 1.751q-.956-2.405-1.61-4.961t-1.107-5.112q-.483-2.566-.644-5.122-.312-2.566-.312-5.122c-1.932-7.517-1.932-7.517-1.932-16.634 0-11.19 3.683-16.795 1.932-18.556-1.932-1.912-9.449-5.595-11.2-5.595-3.683-1.922-5.605-1.922-7.366-5.434-5.595-9.278-11.2-16.805-11.2-26.083 0-9.117 3.683-16.634 7.366-25.911 1.912-7.356 11.2-11.04 16.795-14.712 5.605-3.844 11.039-1.922 16.634-1.922 12.96 0 23.99 7.356 33.429 12.96q2.405 1.913 4.498 4.157 2.063 2.233 3.673 4.95 1.76 2.566 2.878 5.444 1.127 2.878 1.922 5.907h16.634c9.278 1.761 18.556 3.683 29.595 9.117 12.95-11.029 35.19-12.95 46.39-12.95 0-20.318 14.711-31.517 25.75-31.517 9.44-1.751 14.873-3.673 27.834 1.922 9.278 5.594 22.23 23.99 22.23 25.911 3.843 7.517 1.921 16.634 1.921 27.834q-.483 1.761-.795 3.683-.483 1.761-.644 3.673-.16 1.761-.322 3.683-.16 1.922-.16 3.844c-1.752 7.356-11.03 12.951-16.635 14.712 0 12.951-3.673 20.307-5.595 31.507 0 5.605-1.76 11.039-3.683 16.634 5.605-1.912 7.527-5.595 12.961-5.595-3.683 24.161-9.278 20.317-14.722 31.517q-.785 3.029-1.912 5.917-1.127 3.029-2.566 5.746-1.439 2.878-3.049 5.434-1.75 2.727-3.683 5.122-.956 1.127-2.063 2.073l-2.244 1.922q-1.278.956-2.405 1.76l-2.546 1.59c-3.683 1.923 0 3.845 0 5.606 14.4 0 30.863 3.36 51.341 11.673V375.532q0-2.545-.161-4.95-.161-2.567-.483-5.122-.312-2.567-.644-4.951-.483-2.566-1.107-4.961c-3.995 3.512-8.322 7.356-13.756 7.356s-9.278-1.922-14.722-3.683c-3.673-3.673-20.468-9.278-29.736-9.278-11.039 0-18.395 14.883-31.356 22.239-5.594 1.76-16.794 3.683-27.823 7.355-7.527 3.684-11.2 5.595-11.2 1.923-1.761-7.517-1.761-14.883-1.761-22.23-5.605-1.921-12.961-1.921-18.566-5.604q-.785 3.2-1.912 6.4-1.127 3.049-2.566 6.078-1.44 3.028-3.03 5.917-1.61 2.878-3.531 5.594c-7.517-3.672-14.873-5.433-22.24-11.038-9.418-5.595-31.506-18.546-33.428-22.23-7.356 7.357-29.595 20.318-42.546 27.835q-1.439 2.405-3.049 4.8-1.59 2.233-3.19 4.639-1.61 2.244-3.37 4.477-1.59 2.245-3.362 4.468l-18.546-7.345c3.673-7.517 7.346-11.04 11.19-18.556 7.356-11.04 18.395-20.317 25.751-27.834 20.478-7.356 20.478-11.04 44.468-14.722 9.278 11.039 35.19 27.834 35.19 27.834 0 3.683 1.922-1.912 9.278-24.151 5.605 3.683 9.278 3.683 14.873 7.356q.966.16 1.932.483.795.16 1.75.312.967.322 1.923.483.815.312 1.76.644c1.923 0 12.962-5.595 14.873-7.356 3.683-1.922 20.317-5.605 20.317-5.605 1.922 1.932-5.595 14.883-5.595 16.634v14.883q.956.16 1.912 0l1.922-.312 1.922-.654q.795-.312 1.761-.785c9.117-3.844 11.04-20.488 14.712-33.44 5.595 1.923 9.278 1.923 14.873 1.923 0 7.356-3.673 18.385 1.761 18.385 5.595 0 13.122-7.356 24.161-16.634 15.99 6.4 31.819 15.527 46.702 25.117-3.029-9.107-7.356-17.59-12.95-25.268-5.606-7.668-12.479-14.39-20.167-19.995s-16.15-9.922-25.268-12.79c-8.946-2.878-18.395-4.478-27.985-4.327H375.542c-11.833 0-23.667 2.234-34.706 6.883a87.255 87.255 0 0 0-29.444 19.683c-8.463 8.463-15.195 18.385-19.824 29.424-4.498 11.039-6.883 22.863-6.883 34.707v272.733c0 11.995 2.395 23.84 6.883 34.868 4.629 11.04 11.35 20.961 19.834 29.444 8.312 8.483 18.385 15.044 29.424 19.663 11.039 4.65 22.862 6.883 34.706 6.883H442.4q-1.127-3.36-2.395-6.732l-2.888-6.702q-1.439-3.2-3.049-6.4l-3.512-6.4s27.834-11.029 35.19-11.029c1.761 3.673 3.683 9.117 7.356 12.79-3.673 3.844-14.712 14.873-18.556 20.478q-.473.644-1.107 1.127l-1.278.956q-.644.644-1.278.956l-1.278.966h126.37c-4.961-5.766-10.405-12.95-10.405-16.966 0-5.595-7.356-14.873 1.922-14.873 0-3.673 9.278 1.922 12.96 1.922q1.44 0 2.879.312 1.278.322 2.566 1.127 1.278.644 2.234 1.761.956.956 1.59 2.234c1.922 5.605 0 11.2 1.922 16.805l.322 1.912.312 1.922.322 1.922.644 1.922h15.044v-.312c0-5.605 0-9.288-1.761-12.96 0-3.684-1.922-9.279 0-14.874 0-5.444 14.711-7.356 22.067-9.288 1.922 9.288 3.844 18.566 1.922 24.161-1.61 5.112-4.8 8.634-8.15 13.273h26.072q2.717 0 5.434-.16c-2.073-.645-3.844-1.128-6.56-1.923-1.762-1.922-1.762-5.595-1.762-11.2 0-3.683-1.912-11.2-1.912-18.556 0-3.673 3.673-5.434 9.278-9.278 1.761 0 3.673-1.76 11.03-3.683v29.595c.814 3.361 2.092 8.634 3.21 13.273q2.877-.644 5.745-1.439 3.05-.795 5.766-1.76l5.746-2.235q2.717-1.127 5.444-2.566c-4.166-5.766-9.117-15.99-9.117-19.995-1.922-5.595-1.922-16.634 0-22.239 0 0 11.03 3.683 14.712 5.605 9.278 0 1.922 12.951 5.595 16.634l.322 2.878q.312 1.44.644 2.727.322 1.44.795 2.878.312 1.278.966 2.717 2.566-2.093 4.951-4.327 2.566-2.073 4.8-4.478 2.405-2.395 4.478-4.95 2.073-2.567 3.995-5.284-.966-.644-1.922-1.439-.795-.644-1.59-1.61l-1.61-1.912q-.624-.966-1.107-2.093-.966-2.234-1.761-4.468-.644-2.244-1.439-4.639-.644-2.244-1.278-4.649t-1.127-4.8c1.922 0 5.605 0 7.527 1.922 5.434 0 5.434 0 9.107 1.761 0 1.61 1.439 4.8 3.371 8.483q2.224-4.649 3.824-9.439 1.76-4.96 2.888-9.922t1.75-10.083q.484-5.112.484-10.234l.16-13.273.031.03zm-.16-12.961v-25.751c-20.318-8.322-38.874-10.073-49.279-12.951v14.712c7.356 1.922 11.04 5.595 18.556 7.517 2.717 1.278 18.878 9.922 30.722 16.473zm-80.786-73.892c7.356 3.673 16.634 7.356 22.23 12.79 1.76 0 7.365-9.278 7.365-12.951 7.356 0-9.278-7.366-16.634-12.961q-.654 0-1.127-.171-.483-.161-.966-.473-.473-.161-.795-.483-.483-.322-.795-.795c-3.844-3.683-5.605-11.039-13.122-12.951h-.644q-.312-.171-.644-.483l-.312-.644q-.17-.322-.17-.644c0-5.605-1.923-27.834-1.923-27.834 3.683 7.517 11.2 7.517 14.883 7.517 7.356 0 12.961-1.922 16.634-7.517 0-1.76 1.922-5.434 3.673-5.434 3.844-1.932 7.527-3.844 9.288-7.527 1.912 0 3.844-3.673 3.844-3.673-16.805-1.922-51.995-1.922-51.995-1.922-5.595 1.922-11.029 7.517-11.029 9.44 0 0 3.673 20.316 3.673 22.067 0 13.122 1.761 13.122 1.761 26.083 5.595 3.673 7.517 3.673 11.19 7.356q2.717 5.595 5.605 11.039v.16l.01.01zm18.556 33.268c-5.595-1.761-11.2-5.605-22.229-3.683-1.932 1.922-1.932 1.922-1.932 7.356 9.278 0 14.883 5.605 22.24 7.527 0 0 1.921-9.278 1.921-11.2zm-39.034-137.087c3.683 0 3.683 7.517 3.683 11.2 9.44 0 18.717 1.761 22.23-1.76 20.477-9.44-11.04-16.796-14.713-16.796-9.278-1.922-27.833-7.366-20.478 0 0 3.673 5.595 3.673 9.278 7.356zm39.034-23.99c12.951 3.673 22.24 11.2 31.507 22.23q2.093 0 4.166-.645 1.922-.795 3.683-1.912 1.751-1.278 3.03-3.049 1.277-1.61 2.072-3.683c1.761-9.278 3.683-24.15-1.922-31.517-3.673-3.673-5.595-5.595-14.873-7.356q-2.566-.795-5.434-.795-2.717 0-5.434.795t-5.122 2.094q-2.405 1.438-4.327 3.511c-3.683 5.434-9.278 12.951-7.356 20.317l.01.01zm-94.54 112.926v-5.434c1.922-16.805 1.922-20.478 3.844-31.507 0-1.932 1.75-12.96 1.75-14.883 0-3.683-3.672-7.517-9.267-9.278h-24c-9.268 0-16.624 0-25.912 1.761 3.532 7.517 12.81 15.024 16.473 18.717 3.844 3.512 7.517 7.356 14.873 7.356 7.527-1.922 7.527 0 11.2-1.922 0 3.683 1.76 9.278 0 12.951 0 1.932 1.76 16.634-5.595 18.566-5.605 1.912-12.961 5.434-16.634 11.029-3.824 5.605-5.595 14.883 0 18.556 3.683 1.922 7.356-3.683 12.96-5.595 5.596-1.761 5.596-5.434 7.357-11.04 3.673-3.682 11.039-5.594 12.95-9.277zm-20.307 46.39q-1.61 0-3.371.16l-3.19.323-3.2.644-3.2.644.644 2.878q.473 1.449.966 2.717l.956 2.888q.483 1.278 1.107 2.717c5.444-1.922 7.356-3.683 11.039-5.605 0 0 7.517-3.673 9.278-5.595-3.673-1.761-7.356-1.761-11.03-1.761v-.01zm-27.834-148.116c3.673-3.844 14.712-11.2 14.712-11.2 1.922 0 1.922-1.922 1.922-3.683-3.683-12.95-7.356-12.95-14.883-16.633q-1.278-1.128-2.878-1.761-1.61-.795-3.2-1.268-1.59-.483-3.361-.655-1.761-.16-3.512-.16c-7.356 1.921-20.317 5.594-23.99 16.794 0 1.761-1.932 9.288 3.673 16.634 3.673 7.366 11.2 12.961 14.873 16.644 5.605 0 7.356-9.278 16.644-14.712zm53.736 23.99c5.605-7.356 11.039-11.2 11.039-18.556 0-3.683-7.356-1.922-11.04 0-3.672 0-9.267 3.673-14.872 7.356-5.434 5.605-9.278 7.517-9.278 12.951h9.278c9.278 0 11.2 3.844 14.873-1.75zM434.088 570.39c-5.434 7.356-16.634 18.556-20.307 24l-1.922-22.24c-1.76-5.594-1.76-5.594-1.76-16.633 9.277-5.605 12.96-9.278 22.238-14.883 3.683-3.673 16.634-7.356 35.19-12.951 0 7.517-1.922 12.95-3.673 20.317q-4.327 2.063-8.17 4.468-3.996 2.405-7.84 5.283-3.673 2.717-7.044 5.917-3.502 3.2-6.55 6.712h-.172l.01.01zm-9.268 98.223c0-3.844-1.932-7.527-3.683-11.2-1.922-5.605-1.922-11.038-3.844-16.644 0-5.594-1.76-26.072-1.76-29.735v-9.137c7.355-3.824 16.643-9.44 23.99-12.951-1.752 9.117-3.674 12.95-3.674 27.673 0 3.673 3.673 14.873 5.605 27.834-3.683 7.355-5.605 12.96-11.039 18.555q-.483.795-1.127 1.59l-1.278 1.61q-.644.644-1.439 1.278t-1.75 1.127zm-1.61-209.398c7.356-3.673 11.04-7.356 18.395-12.95-1.76-11.2-3.683-18.557-3.683-27.835 0-5.444 0-11.039 3.683-16.644 3.673-7.345 12.951-7.345 20.307-5.595-1.75 12.961-3.512 16.795-3.512 31.517 0 1.912 3.512 11.2 5.444 14.873 1.912 3.683 3.673 7.366 3.673 11.2 0 1.761-1.76 3.532-3.673 5.434-5.444 3.683-7.366 1.932-9.288 5.595-9.278 7.366-12.95 11.04-20.307 16.644-3.683 3.683-3.683 3.683-7.366 9.278 0 0-1.912-20.317-3.673-31.517zm3.673 74.063zm-3.673-16.634c0-1.922 0-14.873 1.761-20.478 0-3.512 16.634-9.117 25.912-11.029 3.673 0 18.556-3.683 20.307 0 1.922 3.824-1.75 3.673-1.75 14.873-1.923 3.673-3.684 1.761-7.528 5.595-1.75 1.761-22.068 16.634-23.99 18.395-3.673 1.922-5.595 3.673-11.039 9.278-1.912-5.595-1.912-11.039-3.673-16.634zm3.673 16.634zm118.54 151.97c1.752 3.672 3.674 12.95 3.674 12.95 0 12.951-5.595 16.634-7.356 23.99-3.844-5.595-5.605-12.95-7.517-18.556-1.761-5.595-5.605-9.278-9.288-14.873 1.932-1.76 3.683-16.473 3.683-16.473 1.922-1.922 5.605 1.761 7.356 1.761q1.59.956 3.049 2.234l2.546 2.566q1.137 1.44 2.093 3.03.956 1.61 1.59 3.37h.17zm66.698-68.63c18.555 0 37.111 1.923 51.823 11.2 0 7.357 0 16.635-3.673 23.99 0 1.922-3.683 9.44-7.356 12.961-5.605-7.356-16.634-14.722-16.634-14.722 1.751 7.366 0 9.117-1.932 18.566 0 1.751-12.95 1.751-12.95 1.751-11.04-5.595-12.951-12.95-12.951-12.95 0 1.75-1.922 14.872-9.288 14.872-7.517 0-12.951 0-12.951-5.605-1.751-5.595-1.751-9.268-1.751-14.873v-7.356c-5.605 1.922-9.288 7.356-13.132 11.2-1.751 0-3.673-3.844-5.434-3.844q-1.268-2.405-2.395-4.96-.966-2.396-1.922-4.951t-1.761-5.122q-.795-2.567-1.44-5.283c18.557-12.951 37.113-14.873 53.747-14.873zM504.79 683.316c1.761 9.288 7.356 25.922 7.356 25.922-5.595-3.683-11.2-5.605-16.634-9.288-3.673-1.912-7.517-3.673-7.517-5.595l-1.278-5.434q-.644-2.717-1.127-5.605-.473-2.717-.795-5.595-.322-2.717-.483-5.605c0-7.346 3.683-14.702 7.527-14.702 3.673 1.751 9.107 3.673 11.029 7.356 3.683 5.595 0 13.102 1.922 18.546zm-55.668-25.902c5.595 5.595 7.517 7.356 11.2 16.634-1.922 1.912-12.95 11.2-22.239 22.23 0 3.682-5.595 7.355-5.595 7.355 0-7.356-1.76-16.634-1.76-20.317-1.913-3.673-3.674-5.595-3.674-9.268 1.761-1.932 5.434-3.683 9.117-5.605 1.912-3.683 11.2-9.278 12.951-11.029z" style="fill:#fff"/>
</svg>
