<svg xmlns="http://www.w3.org/2000/svg" viewBox="0 0 1024 1024">
   <circle cx="512" cy="512" r="512" style="fill:#ff6200"/>
   <path d="M722.4 234.273c15.11 6.312 28.69 15.492 40.358 26.969 11.476 11.476 20.657 25.248 26.779 40.167 6.312 15.11 9.563 31.178 9.563 47.436v326.119c0 16.259-3.251 32.516-9.563 47.435-6.122 15.111-15.303 28.692-26.779 40.36-11.667 11.475-25.248 20.656-40.359 26.778-14.919 6.312-31.176 9.563-47.435 9.563h-326.12c-16.257 0-32.324-3.251-47.435-9.563-14.919-6.122-28.69-15.303-40.167-26.779-11.476-11.667-20.657-25.248-26.97-40.359-6.12-14.919-9.372-31.176-9.372-47.435v-326.12c0-16.257 3.251-32.324 9.373-47.435 6.312-14.919 15.492-28.69 26.969-40.167s25.248-20.657 40.167-26.97c15.11-6.12 31.178-9.372 47.436-9.372h326.119c16.259 0 32.516 3.251 47.435 9.373zm61.399 424.815c-26.97-16.449-45.715-22.952-68.094-33.09-4.4 4.4-6.503 11.094-13.198 15.493-2.103 2.296-17.788-11.093-26.587-15.492-6.503-4.4-19.891-6.504-28.69-8.799-2.104 0-2.104-4.4-2.104-6.694-2.295-6.696-4.59-13.198-2.295-15.493 11.092-4.4 15.492-13.198 15.492-19.893s6.504 2.104 13.198 0c4.4-4.399 6.695-8.798 4.4-13.39 0-4.399-2.104-8.798-6.504-8.798q-8.224-3.251-16.832-4.972-8.607-1.722-17.597-1.722-8.798 0-17.405 1.722t-16.833 4.972c-6.694 2.296-6.694 11.095-4.59 17.789 2.295 8.799 11.285 4.4 17.788 0 2.105 0-2.294 6.503 2.105 13.198 4.59 8.99 13.388 11.093 13.388 13.389 0 6.502 0 6.502-2.294 10.902 0 4.59 0 8.99-4.4 11.094-13.197 2.296-24.292 6.695-37.68 11.093-6.504 2.296-13.199 8.99-19.892 8.99-4.4 0-8.8-8.99-10.904-11.093-4.59 0-4.59-2.295-13.39 0q-9.753 4.017-19.318 8.415-9.563 4.4-18.936 8.99-9.563 4.782-18.744 9.756-9.181 5.164-18.362 10.52c-4.4-4.592-2.105-11.094-4.4-15.685q9.182-5.738 18.745-11.093 9.563-5.357 19.127-10.33 9.756-5.163 19.702-9.562 9.946-4.591 20.084-8.8c2.103-2.295 0-8.798-2.296-13.389 0 0-15.493-2.103-44.375 6.694-17.598 4.4-37.68 15.494-39.976 15.494q-.574-1.721-.956-3.635-.384-1.912-.574-4.016-.383-1.913-.383-3.826-.191-1.912-.191-4.017l10.328-4.972 10.329-4.59 10.711-4.209q5.164-2.104 10.712-3.825c15.493-4.4 30.986-4.4 46.479-6.694-2.295 0-2.295-4.4-2.295-6.696-6.504-13.198-17.598-24.29-28.69-35.385-4.4-8.99-8.99-19.892-8.99-24.291 4.59-4.591 8.989 2.103 15.683 2.103q-1.147-2.869-1.913-5.928t-1.338-6.122q-.574-3.06-.765-6.12-.383-3.06-.383-6.121c-2.294-8.99-2.294-8.99-2.294-19.892 0-13.39 4.399-20.084 2.294-22.188-2.294-2.294-11.285-6.694-13.389-6.694-4.4-2.296-6.694-2.296-8.799-6.504-6.693-11.093-13.388-20.083-13.388-31.177 0-10.902 4.399-19.892 8.798-30.986 2.295-8.799 13.389-13.198 20.083-17.598 6.695-4.59 13.198-2.294 19.893-2.294 15.493 0 28.69 8.798 39.976 15.492q2.87 2.295 5.356 4.974 2.486 2.677 4.4 5.928 2.103 3.061 3.441 6.505 1.34 3.442 2.296 7.077h19.892c11.095 2.103 22.188 4.4 35.385 10.902 15.493-13.198 42.08-15.493 55.47-15.493 0-24.291 17.597-37.68 30.795-37.68 11.285-2.105 17.787-4.4 33.28 2.294 11.095 6.695 26.588 28.69 26.588 30.986 4.59 8.99 2.294 19.893 2.294 33.282q-.573 2.104-.955 4.399-.574 2.104-.765 4.4-.191 2.104-.383 4.399-.19 2.295-.19 4.59c-2.106 8.8-13.199 15.493-19.893 17.598 0 15.492-4.4 24.29-6.695 37.68 0 6.695-2.104 13.198-4.4 19.892 6.696-2.294 8.99-6.693 15.494-6.693-4.4 28.881-11.094 24.29-17.597 37.68q-.956 3.634-2.295 7.077-1.34 3.635-3.06 6.886-1.722 3.442-3.636 6.503-2.103 3.251-4.399 6.12-1.147 1.34-2.486 2.487l-2.678 2.296q-1.53 1.147-2.869 2.103l-3.06 1.913c-4.399 2.296 0 4.59 0 6.694 17.215 0 36.915 4.017 61.399 13.963V348.846q0-3.061-.192-5.93-.192-3.06-.574-6.12-.382-3.061-.765-5.93-.574-3.06-1.338-5.93c-4.782 4.209-9.947 8.799-16.45 8.799s-11.093-2.295-17.597-4.4c-4.4-4.399-24.483-11.092-35.577-11.092-13.198 0-21.997 17.787-37.49 26.586-6.694 2.104-20.083 4.399-33.28 8.798-8.99 4.4-13.39 6.695-13.39 2.295-2.103-8.99-2.103-17.788-2.103-26.586-6.696-2.296-15.493-2.296-22.189-6.694q-.956 3.824-2.294 7.65-1.34 3.635-3.06 7.27-1.723 3.633-3.635 7.076-1.913 3.443-4.208 6.693c-8.99-4.4-17.789-6.502-26.587-13.197-11.285-6.694-37.681-22.187-39.976-26.587-8.799 8.8-35.386 24.291-50.879 33.282q-1.72 2.87-3.634 5.738-1.912 2.678-3.825 5.547-1.912 2.677-4.017 5.356-1.913 2.677-4.017 5.355l-22.187-8.798c4.4-8.99 8.798-13.198 13.388-22.188 8.8-13.198 21.997-24.292 30.796-33.281 24.482-8.799 24.482-13.198 53.174-17.597 11.093 13.198 42.08 33.28 42.08 33.28 0 4.4 2.294-2.294 11.093-28.881 6.694 4.4 11.094 4.4 17.788 8.799q1.148.19 2.296.573.957.191 2.104.383 1.148.382 2.296.574.956.382 2.103.765c2.296 0 15.493-6.695 17.789-8.799 4.4-2.295 24.29-6.694 24.29-6.694 2.297 2.295-6.693 17.788-6.693 19.891v17.79q1.147.19 2.294 0l2.296-.383 2.295-.765q.957-.383 2.105-.957c10.902-4.59 13.198-24.483 17.597-39.976 6.694 2.295 11.093 2.295 17.788 2.295 0 8.799-4.4 21.997 2.104 21.997 6.694 0 15.684-8.799 28.882-19.892 19.127 7.65 38.063 18.553 55.851 30.03-3.634-10.904-8.798-21.041-15.492-30.222-6.695-9.181-14.92-17.214-24.1-23.909s-19.32-11.859-30.222-15.302c-10.712-3.443-21.997-5.356-33.472-5.164h-326.12c-14.155 0-28.308 2.677-41.506 8.225-13.198 5.355-25.248 13.388-35.195 23.526-10.137 10.137-18.17 21.997-23.717 35.195-5.356 13.198-8.225 27.351-8.225 41.506v326.119c0 14.346 2.87 28.5 8.225 41.697 5.547 13.198 13.58 25.058 23.718 35.195 9.946 10.138 21.997 17.979 35.194 23.526 13.198 5.548 27.351 8.225 41.506 8.225h79.952q-1.339-4.017-2.87-8.034l-3.442-8.033q-1.721-3.825-3.635-7.65l-4.208-7.651s33.281-13.199 42.08-13.199c2.105 4.4 4.4 10.904 8.799 15.302-4.4 4.59-17.598 17.789-22.188 24.483q-.574.765-1.338 1.339l-1.53 1.148q-.765.765-1.53 1.147l-1.53 1.148h151.104c-5.929-6.886-12.433-15.493-12.433-20.275 0-6.694-8.798-17.788 2.296-17.788 0-4.4 11.094 2.294 15.493 2.294q1.72 0 3.443.384 1.53.382 3.06 1.338 1.53.765 2.678 2.105 1.148 1.148 1.913 2.677c2.295 6.695 0 13.39 2.295 20.084l.383 2.295.382 2.295.383 2.296.764 2.295h17.98v-.382c0-6.695 0-11.094-2.103-15.493 0-4.4-2.296-11.094 0-17.788 0-6.505 17.597-8.8 26.396-11.095 2.294 11.095 4.59 22.188 2.294 28.883-1.913 6.12-5.738 10.328-9.754 15.875h31.177q3.25 0 6.503-.192c-2.486-.764-4.59-1.338-7.842-2.294-2.104-2.296-2.104-6.695-2.104-13.39 0-4.399-2.295-13.39-2.295-22.187 0-4.4 4.399-6.504 11.093-11.094 2.105 0 4.4-2.105 13.198-4.399v35.386c.957 4.016 2.487 10.328 3.826 15.875q3.443-.765 6.886-1.722 3.634-.956 6.885-2.103l6.886-2.679q3.252-1.338 6.503-3.06c-4.973-6.885-10.903-19.127-10.903-23.909-2.294-6.694-2.294-19.892 0-26.587 0 0 13.198 4.4 17.598 6.694 11.094 0 2.295 15.494 6.694 19.893l.383 3.443q.383 1.721.764 3.252.384 1.72.958 3.443.382 1.529 1.147 3.25 3.06-2.486 5.93-5.163 3.06-2.487 5.737-5.356 2.87-2.87 5.356-5.929 2.487-3.061 4.782-6.313-1.147-.764-2.294-1.72-.958-.765-1.914-1.913l-1.913-2.296q-.764-1.147-1.338-2.486-1.148-2.678-2.105-5.356-.764-2.678-1.72-5.547-.765-2.677-1.531-5.546t-1.339-5.74c2.294 0 6.694 0 8.99 2.297 6.503 0 6.503 0 10.903 2.103 0 1.913 1.72 5.738 4.016 10.137q2.678-5.546 4.59-11.284 2.104-5.93 3.444-11.86t2.103-12.05q.574-6.12.574-12.241l.192-15.876zm-.192-15.492v-30.795c-24.29-9.947-46.48-12.05-58.912-15.493v17.597c8.8 2.294 13.198 6.694 22.188 8.99 3.251 1.529 22.57 11.858 36.724 19.7v.001zm-96.592-88.368c8.799 4.4 19.891 8.799 26.587 15.301 2.103 0 8.798-11.093 8.798-15.492 8.8 0-11.094-8.798-19.892-15.494q-.765 0-1.34-.19-.573-.192-1.147-.574-.574-.192-.956-.574-.574-.383-.956-.957c-4.591-4.4-6.696-13.198-15.685-15.493h-.765q-.383-.192-.764-.574l-.384-.765q-.191-.383-.191-.764c0-6.696-2.295-33.282-2.295-33.282 4.4 8.989 13.388 8.989 17.788 8.989 8.798 0 15.493-2.294 19.892-8.99 0-2.104 2.296-6.503 4.4-6.503 4.59-2.294 8.99-4.59 11.093-8.99 2.296 0 4.591-4.399 4.591-4.399-20.084-2.295-62.164-2.295-62.164-2.295-6.693 2.295-13.198 8.99-13.198 11.285 0 0 4.4 24.291 4.4 26.396 0 15.684 2.105 15.684 2.105 31.177 6.693 4.4 8.988 4.4 13.388 8.8q3.252 6.693 6.695 13.197v.19zm22.187 39.785c-6.694-2.106-13.39-6.696-26.586-4.4-2.296 2.294-2.296 2.294-2.296 8.8 11.093 0 17.789 6.692 26.586 8.989 0 0 2.296-11.094 2.296-13.39zm-46.67-163.921c4.399 0 4.399 8.99 4.399 13.388 11.285 0 22.379 2.106 26.587-2.103 24.483-11.285-13.198-20.084-17.598-20.084-11.093-2.295-33.281-8.799-24.482 0 0 4.4 6.694 4.4 11.093 8.799zm46.67-28.69c15.492 4.399 26.587 13.388 37.68 26.585q2.488 0 4.974-.764 2.294-.957 4.4-2.295 2.103-1.53 3.633-3.635 1.53-1.913 2.487-4.4c2.104-11.092 4.4-28.881-2.295-37.68-4.4-4.4-6.695-6.694-17.79-8.799q-3.059-.956-6.502-.956-3.251 0-6.504.956t-6.12 2.487q-2.87 1.722-5.164 4.209c-4.4 6.502-11.095 15.492-8.799 24.29v.002zM596.16 537.439v-6.503c2.295-20.084 2.295-24.483 4.59-37.68 0-2.296 2.104-15.493 2.104-17.79 0-4.399-4.4-8.989-11.093-11.092h-28.69c-11.095 0-19.893 0-30.987 2.103 4.208 8.99 15.302 17.98 19.7 22.38 4.59 4.207 8.99 8.798 17.789 8.798 8.99-2.296 8.99 0 13.389-2.296 0 4.4 2.105 11.094 0 15.493 0 2.296 2.105 19.892-6.694 22.188-6.695 2.294-15.494 6.503-19.893 13.199-4.59 6.693-6.693 17.788 0 22.186 4.4 2.296 8.799-4.4 15.493-6.693 6.695-2.106 6.695-6.505 8.799-13.198 4.399-4.4 13.198-6.696 15.493-11.095zm-24.291 55.47q-1.914 0-4.017.19l-3.825.383-3.827.765-3.825.765.765 3.443q.575 1.722 1.148 3.252l1.148 3.443q.574 1.53 1.338 3.252c6.504-2.296 8.799-4.4 13.198-6.695 0 0 8.99-4.4 11.094-6.694-4.4-2.106-8.799-2.106-13.198-2.106l.001.001zM538.586 415.79c4.4-4.59 17.597-13.39 17.597-13.39 2.295 0 2.295-2.294 2.295-4.399-4.4-15.492-8.798-15.492-17.788-19.891q-1.53-1.34-3.443-2.106-1.913-.955-3.825-1.529-1.913-.574-4.017-.765-2.105-.191-4.208-.191c-8.799 2.295-24.292 6.694-28.691 20.084 0 2.103-2.295 11.093 4.4 19.891 4.399 8.799 13.388 15.493 17.787 19.893 6.695 0 8.8-11.093 19.893-17.598v.001zm64.267 28.69c6.696-8.798 13.198-13.388 13.198-22.187 0-4.4-8.799-2.295-13.198 0-4.4 0-11.093 4.4-17.788 8.799-6.503 6.694-11.094 8.99-11.094 15.493h11.094c11.094 0 13.389 4.59 17.788-2.105zM418.85 581.814c-6.503 8.798-19.892 22.188-24.29 28.692l-2.297-26.588c-2.103-6.693-2.103-6.693-2.103-19.891 11.093-6.696 15.492-11.095 26.587-17.79 4.399-4.399 19.891-8.798 42.08-15.492 0 8.99-2.296 15.493-4.4 24.291q-5.164 2.487-9.755 5.356-4.782 2.87-9.373 6.312-4.399 3.251-8.415 7.077-4.208 3.825-7.842 8.034h-.192v-.001zm-11.093 117.442c0-4.59-2.296-8.99-4.4-13.39-2.295-6.693-2.295-13.197-4.59-19.892 0-6.694-2.105-31.177-2.105-35.577v-10.902c8.8-4.59 19.893-11.285 28.692-15.493-2.105 10.902-4.4 15.493-4.4 33.09 0 4.399 4.4 17.789 6.695 33.282-4.4 8.799-6.694 15.492-13.198 22.187q-.573.957-1.34 1.913l-1.528 1.913q-.766.764-1.722 1.53t-2.105 1.339h.001zm-1.913-250.376c8.798-4.4 13.198-8.799 21.996-15.492-2.104-13.39-4.4-22.189-4.4-33.282 0-6.503 0-13.199 4.4-19.892 4.4-8.799 15.492-8.799 24.291-6.695-2.103 15.493-4.208 20.084-4.208 37.68 0 2.295 4.21 13.39 6.504 17.788 2.295 4.4 4.4 8.799 4.4 13.39 0 2.103-2.105 4.208-4.4 6.503-6.504 4.4-8.799 2.296-11.094 6.695-11.093 8.799-15.493 13.198-24.291 19.892-4.4 4.399-4.4 4.399-8.8 11.094 0 0-2.294-24.292-4.398-37.681zm4.399 88.559zm-4.4-19.892c0-2.296 0-17.789 2.105-24.483 0-4.208 19.891-10.902 30.986-13.198 4.4 0 22.187-4.4 24.29 0 2.297 4.59-2.103 4.4-2.103 17.789-2.295 4.4-4.399 2.103-8.989 6.693-2.104 2.106-26.396 19.894-28.691 21.997-4.4 2.296-6.694 4.4-13.198 11.094-2.295-6.694-2.295-13.198-4.4-19.892zm4.4 19.892zm141.733 181.709c2.105 4.4 4.399 15.493 4.399 15.493 0 15.493-6.693 19.893-8.799 28.69-4.59-6.693-6.693-15.492-8.99-22.186-2.104-6.695-6.694-11.094-11.093-17.79 2.295-2.103 4.4-19.7 4.4-19.7 2.294-2.295 6.694 2.104 8.798 2.104q1.913 1.147 3.635 2.678l3.059 3.06q1.34 1.721 2.487 3.635 1.147 1.912 1.913 4.016h.19zm79.76-82.055c22.188 0 44.376 2.294 61.973 13.388 0 8.8 0 19.892-4.4 28.69 0 2.297-4.398 11.286-8.798 15.495-6.694-8.8-19.891-17.598-19.891-17.598 2.103 8.799 0 10.903-2.296 22.188 0 2.104-15.493 2.104-15.493 2.104-13.198-6.694-15.493-15.493-15.493-15.493 0 2.104-2.295 17.788-11.094 17.788-8.99 0-15.493 0-15.493-6.694-2.105-6.695-2.105-11.094-2.105-17.788v-8.8c-6.694 2.296-11.093 8.8-15.684 13.39-2.104 0-4.4-4.59-6.503-4.59q-1.53-2.87-2.87-5.93-1.147-2.87-2.294-5.929t-2.105-6.121q-.956-3.06-1.721-6.312c22.188-15.493 44.376-17.788 64.268-17.788zm-128.343 79.76c2.103 11.094 8.799 30.986 8.799 30.986-6.696-4.4-13.39-6.694-19.893-11.094-4.4-2.295-8.99-4.399-8.99-6.694l-1.53-6.504q-.765-3.251-1.34-6.694-.573-3.251-.955-6.694-.383-3.253-.574-6.695c0-8.798 4.399-17.597 8.99-17.597 4.4 2.104 10.902 4.4 13.198 8.799 4.4 6.693 0 15.683 2.294 22.187h.001zm-66.563-30.986c6.694 6.694 8.99 8.799 13.39 19.891-2.297 2.296-15.494 13.39-26.587 26.588 0 4.4-6.696 8.799-6.696 8.799 0-8.799-2.103-19.893-2.103-24.292-2.296-4.4-4.4-6.694-4.4-11.094 2.104-2.295 6.503-4.399 10.903-6.694 2.296-4.4 13.39-11.094 15.493-13.198z" style="fill:#fff"/>
</svg>
