<svg xmlns="http://www.w3.org/2000/svg" viewBox="0 0 1024 1024">
   <circle cx="512" cy="512" r="512" style="fill:#ff0069"/>
   <path d="M512 256c-69.55 0-78.23.32-105.54 1.54s-45.82 5.57-62.14 11.9a130.83 130.83 0 0 0-74.88 74.88c-6.34 16.32-10.65 34.88-11.9 62.14S256 442.45 256 512s.32 78.23 1.54 105.54 5.57 45.82 11.9 62.14a130.83 130.83 0 0 0 74.88 74.88c16.34 6.31 34.9 10.65 62.14 11.9S442.45 768 512 768s78.23-.32 105.54-1.54 45.82-5.59 62.14-11.9a130.83 130.83 0 0 0 74.88-74.88c6.31-16.32 10.65-34.9 11.9-62.14S768 581.55 768 512s-.32-78.23-1.54-105.54-5.59-45.85-11.9-62.14a130.83 130.83 0 0 0-74.88-74.88c-16.32-6.34-34.9-10.65-62.14-11.9S581.55 256 512 256Zm0 46.08c68.33 0 76.48.34 103.47 1.51 25 1.17 38.51 5.31 47.51 8.85A84.24 84.24 0 0 1 711.57 361c3.5 9 7.68 22.55 8.81 47.51 1.22 27 1.49 35.11 1.49 103.47s-.32 76.48-1.58 103.47c-1.3 25-5.46 38.51-9 47.51-4.78 12-10.22 20.48-19.18 29.48a79.87 79.87 0 0 1-29.44 19.11c-9 3.5-22.72 7.68-47.68 8.81-27.18 1.22-35.18 1.49-103.66 1.49s-76.5-.32-103.66-1.58c-25-1.3-38.74-5.46-47.7-9-12.14-4.78-20.48-10.22-29.42-19.18a77.73 77.73 0 0 1-19.2-29.44c-3.52-9-7.66-22.72-9-47.68-1-26.88-1.3-35.18-1.3-103.34s.34-76.5 1.3-103.7c1.3-25 5.44-38.7 9-47.66 4.48-12.16 10.22-20.48 19.2-29.46s17.28-14.7 29.42-19.16c9-3.54 22.42-7.7 47.38-9 27.2-1 35.2-1.28 103.66-1.28Zm0 78.46A131.46 131.46 0 1 0 643.46 512 131.45 131.45 0 0 0 512 380.54Zm0 216.79A85.33 85.33 0 1 1 597.33 512 85.31 85.31 0 0 1 512 597.33Zm167.38-222a30.72 30.72 0 1 1-30.72-30.7 30.74 30.74 0 0 1 30.72 30.73Z" style="fill:#fff"/>
</svg>
