<svg xmlns="http://www.w3.org/2000/svg" id="Icon" viewBox="0 0 1024 1024">
   <defs>
      <style>
         .cls-1{fill:#fff}
      </style>
   </defs>
   <path d="M272 538.62c7.33-2.18 11.8 1.09 15.72 7.18 38.79 59.83 77.69 119.6 116.68 179.32 1.6 2.4 2.95 4.96 4.03 7.63 2.82 7.3-.16 11.84-8.02 11.91-23.77.2-47.57.24-71.35.25-6.54 0-13.09-.22-19.63-.44-12.06-.4-21.34-5.9-27.14-16.36-3.33-5.96-5.38-12.63-7.98-18.99-.8-1.89-1.55-3.87-2.32-5.85V538.61Zm473.08-5.04c4.17 1.22 5.62 3.89 5.66 7.8.17 15.8.7 31.62.67 47.4-.08 36.52-.2 73.06-.81 109.56-.12 6.75-2.05 13.66-4.23 20.21-5.79 17.14-17.92 26.02-36.04 26.17-27.81.31-55.61.21-83.42.08-12.16-.05-15.34-6.04-8.66-16.36 17.63-27.26 35.46-54.52 53.25-81.7 21.95-33.6 43.92-67.19 65.92-100.75 2.69-4.1 5.14-8.31 7.67-12.41Z" class="cls-1"/>
   <circle cx="512" cy="512" r="512" style="fill:#004c75"/>
   <path d="M527.81 638.53c-2.11 3.09-3.89 6.57-6.65 9.22-2.39 1.99-5.23 3.83-8.47 3.8-5.48.39-10.32-3.37-13.09-7.79-5.43-8.49-192.62-296.06-215.74-331.45-3.5-5.41-8.35-11.5-5.85-18.34 2.28-4.62 7.86-6.19 12.65-5.94h444.13c4.51.06 9.7 2.01 11.41 6.55 1.32 4.23-.18 8.78-2.52 12.38-12.47 19.07-45.03 69.11-48.89 75.1-8.03 12.17-150.23 230.8-166.98 256.48Zm218.27 52.36V544.15c.06-3.65.12-7.7-2.06-10.79a4.12 4.12 0 0 0-4.04-1.49c-.43.04-.84.17-1.21.39a20.78 20.78 0 0 0-6.47 6.19c-6.76 9.23-100.16 135.33-112.19 151.7-7.09 9.65-14.32 19.2-21.32 28.88a13.388 13.388 0 0 0-2.35 11.1c1.51 3.9 5.95 5.64 9.86 5.82h117.39c10.66.68 20.23-7.9 22.19-18.12.56-8.92.04-17.95.21-26.94Zm-317.72 34.9c-.27-3.09-2.18-5.83-3.88-8.36-7.22-9.7-124.61-168.47-132.94-179.72a31.635 31.635 0 0 0-3.42-3.89c-2.28-1.82-5.57-3.02-7.91-.67-2.33 2.87-1.63 9.62-1.71 14.5v167.79c0 3.21 1.23 6.25 2.53 9.13 3.05 5.3 8.02 9.23 13.88 10.97 1.49.26 3 .41 4.52.45h118.92c4.31-.1 9.54-2.79 10.01-7.39.13-.91.13-1.84 0-2.75v-.07Z" class="cls-1"/>
</svg>
