<svg xmlns="http://www.w3.org/2000/svg" viewBox="0 0 1024 1024">
   <circle cx="512" cy="512" r="512" style="fill:#2082a9"/>
   <path d="M434.94 284.44c-2.85 1.8-6.55 3.49-7.71 2.96-6.34-2.96-10.25-6.97-11.62-12.04a291.349 291.349 0 0 1 45.33-20.18c1.16 3.17 2.43 4.75 7.92 7.92-.11.42-.21 1.27-4.75 3.8-14.16 7.71-20.07 11.62-27.68 16.59-.42.32-1.06.63-1.48.95m115.17 15.43c-.74 4.75-1.06 6.76-46.28 3.59-18.28-1.27-44.59-4.33-65.51-11.41-.11-.21-.32-.53-.53-.74.32-1.37 1.16-4.54 29.37-21.66q7.08-3.91 13.1-2.22c7.71 2.22 29.48 7.29 66.46 6.87q3.28.42 3.49 24.3c0 .42 0 .85-.11 1.27m1.8 123.41c-4.12 20.81-174.34.63-224.84-26.63-2.22-3.28-3.38-5.07 18.28-36.24q5.18-6.66 14.69-1.8c11.94 6.13 60.22 25.99 183.32 25.89q8.03.74 8.66 36.98c0 .63 0 1.27-.11 1.8m-230.86-39.73c-2.64 3.8-4.54 4.54-5.07 4.33 0 0-3.7-2.54-5.49-9.61-.11-.32-.11-.85-.21-1.16 8.24-13.84 17.75-26.94 28.21-39.2 1.69 5.6 1.69 5.81 4.65 9.19.53 1.16 0 3.17-1.69 5.92-6.02 9.93-13.31 19.12-19.44 28.95-.32.53-.63 1.16-.95 1.58m35.61 177.93c-1.16 7.82-3.17 8.24-34.02-1.9-11.83-3.91-33.28-12.15-43.53-23.56-2.11-2.32-5.18-5.81-6.23-12.68-.11-2.22-.11-4.44-.21-6.66-.21-14.9.85-29.48 3.06-43.85 2.43 8.56 7.4 26.41 75.97 43.32 1.37.53 5.39 2.01 6.13 8.88 1.37 11.62-1.06 23.03-1.16 34.55.11.63.11 1.37 0 1.9m198.21 16.27c-4.44 20.39-169.69-3.38-171.38-3.7-9.3-2.64-9.19-5.71-7.08-43.32q1.37-8.88 25.89-5.07c24.94 3.91 69.63 8.45 141.26 8.35q10.57.85 11.41 41.84c0 .53 0 1.27-.11 1.9M453.55 770.47c1.69 1.06 1.69 1.27 1.8 1.69-.11 0-9.83-1.48-24.94-8.14-19.86-10.46-21.55-11.31-33.81-19.55l-12.36-8.88c8.66 5.6 16.27 9.83 40.78 16.06 10.99 3.38 18.28 12.26 27.58 18.17.21.21.63.42.95.63m104.71 8.77c-2.11 5.18-58.96.85-86.96-3.59-3.7-.85-8.35-1.8-25.25-16.17-1.69-1.69-1.69-1.9-1.48-2.96q1.27-.32 13.52 1.58c16.38 2.54 45.86 5.6 93.19 5.6q7.08.32 7.08 15.11c-.11 0-.11.21-.11.42M330.98 670.59c1.48 2.96 1.06 3.59.85 3.91 0 0-6.76-1.69-15.74-12.89-14.48-24.94-15.32-26.41-23.35-45.75 4.12 6.87 5.81 9.61 17.96 17.22.74.53 2.75 2.01 5.28 6.66 5.18 9.61 9.09 19.86 14.26 29.48.21.42.53.95.74 1.37m226.21 31.7c-4.01 14.9-141.37 1.27-199.69-16.59-4.97-2.22-7.71-3.38-20.39-34.44-1.06-3.17-.85-3.59 0-5.49 4.33-1.48 10.46 2.11 14.9 3.38 25.67 7.5 85.16 20.18 194.83 19.97q10.14.63 10.67 31.91c-.21.32-.21.95-.32 1.27m19.65-443.34c1.8 1.9 1.58 2.54 1.37 3.28-39.52 5.71-94.04.95-99-12.68 16.27-4.44 33.18-7.5 50.4-8.98 3.49 4.23 18.38 4.44 27.26 3.06 1.58.53 8.45 4.75 19.12 14.48.32.21.63.53.85.85m49.55 233.61c-2.43 21.87-195.68 6.23-197.69 6.02-106.29-12.26-135.45-33.7-143.27-45.43-1.58-2.43-2.96-6.13-3.59-8.98 4.23-15.85 9.93-31.06 16.91-45.64 11.52 40.15 155.11 64.24 313.7 52.62q9.72.11 13.95 39.52c0 .63.11 1.37 0 1.9m75.97 140.84c-11.62 31.7-383.96 32.86-416.19-35.82-7.5-26.84-8.45-30.32-11.41-51.88 16.91 57.79 252.31 76.5 422.52 48.81 9.72.32 9.51 1.69 5.49 37.19-.21.53-.32 1.27-.42 1.69M678.8 343.07c12.15 27.37-221.78 28.53-294.47 1.48-26.73-9.93-29.06-19.44-30.01-23.46 11.52-11.31 24.09-21.66 37.51-30.96 10.25 32.97 158.59 46.07 260.13 23.03 5.39.21 6.87.32 26.1 28.42.21.53.53 1.06.74 1.48m-37.09 399.6c-15.43 19.65-228.96 15.32-276.29-22.51-18.28-17.75-21.13-20.5-34.55-37.3l-1.06-1.37c33.07 35.29 177.29 51.88 314.75 36.24 8.45.32 7.71 2.32-2.22 23.88-.21.32-.42.74-.63 1.06" style="fill:#fff"/>
</svg>
