<svg xmlns="http://www.w3.org/2000/svg" viewBox="0 0 1024 1024">
   <circle cx="512" cy="512" r="512" style="fill:#3a8bc2"/>
   <path d="M433 289.5c-2.7 1.7-6.2 3.3-7.3 2.8-6-2.8-9.7-6.6-11-11.4 13.6-7.5 27.9-13.9 42.9-19.1 1.1 3 2.3 4.5 7.5 7.5-.1.4-.2 1.2-4.5 3.6-13.4 7.3-19 11-26.2 15.7-.4.3-1 .6-1.4.9m109 14.6c-.7 4.5-1 6.4-43.8 3.4-17.3-1.2-42.2-4.1-62-10.8-.1-.2-.3-.5-.5-.7.3-1.3 1.1-4.3 27.8-20.5 6.7-3.7 6.7-3.7 12.4-2.1 7.3 2.1 27.9 6.9 62.9 6.5 3.1.4 3.1.4 3.3 23 0 .4 0 .8-.1 1.2m1.7 116.8c-3.9 19.7-165 .6-212.8-25.2-2.1-3.1-3.2-4.8 17.3-34.3 4.9-6.3 4.9-6.3 13.9-1.7 11.3 5.8 57 24.6 173.5 24.5 7.6.7 7.6.7 8.2 35 0 .6 0 1.2-.1 1.7m-218.5-37.6c-2.5 3.6-4.3 4.3-4.8 4.1 0 0-3.5-2.4-5.2-9.1-.1-.3-.1-.8-.2-1.1 7.8-13.1 16.8-25.5 26.7-37.1 1.6 5.3 1.6 5.5 4.4 8.7.5 1.1 0 3-1.6 5.6-5.7 9.4-12.6 18.1-18.4 27.4-.3.5-.6 1.1-.9 1.5m33.7 168.4c-1.1 7.4-3 7.8-32.2-1.8-11.2-3.7-31.5-11.5-41.2-22.3-2-2.2-4.9-5.5-5.9-12-.1-2.1-.1-4.2-.2-6.3-.2-14.1.8-27.9 2.9-41.5 2.3 8.1 7 25 71.9 41 1.3.5 5.1 1.9 5.8 8.4 1.3 11-1 21.8-1.1 32.7.1.6.1 1.3 0 1.8m187.6 15.4c-4.2 19.3-160.6-3.2-162.2-3.5-8.8-2.5-8.7-5.4-6.7-41 1.3-8.4 1.3-8.4 24.5-4.8 23.6 3.7 65.9 8 133.7 7.9 10 .8 10 .8 10.8 39.6 0 .5 0 1.2-.1 1.8m-95.9 182.4c1.6 1 1.6 1.2 1.7 1.6-.1 0-9.3-1.4-23.6-7.7-18.8-9.9-20.4-10.7-32-18.5l-11.7-8.4c8.2 5.3 15.4 9.3 38.6 15.2 10.4 3.2 17.3 11.6 26.1 17.2.2.2.6.4.9.6m99.1 8.3c-2 4.9-55.8.8-82.3-3.4-3.5-.8-7.9-1.7-23.9-15.3-1.6-1.6-1.6-1.8-1.4-2.8 1.2-.3 1.2-.3 12.8 1.5 15.5 2.4 43.4 5.3 88.2 5.3 6.7.3 6.7.3 6.7 14.3-.1 0-.1.2-.1.4M334.6 655c1.4 2.8 1 3.4.8 3.7 0 0-6.4-1.6-14.9-12.2-13.7-23.6-14.5-25-22.1-43.3 3.9 6.5 5.5 9.1 17 16.3.7.5 2.6 1.9 5 6.3 4.9 9.1 8.6 18.8 13.5 27.9.2.4.5.9.7 1.3m214.1 30c-3.8 14.1-133.8 1.2-189-15.7-4.7-2.1-7.3-3.2-19.3-32.6-1-3-.8-3.4 0-5.2 4.1-1.4 9.9 2 14.1 3.2 24.3 7.1 80.6 19.1 184.4 18.9 9.6.6 9.6.6 10.1 30.2-.2.3-.2.9-.3 1.2m18.6-419.6c1.7 1.8 1.5 2.4 1.3 3.1-37.4 5.4-89 .9-93.7-12 15.4-4.2 31.4-7.1 47.7-8.5 3.3 4 17.4 4.2 25.8 2.9 1.5.5 8 4.5 18.1 13.7.3.2.6.5.8.8m46.9 221.1c-2.3 20.7-185.2 5.9-187.1 5.7-100.6-11.6-128.2-31.9-135.6-43-1.5-2.3-2.8-5.8-3.4-8.5 4-15 9.4-29.4 16-43.2 10.9 38 146.8 60.8 296.9 49.8 9.2.1 9.2.1 13.2 37.4 0 .6.1 1.3 0 1.8m71.9 133.3c-11 30-363.4 31.1-393.9-33.9-7.1-25.4-8-28.7-10.8-49.1 16 54.7 238.8 72.4 399.9 46.2 9.2.3 9 1.6 5.2 35.2-.2.5-.3 1.2-.4 1.6M663.8 345c11.5 25.9-209.9 27-278.7 1.4-25.3-9.4-27.5-18.4-28.4-22.2 10.9-10.7 22.8-20.5 35.5-29.3 9.7 31.2 150.1 43.6 246.2 21.8 5.1.2 6.5.3 24.7 26.9.2.5.5 1 .7 1.4m-35.1 378.2c-14.6 18.6-216.7 14.5-261.5-21.3-17.3-16.8-20-19.4-32.7-35.3l-1-1.3c31.3 33.4 167.8 49.1 297.9 34.3 8 .3 7.3 2.2-2.1 22.6-.2.3-.4.7-.6 1" style="fill:#fff"/>
</svg>
