<svg xmlns="http://www.w3.org/2000/svg" viewBox="0 0 1024 1024">
   <circle cx="512" cy="512" r="512" style="fill:#003d8f"/>
   <path d="M764 598.59a43.69 43.69 0 0 1-8.75-.89 45.36 45.36 0 0 1-29.91-21.36l-.16-.3a13.44 13.44 0 0 1 4.95-17.72 13 13 0 0 1 6.65-1.84 13.21 13.21 0 0 1 11.47 6.73c.13.24.28.49.44.74l1.4 1.9 1.87 1.89a18.29 18.29 0 0 0 8.55 4.13 18.8 18.8 0 0 0 14.73-3.37 17.82 17.82 0 0 0 7.4-13.33 18.42 18.42 0 0 0-5.12-14.3c-3.68-3.81-39.58-41.11-41.36-43a48.55 48.55 0 0 1-4.77-5.67c-5.59-7.92-7.33-17.25-6.47-26.49a43 43 0 0 1 5.57-18.31c3.21-5.61 1.81-3.07 2.35-3.85a50 50 0 0 1 9.05-9.22 46.41 46.41 0 0 1 7.59-4.56 43.47 43.47 0 0 1 56.46 17.43 12.82 12.82 0 0 1 1.37 9.95 13.11 13.11 0 0 1-6.25 8.08 12.58 12.58 0 0 1-6.41 1.74 13.09 13.09 0 0 1-11.39-6.7 17.2 17.2 0 0 0-11.52-8.14 17.85 17.85 0 0 0-14 3.14 17 17 0 0 0-6.61 12.32 17.33 17.33 0 0 0 4.73 13.41l40.47 41.73A44.82 44.82 0 0 1 764 598.6m-128.08 0a43.78 43.78 0 0 0 43.52-43.53V469a43.52 43.52 0 0 0-87 0v86a43.78 43.78 0 0 0 43.53 43.53m0-146.86A17.47 17.47 0 0 1 653.16 469v86a17.35 17.35 0 0 1-17.24 17.25h-.19a17.14 17.14 0 0 1-17.06-17.06V469a17.35 17.35 0 0 1 17.25-17.24m-195.47 8v125.67a13.14 13.14 0 1 0 26.28 0v-71.2zm71.28 50.13v-71.32a13.14 13.14 0 0 1 26.28 0v125.79zm26.06 72.77v2.81a13.19 13.19 0 0 1-24.92 6l-72.26-149.8v-3a13.16 13.16 0 0 1 25-5.68zm-195.68 16A43.79 43.79 0 0 0 385.63 555v-86a43.52 43.52 0 0 0-87 0v86a43.79 43.79 0 0 0 43.53 43.53m0-146.86A17.58 17.58 0 0 1 359.35 469v86.13a17.25 17.25 0 0 1-34.49 0V469a17.35 17.35 0 0 1 17.25-17.24M215 584v.09a14.33 14.33 0 0 0 28.66 0V439.74a14.33 14.33 0 0 0-28.66 0z" style="fill:#fff"/>
</svg>
