<svg xmlns="http://www.w3.org/2000/svg" viewBox="0 0 1024 1024">
   <circle cx="512" cy="512" r="512" style="fill:#134391"/>
   <path d="M783.69 605.28c-3.17 0-6.33-.32-9.43-.96a48.897 48.897 0 0 1-32.24-23.02l-.17-.32c-3.54-6.78-1.2-15.14 5.33-19.1 2.17-1.29 4.64-1.98 7.17-1.98 5.13.02 9.85 2.79 12.36 7.25.14.26.3.53.47.8l1.51 2.05 2.02 2.04c2.63 2.27 5.8 3.8 9.21 4.45 5.57 1.06 11.32-.25 15.88-3.63 4.68-3.35 7.6-8.62 7.98-14.37.46-5.69-1.55-11.31-5.52-15.41-3.97-4.11-42.66-44.31-44.58-46.34-1.87-1.9-3.59-3.95-5.14-6.11-6.02-8.54-7.9-18.59-6.97-28.55.49-6.95 2.55-13.69 6-19.73 3.46-6.05 1.95-3.31 2.53-4.15a54.3 54.3 0 0 1 9.75-9.94c2.56-1.9 5.3-3.54 8.18-4.91 22.08-10.61 48.59-2.42 60.85 18.79a13.84 13.84 0 0 1 1.48 10.72 14.16 14.16 0 0 1-6.74 8.71 13.635 13.635 0 0 1-6.91 1.88 14.1 14.1 0 0 1-12.28-7.22 18.516 18.516 0 0 0-12.42-8.77c-5.28-1.03-10.75.2-15.09 3.38-4.17 3.2-6.76 8.04-7.12 13.28a18.653 18.653 0 0 0 5.1 14.45l43.62 44.97c18.48 19.24 17.87 49.82-1.37 68.3a48.33 48.33 0 0 1-33.47 13.47m-138.04 0c25.84-.15 46.76-21.07 46.9-46.91v-92.76c-.79-25.89-22.41-46.25-48.3-45.46-24.79.75-44.71 20.67-45.46 45.46v92.69c.15 25.85 21.07 46.77 46.91 46.91m0-158.28c10.22.16 18.45 8.45 18.53 18.68v92.69c-.06 10.24-8.34 18.53-18.58 18.59h-.2c-10.13-.05-18.34-8.25-18.39-18.39v-92.89c.06-10.24 8.35-18.52 18.59-18.58m-210.67 8.62v135.44c0 7.82 6.34 14.16 14.16 14.17 7.82 0 14.16-6.34 14.17-14.16v-76.75l-28.32-58.71Zm76.82 54.03v-76.87c0-7.82 6.34-14.16 14.16-14.16s14.16 6.34 14.16 14.16v135.57l-28.32-58.71Zm28.09 78.43v3.03c-.02 7.85-6.4 14.2-14.25 14.18a14.225 14.225 0 0 1-12.61-7.71l-77.88-161.45v-3.23c.04-7.83 6.42-14.15 14.25-14.11 5.41.03 10.33 3.13 12.69 7.99l77.79 161.31Zm-210.89 17.24c25.9-.16 46.83-21.16 46.9-47.05v-92.69c-.79-25.89-22.41-46.25-48.3-45.46-24.79.75-44.71 20.67-45.46 45.46v92.69c.15 25.85 21.07 46.76 46.91 46.91m0-158.28c10.2.23 18.38 8.48 18.53 18.68v92.83c-.25 10.26-8.77 18.39-19.03 18.14-9.92-.24-17.9-8.22-18.14-18.14v-92.83c.06-10.24 8.35-18.52 18.59-18.58M192 589.58v.1c0 8.53 6.91 15.44 15.44 15.44s15.44-6.91 15.44-15.44V434.11c0-8.53-6.91-15.44-15.44-15.44S192 425.58 192 434.11v155.48Z" style="fill:#fff"/>
</svg>
