<svg xmlns="http://www.w3.org/2000/svg" viewBox="0 0 1024 1024">
   <circle cx="512" cy="512" r="512" style="fill:#003049"/>
   <path d="M785.67 480.04 517.33 338.57l124.83-65.81c15.36-8.09 34.55-2.17 42.66 13.15l103.57 195.72c-.88-.57-1.79-1.09-2.72-1.59Zm-548.04 63.53c-.72-.4-1.43-.81-2.11-1.25l103.6 195.77c8.11 15.33 27.31 21.24 42.66 13.15l124.84-65.81-268.35-141.47c-.26-.13-.47-.27-.64-.39Zm268.98-205-124.83-65.81c-15.36-8.09-34.55-2.17-42.66 13.15L235.53 481.66c.89-.58 1.8-1.11 2.74-1.61l268.34-141.48ZM785.7 543.94 517.33 685.43l124.83 65.81c15.35 8.09 34.55 2.18 42.66-13.15l103.59-195.75c-.76.49-1.53.95-2.33 1.38-.11.07-.24.15-.38.22Zm9.19-33.83c-.24-3.98-1.46-8.1-3.59-11.59-.26-.47-.47-.88-.69-1.19-.88-1.33-2.34-2.68-3.46-3.98-1.81-1.89-3.93-3.24-6.15-4.46L511.97 347.06 242.94 488.89c-4.24 2.18-8.7 6.47-10.98 10.84-.15.3-.33.59-.5.87-.06.09-.12.18-.16.26-1.8 3.75-2.48 8.5-2.26 12.68v.27c.24 4.02 1.43 8.07 3.54 11.58 1.05 2.16 3.05 3.9 4.74 5.84 1.69 1.53 3.8 2.83 5.88 4.03l268.77 141.69 268.79-141.71c.09-.05.18-.11.28-.16 2.44-1.36 4.71-2.87 6.64-5.01 1.2-1.31 2.58-2.87 3.29-4.05 2.35-3.77 3.7-7.85 3.94-12.38.13-1.3.11-2.22-.02-3.53Z" style="fill:#fff;fill-rule:evenodd"/>
</svg>
