<svg xmlns="http://www.w3.org/2000/svg" viewBox="0 0 1024 1024">
   <circle cx="512" cy="512" r="512" style="fill:#00467d"/>
   <path d="M204.94 559.85c-1.6 0-2.89-1.3-2.89-2.9V403.63c0-1.6 1.3-2.9 2.89-2.9h1.56c15.04.01 27.24 12.21 27.25 27.25v128.97c0 1.6-1.3 2.9-2.9 2.9h-25.91Zm119.11-.04c-28.29.02-59.34-14.67-60.66-46.99a2.942 2.942 0 0 1 2.87-3.02h.05l24.88-.02a2.88 2.88 0 0 1 2.81 2.63c1.1 11.19 13.42 18.67 30.64 18.65 17.43-.01 28.26-7.36 28.26-19.15-.14-14.1-15.9-17.52-34.18-21.47-24.83-5.37-52.96-11.46-52.99-45.76-.02-25.44 24.06-43.93 57.27-43.96 33.36-.03 55.62 17.46 56.7 44.55a2.942 2.942 0 0 1-2.87 3.02h-.05l-24.89.02a2.863 2.863 0 0 1-2.81-2.62c-1.09-9.75-12.06-16.55-26.67-16.54-14.67.01-24.91 7.26-24.9 17.63 0 11.98 14.85 15.2 32.03 18.93 24.3 5.28 54.55 11.85 55.12 46.76.14 12.47-3.81 22.84-11.73 30.85-10.48 10.61-27.84 16.46-48.88 16.47Zm155.01.04c-42.92 0-76.54-34.81-76.54-79.25s33.95-79.86 75.66-79.86c36.09 0 75.28 26.91 76.84 76.79.02 4.07-.2 8.14-.67 12.18a2.891 2.891 0 0 1-2.86 2.53H436.57a.93.93 0 0 0-.72.35c-.2.22-.29.52-.25.82 3.26 21.27 20.37 35.58 42.57 35.58 13.6 0 25.37-4.96 34.06-14.35.5-.56 1.22-.88 1.98-.88l30.5.27c1.02.01 1.95.56 2.46 1.44.54.89.57 1.99.08 2.91-13.69 25.59-39.82 41.48-68.19 41.48Zm0-128.24c-20.31 0-36.8 12.64-43.05 33.01-.09.31-.03.64.16.9.18.25.46.4.77.41h83.66c.31 0 .59-.16.77-.41.2-.26.26-.59.16-.9-6.15-19.75-23.2-33.01-42.46-33.01Zm100.08 128.24c-2.68 0-4.85-2.17-4.85-4.85v-66.48c0-63.44 39.45-86.95 76.39-87.79a2.938 2.938 0 0 1 2.96 2.92v25.05c0 1.56-1.27 2.83-2.83 2.84-27.77 0-44.52 21.3-44.83 56.99V555c0 2.68-2.17 4.85-4.85 4.85h-21.99Zm153.01 0a2.99 2.99 0 0 1-2.77-1.87l-59.59-153.15a2.982 2.982 0 0 1 2.78-4.09h26.93c1.22 0 2.33.75 2.77 1.89l42.44 112.59c.22.54.83.8 1.37.58.26-.11.47-.32.58-.58l42.41-112.58a3 3 0 0 1 2.79-1.89h26.93c1.65 0 2.98 1.33 2.98 2.98 0 .39-.07.77-.22 1.13L761.97 558a2.964 2.964 0 0 1-2.77 1.87h-27.05Zm-291.99 63.41c-8.75.12-15.95-6.88-16.07-15.64-.12-8.75 6.88-15.95 15.64-16.07h366.19c8.75-.12 15.95 6.88 16.07 15.64.12 8.75-6.88 15.95-15.64 16.07H440.16Zm-73.98 0c-9.11 0-15.98-6.82-15.98-15.85s6.87-15.85 15.98-15.85 15.73 6.96 15.73 15.85-6.91 15.85-15.73 15.85Zm-74.08 0c-9.11 0-15.98-6.82-15.98-15.85s6.87-15.85 15.98-15.85 15.72 6.96 15.72 15.85-6.9 15.85-15.72 15.85Zm-74.08 0c-9.11 0-15.99-6.82-15.99-15.85s6.87-15.85 15.99-15.85 15.72 6.96 15.72 15.85-6.9 15.85-15.72 15.85Z" style="fill:#fff"/>
</svg>
