<svg xmlns="http://www.w3.org/2000/svg" viewBox="0 0 1024 1024">
   <circle cx="512" cy="512" r="512" style="fill:#fa5c5c"/>
   <path d="M322.7 284.6c-22.3 13.3-66.3 63.8-66.8 77.1v22c0 27.8 26 52.3 49.6 52.3 28.4 0 52-23.5 52-51.4 0 27.9 22.8 51.4 51.2 51.4 28.4 0 50.4-23.5 50.4-51.4 0 27.9 24.3 51.4 52.6 51.4h.5c28.4 0 52.6-23.5 52.6-51.4 0 27.9 22.1 51.4 50.4 51.4 28.4 0 51.2-23.5 51.2-51.4 0 27.9 23.6 51.4 52 51.4 23.6 0 49.6-24.4 49.6-52.3v-22c-.4-13.2-44.4-63.8-66.8-77.1-69.4-2.4-117.6-2.9-189.3-2.8s-169.4 1.1-189.2 2.8zm136.1 138.1c-2.8 4.9-6.1 9.1-10 12.8-10.7 10.5-25.4 16.9-41.5 16.9h-.1c-16.2 0-30.9-6.5-41.6-17-3.9-3.8-6.8-7.9-9.5-12.6-2.7 4.7-6.4 8.8-10.3 12.6-10.7 10.5-25.4 16.9-41.6 16.9h-.1c-1.9 0-4-.5-5.6-1.1-2.3 23.7-3.2 46.4-3.6 62.9v.1c0 8.4-.1 15.3-.1 24.9.4 49.8-4.9 161.4 22 188.8 41.7 9.7 118.3 14.1 195.2 14.2 76.9 0 153.6-4.5 195.2-14.2 26.9-27.4 21.5-139 22-188.8 0-9.6-.1-16.5-.1-24.9v-.1c-.3-16.5-1.3-39.2-3.6-62.9-1.6.6-3.7 1.1-5.6 1.1-16.2 0-30.9-6.5-41.6-17-3.9-3.8-7.6-7.9-10.3-12.6-2.7 4.7-5.7 8.8-9.5 12.6-10.7 10.5-25.4 17-41.6 17h-.1c-16.2 0-30.8-6.5-41.5-17-3.8-3.7-7.1-7.9-9.8-12.6l-.1-.3a57.5 57.5 0 0 1-9.9 12.8c-10.7 10.5-25.4 17-41.6 17h-3.6c-16.2 0-30.9-6.5-41.6-17-3.8-3.7-7.1-7.9-9.7-12.6l-.2.1zM416 478c17 .1 32 0 50.6 20.4 14.7-1.5 30-2.3 45.3-2.3 15.3 0 30.7.7 45.3 2.3C576 478 591 478.1 607.9 478c8 0 40 0 62.3 62.6l23.9 85.9c17.8 63.9-5.7 65.5-34.9 65.5-43.2-1.6-67.2-33-67.2-64.5-24 3.9-52 5.9-80 5.9s-56-2-80-5.9c0 31.5-24 62.9-67.3 64.6-29.2-.1-52.7-1.6-34.9-65.5l24-85.9C376 478 408 478 416 478zm96 49.2c0 .1-45.6 41.9-53.8 56.8l29.8-1.2v26c0 1.2 12 .7 24 .2 12 .6 24 1 24-.2v-26l29.8 1.2c-8.2-14.8-53.8-56.7-53.8-56.8z" style="fill:#fff"/>
</svg>
