<svg xmlns="http://www.w3.org/2000/svg" viewBox="0 0 1024 1024">
   <circle cx="512" cy="512" r="512" style="fill:#40be46"/>
   <path d="m479.41 582.11-27.89 7.82c2.55 7.1 4.41 19.83 4.41 36.72v83.67h31.16v-88.56c5.8-7.1 12.08-10.53 19.06-10.53a17 17 0 0 1 9.07 2.45l8.59-28.87c-4.88-2.2-7-2.7-11.63-2.7a26.52 26.52 0 0 0-10.23 2c-5.8 2.94-13.24 9.53-17.66 15.9a41.8 41.8 0 0 0-4.88-17.86Zm-108.19-41.35h-3.39v169.56h32.56V635.2h41.13v-27.89h-41.13V568.4h51.36l2-14.81a548 548 0 0 1-82.52-12.84ZM295 732.82l15.11 17.63c14.64-5.88 33-19.1 37.67-39.89 1.63-6.84 2.31-11.26 2.31-33.28V541.14h-33V681c0 18.34-.7 25.2-3.26 31.32-3.06 6.81-10.51 15.14-18.83 20.5Zm296.46-85.88c0 29.6-5.81 42.32-19.29 42.32-6.05 0-13-3.41-15.81-10.26-2.55-6.36-4-17.14-4-31.56 0-12.49 1.15-21.28 3.25-27.89 2.55-7.83 8.6-12.73 16-12.73a16.35 16.35 0 0 1 13.48 6.61c4.18 5.63 6.28 16.65 6.28 33.52Zm19.06 48.7c10.23-12.24 14.88-26.93 14.88-48.45 0-20.32-4.2-34-13.73-45.76-10.21-12.71-23.47-18.83-40.45-18.83-32.07 0-53.46 26.18-53.46 65.57S538.87 713 571.19 713c18.38 0 30.23-6.61 39.3-17.36Zm89.26-70.24c0 11.5-6.75 17.87-19.06 17.87-10.93 0-18.38-5.14-18.38-17.87 0-11.73 6.75-18.59 18.61-18.59s18.8 6.86 18.8 18.59Zm55.08-26.67-13-20.79c-7.2 6.85-16.05 10.77-24.64 10.77-4 0-6.05-.51-14.65-2.69a72.56 72.56 0 0 0-21.39-3.18c-30.46 0-50.2 16.63-50.2 42.33 0 18.59 8.36 30.09 25.57 34.75-7 1.71-14.65 5.37-18.13 9.53-2.55 2.94-3.73 6.85-3.73 11.5a23.68 23.68 0 0 0 2.31 10.29 15 15 0 0 0 6.75 6.1c5.58 2.22 14.65 3.69 28.59 3.92 7.2 0 11.63.24 13.25.24 8.6.49 13 2 16.26 3.69 3.26 1.94 5.58 6.35 5.58 11.25s-3 9.79-7.43 12.73c-4.18 2.92-10.93 4.14-19.76 4.14-14.43 0-22.31-5.37-22.31-15.4a18.77 18.77 0 0 1 1.38-8.08h-28.84a26.29 26.29 0 0 0-2.8 12.73c0 8.57 3.27 15.9 9.78 22.26 10.69 10.53 28.13 13.46 45.1 13.46 18.59 0 36.49-4.41 47-16.15 6.51-7.35 9.53-15.4 9.53-25.93 0-11.26-3.26-19.83-10.23-26.67-8.36-8.08-17.89-11-36-11.26L676 678c-3.25 0-5.1-1.23-5.1-2.94 0-3.43 4.42-6.36 12.33-10.26a36.36 36.36 0 0 0 4.65.24c25.34 0 43.92-15.67 43.92-37.21a31.22 31.22 0 0 0-7-20.55 54.59 54.59 0 0 0 8.2.72c8.6 0 15.11-2.7 21.86-9.3ZM363 393.49c-39 9.53-65.43 28.17-65.43 49.63 0 13.27 10.16 25.46 27.1 35.08-5.09-8.15-7.87-16.71-7.87-25.57 0-22.31 17.27-42.83 46.2-59.14Zm411 83.81c0-14.06-8.67-27.1-23.42-37.8a44.31 44.31 0 0 1 2.08 13.13c0 40.29-56.27 74.75-136 89a250.38 250.38 0 0 0 28 1.57c71.45 0 129.36-29.52 129.36-65.94Zm-46-21.91c0-14.78-12.66-28.47-34.22-39.77 5.05 6.12 7.8 12.64 7.8 19.41 0 35.71-76.09 64.67-169.93 64.67s-169.92-29-169.92-64.67a27.47 27.47 0 0 1 3.57-13.24c-15.07 10-23.67 21.42-23.67 33.59 0 38.66 86.48 70 193.19 70S728 494 728 455.38Zm-84.39-1.73c-39.36 25.44-160.63 35-212.86 2.41-40.93-25.58-26.89-66.13-144-155.49-15.3-11.68 2.83-24.08 14.3-16.14s1 10.06 24.1 33.21c46.7 46.74 46.25 4.72 53.63 20.61 15.51 33.42 49.73 67.08 49.73 67.08 34.29 22.31 61.65 27.17 112.21-7 32.07-21.7 19 34.5 97.59-6 28.68-14.78 27.49-5 56.64-45.6 12.1-16.87 35.24 13 9 17.1-10.49 1.66-28.2 13.13-35.81 31.27-10.74 26.81-6.09 46.65-24.55 58.58Zm-218.52-68.72c-9.72-4.29-19.9-20.84-23.87-27.49 10.88-10.65 6.47-28.47.33-38.26s-13.59-7-21.75-16 3.08-32.42 13.55-14.41c39.21 67.46 64.95 39.4 97 35.37 30.74-3.86 57.91 12.89 66.26-34.53 1.36-7.76 8.9-9.62 9.67 3.22s5.6 44 22.49 48.09 30.32-4 34.29-8.39 6-3.79 7.76 7.2 6 26.21 29.75 9.28c48.54-34.64 34.64-48 53.5-56.93 10.75-5.07 27.68 11.42 3.2 23.8-35 17.7-38.71 39.68-60.83 53.63-37.18 23.48-25.81.95-85.63-7.57-23-3.29-30.44 22.4-48.42 15-41.48-17.14-70.42-13.85-97.28 8Zm129.64-125c1.36 10.12 3.06 9.88 6.7 10.82s8.22-4.77 8.38-10.3-2.36-9-7.83-8.83-7.41 3-7.24 8.31ZM735 278.32c4.35 4.25 16 1.38 18.69-1.66 7-7.8 7.2-12.5 3.62-17.73s-11.19-4.26-18.71 1.19-6.09 15.79-3.6 18.2Zm-3.27 51.51c-3.74 5-3.85 8.48-1.19 11.22 2.83 2.92 8.71 5.46 12.94 2.08s4.21-8.22.63-12.52-8.5-4.29-12.39-.78Zm-369.5-60.9c5.7 1.75 8.2 7 13 1 2.38-3 2.61-6.94-.54-11.4-2-2.78-11.25-4.7-15.18-.73s-.35 10.19 2.71 11.14Zm-114.31-3.41c10.21 6.26 16.91 15.74 24.6 7.28 2.59-2.82 5.82-8.15.24-18.36-4.07-7.47-17.5-10.53-22.24-7.66s-10.53 13.88-2.61 18.74ZM342.29 314c3.25 3.38 8.78 3.1 12.09 1.28s2.61-7-.56-11.42c-2-2.78-7.87-4.07-11.81-.11s-2.01 7.85.28 10.25Z" style="fill:#fff"/>
</svg>
