<svg xmlns="http://www.w3.org/2000/svg" viewBox="0 0 1024 1024">
   <circle cx="512" cy="512" r="512" style="fill:#f05223"/>
   <path d="M512 212.935A299.064 299.064 0 0 0 212.935 512 299.064 299.064 0 0 0 512 811.065 299.064 299.064 0 0 0 811.065 512 299.064 299.064 0 0 0 512 212.935Zm0 22.716c152.383 0 276.341 123.974 276.341 276.342 0 152.383-123.958 276.356-276.341 276.356S235.659 664.376 235.659 511.993c0-152.368 123.958-276.342 276.341-276.342zm0 9.293c-147.263 0-267.049 119.802-267.049 267.049 0 147.262 119.786 267.048 267.049 267.048 147.246 0 267.049-119.786 267.049-267.048 0-147.247-119.803-267.05-267.049-267.05zm-95.987 86.48c23.522 0 42.655 19.148 42.655 42.67 0 18.695-12.112 34.589-28.892 40.333v83.735h55.869l85.866-102.087c-3.89-6.43-6.179-13.934-6.179-21.982 0-23.521 19.131-42.669 42.652-42.669 23.522 0 42.655 19.148 42.655 42.67 0 23.505-19.133 42.654-42.655 42.654-5.448 0-10.63-1.077-15.425-2.945l-82.536 98.136 82.551 98.255c4.795-1.868 9.978-2.925 15.41-2.925 23.522 0 42.655 19.131 42.655 42.652 0 23.522-19.133 42.655-42.655 42.655-23.52 0-42.652-19.133-42.652-42.655 0-8.063 2.288-15.582 6.179-22.01L485.63 525.697h-55.854v83.89c16.78 5.744 28.892 21.638 28.892 40.333 0 23.522-19.133 42.655-42.655 42.655-23.52 0-42.652-19.133-42.652-42.655 0-18.695 12.11-34.59 28.893-40.333V414.427c-16.782-5.744-28.893-21.638-28.893-40.334 0-23.521 19.132-42.669 42.652-42.669zm0 22.198c-11.285 0-20.468 9.17-20.468 20.471 0 11.27 9.183 20.454 20.468 20.454 11.287 0 20.472-9.183 20.472-20.454 0-11.301-9.185-20.471-20.472-20.471zm191.971 0c-11.285 0-20.469 9.17-20.469 20.471 0 11.27 9.184 20.454 20.47 20.454 11.285 0 20.47-9.183 20.47-20.454 0-11.301-9.185-20.471-20.47-20.471zm-191.97 275.83c-11.286 0-20.47 9.184-20.47 20.47 0 11.285 9.184 20.47 20.47 20.47s20.47-9.185 20.47-20.47c0-11.286-9.184-20.47-20.47-20.47zm191.97 0c-11.285 0-20.469 9.184-20.469 20.47 0 11.285 9.184 20.47 20.47 20.47 11.285 0 20.47-9.185 20.47-20.47 0-11.286-9.185-20.47-20.47-20.47z" style="fill:#fff"/>
</svg>
