<svg xmlns="http://www.w3.org/2000/svg" viewBox="0 0 1024 1024">
   <circle cx="512" cy="512" r="512" style="fill:#f05223"/>
   <path d="M673.011 757.994c-17.527 0-31.788-14.266-31.788-31.793s14.261-31.792 31.788-31.792c17.53 0 31.792 14.265 31.792 31.792s-14.261 31.793-31.792 31.793m-298.14-428.407c-17.527 0-31.793-14.261-31.793-31.769 0-17.55 14.266-31.789 31.793-31.789s31.792 14.24 31.792 31.793c0 17.504-14.265 31.77-31.792 31.77m31.792 396.61c0 17.526-14.265 31.792-31.792 31.792s-31.793-14.266-31.793-31.793 14.266-31.792 31.793-31.792 31.792 14.265 31.792 31.792M673.011 266.03c17.53 0 31.792 14.24 31.792 31.793 0 17.504-14.261 31.77-31.792 31.77-17.527 0-31.788-14.266-31.788-31.77 0-17.554 14.261-31.793 31.788-31.793m0 393.932c-8.437 0-16.487 1.643-23.934 4.54L520.87 511.9l128.183-152.41a65.833 65.833 0 0 0 23.957 4.57c36.53 0 66.244-29.735 66.244-66.24 0-36.53-29.713-66.266-66.244-66.266-36.527 0-66.24 29.736-66.24 66.263 0 12.5 3.557 24.153 9.596 34.14L483.013 490.507h-86.77V360.463c26.063-8.921 44.871-33.608 44.871-62.641 0-36.531-29.712-66.267-66.243-66.267-36.527 0-66.244 29.736-66.244 66.263 0 29.037 18.808 53.724 44.872 62.645V663.56c-26.064 8.921-44.872 33.604-44.872 62.641 0 36.527 29.713 66.244 66.244 66.244 36.527 0 66.243-29.713 66.243-66.244 0-29.037-18.808-53.716-44.872-62.64V533.274h86.744l133.381 158.74a65.802 65.802 0 0 0-9.596 34.186c0 36.527 29.713 66.244 66.24 66.244 36.53 0 66.244-29.713 66.244-66.244 0-36.53-29.713-66.243-66.244-66.243" style="fill:#fff"/>
</svg>
