<svg xmlns="http://www.w3.org/2000/svg" viewBox="0 0 1024 1024">
   <circle id="circle2" cx="512" cy="512" r="512" style="fill:#f05223"/>
   <path id="path1331" d="M512 240.563A271.436 271.436 0 0 0 240.563 512 271.436 271.436 0 0 0 512 783.437 271.436 271.436 0 0 0 783.437 512 271.436 271.436 0 0 0 512 240.563Zm0 20.617c138.306 0 250.813 112.521 250.813 250.813C762.813 650.3 650.306 762.82 512 762.82c-138.306 0-250.813-112.52-250.813-250.827 0-138.292 112.507-250.813 250.813-250.813zm0 8.434c-133.659 0-242.379 108.736-242.379 242.38 0 133.657 108.72 242.378 242.379 242.378 133.644 0 242.379-108.72 242.379-242.379 0-133.643-108.735-242.379-242.379-242.379zm-87.12 78.492c21.35 0 38.715 17.378 38.715 38.727 0 16.969-10.993 31.394-26.224 36.608v76h50.708l77.934-92.657c-3.53-5.835-5.608-12.646-5.608-19.951 0-21.349 17.364-38.727 38.712-38.727 21.349 0 38.714 17.378 38.714 38.727 0 21.334-17.365 38.714-38.714 38.714-4.944 0-9.648-.977-14-2.672l-74.911 89.07 74.925 89.178c4.352-1.695 9.056-2.654 13.986-2.654 21.349 0 38.714 17.363 38.714 38.711 0 21.349-17.365 38.714-38.714 38.714-21.348 0-38.712-17.365-38.712-38.714 0-7.318 2.077-14.142 5.608-19.977l-77.947-92.77H437.37v76.14c15.23 5.213 26.224 19.639 26.224 36.607 0 21.349-17.365 38.714-38.714 38.714-21.348 0-38.712-17.365-38.712-38.714 0-16.968 10.992-31.394 26.223-36.607V423.44c-15.231-5.214-26.223-19.64-26.223-36.608 0-21.349 17.364-38.727 38.712-38.727zm0 20.147c-10.242 0-18.577 8.323-18.577 18.58 0 10.23 8.335 18.565 18.578 18.565 10.243 0 18.58-8.336 18.58-18.565 0-10.257-8.337-18.58-18.58-18.58zm174.237 0c-10.242 0-18.578 8.323-18.578 18.58 0 10.23 8.336 18.565 18.578 18.565 10.244 0 18.58-8.336 18.58-18.565 0-10.257-8.336-18.58-18.58-18.58zm-174.236 250.35c-10.243 0-18.578 8.334-18.578 18.577 0 10.244 8.335 18.58 18.578 18.58 10.243 0 18.58-8.336 18.58-18.58 0-10.243-8.337-18.578-18.58-18.578zm174.236 0c-10.242 0-18.578 8.334-18.578 18.577 0 10.244 8.336 18.58 18.578 18.58 10.244 0 18.58-8.336 18.58-18.58 0-10.243-8.336-18.578-18.58-18.578z" style="fill:#fff"/>
</svg>
