<svg xmlns="http://www.w3.org/2000/svg" viewBox="0 0 1024 1024">
   <circle cx="512" cy="512" r="512" style="fill:#f05223"/>
   <path d="M512 190.74A321.26 321.26 0 0 0 190.74 512 321.26 321.26 0 0 0 512 833.262 321.26 321.26 0 0 0 833.262 512 321.26 321.26 0 0 0 512 190.74Zm0 16.555A304.705 304.705 0 0 1 816.705 512 304.705 304.705 0 0 1 512 816.705 304.705 304.705 0 0 1 207.295 512 304.705 304.705 0 0 1 512 207.295Zm0 17.924A286.781 286.781 0 0 0 225.219 512 286.781 286.781 0 0 0 512 798.781 286.781 286.781 0 0 0 798.781 512 286.781 286.781 0 0 0 512 225.219Zm-113.973 72.365c27.93 0 50.647 22.734 50.647 50.664 0 22.198-14.38 41.072-34.307 47.893v99.425h66.342l101.957-121.218c-4.617-7.636-7.338-16.545-7.338-26.102 0-27.927 22.718-50.662 50.645-50.662 27.93 0 50.648 22.734 50.648 50.664 0 27.91-22.718 50.645-50.648 50.645a50.333 50.333 0 0 1-18.317-3.495l-98.004 116.526 98.022 116.672c5.694-2.215 11.848-3.471 18.299-3.471v-.002c27.93 0 50.648 22.717 50.648 50.646 0 27.93-22.718 50.647-50.648 50.647-27.927 0-50.645-22.72-50.645-50.647a50.31 50.31 0 0 1 7.338-26.138L480.687 528.266h-66.32v99.611c19.928 6.823 34.307 25.692 34.307 47.893 0 27.93-22.72 50.646-50.647 50.646-27.93 0-50.648-22.72-50.648-50.646 0-22.201 14.381-41.073 34.308-47.893V396.14c-19.927-6.82-34.308-25.694-34.308-47.895 0-27.927 22.721-50.662 50.648-50.662zm0 26.357c-13.4 0-24.306 10.887-24.306 24.305 0 13.386 10.906 24.29 24.306 24.29v.001c13.4 0 24.307-10.906 24.307-24.289 0-13.42-10.906-24.307-24.307-24.307zm227.946 0c-13.4 0-24.305 10.886-24.305 24.307 0 13.383 10.904 24.29 24.305 24.29 13.403 0 24.306-10.907 24.306-24.29 0-13.42-10.903-24.307-24.306-24.307zM398.027 651.463c-13.4 0-24.306 10.906-24.306 24.307 0 13.4 10.906 24.306 24.306 24.306s24.307-10.906 24.307-24.306-10.906-24.307-24.307-24.307zm227.946 0c-13.4 0-24.305 10.906-24.305 24.307 0 13.4 10.904 24.306 24.305 24.306 13.403 0 24.306-10.906 24.306-24.306s-10.903-24.307-24.306-24.307z" style="fill:#fff"/>
</svg>
