<svg xmlns="http://www.w3.org/2000/svg" xml:space="preserve" width="1024" height="1024" viewBox="0 0 270.933 270.933">
  <circle cx="135.467" cy="135.467" r="135.467" style="fill:#f05223;fill-opacity:1;stroke-width:.264583"/>
  <path d="M175.906 199.58c-4.568 0-8.285-3.718-8.285-8.286s3.717-8.286 8.285-8.286c4.569 0 8.286 3.718 8.286 8.286s-3.717 8.286-8.286 8.286M98.202 87.925c-4.568 0-8.286-3.717-8.286-8.28 0-4.574 3.718-8.285 8.286-8.285s8.286 3.711 8.286 8.286c0 4.562-3.718 8.28-8.286 8.28m8.286 103.368c0 4.568-3.718 8.286-8.286 8.286s-8.286-3.718-8.286-8.286 3.718-8.286 8.286-8.286 8.286 3.718 8.286 8.286M175.906 71.36c4.569 0 8.286 3.711 8.286 8.286 0 4.562-3.717 8.28-8.286 8.28-4.568 0-8.285-3.718-8.285-8.28 0-4.575 3.717-8.286 8.285-8.286m0 102.67c-2.199 0-4.297.428-6.238 1.183l-33.414-39.772 33.408-39.722a17.158 17.158 0 0 0 6.244 1.191c9.521 0 17.265-7.75 17.265-17.264 0-9.521-7.744-17.271-17.265-17.271-9.52 0-17.264 7.75-17.264 17.27 0 3.258.927 6.295 2.501 8.898l-34.756 41.322h-22.615V95.972c6.793-2.325 11.695-8.759 11.695-16.326 0-9.521-7.744-17.271-17.265-17.271-9.52 0-17.265 7.75-17.265 17.27 0 7.568 4.902 14.002 11.695 16.327v78.996c-6.793 2.325-11.695 8.758-11.695 16.326 0 9.52 7.744 17.265 17.265 17.265 9.52 0 17.265-7.744 17.265-17.265 0-7.568-4.902-14-11.695-16.326v-33.956h22.608l34.763 41.372a17.15 17.15 0 0 0-2.501 8.91c0 9.52 7.744 17.265 17.264 17.265 9.521 0 17.265-7.744 17.265-17.265s-7.744-17.265-17.265-17.265" style="fill:#fff;fill-opacity:1;fill-rule:nonzero;stroke:none;stroke-width:6.30106"/>
</svg>
