<svg xmlns="http://www.w3.org/2000/svg" viewBox="0 0 1024 1024">
  <circle cx="512" cy="512" r="512" style="fill:#f05223"/>
  <circle cx="512" cy="512" r="326.234" style="fill:none;stroke:#fff;stroke-width:16;"/>
  <path d="M631.902 709.86c-14.097 0-25.568-11.473-25.568-25.57 0-14.098 11.47-25.573 25.568-25.573 14.1 0 25.572 11.475 25.572 25.572 0 14.098-11.471 25.572-25.572 25.572M392.098 365.279c-14.098 0-25.572-11.47-25.572-25.553 0-14.116 11.474-25.568 25.572-25.568 14.097 0 25.572 11.452 25.572 25.571 0 14.08-11.475 25.553-25.572 25.553M417.67 684.29c0 14.098-11.475 25.572-25.572 25.572-14.098 0-25.572-11.474-25.572-25.572 0-14.097 11.474-25.572 25.572-25.572 14.097 0 25.572 11.475 25.572 25.572m214.232-370.131c14.1 0 25.572 11.452 25.572 25.571 0 14.08-11.471 25.553-25.572 25.553-14.097 0-25.568-11.474-25.568-25.553 0-14.119 11.47-25.571 25.568-25.571m0 316.852c-6.786 0-13.261 1.321-19.251 3.651L509.53 511.92l103.101-122.587a52.952 52.952 0 0 0 19.27 3.675c29.383 0 53.282-23.917 53.282-53.279 0-29.383-23.899-53.3-53.282-53.3-29.38 0-53.279 23.917-53.279 53.297 0 10.055 2.861 19.427 7.719 27.46L479.08 494.713h-69.792V390.113c20.964-7.175 36.092-27.03 36.092-50.384 0-29.383-23.9-53.3-53.282-53.3-29.38 0-53.282 23.917-53.282 53.297 0 23.356 15.128 43.212 36.092 50.387v243.792c-20.964 7.175-36.092 27.028-36.092 50.384 0 29.38 23.899 53.282 53.282 53.282 29.38 0 53.282-23.899 53.282-53.282 0-23.356-15.128-43.206-36.092-50.384V529.113h69.77l107.284 127.679a52.927 52.927 0 0 0-7.719 27.497c0 29.38 23.9 53.282 53.28 53.282 29.382 0 53.281-23.899 53.281-53.282 0-29.383-23.899-53.282-53.282-53.282" style="fill:#fff;stroke-width:3"/>
</svg>
