<svg xmlns="http://www.w3.org/2000/svg" viewBox="0 0 1024 1024">
   <circle cx="512" cy="512" r="512" style="fill:#0c77bd"/>
   <path transform="translate(-2431.548 -1789.646) scale(3.64446)" d="M781.9 618.3s13.8-8.1 36-16.1c11.9-4.2 23.7-6.3 32.2-7.4-4.7-1.4-9.2-2.6-12.5-3.5-10.6-2.9-25.8-6.5-38.7-8.5-.6 3.1-2.1 8-5.8 15.2-5 9.8-11.2 20.3-11.2 20.3zm-6.1 11.4c-2.5.7-10.9 22.3-15.2 34.3 7.9 5.4 16 10.3 23.6 13.6 15.2 6.7 19.9 3.9 29.3-.3 6.7-3 17.3-10.2 26.6-16.9-11.3-7.4-25.4-16.3-33.6-20.1-15.2-7.4-27.1-11.8-30.7-10.6zm13-48c-11.6-.8-13.4 1.9-15.7 3.4-5.9 3.3-30.7 18-42.7 28.4-11.4 9.9-9.4 16.1-4.1 22.3 4.3 5 11.8 11 23.5 20.2.6.4 1.1.8 1.6 1.2 4.7-10.4 14.9-33 19.9-43.5 5.8-12.4 13.9-26 17.5-32zm101.5 26c-4.1-2.1-7.6-3.3-10.8-4.3-1.6-.5-5.8-1.7-11-3.3-9.3 1.2-24.6 3.5-39.5 7.1-15.4 3.7-41.3 16.3-41.3 16.3s32.7 10.6 63.4 28.4c1.1-.8 2-1.5 2.8-2.3 9.5-7.8 33.6-27.9 38.8-36.6 1.3-2.2.2-4-2.4-5.3z" style="fill:#fff"/>
</svg>
