<svg viewBox="0 0 1024 1024" xmlns="http://www.w3.org/2000/svg">
   <circle cx="512" cy="512" r="512" style="fill:#52a3ff"/>
   <path d="M470 224c0 68.828-48.866 151.54-144.5 163.5-6.993-.35-13.961-.5-21-.5v50.5c6.297 0 12.781.042 19-.5 36.051 1.833 71.035 9.04 104.5 21-31.882 16.71-67.172 26.752-103.5 29.5-6.724-.429-13.217-1-20-1v51c6.783 0 13.276-.571 20-1 36.33 2.748 71.62 12.791 103.5 29.5-33.465 11.96-68.449 19.168-104.5 21-6.219-.54-12.704-.5-19-.5V637c6.997 0 14.048-.154 21-.5C421.198 648.392 470 731.123 470 800h49c0-64.395-30.806-136.27-98-179.5 19.286-5.601 37.748-12.677 56-21 58.188 49.776 93 123.06 93 200.5h49.5c0-44.191-10.757-142.86-96-225 14.47-8.958 28.131-18.738 41.5-29.5 36.575 37.076 105 123.46 105 254.5h49.5c0-147.74-76.155-245.73-117.5-288 41.362-42.289 117.5-140.29 117.5-288H670c0 130.99-68.378 217.37-105 254.5-13.369-10.762-27.03-20.542-41.5-29.5 85.21-82.109 96-180.74 96-225H570c0 75.857-34.129 150.17-93 200.5-18.252-8.324-36.715-15.399-56-21 65.123-41.903 98-112.74 98-179.5zm12.5 258.5c15.615 8.687 30.709 18.522 45 29.5-14.291 10.978-29.385 20.814-45 29.5-17.042-11.653-35.14-21.448-54-29.5 18.859-8.053 36.959-17.848 54-29.5z" style="fill:#fff"/>
</svg>