<svg xmlns="http://www.w3.org/2000/svg" viewBox="0 0 1024 1024">
   <circle cx="512" cy="512" r="512" style="fill:#f26621"/>
   <path d="M420.33 237.82c-.02-7.51-2.07-14.86-1.72-22.4 17.49 14.86 34.51 30.29 51.95 45.21 13.75-23.05 27.43-46.12 41.04-69.26 1.43 1.3 2.52 2.93 3.46 4.62 12.65 21.68 25.76 43.1 38.25 64.88 17.38-15.21 34.54-30.71 52.3-45.5-2.72 31.19-6.32 62.33-8.56 93.53-2.33 1.43-4.87 2.5-7.49 3.25-12.73 3.86-25.79 6.94-39.06 8.1-24.84 3.65-50.24 3.22-75.16.44-16.43-2.14-32.97-5.07-48.37-11.38-.32-10.48-2.23-20.8-2.46-31.28-1.56-10.59-2.36-21.33-3.05-32.03-.75-2.67-1.04-5.43-1.14-8.19Zm56.35-5.02c-4.73-7.63-9.81-15.01-14.68-22.55-3.8 7.32-7.64 14.75-10.13 22.63 5.75 4.49 10.5 10.15 16.45 14.37 2.81-4.81 5.49-9.67 8.36-14.45Zm94.77-.34c-2.94-7.38-6.23-14.66-9.96-21.67-5.14 7.02-9.44 14.59-14.51 21.65 2.78 4.9 5.57 9.78 8.41 14.63 5.31-4.93 10.68-9.78 16.07-14.62ZM335.38 487.07c8.21-10.76 14.13-22.98 20.03-35.08 9-19.59 16.68-39.76 24.09-59.98 8.65-20.46 20.28-39.62 34.12-56.96 4.2-5.28 9.26-9.83 13.05-15.43-11.15 7.78-20.42 17.97-28.78 28.62-31.45 40.94-42.98 92.97-72.43 135.11-16.95 23.21-29.48 49.76-35.67 77.86-8.57 38.59-5.63 79.69 8.86 116.51 8.06 19.94 18.89 39.27 34.12 54.61-3.49-7.34-8.67-13.73-12.3-21.01-21.83-39.14-30.04-85.37-23.74-129.66 5.46-33.89 17.88-67.06 38.65-94.6Zm397.87 70.32c-6.41-26.91-18.8-52.23-35.09-74.52-27.66-39.82-39.41-88.24-67.17-127.98-8.24-11.95-18.31-22.49-29.16-32.09-1.5-1.36-3.3-2.3-5.1-3.17 23.45 24.64 42.05 54.15 52.94 86.45 11.46 29.4 22.52 59.72 41.85 85.06 29.68 42.25 42.46 95.8 35.99 146.92-3.95 32-16.05 62.77-33.92 89.53-.99 1.43-1.74 2.99-2.24 4.67 9-8.82 15.9-19.5 22.37-30.24 24.63-43.38 31.52-96.28 19.51-144.63Zm-60.89 74.5c5.46 30.71 5.49 62.82-3.54 92.89-8.28 23.19-24.86 42.87-45.22 56.5-31.1 20.83-68.78 29.83-105.8 31.29-27.08.47-54.36-3.49-79.92-12.6-26.2-9.32-51.08-24.69-67.71-47.36-6.5-8.73-11.78-18.42-15.27-28.73-4.64-16.19-7.17-33.03-6.47-49.89-.96-24.53 3.65-48.89 10.13-72.46 9.49-32.97 23.48-64.69 41.81-93.7 5.39-8.53 7.34-18.54 8.94-28.32 1.45-13.12-2.59-25.86-3.97-38.82-1.16-17.18-1.19-35.17 6.21-51.13 6.97-16.07 22.83-28.78 40.65-29.55 9.31.43 18.95 2.53 26.47 8.36 11.28 8.15 16.94 21.56 20.9 34.45 7.98-3.8 17.23-3.63 25.21.08 3.59-15.43 12.07-31.14 26.79-38.34 10.33-4.59 22.64-6.26 33.31-1.79 13.66 5.23 24.18 17.04 29.17 30.64 5.52 14.97 6.23 31.32 4.41 47.06-.41 9.78-3.59 19.23-3.71 29.05-.61 14.94 2.98 30.21 11.5 42.63 22.32 36.7 38.48 77.4 46.11 119.74ZM472.04 416.04c-.2-4.62-4.93-7.45-8.48-9.66-8.09-4.91-19.33-2.62-24.87 5.04-3.33 3.75-3.72 8.9-4.88 13.56.79 3.16 1.48 6.81 5.13 7.86 7.42-4.91 15.11-9.52 23.62-12.24 3.25-1.31 7.32-1.43 9.49-4.56Zm59.8 44.48c-13.06-2.11-26.66-2.91-39.58.37-.06.49-.17 1.43-.23 1.91 5.8 6.27 9.99 16.72 19.88 16.69 6.32.56 10.63-4.64 14.05-9.15 2.15-3.11 5.94-5.65 5.87-9.81Zm13.58-17.96c-7.11-8.48-13.79-17.32-20.93-25.77-1.91-2.35-4.73-3.66-7.26-5.22-6.55-1.08-14.07-.03-18.17 5.77-6.99 9.05-15.14 17.33-20.98 27.17 1.34 2.61 2.67 6.09 6.24 5.86 9.67-.27 19.21-2.55 28.91-1.89 10.13-.88 20.19 3.2 30.21 1.16 1.34-2.15 2.04-4.55 1.98-7.08Zm34.15-36.16c-5.92-3.71-13.66-3.25-19.56.24-3.92 2.24-8.94 5.74-7.35 10.97 5.6 2.23 11.53 3.57 16.95 6.24 5.71 2.52 10.68 6.38 16.34 8.97.9-.82 2.7-2.46 3.59-3.28 1.16-8.7-1.8-18.8-9.96-23.15Z" style="fill:#fff"/>
</svg>
