<svg xmlns="http://www.w3.org/2000/svg" viewBox="0 0 1024 1024">
   <circle cx="512" cy="512" r="512" style="fill:#ff5e5b"/>
   <path d="M512 226c-158 0-286 128-286 286s128 286 286 286 286-128 286-286-128-286-286-286Zm116.6 367.33c.4 20.27-3.6 56.67-42.78 66.44a40.53 40.53 0 0 1-9.58 1.15c-68.76.43-212.15.85-212.15.85s-43.92 0-46.88-43.82c-1-74.25-.46-213.25-.46-213.25v-3.49c0-5.35 4.23-16 15.16-16h314.18a108.28 108.28 0 0 1 62 19.19c17.55 12.26 34.68 32.08 40.7 63.89 14.03 73.88-41.49 129.41-120.19 125.04Zm57.78-139.13c6.27 7.28 11.28 17.53 11.28 31.69 0 34.61-17.83 48.24-37.24 54.53a141.73 141.73 0 0 1-30.42.52V438.17h20.65a47 47 0 0 1 35.73 16.03Zm-137.6 77.58c-22.53 26.29-72.54 71.93-72.54 71.93a4.84 4.84 0 0 1-5.6.42 16.83 16.83 0 0 1-2-1.63c-8-8-60.92-55.13-73-71.51-12.82-17.46-18.82-48.82-1.64-67.1s54.35-19.64 78.9 7.36c0 0 28.31-32.23 62.72-17.42s33.2 54.43 13.16 77.95Z" style="fill:#fff"/>
</svg>
