<svg xmlns="http://www.w3.org/2000/svg" viewBox="0 0 1024 1024">
   <circle cx="512" cy="512" r="512" style="fill:#71ba05"/>
   <path d="M502.04 418.8c0 60.8-49.3 110.09-110.12 110.09H287.99v-171.2h113.19V325l.29-9.04c1.64-11.56 5.18-20.82 13.98-29.34 10.64-10.31 22.87-13.89 32.24-14.62h129.2c9.36.73 21.59 4.31 32.24 14.62 8.44 8.18 12.04 17.04 13.77 27.96l.21 1.38.29 9.04v32.69H736v171.2H632.07c-60.82 0-110.12-49.29-110.12-110.09v-97.03h-19.91v97.03ZM736 548.8V720H521.96v-61.1c0-60.8 49.3-110.09 110.12-110.09h103.93Zm-344.07 0c60.82 0 110.12 49.29 110.12 110.09v61.1H288.01v-171.2h103.93Z" style="fill:#fff"/>
</svg>
