<svg xmlns="http://www.w3.org/2000/svg" viewBox="0 0 1024 1024">
   <circle cx="512" cy="512" r="512" style="fill:#003376"/>
   <path d="M381.5 574.5c-2.7.2-7.1-1.7-7.4-4.2-.8-3.3 3.2-6.3 6.4-6.7 7.1-.6 8.1 10.2 1 10.9zm-9.5 24.4h-6.4l-7.6 11.9v-11.9h-6v29.5h6v-8.7l2.2-3.4 6 12.1h6.6l-8.8-16.8 8-12.7zm14.1 11.4-3.9-11.5h-6.7l7.6 17.9v11.6h6v-11.6l7.6-17.9h-6.5l-4.1 11.5zm31.9-7.7c2.4 6.7 2.4 15.4 0 22.1-.8 1.3-1.8 2.3-3.1 3-1.6.8-3.4 1.2-5.2 1.1-1.8.1-3.7-.3-5.3-1.1-1.3-.7-2.4-1.7-3-3-.8-1.5-1.2-3.2-1.4-4.9-.5-4.1-.5-8.2 0-12.2.1-5.3 4.3-9.7 9.7-9.3 3.2-.1 6.7 1.4 8.3 4.3zm-4.5 6.1c-.1-1.2-.3-2.3-.5-3.5-.2-.7-.7-1.4-1.2-1.9-.7-.4-1.4-.5-2.2-.5-.7-.1-1.5.1-2.1.5-.6.5-1.1 1.2-1.3 1.9-.4 1.1-.6 2.3-.6 3.5-.2 1.7-.2 3.4-.2 5.1 0 1.7 0 3.3.2 4.9 0 1.2.2 2.3.6 3.4.3 1.5 1.8 2.6 3.4 2.6.8 0 1.5-.2 2.2-.6 1.5-1.3 1.6-3.5 1.7-5.3.4-2.5.3-7.7 0-10.1zm9.2-4.9h6.6v24.5h6v-24.5h6.4v-4.9h-18.9l-.1 4.9zm40.9 3.8c.3 2 .4 4.1.4 6.2.1 2 0 4.1-.4 6.1-.2 1.7-.6 3.4-1.4 4.9-.7 1.3-1.7 2.3-3 3-1.6.8-3.5 1.2-5.3 1.1-1.9.1-3.8-.3-5.5-1.1-1.2-.7-2.2-1.8-2.9-3-.8-1.5-1.2-3.2-1.3-4.9-.3-2-.4-4-.3-6.1-.1-2.1.1-4.1.3-6.2.1-1.7.6-3.4 1.3-5 .7-1.3 1.7-2.3 2.9-3.1 1.7-.8 3.6-1.3 5.5-1.2 1.8-.1 3.7.3 5.3 1.2 1.3.7 2.3 1.8 3 3.1.8 1.6 1.3 3.3 1.4 5zm-5.7 1.1c-.1-1.2-.3-2.3-.6-3.5-.4-1.4-1.8-2.6-3.3-2.4-.8-.1-1.6.1-2.3.5-.5.6-.9 1.2-1.2 1.9-.2 1.1-.4 2.3-.6 3.5-.2 2.6-.2 7.4 0 10 .1 1.1.3 2.3.6 3.4.3.7.7 1.4 1.2 1.9.7.4 1.5.7 2.3.6.7 0 1.4-.2 1.9-.6.7-.4 1.2-1.1 1.4-1.9.4-1.1.6-2.2.6-3.4v-10zM575 620c0 1.2-.2 2.4-.6 3.5-.4.8-1.2 1.2-2.1 1.1-.9.1-1.7-.3-2.2-1.1-.4-1.1-.6-2.3-.5-3.5v-.9h-5.3v1.3c0 1.1 0 2.2.2 3.3.1 1 .5 2 1.2 2.8.6.8 1.5 1.4 2.4 1.8 1.2.5 2.5.7 3.9.7 2.4.2 4.8-.5 6.7-2 1.6-1.9 2.3-4.3 2.1-6.7v-21.2H575V620zm24.5-21.1 7.8 29.5h-6.1l-1.3-6.2H592l-1.3 6.2h-6.2l7.8-29.5h7.2zm-.7 18.4-2.9-13.3h-.1l-2.9 13.3h5.9zm29.9-12.8c.4 1.1.5 2.2.5 3.3.1 1.3-.1 2.7-.6 4-.4 1-1.1 2-1.9 2.8-2.7 2.4-6.6 2.2-10 2.2v11.7h-6.1V599c4.4.5 13.9-1.7 16.8 2.8.7.6 1.1 1.6 1.3 2.7zm-5.6 3.4c.1-1.2-.2-2.4-.9-3.4-.8-.9-2-1.3-3.1-1.2h-2.5v9h2.6c1.1.1 2.1-.3 2.8-1.1.9-.9 1.3-2.1 1.1-3.3zm21.1-9 7.9 29.5H646l-1.4-6.2h-7.8l-1.3 6.2h-6.3l7.8-29.5h7.2zm-.7 18.4-2.9-13.3-2.8 13.3h5.7zm25.9 1.8-7.3-20.3h-6.8v29.5h5.5v-20.6l7 20.6h7v-29.5h-5.5l.1 20.3zm-185 8.2c1.1 0 2-.9 2-2v-18.5h15.5v18.4c0 1.1.9 2.1 2.1 2.1 1.2.1 2.2-.9 2.2-2.1v-18.4H524v18.4c.1 2.6 4.2 2.7 4.2 0v-18.4h15.5v18.4c0 1.1.9 2.1 2.1 2.1 1.2.1 2.2-.9 2.2-2.1v-20.5c0-1.2-1-2.2-2.2-2.2h-28.5v-9.1c0-1.1-.9-2-2.1-2.1-1.1 0-2.1 1-2.1 2.1v9.1h-28.7c-1.2 0-2.1 1-2.1 2.2v20.5c-.1 1.3.9 2.2 2.1 2.1zm-.3 32.4h12.7c1.1 0 2.1-.8 2.1-2v-.1c-.1-1.1-1-2-2.1-2h-10.6V651h10.6c1.1 0 2-.9 2.1-2.1 0-1.2-.9-2.1-2.1-2.1h-10.6v-5.1h10.6c1.2 0 2.1-1 2.1-2.2-.1-1.1-1-2-2.1-2h-10.6c-.1-1.7.7-5.5-2.1-5.5-1.1 0-2 1-2.1 2.1v23.5c0 1.3 1 2.2 2.1 2.1zm62-27.6c-2.8-.2-2.1 3.7-2.2 5.5h-10.5c-1.1 0-2 .9-2.1 2-.1 1.2.9 2.2 2.1 2.2h10.5v5.1h-10.5c-1.2 0-2.1 1-2.1 2.1s.9 2 2.1 2.1h10.5v4.7h-10.5c-1.1 0-2 .9-2.1 2 0 1.1.9 2.1 2.1 2h12.7c1.1 0 2-.8 2-1.9v-23.6c0-1.2-.9-2.1-2-2.2zm-20.8 15.6-6.5 4.6 6.5 4.5c.9.6 1.2 1.9.6 2.8-.4.7-1.1 1.1-1.8 1-.4 0-.7-.1-1-.3l-7.8-5.5-7.9 5.5c-.3.2-.7.3-1.1.3-.8.1-1.5-.3-1.8-1-.6-1-.3-2.2.6-2.8l6.6-4.5-6.6-4.6c-3.7-2.7 4.2-5.9 6.4-7.9l-6.4-4.5c-2.3-1.5.1-5.1 2.4-3.5l7.9 5.5 7.8-5.5c2.2-1.5 4.5 2 2.3 3.5l-6.5 4.5 6.5 4.5c.6.4 1 1 1 1.8-.2.6-.6 1.2-1.2 1.6zm-4.8-1.7-5.3-3.8-5.3 3.8 5.3 3.7 5.3-3.7zm25.3 20.3h-61.5c-1.2 0-2.1 1-2.1 2.2v35.3c0 1.2 1 2.1 2.1 2.1s2-.9 2-2v-33.4h57.4v32.8c0 1.1.9 2.1 2.1 2.1 1.2.1 2.2-.9 2.2-2.1v-34.8c0-1.2-1-2.2-2.2-2.2zm-6.1 9.9v18.4c0 1.1-.9 2-2.1 2.1h-20.4v7.1c0 1.1-.9 2-2.1 2.1h-23.6c-1.1 0-2.1-.9-2.1-2.1 0-1.1.9-2.1 2.1-2.1H513v-4.9h-20.6c-1.1-.1-2-.9-2.1-2.1v-18.4c0-2.6 4.2-2.7 4.2 0v16.3H513v-4.9h-12.2c-1.2 0-2.1-.9-2.2-2.1v-9.3c0-1.2 1-2.1 2.2-2h28.6c1.2-.1 2.2.8 2.2 2v9.3c.1 1.2-1 2.2-2.2 2.1h-12.1v4.9h18.4v-16.3c0-1.1.9-2 2-2 1.1-.1 2 .8 2 1.9zm-12.3 7.2v-5.1h-24.6v5.1h24.6zM832 512c0 176.8-143.3 320-320 320S192 688.7 192 512s143.3-320 320-320c176.7.1 319.9 143.3 320 320zm-7.2 0c0-82.9-32.9-162.4-91.5-221-122-122.1-320-122.2-442.1-.1s-122.2 320-.1 442.1 320 122.2 442.1.1C792 674.5 824.9 595 824.8 512zm-9.6 0c0 167.4-135.6 303.1-303 303.2-167.4.1-303.1-135.6-303.2-303C209 344.8 344.6 209 512 209h.2c167.4 0 303 135.6 303 303zm-4.7 0c0-79.2-31.5-155.2-87.6-211.2-116.6-116.6-305.7-116.5-422.2.2s-116.4 305.7.2 422.3c116.7 116.5 305.7 116.4 422.3-.2 55.9-56 87.4-131.9 87.3-211.1zM280 504.4l-16.7-1.4-7-8.5 25.8-15.3.7-8.6-30.6 18.7-17.9-22.3-.8 9.2 21.7 26.2-23.7-1.9-.4 6.5 48.4 4 .5-6.6zm9.1-56.1 1.9-6.3-18.8-5.5-22.5-26-2.2 7.4 18.3 20-26.3 6.7-2.3 7.3 33.1-9.3 18.8 5.7zm-23.6-54.5c-3.1-6.7-2.5-14.5 1.4-20.7 3.1-6.7 9.3-11.4 16.6-12.5 5.9-.6 11.7.8 16.7 4 5.8 3 10.5 7.8 13.3 13.7 4.8 13.5-3.3 28.5-17.2 32-6.4.9-12.9-.4-18.4-3.9-5.4-2.8-9.7-7.2-12.4-12.6zm5.1-4.9c4.5 9.5 14.3 15.4 24.8 14.8 5-.8 9.2-4.1 11.3-8.7 2.9-4.2 3.2-9.6.9-14.1-2.5-4.4-6.1-8-10.6-10.4-4.2-2.7-9.3-3.7-14.2-2.9-4.6.9-8.5 3.9-10.6 8.1-2.4 3.9-3 8.8-1.6 13.2zm35.5-58.5 31.7 28.8 4.6-5-31.9-28.7 11-12.2-4.1-3.9-26.6 29.2 4.3 3.9 11-12.1zm37.2-12.2c-3.6-4.8-5.6-10.6-5.9-16.6 0-7.4 3.7-14.2 9.9-18.2 5.7-4.8 13.3-6.4 20.5-4.4 11.6 4.7 19.3 16 19.4 28.5-.2 7.2-4 13.8-10 17.8-5.3 4.1-12.1 5.6-18.6 4.2-6.3-1.8-11.7-5.8-15.3-11.3zm.7-18.7c-.1 5.5 1.7 10.9 5.1 15.2 2.7 4.1 6.7 7.1 11.4 8.6 4.8 1.4 10.1.2 13.8-3.1 9.7-5.5 7.3-18.8 1.5-26.4-2.7-4.2-6.9-7.3-11.7-8.7-4.6-1-9.3.1-13 2.9-3.9 2.5-6.5 6.8-7.1 11.5zm83-11.9c4.9 4.9 12.2 6.4 18.6 3.7 6.8-1.4 12.1-6.6 13.6-13.4 1.6-9.7-7.4-30.8-9.7-40.1l-6.4 2 8.9 28.8c.9 2.7 1.2 5.6.8 8.4-1.1 4.6-4.8 8.1-9.4 8.9-3.8 1.5-8.1.6-11.1-2.2-2.1-2.2-3.6-4.9-4.4-7.8l-8.6-28.8-6.6 1.9 8 26.2c1.1 4.6 3.3 8.8 6.3 12.4zm59.9-6.3-2.2-39.3 26.7 38 7.5-.4-2.6-48.6-6.2.3 2 39.3-26.3-38-7.8.4 2.6 48.6 6.3-.3zm63.3-47.1-6.6-.8-6 48.3 6.6.8 6-48.3zm31.9 56.8 30.8-41.5-7-2.2-25.1 35.8-1.6-43.7-7-2.1 3.1 51.6 6.8 2.1zm59.2 27.6 2.7-5-25.6-14.3 8-14.4 23.4 13 2.7-4.9-23.3-13 7-13 25.4 14 2.8-5.2-30.8-17.1-23.6 42.6 31.3 17.3zm13.4 9.7 32.8-36c4.5 4.7 19.5 16 21.9 22.2 1.8 4.5.8 9.6-2.6 13-1.6 2-3.8 3.4-6.3 4.1-2.2.6-4.5.5-6.7-.2.8 1.6 1.2 3.4 1 5.2-.4 2.1-1.4 4-2.9 5.6-2.1 3.2-8.4 7.7-7.1 11.9l-.7.9-6-5.5c.3-.5.4-1 .7-1.5 1.4-2.3 5.9-7.1 7.6-9.3 1.9-1.9 2.5-4.6 1.6-7.1-.9-1.7-2-3.3-3.4-4.6l-11-9.7-14 15.4-4.9-4.4zm22.6-15 10.9 9.9c1.7 1.8 4 3 6.6 3.4 2.6.2 5-1 6.5-3.2 2.3-1.9 3.2-5 2.2-7.8-.9-1.6-1.9-3-3.2-4.2L688.5 301l-11.2 12.3zm40.2 42.6c.2 3.2 1.1 6.2 2.4 9.1l2.3 6.1c1.1 2.5 1.8 5.2 2.1 8-.2 2.2-1.6 4.1-3.5 5.1-2.8 2-6.6 1.7-9.1-.6-1.9-1.2-3.5-2.8-4.8-4.7-2.8-3.3-3.6-7.8-2.2-11.9 1-2.2 2.6-4 4.5-5.4l-3.5-5.1c-4 2.4-6.8 6.4-7.5 11-.6 5 .8 10.1 3.9 14.1 2.6 3.9 6.1 7 10.3 9 4.3 1.9 9.2 1.2 12.9-1.7 12.4-7.8.5-21.8-1-32.2-.1-2.1.9-4.1 2.7-5.3 1.8-1.2 4-1.6 6.1-1.1 2.7.8 5.1 2.7 6.6 5.1 2.4 2.9 3.3 6.7 2.4 10.3-.9 1.9-2.2 3.6-3.9 5l3.4 5.2c8.8-4.5 8.3-16.5 2.8-23.4-4-7.7-14.8-11-21.9-5.6-3.1 2-5 5.4-5 9zm6.8 62.8 44.1-20.4-2.6-6.1-44.3 20.4 2.8 6.1zm10.4 27.9 1.7 6.4 41.2-11.6 4.5 15.8 5.6-1.6-10.8-38-5.5 1.5 4.4 15.8-41.1 11.7zm8.6 46.3.4 6.6 19.7-1.3 30.3 16.3-.4-7.6-24.4-12.4 22.4-15.5-.7-7.7-27.6 20.3-19.7 1.3zM287.7 632.3l-10-21.7 13.4-6.1 11.5 24.6 5.3-2.5-14.1-30.7-44.1 20.3 2.6 6.1 20.1-9.2 10 21.6 5.3-2.4zm45.6 41.3c-1.8 5.6-5.4 10.5-10.2 13.9-5 4.1-11.3 6.5-17.8 6.7-7.2-.1-13.9-3.6-18-9.5-4.3-5.2-6.1-12-4.9-18.6 1.8-6.2 5.6-11.7 10.8-15.5 4.7-3.8 10.5-6 16.5-6.5 7.3-.3 14.3 3.2 18.4 9.3 4.9 5.6 6.8 13.1 5.2 20.2zm-6.2-3.2c1-4.6-.3-9.4-3.4-13-2.7-3.8-6.9-6.3-11.6-6.6-5.6 0-10.9 2-15.1 5.6-3.9 2.8-6.8 6.9-8.2 11.6-1.2 4.9.1 10.2 3.7 13.9 5.9 9.5 19.1 6.5 26.4.4 4.1-2.9 7-7.1 8.2-11.9zm49.1 31.9-18.9 23.5c-1.7 2.4-3.9 4.3-6.6 5.6a12 12 0 0 1-12.6-2.8c-3.3-2.4-5-6.4-4.5-10.4.7-6.8 19.2-26 22.9-31.6l-5.4-4.1-16.9 21.2c-3.2 3.5-5.5 7.7-6.8 12.2-1.3 14 12.8 25.3 26.1 21.2 4.2-2.2 7.9-5.4 10.6-9.3l17.2-21.3-5.1-4.2zm30.3 61.4-5-45.9-7-3.3-20.9 44 5.7 2.7 16.9-35.5 5.3 46.1 6.7 3.3 21-44.1-5.8-2.6-16.9 35.3zm70.5-13.2c2.3 5.4 2.8 11.5 1.3 17.2-.8 4.7-2.8 9.2-5.8 13-4.2 6.3-11.9 9.2-19.2 7.3l-19.1-4.1 10.1-47.5 19 4c6.1.8 11.1 4.6 13.7 10.1zm-6 2.3c-1.9-4-5.6-6.7-10-7.3l-11.3-2.3-7.8 36.6 11.2 2.3c1.8.5 3.7.7 5.5.6 5.5-.8 9.4-5.6 11.3-10.5.7-1.6 1.2-3.2 1.6-4.9 1.3-4.9 1.1-9.9-.5-14.5zm34.7 35.6-.4-16.5 26.8-.3-.2-5.7-26.6.4-.1-14.8 28.8-.4v-5.9l-35.3.4.6 48.7 35.8-.5-.1-5.8-29.3.4zm87.4-31.6c1.2 4.7 1.4 9.6.5 14.3-1 7.5-6.8 13.5-14.3 14.8l-18.8 4.7-11.5-47.3 18.8-4.6c5.7-1.7 11.9-.4 16.6 3.3 4.6 3.8 7.6 9 8.7 14.8zm-6.5 15.7c.9-2.6 1.3-5.3 1-8-.1-1.7-.4-3.4-.8-5.1-.9-4.9-3.2-9.3-6.7-12.8-3.4-2.7-8-3.5-12.1-2.2l-11.2 2.8 8.8 36.3 11.3-2.7c1.7-.5 3.4-1.1 4.9-1.9 2.3-1.5 4.1-3.7 4.8-6.4zm54.1-64.1c1.2 2.5 1.4 5.3.6 7.9-1.7 2.7-3.9 5-6.5 6.8l2.4 3.7 9.4-6 18.3 28.1 5.5-3.5-25.9-39.6-3.8 2.6zm61.3-18.6zm8.2 3.9c2.9 2.7 4.6 6.5 4.6 10.5-.3 4.5-2.4 8.6-5.8 11.5-2.9 3.1-6.8 5-11 5.5-4.2.3-8.3-1.4-11.1-4.6-3.9-3.5-4.5-9.6-2.4-14.3-1.4.7-3 1-4.6.9-2.5-.1-4.9-1.2-6.6-3.1-5.5-5.3-4.2-14.9 1.6-19.4 2.6-2.9 6.2-4.7 10.1-4.8 3.3-.3 6.5 1 8.7 3.3 3.4 2.8 4 7.7 2.6 11.7 1.7-.7 3.6-1.1 5.5-1 3.3 0 6.3 1.4 8.4 3.8zm-21.4 1.4c1.8-1.4 2.9-3.6 2.9-5.9 0-2-.7-3.9-2-5.3-1.4-1.2-3.2-2-5-2-2.4.1-4.6 1.1-6.3 2.9-1.7 1.5-2.7 3.7-2.8 6 .1 1.9.9 3.7 2.2 5.1 1.4 1.6 3.4 2.3 5.5 2.1 2.1-.5 4-1.4 5.5-2.9zm20.1 10.2c.2-2.6-.8-5.1-2.7-6.9-1.8-2-4.3-3-6.9-3-2.6.2-5.1 1.4-6.9 3.3-1.9 1.7-3.1 4-3.3 6.6-.1 2.6.9 5.1 2.8 6.8 1.6 1.8 3.8 2.8 6.2 2.9 2.8.1 5.5-1.1 7.4-3.3 1.8-1.6 3.1-3.9 3.4-6.4zm33.8-48.3c4.5 5.3 4.8 12.9.8 18.6-1.9 3.4-5.2 5.8-9 6.6-3.3.6-6.8-.2-9.5-2.3l3.5-4.8c2.2 1.6 5.2 1.9 7.6.7 1.3-.6 2.4-1.6 3.1-2.8 1.7-2.3 2.3-5.2 1.4-7.9-2-4.7-5.3-8.8-9.6-11.7 1.1 2 1.3 4.4.7 6.6-1.3 10.7-14.9 16.2-23.2 9.3-3.5-2.2-6.1-5.7-7.3-9.7-1.1-4.3-.1-8.8 2.7-12.2 6-10.4 19.6-7.4 27.5-.9 4.5 2.5 8.3 6.2 11.3 10.5zm-17.2 4.9c1.3-1.9 2-4.2 1.9-6.5-.4-3-2.3-5.7-5-7.1-2.3-1.8-5.1-2.7-8-2.3-5.1 1.3-8.4 6.3-7.5 11.5.9 2.7 2.6 5 5 6.6 2.1 1.6 4.7 2.4 7.3 2.3 2.6-.5 5-2.1 6.3-4.5zm26.2-48c-5.4-5.7-9.9-12.3-12.8-19.6l-4.8-2.1-13.3 30.2 5.4 2.4 10.7-24c6.6 13.7 16.6 25.8 29.3 34.2l2.7-6c-6.3-4.3-12.4-9.2-17.2-15.1zm-26.4-130.1c.1 3.1.6 6.1.9 9.2.2 1.8.3 3.6.3 5.4 8.9 119.2-85.1 223.4-204.3 228.4-251.9 5.8-312.4-340.3-73.4-420 120-37.8 248.3 38.1 273.8 161.2 0 .3.1.6.2.8.9 5 1.6 10 2.5 15zm-9.7 11.9c0 2.3 2.6 3.8 4.6 2.7 1.5-1.2 2.7-4.5-.6-5.5-2-1.1-4.5.6-4 2.8zm-8.8-16.2c1.8 3.4 15 9.3 9.3 1.1-3.3-4.9-10.9-4.5-9.3-1.1zm2.4 27.4c1.5 4 6.9 2.6 5.8 0-3.1-7.4-7.3-4-5.8 0zm-2.7-18.5c-2.8-2.7-6.1 1.7-6.9 4.8-.7 3.7 3.9 6.6 6.9 4.2 3.7-2.3 4.7-4.5 0-9zm5.3-26.2c-3.2-3.5-9-4.5-7.8 1.1 1.2 5.6 3.8 8.2 7.8 7.8 4.1-.4 3.1-5.7 0-8.9zm-9.1-33c1.3-1.2 2.6-4.5-.7-5.5-6-2.1-4.4 8 .7 5.5zm-3.3 23.1c4 2.2 8.1 2.3 10.4-1.6 3-4.7-.2-5.6-3-10.1s-4.1-2.7-5 2.1c-.6 4.6-6.3 7.4-2.4 9.6zm-7.3 3.2c-2.4.8-3.7 3.4-2.9 5.8 1.4 2.1 1.7 4.8.9 7.2-.9 1.9-.5 4.1 1 5.5 1.5.7 3 1.6 4.2 2.7 1.3 1.6 4 .2 2.5-2.9-1.6-2.3-2.1-5.1-1.6-7.8.9-2.5.9-5.3.1-7.8-.9-2.5-2.4-3.1-4.2-2.7zm4.7 31.9c.6-2.5-3.8-7.3-7.4-6.2-3.6 1.1-2.7 7.4 1.7 8.6 3.1 1.1 5.1.2 5.7-2.4zm-3.2-47.9c1.8-3.5-.6-8-4.5-8.5-2.7-.8-5.6.6-6.6 3.2-1.6 2.8-1.1 6.7 1.5 7 2.9.2 7.9 2.4 9.6-1.7zm-16.1 44.1c8.4-4.4-6-10-6.5-1.5-.3 3.5 4.7 2.4 6.5 1.5zm1.5-20c-2.1-4-9.9-6.6-10.1 1.4-.1 7.8.9 10.5 5.6 8.5 4.8-1.9 7.4-4.5 4.5-9.9zm-95.6 17.6c4.4-2.1 6.4-8.2 9.8-14.8-1.1-.2-2.2-.1-3.3.1-3.6.7-6-.1-8.6-4.5-2.6-4.4-3.9-2.9-9.6-1.7-.1.2-.4 0-.7 0 .6 4.3-5.4 11.4-7.8 6.7-1.3-3.4-.3-7.1 2.4-9.5-.8-1.5-1.3-3.1-1.5-4.7 0-2.9-3-5.1-5.8-4.2-2.4.2-4.4 1.7-5.3 3.9 0 4.1-.6 9.5-.5 14.9-.2 5.1 1.9 10.1 5.6 13.7 3.6 2 7.5 3.2 11.5 3.6 4.8.1 9.6-1.1 13.8-3.5zm-1.3 12c-.6-1.8-6.6-2.7-6.6-2.7-2-.7-4.3.1-5.3 2-1.5 6.5 4.2 7.4 7.9 3.5 1.4-.7 4.7-.9 4-2.8zm-91.2-18.1c1.5-2.5.7-5.8-1.7-7.4-1.9-.9-4.8.2-4.6 4 .4 3.9-1.7 5.3-1.7 8.7-.1 3.7-4.8 5.8-7.6 3.4-1.9-1.7-4.7-2.1-7-.9-2.7.7-5.8-2-5.8-2-2.3-1.8-9.9 2.9-7.3 11.7.7 5.3 7.7 7.4 11.3 3.4 3.1-3.3 7.3 1.6 9.5.4 2.2-1.2 4.4.5 4.4 4.3-.2 3.7-2.6 2.4-6.2 5.2-2.8 2.1-3.2 6.2-.9 8.9 1.6 2.5 3.9 2.3 6.6 4.2s1.5 5.8 4.8 6.3 2.7-4.7 2.2-6.6c-.5-1.9-.7-3.1.7-4.2l.1-.1c1.3-1.3 1.2-3.4-.1-4.6-1.4-1.3-.2-4.7 2.2-5.5 2.4-.7 1.9-5.5.2-6.4-3.8-2.1.9-5.4-1.3-8-.7-1.2.8-3.1 1.7-4.1 1.1-1.3 1.1-3.3 0-4.7-1.6-1-.9-3 .5-6zm-46.2 9.9c5.3-6.7-3.8-9.1-6.6-1.8-1.6 4.3.3 10.4 3.6 9.8 3.5-.7.4-4.5 3-8zm-5-14.7c1.6 1.3 5.1-1.3 2.3-4-1.6-1.3-3.1-2.4-4.5-1.2-1.4 1.4.6 3.9 2.2 5.2zm9.2-4c1.5 2.1 3.8 3.7 6.3 4.4 5.3 2.3 10.8 3.7 16.6 4.2 4.4-.5 5.5-2.5 6.2-7h.2v-2.3c.3-2.1.5-4.2.5-6.3-.8-2.9-4.4 0-4.4 0-2 1.6-4.8 2-7.1.8-1.9-1.1-2.3-2.7-2.1-5.5-.2-1.6-.5-3.1-1.1-4.6-.4-.3-.7-.6-.8-.8-2.3-2.3-6.1-2.1-8.1.5-2.9 3.8-7.5 6-12.3 5.8-2.2.1-4.3-.6-6.1-1.9-1.8 2.8-4.9 4.5-8.3 4.3-3.8-.7-1.5-6.7 2.6-9 .4-.2.7-.3 1.1-.4-.2-.4-.4-.8-.7-1.2-1.5-2.3-5.8-.9-8.8 2.6-3.1 3.4-1.5 9.9-1.8 14-.1.7-.2 1.4-.4 2.1 1.8.9 3.7 1.7 5.6 2.4 2.1 1.4 4.4 2.3 6.9 2.9-.3-3.9-6.7-7.9-1.6-11.1 4-.9 8.1-1.2 12.2-1 2 .8 3.5 4.1 5.4 7.1zM428 480.7c-3.5-.8-5.3 0-5.3 2.2.2 2.2 5 3 6.7 3 3.2.1 5.7-3.4-1.4-5.2zm-51.1 9.6c3.9-3.6 1.5-9.3-3.8-7-2.6.8-5.5 4.8-3.4 7 1.9 2.1 5.2 2.1 7.2 0zm1.9-25.8c-1.4-1.8-3.5-1.2-5.5 0-1.8 1.3-3.9 2.1-6.1 2.2-1.8-.1-4.1 0-5.1 1.4-1.2 1.3-1.4 3.2-.6 4.7.9 2.8 7.1.7 7.6 3.3.9 1.4 3 1.6 4.1.4.8-2.2 2-4.2 3.4-6.1 2-2.2 3.3-4.2 2.2-5.9zm-49.2-14.7a4.2 4.2 0 0 0 0 5c1.3 1.6 1.3 2.6 2.6 2.8 1.3.1 2.5-.5 3.1-1.6.6-1 1.6-1.8 2.7-2.3 1.1-.4 2.3-1.5 1.7-2.7-1.7-1.6-3.9-2.5-6.2-2.8-1.5.1-3 0-3.9 1.6zm4-9.7c.7 1.8.8 4.5 3.8 5 2.4.9 4.4-2.4 2.5-4.1h-.1c-4.4-5-6.9-2.7-6.2-.9zm-6.3 26.1c-1.7 1.3-1.9 2.6-1 3.9 1.2 1.6 3.4 2 5 .9 1.4-1.5 3.4-2.3 5.5-2.3 1.6.3 3.2-.4 4-1.9.3-1.3.7-2.6 1.3-3.8.9-1.4-.6-3.2-2.8-1.3-1.4 1.8-3.5 2.8-5.8 2.9h-.1c-2.2 0-4.3.6-6.1 1.6zm8.9 13.2c.4-1.3-.5-2.7-1.8-2.7-4.1-1.1-8.2 5-3 6 2.2.2 4.2-1.2 4.8-3.3zm-7.8 27.4c2.1.4 4.3-.2 6-1.5 1.2-1.2 1.6-3.1.8-4.7-.6-.9-1.7-1.1-3.9-.6-1.5.4-2.9 1.3-3.9 2.6-1.1 1.2-1 3.7 1 4.2zm15.8-20.6c.4-1.9-.5-3-1.5-3.2-1.6-.2-3.2.2-4.5 1.1-.9 1.1-2.1 2.1-3.3 2.8-1.5.7-3.7.7-5.1 1.6-1.3.7-1.7 2.3-1.1 3.6.4 1.2 3.1 1.7 4.7 1.5 4.6-.1 9.5-2.7 10.8-7.4zm-2.2 15.3c2 1.4 4.5-.2 6.3-1s4.2-2.5 4.1-4.7c0-1.3-1.8-2-2.7-1-.3.5-1.1 1.1-3.7 1-1.7-.4-3.5.3-4.6 1.7-.3.8-1.2 2.8.6 4zm12.5-28.9c-.1-2.7-.3-5.4-2.1-5.9-4.2-1.7-6.4 2.5-9 4.8-1.7.9-2 3.3-.6 4.7 1.7 1.5 3.2 3.3 6.5 2.4 2.9-.6 5-3 5.2-6zm-6.9-18.4c-.2 2-.6 4.5 2.5 4.2 3.1-.3 5.6.8 7.3-2 1.5-2.8 1.8-4.9 0-6.5-2.6-1.3-5.4-2.3-8.3-2.8-1.8-.2-3.2.8-2.9 2.9.4 2.1 1.6 2.2 1.4 4.2zm10.1-14.2c1.1-2-.3-4.7-2.6-4.9-1.5-.4-3.1.4-3.8 1.8-1.1 1.6-.7 3.9 1 4.1 1.4.2 4.4 1.5 5.4-1zm-4.3-37.3c-3.3-1.1-4.9 1-5.1 3.6-.5 2.8 2.6 5 5.1 3.8 3.1-1.2 4.6-5.7 0-7.4zm-6.7 15.3c-1.6-.4-3.3-1.3-4 1.4-1 2.8.2 5.9 2.7 7.4 2.2.9 4 2 4.6 0 .5-2-.5-2.3-.3-3.7 0-2.1-1.1-4.1-3-5.1zm10.8 72c3.1-1.4 5.2-4.4 5.4-7.8-1.1-5.1-9.5-1.1-9.7 3.2-1.1 3.1.9 5.7 4.3 4.6zm6.2-51.7c-.9 3 1.8 5.2 3 7.7 1.2 2.6 3.9 2.8 6.6 2.5 3.1-.8 4.1-4.9 1.8-7.1-2.8-2.1-3.6-4.9-6.5-8.3-2.9-3.5-4.9-1-4.4.7.5 1.5-.1 2.6-.5 4.5zm11.7-8.1c-.4 1.7 1 5 2.8 4 1.9-1 1.2-3.3 3.9-5.9 6.1-5.8-.9-7.6-5.5-9.1-1.8-.6-4.3 1.6-2.9 4.5 1.2 1.9 1.8 4.2 1.7 6.5zm-8.5 30.7c1-1 1.8-2.2 3.6-2.2s3.5-.8 3.1-2.4c-.4-1.6-1.6-2-3.6-1.2-2 .9-4 1.8-6.1 2.5-5.5 1.1.1 7.5 3 3.3zm12.5-3.3c1.8 1.1 4 1.5 6.1 1.2 2.1-.2 1.6-3.4 2.5-5.5 0 0 4.2-5.9.3-7.8-2.7-1.3-3.5 1.6-3.7 2.9-.6 2.1-2.1 3.9-4.2 4.7-3 1.6-2.6 3.5-1 4.5zm13.5-25.3c-1.1-2.3-2.1-1.3-4.2-.3-4 2-3.5 5.2 1.1 6.4 0 0 3.3 1.6 5.4 0 1.9-1.6-1.2-3.8-2.3-6.1zm1.8 17.2c-.8 2.1-.9 5.4 2 5.3 2.8-.2 3.8-5.3 1.7-6.6h-.1c-1.2-1-3.2-.3-3.6 1.3zm-11.6 27.2c0 3.3 4.6 1.9 5.9.2 1.1-.8 4.7-.8 4.7-2 .2-1-.7-1.6-2.7-2.6-2-.7-4.2-.5-6.1.5h-.1c-1.3.7-1.3 2.3-1.7 3.9zm11.6-10.4c5.5 0 6.8-.5 6.6-2.2-2.2-3.4-7.5-5.4-10.8-2.5h-.1c-1 1-1 4.7 4.3 4.7zm11.8-36.3c8.4-2.4-.3-4.8-2.5-4.9-1.8-.7-3.9.1-4.8 1.8h-.1c-1.5 5.7 4.1 6.6 7.4 3.1zm-6.3-26.3c2.2 2.1 6 .9 6.6-2.1.3-2.6 0-9.1-1.9-10.3-1.9-1.2-3.4-1.7-4.4 1.1h-.1c-.9 2.9-3.4 9.1-.2 11.3zm2.9 51.8c.1 1.5-.7 2.9-.2 4 2.3 2.3 8-.5 7.4-5.3.2-.8.2-1.7 0-2.6-.2-1.7-2.7-2-4.8-.6l-.1-.1c-1.8.8-2.8 2.7-2.3 4.6zm4.9 18c2.4 0 4.6-1.4 5.5-3.7 1.1-2.3 1.3-4.9.6-7.3-.8-1.9-3.1-.8-3.4.9-.7 2.5-2.4 4.5-4.7 5.6h-.1c-6.5 2.9-3.5 5.6 2.1 4.5zm6.9-34.2c2-.4 2.3-2.3.5-2.6l-5.3-2c-1.4-.7-3.1-.1-3.7 1.3-1 1.6-1.5 2.8-.8 4.1 1 1.8 3.1 2.7 5.1 2.2 2.3-.9 2.3-2.6 4.2-3zm.5-27.8c-4-.9-6.3 2.4-6.6 6.9h-.1c1.2 9.8 20.2-4.1 6.7-6.9zm1.8-17.3c3.1-3.3 3.1-7.2 0-8.1h-.1c-5.8-3.1-5.1 13.9.1 8.1zm5.5-13.5c8.3-.2 11.1-3.3 8.6-6.4-2.7-3.5-9.4-9.3-12.7-5h-.1c-3.2 4.2-4.1 11.6 4.2 11.4zm-1.1 26.1s3.7 13 6.8-1.2c.7-4.1 2.6-8.7-1.8-9h-.1c-4.3-.2-11.2 4.7-4.9 10.2zm1.1 30.2c-.9 2.2 2.1 6 5 4.3 5.4-2.8-2.7-9.5-5-4.3zm26.4-10.5c.4-4.7.9-8.9-2.4-11.8-2.4-2.1-4.7-2-5.2 1.4-.3 3.5-1.8 11.3.8 13.3 2.6 2.1 6.5 1.9 6.8-2.9zm-.7-39.1c1.4-2.1.9-4.9-1.1-6.5-2.1-2.1-5.5-2.4-6.4-.2-.9 2.3-3.9 6.1-.7 8.5 2.7 2.5 7 1.5 8.2-1.8zm-8.7 16c1.8 2.7 4.5 2 6.2-.2 2-1.9.9-5.5-1.8-6h-.1c-3.1-.8-7.2 2-4.3 6.2zm-1.6 43.8c.8 2.6 3.5 4.1 6 3.4 2.4-1 4.6-2.1 4.6-5.1.4-3.1-2.9-5.7-5.7-4.4h-.1c-2.9 1.3-5.4 3.1-4.8 6.1zm18.6-18.2h-.1c2.2 1.7 5.3-1.3 4.4-4.3-.5-2.3-2-3-3.7-2.4-2.1 1.7-2.3 4.7-.6 6.7zm5.7-39.7c-2-4.1-6-3.5-7.6 1.1-1.4 4.6-1.1 12 2.9 11.4h-.1c5.4-1.5 7.8-8 4.8-12.5zm73-11.9c-6.1 1.6-1.1-8.2-7.2-9.8-3.1-.8-5 1.6-5.6 6.1-.5 4.7.5 11.9 5.6 10.1 2.5-1.3 5.6.5 5.8 3.3v-.1c.6 3.4 1.8 6.5 3.4 5.1 2.9-2.2 4.1-6.1 2.9-9.6h-.1c-.8-6.5-4.8-5.1-4.8-5.1zm116.4 26.1s-.1 0 0 0c-1.6 3.1-.5 6.9 2.6 8.6 2.4 1.1 5.9 1.7 7.6-.7 1.7-2.2 1.1-4.1-.9-6.7h-.1c-1.9-2.3-7.5-4.4-9.2-1.2zm2.8-11.5c1.2 2.1 3.2.5 3.2.5 1.9-1.6 2.8-2.7 1.9-5-.2-2.4-2.6-2.4-3.9-1.3l-.1.1c-1.7 1.3-2.1 3.7-1.1 5.7zm-2.5 33.1c5.5-3.9 3.2-8.3-1.9-9.8-3.6-.9-6.4-.7-6.1 4.4.2 5 2.5 9.2 8 5.4zm3.1 14c3.9 1.4 5.8-1.8 3.9-6.9-1.2-2.9-2.8-2.4-4.5-.6l-.1.1c-1.7 1.7-3.5 6.1.7 7.4zm-4.8-56.8c-3.4-4.2-7.9-3-10.4 1.4-2.2 3.8-3.9 7 0 8.7 3.9 1.7 6.7 5.3 8.3 0h-.1c1.4-5.3 6-5.6 2.2-10.1zm-13.7-7.9c-6.4-3.9-6.3 6.2 0 4.4l-.1.1c2.3-.9 1.9-3.4.1-4.5zm2.3 33.4c5.7-.9 2.1-9.3-2.8-8.8h-.1c-8.2-.2-3.4 10.5 2.9 8.8zM627.8 443c-.7 4 3.4 5.3 6.3-1.3 3.6-6-.1-14.1-6.9-15.3-2.5-.9-4.7 2.9-2.2 5.4h-.1c2.5 3.1 3.6 7.2 2.9 11.2zm-7 11.8c5 3.2 7.1-6.3.7-3.8-1.2.5-2.8 2.6-.7 3.8zm1.7 9c5.9 1.5 5-8.2-.5-4h-.1c-.7 1.1-1.8 3.5.6 4zm4.6-56.6c-3.6.8-10.6 9.3-4.2 11.4 6.4 2.1 9.9.2 9.5-3.9h-.1c-.8-5.1-2.1-8.5-5.2-7.5zm-15.5 36.5c-2.3 1.8-1.9 6.5 4 5.2 5.8-.3 9.1-7.6 5.5-12.1-4.3-6.5-6.9 6-9.5 6.9zm-4.6-35.9c-2.9-1.1-6.3 1-6.6 4.1-.7 4 1.4 8 5.1 9.6 4.2 2.3 6.7 1 6.7-1.8.3-2.8 1.8-9.8-5.2-11.9zm-11.8-13.3c-3.1.5-6.1 1.9-8.5 4-2.4 2.2-5.8 8.4-1.1 9.8 1.9.1 3.7-.6 5.1-2 1-1.4 2.2-2.6 3.6-3.6 1.6-1.1 4.4-1.4 5.8-2.6 4.1-3.7-.6-6.8-4.9-5.6zm-10.8-6.8s-1.7 5.7 4.2 2.1c3.3-2.3 4.4-6.7 2.5-10.2-.6-2.9-2.5-4.9-5.1-2.7-2.6 1.9.3 5.6-1.6 10.8zm9.5-25.6c-1.6-2.2-4.7-2.7-7-1.2-3 1.8-7.2 5-2.7 8.2 4.4 3.2 16.3-.9 9.7-7zm-.8-15.8c-2.6-2.2-6.6-5.4-9.9.9-3.1 6.3-3.9 9.7 3.1 9.1 6.9-.7 11.6-6.2 6.8-10zm-15.6 89.9c-1.7 2.6-2.4 7.6 1.1 8.5 3.5.9 8.9-5.3 4.8-9-2.4-2.2-4-2-5.9.5zm-6.4-.5c-.4-3.3.9-4.4 3.7-7.2 3.1-2.8-.1-6.2-3.5-2.8s-14.1 10.7-9.8 14.7c4.4 3.9 10.5 3.4 9.6-4.7zm-.4-43.1c-2.1-2-5.2-2.7-8-1.8-3.1 1.1-6.8 3.6-3.8 7.1 3.9 7.2 17.4.9 11.8-5.3zm6.8 23c3.5 0 3.4-5.2 0-7.3-3.4-2.1-2.3-3.3-6.3-2.6-2.7.2-5 1.8-6.1 4.3-1 3.2.8 8.2 4.4 7.3 2.5-1 5.2-1.6 8-1.7zm2.5-36.3c-.7-2.8-4.9-3.2-6.1-.5-1 1.9-3 4.1-1.7 5.3 1.3 1.3 3.8 4.1 5.8 2.5 2.2-1.8 3-4.7 2-7.3zm-1.9-35.4c.3-4.5-.9-6.1-4.4-7.4-4-1.6-6.2-.9-7.9 2.5-1.5 3.4-2.6 9.8 2.6 10.4 5 .6 9.2-1 9.7-5.5zm-17.5 15.8c-.7 3.1 2.6 5.5 6.5 8.2 4.1 2.7 7 4.6 8.7-3.9 1.7-8.4-1.9-6.1-6.3-5.8v-.1c-4.1.3-8.2-1.5-8.9 1.6zm-2.6 16.7c0 3.8 0 11.5 3.4 10.1 3.6-1.5 5.8-5.3 5.2-9.2-.3-5.1-3.5-6-3.5-6v-.1c-3.5-.2-4.9 1.4-5.1 5.2zm.7-29.9c-.7-2-3.9-1.9-6.4 2.8-2.2 4.7.1 6.2 3.3 5.7 0 0 7.6.5 3.1-8.5zm-7 46.1c2.8-3.5 2.8-8.4 0-11.9-1.9-1.5-4.4-.5-5 4.2-.6 4.6 2.3 10.1 5 7.7zm-2-32.7c-3.5-1.6-3.3 2.2-3.7 5-.4 2.8-3.4 3-3.4 5.7s2 3.4 5.8 4.2c3.8.8 4.1-2.2 4.4-5.5.2-1.5.4-7.9-3.1-9.4zm-4.2-13.9c-2.2-2.5-4.1-2.9-6.1-1.2-2 3.2-.9 7.5 2.5 9.3 3.6 1.1 6.4-4.7 3.6-8.1zm-4.5 58.7c-1.5-1.7-4.7-3.8-7.1.3-2.6 4.2-4.8 12.9-.9 11.6s4.4-4.1 7.2-5.7l.1-.1c2.2-1.3 2.5-4.4.7-6.1zm-21.3-.7c-2.3 1.4-3.9 6-.3 6.6 3.5.3 6.7-2 7.5-5.4 1.7-3.9.9-4.9.9-4.9-.5-1.6-1.8-2.2-3.3-.9l.1-.1c-1.4 1.4-2.2 3.3-4.9 4.7zm.9-9.9c.3-2.8-1.5-5.3-4.2-5.9-3.8-1.2-5.2-1.2-7.5 1.6-2.5 2.9-2.6 8.4 2.1 8.6l.1-.1c4.8 0 9.5-.7 9.5-4.2zM509.3 375c.5 3.5 5.5 4.3 7.1 1.1 1.9-3.4 1.7-7.5-.7-10.6-1.1-1-3-1.6-5.3.6-2.1 2.5-2.5 6-1.1 8.9zm9.6-23.7c-.8-4.6-1.1-6.4-5.9-5.7-5.5.8-6.3-.3-8.4 5.7-1.8 6-.9 10.6 4.4 8l.1-.1c5.3-2.5 10.6-3.3 9.8-7.9zm-15.8 25.4c-1.4-3.8-3.7-8.6-6.9-6h-.1c-3.2 2.6-1.8 3.7-1.5 6.7.3 3-.1 4.8 4.8 4.4s5.4-.9 3.7-5.1zm-10 14.7c-.8 4-4.8 9.9-.5 10.2s12.5-3.5 7.7-10.6h-.1c-2.5-3.9-6.3-3.4-7.1.4zm-5.8 15.4c-1.2 1.7-.2 4.2 1.8 4.6 4.7 1.1 7.1-4.2 2.6-5.9h-.2c-1.4-.3-3.1-.5-4.2 1.3zm.3-29.3c-1.3-4.4-3.9-5.9-6-2.7-2.1 3.1-8.4 13.6-2.6 12.9h-.1c6-.7 10.8-1.6 8.7-10.2zm-10.5 41c-.6 2.9 2.5 5.3 5.2 4 9-4.3-4.1-13.6-5.2-4zm7.6-16.9c2-4.3 2.6-7.6-.4-8.7-3-1.1-12.7 2-8.7 6.9s7.6 5.2 9.3 1.7l-.2.1zM474 443.3c1.9-1.5 3.5-5.8-.9-7.2l-.1.1c-8.1-2.9-5.8 10.6 1 7.1zm-5.7-18.9c5.2 2.6 6.3-8.3.7-6.8h-.1c-2.1 1.7-2.3 4.8-.6 6.8zm7.9-16.6c1.3-3.4-6.7-4.8-6.6-.9-.1 1.8 1.7 3.2 3.4 2.7h-.1c1.8-.4 3-.7 3.3-1.8zm1.5-53.7c-2.9-2.4-7-.5-9.2 3.5-2.2 4.1-3.3 6.9 4.1 8.5h-.1c7.4 1.7 12.8-5.1 5.2-12zm-11.3 18.7a5.55 5.55 0 0 0-1.3 6.2c1.3 2.2 4 3.1 6.4 2.3 2.5-.7 4-3.5 3.1-6-.9-2.7-2.4-4.1-4.6-4.1h-.1c-1.3.3-2.5.8-3.5 1.6zm23.3 82.7c-1.5-.5-2.6 2-2.4 3.3.3 1.4 1.5 3.8 3.3 2.2h-.1c1.8-1.6 2.3-4.6-.8-5.5zm4.9-11.7c2-2.7 1.3-6.6-1.5-8.5-2.6-1.6-2.9 2.3-2.3 4.5h-.1c.7 2.2 2.2 4.9 3.9 4zm4.8-23.1c-1.4-.9-2.8-1.8-4.3-2.5-2.6-.9-4.3.6-4.9 3.9-1.1 3.3-1 7.4 4.2 6.4 5.1-1.1 7.4-6.3 5-7.8zm1.9-5.9c4.8.8 10.4-3.4 7.9-9-1.5-2.8-6-2.5-7 .5h-.1c-2 3.8-5.5 7.9-.8 8.5zm2.3 34.5c4.1.4 4.7-10 1.2-10.6-1.7-.3-2.9-.6-2.9 1.4l.1-.1c.1 1.9 0 3.9-.4 5.8-.9 1.5.3 3.5 2 3.5zm7.6-22.5c3.9-1.4 6-.6 6.4-2.3.7-1.5.7-3.3-3.4-6.6-2-1.6-2.4-1.9-5-.6-2.6 1.3-6 2.8-4 4.8l.1-.1c2.1 2.3 2 6.2 5.9 4.8zm2.1 10.2c-.2 2.2-.8 5.2 1.6 6.8 2.1 1.4 4.6 2 7.1 2 1.8-.3 6.1-.9 6-3.5-.1-2.6-1.3-2.2-3.4-2.9-1.7-.8-3.2-2.2-4-3.9-.8-1.3-1.8-3-4.5-1.6-1.6.8-2.6 1-2.8 3.1zm18.6-6.2c3.8-2.2 4.8-1.4 5.7-3 .9-1.6.4-3.7-3.3-3.6-3.6.1-3.6-1.9-7.2-2.8-4.2-1.1-5.4 2.8-3.7 6.4l.1-.1c.9 3.6 5.4 5.3 8.4 3.1zm3.5 12.9c-2.9 3.5 1.6 9.5 8.2 5.5s5.2-6 4.3-9.8c-.9-3.8-2.4-7-7.6-5-3.9 1.4-2.1 5.9-4.9 9.3zm14.4-19.7c-1.1-3.8-2-7.2-2-7.2-.9-2.7-3.1-4-5-1-2.3 3.2-1.5 7.6 1.7 9.9l.1-.1c4 3.3 6.5 1.9 5.2-1.6zm2.7-9.7c3.7 3.8 5.1 2.3 5-1.2-.3-2.9-.8-5.7-1.6-8.4-.9-2.8-3.9-7.3-6.7-4.4-2.9 3-.3 10.2 3.3 14zm2.6 19.3c3.1-2 6.7-6.2 4-10.2-1-1.5-3.2 0-3.7 2.2-.6 2.1-1.7 3.9-3.2 5.4-1.5 1.5-.2 4.6 2.9 2.6zm31.8 54.6c2.2 6.3 12.8-1.1 4.6-3.5l.1-.1c-3.6-.2-5.1 1-4.7 3.6zm8.1-32s2.2-7.7-1.3-11.3c-6.3-7.1-10.2 10.2-7.3 13l.1-.1c2.5 2.6 7.1 1.7 8.5-1.6zm1.6-22.1c4.1-4.1 5.2-9.3-2.8-11.9-3.1-1-4.9 1.3-5.2 6.1l.1-.1c-.3 4.8 3.8 10 7.9 5.9zm4.3 7.7c4.4 1.1 12.4-2.7 4.6-9.8-1-.9-2.6-1.2-4.2 1.5l.1-.1c-1.5 2.8-4.7 7.3-.5 8.4zm1.6 9.2c2-1.6 2.5-4.6-.7-5.5l.1-.1c-4.3-.5-2.7 8.2.6 5.6zm-2.2 35.2c.7-.1 1.5-.1 2.1-.1 4.8.3 9.6-.5 14.1-2.2 5.5-1.3 10.8-3.1 16-5.4 1.1-.4 2-.7 3-1.1-5.5 1.3-11.2-1.7-13.2-7-2-5.9-9.2-.9-14.6-1.2-.3.3-.6.7-.7 1.2-2.8 5-5 10.2-6.6 15.7l-.1.1zm39.3-15.9c.8-1.5.8-3.4 0-4.9-2.8-2.7-7.7-1.6-9 2l.1-.1c-1.4 3.8 7.6 5.6 8.9 3zm-.9-24.5c-3.2-1.2-5.1 1.1-5.2 3.9 0 2.8 2 5.3 5.2 4l.1-.1c3.5-1.3 5-6.1-.1-7.8zm7.3.7c2.8 1.7 7.9-4.3-1.3-12.7-4.2-3.9-6.9 1-4.5 3.6l.1-.1c2.6 2.5 3.7 7.9 5.7 9.2zm-.2 12c2.2 1.8 5.9-.3 10.8 0 4.5.3 6.4-1.8 4.6-4.5-1.6-2.6-2.9-4.5-5.2-5.1-3.4-.7-3.3 2.5-7.1 4.6v-.1c-3.9 1.9-5.3 3.3-3.1 5.1zm4.4 10.6c-.8 3 4.5 2.4 10.2 2.5 5.3.2 4.7-4.9 0-6.1l.1-.1c-5.3-1.3-9.5.7-10.3 3.7zm7.6 13.9c4.7.7 7.9-1.2 6.2-4.2-1.5-3.1-6.3-2-6.3-2l.1-.1c-2.3.6-4.8 5.5 0 6.3zm11.2-77.2c9.9 3.3 3.6-9.8-1.1-13.7-4.5-4-3.4 3.1-3.7 6.8l.1-.1c-.8 3.3 1.4 6.6 4.7 7zm-4.4 33.9c.7 5 1.6 12.8 5.8 11.9 4.5-.6 5.3-7.7.6-13.7l.1-.1c-2.3-2.9-7.2-3.1-6.5 1.9zm8.1-5.8c3.6 1.1 6.3-4.6 3.5-8.1-2-2.5-4-2.9-6-1.3-2.2 3.3-1 7.7 2.5 9.4zm9.7 14.2c-2.4-.6-5.1-2.3-4.9 2.6l.1-.1c-.3 13.9 12.8.3 4.8-2.5zm-2.2-50.1c-1.3 3.4 3.8 6.9 7.4 5.5s3.1-5.3 0-7l.1-.1c-3.9-2.5-6.4-2-7.5 1.6zm-.6 12.2c-3.2.9-5.1 1.5-8.5 2.6-2.9.8-3.4 5.9 3.4 5.8 4.2-.6 8.6-.1 12.6 1.2 5.9 2.6 8 .2 5.9-3.3l.1-.1c-2-5.5-8.1-8.3-13.5-6.2zm-5.9-19.8c2.1 1.7 5.3-1.3 4.5-4.4-.8-2.2-2.1-2.9-3.7-2.4l.1-.1c-2.3 1.7-2.7 4.8-.9 6.9zm-25.9-15.5c7.3 2.8 7.9 3.8 10.6 4.8 5.1 1.9 11.4-2.7 9.3-6.7-1.7-3.8-6.6-2.6-9.3 0-2.7 2.6-7.4-1.2-7.4-3.5-.2-2.3 5-1 5.2-3.5s-.5-4.9-8.5-3.5l.1-.1c-8 1.4-7.3 9.7 0 12.5zM631.3 356c-1.3 1.7-.2 4.4 1.9 4.7 2.2.5 4.6 1.3 6.9-1.3 2.4-1.9 3-5.3 1.6-8-2.9-5.8-7.2-5.3-9.5-.3-.1 1.7-.5 3.4-1.1 5l.2-.1zm-2 30.7c-3-2-7.1-1.6-9.7 1-2.7 1.8 1.2 5.1 5.6 5.7l.1-.1c4.6.7 10.2-2.7 4-6.6zm-6.9-23.4c.6 2.6 0 5.4-1.6 7.6-1.8 1.8-3 4.2-3.2 6.8-.6 1.8.7 3.8 2.6 4.1 2.5.2 4.6-1.6 4.8-4.1-.3-2.4.4-4.8 2-6.6 1.6-1.2 2.2-3.4 1.3-5.2-.9-1.3-1.7-2.7-2.3-4.1l.1-.1c-.8-2-3.7-1.9-3.7 1.6zm-3.1-14.6s6.2-7.9 4-13.1c-.9-2.6-4.5-.4-6.9 4.2-2.4 4.9-.3 15.6 2.9 8.9zm-1 58.3c5.1 0 6.6-7.5 1.8-9.5l.1-.1c-9.4-6.3-12.9 9.6-1.9 9.6zm-8.7-67.4c2.8-2.4 2.8-6.9 0-9.3l.1-.1c-10-6.1-10.5 16.2-.1 9.4zm-8.2 19.4c.1 4.2 3.7 6.3 7 3.6 2.8-3.2 3.7-7.6 2.3-11.6-1-2-3.7-2.5-5.5-1.1v-.2c-3 2.1-4.5 5.7-3.8 9.3zm-3.8 13.7c-2 1-1.8 3.5-.9 6.3 1 2.9.7 6.1-.8 8.7-1.3 3 3.3 3.9 6 .8 2.6-3 7.9-3.4 5.5-9.5v-.2c-2.8-5.8-6.2-8.2-9.8-6.1zm-11.9-40.1c-.6 4.6 5.4 7.5 8.6 4.1 3.7-3.5 5-8.9 3.4-13.7-1-1.7-3.2-3.4-6.9-1.1v-.2c-3.7 2.2-5.7 6.5-5.1 10.9zm-9.8-11.6c2.6 4.2 10.1 1.9 8.6-3.3-.3-2-2-3.6-4.1-3.7-1.2.1-2.4.6-3.3 1.4v-.2c-1.6 1.5-2.1 3.9-1.2 5.8zm-7.8 5c-1.7 1.6.4 3.3.4 3.3 2.9 3.2 9.6-.4 5.5-3.7v-.2c-1.8-1.2-4.3-1-5.9.6zm-10-4c1.3 4.3 5.7 1.2 8.9-1.2 2.5-1.4 3.7-4.3 2.9-7.1-.4-3.5-3.8-3.2-7.9-3.4v-.2c-3.9-.1-5.2 7.6-3.9 11.9zm-7.8 6.1c-4.4 2.2-4.7 4.1-2.7 7.6s3.5 8.3 7.4 4.7c3.8-3.5 6.1-6.2 2.8-11v-.1c-2.1-3.1-2.8-3.8-7.5-1.2zm-9.7-16.1c1.4 2.6 1.2 3.7 3.4 3.6 2.2-.2 4.7-2.5 7-1.8 5.6.1.5-7.4-4.1-6.9v-.1c-2.5 0-7.6 2.6-6.3 5.2zm-4.3 11.1c-2.3 2.2-3.9 5-4.5 8.1-.6 2.3-.4 4.8.7 7 .6 1.5 2.4 2.3 3.9 1.7 1.7-1 2.8-2.6 3-4.5 0-1.7.3-3.4.9-5.1 1.3-1.7 2.4-3.6 3.3-5.5.6-1.6-.2-3.4-1.7-4.2v-.1c-1.5-.7-4.3 1-5.6 2.6zm-7.2-11.6c.6 1.2 2.3 1.5 3.2.5 3.9-2 2.4-9.3-2-6.3v-.2c-1.8 1.5-2.3 4-1.2 6zm3.4 51.1c5.2-1.2 6.4-8.8 1.7-11.5-2.7-2-5.4-.1-6.1 3.8v-.2c-.9 3.9.1 8.7 4.4 7.9zm-19.7-35.5c-3.1 3-2.7 8.2.9 10.7 4.2 3.4 6-2.6 8.2-4.4 2.2-1.7 7.5-7.5 3.3-8.9-4.2-1.4-4.2-1.1-2.6-3.4 1.3-1.9 1.8-4.2 1.5-6.5.3-3.2 1-9-.9-10.4-1.8-2.3-5.8-1.2-6.1 1.8-1.1 4.2-2.5 13.3 1.1 14.9 3.6 1.6-5.3 6.3-5.3 6.3l-.1-.1zm-8.7-12.9c1.1 1 2.9 1.6 4.9-.5 2-2.3 2.5-5.5 1.3-8.3-.3-3.3-5.1-4.1-6.5-1.1l-.1-.1c-1.7 3.1-1.5 7 .4 10zm-8 8.6c-2 3.7-3 7.7-4.7 10.4-1.7 2.7-.7 7 4.1 10.9 4.4 3.9 6-.4 5.2-6-1.1-3.6-.5-7.6 1.5-10.7 1.7-1.8 2.3-4.4 1.6-6.8l-.2-.1c-1.5-3.5-5.5-1.4-7.5 2.3zm-2.3-8.6c1.7 0 3-.8 2.2-4-.5-3-1.2-8.6-5.1-6.6l-.1-.2c-4.2 2.4-7.6 10.5 3 10.8zm-8.6 35.2c-3.9 4.4 1.4 6.8 7.2 7.6 5.8.7 6.6-1.9 1.9-7.6l-.1-.1c-2.1-3.2-7-3.1-9 .1zm-2.3-16.3c-1.9-.8-4.5.5-4.8 3.9.1 1.9-.6 3.8-2 5.1-5.2 3.4.6 8.2 3.3 3.2 1.3-2.5 2.7-4.9 4.2-7.2l-.1-.1c1.8-1.3 1.4-4.1-.6-4.9zm-6.3-24.8c-.4 2.2 1 4.4 3.2 4.9 2.3.7 2.6-1.9 2.6-1.9.2-2.6-.1-3.7-2.1-5l-.1-.1c-2.2-1.4-3.5.1-3.6 2.1zm1.5 21.2c2.6-2.1 3.3-6.2-1.1-7.4v-.1c-5.2-.7-3.7 11 1.1 7.5zm-7.3 4.6c-6-2.1-4.6 8.1.6 5.5l-.1-.1c2.1-1.3 1.8-4.6-.5-5.4zm-.3-14.8c2.5-.8.4-5.5 0-7.6-1.3-4.7-4.8-2.6-6.3-.8l-.1-.1c-1.9 4.1 1.5 10.7 6.4 8.5zm-16 5.4c7.8 11.4 5.9-19.5-1.5-13.8l-.1-.1c-3 2.4-1.5 9.5 1.6 13.9zm-11.6 24.4c-.3 6.3 4.9 4.7 8.6 2.5 3.2-2.2 4.5-1.4 7.4-.7 2.8.5 8.9-3.7 4.2-6.8-4.7-3.1-5.3-4.9-5.3-4.9l-.1-.1c-.8-3.4-5.8-.9-7.7.9-1.9 1.8-6.8 2.7-7.1 9.1zm-2.4-31.5c1.3 4.6 2.3 9.3 3 14 .5 4.1 9.4 1.3 2.6-13l-.1-.1c-2.6-5.1-6.6-4.9-5.5-.9zm.7 56.4c5.1-1.7 6.5 2.4 8.9-1.4 2.4-3.9 6.8-5.8 3-8.4-3.7-2.8-8.8-3.1-12.8-.8-2 .9-3.8.7-4.5 5.2l-.1-.1c-.7 4.4.7 6.9 5.5 5.5zm-17.5 51.1c1.6 3.2 6.9 6.9 10.5 1.3l-.1-.2c6.7-10.2-12.7-11.8-10.4-1.1zm11-98.9c2-3.7-2.9-9.1-5.1-4.3l-.1-.2c-1.6 3.5 3.5 8.7 5.2 4.5zm-9.4 15.5c-2 1-4.7 2.2-2.3 4.9 2 2.7 2.4 5.7 6.2 5.5 3.5-.1 5.8-1.1 6-3.9-.3-3.2-1-6.4-2.2-9.5-1.2-1.8-3-2.8-4.6-.9l-.1-.2c-1.9 1.7-1.3 2.9-3 4.1zm-9.9-13.9c-.2 2.4 4.1 8 6.4 6 2.3-2.2 2.9-5.7 1.5-8.6l-.1-.2c-1.9-2.9-7.9.3-7.8 2.8zm.1 30.6c1.2 2.1 2.4 7.4 6.3 3.8 3.9-3.6 2.1-7.4-3.2-8.8l-.1-.2c-3.6-1.1-4.2 3-3 5.2zm-10.8-13.7c1.9 3.9 5.8 2.9 8.7-.4 3.1-5.2-1.3-12.2-7.4-11.5l-.1-.2c-7.1 1.5-2.8 8.6-1.2 12.1zm-4 21.4c-1.9-.3-3.6.9-4.2 2.7-1.5 2.7-2.1 5.9-1.8 9 .5 3.8-.3 7.2 3.6 6.1 3.8-1.2 6.4-4.6 6.6-8.5l-.1-.2c.7-3.8 2.8-9.5-4.1-9.1zM390 347.6c-.1 3 .5 6.8 6.4 6.5 6-.3 3.8-5.9.3-10.5l-.1-.2c-3.5-4.6-6.1-3.3-6.6 4.2zm-4.7 60c-3.7 2.8-5.3 4.8-2.7 6.2 2.3 1.4 4.7-1.1 8.4.4 4.3 1.6 3.8-5.7 1-7.4l-.1-.2c-.9-.4-2.9-1.8-6.6 1zm3-11.5c.3-2.9-2.9-11.6-5.5-4.6-1 3.9-4.2 10.2.6 9.5s5.2-2.5 5.1-4.7l-.2-.2zm-5.3-30.8c4.5-.1 5.4-7.6.8-10.5-3.2-2.1-5.8-1.7-7.3 1l-.1-.2c-1.7 2.7 2.1 9.8 6.6 9.7zm-7.5 14c0 4.4 3.9 7.6 8.1 4.4 2.9-2.5 2.9-7.1 0-9.6v-.2c-4.3-3-8.2 1-8.1 5.4zm-8.6-14c.1 2.3 2.7 3.7 4.7 2.7 2.2-1.3 1.8-4.8-.6-5.5l-.1-.2c-2.6-.9-4.1.3-4 3zm3.4 35c4.8-1.4 5.3-3.6 3.8-7.4-.5-3.5-9.4-13.6-6.8-3.9.6 3.3.1 6.6-1.5 9.5l-.1-.2c-.6 1.9-.1 3 4.6 2zm-10.5 12.5c-1.5 1.4-2 3.6-1.3 5.5.7 2.1 1.3 6.4 4.2 3.8 2.9-2.6 4.1-2.6 4.1-5.6 0-3-.4-6-2.5-5.5l-.1-.2c-2.4.5-3.5.5-4.4 2zm-3.8-24.6c3.9-.1 4.8-6.6.8-9.1-2.9-1.8-5-1.5-6.4.9l-.1-.2c-1 3.8 1.7 7.8 5.7 8.4zm-16.2 10.2c2.2 1.1 3.5-.6 6.3-.3s4.5-.5 4.1-3.8c-.1-1.8-1-3.6-2.5-4.7-2.2-1.4-3.9-1.6-5.9 1.2l-.1-.2c-1.9 2.7-4.7 6.1-1.9 7.8zm-8.8 9.2c-1 3.3 3.9 6.5 7.2 5.1 3.3-1.3 2.6-5 0-6.7l-.1-.2c-3.7-2.1-6.1-1.5-7.1 1.8zm-6.6 18.1c1.2 2.3 3.7 3.8 6.3 3.8 2.4-.7 5 .3 6.2 2.4 1.9 2.9 5.1 2.5 4.8.7 0-2-.9-2.3-3.5-4.4-2.8-2.1-5.4-4.5-7.8-7.1-1.8-2.2-3.8-2.6-5.2-1.8l-.1-.2c-2 1.6-2.3 4.7-.7 6.6zm-7.7 18c1.2 1.9 4.5 4.5 6.2 3.5s1.2-4.2 3.9-4.8c5.9-2.6-6.9-11.8-9.1-6.3l-.1-.2c-1.3 2.5-1.6 5.3-.9 7.8zm5.7 42c.7-1.2 1-2.6 1-4-.3-1-.7-1.9-1.1-2.9-.4-1.3-2.2-1.6-3.1-.6-3.7 2-8.7 10.9-3 12.4l-.1-.2c2.4.9 5.6.9 5.8-1 .3-1.7-.5-2.2.5-3.7zm-3.3 18.8c1.8-4.5-2.2-6.8-5.6-4.3-2.4 1.6-3.1 5-6.1 5.9-3 .8-4.4 4.6-2.6 7.2 1.9 1.7 5.6-.6 7.6-2.3 1.8-1.9 5.5-3.9 6.8-6.4l-.1-.1zm-9.2-45.4c.4 2.4 2.8 3.5 5.5 3.3 1.8.1 3.5-.6 4.6-2.1.9-1 0-2.7-.8-3.8-2-1.5-8.1-8.4-8-3.1l-.1-.2c.5 2.4-1.7 3.2-1.2 5.9zm-4.4 19c6.5 3.2 4.4-2.6 8.3-5 4.1-4-5.3-4.7-7.1-2.2l-.1-.2c-1.8 1.7-3.8 6.4-1.1 7.4zm3.2 17.4c2.1-1.8 0-2.6-.4-4.3-.4-1.2-.2-2.3-2.2-2.1-2 .3-2.1.7-3 2.5l-.1-.2c-1.5 3.4 3 6.6 5.7 4.1zm414 20.2c-2.9-1.6-6.2-2.3-9.5-2-6 1-7.7-3.5-9.5-7.8-1.8-4.3-5.2-3.7-11.1-4.6-5.6-.5-10.6-3.7-13.4-8.5-4.1-5.9-6.5-6.7-17.4-2.2-9.4 3.7-14.6.7-16.1-2.7-4.6.8-9.1 1.9-13.5 3.4-4.5 1.7-9.1 3.8-15.2 6.2-9.9 2.8-20 4.9-30.2 6.2-10.1 2.4-24.2.3-27.4 12.4-.7 1.9-1 3.8-1.1 5.8 1.2 6.2 1.2 12.6 0 18.9-.3 4 .3 8 1.8 11.7 2.9 4.2 7.4 7 12.4 7.9 6.1.2 12.2-.2 18.2-1.4 5.1-.1 10 1.3 14.3 4 3.4 2.4 7.3 4.1 11.3 5 3.7.5 4.9-1 13.2-1.4 4.6-.5 9.3.7 13.2 3.3 4.7 1.9 6.9 1.5 8.4 4.1s-2.5 3-6 3.3c-6.1 0-12.2-.5-18.3-1.5-5.6-.3-11.2-.3-16.8 0-4.8-.9-9.5-2.3-14-4.3-6.6-.8-13.3-.2-19.7 1.7-7.2 1.2-14.6 1.6-21.9 1.3-3.5-.3-9.9-1.2-14.1-1.6-3.2-.5-6.3-1.8-9.1-3.6-2.1-1.4-7.1 0-10.4 1-2.2.5-6.1.4-5.3-2.4.6-2.7 4.2-4.1 7.3-4.4 3.1-.3 4.2-1.8 3.1-4.4-1.3-2.6.8-2.8 1.2-8 .3-2.3 0-4.6-.9-6.6-.6-3.8-.4-7.7.5-11.5.8-6-2.3-23.4 1.6-23.6 3.9-.2 4.7 2.4 5.1 6 .4 3.6 3.8 4.4 5.7 8.1 1.9 3.7-1.9 4.8-.7 9.5s-2 8.3-2 12.2c0 3.9.1 0 .4 3.9s-3.7 3.1-2.4 6.6c1.3 3.4 3.4 2.1 7.2 2.8 8.6 2.4 8.4-3.4 4.6-9.8-1.4-3.9-.8-8.2 1.6-11.6 1.6-2.4 1.5-5.6-.3-7.8-1.3-2.4-.9-5.2.9-7.2 1.9-2.6.5-4.4-.9-6.6-1.4-3.3-.5-7.2 2.4-9.4 2.8-1.6 5.9-2.8 9.1-3.4 7.2-2.9 3.7-14.4-3.9-12.8-2 0-5.2-.7-4.2-4.4.8-3.4-.9-4.3-5.8-3.7-4 .7-5.6-3.5-3.1-6.3 3.3-3.6-.9-4.9-1.9-7.3-1.2-2.5-.8-5.5 1.1-7.6.3-.4.5-.9.6-1.5-3.7.3-7.3-.7-10.3-3 .2 1.7.7 3.4 1.1 5.7.9 3 .9 6.3 0 9.3-1.7 7.6-.2 15.5 1.2 23.1.3 2.8-1.1 5.6-3.6 6.9-2.1 1-3.1-3.9-3.9-6s-2.9-.9-5.5-.9c-2.9.1-2.4-3.2-1.8-7.1.7-3.7.3-1.9 0-5.5s1.4-3.3 0-4.2c-3.1-2.2 3.1-7 .4-8.2-2-1.9-2.5-4.9-1.3-7.4 1.3-2.3 2.2-4.8 2.4-7.4.3-1.4.4-2.9.3-4.4-3.4-1-7 .2-9.1 3.1.2 4.5-.3 9-1.4 13.4-1.6 3.4-1.6 7.4 0 10.8 1.1 3.2-.9 10.3.1 13.8s1.1 12.6-1.9 8.7c-2.9-4-5.3-8.6-6.3-4.2-1 4.4-2.1 10.6.9 11.9 1.2.6 2.7-1.5 3.6 1.9.9 3.4.4 2.3-.5 4.9-.6 1.9-1.6 3.7-3 5.2-1.2 1.6-.2 10.5 1.3 8.3 1.7-2.2 4.4.3 3.4 3.3-.8 3-1.8 2.9-1.6 5.6 0 2.7.9 6.2-2.1 9.3-3 3-.2 3.6 0 6.2.4 2.6-.9 5.1-3.2 6.4-2.5.9-5.2 1.3-7.8 1.4-2.8-.3-4.7-3.1-1.8-6.3 2.1-2.3 1.3-3.9.4-5.9-2.9-5-.4-4.8 1.6-9.6.5-1.8-.3-3.7-1.9-4.7-5.2-2.6-10.1 2.2-10.7 7.3-.1 1.8.2 3.7.8 5.5 1.4 3.3 1.4 7 0 10.3-1.2 4.1-1.1 6.1.2 7.8 3.2 2.3 7.2 3.3 11.2 2.9 2.2-.4 5.8-1.7 7.4-1.1 3.7 1 4.9 7.2-2.9 7.2l-15.2 1.5c-6.4.3-17.2-.6-22.4-1.5-2.3-.9-4.7-1.5-7.1-2-2.1-.2-4.3-.1-6.4.4-3.9.8-7.8 1.8-11.6 3.1-4.4.8-8.9 1.1-13.4.9-5.7-.1-15.2.4-20.8-.7-2.6-.2-4.9-1.6-6.3-3.8-1.9-4.9 5.1-6.4 8.7-5.5 2.3.2 5.8 1.5 9.8 1.7 2.7 0 5.3-.3 7.9-.9 3.7-.4 7.4-.6 10.4-1 2.9-.5 5.6-1.5 8.2-3 2.5-1 5.1-1.6 7.8-1.8 2.7-.3 5.3-1 7.7-2.2 1.8-1.1 1.9-5 3-6.7 1.2-1.8 2.1-3.8 2.6-5.9.4-2.7.6-4.2 1.1-7.5 1.2-7.5 2.3-10.3 3.1-20.1-.1-1.6-.1-3.3 0-4.9.5-1.9-3.7-4.4-3.7-4.4-3.4-2.8-.8-.9-6.3-3.8-5.7-2.5-11.6-4.6-17.5-6.4-13.9-4.6-24.1-12.7-35.3-18.3-3.5.7-7 1.1-8.9 1.7-3.9 1.6-7.1 4.6-8.9 8.4-2.1 3-5 5.3-8.4 6.6-3.5.8-7.1.5-10.4-.8-4-1.1-7.8 2.1-10.8 4.8-2.7 2.6-6.1 4.4-9.8 5.1-2.8.3-5.3 1.4-7.4 3.3-2.9 2.4-6.8 3.2-10.5 2.1-4.4-1-7-1.1-13.3 4-3.4 2.5-7.3 4.3-11.5 5.2v1c22.8 268.2 404.8 263.2 420.3-5.8l.5-.5zm-279.3-56.4z" style="fill:#fff"/>
</svg>
