<svg xmlns="http://www.w3.org/2000/svg" viewBox="0 0 1024 1024">
   <circle cx="512" cy="512" r="512" style="fill:#003376"/>
   <path d="M382.18 562.89c-3.08 0-7 3.22-6.45 6.59a8.55 8.55 0 0 0 7.57 4.21 5.47 5.47 0 1 0-1.12-10.8ZM512.14 196C337.62 195.92 196.08 337.34 196 511.86S337.34 827.92 511.86 828 827.92 686.66 828 512.14v-.28C828 337.42 686.58 196 512.14 196Zm218.42 534.28c-120.5 120.4-315.79 120.32-436.19-.18s-120.32-315.79.18-436.19 315.79-120.32 436.19.18a308.43 308.43 0 0 1-.18 436.19Zm-218.42-517.6c-165.31 0-299.32 134-299.32 299.32s134 299.32 299.32 299.32S811.46 677.31 811.46 512v-.14c0-165.23-133.95-299.18-299.18-299.18Zm208.47 507.51c-115 114.9-301.46 114.79-416.36-.26s-114.79-301.46.26-416.36 301.46-114.79 416.36.26a294.41 294.41 0 0 1-.26 416.36Zm-437.55-215.9-16.54-1.4-6.87-8.41 25.52-15.14.56-8.41-30.14 18.51-17.66-22.15-.7 9.11 21.45 25.8-23.41-1.82-.56 6.31 47.95 3.93Zm9.11-55.24 1.82-6.31-18.65-5.61-22.14-25.51-2.2 7.29 18 19.77-25.94 6.59-2.24 7.29 32.67-9.11Zm-11.78-41.5a27.2 27.2 0 0 0 18.37 3.93 21.59 21.59 0 0 0 14.86-11.64 21.17 21.17 0 0 0 1.82-20 28 28 0 0 0-12.76-14 25.66 25.66 0 0 0-16.54-3.93 21.59 21.59 0 0 0-16.4 12.34 21.17 21.17 0 0 0-1.4 20.33 28 28 0 0 0 12.06 12.97Zm-5.47-30.28a15.28 15.28 0 0 1 10.37-8 19.77 19.77 0 0 1 14 2.94 26.36 26.36 0 0 1 10.51 10.23 14 14 0 0 1-.84 14 16.12 16.12 0 0 1-11.22 8.83 23 23 0 0 1-14-3.36A21.87 21.87 0 0 1 273 390.59a16.26 16.26 0 0 1 2.38-13.32Zm33.79-44.72L340.12 361l4.49-5-31.26-28.32L324 315.73l-4.07-3.93-26.22 29 4.21 3.65Zm51.87-.7a22.15 22.15 0 0 0 17.94-4.35 21.31 21.31 0 0 0 10-17.38 29 29 0 0 0-5.89-17.66 26.36 26.36 0 0 0-14-10.51 21.73 21.73 0 0 0-20 4.21 21.45 21.45 0 0 0-9.81 17.94 31 31 0 0 0 20.75 28Zm-7.43-41.22a15.42 15.42 0 0 1 13-2.8 19.49 19.49 0 0 1 11.36 8.55 25.24 25.24 0 0 1 5.19 14 12.9 12.9 0 0 1-6.45 12.2 15.14 15.14 0 0 1-14 3.22 22.71 22.71 0 0 1-11.22-8.55 21.45 21.45 0 0 1-4.91-15 16.4 16.4 0 0 1 7.04-11.62Zm75-.14a17 17 0 0 0 18.51 3.65A16.68 16.68 0 0 0 460 281a34.21 34.21 0 0 0-1.54-14l-8-25.8-6.17 2 8.55 28a18.79 18.79 0 0 1 .84 8.41 11.64 11.64 0 0 1-9.25 8.69 10.09 10.09 0 0 1-10.94-2.1 18.51 18.51 0 0 1-4.35-7.71l-8.55-28-6.45 1.68 7.85 25.8a31.4 31.4 0 0 0 6.17 12.52Zm59-6.31-2.1-38.83 26.36 37.43 7.29-.42-2.52-47.95-6 .42 1.82 38.7-25.8-37.43-7.71.42 2.51 47.94Zm62.67-46.54-6.45-.7-5.89 47.53 6.45.84Zm31.4 56.08 30.56-40.94-7.15-2.1-24.53 35.19-1.54-43-7-2.1 3.08 51Zm58.46 27.34 2.8-5-25.38-14.16 7.9-14.21 23.13 12.9 2.66-5-23-12.76 7-12.76 25 13.88 2.8-5.19-30.42-16.82-23.27 41.92Zm18.09 13.88 14-15.28 10.65 9.67a12.62 12.62 0 0 1 3.5 4.49 6.73 6.73 0 0 1-1.68 7l-5.13 6.18-2.24 2.94-.7 1.54 5.89 5.47.84-.84a3.5 3.5 0 0 1 0-3.5l2.38-3.36 4.35-4.91a11.78 11.78 0 0 0 2.94-5.47 14 14 0 0 0-1.12-5.19 11.78 11.78 0 0 0 6.59 0 12.48 12.48 0 0 0 6.17-4.07 11.64 11.64 0 0 0 2.66-12.76 21.17 21.17 0 0 0-5.87-7.15l-16.26-14-31.84 34.89Zm28-31.4 11.43 10.36a11.22 11.22 0 0 1 3.22 4.21 9.11 9.11 0 0 1-8.41 10.8 12.06 12.06 0 0 1-6.45-3.36l-10.65-9.81Zm18.65 77.11a12.48 12.48 0 0 1-2.1-11.92 12.34 12.34 0 0 1 4.35-5.19l-3.36-5.19a15.14 15.14 0 0 0-7.43 10.94 20.33 20.33 0 0 0 3.79 14 24 24 0 0 0 10.37 8.83 12.06 12.06 0 0 0 12.62-1.68 11.36 11.36 0 0 0 5.47-9.25 19.21 19.21 0 0 0-1.4-7.71l-2.52-6.17a67.43 67.43 0 0 1-2.66-8.55 5.89 5.89 0 0 1 2.66-5.33 7.15 7.15 0 0 1 6-1 11.22 11.22 0 0 1 6.59 5 12.76 12.76 0 0 1 2.38 10.23 15.7 15.7 0 0 1-3.79 5l3.36 5a14 14 0 0 0 6.73-10.94 20.33 20.33 0 0 0-4.07-12.34 16.4 16.4 0 0 0-10.23-7.85 14 14 0 0 0-11.27 2.47 10.8 10.8 0 0 0-4.91 8.83 24.25 24.25 0 0 0 2.38 9l2.1 6a22.57 22.57 0 0 1 2.1 7.85 6.45 6.45 0 0 1-3.5 5.19 7.29 7.29 0 0 1-9 0 24.11 24.11 0 0 1-4.59-5.23Zm17.38 39.11 43.46-20.19-2.66-5.89-43.6 20Zm10.2 27.61 1.68 6.31 40.66-11.36 4.35 15.56 5.75-1.54-10.65-37.57-5.47 1.54 4.35 15.7Zm8.55 45.56.28 6.59 19.49-1.4 29.86 16.26-.42-7.71-24.25-12.2 22.29-15.28-.56-7.71-27.34 20.19ZM290.63 630.75l-10-21.45 13.37-6.17 11.36 24.39 5.19-2.38-14-30.42-43.35 20.18 2.52 6 19.77-9.11 10 21.31Zm40 20.89a20.61 20.61 0 0 0-18.23-9.11 29.16 29.16 0 0 0-16.12 6.31 30 30 0 0 0-10.8 15.28 24.41 24.41 0 0 0 23 27.76 28.74 28.74 0 0 0 17.52-6.6 26.36 26.36 0 0 0 10-14 21.73 21.73 0 0 0-5.41-19.65Zm-1 16.54a21.17 21.17 0 0 1-8.13 11.92 28 28 0 0 1-14 5.61 14 14 0 0 1-12.48-6 14.86 14.86 0 0 1-3.5-14 20.75 20.75 0 0 1 8.13-11.5 21.87 21.87 0 0 1 14.86-5.47 15.42 15.42 0 0 1 11.36 6.45 14.86 14.86 0 0 1 3.74 12.99Zm48.93 31.68L359.89 723a20 20 0 0 1-6.45 5.47 11.5 11.5 0 0 1-12.34-2.66 10.65 10.65 0 0 1-4.49-10.37 18.93 18.93 0 0 1 3.93-8.13l18.65-23.13-5.19-3.95-17.52 20.47a34.91 34.91 0 0 0-6.59 12.06 20.28 20.28 0 0 0 25.8 21 32 32 0 0 0 10.65-9.25L383 703.37ZM408 760.57l-4.91-45.28-7-3.36-20.61 43.46 5.72 2.61 16.54-35 5.33 45.56 6.59 2.94 20.61-43.5-5.75-2.52Zm56.22-23.27-18.65-3.93-10.09 47 18.79 4.49a17.24 17.24 0 0 0 19.07-7.15 31 31 0 0 0 5.61-12.9 26.08 26.08 0 0 0-1.26-16.82 17.8 17.8 0 0 0-13.5-10.7Zm8 26.64a17.1 17.1 0 0 1-1.54 4.77 15.84 15.84 0 0 1-4.21 6.73 11.08 11.08 0 0 1-6.87 3.65 15.7 15.7 0 0 1-5.47 0l-11.13-2.4 7.71-35.89 11.92 2a12.9 12.9 0 0 1 9.67 7.29 22.85 22.85 0 0 1-.12 13.84Zm33.65 20.89-.14-16.26 26.36-.42-.28-5.61-26.22.42-.28-14.58 28.6-.28v-5.9l-34.77.28.42 48.09 35.33-.56v-5.47ZM583.64 739a17.66 17.66 0 0 0-16.4-3.22l-18.65 4.49 12.2 46.83 18.51-4.63a17.38 17.38 0 0 0 14-14 34.77 34.77 0 0 0 0-14 26.22 26.22 0 0 0-9.66-15.47Zm2.1 30.14a11.22 11.22 0 0 1-4.63 6.31 21.31 21.31 0 0 1-4.91 1.82l-11.08 2.8-8.69-35.89 10.94-2.66a12.34 12.34 0 0 1 11.92 2.1 24.53 24.53 0 0 1 6.71 12.6 47.25 47.25 0 0 1 .84 5 22.15 22.15 0 0 1-1.1 7.9Zm53.41-63.23a11.22 11.22 0 0 1 0 7.85 24.81 24.81 0 0 1-6.45 6.73l2.52 3.65 9.11-6 18.23 28 5.33-3.5-25.38-39Zm60.56-18.37a13 13 0 0 0-5.47.84 12.62 12.62 0 0 0 0-4.77 9.53 9.53 0 0 0-3.36-6.59 10.37 10.37 0 0 0-8.55-3.36 17.52 17.52 0 0 0-15.14 14.86 12.2 12.2 0 0 0 3.65 9.11 9.39 9.39 0 0 0 6.59 3.08 8.83 8.83 0 0 0 4.35-.84 12.76 12.76 0 0 0-1.12 7.43 11.78 11.78 0 0 0 3.5 6.59 12.76 12.76 0 0 0 10.94 4.49A18.37 18.37 0 0 0 706 713a16.12 16.12 0 0 0 5.47-11.22 15.56 15.56 0 0 0-4.21-10.51 12.2 12.2 0 0 0-7.54-3.75Zm-18.37 7.85a6.17 6.17 0 0 1-5.47-2 7.29 7.29 0 0 1-2.24-5 10.09 10.09 0 0 1 8.83-8.69 7 7 0 0 1 5 2 7.29 7.29 0 0 1 2.1 5.33 8.55 8.55 0 0 1-2.94 5.75 10.66 10.66 0 0 1-5.26 2.6Zm21.73 14a9.67 9.67 0 0 1-7.29 3.36 8.27 8.27 0 0 1-6-2.94 8 8 0 0 1-2.8-6.73 10.51 10.51 0 0 1 3.22-6.45 10.8 10.8 0 0 1 6.87-3.22 8.69 8.69 0 0 1 6.87 2.94 7.71 7.71 0 0 1 2.38 6.73 9.81 9.81 0 0 1-3.22 6ZM729 644.62a32.67 32.67 0 0 0-11.5-5.47 15.76 15.76 0 0 0-18.37 18.51 17.24 17.24 0 0 0 6.87 9.54 15.56 15.56 0 0 0 11.22 2.94 15 15 0 0 0 12.06-12.2 9.67 9.67 0 0 0 0-6.45 28 28 0 0 1 9.25 11.64 8.13 8.13 0 0 1-1.26 7.85 7.43 7.43 0 0 1-10.21 2.5q-.3-.18-.59-.4l-3.36 4.77a11.64 11.64 0 0 0 9.39 2.24 14 14 0 0 0 9-6.45 14.86 14.86 0 0 0-.84-18.23A38.27 38.27 0 0 0 729 644.62Zm-5.89 15.56a8 8 0 0 1-6.17 4.21 10.51 10.51 0 0 1-7.43-2.24 11.36 11.36 0 0 1-4.91-6.45 8.41 8.41 0 0 1 1.68-7.29 9 9 0 0 1 5.75-3.93 10.8 10.8 0 0 1 8 2.24 9.67 9.67 0 0 1 4.77 6.87 9.39 9.39 0 0 1-1.82 6.31Zm25.52-47.67a66 66 0 0 1-8.13-10.8 42.06 42.06 0 0 1-4.49-8.55l-4.77-2.1-13.18 29.86 5.47 2.38 10.51-23.69a102.9 102.9 0 0 0 8.41 14 82.44 82.44 0 0 0 20.47 19.77l2.52-5.89c-3.93-2.94-6.73-5-8.41-6.59a78.93 78.93 0 0 1-8.38-8.38ZM722.43 484c0-4.77-1.26-9.81-2.24-14.72a144.26 144.26 0 0 0-5.19-19.67c-34.49-112-153.27-174.91-265.31-140.42a212.26 212.26 0 0 0-149.81 202.67v9.81c4 117.16 102.26 208.87 219.42 204.84 115.3-4 206.32-99.29 205-214.66v-19.34c-.04-1.82-1.45-5.32-1.87-8.51Zm-5.47 9a2.94 2.94 0 0 1 0 5.47c-1.26 1.12-4.35 0-4.35-2.66s2.39-3.58 4.39-2.88Zm-3.22-12.2c5.61 8.27-7.85 2.24-9.25-1s5.75-3.41 9.25.94Zm-1.12 26.08c1.12 2.52-4.07 3.93-5.89 0s2.66-7.36 5.89-.07Zm-8.41-9.25a4.35 4.35 0 0 1-6.87-4.07c.84-3.22 3.93-7.57 6.87-4.91s3.5 6.53 0 8.91Zm5.19-26.08c-3.93 0-6.59-2.1-7.71-7.57s4.49-4.77 7.71-1.12 4.06 8.34-.01 8.62Zm-9.67-46.83c3.22 1.12 2 4.35 0 5.47a3.08 3.08 0 0 1-4.49-2.66c.56-2.59 1.96-3.71 4.48-2.87Zm0 18.79c1-4.63 2.24-6.45 4.91-2.1s5.75 5.33 2.94 10a7 7 0 0 1-9.69 2.07q-.28-.18-.54-.39c-4.21-2.1 1.4-4.63 2.24-9.53Zm-5.47 15.28a12.34 12.34 0 0 1 0 7.71 10.94 10.94 0 0 0 1.68 7.71c1.82 3.22-1.12 4.49-2.52 2.94a11.5 11.5 0 0 0-3.93-2.66 4.77 4.77 0 0 1-.84-5.47 9.39 9.39 0 0 0-1.68-6.59 4.63 4.63 0 0 1 2.66-5.75 3.5 3.5 0 0 1 4.49 2.1Zm0 28.88c-.84 2.52-2.52 3.36-5.61 2.38s-5.33-7.43-1.68-8.41 8.41 3.5 7.57 6Zm-3.08-47.39c-1.68 4.21-6.73 2-9.39 1.68s-3.36-4.07-1.68-6.87a5.47 5.47 0 0 1 6.59-3.08 5.89 5.89 0 0 1 4.77 8.27Zm-18.23 33.65c-4.77 2-5.75-.7-5.61-8.41s8-5.33 10-1.26.09 7.74-4.4 9.61Zm2.8 10c-1.82.84-6.73 2.1-6.45-1.4a4.77 4.77 0 0 1 6.45-4.21c4.49 2 1.68 4.77-.28 5.61Zm-106.41 1.12a29.3 29.3 0 0 1-11.36-3.5 18.09 18.09 0 0 1-5.47-14v-14a6.17 6.17 0 0 1 5.19-3.79 4.49 4.49 0 0 1 5.75 4.07 12.2 12.2 0 0 0 1.68 4.63 8.27 8.27 0 0 0-2.38 9.39c1.12 2.38 4.07 2.24 6.45-1.68a9.81 9.81 0 0 0 1.26-4.91c5.75-1 7-2.66 9.53 1.82s4.77 5 8.55 4.35a12.48 12.48 0 0 1 3.22 0 25.52 25.52 0 0 0-2.1 3.79c-2.94 7.71-4.21 8.41-7.57 10.94a28 28 0 0 1-13 2.94Zm12.34 8.41c.7 1.82-2.66 2-3.93 2.8s-2 2.52-5.19 2.24-2.94-4.35-2.52-5.75 2.24-2.24 4.77-2.24c0 0 5.75 1.12 6.59 2.94Zm-91-11.78a3.79 3.79 0 0 1 0 4.77c-1 .84-2.38 2.8-1.82 3.93a3.36 3.36 0 0 1 0 3.79 2.94 2.94 0 0 0 1.14 4l.12.06c1.54.84 2.24 5.61 0 6.45s-3.65 4.07-2.24 5.33a3.36 3.36 0 0 1 0 4.63c-1.4 1-1.12 2.24 0 4.21s1 7-2.24 6.31-2.1-4.35-4.63-6.31-5-1.54-6.59-4.07a6.31 6.31 0 0 1 .84-8.83c3.5-2.66 6-1.26 6.17-5s-2.24-5.47-4.35-4.35-6.31-3.65-9.25 0a6.45 6.45 0 0 1-11.22-3.36c-2.52-8.69 4.91-13.32 7.29-11.5 0 0 3.08 2.66 5.61 1.82a6.59 6.59 0 0 1 7 1 4.49 4.49 0 0 0 7.43-3.22c0-3.36 2.1-4.77 1.68-8.55s2.66-5 4.63-4.21a5.47 5.47 0 0 1 1.68 7.43c-1.24 2.34-2.78 4.31-1.24 5.57Zm-51.17 1.68c1.68-4.21 5.19-4.91 7-3.79s1.4 2.94 0 5.75 0 7.15-3.22 7.71-5.75-5.33-4.07-9.67Zm0-17.66c1.26-1.26 2.8 0 4.21 1.26s0 5.19-2 3.79-4.63-3.65-3.08-5Zm5.75-5.61a39 39 0 0 0-11.92.84 3.65 3.65 0 0 0-1 5.75 12.62 12.62 0 0 1 2.52 5.19c-1.68 0-5.47-2.24-6.87-2.8l-5.47-2.38v-2.1c0-4.07-1.26-10.51 1.68-14s7.29-4.77 8.83-2.52 0 .7 0 1.26h-1c-4.21 2.38-6.45 8.27-2.66 9a8.83 8.83 0 0 0 8.13-4.07 9.25 9.25 0 0 0 5.89 1.68 14 14 0 0 0 12.2-5.75c2.1-2.24 6.17-3.08 8 0l.7.7a14 14 0 0 1 1 4.63c0 2.66 0 4.35 2.24 5.33a6.59 6.59 0 0 0 7-.84s3.36-2.94 4.35 0a52.15 52.15 0 0 1 0 6.17 12.9 12.9 0 0 0 0 2.24c-.84 4.35-1.82 6.31-6 6.87a60.56 60.56 0 0 1-16.54-4.21 11.08 11.08 0 0 1-6.17-4.35c-1.54-2.8-3.5-6.17-5.75-6.59Zm-14 26.22c-1.68 0-6.45-.84-6.59-3.08S426.48 480 430 481c6.31 1.68 3.65 5.19.56 5.19Zm-52.71-15.42c-2.1 2.1-2.24 4.49-3.36 6.17a2.66 2.66 0 0 1-4.07 0c0-1-1.12-1.26-3.65-1.4s-3.08 0-3.93-1.82a4.07 4.07 0 0 1 0-4.63c1-1.4 3.36-1.54 5.33-1.4a10.94 10.94 0 0 0 5.89-2.24c2-1.12 4.07-1.68 5.33 0s.41 3.25-1.56 5.21Zm0 19.63a5.19 5.19 0 0 1-7.15 0c-2.1-2.24.7-6.17 3.22-7s3.93-.7 5.19 1 .55 4.21-1.28 5.89Zm-36.45-38.55c0 1 0 2.24-1.68 2.66a4.63 4.63 0 0 0-2.66 2.1 3.08 3.08 0 0 1-3.22 1.54c-1.12 0-1.12-1.12-2.38-2.66a4.07 4.07 0 0 1 0-4.91c.84-1.68 2.24-1.54 3.79-1.54a9.11 9.11 0 0 1 6.13 2.7Zm0-10.23a2.52 2.52 0 0 1-2.66 4.07c-3.08 0-3.08-3.08-3.65-4.77s2.1-4.07 6.59.7Zm-5.61 23.55c2.1 0 3.36-1 5.61-2.94s3.65 0 2.66 1.4a17.52 17.52 0 0 0-1 3.65 4.49 4.49 0 0 1-4.35 2c-2 0-3.36.84-5.19 2.24a3.79 3.79 0 0 1-5.19-1 2.8 2.8 0 0 1 1.23-3.77 10.65 10.65 0 0 1 6.22-1.7Zm2.8 14a5 5 0 0 1-4.91 3.36c-2 0-3.22-1.54-2-3.79a4.35 4.35 0 0 1 4.77-2.1 2.41 2.41 0 0 1 1.54 2.94Zm-9 23a6.59 6.59 0 0 1 3.93-2.52h3.65a3.65 3.65 0 0 1-.7 4.63 7.29 7.29 0 0 1-5.75 1.4c-2.52.7-2.52-1.26-1.68-3.08Zm6.17-8.83c-1.54 0-4.35 0-4.77-1.54a2.66 2.66 0 0 1 1.12-3.5c1.4-1 3.65-.84 5-1.54a17.66 17.66 0 0 0 3.36-2.66 5.33 5.33 0 0 1 4.35-1.26c1 0 1.82 1.26 1.54 3.22a10.94 10.94 0 0 1-3.36 4.77 15.14 15.14 0 0 1-7.29 2.94Zm8 3.79c0-.84 1.54-2 4.21-1.68s3.36 0 3.79-1a1.54 1.54 0 0 1 2.66 1c0 2.1-2.24 3.79-4.07 4.63s-4.07 2.38-6 1.12a2.66 2.66 0 0 1-1.15-3.59v-.06Zm7.54-18.9c-3.36 1.12-4.77-.84-6.45-2.38a2.8 2.8 0 0 1 .7-4.49c1.4-1 2.1-2.52 3.36-3.5a5.47 5.47 0 0 1 5.47-1.12c1.68 0 1.82 3.08 2.1 5.89s-2.38 5-5.75 6Zm-3.08-28c0-2.24 1.26-3.08 3.08-2.94a29.72 29.72 0 0 1 7.85 2.8c2.1 1.54 1.68 3.65 0 6.45s-4.07 1.54-7 1.82-2.66-2.1-2.52-4.07-1.26-1.54-2-3.65Zm11.36-9.81c-1 2.38-3.93 1-5.47.84s-2-2.24-1-3.93a3.36 3.36 0 0 1 3.93-1.82 3.5 3.5 0 0 1 2 5.33Zm-4.21-29.58a3.93 3.93 0 1 1 0-7.43c4.07 2.8 2.66 6.59-.56 7.85Zm-3.79 12.9c0 1.4 1 1.68 0 3.65s-2.38.84-4.63 0a6.87 6.87 0 0 1-2.8-7.43c1-2.66 2.52-1.68 4.35-1.26s2.52 3.79 2.52 5.47Zm3.5 61.41a7.71 7.71 0 0 1 5.47-5.61c2.8 0 3.93 1.12 4.07 2.52a9.25 9.25 0 0 1-5.19 7.57c-3.93 1.54-6-1-4.91-4.07Zm10.37-50.89c0-1.54 1.54-3.93 4.35 0a55 55 0 0 0 6.31 8.27 4.21 4.21 0 0 1-1.68 7c-2.66 0-5.33 0-6.73-2.52s-1.26-2.66-2-3.79a3.5 3.5 0 0 1-.84-3.79 7.85 7.85 0 0 0 .64-5.22Zm12.34-14a59.72 59.72 0 0 1 6.17 2.38c2.66 1.4 1.68 3.93-.84 6.59s-2 4.91-3.93 5.89-3.08-2.24-2.8-3.93a10 10 0 0 0-1.54-6.45c-1.22-3.15 1.16-4.55 2.98-4.55Zm-12.62 37.85a32.38 32.38 0 0 0 5.89-2.38c2-.7 3.22 0 3.65 1.26s-1.12 2.38-3.08 2.38-2.52 1.12-3.36 2.24-4.49.7-4.49.7-1.54-3.93 1.4-4.35Zm16.31-4.23c2.8-1.54 4.07-3.36 4.21-4.77s1-4.07 3.65-2.8 0 7.85 0 7.85 0 5-2.52 5.19a8.83 8.83 0 0 1-5.89-1.12c-2-1.12-2.24-2.94.56-4.49Zm14.72-14.72c-2 1.82-5.33 0-5.33 0-2.52 0-3.79-1.68-3.65-2.94s0-2.24 2.52-3.08 3.08-2.1 4.07 0 4.07 4.35 2.38 5.89Zm3.22 9.81c2 1.26 1 6.31-2 6.45s-2.66-3.22-1.82-5.33a2.52 2.52 0 0 1 3.79-1.82Zm-13.32 24.25a7.43 7.43 0 0 1 6 0c1.82.84 2.8 1.4 2.52 2.52s-3.65 1.12-4.91 2-1.54 1.54-3.08 1.68-2.8 0-2.38-1.82.28-3.65 1.82-4.49Zm5.75-10.94c.84-1.12 2.24-1.26 4.21-1.26s6.17 2.1 6.31 3.79-.84 2.24-6.31 2.24-5.76-3.96-4.21-4.8ZM401 428a3.93 3.93 0 0 1 4.77-1.68s5.19.7 6 2.38-2.38 1.82-3.5 2.38-1.68 2.38-4.77 2.1-3.08-4.21-2.94-5.47Zm1.54-33.93c1-2.8 2.38-2.24 4.35-1.12s2.1 7.57 1.68 10.23a3.93 3.93 0 0 1-6.59 2c-3.36-2.38-1-8.69.14-11.36Zm4.07 57.48c2.24-1.12 4.63-1 4.77.7a5.75 5.75 0 0 1 0 2.52c0 2.24 0 4.21-2.66 5.19s-3.93 1-4.63 0 0-2.38 0-3.93a3.93 3.93 0 0 1 2.48-4.45Zm.7 17.8a8.13 8.13 0 0 0 4.49-5.47c0-1.68 2.66-2.8 3.36-.84a10.37 10.37 0 0 1 0 7.15 5.89 5.89 0 0 1-5.61 3.65c-2.52 0-4.21.7-5.19 0s.42-3.22 3.22-4.49ZM412 443a4.91 4.91 0 0 1-5.33-2.1 4.21 4.21 0 0 1 .84-4.07 2.66 2.66 0 0 1 3.49-1.41l.29.15s3.5 1.4 5.19 1.82 1.4 2.24 0 2.66-2.24 2.1-4.21 2.94Zm-2.1-23.55c0-4.49 2.66-7.57 6.45-6.87 6.17 1.26 5.47 5.19 2.52 8s-9 3.5-8.69-1.12Zm8.41-32c2.8.84 2.8 4.77 0 8.13s-4.63 0-4.21-4.35 2.1-4.49 4.49-3.79Zm2.28-16.45c3.22-4.21 10.09 1.54 12.62 5s0 6-8.69 6.31-7.85-7.14-3.93-11.31Zm7.85 27.2c4.21 0 2.52 4.63 1.82 8.69-3.08 14-6.87 1.26-6.87 1.26-6.73-5.47 0-10.37 4.35-10Zm-3.79 39.68c1-2.24 2.52-2.1 4.21-1.54s3.5 4.21 0 5.89-5.89-2.24-4.91-4.35Zm25.52-49.07a5.33 5.33 0 0 1-8.27 2c-3.08-2.38 0-6.17.84-8.41s4.07-1.82 6.17 0a4.63 4.63 0 0 1 .56 6.45Zm0 38.69c0 4.77-4.07 4.91-6.73 2.94s-1.12-9.81-.84-13.18 2.8-3.36 5-1.26 2.8 6.87 2.38 11.5Zm-5-28.88a3.65 3.65 0 0 1 2 6c-1.68 2-4.35 2.8-6.17 0s.84-6.87 4.07-6Zm-1 43.18c2.94-1.4 5.75 1.54 5.75 4.49s-2.24 4.21-4.63 5a4.63 4.63 0 0 1-5.8-3q-.05-.16-.09-.33c-.7-2.94 1.54-4.77 4.63-6.17Zm14-38.83c-3.93.7-4.21-6.73-2.66-11.22s5.33-5 7.43-1a8.13 8.13 0 0 1-4.49 12.2ZM457 430a4.63 4.63 0 0 1 .61-6.51l.09-.07c1.82 0 3.08 0 3.65 2.38s-2 5.89-4.07 4.21Zm43.32-37.71c4.77 7.15-3.36 10.8-7.57 10.51s0-6.17.7-10.09 4.55-4.22 6.91-.44Zm-3.93-20c3.08-2.52 5.47 2.24 6.87 5.89s1.26 4.77-3.79 5-4.35-1.26-4.63-4.21-1.4-4.07 1.54-6.59Zm-4.35 34.07a3.22 3.22 0 0 1 2.44 3.85l-.06.21c-.84 1.82-2.8 2-5 1.82a2.8 2.8 0 0 1-1.68-4.49c1.13-1.46 2.95-1.46 4.35-1.46Zm-12.62-17.52c-5.75.7 0-9.67 2.52-12.76s4.63-1.68 5.75 2.8c2.94 8.83-2.38 9.53-8.27 10.37Zm5.75 14c-1.68 3.5-5.33 3.22-9.39-1.68s5.75-7.85 9-6.73 2.41 4.15.44 8.36Zm-2.52 20.89a3.65 3.65 0 0 1-5-4.07c0-2.66 1.82-4.91 5-3.65s3.41 6.41.05 7.67Zm-9.11 14c4.35 1.4 2.66 5.61.84 7.15a4.07 4.07 0 0 1-5.89-3.36c0-4.07 1.82-5.61 5-4.49Zm-3.93-18.23c1.68 0 2.94 0 3.65 2.24s-2.38 6.17-4.49 4.49a4.63 4.63 0 0 1 .84-7.43Zm3.79-8a2.52 2.52 0 0 1-3.36-2.66c0-1.68 1.26-2.24 3.36-2.24s3.65 2 3.22 3.08-1.4.7-3.22 1.12Zm0-42.9c-7.43-1.54-6.45-4.35-4.21-8.41s6.17-5.89 9-3.36c7.71 6 2.24 12.62-4.91 11.08Zm-2.66 5c2.1 0 3.65 1.4 4.49 4.07a4.77 4.77 0 0 1-3.08 5.89 5.47 5.47 0 0 1-6.45-2.24 5.61 5.61 0 0 1 1.26-6.17 6.87 6.87 0 0 1 3.65-2.24Zm19.91 87.9c-1.82 1.54-3.08-.84-3.22-2.24s.84-3.65 2.38-3.22 2.84 3.96.88 5.49Zm0-20.89c-.7-2.24 0-6.17 2.38-4.49a5.89 5.89 0 0 1 1.57 8.18l-.17.23c-1.22 1.02-2.76-1.79-3.74-3.89Zm3.5-11.22c-5.19 1-5.19-3.08-4.21-6.31s2.38-4.77 4.91-3.79a44.58 44.58 0 0 1 4.21 2.38c3.08 1.54.7 6.73-4.49 7.71Zm7.71-21.73a3.93 3.93 0 0 1 7 0c2.66 5.47-3.08 9.67-7.71 9s-.84-5.47 1.12-9Zm37.85-23.55a8.69 8.69 0 0 1-2.8 9.39c-1.68 1.4-2.66-1.68-3.5-4.91a4.07 4.07 0 0 0-5.75-3.22c-4.91 1.82-6-5.33-5.47-10s2.38-6.87 5.47-6 3.22 6.73 3.93 8.55 3.22 1.12 3.22 1.12 4.35-.84 5.33 5Zm119.17 22.15c2 2.52 2.38 4.49.84 6.59s-4.91 1.68-7.43.7a6.45 6.45 0 0 1-2.66-8.55c2.42-3.47 7.75-1.37 9.29 1.29Zm-5.19-18.23c1.4-1.26 3.5-1.26 4.07 1.12s0 3.5-2.1 5a2 2 0 0 1-3.22 0 4.77 4.77 0 0 1 1.54-6.45Zm-1.26 44.86c1.82-1.82 3.5-2.38 4.63 0s0 8.13-3.93 6.73-2-5.33-.42-7Zm-2.38-6.59c-5.47 3.79-7.71 0-7.85-5.33s2.38-5.19 5.89-4.21 7.57 5.47 2.24 9.25Zm-3.79-32.24c-1.54 5.33-4.35 1.82-8.13 0s-2.24-4.91 0-8.55 6.73-5.61 10.37-1.4-.56 4.49-2 9.67ZM635 380.78c-2.24.84-5.47-1.26-4.63-3.5s2.24-2.38 4.63-.84a2.38 2.38 0 0 1 .28 4.07Zm0 19.91c3.65 0 4.49 1.54 5.47 4.77a3.08 3.08 0 0 1-2.66 3.93 6.45 6.45 0 0 1-7.15-4.21c-.7-2.66.28-5.33 4.21-4.77Zm-11.22 32.39c-2.52-2.52 0-6.31 2.24-5.33a10.23 10.23 0 0 1 6.87 15c-3.08 6.59-7 5.19-6.31 1.26a12.62 12.62 0 0 0-2.94-11.22Zm-2.66 28c.7-1.12 3.36-1.68 4.07 0s-1.4 4.49-3.79 4.07-1.4-3.65-.42-4.77Zm-1.68-5c-2-1.12 0-3.08 1-3.79s3.79 0 3.93 1.12-2.8 3.22-5 2Zm11.5-40.38c0 4.07-2.8 6-9.39 3.93s.7-10.37 4.07-11.22 5.27 2.51 5.27 7.28Zm-11.08 21.87a7.57 7.57 0 0 1-5.33 12.06c-5.89 1.26-6.31-3.5-4.07-5s1.82-2.38 4.07-6.31 4.3-2.59 5.28-.76Zm-8.55-17.24c0 2.94-2.52 4.07-6.73 1.68a8.55 8.55 0 0 1-5-9.39 5 5 0 0 1 6.45-4.07c6.91 2.65 5.37 9.52 5.23 11.76ZM599.2 401a35.61 35.61 0 0 1-5.75 2.52 29.72 29.72 0 0 0-3.65 3.65 6.17 6.17 0 0 1-4.91 2c-1.26 0-2.38-1.4-2.24-3.5a11.64 11.64 0 0 1 3.36-6.17 14.72 14.72 0 0 1 8.27-3.93c2 0 5 0 5.89 1.12a2.94 2.94 0 0 1-1 4.77Zm-14-23c2.38-2.1 4.21 0 5 2.66a8.13 8.13 0 0 1-2.66 10.23c-5.75 3.36-4.07-2.1-4.07-2.1 2.1-4.77-.84-8.41 1.82-10.51Zm-2-7.57c-4.21-3.08 0-6.45 2.66-8.13a5.19 5.19 0 0 1 7 1.12c6.73 6.45-5.33 10.51-9.53 7.43Zm2.1-12.62c-6.87 0-6.17-2.8-2.94-9.11s6.87-2.94 9.53-.7.42 9.53-6.45 10.23Zm-2.8 78.37c3.93 3.65-1.26 9.81-4.77 8.83s-2.94-5.75-1.12-8.41 3.5-2.24 6 0Zm-21.73 5c-4.35-3.93 6.31-11.08 9.67-14s6.31 0 3.36 2.66-4.07 3.93-3.65 7.15c1.15 7.58-4.74 8.14-9.36 4.21Zm-2.52-42.06c-3.08-3.5 0-5.89 3.65-7a7.71 7.71 0 0 1 7.85 1.68c2 1.68 2.1 4.63-1.26 7.15a7 7 0 0 1-9.8-1.47l-.15-.21Zm10.23 19.07c-3.36 1-5.19-4.07-4.07-7.15a6.59 6.59 0 0 1 5.89-4.21c3.93-.84 2.8 0 6.17 2.52s3.5 7.15 0 7.15a23.27 23.27 0 0 0-7.71 1.82Zm8.69-30.28c-2.1 1.68-4.63-1.26-5.75-2.38s0-3.5 1.68-5.33a3.22 3.22 0 0 1 5.89 0 6.59 6.59 0 0 1-1.54 7.85Zm-9.67-36.73c-5-.7-3.93-7-2.38-10.37s3.65-3.93 7.71-2.38 4.63 2.8 4.21 7.29-4.21 6.17-9.25 5.61Zm1 8.69c4.63 0 8-2.66 6.31 5.75s-4.49 6.45-8.55 3.79-7-5.19-5.47-8 4.07-1.12 8-1.4Zm-6.17 12.9s3.36.84 3.65 5.89a8.69 8.69 0 0 1-5.47 9.11c-3.08 1.4-3.08-6.17-3.08-10s1.68-5 5.19-4.91Zm-7.57-16c-2.8 0-5.19-1.12-2.94-5.75s5.33-4.77 6.31-2.66c4.63 9-3.08 8.55-3.08 8.55Zm-2.52 14c0 3.22 0 6.17-4.35 5.33s-5.75-1.4-5.75-4.07 2.8-2.94 3.36-5.61 0-6.59 3.65-4.91 3.36 8 3.36 9.39Zm-1.26 23c-2.52 2.38-5.47-3.08-4.77-7.71s2.94-5.61 4.77-3.93a9.11 9.11 0 0 1 .28 11.78Zm-9.53-38a6.45 6.45 0 0 1-2.52-9.25c2-1.54 3.93-1.26 6 1.26s.28 9.25-3.22 8.13Zm-1.55 56.13c-2.8 1.54-3.36 4.35-7.15 5.47s-1.68-7.29.84-11.36 5.47-2 6.87 0a3.93 3.93 0 0 1-.28 6Zm-15.56-11.5c1.54-1.4 2.8-.7 3.36.7s0 1.26-1 5-4.07 5.89-7.57 5.33-2.1-5.19 0-6.45a15.14 15.14 0 0 0 5.47-4.49Zm-14-1c-4.63 0-4.49-5.61-2.1-8.41s3.65-2.8 7.43-1.54a5.47 5.47 0 0 1 4.07 5.89c.84 3.5-3.79 4.35-8.55 4.21Zm0-31.82a3.5 3.5 0 0 1 5.33 0 10 10 0 0 1 0 10.37c-2.38 3.22-5.89 2.52-6.87-1.12a8.27 8.27 0 0 1 1.82-9.11Zm-1.4-6.73c-5.33 2.66-5.89-2.1-4.21-7.85s2.66-5 8.27-5.75 5 1.26 5.75 5.75-4.35 5.61-9.53 8Zm-7 79.77c0-2 1.26-1.68 3.08-1.4s2 1.82 2.24 5-2 5.61-3.65 5.47-2.52-1.82-2-3.5a24.25 24.25 0 0 0 .56-5.47Zm3.5-17.66c-2-2.1 1.26-3.5 3.93-4.77s2.94-1 4.91.7 3.93 4.91 3.36 6.45-2.66.84-6.45 2.24-3.5-2.38-5.47-4.49Zm7.71 14.72c0-2.1 1.4-2.38 2.8-3.22a3.32 3.32 0 0 1 4.35 1.54 7.43 7.43 0 0 0 3.93 3.79c2.1.84 3.5 0 3.5 2.94s-4.21 3.22-6 3.5a11.22 11.22 0 0 1-6.87-2c-2.1-1.26-1.68-4.35-1.4-6.45Zm10-9.25c-1.54-3.5 0-7.29 3.93-6.17s3.36 2.8 7 2.66 4.21 2 3.22 3.5-1.82 1-5.47 3.08a5.75 5.75 0 0 1-8.41-2.94Zm12.06 16c2.66-3.5.84-8 4.49-9.39s6.87 1.12 7.85 4.91 2.1 5.75-4.35 9.81-10.37-1.4-7.71-5.19Zm8.83-17.8a7.29 7.29 0 0 1-1.39-10.22l.12-.16c2.24-2.66 3.79-.7 4.77 1.4a48.51 48.51 0 0 0 1.82 7c1.4 3.79-1.12 5.19-5 2.1Zm4.63-25.24c2.66-2.94 5.61 1.54 6.59 4.35a43.32 43.32 0 0 1 1.68 8.27c0 3.36-1.4 4.91-4.91 1.12s-5.19-10.65-3.08-13.6Zm3.08 30.42a15.14 15.14 0 0 0 2.94-5.47c0-2.24 2.66-3.65 3.79-2.1 2.66 3.93-1 8.13-3.93 10.09s-4.21-1-2.52-2.38Zm38.69 53a2.67 2.67 0 0 1 2.1 4.49c-1.82 2.1-6.17 1.54-6.73-1.12s1.54-3.65 4.91-3.22Zm-4.91-26.64c-1.68-2.24-1.26-4.35 0-9s3.79-7.43 7.15-3.79 1.26 11.36 1.26 11.36a5 5 0 0 1-8.13 1.54Zm2.1-29.16c0-4.77 2-7.15 5.19-6 7.85 2.66 6.73 7.71 2.66 11.78s-7.85-.42-7.57-5.61Zm12.62 5.19c1.4-2.8 3.08-2.38 4.07-1.54 7.71 7 0 10.8-4.49 9.81s-.84-5.47.7-8.13Zm0 11.78c3.08.84 2.66 3.93.84 5.47s-3.08-.84-3.36-2.1 1.54-3.65 3.22-3.22Zm-1.4 40.24a74.72 74.72 0 0 1 6.45-15.7 7.85 7.85 0 0 0 .7-1.12h5c5.75-1.26 7.43-2.52 9.39 1.68a11.22 11.22 0 0 0 13 6.87l-2.94 1.12a81 81 0 0 1-16 5.33 33.23 33.23 0 0 1-14 2.24h-2Zm29.86-18.65a5.61 5.61 0 0 1 9-2 5.47 5.47 0 0 1 0 4.91c-.84 2.8-9.53 1-8.27-2.8Zm8-14a3.65 3.65 0 0 1-5.19-3.93c0-2.66 2-4.91 5.19-3.79s4.07 7 .7 8.27Zm1.54-16c-2.38-2.52 0-7.29 4.21-3.65 9.25 8.41 4.21 14 1.4 12.76s-2.52-6-4.91-8.55Zm8.41 15.84c3.79-2.1 3.79-5.33 7-4.49s3.65 2.38 5.33 5 0 4.63-4.77 4.49-8.41 1.68-10.65 0 0-2.38 3.79-4.49Zm11.36 11.92c4.77 1.26 5.33 6.31 0 6s-10.65 0-9.81-2.52 5.47-4.35 10.8-2.94Zm-2.66 11.22s4.91-1.12 6.31 1.82-1.54 4.91-6.17 4.07-1.54-4.77.56-5.33Zm6.45-77c0-3.65-.84-10.65 3.79-6.73s10.94 16.82 1 14a5.75 5.75 0 0 1-4.07-6.73Zm6.87 38.55c4.63 6.17 3.79 12.9 0 14s-5.19-6.87-5.89-11.92 4.07-4.35 6.59-1.54Zm-1-13.18c2-1.68 4.07-1.26 6 1.26s0 9.11-3.36 8-4.07-7-2-8.69Zm7.15 25.8c0-4.91 2.66-3.22 5-2.66s3.22 5.33 0 7.71-4.07.42-4.35-4.49ZM685 397.18c2.66 1.68 3.5 5.47 0 6.87s-8.69-2-7.57-5.47 4.35-3.36 8.27-.84Zm5.33 19.77c1.82 3.36 0 5.89-6 3.22a27.2 27.2 0 0 0-12.33-1.26c-6.87 0-6.17-4.91-3.36-5.75l8.27-2.52a10.37 10.37 0 0 1 14.09 6.87Zm-17.38-31.82c1.54 0 2.8 0 3.65 2.38s-2.38 5.89-4.35 4.21a4.49 4.49 0 0 1 .38-6.33Zm-26.64-20.89c7.71-1.4 8.69 1 8.27 3.36s-5.33 1.26-5.19 3.65 4.63 6 7.57 3.5 7.43-3.79 9.25 0-4.35 8.41-9.25 6.59-3.65-2.1-10.65-4.91-7.85-10.93 0-12.2Zm-16.4-6.31A15.56 15.56 0 0 0 631 353a6.17 6.17 0 0 1 4.49-3.93c1.82 0 3.36 1.82 4.91 4.21a6.45 6.45 0 0 1-1.54 7.85c-2.38 2.66-4.77 1.82-7.15 1.4a3.08 3.08 0 0 1-1.82-4.77Zm-5.75 36.87c-4.49 0-8.27-3.93-5.75-5.61s5.61-3.79 9.67-1 .42 7.15-3.93 6.45Zm0-31.26a18.79 18.79 0 0 0 2.52 3.93 4.63 4.63 0 0 1-1.4 5.19 9 9 0 0 0-2 6.73 4.63 4.63 0 0 1-4.77 3.93 3.08 3.08 0 0 1-2.66-3.93 11.92 11.92 0 0 1 3.22-6.87 9.25 9.25 0 0 0 1.68-7.43c.28-3.5 3.22-3.65 3.79-1.68Zm-9.39-21.45c2.24-4.63 5.89-6.87 7-4.35 2.1 5.19-4.07 13-4.07 13-2.8 6.45-4.91-4.21-2.52-8.83Zm3.79 56.78a4.91 4.91 0 0 1-1.82 9.39c-5.47 0-8.41-5.47-6-8.55s4.21-3.36 8.27-1Zm-10.37-66.45a6 6 0 0 1 0 9.25c-4.07 3.08-7.71 0-7.71-4.35s4.21-7.85 8.13-5Zm-4.35 19.49a3.5 3.5 0 0 1 5.46 1.09 11.64 11.64 0 0 1-2.38 11.36c-3.36 2.66-6.73 0-6.87-3.5a8.41 8.41 0 0 1 4.21-9.11Zm2 28.88c2.52 5.75-2.66 6.17-5.33 9.25s-7 2-5.61-.84a11.78 11.78 0 0 0 0-8.69c-1-2.52-1.12-5 .84-6.17s7.85.42 10.51 6.31Zm-15.7-56.92a4.35 4.35 0 0 1 6.73 1.12 14 14 0 0 1-3.22 14 5 5 0 0 1-8.55-4.07 10.65 10.65 0 0 1 4.99-11.06Zm-14-6.17a5.33 5.33 0 0 1 3.22-1.26 4.49 4.49 0 0 1 4.21 3.5 4.63 4.63 0 0 1-2.8 5.33 5 5 0 0 1-5.89-2.1 4.49 4.49 0 0 1 1.68-5.47Zm-3.08 10c1.54 1.26 2 3.08 0 4.35a4.49 4.49 0 0 1-5.47 0s-2.1-1.68 0-3.22a4.91 4.91 0 0 1 5.89-1.12Zm-11.92-15c4.21 0 7.29 0 7.85 3.22a6.45 6.45 0 0 1-2.94 7c-3.08 2.38-7.43 5.47-8.69 1.26s.14-11.78 4.21-11.5Zm-4.21 18.79c3.22 4.91 1.12 7.43-2.8 10.94s-5.19-1.12-7-4.63-2-5.33 2.52-7.71 5.75-1.54 7.71 1.4Zm-10.09-22.15c2.38 0 3.22.7 5.47 2.66s0 4.63-1.54 4.07-4.77 1.68-6.87 1.82-2.1-1-3.36-3.5 3.56-5.11 6.23-5.11Zm-5.19 14a3.22 3.22 0 0 1 1.82 4.07c0 2-2.52 3.79-3.36 5.47a26.92 26.92 0 0 0-.84 5 7 7 0 0 1-2.94 4.49 3.22 3.22 0 0 1-3.93-1.54 12.06 12.06 0 0 1 0-7 15.14 15.14 0 0 1 4.63-8c.56-2 3.36-3.65 4.63-3.65Zm-11.36-14c1.4-1 3.36-1.12 3.93 1.26s0 3.5-1.82 5a2.1 2.1 0 0 1-3.36 0 4.77 4.77 0 0 1 1.26-7.43ZM528 357.79c.7-3.65 3.36-5.61 6.17-3.65a6.31 6.31 0 0 1-1.4 10.09c-4.63 1-5.47-3.79-4.77-7.71Zm-15.14-28.46s9-4.63 5.33-6.31-2.24-10.65-1-14.86 4.21-3.08 5.89-1.82 1.26 7.15 1.12 10.37a10.8 10.8 0 0 1-1.68 6.31c-1.54 2.38-1.54 2.1 2.52 3.5s-.84 7-3.22 8.69-3.93 7.71-8.13 4.35a6.87 6.87 0 0 1-.84-10.23Zm-9-22.71a3.65 3.65 0 0 1 6.59 1.26 7.57 7.57 0 0 1-1.4 8.13 2.94 2.94 0 0 1-4.63 0 9.25 9.25 0 0 1-.55-9.4Zm0 16.12a13.67 13.67 0 0 1-1.54 6.73 13.18 13.18 0 0 0-1.4 10.65c.7 5.47-.84 9.81-5.33 5.89s-5.61-8.13-3.93-10.8A80.47 80.47 0 0 0 496.3 325c2.1-3.79 6-5.61 7.57-2.8Zm-13.18-16.54c4.07-2.1 4.35 3.36 5 6.45s-.7 3.93-2 3.93c-10-.29-6.49-8.42-2.99-10.39Zm3.36 45c4.77 5.61 3.93 8.27-1.82 7.43s-11.08-3.08-7.15-7.43a5.33 5.33 0 0 1 9.39 0Zm-10.37-11.08a51.73 51.73 0 0 0-4.07 7c-1.4 2.1-2.94 2.8-4.63 1.54s-.84-3.36 1.12-4.63a5.75 5.75 0 0 0 2-5c0-3.36 3.08-4.77 4.77-3.93a2.94 2.94 0 0 1 1.26 5Zm-2.94-32c2.1 1.26 2.24 2.38 2.1 4.91a2.1 2.1 0 0 1-2.66 2 4.91 4.91 0 0 1-3.5-4.49 2.88 2.88 0 0 1 4.07-2.38Zm-3.08 15.56c4.21 1.26 3.65 5.33 1 7.29s-4.07-1-4.35-2.8 1.12-4.49 3.36-3.93ZM471.9 341c-1.26 1.12-4.35 0-4.35-2.66s1.26-3.65 3.93-2.66 2 4.77.42 5.89Zm-6.87-28c1.4-1.82 4.77-3.93 6.17.7 0 2 2.38 6.73 0 7.43a4.21 4.21 0 0 1-5.33-1.4c-1.12-1-2.38-4.49-.84-6.31Zm-11.22 0c2.94-2.52 5.33 2.24 5.75 4.91a33.79 33.79 0 0 1 0 8.41c0 3.08-2 4.35-4.77 0s-4.07-10.65-1-13Zm4.77 28s.7 1.82 5.19 4.91-1.26 7.15-4.21 6.59-4.07-1.4-7.43.84-8.55 3.79-8.41-2.52 5.33-7.29 7-9 7-4.07 7.85-.7Zm-11.64-20.19c6.87 14-2.1 16.82-2.52 12.76a134.45 134.45 0 0 0-2.94-14c-1-3.5 2.94-3.65 5.47 1.4ZM436.86 370c.84-4.49 2.66-4.21 4.49-5.19a11.64 11.64 0 0 1 12.76.84c3.65 2.52-.7 4.35-3.08 8.27s-3.79 0-8.69 1.4-6.17-.7-5.47-5.19Zm-1.54 57.2c-3.36 5.47-8.83 1.82-10.37-1.26a5.89 5.89 0 0 1 7-7.29c4.63 1.68 6.17 4.35 3.36 8.69Zm-4.63-103.32c.84-1.68 2.38-2.8 4.07-1s1.68 2.94 1 5.33c0 0-1 2.38-2.94 1.26a4.63 4.63 0 0 1-2.1-5.47Zm-1.4 15.56c1.82-1.68 3.65-.7 4.77 1a45.7 45.7 0 0 1 2.24 9.39c0 2.8-2.52 3.65-6.17 3.93s-3.93-2.94-6-5.47 0-3.93 2.38-4.91 1.12-2 2.8-3.79Zm-4.77-12.34a7.15 7.15 0 0 1-1.54 8.41c-2.24 2.1-6.59-3.36-6.31-5.75s6-5.47 7.85-2.52Zm-4.35 28c4.91 1.54 6.73 5.19 2.94 8.83s-4.91-1.68-6.31-3.79-.56-6.17 3.79-5.19Zm-12.62-20.19c6.87-1.26 10.09 8.27 7.15 11.36s-6.73 4.21-8.55 0-5.61-10.09 1.4-11.5Zm-.84 42.09a10.09 10.09 0 0 1-6.71 8.4c-3.93 1.12-3.08-2.24-3.65-6a15.42 15.42 0 0 1 1.82-9c1.12-2.52 2.38-2.38 4.07-2.52 6.87-.56 4.35 5.19 4.35 8.83Zm-8.55-31.26c3.65 4.49 5.61 10.09 0 10.37a5.47 5.47 0 0 1-6.31-6.45q1.05-11.15 6.31-4.21Zm-4.63 62.39c2.66 1.68 3.36 9-1 7.29s-6.17 1-8.41 0-1-3.22 2.8-6 5.61-2 6.59-1.54ZM390 397.6c0 2.24 0 3.93-5 4.77s-1.68-5.61-.7-9.53 3.65-2.38 4.35-1a18.09 18.09 0 0 1 1.4 5.47Zm-11.5-40.1c1.54-2.66 3.93-2.94 7.29-1s3.65 10.23-.84 10.37-8.38-6.87-6.42-9.37Zm6.87 17.94a6.31 6.31 0 0 1 0 9.53c-4.07 3.22-7.85 0-7.85-4.35s3.65-8.13 7.57-5.19Zm-12.48-11.22a3.08 3.08 0 0 1 0 5.47 2.94 2.94 0 0 1-4.49-2.52c.6-2.94 1.86-3.92 4.53-2.94Zm-5.19 35.61a15.84 15.84 0 0 0 1.68-9.39c-1.26-4.21-1-5.61 2.38-2.52a15 15 0 0 1 4.07 6.45c1.68 3.65 1 5.89-3.5 7.29s-5.47-.14-4.63-2.1Zm-1.54 12.34c2.1 0 2.38 2.38 2.38 5.47s-1.12 2.8-3.93 5.47-3.36-1.82-4.21-3.79a4.91 4.91 0 0 1 1.4-5.33c1-1.54 2.66-1.54 4.35-2.1Zm-14-30.7c1.26-2.24 3.5-2.66 6.31-.84s3.08 8.83 0 9-8-6.17-6-8.41Zm-8.41 10.65c2-2.66 3.65-2.52 5.75-1.12a6.59 6.59 0 0 1 2.52 4.77c0 3.08-1.4 4.07-4.21 3.65s-3.93 1.4-6.17 0 .56-4.77 2.38-7.15Zm-3.65 15.28c2.8 1.54 3.5 5.19 0 6.59s-8.13-1.82-7-5.19 3.36-3.93 7.29-1.68Zm-12.48 12.9a4.07 4.07 0 0 1 5.19 1.68 76.69 76.69 0 0 0 7.57 7.15c2.8 2.1 3.5 2.38 3.65 4.21s-2.94 2.24-4.91 0a5.19 5.19 0 0 0-6-2.52 6.87 6.87 0 0 1-6.32-3.82 4.49 4.49 0 0 1 .84-6.73Zm-7.41 16.7c1.26-2.52 4.49-2.24 7.57 0s4.07 5.61 1.54 6-2.1 3.93-3.93 4.77-5-1.68-6-3.36a9.81 9.81 0 0 1 .82-7.41Zm-1.4 53.41c-2.1-.84-3.22-2-2.1-5.61a14 14 0 0 1 5.75-6.45 1.68 1.68 0 0 1 2.94 0 16 16 0 0 1 1.12 2.8 5.33 5.33 0 0 1-1 3.93c-.84 1.68 0 2.1 0 3.93s-4.47 2.52-6.71 1.4Zm2.8 14c-1.12 2.38-4.91 4.35-6.59 6.17s-5.61 4.07-7.43 2.38a4.63 4.63 0 0 1 2.66-7.15c2.8-.84 3.5-4.21 5.75-5.75s7.44.02 5.61 4.37ZM313.76 454c0-2.24 1.54-2.94 4.35 0s2.66 2.38 3.5 3.36 1.68 2.66 1 3.65a5.47 5.47 0 0 1-4.49 2.1c-2.94 0-5.19-.84-5.61-3.22s1.49-3.69 1.25-5.89Zm-4.35 17.24c1.68-1.4 2.52-1.4 5.47-1.4s3.22 2.8 1.4 3.5-2.24 3.79-3.5 5.33-2.1 0-4.63 0-.55-5.92 1.27-7.47Zm-3.36 20.47c0-1.82.84-2.24 2.8-2.66s1.68.84 2 2.1.7 1.12 1.12 2a1.68 1.68 0 0 1 0 2.24 3.93 3.93 0 0 1-3.5.84 3.5 3.5 0 0 1-2.44-4.32Zm413.72 24.53c-1 114.59-94.7 206.67-209.28 205.68a207.49 207.49 0 0 1-205.56-200.11 1.82 1.82 0 0 0 0-.84 29.58 29.58 0 0 0 11.22-5.19c6.31-5 8.83-4.91 14-3.93a11.78 11.78 0 0 0 10.37-2 11.22 11.22 0 0 1 7.15-3.22 18.65 18.65 0 0 0 9.53-5c3.08-2.8 7-6 10.8-4.91a17.1 17.1 0 0 0 10.37.84 18.37 18.37 0 0 0 8.13-6.59 18.51 18.51 0 0 1 8.69-8.27l9-1.54a129.68 129.68 0 0 1 15.7 9.25c6.45 3.08 12.62 6.45 19.07 8.83a167.39 167.39 0 0 1 17.38 6.17c5.47 2.94 2.8 1.12 6.17 3.79 0 0 3.93 2.52 3.79 4.35a16.82 16.82 0 0 0 0 4.77c-1.12 5.89-1 10.65-1.82 12.9a21.45 21.45 0 0 0-1.4 6.87c0 3.36 0 4.91-1.12 7.43a19.35 19.35 0 0 1-2.66 5.89c-1 1.68-1.12 5.47-2.94 6.59a19.63 19.63 0 0 1-7.71 2.52 29.16 29.16 0 0 0-7.71 1.68 24 24 0 0 1-8.13 2.94 33.22 33.22 0 0 0-10.09 1.12 29.3 29.3 0 0 1-7.85.7 81.17 81.17 0 0 1-9.81-1.54 11.08 11.08 0 0 0-7 .84 3.36 3.36 0 0 0-1.4 4.49 7 7 0 0 0 6.17 3.79 36.17 36.17 0 0 0 9 .7h11.57a60.56 60.56 0 0 0 13.18-.84 72.9 72.9 0 0 1 11.5-2.94 20.33 20.33 0 0 1 6.31 0 32.25 32.25 0 0 1 6.87 2c1.4 0 8.13.84 11.36 1.12s7.57 0 10.94 0L498.4 573c7.71 0 6.59-6.17 2.94-7.15a31.82 31.82 0 0 0-7.43 1.12 16.12 16.12 0 0 1-11.08-2.66 8.27 8.27 0 0 1 0-7.85 15 15 0 0 0 0-10.23 10.37 10.37 0 0 1-.84-5.33 10.94 10.94 0 0 1 2-5 6.73 6.73 0 0 1 8.41-2.1 4.35 4.35 0 0 1 2 4.63c-.84 2.8-2.52 3.22-2.66 5.19s0 2.38 1.12 4.35a4.49 4.49 0 0 1 0 5.75c-2.8 3.08-.84 5.75 2 6.17a25.52 25.52 0 0 0 7.57-1.4 6 6 0 0 0 3.22-6.31c0-2.38-2.94-3.08 0-6s1.82-6.59 1.82-9.25 0-2.52 1.68-5.47-2-5.33-3.36-3.36-2.52-6.45-1.26-8a14 14 0 0 0 2.94-5.33c.84-2.52 1.4-1.4 0-4.77s-2.24-1.4-3.5-2-2-7.29-.84-11.78 3.22 0 6 4.35 2.8-5.19 2-8.69.84-10.51 0-14a14 14 0 0 1 0-10.65 44 44 0 0 0 1.4-13.18 7.85 7.85 0 0 1 8.83-3.08 20.61 20.61 0 0 1 0 4.35 16.82 16.82 0 0 1-2.1 7.29 5.89 5.89 0 0 0 1.12 7.15c1.4 0 .7 2.1 0 3.79s-1.4 3.65 0 4.49 0 0 0 4.07a14 14 0 0 1 0 5.47c0 3.79-1.12 7 1.54 7s4.77-1.26 5.61 1 1.82 6.87 3.79 5.75a6.59 6.59 0 0 0 3.65-6.73 79.21 79.21 0 0 1-1.8-12.6 42.06 42.06 0 0 1 0-10.23 16 16 0 0 0-.42-9.39c0-2.24-.84-4.07-1-5.61a14 14 0 0 0 10.09 2.94 1.68 1.68 0 0 1 0 1.4 7 7 0 0 0-1 7.71c1 2.24 5.19 3.36 2 7s-1 6.87 3.08 6.31 6.45 0 5.61 3.5 2.1 4.35 4.07 4.21c10 0 10 11.36 4.07 12.62a31.54 31.54 0 0 0-9.11 3.5c-3.08 1.4-3.5 7.15-2.38 9.39s2.66 3.65.84 6.31a6.73 6.73 0 0 0-.84 7.29 6.45 6.45 0 0 1 0 7.71 12.06 12.06 0 0 0-1.55 11.34c1.82 3.36 3.79 7.57 1.54 9.25s-2.52 1-6.17 0-5.75 0-7-2.8 2.52-2.52 2.24-6.31a36.73 36.73 0 0 1 0-3.93c0-3.93 3.08-7.43 1.68-12.06s2.66-5.75.84-9.39-5.33-4.35-5.75-7.85-1.12-6.31-5-6-.84 17.24-1.54 23.27a25.1 25.1 0 0 0 0 11.36 12.34 12.34 0 0 1 .84 6.45c0 5.19-2.38 5.47-1.26 8s0 4.07-2.94 4.21-6.59 1.68-7.29 4.49 3.08 2.94 5.33 2.24 8.13-2.24 10.23-.84a24.67 24.67 0 0 0 9 3.5c4.21 0 10.37 1.4 14 1.54a104.3 104.3 0 0 0 19.49-.84 48 48 0 0 1 19.35-1.68 64.35 64.35 0 0 0 14 4.21 162.77 162.77 0 0 1 16.54 0 100.1 100.1 0 0 0 17.94 1.54c3.65 0 7.57-.7 6.17-3.22s-3.65-2.24-8.13-4.07a20.61 20.61 0 0 0-13.32-3.22 94.63 94.63 0 0 1-12.9 1.26 25.24 25.24 0 0 1-10.94-4.91 28 28 0 0 0-14-3.93 78.09 78.09 0 0 1-17.94 1.4c-3.65-1-10.09-3.22-12.06-7.85a19.63 19.63 0 0 1-1.82-11.5 46.83 46.83 0 0 0 0-18.65 17.8 17.8 0 0 1 .84-5.75 20.47 20.47 0 0 1 4.49-7.15 20 20 0 0 1 9-2.94c4.35 0 9.11-1.54 14-2.24a183.38 183.38 0 0 0 30-6c5.89-2.24 10.37-4.49 15-6.17a88.6 88.6 0 0 1 13.32-3.22c1.26 3.22 6.45 6.31 15.7 2.66s13.18-3.65 17.38 2.1a16.4 16.4 0 0 0 13.18 8.27c5.75 1 9 0 10.8 4.63s3.5 8.55 9.53 7.71a18.23 18.23 0 0 1 9.39 2 1 1 0 0 0-.62.64Z" style="fill:#fff"/>
</svg>
