<?xml version="1.0" encoding="UTF-8"?>
<svg version="1.1" viewBox="0 0 1024 1024" xmlns="http://www.w3.org/2000/svg">
 <style type="text/css">.st0{fill:#ED1C24;}
	.st1{fill:none;stroke:#1DED7E;stroke-width:2;stroke-miterlimit:10;stroke-dasharray:2;}
	.st2{fill:none;stroke:#1DED7E;stroke-width:2;stroke-miterlimit:10;stroke-dasharray:2;}
	.st3{fill:none;stroke:#1D8CED;stroke-width:2;stroke-miterlimit:10;stroke-dasharray:2;}</style>
 <g id="Icon">
  <circle id="Background" class="st0" cx="512" cy="512" r="512" style="fill:#e6af32"/>
  <g transform="matrix(2.0556 0 0 2.0556 -287.33 -693.14)" fill="#fff">
   <path class="cls-2" d="m388.86 488.49c-73.42 14.44-132.94 69.93-132.94 123.94s59.52 86.09 132.94 71.65 132.94-69.88 132.94-123.93-59.52-86.1-132.94-71.66zm-2.62 188.79c-70.33 13.84-126.57-15.77-126.57-66.94s56.78-103.14 126.52-117.42c71.78-14.72 129.52 16.83 127.21 68.76-2.12 47.79-61.75 102.73-127.16 115.6z"/>
   <path class="cls-2" d="m396.66 622.34s5.25 0.14 9.08-2.16c6.17-3.7 14.28-10.42 25.78-26.58l-123.17 30.27z"/>
   <path class="cls-2" d="m332.24 550.07c5.91 2.13 25.11 8.87 35.8 16.13l1 0.72 79.8-1.25c0.14-0.19 3.08-5.36 4.81-8.69 1.91-3.66 2-6.79-0.13-8.87-2.35-2.26-6.15-2.62-13.83-2.62h-107.02c-0.85 0-3-0.15-3.38 1.61a1.9 1.9 0 0 0 0.47 1.63 6.44 6.44 0 0 0 2.48 1.34z"/>
   <path class="cls-2" d="m492.71 570.1c-1.77 0-118.61 1.84-120.42 1.91-1 0-1.26 0.26-1.26 1.31 0 8.48-11.27 16.62-26.54 23.91-16.11 7.68-36.33 15.33-46.85 19.2-2.5 0.92-7 2.51-8.44 3.24-1.15 0.59-2 1.5-1.59 2.55s1.54 1.59 5.53 0.53c1.79-0.47 3.8-1 6-1.54 20.18-5.25 57.15-14.51 93.15-23.5 37.28-9.31 74-17.36 101-22.22 2.12-0.38 3.86-1.52 3.77-3.13s-1.85-2.33-4.35-2.26z"/>
  </g>
 </g>
 <g id="Min_Guides_-_REMOVE_WHEN_FINISHED">
  <line class="st1" x1="256" x2="256" y1=".5" y2="1024"/>
  <line class="st1" x1="768" x2="768" y2="1024"/>
  <line class="st2" x1="1024" y1="256" y2="256"/>
  <line class="st2" x1="1024" y1="768" y2="768"/>
 </g>
 <g id="Max_Guides_-_REMOVE_WHEN_FINISHED">
  <line class="st3" x1="128" x2="128" y1=".5" y2="1024"/>
  <line class="st3" x1="896" x2="896" y1="1023.5"/>
 </g>
</svg>
