<svg xmlns="http://www.w3.org/2000/svg" viewBox="0 0 1024 1024">
  <circle cx="512" cy="512" r="512" style="fill:#e6af32"/>
  <path d="M580.3 303.89c-21.829.164-44.713 2.47-68.295 7.107-150.92 29.683-273.27 143.75-273.27 254.77s122.35 176.97 273.27 147.28c150.92-29.683 273.27-143.64 273.27-254.75 0-93.745-87.102-155.3-204.98-154.41zm-7.092 8.793c114.94-1.548 198.81 58.696 194.8 148.76-4.358 98.237-126.93 211.17-261.39 237.63-144.57 28.449-260.18-32.417-260.18-137.6s116.72-212.02 260.07-241.37c23.055-4.728 45.407-7.133 66.691-7.42zm-176.71 115.48c-1.747 0-6.166-.31-6.947 3.309a3.906 3.906 0 0 0 .967 3.351 13.238 13.238 0 0 0 5.097 2.754c12.15 4.379 51.616 18.233 73.59 33.156l2.057 1.48 164.04-2.57c.288-.39 6.332-11.016 9.889-17.86 3.926-7.524 4.11-13.96-.268-18.235-4.83-4.645-12.643-5.384-28.43-5.384h-219.99zm328.98 50.588c-3.638 0-243.81 3.782-247.54 3.926-2.055 0-2.59.535-2.59 2.693 0 17.431-23.168 34.163-54.557 49.148-33.116 15.787-74.68 31.514-96.305 39.47-5.139 1.89-14.388 5.159-17.348 6.66-2.364 1.212-4.112 3.081-3.27 5.24.844 2.158 3.166 3.268 11.368 1.09 3.68-.967 7.812-2.057 12.334-3.167 41.482-10.792 117.48-29.827 191.48-48.307 76.633-19.138 152.12-35.684 207.62-45.674 4.358-.78 7.933-3.126 7.748-6.435-.185-3.31-3.803-4.789-8.942-4.645zm-125.78 48.307-253.19 62.223 181.53-3.144s10.791.286 18.664-4.442c12.683-7.606 29.355-21.418 52.994-54.637z" style="fill:#fff"/>
</svg>
