<svg xmlns="http://www.w3.org/2000/svg" viewBox="0 0 1024 1024">
   <circle cx="512" cy="512" r="512" style="fill:#008fe8"/>
   <path d="m760.17 537-54-126.4 6.58-115.67 3.17-55.69L670.77 272l-77 56-74.87-20.57-6.9-1.94-6.94 1.91-74.87 20.6-77-56-45.11-32.81 3.17 55.69 6.58 115.67-54 126.45-7.83 18.26 15.49 12.56 96.08 77.89 31.08 25.2 18.31 55 3.4 10.22 9.24 4.9 70 37.15 12.43 6.6 12.43-6.6 70-37.15 9.23-4.9 3.4-10.22 18.3-55 31.08-25.2 96.08-77.89L768 555.26Zm-14.81 22.32-96.08 77.89L623 658.47l.88-17.88-.86 1.71-26.72 80.34-1.94 5.84-5.28 2.8-70 37.15-7.08 3.77-7.1-3.77-70-37.15-5.28-2.8-1.94-5.84L401 642.29l-.86-1.71.88 17.88-26.28-21.3-96.08-77.89-8.85-7.17 4.47-10.46 55.09-128.83-6.73-118.3-1.81-31.82 25.78 18.75 81.33 59.15 80.13-22 4-1.09 4 1.09 80.13 22 81.33-59.15 25.78-18.75-1.81 31.82-6.73 118.3 55.09 128.83 4.47 10.46Zm-9.53-11.72-56.11-131.28-39.51 11.78 23.69-26.35 22.3-106.35.1-1.73-87.15 63.38L512 333.12l-87.15 23.94-87.15-63.38 22.66 108.08 23.69 26.35-39.71-11.85v-.07l-56.18 131.37 96.08 77.89-2.72-55.21 33.36 66.07 27.12 81.6 61.31 32.55v-23.18l-22.51-12.51v-27l17.09-7.61 14.11-6.25 14.11 6.28 17.09 7.61v27l-22.52 12.51v23.18L582 717.91l27.14-81.61 33.36-66.07-2.73 55.21Zm-269.23 6.03-55.27-17-17.62-37.3 78.17 32.33 13.4 41.88Zm144.08-17-55.27 17-18.69 19.95 13.4-41.88 78.17-32.33Z" style="fill:#fff"/>
</svg>
