<svg xmlns="http://www.w3.org/2000/svg" viewBox="0 0 1024 1024">
   <circle cx="512" cy="512" r="512" style="fill:#3370ff"/>
   <path d="M452.66 735.98c129.21-.05 240.96-73.62 296.01-181.49-28.47 55.36-88.93 81.63-149.06 66.88-34.65-8.89-68.49-21.04-101.43-34.95-88.52-38.05-168.71-94.13-234.5-164.53-2.65-2.92-7.95-.95-7.87 3.1l.14 213.29v17.31c0 10.06 4.96 19.44 13.3 25.03a328.727 328.727 0 0 0 183.41 55.37v-.02Zm89.96-222.18-.08.08a705.434 705.434 0 0 0-194.67-217.69 4.554 4.554 0 0 1 2.71-8.21h241.67c9.13 0 17.78 4.13 23.52 11.24a330.672 330.672 0 0 1 59.66 114.96c-30.57 9.47-58.51 25.96-80.81 48.28-7.65 7.52-15.59 15.38-23.27 23-8.6 8.53-17.5 17.35-26.05 25.72l-.07.07-.07.07c-.83.84-1.68 1.67-2.54 2.48Zm-55.3 55.67c22.18-13.01 42.79-28.57 61.47-46.28l1.38-1.38c.96-.9 1.9-1.83 2.83-2.77 16.22-15.89 33.15-32.84 49.36-48.76 53.08-53.16 136.95-68.88 205.83-40.1l-7.52 8.74c-12.15 14.11-22.3 29.94-30.16 47.04l-6.3 12.56c-8.01 15.97-24.68 49.19-25.58 50.92-8.74 16.48-20.4 30.55-33.74 40.68l-.13.1c-1.85 1.45-3.84 2.81-5.96 4.26-18.58 12.7-42.04 19.7-66.07 19.7-7.53 0-15.09-.68-22.47-2.02-2.72-.54-5.29-1.04-7.85-1.66-22.19-5.75-45.25-13.11-68.54-21.88-10.76-4.05-22.21-8.68-34.06-13.76l-12.5-5.38Z" style="fill:#fff"/>
</svg>
