<svg xmlns="http://www.w3.org/2000/svg" viewBox="0 0 1024 1024">
   <circle cx="512" cy="512" r="512" style="fill:#0e76bc"/>
   <path d="m148.29 554.43 11.39 1.25v2.85H149c-7.12 0-12.4-2.19-15.84-6.58-3.44-4.4-5.16-12.23-5.16-23.5v-105.7h4.27v105.7c0 6.88.62 12.13 1.87 15.75s2.99 6.14 5.25 7.56c2.25 1.42 5.22 2.31 8.9 2.67Zm82.02-40.56h-43.42c0 10.68.92 18.98 2.76 24.91 1.84 5.93 5.13 10.23 9.88 12.9 4.74 2.67 11.57 4 20.46 4h32.74v2.85c-9.49.71-20.52 1.07-33.1 1.07-9.61 0-17.08-1.54-22.42-4.63h.01c-5.34-3.08-9.11-8.1-11.3-15.04-2.2-6.94-3.29-16.64-3.29-29.09s1.22-22.12 3.65-29 6.37-11.74 11.83-14.59c5.46-2.85 12.93-4.27 22.42-4.27 11.74 0 20.34 2.26 25.8 6.76 5.46 4.51 8.18 12.34 8.18 23.49 0 13.76-8.07 20.64-24.2 20.64Zm-43.41-3.92h43.42c7 0 12.07-1.25 15.21-3.74s4.72-6.82 4.72-12.99c0-6.88-.95-12.22-2.85-16.01-1.9-3.8-4.98-6.46-9.25-8.01-4.27-1.54-10.14-2.31-17.62-2.31-9.02 0-15.9 1.25-20.64 3.74s-8.1 6.76-10.05 12.81c-1.96 6.05-2.94 14.89-2.94 26.51Zm162.28-40.85c4.86 4.57 7.29 11.42 7.29 20.55v68.86h-2.85l-1.42-11.39c-.24.12-4.92 2.22-14.06 6.32-9.14 4.09-18.8 6.14-29 6.14-7 0-12.69-2.07-17.08-6.23v.02c-4.39-4.15-6.58-9.9-6.58-17.26v-5.52c0-7.71 2.43-13.82 7.29-18.33s11.86-6.76 21-6.76h38.43v-15.84c0-7.59-2.05-13.4-6.14-17.44-4.09-4.03-11.24-6.05-21.44-6.05h-30.25v-2.85l4.98-.18c11.5-.59 20.22-.89 26.16-.89 10.91 0 18.8 2.29 23.67 6.85Zm3.02 39.26-39.5 1.25c-8.07.24-13.91 2.26-17.53 6.05-3.62 3.8-5.43 8.78-5.43 14.95v4.63c0 7 2.02 12.1 6.05 15.3 4.03 3.2 8.72 4.8 14.06 4.8 4.27 0 9.55-.83 15.84-2.49 6.29-1.67 11.92-3.36 16.9-5.08 4.98-1.72 8.18-2.87 9.61-3.47v-35.94Zm103.21-41.74c-4.39-2.78-9.61-4.18-15.66-4.18-6.76 0-13.43 1.16-20.02 3.47s-12.73 5.36-18.42 9.16l-1.78-11.03h-2.49v94.49h4.27v-80.96c7.48-4.03 13.94-6.91 19.4-8.63 5.46-1.72 11.45-2.58 19.04-2.58s13.64 2.52 18.15 7.56c4.5 5.04 6.76 11.3 6.76 18.77v65.84h4.27v-65.84c0-5.34-1.16-10.32-3.47-14.95s-5.66-8.33-10.05-11.12Zm73.13-29.99h-14.06l-2.67 26.69-15.48 3.03v11.57h15.12l-.71 48.93c-.24 11.39 1.89 19.52 6.4 24.38h.01c4.51 4.87 11.68 7.3 21.53 7.3h14.41v-13.17l-11.74-1.07c-3.67-.35-6.73-1.78-9.16-4.27-2.43-2.5-3.65-6.95-3.65-13.35v-48.76h25.8v-14.59h-25.8v-26.69Zm68.32-10.48h-13.17c-2.13 0-3.2 1.06-3.2 3.2v14.95c0 .95.29 1.69.89 2.22.59.54 1.36.81 2.31.81h13.17c1.9 0 2.85-1.01 2.85-3.03v-14.95c0-.94-.24-1.71-.71-2.31-.48-.59-1.19-.89-2.14-.89ZM581.2 558.53h17.79v-95.2H581.2v95.2Zm165.13-96.8c-6.05 0-12.49 1.39-19.31 4.18-6.82 2.79-12.61 6.02-17.35 9.7-2.38-4.27-5.64-7.65-9.79-10.14-4.16-2.49-9.08-3.74-14.77-3.74-6.65 0-12.72 1.06-18.24 3.2-5.51 2.14-10.94 5.04-16.28 8.72l-3.56-10.32h-14.22v95.2h17.79v-72.06c4.86-2.84 9.34-4.98 13.43-6.4 4.09-1.43 8.63-2.14 13.61-2.14 5.58 0 9.97 1.69 13.17 5.07s4.8 7.92 4.8 13.61v61.92h17.79v-61.74c0-3.08-.47-6.23-1.42-9.43 4.51-2.85 9.23-5.13 14.15-6.85 4.92-1.72 9.64-2.58 14.15-2.58 5.58 0 10 1.69 13.26 5.07s4.89 7.92 4.89 13.61v61.92h17.79v-63.52c0-10.2-2.43-18.3-7.29-24.29-4.87-5.99-12.4-8.99-22.6-8.99Zm-113.53 1.6Zm215.32-.58c-26.44.01-47.88 21.45-47.88 47.89s21.44 47.88 47.88 47.88v-13.08h-.09c-19.31 0-34.96-15.65-34.96-34.96s15.65-34.96 34.96-34.96 34.96 15.65 34.96 34.96c0 1.63-.15 3.22-.37 4.79 4.47.01 8.87.06 12.9.14.23-1.72.4-3.1.48-4.78 0-26.44-21.44-47.88-47.88-47.88Zm2.3 15.89h-4.79v36.76h26.01v-4.49h-21.22v-32.27Z" style="fill:#fff"/>
</svg>
