<svg xmlns="http://www.w3.org/2000/svg" viewBox="0 0 1024 1024">
   <circle cx="512" cy="512" r="512" style="fill:#83ae30"/>
   <path d="M279.42 581.63v-9.15a2.1 2.1 0 0 0-1.85-2.34h-38.3c-20.87 0-24.19-5.52-24.19-20.47V442.58a3.94 3.94 0 0 0-4-3.9h-10a3.94 3.94 0 0 0-3.94 3.9v107.08c0 32.46 20.87 36.61 41.92 36.61a325.31 325.31 0 0 0 38.38-1.77 2.81 2.81 0 0 0 2-2.75Zm40.79-.79V442.28a3.54 3.54 0 0 0-3.35-3.72h-11a3.54 3.54 0 0 0-3.54 3.53v138.75a3.75 3.75 0 0 0 3.54 3.94h10.83a3.75 3.75 0 0 0 3.54-3.94Zm125-36.33v-3.33a32.24 32.24 0 0 0-21.87-31.79 31.6 31.6 0 0 0 21-31v-3.05c0-29.8-26.36-38.07-57.66-38.07a288.54 288.54 0 0 0-31.3 1.59 6.38 6.38 0 0 0-6.28 7.29v131.18c0 4.91 2 6.68 6.5 7.29a231.61 231.61 0 0 0 32.06 1.77c30.72 0 57.47-8.66 57.47-41.64Zm-18.87-66.11c0 12.45-6.1 23.52-28.92 23.52h-30.33v-49c5.52-.18 12.81-.58 19.49-.58 24 0 39.66 4 39.66 22.91v3.05Zm.79 66.11c0 21.2-15.25 26.48-39.66 26.48-6.89 0-14-.58-20.47-.79v-53.9h30.32c23.22 0 29.71 12 29.71 24.89v3.33ZM552 582.39v-10a2.14 2.14 0 0 0-1.91-2.34h-38.34c-20.84 0-24.19-5.52-24.19-20.47v-33.11H548a4 4 0 0 0 4-3.94v-7.47a4 4 0 0 0-4-3.94h-60.4v-27.45c0-14.95 3.36-20.47 24.19-20.47h38a2.14 2.14 0 0 0 2.2-2.35V441a2.81 2.81 0 0 0-2-2.75c-8.27-.79-26.75-1.19-38.38-1.19-27.46 0-41.92 10.43-41.92 36.61v75.78c0 26.17 14.37 36.61 41.92 36.61 11.62 0 30.9-.21 38.38-1a2.81 2.81 0 0 0 2-2.78Zm127.7-.18a3.05 3.05 0 0 0-.61-1.77l-35.81-59.85c17.91-4.7 30.9-17.69 30.9-39.66v-1.37c0-31.88-24-42.31-55.09-42.31-11.41 0-26.17.61-34.65 1.59-3.54.4-4.73 1.56-4.73 4.33v137.76a3.75 3.75 0 0 0 3.56 3.93h10.63a3.75 3.75 0 0 0 3.54-3.94V523c10.43.4 15.25.58 21.66.58h5.09l35.23 58.66a4.64 4.64 0 0 0 5.12 2.56h12.6a2.5 2.5 0 0 0 2.56-2.44s0-.08 0-.12Zm-23.23-101.37c0 21.35-13.21 27.46-37.4 27.46-4.55 0-13-.18-21.66-.4v-54c4.73-.61 15.56-.61 21.66-.61 24.59 0 37.4 6.5 37.4 26.17Zm143.2 43.5V499c0-43.68-22.24-61.81-53.14-61.81S693.2 455.27 693.2 499v25.38c0 43.68 22.42 61.81 53.32 61.81s53.15-18.19 53.15-61.85Zm-18.09 0c0 33.07-13.58 45.76-35.05 45.76s-35.2-12.6-35.2-45.76V499c0-33.07 13.76-45.76 35.2-45.76s35.05 12.6 35.05 45.76ZM821 554.42a32.52 32.52 0 1 1 32.52 32.52h-.06a32.52 32.52 0 0 1-32.52-32.52h.06Z" style="fill:#fff"/>
</svg>
