<svg xmlns="http://www.w3.org/2000/svg" viewBox="0 0 1024 1024">
   <circle cx="512" cy="512" r="512" style="fill:#14ae5c"/>
   <path d="m476.48 399.78 25 31.25 27.5-23.75s38.75-33.75 43.75-37.5l15-11.25c21.25-15 41.25-30 63.75-45s43.75-28.75 65-43.75c11.25-7.5 72.51-42.5 72.51-42.5-5.3-.49-10.61-.76-15.93-.81-9.07-.09-18.45.5-27.82 2.06-13.75 1.25-28.75 3.75-42.5 6.25-27.5 6.25-55 15-81.26 27.5-13.75 6.25-26.25 12.5-38.75 20s-25 15-36.25 23.75c-9.56 7.06-39.04 34.04-42.31 37.66l-12.7-10.16c-13.75-10-27.5-18.75-41.25-26.25-15-7.5-30-15-45-20-16.25-5-32.5-8.75-48.75-8.75 12.5 8.75 25 18.75 36.25 30 11.25 10 21.25 21.25 31.25 32.5l30 33.75m-70.01-4.89c-82.51 56.25-116.25 162.52-81.26 256.27l80.01-33.75c-5-13.75-7.5-28.75-7.5-42.5 0-46.25 25-90.01 63.75-113.76l-55-66.26Zm256.27 5-75.01 55c25 12.5 46.25 32.5 58.76 56.25l78.76-33.75c-13.75-30-35-56.25-62.5-77.5Zm72.51 95.01-78.76 33.75c22.5 62.5-3.75 132.51-62.51 163.76l33.75 78.76c75.01-36.25 122.51-112.51 122.51-196.27 0-27.5-5-55-15-80.01ZM388.96 609.92l-78.76 33.75c48.75 103.76 170.01 152.51 277.52 111.26l-33.75-78.76c-15 5-30 7.5-46.25 7.5-50 0-96.26-28.75-118.76-73.76Z" style="fill:#fff"/>
</svg>
