<svg xmlns="http://www.w3.org/2000/svg" viewBox="0 0 1024 1024">
   <circle cx="512" cy="512" r="512"/>
   <path d="M152.23 576.11c9.88.61 173.49 11.09 359.77 12.04 186.28-.95 349.89-11.43 359.77-12.04 19.64-2.14 24.23-10.85 24.23-24.23v-79.76c0-13.39-4.59-22.09-24.23-24.23-9.88-.61-173.49-11.09-359.77-12.04-186.28.95-349.89 11.43-359.77 12.04-19.64 2.14-24.23 10.85-24.23 24.23v79.76c0 13.38 4.59 22.09 24.23 24.23Zm679.96-53.14c-.27-5.91-12.59-8.99-27.72-8.59-15.14.4-27.14 4.11-26.86 10.02.27 5.91 12.57 8.73 27.71 8.34 15.13-.4 27.15-3.86 26.87-9.77Zm21.92-41.62c1.99-.05-9.91 16.5-9.91 16.5s-13.01-7.34-34.1-6.79c-22.58.59-40.18 6.6-39.87 18.8 12.65-5.87 24.71-8.08 41.09-8.51 26.05-.68 53.45 6.15 54.15 21.24.74 16.1-31.22 23.23-57.76 23.93-41.93 1.1-71.43-8.32-72.49-31.21-.97-20.87 31.64-35.46 71.09-36.49 15.63-.41 26.34.19 33.83 1 7.49.81 11.75 1.58 13.98 1.52ZM664.06 533.8h-73.15v-14.23h68.24v-13.61h-68.24v-12.63h71.92l-2.93-13.52H547.32v67.51h115l1.75-13.52Zm-147.91 16.68 13.51-3.23v-67.51h-40.73v36.93l-76.6-39.98-13.19 3.05v67.51h40.73v-35.7l76.28 38.92Zm-214.52-57.13h19.19v40.29h-19.19l-1.85 13.61h85.85l-1.85-13.61h-19.37v-40.29h19.37l1.85-13.61h-85.85l1.85 13.61Zm-14.65 53.9v-18.76l-34.37 5.25h-35.19v-53.99h-43.6v67.51h113.15Zm403.57 28.84c-53.21 1.8-114.5 3.27-178.54 3.61-185.38-.99-340.76-11.42-350.61-12.03-19.76-1.67-24.23-3.03-24.23-24.23v-62.89c-.19-15.75.88-23.24 24.23-24.23 9.85-.61 165.23-11.04 350.61-12.03 64.26.34 125.75 1.82 179.08 3.63 15.22 40.97 13.76 87.14-.54 128.17Z" style="fill:#fff"/>
</svg>
