<svg xmlns="http://www.w3.org/2000/svg" viewBox="0 0 1024 1024">
   <circle cx="512" cy="512" r="512" style="fill:#1b8da0"/>
   <path d="m818.19 579.82-16.11-43.71H782.5v43.71h-31.96V452.39h60.48c21.74 0 40.52 0 40.52 42.34 0 17.18-4.7 28.71-14.37 35.24l-3.49 2.35L852 579.81h-33.81Zm-36.57-68.75v-29.94H804c4.41 0 14.71 0 14.71 14.96s-10.3 14.97-14.71 14.97h-22.38Zm-109.84 68.76V482.7h-31.21v-30.29h95.12v30.29h-31.21v97.13h-32.7Zm-92.88.75c-19.48 0-39.24-4.94-48.29-8.63l11.07-26.86c11.77 3.54 29.82 5.36 36.25 5.36 11.13 0 12.79-6.02 12.79-9.61 0-3.1-1.1-8.66-8.44-11.08-3.03-1.01-6.87-1.41-11.31-1.86-16.9-1.75-37.93-3.92-37.93-37.76 0-27.75 14.2-40.13 46.05-40.13 17.61 0 34.92 4.09 43.45 7.72l-9.55 26.67c-9.33-2.95-21.79-4.68-30.15-4.68-2.68 0-5.02.17-6.96.49-8.1 1.45-9.79 6.09-9.79 9.73 0 3.44 1.5 7.97 8.66 9.99 2.68.68 5.85 1 9.53 1.38 17.49 1.78 41.43 4.21 41.43 38.95 0 27.51-14.87 40.31-46.82 40.31Zm-109.47-.79h-60.75V452.44h56.9l5.46-.04c7.62 0 16.34.57 23.25 4.81 8.08 4.95 12 14.12 12 28.04 0 11.13-3.96 19.75-12.12 26.37l-6.11 5.74 7.68 3.94c11.9 4.06 14.41 16.22 14.41 25.7 0 28.86-16.94 32.84-35.25 32.84l-5.46-.04Zm-29.67-76.5h20.38c2.84 0 5.59-.11 8.07-1.46 2.26-1.24 4.95-3.91 4.95-9.62 0-11.08-9.46-11.08-13.03-11.08h-20.37v22.15Zm0 50.3v-22.16h20.36c3.57 0 13.04 0 13.04 11.08 0 5.71-2.7 8.38-4.97 9.62-2.47 1.35-5.23 1.46-8.07 1.46h-20.36Zm-111.1 29.99c-35.93 0-61.03-22.08-61.03-53.71 0-29.93 34.12-79.15 72.65-89.45-8.73 8.73-20.74 21.89-27.43 36.26-9.49 20.37-10.39 51.46-9.56 55.12l1.34 5.9 5.7-2.2c6.15-2.38 12.08-5.81 17.63-10.2a80.03 80.03 0 0 0 6.03-5.31c1.32-1.29 2.6-2.63 3.84-4 12.22-13.58 20.05-31.16 21.31-46.97 17.39 11.63 30.56 37.02 30.56 60.86 0 31.62-25.1 53.71-61.04 53.71ZM172 579.82V452.39h32.28v97.13h42.23v30.3H172Z" style="fill:#fff;fill-rule:evenodd"/>
</svg>
