<svg xmlns="http://www.w3.org/2000/svg" viewBox="0 0 1024 1024">
   <circle cx="512" cy="512" r="512" style="fill:#b51e23"/>
   <path d="M694.55 303.98c-10.51-10.29-24.73-15.98-39.4-15.98h-286.3c-30.64 0-55.6 24.52-55.6 54.72v267.26c0 5.04 1.09 10.07 3.28 14.67C328.57 648.29 376.72 725.34 512 784c135.93-59.1 183.43-135.49 195.47-159.35 2.19-4.6 3.28-9.63 3.28-14.67V342.72c0-14.67-5.91-28.46-16.2-38.74ZM565.84 606.92c-17.95 2.63-35.9 3.94-53.85 3.5-17.95 0-35.68-1.53-53.19-4.38 6.13-34.8 12.48-69.61 18.6-104.19-18.82-14.45-26.27-39.4-18.39-61.73 8.1-22.33 29.11-37.43 52.97-37.21h.22c23.86-.22 45.31 14.88 53.41 37.21 7.88 22.33.44 47.28-18.39 61.73 6.57 34.8 12.26 69.61 18.61 105.07Z" style="fill:#fff"/>
</svg>
