<svg xmlns="http://www.w3.org/2000/svg" viewBox="0 0 1024 1024">
   <circle cx="512" cy="512" r="512" style="fill:#00b8fc"/>
   <path d="M429.29 479.07v-20.85h-36.53c-6-2.13-12.32-3.24-18.69-3.28-31.52 0-56.32 24.14-56.32 55.62s24.8 55.62 56.32 55.62 56.3-24.13 56.3-55.54c0-10.64-2.84-21.07-8.53-28.83l7.45-2.74Zm-27.3 43.11a29.857 29.857 0 0 1-16.34 16.44 29.494 29.494 0 0 1-11.58 2.21c-5.96 0-11.78-1.78-16.73-5.11a30.267 30.267 0 0 1-11.09-13.6 30.386 30.386 0 0 1-1.71-17.5 30.34 30.34 0 0 1 8.24-15.51c4.21-4.24 9.58-7.12 15.42-8.29 5.84-1.17 11.9-.57 17.4 1.72 5.5 2.29 10.21 6.18 13.52 11.16a30.417 30.417 0 0 1 5.08 16.83c.05 3.99-.7 7.95-2.2 11.65Zm-149.5-67.07v-.12c-31.51 0-56.3 24.14-56.3 55.63s24.8 55.57 56.3 55.57 56.3-24.13 56.3-55.54-24.8-55.54-56.3-55.54Zm27.92 67.07c-1.5 3.7-3.71 7.06-6.52 9.88a29.96 29.96 0 0 1-9.82 6.56 29.494 29.494 0 0 1-11.58 2.21c-5.96 0-11.78-1.78-16.73-5.11a30.267 30.267 0 0 1-11.09-13.6 30.386 30.386 0 0 1-1.71-17.5 30.34 30.34 0 0 1 8.24-15.51c4.21-4.24 9.58-7.12 15.42-8.29 5.84-1.17 11.9-.57 17.4 1.72 5.5 2.29 10.21 6.18 13.52 11.16a30.417 30.417 0 0 1 5.08 16.83c.05 3.99-.7 7.95-2.2 11.65ZM159.99 413.84h26.02v149.27h-26.02V413.84Zm280.75 44.38h26.02v104.89h-26.02V458.22Zm-36.79 112.06h26.42c0 31.42-24.78 55.54-56.3 55.54s-56.32-24.05-56.32-55.54h26.44c-.05 3.96.7 7.89 2.18 11.56 1.49 3.67 3.69 7 6.47 9.8 2.78 2.8 6.1 5.01 9.74 6.51 3.65 1.49 7.55 2.24 11.49 2.2 3.94.04 7.84-.7 11.49-2.2 3.65-1.49 6.96-3.71 9.74-6.51 2.78-2.8 4.98-6.13 6.47-9.8a29.73 29.73 0 0 0 2.18-11.56Zm186.82-115.34c-31.31 0-55.1 24.14-55.1 56.23s21.75 55.02 55.5 55.02c18.71 0 35.37-6.97 47.57-20.04l-17.49-17.35c-8.53 8.18-17.69 14.12-29.46 14.12-14.24 0-25.02-8.18-28.66-21.88h81.1v-6.38c0-35.78-21.95-59.71-53.46-59.71Zm-28.26 44.79c3.46-13.9 14.02-21.68 27.64-21.68s23.79 7.57 27.04 21.68h-54.68Zm301.48 1.63v61.75h-26.02v-57.04c0-16.36-8.13-25.57-22.97-25.57-15.86 0-25.42 10.42-25.42 25.57v57.04h-26.02V413.84h26.02v54.36c4.04-4.3 8.93-7.7 14.36-9.99 5.43-2.28 11.27-3.4 17.15-3.27 24.81 0 42.9 17.39 42.9 46.42Zm-128.27 25.75 18.09 18.01a56.38 56.38 0 0 1-19.92 15.71 56.147 56.147 0 0 1-24.74 5.36c-31.51 0-56.3-24.13-56.3-55.62s24.8-55.62 56.3-55.62c8.52-.1 16.96 1.74 24.67 5.39 7.71 3.65 14.5 9.01 19.86 15.68l-18.09 17.99c-6.84-7.98-15.79-13.7-26.77-13.7l.07-.08c-16.88 0-29.68 13.09-29.68 30.29s12.75 30.29 29.48 30.29c11.18 0 20.35-5.92 27.04-13.7Zm-217.66-68.89h14.24v23.31h-14.24v81.58h-26.14v-81.58H477.9v-23.31h14.05v-32.31h26.1v32.31Zm-48.31-36.59c.87 2.14 1.3 4.43 1.27 6.74 0 4.61-1.82 9.03-5.06 12.29-3.24 3.26-7.64 5.09-12.22 5.09s-8.98-1.83-12.22-5.09a17.434 17.434 0 0 1-5.06-12.29c-.04-2.28.37-4.54 1.22-6.65.84-2.11 2.09-4.04 3.69-5.66a16.94 16.94 0 0 1 12.18-5.07c2.3-.06 4.58.35 6.71 1.2s4.08 2.13 5.71 3.75 2.92 3.56 3.79 5.7Z" style="fill:#fff"/>
</svg>
