<svg xmlns="http://www.w3.org/2000/svg" viewBox="0 0 1024 1024">
   <circle cx="512" cy="512" r="512" style="fill:#001f83"/>
   <path d="M698.6 504.77s.07-.06.11-.1m-235.08-60.92h-5.82c-2.07 0-4.01.8-5.47 2.26a7.667 7.667 0 0 0-2.27 5.48v72.11c-.22 21.22-16.91 36.62-39.7 36.62h-.11c-23.22 0-39.58-15.91-39.79-38.69v-70.04c0-2.07-.81-4.02-2.27-5.48a7.676 7.676 0 0 0-5.47-2.26h-.02l-5.83.02c-4.26.01-7.72 3.49-7.72 7.74v71.01c0 17.91 6.06 32.96 17.54 43.53 10.21 9.36 24.58 14.82 40.52 15.38h4.76c16.27-.28 30.99-5.63 41.45-15.07 11.73-10.58 17.93-25.76 17.93-43.89V451.5c0-4.26-3.47-7.74-7.73-7.74ZM313.72 558.78h-28.83c-23.05-.06-39.34-15.96-39.6-38.65v-68.64c0-4.27-3.47-7.74-7.74-7.74h-5.8c-4.27 0-7.74 3.47-7.74 7.74v69.61c0 18.13 6.2 33.31 17.93 43.89 10.46 9.44 25.18 14.79 41.47 15.07h30.32c4.27 0 7.74-3.47 7.74-7.74v-5.8c0-2.07-.81-4.01-2.27-5.47a7.703 7.703 0 0 0-5.47-2.27Zm464.31-46.79c.13-13.03-4.68-25.44-13.58-34.95-8.74-9.18-21-14.43-33.67-14.43h-.42c-26.96 0-47.29 21.07-47.29 49.02v.37c-.15 13.03 4.65 25.43 13.52 34.95 8.85 9.29 21.32 14.56 34.14 14.42 26.97 0 47.3-21.08 47.3-49.02v-.37Zm2.89-48.83c12.47 13.15 19.24 30.36 19.07 48.48v.36c.12 18.2-6.73 35.48-19.3 48.65-12.97 13.33-30.98 20.92-49.54 20.92h-.8c-19.58 0-37.42-7.36-50.26-20.72-12.49-13.15-19.28-30.36-19.13-48.49V512c-.14-18.19 6.7-35.47 19.24-48.65 13.19-13.55 31.57-21.15 50.47-20.91 19.56 0 37.41 7.36 50.24 20.72Zm-168.51-5.35c-10.21-9.36-24.59-14.82-40.53-15.38h-4.76c-16.27.28-30.99 5.63-41.45 15.07-11.73 10.58-17.93 25.76-17.93 43.89v70.97c0 4.26 3.47 7.73 7.73 7.74h5.82c2.06 0 4.01-.8 5.47-2.26a7.709 7.709 0 0 0 2.27-5.48v-72.11c.22-21.22 16.91-36.62 39.69-36.62h.11c23.22 0 39.58 15.91 39.79 38.69v70.04c0 2.07.81 4.02 2.28 5.48a7.757 7.757 0 0 0 5.49 2.26l5.83-.02c4.26-.01 7.71-3.48 7.71-7.74v-71.01c0-17.91-6.06-32.96-17.53-43.53Z" style="fill:#fff"/>
</svg>
