<svg xmlns="http://www.w3.org/2000/svg" viewBox="0 0 1024 1024">
   <circle cx="512" cy="512" r="512" style="fill:#5b9bd5"/>
   <path d="M163.54 490.24a26.55 26.55 0 0 1-3.39-23.83c2.49-7.07 6-14 11.26-19.38 7.95-8.05 17.29-14.67 24.49-23.45 11.82-14.09 21.84-29.57 33.62-43.7 6.19-7.66 13.68-14.81 23.47-17.4a63.34 63.34 0 0 1 9.1.13c1.48.49 3 1 4.48 1.38 6.49 3.39 8.66 11.11 8.48 17.93-.58 9.7-4.8 18.68-9 27.27-7.25 14.71-18.95 26.49-30.34 38-7.58 7.63-17.42 12.65-24.74 20.53-4 4.27-1.76 10.73 1.46 14.7 8.28 5.15 18.45 8 24.61 16 4.22 5.64 7.92 11.89 9.66 18.75 1.7 7.41-4.64 13.42-10.71 16.37-8.8 3.3-18.51 1.56-27.42-.44-5.43-1.24-9-5.83-13-9.38-11.44-10.31-23.06-20.79-32.03-33.48ZM640 543.33c-2 2.25-4.12 4.56-7 5.68-10.83 4.74-23.26 9.81-35 4.93 1.09 4.06 2 8.29 1.32 12.52-1.4 11.25-3.45 22.4-5 33.64 11 2.91 11.37 20.93 1.15 25.11-14.2.7-28.35 1.92-42.58 1.89-9.69 1.16-19.46 1.12-29.21 1.4-1.92 8.42-11.31 11-18.88 9.7-2.61-1.22-5.5-2.3-7.13-4.81-2.66-3.87-2.34-8.78-3-13.21-1.86-20.35-3.9-40.69-5.78-61a16.36 16.36 0 0 1 1-6.63c-7.17 4.2-15.34 9.29-24 7.39-7.31-3.27-7.95-14.76-.58-18.43a296.52 296.52 0 0 0 57-41.94c1-1.29 4-2.86 2.14-4.67q-9.67-10.1-18.34-21.07l-2.08.26c-8.28 7.76-16.13 16.82-27 21-6.42 3.1-14.89-2.92-13.87-10 .31-5.92 5.92-9.23 9.46-13.27 14.57-14.45 26.49-31.42 36.33-49.36 2.94-5.6 5.56-12.92 12.57-14.33 3.25-1.26 6.53.19 9.72.92 3 1.93 6.36 4 7.5 7.63.61 2.6.38 5.29.38 8 6.51-1.82 13.32-.87 19.94-1.9 7.12-1.13 14.38-.79 21.51-2 7.1.16 16.61 1 19.52 8.78 2.49 8.13-1.57 16.21-5.28 23.25-9 16-20.27 30.59-32.54 44.17 18.73 15.08 40.1 26.59 62 36.23 5.73 2.64 12.67 4.08 15.73 10.12Zm-98.61-64.07a129.9 129.9 0 0 0 20.11-25c.87-2.21 3.83-5.8.42-7.23-12.65.63-25.31 2.63-38 2.94-1.83 2.47-3.62 5-5.36 7.5 7.23 7.53 14.5 15.33 22.82 21.79Zm21.93 89.63c-8.16 1.58-16.53.83-24.71 2.22-6.19.64-12.41.58-18.61.79-.92 10.58 1.48 21.15 1.78 31.74 14.92-.1 29.73-1.95 44.66-2 1.18-8.81 2-17.68 2.91-26.52.65-3.6-2.25-7.12-6.04-6.24Zm19.36-25.34c-.57-.31-1.73-.93-2.3-1.25-12.05-9.13-24.3-18-35.87-27.75a273.15 273.15 0 0 1-41.38 30.38c3.57.58 7.16 1.32 10.27 3.26 23.09-1.55 46.13-3.9 69.27-4.64Zm218.71-107.4c11 10.77 21.47 22.11 31.76 33.57 4.22 5.07 11 5.41 17.09 4.3 5.21-2.86 10.43-7.34 11-13.67.83-6.54-2.79-12.66-7.54-16.85-11.57-10.5-24.39-19.5-37.46-28.06-4-2.44-8-5.7-13-5.44-6.26-.58-11.28 5.29-11.72 11.15.34 6.46 5.71 10.73 9.87 15ZM682.68 485.8c9 2.06 16.42-4.65 23.29-9.35 12.21-9.93 23.93-20.7 33.69-33.09 3.87-5.51 8.83-12.08 6.51-19.19-2.74-9.28-13.83-14-22.67-10.57-4.38 2-7 6.18-9.5 10.06a257.42 257.42 0 0 1-27.51 34.86c-3.83 4.4-8.3 8.52-10.49 14-1.95 5.4 1.56 11.41 6.68 13.28ZM413 438.83c7 6 14.13 11.89 20.9 18.16 5.89 5.84 17 6.44 22.5-.16 6.64-6.6 5.91-19.19-2.43-24.1-11.61-7-24-15.18-38-15.12-3.71 1.92-7.33 4.88-8 9.23-1.05 4.66 1.51 9.16 5.03 11.99Zm475.8 112.74a127.62 127.62 0 0 1-24.09 7.91c-3.75.83-7.45-1.06-10.49-3.08-4.31-3-8.56-6-12.6-9.33a36.43 36.43 0 0 1 1.67 16.63c-1.5 12.08-4.31 24-5.63 36.1 10.51 4.11 9.11 23.73-2.71 25-7.71 1-15.54.28-23.27 1.1-10.87 1.4-21.89.38-32.76 1.72-9.88 1-19.88.25-29.75 1.25l-1.47 1-.84-1.72a9.92 9.92 0 0 1-3.42 1.53c-3.59 7.76-12.81 9.67-20.55 8.52-2.59-1.24-5.46-2.33-7.16-4.77-3.17-4.26-3-9.87-3.52-14.9-2.4-22.48-4.53-45-6.93-67.43a168.63 168.63 0 0 1-19.76 12.4c-5.66 2.83-11.38 6.35-17.92 6.44-4.28-1.88-8.19-5.79-8-10.76-.31-5.35 4-9.17 8.08-11.88 34.07-23.39 64.53-52.7 86.45-87.9 2.87-4.33 5.54-9.51 10.77-11.34 10.19-4.46 24.13 5.5 20.62 16.94 13.4 15.21 29.76 27.49 46 39.56A408.27 408.27 0 0 0 884 537c3.75 2 7.74 4.11 10.25 7.71 1.33 3.69-2.73 5.61-5.45 6.86ZM810.2 566c-3.51-2-7.39-.83-11.15-.57-19.79.73-39.45 3.33-59.28 3.52-.79 11.53 1.8 23.07 2.4 34.6 3.9-.1 7.83-.07 11.73-.49 10-1.63 20.14-.32 30.13-1.86 7.58-.76 15.22-.45 22.83-.9 1.47-8.82 2.39-17.72 3.58-26.59a17.64 17.64 0 0 0-.24-7.71Zm20.08-27.85a447.68 447.68 0 0 1-54.58-50.4c-2.46-2.78-4.24 1.47-5.65 3.13a296.89 296.89 0 0 1-48.49 48.29c4.56.61 9.29 1.48 12.84 4.64 11.76-1 23.58-1.24 35.31-2.57 20.23-.41 40.29-3.51 60.57-3.06ZM417.86 508c5 4.38 10.13 10.31 17.44 9.75 10.48 0 18.1-12.62 13.65-22-3.16-6.93-10.83-9.89-17-13.61-8.64-4.26-18-9.89-28-7.79-6.74 2.85-8.94 12.68-3.8 18 5.45 5.74 12.02 10.23 17.71 15.65ZM450 536.77c-3.64 0-7.92-1-10.87 1.74-5 3.58-7.13 9.55-9.58 14.92-7 16.27-15.66 31.74-24.45 47.09-3.71 6-5.14 14.83.57 20.11 6.53 7.41 19.82 6.93 25.31-1.5 11.24-17 18.4-36.33 24.67-55.62 1.92-6.32 5-13.26 2.15-19.8-1.34-3.46-4.75-5.31-7.8-6.94Zm-193.91 42.6c-.71 3.23-3.75 5.07-5.79 7.46-14.2 14.84-28.47 29.64-41.7 45.37-5.52 6.79-8.08 17.55-17.74 19.68s-19.85 1.32-29.51-.6c-3.81-.8-8-2.62-9.72-6.38-.68-5.42 2.55-10.28 5.2-14.74 8.92-13.2 19.28-25.34 29.73-37.33 10.61-11.7 23.61-20.89 34.59-32.22 11.92-11.82 23.65-23.84 35.42-35.84 8.22-9.17 17.48-17.49 24.74-27.52a7.12 7.12 0 0 0 .64-6.56c-.44-1.32-2.55-2.3-2.55-2.3-8.29-3.31-15.34-9-22.91-13.66-6.68-4.29-14.19-10-14.32-18.75a9.23 9.23 0 0 1 7.64-10.53c10.54-1.12 21 1.1 31.46 1.6h14.81a33.1 33.1 0 0 1 4.8 0h.05a17.4 17.4 0 0 1 6.07 1.57c13.48 5.77 21.54 18.72 29.38 30.4 4.38 6.28 2.87 14.8-1.73 20.51-9.88 13.24-23.2 23.35-34.67 35.11-10 10.55-19.81 21.34-30.33 31.37 14-1.56 29.33 2.67 38.68 13.59 8.16 9.68 14 21 21 31.52 5.92 8.93 14.38 15.79 20.24 24.74 2.37 3.59 3.43 8.3 1.82 12.4-1.72 2.54-4.8 3.71-7.68 4.32-7 .81-14 .32-21 .06l-.95-.67c-11.35.79-19.36-8.72-24.07-17.84-10.93-20.43-31.32-34-41.54-54.82" style="fill:#fff"/>
</svg>
