<svg xmlns="http://www.w3.org/2000/svg" viewBox="0 0 1024 1024">
   <circle cx="512" cy="512" r="512" style="fill:#f06b66"/>
   <path d="M512 240c149.97 0 271.97 122.02 271.97 272 0 48.41-39.38 87.79-87.77 87.79-16.28 0-32.19-4.52-46.02-13.07l-1.26-.78-.72 1.3c-27.51 49.61-79.69 80.42-136.2 80.42-85.82 0-155.64-69.82-155.64-155.65S426.18 356.36 512 356.36s155.64 69.82 155.64 155.65c0 15.75 12.81 28.57 28.56 28.57s28.56-12.81 28.56-28.57c0-117.33-95.44-212.79-212.76-212.79S299.24 394.67 299.24 512 394.68 724.78 512 724.78c62.54 0 121.54-27.29 162.09-74.93l45.34 38.09C667.6 749.01 592.08 784.01 512 784.01c-149.97 0-271.97-122.02-271.97-272s122.01-272 271.97-272Zm0 175.57c-53.17 0-96.42 43.26-96.42 96.43s43.26 96.43 96.42 96.43 96.42-43.26 96.42-96.43-43.26-96.43-96.42-96.43Zm0 57.47c21.48 0 38.96 17.48 38.96 38.96s-17.48 38.96-38.96 38.96-38.96-17.48-38.96-38.96 17.48-38.96 38.96-38.96Z" data-name="04-Icons/Icons/Mailgun" style="fill:#fff"/>
</svg>
