<?xml version="1.0" encoding="UTF-8"?>
<svg version="1.1" viewBox="0 0 1024 1024" xmlns="http://www.w3.org/2000/svg">
 <circle cx="512" cy="512" r="512" style="fill:#98e738"/>
 <path d="m339.56 559.86 126.1-165.6c6.0772-10.635 6.0772-15.193-3.0386-24.309-1.5193-1.5193-4.5579-4.5579-6.0772-6.0772-6.0772-4.5579-9.1157-7.5964-16.712-6.0772 0 0-158.01 51.656-158.01 51.656-16.712 4.5579-25.828 16.712-25.828 34.944v75.964c0 12.154 3.0386 18.231 10.635 24.309l27.347 21.27c21.27 15.193 31.905 12.154 47.098-7.5964m343.36-94.196-126.1 165.6c-6.0772 10.635-6.0772 15.193 3.0386 24.309 1.5193 1.5193 4.5579 4.5579 6.0772 6.0772 6.0772 4.5579 9.1157 7.5964 16.712 6.0772l158.01-51.656c16.712-4.5579 25.828-16.712 25.828-34.944v-75.964c0-12.154-3.0386-18.231-10.635-24.309l-27.347-21.27c-21.27-15.193-31.905-12.154-47.098 7.5964m-123.06 218.78-165.6-126.1c-10.635-6.0772-15.193-6.0772-24.309 3.0386-1.5193 1.5193-4.5579 4.5579-6.0772 6.0772-4.5579 6.0772-7.5964 9.1157-6.0772 16.712l51.656 158.01c4.5579 16.712 16.712 25.828 34.944 25.828h75.964c12.154 0 18.231-3.0386 24.309-10.635l21.27-27.347c15.193-21.27 12.154-31.905-7.5964-47.098m-94.196-343.36 165.6 126.1c10.635 6.0772 15.193 6.0772 24.309-3.0386 1.5193-1.5193 4.5579-4.5579 6.0772-6.0772 4.5579-6.0772 7.5964-9.1157 6.0772-16.712l-51.656-158.01c-4.5579-16.712-16.712-25.828-34.944-25.828h-75.964c-12.154 0-18.231 3.0386-24.309 10.635l-21.27 27.347c-15.193 21.27-12.154 31.905 7.5964 47.098" style="fill:#19353f"/>
</svg>
