<svg xmlns="http://www.w3.org/2000/svg" viewBox="0 0 1024 1024">
   <circle cx="512" cy="512" r="512" style="fill:#357dbe"/>
   <path d="M287.24 341.72c-14.48 3.08-26.05 14.83-30.28 30.67L256 376v271.47l1 4a53.78 53.78 0 0 0 6.86 14.92 47.57 47.57 0 0 0 11.79 11c5.41 3.39 13.69 5.9 18.13 5.5l1.67-.13 69.7-119.47c38.33-65.7 70.45-120.53 71.33-121.81a27.86 27.86 0 0 1 14.87-10 34.82 34.82 0 0 1 13.16 0c6.73 1.76 13.95 7.52 16.85 13.47a26.7 26.7 0 0 1 1.45 19.8c-.62 1.94-21.43 37.89-63.81 110.45l-62.84 107.47 76.52.13h153.14l76.52-.13-28.73-46.07-28.78-46.07 14.61-25.3c8-13.91 14.65-25.21 14.79-25.13s20.46 32.26 45.11 71.51L724.21 683l5.5-.22c6.64-.31 9.42-1 15.18-3.83a41.38 41.38 0 0 0 20.42-23.15c2.86-7.88 2.68 1.94 2.68-144.07s.18-136.2-2.64-144c-5.72-15.8-21.3-27.24-36.3-26.67l-3.39.13L656 460.67c-38.33 65.7-70.58 120.71-71.68 122.2A25.74 25.74 0 0 1 562.05 593c-6.82-.31-11.93-2.64-16.94-7.66a25.24 25.24 0 0 1-5.06-29c.92-1.89 29.4-51 63.28-109.26L665 341.19l-76.57-.13H435.34l-76.57.13 29 46.07 29 46.07L402 458.64c-13.73 23.45-14.87 25.3-15.49 24.55-.35-.48-20.77-32.65-45.33-71.51L296.48 341h-3.08a33.06 33.06 0 0 0-6.16.72Zm262.27 89.68a30.22 30.22 0 0 1 11.09 5.72 28.71 28.71 0 0 1 7.4 11.45 26.66 26.66 0 0 1 .22 15.84c-.7 2.2-10.34 19.1-34.5 60.46-37.72 64.64-35.72 61.52-43 65.13-5.32 2.6-8.45 3.3-13.82 3a23.25 23.25 0 0 1-12.59-3.87c-10.83-7-15.23-21.12-10-32.08.7-1.5 16.15-28.21 34.37-59.36 31.6-54 33.22-56.72 36.22-59.67a24.83 24.83 0 0 1 11.31-6.56 34.84 34.84 0 0 1 13.3-.06Z" style="fill:#fff"/>
</svg>
