<svg xmlns="http://www.w3.org/2000/svg" viewBox="0 0 1024 1024">
   <circle cx="512" cy="512" r="512" style="fill:#fd354e"/>
   <path d="m754.5 532.3-84.8-145.6-2.5-3.8c-8.9-15.2-20.3-36.7-43.1-44.3-25.3-8.9-60.8-1.3-78.5 27.9L531.7 388l-20.3 38c-16.5-29.1-29.1-53.2-32.9-59.5-17.7-29.1-53.2-35.5-78.5-27.9-22.8 7.6-34.2 27.9-43.1 44.3l-87.4 149.4c-27.9 48.1-11.4 111.4 36.7 139.3l6.3 3.8c48.1 27.9 111.4 11.4 139.3-38L510 529.8c22.8 41.8 45.6 83.6 59.5 107.6 19 32.9 53.2 50.7 88.6 50.7 17.7 0 35.5-3.8 50.7-13.9l6.3-3.8c50.8-26.7 67.3-88.7 39.4-138.1zm-345.7 81.1c-13.9 24.1-45.6 32.9-69.6 19l-6.3-3.8c-24.1-13.9-32.9-45.6-19-69.6l84.8-147 2.5-5.1c3.8-6.3 10.1-19 13.9-20.3 1.3 0 3.8-1.3 5.1-1.3 5.1 0 11.4 1.3 13.9 6.3 5.1 7.6 24.1 43.1 48.1 86.1l-73.4 135.7zm282.4 15.1-6.3 3.8c-24.1 13.9-57 5.1-70.9-17.7-2.5-5.1-39.3-72.2-74.7-135.5l36.7-65.8 12.7-21.5c5.1-7.6 15.2-7.6 20.3-6.3 3.8 1.3 11.4 13.9 15.2 20.3l87.4 150.7c12.5 26.5 3.7 58.1-20.4 72z" style="fill:#fff"/>
</svg>
