<svg xmlns="http://www.w3.org/2000/svg" viewBox="0 0 1024 1024">
   <circle cx="512" cy="512" r="512" style="fill:#101010"/>
   <path d="M677.14 443.2a99.65 99.65 0 0 0-127.4-7.85 123.85 123.85 0 0 0-37.47 48.82c-3.71-6.53-6.69-12.35-10.12-17.83-34.25-55.2-99.62-66.66-150.72-26.55-36.71 28.83-54.16 84.91-41.05 131.79a220.54 220.54 0 0 0 52.14 87.62A629.91 629.91 0 0 0 508.8 775.39a9.52 9.52 0 0 0 8.07-.64A662.12 662.12 0 0 0 642.2 679.6a308.49 308.49 0 0 0 62.17-82.6 132.14 132.14 0 0 0-27.23-153.8ZM476.95 664.54a56.9 56.9 0 0 1 .93-6.61c5.47-21 10.78-42.09 16.68-63a8.15 8.15 0 0 0-2.71-10 29.74 29.74 0 0 1-9.55-34.43 31.49 31.49 0 0 1 28.16-21.5 32.46 32.46 0 0 1 30 17.58 29.82 29.82 0 0 1-5 35.3 13 13 0 0 0-4 15.43c6.08 20.6 11.21 41.44 16.7 62.19.39 1.4.56 3 .91 4.94Zm-83.07-398.27a23.29 23.29 0 0 1 19.64-17.51 22.42 22.42 0 0 1 24.56 15.06c3 8.37 1.28 15.57-6.68 26.21 9.13 8.6 18 17.77 27.81 25.88 8 6.67 12.25 6 17.56-2.9 7.48-12.45 14.16-25.41 20.63-38.43.85-1.71-.82-5.58-2.45-7.48a23.19 23.19 0 0 1 1.11-32.77q.66-.62 1.36-1.18a23 23 0 0 1 32.34 3.34 11.71 11.71 0 0 1 .76 1 22.64 22.64 0 0 1-1.93 29.25 7 7 0 0 0-1.75 9.79l.15.2c6.91 12.18 13.14 24.77 20.5 36.74 5.07 8.26 8.48 8.37 16.52 2.83a75.5 75.5 0 0 0 10.24-8.45c6.09-6 11.88-12.38 17.69-18.51-11.27-15.34-9.23-31 4.57-38.31a23 23 0 0 1 31 9.29 22.4 22.4 0 0 1-8.51 30.57q-.63.35-1.27.67a14.12 14.12 0 0 0-8.82 11.27c-5.24 21.63-11 43.11-16.35 64.7A11.06 11.06 0 0 1 580.4 377q-68.43 0-136.84.14a11.08 11.08 0 0 1-12.22-9.36c-5.58-22.08-11.54-44-16.93-66.16a12 12 0 0 0-7.68-9.44 22.84 22.84 0 0 1-12.85-25.91Z" style="fill:#fff"/>
</svg>
