<svg xmlns="http://www.w3.org/2000/svg" viewBox="0 0 1024 1024">
   <circle cx="512" cy="512" r="512" style="fill:#3498db"/>
   <path d="M648.57 733.72c.02-74.55.03-149.09 0-223.64.37-5.5-3.91-10.87-9.45-11.44-4.87-1-9.9 1.56-12.24 5.85-30.07 48.54-60.31 96.97-90.26 145.58-16.41.08-32.81.07-49.23 0-29.95-48.59-60.17-97.02-90.24-145.57-2.37-4.36-7.51-6.92-12.43-5.84-5.5.64-9.65 6-9.28 11.44-.02 74.53-.02 149.06 0 223.59-33.65.07-67.3 0-100.94.03 5.18-131 8.96-262.08 14.1-393.09 23.76 1.92 47.58 3.26 71.36 4.87 1.81.23 4.16.07 5 2.12 44.28 65.62 88.67 131.15 133.02 196.72 2.53 3.56 4.43 8.01 8.61 9.95 5.23 2.36 12.24 1.02 15.45-3.98 46.04-68.18 92.18-136.3 138.25-204.46 25.02-1.92 50.1-3.14 75.12-5.22 5.13 131.02 8.91 262.1 14.08 393.09-33.63-.03-67.28.02-100.93-.02ZM512.06 490.13c-40.22-55.68-80.29-111.49-120.46-167.2 10.47-18.96 20.75-38.04 31.36-56.92 32.37.16 64.75.03 97.12.07v-.07h75.52v.02h5.5c10.55 18.89 20.87 37.94 31.32 56.9-38.06 52.89-78.62 109.75-116.66 162.64a76.914 76.914 0 0 1-3.7 4.57c21.99-52.92 47.11-109.33 69.67-162.22h-50.82c0 .07-.01.15-.02.22-6.56 53.96-11.96 108.09-18.83 162ZM524.79 276c2.05 13.96 4.32 27.89 6 41.9h50.94c-5.99-14.04-12.28-27.95-18.48-41.9h-38.46Z" style="fill:#fff"/>
</svg>
