<svg xmlns="http://www.w3.org/2000/svg" viewBox="0 0 1024 1024">
   <circle cx="512" cy="512" r="512" style="fill:#d9272e"/>
   <path d="M512 256.13c-141.33 0-255.87 114.55-255.87 255.88S370.67 767.88 512 767.88 767.88 653.33 767.88 512 653.33 256.13 512 256.13Zm132.84 346.36a7.91 7.91 0 0 1-7.89 7.93h-33.47a7.91 7.91 0 0 1-7.93-7.89V499.55a1 1 0 0 0-1.71-.7L523 569.64a15.82 15.82 0 0 1-22.24 0L430 498.84a1 1 0 0 0-1.71.7v102.95a7.91 7.91 0 0 1-7.89 7.93H387a7.91 7.91 0 0 1-7.93-7.89v-181a7.92 7.92 0 0 1 7.93-7.93h22.94a16 16 0 0 1 11.19 4.69l88.06 88.06a3.84 3.84 0 0 0 5.43.12l.12-.12 88.06-88.06a15.73 15.73 0 0 1 11.2-4.7h22.92a7.92 7.92 0 0 1 7.93 7.93Z" style="fill:#fff"/>
</svg>
