<svg xmlns="http://www.w3.org/2000/svg" viewBox="0 0 1024 1024">
   <circle cx="512" cy="512" r="512" style="fill:#0af"/>
   <path d="M423.37 367.17c-5.15.75-10.28 1.62-15.44 2.28q30.07-60.27 60.3-120.52a48.35 48.35 0 0 1 26.22-23.76 50 50 0 0 1 36.36.51 47.89 47.89 0 0 1 21.66 17.66 90.66 90.66 0 0 1 5.79 10.6q28.9 57.77 57.81 115.53c-8-1.14-16-2.4-24-3.6a49 49 0 0 0-55.62 60.88c.57 2.39 1.6 4.64 2.22 7q-13.35-26.59-26.67-53.22c-8.51 16.9-16.93 33.86-25.44 50.76.13-2.28 1.05-4.39 1.5-6.61a49 49 0 0 0-44.17-59.36c-6.89-.62-13.73.9-20.52 1.85Zm19.48 12c-5-.45-9.88.65-14.77 1.33-3.71.54-7.4 1.17-11.12 1.64h-.13v.09c-2.32 5.26-5.1 10.31-7.62 15.49a35.26 35.26 0 0 0 28 51.93 3.07 3.07 0 0 1 1.71.61c3.2-.56 6.49-.62 9.65-1.44a35.26 35.26 0 0 0 20.19-13.49 53.19 53.19 0 0 0 4.86-8.66 34.43 34.43 0 0 1 1.08-4.76 35.31 35.31 0 0 0-31.8-42.74Zm132.39 69.52a33.18 33.18 0 0 0 4.84.84 36.22 36.22 0 0 0 13.63-1.23 35.5 35.5 0 0 0 19-13.61 36.09 36.09 0 0 0 6-15.14 35.54 35.54 0 0 0-3.85-21.88c-2.51-5.18-5.29-10.24-7.62-15.51v-.08h-.16c-5.77-.82-11.53-1.73-17.3-2.59a35.31 35.31 0 0 0-40 43.84c.41 1.72 1.15 3.34 1.6 5.05a35.5 35.5 0 0 0 23 20.07Zm215.11-20.82a49.18 49.18 0 0 0-22.56-31.71 50.43 50.43 0 0 0-19.58-6.64c-44-6.6-87.9-13.31-131.87-19.86 3.24 7.31 7.1 14.34 10.59 21.54a49.36 49.36 0 0 1 5.35 30.39 50.13 50.13 0 0 1-8.36 21 49.3 49.3 0 0 1-26.36 18.9 50.3 50.3 0 0 1-18.93 1.71c8.14.88 16.2 2.37 24.31 3.51l35.34 5.34c-12.8 12.66-25.66 25.26-38.45 37.94 2.47-.47 4.34-2.28 6.61-3.24a49 49 0 0 1 69.8 34.25c1.67 8.87 2.77 17.86 4.6 26.71q45.3-44.62 90.57-89.27c4.06-4.06 8.41-7.92 11.63-12.73a48.39 48.39 0 0 0 7.31-37.88ZM421.08 526.7a19.17 19.17 0 0 1-1.6-1.37 35.27 35.27 0 0 0-59.14 18.46c-.93 5.22-1.74 10.46-2.62 15.68a16.41 16.41 0 0 0-.42 3.43c2.35 2.33 4.71 4.64 7.06 7 3.83 3.62 7.29 7.72 11.78 10.57a35.3 35.3 0 0 0 43.27-3.92 37 37 0 0 0 9.4-14.46c.12-.5.25-1 .37-1.51a35.39 35.39 0 0 0-7.23-32.9c-.29-.36-.58-.68-.87-.98Zm189.12 54.1a35.44 35.44 0 0 0 33.27 2 38.25 38.25 0 0 0 11.79-8.67L666.53 563l.07-.07c-1.31-6.37-2.1-12.84-3.31-19.23A35.31 35.31 0 0 0 613 519c-1.63.69-3 2-4.76 2.34-2.81 2.76-5.89 5.31-8.15 8.57a35.29 35.29 0 0 0 10.11 50.89Zm70.54-13-15.65 15.43a53.13 53.13 0 0 1-16.37 12 49.22 49.22 0 0 1-46.21-2.79 49.76 49.76 0 0 1-22.2-31q4.88 29.4 9.74 58.81-27.19-14.07-54.36-28.18c1.68 1.45 3.67 2.46 5.41 3.83a49.06 49.06 0 0 1 7.9 70.75 51 51 0 0 1-17.05 13c-6.69 3.5-13.43 6.89-20.08 10.46q60.26 31.28 120.55 62.51a48.35 48.35 0 0 0 41.58 1.2 50.06 50.06 0 0 0 24-22.45 48.45 48.45 0 0 0 4.8-30.37q-11.02-66.57-22.06-133.19ZM479.25 671.48a49 49 0 0 1 3.19-75.48c1.75-1.4 3.79-2.4 5.47-3.88-18.17 9.35-36.27 18.8-54.42 28.19 2.94-17.94 6-35.86 8.87-53.81a51.36 51.36 0 0 1-13.05 20.08 49 49 0 0 1-60.1 5.44c-6.24-3.95-11-9.65-16.36-14.67-3.26-3.23-6.54-6.44-9.8-9.67a22.79 22.79 0 0 1 .59-4.77c1.23-7.26 2.35-14.53 3.64-21.78a49 49 0 0 1 82.14-25.63 26.63 26.63 0 0 0 2.22 1.91c-15.21-15.15-30.56-30.16-45.83-45.24 3.89-.87 7.87-1.24 11.8-1.91l40.76-6.15a4.26 4.26 0 0 0-2.37-.84 48.42 48.42 0 0 1-26.7-10.79 48.9 48.9 0 0 1-12.18-61.33c3.49-7.19 7.36-14.2 10.58-21.51q-66.65 10-133.29 20.09a48.62 48.62 0 0 0-26 12.25 49.88 49.88 0 0 0-15.93 36.93 48 48 0 0 0 9.6 28.42c3 4 6.74 7.39 10.27 10.93q45.23 44.62 90.49 89.22-11.08 66.83-22.13 133.68a48.37 48.37 0 0 0 5.73 32 49.91 49.91 0 0 0 37.88 24.59 48.71 48.71 0 0 0 27.54-5.47q59.89-31.07 119.79-62.14c-4.06-2.31-8.28-4.33-12.4-6.52-6.86-3.67-14.25-6.75-20-12.14Zm59.31-12.82a35.32 35.32 0 0 0-5.68-50.92c-1.25-1-2.68-1.72-3.89-2.76a35.85 35.85 0 0 0-34.39 0c-1.21 1.06-2.68 1.78-3.94 2.79a35.31 35.31 0 0 0-2.29 54.37c4.16 3.89 9.46 6.1 14.41 8.75 3 1.58 6 3 8.93 4.69h.12c4.78-2.57 9.64-5 14.46-7.53a36.73 36.73 0 0 0 12.27-9.39Z" style="fill:#fff"/>
</svg>
