<svg viewBox="0 0 1024 1024" xml:space="preserve" xmlns="http://www.w3.org/2000/svg"><circle cx="512" cy="512" r="512" style="fill:#f8d000;fill-opacity:1"/><path style="display:inline;fill:#fff;fill-opacity:1;stroke-width:1.00002;stroke-dasharray:none" d="M1413.9 1396.4c-26.3 0-47.6 14-47.6 31.1v1.8c0 18.2 18.6 32.9 47.6 32.9 29.1 0 47.6-14.7 47.6-32.9v-1.8c0-17.1-21.3-31.1-47.6-31.1zm.2 1.9c13.926 0 25.887 3.682 34.276 9.979-4.085 1.787-7.208 2.671-10.996 2.671-3.8 0-7.721-.807-11.421-2.607-.2-.1-4.682-2.182-9.582-2.182h-.4c-5.7.1-9.077 2.139-11.177 3.939-2.1 0-3.9.6-5.5 1-1.4.4-2.7.7-3.9.7h-1.5c-1.369 0-8.246-1.732-13.693-3.866 8.369-5.913 20.463-9.634 33.893-9.634zm1.977 9.76h.3c4.2 0 8.223 1.94 8.723 2.14 4 1.9 8.25 2.636 12.35 2.636 4.269 0 8.285-1.004 12.851-3.075 4.83 4.068 8.198 8.674 9.146 14.003-10.265 2.2-17.774 5.438-19.67 6.336-4.5-3.9-15.177-12.5-18.077-14.6-1.6-1.2-2.7-1.9-3.7-2.1-.4-.1-1-.3-1.8-.3-.7 0-1.5.1-2.3.4-1.8.6-3.6 2-5.4 3.4l-.1.1c-1.6 1.3-3.3 2.6-4.6 2.9-.6.1-1.1.2-1.7.2-1.4 0-2.45-.4-2.95-1-.1-.1.125-.411.325-.611l3.625-4.19c3.1-3.1 6.177-6.038 12.977-6.238zm-22.677 5.856c.6 0 1.3.1 2 .1 1.5 0 2.65-.4 4.15-.8.9-.2 1.5-.445 2.4-.645l-.25.329-4 4.4c-.3.3-1 1.2-.6 2.2.2.4.6.8 1.1 1.2 1 .6 2.7 1.1 4.3 1.1.6 0 1.2-.1 1.7-.2 1.7-.4 3.5-1.8 5.3-3.3 1.5-1.2 3.6-2.7 5.2-3.2.5-.1 1-.2 1.5-.2h.4c1.1.1 2.1.5 4 1.9 3.3 2.5 18 15.3 18.1 15.4 0 0 .9.8.9 2.2 0 .7-.639 1.122-1.339 1.622-.6.4-.911.462-1.511.462-1 0-1.77-.514-1.77-.514s-5.088-4.527-6.872-6.145c-.46-.416-1.14-.54-1.38-.24-.242.299-.167.913.233 1.213.337.253 5.381 5.403 5.98 5.897.46.379.742.644.842 1.544 0 1-.133 1.6-.942 2.178-.809.578-1.303.922-2.003.922-.9 0-1.971-.636-2.171-.736l-1.567-1.355c-1.5-1.5-2.085-2.034-3.162-3.209-.512-.559-1.062-.659-1.402-.482-.333.173-.428.585-.089 1.082.127.185.467.578.467.578l4.189 4.675s.331.725.28 1.237c-.026.574-.163.83-.544 1.21-.7.6-1.839.797-2.239.797h-.6c-.4-.1-.686-.255-.886-.455-.2-.3-2.122-2.359-3.922-3.859-.2-.2-.5-.4-.8-.4-.1 0-.3.1-.4.2-.3.4.2 1 .4 1.2l3.422 3.959c-.817.713-2.032.85-2.342.85-.31-.001-.168-.02-.774-.02-.607-.001-1.814-.486-2.614-.886.258-.77.221-1.315.27-2.114.09-1.487-.45-3.075-1.522-4.148-.779-.779-1.967-1.253-2.765-1.378-1.898-.294-1.103-.176-1.103-.176.316-1.969-1.403-4.086-2.093-4.619-.69-.533-2.025-1.125-2.838-1.095a4.06 4.06 0 0 0-2.085.65c-.6-1.1-1.463-2.014-2.413-2.314-.95-.3-1.611-.47-2.511-.47-.9 0-1.817.503-2.717 1.203a4.6 4.6 0 0 0-3.6-1.7c-1.2 0-2.636.422-3.436 1.222-6.472-4.204-11.966-4.788-20.116-7.154.73-3.802 3.436-7.937 5.997-10.814 1.168-1.312 3.16-3.143 3.16-3.143s2.397 1.01 3.347 1.302c3.495 1.076 10.047 2.785 11.741 2.94zm-5.343 18.545c-.2.6-.29 1.672-.222 2.497.069.824 1.55 3.903 4.05 3.903.3 0 1.415.078 1.715-.022.4 1.9 1.1 3.26 3 3.96.6.2 1.1.3 1.6.3.3 0 .7 0 1.1-.1.3.9 2.143 2.36 2.9 2.7a4.26 4.26 0 0 0 1.828.38c.404-.01 1.364-.138 1.764-.338.8 2 2.408 3.459 4.607 3.459 1.5 0 3.49-.718 4.49-1.818.9.5 1.694 1.365 3.594 1.365l1.644-.042c1.9-.2 2.297-.681 2.697-1.181.1-.1.42-.575.52-.675.4.1.927.103 1.527.103a5.1 5.1 0 0 0 3.167-1.114c1-.7 1.7-1.7 1.7-2.6.3.1.7.1 1 .1 1 0 1.462.061 2.462-.64 1.9-1.2 2.727-3.357 2.727-4.357.3.1 1.092.156 1.444.149.352-.01 1.42-.242 2.262-.817.842-.576 1.816-1.574 1.916-2.874.1-.9.133-2.244-.266-3.044 3.193-1.397 9.758-3.85 18.333-5.848.098.385.184 1.16.184 1.592 0 16.1-20.5 29.2-45.7 29.2-25.2 0-45.7-13.1-45.7-29.2 0-.543.135-1.603.135-1.603 5.58 1.362 15.577 3.782 19.522 6.565zm7.89 1.63c.292.012.676-.55.875-.764.575-.62.72-1.155 2.38-1.163.4 0 .912.169 1.412.269 1.7.5 1.905 2.242 1.907 2.67 0 .43.407.547.55.552.143 0 .462-.152.62-.362.157-.21.882-.86 1.982-.86.5 0 .882.022 1.482.322 2.7 1.2 1.345 4.093 1.245 4.445-.1.352-.142.859 0 1 .141.141.234.092.419.1.185.01.41-.056.989-.22s1.246-.155 1.712-.113c.466.042 2.486.506 2.68 3.533.1 2.2-1.482 3.624-3.482 3.624s-3.345-1.64-3.445-3.64c0-.2-.06-.443-.46-.443-.2 0-.51.01-.813.26-.303.252-1 .8-1.8.8-.4 0-.8-.1-1.2-.3-2.1-.9-1.69-2.537-1.59-3.137 0-.2-.016-.307-.1-.4-.21-.203-.48-.017-.6.1-.6.4-1.71.836-2.31.836-.3 0-.7-.1-1-.2-2.8-1.1-2.314-3.419-2.282-3.965.032-.547.024-.8-.056-.9-.08-.102-.229-.216-.43-.016-.6.5-1.432.78-2.132.78-1.6 0-2.35-1.26-2.35-2.86 0-1.6 1.123-2.743 2.623-2.743 1.5 0 2.486 1.355 2.586 2.055 0 0 .042.246.125.4.105.196.34.335.463.34z" transform="translate(-10504.913 -10624.908) scale(7.79186)"/></svg>