<svg xmlns="http://www.w3.org/2000/svg" viewBox="0 0 1024 1024">
   <circle cx="512" cy="512" r="512" style="fill:#2d3277"/>
   <path d="M512 290.82c-176.81 0-320 94.12-320 209.08V512c0 122.35 125.04 221.18 320 221.18S832 634.36 832 512v-12.1c0-114.96-143.19-209.08-320-209.08Zm-237.8 86c38.7 15.82 85.39 27.63 99.99 28.96 4.03 0 8.74.67 13.45.67 10.08 0 19.5-2.69 29.58-5.38 6.05-1.34 12.1-3.36 18.15-4.71l-5.38 5.38-26.89 29.58c-2.02 2.02-6.72 8.07-4.03 14.79 1.34 2.69 4.03 5.38 7.39 8.07 9.23 5.79 27.83 9.42 40.34 6.05 11.43-2.69 23.53-12.1 35.63-22.19 10.08-8.07 24.2-18.15 34.96-21.51 4.25-.93 8.47-1.51 12.77-1.34 7.39.67 14.12 3.36 26.89 12.77 22.19 16.81 121.01 102.86 121.68 103.53 5.41 5.06 11 18.96-2.02 27.56-8.06 5.88-19.45 4.33-24.2.67 0 0-34.29-30.92-46.39-41.68-2.68-2.72-6.23-4.86-8.74-2.02-2.02 2.69 0 6.05 2.69 8.07l39.66 39.66s4.71 4.71 5.38 10.76c0 6.72-2.69 12.1-9.41 16.13-7.97 6.3-19.56 5.54-25.55 1.34l-6.05-5.38c-10.08-10.08-20.84-20.84-28.91-26.89-2.02-1.34-4.03-3.36-6.05-3.36-.67 0-2.02 0-2.69 1.34-.67.67-1.34 2.69.67 6.05.67 1.34 2.02 2.02 2.02 2.02l28.91 32.27s6.05 7.39.67 13.45l-4.03 4.03c-7 5.28-12.33 4.6-18.15 4.71-2.69-.67-4.71-1.34-6.05-2.69-1.34-2.02-16.13-16.13-28.24-26.22-2.05-2.08-5.54-3.98-8.07-1.35-2.02 2.69 1.34 6.72 2.69 8.07l24.87 26.89s0 .67-.67 2.02c-.67 1.34-4.03 4.03-12.77 5.38-9.82.89-21.64-4.17-27.56-7.39 11.36-24.34-7.2-52.98-34.29-51.77.67-9.41-.67-26.89-18.82-34.29-9.05-3.61-17.72-4.65-26.89-1.34-4.03-7.39-10.08-12.77-18.15-15.46-11.49-3.38-23.87-3-33.61 4.71-10.81-14.06-33.61-15.12-45.71-2.69-7.39-6.05-37.65-24.87-118.99-43.7-3.5-.58-10.53-2.68-15.85-4.55 7.14-37.21 30.65-71.23 65.77-99.03Zm149.06 209.8c-1.31.05-1.65-.29-3.36 1.34-6.18 4.15-12.27 5.1-18.82 2.69-18.82-7.39-17.48-24.87-16.13-30.25.21-2.22-.73-2.76-2.02-4.03l-1.34 1.34c-12.64 11.61-32.94 2.89-32.94-14.12.81-24.32 34.56-26.29 38.99-2.69l.67 5.38 2.69-4.71c0-.67 8.07-12.77 22.86-12.1 2.69 0 5.38.67 8.74 1.34 11.43 3.36 13.45 14.12 13.45 18.15.08 3.72 3.57 2.95 4.03 1.35 4.64-5.44 15.83-8.51 24.87-3.36 18.15 8.07 10.08 30.92 10.08 31.6-1.34 4.03-2.02 5.38 0 6.72 1.65-.06 2.63.25 4.71-.67 15.88-6.9 34.31 5.46 34.29 22.86.67 14.79-10.76 25.55-24.2 25.55s-24.2-10.76-24.87-24.2c.22-4.11-2.37-5.18-6.05-2.69-4.17 4.92-13.57 7.27-20.17 3.36-14.12-6.05-14.79-15.46-14.12-19.5.1-1.78-.26-2.42-1.34-3.36Zm90.08 109.58c-169.41 0-307.23-88.07-307.23-196.3 0-3.65.17-7.27.48-10.87 4.36.99 13.16 2.97 15.66 3.47 82.69 18.15 110.25 37.65 114.96 41.01-8.71 23.13 10.85 47.54 34.96 42.35 2.69 12.77 10.76 22.19 23.53 26.89 6.89 2.2 11.27 2.64 18.15 1.35 2.02 6.05 7.39 13.45 19.5 18.15 6.84 3.29 14.93 3.72 21.51.67 9.24 24.01 42.44 30.99 59.83 11.43 14.56 9.06 43.69 15.88 56.47-.67.67-.67.67-1.34 1.34-2.02 9.98 2.65 20.81 1.72 30.25-6.05 6.72-4.71 11.43-11.43 11.43-17.48 9.51 1.91 18.59-.04 27.56-6.05 12.77-8.07 14.79-19.5 14.79-26.22 16.93 4.11 38.77-8.93 39.66-26.89.67-6.05-1.34-12.1-4.03-17.48 21.51-9.41 69.92-26.89 127.73-40.34 0-4.71-.67-8.74-2.02-13.45-69.24 14.79-121.01 36.98-133.78 43.03-30.25-26.22-100.17-87.39-119.66-101.51-10.76-8.07-18.15-12.77-24.87-14.12-7.21-2.53-18.84-2.88-27.56.67-12.1 4.03-24.2 13.45-36.3 22.86l-.67.67c-10.76 8.74-22.19 17.48-30.92 19.5-10.07 2.68-27.83 1.17-32.94-5.38-.67-.67 0-2.02 1.34-3.36l26.89-28.91c41.18-46.9 94.08-51.25 147.9-27.56 57.16 27.45 112.2 24.95 170.76-2.02-3.36-2.69-7.39-6.05-10.76-8.74-53.23 23.07-103.11 23.98-154.62-.67-.41-.61-36.85-16.71-67.9-15.46-38.32.67-59.83 14.12-73.95 26.22-14.12 0-26.22 4.03-36.97 6.72-9.41 2.69-18.15 4.71-26.22 4.71h-10.08c-9.32 0-55.54-11.21-92.34-25.78 56.27-39.87 137.7-64.97 228.14-64.97 169.41 0 307.23 88.07 307.23 196.3S682.77 696.2 513.36 696.2Z" style="fill:#fff"/>
</svg>
