<svg xmlns="http://www.w3.org/2000/svg" viewBox="0 0 1024 1024">
   <circle cx="512" cy="512" r="512" style="fill:#0467df"/>
   <path d="M634.78 314.6c-46.25 0-82.4 34.83-115.12 79.08-45-57.26-82.58-79.08-127.59-79.08C300.31 314.6 230 434 230 560.42c0 79.09 38.26 129 102.36 129 46.13 0 79.31-21.75 138.29-124.85 0 0 24.59-43.42 41.5-73.32q8.89 14.35 18.73 30.93l27.66 46.53c53.86 90.13 83.88 120.69 138.27 120.69 62.44 0 97.19-50.57 97.19-131.31 0-132.34-71.89-243.49-159.22-243.49Zm-209.11 222c-47.82 75-64.36 91.76-91 91.76-27.4 0-43.68-24.05-43.68-66.95 0-91.76 45.75-185.59 100.29-185.59 29.53 0 54.22 17.06 92 71.18-35.87 55.1-57.61 89.64-57.61 89.64Zm180.47-9.44L573.07 472q-13.42-21.83-25.8-40.19c29.8-46 54.39-68.92 83.63-68.92 60.74 0 109.34 89.43 109.34 199.29 0 41.87-13.72 66.17-42.13 66.17-27.24.05-40.25-17.94-91.97-101.15Z" style="fill:#fff"/>
</svg>
