<svg xmlns="http://www.w3.org/2000/svg" viewBox="0 0 1024 1024">
   <circle cx="512" cy="512" r="512" style="fill:#1972e2"/>
   <path d="M791.05 640.95c-11.52 19.37-32.51 31.41-54.77 31.41h-4.38c-29.61-.32-50.82-7.53-68.82-23.39-17.37-15.32-30.72-38.06-44.86-62.13l-7.82-13.68c-7.26-12.59-23.33-39.86-23.46-40.08l-68.45-118.86 33.23-57.09.02-.05.04-.06c11.59-20.87 32.68-33.33 56.39-33.33s44.1 11.79 56.09 31.52l127.01 220.31c11.73 21.65 11.65 45.49-.21 65.42Zm-183-48.2-.02-.02v-.04l-7.84-13.68c-7.22-12.52-23.26-39.74-23.41-40.01L506.6 417.14l-2.16-3.76-35.12-60.97c-12.17-18.02-32.48-28.77-54.4-28.77-24.2 0-45.03 13.04-57.14 35.76l-.05.09-.05.08L232.55 576.1c-11.46 20.11-11.4 44.15.18 64.27 11.58 20.13 31.95 31.79 55.89 32.01h388.36c-31.32-15.57-48.67-45.12-68.92-79.62Z" style="fill:#fff"/>
</svg>
