<svg xmlns="http://www.w3.org/2000/svg" viewBox="0 0 1024 1024">
   <circle cx="512" cy="512" r="512" style="fill:#0043ce"/>
   <path d="m773.78 601.3-.06-41.11A154.55 154.55 0 0 0 620 406h-1a153.81 153.81 0 0 0-60 12.24l-.4-.2c-5.71-80.21-72.75-143.52-154.37-143.38A154.55 154.55 0 0 0 250 425.75l.13 63.64v2.91c.06 21.77.09 37.24.11 54.63v8C249 631.67 303 713 405 715.33h.15l.22-94-.54-.06v-.35q-2 0-3.87-.14c-10.3-1.47-19.26-4.08-26.81-7.86-15.57-9-26.62-26.91-29.51-44-1.73-50.1 36.31-69.35 59.94-68.45 39 1.47 62.33 32 60.2 70.86l.22 143.9 94.41-.17-.28-154.48q0-3 .28-6a60.47 60.47 0 0 1 2-10.83 59.56 59.56 0 0 1 30.62-36.93 62.43 62.43 0 0 1 14.25-5.09 68.64 68.64 0 0 1 8-1.3h8.74a60.7 60.7 0 0 1 56.17 59.2l.28 155.25 94.41-.17c-.02-23.61 0-41.77-.1-113.41ZM344.33 500.9a22.33 22.33 0 1 1 22.29-22.37 22.34 22.34 0 0 1-22.29 22.37Z" style="fill:#fcfcfc"/>
</svg>
