<svg xmlns="http://www.w3.org/2000/svg" viewBox="0 0 1024 1024">
   <circle cx="512" cy="512" r="512" style="fill:#f60"/>
   <path d="M298.27 567v-63.51L271 567h-15.08l-26.78-63.49V567H201V457h37.67l25.88 62.1 27.07-62.1h34.79v110Zm49.73 0V457h24.1a4.56 4.56 0 0 1 4.21 4.4V567Zm106.34-63.32h35.74c2.82 0 4.43 2.3 4.43 5v56.82c-10.07 2.24-25.77 3.62-37.47 3.62-41 0-62.63-19.53-62.63-57.27 0-33.65 21.62-57 57.67-57 15.86 0 29.78 4.24 38.74 10.29L479.8 484.1c-7.74-3.47-18.19-5.9-25.56-5.9-20.72 0-30.4 13.75-30.4 33.65 0 21.27 11.21 34.39 31.9 34.39a86.88 86.88 0 0 0 12.26-.72v-19.4h-13.61ZM578.13 567l-13-30.27c-2.67-6.16-4.53-9.23-10.19-9.23h-11.48V567h-27.63V461.41a4.92 4.92 0 0 1 4.3-4.4h39c21.2 0 39.37 4.4 39.37 31.79 0 12.25-6.79 24.81-19.51 27.35 6.34 2.15 12.72 10.29 16.18 19.1l12.6 31.75Zm-20.83-88.8h-13.84v27.58h13.84c8.27 0 14.77-4.41 14.77-14.86-.01-10.61-6.51-12.72-14.77-12.72Zm111.58 90.91c-36 0-55.06-25.44-55.06-57.27 0-31.53 19-57 55.06-57 33.72 0 52.79 25.42 52.79 57 0 31.84-19.07 57.27-52.79 57.27Zm0-90.91c-14.83 0-25.39 10.6-25.39 33.65 0 23.4 10.55 34 25.39 34 12.72 0 23.13-10.56 23.13-34-.01-23.05-10.42-33.65-23.13-33.65Zm106.94 90.91c-18.59 0-35.86-6.67-43.55-12l12.53-22.23c7 4.23 20.59 10.74 33.14 10.74 7.1 0 16.07-1.38 16.07-9.26 0-7.4-10-9.68-23.17-13.43-15.87-4.56-34.35-10.87-34.35-32.22 0-23 20.44-35.87 47-35.87 17.56 0 31.17 6.22 38.11 12.86l-15.26 17.38c-7.56-4.5-15.27-8-23.92-8-10.42 0-16.32 4-16.32 9.71s7.56 8.62 17.08 11.48C800 503.49 823 508.79 823 530.83c0 22.69-18.13 38.28-47.18 38.28Z" style="fill:#fff"/>
</svg>
