<svg xmlns="http://www.w3.org/2000/svg" viewBox="0 0 1024 1024">
   <circle cx="512" cy="512" r="512" style="fill:#68af85"/>
   <path d="M756.1 338.51v173.77c0 41.6 24.88 62.83 73.57 62.83H832v-26.06h-2.32c-29.09 0-43-13.45-43-41.18V427.4l45.32-.22V398.4h-45.32v-59.89Zm-238.86 20.8a20 20 0 0 0-20 20 20 20 0 1 0 20-20ZM271.6 370.18c-1.71 0-3.44.12-5.19.27-21.71 1.89-39.63 10.09-52.91 24.37-14.34 15.13-21.5 35.51-21.5 60.3v115.77h31.63v-118.7c0-14.71 4.22-27.33 12.23-37.41s18.55-15.13 32.25-15.13a53.07 53.07 0 0 1 35.83 13.44 42.8 42.8 0 0 1 15 33.2V570.9h31.83V446.3a42.8 42.8 0 0 1 15-33.2 52.3 52.3 0 0 1 35.83-13.44c13.7 0 24.24 5 32.67 15.35 8.22 10.3 12.65 22.9 12.65 37.19v118.7h31.63V455.13c0-24.79-7.38-45.17-21.92-60.3-14.33-14.29-32.24-22.48-54-24.37-28-2.31-51 9.25-68.1 34.46-16-23.64-37.2-35.27-62.89-34.73Zm372.78 2.37c-25.51 0-46.81 8.61-63.67 25.84-16.86 17-25.29 38.87-25.29 64.72v107.58H586V460.38c0-15.76 5.9-29.42 17.5-40.76s25.51-17.23 41.11-17.23c15.39 0 29.09 5.68 40.68 17.23 11.59 11.35 17.5 25.21 17.5 40.76v110.31h30.57V463.11c0-25.84-8.43-47.49-25.29-64.72-17.08-17-38.36-25.84-63.66-25.84ZM501.24 413.1v157.8h30.56V413.74a36.71 36.71 0 0 1-14.55 2.95 37.25 37.25 0 0 1-16-3.59Zm240.24 170.69q-5.16 0-5.16 5.15l-.12 76.1a19.69 19.69 0 0 0 6 14.38 19.13 19.13 0 0 0 14.28 6.07q5.16 0 5.16-5.15c0-3.3-1.71-5-5-5a9.86 9.86 0 0 1-7.16-3 10.27 10.27 0 0 1-3-7.25l.14-76.1c0-3.43-1.73-5.15-5-5.15Zm-108.38.27c-3.44 0-5.16 1.7-5.16 5.13l-.14 60.55a34 34 0 0 0 10.32 25.18 34.79 34.79 0 0 0 25.15 10.43A35.65 35.65 0 0 0 699 649.73a35.17 35.17 0 0 0-35.46-35.62A34.44 34.44 0 0 0 638 624.8l.12-35.62c0-3.43-1.71-5.13-5-5.13Zm81.39 19a7.79 7.79 0 0 0-5 2.23 7.66 7.66 0 0 0 5.43 13.07 7.74 7.74 0 0 0 5.43-2.25 7.16 7.16 0 0 0 2.26-5.27 7.67 7.67 0 0 0-7.69-7.78h-.39Zm-262.68 10.79c-3.44 0-5.16 1.72-5.16 5l-.14 60.93c0 3.43 1.6 5.15 5 5.15s5.16-1.72 5.16-5.15l.12-40.62a15.29 15.29 0 0 1 30.58 0l-.14 40.62c0 3.43 1.73 5.15 5 5.15s5.15-1.72 5.15-5.15l.14-40.62a15.35 15.35 0 0 1 30.71 0l-.14 40.62c0 3.43 1.73 5.15 5 5.15s5.16-1.72 5.16-5.15v-40.2a24.27 24.27 0 0 0-7.41-17.95 25.45 25.45 0 0 0-38.39 2.64A23.82 23.82 0 0 0 472.31 614a24.35 24.35 0 0 0-15.31 5q0-5.14-5.16-5.15ZM583 614a34.32 34.32 0 0 0-25.28 10.42 33.93 33.93 0 0 0-10.59 25.06 35.73 35.73 0 0 0 71.45 0 33.8 33.8 0 0 0-10.45-25.06A34.52 34.52 0 0 0 583 614Zm217.29.39A34.32 34.32 0 0 0 775 624.8a33.93 33.93 0 0 0-10.59 25.06A35.65 35.65 0 0 0 800 685.48a35.7 35.7 0 0 0 18-4.74 32.14 32.14 0 0 0 13-12.93 7.07 7.07 0 0 0 .65-2.65 5.89 5.89 0 0 0-1.45-3.68 5.46 5.46 0 0 0-3.71-1.45c-1.46 0-2.9.92-4.23 2.64s-2.25 3-2.92 3.95c-4.76 5.8-11.11 8.72-19.18 8.72a24.56 24.56 0 0 1-19.06-8.72l48.17-27.55a4.32 4.32 0 0 0 2.51-4.1c0-3.56-2.65-7.37-7.81-11.46a43.82 43.82 0 0 0-12.71-7.13 34 34 0 0 0-11-2ZM583 624a25.48 25.48 0 1 1-18 7.39 24.55 24.55 0 0 1 18-7.39Zm80.45.14a25.5 25.5 0 0 1 25.42 25.45 23.84 23.84 0 0 1-7.69 17.95 24.92 24.92 0 0 1-18 7.38 25.34 25.34 0 0 1-17.73-43.38 24.93 24.93 0 0 1 18-7.39Zm46.19.39-.14 55.67c0 3.43 1.73 5.15 5 5.15s5-1.72 5.16-5.15l.12-55.53a15.22 15.22 0 0 1-4.9.78 17.09 17.09 0 0 1-5.29-.92Zm90.38 0a24.14 24.14 0 0 1 18.98 8.72L775.76 658a24.68 24.68 0 0 1-1.33-8.19 24.37 24.37 0 0 1 7.57-17.88 24.93 24.93 0 0 1 18-7.39Z" style="fill:#fff"/>
</svg>
