<svg xmlns="http://www.w3.org/2000/svg" viewBox="0 0 1024 1024">
   <defs>
      <clipPath id="a">
         <path style="fill:none" d="M202.45 292.22h619.09v439.56H202.45z"/>
      </clipPath>
   </defs>
   <circle cx="512" cy="512" r="512"/>
   <g style="clip-path:url(#a)">
      <path d="M379.32 292.22h-88.46v88.2h88.46v-88.2Zm353.8 0h-88.46v88.2h88.46v-88.2Z" style="fill:#ffd800"/>
      <path d="M467.76 380.43H290.87v88.2h176.89v-88.2Zm265.38 0H556.25v88.2h176.89v-88.2Z" style="fill:#ffaf00"/>
      <path d="M733.09 468.59H290.87v88.2h442.22v-88.2Z" style="fill:#ff8205"/>
      <path d="M379.32 556.8h-88.46V645h88.46v-88.2Zm176.93 0h-88.46V645h88.46v-88.2Zm176.87 0h-88.46V645h88.46v-88.2Z" style="fill:#fa500f"/>
      <path d="M467.78 644.97H202.45v88.2h265.33v-88.2Zm353.83 0H556.25v88.2h265.36v-88.2Z" style="fill:#e10500"/>
   </g>
</svg>
