<svg xmlns="http://www.w3.org/2000/svg" viewBox="0 0 1024 1024">
   <circle cx="512" cy="512" r="512" style="fill:#f98012"/>
   <path d="M195.21 497a73.35 73.35 0 0 0 9.47-.62c0 .73-.06 1.47-.06 2.24v67.57h-34.38v-73.28a79.69 79.69 0 0 0 24.97 4.09Zm569.39 68.9v-193h-34.44v193Zm-44.8 0v-193h-33.5V466c-6.43-7.86-17.1-14.72-35.31-14.72-16.16 0-30.26 6.8-38.87 16.6q-14.6 16.57-14.6 41.18c0 16.6 5 30.57 14.91 41.8s23.09 16.91 39.49 16.91a57.72 57.72 0 0 0 18.72-3.37c7.36-2.5 12.6-5.74 15.66-9.86v11.36Zm-33.5-45.3q0 8-9.36 15.54c-6.24 5.05-12 7.55-17.35 7.55-8.8 0-15.79-3.68-20.9-11q-6.74-9.45-6.74-23c0-9.17 2.25-17 6.74-23.34a24.48 24.48 0 0 1 20.9-10.73c6.11 0 12.17 2.81 18 8.42s8.74 11.54 8.74 17.66ZM576 552.36q17.22-16.66 17.22-42.74c0-17.35-5.74-31.63-17.22-42.68s-25.89-16.6-43.3-16.6-31.82 5.55-43.18 16.6-17 25.27-17 42.68 5.68 31.7 17 42.74S515.28 569 532.68 569s31.82-5.6 43.32-16.64Zm-23.4-64.45c4.18 5.93 6.24 13.23 6.24 21.9s-2.18 15.91-6.55 21.9a24 24 0 0 1-39.18 0c-4.18-5.93-6.24-13.23-6.24-21.9s2.25-16.1 6.68-22.4 10.84-9.41 19.13-9.41c8.49 0 15.1 3.29 19.91 9.9Zm-101.09 64.45q17.22-16.66 17.22-42.74c0-17.35-5.74-31.63-17.22-42.68s-25.89-16.6-43.3-16.6-31.82 5.55-43.18 16.6-17 25.27-17 42.68 5.68 31.7 17 42.74S390.8 569 408.21 569s31.88-5.6 43.3-16.64Zm-23.4-64.45c4.18 5.93 6.24 13.23 6.24 21.9s-2.18 15.91-6.55 21.9a24 24 0 0 1-39.18 0c-4.18-5.93-6.24-13.23-6.24-21.9s2.25-16.1 6.68-22.4 10.85-9.41 19.15-9.41c8.55 0 15.16 3.29 19.9 9.9Zm377.23 32.19H896q0-31.07-15.66-49.48-16.85-19.93-47-20c-18.47 0-33.44 5.43-45 16.16S771 492.08 771 510.3q0 26.39 17.35 42.86c11.54 10.92 27.7 16.41 45.3 16.41 42.37 0 58.46-25.71 62.39-37.81l-36.25.31c-.44 4-8.49 13.85-25.52 13.85-17.53 0-28.14-17.66-28.89-25.83Zm.87-21.21a37.15 37.15 0 0 1 9.67-18.47 24 24 0 0 1 18-7.36 25.93 25.93 0 0 1 18.47 7.67 34.19 34.19 0 0 1 9.23 18.16ZM327.72 461.2q-13.48-10.2-36.5-10.2-25.18 0-34.69 12a75 75 0 0 1-20.39 21.36q3.18 5.2 3.19 14.29v67.57h34.38v-67.58q0-21.24 17.53-21.21c11.61 0 17.47 7.11 17.47 21.21v67.57h34.38v-71.57q-.02-22.09-15.37-33.44Zm-81-7.11c-1.15-1.06-2.33-2.1-3.45-3.08-.75-.65-1.48-1.26-2.16-1.83l-1.86-1.53c-1.38-1.12-2.27-1.81-2.27-1.81l34.13-25-.44-1.5q-5.77.71-11.17 1.4t-10.47 1.39l-5 .7c-6.57.94-12.75 1.92-18.67 3-4.44.8-8.73 1.64-12.91 2.56q-4.19.92-8.25 1.94t-8.07 2.17q-4 1.15-8 2.44-2 .65-4 1.34a252.85 252.85 0 0 0-24.37 9.94q-4.21 2-8.58 4.17c-7.3 3.67-15 7.86-23.28 12.66l.5 1.37 4.24.06q0 .4-.07.87-.08.94-.16 2.17t-.15 2.74a242.42 242.42 0 0 0 .2 24.79 40.59 40.59 0 0 0-1.32 23.51q.29 1.23.64 2.43.17.6.36 1.2.37 1.2.79 2.38t.87 2.35q.45 1.17.93 2.34c1 2.34 2 4.66 3 7 .22-3.28.37-6.63.42-10v-5.16a120.22 120.22 0 0 0-1-13.17c-.35-2.66-.8-5.34-1.38-8q-.58-2.68-1.32-5.36-.23-4.4-.31-8.24v-11.14q0-1.89.11-3.51t.15-2.95c.1-1.78.22-3.17.31-4.17l35.19.31v6.56c0 1.22.08 2.56.15 4 0 .85.09 1.74.15 2.64s.13 1.82.21 2.76c.13 1.48.29 3 .48 4.48v.23q1.5.53 3 1l1 .28c.67.2 1.35.4 2 .57l1.16.28c.61.15 1.23.31 1.84.44l1.23.25c.59.12 1.17.24 1.76.34l1.28.2c.56.09 1.13.18 1.69.26l1.32.15 1.64.18 1.34.1 1.61.1h5.4c.85 0 1.7-.07 2.55-.13l.73-.06 1.9-.18.71-.08c.84-.1 1.67-.21 2.5-.35h.13c.78-.13 1.55-.27 2.32-.42l.7-.15 1.88-.43.63-.15c.81-.21 1.62-.42 2.42-.66l.27-.08q1.07-.32 2.12-.68l.66-.23q.93-.33 1.85-.68l.53-.21q1.16-.46 2.31-1l.34-.16q1-.44 1.93-.91l.62-.31q.91-.46 1.8-.95l.44-.24q1.1-.61 2.18-1.27l.4-.25c.48-.3 1-.6 1.43-.92l.31-.2.58-.39q.87-.59 1.73-1.22l.34-.25q1-.75 2-1.55l.44-.36q.78-.64 1.54-1.3l.54-.48q.83-.74 1.63-1.5l.25-.23q.92-.89 1.81-1.82l.45-.48q.68-.72 1.34-1.46l.5-.57q.78-.9 1.53-1.82l.14-.17c.55-.68 1.08-1.37 1.6-2.08l.43-.6q.59-.8 1.15-1.63l.44-.64c.49-.74 1-1.49 1.45-2.25l-.09-.1c-.97-1.22-2.39-2.62-3.88-4Z" style="fill:#fff"/>
</svg>
