<svg xmlns="http://www.w3.org/2000/svg" viewBox="0 0 1024 1024">
   <circle cx="512" cy="512" r="512" style="fill:#ff6e00"/>
   <path d="M863.9 561.71v-59.75c0-7.67-1.31-14.23-3.87-19.66s-6.2-9.78-10.81-13.11c-4.63-3.32-10.13-5.72-16.55-7.26-6.43-1.5-13.53-2.27-21.33-2.27-6.49 0-11.83.38-16.08 1.18-4.22.8-7.61 1.92-10.1 3.29-2.53 1.37-4.28 2.97-5.27 4.76-.96 1.79-1.47 3.61-1.47 5.47 0 2.65.7 4.89 2.08 6.75 1.41 1.85 2.49 3.1 3.29 3.77 1.44-1.21 4.44-2.65 9.02-4.38 4.57-1.73 10.61-2.59 18.16-2.59 4.51 0 8.6.32 12.31.99 3.71.67 6.88 1.85 9.53 3.58 2.65 1.73 4.76 4.12 6.26 7.16s2.27 6.87 2.27 11.51c-2.24-.26-5.63-.58-10.11-.9-4.5-.35-9.27-.51-14.29-.51-8.73 0-16.14.7-22.22 2.08-6.11 1.41-11.03 3.48-14.8 6.27-3.77 2.78-6.49 6.23-8.15 10.33-1.63 4.09-2.46 8.86-2.46 14.29 0 4.12.7 8.12 2.08 12.02 1.37 3.9 3.96 7.35 7.74 10.33 3.77 2.97 8.92 5.34 15.47 7.13 6.55 1.79 14.99 2.69 25.32 2.69 5.18 0 10.13-.13 14.89-.38 4.77-.26 9.08-.58 12.91-.9 3.84-.32 7.17-.64 10.01-.99 2.85-.35 4.96-.64 6.27-.9h-.1Zm-22.28-15.12c-1.21.26-3.58.64-7.16 1.09-3.55.48-8.41.7-14.48.7-5.41 0-9.94-.35-13.59-1.09-3.64-.7-6.52-1.79-8.63-3.16-2.11-1.37-3.61-3.07-4.48-5.05-.86-1.98-1.28-4.16-1.28-6.55 0-5.82 2.01-10.07 6.14-12.79 4.06-2.72 10.65-4.06 19.63-4.06 7.26 0 12.72.26 16.37.8 3.64.51 6.14.93 7.44 1.18h.03v28.93Zm-94.37-62.24c2.4 5.21 3.58 11.16 3.58 17.74v60.13h-22.6v-54.38c0-8.98-2.21-15.86-6.55-20.52-4.35-4.7-10.77-7.06-19.24-7.06s-15.06 2.37-19.34 7.06c-4.28 4.7-6.46 11.54-6.46 20.52v54.38h-22.63v-60.13c0-6.62 1.22-12.53 3.68-17.74 2.46-5.21 5.82-9.65 10.13-13.3 4.28-3.64 9.4-6.43 15.28-8.34s12.34-2.88 19.34-2.88 13.49.96 19.44 2.88c5.95 1.92 11.09 4.7 15.38 8.34 4.28 3.64 7.64 8.09 10.01 13.3Zm-429.27-3.07c2.24 4.76 3.39 10.33 3.39 16.66v64.32h-22.63v-56.55c0-9.14-2.05-15.66-6.14-19.56-4.09-3.9-9.65-5.85-16.66-5.85s-12.4 2.17-16.97 6.55c-4.57 4.38-6.84 11.44-6.84 21.23v54.19H229.5v-54.19c0-9.78-2.27-16.85-6.84-21.23-4.54-4.35-10.23-6.55-16.94-6.55s-12.44 1.98-16.66 5.95c-4.25 3.96-6.36 10.52-6.36 19.66v56.36h-22.63v-64.1h-.06c0-6.36 1.12-11.92 3.39-16.66 2.27-4.76 5.34-8.73 9.24-11.92 3.9-3.16 8.5-5.59 13.78-7.22 5.27-1.66 11.06-2.49 17.26-2.49 8.22 0 15.54 1.5 22.03 4.57 6.49 3.04 11.64 7.54 15.47 13.49 3.84-5.95 8.92-10.45 15.28-13.49 6.36-3.04 13.55-4.57 21.64-4.57 6.07 0 11.76.8 17.07 2.4 5.27 1.6 9.85 3.96 13.68 7.13 3.84 3.2 6.87 7.13 9.14 11.89Zm119.24-17.77c1.98.61 3.29 1.02 3.96 1.28v57.16c0 6.75-1.15 12.82-3.48 18.16-2.3 5.34-5.63 9.88-9.91 13.59s-9.43 6.52-15.38 8.44-12.5 2.88-19.66 2.88-13.68-.96-19.63-2.88-11.06-4.73-15.28-8.44c-4.25-3.71-7.54-8.25-9.94-13.59-2.37-5.37-3.58-11.41-3.58-18.16v-48.81h.03c0-3.71 1.05-6.39 3.2-8.02 2.11-1.66 5.08-2.49 8.92-2.49 2.37 0 4.54.32 6.55.89 1.98.61 3.32 1.02 3.96 1.28V517c0 8.98 2.11 15.86 6.36 20.56 4.22 4.7 10.71 7.03 19.44 7.03s15.22-2.33 19.44-7.03c4.25-4.7 6.36-11.54 6.36-20.56v-43.86c0-3.71 1.05-6.39 3.16-8.02 2.11-1.66 5.05-2.49 8.73-2.49 2.49 0 4.76.32 6.75.89Zm106.09 17.18c-1.78 3.16-3.72 8.57-4.55 11.42-5.8-4.91-12.54-9.4-23.03-11.63-1.67-.24-3.44-.38-5.43-.38-15.47 0-23.21 8.22-23.21 24.58v57.57h-22.63v-64.1h-.03c0-12.18 3.74-21.61 11.22-28.29s17.84-10.04 31.07-10.04h.94c17.6 0 30.53 5.91 40.72 13.37-1.66 1.84-3.08 3.93-5.08 7.48Zm94.93 42.82c-6.45 8.34-13.01 13.47-17.14 16.21-1.4.9-3.32 2.04-5.79 3.26-6.39 3.13-14.67 4.86-24.81 3.26-4.19-.67-7.8-2.08-10.93-3.93h-.04l.07-.06c-8.86-5.21-13.52-14.13-14.86-20.68 0 0-1.56-4.97-1.04-10.94l-.04-.03.05.02c.27-8.06 3.43-15.33 6.95-19.83.75-1.04 1.73-2.18 2.89-3.31.2-.19.4-.39.61-.58.47-.43.97-.85 1.5-1.27.19-.15.37-.31.57-.46.75-.56 1.55-1.1 2.41-1.61.14-.08.3-.15.45-.23.73-.41 1.5-.81 2.32-1.17.32-.14.66-.27.99-.4.7-.28 1.43-.53 2.19-.76.39-.12.79-.23 1.2-.33.8-.2 1.64-.37 2.51-.51.4-.07.78-.14 1.19-.2 1.29-.16 2.63-.27 4.06-.27 15.98 0 24.93 11.12 23.43 16.33-.17.61-.46 1.14-.81 1.63-.1.14-.24.27-.36.4-.28.32-.6.63-.96.9-.18.13-.37.26-.57.38-.38.23-.8.44-1.25.63-.23.1-.45.19-.69.28-3.76 1.3-9.37 1.37-15.78.78-2.8-.25-5.43-.73-7.91-1.34-.67-.16-5.86-1.54-12.65-4.95-3.99 5.02-6.21 14.5-5.84 18.83 7.38 3.12 13.17 4.61 14.58 4.87 8.94 1.67 18.4 2.33 25.35 1.15 13.81-2.33 24.14-10.29 27.33-16.59 1.85-3.6 2.58-7.65 1.92-12.12s0-.02 0-.03c-.58-3.67-2.05-7.56-5.17-11.89-6.03-8.37-15.89-14.76-28.55-17.53-.06-.02-.11-.05-.18-.07-.05-.01-.11-.01-.17-.03-1.47-.31-3.03-.51-4.57-.72-.74-.1-1.44-.26-2.2-.34-2.34-.24-4.75-.37-7.24-.37-1.6 0-3.22.11-4.84.29-.53.06-1.06.17-1.6.25-1.09.16-2.18.33-3.26.57-.62.14-1.24.32-1.86.48-.99.26-1.98.53-2.96.85-.65.21-1.28.45-1.92.68-.95.35-1.88.72-2.81 1.12-.64.28-1.27.56-1.89.87-.92.44-1.82.91-2.71 1.4-.6.33-1.19.66-1.78 1.01-.91.54-1.78 1.12-2.66 1.72-.53.36-1.07.71-1.58 1.09-.93.68-1.82 1.42-2.71 2.16-.41.34-.83.66-1.23 1.01-.09.08-.18.14-.27.22l.02.02c-1.16 1.05-2.28 2.12-3.33 3.26-.15.16-6.71 6.74-10.57 19.35l.06.06-.08-.06c-1.43 5.05-2.41 10.54-2.41 15.88 0 19.21 9.65 35.73 24.47 44.97l-.02.08c7.8 4.86 17.01 7.8 27.14 7.8 18.26 0 30.08-7.7 35.38-12.09l.18-.15c1.45-1.21 2.32-2.05 2.72-2.47 7.49-7.23 11.4-16.24 13-22.38 1.66-6.39-2.49-8.6-5.5-4.38ZM613 499.96c-.22.09-.43.18-.66.27.21-.07.45-.19.66-.27Z" style="fill:#fff"/>
</svg>
