<svg xmlns="http://www.w3.org/2000/svg" viewBox="0 0 1024 1024">
   <circle cx="512" cy="512" r="512" style="fill:#a32c91"/>
   <path d="M150.47 577.8H128V444.68h35.04l40.18 83.61 40.18-83.61h34.85v133.13h-22.47V473.82l-46.47 92.37h-12.57l-46.28-92.37V577.8Zm153.46-133.05 43.2 66.52-43.2 66.52V444.74Zm107.71 0-43.2 66.52 43.2 66.52V444.74Zm80.78 51.73c-10.54 0-18.47 3.43-23.81 10.28-5.33 6.86-8 16.06-8 27.62v43.42h-21.33V476.48h21.33v20.38c3.43-6.35 8.09-11.55 14-15.62 5.9-4.06 12.16-6.16 18.76-6.29l.19 21.52h-1.14Zm96.79 67.7c-10.16 10.09-22.85 15.14-38.09 15.14s-27.93-5.05-38.09-15.14c-10.16-10.09-15.24-22.44-15.24-37.04s5.08-26.95 15.24-37.04 22.85-15.14 38.09-15.14 27.93 5.05 38.09 15.14c10.16 10.09 15.24 22.44 15.24 37.04 0 14.6-5.08 26.95-15.24 37.04Zm-61.04-13.14c6.03 6.16 13.68 9.24 22.95 9.24s16.92-3.08 22.95-9.24c6.03-6.16 9.05-14.12 9.05-23.9s-3.02-17.74-9.05-23.9c-6.03-6.16-13.68-9.24-22.95-9.24s-16.92 3.08-22.95 9.24c-6.03 6.16-9.05 14.13-9.05 23.9s3.01 17.75 9.05 23.9Zm163.01-19.71v-54.85h21.33V577.8h-21.33v-18.48c-3.43 6.22-8.16 11.11-14.19 14.67-6.03 3.56-12.54 5.33-19.52 5.33-11.43 0-20.66-3.49-27.71-10.47-7.05-6.98-10.57-17.07-10.57-30.28v-62.09h21.33v55.61c0 18.66 7.74 28 23.24 28 7.36 0 13.77-2.44 19.24-7.33 5.46-4.89 8.19-12.03 8.19-21.43Zm68.41-37.71v51.42c0 4.83 1.27 8.67 3.81 11.52 2.54 2.86 6.1 4.29 10.67 4.29s8.95-2.22 13.14-6.67l8.76 15.04c-7.49 6.73-15.78 10.09-24.85 10.09s-16.82-3.14-23.24-9.43c-6.41-6.29-9.62-14.76-9.62-25.42v-50.85H725.5v-17.14h12.76v-31.81h21.33v31.81h26.67v17.14H759.6Zm136.42 42.85h-79.42c.51 7.37 3.87 13.3 10.09 17.81 6.22 4.51 13.33 6.76 21.33 6.76 12.69 0 22.34-4 28.95-12l12.19 13.33c-10.92 11.3-25.14 16.95-42.66 16.95-14.22 0-26.31-4.73-36.28-14.19-9.97-9.45-14.95-22.15-14.95-38.09s5.08-28.6 15.24-37.99c10.16-9.4 22.12-14.09 35.9-14.09s25.49 4.16 35.14 12.47c9.65 8.32 14.47 19.78 14.47 34.38v14.66Zm-79.42-16.76h58.09c0-8.5-2.67-15.05-8-19.62s-11.9-6.86-19.71-6.86-14.83 2.38-21.05 7.14c-6.22 4.76-9.33 11.21-9.33 19.33Z" style="fill:#fff"/>
</svg>