<svg xmlns="http://www.w3.org/2000/svg" viewBox="0 0 1024 1024">
   <circle cx="512" cy="512" r="512" style="fill:#6eda78"/>
   <path d="M610.42 548.62V538.1c0-47.34.44-94.68-.44-142-.88-31.12-18.41-47.78-49.53-50-1.75 0-3.51-.44-4.82-.44v-22.78h137.64v21.48c-10.08 3.07-20.16 5.26-28.49 9.64-13.59 7-19.29 20.16-21 34.63a242.37 242.37 0 0 0-1.78 31.12v268.7c0 3.51 2.19 8.77-4.38 9.64s-12.27 6.58-18.85-.44c-21.92-23.23-44.27-46.46-66.19-69.7-28.49-29.81-57-59.61-85-89.42L407 475.42c-7.45-7.45-14.47-15.78-22.79-24.55a59.48 59.48 0 0 0-.44 7.89c0 51.72-.44 103.89 0 155.61 0 15.34 3.51 30.68 14.47 42.52 9.21 10.52 22.36 14 35.94 15.34a35.43 35.43 0 0 0 7 .44V695H301.39v-21c8.33-2.63 16.66-3.95 24.11-7.89 11-5.7 16.66-15.78 19.29-27.62a101.89 101.89 0 0 0 3.07-25.86c.44-80.22 0-160.87 0-241.09 0-11.4-3.07-16.66-14.47-19.73-12.71-3.07-26.3-4.38-39.89-6.58v-23.67h7.89q42.74.66 85.48 0c9.21-.44 15.34 2.63 21.48 9.64 11 12.71 23.23 25.42 34.63 37.7 30.68 32.44 60.93 65.31 91.61 97.75 20.16 21.48 40.33 43 60.05 64.87 4.82 4.82 9.64 10.08 15.78 17.1zM696.34 660a42.08 42.08 0 1 1 42.08 42.52 41.91 41.91 0 0 1-41.64-41.64c-.44-.44-.44-.44-.44-.88z" style="fill:#fff"/>
</svg>
