<svg xmlns="http://www.w3.org/2000/svg" viewBox="0 0 1024 1024">
   <circle cx="512" cy="512" r="512" style="fill:#cd3b3b"/>
   <path d="M128 555.89h7.17v-42.94a58.44 58.44 0 0 1 .3-6.18 35.91 35.91 0 0 1 1.07-5.79 38.41 38.41 0 0 1 12.83-20.13A34.3 34.3 0 0 1 171 473q13.86.42 17.67 9.13t3.33 20.61v53.15h7.17V500.1q.32-15.77-5.76-24.94T171 465.78q-16 .78-25 9.3t-11.19 15.51h-.34s.14-.74.34-2.09a39.84 39.84 0 0 0 .34-5.13v-15.48H128Zm93.06-23.41q.52 13.14 9.33 19.36a33.08 33.08 0 0 0 19.7 6.16q11-.4 17.65-5.61a36.12 36.12 0 0 0 9.5-10.39q2.88-5.21 2.74-5.61h.34s-.14.76-.34 2.18a47.34 47.34 0 0 0-.34 5.74v11.61h7.17V499q0-16.51-7.75-24.88t-22.48-8.38q-14 .61-21.41 4.84t-7.45 4.84l4.1 6q.13-.53 6.64-4.22t17.78-4.2q10.43-.19 16.82 5.79t6.57 20.44v3H274a139.55 139.55 0 0 0-20.48 1.2 50.4 50.4 0 0 0-22.11 7.93q-9.79 6.46-10.35 21.14Zm7.51-.53q.44-11.23 8.6-16.1a44.71 44.71 0 0 1 18.73-5.93 146.43 146.43 0 0 1 18.27-.85h5.46v4.75A45.25 45.25 0 0 1 272 539q-7.54 11.42-21.58 12.12-10.89-.32-16.37-6.09a18.52 18.52 0 0 1-5.49-13.09Zm87.21 23.94H323v-42.94a58.49 58.49 0 0 1 .3-6.18 35.91 35.91 0 0 1 1.07-5.79 43.78 43.78 0 0 1 11.31-19.64 28.31 28.31 0 0 1 19.77-8.69q13.63.46 17.46 9.37t3.37 20.72v53.15h7.17v-42.94a58.37 58.37 0 0 1 .41-7.17 39.55 39.55 0 0 1 1.3-6.38 40.79 40.79 0 0 1 11.12-18.52 27.88 27.88 0 0 1 18.93-8.23q13.21.33 17.46 8.84t3.88 21.25v53.15h7.17V500.1q.28-15.89-6-25t-22.52-9.3a32.61 32.61 0 0 0-19.94 7.35 40 40 0 0 0-12.51 16.59h-.34q-1.31-11.78-7.78-17.84t-19.19-6.09q-10.39.31-19.79 7.46a37.08 37.08 0 0 0-13 17.36h-.34s.14-.74.34-2.09a39.84 39.84 0 0 0 .34-5.13V467.9h-7.17Zm150.78-43.82q.5 21.23 13 33.46T510.62 558q14-.76 22.11-6.07t8.28-6.07l-3.93-6.16q-.12.69-7.09 5.54t-19.38 5.54a35.39 35.39 0 0 1-25.7-10.49q-10.42-10.38-10.84-29.63h68.48q0-.12.17-1.65t.17-3.1q0-16.48-8.71-28t-26.13-12.08a40 40 0 0 0-28.95 12q-12 11.88-12.55 34.29Zm8-8.27q2.63-15.46 11.91-23.3a32.27 32.27 0 0 1 21.39-7.85 25.69 25.69 0 0 1 18.74 7.52q7.8 7.59 8.75 23.63Zm93.63 52h16.91v-45.91h27.15q16.83-.25 27.22-10.87t10.69-28.55q-.3-17.91-10.69-28.29t-27.22-10.6h-44.03Zm16.91-61.07v-48h24.59q10.86.08 17 6.27t6.23 17.49q-.1 11.33-6.25 17.75t-17.14 6.53Zm83.42 61.07h16.56v-36.41a69.27 69.27 0 0 1 .45-8.14 46.31 46.31 0 0 1 1.6-7.88q3.1-10 9.63-15.42a22.56 22.56 0 0 1 14.62-5.52 22.9 22.9 0 0 1 3.35.26q1.37.23 1.43.26v-16.88l-1.3-.18a27.47 27.47 0 0 0-3-.18 25.46 25.46 0 0 0-17.18 6.73 36 36 0 0 0-10.14 16.5h-.34s.07-.7.17-2 .16-2.83.17-4.73v-15.43h-16Zm57.71-44.7q.5 20.71 13.64 33.57t33 13.24q19.84-.38 33-13.24t13.64-33.57q-.5-20.57-13.64-33.33t-33-13.13q-19.84.38-33 13.13t-13.61 33.35Zm16.91 0q.34-14.11 8.77-22.77a29.14 29.14 0 0 1 41.95 0q8.39 8.66 8.71 22.77-.32 14.24-8.71 23a28.89 28.89 0 0 1-41.95 0q-8.41-8.74-8.75-22.98ZM832 544.91q.07.81 8.45 6.51t24.33 6.51q14.39-.23 22.73-7.39a23.75 23.75 0 0 0 8.49-18.48q-.82-14.12-11.51-20.24a140.24 140.24 0 0 0-21.38-10q-10.69-3.92-11.51-11.44.21-5.76 4.4-8.36a17.89 17.89 0 0 1 9.78-2.55q10.3.5 15.8 4t5.55 4l6.66-12.85q0-.62-6.81-4.93t-21-4.93q-13.27.07-22.09 6.6t-9.2 18.64q.82 14 11.51 20.17a147.06 147.06 0 0 0 21.38 10.16q10.69 4 11.51 11.73a9.8 9.8 0 0 1-4.48 8.25 17.54 17.54 0 0 1-9.86 2.84q-11.41-.65-18-5.19t-6.75-5.19Z" style="fill:#fff"/>
</svg>
