<svg xmlns="http://www.w3.org/2000/svg" viewBox="0 0 1024 1024">
   <circle cx="512" cy="512" r="512" style="fill:#041b4f"/>
   <path d="M666.65 272H357.33c-47.12 0-85.33 38.21-85.33 85.33v309.35c0 47.12 38.21 85.33 85.33 85.33h309.32c47.14 0 85.35-38.21 85.35-85.33V357.33c0-47.12-38.21-85.33-85.35-85.33Zm-60.86 376.11c0 10-42.01 18.16-93.78 18.16s-93.81-8.16-93.81-18.16v-51.4c0 9.97 42.04 18.16 93.81 18.16s93.78-8.19 93.78-18.16v51.4Zm0-66.55c0 9.97-42.01 18.16-93.78 18.16s-93.81-8.19-93.81-18.16v-51.4c0 9.97 42.04 18.16 93.81 18.16s93.78-8.19 93.78-18.16v51.4Zm0-66.87c0 10.29-42.01 18.48-93.78 18.48s-93.81-8.19-93.81-18.48v-51.11c0 10 42.04 18.16 93.81 18.16s93.78-8.16 93.78-18.16v51.11Zm0-63.18c0 8.48-42.01 15.16-93.78 15.16S418.2 460 418.2 451.51v-33.32l93.81-60.49 93.78 60.49v33.32Z" style="fill:#fff"/>
</svg>
