<svg xmlns="http://www.w3.org/2000/svg" viewBox="0 0 1024 1024">
   <circle cx="512" cy="512" r="512" style="fill:#00c4ff"/>
   <path d="M792 439.12v188.32h-62.89V468.07c0-28.17-2.22-32.48-12.14-30-8.75 2.16-8.94 15.3-9.46 35v154.37h-58.24V327.91l58.24-13.54v113c0 .79 0 2.26.6 2.26s.7-1.67.74-2.31C711 385.08 722.6 368.58 742.3 364c32.24-7.54 49.7 7.85 49.7 75.12Zm-150.21 93.21c0-46.44-6.71-60.75-49.43-69.15-28.09-3.95-29.07-6.1-29.07-19v-2.62c0-16.12 1.81-26.55 10.47-28.77 9-2.31 11.13 2.6 11.13 22.79v19.19h56.9V425c0-56.72-14.76-77.56-67.7-65.53-52.66 11.93-67.7 33.12-67.7 84v10.8c0 45.33 4.42 58.57 48.78 68.52 29.36 5.94 29.72 7.39 29.72 20.65v13.33c0 16.21-1.67 20.64-9.5 20.64-9.78 0-12.1-6.35-12.1-25.15v-18.58h-56.9v21.13c0 57.13 17.14 74.81 67.7 74.81 53.17 0 67.7-18.79 67.7-71.13ZM433.16 392c-50 11.69-68.2 33.43-68.2 84.07v4.56h57.55V459.1c0-10.11 2.6-17.46 9.5-19s9.78 6.52 9.78 20.49v24.62c-29.07 9.42-80.58 0-80.58 64.93v22.4c0 41.22 11.51 57.13 40.87 57.13 22.77 0 34.66-7.92 38.41-32.94 0 0 .4-2.6.81-2.6s.5 1.93.5 2.6v30.8h57.57V450.58c-.01-54.58-18.49-69.72-66.21-58.58Zm8.64 174.33c0 17.2-4.15 21.1-12.78 21.1-8.06 0-14.91-4.23-14.91-21.1v-19.5c0-15.47 15-21.41 27.69-26Zm-87.61 61.13V479.83c0-41.45-6.32-67.83-33.6-61.35-21.18 5-32.63 19.13-36.18 53.05-.15 1.25-1.17 1.55-1.17 0v-42.28L232 441.16v186.36h51.23V505.86c0-21 3.89-29.7 10.8-31.67 7.83-2.21 10.79 8.69 10.79 26.53v126.77Z" style="fill:#fff"/>
</svg>
