<svg xmlns="http://www.w3.org/2000/svg" viewBox="0 0 1024 1024">
   <circle cx="512" cy="512" r="512" style="fill:#f68a1d"/>
   <path d="M667.69 716.49a257 257 0 0 1-311.37 0 5.73 5.73 0 0 1-1-8.18l58-70.74a5.72 5.72 0 0 1 7.81-1 154.19 154.19 0 0 0 181.69 0 5.75 5.75 0 0 1 3.4-1.11 5.68 5.68 0 0 1 4.41 2.08l58 70.74a5.73 5.73 0 0 1-.94 8.21Zm48.81-360.17a5.73 5.73 0 0 0-8.18-1l-70.75 58a5.71 5.71 0 0 0-1 7.8 153.27 153.27 0 0 1 27.78 67 5.72 5.72 0 0 0 6.21 4.84l91-9a5.73 5.73 0 0 0 5.11-6.46 255.51 255.51 0 0 0-50.18-121.18ZM359.64 535.87A5.73 5.73 0 0 0 354 531h-.57l-91 9a5.73 5.73 0 0 0-5.11 6.46 255.51 255.51 0 0 0 50.2 121.17 5.73 5.73 0 0 0 8.18 1l70.75-58a5.71 5.71 0 0 0 1-7.79 153.27 153.27 0 0 1-27.81-66.97Zm-4.28-220.18 58 70.74a5.72 5.72 0 0 0 7.81 1 154.19 154.19 0 0 1 181.69 0 5.72 5.72 0 0 0 7.81-1l58-70.74a5.73 5.73 0 0 0-1-8.18 257 257 0 0 0-311.37 0 5.73 5.73 0 0 0-.94 8.18Zm406.23 224.36-91-9h-.57a5.73 5.73 0 0 0-5.64 4.87 153.27 153.27 0 0 1-27.78 67 5.71 5.71 0 0 0 1 7.79l70.75 58a5.73 5.73 0 0 0 8.18-1 255.51 255.51 0 0 0 50.2-121.17 5.73 5.73 0 0 0-5.14-6.49Zm-375.15-126.7-70.75-58a5.73 5.73 0 0 0-8.18 1 255.51 255.51 0 0 0-50.2 121.17 5.73 5.73 0 0 0 5.11 6.46l91 9a5.72 5.72 0 0 0 6.21-4.84 153.27 153.27 0 0 1 27.78-67 5.71 5.71 0 0 0-.97-7.79Z" style="fill:#fff"/>
</svg>
