<svg xmlns="http://www.w3.org/2000/svg" viewBox="0 0 1024 1024">
   <circle cx="512" cy="512" r="512" style="fill:#0c2a2a"/>
   <path d="M304.15 666.46v-78.65l1.64-1.64h16.38l1.64 1.64v78.65l-1.64 1.64h-16.38l-1.64-1.64Zm0-230.27v-78.64l1.64-1.64h16.38l1.64 1.64v78.64l-1.64 1.64h-16.38l-1.64-1.64Zm-71.22 173.57h-2.32l-11.58-11.59v-2.32l27.05-27.04h12.27l1.65 1.64v12.27l-27.06 27.04Zm-.01-195.52h-2.32l-11.58 11.59v2.32l27.05 27.04h12.27l1.65-1.64v-12.27l-27.06-27.04Zm-103.28 87.93h111.42l1.64 1.64v16.38l-1.64 1.64H129.64l-1.64-1.64v-16.38l1.64-1.64Zm659.85 0h104.87l1.64 1.64v16.38l-1.64 1.64H782.95l-1.64-1.64 6.55-16.38 1.64-1.64Zm-343.41 16.82-1.64 1.64h-50.83l-1.64 1.64c0 3.28 3.28 13.11 16.39 13.11 4.92 0 9.83-1.64 11.47-4.92l1.64-1.64h19.68l1.64 1.64c-1.64 9.84-9.83 24.6-34.43 24.6-27.87 0-40.99-19.68-40.99-42.63s13.11-42.62 39.35-42.62 39.35 19.68 39.35 42.62v6.56Zm-24.6-16.39c0-1.64-1.64-13.11-14.76-13.11s-14.75 11.47-14.75 13.11l1.64 1.64h26.23l1.64-1.64Zm70.5 26.23c0 3.28 1.64 4.92 4.92 4.92h14.75l1.64 1.64v16.39l-1.64 1.64H496.9c-14.76 0-27.87-6.56-27.87-24.6v-36.07l-1.64-1.64h-11.47l-1.64-1.64v-16.4l1.64-1.64h11.47l1.64-1.64v-14.75l1.64-1.64h19.68l1.64 1.64v14.75l1.64 1.64h18.03l1.64 1.64v16.4l-1.64 1.64h-18.03l-1.64 1.64v36.07Zm60.66 24.6h-19.68l-1.64-1.64V440.31l1.64-1.64h19.68l1.64 1.64v111.48l-1.64 1.64Zm44.26-95.09h-19.68l-1.64-1.64v-16.4l1.64-1.64h19.68l1.64 1.64v16.4l-1.64 1.64Zm0 95.09h-19.68l-1.64-1.64V473.1l1.64-1.64h19.68l1.64 1.64v78.69l-1.64 1.64Zm77.05-113.13v16.4l-1.64 1.64h-14.75c-3.28 0-4.92 1.64-4.92 4.92v6.56l1.64 1.64h16.39l1.64 1.64v16.39l-1.64 1.64h-16.39l-1.64 1.64v59.02l-1.64 1.64h-19.68l-1.64-1.64v-59.02l-1.64-1.64h-11.47l-1.64-1.64V473.1l1.64-1.64h11.47l1.64-1.64v-6.56c0-18.03 13.11-24.6 27.87-24.6h14.75l1.64 1.64Zm60.66 114.76c-6.56 16.39-13.11 26.23-36.07 26.23h-8.2l-1.64-1.64v-16.39l1.64-1.64h8.2c8.19 0 9.83-1.64 11.47-6.56v-1.64l-26.23-63.94v-16.4l1.64-1.64h14.75l1.64 1.64 19.68 55.75h1.64l19.68-55.75 1.64-1.64h14.76l1.64 1.64v16.4l-26.23 65.58Zm-403.45-1.64-1.64-1.64v-47.5c.01-8.19-3.21-14.55-13.1-14.75-5.09-.13-10.91-.01-17.12.25l-.93.95v61.05l-1.63 1.64h-19.67l-1.64-1.64v-79.57l1.64-1.64 44.26-.4c22.18 0 31.15 15.24 31.15 32.43v49.18l-1.64 1.64h-19.68Z" style="fill:#fff"/>
</svg>
