<svg xmlns="http://www.w3.org/2000/svg" viewBox="0 0 1024 1024">
   <circle cx="512" cy="512" r="512" style="fill:#eb7522"/>
   <path d="M486.21 417.46a4.7 4.7 0 0 1 1.3 3.24 4.35 4.35 0 0 1-1.08 3.17 3.72 3.72 0 0 1-2.88 1.44 3.53 3.53 0 0 1-1.94-.5 3.44 3.44 0 0 1-.58-.43 3.26 3.26 0 0 1-.36-.36 5.13 5.13 0 0 1-.86-1.15 5.06 5.06 0 0 1-.43-2 4.94 4.94 0 0 1 1.08-3.31 5.16 5.16 0 0 1 1-.79 4 4 0 0 1 1.87-.58 3.67 3.67 0 0 1 2.88 1.27Zm-8.64-45.81a.78.78 0 0 0 0-.36 4.5 4.5 0 0 0-1.22-3.17 3.74 3.74 0 0 0-3-1.3 3.71 3.71 0 0 0-2.81 1.37 4.9 4.9 0 0 0 .14 6.48 3.62 3.62 0 0 0 2.88 1.22 2.69 2.69 0 0 0 1.22-.22 3.19 3.19 0 0 0 1.66-1.15 4.13 4.13 0 0 0 1.13-2.87Zm3.31 27.8a3.64 3.64 0 0 0 2.23-1.37 4.47 4.47 0 0 0 1.15-3.24 4.64 4.64 0 0 0-1.3-3.17l-.36-.43v.07a4 4 0 0 0-2.59-1 3.88 3.88 0 0 0-2.45 1.08 2.82 2.82 0 0 1-.36.36 4.93 4.93 0 0 0-1.15 3.24.33.33 0 0 1 0 .22 4.93 4.93 0 0 0 1.3 3 3.73 3.73 0 0 0 3 1.22 2.39 2.39 0 0 0 .53.03ZM324.93 661.22a10.33 10.33 0 0 0-1.51-.29l-.86-.07a12.39 12.39 0 0 0-9.72 5.91 26.36 26.36 0 0 0-2.52 4.18A30.42 30.42 0 0 0 308 679q-.08.89-.14 1.8-.15 1.63-.14 3.17 0 .94.07 1.8l5.11.14a25.5 25.5 0 0 0 .72 3.67l-5.33-.14q.26 1 .58 1.94l5.4.14a16.91 16.91 0 0 0 1.15 2.45 11.76 11.76 0 0 0 4.61 4.83 3.62 3.62 0 0 0 .79.36 6.35 6.35 0 0 1-.86.22 9.32 9.32 0 0 1-5.83-.5 8.86 8.86 0 0 0 9.08.86 6.28 6.28 0 0 0 .94-.5 6 6 0 0 0 .72-.43s0 0 .07-.07a16.78 16.78 0 0 0 3.82-3.89 27 27 0 0 0 5-14q.08-.92.07-1.8a22.57 22.57 0 0 0-2.67-12.25 10.79 10.79 0 0 0-6.23-5.58Zm413.53-336a22.66 22.66 0 0 1-4.9-8.86L766.41 286a15.74 15.74 0 0 1 7.27 1.66l1.08.5a23.15 23.15 0 0 0-8.07-5.76q-.92-.39-1.87-.72a30.16 30.16 0 0 0-8.14-1.44 28.2 28.2 0 0 0-21.11 7.64 27.8 27.8 0 0 0-9.22 20.31 29.36 29.36 0 0 0 .86 8.28v.07a27.75 27.75 0 0 0 3.6 8.21.86.86 0 0 1 .07.14.92.92 0 0 1 .14.14 32.76 32.76 0 0 0 3.24 4.11v.07l1.15 1.15.07.07a30.42 30.42 0 0 0 6.77 5 28.68 28.68 0 0 0 12.53 3.31h.07A27.87 27.87 0 0 0 776 331.1a19.68 19.68 0 0 0 6.55-9.22L748.19 332a22 22 0 0 1-5.4-2.81l42.5-20.1q.12.45.07-.86a13.07 13.07 0 0 0-2.38-8.64ZM659.8 530.48h.07a4.51 4.51 0 0 0-3.24-1.37 4.75 4.75 0 0 0-3.24 1.37 4.58 4.58 0 0 0-1.37 3.17 4.68 4.68 0 0 0 1.37 3.31v-.07a4.36 4.36 0 0 0 3.24 1.37 4.05 4.05 0 0 0 3.17-1.3l.07-.07a4.52 4.52 0 0 0-.05-6.39ZM799 312.59a43.68 43.68 0 0 1-7.42 23.48.16.16 0 0 1-.14.07v.07a47.73 47.73 0 0 1-6.77 7.71 45.58 45.58 0 0 1-15.49 9.44.22.22 0 0 1-.22.07l-52.54 22.47h-.07a.22.22 0 0 1-.14.14 5.69 5.69 0 0 0-1 .36c0 .06 0 .08-.07.07a38 38 0 0 1-12.19 2.53 48.52 48.52 0 0 1-5.33-.14h-.07a.83.83 0 0 1-.29-.07q-14.68 7.79-29.32 15.63-12.64 6.8-25.35 13.58l-7.85 4.11-.07.07a130.44 130.44 0 0 1 4.25 12.68 111.68 111.68 0 0 1 3.53 15.2q.6 3.75.94 7.49l13.76 1.73a6 6 0 0 1 3.89 1.94c0 .05.05.07.07.07v.07a6.24 6.24 0 0 1 .72.86 5.15 5.15 0 0 1 .5 1 5.37 5.37 0 0 1 .43 1.87.67.67 0 0 1 .07.22l.72 12.1q14.24.49 26.58 1.58a312.3 312.3 0 0 1 39.26 5.83l.5.07a.47.47 0 0 0 .22.07 55.79 55.79 0 0 1 18.51 10 67.36 67.36 0 0 1 6 5.55 83.71 83.71 0 0 1 10.66 13.76q1.08 1.64 2.09 3.39 1.44 2.43 2.81 4.9t2.59 5.33q.81 1.84 1.51 3.6l1.73 3.82a26.79 26.79 0 0 1 1.94 5.47v.14a5.38 5.38 0 0 1 .07 1.58v.14a5.89 5.89 0 0 1-2.59 4.25l-16.86 12q.26 4.81.29 9.58a244.43 244.43 0 0 1-4.19 49.53 196.79 196.79 0 0 1-19.88 56.76A137.34 137.34 0 0 1 695 711.28l-.07.07a76.71 76.71 0 0 1-10.44 6.77 2.49 2.49 0 0 1-1.37.29h-410.7q-4.63.18-7.06.14a.33.33 0 0 1-.22 0 .29.29 0 0 1-.22 0h-.86l-4-.36Q246.08 716 236 700a.33.33 0 0 1-.07-.14A74 74 0 0 1 225 659.2q0-23.77 10.88-40.12l.22-.22q2.37-3.6 4.83-6.84a101.34 101.34 0 0 1 2.52-28.09q10.86-12.07 24.27-25.43 20-20 45.81-42.79.16-8.37.36-16.35.32-11.19.79-21.61.59-11.17 1.44-22 1.24-14.94 3-29.1a6.14 6.14 0 0 1 2.3-4l6.48-5.11q4.43-3.45 8.86-6.84 9.69-7.34 19.38-14.26l8.07-5.62q7.59-5.22 15.13-10.16v-.07l.07.07.31-.18a29.52 29.52 0 0 1-5.72-11.2 30.77 30.77 0 0 1-.86-8.07q1.67-9.88 2.45-16.49.34-1.45.79-3 1.29-4.24 2.45-8.57l5.33-13.69.22-.07a33.62 33.62 0 0 1 5.91-2.45q3.21-.83 6.34-1.73 4.5-1.19 8.79-2.45a.49.49 0 0 0 .22 0 6.38 6.38 0 0 1-.94-3.1 8.28 8.28 0 0 1-4.83-2.81l-.14-.07-.5-.94q-.31-2.26-.43-6.12a74.25 74.25 0 0 1 .5-9.36v-.07a9.5 9.5 0 0 1 4.39-3.31 3.38 3.38 0 0 0 .5-.14.19.19 0 0 0 0-.14 19.78 19.78 0 0 1 6.84-13 25.77 25.77 0 0 1 33.85 0 20.31 20.31 0 0 1 6 8.5 30.17 30.17 0 0 1 4.18 2.23 56.6 56.6 0 0 1-.86 9.22l1.73 2.59a88.93 88.93 0 0 1-1.44 10.66q-.42 2.1-.94 4.11l-6 2.3-1.37 4 .22.14h.07v-.07l.79.29a16.88 16.88 0 0 1 3.74 1.83l.14.07q3.64 2.06 7.2 4.32 1.25.78 2.45 1.58.1 0 2.31 1.51a119.11 119.11 0 0 1 6.48 12.25q2.24 5.12 4 10.37a.52.52 0 0 1 .07.14.81.81 0 0 1 .11.21l122.06 18.09a6.81 6.81 0 0 1 2.52.94q2.72 1.83 5.55 4l.14-.07 62.45-43.94a.84.84 0 0 1 .14-.43l-.07.07a25.11 25.11 0 0 1 1.22-3 30.5 30.5 0 0 1 3.39-5.62 36.41 36.41 0 0 1 7-7.2q1.13-.92 2.09-1.73h.07a.6.6 0 0 1 .29-.14q3.86-3.2 7.85-6.34l26.36-21.25a.48.48 0 0 1 .36-.29q3.72-3.08 7.42-6.05a1.28 1.28 0 0 1 .29-.22l.86-.72h-.07a45.39 45.39 0 0 1 6.84-4.83 1.66 1.66 0 0 1 .43-.14 46 46 0 0 1 55.46 8.86l.14.14h.07l.07.07a47.34 47.34 0 0 1 4.68 6 1.2 1.2 0 0 1 .36.43.79.79 0 0 1 .14.29v-.07a44.27 44.27 0 0 1 7.13 25.79Zm-205.32 64.75-135.13-19.45q-5.74-.34-5.47 4.68a224 224 0 0 1 9.87 30.68q.44 1.6.79 3.17 1.06 4.49 1.87 9 .47 2.65.86 5.26.49 3.41.86 6.84.05.49.07.94.51 4.49.79 9h.36l32.45 4.12v-.79q.15-6.54-.14-11.24-.11-2.56-.43-5.69-.39-3.77-1.08-8.36a138.22 138.22 0 0 0-4.54-19.66 14.11 14.11 0 0 1 5.62-4.39 14.92 14.92 0 0 1 4.54-1.08l74.26 10.3L596 378.93q-1.15-.81-2.32-1.59Zm-24 20-56.4-7.56h-.07a3.1 3.1 0 0 0-1 .36 37.11 37.11 0 0 1 8 19.74 42.17 42.17 0 0 1-4.21 21.85q-.44.83-.94 1.66l32.13 3.75q8.66-28.7 11-31.77ZM446.3 303.51a.67.67 0 0 0-.36-.65l-.58-.29a2.79 2.79 0 0 1-.43-.14 10.31 10.31 0 0 0-1-.29l-1.08-.36-.14-.14a3.77 3.77 0 0 0-.14-.72q-.27-.65-.36-.94a6.07 6.07 0 0 0-.29-1.15l-.36-1.08a2.93 2.93 0 0 0-.14-.43 8.5 8.5 0 0 0-2.81-.36 1.24 1.24 0 0 1-.29.07 1.47 1.47 0 0 0-.14.22l-.5.65a10.71 10.71 0 0 1-.65 1l-.58.94q-.25.34-.5.72a.31.31 0 0 1-.14.07 9.76 9.76 0 0 1-2.88.86l-3 .43q-1 .12-1.8.14l-.43.07q-1.46.2-1.66.65t-.43 1a5.94 5.94 0 0 0-.07.65q0 .11.07.22a.06.06 0 0 0 0 .07.06.06 0 0 0 0 .07.26.26 0 0 0 0 .14 1.73 1.73 0 0 0 .14.5q.17.73.36 1.44t.29 1.15a24.14 24.14 0 0 0 .86 2.45 6.84 6.84 0 0 0 2.09 1.73q1.17.64 2.31 1.22l2.52.65.79.14h1.51a6.06 6.06 0 0 0 .72-.07 8 8 0 0 0 .86-.07 13.07 13.07 0 0 0 3-.72 9.26 9.26 0 0 0 2.09-1.08 2.09 2.09 0 0 0 .72-.86l.5-1.3q.46-1.21.94-2.59.12-.31.22-.65a8.47 8.47 0 0 0 .36-1.37q.2-.6.41-1.99ZM418 291q.47 4.89 1.37 5.26a32.32 32.32 0 0 0 10.66.86 5.09 5.09 0 0 0 3.17-.94l.72-.86.14-.22 1.3-1.58a2.42 2.42 0 0 1 2.3-1.37q2.25.13 4.47.43a1.94 1.94 0 0 1 1.8 1.37v.07l.5 1.22a.5.5 0 0 1 .07.22l.79 2.23a.52.52 0 0 1 .07.29 10.83 10.83 0 0 0 4 .07 3.06 3.06 0 0 0 .79-1.44v-.07a19.87 19.87 0 0 0 1.08-9.22 6.89 6.89 0 0 0-.72-1.37 80.13 80.13 0 0 0-30.69-2.81 1.85 1.85 0 0 1-.43.14 1.8 1.8 0 0 1-.43.22v.07l-.72.43a39.71 39.71 0 0 0-.24 7Zm-12.94 75.11c2-1.14 3.31-1.83 3.79-2.07q4.68-2.32 9.29-4.68l10.59-5.11q2.87-1.35 5.76-2.67a51.71 51.71 0 0 1 23.63-4l.07.07h.11l-1.3-6.39a84.47 84.47 0 0 1-.36-11.45 29.57 29.57 0 0 0-7.13-2.59L447 332a17.17 17.17 0 0 1-11.24 4 30.35 30.35 0 0 1-11.76-2.16 33.4 33.4 0 0 1-7.56-4.18 32.31 32.31 0 0 1-3-2.38 28.76 28.76 0 0 1-3.24-3.39q-.45-.56-.86-1.15l-9.44 1.37a55.89 55.89 0 0 1 3.17 11.81q.57 4.49 1.08 8.57a72.16 72.16 0 0 1 .14 12.75l-7.56-4.68c3.82 6.09 6.59 10.61 8.33 13.6ZM288.41 627a37.54 37.54 0 0 0-4.39-5.91l-.29-.29a25.79 25.79 0 0 0-3.6-3.17l-6.91 4.9a22.79 22.79 0 0 1 10 9.58 46.19 46.19 0 0 1 5.78 26.73 49.44 49.44 0 0 1-8.64 26.65 29.62 29.62 0 0 1-7 7.35 15.56 15.56 0 0 1-1.44 1 19.13 19.13 0 0 1-1.8 1 17.16 17.16 0 0 1-17.29-1.73 19.32 19.32 0 0 0 12.75.65 22.28 22.28 0 0 1-10.52-9.94 38.38 38.38 0 0 1-2.38-4.61l-10.23-.29q-.67-1.79-1.22-3.75l10.08.36a45.05 45.05 0 0 1-1.58-6.92l-9.72-.29q-.18-1.73-.29-3.53-.09-2.9.07-6a57.92 57.92 0 0 1 2.52-14.62l-5.76 4a.36.36 0 0 1 0 .14 76.32 76.32 0 0 0-1.37 10.8q-.13 3.18-.07 6.19.06 1.83.14 3.6a50.7 50.7 0 0 0 7.06 22.33q.65 1.14 1.3 2.16 7.86 11.18 19.3 11.16h.22q12.38-.1 21.83-13.33a16.6 16.6 0 0 0 1.08-1.51q.83-1.2 1.58-2.52a49.81 49.81 0 0 0 3.67-7.56 64.64 64.64 0 0 0 4.32-20.53 54.67 54.67 0 0 0-7.2-32.1Zm47.9 34.57a22.59 22.59 0 0 0-2.52-3.6l-.22-.14a12.33 12.33 0 0 0-9.44-4.25 13.41 13.41 0 0 0-1.37.07q-1.84.46-3.39.72a20.4 20.4 0 0 0-8.79 7.2 35.32 35.32 0 0 0-6.05 12.89q-.47 2.16-.79 4.47-.09 1-.22 2-.13 1.92-.14 3.75 0 1.12.07 2.16a29.53 29.53 0 0 0 3.75 13.47l.5.94a2.11 2.11 0 0 1 .22.36 13.43 13.43 0 0 0 11.45 6.77h.07a16.52 16.52 0 0 0 12.75-7.13q.36-.44.72-.94t.65-.86a17.78 17.78 0 0 0 1-1.58 27.44 27.44 0 0 0 2.38-4.61A39 39 0 0 0 340 681q.1-1 .14-2a31.34 31.34 0 0 0-3.83-17.42Zm4.61-35.15a15.61 15.61 0 0 1-2.45-2.09l-1.22-1.33a18.14 18.14 0 0 1-1.87-3l-.22.14a.67.67 0 0 0-.14-.14l-12.75 7.85 1.15 7.28Zm5-32.63a68.52 68.52 0 0 1-2.92-20.38l-52.15 36.66a35.06 35.06 0 0 1 9.58 8.64q1.41 1.79 2.74 3.82 9.63-6.48 17.5-11.81 16.33-11 25.22-16.93Zm5.19-94.43q45.18-24.13 72.9-33.42 6.6-2.2 12.17-3.6a36.5 36.5 0 0 1 8.5 4.75q12.73 9.52 19.09 31.12l92.42 8.07q-1.24-4.15-2.3-6.92-.8-2-1.73-4a79.46 79.46 0 0 0-7.27-12.75 57.49 57.49 0 0 0-3.75-4.9 59.06 59.06 0 0 0-5-5.33 62.18 62.18 0 0 0-6.55-5.4q-2.23-1.65-4.68-3.17-2.4-1-5.11-1.94a115.59 115.59 0 0 0-19.23-4.54q-7.92-1.27-17.22-1.94l-3.6-.22-.94-.07-16.3-1.1-11.16-.79-10.16-.72q-5.65 1.62-11.45 3.6-11.24 3.86-22.91 9.08a388.56 388.56 0 0 0-59.35 34.21q-5.69 4-11.53 8.21 7.81-4.28 15.13-8.23Zm12.53 59.57-7.42 5.19q0 2 .07 4 .11 2.89.36 5.62a78.49 78.49 0 0 0 10.73 34.65q.8 1.23 1.58 2.38l.58.86Q381.65 629 399.41 629h.29q18-.19 32.05-18.3.94-1.15 1.8-2.38t1.58-2.3q1.31-1.93 2.52-4a79.35 79.35 0 0 0 5.69-11.74A99.88 99.88 0 0 0 450 558.5q.17-2.63.14-5.19.07-3.47-.14-6.84a78.79 78.79 0 0 0-11.09-37.74q-.55-1-1.15-1.94l-9.65 6.84q1.21 1.67 2.3 3.53a65.3 65.3 0 0 1 8.86 29.32q.25 3.19.22 6.48 0 2.6-.14 5.26v.29a76.27 76.27 0 0 1-13.25 40.7 46.93 46.93 0 0 1-10.8 11.31.61.61 0 0 1-.22.22 23.07 23.07 0 0 1-2 1.3 22.24 22.24 0 0 1-2.74 1.51h-.07q-15.07 5.81-26.51-2.59 7.47 3.65 19.74.94a21.28 21.28 0 0 1-2.59-1.15 36.55 36.55 0 0 1-13.76-14 64.28 64.28 0 0 1-3.6-7.06l-15.77-.5q-1-2.77-1.8-5.76l15.49.5a71.53 71.53 0 0 1-2.47-10.66l-14.91-.5q-.3-2.6-.43-5.33-.22-4.13-.05-8.51Zm29 130.59a50 50 0 0 0 4-15.2q.14-1.22.22-2.45a37.92 37.92 0 0 0-4.25-21.32 24.23 24.23 0 0 0-3-4.32l-.22-.22a15 15 0 0 0-11.45-5.26q-.87 0-1.73.14-2.27.56-4.18.94a25.38 25.38 0 0 0-11.03 8.73 44.19 44.19 0 0 0-7.71 15.85q-.69 2.65-1.15 5.47-.13 1.23-.29 2.45-.24 2.38-.36 4.61 0 1.37.07 2.67a35.53 35.53 0 0 0 4.25 16.5q.32.63.65 1.15.13.24.22.43a16 16 0 0 0 13.85 8.31.15.15 0 0 0 .14 0q8.6-.05 15.77-8.72.47-.52.94-1.15a9.27 9.27 0 0 0 .79-1.08 16.1 16.1 0 0 0 1.3-1.87 39 39 0 0 0 3.1-5.66Zm151.12-161.85-77.14-5q0 12-.58 23.77-.24 5.14-.58 10.23-.06.9-.14 1.8a267.39 267.39 0 0 1-9 52.22q-1 3.45-2.09 6.84a208.94 208.94 0 0 1-26.72 56A135.39 135.39 0 0 1 393.15 709h78.51a96.65 96.65 0 0 0 15.63-9.44 84.81 84.81 0 0 0 9.87-8.5l-21-.29a1.65 1.65 0 0 1-1.22-.5 1.78 1.78 0 0 1-.58-1.22 1.72 1.72 0 0 1 .43-1.22l5.76-7.2a2.43 2.43 0 0 1 .65-.5 2.55 2.55 0 0 1 .79-.22l23.41.43a1.6 1.6 0 0 1 1.08.36 121.3 121.3 0 0 0 9.69-14.7q4-7.22 7.42-14.62.34-.61.65-1.22L502 649a1.69 1.69 0 0 1-1.08-.36 1.86 1.86 0 0 1-.58-1 1.79 1.79 0 0 1 .07-1.15l3.1-7.13a2.27 2.27 0 0 1 .72-.86 2.35 2.35 0 0 1 1.08-.29l22.76 1.15a1.23 1.23 0 0 1 .5.07 178.7 178.7 0 0 0 8.21-27.73q.6-2.76 1.22-5.55l-21.68-1.3a1.81 1.81 0 0 1-1-.36 1.89 1.89 0 0 1-.58-.86 1.48 1.48 0 0 1-.07-.94l1.44-7.28a1.85 1.85 0 0 1 .65-1.08 2.08 2.08 0 0 1 1.22-.36l21.75 1.3a.35.35 0 0 0 .22 0 270.79 270.79 0 0 0 3.53-33.57l-22.4-1.44a1.65 1.65 0 0 1-1.22-.65 1.58 1.58 0 0 1-.43-1.08 1.35 1.35 0 0 1 0-.22l.43-7.35a2 2 0 0 1 .58-1.22 2 2 0 0 1 1.37-.43l22 1.44Zm6.7 5.47L669.74 544q2.21-23.42-9.29-37.82l.07.07a57.85 57.85 0 0 0-21.82-15.75 82.42 82.42 0 0 0-10.44-3.67l-73.76-7.13a78.19 78.19 0 0 1 8.57 16.86q.54 1.4 1 2.81a85.48 85.48 0 0 1 2.31 8.79 1.33 1.33 0 0 1 .07.36 2.81 2.81 0 0 1 0 .36v.43l-.07.36a2.88 2.88 0 0 1-.86 1.51l-15.2 14.77q.1 3.6.14 7.2Zm175.76 38.46q.27-3.3.5-6.63 0-.36.07-.72a1.76 1.76 0 0 1 .5-1.08 1.92 1.92 0 0 1 1.15-.36l20.6 1.3q0-1.95-.07-4a14.65 14.65 0 0 0-.07-1.66q-.17-5.47-.72-10.88l-64-5.83q.55 8.39.29 16.71v.72a247.58 247.58 0 0 1-6.77 49.92q-.5 2.06-1 4a204.64 204.64 0 0 1-14 39.26q-.85 1.87-1.73 3.67a157.47 157.47 0 0 1-22 33.71l-9.72 10.52-9.64 8.75h62.45A123.56 123.56 0 0 0 701 693.92l-21-.29a1.72 1.72 0 0 1-1.15-.43 1.65 1.65 0 0 1-.07-2.3q.89-1 1.73-1.94l.07-.07.14-.14q2.09-2.47 4-5a2 2 0 0 1 .58-.5 2.78 2.78 0 0 1 .72-.14l23.27.36a1.62 1.62 0 0 1 1 .43 128.82 128.82 0 0 0 10.88-15.27q2.72-4.48 5.19-9.08l1.15-2.3-22.69-1.08a1.43 1.43 0 0 1-.94-.43 1.59 1.59 0 0 1-.58-.86 1.84 1.84 0 0 1 .14-1.08q1.1-2.23 2.16-4.47a5 5 0 0 0 .29-.5v-.07a1.83 1.83 0 0 1 .29-.58v-.07q.33-.71.65-1.44a1.93 1.93 0 0 1 .65-.72 2.06 2.06 0 0 1 .94-.22l23.55 1.15a2.43 2.43 0 0 1 .5.07 179.74 179.74 0 0 0 10.08-29.24l-22.76-1.3a1.49 1.49 0 0 1-.94-.36 1.76 1.76 0 0 1-.58-.79h.07a1.47 1.47 0 0 1-.07-.86q.77-2.77 1.44-5.62s.06 0 .07-.07q.18-.76.36-1.58a1.8 1.8 0 0 1 .65-.86 1.93 1.93 0 0 1 1.08-.36l22.83 1.3.29.07a204.06 204.06 0 0 0 3.82-32.49l-21.18-1.37a1.46 1.46 0 0 1-1.08-.58 1.59 1.59 0 0 1-.33-1.23Zm-69.94-95.3a6.78 6.78 0 0 0 .86.36l1.3.58a64.4 64.4 0 0 1 19.74 13.25 50.34 50.34 0 0 1 14 28.6l74.19 7.13a136 136 0 0 0-9.15-16.86A66.2 66.2 0 0 0 740 490.5a45.4 45.4 0 0 0-12.78-6.5q-25.18-5.68-68.36-7.64h-1.72Zm-190.74-39.9-.14 8 7.35.5q4 .27 6.7.5h.29q7 .5 13.18 1.3 4 .43 7.64 1a106.85 106.85 0 0 1 25.35 6.55.9.9 0 0 1 .43.14 78 78 0 0 1 9.29 5.26q2.5 1.64 4.75 3.39a57.93 57.93 0 0 1 5.47 4.83l.29.29a9 9 0 0 1 .65.72l.07.07h.07l82 8.43L635 470v.07a8.2 8.2 0 0 1 7.06-3.6l11.16.29-.36-7.64Zm140.82 4.25v.07q.36-1.69.65-3.39v-.07a1.2 1.2 0 0 1 0-.14 39.77 39.77 0 0 0 .43-5.83q0-2.41-.22-5.11l-25.35 13.25a11.92 11.92 0 0 1-.36 1.37l-.07.79 23.7 3.1v-.22l.36-.94.14-.58a.93.93 0 0 1 .14-.36q.41-1.32.58-1.93Zm9.87-9.87a49 49 0 0 1-.36 6.55 3.13 3.13 0 0 1-.07.43 36.64 36.64 0 0 1-.72 4q-.26 1-.58 2l-.58 1.94 19.88 2.52q-.16-1.83-.36-3.39-.53-4.92-.94-7v-.07q-.25-1.37-.5-2.67-.5-2.34-1.08-4.61a97.48 97.48 0 0 0-4.32-13q-.23-.68-.5-1.37l-10.73 5.69a60 60 0 0 1 .85 8.99Zm56.4-72.61a31.87 31.87 0 0 1-3.24-7.71 36.38 36.38 0 0 1-1.08-7.06v-.07a40.23 40.23 0 0 1 0-4.83l-100 69.37a.93.93 0 0 1-.14.14 12.43 12.43 0 0 0-5.69 8.43q-.1.55-.14 1.08a18.15 18.15 0 0 0-.07 2.38 16.15 16.15 0 0 0 .86 4q.17.43.29.79l109.2-66.48Zm111.5-66.56a44.42 44.42 0 0 0-4.25-5.33 35.74 35.74 0 0 0-25.35-11.74 37.48 37.48 0 0 0-22 5.55l-8 6.05q-17.67 13.86-33.75 27.67l-9.87 8.5-.58.65a29.1 29.1 0 0 0-4.39 6.48 30.93 30.93 0 0 0-1.51 4v.21h-.07v.07l-.07.07a26.72 26.72 0 0 0-.79 4.18 30 30 0 0 0-.07 5.11v.07a31.18 31.18 0 0 0 .65 5.11l40-27.37a25.33 25.33 0 0 1 3.24-13.76q-.06.85.07 4.47a42.82 42.82 0 0 0 1 7.56l-.07.07a34.58 34.58 0 0 0 4.39 9.94 40.29 40.29 0 0 0 4.32 5.62 41.54 41.54 0 0 0 5 4.54 3.55 3.55 0 0 1 .72.5q.65.47 1.22.86l.29.14a35.38 35.38 0 0 0 18.22 5.76 36.65 36.65 0 0 0 13.18-1.66.11.11 0 0 0 .07-.07.18.18 0 0 0 .14-.07 34.92 34.92 0 0 0 12.61-7.64 33.82 33.82 0 0 0 11.38-24.85 34.93 34.93 0 0 0-5.73-20.67ZM566.24 519.82a4.58 4.58 0 0 0-3.17 1.37 4.71 4.71 0 0 0-1.37 3.24 4.56 4.56 0 0 0 1.37 3.24v-.07a4.52 4.52 0 0 0 6.39.09v-.07a4.06 4.06 0 0 0 1.37-3.17 4.32 4.32 0 0 0-1.37-3.24 4.47 4.47 0 0 0-3.22-1.39Zm62.38 6.34a4.67 4.67 0 0 0-4.61 4.61 4.26 4.26 0 0 0 1.37 3.17 4.37 4.37 0 0 0 3.24 1.37 4.68 4.68 0 0 0 4.54-4.54 4.46 4.46 0 0 0-1.37-3.24 4.26 4.26 0 0 0-3.18-1.37Zm-249.95 124a13.71 13.71 0 0 0-1.87-.36l-1.15-.07q-6.57 0-12 7.2a32.39 32.39 0 0 0-3.17 5.11 36.75 36.75 0 0 0-3 9.87q-.15 1.12-.29 2.23-.19 2-.22 3.89v2.23l6.27.14a31.61 31.61 0 0 0 .76 4.6l-6.48-.22q.27 1.24.58 2.38l6.63.22a29.33 29.33 0 0 0 1.37 3 14.57 14.57 0 0 0 5.55 6 9 9 0 0 0 1 .43l-1.08.22a11.77 11.77 0 0 1-7.2-.58 10.92 10.92 0 0 0 11.09 1.08 10.06 10.06 0 0 0 1.22-.72 6.87 6.87 0 0 0 .86-.43.27.27 0 0 0 .07-.14 20.9 20.9 0 0 0 4.83-4.75 33.83 33.83 0 0 0 6.56-17.31q.1-1.12.14-2.23a27.34 27.34 0 0 0-3-15 12.61 12.61 0 0 0-7.47-6.75Zm222-125.77a4.44 4.44 0 0 0-6.27-.14l-.14.14a4.34 4.34 0 0 0-1.37 3.17 4.29 4.29 0 0 0 1.37 3.24 4.34 4.34 0 0 0 3.17 1.37 4.11 4.11 0 0 0 3.17-1.37h.07a4.24 4.24 0 0 0 1.3-3.24 4.17 4.17 0 0 0-1.37-3.17Z" style="fill:#fff"/>
</svg>
