<svg xmlns="http://www.w3.org/2000/svg" viewBox="0 0 1024 1024">
   <circle cx="512" cy="512" r="512" style="fill:#026ce8"/>
   <path d="M484.5 395.87a129.76 129.76 0 0 0-142.15 28.44l-89.18 89.63A72.8 72.8 0 0 0 232 565.28c0 39.83 32.61 72.59 72.24 72.59.87 0 1.74 0 2.62-.05a54.64 54.64 0 0 1-18.72-90.61l74.59-74.92 7.91-8 2.68-2.69 3-3.06q2.8-2.76 5.77-5.28A168.52 168.52 0 0 1 493.4 411.4a170.9 170.9 0 0 1 19.95 1.16 129.35 129.35 0 0 0-28.9-16.71Zm302.25 35.39c-14.93-36.89-57.4-54.94-94.13-40l-.92.38a72.07 72.07 0 0 0-23 15.56l-54.57 54.85-7.87 7.95c-.24.23-.48.47-.73.69a24.09 24.09 0 0 1-33.32-.69l-41.87-42.07a157.2 157.2 0 0 0-94.16 6.46 81.55 81.55 0 0 1 56.55 24.19l72.39 72.74a34.2 34.2 0 0 0 48.24 0l89.37-89.8a24.62 24.62 0 0 1 2.78-2.41 54.09 54.09 0 0 1 86.39 23.24 72.7 72.7 0 0 0-5.16-31Zm-45.94 6.83a41.79 41.79 0 0 0-7.29.63 24.26 24.26 0 0 1 3.26 37L648 564.94l-.57.57q-2.33 2.35-4.85 4.5a168.63 168.63 0 0 1-112.8 43.14 170.81 170.81 0 0 1-18.57-1 130 130 0 0 0 170.23-12.4l86.66-87 2.75-2.77c1-1 1.91-2 2.82-3a42.38 42.38 0 0 0-32.87-68.82Zm-152.44 151.6a81.86 81.86 0 0 1-57.37-24.2l-72-72.4a34.61 34.61 0 0 0-24.39-10.38 33.84 33.84 0 0 0-24.17 10l-21.25 21.38-8.95 9L359.45 544l-8.62 8.67L336.6 567l-12.73 12.8-2.54 2.57a24 24 0 0 1-37.11-3.73A42.38 42.38 0 0 0 325.59 629a42 42 0 0 0 28.67-11.32l.55-.54.55-.54.73-.73 23.48-23.6 38.14-38.33a24.1 24.1 0 0 1 33.86.19L494.23 597a157.21 157.21 0 0 0 94.14-7.31Z" style="fill:#fff"/>
</svg>
