<svg xmlns="http://www.w3.org/2000/svg" data-name="Layer 1" viewBox="0 0 1024 1024">
   <circle cx="512" cy="512" r="512"/>
   <path d="M720.3 298.71c-26.7-26.7-69.67-26.7-155.61-26.7H459.3c-85.94 0-128.91 0-155.6 26.7C277 325.39 277 368.37 277 454.3v115.4c0 85.94 0 128.91 26.7 155.6C330.4 752 373.37 752 459.3 752h105.39c85.94 0 128.91 0 155.61-26.7S747 655.63 747 569.7V454.31c0-85.94 0-128.91-26.7-155.6Zm-1.79 270.99c0 43.77-.06 73.74-3.08 96.22-2.91 21.66-8.1 32.07-15.27 39.24s-17.58 12.36-39.24 15.27c-22.48 3.02-52.45 3.08-96.22 3.08H459.31c-43.77 0-73.74-.06-96.22-3.08-21.66-2.91-32.07-8.1-39.24-15.27s-12.36-17.58-15.27-39.24c-3.02-22.48-3.08-52.45-3.08-96.22V454.3c0-43.77.06-73.74 3.08-96.22 2.91-21.66 8.1-32.07 15.27-39.24s17.58-12.36 39.24-15.27c22.48-3.02 52.45-3.08 96.22-3.08H564.7c43.77 0 73.74.06 96.22 3.08 21.66 2.91 32.07 8.1 39.24 15.27 7.17 7.17 12.36 17.58 15.27 39.24 3.02 22.48 3.08 52.45 3.08 96.22v115.4ZM566.33 397.76h43.58v240.27h-45.99L453.05 466.75v171.28h-43.59V397.76h48.06l108.81 169.22V397.76Z" style="fill:#fff"/>
</svg>
