<svg xmlns="http://www.w3.org/2000/svg" viewBox="0 0 1024 1024">
   <circle cx="512" cy="512" r="512" style="fill:#00a1b7"/>
   <path d="M512 240c-150.22 0-272 121.76-272 272s121.78 272 272 272 272-121.76 272-272-121.77-272-272-272Zm128.44 360.78c-3.19 19.96-9.04 36.42-18.57 49.17-12.1 16.18-29.54 25.22-50.25 25.22-15.57 0-28.16-8.04-38.75-21.05-7.18-8.83-13.76-20.36-20.38-35-9.65-21.3-16.86-41.82-32.94-90.92l-.13-.4c-15.87-48.62-23.1-69.06-31.88-87.84a150.88 150.88 0 0 0-7.11-13.57c-2.6 8.44-4.42 20.72-5.14 36.54-1.87 40.48 3.41 100.94 15.94 180.81 2.25 14.85-7.97 28.72-22.82 30.97-14.71 2.23-28.49-7.78-30.91-22.47-13.06-83.16-18.61-146.89-16.54-191.75 1.06-24.13 4.43-43.42 10.42-58.34 7.71-19.18 20.56-32.51 38.73-36.68 17.16-3.93 32.37 2.92 44.57 16.09 7.97 8.61 15.05 20.26 22.13 35.38 10.15 21.64 17.72 43.03 34.37 94.04l.13.4c15.33 46.98 22.24 66.6 30.74 85.36 4.87 10.74 9.31 18.54 13.02 23.1l.28.34a8.31 8.31 0 0 0 2.96-2.75c3.46-4.64 6.5-13.19 8.43-25.2 3.88-24.25 2.79-58.44-2.37-100.8-5.87-48.05-15.16-85.85-27.57-113.19-5.98-13.78.34-29.8 14.12-35.78 13.46-5.85 29.14.04 35.42 13.31 14.98 33.01 25.5 75.97 32.02 129.07 5.73 46.91 6.96 85.51 2.08 115.93Z" style="fill:#fff"/>
</svg>
