<svg xmlns="http://www.w3.org/2000/svg" viewBox="0 0 1024 1024">
   <circle cx="512" cy="512" r="512" style="fill:#292929"/>
   <path d="M613.215 258.752c-83.205 37.297-176.541 62.32-214.986 159.66l-6.481-.009c-11.983-12.853-30.74-19.007-48.82-18.547-26.427.674-51.409 15.479-51.7 44.16-.284 28.21 30.749 35.276-2.593 75.891 33.342 40.616 2.308 48.136 2.594 76.344.475 46.937 67.07 56.7 97.904 28.193a932.641 932.641 0 0 0 10.02 51.576l90.011 89.233 43.672-.38c77.245-27.628 161.763-74.804 196.098-131.562 31.808-244.746-61.843-336.39-115.72-374.56Zm-.344 34.39c76.632 93.749 112.584 155.216 89.8 331.526-55.396 56.856-119.33 80.18-172.587 105.125-13.585-80.188-50.925-257.396 82.787-436.65zm-63.863 16.999h.002c-16.985 23.985-55.857 40.043-90.885 76.623-28.325 29.578-33.233 58.007-46.637 81.498-1.419-12.263 14.098-65.929 43.182-94.235 26.815-26.098 91.807-63.81 94.338-63.886zm83.558 127.119-20.896 10.049 1.916 56.187-39.865.483-5.598 28.369 39.053-1.217-24.27 56.101 16.918 9.584 22.75-56.722h2.649l22.623 33.16 17.884-25.594-25.851-30.463-.62-2.324 39.864-34.9-7.451-23.412-37.568 35.207-1.61-.5zm-281.888 6.252 39.24.07c-10.452 39.435-13.035 89.225-4.877 153.11l-34.363.06c-8.21 0-10.542-12.062-7.346-20.19 9.913-25.224 4.248-38.356-21.215-56.43 25.463-18.072 31.126-31.208 21.213-56.43-3.193-8.128-.862-20.19 7.348-20.19z" style="fill:#f9fafa"/>
</svg>
