<svg xmlns="http://www.w3.org/2000/svg" viewBox="0 0 1024 1024">
   <circle cx="512" cy="512" r="512" style="fill:#0af"/>
   <path d="M443.78 605.46v-.01Zm353.49-209.12-42.24-73.1a20.305 20.305 0 0 0-17.5-10.11h-34.57l-.22-.39h-49.26c-7.22.02-13.88 3.87-17.5 10.11l-55.31 95.71 23.31 40.62 60.93-105.88h38.34v.42h22.63l30.54 52.8-152.8 264.72h-60.93l-7.23-12.52-23.34-40.61-7.19-12.46-16.25-27.95-7.22-12.5-7.23-12.52-17.6-30.61h.22L451 511.92l30.54-52.8 61.16-.17 7.2 12.51 17.63 30.7h-.41l5.8 10.08-30.53 52.79h-60.93l7.23 12.51 16.24 27.95h49.38c7.22-.03 13.89-3.89 17.5-10.15l42.24-73.11a20.275 20.275 0 0 0-.29-20.06h-.33l.63-.16h.01l-17.34-30.62-7.23-12.52-16.25-27.89-7.18-12.56-55.32-95.71a20.305 20.305 0 0 0-17.5-10.11h-84.48a20.31 20.31 0 0 0-17.51 10.11L226.75 607.64a20.3 20.3 0 0 0 0 20.31l42.26 73.1a20.305 20.305 0 0 0 17.5 10.11h34.91l.1.17h49.51c7.23-.03 13.89-3.9 17.5-10.16l55.27-95.72-23.51-40.65-61.15 105.91h-37.62v-.17h-23.33l-30.57-52.8 152.77-264.67h61.08l37.78 65.42-49.32.01c-7.24.01-13.92 3.88-17.55 10.15l-42.24 73.1a20.3 20.3 0 0 0 0 20.31h.5l-.62.15 17.5 30.33 7.23 12.51 16.24 27.94 14.47 24.98 48.08 83.26a20.318 20.318 0 0 0 17.5 10.15h84.47c7.22-.03 13.89-3.89 17.5-10.15l164.48-284.89a20.324 20.324 0 0 0-.2-20.02Z" style="fill:#fff"/>
</svg>
