<svg xmlns="http://www.w3.org/2000/svg" viewBox="0 0 1024 1024">
   <circle cx="512" cy="512" r="512" style="fill:#bebebe"/>
   <path d="m378.67 481.29 56.57 87.27V463.52l33.94-11.31v147.06l-43.64 14.55L369 526.55V631.6l-34 9.69V494.22Zm122.82 155.15 248.89 67.88-227.87 71.11L272 707.55Zm0-387.88v377.52l2.63.72 246.3 67.2L752 295.44ZM532 543.08a2.71 2.71 0 0 1 3.59-2.75L663 574.45a5.11 5.11 0 0 1 3.59 4.68v12.93a2.71 2.71 0 0 1-3.59 2.75l-127.4-34.12A5.11 5.11 0 0 1 532 556Zm166.66 95c0 1.62-1.62 3.23-3.23 1.62l-160-42-3.23-4.85V581.5c0-3.23 1.62-3.23 3.23-3.23l160 42 3.23 4.85Zm0-76-3.23 3.23-160-43.64c-1.62 0-3.23-1.62-3.23-4.85v-11.28l3.23-3.23 160 43.64 3.23 3.23Z" style="fill:#fff"/>
</svg>
