<svg xmlns="http://www.w3.org/2000/svg" viewBox="0 0 1024 1024">
   <circle cx="512" cy="512" r="512" style="fill:#fdca40"/>
   <path d="M224 460.65c.11-2.12 1.9-3.79 4.01-3.79h5.13l83.97 80.74v-74.61a3.99 3.99 0 0 1 4.01-4.01h25.54c2.23.11 3.9 1.78 4.01 4.01v141.52c-.11 2.12-1.9 3.79-4.01 3.79h-3.57c-1-.11-1.9-.45-2.68-1l-82.97-83.53v78.4a3.99 3.99 0 0 1-4.01 4.01h-25.2c-2.23 0-4.13-1.78-4.24-4.01V460.65Zm187.13 2.34v86.87c.89 31.78 26.43 57.21 58.21 58.21 33.12 1 60.67-25.09 61.67-58.21v-86.87c-.11-2.23-1.78-3.9-4.01-4.01h-25.65a3.99 3.99 0 0 0-4.01 4.01v85.09c0 14.39-11.71 26.1-26.1 26.1s-26.1-11.71-26.1-26.1v-85.09a3.99 3.99 0 0 0-4.01-4.01h-25.65c-2.23.11-3.9 1.78-4.01 4.01h-.33Zm181.55 1v137.06c0 2.79 2.34 5.13 5.13 5.13h24.53c2.79 0 5.13-2.34 5.13-5.13v-62.67l48.51 65.8c1 .89 2.34 1.45 3.79 1.45h29c.78-.11 1.56-.33 2.34-.78 2.45-1.45 3.12-4.68 1.67-7.03l-53.42-69.59 49.18-61.56c.45-.67.67-1.34.78-2.12.33-2.79-1.67-5.35-4.57-5.69h-26.43c-1.56.22-3.01.89-4.01 2.12l-46.73 58.21v-55.2c0-2.79-2.34-5.13-5.13-5.13h-24.53c-2.9 0-5.13 2.34-5.24 5.13Zm169.18 138.17c.11 2.23 1.78 3.9 4.01 4.01h25.2c2.23-.11 3.9-1.78 4.01-4.01V462.98c-.11-2.23-1.78-3.9-4.01-4.01h-25.2c-2.23.11-3.9 1.78-4.01 4.01v139.18Zm-5.02-228.06c.11 11.71 9.7 21.19 21.41 21.08 12.04 0 21.75-9.7 21.75-21.75s-9.7-21.75-21.75-21.75h-.67c-11.82.33-21.08 10.15-20.74 21.86v.56Z" style="fill:#fff"/>
</svg>
