<svg xmlns="http://www.w3.org/2000/svg" viewBox="0 0 1024 1024">
   <circle cx="512" cy="512" r="512" style="fill:#2c232e"/>
   <path d="M642 276H382a106 106 0 0 0-106 106v260a106 106 0 0 0 106 106h260a106 106 0 0 0 106-106V382a106 106 0 0 0-106-106zM480 649.21h-17.65L432 605.72h-34.85v43.53h-14.71v-107h63.45c18.22 0 34.09 13.51 34.09 31.73 0 17.29-14.32 30.35-31.36 31.61zm0-167.48h-27.65l-51.11-93.43h-4.11v93.42h-14.7V374.79H410l51.12 93.42h4.12v-93.42H480zm64-106.94h14.7v62.29c0 20.56 13.5 35.84 34.08 35.84s34.09-15.28 34.09-35.84v-62.29h14.68v62.29c0 28.19-20.58 49.36-48.77 49.36S544 465.27 544 437.08zm97.58 181h-41.14v79.91h41.13v13.51H544V635.7h41.14v-79.91H544v-13.52h97.55zM465.32 574c0 11.17-9.44 18.23-19.4 18.23h-48.77v-36.44h48.77c9.99 0 19.4 7.04 19.4 18.21z" style="fill:#fff"/>
</svg>
