<svg xmlns="http://www.w3.org/2000/svg" viewBox="0 0 1024 1024">
   <circle cx="512" cy="512" r="512" style="fill:#1a1a1a"/>
   <path d="M755.04 390.6c-11.53-27.23-32.63-40.01-52.37-58.61-9.87-12.57-19.43-25.15-29.3-37.72-45.62-31.8-114.72-49.57-190.48-50.29-18.6 14.44-75.13 22.65-100.49 33.46-50.29 21.61-77 60.27-104.64 104.64-2.91 4.78-10.7 11.33-12.57 16.73-1.45 13.2-2.7 26.6-4.16 39.8-3.12 13.2-10.7 30.34-12.57 41.88-2.08 13.2 3.53 41.67 6.23 54.45.62 12.57 1.45 25.15 2.08 37.72 14.03 52.79 41.25 87.91 69.1 125.63 2.7 3.74 2.91 9.66 6.23 12.57 13.41 12.57 36.47 15.48 52.37 25.15 14.44 8.83 30.34 22.86 46.03 29.3 33.25 14.03 135.19 11.74 173.75 0 12.57-3.74 34.5-11.12 46.03-18.81 13.2-8.83 22.86-25.98 35.54-35.54 87.81-66.19 121.79-195.57 69.21-320.37Zm-54.45 148.7v31.38c-3.12 7.79-14.03 16.11-18.81 23.07-9.25 13.2-14.03 32.42-25.15 43.96-22.45 23.07-60.89 37.72-94.25 50.29-11.74 4.36-34.5 20.06-50.29 16.73-9.46-2.08-20.47-11.95-29.3-14.65h-43.96c-15.69-5.2-32.63-26.39-43.96-37.72-15.9-15.9-40.84-32.84-50.29-54.45-25.36-58.4-9.87-176.45 23.07-219.78 11.33-14.86 75.13-48.94 96.33-56.53 10.08-3.53 28.89 1.04 37.72-4.16 34.71 0 65.15.21 89.99 10.5 24.32 9.87 68.9 61.31 87.91 81.68 8.83 11.53 4.57 33.46 10.5 48.11 3.74 9.66 13.82 20.06 16.73 29.3 4.68 14.13-3.53 40.11-6.23 52.27Z" style="fill:#fff"/>
</svg>
