<svg xmlns="http://www.w3.org/2000/svg" viewBox="0 0 1024 1024">
   <circle cx="512" cy="512" r="512" style="fill:#000"/>
   <path d="M767.998 598.938c49.025 0 88.769-39.744 88.769-88.77s-39.744-88.768-88.77-88.768-88.768 39.743-88.768 88.769c0 49.025 39.743 88.769 88.769 88.769m-106.523 0c-49.024 0-88.769-39.745-88.769-88.77 0-49.023 39.745-88.768 88.77-88.768zM554.953 421.4h-88.77v177.538h88.77zM359.66 598.938c49.024 0 88.77-39.745 88.77-88.77 0-49.023-39.746-88.768-88.77-88.768zm-106.522 0c49.025 0 88.769-39.744 88.769-88.77s-39.744-88.768-88.77-88.768-88.768 39.743-88.768 88.769c0 49.025 39.743 88.769 88.769 88.769" style="fill:#fff"/>
</svg>
