<svg xmlns="http://www.w3.org/2000/svg" viewBox="0 0 1024 1024">
   <circle cx="512" cy="512" r="512" style="fill:#191919"/>
   <path d="m540.48 231.94-11.68 143.9a146.49 146.49 0 0 0-16.72-.95 129.44 129.44 0 0 0-20.83 1.58l-6.63-69.74a3.82 3.82 0 0 1 3.79-4.1h11.83l-5.68-70.53a3.79 3.79 0 0 1 3.63-4.1h38.66a3.61 3.61 0 0 1 3.63 4.1ZM443 239a3.78 3.78 0 0 0-4.89-2.52l-36.29 13.25a3.7 3.7 0 0 0-2.05 5l29.5 64.37-11.27 4.2a3.7 3.7 0 0 0-2.05 5l30.14 63.27a135.27 135.27 0 0 1 35.18-13.41L443.13 239Zm-89 40.08 83.46 117.7a136.8 136.8 0 0 0-28.4 24.61l-50-49.23a3.81 3.81 0 0 1 .16-5.52l9.15-7.57-49.7-50.33a3.7 3.7 0 0 1 .32-5.52l29.5-24.77a3.65 3.65 0 0 1 5.36.63Zm-70.05 68.16a3.75 3.75 0 0 0-5.36 1.26L259.32 382a3.73 3.73 0 0 0 1.58 5.21l64.1 30.28-6 10.26a3.63 3.63 0 0 0 1.74 5.21l63.74 29.19a133.6 133.6 0 0 1 18.3-32.82Zm-47.18 90.88a3.72 3.72 0 0 1 4.58-3L381 471.61a138.19 138.19 0 0 0-6 37.24l-69.9-5.68a3.64 3.64 0 0 1-3.31-4.42l2.05-11.68-70.53-6.63A3.74 3.74 0 0 1 230 476l6.63-38Zm-5.21 94.35a3.74 3.74 0 0 0-3.31 4.42L235 575a3.72 3.72 0 0 0 4.58 3l68.48-17.83 2.05 11.68a3.72 3.72 0 0 0 4.58 3l67.53-18.62a136.72 136.72 0 0 1-7.1-36.92l-143.73 13.2Zm22.4 100a3.73 3.73 0 0 1 1.58-5.21l130.32-61.85a134.46 134.46 0 0 0 19.41 32.34l-57.12 40.71a3.71 3.71 0 0 1-5.36-1.1l-6-10.41-58.22 40.23a3.75 3.75 0 0 1-5.37-1.18l-19.4-33.46Zm157.93-27.07L310.44 708.12a3.7 3.7 0 0 0 .32 5.52l29.66 24.77a3.65 3.65 0 0 0 5.36-.63l41-57.75 9.15 7.73a3.73 3.73 0 0 0 5.52-.79l39.76-57.75A141.78 141.78 0 0 1 412 605.4Zm-20 164.88a3.7 3.7 0 0 1-2.05-5L449.91 634a131.54 131.54 0 0 0 35.5 12.31l-17.67 67.84a3.72 3.72 0 0 1-4.89 2.52l-11.2-4.1-18.78 68.32a3.78 3.78 0 0 1-4.89 2.52l-36.29-13.25ZM495.35 648l-11.67 143.9a3.79 3.79 0 0 0 3.63 4.1H526a3.61 3.61 0 0 0 3.63-4.1l-5.68-70.53h11.83a3.82 3.82 0 0 0 3.79-4.1l-6.63-69.74a129.44 129.44 0 0 1-20.83 1.58 117.56 117.56 0 0 1-16.72-1.1Zm139.16-389.55a3.65 3.65 0 0 0-2.05-5l-36.29-13.25a3.78 3.78 0 0 0-4.89 2.52L572.51 311l-11.2-4.1a3.78 3.78 0 0 0-4.89 2.52l-17.67 67.84a141.12 141.12 0 0 1 35.5 12.31l60.27-131.11Zm79.2 57.27L612.27 418.44a137.72 137.72 0 0 0-29.19-23.82l39.76-57.75a3.85 3.85 0 0 1 5.52-.79l9.15 7.73 41-57.75a3.66 3.66 0 0 1 5.36-.63l29.66 24.77a3.82 3.82 0 0 1 .32 5.52Zm54.91 80.78a3.61 3.61 0 0 0 1.58-5.21l-19.4-33.44a3.88 3.88 0 0 0-5.36-1.26l-58.22 40.23-6-10.26a3.6 3.6 0 0 0-5.36-1.1l-57.12 40.71a139.74 139.74 0 0 1 19.41 32.34l130.32-61.85Zm20.51 52.38 6.63 38a3.81 3.81 0 0 1-3.31 4.42l-143.74 13.44a135.56 135.56 0 0 0-7.1-36.92l67.53-18.62a3.62 3.62 0 0 1 4.58 3l2.05 11.68L784.25 446a3.72 3.72 0 0 1 4.58 3Zm-6.47 139.63a3.72 3.72 0 0 0 4.58-3l6.63-38a3.81 3.81 0 0 0-3.31-4.42L720 536.46l2.05-11.68a3.81 3.81 0 0 0-3.31-4.42l-69.9-5.68a138.19 138.19 0 0 1-6 37.24l139.63 36.45Zm-37.23 86.79a3.88 3.88 0 0 1-5.36 1.26l-118.81-82a133.6 133.6 0 0 0 18.3-32.82l63.74 29.19a3.67 3.67 0 0 1 1.7 5.17l-6 10.26 64.06 30.29a3.73 3.73 0 0 1 1.58 5.21l-19.21 33.44Zm-158.88-48.44L670 744.56a3.66 3.66 0 0 0 5.36.63l29.5-24.77a3.82 3.82 0 0 0 .32-5.52l-49.7-50.33 9.15-7.57a3.69 3.69 0 0 0 .16-5.52l-50-49.23a136.19 136.19 0 0 1-28.4 24.61h.16Zm-.79 160.3a3.78 3.78 0 0 1-4.89-2.52l-38.18-139.16a135.27 135.27 0 0 0 35.18-13.41L608 695.34a3.61 3.61 0 0 1-2.05 5l-11.2 4.1 29.5 64.37a3.65 3.65 0 0 1-2.05 5l-36.29 13.25h-.16Z" style="fill:#fff"/>
</svg>
