<svg xmlns="http://www.w3.org/2000/svg" viewBox="0 0 1024 1024">
   <circle cx="512" cy="512" r="512"/>
   <path d="M379.71 416.01H196.27c-2.29-.04-4.31 1.97-4.27 4.27v183.44c-.04 2.29 1.97 4.32 4.27 4.27h183.44c2.29.04 4.32-1.97 4.27-4.27V420.28c.04-2.29-1.97-4.32-4.27-4.27Zm-59.73 123.72c.04 2.29-1.97 4.31-4.27 4.27h-55.46c-2.29.04-4.31-1.97-4.27-4.27v-55.46c-.04-2.29 1.97-4.31 4.27-4.27h55.46c1.13 0 2.22.45 3.02 1.25.8.8 1.25 1.88 1.25 3.02v55.46Zm448.05 0c0 2.36-1.91 4.27-4.27 4.27H708.3c-2.36 0-4.27-1.91-4.27-4.27v-55.46c0-2.36 1.91-4.27 4.27-4.27h55.46c2.36 0 4.27 1.91 4.27 4.27v55.46Zm-64.02-119.45v55.46c0 2.36-1.91 4.27-4.27 4.27h-55.46c-2.36 0-4.27-1.91-4.27-4.27v-55.46c0-2.36 1.91-4.27 4.27-4.27h55.46c2.36 0 4.27 1.91 4.27 4.27Zm127.98 0v55.46c0 2.36-1.91 4.27-4.27 4.27h-55.46c-2.36 0-4.27-1.91-4.27-4.27v-55.46c0-2.36 1.91-4.27 4.27-4.27h55.46c2.36 0 4.27 1.91 4.27 4.27ZM704.01 548.26v55.46c0 2.36-1.91 4.27-4.27 4.27h-55.46c-2.36 0-4.27-1.91-4.27-4.27v-55.46c0-2.36 1.91-4.27 4.27-4.27h55.46c2.36 0 4.27 1.91 4.27 4.27Zm127.98 0v55.46c0 2.36-1.91 4.27-4.27 4.27h-55.46c-2.36 0-4.27-1.91-4.27-4.27v-55.46c0-2.36 1.91-4.27 4.27-4.27h55.46c2.36 0 4.27 1.91 4.27 4.27ZM607.94 420.28v55.46c0 2.36-1.91 4.27-4.27 4.27h-55.46c-2.36 0-4.27-1.91-4.27-4.27v-55.46c0-2.36 1.91-4.27 4.27-4.27h55.46c2.36 0 4.27 1.91 4.27 4.27Zm0 127.98v55.46c0 2.36-1.91 4.27-4.27 4.27h-55.46c-2.36 0-4.27-1.91-4.27-4.27v-55.46c0-2.36 1.91-4.27 4.27-4.27h55.46c2.36 0 4.27 1.91 4.27 4.27Zm-63.99-8.58c.04 2.29-1.97 4.31-4.27 4.27h-59.73v59.68c.04 2.29-1.97 4.32-4.27 4.27h-55.46c-2.29.04-4.31-1.97-4.27-4.27V420.28c-.04-2.29 1.97-4.32 4.27-4.27h55.46c2.29-.04 4.31 1.97 4.27 4.27v59.68h59.73c1.13 0 2.22.45 3.02 1.25.8.8 1.25 1.88 1.25 3.02v55.46Z" style="fill:#fff"/>
</svg>
