<svg xmlns="http://www.w3.org/2000/svg" viewBox="0 0 1024 1024">
   <circle cx="512" cy="512" r="512" style="fill:#e4002b"/>
   <path d="M320.33 478.5c28.58 0 51.89 26 51.89 57.86s-23.31 57.74-51.89 57.74-51.77-25.77-51.77-57.74 23.19-57.86 51.77-57.86Zm-.23 98.38c17.1 0 31.04-18.04 31.04-40.17s-13.94-40.17-31.04-40.17-31.04 18.04-31.04 40.17 13.94 40.17 31.04 40.17Zm164.22-95.8 21.79.59.47 91 36.43-.47 3.51 19.91-62.31-.12.12-110.92Zm216.8 46.85.35.23 43.34-.23v53.06c-29.87 18.04-54.23 9.6-54.23 9.6a46.852 46.852 0 0 1-35.14-36.66c-7.03-29.63 4.33-49.31 4.33-49.31 11.01-21.79 29.75-24.83 29.75-24.83 25.77-7.49 49.89 6.33 49.89 6.33l-3.16 19.91c-30.45-20.38-48.96-4.22-48.96-4.22-14.76 10.66-12.88 35.84-12.88 35.84 1.17 22.02 12.41 30.45 12.41 30.45 16.87 12.18 39.35 2.11 39.35 2.11l-.23-24.71h-21.9l-2.93-17.57ZM333.09 255.59l-.28 184.31c-3.79-.45-7.6-.68-11.41-.69h-.02c-53.61-.26-97.31 43.17-97.38 96.79.07 53.62 43.77 97.06 97.38 96.79 3.77 0 7.48-.22 11.14-.63l-.14 91.58h55.98l410.75-.58-90.26-90.55c50.73-2.99 91.08-45.09 91.14-96.59 0-53.36-43.55-96.78-97.12-96.79h-.02c-47.08-.23-86.5 33.24-95.46 77.71-8.66-42.98-45.98-75.75-91.2-77.6L333.07 255.61ZM321.36 446.8h.02c49.49 0 89.55 39.96 89.56 89.2-.06 49.42-40.13 89.33-89.55 89.21h-.03c-49.5.25-89.71-39.7-89.77-89.2.07-49.51 40.27-89.46 89.77-89.21Zm190.8 0h.02c49.49 0 89.55 39.96 89.56 89.2-.06 49.42-40.13 89.33-89.55 89.21h-.03c-49.5.25-89.71-39.7-89.77-89.2.07-49.51 40.27-89.46 89.77-89.21Zm190.69 0h.02c49.49 0 89.55 39.96 89.56 89.2-.06 49.42-40.13 89.33-89.55 89.21h-.03c-49.51.25-89.7-39.7-89.77-89.2.07-49.51 40.26-89.46 89.77-89.21Z" style="fill:#fff"/>
</svg>
