<svg xmlns="http://www.w3.org/2000/svg" viewBox="0 0 1024 1024">
  <circle cx="512" cy="512" r="512" style="fill:#e4002b" />
  <path id="b"
    d="m345.32 302.09-.23 153.5a81.589 81.589 0 0 0-9.506-.576h-.016c-44.646-.216-81.04 35.955-81.096 80.604v.008c.056 44.65 36.452 80.822 81.1 80.604 3.139.007 6.23-.185 9.277-.528l-.113 76.268h46.625l342.08-.486-75.166-75.412c42.25-2.488 75.849-37.554 75.902-80.445v-.004c0-44.434-36.268-80.598-80.883-80.607h-.018c-39.205-.189-72.038 27.684-79.498 64.713-7.213-35.795-38.294-63.088-75.953-64.629zm-9.768 159.24h.016c41.215 0 74.583 33.282 74.584 74.289-.052 41.157-33.419 74.397-74.576 74.293h-.023c-41.228.207-74.708-33.059-74.764-74.287v-.008c.056-41.228 33.535-74.495 74.764-74.287zm158.9 0h.016c41.215 0 74.583 33.282 74.584 74.289-.052 41.157-33.419 74.397-74.576 74.293h-.023c-41.228.207-74.708-33.059-74.764-74.287v-.008c.056-41.228 33.535-74.495 74.764-74.287zm158.81 0h.016c41.215 0 74.583 33.282 74.584 74.289-.052 41.157-33.419 74.397-74.576 74.293h-.023c-41.229.207-74.707-33.059-74.762-74.287v-.008c.056-41.228 33.533-74.495 74.762-74.287z"
    style="fill:#fffcfd;stroke-width:9.7543" />
  <path id="e"
    d="m651.81 528.9.293.195 36.09-.195v44.187c-24.873 15.022-45.162 7.999-45.162 7.999a39.017 39.017 0 0 1-29.263-30.531c-5.853-24.678 3.609-41.066 3.609-41.066 9.169-18.143 24.776-20.68 24.776-20.68 21.46-6.242 41.553 5.268 41.553 5.268l-2.634 16.582c-25.361-16.973-40.773-3.512-40.773-3.512-12.29 8.877-10.73 29.848-10.73 29.848.975 18.338 10.34 25.361 10.34 25.361 14.046 10.144 32.775 1.756 32.775 1.756l-.195-20.582h-18.241z"
    style="fill:#fffcfd;stroke-width:9.7543" />
  <path id="f" d="m471.26 489.88 18.143.488.39 75.79 30.336-.39 2.926 16.583-51.893-.098z"
    style="fill:#fffcfd;stroke-width:9.7543" />
  <path id="g"
    d="M334.69 487.73c23.801 0 43.212 21.655 43.212 48.186s-19.411 48.089-43.212 48.089-43.114-21.46-43.114-48.089c0-26.629 19.314-48.186 43.114-48.186zm-.195 81.936c14.24 0 25.849-15.022 25.849-33.457s-11.608-33.457-25.85-33.457-25.848 15.022-25.848 33.457c0 18.533 11.608 33.457 25.849 33.457z"
    style="fill:#fffcfd;stroke-width:9.7543" />
</svg>