<svg xmlns="http://www.w3.org/2000/svg" viewBox="0 0 1024 1024">
  <circle cx="512" cy="512" r="512" style="fill:#e4002b" />
  <path id="g"
    d="M313.33 500.91c28.373 0 51.512 25.814 51.512 57.441 0 31.627-23.139 57.326-51.512 57.326s-51.395-25.582-51.395-57.326 23.024-57.441 51.395-57.441zm-.232 97.674c16.975 0 30.814-17.907 30.814-39.883s-13.838-39.883-30.815-39.883-30.813 17.907-30.813 39.883c0 22.093 13.838 39.883 30.814 39.883zm163.03-95.111 21.628.582.464 90.347 36.163-.465 3.488 19.768-61.86-.117zm215.23 46.515.349.232 43.022-.232v52.674c-29.65 17.907-53.836 9.535-53.836 9.535a46.511 46.511 0 0 1-34.884-36.395c-6.977-29.418 4.302-48.954 4.302-48.954 10.93-21.628 29.535-24.652 29.535-24.652 25.582-7.44 49.534 6.28 49.534 6.28l-3.14 19.767c-30.232-20.233-48.604-4.186-48.604-4.186-14.65 10.582-12.79 35.58-12.79 35.58 1.161 21.86 12.325 30.233 12.325 30.233 16.744 12.092 39.07 2.093 39.07 2.093l-.232-24.535h-21.745zm-365.36-270.37-.275 182.98a97.26 97.26 0 0 0-11.332-.687h-.019c-53.22-.257-96.606 42.861-96.672 96.086v.01c.067 53.225 43.453 96.345 96.677 96.085 3.742.008 7.427-.22 11.06-.629l-.135 90.917h55.58l407.78-.58-89.603-89.896c50.365-2.966 90.418-44.767 90.48-95.896v-.004c0-52.97-43.233-96.08-96.417-96.09h-.022c-46.735-.225-85.875 33.002-94.767 77.144-8.598-42.67-45.649-75.205-90.542-77.042zm-11.644 189.83h.019c49.13 0 88.908 39.675 88.91 88.558-.062 49.062-39.838 88.687-88.9 88.563h-.028c-49.147.247-89.057-39.409-89.124-88.556v-.009c.067-49.147 39.976-88.803 89.124-88.556zm189.42 0h.019c49.13 0 88.908 39.675 88.91 88.558-.062 49.062-39.838 88.687-88.9 88.563h-.028c-49.147.247-89.057-39.409-89.124-88.556v-.009c.067-49.147 39.976-88.803 89.124-88.556zm189.31 0h.019c49.13 0 88.908 39.675 88.91 88.558-.062 49.062-39.838 88.687-88.9 88.563h-.028c-49.148.247-89.056-39.409-89.122-88.556v-.009c.067-49.147 39.974-88.803 89.122-88.556z"
    style="fill:#fffcfd;stroke-width:11.628" />
</svg>