<svg xmlns="http://www.w3.org/2000/svg" viewBox="0 0 1024 1024">
   <circle cx="512" cy="512" r="512" style="fill:#ac3400"/>
   <path d="M478.3 357.3c4.9-18 10.6-35.6 17-52.5h19.2v52.4h-1.3c-12 0-23.7 0-34.9.1zm-50.3 1c8.6-18.1 18.5-35.9 29.6-53.1 7.6-.1 15.6-.2 24-.3-6.3 17-11.9 34.7-16.7 52.6-12.4.2-24.8.5-36.9.8zm86.6 231.3c-17.5-.1-35-.3-52.2-.7-3.2-23.3-4.9-47.1-5.1-70.8h57.3v71.5zm-19 127.1c-6.7-17.3-12.6-35-17.6-52.5 11.4.1 23.3.2 35.6.2h1v52.4h-8.3c-3.7 0-7.2 0-10.7-.1zm120.1-358c-12.6-.4-25-.7-37.1-.9-4.8-17.9-10.3-35.5-16.6-52.5 7.9.1 15.9.3 24.2.5 11.1 17 20.9 34.8 29.5 52.9zm-50.4-1.1c-13-.2-25.6-.3-37.9-.4v-52.3c6.8 0 13.7.1 20.9.2 6.4 16.9 12.1 34.5 17 52.5zm138.4 68.9c-17.1-1.4-34-2.6-50.5-3.6-4.6-16.9-10.5-33.9-17.5-50.7 14.2.5 28.6 1.1 43 1.8 10.3 17.3 18.7 34.9 25 52.5zM384.3 585.6c-16.6-1-32.7-2.1-48-3.4-6.7-21.3-10.4-42.8-11.2-64.1h52.3c0 22.6 2.3 45.2 6.9 67.5zM599 505.2c-.3-24-2.1-48.2-5.3-72.1 17.1.5 33.4 1.2 49.4 2.1 5.7 23.4 9.1 46.9 10 70.1l-54.1-.1zM404 649.7c-12.6-.4-25.1-.9-37.4-1.5-10.6-17.4-19.2-35.1-25.8-52.7 15.1 1.2 30.7 2.2 46.3 3.1 4.3 17.1 9.9 34.2 16.9 51.1zm35 66.2c-7.6-.2-14.7-.4-21.2-.6-16.4-17.9-30.8-35.9-42.8-53.9 11.3.5 22.9.9 34.6 1.3 8.3 18 18.1 35.9 29.4 53.2zM325 505.2c.4-21.9 4-44 10.6-65.8 16.6-1.4 33.8-2.6 51.5-3.6-5.4 23.1-8.6 46.4-9.5 69.4H325zm14.9-79c6.4-17.7 14.8-35.4 25.2-52.7 13.9-.7 28.2-1.3 42.9-1.7-7.1 17-13 34.1-17.6 51.1-17.2.9-34.1 2-50.5 3.3zm33.5-66c12.2-18.6 26.6-36.7 42.8-53.9 7.9-.3 16.5-.6 26-.8-10.7 17.2-20.3 35-28.5 53.1-13.7.5-27.2 1-40.3 1.6zm30.5 61.9c4.8-16.9 10.9-34 18.2-50.8 12.4-.4 25.6-.7 39.5-.9-4 16.4-7.3 33.1-10 49.8-16 .5-32 1.1-47.7 1.9zm60.9-2.3c2.7-16.7 6.1-33.3 10.2-49.6 12.3-.1 25.1-.2 38.4-.2h1.3v49.2c-16.7 0-33.4.2-49.9.6zm114 .1c-17-.4-34.2-.6-51.4-.7V370c13.3.1 27.1.2 41.3.4 4 16.2 7.4 32.8 10.1 49.5zm-51.4 98.2h58.8c-.2 23.7-1.9 47.4-5.1 70.7-17.8.5-35.8.7-53.7.8v-71.5zm-70.1-12.9c.3-24.1 2.2-48.5 5.5-72.6 17-.4 34.4-.7 51.7-.7v73.3h-57.2zm-66.8 0c.9-23.2 4.2-46.8 10-70.2 16.2-.8 32.7-1.5 49.4-2-3.2 23.9-5 48.1-5.3 72.2h-54.1zm123.4 146.4c-13.6 0-26.7-.1-39.3-.2-4.2-16.3-7.6-33-10.3-49.6 16.5.4 33.4.6 50.3.7v49.2l-.7-.1zm68.4-.7c4-16.3 7.4-32.9 10-49.6 17.2-.5 34.2-1.2 50.7-2.1-4.4 16.9-10.2 33.9-17.4 50.5-14.2.5-28.8.9-43.3 1.2zm-132.9-62.4c-17.2-.5-34.6-1.3-51.9-2.2-4.8-22.4-7.3-45.3-7.3-68.2h54.3c.2 23.5 1.9 47.2 4.9 70.4zm11.9 62.6c-14.7-.2-29.2-.6-43.2-1-7.2-16.7-13.1-33.8-17.5-50.9 16.9.9 33.9 1.6 50.7 2 2.6 16.9 6 33.6 10 49.9zM311.6 363.9c14.7-20.8 32.2-39.1 52.3-54.8 4.2-.3 15.7-1.2 34.3-2-15.4 17.3-28.9 35.4-40.5 53.9-20.5 1-36.1 2.1-46.1 2.9zm-34.4 68.4c6.3-19.2 14.8-37.6 25.4-54.8 6.4-.5 22.6-1.8 47.2-3.2-9.9 17.5-17.9 35.3-23.9 53.1-22.4 1.9-39 3.7-48.7 4.9zM384 294.9c16.1-10.2 33.1-18.5 51-24.9-7.2 6.4-15.6 14.3-24.5 23.6-10.5.5-19.3 1-26.5 1.3zm82.4-2.6c13.2-19 23.9-31.2 27.8-35.5 2.7-.3 5.5-.5 8.4-.7-3.9 7.9-9.7 20.1-16 36-7.1 0-13.8.1-20.2.2zm-37.2.8c18.2-17.8 32.7-28.9 36.7-31.8 3-.7 6-1.3 9.1-1.8-6.4 7.9-14.9 19-24.3 33.1-7.7.1-14.8.3-21.5.5zM264.7 505.2c.5-20.1 3.4-40.1 8.6-59.6 7.2-.9 23.9-2.9 48.6-5.1-6 21.4-9.3 43.1-9.7 64.7h-47.5zm217.2 211.5c-9.6-.1-18.6-.2-27.1-.4-11.8-17.3-22.1-35.1-30.7-53.1 13.4.4 27 .7 40.6.9 4.8 17.5 10.6 35.1 17.2 52.6zM500.4 292c5.7-14.1 10.8-24.7 14.2-31.4V292h-14.2zm-25.6 471.8c-2.9-.5-5.7-1.1-8.6-1.7-12.6-10.9-24.5-22.2-35.7-33.6 5.5.2 11.3.3 17.5.4 8.2 11.7 17.2 23.4 26.8 34.9zm130-48.5c11.2-17.3 21-35.1 29.2-53 11.4-.4 23-.9 34.8-1.4-11.9 17.9-26.2 35.9-42.5 53.7-7.3.2-14.4.5-21.5.7zm54.5-129.9c4.5-22.2 6.8-44.8 6.8-67.4h52.3c-.8 21.2-4.5 42.7-11.1 63.8-16.2 1.5-32.3 2.7-48 3.6zm-131.9 79c12.3-.1 25.1-.2 38.1-.4-4.9 17.6-10.8 35.2-17.5 52.5-7.1.1-13.9.2-20.6.2v-52.3zm0-372.4v-34.5c3.3 6.3 9.1 18.2 15.8 34.7-5.4-.1-10.6-.1-15.8-.2zm87.6 1.8c-7.4-.2-14.7-.5-21.8-.6-9.4-14.1-18-25.4-24.4-33.3 3.2.6 6.3 1.3 9.5 2 4.8 3.4 19 14.5 36.7 31.9zm-37.5-1.1c-7-.1-13.8-.3-20.4-.4-6.4-16.1-12.1-28.4-16-36.2 2.8.2 5.7.5 8.5.8 4 4.5 14.8 16.9 27.9 35.8zm81.2 2.7c-8.5-.4-16.9-.7-25-1-8.7-9.1-17-17-24.2-23.4 17.3 6.4 33.7 14.5 49.2 24.4zm71.9 68.7c-14.4-.9-29.1-1.8-44.4-2.5-11.5-18.5-25-36.5-40.2-53.8 10.5.4 21.2.9 32.2 1.4 20.2 15.6 37.7 34.1 52.4 54.9zm-126 389.7c5.7-5.4 8.8-8.2 10.8-10.1 4-3.7 4-3.7 12.6-12.4l4-4.1c6.5-.3 13.9-.5 21.5-.7 3.1-.1 6.3-.1 9.4-.2-17 10.7-36.8 20.1-58.3 27.5zM322.2 581c-24.9-2.2-42.3-4.4-49.9-5.4-4.8-18.8-7.5-38.1-8-57.6h47.6c.7 21 4.1 42.1 10.3 63zm29 66.4c-25.6-1.4-43.2-3-50-3.6-10.3-17.2-18.6-35.4-24.7-54.5 10 1.2 27.3 3.1 50.2 5 6.2 17.7 14.4 35.5 24.5 53.1zm48.8 67.2c-19.3-.9-31.4-1.7-35.8-2-21.8-17.2-40.2-36-53.8-55 10.7.8 27.4 1.9 48.9 3 11.4 18 25 36.1 40.7 54zm40 39.7c-19.8-6.9-38.8-16.2-56.4-27.7 7.6.4 17.1.9 28.4 1.3 8.3 8.7 18 17.6 28 26.4zm74.4 6.8c-3.9-8.8-9.5-21.4-13.8-31.5h13.8v31.5zm-11 6.5c-3.2-.2-6.6-.5-9.3-.7-10.9-12.3-21.1-24.8-30.3-37.3 7.3.1 14.9.2 23 .3 5.2 12.8 10.9 25.8 16.6 37.7zm24-38.1c5 0 10.1-.1 15.4-.1-4.7 11-11.2 24.8-15.4 33.7v-33.6zm12 38.5c4.9-10.5 12.6-27.3 17.4-38.8 7.6-.1 15.3-.3 23.3-.4-10.1 14-20.1 26.6-30.5 38.3-3.5.3-6.9.6-10.2.9z" style="fill:#fff"/>
</svg>
