<svg xmlns="http://www.w3.org/2000/svg" viewBox="0 0 1024 1024">
   <circle cx="512" cy="512" r="512" style="fill:#e54b4d"/>
   <path d="M511.5 240.35c-150.08.3-272.34 123.5-271.49 273.59a272.027 272.027 0 0 0 70.66 181.33 272.058 272.058 0 0 0 173.72 87.72c.44.04.88 0 1.29-.14.42-.14.8-.36 1.12-.66.32-.29.58-.65.76-1.06.18-.4.27-.84.26-1.27V512.37h-21.14c-.83 0-1.62-.33-2.21-.92-.59-.59-.92-1.38-.92-2.21v-42.21c0-.83.33-1.62.92-2.21.59-.59 1.38-.92 2.21-.92h66.35c.83 0 1.62.33 2.21.92.59.59.92 1.38.92 2.21v312.83c0 .44.09.87.26 1.27.18.4.44.76.76 1.06.32.29.71.52 1.12.66.42.14.86.19 1.29.14a272.017 272.017 0 0 0 178.9-93.58 272.039 272.039 0 0 0-19.39-374.47 271.985 271.985 0 0 0-187.61-74.59Zm77.31 482.04c-.47.17-.98.22-1.47.15a3.14 3.14 0 0 1-2.7-3.11v-44.65c0-.89.25-1.76.73-2.51.48-.75 1.16-1.35 1.96-1.73a175.185 175.185 0 0 0 82.61-82.25 175.163 175.163 0 0 0 12.71-115.88 175.145 175.145 0 0 0-62.82-98.2 175.228 175.228 0 0 0-110.53-37.04c-93.05 1.42-169.4 76.46-172.36 169.48a175.36 175.36 0 0 0 25.51 96.8 175.464 175.464 0 0 0 74.31 67.08c.8.38 1.48.98 1.96 1.73s.73 1.62.73 2.51v44.65c0 .5-.12 1-.35 1.44a3.14 3.14 0 0 1-2.35 1.67c-.5.07-1 .02-1.47-.15a223.96 223.96 0 0 1-146.8-212.09c1.06-121.44 100.3-220.6 221.79-221.5 124.11-1 225.33 99.68 225.33 223.56 0 96.33-61.19 178.63-146.78 210.02Z" style="fill:#fff"/>
</svg>
