<svg xmlns="http://www.w3.org/2000/svg" viewBox="0 0 1024 1024">
   <circle cx="512" cy="512" r="512"/>
   <path d="M742.86 463.11c12.23-36.7 8.02-76.91-11.54-110.3-29.41-51.21-88.53-77.55-146.27-65.15a134.34 134.34 0 0 0-101.28-45.16c-59.02-.13-111.39 37.87-129.55 94.02a134.368 134.368 0 0 0-89.8 65.14c-29.63 51.07-22.87 115.45 16.71 159.24a134.263 134.263 0 0 0 11.54 110.3c29.41 51.21 88.53 77.55 146.27 65.15a134.22 134.22 0 0 0 101.28 45.14c59.06.15 111.44-37.88 129.6-94.09 37.92-7.77 70.64-31.5 89.8-65.14 29.6-51.07 22.82-115.4-16.74-159.19l-.02.03Zm-202.6 283.17c-23.63.03-46.52-8.24-64.66-23.38.83-.44 2.26-1.23 3.18-1.8l107.33-61.99c5.49-3.12 8.86-8.96 8.83-15.28V492.52l45.36 26.19c.49.24.81.71.88 1.25v125.3c-.07 55.72-45.19 100.9-100.91 101.01Zm-217.02-92.69a100.584 100.584 0 0 1-12.04-67.68c.79.47 2.19 1.33 3.18 1.9l107.33 61.99a17.501 17.501 0 0 0 17.64 0l131.03-75.66v52.39c.03.54-.22 1.06-.64 1.4l-108.49 62.64c-48.33 27.83-110.04 11.29-137.99-36.97h-.02Zm-28.25-234.28a100.638 100.638 0 0 1 52.57-44.28c0 .93-.05 2.56-.05 3.71v123.99c-.03 6.3 3.34 12.14 8.81 15.26l131.03 75.65-45.36 26.19c-.45.3-1.03.35-1.53.13l-108.51-62.69c-48.22-27.93-64.77-89.63-36.97-137.94l.02-.02Zm372.69 86.73-131.03-75.66 45.36-26.18c.45-.3 1.03-.35 1.53-.13l108.51 62.64c48.31 27.91 64.87 89.71 36.96 138.02A100.998 100.998 0 0 1 676.46 649V521.3c.05-6.3-3.3-12.13-8.76-15.26h-.02Zm45.14-67.95c-.79-.49-2.19-1.33-3.18-1.9L602.31 374.2a17.501 17.501 0 0 0-17.64 0l-131.03 75.66v-52.39c-.03-.54.22-1.06.64-1.4l108.49-62.59c48.33-27.88 110.11-11.29 137.97 37.06a100.956 100.956 0 0 1 12.04 67.54h.03Zm-283.84 93.37-45.38-26.19c-.49-.24-.81-.71-.88-1.25v-125.3c.03-55.79 45.29-101 101.08-100.96 23.6 0 46.44 8.29 64.58 23.38-.83.44-2.24 1.23-3.18 1.8l-107.33 61.99a17.435 17.435 0 0 0-8.83 15.26l-.07 151.24v.03Zm24.64-53.13 58.36-33.71 58.36 33.69v67.39l-58.36 33.69-58.36-33.69v-67.38Z" style="fill:#fff"/>
</svg>
