<svg xmlns="http://www.w3.org/2000/svg" viewBox="0 0 1024 1024">
   <circle cx="512" cy="512" r="512" style="fill:#ed7f22"/>
   <path d="M597.2 505.5c0-47.7-38.4-86.1-86.1-86.1-47.7 0-86.1 38.4-86.1 86.1 0 37.2 23.3 68.5 55.8 80.2l-33.7 176.7H575l-32.5-176.7c31.4-12.9 54.7-43.1 54.7-80.2m186.8 5.8c0-148.8-122.1-269.7-272-269.7S240 362.4 240 511.3c0 98.8 53.4 184.8 133.7 231.3l17.4-115.1c-25.6-27.9-41.9-66.3-41.9-106.9 0-88.3 72-160.4 161.6-160.4s161.6 72 161.6 160.3c0 41.9-16.3 79-41.9 108.1L648 743.8c81.4-46.6 136-133.8 136-232.5" style="fill:#fff"/>
</svg>
