<svg xmlns="http://www.w3.org/2000/svg" viewBox="0 0 1024 1024">
   <circle cx="512" cy="512" r="512" style="fill:#7fadf2"/>
   <path d="M735.7 357.1c30.5 44 48.3 97.3 48.3 154.9s-17.8 110.9-48.3 154.9l-70.4-70.4c13.8-25.1 21.7-53.9 21.7-84.5s-7.9-59.4-21.7-84.5l70.4-70.4zm-68.8-68.8-70.4 70.4C571.4 344.9 542.6 337 512 337c-96.6 0-174.9 78.3-174.9 174.9s78.3 175 174.9 175c30.6 0 59.4-7.9 84.5-21.7l70.4 70.4c-44 30.5-97.3 48.3-154.9 48.3-150.2 0-272-121.8-272-272s121.8-272 272-272c57.6.1 110.9 17.9 154.9 48.4z" style="fill:#fff"/>
</svg>
