<svg xmlns="http://www.w3.org/2000/svg" viewBox="0 0 1024 1024">
   <circle cx="512" cy="512" r="512" style="fill:#a70014"/>
   <path d="M422.5 358.7c-30.1 35.5-49.5 88-50.9 146.9v12.8c1.4 58.9 20.8 111.3 50.9 146.9 39 50.7 97 82.9 161.8 82.9 39.8 0 77.1-12.2 109-33.3-49.8 44.6-114.4 69.2-181.3 69.1-4.4 0-8.7-.1-12.9-.3C354.7 777 240 657.9 240 512c0-150.3 121.8-272 272-272h1.1c66.5.2 130.7 24.8 180.3 69.2-31.9-21.1-69.2-33.3-109-33.3-64.9 0-122.9 32.2-161.9 82.8zM784 512c.1 77.4-32.9 151.2-90.7 202.8-69.8 34-134.8 10.2-156.3-4.6 68.5-15.1 120.3-97.9 120.3-198.1S605.5 329 537 313.9c21.5-14.9 86.5-38.6 156.3-4.6 57.8 51.5 90.8 125.3 90.7 202.7z" style="fill:#fff"/>
</svg>
