<svg xmlns="http://www.w3.org/2000/svg" viewBox="0 0 1024 1024">
   <circle cx="512" cy="512" r="512" style="fill:#ff195b"/>
   <path d="M482.36 831.39c-54.52-5.62-102.89-22.87-148.15-52.83-8.5-5.63-15.78-10.75-16.17-11.38-.91-1.44-1.22-1.59 12.91 5.65 28.03 14.36 58.51 23.5 90.25 27.07 15.07 1.7 47.33 1.45 62.55-.51 44.28-5.63 84.13-21.02 115.91-44.76 9.26-6.92 26.06-23.04 33.63-32.27 37.15-45.31 49.27-109.97 30.99-165.25-7.78-23.55-20.36-43.65-38.86-62.15-13.59-13.59-25.97-22.59-41.93-30.48-25.68-12.69-48.92-17.64-77.94-16.59-42 1.51-79.21 18.03-108.62 48.21-22.39 22.97-36.02 48.59-42.96 80.74-1.94 8.98-2.23 13.18-2.21 31.57.02 23.38 1.39 32.72 7.41 50.81 18.28 54.83 65.19 95.9 122.48 107.2 9.02 1.78 14.62 2.19 30.14 2.24 21.79.07 21.8-.03-.61 6.53-59.94 17.55-119.66 13.16-171.37-12.62-15.28-7.61-25.79-14.11-39.46-24.37-13.94-10.46-36.61-32.69-46.84-45.94-32.43-41.97-52.41-89.74-59.88-143.14-2.42-17.3-2.4-58.56.05-76.37 8-58.38 28.27-108.22 62.38-153.41 53.52-70.91 131.88-115.53 220.88-125.78 18.2-2.1 51.75-2.1 70.05-.01 84.89 9.69 162.14 52.26 215.07 118.52 64.56 80.82 85.97 186.02 58.32 286.56-10.54 38.33-32.82 81.68-58.25 113.37-52.07 64.88-125.39 106.31-208.73 117.93-13.26 1.85-58.19 2.75-71.03 1.43v.02Z" style="fill:#fff"/>
</svg>
