<svg xmlns="http://www.w3.org/2000/svg" viewBox="0 0 1024 1024">
   <circle cx="512" cy="512" r="512" style="fill:#00b0ff"/>
   <path d="M452.1 493.8H310c-21 0-38-17-38-38V313.7c0-21 17-38 38-38h142.1c21 0 38 17 38 38v142.1c0 21-17 38-38 38zM752 455.9V313.7c0-21-17-38-38-38H571.9c-21 0-38 17-38 38v142.1c0 21 17 38 38 38H714c21 0 38-17 38-37.9zM490.1 710.3V568.1c0-21-17-38-38-38H310c-21 0-38 17-38 38v142.1c0 21 17 38 38 38h142.1c21 .1 38-16.9 38-37.9zm261.9 0V568.1c0-21-17-38-38-38H571.9c-21 0-38 17-38 38v142.1c0 21 17 38 38 38H714c21 .1 38-16.9 38-37.9z" style="fill:#fff"/>
</svg>
