<svg xmlns="http://www.w3.org/2000/svg" viewBox="0 0 1024 1024">
   <circle cx="512" cy="512" r="512" style="fill:#8139aa"/>
   <path d="m604.79 306.56 23.47-28.16c4.55-5.43 3.81-13.49-1.61-18.04l-.59-.44c-5.43-4.55-13.49-3.81-18.04 1.61l-23.47 28.16c-4.55 5.43-3.81 13.49 1.61 18.04l.59.44c5.43 4.55 13.49 3.81 18.04-1.61Zm-69.81-32.27-1.61-37.99c-.29-6.75-6.01-12.03-12.76-11.73h-.88c-6.75.29-12.03 6.01-11.73 12.76l1.61 37.99c.29 6.75 6.01 12.03 12.76 11.73h.88c6.75-.15 12.03-5.87 11.73-12.76Zm93.28 108.09 33.44-2.64c7.04-.59 12.32-6.75 11.73-13.79l-.15-1.17c-.59-7.04-6.75-12.32-13.79-11.73l-33.44 2.64c-7.04.59-12.32 6.75-11.73 13.79l.15 1.17c.59 7.04 6.75 12.32 13.79 11.73Zm-67.91 369.45c-5.13-3.52-10.12-7.04-14.96-11-4.25-3.08-8.36-7.33-12.17-10.71-.44-.44-1.03-.59-1.61-.59-6.31-.29-12.61 0-18.92-.29-15.55-.29-31.24.59-46.93-.29-1.32-.15-2.49-1.17-2.49-2.49-.88-26.4 0-52.95-.44-79.35 0-1.91-.73-3.67-2.05-5.13-6.16-7.33-13.05-14.81-18.33-23.17-1.32-2.2-4.84-1.17-4.84 1.47 0 2.79 0 4.84.15 8.07v98.12c0 1.47-1.17 2.64-2.64 2.64-7.19 0-13.93 0-21.41-.29-1.47 0-2.49-1.17-2.49-2.64.44-63.36-.29-126.87.29-190.08 0-1.47 1.17-2.64 2.64-2.64 6.89 0 14.37 0 21.27.15 1.47 0 2.49 1.17 2.49 2.64 0 4.4.15 7.77.15 11.15 0 2.64 3.52 3.67 4.84 1.32 2.93-4.84 5.87-9.68 9.97-13.64 6.6-5.87 13.49-11.73 22-14.67 6.75-2.35 13.79-3.81 20.83-4.4 1.47-.15 2.64-1.47 2.35-2.93-.88-6.16-1.91-12.47-3.08-18.63-.59-2.49-1.03-5.13-2.64-7.04a2 2 0 0 0-.59-.44c-3.23-2.2-7.04-3.52-10.71-4.69-1.17-.29-1.91-1.47-1.91-2.64.29-9.39 7.19-17.75 6.89-27.28v-.29c-1.76-13.79-5.57-27.13-7.48-40.77v-.15c-1.91-11.59-4.55-22.15-5.87-33.59-1.47-12.76-3.52-25.52-4.84-38.28-.88-10.71-2.93-21.41-7.63-31.09-7.48-14.08-21.27-25.37-37.25-27.87-11.59-2.79-23.76.59-34.03 6.16-12.61 8.07-22 21.56-25.52 36.52-1.47 6.31-1.03 12.91-1.17 19.36 0 1.76-1.76 3.08-3.52 2.49-9.53-3.23-18.92-7.04-28.31-10.71q-.15 0-.29-.15c-9.68-5.13-21.12-6.75-31.83-4.4-9.53 2.49-17.45 9.39-22.73 17.6 0 .15-.15.15-.15.29-5.13 9.68-7.19 20.68-11.59 30.8q0 .15-.15.29c-3.23 11-7.63 21.56-10.41 32.56-.88 3.67.88 7.19 2.64 10.27 2.64 4.4 8.07 5.43 12.32 7.19 58.67 23.03 117.33 45.76 176 68.79 3.52 1.32 7.04 2.35 10.56 3.81 2.64 1.03 1.91 4.99-.88 5.13h-.15c-45.91-.15-91.96 0-137.87-.15-15.69.29-31.53-1.03-47.23-.29-4.84.29-9.53 3.08-11.73 7.33-.15.15-.15.44-.29.59-1.91 8.21-1.03 16.72-.88 24.93 0 57.2.15 114.4.15 171.6.29 7.63.15 15.69 3.96 22.73 6.31 14.37 21.56 24.64 37.4 23.91 85.51-.15 171.01.15 256.52.15 1.76 0 3.81 0 5.57-.29 2.35-.59 2.93-3.67 1.03-4.99ZM405.62 309.04c13.64-5.87 30.07 3.08 34.17 16.87q0 .15.15.29c3.52 16.13 4.99 32.56 7.33 48.99.29 1.91-1.47 3.37-3.23 2.93-7.77-2.2-15.25-5.72-22.88-8.51-8.95-3.96-19.65-5.57-26.11-13.79-12.91-14.08-7.63-40.33 10.56-46.79Zm16.57 92.99c-2.05 7.48-5.13 14.52-7.19 22q0 .15-.15.29c-3.52 8.36-5.43 17.45-9.24 25.67-.59 1.32-2.05 1.91-3.37 1.32-35.35-13.35-70.25-27.72-105.45-41.21-4.11-1.61-8.65-2.64-12.17-5.43-.73-.59-1.03-1.47-1.03-2.49.44-3.81 2.2-7.33 3.37-11 4.11-9.97 6.01-20.68 11.29-30.21 2.79-4.4 8.21-6.31 13.2-5.13.15 0 .29.15.44.15 34.76 14.08 69.96 27.43 104.87 41.07 1.32.59 2.64 1.17 3.81 1.91 1.47.73 1.91 1.91 1.61 3.08Zm32.85 66.59a2.63 2.63 0 0 1-3.08 1.76c-5.87-1.32-11-4.4-16.72-6.16-2.2-.88-6.16-2.2-4.69-5.13 4.11-14.81 9.39-29.63 14.23-44.15.15-.44.29-.88.44-1.32.29-.73.73-1.61 1.32-2.2.88-.73 2.2-.59 3.23-.29l19.36 6.75c1.32.59 2.05 1.76 1.76 3.08-4.4 16.13-10.85 31.68-15.84 47.67Zm-68.79 75.97v110c-.59 23.91-.59 47.96 0 71.87.59 3.08-3.23 2.49-5.13 2.79h-84.04c-5.28.15-10.71-2.49-13.2-7.19-3.52-6.31-2.79-13.64-2.79-20.53v-162.8c.44-1.61-.88-5.28 1.76-5.43 31.68-.59 63.36 0 95.04-.29 1.91 0 3.96 0 6.01.15 1.47 0 2.49 1.17 2.49 2.64-.15 3.08-.15 5.87-.15 8.8Zm404.65 51.33c.59-16.13-2.79-31.83-5.13-47.67-3.67-16.28-6.16-32.71-9.83-48.99-2.93-15.11-4.11-32.27-15.84-43.56-11-12.32-29.63-17.31-45.17-11.44-5.13 1.17-9.09 4.99-14.23 6.01-4.69-4.4-10.41-7.33-16.28-9.83-12.32-4.84-26.69-2.05-37.55 5.28-4.55 3.67-8.65-1.76-12.61-3.67-12.03-7.48-26.99-5.43-40.04-1.91-3.08-9.09-3.08-18.77-5.87-27.87-2.93-15.99-6.45-31.97-9.24-48.11-2.93-13.2-11.73-24.93-23.61-31.24-8.36-5.13-18.63-4.84-28.01-3.96-17.6 2.79-30.95 18.19-35.05 35.05-3.81 17.89 2.93 35.64 5.87 53.09 1.76 12.32 5.13 24.2 7.04 36.52 5.72 29.33 11.29 58.67 17.31 88-5.87-1.61-11.44-3.96-17.45-4.69-13.05-3.08-27.28.88-37.25 9.83-18.63 16.28-21.12 47.08-6.16 66.73 18.33 23.17 37.11 45.91 55.44 68.93 6.6 7.77 12.47 15.99 19.36 23.47 19.21 23.61 46.2 40.77 75.83 48.11 29.33 7.92 60.87 4.11 88.44-7.92 40.63-18.04 71.43-55.59 83.6-98.12 4.55-16.87 7.04-34.47 6.45-52.07Zm-22.15 2.93c.29 28.16-7.92 56.32-23.47 79.79-14.52 20.97-34.61 38.87-58.81 47.52-33.15 13.35-72.31 9.39-102.52-9.39-23.32-13.79-39.01-36.52-55.73-57.2-14.08-16.87-27.28-34.17-41.36-51.04-4.55-5.72-9.97-11.29-12.03-18.48-3.52-11.73 3.23-26.25 15.4-29.63 7.77-2.49 16.87 0 22.29 6.16 12.17 14.23 23.32 29.33 35.49 43.71 1.03 1.47 2.49 2.2 4.11 2.79.88.29 2.05.15 2.79-.59 1.47-1.32 3.08-2.64 2.79-4.84-.88-11.73-4.55-23.03-6.45-34.47-1.91-12.47-5.28-24.64-7.19-37.11-1.76-10.71-4.84-21.12-6.16-31.83-5.87-26.69-10.27-53.53-16.13-80.23-2.2-15.69-6.75-30.95-8.36-46.64-.73-9.68 4.55-20.39 14.08-23.76 9.09-3.81 20.53-.29 25.96 7.92 3.81 4.99 4.25 11.29 5.57 17.16 3.08 13.93 4.99 28.16 8.51 41.95 1.61 11 3.96 22 6.31 32.85 1.61 13.05 5.72 25.81 7.19 38.87.88 4.11 1.17 9.39 5.28 11.73 1.76.59 2.79.29 4.11-.44 1.32-.73 2.2-2.05 2.2-3.67.44-7.04-2.79-13.93-1.03-20.97 2.2-8.36 8.65-15.99 17.31-17.75 9.68-2.49 20.39 3.37 24.35 12.47 4.11 9.68 4.25 20.39 7.33 30.21.15.73.59 1.17 1.17 1.61 1.91 1.32 4.4 1.61 6.31.44.88-.59 1.47-1.17 1.61-2.35 1.03-6.01-1.47-11.88-1.32-18.04-.29-11.59 9.09-22.88 20.83-23.76 10.12-.59 20.09 6.6 22.73 16.43 2.35 9.24 3.23 19.07 6.45 28.01 1.47 2.79 4.84 2.05 7.33.73.73-.44 1.32-1.17 1.32-1.91.59-3.52-.44-6.75-.88-10.56-.88-8.65 1.47-17.45 7.48-23.47 5.87-4.99 14.52-7.77 21.85-4.55 8.51 3.23 13.79 11.59 15.25 20.39 2.2 14.23 5.87 28.16 8.07 42.39 4.69 23.17 10.41 46.05 9.97 69.52Z" style="fill:#fff"/>
</svg>
