<svg xmlns="http://www.w3.org/2000/svg" viewBox="0 0 1024 1024">
   <circle cx="512" cy="512" r="512" style="fill:#8139aa"/>
   <path d="m515.88 248.3c-3.9928 0-7.9875 1.9953-9.1283 4.562-2.852 7.4151 1.9958 42.21 6.559 46.774 7.7003 7.9855 13.975-5.8e-4 14.831-19.109 1.1408-22.245-2.5648-32.227-12.262-32.227zm91.011 29.089c-3.7432-0.14267-8.7348 2.7094-14.296 8.5559-19.108 20.534-22.814 31.085-12.262 36.789 5.4188 2.852 7.7017 1.428 19.965-12.262 11.408-12.264 13.972-16.826 13.402-23.671-0.5704-6.1318-3.0664-9.2698-6.8096-9.4124zm-186.93 19.648c-6.1273-0.0223-12.314 1.1723-18.16 3.739-16.541 7.1299-29.946 29.375-29.946 49.339 0 3.7076-0.28603 6.559-0.85643 6.559-0.28519 0-10.838-3.9917-23.387-8.84-20.249-7.7004-23.956-8.2735-33.367-5.7068-5.7039 1.9964-13.118 6.5601-16.255 10.553-7.1299 9.1263-23.956 58.751-22.53 67.307 0.8556 5.704 11.976 10.839 89.265 41.355 48.769 19.108 90.978 35.648 94.115 36.789 3.1372 1.426-35.648 3.1383-86.128 3.9939-50.48 0.8556-92.689 2.5648-94.115 3.7056-1.1408 1.426-2.281 46.205-2.281 99.822 0 108.95 0.28354 110.94 19.677 120.07 8.8411 3.9928 23.673 4.5643 134.33 3.9939l124.35-0.8564-13.974-10.553c-13.69-10.552-13.974-10.554-45.061-11.409l-31.086-0.85225-1.4288-39.93c-1.426-39.072-1.7098-40.211-9.9806-50.763l-8.5559-10.553-1.4246 50.479-1.4288 50.767-11.977 0.85225-12.262 0.85643v-179.96h12.834c11.693 0 12.834 0.57179 12.834 7.1314 0 7.1299 0.28406 7.1286 8.84-2.8534 10.267-11.693 16.54-15.399 32.511-19.677l11.693-3.1375-2.281-11.693c-1.7112-8.2708-4.564-12.549-9.4124-14.831-6.8448-3.1372-6.842-3.4218-2.8492-15.115 3.9928-10.552 3.7078-14.546-1.1405-39.358-3.1372-15.115-7.702-42.494-10.269-61.032-2.5668-18.538-5.7042-37.077-7.4154-41.355-6.6308-17.754-24.49-28.768-42.872-28.835zm-1.3703 22.952c2.745-0.0357 5.7388 1.177 11.443 3.6012 5.704 2.2816 10.553 7.1291 12.55 11.977 2.852 7.9855 9.699 50.198 7.9878 51.624-1.7112 1.7112-41.924-15.686-47.058-20.249-12.549-11.408-9.7-35.082 5.1302-43.068 4.7058-2.5668 7.2021-3.8496 9.9471-3.8853zm111.43 19.706c-0.47575 0.0107-0.91129 0.0612-1.3034 0.15037-0.8556 0.28519-3.9942 1.1425-7.1314 1.7128-9.1263 2.2816-21.105 11.976-25.668 20.818-6.5595 12.834-5.1327 27.668 9.4124 101.82l13.974 69.016-17.396-1.7128c-15.116-1.1408-18.825-0.56648-27.381 5.4226-18.253 12.264-24.812 35.931-15.115 54.469 9.6967 18.823 82.994 106.09 96.969 115.22 28.52 19.108 39.072 22.246 73.866 22.246 30.801 0 31.942-0.28464 53.617-10.837 52.762-26.238 81.567-78.717 77.86-141.75-1.9964-30.801-17.114-105.81-23.103-114.65-10.838-15.401-34.509-21.106-50.195-12.55-5.9892 3.4224-7.7001 3.4238-13.974-1.4246-8.2707-6.5595-30.518-7.4148-39.074-1.1405-5.4187 3.7076-7.1299 3.4207-17.112-1.7129-8.2707-4.278-14.258-5.1305-22.814-3.9897l-11.693 1.7087-3.1374-12.262c-1.426-6.8448-5.1316-24.244-7.9836-39.074-3.9928-21.39-6.8467-28.806-13.406-36.221-6.1496-7.2191-22.074-15.441-29.211-15.265zm-0.37599 22.468c5.5614-0.2139 11.193 1.9248 15.328 6.488 3.4224 3.7076 6.5587 10.267 7.6995 15.115 0.8556 4.5632 5.9894 31.943 11.693 60.748 5.4188 28.805 9.9805 52.761 9.9805 53.617 0 0.57041 1.9964 1.1405 4.278 1.1405 3.7076 0 4.2805-1.995 2.5693-9.9805-1.9964-11.408 3.7062-22.532 14.259-27.381 9.4115-4.278 23.959 3.4221 26.24 13.974 4.8484 21.39 5.9858 24.527 9.4082 25.668 2.5668 0.8556 3.4226-1.7082 3.1375-8.2677-0.8556-16.256-0.28235-19.395 5.7067-25.384 12.834-12.834 31.941-3.7095 35.648 16.54 2.5668 15.686 4.2782 20.538 7.4154 20.538 1.426 0 2.5651-5.704 2.5651-12.834 0-22.531 20.534-35.079 34.224-21.39 6.2744 6.2743 5.7054 4.5601 15.687 55.325 12.549 65.025 8.2693 102.96-15.687 136.33-22.816 32.227-50.765 46.485-89.837 46.485-42.209 0-62.17-11.408-99.246-56.754-46.772-57.325-56.186-70.442-56.186-79.569 0-16.827 19.679-28.233 31.943-18.536 2.2816 1.9964 11.691 13.115 20.817 24.523 15.115 19.108 23.672 24.529 22.246 14.547-0.28519-2.2816-9.6948-50.193-20.817-106.38-10.838-56.469-19.965-104.1-19.965-105.81 0-1.9964 2.5685-6.8473 5.9908-11.125 3.8502-4.8484 9.3405-7.4146 14.902-7.6285zm-207.13 3.0664c2.5668 0 24.813 7.9844 49.055 17.396 24.527 9.6967 47.341 18.539 50.763 19.965l6.2749 2.281-7.4154 22.246c-3.9928 12.263-8.2685 23.101-9.1241 24.527-1.7112 1.7112-106.38-37.361-110.37-41.639-1.9964-1.9964 6.5629-29.661 11.982-38.502 2.2816-3.4224 6.2732-6.2749 8.84-6.2749zm300.34 0.40523c-10.437-4e-3 -14.824 1.0397-17.141 3.5887-1.9964 2.5668-2.8537 7.4154-1.7128 11.693 1.7112 6.8447 2.8531 7.1272 21.106 7.1272 22.245 0 30.228-3.9903 28.517-14.543-0.8556-6.5595-1.9961-6.8439-22.53-7.6995-3.1015-0.10695-5.83-0.16598-8.2384-0.16705zm-172.29 48.077c0.8556 0 5.7023 1.9975 11.121 3.9939 5.4188 2.2816 9.9806 5.4182 9.9806 6.559 0 1.1408-3.4227 12.264-7.4154 24.527-5.704 16.827-8.5562 21.962-11.693 20.822-2.2816-1.1408-7.4135-2.5701-11.121-3.4257-3.7076-0.8556-6.8431-3.1338-6.8431-5.1302 0-4.5632 14.545-47.346 15.971-47.346zm-152.87 114.08h96.965v179.67h-42.207c-33.368 0-43.349-0.85448-48.482-4.5621-6.2744-4.278-6.2749-4.5632-6.2749-89.837z" style="fill:#ffffff"/>
</svg>
