<svg xmlns="http://www.w3.org/2000/svg" viewBox="0 0 1024 1024">
   <circle cx="512" cy="512" r="512" style="fill:#8139aa"/>
   <path d="m 517.56598,239.25001 c -2.52556,-0.0352 -4.91298,1.29676 -7.15792,3.96262 -3.64803,4.48988 -2.52556,42.65379 1.40308,49.10797 1.96432,3.08679 7.29715,3.64914 13.75134,1.12358 6.45419,-2.52556 6.45419,-43.77846 0,-49.95204 -2.80618,-2.80616 -5.47094,-4.20707 -7.9965,-4.24213 z m 89.04659,30.64866 c -5.12455,0.0632 -11.70151,5.13004 -19.59387,15.12699 -12.34709,15.1533 -14.59646,23.29233 -8.70351,29.18528 5.89295,5.89295 10.10447,3.64689 24.69649,-13.75133 15.71451,-18.80133 15.15333,-17.67891 11.22469,-25.25555 -1.9994,-3.57787 -4.54906,-5.34323 -7.6238,-5.30539 z m -181.05829,19.64866 c -7.6117,-0.45601 -15.32872,0.81005 -21.22167,3.89685 -0.70683,0.372 -1.29116,1.05644 -1.98403,1.47432 -0.15014,0.0904 -0.39121,0.11534 -0.53713,0.20823 -0.78273,0.47833 -0.7061,0.76569 -1.43598,1.26059 v 0.005 c -6.96943,4.74397 -13.02693,11.35384 -17.39606,19.18281 -0.628,1.08935 -0.98378,2.2448 -1.5401,3.36519 -1.34659,2.79834 -2.76807,5.53861 -3.62829,8.44045 -1.31669,4.30571 -2.09916,8.66268 -2.09916,12.92373 0,5.73549 -1.11696,8.14307 -3.50223,7.24015 -2.05193,-0.87321 -12.27691,-4.73913 -22.87686,-9.20228 -9.12003,-3.64799 -14.10212,-5.54327 -18.13598,-6.03434 -0.008,-8.6e-4 -0.014,0.005 -0.0225,0.005 -4.07265,-0.49318 -7.23449,0.41312 -12.70998,2.37869 -2.227,0.75718 -4.01723,1.94873 -5.91926,3.01992 -0.23374,0.12684 -0.51141,0.23038 -0.73993,0.3617 -0.64907,0.32911 -1.35952,0.56192 -1.97306,0.95917 l -0.005,0.005 c -0.15546,0.10464 -0.34008,0.20484 -0.49327,0.31241 -0.59219,0.43414 -1.08806,1.16381 -1.65519,1.64972 l -0.005,0.005 c -2.2168,1.77624 -4.65396,3.24851 -6.32484,5.75484 -0.61027,0.91537 -1.64933,4.18992 -2.36771,5.57397 -3.20083,5.81745 -6.38081,12.987 -10.26007,23.89083 -0.13553,0.37708 -0.21746,0.66962 -0.32335,0.9975 -0.28441,0.82049 -0.51056,0.95576 -0.8002,1.80866 -1.06388,3.15837 -0.73666,4.14469 -1.54011,6.85648 -2.28459,7.42522 -4.76179,15.16438 -5.21771,19.74186 -0.005,0.0542 -0.0553,0.17651 -0.0603,0.2301 -0.0252,0.33091 -0.47683,1.51675 -0.47683,1.79223 0,1.38103 0.42125,2.1662 0.61386,3.21174 0.11729,1.1606 0.29301,2.27038 0.60837,3.16792 0.014,0.028 0.003,0.0721 0.0168,0.0987 0.0661,0.17286 0.21046,0.2475 0.27948,0.41655 0.51298,1.19598 0.94058,2.49068 1.84702,3.20627 0.20964,0.14986 3.45173,1.37876 3.98455,1.64972 0.42629,0.24161 0.59881,0.66209 1.06875,0.87693 1.01199,0.43372 18.33059,7.21755 23.78121,9.39958 0.39367,0.15519 0.462,0.1998 0.86048,0.35625 1.5673,0.63491 1.46583,0.70221 3.42003,1.46885 2.02748,0.804 1.85534,0.7401 3.77625,1.50176 0.21467,0.0814 0.21777,0.0994 0.43299,0.18071 0.18017,0.071 0.70348,0.27277 0.8879,0.3453 12.51673,4.96294 24.74482,9.80739 25.21169,10.04082 0.014,0 0.0195,-0.11337 0.028,-0.17539 3.13247,1.2263 6.5175,2.54774 9.92574,3.8804 10.89467,4.28233 11.8183,4.74023 24.00043,9.4818 l 48.25299,18.82655 36.88579,14.57345 -90.19212,1.39764 c -1.20064,0.0168 -1.17008,0.0426 -2.34032,0.0603 -25.87012,0.0168 -40.50123,0.23739 -53.07058,0.5426 -1.728,-0.10079 -1.50607,-0.26969 -4.35725,-0.32336 -3.542,-0.0466 -3.74073,0.37432 -6.42897,0.433 -7.00934,0.26377 -13.42769,0.62717 -16.78771,1.13449 -0.37753,0.0865 -1.56127,0.0385 -1.9128,0.13162 -0.0954,0.0195 -0.0929,0.0578 -0.18633,0.0766 -3.27014,0.61988 -5.15171,1.39439 -6.11658,2.43348 -0.0759,0.0705 -0.10747,0.3336 -0.18072,0.41105 -0.35402,0.25394 -1.32494,0.42518 -1.50175,0.71252 -0.0511,0.0766 -0.0376,2.7215 -0.0876,2.86645 -0.86394,2.82432 -1.55105,6.96595 -1.94568,15.40654 -0.6314,13.50458 -0.77279,36.44635 -0.77279,76.01325 v 0.22475 0.0547 c 5.5e-4,25.15334 0.0718,44.60549 0.43845,59.67496 0.10889,4.48081 0.49064,6.31038 0.65769,10.06823 0.29268,6.28914 0.67489,13.50062 1.18387,18.02636 0.27725,2.43714 0.56674,5.48994 0.92076,7.49776 1.16777,6.55605 2.64417,11.72979 4.85052,15.06672 2.47323,3.73762 5.69881,6.12238 9.90929,8.6487 2.07001,1.21343 4.15706,2.14316 7.30042,2.87195 0.57288,0.12598 1.83695,0.19896 2.49927,0.31242 0.26687,0.0503 0.36583,0.15966 0.64123,0.2082 0.62445,0.1392 1.27927,-0.0393 1.92377,0.0875 2.7812,0.3901 6.45099,0.772 11.00547,1.00847 2.74664,0.12881 12.16951,0.10017 15.72439,0.19195 0.96485,-0.11056 2.49427,0.30403 3.35425,0.14789 9.85527,0.17902 15.63285,0.50423 33.03828,0.50423 4.47353,0 6.84162,-0.0742 10.68757,-0.0932 3.67212,0.003 3.51216,0.0932 7.55254,0.0932 6.231,0 6.48784,-0.11645 11.85498,-0.12598 5.31169,0.005 5.46304,0.0923 11.41651,0.0932 0.35815,0.005 0.44329,0.033 0.86048,0.033 0.1507,0 0.13049,-0.028 0.27951,-0.028 1.62704,1.5e-4 1.40961,0.028 3.08568,0.028 3.07909,0 2.96862,-0.0426 5.88639,-0.0438 3.32896,0 2.93882,0.0438 6.46186,0.0438 h 124.87458 l -12.34824,-10.66564 -12.62776,-10.38064 -11.10411,-0.48232 c -5.30597,-0.74956 -11.657,-1.23309 -23.12899,-1.4798 l -27.29986,-0.75089 c -3.24874,-2.45502 -3.48352,-9.18172 -4.13254,-38.8205 l -0.83856,-38.72187 -9.8216,-13.19228 c -5.01008,-6.51311 -8.44694,-10.94104 -9.52015,-12.27154 -0.35799,-0.38494 -0.48179,-1.22736 -0.86596,-1.47432 -0.49109,-0.28062 -0.87693,-0.42312 -1.16192,-0.4275 -0.85502,-0.0141 -0.798,1.1981 0.0437,3.51319 0.52633,1.31583 0.57623,2.24982 0.9208,3.55157 0.0113,4.66554 0.002,17.52673 0.48229,39.37954 1.12247,58.64876 0.83955,59.77364 -13.47179,59.77364 h -11.2246 v -88.39438 -1.40308 -86.99129 h 10.94516 c 8.52318,0 10.67773,1.3595 12.09063,6.10561 0.14845,0.45019 0.44072,0.52089 0.581,1.04684 0.15238,0.60726 0.30293,0.87089 0.44393,1.35923 l 1.47434,6.64274 7.01542,-8.69804 c 2.32129,-2.99522 5.61464,-5.06118 8.50073,-7.56349 4.08678,-3.57557 7.49711,-5.88104 10.83553,-7.89784 5.21631,-2.74533 10.61936,-5.22114 16.30539,-6.14947 8.1379,-1.6837 10.37955,-3.08788 9.25708,-6.7359 -0.84184,-2.52555 -2.24275,-8.41852 -3.36521,-12.62776 -1.12247,-4.7705 -4.48987,-8.97756 -8.41852,-10.38065 -6.45419,-2.52556 -6.45638,-2.80398 -2.24712,-14.5899 3.92864,-11.22456 3.64803,-14.59442 -2.80617,-49.95202 -3.92865,-20.76558 -8.69695,-48.82961 -10.38065,-62.57979 -3.3674,-27.21975 -9.26265,-38.4402 -24.69648,-48.82299 -1.74856,-1.21053 -3.9662,-1.97243 -6.06726,-2.85 -0.53246,-0.28624 -0.28996,-0.41409 -1.22769,-0.80021 -0.20177,-0.0846 -0.56104,-0.0639 -0.77279,-0.14256 -3.94058,-1.37889 -8.14662,-2.36858 -12.52363,-2.63078 z m 1.00299,24.55399 c 4.41969,0.67085 8.78465,2.77222 12.57296,6.56053 5.05108,5.05106 7.57776,12.06767 9.54208,24.976 1.6837,10.10216 3.3674,21.60974 4.20926,26.09958 1.40308,9.26034 2.24701,9.25701 -23.00842,-1.9676 -11.93579,-5.11535 -18.62225,-8.7637 -23.11802,-12.72093 -4.70361,-4.71656 -7.19082,-9.97333 -7.19082,-17.02339 0,-5.12455 1.55426,-9.46774 3.65022,-13.29642 1.016,-1.5246 2.38743,-3.15134 4.12704,-4.83955 1.24347,-1.29893 2.45714,-2.5839 3.91331,-3.55704 1.1566,-0.83778 2.35993,-1.75476 3.38164,-2.34579 3.76099,-1.63418 7.83363,-2.50575 11.92075,-1.88539 z m 103.49398,18.73338 c -12.13669,0.38584 -23.85463,7.33333 -31.71191,20.66261 -7.57667,12.90837 -6.45086,25.53412 7.57994,97.37193 7.01543,35.63832 12.90728,65.94391 12.90728,67.62762 0,2.24493 -5.61233,2.80508 -18.24009,1.68262 -1.34986,-0.10378 -1.40315,0.11196 -2.56502,0.028 l -15.6751,-1.43048 -10.94515,11.22469 c -3.57462,3.57462 -6.2413,7.27587 -8.45141,11.07122 -1.73085,2.97234 -3.12394,6.03122 -4.03387,9.21872 -0.17679,0.7837 -0.52874,0.69323 -0.70154,1.60038 -0.25788,1.40781 -0.0646,2.50706 -0.23571,3.80915 v 0.005 c -0.32095,2.29195 -0.51805,4.65251 -0.46042,7.09216 1.1e-4,0.003 -9e-5,0.008 0,0.0113 -0.13638,0.64784 -0.13133,1.39519 -0.12066,2.28553 0.0281,0.24862 0.13021,0.5562 0.16444,0.80568 0.0197,0.4245 0.27866,1.10711 0.32885,1.57296 0.15715,1.3748 0.0572,2.63407 0.32336,4.06128 0.0365,0.17848 0.71711,1.06473 0.78376,1.27704 0.41832,1.59164 0.25311,2.58246 0.89886,4.33531 0.46963,1.21552 4.1358,5.93281 5.86443,8.53909 0.28197,1.02611 0.25396,1.84884 1.4305,3.52963 1.28756,1.77042 2.27003,2.41952 3.29945,3.35424 5.67168,7.76987 12.52408,16.60998 21.34771,27.56297 2.45756,3.08455 4.11043,5.28787 6.90035,8.75284 0.0225,0.028 0.0322,0.0431 0.0547,0.0712 5.53523,6.93452 10.67069,12.8699 16.25607,19.55002 0.092,0.11 0.17622,0.21299 0.26855,0.32336 5.24183,6.27822 11.23939,13.71636 15.697,18.68404 0.005,0.005 0.005,0.005 0.0113,0.0113 5.12924,5.79586 8.05256,8.28764 12.10161,12.40855 l 0.005,0.005 c 4.24045,4.47548 9.61264,10.46992 11.61382,11.98103 0.18464,0.13385 0.4968,0.26602 0.68509,0.4001 0.0498,0.0514 0.12965,0.14255 0.1535,0.15883 1.89977,1.34982 4.7617,2.78218 7.31138,4.18734 2.40375,1.4573 4.72162,2.88568 7.39909,4.30789 0.17567,0.10017 0.42138,0.16361 0.59742,0.26295 9.29734,4.95366 19.343,9.58699 29.31132,12.85248 2.24493,0.84185 14.87269,1.68261 28.0617,1.68261 9.00665,0.0484 17.63905,-1.06081 26.07218,-2.68012 2.25684,-0.42938 4.48825,-0.86767 6.69752,-1.41404 l 0.005,-0.005 c 7.98242,-1.98361 15.71513,-4.54367 23.01935,-8.00197 0.005,-0.003 0.0113,-0.003 0.0168,-0.005 1.34598,-0.64043 2.57624,-1.47999 3.89685,-2.17039 0.003,-0.003 0.008,-0.003 0.0113,-0.005 0.005,-0.003 0.0113,-0.008 0.0168,-0.0113 6.70634,-3.48689 13.03936,-7.62899 19.04034,-12.34278 1.10982,-0.88143 2.26476,-1.66307 3.34873,-2.58691 7.01634,-5.90846 13.4369,-12.68664 19.27601,-20.25705 l 0.005,-0.005 c 0.0534,-0.0698 0.12235,-0.11618 0.1754,-0.18634 0.0868,-0.11336 0.12739,-0.2374 0.21382,-0.35077 0.005,-0.008 0.0113,-0.0195 0.0168,-0.028 6.60725,-8.65599 12.58599,-18.12261 17.45087,-28.80163 4.30803,-9.49361 7.17135,-19.02126 9.2242,-28.93862 0.17986,-0.88752 0.26321,-1.87657 0.36721,-2.85001 0.19193,-1.0421 0.25424,-2.19254 0.42201,-3.25014 0,-0.005 0,-0.0113 0,-0.0168 0.10749,-0.67765 0.1709,-1.39805 0.26856,-2.08268 0,-0.005 0,-0.0113 0,-0.0168 0.93591,-6.57255 1.70484,-13.45832 1.73195,-20.89829 0.0802,-2.4869 0.61385,-4.45801 0.61385,-7.0538 0,-4.17783 -1.03319,-11.80098 -1.87993,-18.79368 0,-0.003 0,-0.008 0,-0.0113 -0.12318,-1.15326 -0.21242,-2.29531 -0.35076,-3.47483 -0.005,-0.0409 -0.0113,-0.0854 -0.0168,-0.126 -0.65382,-4.93633 -1.33912,-9.57803 -2.25261,-15.18729 -0.27977,-2.91702 -0.48348,-5.76812 -1.1126,-8.98851 -3.08679,-15.71431 -5.61234,-28.90246 -5.61234,-29.74431 0,-0.0883 -0.3425,-0.12684 -0.61932,-0.17539 -2.26185,-10.58319 -4.40944,-19.86012 -6.51668,-27.53555 -0.0946,-0.71638 0.22337,-1.01421 -0.15883,-2.03338 -0.34539,-1.20884 -1.06589,-2.31681 -1.50722,-3.5406 -0.003,-0.008 -0.008,-0.014 -0.0113,-0.0225 -0.60141,-1.71079 -1.34258,-3.98415 -1.96211,-5.42051 v -0.005 c -0.56902,-1.45085 -1.37764,-4.85494 -1.85252,-5.60686 -0.49687,-0.77012 -1.60908,-1.30894 -2.2526,-2.08818 -0.003,-0.005 -0.008,-0.0113 -0.0113,-0.0168 -0.50298,-0.70274 -1.05467,-1.5328 -1.58944,-2.15398 l -0.005,-0.005 c -1.14346,-1.68065 -2.2852,-3.96078 -3.43647,-4.7135 -0.56123,-0.35077 -0.9997,-0.57878 -1.31538,-0.67964 -0.10017,-0.032 0.12487,0.28585 0.0494,0.2795 -0.32887,-0.0225 0.15209,0.83692 0.22477,1.24966 -0.91176,-0.68727 -1.59065,-1.62782 -2.60888,-2.25263 -0.13889,-0.0824 -0.34026,-0.11646 -0.48232,-0.19728 -3.45033,-2.32342 -5.8897,-3.43323 -7.09762,-2.87195 -2.96401,-0.91388 -5.6457,-0.89298 -8.44592,-1.17836 -1.74612,-0.21272 -2.98627,-0.61369 -4.75733,-0.66865 -0.26714,0.003 -0.60911,-0.13021 -0.87147,-0.12068 -5.51676,-0.0937 -10.57583,0.89125 -14.92969,2.4006 -0.79097,0.26911 -1.98032,0.0661 -2.70204,0.38912 -0.36923,0.17483 -0.54742,0.11226 -0.89336,0.26294 -4.75443,1.88208 -7.73488,1.65605 -13.13748,-1.94567 -0.91443,-0.60962 -2.47393,-0.44868 -3.5187,-0.94271 -3.90797,-1.86114 -7.90124,-3.2301 -12.65514,-3.38713 -0.61535,-0.0326 -1.02292,-0.43198 -1.64426,-0.43847 -1.90799,-0.0197 -3.60696,1.04221 -5.52464,1.27156 -2.82427,0.39949 -5.46783,-0.0168 -8.36371,0.97009 -11.50523,3.92864 -13.46961,3.92974 -22.44936,-0.27948 -7.01543,-3.36742 -13.75133,-4.48879 -22.16985,-3.0857 -6.7348,0.84184 -12.34823,1.11919 -12.34823,0.83857 0,-10.38281 -15.43614,-75.48489 -19.08415,-80.25539 -9.54116,-12.9081 -22.09658,-19.08061 -34.23327,-18.69476 z m 1.40309,21.22166 c 15.43389,0 18.239,6.17372 31.1474,70.15427 4.58222,23.11036 7.07223,33.8901 9.56399,45.02479 0.0225,4.49369 1.39241,11.41187 2.78425,15.5874 0.27612,0.69002 0.52574,0.73479 0.80021,1.29347 0.0252,0.0893 0.30327,1.45245 0.32335,1.5127 1.4518,3.6955 3.0037,3.9489 4.23668,2.09365 0.52051,-0.44621 0.40681,-2.27981 0.72892,-3.41451 0.77792,-2.61943 1.59167,-5.3972 1.48531,-10.18334 -0.56124,-13.46962 4.77493,-21.60752 17.12203,-25.25555 7.06481,-2.07788 15.62551,5.12626 20.64069,15.58742 1.54713,4.04955 3.09704,8.15768 4.05032,13.87738 1.1146,7.18295 3.10172,10.35676 4.97658,10.84649 1.84628,0.79157 3.29062,-1.99883 3.97907,-7.81013 0.20822,-1.65182 0.58643,-2.82955 0.58643,-4.99849 0,-10.17694 3.64948,-17.91229 9.3557,-22.25207 0.84392,-0.61971 1.49446,-1.52459 2.43897,-1.98405 0.42854,-0.21606 0.98294,-0.16079 1.4305,-0.33979 2.0661,-0.80391 4.23732,-1.42907 6.69206,-1.4634 10.21339,0.16053 16.88139,8.52351 20.77224,25.75432 0.64586,2.92792 1.34679,4.69416 2.03338,6.81812 1.59435,4.93209 3.1891,8.30088 4.54906,8.69804 0.93394,0.27275 1.74195,-0.48931 2.3129,-2.46638 0.58064,-1.94976 0.92625,-5.04626 0.92625,-9.39958 0,-14.59202 8.97755,-26.65861 20.20225,-26.65861 3.5297,0 6.39259,0.47357 8.87341,1.85799 0.25171,0.20625 0.42718,0.46563 0.66866,0.67412 1.94688,1.27487 3.64818,3.33525 5.23415,6.1714 0.003,0.005 0.003,0.005 0.005,0.0113 0.4995,0.80871 0.95727,1.89782 1.425,2.85549 0.003,0.003 0.003,0.008 0.005,0.0113 0.78728,1.74821 1.5587,4.5424 2.32389,6.85101 0.39315,1.25669 0.7915,2.16196 1.18384,3.50225 2.10255,6.94024 4.24652,15.74599 7.136,30.32525 0.0421,0.21552 0.0446,0.27923 0.0875,0.49876 6.01778,30.62365 8.68036,53.11028 8.27055,72.24794 -0.0788,1.50819 0.0528,3.07605 -0.0656,4.57097 -0.20091,4.04956 -1.11015,7.56754 -1.62779,11.34527 -1.07962,7.08664 -2.51303,14.02459 -4.41203,20.6955 v 0.005 c -2.04055,6.39392 -4.0928,12.73831 -7.21824,19.09513 -4.45027,9.17866 -12.40678,19.17201 -21.80262,28.16038 -0.17959,0.17089 -0.3565,0.32851 -0.53713,0.49873 -8.72697,8.25744 -18.71823,15.20269 -28.40151,20.2132 -0.76459,0.38552 -1.53623,1.00447 -2.29645,1.35924 -8.33117,3.92754 -17.09984,6.38622 -25.97899,7.94168 -3.77891,0.4122 -8.06345,0.73448 -13.58145,0.78924 -2.99319,0.12909 -5.95299,-0.0695 -8.93918,-0.19194 -6.36548,-0.18465 -12.34802,-0.70388 -17.91675,-1.66069 -7.59594,-1.62085 -14.98418,-3.99685 -22.02734,-7.22918 -4.06474,-1.9733 -8.55113,-4.64393 -12.89632,-7.39908 -2.49212,-1.67981 -4.98315,-3.53261 -7.47033,-5.54656 -1.4633,-1.18039 -2.9572,-2.35265 -4.48878,-3.74339 -5.52789,-5.0564 -13.2435,-14.37084 -20.71744,-23.18928 -8.23453,-9.49712 -14.52596,-16.14492 -28.1768,-33.29586 -1.96719,-2.43349 -2.80816,-3.65878 -4.58742,-5.8809 -2.02881,-2.59798 -2.02078,-2.90488 -3.92976,-5.38215 l 0.6577,0.0385 -2.5376,-2.61433 c -8.14642,-10.64797 -14.44281,-19.13973 -17.43991,-23.87987 -3.64541,-6.06739 -5.59541,-11.11379 -5.67262,-14.88037 l -0.005,-0.005 v -0.005 c 0.3734,-2.81251 1.10798,-5.06636 1.78674,-7.60736 1.19783,-1.96583 2.11967,-3.90092 4.22569,-6.00694 5.67738,-5.80353 10.61827,-7.72738 17.07269,-4.88339 0.1,0.0421 0.17875,0.005 0.2795,0.0493 3.0674,1.41291 6.59649,4.15353 10.60536,7.854 0.37167,0.34158 0.66405,0.50801 1.04684,0.87146 4.34935,4.14062 9.33965,9.55453 15.34075,16.53008 0.82829,1.03218 1.36668,1.81615 2.23618,2.87195 1.07479,1.33214 1.91849,2.26884 2.89932,3.44194 l -0.93172,0.48233 6.45091,6.7359 c 1.33037,1.45707 2.65169,2.61677 3.90781,3.54607 0.0281,0.0429 -0.005,0.061 0.0225,0.1041 0.43732,0.7653 1.11262,0.28848 1.63875,0.68509 0.15379,0.11085 0.22561,0.0561 0.37273,0.15351 1.22694,0.89373 2.24462,1.35375 3.01443,1.25509 0.003,0 0.005,0.005 0.0113,0.005 0.11673,-0.0141 0.21074,0.17481 0.32883,0.13692 0.45288,-0.0141 0.62338,-0.3921 0.93175,-0.59741 0.0322,-0.028 0.12796,0.0747 0.15883,0.0438 0.008,-0.008 -0.0141,-0.13244 -0.005,-0.14255 0.20989,-0.17765 0.5844,-0.15181 0.69607,-0.44394 0.40419,-0.38366 0.93239,-0.26547 1.27153,-0.81665 0.37437,-0.74871 -0.89647,-1.25893 -1.24961,-1.99502 -0.003,-0.0561 -0.003,-0.20935 -0.005,-0.26856 0.094,-1.31241 0.11533,-2.80415 -0.0766,-4.7902 -0.014,-1.4944 -0.0707,-2.54117 -0.0707,-4.17117 v -8.69802 l -1.75385,0.95915 c -0.95832,-6.0932 -2.02239,-12.48971 -3.85848,-21.7259 -0.85789,-4.26772 -1.08861,-5.72579 -1.9128,-9.84352 -0.15183,-0.79856 -0.17258,-1.10372 -0.33433,-1.94021 -0.16725,-0.82694 -0.16164,-0.64641 -0.32339,-1.44692 -19.90581,-99.60447 -30.47151,-157.60565 -29.1414,-161.59597 3.3674,-9.26034 10.1044,-14.58991 19.08414,-14.58991 z m 108.15815,2.04435 c -2.6834,0.0252 -6.01246,0.20177 -10.22171,0.4823 -10.66344,0.56124 -21.04519,2.24165 -22.72889,3.64473 -3.92864,3.08679 -5.05547,14.03524 -1.68807,17.12202 0.84185,1.12248 10.94516,1.96214 22.16983,1.96214 17.95944,0 21.04848,-0.83966 24.6965,-6.17138 3.64802,-5.3317 3.92646,-7.01762 0.55905,-12.06874 -2.52555,-3.78833 -4.73651,-5.05001 -12.78671,-4.97107 z M 325.44743,358.441 c 5.85786,-0.87693 15.18517,2.4916 32.58337,9.36669 12.44114,4.84994 25.19183,9.70514 36.27195,13.91577 0.2475,0.17258 0.48634,0.39461 0.77279,0.39461 0.3764,0 0.76294,0.18717 1.12903,0.33433 2.95089,1.11879 8.04134,3.11189 10.09565,3.87493 9.54277,3.71107 17.48873,7.40591 19.61579,9.01591 0.11196,0.0845 0.5198,0.21243 0.62481,0.29597 0.93782,1.09598 0.63378,3.28288 0.78376,5.0204 -0.0869,4.08026 -1.17696,10.03117 -4.46686,19.90081 -3.20773,9.62323 -5.88659,15.15467 -7.78821,18.10308 -1.11863,1.52411 -2.28335,3.32526 -3.15694,3.22818 -0.54818,-0.0684 -1.91476,-0.46256 -2.7404,-0.6193 -3.40964,-0.85138 -8.53713,-2.46785 -16.62327,-5.83707 -10.10216,-4.20925 -33.67191,-13.75026 -52.4732,-21.04629 -10.44679,-4.01216 -17.56498,-6.64988 -22.63573,-9.0159 -0.97287,-0.44293 -1.15762,-0.8743 -1.96761,-1.29896 -3.60631,-1.91533 -6.07684,-3.73933 -6.97155,-5.96858 -0.2492,-0.58427 -0.0196,-1.47417 -0.10973,-2.13205 -0.13695,-3.37413 0.67853,-7.28075 3.33779,-15.25855 3.71771,-10.87772 6.83146,-16.69612 10.42999,-20.03779 1.08043,-0.72672 1.86295,-2.02277 3.28847,-2.23619 z m 127.65335,46.31279 c 0.91002,0.1636 5.36287,1.8777 10.72594,4.02291 1.71861,0.72069 2.01927,1.24734 3.20081,1.85798 2.53751,1.68177 4.03147,3.17536 4.99298,4.54359 0.37953,1.23011 0.82671,2.35786 0.22479,4.26406 -0.84185,3.3674 -4.21254,14.0309 -7.57996,23.85244 -3.02932,9.36336 -6.24042,16.7877 -7.15791,17.07272 -3.66962,-0.51821 -20.05975,-7.86338 -20.05975,-9.21871 0,-3.63349 14.15377,-46.05559 15.65316,-46.39499 z M 302.75143,516.81426 h 47.7049 47.7049 l -0.55903,87.83532 -0.73991,76.88471 v 0.005 c -0.48656,5.64165 -1.16335,9.2664 -2.08819,10.69852 l -39.26446,0.80568 c -19.04657,0.2781 -29.3321,0.3347 -35.66357,-0.31242 -6.33325,-0.64459 -8.60185,-1.9889 -11.19179,-4.52166 l -0.005,-0.005 v -0.005 c -3.27443,-4.46521 -4.61986,-13.81019 -5.23418,-29.36079 -0.42753,-12.41629 -0.66318,-26.56141 -0.66318,-59.24199 z" style="fill:#ffffff"/>
</svg>
