<svg xmlns="http://www.w3.org/2000/svg" viewBox="0 0 1024 1024">
   <circle cx="512" cy="512" r="512" style="fill:#f37322"/>
   <path d="M316.91 498.89A33.14 33.14 0 0 0 326.5 475a28.29 28.29 0 0 0-8-20.33c-11.43-11.43-31.29-13.1-55.06-13.1H212v119.76a2.06 2.06 0 0 0 2.06 2.06h26v-49.34s11.87.29 19.32.29c18.93 0 43.06-.76 57.53-15.45zm-76.84 5.93V451.1a125.53 125.53 0 0 1 14.47-.47c15.27 0 43.41 2.06 43.41 26.23 0 25.32-26.08 28.29-45.29 28.29-7.45 0-12.59-.32-12.59-.32zM852 484.06c0-1.16 0-2-1.52-2.53a57.16 57.16 0 0 0-19.43-2.53 116.92 116.92 0 0 0-33.79 5.28v-2a2.1 2.1 0 0 0-2.06-2.06h-26.08v81.18a2 2 0 0 0 2 2.06h26.08V513c0-15.23 14.69-21.53 30-21.53a72.9 72.9 0 0 1 24.8 4.75zm-477.21-6.66c-22.21 0-36.18 5.72-39.79 7.45a2.71 2.71 0 0 0-1.56 2.39v12.19a64.72 64.72 0 0 1 33.07-9.19 26.55 26.55 0 0 1 19.14 7c3.33 3.36 5 7.42 5 15.88 0 0-12.7-1-22.65-1-18.09 0-52.6 3.26-52.6 27.75 0 11.65 8.79 24.35 36.94 24.35a116.42 116.42 0 0 0 38.27-6.95v4.05a2.06 2.06 0 0 0 2.06 2.06h26v-54.9c.01-20.22-12.87-31.08-43.88-31.08zm16 69.64a58.75 58.75 0 0 1-24.09 5.61c-12.12 0-22.28-4.16-22.28-15.45 0-12.37 10.85-16.5 36.18-16.5 5.1 0 10.2.22 10.2.22zm125.31-66.89a3 3 0 0 0-2.64 1.7l-33 61.5s-32.09-59.87-33.1-61.5a2.86 2.86 0 0 0-2.68-1.56h-22.9L468.24 566 446 606.27h24.09a3.36 3.36 0 0 0 3.26-1.88l67.87-124.23zm13-54.48a13.64 13.64 0 0 1 5.28 17.69l-9.51 17.44a1.66 1.66 0 0 0 1.84 2.13l77.16-23.51a5.46 5.46 0 0 0 3.62-5.21 5.54 5.54 0 0 0-3.91-5.28l-136.1-42a1.7 1.7 0 0 0-.61 0 1.88 1.88 0 0 0-1.88 1.88 1.77 1.77 0 0 0 .9 1.56zm168.53 51.73c-39.07 0-56.76 21.71-56.76 44.75s18.13 44.32 57.63 44.32 59.4-19.54 59.4-44.57c0-26.41-21.81-44.5-60.27-44.5zm2 77.45c-16.86 0-30.39-14.76-30.39-33.1s12-32.31 30.64-32.31c19.25 0 29.63 17.8 29.63 33.17 0 16.28-10.17 32.31-29.88 32.31zm-66.85-11.72a68.48 68.48 0 0 1-33.39 9.23c-19.14 0-33.83-11.5-33.83-30.42s14.65-32.56 36.36-32.56a50.86 50.86 0 0 1 29.23 8.75l5.54-9.8a1.77 1.77 0 0 0-.82-2.37c-4.92-2.21-17.55-8.54-41.82-8.54-39.07 0-56.8 21.71-56.8 44.75s18.09 44.32 57.67 44.32a77.92 77.92 0 0 0 41.35-11.9 1.85 1.85 0 0 0 .89-2.45l-.06-.12z" style="fill:#fff"/>
</svg>
