<svg xmlns="http://www.w3.org/2000/svg" viewBox="0 0 1024 1024">
   <circle cx="512" cy="512" r="512" style="fill:#003087"/>
   <path d="m445.13 533.84 25-158.76a15.25 15.25 0 0 1 15.07-12.88H618c24.15 0 46.2 5.63 65 15.47C727.55 401 753.64 448.2 745.52 500a149.87 149.87 0 0 1-148 126.87h-46.85a15.25 15.25 0 0 0-15.06 12.88l-21 133a15.24 15.24 0 0 1-15 12.88h-79.72a12.4 12.4 0 0 1-12.26-14.32m47.17-398.69a30.62 30.62 0 0 1 30.39-26H618a157.61 157.61 0 0 1 64 13.27c-7.8-58.23-59.36-103.63-127.95-103.63H394.72a15.25 15.25 0 0 0-15.06 12.88l-62.49 396.34a12.38 12.38 0 0 0 12.23 14.33h77" style="fill:#fff"/>
</svg>
