<svg xmlns="http://www.w3.org/2000/svg" viewBox="0 0 1024 1024">
   <circle cx="512" cy="512" r="512" style="fill:#4b6063"/>
   <path d="M499.92 258c7.52-2.36 15.63-2.89 23.14-.17q79.55 26.17 159.1 52.41a32.5 32.5 0 0 1 22.22 30.88c0 19.64.32 39.32-.15 59-.67 18.69-20 33.6-38.25 29.49-43.3-9.26-86.48-19.19-129.73-28.74-10.15-2.12-20.58-5.77-31-3.16-38.6 9.78-77 20.43-115.62 30.09-18.69 4.9-39.15-10.5-39.2-29.89-.37-24.66-.25-49.35 0-74 0-14.11 10.73-26.83 24.26-30.19C416.37 281.69 458.18 270 499.92 258Zm-4.73 184.76c9.18-2 18.81-4.48 28.1-1.54 42.78 12 85.49 24.26 128.22 36.33 12.92 3.09 24.26 14.31 24.84 28-.12 22.3 1.59 44.85-1 67-3.81 12.59-16.1 21.7-29.17 22.32-40.59 3.33-81.2 6.2-121.77 9.48a135.62 135.62 0 0 1-18.54.27c-57.14-3.58-114.28-6.69-171.42-10.3-15.85-.47-30.06-14-30.78-30-.55-17.15-.12-34.34-.22-51.52-.32-10.13 3.83-20.46 11.82-26.85 7.44-6.37 17.52-7.49 26.68-9.61q76.61-16.75 153.24-33.58ZM375.76 636.25c4.58-1 9.31-.67 13.91-.27 34.37 3.68 68.74 7.19 103.08 10.8 9.43 1.07 18.91 2.34 28.42 1.39 49-4.4 97.93-8.64 146.91-13 13-1.87 26.85 4.48 33.22 16.1 6 10.1 4 22.3 4.28 33.47-.35 11 1.77 23.12-4.18 33.12-4.73 8.76-13.76 14.48-23.42 16.3q-77 16.31-154.15 32.58a43.81 43.81 0 0 1-22.4-.5c-42.28-10.7-84.64-21.1-126.87-31.88-14.38-3.43-25-17.52-24.29-32.3.37-14.31-1.27-28.87 1.19-43.05a32.4 32.4 0 0 1 24.3-22.76Z" style="fill:#fff"/>
</svg>
