<svg xmlns="http://www.w3.org/2000/svg" viewBox="0 0 1024 1024">
   <circle cx="512" cy="512" r="512" style="fill:#336791"/>
   <path d="M792.32 593.08a12.779 12.779 0 0 0-1.365-2.889c-3.372-6.383-11.564-8.29-24.433-5.629-40.098 8.273-55.625 3.182-61.255-.463 32.548-49.676 59.3-109.67 73.757-165.64 6.582-25.483 19.359-85.462 2.963-114.76a37.935 37.935 0 0 0-3.66-5.7c-31.272-39.96-77.17-61.395-132.73-61.985-36.252-.383-67.194 8.395-75.576 11.627a229.17 229.17 0 0 0-12.512-1.979 195.1 195.1 0 0 0-31.806-3.1c-28.672-.446-53.45 6.408-73.968 20.389-20.793-7.788-116.15-39.897-175.16 1.91-32.958 23.35-48.172 65.083-45.223 124.04.992 19.84 12.294 80.862 30.13 139.3 11.152 36.539 22.767 65.532 34.765 86.877 13.412 24.113 27.307 38.643 41.578 43.402 10.851 3.616 27.472 3.495 45.065-17.654 19.432-23.368 38.57-44.282 47.163-53.525 10.553 5.712 21.983 8.792 33.712 9.148a1.38 1.38 0 0 0 .01.097 267.55 267.55 0 0 0-5.995 7.407c-8.22 10.434-9.929 12.605-36.385 18.052-7.523 1.552-27.513 5.673-27.804 19.682-.048 2.969.798 5.6 2.23 7.926 5.502 10.262 22.351 14.787 24.616 15.355 32.366 8.089 60.741 2.232 81.768-16.46-.412 54.11 1.88 107.14 8.377 123.39 5.365 13.41 18.476 46.19 59.887 46.185 6.076 0 12.765-.706 20.121-2.282 43.217-9.267 61.985-28.367 69.244-70.478 3.646-21.118 9.74-69.736 13.068-99.469.41-1.705.866-2.927 1.383-3.303.017-.013 1.69-1.143 10.36.744a8.908 8.908 0 0 0 1.075.17l6.158.54.362.025c20.538.931 46.358-3.458 61.39-10.448 15.614-7.247 43.795-25.037 38.687-40.499zm-513.89-69.033c-18.032-59.077-28.568-118.48-29.403-135.14-2.634-52.664 10.116-89.323 37.891-108.96 44.546-31.496 117.38-13.116 148.14-3.153-.073.073-.17.146-.243.218-49.084 49.574-47.92 134.27-47.799 139.45-.004 1.996.17 4.824.393 8.715.844 14.244 2.416 40.756-1.782 70.78-3.903 27.902 4.698 55.212 23.594 74.925a84.092 84.092 0 0 0 6.107 5.757c-8.411 9.008-26.69 28.925-46.142 52.33-13.77 16.552-23.276 13.38-26.402 12.337-9.505-3.17-19.718-14.239-30.028-32.07-11.632-20.349-23.368-49.276-34.331-85.193zm145.7 123.38c-4.15-1.038-7.933-2.745-10.482-4.298 2.156-.955 5.758-2.187 11.722-3.417 31.125-6.405 35.932-10.929 46.429-24.258 2.406-3.056 5.132-6.517 8.908-10.735a8.608 8.608 0 0 0 1.788-3.148c4.142-3.67 6.606-2.666 10.596-1.011 3.783 1.566 7.465 6.305 8.961 11.525.706 2.464 1.502 7.142-1.096 10.778-21.932 30.7-53.882 30.302-76.825 24.564zm50.787-96.723-1.273 3.42c-3.226 8.649-6.226 16.689-8.086 24.326-16.187-.049-31.937-6.966-43.911-19.461-15.23-15.888-22.146-37.991-18.978-60.643 4.433-31.721 2.796-59.344 1.916-74.182-.122-2.079-.243-3.898-.296-5.334 7.172-6.356 40.404-24.16 64.1-18.733 10.815 2.48 17.404 9.84 20.143 22.507 14.179 65.577 1.877 92.908-8.009 114.87-2.037 4.526-3.96 8.802-5.605 13.228zm178.6 110.9c-.41 4.288-.868 9.12-1.499 14.453l-3.54 10.63a8.603 8.603 0 0 0-.442 2.612c-.146 11.513-1.31 15.738-2.79 21.084-1.537 5.559-3.281 11.862-4.35 25.648-2.669 34.302-21.3 54.005-58.627 62.004-36.756 7.885-43.276-12.049-49.02-29.63a159.65 159.65 0 0 0-1.866-5.497c-5.224-14.208-4.635-34.244-3.817-61.97.4-13.61-.604-46.113-8.009-64.18.097-7.11.257-14.33.461-21.629a8.56 8.56 0 0 0-.371-2.73 36.203 36.203 0 0 0-1.065-5.045c-2.973-10.388-10.218-19.078-18.91-22.68-3.453-1.43-9.793-4.055-17.409-2.107 1.625-6.694 4.441-14.249 7.495-22.432l1.283-3.444c1.443-3.88 3.25-7.9 5.166-12.156 10.344-22.983 24.51-54.456 9.134-125.57-5.758-26.633-24.991-39.638-54.144-36.618-17.48 1.81-33.467 8.862-41.444 12.905a137.56 137.56 0 0 0-4.75 2.525c2.227-26.834 10.639-76.983 42.098-108.71a97.756 97.756 0 0 1 7.356-6.694 8.566 8.566 0 0 0 3.51-1.562c18.247-13.84 41.097-20.63 67.957-20.191 9.923.17 19.444.822 28.478 1.964 47.028 8.596 78.676 35.09 97.885 57.79 19.75 23.338 30.443 46.845 34.712 59.524-32.092-3.264-53.925 3.076-64.992 18.894-24.074 34.413 13.17 101.21 31.071 133.31 3.282 5.884 6.117 10.967 7.007 13.128 5.828 14.128 13.376 23.557 18.886 30.443 1.688 2.11 3.328 4.158 4.572 5.943-9.72 2.8-27.183 9.277-25.592 41.643-.298 3.79-1.026 10.839-2.023 19.762-1.118 5.037-1.702 11.164-2.41 18.583zm21.598-39.317c-.982-20.169 6.527-22.277 14.472-24.508a69.283 69.283 0 0 0 3.274-.985 29.153 29.153 0 0 0 3.255 2.498c13.832 9.132 38.376 10.218 72.925 3.26-4.89 4.29-12.585 9.687-23.121 14.58-9.94 4.614-26.575 8.075-42.378 8.818-17.455.815-26.337-1.958-28.428-3.663zm13.812-224.86c-.146 8.508-1.315 16.23-2.556 24.295-1.334 8.673-2.717 17.642-3.066 28.527-.344 10.594.98 21.607 2.26 32.26 2.586 21.513 5.24 43.664-5.032 65.518a85.547 85.547 0 0 1-4.55-9.352c-1.278-3.095-4.048-8.067-7.885-14.945-14.93-26.778-49.899-89.486-31.998-115.07 9.204-13.162 32.52-13.73 52.827-11.23zm5.54 170.11a300.17 300.17 0 0 0-2.07-2.605l-.86-1.077c17.613-29.092 14.169-57.874 11.103-83.396-1.26-10.473-2.447-20.363-2.147-29.652.313-9.85 1.616-18.294 2.874-26.463 1.55-10.065 3.124-20.477 2.69-32.754.325-1.288.456-2.808.286-4.613-1.108-11.775-14.55-47.003-41.944-78.897-14.736-17.155-36.128-36.312-65.215-49.465 12.736-2.585 29.9-4.935 49.1-4.508 49.755 1.106 89.121 19.73 117 55.356a22.022 22.022 0 0 1 1.617 2.43c17.538 32.878-6.699 152.19-72.438 255.64zm-213.83-148.34c-.607 4.351-7.492 10.247-15.065 10.247a14.118 14.118 0 0 1-1.962-.146c-4.542-.63-9.131-3.492-12.27-7.654-1.11-1.467-2.917-4.317-2.558-6.898.12-.972.633-2.389 2.243-3.609 2.867-2.168 8.532-2.973 14.785-2.102 7.671 1.07 15.585 4.7 14.826 10.153zm192.34-9.978c.269 1.921-1.189 4.875-3.714 7.524-1.656 1.739-5.142 4.756-9.893 5.413a13.233 13.233 0 0 1-1.819.121c-7.118 0-13.13-5.685-13.599-9.015-.582-4.28 6.406-7.533 13.61-8.537 7.203-1.004 14.82.218 15.415 4.49z" style="fill:#ffffff"/>
</svg>
