<svg xmlns="http://www.w3.org/2000/svg" viewBox="0 0 1024 1024">
   <circle cx="512" cy="512" r="512" style="fill:#6c78af"/>
   <path d="m533.17 650.61 22.71-431.79c0-.56.27-.84.8-1.4l1.07-.28c.53 0 .8.28 1.07.56l.54 1.12-.54 8.14L786.2 617.51l-.27.56-1.6-.56-12.02-20.48c-49.43-12.63-94.05-37.32-133.86-74.07l-.8-.56v-.28h-.54l-.27-.84-25.92-48.26-.27-.56-1.07-1.4v-.28l-.27-.28c3.21-69.02-5.08-134.11-24.85-195.27h.2l-26.12-45.17-21.91 420.01h-.8v.28l-.53.28h-2.14Zm26.19-431.79Zm131.99 411.87-80.77-149.75c.19-.11.29-.34.2-.54l-1.35-2.55a.418.418 0 0 0-.58-.17l-57.51-106.52c28.05 60.32 38.21 151.51 30.73 273.55l109.28-14.03Zm17.75 12.58c-.04-.2-.17-.38-.38-.38h-.8c-.24 0-.43.19-.43.43 0 .03.04.02.05.05l-457.31 58.59h-.27c.27 24.97 10.95 44.61 31.8 58.64 5.61 4.21 11.49 7.3 16.83 9.26 5.08-6.17 10.69-10.66 17.37-14.87h.27c59.85-38.16 148.83-44.05 266.39-17.96l1.34.28c12.83 2.81 25.65 6.17 37.68 10.1 3.47.56 6.41-.56 8.82-2.81 4.28-3.37 9.62-5.89 16.83-7.57v-.28c18.97-35.35 44.62-61.44 76.68-78.56 22.18-11.5 47.83-19.08 76.42-21.89 11.22-1.4 18.43-3.93 21.64-7.57l-112.91 14.54Zm-183.4 3.98 26.18-421.41c-37.94 153.75-98.86 297.4-182.49 430.67l156.31-9.26Zm-171.27 26.37h.27l.54-.28h2.14l21.64-364.46-.54-1.12-1.07-.56-1.07.28-.54 1.4-21.64 364.74h.27ZM371 310.01l-121.04 366.7 98.06-10.94L371 310.01Zm-17.86 468.33a.694.694 0 0 0-.62-1.24c-29.53 14.81-51.5 17.65-65.29 8.47-14.06-9.93-35.87-7.69-64.83 6.68a.697.697 0 0 0 .62 1.25c28.47-14.12 49.81-16.41 63.43-6.78 14.26 9.49 36.69 6.68 66.7-8.38Zm70.72.97a75.138 75.138 0 0 0-18.34-3.96c-13.02-1.13-29.11 4.2-47.73 15.82-18.32 11.71-40.12 16.16-66.62 13.64-.36-.02-.72.25-.76.63-.04.38.24.72.63.76 4.83.46 9.51.69 14.04.69 20.63 0 38.22-4.8 53.46-14.54 18.35-11.45 34.11-16.72 46.87-15.61 6.09.53 12.14 1.84 18 3.89.35.13.76-.06.88-.43a.688.688 0 0 0-.43-.88Zm165.31-27.82a.694.694 0 0 0-.53-.82c-126.89-27.43-219.58-20.79-275.49 19.76a.69.69 0 0 0-.15.97c.13.19.35.29.56.29.14 0 .28-.04.41-.13 55.58-40.3 147.89-46.87 274.39-19.52.36.06.74-.16.82-.53Zm79.74 12.4c-5.91-2.36-12.1-3.7-18.37-3.98-13.04-1.16-29.11 4.2-47.72 15.81-18.33 11.43-40.15 15.89-66.64 13.65-.44-.08-.72.25-.75.63-.03.38.25.72.63.75 4.47.38 8.81.57 13.03.57 21.06 0 38.97-4.76 54.46-14.42 18.35-11.45 34.12-16.69 46.89-15.61 6.14.27 12.17 1.58 17.94 3.88.36.15.76-.03.9-.39a.69.69 0 0 0-.39-.9ZM417.66 309.72a1.67 1.67 0 0 0-.52 2.31c.49.78 1.53 1.01 2.31.52 12.74-8.03 24.64-5.83 36.35 6.74.33.35.78.53 1.23.53.41 0 .82-.15 1.14-.45 13.59-12.65 26.29-14.89 38.83-6.83.79.5 1.82.27 2.32-.5.5-.78.28-1.82-.5-2.32-13.44-8.64-27.46-6.59-41.71 6.08-12.48-12.68-25.74-14.73-39.45-6.09Zm-28.14-44.3c12.73-8.01 25.04-4.82 37.65 9.78.32.36.78.58 1.26.58s.94-.21 1.26-.57c12.78-14.49 25.1-17.7 37.66-9.79.78.49 1.81.26 2.31-.53.49-.78.26-1.82-.53-2.31-13.56-8.54-27.24-5.51-40.69 9-13.3-14.62-26.99-17.64-40.72-9-.79.5-1.02 1.53-.53 2.31s1.53 1.01 2.31.53Z" style="fill:#fff"/>
</svg>
