<svg xmlns="http://www.w3.org/2000/svg" viewBox="0 0 1024 1024">
   <circle cx="512" cy="512" r="512" style="fill:#52009b"/>
   <path d="M313.18 255.06c-77.902 41.74-85.844 189.7 43.204 189.7-.04.073-.09.144-.13.214h203.08a98.387 98.387 0 0 1 0 196.77h-87.76a34.358 34.358 0 0 0-34.324 34.323v62.467a219.03 219.03 0 1 0 141.72-405.54 178.94 178.94 0 0 0-30.398-2.15c-153.95.013-283.81 34.983-235.4-75.785zm-56.573 215.38s-8.504 124.13 77.689 124.25a218.08 218.08 0 0 0 38.896 86.466v-5.078a98.497 98.497 0 0 1 98.384-98.384h87.761a34.327 34.327 0 0 0 0-68.653h-226.21c-62.769 0-76.523-38.598-76.523-38.598z" style="fill:#fff"/>
</svg>
