<svg xmlns="http://www.w3.org/2000/svg" viewBox="0 0 1024 1024">
   <circle cx="512" cy="512" r="512" style="fill:#0096fa"/>
   <path d="M238.22 802.17c0 9.03 7.32 16.35 16.35 16.35h98.21c9.03 0 16.35-7.32 16.35-16.35v-89.32c41.59 25.51 90.52 40.21 142.88 40.21 151.22 0 273.79-122.57 273.79-273.79S663.23 205.48 512.01 205.48c-64.33 0-123.41 22.24-170.16 59.37l-33.36-51.86a16.332 16.332 0 0 0-13.76-7.51h-40.18c-9.03 0-16.35 7.32-16.35 16.35v580.33h.02Zm273.81-180.04c-78.91 0-142.88-63.97-142.88-142.88s63.97-142.88 142.88-142.88 142.88 63.97 142.88 142.88-63.97 142.88-142.88 142.88Z" style="fill:#fff"/>
</svg>
