<?xml version="1.0" encoding="UTF-8"?>
<svg id="Layer_1" xmlns="http://www.w3.org/2000/svg" version="1.1" viewBox="0 0 1024 1024">
  <!-- Generator: Adobe Illustrator 30.2.1, SVG Export Plug-In . SVG Version: 2.1.1 Build 1)  -->
  <defs>
    <style>
      .st0 {
        fill: #fff;
      }

      .st1 {
        fill: #0096fa;
      }
    </style>
  </defs>
  <circle class="st1" cx="512" cy="512" r="512"/>
  <path class="st0" d="M238.22,802.17c0,9.03,7.32,16.35,16.35,16.35h98.21c9.03,0,16.35-7.32,16.35-16.35v-89.32c41.59,25.51,90.52,40.21,142.88,40.21,151.22,0,273.79-122.57,273.79-273.79s-122.57-273.79-273.79-273.79c-64.33,0-123.41,22.24-170.16,59.37l-33.36-51.86c-3.01-4.69-8.19-7.51-13.76-7.51h-40.18c-9.03,0-16.35,7.32-16.35,16.35v580.33h.02ZM512.03,622.13c-78.91,0-142.88-63.97-142.88-142.88s63.97-142.88,142.88-142.88,142.88,63.97,142.88,142.88-63.97,142.88-142.88,142.88Z"/>
</svg>