<svg xmlns="http://www.w3.org/2000/svg" viewBox="0 0 1024 1024">
   <circle cx="512" cy="511.501" r="512" style="fill:#2265f7"/>
   <path d="M510.985 264.205c-13.395 0-26.99 2-40.585 5.998l-147.15 44.785c-33.59 11.196-55.982 41.586-55.982 76.773v239.92c0 35.187 22.393 65.577 55.981 76.773L472 753.239c25.591 7.997 52.782 7.997 79.973 0l148.748-44.785c33.588-11.196 55.981-41.586 55.981-76.774V391.761c-1.6-35.187-25.59-65.577-57.58-76.773l-148.75-44.785a131.61 131.61 0 0 0-39.386-5.998zM608.24 406.22c14.838-.246 28.503 12.533 28.503 28.728v123.157c0 9.596-6.397 17.595-14.394 20.794l-99.166 30.389c-7.998 3.199-17.596 3.199-25.592 0l-63.978-19.193s-1.6 0-1.6 1.599v47.983c0 4.799-4.798 7.997-9.597 6.398l-33.589-9.598c-3.198-1.599-4.798-4.798-4.798-7.996V433.347c0-17.594 17.595-30.39 35.19-25.59l86.368 25.59c3.2 1.6 6.4 0 7.998 0l86.371-25.59a25.38 25.38 0 0 1 8.284-1.537zm-169.83 52.72c-1.6 0-4.798 1.6-4.798 3.199v71.974c0 1.6 1.6 3.2 3.2 4.8l68.776 20.791c3.2 1.6 7.997 1.6 11.196 0l68.777-20.792c1.6 0 3.198-1.6 3.198-4.799v-70.375c0-1.6-1.6-3.2-4.799-3.2l-55.98 15.995c-11.196 3.199-22.392 3.199-33.588 0z" style="fill:#fff"/>
</svg>
