<svg xmlns="http://www.w3.org/2000/svg" xml:space="preserve" id="svg128" version="1.1" viewBox="0 0 1024 1024">
   <circle cx="512" cy="511.501" r="512" style="fill:#2265f7;fill-opacity:1"/>
   <path d="M692.617 291.281c-5.11.085-10.296 1-15.408 2.86l-160.623 47.591c-2.974 0-8.924 2.975-14.873 0L341.09 294.141c-32.72-8.924-65.44 14.872-65.44 47.591v362.895c0 5.949 2.975 11.897 8.924 14.871l62.467 17.848c8.923 2.974 17.846-2.974 17.846-11.899v-89.236c0-2.974 2.976-2.975 2.976-2.975l118.98 35.696c14.874 5.948 32.721 5.948 47.594 0l184.428-56.518c14.873-5.949 26.772-20.822 26.772-38.67l-.014-229.037c0-30.117-25.41-53.881-53.006-53.426zM376.98 389.44l104.27 32.77c20.854 5.958 41.71 5.958 62.562 0l104.27-29.791.008-.006c5.96 0 8.938 2.98 8.938 5.959v131.08c0 5.958-2.979 8.938-5.958 8.938l-128.107 38.728c-5.96 2.979-14.895 2.979-20.853 0L374.002 538.39c-2.98-2.98-5.96-5.959-5.96-8.938V395.396c.001-2.979 5.96-5.957 8.938-5.957z" style="fill:#fff;fill-opacity:1;stroke-width:.998463"/>
</svg>
