<svg xmlns="http://www.w3.org/2000/svg" viewBox="0 0 1024 1024">
   <circle cx="512" cy="512" r="512" style="fill:#002d73"/>
   <path d="M412.42 479.91c0-54.13 15.68-100.77 45.28-116.39C445.18 358.07 431 353 405 353c-56.58 0-77 43.85-100.4 132.05s-32.7 186 27.21 186c48.27 0 61.76-56.52 120.91-80.56-24.8-18.16-40.3-60.63-40.3-110.58Zm307 5.15C696 396.85 675.57 353 618.95 353c-40.82 0-52.46 12.47-74.43 19.38 54.55 21.92 108.84 65.5 108.84 107.53 0 40.71-50.77 81.91-103.53 103.83C627.89 601.13 638.52 671 692.18 671c59.94 0 50.63-97.74 27.23-185.95Zm-96.71-10.72c.08 3.13-2.8 6.31-8.53 9.57q-61.23 34.82-122.32 69.87c-11 6.46-27 16.32-27 0l-.16-79.44.16-79.43c0-16.31 16-6.45 27 0s110.91 63.41 122.32 69.86c5.72 3.29 8.59 6.4 8.51 9.56ZM556.76 351c-6.07 2.71-11.91 5.46-19.08 7.47a93 93 0 0 1-25.75 3.16c-11.15 0-19.15-1.32-25.62-3.16-7.17-2-13-4.77-19-7.47-14.56-6.47-31-13.29-62.22-13.29-33.55 0-57.42 13.58-75.3 39.58-16.83 24.45-28.32 59.94-39.95 103.83-11.81 44.57-20.53 93-18.15 131 2.39 37.31 17.09 74.2 60.15 74.2 19.71 0 34.75-7.5 47.46-17.48a192 192 0 0 0 17.36-15.89c5.29-5.27 10.59-10.94 16.35-16.6 21.5-21.12 47.59-41.2 99.12-41.2s77.49 20.08 98.95 41.2c5.74 5.66 11.1 11.31 16.31 16.6a192.42 192.42 0 0 0 17.39 15.89c12.71 10 27.75 17.48 47.46 17.48 43 0 57.76-36.89 60.12-74.2 2.41-38-6.3-86.39-18.12-131-11.64-43.9-23.13-79.38-39.93-103.83-17.88-26-41.84-39.58-75.33-39.58-31.21 0-47.68 6.82-62.18 13.29Zm-23.23-7.24c6.4-1.79 11.57-4.32 17-6.71 15.64-7 34.29-14.65 68.44-14.65 38.74 0 67.28 16.21 87.94 46.21 18.5 26.95 30.52 64.87 42.1 108.63 11.92 44.92 21.15 95.29 18.58 135.81-2.38 38.06-18.58 88.57-75.36 88.57-24.09 0-42.39-9.34-56.91-20.8a198.91 198.91 0 0 1-18.79-17.12c-5.18-5.24-10.5-10.84-16.21-16.46-19.71-19.41-42.12-36.8-88.19-36.8s-68.67 17.41-88.4 36.8c-5.71 5.62-11 11.21-16.19 16.48a207 207 0 0 1-18.78 17.13c-14.55 11.42-32.83 20.76-56.91 20.76-56.84 0-73-50.51-75.38-88.57-2.58-40.52 6.64-90.88 18.58-135.81 11.6-43.76 23.62-81.69 42.14-108.63 20.6-30 49.19-46.21 87.9-46.21 34.12 0 52.79 7.64 68.44 14.65 5.4 2.39 10.58 4.92 17 6.71a90.64 90.64 0 0 0 43 0Z" style="fill:#fff"/>
</svg>
