<svg xmlns="http://www.w3.org/2000/svg" viewBox="0 0 1024 1024">
   <circle cx="512" cy="512" r="512" style="fill:#d1ae52"/>
   <path d="M727 533.55c-4 7.91-18.92 12.47-32.16 14.31 15.64 10.46 30.82 28.59 29.75 56.07-.84 21.56-17.07 39-32.75 55.82-21 22.58-33.34 37.32-21.77 55L656.26 724c-19.38-29.67 3.42-54.13 23.53-75.72 13.61-14.6 27.68-29.7 28.26-45 1.2-30.62-24.67-43.85-34.77-47.86-10.79 16.41-31.68 32.74-72.09 34.24v.16c-1.05 0-2-.06-3-.09s-2 .09-3 .09v-.16c-14.4-.52-26.32-2.94-36.17-6.58-6.34 4.78-13.82 12-15.49 19.83-1 4.79.27 9.51 4 14.4s7.38 9.4 11 13.8c17.11 21 34.81 42.68 15.5 67.06-6.22 7.84-13.32 12.83-19.6 17.24-13.55 9.58-22.54 15.89-18.54 47l-16.45 2.16c-5.32-41.2 10.35-52.22 25.5-62.89 5.86-4.13 11.41-8 16.1-14 10-12.61 4.09-22.1-15.35-46q-5.8-7-11.33-14.26c-6.67-8.8-9.11-18.56-7-28.18 2.19-10 8.77-18.3 15.39-24.4-30.56-20.11-31.11-53.6-31.11-54.07h16.61c0 1.55.8 28.78 29.27 43.3l2.06 1c9.61 4.5 22.26 7.52 38.72 7.86 68.6-1.44 70-50.1 70-52.2h16.61a58.53 58.53 0 0 1-1.65 11.45c7.93-.29 22.71-3 28.09-6-3.06-11.06-22.69-47.49-40.73-77.62l5-12.43 1.91-.53c-2.86-13-8.48-39.15-11.28-56.41-63.56-9.61-109.25-2.19-136.07 22.22-25.87 23.62-24.31 54.89-24.25 56.23l-9.21.59-7.35.61c-.37-4.3-3.34-8.83-6.95-10.53-3.28-1.54-7.06-.8-11.24 2.18-6.48 4.62-8.79 10.46-7.26 18.43 2.65 13.95 16.48 29.27 27.13 35.83 1.62-1 2.79-1.64 3.27-1.91l2.41 4.61c.34.11.73 1.37.73 1.37l.74 1.43 3.9 7.39a64.78 64.78 0 0 0-8 5.29s-.83 1-1.11.87c-5.92 4.73-12.27 11.39-13.8 18.53-1 4.79.27 9.49 4 14.4s7.37 9.38 11 13.78c17.11 21 34.8 42.71 15.51 67.09-6.22 7.83-13.33 12.83-19.59 17.24-13.58 9.57-22.55 15.88-18.54 47L455.11 704c-5.32-41.18 10.35-52.22 25.48-62.87 5.85-4.15 11.4-8 16.12-14 10-12.64 4.09-22.11-15.35-46-3.68-4.52-7.5-9.2-11.33-14.27-6.69-8.81-9.1-18.57-7-28.19 2.06-9.44 8-17.32 14.23-23.3-13.45-10.15-26.53-27.16-29.61-43.32-2.76-14.35 2.22-26.89 14-35.3 9.14-6.5 19-7.8 27.82-3.66a23.11 23.11 0 0 1 2.62 1.48 90.73 90.73 0 0 1 26.72-45.38c30.51-28 80.66-37 149-26.61 15.3-19.61 21.92-48.72-4.37-73.37-24.14-22.54-66.37-29.21-95.32-1.21l-13.86-4.31c-4.89-23.34-32.1-34.94-55.94-38-36-4.63-83.11 7.13-101.22 43.94-24.08 48.82 6.88 73.48 8.21 74.52l-5.44 15.05c-35.64-2-59.6 3.93-71.23 17.53-15 17.58-8.92 47.71-4 71.93 4.11 20.27 7.37 36.28-.68 45.79-9.15 10.82-20.11 14.73-30.19 14.73a40.57 40.57 0 0 1-18.19-4.34c-14.18-7.18-22-21.15-19.11-33.94l16.19 3.77c-1.17 5.06 3.3 11.61 10.42 15.2 3.75 1.93 16.92 7.12 28.25-6.29 2.78-3.28-.67-20.31-3-31.57-5.65-27.8-12.67-62.41 7.7-86.22 13-15.14 34.67-23 66.05-23.67-9.73-15.53-18.35-42.5.1-79.95 21.75-44.11 76.5-58.47 118.21-53.1 31.58 4.06 55.55 18.5 65.78 38.83 35.21-25.32 81.29-16.42 108.52 9.08 21.6 20.23 35.94 56.92 7.06 94.85 3 21.11 13.47 67.59 13.58 68.07l-5.37 9C733 521.88 729 529.69 727 533.55ZM437.35 378c6.53 8.79 16.21 13.7 25.83 13.7a27.58 27.58 0 0 0 11-2.27c14.93-6.47 18.77-12.17 28-25.91q10.18-15.2 21.3-29.73c7.67-10 15.88-15.23 24.39-15.59 14.09-.61 25.78 11.93 25.88 12.05L586.08 319c-.67-.77-16.84-18.34-38.73-17.52-13.68.56-26.13 8-36.94 22.12q-11.48 14.89-21.92 30.54c-8.83 13-10.39 15.41-20.89 19.94-6.17 2.67-13.18-1-16.92-6.07-2.29-3.11-6.78-11.31 1.05-20.84l-12.79-10.69C428.58 349 428 365.36 437.35 378Zm171.53 294.7c-3.71-4.92-5-9.61-4-14.4 2.45-11.45 17.36-21.68 22.88-24.66L620 618.85c-2.72 1.45-26.75 14.82-31.32 35.87-2.07 9.61.34 19.36 7 28.17q5.52 7.25 11.33 14.27c19.42 23.87 25.33 33.36 15.35 46-4.73 6-10.27 9.85-16.12 14-15.14 10.68-30.8 21.69-25.51 62.9l16.48-2.17c-4-31.13 5-37.44 18.54-47 6.27-4.42 13.37-9.42 19.56-17.26 19.32-24.36 1.62-46.08-15.47-67.07-3.59-4.44-7.3-9.01-10.96-13.84ZM449.24 403.63c-74.25-2.79-91.72 24.14-93.29 47.21-.69 10.31.1 21.62 1 33.58 1.83 25.34 3.72 51.54-9.53 64.86-8.21 8.28-22 11.56-42.32 10.05L303.85 576c3.53.26 6.95.38 10.2.38 20.09 0 34.9-5 45.08-15.29 18.62-18.72 16.35-50.19 14.36-77.93-.82-11.38-1.58-22.11-.95-31.21 1.54-22.83 27.12-33.46 76.1-31.61Zm-.59 16.74Zm202 28.49 6.65-4.13 6.74-4c-.4-.7-10.36-17.17-36.23-17.17-24.23 0-53.16 23.67-54.38 24.69l9.92 12.22c7.11-5.89 28.95-21.13 44.46-21.13 16.59-.03 22.59 9.12 22.85 9.52Zm-27.38 15.35c0 5.44 5 9.84 11.06 9.84s11.09-4.41 11.09-9.84-5-9.85-11.09-9.85-11.05 4.42-11.05 9.86Z" style="fill:#fff"/>
</svg>
