<svg xmlns="http://www.w3.org/2000/svg" viewBox="0 0 1024 1024">
   <circle cx="512" cy="512" r="512" style="fill:#ef7878"/>
   <path d="M302.44 417.44a122.67 122.67 0 0 1-24.28-74.11 120.82 120.82 0 0 1 11.5-52.39 443.24 443.24 0 0 1 108.62 40.89c-39.62 19.17-71.56 49.83-95.84 85.61Zm419.13 0a122.67 122.67 0 0 0 24.28-74.11c0-19.17-3.83-37.06-11.5-52.39a359.7 359.7 0 0 0-108.62 40.89c38.33 19.17 71.55 49.83 95.83 85.61ZM569.5 476.22a14.18 14.18 0 0 0-14.06 14.06c0 2.56 1.28 5.11 2.56 7.67 5.11 7.67 12.78 12.78 21.72 15.33a40.82 40.82 0 0 0 3.83-17.89V489c-1.27-7.67-6.38-12.78-14.05-12.78Zm173.78 76.67v138a42.17 42.17 0 0 1-84.34 0v-34.5H362.49v34.5a42.17 42.17 0 1 1-84.34 0V559.28c0-126.5 98.39-233.84 224.9-239 132.9-5.07 241.51 100.99 240.24 232.61Zm-108.61-56.22c-3.83-1.28-7.67-1.28-10.22 2.56-3.83 5.11-8.94 10.22-15.33 12.78v-5.11c0-14.06-5.11-25.56-12.78-35.78-6.39-8.94-15.33-14.06-26.83-14.06-17.89 0-33.22 15.33-33.22 33.22a32.24 32.24 0 0 0 7.66 21.72c5.11 7.67 12.78 12.78 20.45 16.61-5.11 2.56-11.5 5.11-17.89 5.11a14.06 14.06 0 1 0 0 28.11h6.39a56.13 56.13 0 0 0 49.84-30.67c14.06-5.11 25.56-14.06 33.22-26.83 2.54-3.83 1.27-8.94-1.29-7.66Z" style="fill:#fff"/>
</svg>
