<svg xmlns="http://www.w3.org/2000/svg" viewBox="0 0 1024 1024">
   <circle cx="512" cy="512" r="512" style="fill:#b3b2a4"/>
   <path d="M764.28 654.33a51.74 51.74 0 0 0 3.72-8.06v6.48A51.2 51.2 0 0 1 716.78 704h-409.6A51.21 51.21 0 0 1 256 652.79v-6.53a51.9 51.9 0 0 0 3.6 7.85c.58 1 1.19 2 1.83 3q.87 1.32 1.82 2.6c.39.53.79 1 1.2 1.55l.29.35a53.75 53.75 0 0 0 42.41 20.25h409.6a37 37 0 0 0 3.84-.26l.77-.08h.53c.37 0 .74 0 1.12-.09h.19c.26 0 .51 0 .75-.06h.12a9.46 9.46 0 0 0 1.11-.23l.32-.08a54.75 54.75 0 0 0 6-1.3l.56-.14c.35-.09.74-.18 1.16-.31a54.1 54.1 0 0 0 6.52-2.57c.86-.4 1.63-.77 2.36-1.15a54.24 54.24 0 0 0 5.71-3.42c.6-.42 1.15-.84 1.68-1.25l.52-.4c1.47-1.13 2.88-2.32 4.2-3.56.1-.1.21-.18.32-.27a10.29 10.29 0 0 0 .94-.82 53.77 53.77 0 0 0 3.78-4.25l.15-.18c.45-.56.9-1.13 1.33-1.71q.9-1.2 1.72-2.45l.24-.37q.85-1.27 1.59-2.58ZM753 335a51.13 51.13 0 0 1 15 36.2v256a51.1 51.1 0 0 1-44.36 50.75h-.09a51.22 51.22 0 0 1-6.76.5H307.18A51.18 51.18 0 0 1 256 627.16V371.21A51.1 51.1 0 0 1 271 335a47.85 47.85 0 0 1 7.5-6 50.78 50.78 0 0 1 5.08-3.1 50.48 50.48 0 0 1 9.79-4c.44-.12.88-.22 1.32-.33 1.52-.39 3.07-.7 4.64-.94.58-.09 1.15-.19 1.73-.26a50.91 50.91 0 0 1 5.8-.39h410.29a51 51 0 0 1 5.79.38c.45.05.89.13 1.34.2a50.81 50.81 0 0 1 5 1l1 .24a51.11 51.11 0 0 1 21 11.59c.53.55 1.16 1.01 1.72 1.61Zm1.57 16.44L571.65 488.29 557.08 476a59.52 59.52 0 0 0-90.18 0l-14.53 12.26-182.9-136.85a62.31 62.31 0 0 1-4.79-5.29c-.37.64-.81 1.23-1.16 1.88l176.09 151.05-170.19 143.82a74.46 74.46 0 0 0-5.9 7.5c.35.65.67 1.28 1 1.9a66.29 66.29 0 0 1 4.81-5.3L466.9 499.19a64.92 64.92 0 0 1 90.18 0L754.49 647a66.16 66.16 0 0 1 4.74 5.27h.15c.37-.62.74-1.25 1.09-1.9a82.91 82.91 0 0 0-5.94-7.5L584.6 499.19l169.93-143.72a78.73 78.73 0 0 0 5.94-7.47c-.35-.65-.78-1.24-1.15-1.87a61.33 61.33 0 0 1-4.74 5.28Z" style="fill:#fff"/>
</svg>
