<svg xmlns="http://www.w3.org/2000/svg" viewBox="0 0 1024 1024">
   <circle cx="512" cy="512" r="512" style="fill:#336791"/>
   <path d="M774.61 591.26a12.43 12.43 0 0 0-1.33-2.81c-3.28-6.21-11.28-8.06-23.75-5.45-39 8-54.09 3.09-59.56-.45 31.65-48.3 57.66-106.64 71.72-161.06 6.4-24.78 18.82-83.1 2.88-111.59a36.89 36.89 0 0 0-3.56-5.54c-30.41-38.86-75-59.7-129.06-60.27-35.25-.37-65.34 8.16-73.49 11.31q-6.06-1.13-12.17-1.92a189.71 189.71 0 0 0-30.93-3c-27.88-.43-52 6.23-71.92 19.83-20.22-7.57-112.94-38.79-170.32 1.86-32 22.7-46.84 63.28-44 120.61 1 19.29 12 78.63 29.3 135.45q16.27 53.29 33.8 84.48c13 23.45 26.55 37.58 40.43 42.2 10.55 3.52 26.71 3.4 43.82-17.17 18.9-22.72 37.5-43.06 45.86-52a73.21 73.21 0 0 0 32.78 8.9s0 .06 0 .09q-3 3.55-5.83 7.2c-8 10.15-9.65 12.26-35.38 17.55-7.32 1.51-26.75 5.52-27 19.14a14 14 0 0 0 2.17 7.71c5.35 10 21.73 14.38 23.94 14.93 31.47 7.87 59.06 2.17 79.51-16-.4 52.62 1.83 104.18 8.15 120 5.22 13 18 44.91 58.23 44.91a93.48 93.48 0 0 0 19.57-2.22c42-9 60.27-27.58 67.33-68.53 3.55-20.53 9.47-67.81 12.71-96.72.4-1.66.84-2.85 1.34-3.21 0 0 1.64-1.11 10.07.72a8.66 8.66 0 0 0 1 .17l6 .53h.35c20 .91 45.08-3.36 59.69-10.16 15.18-7 42.59-24.35 37.62-39.38Zm-499.69-67.13c-17.53-57.44-27.78-115.21-28.59-131.41-2.56-51.21 9.84-86.86 36.84-105.95 43.32-30.63 114.14-12.75 144-3.07l-.24.21c-47.73 48.2-46.6 130.56-46.48 135.6 0 1.94.17 4.69.38 8.47.82 13.85 2.35 39.63-1.73 68.82-3.8 27.13 4.57 53.69 22.94 72.86q2.83 2.95 5.94 5.6c-8.18 8.76-26 28.13-44.87 50.88-13.39 16.09-22.63 13-25.67 12-9.24-3.08-19.17-13.85-29.2-31.18-11.31-19.79-22.72-47.91-33.38-82.84Zm141.67 120a38.3 38.3 0 0 1-10.19-4.18 57.27 57.27 0 0 1 11.4-3.32c30.27-6.23 34.94-10.63 45.15-23.59 2.34-3 5-6.34 8.66-10.44a8.37 8.37 0 0 0 1.74-3.06c4-3.57 6.42-2.59 10.3-1 3.68 1.52 7.26 6.13 8.71 11.21.69 2.4 1.46 6.94-1.07 10.48-21.33 29.85-52.39 29.46-74.7 23.89ZM466 550.05l-1.24 3.33c-3.14 8.41-6.05 16.23-7.86 23.65-15.74 0-31.05-6.77-42.7-18.92-14.81-15.45-21.53-36.94-18.45-59 4.31-30.84 2.72-57.7 1.86-72.13-.12-2-.24-3.79-.29-5.19 7-6.18 39.29-23.49 62.33-18.22 10.52 2.41 16.92 9.57 19.59 21.89 13.79 63.77 1.83 90.34-7.79 111.7-2 4.4-3.85 8.56-5.45 12.86Zm173.65 107.84c-.4 4.17-.84 8.87-1.46 14.05l-3.44 10.34a8.37 8.37 0 0 0-.43 2.54c-.14 11.19-1.27 15.3-2.71 20.5-1.49 5.41-3.19 11.53-4.23 24.94-2.6 33.35-20.71 52.51-57 60.29-35.74 7.67-42.08-11.72-47.67-28.81q-.86-2.69-1.81-5.35c-5.08-13.82-4.51-33.3-3.71-60.26.39-13.23-.59-44.84-7.79-62.41q.14-10.37.45-21a8.32 8.32 0 0 0-.36-2.65 35.2 35.2 0 0 0-1-4.91c-2.89-10.1-9.94-18.55-18.39-22.05-3.36-1.39-9.52-3.94-16.93-2 1.58-6.51 4.32-13.86 7.29-21.81l1.25-3.35c1.4-3.77 3.16-7.68 5-11.82 10.06-22.35 23.83-53 8.88-122.1-5.6-25.9-24.3-38.54-52.65-35.61-17 1.76-32.54 8.62-40.3 12.55q-2.33 1.18-4.62 2.46c2.17-26.09 10.35-74.86 40.93-105.71a95.05 95.05 0 0 1 7.15-6.51 8.33 8.33 0 0 0 3.41-1.52c17.74-13.46 40-20.06 66.08-19.63a256.28 256.28 0 0 1 27.69 1.91c45.73 8.36 76.5 34.12 95.18 56.19 19.2 22.69 29.6 45.55 33.75 57.88-31.21-3.17-52.44 3-63.2 18.37-23.41 33.39 12.8 98.34 30.21 129.59 3.19 5.72 5.95 10.66 6.81 12.77 5.67 13.74 13 22.91 18.36 29.6 1.64 2.05 3.24 4 4.45 5.78-9.45 2.72-26.43 9-24.88 40.49-.29 3.69-1 10.54-2 19.22a158.4 158.4 0 0 0-2.34 18.07Zm21-38.23c-1-19.61 6.35-21.66 14.07-23.83q1.6-.44 3.18-1a28.34 28.34 0 0 0 3.17 2.43c13.45 8.88 37.32 9.94 70.91 3.17a95.39 95.39 0 0 1-22.48 14.18c-9.67 4.49-25.84 7.85-41.21 8.57-17 .79-25.61-1.9-27.64-3.56ZM674.08 401a170.56 170.56 0 0 1-2.49 23.62 219 219 0 0 0-3 27.74c-.33 10.3 1 21 2.2 31.37 2.51 20.92 5.1 42.46-4.89 63.71a83.19 83.19 0 0 1-4.42-9.09c-1.24-3-3.94-7.84-7.67-14.53-14.52-26-48.52-87-31.11-111.89 8.95-12.8 31.62-13.35 51.37-10.92Zm5.39 165.41-2-2.53-.84-1c17.13-28.29 13.78-56.28 10.8-81.09-1.23-10.18-2.38-19.8-2.09-28.83a204.68 204.68 0 0 1 2.79-25.73c1.51-9.79 3-19.91 2.62-31.85a13.18 13.18 0 0 0 .28-4.49c-1.08-11.45-14.15-45.7-40.79-76.72-14.33-16.68-35.13-35.31-63.41-48.1a218.21 218.21 0 0 1 47.74-4.38c48.38 1.08 86.66 19.18 113.77 53.83a21.41 21.41 0 0 1 1.57 2.36c17.05 32-6.51 148-70.44 248.58ZM471.54 422.18c-.59 4.23-7.29 10-14.65 10A13.73 13.73 0 0 1 455 432a18.79 18.79 0 0 1-11.93-7.44c-1.08-1.43-2.84-4.2-2.49-6.71a5.22 5.22 0 0 1 2.18-3.51c2.79-2.11 8.3-2.89 14.38-2 7.46 1 15.15 4.57 14.42 9.87Zm187-9.7c.26 1.87-1.16 4.74-3.61 7.32a17 17 0 0 1-9.62 5.26 12.87 12.87 0 0 1-1.77.12c-6.92 0-12.77-5.53-13.22-8.77-.57-4.16 6.23-7.32 13.23-8.3s14.41.21 15 4.37Z" style="fill:#fff"/>
</svg>
