<svg xmlns="http://www.w3.org/2000/svg" viewBox="0 0 1024 1024">
   <circle cx="512" cy="512" r="512" style="fill:#b3b2a4"/>
   <path d="M282 296.5c-31.692 0-57.5 26.69-57.5 57.5v287c0 31.768 25.719 57.8 57.5 57.8h460c31.781 0 57.5-26.032 57.5-57.8V354c0-30.982-25.561-57.5-57.5-57.5zm-48 29.3c1.599 1.97 3.512 3.853 5.6 5.9l221.7 165.9c28.13 27.183 73.27 27.181 101.4 0l221.7-165.9c2.087-2.047 4-3.93 5.6-5.9l1 2.1-6.802 8.4-190.9 161.2 191.1 161.4c2.604 2.903 4.698 5.648 6.6 8.4l-1.2 2.2c-1.693-2.081-3.491-4.113-5.4-6l-205.5-153.7-16.2 13.9c-26.943 30.635-74.457 30.635-101.4 0l-16.2-13.9-205.5 153.7c-1.908 1.887-3.706 3.919-5.4 6l-1.2-2.2c1.903-2.752 3.997-5.497 6.6-8.4l191.1-161.4-190.9-161.2-6.8-8.4zm-9.5 320.7V670c0 31.748 25.738 57.5 57.5 57.5h460c31.762 0 57.5-25.752 57.5-57.5v-23.5c0 31.573-25.913 57.25-57.5 57.25H282c-31.587 0-57.501-25.677-57.5-57.25z" style="fill:#fff"/>
</svg>