<svg xmlns="http://www.w3.org/2000/svg" viewBox="0 0 1024 1024">
   <circle cx="512" cy="512" r="512" style="fill:#3b1c4a"/>
   <path d="M294.37 289.19c-2.842 0-5.184 2.342-5.184 5.184v128.44c0 2.842 2.072 4.922 4.914 5.191 44.209 2.574 79.354 39.291 79.354 84.268s-35.145 81.423-79.354 83.728c-2.842.269-4.914 2.35-4.914 5.191v128.44c0 2.843 2.342 5.184 5.184 5.184h270.71v-20.66c0-4.57 3.456-8.034 8.027-8.034s8.027 3.617 8.027 8.034v20.66h148.49c2.842 0 5.184-2.341 5.184-5.184v-128.44c0-2.842-2.072-4.922-4.914-5.19-44.209-2.574-79.354-39.022-79.354-83.999s35.145-81.655 79.354-83.998l-.075-.045c2.842-.269 4.914-2.341 4.914-5.184v-128.4c0-2.842-2.342-5.184-5.184-5.184H581.06v20.66c0 4.418-3.61 8.035-8.027 8.035s-8.027-3.618-8.027-8.035v-20.66zm278.66 59.917c4.57 0 8.027 3.61 8.027 8.027v41.365c0 4.263-3.725 8.027-8.027 8.027s-8.027-3.725-8.027-8.027v-41.365c0-4.57 3.456-8.027 8.027-8.027m0 89.414c4.417 0 8.027 3.733 8.027 8.034v41.365c0 4.417-3.61 8.027-8.027 8.027s-8.027-3.61-8.027-8.027v-41.365c0-4.417 3.61-8.034 8.027-8.034M464.25 454.35c34.376 0 57.884 18.358 57.884 57.382 0 35.145-20.439 57.382-49.092 57.382v-.038c-6.99 0-12.904-.763-15.746-1.53v44.702h-39.295v-149.37c10.601-4.916 24.816-8.53 46.249-8.53zm-.27 22.971c-2.82.003-4.888.5-6.684 1.035v66.946c1.536.5 3.608 1.035 6.181 1.035 13.943 0 19.902-11.635 19.902-34.373 0-22.72-5.177-34.624-19.362-34.643zm109.05 50.12c4.57 0 8.027 3.61 8.027 8.027v41.373c0 4.263-3.725 8.027-8.027 8.027s-8.027-3.725-8.027-8.027v-41.373c0-4.57 3.456-8.027 8.027-8.027m0 89.422c4.417 0 8.027 3.725 8.027 8.027v41.365c0 4.417-3.61 8.027-8.027 8.027s-8.027-3.61-8.027-8.027V624.89c0-4.417 3.61-8.027 8.027-8.027" style="fill:#fff"/>
</svg>
