<svg xmlns="http://www.w3.org/2000/svg" viewBox="0 0 1024 1024">
   <circle cx="512" cy="512" r="512" style="fill:#0068af"/>
   <path d="M231.88 552.34v-84.73h29.52v13.84a34.11 34.11 0 0 1 27.86-16 19.63 19.63 0 0 1 3.65.33v28.52a43.6 43.6 0 0 0-10-1.33c-10 0-18.18 4.17-21.52 10.17v49.21Zm71.58-84.72H333v84.73h-29.53Zm77.05 84.72v-52.87a15.08 15.08 0 0 1 13.49-7.84c7.17 0 10.67 4.51 10.67 13.68v47h29.52v-52.84a14.65 14.65 0 0 1 13.34-7.84c7.17 0 10.67 4.51 10.67 13.68v47h29.52v-52.84c0-22.18-12.34-34-30.19-34a34.61 34.61 0 0 0-27.68 14 27.08 27.08 0 0 0-23.35-14 30.65 30.65 0 0 0-26 12.17v-10H351v84.73Zm200-74.05a51.94 51.94 0 0 0-68.38 0 44.12 44.12 0 0 0 0 63.55 52.45 52.45 0 0 0 68.38 0 44.12 44.12 0 0 0 0-63.55m-34.19 51a18.41 18.41 0 0 1-18.7-18.11v-1.23a18.69 18.69 0 1 1 37.36-1.35v1.35a18.41 18.41 0 0 1-17.45 19.32h-1.23m242-51a51.94 51.94 0 0 0-68.38 0 44.12 44.12 0 0 0 0 63.55 52.45 52.45 0 0 0 68.38 0 44.12 44.12 0 0 0 0-63.55m-34.19 51a18.41 18.41 0 0 1-18.7-18.11v-1.23a18.69 18.69 0 1 1 37.36-1.35v1.35a18.41 18.41 0 0 1-17.45 19.32h-1.23m-543.81-88.43a48.14 48.14 0 0 0-34.19-12.46H128v124.28h29.52V453l18.57.09a18.25 18.25 0 0 1 18.69 17.8v1.22a18.43 18.43 0 0 1-17.84 19h-6.74v24.74h5.89a48.26 48.26 0 0 0 34.19-12.57 42.85 42.85 0 0 0 0-62.46m489 68a40.69 40.69 0 0 0-13.51-31.15 48.26 48.26 0 0 0-34.2-12.67h-5.89v24.74h5.89A18.43 18.43 0 0 1 670.26 508v.84a18.25 18.25 0 0 1-17.46 19h-1.22l-18.57.09v-99.6h-29.53v124.38h48.09a48.22 48.22 0 0 0 34.19-12.57 41 41 0 0 0 13.51-31.31m166.37-22.38 8.56 12.26 21.8-31.24h-32.85l-5.37 7.71Zm0 47.09-7.87 11.28 5.36 7.71H896l-21.8-31.23Zm-15.74-47.1-13.25-19H803.8L833.47 510l-29.67 42.5h32.85l13.23-19 16.44-23.5ZM333 443.32a14.76 14.76 0 1 0-14.76 14.76A14.76 14.76 0 0 0 333 443.32" style="fill:#fff"/>
</svg>
