<svg xmlns="http://www.w3.org/2000/svg" viewBox="0 0 1024 1024">
   <circle cx="512" cy="512" r="512" style="fill:#d92b26"/>
   <path d="M815 440.95a27.53 27.53 0 0 1-16.55 25.22L602.11 550.9a22.7 22.7 0 0 1-18-41.68l158.16-68.28-158.15-68.27a22.7 22.7 0 0 1 18-41.68l196.33 84.73A27.53 27.53 0 0 1 815 440.95Zm-423.37 2.68c14.87 15.1 23.06 36 23.06 58.81 0 46.27-37.13 82.51-84.52 82.51H292.4v47.11a22.7 22.7 0 1 1-45.4 0V442a22.81 22.81 0 0 1 22.69-22.7h59.47c25.18-.04 46.78 8.38 62.47 24.33Zm-22.33 58.81c0-20.21-11.16-41.82-42.49-41.82H292.4v83h35.76c23.84-.04 41.15-17.34 41.15-41.18Zm202.15-39.8a21.7 21.7 0 0 0 0-43.38H439.82a21.69 21.69 0 0 0 0 43.38h43.11v169.41a22.7 22.7 0 1 0 45.4 0V462.64Z" style="fill:#fff"/>
</svg>
