<svg xmlns="http://www.w3.org/2000/svg" viewBox="0 0 1024 1024">
   <circle id="Background" cx="512" cy="512" r="512" style="fill:#8a40ff"/>
   <path d="m331.14 181.56a46.108 46.108 0 0 0-46.107 46.107 46.108 46.108 0 0 0 46.107 46.107 46.108 46.108 0 0 0 46.109-46.107 46.108 46.108 0 0 0-46.109-46.107zm163.94 5.123c-22.542 0-40.984 18.443-40.984 40.984 0 22.542 18.443 40.984 40.984 40.984 101.95 0 189.04 61.99 226.95 150.11 2.0492 4.6108 3.0742 10.245 3.0742 15.881 0 22.542-18.443 40.986-40.984 40.986-16.906 0-31.764-10.247-37.912-25.104-25.103-58.916-83.506-99.9-151.13-99.9h-163.94c-22.542 0-40.984 18.443-40.984 40.984v409.85c0 22.542 18.443 40.984 40.984 40.984 22.542 0 40.986-18.443 40.986-40.984v-368.86h122.95c45.083 0 81.971 36.888 81.971 81.971 0 45.083-36.888 81.969-81.971 81.969-22.542 0-40.984 18.443-40.984 40.984s18.443 40.984 40.984 40.984c67.625 0 126.03-40.983 150.62-99.387 6.66-14.857 21.006-25.104 37.912-25.104 22.542 0 40.984 18.443 40.984 40.984 0 5.6354-1.025 10.758-3.0742 15.881-37.399 87.605-124.49 149.6-226.44 149.6-22.542 0-40.984 18.443-40.984 40.984 0 22.542 18.443 40.984 40.984 40.984 180.85 0 327.88-147.03 327.88-327.88 0-180.85-147.03-327.88-327.88-327.88z" style="fill:#fff"/>
</svg>
