<svg xmlns="http://www.w3.org/2000/svg" viewBox="0 0 1024 1024">
   <circle cx="512" cy="512" r="512" style="fill:#580062"/>
   <path d="m215 289 13.863 20.262 4.863 7.107-3.742 457.43 557.04-8.73 7.326-453.24 15.47-21.297-15.124-.04.022-1.35-309.96.554-269.76-.693zm291.33 30.17c71.255 0 128.96 57.7 128.96 128.96 0 71.255-57.702 128.96-128.96 128.96s-128.96-57.7-128.96-128.96c0-71.255 57.7-128.96 128.96-128.96zm247.52 4.475-118.5 163.15a134.523 134.523 0 0 0 5.668-38.668c0-55.792-33.972-103.69-82.346-124.13l195.18-.352zm-300.3.539c-48.145 20.54-81.92 68.314-81.92 123.94 0 9.823 1.08 19.392 3.08 28.619l-104.14-152.23 182.98-.328zm305.57 36.135-5.752 355.96-163.8-122.51 169.55-233.45zm-491.38 5.789 159.28 232.84-162.2 124.58 2.926-357.41zm238.58 7.724c-45 0-81.537 36.545-81.537 81.545s36.537 81.543 81.537 81.543c45 0 81.545-36.543 81.545-81.543 0-45-36.545-81.545-81.545-81.545zm-54.576 36.332a16.217 15.429 90 0 1 2.188.258 16.217 15.429 90 0 1 12.36 18.898 16.217 15.429 90 0 1-17.98 12.992 16.217 15.429 90 0 1-12.36-18.898 16.217 15.429 90 0 1 15.793-13.25zm131.32 148.61-78.4 107.94-72.744-106.34c21.324 14.167 46.898 22.44 74.402 22.44 28.521 0 54.96-8.903 76.742-24.044zm-8.676 55.885 156.25 116.86-442.89 6.942 153.87-118.17 62.414 91.24 70.357-96.87z" style="fill:#ffffff"/>
</svg>
