<svg xmlns="http://www.w3.org/2000/svg" viewBox="0 0 1024 1024">
   <circle cx="512" cy="512" r="512" style="fill:#17a0d8"/>
   <path d="M508.1 746.32c-2.34-2.88-5.66-4.49-8.68-6.44-2.46-1.59-3.32-3-2.81-6.19 4.48-27.86 8.72-55.76 13-83.65 2.9-18.86 5.77-37.73 8.77-57.32 4.34 3 8.39 5.63 12.3 8.46 1.16.84.45 2.33.28 3.48-1 6.74-2 13.48-3.07 20.22l-7 45.68-6.94 45.28c-.59 3.9-1.15 7.8-1.75 11.88 1.88.25 3-.82 4.25-1.47q53.63-28 107.24-56.1c1-.51 2-1 2.89-1.52a2.46 2.46 0 0 1 3 0c3.66 2.57 7.38 5.06 11.55 7.9-1.66 1-2.87 1.69-4.12 2.35q-61.9 32.52-123.79 65c-1.22.64-2.92.75-3.49 2.39ZM382.51 492c-1.18 7.32-2.26 14-3.34 20.71Q374 545 368.85 577.35c-2 12.65-4.11 25.3-6 38-.33 2.31-1.25 3.29-3.35 3.86-3.92 1.08-7.8 2.37-11.56 3.54-.92-.94-.45-1.73-.33-2.51q5.55-35.15 11.09-70.3 5.39-34.14 10.75-68.28c.31-1.93.94-3.14 3.1-3.64a75.46 75.46 0 0 0 9.34-3 4.06 4.06 0 0 1 5 1.13c7.95 8.07 16.08 16 24.14 23.92l76.89 76c.57.56 1.08 1.18 1.79 2-4.61 1.9-9.22 3-13.73 4.52-1.58.51-2.21-.73-3-1.54q-9.37-9.16-18.7-18.36l-70-69c-.38-.38-.8-.71-1.85-1.63M504.93 565c-3.59-3.53-6.84-6.77-10.14-9.94-1.18-1.13-.57-2.19-.17-3.35 3-8.49 5.88-17 8.82-25.47l30.94-89.16c.39-1.11.74-2.23 1.13-3.41-1.8-.68-3.14.31-4.49.73q-57.7 18.09-115.37 36.27c-6 1.89-4 2.44-8.67-2.1-2.34-2.28-4.62-4.61-7-7 1.1-1.38 2.73-1.39 4.09-1.82l134-42.44c3.24-1 5.27-.6 7.35 1.92a40.63 40.63 0 0 0 5.54 5.44c1.89 1.56 2 3.08 1.19 5.31-5 14.1-9.92 28.27-14.85 42.41l-31 88.72c-.39 1.12-.82 2.22-1.42 3.85m-8.18 29.7c-.75 4.87-1.48 9.15-2 13.46-.23 1.83-1.52 2-2.82 2.41q-15.19 4.81-30.38 9.64l-88 27.83c-1.12.35-2.23.74-3.63 1.21a12.3 12.3 0 0 0 3.67 3q49.49 34.16 99 68.24c2.89 2 4.49 3.75 3.39 7.49-.95 3.23-1.14 6.68-1.68 10.05-1.6 0-2.41-1-3.35-1.62q-58-39.85-116-79.69c-2.57-1.76-3.32-3.51-2.63-6.39a42 42 0 0 0 1.31-8.06c.1-2.45 1.38-3.18 3.38-3.81q68.79-21.64 137.55-43.35c.5-.16 1-.23 2.19-.47M392 305.68c-.26 4.82-1.47 9.31-2.07 13.88-.23 1.78-1.92 1.73-3.15 2.11-8.6 2.64-17.21 5.23-25.81 7.84q-46.35 14.07-92.7 28.17c-1.1.33-2.51.25-3.38 1.66 1.28 1 2.55 1.93 3.85 2.85q49.31 34.81 98.66 69.63c2.55 1.79 3.31 3.48 2.65 6.37-.82 3.55-1.33 7.17-2 10.79-1.63-.25-2.57-1.31-3.66-2.08Q307.2 406.57 250 366.3c-2.66-1.87-3.6-3.61-2.78-6.68a48.26 48.26 0 0 0 1.42-8.05c.19-2.12 1.1-3 3.1-3.57 10.85-3.18 21.65-6.54 32.47-9.81l104.09-31.45c1.16-.35 2.32-.66 3.75-1.06m141.56 96.15c-3.89 1.22-7.58 2.22-11.15 3.54-2.49.93-4.12.49-6.05-1.46-12.94-13.1-26-26-39.1-39q-23.49-23.39-47-46.75c-.94-.93-1.64-2.19-3.36-2.68-.83 4.89-1.68 9.7-2.47 14.51Q419 363 413.61 396.13c-2.28 14-4.56 28-6.73 42-.34 2.18-1.09 3.34-3.34 3.91-4 1-7.81 2.35-11.91 3.62-.64-2.61.35-5 .72-7.25 4.68-29.21 9.5-58.38 14.26-87.57 2.52-15.47 5-30.94 7.45-46.43.29-1.87.87-2.9 2.79-3.39a90.75 90.75 0 0 0 9.35-2.95c2.35-.88 3.88-.32 5.65 1.47 12.57 12.7 25.26 25.28 37.92 37.9q30.58 30.49 61.13 61c.93.93 2.21 1.6 2.69 3.41m17.25 200.05a140.76 140.76 0 0 1-3.45-19.63c-2.88-24.57-.31-48.49 9.14-71.44 14.82-36 40.12-62.22 75-79.31 17.23-8.45 35.42-14 54.4-17.68 1.13 1.43.64 3.14.83 4.68.35 2.84.46 5.71.87 8.54.29 2.09-.5 2.79-2.51 3.26a207.91 207.91 0 0 0-36.81 12.18c-31.41 13.92-55.61 35.59-71.14 66.49a127.82 127.82 0 0 0-13.5 65.72 147.6 147.6 0 0 0 2.15 18.67c.37 2 0 3.22-2.18 3.92-4.14 1.32-8.2 2.94-12.77 4.61m65.21 45.91c.15-4.78.36-9.13.39-13.49 0-2.06.84-2.69 2.83-3a145.4 145.4 0 0 0 35.7-10.1c41.56-18.39 68.39-49.44 79.87-93.52 4.58-17.61 5.29-35.56 4-53.63-.08-1.09-.16-2.18-.18-3.27 0-1.88-1.37-4.18 0-5.49 1.22-1.16 3.52-1.2 5.37-1.67 3.15-.81 6.32-1.58 9.72-2.42a123.15 123.15 0 0 1 2.2 19.15 191.26 191.26 0 0 1-1.59 40A146.31 146.31 0 0 1 716 599.79c-22.39 24.13-50.17 38.48-82.15 45.19a179.87 179.87 0 0 1-17.84 2.83m137.9-269.63c1.42 0 2.12-.73 2.92-1.22 19.11-11.5 39-21.59 58.48-32.41 1.22-.68 2.25-1.11 3.67-.19 4.17 2.73 8.46 5.28 13 8.07a11.53 11.53 0 0 1-3.4 2.08q-37 19.16-74 38.27a12.5 12.5 0 0 0-5 4.54q-13.72 21.36-27.58 42.6c-1.65 2.53-1.68 2.54-4.11 1.06q-3.9-2.37-7.77-4.8c-2.54-1.59-2.55-1.61-1-4q8.74-13.48 17.51-27c3.51-5.41 7-10.85 10.56-16.22a9.8 9.8 0 0 0 1.7-5.06q2.49-40.69 5.08-81.38c.07-1.19.17-2.38.27-3.88 3.85 1.76 6.91 4.49 10.51 6.09 4.25 1.89 5.09 4.7 4.69 9.15-1.6 17.6-2.74 35.25-4.12 52.87-.29 3.76-.89 7.5-1.37 11.45M653.86 493.51c-.67 6.55-8.32 15.25-14.73 16.57A12 12 0 0 1 627 506a10.82 10.82 0 0 1-2-11.87 23.11 23.11 0 0 1 11.28-12.44 11.58 11.58 0 0 1 12.39 1c3.75 2.61 5.72 6.13 5.15 10.82m47.9 31.14c-.57 6.73-8.3 15.57-14.91 16.86a12.13 12.13 0 0 1-11.81-3.95 10.54 10.54 0 0 1-2.07-11.46 23 23 0 0 1 11.77-13c8.32-3.91 17.83 2.64 17.06 11.59M235.59 378.36c4.22 2.35 7.73 5.4 11.56 7.94 1.49 1 .71 2.49.52 3.75-1.4 8.88-2.85 17.76-4.27 26.64q-7.68 47.83-15.32 95.66c-.18 1.14-.88 2.36 0 3.77 1.42-.74 2.85-1.44 4.25-2.21q52.95-29 105.84-58.13c2.72-1.5 4.58-1.45 6.88.41 2.83 2.29 5.86 4.33 8.83 6.5-.93 1.35-2.3 1.74-3.47 2.38q-61.33 33.74-122.62 67.53c-2.84 1.58-4.82 1.65-7.22-.43a48.26 48.26 0 0 0-6.61-4.8c-1.82-1.1-2.21-2.3-1.85-4.35 1.89-11.15 3.61-22.33 5.42-33.49q8.67-53.68 17.37-107.34c.19-1.19.43-2.38.69-3.84" style="fill:#fff"/>
</svg>
