<svg xmlns="http://www.w3.org/2000/svg" viewBox="0 0 1024 1024">
   <circle cx="512" cy="512" r="512" style="fill:#55c500"/>
   <path d="M442.69 428.16c10.18 0 18.42 8.25 18.42 18.42S452.86 465 442.69 465s-18.42-8.25-18.42-18.42 8.25-18.42 18.42-18.42m176.25-8.75h-30.27v39.56H568.3v28.36h20.37v57.11c0 11.16 1.42 20.3 4.25 27.41 2.84 7.11 6.68 12.71 11.54 16.81 4.86 4.1 10.57 6.91 17.15 8.44 6.57 1.53 11.05 2.3 18.52 2.3h22.75v-27.01h-19.64c-3.33 0-6.46-.43-9.38-1.28-2.92-.85-5.52-2.34-7.76-4.46-2.25-2.11-4.03-4.99-5.33-8.64-1.3-3.64-1.96-8.26-1.96-13.84v-56.84h44.43v-28.36h-44.29V419.4Zm-234.89 87.63c0 11.39-1.98 22.12-5.93 32.2-3.95 10.08-9.41 19.17-16.36 27.25l16.65 16.65c6.01 6.01 6.04 15.75.06 21.79-6.04 6.12-15.92 6.12-21.97.02l-18.47-18.64c-7.39 4.35-15.28 7.67-23.67 9.98-8.39 2.3-17.19 3.46-26.4 3.46-13.3 0-25.77-2.42-37.42-7.24-11.65-4.83-21.8-11.43-30.45-19.82-8.65-8.38-15.49-18.21-20.53-29.46-5.04-11.25-7.56-23.32-7.56-36.18s2.52-25.05 7.56-36.31c5.04-11.26 11.88-21.05 20.53-29.4 8.65-8.34 18.8-14.9 30.45-19.69 11.64-4.78 24.12-7.17 37.42-7.17s25.66 2.39 37.35 7.17c11.69 4.78 21.88 11.34 30.57 19.69 8.69 8.34 15.56 18.14 20.6 29.4 5.04 11.26 7.56 23.36 7.56 36.31m-37.42 25.62c3.3-7.87 4.95-16.36 4.95-25.49s-1.65-17.65-4.95-25.56c-3.3-7.91-7.82-14.75-13.56-20.53-5.74-5.78-12.47-10.32-20.21-13.62-7.74-3.3-16.03-4.95-24.9-4.95s-17.01 1.65-24.7 4.95c-7.69 3.3-14.41 7.84-20.14 13.62-5.74 5.78-10.28 12.63-13.63 20.53-3.35 7.91-5.02 16.43-5.02 25.56s1.67 17.62 5.02 25.49c3.35 7.86 7.89 14.69 13.63 20.47 5.74 5.78 12.45 10.32 20.14 13.63 7.69 3.3 15.92 4.95 24.7 4.95s17.16-1.65 24.9-4.95c7.74-3.3 14.47-7.84 20.21-13.63 5.74-5.78 10.26-12.6 13.56-20.47m485.37-65.63v128.78h-26.03l-1.75-14.14c-2.59 2.5-5.5 4.84-8.76 7.01-3.25 2.17-6.78 4.07-10.58 5.7s-7.88 2.92-12.26 3.88-8.99 1.44-13.83 1.44c-10.26 0-19.63-1.77-28.1-5.32-8.47-3.55-15.7-8.4-21.71-14.58-6.01-6.17-10.68-13.41-14.02-21.71s-5-17.17-5-26.6 1.65-18.29 4.94-26.59c3.29-8.3 7.97-15.54 14.02-21.72 6.05-6.17 13.31-11.05 21.78-14.64 8.47-3.58 17.87-5.38 28.22-5.38 4.92 0 9.55.48 13.89 1.44s8.42 2.25 12.26 3.88 7.37 3.55 10.58 5.76 6.07 4.53 8.57 6.95l1.75-14.14h26.03Zm-32.29 81.41c2.17-5.13 3.25-10.83 3.25-17.08s-1.08-11.7-3.25-16.83c-2.17-5.13-5.13-9.53-8.89-13.2-3.75-3.67-8.13-6.55-13.14-8.64-5-2.09-10.39-3.13-16.14-3.13s-11.14 1.02-16.15 3.07c-5.01 2.05-9.36 4.92-13.08 8.64-3.71 3.71-6.63 8.12-8.76 13.2-2.13 5.09-3.19 10.72-3.19 16.9s1.08 11.85 3.25 17.02c2.17 5.18 5.13 9.62 8.89 13.33 3.75 3.71 8.13 6.59 13.14 8.64 5.01 2.05 10.39 3.07 16.14 3.07s11.01-1.02 16.02-3.07c5-2.04 9.36-4.92 13.08-8.64 3.71-3.71 6.65-8.13 8.82-13.26m-371.87 47.51h29.68V485.65h-29.68v110.33Zm73.89 0h29.68V485.65h-29.68v110.33Zm14.84-167.8c-10.18 0-18.42 8.25-18.42 18.42s8.25 18.42 18.42 18.42 18.42-8.25 18.42-18.42-8.25-18.42-18.42-18.42" style="fill:#fff"/>
</svg>
