<svg xmlns="http://www.w3.org/2000/svg" viewBox="0 0 1024 1024">
   <circle cx="512" cy="512" r="512" style="fill:#0c2e82"/>
   <path d="M685.9 574h-47.3v-32.9h-66.9V574h-47.4v-97.3c-.2-7.8 3.2-15.2 9.3-20.1 6.2-4.6 14.9-6.7 26.2-6.7h90.6c11.3 0 20.1 2.6 26.2 7.2 6.1 4.6 9.3 11.3 9.3 20.1V574zm-47.3-55.5v-36.1h-66.9v36l66.9.1zm217.7-62.3c-4.6-3.6-12.3-5.7-22.1-6.2h-90.1c-11.3 0-20.1 2.6-26.2 7.2-6 4.5-9.5 11.6-9.3 19v98.3h47.3V542h76.7c21.1 0 31.4-8.2 31.4-25.2v-40.1c0-9.8-2.6-16.4-7.7-20.5zm-40.7 58.1h-60.2v-31.9h60.2v31.9zm-351-64.3h-7.2v72c-.5.5-1 1.5-2.6 1-.7 0-1.3-.4-1.5-1-7.7-11.8-38.6-54.5-48.4-67.9l-.5-.5c-2.9-2.4-6.5-3.7-10.3-3.6h-38.6c-4.6 0-8.8 1.5-11.3 4.1-2.8 2.9-4.3 6.8-4.2 10.8v109.6h44.8s0-57.7-.5-74.6c0-1 1-2.6 4.6-2.6 0 0 1.5 0 2.1 1 8.8 13.9 65.4 76.1 65.4 76.1h46.8V450h-38.6zm-202.7 95.2c-.5-.5-1.5-1-2.1-1.5h-49.9v-65.4h66.4v55.6c20.1 6.2 33.5 14.4 42.7 21.6 1.7-4.4 2.6-9.1 2.6-13.9v-60.2c0-20.6-12.3-31.9-36.5-32.9h-83.9c-27.3 0-41.2 10.8-41.2 32.9v60.7c0 22.1 13.9 32.9 41.2 32.9H281c4-.1 7.9-.4 11.8-1-6.7-9.8-19.1-20.1-30.9-28.8zm-15.5-14.9c14.9 9.3 42.2 28.3 50.9 45.3h34c-5.6-10.3-25.2-35.5-84.9-45.3z" style="fill:#fff"/>
</svg>
