<svg xmlns="http://www.w3.org/2000/svg" viewBox="0 0 1024 1024">
   <circle cx="512" cy="512" r="512" style="fill:#41cd52"/>
   <path d="M486.51 435.24c8.12 14.54 12.08 37.76 12.08 69.86 0 31.91-4 54.76-11.71 68.16-7.93 13.41-23 20.2-45.51 20.2s-37.76-7-45.69-20.58-11.9-36.44-11.9-68.16c0-31.91 4.15-54.95 12.27-69.49 8.31-14.54 23.41-21.71 45.32-21.71 22.1.01 37.02 7.19 45.14 21.72ZM789 308v331.17L712.15 716H235V384.83L311.85 308H789ZM500.48 612.36c13.6-9.06 23.22-22.28 29.27-39.65 5.85-17.18 8.87-39.84 8.87-68q0-64-21.71-94.6c-14.35-20.58-39.65-30.78-75.72-30.78-35.88 0-61.37 10.39-75.91 31s-21.9 52.11-21.9 94.6c0 42.3 7.18 73.45 21.53 93.09s39.84 29.46 76.28 29.46c9.82 0 17-.57 21.53-2.08l31.16 51.17 36.06-16.8Zm174.66 6.23-1.7-30.59-28.7 1.13c-8.5 0-14-2.27-16-7s-3.21-14.16-3.21-28.51v-77.21h48.34v-32.48h-48.39v-50.79h-38v50.79h-26.76v32.67h26.62V558c0 25.3 3.78 42.48 11.14 51.55s21 13.6 40.79 13.6c8.3-.03 20.2-1.54 35.87-4.56Z" style="fill:#fff"/>
</svg>
