<svg xmlns="http://www.w3.org/2000/svg" viewBox="0 0 1024 1024">
   <circle cx="512" cy="512" r="512" style="fill:#ed2e26"/>
   <path d="M512 236.48c150.7 0 226.47 80.63 226.47 80.63s8.66 59.68 3.13 179.85C733.21 678.49 512 787.51 512 787.52S290.79 678.49 282.44 497c-5.53-120.17 3.13-179.85 3.13-179.85s75.7-80.63 226.4-80.63ZM398.89 475.1c0-64.19 50.74-116.41 113.11-116.41A113.34 113.34 0 0 1 625.21 471.9c0 49.83-42.84 90.83-75.85 111.9 12.81 7.31 41.07 15 68.14 17.46a163.38 163.38 0 0 0 63.62-129.36 169.12 169.12 0 0 0-338.23 0c0 56.32 23.45 106.35 67.82 144.69 41.48 35.84 102.15 59.77 171.23 71.09 15-8.27 40.56-32.69 50.16-47-57.69-7.42-112.3-21.49-148.89-40.69-55.94-29.34-84.31-71.37-84.31-124.91Z" style="fill:#fff"/>
</svg>
