<svg xmlns="http://www.w3.org/2000/svg" viewBox="0 0 1024 1024">
   <circle cx="512" cy="512" r="512" style="fill:#eb0000"/>
   <path d="M530.3 488.8c.7 34.8-47.9 40.6-72.2 27.2l4.1-21.7c8.2 4.5 17.3 7 26.6 7.5 7 0 11.8-3.3 11.8-8.5 0-4.7-3.3-8-11.9-12.2-13.5-6.7-20.2-15.3-20.2-25.4-.4-32.7 45.4-40.7 69.2-27l-4.1 21.7c-3.8-2.9-13.6-6.9-24.2-6.9-7.4 0-12.2 3.1-12.2 8.3 0 3.7 3.7 7 11.5 10.8 10.2 5.2 21.6 12.7 21.6 26.2zm-175.6-66.1c-82.5.7-86.4 127.2 5.2 94.8l4.5-23.8c-15 7.8-41.7 12.7-42.5-13.5 0-17 12.1-34.7 32.3-34.7 5.5-.2 10.9 1.1 15.7 3.7l4.4-23.2c-6.2-2.2-12.9-3.3-19.6-3.3zm500.4 77.7c11.8 0 23.4-3.2 33.5-9.4l-4.6 24c-13.6 6.9-29.5 7.7-35.7 7.7-26.5 0-41.6-14.7-41.6-40.5 0-14.9 5.3-29.4 14.9-40.8 19.2-25.2 73.3-28.1 74.4 10.1.4 27.7-33.9 34.6-62.4 29.9-1 12 8.1 19 21.5 19zm-18.4-37.5c16.7.1 26.1-1.6 30.2-5.6 4.4-4.4 3.1-13.9-7.9-13.9-12.3 0-20.1 10.1-22.3 19.5zm-44.5-40.2c-82.5.7-86.4 127.2 5.2 94.8l4.5-23.8c-15 7.8-41.7 12.7-42.5-13.5 0-17 12.1-34.7 32.3-34.7 5.5-.2 10.9 1.1 15.7 3.7l4.4-23.2c-6.1-2.2-12.8-3.3-19.6-3.3zM725 466.9l-10.3 53.7h-27.2l3.5-18.5c-3.8 11.5-13.1 20.7-28.7 20.7-50.2-2.5-27.5-102.9 31.9-100.3 28.8-.2 35.4 21.8 30.8 44.4zm-26.2-12.3c-.3-6.8-3.9-10.4-10.2-10.4-13.4 0-25 23.1-25 39.2 0 10 3.7 16.3 10.2 16.3 10.4 0 19.3-10.8 22.4-26.7 1-5.4 2.8-14.2 2.6-18.4zm-411.3 12.3-10.3 53.7H250l3.5-18.5c-3.8 11.5-13.1 20.7-28.7 20.7-50.2-2.5-27.5-102.9 31.9-100.3 28.8-.2 35.3 21.8 30.8 44.4zm-26.2-12.3c-.3-6.8-3.9-10.4-10.2-10.4-13.4 0-25 23.1-25 39.2 0 10 3.7 16.3 10.2 16.3 10.4 0 19.3-10.8 22.4-26.7 1-5.4 2.8-14.2 2.6-18.4zm371.7 4.5c0 23.3-11.2 47.3-31.4 58.1-6.3 3.5-13.4 5.5-20.7 5.7-10.1 0-15.8-3.8-19-9.6l-7.2 38.2h-28.5l24.2-127.1h25.1l-2.9 15.4c19.5-29.4 61.2-20 60.4 19.3zm-29.7 2.1c0-4.5-1.1-15.5-11.5-15.5-10.6 0-19.6 12.1-23 30.4-1.2 6.3-4.5 25.1 8.6 25.1 15 0 25.9-21.2 25.9-40zm-435.6-15.5 4.1-21.4h-25.1L128 522.4h28.5l7.7-40.4c4.5-23.8 18.2-33.4 37.7-30.4l5.6-29.3c-17-1.6-33 7.8-39.8 23.4zm228.4 75 9.8-51.6 20.2 51.6h30.6l-20.9-52 38-44.4h-31.1L406 468.2l14.2-74.6H392l-24.2 127.1h28.3zm327.7 67.4c0 13.9-9.6 25.8-23.5 25.8-10.3 0-16.6-7.1-16.6-16.8 0-13.8 9.6-25.8 23.5-25.8 10.9 0 16.6 7.9 16.6 16.8zm-30.1 8.7c0 5.6 2.9 9.5 7.9 9.5 7.3 0 12.1-10 12.1-18.2 0-4.2-1.9-9.4-7.8-9.4-7.7.1-12.2 10.5-12.2 18.1zm96.4-8.7c0 13.9-9.6 25.8-23.5 25.8-10.3 0-16.6-7.1-16.6-16.8 0-13.8 9.6-25.8 23.5-25.8 10.9 0 16.6 7.9 16.6 16.8zm-30.1 8.7c0 5.6 2.9 9.5 7.9 9.5 7.3 0 12.1-10 12.1-18.2 0-4.2-1.9-9.4-7.8-9.4-7.7.1-12.2 10.5-12.2 18.1zm-21.6-37.9L728.1 613h9.7l10.4-54.1h-9.8zm-157 12.5c-14.4-.1-26.1 11.8-25.8 26.2 0 9.7 6.3 16.2 16.5 16.2 4.1.1 8.2-.8 12-2.5l1.6-8.5c-7.2 4.4-20 5.4-19.9-6.5 0-8.5 5.9-17.1 15.3-17.1 2.6 0 5.2.6 7.5 1.9l1.5-8.1c-2.8-1.1-5.7-1.6-8.7-1.6zM525.8 602c-.9-1.8-1.2-3.8-1.1-5.8 15.7.3 26.7-3 26.7-13.5 0-6.9-5.1-11.5-13.1-11.5-14 0-23.1 13.4-23.1 25.7-.4 18.2 18.7 20.3 32.1 13.1l1.7-8.8c-4.3 3.2-9.5 4.9-14.8 4.9-3.4.4-6.7-1.3-8.4-4.1zm11.2-23.4c3.1 0 5.2 1.6 5.2 4.2 0 4.9-6.4 6.3-16.5 6.2 1.1-5 5.2-10.4 11.3-10.4zm139.9 3.9c.1-16.1-19.8-12.8-25.2-2.7l1.5-7.9h-8.8l-7.8 41h9.7l3.6-18.8c1.8-9.5 7.3-14.9 11.8-14.9 6.1-.1 5.4 6.5 4.6 10.7l-4.4 23h9.7c.9-5 5.5-25.6 5.3-30.4zm-56.4-11.2c-5.3 0-10.3 2.5-13.5 6.7l3.7-19.1h-9.8L590.6 613h9.7l3.6-18.8c1.8-9.5 7.3-14.9 11.8-14.9 6.1-.1 5.4 6.5 4.6 10.7l-4.4 23h9.7c.8-5.1 5.4-25.7 5.3-30.4 0-7.8-4.5-11.3-10.4-11.3zm-113-9.6H498l-2.1 10.5h-5.4l-1.4 7.5h5.4l-3.5 18.1c-1.6 7.2-2 15.9 8.8 15.9 2.2.1 4.3-.2 6.4-.8l1.5-7.7c-1.3.3-2.6.4-3.9.4-2.1.3-3.9-1.6-3.6-3.7.1-1.9.3-3.9.8-5.8l3.2-16.4h9.1l1.5-7.5h-9.1l1.8-10.5zm327.2 66.5c7.5 3.5 14.8 1.9 20.1-7.6L882 572h-10.4l-15.5 30.3-3.8-30.3h-10.2l7.3 39.9-3.2 6.4c-2.9 4.9-7.8 3.3-10.2 2l-1.3 7.9zm-13.3-56.9c-17.3 0-26.2 15.3-26.2 28.2 0 7.3 3.6 14.4 12.3 14.4 5.4 0 10.5-2.8 13.5-7.3l-.8 3.6c-2.7 14.4-14.2 14.3-23.9 10l-1.5 7.9c3.8 1.6 7.9 2.4 12 2.3 5.4.3 10.8-1.3 15.2-4.5 4.6-3.8 6.9-10.2 8.5-18.1l3.7-18.5c2.5-10.1 0-18.1-12.8-18zm3.1 17.5-.8 3.8c-1.7 8.2-6.9 13.4-11.9 13.4-4.5 0-6.4-3.8-6.4-8.2 0-8 5.6-19 14.1-19 3-.4 5.7 2.2 5.4 5.2.1 1.6 0 3.2-.4 4.8zm68.4 15.8c.5-13-17.5-11.8-18.7 0-.5 12.9 17.5 11.7 18.7 0zm-1.3-.2c-1 10-16.4 11.4-16 .2.9-9.9 16.3-11.3 16-.2zm-6.5 1.3 1.5 4.3h-1.4l-1.4-4.2h-2.1l-.8 4.2h-1.4l2.1-11h3.6c1.6 0 2.9 1.2 2.9 2.8 0 1.8-1.2 3.4-3 3.9zm0-5.3h-2.5l-.8 4.1h2.3c2.3.1 4-3.8 1-4.1z" style="fill:#fff"/>
</svg>
