<svg xmlns="http://www.w3.org/2000/svg" viewBox="0 0 1024 1024">
   <circle cx="512" cy="512" r="512" style="fill:#3153ff"/>
   <path d="m376.78 600.29 126.9 116.45H368c-79.53 0-144-64.47-144-144 0-58.81 35.32-109.26 85.85-131.61-.32 4.4-.52 8.33-.52 12.34 0 52.67 21.1 102.19 59.41 139.42 2.51 2.43 5.14 4.85 8.05 7.4Zm337.38-159.13c.28 3.83.52 8.05.52 12.3 0 45.3-16.16 89.51-45.51 124.47-4.34 5.18-9.03 10.21-13.92 14.96-2.55 2.48-5.26 4.97-8.03 7.4l-126.9 116.46H656c77.94 0 141.73-62 143.95-139.91 1.71-60.23-33.89-112.72-85.79-135.68Zm-202.18 90.82c7.24-25.77 21.33-49.16 41.27-68 29.05-27.45 67.05-41.92 107.01-40.8 16.06.46 32.01 3.59 47.46 9.3-4.71-41.78-23.41-82.35-56.38-114.39-76.94-74.78-201.73-74.78-278.69 0-32.96 32.03-51.66 72.59-56.37 114.36 16.74-6.19 34.13-9.33 51.72-9.33 68.38 0 126.19 46.11 143.99 108.87Zm-143.99-97.61c-15.96 0-31.75 2.8-46.99 8.33-.27 3.86-.44 7.32-.44 10.78 0 49.61 19.89 96.25 56 131.35 2.38 2.31 4.89 4.61 7.67 7.05l.1.09 122.04 111.99V572.75c0-76.3-62.08-138.38-138.38-138.38Zm291.94.06c-1.33-.04-2.66-.06-3.99-.06-74.5 0-136.14 59.51-138.27 134.45l-.06 3.98v131.16l122.14-112.08c2.65-2.32 5.22-4.69 7.65-7.05 4.62-4.49 9.04-9.24 13.14-14.12 27.65-32.94 42.87-74.57 42.88-117.23 0-3.64-.2-7.33-.44-10.74-14.04-5.1-28.51-7.89-43.05-8.3Z" style="fill:#fff"/>
</svg>
