<svg xmlns="http://www.w3.org/2000/svg" viewBox="0 0 1024 1024">
   <circle cx="512" cy="512" r="512" style="fill:#bf0000"/>
   <path d="m 370.71894,398.09 v 165.78829 h 28.77612 V 512.7217 l 42.01349,51.15659 h 39.28395 l -56.17854,-66.22253 48.40917,-58.46213 h -39.27505 l -34.25302,43.3872 V 398.09 Z m -238.39755,10.04401 v 155.28041 h 29.68597 v -47.95425 h 20.55182 l 36.08163,47.95425 h 36.9915 l -43.8421,-57.99824 c 13.70122,-9.59081 22.38043,-25.57382 22.38043,-43.84206 0,-29.68595 -24.21086,-53.44011 -53.44007,-53.44011 z m 473.14678,0 v 31.05962 h -15.06598 v 29.68598 h 15.06598 v 53.43118 c 0,27.8591 21.01393,44.30597 42.02241,44.30597 7.76402,0 18.72497,-2.74564 27.40243,-7.76942 l -18.2683,-24.65502 c -2.74022,1.82683 -5.9443,3.19335 -9.59794,3.19335 -4.56708,0 -13.2374,-3.65722 -13.2374,-15.07488 v -53.43118 h 24.20013 v -29.68598 h -24.20013 v -31.05962 z m -305.53882,27.86623 c -31.96951,0 -56.62455,29.22398 -56.62455,65.3038 0,36.07985 24.19833,65.31272 56.62455,65.31272 10.50421,0 18.27183,-3.19878 26.49258,-8.67927 v 5.47693 H 354.7342 V 439.19363 h -28.31227 v 5.47693 c -8.67745,-5.48047 -15.98837,-8.67032 -26.49258,-8.67032 z m 421.99915,0 c -32.88286,0 -56.16964,28.76727 -56.16964,65.3038 0,38.36339 29.22218,65.31272 58.90809,65.31272 15.07135,0 33.79813,-5.02206 49.78287,-27.85736 l -25.1189,-14.62001 c -19.1817,28.31584 -51.60612,14.16149 -55.25979,-14.61103 h 81.29744 c 7.30732,-43.84389 -21.47062,-73.52812 -53.44007,-73.52812 z m 117.834,0.45489 c -13.70122,0 -24.20905,7.76046 -24.20905,7.76046 v -5.02196 h -28.31228 v 124.22079 h 28.31228 v -72.60927 c 0,-13.7012 9.58909,-25.11888 23.29029,-25.11888 13.70122,0 23.29919,11.41768 23.29919,25.11888 v 73.07314 h 28.31227 v -73.07314 c 0,-30.14266 -20.55006,-54.34998 -50.6927,-54.34998 z m -677.75514,1.36478 h 19.17813 c 13.24447,0 24.20903,10.96458 24.20903,24.20905 0,13.24449 -10.96456,24.20906 -24.20903,24.20906 h -19.17813 z m 315.58282,1.37369 v 73.07315 c 0,30.14265 20.55006,54.34996 50.69271,54.34996 13.7012,0 24.20904,-7.76942 24.20904,-7.76942 v 4.56708 h 28.31229 V 439.19363 h -28.31229 v 73.07315 c 0,13.70122 -9.58905,25.11889 -23.29027,25.11889 -13.70121,0 -23.29029,-11.41767 -23.29029,-25.11889 v -73.07315 z m 243.82986,23.86118 c 11.24644,-0.22838 22.43218,6.96482 25.17241,22.26447 h -50.69269 c 2.96859,-14.38624 14.27387,-22.03613 25.52028,-22.26447 z m -421.94562,3.54126 c 15.98469,0 26.94751,15.5245 26.94751,35.16288 0.4567,19.63838 -10.96282,35.17182 -26.94751,35.17182 -15.98474,0 -27.40244,-15.53344 -27.40244,-35.17182 0,-19.63838 11.4177,-35.16288 27.40244,-35.16288 z m -15.52984,120.57249 36.53658,36.53658 421.54421,-36.53658 z" style="fill:#ffffff"/>
</svg>
