<svg xmlns="http://www.w3.org/2000/svg" viewBox="0 0 1024 1024">
   <circle cx="512" cy="512" r="512" style="fill:#bf0000"/>
   <path d="M370.719 398.09v165.788h28.776v-51.156l42.014 51.156h39.283l-56.178-66.222 48.41-58.462h-39.276l-34.253 43.387V398.09ZM132.32 408.134v155.28h29.686V515.46h20.552l36.082 47.954h36.991l-43.842-57.998c13.701-9.59 22.38-25.574 22.38-43.842 0-29.686-24.21-53.44-53.44-53.44zm473.147 0v31.06h-15.066v29.686h15.066v53.43c0 27.86 21.014 44.307 42.023 44.307 7.764 0 18.725-2.746 27.402-7.77l-18.268-24.655c-2.74 1.827-5.945 3.194-9.598 3.194-4.567 0-13.238-3.658-13.238-15.075V468.88h24.2v-29.686h-24.2v-31.06zM299.93 436c-31.97 0-56.624 29.224-56.624 65.304s24.198 65.313 56.624 65.313c10.505 0 18.272-3.199 26.493-8.68v5.477h28.312v-124.22h-28.312v5.477c-8.678-5.48-15.988-8.67-26.493-8.67zm422 0c-32.883 0-56.17 28.768-56.17 65.304 0 38.363 29.222 65.313 58.908 65.313 15.071 0 33.798-5.022 49.783-27.858l-25.12-14.62c-19.18 28.316-51.605 14.162-55.259-14.61h81.298C782.677 465.684 753.899 436 721.93 436zm117.834.455c-13.702 0-24.21 7.76-24.21 7.76v-5.021h-28.312v124.22h28.312v-72.609c0-13.701 9.59-25.119 23.29-25.119 13.702 0 23.3 11.418 23.3 25.12v73.072h28.312v-73.073c0-30.143-20.55-54.35-50.693-54.35zm-677.756 1.365h19.178c13.245 0 24.21 10.964 24.21 24.209 0 13.244-10.965 24.209-24.21 24.209h-19.178zm315.583 1.374v73.073c0 30.142 20.55 54.35 50.693 54.35 13.701 0 24.209-7.77 24.209-7.77v4.567h28.312v-124.22h-28.312v73.073c0 13.701-9.59 25.119-23.29 25.119-13.702 0-23.29-11.418-23.29-25.12v-73.072zm243.83 23.86c11.246-.228 22.432 6.966 25.172 22.265H695.9c2.968-14.386 14.274-22.036 25.52-22.264zm-421.946 3.542c15.985 0 26.948 15.525 26.948 35.163.457 19.638-10.963 35.172-26.948 35.172-15.984 0-27.402-15.534-27.402-35.172 0-19.638 11.418-35.163 27.402-35.163zm-15.53 120.573 36.537 36.536 421.544-36.536z" style="fill:#fff"/>
</svg>
