<svg xmlns="http://www.w3.org/2000/svg" viewBox="0 0 1024 1024">
   <circle cx="512" cy="512" r="512" style="fill:#f4be60"/>
   <path d="M419 377.18H260.92c-16.54 0-29.95 13.41-29.95 29.95 0 16.55 13.41 29.95 29.95 29.95H419c16.54 0 29.95-13.41 29.95-29.95 0-16.55-13.41-29.95-29.95-29.95Zm-68.83 111.71H192.09c-16.54 0-29.95 13.41-29.95 29.95 0 16.55 13.41 29.95 29.95 29.95h158.08c16.54 0 29.95-13.41 29.95-29.95 0-16.55-13.41-29.95-29.95-29.95ZM419 598.35H260.92c-16.54 0-29.95 13.41-29.95 29.95 0 16.55 13.41 29.95 29.95 29.95H419c16.54 0 29.95-13.41 29.95-29.95 0-16.55-13.41-29.95-29.95-29.95Zm152.08 111.38c-9.92-11.83-18.69-24.55-26.32-37.96a270.014 270.014 0 0 1-10.59-20.61c-2.16-4.68-4.2-9.43-6.11-14.24-1.91-4.81-3.7-9.67-5.35-14.59-1.66-4.92-3.19-9.88-4.6-14.9-1.41-5.01-2.69-10.07-3.85-15.16-1.16-5.09-2.19-10.22-3.1-15.37-.91-5.15-1.69-10.34-2.35-15.54-2.96-23.42-3.39-47.26-1.33-70.86.69-7.86 1.65-15.7 2.89-23.48.83-5.19 1.78-10.35 2.85-15.49s2.27-10.24 3.58-15.3c1.32-5.07 2.76-10.09 4.32-15.07 4.68-14.94 10.46-29.47 17.34-43.39a279.1 279.1 0 0 1 15.19-26.96 263.319 263.319 0 0 1 18.08-24.97c11.39-13.92 24.24-26.63 38.55-37.83l39.38 37.92c-6.63 5.2-12.87 10.85-18.71 16.88-13.15 13.58-24.31 29.14-33.46 46.07-3.77 6.96-7.18 14.17-10.26 21.55a255.48 255.48 0 0 0-3.14 7.83c-1.54 4.06-2.98 8.17-4.32 12.32a274.51 274.51 0 0 0-6.85 25.4 289.663 289.663 0 0 0-4.45 26.14c-.81 6.6-1.4 13.24-1.77 19.89-.12 2.22-.22 4.44-.29 6.66-.21 6.61-.2 13.23.03 19.83.08 2.27.18 4.55.32 6.82.14 2.42.32 4.84.52 7.25.35 4.21.79 8.42 1.32 12.6.28 2.19.59 4.38.92 6.57.39 2.59.83 5.18 1.3 7.75.63 3.47 1.32 6.92 2.07 10.35.19.87.38 1.74.58 2.6.79 3.42 1.64 6.82 2.55 10.19a273.513 273.513 0 0 0 4.15 13.83c.87 2.63 1.8 5.22 2.75 7.81 1.08 2.92 2.21 5.82 3.39 8.69 1.45 3.51 2.97 6.97 4.57 10.38 5.57 11.88 12.09 23.18 19.57 33.73 1.73 2.44 3.49 4.85 5.32 7.2 3.88 4.99 7.99 9.79 12.34 14.37 2.89 3.05 5.89 6.01 8.99 8.87.09.08.17.16.25.23.08.07.15.14.22.2.14.13.26.24.38.34.53.47.94.81 2.15 1.78.27.22.58.46.94.75.18.14.37.3.58.46L596.85 736c-1.46-1.3-2.97-2.53-4.41-3.85a242.892 242.892 0 0 1-21.38-22.41ZM678.83 471.9c-3.92 2.4-8.46 3.58-13.04 3.39a23.227 23.227 0 0 1-16.12-7.46 23.256 23.256 0 0 1-6.14-16.67 23.11 23.11 0 0 1 4.43-12.73c2.7-3.71 6.44-6.54 10.75-8.13 4.31-1.59 8.99-1.86 13.46-.78 4.46 1.08 8.51 3.45 11.62 6.83a23.208 23.208 0 0 1 4.01 25.48 23.24 23.24 0 0 1-8.96 10.07ZM786.84 458 656.28 332.28l-1 .79c-47.06 36.91-76.85 101.86-79.7 173.72-2.91 73.51 22.4 142.31 67.69 184.02l.17.15q.96.88 3.4 2.83l.46.37 1.72 1.37 212.85-165.14L786.85 458ZM633.97 579.91c-10.24 0-18.53-8.3-18.53-18.53s8.3-18.53 18.53-18.53 18.53 8.3 18.53 18.53-8.3 18.53-18.53 18.53Zm13.27-85.66a46.413 46.413 0 0 1-26.91-44.01c.5-12.3 5.87-23.9 14.91-32.25a46.442 46.442 0 0 1 33.34-12.28c9.18.37 18.04 3.45 25.46 8.85a46.455 46.455 0 0 1 16.25 21.5 46.364 46.364 0 0 1 1.56 26.91 46.355 46.355 0 0 1-13.65 23.24 46.416 46.416 0 0 1-24.26 11.74c-9.07 1.43-18.36.14-26.7-3.72Zm68.46 149.36a15.1 15.1 0 0 0-3.44-6.56c-1.68-1.86-3.8-3.28-6.16-4.11a15.05 15.05 0 0 0-7.38-.66c-2.48.4-4.81 1.41-6.79 2.95s-3.55 3.54-4.55 5.84c-1.01 2.3-1.42 4.81-1.2 7.31.22 2.5 1.05 4.9 2.44 6.99 1.38 2.09 3.27 3.8 5.49 4.97l-12.41 9.57a29.895 29.895 0 0 1-9.73-15.53 29.967 29.967 0 0 1 1.13-18.29c2.28-5.83 6.32-10.8 11.57-14.21s11.43-5.1 17.68-4.81c5.42.23 10.68 1.93 15.21 4.92 4.53 2.99 8.17 7.15 10.52 12.04l-12.37 9.57Zm41.68-81.09c-17.4 0-31.51-14.11-31.51-31.51s14.11-31.51 31.51-31.51 31.51 14.11 31.51 31.51-14.11 31.51-31.51 31.51Z" style="fill:#fff"/>
</svg>
