<svg xmlns="http://www.w3.org/2000/svg" viewBox="0 0 1024 1024">
   <circle cx="512" cy="512" r="512" style="fill:#7832f1"/>
   <path style="fill:#fff" d="M542.36 264.356c62.999 0 111.658 17.732 144.474 50.176 27.536 27.535 42.633 66.378 42.633 114.664 0 79.972-43.005 130.148-106.004 153.533 8.07 11.795 48.44 70.76 121.09 176.918H617.05L509.544 601.206l-65.633-96.188h91.665c53.182 0 83.364-28.293 83.364-71.286 0-46.783-32.443-70.927-85.626-70.927H346.593l-67.15-98.449H542.36zM416.376 608.273c-1.054.103-1.054 50.56 0 151.374H302.88V608.273c76.708-.09 114.536-.09 113.495 0z"/>
</svg>
