<svg xmlns="http://www.w3.org/2000/svg" viewBox="0 0 1024 1024">
   <circle cx="512" cy="512" r="512" style="fill:#0f2432"/>
   <path d="M775 413h23.15v147.83H775Zm106.51 54.31c-8.37 22.92-16.11 46.08-24.93 68.82-8.62-22.92-16.9-45.94-25.52-68.86-8.35.05-16.68 0-25 0 12.64 31.2 26 62.09 38.23 93.46A51.57 51.57 0 0 1 810.76 592c1.85 6.36 3.83 12.66 5.77 19 15.69-2.37 29.11-13 37.78-25.94 10.22-15.28 16.67-32.64 23.57-49.55Q892 501.41 906 467.33c-8.17.02-16.33 0-24.47.02Zm-672.26 35c19.48-6.89 29.63-32.51 19.82-50.76-6.18-11.7-18.55-18.86-31.11-21.78-19.82-4.11-40.45-1.76-60 2.87v25c17.24-6.13 36.27-11.47 54.47-6.93 14.14 3.65 17.75 23.82 7 33.07-9.42 8.39-22.81 5.91-34.33 6.23v-25.87a170.77 170.77 0 0 0-27.1 7.43v88.82h27.14q.05-24.71 0-49.39c7.78.07 16-.87 23.33 2.47 6.37 2.85 10.4 9.06 12.84 15.37 3.85 10.18 6.2 20.87 8.21 31.55h28.12c-3.21-11.4-6.7-22.7-9.92-34.1-2.85-9.87-8.51-19.89-18.44-23.99Zm388.58-16.7v-18.25h-21.35v-26.69c-8.46 2.15-17 3.74-25.46 6 .07 6.91 0 13.82 0 20.71h-12.45v18.25h12.45c.07 14.37-.09 28.76.07 43.13.45 9.53 1.89 20.58 10.13 26.71 10.36 7.28 23.91 5.89 35.68 3.56v-19.09c-5.23.41-11.45 1.35-15.7-2.49-4.42-3.88-4.58-10.27-4.77-15.72v-36.09c7.18-.04 14.3-.02 21.42-.04Zm-280.92-6.29c7.37 11.47 7.16 25.68 6.18 38.78h-62.85c-.27 10.08 5.61 20.48 15.6 23.49 13.92 4.22 28.67.34 42.43-2.72v18.7c-18.55 4.11-38.89 7.83-57.12.5-12.86-5-21.24-17.65-23.47-30.91-2.58-15.85-1-33.24 8.12-46.86 15.2-23.72 55.62-24.77 71.13-.98Zm-12.71 21.83c-.57-6.84-2.37-14.57-8.64-18.41-8.08-4.56-19.05-4.45-26.57 1.23-5.34 4.08-7.32 10.83-8.44 17.16 14.57.09 29.12.05 43.67.02Zm423.17-4.06c-13.23 17.34-19 40.29-36.8 54.08-13.69 11.22-32.46 11.95-49.3 10.59-10.7-.69-21.65-4.42-29-12.52-9.6-10.1-12.25-24.75-11.73-38.23.45-14.73 5.68-30.2 17.43-39.71 19.66-15.79 55.29-11.52 65.63 13.21 4.75 10.51 4 22.35 3.29 33.56-21 .07-42 0-63 .05.66 7.57 3 15.85 9.62 20.32 10.2 6.93 23.65 5.66 35.06 3 14.21-5.82 28.36-19.28 26.78-35.88-.07-12.75-.05-25.52 0-38.26h22.68c0 3.88 0 7.75-.07 11.63 7.3-11.68 22.54-12 34.79-12.13v22.72c-8.84-.25-19.48-.34-25.36 7.57Zm-102.84 4.11q21.66-.05 43.32 0c0-5.88-1.6-12-5.63-16.38-7.55-6.37-19.32-7-27.74-2-6.41 3.8-8.9 11.38-9.95 18.38Zm-222.59-34.29h22.29v88.62c-.32 11.95-1.53 25.36-10.45 34.28-10.58 9.58-25.39 12.36-39.21 12.8-12.48 0-25.27-1.53-36.7-6.84 1.82-6.91 3.76-13.78 5.47-20.73 12 6 25.91 8.4 39.1 5.82 6.36-1.26 12.11-5.7 14.26-11.91 2.28-6.53 2-13.6 2.3-20.44-15.24 17.15-45.9 15.69-59.81-2.44-10.28-13.07-11.9-31.14-8.19-46.9 3.65-15.26 15.35-28.69 30.72-32.76 14-3.44 31-1.14 40.45 10.77-.17-3.42-.17-6.84-.23-10.27Zm-3.86 35.18c-1.73-13.6-17.72-21-30-16.58A20 20 0 0 0 354 498.3c-2.85 7.73-2.8 16.26-1.69 24.32 1.32 8.6 7.51 16.83 16.49 18.16 10 1.51 22.74-1.18 27.6-11 3.11-8.83 2.08-18.5 1.67-27.69Zm37.77-35.18q-.05 47 0 93.93h25.39v-93.91c-8.5-.04-16.96-.02-25.4-.02ZM518.06 506c-6.41-2.87-13.89-4-19.16-9-4.22-4-1.92-11.73 3.38-13.55 8.89-3.49 18.48 0 26.94 3.13 1.48-5.63 3-11.25 4.38-16.88-16.6-5.91-37.41-7.35-52 4.15-9.76 7.69-13.18 23.2-5.7 33.56 6.18 8.74 16.77 12.34 26.46 15.69 4.75 1.71 10.88 4.93 10.49 10.84.46 5-4.22 8.69-8.8 9.29-10.26 1.91-20.51-1.78-29.86-5.7q-2.19 8.76-4.4 17.52c9.7 4.4 20.51 5.91 31.11 5.7 10.35-.45 21.44-2.62 29.22-10 7.57-6.84 9.35-18.32 6.43-27.76-2.64-8.36-10.55-13.85-18.49-16.99Zm204.34 17.73c-6.52 14-13.6 29-27.53 37.13 9.21-.05 18.41 0 27.63 0-.06-12.4.1-24.78-.1-37.13Zm26.23 10.57a13.29 13.29 0 1 0 13.29 13.29 13.29 13.29 0 0 0-13.29-13.29ZM448.51 426.63a13.29 13.29 0 1 0 13.29 13.29 13.29 13.29 0 0 0-13.29-13.29Z" style="fill:#fff"/>
</svg>
