<svg xmlns="http://www.w3.org/2000/svg" viewBox="0 0 1024 1024">
   <circle cx="512" cy="512" r="512" style="fill:#95c11f"/>
   <path d="M712.63 344.67v68c-7.67-6.58-16.45-8.77-26.31-7.67s-18.64 7.67-27.41 18.64v331.1h-61.4V348h61.4v21.93c13.16-17.58 31.8-26.35 53.72-25.26Zm-152.39 35.09c4.39 8.77 6.58 24.12 6.58 45v256.49c0 19.73-2.19 32.89-5.48 41.66-4.39 8.77-12.06 17.54-21.93 24.12-9.87 7.67-23 11-37.28 11h-2.19c-20.83 0-38.37-7.67-51.53-23a18.52 18.52 0 0 0-11-3.29 12.45 12.45 0 0 0-8.77 3.29c-1.1 1.1-2.19 3.29-4.39 4.39l-1.1 1.1c-11 9.87-27.41 16.45-43.85 16.45-37.28 0-68-30.7-68-68 0-35.08 25.22-62.49 58.11-68 11-2.19 15.35-12.06 15.35-21.93V246h61.4v123.89c13.16-16.45 30.7-25.22 52.63-25.22 15.35 0 27.41 3.29 38.37 11a79 79 0 0 1 23.08 24.09ZM414.42 688.93c0-19.73-16.45-35.08-35.08-35.08a35.08 35.08 0 1 0 35.08 35.08Zm89.9-256.55c0-7.67-2.19-14.25-7.67-18.64-5.48-6.58-14.25-8.77-24.12-7.67s-18.64 7.67-26.31 18.64v254.35c7.67 12.06 17.54 18.64 26.31 19.73 9.87 1.1 17.54-1.1 24.12-7.67 5.48-4.39 7.67-11 7.67-18.64v-240.1Z" style="fill:#fff"/>
</svg>
