<svg xmlns="http://www.w3.org/2000/svg" viewBox="0 0 1024 1024">
   <circle cx="512" cy="512" r="512" style="fill:#2970ff"/>
   <path d="M128 555.6h34.1v-42.52h8l24.24 42.52h36.11l-28.59-49.16c12.54-4.82 21.56-14.28 21.56-31.23v-.66c0-25.08-17.39-37.7-48.65-37.7H128Zm34.1-64.6v-28.58h11.2c11 0 17.05 3.82 17.05 13.45v.66c0 9.63-5.68 14.45-17.22 14.45Zm118.33 66.6c26.41 0 41.62-11.13 44.3-30.73h-28.08c-1.17 5.81-5.35 10.3-15.21 10.3-10.7 0-17.39-6.64-18.22-18.1h61.52v-7.81c0-31.23-20.56-44.85-44.47-44.85-26.42 0-47.27 17.59-47.27 45.51v1.33c0 28.4 20 44.34 47.43 44.34Zm-16.88-55.31c1.5-10.46 7.69-16.28 16.72-16.28 9.7 0 14.88 5.81 15.38 16.28Zm109.08 55.31c24.24 0 39.62-9.3 39.62-29.9 0-18.6-11.7-24.91-35.94-27.9-10.7-1.33-14.71-3-14.71-7.14 0-4 3.34-6.81 9.86-6.81 6.85 0 10 2.82 11.2 8.64h27.08c-2-20.76-17.05-28.07-38.62-28.07-20.23 0-37.44 9.3-37.44 28.57 0 18.1 9.86 24.91 33.27 27.9 12 1.66 16.21 3.65 16.21 7.81 0 4.32-3.34 7.14-10.7 7.14-8.53 0-11.37-3.49-12.37-9.8h-27.58c.67 19.26 15.21 29.55 40.12 29.55Zm86.53 0a63.15 63.15 0 0 0 16.55-2.49v-22.6a22.93 22.93 0 0 1-8.53 1.49c-5.68 0-8.86-2.82-8.86-9.13V489h17.22v-20.27h-17.21v-18.1h-29.92v18.1h-10.53V489h10.53v38.7c0 20.43 11.03 29.89 30.76 29.89Zm30.2-2h29.92v-41.19c0-14 10-19.6 28.25-19.1v-27.74c-13.54-.17-22.73 5.48-28.25 18.44v-17.28h-29.91Zm113.48 2c26.41 0 41.62-11.13 44.3-30.73h-28.08c-1.17 5.81-5.35 10.3-15.21 10.3-10.7 0-17.38-6.64-18.22-18.1h61.52v-7.81c0-31.23-20.56-44.85-44.47-44.85-26.41 0-47.31 17.61-47.31 45.51v1.33c0 28.4 20.06 44.34 47.48 44.34ZM586 502.28c1.5-10.46 7.69-16.28 16.72-16.28 9.7 0 14.88 5.81 15.38 16.28Zm99.39 55.31c14 0 21.73-5.81 25.91-12.12v10.13h29.09v-56.31c0-23.09-15.38-32.89-39.45-32.89-23.9 0-40.45 10.3-41.79 31.23h28.08c.67-5.48 3.68-10.3 11.87-10.3 9.53 0 11.53 5.48 11.53 13.79v2h-8.36c-29.09 0-46.47 8-46.47 28.4-.04 18.48 13.84 26.07 29.55 26.07Zm10.36-20.1c-7 0-10.36-3.16-10.36-8.14 0-7.14 5.35-9.47 17.39-9.47h7.86v5.32c-.05 7.48-6.4 12.3-14.93 12.3Zm61.7 18.1h29.92v-50.32c0-9.47 5.35-14.62 13.37-14.62 6.85 0 11.2 4.32 11.2 13.12v51.83h29.56v-50.33c0-9.47 5.35-14.62 13.37-14.62 6.85 0 11.2 4.32 11.2 13.12v51.83H896v-56.8c0-21.76-12-32.39-28.59-32.39a34.73 34.73 0 0 0-28.92 14.45c-4.18-9.47-12.2-14.45-23.74-14.45-13.54 0-22.73 7.31-27.42 15.61v-13.29h-29.91Z" style="fill:#fff"/>
</svg>
