<svg xmlns="http://www.w3.org/2000/svg" viewBox="0 0 1024 1024">
   <circle cx="512" cy="512" r="512" style="fill:#f5455c"/>
   <path d="M318.28 270.47c-20.1.22-40.03 3.82-58.94 10.65a13.45 13.45 0 0 0-5.38 3.69 13.518 13.518 0 0 0-3 5.79c-.51 2.15-.48 4.39.09 6.52s1.65 4.09 3.16 5.71c19.38 20.33 51.56 60.41 43.67 96.71A157.133 157.133 0 0 0 250.5 509.1c.61 41.59 17.64 81.24 47.38 110.32 7.9 36.38-24.2 76.4-43.59 96.73-5.06 5.39-4.79 13.85.6 18.91 1.31 1.23 2.85 2.18 4.54 2.8a179.506 179.506 0 0 0 143.71-9.51 221.198 221.198 0 0 0 45.82-34.17 373.26 373.26 0 0 0 66.64 5.93 329.79 329.79 0 0 0 181.03-50.4 203.163 203.163 0 0 0 59.74-59.44c32.18-49.06 32.18-112.54 0-161.6l-.02.06c-15.58-23.77-35.97-44-59.86-59.4a329.915 329.915 0 0 0-181.03-50.42c-22.35-.03-44.65 1.96-66.64 5.92a220.504 220.504 0 0 0-45.78-34.15 179.491 179.491 0 0 0-84.75-20.2Zm194.43 101.71c118.98 0 215.51 62.89 215.51 140.49s-96.51 140.51-215.51 140.51a316.24 316.24 0 0 1-82.75-10.74l-18.61 18.1a170.269 170.269 0 0 1-34.37 25.66 133.891 133.891 0 0 1-48.6 13.82c.91-1.66 1.74-3.34 2.62-4.99a119.793 119.793 0 0 0 15.1-93.45 115.359 115.359 0 0 1-48.82-88.91c0-77.58 96.45-140.49 215.43-140.49ZM409.59 480.36a31.909 31.909 0 0 0-17.73 5.31 31.852 31.852 0 0 0-13.65 32.69 31.846 31.846 0 0 0 8.69 16.34 31.779 31.779 0 0 0 16.31 8.75c6.18 1.24 12.6.62 18.43-1.79a31.872 31.872 0 0 0 19.7-29.45c.01-8.43-3.32-16.53-9.27-22.51a31.83 31.83 0 0 0-22.47-9.36Zm102.29 0c-17.6-.06-31.92 14.16-31.98 31.75a31.874 31.874 0 0 0 25.6 31.35c17.26 3.46 34.05-7.73 37.5-24.99.41-2.06.62-4.15.62-6.25.03-17.56-14.18-31.83-31.74-31.86Zm102.17 0c-17.6-.09-31.93 14.1-32.03 31.69-.08 15.24 10.65 28.41 25.6 31.41 17.25 3.47 34.05-7.71 37.51-24.96.42-2.07.62-4.17.62-6.28a31.79 31.79 0 0 0-9.26-22.49 31.853 31.853 0 0 0-22.45-9.37Z" style="fill:#fff"/>
</svg>
