<svg xmlns="http://www.w3.org/2000/svg" viewBox="0 0 1024 1024">
   <circle cx="512" cy="512" r="512" style="fill:#f5455c"/>
   <path d="M329.97 291.38a165.69 165.69 0 0 0-54.399 9.828 12.359 12.359 0 0 0-4.966 3.406 12.381 12.381 0 0 0-2.769 5.348 12.35 12.35 0 0 0 .085 6.021 12.363 12.363 0 0 0 2.914 5.268c17.892 18.767 47.592 55.755 40.303 89.262a145.01 145.01 0 0 0-43.729 101.12 145.37 145.37 0 0 0 43.73 101.82c7.287 33.581-22.338 70.514-40.23 89.28a12.348 12.348 0 0 0 4.74 20.039 165.69 165.69 0 0 0 132.64-8.78 203.91 203.91 0 0 0 42.29-31.54 343.68 343.68 0 0 0 61.51 5.469 304.4 304.4 0 0 0 167.09-46.52 187.43 187.43 0 0 0 55.135-54.86 135.97 135.97 0 0 0 0-149.15l-.02.057a187.67 187.67 0 0 0-55.246-54.826 304.51 304.51 0 0 0-167.09-46.534 344.16 344.16 0 0 0-61.511 5.466 203.83 203.83 0 0 0-42.252-31.52 165.67 165.67 0 0 0-78.226-18.647zm179.46 93.879c109.82 0 198.91 58.049 198.91 129.67 0 71.626-89.08 129.69-198.91 129.69a292.29 292.29 0 0 1-76.38-9.91l-17.181 16.705a157.39 157.39 0 0 1-31.721 23.686 123.54 123.54 0 0 1-44.858 12.755c.839-1.532 1.602-3.079 2.422-4.609a110.56 110.56 0 0 0 13.939-86.256 106.45 106.45 0 0 1-45.058-82.066c0-71.605 89.023-129.67 198.84-129.67zm-95.175 99.846a29.424 29.424 0 0 0-16.367 4.905 29.403 29.403 0 0 0-12.598 30.174 29.4 29.4 0 0 0 8.023 15.084 29.398 29.398 0 0 0 15.056 8.08 29.391 29.391 0 0 0 17.006-1.655 29.412 29.412 0 0 0 18.18-27.18 29.374 29.374 0 0 0-8.56-20.772 29.362 29.362 0 0 0-20.738-8.635h-.002zm94.41 0a29.412 29.412 0 0 0-28.964 35.079 29.405 29.405 0 0 0 23.079 23.163 29.412 29.412 0 0 0 35.186-28.833 29.358 29.358 0 0 0-29.3-29.408zm94.302 0a29.406 29.406 0 0 0-5.934 58.238 29.406 29.406 0 0 0 35.198-28.83 29.358 29.358 0 0 0-8.546-20.759 29.358 29.358 0 0 0-20.718-8.649z" style="fill:#fff"/>
</svg>
