<svg xmlns="http://www.w3.org/2000/svg" viewBox="0 0 1024 1024">
   <circle cx="512" cy="512" r="512" style="fill:#14295e"/>
   <path d="M429.3 528.72c-5.39 0-10.45-.67-15.16-2.01-4.72-1.35-8.83-3.43-12.35-6.26-3.43-2.78-6.1-6.27-8.02-10.46-1.92-4.2-2.89-9.05-2.89-14.56 0-7.12 1.35-13.73 4.05-19.83 2.7-6.1 6.49-11.44 11.36-16.01 4.79-4.48 10.63-8.03 17.52-10.64 6.9-2.62 14.36-3.92 22.37-3.92 4.83 0 9.63.54 14.39 1.63 4.76 1.08 9.18 2.66 13.26 4.73l-5.35 21.69h-3.59c-2.76-3.34-5.89-5.83-9.39-7.45-3.49-1.62-7.42-2.44-11.79-2.44-7.97 0-14.38 2.85-19.21 8.53s-7.25 12.77-7.25 21.25c0 5.9 1.49 10.31 4.47 13.23 2.98 2.92 7.61 4.39 13.9 4.39 4.87 0 9.32-1 13.33-3s7.45-4.22 10.31-6.67h3.59l-5.35 21.68c-5.07 2.21-9.51 3.79-13.33 4.74-3.82.94-8.79 1.41-14.89 1.41Zm106.9-51.98c.14-.85.25-1.64.32-2.34.07-.71.11-1.44.11-2.2 0-3.74-1.16-6.6-3.46-8.58-2.31-1.99-5.63-2.98-9.96-2.98-5.23 0-9.62 1.42-13.18 4.26-3.56 2.84-6.25 6.79-8.09 11.85h34.26Zm-19.38 51.99c-13.47 0-23.87-2.99-31.2-8.98-7.32-5.99-10.99-14.26-10.99-24.81 0-7.21 1.2-13.83 3.59-19.86 2.39-6.03 5.84-11.33 10.35-15.91 4.31-4.43 9.72-7.93 16.19-10.53 6.48-2.59 13.6-3.89 21.35-3.89 11.77 0 20.66 2.4 26.65 7.18 5.98 4.79 8.98 11.85 8.98 21.19 0 3.21-.32 6.34-.95 9.41-.64 3.07-1.47 6.11-2.5 9.12h-58.82v1.63c0 5.5 1.93 9.82 5.78 12.92 3.86 3.11 9.77 4.66 17.72 4.66 5.55 0 10.8-.94 15.76-2.82 4.96-1.88 9.28-3.98 12.94-6.29h2.82l-4.73 20.41c-4.93 2.17-10.11 3.8-15.56 4.91-5.44 1.11-11.24 1.66-17.4 1.66Zm139.54-78.55c-3.94-3.44-9.46-5.15-16.56-5.15-5.17 0-9.9.97-14.2 2.89-4.3 1.94-9.05 4.62-14.27 8.06l2.09-8.76h-34.31l-3.88 16.74h8.84l-14.4 62.57h25.49l12.87-56.22c3.29-1.74 6.24-3.04 8.88-3.92 2.63-.87 4.95-1.3 6.97-1.3 4.13 0 6.97.7 8.52 2.11 1.55 1.42 2.33 3.65 2.33 6.72 0 1.79-.19 3.73-.57 5.79-.37 2.07-.89 4.57-1.54 7.48l-8.99 39.34h25.66l11.8-51.63c.42-1.78.73-3.5.91-5.16.19-1.65.28-3.18.28-4.59 0-6.54-1.97-11.54-5.91-14.97Zm133.8 26.56c.14-.85.24-1.64.31-2.34.07-.71.11-1.44.11-2.2 0-3.74-1.16-6.6-3.47-8.58-2.3-1.99-5.62-2.98-9.96-2.98-5.23 0-9.62 1.42-13.17 4.26-3.56 2.84-6.25 6.79-8.09 11.85h34.26Zm-19.38 51.99c-13.48 0-23.87-2.99-31.2-8.98-7.32-5.99-10.99-14.26-10.99-24.81 0-7.21 1.2-13.83 3.59-19.86a47.274 47.274 0 0 1 10.36-15.91c4.32-4.43 9.71-7.93 16.19-10.53 6.48-2.59 13.59-3.89 21.34-3.89 11.78 0 20.67 2.4 26.66 7.18 5.99 4.79 8.98 11.85 8.98 21.19 0 3.21-.32 6.34-.95 9.41-.63 3.07-1.47 6.11-2.5 9.12h-58.82v1.63c0 5.5 1.93 9.82 5.78 12.92 3.86 3.11 9.76 4.66 17.71 4.66 5.55 0 10.8-.94 15.76-2.82 4.97-1.88 9.28-3.98 12.95-6.29h2.82l-4.72 20.41c-4.93 2.17-10.12 3.8-15.56 4.91-5.45 1.11-11.24 1.66-17.4 1.66Zm119.61-57.29h-2.24c-1.13-.38-2.72-.66-4.78-.84-2.06-.19-4.1-.29-6.11-.29-3.33 0-6.54.25-9.63.74-3.09.5-6.28 1.28-9.55 2.37l-12.27 53.11h-25.5l18.32-79.32h25.5l-2.69 11.66c4.77-3.53 9.54-6.4 14.3-8.62 4.75-2.21 9.54-3.32 14.37-3.32.89 0 1.89.03 2.98.07 1.11.05 2.08.12 2.92.21l-5.62 24.23Zm-174.75-24.23 5.19-22.67h-25.42l-5.21 22.67h-10.44l-3.88 16.74h10.69l-14.38 62.58h25.42c.16-.64.28-1.29.44-1.93l13.94-60.65h16.92l3.85-16.74h-17.13Zm-497.38 16.33c-2-1.31-4.97-1.97-8.88-1.97h-9.95l-4.86 21.03h9.9c5.34 0 9.47-1.09 12.4-3.28 2.93-2.19 4.4-5.22 4.4-9.1 0-3.15-1-5.38-3.01-6.69Zm101.53 33.3c-2.54 10.83-6.86 18.69-12.93 23.58-6.08 4.89-14.88 7.34-26.4 7.34-10.27 0-18.04-1.85-23.31-5.55-5.27-3.7-7.9-9.29-7.9-16.8 0-1.54.12-3.1.36-4.68.24-1.58.51-3.02.79-4.31l11.2-48.47h20.28l-11.17 48.52c-.25.98-.45 2.06-.61 3.24-.16 1.17-.24 2.15-.24 2.92 0 3.29.99 5.8 2.97 7.49 1.97 1.7 5.24 2.55 9.82 2.55s8.03-1.23 10.77-3.68 4.71-6.27 5.9-11.46l11.46-49.58h20.32l-11.31 48.89Zm-80.02 29.39h-22.45l-14.68-28.71h-11.3l-6.62 28.71h-20.11l18-78.29h30.44c9.54 0 16.9 1.62 22.11 4.86 5.2 3.24 7.8 8.2 7.8 14.85 0 6.28-1.9 11.55-5.71 15.82-3.81 4.28-8.97 7.5-15.51 9.68l18.03 33.07Zm8.94-158.39c-66.66 0-120.69 54.25-120.69 121.16s54.03 121.16 120.69 121.16 120.7-54.24 120.7-121.16-54.04-121.16-120.7-121.16Zm399.18 222.85c89.16-1.4 164.98 10.05 241.24 28.27-65.84-29.75-137.2-48.99-218.49-54.07-17.92-1.12-36.32-1.55-55.25-1.26-153.25 2.39-289.37 51.61-378.36 126.77 106.23-58.33 250.91-97.21 410.87-99.7Z" style="fill:#fff"/>
</svg>
