<svg xmlns="http://www.w3.org/2000/svg" viewBox="0 0 1024 1024">
   <circle cx="512" cy="512" r="512" style="fill:#00a1e0"/>
   <path d="M348.78 272.27c-73.48 0-133 59.48-133 132.87A132.31 132.31 0 0 0 226.67 458a115.68 115.68 0 0 0-57.17 100.05c0 63.81 51.19 115.53 114.34 115.52a113.69 113.69 0 0 0 23.5-2.45 123.16 123.16 0 0 0 229 5.57 108 108 0 0 0 141.45-44.41 147.08 147.08 0 0 0 29.1 2.89c81.55 0 147.66-66.69 147.66-149s-66.11-149-147.66-149a146 146 0 0 0-59.74 12.7c-21-37.44-60.47-62.66-105.67-62.66a120.08 120.08 0 0 0-86.86 37.29 132.83 132.83 0 0 0-105.78-52.29Zm219.65 167.41a30.93 30.93 0 0 1 5.4.41 34.6 34.6 0 0 1 3.93.94 1.06 1.06 0 0 1 .73 1.38l-3 8.34c-.25.63-.42 1-1.72.61a17.89 17.89 0 0 0-5.29-.82 13.46 13.46 0 0 0-4.26.62 8.12 8.12 0 0 0-3.33 2.05 11.58 11.58 0 0 0-2.79 4.24 54.81 54.81 0 0 0-2.1 9h12.69c1.07 0 1.41.49 1.3 1.28l-1.48 8.26a1.33 1.33 0 0 1-1.33 1.15h-13.12l-8.94 50.62a78.11 78.11 0 0 1-3.49 13.24 26.25 26.25 0 0 1-5.17 8.89 18.2 18.2 0 0 1-7.33 5.11 28.58 28.58 0 0 1-9.74 1.53 23.9 23.9 0 0 1-5.82-.56 31.44 31.44 0 0 1-3.63-1.06 1.18 1.18 0 0 1-.6-1.59c.27-.79 2.62-7.22 2.94-8.07a1.1 1.1 0 0 1 1.44-.63 9.4 9.4 0 0 0 2.13.68 18.37 18.37 0 0 0 3.19.35 14.62 14.62 0 0 0 4.68-.67 7.21 7.21 0 0 0 3.63-2.79 20.44 20.44 0 0 0 2.78-5.66 62.53 62.53 0 0 0 2.37-9.78l8.9-49.69h-8.77c-1 0-1.41-.49-1.29-1.29l1.47-8.26a1.35 1.35 0 0 1 1.35-1.15h9l.49-2.68c1.35-8 4-14 8-18s9.64-6 16.81-6Zm-179.72 1.27h10.53a1.14 1.14 0 0 1 1.14 1.2v84.74a1.14 1.14 0 0 1-1.14 1.21h-10.52a1.14 1.14 0 0 1-1.13-1.2v-84.76a1.14 1.14 0 0 1 1.12-1.19Zm-95.07 24a39.94 39.94 0 0 1 20.14 5.4 1.31 1.31 0 0 1 .67 1.59l-2.85 7.69c-.5 1.31-1.87.44-1.87.44a40.53 40.53 0 0 0-17.85-4.58c-5.45 0-9 2.89-9 6.82v.25c0 4.58 6 6.53 13 8.8l1.2.37c9.24 2.92 19.1 7 19.1 18.09v.23c0 12-8.74 19.49-22.78 19.49a41.67 41.67 0 0 1-20.48-4.77 43 43 0 0 1-3.91-2.36c-.13-.2-.73-.43-.3-1.55l2.77-7.7a1.12 1.12 0 0 1 1.84-.64c.77.46 1.33.87 2.32 1.45a33.24 33.24 0 0 0 18.09 5.21c6.11 0 9.91-3.24 9.91-7.6v-.23c0-4.75-5.84-6.55-12.6-8.62l-1.5-.48c-9.27-2.64-19.18-6.45-19.18-18.18v-.24c0-11.13 9-18.9 21.84-18.9h1.41Zm205.7 0a40 40 0 0 1 20.15 5.4 1.34 1.34 0 0 1 .67 1.59c-.26.68-2.6 7-2.85 7.69-.52 1.31-1.87.44-1.87.44a40.53 40.53 0 0 0-17.85-4.58c-5.45 0-9 2.89-9 6.82v.25c0 4.58 6 6.53 13 8.8l1.2.37c9.24 2.92 19.09 7 19.09 18.09v.23c0 12-8.73 19.49-22.77 19.49a41.62 41.62 0 0 1-20.48-4.77 44.23 44.23 0 0 1-3.92-2.36c-.13-.2-.73-.43-.29-1.55l2.78-7.7a1.19 1.19 0 0 1 1.84-.64c.76.47 1.33.87 2.32 1.45a33.29 33.29 0 0 0 18.12 5.21c6.09 0 9.89-3.24 9.89-7.6v-.23c0-4.75-5.84-6.55-12.59-8.62l-1.5-.48c-9.28-2.64-19.2-6.45-19.2-18.18v-.24c0-11.13 9-18.9 21.85-18.9h1.4Zm-149.28.13c7.93 0 14.06 1.84 18.23 5.49s6.31 9.57 6.31 17.52v36.32a1.23 1.23 0 0 1-.92 1.29s-1.46.41-2.77.71-6.11 1.28-10 1.94a73 73 0 0 1-12.06 1 47.51 47.51 0 0 1-10.51-1.07 21.88 21.88 0 0 1-8.08-3.51 16.42 16.42 0 0 1-5.17-6.21 20.57 20.57 0 0 1-1.84-9.07 18.54 18.54 0 0 1 7.9-15.7 25.66 25.66 0 0 1 8.28-3.84 38 38 0 0 1 9.78-1.25c2.49 0 4.58.05 6.2.18 0 0 3.13.28 6.55.77V488c0-5.3-1.1-7.79-3.27-9.46s-5.51-2.54-9.79-2.54c0 0-9.66-.12-17.31 4a5.32 5.32 0 0 1-.64.33 1 1 0 0 1-1.3-.64l-2.81-7.55a1.24 1.24 0 0 1 .35-1.58c3.57-2.79 12.23-4.47 12.23-4.47a65.26 65.26 0 0 1 10.64-1Zm357.82 0a60.82 60.82 0 0 1 8.8.58 47.17 47.17 0 0 1 7.83 2 1.06 1.06 0 0 1 .73 1.39c-1.11 3.12-1.86 5.16-2.89 8-.45 1.21-1.36.81-1.36.81a39.16 39.16 0 0 0-12.39-1.77c-5.81 0-10.17 1.93-13 5.72s-4.49 8.81-4.51 15.45c0 7.29 1.8 12.69 5 16s7.74 5 13.42 5a41.88 41.88 0 0 0 6.43-.45 26.5 26.5 0 0 0 5.45-1.57 1.13 1.13 0 0 1 1.5.73l2.87 8a1.08 1.08 0 0 1-.47 1.4 48.4 48.4 0 0 1-16.61 3c-10.17 0-18-2.93-23.17-8.71s-7.81-13.61-7.81-23.34a40.32 40.32 0 0 1 1.93-12.62 28.85 28.85 0 0 1 5.7-10.19 27.07 27.07 0 0 1 9.45-6.85 32 32 0 0 1 13.07-2.51Zm-266.93.05a28.84 28.84 0 0 1 11.37 2.31 23 23 0 0 1 7.54 5.74 24.66 24.66 0 0 1 5.07 9.3 42.49 42.49 0 0 1 1.19 17.1 1.17 1.17 0 0 1-1.15 1h-39.71c.25 6 1.69 10.3 4.62 13.2s7.42 4.66 13.58 4.67c9.43 0 13.46-1.87 16.31-2.93a1.15 1.15 0 0 1 1.49.69l2.59 7.27c.52 1.22.11 1.65-.33 1.9-2.5 1.37-8.54 3.93-20 4a39.47 39.47 0 0 1-14.41-2.32 25.43 25.43 0 0 1-15.74-16.71 42.55 42.55 0 0 1-1.81-12.68 44.73 44.73 0 0 1 1.76-12.67 29.07 29.07 0 0 1 5.38-10.32 26.13 26.13 0 0 1 9.14-7 31.08 31.08 0 0 1 13.11-2.56Zm158.73 0a29.49 29.49 0 0 1 12.57 2.52 25.8 25.8 0 0 1 9 6.85 28.12 28.12 0 0 1 5.32 10.19 46.91 46.91 0 0 1 0 25.19 28.24 28.24 0 0 1-5.32 10.2 25.35 25.35 0 0 1-9 6.79 33.21 33.21 0 0 1-25.14 0 25.35 25.35 0 0 1-9-6.79 28.42 28.42 0 0 1-5.33-10.19 46.94 46.94 0 0 1 0-25.2 28.44 28.44 0 0 1 5.32-10.19 25.79 25.79 0 0 1 9-6.85 29.5 29.5 0 0 1 12.57-2.52Zm159.26 0a28.76 28.76 0 0 1 11.36 2.31 23.13 23.13 0 0 1 7.55 5.74 24.79 24.79 0 0 1 5.08 9.3 42.22 42.22 0 0 1 1.18 17.1 1.16 1.16 0 0 1-1.15 1h-39.7c.25 6 1.69 10.3 4.62 13.2s7.42 4.66 13.59 4.67c9.42 0 13.45-1.87 16.3-2.93a1.16 1.16 0 0 1 1.5.69l2.58 7.27c.52 1.22.1 1.65-.34 1.9-2.49 1.37-8.52 3.93-20 4a39.53 39.53 0 0 1-14.41-2.32 25.5 25.5 0 0 1-15.75-16.71 42.8 42.8 0 0 1-1.79-12.68 44.46 44.46 0 0 1 1.75-12.67 28.93 28.93 0 0 1 5.37-10.32 26.06 26.06 0 0 1 9.15-7 31 31 0 0 1 13.11-2.56Zm-92.29.67q.84 0 1.77.06a34.3 34.3 0 0 1 6.66 1.13 1.08 1.08 0 0 1 .6 1.4c-.37 1.09-2.3 6.53-3 8.33-.26.69-.67 1.16-1.45 1.08a22.78 22.78 0 0 0-4.36-.52 19 19 0 0 0-5.32.75 11.88 11.88 0 0 0-4.9 2.94 14.64 14.64 0 0 0-3.48 5.84 34.89 34.89 0 0 0-1.32 10.41v29.58a1.2 1.2 0 0 1-1.19 1.21h-10.43a1.21 1.21 0 0 1-1.23-1.2v-59.14a1.16 1.16 0 0 1 1.15-1.2h10.17a1.15 1.15 0 0 1 1.15 1.2v4.84a17.94 17.94 0 0 1 6.71-4.94 18.52 18.52 0 0 1 8.46-1.71ZM440 475.7c-5.21 0-8.92 2-11.36 5.76a23.3 23.3 0 0 0-3.22 9.37h28.34c-.3-3.64-1-6.91-2.64-9.37-2.47-3.72-5.92-5.76-11.13-5.76Zm318 0c-5.21 0-8.92 2-11.37 5.76a23.31 23.31 0 0 0-3.2 9.37h28.33c-.29-3.64-1-6.91-2.64-9.37-2.49-3.72-5.92-5.76-11.12-5.76Zm-158.32.25c-5.21 0-8.93 1.8-11.37 5.51s-3.7 9.09-3.7 15.88 1.25 12.17 3.72 15.94 6.14 5.58 11.36 5.58 9-1.83 11.43-5.58 3.76-9.16 3.76-15.94-1.26-12.14-3.76-15.88-6.22-5.51-11.43-5.51Zm-248.46 22.81c-8.08-.1-11.53 2.88-11.51 2.87-2.38 1.69-3.54 4.2-3.54 7.68a9.4 9.4 0 0 0 1.2 5.18 7.64 7.64 0 0 0 2.28 2.35s3.56 2.81 11.64 2.31a81.14 81.14 0 0 0 10.71-1.43v-18.05a82.65 82.65 0 0 0-10.78-.92Z" style="fill:#fff"/>
</svg>
