<svg xmlns="http://www.w3.org/2000/svg" viewBox="0 0 1024 1024">
   <circle cx="512" cy="512" r="512" style="fill:#002163"/>
   <path d="M332.66 476.09c32.47-12.4 65.69-22.81 100-34.56-2-24.85 10.09-41.81 27.36-59.74 11.57-12 20.85-17.47 33.38-25.57a51 51 0 0 1 6.21-3.43c76.67-36 104.21-30 144.66-47.79 18.63-8.18 36.46-19.16 36.73-28 1.44.38 2.27.75 3.72 1.13 1.79 12.85 8.59 32.74-23.85 56.54-32.1 23.56-48.48 25.39-78.27 43.55-16.23 9.88-22.12 13.77-37 25.57-8.54 6.73-16.68 14.41-16.73 27.26 4.52 1.88 8.54 3.6 12.6 5.21 41.15 16.18 82.42 32 123.38 48.71 16.19 6.6 29.69 16.32 28.21 37.19-.16 2.28 2.36 5.82 4.6 7.08 22.84 13 34.75 22.86 67 40.93 13.75 9.1 16.73 7.14 21.18 18.3 2.05 5.15-1 17.18-2.22 24.23-3.08 17.15-7.39 22.33-12.83 31.32-8.41 13.87-29.92 17-38.17 18.22-13.25 1.48-32.47 3.09-34.68 3.46-2.49.4-10.26 8.67-11.76 9.71-16.19 11.41-26 14-44.86 13.53-19.43-.54-38.89-1.29-58.33-.89-31.37.62-58.54 12.21-81.34 33.84-7.65 7.21-18.84 18.59-25.48 25.11-60.87-89.85-141.82-162.54-238.7-214.23 23.3-26.03 62.7-44.25 95.19-56.68Zm1.34 88.72c56.9 51.42 110.2 103 145.06 169.23l42-51.85c-17.86-3.65-15.18-4.13-35.71-10.14-24.35-10.71-50.41-19.05-52.76-55.42 22.22 38.75 58 41.54 93.27 45.92 34.61 4.29 69.17 9 103.75 13.42 16.36 2.07 29.93 4.75 40.55-3.46 2.2-1.85 6.91-6 6.91-7.73-33.8-1.64-8-1.58-38.17-3 6.38-4.35 1.4-1.88 14.43-9.5l46.41-1.28a166.26 166.26 0 0 0 30.64-1.85c6.45-.89 23.37-3.06 26.8-7.16s8.54-15.14 10-20.69c.59-2.17-16-20-10.9-19.7 37.56 2.25.27-18.33-14.94-17.34-5.29.35-9.79 5.37-17.23 9.74 14-28.66 14.13-28.9-11.62-44.9-11.25-7-23.21-12.83-34.93-19.24 4.1-22.52 2-27-20.58-35.64C618 479.31 578.67 465 539.47 450.38l-1.84 3.95q23.76 11.63 47.51 23.29c-.27.94-.56 1.88-.84 2.82L547.48 471c-17.16 14.28-32.1 26.73-47.38 39.45 1.2 2.36 3.85 7.62 5.88 11.62l-82.33-20.18c.56 36.6 16.3 81.15 8.27 69.48C417 549.7 413 524.75 412.38 499.25c-.32-12.69 6.4-15.62 18.53-10.17 7.39 3.33 15 6.17 25.61 10.47-7.73-14.25-13.22-25.22-19.67-35.58-1.56-2.47-6.61-4.4-9.67-3.94-10.89 1.61-25.59 7.16-36 10.63-42.19 14-77.2 31.53-115.45 55.44 16.73 10.41 30.89 20 46.28 29.57Zm175.7-79.65c20.11-11.67 21.77-17.26 12.07-34.08-10.3-18-9.13-32.87 6.94-47.93 13.48-12.61 29.44-23 45.45-32.36 16.91-9.9 58.92-27.18 71.31-35.61 17.77-12.13 32.44-20.85 35.68-47.45-37.79 47.26-69.75 23.53-177.42 77.9a62.9 62.9 0 0 0-12 7.81c-11.33 9.47-22.22 19.7-31.09 31.32-20.1 26.38-16 61.83 8.62 84.24 10.79 9.82 22.89 4.88 33.17 1m155.33 74.87c-13.25-2-25.27-2.52-36.46-5.85-19.44-5.77-38.17-13.85-57.58-19.78-7.84-2.41-16.65-1.74-25.3.64 5 1.15 10.06 2.25 15.06 3.43C565.89 546.24 575.74 551 582 564c9.68 20 25.61 22.6 43.15 10.63 3.37-2.31 9.64-1.34 14.35-.51 10.04 1.77 17.83 1.21 18.31-9.23Zm-193.81 79.27c11.57 28.45 47.78 42.24 83.63 32.93-30.58-5.61-59.65-9.34-83.63-32.93Z" style="fill:#fff"/>
</svg>
