<svg xmlns="http://www.w3.org/2000/svg" viewBox="0 0 1024 1024">
   <circle cx="512" cy="512" r="512" style="fill:#061a57"/>
   <path d="M393.56 518.96c-7.417 0-13.017 5.6-13.017 13.017 0 3.33 1.21 6.66 3.481 9.082 2.876 3.178 10.898 10.14 15.742 14.38 2.876 2.422 6.358 2.876 8.023 2.876 7.417 0 13.017-5.6 13.017-13.017 0-3.482-2.12-8.023-4.995-10.141-4.238-3.179-11.655-10.141-13.32-11.958-2.27-2.422-6.055-4.238-8.93-4.238zm42.836 34.511c-6.66 0-11.655 4.995-11.655 11.655 0 4.995 2.876 8.476 6.66 10.595 2.422 1.362 7.417 3.179 10.898 4.54 2.422 1.06 2.876 1.06 3.481 1.06 8.477 0 12.26-5.903 12.26-11.2 0-5.601-3.935-9.84-6.962-11.202-8.78-3.481-6.963-3.178-9.536-4.238-1.211-.908-3.633-1.21-5.147-1.21zm42.987 15.893c-6.66-1.06-12.715 2.876-12.715 9.839 0 2.573.908 4.995 2.422 6.962 1.665 1.968 3.784 3.33 6.357 3.936 2.573.605 5.147.908 7.72 1.06 5.903 0 10.595-4.239 10.595-10.142 0-4.995-3.936-9.536-8.78-10.595-2.119-.454-4.54-.757-5.6-1.06zm-55.853-67.962c-6.963 0-12.26 5.298-12.26 12.26 0 4.238 2.12 8.022 3.936 9.839 2.119 2.119 15.742 12.715 18.618 14.38 2.421 1.362 4.995 2.119 7.719 2.119 6.357 0 11.958-5.298 11.958-11.958 0-4.541-2.422-9.082-5.6-11.201-4.541-2.876-11.201-8.023-15.44-11.958-3.027-2.422-5.903-3.482-8.93-3.482zm88.548 72.503c-5.6 0-9.839 4.238-9.839 9.839s4.239 9.838 9.839 9.838c5.6 0 9.839-4.238 9.839-9.838s-4.239-9.839-9.839-9.839zm-36.63-42.533c-9.082-2.12-14.834 2.422-14.834 9.839 0 5.903 3.481 10.14 8.022 11.655 7.72 2.421 10.595 3.178 12.715 3.178 5.903 0 11.201-4.54 11.201-11.2 0-5.299-3.178-9.083-8.779-10.899-9.687-3.027-7.568-2.573-8.325-2.573zm36.63 6.66c-5.6 0-9.839 4.238-9.839 9.839 0 5.6 4.239 9.838 9.839 9.838 5.6 0 9.839-4.238 9.839-9.838 0-5.6-4.239-9.839-9.839-9.839zm-58.426-57.972c-6.357 0-11.655 5.298-11.655 11.958 0 3.481 2.12 7.417 4.54 9.536 4.996 4.238 21.797 14.077 32.393 17.255 1.21.454 2.573.605 3.935.757 1.514 0 3.028-.303 4.39-.908 1.362-.606 2.724-1.363 3.784-2.574 1.06-1.06 1.968-2.421 2.573-3.784.606-1.362.908-2.876.908-4.39 0-5.903-4.238-10.14-8.022-11.654-9.082-3.482-19.677-9.082-24.975-13.32-2.27-1.968-4.995-3.028-7.87-2.876zm58.426 22.099c-5.6 0-9.839 4.238-9.839 9.839 0 5.6 4.239 9.838 9.839 9.838 5.6 0 9.839-4.238 9.839-9.838 0-5.6-4.239-9.839-9.839-9.839zm.303-262.16c-101.26 0-177.1 77.649-177.1 173.31 0 38.295 12.26 81.888 25.732 98.083 3.178 3.935 6.66 6.66 11.958 6.66 8.022 0 14.077-5.903 14.077-14.077 0-2.422-1.06-5.6-2.12-7.417-3.178-4.54 2.12-7.72 4.542-3.481 2.119 3.481 6.962 6.962 12.715 6.962 7.416 0 13.32-6.357 13.32-13.32 0-2.724-.757-5.449-2.12-7.719-3.481-5.6 2.12-7.72 4.239-4.238 2.876 4.54 7.72 7.417 12.715 7.417 3.632 0 7.114-1.514 9.687-4.087 2.573-2.573 4.087-6.055 4.087-9.687 0-2.422-.757-5.298-1.817-6.963-7.72-13.774-11.2-27.7-11.2-43.593 0-50.253 34.813-86.428 81.13-86.428 37.992 0 68.114 24.218 77.952 60.09l90.97-29.515c-22.25-72.503-87.64-122-168.77-122zm118.06 265.04c7.417 0 13.017-5.6 13.017-13.017 0-3.33-1.211-6.66-3.482-9.082-2.876-3.178-10.898-10.14-15.742-14.38-2.876-2.422-6.357-2.876-8.022-2.876-7.417 0-13.017 5.6-13.017 13.017 0 3.482 2.12 8.023 4.995 10.141 4.238 3.179 11.655 10.141 13.32 11.958 2.27 2.422 6.206 4.239 8.93 4.239zm-42.836-34.511c6.66 0 11.655-4.995 11.655-11.655 0-4.995-2.876-8.476-6.66-10.595-2.422-1.362-7.417-3.179-10.898-4.54-2.422-1.06-2.876-1.06-3.482-1.06-8.476 0-12.26 5.903-12.26 11.2 0 5.601 3.936 9.84 6.963 11.202 8.78 3.481 6.963 3.178 9.536 4.238 1.21.908 3.784 1.21 5.146 1.21zm-42.836-15.893c6.66 1.06 12.715-2.876 12.715-9.839 0-2.573-.908-4.995-2.422-6.962-1.665-1.968-3.784-3.33-6.357-3.936s-5.147-.908-7.72-1.06c-5.903 0-10.595 4.239-10.595 10.142 0 4.995 3.936 9.536 8.78 10.595 1.967.454 4.54.757 5.6 1.06zm55.853 67.962c6.962 0 12.26-5.298 12.26-12.26 0-4.238-2.12-8.022-3.936-9.839-2.119-2.119-15.742-12.715-18.618-14.38-2.421-1.362-4.995-2.119-7.72-2.119-6.356 0-11.957 5.298-11.957 11.958 0 4.541 2.422 9.082 5.6 11.201 4.541 2.876 11.201 8.023 15.44 11.958 2.875 2.422 5.751 3.482 8.93 3.482zm-88.548-72.503c5.6 0 9.838-4.238 9.838-9.839s-4.238-9.838-9.838-9.838-9.839 4.238-9.839 9.838 4.238 9.839 9.839 9.839zm36.479 42.533c9.082 2.12 14.834-2.422 14.834-9.839 0-5.903-3.482-10.14-8.023-11.655-7.72-2.421-10.595-3.178-12.715-3.178-5.903 0-11.2 4.54-11.2 11.2 0 5.299 3.178 9.083 8.779 10.899 9.838 3.027 7.719 2.573 8.325 2.573zm-36.48-6.66c5.601 0 9.84-4.238 9.84-9.839 0-5.6-4.239-9.838-9.84-9.838s-9.838 4.238-9.838 9.838c0 5.6 4.238 9.839 9.839 9.839zm58.276 57.972c6.357 0 11.655-5.298 11.655-11.958 0-3.481-2.12-7.417-4.541-9.536-4.995-4.238-21.796-14.077-32.392-17.255-1.211-.454-2.573-.605-3.936-.757-1.513 0-3.027.303-4.39.908-1.361.606-2.724 1.363-3.783 2.574-1.06 1.06-1.968 2.421-2.573 3.784a10.858 10.858 0 0 0-.909 4.39c0 5.902 4.239 10.14 8.023 11.654 9.081 3.482 19.677 9.082 24.975 13.32 2.27 1.968 4.995 3.028 7.87 2.876zm-58.275-22.099c5.6 0 9.838-4.238 9.838-9.839 0-5.6-4.238-9.838-9.838-9.838s-9.839 4.238-9.839 9.838c0 5.6 4.238 9.839 9.839 9.839zM511.62 784c101.26 0 177.1-77.649 177.1-173.31 0-38.295-12.26-81.888-25.732-98.083-3.179-3.935-6.66-6.66-11.958-6.66-8.023 0-14.077 5.903-14.077 14.077 0 2.422 1.06 5.6 2.119 7.417 3.178 4.54-2.12 7.72-4.541 3.481-2.12-3.481-6.963-6.962-12.715-6.962-7.417 0-13.32 6.357-13.32 13.32 0 2.724.757 5.449 2.119 7.719 3.481 5.6-2.12 7.72-4.238 4.238-2.876-4.54-7.72-7.417-12.715-7.417-3.633 0-7.114 1.514-9.688 4.087-2.573 2.573-4.086 6.055-4.086 9.687 0 2.422.756 5.298 1.816 6.963 7.72 13.774 11.201 27.7 11.201 43.593 0 50.253-34.814 86.428-81.131 86.428-37.992 0-68.265-24.218-78.104-60.09l-90.969 29.515c22.402 72.503 87.791 122 168.92 122z" style="fill:#fff"/>
</svg>
