<svg xmlns="http://www.w3.org/2000/svg" viewBox="0 0 1024 1024">
   <circle cx="512" cy="512" r="512" style="fill:#061a57"/>
   <path d="M393.56 518.96c-7.42 0-13.02 5.6-13.02 13.02 0 3.33 1.21 6.66 3.48 9.08 2.88 3.18 10.9 10.14 15.74 14.38 2.88 2.42 6.36 2.88 8.02 2.88 7.42 0 13.02-5.6 13.02-13.02 0-3.48-2.12-8.02-4.99-10.14-4.24-3.18-11.65-10.14-13.32-11.96-2.27-2.42-6.05-4.24-8.93-4.24Zm42.84 34.51c-6.66 0-11.65 4.99-11.65 11.65 0 4.99 2.88 8.48 6.66 10.59 2.42 1.36 7.42 3.18 10.9 4.54 2.42 1.06 2.88 1.06 3.48 1.06 8.48 0 12.26-5.9 12.26-11.2 0-5.6-3.93-9.84-6.96-11.2-8.78-3.48-6.96-3.18-9.54-4.24-1.21-.91-3.63-1.21-5.15-1.21Zm42.99 15.89c-6.66-1.06-12.71 2.88-12.71 9.84 0 2.57.91 4.99 2.42 6.96 1.66 1.97 3.78 3.33 6.36 3.94 2.57.6 5.15.91 7.72 1.06 5.9 0 10.59-4.24 10.59-10.14 0-4.99-3.94-9.54-8.78-10.59-2.12-.45-4.54-.76-5.6-1.06Zm-55.85-67.96c-6.96 0-12.26 5.3-12.26 12.26 0 4.24 2.12 8.02 3.94 9.84 2.12 2.12 15.74 12.71 18.62 14.38 2.42 1.36 4.99 2.12 7.72 2.12 6.36 0 11.96-5.3 11.96-11.96 0-4.54-2.42-9.08-5.6-11.2-4.54-2.88-11.2-8.02-15.44-11.96-3.03-2.42-5.9-3.48-8.93-3.48Zm88.55 72.5c-5.6 0-9.84 4.24-9.84 9.84s4.24 9.84 9.84 9.84 9.84-4.24 9.84-9.84-4.24-9.84-9.84-9.84Zm-36.63-42.53c-9.08-2.12-14.83 2.42-14.83 9.84 0 5.9 3.48 10.14 8.02 11.65 7.72 2.42 10.59 3.18 12.71 3.18 5.9 0 11.2-4.54 11.2-11.2 0-5.3-3.18-9.08-8.78-10.9-9.69-3.03-7.57-2.57-8.32-2.57Zm36.63 6.66c-5.6 0-9.84 4.24-9.84 9.84s4.24 9.84 9.84 9.84 9.84-4.24 9.84-9.84-4.24-9.84-9.84-9.84Zm-58.43-57.97c-6.36 0-11.65 5.3-11.65 11.96 0 3.48 2.12 7.42 4.54 9.54 5 4.24 21.8 14.08 32.39 17.25 1.21.45 2.57.6 3.93.76 1.51 0 3.03-.3 4.39-.91 1.36-.61 2.72-1.36 3.78-2.57 1.06-1.06 1.97-2.42 2.57-3.78.61-1.36.91-2.88.91-4.39 0-5.9-4.24-10.14-8.02-11.65-9.08-3.48-19.68-9.08-24.97-13.32-2.27-1.97-4.99-3.03-7.87-2.88Zm58.43 22.1c-5.6 0-9.84 4.24-9.84 9.84s4.24 9.84 9.84 9.84 9.84-4.24 9.84-9.84-4.24-9.84-9.84-9.84Zm.3-262.16c-101.26 0-177.1 77.65-177.1 173.31 0 38.29 12.26 81.89 25.73 98.08 3.18 3.93 6.66 6.66 11.96 6.66 8.02 0 14.08-5.9 14.08-14.08 0-2.42-1.06-5.6-2.12-7.42-3.18-4.54 2.12-7.72 4.54-3.48 2.12 3.48 6.96 6.96 12.71 6.96 7.42 0 13.32-6.36 13.32-13.32 0-2.72-.76-5.45-2.12-7.72-3.48-5.6 2.12-7.72 4.24-4.24 2.88 4.54 7.72 7.42 12.71 7.42 3.63 0 7.11-1.51 9.69-4.09s4.09-6.05 4.09-9.69c0-2.42-.76-5.3-1.82-6.96-7.72-13.77-11.2-27.7-11.2-43.59 0-50.25 34.81-86.43 81.13-86.43 37.99 0 68.11 24.22 77.95 60.09l90.97-29.51c-22.25-72.5-87.64-122-168.77-122Zm118.06 265.04c7.42 0 13.02-5.6 13.02-13.02 0-3.33-1.21-6.66-3.48-9.08-2.88-3.18-10.9-10.14-15.74-14.38-2.88-2.42-6.36-2.88-8.02-2.88-7.42 0-13.02 5.6-13.02 13.02 0 3.48 2.12 8.02 4.99 10.14 4.24 3.18 11.65 10.14 13.32 11.96 2.27 2.42 6.21 4.24 8.93 4.24Zm-42.84-34.51c6.66 0 11.65-4.99 11.65-11.65 0-4.99-2.88-8.48-6.66-10.59-2.42-1.36-7.42-3.18-10.9-4.54-2.42-1.06-2.88-1.06-3.48-1.06-8.48 0-12.26 5.9-12.26 11.2 0 5.6 3.94 9.84 6.96 11.2 8.78 3.48 6.96 3.18 9.54 4.24 1.21.91 3.78 1.21 5.15 1.21Zm-42.84-15.89c6.66 1.06 12.71-2.88 12.71-9.84 0-2.57-.91-4.99-2.42-6.96-1.66-1.97-3.78-3.33-6.36-3.94s-5.15-.91-7.72-1.06c-5.9 0-10.59 4.24-10.59 10.14 0 4.99 3.94 9.54 8.78 10.59 1.97.45 4.54.76 5.6 1.06Zm55.85 67.96c6.96 0 12.26-5.3 12.26-12.26 0-4.24-2.12-8.02-3.94-9.84-2.12-2.12-15.74-12.71-18.62-14.38-2.42-1.36-4.99-2.12-7.72-2.12-6.36 0-11.96 5.3-11.96 11.96 0 4.54 2.42 9.08 5.6 11.2 4.54 2.88 11.2 8.02 15.44 11.96 2.87 2.42 5.75 3.48 8.93 3.48Zm-88.55-72.5c5.6 0 9.84-4.24 9.84-9.84s-4.24-9.84-9.84-9.84-9.84 4.24-9.84 9.84 4.24 9.84 9.84 9.84Zm36.48 42.53c9.08 2.12 14.83-2.42 14.83-9.84 0-5.9-3.48-10.14-8.02-11.65-7.72-2.42-10.59-3.18-12.71-3.18-5.9 0-11.2 4.54-11.2 11.2 0 5.3 3.18 9.08 8.78 10.9 9.84 3.03 7.72 2.57 8.32 2.57Zm-36.48-6.66c5.6 0 9.84-4.24 9.84-9.84s-4.24-9.84-9.84-9.84-9.84 4.24-9.84 9.84 4.24 9.84 9.84 9.84Zm58.28 57.97c6.36 0 11.65-5.3 11.65-11.96 0-3.48-2.12-7.42-4.54-9.54-4.99-4.24-21.8-14.08-32.39-17.25-1.21-.45-2.57-.61-3.94-.76-1.51 0-3.03.3-4.39.91-1.36.61-2.72 1.36-3.78 2.57-1.06 1.06-1.97 2.42-2.57 3.78a10.86 10.86 0 0 0-.91 4.39c0 5.9 4.24 10.14 8.02 11.65 9.08 3.48 19.68 9.08 24.97 13.32 2.27 1.97 4.99 3.03 7.87 2.88Zm-58.27-22.1c5.6 0 9.84-4.24 9.84-9.84s-4.24-9.84-9.84-9.84-9.84 4.24-9.84 9.84 4.24 9.84 9.84 9.84ZM511.63 784c101.26 0 177.1-77.65 177.1-173.31 0-38.29-12.26-81.89-25.73-98.08-3.18-3.93-6.66-6.66-11.96-6.66-8.02 0-14.08 5.9-14.08 14.08 0 2.42 1.06 5.6 2.12 7.42 3.18 4.54-2.12 7.72-4.54 3.48-2.12-3.48-6.96-6.96-12.71-6.96-7.42 0-13.32 6.36-13.32 13.32 0 2.72.76 5.45 2.12 7.72 3.48 5.6-2.12 7.72-4.24 4.24-2.88-4.54-7.72-7.42-12.71-7.42-3.63 0-7.11 1.51-9.69 4.09-2.57 2.57-4.09 6.05-4.09 9.69 0 2.42.76 5.3 1.82 6.96 7.72 13.77 11.2 27.7 11.2 43.59 0 50.25-34.81 86.43-81.13 86.43-37.99 0-68.26-24.22-78.1-60.09l-90.97 29.51c22.4 72.5 87.79 122 168.92 122Z" style="fill:#fff"/>
</svg>
