<svg xmlns="http://www.w3.org/2000/svg" viewBox="0 0 1024 1024">
   <circle cx="512" cy="512" r="512" style="fill:#786076"/>
   <path d="M582.12 250.3c-144.53-38.73-293.1 47-331.82 191.58s47 293.1 191.58 331.82 293.1-47 331.82-191.58S726.66 289 582.12 250.3Zm-114.6 478.38.36.94a16.9 16.9 0 0 0 21.72 10l63.91-23.49a16.9 16.9 0 0 1 21.72 10l.25.74a16.91 16.91 0 0 1-7.55 20.42A243.84 243.84 0 0 1 415.8 285.84a17.77 17.77 0 0 1 15 11.58A17.83 17.83 0 0 0 453.63 308l20.79-7.67a16.9 16.9 0 0 1 21.72 10l.25.74a16.91 16.91 0 0 1-10 21.72L341.7 386.14a16.91 16.91 0 0 0-10 21.72l.25.74a16.91 16.91 0 0 0 21.72 10l105.81-39a16.9 16.9 0 0 1 21.72 10l.25.74a16.91 16.91 0 0 1-10 21.71l-168.99 62.32a16.9 16.9 0 0 0-10 21.72l.25.74a16.9 16.9 0 0 0 21.71 10l207.8-76.26a16.9 16.9 0 0 1 21.72 10l.62 1.68a16.91 16.91 0 0 1-10 21.72l-149.34 54.9a16.9 16.9 0 0 0-10 21.72l.25.74a16.9 16.9 0 0 0 21.71 10l68.46-25.19a16.91 16.91 0 0 1 21.72 10l.25.74a16.91 16.91 0 0 1-10 21.72L359.77 602a16.91 16.91 0 0 0-10 21.72l.25.74a16.91 16.91 0 0 0 21.72 10l159.54-58.62a16.91 16.91 0 0 1 21.72 10l.25.74a16.91 16.91 0 0 1-10 21.72l-99.06 36.4a16.9 16.9 0 0 0-10 21.72l.25.74a16.9 16.9 0 0 0 21.72 10l124.43-45.64a16.92 16.92 0 0 1 11.87 31.68l-114.94 43.87a16.9 16.9 0 0 0-10 21.73v-.12Z" style="fill:#fff"/>
</svg>
