<svg xmlns="http://www.w3.org/2000/svg" viewBox="0 0 1024 1024">
   <circle cx="512" cy="512" r="512" style="fill:#ff5b49"/>
   <path d="M588.84 333.07c-7.05.28-35.69 1.03-42.44 1.2L501.62 460.6c-18.35-.02-35.52-.13-54.24-.3v-32.68l33.44.39v-29.46l-33.44-.49v-31.37c36.36.84 53.14.67 53.12.67l-6.83-35s-43.49-.71-90.98-2.71v165.8c9.41.04 56.43.19 86.49.26v.02c5.48 0 10.68 0 15.82.02h4c7.5-.09 14.93-.09 22.93-.09l9.99-29.09c17.13-.06 34.23-.19 51.33-.37l10.08 29.29c14.89-.06 29.96.21 44.83.13l-59.31-162.54Zm-36.79 103.94 15.58-45.34 15.47 44.97c-10.33.15-20.69.28-31.05.37Zm114.32 58.56c14.87-.11 29.72.04 44.57-.09l.21-133.94c16.22-1.29 32.42-2.71 48.6-4.32l-6.89-37a2013.21 2013.21 0 0 1-128.09 11.17l-6.92 35.86c16.18-.69 32.36-1.53 48.52-2.51v130.82ZM316.15 368.94c0-20.18 43.13-14.74 63.02-3.03l1.85-39.86c-4.71-1.46-23.74-5.8-46.46-5.8-32.12 0-60.17 19-60.17 49.19 0 53.83 73.47 57.55 73.47 79.14 0 28.41-48.71 12.61-73.47-10.83v45.4s18.22 16.93 54.43 16.93c39.9 0 60.17-26 60.17-54.02.02-54.58-72.84-54.82-72.84-77.12Zm465.82 334.85-58.86-100.24 52.07-80.3h-50.24l-45.62 71.56c.17-23.81-.17-47.64 0-71.47-15.04-.04-29.54-.06-44.61-.09v167.11s29.46 1.81 44.61 2.99v-77.23l44.03 80.9c21.98 2.26 41.95 4.58 58.62 6.77Zm-334.51-84.56c11.11-.17 33.33-.41 33.33-.41v-29.76s-22.22.17-33.33.28v-31.48c31.16.02 53.05.19 53.05.19l-6.9-34.55h-90.85v165.89c20.93-1.36 78.5-2.67 98.05-2.73 2.3-11.71 4.6-23.44 6.9-35.13-20.09 0-40.18.24-60.25.67v-32.96Zm116.12-.34c10.34.15 20.69.32 31.03.56v-29.72c-10.34-.17-20.67-.28-31.03-.39V558.1l53.33.34-6.88-34.9s-60.77-.04-91.15-.04v163.18c30.94.02 64.68 1.01 97.86 2.71l7.2-35.39c-17.49-.62-44.44-1.51-60.34-1.85-.02-11.11-.02-22.2-.02-33.26Zm-247.07 4.17 27.12-1.33.02 34.55c-40.74 3.69-57.5-9.82-57.5-50.13 0-37.41 30.28-46.74 58.17-46.74 24.58 0 37.63 2.73 37.63 2.73l-7.37-38.76c-6.49-.32-17.99-.69-37.5-.69-45.08 0-95.06 21.57-95.06 89.84 0 57.46 39.28 86.68 89.11 82 35.09-3.29 50.86-4 50.86-4V590.52l-58.6 1.31-6.88 31.22Z" style="fill:#fff"/>
</svg>
