<svg xmlns="http://www.w3.org/2000/svg" viewBox="0 0 1024 1024">
   <circle cx="512" cy="512" r="512" style="fill:#00bfff"/>
   <path d="M442.32 483.19s-11.24-63.71-13.12-78.7c-1.87-14.99-18.74-89.94-20.61-103.06-1.87-13.12-7.5-31.86-24.36-33.73-16.86-1.87-24.36 1.87-29.98 16.86s28.11 151.78 33.73 166.77c5.62 14.99 16.86 58.09 20.61 63.71 3.75 5.62 11.24 14.99 24.36 11.24s14.99-14.99 9.37-43.1Zm44.97-254.84c16.86-1.69 26.23 9.37 28.11 16.86 1.87 7.5 11.24 131.17 11.24 164.9s3.75 82.45-1.87 91.82c-5.62 9.37-7.5 11.24-18.74 11.24s-16.86-11.24-18.74-24.36c-2.19-15.29-5.62-29.98-9.37-63.71-.66-5.88-14.99-155.53-14.99-168.65s5.62-26.23 24.36-28.11Zm119.93 33.73c20.61-1.37 24.36 16.86 24.36 28.11 0 7.5-7.5 65.58-9.37 78.7-1.87 13.12-13.3 76.41-14.99 89.94-1.87 14.99-7.8 43.68-11.24 50.59-1.87 3.75-7.5 11.24-16.86 9.37s-14.99-1.87-14.99-18.74 7.5-103.06 7.5-112.43 7.5-69.33 9.37-76.83-1.87-46.85 26.23-48.72Zm93.69 71.21c14.99 1.26 20.61 13.12 18.74 20.61-1.87 7.5-11.24 44.97-14.99 58.09-3.75 13.12-26.23 88.07-28.11 91.82s-9.37 26.23-11.24 29.98c-1.67 3.35-9.37 5.62-14.99 3.75s-13.12-3.75-9.37-22.49 11.24-56.22 13.12-63.71c1.87-7.5 14.99-69.33 20.61-82.45 5.62-13.12 3.75-37.48 26.23-35.6Zm-396.9 139.43c-.05-.58.02-1.17.22-1.72s.51-1.05.92-1.46c.41-.41.91-.73 1.46-.94.55-.2 1.13-.28 1.71-.23 17.8 1.71 35.73 7.8 45.91 35.43 13.12 35.6-.66 141.29 19.68 171.46 30.92 45.91 66.52 72.14 141.47 72.14 95.57 0 137.73-34.67 137.73-98.38s-65.58-65.58-78.7-63.71c-13.12 1.87-25.58 7.5-24.36 29.98 1.18 21.77 33.43 18.4 35.6 5.62 1.61-9.37-5.62-13.12 1.87-16.86 7.5-3.75 22.49 3.75 22.49 22.49s-3.75 76.83-74.95 78.7c-71.21 1.87-74.41-59.96-74.95-69.33-.94-15.93 11.24-43.1 5.62-44.97s-13.9-4.65-35.6 14.99c-19.68 17.8-32.79 23.42-39.35 16.86-7.5-7.5-11.24-16.86-3.75-24.36 7.5-7.5 50.59-54.34 114.3-61.84 63.71-7.5 133.74 6.78 172.39 48.72 44.04 47.78 25.52 168.5-69.33 196.75C462.92 824.22 328 766.13 315.82 652.77c-6.46-60.34-5.53-103.36-11.81-180.06Z" style="fill:#fff"/>
</svg>
