<svg xmlns="http://www.w3.org/2000/svg" viewBox="0 0 1024 1024">
   <circle cx="512" cy="512" r="512" style="fill:#0092ff"/>
   <path d="M740.54 378.85a142.69 142.69 0 0 0-87.73-67.63 148.82 148.82 0 0 0-23.51-4.06 142.77 142.77 0 0 0-235 0 144 144 0 0 0-111.45 71.59A145.5 145.5 0 0 0 277.31 512a146.12 146.12 0 0 0 5.56 133 143 143 0 0 0 87.73 67.63 136.25 136.25 0 0 0 24 4.06 142.56 142.56 0 0 0 235 0 144.19 144.19 0 0 0 117-204.87 145.81 145.81 0 0 0-6.09-133Zm-35.42 21.07A100.36 100.36 0 0 1 717.25 465a146.18 146.18 0 0 0-196.25-.24c-6.37-40.28 12.84-80.33 48.55-101.19a98.43 98.43 0 0 1 135.52 36.34ZM511.53 292.53a96 96 0 0 1 60.56 21.91A146.68 146.68 0 0 0 543.56 327a143 143 0 0 0-66.95 153.61 97.69 97.69 0 0 1-61.28-90.73c-.23-53.15 42.74-96.52 96.2-97.08ZM319.31 402.31a99.4 99.4 0 0 1 50-41.85 140.5 140.5 0 0 0-3.61 30.7c-.18 61.67 41 116.41 101.93 135.47a99.7 99.7 0 0 1-111.6 9c-48-27.29-64.55-86.54-37.2-133.32ZM318.83 624a99.33 99.33 0 0 1-12-65 151.66 151.66 0 0 0 25 18.38 145.81 145.81 0 0 0 72.84 19.53 149 149 0 0 0 37.48-4.91A145.55 145.55 0 0 0 503 559.13c6.35 40.29-12.8 80.34-48.45 101.3A99.57 99.57 0 0 1 318.3 624.3ZM512.5 731.27a95.63 95.63 0 0 1-60.59-22.1 140 140 0 0 0 28.54-12.38 142.8 142.8 0 0 0 67-153.44A97.56 97.56 0 0 1 607 651.52c-8.45 45.52-47.92 78.9-94.54 80Zm182.61-109.62a96 96 0 0 1-48.49 41.89 138.42 138.42 0 0 0 3.51-30.73c.14-61.72-39.82-116.49-98.94-135.6a95.67 95.67 0 0 1 36.11-18.74 94.69 94.69 0 0 1 72.22 10.24A98.33 98.33 0 0 1 695.11 622Z" style="fill:#fff"/>
</svg>
