<svg xmlns="http://www.w3.org/2000/svg" viewBox="0 0 1024 1024">
   <circle cx="512" cy="512" r="512" style="fill:#858585"/>
   <path data-name="Sendy logo (monochrome logo vector by krisu)" d="m346 396.16 102.81 105.93L346 605.54Zm333.11-2.85-103.2 108.57 103.35 105.41ZM664.39 626l-111.5-119h-81.76L359.62 626ZM512 266.69c-135.95 0-246.55 110-246.55 245.31S376.05 757.31 512 757.31 758.55 647.27 758.55 512 647.95 266.69 512 266.69m0-33.45C666.64 233.23 792 358 792 512S666.64 790.77 512 790.77 232 666 232 512s125.36-278.77 280-278.77Z" style="fill:#fff"/>
</svg>
