<svg xmlns="http://www.w3.org/2000/svg" viewBox="0 0 1024 1024">
   <circle cx="512" cy="512" r="512" style="fill:#6b0aea"/>
   <path d="M473.27 224v463.89h77.58V224h-77.58Zm-115.24 22.04s-77.4 94.28-77.4 162.02v234.68A91.69 91.69 0 0 0 322 720.8l36.03 22.34v-497.1Zm307.94 0v497.28L702 720.98a91.862 91.862 0 0 0 41.37-78.07V408.05c.18-67.74-77.41-162.02-77.41-162.02Zm-96.32 69.72v484l77.52-48.04V350.1a193.502 193.502 0 0 0-77.53-34.35Zm-115.36.24a193.24 193.24 0 0 0-77.58 34.11v401.86l77.58 48.04v-484Z" style="fill:#fff"/>
</svg>
