<svg xmlns="http://www.w3.org/2000/svg" viewBox="0 0 1024 1024">
   <circle cx="512" cy="512" r="512" style="fill:#6b0aea"/>
   <path d="M473.207 223.547v464.617h77.707V223.547Zm-115.418 22.072s-77.525 94.426-77.525 162.27v235.047a91.841 91.841 0 0 0 41.44 78.187l36.085 22.373zm308.422 0v498.059l36.088-22.375a92.021 92.021 0 0 0 41.44-78.188V407.89c.18-67.844-77.528-162.27-77.528-162.27Zm-96.47 69.828v484.766l77.646-48.115V349.85a193.726 193.726 0 0 0-77.647-34.403zm-115.54.24a193.606 193.606 0 0 0-77.707 34.163v402.488l77.707 48.115z" style="fill:#fff"/>
</svg>
