<svg xmlns="http://www.w3.org/2000/svg" viewBox="0 0 1024 1024">
   <circle cx="512" cy="512" r="512" style="fill:#4a154b"/>
   <path d="M363.56 579.52a53.78 53.78 0 1 1-53.76-53.76h53.76Zm27.11 0a53.78 53.78 0 0 1 107.56 0V714.2a53.78 53.78 0 1 1-107.56 0Zm53.78-216a53.78 53.78 0 1 1 53.78-53.76v53.76Zm0 27.11a53.78 53.78 0 1 1 0 107.56H309.8a53.78 53.78 0 1 1 0-107.56Zm215.94 53.78a53.8 53.8 0 1 1 53.8 53.78h-53.8Zm-27.05 0a53.79 53.79 0 0 1-107.58 0V309.8a53.79 53.79 0 1 1 107.58 0Zm-53.82 215.98a53.8 53.8 0 1 1-53.76 53.8v-53.8Zm0-27.05a53.79 53.79 0 0 1 0-107.58H714.2a53.79 53.79 0 1 1 0 107.58Z" style="fill:#fff"/>
</svg>
