<svg xmlns="http://www.w3.org/2000/svg" viewBox="0 0 1024 1024">
   <circle cx="512" cy="512" r="512"/>
   <path d="M482.87 473.5c-15.8-14.36-36.46-20.87-62.27-20.87-23.33 0-48.11 8-62.14 20.84a51.88 51.88 0 0 0-16.9 38.43 51.11 51.11 0 0 0 16.9 38.56c15.11 13.59 37.75 20.92 62.14 20.92s47.57-7.24 62.27-20.92a53.52 53.52 0 0 0 16.67-38.56 51.33 51.33 0 0 0-16.67-38.4Zm-28.94 69.38c-8.39 8.36-20.39 12.84-33.34 12.84-12.85 0-25.1-4.58-33.39-12.84-7.93-7.9-12.18-19.1-12.18-31s4.2-23.12 12.18-31c8.28-8.21 20.58-12.76 33.39-12.76s25.06 4.59 33.34 12.76c8 7.92 12.21 19.09 12.21 31 .01 12.49-3.87 22.69-12.2 31Zm-211.58-90.2c-13 0-27.87 2.44-40.46 8.08-11.62 5.2-21.14 13.6-21.14 27.53a28.61 28.61 0 0 0 7.74 19.71c3.39 3.12 8.83 8.44 23.08 11.56 6.37 1.4 20 3.54 33.54 5s26.7 2.77 32.09 4.14c4.29 1.09 11.48 2.58 11.48 10.67s-7.58 10.52-8.9 11.05-10.42 4.7-26.77 4.7c-12.08 0-26.59-3.64-31.88-5.53-6.1-2.18-12.5-5.05-18.47-12.36a21.27 21.27 0 0 1-3.83-11.72H184V567h16.45v-5.61a2.35 2.35 0 0 1 3.56-2 129.65 129.65 0 0 0 24.07 7.79c8.65 1.81 14.22 3.11 25 3.11 17.54 0 27-2.86 33.48-4.73a58.52 58.52 0 0 0 19.88-9.84 27.3 27.3 0 0 0 10.65-21.87 30.62 30.62 0 0 0-8.61-21.51 37.58 37.58 0 0 0-10.66-7.26 78.22 78.22 0 0 0-13.09-4.58c-8.48-2.09-27.66-4.66-36.83-5.62-9.62-1-26.3-2.39-33-4.46-2-.63-6.14-2.59-6.14-7.38 0-3.41 1.88-6.29 5.61-8.63 5.91-3.71 17.84-6 30.28-6 14.71-.05 27.16 3.31 35.08 6.86a38.53 38.53 0 0 1 8.35 5 25.16 25.16 0 0 1 8.29 13.73h13.29v-36.13h-14.84v4.2c0 1.36-1.4 3.12-4 1.66-6.64-3.49-25.42-11-48.43-11.05m325.18 6.57 72.38 65.45-.74-44.06c-.07-5.78-1.14-8.19-7.37-8.19h-13.66v-13.18h61.89v13.18H666.8c-6.36 0-6.76 2-6.84 8.19l1.12 84.19h-21.2l-83.37-74.55v52.91c.07 5.75.34 8.46 6.26 8.46h14.86v13.18h-60.76v-13.18h14.21c5.31 0 5.1-5.07 5.1-8.76v-61.75c0-4-.56-8.68-8.89-8.68h-11.54v-13.2Zm183.23 92.38a28.49 28.49 0 0 0 3.66-.23 4.54 4.54 0 0 0 2.85-2.53 14.72 14.72 0 0 0 .28-2.85v-20.84c0-.5 0-.72-.89-1.83s-37.91-43.21-39.61-45.05c-2.1-2.3-5.79-5.84-11.4-5.84h-12.84v-13.2h72.58v13.17h-8.75c-2 0-3.37 1.92-1.64 4.06 0 0 24.42 29.26 24.65 29.57s.42.39.73.1 25-29.4 25.23-29.63a2.54 2.54 0 0 0-2.16-4.08h-9v-13.19H854v13.19h-13.29c-4.82 0-6.78.89-10.41 5-1.66 1.88-39 44.62-40.05 45.78a2.81 2.81 0 0 0-.49 2V546a14.69 14.69 0 0 0 .28 2.85 4.53 4.53 0 0 0 2.85 2.53 27.69 27.69 0 0 0 3.63.23h13.59v13.19h-72.2v-13.19h12.89Z" style="fill:#fff"/>
</svg>
