<svg xmlns="http://www.w3.org/2000/svg" viewBox="0 0 1024 1024">
   <circle cx="512" cy="512" r="512"/>
   <path d="M491 394.23a148.68 148.68 0 0 0 126.9 55.23 5.12 5.12 0 0 1 4.83 7.92 148.75 148.75 0 0 0-13.29 137.77 5.12 5.12 0 0 1-6.09 6.86 148.74 148.74 0 0 0-135.31 30 5.17 5.17 0 0 1-8.46-3.67 148.7 148.7 0 0 0-70.19-119.24 5.17 5.17 0 0 1 .87-9.18 148.69 148.69 0 0 0 91.82-103.66 5.12 5.12 0 0 1 8.94-2ZM512 296a216.25 216.25 0 1 1-152.67 63.34A216 216 0 0 1 512 296Zm0-58a274 274 0 1 0 193.75 80.25A274 274 0 0 0 512 238Z" style="fill:#fff"/>
</svg>
