<svg xmlns="http://www.w3.org/2000/svg" viewBox="0 0 1024 1024">
   <circle cx="512" cy="512" r="512" style="fill:#f60"/>
   <path d="M569.58 471.57c-.44-2.62 3.93-3.93 5.68-.87 7.87 14.86 15.73 35 15.73 55.94v.44c0 45-34.09 81.73-76 81.73s-76-36.71-76-81.73v-.44c0-73.86 59.44-85.66 56.38-132.86a4.48 4.48 0 0 1 7.43-3.93c15.73 14.42 45.45 52.45 45.45 135.92-.08 48.95 35.75 9.61 21.33-54.2ZM462.5 700.15l29.28-29.72c2.62-3.06 2.62-7.87 0-10.49L339.26 507a9.76 9.76 0 0 1 0-14L532 299.81a7.08 7.08 0 0 0 1.75-7.87 6.89 6.89 0 0 0-6.56-4.37h-59a9.16 9.16 0 0 0-4.81 1.75L258 494.74c-2.62 3.06-2.62 7.87 0 10.49l194.45 194.48a8.06 8.06 0 0 0 5.24 2.19 9.16 9.16 0 0 0 4.81-1.75Zm34.09 36.27h58.56a7.24 7.24 0 0 0 5.24-2.19l205.42-205.4a7.39 7.39 0 0 0 0-10.49l-194-194.49c-1.31-1.31-2.62-2.62-4.81-2.62a7.24 7.24 0 0 0-5.24 2.19L532 353.13c-2.62 3.06-2.62 7.87 0 10.49l153 153a8.7 8.7 0 0 1 3.06 7 10.31 10.31 0 0 1-3.06 7L491.79 723.75a7.08 7.08 0 0 0-1.75 7.87 6.89 6.89 0 0 0 6.56 4.37Z" style="fill:#fff"/>
</svg>
