<svg xmlns="http://www.w3.org/2000/svg" data-name="Layer 1" viewBox="0 0 1024 1024">
   <circle cx="512" cy="512" r="512" style="fill:#394eff"/>
   <path d="M512 270.09c22.63 0 42.38 12.33 52.89 30.6 50.44 87.19 148.49 256.72 198.88 343.75l.12.23.05.1.09.13.55 1.02c.26.4.44.85.67 1.27.27.42.45.89.67 1.32.04.09.1.17.13.28.17.35.35.71.51 1.07.13.29.57 1.32.71 1.6.16.41.32.8.48 1.2.17.43.34.85.48 1.26.04.1.08.21.12.3.14.41.29.83.43 1.24.01.03.01.05.03.09.13.39.26.79.38 1.19.04.1.05.18.1.28.13.43.25.85.38 1.27l.04.17c.12.48.27.96.38 1.44.12.42.22.85.32 1.27l.04.25c.09.37.17.76.26 1.14.01.09.03.18.04.28.09.43.17.86.26 1.3.05.36.22 1.31.28 1.67.12.92.27 1.9.37 2.83v.21c.05.43.1.89.13 1.35.01.09.01.18.03.3.03.42.05.86.08 1.27.01.04.01.09.01.13.03.45.04.9.05 1.39v1.02h.01c1.03 40.8-40.56 71.4-79.23 58.69l-171.19-56.46c-5.95-2.03-13.18-2.03-19.14 0L331.24 733l-3.52.99c-37.65 9.88-76.29-19.98-75.72-58.99v-1.72c.03-.48.04-.93.08-1.39.03-.54.05-.98.09-1.4 0-.12.01-.22.03-.3.03-.47.08-.92.12-1.35v-.21c.16-1.41.36-2.82.61-4.23.08-.54.18-1.04.29-1.57.01-.09.04-.18.05-.28.09-.38.16-.77.25-1.14.12-.5.24-1.01.37-1.52l.08-.29c.12-.38.21-.77.32-1.15l.04-.17c.12-.42.25-.83.38-1.27.16-.49.3-1 .48-1.47.01-.03.01-.05.03-.09.13-.41.29-.83.43-1.24l.1-.3.48-1.24c.17-.42.32-.81.5-1.22.04-.09.09-.17.13-.28.16-.39.34-.8.51-1.19l.08-.13c.16-.37.34-.73.5-1.07.04-.1.09-.18.13-.28l.63-1.25c.23-.45.47-.89.71-1.33l.28-.51c50.56-87.47 148.77-257.18 199.41-344.73 10.51-18.28 30.27-30.6 52.9-30.6H512Z" style="fill:#fff"/>
</svg>
