<svg xmlns="http://www.w3.org/2000/svg" viewBox="0 0 1024 1024">
   <circle cx="512" cy="512" r="512" style="fill:#1b71f8"/>
   <path d="M695.85 507.03c0 97.79-73.77 179.79-171.56 189.73 0 2.33-276.34 39.24-276.34 39.24l30.44-109.54 224.26-33.96v-.57c44.47-2.9 77.29-40.38 74.91-83.76-.57-7.61-1.76-14.6-4.66-22.21h121.76c1.19 6.99 1.19 14.03 1.19 21.07Zm-367.14 9.94c0-97.79 74.39-179.79 171.56-189.73 0-2.9 275.77-39.24 275.77-39.24l-31.01 109.54-224.26 34.53v.57c-43.33 2.33-76.67 39.81-73.77 83.19.57 7.61 1.76 14.6 4.71 21.64H329.9c-.57-7.04-1.19-13.46-1.19-20.5Z" style="fill:#fff"/>
</svg>
