<svg xmlns="http://www.w3.org/2000/svg" xmlns:xlink="http://www.w3.org/1999/xlink" viewBox="0 0 1024 1024">
   <defs>
      <linearGradient id="a" x1="283.5" y1="836.82" x2="283.5" y2="816.7" gradientTransform="matrix(1.51 0 0 -2.97 392.24 3123.28)" gradientUnits="userSpaceOnUse">
         <stop offset="0" stop-color="#ba1824"/>
         <stop offset="1" stop-color="#e52c3a"/>
      </linearGradient>
      <linearGradient id="c" x1="-357.13" y1="986.92" x2="-357.13" y2="966.8" gradientTransform="matrix(8.13 0 0 -7.31 3329.34 7685.8)" xlink:href="#a"/>
      <linearGradient id="d" x1="-335.37" y1="986.46" x2="-335.37" y2="966.34" gradientTransform="matrix(8.07 0 0 -7.27 3310.65 7647.3)" xlink:href="#a"/>
      <linearGradient id="e" x1="-360.25" y1="961.54" x2="-360.25" y2="941.43" gradientTransform="matrix(8.37 0 0 -6.81 3435.85 7165.71)" xlink:href="#a"/>
      <linearGradient id="f" x1="-339.19" y1="960.81" x2="-339.19" y2="940.69" gradientTransform="matrix(8.39 0 0 -6.77 3451.69 7119.64)" xlink:href="#a"/>
      <linearGradient id="g" x1="-364.7" y1="1005.94" x2="-364.7" y2="985.83" gradientTransform="matrix(7.25 0 0 -8.94 2930.12 9402.04)" xlink:href="#a"/>
      <linearGradient id="h" x1="-301.08" y1="1005.87" x2="-301.08" y2="985.76" gradientTransform="matrix(7.08 0 0 -8.96 2875.56 9416.1)" xlink:href="#a"/>
      <linearGradient id="i" x1="-353.34" y1="993.64" x2="-353.34" y2="973.53" gradientTransform="matrix(6.13 0 0 -9.2 2424.97 9675.3)" xlink:href="#a"/>
      <linearGradient id="j" x1="-309.62" y1="998.91" x2="-309.62" y2="978.8" gradientTransform="matrix(6.42 0 0 -6.54 2571.28 6864.55)" xlink:href="#a"/>
      <linearGradient id="k" x1="-330.25" y1="999.09" x2="-330.25" y2="978.98" gradientTransform="matrix(6.42 0 0 -6.55 2566.41 6880.78)" xlink:href="#a"/>
      <linearGradient id="l" x1="-271.63" y1="992.86" x2="-271.63" y2="972.75" gradientTransform="matrix(6.01 0 0 -9.12 2397.31 9595.4)" xlink:href="#a"/>
      <linearGradient id="m" x1="-354.91" y1="1009.1" x2="-354.91" y2="988.98" gradientTransform="matrix(7.16 0 0 -7.2 2890.52 7566.12)" xlink:href="#a"/>
      <linearGradient id="n" x1="-309.12" y1="1009" x2="-309.12" y2="988.89" gradientTransform="matrix(7.05 0 0 -7.21 2859.23 7568.67)" xlink:href="#a"/>
      <linearGradient id="o" x1="-356.33" y1="887.21" x2="-356.33" y2="867.09" gradientTransform="matrix(8.04 0 0 -4.5 3285.43 4741.94)" xlink:href="#a"/>
      <linearGradient id="p" x1="-337.11" y1="885.23" x2="-337.11" y2="865.12" gradientTransform="matrix(8.18 0 0 -4.45 3359.51 4692.5)" xlink:href="#a"/>
      <linearGradient id="q" x1="-308.97" y1="1015.28" x2="-308.97" y2="995.17" gradientTransform="matrix(3.84 0 0 -9.02 1402.55 9481.32)" xlink:href="#a"/>
      <linearGradient id="r" x1="-315.33" y1="1013.52" x2="-315.33" y2="993.41" gradientTransform="matrix(6.72 0 0 -5.07 2705.52 5316.91)" xlink:href="#a"/>
      <linearGradient id="s" x1="-334.47" y1="1011.4" x2="-334.47" y2="991.29" gradientTransform="matrix(5.48 0 0 -6.45 2138.76 6773.71)" xlink:href="#a"/>
      <linearGradient id="t" x1="-259.28" y1="1011.17" x2="-259.28" y2="991.06" gradientTransform="matrix(5.39 0 0 -6.46 2119.62 6778.81)" xlink:href="#a"/>
      <linearGradient id="u" x1="-150.76" y1="1014.9" x2="-150.76" y2="994.78" gradientTransform="matrix(3.7 0 0 -9.01 1367.39 9465.76)" xlink:href="#a"/>
      <linearGradient id="v" x1="-363.6" y1="957.01" x2="-363.6" y2="936.9" gradientTransform="matrix(7.13 0 0 -7 2874.35 7373.38)" xlink:href="#a"/>
      <linearGradient id="w" x1="-302.66" y1="956.35" x2="-302.66" y2="936.24" gradientTransform="matrix(7.14 0 0 -6.97 2902.98 7342.23)" xlink:href="#a"/>
      <linearGradient id="x" x1="-209.05" y1="999.02" x2="-209.05" y2="978.91" gradientTransform="matrix(3.57 0 0 -4.69 1296.51 4917.07)" xlink:href="#a"/>
      <linearGradient id="y" x1="-224.38" y1="998.94" x2="-224.38" y2="978.82" gradientTransform="matrix(3.5 0 0 -4.69 1264.78 4910.52)" xlink:href="#a"/>
      <linearGradient id="z" x1="-318.61" y1="993.4" x2="-318.61" y2="973.29" gradientTransform="matrix(5.85 0 0 -4.19 2311.42 4388.22)" xlink:href="#a"/>
      <linearGradient id="A" x1="-296.73" y1="993.22" x2="-296.73" y2="973.11" gradientTransform="matrix(5.85 0 0 -4.18 2317.26 4382.76)" xlink:href="#a"/>
      <linearGradient id="B" x1="-141.3" y1="1006.78" x2="-141.3" y2="986.66" gradientTransform="matrix(1.62 0 0 -9.8 409.14 10303.28)" xlink:href="#a"/>
      <linearGradient id="C" x1="-349.44" y1="1006.3" x2="-349.44" y2="986.19" gradientTransform="matrix(6.46 0 0 -4.81 2576.61 5034.75)" xlink:href="#a"/>
      <linearGradient id="D" x1="-329.24" y1="961.63" x2="-329.24" y2="941.52" gradientTransform="matrix(6.3 0 0 -2.68 2510.32 2803.21)" xlink:href="#a"/>
      <linearGradient id="E" x1="-292.95" y1="1006.87" x2="-292.95" y2="986.75" gradientTransform="matrix(6.48 0 0 -4.88 2603.88 5110.6)" xlink:href="#a"/>
      <linearGradient id="F" x1="284.89" y1="1001.8" x2="284.89" y2="981.69" gradientTransform="matrix(1.54 0 0 -9.14 405.52 9609.09)" xlink:href="#a"/>
      <linearGradient id="G" x1="-329.11" y1="926.06" x2="-329.11" y2="905.95" gradientTransform="matrix(6.31 0 0 -1.75 2515.14 1821.76)" xlink:href="#a"/>
      <linearGradient id="H" x1="-291.12" y1="959.35" x2="-291.12" y2="939.23" gradientTransform="matrix(4.9 0 0 -2.14 1886.19 2222.58)" xlink:href="#a"/>
      <linearGradient id="I" x1="-211.2" y1="965.09" x2="-211.2" y2="944.97" gradientTransform="matrix(3.45 0 0 -2.23 1244.15 2323.33)" xlink:href="#a"/>
      <linearGradient id="J" x1="-328.99" y1="556.98" x2="-328.99" y2="536.86" gradientTransform="matrix(6.31 0 0 -1.65 2517.78 1749.01)" xlink:href="#a"/>
      <linearGradient id="K" x1="-309.13" y1="534.29" x2="-309.13" y2="514.17" gradientTransform="matrix(6.37 0 0 -1.58 2548.05 1675.36)" xlink:href="#a"/>
      <linearGradient id="L" x1="-290.71" y1="998.04" x2="-290.71" y2="977.93" gradientTransform="matrix(3.44 0 0 -5.39 1222.51 5657.68)" xlink:href="#a"/>
      <linearGradient id="M" x1="-282.37" y1="947.27" x2="-282.37" y2="927.15" gradientTransform="matrix(5.57 0 0 -1.86 2194.25 1933.51)" xlink:href="#a"/>
      <linearGradient id="N" x1="-318.75" y1="941.05" x2="-318.75" y2="920.93" gradientTransform="matrix(5.56 0 0 -1.75 2180.48 1815.84)" xlink:href="#a"/>
      <linearGradient id="O" x1="-61.17" y1="982.64" x2="-61.17" y2="962.52" gradientTransform="matrix(2.81 0 0 -4.29 970.26 4492.28)" xlink:href="#a"/>
      <linearGradient id="P" x1="-230.23" y1="557.04" x2="-230.23" y2="536.93" gradientTransform="matrix(3.02 0 0 -1.61 1044.31 1695.93)" xlink:href="#a"/>
      <linearGradient id="Q" x1="-116.21" y1="845.32" x2="-116.21" y2="825.21" gradientTransform="matrix(1.56 0 0 -3.09 385.67 3252.81)" xlink:href="#a"/>
      <linearGradient id="R" x1="-106.58" y1="527.2" x2="-106.58" y2="507.09" gradientTransform="matrix(2.84 0 0 -1.52 976.59 1602.48)" xlink:href="#a"/>
      <linearGradient id="S" x1="-264.99" y1="140.31" x2="-264.99" y2="120.2" gradientTransform="matrix(4.48 0 0 -.21 1700.46 194.65)" xlink:href="#a"/>
      <linearGradient id="T" x1="15113.9" y1="-19569.8" x2="15113.9" y2="-19589.92" gradientTransform="matrix(.03 0 0 -.03 -297.02 35.83)" xlink:href="#a"/>
      <linearGradient id="U" x1="130376.69" y1="822.66" x2="130376.69" y2="822.66" gradientTransform="matrix(0 0 0 -1 -303.64 1028.4)" xlink:href="#a"/>
      <linearGradient id="V" x1="18822.77" y1="-9895.67" x2="18822.77" y2="-9915.78" gradientTransform="matrix(.03 0 0 -.02 -290.67 -2.51)" xlink:href="#a"/>
      <linearGradient id="W" x1="17293.29" y1="-8395.75" x2="17293.29" y2="-8415.87" gradientTransform="matrix(.04 0 0 -.02 -289.26 .91)" xlink:href="#a"/>
      <linearGradient id="X" x1="17811.65" y1="-8428.94" x2="17811.65" y2="-8449.06" gradientTransform="matrix(.04 0 0 -.02 -289.67 .8)" xlink:href="#a"/>
      <linearGradient id="Y" x1="57985.18" y1="-12726.87" x2="57985.18" y2="-12746.99" gradientTransform="matrix(.02 0 0 -.03 -273.57 13.02)" xlink:href="#a"/>
      <linearGradient id="Z" x1="45785.67" y1="-9645.72" x2="45785.67" y2="-9665.83" gradientTransform="matrix(.02 0 0 -.04 -271.36 21.41)" xlink:href="#a"/>
      <linearGradient id="aa" x1="28187.69" y1="-8101.31" x2="28187.69" y2="-8121.42" gradientTransform="matrix(.04 0 0 -.04 -264.79 27.69)" xlink:href="#a"/>
      <linearGradient id="ab" x1="25136.92" y1="-7289.91" x2="25136.92" y2="-7310.02" gradientTransform="matrix(.04 0 0 -.05 -262.75 31.86)" xlink:href="#a"/>
      <linearGradient id="ac" x1="24387.59" y1="-7460.81" x2="24387.59" y2="-7480.92" gradientTransform="matrix(.04 0 0 -.05 -262.18 30.78)" xlink:href="#a"/>
      <linearGradient id="ad" x1="22521.45" y1="-21074.17" x2="22521.45" y2="-21094.29" gradientTransform="matrix(.04 0 0 -.04 -272.91 45.89)" xlink:href="#a"/>
      <linearGradient id="ae" x1="37014.96" y1="-50201.79" x2="37014.96" y2="-50221.9" gradientTransform="matrix(.02 0 0 -.02 -279.98 23.58)" xlink:href="#a"/>
      <linearGradient id="af" x1="32222.4" y1="-38480.14" x2="32222.4" y2="-38500.25" gradientTransform="matrix(.02 0 0 -.02 -305.62 16.4)" xlink:href="#a"/>
      <linearGradient id="ag" x1="18841.87" y1="-10425.77" x2="18841.87" y2="-10445.88" gradientTransform="matrix(.03 0 0 -.02 -290.64 -3.58)" xlink:href="#a"/>
      <clipPath id="b">
         <circle cx="512" cy="512" r="352" style="fill:none"/>
      </clipPath>
   </defs>
   <circle cx="512" cy="512" r="512" style="fill:#ba1824"/>
   <circle cx="512" cy="512" r="352" style="fill:#fff"/>
   <g style="clip-path:url(#b)">
      <path d="M835.8 638.78c-4.47 7.74-8.87 15.51-13.9 22.93a56.718 56.718 0 0 0-4.55 11.3c-3.27 8.23-7.1 16.24-11.45 23.96-.24.48-.41 1-.5 1.53 6.43-9.71 12.18-19.86 17.2-30.37 2.59-5.51 5.11-11.06 7.68-16.59.18-.4.28-.86.86-.82l4.65-11.93Z" style="fill:url(#a)"/>
      <path d="M370.5 475.71c-7.78 24.44-14.5 49.14-19.85 74.24a857.555 857.555 0 0 0-7.54 39.97c-.36 2.19.2 2.92 2.15 3.5a556.179 556.179 0 0 0 55.11 14.08c33.3 6.61 67.11 10.35 101.05 11.18 2.19 0 2.98-.24 3.02-2.7.63-39.93 1.35-79.87 2.15-119.8 0-2.41-.58-2.94-2.86-2.96A479.69 479.69 0 0 1 410.48 482c-11.95-2.66-23.78-5.81-35.42-9.57-3.68-1.19-3.08-1.41-4.26 2.17-.12.42-.2.76-.3 1.11Z" style="fill:url(#c)"/>
      <path d="M657.65 472.64c-.72.18-1.33.28-2.01.46a456.092 456.092 0 0 1-130.74 20.36c-1.83 0-2.37.38-2.33 2.29.59 40.3.89 80.59.89 120.89 0 2.01.54 2.33 2.33 2.29 52.38-.54 104.42-8.51 154.56-23.67 4.95-1.55 4.97-1.51 4.2-6.68a755.625 755.625 0 0 0-26.29-113.69c.02-.74-.34-1.47-.6-2.25Z" style="fill:url(#d)"/>
      <path d="M339.72 729.36a547.771 547.771 0 0 0 112.82 23.21c15.96 1.64 31.95 2.65 47.97 3.04 1.87 0 2.37-.34 2.39-2.25.29-35.41.65-70.82 1.07-106.22 0-2.27-1.09-2.01-2.57-2.13-30.03-.67-59.96-3.59-89.55-8.75a507.29 507.29 0 0 1-70.2-17.3c-1.79-.58-2.45-.44-2.68 1.57a492.055 492.055 0 0 0-1.03 106.04q.26 2.33 1.77 2.8Z" style="fill:url(#e)"/>
      <path d="m688.06 619.67-1.73.5a527.863 527.863 0 0 1-102.7 21.38c-18.95 2.01-37.94 3.32-57 3.52-2.33 0-3.04.56-3.04 3 0 35.15-.34 70.31-1.01 105.48 0 1.77.36 2.23 2.13 2.19 53.9-.54 107.45-8.78 159.02-24.46a5.278 5.278 0 0 0 4.34-5.21c3.73-31.97 4.2-64.23 1.39-96.29-.2-2.84-.46-5.65-.74-8.47-.08-.54.16-1.25-.66-1.65Z" style="fill:url(#f)"/>
      <path d="M221.83 482.91c-3.97 9.2-7.37 18.64-10.2 28.26-.57 1.41-.2 3.02.95 4.02a236.599 236.599 0 0 0 51.29 41.46 353.955 353.955 0 0 0 59.72 29.07c2.25.84 2.51.18 2.86-1.83a674.39 674.39 0 0 1 18.42-77.84c3.72-12.41 7.56-24.76 12.07-36.91.76-2.01.32-2.86-1.73-3.64a269.107 269.107 0 0 1-71.02-39.08 161.093 161.093 0 0 1-20.66-19.11c-1.51-1.69-2.01-1.33-3.08.32a402.798 402.798 0 0 0-32.38 59.18c-2.25 5.29-4.16 10.74-6.24 16.11Z" style="fill:url(#g)"/>
      <path d="M702.72 587.67a296.065 296.065 0 0 0 100.81-59.82c3.4-3.22 6.5-6.76 9.84-10.06a4.039 4.039 0 0 0 1.07-4.47 374.332 374.332 0 0 0-37.96-88.5c-3.36-5.73-6.9-11.34-10.52-17.3-3.7 3.92-7.12 7.66-10.84 11.12a222.627 222.627 0 0 1-55.54 37.05c-8.39 4.02-16.96 7.69-25.69 11-1.33.48-2.01.86-1.39 2.55a674.932 674.932 0 0 1 29.93 117.67c.07.26.16.51.28.74Z" style="fill:url(#h)"/>
      <path d="M321.04 722.76a365.742 365.742 0 0 1-2.7-33.21c-.79-24.71.38-49.44 3.5-73.96a3.664 3.664 0 0 0-2.87-4.75 329.816 329.816 0 0 1-81.6-43.69 217.04 217.04 0 0 1-31.14-28.06c-.28-.32-.6-.62-1.31-1.31-.89 5.13-1.81 9.88-2.55 14.64a269.9 269.9 0 0 0 1.05 93.33c.3 1.64 1.06 3.16 2.19 4.38a240.836 240.836 0 0 0 53.24 42.82 370.833 370.833 0 0 0 60.75 29.37c.4.14.74.22 1.45.42Z" style="fill:url(#i)"/>
      <path d="M599.4 335.52c-.78-.34-1.33 0-1.91.22a267.087 267.087 0 0 1-75.41 11.73c-2.01 0-2.39.54-2.33 2.51 1.13 38.15 1.97 76.31 2.53 114.49 0 1.75.34 2.41 2.33 2.37 41.55-.46 82.82-6.89 122.54-19.09 1.65-.52 2.01-1.07 1.39-2.7a752.254 752.254 0 0 0-48.09-107.83c-.36-.62-.74-1.21-1.05-1.71Z" style="fill:url(#j)"/>
      <path d="M388.66 424.64c-2.43 6.3-4.79 12.61-7.36 18.85-.89 2.13-.32 2.88 1.73 3.54 19.88 6.25 40.21 11 60.81 14.2 20.14 3.11 40.46 4.96 60.83 5.55 2.19 0 2.55-.64 2.57-2.59.89-37.98 1.83-75.95 2.84-113.93 0-2.01-.3-2.84-2.57-2.88a269.57 269.57 0 0 1-74.78-12.17c-1.81-.56-2.41 0-3.22 1.43a691.615 691.615 0 0 0-26.53 53.62c-5.07 11.32-9.96 22.75-14.3 34.38Z" style="fill:url(#k)"/>
      <path d="M820.47 540.48a256.431 256.431 0 0 1-84.1 60.08c-9.13 4.34-18.42 8.37-27.94 11.83-2.01.7-2.41 1.57-2.19 3.6 3.55 31.17 3.74 62.64.54 93.85-.5 4.55-1.13 9.09-1.77 14.08 5.39-2.17 10.44-4.02 15.41-6.18a305.98 305.98 0 0 0 74.68-43.55c8.04-6.54 15.57-13.68 22.55-21.34 1.28-1.34 2.16-3.01 2.55-4.83a272.2 272.2 0 0 0 .68-106.93c-.02-.14-.18-.28-.42-.62Z" style="fill:url(#l)"/>
      <path d="M357.02 437.48c3.44 1.33 6.03 2.25 8.55 3.34 1.39.62 2.01.28 2.47-1.11a712.15 712.15 0 0 1 14.72-34.19 691.822 691.822 0 0 1 34.19-64.97c1.41-2.35 2.7-4.81 4.26-7.04 1.19-1.65.62-2.15-.97-2.76a168.76 168.76 0 0 1-26.59-12.77c-9.69-5.56-18.5-12.53-26.15-20.68-1.43-1.57-2.19-1.29-3.58-.2a470.175 470.175 0 0 0-68.49 64.63c-5.79 6.7-11.36 13.58-16.8 20.58-.94.8-1.05 2.21-.25 3.15.13.15.27.28.44.39a187.196 187.196 0 0 0 42.06 33.49c11.57 6.94 23.65 13 36.13 18.14Z" style="fill:url(#m)"/>
      <path d="M663.54 297.14c-.74-.42-1.01.38-1.37.78a135.195 135.195 0 0 1-51.91 33.27c-1.91.74-2.35 1.19-1.15 3.16a680.16 680.16 0 0 1 52.76 105.86c.46 1.21.6 2.25 2.47 1.53 25.74-9.29 49.71-22.9 70.88-40.23 4.9-4.21 9.56-8.7 13.96-13.44 1.47-1.57 1.41-2.55.16-4.2a457.55 457.55 0 0 0-69.62-73.58c-4.85-4.02-9.88-8.05-14.82-12.07-.42-.4-.84-.7-1.37-1.09Z" style="fill:url(#n)"/>
      <path d="M341.49 748.62c.1 2.33.48 4.64 1.15 6.88a171.29 171.29 0 0 0 21.82 56.32c2.14 3.63 5.6 6.29 9.65 7.44 31.01 9.32 62.9 15.38 95.16 18.1 10.5.95 21.04 1.45 31.56 1.79 1.91 0 2.29-.38 2.27-2.25a6942 6942 0 0 1-.32-59.5c0-2.19-.54-2.76-2.76-2.82-34.57-.75-69-4.58-102.88-11.45a469.086 469.086 0 0 1-50.97-13.22c-1.49-.44-3-.82-4.69-1.31Z" style="fill:url(#o)"/>
      <path d="m683.92 749.69-8.71 2.68a550.165 550.165 0 0 1-150.17 22.37c-2.21 0-3.02.46-3.08 2.84-.42 19.93-1.07 39.83-2.57 59.7-.12 1.65.28 2.01 2.01 2.01 44.12-.46 87.94-7.23 130.14-20.11 1.94-.59 3.62-1.8 4.79-3.46a146.98 146.98 0 0 0 21.48-43.1c2.33-7.36 4.32-14.8 6.11-22.91Z" style="fill:url(#p)"/>
      <path d="M235.15 321.46c-4.65 4.69-8.71 9.45-12.67 14.28a260.782 260.782 0 0 0-39.54 66.38 84.904 84.904 0 0 0-4.47 45.74A119.62 119.62 0 0 0 202 502.17c.27.28.57.54.89.76 1.49-4.51 2.88-8.83 4.36-13.11a369.593 369.593 0 0 1 46.14-90.15 3.58 3.58 0 0 0 0-4.99A94.333 94.333 0 0 1 233.98 332c.18-3.36.8-6.84 1.17-10.54Z" style="fill:url(#q)"/>
      <path d="m533.64 213.6.22.68 6.24-2.35c1.03-.32 2.01-.58 3.06-.93a227.923 227.923 0 0 1 76.76-12.75c1.05-.13 2.11.09 3.04.6a74.05 74.05 0 0 1 28.4 32.18c.38.91 1.07 1.81.64 2.94a373.31 373.31 0 0 0-116.2-13.24c.59.69 1.52.98 2.39.74 8.25 0 16.47.22 24.7.72a376.47 376.47 0 0 1 88.82 15.87c1.48.31 2.55 1.6 2.57 3.12a47.072 47.072 0 0 1-8.05 33.37c-1.29 2.01-2.25 2.01-4.14.82a418.43 418.43 0 0 0-66-33.69 395.886 395.886 0 0 0-46.1-15.57c-1.07-.28-2.01-.38-1.31-2.01.99-1.86.39-4.16-1.39-5.29-2.01-1.55-.7-2.33.84-2.59 1.74-.36 3.4-1.04 4.89-2.01-1.04-.22-2.12.05-2.94.72a8.041 8.041 0 0 1-9.09.48c-1.59-.68-1.79-1.07-.82-2.51 4.01-6.16 8.34-12.1 12.97-17.8a89.081 89.081 0 0 1 21.46-19.67 7.78 7.78 0 0 1 6.26-1.07c8.5 1.8 16.91 4.03 25.18 6.7 10.86 3.55 21.3 8.27 31.14 14.08-.76.68-1.51.42-2.19.44-11.7.15-23.37 1.39-34.84 3.7-13.77 2.63-27.24 6.6-40.23 11.87-2.18.57-4.3 1.39-6.3 2.43Zm-.44 7.51h-.95l.14.36c.32-.03.63-.08.95-.14.4 0 .95.68 1.13-.26.22.5.66.42 1.07.32v-.42a.766.766 0 0 0-1.07.16s-.01.02-.02.02c-.38-.08-.8-.44-1.27-.04h.02Zm-1.91.38c.18-.26 0-.4-.28-.42-.15.02-.3.05-.44.1l.28.36c.14 0 .38.04.42-.04h.02Z" style="fill:url(#r)"/>
      <path d="M349.76 245.89c-5.21 2.17-10.46 4.22-15.61 6.52a330.193 330.193 0 0 0-75.39 46.5c-4.78 3.6-7.67 9.18-7.84 15.17a91.208 91.208 0 0 0 18.77 60.7c1.09 1.53 1.55.95 2.43-.12 7.88-9.8 16.19-19.24 24.9-28.3a447.065 447.065 0 0 1 62.35-53.99c1.81-1.29 2.17-2.01.76-4.02a53.86 53.86 0 0 1-10.16-41.62c.04-.18-.1-.34-.22-.84Z" style="fill:url(#s)"/>
      <path d="M678.06 247.66c.67 3.89.99 7.82.95 11.77a55.968 55.968 0 0 1-10.46 30.17c-1.17 1.69-1.31 2.49.58 3.84a437.69 437.69 0 0 1 85.99 82.21q2.01 2.57 3.84 0a88.736 88.736 0 0 0 17.1-55.66c-.62-12.43-.68-12.43-10.24-20.56a307.944 307.944 0 0 0-77.78-47.99c-3.24-1.29-6.56-2.45-9.98-3.78Z" style="fill:url(#t)"/>
      <path d="M791.07 324.49c1.73 8.5 2.17 17.21 1.31 25.85a98.075 98.075 0 0 1-18.67 47.21 2.57 2.57 0 0 0-.1 3.48 361.196 361.196 0 0 1 49.12 103.73c.14.31.31.62.5.91 5.66-7.61 10.49-15.81 14.4-24.46a104.138 104.138 0 0 0 7.91-63.08c-1.62-7-3.97-13.82-7-20.34a250.072 250.072 0 0 0-45.9-72.17c-.38-.46-.62-1.17-1.57-1.13Z" style="fill:url(#u)"/>
      <path d="M210.19 670.78c2 7.26 4.62 14.33 7.84 21.14 5.76 13.18 13 25.67 21.58 37.21a248.583 248.583 0 0 0 32.08 35.3 221.407 221.407 0 0 0 46.12 31.56 314.327 314.327 0 0 0 33.65 15.29c.66.32 1.4.44 2.13.34-1.07-1.47-2.15-2.94-3.2-4.41a156.156 156.156 0 0 1-24.28-57.47 12.28 12.28 0 0 0-8.75-10.06 306.142 306.142 0 0 1-88.5-51.35A201.72 201.72 0 0 1 212 672.24c-.5-.54-.8-1.45-1.81-1.35l-.02-.12Z" style="fill:url(#v)"/>
      <path d="M812.93 672.63a206.177 206.177 0 0 1-19.49 19.05 279.13 279.13 0 0 1-60.68 38.52c-9.7 4.65-19.57 8.85-29.63 12.59-1.36.4-2.36 1.56-2.57 2.96-2.09 9.07-4.85 17.98-8.25 26.65a139.593 139.593 0 0 1-22.25 39.12c-.29.45-.56.91-.8 1.39 36.26-12.6 69-33.68 95.48-61.47a222.85 222.85 0 0 0 48.19-78.81Z" style="fill:url(#w)"/>
      <path d="M586.87 313.53c-4.47-6.94-8.75-13.78-13.22-20.46a415.266 415.266 0 0 0-49.24-61.21 5.163 5.163 0 0 0-5.69-1.75c-3.68.95-3.72.7-3.52 4.45 1.61 28.98 2.72 57.99 3.7 86.99 0 1.37-.34 2.74 2.01 2.68a232.21 232.21 0 0 0 64.1-10.06c.52-.14 1.01-.34 1.85-.64Z" style="fill:url(#x)"/>
      <path d="M445.34 313.91c20.57 6.26 41.89 9.71 63.38 10.26 1.59 0 2.01-.36 2.15-2.01.97-29.82 1.99-59.64 3.08-89.45 0-1.45-.3-2.01-1.83-2.41a8.193 8.193 0 0 0-9.27 3.28 453.758 453.758 0 0 0-54.55 71.16c-1.29 2.01-2.45 4.02-3.84 6.03s-1.45 3.02.89 3.14Z" style="fill:url(#y)"/>
      <path d="M493.01 227.91c0 1.35-1.19 1.03-1.87 1.25a428.08 428.08 0 0 0-101.34 49.48c-1.75 1.15-1.81 1.75-.36 3.22a118.295 118.295 0 0 0 39 25.75c1.79.76 3.62 1.45 5.35 2.33s2.41.4 3.42-1.07c7.46-11 15.36-21.67 23.71-32.02a388.114 388.114 0 0 1 43.47-46.26c.54-.46 1.03-.97 1.71-1.63-2.53-.6-3.84-3.64-6.86-2.66a11.4 11.4 0 0 1-5.19 1.45c-.36.58-.76.89-1.25.1l.2.06Z" style="fill:url(#z)"/>
      <path d="M522.9 229.23c6.68 5.85 13.01 11.77 19.09 17.92a460.136 460.136 0 0 1 50.75 62.03c.68 1.01 1.09 2.01 2.84 1.37 15.91-5.7 30.45-14.68 42.68-26.35 3.14-3.18 3.14-3.2-.52-5.61a440.374 440.374 0 0 0-68.61-37.25c-12.39-5.35-25-10.06-37.83-14.08-2.31-.74-4.32-1.31-6.2.78-.67.5-1.41.9-2.19 1.19Z" style="fill:url(#A)"/>
      <path d="M195.36 636.93a261.066 261.066 0 0 1-2.47-87.24c.91-6.68 2.01-13.32 3.46-19.89.38-1.45.04-3-.93-4.14a113.752 113.752 0 0 1-24.14-82.97c.04-.95.16-1.89.36-2.82-1.29 5.67-2.19 11.42-3.18 17.16-3.41 20.6-4.91 41.48-4.49 62.35a375.99 375.99 0 0 0 5.59 56.32 134.283 134.283 0 0 0 23.84 59.14c.42.56.82 1.17 1.25 1.71.04.14.22.16.7.38Z" style="fill:url(#B)"/>
      <path d="M254.62 296.11c7.1-6.03 13.78-11.32 20.78-16.29a306.2 306.2 0 0 1 73.76-38.46c1.52-.44 2.7-1.62 3.16-3.14a80.241 80.241 0 0 1 29.91-36.75c.94-.45 1.74-1.15 2.31-2.01-4.52.49-9.01 1.24-13.44 2.25a150.843 150.843 0 0 0-45.28 17.3 269.973 269.973 0 0 0-31.5 22.57 128.15 128.15 0 0 0-32.08 36.81 89.535 89.535 0 0 0-7.62 17.72Z" style="fill:url(#C)"/>
      <path d="M499.23 226.52c1.83-1.15.82-2.7.54-4.02s-1.55-.8-2.35-.82c-40.72-1.3-81.38 3.82-120.5 15.17a3.426 3.426 0 0 0-2.96 3.34 48.017 48.017 0 0 0 9.25 34.34c1.09 1.59 2.01.89 2.98.22a431.475 431.475 0 0 1 34.19-18.95 417.703 417.703 0 0 1 70.4-27.38c.72-.2 1.45-.72 2.27-.32.38-.56.76-.84 1.25-.1a5.615 5.615 0 0 1 5.19-1.45l-.26-.02Z" style="fill:url(#D)"/>
      <path d="M641.31 200.13c8.93 5.88 16.93 13.07 23.73 21.32a63.387 63.387 0 0 1 10.72 18.89 3.804 3.804 0 0 0 2.82 2.43 303.66 303.66 0 0 1 72.89 39.18c6.78 4.97 13.28 10.28 20.11 16.27a61.951 61.951 0 0 0-4.77-11.95 127.948 127.948 0 0 0-35-42.28 268.22 268.22 0 0 0-41.68-28.82 147.191 147.191 0 0 0-47.19-15.03c-.55-.05-1.1-.06-1.65-.02Z" style="fill:url(#E)"/>
      <path d="M854.22 455.64c-.64 5.09-.66 10.06-1.21 15.13a119.218 119.218 0 0 1-22.13 56.32 7.854 7.854 0 0 0-1.51 6.56c6.28 32.8 6.28 66.5 0 99.3-.42 2.15-.89 4.28-1.13 6.48 6.39-8.33 11.64-17.48 15.63-27.19a212.834 212.834 0 0 0 12.07-51.67c3.64-26.67 4.22-53.66 1.73-80.46-.7-7.74-2.01-15.45-3.08-23.17-.16-.46-.28-.86-.38-1.29Z" style="fill:url(#F)"/>
      <path d="M375.69 232.89c8.99-2.33 17.58-4.38 26.27-6.03 30.74-5.84 62.09-7.86 93.33-6.03 4.4.24 4.4.22 7.28-3.44-8.43-3.52-17.04-6.6-25.79-9.21-17.98-5.5-36.55-8.87-55.31-10.06-2.92-.18-5.87 0-8.75-.36a18.078 18.078 0 0 0-14.92 5.07 66.461 66.461 0 0 0-22.11 30.07Z" style="fill:url(#G)"/>
      <path d="M509.81 214.01c-1.21-.56-1.55-1.87-2.19-2.88a146.112 146.112 0 0 0-26.83-32.18 18.253 18.253 0 0 0-17.82-4.41 197.92 197.92 0 0 0-48.92 17.58l-2.33 1.33c-.12 0-.18.28-.4.64 5.75.3 11.38.5 17.02 1.11 22.59 2.61 44.67 8.53 65.53 17.56 2.96 1.23 5.85 2.53 8.77 3.82.16 0 .34.24.46.18 2.31-.78 4.93-.84 6.7-2.88l.02.12Z" style="fill:url(#H)"/>
      <path d="M509.79 213.89c2.54.75 5.21.97 7.84.62 1.25 0 1.57-1.91 2.17-3.04 4.07-7.87 8.71-15.43 13.88-22.63 4.38-6.28 9.76-11.8 15.93-16.33a255.192 255.192 0 0 0-69.45-.68c2.37 2.13 4.63 3.92 6.64 6.03 7.95 8.61 14.65 18.29 19.91 28.76 1.07 2.01 2.01 3.9 3.08 5.89.2.44.93.97 0 1.49v-.12Z" style="fill:url(#I)"/>
      <path d="M377.11 827.21a66.642 66.642 0 0 0 26.91 16.43c15.62 4.97 31.55 8.9 47.69 11.77 16.48 2.84 33.15 4.54 49.86 5.09 2.29 0 2.8-.48 2.41-2.72-.4-2.63-.56-5.29-.48-7.95 0-1.83-.58-2.31-2.45-2.35-18.41-.42-36.78-1.94-55.01-4.57-22.55-3.18-44.8-8.22-66.52-15.07-.58-.24-1.21-.24-2.41-.64Z" style="fill:url(#J)"/>
      <path d="M644.15 828.52c-8.05 2.25-15.99 4.57-24.14 6.56a442.319 442.319 0 0 1-98.68 12.47c-2.19 0-3.1.4-3.22 2.8-.14 3.44-.82 6.83-2.01 10.06 3.34 0 6.5 0 9.65-.18 26.15-1.07 52.09-5.12 77.32-12.07a99.25 99.25 0 0 0 32.75-12.99c2.97-1.96 5.76-4.18 8.33-6.64Z" style="fill:url(#K)"/>
      <path d="M257.92 275.23a337.703 337.703 0 0 0-69.13 108.48c2.57-5.09 5.09-10.2 7.74-15.23 10.5-19.83 23.7-38.11 39.22-54.31 1.24-1.25 2.18-2.76 2.74-4.43a113.079 113.079 0 0 1 18.53-33.25c.32-.4.62-.84.91-1.27Z" style="fill:url(#L)"/>
      <path d="M677.74 207.87a332.072 332.072 0 0 0-104.98-37.29c-2.36-.31-4.76-.12-7.04.56 7.66 1.55 14.52 3.08 21.32 4.97a190.12 190.12 0 0 1 46.99 19.51c2.5 1.13 5.2 1.76 7.95 1.87a138.71 138.71 0 0 1 33.35 9.53c.76.38 1.59.56 2.41.84Z" style="fill:url(#M)"/>
      <path d="M351.71 204.49c.86.44 1.55-.18 2.21-.46 11.51-4.43 23.53-7.37 35.78-8.75 1.67-.19 3.28-.72 4.73-1.57a208.733 208.733 0 0 1 65.73-22.87l3.34-.64a18.68 18.68 0 0 0-8.57-.44 339.647 339.647 0 0 0-67.6 18.4 294.422 294.422 0 0 0-33.69 15.09c-.68.38-1.49.56-2.01 1.31l.08-.06Z" style="fill:url(#N)"/>
      <path d="M826.73 366.51c-3.64-8.52-7.83-16.8-12.55-24.78a345.014 345.014 0 0 0-41.35-58.43c-.8-.92-1.66-1.79-2.57-2.59 5.19 7.04 9.74 14.54 13.6 22.39.59 1.09 1.1 2.23 1.53 3.4a37.432 37.432 0 0 0 9.11 14.97 240.087 240.087 0 0 1 31.72 45.46l.52-.4Z" style="fill:url(#O)"/>
      <path d="M378.5 833.73c-5.25-3.4-10.06-7.46-15.01-11.2-3.17-1.8-6.55-3.22-10.06-4.22a293.348 293.348 0 0 1-33.65-16.47c-.61-.46-1.43-.53-2.11-.18a342.045 342.045 0 0 0 60.83 32.08Z" style="fill:url(#P)"/>
      <path d="M219.5 701.26A216.753 216.753 0 0 1 204.98 670a67.886 67.886 0 0 0-9.74-19.29c-2.56-3.75-4.93-7.63-7.1-11.63-.21 1.16 0 2.35.62 3.36a308.065 308.065 0 0 0 20.36 41.96c2.9 4.96 5.81 9.92 8.75 14.86.44.72.66 1.69 1.67 2.01l-.04-.02Z" style="fill:url(#Q)"/>
      <path d="M646.1 833.23a253.15 253.15 0 0 0 33.39-16.09c7.12-4.12 14.4-8.05 21.24-12.59.79-.5 1.5-1.12 2.11-1.83-6.03 3.1-11.83 6.32-17.86 9.21-7.34 3.54-14.78 6.86-22.43 9.72-2.41.87-4.65 2.16-6.6 3.82-3.21 2.66-6.6 5.08-10.16 7.24l.3.52Z" style="fill:url(#R)"/>
      <path d="M559.65 168.47c-29.85-4.13-60.1-4.38-90.01-.74 2.69.92 5.58 1.11 8.37.56 25.33-2.98 50.94-2.63 76.17 1.07 1.87.16 3.75-.14 5.47-.89Z" style="fill:url(#S)"/>
      <path d="M219.58 701.22c-.3.44 0 .56.32.68h.24l-.64-.58.08-.1Z" style="fill:url(#T)"/>
      <path d="M348.93 205.74h-.1.1Z" style="fill:url(#U)"/>
      <path d="m348.91 205.72.66-.42-.68.36.02.06Z" style="fill:url(#V)"/>
      <path d="M350.26 204.92c.38.4.64.42.74-.2l-.74.18v.02Z" style="fill:url(#W)"/>
      <path d="m351.83 204.57-.72.24c.38.42.58.26.7-.2l.02-.04Z" style="fill:url(#X)"/>
      <path d="m827.79 369.37.16.56h.22l-.34-.5-.04-.06Z" style="fill:url(#Y)"/>
      <path d="M827.31 368.79c0 .32.1.58.48.58.2-.34 0-.56-.24-.72l-.24.14Z" style="fill:url(#Z)"/>
      <path d="m826.87 368.14.44.64.28-.16c.12-.24.03-.53-.2-.65-.02-.01-.05-.02-.08-.03l-.44.2Z" style="fill:url(#aa)"/>
      <path d="M827.31 367.92c.14-.25.05-.57-.2-.71 0 0-.01 0-.02-.01l-.58.22.42.7.38-.2Z" style="fill:url(#ab)"/>
      <path d="m826.21 366.86.28.56.58-.22c.1-.27-.04-.57-.31-.67-.01 0-.02 0-.03-.01l-.52.34Z" style="fill:url(#ac)"/>
      <path d="M645.36 833.45c.25.14.57.05.71-.2 0 0 0-.01.01-.02l-.28-.46c-.26.18-.74.22-.44.74v-.06Z" style="fill:url(#ad)"/>
      <path d="M645.4 833.51c-.12-.26-.28-.32-.48-.14v.22l.5-.14-.02.06Z" style="fill:url(#ae)"/>
      <path d="m210.12 670.8.18-.3h-.32l.2.34-.06-.04Z" style="fill:url(#af)"/>
      <path d="M349.58 205.32c.42.18.68.18.68-.38l-.66.4-.02-.02Z" style="fill:url(#ag)"/>
   </g>
   <circle cx="512" cy="512" r="352" style="stroke:#fff;stroke-miterlimit:10;stroke-width:.25px;fill:none"/>
</svg>
