<?xml version="1.0" encoding="UTF-8"?>
<svg id="Layer_1" xmlns="http://www.w3.org/2000/svg" version="1.1" xmlns:xlink="http://www.w3.org/1999/xlink" viewBox="0 0 1024 1024">
  <!-- Generator: Adobe Illustrator 30.2.1, SVG Export Plug-In . SVG Version: 2.1.1 Build 1)  -->
  <defs>
    <style>
      .st0 {
        fill: url(#linear-gradient2);
      }

      .st1 {
        fill: url(#linear-gradient36);
      }

      .st2 {
        fill: url(#linear-gradient39);
      }

      .st3 {
        fill: url(#linear-gradient34);
      }

      .st4 {
        fill: url(#linear-gradient33);
      }

      .st5 {
        fill: url(#linear-gradient10);
      }

      .st6 {
        fill: url(#linear-gradient32);
      }

      .st7 {
        fill: url(#linear-gradient21);
      }

      .st8 {
        fill: url(#linear-gradient37);
      }

      .st9 {
        fill: url(#linear-gradient56);
      }

      .st10 {
        fill: url(#linear-gradient27);
      }

      .st11 {
        fill: url(#linear-gradient53);
      }

      .st12 {
        fill: url(#linear-gradient57);
      }

      .st13 {
        fill: url(#linear-gradient35);
      }

      .st14 {
        fill: #fff;
      }

      .st15 {
        fill: url(#linear-gradient26);
      }

      .st16 {
        fill: url(#linear-gradient1);
      }

      .st17 {
        fill: url(#linear-gradient9);
      }

      .st18 {
        fill: url(#linear-gradient18);
      }

      .st19 {
        fill: url(#linear-gradient23);
      }

      .st20 {
        fill: url(#linear-gradient43);
      }

      .st21 {
        fill: url(#linear-gradient8);
      }

      .st22 {
        fill: url(#linear-gradient11);
      }

      .st23, .st24 {
        fill: none;
      }

      .st25 {
        fill: url(#linear-gradient16);
      }

      .st26 {
        fill: url(#linear-gradient24);
      }

      .st27 {
        fill: url(#linear-gradient30);
      }

      .st28 {
        fill: url(#linear-gradient46);
      }

      .st29 {
        fill: url(#linear-gradient22);
      }

      .st30 {
        fill: url(#linear-gradient29);
      }

      .st31 {
        fill: url(#linear-gradient49);
      }

      .st32 {
        fill: url(#linear-gradient19);
      }

      .st33 {
        fill: url(#linear-gradient12);
      }

      .st34 {
        fill: url(#linear-gradient42);
      }

      .st35 {
        fill: url(#linear-gradient28);
      }

      .st36 {
        fill: url(#linear-gradient40);
      }

      .st37 {
        fill: url(#linear-gradient7);
      }

      .st38 {
        fill: url(#linear-gradient20);
      }

      .st39 {
        fill: url(#linear-gradient4);
      }

      .st40 {
        fill: url(#linear-gradient31);
      }

      .st41 {
        fill: url(#linear-gradient14);
      }

      .st42 {
        fill: url(#linear-gradient5);
      }

      .st43 {
        fill: url(#linear-gradient3);
      }

      .st44 {
        fill: url(#linear-gradient55);
      }

      .st45 {
        fill: url(#linear-gradient38);
      }

      .st46 {
        fill: url(#linear-gradient25);
      }

      .st47 {
        fill: #ba1824;
      }

      .st48 {
        fill: url(#linear-gradient52);
      }

      .st49 {
        fill: url(#linear-gradient15);
      }

      .st50 {
        fill: url(#linear-gradient17);
      }

      .st51 {
        fill: url(#linear-gradient54);
      }

      .st52 {
        fill: url(#linear-gradient50);
      }

      .st53 {
        fill: url(#linear-gradient51);
      }

      .st54 {
        fill: url(#linear-gradient6);
      }

      .st55 {
        fill: url(#linear-gradient48);
      }

      .st56 {
        fill: url(#linear-gradient13);
      }

      .st57 {
        fill: url(#linear-gradient45);
      }

      .st58 {
        fill: url(#linear-gradient47);
      }

      .st59 {
        fill: url(#linear-gradient);
      }

      .st60 {
        fill: url(#linear-gradient44);
      }

      .st61 {
        clip-path: url(#clippath);
      }

      .st62 {
        fill: url(#linear-gradient41);
      }

      .st24 {
        stroke: #fff;
        stroke-miterlimit: 10;
        stroke-width: .25px;
      }
    </style>
    <clipPath id="clippath">
      <circle class="st23" cx="512" cy="512" r="352"/>
    </clipPath>
    <linearGradient id="linear-gradient" x1="283.5" y1="836.82" x2="283.5" y2="816.7" gradientTransform="translate(392.24 3123.28) scale(1.51 -2.97)" gradientUnits="userSpaceOnUse">
      <stop offset="0" stop-color="#ba1824"/>
      <stop offset="1" stop-color="#e52c3a"/>
    </linearGradient>
    <linearGradient id="linear-gradient1" x1="-357.13" y1="986.92" x2="-357.13" y2="966.8" gradientTransform="translate(3329.34 7685.8) scale(8.13 -7.31)" xlink:href="#linear-gradient"/>
    <linearGradient id="linear-gradient2" x1="-335.37" y1="986.46" x2="-335.37" y2="966.34" gradientTransform="translate(3310.65 7647.3) scale(8.07 -7.27)" xlink:href="#linear-gradient"/>
    <linearGradient id="linear-gradient3" x1="-360.25" y1="961.54" x2="-360.25" y2="941.43" gradientTransform="translate(3435.85 7165.71) scale(8.37 -6.81)" xlink:href="#linear-gradient"/>
    <linearGradient id="linear-gradient4" x1="-339.19" y1="960.81" x2="-339.19" y2="940.69" gradientTransform="translate(3451.69 7119.64) scale(8.39 -6.77)" xlink:href="#linear-gradient"/>
    <linearGradient id="linear-gradient5" x1="-364.7" y1="1005.94" x2="-364.7" y2="985.83" gradientTransform="translate(2930.12 9402.04) scale(7.25 -8.94)" xlink:href="#linear-gradient"/>
    <linearGradient id="linear-gradient6" x1="-301.08" y1="1005.87" x2="-301.08" y2="985.76" gradientTransform="translate(2875.56 9416.1) scale(7.08 -8.96)" xlink:href="#linear-gradient"/>
    <linearGradient id="linear-gradient7" x1="-353.34" y1="993.64" x2="-353.34" y2="973.53" gradientTransform="translate(2424.97 9675.3) scale(6.13 -9.2)" xlink:href="#linear-gradient"/>
    <linearGradient id="linear-gradient8" x1="-309.62" y1="998.91" x2="-309.62" y2="978.8" gradientTransform="translate(2571.28 6864.55) scale(6.42 -6.54)" xlink:href="#linear-gradient"/>
    <linearGradient id="linear-gradient9" x1="-330.25" y1="999.09" x2="-330.25" y2="978.98" gradientTransform="translate(2566.41 6880.78) scale(6.42 -6.55)" xlink:href="#linear-gradient"/>
    <linearGradient id="linear-gradient10" x1="-271.63" y1="992.86" x2="-271.63" y2="972.75" gradientTransform="translate(2397.31 9595.4) scale(6.01 -9.12)" xlink:href="#linear-gradient"/>
    <linearGradient id="linear-gradient11" x1="-354.91" y1="1009.1" x2="-354.91" y2="988.98" gradientTransform="translate(2890.52 7566.12) scale(7.16 -7.2)" xlink:href="#linear-gradient"/>
    <linearGradient id="linear-gradient12" x1="-309.12" y1="1009" x2="-309.12" y2="988.89" gradientTransform="translate(2859.23 7568.67) scale(7.05 -7.21)" xlink:href="#linear-gradient"/>
    <linearGradient id="linear-gradient13" x1="-356.33" y1="887.21" x2="-356.33" y2="867.09" gradientTransform="translate(3285.43 4741.94) scale(8.04 -4.5)" xlink:href="#linear-gradient"/>
    <linearGradient id="linear-gradient14" x1="-337.11" y1="885.23" x2="-337.11" y2="865.12" gradientTransform="translate(3359.51 4692.5) scale(8.18 -4.45)" xlink:href="#linear-gradient"/>
    <linearGradient id="linear-gradient15" x1="-308.97" y1="1015.28" x2="-308.97" y2="995.17" gradientTransform="translate(1402.55 9481.32) scale(3.84 -9.02)" xlink:href="#linear-gradient"/>
    <linearGradient id="linear-gradient16" x1="-315.33" y1="1013.52" x2="-315.33" y2="993.41" gradientTransform="translate(2705.52 5316.91) scale(6.72 -5.07)" xlink:href="#linear-gradient"/>
    <linearGradient id="linear-gradient17" x1="-334.47" y1="1011.4" x2="-334.47" y2="991.29" gradientTransform="translate(2138.76 6773.71) scale(5.48 -6.45)" xlink:href="#linear-gradient"/>
    <linearGradient id="linear-gradient18" x1="-259.28" y1="1011.17" x2="-259.28" y2="991.06" gradientTransform="translate(2119.62 6778.81) scale(5.39 -6.46)" xlink:href="#linear-gradient"/>
    <linearGradient id="linear-gradient19" x1="-150.76" y1="1014.9" x2="-150.76" y2="994.78" gradientTransform="translate(1367.39 9465.76) scale(3.7 -9.01)" xlink:href="#linear-gradient"/>
    <linearGradient id="linear-gradient20" x1="-363.6" y1="957.01" x2="-363.6" y2="936.9" gradientTransform="translate(2874.35 7373.38) scale(7.13 -7)" xlink:href="#linear-gradient"/>
    <linearGradient id="linear-gradient21" x1="-302.66" y1="956.35" x2="-302.66" y2="936.24" gradientTransform="translate(2902.98 7342.23) scale(7.14 -6.97)" xlink:href="#linear-gradient"/>
    <linearGradient id="linear-gradient22" x1="-209.05" y1="999.02" x2="-209.05" y2="978.91" gradientTransform="translate(1296.51 4917.07) scale(3.57 -4.69)" xlink:href="#linear-gradient"/>
    <linearGradient id="linear-gradient23" x1="-224.38" y1="998.94" x2="-224.38" y2="978.82" gradientTransform="translate(1264.78 4910.52) scale(3.5 -4.69)" xlink:href="#linear-gradient"/>
    <linearGradient id="linear-gradient24" x1="-318.61" y1="993.4" x2="-318.61" y2="973.29" gradientTransform="translate(2311.42 4388.22) scale(5.85 -4.19)" xlink:href="#linear-gradient"/>
    <linearGradient id="linear-gradient25" x1="-296.73" y1="993.22" x2="-296.73" y2="973.11" gradientTransform="translate(2317.26 4382.76) scale(5.85 -4.18)" xlink:href="#linear-gradient"/>
    <linearGradient id="linear-gradient26" x1="-141.3" y1="1006.78" x2="-141.3" y2="986.66" gradientTransform="translate(409.14 10303.28) scale(1.62 -9.8)" xlink:href="#linear-gradient"/>
    <linearGradient id="linear-gradient27" x1="-349.44" y1="1006.3" x2="-349.44" y2="986.19" gradientTransform="translate(2576.61 5034.75) scale(6.46 -4.81)" xlink:href="#linear-gradient"/>
    <linearGradient id="linear-gradient28" x1="-329.24" y1="961.63" x2="-329.24" y2="941.52" gradientTransform="translate(2510.32 2803.21) scale(6.3 -2.68)" xlink:href="#linear-gradient"/>
    <linearGradient id="linear-gradient29" x1="-292.95" y1="1006.87" x2="-292.95" y2="986.75" gradientTransform="translate(2603.88 5110.6) scale(6.48 -4.88)" xlink:href="#linear-gradient"/>
    <linearGradient id="linear-gradient30" x1="284.89" y1="1001.8" x2="284.89" y2="981.69" gradientTransform="translate(405.52 9609.09) scale(1.54 -9.14)" xlink:href="#linear-gradient"/>
    <linearGradient id="linear-gradient31" x1="-329.11" y1="926.06" x2="-329.11" y2="905.95" gradientTransform="translate(2515.14 1821.76) scale(6.31 -1.75)" xlink:href="#linear-gradient"/>
    <linearGradient id="linear-gradient32" x1="-291.12" y1="959.35" x2="-291.12" y2="939.23" gradientTransform="translate(1886.19 2222.58) scale(4.9 -2.14)" xlink:href="#linear-gradient"/>
    <linearGradient id="linear-gradient33" x1="-211.2" y1="965.09" x2="-211.2" y2="944.97" gradientTransform="translate(1244.15 2323.33) scale(3.45 -2.23)" xlink:href="#linear-gradient"/>
    <linearGradient id="linear-gradient34" x1="-328.99" y1="556.98" x2="-328.99" y2="536.86" gradientTransform="translate(2517.78 1749.01) scale(6.31 -1.65)" xlink:href="#linear-gradient"/>
    <linearGradient id="linear-gradient35" x1="-309.13" y1="534.29" x2="-309.13" y2="514.17" gradientTransform="translate(2548.05 1675.36) scale(6.37 -1.58)" xlink:href="#linear-gradient"/>
    <linearGradient id="linear-gradient36" x1="-290.71" y1="998.04" x2="-290.71" y2="977.93" gradientTransform="translate(1222.51 5657.68) scale(3.44 -5.39)" xlink:href="#linear-gradient"/>
    <linearGradient id="linear-gradient37" x1="-282.37" y1="947.27" x2="-282.37" y2="927.15" gradientTransform="translate(2194.25 1933.51) scale(5.57 -1.86)" xlink:href="#linear-gradient"/>
    <linearGradient id="linear-gradient38" x1="-318.75" y1="941.05" x2="-318.75" y2="920.93" gradientTransform="translate(2180.48 1815.84) scale(5.56 -1.75)" xlink:href="#linear-gradient"/>
    <linearGradient id="linear-gradient39" x1="-61.17" y1="982.64" x2="-61.17" y2="962.52" gradientTransform="translate(970.26 4492.28) scale(2.81 -4.29)" xlink:href="#linear-gradient"/>
    <linearGradient id="linear-gradient40" x1="-230.23" y1="557.04" x2="-230.23" y2="536.93" gradientTransform="translate(1044.31 1695.93) scale(3.02 -1.61)" xlink:href="#linear-gradient"/>
    <linearGradient id="linear-gradient41" x1="-116.21" y1="845.32" x2="-116.21" y2="825.21" gradientTransform="translate(385.67 3252.81) scale(1.56 -3.09)" xlink:href="#linear-gradient"/>
    <linearGradient id="linear-gradient42" x1="-106.58" y1="527.2" x2="-106.58" y2="507.09" gradientTransform="translate(976.59 1602.48) scale(2.84 -1.52)" xlink:href="#linear-gradient"/>
    <linearGradient id="linear-gradient43" x1="-264.99" y1="140.31" x2="-264.99" y2="120.2" gradientTransform="translate(1700.46 194.65) scale(4.48 -.21)" xlink:href="#linear-gradient"/>
    <linearGradient id="linear-gradient44" x1="15113.9" y1="-19569.8" x2="15113.9" y2="-19589.92" gradientTransform="translate(-297.02 35.83) scale(.03 -.03)" xlink:href="#linear-gradient"/>
    <linearGradient id="linear-gradient45" x1="130376.69" y1="822.66" x2="130376.69" y2="822.66" gradientTransform="translate(-303.64 1028.4) scale(0 -1)" xlink:href="#linear-gradient"/>
    <linearGradient id="linear-gradient46" x1="18822.77" y1="-9895.67" x2="18822.77" y2="-9915.78" gradientTransform="translate(-290.67 -2.51) scale(.03 -.02)" xlink:href="#linear-gradient"/>
    <linearGradient id="linear-gradient47" x1="17293.29" y1="-8395.75" x2="17293.29" y2="-8415.87" gradientTransform="translate(-289.26 .91) scale(.04 -.02)" xlink:href="#linear-gradient"/>
    <linearGradient id="linear-gradient48" x1="17811.65" y1="-8428.94" x2="17811.65" y2="-8449.06" gradientTransform="translate(-289.67 .8) scale(.04 -.02)" xlink:href="#linear-gradient"/>
    <linearGradient id="linear-gradient49" x1="57985.18" y1="-12726.87" x2="57985.18" y2="-12746.99" gradientTransform="translate(-273.57 13.02) scale(.02 -.03)" xlink:href="#linear-gradient"/>
    <linearGradient id="linear-gradient50" x1="45785.67" y1="-9645.72" x2="45785.67" y2="-9665.83" gradientTransform="translate(-271.36 21.41) scale(.02 -.04)" xlink:href="#linear-gradient"/>
    <linearGradient id="linear-gradient51" x1="28187.69" y1="-8101.31" x2="28187.69" y2="-8121.42" gradientTransform="translate(-264.79 27.69) scale(.04 -.04)" xlink:href="#linear-gradient"/>
    <linearGradient id="linear-gradient52" x1="25136.92" y1="-7289.91" x2="25136.92" y2="-7310.02" gradientTransform="translate(-262.75 31.86) scale(.04 -.05)" xlink:href="#linear-gradient"/>
    <linearGradient id="linear-gradient53" x1="24387.59" y1="-7460.81" x2="24387.59" y2="-7480.92" gradientTransform="translate(-262.18 30.78) scale(.04 -.05)" xlink:href="#linear-gradient"/>
    <linearGradient id="linear-gradient54" x1="22521.45" y1="-21074.17" x2="22521.45" y2="-21094.29" gradientTransform="translate(-272.91 45.89) scale(.04 -.04)" xlink:href="#linear-gradient"/>
    <linearGradient id="linear-gradient55" x1="37014.96" y1="-50201.79" x2="37014.96" y2="-50221.9" gradientTransform="translate(-279.98 23.58) scale(.02 -.02)" xlink:href="#linear-gradient"/>
    <linearGradient id="linear-gradient56" x1="32222.4" y1="-38480.14" x2="32222.4" y2="-38500.25" gradientTransform="translate(-305.62 16.4) scale(.02 -.02)" xlink:href="#linear-gradient"/>
    <linearGradient id="linear-gradient57" x1="18841.87" y1="-10425.77" x2="18841.87" y2="-10445.88" gradientTransform="translate(-290.64 -3.58) scale(.03 -.02)" xlink:href="#linear-gradient"/>
  </defs>
  <circle class="st47" cx="512" cy="512" r="512"/>
  <g id="Group_112">
    <g id="Group_111">
      <circle id="Ellipse_31" class="st14" cx="512" cy="512" r="352"/>
      <g class="st61">
        <g id="Group_110">
          <g id="Group_109-2">
            <path id="Path_1133" class="st59" d="M835.8,638.78c-4.47,7.74-8.87,15.51-13.9,22.93-1.92,3.59-3.44,7.38-4.55,11.3-3.27,8.23-7.1,16.24-11.45,23.96-.24.48-.41,1-.5,1.53,6.43-9.71,12.18-19.86,17.2-30.37,2.59-5.51,5.11-11.06,7.68-16.59.18-.4.28-.86.86-.82l4.65-11.93Z"/>
            <path id="Path_1134" class="st16" d="M370.5,475.71c-7.78,24.44-14.5,49.14-19.85,74.24-2.83,13.26-5.34,26.58-7.54,39.97-.36,2.19.2,2.92,2.15,3.5,18.12,5.63,36.51,10.33,55.11,14.08,33.3,6.61,67.11,10.35,101.05,11.18,2.19,0,2.98-.24,3.02-2.7.63-39.93,1.35-79.87,2.15-119.8,0-2.41-.58-2.94-2.86-2.96-31.38-.68-62.61-4.44-93.25-11.22-11.95-2.66-23.78-5.81-35.42-9.57-3.68-1.19-3.08-1.41-4.26,2.17-.12.42-.2.76-.3,1.11Z"/>
            <path id="Path_1135" class="st0" d="M657.65,472.64c-.72.18-1.33.28-2.01.46-42.36,13.11-86.4,19.96-130.74,20.36-1.83,0-2.37.38-2.33,2.29.59,40.3.89,80.59.89,120.89,0,2.01.54,2.33,2.33,2.29,52.38-.54,104.42-8.51,154.56-23.67,4.95-1.55,4.97-1.51,4.2-6.68-5.82-38.52-14.61-76.53-26.29-113.69.02-.74-.34-1.47-.6-2.25Z"/>
            <path id="Path_1136" class="st43" d="M339.72,729.36c36.69,11.68,74.5,19.46,112.82,23.21,15.96,1.64,31.95,2.65,47.97,3.04,1.87,0,2.37-.34,2.39-2.25.29-35.41.65-70.82,1.07-106.22,0-2.27-1.09-2.01-2.57-2.13-30.03-.67-59.96-3.59-89.55-8.75-23.78-4.09-47.24-9.87-70.2-17.3-1.79-.58-2.45-.44-2.68,1.57-4.16,35.21-4.51,70.76-1.03,106.04q.26,2.33,1.77,2.8Z"/>
            <path id="Path_1137" class="st39" d="M688.06,619.67l-1.73.5c-33.44,10.52-67.84,17.68-102.7,21.38-18.95,2.01-37.94,3.32-57,3.52-2.33,0-3.04.56-3.04,3,0,35.15-.34,70.31-1.01,105.48,0,1.77.36,2.23,2.13,2.19,53.9-.54,107.45-8.78,159.02-24.46,2.52-.46,4.35-2.65,4.34-5.21,3.73-31.97,4.2-64.23,1.39-96.29-.2-2.84-.46-5.65-.74-8.47-.08-.54.16-1.25-.66-1.65Z"/>
            <path id="Path_1138" class="st42" d="M221.83,482.91c-3.97,9.2-7.37,18.64-10.2,28.26-.57,1.41-.2,3.02.95,4.02,15.08,16.15,32.34,30.1,51.29,41.46,18.95,11.54,38.94,21.27,59.72,29.07,2.25.84,2.51.18,2.86-1.83,4.59-26.29,10.75-52.28,18.42-77.84,3.72-12.41,7.56-24.76,12.07-36.91.76-2.01.32-2.86-1.73-3.64-25.51-9.37-49.46-22.54-71.02-39.08-7.43-5.75-14.34-12.15-20.66-19.11-1.51-1.69-2.01-1.33-3.08.32-12.43,18.79-23.26,38.58-32.38,59.18-2.25,5.29-4.16,10.74-6.24,16.11Z"/>
            <path id="Path_1139" class="st54" d="M702.72,587.67c37.25-13.02,71.53-33.36,100.81-59.82,3.4-3.22,6.5-6.76,9.84-10.06,1.25-1.12,1.68-2.9,1.07-4.47-8.79-31.01-21.55-60.76-37.96-88.5-3.36-5.73-6.9-11.34-10.52-17.3-3.7,3.92-7.12,7.66-10.84,11.12-16.54,15.07-35.27,27.56-55.54,37.05-8.39,4.02-16.96,7.69-25.69,11-1.33.48-2.01.86-1.39,2.55,13.49,38.24,23.51,77.63,29.93,117.67.07.26.16.51.28.74Z"/>
            <path id="Path_1140" class="st37" d="M321.04,722.76c-1.43-11.28-2.31-22.23-2.7-33.21-.79-24.71.38-49.44,3.5-73.96.63-1.92-.42-3.99-2.34-4.62-.17-.06-.35-.1-.53-.13-29.12-10.66-56.59-25.36-81.6-43.69-11.26-8.33-21.69-17.72-31.14-28.06-.28-.32-.6-.62-1.31-1.31-.89,5.13-1.81,9.88-2.55,14.64-5.07,30.93-4.72,62.52,1.05,93.33.3,1.64,1.06,3.16,2.19,4.38,15.62,16.73,33.55,31.15,53.24,42.82,19.31,11.62,39.65,21.44,60.75,29.37.4.14.74.22,1.45.42Z"/>
            <path id="Path_1141" class="st21" d="M599.4,335.52c-.78-.34-1.33,0-1.91.22-24.45,7.5-49.84,11.45-75.41,11.73-2.01,0-2.39.54-2.33,2.51,1.13,38.15,1.97,76.31,2.53,114.49,0,1.75.34,2.41,2.33,2.37,41.55-.46,82.82-6.89,122.54-19.09,1.65-.52,2.01-1.07,1.39-2.7-13.18-37.15-29.26-73.2-48.09-107.83-.36-.62-.74-1.21-1.05-1.71Z"/>
            <path id="Path_1142" class="st17" d="M388.66,424.64c-2.43,6.3-4.79,12.61-7.36,18.85-.89,2.13-.32,2.88,1.73,3.54,19.88,6.25,40.21,11,60.81,14.2,20.14,3.11,40.46,4.96,60.83,5.55,2.19,0,2.55-.64,2.57-2.59.89-37.98,1.83-75.95,2.84-113.93,0-2.01-.3-2.84-2.57-2.88-25.38-.52-50.55-4.61-74.78-12.17-1.81-.56-2.41,0-3.22,1.43-9.59,17.43-18.43,35.31-26.53,53.62-5.07,11.32-9.96,22.75-14.3,34.38Z"/>
            <path id="Path_1143" class="st5" d="M820.47,540.48c-23.67,25.53-52.28,45.97-84.1,60.08-9.13,4.34-18.42,8.37-27.94,11.83-2.01.7-2.41,1.57-2.19,3.6,3.55,31.17,3.74,62.64.54,93.85-.5,4.55-1.13,9.09-1.77,14.08,5.39-2.17,10.44-4.02,15.41-6.18,26.83-10.91,51.97-25.57,74.68-43.55,8.04-6.54,15.57-13.68,22.55-21.34,1.28-1.34,2.16-3.01,2.55-4.83,7.29-35.25,7.53-71.59.68-106.93-.02-.14-.18-.28-.42-.62Z"/>
            <path id="Path_1144" class="st22" d="M357.02,437.48c3.44,1.33,6.03,2.25,8.55,3.34,1.39.62,2.01.28,2.47-1.11,4.61-11.53,9.52-22.93,14.72-34.19,10.24-22.25,21.65-43.93,34.19-64.97,1.41-2.35,2.7-4.81,4.26-7.04,1.19-1.65.62-2.15-.97-2.76-9.22-3.47-18.12-7.75-26.59-12.77-9.69-5.56-18.5-12.53-26.15-20.68-1.43-1.57-2.19-1.29-3.58-.2-24.94,19.2-47.88,40.85-68.49,64.63-5.79,6.7-11.36,13.58-16.8,20.58-.94.8-1.05,2.21-.25,3.15.13.15.27.28.44.39,12.34,13.13,26.5,24.41,42.06,33.49,11.57,6.94,23.65,13,36.13,18.14Z"/>
            <path id="Path_1145" class="st33" d="M663.54,297.14c-.74-.42-1.01.38-1.37.78-14.51,14.94-32.28,26.33-51.91,33.27-1.91.74-2.35,1.19-1.15,3.16,20.63,33.69,38.28,69.11,52.76,105.86.46,1.21.6,2.25,2.47,1.53,25.74-9.29,49.71-22.9,70.88-40.23,4.9-4.21,9.56-8.7,13.96-13.44,1.47-1.57,1.41-2.55.16-4.2-20.41-27.03-43.76-51.7-69.62-73.58-4.85-4.02-9.88-8.05-14.82-12.07-.42-.4-.84-.7-1.37-1.09Z"/>
            <path id="Path_1146" class="st56" d="M341.49,748.62c.1,2.33.48,4.64,1.15,6.88,3.88,19.92,11.27,38.99,21.82,56.32,2.14,3.63,5.6,6.29,9.65,7.44,31.01,9.32,62.9,15.38,95.16,18.1,10.5.95,21.04,1.45,31.56,1.79,1.91,0,2.29-.38,2.27-2.25-.19-19.83-.3-39.67-.32-59.5,0-2.19-.54-2.76-2.76-2.82-34.57-.75-69-4.58-102.88-11.45-17.22-3.45-34.24-7.86-50.97-13.22-1.49-.44-3-.82-4.69-1.31Z"/>
            <path id="Path_1147" class="st41" d="M683.92,749.69l-8.71,2.68c-48.78,14.36-99.32,21.89-150.17,22.37-2.21,0-3.02.46-3.08,2.84-.42,19.93-1.07,39.83-2.57,59.7-.12,1.65.28,2.01,2.01,2.01,44.12-.46,87.94-7.23,130.14-20.11,1.94-.59,3.62-1.8,4.79-3.46,9.48-13.09,16.74-27.65,21.48-43.1,2.33-7.36,4.32-14.8,6.11-22.91Z"/>
            <path id="Path_1148" class="st49" d="M235.15,321.46c-4.65,4.69-8.71,9.45-12.67,14.28-16.4,20.04-29.73,42.41-39.54,66.38-5.67,14.55-7.21,30.37-4.47,45.74,3.17,19.79,11.26,38.46,23.53,54.31.27.28.57.54.89.76,1.49-4.51,2.88-8.83,4.36-13.11,11.17-32.03,26.7-62.36,46.14-90.15,1.35-1.39,1.35-3.6,0-4.99-13.76-17.9-20.65-40.13-19.41-62.68.18-3.36.8-6.84,1.17-10.54Z"/>
            <path id="Path_1149" class="st25" d="M533.64,213.6l.22.68,6.24-2.35c1.03-.32,2.01-.58,3.06-.93,24.67-8.62,50.63-12.93,76.76-12.75,1.05-.13,2.11.09,3.04.6,12.44,7.69,22.32,18.89,28.4,32.18.38.91,1.07,1.81.64,2.94-37.8-10.49-77.01-14.96-116.2-13.24.59.69,1.52.98,2.39.74,8.25,0,16.47.22,24.7.72,30.14,1.71,59.96,7.04,88.82,15.87,1.48.31,2.55,1.6,2.57,3.12,1.61,11.74-1.26,23.66-8.05,33.37-1.29,2.01-2.25,2.01-4.14.82-20.96-13.16-43.04-24.43-66-33.69-15.03-6.13-30.43-11.33-46.1-15.57-1.07-.28-2.01-.38-1.31-2.01.99-1.86.39-4.16-1.39-5.29-2.01-1.55-.7-2.33.84-2.59,1.74-.36,3.4-1.04,4.89-2.01-1.04-.22-2.12.05-2.94.72-2.64,2.02-6.25,2.22-9.09.48-1.59-.68-1.79-1.07-.82-2.51,4.01-6.16,8.34-12.1,12.97-17.8,6.03-7.69,13.28-14.34,21.46-19.67,1.84-1.23,4.11-1.62,6.26-1.07,8.5,1.8,16.91,4.03,25.18,6.7,10.86,3.55,21.3,8.27,31.14,14.08-.76.68-1.51.42-2.19.44-11.7.15-23.37,1.39-34.84,3.7-13.77,2.63-27.24,6.6-40.23,11.87-2.18.57-4.3,1.39-6.3,2.43ZM533.2,221.11h-.95l.14.36c.32-.03.63-.08.95-.14.4,0,.95.68,1.13-.26.22.5.66.42,1.07.32v-.42c-.34-.25-.82-.18-1.07.16,0,0-.01.02-.02.02-.38-.08-.8-.44-1.27-.04h.02ZM531.29,221.49c.18-.26,0-.4-.28-.42-.15.02-.3.05-.44.1l.28.36c.14,0,.38.04.42-.04h.02Z"/>
            <path id="Path_1150" class="st50" d="M349.76,245.89c-5.21,2.17-10.46,4.22-15.61,6.52-27.11,12.04-52.46,27.69-75.39,46.5-4.78,3.6-7.67,9.18-7.84,15.17-1.22,21.83,5.44,43.37,18.77,60.7,1.09,1.53,1.55.95,2.43-.12,7.88-9.8,16.19-19.24,24.9-28.3,19.07-19.88,39.95-37.95,62.35-53.99,1.81-1.29,2.17-2.01.76-4.02-9-11.87-12.67-26.94-10.16-41.62.04-.18-.1-.34-.22-.84Z"/>
            <path id="Path_1151" class="st18" d="M678.06,247.66c.67,3.89.99,7.82.95,11.77-.48,10.86-4.12,21.34-10.46,30.17-1.17,1.69-1.31,2.49.58,3.84,32.27,23.36,61.2,51.02,85.99,82.21q2.01,2.57,3.84,0c11.8-16.1,17.82-35.71,17.1-55.66-.62-12.43-.68-12.43-10.24-20.56-23.4-19.78-49.61-35.95-77.78-47.99-3.24-1.29-6.56-2.45-9.98-3.78Z"/>
            <path id="Path_1152" class="st32" d="M791.07,324.49c1.73,8.5,2.17,17.21,1.31,25.85-1.97,17.1-8.41,33.38-18.67,47.21-.93.96-.98,2.47-.1,3.48,21.8,31.74,38.38,66.76,49.12,103.73.14.31.31.62.5.91,5.66-7.61,10.49-15.81,14.4-24.46,9.15-19.69,11.91-41.74,7.91-63.08-1.62-7-3.97-13.82-7-20.34-11.04-26.51-26.57-50.93-45.9-72.17-.38-.46-.62-1.17-1.57-1.13Z"/>
            <path id="Path_1153" class="st38" d="M210.19,670.78c2,7.26,4.62,14.33,7.84,21.14,5.76,13.18,13,25.67,21.58,37.21,9.54,12.77,20.28,24.59,32.08,35.3,13.98,12.43,29.48,23.03,46.12,31.56,10.91,5.75,22.14,10.86,33.65,15.29.66.32,1.4.44,2.13.34-1.07-1.47-2.15-2.94-3.2-4.41-11.88-17.33-20.13-36.87-24.28-57.47-.68-4.78-4.11-8.72-8.75-10.06-32.17-12.03-62.09-29.39-88.5-51.35-5.93-5.03-11.55-10.41-16.86-16.09-.5-.54-.8-1.45-1.81-1.35l-.02-.12Z"/>
            <path id="Path_1154" class="st7" d="M812.93,672.63c-6.07,6.77-12.58,13.14-19.49,19.05-18.48,15.4-38.88,28.35-60.68,38.52-9.7,4.65-19.57,8.85-29.63,12.59-1.36.4-2.36,1.56-2.57,2.96-2.09,9.07-4.85,17.98-8.25,26.65-5.25,14.16-12.77,27.37-22.25,39.12-.29.45-.56.91-.8,1.39,36.26-12.6,69-33.68,95.48-61.47,21.39-22.62,37.81-49.46,48.19-78.81Z"/>
            <path id="Path_1155" class="st29" d="M586.87,313.53c-4.47-6.94-8.75-13.78-13.22-20.46-14.44-21.91-30.93-42.41-49.24-61.21-1.34-1.73-3.62-2.43-5.69-1.75-3.68.95-3.72.7-3.52,4.45,1.61,28.98,2.72,57.99,3.7,86.99,0,1.37-.34,2.74,2.01,2.68,21.73-.34,43.31-3.72,64.1-10.06.52-.14,1.01-.34,1.85-.64Z"/>
            <path id="Path_1156" class="st19" d="M445.34,313.91c20.57,6.26,41.89,9.71,63.38,10.26,1.59,0,2.01-.36,2.15-2.01.97-29.82,1.99-59.64,3.08-89.45,0-1.45-.3-2.01-1.83-2.41-3.48-1.09-7.25.25-9.27,3.28-20.49,21.86-38.76,45.7-54.55,71.16-1.29,2.01-2.45,4.02-3.84,6.03s-1.45,3.02.89,3.14Z"/>
            <path id="Path_1157" class="st26" d="M493.01,227.91c0,1.35-1.19,1.03-1.87,1.25-35.81,11.95-69.89,28.59-101.34,49.48-1.75,1.15-1.81,1.75-.36,3.22,11.16,11.09,24.42,19.85,39,25.75,1.79.76,3.62,1.45,5.35,2.33s2.41.4,3.42-1.07c7.46-11,15.36-21.67,23.71-32.02,13.2-16.58,27.74-32.05,43.47-46.26.54-.46,1.03-.97,1.71-1.63-2.53-.6-3.84-3.64-6.86-2.66h0c-1.59.89-3.37,1.39-5.19,1.45h0c-.36.58-.76.89-1.25.1l.2.06Z"/>
            <path id="Path_1158" class="st46" d="M522.9,229.23c6.68,5.85,13.01,11.77,19.09,17.92,18.69,19.16,35.67,39.92,50.75,62.03.68,1.01,1.09,2.01,2.84,1.37,15.91-5.7,30.45-14.68,42.68-26.35,3.14-3.18,3.14-3.2-.52-5.61-21.72-14.42-44.68-26.89-68.61-37.25-12.39-5.35-25-10.06-37.83-14.08-2.31-.74-4.32-1.31-6.2.78-.67.5-1.41.9-2.19,1.19Z"/>
            <path id="Path_1159" class="st15" d="M195.36,636.93c-5.71-28.73-6.55-58.22-2.47-87.24.91-6.68,2.01-13.32,3.46-19.89.38-1.45.04-3-.93-4.14-18.65-23.41-27.32-53.22-24.14-82.97.04-.95.16-1.89.36-2.82-1.29,5.67-2.19,11.42-3.18,17.16-3.41,20.6-4.91,41.48-4.49,62.35.45,18.89,2.31,37.71,5.59,56.32,3.08,21.34,11.26,41.62,23.84,59.14.42.56.82,1.17,1.25,1.71.04.14.22.16.7.38Z"/>
            <path id="Path_1160" class="st10" d="M254.62,296.11c7.1-6.03,13.78-11.32,20.78-16.29,22.72-16.12,47.54-29.05,73.76-38.46,1.52-.44,2.7-1.62,3.16-3.14,6.04-14.98,16.47-27.79,29.91-36.75.94-.45,1.74-1.15,2.31-2.01-4.52.49-9.01,1.24-13.44,2.25-15.93,3.29-31.22,9.13-45.28,17.3-11.03,6.76-21.55,14.3-31.5,22.57-12.95,10.1-23.85,22.6-32.08,36.81-3.17,5.62-5.73,11.56-7.62,17.72Z"/>
            <path id="Path_1161" class="st35" d="M499.23,226.52c1.83-1.15.82-2.7.54-4.02s-1.55-.8-2.35-.82c-40.72-1.3-81.38,3.82-120.5,15.17-1.68.23-2.93,1.65-2.96,3.34-1.43,12.21,1.89,24.5,9.25,34.34,1.09,1.59,2.01.89,2.98.22,11.12-6.84,22.51-13.15,34.19-18.95,22.59-11.23,46.15-20.4,70.4-27.38.72-.2,1.45-.72,2.27-.32h0c.38-.56.76-.84,1.25-.1h0c1.37-1.34,3.33-1.88,5.19-1.45l-.26-.02Z"/>
            <path id="Path_1162" class="st30" d="M641.31,200.13c8.93,5.88,16.93,13.07,23.73,21.32,4.63,5.63,8.26,12.02,10.72,18.89.45,1.24,1.52,2.17,2.82,2.43,25.97,9.67,50.5,22.86,72.89,39.18,6.78,4.97,13.28,10.28,20.11,16.27-1.17-4.14-2.77-8.14-4.77-11.95-8.47-16.46-20.41-30.88-35-42.28-12.95-10.9-26.91-20.55-41.68-28.82-14.77-7.64-30.72-12.72-47.19-15.03-.55-.05-1.1-.06-1.65-.02Z"/>
            <path id="Path_1163" class="st27" d="M854.22,455.64c-.64,5.09-.66,10.06-1.21,15.13-2.41,20.36-10.03,39.76-22.13,56.32-1.46,1.85-2.02,4.26-1.51,6.56,6.28,32.8,6.28,66.5,0,99.3-.42,2.15-.89,4.28-1.13,6.48,6.39-8.33,11.64-17.48,15.63-27.19,6.16-16.65,10.22-34.01,12.07-51.67,3.64-26.67,4.22-53.66,1.73-80.46-.7-7.74-2.01-15.45-3.08-23.17-.16-.46-.28-.86-.38-1.29Z"/>
            <path id="Path_1164" class="st40" d="M375.69,232.89c8.99-2.33,17.58-4.38,26.27-6.03,30.74-5.84,62.09-7.86,93.33-6.03,4.4.24,4.4.22,7.28-3.44-8.43-3.52-17.04-6.6-25.79-9.21-17.98-5.5-36.55-8.87-55.31-10.06-2.92-.18-5.87,0-8.75-.36-5.49-.68-10.99,1.19-14.92,5.07-10.09,7.7-17.76,18.14-22.11,30.07Z"/>
            <path id="Path_1165" class="st6" d="M509.81,214.01c-1.21-.56-1.55-1.87-2.19-2.88-7.35-11.96-16.39-22.8-26.83-32.18-4.72-4.57-11.52-6.25-17.82-4.41-17.01,3.68-33.46,9.6-48.92,17.58l-2.33,1.33c-.12,0-.18.28-.4.64,5.75.3,11.38.5,17.02,1.11,22.59,2.61,44.67,8.53,65.53,17.56,2.96,1.23,5.85,2.53,8.77,3.82.16,0,.34.24.46.18,2.31-.78,4.93-.84,6.7-2.88l.02.12Z"/>
            <path id="Path_1166" class="st4" d="M509.79,213.89c2.54.75,5.21.97,7.84.62,1.25,0,1.57-1.91,2.17-3.04,4.07-7.87,8.71-15.43,13.88-22.63,4.38-6.28,9.76-11.8,15.93-16.33-23.01-3.39-46.38-3.62-69.45-.68,2.37,2.13,4.63,3.92,6.64,6.03,7.95,8.61,14.65,18.29,19.91,28.76,1.07,2.01,2.01,3.9,3.08,5.89.2.44.93.97,0,1.49v-.12Z"/>
            <path id="Path_1167" class="st3" d="M377.11,827.21c7.53,7.55,16.76,13.19,26.91,16.43,15.62,4.97,31.55,8.9,47.69,11.77,16.48,2.84,33.15,4.54,49.86,5.09,2.29,0,2.8-.48,2.41-2.72-.4-2.63-.56-5.29-.48-7.95,0-1.83-.58-2.31-2.45-2.35-18.41-.42-36.78-1.94-55.01-4.57-22.55-3.18-44.8-8.22-66.52-15.07-.58-.24-1.21-.24-2.41-.64Z"/>
            <path id="Path_1168" class="st13" d="M644.15,828.52c-8.05,2.25-15.99,4.57-24.14,6.56-32.32,7.85-65.42,12.04-98.68,12.47-2.19,0-3.1.4-3.22,2.8-.14,3.44-.82,6.83-2.01,10.06,3.34,0,6.5,0,9.65-.18,26.15-1.07,52.09-5.12,77.32-12.07,11.6-2.34,22.69-6.74,32.75-12.99,2.97-1.96,5.76-4.18,8.33-6.64Z"/>
            <path id="Path_1169" class="st1" d="M257.92,275.23c-29.78,31.4-53.25,68.22-69.13,108.48,2.57-5.09,5.09-10.2,7.74-15.23,10.5-19.83,23.7-38.11,39.22-54.31,1.24-1.25,2.18-2.76,2.74-4.43,4.25-12.05,10.52-23.29,18.53-33.25.32-.4.62-.84.91-1.27Z"/>
            <path id="Path_1170" class="st8" d="M677.74,207.87c-32.64-18.25-68.13-30.86-104.98-37.29-2.36-.31-4.76-.12-7.04.56,7.66,1.55,14.52,3.08,21.32,4.97,16.47,4.37,32.27,10.93,46.99,19.51,2.5,1.13,5.2,1.76,7.95,1.87,11.47,1.77,22.68,4.97,33.35,9.53.76.38,1.59.56,2.41.84Z"/>
            <path id="Path_1171" class="st45" d="M351.71,204.49c.86.44,1.55-.18,2.21-.46,11.51-4.43,23.53-7.37,35.78-8.75,1.67-.19,3.28-.72,4.73-1.57,20.48-11.25,42.7-18.98,65.73-22.87l3.34-.64c-2.78-.81-5.72-.96-8.57-.44-23.11,3.79-45.76,9.95-67.6,18.4-11.53,4.32-22.79,9.36-33.69,15.09-.68.38-1.49.56-2.01,1.31l.08-.06Z"/>
            <path id="Path_1172" class="st2" d="M826.73,366.51c-3.64-8.52-7.83-16.8-12.55-24.78-11.72-20.86-25.58-40.44-41.35-58.43-.8-.92-1.66-1.79-2.57-2.59,5.19,7.04,9.74,14.54,13.6,22.39.59,1.09,1.1,2.23,1.53,3.4,1.81,5.64,4.93,10.77,9.11,14.97,12.29,13.88,22.94,29.13,31.72,45.46l.52-.4Z"/>
            <path id="Path_1173" class="st36" d="M378.5,833.73c-5.25-3.4-10.06-7.46-15.01-11.2-3.17-1.8-6.55-3.22-10.06-4.22-11.56-4.77-22.8-10.27-33.65-16.47-.61-.46-1.43-.53-2.11-.18,19.15,12.71,39.53,23.46,60.83,32.08Z"/>
            <path id="Path_1174" class="st62" d="M219.5,701.26c-5.66-10.02-10.52-20.47-14.52-31.26-2.2-6.91-5.48-13.42-9.74-19.29-2.56-3.75-4.93-7.63-7.1-11.63-.21,1.16,0,2.35.62,3.36,5.72,14.48,12.52,28.51,20.36,41.96,2.9,4.96,5.81,9.92,8.75,14.86.44.72.66,1.69,1.67,2.01l-.04-.02Z"/>
            <path id="Path_1175" class="st34" d="M646.1,833.23c11.51-4.54,22.67-9.92,33.39-16.09,7.12-4.12,14.4-8.05,21.24-12.59.79-.5,1.5-1.12,2.11-1.83-6.03,3.1-11.83,6.32-17.86,9.21-7.34,3.54-14.78,6.86-22.43,9.72-2.41.87-4.65,2.16-6.6,3.82-3.21,2.66-6.6,5.08-10.16,7.24l.3.52Z"/>
            <path id="Path_1176" class="st20" d="M559.65,168.47c-29.85-4.13-60.1-4.38-90.01-.74,2.69.92,5.58,1.11,8.37.56,25.33-2.98,50.94-2.63,76.17,1.07,1.87.16,3.75-.14,5.47-.89Z"/>
            <path id="Path_1177" class="st60" d="M219.58,701.22c-.3.44,0,.56.32.68h.24l-.64-.58.08-.1Z"/>
            <path id="Path_1178" class="st57" d="M348.93,205.74h-.1.1Z"/>
            <path id="Path_1179" class="st28" d="M348.91,205.72l.66-.42h0l-.68.36.02.06Z"/>
            <path id="Path_1180" class="st58" d="M350.26,204.92c.38.4.64.42.74-.2h0l-.74.18v.02Z"/>
            <path id="Path_1181" class="st55" d="M351.83,204.57l-.72.24h0c.38.42.58.26.7-.2l.02-.04Z"/>
            <path id="Path_1182" class="st31" d="M827.79,369.37l.16.56h.22l-.34-.5-.04-.06Z"/>
            <path id="Path_1183" class="st52" d="M827.31,368.79c0,.32.1.58.48.58h0c.2-.34,0-.56-.24-.72l-.24.14Z"/>
            <path id="Path_1184" class="st53" d="M826.87,368.14l.44.64.28-.16c.12-.24.03-.53-.2-.65-.02-.01-.05-.02-.08-.03l-.44.2Z"/>
            <path id="Path_1185" class="st48" d="M827.31,367.92c.14-.25.05-.57-.2-.71,0,0-.01,0-.02-.01l-.58.22.42.7.38-.2Z"/>
            <path id="Path_1186" class="st11" d="M826.21,366.86l.28.56.58-.22c.1-.27-.04-.57-.31-.67-.01,0-.02,0-.03-.01l-.52.34Z"/>
            <path id="Path_1187" class="st51" d="M645.36,833.45c.25.14.57.05.71-.2,0,0,0-.01.01-.02l-.28-.46c-.26.18-.74.22-.44.74v-.06Z"/>
            <path id="Path_1188" class="st44" d="M645.4,833.51c-.12-.26-.28-.32-.48-.14v.22l.5-.14-.02.06Z"/>
            <path id="Path_1189" class="st9" d="M210.12,670.8l.18-.3h-.32l.2.34-.06-.04Z"/>
            <path id="Path_1190" class="st12" d="M349.58,205.32c.42.18.68.18.68-.38h0l-.66.4-.02-.02Z"/>
          </g>
        </g>
      </g>
      <circle id="Ellipse_33" class="st24" cx="512" cy="512" r="352"/>
    </g>
  </g>
</svg>