<svg xmlns="http://www.w3.org/2000/svg" viewBox="0 0 1024 1024">
   <circle cx="512" cy="512" r="512" style="fill:#0149ff"/>
   <path d="M512 800.11c-26.28 0-47.67-20.95-48.38-47.06l-136.19-78.62c-55.07 28.4-100.71-50.01-48.38-83.8V433.38c-52.35-33.83-6.67-112.19 48.38-83.8l136.19-78.62c2.56-61.92 94.25-61.82 96.76 0l136.18 78.63c55.07-28.41 100.71 50.01 48.38 83.8v157.25c52.35 33.83 6.67 112.19-48.38 83.8l-136.19 78.62c-.68 26.12-22.19 47.09-48.38 47.06Zm0-504.77c.14 0 .65 0 .78-.01h-.16c.21 0 .42 0 .63-.02l-.47.02c.23 0 .46-.02.68-.03h-.21c.21 0 .42-.01.64-.03l-.42.03c.21-.01.41-.03.62-.05l-.2.02c.19-.02.37-.03.56-.05l-.36.04c.23-.02.45-.04.68-.07l-.32.04c.21-.02.42-.05.63-.08l-.31.04c.19-.02.38-.05.57-.08l-.26.04c.24-.03.47-.07.71-.11l-.44.07.57-.09-.13.02c.2-.03.4-.07.6-.11l-.46.08c.21-.04.42-.07.63-.12l-.16.03c.25-.05.51-.1.76-.16l-.6.13c.6-.12 1.19-.26 1.77-.43l-.35.1c.19-.05.39-.11.58-.16l-.22.07.51-.15-.29.09c24.94-6.98 19.74-45.43-6.54-45.15-26.3-.26-31.47 38.23-6.49 45.17l-.35-.11c.18.05.35.11.53.16l-.18-.05c.19.06.38.11.57.16l-.39-.11c.2.06.41.11.62.17l-.22-.06c.52.14 1.06.26 1.59.36l-.22-.04c.21.04.43.08.65.12l-.43-.08c.18.03.36.07.53.1l-.11-.02.58.09-.47-.07c.24.04.48.08.72.11l-.24-.03c.19.03.37.05.56.07l-.32-.04c.21.03.42.05.64.08l-.32-.04c.23.03.45.05.68.07l-.36-.03c.19.02.37.04.56.05l-.2-.02c.21.02.41.03.62.05l-.42-.03c.21.02.42.03.63.04h-.21c.23 0 .45.01.68.02l-.47-.02c.42.02.83.03 1.25.03Zm74.92 158.17 85.74-49.5c-.77-3.04-1.24-6.15-1.41-9.27v.11c-.04-.86-.07-1.72-.07-2.58v.32c-.08-8.61 2.19-17.19 6.48-24.64L553.91 296.5c-6.24 10.86-16.84 19.11-28.92 22.43v93.21c26.48 3.27 49.22 19.05 61.92 41.38Zm-145.43 1.97c11.85-22.25 33.27-38.01 58.16-42.6V319.1c-12.35-3.2-23.22-11.55-29.57-22.61l-123.75 71.45c5.1 8.82 7.31 19.25 6.21 29.38v-.03a48.71 48.71 0 0 1-1.07 6.22l90.02 51.97Zm289.63-43.37c11.02-6.36 14.8-20.46 8.44-31.48-12.61-22.46-47.91-8.78-42.57 16.01l-.05-.27c.03.17.07.35.1.52l-.05-.24c.04.22.09.44.14.66l-.09-.42c.05.23.1.46.16.7l-.07-.28c.04.18.09.36.13.55l-.07-.27c.05.2.1.4.15.59l-.09-.33c.06.22.11.43.18.64l-.09-.32c.05.18.1.37.16.55l-.07-.23c.22.77.49 1.54.79 2.29l-.11-.28c.08.21.17.42.26.63l-.14-.35.24.57-.1-.22c.07.18.15.35.23.52l-.13-.3c.1.23.2.45.31.67l-.17-.37c.08.19.17.37.26.56l-.09-.18c.09.18.18.37.27.55l-.18-.37c.11.23.22.45.34.67l-.16-.31c.51 1.01 1.1 1.99 1.75 2.91l-.15-.22c.29.42.59.83.91 1.23l-.14-.18c.11.14.22.28.33.41l-.19-.23c.15.19.3.37.46.56l-.27-.32c.13.15.25.31.38.46l-.11-.13.35.41-.24-.27c.84.98 1.77 1.89 2.76 2.72l-.38-.32c.15.13.31.26.46.39l-.08-.06c7.21 5.98 17.66 7.17 26.24 2.21Zm-410.73-3.34c.33-.32.66-.65.97-.99l-.09.1c.14-.15.28-.31.42-.46l-.33.36c.15-.16.3-.33.45-.5l-.12.13c.14-.16.28-.33.42-.49l-.31.36c.13-.14.25-.29.37-.44l-.07.08c.12-.14.23-.28.35-.43l-.28.35c.16-.19.32-.39.47-.59l-.19.24c.13-.16.26-.33.38-.5l-.19.25c.12-.15.23-.3.34-.46l-.15.2c.12-.16.24-.33.36-.5l-.21.29.38-.53-.17.24c.48-.68.94-1.4 1.35-2.14l-.18.32c.34-.58.64-1.17.93-1.78l-.17.35c.07-.14.13-.27.2-.41l-.03.06c.12-.25.23-.5.34-.76l-.07.17c.39-.91.73-1.83 1-2.77l-.05.16c.06-.2.12-.4.17-.6l-.12.44.18-.64-.05.2.15-.57-.09.37c.13-.49.23-.98.33-1.47l-.04.18c5.32-24.78-29.97-38.44-42.58-15.99-13.4 22.69 17.47 46.41 35.94 28.14Zm17.77 188.38 54.9-31.7c-25.5-28.96-16.42-80.36 16.76-98.97l-70.55-40.73c-8.99 9.41-21.86 14.84-34.86 14.82v142.89c12.47-.02 24.83 4.97 33.75 13.7Zm348.07-.36c2.76-2.64 5.84-4.93 9.14-6.84l-.27.15a48.477 48.477 0 0 1 16.33-5.95l-.64.11c2.9-.54 5.85-.81 8.81-.82h-.1.1V440.55c-12.83.02-25.51-5.25-34.5-14.44l-87.34 50.42c27.81 3.49 49.39 27.01 49.85 55.65.23 13.26-4.17 25.75-11.69 35.55l50.31 29.05Zm-177.21-31.96h81.55c41.65-.71 41.65-62.68 0-63.38h-17.46c3.46-67.26-85.85-90.36-112.14-27.7l-3.13 8.11c-63.1-9.33-76.01 77.59-12.87 82.97 1.14 0 61.69.02 62.79 0 .35-.01.91.01 1.27 0Zm-38.94 162.69c6.35-11.06 17.22-19.41 29.57-22.6V590.19c-21.22-1.17-67.09 4.39-85.61-7.57l-62.97 36.36c1.14 4.1 1.72 8.34 1.74 12.59v-.31a49.1 49.1 0 0 1-.55 7.85l.07-.47c-.32 2.28-.81 4.54-1.46 6.76l.06-.2a48.826 48.826 0 0 1-4.6 10.87l123.75 71.45Zm83.84 0 123.75-71.45c-.68-1.19-1.32-2.4-1.9-3.65l.07.14a48.571 48.571 0 0 1-4.65-21.31v.31c.02-4.42.65-8.84 1.88-13.09l-58.3-33.66c-7.35 3.45-15.55 5.37-24.2 5.37H525v114.91c12.08 3.32 22.68 11.57 28.92 22.43Zm-237.99-75.69c8.77-5.06 12.95-15.02 11.09-24.43l.04.2a23.14 23.14 0 0 0-2.07-6.1l.11.22c-.08-.16-.16-.33-.25-.49l.14.27a23.4 23.4 0 0 0-1.79-2.97l.16.23c-.11-.17-.23-.33-.35-.49l.19.26c-.12-.17-.25-.35-.38-.52l.19.25c-.14-.19-.28-.37-.42-.56l.23.3c-.11-.15-.22-.29-.34-.44l.1.13c-.13-.17-.27-.34-.41-.51l.3.37-.39-.48.09.11c-17.36-21.44-51.81 2.08-37.75 26.19 6.36 11.02 20.46 14.8 31.48 8.43Zm423.62-8.44c13.71-23.36-18.82-46.99-36.8-27.26l.17-.18-.36.39.2-.21c-.13.14-.26.29-.39.43l.2-.22c-.14.15-.27.31-.41.46l.21-.24-.41.47.19-.23c-.13.16-.27.31-.4.47l.2-.24c-.46.55-.9 1.13-1.31 1.72l.13-.19c-.57.8-1.09 1.66-1.56 2.54l.11-.21c-.11.21-.22.41-.32.62l.21-.41c-.1.2-.2.39-.3.59l.09-.18c-.09.17-.17.35-.25.52l.16-.34c-.1.21-.2.41-.3.62l.13-.28c-.23.49-.44.98-.64 1.48l.07-.19c-.38.94-.69 1.9-.94 2.87l.08-.32-.15.59.07-.27c-.05.19-.09.38-.14.57l.07-.3c-.05.22-.1.44-.15.67l.08-.37c-.05.2-.09.41-.13.61l.05-.25c-.04.18-.07.36-.11.54l.06-.29c-5.33 24.79 29.97 38.45 42.57 16.01ZM512 774.77c25.26.33 31.61-36.07 8.26-44.57l.19.08-.48-.18.29.11c-.19-.07-.37-.14-.56-.21l.28.1c-.18-.07-.36-.13-.54-.19l.26.09c-.19-.07-.38-.13-.57-.19l.31.1c-.2-.07-.4-.13-.6-.2l.29.09c-.2-.06-.4-.13-.6-.18l.3.09c-.17-.05-.35-.11-.53-.16l.22.06c-.19-.06-.38-.11-.58-.16l.35.1c-.21-.06-.42-.12-.63-.17l.27.07c-.57-.15-1.14-.28-1.72-.39l.3.06a8.96 8.96 0 0 0-.55-.1l.25.04c-.21-.04-.42-.07-.62-.11l.38.06c-.22-.04-.44-.07-.67-.11l.29.04c-.15-.02-.29-.04-.44-.07l.15.02-.69-.09.53.07c-.2-.03-.41-.05-.61-.08h.08c-.19-.01-.39-.03-.58-.05l.51.05c-.22-.02-.44-.05-.66-.06h.16c-.22 0-.43-.02-.65-.04l.5.04c-.21-.02-.42-.03-.63-.04h.14c-.21 0-.41-.01-.62-.02l.48.02c-.66-.04-1.39-.04-2.05-.02h.16c-.21 0-.43 0-.64.02l.48-.02c-.21 0-.41.02-.62.03h.14c-.21 0-.42.02-.63.04l.5-.04c-.22.01-.44.03-.65.05h.16c-.22 0-.44.03-.66.05l.51-.05-.58.06h.08c-.21.01-.41.04-.62.07l.54-.07c-.22.03-.45.05-.67.09l.13-.02c-.15.02-.3.04-.45.07l.32-.05c-.23.03-.46.07-.69.11l.36-.06-.55.09.19-.03c-.19.03-.37.07-.56.11l.37-.07c-.59.11-1.17.24-1.74.39l.22-.06c-.21.05-.41.11-.62.17l.39-.11c-.19.05-.38.1-.57.16l.17-.05c-.18.05-.37.11-.55.16l.37-.11c-.21.06-.42.13-.63.19l.25-.08c-.19.06-.38.12-.57.19l.32-.11c-.2.06-.39.13-.58.2l.26-.09c-.18.06-.36.12-.54.19l.28-.1-.57.21.29-.11c-.15.06-.31.11-.46.17l.16-.06c-23.35 8.5-16.97 44.91 8.27 44.57Z" style="fill:#fff"/>
</svg>
