<svg xmlns="http://www.w3.org/2000/svg" viewBox="0 0 1024 1024">
   <circle cx="512" cy="512" r="512" style="fill:#fa8d29"/>
   <path d="m258 641.63 3.26-64.81A197.4 197.4 0 0 0 355.05 600c30.58 0 39.95-10.14 39.95-24 0-18.75-19.57-22.83-51.36-32.2-46.47-13.86-87.64-31.39-87.64-90.5 0-64.81 48.1-88.86 105.58-88.86 35.06 0 70.52 8.15 94.57 15.9l-3.26 62.37c-17.53-7.75-44-18.75-84-18.75C336.71 424 331 437.4 331 448c0 20.79 23.64 25.27 51.77 33.83 50.55 14.67 86 32.61 86 87.64 0 64-47.29 90.09-110.88 90.09-38.71 0-74.99-8.15-99.89-17.93Zm437.6 12.72V545h-96v109.35h-72.31V369.73h72.38v115.48h96V369.73H768v284.62Z" style="fill:#fff"/>
</svg>
