<svg xmlns="http://www.w3.org/2000/svg" viewBox="0 0 1024 1024">
   <circle cx="512" cy="512" r="512" style="fill:#42abee"/>
   <path d="M429.85 563.59H450v-41.53h20.77v-41.53H450v-20.77h-20.8V439h-61.64v41.53h-20.77v20.77H326v41.53h20.77v20.77h20.77v20.77h62.3m-41.52-102.55h41.53v41.53h-41.53ZM552.5 645.35h-20.12v-20.11h20.12Zm-225.83 40.89h20.12V707h-40.88v-20.76h-20.77v-40.89h20.77v20.77h20.77Zm-41.53-81.76H265v-40.89h20.12Zm103.18 122.64h20.12v20.77h-20.12Zm411.42-267.36V439h-10.38v-41.53h-20.77V439h-10.38v20.77h-20.77V379.3h-20.76v-20.77h-20.77v-20.77h-20.76V317h-20.77v-19.47h-20.77v-20.76h-40.23V256H429.2v21.41h-41.53v20.77h-20.11v20.12h-20.77v20.77h-41.53v20.77h-10.38V318.3h-31.15v20.77h-19.47v20.77H223.5v50.62h31.15V379.3h31.15v20.77H265v20.77h-20.74v41.53h31.15v-20.78h20.77v-20.76h20.77v-20.77h10.38v-10.38h20.77V379.3h40.23v-20.77h20.77v-20.77h62.3v41.54h40.23v20.77h41.53v20.77h20.77v41.53h-20.78v20.77h-20.77v62.3h20.77v20.77h20.77v18.17h81.76v-20.79h20.77v-62.3H718v20.77h20.77v62.3h19.47v-20.77H779v-62.3h41.5v-41.53m-185.59 62.95H594v-41.53h40.88Zm82.41 61.65h20.12v61h-20.11v20.77h-20.77v20.12h-20.77V707h-20.11v20.12h-41.53V707h20.77v-20.76h20.77v-20.12h20.12v-20.77h20.77v-20.11h20.77ZM429.2 747.88h144.06V768H429.2ZM388.32 707v20.12h-20.76V707Zm82.41-61.65h61.65v20.77h-61.65Z" style="fill:#fff"/>
</svg>
