<svg xmlns="http://www.w3.org/2000/svg" viewBox="0 0 1024 1024">
   <circle cx="512" cy="512" r="512" style="fill:#71c700"/>
   <path d="M512 456.56A54.45 54.45 0 1 1 457.54 511 54.45 54.45 0 0 1 512 456.56Zm0 163.35a54.45 54.45 0 1 1-54.45 54.45A54.45 54.45 0 0 1 512 619.91ZM348.64 456.56A54.45 54.45 0 1 1 294.19 511a54.45 54.45 0 0 1 54.45-54.44Zm0 163.35a54.45 54.45 0 1 1-54.45 54.45 54.45 54.45 0 0 1 54.45-54.45Zm326.71-163.35A54.45 54.45 0 1 1 620.89 511a54.45 54.45 0 0 1 54.46-54.44Zm3.34-161.37H345.31a51.14 51.14 0 0 0-51.15 51.15v4a51.15 51.15 0 0 0 51.15 51.15h333.38a51.15 51.15 0 0 0 51.15-51.15v-4a51.15 51.15 0 0 0-51.16-51.15Zm-3.34 324.72a54.45 54.45 0 1 1-54.45 54.45 54.45 54.45 0 0 1 54.45-54.45Z" style="fill:#fff"/>
</svg>
