<svg xmlns="http://www.w3.org/2000/svg" viewBox="0 0 1024 1024">
   <circle cx="512" cy="512" r="512" style="fill:#fb7701"/>
   <path d="M245.33 353.17s-10.882 15.055 2.083 31.68c2.366 2.494 8.044 9.512 5.678 18.378l-33.027 53.476c-2.65 4.34-1.513 9.975 2.65 12.838 8.518 6.003 25.74 14.223 55.456 14.316 29.715 0 46.843-8.312 55.36-14.316l1.325-1.016c3.123-3.047 3.784-7.943 1.323-11.823l-33.025-53.476-.19-.645c-1.704-7.943 2.65-14.223 5.205-17.086l.663-.646c12.965-16.625 2.081-31.68 2.081-31.68h-3.123l-3.122.092c-12.775.831-21.576 6.373-26.497 13.854-5.773-8.59-16.562-14.685-32.84-13.946m377.49 2.125c-9.463 8.959-11.639 22.074-13.437 36.02l-.852 6.465c-2.555 19.488-6.53 39.436-30.377 50.981-4.826 2.31-8.801-5.356-15.141-5.264-18.264.093-52.994 16.162-54.414 24.29-1.136 6.65 13.72 12.006 57.536 12.006 38.042 0 50.346-58 63.689-58s7.097 52.551 5.678 58h14.006c-1.23-5.449-2.083-21.98-2.083-45.348 0-23.274 4.164-28.539 7.57-46.087 2.934-15.332-19.777-28.63-32.174-33.063zm-234.63.033c-2.577.116-4.86.982-6.682 2.46-5.583 4.433-18.642 22.259-19.494 23.459-14.29 20.319-13.533 25.213 4.826 36.758 10.41 6.465 18.642-1.846 22.333-4.34-1.703 10.714-6.907 27.614-14.857 39.436-4.258-3.233-7.381-5.726-9.463-7.48-2.46-2.217-6.245-2.124-8.611.185-1.136 1.108-1.705 2.678-1.61 4.248a6.32 6.32 0 0 0 1.893 4.156c19.116 17.456 44.288 27.43 70.975 27.43 26.876 0 52.144-9.881 71.259-27.43 2.46-2.216 2.555-6.003.284-8.312a6.226 6.226 0 0 0-8.613-.278c-1.514 1.386-3.027 2.68-4.635 3.88l-8.329-18.658q-1.988-4.848-4.543-12.19c.852-2.033 2.556-3.972 5.11-6.558 1.799-1.847 3.313-3.603 4.354-5.357 5.583-8.774 2.366-13.947.757-17.364-3.974-8.128-10.22-5.448-14.762-.738-5.583 5.818-10.884 8.403-19.59 10.435-7.286 1.662-12.964.832-17.6-2.123-6.436-3.972-16.37-18.75-16.37-18.75-8.518-16.831-18.9-23.221-26.63-22.87zm332.3 1.906c-25.267 0-46.277 19.58-47.98 44.702l-2.839 40.452c-1.325 19.211 13.816 35.466 33.122 35.558h74.477c19.211 0 34.446-16.347 33.122-35.558l-2.839-40.452c-1.798-25.214-22.713-44.794-47.98-44.702zm45.139 30.27c3.928 0 7.855 1.085 7.855 3.255v1.11c0 18.472-15.047 33.433-33.406 33.433-18.453 0-33.406-14.961-33.5-33.433v-1.11c0-2.17 3.928-3.254 7.856-3.254s7.853 1.084 7.853 3.254v1.11c0 9.79 7.95 17.732 17.792 17.732 9.747 0 17.696-7.943 17.696-17.732v-1.11c0-2.17 3.928-3.256 7.855-3.256zm-535.62 137.64c-9.085 0-16.467 7.389-16.467 16.44s7.382 16.44 16.467 16.533h31.702v96.145c0 9.051 7.382 16.44 16.372 16.533 9.085 0 16.465-7.389 16.465-16.533v-96.145h31.702c9.085 0 16.467-7.389 16.467-16.533 0-9.05-7.382-16.44-16.467-16.44zm149.43 0c-9.085 0-16.467 7.389-16.467 16.44v112.68c0 9.051 7.382 16.44 16.467 16.533h89.144c9.085 0 16.467-7.389 16.467-16.533 0-9.05-7.382-16.44-16.467-16.44h-72.677v-23.367h63.308c9.085 0 16.467-7.389 16.467-16.533 0-9.05-7.382-16.44-16.467-16.44h-63.308v-23.367h72.677c9.085 0 16.467-7.389 16.467-16.533 0-9.05-7.382-16.44-16.467-16.44zm144.13 0c-9.085 0-16.465 7.389-16.465 16.44v112.86c0 9.051 7.38 16.441 16.465 16.441s16.467-7.39 16.467-16.44v-74.072l27.728 39.16c5.773 8.128 17.791 8.128 23.564 0l27.821-39.16v74.071c0 9.051 7.382 16.441 16.467 16.441s16.467-7.39 16.467-16.44v-112.86c0-9.052-7.382-16.442-16.467-16.442h-10.219c-3.975 0-7.666 1.94-9.842 5.08l-35.961 54.03-35.961-54.03c-2.271-3.233-5.962-5.08-9.842-5.08zm167.69 0c-9.085 0-16.467 7.389-16.467 16.44V610.3c0 40.176 24.605 60.68 64.824 60.587 40.219 0 65.676-20.318 65.676-61.602v-67.699c0-9.05-7.382-16.44-16.467-16.44s-16.467 7.389-16.467 16.44v68.9c0 21.611-12.207 32.786-32.269 32.786s-32.269-11.544-32.364-33.803v-67.883c0-9.05-7.382-16.44-16.467-16.44z" style="fill:#ffffff"/>
</svg>
