<svg xmlns="http://www.w3.org/2000/svg" viewBox="0 0 1024 1024">
   <circle cx="512" cy="512" r="512" style="fill:#a4b3ba"/>
   <path d="M589.59 560.91a106.54 106.54 0 0 1-38 7.48 91.47 91.47 0 0 1-36.12-7.5l-.94-.39c-4.28-1.84-6.12-4.06-6.12-8.94v-6.51c0-5.72 3.3-9.4 8.67-9.4l1.2.16.32.12a89.52 89.52 0 0 0 33 6.32 106.07 106.07 0 0 0 35.13-6.37l1.08-.24h.3c5.37 0 8.67 3.68 8.67 9.4v6.51c0 5.18-1.78 7.05-6.74 9.19zm-159.32-62.37c-3.65.77-6.37 3.65-6.37 8.9v10.91c0 4.12 2.53 6.95 6.47 6.95a10.23 10.23 0 0 0 2.93-.47l62.82-20.32c4.77-1.59 7.39-5.42 7.39-10.65v-9.06c0-5.24-2.62-9.06-7.38-10.65l-62.69-20.28a9.41 9.41 0 0 0-3.3-.65c-3.32 0-6.23 2.08-6.23 6.92v11.06c0 5 2.63 7.92 6.28 8.88l35.21 9.24zM747 434.26c-.62-77-63.4-139.36-140.51-139.36a139.92 139.92 0 0 0-63.92 15.37A140.05 140.05 0 0 0 446.15 272C370.7 272 309 331.73 305.77 406.4a145.64 145.64 0 0 0-74.57 127.07c0 80.26 65.27 145.53 145.52 145.53q5.7 0 11.39-.44A150.36 150.36 0 0 0 516.73 752h.46a149.64 149.64 0 0 0 124.94-67.4q2.93.12 5.86.12c79.87 0 144.81-64.95 144.81-144.81A146.23 146.23 0 0 0 747 434.26zm-99 212.25a107.88 107.88 0 0 1-13.68-.88l-13-1.66-6.25 11.48A111.48 111.48 0 0 1 517 713.79a112.12 112.12 0 0 1-100.94-64l-6.23-13.17-14.35 2.53a107.34 107.34 0 0 1-62.74-203.58l11.85-5.34-.61-13c-.07-1.58-.11-3.17-.11-4.74a102.3 102.3 0 0 1 180.63-65.8l11 13.09 14.23-9.5a102.29 102.29 0 0 1 159.06 85.1c0 2-.06 4.09-.19 6.11l-.6 9.74 7.54 6.19a107.92 107.92 0 0 1 39.06 82.46A106.74 106.74 0 0 1 648 646.51z" style="fill:#fff"/>
</svg>
