<svg xmlns="http://www.w3.org/2000/svg" viewBox="0 0 1024 1024">
   <circle cx="512" cy="512" r="512" style="fill:maroon"/>
   <path d="M362.78 669.07c-4.73-2-9.9-3.34-14.28-6.3 3.08 10.39 5.36 19.49 11.13 30.46 3.29 6.25 9-8.82 3.16-24.16M348.4 494.45l.36.36c-.07 14.1-39.69 34.33-56.66 43.43 26.24 9.06 51.07-15.31 48.1-9.38-3.56 6.91-35.6 34.55-49.56 49.33 10.89 3 20.86-5.76 28.75-12.48 8.61-7.33 23-25.75 20.81-16.61-23.28 28.73-41.62 88.43-30.32 92.24 6.47-13.52 33.25-82.49 34.94-82.18s-2.11 18.21-2.7 30c-1.31 26-1.49 38.31 4.13 63.89 2.89-4 5.67-3.87 10.26-3.55.57-2.48.4-1.85-2.48-5.65-7.44-9.85 1.11-23.3-2.47-31.49-3-6.85-4.67-1.37-6-8.49 2.1-1.9 7.64-2.48 9.91-2.83 2.43-26.7 11.36-40.28 8-23.44-1.71 8.51-4.3 22.66-3.06 23.09a11.44 11.44 0 0 1 2.41 1c.49.25 44.86-72.72 20.26-22.15-3.23 6.64-16.33 24.51-16.33 24.51 3.46 3.53 6.72 7.67 7.13 10.19.11.67 59.46-78.11 19-14.62-2.48 3.89-14.61 16.9-17.72 20.67-.41.51 1.13 14.76 1.13 14.76a101.7 101.7 0 0 0 19.1-18.39c-.55-8.06 1.34-7 1.78-14.87 1.88-1.2 4.34 2.16 7.31 4.82 1.41 1.25 40.73-67.21 16.07-15.85-4 8.25-12.72 18-13.11 18.8 1.66 1.78 4.13 7.42 6.95 14 .11.25 52.6-75.71 20.7-18.31-2.52 4.53-18.32 23.54-18.11 24 3.88 9.49 7.27 18.75 7.26 18.73-1-7.41-2.47-22 12.9-34 2 13.17 5.53 13.72 10.1 17.75 2 1.78 5.76 9.3 6.2 2.9 1.3-18.73-4.78-18.28-9.31-26.23-1.08-1.91-.88-6.19 0-5.93 37.8 1.13 36.54 36.54 42.85 36.51-2.88-9-3.65-17.9-.25-25.16-10.13-7.18-7.6-19.46-5.66-24.78-11.38-11.78-4.84-36.8.59-42.08-7.32-10.65 1.71-17.92-.23-24.45-3.08-23.13-23.69-16.25-28.31-38.24-3.22 3.91-9.18 17.25-6.38 21.68 3.2 5.08 10.08 5.52 10.49 9.24.17 1.58.69 6-.45 6.95-3.9.7-6.56-2.88-10.56-4.47-8-3.17-27.39 10.1-28.55-1.6-.73-7.37 2.53-2.06 2.17-8.89-.33-7-3.87-2.08-3.91-11.16 0-6.65 8-8.74 8.57-11.42 1.42-6.6 13.4 9.71 20.44-7.59-4.08.58-12.37-2.29-11.59-6.31 2.1-10.83 2.26-37-22.23-31.37-8.79 2-33.27 14.91-36.67.9-8.83 15.62 8.63 12.9 13.9 12.56-2.08 1.46-4.71 3.81-11.21 2.4-13.79 9.08-64.19 41.1-78.74 49.16 19.51 9.1 49.57-9.88 50-9.88m47.3 129.41c-6.84 6.83-9.21 7-8.84 10 1.54 4.17 4.55 7.11 7.76 10.68 4 3.3 5.53 6.26 2.57-3.35-1.83-6.38-1.37-11-1.48-17.29m110-149.25a13 13 0 0 0-6.23-6.67c-12.25-5.83-35.71 6.77-35.45-11.59 0 0-8.39 6.23-4.56 12.75 8.73 14.9 33.07-3.6 46.24 5.5m-184.3-183.58c-20.51 0-20.94 31.4 0 31.4 20.61 0 20.61-31.4 0-31.4m0 62.73c-21.42 0-21.42 31.4 0 31.4 20.73 0 20.61-31.4 0-31.4m21.48-36.36h18.26v-18h-18.26Zm0 62.56h18.26v-18h-18.26Zm49.77-19.62c-8.2 5-6.74 10.57-4 14 1.48-1 6.78-4.62 8.94-6.79-1.25-.75-4-5-4.9-7.18m19-27.78a37.76 37.76 0 0 0-.26-4.28c.22-1.61-2.84-5.32-3.69-5.37s-3 1.84-4.22 3.69a5.66 5.66 0 0 0 .58 5.4c2.6 2.94 3.81 3 7.59.57m.06 8.85v-7.13c-2.55 1.58-3.58 2.79-6.21 1.23-4.3 3.48 2.26 5.62 3.65 6.8a11.14 11.14 0 0 1 2.58-.87m33.35-50.34c1.45-1.06 4.89-5 7.12-7.14-1.26-.76-3.52-2.32-4.41-4.52-3.94 3.14-4.68 5.32-2.71 11.66m29.14 3.78c-2.41 1.9-4.55 3.61-5.7 4.6.87 1.65 6.44 5.68 9.56 4.25s4.53-4.47 1.69-6.08a51.69 51.69 0 0 0-5.55-2.77m2.37-4.88 3.25-2.61c-2.16-2-5.78-4-7.42-4.18s-4.9 1.24-3.62 2.93 2.52 3.62 5.19 4a8.52 8.52 0 0 0 2.6-.14m8.54 81.15a31.31 31.31 0 0 0 0-5.52c.26-1.63-4.79-4.68-5.61-4.68-1 0-1 .57-2.25 2.49-.6 1-.11 4.13.41 4.58 2.76 2.41 4.91 3.18 7.42 3.13m-6.64.45c-4.36 3.64.55 7 1.89 8.17a43.71 43.71 0 0 1 4.89-1.6 5.7 5.7 0 0 1-.48-1.83c0-.65.11-2.1.23-3.66-2.91.29-4.23.49-6.53-1.07m-9.65 5.7-2.69 3-2.57 2.61c-2-2-3.41-2.41-3.76-4l-.1-13-4.07-2.11c-1.9 1.58-3.34.89-1.71-.53l6.15-5.76 1.49-.2 3.93 5.77.1 12.3c1.6 1.47.19 1.43 3.22 2m-1.35-39.83c-2.08-5.76 1.69-11.13 3.53-12.68a87.57 87.57 0 0 1 7.09-5.53c2.14 1.3 3.77 2.23 4.87 2.73-.39 1.06-.87 3.16-3.13 3.26-3.43.1-6.09-.82-7.95 1.18s-.41 7.61 1.9 9.75c1.71 1.65 6.46 3.76 7.33 1.83 1.14-2.5 2.82-1.19 1.18 1a56.1 56.1 0 0 0-4.2 6.52 11.82 11.82 0 0 1-10.62-8.06m5 40.54c0-3.19 1.63-5.73 3.85-8a2 2 0 0 0-.42-.31c-.64-.54-1.7-6.15-.88-7.33 1.07-1.54 6-6.31 9.37-6.65 2.29-.25 5.68 4.71 7.66 6.91-.55.64.69 14.29.69 15.58.69 1.12 3.07 1.91 3.79.83.94-1.2 1.83.07.94 1s-4.32 3.6-5.38 4.89c-1.54-1.2-4.09-2.54-5.76-4.54-3.4.64-6.91 3.1-9.66 5.11-3.08-1.37-4.09-4.4-4.2-7.43m27.65-34.7-2.75 3-3.47 3c-2-2-3.38-2.59-3.71-4.19l-.12-13.4-3.19-2c-1.85 1.65-3.35.94-1.69-.55l6.19-5.71 1.43-.19 2.69 4-.12 14.23c1.65 1.48 1.65 1.26 4.73 1.84m-3.35-43.84c-7.44-.77-5.52-3.11-4.24-3 6.95.42 5.4 3.14 4.24 3m.12-4.43c-7.42.28-5.49-3.11-4.26-3 6.27.35 5.42 3 4.26 3m-6 16 3.19 3.3v3.41l-2.38 2.16h-2l-2-2-.06-4Zm-3.3-27.16a74.22 74.22 0 0 1-7 5.95 4.54 4.54 0 0 1 1.53.49c5.4 3.16 7.24 7.6 1.94 11.8-2.91 2.34-7.62 5-12.73 5.07-3.37.08-9.38-2.76-10.48-4 2.75-2.58 5.71-5.4 7.85-7.21-3.34-2.57-6.48-6-3.91-10 1.93-3 7.84-7.73 13.1-7.51s7.57 3.85 9.73 5.34m-28.13 17.28c-1.46.72-4.41 3.78-6.77 3.78-7.08-.29-16-5.43-14.69-14.95 1.37-9.91 9.18-13.7 12.52-13.8 3.84.28 4.73 3.58 6.89 5.58-3.26 2.69-8.63 8-11.79 11.18.78 1.67 4.43 7.94 12.24 6 3.56-.79 4.73.72 1.6 2.25M436 285.49a54.31 54.31 0 0 1-5.4 4c-1.51-.89-3.37-3.6-4.31-4.32a13.09 13.09 0 0 1-2.17 1.35c0 1.78.08 17.9-.1 19.74a23.63 23.63 0 0 1-5.83-.07c-.18-2.36.16-15.21 0-17.29-.19-2.57-2.44-2.73-5.43-3.6a42.09 42.09 0 0 1 6.26-5.46c2.57 2 4.14 2 5.43 3.48a49.49 49.49 0 0 0 5.86-3.75c1.2 1.42 3.47 3.75 4.35 4.81 1.18-1.14 2.61-.19 1.28 1.12m-24.65 33.29c2.26-.25 4.17 4.36 6.19 6.55-.58.63-.58 14.26-.58 15.55.47.78 2.07 1.67 2.72 1.07 1.11-1.07 1.81 0 .87.89s-5.32 4.72-6.44 6c-1.55-1.18-2.11-2.93-2.32-5.29a11.16 11.16 0 0 0-6.89 4.65c-3-1.38-5.4-4-5.49-7s2-4.84 4.25-6.91c-.39-.3-.73-.57-1.18-1-.63-.54-1.46-5.47-.87-6.83 1.46-3.43 6.35-7.39 9.74-7.71m-4.49-7.19c-1-1.47-1.25-2.77-3.31-2.2-5.2 1.51-10.91 3.07-15 .65-4.41-2.71-8.2-3.55-8.31-13.6-.1-6.11 5.3-11 8.83-13 4-2.3 10.89-.82 14 .11 1.49.47 2.65.3 2.75-1.65 0-1.07 1.7-.81 1.66 0s-.06 13.24-.06 14.23-2 1.06-2 .13a39.41 39.41 0 0 0-1-6.26c-.69-3.26-9.21-9.25-15.35-1.2-.14.39-2.63 4.62-2.3 7.9.2 2.44.6 5.89 2.24 8.15 4.83 6.84 11.69 4.54 15.29-1 1.3-2 1.08-4.5 1.18-6 0-.87 1.94-1 1.94 0s-.1 9.24-.1 10a4.83 4.83 0 0 0 1.37 2.72c1.22 1.84-.14 3.29-1.83 1m-26 13.19c2.41-3.58 8-7 11.87-8.39 1.22 1.43 2.67 3.61 4.47 6a34.45 34.45 0 0 0-4.72 4.52c-.83-.94-5.43-7.8-8.66-3-1.77 2.57-3.62 10.06 2.37 14.7a12.13 12.13 0 0 0 10 2.28 27.46 27.46 0 0 0-3.69 5.72c-5.79 1-8.14-.82-11-3.19-6-4.91-4.13-13.3-.65-18.62m2.48 46c1.46-9.95 11.09-14 14-16 .52 2.88 3.85 7.91 6 9.94-3.26 2.67-10.77 8.95-13.66 11.13 1.58 2.89 7.54 5 9.54 2.77 1.48-1.48 3.3-1 1.65 1a45 45 0 0 0-5.48 8.26c-4.34-1.85-13.36-7.54-12.07-17.1m23-8.31a79.72 79.72 0 0 0 6.08-5.54c1.63 2.58 2.36 5 3.83 6.09 2-1.66 5.2-3.71 6.66-5.32 1.43.71 3.93 2.2 4.11 7.3s.81 13 .81 14.8c0 .93.25.65 1.75.33s1.94.33.87 1.25-6.09 4.37-7.43 5.86a11.5 11.5 0 0 1-1.36-8.92c.58-2.67.08-9.92.08-11.57s-2.49-2.19-3.55-3.11a22.19 22.19 0 0 0-3 2.53c0 2.19-.28 17.46 0 19.46-3.44.13-3.08-.07-5.08-.07-.16-3-.06-14.73-.23-17.26s-2.36-4.37-3.62-5.83m26.73-17.85c-1.47 1.3-4.71-.76-5.9-2.73-1.85-3.13-1.28-10.53-1-16.5.24 0-1.06-1.48-2.31-1.72-1.58-.4-1.85-1 .59-2 3-1.18 7.65-8.39 8.31-10s1.48-.08.6 1.47c-1.85 3.58-1.1 7.72-.78 9 .19.55 5.85-.23 7.07-.23.79 0 .7 2.41 0 2.35-1 0-8.39.9-8.39.9-.52.26.59 11.92 1.35 12.81.1.13 2.43 2.17 3.32 1.29 1.12-1 2.2.07.88 1.16-.69.55-2 2.87-3.67 4.24m3.1 17.46c2.29-1.66 6.18-8.85 6.7-10.48s1.45-1.1 1.28.69c-.2 2.54-1.38 8.2-.93 9.36.22.57 3.82.53 5 .53.78 0 .86 2.34.1 2.34-1 0-5 .59-5 .59-.57.25-.26 8.65.52 9.53 1.63 1.55 2.87 2.63 5.07.29 1.07-1.1 2.19-.08.92 1-.69.64-3.73 4.36-4.42 6.19s-4.72.42-6-1.47c-2-3-1.17-9.22-1.32-15.21.37.11-3.87-1.91-1.91-3.38m27.46-11.16c-1.87 1.77-3.36 3.44-5 5.25a59.55 59.55 0 0 1-5.19-4.2 10 10 0 0 0 5.09-4.7 6.66 6.66 0 0 0 5.07 3.65m-12.32-29.64c4.31 1.37 10.69.36 12.72 6.09 2.16 6-1.77 13.81-6.78 14.16-4.22.35-8-1.06-10.37-.87-1.1.1-1.89.43-2.07 1.61s-1.83 1.83-2.16.16a94.42 94.42 0 0 1-.84-10.49c0-2 1.84-2.2 2.19 0a9.68 9.68 0 0 0 2.66 5.52c1.28 1.47 9.54 3.5 12.57 1.08 2.44-2 1.87-6.26-.69-7.92s-12.75-4-14.5-7c-3-5 2.34-9.16 4.67-10.53 3.65-2 7.89-1.38 9.35-1.35s3.32.48 3.43-1.08 1.28-1.4 1.43.2c.48 4.47.9 1.78.78 6.53 0 2.18-.78 2.2-1.71.53-.6-1.1-6.9-6.36-12-3.08-4.32 2.84-2.69 5.32 1.28 6.41m16 77.83c22.44 1.49 41.54 11.86 41.54 11.86V266.31s-33-23.09-86.56-2.42c-15.75 6.07-54.12 1-54.12 1v147.8c33.65 2.28 77.46-15 99.15-13.6m52.8 47.56c0 1.93-2.47 4.61-2.47 4.61l8.94-4.52c-1.79-1.18-6.82-4-8.94-4.62 0 0 2.46 1.91 2.47 4.53m13.3-.14c-8.23 1.59-14.38 10.6-23.74 6.74-1.22-.79-3.76-1.48-3.42-3.34a19.6 19.6 0 0 0 6.13 1.85s-5-4.15-.6-9.29c-5.65 3.55-7.62 2.59-7.62.71 0-.86 7.39-6.24 14.37-3.6 5 1.91 9.37 5.77 14.89 6.55v.36Zm-23.06-17c-4.62.52-10.25 3.25-11.66 8.14-2.82 2.78-2.69-4.68-8.42-1.41-2.43 3.31 3.93 10.61 2.41 11.06-6.24 1.9-5.46-9.36-9-9.65-5.13 1.82-18.05 13.62-5.35 23-.4-6.31 11.55-13.19 15.5.76 12-.92 16 6.36 17.5 10.47 17.67 3.14 12.58 14.85 12.08 14.85-1.67-2.52-9.27-14.22-21.71-6.14-2.88 1.87-7.88 3.7-10.33 1.23.24 3.93 5.2 7.47 8.59 6.53 11.06-3 13.85 7.26 5.38 10.08 1.82 2.82 5.3 2.65 8.5.7 4.76-2.89 5.31-5.48 7-7.21 3 14.4-15.23 15.8-21.05 16.67.89 3.06 2.85 3.73 6.53 4.82-19.26.65-23 18.71-21.89 29.13 4.35.33 11-9.09 10.44-3.7-13.72 14.45-18.27 33.8-11.09 46.16 3.42-1.38 4.47-5.15 5.68-8.23.52-.36 7.51 2.75-3.67 16.17-.78 3.49-4.71 14 3.91 16.53 3.29-3.88 2.81-7.26 3.53-11.24 2.5-1 4.15 7.12 3.19 9.59-11.25 4.65-9.85 39.13 3.18 57.66-6-13.46-5.23-30.75 0-44.56 4-10.66 12.86-34.64 13.09-34.36 5 6.15 11.34 32.59 11.34 43.54 7-6.12 8.41-12.81 14.16-17.33 2.73 9.6 3.83 15.93 6 24.41 2.79-8.27 10.18-17.62-.39-44.45 2.17-2 6.17 9.3 7.43 8.76 1-.37 2.4-6-1.19-16.5-7.41-6.92-9.07-17.09-7.9-17.85 1-.63 4.29 10.53 8.23 11.1.79-8.67 2.9-17.52 2.25-24.24-.14-1.76-3-10.69-11.25-18.1-4.73-4.28-6.58-13.21-6.14-15 4.59 4.23 3.59 7.32 7.48 9 1.63-3.64.52-17.11-4.22-23-2.71-4.47-1.42-3.85 1.81-1.14 4.23 5 2.19 4.62 5.84 6.73 8-18.86.73-22.53 1.29-23.87s6.19 8.8 11 5c-7.88-4.15-7.66-10.48-8.54-17.31-.69-5.4-4.17-7.42-2.83-8.73 7.85 5.93 10-.64 10.26-2-1.51.87-8.5 1.78-9.36-9.08-.34-4.29-6.91-6.18-6.9-6.17 4-.77 17-1.49 13.9-14.34-1.57 3-5.42 7.8-13.46 5.93a6 6 0 0 0 4.23-7c-12.39 7-22.48-7.25-35.47-5.41m109.94-133.3c2.07 1.71 7.77 4.4 10.67 5.43a43 43 0 0 0-.22-6c.19-1.64-5.61-4.74-6.52-4.74s-2.54 1.64-3.87 3.6c-.67 1.06-.61 1.31-.07 1.75m6 15.54a12.09 12.09 0 0 1 4.74-1.41 18.54 18.54 0 0 1-.14-2.44c0-.72.06-2.71.1-4.91a50.49 50.49 0 0 1-8.61-3.75c.4.25.84.47 1.25.72-3 5.55 1.08 10.5 2.66 11.79m.16 30.46c1.26 3.26 6.79 7.51 8.3 8.26 2.31-2.77 3.54-7.84 3-12.13-.37-3.3-4.64-6.89-8.29-8.24-4.67 2.84-4.67 7.7-3 12.1m-73.57 31c-2.73 5.19-.47 6.26 1.06 7.53a38.6 38.6 0 0 0 5-2.79c0-.94.06-2.7.07-4.65-3.11.34-4.12 1-6.12-.08m6.13-1.43a44.51 44.51 0 0 0-.2-5.7c.19-1.69-3.44-4.18-4.4-4.24s-1.87.4-3.17 2.37c-.65 1-.49 5.18.07 5.62 3.06 2.59 5 2.28 7.7 1.94m4.52 13.33c-2-1.52-3.67-1.88-4.31-4.26-5.12 2-7 4.94-10.12 7.07a11.31 11.31 0 0 1-3.35-7.78c-.06-3 2.94-7.15 4.62-8.74-.2-.19-.31-.2-.55-.43-.67-.55-1.61-5-.71-6.2 1.13-1.63 5.68-7.88 9.27-8.17 2.47-.23 4.38 2.83 6.48 5.07-.53.6-.3 11.5-.39 12.84 2.29 2.46 3.23 3 4.6 2.11s1.93 0 1 .92-5.31 6.27-6.52 7.59m12.4-21.7c.36.1-5.06-2.06-2.73-3.2 4.08-2 8.09-6.24 8.72-8s2.17-.9 1.36.77-1.36 5.74-.9 7c.18.54 3.26.83 4.65.86.78 0 .73 2.43-.06 2.43h-4.84c-.55.26-.14 13.67.18 14.81s3.6 1.88 4.76.78 2.4 0 1 1.1c-.72.63-3.16 4.43-5.07 5.19s-5-.52-6.25-2.46c-2.1-3.19-.86-13.22-.78-19.35m9.07-18.34a26.22 26.22 0 0 1-7.24-6.92c-3.11 4-3.85 7.37-9.53 8.84 3.29-2.75 6.31-8.84 6.07-14.66-.25-5.25-3.11-7.8-5.61-8.78-2.17 1-4 2.46-5.17 2.94s-1.52-1.38-.66-1.79a62.18 62.18 0 0 0 9.67-6.88c2.58.46 5.76 2.69 6.21 4.77 2-1.19 5.41-5 6.44-5.82 1.18 2 4.66 4.59 8.53 6-3.54 6-11.4 2.41-12.54.93-1.28 2.11-1.57 3.38-.3 6.06 1.61 3.61 8.08 7 11.43 7.92-1 1.08-5.67 6.3-7.31 7.39m5.44 21.45c2.35-2.61 4.87-4.29 6.3-5.74a16 16 0 0 1 4.64 5.06c0 3.32-.75 10.38-.53 12.84s9.66 4 10.08.47a63.75 63.75 0 0 0 0-10.12c-.18-1.61-3.93-2.37-5.84-2.11 2.57-2.7 4.74-4.67 6.37-6.15a26.89 26.89 0 0 1 5.9 6.26c-.06 3.59-.69 11.93-.18 14.14s.42 2.44 2.14 3.6c-1.76 1.64-3.07 2.36-4.26 3.66-1.79-.52-4.83-3.22-4.64-5.62a53.87 53.87 0 0 1-10.95 4.78c-2.32-2.42-4.09-3-4.25-6s.67-10.84-.28-12.69-2.57-2.26-4.5-2.41m30.28-25c.23-7.62 5.27-14.08 13.45-17 6.44 2.16 9.14 8.67 9.36 13.07.16 3.58-2.22 8.27-3.81 11.18a56.56 56.56 0 0 0-7.5 6.46c-7.85-.06-11.66-9.25-11.5-13.72m1 29.38c2-1.11 6.56-5.34 8.18-6.43a40.15 40.15 0 0 1 5.71 5.6 41 41 0 0 0 5.88-4 40.61 40.61 0 0 1 5.94 5c1.23-1.14 2.76-.24 1.35 1.17s-4.41 3.94-5.58 4.84c-1.71-.92-4.65-4.3-5.62-5a17.57 17.57 0 0 1-2.31 1.36c0 1.85 0 17.1-.12 19a25.42 25.42 0 0 1-6.26 0c-.16-2.42.1-15.64 0-17.78-.13-2.6-4.34-3.52-7.15-3.59m30.66-27.13a27 27 0 0 1-4.94-.73c-1.67-.51-1-2.35.41-2.35a17.56 17.56 0 0 1 4.41.78c1 .39 1.35 2.46.12 2.3m.12-4.55a25.41 25.41 0 0 1-5-.73c-1.67-.45-1-2.36.39-2.36a16 16 0 0 1 4.5.78c1 .39 1.38 2.43.08 2.31m-12.08-29.13-5.88 6.43a7.36 7.36 0 0 1-3.25-4.71c-4.5.88-7.56 3.55-9.63 5.17-1.87-1.67-4.66-6.18-4.68-9.26s2.35-7.61 4-9.19a3.75 3.75 0 0 1 .48.26 20.92 20.92 0 0 1-2.61-1.76 2.69 2.69 0 0 1 0-3.31c1.16-1.54 4.82-6.12 8.41-6.67 1.9-.25 5.12.24 9.54 4.19-.57.69-.57 13.55-.57 14.9a31.71 31.71 0 0 0 4.17 4m-38.92 23.19c-.94 4.77 3.17 8.66 6.31 10.32 2.53 1.31 6.86.58 7.95.41s.75-.47 1.53-1.19 1.72-.07 1.08.66-7.08 6.82-8.84 8a7.5 7.5 0 0 1-7.31-2.4c-3.77-4.73-6.5-6.44-5.32-15.07.83-5.83 10.57-10.89 12.81-12.14.89.88 5.32 5.54 7.26 7.11-.76 1-3.2 2.07-5.56 2s-4-2-5.62-3.79c-1.12 1-3.59 2.49-4.29 6m12.67-46.91c-1.1 0-12.08 1.32-12.08 1.32-.58.26.57 13.87 1 15s1.4 2.83 2.64 1.75 2.43.73 1.1 1.83c-.77.61-3.19 5.43-4.31 6.13-1.73 1.11-4.25-2.49-5.06-4.72-1.32-3.71-2.2-13-2.19-19.18.39.11-5.14-2.19-2.65-3.16 4.83-2.08 9.48-8.49 10.07-10.15s2.13-1 1.35.7c-1.6 3.36-1.43 5.78-.75 7.77.24.53 9.53.34 10.92.34.76 0 .72 2.41 0 2.41m-25.64 16.8-4.54 5.9h-4.23c-2.1-2.1-3.49-3.73-3.9-5.43l-.23-14.16-5.27-3c-1 1.32-2.93 1.32-2.18.22l7.27-6.38 1.59-.18 4.64 4.64-.08 14.63c2.28 2.61 3.64 3.23 6.94 3.79m-5.91-28.82-2.55 2.22h-2.11l-2.11-2.1-.08-4.11 3.42-2.9 3.44 3.34v3.55Zm-14.63-.3c-2.53.75-4.34 3.26-5 5.84s-9.09 27.55-10.1 29.19c-2.06-7.78-10.67-26.3-13.42-30.24-2.37-3.48-4.64-2.84-6.82-2.9s-1.31-2 .42-1.85c2.4.3 16 1.49 19.85 2 1.38.28 1.42 1.53-.4 2.1-.94.24-3.12 1.3-3.12 2.36 0 1.47 4.94 12.32 6.3 14.36 1.16-2.79 5.82-14.66 4.88-17.27s-1.38-3-3.32-3.2-1.94-1.36.4-1.72a66.62 66.62 0 0 1 10.72-.67c1.94.17 2.18 1.28-.42 2m-30.79 44.79c4.28-2.34 13.86-3.82 17.16-2.78 1.66.45 3.35 0 3.35-.77 0-1.12 1.54-.82 1.54 0s0 11.32-.12 12.31-1.52.9-1.52 0c0-1.52 0-2-1.31-4-3.83-5.77-14.44-6.26-19.69.69-1.81 2.32-2.47 6.39-.45 7.07s9.51.06 12-.39 8.5-1.45 9.2-1.94 1.64-1 1.64.19 0 5.23-.06 6.44-1 .64-1.59.17-6.41-1-8.88-1.14c-4.12-.35-10.34-1.64-12.38-1s-.45 3.78 1.34 6.17c5.18 7 14.86 7.23 18.73 1.51 1.42-2.07 1.42-2.5 1.42-4 0-.93 1.58-1.1 1.58 0s-.08 9.66-.08 10.5-1.61 1.1-1.61 0c.07-1.84-1.08-1.72-3.22-1.1-5.62 1.49-13.11 2-17.58-.53-4.71-2.71-8.83-3.59-8.95-13.95-.11-6.26 5.73-11.26 9.53-13.44m-7.72 31.84c1.41.13 5.62.22 7.12.22-.18 3.14-.18 25 0 27.2s2.14 3 4.09 2c1-.39 1.85.3.59 1.35-2.16 1.59-4.76 5.37-5.95 6.83-2.47-1.67-5.15-3.81-5-5.82.3-3.53-.77-28.88-.89-31.83m31.7 48.44c14.87 0 73.35 16 101.53 14.13V266.12s-41.5 5.86-77.4-7.39c-29.32-10.81-69.63 8.08-69.63 8.08v144.25s14.82-12 45.5-12m106.77-44.46v28s15.64-.13 33-11.3c5.2-3.36 12.9-2 16.73 1.06s-2.34-18.33-17.87-16.07c-28.58 4.17-31.88-1.7-31.88-1.7m49.73-40.54c.25 1.79.42 3.07.54 3.89-.11-.83-.29-2.1-.52-3.89 0 0-.89-16.5-18.57-16.5-5.77 0-12.77 7-30.67-.75v28c7.26 2.14 27.16-9.22 35.11-12.69 5.67-2.48 13.72-.87 14.11 1.94M697.94 608.2c-1.17-44.31-28.35-93.44-21-84.3 18.51 22.87 24.45 72.44 37.14 115.12 0 0 8.15 4.15 6.42-50-.37-11-4.84-25.57-10.26-35.74-10.77-20.11-32.53-54-31.9-54.27 5.25-4.26 18 25 29.14 36.48 7.21 7.44 27.24 14.74 28.63 13.77-16.07-31.13-55-60.46-50.91-64.08 28.65 26.84 37.68 28.12 38.87 26.7l-25.8-25c-7.27-9.77-16.92-17.28-15.57-17 11.5 2.55-6-9.56-19.53-13.26-2.43-.66-6.35-.87-6.48-2.1-.22-2.08 3.18-1.2 6-2.08a4.83 4.83 0 0 0 3.77-4.62c-5.17 1.13-10.45-.06-14.89-2.07-9.12-4.24-25.46-9.15-33-6.19-4.41 1.73-5.24 1.48-10 5.14-2.08-.87-7.84-4.55-16 5.27-2.52 3-5.55 6.59-5.7 9.19-.35 6.58.14.34 1.76 6.58.65 2.61-2.31 7.41-14.32 11.44a5.11 5.11 0 0 0-3.47 6.14c2.3-1.11 5.94-3.7 11.55-1.07 11 5.14 13.11-3 19.93-8.77 0 0-1.88 7.29 0 7.67 8.51 1.76 5.67 8.15 4.6 9.12-10.74 9.59-6.24 13.2-10.08 19.11-3.6 5.59-9.18 7.7-17.5 7.43-11.46-.36 15-17.68-10.31-24.88 4 6.62 5.58 12-3.28 17.1-5.59 3.24-2.75 19.71-17.06 12.08 0 0-1.17 12.2-2.81 12.73 19.44 17 8.57 26.33 9.56 50.63 6.08 15.49-.6 22.86-2.12 23.71 1 10.49 2 16.23 8.5 24.76 4.76 6.2-.43 15.72 4.41 22.34 4.46-15.8 9.24-9.21 10.53-31.17 1.78-3.69 9.16-10.19 13.37-10.61-.06 13.25 4.83 25.3 3.78 30.88 0 0 11.18-2 14.62-.81 2.75.94 4.87 4.54 4.95 6.74-3.79 2.38-3.81 1.46-9.54 5.66-10 7.3-14.64 22.2-14.64 22.21s23.57-18.8 25.27-22.21a75.94 75.94 0 0 0 3.87-11.1c.13-.46-12.15-7.64-15.52-14.2-10.55-20.51 16.33 12.14 17 9.3 1.58-7.08 6.5-13.77 6.5-13.77-1.71-2-5.93-3.28-12.34-14.6-14.7-25.89 17 11 17 11 8.42-4.82 8.47 1.61 9.53 8.43.11.64 14.28 11.09 15 11.77a41.41 41.41 0 0 0 8.54-12.27c.22-.47-25.62-23.38-30-30.94-35.6-61 28.81 27.1 31.85 24.68 1.7-4.78 2.29-11.34 2.08-20.24 0-.22-12.12-8.57-19.86-21.38-29.91-49.4 19.63 14.74 19.61 14.28-.59-10.59-9.25-56.46-3.26-42.67 3.07 7.08 12.72 36.39 10.93 66.24 3.36-5.43 17.16-10.95 22.4-12.31m-56.11 48.7s-4.76-3.6-5-2.9a74.26 74.26 0 0 1-3.2 7.21c-1.24 2.49 2.49.71 8.23-4.31m-1.9-18.43c-.59 4-.59 7.15-1.85 11.71-.12.45 4.52 2.31 6.62 4.12 3-2.77 5.61-4.17 8.73-8.06-.7-.43-13.08-11.21-13.1-10.74a23.18 23.18 0 0 1-.4 3M678.28 664c5.52-4.64 8.67-12.54 15.75-14.89-5.36-4.9-10.6 4.87-13.33 1.47 4.91-7.78 8-13.69 8.57-23.4.28-5.25 6.35-10.13 7.78-13-5.84.86-21.46 10.06-24.62 15.35-10.5 13.87-9.95 26.89-53.86 46.27-2.18 0 8.12-7.5 11.06-16.17 1.38-4.06 7.17-22.88 3.18-32-9.08 9.21-7.21 12.22-9.78 19-6.54 18-10.13 19.65-26.52 30.73-2.18 1.47-14.73 20.87-31 21.81 1.65-.46.71-4.49 6.21-8.09 18.25-11.95 11.3-37.77 35.12-42-11.86-4.22-20 7.32-22.17 6.17 9.6-13.3 1.16-24.54 2.55-35.41-3.2 1.71-6.41 5.6-6.71 8.8-1.79 19.35-10.81 22.71-11.73 31 1.91 13.79-9.16 24.53-17.28 34.21-1.57-8 .53-15.17 10.66-21.82 5.59-3.66-.53-14.66-.53-14.66-2.26 12-9 15.73-13.26 16.32-3.66.53 12.92-16.85 11-32.73-.86-7.07-2.88-3.93-4-11.86-14.32 15.88-3.84 25.75-18.5 44.07-6.95 8.68-9.56 24-10.48 24.35.16-22.75.89-16.1 11-34.58 8.32-15.2-.46-29.37-1.59-38.54-18.21 12.52-16.69 36.72-17.16 31.48s-2.72-14.21-.28-22.42c4-13.62-4.54-34.38-4.54-34.38-25.48 40-4.11 86.67-5.7 86.09-11.07-17.31-19.12-18-21.54-31.28-1.31-7.23-14.44-46.81-38.56-47.51 12.16 10.48 9.21 11.91 10 29.07-7.74 42.95 52.34 47.4 48.32 69.67-8.24-13.2-20.81-18.76-39.74-29.07-8.39-6.65-17.86-9.59-18.37-20 1-7.55 1.45-6 .14-15.82-.94-7-7.84-2.77-12.91-17.41-10.85 9.8-6.88 20.92-6 27.25.25 1.79 1.49 8.48-.18 12.36-3.87-2.66-6.53-8.14-10.85-13.62-7.78-10-7.68-22.05-11.6-30.46-1.81-3.9-4.38-9.19-5.91-9.26l-.28.16c-1.9 15.62-1 29.25 6.11 41 0 0-2 3.36-3.53 4.23-6.75-1.8-16.3-7.48-20.22-18.48-8.37 7-2.43 16.11-2.83 16-18.81-9.63.22-47-26.57-45.88 6.6 7.19 2.43 16.44 1.85 25.06-.14 14 17.64 24.89 17.64 24.89-19.85-6.71-23.93 2.59-23.69 2.59 0 0 29.23 12.69 75.39 17.49 5.93.63 14.39 7.6 13 7.6-5.93-.47-17.65-8.1-34.58 6.91 10 .26 16.78 16.47 33 7.18 41.76-11.81 57.24 8.91 64 14.25-1.46 2.61-32.09-19.24-56.41-4.76-12.93 7.71-33.7.73-50-11.44 6.58 16.76 34.54 35.66 43.78 35.68 11.34 0 25.83-14.8 42.27-14 26.34 1.3 30 24.82 27.08 23 0 0-20.73-34.27-47.35 2.34 12.44-5.71 29.1-4.24 43.67 2.66 2 .94-3.58 7.06-7.49 11.53-2.55 2.89-13.67 19.37-25.69 3.16-1.79-2.41-7.53-17.46-45.1-14.26 14.19 6.39 29.85 23.19 37.59 30.85 19.69 19.49 49.45-23.65 50.59-18.84 0 9.68 5 14.4 7.6 19.64 6.59 13.19-8.38 11-16.5 7.6 0 0 15.54 24.21 28.54 10.73 14.5-14.88-18.79-26.14-8.19-37.98 5.95-6.68 26.84 14.95 36.31 15 25.54 2.84 24.21-21.4 37.69-20.7-12.68-12.85-26.17-5.85-29-2.57-8.5 9.92-18.37 3.26-25.19-2.08-3.76-4.91-10-5.67-15.57-4.18-2.65.22 5.36-9.38 15.76-7.36 23.5 4.56 47.05-3.87 52.83-7.11 9.45-5.32 14.75-14.33 25.33-24.39-3.3.64-22.83 11.5-29.12 14.68-18.84 9.48-30.6-2.82-32.72-2.76-3.61.11-2.69-2.73 3-4.56 19.3-4.3 32.65-21.34 51.06-28 20.32-9.14 46.1-3 63.3-20M670.89 697c7.7-11 12.12-22.87 14.72-35.66A43.68 43.68 0 0 1 668 675c-4.65 14.72-2.46 29.9 2.94 22.07m70-121.45c-19.26 206.38-192 241.44-228.8 248.15-2 .36-208-25.76-228.77-248.13v-328.1s196.77-25.41 457.46 0v328Zm12 1.89V235.8c-274.51-26.47-481.69 0-481.69 0v341.73C293 809.16 510 836.37 512 836c38.75-7 220.64-43.56 240.83-258.53" style="fill:#fff"/>
</svg>
