<svg xmlns="http://www.w3.org/2000/svg" viewBox="0 0 1024 1024">
   <circle cx="512" cy="512" r="512" style="fill:#171a21"/>
   <path d="M504 459h-62l-18 69h28l58-60zm229 0-17 69h21l17-69zm40 0-17 70h46l2-9h-26l12-50h26l3-11zm-642 0-2 7h20l-15 62h21l15-62h17l2-7zm66 0-17 69h21l7-27h20l-7 27h21l17-69h-21l-8 31h-20l8-31zm80 0-15 59 6 10h50l18-69h-21l-15 59h-18l14-59zm78 0-17 69h21l12-48 6 48h29l17-69h-21l-13 53-8-53zm229 0-17 69h21l15-61h21l-23 28 12 33h21l-13-33 30-36zm249 0-17 69h21l8-30 18 30h21l-20-34 32-35h-21l-28 32 8-32zm-174 0-17 69h21l5-20h19l40-49zm-114 0-53 45 1 2h34l-40 20 1 2h33l-57 34 1 2 90-38 3-11-25.4.124L562 499l2-6h-37l45-34zm-84 9h28l-39 40zm216 0h22l-31 38z" style="fill:#16bdf9"/>
</svg>
