<svg xmlns="http://www.w3.org/2000/svg" viewBox="0 0 1024 1024">
   <circle cx="512" cy="512" r="512"/>
   <path d="M732.63 380.26v87.16c-45.2 0-87.08-14.46-121.27-39v177.14c0 88.46-71.97 160.43-160.43 160.43-34.19 0-65.88-10.78-91.94-29.08-41.37-29.05-68.49-77.08-68.49-131.36 0-88.46 71.97-160.44 160.43-160.44 7.34 0 14.54.6 21.62 1.57v88.98c-6.84-2.14-14.08-3.39-21.62-3.39-40.4 0-73.27 32.87-73.27 73.27 0 28.13 15.96 52.58 39.28 64.85 10.17 5.35 21.72 8.42 33.99 8.42 39.47 0 71.66-31.4 73.13-70.51l.14-349.32h87.16c0 7.56.73 14.94 2.06 22.12 6.15 33.21 25.86 61.7 53.17 79.51 19.02 12.4 41.69 19.64 66.04 19.64Z" style="fill:#fff"/>
</svg>
