<svg xmlns="http://www.w3.org/2000/svg" viewBox="0 0 1024 1024">
   <circle cx="512" cy="512" r="512" style="fill:#002b36"/>
   <path d="M272 272v239.06h59.06l.19-29.81.28-29.72 29.72-.28 29.81-.19.19-29.81.28-29.72h60.94l.28 29.72.19 29.81 29.81.19 29.72.28.28 29.72.19 29.81 29.81.19 29.72.28.28 29.72.19 29.81h58.12l.19-29.81.28-29.72 29.72-.28 29.81-.19.19-29.81.28-29.72 30.28-.28 30.19-.19V271.99H272Zm120.94 180.94-.19 29.72-.28 29.81-29.72.28-29.81.19-.19 29.81-.28 29.72-30.19.28-30.28.19v179.07h480V512.95h-59.06l-.19 29.72-.28 29.81-29.72.28-29.81.19-.19 29.81-.28 29.72h-60.94l-.28-29.72-.19-29.81-29.81-.19-29.72-.28-.28-29.72-.19-29.81-29.81-.19-29.72-.28-.28-29.81-.19-29.72h-58.12Z" style="fill:#fff"/>
</svg>
