<svg xmlns="http://www.w3.org/2000/svg" viewBox="0 0 1024 1024">
    <circle cx="512" cy="512" r="512" style="fill:#002b36"/>
    <path d="m383.71 383.71-0.29979 31.648-0.19889 31.746-31.747 0.20034-31.648 0.2998-0.29832 31.646-0.20035 31.747h-62.895v65.89l32.246-0.20034 32.146-0.29835 0.2998-31.648 0.19887-31.747 31.747-0.19886 31.648-0.2998 0.29832-31.747 0.20036-31.646h61.896l0.20035 31.646 0.29979 31.747 31.646 0.2998 31.747 0.19886 0.20035 31.747 0.29834 31.648 31.648 0.29835 31.747 0.20034 0.19889 31.747 0.29978 31.646h64.891l0.29979-31.646 0.20035-31.747 31.746-0.20034 31.648-0.29835 0.29977-31.747 0.19889-31.648h62.895v-65.89l-32.146 0.20034-32.246 0.2998-0.29834 31.646-0.20033 31.747-31.747 0.20034-31.646 0.29833-0.29978 31.648-0.20036 31.747h-61.896l-0.20034-31.747-0.29833-31.648-31.648-0.29833-31.747-0.20034-0.19888-31.747-0.29981-31.646-31.648-0.2998-31.746-0.20034-0.20036-31.746-0.29978-31.648h-32.445z" style="fill:#fff"/>
</svg>
