<svg xmlns="http://www.w3.org/2000/svg" viewBox="0 0 1024 1024">
   <circle cx="512" cy="512" r="512" style="fill:#002b36"/>
   <path d="m271.5 271.5v239.56h59.186l0.18853-29.875 0.28073-29.78 29.781-0.2821 29.875-0.18854 0.18716-29.874 0.28211-29.781h61.064l0.2821 29.781 0.18854 29.874 29.874 0.18854 29.781 0.2821 0.28212 29.78 0.18715 29.875 29.875 0.18854 29.781 0.28074 0.28073 29.781 0.18853 29.875h58.246l0.18854-29.875 0.28211-29.781 29.78-0.28074 29.875-0.18854 0.18853-29.875 0.28073-29.78 30.344-0.2821 30.251-0.18854v-179.44h-240.5zm121.19 181.32-0.18854 29.78-0.28074 29.875-29.781 0.28212-29.875 0.18716-0.18716 29.875-0.2821 29.781-30.251 0.28073-30.344 0.18853v179.44h481v-239.56h-59.186l-0.18716 29.781-0.2821 29.875-29.781 0.28073-29.874 0.18853-0.18854 29.875-0.28211 29.78h-61.064l-0.28211-29.78-0.18715-29.875-29.875-0.18853-29.781-0.28073-0.28074-29.781-0.18853-29.875-29.875-0.18716-29.78-0.28212-0.2821-29.875-0.18854-29.78h-29.122z" style="fill:#fff"/>
</svg>