<svg xmlns="http://www.w3.org/2000/svg" viewBox="0 0 1024 1024">
   <circle cx="512" cy="512" r="512" style="fill:#822b55"/>
   <path d="M676.09 426.49c-12.31 1.18-13.83-18.22-1.5-19a69.075 69.075 0 0 1 37.99 7.93c18.32-107.2 3.35-132.82-109.84-133.53a69.17 69.17 0 0 1 .32 28.97c-2.49 11.81-20.97 8.08-18.67-3.78 10.36-44.51-46.18-78.27-80.55-48.52-28.05 21.83-22.79 68.2 9.14 83.47a9.534 9.534 0 0 1 3.9 12.9c-13.2 18.12-42.95-21.06-46.11-34.22-127.64 25.05-227.89 207.82-146.04 305.08-25.79 31.37-40.3 76.76-9.67 108.22 44.99 52.86 131.96-19.47 151.52 27.6 10.18 32.69-37.27 49.25-19.29 55.07 90.8-6.08 64.7-135.61-46.96-101.7-61.99 17.83-87.17-16.78-50.76-64.19 88.84 74.97 260.87 5.48 305.23-110.55-14.47-2.89-55.56-41.07-34.2-52.81 13.64-3.94 13.46 15.24 21.64 21.64 18.22 20.53 49.64 22.39 70.16 4.17 35.5-29.57 9.46-91.18-36.3-86.76Zm-4.81-107.25a16.927 16.927 0 0 1 19.11 1.27c6.13 11.11-1.99 29.01-13.77 12.18-4.07-4.57-9.14-10.09-5.34-13.45Z" style="fill:#fff"/>
</svg>
