<svg xmlns="http://www.w3.org/2000/svg" viewBox="0 0 1024 1024">
   <circle cx="512" cy="512" r="512" style="fill:#009688"/>
   <path d="m516.42 510.77 124.66-72.64v144.3c0 2.94-2 4.91-3.93 6.87L516.42 659c-2 1-4.91 1-7.85 0l-120.74-69.7a8.26 8.26 0 0 1-3.93-6.87v-144.3l124.66 72.64c1.97.98 4.91.98 7.86 0Zm243.43-121.71v246.38c0 5.89-1 11.78-3.93 16.69a33.84 33.84 0 0 1-11.78 11.78l-215 123.68c-10.8 5.89-23.56 5.89-33.37 0l-215-123.68a33.77 33.77 0 0 1-11-10.8h-.76a33.09 33.09 0 0 1-4.91-16.69V389.06c0-11.78 6.87-22.58 16.69-28.47l215-124.66c4.91-2 10.8-3.93 16.69-3.93l.84 1.06c5.27.19 10.47 1.2 14.87 3.84l215 123.68a33.83 33.83 0 0 1 11.78 11.78 33.09 33.09 0 0 1 4.88 16.7ZM699 619.73c2-2.94 2.95-7.85 2.95-11.78V417.52c0-8.83-4.91-17.67-12.76-21.6l-164.92-95.21a30 30 0 0 0-12.27-2.89 27.15 27.15 0 0 0-12.26 2.89l-164.92 95.22c-7.85 4.91-12.76 12.76-12.76 21.6V607a34.37 34.37 0 0 0 2.83 13.38l1.1-.62a19.26 19.26 0 0 0 8.83 8.83l165.89 95.21a27 27 0 0 0 24.54 0l164.91-95.21a19.26 19.26 0 0 0 8.84-8.86Z" style="fill:#fff"/>
</svg>
