<svg xmlns="http://www.w3.org/2000/svg" viewBox="0 0 1024 1024">
   <circle cx="512" cy="512" r="512" style="fill:#68b4f4"/>
   <path d="M512 256c-141.38 0-256 114.62-256 256s114.62 256 256 256 256-114.62 256-256-114.62-256-256-256Zm186.21 187.83c-18.27 1.09-35.8-7.55-54.11-5-21.44 1.56-43.87 5.66-61.45 18.85-14.87 11.14-23.26 29-26.08 47-4.15 22.68-.07 45.72-1.47 68.54-.66 43.84-5.75 87.45-8.75 131.16-1.32 15.53-4.33 31.75-13.83 44.53a35.24 35.24 0 0 1-26.65 13.87c-15.06 1.06-29.52-4.42-43-10.48 1.64-66.1-1.87-132.37 4.56-198.3 1.75-18.39 5.08-36.85 3.06-55.36-1.07-9.49-4-19.88-12.19-25.68-8.16-5.58-18.71-5.6-28.12-4.1-16.66 2.45-32.38 8.75-48 14.75-12.39 4.43-25.88 9.06-39.11 5.82-8.75-2.07-15.36-9.21-18.77-17.27-5.31-12.25-7.51-27.56.44-39.19 8.58-12.25 23.3-17.81 37-22.15 72.73-21.3 149-31.19 224.76-26.72 47.32 2.58 94.25 10.76 140 23.17-.46 9.22-2.69 18.71-8.12 26.33-4.6 6.47-12.45 9.79-20.17 10.23Z" style="fill:#fff"/>
</svg>
