<svg xmlns="http://www.w3.org/2000/svg" viewBox="0 0 1024 1024">
   <circle cx="512" cy="512" r="512" style="fill:red"/>
   <path d="M819.9 487.55c-12 38.77-51.34 57.45-103.55 63-74 8-238.88-14.67-296.33-20.43 8.21 38.42 15.54 77.36 18.86 93.95 4.19 20.78-9.08 33.53-26.54 34.92-12.4 1-22.88-6.46-26-17.46-1-3.32-17.11-53.08-23.4-71.77-10.48-30.73-18.16-46.8-59.55-54.13-23.05-4.19-38.24-4.54-66.71-6.64-20.08-1.4-36.67-19.38-36.67-41.39 0-25.84 23.22-53.43 56.93-48.37 58 8.56 132.54 23.57 199.24 35.8 14.89 2.71 32.77 5.77 52.27 8.81h-.11l7.27 1.12h.18l7.17 1.08.47.07 7.14 1 .6.09 7.17 1 .64.09 7.29 1 .53.07 7.49 1h.35l7.75 1 8 1c48.21 5.86 97.62 9.61 132.34 6.83 25.32-2.27 47.15-5.24 47.15-14.14 0-4.54-4.54-10.48-12-15.72-13.62-8.73-38.77-16.94-73.34-15.19-3.42.19-6.75.46-10 .8-35.66 3.71-60.34 16-75.08 28.4-29-3.38-57-7.51-79.63-11.13 30-55.5 89.35-83.36 153.32-89.26 3.32-.31 6.65-.57 10-.76a309.37 309.37 0 0 1 49.24 1.22c43.13 4.54 74.21 21.3 92.2 43.31 19.15 23.73 23.87 53.42 15.31 80.83ZM738.7 592.5c-15.89 5.24-41.39 14.14-81.9 11-27.54-2.07-73.07-14.3-89.37-47.4-28.36-2.58-56.42-5.63-81.35-8.45 11.75 61.78 55 94.07 101.91 106.66 59.37 15.89 124 5.59 165.37-13.8 7.86-3.84 18.68-11 18.68-26.37.19-13.78-12.04-28.63-33.34-21.64Z" style="fill:#fff"/>
</svg>
