<svg xmlns="http://www.w3.org/2000/svg" viewBox="0 0 1024 1024">
   <circle cx="512" cy="512" r="512" style="fill:#187dc1"/>
   <path d="M243.51 521.64c-.57 14.18-1.7 15.88-18.14 16.43h-4.54c-13.61-.57-17.58-3.4-17.58-15.31v-33.44h51v-11.91h-51v-15.88h-15.31V478H171.5v11.91h16.44v37.42c0 5.67 1.7 11.91 6.24 15.88 4.54 4.54 12.47 6.8 24.38 6.8h6.8c14.18 0 21.55-2.84 26.08-7.37 4-4.55 4.54-11.34 4.54-18.14V516h-13v5.67zM345 482.51c-5.1-4-13.61-5.67-25.52-5.67h-11.89c-7.94 0-17 1.7-22.11 8.51v-7.94H271.3v70.88h15.31v-44.23c0-8.51 5.67-15.31 18.71-15.31h7.94c22.68.57 24.95 1.7 25.52 18.71v4h14.18v-9.64c-.58-8.53-2.85-15.34-7.96-19.31zM443.67 529c0 4-1.7 5.67-6.8 7.37s-13 1.7-24.38 1.7h-17c-17.58-.57-19.28-2.84-19.28-9.64v-2.27c0-7.94 3.4-9.07 19.85-9.64h19.85c9.64 0 17 0 21.55 1.7s6.24 3.4 6.24 7.94zm-26.08-52.17h-20.41c-11.34 0-19.85 1.13-24.95 4.54-5.67 2.84-7.94 7.94-7.94 14.74v4.54h15.31v-4.54c0-5.1 1.7-7.94 18.14-7.94h18.71c19.85 0 27.22 1.7 27.22 13v10.21c-4.54-5.1-11.91-6.24-26.08-6.24h-20.41c-11.34 0-19.85.57-26.08 2.84s-9.64 7.37-9.64 15.88v4.54c0 6.8 1.13 11.92 5.1 15.88S376.76 550 387 550h30.62c16.44 0 22.68-1.12 26.08-5.67v4.55H459v-47.65c0-21.55-17.59-24.39-41.41-24.39zm145.73 6.8c-5.1-4.54-13.61-7.37-25.52-7.37h-19.28c-14.18 0-24.38 1.7-30.05 10.21v-9.07h-14.18v70.88h15.31V508c0-15.31 5.67-19.85 35.72-19.85h3.4c24.95.57 26.65 5.67 26.65 15.31v44.8h15.31v-47.03c-.56-6.81-2.26-13.05-7.36-17.58zm109.43 26.67c-6.25-2.84-14.18-3.4-23.82-3.4h-34c-13.61-.57-14.18-2.84-14.18-7.94v-2.27c0-4 .57-5.1 3.4-6.24s8.51-1.7 17.58-1.7h22.11c6.8 0 12.47 0 15.88 1.13s5.1 2.84 5.1 7.94v1.7H679V495c0-5.1-1.13-10.21-6.24-13-5.1-3.4-13.61-5.1-27.78-5.1h-19.86c-15.88 0-25.52 1.7-31.75 4.54-5.67 2.84-7.94 7.94-7.94 13.61v4c0 6.8 1.7 11.91 6.24 14.74 4.54 3.4 10.77 4.54 19.85 4.54h39.12c15.31.57 15.88 2.84 16.44 9.07v.58c0 5.1-1.13 6.8-4.54 8.51-3.4 1.12-9.64 1.69-19.28 1.69h-27.78c-13 0-16.44-2.84-17-10.77v-4.54H584.3v5.1c0 10.77 4.54 16.44 11.91 19.28C603 550 612.65 550 621.72 550h23.82c15.31 0 36.29-.58 36.29-21 .56-10.2-3.41-15.87-9.08-18.7zm45.93-59H734v12.5h-15.32zm0 26.08H734v70.88h-15.32zm117.94 43.09c0 15.31-7.37 17.58-22.68 17.58h-22.68c-13.61 0-23.25-2.27-23.82-18.14v-13c0-11.34 5.67-18.71 22.11-18.71h25.52c17.58.57 21.55 5.67 21.55 18.71zm4-38c-6.8-4.54-15.88-5.67-24.95-5.67h-24.41c-10.21 0-19.28 2.84-24.38 9.07v-8.51H752.7v95.26H768v-30c3.4 5.1 10.21 7.37 21.55 7.37h24.38c13 0 22.68-1.7 29.49-6.8 6.24-5.1 9.07-13 9.07-24.38V506.9c-.56-12.48-5.09-19.85-11.9-24.39z" style="fill:#fff"/>
</svg>
