<svg xmlns="http://www.w3.org/2000/svg" viewBox="0 0 1024 1024">
   <circle cx="512" cy="512" r="512" style="fill:#0052cc"/>
   <path d="M680.9 290.4H343.1c-29.1 0-52.7 23.6-52.7 52.7v337.8c0 29.1 23.6 52.7 52.7 52.7h337.8c29.1 0 52.7-23.6 52.7-52.7V343.1c0-29.1-23.6-52.7-52.7-52.7zM481.3 609.6c0 9.7-7.8 17.5-17.5 17.5h-74c-9.7 0-17.5-7.8-17.5-17.5V389.7c0-9.7 7.8-17.5 17.5-17.5h74c9.7 0 17.5 7.8 17.5 17.5v219.9zm170.5-100.9c.2 9.7-7.5 17.7-17.2 17.9h-74.4c-9.7 0-17.5-7.8-17.5-17.5V389.7c0-9.7 7.8-17.5 17.5-17.5h74c9.7 0 17.5 7.8 17.5 17.5v119z" style="fill:#fff"/>
</svg>
