<svg xmlns="http://www.w3.org/2000/svg" viewBox="0 0 1024 1024">
   <circle cx="512" cy="512" r="512" style="fill:#0063a3"/>
   <path d="M363.8 256v120.07a201.37 201.37 0 0 1 104.29-59.956zm148.92 75.671a210.53 210.53 0 0 0-79.748 16.079c15.053-3.328 46.336.002 62.873 4.559a95.641 95.641 0 0 1 53.094-17.666 210.53 210.53 0 0 0-36.219-2.972zm41.473 20.894c-13.732.032-26.09 3.21-34.181 8.347a190.31 190.31 0 0 1 55.142 37.015 186.01 186.01 0 0 1 39.012-21.655c-16.902-17.085-39.903-23.754-59.972-23.707zm-108.7 13.321a145.51 145.51 0 0 0-35.558 4.651c-35.276 50.022-18.892 123.29 22.17 168.96a516.09 516.09 0 0 1 59.646-74.649c-20.889-25.958-29.18-66.046-10.646-94.768a145.51 145.51 0 0 0-35.612-4.19zm56.502 10.537c-16.691 22.374-11.574 51.254 5.015 73.628a425.62 425.62 0 0 1 50.381-39.887 169.83 169.83 0 0 0-55.397-33.741zm124.77 16.13a151.55 151.55 0 0 0-36.504 21.4 269.98 269.98 0 0 1 35.738 54.275c19.609-20.48 15.665-55.502.766-75.675zm-252.16 2.968a179.2 179.2 0 0 0 10.24 243.05 324.61 324.61 0 0 1 35.483-80.024c-44.441-45.568-59.956-111.98-45.722-163.02zm285.18 28.672a72.191 72.191 0 0 1-24.783 64.46 293.73 293.73 0 0 1 17.051 60.211c26.88-34.918 26.062-84.786 7.732-124.67zm-87.04 1.59a413.33 413.33 0 0 0-51.198 39.783c26.931 22.374 62.153 26.776 87.037 15.41a241.56 241.56 0 0 0-35.838-55.192zm129.48 25.6a201.06 201.06 0 0 1-.31 121.44L807.235 512zm-195.79 28.927a491.16 491.16 0 0 0-58.524 74.289c50.432 41.113 133.38 51.916 185.19 12.902a271.72 271.72 0 0 0-16.435-67.223c-35.84 16.28-80.485 5.785-110.23-19.968zM690.495 497a137.32 137.32 0 0 1-35.227 79.975 253.03 253.03 0 0 1-2.202 45.467 181.09 181.09 0 0 0 37.43-125.44zm-253.95 76.442c-22.118 38.246-30.206 66.56-33.176 81.255a179.2 179.2 0 0 0 221.08-4.454 153.6 153.6 0 0 0 10.24-58.01c-61.235 36.455-145.61 22.527-198.14-18.791zm-72.753 73.779V768l105.06-60.621a200.19 200.19 0 0 1-105.06-60.161z" style="fill:#fff"/>
</svg>
