<svg xmlns="http://www.w3.org/2000/svg" viewBox="0 0 1024 1024">
   <circle cx="512" cy="512" r="512" style="fill:#0063a3"/>
   <path d="M342.35 229.32V361.9a222.23 222.23 0 0 1 115.16-66.2l-115.16-66.38Zm164.44 83.56c-30.23.14-60.14 6.17-88.06 17.75 16.62-3.67 51.17 0 69.43 5.03a105.69 105.69 0 0 1 58.63-19.51 232.968 232.968 0 0 0-39.99-3.28Zm45.8 23.07c-15.16.04-28.81 3.54-37.74 9.22a210.177 210.177 0 0 1 60.89 40.87c13.35-9.67 27.81-17.7 43.08-23.91-18.66-18.87-44.06-26.23-66.22-26.18Zm-120.03 14.71c-13.25.09-26.44 1.81-39.26 5.14-38.95 55.24-20.86 136.14 24.48 186.57a570.606 570.606 0 0 1 65.86-82.43c-23.07-28.66-32.22-72.93-11.76-104.65a160.836 160.836 0 0 0-39.32-4.63Zm62.39 11.64c-18.43 24.71-12.78 56.6 5.54 81.3a469.26 469.26 0 0 1 55.63-44.04 187.782 187.782 0 0 0-61.17-37.26Zm137.77 17.81a167.354 167.354 0 0 0-40.31 23.63 298.146 298.146 0 0 1 39.46 59.93c21.65-22.61 17.3-61.29.85-83.56Zm-278.44 3.28c-66.83 78.71-61.91 195.57 11.31 268.38a358.361 358.361 0 0 1 39.18-88.36c-49.07-50.32-66.2-123.65-50.49-180.01Zm314.9 31.66a79.721 79.721 0 0 1-27.37 71.18 324.087 324.087 0 0 1 18.83 66.49c29.68-38.56 28.78-93.62 8.54-137.66Zm-96.11 1.76a455.735 455.735 0 0 0-56.53 43.93c29.74 24.71 68.63 29.57 96.11 17.02a266.71 266.71 0 0 0-39.57-60.94Zm142.97 28.27a222.053 222.053 0 0 1-.34 134.1L832 512.02l-115.95-66.93Zm-216.2 31.94a542.013 542.013 0 0 0-64.62 82.03c55.69 45.4 147.28 57.33 204.49 14.25a299.903 299.903 0 0 0-18.15-74.23c-39.58 17.98-88.87 6.39-121.72-22.05Zm203.24 18.43c-3 32.89-16.66 63.89-38.9 88.31.7 16.77-.11 33.58-2.43 50.21 30.57-39.4 45.31-88.8 41.33-138.51Zm-280.42 84.41c-24.42 42.23-33.35 73.5-36.63 89.72 72.81 54.75 173.58 52.72 244.12-4.92a169.503 169.503 0 0 0 11.31-64.06c-67.62 40.25-160.79 24.87-218.79-20.75Zm-80.34 81.47V794.7l116.01-66.94a221.105 221.105 0 0 1-116.01-66.43Z" style="fill:#fff"/>
</svg>
