<svg xmlns="http://www.w3.org/2000/svg" viewBox="0 0 1024 1024">
   <circle cx="512" cy="512" r="512" style="fill:#dd8217"/>
   <path d="M595.59 426.93c.68-.43 1.33-.89 1.97-1.36.98-.71 1.97-1.42 3.08-2 1.54-.8 3.13-1.48 4.72-2.16.37-.16.75-.32 1.12-.48 6.13-2.61 12.53-4.48 19.1-5.49-1.05-3.85-2.38-7.62-4.29-11.21-1.12-2.11-2.38-4.09-3.72-6.02-1.72-2.42-3.66-4.63-5.7-6.69a55.081 55.081 0 0 0-6.14-5.29c-5.42-4-11.56-7.05-18.17-8.79a52.802 52.802 0 0 0-12.84-1.76c-.18 0-.36-.02-.53-.04-.17-.02-.34-.04-.52-.04-7.11 0-14.07 1.79-20.64 4.52-.24.09-.48.18-.71.26-.34.12-.68.23-1 .38-.38.17-.77.3-1.17.43-.54.18-1.08.36-1.58.63-1.08.55-2.02 1.23-2.97 1.92-.39.28-.78.56-1.19.84-3.91 2.55-7.44 5.48-10.47 8.81-1.6 1.79-3.01 3.67-4.39 5.62.04.09.06.17.06.24v.02c.71 2.83 1.48 5.69 2.25 8.55l.33 1.24c6.6 23.36 15.68 47.39 27.27 72.03h.05c2.89-17.58 11.56-33.9 25.16-46.17 3.36-2.97 7-5.58 10.87-8.03l.03.02Zm95.29 125.69c-4.84 4.33-10.01 8.31-15.91 11.38-11.42 6.07-24.25 9.24-37.14 9.24-10.11 0-19.83-2-28.89-5.52v.12c11.03 16.63 23.11 33.52 36.14 50.62.96 1.25 1.94 2.51 2.93 3.78l2.41 3.1 1.14 1.43c.51.67 1.01 1.33 1.53 1.98.42.52.82 1.05 1.24 1.62.59.07 1.19.09 1.79.11.35.01.69.02 1.03.04l.73.08c1.26.13 2.49.26 3.78.26 3.24 0 6.46-.6 9.64-1.18l.18-.03.87-.16c1.21-.22 2.39-.44 3.61-.75 3.24-.91 6.44-2.09 9.51-3.62.2-.1.42-.18.64-.25.22-.07.45-.14.65-.25.27-.14.52-.33.76-.51.25-.18.49-.36.76-.51a53.278 53.278 0 0 0 19.57-19.38c2.04-3.46 3.77-7.09 4.96-10.9 1.01-3.09 1.66-6.32 2.1-9.6 1.24-10.02-.34-20.42-5.05-30.09-.11-.24-.2-.48-.29-.73-.11-.3-.22-.61-.38-.89-1.24-2.38-2.67-4.57-4.22-6.68-1.08-1.5-2.29-2.91-3.53-4.26-.35.48-.69.98-1.02 1.47-.56.84-1.13 1.68-1.78 2.43-2.34 2.78-5.03 5.24-7.72 7.64l-.03.02Zm-47.61-121.46c.12 0 .24.01.36.02h.02c21.12 1.98 39.91 14.25 49.97 33.22 5.11 9.68 7.28 20.25 7.02 30.91a62.05 62.05 0 0 1-1.08 9.93l-.24 1.41c-.32 1.93-.64 3.85-1.23 5.73-.23.81-.58 1.56-.93 2.3-.25.53-.5 1.07-.71 1.63-.03.06-.05.12-.08.17-.04.09-.08.17-.11.28-.19.48-.38.96-.56 1.44-.77 1.98-1.53 3.96-2.55 5.82-1.18 2.17-2.66 4.17-4.11 6.13l-.41.56c-1.14 1.6-2.25 3.14-3.53 4.63-2.25 2.53-4.61 4.98-7.25 7.14-2.98 2.4-6.27 4.56-9.71 6.44-.16.09-.29.19-.43.29-.14.1-.28.2-.43.29-9.09 4.78-19.26 7.33-29.45 7.33-8.3 0-16.31-1.69-23.74-4.69-2.54-1.06-5-2.24-7.4-3.57-2.41-1.39-4.71-2.89-6.92-4.59-7.23-5.45-13.33-12.43-17.74-20.68a63.164 63.164 0 0 1-7.06-23.92c-.21-2.56-.07-5.14.06-7.69.01-.23.02-.46.04-.69.12-2.8.44-5.51.92-8.23 2.19-12 7.75-23.17 16.31-32.19 4.6-4.86 9.81-9.2 16.04-12.5 1.84-.98 3.77-1.79 5.72-2.57l2.7-1.03c3.43-1.22 6.92-2.09 10.49-2.69 2.72-.45 5.44-.76 8.18-.86.2-.01.4-.03.6-.04.57-.04 1.16-.08 1.72-.08 1.24 0 2.44.1 3.64.21.43.04.85.07 1.28.11.21.03.4.04.6.05ZM545.33 272c16.14 36.71 5.17 73.07-6.5 96.69-4.04 2.3-7.79 4.97-11.2 7.92-7.88-24.33-14.25-66.9 17.7-104.61ZM271.77 452.92c-.84-.32-1.81-.5-2.88-.5-9.14 0-24.43 11.46-34.81 32.68-7.59 15.52-19.9 52.82 3.53 99.61 2.9-23.87 15.47-51.52 38-83.55 5.49-33.85.54-46.44-3.85-48.23Zm24.99 90.72.27-3.05c-2.86-7.6-5.72-13.57-8.66-18.51-1.19-1.93-2.38-3.81-3.58-5.41-1.61 2.35-3.04 4.67-4.47 6.99-.46.74-.91 1.48-1.37 2.22-7.84 12.48-13.99 24.19-18.18 35.03-1.35 4.35-2.86 8.95-4.41 13.6-2.99 11.48-3.81 21.85-2.16 31.09.57 3.2 1.43 6.32 2.59 9.3.27.72.65 1.43 1.03 2.14.19.35.37.69.54 1.04 7.69 16.02 24.62 28.59 50.73 37.46-12.49-26.19-16.71-63.61-12.33-111.89Zm25.69 17.29 6.87 4.05c10.03 5.92 20.46 25.67 31.45 46.66 11.63 22.02 24.85 46.94 42.24 64.91-24.86 8.09-46.11 6.38-61.45-5.3-2.4-1.81-4.67-3.83-6.77-6.11-.79-.87-1.5-1.85-2.2-2.82-.31-.43-.62-.86-.93-1.27-4.92-6.41-9-14.24-12.11-23.52-3.71-11.14-6.11-24.37-7.22-39.39-.83-11.42-.95-23.85-.26-37.3.06-.92.09-1.81.12-2.71.02-.73.05-1.47.09-2.24 2.42 1.09 5.15 2.4 7.95 3.85.28.15.57.31.87.48h.01c.44.24.89.5 1.33.72Zm126.06 53.25c-19.74-29.07-38.43-56.49-69.08-65.86-15.54.3-25.88 4.97-32.26 9.26l-.1.05c-.2.1-.43.22-.59.33 6.85 7.05 13.14 17.2 19.59 28.78 3.03 5.47 6.13 11.18 9.32 17.24l1.53 2.87c2.56 4.82 5.15 9.72 7.82 14.58 6.18 11.22 12.73 22.25 19.97 31.88 3.96 5.24 8.14 10.07 12.59 14.27 2.53 2.42 5.13 4.65 7.86 6.64 8.87 6.51 18.72 10.46 29.9 10.46 12.19 0 25.71-4.68 40.41-13.87-18.84-15.27-33.05-36.12-46.97-56.59l.02-.02Zm134.94-254.32c20.71-15.14 44.02-39.77 48.12-75.97-42.72 15.3-59.53 50.76-66.27 75.8 2.77-.34 5.56-.51 8.33-.51 3.32 0 6.58.25 9.82.69Zm126.58 267.57c8.89-8.57 15.38-19.05 18.77-30.57 8.34-2.15 17.26-3.5 26.73-3.5 15.07 0 29.97 3.36 44.47 9.93-19.7 16.71-44.18 25.19-72.95 25.19-5.93 0-11.58-.45-17.01-1.05Zm-23.65 15.31c-5.44 2.07-11.13 3.4-16.9 4.08 12.95 20.55 37.05 48.09 75.78 52.57-12.24-32.76-37.45-48.72-58.87-56.64Zm-44.66-229.9c-1.35-5.58-3.17-11.08-5.93-16.28-2.41-4.58-5.38-8.69-8.64-12.5 15.04-19.49 37.67-37.7 71.55-43.78-9.15 35.44-33.57 58.28-56.99 72.56Zm156.96 90.61c-12.59-4.48-25.27-6.73-37.86-6.73-16.75 0-31.77 4.09-44.82 9.68l-.17 1.05c-.53 3.28-1.06 6.57-2.07 9.81-.79 2.57-1.9 4.97-3.02 7.38-.28.6-.56 1.21-.83 1.82 3.37 3.2 6.47 6.67 9.15 10.54 32.64-1.6 59.41-12.8 79.62-33.54ZM635.47 633.12c-12.71-16.51-24.54-32.85-35.44-48.92-2.19-3.24-4.34-6.48-6.46-9.67l-1.98-2.98c-17.13-26.32-31.85-52.02-44.04-77.2-1.97-4.03-3.83-8.07-5.66-12.07-2.38-5.18-4.58-10.33-6.75-15.47-5.78-13.76-10.81-27.31-15.03-40.7-1.81-5.7-3.43-11.35-4.96-16.97-1.16-4.4-2.29-8.78-3.29-13.11-2.33-9.96-4.29-19.84-5.72-29.56-19.64 22.09-57.29 70.42-62.77 120.05-.02.16-.05.32-.09.49-.04.2-.08.41-.1.62 7.82 1.68 15.26 5.21 22.5 10.16 5.78 3.92 11.37 8.95 16.97 14.5 15.09 15.1 29.79 35.33 45.58 57.2 18.5 25.66 38.21 52.85 60.81 74.12 7.06 6.62 14.35 12.68 22 17.95 5.2 3.56 10.6 6.65 16.13 9.38l1.18.65c1.59.76 3.21 1.47 4.86 2.16 13.04 5.56 26.97 8.68 42.07 8.28a1276.74 1276.74 0 0 1-30.35-36.83c-3.22-4.03-6.39-8.07-9.49-12.07Zm-120.5-54.02c-27.04-37.55-52.64-72.81-78.77-75.71-17.55 1.98-31.53 11.66-42.41 29.28-.23.37-.47.74-.72 1.11-.33.5-.68 1-.99 1.56 5.49 2.22 10.49 5.09 15.29 8.21 6.36 4.07 12.21 8.76 17.64 14.02 14.21 13.74 25.8 30.71 37.12 47.42 14.52 21.41 28.77 41.88 47.64 55.71 2.31 1.71 4.6 3.37 7.06 4.86 2.56 1.54 5.26 2.81 8.01 4.08 10.81 5.05 22.98 8.13 37.51 8.13 10.87 0 22.86-1.73 35.76-5.02-32.57-23.65-58.86-59.98-83.15-93.66Z" style="fill:#fff"/>
</svg>
