<svg xmlns="http://www.w3.org/2000/svg" viewBox="0 0 1024 1024">
   <circle cx="512" cy="512" r="512" style="fill:#c11111"/>
   <path d="M553.23 561.05v-43.11l-10.93 8.44-7.21-9.86 19.31-14.18h12.69v58.7h-13.85m56.87-29.52c0-1.82-.11-3.84-.32-6.06-.22-2.2-.63-4.27-1.25-6.18-.61-1.91-1.48-3.51-2.61-4.81-1.14-1.29-2.61-1.95-4.44-1.95s-3.31.65-4.47 1.95c-1.17 1.29-2.07 2.9-2.7 4.81-.63 1.9-1.06 3.97-1.28 6.18-.22 2.22-.34 4.23-.34 6.06s.11 3.93.34 6.18c.22 2.24.65 4.31 1.28 6.21.64 1.91 1.53 3.51 2.7 4.81 1.16 1.31 2.65 1.95 4.47 1.95s3.3-.65 4.44-1.95c1.13-1.3 2.01-2.9 2.61-4.81.61-1.9 1.02-3.97 1.25-6.21.21-2.24.32-4.3.32-6.18Zm14.26 0c0 4.15-.41 8.1-1.25 11.86-.82 3.76-2.15 7.06-3.97 9.9-1.83 2.85-4.18 5.12-7.09 6.8-2.9 1.68-6.43 2.53-10.58 2.53s-7.68-.85-10.61-2.53c-2.93-1.68-5.32-3.95-7.17-6.8-1.84-2.84-3.19-6.14-4.02-9.9-.82-3.76-1.23-7.71-1.23-11.86s.41-8.09 1.23-11.81c.84-3.73 2.18-7 4.02-9.79 1.86-2.79 4.25-5.01 7.17-6.68 2.93-1.65 6.47-2.48 10.61-2.48s7.68.82 10.58 2.48a20.8 20.8 0 0 1 7.09 6.68c1.82 2.79 3.15 6.06 3.97 9.79.84 3.72 1.25 7.66 1.25 11.81m77.81 29.52v-43.11l-10.93 8.44-7.23-9.86 19.32-14.18h12.69v58.7h-13.85m56.87-29.52c0-1.82-.11-3.84-.32-6.06-.23-2.2-.63-4.27-1.25-6.18-.61-1.91-1.48-3.51-2.61-4.81-1.14-1.29-2.61-1.95-4.44-1.95s-3.31.65-4.47 1.95c-1.17 1.29-2.07 2.9-2.7 4.81-.63 1.9-1.06 3.97-1.28 6.18-.22 2.22-.34 4.23-.34 6.06s.11 3.93.34 6.18c.22 2.24.65 4.31 1.28 6.21.63 1.91 1.53 3.51 2.7 4.81 1.16 1.31 2.65 1.95 4.47 1.95s3.3-.65 4.44-1.95c1.13-1.3 2.01-2.9 2.61-4.81.61-1.9 1.02-3.97 1.25-6.21.21-2.24.32-4.3.32-6.18Zm14.26 0c0 4.15-.41 8.1-1.25 11.86-.82 3.76-2.15 7.06-3.97 9.9-1.83 2.85-4.18 5.12-7.09 6.8-2.9 1.68-6.43 2.53-10.58 2.53s-7.68-.85-10.61-2.53c-2.93-1.68-5.32-3.95-7.17-6.8-1.86-2.84-3.19-6.14-4.02-9.9-.82-3.76-1.23-7.71-1.23-11.86s.41-8.09 1.23-11.81c.84-3.73 2.17-7 4.02-9.79s4.25-5.01 7.17-6.68c2.93-1.65 6.46-2.48 10.61-2.48s7.67.82 10.58 2.48a20.8 20.8 0 0 1 7.09 6.68c1.82 2.79 3.15 6.06 3.97 9.79.84 3.72 1.25 7.66 1.25 11.81M551.95 653.42v-43.11L541 618.77l-7.21-9.86 19.32-14.19h12.69v58.7h-13.85m48.8 0v-43.11l-10.95 8.46-7.21-9.86 19.32-14.19h12.69v58.7h-13.85m48.59 0v-43.11l-10.95 8.46-7.2-9.86 19.3-14.19h12.69v58.7h-13.85m59.39-29.52c0-1.82-.11-3.83-.33-6.04a30.61 30.61 0 0 0-1.23-6.18c-.61-1.91-1.48-3.51-2.61-4.81-1.14-1.31-2.62-1.95-4.44-1.95s-3.31.65-4.48 1.95c-1.16 1.3-2.06 2.9-2.69 4.81-.63 1.91-1.06 3.96-1.28 6.18-.23 2.2-.34 4.22-.34 6.04s.11 3.94.34 6.18c.22 2.24.65 4.31 1.28 6.21.63 1.91 1.53 3.51 2.69 4.81 1.17 1.31 2.65 1.95 4.48 1.95s3.3-.65 4.44-1.95c1.13-1.3 2.01-2.9 2.61-4.81.6-1.91 1.02-3.97 1.23-6.21.22-2.24.33-4.3.33-6.18Zm14.26 0c0 4.15-.41 8.1-1.25 11.86-.84 3.76-2.16 7.06-3.99 9.91-1.82 2.84-4.18 5.11-7.09 6.79-2.9 1.69-6.41 2.53-10.56 2.53s-7.68-.83-10.61-2.53c-2.93-1.68-5.32-3.95-7.17-6.79-1.86-2.85-3.19-6.15-4.02-9.91-.82-3.76-1.24-7.71-1.24-11.86s.42-8.08 1.24-11.81c.84-3.74 2.17-6.99 4.02-9.78 1.86-2.8 4.25-5.02 7.17-6.69 2.93-1.65 6.46-2.48 10.61-2.48s7.66.83 10.56 2.48c2.9 1.67 5.27 3.89 7.09 6.69 1.83 2.79 3.15 6.04 3.99 9.78.84 3.72 1.25 7.67 1.25 11.81m-142.99 95.32v-31.29l-7.95 6.13-5.23-7.15 14.03-10.3h9.2v42.61h-10.05m70.46 0v-31.29l-7.95 6.13-5.24-7.15 14.02-10.3h9.22v42.61h-10.05m-98.62-21.42c0-1.32-.07-2.79-.24-4.4-.16-1.59-.46-3.09-.91-4.48-.44-1.38-1.07-2.54-1.89-3.49-.82-.93-1.89-1.41-3.21-1.41s-2.42.47-3.25 1.41c-.85.95-1.49 2.1-1.96 3.49-.47 1.39-.77 2.89-.93 4.48-.16 1.61-.25 3.08-.25 4.4s.09 2.86.25 4.48c.16 1.62.46 3.14.93 4.52.46 1.38 1.11 2.54 1.96 3.49.83.95 1.92 1.41 3.25 1.41s2.39-.46 3.21-1.41c.82-.95 1.46-2.1 1.89-3.49.45-1.38.75-2.9.91-4.52.16-1.62.24-3.11.24-4.48Zm10.35 0c0 3.01-.3 5.88-.9 8.61-.6 2.73-1.57 5.13-2.89 7.19a14.844 14.844 0 0 1-5.15 4.94c-2.1 1.22-4.67 1.83-7.67 1.83s-5.58-.61-7.71-1.83c-2.13-1.22-3.86-2.87-5.21-4.94-1.35-2.05-2.31-4.46-2.91-7.19-.61-2.73-.91-5.59-.91-8.61s.3-5.87.91-8.57c.6-2.71 1.57-5.08 2.91-7.11 1.35-2.02 3.08-3.64 5.21-4.85 2.13-1.2 4.7-1.8 7.71-1.8s5.57.61 7.67 1.8c2.1 1.21 3.81 2.83 5.15 4.85 1.32 2.03 2.29 4.4 2.89 7.11.6 2.7.9 5.57.9 8.57m60.51 0c0-1.32-.08-2.79-.24-4.4-.16-1.59-.46-3.09-.91-4.48-.43-1.38-1.07-2.54-1.89-3.49-.82-.93-1.89-1.41-3.21-1.41s-2.42.47-3.25 1.41c-.84.95-1.51 2.1-1.95 3.49-.48 1.39-.78 2.89-.93 4.48-.16 1.61-.25 3.08-.25 4.4s.09 2.86.25 4.48c.15 1.62.46 3.14.93 4.52.45 1.38 1.11 2.54 1.95 3.49.84.95 1.92 1.41 3.25 1.41s2.39-.46 3.21-1.41c.82-.95 1.46-2.1 1.89-3.49.45-1.38.75-2.9.91-4.52.16-1.62.24-3.11.24-4.48Zm10.35 0c0 3.01-.3 5.88-.9 8.61-.61 2.73-1.57 5.13-2.89 7.19a14.901 14.901 0 0 1-5.14 4.94c-2.1 1.22-4.67 1.83-7.67 1.83s-5.58-.61-7.71-1.83c-2.13-1.22-3.86-2.87-5.21-4.94-1.35-2.05-2.32-4.46-2.91-7.19-.61-2.73-.91-5.59-.91-8.61s.3-5.87.91-8.57c.6-2.71 1.57-5.08 2.91-7.11 1.35-2.02 3.08-3.64 5.21-4.85 2.13-1.2 4.69-1.8 7.71-1.8s5.57.61 7.67 1.8c2.1 1.21 3.81 2.83 5.14 4.85 1.32 2.03 2.28 4.4 2.89 7.11.6 2.7.9 5.57.9 8.57m134.71 21.42v-31.29l-7.95 6.13-5.25-7.15 14.03-10.3h9.22v42.61h-10.05m-27.76-21.42c0-1.32-.08-2.79-.24-4.4-.16-1.59-.46-3.09-.91-4.48-.43-1.38-1.07-2.54-1.89-3.49-.82-.93-1.89-1.41-3.21-1.41s-2.42.47-3.25 1.41c-.84.95-1.49 2.1-1.97 3.49a21.55 21.55 0 0 0-.92 4.48c-.16 1.61-.25 3.08-.25 4.4s.09 2.86.25 4.48c.16 1.62.48 3.14.92 4.52.48 1.38 1.12 2.54 1.97 3.49.84.95 1.92 1.41 3.25 1.41s2.39-.46 3.21-1.41c.82-.95 1.46-2.1 1.89-3.49.45-1.38.75-2.9.91-4.52.16-1.62.24-3.11.24-4.48Zm10.35 0c0 3.01-.3 5.88-.9 8.61-.61 2.73-1.57 5.13-2.89 7.19a14.901 14.901 0 0 1-5.14 4.94c-2.1 1.22-4.67 1.83-7.67 1.83s-5.58-.61-7.71-1.83c-2.13-1.22-3.86-2.87-5.21-4.94-1.35-2.05-2.31-4.46-2.91-7.19-.61-2.73-.91-5.59-.91-8.61s.3-5.87.91-8.57c.6-2.71 1.57-5.08 2.91-7.11 1.35-2.02 3.08-3.64 5.21-4.85 2.13-1.2 4.7-1.8 7.71-1.8s5.57.61 7.67 1.8c2.1 1.21 3.81 2.83 5.14 4.85 1.32 2.03 2.28 4.4 2.89 7.11.6 2.7.9 5.57.9 8.57m-21.26 71.63v-31.29l-7.95 6.14-5.25-7.17 14.03-10.29h9.22v42.61h-10.05m-27.76-21.42c0-1.32-.08-2.79-.24-4.4-.16-1.59-.46-3.09-.91-4.48-.44-1.38-1.07-2.54-1.89-3.49-.82-.93-1.89-1.41-3.21-1.41s-2.42.47-3.25 1.41c-.84.95-1.49 2.1-1.95 3.49-.46 1.39-.77 2.89-.93 4.48-.16 1.61-.25 3.08-.25 4.4s.09 2.86.25 4.48c.16 1.62.48 3.14.93 4.52.46 1.38 1.11 2.54 1.95 3.49.84.95 1.92 1.41 3.25 1.41s2.39-.46 3.21-1.41c.82-.95 1.46-2.1 1.89-3.49.45-1.38.75-2.9.91-4.52.16-1.62.24-3.11.24-4.48Zm10.35 0c0 3.01-.3 5.88-.9 8.61-.6 2.73-1.57 5.13-2.89 7.2a14.876 14.876 0 0 1-5.14 4.93c-2.1 1.22-4.67 1.83-7.67 1.83s-5.58-.61-7.71-1.83a15.084 15.084 0 0 1-5.21-4.93c-1.35-2.07-2.31-4.47-2.91-7.2-.6-2.73-.91-5.59-.91-8.61s.31-5.87.91-8.57c.6-2.72 1.57-5.08 2.91-7.11 1.35-2.02 3.08-3.64 5.21-4.84 2.13-1.2 4.7-1.81 7.71-1.81s5.57.61 7.67 1.81c2.1 1.21 3.82 2.82 5.14 4.84 1.32 2.03 2.29 4.4 2.89 7.11.6 2.7.9 5.57.9 8.57m-145.73 20.81v-21.68l-5.51 4.25-3.62-4.97 9.71-7.12h6.39v29.53h-6.97m-19.23-14.85c0-.92-.06-1.93-.16-3.05-.12-1.11-.32-2.14-.63-3.1-.3-.96-.74-1.77-1.31-2.41-.57-.66-1.32-.98-2.23-.98s-1.67.32-2.25.98c-.58.65-1.03 1.46-1.36 2.41-.32.96-.54 1.99-.65 3.1-.11 1.12-.16 2.13-.16 3.05s.05 1.98.16 3.1c.11 1.13.32 2.17.65 3.13s.77 1.77 1.36 2.42c.59.66 1.33.99 2.25.99s1.66-.33 2.23-.99c.57-.65 1.01-1.46 1.31-2.42.31-.96.51-1.99.63-3.13.1-1.12.16-2.17.16-3.1Zm7.17 0c0 2.08-.21 4.07-.63 5.96-.42 1.88-1.08 3.55-2.01 4.98-.92 1.43-2.11 2.56-3.57 3.41-1.46.85-3.22 1.28-5.31 1.28s-3.87-.43-5.34-1.28c-1.47-.85-2.68-1.98-3.61-3.41-.93-1.43-1.61-3.1-2.02-4.98-.42-1.89-.62-3.88-.62-5.96s.2-4.07.62-5.94c.41-1.88 1.08-3.53 2.02-4.93.93-1.39 2.14-2.53 3.61-3.35 1.47-.83 3.25-1.26 5.34-1.26s3.85.42 5.31 1.26c1.47.82 2.65 1.96 3.57 3.35.92 1.41 1.58 3.05 2.01 4.93.41 1.87.63 3.85.63 5.94m98.75 52.77v-21.68l-5.5 4.25-3.63-4.96 9.72-7.14h6.38v29.53h-6.96m-19.23-14.85c0-.92-.06-1.93-.18-3.05-.11-1.11-.31-2.14-.62-3.1s-.75-1.77-1.31-2.42c-.57-.66-1.32-.98-2.24-.98s-1.67.32-2.24.98c-.59.65-1.05 1.46-1.36 2.42-.33.96-.54 1.99-.65 3.1-.11 1.12-.18 2.13-.18 3.05s.06 1.98.18 3.1c.11 1.13.32 2.17.65 3.14.31.96.77 1.76 1.36 2.42.57.65 1.33.97 2.24.97s1.67-.32 2.24-.97c.56-.66.99-1.46 1.31-2.42.31-.97.51-2.01.62-3.14.11-1.12.18-2.15.18-3.1Zm7.17 0c0 2.08-.21 4.07-.63 5.97-.41 1.89-1.08 3.55-1.99 4.98-.92 1.43-2.1 2.58-3.57 3.43-1.46.85-3.23 1.26-5.32 1.26s-3.86-.41-5.33-1.26c-1.48-.85-2.68-2-3.61-3.43-.93-1.43-1.61-3.09-2.02-4.98-.42-1.89-.63-3.89-.63-5.97s.21-4.08.63-5.94c.41-1.88 1.08-3.52 2.02-4.92.93-1.41 2.13-2.53 3.61-3.36 1.47-.84 3.25-1.25 5.33-1.25s3.86.41 5.32 1.25c1.47.83 2.65 1.95 3.57 3.36.91 1.4 1.58 3.04 1.99 4.92.42 1.87.63 3.86.63 5.94m131.07-43.89c0-1.32-.08-2.79-.24-4.4-.16-1.59-.46-3.09-.91-4.48-.44-1.38-1.07-2.54-1.89-3.49-.82-.93-1.89-1.41-3.21-1.41s-2.42.47-3.25 1.41c-.85.95-1.5 2.1-1.95 3.49-.46 1.39-.77 2.89-.93 4.48-.16 1.61-.24 3.08-.24 4.4s.07 2.86.24 4.48c.16 1.62.47 3.14.93 4.52.46 1.38 1.11 2.54 1.95 3.49.84.95 1.93 1.41 3.25 1.41s2.39-.46 3.21-1.41c.82-.95 1.46-2.1 1.89-3.49.45-1.38.75-2.9.91-4.52.16-1.62.24-3.11.24-4.48Zm10.36 0c0 3.01-.31 5.88-.91 8.61-.6 2.73-1.57 5.13-2.89 7.2a14.876 14.876 0 0 1-5.14 4.93c-2.1 1.22-4.66 1.83-7.67 1.83s-5.58-.61-7.71-1.83a15.171 15.171 0 0 1-5.21-4.93c-1.35-2.07-2.32-4.47-2.91-7.2-.6-2.73-.91-5.59-.91-8.61s.31-5.87.91-8.57c.6-2.72 1.57-5.08 2.91-7.11 1.35-2.02 3.09-3.64 5.21-4.84 2.13-1.2 4.69-1.81 7.71-1.81s5.57.61 7.67 1.81c2.1 1.21 3.82 2.82 5.14 4.84 1.32 2.03 2.29 4.4 2.89 7.11.6 2.7.91 5.57.91 8.57m-29.77-287.66c-9.83-48.01-52.59-82.87-101.68-82.87-7.47 0-14.82.85-21.99 2.39-11.93-69.99-72.97-123.45-146.31-123.45S349.02 308.9 336.3 377.93c-52.8 4.81-94.3 49.3-94.3 103.33 0 57.22 46.56 103.77 103.78 103.77h155.27c7.92 0 14.35-6.42 14.35-14.35s-6.43-14.35-14.35-14.35H345.78c-41.4 0-75.08-33.68-75.08-75.07s33.68-75.08 75.08-75.08c15.05 0 29.56 4.42 41.96 12.81 6.58 4.43 15.49 2.71 19.93-3.85 4.44-6.57 2.7-15.5-3.86-19.93-11.72-7.92-24.81-13.22-38.55-15.83 11.72-53.82 59.71-94.25 117-94.25 61.03 0 111.5 45.89 118.81 104.96-3.85 2.09-7.61 4.38-11.21 6.99-6.43 4.64-7.87 13.6-3.24 20.03 4.65 6.43 13.62 7.87 20.04 3.24 12.83-9.27 28.01-14.16 43.89-14.16 35.52 0 66.45 25.2 73.55 59.94 1.4 6.79 7.38 11.47 14.05 11.47.94 0 1.92-.1 2.89-.3 7.76-1.58 12.77-9.17 11.19-16.94" style="fill:#fff"/>
</svg>
