<svg xmlns="http://www.w3.org/2000/svg" viewBox="0 0 1024 1024">
   <circle cx="512" cy="512" r="512" style="fill:#c50e1f"/>
   <path d="M286.35 320.4c-21.38 0-53.6 21.69-53.6 57.52 0 44.26 39.31 59.45 52.86 59.45h217.95v.1L487.5 604.91c-3 40.06 12.08 60.63 21.39 71.44 17 19.84 48.51 35.39 84.71 41.9 1-10.66 32.27-334.68 32.27-334.76 1-16.65-3.77-31.17-14.87-43.82-13-14.81-32.05-19.26-40-19.26Zm365 33.91s-35.18 365.86-35.09 365.86c32.12 0 55.15-9.56 73.05-21.54C706 687.45 719 674.19 728.9 657.1a133 133 0 0 0 17.84-54.57l23.61-248.21Zm64.26 24h28.64l-.81 8.8v-.22h-26.29c-5.11 0-8.29 1.41-8.73 6.15-.76 6.21 5.47 10.81 13.69 10.81h19.69l-.88 8.89h-40.87l.79-8.45c2.16 0 5.71 0 8 .74-5-2.45-8.22-7.47-7.48-14.44.89-9.4 7.11-12.28 14.22-12.28Zm-29.38 45.23a5 5 0 0 1 5 5.71 6 6 0 0 1-6.07 5.71 5 5 0 0 1-5-5.71c-.02-3.12 3-5.72 6.05-5.72Zm12.65 1.32h40.92l-.9 8.9H698Zm-21.23 21h60.11l-.89 8.9h-60.14Zm-318 15.42s-19 196-21.69 225.18v.1h105.88l21.69-225.25Zm334.91 1.32 8.45.74a2.43 2.43 0 0 1 .15-.52v.53H703c-2 7.86 3.36 11.7 15.39 11.7h16.58L734 484h-40.84l.81-8.52a33.37 33.37 0 0 1 8.95.88c-5.32-1.84-10-6-8.43-13.69Zm13.93 31.23h5v.38l-2.52 26.2c9.32 0 13.76-3.7 14.59-12.15a24.89 24.89 0 0 0-1.2-11.91l6.89-1.2a39.8 39.8 0 0 1 1.26 14.67c-1.26 12.72-8.44 19.76-22.87 19.76-12.29 0-20.88-7.11-19.77-19s9.23-16.73 18.55-16.73Zm-1.93 8.9c-5.78 0-9.7 3.12-10.22 8.29-.75 5 2.89 8.52 8.51 9.25Zm.1 34.13c14.14 0 22.29 8.29 21 22v-.22a69.72 69.72 0 0 1-3.13 14.74h-59.17l.88-8.89h18.87c2.36 0 5.62 0 7.78.74-5-2.15-7.71-7-7-13.09.89-9.85 8.29-15.26 20.73-15.26Zm-.1 9.17c-8.29 0-13 2.6-13.55 8.16-.75 6.65 6.67 10.29 13.55 10.29h12.66a24.07 24.07 0 0 0 1.38-6.48c.76-7.07-3.16-11.88-14.12-12Z" style="fill:#fff"/>
</svg>
