<svg xmlns="http://www.w3.org/2000/svg" viewBox="0 0 1024 1024">
   <circle cx="512" cy="512" r="512" style="fill:#001935"/>
   <path d="M206.17 565.34c-22.22 0-38.78-11.43-38.78-38.78v-43.8H147.2v-23.71c22.22-5.77 31.51-24.89 32.58-41.45h23.07v37.6h26.92v27.56h-26.92v38.14c0 11.43 5.77 15.38 15 15.38h13v29.06Zm82.57 1.28c12.6 0 27.13-5.45 35-15.17v13.89h41.55v-23.61h-10.53V455.2h-50.2v24h14.31v41.7c0 3.31-2.78 17.31-21.58 17.31-12.07 0-14.32-7.26-14.32-16.45V455.2H246v68c0 17.03 7.7 43.42 42.74 43.42Zm89.84-1.28h60.78v-23.61H427V500.6c0-6 5.13-18.27 20.72-18.27 12.6 0 15.17 7.69 15.17 16.77v42.62h-12.31v23.61h60.35v-23.6h-12.6V500.6c0-6 4.59-18.27 20.3-18.27 12.71 0 15.81 7.69 15.81 16.77v42.62h-12.08v23.61h60v-23.6h-12.25v-38.46c0-22.65-8.55-49.35-42.3-49.35-16.66 0-30.34 7.9-36.11 17.63-7.26-11-18.27-17.63-34.72-17.63-13 0-27.35 5.55-35 16.13V455.2h-45.64v24h14.74v62.49h-12.5Zm280.94 1.28c30.76 0 47.32-23.07 47.32-57.68 0-33.22-15.38-55-46.68-55-11 0-22 4.17-28.63 9.29V417.6h-50.84v23.82h14.74v123.92h33.86v-9.72a46.22 46.22 0 0 0 30.23 11Zm-7.69-26.81c-10.79 0-21.37-6.84-21.37-28.41 0-26 12.5-30.55 21.15-30.55 10 0 18.91 8.12 18.91 28.31 0 29.05-13.03 30.01-18.69 30.65Zm61.64 25.53h61.21v-23.61h-13V417.6h-50.46v23.82H726v100.3h-12.5Zm74.56 0h60.14v-23.61h-12.28V511c0-20.93 14.74-25.53 26-25.53h15v-31.55h-12.16c-13.67 0-26.28 6.62-31.94 17.2V455.2H787v24h13.25v62.49H788Z" style="fill:#fff"/>
</svg>
