<svg xmlns="http://www.w3.org/2000/svg" viewBox="0 0 1024 1024">
   <circle cx="512" cy="512" r="512" style="fill:#006fff"/>
   <path d="M645.89 342.55h44.63v44.61h59.49v59.49h-59.49v-59.47h-44.63v-44.63Zm-14.85 163.69v-59.6.02h59.49v59.49H750v18.86c0 21.8-1.85 47.62-6.11 67.9-2.39 11.34-6.01 22.6-10.25 33.42-4.35 11.07-9.36 21.67-14.81 31.17a232.691 232.691 0 0 1-24.9 35.5l-.51.59-.83.97c-2.29 2.69-4.56 5.36-7.06 7.95-2.91 3.07-5.91 6.07-8.98 8.98-38.07 36.66-87.67 59.56-139.53 64.82-6.24.64-18.77 1.3-25.02 1.3-6.27-.02-18.78-.66-25.02-1.3-51.86-5.26-101.47-28.18-139.52-64.82-3.08-2.91-6.07-5.91-8.98-8.98-2.62-2.71-4.98-5.49-7.36-8.3s-1.03-1.21-1.03-1.21a233.396 233.396 0 0 1-24.9-35.5c-5.45-9.52-10.46-20.1-14.81-31.17-4.24-10.82-7.86-22.08-10.25-33.42-4.26-20.3-6.11-46.11-6.11-67.9V301.64h118.96v204.6s0 15.69.2 20.82l.04 1.2c.25 6.65.49 13.15 1.19 19.62 1.96 18.37 6.02 35.8 14.4 50.55 2.42 4.26 4.88 8.39 7.82 12.31 17.9 23.86 45.13 41.78 79.1 46.77 4.04.59 12.2 1.1 16.29 1.1s12.24-.52 16.29-1.1c33.97-4.99 61.2-22.9 79.1-46.77 2.96-3.92 5.4-8.05 7.82-12.31 8.37-14.74 12.44-32.17 14.4-50.55.69-6.49.94-13 1.19-19.65l.04-1.17c.2-5.13.2-20.82.2-20.82Zm104.09-208.33h-29.75v29.75h29.75v-29.75Z" style="fill:#fff"/>
</svg>
