<svg xmlns="http://www.w3.org/2000/svg" viewBox="0 0 1024 1024">
   <circle cx="512" cy="512" r="512" style="fill:#e9500e"/>
   <path d="M325.16 423.51A74.16 74.16 0 1 1 251 497.67a74.16 74.16 0 0 1 74.16-74.16ZM634 260.89a74.16 74.16 0 1 1-74.16 74.16A74.16 74.16 0 0 1 634 260.89ZM492.42 688.53a180.61 180.61 0 0 1-123.17-93.93 106.76 106.76 0 0 1-63.41 7.79 241.43 241.43 0 0 0 173.83 145.68 244.34 244.34 0 0 0 52.66 5.42 106.12 106.12 0 0 1-21.71-62c-6.12-.68-12.22-1.67-18.2-2.96Zm124.89-73.75a74.16 74.16 0 1 1-74.16 74.16 74.16 74.16 0 0 1 74.16-74.16Zm103.2 46.92A242.63 242.63 0 0 0 732.67 377 106.89 106.89 0 0 1 691 425.86a181.82 181.82 0 0 1-6 180.59 106.35 106.35 0 0 1 35.51 55.25ZM319.44 391.32q2.82-.15 5.65-.15a107 107 0 0 1 56.24 16A180.87 180.87 0 0 1 527 329.29a107.53 107.53 0 0 1 22.5-60.14c-93.29-7.39-183.91 40.73-230.06 122.17Z" style="fill:#fff"/>
</svg>
