<svg xmlns="http://www.w3.org/2000/svg" viewBox="0 0 1024 1024">
   <circle cx="512" cy="512" r="512" style="fill:#003d86"/>
   <path d="m523.77 423.14.89-.3a3.11 3.11 0 0 0 2.63-1.75 8 8 0 0 1 .68-1.32 10.63 10.63 0 0 1-1.25.46l-2.06.59-1.76.86-2.33 1.76-.12.79-.16 1 2.33-1.75a4.23 4.23 0 0 0 1.15-.3m-88-32.26.86.87 3.2 1.16 1.76-.33 3.48-2.32c.87-.56.87-1.13.87-1.13l1.43-.29 1.2-.29 2.28-.31 1.19-2.59v-3.77l-.57-1.77-4.47 1.13-4.29-1.16c-4.39-1.16-2.38 0-2.38 0l-.87 2v.88l-.3 1.45-1.16 1.2-1.45-.3h-1.13l-1.19-.29-1.45.59-1.13 1.16-.92 1.43 1.43 2Zm-43.31-89.8 2.06-1.17 1.15-.86a9.36 9.36 0 0 1 1.43-2.29c1.2-1.49 2.07.26 2.07.26l2-.26a1.54 1.54 0 0 0 1.45-2l1.76-.87c1.71-.86 2-1.45 2-1.45a31.16 31.16 0 0 0 3.78-1.46c2.63-1.16-.87 0-.87 0s-.87 0-3.2.27 0 0-5.16-.86 0 0-3 0h-.87s-4.34 5.25-5.26 6.67l-.8 1.4-1.76 2-1.45.87-.3 1.45a6.72 6.72 0 0 1 2.06-.31Zm105.49 116.5-1.5 1.16-.57 1.16-.26 2-2 .29-.35-.86-1.13-.87v1.5l1.76 1.46h1.1l1.45-.6 1.76-1.16a19.3 19.3 0 0 0 2.06-1.75l.89-.87.56-.89-2.63-.55h-1.13Zm124.63-35.46c.92 1.49-1.76-.56 1.76 2.63l3.53 3.18a1.89 1.89 0 0 0 1.13 1.19 25.3 25.3 0 0 0 4.08.27l-.31-1.16-1.71-2-.61-.87a5.37 5.37 0 0 1-1.15-2.4c-.3-1.45-.56-1.13-.56-2.62v-2.91a3.61 3.61 0 0 1 .26-2.32 13 13 0 0 0 1.19-2.31l1.2-2 .26-1.77 3.2-4.34c2-.87 2.58-.59 2.89-1.46s.87-1.45.87-2.29.57-1.77-.3-1.77-1.13-.27-1.76.57.3-.57-.57.86.57 1.46-.87 1.46.31.29-1.43 0l-1.77-.29-1.43 1.45-.86 1.46-1.2 1.16-1.42 1.72a9.6 9.6 0 0 0-.63 1.75c-.27 1.2 0 1.77-.57 2.64l-1.13 1.72a35.81 35.81 0 0 1-1.15 3.79 4.76 4.76 0 0 1-1.49 2s-1.2.29-.31 1.45 0-.29.87 1.16m-145.3-50c.3.87.3 1.16.57 2s.87 2 .87 2l1.47 1.89 4.91.63 1.2.27 1.76 1.43 3.47-.59h1.2l.86-1.13c.89-1.17.27-.89.89-1.78a3 3 0 0 0 .51-2 4 4 0 0 0-.26-1.73c-.26-.87-1.15-.59-1.76-1.78s0 0-3.2-2.29-1.13-1.16-2-2.36 0 0 0-.85a9.56 9.56 0 0 0-.57-2.62c-.31-.86-1.81.57-1.81.57v.87a2.37 2.37 0 0 1-.52 1.46l-2.33.27h-1.19a1.54 1.54 0 0 1-1.15 1.46c-1.13.27-.86.57-3.19 1.75s0 1.75.27 2.64M451 396.73l-1.09-.63-1.69-1.1-.87.55V397l-1.13 1.45h-2.33a1.19 1.19 0 0 1-1.13-.57l-1.81.86.61.87.27 1.16 1.17 1.73 1.45.55c1.45.63.57 1.46.57 1.46h-2.27l-3-.83a11.94 11.94 0 0 0-2-.87 2.19 2.19 0 0 0-1.5 0h-.82l-3.72 1.19 2.84 1.75 2.63 1.75.87-.31 4.08 2.07.87.83 1.71 1.46 1.76 2 1.2 1.16a5.28 5.28 0 0 0 2 1.45l2.07-.57-.31-1.75-.31-1.15c12.19 1.72 7.28-5 7.28-5l-1.13-1.46.87-1.77V403l1.15-1.42 1.71-1.75.61-1.72a2.12 2.12 0 0 1-.87-1.46 3 3 0 0 1 .87-1.75l1.15-.87c1.19-.9.3-1.16.56-3.2.1-.6.1-.91.17-1.08l1.34-2.12.82-.87 1.5-.86 2-.59c2-.57 0 0 1.77-1.16a1.88 1.88 0 0 0 .86-2.61l-.61-.87c-.57-.87-.26-1.16-.26-1.16l.56-1.16.87-.29h.87l2.29-1.06-.26-1.75s-4.65.6-5.54.89l-1.76.55-1.13-.55-1.45.55-.31.87-1.43.59-2.33.6-1.76.85 2.63.29-.57 1.16-.87.9-3.19 2 1.76.86-.89 1.75-1.49.29c-1.39.29-1.71.87-1.71.87l-.27.87 2 .57.63 1.46-.89.57c-.87.57-.56.83-.56.83v2.64l-1.45 1.72h-2.36c-1.28 0-1.43.23-1.28.38m104.44 120.55s.27-.25-.21-.09ZM485 555.49l-.82-.79a1.86 1.86 0 0 0-1.13-.79 3.86 3.86 0 0 1-1.55-1.16l-.57-.36a4.26 4.26 0 0 1-1-1.17l-2.68-.94-2.18-1.2a2.13 2.13 0 0 0 .22 1.37 9 9 0 0 0 2.53 2.31 3.92 3.92 0 0 1 .92 1l1 1 1.19 1.9 3.26.43 1.39.35a1.77 1.77 0 0 0 .21-1.16 1.46 1.46 0 0 0-.78-.72M548.23 515l-.57-.86c-.63-.85 0-1.16 0-2.33a1.47 1.47 0 0 0-.87-1.46l-3.2.3a16.54 16.54 0 0 0-2.94-.3h-1.72c-.86 0-.3.86-.3.86s1.2 1.16 2 .87 1.19 2 1.19 2l-1.45 2.33a3.59 3.59 0 0 0 1.45 2.59c1.45 1.2 0 0 .87 0l2.63 1.2 3.47-.87A20.42 20.42 0 0 0 552 519c1.71-.27 0 0 2-1.15l1.25-.66-2.68-.79Zm-71.63 26.35c.78-.6.63-.82.78-1.38a17.23 17.23 0 0 0 .63-2.12c.35-1.52 1.5.77 2.68 0a3.21 3.21 0 0 0 1.31-1.75l-5.22-3.48s-1.19-1.37-1.76-1.94a1.48 1.48 0 0 0-1.34-.39h-1.55a6.36 6.36 0 0 0-.57 1.73 6.85 6.85 0 0 1 0 3c-.4 2.11-.78.92-1.13 1.75s.16.94.16.94l2 .36s-.21 1.19-.4 2.74.21-.36 1.39-.59.73.22 1.13 1a6.46 6.46 0 0 1 .35 2.12 8.75 8.75 0 0 1 1.55-1.93m-42.32-58.93s-1.45-.27-1.9-.44-1-1.13-1-1.13l-1.13 2.74s-.16 1.89-.26 2.35a7 7 0 0 1-1 1.88 7.25 7.25 0 0 1-2.16 2.18c-1.2.76-.57 1.19-.57 1.19l1 1.3a8 8 0 0 1 1-1c.42-.27 1.15 1.32 1.15 1.75l1.65-.87 3.31-4.05a12.86 12.86 0 0 1 1.6-1.62s.3-1.88.4-2.32-.3-1.46-.3-1.46Zm8.12 29.07c-.83-.86-1.45-1.16-1.72-1.75s-.3-1.59-.87-1.59a4.25 4.25 0 0 1-1.6-.61 6.74 6.74 0 0 0-1.76-.43v3a7 7 0 0 1 1 1 10.2 10.2 0 0 1 .72 1.76c.17.4.57.59.73 1.32a5.92 5.92 0 0 0 1.76 2.33 3.32 3.32 0 0 1 .68 2.62 3.18 3.18 0 0 0 .47 1.17l1.18-1.17s1 .56 1.15-.46.16-1.16.46-1.58-1.86.14.87-.89l2.74-1 .73-1.32a50.88 50.88 0 0 0-4.64-2.18c-.44 0-1.07.57-1.93-.29M437.17 481l.63.13 2.28-1.59a21.15 21.15 0 0 0 1.49-2c.27-.63 1-2.21 1-2.21h-.73c-.73 0-.73-.13-1.3-.42s-.73-.46-1.19-.17a5 5 0 0 0-.82.9s-.31 1-.63 1.72a20.29 20.29 0 0 0-1 2.49c-.31 1.06.26 1.19.26 1.19m99.68-69.75-.26-1.19-1.5-.26-.26 1.72 1.13 1.19Zm18.29-42.82a2 2 0 0 0 .3-.2s-2.67-.6-.3.2m-2.79 63.15v-.1s-.31.55 0 .1m121.14 255.71s.26.16.57.3c-.36-1.9-.57-.3-.57-.3m-51.36-30.51c.46.1 0 0 0 0M482 263.49l-.1.09s.56-.25.1-.09m196.7 66.65-.21.05c.47.5.21-.05.21-.05m-140.09 94.47a6.31 6.31 0 0 0 .3-1.76l-2.32-.57-1.2 1.17-1.13.56 2.89.3s1.15 1.13 1.46.3m-10.44-5.25s-.05 0-.21.43c.42-.31.21-.43.21-.43M516 572.52l1.45.29h3.15l1.19-1.43 2.63-1.15h-4.08l-2.58-.9-4.39-.27.26 2Zm49.09-60.46-1.76-.27.3 2.33s1.76 2-.3 2H559l-1.19-.3-1.71.3 1.45 2.32-.31 1.45a2.09 2.09 0 0 0 .31 1.76c.56.83.56 1.42 1.13 2.31a5.3 5.3 0 0 0 1.45 1.43 3.36 3.36 0 0 0 1.19 1.78 9 9 0 0 1 2.33 3.18c.3.86.57 1.47.87 2.33s.87.56 1.45 1.42-1.2-1.13.57.9 1.19.85 2.06 3.2a15.84 15.84 0 0 1 .87 4.91l-1.24 1.76a5.29 5.29 0 0 1-1.71 1.16 16.45 16.45 0 0 0-2 .87l-2.06.86-1.45.33-2.63-2.07s-2-3.67-1.55.77l-.57-.27-1.9-.79s-.42-.35-1.55-1.15-.78-1.92-1.9-1.92-.78-.42-2.33-1.16-1.6 0-2.74-2 .78-.39-1.2-1.94-2.33-1.92-3.47-2.33a18.07 18.07 0 0 1-2.74-1.19l-3.47-1.51h-1.55c-1.2 0-1.2-.38-3.1-.38h-2s.63-.38-2.68.38l-3.26.76s-3.31-1.35-4.49-1.72-1.35-1.37-2.12-1.73-.82-1-1.6-1.58-1.35-1-1.9-1.37-.36-.74-.36-.74l-.78-1-.61-1-.17-1.19v-.77l.17-1.72-.17-.63-.4-1.15.4-1 1.15-.77 1.19-.61.57-1.17a5.45 5.45 0 0 1 1.19-.55c.52-.2 1.15-.39 1.15-.39l1.76-.36.57-1.78.77-1.16.22-1.13 1.09-1.37.78-.59 1-.18s.78.36 1.9.77c.94.31 1 .36 1 .39l1-.39v-1.16l-1-1.35 1.54-1.54v-1l1.39-.55a2.84 2.84 0 0 1 1.5-.39 4.35 4.35 0 0 1 1.76.39l1.19-1.34.57-.79h3.1l1.13-1.35 2.06 4.66 1.15-1.49.87 1.49v1.42l.3.87.27 1.19 2.06 1.72.87.31.87-.31 1.45-.57 1.45-.29h.87l2 .29a19.43 19.43 0 0 1 3.2-.59c.87 0-.63.3.87 0s.57-.55 3.15 0l2.63.59 3.52.89s.26.27 1.13.27h.89s4.64-1.75 3.19 0a9.21 9.21 0 0 0-1.76 2.61h-2s.87 0-.83-.29m17.16 60.41-.87-.82v-.23Zm25.89-35.7s-.92 0 .82.86l1.76.87 1.2 2.91v3.2l2 2 1.13.27 1.2 2.36-1.44 3.73-.3 1.2.87 2s.56 2-.31 2.92 0-2-.82.87 2.91 4.92 2.91 4.92c0 2.32-.87 2.92-.87 2.92v1.19l1.13 1.73a3.88 3.88 0 0 0-.26 1.45 11.48 11.48 0 0 1-.63 2.62l-.57 2.92v2.31l-.56.89-.57 1.75-1.76.6a13.43 13.43 0 0 1-1.45.56c-.87.3.87.3-2.33.3-2.74 0-5.42-.23-6.2-.3a11.23 11.23 0 0 0-1.08-2.06l-1.15-1.73s0 .61-2.06-1.43l-2-2s-1.77-2.32-1.77-3.49-.3-.86 0-2a27.22 27.22 0 0 1 1.45-3.47l2.33-1.46.3-2.94s.57-.57 1.45-1.42.87-1.17 2.06-1.17h1.15s1.76-.27.56-1.19a9.24 9.24 0 0 0-2-1.16s-.3-.56-.87-1.46-.3-.83-.57-2-.87-2-1.19-3.2a11.88 11.88 0 0 0-1.13-2.64s-2.33-1.73-2.64-3.74-.26-.86-.26-2.06a21.82 21.82 0 0 0-.3-2.89s-.87-.55.3-1.16a6.68 6.68 0 0 0 2-1.76l-.61-.44-.26-.13c-.17-.1-.42-.29-.89-.57L594.1 535l-.26-1.43.57-.89 2-1.76s.87 1.76 1.76-.57l.87-2.32.87-2.91 1.45 1.17 2.33.27 1.19-1.45L606 524l2.58-.27s-3.47-.61.61-.89l4.08-.3 6.36.3s0-.86.3 1.46.57.87 0 3.78 1.71 4-.87 4h-2.63l-2.58.63s-.87-.63-.87 1.16v1.76l-1.13 2.29c-.94-1.71-.63-2.29-.94-1.71s-3.19-1.17-3.19-1.17Zm-57.88-261c.05.26-.63-.35-1.45-1.07.68.33 1.35.72 1.45 1.07m190.11 351.75C698 710.79 611.57 768 512 768a254.65 254.65 0 0 1-66.13-8.7l4.39.69a58 58 0 0 1 6.4.74 10.64 10.64 0 0 0 3.48.43c1.64 0 3.52.26 5.42.26s1.86.48 2.44-.26.63-.77 1.6-2a32.25 32.25 0 0 0 2.48-3.09c.16-.42-.87-1.15-1-1.58s-.82-1.15-.82-1.9a3.54 3.54 0 0 1 .3-1.86 22.75 22.75 0 0 1 1.86-2.16s-5-2.06.87-3.66 6.81-2.45 6.81-2.45a12 12 0 0 1 2.18-.9c.73-.13 6.67-1.42 6.67-1.42s22.43-3.49 23.71-4.2 7.86-1.35 9.46-1.76 20.47-8.86 23-10.76 7.39-4.05 8.42-5.09 3.61-3.06 3.61-3.06 2.18-2.29 2.63-2.71a22.06 22.06 0 0 1 2.58-2.33c.78-.63.78-1.51 1.45-2.2a11.33 11.33 0 0 0 1.65-2.35l-3.87-.38-1 .59-2.32.18-2.33.18-2.33.59-2.33.22-2.53-.22-.78.39-1.76-.39s0-1.35-1.71-1.15a6.5 6.5 0 0 0-2.33.56l-2 .59-2.48.22-1.6-.57-1.9-.59a22.42 22.42 0 0 0-2.74.35c-2.12.4-1.15 1.22-2.7.59s-3.87-1.73-3.87-1.73a8.73 8.73 0 0 0-1-1.51c-.57-.81-1.35-2.15-1.35-2.15l-2.94-1.2 3.14-.94a2.83 2.83 0 0 0 .78-1.54c0-.77-.21-1.21-.21-1.77s-.21-.61-.92-1.69a41.66 41.66 0 0 1-2.38-4.13 13.58 13.58 0 0 0-2.28-3.06 25.46 25.46 0 0 0-2-2.15c-.82-.57-2.74-1.52-3.1-2.11s.73 2.11-1.19-1.17-1.76-4.05-1.76-5.07v-4.25c0-.55.61-2.51.21-3.31a8.39 8.39 0 0 0-1.55-2.51c-.78-.76.63-.57-1.71-2.08s-3.31-2.53-2.94-3.1a13.44 13.44 0 0 0 1-3.87 27.31 27.31 0 0 1 1.71-4.65 26.58 26.58 0 0 0 1-5.21c.21-1.56.63-1.78.21-2.72a28.8 28.8 0 0 0-1.71-3.31l-2.53-2.49 1.15-2.14a24.28 24.28 0 0 0 .77-3.13 39.56 39.56 0 0 0-.35-4.06c-.21-.56-.78-3.28-.78-3.28l-.63-8.35a26.1 26.1 0 0 0-.35-2.89 4.82 4.82 0 0 1-.21-2.91c.4-1.17.78-1.56.78-2.33s-.22-.81-.92-2a6.59 6.59 0 0 1-1.39-2.92c0-.55-.16-4.22-.16-4.83a5.9 5.9 0 0 1 .35-1.54s.21-.61.63-1.92.73-6 .73-6l-3.88-4.48h-1.71l-3.52-.4s1.34.82-2.68.4-2.38 2.14-4.51-.77a25.88 25.88 0 0 0-4.64-4.83l-8.74-5.65s-.56-.77-.92-1.35-3.66-4.08-3.66-4.08l-2-1-2.46-2.7-.17-1.75s-.82-2.72-1-3.31-7.54-6.79-13.94-1.34a4.14 4.14 0 0 0-1 1.92c0 .78-1.34 2.49-1.34 2.49s-4.65 2.18-5.64 1.76-3.1-3.47-3.1-3.47a40.41 40.41 0 0 0-1.13-4.86c-.42-.6-6-.94-8.52-6.38s1.13-5.77.16-8.12a15.1 15.1 0 0 0-3.47-4.65 24.54 24.54 0 0 0-2.74-3.28c-.57-.38-3.31-2.35-3.88-3.71a31 31 0 0 0-1.71-3.44 12.33 12.33 0 0 1-.78-3s-.4-1.73-.63-2.35-1.9-3.66-1.9-3.66 7.95 1.77 8.9-3.1.82-6.38.82-6.38a2.1 2.1 0 0 1 1.35-.59c.78 0 3.1-.39 3.1-.39s-2.33-1-2.53-1.56a7.35 7.35 0 0 1-.21-2.12c0-.59-5.64-3.48-5.64-3.48a13.29 13.29 0 0 1-3.26-1.37 21 21 0 0 1-1.9-2.5l-5.1-1.89s-4.3-1.93-4.65-2.72a22.37 22.37 0 0 0-1.6-3.28 27.43 27.43 0 0 0-1.86-2.32l-6.81-3.5s-4.86-4.06-6.36-3.49-1.76.81-2.58-.18.63-2-3.47-2.15-4.44 1.16-4.86-.18a18.21 18.21 0 0 0-1.13-3.13 7.32 7.32 0 0 0-1.15-1.72c-.61-.57-2.94-3.1-2.94-3.1s-1.55-6.19-.78-6.59-1-1.56-1-1.56l-2.33 2-4.86 1.9-3.87.4s-2.7-1-3.47-1.13-3.1-.6-3.1-.6l-2.53 1s-6.77 2.7-6.77 3.28-1.9 2.51-2.53 3.31-2.68 2.5-3.26 2.5a5.33 5.33 0 0 1-3-.59c-1.9-.77-4.23 0-5.42-1.34s-1.71-2-2.68-2a11.55 11.55 0 0 0-3.31 1.16c-1 .4-1.55 1.38-2.53 1.38s-3.88 0-7.33 3.31c0 0-6.77-.4-10.64 3.86a1.55 1.55 0 0 1-1.55-.77c-.61-1-2.51 3.84-2.51 4.64s-7.19 19.54-14.11 20l-1.2-.7s1.3 3.49.57 4.81a23.19 23.19 0 0 0-1.45 4.08l2.18 5.09-3.31-4.66-.78 2.92 1.19 2.92-1.19.57 1.65 3.49 1.39 5.22-2.67-2.56s1.35 11.17 1.15 11.74-1 4.79-1.15 5.51a11 11 0 0 0-.4 3c.1.6 2.33 11.91 2.44 12.68s.63 4.61.87 5.19 3.77 13.69 4.08 14.28a6 6 0 0 0 1.59 2.59 39 39 0 0 1 3.62 4.09c3.77 4.49 3.61 4.76 4.81 6.21a33 33 0 0 1 2.16 3.07l1.2-1.32.4 2.59s-.68 2.66 1 4.23a33 33 0 0 0 3.31 3c1.81 1.33 5.69 3.18 7.87 4.49s5.12 2.2 7 4.2 7.54 7.14 7.54 7.14 1.6 9.88 1.71 11.33 2.48 4.39 3.78 5.38 5.21 4.09 5.21 4.09l.78-1.49.73 2.62 1.29 1.49.16 1.85s2.48 2.2 2.48 2.75v2a34.54 34.54 0 0 1-.87 3.39l-1.45 1.24-1.43.61.82 2.36-2.18.39 2.63 3.5-3-1.86-1 .1-1.43.21a2.7 2.7 0 0 0 .16 1.86c.4 1.33 2.89 7.84 3.93 9.26s3 5.54 3 5.54l2.58 6.67.87 2.68a47.87 47.87 0 0 1 1.92 4.91c.16.86 1.76 3.95.72 3.79a4.31 4.31 0 0 0-1.49 0s4.08 5.8 2.21 7.1a2.13 2.13 0 0 1-3-.16h-1.3l-2.71 2.28V704l.47.44C289.93 657.52 256 588.66 256 512c0-97.06 54.31-181.68 134.15-225.06v.79l-.57.86v1.17l.31 1.45 1.71-.27 1.43-.86 1.2-.6s3.2-2.61 3.2-3.49.87-.57.87-.57l3.2-1.13s1.13-.33 2-.61 1.13-1.46 1.13-1.46l1.2-.57a6.73 6.73 0 0 0 1.76.27h2.33s2-2.91 2-3.75a5.87 5.87 0 0 1 .31-1.76l-.17-.08c.73-.31 1.5-.6 2.28-.91l1 1.26.87.29-.56 2s-2.07 1.75-3.2 2.91-1.71 1.76-2.58 2.62-.31 1.17-.31 1.17l.57 1.75 2.94 2.33 4.93-1.45 1.45-.59 2.91-1.75 1.76-1.16h2.06l1.71-1.46 1.45-1.75 3.82-1.75 2.33-1.72c2.33-1.76 2.58-.31 2.58-.31l1.45-.29c1.45-.3 7.3-2 7.3-2s1.76-.83 12.19-1.46 1.45-1.16 1.45-1.16l-3.52-.56c-3.47-.6-.82 0-1.71 0s-.87 0-2-.6-.3-.83-.3-1.72 1.45-.86 1.45-.86a6.59 6.59 0 0 1 2.32-.87 20.91 20.91 0 0 1 4.65 0s2.63-.33 6.67-.87.87 0 3.2-.26 4.69-.6 5.52-1.19a24.5 24.5 0 0 1 3.78-1.76l1.55-.66 1.34-1.67s-3.15.33-4 .33H475a6.38 6.38 0 0 1-2.58-.33 4.83 4.83 0 0 0-1.19-.27l-4.34-.3-3.2.3-1.2.27-2 .59-.87.33a3.85 3.85 0 0 1-1.76 0h-1.47l-1.13-.33v-.05a257.16 257.16 0 0 1 53.17-6.29l1.76 1.08.57 1.19 1.76.87-6.41-1.2-2.89-.57h-1.45l-3.52.33v.83l-4.34.87 2 .29 3.52.59h7.3c6.1 0 1.15.57 1.15.57l.86.59s1.15.6 2 1.19a8.64 8.64 0 0 1 1.45 1.13l8.16.29 1.76.57v1.17l.57 2-5.21-.26h-4.65c-2.94 0-2.63.59-2.63.59s-4.64-.33-6.67-.59-1.5 0-1.5 0-1.13-.29-2.58-.55l-2.58-.9-2.32-1.75 1.38-1.72-2.89.23-2 .63h-.87l-.87.86-2.33 1.46h-1.13l-1.5-.3h-2L475 268.5l-1.38.3-3.26 1.75-.57 1.46 2.06-.59 6.36-3.79.3 1.46-1.43.86h-.87l-3.2 1.72h4.91l5.26-.26.87-.29 2.58-.59 2.07-.27 1.13.86-.57 1.16-.87.3-1.13.59a8.4 8.4 0 0 0-2.07.27 4.89 4.89 0 0 1-1.43.3h-2.63l2.94 1.13 2 .3h1.76l3.77-.56 2.58-.87 1.76-.9 5.54.33 7.86.27h6.1l7.3-2.32h3.2l2.58-1.75.63-1.16h5.78l4.08.27c4.08.3 3.2 0 3.2 0l-.61-.86-.27-1.16-10.49-3.53 1.19.22s.82.1 6.11.4c.72 0 1.29.08 1.76.1 3 .13 1.71-.1 1.71-.1l1.49-.85-2.37-.59-1.72-.6-.86-.3-1.22-.27-2.94-.27-.82-.9h2l4.39-.29 1.15-.87.51-.93c1 .12 2 .25 3 .39l-.31 1.71v1.46l1.5.9 2.33 1.43 1.45.56s0 .3 1.43.57a11.19 11.19 0 0 1 1.45.3 11 11 0 0 0 2.33.29v.87a1.77 1.77 0 0 1-1.19.3h-2.7a13.9 13.9 0 0 0-1.65-.59l-2.63-.87h-4.73l1.76 2.88.87.9h1.19l4-1.16.87.86-3.42 1.52s.87 0-.92.3a25.43 25.43 0 0 0-3.47.86h-.87l.3.87 3.52 1.75h.82a21.89 21.89 0 0 1 2.18.79c.61.53 1.34 1.25 2.21 2.1 9.32 9 3.47 4.08 3.47 4.08l-8.42-.86-1.76.61-1.43-.61-1.15-.29-.87 1.46a3.2 3.2 0 0 1-1.45 1.16c-.86.33-3.19 1.16-3.19 1.16l-7 1.75-5.82.87-1.45-.57-4.35-.89-2.06-.26-2.28-.33-.87.57-1.19.89-2 1.46h-2.89l-3.52.29 1.19-.59.82-.86 1.2-1.17-.31-.86-1.71-.29-2.63.9-1.77 1.71-4.34.87-3.2-1.76-1.13-.59h-2.63l-1.2.3H484l-4.39-.87-4.34 1.76-6.67 2-5 .3-4.6 1.45s0 .87-1.43 2a4.52 4.52 0 0 1-3.2.9l-2.37 1.72-.26 1.17s7.8-5.2-2.63 2.06-2.07 3.78-2.07 3.78l5.84.86 4.65-1.16 7-.87c4.34 1.17 6.67 1.75 6.67 1.75l5-1.45h1.13l2.94 1.75-.3 1.46.87 1.75c1.15.86 2 1.46 2 1.46l5.26.86h6.67a3.91 3.91 0 0 1 .26 1.46c0 .86 2.07 4.65 2.07 4.65 2.58 2 2.58 2.32 3.77 2.59a32.54 32.54 0 0 0 3.47.89l1.76.3s1.45 3.47 1.2 0l-.31-3.49v-1.76a1.35 1.35 0 0 1 1.2-.87 15.71 15.71 0 0 0 2.33-.29s.26.29 1.13.29.57 0 2.58-.87 2.63 0 2.38.87a8.12 8.12 0 0 1-1.2 2.33c-.56.87 1.76-2.33-.56.87s-11.06 2.61-2.33 3.18 10.18 0 10.18 0-1.76-1.73-1.76-2.62a9.8 9.8 0 0 1 .3-2s-.61.27.87-1.16l1.45-1.46s.26-2 .87-.57a6.93 6.93 0 0 1 .27 3.18c.05-.1.21-.43 1.43.61a19.28 19.28 0 0 0 2.63 1.75h1.2l1.71-1.45h2s-.26-.3.87.57l1.2.86 3.19-1.19.89-.86 6.67-1.43.3-.87 6.36-2.63 1.43 1.15a6.13 6.13 0 0 0 1.76.89 4.51 4.51 0 0 1 2 1.46s-4.65-.87-5.48.86l-.87 1.76 7 1.72 1.76.89 2 1.13s.3-.26.87.9l1.45 2.88 1.19 2.92 2 1.16a2.23 2.23 0 0 0 1.76-.3 8.41 8.41 0 0 1 2.06-.86h7l1.76.29 2.59-.86 3.47 2 5.12 2.42a17.36 17.36 0 0 0 1.34 1.37c2.58 2.63 3.78 2.63 3.78 2.63l1.45-.3 1.13-.61 2.63-1.13h1.45l2.33-1.46 2.58 1.46 2.94 1.46c1.76 3.47.57 2.31 1.76 3.47s0 .89 1.15 1.16l1.13.3 2.38-1.16s1.13-.3 4.91 1.77 4.08.89 3.77 2a2 2 0 0 1-1.13 1.45 2.3 2.3 0 0 1 0 1.49 18.23 18.23 0 0 0-.57 2l2.91-2 .87.26 3.47 3.5 2.89.86s1.76.59.63-.86-3.52-4.08-3.52-4.08l1.76-.57s-.87 2 .87 0l1.71-2s1.19-1.46 1.5-.59-.63 0 0 2a19.28 19.28 0 0 1 .56 2 10.32 10.32 0 0 0 1.45 3.49 3.46 3.46 0 0 0 1.45 1.16 22.82 22.82 0 0 0 3.77 1.16l-.56-1.75-.63-1.16a4.83 4.83 0 0 0-.57-1.46 7.44 7.44 0 0 1-.87-2.33c-.46-1.75 1.6-1.8 2.23-1.75-.05 0 .3.3 3 1.46l4 1.75 1.76 1.75 3.78 3.79s2.38.55 2.38 1.46 1.43 2.91 1.43 2.91l1.15-.3 1.19-.86 2.33.57 1.13.29.57 1.43s-.26-.87.87.9 1.76 2.62 1.76 2.62l1.45.85.87-.61 1.13-2.85v-.9s-.26-1.43 1.15-.29.61.59 2.06 2.06l1.45 1.46.63-1.19s1.43 1.47-.31-1.46l-1.76-2.88-2.33-3.5-1.76-2.61-.25-2.06 1.76 1.45a4.79 4.79 0 0 0 1.71 1.15c.87.3.3 1.19.87.3.26-.43.73-.08.87.09-.1-.17-.56-.61-1.45-1.84-2.63-3.49-2-1.16-2.63-3.49a33 33 0 0 0-.87-3.18 3 3 0 0 0 0-1.77c-.26-.87-1.13-4.64-1.13-4.64l1.13-.29 5.64-2c-.21-.27-.68-1-1.55-2.37-2.33-3.79-3.47-4.66-3.47-4.66l-.89-1.13-2.06-1.75-2.33-3.78c1.19-.57 3.82 0 3.82 0h1.45v-2.93q5.2 4.24 10.18 8.73l.26.6h-2l1.45 2 .87.86.56 2a6 6 0 0 1 .31 1.75 8.21 8.21 0 0 0 .57 2.29s1.76 2.37 1.76 3.2-1.76.3.56 2.64 1.76 1.42 2.33 2.31-.57-1.13.57.87 2.58 4.08 2.58 4.08l-.82 1.16s-.3.3 0 1.16a10.82 10.82 0 0 0 .82 1.75s.92 1.46 0 1.76a5.92 5.92 0 0 1-1.65.27l-3-2.32-2.87-1.11-.57-.25a24 24 0 0 1 .87 3.79 3.71 3.71 0 0 1-.61 1.75l-1.45 1.43-1.45 1.49-.87 5.51v2c0 1.76.26 3.53.26 4.34s-2.27-1.72-2.27-1.72l-.36-1.16a25.51 25.51 0 0 0-1.13-3.2 11.89 11.89 0 0 1-.57-1.46 13.92 13.92 0 0 0-.87-2l-1.13-.3.26 7.83-1.45-1.45s.57.87-.87-.87-2.58-3.2-2.58-3.2l-1.76-1.47s-1.19 1.19-2-1.11l-.87-2.35-.87 1.19-1.45.27a17 17 0 0 1-.87 2 10.5 10.5 0 0 0-1.2 3.52c0 .87-1.13 1.16 0 2.62a9.32 9.32 0 0 1 1.5 2.32c.87 1.43.27-.57.87 1.43s1.45.86.57 2.07l-.87 1.13-2.63 1.19-1.45 1.72.57 2 1.19.87s-.57-.57 1.45.59a12.82 12.82 0 0 1 3.2 2.62s-.31-.59.56.87 0-.3.87 1.45a35.42 35.42 0 0 0 2.59 4.08s-2.8-.94.26 1.22c.35.23.73.5 1.24.82s1 .66 1.45 1l3.47 2.23s-8.9-4.79-9.2-6.16a6.75 6.75 0 0 0-2.11-3.71 20.09 20.09 0 0 1-2-1.75l-2.33-.59-1.19-.87h-2.07a7.58 7.58 0 0 0 .31 1.75c.3 1.16.63 2.33.63 2.33l.56.86 1.15 2.62-1.15 1.43s-.56-.3-.56 1.77-1.2-.6 0 2l1.13 2.64s-.57.56 1.19.56H663l5.84 2.32a8.79 8.79 0 0 0 .31 2 7.38 7.38 0 0 0 1.71 2.62s-.3.3 1.45 1.46a15.64 15.64 0 0 1 2.58 2l-5.22-2.91-2.87-3.7-1.45-1.16s-1.13-.59-1.43.33-.57 2-.57 2l.87 3.2 1.45 1.46-1.15 2.62s.27 2.33-.87 2.59a14.25 14.25 0 0 1-4.08-.26l.87-1.46a6.7 6.7 0 0 0 .27-1.75c0-.87.3-2.91.3-2.91l-.57-2a10.06 10.06 0 0 1-.87-1.75 22.48 22.48 0 0 1-.87-2.35c-.3-1.16-.87-.83-1.76-2.88a19.37 19.37 0 0 1-1.13-3.23c-.3-.83-2.07-6.37-2.07-6.37l-2.32-5.24-2.28-2h-.87a2.48 2.48 0 0 0-.63 1.76v2.91s.3 0 0 1.19a13.83 13.83 0 0 0-.26 2.59l.56 1.72 2 4.65v1.78s-3.47-2.62.57.85 3.77 1.49 4.08 3.49l.31 2-2.63.59-9.27-6.17-1.2-.85-6.69-4.35 1.76 4.08.87 1.72 1.2 2-.31 1.16s1.77 0-.87.29l-2.63.29h-5.21l-1.76.3-2.91-3.79-1.71 1.75a6.2 6.2 0 0 1-1.81 1.16c-.87.29-2.28.87-2.28.87l-4.64 3.17s.57 1.46-1.45 1.19-1.43 4.64-3.26-.29l-1.7-4.9 2-1.16h1.5v-1.11a3.46 3.46 0 0 0-1.5-1.49c-.82-.26-2.91-1.13-2.91-1.13l-.3 1.43L607 397a3.64 3.64 0 0 0-.57 1.73c0 .87.57 1.46.57 2.33a21.75 21.75 0 0 1-.31 2.63l-1.13 1.42s-.3.61-1.76.33a13.33 13.33 0 0 0-2.63-.33l-2.91.61-.4.81-.73-.81v2l-.87 1.46-.87 2.29h-1.2L592.7 410l-1.15-.26-.87-1.46a9.14 9.14 0 0 0-2-2.33s-.3 0-.3.86-.31-1.77 0 .87 1.13 6.08 1.13 6.08.87 1.16-.31.87-5.16-1.76-5.16-1.76l-.61-2.33s-.31-3.18-.31-4v-2.34a3.83 3.83 0 0 1 .92-2.33c.57-.86 0-1.16-.3-2.91l.3-1.75s4.65 3.2 6.36 4.36 1.45.57 1.45.57a12.42 12.42 0 0 0 2.63-.3c1.19-.27 1.19-.27 4.64-1.75s.87-3.47.87-3.47l-1.19-2-1.71-2.07-.87-.83a5.13 5.13 0 0 0-1.2-2 10.57 10.57 0 0 1-1.43-1.77l-.87-.85c-.87-.86-.87-1.45-.87-1.45l-1.45-1.75-3.2-2.92a5.44 5.44 0 0 1-3.47-.87c-2-1.16 0 0-.87-1.16a1.08 1.08 0 0 1 .26-1.75l.31-.87c.3-.89-.57-.89-1.45-1.46s-.87-.83-1.76-1.75-.87-.26-.87-.26a24.27 24.27 0 0 1-2-1.76l-2-2.06-2.91-.57-2.06 1.47s2.89 3.49-8.73.27c-3.48-.93-5.38-1.51-6.41-1.82-1.08.63-4.7 2.84-5.16 3.58-.63.87-.31.87-1.2 1.72s-4.64-.27-4.64-.27l-2.91 1.15c-2.94 1.19 0 0-.87.86s-.3 1.16-.3 1.16-5.54 1.76-7.54 2.35-1.19 0-2 0a1.82 1.82 0 0 0-1.43.86l-2.07.87a3.22 3.22 0 0 1-2 1.19c-1.45.26-6.1.55-6.1.55l-.63-.86-.82-.87-2.89.87-4.7-.87-2.58 1.75-1.76 2a15.71 15.71 0 0 0-2.33-.29c-.89 0-1.2 1.76-1.2 1.76l-.26 1.73c-.21 1.28-.1 1.46-.05 1.46a19.9 19.9 0 0 0-3.47 1.46l-.82 2.32-2.89.57a12.08 12.08 0 0 1 .26 2.31c0 1.17 2.06 3.2 2.06 3.2l.82 1.16a18.46 18.46 0 0 0 4.65.59h3.77l1.45-.29 2.33-.87v2c0 1.16-.57 1.42-1.45 2.61s-1.71 4.64-2.33 5.54a3.41 3.41 0 0 0-.56 1.72l-.57 2.91-1.24 2.68-.57 1.11-2 1.77L500 421l2.63 2.59.87.91h.82a20.59 20.59 0 0 0 3.53-2l2 .27h1.5l3.2-1.16s1.43-1.16 3.47-3.18 0 0 .56-.89 1.45-1.17 2.63-2.31a4.27 4.27 0 0 1 3.2-.9 5.64 5.64 0 0 0 1.71.3c.89 0 2.07-1.43 2.07-1.43l3.15-3.23v-4s.3-1.76.56-2.94a7.55 7.55 0 0 0 .3-1.42 24.89 24.89 0 0 1 2.91-2.33 16.18 16.18 0 0 0 2.63-1.76l2.63-1.75a32.33 32.33 0 0 1 3.47-.57c2.33-.26 0 0 2.64-.26s1.19-.3 2.06-.87 2.84-2.33 2.84-2.33 2.63-1.16 4.08-1.75a7.85 7.85 0 0 0 1.76-.87l1.45.27 3.2 2.35V394l-.87 2-4.91 1.45c-5 1.46 0 0-1.19.3a24.19 24.19 0 0 0-2.91.86c-1.45.59-2 0-2 0l-3.2 2a9.86 9.86 0 0 0-2.63 2.62c-.87 1.46 0 0-.31 1.46a8.16 8.16 0 0 1-.56 2 16.77 16.77 0 0 1-1.45 2.35c-.87 1.13-.87 1.42-.87 1.42v3.2l.3 2.32 2 .59h.87l1.19.57a15.06 15.06 0 0 0 4 1.46c3.2.86 0 0 4.64.27s5.22 2 5.22 2l.3 1.46c.31 1.45 1.45 1.13 1.45 1.13a25.23 25.23 0 0 1 2.06 3.52c.57 1.43.87.26.87.26a13.06 13.06 0 0 0 .82-2 6.57 6.57 0 0 0 .31-2.88v-2.92c0-.86.87 0 .87 0l2 .29.87.89.87.86 1.3.74-.1 1.88-1.2 2.59-1.76.86-1.71.61-2.48.48c-.46-.91-1.13-.69-1.13-.69l-1.13-1.16c-1.2-1.16-.79-.78-1.77-.78h-4.08c-3.47 0-.35.78-.35.78l-1.19 2-1.01 1.79c-.3.44-.51.72-.63.86v.87l.22 1-1.2.81a6.9 6.9 0 0 1-1.13-1.38c-.57-1 0-.77.21-1.92s0 0 .16-.59.78-.78 1.76-1.93.79-1 1.55-1.16-.35-.77-.35-.77a14.27 14.27 0 0 1-1.76-1.38c-1.35-1.16-.92-.39-3.1-1.93s0 0-.56-.4a15.53 15.53 0 0 0-3.53-.77c-1-.2-.78.18-1.49.18s-.83 1-.83 1l-1.71.55v1.75c0 1 .57 1 .57 1l1.13.77-.56 1.35-1.9 2.33c-1.2 1.35-.22 1-.22 1.54s-1.19 1.16-2.89.59 0 0-.21-.59-.42-.57-.57-1.16a9.7 9.7 0 0 1-.42-2.29c-.16-1.58-.4-1.58-.4-1.58l-3.26 1-2.35 1.67-1.19.55s1.19-.55-.73 1-.82 1.35-.82 1.35a14.8 14.8 0 0 0-.57 2.91 4 4 0 0 0 .42 1.75l-3.52 1.56a12.07 12.07 0 0 0-1.35-.6c-1-.38-.78-.2-1.35-.74s-.56-.4-1.34-.4 0 0 0 .77a4.7 4.7 0 0 0 .16 1.56.94.94 0 0 1-.16 1l-3-1c-2.89-.94 0 0-1.54-.59s0 0-.17-.79-.26-.55-.61-1.93-.22-.57-.22-1.16v-.57h-2.89c-2 0 0 0-1.71-.4s-1.19-.77-2.58-1.16a14.12 14.12 0 0 0-3.83-.18h-1.73c-.57 0-.57 0-1.55.76l-.35 1.76-.27.59a1.6 1.6 0 0 0 0 1l-.92-.18.22-1.37-.42-2.89c-.1-.79-.16-1.19-.21-1.39 0 0 .05-.08.05-.17a14 14 0 0 1 .16-2.11 3.94 3.94 0 0 1 .21-1.22l-.35-.74-1.76.21-2.74-.21a4.13 4.13 0 0 1-.57 0 20.66 20.66 0 0 0-2.53-2.1l-.57-2.32c-.56-2.33-.3-1.46-.3-1.46s.3-1.46.63-3.2 0 0 1.43-1.16a2.75 2.75 0 0 1 .78-.48l.1.18.27 1.46.3.87h1.19a6.42 6.42 0 0 0 .52-2.35l-.46-.5a10.19 10.19 0 0 0 2.21-2.41c1.2-1.76 0 0 2.07 0s0 0 0-.85a4.14 4.14 0 0 1 .26-1.77c.3-.87.87-.87.87-.87s.87-.83 1.76-1.72-.57-1.46-.57-1.46l-1.76.87-.87-.29-1.19-1.45-1.45-.29-1.39 1.16 1.71.27.57 1.19-.57 1.16-1.19.55-1.38-.83-1.45-.33-.63.9-.57 1.13-1.74 1.13-.56 1.16v1.13l-.31 1.16-.87 2-.26 1.45c-.3 1.46-2.63 1.17-2.63 1.17l-.73 1.16c-.3-.43-.42 0-2.63.74s0 0-.87-1 0 0-.87-2 0 0-2.18 1.76-.52.43-1.3.16-.26-.74-.87-3.07-.26-.72-2.16-.43-.16.59-3 3-1 .3-2.16.16 0 0 .3-1.62.68-1.59.57-2.32-1 .57-2.64 1.59-.56.46-1.76.9-.56.27-1.29 1.13-.27.74-.57 2.2-1 0-1.5-.16 0-1.16 0-1.16a7 7 0 0 0-2.27-.57c-1 0-.78 0-2.58-.74s-.47-.16-2.07-1.16-.73 0-1.6.86-1 .29-2.48 1.76-1.43 0-3.36.13 0 0-1-1 0 0-1-.16-.47.74-.73 1.62-.46.16-2.33-.87-.73-.43-1.76-2.32 0-.46.16-2-.4-.83-1.43-1.16-.57.86-1 2.33-.16.43-1.76 1.46-.4 0-.87-.3a23.3 23.3 0 0 1-3-2c-1.6-1.33-.27-.91-.57-2.2s-1-.55-2.44-1.16-.63-.89-1.45-1.34-.46.76-1.29 1.94-.36 1.43-.22 1.85a6 6 0 0 0 .89 1.46 11 11 0 0 1 1 1.45c1 1.46.1.46.1 4.08 0 .82.1 1.32.1 1.62-.05 0-.1 0-.21.13-1 .73-.31.56-1.6 2.18s0 1.45.16 2.48.42.85-.26 2.18-1 .72-1.65 1.89 0 .87-.73 2.33-.87-.59-1.76-.26a2.68 2.68 0 0 0-1.15.55c-.72.47-.72 1.33-1.19 2.2s.47 1.15-4.44 2-.52 1-2.38 1.89-1-.76-2.74-2.19-.31-1.59-.31-1.59h-1.43c-.89 0-1-1.16-1.45-2a4.34 4.34 0 0 1-.73-2.18c0-.86-.57-.61-3.2-4.34s-1.76-2.35-2.18-3.2-1.9-2.18-2.63-3.09-1.13-.1-1.9-.26a3.78 3.78 0 0 1-1.86-.73c-1.13-.74-.57-.31-1 0s-.47 1.59-2 3.77-1.29.57-1.29.57a14.88 14.88 0 0 0-1.76 1.59c-.42.59-2.33 3.36-2.33 3.36s-2.48 1.72-3.78 2.75a15.64 15.64 0 0 1-2.48 1.32c-.61.43-1.86.59-3.77 1.3s-.87 1.49-.87 2 .46 1 .46 2-1.76 2-3.09 3.66-.57 1.26-.87 2-.52 1.16 0 1.92 0 0 2.21 1.72.42.46.27 6-.57 1.59-.82 2.58 0 1.33 0 1.33l4.49 1.16 1 .83a23.93 23.93 0 0 0 1.86 2.94 6.48 6.48 0 0 0 2.59 2.31c.61.3 1.19.76 2.21 1.32a1.17 1.17 0 0 0 1.6-.29l1.39-.57a1.92 1.92 0 0 1 2.32.74s.63 1.3 1.77 0 5.26-1.47 5.26-1.47l1 .16a9.12 9.12 0 0 0 .42-2.45c.16-1.89.4-.63.73-1.2a4.25 4.25 0 0 1 2.32-1.26 7.45 7.45 0 0 1 3-1c1.71-.16 1.19-.73 1.6-.86a16 16 0 0 0 2.44-.87c.87-.43.78 0 1.65.46a4.39 4.39 0 0 0 1.86.56 6.48 6.48 0 0 1 2.38.57c.51.42 1.13 0 4.34 0s1.29-.57 2.33-1.3 1.13-1.75 1.86-3.62.3-.59.87-.59 2.33.29 3.2.43a7 7 0 0 1 1.86.72 1.92 1.92 0 0 1 1.19 1.19l.27 1h1.29c.47 0 .16.43.16 1.32a5.63 5.63 0 0 0 .47 1.85 6.15 6.15 0 0 0 .87 2c.57 1.07.16.48 1.45.76s.56-.27 3-1 .57.16 3 1.42 1 .17 4.08-.1.73-.31 1.6-.31a2.38 2.38 0 0 1 1.45.57l1.13 2.48s.57 1.72 1 3.2 0 .72-.46 1.88a18.74 18.74 0 0 0-.57 2.18 6 6 0 0 1-.87 2c-.57 1.16.21 1.16.21 2.45a5.94 5.94 0 0 0 .42 2.19c.16.73.16 1.43.26 2.35a5.07 5.07 0 0 0 .47 1.75c.3.59-.31 2-.31 2v.42a10.92 10.92 0 0 0 1.13 2.62 11.22 11.22 0 0 0 1.5 1.59c1 1 .73.59 1.2 1.46a3.37 3.37 0 0 1 .4 2 5.27 5.27 0 0 0 .57 2.33c.46 1.16.57 0 .57 0l.46 1a14.08 14.08 0 0 1 .16 1.59c0 .59-.3.72-.46 1.43s0 .6.46 1.19a4.19 4.19 0 0 0 .82 1c.63.46-.1 1.75-.1 2.29s-.3 1.77-.3 2.2-.42.74-1.15 1.62-.46.57-1.19.87-.47.55-.87 1-.26.7-1 1.45 0 0-.82.4 0 0-.31.43.42 1.35.42 1.35l1.5.13a3 3 0 0 1 2-1.17c1.19 0 2-1.45 2-1.45s1.77-1.15 2.63-1.73 0-2 0-2a15.57 15.57 0 0 0 1.72-2c.61-.87.87-.59 1.76-.59h1.19l1.45.9-.3 1.73c-.27 1.73 0 0 .3 1.43s0 0 1.13 0a1.15 1.15 0 0 0 1.2-1.16v-2s-.31-.9-.57-1.77-.63-.86-.63-.86l-.82-1.46-.87-1.46-.63-.86-1.13-2-.57-2.62 1.45-1.16-.87-.57a2.82 2.82 0 0 0-1.19-.57s-.87 0-1.71-1.45 0 0-.89-.87-.26-1.16-.61-2.32a8.82 8.82 0 0 1-.26-2.61 10.41 10.41 0 0 1 .61-3.2c.26-1.19.82-1.75.82-2.63a6.3 6.3 0 0 0-.3-1.75 13.53 13.53 0 0 1-.87-1.75 8 8 0 0 1-.26-2.88c0-1.77.61-1.77.86-2.91s.27-1.46 1.72-2.07.3-1.43.3-1.43v-.13c.78.05 1.81.13 2.28.13h1.71a22.79 22.79 0 0 0 2.56.42c1.19 0 0 0 .35 1s-.92 1-1.9 2.18 0 0-1 2.5.4.78 1.13.18 1-.39 2.58-1 .92 0 .92 0l1 1.37-1 2.33c-.92 2.31-.35.74-.21 1.52a9.05 9.05 0 0 1-.35 3.69c-.36 1.35 0 1.16 0 2.91s.21.81 1 2.54.16.55 1.34 1.54 1 1.52 1.92 1.93 0 .57.4 1.94.57 1.16 1.15 1.56 1.19 2.11 1.19 2.11.4 2.91.4 4.26 0 .59.92 2.15.22.76 0 1.37-1.19.92-1.19.92l-.35 1.77-1.15.2-.21 1.92a4.94 4.94 0 0 1-1.76.59c-1.19.18-.21 1.19-.21 1.77a16.24 16.24 0 0 0 .61 2.49 14.78 14.78 0 0 1 .36 2.14l.21 2.74.16 1.51.82 2.15-.56.2h-1.2a.88.88 0 0 0-.78.38 5.34 5.34 0 0 0 .78 1.76l1.55 2.11.78.59s.35.4 1.55.4.56.36 1.76.79.92.74 1.71 1.35a1.39 1.39 0 0 1 .63 1.33l2.68 2.14 1-1.94v-1.13s4.23 2.1-1.55-3.1 0-1.93 0-1.93a2 2 0 0 0 .92-1.16 4.36 4.36 0 0 0 0-2.33c0-.61.63-.4.63-1a8.14 8.14 0 0 1 .36-1.77c.21-1 .61-.35 1.76.22s0 .77 0 .77l3.47 1.93a3.93 3.93 0 0 0 .61-1.76 1 1 0 0 1 .78-.94l1.15.16 1.55.4a7.89 7.89 0 0 1 1.19.59c.57.4 1.35-.21 1.35-.21l.61-.18c.57-.21.57.56.57.56l.35 1 2.12.2a6.87 6.87 0 0 1 .78 2.11c.35 1.56.35 1 .35 1l2.18 1.75 1-1.16h.79l.35-1.35a2.9 2.9 0 0 0 1 .57 33.25 33.25 0 0 1 4.85 4.46 3.29 3.29 0 0 0 1.55 1l-.4.16-.57.21-.78.56s-2.33.36-2.74-.38-.78-.61-1.35-1.55l-.56-1a4.17 4.17 0 0 0-.36 1.38v.53l-1.6-1.34-1.13-.59-1.35-1-1.34-.21s-.63-.21-.82.61l-.16.74-2.7 1.2-.4 1.15s-1 .18-1 .76-.92 1.59.35 1.75l1.39.21s.56-2.14.92-.74a8.2 8.2 0 0 1 .56 2.28 25.31 25.31 0 0 1-.35 2.54l-2.11-.81s-.57-.18-.57.4a11.9 11.9 0 0 0 .92 2.54s.63 1.5.4 2.11a3 3 0 0 0-.16 1.17v1.52A14.29 14.29 0 0 0 498 549c.16.59-.22.59.35 1.37a8.64 8.64 0 0 1 1.2 1.73 25.6 25.6 0 0 0 1.76 2.91c.35.61.56 2.51 2.11 3.31s1.9 1.35 2.68 1.16-1.13-1 1.77-1 1.76-1.38 3.87 0 1.35.57 3.26 2.5 4.91 5.45 6.41 6.19-1.15 1.2 2.16.23a20.4 20.4 0 0 0 5-2.12 3.17 3.17 0 0 1 1.55 0 33.56 33.56 0 0 1 4.28 2.72l-.78 1.34s-.4-.18-.61 1-1.15 7.39-1.72 8a6.25 6.25 0 0 1-1.54.94 13.5 13.5 0 0 0-2.38 1.58c-.73.77-2.28 1.16-3.31 2.11a23.13 23.13 0 0 1-2.28 2.36c-1.55 1.35-1.55.77-2.68 2.31a39.22 39.22 0 0 1-2.74 3.13 10.36 10.36 0 0 1-1.76 2.23 10 10 0 0 1-1.77 1s0 .57-1.9.21-.4-.39-2.74-1.17-2.48-1.37-3.1-1.16-.35-.39-.92 1.16a9.31 9.31 0 0 0-.78 2.31c-.21.77-.4.39-.21 1.75a13.89 13.89 0 0 1 .21 2.33 23.21 23.21 0 0 1 .36 3.35c0 1.9-.22 1.9.21 2.85s-.57-.74.35 2 .63 2.49 1 3.31-1.76 1.9 1 1.15 4.44-1.15 4.44-2.35-2.12.38.63-2.33l2.68-2.7s1.34.57.4 1.35-2 3.07-2.53 4.44-1.19.21-.78 1.77a17.69 17.69 0 0 0 .78 2.53s2.28 4.23 2.28 4.83a5.29 5.29 0 0 0 0 2.68c.42 2.33 1.19 5.42 1.39 6.8a18 18 0 0 1 .4 2.07c0 .82.16 1.2-.4 2s-1.76.55-.63 1.75a36.27 36.27 0 0 1 2.79 3.26s-.63-3.87.73 1.37 1.76 6.4 1.76 7.37 1.15-1 0 1.56-1.55 2.48-1.55 3.45V654c0 .59-.4 0 .42 1.56s.52 1.51 1.13 2.5-1.55-3.31 1.55 1.55 3.1 4.83 3.1 5.82a6 6 0 0 0 0 1.93 10.69 10.69 0 0 0 .56 1.89c.22.64-.35-.38.78 1.8a21.22 21.22 0 0 1 1.39 2.89s.36-1.37.73 1.13 1.39-1.75.21 3.91a54.83 54.83 0 0 1-2.11 7.95s-.42-.16-.42 1.16a25.37 25.37 0 0 1-.35 4.3c-.22.74-2.53.35-.22 2.1s-5 2.32 3.1 2.32.57 0 9.15-.63 4.81-.74 9.88-.74 7.9.38 9.65 0-.92 1.56 2.75-.79a55.9 55.9 0 0 0 6.57-4.81s-1-.21 1.19-.21 6 .57 7 .57.16.59.92 0 3.67-2.51 3.67-2.51.78-.57 3.71-.91a32.5 32.5 0 0 1 4.23-.47c2.33-.16-.4 1.78 5.43-.33s2.53-3.1 2.53-3.1-1.2-.4 1.13-1 2.38-.57 3.1-1-.73-.35 1.76-1.17 1-.38 3.31-1.35 2.53-.92 3.26-1.56a5.91 5.91 0 0 0 2-2.08c.35-.79.78-2 .78-2l1-1.52 1.55-1.76a16.61 16.61 0 0 0 1.76.18c.57 0-1.39 2.51 3.31-2.51s3.61-4.25 4.6-5 1.55-.57 1.55-1.55-1.55-2.31-1.55-2.31l-.56-1.54c-.27-.05-.82-.25-2.12-.64-3.31-.94-9.65-3.8-8.1-9.48s.92-4.64.92-4.64l-1.35 1.13s-.63.25-1.55 1.77c-.78 1.28-1.71 3.23-2.06 3.84a3.46 3.46 0 0 1-.47.27 22.31 22.31 0 0 1-3.31 1.29 5.47 5.47 0 0 0-1.34.83 15.52 15.52 0 0 1-1.92 1.19 7 7 0 0 1-3.66.34c-.63-.22 1.71-.22-1.2-.22h-4.08c-1.76 0-1.2.79-2.48-.13s.92-.25-1.76-1.19-4.29 0-2.75-1 1.2-.61 2.18-1.6a13.32 13.32 0 0 0 1.9-2.32c.42-.59 0 1.2.42-.59a26.1 26.1 0 0 0 .56-3.87c0-.56-2.32 0-2.32 0a5.85 5.85 0 0 1-.57 1.34c-.4.57-1.76 2.75-1.76 2.75s-1 1-1.35-.34-.4-.64-.4-1.39v-1.35c0-.79-.21-1.2.21-1.76a5.11 5.11 0 0 0 .92-1.9c0-.6-1.13-.82-1.34-1.62a10.59 10.59 0 0 0-1-2.11c-.35-.78-.72-1.76-.72-1.76a4.75 4.75 0 0 1-1.39-2.08c-.57-1.62.21-1.39 0-2.16s.63.39-.36-1.58a15.16 15.16 0 0 1-1.34-2.88c-.21-.61-1.39-1.94-1.39-2.51s-2.11.57 0-.56a26.49 26.49 0 0 0 3.1-2c.63-.35 1.55-.78 1.55-.78l4.29-1.71 1.13.35s.78-1 2.18 1.58 1.29 1.71 1.9 3.83.78 1.77.78 3.13a26.81 26.81 0 0 0 .35 4.09c.22.52 0 .36.42 1s0 .38 1.13 1.35 5.43 4.25 6.21 4.63-5-1.17 1.38 1.2 3.67 1.52 5 1.32 1.35 0 2.12-.55a7.89 7.89 0 0 1 3.52-1.35c2-.42.57-.42 2.68-1s2-2.11 2.38 0a39.65 39.65 0 0 1 .57 4.08c0 .56-2.38.38.21 1.38s-5.64-1 2.48 1 5.64 1.76 9.5 2.16 6.62.53 7.75.72.42.39 2.12 0 2.53-.94 3.52-.94a61.27 61.27 0 0 0 7-1c.51-.18.92 1 4.22-.61 1.55-.7 2.49-1.09 3-1.35l-.26 2.19 1.19.26 1.45.33v3.19l.3.82 1.45-.82 2.91-1.46 4.39-1.47c2-1.47 0-.59 2-1.47a15.77 15.77 0 0 0 2-.85 26.92 26.92 0 0 0 2.63-1.46s1.13 1.46.26 2.32a32.48 32.48 0 0 0-2.33 3s.63 0-.87.59l-1.45.56a7 7 0 0 1-2.27.56l-1.76-.56-1.45 1.13a1.36 1.36 0 0 0-1.45.59 7.17 7.17 0 0 0-.87 2.06l2 .87s-1.76 1.78 1.43.26 2.33-.26 3.2-1.45 2.33-2 1.76-.82a24.5 24.5 0 0 1-2.06 2.85 6.69 6.69 0 0 1-2 1.49 25.55 25.55 0 0 1-2.89 1.13s-.87 0 0 1.2-.57 0 .87 1.13 2.28 1.77 2.28 1.77h1.43a6.39 6.39 0 0 0 3.53-1.16l1.43-1.16 2.33-2.92 1.45-1.76s1.76 2.35 1.5 3.2-1.2 1.13-1.5 2.33a12.63 12.63 0 0 1-.82 2.32 22.87 22.87 0 0 0-.87 4.06c-.31.9-.63.9-.87 2-.05.21-.1.26-.1.3s.21-.4-.22 2.32a44.71 44.71 0 0 0-.61 5.55v3.19a11.43 11.43 0 0 0 0 3.18 22.53 22.53 0 0 1 .61 4.61c0 1.55-.82 1.43-1.43 1.22a13 13 0 0 1 .3 1.73c.52 4.36.52 5.5.52 5.5a2.75 2.75 0 0 0-.52 1.76 7.6 7.6 0 0 0 .26 2s-1.43 2.33.87.27 1.45-.27 2.33-2 .87-2.32 2.07-3.18a14.43 14.43 0 0 0 2.89-2.36 10.17 10.17 0 0 1 2-2.35c1.77-1.71 2-2 3.2-3.15a20.92 20.92 0 0 0 2.58-3.2 25.93 25.93 0 0 0 2.07-4.36 3 3 0 0 1 .56-2.33c.89-1.15-2.32 2.33 1.77-3.74s2-4.09 4.08-6.11-1.77.83 3.47-3.78 2.89-1.75 4.08-3.5.57-2.33 2.59-4.33 4.08-4.38 5.26-5.55 7.28-7.31 7.28-7.31.57-1.75 1.15-3.15.87-.61 1.45-3.52a16.5 16.5 0 0 1 2.58-6.11l.87-1.17a5 5 0 0 1 1.76-1.47 10.61 10.61 0 0 0 2.33-1.15 18.16 18.16 0 0 0 1.43-1.45 19 19 0 0 0 2.33-2.91l1.76-2.32a6.86 6.86 0 0 1 .31 2.07 11.82 11.82 0 0 0 .26 2.28l1.24 1.19 1.15 1.13v2.5Zm-344-343.84a6.9 6.9 0 0 0-.4 1.37l-2.33 1.16v-.86h-.51c1.08-.59 2.16-1.11 3.24-1.67m244.38 7.14c.26.63.78 2.1-1.81-.53l-1.3-1.24c1.06.59 2.08 1.17 3.11 1.77m12.4 7.73-.57.46-1.19-.56-.42-1.33c.73.48 1.5.94 2.18 1.43M512 249.5c-144.79 0-262.5 117.76-262.5 262.5S367.21 774.5 512 774.5 774.5 656.76 774.5 512 656.74 249.5 512 249.5" style="fill:#fff"/>
</svg>
