<svg xmlns="http://www.w3.org/2000/svg" viewBox="0 0 1024 1024">
   <circle cx="512" cy="512" r="512" style="fill:#023f97"/>
   <path d="M615.9 484.23H569l13.53-41.63h-41.64L495.8 581.39h86.67a46.26 46.26 0 0 0 44-32l11.34-34.82a23.15 23.15 0 0 0-21.91-30.38Zm-19.37 29.18-9.38 28.85a23.13 23.13 0 0 1-22 16H545l16.54-50.9h30.64a4.61 4.61 0 0 1 4.4 6Zm92.41-70.81-9 27.77h41.65l9-27.77Zm-45.1 138.79h41.65L717 484.23h-41.59Zm135.65-74h28l7.51-23.16h-28l13.53-41.63h-41.65l-35.25 108.5a23.15 23.15 0 0 0 22 30.29h46.22l7.53-23.13h-30.1a4.59 4.59 0 0 1-4.35-6ZM327.88 491l45.54-48.44h-48.78l-37.58 115.7h-31.25a4.63 4.63 0 0 1-4.35-6L287 442.61h-41.61l-35.25 108.54a23.11 23.11 0 0 0 22 30.25h89.06l31.55-97.16Zm154.06-48.44H386.2L400.47 491 380 484.26l-31.68 97.14H390l15-46.26h45a46.26 46.26 0 0 0 44-32l9.86-30.31a23.13 23.13 0 0 0-22-30.25Zm-19.32 29.16L454.74 496a23.13 23.13 0 0 1-22 16h-20.19l15-46.26h30.66a4.59 4.59 0 0 1 4.37 6Z" style="fill:#fff"/>
</svg>
