<svg xmlns="http://www.w3.org/2000/svg" viewBox="0 0 1024 1024">
   <circle cx="512" cy="512" r="512" style="fill:#03e9bc"/>
   <path d="M288.82 397.81 259.5 544.39a55.84 55.84 0 0 1-14-51.65l25.13-117.27a88 88 0 0 1 85.16-68.41H663a55.84 55.84 0 0 1 46 25.13H371.19c-39.09-1.39-71.19 16.75-82.37 65.62Zm490 25.13-46.07 213.6c-11.15 54.46-37.68 68.4-82.35 68.4H320.93c-37.69 0-62.82-30.71-55.84-69.8l46.07-210.8c7-37.69 16.75-68.41 69.8-68.41l-2.79-1.4H723c37.69 0 62.82 30.71 55.84 68.41Zm-72.59 177.3H300l-9.77 41.88C288.82 656.08 300 670 314 670h349c16.75 0 30.71-12.56 34.9-27.92Zm18.15-210.8H374v1.4c-15.36 0-30.71 11.17-33.51 27.92l-27.94 129.82h404.86l27.92-131.23c4.19-13.96-5.58-27.92-20.94-27.92Zm-266.64 39.08c-10.18 0-20.32 5.2-27.68 13-3.46-7.81-11-13-21.18-13-16.75 0-33.51 14-37.69 30.71s7 29.32 23.73 29.32c9.33 0 19.15-5.2 26.38-12.69 3.72 7.78 12 12.69 22.48 12.69 15.36 0 32.11-14 36.3-29.32 4.19-16.75-5.58-30.71-22.34-30.71Z" style="fill:#fff"/>
</svg>
