<svg xmlns="http://www.w3.org/2000/svg" viewBox="0 0 1024 1024">
   <circle cx="512" cy="512" r="512" style="fill:#147cc7"/>
   <path d="M776.34 554.33c-1.04-2.4-9.33-.98-10.04-3.62-.4-1.02-2.14-1.87-3.87-1.87-4.64-.24-2.16-2.82-8-2.49-6.19.54-4.45-3.4-9.3-3.74-13.38-4.4 9.91-2.76 9.97-5.6-1.37-2.86 28.64-1.02 27.04-4.15 4.76-6.38.37-6.39-1.68-9.55 0-1.03-.78-1.87-1.73-1.87-2.54-.14-2.59-4.03-5.69-3.74-1.42 0-2.53-.82-2.53-1.87-.06-2.64-3.54-1.28-4.18-3.74-.47-2.29-4.2-1.28-4.54-3.09-.05-1.72-6.51-2.33-6.22-4.51 0-.96-.84-1.73-1.87-1.73s-1.87-.56-1.87-1.25c-.11-1.84-6.68-.56-6.22-3.12.09-2.55-3.83-1.18-3.74-3.74-.07-2.64-3.53-1.28-4.19-3.74-.52-2.52-7.12-1.01-7.02-3.74.09-2.55-3.83-1.18-3.74-3.74-1.33-3.18-4.98-2.65.62-7.35 3.62-2.16 2.12-4.62 4.98-6.18 2.47-.58 1.08-5.71 3.74-5.78 1.02 0 1.87-.84 1.87-1.87 5.34-4.76 9.95-13.89 15.56-19.76 2.38-.39 1.24-6.76 3.32-7.02 5.29-1.53 10.06-12.88 13.5-15.57-.08-2.53 2.57-1.2 2.49-3.74 0-1.02.84-1.87 1.87-1.87 2.74.32 1-6.54 3.74-6.22 2.64-.07 1.28-3.53 3.74-4.18 6.02-3.22-4.18-10.83-7.32-8.29-.7.69-2.58 1.26-4.17 1.26-4.15.03-3.32 4.05-7.94 3.74-6.01 0-1.23 4.39-8.59 3.74-3.59 0-4.98.52-4.98 1.87.72 2.75-10.04 1.34-10.53 3.02-.44 1.35-8.02 2.32-8.15 3.93-1.57 3.39-10.77-1.17-3.68-2.59 2.78.42 7.52-5.99 9.73-6.22 2.02-.09.83-3.92 3.29-3.74 1.02 0 1.87-.84 1.87-1.87-.09-2.54 3.83-1.19 3.74-3.74 1.15-2.57 7.43-4.33 6.22-11.83h-84.69V269.83c-2.32.16-10.41-.74-9.97 1.87-.33 2.91-4.2.9-3.74 5.02.17 4.16-3.82 3.52-3.74 7.56 0 1.82-.72 2.98-1.87 2.98-2.85-.51-.88 7.99-3.74 7.47-1.13 0-1.87 1.17-1.87 2.98.12 4-3.87 3.41-3.74 7.44.1 4.08-3.9 3.44-3.74 7.61 0 1.73-.56 3.15-1.24 3.15-1.82.28-.84 3.68-3.02 4.15-2.31.65-2 6.08-4.15 6.76-5.77-6.74 4.01-7.42 2.18-19.48-.18-13.65 5.52-12.72 3.24-26.85-1.17-4.65-9.04-4.69-10.21-.07-.56 4.15-4.95 2.13-6.29 4.98-.66 2.46-4.12 1.1-4.19 3.74-13.45 13.71-34.11 32.46-47.24 43.11-.21-2.5-6.67-7.1-6.32-10.04.29-3.34-3.62-1.71-3.74-4.42 0-1.03-.84-1.87-1.87-1.87-2.85.51-.88-7.98-3.74-7.47-2.55.09-1.18-3.83-3.74-3.74-2.48.5-1.4-5.98-2.8-6.24-1.22.08-5.6-11.6-7.31-11.2-1.87.21-2.58-6.28-4.24-6.22-.67 0-1.22-.86-1.22-1.91-.23-2.87-4.07-2.73-3.74-6.32 0-2.68-.54-2.98-5.36-2.98-7.75 0-8.35 1.13-8.35 15.82 1.05 19.45-3.4 6.03-3.74 20.26.49 11.1-4.09 7.68-3.74-.72.41-11.52-4.39-1.93-3.74-14.19.65-12.31-4.18-2.62-3.74-14.32 0-3.77-.56-6.85-1.24-6.85-1.8-.86-.8-13.24-3.12-14.15-2.68-1.96-1.06-14.23-3.74-16.19-3.77-3.62 1.57-12.47-7.47-10.76-5.58 0-5.61.02-5.61 4.36-1.5 3.57-3.63 18.63-5.11 22.5-1.7.04-.12 19.73-2.98 17.98-2.99-2.25-.76 19.68-3.74 17.43-2.98-2.25-.76 19.69-3.74 17.44-1.48 0-1.87 1.78-1.87 8.59.75 12.6-3.74 5.58-3.74 16.14.19 18.52-9.96 9.86-15.57 3.91-2.56.09-1.18-3.83-3.74-3.74a1.88 1.88 0 0 1-1.87-1.87c-.06-2.64-3.53-1.29-4.18-3.74-9.38-2.99-59.71-59.29-57.55-34.25 6.26 15.14 10.97 38.35 19.4 53.64.68 11.68-24.56-35.44-28.65-38.11.13-9.59-23.14-17.85-15.56-3.08 2.79.96.94 17.72 3.74 18.68 2.76-.34.69 20.03 3.74 18.68 4.05 6.97 2.5 29.97 6.59 38.32 2.26-.36.63 19.5 3.37 18.52 2.91-.47.98 20.4 3.74 20.38 3.92 2.41.48 7.84-2.32 3.11-18.5-4.12-37.47-11.95-58.71-12.45.05 2.48-1.7 11.19 1.17 10.58 2.67-.47 1.31 6.05 3.18 6.23.69 0 1.25.86 1.25 1.91.03 2.69 3.97 2.7 3.74 5.74-.26 3.01 3.64 3.03 3.74 5.56 0 .96.84 1.74 1.87 1.74 4.39 5.09 9.33 15.32 14.6 21.17 1.43.24.49 4.04 2.83 3.74 2.81.11 1.23 6.46 4.04 7.32 3.55 1.99.6 3.24-3.84 1.64-.45-2.09-43.05-.38-41.12-3.36 2.34-3.83-44.9.21-42.89-3.86-5.06-9.19-9.24 13.42-2.44 11.73 1.97.22 3.43 1.16 3.43 2.17-.55 2.51 7.42 1.19 7.47 3.03.04 4.78 8.44 5.22 9.96 8.09 0 1.03.84 1.87 1.87 1.87 2.83.37 1.47 2.67 5.61 3.12 4.14.57 2.74 2.53 5.47 3.12.96 0 2.06.84 2.45 1.87.6 2.49 5.7 1.07 5.78 3.74 0 1.24 1.25 1.87 3.74 1.87 4.88-.51 2.5 3.12 5.6 3.74 1.03 0 1.87.84 1.87 1.87 1.05 2.99 5.61 1.55 8.21 4.98 2.56 3.57 8.17 1.9 9.23 4.98 0 1.02.77 1.87 1.71 1.87 30.16 11.46-24.86 7.38-28.49 6.22-34.93-2.47 45.09 46.13 51.69 52.94-.26 2.39 3.55 1.34 3.74 3.02-.37 1.53 5.89 2.22.93 2.44-4.3-.09-2.31 2.51-5.92 2.64-1.38 0-2.49.83-2.49 1.87s-1.11 1.87-2.53 1.87c-3.21-.2-9.15 7.67-12.37 7.47-3.77.05-1.33 4.1-5.69 3.74-3.68-.39-3.62 3.38-6.32 3.74-2.65.38-1.27 2.47-4.85 3-3.65.51-2.18 2.91-4.98 3.22-1.02 0-1.87.84-1.87 1.87.52 2.85-7.98.89-7.47 3.74-.07 2.66-5.18 1.27-5.78 3.74-.85 2.53-4.13 1.2-4.98 3.74-.4 1.03-1.85 1.87-3.24 1.87-3.27-.16-7.59 6.42-10.89 6.23-1.43 0-2.91.84-3.31 1.87-.83 2.53-5.39 1.2-6.22 3.74-.64 2.44-4.13 1.11-4.19 3.74.56 2.77-7.82 1-7.47 3.59 0 .95-.99 2.06-2.18 2.48-14.1 4.36-13.74 23.24-2.01 15.1-1.23-2.89 19.67-.71 17.89-3.74 20.68-6.16 51.2-7.6 74.44-14.08-.14-2.23 18.04-.61 17.27-3.35-.79-2.88 19.13-.86 18.34-3.74 3.38-6.54 9.96 2.59 5.75 5.81-1.16 1.9-4.59 15.77-4.96 18.94.26 7.63-4 6.39-3.74 14.04.18 8.9-4.34 3.75-3.74 13.64.53 11.21-4.26 2.22-3.74 13.44.53 10.23-4.06 4.53-3.74 14.29 0 8.77-7.61 11.52-1.91 20.06 8.88 4.69 11.57-7.64 18.15-9.93.66 0 1.2-.84 1.2-1.87-.1-2.57 3.83-1.17 3.74-3.74 13.49-13.75 30.86-30.05 44.21-44.22 1.17 0 1.87 1.18 1.87 3.16.29 4.99 4.27 3.2 3.74 9.44-.27 8.09 4.32 1.62 3.74 10.45-.57 8.89 4.08 2.3 3.74 10.63-.37 7.36 4.04 4.07 3.74 11.3 0 3.4.54 4.85 1.81 4.85 2.49-.59 2.25 10.42 2.56 13.08 3.49-.25 14.78 2.49 13.08-2.29 0-1.67.84-3.37 1.87-3.76 2.53-.82 1.2-6.66 3.74-7.47 2.33-.37 1.31-6.66 3.11-7.02.69 0 1.25-1.4 1.25-3.12-.09-4.83 4.18-1.41 3.74-6.85 0-4.36 1.5-4.73 4.98-1.25 3.58 1.04 1.11 14.87 4.36 14.95 2.99-1.13.75 12.34 3.74 11.21 3.02-1.56.72 15.25 3.74 13.7 3.14 10.43 7.84 24.71 8.09 37.36h14.95c-1.03-12.33 3.69-18.17 6.23-28.61-.34-8.33 4.3-1.72 3.73-10.63-.59-8.82 4.01-2.37 3.74-10.45-.38-6.95 3.96-4.09 3.74-10.77 6.83-26.43 4.74-12.46 19.3-1.81 2.56-.09 1.18 3.82 3.74 3.73 1.02 0 1.87.84 1.87 1.87-.09 2.55 3.82 1.18 3.74 3.74-.2 2.43 3.62 1.29 3.74 3.21.03 3.71 5.68 4 6.23 6.75-.09 2.56 3.83 1.18 3.73 3.74 0 1.03.84 1.87 1.87 1.87 2.56-.09 1.18 3.83 3.74 3.74 1.16 0 1.87 1.17 1.87 3.06 0 3.65 6.67 5.6 11.08 3.24 2.54-1.36 2.62-2.22 2.62-28.76.17-34.55-1.25-30.2 11.21-21.61-.36 2.33 6.15 1.22 6.22 2.89 2.68 2.45 11.32 8.43 14.94 8.8 4.8-.55 2.57 3.06 5.47 3.74 2.51.09 2.59 4 5.57 3.74 3.44.08 3.03 4.02 6.98 3.74 1.97 0 3.15.7 3.15 1.87 3.03 3.58 6.74 6.16 14.17 4.91 8.23-4.03-1.38-5.43-.46-11.93-5.66-15.83-9.16-34.52-15.88-50.79-4.17-2.13 2.46-1.52 2.63.52 1.03 2.77 9.89 1.26 11.55 3.74 2.41 1.11 15.51 5.51 17.84 5.61 7.05-.3 3.93 4.09 11.08 3.73 6.92-.41 4.16 3.91 10.65 3.74 2.38 0 4.67.56 5.1 1.25.46 1.83 11.29.31 10.58 3.12-1.12 3 12.34.74 11.21 3.74-.84 2.71 10.99 1.67 13.7 1.87-.13-2.4.71-10.35-1.87-9.97-1.03 0-1.87-.84-1.87-1.87.09-2.57-3.83-1.17-3.74-3.74-3.66-3.77-10.52-16.1-15.57-19.3-2.52.11-1.21-3.76-3.59-3.73-.95 0-2.05-.98-2.46-2.18.04-4.67-10.59-9.94-5.17-11.52 2.84.55 1.34 2.75 5.61 2.49 4.83-.61 2.55 3.11 5.48 3.74 2.7.38 2.64 4.09 6.32 3.74 4.57-.29 1.73 3.93 6.13 3.74 1.64 0 3.3.84 3.7 1.87.82 2.53 6.65 1.21 7.47 3.74 8.59 6.83 12.42-5.31 7.02-11.68-.04-3.31-3.99-4.77-3.73-8.4 0-1.8-.73-2.96-1.87-2.96-2.85.5-.89-7.98-3.74-7.47-2.85.5-.89-7.98-3.74-7.47-1.31 0-1.87-1.32-1.87-4.4.4-5.91-3.75-4.11-3.74-9.43.42-5.24-3.82-1.96-3.74-6.64.2-3.83-2.47-3.55-2.5-7.04 0-1.35-.84-2.78-1.87-3.18-2.59-.47-.95-8.12-3.74-7.92-2.67.21-3.38-13.85 1.87-11.21 5.39-.11 2.58-2.34 8.72-2.97 5.9-.57 3.43-2.93 8.14-3.26 4.43.02 3.46-4.01 8.23-3.74 2.08 0 3.94-.8 4.36-1.87.26-2.72 9.56-.84 9.17-3.74-.51-2.85 7.98-.89 7.47-3.74-1.07-2.67 9.89-1.34 9.96-2.84 10.07-6 10.82-9.59-.37-14.72ZM551.1 459.84l.41-.54c4.19-4.63 6.22-4.55 11.54-1.76 12.88 6.72 29.29 6.8 39.03.2l.91-.62 1.1-.03c6.16-.16 12.06.31 13.43 4.57.87 2.72-.55 5.37-4.23 7.87-6.38 4.35-22.52 10.21-34.13 10.21-3.68 0-6.9-.59-9.21-2-5.64-.92-16.42-4.31-19.32-10.35-1.19-2.47-1.02-5.16.46-7.55Zm-54.9 18.66-.04-.03c2.63-3.81 5.43-5.28 8.34-4.37 6.39 2.01 7.49 14.18 7.37 47.47-.01 4.2-.03 8.02.04 10.77 2.26.11 5.23.14 8.32.18 17.62.2 25.56.78 27.57 5.5.35.82.9 2.81-.58 5.1l-.61 6.29-6.45.14c-9.17.22-16.37.33-22.06.33-20.47 0-21.13-1.36-22.22-3.59l-1.05-2.16.69-.95c-1.8-12.9-2.91-58 .69-64.66Zm-70.67-11.89c-1.05-2.96-.11-5.9 2.59-8.09 2.08-1.69 4.78-2.47 7.33-2.16 2.26.28 4.21 1.37 5.49 3.07 3.25 4.31 24.51 4.91 36.51-1.71l1.55-.46c7.51-.52 11.43.48 13.13 3.38.51.86 1.49 3.19-.4 6.08-3.78 5.81-19.22 12.51-31.05 12.51-1.08 0-2.13-.06-3.14-.18-13.04-.3-29.27-4.71-32.01-12.45Zm194.34 92.43c-17.24 42.69-61.94 69.21-108.66 69.22-14.32 0-28.83-2.49-42.8-7.77-11.19-4.23-15.15-5.72-16.4-9.52-1.08-3.26.76-6.11 3.29-10.05l1.65-2.55 3.04.77c2.54.97 4.74 1.91 6.99 2.87 5.52 2.35 11.23 4.79 23.07 8.16 28.37 5.9 56.77.09 79.7-16.42 25.34-18.24 42.16-48.09 46.15-81.89l.34-2.91 2.91-.36c3.54-.43 6.56.73 8.47 3.28 7.78 10.37-6.13 43.43-7.75 47.17Z" style="fill:#fff;fill-rule:evenodd"/>
</svg>
