<svg xmlns="http://www.w3.org/2000/svg" viewBox="0 0 1024 1024">
   <circle cx="512" cy="512" r="512" style="fill:#104f5a"/>
   <path d="M355.5 443.9h7.2c17.2 1.7 33.4 10.4 44.4 23.7 9.2 11 14.3 25.2 14.9 39.5.2 2.9.3 5.9 0 8.8H295.2c-.3-7.5.1-15 1.9-22.3 2.5-10.4 7.6-20.1 14.7-28 11.3-12.3 27.1-20.5 43.7-21.7zm-16.4 32.8c-5 3.9-9.1 9.1-11.2 15.1h47.7c5.1-.1 10.1.1 15.2-.1-2.8-7.1-7.9-13.2-14.4-17.2-5.1-3.1-11.1-4.8-17.1-4.7-7.4 0-14.5 2.5-20.2 6.9zm220.5-19.3c-7.6 4.7-13.4 12.3-15.4 21-1.2 4.5-1.3 9.2-1 13.9.4 4.6 1.8 9.1 4.2 13 2.3 3.8 5.6 7 9.2 9.6 6.1 4.2 13.1 6.9 20.2 9.2 6.5 2.1 13.1 3.7 19.6 6.1 2.8 1.1 5.6 2.3 7.8 4.4 1.6 1.5 2.7 3.6 2.5 5.8.1 3-2 5.6-4.6 6.9-4.1 2.1-8.9 1.8-13.4 1.6-14.1-1.3-27.6-6.9-39.2-15-.3.4-.7.8-.9 1.3-3.5 7.2-7.1 14.3-10.6 21.5-.3.7-.9 1.4-.7 2.2 3.6 2.8 7.5 5.2 11.5 7.3 13.8 7 29.3 10.1 44.7 9.8 8.4 0 16.9-1.4 24.8-4.4 5.6-2.2 10.9-5.3 15.2-9.5 5.1-5 8.5-11.6 9.6-18.6 1.3-7.9.6-16.3-3.5-23.3-2.7-4.7-6.7-8.5-11.2-11.4-6.1-3.9-12.9-6.4-19.7-8.6-6.9-2.2-14.1-3.9-20.9-6.6-2.6-1.1-5.3-2.4-7.3-4.6-2.3-2.6-2-6.8.1-9.4 1.6-1.9 4.1-2.8 6.5-3.3 4.3-.7 8.6-.3 12.8.5 10.6 2 20.6 6.5 30.1 11.4 3.8-7.3 7.6-14.5 11.4-21.8.6-1.2 1.4-2.3 1.6-3.7-12-6.8-25.4-11.5-39.2-13-8.5-1-17.1-.9-25.6.6-6.4 1.2-12.9 3.4-18.6 7.1zm-74.3 10.3c-.4.6-.8 1.2-1.3 1.8-.3-2.8-.1-5.7-.1-8.5 0-3.5-.1-6.9.1-10.4-12 .1-24 0-35.9 0v123.9c12 0 24 .1 36 0v-62.7c.6-6.4 3.4-12.7 7.9-17.2 3.9-4.1 9-6.8 14.3-8.4 5.9-1.9 12.2-1.9 18.4-1.6 0-11.5.1-23.1-.1-34.6-10.4 0-21.3 1.9-30 8-3.6 2.6-7 5.8-9.3 9.7zM774.8 454c7.8-2.8 16.2-4 24.5-4.3 8.8-.2 17.6.7 26.1 3.2 11.8 3.4 22.8 10.3 30.5 20 8.2 10.2 12.2 23.3 12.7 36.3v7.6c-.5 6.6-1.7 13.3-4 19.5-4.3 11.8-12.6 22-23.3 28.6-11.9 7.6-26.3 10.4-40.2 10.4-7.7-.2-15.5-1-22.9-3.3-12.2-3.6-23.5-10.8-31.2-21.1-8.3-10.8-12.1-24.6-12-38.1-.2-13.1 3.1-26.5 10.7-37.3 7-10 17.4-17.5 29.1-21.5zm22.8 26.4c-6 .8-11.7 3.7-15.7 8.2-5.4 5.8-7.9 13.7-8.3 21.5-.4 7.1.6 14.4 3.9 20.7 2.6 5 6.6 9.4 11.7 11.9 5.9 3 12.9 3.6 19.3 2.1 6.1-1.4 11.6-5.2 15.2-10.3 4.5-6.5 6.3-14.5 6.1-22.4.1-9.8-3.5-20-11.2-26.3-5.8-4.7-13.6-6.5-21-5.4zm-642.1-28.7c.3.6.6 1.2.8 1.9 13.9 37.5 27.8 75 41.7 112.6 1 2.6 1.8 5.3 3 7.8h39.5c.8-1.7 1.4-3.5 2.1-5.3 10.2-27.5 20.4-55 30.6-82.6 4.2-11.7 8.7-23.2 12.8-34.9-12.2-.1-24.3 0-36.5 0-.8-.2-1.1.6-1.3 1.3-8.7 28-17.5 56-26.2 84-.2.6-.4 1.1-.6 1.6-9-28.9-18-57.9-26.9-86.9-13-.1-25.9 0-38.9-.1v.6zm518.2 122.2c2.5.1 5 0 7.5.1 9.6 0 19.2.1 28.8 0V451.3c-12.1 0-24.2-.1-36.4 0 .1 40.8.1 81.7.1 122.6zM305 542.2c-1.7 1-3.5 1.9-5.1 3.1 2.5 5.1 6.1 9.6 9.9 13.8 9.9 10.6 23.3 17.7 37.5 20.1 2 .3 4.1.5 6.1.9h10c13.4-1.1 26.5-6 36.9-14.5 5-4 9.5-8.7 13.2-13.9 1.4-2.1 2.8-4.1 3.8-6.4-2.7-1.9-5.6-3.3-8.4-5-3.4-1.9-6.8-3.9-10.2-5.8-1.8-1-3.5-2.2-5.4-2.9-1.9 3.9-4.6 7.3-7.6 10.3-7.2 7-17.4 10.4-27.4 10.2-7.4.1-15-1.8-21.3-5.8-4.6-2.8-8.4-6.8-11.3-11.4-.6-1-1.1-2.1-1.8-3-.1 0-.3-.1-.4-.1-1.3.3-2.4 1.2-3.6 1.9-4.9 2.8-9.9 5.6-14.9 8.5z" style="fill:#fff"/>
</svg>
