<svg xmlns="http://www.w3.org/2000/svg" viewBox="0 0 1024 1024">
   <circle cx="512" cy="512" r="512" style="fill:#ee316b"/>
   <path d="M304.54 416.61c8.57-3.6 19.77-2.24 26 5.12 4.66 6 4.63 14.4 2 21.27-15.55 46.49-31.38 92.89-47 139.36-2.68 7.84-6.73 15.82-13.79 20.56-8 4.49-18.07 4.88-26.66 1.91-9.14-3.36-15.49-11.75-18.38-20.81-15.65-46.88-31.5-93.7-47.16-140.57-2.54-6.83-2.91-15.14 1.63-21.22 5.8-7.76 17.15-9.19 25.77-5.83 7.24 3.11 11.24 10.58 13.66 17.68 12 36.37 23.42 72.91 35.35 109.28 11.09-35.58 22.81-71 34.13-106.48 2.59-7.88 6.39-16.63 14.45-20.27Zm55.92 28.15q-.09 70.14 0 140.31c0 5.1 1.27 10.35 4.55 14.35 7.39 9.2 22 10.9 31.6 4.14 6.23-3.86 9.52-11.29 9.39-18.48q.07-28.91 0-57.8c20.38-.24 40.76.06 61.13-.15a18.83 18.83 0 0 0 17.5-12.59c2-6.7 1-14.63-3.88-19.89-3.86-4.66-10.08-6.81-16-6.53-19.53.09-39.07-.17-58.61.13-.27-11.32-.07-22.66-.1-34 18.75-.67 37.53-.11 56.29-.29 6.52-.18 13.74 1 19.49-2.84 8.45-5 11.31-16.71 7-25.37a18.8 18.8 0 0 0-17-10.81c-26.37-.1-52.72 0-79.08 0-7.61 0-15.59 1.23-21.91 5.74-7.34 5.55-10.4 15.13-10.37 24.08Zm151.08-8.26c0 32.47-.11 65 0 97.45.39 20.83 6.59 42.93 22.42 57.37 13.8 13.46 33.79 18.36 52.6 18.24 19.11.09 39.22-5.35 53.1-19.11 14.94-14.68 21-36.14 21.28-56.61.18-31.27 0-62.55.09-93.81 0-4.92-.24-10.12-2.91-14.42C652.56 416 639.83 412 629.6 416a21.66 21.66 0 0 0-14.05 20.34c-.1 32.49 0 65 0 97.46-.15 8.63-1 17.72-5.61 25.22-10.07 14-33.14 14.69-45 2.71-7.48-8.62-7.69-20.82-7.78-31.63v-92.69c.22-7.47-3.38-15.14-9.87-19.07a24.29 24.29 0 0 0-18.5-3.3 21.8 21.8 0 0 0-17.25 21.46Zm290.92-1.5c-.22 32.63.15 65.28-.18 97.91-15.32-32.13-31.17-64-46.81-96-4.24-8.53-10.48-17.05-20-20-9.95-3.15-22-3-30.54 3.6-7.46 6-9.86 16.22-9.79 25.43q-.09 69.48 0 139c0 5.77 1.67 11.87 6 15.87 8.92 8.46 24.7 7.86 32.93-1.29 3.61-3.88 4.89-9.33 5-14.49.15-32.44-.21-64.89.18-97.32l47 96.4c4.5 8.92 10.87 18.37 21.15 21 8.85 2 18.91 2.08 26.92-2.74 8.59-5.4 12.06-16.08 11.95-25.79q.05-70.14 0-140.27c.24-6.13-2-12.54-6.81-16.55a24.1 24.1 0 0 0-28-1.37c-5.74 3.38-9.04 10.06-9 16.61Z" style="fill:#fff"/>
</svg>
