<svg xmlns="http://www.w3.org/2000/svg" viewBox="0 0 1024 1024">
   <circle cx="512" cy="512" r="512" style="fill:#8cc63f"/>
   <path d="M249.7 558.06h-28.77l-35.76-95.09 31.65-.03 20.01 61.18 19.51-61.21 29.54-.03-36.18 95.18Zm42.2-.03-.09-95.15 30.69-.03.09 95.14-30.69.03Zm15.44-105.71c-9.01 0-16.31-7.28-16.31-16.29 0-9.02 7.27-16.12 16.29-16.13 9.02-.01 16.12 7.09 16.13 16.1 0 9-7.09 16.3-16.1 16.32m80.62 61.12c-7.29 0-20.72-.36-26.27 5.2-1.73 1.73-3.26 4.22-3.26 8.05 0 9.2 6.91 11.51 11.91 11.5 10.36 0 16.68-4.81 17.64-5.38l-.03-19.38Zm2.92 44.51v-8.06c-2.11 1.73-11.88 10.17-26.85 10.2-19.18 0-30.89-12.84-30.91-31.06-.03-35.1 42.36-35.14 52.34-35.14h2.11c0-3.08.18-6.14-2.31-8.63-1.54-1.53-4.61-3.06-11.32-3.06-13.43.01-25.31 5.97-26.46 6.55l-9.22-18.22c1.53-1.15 14.56-10.37 37.2-10.39 14.58 0 25.51 3.62 33 11.1 8.25 8.24 7.68 19.37 7.69 31.07l.05 55.63-25.32.02Zm189.27-98.19c-29.54.02-51.01 21.71-50.98 51.26.04 28.78 20 49.66 48.77 49.63 30.32-.03 51.59-21.53 51.55-52.03-.02-27.8-20.54-48.87-49.29-48.87h-.05m-20.29 50.08c-.01-15.92 7.46-25.52 19.17-25.53 12.27 0 19.77 10.35 19.78 26.08 0 15.92-6.69 25.51-18.59 25.52h-.02c-12.26 0-20.32-9.96-20.34-26.07m-83.48-49.98c-32.03.01-52.15 23.05-52.13 51.25.02 22.44 12.71 46.97 43.4 46.96 12.85-.01 19.37-5.58 20.52-6.35v7.3c.02 12.86-6.11 19.37-20.69 19.39-15.16 0-27.26-7.65-28.59-8.61l-12.08 19.01c2.11 1.9 16.9 14.17 44.33 14.15 21.1-.02 31.84-8.47 36.63-13.28 11.31-11.12 10.52-22.25 10.52-34.14l-.08-85c-2.88-1.52-20.29-10.68-41.73-10.68h-.1m-21.83 49.87c-.01-16.11 9.57-25.52 21.27-25.53 6.33 0 10.36 1.53 12.28 2.5l.04 42.58c-.38.19-5.56 4.43-14 4.43h-.01c-10.36 0-19.57-8.24-19.58-23.97m64.72 45.8-.08-85v-.59l-.53-.28c-6.16-3.26-22.62-10.82-42.29-10.8-15.36 0-28.61 5.16-38.34 14.9-9.54 9.55-14.79 22.81-14.78 37.34.02 23.88 13.76 47.97 44.38 47.95 8.09-.01 15.06-2.12 20.74-6.29.14-.1.26-.19.33-.24l-1.53-.82v7.3c.01 12.71-6.06 18.38-19.71 18.41-15.74 0-27.9-8.34-28.02-8.43l-.85-.6-.56.88-12.07 19.01-.45.7.62.56c1.64 1.48 16.86 14.43 44.98 14.4 15.59 0 28.5-4.7 37.34-13.56 10.91-10.73 10.86-21.4 10.81-32.69v-2.15Zm-12.2 33.45c-8.45 8.48-20.88 12.97-35.94 12.98-27.4.03-42.08-12.47-43.67-13.89l.17 1.26 12.07-19.01-1.41.28c.12.09 12.81 8.8 29.16 8.79 14.81-.02 21.7-6.5 21.68-20.38v-9.16l-1.54 1.04c-.1.07-.23.16-.39.28-5.33 3.91-11.92 5.9-19.58 5.91-29.26.01-42.39-23.08-42.41-45.98-.01-14 5.03-26.77 14.2-35.95 9.35-9.36 22.13-14.31 36.95-14.31 19.22-.03 35.33 7.38 41.37 10.57l-.52-.87.07 85v2.16c.05 10.86.1 21.12-10.23 31.29M487.7 528.4c-.1.05-.19.12-.39.25-4.88 3.37-9.85 4.08-13.17 4.08-9.25 0-18.59-7.1-18.6-22.98 0-7.98 2.35-14.56 6.83-19.04 3.6-3.6 8.25-5.5 13.46-5.5 6.14 0 10.05 1.49 11.84 2.39l-.55-.88.03 42.58.55-.89Zm.84-42.57c-1.94-.97-6.17-2.6-12.72-2.6-5.66 0-10.94 2.16-14.86 6.09-4.85 4.85-7.41 11.92-7.4 20.43.01 17.15 10.67 24.96 20.57 24.95 3.6 0 8.99-.77 14.29-4.43.08-.05.16-.11.19-.13l.47-.29.03-.57-.03-42.58v-.61l-.55-.28Zm141.93 22.81c-.01-13.8-5.04-26.43-14.17-35.57-9.21-9.22-22.05-14.3-36.15-14.28-30.14.02-51.99 22-51.97 52.25.02 14.24 4.95 27.13 13.89 36.31 9.01 9.24 21.75 14.33 35.87 14.31 14.85-.01 28.24-5.25 37.73-14.75 9.57-9.59 14.83-23.18 14.81-38.27m-52.54 51.05c-28.1.03-47.75-19.98-47.79-48.65-.02-29.11 21.01-50.26 50-50.28 27.99-.02 48.33 20.11 48.36 47.88.02 14.57-5.04 27.66-14.24 36.88-9.11 9.12-22.01 14.15-36.33 14.17m19.88-49.29c.01 15.58-6.4 24.52-17.6 24.54-11.93 0-19.36-9.6-19.37-25.08-.01-15.12 6.95-24.53 18.18-24.54 11.58 0 18.78 9.61 18.79 25.09m-18.8-27.06c-12.44.02-20.16 10.18-20.14 26.52.01 16.45 8.4 27.07 21.34 27.06 12.27-.02 19.58-9.93 19.57-26.51-.01-16.45-8.17-27.07-20.77-27.06m121.62 3.19c-1.92-.96-5.96-2.49-12.28-2.48-11.7 0-21.28 9.41-21.27 25.53.02 15.73 9.23 23.97 19.59 23.96 8.44 0 13.62-4.22 14-4.42l-.04-42.59Zm19.66 102.98c-4.79 4.81-15.53 13.26-36.63 13.28-27.43.02-42.21-12.23-44.32-14.17l12.07-18.99c1.35.96 13.44 8.62 28.59 8.61 14.57-.02 20.71-6.54 20.69-19.4v-7.3c-1.15.79-7.67 6.35-20.53 6.36-30.69.03-43.37-24.51-43.39-46.96-.03-28.19 20.1-51.23 52.13-51.26 21.49-.01 38.94 9.18 41.83 10.7l.08 84.99c0 11.9.79 23.02-10.52 34.14m68.25-105.37c-11.69.02-19.17 9.61-19.16 25.53.02 16.11 8.09 26.08 20.36 26.07 11.9 0 18.59-9.6 18.58-25.53-.01-15.73-7.5-26.08-19.78-26.07m-1.08 76.34c-28.77.03-48.74-20.87-48.77-49.63-.03-29.54 21.44-51.24 50.98-51.26 28.78-.03 49.32 21.05 49.34 48.86.03 30.5-21.24 52.01-51.55 52.03" style="fill:#fff"/>
</svg>
