<svg xmlns="http://www.w3.org/2000/svg" viewBox="0 0 1024 1024">
   <circle cx="512" cy="512" r="512" style="fill:#1ab7ea"/>
   <path d="M333.91 410.53q.34-9.09 10.71-17.5a35.77 35.77 0 0 1 23-8.39 15.55 15.55 0 0 1 12.38 5.78q4.92 5.78 4.57 11.71-.35 8.75-8.79 16.8a31.43 31.43 0 0 1-22.5 9.09q-20.07-.02-19.37-17.49Zm528 92.69Q860.5 535.52 838 559t-55.9 23.52q-27.77 0-42.18-17.91a50 50 0 0 1-5.59-8.85c-2.52 1.56-5.15 3.13-7.93 4.69q-37.26 21.42-75.58 21.41-28.48 0-40.79-19c-.6-.89-1.16-1.8-1.7-2.73l-.75.67q-23.56 20.37-47.1 20.37-22.87 0-22.15-25.29.34-11.25 4.39-27t4.4-24.59q.36-13.35-8.12-13.36-9.17 0-21.86 21.8-13.41 22.86-14.47 44.27-.71 15.13 3 23.21-24.53.71-34.34-8.08-8.78-7.74-8.06-25.66a94.81 94.81 0 0 1 3.45-22.5 90.25 90.25 0 0 0 3.45-20q.71-13-9.5-13-8.81 0-19 20a102.12 102.12 0 0 0-11.26 41.83q-.71 19.69 2.52 27.42-24.13.71-34.27-10.17a28.12 28.12 0 0 1-6.49-12.91q-2 1.88-4.05 3.7-23.56 20.37-47.1 20.37-10.91 0-16.7-7t-5.45-18.27q.34-11.59 7.2-35.83t6.86-26q0-9.12-6.33-9.13-2 0-10.85 6.55-6.69 20-29.12 48.85-31.93 41.51-54 41.51-13.68 0-23.16-25.28l-12.64-46.35q-7-25.27-15.08-25.28-1.76 0-12.29 7.38l-7.46-9.5q11.59-10.19 22.85-20.38 15.46-13.36 23.2-14.06 18.28-1.76 22.5 25 4.56 28.86 6.33 35.9 5.27 23.95 11.6 23.94 4.92 0 14.76-15.53t10.54-23.65q1.4-13.41-10.54-13.42a29.33 29.33 0 0 0-11.59 2.57q11.54-37.82 44.09-36.76 21.73.64 22.77 25.52l10.49-9.52q15.12-13.36 22.51-14.06 11.59-1 17 6.83t4 20.49Q368 497.1 362.73 530q-.35 15.07 10.9 15.06 4.92 0 17.58-10.41l.31-.26q.81-7.34 2.6-17.44a197.52 197.52 0 0 0 3.24-25.42q.69-6.3-3.16-6.31-2.11 0-12 7.11l-8.43-9.49q1.76-1.39 22.15-20.38 14.76-13.7 20-14.05 9.14-.71 14.76 7.55a33.23 33.23 0 0 1 5.63 19.16 31.14 31.14 0 0 1-.7 6.68A64.72 64.72 0 0 1 448 467.74q16.17-14.05 36.21-15.82 17.23-1.4 24.62 8.08 6 7.74 5.62 22.15c1.64-1.4 3.4-2.93 5.28-4.57a93.38 93.38 0 0 1 15.81-15.11q13-9.49 27.07-10.55 16.87-1.4 24.26 8.05 6.32 7.7 5.63 22.06-.35 9.82-4.75 28.55t-4.4 21.53q-.35 7.37 1.41 10.16c1.17 1.87 4 2.79 8.43 2.79q3 0 8.9-3.89a63.73 63.73 0 0 1-.47-9.2q.34-28.46 25.31-54.13 27.42-28.11 64.68-28.12 34.46 0 36.56 28.06 1.4 17.87-19.68 36.82-22.51 20.7-56.61 26.3 6.32 8.77 19 8.76 25.3 0 55.2-12.87l2.63-1.13c-.16-1.43-.28-2.88-.36-4.37q-1.77-30.19 21.8-55.47 25.3-28.08 63.62-28.08 24.6 0 37.26 16.5 11.97 15.12 10.89 38.98Zm-185.77 5.05q10.17-11.19 10.53-18.19.34-9.43-7.73-9.44-10.54 0-21.41 14.52T646.32 523c-.13 0-.13 1.52 0 4.55a79.1 79.1 0 0 0 29.83-19.28Zm143.4-23.81q-3-7.92-8.61-7.93-17.94 0-29.52 19.38a68 68 0 0 0-10.55 33.81 30.18 30.18 0 0 0 3.16 15.5q3.85 7.75 10.9 7.75 15.81 0 27.07-18.67a66.63 66.63 0 0 0 10.19-32.4 44.25 44.25 0 0 0-2.63-17.44Z" style="fill:#fff"/>
</svg>
