<svg xmlns="http://www.w3.org/2000/svg" viewBox="0 0 1024 1024">
   <circle cx="512" cy="512" r="512" style="fill:#e30613"/>
   <path d="M652.26 541q.33-1.23.66-2.54l.15-.61q.3-1.21.58-2.47l.09-.38c.21-.94.42-1.92.63-2.91l.15-.71c.21-1 .41-2.06.62-3.13-.25 2-.52 4-.79 5.89l-.11.79q-.39 2.74-.81 5.38l-.16 1q-.42 2.6-.86 5.12l-.15.86c-.31 1.72-.62 3.41-.94 5.06l-.08.39q-.47 2.4-1 4.7l-.14.64c-.33 1.53-.67 3-1 4.51l-.21.89-1 4.21-.23.87c-.36 1.38-.73 2.74-1.11 4.07l-.18.61q-.55 1.9-1.11 3.72l-.16.51c-.39 1.25-.8 2.47-1.2 3.67l-.27.8q-.59 1.72-1.21 3.36l-.31.82c-.41 1.09-.83 2.16-1.26 3.2l-.27.65c-.42 1-.84 2-1.26 2.94l-.2.44c-.44 1-.88 1.9-1.33 2.82l-.32.65c-.45.9-.9 1.77-1.36 2.63l-.37.68q-.69 1.26-1.39 2.45l-.35.58c-.48.8-1 1.59-1.47 2.34l-.23.34q-.7 1.05-1.41 2l-.32.45c-.5.68-1 1.34-1.52 2l-.4.5q-.76.93-1.53 1.8l-.39.43c-.53.58-1.07 1.15-1.61 1.68l-.28.27q-.77.75-1.56 1.45l-.27.24c-.56.49-1.12.94-1.69 1.38l-.39.3q-.84.63-1.69 1.2l-.4.26c-.58.38-1.16.74-1.75 1.07l-.31.17c-.59.33-1.18.64-1.78.92l-.15.07c-.62.29-1.25.56-1.88.81l-.34.13c-.61.23-1.23.44-1.85.63l-.37.11c-.62.18-1.25.35-1.88.49l-.31.07c-.66.14-1.33.27-2 .36h-.07c-.67.1-1.34.16-2 .22h-.27c-.66 0-1.32.07-2 .07h-.33q-1.31 0-2.63-.11h-.2q-1.41-.12-2.84-.36c-.94-.16-1.89-.36-2.84-.59l-.23-.06q-1.34-.34-2.7-.77l-.28-.09q-1.36-.44-2.72-1l-.23-.09q-1.45-.58-2.92-1.25-1.49-.69-3-1.48l-.16-.09q-1.42-.76-2.84-1.6l-.25-.15q-1.4-.84-2.81-1.76l-.23-.15q-1.47-1-2.95-2h-.06q-1.52-1.1-3.05-2.29l-.07-.05q-1.48-1.16-3-2.4l-.2-.17q-1.43-1.21-2.87-2.49l-.22-.19q-1.47-1.32-2.94-2.72l-.1-.09q-3-2.91-6.09-6.14l-.16-.17q-1.44-1.54-2.88-3.14l-.21-.23q-1.44-1.61-2.88-3.29l-.15-.17q-3-3.53-6-7.33l-.12-.16q-1.42-1.82-2.83-3.69l-.23-.3q-1.39-1.85-2.76-3.75l-.2-.27-2.86-4v-.06q-1.45-2.09-2.89-4.24l-.1-.15q-1.38-2.06-2.74-4.16l-.23-.35q-1.31-2-2.61-4.11l-.25-.4q-1.32-2.12-2.62-4.28l-.15-.25s-.06-.08-.07-.12q-2.93-4.89-5.76-9.94l-.05-.07c-1.92-3.44-3.8-6.92-5.63-10.46l-.06-.09c-.62-1.19-1.24-2.38-1.85-3.58l-.13-.24-.9-1.73-.3-.57-.45-.85-.3-.57c-.29-.52-.59-1-.88-1.59l-.59-1-.3-.53-.94-1.64-.3-.53-.33-.56v-.06l-.05-.09-.8-1.35-.24-.4-1.06-1.75-.36-.58-1.31-2.11v-.06l-1.32-2.08-.39-.61-1.15-1.76-.27-.42-1.34-2-.11-.16-.3-.44-1.15-1.7-.38-.55-1.46-2.1-.32-.46-1.4-1.93-.44-.62-1.51-2.09-.08-.11-1.47-2-.47-.63-1.26-1.67-.33-.44-1.54-2-.45-.58-1.19-1.51-.44-.56-1.56-2-.37-.46-1.27-1.56-.49-.6-1.54-1.82-.21-.25-1.45-1.75-.5-.58-.85-1-.26-.3-.17-.19-.36-.41-.66-.74-.33-.38-.57-.64-.47-.52-.15-.16-.27-.3-.78-.86-.46-.51-.21-.23-1.32-1.42-.15-.16-.38-.4-.91-1-.35-.36-.31-.31-.72-.73-.6-.61-.19-.19-.17-.17-.41-.41-.6-.6-.38-.38-.47-.46-1-.95-.19-.18-.31-.3-.17-.16-.69-.64-.6-.55-.2-.18-.51-.46-.58-.52-.71-.62-.55-.47-.72-.61-.11-.09-.32-.26-1.2-1-.35-.28-.35-.28-.69-.53-.32-.25-.11-.08-.07-.05-.67-.49-.5-.36-.24-.17-.41-.28-.5-.34-.63-.43-.43-.27-.83-.52-.23-.13h-.08l-.52-.31-.46-.26-.24-.13-.35-.19-.51-.26-.29-.14-.23-.11-.47-.22-.45-.19-.27-.11-.23-.09-.87-.3-.31-.09-.58-.16h-.37l-.5-.09H436l-.47.06h-.29l-.46.14-.14.05a4.56 4.56 0 0 0-.62.32l-.13.09a4.61 4.61 0 0 0-.47.35h-.05l-.11.09a5.2 5.2 0 0 0-.53.59l-.11.14-.22.32v.06l-.2.34-.09.18a8.28 8.28 0 0 0-.39.89v.22q-.13.39-.24.83l-.06.24q-.13.54-.22 1.15v.28c-.06.42-.11.86-.14 1.33v3.87c0 .58.08 1.18.14 1.82v.1c.06.62.14 1.27.23 1.94l.06.43q.14 1 .33 2.11l.08.46c.13.77.28 1.55.45 2.37v.06c.17.82.35 1.66.55 2.53l.11.5q.3 1.29.65 2.66l.14.54c.25 1 .5 1.94.78 3-.6-1.39-1.17-2.78-1.72-4.16-.17-.43-.33-.87-.5-1.3q-.55-1.43-1.07-2.86l-.51-1.44q-.49-1.4-.94-2.79c-.14-.43-.29-.87-.42-1.3q-.58-1.85-1.1-3.69l-.09-.3c-.37-1.31-.7-2.61-1-3.91-.1-.41-.19-.81-.28-1.21-.21-.9-.41-1.79-.59-2.67q-.14-.69-.28-1.37-.25-1.28-.46-2.55c-.07-.42-.15-.84-.21-1.26q-.25-1.59-.45-3.16c0-.18-.05-.36-.07-.53-.14-1.2-.26-2.39-.36-3.56 0-.38-.05-.76-.08-1.13-.06-.81-.11-1.61-.14-2.4v-4.73c0-.89 0-1.76.08-2.63v-.67c.06-1.06.14-2.1.25-3.13 0-.35.08-.69.12-1 .08-.7.17-1.39.27-2.07l.18-1.16q.16-1 .35-1.89c.07-.36.14-.73.22-1.09.16-.72.33-1.42.51-2.11.06-.24.12-.48.18-.71q.37-1.35.8-2.63c.1-.29.21-.58.31-.87.21-.58.42-1.15.64-1.72.13-.33.27-.65.4-1q.33-.78.69-1.53c.14-.3.29-.61.44-.91.28-.56.58-1.1.88-1.64.12-.21.23-.43.35-.63q.63-1.07 1.31-2.07c.15-.22.31-.43.47-.65.33-.46.66-.9 1-1.34l.6-.73q.49-.59 1-1.14l.63-.67c.4-.4.81-.79 1.22-1.17l.5-.46q.87-.76 1.79-1.43l.57-.39c.45-.32.91-.62 1.38-.91l.76-.44q.66-.37 1.33-.71l.78-.38c.51-.24 1-.45 1.57-.66l.62-.25q1.1-.4 2.25-.71l.6-.14c.59-.15 1.18-.28 1.79-.39l.86-.14q.82-.13 1.67-.21l.89-.08c.63 0 1.27-.07 1.91-.08h1.28q.79 0 1.6.07l.7.05q.83.07 1.67.18l.53.06q1.09.15 2.2.37l.6.13q.84.17 1.7.38l.79.2c.57.15 1.14.31 1.72.49l.65.19q1.16.37 2.35.8l.65.25q.9.34 1.81.72l.86.37q.89.38 1.78.8l.75.35q1.23.59 2.48 1.25l.66.36q1 .52 1.95 1.08l.92.54q.93.55 1.86 1.13l.82.51q1.3.83 2.63 1.73l.62.44q1.06.73 2.12 1.51l.95.7q1 .73 2 1.5l.86.67c.92.73 1.84 1.48 2.77 2.26l.53.45q1.16 1 2.34 2l1 .85q1 .93 2.08 1.9l.89.83c1 .91 1.93 1.84 2.91 2.81l.39.4q1.29 1.28 2.59 2.63l.95 1q1.09 1.14 2.18 2.33l.91 1c1 1.1 2 2.23 3 3.39l.22.26q1.42 1.63 2.86 3.35l.94 1.13q1.14 1.37 2.28 2.79l.93 1.16c1 1.31 2.09 2.63 3.14 4l3.44 4.49.85 1.12 3.12 4.09.23.3 3.29 4.33.8 1.06 2.86 3.79.38.51 3.17 4.21.7.93 2.7 3.59.47.63 3.07 4.09.54.73 2.69 3.6.42.56 6.74 9 2.27 3 .9 1.21 1.81 2.43 1 1.28 2.5 3.33.55.74 2 2.72.77 1 2.44 3.23.41.55 2 2.7.73 1 2.32 3 .24.32 2.13 2.77.66.86 2.08 2.69.22.28 2.2 2.81.61.77 1.87 2.37.34.42 2.1 2.62.54.67 1.75 2.15.38.47 2 2.42.49.58 1.64 1.94.42.49 1.9 2.2.43.49 1.55 1.75.43.48 1.8 2 .37.4 1.48 1.58.43.45q.87.91 1.72 1.77l.29.29 1.44 1.43.42.41c.55.53 1.1 1 1.64 1.54l.2.18q.72.66 1.43 1.28l.4.35c.52.45 1 .89 1.56 1.31l.09.07c.48.39 1 .76 1.43 1.12l.38.29c.48.36 1 .71 1.43 1 .48.33 1 .64 1.43.93l.36.22c.43.26.85.5 1.26.73l.14.08c.45.24.9.47 1.35.67l.34.15c.38.17.76.33 1.14.47l.2.08c.43.16.85.29 1.26.41l.3.08q.52.14 1 .23h.24c.4.07.8.11 1.19.13h1.47a10.14 10.14 0 0 0 1.11-.14l.25-.05a9.85 9.85 0 0 0 1-.26h.11a10.11 10.11 0 0 0 1-.42l.25-.12a10.93 10.93 0 0 0 1-.56l.08-.06.1-.07h.07q.34-.23.68-.49l.09-.07.22-.18.42-.37.15-.14.36-.34.18-.18.17-.17.54-.6.11-.12.15-.18.44-.55.16-.21.27-.36.21-.31.05-.08.14-.2c.18-.26.36-.54.54-.82l.17-.27q.3-.49.59-1l.22-.4.22-.41c.25-.47.49-1 .73-1.46l.09-.18c.26-.56.52-1.14.77-1.74l.21-.49c.25-.61.5-1.24.75-1.89l.1-.29c.22-.6.44-1.22.65-1.85l.18-.54c.24-.71.47-1.44.7-2.2l.14-.48q.3-1 .6-2.08ZM483.62 675.68l-.14.15q-.93 1-1.84 1.84l-.27.26q-.85.82-1.69 1.59l-.33.3q-.81.73-1.6 1.41l-.35.3q-.78.66-1.55 1.28l-.34.27q-.79.62-1.56 1.19l-.28.21q-.83.6-1.64 1.15l-.16.11a45.3 45.3 0 0 1-5.28 3.07l-.16.08c-.5.24-1 .47-1.48.68l-.41.17c-.4.17-.8.33-1.19.47l-.52.18-1.06.36-.56.17-1 .27-.58.14-.92.2-.59.11-.89.13-.59.08-.86.08h-1.95c-.71 0-1.41 0-2.1-.11h-.33q-1-.11-2-.3l-.34-.07q-1-.2-1.9-.48l-.28-.09c-.64-.2-1.26-.41-1.88-.66l-.16-.07q-.92-.37-1.81-.81l-.12-.05c-.59-.29-1.17-.61-1.74-.94l-.24-.14c-.54-.32-1.08-.66-1.6-1l-.28-.19q-.77-.52-1.51-1.08l-.27-.21q-.74-.57-1.45-1.16l-.22-.18c-.49-.41-1-.83-1.43-1.26l-.09-.09q-.69-.64-1.35-1.28l-.14-.13q-.66-.64-1.28-1.29l-.2-.21-1.11-1.23-.22-.24-1.11-1.22-.2-.23-1.09-1.21-.34-.39-.81-.93c-63.81-72.8-65.83-163.07-58-239.52l.07-.73q.76-7.39 1.63-14.59.25-2.1.51-4.18c1.71-13.79 3.6-27 5.34-39.43q.45-3.18.88-6.3l.51-3.7q.45-3.27.87-6.46.63-4.78 1.18-9.36t1-8.66l.06-.57q.42-4.09.74-8v-.43q.42-5.36.62-10.31v-.18q.09-2.49.11-4.87v-2.44a100.91 100.91 0 0 0-.88-13.18q-.42-3-1.08-5.75-.44-1.82-1-3.5a36.19 36.19 0 0 0-1.9-4.74 26.9 26.9 0 0 0-3.39-5.33 22.93 22.93 0 0 0-2.09-2.22 22.13 22.13 0 0 0-2.37-1.91 22.78 22.78 0 0 0-2.66-1.6 24.9 24.9 0 0 0-3-1.28 34.65 34.65 0 0 0-10.85-1.86h-3.73c-39.27 1-82.71 32.6-106.59 87.09q-.56 1.28-1.11 2.58-.54 1.29-1.07 2.59v.07q-.52 1.29-1 2.59v.1q-.5 1.29-1 2.6v.13q-.48 1.29-.94 2.59l-.06.17q-.46 1.29-.9 2.6l-.06.19q-.44 1.3-.86 2.61l-.07.22q-.42 1.3-.82 2.61l-.08.25q-.4 1.3-.79 2.62l-.08.28q-.38 1.3-.74 2.61l-.09.31q-.36 1.29-.7 2.6l-.1.37q-.34 1.29-.66 2.59l-.1.39q-.32 1.29-.62 2.6l-.1.42q-.3 1.29-.59 2.6l-.1.45q-.28 1.29-.55 2.6l-.1.49q-.26 1.29-.51 2.6l-.1.52q-.24 1.29-.47 2.59l-.1.56q-.22 1.29-.43 2.58l-.1.59q-.21 1.29-.4 2.58l-.09.62q-.19 1.29-.36 2.59l-.09.65q-.17 1.28-.32 2.57l-.09.7q-.15 1.28-.29 2.56l-.08.73q-.13 1.27-.25 2.56l-.07.77q-.12 1.27-.22 2.55c0 .27 0 .54-.06.8q-.1 1.27-.18 2.55c0 .28 0 .56-.06.84q-.08 1.26-.15 2.54v.88q-.06 1.26-.11 2.53v.92q0 1.26-.08 2.53v11.52c0 .84 0 1.67.05 2.51v1.07c0 .83.05 1.67.09 2.5v1.12c0 .83.08 1.65.12 2.48 0 .39 0 .77.06 1.16 0 .82.1 1.65.15 2.47 0 .4 0 .8.08 1.2l.18 2.46c0 .41.06.82.09 1.24l.21 2.46c0 .42.07.85.11 1.27l.24 2.47c0 .43.08.85.13 1.28.09.82.18 1.65.28 2.48 0 .43.1.86.15 1.3.1.82.2 1.65.31 2.47.06.45.11.89.17 1.34.11.81.22 1.63.34 2.44.07.47.13.93.2 1.4l.36 2.42c.07.48.14 1 .22 1.44.13.8.26 1.61.39 2.42.08.49.16 1 .24 1.46.14.81.28 1.63.43 2.44.09.49.17 1 .26 1.47.15.81.3 1.63.46 2.44.1.5.19 1 .29 1.5.16.81.32 1.62.49 2.43.1.51.2 1 .31 1.53.17.8.34 1.61.52 2.41.11.53.22 1.05.34 1.58.18.8.36 1.6.54 2.41.12.53.24 1.07.37 1.6.19.8.38 1.61.58 2.41.13.54.26 1.08.39 1.63.2.81.41 1.63.61 2.44.14.54.27 1.08.41 1.62.21.81.43 1.62.64 2.44.15.55.29 1.1.44 1.65.22.81.45 1.62.67 2.44.16.56.31 1.11.46 1.67.23.81.47 1.62.7 2.43.17.57.33 1.14.5 1.71.24.8.49 1.61.73 2.42.18.58.35 1.16.53 1.74.25.81.51 1.63.77 2.45.18.58.36 1.15.55 1.73.26.82.54 1.65.81 2.48.19.58.37 1.15.57 1.73.28.85.58 1.71.87 2.56l.57 1.67c.31.88.62 1.76.93 2.65l.57 1.61c.32.89.65 1.79 1 2.68l.58 1.6c.33.89.67 1.79 1 2.68l.61 1.62c.37 1 .75 1.94 1.14 2.91l.55 1.41c.46 1.15.93 2.31 1.4 3.47l.35.88q.89 2.18 1.82 4.37 1.21 2.87 2.43 5.68l.73 1.67c.57 1.3 1.13 2.6 1.7 3.88l1 2.13c.5 1.11 1 2.22 1.49 3.32l1 2.28c.47 1 .94 2 1.41 3.06l1.1 2.33 1.37 2.89 1.14 2.36 1.33 2.75 1.16 2.35 1.32 2.66 1.18 2.34 1.3 2.55 1.21 2.33 1.29 2.47 1.22 2.28 1.29 2.4 1.23 2.26 1.28 2.31 1.25 2.24 1.27 2.23 1.26 2.2 1.26 2.16 1.28 2.18 1.24 2.08 1.3 2.15 1.23 2 1.32 2.12 1.22 1.93 1.33 2.08 1.21 1.86 1.35 2.06 1.19 1.78 1.37 2 1.17 1.7 1.39 2 1.13 1.6 1.44 2 1.07 1.47 1.49 2 1 1.3 1.6 2.12.69.88q3.27 4.24 6.54 8.18l.38.46c.59.71 1.18 1.4 1.78 2.09l.8.93 1.65 1.88.93 1.06 1.59 1.75 1 1.09 1.55 1.65 1 1.09 1.52 1.57 1.05 1.08 1.51 1.51 1.07 1.06 1.49 1.44 1.09 1 1.48 1.38 1.09 1 1.47 1.32 1.1 1 1.46 1.27 1.1.94 1.45 1.21 1.11.91 1.45 1.16 1.11.87 1.45 1.11 1.11.83 1.44 1.06 1.11.79 1.44 1 1.11.76 1.44 1 1.11.72 1.43.92 1.1.68 1.44.87 1.09.64 1.44.83 1.09.6 1.44.79 1.07.56 1.45.75 1 .5 1.49.73.84.38q1.8.83 3.59 1.58l.51.22 1.36.54 1.14.45 1.06.65 1.21.44 1.25.42 1.23.41 1.23.38 1.25.38 1.21.34 1.26.34 1.2.3 1.26.3 1.18.26 1.26.26 1.17.22 1.27.23 1.15.18 1.27.19 1.15.15 1.26.15 1.14.12 1.26.11 1.12.08 1.26.07h7.1l1.29-.06 1.14-.07 1.27-.1 1.15-.11 1.25-.14 1.14-.14 1.25-.18 1.14-.18 1.22-.22 1.14-.21 1.21-.25 1.14-.25 1.19-.29 1.14-.29 1.17-.32 1.14-.32 1.15-.35 1.14-.36 1.11-.38 1.17-.4 1.06-.4 1.19-.45 1-.41 1.24-.51.85-.38q2.63-1.16 5.2-2.5l.43-.22 1.43-.78.71-.39 1.34-.78.78-.46 1.28-.79.81-.5 1.26-.82.81-.53 1.24-.85.82-.57 1.21-.88.81-.6 1.2-.92.8-.62 1.19-.95.79-.64 1.17-1 .78-.67 1.16-1 .77-.69 1.15-1.06.75-.7 1.13-1.09.74-.72 1.13-1.13.71-.73 1.12-1.17.69-.75 1.11-1.21.67-.75 1.11-1.26.65-.76 1.1-1.31.62-.76 1.1-1.35.59-.75 1.1-1.42.54-.72 1.12-1.5.49-.67 1.14-1.59.41-.59c.4-.57.8-1.15 1.19-1.73l.24-.36q3-4.42 5.74-9.17c.37-.64.74-1.29 1.1-1.94l.34-.61c.32-.58.64-1.16 1-1.74l.46-.85.87-1.66.5-1 .81-1.62.53-1.07.77-1.59.54-1.13.73-1.57.55-1.19.7-1.56.54-1.24.66-1.56.54-1.29.63-1.55.54-1.34.6-1.54.53-1.38.58-1.54.52-1.41.55-1.55.5-1.44.53-1.56.49-1.47.51-1.56.48-1.51.48-1.56.46-1.56.45-1.54c.15-.53.3-1.07.45-1.61s.29-1 .42-1.53.29-1.1.44-1.65.27-1 .4-1.53.28-1.12.42-1.69.25-1 .38-1.52.27-1.16.41-1.74.23-1 .35-1.48.27-1.23.41-1.84.21-.95.31-1.42c.14-.65.27-1.3.4-1.95.09-.45.19-.9.27-1.35.15-.74.28-1.48.42-2.22l.21-1.1q.3-1.65.58-3.31c-13.54 25.29-25.33 41.98-35.65 52.6Zm115.09-223.79v-2.28c0-.53 0-1-.06-1.56v-6.52q0-1.41.13-2.74v-.2a62.42 62.42 0 0 1 .92-7.52V431a36.39 36.39 0 0 1 1.67-6.09q.34-.88.71-1.69a18.54 18.54 0 0 1 1.66-2.87v-.05a14.18 14.18 0 0 1 .91-1.14l.08-.09a12.1 12.1 0 0 1 1-1q.34-.29.69-.55l.14-.1.16-.11.1-.07.33-.2.21-.13.52-.28.13-.07.16-.07.51-.22.3-.12.2-.07.18-.05h.12l.34-.1.48-.11h.29c.25 0 .51-.08.77-.1h2.09l.49.05h.24l.62.09.34.06.76.17h.12l.4.1h.17c.48.14 1 .3 1.47.49l.37.14c.46.18.92.37 1.39.59l.17.08c.52.24 1 .51 1.58.8l.39.22c.49.28 1 .57 1.5.88l.17.1c.55.35 1.12.73 1.69 1.12l.42.29c.53.38 1.06.77 1.6 1.19l.17.13c.59.46 1.19.94 1.79 1.45l.44.37c.56.48 1.13 1 1.71 1.5l.16.15c.62.57 1.26 1.16 1.9 1.78l.46.44 1.17 1.16.11.11.54.55.15.16.52.54.12.13 1.23 1.3.07.08.06.06.47.52c.64.7 1.28 1.41 1.92 2.15l.14.16.83 1 .67.78.58.69.38.45.6.72.44.54.74.91.36.45.12.15c.72.9 1.45 1.84 2.18 2.79l.5.66c.7.92 1.41 1.86 2.12 2.83l.11.15c.75 1 1.51 2.07 2.27 3.14l.52.73c.73 1 1.47 2.1 2.22 3.18l.1.14c.78 1.13 1.56 2.3 2.35 3.49l.53.8c.76 1.16 1.53 2.33 2.31 3.54l.09.13c.8 1.25 1.61 2.53 2.42 3.83l.55.88c.79 1.28 1.59 2.57 2.39 3.9l.07.12c.82 1.36 1.66 2.76 2.49 4.18l.57 1c.82 1.39 1.63 2.8 2.46 4.24l.06.11c.85 1.48 1.7 3 2.55 4.53l.59 1.06c.84 1.51 1.68 3 2.53 4.6l.05.1c.87 1.6 1.74 3.23 2.61 4.88l.61 1.15c.86 1.63 1.72 3.28 2.59 5v.09c.88 1.71 1.77 3.46 2.66 5.23l.63 1.24c.88 1.75 1.76 3.51 2.64 5.3l.05.1c.9 1.83 1.8 3.69 2.71 5.57l.65 1.34c.9 1.87 1.8 3.77 2.7 5.69v.06c.91 1.94 1.83 3.92 2.75 5.92l.67 1.46c.91 2 1.83 4 2.75 6.05a772.3 772.3 0 0 1 2.79 6.27l.69 1.57c.93 2.12 1.86 4.25 2.79 6.42.94 2.18 1.88 4.4 2.83 6.64l.69 1.65c.95 2.25 1.89 4.51 2.84 6.82.95 2.29 1.9 4.62 2.85 7l.72 1.79c1 2.36 1.91 4.75 2.87 7.16.43 1.1.88 2.15 1.34 3.18l.18.4c.44 1 .88 1.91 1.34 2.82l.25.49q.68 1.33 1.39 2.58l.26.45c.48.84 1 1.65 1.47 2.43l.19.29q.75 1.15 1.52 2.23l.13.18c.52.72 1.06 1.41 1.6 2.07l.29.36q.78.95 1.58 1.82l.34.37q.8.85 1.62 1.63l.32.3c.57.53 1.14 1 1.71 1.51l.19.15q.84.68 1.69 1.29l.24.18c.58.41 1.17.79 1.76 1.15l.35.22q.87.52 1.75 1l.37.19c.6.29 1.2.57 1.8.82l.3.12c.63.25 1.27.49 1.91.69h.07c.64.2 1.28.37 1.92.53l.27.07c.63.14 1.26.26 1.89.36l.34.05q.94.13 1.88.21h.33c.64 0 1.27.06 1.91.06h.34q.82 0 1.63-.07h.56q.83-.08 1.66-.2h.3c.65-.1 1.29-.23 1.93-.37l.5-.12q.76-.18 1.51-.4l.51-.15c.64-.2 1.28-.41 1.91-.65l.34-.29c.58-.22 1.15-.46 1.73-.71l.51-.23q.79-.36 1.56-.76l.33-.17q.93-.49 1.85-1l.39-.24q.75-.46 1.49-1l.45-.3q1.81-1.25 3.55-2.7l.41-.35q.73-.62 1.44-1.29l.3-.27q.85-.8 1.68-1.66l.23-.24q.71-.74 1.4-1.52l.35-.4q1.59-1.83 3.07-3.84l.29-.4q.62-.86 1.22-1.76l.25-.37q.71-1.08 1.39-2.2l.08-.14q.62-1 1.2-2.11l.26-.48q.59-1.1 1.15-2.23l.06-.11q.59-1.22 1.15-2.48l.18-.42q.46-1.07.89-2.17l.18-.47q1-2.57 1.8-5.29l.16-.55q.35-1.22.67-2.47l.08-.29q.35-1.41.65-2.85l.09-.43q.25-1.23.46-2.48l.1-.59q.46-2.91.71-5.93v-.65q.09-1.28.15-2.59v-.5q.05-1.54 0-3.11v-.44q0-1.34-.07-2.7v-.74c-.05-1-.12-2-.21-3.07v-.08c-.1-1.07-.22-2.14-.36-3.22 0-.25-.07-.5-.1-.75q-.18-1.31-.41-2.63c0-.24-.08-.47-.12-.71q-.29-1.63-.65-3.27l-.1-.42q-.32-1.43-.69-2.87l-.23-.87q-.39-1.43-.82-2.88l-.13-.45q-.51-1.65-1.1-3.31l-.29-.8q-.48-1.32-1-2.64l-.35-.87c-.45-1.11-.92-2.23-1.43-3.34l-.14-.31q-.69-1.52-1.45-3.05l-.48-.95q-.69-1.37-1.44-2.74l-.37-.69q-.92-1.67-1.93-3.35l-.49-.8q-.81-1.33-1.67-2.66l-.62-1c-.75-1.13-1.51-2.25-2.31-3.38l-2.75-3.83-.9-1.23-1.84-2.52-1.09-1.48-1.61-2.2-1.16-1.55-1.6-2.07-1.2-1.57-1.51-2-1.22-1.58-1.48-1.91-1.22-1.56-1.47-1.87-1.22-1.53-1.47-1.83L758 468l-1.45-1.79-1.21-1.48-1.41-1.73-1.21-1.46-1.43-1.71-1.2-1.42-1.44-1.68-1.2-1.39-1.45-1.61-1.18-1.35-1.45-1.64-1.15-1.29-1.46-1.62-1.14-1.26-1.45-1.57-1.09-1.18-1.53-1.64-1-1.11-1.59-1.67-1-1-1.78-1.84-.75-.78q-2.53-2.59-5-5.05l-.69-.67-1.8-1.75-.89-.86-1.58-1.51-1-.91-1.47-1.43-1-.94-1.42-1.3-1-.93-1.4-1.25-1-.92-1.36-1.19-1.06-.92-1.43-1.15-1-.89L705 413l-1-.86-1.32-1.08-1-.84-1.31-1-1-.81-1.29-1-1-.79-1.29-1-1-.75-1.29-1-1-.72-1.29-.93-1-.69-1.3-.91-.93-.65-1.35-.91-.87-.59-1.4-.92-.8-.52-1.56-1-.62-.39q-2.18-1.36-4.31-2.61l-.52-.3-1.6-.91-.73-.41-1.36-.75-.83-.44-1.25-.66-.87-.44-1.18-.6-.88-.43-1.15-.56-.89-.42-1.12-.52-.89-.4-1.09-.48-.89-.38-1.07-.45-.89-.36-1.06-.42-.87-.33-1-.39-.87-.31-1-.36-.85-.29-1-.33-.85-.27-1-.3-.83-.24-1-.27-.81-.21-1-.25-.78-.19-1-.22-.94-.14-1-.2-.7-.13-1.11-.18-.6-.1-1.45-.2h-.23l-1.71-.19h-.52l-1.11-.09h-3.52c-.88 0-1.76 0-2.61.08h-.15c-.89.06-1.76.13-2.61.24-.85.11-1.69.24-2.51.4h-.18c-.79.15-1.56.33-2.32.53l-.26.07c-.74.2-1.46.42-2.17.66l-.31.1q-1 .36-2 .78l-.32.14q-1 .43-1.93.91l-.32.17q-.94.49-1.84 1l-.3.19q-.9.57-1.76 1.19l-.26.19c-.58.43-1.14.87-1.69 1.34l-.2.18c-.56.48-1.1 1-1.63 1.51l-.13.13q-.81.81-1.56 1.68v.06c-.5.59-1 1.2-1.46 1.83l-.12.16c-.45.61-.88 1.24-1.3 1.89l-.17.25c-.4.64-.79 1.29-1.17 2l-.18.32q-.55 1-1 2.06l-.17.37q-.49 1.05-.93 2.16l-.16.4q-.44 1.12-.83 2.28l-.13.4q-.39 1.18-.72 2.42l-.1.39c-.22.84-.43 1.7-.62 2.57l-.07.34c-.19.91-.37 1.83-.52 2.77v.23q-.24 1.46-.42 3v.08c-.12 1-.22 2.05-.29 3.11v.25c-.07 1-.13 2.06-.16 3.12v4.04-.11.07q0 1.58.08 3.21v.53q.08 1.62.21 3.29v.55q.14 1.68.33 3.4l.06.55q.2 1.74.46 3.53l.08.5q.27 1.83.6 3.7l.08.41q.35 1.93.75 3.91l.06.26q.43 2.07.92 4.18c-.06-.77-.11-1.53-.16-2.28-.21-.33-.22-.52-.23-.71ZM520.92 564a381.81 381.81 0 0 1-19.13-33.5c-7.9-15.55-21.33-35.05-35.06-50.9-16.9-19.51-26.76-25-29.86-25.29-.43 1.06-1.49 5.33 1.58 18.14s1.87 8.9 2.22 11.35c2.06 14.29 6.81 48.9 7.08 65.17 2 33.88-2.54 74-23.55 114.53 2 2.49 4.07 5 6.22 7.42l.48.55c5.49 6.27 13 14.86 23 14.86 11.47 0 31.25-11.44 60.36-65.93l6.55-12.27a439.56 439.56 0 0 0 .11-44.13ZM654 483.79c-1-7.4-2.39-14.74-4-22.18a36.89 36.89 0 0 0-5.3-12.61c-15.19-20.32-26.36-27.88-32.15-27.88a4.59 4.59 0 0 0-3.61 1.62c-1.68 1.81-5.18 7.66-4.8 24.43.3 5 .44 7.42.51 8.54 0 .26 0 .54.05.85.25 4.89.11 16.58-3.73 39.22-.29 2-.66 4-1.11 6.1a89.29 89.29 0 0 1-5.61 17.2c6.08 7.8 11.6 14.59 16.66 20.31 11.17 12.63 19.37 19 24.37 19 .94 0 3.44 0 6.61-5.71 2.9-5.21 5.49-13.77 7.7-25.46 0 0 3-10.5 4.65-30.53a84.14 84.14 0 0 0-.24-12.9Z" style="fill:#fff"/>
</svg>
