<svg xmlns="http://www.w3.org/2000/svg" viewBox="0 0 1024 1024">
   <circle cx="512" cy="512" r="512" style="fill:#ed1c24"/>
   <path d="M632 446.94c.72 7.95-.72 15.18-4.34 20.96-29.64 51.33-59.28 103.37-88.92 154.7-5.78 9.4-13.74 15.18-24.58 15.9-12.29.72-21.69-4.34-28.19-15.18-18.8-32.53-37.59-65.06-55.66-96.87-11.57-19.52-22.41-39.04-33.98-59.28-11.57-20.24 1.45-44.1 24.58-45.54 12.29-.72 21.69 5.06 27.47 15.18 8.68 14.46 16.63 28.92 24.58 43.37 5.78 10.12 11.57 20.96 18.07 31.08 8.67 15.18 21.69 23.13 39.04 24.58 24.58 1.45 47.71-16.63 50.6-42.65 0-2.17.72-3.61.72-5.06 0-8.67-1.45-15.9-5.06-22.41-9.4-18.07.72-39.04 20.24-43.37 15.9-3.61 33.25 8.67 35.42 24.58ZM752 512c0 104.82 0 163.37-38.31 201.69C675.38 752 616.82 752 512 752s-163.37 0-201.69-38.31C272 675.38 272 616.82 272 512s0-163.37 38.31-201.69C348.62 272 407.18 272 512 272s163.37 0 201.69 38.31C752 348.62 752 407.18 752 512ZM638.51 385.49c-70.12-70.12-183.61-70.12-253.73 0-70.12 70.12-70.12 184.34 0 254.46s183.61 70.12 253.73 0c70.12-70.84 70.12-184.34 0-254.46Z" style="fill:#fff"/>
</svg>
