<svg xmlns="http://www.w3.org/2000/svg" viewBox="0 0 1024 1024">
   <circle cx="512" cy="512" r="512" style="fill:#ed1c24"/>
   <path d="M640 442.62c.77 8.48-.77 16.19-4.63 22.35-31.62 54.74-63.23 110.23-94.85 164.97-6.17 10.02-14.66 16.19-26.22 16.96-13.11.77-23.14-4.63-30.07-16.19-20.05-34.69-40.1-69.38-59.37-103.3-12.34-20.82-23.9-41.63-36.25-63.21-12.34-21.58 1.55-47.03 26.22-48.56 13.11-.77 23.14 5.4 29.3 16.19 9.26 15.42 17.74 30.84 26.22 46.25 6.17 10.79 12.34 22.35 19.27 33.14 9.25 16.19 23.14 24.67 41.64 26.21 26.22 1.55 50.89-17.73 53.97-45.48 0-2.31.77-3.85.77-5.4 0-9.25-1.55-16.96-5.4-23.9-10.03-19.27.77-41.63 21.59-46.25 16.96-3.85 35.47 9.25 37.78 26.21h.01ZM768 512c0 111.78 0 174.21-40.86 215.08-40.86 40.85-103.33 40.85-215.14 40.85s-174.26 0-215.14-40.85C256 686.23 256 623.78 256 512s0-174.21 40.86-215.08c40.86-40.85 103.33-40.85 215.14-40.85s174.26 0 215.14 40.85C768 337.77 768 400.22 768 512ZM646.94 377.09c-74.79-74.77-195.85-74.77-270.65 0-74.79 74.77-74.79 196.57 0 271.35 74.79 74.77 195.85 74.77 270.65 0 74.79-75.54 74.79-196.57 0-271.35Z" style="fill:#fff"/>
</svg>
