<svg xmlns="http://www.w3.org/2000/svg" viewBox="0 0 1024 1024">
   <circle cx="512" cy="512" r="512" style="fill:#10447e"/>
   <path d="M480.91 753.2c-129.95-47.35-196.57-190.51-149.22-320.46 47.35-129.95 190.51-196.57 320.46-149.22 4.96 1.65 9.91 3.85 14.32 5.51l14.87-41.3c-4.96-2.2-9.36-3.85-14.32-5.51-152.52-56.16-321.56 22.58-377.17 175.65-55.61 153.07 23.13 321.56 175.65 377.17 4.96 1.65 9.91 3.3 14.87 4.96l14.87-41.3c-4.4-2.2-9.36-3.85-14.32-5.51Zm-32.49-94.16c-77.64-65.52-88.1-181.15-22.58-258.79 65.52-77.64 181.15-88.1 258.79-22.58 3.85 3.3 7.71 6.61 11.56 10.46l28.63-34.14c-3.85-3.3-7.71-7.16-11.56-10.46-96.91-80.94-240.62-68.28-321.56 28.08s-68.28 240.07 28.08 321.01c3.85 3.3 8.26 6.61 12.11 9.36l28.63-34.14c-4.4-2.2-8.26-5.51-12.11-8.81Zm58.92-39.09c-56.16-32.49-75.43-104.07-42.95-160.78 1.65-3.3 3.85-6.06 5.51-8.81l-38.54-22.02c-1.65 2.75-3.85 6.06-5.51 8.81-44.6 77.64-18.17 176.2 59.47 220.8 2.75 1.65 6.06 3.3 9.36 4.96l22.02-38.54c-2.75-1.1-6.06-2.2-9.36-4.4Z" style="fill:#fff"/>
</svg>
