<svg xmlns="http://www.w3.org/2000/svg" viewBox="0 0 1024 1024">
   <circle cx="512" cy="512" r="512" style="fill:#004db4"/>
   <path d="M562.91 465.12V339.93c36.53 2.4 64.08 22.17 64.08 46.12.01 25.16-17.99 52.12-64.08 79.07Zm59.27 10.78c-12.56 0-24 4.81-59.27 30v135.33c61.13-68.29 78.5-115 78.5-139 0-16.72-7.85-26.33-19.22-26.33ZM740.86 391c0 172.55-89.87 322.33-224.06 411.59A11.87 11.87 0 0 1 512 805a11.84 11.84 0 0 1-4.81-2.4C373 713.33 283.14 563.56 283.14 391a308.77 308.77 0 0 1 5.38-58.11c.61-2.4 1.2-3.3 2.4-3.6L334 317.92l6-24.58c.3-1.19.61-2.08 1.81-2.39l44.33-11.9 5.4-23.45a3.2 3.2 0 0 1 2.39-3l115.17-21.35a16.25 16.25 0 0 1 5.7 0L630 252.69a3.28 3.28 0 0 1 2.39 3l5.4 23.37L682.15 291c1.2.3 1.51 1.2 1.79 2.39l6 24.58 43.14 11.37c1.2.3 1.79 1.2 2.39 3.6a307.44 307.44 0 0 1 5.39 58.06ZM495.29 723.2h-.06V302.16a1.6 1.6 0 0 0-1.81-1.79 237 237 0 0 0-29.94 5.38c-2.4.59-3 1.79-3 4.2l1.22 215c0 27 0 49.12 1.2 74.29 0 1.79-1.81 2.39-2.4.59-22.16-68.83-32.35-155.12-30.56-279.71 0-2.39-.59-3-3.59-1.79a209.6 209.6 0 0 0-28.84 15c-1.79 1.2-2.39 2.39-2.39 5.38-1.79 85.66 5.38 159.93 18 215.63l-6.58 4.2c-2.4 1.79-4.2 1.79-6-1.79-20.89-46.71-34.08-118-34.08-194.66 0-3-1.79-4.2-3.59-2.4a287.45 287.45 0 0 0-26.35 27.55 10.7 10.7 0 0 0-3 7.79c1.79 62.29 21.56 150.94 52.1 204.85 3.6 6.58 8.39 8.38 14.42 4.2l22.76-14.42c15 50.32 37.13 96.44 70.07 134.17 1.22 1.17 2.42.57 2.42-.63Zm182.62-227.58c0-26.35-10.17-46.12-36.54-53.3a81.37 81.37 0 0 0 21-54.47c0-48.51-51.51-82.06-131.77-87.44a1.6 1.6 0 0 0-1.81 1.79v421c0 1.2 1.2 1.79 2.4.59 112.58-104.1 146.72-181.44 146.72-228.17Z" style="fill:#fff"/>
</svg>
