<svg xmlns="http://www.w3.org/2000/svg" viewBox="0 0 1024 1024">
   <circle cx="512" cy="512" r="512" style="fill:#fcb216"/>
   <path d="M670.3 351.5v4.3c12.3 2.9 23.1 10.3 30.4 20.7 7.5 13.1 11.1 28.1 10.3 43.2 0 19.8-3 39.6-9 58.5-7 22.1-15.8 43.6-26.2 64.3l-12.2 26.8-60.1-145.9c-2.9-6.9-5.4-14.1-7.4-21.4-1.6-5.6-2.5-11.3-2.9-17-.3-7.3 2.3-14.4 7.2-19.8s11.8-8.5 19.1-8.8v-4.3H438.3v4.3c6.2 1.1 12.1 3.2 17.7 6.1 5.7 3.8 10.4 8.8 14 14.6 6.3 9.8 11.6 20.2 16.1 31l28.3 67.5-51.1 101.1L387.1 400c-2-3.5-3.6-7.2-4.8-11.1-.6-2.8-1-5.6-1.1-8.5 0-5.4 1.9-10.6 5.5-14.6 4.4-4.7 9.9-8.3 16.1-10.3v-4H217.9v4.3c15 4.6 28.6 12.9 39.5 24.3 14.3 16.4 26 35 34.7 54.9l117 259.9h4.8l105.4-208.8L609.4 695h4.8l107.2-231.3c11.4-26.3 25.7-51.3 42.7-74.4 11.1-14.5 25.5-26.1 41.9-34.1V351H670.3v.5z" style="fill:#fff"/>
</svg>
