<svg xmlns="http://www.w3.org/2000/svg" viewBox="0 0 1024 1024">
   <circle cx="512" cy="512" r="512" style="fill:#ea2c00"/>
   <path d="M311.16 645.16 228.5 378.81h76.96l48.79 191.49 53.05-191.49h77.19l53.02 191.49 48.79-191.49h76.94L579.6 645.16h-82l-51.7-192.3-52.74 192.3h-82Zm484.34-41.65c0-24.7-20.02-44.72-44.72-44.72s-44.72 20.02-44.72 44.72 20.02 44.72 44.72 44.72 44.72-20.02 44.72-44.72Zm0-183.03c0-24.7-20.02-44.72-44.72-44.72s-44.72 20.02-44.72 44.72 20.02 44.72 44.72 44.72 44.72-20.02 44.72-44.72Z" style="fill:#fff"/>
</svg>
