<svg xmlns="http://www.w3.org/2000/svg" viewBox="0 0 1024 1024">
   <circle cx="512" cy="512" r="512" style="fill:#ff6c2c"/>
   <path d="M455.35 431.36 422.36 553.7a68.872 68.872 0 0 1-9.16 20.28c-4.01 6.06-9 11.4-14.78 15.81a68.534 68.534 0 0 1-19.13 10.19 66.64 66.64 0 0 1-21.99 3.67H176.54l46.05-172.97c.72-2.98 2.46-5.62 4.93-7.45 2.46-1.89 5.49-2.9 8.59-2.86h24.51a8.414 8.414 0 0 1 6.99 3.44 8.223 8.223 0 0 1 1.53 7.56l-34.17 127.38h46.51l34.36-128.07c.72-2.98 2.46-5.62 4.93-7.45 2.39-1.86 5.33-2.87 8.36-2.86h24.74c2.72-.09 5.31 1.2 6.87 3.44a8.401 8.401 0 0 1 1.37 7.56l-34.14 127.38h27.95c5.34.05 10.54-1.68 14.78-4.93 4.28-3.18 7.32-7.76 8.59-12.94l29.55-110.2c.72-2.98 2.46-5.62 4.93-7.45 2.46-1.89 5.49-2.9 8.59-2.86h24.51a8.414 8.414 0 0 1 6.99 3.44 8.218 8.218 0 0 1 1.49 7.56Zm31.84 103.09-15.81 58.88c-.72 2.98-2.46 5.62-4.93 7.45-2.46 1.89-5.49 2.9-8.59 2.86h-24.51a8.14 8.14 0 0 1-6.76-3.44 7.84 7.84 0 0 1-1.49-7.33l43.3-162.2c.72-2.98 2.46-5.62 4.93-7.45 2.46-1.89 5.49-2.9 8.59-2.86h35.51l-18.1 69.19h57.27l15.81-58.88c.71-2.98 2.46-5.62 4.93-7.45 2.39-1.87 5.33-2.87 8.36-2.86h35.97l-46.51 172.97c-.72 2.98-2.46 5.62-4.93 7.45a13.537 13.537 0 0 1-8.36 2.86h-24.74c-2.72.09-5.31-1.2-6.87-3.44a7.93 7.93 0 0 1-1.37-7.33l15.58-58.42H487.2Zm101.49 58.19 46.28-172.28h144.79a65.18 65.18 0 0 1 30.62 7.22 68.024 68.024 0 0 1 35.58 46.39 64.525 64.525 0 0 1-.91 31.39l-23.6 87.97c-.72 2.98-2.46 5.62-4.93 7.45-2.46 1.89-5.49 2.9-8.59 2.86h-24.51a8.35 8.35 0 0 1-6.99-3.44 8.195 8.195 0 0 1-1.53-7.56l25.01-92.56c2.07-8.32.26-17.12-4.93-23.94a28.516 28.516 0 0 0-9.39-7.9 26.325 26.325 0 0 0-12.49-2.98h-10.54l-34.36 128.07c-.72 2.98-2.46 5.62-4.93 7.45a13.537 13.537 0 0 1-8.36 2.86h-24.75c-2.72.09-5.31-1.2-6.87-3.44a8.342 8.342 0 0 1-1.37-7.56l34.14-127.38h-46.51l-34.36 128.07c-.71 2.98-2.45 5.62-4.92 7.45-2.46 1.89-5.49 2.9-8.59 2.86h-24.51a8.35 8.35 0 0 1-6.99-3.44 8.158 8.158 0 0 1-1.49-7.56Z" style="fill:#fff"/>
</svg>
