<svg xmlns="http://www.w3.org/2000/svg" viewBox="0 0 1024 1024">
   <circle cx="512" cy="512" r="512" style="fill:#7abf42"/>
   <path d="M128 437.39h27.64l34.68 108.78 35.19-109.29H248l35.32 109.29L318 437.39h26.8L297.57 585.2H271l-34.6-105.45-32.76 105.45h-27.39Zm229.34 146.79h25.08v-61.94h64v61.94h25.08V437.39h-25.09v61h-64v-61h-25.07Zm131.31 0h25.59v-108.4l46.46 65.27L606 475.4v108.78h27.26V437.39h-30.08l-42.87 61.17-42.75-61.17h-28.92ZM763.41 463l4.38-13.71c-.6-.05-1.21-.09-1.82-.09a20 20 0 0 0-13.49 5.21q-.36.32-.7.67a20.24 20.24 0 0 0-2.45 3 20.09 20.09 0 0 0 0 22.44 20.24 20.24 0 0 0 2.45 3q.34.34.7.67A20 20 0 0 0 785.31 464l-16.4 4.53a55.86 55.86 0 0 0-5.5-5.53ZM753 532.22a38 38 0 1 1-43.38-58.4l.23-8.66.09-3.35 3.23-.88 9.56-2.59-7.53-7.23-2.63-2.52 1.92-3.09 5-8.06 1.76-2.84 3.22.86 7 1.86-1.9-7.75-14.57-.25-5 19.2a62.73 62.73 0 0 0-8 2.18l-13.69-14.21-12.8 7 5.37 19.71a67.54 67.54 0 0 0-5.25 5.25l-19.45-5.37-7.68 12.41 14.72 14.33a48.5 48.5 0 0 0-1.92 7.42l-19.07 5.37-.38 14.59 19.58 5.25a53.9 53.9 0 0 0 2.18 7.81l-15 12.93 6.91 12.8 20.22-5.5a45.79 45.79 0 0 0 5 5L676 575.73l12.41 7 14.72-14.33a58.74 58.74 0 0 0 6.78 1.79l4.74 19.84h14.59l4.86-19.84a78.13 78.13 0 0 0 7.81-2l13.44 14.46 12.93-7.17-5.37-19.2a60 60 0 0 0 5.76-5.63l18.81 5.63 7.42-12.54-11.77-11.52Zm66.45-83.14-2.64 2.39-7.36 6.66.18.66 10.37 2.65 3.38.87v6.32c3.64-5.1 11.57-9.62 27.5-9.62a55.42 55.42 0 0 1 35.58 12.54v-26.48s-20.6-9.85-39.29-9.85c-9 0-21.34 1-31.66 6.56l2.32 4.19Zm32.22 47.82c-23.63-6.28-29.84-10.83-30.91-17.45l-1 .22-10 2.18 6.44 6.35 2.51 2.47-1.8 3-4.86 8.19-1.8 3-3.38-1-3.6-1.1c18.72 22.39 65.44 14.47 65.44 41.07 0 13.44-12.8 17.92-31.1 17.66-20.22-.26-42-14.85-42-14.85v27.56a108.13 108.13 0 0 0 47.1 12.16c25 0 53.24-12.29 53.24-41.34s-17.74-41.08-44.23-48.12Zm-128.31-57.08 9.39 2.49 3.15.84a40.76 40.76 0 0 1 3.33-3.33L735.9 427l8.32-4.48 9 9.21a35.22 35.22 0 0 1 5.25-1.41l3.33-12.42 9.47.26 2.94 12.29c1.66.38 3.33.77 5 1.28l9.6-8.83 8.19 4.86-3.84 12a47.07 47.07 0 0 1 3.58 3.58l12.54-3.58 2.38 4.3 2.23 4-9.47 8.57a48.25 48.25 0 0 1 1.54 5.76l12.92 3.33v9.47l-13.63 3a26.42 26.42 0 0 1-1.21 4.15l9.09 9-4.86 8.19-8.78-2.68-3.38-1a50.92 50.92 0 0 1-3.71 3.71l3.26 12.44-8.19 4.74-8.7-9.34c-1.66.51-3.33 1-5.12 1.41l-3.2 12.93H761l-3-12.94a28.76 28.76 0 0 1-4.48-1.15l-9.43 9.35-8.09-4.49 3.07-13.05a41 41 0 0 1-3.33-3.33l-13.05 3.58-4.22-8.06 9.73-8.45a33.62 33.62 0 0 1-1.41-5.12l-12.67-3.33.06-2.26.19-7.21 12.31-3.28a34 34 0 0 1 1.32-4.9l-9.6-9.21Zm45.83 5.08a24.76 24.76 0 0 0-3.22-.22 24.48 24.48 0 0 0-16.52 6.38q-.44.4-.85.81a24.56 24.56 0 0 0 0 34.75q.42.42.85.81a24.57 24.57 0 0 0 41.09-18.19 24.85 24.85 0 0 0-.13-2.52 24.58 24.58 0 0 0-21.22-21.82Z" style="fill:#fff"/>
</svg>
