<svg xmlns="http://www.w3.org/2000/svg" viewBox="0 0 1024 1024">
   <circle cx="512" cy="512" r="512" style="fill:#0e2546"/>
   <path d="M190 440.19c21-7.52 25 3.87 31.51 19.54 9.68 22.84 24.07 84.88 28.34 106.45 0 .88 10.65 47.92 12 52.8 2 7 4.14 2.16 5.9-5.06s10.74-57.21 15.93-80.13a712.87 712.87 0 0 1 20.59-74.1 67 67 0 0 1 9.55-19.58 23.81 23.81 0 0 1 18.09-9.81c8.8-.44 15.62 3.65 20.81 12.72s8.8 23.06 11.84 42.33c1.89 12.32 10.16 60.11 17.6 81.23 2 5.76 4.88 9.11 7.88 1.19s20.9-83.61 31.59-123.21c9.81-36.39 21.61-68.73 34.41-86.12 7.83-10.65 16.72-15.53 25.13-16.28a20.77 20.77 0 0 1 17.6 5.68c3.08 4.4.79 10.34-6.73 22.49A262.44 262.44 0 0 0 469.25 421c-5.85 15.8-10.56 31.11-15.93 47.92-12.06 37.49-27.46 111.07-42.68 147.72-5.19 12.45-12 18.31-20.29 21.47s-17.87 1.58-25.39-12.19c-12.54-22.93-21.12-57.21-27.24-82.38a873.508 873.508 0 0 0-7.08-27.59c-1.58-5.81-4.4-5.63-6.34 3.43-.66 2.82-14.35 66.58-21 98.13-1 4.75-10.91 48.4-21.65 61.3a22.31 22.31 0 0 1-18 7.44 23.45 23.45 0 0 1-15.93-6.47c-14.08-13.2-24.38-47.66-31.95-78.06-10.65-42.6-22.57-81.58-37.8-125-5.44-15.72-8.35-29.36 12.03-36.53ZM835.63 492c-4.4 6.12-6.82 10.21-9.77 14.65-1.94 2.9-5.41 6.73-5-6.29.88-30.36 8.8-46.73 9.86-61.08.53-8.14-5.06-13.64-12.15-16.9s-35.2-13.2-57.69 10a105.83 105.83 0 0 0-22.75 40.4 387.24 387.24 0 0 0-27.28 61.61l7.15-71.94c0-4.4 2.38-15.14-5.46-18.22-18.79-7.26-24.47 7.83-24.47 7.83-1.32 1.89-20.81 45.85-33.18 67.72.75-5.24 6.47-49.2 5.72-58.57a11.66 11.66 0 0 0-12.32-11c-7.7-.62-11.4.53-14 4.4-4.4 5.76-23.15 47.57-23.15 47.57s-2.33-23.85-2.77-30.23c-.26-4.4-1.58-10.38-9.2-11.13-8.32-.84-13.2 2.82-14.83 8.18-6.25 16.68-10.56 31.59-18 51.79-.88 2.33-12.15 25.92-15.27 32.65-4.4 8.8-4 .66-4-15.23 0-9.77 1.45-35.73 1.45-35.73s7.39-9.81 16.81-25.08c31.86-51.35 41.23-86.56 43-113.71a77.84 77.84 0 0 0-1.54-28.29c-3-12-11.22-15.71-22.22-15.71a27.72 27.72 0 0 0-19.85 8.8 146.18 146.18 0 0 0-22.49 39.6c-8.32 21.25-18.39 63.45-23.1 90.78-3.48 20.46-5.68 43.52-5.68 43.52a37.93 37.93 0 0 1-.62 5.54c-19.93 41-27.94 56.37-35.2 70.41-4.4 9.06-5.28-1.28-4.8-10.16 3.08-54.17 15-79.21 17.6-90.43 1.58-6.73 2.29-11.13-6.73-15.62-5.94-2.95-14.65-4.4-18.7 5.54a250 250 0 0 0-10.52 33.8c-3.12 15.14-5.94 19.45-9.11 49.81a83 83 0 0 0 6.29 43.74c6.38 11.62 23.76 13.2 33.4 0 5.62-7.68 27.94-50.32 27.94-50.32s1.06 9.81 1.72 14.57a58 58 0 0 0 8.8 24.73c8.8 13.55 26.67 4.8 31.64-1.19a101.6 101.6 0 0 0 13.95-22.4 311.68 311.68 0 0 0 15.53-39s0 33.53 1.19 41.41c2.38 13.29 8 16.59 10.6 16.59 8.8.66 14.35-1.54 20.11-17.6 4-11.31 17.21-49.72 17.21-49.72s-.53 38.42 0 47.26c.57 8.14 2.29 14.74 11 15.4 10.6.79 14.74-6.91 17.6-13.82s28.12-63.1 28.12-63.1-2.46 51.7-2.33 56.28c.22 9.28 6.47 14.92 11.31 15.23a15.67 15.67 0 0 0 15.84-7.79c4.93-7.61 7.83-17.6 12.67-28.65-1.14 33.93 20.46 32.43 27.55 31.9 21.69-1.5 33.44-35.2 36.13-39.6s2.42 1 2.2 3c-1.94 17.16 4.4 20.29 8.1 21.65 9.42 2.9 18.79-4.09 23.41-12.32 0 0 22-35.56 24.64-44.58.6-2.2-8.69-8.89-14.36-.95Zm-274.37-85.17a231.81 231.81 0 0 1 17.6-56.28c10.34-23.76 14-18.31 13.2-5.37-1.54 22-3.61 39.6-18.75 75.6a327.57 327.57 0 0 1-19.63 39.78c1.68-18.66 4.15-34.89 7.58-53.73ZM807.95 443c-1 2.33-6.29 9-11.44 19.49-1.63 2.86-17.25 38.42-21.17 47.79a111.15 111.15 0 0 1-14.21 27c-2.9 2.33-5.76 1.72-5.94-3.7A155.29 155.29 0 0 1 764 479c17.63-49 46.76-42 43.95-36Zm-317.71-22a14.3 14.3 0 1 0 14.3 14.3 14.26 14.26 0 0 0-14.3-14Z" style="fill:#fff"/>
</svg>
