<svg xmlns="http://www.w3.org/2000/svg" viewBox="0 0 1024 1024">
   <circle cx="512" cy="512" r="512"/>
   <path d="M548.9 416.2c7.8-4.1 21.8-3.7 21.8-3.7 0 13.6-1.3 21.7-9.9 28-2.7 2-7.5 5.1-13 7.1-7.6 2.8-12.8 7.7-12.8 7.7 0-24.8 3.8-33.8 13.9-39.1m-60.1 5.8c-8.3 7.3-10.7 18.9-10.7 18.9L450.7 547l-22.8-86.9c-2.2-9.2-6.2-20.7-12.5-28.4-8.1-9.8-24.5-10.5-26.2-10.5-1.7 0-18.1.6-26.2 10.5-6.3 7.7-10.3 19.1-12.5 28.4L327.6 547l-27.4-106.1s-2.4-11.6-10.7-18.9c-13.4-11.8-33.5-9.3-33.5-9.3L308.4 611s17.3 1.2 26-3.2c11.4-5.8 16.8-10.3 23.7-37.3 6.1-24.1 23.3-94.7 24.9-99.8.8-2.5 1.8-8.4 6.2-8.4 4.5 0 5.4 5.9 6.2 8.4 1.6 5 18.8 75.7 24.9 99.8 6.9 27 12.3 31.5 23.7 37.3 8.7 4.4 26 3.2 26 3.2l52.5-198.4c-.2.1-20.3-2.5-33.7 9.4m81.9 23.1s-3.3 5.1-10.8 9.3c-4.8 2.7-9.4 4.5-14.4 6.9-8.3 4-10.5 8.4-10.5 15.2V611s13.2 1.7 21.9-2.7c11.1-5.7 13.7-11.2 13.8-35.8V445.1zm130.8 67.2 66.6-99s-28.1-4.8-42 7.9c-8.9 8.1-18.9 22.7-18.9 22.7l-24.5 35.3c-1.2 1.8-2.7 3.8-5.2 3.8s-4-2-5.2-3.8l-24.5-35.3s-10-14.6-18.9-22.7c-13.9-12.7-42-7.9-42-7.9l66.6 99L587 611s29.3 3.7 43.2-9c8.9-8.1 17.5-21.3 17.5-21.3l24.5-35.3c1.2-1.8 2.7-3.8 5.2-3.8s4 2 5.2 3.8l24.5 35.3s9.1 13.2 18 21.3c13.9 12.7 42.7 9 42.7 9l-66.3-98.7z" style="fill:#fff"/>
</svg>
