<svg xmlns="http://www.w3.org/2000/svg" viewBox="0 0 1024 1024">
   <circle cx="512" cy="512" r="512" style="fill:#23282d"/>
   <path d="M512 271.36a239.45 239.45 0 0 1 134.53 41.09 241.38 241.38 0 0 1 87.2 105.89 240.31 240.31 0 0 1-22.18 228.2 241.38 241.38 0 0 1-105.89 87.2 240.31 240.31 0 0 1-228.2-22.18 241.38 241.38 0 0 1-87.2-105.89 240.31 240.31 0 0 1 22.18-228.2 241.38 241.38 0 0 1 105.89-87.2A239.12 239.12 0 0 1 512 271.36m0-15.36c-141.39 0-256 114.61-256 256s114.61 256 256 256 256-114.62 256-256-114.61-256-256-256M298.67 512A213.35 213.35 0 0 0 418.9 704L317.14 425.17A212.5 212.5 0 0 0 298.67 512M656 501.23c0-26.37-9.47-44.63-17.59-58.83-10.82-17.58-21-32.45-21-50 0-19.61 14.87-37.86 35.82-37.86.95 0 1.84.11 2.76.17a213.29 213.29 0 0 0-322.31 40.14c5 .16 9.73.26 13.73.26 22.31 0 56.86-2.71 56.86-2.71 11.49-.67 12.85 16.22 1.36 17.58 0 0-11.56 1.35-24.41 2L459 643.05l46.69-140L472.43 412c-11.49-.67-22.37-2-22.37-2-11.5-.68-10.15-18.25 1.35-17.58 0 0 35.22 2.71 56.18 2.71 22.31 0 56.86-2.71 56.86-2.71 11.5-.67 12.85 16.22 1.36 17.58 0 0-11.57 1.35-24.41 2l77.1 229.32 22-69.74c9.78-30.48 15.51-52.07 15.51-70.32m-140.26 29.39-64 186a213.43 213.43 0 0 0 131.12-3.4 19.44 19.44 0 0 1-1.53-2.94Zm183.46-121a163.8 163.8 0 0 1 1.43 21.93c0 21.64-4.05 46-16.23 76.41l-65.15 188.39a213.36 213.36 0 0 0 79.95-286.73" style="fill:#fff"/>
</svg>
