<svg xmlns="http://www.w3.org/2000/svg" viewBox="0 0 1024 1024">
   <circle cx="512" cy="512" r="512"/>
   <path d="M750.32 786.9q-1.16-1.43-2.38-2.82a439.45 439.45 0 0 1-45.71-61.6c-25.44-41.42-47.15-84.74-66.12-129.38-12.46-29.35-24.63-58.8-36.79-88.28Q588.7 479 578 453.26l-1.9-4.63 1-.22a11.14 11.14 0 0 1 1.73-.31c2.08-.15 4.18-.26 6.27-.37 4-.24 8-.48 12-.88a40.23 40.23 0 0 0 9.59-2.06c3.1-1.14 3.56-4 1.36-6.47a19.46 19.46 0 0 0-3.67-3.12c-8.11-5.49-17.14-7-26.75-6-2.08.22-4.13.55-6.18.87l-2.75.42-.06-.11-.09-.15a2.61 2.61 0 0 1-.18-.33Q554 395 539.7 360.19a12.2 12.2 0 0 1-.55-2l-.26-1 3.43-.7c2.4-.5 4.68-1 6.95-1.47 1.2-.28 2.41-.53 3.63-.77a53.39 53.39 0 0 0 9.77-2.67c3.24-1.36 6.4-1.47 9.66-1.6h.74c1.22-.06 1.79.5 2.3 1.7a22 22 0 0 0 3.41 6 6.23 6.23 0 0 0 9.33.13 11.36 11.36 0 0 0 2.58-4.2 24.16 24.16 0 0 0-2-20.24c-2.65-4.7-6.45-7.32-12.22-6.56-4.52.59-9 1.14-13.55 1.7-6.49.79-13 1.59-19.45 2.53-3.39.48-6.73 1.29-10.12 2.12-1.57.37-3.15.76-4.77 1.11l-.15-.28-.87-1.66c-11.41-23.59-25.09-45.75-42.21-65.73-3.59-4.22-5.77-8.33-5.47-14.12.37-7.39-5.07-14.16-11.8-16.22-4.53-1.38-8.66-.63-11.83 2.89-4.41 4.9-6.51 10.88-4.88 17.2a99 99 0 0 0 6.8 18.51c10.34 21.46 22.58 41.92 34.8 62.38l.63 1 .46.77.92 1.53-.92.29-.74.26-11.91 3.37c-9 2.53-17.92 5.05-26.82 7.74-8 2.43-15.94 5-23.89 7.52q-10.62 3.4-21.27 6.71c-9.68 2.95-19.58 4.2-29.68 2.25q-2.43-.48-4.85-1c-3.13-.65-6.25-1.29-9.4-1.81a7.22 7.22 0 0 0-2.95.41l-1.36.33c.18.42.33.88.48 1.35a6.87 6.87 0 0 0 1.29 2.65 110.38 110.38 0 0 0 10.25 9.88c7.47 6 16.17 9.31 25.81 8.35a76.3 76.3 0 0 0 17.6-4.07c7.78-2.76 15.47-5.71 23.15-8.68 5.27-2 10.56-4.07 15.85-6 15.19-5.62 30.58-10.64 46.58-13.53h.11c2.76-.52 2.76-.52 4.39 2.86l-.24.2a6.68 6.68 0 0 1-.65.55 524.66 524.66 0 0 0-55.12 47.78q-51 50.47-101.53 101.35c-16.09 16.22-34.34 29-55.78 37.23l-3.67 1.38q-6.58 2.36-12.92 5.35c-6 2.91-5.84 6.38-.31 10 8 5.33 16.46 5.42 25.27 2.36 9.92-3.45 18.8-8.81 27.63-14.36l2.64-1.66c6.45-4.06 12.9-8.11 19.58-11.74 13.49-7.32 27.65-13.22 41.81-19.12 3.82-1.59 7.63-3.17 11.43-4.79a1.53 1.53 0 0 1 .61-.07h.52l-.79 1.23-.52.83-3.66 5.57c-2.86 4.46-5.71 8.88-8.48 13.36-15.91 25.81-29.12 52.79-35.82 82.51l-.83 3.58a134.18 134.18 0 0 0-3.32 18c-1.29 14.19 4.31 26.14 14 36.37 8.85 9.38 19.61 13.66 32.63 12.33a71.37 71.37 0 0 0 30.38-10.53l5.24-3.23c3.39-2.1 6.78-4.2 10.19-6.27 26.36-15.74 54-29 82-41.57l1.88-.85c8.66-3.91 17.33-7.82 26-11.87a32.08 32.08 0 0 0 11.41-8.41c3.52-4.33 3.45-9.44-.52-13.35a27 27 0 0 0-6.95-5c-9.82-4.79-19.72-9.44-29.64-14.08l-6-2.82c-1.66-.79-3.35-1.51-5.12-2.27l-2.67-1.14c18-16 32.44-34.21 41.35-56.74l.37.87q1.18 3.21 2.34 6.43c1.16 3.32 2.34 6.6 3.54 9.9 12.29 33.6 26 66.64 42.45 98.51 17.38 33.7 37.12 65.94 61.47 95.24a310.35 310.35 0 0 0 47.1 46.1c10.6 8.29 22.19 15 34.18 21.09a7.43 7.43 0 0 0 2 .53c.42.07.92.17 1.46.29ZM405.58 495.52q-23.23 10.2-46.64 20.29l.46-.63a4.64 4.64 0 0 1 .52-.68l20.22-20.94Q406.47 466.19 433 439c8.92-9.12 18.29-17.92 27.89-26.32 11.52-10.08 23.26-19.87 35-29.68l9.22-7.69a56.22 56.22 0 0 1 5.16-3.74q1.3-.87 2.58-1.76c7 18 12.46 36.33 18 54.77q2.54 8.54 5.16 17.14c-44.31 16.02-87.29 34.87-130.43 53.8ZM552 499c-5.38 15.56-14.75 28.59-26.18 40.33a170.92 170.92 0 0 1-23.65 19.93 3 3 0 0 1-3.13.41l-5.27-1.94c-5.49-2-11-4.06-16.53-5.79-11-3.45-21.51-2-31.47 3.74-5.9 3.39-11.58 7-16 12.28-9.47 11.1-5.35 24.09 1.86 31.71 4.42 4.66 10.43 5.82 16.7 5.64 6-.17 11.48-2.12 16.74-4.79a232.13 232.13 0 0 0 42.58-27.65 2.57 2.57 0 0 1 3.34-.42l10.51 5.25c4.55 2.25 9.11 4.52 13.6 6.82a30.61 30.61 0 0 1 6.76 4.65c3.59 3.32 3.58 7.32-.31 10.27a66.91 66.91 0 0 1-11.94 7.35c-6.23 2.89-12.53 5.64-18.86 8.41a997.49 997.49 0 0 0-14.27 6.29c-26 11.8-50.93 25.71-75.85 39.63l-1.7 1c-5.57 3.1-11.34 5.53-17.79 6-17.88 1.35-28.11-12-29.79-24.59-.77-5.81.48-11.35 1.73-16.88l.33-1.47c4.68-21 10.78-41.64 20.22-61.11 5.12-10.53 10.69-20.88 16.39-31.15 8.17-14.65 20.53-25.16 35.06-33.35 12.94-7.28 26.54-13.16 40.28-18.82l7.41-3.13c2.89-1.25 5.79-2.49 8.72-3.69l3-1.14c7.24-2.73 25.46-9.62 33.94-13.25.48-.18 1-.37 1.47-.53.29-.09.63-.18 1-.31l3.94 13 3.91 12.85c.37 1.23.77 2.47 1.16 3.69.74 2.4 1.51 4.79 2.16 7.19A6.41 6.41 0 0 1 552 499Zm-59.5 67-4 2.36c-2.82 1.66-5.62 3.32-8.48 4.9q-9.48 5.25-19.08 10.36c-5.55 2.93-11.34 5.24-17.79 5.22-7.93 0-11-3.76-8.33-11.89.85-2.62 3-5 5.11-7a74.91 74.91 0 0 1 8.15-6.23l1.12-.77a23.71 23.71 0 0 1 16.8-4.22c9.16 1 17.81 3.76 26.41 6.71Zm132.77-165.92a9.86 9.86 0 0 1-2.93-1c-2.3-1.18-2.76-3.3-.68-4.85a20 20 0 0 1 6.4-3.08c5.59-1.66 11.32-2.82 16.88-4.52a125.9 125.9 0 0 0 14.21-5.24 22.59 22.59 0 0 0 6.41-4.68q3.4-3.4.68-7.37a53.72 53.72 0 0 0-6.06-7.19 98.86 98.86 0 0 0-39.34-24.29 97.7 97.7 0 0 1-10.25-4.24c-1.09-.5-1.84-1.79-2.75-2.71 1.22-.44 2.47-1.35 3.65-1.25 4.76.33 9.53.81 14.27 1.55a121.81 121.81 0 0 1 33.44 9.92 78.11 78.11 0 0 1 27.35 21.44 28.64 28.64 0 0 1 4.28 7.67 11.06 11.06 0 0 1-2.4 12.29 46.08 46.08 0 0 1-9.36 7.26c-8.7 5.12-18.4 7.34-28.17 9.11-5.62 1-22.78 1.66-25.64 1.22Z" style="fill:#fff"/>
</svg>
