<svg xmlns="http://www.w3.org/2000/svg" viewBox="0 0 1024 1024">
   <circle cx="512" cy="512" r="512" style="fill:#006296"/>
   <path d="m235 511.47 35.9 52.33h-17.26l-26.17-40-26.27 40h-17.28l35.9-51.71-32.22-47.17H205l22.43 36m4.2-6.52 18.27-29.5h17.27l-27.88 40.3m49.87.56c0-2.22 0-4.26.18-6.22v-.72c.56-8.76 2.22-14.71 5-17.73q5.22-5.64 22.81-5.64t22.75 4.82c3.26 3 5 9.19 5.22 18.55h14.57q-1.34-19.51-8.14-26.57-8.5-8.8-35.78-8.78-25 0-33.62 10.13t-8.5 39.72q0 32 8.54 42t35.82 10q23.47 0 32.84-6.16t9.37-21.57l-.1-3.6h-14.79v3.1q0 10.13-5.22 13.19t-22.71 2.94q-18.39 0-23.41-6.4t-5-29.8h71.16v-11.29h-71Zm.2-6.94Zm132.25-23.37c9.23 0 15.47 1.48 18.71 4.4s4.86 8.64 4.86 17.13v1.84h14.57c0-13.71-2.56-23-7.48-27.92s-14.57-7.44-28.7-7.44q-26.29 0-32.9 15.21l-.42-.32.42-13.45h-14v33.92h14.83c1.77-15.61 11.8-23.35 30.11-23.35Zm-45 30.32h14.49v58h-14.5Zm68.58 0h14.49v58h-14.5Zm50.95-20.37v-49.33h70.64v-13.43H480.2v76.2h82.49a86.91 86.91 0 0 1 2.12-13.43Zm-15.95 20.37h15.93v58h-15.94Zm165.81 8.6q0 26.35-4.6 32.62t-24 6.26q-19.25 0-23.83-6.26T589 514.37c0-3.08 0-6 .14-8.58H574c-.12 2.72-.18 5.56-.18 8.58q0 31.86 8.16 41.36t35.56 9.53q27.4 0 35.58-9.53t8.16-41.36c0-3 0-5.86-.16-8.58h-15.27c.15 2.66.15 5.44.15 8.58Zm-52.37-32.64q4.58-6.24 23.83-6.26t24 6.26c2 2.76 3.4 8.48 4 17.11h15.13Q659.06 480 653.08 473q-8.16-9.49-35.58-9.51T582 473q-6 7-7.56 25.85h15.13c.69-8.63 2.05-14.36 4.1-17.12Zm81.21 24.05h14.49v58h-14.46Zm38.7-31.14q16.55 0 16.53 15.21c0 .9-.1 2.66-.3 5.26l-.44 3.72h14.27l.24-8q0-28.14-27.32-28.12-19.75 0-28.34 14l-.3-.3 1.48-11.41h-14.47v34h14.75c1.46-16.27 9.36-24.35 23.93-24.35ZM832 473q-8.16-9.49-35.56-9.51T760.92 473q-6 7-7.58 25.85h15.15c.68-8.62 2-14.35 4-17.11q4.62-6.24 23.85-6.26t24 6.26q4.58 6.26 4.6 32.64T820.35 547q-4.6 6.26-24 6.26T772.49 547q-4.58-6.24-4.6-32.62c0-3.08 0-6 .14-8.58h-15.18c-.1 2.72-.16 5.56-.16 8.58q0 31.86 8.16 41.36t35.48 9.53q27.4 0 35.56-9.53t8.18-41.36q.01-31.85-8.07-41.38Z" style="fill:#fff"/>
</svg>
