<svg xmlns="http://www.w3.org/2000/svg" viewBox="0 0 1024 1024">
   <circle cx="512" cy="512" r="512" style="fill:#ff6900"/>
   <path d="M512 256c-85 0-154.54 5.44-202.82 53.67S256 427.37 256 512.26s4.91 154.35 53.21 202.6S427 768 512 768s154.52-4.91 202.79-53.14S768 597.12 768 512.26s-5-154.52-53.38-202.75S596.86 256 512 256zM360.66 414h120c31.36 0 64.15 1.45 80.3 17.64 15.91 15.91 17.64 47.64 17.71 78.42v96.85a3.2 3.2 0 0 1-3.27 3.09h-41.53a3.2 3.2 0 0 1-3.24-3.16v-98.5c0-17.19-1-34.86-9.9-43.75-7.64-7.68-21.89-9.41-36.69-9.77H408.7a3.2 3.2 0 0 0-3.22 3.14v148.93a3.2 3.2 0 0 1-3.24 3.16h-41.58a3.2 3.2 0 0 1-3.2-3.16V417.15a3.2 3.2 0 0 1 3.2-3.15zm258.79 0H661a3.2 3.2 0 0 1 3.2 3.2v189.7a3.2 3.2 0 0 1-3.2 3.1h-41.54a3.2 3.2 0 0 1-3.22-3.16V417.15a3.2 3.2 0 0 1 3.22-3.18zm-173.16 75.56h43.65a3.17 3.17 0 0 1 3.2 3.14v114.17a3.2 3.2 0 0 1-3.2 3.16h-43.65a3.2 3.2 0 0 1-3.24-3.16V492.69a3.2 3.2 0 0 1 3.24-3.13z" style="fill:#fff"/>
</svg>
