<svg xmlns="http://www.w3.org/2000/svg" viewBox="0 0 1024 1024">
   <circle cx="512" cy="512" r="512" style="fill:#3916af"/>
   <path d="M338.19 611.43Q469.42 471.94 600.7 332.49q13.19 12.41 26.36 24.84c-3.11 6.69-5.13 14.35-3.44 21.7a17.24 17.24 0 0 0 13.15 13c7.75 1.55 15.7-.82 22.65-4.21q13.61 12.73 27.14 25.54L424 692.28c-9.32-8.72-18.56-17.53-27.9-26.23 2.2-6.68 3.11-14.14.66-20.88-2.14-6-7.27-11.14-13.66-12.39s-12.8.71-18.38 3.67q-13.25-12.45-26.53-25.02Zm285.75-279q1.05 1 2.09 2l14 13.07c12.73-13.48 25.38-27 38.14-40.47-28.51-27.09-57.23-54-85.83-80.94Q461.05 365.47 329.81 504.95q22.93 21.62 45.88 43.23c13.08-13.63 25.89-27.51 38.89-41.21q84.78-90.13 169.6-180.23c3-3 5.68-7 9.93-8.46a18 18 0 0 1 7.16-1.4c3.52.09 6.13.77 8.5 2.75a51.53 51.53 0 0 1 7.23 6.3ZM400.06 691.61q-1.05-1-2.09-2l-14-13.07c-12.73 13.48-25.38 27-38.14 40.47 28.51 27.09 57.23 54 85.83 80.94q131.29-139.42 262.53-278.9-22.93-21.62-45.88-43.23c-13.08 13.63-25.89 27.51-38.89 41.21q-84.78 90.13-169.6 180.23c-3 3-5.68 7-9.93 8.46a18 18 0 0 1-7.16 1.4c-3.52-.09-6.13-.77-8.5-2.75a51.53 51.53 0 0 1-7.23-6.3Z" style="fill:#fff"/>
</svg>
