<svg xmlns="http://www.w3.org/2000/svg" viewBox="0 0 1024 1024">
   <circle cx="512" cy="512" r="512" style="fill:#8cd248"/>
   <path d="M312.68 343.34c-2.63-4.66-6.09-7.76-10.27-9.19a17.5 17.5 0 0 0-6.68-1.19H203l92.5 160.3L347.3 403c-19-32.58-30.43-52.4-34.61-59.68zm415.94 187.52L676.83 621c18.86 32.58 30.31 52.4 34.49 59.68 3.94 6.92 9.55 10.38 16.95 10.38H821l-92.38-160.2zM461 600.32l-51-88.21L513.43 333H409.24l-103 179.16q78.59 136.07 84.86 147.17c6.8 12.06 14.92 20.65 24.35 25.54 8.12 4.18 18.5 6.33 31 6.21 9.19 0 23.39 0 42.49-.12l52.4-90.59zm171.9-235.49c-6.8-12.17-14.92-20.65-24.35-25.54a50.1 50.1 0 0 0-16.11-5.13 84 84 0 0 0-14.92-1.16c-9.19 0-23.39.12-42.49.24l-52.39 90.59H563l51 88.05L510.57 691h104.19q51.38-89.52 103-179.16Q639 375.81 632.9 364.83z" style="fill:#fff"/>
</svg>
