<svg xmlns="http://www.w3.org/2000/svg" viewBox="0 0 1024 1024">
   <circle cx="512" cy="512" r="512" style="fill:#ff4f00"/>
   <path d="m317.9 543.29-.1-.33 65.09-59.58v-28.71H278.46v28.71h62.37l.1.28-64.45 59.64V572h107.45v-28.71ZM448 451.93q-18.07 0-29.45 5.45a38.65 38.65 0 0 0-17.09 15 54.52 54.52 0 0 0-7.14 21.62l31.68 4.47q1.72-10.13 6.88-14.35a21 21 0 0 1 13.62-4.21q9.64 0 14 5.16c2.87 3.44 4.33 8.2 4.33 14.47v3.13h-30.48q-23.26 0-33.42 10.31t-10.14 27.23q0 17.33 10.14 25.79t25.51 8.41q19.06 0 29.33-13.12a48.76 48.76 0 0 0 8.48-18.07h1.15l4.37 28.71h28.71v-72.7q0-22.54-11.88-34.92T448 451.93Zm10 89.62c-4.56 3.8-10.52 5.69-17.95 5.69q-9.18 0-12.76-3.21a10.5 10.5 0 0 1-3.59-8.17 10.73 10.73 0 0 1 3-7.93 11.06 11.06 0 0 1 8.17-3h30v2a18.23 18.23 0 0 1-6.81 14.61Zm214-86.88h-33.86V572h33.92Zm200.25 0q-14.37 0-22.66 10.14-5.95 7.29-9 21.54h-1l-4.43-31.68h-29V572h33.92v-60.17q0-11.38 5.33-17.45t19.67-6.07H878v-33.64Zm-99.73 3.84q-11.88-7.07-30-7-28.47 0-44.56 16.21T682 512.36a71.23 71.23 0 0 0 7.31 33.16 52.66 52.66 0 0 0 20.8 21.92q13.48 7.79 32.06 7.8 16.07 0 26.85-4.95a43.17 43.17 0 0 0 17.09-13.5 58.83 58.83 0 0 0 9.28-19.19l-29.22-8.18a27 27 0 0 1-6.88 11.9q-5 5-16.59 5-13.84 0-20.63-7.93c-3.28-3.82-5.35-9.27-6.26-16.33h80c.33-3.3.5-6.07.5-8.3v-7.31a65.15 65.15 0 0 0-5.93-28.47 44.55 44.55 0 0 0-17.8-19.48Zm-30.94 20.92q20.63 0 23.4 20.3h-48.59a27.93 27.93 0 0 1 5.45-12.39q6.68-7.93 19.8-7.92Zm-86.17-72.05a19 19 0 0 0-13.87 5.33 18.38 18.38 0 0 0-5.45 13.75 18.65 18.65 0 0 0 19.32 19.31 18.34 18.34 0 0 0 13.75-5.45 18.91 18.91 0 0 0 5.31-13.86 18.24 18.24 0 0 0-19-19.06Zm-70.06 44.08q-17.33 0-27.85 10.88-7.79 8.06-11.43 24.07H545l-4.43-31.68h-29v151h33.92v-62.2h1.24a63.4 63.4 0 0 0 4.33 12 34.16 34.16 0 0 0 13.5 15.09 39.64 39.64 0 0 0 20 4.83q21.3 0 32.44-16.59t11.14-46.3q0-28.69-10.78-44.92t-31.95-16.19Zm3.44 85q-5.93 8.6-18.57 8.6a21.88 21.88 0 0 1-18.19-8.3q-6.59-8.27-6.57-22.64v-2.22q0-14.6 6.57-22.35t18.19-7.67q12.86 0 18.69 8.17t5.83 22.78q0 15.11-5.91 23.66Zm-325.5 6.81H146V572h117.35Z" style="fill:#fff"/>
</svg>
