<svg xmlns="http://www.w3.org/2000/svg" viewBox="0 0 1024 1024">
   <circle cx="512" cy="512" r="512" style="fill:#c82336"/>
   <path data-name="Zoho (monochrome logo recreation by krisu)" d="M716.17 553.46c-5.28-6.34-8-15.06-8-26.24 0-11.4 2.67-20.25 7.92-26.64s12.45-9.58 21.72-9.58 16.25 3.18 21.52 9.57 7.92 15.23 7.92 26.63c0 11.13-2.66 19.84-7.92 26.2s-12.33 9.55-21.52 9.6-16.35-3.2-21.64-9.54Zm-45.1-99.84h135.81v145.55H671.07v-35.69L666.21 577 648 448.7l10-28.86 13 100.27ZM684 527.2a60.48 60.48 0 0 0 4 22.29A55.57 55.57 0 0 0 700 568a49.68 49.68 0 0 0 17 11.57 54.66 54.66 0 0 0 20.9 3.91 53.54 53.54 0 0 0 20.49-3.91A52.12 52.12 0 0 0 775.51 568a55.67 55.67 0 0 0 12.08-18.49 63 63 0 0 0 0-44.63 55 55 0 0 0-12.08-18.37 51.82 51.82 0 0 0-17.16-11.76 52.92 52.92 0 0 0-20.54-3.95 53.76 53.76 0 0 0-20.7 3.95A50.82 50.82 0 0 0 700 486.53a53.19 53.19 0 0 0-12 18.3 61.17 61.17 0 0 0-4 22.37Zm8.64-98.75-20 21.79H807.8l19-21.89Zm117.65 24.11v144.92L829 578.73v-147.8Zm-165.45-2.13 18.5 130.24-131.69 18.5-14-98.48-43.88 99.64L355.59 547v-.09l53.31-121 104.83 47.3 13.36 6 .69-1.53-.52-2.09-4.83-2.18-113-51-11.75-39.81 120.06 55 1.73 6.89 2.84-9.55 133.37-18.54L645 447l-120.57 16.44.23 1.67.19.77.22.88Zm-149.62 57.15a57.36 57.36 0 0 0-3.61-20 51.32 51.32 0 0 0-10.88-17.85A50.37 50.37 0 0 0 463.61 458a51.16 51.16 0 0 0-20.16-4.24h-.31a50.22 50.22 0 0 0-20.39 4.58 55.34 55.34 0 0 0-18.32 12.82 69.25 69.25 0 0 0-18 42.57q-.06 1.29-.06 2.58a58.09 58.09 0 0 0 3.45 19.7 49.12 49.12 0 0 0 10.78 17.59 51.8 51.8 0 0 0 17.47 11.8 50.9 50.9 0 0 0 20.09 4.2h.17a51.79 51.79 0 0 0 20.35-4.38 58.13 58.13 0 0 0 18.47-13 68.21 68.21 0 0 0 18-42.53q.07-1.02.07-2.11Zm141.72 58.75a22.63 22.63 0 0 0-.25-3.27l-13.13-89.26c-.6-4.1-2-7.22-4.27-9.27a9.61 9.61 0 0 0-6.65-2.46 14.13 14.13 0 0 0-2 .16 10.35 10.35 0 0 0-7.74 4.75 12.85 12.85 0 0 0-1.76 6.88 22.09 22.09 0 0 0 .25 3.21l4.87 34.32-38.39 5.61-4.87-34.3c-.59-4-2-7.08-4.2-9.19a9.33 9.33 0 0 0-6.6-2.57 12.63 12.63 0 0 0-1.84.14c-3.61.52-6.36 2.09-8 4.7a12.5 12.5 0 0 0-1.79 6.89 23 23 0 0 0 .26 3.28l13.12 89.26c.6 4.1 2 7.22 4.4 9.24a10.13 10.13 0 0 0 6.79 2.36 15.38 15.38 0 0 0 2.25-.17 9.75 9.75 0 0 0 7.39-4.72 13.1 13.1 0 0 0 1.64-6.72 22.23 22.23 0 0 0-.25-3.25l-5.36-35.27 38.34-5.64 5.36 35.27c.59 4.05 2 7.15 4.34 9.19a9.88 9.88 0 0 0 6.72 2.44 14 14 0 0 0 2.05-.15 10.18 10.18 0 0 0 7.67-4.71 12.84 12.84 0 0 0 1.65-6.75Zm-181.49-89.08a29.1 29.1 0 0 0-11.45-2.5 24.9 24.9 0 0 0-12.15 3.25c-7.38 4.06-13.4 11.49-18 22.36q-4.51 10.64-4.5 19.56a31.84 31.84 0 0 0 1.14 8.57c2.26 8.1 7.48 13.84 15.86 17.41a28.78 28.78 0 0 0 11.26 2.45 25 25 0 0 0 12.18-3.24c7.37-4 13.33-11.33 17.84-22q4.66-11 4.64-20.09a32 32 0 0 0-1.08-8.41c-2.24-8.07-7.41-13.82-15.74-17.36ZM357.6 534l48.66-110.48-11.67-39.41-43.71 103.8-12.23-81.79-8.1 42.25 19 124.79 7.22-37.26Zm-162.25-66.93 132.05-20.22 8.72-45.49-131.83 21.13-6.67 33.28-2.26 11.29Zm151.56 111.32-130.66 20.49-21-128.38 132.15-20.23Zm-30.06-14.14a12.81 12.81 0 0 0-.2-2.19 9.51 9.51 0 0 0-2-4.6 9.3 9.3 0 0 0-4.16-2.76 19.49 19.49 0 0 0-6.39-.91 48.54 48.54 0 0 0-8.1.78l-34.93 6c.37-2.69 1.71-6.23 4.06-10.54a144 144 0 0 1 11.64-17.38l4-5.39c.67-.83 1.6-2 2.8-3.65 8-10.48 12.93-19 14.83-25.71a53.85 53.85 0 0 0 2-11.48q.1-1.58.1-3.14a48.33 48.33 0 0 0-.68-8.16A22.28 22.28 0 0 0 298 469a8.63 8.63 0 0 0-3.09-3.64 11.74 11.74 0 0 0-6-1.24 47.48 47.48 0 0 0-7.79.78l-40.36 6.91c-4.89.84-8.5 2.28-10.8 4.44a8.6 8.6 0 0 0-2.77 6.49 12.11 12.11 0 0 0 .18 2.07 9 9 0 0 0 5.24 7.22 14.92 14.92 0 0 0 6.15 1.13 32.36 32.36 0 0 0 5.39-.51L277.9 487c.06.6.1 1.19.1 1.78a18.11 18.11 0 0 1-1.1 6.2c-1 2.8-3.51 6.79-7.5 11.87q-1.7 2.08-5.2 6.48-13.67 16.55-19.58 28.27a61 61 0 0 0-5.82 15.92 43.94 43.94 0 0 0-.94 8.78 34.55 34.55 0 0 0 .48 5.84 23.68 23.68 0 0 0 2 6.7 8.77 8.77 0 0 0 3.46 3.85c1.32.71 3.25 1 5.92 1a86.21 86.21 0 0 0 13.7-1.48l36.62-6.26c6.48-1.12 11-2.66 13.62-4.82a8.53 8.53 0 0 0 3.19-6.88Z" style="fill:#fff"/>
</svg>
