<svg xmlns="http://www.w3.org/2000/svg" viewBox="0 0 1024 1024">
   <circle cx="512" cy="512" r="512" style="fill:#0062c7"/>
   <path d="M779.66 469.45c-1.68-10.5-7.36-13.49-21.09-17.89-10.43-3.34-80.29-25.6-80.29-25.6s-48.66-18.37-84.76 7.63c-4.86 3.49-9.88 7.49-14.95 11.75 4.26-5.07 8.23-10.1 11.73-15 25.93-36.13 7.46-84.78 7.46-84.78s-22.35-69.77-25.76-80.19c-4.43-13.72-7.42-19.39-17.91-21s-15.09 2.82-23.51 14.52c-6.41 8.88-49.16 68.43-49.16 68.43s-32.52 40.62-18.94 83c1.83 5.71 4.07 11.72 6.56 17.85-3.51-5.62-7.07-11-10.62-15.79C432.11 376.5 380.15 379 380.15 379s-73.3-.29-84.27-.32c-14.4 0-20.73 1.07-25.55 10.53s-2 15.23 6.55 26.85c6.47 8.84 49.89 67.9 49.89 67.9s28.59 43.47 73.06 43.66c6 0 12.38-.24 19-.72-6.41 1.6-12.58 3.34-18.24 5.21-42.22 14-55.88 64.19-55.88 64.19s-22.92 69.63-26.34 80c-4.48 13.69-5.4 20 2.12 27.56s13.84 6.65 27.51 2.14c10.41-3.42 80-26.48 80-26.48s50.18-13.76 64.09-56c1.87-5.67 3.59-11.82 5.17-18.23-.45 6.58-.71 13-.68 18.94.26 44.48 43.78 73 43.78 73l68 49.78c11.64 8.48 17.41 11.32 26.87 6.49s10.54-11.16 10.48-25.57c0-10.95-.46-84.26-.46-84.26s2.44-52-33.44-78.25c-4.82-3.53-10.14-7.08-15.76-10.57 6.13 2.48 12.13 4.7 17.82 6.51 42.38 13.5 82.93-19.08 82.93-19.08s59.51-42.88 68.38-49.28c11.67-8.46 16.15-13.07 14.48-23.55zm-252.48-54c8 1.25 12 18.26 8.85 38s-12.1 34.68-20.1 33.42-12-18.26-8.86-38 12.11-34.67 20.11-33.4zm-102.4 52.29c3.67-7.22 21.07-5.73 38.86 3.32s29.25 22.23 25.58 29.44-21.07 5.74-38.87-3.3-29.24-22.2-25.57-29.44zm54 98.34c-14.1 14.12-30.18 20.94-35.92 15.21s1.07-21.8 15.17-35.93 30.18-20.95 35.91-15.22-1.06 21.86-15.16 35.95zm77.67 33.11c-7.22 3.68-20.41-7.74-29.49-25.52s-10.6-35.18-3.38-38.86 20.41 7.75 29.49 25.52 10.59 35.18 3.38 38.87zm18.72-82.34c-19.71 3.14-36.72-.8-38-8.78s13.68-17 33.39-20.16 36.72.79 38 8.79-13.67 17.02-33.39 20.16z" style="fill:#fff"/>
</svg>
