<?xml version="1.0" encoding="utf-8"?>
<!-- Generator: Adobe Illustrator 21.0.0, SVG Export Plug-In . SVG Version: 6.00 Build 0)  -->
<svg version="1.1" xmlns="http://www.w3.org/2000/svg" xmlns:xlink="http://www.w3.org/1999/xlink" x="0px" y="0px"
	 viewBox="0 0 1024 1024" style="enable-background:new 0 0 1024 1024;" xml:space="preserve">
<style type="text/css">
	.st0{fill:#00D0C8;}
	.st1{fill:#FFFFFF;}
</style>
<g id="Min_Guides__x28_DO_NOT_REMOVE_x29_">
</g>
<g id="Max_Guides__x28_DO_NOT_REMOVE_x29_">
</g>
<g id="Icon">
	<circle id="Background" class="st0" cx="512" cy="512" r="512"/>
	<path class="st1" d="M163.5,504.4h43.8V459h-43.8V504.4z M397.6,504.6v-17.1h12.6v-23h28.4v23h15.2v17.8h-15.2v26.4
		c0,7,1.6,10,8.7,10c2.2,0,4.3-0.1,6.5-0.4v21.9c-5.7,0-12.2,0.9-18.2,0.9c-12,0-25.4-1.9-25.4-22.6v-36.1h-12.3
		c3.4,7.1,5.1,16,5.1,26.5h-54.5c0.7,8.6,5.6,14.7,14.5,14.7c4.6,0,9.6-1.7,11.9-5.4h26.5c-5.7,16.3-21.4,23.9-38.3,23.9
		c-23.8,0-41.7-14.3-41.7-39.5c0-22,15.8-39.9,39.3-39.9C379.4,485.6,391.3,492.3,397.6,504.6z M178.9,488.4V475h12.9v13.4H178.9z
		 M224.6,563.1v-104h56c27,0,32.7,15.4,32.7,26.1c0,10.5-5,16.2-12.6,20.4c9.2,3.2,17.8,10.6,17.8,25.9c0,20.8-17.8,31.6-35.8,31.6
		H224.6z M256.1,483.9v15.7h16.6c6.6,0,10.7-1.9,10.7-8.6c0-5.3-4.3-7.1-10.7-7.1H256.1z M256.1,519v19.4h18.5
		c6.6,0,12.3-1.9,12.3-9.9c0-6.1-3.6-9.5-11-9.5H256.1z M348.7,516.8h27.1c0-7-5.2-12.7-12.5-12.7
		C354.8,504.1,350,508.6,348.7,516.8z M458.5,563.1v-104h28.4v36.5h0.3c4.9-5.8,11.2-10,23.2-10c13.3,0,25.5,8.3,25.5,25.6v51.8
		h-28.4v-39.6c0-8.7-1-14.9-9.3-14.9c-4.9,0-11.3,2.5-11.3,14.6v39.9H458.5z M621.1,531.8h-54.5c0.7,8.6,5.6,14.7,14.5,14.7
		c4.6,0,9.6-3.1,11.9-6.8h26.5c-5.7,16.3-21.4,25.3-38.3,25.3c-23.8,0-41.7-14.3-41.7-39.5c0-22,15.8-39.9,39.3-39.9
		C608.4,485.6,621.1,502.4,621.1,531.8z M566.8,516.8h27.1c0-7-5.1-12.7-12.5-12.7C573,504.1,568.1,508.6,566.8,516.8z M692.6,509.5
		h-25.8c-0.2-2.5-1.4-4.4-3.3-5.7c-1.7-1.5-4-2.2-6.3-2.2c-4,0-8.6,0.9-8.6,5.8c0,2.2,1.7,3.2,3.3,3.9c4.7,2,15.5,2.6,24.9,5.8
		c9.5,3.1,17.8,8.7,17.8,21.1c0,21-19.8,26.6-37.9,26.6c-17.5,0-36.7-5.8-37.1-25.3h27.1c0.1,2.6,1.3,3.4,3.4,5.3
		c1.4,1.3,4.2,2.2,7.6,2.2c3.7,0,9.6-1.5,9.6-5.8c0-4.4-2.4-5.7-15.6-8c-21.6-3.8-30.4-10.8-30.4-23.7c0-19.1,20.2-24,35.1-24
		C672.5,485.6,691.9,490.1,692.6,509.5z M776.2,459.1v104h-27.4v-8.3h-0.3c-3.6,4.8-7.9,10.2-21.8,10.2c-21.1,0-31.2-21.1-31.2-40.1
		c0-17.8,6.7-39.3,31.7-39.3c8.4,0,16.1,3.8,20.4,10.2h0.3v-36.7H776.2z M857.1,515.2v31c0,5.7,0.3,12.1,3.4,16.9h-29
		c-0.7-2-1.2-5.1-1-7.1h-0.3c-6,7-14.8,9-23.9,9c-14.3,0-26.2-7-26.2-22.9c0-23.9,27.5-23,42-25.8c3.9-0.7,7.7-1.9,7.7-6.7
		c0-5.1-4.7-7-9.3-7c-8.7,0-10.5,4.5-10.6,7.7h-26.4c0.9-21.3,20.6-24.7,38.3-24.7C857.3,485.6,857.1,500.6,857.1,515.2z
		 M748.9,525.2c0-8.9-2.3-18.6-12.5-18.6c-10.2,0-12.5,9.8-12.5,18.6c0,9,2.3,18.8,12.5,18.8C746.6,544,748.9,534.2,748.9,525.2z
		 M829.8,536.1v-7c-3.4,1.8-7.3,2.8-11.2,3.6c-6.3,1.4-9.6,3.1-9.6,8.2c0,3.5,3.7,7,8.9,7C824.4,547.9,829.4,544,829.8,536.1z
		 M163.5,504.4h43.8V459h-43.8V504.4z M397.6,504.6v-17.1h12.6v-23h28.4v23h15.2v17.8h-15.2v26.4c0,7,1.6,10,8.7,10
		c2.2,0,4.3-0.1,6.5-0.4v21.9c-5.7,0-12.2,0.9-18.2,0.9c-12,0-25.4-1.9-25.4-22.6v-36.1h-12.3c3.4,7.1,5.1,16,5.1,26.5h-54.5
		c0.7,8.6,5.6,14.7,14.5,14.7c4.6,0,9.6-1.7,11.9-5.4h26.5c-5.7,16.3-21.4,23.9-38.3,23.9c-23.8,0-41.7-14.3-41.7-39.5
		c0-22,15.8-39.9,39.3-39.9C379.4,485.6,391.3,492.3,397.6,504.6z M178.9,488.4V475h12.9v13.4H178.9z M224.6,563.1v-104h56
		c27,0,32.7,15.4,32.7,26.1c0,10.5-5,16.2-12.6,20.4c9.2,3.2,17.8,10.6,17.8,25.9c0,20.8-17.8,31.6-35.8,31.6H224.6z M256.1,483.9
		v15.7h16.6c6.6,0,10.7-1.9,10.7-8.6c0-5.3-4.3-7.1-10.7-7.1H256.1z M256.1,519v19.4h18.5c6.6,0,12.3-1.9,12.3-9.9
		c0-6.1-3.6-9.5-11-9.5H256.1z M348.7,516.8h27.1c0-7-5.2-12.7-12.5-12.7C354.8,504.1,350,508.6,348.7,516.8z M458.5,563.1v-104
		h28.4v36.5h0.3c4.9-5.8,11.2-10,23.2-10c13.3,0,25.5,8.3,25.5,25.6v51.8h-28.4v-39.6c0-8.7-1-14.9-9.3-14.9
		c-4.9,0-11.3,2.5-11.3,14.6v39.9H458.5z M621.1,531.8h-54.5c0.7,8.6,5.6,14.7,14.5,14.7c4.6,0,9.6-3.1,11.9-6.8h26.5
		c-5.7,16.3-21.4,25.3-38.3,25.3c-23.8,0-41.7-14.3-41.7-39.5c0-22,15.8-39.9,39.3-39.9C608.4,485.6,621.1,502.4,621.1,531.8z
		 M566.8,516.8h27.1c0-7-5.1-12.7-12.5-12.7C573,504.1,568.1,508.6,566.8,516.8z M692.6,509.5h-25.8c-0.2-2.5-1.4-4.4-3.3-5.7
		c-1.7-1.5-4-2.2-6.3-2.2c-4,0-8.6,0.9-8.6,5.8c0,2.2,1.7,3.2,3.3,3.9c4.7,2,15.5,2.6,24.9,5.8c9.5,3.1,17.8,8.7,17.8,21.1
		c0,21-19.8,26.6-37.9,26.6c-17.5,0-36.7-5.8-37.1-25.3h27.1c0.1,2.6,1.3,3.4,3.4,5.3c1.4,1.3,4.2,2.2,7.6,2.2
		c3.7,0,9.6-1.5,9.6-5.8c0-4.4-2.4-5.7-15.6-8c-21.6-3.8-30.4-10.8-30.4-23.7c0-19.1,20.2-24,35.1-24
		C672.5,485.6,691.9,490.1,692.6,509.5z M776.2,459.1v104h-27.4v-8.3h-0.3c-3.6,4.8-7.9,10.2-21.8,10.2c-21.1,0-31.2-21.1-31.2-40.1
		c0-17.8,6.7-39.3,31.7-39.3c8.4,0,16.1,3.8,20.4,10.2h0.3v-36.7H776.2z M857.1,515.2v31c0,5.7,0.3,12.1,3.4,16.9h-29
		c-0.7-2-1.2-5.1-1-7.1h-0.3c-6,7-14.8,9-23.9,9c-14.3,0-26.2-7-26.2-22.9c0-23.9,27.5-23,42-25.8c3.9-0.7,7.7-1.9,7.7-6.7
		c0-5.1-4.7-7-9.3-7c-8.7,0-10.5,4.5-10.6,7.7h-26.4c0.9-21.3,20.6-24.7,38.3-24.7C857.3,485.6,857.1,500.6,857.1,515.2z
		 M748.9,525.2c0-8.9-2.3-18.6-12.5-18.6c-10.2,0-12.5,9.8-12.5,18.6c0,9,2.3,18.8,12.5,18.8C746.6,544,748.9,534.2,748.9,525.2z
		 M829.8,536.1v-7c-3.4,1.8-7.3,2.8-11.2,3.6c-6.3,1.4-9.6,3.1-9.6,8.2c0,3.5,3.7,7,8.9,7C824.4,547.9,829.4,544,829.8,536.1z"/>
</g>
</svg>
