<svg xmlns="http://www.w3.org/2000/svg" viewBox="0 0 1024 1024">
   <circle cx="512" cy="512" r="512" style="fill:#8914b0"/>
   <path d="m585.76 351-8.65 2.73v32.57a38 38 0 0 1-26.16 36l-88.94 28v48.27l116.89-36.86c27.73-8.63 44.28-32.57 44.28-64v-21.6c0-14.75-16.9-31.64-37.42-25.15m-186-13.77L565 285.14c18.05-5.68 32.37-5.37 41-4.36l-20.72-15.13c-9.55-6.92-38.68-23.11-74.59-11.67l-157 49.5zm251.75 143s29.18-26.49 29.18-83.42v-24.09c0-37.49-43.17-98.39-112.28-76.56l-163.94 51.7v304l46-14.51v-74.72l148-46.65C626.05 507.33 649 529 649 553v29.63c0 30.16-26.64 72.94-68.41 86.06l-226.86 71.55 46 33.76 204.41-64.44c43.15-13.73 90.91-50.75 90.91-129.35v-30.26c0-47.53-43.57-69.76-43.57-69.76m-69.16-7.44-131.81 41.57V381.57L582.26 340c27.51-8.61 52.4 13.37 52.4 36.1v21.61c0 37.81-20.69 65.08-52.31 75m55.18 109.9v-29.56c0-16.72-16.16-32.28-35.63-26.13l-10.41 3.28v41a45.86 45.86 0 0 1-32.2 43.91L393 667.53v-321l-46-33.76v417.55l230.25-72.59c36.11-11.38 60.36-48 60.36-75.08" style="fill:#fff"/>
</svg>
