<svg xmlns="http://www.w3.org/2000/svg" viewBox="0 0 1024 1024">
   <style>
      .st1{fill:#fff}
   </style>
   <g id="Icon">
      <circle cx="512" cy="512" r="512" style="fill:#285efd"/>
      <path class="st1" d="M374.2 544.4c-6.3 0-11.5 6.2-11.5 13.8 0 7.6 5.1 13.8 11.5 13.8 6.3 0 11.5-6.2 11.5-13.8 0-7.6-5.2-13.8-11.5-13.8m272.7 0c-6.3 0-11.5 6.2-11.5 13.8 0 7.6 5.1 13.8 11.5 13.8 6.3 0 11.5-6.2 11.5-13.8-.1-7.6-5.2-13.8-11.5-13.8"/>
      <path class="st1" d="M781.2 556.6c-10.4 3.6-20.6.4-22.9-7.3-2.3-7.7 4.2-16.8 14.6-20.5 10.4-3.6 20.6-.4 22.9 7.3s-4.2 16.9-14.6 20.5M515.8 711.8c-108.2-.2-195.9-50.1-195.9-121.6 0-1.5.1-3 .1-4.5 0-.5.1-1 .1-1.5l.3-3c.1-1.3.3-2.7.5-4 0-.1 0-.3.1-.4 2.2-14 7.8-35.5 16.2-47.8 20.2-28.7 56.3-47.7 97.5-47.7 31.7 0 60.4 11.3 81.2 29.6 20.8-18.3 49.4-29.6 81.2-29.6 41.2 0 77.3 19.1 97.5 47.7 8.4 12.4 14 33.8 16.2 47.8 0 .1 0 .3.1.4.2 1.3.4 2.7.5 4l.3 3c0 .5.1 1 .1 1.5.1 1.5.1 3 .1 4.5-.1 71.5-87.8 121.4-196.1 121.6M265.7 549.3c-2.3 7.7-12.6 10.9-22.9 7.3-10.4-3.6-16.9-12.8-14.6-20.5 2.3-7.7 12.6-10.9 22.9-7.3 10.4 3.7 16.9 12.8 14.6 20.5m514.5-76.1c-16.8 0-31.6 10.6-39.8 26.4-28.1-60.2-86.5-115.9-158.7-138.8-38.9-15.4-66.3-44.8-69.7-79.3-3.4 34.4-30.7 63.9-69.7 79.3-72.2 22.9-130.6 78.7-158.6 138.8-8.3-15.8-23-26.4-39.8-26.4-25.9 0-46.8 24.9-46.8 55.6s21 55.6 46.8 55.6c7.9 0 15.3-2.3 21.8-6.4 2.2 99.6 111.6 164.3 246.4 164.5 134.8-.2 244.2-64.9 246.4-164.5 6.5 4.1 13.9 6.4 21.8 6.4 25.9 0 46.8-24.9 46.8-55.6s-21.1-55.6-46.9-55.6"/>
   </g>
</svg>
