<svg xmlns="http://www.w3.org/2000/svg" viewBox="0 0 1024 1024" style="enable-background:new 0 0 1024 1024" xml:space="preserve">
   <style>
      .st1{fill:#fff}
   </style>
   <g id="Icon">
      <circle cx="512" cy="512" r="512" style="fill:#66bb6a"/>
      <g id="Crowdin_Symbol_1_">
         <path class="st1" d="M781.5 449.4c1.3 0 2.2-1.1 2.2-2.4 0-1.1-.8-2-1.9-2.2-17.7-3.5-45.7-6.4-76.5-6.4-68.9 0-151.5 14.8-162.5 71.7-.4 2.1-1.2 12.9-1.5 15 6.3 1 10.9 1.8 14.5 2.3-.4 2.9-.6 5.7-.7 8.6-.1 5.3 0 10.2.3 14.9-4.4-.6-9-1.2-13.6-1.9 5.6 58.9 37.9 75.7 71.8 76.4h2.4c21.4 0 43.2-6.2 59-12 1.2-.4 1.8-1.7 1.4-2.9-.4-1-1.4-1.7-2.5-1.5-31.2 4.2-79.8-1.1-69-79.4 9.1-64.7 132.8-77.6 176.6-80.2zm-231 68.7c.2-2.7.5-5.5.6-6.3 8.8-45.6 84.9-63.4 125.6-63.4-38.6 9.1-79.2 26.6-87.8 59.6-.8 3.1-2.2 8.8-3.3 13.8-7.5-.8-11.4-1-14.7-1.2-6.8-.4-13.7-1.3-20.4-2.5zm65.6 99c-36.7 0-57.8-19-64.4-58.1 10.7 1.5 21.7 2.7 32.8 3.1 4.6 32.1 19.8 47.6 35.9 54.9-1.5 0-2.9.1-4.3.1z"/>
         <path class="st1" d="M415.9 495.2c-.6 3.3-1.9 19.6-2.2 22.7 9.5 1.3 16.1 2.3 21.8 2.9-.5 3.8-.8 7.6-.9 11.4-.2 8.8 0 17 .6 24.7-6.8-.9-13.6-1.9-20.7-2.9 8.6 91.4 59.7 116 112.2 116 8.6 0 17.2-.6 25.7-1.8 29.8-3.1 58.6-13.4 77.4-21.5 1.1-.5 1.6-1.9 1.1-3-.4-.9-1.4-1.5-2.5-1.3-44.4 8.7-136.5 11.6-118.3-119.7 14.2-102.6 218.7-117.7 275.5-120 1.3 0 2.3-1.1 2.2-2.3 0-1.1-.8-2-1.8-2.2-25.8-6-72.4-11.6-124.2-11.6-104.3 0-229.3 22.5-245.9 108.6zm110.7 166.4c-58.9 0-93.4-32.8-102.5-97.6 19.4 2.9 39 4.8 58.6 5.5 7.4 60.9 39.1 83.4 71.2 90-9 1.3-18.1 2-27.3 2.1zm-36.8-168.7c-1.5 5.7-4 16.4-5.7 24.5-14.2-1.6-23-2.4-30.3-3.1-10.5-1-17.1-1.7-31-3.6.5-5.3 1.1-12.3 1.3-13.9 17.8-91.8 172.2-101.7 237.7-101.7 5 0 10 0 14.9.1-79.9 7.5-169.5 31.1-186.9 97.7zm-224-46.8v.2-.2zm-.2 1.1c0 .1 0 .3-.1.4 0 .1-.1.2-.1.4.1-.6.2-1.1.3-1.6 0 .2-.1.5-.1.8zm-2.9 15c.3-1.9.7-3.8 1-5.7-.3 1.9-.6 3.9-1 5.7zm1.3-7.1c.3-1.8.7-3.5 1-5.1-.3 1.6-.6 3.3-1 5.1z"/>
         <path class="st1" d="M818.8 351.4c-47-18.1-162.5-42.4-276.9-42.4C414 309 287.2 339.3 258 442.4c-1.3 4.8-5.4 29.2-6.4 33.9 13.9 3.6 23.7 6 31.4 7.8-.9 4.8-1.8 9.6-2.3 14.6-1.5 14.1-2.4 27.2-2.7 39.7-9.9-2.3-20-4.8-30.3-7.5 0 154.3 88 191.9 173.7 191.9 12.2 0 24.4-.7 36.5-2.1 38.4-4.2 75.9-15 99.4-22.8 1.2-.4 1.8-1.7 1.4-2.9-.3-1-1.4-1.7-2.4-1.5-61.8 7.6-210.7 6.1-164.2-198.5 36-158 355.5-144.2 425.6-139.3 1.3.1 2.3-.9 2.4-2.1.2-.9-.4-1.8-1.3-2.2zm-555 105.2c-.3 1.9-.7 3.8-1 5.7.3-1.9.6-3.9 1-5.7zm1.2-6.6c-.3 1.5-.6 3.3-1 5.1.4-1.8.7-3.5 1-5.1zm123.9 225.9c19.3 19.4 45 31.3 76.6 35.5-14.6 2-29.3 3-44 3.1-106.3 0-161.8-58-165.1-172.5 28.7 7.2 61 14.4 92.7 18.2.8 50.9 14.1 89.9 39.8 115.7zM651.6 333c-157.1 0-254.5 40.8-281.8 118.1-3.1 8.7-9.1 27.2-12.8 39.6-8.6-1.8-15.6-3.3-21.5-4.5-9.4-1.9-16-3.2-21.8-4.3-14.1-2.7-22.3-3.4-52.4-11.8.1-.4.2-.8.2-1.2 1.1-6.2 2.7-15.5 3.8-20.7 0-.2.1-.4.1-.6s0-.3.1-.4c.1-.5.2-.9.3-1.2s.1-.6.2-.8v-.3c29.8-105.2 166.4-127.1 275.8-127.1 66.1 0 131.7 8.1 184 18.2-22.8-1.7-48-3-74.2-3z"/>
         <path class="st1" d="M266.1 444.9v.2s-.1.5-.2.8v.2c0-.5.1-.9.2-1.2z"/>
      </g>
   </g>
</svg>
