<svg xmlns="http://www.w3.org/2000/svg" viewBox="0 0 1024 1024">
   <circle cx="512" cy="512" r="512" style="fill:#66bb6a"/>
   <path d="M781.8 444.89c-17.71-3.48-45.69-6.44-76.48-6.44-68.91 0-151.51 14.78-162.5 71.7-.4 2.14-1.22 12.93-1.45 15 6.28 1 10.91 1.77 14.49 2.3a71.23 71.23 0 0 0-.69 8.6c-.09 5.25 0 10.19.27 14.88-4.43-.58-9-1.22-13.57-1.91 5.55 58.88 37.94 75.7 71.83 76.44h2.38c21.41 0 43.19-6.17 59-12a2.27 2.27 0 0 0-1.08-4.39c-31.21 4.23-79.79-1.09-69-79.38 9-64.78 132.7-77.72 176.43-80.28a2.28 2.28 0 0 0 .34-4.53ZM620.31 617c-1.41.05-2.84.08-4.23.08-36.69 0-57.79-19-64.4-58.07a327.36 327.36 0 0 0 32.78 3.06c4.54 32.06 19.78 47.63 35.85 54.93Zm-31.43-109c-.82 3.14-2.15 8.8-3.25 13.79-7.47-.77-11.38-1-14.68-1.18a164 164 0 0 1-20.47-2.46c.24-2.69.51-5.54.65-6.33 8.82-45.6 84.91-63.42 125.59-63.42-38.6 9.01-79.19 26.52-87.84 59.54ZM786 398.17c-25.8-6-72.45-11.56-124.2-11.56-104.27 0-229.32 22.46-246 108.56-.59 3.25-1.89 19.57-2.2 22.74 9.54 1.34 16.13 2.26 21.76 2.93a107.39 107.39 0 0 0-.86 11.37c-.16 8.79 0 17 .55 24.74Q425 555.6 414.43 554c8.6 91.38 59.7 116 112.2 116a195.93 195.93 0 0 0 25.74-1.81c29.79-3.1 58.63-13.44 77.43-21.5a2.28 2.28 0 0 0-1.34-4.33C584 651.1 491.87 654 510.07 522.65c14.19-102.59 218.66-117.74 275.5-120a2.28 2.28 0 0 0 .44-4.52Zm-232.06 261.3a188.47 188.47 0 0 1-27.31 2.11c-58.93 0-93.37-32.82-102.53-97.58a517.65 517.65 0 0 0 58.61 5.51c7.39 60.88 39.11 83.41 71.23 89.96Zm-64.12-166.56c-1.48 5.68-4 16.36-5.74 24.5-14.19-1.57-23-2.43-30.3-3.14-10.55-1-17.05-1.67-31-3.62.46-5.27 1.1-12.32 1.34-13.88C441.88 405 596.29 395.05 661.85 395.05q7.57 0 14.86.15c-79.92 7.52-169.47 31.14-186.89 97.71Zm-224.33-45.33c.05-.26.1-.51.16-.75l-.08.35a.76.76 0 0 1-.08.4Zm0 0-.08.39a3.45 3.45 0 0 1 .07-.36Zm.17-.78.1-.44Zm-1.89 9.71c-.35 1.91-.7 3.84-1 5.71.29-1.87.64-3.81.99-5.69Zm.27-1.44c.34-1.8.66-3.55 1-5.05-.35 1.54-.67 3.27-1.04 5.07Zm-.27 1.46c-.35 1.88-.7 3.82-1 5.71.29-1.86.64-3.8.99-5.68ZM265 450c-.31 1.51-.63 3.25-1 5.05.37-1.76.69-3.49 1-5.05Zm553.8-98.6C771.75 333.33 656.31 309 541.85 309 413.94 309 287.13 339.35 258 442.45c-1.34 4.76-5.38 29.23-6.37 33.95 13.86 3.56 23.71 6 31.43 7.82-.94 4.76-1.76 9.6-2.31 14.62-1.53 14.07-2.37 27.21-2.69 39.66q-14.9-3.5-30.32-7.5c0 154.31 88 191.93 173.71 191.93a331.43 331.43 0 0 0 36.55-2.08c38.42-4.23 75.92-15 99.35-22.85a2.28 2.28 0 0 0-1-4.43c-61.82 7.63-210.75 6.06-164.18-198.48 36-158 355.53-144.24 425.65-139.28a2.28 2.28 0 0 0 1-4.41ZM388.88 675.92c19.26 19.45 45 31.33 76.6 35.47a334.62 334.62 0 0 1-44 3.08c-106.32 0-161.8-58-165.07-172.54 28.71 7.19 61 14.45 92.73 18.24.77 50.96 14.07 89.88 39.74 115.75ZM651.58 333c-157.1 0-254.53 40.84-281.76 118.1-3.08 8.69-9.1 27.19-12.77 39.56-8.6-1.84-15.6-3.29-21.5-4.49-9.41-1.89-16-3.17-21.84-4.27-14.06-2.69-22.27-3.37-52.41-11.84a6.05 6.05 0 0 0 .22-1.2c1.1-6.18 2.69-15.51 3.82-20.71a2.76 2.76 0 0 1 .12-.58c0-.17 0-.28.09-.43.09-.46.19-.87.27-1.24s.13-.58.2-.81v-.26c29.75-105.17 166.37-127.09 275.75-127.09 66.07 0 131.7 8.06 184 18.16-22.77-1.61-47.96-2.9-74.19-2.9ZM265.94 445.77a6.79 6.79 0 0 1 .16-.88v.24c0 .07-.1.37-.16.64Zm0 .17v-.17.4a1.35 1.35 0 0 0-.04-.23Z" style="fill:#fff"/>
</svg>
