<svg xmlns="http://www.w3.org/2000/svg" viewBox="0 0 1024 1024">
   <circle cx="512" cy="512" r="512" style="fill:#4a4a4a"/>
   <path d="M211.47 355.88c-28.628 0-51.674 23.046-51.674 51.674v208.89c0 28.628 23.046 51.674 51.674 51.674h601.06c28.628 0 51.676-23.046 51.676-51.674v-208.89c0-28.628-23.048-51.674-51.676-51.674H211.47zm170.77 32.316c5.195 0 9.113 1.023 11.754 3.07 2.64 2.048 3.96 4.479 3.959 7.293 0 2.56-.894 4.693-2.682 6.399-1.788 1.706-4.131 2.56-7.027 2.56-2.981 0-8.602-.897-16.863-2.69-4.089-.852-7.283-1.278-9.582-1.278-5.621 0-10.689 3.498-15.203 10.494-4.514 6.909-8.133 16.29-10.859 28.148l-6.389 27.256h33.73l-2.046 9.084h-34.11l-20.187 81.637c-6.218 24.823-16.184 43.634-29.896 56.43-13.627 12.795-28.446 19.193-44.459 19.193-5.366 0-9.413-1.068-12.139-3.202-2.81-2.046-4.214-4.606-4.214-7.677 0-2.644.978-4.775 2.937-6.397 1.874-1.535 4.6-2.302 8.178-2.302 1.789 0 4.428.212 7.92.638 5.962.768 11.67 1.152 17.12 1.152 8.433 0 14.565-2.004 18.397-6.013 3.833-3.924 7.666-13.607 11.498-29.047l25.936-104.41h-30.535l2.3-9.086h30.536c5.025-21.326 10.773-37.192 17.246-47.6 6.473-10.407 14.906-18.597 25.297-24.568 10.39-6.057 20.186-9.084 29.385-9.084zm91.266.26c3.663 0 6.515.897 8.559 2.687 2.129 1.707 3.195 3.796 3.195 6.27 0 2.73-1.022 4.99-3.066 6.781-2.045 1.706-5.026 2.56-8.944 2.56-2.555 0-6.175-.427-10.859-1.28-4.089-.683-7.879-1.024-11.37-1.024-3.494 0-6.134.726-7.923 2.176-2.47 2.046-4.728 6.354-6.771 12.924-1.96 6.568-5.196 19.534-9.71 38.898l-12.647 53.615c-6.303 26.87-9.455 40.902-9.455 42.096 0 2.73.98 4.095 2.94 4.095 1.872 0 4.598-1.108 8.175-3.326 7.07-4.436 14.14-10.11 21.209-17.02l4.344 4.606c-6.644 7.506-14.521 14.374-23.635 20.602-9.028 6.142-16.48 9.213-22.357 9.213-2.64 0-4.812-1.024-6.516-3.07-1.703-1.963-2.557-4.693-2.557-8.19 0-6.824 2.642-20.984 7.922-42.48l13.8-56.174c5.025-20.303 9.24-33.91 12.645-40.818 5.281-10.493 12.735-18.64 22.36-24.44 9.71-5.8 19.93-8.7 30.661-8.7zm317.22 45.168-9.2 35.828h26.446l-2.043 9.084h-26.447L768.24 521.4c-3.492 12.88-5.238 21.838-5.238 26.87 0 2.304.467 3.968 1.404 4.991 1.023 1.024 2.386 1.535 4.09 1.535 2.64 0 6.685-1.578 12.137-4.734a159.099 159.099 0 0 0 20.439-14.203l4.857 5.886c-18.653 14.075-31.132 22.692-37.434 25.848-6.303 3.156-11.371 4.733-15.203 4.733-3.152 0-5.664-1.15-7.537-3.453-1.789-2.304-2.684-6.057-2.684-11.26 0-6.142 1.62-15.526 4.856-28.15l13.158-50.926h-20.697l2.3-9.086h20.569l7.154-28.023 20.314-7.805zm-94.963 23.545-9.582 32.373c-3.833 12.88-7.452 27.72-10.859 44.527-1.873 9.126-2.81 15.013-2.81 17.658 0 2.645 1.064 3.968 3.193 3.967 1.363 0 3.535-.897 6.516-2.688 5.28-3.156 10.348-7.08 15.203-11.77l4.087 4.99c-9.71 8.87-15.927 14.243-18.652 16.12-5.45 3.754-10.647 6.527-15.588 8.319-3.236 1.193-6.386 1.789-9.453 1.789-2.214 0-3.875-.51-4.982-1.533-1.107-1.024-1.66-2.517-1.66-4.479 0-1.28.34-3.029 1.021-5.246l5.11-17.402c-7.325 8.786-16.054 16.336-26.19 22.648-6.217 3.924-11.925 5.885-17.12 5.885-4.94 0-8.73-1.748-11.371-5.246-3.578-4.692-5.366-10.833-5.366-18.426 0-9.042 2.385-19.11 7.155-30.2a112.918 112.918 0 0 1 19.418-30.196c8.091-9.042 16.609-15.694 25.553-19.96 6.898-3.241 15.757-4.863 26.574-4.863 2.725 0 5.494.17 8.304.512l3.069-4.988 8.431-1.791zm-161.4 3.969-.002.002c8.347 0 15.29 3.325 20.826 9.978 5.536 6.654 8.303 15.91 8.303 27.768 0 18.937-6.643 35.956-19.93 51.055-13.287 15.013-27.34 22.52-42.16 22.52-9.114 0-16.48-2.986-22.102-8.957-5.536-5.971-8.305-14.117-8.305-24.439 0-17.914 5.111-34.462 15.332-49.646 12.861-18.852 28.874-28.279 48.037-28.279zm-10.861 9.597c-7.24 0-14.267 5.205-21.08 15.611-6.729 10.323-10.094 24.611-10.094 42.865 0 11.09 2.088 19.833 6.262 26.23 3.066 4.692 7.153 7.037 12.264 7.037 7.154 0 13.67-4.435 19.547-13.307 7.495-11.516 11.244-25.805 11.244-42.865 0-12.795-1.747-21.923-5.239-27.383-3.406-5.459-7.708-8.189-12.904-8.189zm136.36 6.395c-7.665 0-14.35 2.132-20.057 6.396-5.707 4.18-11.031 11.771-15.971 22.775-4.855 10.92-7.281 21.838-7.281 32.758 0 5.801.979 9.98 2.937 12.54 1.959 2.559 4.514 3.84 7.666 3.84 5.877 0 12.18-3.157 18.908-9.47 6.729-6.397 11.67-15.567 14.82-27.51l10.604-39.924c-4.599-.938-8.475-1.406-11.627-1.406z" style="fill:#ffffff"/>
</svg>