<svg xmlns="http://www.w3.org/2000/svg" viewBox="0 0 1024 1024" style="enable-background:new 0 0 1024 1024" xml:space="preserve">
   <circle cx="512" cy="512" r="512" style="fill:#00a94f"/>
   <path d="M514.2 256c140 0 253.8 117 253.8 255.9S654.3 767.7 514.1 767.7L256 768V507.5C256 368.6 374 256 514.2 256zm2.5 97.3c-55.3-.1-106.6 28.8-135.2 76.2-28.4 47.1-29.6 105.7-3.2 154l-28.5 90.8 102.3-22.9c58.6 26.1 127.3 14.4 173.6-29.7 46.3-43.8 61-111.5 37.1-170.6-24.2-59.3-81.9-97.9-145.9-97.8h-.2z" style="fill:#fff"/>
</svg>
