<svg xmlns="http://www.w3.org/2000/svg" viewBox="0 0 1024 1024">
   <style>
      .st1{fill:#fff}
   </style>
   <g id="Icon">
      <circle cx="512" cy="512" r="512" style="fill:#00a94f"/>
      <path class="st1" d="M498.9 634c4.8 0 9.6-.2 14.4-.8 75.4-7.9 130.2-75.5 122.2-151-2.6-24.8-11.7-47.4-25.4-66.3-18.9-13.8-41.5-22.9-66.4-25.6-4.9-.5-9.7-.8-14.5-.8-69.4 0-129 52.5-136.4 123-2.5 23.6 1.2 46.4 9.6 66.8l-33 76.9.9-.2 85.8-29.1c13.5 4.7 27.9 7.1 42.8 7.1z"/>
      <path class="st1" d="M514.2 256c-138.9 0-255.9 112.6-255.9 251.5 0 4.5.1 260.5.1 260.5l255.8-.3c138.9 0 251.5-117 251.5-255.9S653.1 256 514.2 256zM688 543.7c-9 85.6-85.7 147.8-171.3 138.8-22.7-2.4-43.7-9.6-62.2-20.3l-102.4 12.1-.6.2.5-.2-.5.1v.1-.1h-.1l18.5-93.2c-14.2-20.7-23.7-45.2-26.5-71.9-9-85.6 53.1-162.3 138.7-171.3 50.2-5.3 97.2 13.9 129.4 47.8-26.3-20.2-59.2-32.3-95-32.3-86.1 0-155.9 69.8-155.9 155.9 0 26.9 6.8 52.2 18.8 74.3l-28.2 90.8h.1l26.4-71.6 6.7-15.7c-.4-.9-.7-1.8-1-2.7l-2-5.7c-7.3-21.7-9.9-45-7.5-67.9 8.6-81.6 76.9-143.2 158.8-143.2 5.6 0 11.3.3 16.9.9 17.5 1.8 34.2 6.4 49.7 13.5 0 0 9.2 4.6 21.6 14.6.1.1.3.2.6.5.6.5 1.3 1 1.9 1.6 1.3 1.1 2.7 2.3 3.3 2.8 1.7 1.9 3.5 4.3 3.6 4.4 4.8 6 9.7 13.1 13.7 20.9 7.1 15.5 11.6 32.1 13.4 49.5 4.5 42.5-7.9 84.1-34.8 117.3s-65.1 53.9-107.5 58.4c-5.6.6-11.2.9-16.8.9-16.5 0-32.9-2.6-48.7-7.6l-24.8 8.4-71.5 20.2 99.1-22.4c19.5 8.8 41.2 13.7 64 13.7 86.1 0 155.9-69.8 155.9-155.9 0-35.7-12-68.5-32.2-94.8 34.1 32.1 53.2 79.1 47.9 129.1z"/>
   </g>
</svg>
