<svg xmlns="http://www.w3.org/2000/svg" viewBox="0 0 1024 1024">
   <circle cx="512" cy="512" r="512" style="fill:#00a94f"/>
   <path d="m456 627.08-85.76 29.1-.89.2 33-76.86a137.41 137.41 0 0 1 126.86-189.85 138.74 138.74 0 0 1 14.51.76A136.57 136.57 0 0 1 610.16 416a137.33 137.33 0 0 1-96.81 217.24 137 137 0 0 1-57.35-6.16Zm309.7-115.22c0 138.91-112.62 255.86-251.54 255.86l-255.77.28s-.09-256-.09-260.47C258.3 368.61 375.24 256 514.16 256S765.7 372.94 765.7 511.86Zm-125.37-97.42a155.89 155.89 0 0 1-187.69 237l-99.11 22.41L425 653.68l24.82-8.42a159.27 159.27 0 0 0 48.66 7.61 161.3 161.3 0 0 0 16.78-.88 160.1 160.1 0 0 0 128.9-225.27 130.14 130.14 0 0 0-13.69-20.91c-.07-.1-1.93-2.47-3.59-4.39-.57-.54-2-1.73-3.29-2.8l-1.9-1.56-.63-.51c-12.43-10-21.59-14.59-21.59-14.59a159.55 159.55 0 0 0-49.7-13.49 162.33 162.33 0 0 0-16.9-.89A160 160 0 0 0 381.53 578.7l2 5.65q.51 1.33 1 2.66l-6.74 15.68-26.42 71.6h-.12l28.19-90.77a155.9 155.9 0 0 1 232.07-197.9 155.91 155.91 0 0 0-241.64 195.49l-18.55 93.22h.12v.08-.08l.46-.05-.47.16.64-.18 102.41-12.1a155.88 155.88 0 0 0 185.85-247.7Z" style="fill:#fff"/>
</svg>
