<svg xmlns="http://www.w3.org/2000/svg" viewBox="0 0 1024 1024">
   <circle cx="512" cy="512" r="512" style="fill:#0078f2"/>
   <path d="M331.4 276c-29.3 0-40.1 10.8-40.1 40.1v353.4c0 3.3.1 6.4.4 9.2.7 6.4.8 12.7 6.8 19.7.6.8 6.6 5.2 6.6 5.2 3.2 1.6 5.5 2.7 9.2 4.3l177.8 74.5c9.2 4.2 13.1 5.9 19.8 5.7h.1c6.8.2 10.6-1.5 19.8-5.7l177.8-74.5c3.7-1.5 5.9-2.6 9.2-4.3 0 0 6.1-4.5 6.6-5.2 6-7 6-13.2 6.8-19.7.3-2.8.4-5.9.4-9.2V316c0-29.3-10.8-40-40.1-40H331.4zm285 66.3h14.5c24.2 0 36 11.8 36 36.2v40.1h-29.3v-38.5c0-7.8-3.6-11.5-11.2-11.5h-5c-7.8 0-11.5 3.6-11.5 11.5v124c0 7.8 3.6 11.4 11.5 11.4h5.5c7.5 0 11.1-3.6 11.1-11.4v-44.4h29.4v45.7c0 24.4-12 36.4-36.3 36.4h-14.8c-24.3 0-36.3-12.1-36.3-36.4V378.8c.1-24.4 12.1-36.5 36.4-36.5zm-260 1.6h66.4v27.2h-36.6v55.6h35.2v27.2h-35.2v59.2h37.1v27.2h-66.9V343.9zm81.4 0h46.9c24.3 0 36.3 12.1 36.3 36.5v52.2c0 24.4-12 36.5-36.3 36.5h-16.9v71.2h-29.9l-.1-196.4zm96.6 0h29.8v196.4h-29.8V343.9zm-66.8 26.5v72.3H480c7.5 0 11.1-3.6 11.1-11.5v-49.3c0-7.9-3.6-11.5-11.1-11.5h-12.4zM385.4 587h4.4l1 .1h1.6l.8.3h.8l.8.2.8.2.7.1.7.2.7.1.8.3.6.1.6.3.8.2.6.3.8.3.7.3.6.4.8.3.6.4.8.4.6.4.7.4.6.5.6.4.6.5.7.5.6.6.6.5-.5.6-.6.6-.5.6-.6.6-.5.6-.5.6-.6.6-.5.6-.5.6-.6.6-.5.6-.6.6-.5.6-.5.6-.6.6-.5.7-.6.6-.5.6-.6-.5-.6-.6-.6-.4-.7-.5-.6-.4-.7-.4-.6-.4-.7-.4-.6-.3-.6-.3-.6-.2-.7-.3-.8-.2-.6-.2-.8-.2-.8-.2-.8-.1h-.9l-1-.2h-1.6l-.8.1h-.8l-.8.2-.7.2-.7.2-.8.2-.6.3-.8.3-.6.4-.6.4-.6.4-.6.5-.6.5-.6.5-.5.6-.6.6-.4.6-.4.6-.5.6-.3.7-.4.6-.4.7-.2.7-.3.7-.2.8-.1.8-.2.7-.2.9v.8l-.1.8v1.9l.1.8.1.7.1.8.2.8.2.6.1.8.2.6.3.6.3.8.4.8.3.6.4.6.5.7.5.6.4.6.6.6.5.6.6.5.6.5.6.5.7.4.6.4.7.3.8.3.6.3.8.2.8.3.8.1.8.2.8.1 1 .1h2.6l1-.1h.8l.8-.3.8-.1.8-.3.7-.1.7-.3.6-.3.8-.3.5-.3.6-.4v-7.4h-11.8v-11.9h26.6v26.6l-.6.5-.6.5-.6.4-.6.5-.6.4-.6.5-.6.4-.7.4-.8.4-.7.4-.6.4-.8.3-.6.4-.8.3-.8.3-.8.3-.7.3-.7.2-.7.3-.8.2-.7.2-.8.3-.7.1-.8.2-.8.2-.8.1-.8.1-.8.1-.8.1-1 .1-.8.1-.9.1h-4.2l-.7.6h-.8l-.8-.1h-.8l-.8-.3-.8-.1-.8-.2-.8-.1-.6-.3-.8-.1-.8-.3-.7-.3-.7-.2-.8-.3-.7-.3-.8-.3-.6-.3-.8-.4-.6-.4-.8-.4-.6-.4-.6-.4-.6-.5-.6-.5-.7-.5-.5-.5-.6-.5-.6-.6-.6-.5-.6-.6-.7-.6-.6-.6-.5-.6-.5-.6-.4-.6-.5-.6-.4-.6-.4-.6-.4-.7-.4-.6-.3-.7-.3-.7-.3-.7-.3-.7-.2-.6-.3-.7-.2-.7-.2-.7-.2-.8-.2-.7-.2-.8-.1-.7-.2-.8-.1-.7-.1-.8-.1-.8-.1-.8v-4.4l.2-.8v-.9l.2-.8v-.8l.3-.8.3-.8.1-.8.2-.7.3-.8.2-.7.3-.8.3-.7.3-.7.3-.7.3-.7.4-.7.4-.6.4-.6.4-.6.4-.6.5-.7.5-.6.5-.6.6-.6.5-.6.5-.6.6-.6.5-.6.6-.5.6-.6.6-.5.6-.5.6-.4.6-.5.6-.4.7-.4.7-.4.8-.4.6-.4.8-.3.7-.3.8-.4.6-.2.8-.3.7-.3.7-.2.7-.2.8-.2.7-.2.8-.2h.8l.8-.2h.8l.8-.2h.8l1.3-1zm255.8.2h4.4l1 .2h1.6l.8.2h1l.8.3.7.1.8.2.8.1.7.2.8.2.8.3.6.1.8.3.8.3.6.3.8.3.8.3.7.4.6.3.8.4.7.4.6.4.7.5.6.4.6.5.6.5.6.5-.5.6-.4.7-.5.6-.5.6-.5.7-.4.6-.5.6-.5.7-.4.6-.5.6-.5.6-.5.7-.4.7-.5.6-.6.6-.4.6-.5.7-.6-.5-.7-.4-.6-.4-.6-.5-.7-.3-.6-.4-.8-.3-.6-.3-.8-.3-.6-.3-.6-.2-.7-.3-.8-.2-.8-.3-.8-.2-.9-.2-.8-.1-.8-.2-.8-.1-.8-.1-.7-.1h-1.8l-.9.1-.8.2-.8.1-.6.3-.6.3-.7.6-.5.7-.3.7v2l.4.9.3.5.6.6.8.4.6.4.8.3.8.3 1 .3.6.2.6.2.8.2.6.2.8.2.9.2.9.2.9.3.9.1.8.3.9.2.8.2.8.2.8.2.8.3.8.2.7.2.8.3.8.3.8.4.8.3.8.4.8.4.6.4.6.4.7.5.6.4.7.6.6.6.6.6.6.6.4.6.6.8.4.6.3.8.4.6.2.8.3.6.1.8.2.8.1.8.1.8.1.8v2l-.1.9-.1.8-.1.9-.2.8-.2.8-.2.8-.2.8-.3.7-.3.6-.3.7-.4.6-.5.6-.4.6-.4.7-.6.6-.5.6-.6.5-.6.6-.6.5-.6.5-.6.4-.7.5-.8.4-.6.3-.8.4-.8.3-.8.3-.8.3-.8.2-.6.2-.8.2-.8.2-.6.1-.8.2h-.3l-.8.1h-.8l-.8.2h-6l-.8-.1-.8-.1-.9-.1-.8-.2-.8-.1-.8-.1-.8-.2-.9-.2-.8-.2-.8-.2-.8-.2-.8-.2-.8-.3-.8-.3-.7-.2-.8-.2-.8-.3-.6-.3-.8-.3-.6-.4-.8-.3-.7-.4-.6-.4-.8-.4-.6-.4-.7-.4-.6-.5-.6-.5-.6-.5-.6-.5-.6-.5-.6-.6.5-.6.6-.6.5-.6.6-.6.5-.6.5-.6.6-.6.5-.6.6-.6.5-.6.6-.6.5-.6.5-.6.6-.6.5-.6.6-.6.6-.6.6.5.8.5.6.5.8.5.6.4.7.5.6.4.7.3.6.4.7.3.8.3.6.3.8.2.6.3.8.2.8.3.8.3.8.1.8.2.8.1h.9l.8.3h4.4l.8-.2.8-.2.6-.1.6-.2.6-.3.7-.5.4-.6.4-.6.2-.8v-1.9l-.3-.8-.5-.6-.5-.5-.7-.5-.6-.3-.8-.3-.8-.3-1-.4-.6-.1-.6-.2-.8-.2-.6-.2-.8-.3-.8-.1-.9-.3-.8-.1-.9-.3-.8-.1-.8-.3-.8-.1-.8-.3-.8-.2-.8-.2-.7-.3-.7-.2-.7-.3-.8-.3-.9-.3-.8-.3-.8-.3-.8-.4-.8-.4-.6-.4-.8-.4-.6-.5-.7-.4-.5-.5-.6-.6-.6-.6-.5-.6-.5-.6-.4-.6-.4-.6-.4-.7-.3-.6-.3-.6-.2-.7-.2-.6-.2-.8-.1-.7v-.8l-.2-.8v-3.5l.1-.8.1-.8.1-.6.2-.8.2-.6.2-.8.3-.6.3-.8.3-.6.4-.8.4-.6.6-.6.4-.6.6-.6.6-.6.5-.6.7-.6.5-.4.7-.5.6-.5.6-.4.8-.4.6-.3.8-.4.6-.3.8-.3.8-.3.8-.2.6-.2.8-.1.6-.2.8-.1.8-.2.8-.1.8-.1.8-.1.6-.1zm-197.1.6h15.1l.3.7.3.7.3.7.2.8.3.7.3.7.3.7.3.7.2.7.4.8.3.7.3.7.2.7.3.7.4.7.3.8.3.7.2.7.3.7.4.7.2.7.3.8.2.8.3.6.4.8.3.6.3.8.3.8.2.6.4.8.3.6.3.8.2.6.3.8.4.8.3.7.2.7.2.7.3.7.4.7.3.8.3.7.2.7.3.7.3.7.3.7.3.8.3.7.3.7.4.7.3.7.3.7.2.8.3.7.4.7.3.7.2.7.3.7.3.8.4.8.2.6.3.8.2.6.3.8.4.8.3.6.2.8.3.6.2.8.4.6.3.8.2.8.3.6.3.8.4.6.3.8.2.8.3.6.3.8.4.6H466l-.4-.7-.2-.7-.3-.7-.3-.8-.2-.7-.3-.7-.3-.7-.3-.7-.3-.7-.3-.7-.2-.7-.3-.8-.3-.7-.3-.7-.3-.7h-23.2l-.3.8-.2.6-.3.8-.4.8-.2.6-.3.8-.3.6-.2.8-.3.6-.3.8-.3.6-.3.8-.3.8-.3.6-.2.8h-16.5l.3-.8.3-.7.3-.7.3-.8.2-.7.4-.7.3-.7.3-.7.2-.7.3-.8.4-.7.3-.7.3-.7.2-.7.3-.7.4-.8.3-.7.3-.7.3-.7.3-.7.3-.7.3-.8.3-.8.3-.6.3-.8.4-.6.3-.8.2-.8.2-.6.3-.8.4-.6.3-.8.3-.6.2-.8.3-.8.4-.6.2-.8.3-.6.3-.8.3-.8.4-.6.3-.8.2-.6.3-.8.3-.6.4-.8.3-.8.3-.7.2-.7.3-.7.4-.7.3-.7.2-.8.3-.7.3-.7.4-.7.3-.7.2-.7.3-.8.3-.8.3-.6.3-.8.2-.6.3-.8.3-.8.4-.6.3-.8.3-.6.2-.8.3-.6.4-.8.3-.8.3-.6.3-.8.3-.6.4-.8.2-.8.2-.6.3-.8 2.8-.6zm46.8.4h16.5l.5.6.4.7.5.6.4.7.4.6.4.7.4.6.5.7.4.6.4.6.4.7.4.6.6.7.3.6.4.7.5.6.5.6.3.7.5.6.4.7.3.6.6.7.4.6.4.7.4.6.4.6.5.7.4.6.4.7.4.6.4.7.5.6.4.7.4.6.5-.6.3-.8.5-.6.5-.8.4-.6.3-.8.6-.6.4-.8.3-.6.5-.6.5-.8.4-.6.4-.8.4-.6.5-.8.4-.6.4-.8.4-.6.4-.6.5-.8.4-.6.4-.8.5-.6.4-.8.4-.6.5-.6.4-.8.5-.6.4-.8.4-.6.4-.8.5-.6.4-.8.4-.6H553v59.5h-15.7v-35l-.4.6-.5.8-.4.6-.5.6-.4.8-.5.6-.4.6-.5.8-.4.6-.4.6-.6.6-.4.8-.5.6-.4.6-.4.8-.5.6-.4.6-.5.8-.4.6-.5.6-.4.8-.4.6-.5.6-.4.8-.5.6-.5.6-.4.6-.4.8-.5.6-.5.6-.3.8-.6.6-.4.6-.5.8-.4.6h-.3l-.5-.7-.4-.6-.5-.7-.4-.6-.5-.7-.4-.6-.5-.7-.4-.6-.5-.7-.4-.6-.6-.7-.3-.6-.5-.7-.5-.6-.4-.7-.5-.6-.4-.8-.5-.6-.4-.7-.5-.6-.4-.7-.5-.6-.4-.7-.5-.6-.4-.7-.5-.6-.4-.7-.5-.6-.4-.7-.5-.6-.4-.7-.6-.6-.3-.7-.5-.6v35.1H491v-58.9l-.1-.2zm74 0h46.9v13.4h-31.4v9.5h28.2v12.7h-28.2V634h31.8v13.5H565v-58.9l-.1-.4zm-113.5 18.2-.3.8-.3.6-.3.8-.3.8-.2.7-.3.7-.3.8-.3.8-.2.6-.3.8-.3.6-.3.8-.3.8-.3.6-.2.8-.3.6-.3.8-.6 1.2-.2.6-.3.8-.3.8-.2.6-.3.8h13.7l-.3-.8-.3-.7-.3-.8-.3-.7-.2-.7-.3-.7-.3-.8-.3-.7-.3-.7-.3-.7-.2-.7-.3-.8-.3-.7-.3-.7-.3-.7-.2-.7-.3-.8-.3-.8-.3-.6-.3-.8-.3-.8-.2-.7-.8-1.1zm-24.5 111.4h171l-87.3 28.8-83.7-28.8z" style="fill:#fff"/>
</svg>
