<svg xmlns="http://www.w3.org/2000/svg" viewBox="0 0 1024 1024">
   <circle cx="512" cy="512" r="512" style="fill:#b10000"/>
   <path d="M274.06 457.52h-4.27c-2.23-8.09-4.09-16-12.43-19.57-8-3.58-18.55-3.39-27.44-3.39-14.85 0-14.29-1.31-14.66 10.55v42.15c25.42 1.13 29.12-9.22 30.25-22.77h4.26c-.19 8.47-.37 17.13-.74 25.6.37 7.71.55 15.62.74 23.34h-4.26c-2.6-19.76-12.44-20.13-30.25-20.13V517c0 5.84 0 19.77 1.85 24.84 2.78 7.53 11.87 6 18.37 6.4v4.33c-9.46-.19-19.11-.56-28.57-.75-9.45.19-18.73.56-28.56.75v-4.33c5.93 0 13.54 0 16-6.4 1.86-5.07 1.86-19 1.86-25v-53.11c0-6 0-19.95-1.86-25-2.41-6.4-10-6.4-16-6.4V428c11.31.19 22.26.57 33.21.75 19.85-.19 39.69-.56 59.55-.75l3 29.54Zm3.83 54.2c0-16.37 5-38 25.23-38 21.9 0 26.9 21.07 26.9 39.15 0 16.75-5 37.44-25.23 37.44-21.7 0-26.9-20.69-26.9-38.58Zm70.68 0c0-24.28-21.7-42.34-44.7-42.34-22.64 0-44.52 17.5-44.52 41.59 0 24.85 20.41 43.66 44.52 43.66 24.31 0 44.7-17.5 44.7-42.91Zm82 28.42-3.89-3.39c-5.94 7-14.1 11.85-23.38 11.85-21 0-26.71-18.81-26.71-36.89 0-16.56 6.12-37.26 26.16-37.26 6.86 0 8.35 1.51 10.57 7.15 1.3 3.57 3.71 7.35 8.16 7.35 3.34 0 6.12-3.58 6.12-7 0-10.36-16.87-12.61-24.11-12.61-25.78 0-45.45 19-45.45 45.36 0 23.33 16.89 39.89 39.88 39.89 12.06 0 24.87-4.7 32.65-14.49Zm29.31-17.69v-51.38c-4.64.18-9.65.57-14.47.75-5.19-.19-10.2-.57-15.4-.75v3.58c15.21 2.25 14.1 6.59 14.1 20.89v32.19c0 16.55 6.87 26.91 25.61 26.91 12.43 0 24.3-7.34 31-17.69l3.9 17.69 25.78-6.77v-4.33c-2.41.19-4.82.57-7 .57-6.86 0-6.86-7.53-6.86-12.61v-60.6c-4.64.37-9.65.56-14.47.94-5.2-.38-10.2-.57-15.4-.94v3.77c15.21 2.25 14.09 6.59 14.09 20.89v25.22c0 14.49-10.75 27.85-25.41 27.85-14.47 0-15.4-15.06-15.4-26.16Zm80.87 30.87 4.63-5.46c5.57 4.52 13.36 6.77 20.42 6.77 14.28 0 27.26-9.41 27.26-24.83 0-16.94-11.68-21.83-24.49-28.61-7-4-17.24-7.34-17.24-17.13 0-6.77 5.75-10.35 11.87-10.35 11.69 0 15.77 10 19.11 19.38H586l.37-23.53h-2.23l-3.7 4.52a38.39 38.39 0 0 0-18-4.7c-12.79 0-23 9.6-23 22.59 0 14.12 11.5 20.32 22.26 26 8 4.14 18.74 8.47 18.74 19.19 0 9-7.42 13.17-15.59 13.17-13.72 0-20-11.85-23-23.9h-3.7l.74 26.92Zm69.58-45.55v23.15c0 12.41.93 16.93-13 17.87v3.76c7.23-.19 14.28-.56 21.52-.75 7.05.19 14.29.56 21.34.75v-3.76c-15.58-.75-14.1-5.27-14.1-19v-18.63c0-8.67 0-17.88 4.27-25.6 2.78-4.7 8.9-9.41 14.47-9.41 7.24 0 5.56 9.79 13.35 9.79a6.79 6.79 0 0 0 6.5-6.78c0-7-7.42-9.79-13.17-9.79-12.8 0-22.08 7.53-26.9 19h-.37a61.21 61.21 0 0 0-2.23-19c-8.16 1.88-16.33 5.27-25 5.83v3.8c5.94 0 10.58-.75 12.25 6 1.29 4.33 1.11 17.69 1.11 22.77Zm70.12-63.52a10.08 10.08 0 0 0 10.38 10c5.19 0 9.46-4.51 9.46-10a9.9 9.9 0 0 0-9.83-10.16 10.05 10.05 0 0 0-10 10.16Zm20 25.12-29.32 5.83v3.8c3.71-.19 11.5-.56 12.8 4.15.75 2.82.75 17.31.75 20.89v26.92c-.19 12.41.92 16.93-12.81 17.87v3.76c7.23-.19 14.47-.56 21.71-.75 6.68.19 13.53.56 19.85.75v-3.76c-14.66-.94-12.62-6.59-13-19v-60.46Zm13.55 8.28h9.47v57.59c0 14.12 9.09 19.38 22.44 19.38 8.91 0 18.19-3 21.53-12l-3.34-2.44c-3.53 4.7-6.87 8.47-13.36 8.47-9.83 0-11.51-8.85-11.51-17.32v-53.68h21.15v-5.08h-21.17v-22h-2.78c-3.9 10.73-13.17 18.26-22.45 23.71v3.38Zm105.35 19h-30.63c2.23-12.23 7.79-23 21.7-23 11.7 0 18 7.53 18 19.19 0 4.71-6.13 3.77-9.09 3.77Zm24.11 42-3.89-4c-5.57 7.53-13.92 13.93-23.38 13.93-19.85 0-29.12-19.95-29.12-37.83l.74-9H841c1.85 0 4.64.75 4.64-1.69 0-20.32-17.25-30.68-35.43-30.68-24.11 0-41.74 21.27-41.74 44.8 0 24.09 18.92 40.45 41.92 40.45 13.92 0 24.31-5.08 33-16Z" style="fill:#fff"/>
</svg>
