<svg xmlns="http://www.w3.org/2000/svg" viewBox="0 0 1024 1024">
   <circle cx="512" cy="512" r="512" style="fill:#ffe900"/>
   <path d="m798.14 529.31-579.26 60.87 7 66.48 579.26-60.88-7-66.48ZM499.64 404.6a66.84 66.84 0 1 0 66.84 66.84 66.76 66.76 0 0 0-66.69-66.83Zm0 104a37.14 37.14 0 1 1 37.12-37.14 37.14 37.14 0 0 1-37.12 37.12Zm215.12-104a66.84 66.84 0 1 0 66.83 66.84 66.77 66.77 0 0 0-66.71-66.83Zm0 104a37.14 37.14 0 1 1 37.14-37.14 37.14 37.14 0 0 1-37.14 37.12ZM674 400.73V371H540.34v29.71h52v134H622v-134h52Zm-355 37.13v29.71h41c-9.48 24.9-27.55 41-48.49 41a55.7 55.7 0 1 1 39.52-95.07l21.1-21.11a85.39 85.39 0 1 0-60.6 145.88c29.1 0 55.27-18.73 70.71-48.47v44.91H412v-96.85Z"/>
</svg>
