<svg xmlns="http://www.w3.org/2000/svg" viewBox="0 0 1024 1024">
   <circle cx="512" cy="512" r="512" style="fill:#693afa"/>
   <path d="m690.09 423-31.82-56.52h61.64a5.67 5.67 0 0 1 4.47 2.57l12 19.78c7.2 11.87 15.8 26.05 20.73 34.15Zm-114 342.32c-1.5 2.68-3.44 2.68-4.09 2.68h-63l97.94-175.84a9.43 9.43 0 0 0-8.2-14l-166.93.22-33.21-57.51h243.26c.14 0 .26 0 .4-.05a8.73 8.73 0 0 0 2.79-.58l.61-.26a9.31 9.31 0 0 0 4.46-4l40.08-74.09h66.16Zm-83.41-6.68-7.91-13c-10.13-16.71-23.1-38.11-24.57-40.46a5 5 0 0 1 .31-4.57c2.35-4.22 46.67-84.06 57.47-103.52l64.72-.09Zm-110.38-110-32.17-57.16 32.43-60.78 32.51 56.3c-10.07 19-25.89 48.69-32.78 61.6Zm-43.18 8.9H304a5.72 5.72 0 0 1-4.42-2.57l-10.47-17.26c-7.46-12.3-17-28-22.25-36.68h67l31.81 56.52Zm108.8-398.86c1.49-2.68 3.42-2.68 4-2.68h63.31l-98.15 175.85c-.08.15-.13.3-.2.46s-.27.59-.39.9-.19.59-.27.89-.14.57-.18.85a8.35 8.35 0 0 0-.1 1v.82a7.63 7.63 0 0 0 .1 1 6.94 6.94 0 0 0 .15.85c.07.3.17.58.27.88s.2.58.33.85.27.53.43.79.3.51.48.76a8.31 8.31 0 0 0 .58.71c.2.22.4.45.62.66s.45.37.68.56a8.17 8.17 0 0 0 .81.58c.11.06.19.15.3.21s.23.08.35.14a9.4 9.4 0 0 0 1.53.62c.19.05.37.13.57.17a9 9 0 0 0 2.12.26h4.26l162.73-.22c4.3 7.49 12.35 21.57 19.2 33.56q7.89 13.83 13 22.8H381.99a9.35 9.35 0 0 0-8.14 4.93l-40.09 75.14h-66.11C296.51 530.35 446 262.13 447.92 258.68Zm83.55 6.89 5.88 9.68c10.33 17 24.91 41.08 26.46 43.58a4.94 4.94 0 0 1-.32 4.57L506 426.93l-64.7.08Zm110.22 109.76 32.19 57.19-32.82 60.66c-3.91-6.83-8.77-15.34-13.33-23.32-9-15.78-15.58-27.28-19.28-33.7 7-12.81 25.49-46.7 33.24-60.83Z" style="fill:#fff"/>
</svg>
