<svg xmlns="http://www.w3.org/2000/svg" viewBox="0 0 1024 1024"><defs><style>.cls-1{fill:#b7236a;}.cls-2{fill:#fff;}</style></defs><g id="Icon"><circle id="Background" class="cls-1" cx="512" cy="512" r="512"/><path class="cls-2" d="M723.83,729.3c-92.31,22.57-124.47-48.29-128.41-58-9.07-69.12,14.79-159.11-18.17-182.91-24.46-17.29-52.9,4.08-61.54,11.52h-.08c-14.61,12.83-24.24,31.37-38.5,59.89-21.76,43.63-39.57,73.81-53.59,94.64-6.55-44.24-8.15-110-3.21-197C432.09,252.44,306.61,256,306.61,256c7.48,150.44-7.49,350.78-7.49,350.78-.35,61.32,2.14,112.29,52.41,141.88,50.51,30,87.24,9,108.78-13,25.34-26.74,52.21-92.89,52.43-95.68a287.21,287.21,0,0,0,2.83,30.27C525.91,740.07,579,760,579,760c47.05,20.32,95.89-4.63,95.89-4.63-.36,0,39.38-17.78,49.61-24.32C725.24,730.37,724.89,729,723.83,729.3Z"/></g></svg>