<?xml version="1.0" encoding="utf-8"?>
<!-- Generator: Adobe Illustrator 21.0.0, SVG Export Plug-In . SVG Version: 6.00 Build 0)  -->
<svg version="1.1" xmlns="http://www.w3.org/2000/svg" xmlns:xlink="http://www.w3.org/1999/xlink" x="0px" y="0px"
	 viewBox="0 0 1024 1024" style="enable-background:new 0 0 1024 1024;" xml:space="preserve">
<style type="text/css">
	.st0{fill:#00ACD6;}
	.st1{fill:#FFFFFF;}
</style>
<g id="Min_Guides__x28_DO_NOT_REMOVE_x29_">
</g>
<g id="Max_Guides__x28_DO_NOT_REMOVE_x29_">
</g>
<g id="Icon">
	<circle id="Background" class="st0" cx="512" cy="512" r="512"/>
	<path class="st1" d="M315.4,297c-7.2,6.9-11.3,16.5-11.4,26.4v165.9h177.8v-140c-39.5-19.9-78-38.9-116.5-58.8
		C348.8,283,329.4,285.5,315.4,297z M753.8,485.8c-4.6-3.5-9.7-6.4-15.1-8.6l-196.6-96.6v261.6l199.6-98.5c4.3-1.7,8.3-4,12.1-6.7
		c7.9-6.2,12.4-15.7,12.3-25.7C766.7,501.2,762.1,491.6,753.8,485.8z M302.2,541.6v161.2c0.5,14,9.4,26.3,22.5,31.3
		c12.6,5.8,27.1,5.8,39.7,0c39.5-19.7,78-39.8,117.7-59.8V542.6c-60.3,0-119.7,0-179.8,0V541.6z"/>
</g>
</svg>
