<svg xmlns="http://www.w3.org/2000/svg" viewBox="0 0 1024 1024" style="enable-background:new 0 0 1024 1024" xml:space="preserve">
   <circle cx="512" cy="512" r="512" style="fill:#f34"/>
   <path d="m512 576.1 77.3-215.6h171.4s24.1 1.2 35.4-12.7c6.7-.5-1.4 28.9-9 50.5-7.1 20.3-16 31.9-36.1 31.9h-90.9L563.5 706h-103l-96.6-275.8H273c-20.1 0-28.9-11.6-36.1-31.9-7.6-21.6-15.7-51-9-50.5 11.3 13.9 35.4 12.7 35.4 12.7h171.4L512 576.1zM302 468.4s-24.1 1.2-35.4-12.7c-6.7-.5 1.4 28.9 9 50.5 7.1 20.3 16 31.9 36.1 31.9h71.6l-24.1-69.7H302zm38.6 107.7s-24.1 1.2-35.4-12.7c-6.7-.5 1.4 28.9 9 50.5 7.1 20.3 16 31.9 36.1 31.9h71.6l-24.1-69.7h-57.2zM722 468.4s24.1 1.2 35.4-12.7c6.7-.5-1.4 28.9-9 50.5-7.1 20.3-16 31.9-36.1 31.9h-71.6l24.1-69.7H722zm-38.6 107.7s24.1 1.2 35.4-12.7c6.7-.5-1.4 28.9-9 50.5-7.1 20.3-16 31.9-36.1 31.9h-71.6l24.1-69.7h57.2z" style="fill:#fff"/>
</svg>
