<svg xmlns="http://www.w3.org/2000/svg" viewBox="0 0 1024 1024">
   <style>
      .st1{fill:#fff}
   </style>
   <g id="Icon">
      <circle cx="512" cy="512" r="512" style="fill:#961f8c"/>
      <g id="Logo">
         <path id="_Path_3" class="st1" d="m258.3 367.1 18-16.8c3.4 5.5 9.2 9.1 15.6 9.6 7.2 0 10.8-4.8 10.8-14.4v-63.7h27.7v63.7c2.1 18.4-11.1 35.1-29.5 37.3-2.6.3-5.2.3-7.8 0-13.5 1.8-27-4.3-34.8-15.7z"/>
         <path id="_Path_4" class="st1" d="M336.5 283H417v22.8h-52.9v15.6h48.1V343h-48.1v15.6h54.1v24h-80.5l-1.2-99.6z"/>
         <path id="_Path_5" class="st1" d="M453.1 307H423v-24h87.8v24h-30.1v75.7H453V307z"/>
         <path id="_Compound_Path_" class="st1" d="M260.7 405.6h51.7c9.9-.3 19.6 2.6 27.7 8.4 4.1 4.6 6.3 10.7 6 16.8.3 10.2-6 19.4-15.6 22.8 11.5 2.1 19.7 12.3 19.2 24 0 16.8-14.4 27.7-37.3 27.7h-51.7v-99.7zm57.7 31.3c0-6-4.8-8.4-12-8.4h-18v18h16.8c8.4-1.2 13.2-3.6 13.2-9.6zm-9.6 28.8h-21.6v18h21.6c8.4 0 13.2-3.6 13.2-9.6.1-6-4.8-8.4-13.2-8.4z"/>
         <path id="_Compound_Path_2" class="st1" d="M354.5 405.6h46.9c11.9-1.1 23.6 2.8 32.5 10.8 5.9 6.1 9 14.4 8.4 22.8.3 13.6-7.9 26-20.4 31.3l24 34.9h-31.3l-20.4-30.1h-12v30.1h-27.7v-99.8zm45.7 48.1c9.6 0 14.4-4.8 14.4-12 0-8.4-6-12-14.4-12h-18v24h18z"/>
         <path id="_Compound_Path_3" class="st1" d="M474.7 405.6h26.4l42.1 101h-30.1l-7.2-18h-38.5l-7.2 18h-28.9l43.4-101zm24.1 60.1L488 438.1l-10.8 27.7h21.6z"/>
         <path id="_Path_6" class="st1" d="M546.9 405.6h27.7v99.8h-27.7v-99.8z"/>
         <path id="_Path_7" class="st1" d="M581.7 405.6H607l40.9 52.9v-52.9h27.7v99.8h-24l-42.1-54.1v55.3h-27.7v-101z"/>
         <path id="_Path_8" class="st1" d="m677.9 491 15.6-18c8.9 8 20.5 12.3 32.5 12 7.2 0 12-2.4 12-7.2 0-4.8-3.6-6-16.8-9.6-21.6-4.8-37.3-10.8-37.3-31.3 0-18 14.4-32.5 38.5-32.5 14.7-.4 29.2 4.2 40.9 13.2l-14.4 19.2c-8.2-5.7-17.7-9-27.7-9.6-7.2 0-9.6 2.4-9.6 6 0 4.8 3.6 6 16.8 9.6 22.8 4.8 37.3 12 37.3 31.3 0 20.4-15.6 32.5-40.9 32.5-17.1 1.3-34-4.3-46.9-15.6z"/>
         <path id="_Path_2" class="st1" d="M260.7 703.8h229.6v38.5H260.7z"/>
      </g>
   </g>
</svg>
