<svg xmlns="http://www.w3.org/2000/svg" viewBox="0 0 1024 1024">
   <circle cx="512" cy="512" r="512" style="fill:#14854f"/>
   <path d="M569.61 561.43A24.43 24.43 0 1 0 594 537a24.45 24.45 0 0 0-24.39 24.43zm-164.08 0a24.66 24.66 0 1 0 24.66-24.7 24.68 24.68 0 0 0-24.66 24.7zm365.83-186.78c-10.51-17.7-27.73-28.77-48.47-31.16-19.6-2.26-41.08 3-62.14 15.13C648.33 365.8 636 377.26 626 391a159.91 159.91 0 0 0-28.41-12.65c-24.38-8.22-53.22-12.12-85.72-11.59-46.3.76-84 9.39-112.81 25.72-.07-.11-.13-.21-.2-.32-10.19-14.25-22.86-26.16-35.62-33.53-21.05-12.15-42.54-17.39-62.14-15.13-20.74 2.39-38 13.45-48.47 31.16C231 411 242.93 452 283 479.11l.36.23c17.27 10.42 33.77 17 51.27 20.44a194.31 194.31 0 0 0 .09 22.72c1.35 22.2 9 44 22.27 64.15l-45 18.38a9.36 9.36 0 1 0 7.01 17.32l49.51-20.21a197.6 197.6 0 0 0 31.09 29.56l1.3 1-29 38.42a9.36 9.36 0 1 0 14.93 11.28l29.49-39a217.94 217.94 0 0 0 50 23.35 47.44 47.44 0 0 0 9.49 12.62C485.15 688.15 498 693 512 693a51.86 51.86 0 0 0 45.65-26.75 220.23 220.23 0 0 0 49.63-23.47l29.9 39.59a9.36 9.36 0 1 0 14.93-11.28l-29.45-39 .59-.44a201.6 201.6 0 0 0 30.84-29l48.26 19.7a9.36 9.36 0 1 0 7.08-17.35l-43.59-17.79c13.67-20.29 21.75-42.24 23.47-64.6a187.09 187.09 0 0 0 .38-22.91c17.39-3.45 33.81-10 51-20.38l.36-.23C781.07 452 793 411 771.36 374.65zM292 465.42c-32.61-22.15-42.28-53.71-25.24-82.41 16.19-27.26 51.69-31.36 88.33-10.21 10.56 6.09 21.56 16.48 30.25 28.54a125.29 125.29 0 0 0-17.78 15.81c-16.65 18-27.09 40.18-31.21 66.25-15.05-3.13-29.35-8.94-44.35-17.98zm220 211.22c-20.53 0-34.67-13.5-35.18-33.6a31.51 31.51 0 0 1 8.69-23.04c6.45-6.62 15.61-10.11 26.49-10.11 10.61 0 19.58 3.37 25.94 9.75 6 6 9.26 14.38 9.23 23.62-.04 18.39-15.82 33.38-35.17 33.38zm161.06-156.29-.24 2.88c-3.3 34.7-24.37 68.52-59.52 95.42a208.46 208.46 0 0 1-49.9 28.21q.14-1.79.14-3.61c0-13.63-4.95-26.14-14-35.23-9.5-9.53-22.48-14.56-37.53-14.56s-28.75 5.35-38.22 15.06a47.75 47.75 0 0 0-13.33 34.92c0 1.35.13 2.67.25 4a206.19 206.19 0 0 1-51.14-28.73C374 591.35 353.17 556.82 351 521.5c-2.36-38.86 7.23-70.22 28.52-93.22 26.82-29 71.43-44.17 132.59-45.17h5.46c56.55 0 100.17 14.64 126.38 42.48 21.83 23.12 31.87 55.89 29.11 94.76zm59-54.93c-14.88 9-29.06 14.74-43.91 17.89-4-27.14-14.9-50.58-32.24-69A123.6 123.6 0 0 0 639.72 400c8.52-11.46 19.08-21.29 29.23-27.14 36.64-21.15 72.14-17.05 88.34 10.21 17.04 28.65 7.37 60.2-25.29 82.35z" style="fill:#fff"/>
</svg>
