<?xml version="1.0" encoding="utf-8"?>
<!-- Generator: Adobe Illustrator 21.0.0, SVG Export Plug-In . SVG Version: 6.00 Build 0)  -->
<svg version="1.1" xmlns="http://www.w3.org/2000/svg" xmlns:xlink="http://www.w3.org/1999/xlink" x="0px" y="0px"
	 viewBox="0 0 1024 1024" style="enable-background:new 0 0 1024 1024;" xml:space="preserve">
<style type="text/css">
	.st0{display:none;}
	.st1{fill:#FFE01B;}
	.st2{fill:#231F20;}
</style>
<g id="Guides" class="st0">
</g>
<g id="Icon">
	<circle class="st1" cx="512" cy="512" r="512"/>
	<g>
		<title>MailChimp icon</title>
		<path class="st2" d="M633.7,497.9c3.5-0.4,7.1-0.4,10.6,0c1.9-4.4,2.2-11.9,0.5-20.1c-2.6-12.2-6-19.6-13.1-18.4
			c-7.1,1.2-7.4,10-4.8,22.2C628.3,488.4,630.9,494.3,633.7,497.9L633.7,497.9z M572.6,507.6c5.1,2.2,8.2,3.7,9.4,2.4
			c0.8-0.8,0.6-2.4-0.6-4.3c-2.5-4.1-7.7-8.3-13.2-10.6c-11.6-4.8-24.8-3.2-34.9,4.2c-3.4,2.5-6.6,6-6.2,8.1
			c0.2,0.7,0.7,1.2,1.9,1.4c2.8,0.3,12.6-4.6,23.9-5.3C560.9,502.8,567.5,505.3,572.6,507.6L572.6,507.6z M562.3,513.4
			c-6.6,1.1-10.3,3.2-12.6,5.3c-2,1.8-3.2,3.7-3.2,5.1l0.5,1.2l1.1,0.4c1.5,0,4.9-1.4,4.9-1.4c6.8-2.6,14.2-3.3,21.4-2.2
			c3.3,0.4,4.9,0.6,5.6-0.6c0.2-0.3,0.5-1-0.2-2.1C578.2,516.6,571.5,512.4,562.3,513.4L562.3,513.4z M613.1,534.9
			c4.5,2.2,9.4,1.3,11.1-1.9c1.6-3.3-0.7-7.8-5.2-10c-4.5-2.2-9.4-1.3-11.1,1.9C606.2,528.3,608.6,532.7,613.1,534.9z M642,509.6
			c-3.7-0.1-6.7,4-6.8,9c-0.1,5,2.8,9.1,6.5,9.2c3.7,0.1,6.7-4,6.8-9C648.6,513.8,645.7,509.7,642,509.6z M396.1,600.3
			c-0.9-1.1-2.4-0.8-3.8-0.4c-1.1,0.3-2.3,0.5-3.4,0.5c-2.5,0.1-4.8-1.1-6.2-3.2c-1.7-2.6-1.6-6.4,0.3-10.8l0.9-2
			c2.9-6.6,7.9-17.6,2.4-28.2c-4.1-7.9-10.9-12.9-19.1-13.9c-7.8-1-15.6,1.8-21,7.6c-8.1,8.9-9.4,21.1-7.8,25.4
			c0.6,1.6,1.5,2,2.1,2.1c1.4,0.2,3.4-0.8,4.7-4.3l0.4-1.1c0.6-1.8,1.6-5.2,3.4-7.9c4.4-6.8,13.5-8.7,20.4-4.3c0,0,0,0,0,0
			c5.7,3.7,7.9,10.7,5.5,17.3c-1.3,3.4-3.3,10-2.8,15.4c0.9,10.9,7.6,15.3,13.6,15.8c5.9,0.2,10-3.1,11-5.5
			C397,601.5,396.5,600.6,396.1,600.3L396.1,600.3L396.1,600.3z M734.4,580.3c-0.2-0.8-1.7-6.1-3.7-12.5l-4.1-10.9
			c8-12,8.1-22.8,7.1-28.9c-1.2-7.5-4.3-14-10.6-20.6c-6.3-6.7-19.2-13.5-37.4-18.6l-9.5-2.7c0-0.4-0.5-22.5-0.9-32
			c-0.3-6.8-0.9-17.6-4.2-28.1c-4-14.3-10.8-26.8-19.5-34.8c23.7-24.6,38.5-51.8,38.5-75c-0.1-44.8-55-58.4-122.6-30.3l-14.3,6.1
			c-8.8-8.6-17.5-17.2-26.3-25.8c-77.2-67.4-318.3,201.1-241.2,266.3l16.9,14.3c-4.6,12.2-6.2,25.4-4.7,38.3
			c1.8,18,11.1,35.1,26,48.4c14.2,12.6,32.9,20.6,51.1,20.6c30,69.3,98.5,111.7,178.9,114.1c86.2,2.6,158.6-38,189-110.8
			c2-5.1,10.4-28.2,10.4-48.5C753.3,588.7,741.7,580.3,734.4,580.3z M381.7,634.8c-2.6,0.5-5.3,0.6-8,0.6c-26-0.7-54.2-24.2-57-52
			c-3.1-30.8,12.6-54.5,40.4-60.1c3.8-0.8,7.8-1.1,11.7-0.9c15.6,0.9,38.5,12.8,43.8,46.8C417.2,599.3,409.8,630,381.7,634.8
			L381.7,634.8z M352.6,504.8c-17.3,3.4-32.6,13.2-41.9,26.8c-5.6-4.7-16-13.7-17.8-17.2c-14.9-28.3,16.2-83.4,38-114.5
			c53.8-76.9,138-135,177-124.5c6.3,1.8,27.3,26.2,27.3,26.2s-39,21.7-75.1,51.9C411.4,391,374.6,445.6,352.6,504.8L352.6,504.8z
			 M625.9,623.3c0.6-0.3,0.9-0.9,0.9-1.5c-0.1-0.8-0.8-1.4-1.6-1.3c0,0,0,0,0,0c0,0-40.8,6-79.3-8.1c4.2-13.7,15.3-8.7,32.2-7.4
			c26.2,1.6,52.5-1.3,77.8-8.4c17.4-5,40.4-14.9,58.2-29c6,13.2,8.1,27.7,8.1,27.7s4.6-0.8,8.5,1.6c3.7,2.3,6.3,7,4.5,19.1
			c-3.7,22.7-13.4,41.2-29.6,58.1c-10.1,11-22.2,20-35.5,26.6c-7.4,3.9-15.2,7.2-23.2,9.8c-61.1,20-123.6-2-143.8-49.2
			c-1.6-3.6-3-7.3-4.1-11.2c-8.6-31.1-1.3-68.4,21.5-91.9c1.4-1.5,2.8-3.3,2.8-5.5c0-1.9-1.2-3.8-2.2-5.2
			c-8-11.6-35.6-31.3-30.1-69.6c4-27.5,28-46.8,50.3-45.6l5.7,0.3c9.7,0.6,18.1,1.8,26.1,2.2c13.3,0.6,25.3-1.4,39.5-13.2
			c4.8-4,8.6-7.5,15.1-8.6c0.7-0.1,2.4-0.7,5.8-0.6c3.5,0.1,6.8,1.2,9.7,3.1c11.4,7.6,13,26,13.6,39.4c0.3,7.7,1.3,26.2,1.6,31.6
			c0.7,12.2,3.9,13.9,10.4,16c3.6,1.2,7,2.1,12,3.5c15.1,4.3,24,8.6,29.6,14.1c3.4,3.4,4.9,7.1,5.4,10.6c1.8,13-10,29-41.4,43.6
			c-34.3,15.9-75.9,20-104.6,16.8l-10.1-1.1c-23-3.1-36.1,26.7-22.3,47c8.9,13.1,33.1,21.7,57.3,21.7c55.6,0,98.3-23.7,114.2-44.3
			l1.3-1.8c0.8-1.2,0.1-1.8-0.9-1.2c-13,8.9-70.6,44.2-132.3,33.6c0,0-7.5-1.2-14.3-3.9c-5.4-2.1-16.8-7.4-18.2-19
			C594.6,637.9,625.9,623.3,625.9,623.3L625.9,623.3z M547.1,614L547.1,614L547.1,614L547.1,614z M451.9,399.6
			c19.1-22.1,42.7-41.4,63.7-52.2c0.7-0.4,1.5,0.4,1.1,1.1c-1.7,3-4.9,9.6-5.9,14.5c-0.1,0.5,0.2,0.9,0.7,1c0.2,0,0.5,0,0.7-0.1
			c13.1-9,35.9-18.6,56-19.8c0.9-0.1,1.3,1,0.6,1.6c-3.3,2.5-6.3,5.5-8.8,8.8c-0.3,0.4-0.2,0.9,0.2,1.2c0.1,0.1,0.3,0.2,0.5,0.2
			c14,0.1,33.9,5,46.8,12.3c0.9,0.5,0.3,2.2-0.7,2c-19.5-4.5-51.5-7.9-84.7,0.2c-29.6,7.2-52.3,18.4-68.8,30.5
			C452.2,401.4,451.2,400.3,451.9,399.6L451.9,399.6z"/>
	</g>
</g>
</svg>
