<svg xmlns="http://www.w3.org/2000/svg" viewBox="0 0 1024 1024">
   <circle cx="512" cy="512" r="512" style="fill:#48e0a4"/>
   <path d="M336.4 466.5v14h.8c25-15.1 50.8-16.3 66.2-16.3 41.6 0 55.9 11.7 61.1 16.2 9.6-5.5 30.1-16.6 65.8-16.6 71 0 71 28 71 39V569h-57v-58.5c0-12.1 0-25.6-30.4-25.6-15 0-30.5 4.6-35.9 11.3-5.1 5.7-7.1 10.9-7.1 23.6v49.6h-57v-56.5c0-17.4.4-28-29.6-28-15.1 0-30.5 4-36.3 9.9-4.6 4.5-7.5 9.3-7.5 24.4v50h-57.3v-103h53c0 .1.2.3.2.3zm402.9 22.8h-41.4v41.2c0 14.5 0 19.3 16.9 19.3 8 0 15.2-.9 22.8-2.4l1.7-.2 5.4 20.9c-20 3.7-42 4.1-48.2 4.1-18.6 0-42.7-2.7-51.6-10.4-7.6-6.3-8.5-12.4-8.5-28v-44.6h-28.1v-21.5h28.1v-20.3l61.8-15.9v36.3h41.6v21.5c-.1-.1-.5 0-.5 0zM255.5 627.5c-22.7-34.3-37.8-75-37.8-116 0-48.4 19-87.8 38.3-115.5h23c-17 37.8-28.6 69.9-28.6 116.5 0 53.5 19 94.8 27.6 113.5.3 0 .8 1.1.8 1.5h-23.3zm513-231c22.7 34.3 37.8 75 37.8 116 0 48.3-19 87.8-38.3 115.5h-23c17-37.8 28.7-69.9 28.7-116.5 0-53.6-19.1-94.7-27.7-113.5-.3-.2-.8-1.2-.8-1.5h23.3z" style="fill:#fff"/>
</svg>
