<?xml version="1.0" encoding="utf-8"?>
<!-- Generator: Adobe Illustrator 21.0.0, SVG Export Plug-In . SVG Version: 6.00 Build 0)  -->
<svg version="1.1" xmlns="http://www.w3.org/2000/svg" xmlns:xlink="http://www.w3.org/1999/xlink" x="0px" y="0px"
	 viewBox="0 0 1024 1024" style="enable-background:new 0 0 1024 1024;" xml:space="preserve">
<style type="text/css">
	.st0{fill:#FFE600;}
</style>
<g id="Min_Guides__x28_DO_NOT_REMOVE_x29_">
</g>
<g id="Max_Guides__x28_DO_NOT_REMOVE_x29_">
</g>
<g id="Icon">
	<circle id="Background" class="st0" cx="512" cy="512" r="512"/>
	<path d="M442.9,425.1l16.9-16.9c0.1-0.1,0.2-0.1,0.2-0.2c4.6-3.2,9.4-6.1,14.7-8.6c3.4-1.6,7-3.1,10.9-4.5c2.2-0.7,4.4-1.4,6.8-2.1
		c2.3-0.6,4.8-1.2,7.3-1.7s5.1-1,7.8-1.3c5.4-0.8,11.2-1.2,17.5-1.4c0,0,0,0,0,0c0.9,0,1.8,0,2.7,0c0.5,0,1,0,1.5,0
		c0.5,0,1.1,0,1.6,0c0.5,0,1,0,1.5,0.1c0.5,0,1.1,0,1.6,0.1c0.5,0,1,0.1,1.5,0.1c0.5,0,1.1,0.1,1.6,0.1c0.5,0,1,0.1,1.5,0.1
		c0.5,0.1,1.1,0.1,1.6,0.2c0.5,0.1,1,0.1,1.5,0.2c0.5,0.1,1,0.1,1.6,0.2c0.5,0.1,1,0.1,1.5,0.2c0.5,0.1,1,0.1,1.5,0.2
		c0.5,0.1,1,0.2,1.5,0.2c0.5,0.1,1,0.2,1.5,0.2c0.5,0.1,1,0.2,1.5,0.3c0.5,0.1,1,0.2,1.5,0.3c0.5,0.1,1,0.2,1.5,0.3
		c0.5,0.1,1,0.2,1.4,0.3c0.5,0.1,1,0.2,1.4,0.3c0.5,0.1,0.9,0.2,1.4,0.3c0.5,0.1,0.9,0.2,1.4,0.3c0.5,0.1,0.9,0.2,1.4,0.3
		c0.5,0.1,0.9,0.2,1.4,0.3c0.4,0.1,0.9,0.2,1.3,0.3c0.4,0.1,0.9,0.2,1.3,0.3c0.4,0.1,0.9,0.2,1.3,0.3c0.4,0.1,0.9,0.2,1.3,0.4
		c0.4,0.1,0.8,0.2,1.2,0.3c0.4,0.1,0.8,0.2,1.3,0.4c0.4,0.1,0.8,0.2,1.2,0.4c0.4,0.1,0.8,0.2,1.2,0.4c0.4,0.1,0.8,0.2,1.1,0.4
		c0.4,0.1,0.8,0.2,1.2,0.4c0.4,0.1,0.7,0.2,1.1,0.3c0.4,0.1,0.8,0.2,1.1,0.4c0.3,0.1,0.7,0.2,1,0.3c0.4,0.1,0.7,0.2,1.1,0.4
		c0.3,0.1,0.6,0.2,1,0.3c0.3,0.1,0.7,0.2,1,0.4c0.3,0.1,0.6,0.2,0.9,0.3c0.3,0.1,0.6,0.2,0.9,0.3c0.3,0.1,0.6,0.2,0.8,0.3
		c0.3,0.1,0.6,0.2,0.9,0.3c0.3,0.1,0.5,0.2,0.8,0.3c0.3,0.1,0.6,0.2,0.8,0.3c0.2,0.1,0.5,0.2,0.7,0.3c0.2,0.1,0.5,0.2,0.7,0.3
		c0.2,0.1,0.4,0.2,0.6,0.3c0.2,0.1,0.5,0.2,0.7,0.3c0.2,0.1,0.4,0.1,0.5,0.2c0.2,0.1,0.4,0.2,0.6,0.2c0.2,0.1,0.3,0.1,0.5,0.2
		c0.2,0.1,0.3,0.1,0.5,0.2c0.2,0.1,0.3,0.1,0.4,0.2c0.1,0.1,0.3,0.1,0.4,0.2c0.1,0.1,0.2,0.1,0.3,0.2c0.1,0,0.2,0.1,0.3,0.1
		c0.1,0.1,0.2,0.1,0.3,0.1c0.1,0,0.1,0.1,0.2,0.1c0.1,0,0.1,0,0.2,0.1c0.1,0.1,0.2,0.1,0.2,0.1c1.6,0.8,3.1,1.5,4.7,2.2
		c0.2,0.1,0.5,0.2,0.7,0.3c1.5,0.7,3,1.3,4.5,1.9c0.3,0.1,0.6,0.2,0.9,0.4c1.5,0.6,3,1.2,4.5,1.8c0.2,0.1,0.4,0.2,0.6,0.2
		c1.5,0.6,3,1.1,4.5,1.6c0.1,0,0.2,0.1,0.3,0.1c1.5,0.5,3.1,1,4.6,1.5c0.3,0.1,0.5,0.2,0.8,0.3c1.5,0.5,3,0.9,4.4,1.3
		c0.3,0.1,0.6,0.2,0.8,0.2c1.5,0.4,3,0.8,4.5,1.2c0.2,0,0.3,0.1,0.5,0.1c1.5,0.4,2.9,0.7,4.4,1c0.2,0,0.3,0.1,0.5,0.1
		c1.5,0.3,3,0.6,4.5,0.9c0.3,0.1,0.6,0.1,0.8,0.2c1.5,0.3,2.9,0.5,4.4,0.8c0.3,0,0.5,0.1,0.8,0.1c1.5,0.2,3,0.5,4.6,0.7
		c0.1,0,0.2,0,0.3,0c1.5,0.2,3,0.4,4.5,0.5c0.2,0,0.4,0,0.6,0.1c1.5,0.2,3,0.3,4.4,0.4c0.3,0,0.6,0,0.8,0.1c1.5,0.1,2.9,0.2,4.4,0.3
		c0.2,0,0.5,0,0.7,0c1.5,0.1,3.1,0.1,4.6,0.2c0,0,0,0,0,0c1.5,0,3.1,0.1,4.6,0.1c0.1,0,0.3,0,0.4,0c0.1,0,0.1,0,0.2,0
		c2.1,0,4.2,0,6.3-0.1c0,0,0,0,0,0c2.1-0.1,4.2-0.2,6.3-0.3c0.2,0,0.3,0,0.5,0c2-0.1,3.9-0.3,5.8-0.5c0.2,0,0.4,0,0.6-0.1
		c2-0.2,3.9-0.4,5.9-0.6c0.1,0,0.3,0,0.4,0c2.1-0.3,4.1-0.5,6.2-0.8c0.1,0,0.1,0,0.2,0c2-0.3,4-0.6,6-1c0.2,0,0.4-0.1,0.5-0.1
		c1.9-0.3,3.8-0.7,5.6-1.1c0.2,0,0.4-0.1,0.6-0.1c1.9-0.4,3.8-0.8,5.8-1.3c0.1,0,0.2,0,0.3-0.1c2-0.5,4-0.9,5.9-1.5
		c0.1,0,0.2-0.1,0.3-0.1c1.9-0.5,3.8-1,5.6-1.5c0.2-0.1,0.4-0.1,0.6-0.2c1.8-0.5,3.6-1,5.4-1.6c0.2-0.1,0.3-0.1,0.5-0.2
		c1.9-0.6,3.7-1.2,5.6-1.8c0.1,0,0.1,0,0.2-0.1c1.9-0.6,3.8-1.3,5.7-1.9c0.1,0,0.3-0.1,0.4-0.1c1.8-0.6,3.5-1.3,5.3-1.9
		c0.2-0.1,0.4-0.1,0.6-0.2c1.7-0.6,3.4-1.3,5.1-2c0.2-0.1,0.3-0.1,0.5-0.2c1.8-0.7,3.6-1.4,5.4-2.2c0,0,0,0,0,0
		c0.2,0.2,0.4,0.3,0.6,0.5c2,1.6,3.9,3.2,5.8,4.9c1.4,1.2,2.8,2.4,4.1,3.6c2.1,1.9,4.1,3.8,6,5.7c1.1,1.1,2.2,2.1,3.2,3.2
		c1,1,2,2.1,3,3.1c1.1,1.2,2.2,2.3,3.2,3.5c2.3,2.5,4.4,5,6.5,7.5c1,1.2,2,2.4,2.9,3.6c1.2,1.6,2.5,3.2,3.7,4.8
		c2.5,3.3,4.8,6.7,7,10.2c2.9,4.6,5.6,9.2,8,14c1.2,2.4,2.4,4.7,3.4,7.1c1.1,2.4,2.1,4.8,3.1,7.2c3.8,9.7,6.6,19.7,8.2,29.8
		c-9.6,2.2-18.9,4.5-27.8,6.8c-5.6,1.5-11,2.9-16.3,4.4c-3.2,0.9-6.3,1.8-9.3,2.7c-1,0.3-2,0.6-3,0.9c-2,0.6-4,1.2-6,1.8
		c-5.9,1.8-11.5,3.6-16.9,5.3c-0.9,0.3-1.8,0.6-2.7,0.9c-5.3,1.7-10.3,3.5-15.1,5.1c-2.4,0.8-4.7,1.7-6.9,2.5
		c-9.7,3.5-17.9,6.7-24.6,9.4c-1.5,0.6-3,1.2-4.4,1.8c-1.4,0.6-2.7,1.1-3.9,1.6c-2.3,1-4.3,1.8-5.9,2.6
		c-7.1-6.2-33.4-29.1-55.8-48.3c-27.2-23.4-62.2-53.2-74.9-62.8l-0.1,0l-0.1,0c-15.5-11.4-25.1-14.9-34.7-16.7l-0.1,0l-0.1,0
		c-1.8-0.3-3.7-0.4-5.7-0.4c-4.6,0-9.8,0.8-14.2,2.2c-10.9,3-25.4,11.5-43.1,25.2l0,0l0,0l-2.2,1.8c-11.4,9-22.2,17.6-30.3,19.1
		l-0.3,0.1l-0.3,0.1c-2.8,0.7-5.9,1-9.2,1c-9.6,0-18.6-2.9-22.3-5.6l-0.4-0.3l-0.5-0.3c-0.8-0.5-1.5-1.1-2.1-2
		c0.2-0.3,0.4-0.7,0.8-1l0.2-0.2l0.2-0.2l28.8-31.7l3.3-3.3L442.9,425.1z M515.4,641.5c-0.5-1.9-1.1-3.6-2-5.3
		c-0.4-0.8-0.9-1.7-1.3-2.5c-5.1-8.4-14.3-14-24.8-14c-0.8,0-1.6,0.1-2.5,0.2c-0.8,0.1-1.6,0.2-2.5,0.4c-1.6,0.3-3.2,0.8-4.5,1.2
		c-0.7,0.2-1.3,0.5-1.9,0.7c-0.1,0-0.2,0.1-0.2,0.1c-0.8,0.3-1.4,0.5-1.9,0.7c-0.5,0.2-0.9,0.3-1,0.3c-0.3,0-0.3-0.4-0.3-1.1
		c0.1-0.5,0.2-1.1,0.4-1.6c0.2-0.6,0.4-1.2,0.6-1.7c0.1-0.3,0.6-1.4,1-3.1c0.1-0.6,0.3-1.2,0.4-1.9s0.3-1.5,0.4-2.3
		c0.1-0.8,0.2-1.6,0.3-2.5c0.1-1.3,0.2-2.7,0.2-4.2c0-1,0-2-0.1-3c-0.2-2-0.5-4-1.2-6c-0.6-2-1.5-4-2.8-5.8c-0.3-0.5-0.6-0.9-1-1.4
		c-2.1-2.7-5-5-8.9-6.8c-0.5-0.2-1.1-0.5-1.6-0.7c-0.2-0.1-0.3-0.1-0.5-0.2c-0.4-0.1-0.7-0.3-1.1-0.4c-0.2-0.1-0.4-0.1-0.6-0.2
		c-0.3-0.1-0.6-0.2-1-0.3c-0.2-0.1-0.4-0.1-0.6-0.2c-0.3-0.1-0.6-0.2-0.9-0.2c-0.2,0-0.4-0.1-0.5-0.1c-0.3-0.1-0.7-0.1-1-0.2
		c-0.1,0-0.3-0.1-0.4-0.1c-0.5-0.1-0.9-0.1-1.4-0.2c-0.1,0-0.1,0-0.2,0c-0.4,0-0.8-0.1-1.1-0.1c-0.2,0-0.3,0-0.5,0
		c-0.3,0-0.6,0-0.9,0c-0.1,0-0.3,0-0.4,0c-0.4,0-0.8,0-1.2,0c-0.1,0-0.2,0-0.3,0c-0.5,0-0.9,0.1-1.4,0.1c-0.1,0-0.2,0-0.3,0
		c-0.4,0.1-0.7,0.1-1,0.2c-0.1,0-0.2,0-0.3,0.1c-0.4,0.1-0.8,0.2-1.2,0.3c0,0-0.1,0-0.1,0c-0.4,0.1-0.7,0.2-1.1,0.3
		c-0.1,0-0.2,0.1-0.3,0.1c-0.3,0.1-0.6,0.2-0.9,0.3c-0.1,0-0.1,0-0.2,0.1c-0.4,0.1-0.7,0.3-1,0.4c-0.1,0-0.2,0.1-0.3,0.1
		c-0.3,0.1-0.5,0.3-0.8,0.4c-0.1,0-0.2,0.1-0.2,0.1c-0.3,0.2-0.6,0.3-0.9,0.5c0,0-0.1,0.1-0.1,0.1c-0.2,0.1-0.5,0.3-0.7,0.5
		c-0.1,0.1-0.1,0.1-0.2,0.2c-0.2,0.2-0.5,0.3-0.7,0.5c0,0-0.1,0-0.1,0.1c-0.2,0.2-0.5,0.4-0.7,0.5c-0.1,0-0.1,0.1-0.2,0.1
		c-0.2,0.1-0.3,0.3-0.5,0.4c0,0-0.1,0.1-0.1,0.1c0,0,0,0,0,0c-0.2,0.2-0.4,0.3-0.5,0.5c0,0-0.1,0.1-0.1,0.1
		c-0.1,0.1-0.3,0.3-0.4,0.4c0,0-0.1,0.1-0.1,0.1c-0.1,0.2-0.3,0.3-0.4,0.4c-0.4,0.4-0.7,0.5-1,0.5s-0.5-0.2-0.5-0.5
		c0-0.1,0-0.3,0-0.4c0-0.6-0.1-1.4-0.2-2.2c-0.1-0.4-0.1-0.9-0.2-1.3c-0.2-1.1-0.6-2.4-1-3.7c-0.3-0.8-0.6-1.6-1-2.4
		c-0.3-0.5-0.6-1.1-0.9-1.6c-0.3-0.5-0.7-1.1-1.1-1.6c-1.2-1.6-2.6-3.1-4.4-4.5c-0.6-0.5-1.2-0.9-1.9-1.3c-1.7-1-3.7-1.9-5.9-2.6
		c-0.6-0.2-1.1-0.3-1.7-0.5c-0.2,0-0.3-0.1-0.5-0.1c-0.4-0.1-0.9-0.2-1.3-0.3c-0.1,0-0.2-0.1-0.4-0.1c-0.5-0.1-1.1-0.2-1.6-0.3
		c-0.1,0-0.3,0-0.4-0.1c-0.4-0.1-0.8-0.1-1.2-0.2c-0.1,0-0.3,0-0.4,0c-0.5,0-1-0.1-1.5-0.1c0,0,0,0-0.1,0c-0.5,0-0.9,0-1.4,0
		c-0.2,0-0.4,0-0.5,0c-0.3,0-0.7,0-1,0c-0.2,0-0.3,0-0.5,0c-0.3,0-0.7,0.1-1,0.1c-0.1,0-0.3,0-0.4,0c-0.9,0.1-1.9,0.3-2.8,0.5
		c-0.1,0-0.2,0.1-0.4,0.1c-0.3,0.1-0.6,0.2-1,0.3c-0.1,0-0.3,0.1-0.4,0.1c-0.3,0.1-0.6,0.2-0.9,0.3c-0.1,0-0.2,0.1-0.4,0.1
		c-0.3,0.1-0.7,0.3-1,0.4c-0.1,0-0.1,0-0.2,0.1c-0.4,0.2-0.8,0.3-1.2,0.5c0,0-0.1,0-0.1,0.1c-0.3,0.2-0.7,0.3-1,0.5
		c-0.1,0.1-0.2,0.1-0.3,0.2c-0.3,0.1-0.5,0.3-0.8,0.4c-0.1,0.1-0.2,0.1-0.3,0.2c-0.3,0.2-0.5,0.3-0.8,0.5c-0.1,0-0.2,0.1-0.2,0.1
		c-0.7,0.4-1.3,0.9-2,1.3c-0.1,0-0.1,0.1-0.2,0.1c-0.3,0.2-0.5,0.4-0.7,0.6c-0.1,0.1-0.2,0.1-0.2,0.2c-0.2,0.2-0.4,0.3-0.6,0.5
		c-0.1,0.1-0.2,0.1-0.2,0.2c-0.2,0.2-0.5,0.4-0.7,0.6c0,0-0.1,0.1-0.1,0.1c-0.5,0.5-1,0.9-1.5,1.4c-0.1,0.1-0.1,0.1-0.2,0.2
		c-0.2,0.2-0.3,0.3-0.5,0.5c-0.1,0.1-0.1,0.1-0.2,0.2c-0.2,0.2-0.3,0.3-0.5,0.5c-0.1,0.1-0.1,0.1-0.2,0.2c-0.2,0.2-0.3,0.3-0.5,0.5
		c0,0,0,0,0,0.1c0,0,0,0-0.1,0.1c-0.2,0.2-0.4,0.4-0.5,0.6c0,0-0.1,0.1-0.1,0.1c-0.1,0.2-0.3,0.3-0.4,0.5c-0.1,0.1-0.1,0.1-0.2,0.2
		c-0.1,0.1-0.2,0.3-0.3,0.4c0,0.1-0.1,0.1-0.1,0.2c-0.1,0.1-0.2,0.2-0.3,0.4c0,0-0.1,0.1-0.1,0.1c-0.1,0.2-0.2,0.3-0.3,0.5
		c0-0.3-0.1-0.6-0.1-0.9c-1.8-11.2-11-19.5-23.1-19.5c-10,0-18.3,6-21.7,14.7c-1,2.6-1.6,5.5-1.6,8.5c0,13.1,10.2,23.2,23.2,23.2
		c6.5,0,11.6-2.2,16-6.5c0,0,0,0,0,0.7c-0.2,1.5-0.5,3.9-0.4,6.8c0,0.7,0,1.5,0.1,2.3c0.1,2,0.4,4.1,1,6.2c0.3,1.3,0.7,2.6,1.3,3.9
		c0.7,1.7,1.6,3.5,2.8,5.2c1.4,2.1,3.3,4.1,5.6,5.9c0.9,0.7,1.9,1.4,3,2c1.6,1,3.5,1.8,5.5,2.6c0.5,0.2,1,0.4,1.4,0.5
		c0.1,0,0.2,0.1,0.3,0.1c0.5,0.2,0.9,0.3,1.4,0.4c0.1,0,0.1,0,0.2,0c0.4,0.1,0.8,0.2,1.2,0.3c0.1,0,0.2,0,0.3,0
		c0.4,0.1,0.9,0.1,1.3,0.2c0.1,0,0.2,0,0.3,0c0.4,0,0.8,0,1.2,0.1c0,0,0.1,0,0.1,0c0.1,0,0.2,0,0.3,0c0.5,0,1,0,1.6-0.1
		c0.2,0,0.3,0,0.5-0.1c0.5-0.1,0.9-0.1,1.4-0.2c0.1,0,0.3,0,0.4-0.1c0.6-0.1,1.1-0.3,1.7-0.4c0.1,0,0.2-0.1,0.4-0.1
		c0.4-0.1,0.9-0.3,1.3-0.5c0.2-0.1,0.3-0.1,0.5-0.2c0.5-0.2,0.9-0.4,1.4-0.6c0.1,0,0.2-0.1,0.3-0.1c0.5-0.3,1.1-0.5,1.6-0.8
		c0.1-0.1,0.3-0.2,0.4-0.2c0.4-0.2,0.8-0.4,1.2-0.7c0.1-0.1,0.3-0.2,0.4-0.3c0.5-0.3,1-0.6,1.5-1c0,0,0,0,0,0c0,0,0,0,0,0
		c0.2-0.2,0.5-0.3,0.6-0.4c0.1,0,0.1-0.1,0.2-0.1c0.1-0.1,0.2-0.1,0.4-0.2c0,0,0.1,0,0.1-0.1c0.1,0,0.2-0.1,0.3-0.1c0,0,0,0,0.1,0
		c0,0,0,0,0,0c0.1,0,0.2,0,0.2,0.1c0,0,0,0,0,0c0.1,0,0.1,0.1,0.1,0.2c0,0,0,0,0,0c0,0.1,0.1,0.2,0.1,0.3c0,0,0,0,0,0.1
		c0,0.1,0,0.2,0,0.4c0,0,0,0.1,0,0.1c0,0.1,0,0.3,0,0.4c0,0.3-0.1,0.7-0.1,1c0,0.4-0.1,0.8-0.1,1.2c0,0.2,0,0.4,0,0.6
		c0,0.4,0,0.9,0.1,1.3c0.1,0.9,0.2,1.9,0.5,2.9c0.2,1,0.6,2.1,1.1,3.2c0.2,0.5,0.5,1.1,0.8,1.6c0.3,0.5,0.6,1.1,1,1.6
		c0.8,1.1,1.7,2.2,2.8,3.2c0.6,0.5,1.2,1.1,1.8,1.6c2.3,1.8,5.2,3.5,8.8,4.9c0.4,0.2,0.8,0.3,1.3,0.5c0.1,0,0.3,0.1,0.4,0.1
		c0.3,0.1,0.6,0.2,0.8,0.3c0.2,0,0.3,0.1,0.4,0.1c0.3,0.1,0.5,0.1,0.8,0.2c0.1,0,0.3,0.1,0.4,0.1c0.3,0.1,0.5,0.1,0.8,0.2
		c0.1,0,0.3,0.1,0.4,0.1c0.3,0.1,0.6,0.1,0.9,0.2c0.1,0,0.1,0,0.2,0c0.4,0.1,0.7,0.1,1.1,0.1c0.1,0,0.2,0,0.3,0c0.2,0,0.5,0,0.7,0.1
		c0.1,0,0.2,0,0.4,0c0.2,0,0.4,0,0.6,0c0.1,0,0.2,0,0.3,0c0.3,0,0.6,0,1,0c0,0,0.1,0,0.1,0c0.4,0,0.7-0.1,1-0.1c0.1,0,0.2,0,0.3,0
		c0.3,0,0.5-0.1,0.8-0.1c0.1,0,0.2,0,0.2,0c0.3-0.1,0.6-0.1,1-0.2c0.1,0,0.1,0,0.2,0c0.3-0.1,0.5-0.1,0.8-0.2c0.1,0,0.2-0.1,0.3-0.1
		c0.3-0.1,0.5-0.2,0.8-0.3c0,0,0.1,0,0.1,0c0.3-0.1,0.6-0.2,0.8-0.4c0.1,0,0.1-0.1,0.2-0.1c0.2-0.1,0.4-0.2,0.6-0.3
		c0.1,0,0.1-0.1,0.2-0.1c0.3-0.1,0.5-0.3,0.8-0.4c0.1,0,0.1-0.1,0.2-0.1c0.2-0.1,0.4-0.2,0.6-0.4c0.1,0,0.1-0.1,0.2-0.1
		c0.2-0.1,0.4-0.3,0.7-0.5c0,0,0,0,0,0c0.2-0.2,0.4-0.3,0.7-0.5c0.1,0,0.1-0.1,0.2-0.1c0.2-0.1,0.3-0.3,0.5-0.4c0,0,0.1-0.1,0.1-0.1
		c0.2-0.2,0.4-0.3,0.6-0.5c0,0,0.1-0.1,0.1-0.1c0.2-0.1,0.3-0.3,0.5-0.4c0,0,0.1-0.1,0.1-0.1c0.2-0.2,0.4-0.3,0.5-0.5c0,0,0,0,0,0
		c0.2-0.2,0.4-0.4,0.5-0.5c0,0,0.1-0.1,0.1-0.1c0.2-0.1,0.3-0.3,0.5-0.3c0,0,0,0,0.1,0c0.1-0.1,0.2-0.1,0.4-0.2c0,0,0,0,0.1,0
		c0.1,0,0.2-0.1,0.3-0.1c0,0,0,0,0,0c0,0,0,0,0.1,0c0.1,0,0.1,0,0.1,0c0,0,0.1,0,0.1,0c0,0,0.1,0,0.1,0.1c0,0,0,0,0.1,0.1
		c0,0,0.1,0.1,0.1,0.2c0,0,0,0,0,0c0,0.1,0.1,0.2,0.1,0.3c0,0,0,0.1,0,0.1c0,0.1,0,0.2,0.1,0.3c0,0,0,0.1,0,0.1c0,0.1,0,0.2,0,0.3
		c0,0.1,0,0.1,0,0.2c0,0.1,0,0.2,0,0.3c0,0.1,0,0.1,0,0.2c0,0.2,0,0.4,0,0.6c0.1,1.9,0.4,3.8,0.8,5.6c0.5,1.8,1.1,3.5,1.9,5.2
		c0.8,1.6,1.7,3.2,2.8,4.7c1.1,1.5,2.3,2.8,3.6,4.1c0.7,0.6,1.3,1.2,2.1,1.8c1.4,1.1,2.9,2.1,4.6,3c0.8,0.4,1.6,0.8,2.5,1.2
		c1.3,0.5,2.6,1,3.9,1.3c0.9,0.2,1.8,0.4,2.7,0.5c1.4,0.2,2.8,0.3,4.2,0.3c6.6,0,12.8-2.3,17.7-6c0.3-0.2,0.5-0.4,0.8-0.6
		c0.7-0.6,1.4-1.2,2.1-1.9c1-1,1.9-2,2.7-3.2c0.3-0.4,0.5-0.8,0.8-1.1c1.3-1.9,2.4-4,3.2-6.2c1.1-3.1,1.8-6.5,1.8-9.9
		C516.4,646.2,516,643.8,515.4,641.5z M695.6,572.9c-0.9-1.8-2.9-3.5-2.9-3.5l-4.3-3.7c-2.2-1.9-5.8-5-10.5-9.1
		c-27.2-23.6-99.3-86.2-118.5-100.5c-11.2-7.9-17.6-11.7-22.5-13.4c-2.8-0.7-5.7-1.4-9.4-1.4c-3.7,0-7.6,0.7-11.9,2l-0.2,0.1
		l-0.2,0.1c-9.6,2.6-20.7,11.3-31.4,19.8c-1.2,0.9-2.3,1.8-3.5,2.7c-13.1,10.7-27,21.3-38.9,24.1l-0.1,0l-0.1,0
		c-5.2,1.1-10.5,1.7-15.8,1.7c-15.1,0-27.8-4.7-33.9-12.6l-0.1-0.1l-0.1-0.1c-4.9-6.5-3.9-15.5,2.3-22l28.1-31l0.2-0.2l0.2-0.2
		c2.8-2.8,5.6-5.6,8.4-8.3c-4.5,0.8-8.9,1.8-13.3,2.8c-3.3,0.8-6.6,1.6-9.8,2.4c-2,0.5-4,1.1-6,1.6c-1.3,0.3-2.7,0.7-4,1
		c-2,0.5-3.9,1-5.8,1.4c-3.2,0.7-6.4,1.2-9.6,1.5c-1.3,0.1-2.5,0.2-3.8,0.3c-0.6,0-1.3,0-1.9,0c-4.3,0-27.6-3.6-31.9-5.1
		c-2.5-0.7-5-1.4-7.5-2c-1.6-0.5-3.3-0.9-4.9-1.4c-2.4-0.7-4.9-1.4-7.3-2.1c-1.6-0.5-3.3-1-4.9-1.5c-0.8-0.3-1.6-0.5-2.5-0.8
		c-2.5-0.8-4.9-1.6-7.4-2.4c-1.7-0.5-3.3-1.1-5-1.7c-2.5-0.9-5.1-1.8-7.7-2.8c-1.8-0.7-3.5-1.3-5.3-2c-1.2-0.4-2.3-0.9-3.5-1.4
		c-1.3-0.5-2.6-1-4-1.6c-0.7-0.3-1.3-0.5-2-0.8c-2.4-1-4.9-2-7.5-3.1c-1.3-0.5-2.6-1.1-3.9-1.7c-3.7-1.6-7.6-3.3-11.6-5.2
		c-3.9,2.9-7.6,5.9-11.3,9s-7.2,6.2-10.6,9.3c-1.1,1-2.2,2.1-3.3,3.2c-2.2,2.1-4.4,4.3-6.4,6.5c-2.1,2.2-4.1,4.4-6.1,6.6
		c-2,2.2-3.9,4.5-5.7,6.8c-1.9,2.3-3.6,4.6-5.4,6.9c-0.9,1.2-1.7,2.3-2.5,3.5c-2.5,3.5-4.8,7.1-7,10.8c-1.5,2.4-2.8,4.9-4.2,7.3
		c-7.3,13.6-12.4,27.8-15.1,42.5c5.8,1.5,16,4.4,19.6,5.1c25,5.6,45.5,11.2,62.1,16.6c2.9,0.9,5.8,1.9,8.5,2.8
		c8.1,2.8,15.2,5.5,21.3,8c3.1,1.3,6,2.5,8.6,3.7c0.8,0.4,1.7,0.8,2.5,1.1c5.5,2.6,10.1,4.9,13.7,6.9c0.7,0.4,1.4,0.8,2.1,1.2
		c0.3,0.2,0.7,0.4,1,0.6c1,0.6,2,1.2,2.9,1.8c0.3,0.2,0.5,0.3,0.8,0.5c0.3,0.2,0.6,0.4,0.8,0.6c0.2,0.2,0.5,0.3,0.7,0.5
		c0.3,0.2,0.7,0.5,1,0.7c0.3,0.2,0.5,0.4,0.7,0.5c0.1,0.1,0.2,0.1,0.3,0.2c0.3,0.2,0.6,0.5,0.9,0.7c6.4-6.9,15.5-11.1,25.9-11.1
		c10.9,0,20.6,4.7,27,12.3c5.8-3.8,13.3-6.7,22.4-6.7c4.5,0,9.1,0.7,13.6,2.2c10.1,3.1,16.4,9.2,20.2,15.6c3.3-1.1,6.9-1.7,10.9-1.7
		c5.7,0,11.6,1.4,17.5,4c9,4.1,15.5,11,18.7,20c2,5.7,2.5,11.5,2.3,16.7c22.3,0.3,40.4,18.6,40.4,41c0,6.8-1.7,13.2-4.6,18.9
		c0.3,0.1,0.6,0.3,0.9,0.4c0.2,0.1,0.5,0.2,0.7,0.3c0.3,0.2,0.7,0.3,1,0.5c0.3,0.1,0.5,0.2,0.8,0.3c0.3,0.1,0.7,0.3,1.1,0.4
		c0.3,0.1,0.5,0.2,0.8,0.3c0.4,0.2,0.7,0.3,1.1,0.5c0.3,0.1,0.6,0.2,0.8,0.3c0.4,0.1,0.8,0.3,1.2,0.4c0.3,0.1,0.6,0.2,0.8,0.3
		c0.4,0.2,0.9,0.3,1.4,0.4c0.3,0.1,0.5,0.2,0.8,0.3c0.6,0.2,1.2,0.4,1.9,0.5c0.1,0,0.2,0.1,0.3,0.1c0.7,0.2,1.5,0.4,2.2,0.5
		c0.2,0,0.5,0.1,0.7,0.1c0.5,0.1,1.1,0.2,1.6,0.3c0.3,0,0.6,0.1,0.9,0.1c0.5,0.1,1,0.1,1.4,0.2c0.3,0,0.6,0.1,1,0.1
		c0.5,0,0.9,0.1,1.4,0.1c0.3,0,0.7,0,1,0c0.5,0,1,0,1.5,0c0.2,0,0.4,0,0.6,0c0.7,0,1.5-0.1,2.2-0.2c1.3-0.2,2.4-0.4,3.5-0.6
		c1.1-0.2,2-0.5,2.9-0.7c0.9-0.3,1.7-0.5,2.4-0.8c1.1-0.4,2-0.9,2.8-1.3c0.5-0.3,1-0.6,1.4-0.9c0.4-0.3,0.8-0.6,1.1-0.9
		c0.5-0.4,0.8-0.9,1.1-1.3c0.2-0.5,0.5-0.9,0.8-1.4c0.1-0.2,0.2-0.4,0.3-0.5c0.2-0.4,0.3-0.9,0.3-1.3c0-0.4-0.2-0.7-0.6-1.1
		l-13.4-14.9L541,633.5c0,0-2.9-2.9-3.2-4.7c-0.1-0.4,0-0.8,0.3-1.1c0.1-0.1,0.2-0.2,0.3-0.2c0,0,0.1,0,0.1-0.1
		c0.1,0,0.1-0.1,0.2-0.1c0,0,0.1,0,0.1,0c0.1,0,0.1,0,0.2,0c0,0,0.1,0,0.1,0c0,0,0.1,0,0.2,0h0c0.2,0,0.3,0,0.5,0.1c0,0,0.1,0,0.1,0
		c0.2,0,0.3,0.1,0.5,0.2c0,0,0.1,0,0.1,0c0.2,0.1,0.4,0.2,0.6,0.3c0,0,0.1,0,0.1,0.1c0.2,0.1,0.3,0.2,0.5,0.3c0,0,0.1,0,0.1,0
		c0.2,0.1,0.4,0.2,0.6,0.4c0,0,0.1,0.1,0.1,0.1c0.2,0.1,0.4,0.2,0.6,0.4c0,0,0,0,0.1,0c0.2,0.1,0.4,0.3,0.6,0.4
		c0.2,0.1,0.4,0.3,0.7,0.4c1.3,1.1,2.6,2.2,3.9,3.4c1.8,1.6,3.5,3.1,5.2,4.7c1.3,1.2,2.6,2.4,3.8,3.6c1.3,1.2,2.5,2.4,3.6,3.5
		c2.4,2.3,4.5,4.4,6.4,6.3c4,4,6.7,6.8,6.7,6.8s0.2,0.2,0.5,0.5c0.6,0.5,1.8,1.4,3.9,2.2c0.3,0.1,0.5,0.2,0.9,0.3
		c0.6,0.2,1.3,0.4,2,0.6c0.3,0,0.6,0.1,0.9,0.1c0.1,0,0.2,0,0.3,0c0.2,0,0.5,0,0.7,0c0.1,0,0.3,0,0.4,0c0.2,0,0.5,0,0.7,0
		c0.1,0,0.3,0,0.4,0h0.8c0.1,0,0.2,0,0.3,0c0.4,0,0.8,0,1.2,0c0.1,0,0.2,0,0.3,0c0.3,0,0.6-0.1,1-0.1c0.1,0,0.3,0,0.4,0
		c0.3,0,0.6-0.1,0.9-0.1c0.1,0,0.3,0,0.4-0.1c0.3-0.1,0.7-0.1,1-0.2c0.1,0,0.2,0,0.3,0c0.4-0.1,0.9-0.2,1.3-0.3
		c0.1,0,0.2-0.1,0.3-0.1c0.3-0.1,0.7-0.2,1-0.3c0.1,0,0.3-0.1,0.4-0.1c0.3-0.1,0.6-0.2,0.9-0.3c0.1,0,0.3-0.1,0.4-0.1
		c0.4-0.1,0.8-0.3,1.1-0.4c0.1,0,0.1,0,0.2-0.1c0.4-0.2,0.9-0.4,1.3-0.6c0.1-0.1,0.3-0.1,0.4-0.2c0.3-0.2,0.6-0.3,0.9-0.5
		c0.1-0.1,0.3-0.2,0.4-0.2c0.3-0.2,0.6-0.3,0.8-0.5c0.1-0.1,0.3-0.2,0.4-0.2c0.4-0.3,0.8-0.5,1.1-0.8c0,0,0,0,0,0
		c0.7-0.7,1.6-1.5,2.5-2.2c0.4-0.4,0.8-0.7,1.1-1.1c0.2-0.2,0.3-0.4,0.5-0.5c0.1-0.2,0.2-0.4,0.3-0.5c0.2-0.3,0.4-0.6,0.6-0.8
		c0.6-0.9,1-1.8,1.4-2.7c0.1-0.4,0.3-0.7,0.3-1.1c0.1-0.3,0.2-0.7,0.2-1c0.1-0.5,0.2-1,0.2-1.5c0.1-1.3-0.1-2.5-0.3-3.5
		c-0.1-0.4-0.2-0.7-0.3-1.1c0-0.1-0.1-0.2-0.1-0.3c-0.3-1.1-0.8-2-1.2-2.8c-0.8-1.6-1.6-2.5-1.6-2.5l-31.2-34.8c0,0-0.3-0.3-0.7-0.7
		c-0.1-0.1-0.2-0.2-0.3-0.4c-0.2-0.3-0.5-0.5-0.7-0.8c-0.2-0.3-0.5-0.6-0.7-0.9c-0.1-0.2-0.2-0.3-0.3-0.5c-0.4-0.6-0.6-1.3-0.6-1.8
		c0-0.3,0.1-0.5,0.3-0.7c0.1-0.1,0.2-0.2,0.3-0.2c0,0,0.1,0,0.1-0.1c0.1,0,0.1-0.1,0.2-0.1c0,0,0.1,0,0.1,0c0.1,0,0.1,0,0.2-0.1
		c0,0,0.1,0,0.2,0c0,0,0.1,0,0.1,0h0c0.2,0,0.3,0,0.5,0.1c0,0,0.1,0,0.1,0c0.2,0,0.3,0.1,0.5,0.2c0,0,0.1,0,0.1,0
		c0.2,0.1,0.4,0.2,0.6,0.3c0,0,0.1,0.1,0.1,0.1c0.2,0.1,0.4,0.2,0.5,0.3c0,0,0.1,0,0.1,0c0.2,0.1,0.4,0.2,0.6,0.4
		c0.1,0,0.1,0.1,0.2,0.1c0.2,0.1,0.4,0.2,0.5,0.4c0,0,0,0,0.1,0c0.2,0.1,0.4,0.3,0.6,0.4c0.2,0.2,0.5,0.3,0.7,0.5
		c0.6,0.5,1.3,1,1.9,1.6c3.3,2.7,7,6.1,10.8,9.7c0.8,0.7,1.5,1.5,2.3,2.2c3.1,3,6.3,6.3,9.6,9.6c4.1,4.1,8.2,8.3,12.3,12.4
		c0.1,0.1,0.2,0.2,0.3,0.3c0,0,0.1,0,0.1,0.1c0.1,0.1,0.2,0.1,0.3,0.2c0,0,0.1,0.1,0.1,0.1c0.1,0.1,0.2,0.1,0.3,0.2
		c0,0,0.1,0.1,0.2,0.1c0.1,0.1,0.3,0.2,0.4,0.3c0,0,0.1,0,0.1,0.1c0.2,0.1,0.4,0.2,0.6,0.4c0,0,0.1,0,0.1,0.1
		c0.2,0.1,0.3,0.2,0.5,0.3c0.1,0,0.2,0.1,0.2,0.1c0.2,0.1,0.3,0.2,0.5,0.2c0.1,0,0.2,0.1,0.3,0.1c0.2,0.1,0.4,0.2,0.6,0.2
		c0.1,0,0.2,0.1,0.2,0.1c0.3,0.1,0.6,0.2,0.8,0.3c0,0,0,0,0,0c0.3,0.1,0.6,0.2,0.9,0.3c0.1,0,0.2,0.1,0.3,0.1
		c0.2,0.1,0.5,0.1,0.7,0.2c0.1,0,0.2,0.1,0.4,0.1c0.2,0,0.4,0.1,0.7,0.2c0.1,0,0.2,0,0.3,0.1c0.3,0,0.5,0.1,0.8,0.1
		c0.1,0,0.2,0,0.3,0.1c0.4,0.1,0.7,0.1,1.1,0.1c0.1,0,0.2,0,0.2,0c0.3,0,0.6,0.1,0.9,0.1c0.1,0,0.3,0,0.4,0c0.3,0,0.5,0,0.8,0h0.6
		c0.1,0,0.2,0,0.3,0c0.3,0,0.5,0,0.8,0c0.1,0,0.1,0,0.2,0c0.3,0,0.7-0.1,1-0.1c0.1,0,0.2,0,0.3,0c0.3,0,0.5-0.1,0.8-0.1
		c0.1,0,0.2,0,0.4-0.1c0.3,0,0.5-0.1,0.8-0.2c0.1,0,0.2,0,0.3-0.1c0.4-0.1,0.8-0.2,1.1-0.3c0,0,0,0,0.1,0c0.4-0.1,0.7-0.2,1.1-0.3
		c0.1,0,0.2-0.1,0.4-0.1c0.3-0.1,0.6-0.2,0.8-0.3c0.1,0,0.3-0.1,0.4-0.1c0.3-0.1,0.6-0.3,1-0.4c0.1,0,0.2-0.1,0.3-0.1
		c0.4-0.2,0.8-0.4,1.2-0.6c0.1,0,0.2-0.1,0.3-0.2c0.3-0.2,0.6-0.3,1-0.5c0.1-0.1,0.3-0.1,0.4-0.2c0.3-0.2,0.6-0.3,0.9-0.5
		c0.1-0.1,0.3-0.1,0.4-0.2c0.4-0.3,0.9-0.5,1.3-0.8c1.2-0.8,2.3-1.7,3.3-2.6s1.9-1.7,2.6-2.6c0.5-0.5,0.9-1.1,1.3-1.6
		c0.8-1.1,1.5-2.2,2-3.3c0.4-0.8,0.7-1.7,1-2.5c0.3-0.8,0.5-1.6,0.6-2.4c0.1-0.4,0.1-0.8,0.1-1.2c0-0.4,0-0.8,0.1-1.2
		c0-0.8,0-1.5-0.1-2.2c0-0.5-0.1-0.9-0.2-1.3c-0.2-0.9-0.4-1.7-0.7-2.5c-0.3-0.8-0.6-1.6-1-2.4c-0.2-0.4-0.4-0.7-0.5-1.1
		c-0.4-0.7-0.8-1.3-1.2-1.9c-1.5-2.4-3-3.8-3-3.8l-42.1-42.8c0,0-4.4-3.6-2.9-5.8c0.1-0.1,0.2-0.2,0.3-0.2c0,0,0.1,0,0.1,0
		c0.1,0,0.1-0.1,0.2-0.1c0,0,0.1,0,0.1,0c0.1,0,0.1,0,0.2,0c0,0,0.1,0,0.2,0c0,0,0.1,0,0.1,0h0c0.2,0,0.3,0,0.5,0.1c0,0,0.1,0,0.1,0
		c0.2,0,0.3,0.1,0.5,0.1c0,0,0.1,0,0.1,0c0.2,0.1,0.4,0.2,0.6,0.3c0,0,0.1,0,0.1,0.1c0.2,0.1,0.4,0.2,0.5,0.3c0,0,0.1,0,0.1,0
		c0.2,0.1,0.4,0.2,0.6,0.4c0,0,0.1,0.1,0.2,0.1c0.2,0.1,0.4,0.2,0.6,0.4c0,0,0,0,0,0c0.2,0.1,0.4,0.3,0.6,0.4
		c0.2,0.1,0.4,0.3,0.6,0.4c0,0,0,0,0,0c0.9,0.7,1.8,1.5,2.8,2.4c1,0.9,2.1,1.8,3.3,2.8c0.6,0.5,1.2,1,1.8,1.6
		c1.2,1.1,2.5,2.2,3.8,3.3c0.6,0.6,1.3,1.2,2,1.8c1.3,1.2,2.7,2.4,4.1,3.7c2.1,1.9,4.2,3.8,6.3,5.7c4.2,3.8,8.3,7.5,12,10.9
		c0.6,0.6,1.2,1.1,1.8,1.7c7.1,6.5,12.2,11.2,12.2,11.2c0,0,0.1,0,0.1,0c0,0,0,0,0.1,0c0.1,0,0.1,0.1,0.2,0.1c0,0,0.1,0,0.1,0
		c0.1,0,0.2,0.1,0.3,0.1c0.1,0.1,0.3,0.2,0.5,0.3c0,0,0.1,0,0.1,0c0.1,0.1,0.3,0.2,0.4,0.2c0.1,0,0.1,0.1,0.2,0.1
		c0.2,0.1,0.3,0.2,0.5,0.2c0,0,0.1,0.1,0.2,0.1c0.2,0.1,0.5,0.2,0.7,0.3c0,0,0.1,0,0.1,0c0.2,0.1,0.4,0.2,0.7,0.3
		c0.1,0,0.2,0.1,0.2,0.1c0.2,0.1,0.4,0.2,0.6,0.3c0.1,0,0.2,0.1,0.3,0.1c0.6,0.2,1.3,0.4,2,0.6c0.1,0,0.2,0.1,0.3,0.1
		c0.3,0.1,0.5,0.1,0.8,0.2c0.1,0,0.2,0,0.4,0.1c0.3,0.1,0.6,0.1,0.9,0.2c0.1,0,0.2,0,0.2,0c0.4,0.1,0.8,0.1,1.2,0.2
		c0.1,0,0.2,0,0.3,0c0.3,0,0.6,0.1,1,0.1c0.1,0,0.3,0,0.4,0c0.3,0,0.7,0,1,0c0.1,0,0.2,0,0.4,0c0.5,0,1,0,1.5,0c0.1,0,0.2,0,0.3,0
		c0.4,0,0.8-0.1,1.2-0.1c0.2,0,0.3,0,0.4-0.1c0.5-0.1,1.1-0.2,1.6-0.3c0,0,0,0,0,0c0.5-0.1,1.1-0.3,1.7-0.4c0.2,0,0.3-0.1,0.5-0.1
		c0.5-0.1,0.9-0.3,1.4-0.5c0.1,0,0.3-0.1,0.4-0.1c0.6-0.2,1.2-0.5,1.8-0.7c0.1-0.1,0.3-0.1,0.4-0.2c0.5-0.2,1-0.5,1.5-0.7
		c0.2-0.1,0.3-0.2,0.5-0.3c0.6-0.3,1.2-0.7,1.9-1.1c1.5-1,2.9-2,4.1-3.2c0.1-0.1,0.3-0.3,0.4-0.5c0.3-0.4,0.7-1,1.2-1.8
		C699.9,583.3,697.3,576.2,695.6,572.9z"/>
</g>
</svg>
