<svg xmlns="http://www.w3.org/2000/svg" viewBox="0 0 1024 1024">
   <circle cx="512" cy="512" r="512" style="fill:#faa819"/>
   <path d="M310.07 522.48q6.54 28.09 5 48.29h-23.28q1.73-59.07-35-62.72-32.9-1.15-28.47 61.37h-26.19q-3.08-77.34 26.74-87.93 29.82-10.39 52.33 1.15 22.32 11.56 28.87 39.84Zm104.66 16.35 6.35 15.2q-10.58 13.85-32.9 18.47-22.32 4.23-46-3.27t-24.63-36.94q-.55-16.93 3.29-28.29 2.12-7.7 10-11.74 7.7-4.23 27.32-6.93a103.76 103.76 0 0 1 39.25 1.35q21.55 6.93 23.09 24.63 1.15 17.7-5.77 20.39h-75.42q.19 24.43 30 24.43 30.03.21 45.42-17.29ZM352 512.28h43.67q-.39-14.43-23.28-13.85-21.15.96-20.39 13.85Zm298 15.2q-2.12 48.29-79.84 46.18l1.92 33.86h-29.21V487.27h59.83q52.14.2 47.3 40.21Zm-30-2.89q-1.15-21.36-47.14-20L570 549.22q46.94.2 50-24.62Zm-82.54 1.92v.19q0 19.62-15.39 33.67-15.58 13.85-37.33 13.85h-7.89q-21.74 0-37.13-13.85-15.39-14-15.39-33.67v-.19q0-19.82 14.24-31.55A67.58 67.58 0 0 1 459 483.23a86.76 86.76 0 0 1 21.36-3.08 69.81 69.81 0 0 1 18.47 1.35 52.85 52.85 0 0 1 23.86 12.12 42 42 0 0 1 14.79 32.9Zm-30.78-2.31a14.44 14.44 0 0 0-4.43-10.58 14.12 14.12 0 0 0-10.39-4.23h-17.29a15 15 0 0 0-10.2 4.23 14.44 14.44 0 0 0-4.43 10.58v8.85a14.22 14.22 0 0 0 4.43 10.39 14.61 14.61 0 0 0 10.2 4.43h.43q1.92.19 4.23.58h8.27q2.12-.19 4.43-.58a13.82 13.82 0 0 0 10.39-4.43 14.22 14.22 0 0 0 4.43-10.39Zm360.55-.38q-10.59-4.7-10.77-11.16 0-6.25 9.23-6.35 9.26.06 11 7.89l17.89-8.47q.19-9.81-10.39-15a37.05 37.05 0 0 0-11.54-3.66q-22.13-4.81-35.4 10-13.28 14.62-2.69 27.32 10.58 12.51 22.9 18.85 12.51 6.16 7.7 11.16-5 5-20.39-2.31L831.85 560q4 10.2 22.9 15.39t32.32-9.81q13.45-15.08 2.12-26-11.19-10.87-21.94-15.75Zm-66.38-13.47q14 32.13-4.81 35-14.24 1.15-16.35-15.2a260.88 260.88 0 0 1-2.31-43.87h25.78v-19.59l-26 .38 3.66-24.24-27.51 2.31L756 470l-30.4-2.12v20.78h31.94q-4.81 54.45 6.93 71.38 11.54 16.93 31.75 16 31.36-.58 32.13-30.78 0-22.7-8.66-37.13ZM747 538.45l7.7 12.89q-8.27 14-28.86 20.78-20.2 6.16-43.1 1.92-22.7-4.43-26.74-31-2.5-15.58.58-24 3.27-8.66 9.43-13.28 6-4.81 23.28-9.62a96.41 96.41 0 0 1 36-3.27q20.78 4 24 20 3.08 16-3.08 19L676 540q2.89 22.32 30.78 19.24T747 538.45Zm-61.18-18.85a8.92 8.92 0 0 0 .19 1.73l40.21-5q-2.89-11.54-22.9-8.47-16.93 2.69-17.5 11.74Zm-310.4-65.12L414 437.9l39.65 33.51-8.75-38.91-1.53-6.5 34.25-20.85h-39.28L430.71 377l-21.59 28.3h-33.89l20.29 19Zm-147.29 12.38L252.84 444l39 14.73-17-27.09-2.87-4.53 20.33-24.94-2.39.85-27.32 9.67-13.3-19.22-8.76 27.19-22.53 8-3.1 1.1 20.43 8.93Zm-76.35 26.85 8.66-25.36-1.61 1.33-18.41 15.12-15.75-11.65.93 24-15.13 12.43-2.13 1.75 18.35 1.53 2.47 24.35 12.65-24.89 34.34 1.09-20.87-16.88Z" style="fill:#fff"/>
</svg>
