<svg xmlns="http://www.w3.org/2000/svg" viewBox="0 0 1024 1024">
   <circle cx="512" cy="512" r="512" style="fill:#f47d41"/>
   <path d="m512 406.61 91 52.69v105.16l-91 52.69-91.27-52.69V459.31ZM655.5 700l91.27-52.46V542.11l-91.27 52.7ZM603 293.46 512 241l-91.27 52.46L512 346.15Zm-234.73 30.35-91 52.46v105.38l91 52.46V429l91.27-52.46Zm287.23 0-91 52.46 91 52.69v105.15l91.27-52.46V376.26ZM277.23 647.5l91 52.46V594.81l-91-52.69Zm143.5-22.35v105.16L512 783l91-52.69V625.15l-91 52.69Z" style="fill:#fff"/>
</svg>
