<svg xmlns="http://www.w3.org/2000/svg" viewBox="0 0 1024 1024" style="enable-background:new 0 0 1024 1024" xml:space="preserve">
   <style>
      .st1{fill:#fff}
   </style>
   <g id="Icon">
      <circle cx="512" cy="512" r="512" style="fill:#ef7c29"/>
      <g id="layer6_1_" transform="translate(-33.024 -1337.618)">
         <g id="g4668_1_" transform="translate(30.356 1335.133) scale(.13327)">
            <g id="g4663_1_">
               <path id="path4497" class="st1" d="M5593.5 2664.9c-126.1-79.7-276-108.6-435.2-98-470.4 31.1-1022.8 405.9-1290 828.8-357.5 566.2-242.8 1280.5 256.4 1595.7 146.3 92.4 309.4 139.9 475.9 147 401.3 17.1 822.2-201.7 1074.9-601.7 357.4-566 417.1-1556.9-82-1871.8"/>
               <path id="path4491_1_" class="st1" d="M4249.6 2573c-19.6.1-39.4.8-59.3 2.1-470.5 31.1-1022.9 406-1289.9 828.9-357.6 566.1-242.8 1280.4 256.3 1595.7 146.3 92.3 309.4 139.8 475.8 146.8 166.9 7.2 335.1-21.9 495.2-92.4-794.9-415.1-607-1306.9-363.3-1660.2 188.5-298.6 529.6-579.1 867.3-717l-6-3.9c-110.5-69.7-239-100.4-376.1-100z"/>
               <path id="path4485_1_" class="st1" d="M3329.7 2581c-483.3-1-1074.7 388.7-1353.9 831-357.5 566.2-242.8 1280.4 256.4 1595.7 287.2 181.3 639.2 190.9 954.4 58.3-41.9-18.6-82.8-40.3-122.5-65.4-499.1-315.3-613.7-1029.5-256.4-1595.7 192.5-304.9 533.5-584.9 885.1-729-107.4-65.3-231.2-94.7-363.1-94.9z"/>
            </g>
         </g>
      </g>
   </g>
</svg>
