<svg xmlns="http://www.w3.org/2000/svg" viewBox="0 0 1024 1024">
   <circle cx="512" cy="512" r="512" style="fill:#ef7c29"/>
   <path d="M742.8 352.68c66.52 42 58.57 174 10.93 249.46-33.73 53.32-89.73 82.48-143.26 80.2a128.3 128.3 0 0 1-63.47-19.6c-66.52-42-81.82-137.2-34.17-212.66 35.6-56.37 109.23-106.32 171.92-110.46 21.2-1.42 41.19 2.43 58 13.06m-179.06-12.25q-3.92 0-7.9.28c-62.71 4.15-136.33 54.11-171.91 110.47-47.66 75.44-32.36 170.64 34.12 212.67a128.16 128.16 0 0 0 63.41 19.57 147.26 147.26 0 0 0 66-12.31C441.5 615.78 466.54 496.93 499 449.85c25.12-39.79 70.58-77.18 115.59-95.56l-.81-.52c-14.69-9.3-31.78-13.4-50.09-13.34Zm-122.6 1.06c-64.41-.13-143.23 51.81-180.44 110.75-47.65 75.45-32.36 170.64 34.17 212.66C333.1 689.07 380 690.34 422 672.68a126.77 126.77 0 0 1-16.32-8.68c-66.52-42-81.79-137.21-34.17-212.67 25.66-40.64 71.1-77.95 118-97.15-14.33-8.74-30.84-12.66-48.42-12.69Z" style="fill:#fff"/>
</svg>
