<?xml version="1.0" encoding="utf-8"?>
<!-- Generator: Adobe Illustrator 21.0.0, SVG Export Plug-In . SVG Version: 6.00 Build 0)  -->
<svg version="1.1" xmlns="http://www.w3.org/2000/svg" xmlns:xlink="http://www.w3.org/1999/xlink" x="0px" y="0px"
	 viewBox="0 0 1024 1024" style="enable-background:new 0 0 1024 1024;" xml:space="preserve">
<style type="text/css">
	.st0{fill:#FDCA40;}
	.st1{fill:#FFFFFF;}
</style>
<g id="Min_Guides__x28_DO_NOT_REMOVE_x29_">
</g>
<g id="Max_Guides__x28_DO_NOT_REMOVE_x29_">
</g>
<g id="Icon">
	<circle id="Background" class="st0" cx="512" cy="512" r="512"/>
	<path class="st1" d="M256,449c0.1-1.9,1.7-3.4,3.6-3.4h4.6l75.3,72.4l0,0v-66.9c0-2,1.6-3.6,3.6-3.6c0.1,0,0.2,0,0.3,0h22.6
		c2,0.1,3.5,1.6,3.6,3.6v126.9c-0.1,1.9-1.7,3.4-3.6,3.4h-3.2c-0.9-0.1-1.7-0.4-2.4-0.9L286,505.6l0,0v70.3c0,2-1.6,3.6-3.6,3.6
		h-22.6c-2,0-3.7-1.6-3.8-3.6V449z M423.8,451.1v77.9c0.8,28.5,23.7,51.3,52.2,52.2c29.7,0.9,54.4-22.5,55.3-52.2v-77.9
		c-0.1-2-1.6-3.5-3.6-3.6h-23c-2,0-3.6,1.6-3.6,3.6v76.3c0,12.9-10.5,23.4-23.4,23.4c-12.9,0-23.4-10.5-23.4-23.4v-76.3
		c0-2-1.6-3.6-3.6-3.6h-23c-2,0.1-3.5,1.6-3.6,3.6H423.8z M586.6,452v122.9c0,2.5,2.1,4.6,4.6,4.6h22c2.5,0,4.6-2.1,4.6-4.6v-56.2
		l43.5,59c0.9,0.8,2.1,1.3,3.4,1.3h26c0.7-0.1,1.4-0.3,2.1-0.7c2.2-1.3,2.8-4.2,1.5-6.3l-47.9-62.4l44.1-55.2
		c0.4-0.6,0.6-1.2,0.7-1.9c0.3-2.5-1.5-4.8-4.1-5.1h-23.7c-1.4,0.2-2.7,0.8-3.6,1.9l-41.9,52.2V452c0-2.5-2.1-4.6-4.6-4.6h-22
		C588.7,447.4,586.7,449.5,586.6,452L586.6,452z M738.3,575.9c0.1,2,1.6,3.5,3.6,3.6h22.6c2-0.1,3.5-1.6,3.6-3.6V451.1
		c-0.1-2-1.6-3.5-3.6-3.6h-22.6c-2,0.1-3.5,1.6-3.6,3.6V575.9z M733.8,371.4c0.1,10.5,8.7,19,19.2,18.9c0,0,0,0,0,0
		c10.8,0,19.5-8.7,19.5-19.5s-8.7-19.5-19.5-19.5c-0.2,0-0.4,0-0.6,0c-10.6,0.3-18.9,9.1-18.6,19.6
		C733.8,371.1,733.8,371.2,733.8,371.4z"/>
</g>
</svg>
