<svg xmlns="http://www.w3.org/2000/svg" viewBox="0 0 1024 1024">
   <circle cx="512" cy="512" r="512" style="fill:#7e8286"/>
   <path d="M744 397.55c-11.08-26.19-31.43-38.48-50.37-56.41-9.48-12.14-18.75-24.14-28.22-36.27-43.92-30.62-110.4-47.75-183.33-48.35-17.93 13.9-72.33 21.76-96.7 32.23-48.35 20.75-74.14 58-100.73 100.73-2.82 4.63-10.27 10.88-12.09 16.12-1.41 12.69-2.62 25.59-4 38.28-3 12.69-10.27 29.21-12.09 40.29-2 12.69 3.42 40.09 6 52.38.6 12.09 1.41 24.18 2 36.26C278 623.59 304.19 657.44 331 693.7c2.62 3.63 2.82 9.27 6 12.09 12.89 12.09 35.05 14.91 50.37 24.18 13.9 8.46 29.21 22 44.32 28.21 32 13.5 130.15 11.28 167.22 0 12.09-3.63 33.24-10.68 44.32-18.13 12.69-8.46 22-25 34.25-34.25 84.43-63.67 117.07-188.18 66.52-308.25zm-52.38 143v30.22c-3 7.45-13.5 15.51-18.13 22.16-8.86 12.69-13.5 31.23-24.18 42.31-21.56 22.16-58.63 36.26-90.66 48.35-11.28 4.23-33.24 19.34-48.35 16.12-9.07-2-19.74-11.48-28.21-14.1h-42.32c-15.11-5-31.43-25.38-42.31-36.26-15.31-15.31-39.29-31.63-48.35-52.38-24.38-56.21-9.47-169.84 22.16-211.54 10.88-14.3 72.33-47.14 92.67-54.4 9.67-3.42 27.8 1 36.26-4 33.44 0 62.66.2 86.63 10.07 23.37 9.47 66.28 59 84.62 78.57 8.46 11.08 4.43 32.23 10.07 46.34 3.63 9.27 13.3 19.34 16.12 28.21 4.44 13.7-3.42 38.68-6.04 50.37z" style="fill:#fff"/>
</svg>
