<svg xmlns="http://www.w3.org/2000/svg" viewBox="0 0 1024 1024" style="enable-background:new 0 0 1024 1024" xml:space="preserve">
   <circle cx="512" cy="512" r="512" style="fill:#cdcdcd"/>
   <path d="M744 397.5c-11.1-26.2-31.4-38.5-50.4-56.4-9.5-12.1-18.7-24.2-28.2-36.3-43.9-30.6-110.4-47.7-183.3-48.4-17.9 13.9-72.3 21.8-96.7 32.2-48.4 20.8-74.1 58-100.7 100.7-2.8 4.6-10.3 10.9-12.1 16.1-1.4 12.7-2.6 25.6-4 38.3-3 12.7-10.3 29.2-12.1 40.3-2 12.7 3.4 40.1 6 52.4.6 12.1 1.4 24.2 2 36.3 13.5 50.8 39.7 84.6 66.5 120.9 2.6 3.6 2.8 9.3 6 12.1 12.9 12.1 35.1 14.9 50.4 24.2 13.9 8.5 29.2 22 44.3 28.2 32 13.5 130.1 11.3 167.2 0 12.1-3.6 33.2-10.7 44.3-18.1 12.7-8.5 22-25 34.2-34.2 84.5-63.7 117.2-188.2 66.6-308.3zm-52.4 143.1v30.2c-3 7.5-13.5 15.5-18.1 22.2-8.9 12.7-13.5 31.2-24.2 42.3-21.6 22.2-58.6 36.3-90.7 48.4-11.3 4.2-33.2 19.3-48.4 16.1-9.1-2-19.7-11.5-28.2-14.1h-42.3c-15.1-5-31.4-25.4-42.3-36.3-15.3-15.3-39.3-31.6-48.4-52.4-24.4-56.2-9.5-169.8 22.2-211.5 10.9-14.3 72.3-47.1 92.7-54.4 9.7-3.4 27.8 1 36.3-4 33.4 0 62.7.2 86.6 10.1 23.4 9.5 66.3 59 84.6 78.6 8.5 11.1 4.4 32.2 10.1 46.3 3.6 9.3 13.3 19.3 16.1 28.2 4.5 13.6-3.4 38.6-6 50.3z" style="fill:#fff"/>
</svg>
