<svg version="1.1" x="0" y="0" viewBox="0 0 1024 1024" id="svg20" xmlns="http://www.w3.org/2000/svg">
   <defs id="defs24">
      <clipPath clipPathUnits="userSpaceOnUse" id="clipPath957">
         <rect style="fill:#0f0;stroke:#e42618;stroke-width:2.51339;stroke-linecap:round;stroke-linejoin:round;stroke-dasharray:2.51339,5.02677" id="rect959" width="128.795" height="170.443" x="437.548" y="392.141" ry="3.751"/>
      </clipPath>
      <path id="rect7061" d="M310.816 263.785h288.16v243.026h-288.16z"/>
   </defs>
   <style type="text/css" id="style2">
      .st1,.st2,.st3{fill:none;stroke:#1ded7e;stroke-width:2;stroke-miterlimit:10;stroke-dasharray:2}.st3{stroke:#1d8ced}
   </style>
   <circle id="Background" cx="512" cy="512" r="512" style="fill:#e53711;fill-opacity:1"/>
   <path id="path846" style="fill:#fff;stroke:none;stroke-width:.867055;stroke-linecap:butt;stroke-linejoin:miter;stroke-miterlimit:4;stroke-dasharray:none;stroke-opacity:1" d="M308.677 299.677a.502.502 0 0 0-.363.091c-2.09 1.656 7.252 35.84 7.252 35.84-9.922-.802-20.885-2.271-37.977-.73 0 0-32.727-31.601-35.503-29.485-2.776 2.117 12.736 34.242 12.736 34.242s-12.724 1.489-23.368 15.158c-10.644 13.669-12.911 48.285-12.911 93.906.741 23.529 1.784 45.655 16.667 58.45 14.883 12.796 51.746 14.511 61.76 14.711 5.75.115 30.208-1.725 34.58-2.596 0 0 1.137 5.135 1.137 11.382 0 6.246-4.836 12.424-18.735 12.424-13.898 0-15.196-3.248-32.729-3.248-64.593 0-66.133 19.887-66.133 52.509-.832 80.976 103.411 17.204 103.411 70.263 0 10.187-.75 22.558-19.457 23.031-17.135.434-49.489-.158-57.11-.158.833-11.778 2.587-18.925 1.631-19.666-.955-.74-29.168 17.111-29.168 28.24 0 10.242 28.352 31.23 29.498 30.251 1.145-.98-1.714-9.63-1.718-15.678 0 0 29.258-.158 57.136-.158 27.877 0 50.034-.658 50.034-48.781 0-5.117.085-9.646.085-13.816 0-61.417-104.679-10.997-102.185-58.067 1.232-23.243 17.946-22.326 36.549-22.326 18.602 0 23.718 9.634 54.294 2.35 30.577-7.284 22.083-56.37 30.56-68.991 14.115-20.751 11.444-56.282 10.999-79.711-.766-31.153-.987-44.392-5.999-54.84-5.01-10.447-7.57-13.333-13.113-17.043-5.543-3.711-17.659-6.779-17.659-6.779s-29.622-40.411-34.201-40.775zm96.142 34.528V521.86h33.704V367.247l59.91 154.613h27.696l59.913-154.613V521.86h33.704V334.205h-55.657l-51.807 142.492-51.806-142.492Zm327.4 0c-55.729 0-83.27 14.522-83.376 59.359v69.173c0 45.842 30.843 59.123 90.383 59.123 59.54 0 70.377-18.018 70.377-52.684v-46.464h-80.635v25.399h47.402v17.413c0 16.195-7.725 27.637-43.714 27.864-35.989.226-48.828-7.595-48.828-30.268v-64.136c0-33.37 13.506-36.488 50.825-36.488 37.32 0 40.116 13.835 40.116 28.358h33.9c0-50.467-20.721-56.649-76.45-56.649zM264.751 364.82c2.774 0 5.024 2.897 5.024 6.473 0 3.575-2.25 6.475-5.024 6.475-2.773 0-5.02-2.9-5.02-6.475 0-3.576 2.247-6.473 5.02-6.473zm51.43 0c2.774 0 5.02 2.897 5.02 6.473 0 3.575-2.247 6.475-5.02 6.475-2.773 0-5.02-2.9-5.02-6.475 0-3.576 2.247-6.473 5.02-6.473zm-58.713 21.008h84.183s2.341 42.26 2.212 51.06c-4.994-2.117-14.135-11.674-17.581-11.674-3.446 0-9.582 14.636-13.174 14.858-3.592.222-10.927-2.373-10.927-2.373s6.893 8.678 10.773 8.678c3.879 0 10.18-7.858 12.951-7.858 2.773 0 16.778 17.551 16.778 17.551 0 37.814-26.444 35.473-45.445 35.473-9.595 0-25.253.488-34.797-7.79-9.544-8.28-8.53-44.4-8.53-49.925 0-8.498.781-38.918 3.557-48zm111.025 155.36.114 167.786h113.398v-26.34H399.49v-47.648h77.82v-23.54h-77.82v-43.343h82.515v-26.915zm138.53 0v167.786h30.652v-56.197h51.231c14.145 0 20.52 10.885 20.52 20.52v35.677h31.116v-42.789c0-9.421-4.693-27.03-28.51-27.03 20.217-5.416 29.777-8.29 29.777-47.361 0-39.072-14.96-50.606-41.692-50.606zm145.34 0 53.142 167.786h48.169l53.145-167.786h-32.06l-45.17 142.118-45.169-142.118ZM537.82 568.099h55.785c15.688 0 16.981 15.5 16.509 29.423-.473 13.923-.544 28.6-20.433 28.6h-51.86z"/>
</svg>
