<svg version="1.1" x="0" y="0" viewBox="0 0 1024 1024" id="svg20" xmlns="http://www.w3.org/2000/svg">
   <defs id="defs24">
      <clipPath clipPathUnits="userSpaceOnUse" id="clipPath957">
         <rect style="fill:#0f0;stroke:#e42618;stroke-width:2.51339;stroke-linecap:round;stroke-linejoin:round;stroke-dasharray:2.51339,5.02677" id="rect959" width="128.795" height="170.443" x="437.548" y="392.141" ry="3.751"/>
      </clipPath>
   </defs>
   <style type="text/css" id="style2">
      .st1,.st2,.st3{fill:none;stroke:#1ded7e;stroke-width:2;stroke-miterlimit:10;stroke-dasharray:2}.st3{stroke:#1d8ced}
   </style>
   <circle id="Background" cx="512" cy="512" r="512" style="fill:#e53711;fill-opacity:1"/>
   <path id="path996" style="fill:#fff;stroke:none;stroke-width:1.99782;stroke-linecap:butt;stroke-linejoin:miter;stroke-miterlimit:4;stroke-dasharray:none;stroke-opacity:1" d="M533.638 255.726c-.34-.027-.621.041-.837.213-4.814 3.816 16.71 82.574 16.71 82.574-22.861-1.845-48.127-5.226-87.51-1.676 0 0-75.403-72.812-81.8-67.936-6.395 4.877 29.35 78.895 29.35 78.895s-29.321 3.43-53.846 34.925c-24.525 31.495-29.749 111.253-29.749 216.37 1.708 54.214 4.108 105.201 38.4 134.684 34.291 29.483 119.235 33.43 142.305 33.89 23.07.461 108.798-1.371 140.556-29.26 54.102-40.662 51.141-144.603 49.947-207.477-1.765-71.78-2.274-102.29-13.82-126.362-11.547-24.073-17.447-30.718-30.22-39.268-12.772-8.55-40.687-15.616-40.687-15.616s-68.248-93.118-78.8-93.956zm-101.21 150.098a11.57 14.916 0 0 1 11.57 14.918 11.57 14.916 0 0 1-11.57 14.915 11.57 14.916 0 0 1-11.57-14.915 11.57 14.916 0 0 1 11.57-14.918zm118.5 0a11.57 14.916 0 0 1 11.569 14.918 11.57 14.916 0 0 1-11.57 14.915 11.57 14.916 0 0 1-11.569-14.915 11.57 14.916 0 0 1 11.57-14.918zm-135.283 48.408H609.61s5.4 97.373 5.103 117.65c-11.507-4.878-32.574-26.901-40.514-26.901-7.94 0-22.079 33.727-30.356 34.238-8.276.511-25.175-5.473-25.175-5.473s15.884 19.998 24.822 19.998c8.939 0 23.453-18.105 29.84-18.105 6.388 0 38.662 40.44 38.662 40.44 0 87.128-60.936 81.73-104.716 81.73-22.11 0-58.182 1.13-80.172-17.946-21.99-19.076-19.655-102.301-19.655-115.03 0-19.582 1.8-89.674 8.196-110.6z"/>
</svg>
