<svg xmlns="http://www.w3.org/2000/svg" viewBox="0 0 1024 1024">
   <circle cx="512" cy="512" r="512" style="fill:#0065d3"/>
   <path d="M362.3 358.5h-2.2v-25.3c1.1-.1 1.3-.1 2.2-.1 9.2 0 13.6 4.4 13.6 12 0 8-3.9 13.4-13.6 13.4zM713 285v297.3C713 699.2 622.2 786 512 786c-111.2 0-201-87.9-201-201V285s82.6-11 202-11c120.2 0 200 11 200 11zm-132.1 99.1h18.7v-14.6h6.7c17.4 0 28.4-9 28.4-24.6 0-17.2-11.8-23.3-31-23.3-7.4 0-16.4.5-22.8 1.3v61.2zm-32.8 0h18.7v-61.2h-18.7v61.2zm-43.2 0h33.8l2.8-12.3h-17.9v-48.9h-18.7v61.2zm-32.5 0H491v-61.2h-18.7v61.2zm-3.2 32.2 3 23c.9 6.8 3.3 9.9 10.7 11.2l25.9 3.4v1.8l-24.3 3.3c-8.3 1-11.4 4.1-12.2 10.7l-2.9 22.8 30 3.6v3.1l-46.7 6.2c-16.5 2.6-19.1 7.7-21.9 27.2l-4.6 39.4c63.3-11.9 100.2-58.2 172.9-58.2 35.9 0 65.8 13.7 80.4 23.2-14-53.3-71.2-126.1-167.5-126.1-24.9 0-42.8 5.4-42.8 5.4zM432 469.6c1.3 11.4 6.4 17.7 15.5 19.6l19.2 2.8-2.6-20.4c-1-8-3.7-11.7-11.2-12.6l-22.8-3.2 1.9 13.8zm34.8-52.7c-15.5 3.9-28.9 9.9-39.7 16l2.5 20.7 22-2.8c7.8-1.2 10.9-3.5 12.2-10.7l3-23.2zm-65.1-32.8h18.7V360h19.4v24.1h18.7v-61.2h-18.7v24.3h-19.4v-24.3h-18.7v61.2zm-38.4 110.3 33.5-4.4c6.2-1.1 11.4-2.5 14.6-6 3.7-4.4 4.5-7.8 5.4-14.8l4.3-32.6c-26.1 15.8-45.1 36.7-57.8 57.8zm-22.7-110.3h18.7v-14.6h6.7c17.4 0 28.4-9 28.4-24.6 0-17.2-11.8-23.3-31-23.3-7.4 0-16.4.5-22.8 1.3v61.2zm-1.4 179c13.7 5.5 35.2 11.6 58.9 11.6 13.7-.1 24.7-2 24.7-2l-5.4-42.2c-1.9-13.5-3.3-15.6-6.5-19.2-3.3-3.7-8.3-5.1-15.1-6l-36.2-4.6C348.8 521 342 539 339.2 563.1zm184.6 110.4v-3.2l47.3-6c14.8-2.5 18.2-7.8 20.3-20.1l6.1-47.7c-57.6 10.2-94.9 59.1-171.8 59.1-29.5 0-60.2-9.9-81.5-23.3 24.2 81 94.1 127 167.7 127 38.8 0 69.8-13.2 84.3-21.9l-5-37.3c-1.6-14.5-8.4-19.4-23.1-21l-44.3-5.6zm137.3 1.7-33.9 4.4c-16.3 2.1-19 8.2-21.5 25l-3.7 29.8c22.8-14.8 41.9-31.5 59.1-59.2zm3.5-6c13.5-25 17.4-42.2 20.4-63.3-12.6-5.6-39.7-12-59.6-12-13.3 0-25 2-25 2l5.8 45.2c2.2 17.1 6.6 21.5 24.3 23.5l34.1 4.6zm21.5-85c-.3-7.2-.5-14.5-1.4-21.7-18.7-11.6-46.4-21-79.2-21-79.6 0-116.1 60.6-197 60.6-33.4 0-55.9-9.2-70.9-17 .1 6.6.7 16.6 1.2 21.5 21.1 13 47.5 21.1 79.2 21.1 82 0 115.4-60.2 197.2-60.2 27.4-.1 49.6 6.2 70.9 16.7zm2.2-219.3c0-20.5-29.4-16.6-29.4-26.4 0-3.3 3.3-4.9 8.7-4.9 5.9 0 12.3 1.3 16.6 3.1l-1.5-13.3c-4.9-1-9.2-1.8-17.1-1.8-15.1 0-25.3 6-25.3 18.4 0 21.5 29.2 17.2 29.2 27.1 0 3.8-2.8 5.9-9.7 5.9-6.1 0-15.6-2-21.2-4.9l2.1 14.1c5.6 2 13.3 3.1 19.4 3.1 15.4.1 28.2-5.1 28.2-20.4zm-72.1-19.7c0-7.7-4.4-12-13.6-12-1 0-1.2 0-2.3.1v25.3h2.3c9.7-.1 13.6-5.5 13.6-13.4zm42.7-6.7zM466.7 492zm197.9 177.2zm-152.7 90.1zm11.8-43.2 19.3 2.5c6.4.8 8.7 3.8 9.4 9.8l2.4 18.7h1.4l2.5-19.2c1.2-7.8 4.2-8.4 9.8-9.5l18.8-2.4v-1.5l-20.2-2.6c-5.3-.8-7.4-3.6-8.2-8.3l-2.6-20.1h-1.5l-2.6 20.5c-1.1 4.9-3 6.9-8.3 7.8l-20.1 2.7v1.6z" style="fill:#fff"/>
</svg>
