<?xml version="1.0" encoding="utf-8"?>
<!-- Generator: Adobe Illustrator 21.0.0, SVG Export Plug-In . SVG Version: 6.00 Build 0)  -->
<svg version="1.1" xmlns="http://www.w3.org/2000/svg" xmlns:xlink="http://www.w3.org/1999/xlink" x="0px" y="0px"
	 viewBox="0 0 1024 1024" style="enable-background:new 0 0 1024 1024;" xml:space="preserve">
<style type="text/css">
	.st0{fill:#0065D3;}
	.st1{fill:#FFFFFF;}
</style>
<g id="Min_Guides__x28_DO_NOT_REMOVE_x29_">
</g>
<g id="Max_Guides__x28_DO_NOT_REMOVE_x29_">
</g>
<g id="Icon">
	<circle id="Background" class="st0" cx="512" cy="512" r="512"/>
	<path class="st1" d="M362.3,358.5h-2.2v-25.3c1.1-0.1,1.3-0.1,2.2-0.1c9.2,0,13.6,4.4,13.6,12C375.9,353.1,372,358.5,362.3,358.5z
		 M713,285v297.3C713,699.2,622.2,786,512,786c-111.2,0-201-87.9-201-201V285c0,0,82.6-11,202-11C633.2,274,713,285,713,285z
		 M580.9,384.1h18.7v-14.6h6.7l0,0c17.4,0,28.4-9,28.4-24.6c0-17.2-11.8-23.3-31-23.3c-7.4,0-16.4,0.5-22.8,1.3V384.1z M548.1,384.1
		h18.7v-61.2h-18.7V384.1z M504.9,384.1h33.8l2.8-12.3h-17.9h0v-48.9h-18.7V384.1z M472.4,384.1H491v-61.2h-18.7V384.1z
		 M469.2,416.3l3,23c0.9,6.8,3.3,9.9,10.7,11.2l25.9,3.4v1.8l-24.3,3.3c-8.3,1-11.4,4.1-12.2,10.7l-2.9,22.8l30,3.6v3.1l-46.7,6.2
		c-16.5,2.6-19.1,7.7-21.9,27.2l-4.6,39.4v0c63.3-11.9,100.2-58.2,172.9-58.2c35.9,0,65.8,13.7,80.4,23.2
		c-14-53.3-71.2-126.1-167.5-126.1C487.1,410.9,469.2,416.3,469.2,416.3z M432,469.6c1.3,11.4,6.4,17.7,15.5,19.6l19.2,2.8v0v0l0,0
		l-2.6-20.4c-1-8-3.7-11.7-11.2-12.6l-22.8-3.2L432,469.6z M466.8,416.9c-15.5,3.9-28.9,9.9-39.7,16l2.5,20.7l22-2.8
		c7.8-1.2,10.9-3.5,12.2-10.7L466.8,416.9z M401.7,384.1h18.7V360h19.4v24.1h18.7v-61.2h-18.7v24.3h-19.4v-24.3h-18.7V384.1z
		 M363.3,494.4l33.5-4.4c6.2-1.1,11.4-2.5,14.6-6c3.7-4.4,4.5-7.8,5.4-14.8l4.3-32.6C395,452.4,376,473.3,363.3,494.4z M340.6,384.1
		h18.7v-14.6h6.7l0,0c17.4,0,28.4-9,28.4-24.6c0-17.2-11.8-23.3-31-23.3c-7.4,0-16.4,0.5-22.8,1.3V384.1z M339.2,563.1
		c13.7,5.5,35.2,11.6,58.9,11.6c13.7-0.1,24.7-2,24.7-2l-5.4-42.2c-1.9-13.5-3.3-15.6-6.5-19.2c-3.3-3.7-8.3-5.1-15.1-6l-36.2-4.6
		C348.8,521,342,539,339.2,563.1z M523.8,673.5v-3.2l47.3-6c14.8-2.5,18.2-7.8,20.3-20.1l6.1-47.7c-57.6,10.2-94.9,59.1-171.8,59.1
		c-29.5,0-60.2-9.9-81.5-23.3c24.2,81,94.1,127,167.7,127c0,0,0,0,0,0h0c0,0,0,0,0,0c38.8,0,69.8-13.2,84.3-21.9l-5-37.3
		c-1.6-14.5-8.4-19.4-23.1-21L523.8,673.5z M661.1,675.2l-33.9,4.4c-16.3,2.1-19,8.2-21.5,25l-3.7,29.8h0
		C624.8,719.6,643.9,702.9,661.1,675.2z M664.6,669.2c13.5-25,17.4-42.2,20.4-63.3c-12.6-5.6-39.7-12-59.6-12c-13.3,0-25,2-25,2
		l5.8,45.2c2.2,17.1,6.6,21.5,24.3,23.5L664.6,669.2L664.6,669.2L664.6,669.2L664.6,669.2z M686.1,584.2c-0.3-7.2-0.5-14.5-1.4-21.7
		c-18.7-11.6-46.4-21-79.2-21c-79.6,0-116.1,60.6-197,60.6c-33.4,0-55.9-9.2-70.9-17c0.1,6.6,0.7,16.6,1.2,21.5v0
		c21.1,13,47.5,21.1,79.2,21.1c82,0,115.4-60.2,197.2-60.2C642.6,567.4,664.8,573.7,686.1,584.2z M688.3,364.9
		c0-20.5-29.4-16.6-29.4-26.4c0-3.3,3.3-4.9,8.7-4.9c5.9,0,12.3,1.3,16.6,3.1l-1.5-13.3c-4.9-1-9.2-1.8-17.1-1.8
		c-15.1,0-25.3,6-25.3,18.4c0,21.5,29.2,17.2,29.2,27.1c0,3.8-2.8,5.9-9.7,5.9c-6.1,0-15.6-2-21.2-4.9l2.1,14.1
		c5.6,2,13.3,3.1,19.4,3.1C675.5,385.4,688.3,380.2,688.3,364.9z M616.2,345.2c0-7.7-4.4-12-13.6-12c-1,0-1.2,0-2.3,0.1v25.3h2.3
		C612.3,358.5,616.2,353.1,616.2,345.2z M658.9,338.5L658.9,338.5L658.9,338.5L658.9,338.5z M466.7,492L466.7,492L466.7,492
		L466.7,492z M664.6,669.2L664.6,669.2L664.6,669.2L664.6,669.2z M511.9,759.3C511.9,759.3,511.9,759.3,511.9,759.3
		C511.9,759.3,511.9,759.3,511.9,759.3L511.9,759.3z M523.7,716.1l19.3,2.5c6.4,0.8,8.7,3.8,9.4,9.8l2.4,18.7v0h1.4l2.5-19.2
		c1.2-7.8,4.2-8.4,9.8-9.5l18.8-2.4v-1.5l-20.2-2.6c-5.3-0.8-7.4-3.6-8.2-8.3l-2.6-20.1h-1.5l-2.6,20.5c-1.1,4.9-3,6.9-8.3,7.8
		l-20.1,2.7V716.1z"/>
</g>
</svg>
