<?xml version="1.0" encoding="utf-8"?>
<!-- Generator: Adobe Illustrator 21.0.0, SVG Export Plug-In . SVG Version: 6.00 Build 0)  -->
<svg version="1.1" xmlns="http://www.w3.org/2000/svg" xmlns:xlink="http://www.w3.org/1999/xlink" x="0px" y="0px"
	 viewBox="0 0 1024 1024" style="enable-background:new 0 0 1024 1024;" xml:space="preserve">
<style type="text/css">
	.st0{fill:#E5A00D;}
	.st1{fill:#FFFFFF;}
</style>
<g id="Min_Guides__x28_DO_NOT_REMOVE_x29_">
</g>
<g id="Max_Guides__x28_DO_NOT_REMOVE_x29_">
</g>
<g id="Icon">
	<circle id="Background" class="st0" cx="512" cy="512" r="512"/>
	<path class="st1" d="M746.2,516.4l51.1,88.1h-53.6l-25.6-44.2L746.2,516.4z M797.3,419.5h-53.6l-25.6,44.2l28.1,44L797.3,419.5z
		 M684.6,419.5h-53.6l59.2,92.5l-59.2,92.5h53.6l59.2-92.5L684.6,419.5z M505.7,604.5h106.7v-32.4H545v-47.7h62.7v-32.1H545v-40.6
		h67.4v-32.1H505.7V604.5z M412.2,419.5H373v184.9h114.2v-32.4h-75V419.5z M354.4,477.2c0,19.9-6.2,35.1-18.7,45.7
		c-12.4,10.5-30.1,15.8-53.1,15.8h-16.8v65.8h-39.2V419.5h59.1c22.4,0,39.5,4.8,51.2,14.5C348.6,443.7,354.4,458.1,354.4,477.2z
		 M314.8,478.6c0-9.2-2.5-16-7.5-20.4c-5-4.4-12.9-6.6-23.6-6.6h-17.8v54.9h12.9c12.1,0,21.1-2.4,27.1-7.1
		C311.9,494.7,314.8,487.7,314.8,478.6z"/>
</g>
</svg>
