<svg xmlns="http://www.w3.org/2000/svg" viewBox="0 0 1024 1024" style="enable-background:new 0 0 1024 1024" xml:space="preserve">
   <circle cx="512" cy="512" r="512" style="fill:#ff6e5a"/>
   <path d="M848.3 427.9v168.2H175.7V427.9h672.6zm-169.8 40.4c-5.8 0-11.3.9-16.6 2.7-5.2 1.8-10.1 4.5-14.4 8-4.3 3.5-7.7 8.2-10.4 14.1-2.6 5.9-3.9 12.5-3.9 19.9 0 7.1 1.3 13.4 3.9 19 2.6 5.6 6.1 10.1 10.5 13.5 4.4 3.4 9.3 6 14.5 7.7 5.3 1.8 10.8 2.6 16.6 2.6 8.8 0 17-1.8 24.4-5.4v-17.7c-5.1 4.7-12.4 7-21.7 7-3.8 0-7.4-.5-10.9-1.6-3.4-1-6.6-2.7-9.5-4.8-2.9-2.1-5.1-4.9-6.8-8.4-1.7-3.5-2.5-7.5-2.5-12 0-9.5 2.9-16.6 8.7-21.5 5.8-4.9 12.8-7.3 21-7.3 8.3 0 15.4 2.2 21.1 6.6v-17.2c-7.2-3.4-15.2-5.2-24-5.2zM266.3 470h-31.8v84.3h18.1v-27.7h13.7c24.2 0 36.4-9.4 36.4-28.3S290.5 470 266.3 470zm91.5 0h-34.7v84.3h18.1v-29.5h13.2l22.8 29.5H398l-25.2-31.8c12.3-3.9 18.4-12.3 18.4-25 0-5.1-.9-9.5-2.8-13.2-1.9-3.7-4.5-6.5-7.8-8.5s-6.9-3.5-10.6-4.3c-3.7-1.1-7.8-1.5-12.2-1.5zm76.9 0h-18.1v84.3h18.1V470zm39.4 0h-19.5l32.7 84.3h18.5l32.9-84.3h-19.5l-22.6 63.1-22.5-63.1zm117.2 0h-19.5l-34.4 84.3H556l6.3-15.8h38.5l6.1 15.8h18.7L591.3 470zm145 0H716l33 54.4v29.9h17.9v-29.9l32.9-54.4h-20.3l-21.6 37.8-21.6-37.8zm-154.8 16.7c.4 2.2 1 4.4 1.8 6.6l11.8 30.2h-27.2l11.7-30.2c.8-1.9 1.4-4.1 1.9-6.6zm-314.3-.8c11.4 0 17.1 4.1 17.1 12.4s-5.7 12.4-17.1 12.4h-14.6v-24.8h14.6zm91.5 0c4.2 0 7.6 1 10.2 2.9 2.6 1.9 4 4.9 4 9 0 4-1.3 7-4 9s-6.1 3-10.2 3h-17.5V486h17.5z" style="fill:#fff"/>
</svg>
