<svg xmlns="http://www.w3.org/2000/svg" viewBox="0 0 1024 1024">
   <circle cx="512" cy="512" r="512" style="fill:#323947"/>
   <path d="M260.15 324.397v65.199c7.787 9.046 16.679 17.064 25.211 25.365.36-14.957.694-29.914 1.028-44.845 46.566 46.258 93.081 92.594 139.185 139.34-45.41 46.489-92.156 91.643-137.438 138.261-1.747-21.51-14.057-38.521-27.986-53.863v100.612h67.768c9.072-7.813 17.09-16.705 25.391-25.262-15.805-.386-31.636-.643-47.466-.977 46.258-46.567 92.568-93.03 139.288-139.109 19.172 15.574 35.259 36.416 59.365 44.46 32.664 3.906 52.118-27.036 73.602-45.925 45.641 45.925 91.077 92.106 137.567 137.182-19.095 5.448-35.105 16.935-49.959 29.631h98.144v-62.629c-7.786-9.046-16.678-17.064-25.21-25.365-.36 14.931-.72 29.888-1.028 44.845-47.107-46.798-94.161-93.647-140.779-140.908 46.695-46.309 93.313-92.696 139.442-139.545.643 22.615 12.413 40.938 27.575 56.692V324.397h-73.139c-8.712 8.07-17.013 16.548-25.365 24.977 17.604.463 35.182.874 52.76 1.285-54.045 54.713-109.015 108.553-162.777 163.574-11.873 11.411-23.232 24.312-38.652 30.993-13.62 2.57-24.157-6.553-32.612-15.522-58.645-59.493-117.573-118.755-177.169-177.323 21.485-1.747 38.523-14.057 53.866-27.986H260.15Zm170.744 0c-8.301 8.044-16.319 16.422-23.72 25.314 22.975-2.955 52.734 9.56 70.287-10.896 5.551-4.729 10.87-9.715 16.447-14.418h-63.014Zm131.296 0c-8.737 8.173-17.064 16.782-25.416 25.34 21.382.18 42.763.103 64.145-.18 8.429-8.481 16.807-17.039 25.622-25.16H562.19ZM260.15 460.679v62.86c8.352 8.841 17.141 17.193 25.93 25.571-.334-19.069 1.311-38.369-1.233-57.309-6.04-11.847-16.448-20.816-24.697-31.122Zm477.77 11.642c.334 19.043-1.311 38.369 1.234 57.309 6.039 11.847 16.447 20.816 24.696 31.121v-62.86c-8.352-8.84-17.141-17.192-25.93-25.57ZM455.077 668.327c-8.393.031-16.761.355-25.059 1.491-11.847 5.988-20.714 16.447-31.019 24.645h62.86c8.84-8.352 17.193-17.141 25.57-25.93-10.742.187-21.561-.249-32.355-.206Zm133.773.057c-8.439-.016-16.855.272-25.197 1.408-11.848 6.014-20.714 16.473-31.019 24.671h60.752c9.792-8.044 18.863-16.884 28.012-25.648-10.814.116-21.7-.411-32.548-.431Z" style="fill:#fff"/>
</svg>
