<svg xmlns="http://www.w3.org/2000/svg" viewBox="0 0 1024 1024">
   <circle cx="512" cy="512" r="512" style="fill:#323947"/>
   <path d="M256 321.35v66.27c7.92 9.2 17 17.35 25.63 25.78q.55-22.81 1-45.58 71 70.53 141.48 141.64C378 556.71 330.48 602.61 284.45 650c-1.78-21.86-14.29-39.16-28.45-54.75v102.27h68.88c9.22-7.94 17.37-17 25.81-25.68-16.07-.39-32.16-.65-48.25-1q70.56-71 141.56-141.4c19.49 15.83 35.84 37 60.34 45.19 33.2 4 53-27.48 74.81-46.68 46.43 46.69 92.61 93.63 139.85 139.45-19.41 5.54-35.68 17.21-50.78 30.12H768v-63.67c-7.91-9.2-17-17.35-25.63-25.78q-.55 22.77-1 45.58-71.87-71.35-143.14-143.22 71.2-70.61 141.77-141.85c.65 23 12.62 41.61 28 57.63V321.35h-74.34c-8.86 8.2-17.29 16.82-25.78 25.39q26.84.71 53.63 1.31C666.57 403.66 610.69 458.38 556 514.31c-12.07 11.6-23.61 24.71-39.29 31.5-13.84 2.61-24.56-6.66-33.15-15.78q-89.42-90.71-180.09-180.24c21.84-1.78 39.16-14.29 54.75-28.45H256Zm173.56 0a330 330 0 0 0-24.11 25.73c23.35-3 53.6 9.72 71.45-11.08 5.64-4.81 11-9.88 16.72-14.66Zm133.46 0c-8.88 8.31-17.35 17.06-25.83 25.76q32.6.27 65.2-.18c8.57-8.62 17.08-17.32 26-25.57ZM256 459.88v63.9c8.49 9 17.42 17.48 26.36 26-.34-19.38 1.33-39-1.25-58.25-6.11-12.06-16.73-21.18-25.11-31.65Zm485.64 11.83c.34 19.36-1.33 39 1.25 58.25 6.14 12 16.72 21.16 25.1 31.63V497.7c-8.48-8.98-17.41-17.47-26.35-25.99Zm-287.5 199.24a192.79 192.79 0 0 0-25.47 1.52c-12 6.09-21.06 16.72-31.53 25.05H461c9-8.49 17.48-17.42 26-26.36-10.92.19-21.92-.25-32.89-.21Zm136 .06a186.94 186.94 0 0 0-25.61 1.43c-12 6.11-21.06 16.74-31.53 25.08h61.75c10-8.18 19.17-17.16 28.47-26.07-11 .12-22.06-.42-33.08-.44Z" style="fill:#fff"/>
</svg>
