<svg xmlns="http://www.w3.org/2000/svg" viewBox="0 0 1024 1024">
   <circle cx="512" cy="512" r="512" style="fill:#055bb5"/>
   <path d="M560.1 658.9H390.7v-58.3l169.3.7c16.7 0 30.3-13.6 30.3-30.3 0-16.7-13.6-30.3-30.3-30.3h-94c-48.4 0-88-39.6-88-88s39.6-87.9 88-87.9h169.3v58.3l-169.3-.7c-16.7 0-30.3 13.6-30.3 30.3 0 16.7 13.6 30.3 30.3 30.3h94c48.4 0 87.9 39.6 87.9 88 .1 48.3-39.5 87.9-87.8 87.9zM256 285.8v323.7c0 33.7 18.3 64.7 47.7 81.1l208.1 115.6 208.4-115.7c29.5-16.4 47.8-47.4 47.8-81.1V285.8H256z" style="fill:#fff"/>
</svg>
