<svg xmlns="http://www.w3.org/2000/svg" viewBox="0 0 1024 1024">
   <circle cx="512" cy="512" r="512" style="fill:#006aff"/>
   <path d="M666.46 280H357.54A77.53 77.53 0 0 0 280 357.54v308.92A77.53 77.53 0 0 0 357.54 744h308.92A77.53 77.53 0 0 0 744 666.46V357.54A77.53 77.53 0 0 0 666.46 280Zm-6.81 355.15a24.49 24.49 0 0 1-24.49 24.49H388.84a24.49 24.49 0 0 1-24.49-24.49V388.84a24.49 24.49 0 0 1 24.49-24.49h246.32a24.49 24.49 0 0 1 24.49 24.49ZM462.78 575a14 14 0 0 1-14-14.09v-98.37a14.08 14.08 0 0 1 14-14.14h98.48a14.08 14.08 0 0 1 14 14.14v98.29a14.07 14.07 0 0 1-14 14.09h-98.48Z" style="fill:#fff"/>
</svg>
