<svg xmlns="http://www.w3.org/2000/svg" viewBox="0 0 1024 1024" style="enable-background:new 0 0 1024 1024" xml:space="preserve">
   <style>
      .st1{fill:#fff}
   </style>
   <g id="Icon">
      <circle id="Background" cx="512" cy="512" r="512" style="fill:#c8af7d"/>
      <g id="sc-logo-background">
         <path class="st1" d="M617.1 258v-32.8c-7.2-.5-14.2-.9-21.8-1.4-.4 13.9.4 27.5.2 41.1v40.7c-5.6-2-11.2-4-17.1-6.1-.4-29-.7-58.3-1.1-87.7 1.4-.2 2.5-.2 3.8-.2h40.5c2 0 4.1.2 6.1.5 3.6.7 5.9 2.9 6.7 6.5.4 1.8.5 3.8.5 5.8v38.9c0 1.6-.2 3.2-.5 4.9-.7 3.1-2.5 4.3-5.6 4-2-.2-4-.9-5.9-1.3-1.1-.2-2.2-.5-3.8-.9 6.8 19.6 13.1 38.9 18.5 59.1-1.4-.7-2.2-1.3-3.1-1.8-4.1-2.7-8.3-5.6-12.4-8.1-1.6-1.1-2.5-2.3-3.1-4.1-5.8-16.4-11.5-32.6-17.5-48.8-1.3-3.6-1.4-7.4-1.1-11.7 5.5 1 11.1 2.1 16.7 3.4z"/>
         <path class="st1" d="m638.5 330-1.2-.6c-1.1-.5-1.7-1-2.4-1.4-.2-.2-.5-.3-.7-.5-1.4-.9-2.8-1.8-4.2-2.8-2.7-1.8-5.5-3.7-8.3-5.3-1.7-1.1-2.7-2.5-3.3-4.5-6.9-19.6-12.3-34.7-17.5-48.8-1.2-3.4-1.5-7.1-1.1-12l.1-.7.7.2c3 .7 6 1.3 9 2 2.3.5 4.6 1 6.8 1.5v-31.5c-3.7-.3-7.3-.5-11-.7-3.2-.2-6.3-.4-9.6-.6-.2 7.4-.1 14.8.1 22 .1 6.1.2 12.3.1 18.5v41.5l-1-.3c-5.5-2-11.1-3.9-16.9-6.1l-.4-.1v-.4l-1.1-88.2.5-.1c1.5-.2 2.6-.2 3.9-.2h40.5c2.1 0 4.3.2 6.2.5 3.9.8 6.4 3.2 7.1 6.9.4 1.8.6 3.8.6 5.9v38.9c0 1.7-.2 3.3-.6 5-.8 3.3-2.9 4.8-6.2 4.4-1.2-.1-2.4-.4-3.6-.7-.8-.2-1.6-.4-2.3-.5-.6-.1-1.2-.3-2-.5-.3-.1-.5-.1-.8-.2 8 22.9 13.6 40.8 18.2 58.1l.4 1.3zm-37.4-74.9c-.3 4.4 0 7.7 1.1 10.8 5.2 14.1 10.5 29.1 17.5 48.8.5 1.7 1.4 2.9 2.8 3.8 2.8 1.7 5.6 3.5 8.3 5.4 1.4.9 2.8 1.8 4.1 2.7.2.1.5.3.8.5.3.2.7.4 1.1.7-4.6-17.1-10.2-35-18.2-57.7l-.3-1 1 .2c.7.2 1.3.3 1.9.5.7.2 1.3.3 1.9.4.8.1 1.6.4 2.4.6 1.1.3 2.3.6 3.5.7 2.8.3 4.3-.8 5-3.5.3-1.6.5-3.2.5-4.7v-38.9c0-2-.2-3.9-.5-5.6-.7-3.3-2.7-5.3-6.2-6-1.9-.3-4-.5-6-.5h-40.5c-1.1 0-2 0-3.2.1l.9 86.6c5.5 2 10.7 3.9 15.9 5.7v-39.9c.1-6.1 0-12.4-.1-18.4-.1-7.4-.3-15-.1-22.6v-.6h.6c3.5.3 6.9.5 10.2.7 3.9.2 7.7.5 11.6.8h.5v34l-.7-.2c-2.5-.6-5-1.1-7.5-1.6-2.7-.6-5.6-1.2-8.3-1.8zm-157.9-15.5c0-7.2.2-14.2 0-21.1 0-3.2-2.3-5.6-5.8-6.3-2.2-.5-4.5-.7-6.8-.7-11.2 0-22.3.2-33.7.2-7 0-10.3 3.2-10.4 10.3-.2 8.8 0 17.8 0 26.6 0 4 1.4 7.2 5 9.2 6.7 3.8 13.1 7.9 19.6 11.7 4.3 2.5 9 4.7 13.1 7v18.4c-6.8 3.1-13.5 5.9-20.7 9v-20.7c-3.6.5-13.7 4.9-17.3 7.4v28.8c0 .7.2 1.4.4 2.2.7 2.7 2.3 3.6 4.9 2.7 1.8-.5 3.4-1.4 5-2.5 11-7 22.5-13 34.6-17.8 2.3-.9 4.5-2.3 6.7-3.8 2.7-2 4.1-4.9 4.1-8.3 0-7.2 0-14.6.2-21.8 0-2.9-1.3-4.9-3.8-6.1-2-.9-3.8-2-5.8-3.1-8.8-5.2-17.5-10.3-26.3-15.7-1.1-.7-2.5-2-2.5-2.9-.2-5.8-.2-11.7-.2-17.6 7.4-.9 14.2-1.3 21.4-1.3V241c6.6.1 12.3-.7 18.3-1.4z"/>
         <path class="st1" d="M389.8 325.2c-.6 0-1.1-.1-1.6-.4-1-.5-1.7-1.6-2.1-3.1-.2-.8-.4-1.5-.4-2.3v-29.1l.3-.2c3.7-2.6 13.9-6.9 17.5-7.5l.7-.1V303c7.5-3.2 13.6-5.8 19.5-8.5v-17.6c-1.8-1-3.6-2-5.6-3-2.4-1.2-4.9-2.5-7.2-3.9-2.8-1.6-5.7-3.4-8.5-5.1-3.6-2.2-7.4-4.5-11.2-6.6-3.5-1.9-5.3-5.2-5.3-9.7v-8.8c0-5.9-.1-11.9 0-17.8.2-7.4 3.7-10.8 11-10.8 5.7 0 11.3 0 17-.1 5.6 0 11.1-.1 16.7-.1 2.7 0 5 .2 7 .7 3.8.8 6.2 3.4 6.2 6.9.1 4.5.1 9.1 0 13.9v7.7l-1 .1c-5.9.7-11.4 1.4-17.8 1.4h-.6V224c-7.1 0-13.6.4-20.3 1.2 0 5.7 0 11.5.2 17.1 0 .5 1 1.6 2.3 2.4 6.8 4.2 13.7 8.2 20.3 12.1l5.9 3.5c.5.3 1 .6 1.5.8 1.4.8 2.7 1.5 4.2 2.2 2.8 1.4 4.1 3.6 4.1 6.7-.2 7.2-.2 14.6-.2 21.8 0 3.6-1.5 6.7-4.4 8.8-2.2 1.4-4.4 2.9-6.8 3.9-12 4.8-23.6 10.8-34.5 17.8-1.9 1.3-3.5 2.1-5.2 2.6-.5.1-1.2.3-1.7.3zm-2.9-34.3v28.5c0 .6.2 1.3.3 2 .3 1.2.8 2 1.5 2.4.6.3 1.5.3 2.6-.1 1.6-.5 3.1-1.2 4.9-2.5 11-7 22.6-13 34.7-17.9 2.3-.9 4.5-2.3 6.6-3.7 2.5-1.9 3.9-4.6 3.9-7.8 0-7.2 0-14.6.2-21.8 0-2.6-1.1-4.4-3.5-5.6-1.5-.7-2.8-1.4-4.2-2.2l-1.5-.9-5.9-3.5c-6.6-3.9-13.5-8-20.4-12.2-.7-.4-2.8-2-2.8-3.4-.2-5.8-.2-11.8-.2-17.6v-.5l.5-.1c7.1-.9 13.9-1.3 21.5-1.3h.6v17.6c6 0 11.4-.7 17-1.4v-6.7c0-4.8.1-9.3 0-13.8 0-2.9-2-5.1-5.3-5.7-1.9-.5-4.1-.7-6.7-.7-5.6 0-11.1 0-16.7.1-5.6 0-11.3.1-17 .1-6.6 0-9.7 3-9.9 9.7-.1 5.9-.1 11.9 0 17.8v8.9c0 4.1 1.5 6.9 4.7 8.7 3.8 2.1 7.5 4.4 11.2 6.6 2.8 1.7 5.6 3.4 8.5 5.1 2.3 1.4 4.8 2.6 7.2 3.9 2 1 4 2.1 5.9 3.2l.3.2v19.1l-.3.2c-6.3 2.8-12.6 5.6-20.7 9l-.8.3V284c-4 .8-12.7 4.5-16.2 6.9zm309.4 492.8c-.4 0-.7.2-1.1.2-2.5-4.9-5.2-9.9-7.7-14.8-3.1-5.9-6.1-11.7-9.2-17.6-.5-1.1-1.6-2.3-2.5-2.5-3.2-.4-6.5-.2-9.9-.2v63.4h12.4v-36c.2 0 .5 0 .7-.2 6.1 12.1 12.2 24.1 18.5 36.4 3.8 0 7.4.2 11-.2V749h-12.2v34.7z"/>
         <path class="st1" d="M703.2 813h-6l-.2-.3c-6.2-12-12.3-24-18.2-35.6v35.7h-13.6v-64.6h3.2c2.5 0 5-.1 7.4.2 1.3.3 2.5 1.8 3 2.8 1.5 3 3.1 5.9 4.6 8.8 1.5 2.9 3.1 5.9 4.6 8.8 1.3 2.4 2.6 4.9 3.9 7.4 1.2 2.4 2.5 4.7 3.7 7h.2v-34.8h13.4v64.3l-.5.1c-1.9.1-3.7.2-5.5.2zm-5.3-1.2h2.5c2.6 0 5.1.1 7.6-.2v-62.1h-11.1v34.7h-.6c-.1 0-.2 0-.4.1s-.4.1-.7.1h-.4l-.2-.3c-1.3-2.4-2.6-4.9-3.9-7.4-1.3-2.5-2.6-5-3.9-7.4-1.5-3-3.1-5.9-4.6-8.8-1.5-2.9-3.1-5.9-4.6-8.8-.5-1.1-1.5-2.1-2.1-2.2-2.3-.3-4.7-.2-7.2-.2h-2v62.2h11.2v-36h.9l.6-.6.4 1c6.2 11.7 12.3 23.8 18.5 35.9zM508.2 211.7h-56c-.4 4-.4 7.6 0 11.3 6.7.2 12.8-.5 19.3 0-.2 23.6-.5 46.8-.7 70.2 6.3-.9 12.1-1.8 17.8-2.5 0-1.3.2-2.2.2-3.2.2-12.6.2-25.2.2-37.8 0-7.9 0-16 .2-23.9 0-1.1.2-2.2.4-3.6h18.9c-.3-3.8-.3-7.1-.3-10.5z"/>
         <path class="st1" d="M470.1 294v-.7c.1-11.6.2-23.2.4-34.8.1-11.6.3-23.2.4-34.8-3.5-.3-6.9-.2-10.5 0-2.6.1-5.4.2-8.2.1h-.5v-.5c-.4-3.8-.4-7.5 0-11.5v-.5h57.1v.6c0 3.4 0 6.6.2 10.4v.6h-19v.3c-.1 1-.2 1.8-.2 2.7-.2 7.9-.2 16.1-.2 23.9 0 12.4 0 25.2-.2 37.8 0 .5 0 1-.1 1.5 0 .5-.1 1.1-.1 1.7v.5l-.5.1c-4 .5-8 1.1-12.2 1.7-1.8.3-3.7.5-5.7.8l-.7.1zm-4.1-71.7c1.8 0 3.6.1 5.5.2h.5v.5c-.1 11.9-.2 23.6-.4 35.4-.1 11.4-.3 22.8-.4 34.2 1.7-.2 3.3-.5 5-.7 4-.6 7.8-1.2 11.7-1.6 0-.5.1-.9.1-1.3 0-.5.1-.9.1-1.4.2-12.6.2-25.4.2-37.8 0-7.9 0-16 .2-24 0-.9.1-1.8.3-2.8l.2-1.4h18.8c-.1-3.3-.2-6.2-.2-9.3h-54.9c-.3 3.5-.3 6.8 0 10.2 2.6.1 5.1 0 7.6-.1 1.9-.1 3.8-.1 5.7-.1zM344.3 790.8v13h-15.8c-.9-5.4-.5-43.9.4-46.6h15.5v12.2h12.4v-15.8c0-2.2-1.4-3.6-3.4-4.1-1.3-.4-2.7-.5-4.1-.5h-26.6c-4.5 0-7.4 1.3-7.4 7.4.2 14.2 0 28.4 0 42.9v7.6c.2 3.2 1.3 4.7 4.3 5.4 1.4.4 2.7.5 4.1.5h24.1c1.4 0 3.1-.2 4.5-.5 3.1-.7 4.3-2.2 4.3-5.4v-13c0-.9-.2-2-.4-2.9-3.8-.2-7.6-.2-11.9-.2z"/>
         <path class="st1" d="M347.7 813.1h-24.1c-1.4 0-2.7-.2-4.3-.6-3.3-.8-4.6-2.4-4.8-5.9v-22c0-9.3.1-19 0-28.5 0-7 3.8-8 8-8h26.6c1.5 0 3 .2 4.3.6 2.4.7 3.8 2.4 3.8 4.7v16.4h-13.6v-12.2h-14.4c-.8 4.8-1.1 39-.3 45.5h14.7v-13h13l.1.5c.2 1.2.4 2.2.4 3v13c0 3.4-1.4 5.2-4.8 6-1.4.3-3 .5-4.6.5zm-25.2-63.7c-4.3 0-6.8 1.1-6.8 6.8.1 9.5.1 19.1 0 28.5v22c.2 3 1.1 4.2 3.9 4.8 1.5.4 2.7.5 4 .5h24.1c1.5 0 3-.2 4.4-.5 2.9-.7 3.9-1.9 3.9-4.8v-13c0-.6-.1-1.3-.3-2.3h-10.8v13H328l-.1-.5c-.9-5.4-.6-44 .4-46.9l.1-.4h16.5v12.2h11.3v-15.3c0-1.8-1.1-3.1-3-3.6-1.2-.3-2.6-.5-4-.5h-26.7zm285.2-.4v63.2h34.9v-8.5h-11.2c-3.6-.2-7.2.5-10.8-.4V784h18.5v-8.3h-18.4c-.7-4.3-.7-15.3.2-18.4h21.2V749h-34.4z"/>
         <path class="st1" d="M643.2 812.8h-36.1v-64.4h.6c11.8 0 22.9 0 34.6.2h.6v9.4h-21.4c-.7 3.3-.7 12.9-.1 17.2h18.4v9.5h-18.5v18.2c2.1.4 4.2.4 6.3.3 1.3-.1 2.6-.1 3.9 0h11.7v9.6zm-34.9-1.2h33.8v-7.3h-10.6c-1.3-.1-2.6 0-3.8 0-2.3.1-4.7.2-7.1-.4l-.4-.1v-20.3h18.5v-7.1h-18.3l-.1-.5c-.7-4.4-.7-15.5.2-18.6l.1-.4h21.1v-7.1c-11.3-.2-22-.2-33.4-.2v62zm-63.6.6h38.4v-8.8h-23c.5-1.3.9-2 1.3-2.9 6.8-14.4 13.9-29 20.7-43.4 1.3-2.7 1.6-5.2.9-7.9-5.2-.9-33.8-.5-36.4.2v8.1h21.2c-.9 2-1.4 3.4-2.2 4.9-6.7 14-13.3 28.1-20 42-1.3 2.6-1.6 4.9-.9 7.8z"/>
         <path class="st1" d="M583.6 812.8h-39.4l-.1-.4c-.7-2.9-.4-5.4.9-8.3 6.7-13.9 13.4-28.1 20-42 .4-.8.8-1.6 1.2-2.6.2-.4.4-.9.6-1.4h-20.9V749l.4-.1c2.7-.8 31.3-1.1 36.6-.2l.4.1.1.4c.7 2.7.4 5.4-.9 8.3-3.4 7.2-6.9 14.4-10.3 21.6-3.5 7.3-6.9 14.5-10.4 21.8-.2.5-.4.9-.6 1.5l-.3.6h22.7v9.8zm-38.4-1.2h37.3V804h-23.3l.4-.8c.2-.6.4-1 .6-1.4l.6-1.5c3.4-7.3 6.9-14.5 10.4-21.8 3.5-7.2 6.9-14.5 10.3-21.6 1.2-2.5 1.5-4.8 1-7.1-5.8-.8-31.1-.5-35.3.1v7h21.6l-.4.8c-.4.8-.7 1.6-1 2.2-.4 1-.8 1.8-1.2 2.6-6.5 13.8-13.3 28.1-20 41.9-1.3 2.7-1.5 4.8-1 7.2zm-77.7-54.3h13.7V749H441v8.5h13.7v41c0 4.5-.2 9 .2 13.7 4.5 0 8.5.2 12.6-.2v-54.7z"/>
         <path class="st1" d="M461.3 812.8h-6.9v-.5c-.3-3.5-.2-7-.2-10.4V758h-13.7v-9.6h41.3v9.5h-13.7v54.7h-.5c-2.2.2-4.2.2-6.3.2zm-5.9-1.2h2.8c3 0 5.8.1 8.7-.2v-54.8h13.7v-7.1h-39v7.3h13.7v45c-.1 3.2-.1 6.5.1 9.8zm-61-62.6v63.2h12.4V749h-12.4z"/>
         <path class="st1" d="M407.4 812.8h-13.6v-64.4h13.6v64.4zm-12.4-1.2h11.2v-62H395v62zM519.9 749h-12.4v63.2h12.4V749z"/>
         <path class="st1" d="M520.4 812.8h-13.6v-64.4h13.6v64.4zm-12.4-1.2h11.2v-62H508v62zm36.9-599.9h-18.5c-7.6 25.9-15.3 51.7-23 77.8h17.8c1.3-4.7 2.3-9.4 3.8-14.4 7.4.5 14.6 1.3 22 1.8l4 16c5.9 1.3 11.5 2.5 17.8 3.8-7.9-29.2-15.6-57.3-23.9-85zm-17.7 53.1c2.7-11 5.4-21.8 7.9-32.4h.9c2.7 11 5.4 22.1 8.3 33.7-6.1-.4-11.5-.9-17.1-1.3z"/>
         <path class="st1" d="m569.5 297.5-.9-.2c-4.2-.8-8.1-1.7-12-2.5-1.9-.4-3.9-.8-5.9-1.3l-.4-.1-.1-.4c-1.2-5-2.5-10.2-3.9-15.6-3.5-.3-7.1-.6-10.6-.9l-10.5-.9c-.8 2.8-1.5 5.6-2.2 8.3l-1.5 5.7-.1.4h-19.1l.2-.8c2.4-8.2 4.9-16.4 7.3-24.6 5.2-17.4 10.6-35.4 15.7-53.2l.1-.4H545l.1.4c7.4 24.8 15 51.8 23.8 85l.6 1.1zm-18.2-5.1c1.9.4 3.7.8 5.5 1.2 3.5.8 7.2 1.6 11 2.3-8.6-32.6-16.1-59.2-23.4-83.6h-17.7c-5.1 17.6-10.5 35.5-15.6 52.8-2.4 7.9-4.7 15.8-7.1 23.8h16.6c.5-1.7.9-3.5 1.4-5.2.7-2.8 1.5-5.7 2.3-8.7l.1-.5h.5c3.7.3 7.3.6 11 .9 3.6.3 7.3.6 11 .9h.4l.1.4c1.4 5.5 2.7 10.7 3.9 15.7zm-6.2-25.7h-.8c-3.4-.2-6.5-.5-9.6-.7l-7.5-.6h-.7l2.2-8.8c2.1-8.4 4-16.3 5.9-24.3l.1-.5h1.8l.1.4c.9 3.5 1.7 7 2.6 10.6 1.9 7.6 3.7 15.2 5.7 23.1l.2.8zm-17.1-2.4c2.3.2 4.5.3 6.8.5 2.8.2 5.7.5 8.8.6-1.9-7.6-3.7-15-5.5-22.3-.8-3.4-1.6-6.7-2.5-10.1-1.9 7.8-3.8 15.6-5.8 23.8l-1.8 7.5zM393.6 732.4c4.7 1.3 8.6 1.3 13.9.2 12.1-2.3 22.5-7.9 31.7-15.8 1.8-1.4 3.2-3.2 4.7-5 .9-1.3 1.4-2.9 2-4.3-2.7-2.2-5.4-1.8-8.1-1.6-8.6.9-16.6 3.8-24.1 7.7-6.8 3.6-12.8 8.3-17.5 14.4-.9 1.5-1.7 3-2.6 4.4z"/>
         <path class="st1" d="M400.6 734c-2.4 0-4.7-.3-7.1-1l-.8-.2.4-.7c.6-1 1.1-2 1.7-3 .3-.5.5-1 .8-1.5 4.5-5.9 10.5-10.8 17.7-14.6 8.5-4.4 16.4-7 24.3-7.8h.6c2.6-.2 5.3-.4 8 1.8l.3.3-.3.9c-.5 1.3-1 2.8-1.9 3.9-1.5 1.8-2.9 3.7-4.8 5.2-9.7 8.4-20.4 13.7-31.9 16-2.5.4-4.8.7-7 .7zm-6-2c4.2 1 7.9 1 12.8 0 11.3-2.2 21.9-7.5 31.4-15.7 1.8-1.4 3.2-3.2 4.6-5 .7-1 1.2-2.3 1.7-3.6v-.1c-2.2-1.6-4.5-1.4-6.8-1.3h-.5c-7.8.8-15.6 3.3-23.9 7.7-7.2 3.8-12.8 8.4-17.3 14.2-.2.4-.5.9-.8 1.4-.4.9-.8 1.7-1.2 2.4zm183.8-24.4c.4 3.4 2.5 5.6 4.7 7.6 9.7 9 20.9 15.3 34 17.6 4.3.7 8.6 1.1 13.7-.4-2.3-2.9-4-5.6-6.1-7.7-6.7-7.2-15.1-11.9-24.3-15.3-5.2-1.8-10.4-3.2-16-3.4-2.1-.1-4.4-.2-6 1.6z"/>
         <path class="st1" d="M623.6 734c-2.3 0-4.6-.3-6.7-.6-12.6-2.2-23.8-8.1-34.3-17.8-2.3-2.2-4.5-4.4-4.9-7.9v-.3l.2-.2c1.7-1.8 4-1.8 5.9-1.8h.5c6 .2 11.6 1.9 16.2 3.5 10.5 3.9 18.5 9 24.5 15.5 1.3 1.3 2.5 2.9 3.7 4.6.8 1 1.6 2.1 2.4 3.2l.6.7-.9.2c-2.5.6-4.9.9-7.2.9zM579 707.8c.4 3 2.3 5 4.5 6.9 10.3 9.6 21.4 15.3 33.7 17.5 4.3.7 8.2 1 12.6-.1-.7-.9-1.3-1.7-1.9-2.6-1.2-1.6-2.3-3.1-3.6-4.4-5.9-6.4-13.8-11.3-24.1-15.2-4.5-1.6-10-3.2-15.8-3.4h-.5c-1.8 0-3.6 0-4.9 1.3zm23.3-8.9c.9 3.1 1.3 4.1 4.5 6.3 4.5 3.1 9.2 5.8 14.2 8.1 8.3 3.8 17.1 5.6 26.3 5.2 3.1-.2 6.1-.5 9.5-2-2-2.2-3.4-4.1-5.4-5.6-12.2-10.4-26.6-14.4-42.3-14.2-2.3-.1-5 .1-6.8 2.2z"/>
         <path class="st1" d="M645.1 719.2c-8.4 0-16.5-1.8-24.2-5.3-4.9-2.3-9.6-5-14.3-8.2-3.3-2.2-3.8-3.3-4.7-6.6l-.1-.3.2-.2c2.1-2.5 5.2-2.5 7.3-2.4 17.1-.2 31.1 4.5 42.6 14.4 1.5 1.1 2.7 2.4 3.9 3.9.5.6 1 1.1 1.5 1.7l.6.6-.8.3c-3.3 1.4-6.3 1.8-9.7 2-.8.1-1.6.1-2.3.1zM603 699.1c.8 2.7 1.2 3.7 4.2 5.7 4.6 3.2 9.3 5.8 14.1 8.1 8.3 3.8 17 5.5 26 5.2 3-.2 5.7-.5 8.6-1.6-.3-.4-.7-.8-1-1.1-1.3-1.5-2.4-2.7-3.8-3.8-11.4-9.7-25-14.3-42-14.1-2-.3-4.4-.2-6.1 1.6zm-235.8 17.7c1.8.5 3.1.9 4.3 1.1 17.8 2.5 33.3-3.1 47.2-13.9.7-.5 1.4-1.4 2-2.3 1.6-2.3 1.3-3.6-1.6-4.5-.5-.2-1.3-.4-1.8-.4-4 0-8.1-.2-12.1.2-11 1.3-21.1 4.9-29.9 11.3-3.1 2.5-5.8 5-8.1 8.5z"/>
         <path class="st1" d="M380 719c-2.8 0-5.7-.2-8.6-.6-1.3-.2-2.7-.6-4.4-1.1l-.8-.2.5-.7c2.5-3.7 5.4-6.3 8.2-8.6 8.6-6.3 18.7-10.2 30.2-11.5 3-.3 6.1-.2 9.2-.2h3c.7 0 1.6.3 2 .4 1.6.5 2.6 1.2 2.9 2.1.4 1.2-.4 2.4-1 3.3-.6 1-1.4 1.9-2.1 2.5-12.6 9.8-25.5 14.6-39.1 14.6zm-11.9-2.6c1.3.4 2.4.7 3.5.8 16.6 2.3 31.9-2.2 46.7-13.7.6-.5 1.3-1.3 1.8-2.2.7-1.1 1-1.8.8-2.3-.2-.5-.9-1-2.1-1.3-.6-.2-1.2-.3-1.6-.3h-3c-3 0-6.1-.1-9 .2-11.2 1.3-21.2 5.1-29.6 11.2-2.5 2-5.2 4.4-7.5 7.6zm311.3-18.9c-2.5-2-4.7-3.8-7-5.2-11.2-6.8-23.4-8.8-36.2-8.1-2.7.2-5.6.5-8.3 1.3-1.8.4-3.8.9-4.5 2.9 6.3 11.6 41.6 17.7 56 9.1z"/>
         <path class="st1" d="M660.5 702.1c-6.7 0-13.7-1-19.4-2.6-9.2-2.5-15.9-6.5-18.3-11l-.1-.2.1-.2c.8-2.3 3-2.9 4.9-3.3 2.4-.6 5.1-1.1 8.4-1.3 14.3-.8 26.2 1.9 36.5 8.2 2 1.2 3.8 2.7 5.8 4.2l1.9 1.5-.7.4c-4.9 3.2-11.8 4.3-19.1 4.3zM624 688.3c2.3 4.1 8.7 7.7 17.4 10.1 11.3 3.1 27.5 4.1 36.9-1l-.6-.5c-1.9-1.5-3.8-3-5.7-4.2-10.1-6.2-21.8-8.8-35.8-8-3.1.2-5.8.6-8.2 1.2-1.6.4-3.3.9-4 2.4zm-223.2-.4c-1.4-1.8-3.4-2.5-5.4-2.9-6.3-1.4-12.8-1.4-19.3-.7-9 .9-17.5 3.4-25 8.3-2.2 1.4-4.3 2.9-6.1 5.6 2.2.9 4 1.6 5.9 2.2 6.1 1.8 12.2 2 18.5 1.3 8.6-.9 16.9-3.2 24.7-7.4 2.6-1.5 5.5-2.9 6.7-6.4z"/>
         <path class="st1" d="M362.9 702.6c-4.3 0-8.3-.6-12.1-1.7-2.1-.6-3.9-1.3-6-2.2l-.7-.3.4-.6c1.9-2.8 4.1-4.3 6.3-5.7 7.3-4.7 15.5-7.4 25.3-8.4 7.4-.8 13.7-.6 19.5.7 1.6.3 4 .9 5.7 3.1l.2.3-.1.3c-1.3 3.4-4 5-6.4 6.3l-.5.3c-7.5 4-15.9 6.5-24.9 7.5-2.4.3-4.6.4-6.7.4zm-17-4.7c1.8.7 3.4 1.4 5.2 1.9 5.6 1.6 11.4 2 18.3 1.2 8.9-.9 17.1-3.4 24.5-7.3l.5-.3c2.3-1.3 4.6-2.6 5.8-5.4-1.1-1.2-2.7-2-4.8-2.4-5.6-1.3-11.9-1.5-19.1-.7-9.6 1-17.7 3.6-24.8 8.2-2 1.3-3.9 2.6-5.6 4.8zm297.8-23.3c1.4 2.5 3.6 3.8 5.8 4.5 5 1.4 10.3 3.1 15.5 3.8 9.5 1.4 19.1.9 28.1-2.7 2.3-.9 4.3-2.2 7.2-3.6-2.3-1.4-3.8-2.5-5.4-3.4-6.3-3.4-13-4.9-20-5.4-8.3-.7-16.6 0-24.5 2.5-2.5.7-5 1.6-6.7 4.3z"/>
         <path class="st1" d="M674.5 684.2c-3.1 0-6.3-.2-9.6-.7-4.6-.6-9.2-2-13.7-3.3l-1.9-.5c-2.8-.9-4.8-2.5-6.1-4.8l-.2-.3.2-.3c1.7-2.9 4.4-3.8 7-4.6 7.7-2.4 16-3.3 24.7-2.5 8.1.6 14.5 2.4 20.2 5.5.9.5 1.8 1.1 2.8 1.7.8.5 1.6 1.1 2.6 1.7l.9.6-.9.5c-1 .5-1.9 1-2.8 1.4-1.6.8-2.9 1.6-4.5 2.2-5.7 2.3-12 3.4-18.7 3.4zm-30.1-9.6c1.2 1.9 2.9 3.1 5.3 3.9l1.9.5c4.4 1.3 9 2.6 13.5 3.2 10.2 1.5 19.5.6 27.8-2.7 1.5-.6 2.8-1.3 4.4-2.1.6-.3 1.2-.6 1.9-1-.7-.4-1.2-.8-1.8-1.2-1-.6-1.8-1.2-2.7-1.7-5.6-3-11.9-4.7-19.7-5.3-8.6-.7-16.7.1-24.3 2.5-2.5.8-4.8 1.6-6.3 3.9zM324 676.8c2.9 1.4 5 2.7 7.4 3.6 9 3.6 18.4 4 27.7 2.7 5.4-.7 10.6-2.5 15.8-4 2.3-.7 4.3-2 5.6-4.5-2-2.9-5-3.8-8.1-4.7-10.6-2.9-21.2-3.2-32-.7-5.8 1.1-11.2 3.3-16.4 7.6z"/>
         <path class="st1" d="M349.7 684.3c-6.8 0-12.9-1.1-18.6-3.4-1.7-.6-3.2-1.4-5-2.4-.8-.4-1.5-.8-2.4-1.2l-.8-.4.7-.6c4.9-4 10.2-6.5 16.7-7.7 10.7-2.5 21.3-2.3 32.3.7 3.1.9 6.3 1.9 8.4 4.9l.2.3-.2.3c-1.2 2.4-3.1 3.9-5.9 4.8-1.3.4-2.5.7-3.8 1.1-3.9 1.2-8 2.3-12.2 2.9-3.2.5-6.3.7-9.4.7zm-24.7-7.6c.6.3 1.1.6 1.6.8 1.8.9 3.3 1.7 4.9 2.3 8 3.2 17 4.1 27.4 2.7 4.1-.5 8.1-1.7 12-2.9 1.3-.4 2.5-.7 3.8-1.1 2.4-.7 4-2 5.1-3.9-1.9-2.5-4.6-3.3-7.6-4.2-10.8-2.9-21.2-3.2-31.8-.7-5.9 1.2-10.8 3.4-15.4 7zm338-17.2c2 .9 3.4 2.2 5.2 2.5 3.2.9 6.5 1.6 9.7 1.8 11.5 1.1 22.9-.4 33.3-5.8 2.5-1.3 4.9-3.1 8.1-5.2-3.2-1.3-5.4-2.5-7.7-3.2-9.7-3.1-19.6-2.7-29.3-.4-4.5 1.1-9 2.7-13.3 4.5-2.6 1.1-4.7 2.4-6 5.8z"/>
         <path class="st1" d="M684.8 664.7c-2.3 0-4.6-.1-7-.3-2.8-.2-5.9-.7-9.8-1.8-1.2-.2-2.2-.8-3.3-1.5-.6-.4-1.3-.8-2-1.1l-.5-.2.2-.5c1.4-3.7 3.8-5.1 6.3-6.1 5-2.1 9.4-3.6 13.4-4.5 10.9-2.6 20.6-2.5 29.7.4 1.3.4 2.6 1 4 1.6 1.1.5 2.3 1.1 3.7 1.6l1.1.4-.9.6c-.9.6-1.7 1.2-2.5 1.7-2 1.4-3.8 2.6-5.6 3.5-8 4.2-16.9 6.2-26.8 6.2zm-21.1-5.5c.6.3 1.1.6 1.6.9 1 .6 2 1.1 3 1.3 3.9 1.1 6.9 1.6 9.6 1.8 12.4 1.2 23.5-.8 33-5.7 1.8-.9 3.5-2.1 5.5-3.5.5-.4 1.1-.7 1.6-1.1-1-.4-1.9-.8-2.8-1.2-1.4-.6-2.6-1.2-3.9-1.6-8.9-2.8-18.4-2.9-29-.4-4 1-8.3 2.4-13.2 4.5-2.1 1-4.1 2.1-5.4 5zM305.6 653c3.4 3.6 7.6 5.8 11.9 7.2 11.9 4.3 23.9 5 36.4 2.3 1.6-.4 3.2-.9 4.7-1.6 2.9-1.4 3.1-2.9.5-4.9-1.3-1.1-2.7-2-4.1-2.7-11.7-5.2-23.9-7.2-36.7-5.2-4.6 1.1-8.7 2.2-12.7 4.9z"/>
         <path class="st1" d="M339.4 664.7c-7.5 0-14.8-1.3-22.1-4-5-1.7-9-4.1-12.1-7.3l-.5-.5.6-.4c3.9-2.7 8-3.8 12.8-4.9 12.5-1.9 25-.2 37.1 5.3 1.6.8 3.1 1.8 4.3 2.8 1.4 1.1 2.1 2.1 2 3.1-.1 1-.9 1.9-2.6 2.7-1.4.7-3.1 1.3-4.8 1.7-5.1 1-9.9 1.5-14.7 1.5zm-32.9-11.6c2.9 2.9 6.5 5 11.2 6.5 11.8 4.3 23.6 5 36.1 2.3 1.6-.4 3.2-.9 4.5-1.6 1.3-.6 1.9-1.2 2-1.8.1-.5-.5-1.3-1.5-2.1-1.2-1-2.5-1.9-4-2.6-11.9-5.3-24.2-7.1-36.4-5.2-4.5 1.2-8.3 2.2-11.9 4.5zm-15.7-25.3c2.2 2 3.8 3.8 5.6 5 12.6 9.2 26.8 11.9 42 10.6 2.2-.2 4.5-.5 5.9-2.7-5-11.8-38-20.1-53.5-12.9z"/>
         <path class="st1" d="M331.5 644.3c-13.6 0-25.3-3.6-35.4-11-1.2-.9-2.4-2-3.7-3.2-.6-.6-1.2-1.2-1.9-1.8l-.6-.6.8-.4c10.2-4.8 27.3-2.7 38.9 1.7 8 3.1 13.5 7.2 15.3 11.5l.1.3-.2.3c-1.6 2.4-4.1 2.8-6.4 3-2.3.2-4.6.2-6.9.2zM291.9 628c.5.4.9.9 1.3 1.3 1.3 1.2 2.4 2.3 3.6 3.1 11.6 8.4 25.2 11.9 41.6 10.5 2-.2 4-.5 5.3-2.2-1.8-3.9-7-7.7-14.5-10.6-11.2-4.2-27.3-6.3-37.3-2.1zm441.5-.6c-2.2-.7-3.2-1.1-4.5-1.4-5.6-1.4-11.3-1.6-16.9-.9-9.5 1.3-18.4 4.3-26.3 9.4-1.8 1.1-3.4 2.7-4.9 4.1-1.4 1.6-1.1 2.9.9 3.6 2.2.7 4.7 1.4 7 1.4 5 0 10.3-.2 15.1-.9 9.7-1.6 18.9-5.2 26.5-11.9.8-.8 1.7-1.9 3.1-3.4z"/>
         <path class="st1" d="M688.7 644.2c-2.5 0-5.2-.8-7.2-1.5-1.2-.4-1.9-1.1-2.1-1.9-.2-.8.1-1.7 1-2.7 1.5-1.5 3.1-3.1 5-4.3 7.8-5 16.7-8.2 26.5-9.4 6-.8 11.8-.5 17.1.9 1.3.4 2.4.7 4.5 1.4l.9.3-.6.7c-1.4 1.4-2.3 2.4-3 3.4-7.1 6.3-16.1 10.3-26.8 12.1-4.2.7-9 1-15.3 1zm29.6-18.9c-2 0-4.1.1-6.2.4-9.6 1.3-18.4 4.4-26 9.3-1.8 1.1-3.3 2.7-4.8 4.1-.4.4-.8 1.1-.7 1.6.1.5.8.9 1.4 1.1 2 .7 4.5 1.4 6.8 1.4 6.1 0 10.9-.3 15-.9 10.5-1.8 19.3-5.7 26.2-11.7.6-.7 1.3-1.6 2.4-2.7-1.6-.5-2.5-.8-3.6-1.1-3.4-1.1-6.9-1.5-10.5-1.5zm-388.2-4.5c-.7-3.4-3.1-5.4-5.4-7.4-9.2-7.4-19.6-12.2-31.3-13.7-4.5-.5-9-.7-13.9.9 1.8 3.1 3.8 5.4 6.1 7.6 10.8 9.2 23.4 13.7 37.3 14.6 2.3 0 4.8 0 7.2-2z"/>
         <path class="st1" d="M322.9 623.4c-14.6-.9-27.3-5.9-37.7-14.7-2.6-2.4-4.5-4.8-6.2-7.7l-.4-.6.7-.2c5.1-1.7 9.8-1.4 14.1-.9 11.3 1.4 22 6 31.6 13.8 2.4 2 4.8 4.1 5.6 7.7l.1.3-.3.2c-2.4 2.1-5.1 2.1-7.5 2.1zM280.4 601c1.6 2.5 3.4 4.7 5.6 6.8 10.2 8.6 22.6 13.5 36.9 14.4 2.2 0 4.4 0 6.5-1.6-.8-3-2.9-4.8-5.1-6.7-9.5-7.6-19.9-12.2-31-13.5-4-.6-8.3-.8-12.9.6zm464.2.2c-.2-.4-.4-.7-.4-1.1-2-.2-4-.7-5.9-.7-15.3-.4-28.3 5.4-39.8 14.9-1.4 1.3-2.7 2.7-3.6 4.3-1.1 1.8-.5 2.9 1.4 3.4 1.6.4 3.6.7 5.2.5 13.9-.9 26.3-5.2 36.9-14.6 2.2-1.7 4.2-4.4 6.2-6.7z"/>
         <path class="st1" d="M700.6 623.2c-1.5 0-3.1-.3-4.4-.6-1.3-.3-2-.9-2.3-1.6-.3-.7-.1-1.6.5-2.7.9-1.6 2.1-3.1 3.7-4.5 12.7-10.5 25.8-15.4 40.2-15.1 1.2 0 2.5.2 3.6.4.8.1 1.6.3 2.3.3h.5v.5c0 .2.2.5.3.8l.2.3-.3.3c-.5.6-1 1.2-1.4 1.7-1.5 1.9-3.1 3.8-4.8 5.2-10.1 8.9-22.3 13.7-37.2 14.7-.2.3-.6.3-.9.3zm36.3-23.3c-13.6 0-26 4.9-38.1 14.8-1.5 1.3-2.7 2.7-3.5 4.2-.4.7-.6 1.3-.4 1.6.2.4.7.7 1.5.9 1.5.3 3.4.7 5 .5 14.7-1 26.6-5.7 36.6-14.4 1.6-1.3 3.1-3.2 4.6-5l1.2-1.5c-.1-.1-.1-.3-.2-.5-.7-.1-1.3-.2-2-.3-1.2-.2-2.3-.4-3.5-.4-.3.1-.7.1-1.2.1zm-465.7-28.5c1.4 4.1 4 7.2 6.7 10.1 8.3 8.8 18.5 14 30.1 16.9 2 .5 4 .7 5.9.7 1.3 0 2.5-.5 3.8-.7-.4-3.6-.9-4.7-3.4-7.4-8.5-9.2-18.5-15.8-30.8-18.9-3.8-.8-7.8-1.4-12.3-.7z"/>
         <path class="st1" d="M313.9 599.8c-2.3 0-4.3-.2-6.1-.7-12.6-3.1-22.5-8.7-30.3-17.1-3.1-3.3-5.4-6.3-6.8-10.3l-.2-.7.7-.1c5-.8 9.3 0 12.5.7 11.6 2.9 22.1 9.3 31.1 19.1 2.6 2.8 3.2 4.1 3.6 7.7l.1.6-.6.1c-.5.1-.9.2-1.4.3-1 .2-1.8.4-2.6.4zM272 571.9c1.4 3.5 3.5 6.2 6.3 9.2 7.7 8.2 17.4 13.7 29.8 16.8 1.7.5 3.6.7 5.8.7.7 0 1.4-.2 2.1-.4.3-.1.7-.2 1-.2-.3-3-.9-4-3.2-6.5-9-9.7-18.9-15.8-30.5-18.7-2.9-.8-6.8-1.5-11.3-.9zm433.5 26.2c3.4 2 6.5 1.4 9.2.9 8.1-1.6 15.5-5 22.3-9.5 5.8-3.8 10.8-8.5 14.4-14.6.5-1.1 1.1-2.2 1.6-3.6-1.8-.2-2.9-.2-4-.2-1.4 0-3.1.2-4.5.4-14.2 2.3-25.6 9.5-34.9 20.2-1.8 1.7-2.7 3.9-4.1 6.4z"/>
         <path class="st1" d="M710.7 600.1c-1.7 0-3.6-.3-5.5-1.5l-.5-.3.3-.5c.3-.6.7-1.2 1-1.7 1-1.8 1.8-3.4 3.3-4.9 10.1-11.4 21.6-18.1 35.2-20.3 1.5-.2 3.1-.4 4.6-.4 1.1 0 2.2 0 4 .2l.8.1-.3.7c-.5 1.5-1.1 2.6-1.6 3.7-3.4 5.7-8.1 10.6-14.6 14.8-7.5 5-14.9 8.1-22.5 9.6-1.3.2-2.7.5-4.2.5zm-4.4-2.2c3.1 1.6 6 1 8.3.6 7.5-1.5 14.7-4.6 22.1-9.5 6.3-4.1 11-8.8 14.2-14.4.4-.9.9-1.7 1.3-2.8-1.3-.1-2.2-.1-3.1-.1-1.4 0-3 .2-4.4.4-13.3 2.2-24.7 8.7-34.6 20-1.3 1.3-2.2 2.9-3.1 4.6-.2.3-.5.7-.7 1.2zm-439.4-55.4c.7 4.1 2.2 6.8 4 9.5 7.4 11.3 18 18.7 30.6 23.4 1.8.7 3.8.7 5.6.9 1.6 0 2.3-.9 2-2.5-.5-1.6-1.1-3.4-2-4.9-7.9-11.9-18.4-20.7-32-24.8-2.6-.9-5.1-1.1-8.2-1.6z"/>
         <path class="st1" d="M307 576.9c-.4 0-.8-.1-1.2-.1-1.5-.1-3.1-.2-4.6-.8-13.8-5.1-23.9-12.8-30.9-23.6-1.9-2.9-3.3-5.6-4-9.8l-.1-.8.8.1c.8.1 1.7.3 2.4.4 2 .3 3.9.6 5.8 1.3 13 3.9 23.9 12.4 32.3 25.1.8 1.4 1.4 2.9 1.9 4.5l.2.5c.2 1.1.1 1.8-.4 2.4-.3.3-.9.8-2.2.8zm-39.4-33.7c.7 3.5 2 6 3.7 8.5 6.9 10.6 16.8 18.2 30.3 23.2 1.4.5 2.8.7 4.3.8.4 0 .8.1 1.2.1.4 0 .9-.1 1.2-.4.3-.4.2-1 .1-1.4l-.2-.5c-.5-1.5-1-3-1.7-4.2-8.3-12.5-19-20.7-31.7-24.6-1.8-.6-3.5-.9-5.6-1.2-.5-.1-1-.2-1.6-.3zm489.7-.4c-2.2.2-3.8.2-5.4.5-11.3 2.3-20.5 8.6-28.3 17.1-2.9 3.1-5.2 6.7-7.6 10.1-1.1 1.4-1.8 3.4-.9 5.4 3.1 1.3 5.8 0 8.5-.9 8.8-3.2 16.6-8.3 23-15.1 3.6-3.8 6.8-7.9 8.8-12.8.9-1.2 1.2-2.5 1.9-4.3z"/>
         <path class="st1" d="M717.9 577.1c-.9 0-1.9-.2-2.9-.6l-.2-.1-.1-.2c-1.2-2.6.1-4.9 1-6l.8-1.2c2.1-3 4.2-6.2 6.8-8.9 8.6-9.4 18-15.1 28.6-17.3 1.2-.3 2.4-.3 3.7-.4.5 0 1.1-.1 1.7-.1l.9-.1-.4.9-.6 1.5c-.4 1.1-.7 2-1.3 2.9-1.7 4.2-4.5 8.3-8.9 12.9-6.5 6.8-14.3 12-23.3 15.3-.3.1-.7.2-1 .3-1.4.5-3 1.1-4.8 1.1zm-2.2-1.6c2.4.9 4.6.1 6.9-.7.3-.1.7-.2 1-.3 8.8-3.2 16.5-8.3 22.8-15 4.3-4.5 7-8.5 8.7-12.6.5-.9.8-1.7 1.2-2.8.1-.2.2-.4.2-.7-.3 0-.6 0-.8.1-1.3.1-2.5.2-3.6.4-10.3 2.1-19.5 7.7-28 16.9-2.5 2.7-4.6 5.8-6.7 8.8l-.8 1.2c-.7 1-1.7 2.8-.9 4.7zm-449.3-61.3c-.2 1.3-.4 1.6-.2 2 .4 1.4.5 2.7 1.1 4 5.4 14.6 15.8 24.5 29.3 31.5.9.5 2 .7 2.9.9 1.1.2 2.2 0 3.2 0 .5-3.1.5-4.3-1.1-7.6-5.8-11.5-13.9-20.9-25.4-27.2-3-1.4-6.4-2.3-9.8-3.6z"/>
         <path class="st1" d="M300.6 553.2c-.4 0-.8 0-1.2-.1h-.2c-.9-.2-1.9-.4-2.8-.9-14.8-7.7-24.5-18.1-29.6-31.8-.4-.9-.6-1.9-.8-2.9-.1-.4-.2-.7-.3-1.1-.2-.4-.1-.8 0-1.3 0-.2.1-.5.2-.9l.1-.7.7.3 3.6 1.2c2.2.7 4.3 1.4 6.4 2.4 11.1 6 19.4 15 25.7 27.5 1.7 3.4 1.7 4.8 1.1 7.9l-.1.5h-1.5c-.6-.1-1-.1-1.3-.1zM266.8 515v.3c-.1.3-.1.6-.1.7v.1l.3 1.2c.2.9.4 1.8.8 2.7 5 13.4 14.5 23.6 29.1 31.2.8.5 1.7.6 2.5.8h.2c.6.1 1.3.1 2 0h.6c.4-2.7.3-3.8-1.1-6.7-6.1-12.2-14.3-21-25.1-26.9-1.9-.9-4-1.6-6.2-2.3-1-.4-2-.8-3-1.1zm491.1-.4c-1.4.4-2.3.4-3.2.7-16 5.6-26.3 17.1-32.9 32.4-.5 1.4-.4 3.1-.5 4.7 3.6.5 4.5.5 7.7-1.1 11.5-6.1 20.7-14.8 26.5-26.6 1.1-3.1 2.6-6.2 2.4-10.1z"/>
         <path class="st1" d="M724.3 553.3c-.9 0-1.9-.1-3.2-.3l-.6-.1.1-.6c.1-.5.1-1 .1-1.6 0-1.1.1-2.2.5-3.3 7.3-16.8 18.2-27.5 33.3-32.8.5-.2 1.1-.3 1.7-.4.4-.1.9-.2 1.5-.3l.7-.2v.7c.2 3.8-1.1 6.7-2.2 9.6l-.3.8c-5.5 11.4-14.5 20.4-26.7 26.9-2.2 1.2-3.4 1.6-4.9 1.6zm-2.5-1.4c3.1.4 4 .3 6.8-1.1 12-6.4 20.8-15.2 26.2-26.4l.3-.7c1.1-2.6 2.2-5.2 2.2-8.4-.3.1-.6.1-.9.2-.6.1-1.1.2-1.5.4-14.8 5.2-25.5 15.7-32.6 32.1-.3.8-.4 1.8-.4 2.9-.1.2-.1.6-.1 1zm-422.1-24.7c-.2-2.2 0-4.3-.5-6.3-.7-2.7-1.6-5.4-2.9-7.9-4.9-10.3-11.5-19.1-21.4-25-2-1.1-4-2-6.3-3.1 0 2-.2 3.4 0 4.7 3.1 15.7 12.1 27.4 25 36.4 1.4 1 3 2.1 6.1 1.2z"/>
         <path class="st1" d="M297.5 528.1c-1.8 0-3.1-.8-4.3-1.7-14.1-9.8-22.3-21.8-25.3-36.7-.1-.9-.1-1.8-.1-2.9V484l1.3.6c2.1 1 4 1.8 5.8 2.8 9.1 5.5 16.2 13.7 21.7 25.3 1.1 2.2 2.1 4.9 2.9 8 .4 1.4.4 2.9.5 4.3 0 .7 0 1.4.1 2.1v.5l-.5.1c-.6.3-1.4.4-2.1.4zm-28.4-42.3v1.1c0 1-.1 1.9 0 2.6 2.9 14.6 11 26.4 24.8 36 1.5 1.1 2.8 1.9 5.2 1.3 0-.6-.1-1.1-.1-1.7 0-1.4-.1-2.8-.4-4-.8-3.1-1.7-5.6-2.8-7.8-5.4-11.3-12.3-19.4-21.2-24.8-1.8-1-3.5-1.8-5.5-2.7zm456.6 42.1c1.4-.5 3.2-.9 4.5-1.8 13.1-8.6 22-20.2 25.4-35.6.4-1.6.2-3.4.4-5.8-2.3 1.1-4 1.6-5.6 2.3-4.9 2.5-9 6.1-12.6 10.3-6.3 7.4-11 15.5-13.1 25-.5 2-.7 3.6 1 5.6z"/>
         <path class="st1" d="m725.5 528.6-.3-.3c-1.7-2.1-1.6-3.9-1.2-6.1 2-8.9 6.4-17.2 13.3-25.3 4-4.6 8.2-8 12.8-10.4l2.1-.9c1-.4 2.1-.8 3.5-1.5l.9-.4-.1 1c-.1.9-.1 1.7-.1 2.5 0 1.2 0 2.3-.3 3.4-3.3 15.1-11.7 26.9-25.6 36-.9.7-2.1 1.1-3.3 1.4-.5.1-.9.3-1.3.4l-.4.2zm29.8-43c-1 .4-1.9.8-2.6 1.1-.7.3-1.4.6-2.1.8-4.4 2.3-8.5 5.6-12.4 10.1-6.8 7.9-11 16-13 24.8-.3 1.8-.5 3.1.7 4.8.3-.1.6-.2 1-.3 1.1-.3 2.2-.7 3-1.3 13.7-9 21.9-20.5 25.2-35.3.2-.9.2-1.9.2-3.1-.1-.5-.1-1 0-1.6zm-481.9-29.2c-.2 2.2-.5 3.8-.4 5.4 1.3 15.1 8.1 27.4 18.9 37.6 1.4 1.4 3.6 2.2 5.6 3.4 2.2-3.1 1.8-6.1 1.3-8.8-2.2-11.5-7-21.8-15.1-30.2-2.9-3.1-6-5.6-10.3-7.4z"/>
         <path class="st1" d="m297.7 503.6-.5-.3c-.7-.4-1.4-.8-2.2-1.2-1.3-.7-2.5-1.3-3.5-2.3-11.6-11-17.9-23.5-19.1-38-.1-1.2 0-2.3.2-3.6.1-.6.1-1.2.2-1.9l.1-.8.7.3c3.9 1.6 7 3.9 10.5 7.5 7.9 8.2 13 18.5 15.3 30.5.6 2.8 1 6-1.4 9.3l-.3.5zm-23.8-46.3c0 .4-.1.7-.1 1.1-.1 1.3-.3 2.3-.2 3.4 1.2 14.2 7.3 26.4 18.7 37.3.9.9 2 1.5 3.2 2.1.6.3 1.2.6 1.8 1 1.7-2.7 1.3-5.5.9-7.9-2.2-11.8-7.3-21.9-15-30-3.1-3.4-5.9-5.5-9.3-7zm476.6-1.1c-2.2 1.4-4.1 2.3-5.8 3.8-11.5 9.5-17.3 22.3-19.6 36.9-.4 1.8-.2 3.8 1.3 5.2 12.2-2.3 27-29.9 24.1-45.9z"/>
         <path class="st1" d="m726.2 502.8-.2-.2c-1.8-1.8-1.8-4.1-1.4-5.8 2.6-16.2 9.1-28.3 19.8-37.2 1.1-.9 2.3-1.7 3.5-2.4.7-.4 1.5-.9 2.3-1.4l.7-.5.2.9c2.9 16.3-11.8 44.1-24.6 46.6h-.3zm23.9-45.6-1.5.9c-1.2.7-2.4 1.4-3.4 2.3-10.5 8.7-16.9 20.7-19.4 36.6-.3 1.3-.3 3.1.9 4.5 11.7-2.7 25.5-28.8 23.4-44.3zm-451 16.3c.5-1.8 1.3-3.2 1.3-4.9.4-15.5-4.3-29.3-15.3-40.5-1.1-1.1-2.3-2-3.8-3.1-.4 1.1-.7 1.6-.9 2.3-1.1 4.9-.9 9.5 0 14.4 1.8 9.9 5.8 18.9 12.1 26.8 1.4 2.3 3 4.3 6.6 5z"/>
         <path class="st1" d="m299.5 474.2-.5-.1c-3.9-.8-5.6-2.9-7-5.1-6.2-7.8-10.3-16.9-12.2-27-1-5.4-1-10.1 0-14.6.1-.4.3-.8.4-1.2.1-.3.3-.7.5-1.2l.3-.8 1.2.9c1.3.9 2.3 1.7 3.3 2.7 10.7 10.8 15.9 24.6 15.5 40.9 0 1.3-.4 2.4-.8 3.6-.2.5-.3.9-.5 1.4l-.2.5zM281.6 426c-.1.2-.2.4-.2.6-.2.4-.3.7-.4 1-1 4.4-1 8.9 0 14.2 1.8 9.9 5.8 18.9 11.9 26.6 1.3 2 2.7 3.8 5.8 4.5l.3-.9c.4-1.2.8-2.2.8-3.2.4-16-4.7-29.5-15.1-40.1-.9-1-1.9-1.8-3.1-2.7zm461.3-.9c-1.4 1.1-2.5 1.8-3.4 2.7-11.3 11-15.7 24.8-15.8 40.3 0 1.8.4 3.8 2 5.4 2.9-.4 4.5-2.5 6.1-4.5 6.5-8.3 10.6-17.6 12.1-27.9.7-5.2.8-10.4-1-16z"/>
         <path class="st1" d="m725.4 474.1-.2-.2c-1.9-1.9-2.2-4.2-2.2-5.8.2-17.2 5.4-30.5 16-40.8.7-.7 1.5-1.3 2.5-2 .3-.2.6-.5 1-.7l.7-.5.3.8c2 6.1 1.6 11.6.9 16.3-1.4 10.2-5.5 19.7-12.2 28.2l-.3.3c-1.5 1.9-3.3 4-6.3 4.4h-.2zm17.2-48.1c-.1.1-.2.1-.3.2-1 .7-1.7 1.3-2.4 1.9-10.4 10-15.5 23.1-15.7 39.9 0 2 .5 3.6 1.6 4.8 2.3-.4 3.7-2.1 5.2-3.9l.2-.3c6.5-8.3 10.5-17.6 11.9-27.6.8-4.3 1.1-9.4-.5-15zm-438.3 21.4c2.2-1.6 2.5-3.8 2.9-6.1.9-5 .5-10.1 0-15.1-1.1-8.6-3.8-16.9-9-23.9-1.3-1.6-2.7-2.9-4.1-4.7-.5 1.4-.9 2.2-1.3 3.1-1.8 5.4-2 11-1.6 16.6.7 8.8 3.2 17.1 7.7 24.8 1.1 2.1 2.6 4.4 5.4 5.3z"/>
         <path class="st1" d="m304.5 448-.3-.1c-3-.9-4.6-3.3-5.8-5.7-4.4-7.6-7.1-16.1-7.8-25.1-.4-6.9.1-12 1.6-16.8.1-.4.3-.7.4-1 .2-.6.5-1.2.8-2.1l.4-1 .6.8c.7.9 1.4 1.6 2.1 2.3.7.8 1.4 1.5 2.1 2.3 4.9 6.5 7.9 14.7 9.1 24.2.5 4.6.9 10 0 15.3-.4 2.3-.7 4.7-3.1 6.5l-.1.4zm-10.2-49.3c-.2.5-.3.8-.5 1.2-.1.3-.3.6-.4 1-1.5 4.6-2 9.6-1.6 16.3.7 8.8 3.3 17.1 7.7 24.6 1.1 2.1 2.4 4.2 4.8 5 1.8-1.5 2.1-3.5 2.4-5.6.9-5.2.5-10.4 0-15-1.2-9.3-4.2-17.3-8.9-23.7-.6-.8-1.3-1.5-2-2.2-.5-.5-1-1.1-1.5-1.6zm435.7-.8c-1.3 1.3-2.5 2.5-3.6 4-4.9 6.3-7.6 13.7-9 21.6-1.1 6.5-1.4 13.1-.2 19.6.4 1.8.7 3.4 2.5 4.3 11.2-5.6 17.7-37.3 10.3-49.5z"/>
         <path class="st1" d="m719.7 448.1-.3-.1c-2.1-1-2.5-3-2.8-4.7-1.1-5.8-1.1-12.3.2-19.8 1.6-8.9 4.6-16 9.1-21.9 1.1-1.5 2.4-2.8 3.6-4l.5-.5.4.6c4.7 7.8 3.6 22.4.7 32.6-2.6 9-6.7 15.5-11.2 17.7l-.2.1zm10.1-49.3c-1 1.1-2.1 2.2-3 3.4-4.4 5.7-7.3 12.7-8.9 21.4-1.2 7.4-1.3 13.7-.2 19.4.4 1.8.7 3 1.9 3.8 4.1-2.2 7.8-8.3 10.3-16.9 3.6-11.9 3.5-24.4-.1-31.1zm-417 24.5c2.9-1.8 3.6-4 4.1-6.1 2.2-8.3 2.5-16.6 1.3-24.8-.9-6.1-2.9-11.9-6.3-16.9-.5-.7-1.3-1.4-2.2-2.3-.9 2-1.8 3.2-2.3 4.9-5 14.2-3.6 27.9 2.3 41.4.6 1.1 2 2.3 3.1 3.8z"/>
         <path class="st1" d="m312.7 424.1-.3-.4-1.2-1.5c-.8-.9-1.5-1.7-1.9-2.6-6.4-14.6-7.2-28.2-2.4-41.8.3-1 .8-1.9 1.3-2.8.3-.6.7-1.3 1.1-2.1l.4-.8.6.6c.9.9 1.7 1.7 2.2 2.4 3.3 4.9 5.4 10.6 6.4 17.2 1.3 8.5.9 16.9-1.3 25.1-.6 2.2-1.4 4.6-4.4 6.5l-.5.2zm-2.8-50.1c-.3.5-.5 1-.7 1.4-.5.9-.9 1.7-1.2 2.6-4.7 13.3-4 26.7 2.3 41 .3.7 1 1.5 1.7 2.3.3.4.6.7 1 1.1 2.3-1.6 2.9-3.4 3.4-5.5 2.1-8 2.5-16.3 1.2-24.6-.9-6.4-3-12-6.2-16.7-.4-.4-.9-.9-1.5-1.6zm400.8 48.9c2.2-.7 3.2-2.5 4-4.3 5.4-13 6.8-26.1 2.5-39.8-.7-2-1.8-3.8-3.1-6.3-1.4 2-2.5 3.2-3.2 4.7-7 13.5-7.6 27.4-3.4 41.8.7 1.4 1.4 3.2 3.2 3.9z"/>
         <path class="st1" d="m710.7 423.5-.2-.1c-1.8-.7-2.7-2.4-3.3-3.8l-.2-.4c-4.5-15.5-3.3-29.3 3.4-42.3.5-1.1 1.3-2.1 2.2-3.3.3-.4.7-.9 1.1-1.4l.6-.8.4.9c.4.8.7 1.5 1.1 2.1.8 1.5 1.5 2.8 2 4.3 4.1 13.1 3.3 26.2-2.5 40.2-.6 1.6-1.8 3.8-4.3 4.7l-.3-.1zm3.3-49.9c-.2.2-.4.5-.5.7-.9 1.2-1.6 2.1-2.1 3.1-6.6 12.7-7.7 26.2-3.4 41.3l.2.3c.6 1.3 1.2 2.5 2.5 3.2 1.9-.7 2.8-2.5 3.4-3.9 5.7-13.7 6.5-26.6 2.5-39.4-.5-1.3-1.2-2.6-1.9-4.1-.2-.3-.4-.7-.7-1.2zm-41.1-47.7c-.7 2.2-1.4 3.8-1.8 5.6-2.9 14.4.5 27.5 7.9 39.8.9 1.4 2.5 2.7 4 4 2.3-2.5 2.7-3.2 3.2-6.3 1.4-10.4-.2-20.5-4.3-30.2-2-4.8-4.7-9-9-12.9z"/>
         <path class="st1" d="m683 376-1.1-1c-1.3-1.1-2.6-2.2-3.4-3.5-8.1-13.4-10.7-26.6-8-40.2.3-1.3.7-2.4 1.2-3.8.2-.6.4-1.2.7-1.9l.3-.9.7.6c4.1 3.7 7 7.9 9.1 13 4.3 10.1 5.8 20.4 4.4 30.6-.6 3.2-1 4-3.4 6.6l-.5.5zm-9.8-49.1c-.1.4-.3.7-.4 1-.5 1.3-.9 2.4-1.1 3.6-2.7 13.3-.1 26.2 7.8 39.4.7 1.1 1.9 2.2 3.1 3.2l.3.2c1.9-2.1 2.2-2.8 2.7-5.6 1.4-9.9-.1-20-4.3-29.9-1.9-4.6-4.5-8.4-8.1-11.9zm-331.9 48.3c1.4-1.4 3.1-2.7 4-4.1 7.4-12.2 10.6-25.6 7.7-39.8-.4-1.6-1.1-3.2-2-5.6-2 2.3-3.8 4.1-5 6.1-7.4 11.2-9.4 23.8-8.1 36.9.3 2.2.7 4.5 3.4 6.5z"/>
         <path class="st1" d="m341.3 376-.4-.3c-2.9-2.1-3.3-4.6-3.6-6.8v-.1c-1.4-14.6 1.3-26.8 8.2-37.3.9-1.4 2-2.7 3.4-4.2.5-.6 1.1-1.3 1.7-2l.6-.8.4.9.6 1.5c.6 1.6 1.1 2.9 1.4 4.2 2.7 13.5.1 27.1-7.8 40.2-.7 1.1-1.7 2-2.8 3.1-.4.4-.8.8-1.3 1.2l-.4.4zm9.5-49.2c-.4.4-.7.8-1.1 1.2-1.3 1.5-2.4 2.7-3.3 4.1-6.8 10.2-9.4 22.2-8 36.5.3 2 .7 4 2.8 5.8l.9-.9c1-1 2-1.8 2.6-2.8 7.8-12.9 10.3-26.1 7.7-39.4-.3-1.2-.8-2.4-1.4-4-.1-.1-.1-.3-.2-.5zm344.3 21.6c-1.1 2.2-2 3.6-2.5 5.4-4.7 13.9-3.4 27.2 2.3 40.5.7 1.6 1.8 3.4 4 4.1 2.5-1.6 3.2-4.3 3.8-7 2-7.9 2.2-16.2.7-24.1-1.3-6.9-3.3-13.2-8.3-18.9z"/>
         <path class="st1" d="m698.9 399.1-.3-.1c-2.4-.8-3.6-2.8-4.3-4.5-6.1-14.1-6.9-27.5-2.4-40.9.4-1.4 1-2.5 1.7-3.9.3-.5.5-1 .8-1.6l.4-.8.6.7c5.4 6.2 7.3 12.9 8.4 19.2 1.5 8.1 1.2 16.6-.7 24.4-.6 2.8-1.3 5.6-4 7.4l-.2.1zm-3.7-49.7c-.1.3-.3.5-.4.8-.7 1.4-1.3 2.4-1.7 3.7-4.4 13.1-3.7 26.3 2.3 40.1.6 1.4 1.5 3 3.3 3.7 2.1-1.5 2.8-3.9 3.3-6.5 1.9-7.7 2.2-15.9.7-23.9-1-5.8-2.7-12.1-7.5-17.9zm-369.8 48.8c10.1-7 12.1-38.5 3.1-49.7-1.3 2-2.5 3.6-3.4 5.4-6.1 12.6-6.5 25.7-3.1 39.1.5 2.2 1.2 4.2 3.4 5.2z"/>
         <path class="st1" d="m325.5 398.9-.3-.2c-2.5-1.2-3.2-3.5-3.7-5.6-3.7-14.6-2.7-27.5 3.1-39.5.6-1.2 1.4-2.4 2.2-3.6.4-.6.8-1.2 1.2-1.9l.4-.7.5.6c5.7 7.1 6.7 21.4 5.2 31.8-1.3 9.1-4.4 15.9-8.4 18.8l-.2.3zm3-49.3c-.3.4-.5.8-.8 1.2-.8 1.2-1.5 2.3-2.1 3.4-5.7 11.7-6.7 24.4-3 38.7.5 2.2 1.2 3.7 2.8 4.7 3.7-2.8 6.4-9.2 7.6-17.7 1.7-12-.1-24.2-4.5-30.3zm47.7-41c-1.3.9-2.2 1.6-3.1 2.3-11 10.6-15.1 23.9-15.3 38.9 0 1.8.2 3.8 2 5 11.3-4.3 21.4-32.5 16.4-46.2z"/>
         <path class="st1" d="m359.7 355.5-.3-.2c-2-1.4-2.2-3.5-2.2-5.5.2-16.6 5.3-29.4 15.5-39.3.9-.7 1.9-1.5 3.1-2.4l.6-.4.3.7c5.2 14-5 42.6-16.7 47l-.3.1zm16.2-46c-.9.7-1.7 1.3-2.4 1.9-9.9 9.6-14.9 22.2-15.1 38.4 0 1.5.1 3.2 1.5 4.4 10.7-4.5 20.2-31.3 16-44.7zm271.8-.6c-1.6 5.4-1.8 8.5-.7 15.7 1.6 9.7 5.6 18.4 11.7 26.1 1.4 1.8 3.1 3.8 5.6 4.1 6.8-9.3-4.2-39.6-16.6-45.9z"/>
         <path class="st1" d="M664.5 355.5h-.3c-2.8-.4-4.5-2.6-6-4.4-6.2-7.9-10.2-16.8-11.8-26.4-1.1-7.2-.9-10.3.7-15.9l.2-.7.6.3c8.1 4.1 15.1 17.5 17.8 28.6 2 8.2 1.6 14.6-1 18.2l-.2.3zm-16.4-45.7c-1.4 5-1.5 8-.5 14.7 1.6 9.4 5.5 18.1 11.6 25.8 1.3 1.6 2.7 3.4 4.9 3.9 2.2-3.3 2.4-9.4.6-16.9-2.6-10.3-9.2-23.2-16.6-27.5zm-55 185.7c-30.2-4.7-50.4-11-60.5-31.7-10.1-20.9-14-51.9-15.8-75.1-1.8-23.2-4.7-83.2-4.7-83.2s-3.1 59.8-4.7 83c-1.8 23.2-5.8 54.2-15.8 75.1s-30.2 27-60.5 31.7-97.9 7.9-97.9 7.9c112.7 7.2 150.2 4.1 165.1 58.2 12.1 43.4 13.7 129.8 13.9 162V736v-12.6c.2-32.4 1.8-118.7 13.9-162 14.9-53.8 52.4-51 165.1-58.2-.1.2-67.6-3-98.1-7.7z"/>
         <path class="st1" d="M512.7 736h-1.2v-12.6c-.2-34.4-1.9-119-13.8-161.9-13.5-48.7-44.3-50.6-135.8-56-9-.5-18.6-1.1-28.8-1.8v-1.2c.7 0 68-3.3 97.9-7.9 31.5-4.9 50.4-11.3 60.1-31.4 7.9-16.3 13.2-41.5 15.8-74.9 1.6-23 4.7-82.4 4.7-83h1.2c0 .6 2.9 60.2 4.7 83.2 2.6 33.3 7.9 58.5 15.8 74.9 9.8 20.1 28.6 26.5 60.1 31.4 29.8 4.6 94.1 7.7 97.7 7.7h.1l1.8-.1-1.3 1.1s-.2.1-.3.1v.1c-9.9.6-19.3 1.2-28 1.7-92 5.5-123 7.3-136.5 56-11.9 42.9-13.7 127.5-13.8 161.9V736zM343.4 503.3c6.4.4 12.6.8 18.6 1.1 45.8 2.7 76 4.5 97.2 11.8 21.4 7.4 32.9 20.4 39.7 45 8.9 32.1 12.2 87.4 13.3 127.7 1.1-40.3 4.4-95.6 13.3-127.7 6.8-24.6 18.4-37.6 39.9-45 21.3-7.3 51.7-9.1 97.7-11.9 5.2-.3 10.5-.6 16.1-1-21.8-1.1-66.7-4.3-86-7.3-31.8-4.9-50.9-11.5-60.9-32-8-16.5-13.3-41.8-15.9-75.3-1.3-16.8-3.2-53-4.1-71.6-1 18.6-2.9 54.7-4.1 71.4-2.6 33.5-7.9 58.8-15.9 75.3-9.9 20.5-29.1 27.1-60.9 32-23.1 3.6-67.9 6.4-88 7.5z"/>
         <path class="st1" d="M705.1 428.1c-5.2-12.2-11.7-23.9-19.3-34.9-7.6-10.8-16-21.1-25.6-30.4-9.5-9.4-19.8-17.8-31-25-2.3-1.6-4.7-3.1-7.2-4.5 55.3 36.4 91.8 99.4 91.8 171v4c0 52-20.3 99.2-53.7 134.7-36.9 40.2-89.5 65.4-148 65.4S401 683.2 364.1 643c-33.5-35.5-53.8-82.8-53.8-134.7v-4c0-71.7 36.6-134.7 91.8-171-2.5 1.4-4.9 3.1-7.2 4.5-11.2 7.4-21.4 15.8-31 25-9.5 9.4-18 19.6-25.6 30.4-7.6 11-14 22.7-19.3 34.9-11 25.4-16.4 52.2-16.4 80.1 0 27.9 5.6 54.7 16.4 80.1 5.2 12.2 11.7 23.9 19.3 34.9 7.6 10.8 16 21.1 25.6 30.4 9.5 9.4 19.8 17.8 31 25 11.2 7.4 23.2 13.9 35.6 18.9 25.7 10.8 53.3 16.2 81.6 16.2 28.3 0 55.6-5.4 81.6-16.2 12.4-5.2 24.3-11.5 35.6-18.9 11.2-7.4 21.4-15.8 31-25 9.5-9.4 18-19.6 25.6-30.4 7.6-11 14-22.7 19.3-34.9 11-25.4 16.4-52.2 16.4-80.1s-5.7-54.7-16.5-80.1z"/>
         <path class="st1" d="M512.3 714.5c-28.6 0-56.1-5.5-81.8-16.2-12.2-4.9-24.2-11.3-35.7-19-10.6-6.8-21.1-15.3-31.1-25.1-9.1-8.9-17.7-19.2-25.6-30.5-7.6-11.1-14.1-22.9-19.3-35-10.9-25.6-16.4-52.7-16.4-80.4 0-28.1 5.5-55.2 16.4-80.4 5.2-12.1 11.7-23.9 19.3-35 7.9-11.4 16.6-21.6 25.6-30.5 10.1-9.7 20.5-18.1 31.1-25.1.9-.6 1.8-1.1 2.7-1.7 1.5-.9 3-1.9 4.6-2.8l.6 1c-57.3 37.7-91.6 101.5-91.6 170.6v4c0 49.9 19.1 97.6 53.7 134.3 38.6 42 91 65.2 147.6 65.2 56.5 0 108.9-23.1 147.6-65.2 34.5-36.7 53.5-84.4 53.5-134.3v-4c0-69.1-34.2-132.8-91.6-170.6l.6-1c2.8 1.6 5.1 3 7.2 4.5 10.6 6.8 21 15.3 31 25.1 9.1 8.9 17.7 19.2 25.6 30.5 7.6 11.1 14.1 22.9 19.3 35 11 25.9 16.6 52.9 16.6 80.4 0 28.1-5.5 55.2-16.4 80.4-5.2 12.1-11.7 23.9-19.3 35-7.9 11.4-16.6 21.6-25.6 30.5-10.1 9.7-20.5 18.1-31.1 25.1-11.3 7.4-23.3 13.7-35.7 19-25.9 10.7-53.4 16.2-81.8 16.2zm-134-363.6c-4.7 3.8-9.3 7.9-13.8 12.3-9 8.8-17.6 19-25.5 30.3-7.6 11-14.1 22.7-19.2 34.8-10.8 25.1-16.3 51.9-16.3 79.9 0 27.5 5.5 54.4 16.3 79.9 5.2 12.1 11.6 23.8 19.2 34.8 7.9 11.3 16.5 21.5 25.5 30.3 9.9 9.8 20.3 18.1 30.9 25 11.5 7.6 23.5 13.9 35.6 18.9 25.6 10.7 52.9 16.2 81.3 16.2 28.2 0 55.6-5.4 81.3-16.2 12.3-5.2 24.3-11.5 35.6-18.9 10.5-6.9 20.9-15.3 30.9-25 9-8.8 17.6-19.1 25.5-30.3 7.6-11 14.1-22.7 19.2-34.8 10.8-25.1 16.3-51.9 16.3-79.9 0-27.3-5.6-54.1-16.5-79.9-5.1-12.1-11.6-23.8-19.2-34.8-7.9-11.3-16.5-21.5-25.5-30.3-5.2-5.1-10.4-9.8-15.8-14.1 44.5 38.6 70.5 94.9 70.5 155.2v4c0 50.2-19.1 98.1-53.8 135.1-18.8 20.5-41 36.6-66.1 47.9-26 11.7-53.7 17.7-82.3 17.7s-56.4-5.9-82.3-17.7c-25-11.3-47.3-27.4-66.1-47.9-34.8-36.9-54-84.8-54-135.1v-4c-.1-59.4 25-114.9 68.3-153.4z"/>
         <path class="st1" d="M512.1 318.5c102.8 0 186 83.4 186 186s-83.4 186-186 186-186-83.4-186-186 83.4-186 186-186m0-3.8c-25.6 0-50.4 5-73.8 14.9-22.7 9.5-42.9 23.2-60.3 40.7-17.5 17.5-31.1 37.8-40.7 60.3-9.9 23.4-14.9 48.3-14.9 73.8 0 25.6 5 50.4 14.9 73.8 9.5 22.7 23.2 42.9 40.7 60.3 17.5 17.5 37.8 31.1 60.3 40.7 23.4 9.9 48.3 14.9 73.8 14.9 25.6 0 50.4-5 73.8-14.9 22.7-9.5 42.9-23.2 60.3-40.7 17.5-17.5 31.1-37.8 40.7-60.3 9.9-23.4 14.9-48.3 14.9-73.8 0-25.6-5-50.4-14.9-73.8-9.5-22.7-23.2-42.9-40.7-60.3s-37.8-31.1-60.3-40.7c-23.2-10-48-14.9-73.8-14.9z"/>
         <path class="st1" d="M512.1 694.8c-25.6 0-50.5-5-74-15-22.7-9.6-43-23.3-60.5-40.8-17.6-17.6-31.3-38-40.8-60.5-9.9-23.5-15-48.4-15-74s5-50.5 15-74c9.6-22.7 23.3-43 40.8-60.5 17.6-17.6 38-31.3 60.5-40.8 23.5-9.9 48.4-15 74-15 26.2 0 51.1 5 74.1 15 22.7 9.6 43 23.3 60.5 40.8 17.6 17.6 31.3 38 40.8 60.5 9.9 23.5 15 48.4 15 74s-5 50.5-15 74c-9.6 22.7-23.3 43-40.8 60.5-17.6 17.6-38 31.3-60.5 40.8-23.5 10-48.5 15-74.1 15zm0-379.5c-25.5 0-50.2 5-73.6 14.9-22.4 9.4-42.6 23.1-60.1 40.6-17.4 17.4-31 37.6-40.6 60.1-9.9 23.4-14.9 48.1-14.9 73.6 0 25.5 5 50.2 14.9 73.6 9.4 22.4 23.1 42.6 40.6 60.1 17.4 17.4 37.6 31 60.1 40.6 23.4 9.9 48.1 14.9 73.6 14.9s50.2-5 73.6-14.9c22.4-9.4 42.6-23.1 60.1-40.6 17.4-17.4 31-37.6 40.6-60.1 9.9-23.4 14.9-48.1 14.9-73.6 0-25.5-5-50.2-14.9-73.6-9.4-22.4-23.1-42.6-40.6-60.1-17.4-17.4-37.6-31-60.1-40.6-22.8-9.9-47.5-14.9-73.6-14.9zm0 375.8c-102.9 0-186.6-83.7-186.6-186.6 0-102.9 83.7-186.6 186.6-186.6 102.9 0 186.6 83.7 186.6 186.6 0 102.9-83.7 186.6-186.6 186.6zm0-372c-102.2 0-185.4 83.2-185.4 185.4s83.2 185.4 185.4 185.4 185.4-83.2 185.4-185.4c0-102.3-83.1-185.4-185.4-185.4z"/>
         <path class="st1" d="M512.1 336.5c92.7 0 168 75.3 168 168s-75.3 168-168 168-168-75.3-168-168 75.3-168 168-168m0-5.8c-23.4 0-46.3 4.7-67.7 13.7-20.7 8.8-39.3 21.2-55.3 37.3-16 16-28.4 34.6-37.3 55.3-9 21.4-13.7 44.1-13.7 67.7 0 23.4 4.7 46.3 13.7 67.7 8.8 20.7 21.2 39.3 37.3 55.3 16 16 34.6 28.4 55.3 37.3 21.4 9 44.1 13.7 67.7 13.7 23.4 0 46.3-4.7 67.7-13.7 20.7-8.8 39.3-21.2 55.3-37.3s28.4-34.6 37.3-55.3c9-21.4 13.7-44.1 13.7-67.7 0-23.4-4.7-46.3-13.7-67.7-8.8-20.7-21.2-39.3-37.3-55.3-16-16-34.6-28.4-55.3-37.3-21.4-9.2-44.1-13.7-67.7-13.7z"/>
         <path class="st1" d="M512.1 679.2c-23.4 0-46.2-4.6-67.9-13.7-20.9-8.9-39.5-21.5-55.5-37.4-15.9-15.9-28.5-34.6-37.4-55.5-9.1-21.7-13.7-44.5-13.7-67.9 0-23.4 4.6-46.2 13.7-67.9 8.9-20.9 21.5-39.5 37.4-55.5 15.9-15.9 34.6-28.5 55.5-37.4 21.7-9.1 44.5-13.7 67.9-13.7 23.8 0 46.7 4.6 67.9 13.7 20.9 8.9 39.5 21.5 55.5 37.4s28.5 34.6 37.4 55.5c9.1 21.7 13.7 44.5 13.7 67.9 0 23.4-4.6 46.2-13.7 67.9-8.9 20.9-21.5 39.5-37.4 55.5-15.9 15.9-34.6 28.5-55.5 37.4-21.6 9-44.5 13.7-67.9 13.7zm0-347.9c-23.2 0-45.9 4.6-67.5 13.6-20.7 8.8-39.3 21.3-55.1 37.1-15.8 15.8-28.3 34.3-37.1 55.1-9 21.5-13.6 44.2-13.6 67.5 0 23.2 4.6 45.9 13.6 67.5 8.8 20.7 21.3 39.3 37.1 55.1 15.8 15.8 34.3 28.3 55.1 37.1 21.5 9 44.2 13.6 67.5 13.6 23.2 0 45.9-4.6 67.5-13.6 20.7-8.8 39.3-21.3 55.1-37.1 15.8-15.8 28.3-34.3 37.1-55.1 9-21.5 13.6-44.2 13.6-67.5 0-23.2-4.6-45.9-13.6-67.5-8.8-20.7-21.3-39.3-37.1-55.1-15.8-15.8-34.3-28.3-55.1-37.1-21.1-9-43.8-13.6-67.5-13.6zm0 341.7c-93 0-168.6-75.6-168.6-168.6s75.6-168.6 168.6-168.6 168.6 75.6 168.6 168.6S605.1 673 512.1 673zm0-335.9c-92.3 0-167.4 75.1-167.4 167.4 0 92.3 75.1 167.4 167.4 167.4 92.3 0 167.4-75.1 167.4-167.4 0-92.3-75.1-167.4-167.4-167.4z"/>
         <path class="st1" d="M512.1 389.6c63.6 0 114.9 51.5 114.9 114.9s-51.5 114.9-114.9 114.9-114.9-51.5-114.9-114.9 51.5-114.9 114.9-114.9m0-11.5c-17.1 0-33.7 3.4-49.2 9.9-15.1 6.3-28.6 15.5-40.2 27-11.5 11.5-20.7 25.2-27 40.2-6.7 15.7-9.9 32.2-9.9 49.2 0 16.9 3.4 33.7 9.9 49.2 6.3 15.1 15.5 28.6 27 40.2 11.5 11.5 25.2 20.7 40.2 27 15.7 6.7 32.2 9.9 49.2 9.9s33.7-3.4 49.2-9.9c15.1-6.3 28.6-15.5 40.2-27 11.5-11.5 20.7-25.2 27-40.2 6.7-15.7 9.9-32.2 9.9-49.2 0-16.9-3.4-33.7-9.9-49.2-6.3-15.1-15.5-28.6-27-40.2-11.5-11.5-25.2-20.7-40.2-27-15.5-6.7-32.1-9.9-49.2-9.9z"/>
         <path class="st1" d="M512.1 631.1c-17.2 0-33.9-3.3-49.4-9.9-15.2-6.4-28.7-15.5-40.3-27.1-11.7-11.7-20.9-25.3-27.1-40.3-6.6-15.8-9.9-32.4-9.9-49.4 0-17.2 3.3-33.9 9.9-49.4 6.4-15.1 15.5-28.7 27.1-40.3 11.7-11.7 25.3-20.9 40.3-27.1 15.8-6.6 32.4-9.9 49.4-9.9 17.4 0 34 3.3 49.4 10 15.1 6.4 28.7 15.5 40.3 27.1 11.7 11.7 20.9 25.3 27.1 40.3 6.6 15.8 9.9 32.4 9.9 49.4 0 17.2-3.3 33.9-9.9 49.4-6.4 15.1-15.5 28.7-27.1 40.3-11.7 11.7-25.3 20.9-40.3 27.1-15.8 6.4-32.4 9.8-49.4 9.8zm0-252.4c-16.8 0-33.3 3.3-48.9 9.9-14.9 6.2-28.3 15.2-40 26.9-11.5 11.5-20.6 25-26.9 40-6.5 15.4-9.9 31.8-9.9 48.9 0 16.8 3.3 33.3 9.9 48.9 6.2 14.9 15.2 28.3 26.9 40 11.5 11.5 25 20.6 40 26.9 15.4 6.5 31.8 9.9 48.9 9.9 16.8 0 33.3-3.3 48.9-9.9 14.9-6.2 28.3-15.2 40-26.9 11.5-11.5 20.6-25 26.9-40 6.5-15.4 9.9-31.8 9.9-48.9 0-16.8-3.3-33.3-9.9-48.9-6.2-14.9-15.2-28.3-26.9-40-11.5-11.5-25-20.6-40-26.9-15.2-6.6-31.6-9.9-48.9-9.9zm0 241.2c-63.7 0-115.5-51.8-115.5-115.5s51.8-115.5 115.5-115.5 115.5 51.8 115.5 115.5-51.8 115.5-115.5 115.5zm0-229.7c-63 0-114.3 51.3-114.3 114.3s51.3 114.3 114.3 114.3 114.3-51.3 114.3-114.3-51.3-114.3-114.3-114.3zm-47.9 326.9c-2.2.5-3.6 2.9-3.1 5l.9 3.4c.5 2.2 2.9 3.6 5 3.1l44.5-11.3c.2 0 .4-.2.7-.2.2 0 .4.2.7.2l44.5 11.3c2.2.5 4.5-.7 5-3.1l.9-3.4c.5-2.2-.7-4.5-3.1-5l-23.9-6.1h-48.1l-24 6.1z"/>
         <path class="st1" d="M558.5 729.3c-.4 0-.8 0-1.1-.1L513 717.9c-.3 0-.5-.1-.6-.2h-.3c-.1 0-.2.1-.4.1l-44.4 11.3c-1.2.3-2.5.1-3.6-.6s-1.9-1.7-2.2-2.9l-.9-3.4c-.6-2.5 1-5.1 3.5-5.8l24.3-6.1h48.2l23.9 6.1c1.2.3 2.3 1 2.9 2.1.7 1.1.9 2.4.6 3.6l-.9 3.4c-.3 1.2-1 2.3-2.1 2.9-.8.7-1.6.9-2.5.9zm-46.2-12.8c.2 0 .3.1.5.1.1 0 .2.1.3.1h.1l44.5 11.3c.9.2 1.9.1 2.7-.4.8-.5 1.4-1.3 1.6-2.2l.9-3.4c.2-.9.1-1.9-.4-2.7-.5-.8-1.3-1.4-2.2-1.6l-23.9-6.1h-47.9l-24.1 6.1c-1.9.5-3.1 2.5-2.6 4.3l.9 3.4c.2.9.8 1.7 1.7 2.2.8.5 1.8.7 2.7.4l44.6-11.4s.3-.1.6-.1z"/>
      </g>
      <g id="sc-logo-text">
         <path class="st1" d="M617.1 258v-32.8c-7.2-.5-14.2-.9-21.8-1.4-.4 13.9.4 27.5.2 41.1v40.7c-5.6-2-11.2-4-17.1-6.1-.4-29-.7-58.3-1.1-87.7 1.4-.2 2.5-.2 3.8-.2h40.5c2 0 4.1.2 6.1.5 3.6.7 5.9 2.9 6.7 6.5.4 1.8.5 3.8.5 5.8v38.9c0 1.6-.2 3.2-.5 4.9-.7 3.1-2.5 4.3-5.6 4-2-.2-4-.9-5.9-1.3-1.1-.2-2.2-.5-3.8-.9 6.8 19.6 13.1 38.9 18.5 59.1-1.4-.7-2.2-1.3-3.1-1.8-4.1-2.7-8.3-5.6-12.4-8.1-1.6-1.1-2.5-2.3-3.1-4.1-5.8-16.4-11.5-32.6-17.5-48.8-1.3-3.6-1.4-7.4-1.1-11.7 5.5 1 11.1 2.1 16.7 3.4z"/>
         <path class="st1" d="m639 330.6-1.8-.9c-1.1-.5-1.8-1-2.4-1.4-.2-.2-.5-.3-.7-.5-1.4-.9-2.8-1.8-4.2-2.8-2.7-1.8-5.5-3.7-8.2-5.3-1.8-1.2-2.8-2.6-3.5-4.7-6.9-19.6-12.3-34.7-17.4-48.7-1.2-3.4-1.5-7.1-1.1-12.1l.1-1 1 .2c2.9.7 6 1.3 9 2 2.1.5 4.3.9 6.5 1.4V226c-3.6-.3-7.1-.5-10.7-.7-3-.2-6.1-.4-9.3-.6-.2 7.3 0 14.6.1 21.6.1 6.1.2 12.4.1 18.5v42l-1.4-.5c-5.5-2-11.1-3.9-16.9-6.1l-.6-.2-1.1-89.1.8-.1c1.5-.2 2.6-.2 3.9-.2h40.5c2.1 0 4.3.2 6.3.6 4.1.8 6.6 3.3 7.4 7.2.4 1.8.6 3.9.6 5.9v38.9c0 1.7-.2 3.4-.6 5.1-.8 3.5-3 5.1-6.6 4.7-1.2-.1-2.5-.4-3.7-.7-.8-.2-1.6-.4-2.3-.5-.6-.1-1.3-.3-2-.5-.1 0-.2 0-.2-.1 7.9 22.6 13.4 40.4 18 57.6l.4 1.8zm-37.7-75.1c-.3 4.2.1 7.4 1.1 10.3 5.2 14.1 10.5 29.1 17.5 48.8.5 1.7 1.3 2.7 2.7 3.7 2.7 1.7 5.6 3.5 8.3 5.4 1.4.9 2.8 1.8 4.1 2.7.2.1.5.3.8.5.1.1.3.2.4.2-4.6-16.8-10.2-34.5-18-56.9l-.5-1.5 1.6.4c.7.2 1.3.3 1.9.5.7.2 1.3.3 1.8.4.8.2 1.7.4 2.5.6 1.2.3 2.3.6 3.4.7 2.6.3 4-.7 4.6-3.3.3-1.5.5-3.1.5-4.7v-38.9c0-1.9-.2-3.9-.5-5.6-.6-3.2-2.6-5.1-6-5.8-1.8-.3-4-.5-5.9-.5h-40.5c-1 0-1.9 0-2.9.1l1.1 86.2c5.3 1.9 10.3 3.7 15.3 5.5v-39.4c.1-6.1 0-12.4-.1-18.4-.1-7.4-.3-15-.1-22.6v-.9l.9.1c3.5.3 6.9.5 10.2.7 3.9.2 7.7.5 11.6.8l.8.1v34.7l-1.1-.2c-2.5-.6-5-1.1-7.5-1.6-2.6-.9-5.3-1.5-8-2.1zm-158.1-15.9c0-7.2.2-14.2 0-21.1 0-3.2-2.3-5.6-5.8-6.3-2.2-.5-4.5-.7-6.8-.7-11.2 0-22.3.2-33.7.2-7 0-10.3 3.2-10.4 10.3-.2 8.8 0 17.8 0 26.6 0 4 1.4 7.2 5 9.2 6.7 3.8 13.1 7.9 19.6 11.7 4.3 2.5 9 4.7 13.1 7v18.4c-6.8 3.1-13.5 5.9-20.7 9v-20.7c-3.6.5-13.7 4.9-17.3 7.4v28.8c0 .7.2 1.4.4 2.2.7 2.7 2.3 3.6 4.9 2.7 1.8-.5 3.4-1.4 5-2.5 11-7 22.5-13 34.6-17.8 2.3-.9 4.5-2.3 6.7-3.8 2.7-2 4.1-4.9 4.1-8.3 0-7.2 0-14.6.2-21.8 0-2.9-1.3-4.9-3.8-6.1-2-.9-3.8-2-5.8-3.1-8.8-5.2-17.5-10.3-26.3-15.7-1.1-.7-2.5-2-2.5-2.9-.2-5.8-.2-11.7-.2-17.6 7.4-.9 14.2-1.3 21.4-1.3V241c6.6.1 12.3-.7 18.3-1.4z"/>
         <path class="st1" d="M389.8 325.5c-.6 0-1.2-.1-1.8-.4-1.1-.6-1.8-1.7-2.3-3.3-.2-.8-.4-1.6-.4-2.4v-29.3l.4-.3c3.7-2.6 14-7 17.7-7.5l1-.2v20.4c7.3-3.1 13.2-5.7 18.9-8.2V277c-1.7-1-3.5-1.9-5.4-2.9-2.4-1.2-4.9-2.5-7.3-3.9-2.8-1.6-5.7-3.4-8.5-5.1-3.6-2.2-7.4-4.5-11.1-6.6-3.6-2-5.5-5.4-5.5-10v-8.8c0-5.9-.1-11.9 0-17.8.2-7.5 3.9-11.1 11.3-11.1 5.7 0 11.3 0 17-.1 5.6 0 11.1-.1 16.7-.1 2.7 0 5.1.2 7.1.7 3.9.8 6.4 3.6 6.4 7.2.1 4.5.1 9.1 0 13.9v8l-1.2.2c-5.9.7-11.5 1.4-17.8 1.4h-.9v-17.6c-6.9 0-13.2.4-19.6 1.2 0 5.6 0 11.3.2 16.8 0 .3.8 1.3 2.1 2.2 6.8 4.2 13.7 8.2 20.3 12.1l5.9 3.5c.5.3 1 .6 1.5.8 1.4.8 2.7 1.5 4.2 2.2 2.9 1.4 4.3 3.8 4.3 6.9-.2 7.2-.2 14.6-.2 21.8 0 3.7-1.6 6.8-4.5 9-2.2 1.5-4.4 3-6.9 3.9-11.9 4.8-23.5 10.8-34.4 17.7-2 1.3-3.6 2.1-5.3 2.6-.7.3-1.3.4-1.9.4zm-2.6-34.4v28.3c0 .6.2 1.3.3 1.9.3 1.1.8 1.8 1.4 2.2.6.3 1.3.3 2.3-.1 1.5-.5 3-1.2 4.8-2.4 11-7 22.7-13.1 34.7-17.9 2.3-.9 4.4-2.3 6.5-3.7 2.4-1.8 3.7-4.4 3.7-7.5 0-7.2 0-14.6.2-21.8 0-2.5-1-4.2-3.3-5.3-1.5-.7-2.8-1.4-4.3-2.2-.5-.3-1-.6-1.5-.8l-6-3.5c-6.7-3.9-13.5-8-20.4-12.2-.9-.6-3-2.1-3-3.6-.2-5.7-.2-11.8-.2-17.6v-.8l.8-.1c7.1-.9 13.9-1.3 21.5-1.3h.9v17.6c5.8-.1 10.9-.7 16.4-1.3v-6.4c0-4.8.1-9.3 0-13.8 0-2.7-1.9-4.8-5-5.4-1.9-.5-4.1-.7-6.7-.7-5.6 0-11.1 0-16.7.1-5.6 0-11.3.1-17 .1-6.5 0-9.4 2.8-9.5 9.4-.1 5.9-.1 11.9 0 17.8v8.9c0 4 1.5 6.7 4.6 8.4 3.8 2.2 7.6 4.4 11.2 6.7l8.4 5.1c2.3 1.4 4.8 2.6 7.2 3.9 2 1 4 2.1 6 3.2l.5.3v19.5l-.5.2c-6.3 2.8-12.6 5.6-20.7 9l-1.3.5v-21c-3.8.5-11.9 4-15.3 6.3zm309.1 492.6c-.4 0-.7.2-1.1.2-2.5-4.9-5.2-9.9-7.7-14.8-3.1-5.9-6.1-11.7-9.2-17.6-.5-1.1-1.6-2.3-2.5-2.5-3.2-.4-6.5-.2-9.9-.2v63.4h12.4v-36c.2 0 .5 0 .7-.2 6.1 12.1 12.2 24.1 18.5 36.4 3.8 0 7.4.2 11-.2V749h-12.2v34.7z"/>
         <path class="st1" d="M703.2 813.3H697l-.3-.5c-6-11.6-11.9-23.2-17.6-34.4v34.7H665v-65.2h3.4c2.6 0 5-.1 7.5.2 1.3.3 2.6 1.7 3.2 3 1.5 3 3.1 5.9 4.6 8.8 1.5 2.9 3.1 5.9 4.6 8.8 1.3 2.4 2.6 4.9 3.9 7.4 1.1 2.1 2.2 4.1 3.3 6.2v-34.2h14V813l-.8.1c-1.9.2-3.7.2-5.5.2zm-5.1-1.8h2.3c2.5 0 4.9.1 7.2-.1v-61.5h-10.4v34.7h-.9c-.1 0-.2 0-.3.1-.2.1-.5.1-.8.1h-.5l-.3-.5c-1.3-2.4-2.6-4.9-3.9-7.4-1.3-2.5-2.6-5-3.9-7.4-1.5-3-3.1-5.9-4.6-8.8-1.5-2.9-3.1-5.9-4.6-8.8-.5-1.1-1.4-2-1.9-2.1-2.3-.3-4.6-.2-7.2-.2h-1.7v61.6h10.6v-36h1.1l.8-.8.7 1.3c6 11.7 12.1 23.8 18.3 35.8zM508.2 211.7h-56c-.4 4-.4 7.6 0 11.3 6.7.2 12.8-.5 19.3 0-.2 23.6-.5 46.8-.7 70.2 6.3-.9 12.1-1.8 17.8-2.5 0-1.3.2-2.2.2-3.2.2-12.6.2-25.2.2-37.8 0-7.9 0-16 .2-23.9 0-1.1.2-2.2.4-3.6h18.9c-.3-3.8-.3-7.1-.3-10.5z"/>
         <path class="st1" d="M469.8 294.3v-1c.1-11.6.2-23.2.4-34.8.1-11.5.3-23 .4-34.5-3.4-.2-6.7-.1-10.2 0-2.6.1-5.4.2-8.2.1h-.8l-.1-.8c-.4-3.8-.4-7.5 0-11.5l.1-.8h57.7v.9c0 3.4 0 6.6.2 10.4v.9h-19.1v.1c-.1 1-.2 1.8-.2 2.6-.2 7.9-.2 16.1-.2 23.9 0 12.4 0 25.2-.2 37.8 0 .5 0 1-.1 1.6 0 .5-.1 1.1-.1 1.7v.8l-.8.1c-4 .5-8 1.1-12.2 1.7-1.8.3-3.7.5-5.7.8h-.9zm-3.8-72.4c1.8 0 3.7.1 5.5.2l.8.1v.8c-.1 11.9-.2 23.6-.4 35.4-.1 11.3-.3 22.5-.3 33.8 1.6-.2 3.1-.5 4.6-.7 3.9-.6 7.7-1.1 11.4-1.6 0-.4 0-.7.1-1 0-.5.1-.9.1-1.4.2-12.6.2-25.4.2-37.8 0-7.9 0-16 .2-24 0-.9.1-1.8.3-2.8l.2-1.6h18.8c-.1-3.1-.1-5.8-.1-8.6H453c-.3 3.3-.3 6.4 0 9.6 2.5 0 4.9 0 7.3-.1 1.9-.2 3.8-.3 5.7-.3zM344.3 790.8v13h-15.8c-.9-5.4-.5-43.9.4-46.6h15.5v12.2h12.4v-15.8c0-2.2-1.4-3.6-3.4-4.1-1.3-.4-2.7-.5-4.1-.5h-26.6c-4.5 0-7.4 1.3-7.4 7.4.2 14.2 0 28.4 0 42.9v7.6c.2 3.2 1.3 4.7 4.3 5.4 1.4.4 2.7.5 4.1.5h24.1c1.4 0 3.1-.2 4.5-.5 3.1-.7 4.3-2.2 4.3-5.4v-13c0-.9-.2-2-.4-2.9-3.8-.2-7.6-.2-11.9-.2z"/>
         <path class="st1" d="M347.7 813.4h-24.1c-1.4 0-2.8-.2-4.4-.6-3.4-.8-4.8-2.5-5-6.2v-22c0-9.3.1-19 0-28.4 0-7.3 4.2-8.3 8.3-8.3h26.6c1.6 0 3.1.2 4.4.6 2.5.7 4.1 2.6 4.1 5v16.7h-14.2V758h-13.8c-.7 5.2-1.1 37.4-.3 44.8h14.2v-13H357l.1.7c.3 1.3.4 2.3.4 3.1v13c0 3.6-1.5 5.4-5 6.3-1.5.3-3.2.5-4.8.5zm-25.2-63.7c-4.2 0-6.5 1-6.5 6.5.1 9.5.1 19.1 0 28.5v22c.2 2.8 1 3.9 3.6 4.5 1.5.4 2.6.5 3.9.5h24.1c1.4 0 3-.2 4.3-.5 2.7-.6 3.6-1.8 3.6-4.5v-13c0-.5-.1-1.2-.2-2h-10.2v13h-17.5l-.1-.8c-.9-5.4-.6-44.1.4-47.1l.2-.6h17v12.2h10.6v-14.9c0-2.3-1.9-3-2.8-3.3a16 16 0 0 0-3.9-.5h-26.5zm285.2-.7v63.2h34.9v-8.5h-11.2c-3.6-.2-7.2.5-10.8-.4V784h18.5v-8.3h-18.4c-.7-4.3-.7-15.3.2-18.4h21.2V749h-34.4z"/>
         <path class="st1" d="M643.6 813.1h-36.7v-65h.9c11.8 0 22.9 0 34.6.2h.9v10.1h-21.4c-.7 3.4-.7 12.3-.1 16.6h18.5v10h-18.5v17.6c2 .4 3.9.3 6 .2 1.3-.1 2.6-.1 3.9 0h12v10.3zm-35-1.8h33.1v-6.7h-10.3c-1.3-.1-2.6 0-3.8 0-2.3.1-4.8.2-7.2-.4l-.7-.2v-20.9h18.5v-6.5H620v-.6c-.7-4.4-.7-15.6.2-18.8l.2-.6h21V750c-11.1-.2-21.6-.2-32.8-.2v61.5zm-63.9.9h38.4v-8.8h-23c.5-1.3.9-2 1.3-2.9 6.8-14.4 13.9-29 20.7-43.4 1.3-2.7 1.6-5.2.9-7.9-5.2-.9-33.8-.5-36.4.2v8.1h21.2c-.9 2-1.4 3.4-2.2 4.9-6.7 14-13.3 28.1-20 42-1.3 2.6-1.6 4.9-.9 7.8z"/>
         <path class="st1" d="M584 813.1h-40l-.2-.7c-.7-3-.5-5.5 1-8.5 6.7-13.9 13.4-28.1 20-42 .4-.8.8-1.6 1.2-2.6.1-.3.3-.6.4-1h-20.8v-9.7l.7-.2c2.7-.8 31.4-1.1 36.8-.2l.6.1.1.6c.8 2.8.4 5.5-1 8.5-3.4 7.2-6.9 14.4-10.3 21.6-3.5 7.3-6.9 14.5-10.4 21.8-.2.5-.4.9-.6 1.5 0 0 0 .1-.1.1H584v10.7zm-38.6-1.8h36.7v-7h-23.5l.5-1.3c.2-.6.4-1 .6-1.4.2-.5.4-.9.6-1.4 3.5-7.3 6.9-14.5 10.4-21.8 3.5-7.2 6.9-14.5 10.3-21.6 1.1-2.4 1.4-4.5 1-6.7-6-.7-30-.5-34.7.1v6.5H569l-.6 1.3c-.4.8-.7 1.6-1 2.2-.4 1-.8 1.8-1.2 2.7-6.5 13.8-13.3 28.1-20 41.9-.9 2.2-1.2 4.2-.8 6.5zm-77.9-54h13.7V749H441v8.5h13.7v41c0 4.5-.2 9 .2 13.7 4.5 0 8.5.2 12.6-.2v-54.7z"/>
         <path class="st1" d="M461.3 813.1H454l-.1-.8c-.3-3.6-.2-7-.2-10.4v-43.6H440V748h42v10.1h-13.7v54.7l-.8.1c-2.1.2-4.1.2-6.2.2zm-5.6-1.8h2.5c2.9 0 5.6.1 8.3-.1v-54.8h13.7v-6.5h-38.4v6.7h13.7V802c0 2.9 0 6.1.2 9.3zM394.4 749v63.2h12.4V749h-12.4z"/>
         <path class="st1" d="M407.7 813.1h-14.2v-65h14.2v65zm-12.4-1.8h10.6v-61.4h-10.6v61.4zM519.9 749h-12.4v63.2h12.4V749z"/>
         <path class="st1" d="M520.8 813.1h-14.2v-65h14.2v65zm-12.5-1.8H519v-61.4h-10.6v61.4zm36.6-599.6h-18.5c-7.6 25.9-15.3 51.7-23 77.8h17.8c1.3-4.7 2.3-9.4 3.8-14.4 7.4.5 14.6 1.3 22 1.8l4 16c5.9 1.3 11.5 2.5 17.8 3.8-7.9-29.2-15.6-57.3-23.9-85zm-17.7 53.1c2.7-11 5.4-21.8 7.9-32.4h.9c2.7 11 5.4 22.1 8.3 33.7-6.1-.4-11.5-.9-17.1-1.3z"/>
         <path class="st1" d="m569.9 297.9-1.4-.3c-4.2-.8-8.2-1.7-12-2.5-1.9-.4-3.9-.8-5.9-1.3l-.6-.1-.1-.6c-1.2-4.9-2.4-10-3.8-15.4-3.5-.3-6.9-.6-10.3-.9-3.4-.3-6.8-.6-10.2-.8-.8 2.8-1.5 5.4-2.1 8l-1.5 5.7-.2.7h-19.7l.3-1.2c2.4-8.2 4.9-16.4 7.3-24.6 5.2-17.4 10.6-35.4 15.7-53.2l.2-.6h19.9l.2.6c7.4 24.8 15 51.8 23.8 85l.4 1.5zm-25.7-85.3H527c-5.1 17.6-10.4 35.4-15.6 52.6-2.3 7.8-4.6 15.6-7 23.4h15.9c.4-1.7.9-3.3 1.3-5 .7-2.8 1.5-5.7 2.3-8.8l.2-.7.7.1c3.7.3 7.3.6 11 .9 3.6.3 7.3.6 11 .9h.6l.2.6c1.4 5.4 2.6 10.5 3.8 15.5 1.8.4 3.6.8 5.3 1.1m-11.2-26.1-1.2-.1c-3.4-.2-6.5-.5-9.6-.7l-7.5-.6-1.1-.1 2.3-9.2c2.1-8.4 4-16.3 5.9-24.2l.2-.7h2.3l.2.7c.9 3.5 1.7 7.1 2.6 10.7 1.8 7.5 3.7 15.2 5.7 23l.2 1.2zm-17.1-3.1c2.2.1 4.3.3 6.4.5 2.7.2 5.4.4 8.4.6-1.8-7.4-3.6-14.7-5.4-21.8-.7-3-1.5-6-2.2-8.9-1.8 7.4-3.6 14.7-5.5 22.5l-1.7 7.1z"/>
      </g>
      <g id="sc-logo-chevrons">
         <g id="sc-logo-chevron-pair-18">
            <path class="st1" d="M393.6 732.4c4.7 1.3 8.6 1.3 13.9.2 12.1-2.3 22.5-7.9 31.7-15.8 1.8-1.4 3.2-3.2 4.7-5 .9-1.3 1.4-2.9 2-4.3-2.7-2.2-5.4-1.8-8.1-1.6-8.6.9-16.6 3.8-24.1 7.7-6.8 3.6-12.8 8.3-17.5 14.4-.9 1.5-1.7 3-2.6 4.4z"/>
            <path class="st1" d="M400.6 734.3c-2.4 0-4.7-.3-7.2-1l-1.2-.3.6-1c.6-1 1.1-1.9 1.7-3 .3-.5.5-1 .8-1.5l.1-.1c4.5-5.9 10.5-10.8 17.8-14.7 8.5-4.4 16.5-7 24.5-7.8h.6c2.5-.2 5.4-.4 8.2 1.9l.5.4-.4 1.1c-.5 1.3-1 2.8-1.9 4-1.5 1.8-3 3.7-4.9 5.2-9.7 8.4-20.5 13.8-32.1 16-2.6.5-4.9.8-7.1.8zm-5.6-2.5c4 .9 7.5.9 12.3-.1 11.3-2.2 21.8-7.4 31.3-15.6 1.8-1.4 3.2-3.2 4.6-4.9.7-.9 1.1-2.2 1.6-3.4-2.1-1.4-4.2-1.2-6.4-1.1h-.5c-7.7.8-15.5 3.3-23.8 7.6-7.1 3.7-12.7 8.4-17.1 14.1-.3.5-.5 1-.8 1.4-.4.7-.8 1.4-1.2 2zm183.4-24.2c.4 3.4 2.5 5.6 4.7 7.6 9.7 9 20.9 15.3 34 17.6 4.3.7 8.6 1.1 13.7-.4-2.3-2.9-4-5.6-6.1-7.7-6.7-7.2-15.1-11.9-24.3-15.3-5.2-1.8-10.4-3.2-16-3.4-2.1-.1-4.4-.2-6 1.6z"/>
            <path class="st1" d="M623.6 734.3c-2.4 0-4.6-.3-6.7-.6-12.7-2.3-23.9-8.1-34.5-17.9-2.4-2.2-4.6-4.5-5-8.1v-.4l.3-.3c1.8-2 4.2-1.9 6.1-1.9h.5c6.1.2 11.7 1.9 16.3 3.5 10.6 3.9 18.6 9 24.7 15.5 1.4 1.3 2.5 2.9 3.7 4.6.8 1 1.5 2.1 2.4 3.2l.9 1.1-1.3.4c-2.6.6-5 .9-7.4.9zm-44.3-26.4c.4 2.8 2.2 4.6 4.3 6.6 10.3 9.5 21.3 15.2 33.6 17.4 4.1.7 7.8 1 12 0-.6-.7-1.1-1.5-1.6-2.2-1.2-1.6-2.3-3.1-3.6-4.4-5.9-6.3-13.7-11.3-24-15.1-4.5-1.6-9.9-3.2-15.7-3.4h-.5c-1.6 0-3.3 0-4.5 1.1z"/>
         </g>
         <g id="sc-logo-chevron-pair-17">
            <path class="st1" d="M602.3 698.9c.9 3.1 1.3 4.1 4.5 6.3 4.5 3.1 9.2 5.8 14.2 8.1 8.3 3.8 17.1 5.6 26.3 5.2 3.1-.2 6.1-.5 9.5-2-2-2.2-3.4-4.1-5.4-5.6-12.2-10.4-26.6-14.4-42.3-14.2-2.3-.1-5 .1-6.8 2.2z"/>
            <path class="st1" d="M645.1 719.5c-8.4 0-16.6-1.8-24.4-5.3-5-2.3-9.6-5-14.4-8.2-3.4-2.3-3.9-3.5-4.9-6.8l-.1-.5.3-.4c2.2-2.6 5.4-2.7 7.6-2.5 17.2-.2 31.2 4.5 42.8 14.4 1.5 1.1 2.7 2.5 4 3.9.5.6 1 1.1 1.5 1.7l.9.9-1.2.5c-3.4 1.4-6.4 1.8-9.8 2.1-.8.2-1.6.2-2.3.2zm-41.8-20.3c.8 2.5 1.1 3.4 4 5.3 4.6 3.2 9.2 5.8 14.1 8 8.2 3.8 16.9 5.5 25.9 5.1 2.9-.2 5.4-.5 8-1.4-.2-.3-.5-.5-.7-.8-1.3-1.5-2.4-2.7-3.7-3.7-11.1-9.5-24.4-14.1-40.8-14.1h-1c-2.7-.1-4.5.3-5.8 1.6zm-236.1 17.6c1.8.5 3.1.9 4.3 1.1 17.8 2.5 33.3-3.1 47.2-13.9.7-.5 1.4-1.4 2-2.3 1.6-2.3 1.3-3.6-1.6-4.5-.5-.2-1.3-.4-1.8-.4-4 0-8.1-.2-12.1.2-11 1.3-21.1 4.9-29.9 11.3-3.1 2.5-5.8 5-8.1 8.5z"/>
            <path class="st1" d="M380 719.3c-2.8 0-5.7-.2-8.6-.6-1.3-.2-2.7-.6-4.5-1.1l-1.2-.4.7-1c2.5-3.7 5.5-6.3 8.3-8.6 8.6-6.3 18.8-10.2 30.4-11.5 3-.3 6.2-.2 9.2-.2h3c.8 0 1.7.3 2.1.4 1.1.3 2.6 1 3.1 2.3.4 1.3-.4 2.7-1 3.6-.6 1-1.4 2-2.2 2.5-12.7 9.8-25.6 14.6-39.3 14.6zm-11.4-3.1c1.1.3 2.1.6 3 .7 16.5 2.3 31.7-2.1 46.5-13.7.6-.4 1.2-1.2 1.8-2.1.8-1.2.9-1.8.8-2-.1-.3-.5-.7-1.9-1.1-.6-.2-1.2-.3-1.5-.3h-3c-3 0-6.1-.1-9 .2-11.2 1.3-21.1 5-29.4 11.2-2.5 1.9-5 4.1-7.3 7.1z"/>
         </g>
         <g id="sc-logo-chevron-pair-16">
            <path class="st1" d="M679.4 697.5c-2.5-2-4.7-3.8-7-5.2-11.2-6.8-23.4-8.8-36.2-8.1-2.7.2-5.6.5-8.3 1.3-1.8.4-3.8.9-4.5 2.9 6.3 11.6 41.6 17.7 56 9.1z"/>
            <path class="st1" d="M660.5 702.4c-6.8 0-13.7-1-19.5-2.6-9.4-2.6-16-6.5-18.4-11.1l-.2-.4.1-.4c1-2.6 3.7-3.2 5.2-3.5 2.4-.6 5.1-1.1 8.4-1.3 14.4-.8 26.4 1.9 36.7 8.2 2 1.2 3.9 2.7 5.8 4.3l2.3 1.8-1.1.7c-4.9 3.2-12 4.3-19.3 4.3zm-36.1-14.2c2.4 3.9 8.6 7.5 17.1 9.9 11.4 3.1 27.2 3.8 36.2-.8l-.2-.2c-2-1.6-3.8-3-5.7-4.1-10-6.2-21.7-8.8-35.7-8-3.1.2-5.8.6-8.1 1.2-1.7.5-3 .9-3.6 2zm-223.6-.3c-1.4-1.8-3.4-2.5-5.4-2.9-6.3-1.4-12.8-1.4-19.3-.7-9 .9-17.5 3.4-25 8.3-2.2 1.4-4.3 2.9-6.1 5.6 2.2.9 4 1.6 5.9 2.2 6.1 1.8 12.2 2 18.5 1.3 8.6-.9 16.9-3.2 24.7-7.4 2.6-1.5 5.5-2.9 6.7-6.4z"/>
            <path class="st1" d="M362.9 702.9c-4.3 0-8.3-.6-12.2-1.7-2.1-.6-4-1.3-6-2.2l-1-.4.6-.9c1.9-2.8 4.2-4.4 6.4-5.8 7.3-4.7 15.6-7.5 25.4-8.4 7.4-.8 13.8-.6 19.6.7 1.7.3 4.1 1 5.9 3.2l.3.4-.2.5c-1.3 3.5-4.1 5.1-6.6 6.5l-.5.3c-7.5 4-16 6.6-25 7.5-2.3.2-4.6.3-6.7.3zm-16.5-5.1c1.6.7 3.2 1.2 4.8 1.7 5.5 1.6 11.3 2 18.2 1.2 8.8-.9 17-3.4 24.3-7.3l.5-.3c2.2-1.2 4.4-2.5 5.6-5.1-1.1-1.1-2.5-1.8-4.5-2.2-5.6-1.3-11.8-1.5-19-.7-9.5 1-17.6 3.6-24.6 8.1-1.9 1.4-3.7 2.6-5.3 4.6z"/>
         </g>
         <g id="sc-logo-chevron-pair-15">
            <path class="st1" d="M643.7 674.6c1.4 2.5 3.6 3.8 5.8 4.5 5 1.4 10.3 3.1 15.5 3.8 9.5 1.4 19.1.9 28.1-2.7 2.3-.9 4.3-2.2 7.2-3.6-2.3-1.4-3.8-2.5-5.4-3.4-6.3-3.4-13-4.9-20-5.4-8.3-.7-16.6 0-24.5 2.5-2.5.7-5 1.6-6.7 4.3z"/>
            <path class="st1" d="M674.5 684.5c-3.1 0-6.3-.2-9.6-.7-4.6-.6-9.3-2-13.7-3.3l-1.9-.5c-2.9-1-5-2.6-6.3-4.9l-.3-.5.3-.5c1.8-3 4.5-4 7.2-4.7 7.7-2.5 16.1-3.3 24.8-2.6 8.1.6 14.6 2.4 20.3 5.5.9.5 1.8 1.1 2.8 1.8.8.5 1.6 1.1 2.6 1.7l1.4.8-1.4.7c-1 .5-1.9 1-2.8 1.4-1.6.9-3 1.6-4.5 2.2-5.8 2.5-12.2 3.6-18.9 3.6zm-29.7-9.9c1.1 1.7 2.7 2.9 5 3.6l1.8.5c4.4 1.3 9 2.6 13.5 3.2 10.1 1.5 19.4.6 27.6-2.6 1.5-.6 2.8-1.3 4.3-2.1.4-.2.9-.5 1.4-.7-.5-.3-.9-.6-1.3-.9-1-.6-1.8-1.2-2.7-1.7-5.5-3-11.8-4.7-19.6-5.3-8.5-.7-16.6.1-24.1 2.5-2.3.7-4.4 1.5-5.9 3.5zM324 676.8c2.9 1.4 5 2.7 7.4 3.6 9 3.6 18.4 4 27.7 2.7 5.4-.7 10.6-2.5 15.8-4 2.3-.7 4.3-2 5.6-4.5-2-2.9-5-3.8-8.1-4.7-10.6-2.9-21.2-3.2-32-.7-5.8 1.1-11.2 3.3-16.4 7.6z"/>
            <path class="st1" d="M349.7 684.6c-6.8 0-13-1.1-18.7-3.4-1.7-.6-3.2-1.5-5-2.4-.8-.4-1.5-.8-2.4-1.2l-1.2-.6 1.1-.9c4.9-4.1 10.2-6.5 16.8-7.8 10.7-2.5 21.4-2.3 32.5.7 3.2.9 6.4 1.9 8.6 5l.3.4-.2.5c-1.2 2.5-3.2 4.1-6.1 5-1.3.4-2.5.7-3.8 1.1-4 1.2-8 2.4-12.2 2.9-3.5.5-6.6.7-9.7.7zm-24.1-8 1.2.6c1.8.9 3.3 1.7 4.9 2.3 8 3.2 16.9 4.1 27.3 2.6 4-.5 8.1-1.7 11.9-2.9 1.3-.4 2.5-.7 3.8-1.1 2.2-.7 3.7-1.8 4.8-3.6-1.8-2.3-4.5-3.1-7.3-3.9-10.8-2.9-21.1-3.2-31.6-.7-5.8 1.3-10.6 3.4-15 6.7z"/>
         </g>
         <g id="sc-logo-chevron-pair-14">
            <path class="st1" d="M663 659.5c2 .9 3.4 2.2 5.2 2.5 3.2.9 6.5 1.6 9.7 1.8 11.5 1.1 22.9-.4 33.3-5.8 2.5-1.3 4.9-3.1 8.1-5.2-3.2-1.3-5.4-2.5-7.7-3.2-9.7-3.1-19.6-2.7-29.3-.4-4.5 1.1-9 2.7-13.3 4.5-2.6 1.1-4.7 2.4-6 5.8z"/>
            <path class="st1" d="M684.8 665c-2.3 0-4.6-.1-7-.3-2.8-.2-5.9-.7-9.9-1.8-1.2-.2-2.3-.9-3.4-1.5-.6-.4-1.3-.7-2-1.1l-.8-.3.3-.8c1.4-3.9 4-5.2 6.4-6.3 5-2.1 9.4-3.6 13.5-4.6 10.9-2.6 20.7-2.5 29.8.4 1.4.4 2.6 1 4.1 1.7 1.1.5 2.3 1.1 3.7 1.6l1.6.6-1.4 1c-.9.6-1.7 1.2-2.5 1.7-2 1.4-3.8 2.6-5.7 3.6-7.8 4.1-16.8 6.1-26.7 6.1zm-20.6-5.9c.5.3.9.5 1.4.8 1 .6 1.9 1.1 2.9 1.3 3.9 1.1 6.9 1.6 9.6 1.8 12.3 1.2 23.4-.8 32.8-5.7 1.8-.9 3.5-2.1 5.5-3.4.4-.3.8-.5 1.2-.8-.8-.3-1.6-.7-2.2-1-1.4-.6-2.6-1.2-3.9-1.6-8.8-2.8-18.3-2.9-28.9-.3-4 .9-8.3 2.4-13.2 4.5-2.2.8-4 1.7-5.2 4.4zM305.6 653c3.4 3.6 7.6 5.8 11.9 7.2 11.9 4.3 23.9 5 36.4 2.3 1.6-.4 3.2-.9 4.7-1.6 2.9-1.4 3.1-2.9.5-4.9-1.3-1.1-2.7-2-4.1-2.7-11.7-5.2-23.9-7.2-36.7-5.2-4.6 1.1-8.7 2.2-12.7 4.9z"/>
            <path class="st1" d="M339.4 665.1c-7.5 0-14.9-1.3-22.2-4-5.1-1.7-9.1-4.1-12.2-7.4l-.7-.8.9-.6c4-2.7 8-3.8 12.9-5 12.6-2 25.1-.2 37.3 5.3 1.7.8 3.1 1.8 4.4 2.8.9.7 2.2 1.9 2.1 3.4-.1 1.5-1.7 2.4-2.8 3-1.4.7-3.1 1.3-4.9 1.7-5.1 1-10 1.6-14.8 1.6zM307 653.2c2.8 2.7 6.3 4.7 10.7 6.2 11.7 4.3 23.5 5 35.9 2.3 1.6-.4 3.2-.9 4.5-1.5 1.6-.8 1.8-1.3 1.8-1.5 0-.2-.1-.8-1.4-1.8-1.1-1-2.5-1.8-4-2.6-11.9-5.3-24-7-36.2-5.1-4.2.9-7.8 1.8-11.3 4z"/>
         </g>
         <g id="sc-logo-chevron-pair-13">
            <path class="st1" d="M290.8 627.8c2.2 2 3.8 3.8 5.6 5 12.6 9.2 26.8 11.9 42 10.6 2.2-.2 4.5-.5 5.9-2.7-5-11.8-38-20.1-53.5-12.9z"/>
            <path class="st1" d="M331.5 644.7c-13.7 0-25.4-3.7-35.6-11.1-1.3-.9-2.4-2-3.7-3.3-.6-.6-1.2-1.2-1.9-1.8l-1-.9 1.2-.6c10.3-4.8 27.5-2.8 39.2 1.7 8.1 3.1 13.6 7.3 15.5 11.7l.2.4-.3.4c-1.7 2.5-4.3 2.9-6.6 3.1-2.4.3-4.7.4-7 .4zm-39-16.6c.3.3.6.6 1 .9 1.3 1.2 2.4 2.3 3.5 3.1 11.5 8.4 25.1 11.8 41.4 10.5 1.8-.2 3.7-.4 5-1.9-1.9-3.7-7-7.5-14.3-10.3-11-4.2-26.7-6.2-36.6-2.3zm440.9-.7c-2.2-.7-3.2-1.1-4.5-1.4-5.6-1.4-11.3-1.6-16.9-.9-9.5 1.3-18.4 4.3-26.3 9.4-1.8 1.1-3.4 2.7-4.9 4.1-1.4 1.6-1.1 2.9.9 3.6 2.2.7 4.7 1.4 7 1.4 5 0 10.3-.2 15.1-.9 9.7-1.6 18.9-5.2 26.5-11.9.8-.8 1.7-1.9 3.1-3.4z"/>
            <path class="st1" d="M688.7 644.5c-2.5 0-5.2-.8-7.3-1.5-1.3-.5-2.1-1.2-2.3-2.1-.2-.9.1-1.9 1-2.9 1.5-1.5 3.2-3.2 5.1-4.3 7.8-5 16.8-8.2 26.6-9.5 6.1-.8 11.9-.5 17.3.9 1.3.4 2.4.7 4.5 1.4l1.4.5-1 1c-1.4 1.4-2.3 2.4-3 3.3l-.1.1c-7.1 6.2-16.1 10.3-26.9 12.1-4.2.8-9 1-15.3 1zm29.6-18.9c-2 0-4.1.1-6.2.4-9.6 1.3-18.3 4.4-25.9 9.2-1.7 1-3.3 2.6-4.7 4-.4.5-.7 1-.6 1.3.1.3.5.6 1.2.8 1.9.6 4.5 1.4 6.7 1.4 6.1 0 10.9-.3 15-.9 10.4-1.7 19.1-5.6 25.9-11.6.6-.7 1.2-1.5 2.1-2.4-1.3-.4-2.2-.7-3.1-1-3.3-.8-6.8-1.2-10.4-1.2z"/>
         </g>
         <g id="sc-logo-chevron-pair-12">
            <path class="st1" d="M330.1 620.8c-.7-3.4-3.1-5.4-5.4-7.4-9.2-7.4-19.6-12.2-31.3-13.7-4.5-.5-9-.7-13.9.9 1.8 3.1 3.8 5.4 6.1 7.6 10.8 9.2 23.4 13.7 37.3 14.6 2.3 0 4.8 0 7.2-2z"/>
            <path class="st1" d="M322.9 623.7c-14.7-1-27.4-5.9-37.9-14.8-2.6-2.4-4.6-4.9-6.3-7.8l-.6-1 1.1-.4c5.1-1.7 9.9-1.5 14.3-.9 11.4 1.4 22.1 6.1 31.8 13.9 2.4 2.1 4.9 4.2 5.7 7.9l.1.5-.4.3c-2.6 2.3-5.4 2.3-7.8 2.3zm-42-22.6c1.5 2.4 3.2 4.4 5.4 6.4 10.1 8.6 22.5 13.4 36.7 14.3 2 0 4.2 0 6.1-1.4-.8-2.8-2.8-4.5-5-6.3-9.4-7.6-19.8-12.1-30.9-13.5-3.8-.4-7.9-.7-12.3.5zm463.7.1c-.2-.4-.4-.7-.4-1.1-2-.2-4-.7-5.9-.7-15.3-.4-28.3 5.4-39.8 14.9-1.4 1.3-2.7 2.7-3.6 4.3-1.1 1.8-.5 2.9 1.4 3.4 1.6.4 3.6.7 5.2.5 13.9-.9 26.3-5.2 36.9-14.6 2.2-1.7 4.2-4.4 6.2-6.7z"/>
            <path class="st1" d="M700.6 623.5c-1.5 0-3.2-.3-4.5-.6-1.4-.4-2.2-1-2.5-1.8-.3-.8-.2-1.8.5-2.9.9-1.6 2.2-3.1 3.8-4.5 12.7-10.6 25.9-15.5 40.4-15.2 1.2 0 2.5.2 3.7.4.8.1 1.6.3 2.3.3l.8.1v.8c0 .1.1.4.3.7l.3.5-.4.5c-.5.6-1 1.2-1.4 1.7-1.5 1.9-3.1 3.8-4.8 5.2-10.2 9-22.4 13.8-37.4 14.8h-1.1zm36.3-23.3c-13.5 0-25.9 4.8-37.9 14.8-1.5 1.3-2.6 2.6-3.4 4.1-.4.6-.5 1.1-.4 1.4.1.3.6.6 1.3.7 1.3.3 3.4.7 4.9.5 14.6-1 26.5-5.6 36.4-14.4 1.6-1.3 3.1-3.2 4.6-5 .4-.4.7-.9 1.1-1.3v-.1l-1.8-.3c-1.2-.2-2.3-.4-3.4-.4h-1.4z"/>
         </g>
         <g id="sc-logo-chevron-pair-11">
            <path class="st1" d="M271.2 571.4c1.4 4.1 4 7.2 6.7 10.1 8.3 8.8 18.5 14 30.1 16.9 2 .5 4 .7 5.9.7 1.3 0 2.5-.5 3.8-.7-.4-3.6-.9-4.7-3.4-7.4-8.5-9.2-18.5-15.8-30.8-18.9-3.8-.8-7.8-1.4-12.3-.7z"/>
            <path class="st1" d="M313.9 600.1c-2.3 0-4.3-.2-6.2-.8-12.6-3.2-22.6-8.8-30.5-17.2-3.1-3.3-5.4-6.3-6.9-10.4l-.4-1 1.1-.2c5-.8 9.4 0 12.6.7 11.7 2.9 22.2 9.4 31.2 19.2 2.7 2.9 3.3 4.1 3.7 7.9l.1.9-.9.1c-.5.1-.9.2-1.4.3-.7.3-1.5.5-2.4.5zm-41.4-27.9c1.3 3.3 3.4 5.9 6.1 8.7 7.6 8.1 17.3 13.6 29.6 16.7 1.7.5 3.6.7 5.7.7.6 0 1.3-.2 2-.4.2-.1.5-.1.7-.2-.3-2.7-.9-3.7-3.1-6-8.9-9.7-18.8-15.8-30.3-18.6-2.8-.7-6.5-1.4-10.7-.9zm433 25.9c3.4 2 6.5 1.4 9.2.9 8.1-1.6 15.5-5 22.3-9.5 5.8-3.8 10.8-8.5 14.4-14.6.5-1.1 1.1-2.2 1.6-3.6-1.8-.2-2.9-.2-4-.2-1.4 0-3.1.2-4.5.4-14.2 2.3-25.6 9.5-34.9 20.2-1.8 1.7-2.7 3.9-4.1 6.4z"/>
            <path class="st1" d="M710.7 600.4c-1.7 0-3.7-.4-5.7-1.5l-.8-.4.4-.8c.3-.6.7-1.2 1-1.7 1-1.8 1.9-3.5 3.3-4.9 10.1-11.5 21.7-18.2 35.4-20.4 1.6-.2 3.2-.4 4.6-.4 1.1 0 2.2 0 4.1.2l1.2.1-.4 1.1c-.6 1.5-1.1 2.6-1.7 3.7-3.4 5.8-8.2 10.7-14.7 14.9-7.6 5-15 8.1-22.6 9.7-1.1.1-2.5.4-4.1.4zm-4-2.7c2.9 1.4 5.6.8 7.8.4 7.4-1.5 14.6-4.6 22-9.4 6.3-4.1 10.9-8.8 14.1-14.3.4-.7.7-1.5 1.1-2.4-1.1-.1-1.9-.1-2.7-.1-1.4 0-2.9.2-4.4.4-13.3 2.2-24.5 8.7-34.4 19.9-1.3 1.3-2.1 2.8-3.1 4.6 0 .3-.2.6-.4.9z"/>
         </g>
         <g id="sc-logo-chevron-pair-10">
            <path class="st1" d="M266.9 542.5c.7 4.1 2.2 6.8 4 9.5 7.4 11.3 18 18.7 30.6 23.4 1.8.7 3.8.7 5.6.9 1.6 0 2.3-.9 2-2.5-.5-1.6-1.1-3.4-2-4.9-7.9-11.9-18.4-20.7-32-24.8-2.6-.9-5.1-1.1-8.2-1.6z"/>
            <path class="st1" d="M307 577.2c-.5 0-.8-.1-1.2-.1-1.5-.1-3.1-.2-4.7-.9-13.8-5.1-24-12.9-31-23.8-1.9-2.9-3.4-5.7-4.1-9.9l-.2-1.3 1.3.2c.8.1 1.7.3 2.4.4 2 .3 3.9.6 5.8 1.3 13 3.9 24 12.4 32.5 25.2.9 1.4 1.4 3.1 1.9 4.5l.2.5c.3 1.4 0 2.3-.4 2.7-.4.7-1.1 1.2-2.5 1.2zm-39-33.6c.7 3.2 2 5.5 3.6 7.9 6.8 10.5 16.7 18.1 30.2 23.1 1.3.5 2.8.6 4.2.7.4 0 .8.1 1.2.1.4 0 .8-.1.9-.3.2-.2.2-.6.1-1.1l-.2-.5c-.5-1.4-1-2.9-1.7-4.1-8.3-12.4-18.9-20.6-31.5-24.5-1.8-.6-3.5-.9-5.5-1.2-.5 0-.9-.1-1.3-.1zm489.3-.8c-2.2.2-3.8.2-5.4.5-11.3 2.3-20.5 8.6-28.3 17.1-2.9 3.1-5.2 6.7-7.6 10.1-1.1 1.4-1.8 3.4-.9 5.4 3.1 1.3 5.8 0 8.5-.9 8.8-3.2 16.6-8.3 23-15.1 3.6-3.8 6.8-7.9 8.8-12.8.9-1.2 1.2-2.5 1.9-4.3z"/>
            <path class="st1" d="M717.9 577.4c-1 0-2-.2-3-.6l-.3-.1-.1-.3c-.9-2-.5-4.3 1-6.3l.8-1.2c2.1-3.1 4.2-6.2 6.8-9 8.7-9.5 18.1-15.2 28.7-17.4 1.2-.3 2.4-.3 3.8-.4.5 0 1.1-.1 1.7-.1l1.5-.1-.5 1.4-.6 1.5c-.4 1-.7 2-1.2 2.9-1.8 4.3-4.6 8.4-9 13-6.5 6.9-14.4 12-23.4 15.3-.3.1-.7.2-1 .3-1.7.5-3.4 1.1-5.2 1.1zm-2-2.2c2.2.8 4.3.1 6.5-.7.3-.1.7-.2 1-.3 8.7-3.2 16.4-8.2 22.7-14.9 4.2-4.4 7-8.4 8.6-12.5l.1-.1c.5-.8.8-1.6 1.2-2.7 0-.1.1-.1.1-.2h-.3c-1.3.1-2.4.2-3.5.4-10.3 2.1-19.4 7.6-27.8 16.8-2.5 2.7-4.6 5.8-6.6 8.8l-.8 1.2c-.9.9-1.8 2.5-1.2 4.2z"/>
         </g>
         <g id="sc-logo-chevron-pair-9">
            <path class="st1" d="M266.4 514.2c-.2 1.3-.4 1.6-.2 2 .4 1.4.5 2.7 1.1 4 5.4 14.6 15.8 24.5 29.3 31.5.9.5 2 .7 2.9.9 1.1.2 2.2 0 3.2 0 .5-3.1.5-4.3-1.1-7.6-5.8-11.5-13.9-20.9-25.4-27.2-3-1.4-6.4-2.3-9.8-3.6z"/>
            <path class="st1" d="M300.6 553.5c-.4 0-.8 0-1.2-.1h-.2c-.9-.2-2-.4-2.9-1-14.9-7.7-24.6-18.2-29.7-32-.4-.9-.6-1.9-.8-2.9-.1-.3-.2-.7-.2-1.1-.2-.5-.1-.9 0-1.5 0-.2.1-.5.2-.9l.2-1.1 1 .4 3.6 1.2c2.2.7 4.4 1.4 6.4 2.4 11.1 6.1 19.6 15.1 25.8 27.6 1.8 3.5 1.7 5 1.2 8.1l-.1.7h-1.8c-.8.2-1.2.2-1.5.2zm-33.5-38.1c0 .2-.1.4-.1.4v.1l.3 1.2c.2 1 .4 1.8.8 2.6 5 13.4 14.4 23.5 28.9 31.1.7.4 1.6.6 2.4.8h.2c.6.1 1.2.1 1.9 0h.4c.4-2.4.2-3.6-1.1-6.3-6.1-12.2-14.3-20.9-25-26.8-1.9-.9-4-1.6-6.1-2.3-.9-.2-1.8-.5-2.6-.8zm490.8-.8c-1.4.4-2.3.4-3.2.7-16 5.6-26.3 17.1-32.9 32.4-.5 1.4-.4 3.1-.5 4.7 3.6.5 4.5.5 7.7-1.1 11.5-6.1 20.7-14.8 26.5-26.6 1.1-3.1 2.6-6.2 2.4-10.1z"/>
            <path class="st1" d="M724.3 553.6c-.9 0-1.9-.1-3.3-.3l-.9-.1.1-.9c.1-.5.1-1 .1-1.5 0-1.1.1-2.3.5-3.4 7.4-16.9 18.3-27.7 33.5-32.9.6-.2 1.1-.3 1.8-.4.4-.1.9-.2 1.5-.3l1.1-.3.1 1.1c.2 3.8-1.1 6.8-2.3 9.7l-.3.8c-5.6 11.5-14.6 20.6-26.9 27.1-2.2 1-3.4 1.4-5 1.4zm-2.2-2c2.8.4 3.6.3 6.4-1.1 11.9-6.3 20.7-15.2 26.1-26.2l.3-.7c1-2.4 2-4.9 2.1-7.9-.2 0-.4.1-.5.1-.6.1-1 .2-1.5.3-14.7 5.1-25.3 15.6-32.5 31.9-.3.8-.3 1.7-.4 2.7v.9z"/>
         </g>
         <g id="sc-logo-chevron-pair-8">
            <path class="st1" d="M299.7 527.2c-.2-2.2 0-4.3-.5-6.3-.7-2.7-1.6-5.4-2.9-7.9-4.9-10.3-11.5-19.1-21.4-25-2-1.1-4-2-6.3-3.1 0 2-.2 3.4 0 4.7 3.1 15.7 12.1 27.4 25 36.4 1.4 1 3 2.1 6.1 1.2z"/>
            <path class="st1" d="M297.5 528.4c-2 0-3.3-.9-4.5-1.8-14.1-9.8-22.4-21.9-25.4-36.9-.1-.9-.1-1.9-.1-2.9v-3.3l1.8.8c2.1 1 4 1.8 5.9 2.9 9.2 5.5 16.3 13.8 21.8 25.4 1.1 2.3 2.1 4.9 2.9 8.1.4 1.4.4 2.9.5 4.4 0 .7 0 1.4.1 2.1l.1.7-.7.2c-.9.2-1.7.3-2.4.3zm-28.1-42.2v.6c0 1-.1 1.8 0 2.6 2.8 14.5 10.9 26.2 24.6 35.8 1.3 1 2.5 1.7 4.7 1.3 0-.5 0-1-.1-1.4 0-1.4-.1-2.7-.4-3.9-.8-3.1-1.7-5.6-2.8-7.8-5.4-11.3-12.2-19.4-21.1-24.7-1.5-.9-3.1-1.6-4.9-2.5zm456.3 41.7c1.4-.5 3.2-.9 4.5-1.8 13.1-8.6 22-20.2 25.4-35.6.4-1.6.2-3.4.4-5.8-2.3 1.1-4 1.6-5.6 2.3-4.9 2.5-9 6.1-12.6 10.3-6.3 7.4-11 15.5-13.1 25-.5 2-.7 3.6 1 5.6z"/>
            <path class="st1" d="m725.4 528.9-.4-.5c-1.8-2.2-1.7-4.1-1.3-6.3 2-9 6.4-17.3 13.3-25.5 4.1-4.7 8.3-8.1 12.9-10.5.7-.3 1.4-.6 2.2-.9 1-.4 2.1-.8 3.5-1.5l1.4-.6-.1 1.5c-.1.9-.1 1.7-.1 2.5 0 1.3 0 2.3-.3 3.4-3.3 15.2-11.8 27-25.8 36.2-1 .7-2.2 1.1-3.4 1.5-.4.1-.9.3-1.3.4l-.6.3zm29.5-42.8c-.8.3-1.5.6-2.2.9-.7.3-1.4.5-2 .8-4.4 2.3-8.4 5.5-12.3 10-6.7 7.9-11 16-12.9 24.6-.3 1.7-.4 2.9.5 4.3.2-.1.5-.2.7-.2 1.1-.3 2.1-.7 2.9-1.2 13.6-8.9 21.8-20.4 25-35.1.2-.9.2-1.9.2-3.1.1-.3.1-.6.1-1z"/>
         </g>
         <g id="sc-logo-chevron-pair-7">
            <path class="st1" d="M273.4 456.4c-.2 2.2-.5 3.8-.4 5.4 1.3 15.1 8.1 27.4 18.9 37.6 1.4 1.4 3.6 2.2 5.6 3.4 2.2-3.1 1.8-6.1 1.3-8.8-2.2-11.5-7-21.8-15.1-30.2-2.9-3.1-6-5.6-10.3-7.4z"/>
            <path class="st1" d="m297.7 504.1-.7-.5-2.1-1.2c-1.3-.7-2.6-1.3-3.6-2.4-11.7-11.1-17.9-23.6-19.2-38.2-.1-1.2 0-2.4.2-3.7.1-.6.1-1.2.2-1.8l.1-1.2 1.1.5c3.9 1.6 7.1 3.9 10.6 7.6 7.9 8.3 13.1 18.6 15.4 30.7.6 3 .9 6.3-1.4 9.5l-.6.7zm-23.6-46.4c0 .2-.1.4-.1.7-.1 1.2-.3 2.3-.2 3.3 1.2 14.2 7.3 26.3 18.6 37.1.8.8 2 1.4 3.2 2 .5.3 1 .5 1.5.8 1.5-2.5 1.1-5.1.7-7.4-2.2-11.8-7.2-21.8-14.9-29.8-2.9-3.1-5.6-5.2-8.8-6.7zm476.4-1.5c-2.2 1.4-4.1 2.3-5.8 3.8-11.5 9.5-17.3 22.3-19.6 36.9-.4 1.8-.2 3.8 1.3 5.2 12.2-2.3 27-29.9 24.1-45.9z"/>
            <path class="st1" d="m726.1 503.1-.3-.3c-1.5-1.5-2-3.6-1.5-6 2.6-16.2 9.1-28.5 19.9-37.4 1.1-1 2.3-1.7 3.6-2.4.7-.4 1.5-.9 2.2-1.4l1.1-.8.2 1.4c2.9 16.4-11.9 44.5-24.8 47l-.4-.1zm23.7-45.4c-.4.2-.8.5-1.1.7-1.3.8-2.4 1.4-3.3 2.3-10.5 8.7-16.8 20.6-19.3 36.4-.2 1.2-.3 2.8.7 4.1 11.4-2.9 24.7-28.2 23-43.5z"/>
         </g>
         <g id="sc-logo-chevron-pair-6">
            <path class="st1" d="M299.1 473.5c.5-1.8 1.3-3.2 1.3-4.9.4-15.5-4.3-29.3-15.3-40.5-1.1-1.1-2.3-2-3.8-3.1-.4 1.1-.7 1.6-.9 2.3-1.1 4.9-.9 9.5 0 14.4 1.8 9.9 5.8 18.9 12.1 26.8 1.4 2.3 3 4.3 6.6 5z"/>
            <path class="st1" d="m299.7 474.5-.8-.2c-4-.8-5.8-3-7.2-5.2-6.2-7.8-10.3-17-12.2-27.2-1-5.5-1-10.2 0-14.8.1-.5.3-.8.5-1.2.1-.3.3-.7.5-1.2l.4-1.2 1.5 1.2c1.3.9 2.3 1.8 3.3 2.7 10.7 10.9 15.9 24.7 15.6 41.2 0 1.3-.4 2.5-.8 3.7-.2.4-.3.9-.5 1.4l-.3.8zm-18-48c0 .1-.1.1-.1.2-.2.4-.3.6-.4.9-1 4.3-1 8.8 0 14 1.8 9.9 5.8 18.8 11.9 26.4 1.3 1.9 2.6 3.6 5.4 4.4.1-.2.2-.5.2-.7.4-1.1.7-2.1.7-3.1.4-15.9-4.7-29.4-15-39.9-.8-.7-1.7-1.4-2.7-2.2zm461.2-1.4c-1.4 1.1-2.5 1.8-3.4 2.7-11.3 11-15.7 24.8-15.8 40.3 0 1.8.4 3.8 2 5.4 2.9-.4 4.5-2.5 6.1-4.5 6.5-8.3 10.6-17.6 12.1-27.9.7-5.2.8-10.4-1-16z"/>
            <path class="st1" d="m725.3 474.5-.3-.3c-1.5-1.5-2.2-3.5-2.2-6 .2-17.3 5.5-30.7 16.1-41 .7-.7 1.6-1.3 2.6-2.1.3-.2.6-.5 1-.7l1-.8.4 1.2c2 6.1 1.6 11.7.9 16.4-1.4 10.3-5.6 19.8-12.2 28.3l-.3.3c-1.6 1.9-3.4 4.1-6.5 4.5l-.5.2zm17.1-47.9c-.9.7-1.7 1.2-2.3 1.9-10.3 10-15.4 23-15.6 39.7 0 1.9.5 3.3 1.4 4.4 2.1-.4 3.4-2.1 4.8-3.8l.3-.3c6.5-8.3 10.5-17.5 11.9-27.5.6-4.2 1-9.1-.5-14.4z"/>
         </g>
         <g id="sc-logo-chevron-pair-5">
            <path class="st1" d="M304.3 447.4c2.2-1.6 2.5-3.8 2.9-6.1.9-5 .5-10.1 0-15.1-1.1-8.6-3.8-16.9-9-23.9-1.3-1.6-2.7-2.9-4.1-4.7-.5 1.4-.9 2.2-1.3 3.1-1.8 5.4-2 11-1.6 16.6.7 8.8 3.2 17.1 7.7 24.8 1.1 2.1 2.6 4.4 5.4 5.3z"/>
            <path class="st1" d="m304.5 448.4-.4-.1c-3.1-1-4.8-3.5-5.9-5.9-4.5-7.7-7.1-16.1-7.8-25.2-.4-6.9.1-12.1 1.7-16.9.2-.4.3-.7.4-1.1.2-.5.5-1.2.8-2l.6-1.5 1 1.2c.7.9 1.4 1.6 2.1 2.3.7.8 1.4 1.5 2.1 2.4 4.9 6.6 8 14.8 9.2 24.4.5 4.7.9 10 0 15.4-.3 2.2-.7 4.8-3.2 6.7l-.6.3zm-10.1-49.2c-.1.3-.2.5-.3.7-.1.3-.3.6-.4 1-1.5 4.5-2 9.5-1.6 16.2.7 8.8 3.3 17 7.6 24.5 1 2 2.2 4 4.4 4.8 1.6-1.4 1.9-3.2 2.2-5.2.9-5.1.5-10.4 0-14.9-1.2-9.3-4.1-17.2-8.8-23.5-.6-.8-1.3-1.5-2-2.2-.3-.5-.7-.9-1.1-1.4zm435.6-1.3c-1.3 1.3-2.5 2.5-3.6 4-4.9 6.3-7.6 13.7-9 21.6-1.1 6.5-1.4 13.1-.2 19.6.4 1.8.7 3.4 2.5 4.3 11.2-5.6 17.7-37.3 10.3-49.5z"/>
            <path class="st1" d="m719.7 448.4-.4-.2c-2.2-1.1-2.6-3.2-3-4.9-1.1-5.9-1.1-12.4.2-20 1.6-8.9 4.6-16.1 9.2-22 1.1-1.5 2.4-2.8 3.7-4l.8-.8.6 1c4.7 7.9 3.7 22.6.7 32.9-2.6 9.1-6.8 15.6-11.3 17.9l-.5.1zm10.1-49c-1 1-1.9 1.9-2.7 3-4.4 5.7-7.3 12.6-8.8 21.2-1.2 7.3-1.3 13.6-.2 19.3.3 1.7.6 2.8 1.7 3.5 4-2.3 7.6-8.3 10-16.6 3.3-11.6 3.3-23.8 0-30.4z"/>
         </g>
         <g id="sc-logo-chevron-pair-4">
            <path class="st1" d="M312.8 423.3c2.9-1.8 3.6-4 4.1-6.1 2.2-8.3 2.5-16.6 1.3-24.8-.9-6.1-2.9-11.9-6.3-16.9-.5-.7-1.3-1.4-2.2-2.3-.9 2-1.8 3.2-2.3 4.9-5 14.2-3.6 27.9 2.3 41.4.6 1.1 2 2.3 3.1 3.8z"/>
            <path class="st1" d="m312.6 424.5-.5-.7-1.2-1.5c-.8-.9-1.5-1.8-1.9-2.7-6.4-14.6-7.2-28.4-2.4-42.1.3-1 .8-1.9 1.3-2.8.3-.6.7-1.3 1.1-2.1l.5-1.2.9.9c.9.9 1.7 1.7 2.2 2.4 3.3 4.9 5.5 10.7 6.5 17.3 1.3 8.5.9 17-1.3 25.2-.6 2.3-1.4 4.7-4.5 6.7l-.7.6zm-2.6-49.9c-.2.4-.4.7-.5 1-.5.9-.9 1.7-1.2 2.6-4.7 13.2-3.9 26.6 2.3 40.8.3.7.9 1.4 1.6 2.2.3.3.5.6.8.9 2-1.5 2.6-3.2 3.1-5.1 2.1-8 2.5-16.2 1.2-24.5-.9-6.3-3-11.9-6.2-16.6-.2-.4-.6-.8-1.1-1.3zm400.7 48.3c2.2-.7 3.2-2.5 4-4.3 5.4-13 6.8-26.1 2.5-39.8-.7-2-1.8-3.8-3.1-6.3-1.4 2-2.5 3.2-3.2 4.7-7 13.5-7.6 27.4-3.4 41.8.7 1.4 1.4 3.2 3.2 3.9z"/>
            <path class="st1" d="m710.7 423.9-.3-.1c-1.9-.8-2.8-2.5-3.5-4l-.3-.6c-4.5-15.5-3.3-29.4 3.5-42.4.6-1.1 1.3-2.1 2.2-3.4.3-.4.7-.9 1.1-1.4l.9-1.2.7 1.3c.4.8.7 1.4 1.1 2.1.8 1.5 1.5 2.9 2 4.3 4.2 13.2 3.3 26.4-2.5 40.4-.7 1.6-1.8 3.9-4.5 4.8l-.4.2zm-2.4-5.3.2.4c.6 1.2 1.2 2.4 2.3 2.9 1.3-.6 2.3-1.7 3.1-3.7 5.7-13.7 6.5-26.5 2.5-39.2-.5-1.3-1.1-2.6-1.9-4-.1-.3-.3-.5-.4-.8-.1.1-.1.2-.2.3-.9 1.2-1.6 2.1-2.1 3.1-6.7 12.6-7.8 26-3.5 41z"/>
         </g>
         <g id="sc-logo-chevron-pair-3">
            <path class="st1" d="M672.9 325.9c-.7 2.2-1.4 3.8-1.8 5.6-2.9 14.4.5 27.5 7.9 39.8.9 1.4 2.5 2.7 4 4 2.3-2.5 2.7-3.2 3.2-6.3 1.4-10.4-.2-20.5-4.3-30.2-2-4.8-4.7-9-9-12.9z"/>
            <path class="st1" d="m683.1 376.4-1.4-1.2c-1.3-1.1-2.6-2.2-3.4-3.6-8.2-13.5-10.8-26.7-8-40.4.3-1.3.7-2.5 1.2-3.8.2-.6.4-1.2.7-1.9l.4-1.3 1 .9c4.1 3.8 7 7.9 9.2 13.1 4.3 10.1 5.8 20.5 4.4 30.7-.6 3.3-1 4.2-3.5 6.8l-.6.7zm-9.8-48.9c-.1.2-.1.4-.2.6-.5 1.3-.9 2.4-1.1 3.6-2.6 13.2-.1 26 7.8 39.2.7 1.1 1.9 2.1 3.1 3.1h.1c1.7-1.9 2-2.6 2.4-5.2 1.4-9.9-.1-19.9-4.3-29.7-1.9-4.6-4.4-8.3-7.8-11.6zm-332 47.7c1.4-1.4 3.1-2.7 4-4.1 7.4-12.2 10.6-25.6 7.7-39.8-.4-1.6-1.1-3.2-2-5.6-2 2.3-3.8 4.1-5 6.1-7.4 11.2-9.4 23.8-8.1 36.9.3 2.2.7 4.5 3.4 6.5z"/>
            <path class="st1" d="m341.3 376.4-.6-.5c-3-2.2-3.4-4.8-3.8-7v-.1c-1.4-14.7 1.3-27 8.2-37.5.9-1.4 2.1-2.7 3.4-4.3.5-.6 1.1-1.3 1.7-2l1-1.2.5 1.4.6 1.5c.6 1.6 1.2 2.9 1.4 4.2 2.8 13.6.1 27.2-7.9 40.5-.7 1.1-1.7 2.1-2.8 3.1-.4.4-.8.8-1.3 1.2l-.4.7zm9.4-49c-.3.3-.5.6-.7.8-1.3 1.5-2.4 2.7-3.2 4-6.7 10.2-9.3 22.1-8 36.3.3 1.9.6 3.7 2.5 5.4l.7-.7c1-.9 2-1.8 2.5-2.7 7.7-12.8 10.3-26 7.6-39.1-.3-1.1-.8-2.4-1.4-4 0 .1 0 0 0 0z"/>
         </g>
         <g id="sc-logo-chevron-pair-2">
            <path class="st1" d="M695.1 348.4c-1.1 2.2-2 3.6-2.5 5.4-4.7 13.9-3.4 27.2 2.3 40.5.7 1.6 1.8 3.4 4 4.1 2.5-1.6 3.2-4.3 3.8-7 2-7.9 2.2-16.2.7-24.1-1.3-6.9-3.3-13.2-8.3-18.9z"/>
            <path class="st1" d="m699 399.4-.4-.1c-2.5-.8-3.7-2.9-4.5-4.6-6.1-14.2-6.9-27.7-2.4-41.2.4-1.4 1-2.6 1.8-3.9.3-.5.5-1 .8-1.6l.6-1.2.9 1c5.5 6.3 7.4 13.3 8.5 19.3 1.5 8.2 1.2 16.6-.7 24.5-.6 2.8-1.4 5.8-4.2 7.6l-.4.2zm-3.8-49.4c-.1.1-.1.3-.2.4-.7 1.4-1.3 2.4-1.6 3.7-4.4 13.1-3.7 26.1 2.3 39.9.6 1.3 1.4 2.8 3 3.5 1.9-1.5 2.5-3.8 3-6.2 1.9-7.7 2.2-15.9.7-23.8-1-5.8-2.6-11.9-7.2-17.5zm-369.8 48.2c10.1-7 12.1-38.5 3.1-49.7-1.3 2-2.5 3.6-3.4 5.4-6.1 12.6-6.5 25.7-3.1 39.1.5 2.2 1.2 4.2 3.4 5.2z"/>
            <path class="st1" d="m325.5 399.3-.5-.3c-2.6-1.3-3.4-3.7-3.9-5.8-3.8-14.6-2.7-27.6 3.1-39.7.6-1.3 1.4-2.4 2.2-3.6.4-.6.8-1.2 1.2-1.9l.7-1.1.8 1c5.8 7.2 6.9 21.3 5.3 32-1.3 9.2-4.4 16.1-8.6 19l-.3.4zm3-49.2c-.2.3-.4.6-.6.8-.8 1.2-1.5 2.3-2.1 3.4-5.7 11.7-6.6 24.2-3 38.4.5 2.1 1.1 3.5 2.5 4.4 3.5-2.8 6.2-9.1 7.4-17.4 1.7-11.5-.1-23.4-4.2-29.6z"/>
         </g>
         <g id="sc-logo-chevron-pair-1">
            <path class="st1" d="M376.2 308.6c-1.3.9-2.2 1.6-3.1 2.3-11 10.6-15.1 23.9-15.3 38.9 0 1.8.2 3.8 2 5 11.3-4.3 21.4-32.5 16.4-46.2z"/>
            <path class="st1" d="m359.7 355.9-.4-.3c-2.1-1.5-2.4-3.6-2.4-5.8.2-16.7 5.3-29.6 15.6-39.5 1-.8 1.9-1.5 3.2-2.4l1-.7.4 1.1c5.2 14.1-5.1 42.9-16.9 47.4l-.5.2zm16-45.9c-.8.6-1.4 1.1-2 1.6-9.9 9.5-14.8 22.1-15 38.2 0 1.8.2 3.1 1.2 4 10.5-4.6 19.7-30.4 15.8-43.8zm272-1.1c-1.6 5.4-1.8 8.5-.7 15.7 1.6 9.7 5.6 18.4 11.7 26.1 1.4 1.8 3.1 3.8 5.6 4.1 6.8-9.3-4.2-39.6-16.6-45.9z"/>
            <path class="st1" d="m664.7 355.8-.5-.1c-2.9-.4-4.7-2.7-6.2-4.5-6.3-7.9-10.3-16.9-11.9-26.5-1.1-7.3-.9-10.4.7-16.1l.3-1 1 .5c8.2 4.2 15.2 17.7 17.9 28.8 2 8.3 1.6 14.8-1 18.4l-.3.5zm-16.5-45.5c-1.3 4.7-1.3 7.7-.4 14.2 1.6 9.3 5.4 18 11.5 25.7 1.2 1.5 2.5 3.2 4.5 3.7 2-3.3 2.2-9.2.4-16.5-2.3-10.1-8.7-22.7-16-27.1z"/>
         </g>
      </g>
      <g id="sc-logo-star">
         <path class="st1" d="M593.1 495.5c-30.2-4.7-50.4-11-60.5-31.7-10.1-20.9-14-51.9-15.8-75.1-1.8-23.2-4.7-83.2-4.7-83.2s-3.1 59.8-4.7 83c-1.8 23.2-5.8 54.2-15.8 75.1s-30.2 27-60.5 31.7-97.9 7.9-97.9 7.9c112.7 7.2 150.2 4.1 165.1 58.2 12.1 43.4 13.7 129.8 13.9 162V736v-12.6c.2-32.4 1.8-118.7 13.9-162 14.9-53.8 52.4-51 165.1-58.2-.1.2-67.6-3-98.1-7.7z"/>
         <path class="st1" d="M513 736h-1.8v-12.6c-.2-34.4-1.9-119-13.8-161.8-13.4-48.5-44.2-50.3-135.5-55.7-9-.5-18.6-1.1-28.8-1.8v-1.8c.7 0 68-3.3 97.9-7.9 31.4-4.9 50.2-11.3 59.8-31.2 7.9-16.3 13.2-41.5 15.8-74.8 1.6-22.9 4.6-82.4 4.7-83h1.8c0 .6 2.9 60.2 4.7 83.2 2.6 33.3 7.9 58.4 15.8 74.8 9.7 19.9 28.5 26.3 59.8 31.2 29.8 4.6 94.6 7.7 97.7 7.7h.1l2.7-.2-2 1.8c-.1.1-.2.2-.5.2-9.9.6-19.3 1.2-28.1 1.7-91.8 5.5-122.8 7.3-136.2 55.8-12.2 42.9-13.9 127.4-14.1 161.8V736zM348.7 503.3c4.5.3 9 .5 13.2.8 89.8 5.3 123.4 7.3 137.2 57.1 8.2 29.6 11.6 78.9 13 118 1.4-39.1 4.8-88.4 13-118 13.8-49.7 47.6-51.7 137.9-57.1 3.7-.2 7.6-.4 11.5-.7-5.3-.3-12.7-.7-21.1-1.3-18.7-1.2-44.4-3.2-60.4-5.7-31.2-4.8-51.2-11.6-61.2-32.2-8-16.5-13.3-41.9-15.9-75.4-1.2-15.1-2.8-46-3.8-65.6-1 19.6-2.7 50.3-3.8 65.4-2.6 33.5-8 58.9-15.9 75.4-10 20.6-29.2 27.2-61.2 32.2-21 3.2-60.6 5.8-82.5 7.1z"/>
      </g>
      <g id="sc-logo-arc-4">
         <path class="st1" d="M705.1 428.1c-5.2-12.2-11.7-23.9-19.3-34.9-7.6-10.8-16-21.1-25.6-30.4-9.5-9.4-19.8-17.8-31-25-2.3-1.6-4.7-3.1-7.2-4.5 55.3 36.4 91.8 99.4 91.8 171v4c0 52-20.3 99.2-53.7 134.7-36.9 40.2-89.5 65.4-148 65.4S401 683.2 364.1 643c-33.5-35.5-53.8-82.8-53.8-134.7v-4c0-71.7 36.6-134.7 91.8-171-2.5 1.4-4.9 3.1-7.2 4.5-11.2 7.4-21.4 15.8-31 25-9.5 9.4-18 19.6-25.6 30.4-7.6 11-14 22.7-19.3 34.9-11 25.4-16.4 52.2-16.4 80.1 0 27.9 5.6 54.7 16.4 80.1 5.2 12.2 11.7 23.9 19.3 34.9 7.6 10.8 16 21.1 25.6 30.4 9.5 9.4 19.8 17.8 31 25 11.2 7.4 23.2 13.9 35.6 18.9 25.7 10.8 53.3 16.2 81.6 16.2 28.3 0 55.6-5.4 81.6-16.2 12.4-5.2 24.3-11.5 35.6-18.9 11.2-7.4 21.4-15.8 31-25 9.5-9.4 18-19.6 25.6-30.4 7.6-11 14-22.7 19.3-34.9 11-25.4 16.4-52.2 16.4-80.1s-5.7-54.7-16.5-80.1z"/>
         <path class="st1" d="M512.3 714.8c-28.6 0-56.2-5.5-81.9-16.3-12.2-4.9-24.2-11.3-35.8-19-10.6-6.9-21.1-15.3-31.1-25.1-9.1-8.9-17.7-19.2-25.7-30.6a197.6 197.6 0 0 1-19.4-35.1C307.5 563.1 302 536 302 508.3c0-28.2 5.5-55.2 16.5-80.5 5.2-12.2 11.7-24 19.4-35.1 8-11.4 16.6-21.7 25.7-30.6 10.1-9.7 20.5-18.1 31.1-25.1.9-.6 1.8-1.1 2.7-1.7 1.5-.9 3-1.9 4.6-2.8l.9 1.5c-57.2 37.7-91.4 101.3-91.4 170.3v4c0 49.8 19 97.5 53.6 134.1 38.6 42 90.9 65.1 147.3 65.1 56.4 0 108.8-23.1 147.3-65.1 34.4-36.7 53.4-84.3 53.4-134.1v-4c0-69-34.2-132.6-91.4-170.3l.9-1.5c2.8 1.6 5.1 3 7.3 4.5 10.6 6.8 21.1 15.3 31.1 25.1 9.1 8.9 17.7 19.2 25.7 30.6a197.6 197.6 0 0 1 19.4 35.1c11 25.9 16.6 53 16.6 80.5 0 28.2-5.5 55.2-16.5 80.5-5.2 12.2-11.7 24-19.4 35.1-8 11.4-16.6 21.6-25.7 30.6-10.1 9.7-20.5 18.1-31.1 25.1-11.3 7.4-23.4 13.8-35.8 19-25.9 10.7-53.5 16.2-81.9 16.2zM367.7 360.7c-1 .9-2 1.8-2.9 2.8-9 8.8-17.6 19-25.5 30.3-7.6 11-14 22.7-19.2 34.8-10.8 25-16.3 51.9-16.3 79.8 0 27.5 5.5 54.3 16.3 79.8 5.1 12.1 11.6 23.8 19.2 34.8 7.9 11.3 16.5 21.5 25.5 30.3 9.9 9.7 20.3 18.1 30.8 24.9 11.5 7.6 23.4 13.9 35.5 18.8 25.5 10.7 52.9 16.1 81.2 16.1 28.2 0 55.5-5.4 81.2-16.1 12.3-5.2 24.3-11.5 35.5-18.8 10.5-6.9 20.8-15.3 30.8-24.9 9-8.8 17.6-19 25.5-30.3 7.6-11 14-22.7 19.2-34.8 10.8-25 16.3-51.9 16.3-79.8 0-27.2-5.5-54.1-16.5-79.8-5.1-12.1-11.6-23.8-19.2-34.8-7.9-11.3-16.5-21.5-25.5-30.3-1.2-1.1-2.3-2.3-3.5-3.4 37.3 38 58.7 89.5 58.7 144.3v4c0 50.2-19.1 98.3-53.9 135.3-18.8 20.5-41.1 36.6-66.2 47.9-26 11.7-53.8 17.7-82.5 17.7-28.7 0-56.5-6-82.5-17.7-25.1-11.3-47.4-27.5-66.2-47.9-34.9-36.9-54.1-85-54.1-135.3v-4c.2-54.6 21.3-105.8 58.3-143.7z"/>
      </g>
      <g id="sc-logo-arc-3">
         <path class="st1" d="M512.1 318.5c102.8 0 186 83.4 186 186s-83.4 186-186 186-186-83.4-186-186 83.4-186 186-186m0-3.8c-25.6 0-50.4 5-73.8 14.9-22.7 9.5-42.9 23.2-60.3 40.7-17.5 17.5-31.1 37.8-40.7 60.3-9.9 23.4-14.9 48.3-14.9 73.8 0 25.6 5 50.4 14.9 73.8 9.5 22.7 23.2 42.9 40.7 60.3 17.5 17.5 37.8 31.1 60.3 40.7 23.4 9.9 48.3 14.9 73.8 14.9 25.6 0 50.4-5 73.8-14.9 22.7-9.5 42.9-23.2 60.3-40.7 17.5-17.5 31.1-37.8 40.7-60.3 9.9-23.4 14.9-48.3 14.9-73.8 0-25.6-5-50.4-14.9-73.8-9.5-22.7-23.2-42.9-40.7-60.3s-37.8-31.1-60.3-40.7c-23.2-10-48-14.9-73.8-14.9z"/>
         <path class="st1" d="M512.1 695.1c-25.7 0-50.6-5.1-74.2-15-22.7-9.6-43.1-23.4-60.6-40.9-17.6-17.6-31.4-38-40.9-60.6-10-23.5-15-48.5-15-74.2 0-25.7 5.1-50.6 15-74.2 9.6-22.7 23.4-43.1 40.9-60.6 17.6-17.6 38-31.4 60.6-40.9 23.5-10 48.5-15 74.2-15 26.3 0 51.2 5.1 74.2 15 22.7 9.6 43.1 23.4 60.6 40.9 17.6 17.6 31.4 38 40.9 60.6 10 23.5 15 48.5 15 74.2 0 25.7-5.1 50.6-15 74.2-9.6 22.7-23.4 43.1-40.9 60.6-17.6 17.6-38 31.4-60.6 40.9-23.6 10-48.5 15-74.2 15zm0-379.5c-25.4 0-50.1 5-73.5 14.9-22.4 9.4-42.6 23-60 40.5-17.3 17.3-31 37.5-40.5 60-9.9 23.3-14.9 48-14.9 73.5 0 25.4 5 50.1 14.9 73.5 9.4 22.4 23 42.6 40.5 60 17.3 17.3 37.5 31 60 40.5 23.3 9.9 48 14.9 73.5 14.9 25.4 0 50.1-5 73.5-14.9 22.4-9.4 42.6-23 60-40.5 17.3-17.3 31-37.5 40.5-60 9.9-23.3 14.9-48 14.9-73.5 0-25.4-5-50.1-14.9-73.5-9.4-22.4-23-42.6-40.5-60-17.3-17.3-37.5-31-60-40.5-22.7-9.9-47.5-14.9-73.5-14.9zm0 375.8c-103.1 0-186.9-83.8-186.9-186.9S409 317.6 512.1 317.6 699 401.4 699 504.5s-83.8 186.9-186.9 186.9zm0-372c-102.1 0-185.1 83-185.1 185.1s83 185.1 185.1 185.1 185.1-83 185.1-185.1-83-185.1-185.1-185.1z"/>
      </g>
      <g id="sc-logo-arc-2">
         <path class="st1" d="M512.1 336.5c92.7 0 168 75.3 168 168s-75.3 168-168 168-168-75.3-168-168 75.3-168 168-168m0-5.8c-23.4 0-46.3 4.7-67.7 13.7-20.7 8.8-39.3 21.2-55.3 37.3-16 16-28.4 34.6-37.3 55.3-9 21.4-13.7 44.1-13.7 67.7 0 23.4 4.7 46.3 13.7 67.7 8.8 20.7 21.2 39.3 37.3 55.3 16 16 34.6 28.4 55.3 37.3 21.4 9 44.1 13.7 67.7 13.7 23.4 0 46.3-4.7 67.7-13.7 20.7-8.8 39.3-21.2 55.3-37.3s28.4-34.6 37.3-55.3c9-21.4 13.7-44.1 13.7-67.7 0-23.4-4.7-46.3-13.7-67.7-8.8-20.7-21.2-39.3-37.3-55.3-16-16-34.6-28.4-55.3-37.3-21.4-9.2-44.1-13.7-67.7-13.7z"/>
         <path class="st1" d="M512.1 679.5c-23.4 0-46.3-4.6-68-13.8-20.9-8.9-39.6-21.5-55.6-37.5-15.9-15.9-28.5-34.6-37.5-55.6-9.1-21.7-13.8-44.6-13.8-68.1 0-23.4 4.6-46.3 13.8-68 8.9-20.9 21.5-39.6 37.5-55.6 15.9-15.9 34.6-28.5 55.6-37.5 21.7-9.1 44.6-13.8 68.1-13.8 23.9 0 46.8 4.6 68.1 13.8 20.9 8.9 39.6 21.5 55.6 37.5 15.9 15.9 28.5 34.6 37.5 55.6 9.1 21.7 13.8 44.6 13.8 68.1 0 23.4-4.6 46.3-13.8 68-8.9 20.9-21.5 39.6-37.5 55.6-15.9 15.9-34.6 28.5-55.6 37.5-21.9 9.2-44.7 13.8-68.2 13.8zm0-347.9c-23.2 0-45.9 4.6-67.4 13.6-20.7 8.8-39.2 21.3-55 37.1-15.8 15.8-28.3 34.3-37.1 55-9 21.5-13.6 44.2-13.6 67.3s4.6 45.9 13.6 67.4c8.8 20.7 21.3 39.2 37.1 55 15.8 15.8 34.3 28.3 55 37.1 21.5 9 44.2 13.6 67.3 13.6 23.2 0 45.9-4.6 67.3-13.6 20.7-8.8 39.2-21.3 55-37.1 15.8-15.8 28.3-34.3 37.1-55 9-21.5 13.6-44.2 13.6-67.3 0-23.2-4.6-45.8-13.6-67.3-8.8-20.7-21.3-39.2-37.1-55-15.8-15.8-34.3-28.3-55-37.1-20.9-9.1-43.6-13.7-67.2-13.7zm0 341.8c-93.1 0-168.9-75.8-168.9-168.9 0-93.1 75.8-168.9 168.9-168.9 93.1 0 168.9 75.8 168.9 168.9 0 93.1-75.8 168.9-168.9 168.9zm0-336c-92.1 0-167.1 75-167.1 167.1s75 167.1 167.1 167.1 167.1-75 167.1-167.1c0-92.2-74.9-167.1-167.1-167.1z"/>
      </g>
      <g id="sc-logo-arc-1">
         <path class="st1" d="M512.1 389.6c63.6 0 114.9 51.5 114.9 114.9s-51.5 114.9-114.9 114.9-114.9-51.5-114.9-114.9 51.5-114.9 114.9-114.9m0-11.5c-17.1 0-33.7 3.4-49.2 9.9-15.1 6.3-28.6 15.5-40.2 27-11.5 11.5-20.7 25.2-27 40.2-6.7 15.7-9.9 32.2-9.9 49.2 0 16.9 3.4 33.7 9.9 49.2 6.3 15.1 15.5 28.6 27 40.2 11.5 11.5 25.2 20.7 40.2 27 15.7 6.7 32.2 9.9 49.2 9.9s33.7-3.4 49.2-9.9c15.1-6.3 28.6-15.5 40.2-27 11.5-11.5 20.7-25.2 27-40.2 6.7-15.7 9.9-32.2 9.9-49.2 0-16.9-3.4-33.7-9.9-49.2-6.3-15.1-15.5-28.6-27-40.2-11.5-11.5-25.2-20.7-40.2-27-15.5-6.7-32.1-9.9-49.2-9.9z"/>
         <path class="st1" d="M512.1 631.4c-17.3 0-33.9-3.4-49.5-10-15.2-6.4-28.8-15.6-40.4-27.2-11.8-11.8-20.9-25.4-27.2-40.4-6.6-15.8-10-32.5-10-49.5 0-17.3 3.4-33.9 10-49.5 6.4-15.2 15.6-28.8 27.2-40.4 11.8-11.8 25.4-20.9 40.4-27.2 15.8-6.6 32.5-10 49.5-10 17.5 0 34.1 3.4 49.5 10 15.2 6.4 28.8 15.6 40.4 27.2 11.8 11.8 20.9 25.4 27.2 40.4 6.6 15.8 10 32.5 10 49.5 0 17.3-3.4 33.9-10 49.5-6.4 15.2-15.6 28.8-27.2 40.4-11.8 11.8-25.4 20.9-40.4 27.2-15.8 6.7-32.4 10-49.5 10zm0-252.4c-16.8 0-33.2 3.3-48.8 9.8-14.8 6.2-28.3 15.2-39.9 26.8-11.5 11.5-20.5 24.9-26.8 39.9-6.5 15.3-9.8 31.8-9.8 48.8 0 16.8 3.3 33.2 9.8 48.8 6.2 14.8 15.2 28.3 26.8 39.9 11.5 11.5 24.9 20.5 39.9 26.8 15.3 6.5 31.8 9.8 48.8 9.8 16.8 0 33.2-3.3 48.8-9.8 14.8-6.2 28.3-15.2 39.9-26.8 11.5-11.5 20.5-24.9 26.8-39.9 6.5-15.3 9.8-31.8 9.8-48.8 0-16.8-3.3-33.2-9.8-48.8-6.2-14.8-15.2-28.3-26.8-39.9-11.5-11.5-24.9-20.5-39.9-26.8-15.1-6.5-31.6-9.8-48.8-9.8zm0 241.2c-63.8 0-115.8-51.9-115.8-115.8s51.9-115.8 115.8-115.8 115.8 51.9 115.8 115.8S576 620.2 512.1 620.2zm0-229.7c-62.8 0-114 51.1-114 114s51.1 114 114 114 114-51.1 114-114-51.1-114-114-114z"/>
      </g>
      <g id="sc-logo-bottom">
         <path class="st1" d="M464.2 717.1c-2.2.5-3.6 2.9-3.1 5l.9 3.4c.5 2.2 2.9 3.6 5 3.1l44.5-11.3c.2 0 .4-.2.7-.2.2 0 .4.2.7.2l44.5 11.3c2.2.5 4.5-.7 5-3.1l.9-3.4c.5-2.2-.7-4.5-3.1-5l-23.9-6.1h-48.1l-24 6.1z"/>
         <path class="st1" d="M558.5 729.7c-.4 0-.8 0-1.2-.1l-44.4-11.3c-.3 0-.5-.1-.7-.2h-.1c-.1 0-.2.1-.4.1l-44.4 11.3c-1.3.3-2.7.1-3.8-.6-1.2-.7-2-1.8-2.3-3.1l-.9-3.4c-.7-2.6 1.1-5.5 3.7-6.1l24.3-6.1h48.2l24.1 6.1c1.3.3 2.4 1.1 3.1 2.2.7 1.2.9 2.6.6 3.9l-.9 3.4c-.3 1.3-1.1 2.4-2.2 3.1-.8.5-1.8.8-2.7.8zm-46.2-13.5c.3 0 .5.1.6.1h.3l44.5 11.3c.8.2 1.8.1 2.5-.4.7-.4 1.2-1.2 1.4-2l.9-3.4c.2-.8.1-1.8-.4-2.5-.4-.7-1.2-1.2-2-1.4l-23.9-6.1h-47.8l-24 6.1c-1.7.4-2.8 2.3-2.4 4l.9 3.4c.2.8.8 1.5 1.5 2 .8.5 1.6.6 2.4.4l44.6-11.4c.3 0 .5-.1.9-.1z"/>
      </g>
   </g>
</svg>
