<svg xmlns="http://www.w3.org/2000/svg" viewBox="0 0 1024 1024">
   <circle cx="512" cy="512" r="512" style="fill:#1387b8"/>
   <path d="M511.55 256c-134.42 0-244.64 103.68-255.07 235.45l137.21 56.7a72.26 72.26 0 0 1 40.79-12.59c1.34 0 2.67.09 4 .13l61-88.36v-1.26A96.51 96.51 0 1 1 596 542.68h-2.24l-87 62.1c0 1.11.09 2.24.09 3.39a72.39 72.39 0 0 1-143.38 14.27l-98.24-40.68C295.73 689.21 394.37 768 511.55 768c141.37 0 256-114.62 256-256s-114.65-256-256-256Zm-94.7 388.47-31.42-13a54.27 54.27 0 0 0 99.11-2.67 54.3 54.3 0 0 0-69.33-71.72l32.49 13.44a40.06 40.06 0 0 1-30.83 74ZM660.37 446a64.32 64.32 0 1 0-64.32 64.32A64.4 64.4 0 0 0 660.37 446Zm-112.49-.11a48.33 48.33 0 1 1 48.32 48.32 48.31 48.31 0 0 1-48.32-48.3Z" style="fill:#fff"/>
</svg>
