<svg xmlns="http://www.w3.org/2000/svg" viewBox="0 0 1024 1024" style="enable-background:new 0 0 1024 1024" xml:space="preserve">
   <circle cx="512" cy="512" r="512" style="fill:#1387b8"/>
   <path d="M511.6 256C377.2 256 267 359.7 256.5 491.4l137.2 56.7c11.6-7.9 25.7-12.6 40.8-12.6 1.3 0 2.7.1 4 .1l61-88.4v-1.3c0-53.2 43.3-96.5 96.5-96.5s96.5 43.3 96.5 96.6-43.3 96.5-96.5 96.5h-2.2l-87 62.1c0 1.1.1 2.2.1 3.4 0 40-32.3 72.4-72.3 72.4-34.9 0-64.3-25-71.1-58.2l-98.2-40.7C295.7 689.2 394.4 768 511.6 768c141.4 0 256-114.6 256-256s-114.7-256-256-256zm-94.7 388.5-31.4-13c5.6 11.6 15.2 21.3 28 26.7 27.7 11.5 59.6-1.6 71.1-29.3 5.6-13.4 5.6-28.1.1-41.6-5.5-13.4-16-23.9-29.4-29.5-13.3-5.5-27.5-5.3-40.1-.6l32.5 13.4c20.4 8.5 30.1 32 21.5 52.4-8.4 20.3-31.9 30-52.3 21.5zM660.4 446c0-35.5-28.9-64.3-64.3-64.3-35.5 0-64.3 28.9-64.3 64.3 0 35.5 28.8 64.3 64.3 64.3 35.4 0 64.3-28.8 64.3-64.3zm-112.5-.1c0-26.7 21.6-48.3 48.3-48.3 26.6 0 48.3 21.6 48.3 48.3 0 26.7-21.7 48.3-48.3 48.3-26.7 0-48.3-21.6-48.3-48.3z" style="fill:#fff"/>
</svg>
