<svg xmlns="http://www.w3.org/2000/svg" viewBox="0 0 1024 1024">
   <circle cx="512" cy="512" r="512" style="fill:#276ef1"/>
   <path d="M303.95 584.78c26.94 0 47.77-20.84 47.77-51.67v-120h29.16v194.45H352V589.5c-13.05 13.61-31.11 21.39-51.39 21.39-41.67 0-73.61-30.28-73.61-76.09V413.14h29.16v120c0 31.39 20.55 51.67 47.78 51.67m98.58 22.77h27.79v-17.8a70.68 70.68 0 0 0 50.57 21.11c41.67 0 74.44-33.05 74.44-73.88a73.86 73.86 0 0 0-74.44-74.17 70 70 0 0 0-50.27 21.11v-70.83h-28.06Zm76.43-21.38a49.17 49.17 0 1 1 48.6-49.2c0 27.22-21.94 49.17-48.61 49.17m160.28-123.06c-41.39 0-72.78 33.61-72.78 73.61 0 42.22 32.78 73.88 75.27 73.88 25.83 0 46.94-11.39 61.11-30.28l-20.28-15c-10.55 14.17-24.43 20.84-40.83 20.84-23.87 0-43-17.22-46.93-40.28H710v-9.17c0-42.22-30-73.61-70.83-73.61m-43.89 60.56c5-21.67 22.5-36.11 43.33-36.11S677 502 681.72 523.67h-86.39M797 490.91v-26.12h-9.72c-15.56 0-26.95 7.22-33.89 18.61v-17.51H725.6v141.67h28.06V527c0-21.94 13.33-36.11 31.67-36.11Z" style="fill:#fff"/>
</svg>
