<?xml version="1.0" encoding="utf-8"?>
<!-- Generator: Adobe Illustrator 21.0.0, SVG Export Plug-In . SVG Version: 6.00 Build 0)  -->
<svg version="1.1" xmlns="http://www.w3.org/2000/svg" xmlns:xlink="http://www.w3.org/1999/xlink" x="0px" y="0px"
	 viewBox="0 0 1024 1024" style="enable-background:new 0 0 1024 1024;" xml:space="preserve">
<style type="text/css">
	.st0{fill:#E2001A;}
	.st1{fill:#FFFFFF;}
</style>
<g id="Min_Guides__x28_DO_NOT_REMOVE_x29_">
</g>
<g id="Max_Guides__x28_DO_NOT_REMOVE_x29_">
</g>
<g id="Icon">
	<circle id="Background" class="st0" cx="512" cy="512" r="512"/>
	<path class="st1" d="M783.3,418.1c-1.3,2-4,4-8.1,6.1c-6.5,3.1-13.1,6.5-20,9.9c-6.8,3.5-14.1,7.3-21.8,11.4
		c-0.8,4.7-1.7,9.8-2.5,15.2c-0.8,5.4-1.8,10.9-2.8,16.3c5.3-2.7,10.8-5.2,16.3-7.5l1.3-0.5c3.7-1.4,6.7-2,9-1.7
		c2.3,0.3,4.5,1.7,6.4,4.3l0-0.2c2,2.3,3.5,4.6,4.6,6.9c1.1,2.3,2.1,4.7,3.2,7.1l-0.2-0.1c0.8,1.7,1.3,3.1,1.5,4.2
		c0.4,2.1-0.1,4.1-1.3,6c-1.2,1.9-3,3.6-5.2,5.3c-2.2,1.6-4.8,3.3-7.9,4.9c-3,1.6-6.2,3.3-9.4,5.1l0.2-0.1
		c-4.7,2.8-9.2,5.5-13.6,8.1c-4.4,2.6-8.8,5.2-13,7.9c-0.6,2.9-1.2,6-1.7,9.3c-0.5,3.3-0.7,6.2-0.6,8.5c4.7-2.7,9.5-5.4,14.5-8.1
		c5-2.7,10.4-5.2,16.1-7.3c3.4-1.3,6.3-1.7,8.6-1.2c2.3,0.5,4.3,2.1,5.9,4.6l0-0.2c2,2.4,3.9,5.2,5.7,8.4c1.8,3.2,3,6.4,3.5,9.6
		c0.5,2.9,0.1,5.1-1.1,6.8c-1.2,1.7-3.6,3.6-7.1,5.7c-7.8,4.9-15.9,9.8-24.1,14.9s-16.2,10-23.9,14.8l0.2-0.3
		c-3.4,2.2-6.3,3.8-8.7,4.7c-2.8,1.1-5.3,1.6-7.5,1.7c-2.2,0-4.3-0.3-6.3-1.1c-2-0.8-4.1-1.8-6.3-3c-2.2-1.2-4.5-2.7-7.1-4.4l0,0.2
		c-2.1-1.2-3.8-2.7-5.2-4.6c-1.4-1.9-2.3-4.4-2.9-7.7c-0.3-1.9-0.4-3.8-0.4-5.8L684.1,435l2-3.6c4.9-3.2,10.2-6.6,16-10.2
		c5.8-3.6,11.9-7.2,18.2-10.9c6.3-3.6,12.9-7.2,19.5-10.7c6.7-3.5,13.4-6.6,20-9.5l0.9-0.4c4.1-1.6,7.3-1.9,9.8-1.2
		c2.5,0.8,4.6,2.6,6.2,5.4l0-0.2c1.7,2.4,3,4.4,3.8,6.1c0.8,1.7,1.6,3.5,2.3,5.5l-0.2-0.1c0.8,1.4,1.3,3,1.6,4.8
		C785,413.5,784.6,416.2,783.3,418.1z M665.6,490.7c-0.2,0.3-0.3,0.6-0.4,0.9c-0.4,2.2-1.1,4.1-1.9,5.5c-0.8,1.5-2.8,2.7-5.8,3.7
		c-0.6,0.2-1.2,0.4-1.9,0.7c-0.7,0.2-1.5,0.4-2.3,0.4c-4,0.5-7.5,0.6-10.3,0.2c-2.8-0.4-5.2-1.3-7.2-2.7c-2-1.3-3.6-3.1-4.8-5.4
		c-1.3-2.3-2.3-5-3-8.1c-0.3-2.2-0.5-4.5-0.6-6.9c-0.1-2.4-0.3-4.4-0.5-6.2c-0.2-1.3-0.4-2.4-0.8-3.5c-0.4-1-0.9-1.7-1.5-2
		c-1.7,0.7-3.7,3.2-6.1,7.5c-2.3,4.3-4.7,9.4-7,15.4c-2.3,5.9-4.5,12.3-6.5,19.1c-2,6.8-3.6,13.1-4.8,18.9
		c-1.5,7.5-2.4,14.9-2.8,22.1c-0.4,7.2-0.3,13.4,0.4,18.6c0.4,3.4,1.1,6.1,1.9,8.2c0.9,2.1,2,3.2,3.5,3.3l0.7-0.2
		c3.6-1.2,8.8-7.6,15.6-19.2c5-8.1,11.2-13.4,18.7-16.1c1.6-0.6,3.3-1,5-1.3c1.7-0.3,3.5-0.5,5.4-0.5c3.1-0.1,5.5,0.5,7,1.7
		c1.5,1.2,2.5,3,2.8,5.4c0.2,1.6,0.1,3.5-0.4,5.5c-0.5,2.1-1,4.3-1.7,6.6c-3.5,11.5-8.8,21.7-16,30.5c-7.2,8.9-16.3,15.2-27.4,19.1
		c-0.9,0.3-1.7,0.6-2.4,0.8c-0.7,0.2-1.3,0.4-1.9,0.5l0.2-0.1c-5.3,1.2-10.1,1.8-14.4,1.9c-4.3,0-8.3,0-11.8-0.2l0.2-0.1
		c-1.8,0.1-3.7-0.1-5.7-0.7c-2-0.6-4-1.5-5.9-2.7c-1.9-1.2-3.6-2.6-5.2-4.2c-1.6-1.7-2.9-3.4-3.8-5.3l0,0.4
		c-1.8-2.9-3.3-6.4-4.5-10.3c-1.2-3.9-2-8.2-2.6-12.8c-0.9-7.2-1.1-15.4-0.4-24.6c0.6-9.2,2-18.8,4.1-28.7
		c2.1-9.9,4.9-19.8,8.3-29.5c3.5-9.8,7.5-18.8,12.2-27.1c4.7-8.3,9.9-15.5,15.8-21.5c5.9-6.1,12.2-10.3,19.2-12.7
		c0.6-0.2,1.2-0.4,1.7-0.6c0.7-0.2,1.3-0.4,1.9-0.5l-0.2,0.1c2.9-0.6,6-1.2,9.2-1.5c3.2-0.4,6.3-0.5,9.3-0.5c3,0.1,5.9,0.3,8.7,0.8
		c2.8,0.5,5.2,1.1,7.2,2c5.2,2.1,8.8,4.9,10.7,8.4c1.9,3.5,3.1,7.7,3.8,12.5c0.3,2.6,0.6,5.4,0.7,8.5c0.1,3.1,0.2,6.2,0.1,9.3
		c-0.1,3.1-0.3,6.1-0.6,9.1C666.5,485.6,666.1,488.3,665.6,490.7z M537.6,619c-3.1,0.8-5.9,1.5-8.5,2c-2.6,0.5-5.4,0.5-8.3,0
		l0.2,0.1c-3.5-0.2-5.9-1.1-7.2-2.7c-1.4-1.6-2.3-4.7-2.8-9.3c-0.6-5.6-1.2-12.2-1.6-19.8l-0.5-3.4c-7.4,3.2-14.6,6.4-21.7,9.6
		c-7.1,3.2-13.3,6.3-18.7,9.3c-1.6,3.7-3,7.7-4.4,11.9c-1.4,4.2-2.8,8.2-4.3,11.8c-1.5,3.7-2.9,6.8-4.5,9.3
		c-1.5,2.5-3.3,4.1-5.2,4.6c-1.7,0.5-3.7,0.5-5.8,0.2l-2-0.5c-1.8-0.5-3.6-1-5.4-1.5c-1.8-0.6-3.4-1.3-4.9-2.1
		c-1.4-0.9-2.6-1.9-3.6-3.1c-1-1.2-1.5-2.8-1.6-4.6c-0.1-1.3,0-2.7,0.2-4.3c0.2-1.6,0.6-3.5,1.3-5.7c3.2-9.9,7.2-21.2,11.8-33.8
		c4.7-12.7,9.6-25.7,14.8-38.9c5.2-13.2,10.4-26.2,15.6-38.7c5.2-12.6,10.1-23.6,14.5-33.1c1.7-3.5,3.8-6.7,6.2-9.4
		c2.5-2.7,5.9-4.7,10.4-6c7.5-2.1,13.9-3.1,19-3.2c5.2-0.1,9.7,0.1,13.6,0.4l3,0.1c3.5,0.4,5.8,1.3,7.1,2.9c1.3,1.6,2,3.9,2.2,6.9
		c0,0.6,0.1,1.2,0.1,1.9c0,0.6,0,1.2-0.1,1.8l0-0.2c-0.4,7.9-0.7,17.3-0.8,28.1c-0.1,10.8-0.1,22.2-0.1,34.3
		c0.1,12,0.2,24.3,0.5,36.9c0.3,12.5,0.5,24.4,0.8,35.7c0.2,3.7-0.3,6.5-1.5,8.2C544.3,616.5,541.7,617.9,537.6,619z M507.4,509.3
		c-3,7.1-6.3,14.6-9.6,22.6c-3.4,8-6.8,16.2-10.2,24.7c3.4-1.5,6.7-2.9,9.9-4.1c3.3-1.2,6.6-2.4,9.9-3.6c0-6.7-0.1-13.4-0.1-20
		C507.3,522.3,507.3,515.8,507.4,509.3z M510.4,388v-0.1c-2.2,5.7-5.8,11.4-10.7,17c-4.9,5.6-10.7,11.3-17.5,16.9
		c1.3,1.6,2.7,3.4,4.2,5.1c1.5,1.8,3,3.5,4.6,5.2c1.6,1.7,3.1,3.4,4.6,4.9c1.5,1.5,3,2.9,4.3,4.1v-0.1c1.4,1.2,2.1,2.6,2.1,4.2
		c0,1.1-0.3,2.2-1,3.3c-0.7,1.1-1.5,2.1-2.4,3c-0.9,0.9-1.8,1.6-2.8,2.3c-0.9,0.7-1.6,1.1-2.2,1.3l0.1-0.1c-0.8,0.4-1.5,0.8-2.2,1.2
		c-0.7,0.4-1.5,0.7-2.3,0.9c-1.2,0.3-2.5,0.4-3.9,0.3c-1.4-0.1-2.9-0.6-4.4-1.5c-1.3-0.9-2.7-2-4.3-3.4c-1.6-1.3-3.2-2.8-4.9-4.5
		c-1.7-1.6-3.4-3.4-5-5.2c-1.7-1.8-3.2-3.7-4.7-5.7c-1.1,4.5-2.1,8.8-3.2,13c-1,4.2-2,8.4-3,12.7c-0.4,1.6-0.9,2.8-1.6,3.7
		c-0.7,0.9-1.6,1.6-2.9,1.9c-0.8,0.2-1.6,0.3-2.4,0.2c-1.5-0.1-3-0.2-4.4-0.3c-1.4-0.1-2.7-0.3-3.7-0.7c-1.1-0.4-1.9-1.1-2.6-2.1
		c-0.6-1-1-2.5-1-4.5c0-1,0.1-2.2,0.3-3.5c0.4-2.5,1.1-6.2,2-11.1c0.9-4.9,1.9-10.4,3-16.3c1.1-5.9,2.3-12.1,3.6-18.5
		c1.3-6.4,2.7-12.3,4-17.8c1.4-5.5,2.8-10.2,4.2-14.1c1.4-3.9,2.7-6.4,4-7.4c2.4-1.9,4.8-3.8,7.4-5.7c2.6-1.9,5.1-3.7,7.7-5.3
		c2.6-1.6,5.1-3.1,7.7-4.3c2.5-1.3,4.9-2.2,7.2-2.8c2.7-0.7,5.3-0.9,7.7-0.6c2.5,0.3,4.6,1.4,6.4,3.3c1.1,1.2,2.2,2.5,3.3,3.9
		c1.1,1.4,2.1,3.1,3.1,4.9c0.9,1.8,1.7,3.9,2.3,6.2c0.6,2.3,0.9,4.8,0.9,7.6c0,1.6-0.1,3.1-0.4,4.5
		C511.3,385.3,510.9,386.7,510.4,388z M491.5,379.2c-0.3-0.9-1.8-1-4.3-0.3c-1.5,0.4-3.1,1-5,2c-1.9,0.9-3.8,2.1-5.8,3.7
		c-0.9,2.8-1.8,5.8-2.6,9c-0.9,3.2-1.8,6.5-2.7,10v-0.1c-0.1,0.5-0.3,1-0.4,1.4c-0.1,0.5-0.3,1-0.4,1.5c3.3-2.5,6.2-5.1,8.9-7.8
		c2.7-2.7,4.9-5.3,6.7-7.8c1.8-2.5,3.2-4.7,4.2-6.8c1-2,1.5-3.6,1.5-4.7V379.2z M445.2,388.8c-0.7,1-2.1,1.9-4.2,2.7
		c-3.2,1.2-6.6,2.5-10,3.9c-3.4,1.4-7.1,2.9-10.9,4.6c-0.7,2.6-1.5,5.4-2.3,8.3c-0.8,3-1.6,6-2.5,8.9c2.7-1.1,5.4-2,8.1-2.8l0.7-0.2
		c1.8-0.5,3.2-0.5,4.3-0.2c1.1,0.4,1.9,1.4,2.6,3V417c0.7,1.5,1.3,2.9,1.6,4.3c0.3,1.4,0.6,2.8,0.9,4.2l-0.1-0.1
		c0.2,1,0.4,1.8,0.4,2.5c0,1.2-0.4,2.3-1.1,3.3c-0.7,1-1.6,1.8-2.8,2.5c-1.2,0.7-2.5,1.4-4,2.1c-1.5,0.7-3.1,1.4-4.7,2.1l0.1,0
		c-2.4,1.2-4.7,2.4-6.9,3.4c-2.2,1.1-4.4,2.2-6.6,3.3c-0.5,1.6-1,3.3-1.5,5.1c-0.5,1.8-0.8,3.4-0.9,4.7c2.4-1.1,4.8-2.3,7.3-3.4
		c2.5-1.1,5.2-2,8-2.8c1.7-0.5,3-0.4,4.1,0c1,0.5,1.8,1.5,2.4,3.1v-0.1c0.7,1.5,1.4,3.2,2,5.2c0.6,1.9,0.9,3.8,0.9,5.7
		c0,1.7-0.3,2.9-1,3.7c-0.7,0.8-1.9,1.7-3.7,2.6c-4,2.1-8.1,4.2-12.3,6.4c-4.2,2.2-8.3,4.3-12.2,6.4l0.1-0.1c-1.7,1-3.2,1.6-4.4,1.9
		c-1.4,0.4-2.6,0.5-3.6,0.3c-1-0.2-2-0.5-2.8-1.1c-0.9-0.6-1.8-1.3-2.7-2.2c-0.9-0.9-1.9-1.9-2.9-3v0.1c-0.9-0.8-1.6-1.9-2.1-3
		c-0.5-1.2-0.7-2.7-0.7-4.5c0-1.1,0.1-2.2,0.3-3.3L398,390l1.2-1.8c2.5-1.4,5.2-2.9,8.2-4.4c3-1.6,6-3.1,9.2-4.6
		c3.2-1.5,6.5-3,9.8-4.4c3.4-1.4,6.7-2.6,10-3.7l0.5-0.1c2-0.5,3.5-0.5,4.6,0.2c1.1,0.6,1.9,1.8,2.5,3.5v-0.1
		c0.6,1.5,1.1,2.7,1.3,3.7c0.2,1,0.5,2.1,0.7,3.3l-0.1-0.1c0.3,0.9,0.4,1.8,0.4,2.8C446.3,386.3,445.9,387.8,445.2,388.8z
		 M380,434.8c-1.1,1.3-2.3,2.7-3.4,4c-1.1,1.3-2.4,2.7-3.8,4.1c1.8,1.3,3.3,3.2,4.4,5.7c1.1,2.5,1.7,5.2,1.7,7.9
		c0,3.3-0.6,6.3-1.8,9c-1.2,2.7-3,5.5-5.3,8.5l0.1,0c-1.6,2.3-3.6,4.6-5.9,6.8c-2.3,2.2-4.7,4.4-7.2,6.4c-2.5,2-5,3.9-7.6,5.7
		c-2.5,1.8-4.9,3.3-7.2,4.7l0.1,0c-2.1,1.4-3.9,2.3-5.3,2.7c-1.1,0.3-2,0.3-2.9,0.2c-0.9-0.2-1.9-0.6-2.9-1.2
		c-1.7-0.5-3.4-1.2-5.1-2.2c-1.7-0.9-3.2-2.4-4.6-4.3l0.1,0.1c-0.8-1.1-1.5-2-1.9-2.9c-0.5-0.9-0.7-2.1-0.7-3.6c0-0.7,0-1.4,0.1-2
		c0.1-0.7,0.2-1.4,0.3-2.2c0.7-4.9,1.6-10.2,2.8-16c1.2-5.8,2.3-11.7,3.5-17.8c1.2-6.1,2.3-12.2,3.4-18.2c1.1-6.1,2-11.8,2.6-17.3
		c2.1-1.8,4.5-3.6,7.1-5.4c2.6-1.8,5.3-3.5,8.1-5c2.8-1.6,5.6-3,8.4-4.2c2.9-1.2,5.6-2.2,8.2-2.9c3.4-0.9,6.5-1.3,9.4-1.2
		c2.9,0.1,5.1,0.9,6.7,2.5c0.9,1,1.9,2,2.7,3.2c0.9,1.2,1.7,2.4,2.4,3.9c0.7,1.4,1.3,3,1.7,4.7c0.4,1.7,0.6,3.5,0.6,5.5
		c0,3.7-0.9,7.4-2.6,11C384.6,428.3,382.5,431.7,380,434.8z M344.7,462c-0.6,2.5-1.2,5-1.7,7.2c-0.6,2.3-1.1,4.6-1.7,6.9
		c2.5-1.6,4.7-3.2,6.8-4.8c2-1.7,3.8-3.3,5.2-4.8c1.4-1.6,2.6-3,3.4-4.4c0.8-1.4,1.2-2.6,1.2-3.6c-0.1-0.5-0.6-0.8-1.4-1
		c-0.8-0.1-2,0-3.5,0.4C350.7,458.5,348,459.9,344.7,462z M366.4,416.2c-1.4,0.4-3.1,1.1-5,2.2c-1.9,1.1-4.1,2.5-6.4,4.3
		c-0.6,2-1.2,4.1-1.7,6.2c-0.6,2.2-1.1,4.4-1.7,6.8c-0.3,0.9-0.5,1.7-0.7,2.4c2.8-2.1,5.4-4.2,7.7-6.4c2.3-2.2,4.3-4.3,5.9-6.3
		c1.6-2,2.9-3.8,3.7-5.4c0.9-1.6,1.3-2.8,1.3-3.7C369.4,415.6,368.4,415.6,366.4,416.2z M327,423.5c-1.9,9.9-3.9,19.2-5.9,27.9
		c-2,8.7-4.1,16.6-6.3,23.6c-2.2,7.1-4.6,13.2-7.2,18.5c-2.6,5.3-5.4,9.4-8.5,12.5c-1.8,1.6-3.7,2.9-5.5,4c-1.9,1-3.9,1.8-6.1,2.4
		c-5.7,1.5-10.4,1.7-14.3,0.4c-3.8-1.2-6.7-4.2-8.5-9c-1.1-3-1.6-6.8-1.6-11.5c0-4.2,0.4-9,1.2-14.3c0.8-5.3,1.9-10.8,3.3-16.4
		c1.3-5.7,2.8-11.3,4.5-17.1s3.3-11.1,4.9-16.3c0.6-1.7,1.2-3.1,1.9-3.9c0.7-0.9,1.6-1.5,2.8-1.8c1.4-0.4,2.9-0.4,4.6-0.1
		c1.7,0.3,3.3,0.8,4.8,1.6c1.5,0.8,2.8,1.9,3.8,3.2c1,1.3,1.5,2.8,1.5,4.6c0,1.3-0.3,2.7-0.8,4.3l0.1-0.1c-1.3,4.1-2.7,8.7-4.2,13.8
		c-1.5,5.1-2.8,10.1-4.1,15.2c-1.3,5.1-2.3,9.9-3.2,14.4c-0.8,4.5-1.2,8.2-1.2,11.1c0,1.5,0.1,2.7,0.3,3.6c0.2,0.9,0.6,1.2,1.2,1.1
		c1.3-0.3,2.6-1.9,4-4.7c1.4-2.8,2.8-6.4,4.2-10.7c1.4-4.3,2.8-9.2,4.2-14.6c1.4-5.4,2.7-10.8,4-16.3c1.3-5.5,2.4-10.8,3.5-15.9
		c1.1-5.1,2-9.6,2.7-13.5l-0.1,0.2c0.3-1.9,0.9-3.4,1.8-4.3c0.9-1,2-1.6,3.2-2c0.9-0.2,1.8-0.3,2.8-0.2c1,0.1,2,0.3,3.1,0.5
		c1.1,0.2,2.1,0.6,3.2,0.9c1.1,0.4,2,0.7,3,1.1c1.3,0.6,2.1,1.2,2.6,1.9s0.7,1.6,0.7,2.7c0,0.5,0,1-0.1,1.5
		C327.3,422.2,327.2,422.8,327,423.5z M265.1,555.4c2.4-4.7,5.1-9.2,8.2-13.7c3.1-4.5,6.4-8.7,9.9-12.8c3.5-4.1,7-7.5,10.3-10.4
		l-0.3,0.2c1.7-1.9,4-3.6,6.9-5.2c2.8-1.6,5.9-2.7,9.3-3.4c2.3-0.5,4.8-0.6,7.6-0.3c2.8,0.2,5.7,0.8,8.6,1.6
		c2.9,0.8,5.7,1.9,8.3,3.4c2.6,1.4,4.9,3,6.8,4.8c2.9,2.8,4.7,5.8,5.4,9.1c0.7,3.3,1.1,6.5,1,9.6l-0.1,4.1c-0.4,2.7-1,5.9-1.8,9.6
		c-0.8,3.7-1.7,7.5-2.7,11.4c-1,3.9-2.2,7.6-3.4,11.3c-1.2,3.7-2.4,6.9-3.6,9.7c-1.1,2.1-2.1,3.7-3.2,5c-1.1,1.2-2.4,2-4,2.4
		c-1.3,0.3-2.9,0.2-4.7-0.4l0.1,0.1c-11.9-2.7-17.7-8.7-17.6-18.1c0-1.1,0.3-2.8,0.9-5.1c0.5-2.3,1.2-4.9,1.9-7.6
		c0.7-2.7,1.4-5.5,2-8.3c0.6-2.8,1.1-5.1,1.3-7c-0.1,0.1-0.2,0.2-0.3,0.2l-0.1,0.2c-1.7,1.3-3.7,3.3-5.8,5.9c-2.1,2.6-4.1,5.5-6,8.6
		c-1.9,3.1-3.5,6.5-4.8,9.9c-1.3,3.5-1.9,6.7-2,9.8c0,3.4,0.8,6.1,2.6,8.1l0-0.2c3.4,3.5,7.2,6.7,11.4,9.3c4.3,2.7,8.2,5.4,12,8.1
		c3.7,2.7,6.9,5.7,9.5,8.9c2.6,3.2,3.8,7.2,3.8,11.8c0,3.2-0.8,6.5-2.3,10.1v-0.2c-1.2,3.1-2.8,6.4-4.8,10c-2,3.6-4.6,7.1-7.9,10.5
		c-3.2,3.4-7.1,6.6-11.7,9.5c-4.6,2.9-9.9,5-16.2,6.4l-1.9,0.4c-7.8,1.6-15.3,1.1-22.3-1.6c-7-2.6-13.9-8-20.5-16.1
		c-3.9-4.2-5.9-7.8-5.9-10.9l0-0.3c0.2-3.5,1.8-6.5,4.7-8.9l0.3-0.2c3.4-2.4,7-4,10.8-4.8c2.5-0.5,4.8-0.6,7-0.4
		c2.2,0.3,4.1,1,5.8,2.2c5,3.2,9.6,5.5,13.6,6.8c4.1,1.3,7.6,1.6,10.6,1c2.2-0.4,3.9-1.3,5.2-2.7c-0.2-1.3-1.6-2.9-4.4-5
		c-2.7-2.1-5.9-4.3-9.6-6.7c-3.4-2.2-6.8-4.5-10.1-6.7s-6.2-4.8-8.8-7.7c-2.6-2.9-4.6-6.3-6.2-10.1c-1.5-3.9-2.2-8.4-2.2-13.6
		c0.1-5.4,1.3-11.6,3.8-18.5l-0.1,0.2C261,564.4,262.7,560.1,265.1,555.4z M340,624.2c1.5-6.9,3.1-14.7,4.7-23.4
		c1.6-8.7,3.3-17.7,5-27.1c1.7-9.3,3.4-18,5-26c1.6-8,3.2-14.7,4.8-20.3c1.6-5.5,3-8.8,4.3-9.9c3.8-2.9,7.9-5.9,12.3-9
		c4.4-3.1,9-6,13.7-8.8c4.7-2.8,9.4-5.2,14.1-7.2c4.7-2.1,9.1-3.5,13.4-4.4c4.2-0.8,8-1,11.4-0.4c3.4,0.6,6.4,2.2,9,4.8
		c1.6,1.7,3.2,3.7,4.9,6c1.7,2.3,3.2,4.9,4.6,7.7c1.4,2.8,2.5,5.9,3.4,9.3c0.9,3.4,1.3,7,1.3,11c-0.1,6-1.5,11.6-4.1,16.8
		c-2.7,5.2-5.8,10.3-9.5,15.3c-3.5,4.7-7.7,9.3-12.4,14.1c-4.8,4.7-9.9,9.3-15.4,13.7c-5.5,4.4-11.3,8.6-17.3,12.5
		c-6,4-12,7.6-18,10.8c-1.8,7.1-3.5,14.1-5.2,20.9c-1.7,6.8-3.3,13.6-4.8,20.3c-0.9,2.4-1.9,4.3-2.9,5.6c-1,1.3-2.5,2.2-4.6,2.6
		c-1.3,0.3-2.6,0.4-3.9,0.3c-2.4-0.4-4.7-0.8-7.1-1.3c-2.4-0.4-4.5-1.1-6.3-1.9c-1.8-0.9-3.3-2.1-4.4-3.7c-1.1-1.6-1.6-3.8-1.6-6.6
		c0-1.7,0.5-4,1.3-6.8C337,636.1,338.4,631.1,340,624.2z M401.1,555.4c4.1-3.8,7.5-7.5,10.3-11c2.8-3.5,4.9-6.8,6.4-9.9
		c1.5-3.1,2.2-5.6,2.2-7.8c0-0.2,0.1-0.5,0.2-0.8c0.1-0.3,0-0.6-0.2-0.8c-0.2-0.2-0.8-0.3-1.6-0.3s-2.1,0.2-3.9,0.5
		c-2.3,0.5-5,1.3-8,2.6c-3.1,1.3-6.3,3.1-9.5,5.3c-1.5,5-3.1,10.3-4.7,15.7c-1.6,5.4-3.3,11.2-5,17.3
		C392.3,562.9,397,559.2,401.1,555.4z"/>
</g>
</svg>
