<?xml version="1.0" encoding="utf-8"?>
<!-- Generator: Adobe Illustrator 21.0.0, SVG Export Plug-In . SVG Version: 6.00 Build 0)  -->
<svg version="1.1" xmlns="http://www.w3.org/2000/svg" xmlns:xlink="http://www.w3.org/1999/xlink" x="0px" y="0px"
	 viewBox="0 0 1024 1024" style="enable-background:new 0 0 1024 1024;" xml:space="preserve">
<style type="text/css">
	.st0{fill:#222223;}
	.st1{fill:#FFFFFF;}
</style>
<g id="Guides">
</g>
<g id="Icon">
	<circle class="st0" cx="512" cy="512" r="512"/>
	<g>
		<path class="st1" d="M588.9,298h-272c-10,0-18.1,8.1-18.1,18v124.5h255.1c5.3,0,10.4,2.2,14,6l59.2,62.1c1.3,1.4,1.3,3.5,0,4.9
			l-59.2,62.7c-3.6,3.9-7.7,7-13,7H298.8V708c0,9.9,8.1,18,18.1,18h271.9c6,0,11.7-2.4,16-6.6l183.7-182.5
			c6.9-6.8,10.7-16.1,10.7-25.7s-3.9-18.9-10.8-25.7L604.8,304.5C600.5,300.3,594.8,298,588.9,298z"/>
	</g>
</g>
</svg>
