<svg xmlns="http://www.w3.org/2000/svg" viewBox="0 0 1024 1024">
   <circle cx="512" cy="512" r="512" style="fill:#49a1d8"/>
   <path data-name="Windscribe logo (monochrome version by krisu)" d="M724.09 376.15c-7.45-18-14.75-36.05-22.29-54C638.56 296 575.23 270.09 512 243.94c-63.23 26.15-126.56 52.06-189.79 78.21-7.54 17.95-14.84 36-22.29 54Q272 444.07 244 512q39.11 95 78.23 190 94.9 39 189.77 78.08 94.92-39 189.77-78.08 39.17-95 78.23-190-27.94-67.93-55.91-135.85zM512 742.84q-81.87-33.41-163.7-66.92-33.58-82-67-163.94 33.51-81.9 67-163.8 81.6-33.3 163.16-66.7a1.12 1.12 0 0 1 1.2 0q81.59 33.33 163.16 66.7 33.53 81.89 67 163.8-33.49 82-67 163.94C621.14 698.2 512 742.84 512 742.84m.12-186.31a.23.23 0 0 1-.22 0q-26.15 26.32-52.29 52.64c-10.3 10.17-25 14.61-39.25 14.82h-42.61V400.43h52.56v163.56q25.8-26 51.66-51.92 14.92-15 29.91-30l.1-.1.1.1q15 15 29.91 30Q567.88 538 593.67 564q.09-81.78 0-163.56h52.56V624h-42.61c-14.22-.21-28.95-4.65-39.25-14.82q-26.19-26.27-52.29-52.64m200.75-44.85.05.13h-3.38c-4 .09-8.06 0-12.09 0h-43.28V392.6h-63.69l-2.29 2.3L576 407.06c-5.79 5.79-11.78 11.77-17.66 17.68L556 427v76.95h-11c-9.21-9.28-18.42-18.51-27.35-27.47L512.1 471l-.12-.12-.1.1-5.54 5.56c-8.93 9-18.14 18.19-27.35 27.47H468V427l-2.29-2.3c-5.88-5.9-11.87-11.89-17.66-17.68l-12.15-12.15-2.29-2.3H369.9v119.22h-43.28c-4 0-8.07.09-12.09 0h-3.41l.05-.13h-.05q29.82-70.51 59.46-141.12Q440.76 340.92 511 311.4a1.84 1.84 0 0 1 2 0q70.21 29.6 140.46 59.16 29.72 70.57 59.46 141.12z" style="fill:#fff"/>
</svg>
