<?xml version="1.0" encoding="utf-8"?>
<!-- Generator: Adobe Illustrator 21.0.0, SVG Export Plug-In . SVG Version: 6.00 Build 0)  -->
<svg version="1.1" xmlns="http://www.w3.org/2000/svg" xmlns:xlink="http://www.w3.org/1999/xlink" x="0px" y="0px"
	 viewBox="0 0 1024 1024" style="enable-background:new 0 0 1024 1024;" xml:space="preserve">
<style type="text/css">
	.st0{fill:#674FE6;}
	.st1{fill:#FFFFFF;}
</style>
<g id="Min_Guides__x28_DO_NOT_REMOVE_x29_">
</g>
<g id="Max_Guides__x28_DO_NOT_REMOVE_x29_">
</g>
<g id="Icon">
	<circle id="Background" class="st0" cx="512" cy="512" r="512"/>
	<path class="st1" d="M548.9,416.2c7.8-4.1,21.8-3.7,21.8-3.7c0,13.6-1.3,21.7-9.9,28c-2.7,2-7.5,5.1-13,7.1
		c-7.6,2.8-12.8,7.7-12.8,7.7C535,430.5,538.8,421.5,548.9,416.2 M488.8,422c-8.3,7.3-10.7,18.9-10.7,18.9L450.7,547l-22.8-86.9
		c-2.2-9.2-6.2-20.7-12.5-28.4c-8.1-9.8-24.5-10.5-26.2-10.5c-1.7,0-18.1,0.6-26.2,10.5c-6.3,7.7-10.3,19.1-12.5,28.4L327.6,547
		l-27.4-106.1c0,0-2.4-11.6-10.7-18.9c-13.4-11.8-33.5-9.3-33.5-9.3L308.4,611c0,0,17.3,1.2,26-3.2c11.4-5.8,16.8-10.3,23.7-37.3
		c6.1-24.1,23.3-94.7,24.9-99.8c0.8-2.5,1.8-8.4,6.2-8.4c4.5,0,5.4,5.9,6.2,8.4c1.6,5,18.8,75.7,24.9,99.8
		c6.9,27,12.3,31.5,23.7,37.3c8.7,4.4,26,3.2,26,3.2l52.5-198.4C522.3,412.7,502.2,410.1,488.8,422 M570.7,445.1
		c0,0-3.3,5.1-10.8,9.3c-4.8,2.7-9.4,4.5-14.4,6.9c-8.3,4-10.5,8.4-10.5,15.2v2.3v10.5v0.3v2.4V611c0,0,13.2,1.7,21.9-2.7
		c11.1-5.7,13.7-11.2,13.8-35.8V452.2l0,0V445.1z M701.5,512.3l66.6-99c0,0-28.1-4.8-42,7.9c-8.9,8.1-18.9,22.7-18.9,22.7
		l-24.5,35.3c-1.2,1.8-2.7,3.8-5.2,3.8c-2.5,0-4-2-5.2-3.8l-24.5-35.3c0,0-10-14.6-18.9-22.7c-13.9-12.7-42-7.9-42-7.9l66.6,99
		L587,611c0,0,29.3,3.7,43.2-9c8.9-8.1,17.5-21.3,17.5-21.3l24.5-35.3c1.2-1.8,2.7-3.8,5.2-3.8c2.5,0,4,2,5.2,3.8l24.5,35.3
		c0,0,9.1,13.2,18,21.3c13.9,12.7,42.7,9,42.7,9L701.5,512.3z"/>
</g>
</svg>
