<svg xmlns="http://www.w3.org/2000/svg" viewBox="0 0 1024 1024">
   <circle cx="512" cy="512" r="512" style="fill:#f8cd4a"/>
   <path d="M662.09 498.3c-68.36 0-123.84 56.08-123.84 125.19s55.48 125.19 123.84 125.19 123.84-56.08 123.84-125.19S730.45 498.3 662.09 498.3Zm0 145.82a20.63 20.63 0 1 1 20.41-20.63 20.49 20.49 0 0 1-20.41 20.63ZM526 628.89H424a20.48 20.48 0 0 1-19.62 15.22c-9.51 0-20.21-9.21-20.21-20.43a20.41 20.41 0 0 1 20.21-20.43c11.1 0 17.24 6.41 19.42 15h101.77a2.42 2.42 0 0 0 2.38-2.4c-4.16-70.71-66.18-125.39-138.7-116.58-56.07 6.81-101.45 53.08-107.79 109.77-6.74 61.29 28.93 118.58 81.44 131.6 32.3 8.81 65.59 3.41 83.62-11a1.25 1.25 0 0 1 2 1v16a2.21 2.21 0 0 0 2.18 2.2h75.1a2.21 2.21 0 0 0 2.18-2.2V631.5a2.21 2.21 0 0 0-2.18-2.2l.2-.4Zm-.67-321.11-69.35-70.31a2.39 2.39 0 0 0-3.17 0l-50.53 51.08-50.53-51.08a2.39 2.39 0 0 0-3.17 0L279 307.78a2.45 2.45 0 0 0 0 3.2l50.53 51.08L279 413.14a2.45 2.45 0 0 0 0 3.2l69.55 70.31a2.39 2.39 0 0 0 3.17 0l50.53-51.08 50.53 51.08a2.39 2.39 0 0 0 3.17 0l69.55-70.31a2.45 2.45 0 0 0 0-3.2L475 362.06 525.5 311a2.45 2.45 0 0 0 0-3.2h-.2Z"/>
</svg>
