<svg xmlns="http://www.w3.org/2000/svg" viewBox="0 0 1024 1024" style="enable-background:new 0 0 1024 1024" xml:space="preserve">
   <circle cx="512" cy="512" r="512" style="fill:#85c3e9"/>
   <path d="M280.4 533.7v60.4h-50.1v-60.4l-57.6-106.6H230l26.3 51.1c8.8-16.6 17.6-35 25.8-51.1H337l-56.6 106.6zM437 594.2l-46.9-78v78h-47.4v-167h42.8l46.9 76.7v-76.7h47.1v167H437zm161.7-29.7h-48.4l-9.7 29.6h-53.5l60.3-166.9H605l58.8 167h-55.7l-9.4-29.7zm-24.1-76.4L562 526.3h25.3l-12.7-38.2zm163.7 106.1h-67.1v-167h63.7c37.7 0 59.6 16.3 59.6 45.9 0 14.8-7.6 26.9-19.9 36 12.9 7.4 20.9 22.2 20.9 37.3-.1 30.7-21.5 47.8-57.2 47.8zm-7.1-128.1h-12.1v27.1H732c6.3 0 11.9-5.2 11.9-14.3-.1-7.1-4.6-12.8-12.7-12.8zm-1 61.4H719v27.9h10.5c10.5 0 16-5.2 16-13.6.1-8.8-4.3-14.3-15.3-14.3zm66.7 41.7c0-15.3 12.1-27.6 27.2-27.6s27.2 12.3 27.2 27.6-12.1 27.6-27.2 27.6-27.2-12.3-27.2-27.6z" style="fill:#fff"/>
</svg>
