<svg xmlns="http://www.w3.org/2000/svg" viewBox="0 0 1024 1024" style="enable-background:new 0 0 1024 1024" xml:space="preserve">
   <circle cx="512" cy="512" r="512" style="fill:#fdb15c"/>
   <path d="M761.5 310.2v-45.7h-499v45.7h226.6v27.1c-86.7 11.4-153.6 85.5-153.6 175.2 0 89.7 66.9 163.7 153.6 175.2v72h43.1V688c88.5-9.8 157.3-84.7 157.3-175.6 0-91-68.8-165.8-157.3-175.6v-26.6h229.3zM379.4 512.4c0-65.4 47.4-119.8 109.7-130.9v261.7c-62.3-11-109.7-65.4-109.7-130.8zm266.2 0c0 66.7-49.3 122-113.4 131.5v-263c64.2 9.5 113.4 64.8 113.4 131.5z" style="fill:#fff"/>
</svg>
